<svg width="142" height="21" viewBox="0 0 142 21" fill="none" xmlns="http://www.w3.org/2000/svg">
<g id="ru_add_to_Pay_NBG">
<path id="Left Text" d="M1.367 17.4326V13.3366H2.375C2.55633 13.0379 2.711 12.6646 2.839 12.2166C2.97767 11.7686 3.08433 11.2779 3.159 10.7446C3.24433 10.2006 3.30833 9.63528 3.351 9.04861C3.39367 8.45128 3.415 7.85928 3.415 7.27261V3.54461H10.759V13.3366H12.103V17.4326H10.391V15.0006H3.079V17.4326H1.367ZM4.295 13.3366H8.999V5.20861H5.127V7.52861C5.127 8.30728 5.095 9.04328 5.031 9.73661C4.967 10.4299 4.871 11.0753 4.743 11.6726C4.62567 12.2593 4.47634 12.7819 4.295 13.2406V13.3366ZM17.523 15.2566C16.6803 15.2566 15.939 15.0646 15.299 14.6806C14.659 14.2966 14.1577 13.7793 13.795 13.1286C13.4323 12.4673 13.251 11.7313 13.251 10.9206C13.251 10.1099 13.4323 9.37928 13.795 8.72861C14.1577 8.06728 14.659 7.54461 15.299 7.16061C15.939 6.77661 16.6803 6.58461 17.523 6.58461C18.355 6.58461 19.091 6.78194 19.731 7.17661C20.371 7.56061 20.8723 8.07794 21.235 8.72861C21.5977 9.37928 21.779 10.1099 21.779 10.9206C21.779 11.7313 21.5977 12.4673 21.235 13.1286C20.8723 13.7793 20.371 14.2966 19.731 14.6806C19.091 15.0646 18.355 15.2566 17.523 15.2566ZM17.523 13.6726C17.971 13.6726 18.387 13.5659 18.771 13.3526C19.155 13.1286 19.4643 12.8139 19.699 12.4086C19.9443 11.9926 20.067 11.4966 20.067 10.9206C20.067 10.3446 19.9443 9.85394 19.699 9.44861C19.4643 9.03261 19.155 8.71794 18.771 8.50461C18.387 8.28061 17.971 8.16861 17.523 8.16861C17.075 8.16861 16.6537 8.28061 16.259 8.50461C15.875 8.71794 15.5603 9.03261 15.315 9.44861C15.0803 9.85394 14.963 10.3446 14.963 10.9206C14.963 11.4966 15.0803 11.9926 15.315 12.4086C15.5603 12.8139 15.8803 13.1286 16.275 13.3526C16.6697 13.5659 17.0857 13.6726 17.523 13.6726ZM27.3925 15.2566C26.5925 15.2566 25.8832 15.0699 25.2645 14.6966C24.6565 14.3233 24.1765 13.7633 23.8245 13.0166C23.4725 12.2699 23.2965 11.3259 23.2965 10.1846C23.2965 9.40594 23.3445 8.71794 23.4405 8.12061C23.5472 7.52328 23.7125 7.00594 23.9365 6.56861C24.1605 6.13128 24.4538 5.75794 24.8165 5.44861C25.1578 5.16061 25.5792 4.92061 26.0805 4.72861C26.5925 4.53661 27.2272 4.38194 27.9845 4.26461C28.3898 4.20061 28.6778 4.13661 28.8485 4.07261C29.0298 4.00861 29.1418 3.93394 29.1845 3.84861C29.2378 3.76328 29.2645 3.66194 29.2645 3.54461H30.8325C30.8325 4.02461 30.7578 4.40861 30.6085 4.69661C30.4698 4.97394 30.2138 5.18728 29.8405 5.33661C29.4778 5.47528 28.9605 5.59794 28.2885 5.70461C27.8192 5.77928 27.4245 5.85928 27.1045 5.94461C26.7952 6.02994 26.5338 6.13128 26.3205 6.24861C26.1178 6.35528 25.9365 6.47261 25.7765 6.60061C25.4992 6.82461 25.2858 7.08061 25.1365 7.36861C24.9872 7.65661 24.8805 8.00861 24.8165 8.42461H24.9125C25.0725 8.16861 25.2858 7.94461 25.5525 7.75261C25.8298 7.54994 26.1498 7.39528 26.5125 7.28861C26.8752 7.17128 27.2698 7.11261 27.6965 7.11261C28.4538 7.11261 29.1205 7.28861 29.6965 7.64061C30.2725 7.98194 30.7205 8.45128 31.0405 9.04861C31.3712 9.63528 31.5365 10.3126 31.5365 11.0806C31.5365 11.8699 31.3605 12.5846 31.0085 13.2246C30.6565 13.8539 30.1712 14.3499 29.5525 14.7126C28.9338 15.0753 28.2138 15.2566 27.3925 15.2566ZM27.4085 13.7046C28.1018 13.7046 28.6725 13.4699 29.1205 13.0006C29.5792 12.5313 29.8085 11.8806 29.8085 11.0486C29.8085 10.2913 29.5792 9.69928 29.1205 9.27261C28.6725 8.84594 28.1018 8.63261 27.4085 8.63261C26.9712 8.63261 26.5712 8.72861 26.2085 8.92061C25.8458 9.11261 25.5578 9.38994 25.3445 9.75261C25.1312 10.1046 25.0245 10.5366 25.0245 11.0486C25.0245 11.8806 25.2485 12.5313 25.6965 13.0006C26.1552 13.4699 26.7258 13.7046 27.4085 13.7046ZM35.8243 15.2566C35.2376 15.2566 34.7149 15.1393 34.2563 14.9046C33.8083 14.6699 33.4509 14.3499 33.1843 13.9446C32.9283 13.5286 32.8003 13.0539 32.8003 12.5206C32.8003 11.9339 32.9496 11.4379 33.2483 11.0326C33.5576 10.6273 33.9683 10.3179 34.4803 10.1046C34.9923 9.89128 35.5576 9.78461 36.1763 9.78461C36.5176 9.78461 36.8323 9.81128 37.1203 9.86461C37.4189 9.90728 37.6749 9.96061 37.8883 10.0246C38.1123 10.0886 38.2883 10.1579 38.4163 10.2326V9.80061C38.4163 9.26728 38.2243 8.84061 37.8403 8.52061C37.4563 8.20061 36.9603 8.04061 36.3523 8.04061C35.9363 8.04061 35.5416 8.13661 35.1683 8.32861C34.7949 8.50994 34.4963 8.76061 34.2723 9.08061L33.0883 8.16861C33.3229 7.83794 33.6056 7.55528 33.9363 7.32061C34.2776 7.08594 34.6563 6.90461 35.0723 6.77661C35.4989 6.64861 35.9416 6.58461 36.4003 6.58461C37.5843 6.58461 38.4963 6.87794 39.1363 7.46461C39.7763 8.04061 40.0963 8.85128 40.0963 9.89661V15.0006H38.4163V13.9926H38.3203C38.1816 14.2059 37.9896 14.4086 37.7443 14.6006C37.5096 14.7926 37.2269 14.9473 36.8963 15.0646C36.5763 15.1926 36.2189 15.2566 35.8243 15.2566ZM36.1283 13.8486C36.5763 13.8486 36.9709 13.7419 37.3123 13.5286C37.6643 13.3153 37.9363 13.0379 38.1283 12.6966C38.3203 12.3446 38.4163 11.9659 38.4163 11.5606C38.1816 11.4219 37.8936 11.3099 37.5523 11.2246C37.2216 11.1286 36.8696 11.0806 36.4963 11.0806C35.7923 11.0806 35.2909 11.2193 34.9923 11.4966C34.6936 11.7739 34.5443 12.1206 34.5443 12.5366C34.5443 12.9206 34.6883 13.2353 34.9763 13.4806C35.2643 13.7259 35.6483 13.8486 36.1283 13.8486ZM42.1486 15.0006V6.84061H46.1966C46.6766 6.84061 47.1033 6.93661 47.4766 7.12861C47.8606 7.30994 48.1593 7.56061 48.3726 7.88061C48.5966 8.20061 48.7086 8.55794 48.7086 8.95261C48.7086 9.37928 48.6126 9.74728 48.4206 10.0566C48.2393 10.3659 47.9993 10.5953 47.7006 10.7446V10.8406C48.106 11.0006 48.426 11.2406 48.6606 11.5606C48.906 11.8806 49.0286 12.2486 49.0286 12.6646C49.0286 13.1446 48.9006 13.5606 48.6446 13.9126C48.3993 14.2646 48.0793 14.5366 47.6846 14.7286C47.29 14.9099 46.8686 15.0006 46.4206 15.0006H42.1486ZM43.8766 11.4486V13.5606H46.2446C46.554 13.5606 46.81 13.4646 47.0126 13.2726C47.226 13.0699 47.3326 12.8139 47.3326 12.5046C47.3326 12.2059 47.226 11.9553 47.0126 11.7526C46.81 11.5499 46.554 11.4486 46.2446 11.4486H43.8766ZM43.8766 8.24861V10.1686H45.9886C46.2766 10.1686 46.5166 10.0779 46.7086 9.89661C46.9006 9.71528 46.9966 9.48594 46.9966 9.20861C46.9966 8.92061 46.9006 8.69128 46.7086 8.52061C46.5166 8.33928 46.2766 8.24861 45.9886 8.24861H43.8766ZM50.783 15.0006V6.84061H52.511V11.0166L52.415 12.5526H52.511L56.591 6.84061H58.303V15.0006H56.591V10.8406L56.687 9.30461H56.591L52.511 15.0006H50.783ZM62.5599 15.0006V8.34461H59.8719V6.84061H66.9599V8.34461H64.2719V15.0006H62.5599ZM70.2485 6.84061V9.56061H72.1205C72.6858 9.56061 73.1872 9.67794 73.6245 9.91261C74.0618 10.1473 74.4085 10.4726 74.6645 10.8886C74.9205 11.2939 75.0485 11.7579 75.0485 12.2806C75.0485 12.7926 74.9205 13.2566 74.6645 13.6726C74.4085 14.0886 74.0618 14.4139 73.6245 14.6486C73.1872 14.8833 72.6858 15.0006 72.1205 15.0006H68.5205V6.84061H70.2485ZM70.2485 10.9846V13.5606H71.9765C72.3605 13.5606 72.6805 13.4379 72.9365 13.1926C73.1925 12.9473 73.3205 12.6433 73.3205 12.2806C73.3205 11.9179 73.1925 11.6139 72.9365 11.3686C72.6805 11.1126 72.3605 10.9846 71.9765 10.9846H70.2485ZM80.5236 15.0006V6.84061H84.5716C85.0516 6.84061 85.4783 6.93661 85.8516 7.12861C86.2356 7.30994 86.5343 7.56061 86.7476 7.88061C86.9716 8.20061 87.0836 8.55794 87.0836 8.95261C87.0836 9.37928 86.9876 9.74728 86.7956 10.0566C86.6143 10.3659 86.3743 10.5953 86.0756 10.7446V10.8406C86.481 11.0006 86.801 11.2406 87.0356 11.5606C87.281 11.8806 87.4036 12.2486 87.4036 12.6646C87.4036 13.1446 87.2756 13.5606 87.0196 13.9126C86.7743 14.2646 86.4543 14.5366 86.0596 14.7286C85.665 14.9099 85.2436 15.0006 84.7956 15.0006H80.5236ZM82.2516 11.4486V13.5606H84.6196C84.929 13.5606 85.185 13.4646 85.3876 13.2726C85.601 13.0699 85.7076 12.8139 85.7076 12.5046C85.7076 12.2059 85.601 11.9553 85.3876 11.7526C85.185 11.5499 84.929 11.4486 84.6196 11.4486H82.2516ZM82.2516 8.24861V10.1686H84.3636C84.6516 10.1686 84.8916 10.0779 85.0836 9.89661C85.2756 9.71528 85.3716 9.48594 85.3716 9.20861C85.3716 8.92061 85.2756 8.69128 85.0836 8.52061C84.8916 8.33928 84.6516 8.24861 84.3636 8.24861H82.2516Z" fill="white"/>
<g id="GPay (Dark)">
<g id="GPay">
<g id="Pay">
<path id="Fill 1" fill-rule="evenodd" clip-rule="evenodd" d="M116.356 3.42339V8.16175H119.278C119.974 8.16175 120.55 7.92781 121.005 7.45993C121.473 6.99313 121.707 6.43644 121.707 5.79203C121.707 5.16061 121.473 4.61041 121.005 4.14254C120.55 3.66274 119.974 3.4223 119.278 3.4223H116.356V3.42339ZM116.356 9.82966V15.3262H114.611V1.75549H119.24C120.417 1.75549 121.415 2.14756 122.238 2.93061C123.073 3.71365 123.491 4.66782 123.491 5.79203C123.491 6.94224 123.073 7.90291 122.238 8.67296C121.428 9.44409 120.429 9.82858 119.24 9.82858H116.356V9.82966Z" fill="white"/>
<path id="Fill 3" fill-rule="evenodd" clip-rule="evenodd" d="M125.255 12.4831C125.255 12.9379 125.448 13.317 125.834 13.6203C126.22 13.9235 126.672 14.0752 127.19 14.0752C127.924 14.0752 128.578 13.8032 129.153 13.2607C129.729 12.717 130.017 12.0791 130.017 11.3469C129.472 10.917 128.713 10.7025 127.74 10.7025C127.031 10.7025 126.44 10.8736 125.966 11.2148C125.492 11.5559 125.255 11.9773 125.255 12.4831M127.513 5.73566C128.803 5.73566 129.821 6.08007 130.569 6.76889C131.314 7.45771 131.687 8.40213 131.687 9.60216V15.3261H130.018V14.0373H129.942C129.221 15.0985 128.259 15.6294 127.058 15.6294C126.033 15.6294 125.176 15.3261 124.487 14.7196C123.797 14.1131 123.453 13.3549 123.453 12.4452C123.453 11.4845 123.816 10.7208 124.543 10.1523C125.271 9.58375 126.241 9.2989 127.456 9.2989C128.492 9.2989 129.346 9.48844 130.017 9.86751V9.46894C130.017 8.86243 129.776 8.34798 129.296 7.92451C128.814 7.50103 128.252 7.28984 127.607 7.28984C126.633 7.28984 125.862 7.70032 125.293 8.52235L123.755 7.55519C124.603 6.34217 125.855 5.73566 127.513 5.73566" fill="white"/>
<path id="Fill 5" fill-rule="evenodd" clip-rule="evenodd" d="M141.269 6.03894L135.443 19.4201H133.641L135.804 14.738L131.971 6.03894H133.869L136.639 12.7106H136.677L139.371 6.03894H141.269Z" fill="white"/>
</g>
<g id="G">
<path id="Fill 8" fill-rule="evenodd" clip-rule="evenodd" d="M109.303 8.64473C109.303 8.09563 109.256 7.56601 109.168 7.05914H101.806V10.0625H106.023C105.842 11.0414 105.294 11.8744 104.464 12.4322V14.3828H106.98C108.454 13.0246 109.303 11.0177 109.303 8.64473" fill="#4285F4"/>
<path id="Fill 10" fill-rule="evenodd" clip-rule="evenodd" d="M101.806 16.2651C103.913 16.2651 105.687 15.5741 106.98 14.3828L104.464 12.4322C103.763 12.9033 102.861 13.1784 101.806 13.1784C99.7703 13.1784 98.042 11.8073 97.424 9.95959H94.8316V11.9687C96.1164 14.516 98.7565 16.2651 101.806 16.2651" fill="#34A853"/>
<path id="Fill 12" fill-rule="evenodd" clip-rule="evenodd" d="M97.424 9.9596C97.2657 9.48847 97.179 8.98593 97.179 8.46715C97.179 7.94837 97.2657 7.44583 97.424 6.9747V4.96564H94.8316C94.3003 6.01837 94 7.20756 94 8.46715C94 9.72674 94.3003 10.916 94.8316 11.9687L97.424 9.9596Z" fill="#FABB05"/>
<path id="Fill 14" fill-rule="evenodd" clip-rule="evenodd" d="M101.806 3.75583C102.957 3.75583 103.988 4.15115 104.801 4.92553V4.92661L107.029 2.70094C105.676 1.44243 103.912 0.669128 101.806 0.669128C98.7565 0.669128 96.1164 2.41826 94.8316 4.9656L97.424 6.97467C98.042 5.12698 99.7703 3.75583 101.806 3.75583" fill="#E94235"/>
</g>
</g>
</g>
</g>
</svg>
