<svg width="223" height="21" viewBox="0 0 223 21" fill="none" xmlns="http://www.w3.org/2000/svg">
<g id="ru_book_with_Pay_NBG">
<path id="Left Text" d="M5.04013 15.2566C4.33613 15.2566 3.69613 15.1446 3.12013 14.9206C2.55479 14.6966 2.06946 14.3819 1.66413 13.9766C1.26946 13.5713 0.981461 13.1019 0.800128 12.5686L2.28813 11.7846C2.52279 12.3179 2.86413 12.7606 3.31213 13.1126C3.77079 13.4539 4.35213 13.6246 5.05613 13.6246C5.4828 13.6246 5.87213 13.5553 6.22413 13.4166C6.5868 13.2779 6.8748 13.0646 7.08813 12.7766C7.30146 12.4886 7.40813 12.1366 7.40813 11.7206C7.40813 11.1766 7.21613 10.7233 6.83213 10.3606C6.45879 9.98728 5.92546 9.80061 5.23213 9.80061H3.68013V8.23261H5.23213C5.81879 8.23261 6.26146 8.07794 6.56013 7.76861C6.85879 7.44861 7.00813 7.04861 7.00813 6.56861C7.00813 6.01394 6.82679 5.59261 6.46413 5.30461C6.10146 5.01661 5.60013 4.87261 4.96013 4.87261C4.39479 4.87261 3.88813 4.98994 3.44013 5.22461C3.00279 5.45928 2.67213 5.78461 2.44813 6.20061L1.00813 5.51261C1.24279 5.04328 1.54679 4.64328 1.92013 4.31261C2.29346 3.98194 2.73613 3.73128 3.24813 3.56061C3.77079 3.37928 4.34146 3.28861 4.96013 3.28861C5.7388 3.28861 6.4108 3.42194 6.97613 3.68861C7.55213 3.94461 7.9948 4.30728 8.30413 4.77661C8.61346 5.24594 8.76813 5.78461 8.76813 6.39261C8.76813 6.93661 8.62946 7.42728 8.35213 7.86461C8.08546 8.29128 7.68546 8.63261 7.15213 8.88861V8.98461C7.74946 9.22994 8.2348 9.58194 8.60813 10.0406C8.98146 10.4993 9.16813 11.0699 9.16813 11.7526C9.16813 12.3926 9.00279 12.9793 8.67213 13.5126C8.34146 14.0459 7.8668 14.4726 7.24813 14.7926C6.62946 15.1019 5.89346 15.2566 5.04013 15.2566ZM13.5649 15.2566C12.9782 15.2566 12.4555 15.1393 11.9969 14.9046C11.5489 14.6699 11.1915 14.3499 10.9249 13.9446C10.6689 13.5286 10.5409 13.0539 10.5409 12.5206C10.5409 11.9339 10.6902 11.4379 10.9889 11.0326C11.2982 10.6273 11.7089 10.3179 12.2209 10.1046C12.7329 9.89128 13.2982 9.78461 13.9169 9.78461C14.2582 9.78461 14.5729 9.81128 14.8609 9.86461C15.1595 9.90728 15.4155 9.96061 15.6289 10.0246C15.8529 10.0886 16.0289 10.1579 16.1569 10.2326V9.80061C16.1569 9.26728 15.9649 8.84061 15.5809 8.52061C15.1969 8.20061 14.7009 8.04061 14.0929 8.04061C13.6769 8.04061 13.2822 8.13661 12.9089 8.32861C12.5355 8.50994 12.2369 8.76061 12.0129 9.08061L10.8289 8.16861C11.0635 7.83794 11.3462 7.55528 11.6769 7.32061C12.0182 7.08594 12.3969 6.90461 12.8129 6.77661C13.2395 6.64861 13.6822 6.58461 14.1409 6.58461C15.3249 6.58461 16.2369 6.87794 16.8769 7.46461C17.5169 8.04061 17.8369 8.85128 17.8369 9.89661V15.0006H16.1569V13.9926H16.0609C15.9222 14.2059 15.7302 14.4086 15.4849 14.6006C15.2502 14.7926 14.9675 14.9473 14.6369 15.0646C14.3169 15.1926 13.9595 15.2566 13.5649 15.2566ZM13.8689 13.8486C14.3169 13.8486 14.7115 13.7419 15.0529 13.5286C15.4049 13.3153 15.6769 13.0379 15.8689 12.6966C16.0609 12.3446 16.1569 11.9659 16.1569 11.5606C15.9222 11.4219 15.6342 11.3099 15.2929 11.2246C14.9622 11.1286 14.6102 11.0806 14.2369 11.0806C13.5329 11.0806 13.0315 11.2193 12.7329 11.4966C12.4342 11.7739 12.2849 12.1206 12.2849 12.5366C12.2849 12.9206 12.4289 13.2353 12.7169 13.4806C13.0049 13.7259 13.3889 13.8486 13.8689 13.8486ZM23.7613 15.2566C22.9613 15.2566 22.2519 15.0699 21.6333 14.6966C21.0253 14.3233 20.5453 13.7633 20.1933 13.0166C19.8413 12.2699 19.6653 11.3259 19.6653 10.1846C19.6653 9.40594 19.7133 8.71794 19.8093 8.12061C19.9159 7.52328 20.0813 7.00594 20.3053 6.56861C20.5293 6.13128 20.8226 5.75794 21.1853 5.44861C21.5266 5.16061 21.9479 4.92061 22.4493 4.72861C22.9613 4.53661 23.5959 4.38194 24.3533 4.26461C24.7586 4.20061 25.0466 4.13661 25.2173 4.07261C25.3986 4.00861 25.5106 3.93394 25.5533 3.84861C25.6066 3.76328 25.6333 3.66194 25.6333 3.54461H27.2013C27.2013 4.02461 27.1266 4.40861 26.9773 4.69661C26.8386 4.97394 26.5826 5.18728 26.2093 5.33661C25.8466 5.47528 25.3293 5.59794 24.6573 5.70461C24.1879 5.77928 23.7933 5.85928 23.4733 5.94461C23.1639 6.02994 22.9026 6.13128 22.6893 6.24861C22.4866 6.35528 22.3053 6.47261 22.1453 6.60061C21.8679 6.82461 21.6546 7.08061 21.5053 7.36861C21.3559 7.65661 21.2493 8.00861 21.1853 8.42461H21.2813C21.4413 8.16861 21.6546 7.94461 21.9213 7.75261C22.1986 7.54994 22.5186 7.39528 22.8813 7.28861C23.2439 7.17128 23.6386 7.11261 24.0653 7.11261C24.8226 7.11261 25.4893 7.28861 26.0653 7.64061C26.6413 7.98194 27.0893 8.45128 27.4093 9.04861C27.7399 9.63528 27.9053 10.3126 27.9053 11.0806C27.9053 11.8699 27.7293 12.5846 27.3773 13.2246C27.0253 13.8539 26.5399 14.3499 25.9213 14.7126C25.3026 15.0753 24.5826 15.2566 23.7613 15.2566ZM23.7773 13.7046C24.4706 13.7046 25.0413 13.4699 25.4893 13.0006C25.9479 12.5313 26.1773 11.8806 26.1773 11.0486C26.1773 10.2913 25.9479 9.69928 25.4893 9.27261C25.0413 8.84594 24.4706 8.63261 23.7773 8.63261C23.3399 8.63261 22.9399 8.72861 22.5773 8.92061C22.2146 9.11261 21.9266 9.38994 21.7133 9.75261C21.4999 10.1046 21.3933 10.5366 21.3933 11.0486C21.3933 11.8806 21.6173 12.5313 22.0653 13.0006C22.5239 13.4699 23.0946 13.7046 23.7773 13.7046ZM29.617 18.4566V6.84061H31.233V7.94461H31.329C31.4783 7.70994 31.6757 7.49128 31.921 7.28861C32.177 7.07528 32.4757 6.90461 32.817 6.77661C33.1583 6.64861 33.537 6.58461 33.953 6.58461C34.6997 6.58461 35.3663 6.77128 35.953 7.14461C36.5397 7.51794 37.0037 8.02994 37.345 8.68061C37.697 9.33128 37.873 10.0779 37.873 10.9206C37.873 11.7633 37.697 12.5099 37.345 13.1606C37.0037 13.8113 36.5397 14.3233 35.953 14.6966C35.3663 15.0699 34.6997 15.2566 33.953 15.2566C33.3343 15.2566 32.7957 15.1179 32.337 14.8406C31.8783 14.5633 31.5423 14.2539 31.329 13.9126H31.233L31.329 15.0486V18.4566H29.617ZM33.697 13.6726C34.1237 13.6726 34.5237 13.5606 34.897 13.3366C35.281 13.1126 35.585 12.7926 35.809 12.3766C36.0437 11.9606 36.161 11.4753 36.161 10.9206C36.161 10.3553 36.0437 9.86994 35.809 9.46461C35.585 9.04861 35.281 8.72861 34.897 8.50461C34.5237 8.28061 34.1237 8.16861 33.697 8.16861C33.2703 8.16861 32.8703 8.28061 32.497 8.50461C32.1237 8.72861 31.8197 9.04861 31.585 9.46461C31.3503 9.86994 31.233 10.3553 31.233 10.9206C31.233 11.4859 31.3503 11.9766 31.585 12.3926C31.8197 12.7979 32.1237 13.1126 32.497 13.3366C32.8703 13.5606 33.2703 13.6726 33.697 13.6726ZM43.4199 15.2566C42.5772 15.2566 41.8359 15.0646 41.1959 14.6806C40.5559 14.2966 40.0545 13.7793 39.6919 13.1286C39.3292 12.4673 39.1479 11.7313 39.1479 10.9206C39.1479 10.1099 39.3292 9.37928 39.6919 8.72861C40.0545 8.06728 40.5559 7.54461 41.1959 7.16061C41.8359 6.77661 42.5772 6.58461 43.4199 6.58461C44.2519 6.58461 44.9879 6.78194 45.6279 7.17661C46.2679 7.56061 46.7692 8.07794 47.1319 8.72861C47.4945 9.37928 47.6759 10.1099 47.6759 10.9206C47.6759 11.7313 47.4945 12.4673 47.1319 13.1286C46.7692 13.7793 46.2679 14.2966 45.6279 14.6806C44.9879 15.0646 44.2519 15.2566 43.4199 15.2566ZM43.4199 13.6726C43.8679 13.6726 44.2839 13.5659 44.6679 13.3526C45.0519 13.1286 45.3612 12.8139 45.5959 12.4086C45.8412 11.9926 45.9639 11.4966 45.9639 10.9206C45.9639 10.3446 45.8412 9.85394 45.5959 9.44861C45.3612 9.03261 45.0519 8.71794 44.6679 8.50461C44.2839 8.28061 43.8679 8.16861 43.4199 8.16861C42.9719 8.16861 42.5505 8.28061 42.1559 8.50461C41.7719 8.71794 41.4572 9.03261 41.2119 9.44861C40.9772 9.85394 40.8599 10.3446 40.8599 10.9206C40.8599 11.4966 40.9772 11.9926 41.2119 12.4086C41.4572 12.8139 41.7772 13.1286 42.1719 13.3526C42.5665 13.5659 42.9825 13.6726 43.4199 13.6726ZM49.2611 15.0006V6.84061H50.9891V10.1206H54.8611V6.84061H56.5891V15.0006H54.8611V11.6246H50.9891V15.0006H49.2611ZM58.7549 15.0006V6.84061H60.4829V11.0166L60.3869 12.5526H60.4829L64.5629 6.84061H66.2749V15.0006H64.5629V10.8406L64.6589 9.30461H64.5629L60.4829 15.0006H58.7549ZM68.4358 18.4566V6.84061H70.0518V7.94461H70.1478C70.2971 7.70994 70.4944 7.49128 70.7398 7.28861C70.9958 7.07528 71.2944 6.90461 71.6358 6.77661C71.9771 6.64861 72.3558 6.58461 72.7718 6.58461C73.5184 6.58461 74.1851 6.77128 74.7718 7.14461C75.3584 7.51794 75.8224 8.02994 76.1638 8.68061C76.5158 9.33128 76.6918 10.0779 76.6918 10.9206C76.6918 11.7633 76.5158 12.5099 76.1638 13.1606C75.8224 13.8113 75.3584 14.3233 74.7718 14.6966C74.1851 15.0699 73.5184 15.2566 72.7718 15.2566C72.1531 15.2566 71.6144 15.1179 71.1558 14.8406C70.6971 14.5633 70.3611 14.2539 70.1478 13.9126H70.0518L70.1478 15.0486V18.4566H68.4358ZM72.5158 13.6726C72.9424 13.6726 73.3424 13.5606 73.7158 13.3366C74.0998 13.1126 74.4038 12.7926 74.6278 12.3766C74.8624 11.9606 74.9798 11.4753 74.9798 10.9206C74.9798 10.3553 74.8624 9.86994 74.6278 9.46461C74.4038 9.04861 74.0998 8.72861 73.7158 8.50461C73.3424 8.28061 72.9424 8.16861 72.5158 8.16861C72.0891 8.16861 71.6891 8.28061 71.3158 8.50461C70.9424 8.72861 70.6384 9.04861 70.4038 9.46461C70.1691 9.86994 70.0518 10.3553 70.0518 10.9206C70.0518 11.4859 70.1691 11.9766 70.4038 12.3926C70.6384 12.7979 70.9424 13.1126 71.3158 13.3366C71.6891 13.5606 72.0891 13.6726 72.5158 13.6726ZM82.2386 15.2566C81.396 15.2566 80.6546 15.0646 80.0146 14.6806C79.3746 14.2966 78.8733 13.7793 78.5106 13.1286C78.148 12.4673 77.9666 11.7313 77.9666 10.9206C77.9666 10.1099 78.148 9.37928 78.5106 8.72861C78.8733 8.06728 79.3746 7.54461 80.0146 7.16061C80.6546 6.77661 81.396 6.58461 82.2386 6.58461C83.0706 6.58461 83.8066 6.78194 84.4466 7.17661C85.0866 7.56061 85.588 8.07794 85.9506 8.72861C86.3133 9.37928 86.4946 10.1099 86.4946 10.9206C86.4946 11.7313 86.3133 12.4673 85.9506 13.1286C85.588 13.7793 85.0866 14.2966 84.4466 14.6806C83.8066 15.0646 83.0706 15.2566 82.2386 15.2566ZM82.2386 13.6726C82.6866 13.6726 83.1026 13.5659 83.4866 13.3526C83.8706 13.1286 84.18 12.8139 84.4146 12.4086C84.66 11.9926 84.7826 11.4966 84.7826 10.9206C84.7826 10.3446 84.66 9.85394 84.4146 9.44861C84.18 9.03261 83.8706 8.71794 83.4866 8.50461C83.1026 8.28061 82.6866 8.16861 82.2386 8.16861C81.7906 8.16861 81.3693 8.28061 80.9746 8.50461C80.5906 8.71794 80.276 9.03261 80.0306 9.44861C79.796 9.85394 79.6786 10.3446 79.6786 10.9206C79.6786 11.4966 79.796 11.9926 80.0306 12.4086C80.276 12.8139 80.596 13.1286 80.9906 13.3526C81.3853 13.5659 81.8013 13.6726 82.2386 13.6726ZM88.0799 15.0006V6.84061H92.1279C92.6079 6.84061 93.0345 6.93661 93.4079 7.12861C93.7919 7.30994 94.0905 7.56061 94.3039 7.88061C94.5279 8.20061 94.6399 8.55794 94.6399 8.95261C94.6399 9.37928 94.5439 9.74728 94.3519 10.0566C94.1705 10.3659 93.9305 10.5953 93.6319 10.7446V10.8406C94.0372 11.0006 94.3572 11.2406 94.5919 11.5606C94.8372 11.8806 94.9599 12.2486 94.9599 12.6646C94.9599 13.1446 94.8319 13.5606 94.5759 13.9126C94.3305 14.2646 94.0105 14.5366 93.6159 14.7286C93.2212 14.9099 92.7999 15.0006 92.3519 15.0006H88.0799ZM89.8079 11.4486V13.5606H92.1759C92.4852 13.5606 92.7412 13.4646 92.9439 13.2726C93.1572 13.0699 93.2639 12.8139 93.2639 12.5046C93.2639 12.2059 93.1572 11.9553 92.9439 11.7526C92.7412 11.5499 92.4852 11.4486 92.1759 11.4486H89.8079ZM89.8079 8.24861V10.1686H91.9199C92.2079 10.1686 92.4479 10.0779 92.6399 9.89661C92.8319 9.71528 92.9279 9.48594 92.9279 9.20861C92.9279 8.92061 92.8319 8.69128 92.6399 8.52061C92.4479 8.33928 92.2079 8.24861 91.9199 8.24861H89.8079ZM99.2743 15.2566C98.6876 15.2566 98.1649 15.1393 97.7063 14.9046C97.2583 14.6699 96.9009 14.3499 96.6343 13.9446C96.3783 13.5286 96.2503 13.0539 96.2503 12.5206C96.2503 11.9339 96.3996 11.4379 96.6983 11.0326C97.0076 10.6273 97.4183 10.3179 97.9303 10.1046C98.4423 9.89128 99.0076 9.78461 99.6263 9.78461C99.9676 9.78461 100.282 9.81128 100.57 9.86461C100.869 9.90728 101.125 9.96061 101.338 10.0246C101.562 10.0886 101.738 10.1579 101.866 10.2326V9.80061C101.866 9.26728 101.674 8.84061 101.29 8.52061C100.906 8.20061 100.41 8.04061 99.8023 8.04061C99.3863 8.04061 98.9916 8.13661 98.6183 8.32861C98.2449 8.50994 97.9463 8.76061 97.7223 9.08061L96.5383 8.16861C96.7729 7.83794 97.0556 7.55528 97.3863 7.32061C97.7276 7.08594 98.1063 6.90461 98.5223 6.77661C98.9489 6.64861 99.3916 6.58461 99.8503 6.58461C101.034 6.58461 101.946 6.87794 102.586 7.46461C103.226 8.04061 103.546 8.85128 103.546 9.89661V15.0006H101.866V13.9926H101.77C101.632 14.2059 101.44 14.4086 101.194 14.6006C100.96 14.7926 100.677 14.9473 100.346 15.0646C100.026 15.1926 99.6689 15.2566 99.2743 15.2566ZM99.5783 13.8486C100.026 13.8486 100.421 13.7419 100.762 13.5286C101.114 13.3153 101.386 13.0379 101.578 12.6966C101.77 12.3446 101.866 11.9659 101.866 11.5606C101.632 11.4219 101.344 11.3099 101.002 11.2246C100.672 11.1286 100.32 11.0806 99.9463 11.0806C99.2423 11.0806 98.7409 11.2193 98.4423 11.4966C98.1436 11.7739 97.9943 12.1206 97.9943 12.5366C97.9943 12.9206 98.1383 13.2353 98.4263 13.4806C98.7143 13.7259 99.0983 13.8486 99.5783 13.8486ZM107.397 15.0006V8.34461H104.709V6.84061H111.797V8.34461H109.109V15.0006H107.397ZM115.086 6.84061V9.56061H116.958C117.523 9.56061 118.025 9.67794 118.462 9.91261C118.899 10.1473 119.246 10.4726 119.502 10.8886C119.758 11.2939 119.886 11.7579 119.886 12.2806C119.886 12.7926 119.758 13.2566 119.502 13.6726C119.246 14.0886 118.899 14.4139 118.462 14.6486C118.025 14.8833 117.523 15.0006 116.958 15.0006H113.358V6.84061H115.086ZM115.086 10.9846V13.5606H116.814C117.198 13.5606 117.518 13.4379 117.774 13.1926C118.03 12.9473 118.158 12.6433 118.158 12.2806C118.158 11.9179 118.03 11.6139 117.774 11.3686C117.518 11.1126 117.198 10.9846 116.814 10.9846H115.086ZM130.049 15.0006V12.0566C129.825 12.2166 129.542 12.3446 129.201 12.4406C128.86 12.5259 128.486 12.5686 128.081 12.5686C127.142 12.5686 126.39 12.2966 125.825 11.7526C125.27 11.2086 124.993 10.4726 124.993 9.54461V6.84061H126.721V9.36861C126.721 9.88061 126.865 10.2859 127.153 10.5846C127.452 10.8726 127.868 11.0166 128.401 11.0166C128.721 11.0166 129.03 10.9686 129.329 10.8726C129.638 10.7659 129.878 10.6273 130.049 10.4566V6.84061H131.761V15.0006H130.049ZM137.599 15.2566C136.799 15.2566 136.084 15.0699 135.455 14.6966C134.825 14.3233 134.329 13.8113 133.967 13.1606C133.615 12.5099 133.439 11.7686 133.439 10.9366C133.439 10.1579 133.609 9.43794 133.951 8.77661C134.292 8.11528 134.767 7.58728 135.375 7.19261C135.993 6.78728 136.703 6.58461 137.503 6.58461C138.345 6.58461 139.06 6.76594 139.647 7.12861C140.244 7.49128 140.697 7.98728 141.007 8.61661C141.316 9.24594 141.471 9.95528 141.471 10.7446C141.471 10.8619 141.465 10.9686 141.455 11.0646C141.455 11.1606 141.449 11.2353 141.439 11.2886H135.135C135.177 11.7366 135.289 12.1259 135.471 12.4566C135.705 12.8726 136.015 13.1873 136.399 13.4006C136.783 13.6139 137.199 13.7206 137.647 13.7206C138.191 13.7206 138.644 13.5979 139.007 13.3526C139.38 13.0966 139.673 12.7819 139.887 12.4086L141.311 13.0966C140.959 13.7366 140.479 14.2593 139.871 14.6646C139.263 15.0593 138.505 15.2566 137.599 15.2566ZM135.231 9.99261H139.759C139.748 9.78994 139.695 9.57661 139.599 9.35261C139.503 9.11794 139.364 8.90461 139.183 8.71261C139.001 8.52061 138.772 8.36594 138.495 8.24861C138.217 8.12061 137.892 8.05661 137.519 8.05661C137.049 8.05661 136.633 8.17928 136.271 8.42461C135.908 8.65928 135.625 8.98994 135.423 9.41661C135.337 9.59794 135.273 9.78994 135.231 9.99261ZM143.208 18.4566V6.84061H144.824V7.94461H144.92C145.069 7.70994 145.266 7.49128 145.512 7.28861C145.768 7.07528 146.066 6.90461 146.408 6.77661C146.749 6.64861 147.128 6.58461 147.544 6.58461C148.29 6.58461 148.957 6.77128 149.544 7.14461C150.13 7.51794 150.594 8.02994 150.936 8.68061C151.288 9.33128 151.464 10.0779 151.464 10.9206C151.464 11.7633 151.288 12.5099 150.936 13.1606C150.594 13.8113 150.13 14.3233 149.544 14.6966C148.957 15.0699 148.29 15.2566 147.544 15.2566C146.925 15.2566 146.386 15.1179 145.928 14.8406C145.469 14.5633 145.133 14.2539 144.92 13.9126H144.824L144.92 15.0486V18.4566H143.208ZM147.288 13.6726C147.714 13.6726 148.114 13.5606 148.488 13.3366C148.872 13.1126 149.176 12.7926 149.4 12.3766C149.634 11.9606 149.752 11.4753 149.752 10.9206C149.752 10.3553 149.634 9.86994 149.4 9.46461C149.176 9.04861 148.872 8.72861 148.488 8.50461C148.114 8.28061 147.714 8.16861 147.288 8.16861C146.861 8.16861 146.461 8.28061 146.088 8.50461C145.714 8.72861 145.41 9.04861 145.176 9.46461C144.941 9.86994 144.824 10.3553 144.824 10.9206C144.824 11.4859 144.941 11.9766 145.176 12.3926C145.41 12.7979 145.714 13.1126 146.088 13.3366C146.461 13.5606 146.861 13.6726 147.288 13.6726ZM156.899 15.2566C156.099 15.2566 155.384 15.0699 154.755 14.6966C154.125 14.3233 153.629 13.8113 153.267 13.1606C152.915 12.5099 152.739 11.7686 152.739 10.9366C152.739 10.1579 152.909 9.43794 153.251 8.77661C153.592 8.11528 154.067 7.58728 154.675 7.19261C155.293 6.78728 156.003 6.58461 156.803 6.58461C157.645 6.58461 158.36 6.76594 158.947 7.12861C159.544 7.49128 159.997 7.98728 160.307 8.61661C160.616 9.24594 160.771 9.95528 160.771 10.7446C160.771 10.8619 160.765 10.9686 160.755 11.0646C160.755 11.1606 160.749 11.2353 160.739 11.2886H154.435C154.477 11.7366 154.589 12.1259 154.771 12.4566C155.005 12.8726 155.315 13.1873 155.699 13.4006C156.083 13.6139 156.499 13.7206 156.947 13.7206C157.491 13.7206 157.944 13.5979 158.307 13.3526C158.68 13.0966 158.973 12.7819 159.187 12.4086L160.611 13.0966C160.259 13.7366 159.779 14.2593 159.171 14.6646C158.563 15.0593 157.805 15.2566 156.899 15.2566ZM154.531 9.99261H159.059C159.048 9.78994 158.995 9.57661 158.899 9.35261C158.803 9.11794 158.664 8.90461 158.483 8.71261C158.301 8.52061 158.072 8.36594 157.795 8.24861C157.517 8.12061 157.192 8.05661 156.819 8.05661C156.349 8.05661 155.933 8.17928 155.571 8.42461C155.208 8.65928 154.925 8.98994 154.723 9.41661C154.637 9.59794 154.573 9.78994 154.531 9.99261ZM165.123 15.2566C164.686 15.2566 164.238 15.2033 163.779 15.0966C163.331 14.9899 162.915 14.8086 162.531 14.5526C162.147 14.2859 161.822 13.9179 161.555 13.4486L162.931 12.6486C163.23 13.0646 163.571 13.3526 163.955 13.5126C164.35 13.6619 164.739 13.7366 165.123 13.7366C165.678 13.7366 166.099 13.6299 166.387 13.4166C166.675 13.2033 166.819 12.9259 166.819 12.5846C166.819 12.2859 166.686 12.0459 166.419 11.8646C166.163 11.6726 165.8 11.5766 165.331 11.5766H164.003V10.2166H165.331C165.736 10.2166 166.046 10.1206 166.259 9.92861C166.483 9.73661 166.595 9.49128 166.595 9.19261C166.595 8.84061 166.446 8.56328 166.147 8.36061C165.848 8.14728 165.47 8.04061 165.011 8.04061C164.606 8.04061 164.216 8.12594 163.843 8.29661C163.47 8.45661 163.187 8.67528 162.995 8.95261L161.715 8.10461C161.96 7.78461 162.254 7.51261 162.595 7.28861C162.936 7.06461 163.31 6.89394 163.715 6.77661C164.131 6.64861 164.568 6.58461 165.027 6.58461C165.635 6.58461 166.179 6.68594 166.659 6.88861C167.139 7.09128 167.518 7.37394 167.795 7.73661C168.083 8.08861 168.227 8.49928 168.227 8.96861C168.227 9.37394 168.126 9.73661 167.923 10.0566C167.72 10.3766 167.454 10.6113 167.123 10.7606V10.8566C167.539 11.0273 167.875 11.2833 168.131 11.6246C168.387 11.9659 168.515 12.3553 168.515 12.7926C168.515 13.2726 168.371 13.6993 168.083 14.0726C167.806 14.4459 167.411 14.7393 166.899 14.9526C166.398 15.1553 165.806 15.2566 165.123 15.2566Z" fill="white"/>
<g id="GPay (Dark)">
<g id="GPay">
<g id="Pay">
<path id="Fill 1" fill-rule="evenodd" clip-rule="evenodd" d="M197.356 3.42339V8.16175H200.278C200.974 8.16175 201.55 7.92781 202.005 7.45993C202.473 6.99313 202.707 6.43644 202.707 5.79203C202.707 5.16061 202.473 4.61041 202.005 4.14254C201.55 3.66274 200.974 3.4223 200.278 3.4223H197.356V3.42339ZM197.356 9.82966V15.3262H195.611V1.75549H200.24C201.417 1.75549 202.415 2.14756 203.238 2.93061C204.073 3.71365 204.491 4.66782 204.491 5.79203C204.491 6.94224 204.073 7.90291 203.238 8.67296C202.428 9.44409 201.429 9.82858 200.24 9.82858H197.356V9.82966Z" fill="white"/>
<path id="Fill 3" fill-rule="evenodd" clip-rule="evenodd" d="M206.255 12.4831C206.255 12.9379 206.448 13.317 206.834 13.6203C207.22 13.9235 207.672 14.0752 208.19 14.0752C208.924 14.0752 209.578 13.8032 210.153 13.2607C210.729 12.717 211.017 12.0791 211.017 11.3469C210.472 10.917 209.713 10.7025 208.74 10.7025C208.031 10.7025 207.44 10.8736 206.966 11.2148C206.492 11.5559 206.255 11.9773 206.255 12.4831M208.513 5.73566C209.803 5.73566 210.821 6.08007 211.569 6.76889C212.314 7.45771 212.687 8.40213 212.687 9.60216V15.3261H211.018V14.0373H210.942C210.221 15.0985 209.259 15.6294 208.058 15.6294C207.033 15.6294 206.176 15.3261 205.487 14.7196C204.797 14.1131 204.453 13.3549 204.453 12.4452C204.453 11.4845 204.816 10.7208 205.543 10.1523C206.271 9.58375 207.241 9.2989 208.456 9.2989C209.492 9.2989 210.346 9.48844 211.017 9.86751V9.46894C211.017 8.86243 210.776 8.34798 210.296 7.92451C209.814 7.50103 209.252 7.28984 208.607 7.28984C207.633 7.28984 206.862 7.70032 206.293 8.52235L204.755 7.55519C205.603 6.34217 206.855 5.73566 208.513 5.73566" fill="white"/>
<path id="Fill 5" fill-rule="evenodd" clip-rule="evenodd" d="M222.269 6.03894L216.443 19.4201H214.641L216.804 14.738L212.971 6.03894H214.869L217.639 12.7106H217.677L220.371 6.03894H222.269Z" fill="white"/>
</g>
<g id="G">
<path id="Fill 8" fill-rule="evenodd" clip-rule="evenodd" d="M190.303 8.64473C190.303 8.09563 190.256 7.56601 190.168 7.05914H182.806V10.0625H187.023C186.842 11.0414 186.294 11.8744 185.464 12.4322V14.3828H187.98C189.454 13.0246 190.303 11.0177 190.303 8.64473" fill="#4285F4"/>
<path id="Fill 10" fill-rule="evenodd" clip-rule="evenodd" d="M182.806 16.2651C184.913 16.2651 186.687 15.5741 187.98 14.3828L185.464 12.4322C184.764 12.9033 183.861 13.1784 182.806 13.1784C180.77 13.1784 179.042 11.8073 178.424 9.95959H175.832V11.9687C177.116 14.516 179.757 16.2651 182.806 16.2651" fill="#34A853"/>
<path id="Fill 12" fill-rule="evenodd" clip-rule="evenodd" d="M178.424 9.9596C178.266 9.48847 178.179 8.98593 178.179 8.46715C178.179 7.94837 178.266 7.44583 178.424 6.9747V4.96564H175.832C175.3 6.01837 175 7.20756 175 8.46715C175 9.72674 175.3 10.916 175.832 11.9687L178.424 9.9596Z" fill="#FABB05"/>
<path id="Fill 14" fill-rule="evenodd" clip-rule="evenodd" d="M182.806 3.75583C183.957 3.75583 184.988 4.15115 185.801 4.92553V4.92661L188.029 2.70094C186.676 1.44243 184.912 0.669128 182.806 0.669128C179.757 0.669128 177.116 2.41826 175.832 4.9656L178.424 6.97467C179.042 5.12698 180.77 3.75583 182.806 3.75583" fill="#E94235"/>
</g>
</g>
</g>
</g>
</svg>
