<svg width="392" height="38" viewBox="0 0 392 38" fill="none" xmlns="http://www.w3.org/2000/svg">
<g id="ru_book_with_Dark">
<path id="Text" d="M10.3952 30.448C8.56589 30.448 6.98856 30.0187 5.66323 29.16C4.33789 28.3013 3.44189 27.1627 2.97522 25.744L5.57923 24.372C5.98989 25.3053 6.58723 26.08 7.37123 26.696C8.17389 27.2933 9.19123 27.592 10.4232 27.592C11.5432 27.592 12.5046 27.312 13.3072 26.752C14.1286 26.192 14.5392 25.3613 14.5392 24.26C14.5392 23.308 14.2032 22.5147 13.5312 21.88C12.8779 21.2267 11.9446 20.9 10.7312 20.9H8.01523V18.156H10.7312C11.7579 18.156 12.5326 17.8853 13.0552 17.344C13.5779 16.784 13.8392 16.084 13.8392 15.244C13.8392 14.2733 13.5219 13.536 12.8872 13.032C12.2526 12.528 11.3752 12.276 10.2552 12.276C9.26589 12.276 8.37923 12.4813 7.59523 12.892C6.82989 13.3027 6.25123 13.872 5.85923 14.6L3.33922 13.396C3.93656 12.1827 4.83256 11.2307 6.02723 10.54C7.22189 9.84933 8.63123 9.504 10.2552 9.504C11.6179 9.504 12.7939 9.73733 13.7832 10.204C14.7912 10.6707 15.5659 11.3147 16.1072 12.136C16.6486 12.9387 16.9192 13.872 16.9192 14.936C16.9192 15.888 16.6766 16.7467 16.1912 17.512C15.7246 18.2587 15.0246 18.856 14.0912 19.304V19.472C15.1366 19.9013 15.9859 20.5173 16.6392 21.32C17.2926 22.1227 17.6192 23.1213 17.6192 24.316C17.6192 25.436 17.3299 26.4627 16.7512 27.396C16.1726 28.3293 15.3419 29.076 14.2592 29.636C13.1766 30.1773 11.8886 30.448 10.3952 30.448ZM25.351 30.448C24.3244 30.448 23.4097 30.252 22.607 29.86C21.8044 29.4493 21.179 28.88 20.731 28.152C20.283 27.424 20.059 26.5933 20.059 25.66C20.059 24.652 20.3204 23.7933 20.843 23.084C21.3844 22.356 22.103 21.8053 22.999 21.432C23.895 21.0587 24.8844 20.872 25.967 20.872C26.863 20.872 27.647 20.956 28.319 21.124C29.0097 21.292 29.5324 21.4693 29.887 21.656V20.9C29.887 19.9667 29.551 19.22 28.879 18.66C28.207 18.1 27.339 17.82 26.275 17.82C25.547 17.82 24.8564 17.988 24.203 18.324C23.5497 18.6413 23.027 19.08 22.635 19.64L20.563 18.044C21.179 17.1853 21.991 16.5133 22.999 16.028C24.0257 15.524 25.1457 15.272 26.359 15.272C28.431 15.272 30.027 15.7853 31.147 16.812C32.267 17.82 32.827 19.2387 32.827 21.068V30H29.887V28.236H29.719C29.3457 28.8147 28.7857 29.328 28.039 29.776C27.2924 30.224 26.3964 30.448 25.351 30.448ZM25.883 27.984C26.667 27.984 27.3577 27.7973 27.955 27.424C28.5524 27.0507 29.019 26.5653 29.355 25.968C29.7097 25.352 29.887 24.6893 29.887 23.98C29.4577 23.7373 28.9537 23.5413 28.375 23.392C27.7964 23.224 27.1804 23.14 26.527 23.14C25.295 23.14 24.4177 23.392 23.895 23.896C23.3724 24.3813 23.111 24.9787 23.111 25.688C23.111 26.36 23.363 26.9107 23.867 27.34C24.371 27.7693 25.043 27.984 25.883 27.984ZM43.2322 30.448C41.8322 30.448 40.5909 30.1307 39.5082 29.496C38.4442 28.8427 37.6042 27.8627 36.9882 26.556C36.3722 25.2307 36.0642 23.5693 36.0642 21.572C36.0642 19.5373 36.2695 17.8573 36.6802 16.532C37.0909 15.188 37.7722 14.1053 38.7242 13.284C39.3215 12.78 40.0589 12.36 40.9362 12.024C41.8322 11.688 42.9429 11.4173 44.2682 11.212C44.9589 11.1 45.4629 10.988 45.7802 10.876C46.0975 10.764 46.2935 10.6333 46.3682 10.484C46.4615 10.3347 46.5082 10.1573 46.5082 9.952H49.2522C49.2522 10.792 49.1215 11.464 48.8602 11.968C48.6175 12.4533 48.1695 12.8267 47.5162 13.088C46.8815 13.3493 45.9762 13.564 44.8002 13.732C43.5682 13.9187 42.6255 14.1427 41.9722 14.404C41.3375 14.6653 40.8149 14.964 40.4042 15.3C39.4895 16.0467 38.9295 17.1107 38.7242 18.492H38.8922C39.3215 17.8387 39.9562 17.2973 40.7962 16.868C41.6549 16.42 42.6442 16.196 43.7642 16.196C45.0895 16.196 46.2562 16.504 47.2642 17.12C48.2722 17.7173 49.0562 18.5387 49.6162 19.584C50.1949 20.6293 50.4842 21.8147 50.4842 23.14C50.4842 24.5213 50.1762 25.772 49.5602 26.892C48.9629 27.9933 48.1135 28.8613 47.0122 29.496C45.9295 30.1307 44.6695 30.448 43.2322 30.448ZM43.2602 27.732C44.4549 27.732 45.4535 27.3213 46.2562 26.5C47.0589 25.6787 47.4602 24.54 47.4602 23.084C47.4602 21.7587 47.0589 20.7227 46.2562 19.976C45.4535 19.2293 44.4549 18.856 43.2602 18.856C42.1029 18.856 41.1135 19.2293 40.2922 19.976C39.4895 20.7227 39.0882 21.7587 39.0882 23.084C39.0882 24.54 39.4802 25.6787 40.2642 26.5C41.0669 27.3213 42.0655 27.732 43.2602 27.732ZM53.5173 36.048V15.72H56.3453V17.652H56.5133C56.8866 17.036 57.4653 16.4853 58.2493 16C59.0519 15.5147 60.0039 15.272 61.1053 15.272C62.4119 15.272 63.5786 15.5987 64.6053 16.252C65.6319 16.9053 66.4439 17.8013 67.0413 18.94C67.6573 20.0787 67.9653 21.3853 67.9653 22.86C67.9653 24.3347 67.6573 25.6507 67.0413 26.808C66.4439 27.9467 65.6319 28.8427 64.6053 29.496C63.5786 30.1307 62.4119 30.448 61.1053 30.448C60.0039 30.448 59.0519 30.2147 58.2493 29.748C57.4653 29.2627 56.8866 28.712 56.5133 28.096H56.3453L56.5133 30.084V36.048H53.5173ZM60.6573 27.676C61.4039 27.676 62.1039 27.48 62.7573 27.088C63.4106 26.696 63.9426 26.1453 64.3533 25.436C64.7639 24.708 64.9693 23.8493 64.9693 22.86C64.9693 21.8707 64.7639 21.0213 64.3533 20.312C63.9426 19.584 63.4106 19.024 62.7573 18.632C62.1039 18.24 61.4039 18.044 60.6573 18.044C59.9106 18.044 59.2106 18.24 58.5573 18.632C57.9039 19.024 57.3719 19.584 56.9613 20.312C56.5506 21.0213 56.3453 21.8707 56.3453 22.86C56.3453 23.8493 56.5506 24.708 56.9613 25.436C57.3719 26.1453 57.9039 26.696 58.5573 27.088C59.2106 27.48 59.9106 27.676 60.6573 27.676ZM77.7098 30.448C76.2351 30.448 74.9378 30.112 73.8178 29.44C72.6978 28.768 71.8205 27.8627 71.1858 26.724C70.5511 25.5853 70.2338 24.2973 70.2338 22.86C70.2338 21.4413 70.5511 20.1627 71.1858 19.024C71.8205 17.8667 72.6978 16.952 73.8178 16.28C74.9378 15.608 76.2351 15.272 77.7098 15.272C79.1658 15.272 80.4538 15.608 81.5738 16.28C82.6938 16.952 83.5711 17.8667 84.2058 19.024C84.8405 20.1627 85.1578 21.4413 85.1578 22.86C85.1578 24.2973 84.8405 25.5853 84.2058 26.724C83.5711 27.8627 82.6938 28.768 81.5738 29.44C80.4538 30.112 79.1658 30.448 77.7098 30.448ZM77.7098 27.676C78.4938 27.676 79.2218 27.4893 79.8938 27.116C80.5658 26.724 81.1071 26.1733 81.5178 25.464C81.9471 24.736 82.1618 23.868 82.1618 22.86C82.1618 21.852 81.9471 20.9933 81.5178 20.284C81.1071 19.556 80.5658 19.0053 79.8938 18.632C79.2218 18.24 78.4938 18.044 77.7098 18.044C76.9258 18.044 76.1885 18.24 75.4978 18.632C74.8258 19.0053 74.2751 19.556 73.8458 20.284C73.4351 20.9933 73.2298 21.852 73.2298 22.86C73.2298 23.868 73.4351 24.736 73.8458 25.464C74.2751 26.1733 74.8258 26.724 75.4978 27.116C76.1885 27.4893 76.9258 27.676 77.7098 27.676ZM87.9695 30V15.72H90.9935V21.46H97.7695V15.72H100.793V30H97.7695V24.092H90.9935V30H87.9695ZM104.621 30V15.72H107.645V23.028L107.477 25.716H107.645L114.785 15.72H117.781V30H114.785V22.72L114.953 20.032H114.785L107.645 30H104.621ZM121.6 36.048V15.72H124.428V17.652H124.596C124.969 17.036 125.548 16.4853 126.332 16C127.135 15.5147 128.087 15.272 129.188 15.272C130.495 15.272 131.661 15.5987 132.688 16.252C133.715 16.9053 134.527 17.8013 135.124 18.94C135.74 20.0787 136.048 21.3853 136.048 22.86C136.048 24.3347 135.74 25.6507 135.124 26.808C134.527 27.9467 133.715 28.8427 132.688 29.496C131.661 30.1307 130.495 30.448 129.188 30.448C128.087 30.448 127.135 30.2147 126.332 29.748C125.548 29.2627 124.969 28.712 124.596 28.096H124.428L124.596 30.084V36.048H121.6ZM128.74 27.676C129.487 27.676 130.187 27.48 130.84 27.088C131.493 26.696 132.025 26.1453 132.436 25.436C132.847 24.708 133.052 23.8493 133.052 22.86C133.052 21.8707 132.847 21.0213 132.436 20.312C132.025 19.584 131.493 19.024 130.84 18.632C130.187 18.24 129.487 18.044 128.74 18.044C127.993 18.044 127.293 18.24 126.64 18.632C125.987 19.024 125.455 19.584 125.044 20.312C124.633 21.0213 124.428 21.8707 124.428 22.86C124.428 23.8493 124.633 24.708 125.044 25.436C125.455 26.1453 125.987 26.696 126.64 27.088C127.293 27.48 127.993 27.676 128.74 27.676ZM145.793 30.448C144.318 30.448 143.021 30.112 141.901 29.44C140.781 28.768 139.903 27.8627 139.269 26.724C138.634 25.5853 138.317 24.2973 138.317 22.86C138.317 21.4413 138.634 20.1627 139.269 19.024C139.903 17.8667 140.781 16.952 141.901 16.28C143.021 15.608 144.318 15.272 145.793 15.272C147.249 15.272 148.537 15.608 149.657 16.28C150.777 16.952 151.654 17.8667 152.289 19.024C152.923 20.1627 153.241 21.4413 153.241 22.86C153.241 24.2973 152.923 25.5853 152.289 26.724C151.654 27.8627 150.777 28.768 149.657 29.44C148.537 30.112 147.249 30.448 145.793 30.448ZM145.793 27.676C146.577 27.676 147.305 27.4893 147.977 27.116C148.649 26.724 149.19 26.1733 149.601 25.464C150.03 24.736 150.245 23.868 150.245 22.86C150.245 21.852 150.03 20.9933 149.601 20.284C149.19 19.556 148.649 19.0053 147.977 18.632C147.305 18.24 146.577 18.044 145.793 18.044C145.009 18.044 144.271 18.24 143.581 18.632C142.909 19.0053 142.358 19.556 141.929 20.284C141.518 20.9933 141.313 21.852 141.313 22.86C141.313 23.868 141.518 24.736 141.929 25.464C142.358 26.1733 142.909 26.724 143.581 27.116C144.271 27.4893 145.009 27.676 145.793 27.676ZM156.052 30V15.72H163.136C163.976 15.72 164.723 15.888 165.376 16.224C166.048 16.5413 166.571 16.98 166.944 17.54C167.336 18.1 167.532 18.7253 167.532 19.416C167.532 20.1627 167.364 20.8067 167.028 21.348C166.711 21.8893 166.291 22.2907 165.768 22.552V22.72C166.478 23 167.038 23.42 167.448 23.98C167.878 24.54 168.092 25.184 168.092 25.912C168.092 26.752 167.868 27.48 167.42 28.096C166.991 28.712 166.431 29.188 165.74 29.524C165.05 29.8413 164.312 30 163.528 30H156.052ZM159.076 18.184V21.544H162.772C163.276 21.544 163.696 21.3853 164.032 21.068C164.368 20.7507 164.536 20.3493 164.536 19.864C164.536 19.36 164.368 18.9587 164.032 18.66C163.696 18.3427 163.276 18.184 162.772 18.184H159.076ZM159.076 27.48H163.22C163.762 27.48 164.21 27.312 164.564 26.976C164.938 26.6213 165.124 26.1733 165.124 25.632C165.124 25.1093 164.938 24.6707 164.564 24.316C164.21 23.9613 163.762 23.784 163.22 23.784H159.076V27.48ZM175.68 30.448C174.653 30.448 173.739 30.252 172.936 29.86C172.133 29.4493 171.508 28.88 171.06 28.152C170.612 27.424 170.388 26.5933 170.388 25.66C170.388 24.652 170.649 23.7933 171.172 23.084C171.713 22.356 172.432 21.8053 173.328 21.432C174.224 21.0587 175.213 20.872 176.296 20.872C177.192 20.872 177.976 20.956 178.648 21.124C179.339 21.292 179.861 21.4693 180.216 21.656V20.9C180.216 19.9667 179.88 19.22 179.208 18.66C178.536 18.1 177.668 17.82 176.604 17.82C175.876 17.82 175.185 17.988 174.532 18.324C173.879 18.6413 173.356 19.08 172.964 19.64L170.892 18.044C171.508 17.1853 172.32 16.5133 173.328 16.028C174.355 15.524 175.475 15.272 176.688 15.272C178.76 15.272 180.356 15.7853 181.476 16.812C182.596 17.82 183.156 19.2387 183.156 21.068V30H180.216V28.236H180.048C179.675 28.8147 179.115 29.328 178.368 29.776C177.621 30.224 176.725 30.448 175.68 30.448ZM176.212 27.984C176.996 27.984 177.687 27.7973 178.284 27.424C178.881 27.0507 179.348 26.5653 179.684 25.968C180.039 25.352 180.216 24.6893 180.216 23.98C179.787 23.7373 179.283 23.5413 178.704 23.392C178.125 23.224 177.509 23.14 176.856 23.14C175.624 23.14 174.747 23.392 174.224 23.896C173.701 24.3813 173.44 24.9787 173.44 25.688C173.44 26.36 173.692 26.9107 174.196 27.34C174.7 27.7693 175.372 27.984 176.212 27.984ZM189.933 30V18.352H185.229V15.72H197.633V18.352H192.929V30H189.933ZM203.426 15.72V20.48H206.702C207.672 20.48 208.54 20.6853 209.306 21.096C210.09 21.5067 210.706 22.076 211.154 22.804C211.602 23.5133 211.826 24.3253 211.826 25.24C211.826 26.1547 211.602 26.9667 211.154 27.676C210.706 28.3853 210.09 28.9547 209.306 29.384C208.54 29.7947 207.672 30 206.702 30H200.402V15.72H203.426ZM203.426 27.48H206.45C207.122 27.48 207.682 27.2653 208.13 26.836C208.578 26.4067 208.802 25.8747 208.802 25.24C208.802 24.6053 208.578 24.0733 208.13 23.644C207.682 23.196 207.122 22.972 206.45 22.972H203.426V27.48ZM229.686 30V24.848C229.294 25.128 228.799 25.352 228.202 25.52C227.605 25.6693 226.951 25.744 226.242 25.744C224.599 25.744 223.283 25.268 222.294 24.316C221.323 23.364 220.838 22.076 220.838 20.452V15.72H223.862V20.144C223.862 21.04 224.114 21.7493 224.618 22.272C225.141 22.776 225.869 23.028 226.802 23.028C227.381 23.028 227.922 22.944 228.426 22.776C228.949 22.5893 229.369 22.3467 229.686 22.048V15.72H232.682V30H229.686ZM242.935 30.448C241.535 30.448 240.284 30.1213 239.183 29.468C238.082 28.8147 237.214 27.9187 236.579 26.78C235.963 25.6413 235.655 24.344 235.655 22.888C235.655 21.5253 235.954 20.2653 236.551 19.108C237.148 17.9507 237.979 17.0267 239.043 16.336C240.126 15.6267 241.367 15.272 242.767 15.272C244.242 15.272 245.492 15.5893 246.519 16.224C247.564 16.8587 248.358 17.7267 248.899 18.828C249.44 19.9293 249.711 21.1707 249.711 22.552C249.711 22.7573 249.702 22.944 249.683 23.112C249.683 23.28 249.674 23.4107 249.655 23.504H238.623C238.772 24.9227 239.267 25.9867 240.107 26.696C240.966 27.4053 241.936 27.76 243.019 27.76C243.99 27.76 244.792 27.5453 245.427 27.116C246.062 26.668 246.566 26.1173 246.939 25.464L249.431 26.668C248.815 27.788 247.975 28.7027 246.911 29.412C245.847 30.1027 244.522 30.448 242.935 30.448ZM242.795 17.848C241.787 17.848 240.928 18.156 240.219 18.772C239.51 19.388 239.034 20.2093 238.791 21.236H246.715C246.678 20.7507 246.519 20.2467 246.239 19.724C245.959 19.2013 245.53 18.7627 244.951 18.408C244.391 18.0347 243.672 17.848 242.795 17.848ZM252.788 36.048V15.72H255.616V17.652H255.784C256.158 17.036 256.736 16.4853 257.52 16C258.323 15.5147 259.275 15.272 260.376 15.272C261.683 15.272 262.85 15.5987 263.876 16.252C264.903 16.9053 265.715 17.8013 266.312 18.94C266.928 20.0787 267.236 21.3853 267.236 22.86C267.236 24.3347 266.928 25.6507 266.312 26.808C265.715 27.9467 264.903 28.8427 263.876 29.496C262.85 30.1307 261.683 30.448 260.376 30.448C259.275 30.448 258.323 30.2147 257.52 29.748C256.736 29.2627 256.158 28.712 255.784 28.096H255.616L255.784 30.084V36.048H252.788ZM259.928 27.676C260.675 27.676 261.375 27.48 262.028 27.088C262.682 26.696 263.214 26.1453 263.624 25.436C264.035 24.708 264.24 23.8493 264.24 22.86C264.24 21.8707 264.035 21.0213 263.624 20.312C263.214 19.584 262.682 19.024 262.028 18.632C261.375 18.24 260.675 18.044 259.928 18.044C259.182 18.044 258.482 18.24 257.828 18.632C257.175 19.024 256.643 19.584 256.232 20.312C255.822 21.0213 255.616 21.8707 255.616 22.86C255.616 23.8493 255.822 24.708 256.232 25.436C256.643 26.1453 257.175 26.696 257.828 27.088C258.482 27.48 259.182 27.676 259.928 27.676ZM276.785 30.448C275.385 30.448 274.134 30.1213 273.033 29.468C271.932 28.8147 271.064 27.9187 270.429 26.78C269.813 25.6413 269.505 24.344 269.505 22.888C269.505 21.5253 269.804 20.2653 270.401 19.108C270.998 17.9507 271.829 17.0267 272.893 16.336C273.976 15.6267 275.217 15.272 276.617 15.272C278.092 15.272 279.342 15.5893 280.369 16.224C281.414 16.8587 282.208 17.7267 282.749 18.828C283.29 19.9293 283.561 21.1707 283.561 22.552C283.561 22.7573 283.552 22.944 283.533 23.112C283.533 23.28 283.524 23.4107 283.505 23.504H272.473C272.622 24.9227 273.117 25.9867 273.957 26.696C274.816 27.4053 275.786 27.76 276.869 27.76C277.84 27.76 278.642 27.5453 279.277 27.116C279.912 26.668 280.416 26.1173 280.789 25.464L283.281 26.668C282.665 27.788 281.825 28.7027 280.761 29.412C279.697 30.1027 278.372 30.448 276.785 30.448ZM276.645 17.848C275.637 17.848 274.778 18.156 274.069 18.772C273.36 19.388 272.884 20.2093 272.641 21.236H280.565C280.528 20.7507 280.369 20.2467 280.089 19.724C279.809 19.2013 279.38 18.7627 278.801 18.408C278.241 18.0347 277.522 17.848 276.645 17.848ZM291.215 30.448C290.431 30.448 289.647 30.3547 288.863 30.168C288.079 29.9813 287.342 29.664 286.651 29.216C285.979 28.7493 285.419 28.1053 284.971 27.284L287.379 25.884C287.902 26.612 288.499 27.116 289.171 27.396C289.862 27.6573 290.543 27.788 291.215 27.788C292.186 27.788 292.923 27.6013 293.427 27.228C293.931 26.8547 294.183 26.3693 294.183 25.772C294.183 25.2493 293.95 24.8293 293.483 24.512C293.035 24.176 292.401 24.008 291.579 24.008H289.255V21.628H291.579C292.289 21.628 292.83 21.46 293.203 21.124C293.595 20.788 293.791 20.3587 293.791 19.836C293.791 19.22 293.53 18.7347 293.007 18.38C292.485 18.0067 291.822 17.82 291.019 17.82C290.31 17.82 289.629 17.9693 288.975 18.268C288.322 18.548 287.827 18.9307 287.491 19.416L285.251 17.932C285.905 17.1107 286.726 16.4667 287.715 16C288.723 15.5147 289.834 15.272 291.047 15.272C292.093 15.272 293.035 15.4493 293.875 15.804C294.734 16.1587 295.406 16.6533 295.891 17.288C296.395 17.904 296.647 18.6227 296.647 19.444C296.647 20.1533 296.47 20.788 296.115 21.348C295.761 21.8893 295.294 22.3 294.715 22.58V22.748C295.443 23.0467 296.031 23.4947 296.479 24.092C296.927 24.6893 297.151 25.3707 297.151 26.136C297.151 26.976 296.909 27.7227 296.423 28.376C295.938 29.0107 295.247 29.5147 294.351 29.888C293.455 30.2613 292.41 30.448 291.215 30.448Z" fill="white"/>
<g id="GPay Logo (Dark)">
<g id="GPay">
<g id="Pay">
<path id="Fill 1" fill-rule="evenodd" clip-rule="evenodd" d="M348.529 9.34665V17.5128H353.565C354.765 17.5128 355.757 17.1096 356.541 16.3032C357.347 15.4988 357.75 14.5394 357.75 13.4288C357.75 12.3406 357.347 11.3924 356.541 10.586C355.757 9.75916 354.765 9.34479 353.565 9.34479H348.529V9.34665ZM348.529 20.3872V29.8599H345.521V6.47218H353.499C355.527 6.47218 357.248 7.14787 358.666 8.49738C360.105 9.84688 360.824 11.4913 360.824 13.4288C360.824 15.411 360.105 17.0667 358.666 18.3938C357.27 19.7227 355.547 20.3854 353.499 20.3854H348.529V20.3872Z" fill="white"/>
<path id="Fill 3" fill-rule="evenodd" clip-rule="evenodd" d="M363.864 24.9602C363.864 25.7442 364.197 26.3975 364.862 26.9201C365.527 27.4427 366.306 27.704 367.2 27.704C368.465 27.704 369.591 27.2354 370.584 26.3004C371.576 25.3634 372.071 24.264 372.071 23.0022C371.133 22.2612 369.825 21.8916 368.147 21.8916C366.925 21.8916 365.907 22.1866 365.09 22.7745C364.273 23.3623 363.864 24.0886 363.864 24.9602ZM367.756 13.3317C369.98 13.3317 371.735 13.9253 373.022 15.1124C374.308 16.2995 374.95 17.9271 374.95 19.9952V29.8599H372.073V27.6387H371.942C370.699 29.4677 369.042 30.3825 366.972 30.3825C365.206 30.3825 363.728 29.8599 362.541 28.8146C361.353 27.7694 360.759 26.4628 360.759 24.8949C360.759 23.2393 361.385 21.9232 362.638 20.9434C363.892 19.9635 365.565 19.4726 367.658 19.4726C369.444 19.4726 370.916 19.7993 372.071 20.4525V19.7657C372.071 18.7204 371.656 17.8338 370.829 17.104C369.999 16.3742 369.031 16.0102 367.919 16.0102C366.239 16.0102 364.911 16.7176 363.93 18.1343L361.28 16.4675C362.741 14.377 364.899 13.3317 367.756 13.3317Z" fill="white"/>
<path id="Fill 5" fill-rule="evenodd" clip-rule="evenodd" d="M391.463 13.8543L381.424 36.9154H378.318L382.046 28.8464L375.44 13.8543H378.71L383.484 25.3522H383.55L388.193 13.8543H391.463Z" fill="white"/>
</g>
<g id="G">
<path id="Fill 8" fill-rule="evenodd" clip-rule="evenodd" d="M336.373 18.3452C336.373 17.3989 336.293 16.4861 336.141 15.6126H323.454V20.7885H330.72C330.408 22.4757 329.465 23.9112 328.033 24.8725V28.2341H332.37C334.91 25.8935 336.373 22.4348 336.373 18.3452Z" fill="#4285F4"/>
<path id="Fill 10" fill-rule="evenodd" clip-rule="evenodd" d="M323.454 31.4782C327.084 31.4782 330.141 30.2873 332.37 28.2341L328.033 24.8725C326.826 25.6844 325.272 26.1585 323.454 26.1585C319.944 26.1585 316.966 23.7955 315.901 20.6112H311.433V24.0736C313.647 28.4637 318.197 31.4782 323.454 31.4782Z" fill="#34A853"/>
<path id="Fill 12" fill-rule="evenodd" clip-rule="evenodd" d="M315.901 20.6111C315.628 19.7992 315.479 18.9331 315.479 18.0391C315.479 17.145 315.628 16.2789 315.901 15.467V12.0045H311.433C310.518 13.8188 310 15.8683 310 18.0391C310 20.2098 310.518 22.2595 311.433 24.0736L315.901 20.6111Z" fill="#FABB05"/>
<path id="Fill 14" fill-rule="evenodd" clip-rule="evenodd" d="M323.454 9.91964C325.436 9.91964 327.213 10.6009 328.615 11.9355V11.9374L332.455 8.10163C330.123 5.93272 327.082 4.60001 323.454 4.60001C318.197 4.60001 313.647 7.61447 311.433 12.0046L315.901 15.467C316.966 12.2827 319.944 9.91964 323.454 9.91964Z" fill="#E94235"/>
</g>
</g>
</g>
</g>
</svg>
