<svg width="163" height="21" viewBox="0 0 163 21" fill="none" xmlns="http://www.w3.org/2000/svg">
<g id="ru_buy_with_Pay_NBG">
<path id="Left Text" d="M1.66162 15.0006V3.54461H3.42162V9.09661H3.51762L8.07762 3.54461H10.2856V3.64061L5.45362 9.36861L10.5416 14.9046V15.0006H8.23762L3.51762 9.75261H3.42162V15.0006H1.66162ZM14.0264 18.0566C13.9944 18.1313 13.957 18.2059 13.9144 18.2806C13.8824 18.3659 13.861 18.4246 13.8504 18.4566H12.0104C12.0637 18.3393 12.1384 18.1739 12.2344 17.9606C12.341 17.7473 12.4424 17.5339 12.5384 17.3206C12.6024 17.1819 12.6664 17.0326 12.7304 16.8726C12.805 16.7126 12.8797 16.5473 12.9544 16.3766C13.0397 16.2059 13.1197 16.0406 13.1944 15.8806L13.8024 14.5526L10.3944 6.84061H12.3144L14.6504 12.4086H14.7304L16.9864 6.84061H18.8904L14.6664 16.5686C14.5917 16.7499 14.5064 16.9419 14.4104 17.1446C14.325 17.3473 14.245 17.5286 14.1704 17.6886C14.1064 17.8593 14.0584 17.9819 14.0264 18.0566ZM20.283 15.0006V6.84061H27.451V15.0006H25.723V8.34461H22.011V15.0006H20.283ZM29.6205 15.0006V6.84061H31.3485V11.0166L31.2525 12.5526H31.3485L35.4285 6.84061H37.1405V15.0006H35.4285V10.8406L35.5245 9.30461H35.4285L31.3485 15.0006H29.6205ZM41.3974 15.0006V8.34461H38.7094V6.84061H45.7974V8.34461H43.1094V15.0006H41.3974ZM49.086 6.84061V9.56061H50.958C51.5233 9.56061 52.0247 9.67794 52.462 9.91261C52.8993 10.1473 53.246 10.4726 53.502 10.8886C53.758 11.2939 53.886 11.7579 53.886 12.2806C53.886 12.7926 53.758 13.2566 53.502 13.6726C53.246 14.0886 52.8993 14.4139 52.462 14.6486C52.0247 14.8833 51.5233 15.0006 50.958 15.0006H47.358V6.84061H49.086ZM49.086 10.9846V13.5606H50.814C51.198 13.5606 51.518 13.4379 51.774 13.1926C52.03 12.9473 52.158 12.6433 52.158 12.2806C52.158 11.9179 52.03 11.6139 51.774 11.3686C51.518 11.1126 51.198 10.9846 50.814 10.9846H49.086ZM64.0491 15.0006V12.0566C63.8251 12.2166 63.5425 12.3446 63.2011 12.4406C62.8598 12.5259 62.4865 12.5686 62.0811 12.5686C61.1425 12.5686 60.3905 12.2966 59.8251 11.7526C59.2705 11.2086 58.9931 10.4726 58.9931 9.54461V6.84061H60.7211V9.36861C60.7211 9.88061 60.8651 10.2859 61.1531 10.5846C61.4518 10.8726 61.8678 11.0166 62.4011 11.0166C62.7211 11.0166 63.0305 10.9686 63.3291 10.8726C63.6385 10.7659 63.8785 10.6273 64.0491 10.4566V6.84061H65.7611V15.0006H64.0491ZM71.5985 15.2566C70.7985 15.2566 70.0838 15.0699 69.4545 14.6966C68.8252 14.3233 68.3292 13.8113 67.9665 13.1606C67.6145 12.5099 67.4385 11.7686 67.4385 10.9366C67.4385 10.1579 67.6092 9.43794 67.9505 8.77661C68.2918 8.11528 68.7665 7.58728 69.3745 7.19261C69.9932 6.78728 70.7025 6.58461 71.5025 6.58461C72.3452 6.58461 73.0598 6.76594 73.6465 7.12861C74.2438 7.49128 74.6972 7.98728 75.0065 8.61661C75.3158 9.24594 75.4705 9.95528 75.4705 10.7446C75.4705 10.8619 75.4652 10.9686 75.4545 11.0646C75.4545 11.1606 75.4492 11.2353 75.4385 11.2886H69.1345C69.1772 11.7366 69.2892 12.1259 69.4705 12.4566C69.7052 12.8726 70.0145 13.1873 70.3985 13.4006C70.7825 13.6139 71.1985 13.7206 71.6465 13.7206C72.1905 13.7206 72.6438 13.5979 73.0065 13.3526C73.3798 13.0966 73.6732 12.7819 73.8865 12.4086L75.3105 13.0966C74.9585 13.7366 74.4785 14.2593 73.8705 14.6646C73.2625 15.0593 72.5052 15.2566 71.5985 15.2566ZM69.2305 9.99261H73.7585C73.7478 9.78994 73.6945 9.57661 73.5985 9.35261C73.5025 9.11794 73.3638 8.90461 73.1825 8.71261C73.0012 8.52061 72.7718 8.36594 72.4945 8.24861C72.2172 8.12061 71.8918 8.05661 71.5185 8.05661C71.0492 8.05661 70.6332 8.17928 70.2705 8.42461C69.9078 8.65928 69.6252 8.98994 69.4225 9.41661C69.3372 9.59794 69.2732 9.78994 69.2305 9.99261ZM77.2076 18.4566V6.84061H78.8236V7.94461H78.9196C79.069 7.70994 79.2663 7.49128 79.5116 7.28861C79.7676 7.07528 80.0663 6.90461 80.4076 6.77661C80.749 6.64861 81.1276 6.58461 81.5436 6.58461C82.2903 6.58461 82.957 6.77128 83.5436 7.14461C84.1303 7.51794 84.5943 8.02994 84.9356 8.68061C85.2876 9.33128 85.4636 10.0779 85.4636 10.9206C85.4636 11.7633 85.2876 12.5099 84.9356 13.1606C84.5943 13.8113 84.1303 14.3233 83.5436 14.6966C82.957 15.0699 82.2903 15.2566 81.5436 15.2566C80.925 15.2566 80.3863 15.1179 79.9276 14.8406C79.469 14.5633 79.133 14.2539 78.9196 13.9126H78.8236L78.9196 15.0486V18.4566H77.2076ZM81.2876 13.6726C81.7143 13.6726 82.1143 13.5606 82.4876 13.3366C82.8716 13.1126 83.1756 12.7926 83.3996 12.3766C83.6343 11.9606 83.7516 11.4753 83.7516 10.9206C83.7516 10.3553 83.6343 9.86994 83.3996 9.46461C83.1756 9.04861 82.8716 8.72861 82.4876 8.50461C82.1143 8.28061 81.7143 8.16861 81.2876 8.16861C80.861 8.16861 80.461 8.28061 80.0876 8.50461C79.7143 8.72861 79.4103 9.04861 79.1756 9.46461C78.941 9.86994 78.8236 10.3553 78.8236 10.9206C78.8236 11.4859 78.941 11.9766 79.1756 12.3926C79.4103 12.7979 79.7143 13.1126 80.0876 13.3366C80.461 13.5606 80.861 13.6726 81.2876 13.6726ZM90.8985 15.2566C90.0985 15.2566 89.3838 15.0699 88.7545 14.6966C88.1252 14.3233 87.6292 13.8113 87.2665 13.1606C86.9145 12.5099 86.7385 11.7686 86.7385 10.9366C86.7385 10.1579 86.9092 9.43794 87.2505 8.77661C87.5918 8.11528 88.0665 7.58728 88.6745 7.19261C89.2932 6.78728 90.0025 6.58461 90.8025 6.58461C91.6452 6.58461 92.3598 6.76594 92.9465 7.12861C93.5438 7.49128 93.9972 7.98728 94.3065 8.61661C94.6158 9.24594 94.7705 9.95528 94.7705 10.7446C94.7705 10.8619 94.7652 10.9686 94.7545 11.0646C94.7545 11.1606 94.7492 11.2353 94.7385 11.2886H88.4345C88.4772 11.7366 88.5892 12.1259 88.7705 12.4566C89.0052 12.8726 89.3145 13.1873 89.6985 13.4006C90.0825 13.6139 90.4985 13.7206 90.9465 13.7206C91.4905 13.7206 91.9438 13.5979 92.3065 13.3526C92.6798 13.0966 92.9732 12.7819 93.1865 12.4086L94.6105 13.0966C94.2585 13.7366 93.7785 14.2593 93.1705 14.6646C92.5625 15.0593 91.8052 15.2566 90.8985 15.2566ZM88.5305 9.99261H93.0585C93.0478 9.78994 92.9945 9.57661 92.8985 9.35261C92.8025 9.11794 92.6638 8.90461 92.4825 8.71261C92.3012 8.52061 92.0718 8.36594 91.7945 8.24861C91.5172 8.12061 91.1918 8.05661 90.8185 8.05661C90.3492 8.05661 89.9332 8.17928 89.5705 8.42461C89.2078 8.65928 88.9252 8.98994 88.7225 9.41661C88.6372 9.59794 88.5732 9.78994 88.5305 9.99261ZM99.1231 15.2566C98.6858 15.2566 98.2378 15.2033 97.7791 15.0966C97.3311 14.9899 96.9151 14.8086 96.5311 14.5526C96.1471 14.2859 95.8218 13.9179 95.5551 13.4486L96.9311 12.6486C97.2298 13.0646 97.5711 13.3526 97.9551 13.5126C98.3498 13.6619 98.7391 13.7366 99.1231 13.7366C99.6778 13.7366 100.099 13.6299 100.387 13.4166C100.675 13.2033 100.819 12.9259 100.819 12.5846C100.819 12.2859 100.686 12.0459 100.419 11.8646C100.163 11.6726 99.8005 11.5766 99.3311 11.5766H98.0031V10.2166H99.3311C99.7365 10.2166 100.046 10.1206 100.259 9.92861C100.483 9.73661 100.595 9.49128 100.595 9.19261C100.595 8.84061 100.446 8.56328 100.147 8.36061C99.8485 8.14728 99.4698 8.04061 99.0111 8.04061C98.6058 8.04061 98.2165 8.12594 97.8431 8.29661C97.4698 8.45661 97.1871 8.67528 96.9951 8.95261L95.7151 8.10461C95.9605 7.78461 96.2538 7.51261 96.5951 7.28861C96.9365 7.06461 97.3098 6.89394 97.7151 6.77661C98.1311 6.64861 98.5685 6.58461 99.0271 6.58461C99.6351 6.58461 100.179 6.68594 100.659 6.88861C101.139 7.09128 101.518 7.37394 101.795 7.73661C102.083 8.08861 102.227 8.49928 102.227 8.96861C102.227 9.37394 102.126 9.73661 101.923 10.0566C101.72 10.3766 101.454 10.6113 101.123 10.7606V10.8566C101.539 11.0273 101.875 11.2833 102.131 11.6246C102.387 11.9659 102.515 12.3553 102.515 12.7926C102.515 13.2726 102.371 13.6993 102.083 14.0726C101.806 14.4459 101.411 14.7393 100.899 14.9526C100.398 15.1553 99.8058 15.2566 99.1231 15.2566Z" fill="white"/>
<g id="GPay (Dark)">
<g id="GPay">
<g id="Pay">
<path id="Fill 1" fill-rule="evenodd" clip-rule="evenodd" d="M131.356 3.42339V8.16175H134.278C134.974 8.16175 135.55 7.92781 136.005 7.45993C136.473 6.99313 136.707 6.43644 136.707 5.79203C136.707 5.16061 136.473 4.61041 136.005 4.14254C135.55 3.66274 134.974 3.4223 134.278 3.4223H131.356V3.42339ZM131.356 9.82966V15.3262H129.611V1.75549H134.24C135.417 1.75549 136.415 2.14756 137.238 2.93061C138.073 3.71365 138.491 4.66782 138.491 5.79203C138.491 6.94224 138.073 7.90291 137.238 8.67296C136.428 9.44409 135.429 9.82858 134.24 9.82858H131.356V9.82966Z" fill="white"/>
<path id="Fill 3" fill-rule="evenodd" clip-rule="evenodd" d="M140.255 12.4831C140.255 12.9379 140.448 13.317 140.834 13.6203C141.22 13.9235 141.672 14.0752 142.19 14.0752C142.924 14.0752 143.578 13.8032 144.153 13.2607C144.729 12.717 145.017 12.0791 145.017 11.3469C144.472 10.917 143.713 10.7025 142.74 10.7025C142.031 10.7025 141.44 10.8736 140.966 11.2148C140.492 11.5559 140.255 11.9773 140.255 12.4831M142.513 5.73566C143.803 5.73566 144.821 6.08007 145.569 6.76889C146.314 7.45771 146.687 8.40213 146.687 9.60216V15.3261H145.018V14.0373H144.942C144.221 15.0985 143.259 15.6294 142.058 15.6294C141.033 15.6294 140.176 15.3261 139.487 14.7196C138.797 14.1131 138.453 13.3549 138.453 12.4452C138.453 11.4845 138.816 10.7208 139.543 10.1523C140.271 9.58375 141.241 9.2989 142.456 9.2989C143.492 9.2989 144.346 9.48844 145.017 9.86751V9.46894C145.017 8.86243 144.776 8.34798 144.296 7.92451C143.814 7.50103 143.252 7.28984 142.607 7.28984C141.633 7.28984 140.862 7.70032 140.293 8.52235L138.755 7.55519C139.603 6.34217 140.855 5.73566 142.513 5.73566" fill="white"/>
<path id="Fill 5" fill-rule="evenodd" clip-rule="evenodd" d="M156.269 6.03894L150.443 19.4201H148.641L150.804 14.738L146.971 6.03894H148.869L151.639 12.7106H151.677L154.371 6.03894H156.269Z" fill="white"/>
</g>
<g id="G">
<path id="Fill 8" fill-rule="evenodd" clip-rule="evenodd" d="M124.303 8.64473C124.303 8.09563 124.256 7.56601 124.168 7.05914H116.806V10.0625H121.023C120.842 11.0414 120.294 11.8744 119.464 12.4322V14.3828H121.98C123.454 13.0246 124.303 11.0177 124.303 8.64473" fill="#4285F4"/>
<path id="Fill 10" fill-rule="evenodd" clip-rule="evenodd" d="M116.806 16.2651C118.913 16.2651 120.687 15.5741 121.98 14.3828L119.464 12.4322C118.763 12.9033 117.861 13.1784 116.806 13.1784C114.77 13.1784 113.042 11.8073 112.424 9.95959H109.832V11.9687C111.116 14.516 113.757 16.2651 116.806 16.2651" fill="#34A853"/>
<path id="Fill 12" fill-rule="evenodd" clip-rule="evenodd" d="M112.424 9.9596C112.266 9.48847 112.179 8.98593 112.179 8.46715C112.179 7.94837 112.266 7.44583 112.424 6.9747V4.96564H109.832C109.3 6.01837 109 7.20756 109 8.46715C109 9.72674 109.3 10.916 109.832 11.9687L112.424 9.9596Z" fill="#FABB05"/>
<path id="Fill 14" fill-rule="evenodd" clip-rule="evenodd" d="M116.806 3.75583C117.957 3.75583 118.988 4.15115 119.801 4.92553V4.92661L122.029 2.70094C120.676 1.44243 118.912 0.669128 116.806 0.669128C113.757 0.669128 111.116 2.41826 109.832 4.9656L112.424 6.97467C113.042 5.12698 114.77 3.75583 116.806 3.75583" fill="#E94235"/>
</g>
</g>
</g>
</g>
</svg>
