<svg width="310" height="38" viewBox="0 0 310 38" fill="none" xmlns="http://www.w3.org/2000/svg">
<g id="ru_checkout_with_Dark">
<path id="Text" d="M11.7246 30.448C10.2312 30.448 8.8499 30.1773 7.58057 29.636C6.3299 29.0947 5.2379 28.348 4.30457 27.396C3.37124 26.444 2.64324 25.3333 2.12057 24.064C1.5979 22.7947 1.33657 21.432 1.33657 19.976C1.33657 18.52 1.5979 17.1573 2.12057 15.888C2.64324 14.6187 3.37124 13.508 4.30457 12.556C5.2379 11.604 6.3299 10.8573 7.58057 10.316C8.8499 9.77467 10.2312 9.504 11.7246 9.504C13.1992 9.504 14.5619 9.77467 15.8126 10.316C17.0819 10.8573 18.1832 11.604 19.1166 12.556C20.0686 13.508 20.7966 14.6187 21.3006 15.888C21.8232 17.1573 22.0846 18.52 22.0846 19.976C22.0846 21.432 21.8232 22.7947 21.3006 24.064C20.7966 25.3333 20.0686 26.444 19.1166 27.396C18.1832 28.348 17.0819 29.0947 15.8126 29.636C14.5619 30.1773 13.1992 30.448 11.7246 30.448ZM11.7246 27.536C13.0686 27.536 14.2912 27.2187 15.3926 26.584C16.4939 25.9493 17.3712 25.0627 18.0246 23.924C18.6779 22.7853 19.0046 21.4693 19.0046 19.976C19.0046 18.4827 18.6779 17.1667 18.0246 16.028C17.3712 14.8893 16.4939 14.0027 15.3926 13.368C14.2912 12.7333 13.0686 12.416 11.7246 12.416C10.3806 12.416 9.1579 12.7333 8.05657 13.368C6.95524 14.0027 6.0779 14.8893 5.42457 16.028C4.77124 17.1667 4.44457 18.4827 4.44457 19.976C4.44457 21.4693 4.77124 22.7853 5.42457 23.924C6.0779 25.0627 6.95524 25.9493 8.05657 26.584C9.1579 27.2187 10.3806 27.536 11.7246 27.536ZM25.3007 30V15.72H37.8447V30H34.8207V18.352H28.3247V30H25.3007ZM41.9028 30.224C41.4735 30.224 41.0628 30.1773 40.6708 30.084V27.284C40.9322 27.4147 41.2215 27.48 41.5388 27.48C42.1735 27.48 42.6215 27.2373 42.8828 26.752C43.1442 26.248 43.3028 25.6133 43.3588 24.848C43.4148 24.0827 43.4428 23.2893 43.4428 22.468V15.72H54.3628V30H51.3668V18.352H46.2988V22.944C46.2988 23.9147 46.2335 24.8387 46.1028 25.716C45.9908 26.5747 45.7762 27.3493 45.4588 28.04C45.1415 28.712 44.6935 29.244 44.1148 29.636C43.5548 30.028 42.8175 30.224 41.9028 30.224ZM62.5643 30.448C61.5377 30.448 60.623 30.252 59.8203 29.86C59.0177 29.4493 58.3923 28.88 57.9443 28.152C57.4963 27.424 57.2723 26.5933 57.2723 25.66C57.2723 24.652 57.5337 23.7933 58.0563 23.084C58.5977 22.356 59.3163 21.8053 60.2123 21.432C61.1083 21.0587 62.0977 20.872 63.1803 20.872C64.0763 20.872 64.8603 20.956 65.5323 21.124C66.223 21.292 66.7457 21.4693 67.1003 21.656V20.9C67.1003 19.9667 66.7643 19.22 66.0923 18.66C65.4203 18.1 64.5523 17.82 63.4883 17.82C62.7603 17.82 62.0697 17.988 61.4163 18.324C60.763 18.6413 60.2403 19.08 59.8483 19.64L57.7763 18.044C58.3923 17.1853 59.2043 16.5133 60.2123 16.028C61.239 15.524 62.359 15.272 63.5723 15.272C65.6443 15.272 67.2403 15.7853 68.3603 16.812C69.4803 17.82 70.0403 19.2387 70.0403 21.068V30H67.1003V28.236H66.9323C66.559 28.8147 65.999 29.328 65.2523 29.776C64.5057 30.224 63.6097 30.448 62.5643 30.448ZM63.0963 27.984C63.8803 27.984 64.571 27.7973 65.1683 27.424C65.7657 27.0507 66.2323 26.5653 66.5683 25.968C66.923 25.352 67.1003 24.6893 67.1003 23.98C66.671 23.7373 66.167 23.5413 65.5883 23.392C65.0097 23.224 64.3937 23.14 63.7403 23.14C62.5083 23.14 61.631 23.392 61.1083 23.896C60.5857 24.3813 60.3243 24.9787 60.3243 25.688C60.3243 26.36 60.5763 26.9107 61.0803 27.34C61.5843 27.7693 62.2563 27.984 63.0963 27.984ZM76.8173 30V18.352H72.1133V15.72H84.5173V18.352H79.8133V30H76.8173ZM87.2859 30V15.72H90.3099V23.028L90.1419 25.716H90.3099L97.4499 15.72H100.446V30H97.4499V22.72L97.6179 20.032H97.4499L90.3099 30H87.2859ZM107.933 30V18.352H103.229V15.72H115.633V18.352H110.929V30H107.933ZM121.426 15.72V20.48H124.702C125.672 20.48 126.54 20.6853 127.306 21.096C128.09 21.5067 128.706 22.076 129.154 22.804C129.602 23.5133 129.826 24.3253 129.826 25.24C129.826 26.1547 129.602 26.9667 129.154 27.676C128.706 28.3853 128.09 28.9547 127.306 29.384C126.54 29.7947 125.672 30 124.702 30H118.402V15.72H121.426ZM121.426 27.48H124.45C125.122 27.48 125.682 27.2653 126.13 26.836C126.578 26.4067 126.802 25.8747 126.802 25.24C126.802 24.6053 126.578 24.0733 126.13 23.644C125.682 23.196 125.122 22.972 124.45 22.972H121.426V27.48ZM147.686 30V24.848C147.294 25.128 146.799 25.352 146.202 25.52C145.605 25.6693 144.951 25.744 144.242 25.744C142.599 25.744 141.283 25.268 140.294 24.316C139.323 23.364 138.838 22.076 138.838 20.452V15.72H141.862V20.144C141.862 21.04 142.114 21.7493 142.618 22.272C143.141 22.776 143.869 23.028 144.802 23.028C145.381 23.028 145.922 22.944 146.426 22.776C146.949 22.5893 147.369 22.3467 147.686 22.048V15.72H150.682V30H147.686ZM160.935 30.448C159.535 30.448 158.284 30.1213 157.183 29.468C156.082 28.8147 155.214 27.9187 154.579 26.78C153.963 25.6413 153.655 24.344 153.655 22.888C153.655 21.5253 153.954 20.2653 154.551 19.108C155.148 17.9507 155.979 17.0267 157.043 16.336C158.126 15.6267 159.367 15.272 160.767 15.272C162.242 15.272 163.492 15.5893 164.519 16.224C165.564 16.8587 166.358 17.7267 166.899 18.828C167.44 19.9293 167.711 21.1707 167.711 22.552C167.711 22.7573 167.702 22.944 167.683 23.112C167.683 23.28 167.674 23.4107 167.655 23.504H156.623C156.772 24.9227 157.267 25.9867 158.107 26.696C158.966 27.4053 159.936 27.76 161.019 27.76C161.99 27.76 162.792 27.5453 163.427 27.116C164.062 26.668 164.566 26.1173 164.939 25.464L167.431 26.668C166.815 27.788 165.975 28.7027 164.911 29.412C163.847 30.1027 162.522 30.448 160.935 30.448ZM160.795 17.848C159.787 17.848 158.928 18.156 158.219 18.772C157.51 19.388 157.034 20.2093 156.791 21.236H164.715C164.678 20.7507 164.519 20.2467 164.239 19.724C163.959 19.2013 163.53 18.7627 162.951 18.408C162.391 18.0347 161.672 17.848 160.795 17.848ZM170.788 36.048V15.72H173.616V17.652H173.784C174.158 17.036 174.736 16.4853 175.52 16C176.323 15.5147 177.275 15.272 178.376 15.272C179.683 15.272 180.85 15.5987 181.876 16.252C182.903 16.9053 183.715 17.8013 184.312 18.94C184.928 20.0787 185.236 21.3853 185.236 22.86C185.236 24.3347 184.928 25.6507 184.312 26.808C183.715 27.9467 182.903 28.8427 181.876 29.496C180.85 30.1307 179.683 30.448 178.376 30.448C177.275 30.448 176.323 30.2147 175.52 29.748C174.736 29.2627 174.158 28.712 173.784 28.096H173.616L173.784 30.084V36.048H170.788ZM177.928 27.676C178.675 27.676 179.375 27.48 180.028 27.088C180.682 26.696 181.214 26.1453 181.624 25.436C182.035 24.708 182.24 23.8493 182.24 22.86C182.24 21.8707 182.035 21.0213 181.624 20.312C181.214 19.584 180.682 19.024 180.028 18.632C179.375 18.24 178.675 18.044 177.928 18.044C177.182 18.044 176.482 18.24 175.828 18.632C175.175 19.024 174.643 19.584 174.232 20.312C173.822 21.0213 173.616 21.8707 173.616 22.86C173.616 23.8493 173.822 24.708 174.232 25.436C174.643 26.1453 175.175 26.696 175.828 27.088C176.482 27.48 177.182 27.676 177.928 27.676ZM194.785 30.448C193.385 30.448 192.134 30.1213 191.033 29.468C189.932 28.8147 189.064 27.9187 188.429 26.78C187.813 25.6413 187.505 24.344 187.505 22.888C187.505 21.5253 187.804 20.2653 188.401 19.108C188.998 17.9507 189.829 17.0267 190.893 16.336C191.976 15.6267 193.217 15.272 194.617 15.272C196.092 15.272 197.342 15.5893 198.369 16.224C199.414 16.8587 200.208 17.7267 200.749 18.828C201.29 19.9293 201.561 21.1707 201.561 22.552C201.561 22.7573 201.552 22.944 201.533 23.112C201.533 23.28 201.524 23.4107 201.505 23.504H190.473C190.622 24.9227 191.117 25.9867 191.957 26.696C192.816 27.4053 193.786 27.76 194.869 27.76C195.84 27.76 196.642 27.5453 197.277 27.116C197.912 26.668 198.416 26.1173 198.789 25.464L201.281 26.668C200.665 27.788 199.825 28.7027 198.761 29.412C197.697 30.1027 196.372 30.448 194.785 30.448ZM194.645 17.848C193.637 17.848 192.778 18.156 192.069 18.772C191.36 19.388 190.884 20.2093 190.641 21.236H198.565C198.528 20.7507 198.369 20.2467 198.089 19.724C197.809 19.2013 197.38 18.7627 196.801 18.408C196.241 18.0347 195.522 17.848 194.645 17.848ZM209.215 30.448C208.431 30.448 207.647 30.3547 206.863 30.168C206.079 29.9813 205.342 29.664 204.651 29.216C203.979 28.7493 203.419 28.1053 202.971 27.284L205.379 25.884C205.902 26.612 206.499 27.116 207.171 27.396C207.862 27.6573 208.543 27.788 209.215 27.788C210.186 27.788 210.923 27.6013 211.427 27.228C211.931 26.8547 212.183 26.3693 212.183 25.772C212.183 25.2493 211.95 24.8293 211.483 24.512C211.035 24.176 210.401 24.008 209.579 24.008H207.255V21.628H209.579C210.289 21.628 210.83 21.46 211.203 21.124C211.595 20.788 211.791 20.3587 211.791 19.836C211.791 19.22 211.53 18.7347 211.007 18.38C210.485 18.0067 209.822 17.82 209.019 17.82C208.31 17.82 207.629 17.9693 206.975 18.268C206.322 18.548 205.827 18.9307 205.491 19.416L203.251 17.932C203.905 17.1107 204.726 16.4667 205.715 16C206.723 15.5147 207.834 15.272 209.047 15.272C210.093 15.272 211.035 15.4493 211.875 15.804C212.734 16.1587 213.406 16.6533 213.891 17.288C214.395 17.904 214.647 18.6227 214.647 19.444C214.647 20.1533 214.47 20.788 214.115 21.348C213.761 21.8893 213.294 22.3 212.715 22.58V22.748C213.443 23.0467 214.031 23.4947 214.479 24.092C214.927 24.6893 215.151 25.3707 215.151 26.136C215.151 26.976 214.909 27.7227 214.423 28.376C213.938 29.0107 213.247 29.5147 212.351 29.888C211.455 30.2613 210.41 30.448 209.215 30.448Z" fill="white"/>
<g id="GPay Logo (Dark)">
<g id="GPay">
<g id="Pay">
<path id="Fill 1" fill-rule="evenodd" clip-rule="evenodd" d="M266.529 9.34665V17.5128H271.565C272.765 17.5128 273.757 17.1096 274.541 16.3032C275.347 15.4988 275.75 14.5394 275.75 13.4288C275.75 12.3406 275.347 11.3924 274.541 10.586C273.757 9.75916 272.765 9.34479 271.565 9.34479H266.529V9.34665ZM266.529 20.3872V29.8599H263.521V6.47218H271.499C273.527 6.47218 275.248 7.14787 276.666 8.49738C278.105 9.84688 278.824 11.4913 278.824 13.4288C278.824 15.411 278.105 17.0667 276.666 18.3938C275.27 19.7227 273.547 20.3854 271.499 20.3854H266.529V20.3872Z" fill="white"/>
<path id="Fill 3" fill-rule="evenodd" clip-rule="evenodd" d="M281.864 24.9602C281.864 25.7442 282.197 26.3975 282.862 26.9201C283.527 27.4427 284.306 27.704 285.2 27.704C286.465 27.704 287.591 27.2354 288.584 26.3004C289.576 25.3634 290.071 24.264 290.071 23.0022C289.133 22.2612 287.825 21.8916 286.147 21.8916C284.925 21.8916 283.907 22.1866 283.09 22.7745C282.273 23.3623 281.864 24.0886 281.864 24.9602ZM285.756 13.3317C287.98 13.3317 289.735 13.9253 291.022 15.1124C292.308 16.2995 292.95 17.9271 292.95 19.9952V29.8599H290.073V27.6387H289.942C288.699 29.4677 287.042 30.3825 284.972 30.3825C283.206 30.3825 281.728 29.8599 280.541 28.8146C279.353 27.7694 278.759 26.4628 278.759 24.8949C278.759 23.2393 279.385 21.9232 280.638 20.9434C281.892 19.9635 283.565 19.4726 285.658 19.4726C287.444 19.4726 288.916 19.7993 290.071 20.4525V19.7657C290.071 18.7204 289.656 17.8338 288.829 17.104C287.999 16.3742 287.031 16.0102 285.919 16.0102C284.239 16.0102 282.911 16.7176 281.93 18.1343L279.28 16.4675C280.741 14.377 282.899 13.3317 285.756 13.3317Z" fill="white"/>
<path id="Fill 5" fill-rule="evenodd" clip-rule="evenodd" d="M309.463 13.8543L299.424 36.9154H296.318L300.046 28.8464L293.44 13.8543H296.71L301.484 25.3522H301.55L306.193 13.8543H309.463Z" fill="white"/>
</g>
<g id="G">
<path id="Fill 8" fill-rule="evenodd" clip-rule="evenodd" d="M254.373 18.3452C254.373 17.3989 254.293 16.4861 254.141 15.6126H241.454V20.7885H248.72C248.408 22.4757 247.465 23.9112 246.033 24.8725V28.2341H250.37C252.91 25.8935 254.373 22.4348 254.373 18.3452Z" fill="#4285F4"/>
<path id="Fill 10" fill-rule="evenodd" clip-rule="evenodd" d="M241.454 31.4782C245.084 31.4782 248.141 30.2873 250.37 28.2341L246.033 24.8725C244.826 25.6844 243.272 26.1585 241.454 26.1585C237.944 26.1585 234.966 23.7955 233.901 20.6112H229.433V24.0736C231.647 28.4637 236.197 31.4782 241.454 31.4782Z" fill="#34A853"/>
<path id="Fill 12" fill-rule="evenodd" clip-rule="evenodd" d="M233.901 20.6111C233.628 19.7992 233.479 18.9331 233.479 18.0391C233.479 17.145 233.628 16.2789 233.901 15.467V12.0045H229.433C228.518 13.8188 228 15.8683 228 18.0391C228 20.2098 228.518 22.2595 229.433 24.0736L233.901 20.6111Z" fill="#FABB05"/>
<path id="Fill 14" fill-rule="evenodd" clip-rule="evenodd" d="M241.454 9.91964C243.436 9.91964 245.213 10.6009 246.615 11.9355V11.9374L250.455 8.10163C248.123 5.93272 245.082 4.60001 241.454 4.60001C236.197 4.60001 231.647 7.61447 229.433 12.0046L233.901 15.467C234.966 12.2827 237.944 9.91964 241.454 9.91964Z" fill="#E94235"/>
</g>
</g>
</g>
</g>
</svg>
