<svg width="215" height="21" viewBox="0 0 215 21" fill="none" xmlns="http://www.w3.org/2000/svg">
<g id="ru_donate_with_Pay_NBG">
<path id="Left Text" d="M1.69912 15.0006V3.54461H10.3391V15.0006H8.57912V5.20861H3.45912V15.0006H1.69912ZM16.6355 15.2566C15.7928 15.2566 15.0515 15.0646 14.4115 14.6806C13.7715 14.2966 13.2702 13.7793 12.9075 13.1286C12.5448 12.4673 12.3635 11.7313 12.3635 10.9206C12.3635 10.1099 12.5448 9.37928 12.9075 8.72861C13.2702 8.06728 13.7715 7.54461 14.4115 7.16061C15.0515 6.77661 15.7928 6.58461 16.6355 6.58461C17.4675 6.58461 18.2035 6.78194 18.8435 7.17661C19.4835 7.56061 19.9848 8.07794 20.3475 8.72861C20.7102 9.37928 20.8915 10.1099 20.8915 10.9206C20.8915 11.7313 20.7102 12.4673 20.3475 13.1286C19.9848 13.7793 19.4835 14.2966 18.8435 14.6806C18.2035 15.0646 17.4675 15.2566 16.6355 15.2566ZM16.6355 13.6726C17.0835 13.6726 17.4995 13.5659 17.8835 13.3526C18.2675 13.1286 18.5768 12.8139 18.8115 12.4086C19.0568 11.9926 19.1795 11.4966 19.1795 10.9206C19.1795 10.3446 19.0568 9.85394 18.8115 9.44861C18.5768 9.03261 18.2675 8.71794 17.8835 8.50461C17.4995 8.28061 17.0835 8.16861 16.6355 8.16861C16.1875 8.16861 15.7662 8.28061 15.3715 8.50461C14.9875 8.71794 14.6728 9.03261 14.4275 9.44861C14.1928 9.85394 14.0755 10.3446 14.0755 10.9206C14.0755 11.4966 14.1928 11.9926 14.4275 12.4086C14.6728 12.8139 14.9928 13.1286 15.3875 13.3526C15.7822 13.5659 16.1982 13.6726 16.6355 13.6726ZM21.4546 15.0006V14.9046L24.7826 10.6806L21.6306 6.93661V6.84061H23.6466L26.4786 10.4566H26.5746V6.84061H28.3026V10.4566H28.3986L31.2466 6.84061H33.2786V6.93661L30.1106 10.6806L33.4386 14.9046V15.0006H31.4066L28.3986 10.9846H28.3026V15.0006H26.5746V10.9846H26.4786L23.4866 15.0006H21.4546ZM38.2297 15.2566C37.4297 15.2566 36.7151 15.0699 36.0857 14.6966C35.4564 14.3233 34.9604 13.8113 34.5977 13.1606C34.2457 12.5099 34.0697 11.7686 34.0697 10.9366C34.0697 10.1579 34.2404 9.43794 34.5817 8.77661C34.9231 8.11528 35.3977 7.58728 36.0057 7.19261C36.6244 6.78728 37.3337 6.58461 38.1337 6.58461C38.9764 6.58461 39.6911 6.76594 40.2777 7.12861C40.8751 7.49128 41.3284 7.98728 41.6377 8.61661C41.9471 9.24594 42.1017 9.95528 42.1017 10.7446C42.1017 10.8619 42.0964 10.9686 42.0857 11.0646C42.0857 11.1606 42.0804 11.2353 42.0697 11.2886H35.7657C35.8084 11.7366 35.9204 12.1259 36.1017 12.4566C36.3364 12.8726 36.6457 13.1873 37.0297 13.4006C37.4137 13.6139 37.8297 13.7206 38.2777 13.7206C38.8217 13.7206 39.2751 13.5979 39.6377 13.3526C40.0111 13.0966 40.3044 12.7819 40.5177 12.4086L41.9417 13.0966C41.5897 13.7366 41.1097 14.2593 40.5017 14.6646C39.8937 15.0593 39.1364 15.2566 38.2297 15.2566ZM35.8617 9.99261H40.3897C40.3791 9.78994 40.3257 9.57661 40.2297 9.35261C40.1337 9.11794 39.9951 8.90461 39.8137 8.71261C39.6324 8.52061 39.4031 8.36594 39.1257 8.24861C38.8484 8.12061 38.5231 8.05661 38.1497 8.05661C37.6804 8.05661 37.2644 8.17928 36.9017 8.42461C36.5391 8.65928 36.2564 8.98994 36.0537 9.41661C35.9684 9.59794 35.9044 9.78994 35.8617 9.99261ZM43.8389 18.4566V6.84061H45.4549V7.94461H45.5509C45.7002 7.70994 45.8975 7.49128 46.1429 7.28861C46.3989 7.07528 46.6975 6.90461 47.0389 6.77661C47.3802 6.64861 47.7589 6.58461 48.1749 6.58461C48.9215 6.58461 49.5882 6.77128 50.1749 7.14461C50.7615 7.51794 51.2255 8.02994 51.5669 8.68061C51.9189 9.33128 52.0949 10.0779 52.0949 10.9206C52.0949 11.7633 51.9189 12.5099 51.5669 13.1606C51.2255 13.8113 50.7615 14.3233 50.1749 14.6966C49.5882 15.0699 48.9215 15.2566 48.1749 15.2566C47.5562 15.2566 47.0175 15.1179 46.5589 14.8406C46.1002 14.5633 45.7642 14.2539 45.5509 13.9126H45.4549L45.5509 15.0486V18.4566H43.8389ZM47.9189 13.6726C48.3455 13.6726 48.7455 13.5606 49.1189 13.3366C49.5029 13.1126 49.8069 12.7926 50.0309 12.3766C50.2655 11.9606 50.3829 11.4753 50.3829 10.9206C50.3829 10.3553 50.2655 9.86994 50.0309 9.46461C49.8069 9.04861 49.5029 8.72861 49.1189 8.50461C48.7455 8.28061 48.3455 8.16861 47.9189 8.16861C47.4922 8.16861 47.0922 8.28061 46.7189 8.50461C46.3455 8.72861 46.0415 9.04861 45.8069 9.46461C45.5722 9.86994 45.4549 10.3553 45.4549 10.9206C45.4549 11.4859 45.5722 11.9766 45.8069 12.3926C46.0415 12.7979 46.3455 13.1126 46.7189 13.3366C47.0922 13.5606 47.4922 13.6726 47.9189 13.6726ZM55.8036 15.0006V8.34461H53.1156V6.84061H60.2036V8.34461H57.5156V15.0006H55.8036ZM61.7642 15.0006V6.84061H65.8122C66.2922 6.84061 66.7189 6.93661 67.0922 7.12861C67.4762 7.30994 67.7749 7.56061 67.9882 7.88061C68.2122 8.20061 68.3242 8.55794 68.3242 8.95261C68.3242 9.37928 68.2282 9.74728 68.0362 10.0566C67.8549 10.3659 67.6149 10.5953 67.3162 10.7446V10.8406C67.7216 11.0006 68.0416 11.2406 68.2762 11.5606C68.5216 11.8806 68.6442 12.2486 68.6442 12.6646C68.6442 13.1446 68.5162 13.5606 68.2602 13.9126C68.0149 14.2646 67.6949 14.5366 67.3002 14.7286C66.9056 14.9099 66.4842 15.0006 66.0362 15.0006H61.7642ZM63.4922 11.4486V13.5606H65.8602C66.1696 13.5606 66.4256 13.4646 66.6282 13.2726C66.8416 13.0699 66.9482 12.8139 66.9482 12.5046C66.9482 12.2059 66.8416 11.9553 66.6282 11.7526C66.4256 11.5499 66.1696 11.4486 65.8602 11.4486H63.4922ZM63.4922 8.24861V10.1686H65.6042C65.8922 10.1686 66.1322 10.0779 66.3242 9.89661C66.5162 9.71528 66.6122 9.48594 66.6122 9.20861C66.6122 8.92061 66.5162 8.69128 66.3242 8.52061C66.1322 8.33928 65.8922 8.24861 65.6042 8.24861H63.4922ZM74.2386 15.2566C73.396 15.2566 72.6546 15.0646 72.0146 14.6806C71.3746 14.2966 70.8733 13.7793 70.5106 13.1286C70.148 12.4673 69.9666 11.7313 69.9666 10.9206C69.9666 10.1099 70.148 9.37928 70.5106 8.72861C70.8733 8.06728 71.3746 7.54461 72.0146 7.16061C72.6546 6.77661 73.396 6.58461 74.2386 6.58461C75.0706 6.58461 75.8066 6.78194 76.4466 7.17661C77.0866 7.56061 77.588 8.07794 77.9506 8.72861C78.3133 9.37928 78.4946 10.1099 78.4946 10.9206C78.4946 11.7313 78.3133 12.4673 77.9506 13.1286C77.588 13.7793 77.0866 14.2966 76.4466 14.6806C75.8066 15.0646 75.0706 15.2566 74.2386 15.2566ZM74.2386 13.6726C74.6866 13.6726 75.1026 13.5659 75.4866 13.3526C75.8706 13.1286 76.18 12.8139 76.4146 12.4086C76.66 11.9926 76.7826 11.4966 76.7826 10.9206C76.7826 10.3446 76.66 9.85394 76.4146 9.44861C76.18 9.03261 75.8706 8.71794 75.4866 8.50461C75.1026 8.28061 74.6866 8.16861 74.2386 8.16861C73.7906 8.16861 73.3693 8.28061 72.9746 8.50461C72.5906 8.71794 72.276 9.03261 72.0306 9.44861C71.796 9.85394 71.6786 10.3446 71.6786 10.9206C71.6786 11.4966 71.796 11.9926 72.0306 12.4086C72.276 12.8139 72.596 13.1286 72.9906 13.3526C73.3853 13.5659 73.8013 13.6726 74.2386 13.6726ZM80.0799 15.0006V6.84061H84.1279C84.6079 6.84061 85.0345 6.93661 85.4079 7.12861C85.7919 7.30994 86.0905 7.56061 86.3039 7.88061C86.5279 8.20061 86.6399 8.55794 86.6399 8.95261C86.6399 9.37928 86.5439 9.74728 86.3519 10.0566C86.1705 10.3659 85.9305 10.5953 85.6319 10.7446V10.8406C86.0372 11.0006 86.3572 11.2406 86.5919 11.5606C86.8372 11.8806 86.9599 12.2486 86.9599 12.6646C86.9599 13.1446 86.8319 13.5606 86.5759 13.9126C86.3305 14.2646 86.0105 14.5366 85.6159 14.7286C85.2212 14.9099 84.7999 15.0006 84.3519 15.0006H80.0799ZM81.8079 11.4486V13.5606H84.1759C84.4852 13.5606 84.7412 13.4646 84.9439 13.2726C85.1572 13.0699 85.2639 12.8139 85.2639 12.5046C85.2639 12.2059 85.1572 11.9553 84.9439 11.7526C84.7412 11.5499 84.4852 11.4486 84.1759 11.4486H81.8079ZM81.8079 8.24861V10.1686H83.9199C84.2079 10.1686 84.4479 10.0779 84.6399 9.89661C84.8319 9.71528 84.9279 9.48594 84.9279 9.20861C84.9279 8.92061 84.8319 8.69128 84.6399 8.52061C84.4479 8.33928 84.2079 8.24861 83.9199 8.24861H81.8079ZM91.2742 15.2566C90.6876 15.2566 90.1649 15.1393 89.7062 14.9046C89.2582 14.6699 88.9009 14.3499 88.6342 13.9446C88.3782 13.5286 88.2502 13.0539 88.2502 12.5206C88.2502 11.9339 88.3996 11.4379 88.6982 11.0326C89.0076 10.6273 89.4182 10.3179 89.9302 10.1046C90.4422 9.89128 91.0076 9.78461 91.6262 9.78461C91.9676 9.78461 92.2822 9.81128 92.5702 9.86461C92.8689 9.90728 93.1249 9.96061 93.3382 10.0246C93.5622 10.0886 93.7382 10.1579 93.8662 10.2326V9.80061C93.8662 9.26728 93.6742 8.84061 93.2902 8.52061C92.9062 8.20061 92.4102 8.04061 91.8022 8.04061C91.3862 8.04061 90.9916 8.13661 90.6182 8.32861C90.2449 8.50994 89.9462 8.76061 89.7222 9.08061L88.5382 8.16861C88.7729 7.83794 89.0556 7.55528 89.3862 7.32061C89.7276 7.08594 90.1062 6.90461 90.5222 6.77661C90.9489 6.64861 91.3916 6.58461 91.8502 6.58461C93.0342 6.58461 93.9462 6.87794 94.5862 7.46461C95.2262 8.04061 95.5462 8.85128 95.5462 9.89661V15.0006H93.8662V13.9926H93.7702C93.6316 14.2059 93.4396 14.4086 93.1942 14.6006C92.9596 14.7926 92.6769 14.9473 92.3462 15.0646C92.0262 15.1926 91.6689 15.2566 91.2742 15.2566ZM91.5782 13.8486C92.0262 13.8486 92.4209 13.7419 92.7622 13.5286C93.1142 13.3153 93.3862 13.0379 93.5782 12.6966C93.7702 12.3446 93.8662 11.9659 93.8662 11.5606C93.6316 11.4219 93.3436 11.3099 93.0022 11.2246C92.6716 11.1286 92.3196 11.0806 91.9462 11.0806C91.2422 11.0806 90.7409 11.2193 90.4422 11.4966C90.1436 11.7739 89.9942 12.1206 89.9942 12.5366C89.9942 12.9206 90.1382 13.2353 90.4262 13.4806C90.7142 13.7259 91.0982 13.8486 91.5782 13.8486ZM99.3974 15.0006V8.34461H96.7094V6.84061H103.797V8.34461H101.109V15.0006H99.3974ZM107.086 6.84061V9.56061H108.958C109.523 9.56061 110.025 9.67794 110.462 9.91261C110.899 10.1473 111.246 10.4726 111.502 10.8886C111.758 11.2939 111.886 11.7579 111.886 12.2806C111.886 12.7926 111.758 13.2566 111.502 13.6726C111.246 14.0886 110.899 14.4139 110.462 14.6486C110.025 14.8833 109.523 15.0006 108.958 15.0006H105.358V6.84061H107.086ZM107.086 10.9846V13.5606H108.814C109.198 13.5606 109.518 13.4379 109.774 13.1926C110.03 12.9473 110.158 12.6433 110.158 12.2806C110.158 11.9179 110.03 11.6139 109.774 11.3686C109.518 11.1126 109.198 10.9846 108.814 10.9846H107.086ZM122.049 15.0006V12.0566C121.825 12.2166 121.542 12.3446 121.201 12.4406C120.86 12.5259 120.486 12.5686 120.081 12.5686C119.142 12.5686 118.39 12.2966 117.825 11.7526C117.27 11.2086 116.993 10.4726 116.993 9.54461V6.84061H118.721V9.36861C118.721 9.88061 118.865 10.2859 119.153 10.5846C119.452 10.8726 119.868 11.0166 120.401 11.0166C120.721 11.0166 121.03 10.9686 121.329 10.8726C121.638 10.7659 121.878 10.6273 122.049 10.4566V6.84061H123.761V15.0006H122.049ZM129.598 15.2566C128.798 15.2566 128.084 15.0699 127.454 14.6966C126.825 14.3233 126.329 13.8113 125.966 13.1606C125.614 12.5099 125.438 11.7686 125.438 10.9366C125.438 10.1579 125.609 9.43794 125.95 8.77661C126.292 8.11528 126.766 7.58728 127.374 7.19261C127.993 6.78728 128.702 6.58461 129.502 6.58461C130.345 6.58461 131.06 6.76594 131.646 7.12861C132.244 7.49128 132.697 7.98728 133.006 8.61661C133.316 9.24594 133.47 9.95528 133.47 10.7446C133.47 10.8619 133.465 10.9686 133.454 11.0646C133.454 11.1606 133.449 11.2353 133.438 11.2886H127.134C127.177 11.7366 127.289 12.1259 127.47 12.4566C127.705 12.8726 128.014 13.1873 128.398 13.4006C128.782 13.6139 129.198 13.7206 129.646 13.7206C130.19 13.7206 130.644 13.5979 131.006 13.3526C131.38 13.0966 131.673 12.7819 131.886 12.4086L133.31 13.0966C132.958 13.7366 132.478 14.2593 131.87 14.6646C131.262 15.0593 130.505 15.2566 129.598 15.2566ZM127.23 9.99261H131.758C131.748 9.78994 131.694 9.57661 131.598 9.35261C131.502 9.11794 131.364 8.90461 131.182 8.71261C131.001 8.52061 130.772 8.36594 130.494 8.24861C130.217 8.12061 129.892 8.05661 129.518 8.05661C129.049 8.05661 128.633 8.17928 128.27 8.42461C127.908 8.65928 127.625 8.98994 127.422 9.41661C127.337 9.59794 127.273 9.78994 127.23 9.99261ZM135.208 18.4566V6.84061H136.824V7.94461H136.92C137.069 7.70994 137.266 7.49128 137.512 7.28861C137.768 7.07528 138.066 6.90461 138.408 6.77661C138.749 6.64861 139.128 6.58461 139.544 6.58461C140.29 6.58461 140.957 6.77128 141.544 7.14461C142.13 7.51794 142.594 8.02994 142.936 8.68061C143.288 9.33128 143.464 10.0779 143.464 10.9206C143.464 11.7633 143.288 12.5099 142.936 13.1606C142.594 13.8113 142.13 14.3233 141.544 14.6966C140.957 15.0699 140.29 15.2566 139.544 15.2566C138.925 15.2566 138.386 15.1179 137.928 14.8406C137.469 14.5633 137.133 14.2539 136.92 13.9126H136.824L136.92 15.0486V18.4566H135.208ZM139.288 13.6726C139.714 13.6726 140.114 13.5606 140.488 13.3366C140.872 13.1126 141.176 12.7926 141.4 12.3766C141.634 11.9606 141.752 11.4753 141.752 10.9206C141.752 10.3553 141.634 9.86994 141.4 9.46461C141.176 9.04861 140.872 8.72861 140.488 8.50461C140.114 8.28061 139.714 8.16861 139.288 8.16861C138.861 8.16861 138.461 8.28061 138.088 8.50461C137.714 8.72861 137.41 9.04861 137.176 9.46461C136.941 9.86994 136.824 10.3553 136.824 10.9206C136.824 11.4859 136.941 11.9766 137.176 12.3926C137.41 12.7979 137.714 13.1126 138.088 13.3366C138.461 13.5606 138.861 13.6726 139.288 13.6726ZM148.898 15.2566C148.098 15.2566 147.384 15.0699 146.754 14.6966C146.125 14.3233 145.629 13.8113 145.266 13.1606C144.914 12.5099 144.738 11.7686 144.738 10.9366C144.738 10.1579 144.909 9.43794 145.25 8.77661C145.592 8.11528 146.066 7.58728 146.674 7.19261C147.293 6.78728 148.002 6.58461 148.802 6.58461C149.645 6.58461 150.36 6.76594 150.946 7.12861C151.544 7.49128 151.997 7.98728 152.306 8.61661C152.616 9.24594 152.77 9.95528 152.77 10.7446C152.77 10.8619 152.765 10.9686 152.754 11.0646C152.754 11.1606 152.749 11.2353 152.738 11.2886H146.434C146.477 11.7366 146.589 12.1259 146.77 12.4566C147.005 12.8726 147.314 13.1873 147.698 13.4006C148.082 13.6139 148.498 13.7206 148.946 13.7206C149.49 13.7206 149.944 13.5979 150.306 13.3526C150.68 13.0966 150.973 12.7819 151.186 12.4086L152.61 13.0966C152.258 13.7366 151.778 14.2593 151.17 14.6646C150.562 15.0593 149.805 15.2566 148.898 15.2566ZM146.53 9.99261H151.058C151.048 9.78994 150.994 9.57661 150.898 9.35261C150.802 9.11794 150.664 8.90461 150.482 8.71261C150.301 8.52061 150.072 8.36594 149.794 8.24861C149.517 8.12061 149.192 8.05661 148.818 8.05661C148.349 8.05661 147.933 8.17928 147.57 8.42461C147.208 8.65928 146.925 8.98994 146.722 9.41661C146.637 9.59794 146.573 9.78994 146.53 9.99261ZM157.123 15.2566C156.686 15.2566 156.238 15.2033 155.779 15.0966C155.331 14.9899 154.915 14.8086 154.531 14.5526C154.147 14.2859 153.822 13.9179 153.555 13.4486L154.931 12.6486C155.23 13.0646 155.571 13.3526 155.955 13.5126C156.35 13.6619 156.739 13.7366 157.123 13.7366C157.678 13.7366 158.099 13.6299 158.387 13.4166C158.675 13.2033 158.819 12.9259 158.819 12.5846C158.819 12.2859 158.686 12.0459 158.419 11.8646C158.163 11.6726 157.8 11.5766 157.331 11.5766H156.003V10.2166H157.331C157.736 10.2166 158.046 10.1206 158.259 9.92861C158.483 9.73661 158.595 9.49128 158.595 9.19261C158.595 8.84061 158.446 8.56328 158.147 8.36061C157.848 8.14728 157.47 8.04061 157.011 8.04061C156.606 8.04061 156.216 8.12594 155.843 8.29661C155.47 8.45661 155.187 8.67528 154.995 8.95261L153.715 8.10461C153.96 7.78461 154.254 7.51261 154.595 7.28861C154.936 7.06461 155.31 6.89394 155.715 6.77661C156.131 6.64861 156.568 6.58461 157.027 6.58461C157.635 6.58461 158.179 6.68594 158.659 6.88861C159.139 7.09128 159.518 7.37394 159.795 7.73661C160.083 8.08861 160.227 8.49928 160.227 8.96861C160.227 9.37394 160.126 9.73661 159.923 10.0566C159.72 10.3766 159.454 10.6113 159.123 10.7606V10.8566C159.539 11.0273 159.875 11.2833 160.131 11.6246C160.387 11.9659 160.515 12.3553 160.515 12.7926C160.515 13.2726 160.371 13.6993 160.083 14.0726C159.806 14.4459 159.411 14.7393 158.899 14.9526C158.398 15.1553 157.806 15.2566 157.123 15.2566Z" fill="white"/>
<g id="GPay (Dark)">
<g id="GPay">
<g id="Pay">
<path id="Fill 1" fill-rule="evenodd" clip-rule="evenodd" d="M189.356 3.42339V8.16175H192.278C192.974 8.16175 193.55 7.92781 194.005 7.45993C194.473 6.99313 194.707 6.43644 194.707 5.79203C194.707 5.16061 194.473 4.61041 194.005 4.14254C193.55 3.66274 192.974 3.4223 192.278 3.4223H189.356V3.42339ZM189.356 9.82966V15.3262H187.611V1.75549H192.24C193.417 1.75549 194.415 2.14756 195.238 2.93061C196.073 3.71365 196.491 4.66782 196.491 5.79203C196.491 6.94224 196.073 7.90291 195.238 8.67296C194.428 9.44409 193.429 9.82858 192.24 9.82858H189.356V9.82966Z" fill="white"/>
<path id="Fill 3" fill-rule="evenodd" clip-rule="evenodd" d="M198.255 12.4831C198.255 12.9379 198.448 13.317 198.834 13.6203C199.22 13.9235 199.672 14.0752 200.19 14.0752C200.924 14.0752 201.578 13.8032 202.153 13.2607C202.729 12.717 203.017 12.0791 203.017 11.3469C202.472 10.917 201.713 10.7025 200.74 10.7025C200.031 10.7025 199.44 10.8736 198.966 11.2148C198.492 11.5559 198.255 11.9773 198.255 12.4831M200.513 5.73566C201.803 5.73566 202.821 6.08007 203.569 6.76889C204.314 7.45771 204.687 8.40213 204.687 9.60216V15.3261H203.018V14.0373H202.942C202.221 15.0985 201.259 15.6294 200.058 15.6294C199.033 15.6294 198.176 15.3261 197.487 14.7196C196.797 14.1131 196.453 13.3549 196.453 12.4452C196.453 11.4845 196.816 10.7208 197.543 10.1523C198.271 9.58375 199.241 9.2989 200.456 9.2989C201.492 9.2989 202.346 9.48844 203.017 9.86751V9.46894C203.017 8.86243 202.776 8.34798 202.296 7.92451C201.814 7.50103 201.252 7.28984 200.607 7.28984C199.633 7.28984 198.862 7.70032 198.293 8.52235L196.755 7.55519C197.603 6.34217 198.855 5.73566 200.513 5.73566" fill="white"/>
<path id="Fill 5" fill-rule="evenodd" clip-rule="evenodd" d="M214.269 6.03894L208.443 19.4201H206.641L208.804 14.738L204.971 6.03894H206.869L209.639 12.7106H209.677L212.371 6.03894H214.269Z" fill="white"/>
</g>
<g id="G">
<path id="Fill 8" fill-rule="evenodd" clip-rule="evenodd" d="M182.303 8.64473C182.303 8.09563 182.256 7.56601 182.168 7.05914H174.806V10.0625H179.023C178.842 11.0414 178.294 11.8744 177.464 12.4322V14.3828H179.98C181.454 13.0246 182.303 11.0177 182.303 8.64473" fill="#4285F4"/>
<path id="Fill 10" fill-rule="evenodd" clip-rule="evenodd" d="M174.806 16.2651C176.913 16.2651 178.687 15.5741 179.98 14.3828L177.464 12.4322C176.764 12.9033 175.861 13.1784 174.806 13.1784C172.77 13.1784 171.042 11.8073 170.424 9.95959H167.832V11.9687C169.116 14.516 171.757 16.2651 174.806 16.2651" fill="#34A853"/>
<path id="Fill 12" fill-rule="evenodd" clip-rule="evenodd" d="M170.424 9.9596C170.266 9.48847 170.179 8.98593 170.179 8.46715C170.179 7.94837 170.266 7.44583 170.424 6.9747V4.96564H167.832C167.3 6.01837 167 7.20756 167 8.46715C167 9.72674 167.3 10.916 167.832 11.9687L170.424 9.9596Z" fill="#FABB05"/>
<path id="Fill 14" fill-rule="evenodd" clip-rule="evenodd" d="M174.806 3.75583C175.957 3.75583 176.988 4.15115 177.801 4.92553V4.92661L180.029 2.70094C178.676 1.44243 176.912 0.669128 174.806 0.669128C171.757 0.669128 169.116 2.41826 167.832 4.9656L170.424 6.97467C171.042 5.12698 172.77 3.75583 174.806 3.75583" fill="#E94235"/>
</g>
</g>
</g>
</g>
</svg>
