<svg width="516" height="38" viewBox="0 0 516 38" fill="none" xmlns="http://www.w3.org/2000/svg">
<g id="ru_donate_with_Dark">
<path id="Text" d="M12.8493 30.448C11.3747 30.448 10.0027 30.1867 8.73333 29.664C7.46399 29.1227 6.35332 28.376 5.40132 27.424C4.46799 26.472 3.73066 25.3613 3.18932 24.092C2.66666 22.8227 2.40532 21.4507 2.40532 19.976C2.40532 18.5013 2.66666 17.1293 3.18932 15.86C3.73066 14.5907 4.46799 13.48 5.40132 12.528C6.35332 11.576 7.46399 10.8387 8.73333 10.316C10.0027 9.77467 11.3747 9.504 12.8493 9.504C14.4173 9.504 15.8173 9.79333 17.0493 10.372C18.2813 10.932 19.3547 11.7347 20.2693 12.78L18.1133 14.88C17.4413 14.0773 16.676 13.4707 15.8173 13.06C14.9773 12.6307 13.9973 12.416 12.8773 12.416C11.5333 12.416 10.3013 12.7333 9.18132 13.368C8.06132 13.984 7.16533 14.8613 6.49333 16C5.83999 17.12 5.51332 18.4453 5.51332 19.976C5.51332 21.5067 5.83999 22.8413 6.49333 23.98C7.16533 25.1 8.06132 25.9773 9.18132 26.612C10.3013 27.228 11.5333 27.536 12.8773 27.536C14.0907 27.536 15.164 27.284 16.0973 26.78C17.0493 26.276 17.8893 25.5853 18.6173 24.708L20.8293 26.836C19.896 27.9373 18.748 28.8147 17.3853 29.468C16.0413 30.1213 14.5293 30.448 12.8493 30.448ZM22.4337 34.256V27.368H24.0017C24.3004 27.0133 24.5617 26.5093 24.7857 25.856C25.0284 25.184 25.2151 24.428 25.3457 23.588C25.4951 22.748 25.5697 21.8987 25.5697 21.04V15.72H36.2657V27.368H38.3377V34.256H35.5657V30H25.2337V34.256H22.4337ZM27.2497 27.368H33.2697V18.352H28.4257V21.292C28.4257 22.5987 28.3324 23.728 28.1457 24.68C27.9591 25.6133 27.6604 26.4533 27.2497 27.2V27.368ZM47.4396 30.448C46.0396 30.448 44.7889 30.1213 43.6876 29.468C42.5862 28.8147 41.7182 27.9187 41.0836 26.78C40.4676 25.6413 40.1596 24.344 40.1596 22.888C40.1596 21.5253 40.4582 20.2653 41.0556 19.108C41.6529 17.9507 42.4836 17.0267 43.5476 16.336C44.6302 15.6267 45.8716 15.272 47.2716 15.272C48.7462 15.272 49.9969 15.5893 51.0236 16.224C52.0689 16.8587 52.8622 17.7267 53.4036 18.828C53.9449 19.9293 54.2156 21.1707 54.2156 22.552C54.2156 22.7573 54.2062 22.944 54.1876 23.112C54.1876 23.28 54.1782 23.4107 54.1596 23.504H43.1276C43.2769 24.9227 43.7716 25.9867 44.6116 26.696C45.4702 27.4053 46.4409 27.76 47.5236 27.76C48.4942 27.76 49.2969 27.5453 49.9316 27.116C50.5662 26.668 51.0702 26.1173 51.4436 25.464L53.9356 26.668C53.3196 27.788 52.4796 28.7027 51.4156 29.412C50.3516 30.1027 49.0262 30.448 47.4396 30.448ZM47.2996 17.848C46.2916 17.848 45.4329 18.156 44.7236 18.772C44.0142 19.388 43.5382 20.2093 43.2956 21.236H51.2196C51.1822 20.7507 51.0236 20.2467 50.7436 19.724C50.4636 19.2013 50.0342 18.7627 49.4556 18.408C48.8956 18.0347 48.1769 17.848 47.2996 17.848ZM57.2716 30.224C56.8423 30.224 56.4316 30.1773 56.0396 30.084V27.284C56.3009 27.4147 56.5903 27.48 56.9076 27.48C57.5423 27.48 57.9903 27.2373 58.2516 26.752C58.5129 26.248 58.6716 25.6133 58.7276 24.848C58.7836 24.0827 58.8116 23.2893 58.8116 22.468V15.72H69.7316V30H66.7356V18.352H61.6676V22.944C61.6676 23.9147 61.6023 24.8387 61.4716 25.716C61.3596 26.5747 61.1449 27.3493 60.8276 28.04C60.5103 28.712 60.0623 29.244 59.4836 29.636C58.9236 30.028 58.1863 30.224 57.2716 30.224ZM77.9331 30.448C76.9064 30.448 75.9917 30.252 75.1891 29.86C74.3864 29.4493 73.7611 28.88 73.3131 28.152C72.8651 27.424 72.6411 26.5933 72.6411 25.66C72.6411 24.652 72.9024 23.7933 73.4251 23.084C73.9664 22.356 74.6851 21.8053 75.5811 21.432C76.4771 21.0587 77.4664 20.872 78.5491 20.872C79.4451 20.872 80.2291 20.956 80.9011 21.124C81.5917 21.292 82.1144 21.4693 82.4691 21.656V20.9C82.4691 19.9667 82.1331 19.22 81.4611 18.66C80.7891 18.1 79.9211 17.82 78.8571 17.82C78.1291 17.82 77.4384 17.988 76.7851 18.324C76.1317 18.6413 75.6091 19.08 75.2171 19.64L73.1451 18.044C73.7611 17.1853 74.5731 16.5133 75.5811 16.028C76.6077 15.524 77.7277 15.272 78.9411 15.272C81.0131 15.272 82.6091 15.7853 83.7291 16.812C84.8491 17.82 85.4091 19.2387 85.4091 21.068V30H82.4691V28.236H82.3011C81.9277 28.8147 81.3677 29.328 80.6211 29.776C79.8744 30.224 78.9784 30.448 77.9331 30.448ZM78.4651 27.984C79.2491 27.984 79.9397 27.7973 80.5371 27.424C81.1344 27.0507 81.6011 26.5653 81.9371 25.968C82.2917 25.352 82.4691 24.6893 82.4691 23.98C82.0397 23.7373 81.5357 23.5413 80.9571 23.392C80.3784 23.224 79.7624 23.14 79.1091 23.14C77.8771 23.14 76.9997 23.392 76.4771 23.896C75.9544 24.3813 75.6931 24.9787 75.6931 25.688C75.6931 26.36 75.9451 26.9107 76.4491 27.34C76.9531 27.7693 77.6251 27.984 78.4651 27.984ZM92.186 30V18.352H87.482V15.72H99.886V18.352H95.182V30H92.186ZM105.679 15.72V20.48H108.955C109.925 20.48 110.793 20.6853 111.559 21.096C112.343 21.5067 112.959 22.076 113.407 22.804C113.855 23.5133 114.079 24.3253 114.079 25.24C114.079 26.1547 113.855 26.9667 113.407 27.676C112.959 28.3853 112.343 28.9547 111.559 29.384C110.793 29.7947 109.925 30 108.955 30H102.655V15.72H105.679ZM105.679 27.48H108.703C109.375 27.48 109.935 27.2653 110.383 26.836C110.831 26.4067 111.055 25.8747 111.055 25.24C111.055 24.6053 110.831 24.0733 110.383 23.644C109.935 23.196 109.375 22.972 108.703 22.972H105.679V27.48ZM123.735 30V15.72H136.279V30H133.255V18.352H126.759V30H123.735ZM146.697 30.448C145.222 30.448 143.925 30.112 142.805 29.44C141.685 28.768 140.807 27.8627 140.173 26.724C139.538 25.5853 139.221 24.2973 139.221 22.86C139.221 21.4413 139.538 20.1627 140.173 19.024C140.807 17.8667 141.685 16.952 142.805 16.28C143.925 15.608 145.222 15.272 146.697 15.272C148.153 15.272 149.441 15.608 150.561 16.28C151.681 16.952 152.558 17.8667 153.193 19.024C153.827 20.1627 154.145 21.4413 154.145 22.86C154.145 24.2973 153.827 25.5853 153.193 26.724C152.558 27.8627 151.681 28.768 150.561 29.44C149.441 30.112 148.153 30.448 146.697 30.448ZM146.697 27.676C147.481 27.676 148.209 27.4893 148.881 27.116C149.553 26.724 150.094 26.1733 150.505 25.464C150.934 24.736 151.149 23.868 151.149 22.86C151.149 21.852 150.934 20.9933 150.505 20.284C150.094 19.556 149.553 19.0053 148.881 18.632C148.209 18.24 147.481 18.044 146.697 18.044C145.913 18.044 145.175 18.24 144.485 18.632C143.813 19.0053 143.262 19.556 142.833 20.284C142.422 20.9933 142.217 21.852 142.217 22.86C142.217 23.868 142.422 24.736 142.833 25.464C143.262 26.1733 143.813 26.724 144.485 27.116C145.175 27.4893 145.913 27.676 146.697 27.676ZM155.167 30V29.832L160.991 22.44L155.475 15.888V15.72H159.003L163.959 22.048H164.127V15.72H167.151V22.048H167.319L172.303 15.72H175.859V15.888L170.315 22.44L176.139 29.832V30H172.583L167.319 22.972H167.151V30H164.127V22.972H163.959L158.723 30H155.167ZM184.561 30.448C183.161 30.448 181.911 30.1213 180.809 29.468C179.708 28.8147 178.84 27.9187 178.205 26.78C177.589 25.6413 177.281 24.344 177.281 22.888C177.281 21.5253 177.58 20.2653 178.177 19.108C178.775 17.9507 179.605 17.0267 180.669 16.336C181.752 15.6267 182.993 15.272 184.393 15.272C185.868 15.272 187.119 15.5893 188.145 16.224C189.191 16.8587 189.984 17.7267 190.525 18.828C191.067 19.9293 191.337 21.1707 191.337 22.552C191.337 22.7573 191.328 22.944 191.309 23.112C191.309 23.28 191.3 23.4107 191.281 23.504H180.249C180.399 24.9227 180.893 25.9867 181.733 26.696C182.592 27.4053 183.563 27.76 184.645 27.76C185.616 27.76 186.419 27.5453 187.053 27.116C187.688 26.668 188.192 26.1173 188.565 25.464L191.057 26.668C190.441 27.788 189.601 28.7027 188.537 29.412C187.473 30.1027 186.148 30.448 184.561 30.448ZM184.421 17.848C183.413 17.848 182.555 18.156 181.845 18.772C181.136 19.388 180.66 20.2093 180.417 21.236H188.341C188.304 20.7507 188.145 20.2467 187.865 19.724C187.585 19.2013 187.156 18.7627 186.577 18.408C186.017 18.0347 185.299 17.848 184.421 17.848ZM194.415 36.048V15.72H197.243V17.652H197.411C197.784 17.036 198.363 16.4853 199.147 16C199.95 15.5147 200.902 15.272 202.003 15.272C203.31 15.272 204.476 15.5987 205.503 16.252C206.53 16.9053 207.342 17.8013 207.939 18.94C208.555 20.0787 208.863 21.3853 208.863 22.86C208.863 24.3347 208.555 25.6507 207.939 26.808C207.342 27.9467 206.53 28.8427 205.503 29.496C204.476 30.1307 203.31 30.448 202.003 30.448C200.902 30.448 199.95 30.2147 199.147 29.748C198.363 29.2627 197.784 28.712 197.411 28.096H197.243L197.411 30.084V36.048H194.415ZM201.555 27.676C202.302 27.676 203.002 27.48 203.655 27.088C204.308 26.696 204.84 26.1453 205.251 25.436C205.662 24.708 205.867 23.8493 205.867 22.86C205.867 21.8707 205.662 21.0213 205.251 20.312C204.84 19.584 204.308 19.024 203.655 18.632C203.002 18.24 202.302 18.044 201.555 18.044C200.808 18.044 200.108 18.24 199.455 18.632C198.802 19.024 198.27 19.584 197.859 20.312C197.448 21.0213 197.243 21.8707 197.243 22.86C197.243 23.8493 197.448 24.708 197.859 25.436C198.27 26.1453 198.802 26.696 199.455 27.088C200.108 27.48 200.808 27.676 201.555 27.676ZM215.391 30V18.352H210.687V15.72H223.091V18.352H218.387V30H215.391ZM225.859 30V15.72H232.943C233.783 15.72 234.53 15.888 235.183 16.224C235.855 16.5413 236.378 16.98 236.751 17.54C237.143 18.1 237.339 18.7253 237.339 19.416C237.339 20.1627 237.171 20.8067 236.835 21.348C236.518 21.8893 236.098 22.2907 235.575 22.552V22.72C236.285 23 236.845 23.42 237.255 23.98C237.685 24.54 237.899 25.184 237.899 25.912C237.899 26.752 237.675 27.48 237.227 28.096C236.798 28.712 236.238 29.188 235.547 29.524C234.857 29.8413 234.119 30 233.335 30H225.859ZM228.883 18.184V21.544H232.579C233.083 21.544 233.503 21.3853 233.839 21.068C234.175 20.7507 234.343 20.3493 234.343 19.864C234.343 19.36 234.175 18.9587 233.839 18.66C233.503 18.3427 233.083 18.184 232.579 18.184H228.883ZM228.883 27.48H233.027C233.569 27.48 234.017 27.312 234.371 26.976C234.745 26.6213 234.931 26.1733 234.931 25.632C234.931 25.1093 234.745 24.6707 234.371 24.316C234.017 23.9613 233.569 23.784 233.027 23.784H228.883V27.48ZM247.727 30.448C246.252 30.448 244.955 30.112 243.835 29.44C242.715 28.768 241.838 27.8627 241.203 26.724C240.568 25.5853 240.251 24.2973 240.251 22.86C240.251 21.4413 240.568 20.1627 241.203 19.024C241.838 17.8667 242.715 16.952 243.835 16.28C244.955 15.608 246.252 15.272 247.727 15.272C249.183 15.272 250.471 15.608 251.591 16.28C252.711 16.952 253.588 17.8667 254.223 19.024C254.858 20.1627 255.175 21.4413 255.175 22.86C255.175 24.2973 254.858 25.5853 254.223 26.724C253.588 27.8627 252.711 28.768 251.591 29.44C250.471 30.112 249.183 30.448 247.727 30.448ZM247.727 27.676C248.511 27.676 249.239 27.4893 249.911 27.116C250.583 26.724 251.124 26.1733 251.535 25.464C251.964 24.736 252.179 23.868 252.179 22.86C252.179 21.852 251.964 20.9933 251.535 20.284C251.124 19.556 250.583 19.0053 249.911 18.632C249.239 18.24 248.511 18.044 247.727 18.044C246.943 18.044 246.206 18.24 245.515 18.632C244.843 19.0053 244.292 19.556 243.863 20.284C243.452 20.9933 243.247 21.852 243.247 22.86C243.247 23.868 243.452 24.736 243.863 25.464C244.292 26.1733 244.843 26.724 245.515 27.116C246.206 27.4893 246.943 27.676 247.727 27.676ZM257.987 30V15.72H265.071C265.911 15.72 266.657 15.888 267.311 16.224C267.983 16.5413 268.505 16.98 268.879 17.54C269.271 18.1 269.467 18.7253 269.467 19.416C269.467 20.1627 269.299 20.8067 268.963 21.348C268.645 21.8893 268.225 22.2907 267.703 22.552V22.72C268.412 23 268.972 23.42 269.383 23.98C269.812 24.54 270.027 25.184 270.027 25.912C270.027 26.752 269.803 27.48 269.355 28.096C268.925 28.712 268.365 29.188 267.675 29.524C266.984 29.8413 266.247 30 265.463 30H257.987ZM261.011 18.184V21.544H264.707C265.211 21.544 265.631 21.3853 265.967 21.068C266.303 20.7507 266.471 20.3493 266.471 19.864C266.471 19.36 266.303 18.9587 265.967 18.66C265.631 18.3427 265.211 18.184 264.707 18.184H261.011ZM261.011 27.48H265.155C265.696 27.48 266.144 27.312 266.499 26.976C266.872 26.6213 267.059 26.1733 267.059 25.632C267.059 25.1093 266.872 24.6707 266.499 24.316C266.144 23.9613 265.696 23.784 265.155 23.784H261.011V27.48ZM277.614 30.448C276.588 30.448 275.673 30.252 274.87 29.86C274.068 29.4493 273.442 28.88 272.994 28.152C272.546 27.424 272.322 26.5933 272.322 25.66C272.322 24.652 272.584 23.7933 273.106 23.084C273.648 22.356 274.366 21.8053 275.262 21.432C276.158 21.0587 277.148 20.872 278.23 20.872C279.126 20.872 279.91 20.956 280.582 21.124C281.273 21.292 281.796 21.4693 282.15 21.656V20.9C282.15 19.9667 281.814 19.22 281.142 18.66C280.47 18.1 279.602 17.82 278.538 17.82C277.81 17.82 277.12 17.988 276.466 18.324C275.813 18.6413 275.29 19.08 274.898 19.64L272.826 18.044C273.442 17.1853 274.254 16.5133 275.262 16.028C276.289 15.524 277.409 15.272 278.622 15.272C280.694 15.272 282.29 15.7853 283.41 16.812C284.53 17.82 285.09 19.2387 285.09 21.068V30H282.15V28.236H281.982C281.609 28.8147 281.049 29.328 280.302 29.776C279.556 30.224 278.66 30.448 277.614 30.448ZM278.146 27.984C278.93 27.984 279.621 27.7973 280.218 27.424C280.816 27.0507 281.282 26.5653 281.618 25.968C281.973 25.352 282.15 24.6893 282.15 23.98C281.721 23.7373 281.217 23.5413 280.638 23.392C280.06 23.224 279.444 23.14 278.79 23.14C277.558 23.14 276.681 23.392 276.158 23.896C275.636 24.3813 275.374 24.9787 275.374 25.688C275.374 26.36 275.626 26.9107 276.13 27.34C276.634 27.7693 277.306 27.984 278.146 27.984ZM288.719 30V15.72H291.743V21.46H298.519V15.72H301.543V30H298.519V24.092H291.743V30H288.719ZM305.371 30V15.72H308.395V23.028L308.227 25.716H308.395L315.535 15.72H318.531V30H315.535V22.72L315.703 20.032H315.535L308.395 30H305.371ZM328.765 30.448C327.365 30.448 326.115 30.1213 325.013 29.468C323.912 28.8147 323.044 27.9187 322.409 26.78C321.793 25.6413 321.485 24.344 321.485 22.888C321.485 21.5253 321.784 20.2653 322.381 19.108C322.979 17.9507 323.809 17.0267 324.873 16.336C325.956 15.6267 327.197 15.272 328.597 15.272C330.072 15.272 331.323 15.5893 332.349 16.224C333.395 16.8587 334.188 17.7267 334.729 18.828C335.271 19.9293 335.541 21.1707 335.541 22.552C335.541 22.7573 335.532 22.944 335.513 23.112C335.513 23.28 335.504 23.4107 335.485 23.504H324.453C324.603 24.9227 325.097 25.9867 325.937 26.696C326.796 27.4053 327.767 27.76 328.849 27.76C329.82 27.76 330.623 27.5453 331.257 27.116C331.892 26.668 332.396 26.1173 332.769 25.464L335.261 26.668C334.645 27.788 333.805 28.7027 332.741 29.412C331.677 30.1027 330.352 30.448 328.765 30.448ZM328.625 17.848C327.617 17.848 326.759 18.156 326.049 18.772C325.34 19.388 324.864 20.2093 324.621 21.236H332.545C332.508 20.7507 332.349 20.2467 332.069 19.724C331.789 19.2013 331.36 18.7627 330.781 18.408C330.221 18.0347 329.503 17.848 328.625 17.848ZM353.686 30V24.848C353.294 25.128 352.799 25.352 352.202 25.52C351.605 25.6693 350.951 25.744 350.242 25.744C348.599 25.744 347.283 25.268 346.294 24.316C345.323 23.364 344.838 22.076 344.838 20.452V15.72H347.862V20.144C347.862 21.04 348.114 21.7493 348.618 22.272C349.141 22.776 349.869 23.028 350.802 23.028C351.381 23.028 351.922 22.944 352.426 22.776C352.949 22.5893 353.369 22.3467 353.686 22.048V15.72H356.682V30H353.686ZM366.935 30.448C365.535 30.448 364.284 30.1213 363.183 29.468C362.082 28.8147 361.214 27.9187 360.579 26.78C359.963 25.6413 359.655 24.344 359.655 22.888C359.655 21.5253 359.954 20.2653 360.551 19.108C361.148 17.9507 361.979 17.0267 363.043 16.336C364.126 15.6267 365.367 15.272 366.767 15.272C368.242 15.272 369.492 15.5893 370.519 16.224C371.564 16.8587 372.358 17.7267 372.899 18.828C373.44 19.9293 373.711 21.1707 373.711 22.552C373.711 22.7573 373.702 22.944 373.683 23.112C373.683 23.28 373.674 23.4107 373.655 23.504H362.623C362.772 24.9227 363.267 25.9867 364.107 26.696C364.966 27.4053 365.936 27.76 367.019 27.76C367.99 27.76 368.792 27.5453 369.427 27.116C370.062 26.668 370.566 26.1173 370.939 25.464L373.431 26.668C372.815 27.788 371.975 28.7027 370.911 29.412C369.847 30.1027 368.522 30.448 366.935 30.448ZM366.795 17.848C365.787 17.848 364.928 18.156 364.219 18.772C363.51 19.388 363.034 20.2093 362.791 21.236H370.715C370.678 20.7507 370.519 20.2467 370.239 19.724C369.959 19.2013 369.53 18.7627 368.951 18.408C368.391 18.0347 367.672 17.848 366.795 17.848ZM376.788 36.048V15.72H379.616V17.652H379.784C380.158 17.036 380.736 16.4853 381.52 16C382.323 15.5147 383.275 15.272 384.376 15.272C385.683 15.272 386.85 15.5987 387.876 16.252C388.903 16.9053 389.715 17.8013 390.312 18.94C390.928 20.0787 391.236 21.3853 391.236 22.86C391.236 24.3347 390.928 25.6507 390.312 26.808C389.715 27.9467 388.903 28.8427 387.876 29.496C386.85 30.1307 385.683 30.448 384.376 30.448C383.275 30.448 382.323 30.2147 381.52 29.748C380.736 29.2627 380.158 28.712 379.784 28.096H379.616L379.784 30.084V36.048H376.788ZM383.928 27.676C384.675 27.676 385.375 27.48 386.028 27.088C386.682 26.696 387.214 26.1453 387.624 25.436C388.035 24.708 388.24 23.8493 388.24 22.86C388.24 21.8707 388.035 21.0213 387.624 20.312C387.214 19.584 386.682 19.024 386.028 18.632C385.375 18.24 384.675 18.044 383.928 18.044C383.182 18.044 382.482 18.24 381.828 18.632C381.175 19.024 380.643 19.584 380.232 20.312C379.822 21.0213 379.616 21.8707 379.616 22.86C379.616 23.8493 379.822 24.708 380.232 25.436C380.643 26.1453 381.175 26.696 381.828 27.088C382.482 27.48 383.182 27.676 383.928 27.676ZM400.785 30.448C399.385 30.448 398.134 30.1213 397.033 29.468C395.932 28.8147 395.064 27.9187 394.429 26.78C393.813 25.6413 393.505 24.344 393.505 22.888C393.505 21.5253 393.804 20.2653 394.401 19.108C394.998 17.9507 395.829 17.0267 396.893 16.336C397.976 15.6267 399.217 15.272 400.617 15.272C402.092 15.272 403.342 15.5893 404.369 16.224C405.414 16.8587 406.208 17.7267 406.749 18.828C407.29 19.9293 407.561 21.1707 407.561 22.552C407.561 22.7573 407.552 22.944 407.533 23.112C407.533 23.28 407.524 23.4107 407.505 23.504H396.473C396.622 24.9227 397.117 25.9867 397.957 26.696C398.816 27.4053 399.786 27.76 400.869 27.76C401.84 27.76 402.642 27.5453 403.277 27.116C403.912 26.668 404.416 26.1173 404.789 25.464L407.281 26.668C406.665 27.788 405.825 28.7027 404.761 29.412C403.697 30.1027 402.372 30.448 400.785 30.448ZM400.645 17.848C399.637 17.848 398.778 18.156 398.069 18.772C397.36 19.388 396.884 20.2093 396.641 21.236H404.565C404.528 20.7507 404.369 20.2467 404.089 19.724C403.809 19.2013 403.38 18.7627 402.801 18.408C402.241 18.0347 401.522 17.848 400.645 17.848ZM415.215 30.448C414.431 30.448 413.647 30.3547 412.863 30.168C412.079 29.9813 411.342 29.664 410.651 29.216C409.979 28.7493 409.419 28.1053 408.971 27.284L411.379 25.884C411.902 26.612 412.499 27.116 413.171 27.396C413.862 27.6573 414.543 27.788 415.215 27.788C416.186 27.788 416.923 27.6013 417.427 27.228C417.931 26.8547 418.183 26.3693 418.183 25.772C418.183 25.2493 417.95 24.8293 417.483 24.512C417.035 24.176 416.401 24.008 415.579 24.008H413.255V21.628H415.579C416.289 21.628 416.83 21.46 417.203 21.124C417.595 20.788 417.791 20.3587 417.791 19.836C417.791 19.22 417.53 18.7347 417.007 18.38C416.485 18.0067 415.822 17.82 415.019 17.82C414.31 17.82 413.629 17.9693 412.975 18.268C412.322 18.548 411.827 18.9307 411.491 19.416L409.251 17.932C409.905 17.1107 410.726 16.4667 411.715 16C412.723 15.5147 413.834 15.272 415.047 15.272C416.093 15.272 417.035 15.4493 417.875 15.804C418.734 16.1587 419.406 16.6533 419.891 17.288C420.395 17.904 420.647 18.6227 420.647 19.444C420.647 20.1533 420.47 20.788 420.115 21.348C419.761 21.8893 419.294 22.3 418.715 22.58V22.748C419.443 23.0467 420.031 23.4947 420.479 24.092C420.927 24.6893 421.151 25.3707 421.151 26.136C421.151 26.976 420.909 27.7227 420.423 28.376C419.938 29.0107 419.247 29.5147 418.351 29.888C417.455 30.2613 416.41 30.448 415.215 30.448Z" fill="white"/>
<g id="GPay Logo (Dark)">
<g id="GPay">
<g id="Pay">
<path id="Fill 1" fill-rule="evenodd" clip-rule="evenodd" d="M472.529 9.34665V17.5128H477.565C478.765 17.5128 479.757 17.1096 480.541 16.3032C481.347 15.4988 481.75 14.5394 481.75 13.4288C481.75 12.3406 481.347 11.3924 480.541 10.586C479.757 9.75916 478.765 9.34479 477.565 9.34479H472.529V9.34665ZM472.529 20.3872V29.8599H469.521V6.47218H477.499C479.527 6.47218 481.248 7.14787 482.666 8.49738C484.105 9.84688 484.824 11.4913 484.824 13.4288C484.824 15.411 484.105 17.0667 482.666 18.3938C481.27 19.7227 479.547 20.3854 477.499 20.3854H472.529V20.3872Z" fill="white"/>
<path id="Fill 3" fill-rule="evenodd" clip-rule="evenodd" d="M487.864 24.9602C487.864 25.7442 488.197 26.3975 488.862 26.9201C489.527 27.4427 490.306 27.704 491.2 27.704C492.465 27.704 493.591 27.2354 494.584 26.3004C495.576 25.3634 496.071 24.264 496.071 23.0022C495.133 22.2612 493.825 21.8916 492.147 21.8916C490.925 21.8916 489.907 22.1866 489.09 22.7745C488.273 23.3623 487.864 24.0886 487.864 24.9602ZM491.756 13.3317C493.98 13.3317 495.735 13.9253 497.022 15.1124C498.308 16.2995 498.95 17.9271 498.95 19.9952V29.8599H496.073V27.6387H495.942C494.699 29.4677 493.042 30.3825 490.972 30.3825C489.206 30.3825 487.728 29.8599 486.541 28.8146C485.353 27.7694 484.759 26.4628 484.759 24.8949C484.759 23.2393 485.385 21.9232 486.638 20.9434C487.892 19.9635 489.565 19.4726 491.658 19.4726C493.444 19.4726 494.916 19.7993 496.071 20.4525V19.7657C496.071 18.7204 495.656 17.8338 494.829 17.104C493.999 16.3742 493.031 16.0102 491.919 16.0102C490.239 16.0102 488.911 16.7176 487.93 18.1343L485.28 16.4675C486.741 14.377 488.899 13.3317 491.756 13.3317Z" fill="white"/>
<path id="Fill 5" fill-rule="evenodd" clip-rule="evenodd" d="M515.463 13.8543L505.423 36.9154H502.318L506.046 28.8464L499.44 13.8543H502.71L507.484 25.3522H507.55L512.193 13.8543H515.463Z" fill="white"/>
</g>
<g id="G">
<path id="Fill 8" fill-rule="evenodd" clip-rule="evenodd" d="M460.373 18.3452C460.373 17.3989 460.293 16.4861 460.141 15.6126H447.454V20.7885H454.72C454.408 22.4757 453.465 23.9112 452.033 24.8725V28.2341H456.37C458.91 25.8935 460.373 22.4348 460.373 18.3452Z" fill="#4285F4"/>
<path id="Fill 10" fill-rule="evenodd" clip-rule="evenodd" d="M447.454 31.4782C451.084 31.4782 454.141 30.2873 456.37 28.2341L452.033 24.8725C450.826 25.6844 449.272 26.1585 447.454 26.1585C443.944 26.1585 440.966 23.7955 439.901 20.6112H435.433V24.0736C437.647 28.4637 442.197 31.4782 447.454 31.4782Z" fill="#34A853"/>
<path id="Fill 12" fill-rule="evenodd" clip-rule="evenodd" d="M439.901 20.6111C439.628 19.7992 439.479 18.9331 439.479 18.0391C439.479 17.145 439.628 16.2789 439.901 15.467V12.0045H435.433C434.518 13.8188 434 15.8683 434 18.0391C434 20.2098 434.518 22.2595 435.433 24.0736L439.901 20.6111Z" fill="#FABB05"/>
<path id="Fill 14" fill-rule="evenodd" clip-rule="evenodd" d="M447.454 9.91964C449.436 9.91964 451.213 10.6009 452.615 11.9355V11.9374L456.455 8.10163C454.123 5.93272 451.082 4.60001 447.454 4.60001C442.197 4.60001 437.647 7.61447 435.433 12.0046L439.901 15.467C440.966 12.2827 443.944 9.91964 447.454 9.91964Z" fill="#E94235"/>
</g>
</g>
</g>
</g>
</svg>
