<svg width="172" height="21" viewBox="0 0 172 21" fill="none" xmlns="http://www.w3.org/2000/svg">
<g id="ru_order_with_Pay_NBG">
<path id="Left Text" d="M5.88388 15.2566C5.17988 15.2566 4.53988 15.1446 3.96388 14.9206C3.39854 14.6966 2.91321 14.3819 2.50788 13.9766C2.11321 13.5713 1.82521 13.1019 1.64388 12.5686L3.13188 11.7846C3.36654 12.3179 3.70788 12.7606 4.15588 13.1126C4.61454 13.4539 5.19588 13.6246 5.89988 13.6246C6.32655 13.6246 6.71588 13.5553 7.06788 13.4166C7.43055 13.2779 7.71855 13.0646 7.93188 12.7766C8.14521 12.4886 8.25188 12.1366 8.25188 11.7206C8.25188 11.1766 8.05988 10.7233 7.67588 10.3606C7.30254 9.98728 6.76921 9.80061 6.07588 9.80061H4.52388V8.23261H6.07588C6.66254 8.23261 7.10521 8.07794 7.40388 7.76861C7.70254 7.44861 7.85188 7.04861 7.85188 6.56861C7.85188 6.01394 7.67054 5.59261 7.30788 5.30461C6.94521 5.01661 6.44388 4.87261 5.80388 4.87261C5.23854 4.87261 4.73188 4.98994 4.28388 5.22461C3.84654 5.45928 3.51588 5.78461 3.29188 6.20061L1.85188 5.51261C2.08654 5.04328 2.39054 4.64328 2.76388 4.31261C3.13721 3.98194 3.57988 3.73128 4.09188 3.56061C4.61454 3.37928 5.18521 3.28861 5.80388 3.28861C6.58255 3.28861 7.25455 3.42194 7.81988 3.68861C8.39588 3.94461 8.83855 4.30728 9.14788 4.77661C9.45721 5.24594 9.61188 5.78461 9.61188 6.39261C9.61188 6.93661 9.47321 7.42728 9.19588 7.86461C8.92921 8.29128 8.52921 8.63261 7.99588 8.88861V8.98461C8.59321 9.22994 9.07855 9.58194 9.45188 10.0406C9.82521 10.4993 10.0119 11.0699 10.0119 11.7526C10.0119 12.3926 9.84654 12.9793 9.51588 13.5126C9.18521 14.0459 8.71055 14.4726 8.09188 14.7926C7.47321 15.1019 6.73721 15.2566 5.88388 15.2566ZM14.4086 15.2566C13.822 15.2566 13.2993 15.1393 12.8406 14.9046C12.3926 14.6699 12.0353 14.3499 11.7686 13.9446C11.5126 13.5286 11.3846 13.0539 11.3846 12.5206C11.3846 11.9339 11.534 11.4379 11.8326 11.0326C12.142 10.6273 12.5526 10.3179 13.0646 10.1046C13.5766 9.89128 14.142 9.78461 14.7606 9.78461C15.102 9.78461 15.4166 9.81128 15.7046 9.86461C16.0033 9.90728 16.2593 9.96061 16.4726 10.0246C16.6966 10.0886 16.8726 10.1579 17.0006 10.2326V9.80061C17.0006 9.26728 16.8086 8.84061 16.4246 8.52061C16.0406 8.20061 15.5446 8.04061 14.9366 8.04061C14.5206 8.04061 14.126 8.13661 13.7526 8.32861C13.3793 8.50994 13.0806 8.76061 12.8566 9.08061L11.6726 8.16861C11.9073 7.83794 12.19 7.55528 12.5206 7.32061C12.862 7.08594 13.2406 6.90461 13.6566 6.77661C14.0833 6.64861 14.526 6.58461 14.9846 6.58461C16.1686 6.58461 17.0806 6.87794 17.7206 7.46461C18.3606 8.04061 18.6806 8.85128 18.6806 9.89661V15.0006H17.0006V13.9926H16.9046C16.766 14.2059 16.574 14.4086 16.3286 14.6006C16.094 14.7926 15.8113 14.9473 15.4806 15.0646C15.1606 15.1926 14.8033 15.2566 14.4086 15.2566ZM14.7126 13.8486C15.1606 13.8486 15.5553 13.7419 15.8966 13.5286C16.2486 13.3153 16.5206 13.0379 16.7126 12.6966C16.9046 12.3446 17.0006 11.9659 17.0006 11.5606C16.766 11.4219 16.478 11.3099 16.1366 11.2246C15.806 11.1286 15.454 11.0806 15.0806 11.0806C14.3766 11.0806 13.8753 11.2193 13.5766 11.4966C13.278 11.7739 13.1286 12.1206 13.1286 12.5366C13.1286 12.9206 13.2726 13.2353 13.5606 13.4806C13.8486 13.7259 14.2326 13.8486 14.7126 13.8486ZM20.733 15.0006V6.84061H22.461V10.4566H22.557L25.757 6.84061H27.741V6.93661L24.333 10.6646L27.869 14.9046V15.0006H25.821L22.557 10.9846H22.461V15.0006H20.733ZM31.4899 15.2566C30.9032 15.2566 30.3805 15.1393 29.9219 14.9046C29.4739 14.6699 29.1165 14.3499 28.8499 13.9446C28.5939 13.5286 28.4659 13.0539 28.4659 12.5206C28.4659 11.9339 28.6152 11.4379 28.9139 11.0326C29.2232 10.6273 29.6339 10.3179 30.1459 10.1046C30.6579 9.89128 31.2232 9.78461 31.8419 9.78461C32.1832 9.78461 32.4979 9.81128 32.7859 9.86461C33.0845 9.90728 33.3405 9.96061 33.5539 10.0246C33.7779 10.0886 33.9539 10.1579 34.0819 10.2326V9.80061C34.0819 9.26728 33.8899 8.84061 33.5059 8.52061C33.1219 8.20061 32.6259 8.04061 32.0179 8.04061C31.6019 8.04061 31.2072 8.13661 30.8339 8.32861C30.4605 8.50994 30.1619 8.76061 29.9379 9.08061L28.7539 8.16861C28.9885 7.83794 29.2712 7.55528 29.6019 7.32061C29.9432 7.08594 30.3219 6.90461 30.7379 6.77661C31.1645 6.64861 31.6072 6.58461 32.0659 6.58461C33.2499 6.58461 34.1619 6.87794 34.8019 7.46461C35.4419 8.04061 35.7619 8.85128 35.7619 9.89661V15.0006H34.0819V13.9926H33.9859C33.8472 14.2059 33.6552 14.4086 33.4099 14.6006C33.1752 14.7926 32.8925 14.9473 32.5619 15.0646C32.2419 15.1926 31.8845 15.2566 31.4899 15.2566ZM31.7939 13.8486C32.2419 13.8486 32.6365 13.7419 32.9779 13.5286C33.3299 13.3153 33.6019 13.0379 33.7939 12.6966C33.9859 12.3446 34.0819 11.9659 34.0819 11.5606C33.8472 11.4219 33.5592 11.3099 33.2179 11.2246C32.8872 11.1286 32.5352 11.0806 32.1619 11.0806C31.4579 11.0806 30.9565 11.2193 30.6579 11.4966C30.3592 11.7739 30.2099 12.1206 30.2099 12.5366C30.2099 12.9206 30.3539 13.2353 30.6419 13.4806C30.9299 13.7259 31.3139 13.8486 31.7939 13.8486ZM40.7263 15.2566C40.2889 15.2566 39.8409 15.2033 39.3823 15.0966C38.9343 14.9899 38.5183 14.8086 38.1343 14.5526C37.7503 14.2859 37.4249 13.9179 37.1583 13.4486L38.5343 12.6486C38.8329 13.0646 39.1743 13.3526 39.5583 13.5126C39.9529 13.6619 40.3423 13.7366 40.7263 13.7366C41.2809 13.7366 41.7023 13.6299 41.9903 13.4166C42.2783 13.2033 42.4223 12.9259 42.4223 12.5846C42.4223 12.2859 42.2889 12.0459 42.0223 11.8646C41.7663 11.6726 41.4036 11.5766 40.9343 11.5766H39.6063V10.2166H40.9343C41.3396 10.2166 41.6489 10.1206 41.8623 9.92861C42.0863 9.73661 42.1983 9.49128 42.1983 9.19261C42.1983 8.84061 42.0489 8.56328 41.7503 8.36061C41.4516 8.14728 41.0729 8.04061 40.6143 8.04061C40.2089 8.04061 39.8196 8.12594 39.4463 8.29661C39.0729 8.45661 38.7903 8.67528 38.5983 8.95261L37.3183 8.10461C37.5636 7.78461 37.8569 7.51261 38.1983 7.28861C38.5396 7.06461 38.9129 6.89394 39.3183 6.77661C39.7343 6.64861 40.1716 6.58461 40.6303 6.58461C41.2383 6.58461 41.7823 6.68594 42.2623 6.88861C42.7423 7.09128 43.1209 7.37394 43.3983 7.73661C43.6863 8.08861 43.8303 8.49928 43.8303 8.96861C43.8303 9.37394 43.7289 9.73661 43.5263 10.0566C43.3236 10.3766 43.0569 10.6113 42.7263 10.7606V10.8566C43.1423 11.0273 43.4783 11.2833 43.7343 11.6246C43.9903 11.9659 44.1183 12.3553 44.1183 12.7926C44.1183 13.2726 43.9743 13.6993 43.6863 14.0726C43.4089 14.4459 43.0143 14.7393 42.5023 14.9526C42.0009 15.1553 41.4089 15.2566 40.7263 15.2566ZM48.2743 15.2566C47.6876 15.2566 47.1649 15.1393 46.7063 14.9046C46.2583 14.6699 45.9009 14.3499 45.6343 13.9446C45.3783 13.5286 45.2503 13.0539 45.2503 12.5206C45.2503 11.9339 45.3996 11.4379 45.6983 11.0326C46.0076 10.6273 46.4183 10.3179 46.9303 10.1046C47.4423 9.89128 48.0076 9.78461 48.6263 9.78461C48.9676 9.78461 49.2823 9.81128 49.5703 9.86461C49.8689 9.90728 50.1249 9.96061 50.3383 10.0246C50.5623 10.0886 50.7383 10.1579 50.8663 10.2326V9.80061C50.8663 9.26728 50.6743 8.84061 50.2903 8.52061C49.9063 8.20061 49.4103 8.04061 48.8023 8.04061C48.3863 8.04061 47.9916 8.13661 47.6183 8.32861C47.2449 8.50994 46.9463 8.76061 46.7223 9.08061L45.5383 8.16861C45.7729 7.83794 46.0556 7.55528 46.3863 7.32061C46.7276 7.08594 47.1063 6.90461 47.5223 6.77661C47.9489 6.64861 48.3916 6.58461 48.8503 6.58461C50.0343 6.58461 50.9463 6.87794 51.5863 7.46461C52.2263 8.04061 52.5463 8.85128 52.5463 9.89661V15.0006H50.8663V13.9926H50.7703C50.6316 14.2059 50.4396 14.4086 50.1943 14.6006C49.9596 14.7926 49.6769 14.9473 49.3463 15.0646C49.0263 15.1926 48.6689 15.2566 48.2743 15.2566ZM48.5783 13.8486C49.0263 13.8486 49.4209 13.7419 49.7623 13.5286C50.1143 13.3153 50.3863 13.0379 50.5783 12.6966C50.7703 12.3446 50.8663 11.9659 50.8663 11.5606C50.6316 11.4219 50.3436 11.3099 50.0023 11.2246C49.6716 11.1286 49.3196 11.0806 48.9463 11.0806C48.2423 11.0806 47.7409 11.2193 47.4423 11.4966C47.1436 11.7739 46.9943 12.1206 46.9943 12.5366C46.9943 12.9206 47.1383 13.2353 47.4263 13.4806C47.7143 13.7259 48.0983 13.8486 48.5783 13.8486ZM56.3974 15.0006V8.34461H53.7094V6.84061H60.7974V8.34461H58.1094V15.0006H56.3974ZM64.086 6.84061V9.56061H65.958C66.5233 9.56061 67.0247 9.67794 67.462 9.91261C67.8993 10.1473 68.246 10.4726 68.502 10.8886C68.758 11.2939 68.886 11.7579 68.886 12.2806C68.886 12.7926 68.758 13.2566 68.502 13.6726C68.246 14.0886 67.8993 14.4139 67.462 14.6486C67.0247 14.8833 66.5233 15.0006 65.958 15.0006H62.358V6.84061H64.086ZM64.086 10.9846V13.5606H65.814C66.198 13.5606 66.518 13.4379 66.774 13.1926C67.03 12.9473 67.158 12.6433 67.158 12.2806C67.158 11.9179 67.03 11.6139 66.774 11.3686C66.518 11.1126 66.198 10.9846 65.814 10.9846H64.086ZM79.0491 15.0006V12.0566C78.8251 12.2166 78.5425 12.3446 78.2011 12.4406C77.8598 12.5259 77.4865 12.5686 77.0811 12.5686C76.1425 12.5686 75.3905 12.2966 74.8251 11.7526C74.2705 11.2086 73.9931 10.4726 73.9931 9.54461V6.84061H75.7211V9.36861C75.7211 9.88061 75.8651 10.2859 76.1531 10.5846C76.4518 10.8726 76.8678 11.0166 77.4011 11.0166C77.7211 11.0166 78.0305 10.9686 78.3291 10.8726C78.6385 10.7659 78.8785 10.6273 79.0491 10.4566V6.84061H80.7611V15.0006H79.0491ZM86.5985 15.2566C85.7985 15.2566 85.0838 15.0699 84.4545 14.6966C83.8252 14.3233 83.3292 13.8113 82.9665 13.1606C82.6145 12.5099 82.4385 11.7686 82.4385 10.9366C82.4385 10.1579 82.6092 9.43794 82.9505 8.77661C83.2918 8.11528 83.7665 7.58728 84.3745 7.19261C84.9932 6.78728 85.7025 6.58461 86.5025 6.58461C87.3452 6.58461 88.0598 6.76594 88.6465 7.12861C89.2438 7.49128 89.6972 7.98728 90.0065 8.61661C90.3158 9.24594 90.4705 9.95528 90.4705 10.7446C90.4705 10.8619 90.4652 10.9686 90.4545 11.0646C90.4545 11.1606 90.4492 11.2353 90.4385 11.2886H84.1345C84.1772 11.7366 84.2892 12.1259 84.4705 12.4566C84.7052 12.8726 85.0145 13.1873 85.3985 13.4006C85.7825 13.6139 86.1985 13.7206 86.6465 13.7206C87.1905 13.7206 87.6438 13.5979 88.0065 13.3526C88.3798 13.0966 88.6732 12.7819 88.8865 12.4086L90.3105 13.0966C89.9585 13.7366 89.4785 14.2593 88.8705 14.6646C88.2625 15.0593 87.5052 15.2566 86.5985 15.2566ZM84.2305 9.99261H88.7585C88.7478 9.78994 88.6945 9.57661 88.5985 9.35261C88.5025 9.11794 88.3638 8.90461 88.1825 8.71261C88.0012 8.52061 87.7718 8.36594 87.4945 8.24861C87.2172 8.12061 86.8918 8.05661 86.5185 8.05661C86.0492 8.05661 85.6332 8.17928 85.2705 8.42461C84.9078 8.65928 84.6252 8.98994 84.4225 9.41661C84.3372 9.59794 84.2732 9.78994 84.2305 9.99261ZM92.2076 18.4566V6.84061H93.8236V7.94461H93.9196C94.069 7.70994 94.2663 7.49128 94.5116 7.28861C94.7676 7.07528 95.0663 6.90461 95.4076 6.77661C95.749 6.64861 96.1276 6.58461 96.5436 6.58461C97.2903 6.58461 97.957 6.77128 98.5436 7.14461C99.1303 7.51794 99.5943 8.02994 99.9356 8.68061C100.288 9.33128 100.464 10.0779 100.464 10.9206C100.464 11.7633 100.288 12.5099 99.9356 13.1606C99.5943 13.8113 99.1303 14.3233 98.5436 14.6966C97.957 15.0699 97.2903 15.2566 96.5436 15.2566C95.925 15.2566 95.3863 15.1179 94.9276 14.8406C94.469 14.5633 94.133 14.2539 93.9196 13.9126H93.8236L93.9196 15.0486V18.4566H92.2076ZM96.2876 13.6726C96.7143 13.6726 97.1143 13.5606 97.4876 13.3366C97.8716 13.1126 98.1756 12.7926 98.3996 12.3766C98.6343 11.9606 98.7516 11.4753 98.7516 10.9206C98.7516 10.3553 98.6343 9.86994 98.3996 9.46461C98.1756 9.04861 97.8716 8.72861 97.4876 8.50461C97.1143 8.28061 96.7143 8.16861 96.2876 8.16861C95.861 8.16861 95.461 8.28061 95.0876 8.50461C94.7143 8.72861 94.4103 9.04861 94.1756 9.46461C93.941 9.86994 93.8236 10.3553 93.8236 10.9206C93.8236 11.4859 93.941 11.9766 94.1756 12.3926C94.4103 12.7979 94.7143 13.1126 95.0876 13.3366C95.461 13.5606 95.861 13.6726 96.2876 13.6726ZM105.899 15.2566C105.099 15.2566 104.384 15.0699 103.755 14.6966C103.125 14.3233 102.629 13.8113 102.267 13.1606C101.915 12.5099 101.739 11.7686 101.739 10.9366C101.739 10.1579 101.909 9.43794 102.251 8.77661C102.592 8.11528 103.067 7.58728 103.675 7.19261C104.293 6.78728 105.003 6.58461 105.803 6.58461C106.645 6.58461 107.36 6.76594 107.947 7.12861C108.544 7.49128 108.997 7.98728 109.307 8.61661C109.616 9.24594 109.771 9.95528 109.771 10.7446C109.771 10.8619 109.765 10.9686 109.755 11.0646C109.755 11.1606 109.749 11.2353 109.739 11.2886H103.435C103.477 11.7366 103.589 12.1259 103.771 12.4566C104.005 12.8726 104.315 13.1873 104.699 13.4006C105.083 13.6139 105.499 13.7206 105.947 13.7206C106.491 13.7206 106.944 13.5979 107.307 13.3526C107.68 13.0966 107.973 12.7819 108.187 12.4086L109.611 13.0966C109.259 13.7366 108.779 14.2593 108.171 14.6646C107.563 15.0593 106.805 15.2566 105.899 15.2566ZM103.531 9.99261H108.059C108.048 9.78994 107.995 9.57661 107.899 9.35261C107.803 9.11794 107.664 8.90461 107.483 8.71261C107.301 8.52061 107.072 8.36594 106.795 8.24861C106.517 8.12061 106.192 8.05661 105.819 8.05661C105.349 8.05661 104.933 8.17928 104.571 8.42461C104.208 8.65928 103.925 8.98994 103.723 9.41661C103.637 9.59794 103.573 9.78994 103.531 9.99261ZM114.123 15.2566C113.686 15.2566 113.238 15.2033 112.779 15.0966C112.331 14.9899 111.915 14.8086 111.531 14.5526C111.147 14.2859 110.822 13.9179 110.555 13.4486L111.931 12.6486C112.23 13.0646 112.571 13.3526 112.955 13.5126C113.35 13.6619 113.739 13.7366 114.123 13.7366C114.678 13.7366 115.099 13.6299 115.387 13.4166C115.675 13.2033 115.819 12.9259 115.819 12.5846C115.819 12.2859 115.686 12.0459 115.419 11.8646C115.163 11.6726 114.8 11.5766 114.331 11.5766H113.003V10.2166H114.331C114.736 10.2166 115.046 10.1206 115.259 9.92861C115.483 9.73661 115.595 9.49128 115.595 9.19261C115.595 8.84061 115.446 8.56328 115.147 8.36061C114.848 8.14728 114.47 8.04061 114.011 8.04061C113.606 8.04061 113.216 8.12594 112.843 8.29661C112.47 8.45661 112.187 8.67528 111.995 8.95261L110.715 8.10461C110.96 7.78461 111.254 7.51261 111.595 7.28861C111.936 7.06461 112.31 6.89394 112.715 6.77661C113.131 6.64861 113.568 6.58461 114.027 6.58461C114.635 6.58461 115.179 6.68594 115.659 6.88861C116.139 7.09128 116.518 7.37394 116.795 7.73661C117.083 8.08861 117.227 8.49928 117.227 8.96861C117.227 9.37394 117.126 9.73661 116.923 10.0566C116.72 10.3766 116.454 10.6113 116.123 10.7606V10.8566C116.539 11.0273 116.875 11.2833 117.131 11.6246C117.387 11.9659 117.515 12.3553 117.515 12.7926C117.515 13.2726 117.371 13.6993 117.083 14.0726C116.806 14.4459 116.411 14.7393 115.899 14.9526C115.398 15.1553 114.806 15.2566 114.123 15.2566Z" fill="white"/>
<g id="GPay (Dark)">
<g id="GPay">
<g id="Pay">
<path id="Fill 1" fill-rule="evenodd" clip-rule="evenodd" d="M146.356 3.42339V8.16175H149.278C149.974 8.16175 150.55 7.92781 151.005 7.45993C151.473 6.99313 151.707 6.43644 151.707 5.79203C151.707 5.16061 151.473 4.61041 151.005 4.14254C150.55 3.66274 149.974 3.4223 149.278 3.4223H146.356V3.42339ZM146.356 9.82966V15.3262H144.611V1.75549H149.24C150.417 1.75549 151.415 2.14756 152.238 2.93061C153.073 3.71365 153.491 4.66782 153.491 5.79203C153.491 6.94224 153.073 7.90291 152.238 8.67296C151.428 9.44409 150.429 9.82858 149.24 9.82858H146.356V9.82966Z" fill="white"/>
<path id="Fill 3" fill-rule="evenodd" clip-rule="evenodd" d="M155.255 12.4831C155.255 12.9379 155.448 13.317 155.834 13.6203C156.22 13.9235 156.672 14.0752 157.19 14.0752C157.924 14.0752 158.578 13.8032 159.153 13.2607C159.729 12.717 160.017 12.0791 160.017 11.3469C159.472 10.917 158.713 10.7025 157.74 10.7025C157.031 10.7025 156.44 10.8736 155.966 11.2148C155.492 11.5559 155.255 11.9773 155.255 12.4831M157.513 5.73566C158.803 5.73566 159.821 6.08007 160.569 6.76889C161.314 7.45771 161.687 8.40213 161.687 9.60216V15.3261H160.018V14.0373H159.942C159.221 15.0985 158.259 15.6294 157.058 15.6294C156.033 15.6294 155.176 15.3261 154.487 14.7196C153.797 14.1131 153.453 13.3549 153.453 12.4452C153.453 11.4845 153.816 10.7208 154.543 10.1523C155.271 9.58375 156.241 9.2989 157.456 9.2989C158.492 9.2989 159.346 9.48844 160.017 9.86751V9.46894C160.017 8.86243 159.776 8.34798 159.296 7.92451C158.814 7.50103 158.252 7.28984 157.607 7.28984C156.633 7.28984 155.862 7.70032 155.293 8.52235L153.755 7.55519C154.603 6.34217 155.855 5.73566 157.513 5.73566" fill="white"/>
<path id="Fill 5" fill-rule="evenodd" clip-rule="evenodd" d="M171.269 6.03894L165.443 19.4201H163.641L165.804 14.738L161.971 6.03894H163.869L166.639 12.7106H166.677L169.371 6.03894H171.269Z" fill="white"/>
</g>
<g id="G">
<path id="Fill 8" fill-rule="evenodd" clip-rule="evenodd" d="M139.303 8.64473C139.303 8.09563 139.256 7.56601 139.168 7.05914H131.806V10.0625H136.023C135.842 11.0414 135.294 11.8744 134.464 12.4322V14.3828H136.98C138.454 13.0246 139.303 11.0177 139.303 8.64473" fill="#4285F4"/>
<path id="Fill 10" fill-rule="evenodd" clip-rule="evenodd" d="M131.806 16.2651C133.913 16.2651 135.687 15.5741 136.98 14.3828L134.464 12.4322C133.763 12.9033 132.861 13.1784 131.806 13.1784C129.77 13.1784 128.042 11.8073 127.424 9.95959H124.832V11.9687C126.116 14.516 128.757 16.2651 131.806 16.2651" fill="#34A853"/>
<path id="Fill 12" fill-rule="evenodd" clip-rule="evenodd" d="M127.424 9.9596C127.266 9.48847 127.179 8.98593 127.179 8.46715C127.179 7.94837 127.266 7.44583 127.424 6.9747V4.96564H124.832C124.3 6.01837 124 7.20756 124 8.46715C124 9.72674 124.3 10.916 124.832 11.9687L127.424 9.9596Z" fill="#FABB05"/>
<path id="Fill 14" fill-rule="evenodd" clip-rule="evenodd" d="M131.806 3.75583C132.957 3.75583 133.988 4.15115 134.801 4.92553V4.92661L137.029 2.70094C135.676 1.44243 133.912 0.669128 131.806 0.669128C128.757 0.669128 126.116 2.41826 124.832 4.9656L127.424 6.97467C128.042 5.12698 129.77 3.75583 131.806 3.75583" fill="#E94235"/>
</g>
</g>
</g>
</g>
</svg>
