<svg width="300" height="38" viewBox="0 0 300 38" fill="none" xmlns="http://www.w3.org/2000/svg">
<g id="ru_order_with_Dark">
<path id="Text" d="M9.30929 30.448C7.47995 30.448 5.90262 30.0187 4.57729 29.16C3.25195 28.3013 2.35595 27.1627 1.88929 25.744L4.49329 24.372C4.90395 25.3053 5.50129 26.08 6.28529 26.696C7.08795 27.2933 8.10529 27.592 9.33729 27.592C10.4573 27.592 11.4186 27.312 12.2213 26.752C13.0426 26.192 13.4533 25.3613 13.4533 24.26C13.4533 23.308 13.1173 22.5147 12.4453 21.88C11.792 21.2267 10.8586 20.9 9.64529 20.9H6.92929V18.156H9.64529C10.672 18.156 11.4466 17.8853 11.9693 17.344C12.492 16.784 12.7533 16.084 12.7533 15.244C12.7533 14.2733 12.436 13.536 11.8013 13.032C11.1666 12.528 10.2893 12.276 9.16929 12.276C8.17995 12.276 7.29329 12.4813 6.50929 12.892C5.74395 13.3027 5.16529 13.872 4.77329 14.6L2.25329 13.396C2.85062 12.1827 3.74662 11.2307 4.94129 10.54C6.13595 9.84933 7.54529 9.504 9.16929 9.504C10.532 9.504 11.708 9.73733 12.6973 10.204C13.7053 10.6707 14.48 11.3147 15.0213 12.136C15.5626 12.9387 15.8333 13.872 15.8333 14.936C15.8333 15.888 15.5906 16.7467 15.1053 17.512C14.6386 18.2587 13.9386 18.856 13.0053 19.304V19.472C14.0506 19.9013 14.9 20.5173 15.5533 21.32C16.2066 22.1227 16.5333 23.1213 16.5333 24.316C16.5333 25.436 16.244 26.4627 15.6653 27.396C15.0866 28.3293 14.256 29.076 13.1733 29.636C12.0906 30.1773 10.8026 30.448 9.30929 30.448ZM24.2651 30.448C23.2384 30.448 22.3238 30.252 21.5211 29.86C20.7184 29.4493 20.0931 28.88 19.6451 28.152C19.1971 27.424 18.9731 26.5933 18.9731 25.66C18.9731 24.652 19.2344 23.7933 19.7571 23.084C20.2984 22.356 21.0171 21.8053 21.9131 21.432C22.8091 21.0587 23.7984 20.872 24.8811 20.872C25.7771 20.872 26.5611 20.956 27.2331 21.124C27.9238 21.292 28.4464 21.4693 28.8011 21.656V20.9C28.8011 19.9667 28.4651 19.22 27.7931 18.66C27.1211 18.1 26.2531 17.82 25.1891 17.82C24.4611 17.82 23.7704 17.988 23.1171 18.324C22.4638 18.6413 21.9411 19.08 21.5491 19.64L19.4771 18.044C20.0931 17.1853 20.9051 16.5133 21.9131 16.028C22.9398 15.524 24.0598 15.272 25.2731 15.272C27.3451 15.272 28.9411 15.7853 30.0611 16.812C31.1811 17.82 31.7411 19.2387 31.7411 21.068V30H28.8011V28.236H28.6331C28.2598 28.8147 27.6998 29.328 26.9531 29.776C26.2064 30.224 25.3104 30.448 24.2651 30.448ZM24.7971 27.984C25.5811 27.984 26.2718 27.7973 26.8691 27.424C27.4664 27.0507 27.9331 26.5653 28.2691 25.968C28.6238 25.352 28.8011 24.6893 28.8011 23.98C28.3718 23.7373 27.8678 23.5413 27.2891 23.392C26.7104 23.224 26.0944 23.14 25.4411 23.14C24.2091 23.14 23.3318 23.392 22.8091 23.896C22.2864 24.3813 22.0251 24.9787 22.0251 25.688C22.0251 26.36 22.2771 26.9107 22.7811 27.34C23.2851 27.7693 23.9571 27.984 24.7971 27.984ZM35.3703 30V15.72H38.3943V22.048H38.5623L44.1623 15.72H47.6343V15.888L41.6703 22.412L47.8583 29.832V30H44.2743L38.5623 22.972H38.3943V30H35.3703ZM54.2323 30.448C53.2056 30.448 52.291 30.252 51.4883 29.86C50.6856 29.4493 50.0603 28.88 49.6123 28.152C49.1643 27.424 48.9403 26.5933 48.9403 25.66C48.9403 24.652 49.2016 23.7933 49.7243 23.084C50.2656 22.356 50.9843 21.8053 51.8803 21.432C52.7763 21.0587 53.7656 20.872 54.8483 20.872C55.7443 20.872 56.5283 20.956 57.2003 21.124C57.891 21.292 58.4136 21.4693 58.7683 21.656V20.9C58.7683 19.9667 58.4323 19.22 57.7603 18.66C57.0883 18.1 56.2203 17.82 55.1563 17.82C54.4283 17.82 53.7376 17.988 53.0843 18.324C52.431 18.6413 51.9083 19.08 51.5163 19.64L49.4443 18.044C50.0603 17.1853 50.8723 16.5133 51.8803 16.028C52.907 15.524 54.027 15.272 55.2403 15.272C57.3123 15.272 58.9083 15.7853 60.0283 16.812C61.1483 17.82 61.7083 19.2387 61.7083 21.068V30H58.7683V28.236H58.6003C58.227 28.8147 57.667 29.328 56.9203 29.776C56.1736 30.224 55.2776 30.448 54.2323 30.448ZM54.7643 27.984C55.5483 27.984 56.239 27.7973 56.8363 27.424C57.4336 27.0507 57.9003 26.5653 58.2363 25.968C58.591 25.352 58.7683 24.6893 58.7683 23.98C58.339 23.7373 57.835 23.5413 57.2563 23.392C56.6776 23.224 56.0616 23.14 55.4083 23.14C54.1763 23.14 53.299 23.392 52.7763 23.896C52.2536 24.3813 51.9923 24.9787 51.9923 25.688C51.9923 26.36 52.2443 26.9107 52.7483 27.34C53.2523 27.7693 53.9243 27.984 54.7643 27.984ZM70.4334 30.448C69.6494 30.448 68.8654 30.3547 68.0814 30.168C67.2974 29.9813 66.5601 29.664 65.8694 29.216C65.1974 28.7493 64.6374 28.1053 64.1894 27.284L66.5974 25.884C67.1201 26.612 67.7174 27.116 68.3894 27.396C69.0801 27.6573 69.7614 27.788 70.4334 27.788C71.4041 27.788 72.1414 27.6013 72.6454 27.228C73.1494 26.8547 73.4014 26.3693 73.4014 25.772C73.4014 25.2493 73.1681 24.8293 72.7014 24.512C72.2534 24.176 71.6188 24.008 70.7974 24.008H68.4734V21.628H70.7974C71.5068 21.628 72.0481 21.46 72.4214 21.124C72.8134 20.788 73.0094 20.3587 73.0094 19.836C73.0094 19.22 72.7481 18.7347 72.2254 18.38C71.7028 18.0067 71.0401 17.82 70.2374 17.82C69.5281 17.82 68.8468 17.9693 68.1934 18.268C67.5401 18.548 67.0454 18.9307 66.7094 19.416L64.4694 17.932C65.1228 17.1107 65.9441 16.4667 66.9334 16C67.9414 15.5147 69.0521 15.272 70.2654 15.272C71.3108 15.272 72.2534 15.4493 73.0934 15.804C73.9521 16.1587 74.6241 16.6533 75.1094 17.288C75.6134 17.904 75.8654 18.6227 75.8654 19.444C75.8654 20.1533 75.6881 20.788 75.3334 21.348C74.9788 21.8893 74.5121 22.3 73.9334 22.58V22.748C74.6614 23.0467 75.2494 23.4947 75.6974 24.092C76.1454 24.6893 76.3694 25.3707 76.3694 26.136C76.3694 26.976 76.1268 27.7227 75.6414 28.376C75.1561 29.0107 74.4654 29.5147 73.5694 29.888C72.6734 30.2613 71.6281 30.448 70.4334 30.448ZM83.6799 30.448C82.6533 30.448 81.7386 30.252 80.9359 29.86C80.1333 29.4493 79.5079 28.88 79.0599 28.152C78.6119 27.424 78.3879 26.5933 78.3879 25.66C78.3879 24.652 78.6493 23.7933 79.1719 23.084C79.7133 22.356 80.4319 21.8053 81.3279 21.432C82.2239 21.0587 83.2133 20.872 84.2959 20.872C85.1919 20.872 85.9759 20.956 86.6479 21.124C87.3386 21.292 87.8613 21.4693 88.2159 21.656V20.9C88.2159 19.9667 87.8799 19.22 87.2079 18.66C86.5359 18.1 85.6679 17.82 84.6039 17.82C83.8759 17.82 83.1853 17.988 82.5319 18.324C81.8786 18.6413 81.3559 19.08 80.9639 19.64L78.8919 18.044C79.5079 17.1853 80.3199 16.5133 81.3279 16.028C82.3546 15.524 83.4746 15.272 84.6879 15.272C86.7599 15.272 88.3559 15.7853 89.4759 16.812C90.5959 17.82 91.1559 19.2387 91.1559 21.068V30H88.2159V28.236H88.0479C87.6746 28.8147 87.1146 29.328 86.3679 29.776C85.6213 30.224 84.7253 30.448 83.6799 30.448ZM84.2119 27.984C84.9959 27.984 85.6866 27.7973 86.2839 27.424C86.8813 27.0507 87.3479 26.5653 87.6839 25.968C88.0386 25.352 88.2159 24.6893 88.2159 23.98C87.7866 23.7373 87.2826 23.5413 86.7039 23.392C86.1253 23.224 85.5093 23.14 84.8559 23.14C83.6239 23.14 82.7466 23.392 82.2239 23.896C81.7013 24.3813 81.4399 24.9787 81.4399 25.688C81.4399 26.36 81.6919 26.9107 82.1959 27.34C82.6999 27.7693 83.3719 27.984 84.2119 27.984ZM97.9329 30V18.352H93.2289V15.72H105.633V18.352H100.929V30H97.9329ZM111.426 15.72V20.48H114.702C115.672 20.48 116.54 20.6853 117.306 21.096C118.09 21.5067 118.706 22.076 119.154 22.804C119.602 23.5133 119.826 24.3253 119.826 25.24C119.826 26.1547 119.602 26.9667 119.154 27.676C118.706 28.3853 118.09 28.9547 117.306 29.384C116.54 29.7947 115.672 30 114.702 30H108.402V15.72H111.426ZM111.426 27.48H114.45C115.122 27.48 115.682 27.2653 116.13 26.836C116.578 26.4067 116.802 25.8747 116.802 25.24C116.802 24.6053 116.578 24.0733 116.13 23.644C115.682 23.196 115.122 22.972 114.45 22.972H111.426V27.48ZM137.686 30V24.848C137.294 25.128 136.799 25.352 136.202 25.52C135.605 25.6693 134.951 25.744 134.242 25.744C132.599 25.744 131.283 25.268 130.294 24.316C129.323 23.364 128.838 22.076 128.838 20.452V15.72H131.862V20.144C131.862 21.04 132.114 21.7493 132.618 22.272C133.141 22.776 133.869 23.028 134.802 23.028C135.381 23.028 135.922 22.944 136.426 22.776C136.949 22.5893 137.369 22.3467 137.686 22.048V15.72H140.682V30H137.686ZM150.935 30.448C149.535 30.448 148.284 30.1213 147.183 29.468C146.082 28.8147 145.214 27.9187 144.579 26.78C143.963 25.6413 143.655 24.344 143.655 22.888C143.655 21.5253 143.954 20.2653 144.551 19.108C145.148 17.9507 145.979 17.0267 147.043 16.336C148.126 15.6267 149.367 15.272 150.767 15.272C152.242 15.272 153.492 15.5893 154.519 16.224C155.564 16.8587 156.358 17.7267 156.899 18.828C157.44 19.9293 157.711 21.1707 157.711 22.552C157.711 22.7573 157.702 22.944 157.683 23.112C157.683 23.28 157.674 23.4107 157.655 23.504H146.623C146.772 24.9227 147.267 25.9867 148.107 26.696C148.966 27.4053 149.936 27.76 151.019 27.76C151.99 27.76 152.792 27.5453 153.427 27.116C154.062 26.668 154.566 26.1173 154.939 25.464L157.431 26.668C156.815 27.788 155.975 28.7027 154.911 29.412C153.847 30.1027 152.522 30.448 150.935 30.448ZM150.795 17.848C149.787 17.848 148.928 18.156 148.219 18.772C147.51 19.388 147.034 20.2093 146.791 21.236H154.715C154.678 20.7507 154.519 20.2467 154.239 19.724C153.959 19.2013 153.53 18.7627 152.951 18.408C152.391 18.0347 151.672 17.848 150.795 17.848ZM160.788 36.048V15.72H163.616V17.652H163.784C164.158 17.036 164.736 16.4853 165.52 16C166.323 15.5147 167.275 15.272 168.376 15.272C169.683 15.272 170.85 15.5987 171.876 16.252C172.903 16.9053 173.715 17.8013 174.312 18.94C174.928 20.0787 175.236 21.3853 175.236 22.86C175.236 24.3347 174.928 25.6507 174.312 26.808C173.715 27.9467 172.903 28.8427 171.876 29.496C170.85 30.1307 169.683 30.448 168.376 30.448C167.275 30.448 166.323 30.2147 165.52 29.748C164.736 29.2627 164.158 28.712 163.784 28.096H163.616L163.784 30.084V36.048H160.788ZM167.928 27.676C168.675 27.676 169.375 27.48 170.028 27.088C170.682 26.696 171.214 26.1453 171.624 25.436C172.035 24.708 172.24 23.8493 172.24 22.86C172.24 21.8707 172.035 21.0213 171.624 20.312C171.214 19.584 170.682 19.024 170.028 18.632C169.375 18.24 168.675 18.044 167.928 18.044C167.182 18.044 166.482 18.24 165.828 18.632C165.175 19.024 164.643 19.584 164.232 20.312C163.822 21.0213 163.616 21.8707 163.616 22.86C163.616 23.8493 163.822 24.708 164.232 25.436C164.643 26.1453 165.175 26.696 165.828 27.088C166.482 27.48 167.182 27.676 167.928 27.676ZM184.785 30.448C183.385 30.448 182.134 30.1213 181.033 29.468C179.932 28.8147 179.064 27.9187 178.429 26.78C177.813 25.6413 177.505 24.344 177.505 22.888C177.505 21.5253 177.804 20.2653 178.401 19.108C178.998 17.9507 179.829 17.0267 180.893 16.336C181.976 15.6267 183.217 15.272 184.617 15.272C186.092 15.272 187.342 15.5893 188.369 16.224C189.414 16.8587 190.208 17.7267 190.749 18.828C191.29 19.9293 191.561 21.1707 191.561 22.552C191.561 22.7573 191.552 22.944 191.533 23.112C191.533 23.28 191.524 23.4107 191.505 23.504H180.473C180.622 24.9227 181.117 25.9867 181.957 26.696C182.816 27.4053 183.786 27.76 184.869 27.76C185.84 27.76 186.642 27.5453 187.277 27.116C187.912 26.668 188.416 26.1173 188.789 25.464L191.281 26.668C190.665 27.788 189.825 28.7027 188.761 29.412C187.697 30.1027 186.372 30.448 184.785 30.448ZM184.645 17.848C183.637 17.848 182.778 18.156 182.069 18.772C181.36 19.388 180.884 20.2093 180.641 21.236H188.565C188.528 20.7507 188.369 20.2467 188.089 19.724C187.809 19.2013 187.38 18.7627 186.801 18.408C186.241 18.0347 185.522 17.848 184.645 17.848ZM199.215 30.448C198.431 30.448 197.647 30.3547 196.863 30.168C196.079 29.9813 195.342 29.664 194.651 29.216C193.979 28.7493 193.419 28.1053 192.971 27.284L195.379 25.884C195.902 26.612 196.499 27.116 197.171 27.396C197.862 27.6573 198.543 27.788 199.215 27.788C200.186 27.788 200.923 27.6013 201.427 27.228C201.931 26.8547 202.183 26.3693 202.183 25.772C202.183 25.2493 201.95 24.8293 201.483 24.512C201.035 24.176 200.401 24.008 199.579 24.008H197.255V21.628H199.579C200.289 21.628 200.83 21.46 201.203 21.124C201.595 20.788 201.791 20.3587 201.791 19.836C201.791 19.22 201.53 18.7347 201.007 18.38C200.485 18.0067 199.822 17.82 199.019 17.82C198.31 17.82 197.629 17.9693 196.975 18.268C196.322 18.548 195.827 18.9307 195.491 19.416L193.251 17.932C193.905 17.1107 194.726 16.4667 195.715 16C196.723 15.5147 197.834 15.272 199.047 15.272C200.093 15.272 201.035 15.4493 201.875 15.804C202.734 16.1587 203.406 16.6533 203.891 17.288C204.395 17.904 204.647 18.6227 204.647 19.444C204.647 20.1533 204.47 20.788 204.115 21.348C203.761 21.8893 203.294 22.3 202.715 22.58V22.748C203.443 23.0467 204.031 23.4947 204.479 24.092C204.927 24.6893 205.151 25.3707 205.151 26.136C205.151 26.976 204.909 27.7227 204.423 28.376C203.938 29.0107 203.247 29.5147 202.351 29.888C201.455 30.2613 200.41 30.448 199.215 30.448Z" fill="white"/>
<g id="GPay Logo (Dark)">
<g id="GPay">
<g id="Pay">
<path id="Fill 1" fill-rule="evenodd" clip-rule="evenodd" d="M256.529 9.34665V17.5128H261.565C262.765 17.5128 263.757 17.1096 264.541 16.3032C265.347 15.4988 265.75 14.5394 265.75 13.4288C265.75 12.3406 265.347 11.3924 264.541 10.586C263.757 9.75916 262.765 9.34479 261.565 9.34479H256.529V9.34665ZM256.529 20.3872V29.8599H253.521V6.47218H261.499C263.527 6.47218 265.248 7.14787 266.666 8.49738C268.105 9.84688 268.824 11.4913 268.824 13.4288C268.824 15.411 268.105 17.0667 266.666 18.3938C265.27 19.7227 263.547 20.3854 261.499 20.3854H256.529V20.3872Z" fill="white"/>
<path id="Fill 3" fill-rule="evenodd" clip-rule="evenodd" d="M271.864 24.9602C271.864 25.7442 272.197 26.3975 272.862 26.9201C273.527 27.4427 274.306 27.704 275.2 27.704C276.465 27.704 277.591 27.2354 278.584 26.3004C279.576 25.3634 280.071 24.264 280.071 23.0022C279.133 22.2612 277.825 21.8916 276.147 21.8916C274.925 21.8916 273.907 22.1866 273.09 22.7745C272.273 23.3623 271.864 24.0886 271.864 24.9602ZM275.756 13.3317C277.98 13.3317 279.735 13.9253 281.022 15.1124C282.308 16.2995 282.95 17.9271 282.95 19.9952V29.8599H280.073V27.6387H279.942C278.699 29.4677 277.042 30.3825 274.972 30.3825C273.206 30.3825 271.728 29.8599 270.541 28.8146C269.353 27.7694 268.759 26.4628 268.759 24.8949C268.759 23.2393 269.385 21.9232 270.638 20.9434C271.892 19.9635 273.565 19.4726 275.658 19.4726C277.444 19.4726 278.916 19.7993 280.071 20.4525V19.7657C280.071 18.7204 279.656 17.8338 278.829 17.104C277.999 16.3742 277.031 16.0102 275.919 16.0102C274.239 16.0102 272.911 16.7176 271.93 18.1343L269.28 16.4675C270.741 14.377 272.899 13.3317 275.756 13.3317Z" fill="white"/>
<path id="Fill 5" fill-rule="evenodd" clip-rule="evenodd" d="M299.463 13.8543L289.424 36.9154H286.318L290.046 28.8464L283.44 13.8543H286.71L291.484 25.3522H291.55L296.193 13.8543H299.463Z" fill="white"/>
</g>
<g id="G">
<path id="Fill 8" fill-rule="evenodd" clip-rule="evenodd" d="M244.373 18.3452C244.373 17.3989 244.293 16.4861 244.141 15.6126H231.454V20.7885H238.72C238.408 22.4757 237.465 23.9112 236.033 24.8725V28.2341H240.37C242.91 25.8935 244.373 22.4348 244.373 18.3452Z" fill="#4285F4"/>
<path id="Fill 10" fill-rule="evenodd" clip-rule="evenodd" d="M231.454 31.4782C235.084 31.4782 238.141 30.2873 240.37 28.2341L236.033 24.8725C234.826 25.6844 233.272 26.1585 231.454 26.1585C227.944 26.1585 224.966 23.7955 223.901 20.6112H219.433V24.0736C221.647 28.4637 226.197 31.4782 231.454 31.4782Z" fill="#34A853"/>
<path id="Fill 12" fill-rule="evenodd" clip-rule="evenodd" d="M223.901 20.6111C223.628 19.7992 223.479 18.9331 223.479 18.0391C223.479 17.145 223.628 16.2789 223.901 15.467V12.0045H219.433C218.518 13.8188 218 15.8683 218 18.0391C218 20.2098 218.518 22.2595 219.433 24.0736L223.901 20.6111Z" fill="#FABB05"/>
<path id="Fill 14" fill-rule="evenodd" clip-rule="evenodd" d="M231.454 9.91964C233.436 9.91964 235.213 10.6009 236.615 11.9355V11.9374L240.455 8.10163C238.123 5.93272 235.082 4.60001 231.454 4.60001C226.197 4.60001 221.647 7.61447 219.433 12.0046L223.901 15.467C224.966 12.2827 227.944 9.91964 231.454 9.91964Z" fill="#E94235"/>
</g>
</g>
</g>
</g>
</svg>
