<svg width="209" height="21" viewBox="0 0 209 21" fill="none" xmlns="http://www.w3.org/2000/svg">
<g id="ru_pay_with_Pay_NBG">
<path id="Left Text" d="M1.9335 15.0006V3.54461H5.8695C6.56283 3.54461 7.19216 3.69394 7.7575 3.99261C8.32283 4.28061 8.77083 4.69128 9.1015 5.22461C9.44283 5.74728 9.6135 6.35528 9.6135 7.04861C9.6135 7.73128 9.44283 8.33928 9.1015 8.87261C8.77083 9.40594 8.32283 9.82194 7.7575 10.1206C7.19216 10.4086 6.56283 10.5526 5.8695 10.5526H3.6935V15.0006H1.9335ZM3.6935 8.88861H5.9175C6.3335 8.88861 6.6855 8.80328 6.9735 8.63261C7.2615 8.45128 7.48016 8.22194 7.6295 7.94461C7.7895 7.65661 7.8695 7.35794 7.8695 7.04861C7.8695 6.73928 7.7895 6.44594 7.6295 6.16861C7.48016 5.89128 7.2615 5.66194 6.9735 5.48061C6.6855 5.29928 6.3335 5.20861 5.9175 5.20861H3.6935V8.88861ZM13.5274 15.2566C12.9407 15.2566 12.418 15.1393 11.9594 14.9046C11.5114 14.6699 11.154 14.3499 10.8874 13.9446C10.6314 13.5286 10.5034 13.0539 10.5034 12.5206C10.5034 11.9339 10.6527 11.4379 10.9514 11.0326C11.2607 10.6273 11.6714 10.3179 12.1834 10.1046C12.6954 9.89128 13.2607 9.78461 13.8794 9.78461C14.2207 9.78461 14.5354 9.81128 14.8234 9.86461C15.122 9.90728 15.378 9.96061 15.5914 10.0246C15.8154 10.0886 15.9914 10.1579 16.1194 10.2326V9.80061C16.1194 9.26728 15.9274 8.84061 15.5434 8.52061C15.1594 8.20061 14.6634 8.04061 14.0554 8.04061C13.6394 8.04061 13.2447 8.13661 12.8714 8.32861C12.498 8.50994 12.1994 8.76061 11.9754 9.08061L10.7914 8.16861C11.026 7.83794 11.3087 7.55528 11.6394 7.32061C11.9807 7.08594 12.3594 6.90461 12.7754 6.77661C13.202 6.64861 13.6447 6.58461 14.1034 6.58461C15.2874 6.58461 16.1994 6.87794 16.8394 7.46461C17.4794 8.04061 17.7994 8.85128 17.7994 9.89661V15.0006H16.1194V13.9926H16.0234C15.8847 14.2059 15.6927 14.4086 15.4474 14.6006C15.2127 14.7926 14.93 14.9473 14.5994 15.0646C14.2794 15.1926 13.922 15.2566 13.5274 15.2566ZM13.8314 13.8486C14.2794 13.8486 14.674 13.7419 15.0154 13.5286C15.3674 13.3153 15.6394 13.0379 15.8314 12.6966C16.0234 12.3446 16.1194 11.9659 16.1194 11.5606C15.8847 11.4219 15.5967 11.3099 15.2554 11.2246C14.9247 11.1286 14.5727 11.0806 14.1994 11.0806C13.4954 11.0806 12.994 11.2193 12.6954 11.4966C12.3967 11.7739 12.2474 12.1206 12.2474 12.5366C12.2474 12.9206 12.3914 13.2353 12.6794 13.4806C12.9674 13.7259 13.3514 13.8486 13.8314 13.8486ZM23.5496 15.2566C22.7283 15.2566 21.9976 15.0699 21.3576 14.6966C20.7283 14.3233 20.2323 13.8113 19.8696 13.1606C19.5176 12.4993 19.3416 11.7526 19.3416 10.9206C19.3416 10.0886 19.5176 9.34728 19.8696 8.69661C20.2323 8.04594 20.7283 7.53394 21.3576 7.16061C21.9976 6.77661 22.7283 6.58461 23.5496 6.58461C24.4563 6.58461 25.219 6.78728 25.8376 7.19261C26.467 7.59794 26.915 8.14728 27.1816 8.84061L25.6136 9.48061C25.4216 9.04328 25.1443 8.71794 24.7816 8.50461C24.4296 8.28061 24.0083 8.16861 23.5176 8.16861C23.0696 8.16861 22.659 8.28594 22.2856 8.52061C21.9123 8.74461 21.6136 9.05928 21.3896 9.46461C21.1656 9.86994 21.0536 10.3553 21.0536 10.9206C21.0536 11.4753 21.1656 11.9606 21.3896 12.3766C21.6136 12.7926 21.9123 13.1126 22.2856 13.3366C22.659 13.5606 23.0696 13.6726 23.5176 13.6726C24.0403 13.6726 24.483 13.5553 24.8456 13.3206C25.2083 13.0859 25.491 12.7553 25.6936 12.3286L27.2296 13.0006C26.931 13.6513 26.467 14.1899 25.8376 14.6166C25.219 15.0433 24.4563 15.2566 23.5496 15.2566ZM28.8611 15.0006V6.84061H36.0291V15.0006H34.3011V8.34461H30.5891V15.0006H28.8611ZM38.3266 15.1286C38.2093 15.1286 38.0866 15.1179 37.9586 15.0966C37.8413 15.0859 37.7293 15.0699 37.6226 15.0486V13.4486C37.6973 13.4806 37.7826 13.5073 37.8786 13.5286C37.9746 13.5499 38.0546 13.5606 38.1186 13.5606C38.4813 13.5606 38.7373 13.4219 38.8866 13.1446C39.036 12.8566 39.1266 12.4939 39.1586 12.0566C39.1906 11.6193 39.2066 11.1659 39.2066 10.6966V6.84061H45.4466V15.0006H43.7346V8.34461H40.8386V10.9686C40.8386 11.5126 40.8013 12.0353 40.7266 12.5366C40.652 13.0379 40.524 13.4859 40.3426 13.8806C40.172 14.2646 39.9213 14.5686 39.5906 14.7926C39.2706 15.0166 38.8493 15.1286 38.3266 15.1286ZM50.1117 15.2566C49.5251 15.2566 49.0024 15.1393 48.5437 14.9046C48.0957 14.6699 47.7384 14.3499 47.4717 13.9446C47.2157 13.5286 47.0877 13.0539 47.0877 12.5206C47.0877 11.9339 47.2371 11.4379 47.5357 11.0326C47.8451 10.6273 48.2557 10.3179 48.7677 10.1046C49.2797 9.89128 49.8451 9.78461 50.4637 9.78461C50.8051 9.78461 51.1197 9.81128 51.4077 9.86461C51.7064 9.90728 51.9624 9.96061 52.1757 10.0246C52.3997 10.0886 52.5757 10.1579 52.7037 10.2326V9.80061C52.7037 9.26728 52.5117 8.84061 52.1277 8.52061C51.7437 8.20061 51.2477 8.04061 50.6397 8.04061C50.2237 8.04061 49.8291 8.13661 49.4557 8.32861C49.0824 8.50994 48.7837 8.76061 48.5597 9.08061L47.3757 8.16861C47.6104 7.83794 47.8931 7.55528 48.2237 7.32061C48.5651 7.08594 48.9437 6.90461 49.3597 6.77661C49.7864 6.64861 50.2291 6.58461 50.6877 6.58461C51.8717 6.58461 52.7837 6.87794 53.4237 7.46461C54.0637 8.04061 54.3837 8.85128 54.3837 9.89661V15.0006H52.7037V13.9926H52.6077C52.4691 14.2059 52.2771 14.4086 52.0317 14.6006C51.7971 14.7926 51.5144 14.9473 51.1837 15.0646C50.8637 15.1926 50.5064 15.2566 50.1117 15.2566ZM50.4157 13.8486C50.8637 13.8486 51.2584 13.7419 51.5997 13.5286C51.9517 13.3153 52.2237 13.0379 52.4157 12.6966C52.6077 12.3446 52.7037 11.9659 52.7037 11.5606C52.4691 11.4219 52.1811 11.3099 51.8397 11.2246C51.5091 11.1286 51.1571 11.0806 50.7837 11.0806C50.0797 11.0806 49.5784 11.2193 49.2797 11.4966C48.9811 11.7739 48.8317 12.1206 48.8317 12.5366C48.8317 12.9206 48.9757 13.2353 49.2637 13.4806C49.5517 13.7259 49.9357 13.8486 50.4157 13.8486ZM58.2349 15.0006V8.34461H55.5469V6.84061H62.6349V8.34461H59.9469V15.0006H58.2349ZM64.1955 15.0006V6.84061H65.9235V11.0166L65.8275 12.5526H65.9235L70.0035 6.84061H71.7155V15.0006H70.0035V10.8406L70.0995 9.30461H70.0035L65.9235 15.0006H64.1955ZM75.9724 15.0006V8.34461H73.2844V6.84061H80.3724V8.34461H77.6844V15.0006H75.9724ZM83.661 6.84061V9.56061H85.533C86.0983 9.56061 86.5997 9.67794 87.037 9.91261C87.4743 10.1473 87.821 10.4726 88.077 10.8886C88.333 11.2939 88.461 11.7579 88.461 12.2806C88.461 12.7926 88.333 13.2566 88.077 13.6726C87.821 14.0886 87.4743 14.4139 87.037 14.6486C86.5997 14.8833 86.0983 15.0006 85.533 15.0006H81.933V6.84061H83.661ZM83.661 10.9846V13.5606H85.389C85.773 13.5606 86.093 13.4379 86.349 13.1926C86.605 12.9473 86.733 12.6433 86.733 12.2806C86.733 11.9179 86.605 11.6139 86.349 11.3686C86.093 11.1126 85.773 10.9846 85.389 10.9846H83.661ZM93.8277 15.2566C93.0064 15.2566 92.2757 15.0699 91.6357 14.6966C91.0064 14.3233 90.5104 13.8113 90.1477 13.1606C89.7957 12.4993 89.6197 11.7526 89.6197 10.9206C89.6197 10.0886 89.7957 9.34728 90.1477 8.69661C90.5104 8.04594 91.0064 7.53394 91.6357 7.16061C92.2757 6.77661 93.0064 6.58461 93.8277 6.58461C94.7344 6.58461 95.4971 6.78728 96.1157 7.19261C96.7451 7.59794 97.1931 8.14728 97.4597 8.84061L95.8917 9.48061C95.6997 9.04328 95.4224 8.71794 95.0597 8.50461C94.7077 8.28061 94.2864 8.16861 93.7957 8.16861C93.3477 8.16861 92.9371 8.28594 92.5637 8.52061C92.1904 8.74461 91.8917 9.05928 91.6677 9.46461C91.4437 9.86994 91.3317 10.3553 91.3317 10.9206C91.3317 11.4753 91.4437 11.9606 91.6677 12.3766C91.8917 12.7926 92.1904 13.1126 92.5637 13.3366C92.9371 13.5606 93.3477 13.6726 93.7957 13.6726C94.3184 13.6726 94.7611 13.5553 95.1237 13.3206C95.4864 13.0859 95.7691 12.7553 95.9717 12.3286L97.5077 13.0006C97.2091 13.6513 96.7451 14.1899 96.1157 14.6166C95.4971 15.0433 94.7344 15.2566 93.8277 15.2566ZM103.575 15.0006V12.2326H102.439L100.391 15.0006H98.455V14.9046L100.631 12.0726L100.599 11.9766C100.524 11.9553 100.455 11.9286 100.391 11.8966C99.9217 11.6619 99.5483 11.3419 99.271 10.9366C99.0043 10.5313 98.871 10.0726 98.871 9.56061C98.871 9.03794 98.999 8.57394 99.255 8.16861C99.511 7.75261 99.8577 7.42728 100.295 7.19261C100.743 6.95794 101.244 6.84061 101.799 6.84061H105.303V15.0006H103.575ZM103.575 10.8566V8.28061H101.927C101.554 8.28061 101.234 8.40328 100.967 8.64861C100.711 8.88328 100.583 9.18728 100.583 9.56061C100.583 9.93394 100.711 10.2433 100.967 10.4886C101.234 10.7339 101.554 10.8566 101.927 10.8566H103.575ZM116.049 15.0006V12.0566C115.825 12.2166 115.542 12.3446 115.201 12.4406C114.86 12.5259 114.486 12.5686 114.081 12.5686C113.142 12.5686 112.39 12.2966 111.825 11.7526C111.27 11.2086 110.993 10.4726 110.993 9.54461V6.84061H112.721V9.36861C112.721 9.88061 112.865 10.2859 113.153 10.5846C113.452 10.8726 113.868 11.0166 114.401 11.0166C114.721 11.0166 115.03 10.9686 115.329 10.8726C115.638 10.7659 115.878 10.6273 116.049 10.4566V6.84061H117.761V15.0006H116.049ZM123.598 15.2566C122.798 15.2566 122.084 15.0699 121.454 14.6966C120.825 14.3233 120.329 13.8113 119.966 13.1606C119.614 12.5099 119.438 11.7686 119.438 10.9366C119.438 10.1579 119.609 9.43794 119.95 8.77661C120.292 8.11528 120.766 7.58728 121.374 7.19261C121.993 6.78728 122.702 6.58461 123.502 6.58461C124.345 6.58461 125.06 6.76594 125.646 7.12861C126.244 7.49128 126.697 7.98728 127.006 8.61661C127.316 9.24594 127.47 9.95528 127.47 10.7446C127.47 10.8619 127.465 10.9686 127.454 11.0646C127.454 11.1606 127.449 11.2353 127.438 11.2886H121.134C121.177 11.7366 121.289 12.1259 121.47 12.4566C121.705 12.8726 122.014 13.1873 122.398 13.4006C122.782 13.6139 123.198 13.7206 123.646 13.7206C124.19 13.7206 124.644 13.5979 125.006 13.3526C125.38 13.0966 125.673 12.7819 125.886 12.4086L127.31 13.0966C126.958 13.7366 126.478 14.2593 125.87 14.6646C125.262 15.0593 124.505 15.2566 123.598 15.2566ZM121.23 9.99261H125.758C125.748 9.78994 125.694 9.57661 125.598 9.35261C125.502 9.11794 125.364 8.90461 125.182 8.71261C125.001 8.52061 124.772 8.36594 124.494 8.24861C124.217 8.12061 123.892 8.05661 123.518 8.05661C123.049 8.05661 122.633 8.17928 122.27 8.42461C121.908 8.65928 121.625 8.98994 121.422 9.41661C121.337 9.59794 121.273 9.78994 121.23 9.99261ZM129.208 18.4566V6.84061H130.824V7.94461H130.92C131.069 7.70994 131.266 7.49128 131.512 7.28861C131.768 7.07528 132.066 6.90461 132.408 6.77661C132.749 6.64861 133.128 6.58461 133.544 6.58461C134.29 6.58461 134.957 6.77128 135.544 7.14461C136.13 7.51794 136.594 8.02994 136.936 8.68061C137.288 9.33128 137.464 10.0779 137.464 10.9206C137.464 11.7633 137.288 12.5099 136.936 13.1606C136.594 13.8113 136.13 14.3233 135.544 14.6966C134.957 15.0699 134.29 15.2566 133.544 15.2566C132.925 15.2566 132.386 15.1179 131.928 14.8406C131.469 14.5633 131.133 14.2539 130.92 13.9126H130.824L130.92 15.0486V18.4566H129.208ZM133.288 13.6726C133.714 13.6726 134.114 13.5606 134.488 13.3366C134.872 13.1126 135.176 12.7926 135.4 12.3766C135.634 11.9606 135.752 11.4753 135.752 10.9206C135.752 10.3553 135.634 9.86994 135.4 9.46461C135.176 9.04861 134.872 8.72861 134.488 8.50461C134.114 8.28061 133.714 8.16861 133.288 8.16861C132.861 8.16861 132.461 8.28061 132.088 8.50461C131.714 8.72861 131.41 9.04861 131.176 9.46461C130.941 9.86994 130.824 10.3553 130.824 10.9206C130.824 11.4859 130.941 11.9766 131.176 12.3926C131.41 12.7979 131.714 13.1126 132.088 13.3366C132.461 13.5606 132.861 13.6726 133.288 13.6726ZM142.898 15.2566C142.098 15.2566 141.384 15.0699 140.754 14.6966C140.125 14.3233 139.629 13.8113 139.266 13.1606C138.914 12.5099 138.738 11.7686 138.738 10.9366C138.738 10.1579 138.909 9.43794 139.25 8.77661C139.592 8.11528 140.066 7.58728 140.674 7.19261C141.293 6.78728 142.002 6.58461 142.802 6.58461C143.645 6.58461 144.36 6.76594 144.946 7.12861C145.544 7.49128 145.997 7.98728 146.306 8.61661C146.616 9.24594 146.77 9.95528 146.77 10.7446C146.77 10.8619 146.765 10.9686 146.754 11.0646C146.754 11.1606 146.749 11.2353 146.738 11.2886H140.434C140.477 11.7366 140.589 12.1259 140.77 12.4566C141.005 12.8726 141.314 13.1873 141.698 13.4006C142.082 13.6139 142.498 13.7206 142.946 13.7206C143.49 13.7206 143.944 13.5979 144.306 13.3526C144.68 13.0966 144.973 12.7819 145.186 12.4086L146.61 13.0966C146.258 13.7366 145.778 14.2593 145.17 14.6646C144.562 15.0593 143.805 15.2566 142.898 15.2566ZM140.53 9.99261H145.058C145.048 9.78994 144.994 9.57661 144.898 9.35261C144.802 9.11794 144.664 8.90461 144.482 8.71261C144.301 8.52061 144.072 8.36594 143.794 8.24861C143.517 8.12061 143.192 8.05661 142.818 8.05661C142.349 8.05661 141.933 8.17928 141.57 8.42461C141.208 8.65928 140.925 8.98994 140.722 9.41661C140.637 9.59794 140.573 9.78994 140.53 9.99261ZM151.123 15.2566C150.686 15.2566 150.238 15.2033 149.779 15.0966C149.331 14.9899 148.915 14.8086 148.531 14.5526C148.147 14.2859 147.822 13.9179 147.555 13.4486L148.931 12.6486C149.23 13.0646 149.571 13.3526 149.955 13.5126C150.35 13.6619 150.739 13.7366 151.123 13.7366C151.678 13.7366 152.099 13.6299 152.387 13.4166C152.675 13.2033 152.819 12.9259 152.819 12.5846C152.819 12.2859 152.686 12.0459 152.419 11.8646C152.163 11.6726 151.8 11.5766 151.331 11.5766H150.003V10.2166H151.331C151.736 10.2166 152.046 10.1206 152.259 9.92861C152.483 9.73661 152.595 9.49128 152.595 9.19261C152.595 8.84061 152.446 8.56328 152.147 8.36061C151.848 8.14728 151.47 8.04061 151.011 8.04061C150.606 8.04061 150.216 8.12594 149.843 8.29661C149.47 8.45661 149.187 8.67528 148.995 8.95261L147.715 8.10461C147.96 7.78461 148.254 7.51261 148.595 7.28861C148.936 7.06461 149.31 6.89394 149.715 6.77661C150.131 6.64861 150.568 6.58461 151.027 6.58461C151.635 6.58461 152.179 6.68594 152.659 6.88861C153.139 7.09128 153.518 7.37394 153.795 7.73661C154.083 8.08861 154.227 8.49928 154.227 8.96861C154.227 9.37394 154.126 9.73661 153.923 10.0566C153.72 10.3766 153.454 10.6113 153.123 10.7606V10.8566C153.539 11.0273 153.875 11.2833 154.131 11.6246C154.387 11.9659 154.515 12.3553 154.515 12.7926C154.515 13.2726 154.371 13.6993 154.083 14.0726C153.806 14.4459 153.411 14.7393 152.899 14.9526C152.398 15.1553 151.806 15.2566 151.123 15.2566Z" fill="white"/>
<g id="GPay (Dark)">
<g id="GPay">
<g id="Pay">
<path id="Fill 1" fill-rule="evenodd" clip-rule="evenodd" d="M183.356 3.42339V8.16175H186.278C186.974 8.16175 187.55 7.92781 188.005 7.45993C188.473 6.99313 188.707 6.43644 188.707 5.79203C188.707 5.16061 188.473 4.61041 188.005 4.14254C187.55 3.66274 186.974 3.4223 186.278 3.4223H183.356V3.42339ZM183.356 9.82966V15.3262H181.611V1.75549H186.24C187.417 1.75549 188.415 2.14756 189.238 2.93061C190.073 3.71365 190.491 4.66782 190.491 5.79203C190.491 6.94224 190.073 7.90291 189.238 8.67296C188.428 9.44409 187.429 9.82858 186.24 9.82858H183.356V9.82966Z" fill="white"/>
<path id="Fill 3" fill-rule="evenodd" clip-rule="evenodd" d="M192.255 12.4831C192.255 12.9379 192.448 13.317 192.834 13.6203C193.22 13.9235 193.672 14.0752 194.19 14.0752C194.924 14.0752 195.578 13.8032 196.153 13.2607C196.729 12.717 197.017 12.0791 197.017 11.3469C196.472 10.917 195.713 10.7025 194.74 10.7025C194.031 10.7025 193.44 10.8736 192.966 11.2148C192.492 11.5559 192.255 11.9773 192.255 12.4831M194.513 5.73566C195.803 5.73566 196.821 6.08007 197.569 6.76889C198.314 7.45771 198.687 8.40213 198.687 9.60216V15.3261H197.018V14.0373H196.942C196.221 15.0985 195.259 15.6294 194.058 15.6294C193.033 15.6294 192.176 15.3261 191.487 14.7196C190.797 14.1131 190.453 13.3549 190.453 12.4452C190.453 11.4845 190.816 10.7208 191.543 10.1523C192.271 9.58375 193.241 9.2989 194.456 9.2989C195.492 9.2989 196.346 9.48844 197.017 9.86751V9.46894C197.017 8.86243 196.776 8.34798 196.296 7.92451C195.814 7.50103 195.252 7.28984 194.607 7.28984C193.633 7.28984 192.862 7.70032 192.293 8.52235L190.755 7.55519C191.603 6.34217 192.855 5.73566 194.513 5.73566" fill="white"/>
<path id="Fill 5" fill-rule="evenodd" clip-rule="evenodd" d="M208.269 6.03894L202.443 19.4201H200.641L202.804 14.738L198.971 6.03894H200.869L203.639 12.7106H203.677L206.371 6.03894H208.269Z" fill="white"/>
</g>
<g id="G">
<path id="Fill 8" fill-rule="evenodd" clip-rule="evenodd" d="M176.303 8.64473C176.303 8.09563 176.256 7.56601 176.168 7.05914H168.806V10.0625H173.023C172.842 11.0414 172.294 11.8744 171.464 12.4322V14.3828H173.98C175.454 13.0246 176.303 11.0177 176.303 8.64473" fill="#4285F4"/>
<path id="Fill 10" fill-rule="evenodd" clip-rule="evenodd" d="M168.806 16.2651C170.913 16.2651 172.687 15.5741 173.98 14.3828L171.464 12.4322C170.764 12.9033 169.861 13.1784 168.806 13.1784C166.77 13.1784 165.042 11.8073 164.424 9.95959H161.832V11.9687C163.116 14.516 165.757 16.2651 168.806 16.2651" fill="#34A853"/>
<path id="Fill 12" fill-rule="evenodd" clip-rule="evenodd" d="M164.424 9.9596C164.266 9.48847 164.179 8.98593 164.179 8.46715C164.179 7.94837 164.266 7.44583 164.424 6.9747V4.96564H161.832C161.3 6.01837 161 7.20756 161 8.46715C161 9.72674 161.3 10.916 161.832 11.9687L164.424 9.9596Z" fill="#FABB05"/>
<path id="Fill 14" fill-rule="evenodd" clip-rule="evenodd" d="M168.806 3.75583C169.957 3.75583 170.988 4.15115 171.801 4.92553V4.92661L174.029 2.70094C172.676 1.44243 170.912 0.669128 168.806 0.669128C165.757 0.669128 163.116 2.41826 161.832 4.9656L164.424 6.97467C165.042 5.12698 166.77 3.75583 168.806 3.75583" fill="#E94235"/>
</g>
</g>
</g>
</g>
</svg>
