<svg width="204" height="21" viewBox="0 0 204 21" fill="none" xmlns="http://www.w3.org/2000/svg">
<g id="ru_subscribe_with_Pay_NBG">
<path id="Left Text" d="M1.59913 15.0006V3.54461H10.2391V15.0006H8.47913V5.20861H3.35913V15.0006H1.59913ZM16.5355 15.2566C15.6928 15.2566 14.9515 15.0646 14.3115 14.6806C13.6715 14.2966 13.1702 13.7793 12.8075 13.1286C12.4448 12.4673 12.2635 11.7313 12.2635 10.9206C12.2635 10.1099 12.4448 9.37928 12.8075 8.72861C13.1702 8.06728 13.6715 7.54461 14.3115 7.16061C14.9515 6.77661 15.6928 6.58461 16.5355 6.58461C17.3675 6.58461 18.1035 6.78194 18.7435 7.17661C19.3835 7.56061 19.8848 8.07794 20.2475 8.72861C20.6102 9.37928 20.7915 10.1099 20.7915 10.9206C20.7915 11.7313 20.6102 12.4673 20.2475 13.1286C19.8848 13.7793 19.3835 14.2966 18.7435 14.6806C18.1035 15.0646 17.3675 15.2566 16.5355 15.2566ZM16.5355 13.6726C16.9835 13.6726 17.3995 13.5659 17.7835 13.3526C18.1675 13.1286 18.4768 12.8139 18.7115 12.4086C18.9568 11.9926 19.0795 11.4966 19.0795 10.9206C19.0795 10.3446 18.9568 9.85394 18.7115 9.44861C18.4768 9.03261 18.1675 8.71794 17.7835 8.50461C17.3995 8.28061 16.9835 8.16861 16.5355 8.16861C16.0875 8.16861 15.6662 8.28061 15.2715 8.50461C14.8875 8.71794 14.5728 9.03261 14.3275 9.44861C14.0928 9.85394 13.9755 10.3446 13.9755 10.9206C13.9755 11.4966 14.0928 11.9926 14.3275 12.4086C14.5728 12.8139 14.8928 13.1286 15.2875 13.3526C15.6822 13.5659 16.0982 13.6726 16.5355 13.6726ZM21.5496 17.4326V13.4966H22.4456C22.6163 13.2833 22.771 12.9899 22.9096 12.6166C23.0483 12.2433 23.155 11.8166 23.2296 11.3366C23.3043 10.8566 23.3416 10.3713 23.3416 9.88061V6.84061H29.4536V13.4966H30.6376V17.4326H29.0536V15.0006H23.1496V17.4326H21.5496ZM24.3016 13.4966H27.7416V8.34461H24.9736V10.0246C24.9736 10.5153 24.947 10.9633 24.8936 11.3686C24.851 11.7739 24.7763 12.1419 24.6696 12.4726C24.5736 12.8033 24.451 13.1126 24.3016 13.4006V13.4966ZM32.3236 15.0006V6.84061H39.4916V15.0006H37.7636V8.34461H34.0516V15.0006H32.3236ZM41.6611 15.0006V6.84061H43.3891V11.0166L43.2931 12.5526H43.3891L47.4691 6.84061H49.1811V15.0006H47.4691V10.8406L47.5651 9.30461H47.4691L43.3891 15.0006H41.6611ZM55.0559 15.2566C54.2345 15.2566 53.5039 15.0699 52.8639 14.6966C52.2345 14.3233 51.7385 13.8113 51.3759 13.1606C51.0239 12.4993 50.8479 11.7526 50.8479 10.9206C50.8479 10.0886 51.0239 9.34728 51.3759 8.69661C51.7385 8.04594 52.2345 7.53394 52.8639 7.16061C53.5039 6.77661 54.2345 6.58461 55.0559 6.58461C55.9625 6.58461 56.7252 6.78728 57.3439 7.19261C57.9732 7.59794 58.4212 8.14728 58.6879 8.84061L57.1199 9.48061C56.9279 9.04328 56.6505 8.71794 56.2879 8.50461C55.9359 8.28061 55.5145 8.16861 55.0239 8.16861C54.5759 8.16861 54.1652 8.28594 53.7919 8.52061C53.4185 8.74461 53.1199 9.05928 52.8959 9.46461C52.6719 9.86994 52.5599 10.3553 52.5599 10.9206C52.5599 11.4753 52.6719 11.9606 52.8959 12.3766C53.1199 12.7926 53.4185 13.1126 53.7919 13.3366C54.1652 13.5606 54.5759 13.6726 55.0239 13.6726C55.5465 13.6726 55.9892 13.5553 56.3519 13.3206C56.7145 13.0859 56.9972 12.7553 57.1999 12.3286L58.7359 13.0006C58.4372 13.6513 57.9732 14.1899 57.3439 14.6166C56.7252 15.0433 55.9625 15.2566 55.0559 15.2566ZM62.8493 15.2566C62.2626 15.2566 61.7399 15.1393 61.2813 14.9046C60.8333 14.6699 60.4759 14.3499 60.2093 13.9446C59.9533 13.5286 59.8253 13.0539 59.8253 12.5206C59.8253 11.9339 59.9746 11.4379 60.2733 11.0326C60.5826 10.6273 60.9933 10.3179 61.5053 10.1046C62.0173 9.89128 62.5826 9.78461 63.2013 9.78461C63.5426 9.78461 63.8573 9.81128 64.1453 9.86461C64.4439 9.90728 64.6999 9.96061 64.9133 10.0246C65.1373 10.0886 65.3133 10.1579 65.4413 10.2326V9.80061C65.4413 9.26728 65.2493 8.84061 64.8653 8.52061C64.4813 8.20061 63.9853 8.04061 63.3773 8.04061C62.9613 8.04061 62.5666 8.13661 62.1933 8.32861C61.8199 8.50994 61.5213 8.76061 61.2973 9.08061L60.1133 8.16861C60.3479 7.83794 60.6306 7.55528 60.9613 7.32061C61.3026 7.08594 61.6813 6.90461 62.0973 6.77661C62.5239 6.64861 62.9666 6.58461 63.4253 6.58461C64.6093 6.58461 65.5213 6.87794 66.1613 7.46461C66.8013 8.04061 67.1213 8.85128 67.1213 9.89661V15.0006H65.4413V13.9926H65.3453C65.2066 14.2059 65.0146 14.4086 64.7693 14.6006C64.5346 14.7926 64.2519 14.9473 63.9213 15.0646C63.6013 15.1926 63.2439 15.2566 62.8493 15.2566ZM63.1533 13.8486C63.6013 13.8486 63.9959 13.7419 64.3373 13.5286C64.6893 13.3153 64.9613 13.0379 65.1533 12.6966C65.3453 12.3446 65.4413 11.9659 65.4413 11.5606C65.2066 11.4219 64.9186 11.3099 64.5773 11.2246C64.2466 11.1286 63.8946 11.0806 63.5213 11.0806C62.8173 11.0806 62.3159 11.2193 62.0173 11.4966C61.7186 11.7739 61.5693 12.1206 61.5693 12.5366C61.5693 12.9206 61.7133 13.2353 62.0013 13.4806C62.2893 13.7259 62.6733 13.8486 63.1533 13.8486ZM70.9724 15.0006V8.34461H68.2844V6.84061H75.3724V8.34461H72.6844V15.0006H70.9724ZM78.661 6.84061V9.56061H80.533C81.0983 9.56061 81.5997 9.67794 82.037 9.91261C82.4743 10.1473 82.821 10.4726 83.077 10.8886C83.333 11.2939 83.461 11.7579 83.461 12.2806C83.461 12.7926 83.333 13.2566 83.077 13.6726C82.821 14.0886 82.4743 14.4139 82.037 14.6486C81.5997 14.8833 81.0983 15.0006 80.533 15.0006H76.933V6.84061H78.661ZM78.661 10.9846V13.5606H80.389C80.773 13.5606 81.093 13.4379 81.349 13.1926C81.605 12.9473 81.733 12.6433 81.733 12.2806C81.733 11.9179 81.605 11.6139 81.349 11.3686C81.093 11.1126 80.773 10.9846 80.389 10.9846H78.661ZM88.8278 15.2566C88.0064 15.2566 87.2758 15.0699 86.6358 14.6966C86.0064 14.3233 85.5104 13.8113 85.1478 13.1606C84.7958 12.4993 84.6198 11.7526 84.6198 10.9206C84.6198 10.0886 84.7958 9.34728 85.1478 8.69661C85.5104 8.04594 86.0064 7.53394 86.6358 7.16061C87.2758 6.77661 88.0064 6.58461 88.8278 6.58461C89.7344 6.58461 90.4971 6.78728 91.1158 7.19261C91.7451 7.59794 92.1931 8.14728 92.4598 8.84061L90.8918 9.48061C90.6998 9.04328 90.4224 8.71794 90.0598 8.50461C89.7078 8.28061 89.2864 8.16861 88.7958 8.16861C88.3478 8.16861 87.9371 8.28594 87.5638 8.52061C87.1904 8.74461 86.8918 9.05928 86.6678 9.46461C86.4438 9.86994 86.3318 10.3553 86.3318 10.9206C86.3318 11.4753 86.4438 11.9606 86.6678 12.3766C86.8918 12.7926 87.1904 13.1126 87.5638 13.3366C87.9371 13.5606 88.3478 13.6726 88.7958 13.6726C89.3184 13.6726 89.7611 13.5553 90.1238 13.3206C90.4864 13.0859 90.7691 12.7553 90.9718 12.3286L92.5078 13.0006C92.2091 13.6513 91.7451 14.1899 91.1158 14.6166C90.4971 15.0433 89.7344 15.2566 88.8278 15.2566ZM98.575 15.0006V12.2326H97.439L95.391 15.0006H93.455V14.9046L95.631 12.0726L95.599 11.9766C95.5243 11.9553 95.455 11.9286 95.391 11.8966C94.9217 11.6619 94.5483 11.3419 94.271 10.9366C94.0043 10.5313 93.871 10.0726 93.871 9.56061C93.871 9.03794 93.999 8.57394 94.255 8.16861C94.511 7.75261 94.8577 7.42728 95.295 7.19261C95.743 6.95794 96.2443 6.84061 96.799 6.84061H100.303V15.0006H98.575ZM98.575 10.8566V8.28061H96.927C96.5537 8.28061 96.2337 8.40328 95.967 8.64861C95.711 8.88328 95.583 9.18728 95.583 9.56061C95.583 9.93394 95.711 10.2433 95.967 10.4886C96.2337 10.7339 96.5537 10.8566 96.927 10.8566H98.575ZM111.049 15.0006V12.0566C110.825 12.2166 110.542 12.3446 110.201 12.4406C109.86 12.5259 109.486 12.5686 109.081 12.5686C108.142 12.5686 107.39 12.2966 106.825 11.7526C106.27 11.2086 105.993 10.4726 105.993 9.54461V6.84061H107.721V9.36861C107.721 9.88061 107.865 10.2859 108.153 10.5846C108.452 10.8726 108.868 11.0166 109.401 11.0166C109.721 11.0166 110.03 10.9686 110.329 10.8726C110.638 10.7659 110.878 10.6273 111.049 10.4566V6.84061H112.761V15.0006H111.049ZM118.599 15.2566C117.799 15.2566 117.084 15.0699 116.455 14.6966C115.825 14.3233 115.329 13.8113 114.967 13.1606C114.615 12.5099 114.439 11.7686 114.439 10.9366C114.439 10.1579 114.609 9.43794 114.951 8.77661C115.292 8.11528 115.767 7.58728 116.375 7.19261C116.993 6.78728 117.703 6.58461 118.503 6.58461C119.345 6.58461 120.06 6.76594 120.647 7.12861C121.244 7.49128 121.697 7.98728 122.007 8.61661C122.316 9.24594 122.471 9.95528 122.471 10.7446C122.471 10.8619 122.465 10.9686 122.455 11.0646C122.455 11.1606 122.449 11.2353 122.439 11.2886H116.135C116.177 11.7366 116.289 12.1259 116.471 12.4566C116.705 12.8726 117.015 13.1873 117.399 13.4006C117.783 13.6139 118.199 13.7206 118.647 13.7206C119.191 13.7206 119.644 13.5979 120.007 13.3526C120.38 13.0966 120.673 12.7819 120.887 12.4086L122.311 13.0966C121.959 13.7366 121.479 14.2593 120.871 14.6646C120.263 15.0593 119.505 15.2566 118.599 15.2566ZM116.231 9.99261H120.759C120.748 9.78994 120.695 9.57661 120.599 9.35261C120.503 9.11794 120.364 8.90461 120.183 8.71261C120.001 8.52061 119.772 8.36594 119.495 8.24861C119.217 8.12061 118.892 8.05661 118.519 8.05661C118.049 8.05661 117.633 8.17928 117.271 8.42461C116.908 8.65928 116.625 8.98994 116.423 9.41661C116.337 9.59794 116.273 9.78994 116.231 9.99261ZM124.208 18.4566V6.84061H125.824V7.94461H125.92C126.069 7.70994 126.266 7.49128 126.512 7.28861C126.768 7.07528 127.066 6.90461 127.408 6.77661C127.749 6.64861 128.128 6.58461 128.544 6.58461C129.29 6.58461 129.957 6.77128 130.544 7.14461C131.13 7.51794 131.594 8.02994 131.936 8.68061C132.288 9.33128 132.464 10.0779 132.464 10.9206C132.464 11.7633 132.288 12.5099 131.936 13.1606C131.594 13.8113 131.13 14.3233 130.544 14.6966C129.957 15.0699 129.29 15.2566 128.544 15.2566C127.925 15.2566 127.386 15.1179 126.928 14.8406C126.469 14.5633 126.133 14.2539 125.92 13.9126H125.824L125.92 15.0486V18.4566H124.208ZM128.288 13.6726C128.714 13.6726 129.114 13.5606 129.488 13.3366C129.872 13.1126 130.176 12.7926 130.4 12.3766C130.634 11.9606 130.752 11.4753 130.752 10.9206C130.752 10.3553 130.634 9.86994 130.4 9.46461C130.176 9.04861 129.872 8.72861 129.488 8.50461C129.114 8.28061 128.714 8.16861 128.288 8.16861C127.861 8.16861 127.461 8.28061 127.088 8.50461C126.714 8.72861 126.41 9.04861 126.176 9.46461C125.941 9.86994 125.824 10.3553 125.824 10.9206C125.824 11.4859 125.941 11.9766 126.176 12.3926C126.41 12.7979 126.714 13.1126 127.088 13.3366C127.461 13.5606 127.861 13.6726 128.288 13.6726ZM137.899 15.2566C137.099 15.2566 136.384 15.0699 135.755 14.6966C135.125 14.3233 134.629 13.8113 134.267 13.1606C133.915 12.5099 133.739 11.7686 133.739 10.9366C133.739 10.1579 133.909 9.43794 134.251 8.77661C134.592 8.11528 135.067 7.58728 135.675 7.19261C136.293 6.78728 137.003 6.58461 137.803 6.58461C138.645 6.58461 139.36 6.76594 139.947 7.12861C140.544 7.49128 140.997 7.98728 141.307 8.61661C141.616 9.24594 141.771 9.95528 141.771 10.7446C141.771 10.8619 141.765 10.9686 141.755 11.0646C141.755 11.1606 141.749 11.2353 141.739 11.2886H135.435C135.477 11.7366 135.589 12.1259 135.771 12.4566C136.005 12.8726 136.315 13.1873 136.699 13.4006C137.083 13.6139 137.499 13.7206 137.947 13.7206C138.491 13.7206 138.944 13.5979 139.307 13.3526C139.68 13.0966 139.973 12.7819 140.187 12.4086L141.611 13.0966C141.259 13.7366 140.779 14.2593 140.171 14.6646C139.563 15.0593 138.805 15.2566 137.899 15.2566ZM135.531 9.99261H140.059C140.048 9.78994 139.995 9.57661 139.899 9.35261C139.803 9.11794 139.664 8.90461 139.483 8.71261C139.301 8.52061 139.072 8.36594 138.795 8.24861C138.517 8.12061 138.192 8.05661 137.819 8.05661C137.349 8.05661 136.933 8.17928 136.571 8.42461C136.208 8.65928 135.925 8.98994 135.723 9.41661C135.637 9.59794 135.573 9.78994 135.531 9.99261ZM146.123 15.2566C145.686 15.2566 145.238 15.2033 144.779 15.0966C144.331 14.9899 143.915 14.8086 143.531 14.5526C143.147 14.2859 142.822 13.9179 142.555 13.4486L143.931 12.6486C144.23 13.0646 144.571 13.3526 144.955 13.5126C145.35 13.6619 145.739 13.7366 146.123 13.7366C146.678 13.7366 147.099 13.6299 147.387 13.4166C147.675 13.2033 147.819 12.9259 147.819 12.5846C147.819 12.2859 147.686 12.0459 147.419 11.8646C147.163 11.6726 146.8 11.5766 146.331 11.5766H145.003V10.2166H146.331C146.736 10.2166 147.046 10.1206 147.259 9.92861C147.483 9.73661 147.595 9.49128 147.595 9.19261C147.595 8.84061 147.446 8.56328 147.147 8.36061C146.848 8.14728 146.47 8.04061 146.011 8.04061C145.606 8.04061 145.216 8.12594 144.843 8.29661C144.47 8.45661 144.187 8.67528 143.995 8.95261L142.715 8.10461C142.96 7.78461 143.254 7.51261 143.595 7.28861C143.936 7.06461 144.31 6.89394 144.715 6.77661C145.131 6.64861 145.568 6.58461 146.027 6.58461C146.635 6.58461 147.179 6.68594 147.659 6.88861C148.139 7.09128 148.518 7.37394 148.795 7.73661C149.083 8.08861 149.227 8.49928 149.227 8.96861C149.227 9.37394 149.126 9.73661 148.923 10.0566C148.72 10.3766 148.454 10.6113 148.123 10.7606V10.8566C148.539 11.0273 148.875 11.2833 149.131 11.6246C149.387 11.9659 149.515 12.3553 149.515 12.7926C149.515 13.2726 149.371 13.6993 149.083 14.0726C148.806 14.4459 148.411 14.7393 147.899 14.9526C147.398 15.1553 146.806 15.2566 146.123 15.2566Z" fill="white"/>
<g id="GPay (Dark)">
<g id="GPay">
<g id="Pay">
<path id="Fill 1" fill-rule="evenodd" clip-rule="evenodd" d="M178.356 3.42339V8.16175H181.278C181.974 8.16175 182.55 7.92781 183.005 7.45993C183.473 6.99313 183.707 6.43644 183.707 5.79203C183.707 5.16061 183.473 4.61041 183.005 4.14254C182.55 3.66274 181.974 3.4223 181.278 3.4223H178.356V3.42339ZM178.356 9.82966V15.3262H176.611V1.75549H181.24C182.417 1.75549 183.415 2.14756 184.238 2.93061C185.073 3.71365 185.491 4.66782 185.491 5.79203C185.491 6.94224 185.073 7.90291 184.238 8.67296C183.428 9.44409 182.429 9.82858 181.24 9.82858H178.356V9.82966Z" fill="white"/>
<path id="Fill 3" fill-rule="evenodd" clip-rule="evenodd" d="M187.255 12.4831C187.255 12.9379 187.448 13.317 187.834 13.6203C188.22 13.9235 188.672 14.0752 189.19 14.0752C189.924 14.0752 190.578 13.8032 191.153 13.2607C191.729 12.717 192.017 12.0791 192.017 11.3469C191.472 10.917 190.713 10.7025 189.74 10.7025C189.031 10.7025 188.44 10.8736 187.966 11.2148C187.492 11.5559 187.255 11.9773 187.255 12.4831M189.513 5.73566C190.803 5.73566 191.821 6.08007 192.569 6.76889C193.314 7.45771 193.687 8.40213 193.687 9.60216V15.3261H192.018V14.0373H191.942C191.221 15.0985 190.259 15.6294 189.058 15.6294C188.033 15.6294 187.176 15.3261 186.487 14.7196C185.797 14.1131 185.453 13.3549 185.453 12.4452C185.453 11.4845 185.816 10.7208 186.543 10.1523C187.271 9.58375 188.241 9.2989 189.456 9.2989C190.492 9.2989 191.346 9.48844 192.017 9.86751V9.46894C192.017 8.86243 191.776 8.34798 191.296 7.92451C190.814 7.50103 190.252 7.28984 189.607 7.28984C188.633 7.28984 187.862 7.70032 187.293 8.52235L185.755 7.55519C186.603 6.34217 187.855 5.73566 189.513 5.73566" fill="white"/>
<path id="Fill 5" fill-rule="evenodd" clip-rule="evenodd" d="M203.269 6.03894L197.443 19.4201H195.641L197.804 14.738L193.971 6.03894H195.869L198.639 12.7106H198.677L201.371 6.03894H203.269Z" fill="white"/>
</g>
<g id="G">
<path id="Fill 8" fill-rule="evenodd" clip-rule="evenodd" d="M171.303 8.64473C171.303 8.09563 171.256 7.56601 171.168 7.05914H163.806V10.0625H168.023C167.842 11.0414 167.294 11.8744 166.464 12.4322V14.3828H168.98C170.454 13.0246 171.303 11.0177 171.303 8.64473" fill="#4285F4"/>
<path id="Fill 10" fill-rule="evenodd" clip-rule="evenodd" d="M163.806 16.2651C165.913 16.2651 167.687 15.5741 168.98 14.3828L166.464 12.4322C165.764 12.9033 164.861 13.1784 163.806 13.1784C161.77 13.1784 160.042 11.8073 159.424 9.95959H156.832V11.9687C158.116 14.516 160.757 16.2651 163.806 16.2651" fill="#34A853"/>
<path id="Fill 12" fill-rule="evenodd" clip-rule="evenodd" d="M159.424 9.9596C159.266 9.48847 159.179 8.98593 159.179 8.46715C159.179 7.94837 159.266 7.44583 159.424 6.9747V4.96564H156.832C156.3 6.01837 156 7.20756 156 8.46715C156 9.72674 156.3 10.916 156.832 11.9687L159.424 9.9596Z" fill="#FABB05"/>
<path id="Fill 14" fill-rule="evenodd" clip-rule="evenodd" d="M163.806 3.75583C164.957 3.75583 165.988 4.15115 166.801 4.92553V4.92661L169.029 2.70094C167.676 1.44243 165.912 0.669128 163.806 0.669128C160.757 0.669128 158.116 2.41826 156.832 4.9656L159.424 6.97467C160.042 5.12698 161.77 3.75583 163.806 3.75583" fill="#E94235"/>
</g>
</g>
</g>
</g>
</svg>
