<svg width="358" height="38" viewBox="0 0 358 38" fill="none" xmlns="http://www.w3.org/2000/svg">
<g id="ru_subscribe_with_Light">
<path id="Text" d="M3.69848 30V9.952H18.8185V30H15.7385V12.864H6.77848V30H3.69848ZM29.8746 30.448C28.4 30.448 27.1026 30.112 25.9826 29.44C24.8626 28.768 23.9853 27.8627 23.3506 26.724C22.716 25.5853 22.3986 24.2973 22.3986 22.86C22.3986 21.4413 22.716 20.1627 23.3506 19.024C23.9853 17.8667 24.8626 16.952 25.9826 16.28C27.1026 15.608 28.4 15.272 29.8746 15.272C31.3306 15.272 32.6186 15.608 33.7386 16.28C34.8586 16.952 35.736 17.8667 36.3706 19.024C37.0053 20.1627 37.3226 21.4413 37.3226 22.86C37.3226 24.2973 37.0053 25.5853 36.3706 26.724C35.736 27.8627 34.8586 28.768 33.7386 29.44C32.6186 30.112 31.3306 30.448 29.8746 30.448ZM29.8746 27.676C30.6586 27.676 31.3866 27.4893 32.0586 27.116C32.7306 26.724 33.272 26.1733 33.6826 25.464C34.112 24.736 34.3266 23.868 34.3266 22.86C34.3266 21.852 34.112 20.9933 33.6826 20.284C33.272 19.556 32.7306 19.0053 32.0586 18.632C31.3866 18.24 30.6586 18.044 29.8746 18.044C29.0906 18.044 28.3533 18.24 27.6626 18.632C26.9906 19.0053 26.44 19.556 26.0106 20.284C25.6 20.9933 25.3946 21.852 25.3946 22.86C25.3946 23.868 25.6 24.736 26.0106 25.464C26.44 26.1733 26.9906 26.724 27.6626 27.116C28.3533 27.4893 29.0906 27.676 29.8746 27.676ZM38.6869 34.256V27.368H40.2549C40.5535 27.0133 40.8149 26.5093 41.0389 25.856C41.2815 25.184 41.4682 24.428 41.5989 23.588C41.7482 22.748 41.8229 21.8987 41.8229 21.04V15.72H52.5189V27.368H54.5909V34.256H51.8189V30H41.4869V34.256H38.6869ZM43.5029 27.368H49.5229V18.352H44.6789V21.292C44.6789 22.5987 44.5855 23.728 44.3989 24.68C44.2122 25.6133 43.9135 26.4533 43.5029 27.2V27.368ZM57.5789 30V15.72H70.1229V30H67.0989V18.352H60.6029V30H57.5789ZM73.957 30V15.72H76.981V23.028L76.813 25.716H76.981L84.121 15.72H87.117V30H84.121V22.72L84.289 20.032H84.121L76.981 30H73.957ZM97.4353 30.448C95.998 30.448 94.7286 30.1213 93.6273 29.468C92.526 28.8147 91.658 27.9187 91.0233 26.78C90.3886 25.6227 90.0713 24.316 90.0713 22.86C90.0713 21.404 90.3886 20.1067 91.0233 18.968C91.658 17.8107 92.526 16.9053 93.6273 16.252C94.7286 15.5987 95.998 15.272 97.4353 15.272C99.022 15.272 100.357 15.6267 101.439 16.336C102.541 17.0453 103.325 18.0067 103.791 19.22L101.047 20.34C100.394 18.8093 99.1713 18.044 97.3793 18.044C96.5953 18.044 95.8766 18.2493 95.2233 18.66C94.57 19.052 94.0473 19.612 93.6553 20.34C93.2633 21.0493 93.0673 21.8893 93.0673 22.86C93.0673 23.8307 93.2633 24.68 93.6553 25.408C94.0473 26.136 94.57 26.696 95.2233 27.088C95.8766 27.48 96.5953 27.676 97.3793 27.676C98.294 27.676 99.0686 27.4707 99.7033 27.06C100.338 26.6307 100.833 26.052 101.187 25.324L103.875 26.5C103.371 27.6387 102.569 28.5813 101.467 29.328C100.366 30.0747 99.022 30.448 97.4353 30.448ZM111.111 30.448C110.085 30.448 109.17 30.252 108.367 29.86C107.565 29.4493 106.939 28.88 106.491 28.152C106.043 27.424 105.819 26.5933 105.819 25.66C105.819 24.652 106.081 23.7933 106.603 23.084C107.145 22.356 107.863 21.8053 108.759 21.432C109.655 21.0587 110.645 20.872 111.727 20.872C112.623 20.872 113.407 20.956 114.079 21.124C114.77 21.292 115.293 21.4693 115.647 21.656V20.9C115.647 19.9667 115.311 19.22 114.639 18.66C113.967 18.1 113.099 17.82 112.035 17.82C111.307 17.82 110.617 17.988 109.963 18.324C109.31 18.6413 108.787 19.08 108.395 19.64L106.323 18.044C106.939 17.1853 107.751 16.5133 108.759 16.028C109.786 15.524 110.906 15.272 112.119 15.272C114.191 15.272 115.787 15.7853 116.907 16.812C118.027 17.82 118.587 19.2387 118.587 21.068V30H115.647V28.236H115.479C115.106 28.8147 114.546 29.328 113.799 29.776C113.053 30.224 112.157 30.448 111.111 30.448ZM111.643 27.984C112.427 27.984 113.118 27.7973 113.715 27.424C114.313 27.0507 114.779 26.5653 115.115 25.968C115.47 25.352 115.647 24.6893 115.647 23.98C115.218 23.7373 114.714 23.5413 114.135 23.392C113.557 23.224 112.941 23.14 112.287 23.14C111.055 23.14 110.178 23.392 109.655 23.896C109.133 24.3813 108.871 24.9787 108.871 25.688C108.871 26.36 109.123 26.9107 109.627 27.34C110.131 27.7693 110.803 27.984 111.643 27.984ZM125.364 30V18.352H120.66V15.72H133.064V18.352H128.36V30H125.364ZM138.857 15.72V20.48H142.133C143.103 20.48 143.971 20.6853 144.737 21.096C145.521 21.5067 146.137 22.076 146.585 22.804C147.033 23.5133 147.257 24.3253 147.257 25.24C147.257 26.1547 147.033 26.9667 146.585 27.676C146.137 28.3853 145.521 28.9547 144.737 29.384C143.971 29.7947 143.103 30 142.133 30H135.833V15.72H138.857ZM138.857 27.48H141.881C142.553 27.48 143.113 27.2653 143.561 26.836C144.009 26.4067 144.233 25.8747 144.233 25.24C144.233 24.6053 144.009 24.0733 143.561 23.644C143.113 23.196 142.553 22.972 141.881 22.972H138.857V27.48ZM156.686 30.448C155.249 30.448 153.979 30.1213 152.878 29.468C151.777 28.8147 150.909 27.9187 150.274 26.78C149.639 25.6227 149.322 24.316 149.322 22.86C149.322 21.404 149.639 20.1067 150.274 18.968C150.909 17.8107 151.777 16.9053 152.878 16.252C153.979 15.5987 155.249 15.272 156.686 15.272C158.273 15.272 159.607 15.6267 160.69 16.336C161.791 17.0453 162.575 18.0067 163.042 19.22L160.298 20.34C159.645 18.8093 158.422 18.044 156.63 18.044C155.846 18.044 155.127 18.2493 154.474 18.66C153.821 19.052 153.298 19.612 152.906 20.34C152.514 21.0493 152.318 21.8893 152.318 22.86C152.318 23.8307 152.514 24.68 152.906 25.408C153.298 26.136 153.821 26.696 154.474 27.088C155.127 27.48 155.846 27.676 156.63 27.676C157.545 27.676 158.319 27.4707 158.954 27.06C159.589 26.6307 160.083 26.052 160.438 25.324L163.126 26.5C162.622 27.6387 161.819 28.5813 160.718 29.328C159.617 30.0747 158.273 30.448 156.686 30.448ZM164.821 30V29.832L168.629 24.876L168.573 24.708C167.677 24.3533 166.949 23.8027 166.389 23.056C165.829 22.3093 165.549 21.4507 165.549 20.48C165.549 19.5653 165.773 18.7533 166.221 18.044C166.669 17.3347 167.276 16.7747 168.041 16.364C168.825 15.9347 169.703 15.72 170.673 15.72H176.805V30H173.781V25.156H171.793L168.209 30H164.821ZM170.897 22.748H173.781V18.24H170.897C170.244 18.24 169.684 18.4547 169.217 18.884C168.769 19.3133 168.545 19.8453 168.545 20.48C168.545 21.1333 168.769 21.6747 169.217 22.104C169.684 22.5333 170.244 22.748 170.897 22.748ZM195.686 30V24.848C195.294 25.128 194.799 25.352 194.202 25.52C193.605 25.6693 192.951 25.744 192.242 25.744C190.599 25.744 189.283 25.268 188.294 24.316C187.323 23.364 186.838 22.076 186.838 20.452V15.72H189.862V20.144C189.862 21.04 190.114 21.7493 190.618 22.272C191.141 22.776 191.869 23.028 192.802 23.028C193.381 23.028 193.922 22.944 194.426 22.776C194.949 22.5893 195.369 22.3467 195.686 22.048V15.72H198.682V30H195.686ZM208.935 30.448C207.535 30.448 206.284 30.1213 205.183 29.468C204.082 28.8147 203.214 27.9187 202.579 26.78C201.963 25.6413 201.655 24.344 201.655 22.888C201.655 21.5253 201.954 20.2653 202.551 19.108C203.148 17.9507 203.979 17.0267 205.043 16.336C206.126 15.6267 207.367 15.272 208.767 15.272C210.242 15.272 211.492 15.5893 212.519 16.224C213.564 16.8587 214.358 17.7267 214.899 18.828C215.44 19.9293 215.711 21.1707 215.711 22.552C215.711 22.7573 215.702 22.944 215.683 23.112C215.683 23.28 215.674 23.4107 215.655 23.504H204.623C204.772 24.9227 205.267 25.9867 206.107 26.696C206.966 27.4053 207.936 27.76 209.019 27.76C209.99 27.76 210.792 27.5453 211.427 27.116C212.062 26.668 212.566 26.1173 212.939 25.464L215.431 26.668C214.815 27.788 213.975 28.7027 212.911 29.412C211.847 30.1027 210.522 30.448 208.935 30.448ZM208.795 17.848C207.787 17.848 206.928 18.156 206.219 18.772C205.51 19.388 205.034 20.2093 204.791 21.236H212.715C212.678 20.7507 212.519 20.2467 212.239 19.724C211.959 19.2013 211.53 18.7627 210.951 18.408C210.391 18.0347 209.672 17.848 208.795 17.848ZM218.788 36.048V15.72H221.616V17.652H221.784C222.158 17.036 222.736 16.4853 223.52 16C224.323 15.5147 225.275 15.272 226.376 15.272C227.683 15.272 228.85 15.5987 229.876 16.252C230.903 16.9053 231.715 17.8013 232.312 18.94C232.928 20.0787 233.236 21.3853 233.236 22.86C233.236 24.3347 232.928 25.6507 232.312 26.808C231.715 27.9467 230.903 28.8427 229.876 29.496C228.85 30.1307 227.683 30.448 226.376 30.448C225.275 30.448 224.323 30.2147 223.52 29.748C222.736 29.2627 222.158 28.712 221.784 28.096H221.616L221.784 30.084V36.048H218.788ZM225.928 27.676C226.675 27.676 227.375 27.48 228.028 27.088C228.682 26.696 229.214 26.1453 229.624 25.436C230.035 24.708 230.24 23.8493 230.24 22.86C230.24 21.8707 230.035 21.0213 229.624 20.312C229.214 19.584 228.682 19.024 228.028 18.632C227.375 18.24 226.675 18.044 225.928 18.044C225.182 18.044 224.482 18.24 223.828 18.632C223.175 19.024 222.643 19.584 222.232 20.312C221.822 21.0213 221.616 21.8707 221.616 22.86C221.616 23.8493 221.822 24.708 222.232 25.436C222.643 26.1453 223.175 26.696 223.828 27.088C224.482 27.48 225.182 27.676 225.928 27.676ZM242.785 30.448C241.385 30.448 240.134 30.1213 239.033 29.468C237.932 28.8147 237.064 27.9187 236.429 26.78C235.813 25.6413 235.505 24.344 235.505 22.888C235.505 21.5253 235.804 20.2653 236.401 19.108C236.998 17.9507 237.829 17.0267 238.893 16.336C239.976 15.6267 241.217 15.272 242.617 15.272C244.092 15.272 245.342 15.5893 246.369 16.224C247.414 16.8587 248.208 17.7267 248.749 18.828C249.29 19.9293 249.561 21.1707 249.561 22.552C249.561 22.7573 249.552 22.944 249.533 23.112C249.533 23.28 249.524 23.4107 249.505 23.504H238.473C238.622 24.9227 239.117 25.9867 239.957 26.696C240.816 27.4053 241.786 27.76 242.869 27.76C243.84 27.76 244.642 27.5453 245.277 27.116C245.912 26.668 246.416 26.1173 246.789 25.464L249.281 26.668C248.665 27.788 247.825 28.7027 246.761 29.412C245.697 30.1027 244.372 30.448 242.785 30.448ZM242.645 17.848C241.637 17.848 240.778 18.156 240.069 18.772C239.36 19.388 238.884 20.2093 238.641 21.236H246.565C246.528 20.7507 246.369 20.2467 246.089 19.724C245.809 19.2013 245.38 18.7627 244.801 18.408C244.241 18.0347 243.522 17.848 242.645 17.848ZM257.215 30.448C256.431 30.448 255.647 30.3547 254.863 30.168C254.079 29.9813 253.342 29.664 252.651 29.216C251.979 28.7493 251.419 28.1053 250.971 27.284L253.379 25.884C253.902 26.612 254.499 27.116 255.171 27.396C255.862 27.6573 256.543 27.788 257.215 27.788C258.186 27.788 258.923 27.6013 259.427 27.228C259.931 26.8547 260.183 26.3693 260.183 25.772C260.183 25.2493 259.95 24.8293 259.483 24.512C259.035 24.176 258.401 24.008 257.579 24.008H255.255V21.628H257.579C258.289 21.628 258.83 21.46 259.203 21.124C259.595 20.788 259.791 20.3587 259.791 19.836C259.791 19.22 259.53 18.7347 259.007 18.38C258.485 18.0067 257.822 17.82 257.019 17.82C256.31 17.82 255.629 17.9693 254.975 18.268C254.322 18.548 253.827 18.9307 253.491 19.416L251.251 17.932C251.905 17.1107 252.726 16.4667 253.715 16C254.723 15.5147 255.834 15.272 257.047 15.272C258.093 15.272 259.035 15.4493 259.875 15.804C260.734 16.1587 261.406 16.6533 261.891 17.288C262.395 17.904 262.647 18.6227 262.647 19.444C262.647 20.1533 262.47 20.788 262.115 21.348C261.761 21.8893 261.294 22.3 260.715 22.58V22.748C261.443 23.0467 262.031 23.4947 262.479 24.092C262.927 24.6893 263.151 25.3707 263.151 26.136C263.151 26.976 262.909 27.7227 262.423 28.376C261.938 29.0107 261.247 29.5147 260.351 29.888C259.455 30.2613 258.41 30.448 257.215 30.448Z" fill="#3C4043"/>
<g id="GPay Logo (Light)">
<g id="GPay">
<g id="Pay">
<path id="Fill 1" fill-rule="evenodd" clip-rule="evenodd" d="M314.529 9.44664V17.6128H319.565C320.765 17.6128 321.757 17.2096 322.541 16.4032C323.347 15.5988 323.75 14.6394 323.75 13.5288C323.75 12.4406 323.347 11.4924 322.541 10.686C321.757 9.85915 320.765 9.44478 319.565 9.44478H314.529V9.44664ZM314.529 20.4872V29.9599H311.521V6.57217H319.499C321.527 6.57217 323.248 7.24786 324.666 8.59737C326.105 9.94688 326.824 11.5913 326.824 13.5288C326.824 15.511 326.105 17.1667 324.666 18.4938C323.27 19.8227 321.547 20.4854 319.499 20.4854H314.529V20.4872Z" fill="#5F6368"/>
<path id="Fill 3" fill-rule="evenodd" clip-rule="evenodd" d="M329.864 25.0602C329.864 25.8442 330.197 26.4975 330.862 27.0201C331.527 27.5427 332.306 27.804 333.2 27.804C334.465 27.804 335.591 27.3354 336.584 26.4004C337.576 25.4634 338.071 24.364 338.071 23.1022C337.133 22.3612 335.825 21.9916 334.147 21.9916C332.925 21.9916 331.907 22.2865 331.09 22.8745C330.273 23.4623 329.864 24.1886 329.864 25.0602ZM333.756 13.4317C335.98 13.4317 337.735 14.0252 339.022 15.2124C340.308 16.3995 340.95 18.0271 340.95 20.0952V29.9599H338.073V27.7387H337.942C336.699 29.5677 335.042 30.4825 332.972 30.4825C331.206 30.4825 329.728 29.9599 328.541 28.9146C327.353 27.8694 326.759 26.5628 326.759 24.9949C326.759 23.3393 327.385 22.0232 328.638 21.0434C329.892 20.0635 331.565 19.5726 333.658 19.5726C335.444 19.5726 336.916 19.8992 338.071 20.5525V19.8656C338.071 18.8204 337.656 17.9338 336.829 17.204C335.999 16.4741 335.031 16.1102 333.919 16.1102C332.239 16.1102 330.911 16.8176 329.93 18.2343L327.28 16.5675C328.741 14.4769 330.899 13.4317 333.756 13.4317Z" fill="#5F6368"/>
<path id="Fill 5" fill-rule="evenodd" clip-rule="evenodd" d="M357.463 13.9543L347.424 37.0154H344.318L348.046 28.9464L341.44 13.9543H344.71L349.484 25.4522H349.55L354.193 13.9543H357.463Z" fill="#5F6368"/>
</g>
<g id="G">
<path id="Fill 8" fill-rule="evenodd" clip-rule="evenodd" d="M302.373 18.4452C302.373 17.4989 302.293 16.5861 302.141 15.7126H289.454V20.8885H296.72C296.408 22.5757 295.465 24.0112 294.033 24.9725V28.3341H298.37C300.91 25.9935 302.373 22.5348 302.373 18.4452Z" fill="#4285F4"/>
<path id="Fill 10" fill-rule="evenodd" clip-rule="evenodd" d="M289.454 31.5782C293.084 31.5782 296.141 30.3873 298.37 28.3341L294.033 24.9725C292.826 25.7844 291.272 26.2585 289.454 26.2585C285.944 26.2585 282.966 23.8955 281.901 20.7112H277.433V24.1736C279.647 28.5637 284.197 31.5782 289.454 31.5782Z" fill="#34A853"/>
<path id="Fill 12" fill-rule="evenodd" clip-rule="evenodd" d="M281.901 20.7111C281.628 19.8992 281.479 19.0331 281.479 18.139C281.479 17.245 281.628 16.3789 281.901 15.567V12.1045H277.433C276.518 13.9188 276 15.9683 276 18.139C276 20.3098 276.518 22.3595 277.433 24.1736L281.901 20.7111Z" fill="#FABB05"/>
<path id="Fill 14" fill-rule="evenodd" clip-rule="evenodd" d="M289.454 10.0196C291.436 10.0196 293.213 10.7009 294.615 12.0355V12.0374L298.455 8.20162C296.123 6.03271 293.082 4.7 289.454 4.7C284.197 4.7 279.647 7.71446 277.433 12.1046L281.901 15.567C282.966 12.3827 285.944 10.0196 289.454 10.0196Z" fill="#E94235"/>
</g>
</g>
</g>
</g>
</svg>
