<svg width="282" height="38" viewBox="0 0 282 38" fill="none" xmlns="http://www.w3.org/2000/svg">
<g id="ru_view_in_Light">
<path id="Text" d="M2.94456 30V9.952H18.0646V30H14.9846V12.864H6.02456V30H2.94456ZM29.1207 30.448C27.646 30.448 26.3487 30.112 25.2287 29.44C24.1087 28.768 23.2314 27.8627 22.5967 26.724C21.962 25.5853 21.6447 24.2973 21.6447 22.86C21.6447 21.4413 21.962 20.1627 22.5967 19.024C23.2314 17.8667 24.1087 16.952 25.2287 16.28C26.3487 15.608 27.646 15.272 29.1207 15.272C30.5767 15.272 31.8647 15.608 32.9847 16.28C34.1047 16.952 34.982 17.8667 35.6167 19.024C36.2514 20.1627 36.5687 21.4413 36.5687 22.86C36.5687 24.2973 36.2514 25.5853 35.6167 26.724C34.982 27.8627 34.1047 28.768 32.9847 29.44C31.8647 30.112 30.5767 30.448 29.1207 30.448ZM29.1207 27.676C29.9047 27.676 30.6327 27.4893 31.3047 27.116C31.9767 26.724 32.518 26.1733 32.9287 25.464C33.358 24.736 33.5727 23.868 33.5727 22.86C33.5727 21.852 33.358 20.9933 32.9287 20.284C32.518 19.556 31.9767 19.0053 31.3047 18.632C30.6327 18.24 29.9047 18.044 29.1207 18.044C28.3367 18.044 27.5994 18.24 26.9087 18.632C26.2367 19.0053 25.686 19.556 25.2567 20.284C24.846 20.9933 24.6407 21.852 24.6407 22.86C24.6407 23.868 24.846 24.736 25.2567 25.464C25.686 26.1733 26.2367 26.724 26.9087 27.116C27.5994 27.4893 28.3367 27.676 29.1207 27.676ZM46.2618 30.448C44.8245 30.448 43.5552 30.1213 42.4538 29.468C41.3525 28.8147 40.4845 27.9187 39.8498 26.78C39.2152 25.6227 38.8978 24.316 38.8978 22.86C38.8978 21.404 39.2152 20.1067 39.8498 18.968C40.4845 17.8107 41.3525 16.9053 42.4538 16.252C43.5552 15.5987 44.8245 15.272 46.2618 15.272C47.8485 15.272 49.1832 15.6267 50.2658 16.336C51.3672 17.0453 52.1512 18.0067 52.6178 19.22L49.8738 20.34C49.2205 18.8093 47.9978 18.044 46.2058 18.044C45.4218 18.044 44.7032 18.2493 44.0498 18.66C43.3965 19.052 42.8738 19.612 42.4818 20.34C42.0898 21.0493 41.8938 21.8893 41.8938 22.86C41.8938 23.8307 42.0898 24.68 42.4818 25.408C42.8738 26.136 43.3965 26.696 44.0498 27.088C44.7032 27.48 45.4218 27.676 46.2058 27.676C47.1205 27.676 47.8952 27.4707 48.5298 27.06C49.1645 26.6307 49.6592 26.052 50.0138 25.324L52.7018 26.5C52.1978 27.6387 51.3952 28.5813 50.2938 29.328C49.1925 30.0747 47.8485 30.448 46.2618 30.448ZM55.5945 30V15.72H59.1785L63.5745 24.456H63.7145L68.1385 15.72H71.6385V30H68.7545V23.056L68.8945 20.312H68.7265L64.6105 28.18H62.6225L58.5065 20.312H58.3385L58.4785 23.056V30H55.5945ZM82.0559 30.448C80.5812 30.448 79.2839 30.112 78.1639 29.44C77.0439 28.768 76.1665 27.8627 75.5319 26.724C74.8972 25.5853 74.5799 24.2973 74.5799 22.86C74.5799 21.4413 74.8972 20.1627 75.5319 19.024C76.1665 17.8667 77.0439 16.952 78.1639 16.28C79.2839 15.608 80.5812 15.272 82.0559 15.272C83.5119 15.272 84.7999 15.608 85.9199 16.28C87.0399 16.952 87.9172 17.8667 88.5519 19.024C89.1865 20.1627 89.5039 21.4413 89.5039 22.86C89.5039 24.2973 89.1865 25.5853 88.5519 26.724C87.9172 27.8627 87.0399 28.768 85.9199 29.44C84.7999 30.112 83.5119 30.448 82.0559 30.448ZM82.0559 27.676C82.8399 27.676 83.5679 27.4893 84.2399 27.116C84.9119 26.724 85.4532 26.1733 85.8639 25.464C86.2932 24.736 86.5079 23.868 86.5079 22.86C86.5079 21.852 86.2932 20.9933 85.8639 20.284C85.4532 19.556 84.9119 19.0053 84.2399 18.632C83.5679 18.24 82.8399 18.044 82.0559 18.044C81.2719 18.044 80.5345 18.24 79.8439 18.632C79.1719 19.0053 78.6212 19.556 78.1919 20.284C77.7812 20.9933 77.5759 21.852 77.5759 22.86C77.5759 23.868 77.7812 24.736 78.1919 25.464C78.6212 26.1733 79.1719 26.724 79.8439 27.116C80.5345 27.4893 81.2719 27.676 82.0559 27.676ZM95.6821 30V18.352H90.9781V15.72H103.382V18.352H98.6781V30H95.6821ZM106.123 36.048V15.72H108.951V17.652H109.119C109.492 17.036 110.071 16.4853 110.855 16C111.657 15.5147 112.609 15.272 113.711 15.272C115.017 15.272 116.184 15.5987 117.211 16.252C118.237 16.9053 119.049 17.8013 119.647 18.94C120.263 20.0787 120.571 21.3853 120.571 22.86C120.571 24.3347 120.263 25.6507 119.647 26.808C119.049 27.9467 118.237 28.8427 117.211 29.496C116.184 30.1307 115.017 30.448 113.711 30.448C112.609 30.448 111.657 30.2147 110.855 29.748C110.071 29.2627 109.492 28.712 109.119 28.096H108.951L109.119 30.084V36.048H106.123ZM113.263 27.676C114.009 27.676 114.709 27.48 115.363 27.088C116.016 26.696 116.548 26.1453 116.959 25.436C117.369 24.708 117.575 23.8493 117.575 22.86C117.575 21.8707 117.369 21.0213 116.959 20.312C116.548 19.584 116.016 19.024 115.363 18.632C114.709 18.24 114.009 18.044 113.263 18.044C112.516 18.044 111.816 18.24 111.163 18.632C110.509 19.024 109.977 19.584 109.567 20.312C109.156 21.0213 108.951 21.8707 108.951 22.86C108.951 23.8493 109.156 24.708 109.567 25.436C109.977 26.1453 110.509 26.696 111.163 27.088C111.816 27.48 112.516 27.676 113.263 27.676ZM130.119 30.448C128.719 30.448 127.469 30.1213 126.367 29.468C125.266 28.8147 124.398 27.9187 123.763 26.78C123.147 25.6413 122.839 24.344 122.839 22.888C122.839 21.5253 123.138 20.2653 123.735 19.108C124.333 17.9507 125.163 17.0267 126.227 16.336C127.31 15.6267 128.551 15.272 129.951 15.272C131.426 15.272 132.677 15.5893 133.703 16.224C134.749 16.8587 135.542 17.7267 136.083 18.828C136.625 19.9293 136.895 21.1707 136.895 22.552C136.895 22.7573 136.886 22.944 136.867 23.112C136.867 23.28 136.858 23.4107 136.839 23.504H125.807C125.957 24.9227 126.451 25.9867 127.291 26.696C128.15 27.4053 129.121 27.76 130.203 27.76C131.174 27.76 131.977 27.5453 132.611 27.116C133.246 26.668 133.75 26.1173 134.123 25.464L136.615 26.668C135.999 27.788 135.159 28.7027 134.095 29.412C133.031 30.1027 131.706 30.448 130.119 30.448ZM129.979 17.848C128.971 17.848 128.113 18.156 127.403 18.772C126.694 19.388 126.218 20.2093 125.975 21.236H133.899C133.862 20.7507 133.703 20.2467 133.423 19.724C133.143 19.2013 132.714 18.7627 132.135 18.408C131.575 18.0347 130.857 17.848 129.979 17.848ZM143.367 30V18.352H138.663V15.72H151.067V18.352H146.363V30H143.367ZM156.86 15.72V20.48H160.136C161.107 20.48 161.975 20.6853 162.74 21.096C163.524 21.5067 164.14 22.076 164.588 22.804C165.036 23.5133 165.26 24.3253 165.26 25.24C165.26 26.1547 165.036 26.9667 164.588 27.676C164.14 28.3853 163.524 28.9547 162.74 29.384C161.975 29.7947 161.107 30 160.136 30H153.836V15.72H156.86ZM156.86 27.48H159.884C160.556 27.48 161.116 27.2653 161.564 26.836C162.012 26.4067 162.236 25.8747 162.236 25.24C162.236 24.6053 162.012 24.0733 161.564 23.644C161.116 23.196 160.556 22.972 159.884 22.972H156.86V27.48ZM174.916 30V15.72H182C182.84 15.72 183.587 15.888 184.24 16.224C184.912 16.5413 185.435 16.98 185.808 17.54C186.2 18.1 186.396 18.7253 186.396 19.416C186.396 20.1627 186.228 20.8067 185.892 21.348C185.575 21.8893 185.155 22.2907 184.632 22.552V22.72C185.342 23 185.902 23.42 186.312 23.98C186.742 24.54 186.956 25.184 186.956 25.912C186.956 26.752 186.732 27.48 186.284 28.096C185.855 28.712 185.295 29.188 184.604 29.524C183.914 29.8413 183.176 30 182.392 30H174.916ZM177.94 18.184V21.544H181.636C182.14 21.544 182.56 21.3853 182.896 21.068C183.232 20.7507 183.4 20.3493 183.4 19.864C183.4 19.36 183.232 18.9587 182.896 18.66C182.56 18.3427 182.14 18.184 181.636 18.184H177.94ZM177.94 27.48H182.084C182.626 27.48 183.074 27.312 183.428 26.976C183.802 26.6213 183.988 26.1733 183.988 25.632C183.988 25.1093 183.802 24.6707 183.428 24.316C183.074 23.9613 182.626 23.784 182.084 23.784H177.94V27.48Z" fill="#3C4043"/>
<g id="GPay Logo (Light)">
<g id="GPay">
<g id="Pay">
<path id="Fill 1" fill-rule="evenodd" clip-rule="evenodd" d="M238.529 9.44664V17.6128H243.565C244.765 17.6128 245.757 17.2096 246.541 16.4032C247.347 15.5988 247.75 14.6394 247.75 13.5288C247.75 12.4406 247.347 11.4924 246.541 10.686C245.757 9.85915 244.765 9.44478 243.565 9.44478H238.529V9.44664ZM238.529 20.4872V29.9599H235.521V6.57217H243.499C245.527 6.57217 247.248 7.24786 248.666 8.59737C250.105 9.94688 250.824 11.5913 250.824 13.5288C250.824 15.511 250.105 17.1667 248.666 18.4938C247.27 19.8227 245.547 20.4854 243.499 20.4854H238.529V20.4872Z" fill="#5F6368"/>
<path id="Fill 3" fill-rule="evenodd" clip-rule="evenodd" d="M253.864 25.0602C253.864 25.8442 254.197 26.4975 254.862 27.0201C255.527 27.5427 256.306 27.804 257.2 27.804C258.465 27.804 259.591 27.3354 260.584 26.4004C261.576 25.4634 262.071 24.364 262.071 23.1022C261.133 22.3612 259.825 21.9916 258.147 21.9916C256.925 21.9916 255.907 22.2865 255.09 22.8745C254.273 23.4623 253.864 24.1886 253.864 25.0602ZM257.756 13.4317C259.98 13.4317 261.735 14.0252 263.022 15.2124C264.308 16.3995 264.95 18.0271 264.95 20.0952V29.9599H262.073V27.7387H261.942C260.699 29.5677 259.042 30.4825 256.972 30.4825C255.206 30.4825 253.728 29.9599 252.541 28.9146C251.353 27.8694 250.759 26.5628 250.759 24.9949C250.759 23.3393 251.385 22.0232 252.638 21.0434C253.892 20.0635 255.565 19.5726 257.658 19.5726C259.444 19.5726 260.916 19.8992 262.071 20.5525V19.8656C262.071 18.8204 261.656 17.9338 260.829 17.204C259.999 16.4741 259.031 16.1102 257.919 16.1102C256.239 16.1102 254.911 16.8176 253.93 18.2343L251.28 16.5675C252.741 14.4769 254.899 13.4317 257.756 13.4317Z" fill="#5F6368"/>
<path id="Fill 5" fill-rule="evenodd" clip-rule="evenodd" d="M281.463 13.9543L271.424 37.0154H268.318L272.046 28.9464L265.44 13.9543H268.71L273.484 25.4522H273.55L278.193 13.9543H281.463Z" fill="#5F6368"/>
</g>
<g id="G">
<path id="Fill 8" fill-rule="evenodd" clip-rule="evenodd" d="M226.373 18.4452C226.373 17.4989 226.293 16.5861 226.141 15.7126H213.454V20.8885H220.72C220.408 22.5757 219.465 24.0112 218.033 24.9725V28.3341H222.37C224.91 25.9935 226.373 22.5348 226.373 18.4452Z" fill="#4285F4"/>
<path id="Fill 10" fill-rule="evenodd" clip-rule="evenodd" d="M213.454 31.5782C217.084 31.5782 220.141 30.3873 222.37 28.3341L218.033 24.9725C216.826 25.7844 215.272 26.2585 213.454 26.2585C209.944 26.2585 206.966 23.8955 205.901 20.7112H201.433V24.1736C203.647 28.5637 208.197 31.5782 213.454 31.5782Z" fill="#34A853"/>
<path id="Fill 12" fill-rule="evenodd" clip-rule="evenodd" d="M205.901 20.7111C205.628 19.8992 205.479 19.0331 205.479 18.139C205.479 17.245 205.628 16.3789 205.901 15.567V12.1045H201.433C200.518 13.9188 200 15.9683 200 18.139C200 20.3098 200.518 22.3595 201.433 24.1736L205.901 20.7111Z" fill="#FABB05"/>
<path id="Fill 14" fill-rule="evenodd" clip-rule="evenodd" d="M213.454 10.0196C215.436 10.0196 217.213 10.7009 218.615 12.0355V12.0374L222.455 8.20162C220.123 6.03271 217.082 4.7 213.454 4.7C208.197 4.7 203.647 7.71446 201.433 12.1046L205.901 15.567C206.966 12.3827 209.944 10.0196 213.454 10.0196Z" fill="#E94235"/>
</g>
</g>
</g>
</g>
</svg>
