<svg width="125" height="21" viewBox="0 0 125 21" fill="none" xmlns="http://www.w3.org/2000/svg">
<g id="uk_add_to_Pay_NBG">
<path id="Left Text" d="M1.3545 17.4326V13.3366H2.3625C2.54383 13.0379 2.6985 12.6646 2.8265 12.2166C2.96516 11.7686 3.07183 11.2779 3.1465 10.7446C3.23183 10.2006 3.29583 9.63528 3.3385 9.04861C3.38116 8.45128 3.4025 7.85928 3.4025 7.27261V3.54461H10.7465V13.3366H12.0905V17.4326H10.3785V15.0006H3.0665V17.4326H1.3545ZM4.2825 13.3366H8.9865V5.20861H5.1145V7.52861C5.1145 8.30728 5.0825 9.04328 5.0185 9.73661C4.9545 10.4299 4.8585 11.0753 4.7305 11.6726C4.61316 12.2593 4.46383 12.7819 4.2825 13.2406V13.3366ZM17.5105 15.2566C16.6678 15.2566 15.9265 15.0646 15.2865 14.6806C14.6465 14.2966 14.1452 13.7793 13.7825 13.1286C13.4198 12.4673 13.2385 11.7313 13.2385 10.9206C13.2385 10.1099 13.4198 9.37928 13.7825 8.72861C14.1452 8.06728 14.6465 7.54461 15.2865 7.16061C15.9265 6.77661 16.6678 6.58461 17.5105 6.58461C18.3425 6.58461 19.0785 6.78194 19.7185 7.17661C20.3585 7.56061 20.8598 8.07794 21.2225 8.72861C21.5852 9.37928 21.7665 10.1099 21.7665 10.9206C21.7665 11.7313 21.5852 12.4673 21.2225 13.1286C20.8598 13.7793 20.3585 14.2966 19.7185 14.6806C19.0785 15.0646 18.3425 15.2566 17.5105 15.2566ZM17.5105 13.6726C17.9585 13.6726 18.3745 13.5659 18.7585 13.3526C19.1425 13.1286 19.4518 12.8139 19.6865 12.4086C19.9318 11.9926 20.0545 11.4966 20.0545 10.9206C20.0545 10.3446 19.9318 9.85394 19.6865 9.44861C19.4518 9.03261 19.1425 8.71794 18.7585 8.50461C18.3745 8.28061 17.9585 8.16861 17.5105 8.16861C17.0625 8.16861 16.6412 8.28061 16.2465 8.50461C15.8625 8.71794 15.5478 9.03261 15.3025 9.44861C15.0678 9.85394 14.9505 10.3446 14.9505 10.9206C14.9505 11.4966 15.0678 11.9926 15.3025 12.4086C15.5478 12.8139 15.8678 13.1286 16.2625 13.3526C16.6572 13.5659 17.0732 13.6726 17.5105 13.6726ZM22.5246 17.4326V13.4966H23.4206C23.5913 13.2833 23.746 12.9899 23.8846 12.6166C24.0233 12.2433 24.13 11.8166 24.2046 11.3366C24.2793 10.8566 24.3166 10.3713 24.3166 9.88061V6.84061H30.4286V13.4966H31.6126V17.4326H30.0286V15.0006H24.1246V17.4326H22.5246ZM25.2766 13.4966H28.7166V8.34461H25.9486V10.0246C25.9486 10.5153 25.922 10.9633 25.8686 11.3686C25.826 11.7739 25.7513 12.1419 25.6446 12.4726C25.5486 12.8033 25.426 13.1126 25.2766 13.4006V13.4966ZM35.8586 15.2566C35.272 15.2566 34.7493 15.1393 34.2906 14.9046C33.8426 14.6699 33.4853 14.3499 33.2186 13.9446C32.9626 13.5286 32.8346 13.0539 32.8346 12.5206C32.8346 11.9339 32.984 11.4379 33.2826 11.0326C33.592 10.6273 34.0026 10.3179 34.5146 10.1046C35.0266 9.89128 35.592 9.78461 36.2106 9.78461C36.552 9.78461 36.8666 9.81128 37.1546 9.86461C37.4533 9.90728 37.7093 9.96061 37.9226 10.0246C38.1466 10.0886 38.3226 10.1579 38.4506 10.2326V9.80061C38.4506 9.26728 38.2586 8.84061 37.8746 8.52061C37.4906 8.20061 36.9946 8.04061 36.3866 8.04061C35.9706 8.04061 35.576 8.13661 35.2026 8.32861C34.8293 8.50994 34.5306 8.76061 34.3066 9.08061L33.1226 8.16861C33.3573 7.83794 33.64 7.55528 33.9706 7.32061C34.312 7.08594 34.6906 6.90461 35.1066 6.77661C35.5333 6.64861 35.976 6.58461 36.4346 6.58461C37.6186 6.58461 38.5306 6.87794 39.1706 7.46461C39.8106 8.04061 40.1306 8.85128 40.1306 9.89661V15.0006H38.4506V13.9926H38.3546C38.216 14.2059 38.024 14.4086 37.7786 14.6006C37.544 14.7926 37.2613 14.9473 36.9306 15.0646C36.6106 15.1926 36.2533 15.2566 35.8586 15.2566ZM36.1626 13.8486C36.6106 13.8486 37.0053 13.7419 37.3466 13.5286C37.6986 13.3153 37.9706 13.0379 38.1626 12.6966C38.3546 12.3446 38.4506 11.9659 38.4506 11.5606C38.216 11.4219 37.928 11.3099 37.5866 11.2246C37.256 11.1286 36.904 11.0806 36.5306 11.0806C35.8266 11.0806 35.3253 11.2193 35.0266 11.4966C34.728 11.7739 34.5786 12.1206 34.5786 12.5366C34.5786 12.9206 34.7226 13.2353 35.0106 13.4806C35.2986 13.7259 35.6826 13.8486 36.1626 13.8486ZM43.9817 15.0006V8.34461H41.2937V6.84061H48.3817V8.34461H45.6937V15.0006H43.9817ZM49.9424 15.0006V6.84061H51.6704V11.0166L51.5744 12.5526H51.6704L55.7504 6.84061H57.4624V15.0006H55.7504V10.8406L55.8464 9.30461H55.7504L51.6704 15.0006H49.9424ZM63.5236 15.0006V6.84061H67.5716C68.0516 6.84061 68.4783 6.93661 68.8516 7.12861C69.2356 7.30994 69.5343 7.56061 69.7476 7.88061C69.9716 8.20061 70.0836 8.55794 70.0836 8.95261C70.0836 9.37928 69.9876 9.74728 69.7956 10.0566C69.6143 10.3659 69.3743 10.5953 69.0756 10.7446V10.8406C69.481 11.0006 69.801 11.2406 70.0356 11.5606C70.281 11.8806 70.4036 12.2486 70.4036 12.6646C70.4036 13.1446 70.2756 13.5606 70.0196 13.9126C69.7743 14.2646 69.4543 14.5366 69.0596 14.7286C68.665 14.9099 68.2436 15.0006 67.7956 15.0006H63.5236ZM65.2516 11.4486V13.5606H67.6196C67.929 13.5606 68.185 13.4646 68.3876 13.2726C68.601 13.0699 68.7076 12.8139 68.7076 12.5046C68.7076 12.2059 68.601 11.9553 68.3876 11.7526C68.185 11.5499 67.929 11.4486 67.6196 11.4486H65.2516ZM65.2516 8.24861V10.1686H67.3636C67.6516 10.1686 67.8916 10.0779 68.0836 9.89661C68.2756 9.71528 68.3716 9.48594 68.3716 9.20861C68.3716 8.92061 68.2756 8.69128 68.0836 8.52061C67.8916 8.33928 67.6516 8.24861 67.3636 8.24861H65.2516Z" fill="white"/>
<g id="GPay (Dark)">
<g id="GPay">
<g id="Pay">
<path id="Fill 1" fill-rule="evenodd" clip-rule="evenodd" d="M99.3563 3.42339V8.16175H102.278C102.974 8.16175 103.55 7.92781 104.005 7.45993C104.473 6.99313 104.707 6.43644 104.707 5.79203C104.707 5.16061 104.473 4.61041 104.005 4.14254C103.55 3.66274 102.974 3.4223 102.278 3.4223H99.3563V3.42339ZM99.3563 9.82966V15.3262H97.6107V1.75549H102.24C103.417 1.75549 104.415 2.14756 105.238 2.93061C106.073 3.71365 106.491 4.66782 106.491 5.79203C106.491 6.94224 106.073 7.90291 105.238 8.67296C104.428 9.44409 103.429 9.82858 102.24 9.82858H99.3563V9.82966Z" fill="white"/>
<path id="Fill 3" fill-rule="evenodd" clip-rule="evenodd" d="M108.255 12.4831C108.255 12.9379 108.448 13.317 108.834 13.6203C109.22 13.9235 109.672 14.0752 110.19 14.0752C110.924 14.0752 111.578 13.8032 112.153 13.2607C112.729 12.717 113.017 12.0791 113.017 11.3469C112.472 10.917 111.713 10.7025 110.74 10.7025C110.031 10.7025 109.44 10.8736 108.966 11.2148C108.492 11.5559 108.255 11.9773 108.255 12.4831M110.513 5.73566C111.803 5.73566 112.821 6.08007 113.569 6.76889C114.314 7.45771 114.687 8.40213 114.687 9.60216V15.3261H113.018V14.0373H112.942C112.221 15.0985 111.259 15.6294 110.058 15.6294C109.033 15.6294 108.176 15.3261 107.487 14.7196C106.797 14.1131 106.453 13.3549 106.453 12.4452C106.453 11.4845 106.816 10.7208 107.543 10.1523C108.271 9.58375 109.241 9.2989 110.456 9.2989C111.492 9.2989 112.346 9.48844 113.017 9.86751V9.46894C113.017 8.86243 112.776 8.34798 112.296 7.92451C111.814 7.50103 111.252 7.28984 110.607 7.28984C109.633 7.28984 108.862 7.70032 108.293 8.52235L106.755 7.55519C107.603 6.34217 108.855 5.73566 110.513 5.73566" fill="white"/>
<path id="Fill 5" fill-rule="evenodd" clip-rule="evenodd" d="M124.269 6.03894L118.443 19.4201H116.641L118.804 14.738L114.971 6.03894H116.869L119.639 12.7106H119.677L122.371 6.03894H124.269Z" fill="white"/>
</g>
<g id="G">
<path id="Fill 8" fill-rule="evenodd" clip-rule="evenodd" d="M92.3029 8.64473C92.3029 8.09563 92.2562 7.56601 92.1684 7.05914H84.8065V10.0625H89.0231C88.842 11.0414 88.2944 11.8744 87.4639 12.4322V14.3828H89.9804C91.4539 13.0246 92.3029 11.0177 92.3029 8.64473" fill="#4285F4"/>
<path id="Fill 10" fill-rule="evenodd" clip-rule="evenodd" d="M84.8065 16.2651C86.9131 16.2651 88.6869 15.5741 89.9804 14.3828L87.4639 12.4322C86.7635 12.9033 85.8614 13.1784 84.8065 13.1784C82.7703 13.1784 81.042 11.8073 80.424 9.95959H77.8316V11.9687C79.1164 14.516 81.7565 16.2651 84.8065 16.2651" fill="#34A853"/>
<path id="Fill 12" fill-rule="evenodd" clip-rule="evenodd" d="M80.424 9.9596C80.2657 9.48847 80.179 8.98593 80.179 8.46715C80.179 7.94837 80.2657 7.44583 80.424 6.9747V4.96564H77.8316C77.3003 6.01837 77 7.20756 77 8.46715C77 9.72674 77.3003 10.916 77.8316 11.9687L80.424 9.9596Z" fill="#FABB05"/>
<path id="Fill 14" fill-rule="evenodd" clip-rule="evenodd" d="M84.8065 3.75583C85.9568 3.75583 86.9879 4.15115 87.8011 4.92553V4.92661L90.0292 2.70094C88.6761 1.44243 86.912 0.669128 84.8065 0.669128C81.7565 0.669128 79.1164 2.41826 77.8316 4.9656L80.424 6.97467C81.042 5.12698 82.7703 3.75583 84.8065 3.75583" fill="#E94235"/>
</g>
</g>
</g>
</g>
</svg>
