<svg width="366" height="38" viewBox="0 0 366 38" fill="none" xmlns="http://www.w3.org/2000/svg">
<g id="uk_book_with_Light">
<path id="Text" d="M10.4249 30.448C8.59559 30.448 7.01825 30.0187 5.69292 29.16C4.36759 28.3013 3.47159 27.1627 3.00492 25.744L5.60892 24.372C6.01959 25.3053 6.61692 26.08 7.40092 26.696C8.20359 27.2933 9.22092 27.592 10.4529 27.592C11.5729 27.592 12.5343 27.312 13.3369 26.752C14.1583 26.192 14.5689 25.3613 14.5689 24.26C14.5689 23.308 14.2329 22.5147 13.5609 21.88C12.9076 21.2267 11.9743 20.9 10.7609 20.9H8.04492V18.156H10.7609C11.7876 18.156 12.5623 17.8853 13.0849 17.344C13.6076 16.784 13.8689 16.084 13.8689 15.244C13.8689 14.2733 13.5516 13.536 12.9169 13.032C12.2823 12.528 11.4049 12.276 10.2849 12.276C9.29559 12.276 8.40892 12.4813 7.62492 12.892C6.85959 13.3027 6.28092 13.872 5.88892 14.6L3.36892 13.396C3.96625 12.1827 4.86225 11.2307 6.05692 10.54C7.25159 9.84933 8.66092 9.504 10.2849 9.504C11.6476 9.504 12.8236 9.73733 13.8129 10.204C14.8209 10.6707 15.5956 11.3147 16.1369 12.136C16.6783 12.9387 16.9489 13.872 16.9489 14.936C16.9489 15.888 16.7063 16.7467 16.2209 17.512C15.7543 18.2587 15.0543 18.856 14.1209 19.304V19.472C15.1663 19.9013 16.0156 20.5173 16.6689 21.32C17.3223 22.1227 17.6489 23.1213 17.6489 24.316C17.6489 25.436 17.3596 26.4627 16.7809 27.396C16.2023 28.3293 15.3716 29.076 14.2889 29.636C13.2063 30.1773 11.9183 30.448 10.4249 30.448ZM25.3807 30.448C24.3541 30.448 23.4394 30.252 22.6367 29.86C21.8341 29.4493 21.2087 28.88 20.7607 28.152C20.3127 27.424 20.0887 26.5933 20.0887 25.66C20.0887 24.652 20.3501 23.7933 20.8727 23.084C21.4141 22.356 22.1327 21.8053 23.0287 21.432C23.9247 21.0587 24.9141 20.872 25.9967 20.872C26.8927 20.872 27.6767 20.956 28.3487 21.124C29.0394 21.292 29.5621 21.4693 29.9167 21.656V20.9C29.9167 19.9667 29.5807 19.22 28.9087 18.66C28.2367 18.1 27.3687 17.82 26.3047 17.82C25.5767 17.82 24.8861 17.988 24.2327 18.324C23.5794 18.6413 23.0567 19.08 22.6647 19.64L20.5927 18.044C21.2087 17.1853 22.0207 16.5133 23.0287 16.028C24.0554 15.524 25.1754 15.272 26.3887 15.272C28.4607 15.272 30.0567 15.7853 31.1767 16.812C32.2967 17.82 32.8567 19.2387 32.8567 21.068V30H29.9167V28.236H29.7487C29.3754 28.8147 28.8154 29.328 28.0687 29.776C27.3221 30.224 26.4261 30.448 25.3807 30.448ZM25.9127 27.984C26.6967 27.984 27.3874 27.7973 27.9847 27.424C28.5821 27.0507 29.0487 26.5653 29.3847 25.968C29.7394 25.352 29.9167 24.6893 29.9167 23.98C29.4874 23.7373 28.9834 23.5413 28.4047 23.392C27.8261 23.224 27.2101 23.14 26.5567 23.14C25.3247 23.14 24.4474 23.392 23.9247 23.896C23.4021 24.3813 23.1407 24.9787 23.1407 25.688C23.1407 26.36 23.3927 26.9107 23.8967 27.34C24.4007 27.7693 25.0727 27.984 25.9127 27.984ZM43.2619 30.448C41.8619 30.448 40.6206 30.1307 39.5379 29.496C38.4739 28.8427 37.6339 27.8627 37.0179 26.556C36.4019 25.2307 36.0939 23.5693 36.0939 21.572C36.0939 19.5373 36.2992 17.8573 36.7099 16.532C37.1206 15.188 37.8019 14.1053 38.7539 13.284C39.3512 12.78 40.0886 12.36 40.9659 12.024C41.8619 11.688 42.9726 11.4173 44.2979 11.212C44.9886 11.1 45.4926 10.988 45.8099 10.876C46.1272 10.764 46.3232 10.6333 46.3979 10.484C46.4912 10.3347 46.5379 10.1573 46.5379 9.952H49.2819C49.2819 10.792 49.1512 11.464 48.8899 11.968C48.6472 12.4533 48.1992 12.8267 47.5459 13.088C46.9112 13.3493 46.0059 13.564 44.8299 13.732C43.5979 13.9187 42.6552 14.1427 42.0019 14.404C41.3672 14.6653 40.8446 14.964 40.4339 15.3C39.5192 16.0467 38.9592 17.1107 38.7539 18.492H38.9219C39.3512 17.8387 39.9859 17.2973 40.8259 16.868C41.6846 16.42 42.6739 16.196 43.7939 16.196C45.1192 16.196 46.2859 16.504 47.2939 17.12C48.3019 17.7173 49.0859 18.5387 49.6459 19.584C50.2246 20.6293 50.5139 21.8147 50.5139 23.14C50.5139 24.5213 50.2059 25.772 49.5899 26.892C48.9926 27.9933 48.1432 28.8613 47.0419 29.496C45.9592 30.1307 44.6992 30.448 43.2619 30.448ZM43.2899 27.732C44.4846 27.732 45.4832 27.3213 46.2859 26.5C47.0886 25.6787 47.4899 24.54 47.4899 23.084C47.4899 21.7587 47.0886 20.7227 46.2859 19.976C45.4832 19.2293 44.4846 18.856 43.2899 18.856C42.1326 18.856 41.1432 19.2293 40.3219 19.976C39.5192 20.7227 39.1179 21.7587 39.1179 23.084C39.1179 24.54 39.5099 25.6787 40.2939 26.5C41.0966 27.3213 42.0952 27.732 43.2899 27.732ZM53.547 36.048V15.72H56.375V17.652H56.543C56.9163 17.036 57.495 16.4853 58.279 16C59.0816 15.5147 60.0336 15.272 61.135 15.272C62.4416 15.272 63.6083 15.5987 64.635 16.252C65.6616 16.9053 66.4736 17.8013 67.071 18.94C67.687 20.0787 67.995 21.3853 67.995 22.86C67.995 24.3347 67.687 25.6507 67.071 26.808C66.4736 27.9467 65.6616 28.8427 64.635 29.496C63.6083 30.1307 62.4416 30.448 61.135 30.448C60.0336 30.448 59.0816 30.2147 58.279 29.748C57.495 29.2627 56.9163 28.712 56.543 28.096H56.375L56.543 30.084V36.048H53.547ZM60.687 27.676C61.4336 27.676 62.1336 27.48 62.787 27.088C63.4403 26.696 63.9723 26.1453 64.383 25.436C64.7936 24.708 64.999 23.8493 64.999 22.86C64.999 21.8707 64.7936 21.0213 64.383 20.312C63.9723 19.584 63.4403 19.024 62.787 18.632C62.1336 18.24 61.4336 18.044 60.687 18.044C59.9403 18.044 59.2403 18.24 58.587 18.632C57.9336 19.024 57.4016 19.584 56.991 20.312C56.5803 21.0213 56.375 21.8707 56.375 22.86C56.375 23.8493 56.5803 24.708 56.991 25.436C57.4016 26.1453 57.9336 26.696 58.587 27.088C59.2403 27.48 59.9403 27.676 60.687 27.676ZM77.7395 30.448C76.2648 30.448 74.9675 30.112 73.8475 29.44C72.7275 28.768 71.8501 27.8627 71.2155 26.724C70.5808 25.5853 70.2635 24.2973 70.2635 22.86C70.2635 21.4413 70.5808 20.1627 71.2155 19.024C71.8501 17.8667 72.7275 16.952 73.8475 16.28C74.9675 15.608 76.2648 15.272 77.7395 15.272C79.1955 15.272 80.4835 15.608 81.6035 16.28C82.7235 16.952 83.6008 17.8667 84.2355 19.024C84.8701 20.1627 85.1875 21.4413 85.1875 22.86C85.1875 24.2973 84.8701 25.5853 84.2355 26.724C83.6008 27.8627 82.7235 28.768 81.6035 29.44C80.4835 30.112 79.1955 30.448 77.7395 30.448ZM77.7395 27.676C78.5235 27.676 79.2515 27.4893 79.9235 27.116C80.5955 26.724 81.1368 26.1733 81.5475 25.464C81.9768 24.736 82.1915 23.868 82.1915 22.86C82.1915 21.852 81.9768 20.9933 81.5475 20.284C81.1368 19.556 80.5955 19.0053 79.9235 18.632C79.2515 18.24 78.5235 18.044 77.7395 18.044C76.9555 18.044 76.2181 18.24 75.5275 18.632C74.8555 19.0053 74.3048 19.556 73.8755 20.284C73.4648 20.9933 73.2595 21.852 73.2595 22.86C73.2595 23.868 73.4648 24.736 73.8755 25.464C74.3048 26.1733 74.8555 26.724 75.5275 27.116C76.2181 27.4893 76.9555 27.676 77.7395 27.676ZM87.9992 30V15.72H91.0232V21.46H97.7992V15.72H100.823V30H97.7992V24.092H91.0232V30H87.9992ZM104.651 30V15.72H107.675V21.46H110.251C110.437 20.2653 110.857 19.2013 111.511 18.268C112.164 17.3347 112.985 16.6067 113.975 16.084C114.964 15.5427 116.084 15.272 117.335 15.272C118.735 15.272 119.976 15.608 121.059 16.28C122.141 16.952 122.981 17.8667 123.579 19.024C124.195 20.1627 124.503 21.4413 124.503 22.86C124.503 24.2973 124.195 25.5853 123.579 26.724C122.981 27.8627 122.141 28.768 121.059 29.44C119.976 30.112 118.735 30.448 117.335 30.448C116.065 30.448 114.917 30.1773 113.891 29.636C112.883 29.0947 112.052 28.348 111.399 27.396C110.764 26.4253 110.363 25.324 110.195 24.092H107.675V30H104.651ZM117.335 27.676C118.063 27.676 118.744 27.4893 119.379 27.116C120.013 26.724 120.527 26.1733 120.919 25.464C121.311 24.736 121.507 23.868 121.507 22.86C121.507 21.852 121.311 20.9933 120.919 20.284C120.527 19.556 120.013 19.0053 119.379 18.632C118.744 18.24 118.063 18.044 117.335 18.044C116.588 18.044 115.897 18.24 115.263 18.632C114.628 19.0053 114.115 19.556 113.723 20.284C113.331 20.9933 113.135 21.852 113.135 22.86C113.135 23.868 113.331 24.736 113.723 25.464C114.115 26.1733 114.628 26.724 115.263 27.116C115.897 27.4893 116.588 27.676 117.335 27.676ZM127.291 30V15.72H134.375C135.215 15.72 135.961 15.888 136.615 16.224C137.287 16.5413 137.809 16.98 138.183 17.54C138.575 18.1 138.771 18.7253 138.771 19.416C138.771 20.1627 138.603 20.8067 138.267 21.348C137.949 21.8893 137.529 22.2907 137.007 22.552V22.72C137.716 23 138.276 23.42 138.687 23.98C139.116 24.54 139.331 25.184 139.331 25.912C139.331 26.752 139.107 27.48 138.659 28.096C138.229 28.712 137.669 29.188 136.979 29.524C136.288 29.8413 135.551 30 134.767 30H127.291ZM130.315 18.184V21.544H134.011C134.515 21.544 134.935 21.3853 135.271 21.068C135.607 20.7507 135.775 20.3493 135.775 19.864C135.775 19.36 135.607 18.9587 135.271 18.66C134.935 18.3427 134.515 18.184 134.011 18.184H130.315ZM130.315 27.48H134.459C135 27.48 135.448 27.312 135.803 26.976C136.176 26.6213 136.363 26.1733 136.363 25.632C136.363 25.1093 136.176 24.6707 135.803 24.316C135.448 23.9613 135 23.784 134.459 23.784H130.315V27.48ZM146.918 30.448C145.892 30.448 144.977 30.252 144.174 29.86C143.372 29.4493 142.746 28.88 142.298 28.152C141.85 27.424 141.626 26.5933 141.626 25.66C141.626 24.652 141.888 23.7933 142.41 23.084C142.952 22.356 143.67 21.8053 144.566 21.432C145.462 21.0587 146.452 20.872 147.534 20.872C148.43 20.872 149.214 20.956 149.886 21.124C150.577 21.292 151.1 21.4693 151.454 21.656V20.9C151.454 19.9667 151.118 19.22 150.446 18.66C149.774 18.1 148.906 17.82 147.842 17.82C147.114 17.82 146.424 17.988 145.77 18.324C145.117 18.6413 144.594 19.08 144.202 19.64L142.13 18.044C142.746 17.1853 143.558 16.5133 144.566 16.028C145.593 15.524 146.713 15.272 147.926 15.272C149.998 15.272 151.594 15.7853 152.714 16.812C153.834 17.82 154.394 19.2387 154.394 21.068V30H151.454V28.236H151.286C150.913 28.8147 150.353 29.328 149.606 29.776C148.86 30.224 147.964 30.448 146.918 30.448ZM147.45 27.984C148.234 27.984 148.925 27.7973 149.522 27.424C150.12 27.0507 150.586 26.5653 150.922 25.968C151.277 25.352 151.454 24.6893 151.454 23.98C151.025 23.7373 150.521 23.5413 149.942 23.392C149.364 23.224 148.748 23.14 148.094 23.14C146.862 23.14 145.985 23.392 145.462 23.896C144.94 24.3813 144.678 24.9787 144.678 25.688C144.678 26.36 144.93 26.9107 145.434 27.34C145.938 27.7693 146.61 27.984 147.45 27.984ZM161.171 30V18.352H156.467V15.72H168.871V18.352H164.167V30H161.171ZM171.64 30V15.72H174.664V23.028L174.496 25.716H174.664L181.804 15.72H184.8V30H181.804V22.72L181.972 20.032H181.804L174.664 30H171.64ZM203.686 30V24.848C203.294 25.128 202.799 25.352 202.202 25.52C201.605 25.6693 200.951 25.744 200.242 25.744C198.599 25.744 197.283 25.268 196.294 24.316C195.323 23.364 194.838 22.076 194.838 20.452V15.72H197.862V20.144C197.862 21.04 198.114 21.7493 198.618 22.272C199.141 22.776 199.869 23.028 200.802 23.028C201.381 23.028 201.922 22.944 202.426 22.776C202.949 22.5893 203.369 22.3467 203.686 22.048V15.72H206.682V30H203.686ZM216.935 30.448C215.535 30.448 214.284 30.1213 213.183 29.468C212.082 28.8147 211.214 27.9187 210.579 26.78C209.963 25.6413 209.655 24.344 209.655 22.888C209.655 21.5253 209.954 20.2653 210.551 19.108C211.148 17.9507 211.979 17.0267 213.043 16.336C214.126 15.6267 215.367 15.272 216.767 15.272C218.242 15.272 219.492 15.5893 220.519 16.224C221.564 16.8587 222.358 17.7267 222.899 18.828C223.44 19.9293 223.711 21.1707 223.711 22.552C223.711 22.7573 223.702 22.944 223.683 23.112C223.683 23.28 223.674 23.4107 223.655 23.504H212.623C212.772 24.9227 213.267 25.9867 214.107 26.696C214.966 27.4053 215.936 27.76 217.019 27.76C217.99 27.76 218.792 27.5453 219.427 27.116C220.062 26.668 220.566 26.1173 220.939 25.464L223.431 26.668C222.815 27.788 221.975 28.7027 220.911 29.412C219.847 30.1027 218.522 30.448 216.935 30.448ZM216.795 17.848C215.787 17.848 214.928 18.156 214.219 18.772C213.51 19.388 213.034 20.2093 212.791 21.236H220.715C220.678 20.7507 220.519 20.2467 220.239 19.724C219.959 19.2013 219.53 18.7627 218.951 18.408C218.391 18.0347 217.672 17.848 216.795 17.848ZM226.788 36.048V15.72H229.616V17.652H229.784C230.158 17.036 230.736 16.4853 231.52 16C232.323 15.5147 233.275 15.272 234.376 15.272C235.683 15.272 236.85 15.5987 237.876 16.252C238.903 16.9053 239.715 17.8013 240.312 18.94C240.928 20.0787 241.236 21.3853 241.236 22.86C241.236 24.3347 240.928 25.6507 240.312 26.808C239.715 27.9467 238.903 28.8427 237.876 29.496C236.85 30.1307 235.683 30.448 234.376 30.448C233.275 30.448 232.323 30.2147 231.52 29.748C230.736 29.2627 230.158 28.712 229.784 28.096H229.616L229.784 30.084V36.048H226.788ZM233.928 27.676C234.675 27.676 235.375 27.48 236.028 27.088C236.682 26.696 237.214 26.1453 237.624 25.436C238.035 24.708 238.24 23.8493 238.24 22.86C238.24 21.8707 238.035 21.0213 237.624 20.312C237.214 19.584 236.682 19.024 236.028 18.632C235.375 18.24 234.675 18.044 233.928 18.044C233.182 18.044 232.482 18.24 231.828 18.632C231.175 19.024 230.643 19.584 230.232 20.312C229.822 21.0213 229.616 21.8707 229.616 22.86C229.616 23.8493 229.822 24.708 230.232 25.436C230.643 26.1453 231.175 26.696 231.828 27.088C232.482 27.48 233.182 27.676 233.928 27.676ZM250.785 30.448C249.385 30.448 248.134 30.1213 247.033 29.468C245.932 28.8147 245.064 27.9187 244.429 26.78C243.813 25.6413 243.505 24.344 243.505 22.888C243.505 21.5253 243.804 20.2653 244.401 19.108C244.998 17.9507 245.829 17.0267 246.893 16.336C247.976 15.6267 249.217 15.272 250.617 15.272C252.092 15.272 253.342 15.5893 254.369 16.224C255.414 16.8587 256.208 17.7267 256.749 18.828C257.29 19.9293 257.561 21.1707 257.561 22.552C257.561 22.7573 257.552 22.944 257.533 23.112C257.533 23.28 257.524 23.4107 257.505 23.504H246.473C246.622 24.9227 247.117 25.9867 247.957 26.696C248.816 27.4053 249.786 27.76 250.869 27.76C251.84 27.76 252.642 27.5453 253.277 27.116C253.912 26.668 254.416 26.1173 254.789 25.464L257.281 26.668C256.665 27.788 255.825 28.7027 254.761 29.412C253.697 30.1027 252.372 30.448 250.785 30.448ZM250.645 17.848C249.637 17.848 248.778 18.156 248.069 18.772C247.36 19.388 246.884 20.2093 246.641 21.236H254.565C254.528 20.7507 254.369 20.2467 254.089 19.724C253.809 19.2013 253.38 18.7627 252.801 18.408C252.241 18.0347 251.522 17.848 250.645 17.848ZM265.215 30.448C264.431 30.448 263.647 30.3547 262.863 30.168C262.079 29.9813 261.342 29.664 260.651 29.216C259.979 28.7493 259.419 28.1053 258.971 27.284L261.379 25.884C261.902 26.612 262.499 27.116 263.171 27.396C263.862 27.6573 264.543 27.788 265.215 27.788C266.186 27.788 266.923 27.6013 267.427 27.228C267.931 26.8547 268.183 26.3693 268.183 25.772C268.183 25.2493 267.95 24.8293 267.483 24.512C267.035 24.176 266.401 24.008 265.579 24.008H263.255V21.628H265.579C266.289 21.628 266.83 21.46 267.203 21.124C267.595 20.788 267.791 20.3587 267.791 19.836C267.791 19.22 267.53 18.7347 267.007 18.38C266.485 18.0067 265.822 17.82 265.019 17.82C264.31 17.82 263.629 17.9693 262.975 18.268C262.322 18.548 261.827 18.9307 261.491 19.416L259.251 17.932C259.905 17.1107 260.726 16.4667 261.715 16C262.723 15.5147 263.834 15.272 265.047 15.272C266.093 15.272 267.035 15.4493 267.875 15.804C268.734 16.1587 269.406 16.6533 269.891 17.288C270.395 17.904 270.647 18.6227 270.647 19.444C270.647 20.1533 270.47 20.788 270.115 21.348C269.761 21.8893 269.294 22.3 268.715 22.58V22.748C269.443 23.0467 270.031 23.4947 270.479 24.092C270.927 24.6893 271.151 25.3707 271.151 26.136C271.151 26.976 270.909 27.7227 270.423 28.376C269.938 29.0107 269.247 29.5147 268.351 29.888C267.455 30.2613 266.41 30.448 265.215 30.448Z" fill="#3C4043"/>
<g id="GPay Logo (Light)">
<g id="GPay">
<g id="Pay">
<path id="Fill 1" fill-rule="evenodd" clip-rule="evenodd" d="M322.529 9.44664V17.6128H327.565C328.765 17.6128 329.757 17.2096 330.541 16.4032C331.347 15.5988 331.75 14.6394 331.75 13.5288C331.75 12.4406 331.347 11.4924 330.541 10.686C329.757 9.85915 328.765 9.44478 327.565 9.44478H322.529V9.44664ZM322.529 20.4872V29.9599H319.521V6.57217H327.499C329.527 6.57217 331.248 7.24786 332.666 8.59737C334.105 9.94688 334.824 11.5913 334.824 13.5288C334.824 15.511 334.105 17.1667 332.666 18.4938C331.27 19.8227 329.547 20.4854 327.499 20.4854H322.529V20.4872Z" fill="#5F6368"/>
<path id="Fill 3" fill-rule="evenodd" clip-rule="evenodd" d="M337.864 25.0602C337.864 25.8442 338.197 26.4975 338.862 27.0201C339.527 27.5427 340.306 27.804 341.2 27.804C342.465 27.804 343.591 27.3354 344.584 26.4004C345.576 25.4634 346.071 24.364 346.071 23.1022C345.133 22.3612 343.825 21.9916 342.147 21.9916C340.925 21.9916 339.907 22.2865 339.09 22.8745C338.273 23.4623 337.864 24.1886 337.864 25.0602ZM341.756 13.4317C343.98 13.4317 345.735 14.0252 347.022 15.2124C348.308 16.3995 348.95 18.0271 348.95 20.0952V29.9599H346.073V27.7387H345.942C344.699 29.5677 343.042 30.4825 340.972 30.4825C339.206 30.4825 337.728 29.9599 336.541 28.9146C335.353 27.8694 334.759 26.5628 334.759 24.9949C334.759 23.3393 335.385 22.0232 336.638 21.0434C337.892 20.0635 339.565 19.5726 341.658 19.5726C343.444 19.5726 344.916 19.8992 346.071 20.5525V19.8656C346.071 18.8204 345.656 17.9338 344.829 17.204C343.999 16.4741 343.031 16.1102 341.919 16.1102C340.239 16.1102 338.911 16.8176 337.93 18.2343L335.28 16.5675C336.741 14.4769 338.899 13.4317 341.756 13.4317Z" fill="#5F6368"/>
<path id="Fill 5" fill-rule="evenodd" clip-rule="evenodd" d="M365.463 13.9543L355.424 37.0154H352.318L356.046 28.9464L349.44 13.9543H352.71L357.484 25.4522H357.55L362.193 13.9543H365.463Z" fill="#5F6368"/>
</g>
<g id="G">
<path id="Fill 8" fill-rule="evenodd" clip-rule="evenodd" d="M310.373 18.4452C310.373 17.4989 310.293 16.5861 310.141 15.7126H297.454V20.8885H304.72C304.408 22.5757 303.465 24.0112 302.033 24.9725V28.3341H306.37C308.91 25.9935 310.373 22.5348 310.373 18.4452Z" fill="#4285F4"/>
<path id="Fill 10" fill-rule="evenodd" clip-rule="evenodd" d="M297.454 31.5782C301.084 31.5782 304.141 30.3873 306.37 28.3341L302.033 24.9725C300.826 25.7844 299.272 26.2585 297.454 26.2585C293.944 26.2585 290.966 23.8955 289.901 20.7112H285.433V24.1736C287.647 28.5637 292.197 31.5782 297.454 31.5782Z" fill="#34A853"/>
<path id="Fill 12" fill-rule="evenodd" clip-rule="evenodd" d="M289.901 20.7111C289.628 19.8992 289.479 19.0331 289.479 18.139C289.479 17.245 289.628 16.3789 289.901 15.567V12.1045H285.433C284.518 13.9188 284 15.9683 284 18.139C284 20.3098 284.518 22.3595 285.433 24.1736L289.901 20.7111Z" fill="#FABB05"/>
<path id="Fill 14" fill-rule="evenodd" clip-rule="evenodd" d="M297.454 10.0196C299.436 10.0196 301.213 10.7009 302.615 12.0355V12.0374L306.455 8.20162C304.123 6.03271 301.082 4.7 297.454 4.7C292.197 4.7 287.647 7.71446 285.433 12.1046L289.901 15.567C290.966 12.3827 293.944 10.0196 297.454 10.0196Z" fill="#E94235"/>
</g>
</g>
</g>
</g>
</svg>
