<svg width="215" height="21" viewBox="0 0 215 21" fill="none" xmlns="http://www.w3.org/2000/svg">
<g id="uk_book_with_Pay_NBG">
<path id="Left Text" d="M5.87138 15.2566C5.16738 15.2566 4.52738 15.1446 3.95138 14.9206C3.38605 14.6966 2.90071 14.3819 2.49538 13.9766C2.10071 13.5713 1.81271 13.1019 1.63138 12.5686L3.11938 11.7846C3.35405 12.3179 3.69538 12.7606 4.14338 13.1126C4.60205 13.4539 5.18338 13.6246 5.88738 13.6246C6.31405 13.6246 6.70338 13.5553 7.05538 13.4166C7.41805 13.2779 7.70605 13.0646 7.91938 12.7766C8.13271 12.4886 8.23938 12.1366 8.23938 11.7206C8.23938 11.1766 8.04738 10.7233 7.66338 10.3606C7.29005 9.98728 6.75671 9.80061 6.06338 9.80061H4.51138V8.23261H6.06338C6.65005 8.23261 7.09271 8.07794 7.39138 7.76861C7.69005 7.44861 7.83938 7.04861 7.83938 6.56861C7.83938 6.01394 7.65805 5.59261 7.29538 5.30461C6.93271 5.01661 6.43138 4.87261 5.79138 4.87261C5.22605 4.87261 4.71938 4.98994 4.27138 5.22461C3.83405 5.45928 3.50338 5.78461 3.27938 6.20061L1.83938 5.51261C2.07405 5.04328 2.37805 4.64328 2.75138 4.31261C3.12471 3.98194 3.56738 3.73128 4.07938 3.56061C4.60205 3.37928 5.17271 3.28861 5.79138 3.28861C6.57005 3.28861 7.24205 3.42194 7.80738 3.68861C8.38338 3.94461 8.82605 4.30728 9.13538 4.77661C9.44471 5.24594 9.59938 5.78461 9.59938 6.39261C9.59938 6.93661 9.46071 7.42728 9.18338 7.86461C8.91671 8.29128 8.51671 8.63261 7.98338 8.88861V8.98461C8.58071 9.22994 9.06605 9.58194 9.43938 10.0406C9.81271 10.4993 9.99938 11.0699 9.99938 11.7526C9.99938 12.3926 9.83405 12.9793 9.50338 13.5126C9.17271 14.0459 8.69805 14.4726 8.07938 14.7926C7.46071 15.1019 6.72471 15.2566 5.87138 15.2566ZM14.3961 15.2566C13.8095 15.2566 13.2868 15.1393 12.8281 14.9046C12.3801 14.6699 12.0228 14.3499 11.7561 13.9446C11.5001 13.5286 11.3721 13.0539 11.3721 12.5206C11.3721 11.9339 11.5215 11.4379 11.8201 11.0326C12.1295 10.6273 12.5401 10.3179 13.0521 10.1046C13.5641 9.89128 14.1295 9.78461 14.7481 9.78461C15.0895 9.78461 15.4041 9.81128 15.6921 9.86461C15.9908 9.90728 16.2468 9.96061 16.4601 10.0246C16.6841 10.0886 16.8601 10.1579 16.9881 10.2326V9.80061C16.9881 9.26728 16.7961 8.84061 16.4121 8.52061C16.0281 8.20061 15.5321 8.04061 14.9241 8.04061C14.5081 8.04061 14.1135 8.13661 13.7401 8.32861C13.3668 8.50994 13.0681 8.76061 12.8441 9.08061L11.6601 8.16861C11.8948 7.83794 12.1775 7.55528 12.5081 7.32061C12.8495 7.08594 13.2281 6.90461 13.6441 6.77661C14.0708 6.64861 14.5135 6.58461 14.9721 6.58461C16.1561 6.58461 17.0681 6.87794 17.7081 7.46461C18.3481 8.04061 18.6681 8.85128 18.6681 9.89661V15.0006H16.9881V13.9926H16.8921C16.7535 14.2059 16.5615 14.4086 16.3161 14.6006C16.0815 14.7926 15.7988 14.9473 15.4681 15.0646C15.1481 15.1926 14.7908 15.2566 14.3961 15.2566ZM14.7001 13.8486C15.1481 13.8486 15.5428 13.7419 15.8841 13.5286C16.2361 13.3153 16.5081 13.0379 16.7001 12.6966C16.8921 12.3446 16.9881 11.9659 16.9881 11.5606C16.7535 11.4219 16.4655 11.3099 16.1241 11.2246C15.7935 11.1286 15.4415 11.0806 15.0681 11.0806C14.3641 11.0806 13.8628 11.2193 13.5641 11.4966C13.2655 11.7739 13.1161 12.1206 13.1161 12.5366C13.1161 12.9206 13.2601 13.2353 13.5481 13.4806C13.8361 13.7259 14.2201 13.8486 14.7001 13.8486ZM24.5925 15.2566C23.7925 15.2566 23.0832 15.0699 22.4645 14.6966C21.8565 14.3233 21.3765 13.7633 21.0245 13.0166C20.6725 12.2699 20.4965 11.3259 20.4965 10.1846C20.4965 9.40594 20.5445 8.71794 20.6405 8.12061C20.7472 7.52328 20.9125 7.00594 21.1365 6.56861C21.3605 6.13128 21.6538 5.75794 22.0165 5.44861C22.3578 5.16061 22.7792 4.92061 23.2805 4.72861C23.7925 4.53661 24.4272 4.38194 25.1845 4.26461C25.5898 4.20061 25.8778 4.13661 26.0485 4.07261C26.2298 4.00861 26.3418 3.93394 26.3845 3.84861C26.4378 3.76328 26.4645 3.66194 26.4645 3.54461H28.0325C28.0325 4.02461 27.9578 4.40861 27.8085 4.69661C27.6698 4.97394 27.4138 5.18728 27.0405 5.33661C26.6778 5.47528 26.1605 5.59794 25.4885 5.70461C25.0192 5.77928 24.6245 5.85928 24.3045 5.94461C23.9952 6.02994 23.7338 6.13128 23.5205 6.24861C23.3178 6.35528 23.1365 6.47261 22.9765 6.60061C22.6992 6.82461 22.4858 7.08061 22.3365 7.36861C22.1872 7.65661 22.0805 8.00861 22.0165 8.42461H22.1125C22.2725 8.16861 22.4858 7.94461 22.7525 7.75261C23.0298 7.54994 23.3498 7.39528 23.7125 7.28861C24.0752 7.17128 24.4698 7.11261 24.8965 7.11261C25.6538 7.11261 26.3205 7.28861 26.8965 7.64061C27.4725 7.98194 27.9205 8.45128 28.2405 9.04861C28.5712 9.63528 28.7365 10.3126 28.7365 11.0806C28.7365 11.8699 28.5605 12.5846 28.2085 13.2246C27.8565 13.8539 27.3712 14.3499 26.7525 14.7126C26.1338 15.0753 25.4138 15.2566 24.5925 15.2566ZM24.6085 13.7046C25.3018 13.7046 25.8725 13.4699 26.3205 13.0006C26.7792 12.5313 27.0085 11.8806 27.0085 11.0486C27.0085 10.2913 26.7792 9.69928 26.3205 9.27261C25.8725 8.84594 25.3018 8.63261 24.6085 8.63261C24.1712 8.63261 23.7712 8.72861 23.4085 8.92061C23.0458 9.11261 22.7578 9.38994 22.5445 9.75261C22.3312 10.1046 22.2245 10.5366 22.2245 11.0486C22.2245 11.8806 22.4485 12.5313 22.8965 13.0006C23.3552 13.4699 23.9258 13.7046 24.6085 13.7046ZM30.4483 18.4566V6.84061H32.0643V7.94461H32.1603C32.3096 7.70994 32.5069 7.49128 32.7523 7.28861C33.0083 7.07528 33.3069 6.90461 33.6483 6.77661C33.9896 6.64861 34.3683 6.58461 34.7843 6.58461C35.5309 6.58461 36.1976 6.77128 36.7843 7.14461C37.3709 7.51794 37.8349 8.02994 38.1763 8.68061C38.5283 9.33128 38.7043 10.0779 38.7043 10.9206C38.7043 11.7633 38.5283 12.5099 38.1763 13.1606C37.8349 13.8113 37.3709 14.3233 36.7843 14.6966C36.1976 15.0699 35.5309 15.2566 34.7843 15.2566C34.1656 15.2566 33.6269 15.1179 33.1683 14.8406C32.7096 14.5633 32.3736 14.2539 32.1603 13.9126H32.0643L32.1603 15.0486V18.4566H30.4483ZM34.5283 13.6726C34.9549 13.6726 35.3549 13.5606 35.7283 13.3366C36.1123 13.1126 36.4163 12.7926 36.6403 12.3766C36.8749 11.9606 36.9923 11.4753 36.9923 10.9206C36.9923 10.3553 36.8749 9.86994 36.6403 9.46461C36.4163 9.04861 36.1123 8.72861 35.7283 8.50461C35.3549 8.28061 34.9549 8.16861 34.5283 8.16861C34.1016 8.16861 33.7016 8.28061 33.3283 8.50461C32.9549 8.72861 32.6509 9.04861 32.4163 9.46461C32.1816 9.86994 32.0643 10.3553 32.0643 10.9206C32.0643 11.4859 32.1816 11.9766 32.4163 12.3926C32.6509 12.7979 32.9549 13.1126 33.3283 13.3366C33.7016 13.5606 34.1016 13.6726 34.5283 13.6726ZM44.2511 15.2566C43.4085 15.2566 42.6671 15.0646 42.0271 14.6806C41.3871 14.2966 40.8858 13.7793 40.5231 13.1286C40.1605 12.4673 39.9791 11.7313 39.9791 10.9206C39.9791 10.1099 40.1605 9.37928 40.5231 8.72861C40.8858 8.06728 41.3871 7.54461 42.0271 7.16061C42.6671 6.77661 43.4085 6.58461 44.2511 6.58461C45.0831 6.58461 45.8191 6.78194 46.4591 7.17661C47.0991 7.56061 47.6005 8.07794 47.9631 8.72861C48.3258 9.37928 48.5071 10.1099 48.5071 10.9206C48.5071 11.7313 48.3258 12.4673 47.9631 13.1286C47.6005 13.7793 47.0991 14.2966 46.4591 14.6806C45.8191 15.0646 45.0831 15.2566 44.2511 15.2566ZM44.2511 13.6726C44.6991 13.6726 45.1151 13.5659 45.4991 13.3526C45.8831 13.1286 46.1925 12.8139 46.4271 12.4086C46.6725 11.9926 46.7951 11.4966 46.7951 10.9206C46.7951 10.3446 46.6725 9.85394 46.4271 9.44861C46.1925 9.03261 45.8831 8.71794 45.4991 8.50461C45.1151 8.28061 44.6991 8.16861 44.2511 8.16861C43.8031 8.16861 43.3818 8.28061 42.9871 8.50461C42.6031 8.71794 42.2885 9.03261 42.0431 9.44861C41.8085 9.85394 41.6911 10.3446 41.6911 10.9206C41.6911 11.4966 41.8085 11.9926 42.0431 12.4086C42.2885 12.8139 42.6085 13.1286 43.0031 13.3526C43.3978 13.5659 43.8138 13.6726 44.2511 13.6726ZM50.0924 15.0006V6.84061H51.8204V10.1206H55.6924V6.84061H57.4204V15.0006H55.6924V11.6246H51.8204V15.0006H50.0924ZM59.5861 15.0006V6.84061H61.3141V10.1206H62.7861C62.8608 9.60861 63.0155 9.13394 63.2501 8.69661C63.6021 8.04594 64.0875 7.53394 64.7061 7.16061C65.3248 6.77661 66.0341 6.58461 66.8341 6.58461C67.6341 6.58461 68.3381 6.78194 68.9461 7.17661C69.5648 7.56061 70.0501 8.07794 70.4021 8.72861C70.7541 9.37928 70.9301 10.1099 70.9301 10.9206C70.9301 11.7313 70.7541 12.4673 70.4021 13.1286C70.0608 13.7793 69.5808 14.2966 68.9621 14.6806C68.3541 15.0646 67.6448 15.2566 66.8341 15.2566C66.0341 15.2566 65.3195 15.0699 64.6901 14.6966C64.0608 14.3126 63.5755 13.7899 63.2341 13.1286C62.9888 12.6699 62.8288 12.1686 62.7541 11.6246H61.3141V15.0006H59.5861ZM66.8341 13.6726C67.2501 13.6726 67.6395 13.5659 68.0021 13.3526C68.3648 13.1286 68.6581 12.8139 68.8821 12.4086C69.1061 11.9926 69.2181 11.4966 69.2181 10.9206C69.2181 10.3446 69.1061 9.85394 68.8821 9.44861C68.6581 9.03261 68.3648 8.71794 68.0021 8.50461C67.6395 8.28061 67.2448 8.16861 66.8181 8.16861C66.4021 8.16861 66.0128 8.28061 65.6501 8.50461C65.2875 8.71794 64.9941 9.03261 64.7701 9.44861C64.5461 9.85394 64.4341 10.3446 64.4341 10.9206C64.4341 11.4966 64.5461 11.9926 64.7701 12.4086C64.9941 12.8139 65.2875 13.1286 65.6501 13.3526C66.0128 13.5659 66.4075 13.6726 66.8341 13.6726ZM72.5018 15.0006V6.84061H76.5498C77.0298 6.84061 77.4564 6.93661 77.8298 7.12861C78.2138 7.30994 78.5124 7.56061 78.7258 7.88061C78.9498 8.20061 79.0618 8.55794 79.0618 8.95261C79.0618 9.37928 78.9658 9.74728 78.7738 10.0566C78.5924 10.3659 78.3524 10.5953 78.0538 10.7446V10.8406C78.4591 11.0006 78.7791 11.2406 79.0138 11.5606C79.2591 11.8806 79.3818 12.2486 79.3818 12.6646C79.3818 13.1446 79.2538 13.5606 78.9978 13.9126C78.7524 14.2646 78.4324 14.5366 78.0378 14.7286C77.6431 14.9099 77.2218 15.0006 76.7738 15.0006H72.5018ZM74.2298 11.4486V13.5606H76.5978C76.9071 13.5606 77.1631 13.4646 77.3658 13.2726C77.5791 13.0699 77.6858 12.8139 77.6858 12.5046C77.6858 12.2059 77.5791 11.9553 77.3658 11.7526C77.1631 11.5499 76.9071 11.4486 76.5978 11.4486H74.2298ZM74.2298 8.24861V10.1686H76.3418C76.6298 10.1686 76.8698 10.0779 77.0618 9.89661C77.2538 9.71528 77.3498 9.48594 77.3498 9.20861C77.3498 8.92061 77.2538 8.69128 77.0618 8.52061C76.8698 8.33928 76.6298 8.24861 76.3418 8.24861H74.2298ZM83.6961 15.2566C83.1095 15.2566 82.5868 15.1393 82.1281 14.9046C81.6801 14.6699 81.3228 14.3499 81.0561 13.9446C80.8001 13.5286 80.6721 13.0539 80.6721 12.5206C80.6721 11.9339 80.8215 11.4379 81.1201 11.0326C81.4295 10.6273 81.8401 10.3179 82.3521 10.1046C82.8641 9.89128 83.4295 9.78461 84.0481 9.78461C84.3895 9.78461 84.7041 9.81128 84.9921 9.86461C85.2908 9.90728 85.5468 9.96061 85.7601 10.0246C85.9841 10.0886 86.1601 10.1579 86.2881 10.2326V9.80061C86.2881 9.26728 86.0961 8.84061 85.7121 8.52061C85.3281 8.20061 84.8321 8.04061 84.2241 8.04061C83.8081 8.04061 83.4135 8.13661 83.0401 8.32861C82.6668 8.50994 82.3681 8.76061 82.1441 9.08061L80.9601 8.16861C81.1948 7.83794 81.4775 7.55528 81.8081 7.32061C82.1495 7.08594 82.5281 6.90461 82.9441 6.77661C83.3708 6.64861 83.8135 6.58461 84.2721 6.58461C85.4561 6.58461 86.3681 6.87794 87.0081 7.46461C87.6481 8.04061 87.9681 8.85128 87.9681 9.89661V15.0006H86.2881V13.9926H86.1921C86.0535 14.2059 85.8615 14.4086 85.6161 14.6006C85.3815 14.7926 85.0988 14.9473 84.7681 15.0646C84.4481 15.1926 84.0908 15.2566 83.6961 15.2566ZM84.0001 13.8486C84.4481 13.8486 84.8428 13.7419 85.1841 13.5286C85.5361 13.3153 85.8081 13.0379 86.0001 12.6966C86.1921 12.3446 86.2881 11.9659 86.2881 11.5606C86.0535 11.4219 85.7655 11.3099 85.4241 11.2246C85.0935 11.1286 84.7415 11.0806 84.3681 11.0806C83.6641 11.0806 83.1628 11.2193 82.8641 11.4966C82.5655 11.7739 82.4161 12.1206 82.4161 12.5366C82.4161 12.9206 82.5601 13.2353 82.8481 13.4806C83.1361 13.7259 83.5201 13.8486 84.0001 13.8486ZM91.8193 15.0006V8.34461H89.1313V6.84061H96.2193V8.34461H93.5313V15.0006H91.8193ZM97.7799 15.0006V6.84061H99.5079V11.0166L99.4119 12.5526H99.5079L103.588 6.84061H105.3V15.0006H103.588V10.8406L103.684 9.30461H103.588L99.5079 15.0006H97.7799ZM116.049 15.0006V12.0566C115.825 12.2166 115.542 12.3446 115.201 12.4406C114.86 12.5259 114.486 12.5686 114.081 12.5686C113.142 12.5686 112.39 12.2966 111.825 11.7526C111.27 11.2086 110.993 10.4726 110.993 9.54461V6.84061H112.721V9.36861C112.721 9.88061 112.865 10.2859 113.153 10.5846C113.452 10.8726 113.868 11.0166 114.401 11.0166C114.721 11.0166 115.03 10.9686 115.329 10.8726C115.638 10.7659 115.878 10.6273 116.049 10.4566V6.84061H117.761V15.0006H116.049ZM123.599 15.2566C122.799 15.2566 122.084 15.0699 121.455 14.6966C120.825 14.3233 120.329 13.8113 119.967 13.1606C119.615 12.5099 119.439 11.7686 119.439 10.9366C119.439 10.1579 119.609 9.43794 119.951 8.77661C120.292 8.11528 120.767 7.58728 121.375 7.19261C121.993 6.78728 122.703 6.58461 123.503 6.58461C124.345 6.58461 125.06 6.76594 125.647 7.12861C126.244 7.49128 126.697 7.98728 127.007 8.61661C127.316 9.24594 127.471 9.95528 127.471 10.7446C127.471 10.8619 127.465 10.9686 127.455 11.0646C127.455 11.1606 127.449 11.2353 127.439 11.2886H121.135C121.177 11.7366 121.289 12.1259 121.471 12.4566C121.705 12.8726 122.015 13.1873 122.399 13.4006C122.783 13.6139 123.199 13.7206 123.647 13.7206C124.191 13.7206 124.644 13.5979 125.007 13.3526C125.38 13.0966 125.673 12.7819 125.887 12.4086L127.311 13.0966C126.959 13.7366 126.479 14.2593 125.871 14.6646C125.263 15.0593 124.505 15.2566 123.599 15.2566ZM121.231 9.99261H125.759C125.748 9.78994 125.695 9.57661 125.599 9.35261C125.503 9.11794 125.364 8.90461 125.183 8.71261C125.001 8.52061 124.772 8.36594 124.495 8.24861C124.217 8.12061 123.892 8.05661 123.519 8.05661C123.049 8.05661 122.633 8.17928 122.271 8.42461C121.908 8.65928 121.625 8.98994 121.423 9.41661C121.337 9.59794 121.273 9.78994 121.231 9.99261ZM129.208 18.4566V6.84061H130.824V7.94461H130.92C131.069 7.70994 131.266 7.49128 131.512 7.28861C131.768 7.07528 132.066 6.90461 132.408 6.77661C132.749 6.64861 133.128 6.58461 133.544 6.58461C134.29 6.58461 134.957 6.77128 135.544 7.14461C136.13 7.51794 136.594 8.02994 136.936 8.68061C137.288 9.33128 137.464 10.0779 137.464 10.9206C137.464 11.7633 137.288 12.5099 136.936 13.1606C136.594 13.8113 136.13 14.3233 135.544 14.6966C134.957 15.0699 134.29 15.2566 133.544 15.2566C132.925 15.2566 132.386 15.1179 131.928 14.8406C131.469 14.5633 131.133 14.2539 130.92 13.9126H130.824L130.92 15.0486V18.4566H129.208ZM133.288 13.6726C133.714 13.6726 134.114 13.5606 134.488 13.3366C134.872 13.1126 135.176 12.7926 135.4 12.3766C135.634 11.9606 135.752 11.4753 135.752 10.9206C135.752 10.3553 135.634 9.86994 135.4 9.46461C135.176 9.04861 134.872 8.72861 134.488 8.50461C134.114 8.28061 133.714 8.16861 133.288 8.16861C132.861 8.16861 132.461 8.28061 132.088 8.50461C131.714 8.72861 131.41 9.04861 131.176 9.46461C130.941 9.86994 130.824 10.3553 130.824 10.9206C130.824 11.4859 130.941 11.9766 131.176 12.3926C131.41 12.7979 131.714 13.1126 132.088 13.3366C132.461 13.5606 132.861 13.6726 133.288 13.6726ZM142.899 15.2566C142.099 15.2566 141.384 15.0699 140.755 14.6966C140.125 14.3233 139.629 13.8113 139.267 13.1606C138.915 12.5099 138.739 11.7686 138.739 10.9366C138.739 10.1579 138.909 9.43794 139.251 8.77661C139.592 8.11528 140.067 7.58728 140.675 7.19261C141.293 6.78728 142.003 6.58461 142.803 6.58461C143.645 6.58461 144.36 6.76594 144.947 7.12861C145.544 7.49128 145.997 7.98728 146.307 8.61661C146.616 9.24594 146.771 9.95528 146.771 10.7446C146.771 10.8619 146.765 10.9686 146.755 11.0646C146.755 11.1606 146.749 11.2353 146.739 11.2886H140.435C140.477 11.7366 140.589 12.1259 140.771 12.4566C141.005 12.8726 141.315 13.1873 141.699 13.4006C142.083 13.6139 142.499 13.7206 142.947 13.7206C143.491 13.7206 143.944 13.5979 144.307 13.3526C144.68 13.0966 144.973 12.7819 145.187 12.4086L146.611 13.0966C146.259 13.7366 145.779 14.2593 145.171 14.6646C144.563 15.0593 143.805 15.2566 142.899 15.2566ZM140.531 9.99261H145.059C145.048 9.78994 144.995 9.57661 144.899 9.35261C144.803 9.11794 144.664 8.90461 144.483 8.71261C144.301 8.52061 144.072 8.36594 143.795 8.24861C143.517 8.12061 143.192 8.05661 142.819 8.05661C142.349 8.05661 141.933 8.17928 141.571 8.42461C141.208 8.65928 140.925 8.98994 140.723 9.41661C140.637 9.59794 140.573 9.78994 140.531 9.99261ZM151.123 15.2566C150.686 15.2566 150.238 15.2033 149.779 15.0966C149.331 14.9899 148.915 14.8086 148.531 14.5526C148.147 14.2859 147.822 13.9179 147.555 13.4486L148.931 12.6486C149.23 13.0646 149.571 13.3526 149.955 13.5126C150.35 13.6619 150.739 13.7366 151.123 13.7366C151.678 13.7366 152.099 13.6299 152.387 13.4166C152.675 13.2033 152.819 12.9259 152.819 12.5846C152.819 12.2859 152.686 12.0459 152.419 11.8646C152.163 11.6726 151.8 11.5766 151.331 11.5766H150.003V10.2166H151.331C151.736 10.2166 152.046 10.1206 152.259 9.92861C152.483 9.73661 152.595 9.49128 152.595 9.19261C152.595 8.84061 152.446 8.56328 152.147 8.36061C151.848 8.14728 151.47 8.04061 151.011 8.04061C150.606 8.04061 150.216 8.12594 149.843 8.29661C149.47 8.45661 149.187 8.67528 148.995 8.95261L147.715 8.10461C147.96 7.78461 148.254 7.51261 148.595 7.28861C148.936 7.06461 149.31 6.89394 149.715 6.77661C150.131 6.64861 150.568 6.58461 151.027 6.58461C151.635 6.58461 152.179 6.68594 152.659 6.88861C153.139 7.09128 153.518 7.37394 153.795 7.73661C154.083 8.08861 154.227 8.49928 154.227 8.96861C154.227 9.37394 154.126 9.73661 153.923 10.0566C153.72 10.3766 153.454 10.6113 153.123 10.7606V10.8566C153.539 11.0273 153.875 11.2833 154.131 11.6246C154.387 11.9659 154.515 12.3553 154.515 12.7926C154.515 13.2726 154.371 13.6993 154.083 14.0726C153.806 14.4459 153.411 14.7393 152.899 14.9526C152.398 15.1553 151.806 15.2566 151.123 15.2566Z" fill="white"/>
<g id="GPay (Dark)">
<g id="GPay">
<g id="Pay">
<path id="Fill 1" fill-rule="evenodd" clip-rule="evenodd" d="M183.356 3.42339V8.16175H186.278C186.974 8.16175 187.55 7.92781 188.005 7.45993C188.473 6.99313 188.707 6.43644 188.707 5.79203C188.707 5.16061 188.473 4.61041 188.005 4.14254C187.55 3.66274 186.974 3.4223 186.278 3.4223H183.356V3.42339ZM183.356 9.82966V15.3262H181.611V1.75549H186.24C187.417 1.75549 188.415 2.14756 189.238 2.93061C190.073 3.71365 190.491 4.66782 190.491 5.79203C190.491 6.94224 190.073 7.90291 189.238 8.67296C188.428 9.44409 187.429 9.82858 186.24 9.82858H183.356V9.82966Z" fill="white"/>
<path id="Fill 3" fill-rule="evenodd" clip-rule="evenodd" d="M192.255 12.4831C192.255 12.9379 192.448 13.317 192.834 13.6203C193.22 13.9235 193.672 14.0752 194.19 14.0752C194.924 14.0752 195.578 13.8032 196.153 13.2607C196.729 12.717 197.017 12.0791 197.017 11.3469C196.472 10.917 195.713 10.7025 194.74 10.7025C194.031 10.7025 193.44 10.8736 192.966 11.2148C192.492 11.5559 192.255 11.9773 192.255 12.4831M194.513 5.73566C195.803 5.73566 196.821 6.08007 197.569 6.76889C198.314 7.45771 198.687 8.40213 198.687 9.60216V15.3261H197.018V14.0373H196.942C196.221 15.0985 195.259 15.6294 194.058 15.6294C193.033 15.6294 192.176 15.3261 191.487 14.7196C190.797 14.1131 190.453 13.3549 190.453 12.4452C190.453 11.4845 190.816 10.7208 191.543 10.1523C192.271 9.58375 193.241 9.2989 194.456 9.2989C195.492 9.2989 196.346 9.48844 197.017 9.86751V9.46894C197.017 8.86243 196.776 8.34798 196.296 7.92451C195.814 7.50103 195.252 7.28984 194.607 7.28984C193.633 7.28984 192.862 7.70032 192.293 8.52235L190.755 7.55519C191.603 6.34217 192.855 5.73566 194.513 5.73566" fill="white"/>
<path id="Fill 5" fill-rule="evenodd" clip-rule="evenodd" d="M208.269 6.03894L202.443 19.4201H200.641L202.804 14.738L198.971 6.03894H200.869L203.639 12.7106H203.677L206.371 6.03894H208.269Z" fill="white"/>
</g>
<g id="G">
<path id="Fill 8" fill-rule="evenodd" clip-rule="evenodd" d="M176.303 8.64473C176.303 8.09563 176.256 7.56601 176.168 7.05914H168.806V10.0625H173.023C172.842 11.0414 172.294 11.8744 171.464 12.4322V14.3828H173.98C175.454 13.0246 176.303 11.0177 176.303 8.64473" fill="#4285F4"/>
<path id="Fill 10" fill-rule="evenodd" clip-rule="evenodd" d="M168.806 16.2651C170.913 16.2651 172.687 15.5741 173.98 14.3828L171.464 12.4322C170.764 12.9033 169.861 13.1784 168.806 13.1784C166.77 13.1784 165.042 11.8073 164.424 9.95959H161.832V11.9687C163.116 14.516 165.757 16.2651 168.806 16.2651" fill="#34A853"/>
<path id="Fill 12" fill-rule="evenodd" clip-rule="evenodd" d="M164.424 9.9596C164.266 9.48847 164.179 8.98593 164.179 8.46715C164.179 7.94837 164.266 7.44583 164.424 6.9747V4.96564H161.832C161.3 6.01837 161 7.20756 161 8.46715C161 9.72674 161.3 10.916 161.832 11.9687L164.424 9.9596Z" fill="#FABB05"/>
<path id="Fill 14" fill-rule="evenodd" clip-rule="evenodd" d="M168.806 3.75583C169.957 3.75583 170.988 4.15115 171.801 4.92553V4.92661L174.029 2.70094C172.676 1.44243 170.912 0.669128 168.806 0.669128C165.757 0.669128 163.116 2.41826 161.832 4.9656L164.424 6.97467C165.042 5.12698 166.77 3.75583 168.806 3.75583" fill="#E94235"/>
</g>
</g>
</g>
</g>
</svg>
