<svg width="159" height="21" viewBox="0 0 159 21" fill="none" xmlns="http://www.w3.org/2000/svg">
<g id="uk_buy_with_Pay_NBG">
<path id="Left Text" d="M2.0835 15.0006V3.54461H3.8435V9.09661H3.9395L8.4995 3.54461H10.7075V3.64061L5.8755 9.36861L10.9635 14.9046V15.0006H8.6595L3.9395 9.75261H3.8435V15.0006H2.0835ZM14.4482 18.0566C14.4162 18.1313 14.3789 18.2059 14.3362 18.2806C14.3042 18.3659 14.2829 18.4246 14.2722 18.4566H12.4322C12.4856 18.3393 12.5602 18.1739 12.6562 17.9606C12.7629 17.7473 12.8642 17.5339 12.9602 17.3206C13.0242 17.1819 13.0882 17.0326 13.1522 16.8726C13.2269 16.7126 13.3016 16.5473 13.3762 16.3766C13.4616 16.2059 13.5416 16.0406 13.6162 15.8806L14.2242 14.5526L10.8162 6.84061H12.7362L15.0722 12.4086H15.1522L17.4082 6.84061H19.3122L15.0882 16.5686C15.0136 16.7499 14.9282 16.9419 14.8322 17.1446C14.7469 17.3473 14.6669 17.5286 14.5922 17.6886C14.5282 17.8593 14.4802 17.9819 14.4482 18.0566ZM20.7049 15.0006V6.84061H27.8729V15.0006H26.1449V8.34461H22.4329V15.0006H20.7049ZM30.0424 15.0006V6.84061H31.7704V11.0166L31.6744 12.5526H31.7704L35.8504 6.84061H37.5624V15.0006H35.8504V10.8406L35.9464 9.30461H35.8504L31.7704 15.0006H30.0424ZM41.8192 15.0006V8.34461H39.1312V6.84061H46.2192V8.34461H43.5312V15.0006H41.8192ZM47.7799 15.0006V6.84061H49.5079V11.0166L49.4119 12.5526H49.5079L53.5879 6.84061H55.2999V15.0006H53.5879V10.8406L53.6839 9.30461H53.5879L49.5079 15.0006H47.7799ZM66.0491 15.0006V12.0566C65.8251 12.2166 65.5425 12.3446 65.2011 12.4406C64.8598 12.5259 64.4865 12.5686 64.0811 12.5686C63.1425 12.5686 62.3905 12.2966 61.8251 11.7526C61.2705 11.2086 60.9931 10.4726 60.9931 9.54461V6.84061H62.7211V9.36861C62.7211 9.88061 62.8651 10.2859 63.1531 10.5846C63.4518 10.8726 63.8678 11.0166 64.4011 11.0166C64.7211 11.0166 65.0305 10.9686 65.3291 10.8726C65.6385 10.7659 65.8785 10.6273 66.0491 10.4566V6.84061H67.7611V15.0006H66.0491ZM73.5985 15.2566C72.7985 15.2566 72.0838 15.0699 71.4545 14.6966C70.8252 14.3233 70.3292 13.8113 69.9665 13.1606C69.6145 12.5099 69.4385 11.7686 69.4385 10.9366C69.4385 10.1579 69.6092 9.43794 69.9505 8.77661C70.2918 8.11528 70.7665 7.58728 71.3745 7.19261C71.9932 6.78728 72.7025 6.58461 73.5025 6.58461C74.3452 6.58461 75.0598 6.76594 75.6465 7.12861C76.2438 7.49128 76.6972 7.98728 77.0065 8.61661C77.3158 9.24594 77.4705 9.95528 77.4705 10.7446C77.4705 10.8619 77.4652 10.9686 77.4545 11.0646C77.4545 11.1606 77.4492 11.2353 77.4385 11.2886H71.1345C71.1772 11.7366 71.2892 12.1259 71.4705 12.4566C71.7052 12.8726 72.0145 13.1873 72.3985 13.4006C72.7825 13.6139 73.1985 13.7206 73.6465 13.7206C74.1905 13.7206 74.6438 13.5979 75.0065 13.3526C75.3798 13.0966 75.6732 12.7819 75.8865 12.4086L77.3105 13.0966C76.9585 13.7366 76.4785 14.2593 75.8705 14.6646C75.2625 15.0593 74.5052 15.2566 73.5985 15.2566ZM71.2305 9.99261H75.7585C75.7478 9.78994 75.6945 9.57661 75.5985 9.35261C75.5025 9.11794 75.3638 8.90461 75.1825 8.71261C75.0012 8.52061 74.7718 8.36594 74.4945 8.24861C74.2172 8.12061 73.8918 8.05661 73.5185 8.05661C73.0492 8.05661 72.6332 8.17928 72.2705 8.42461C71.9078 8.65928 71.6252 8.98994 71.4225 9.41661C71.3372 9.59794 71.2732 9.78994 71.2305 9.99261ZM79.2076 18.4566V6.84061H80.8236V7.94461H80.9196C81.069 7.70994 81.2663 7.49128 81.5116 7.28861C81.7676 7.07528 82.0663 6.90461 82.4076 6.77661C82.749 6.64861 83.1276 6.58461 83.5436 6.58461C84.2903 6.58461 84.957 6.77128 85.5436 7.14461C86.1303 7.51794 86.5943 8.02994 86.9356 8.68061C87.2876 9.33128 87.4636 10.0779 87.4636 10.9206C87.4636 11.7633 87.2876 12.5099 86.9356 13.1606C86.5943 13.8113 86.1303 14.3233 85.5436 14.6966C84.957 15.0699 84.2903 15.2566 83.5436 15.2566C82.925 15.2566 82.3863 15.1179 81.9276 14.8406C81.469 14.5633 81.133 14.2539 80.9196 13.9126H80.8236L80.9196 15.0486V18.4566H79.2076ZM83.2876 13.6726C83.7143 13.6726 84.1143 13.5606 84.4876 13.3366C84.8716 13.1126 85.1756 12.7926 85.3996 12.3766C85.6343 11.9606 85.7516 11.4753 85.7516 10.9206C85.7516 10.3553 85.6343 9.86994 85.3996 9.46461C85.1756 9.04861 84.8716 8.72861 84.4876 8.50461C84.1143 8.28061 83.7143 8.16861 83.2876 8.16861C82.861 8.16861 82.461 8.28061 82.0876 8.50461C81.7143 8.72861 81.4103 9.04861 81.1756 9.46461C80.941 9.86994 80.8236 10.3553 80.8236 10.9206C80.8236 11.4859 80.941 11.9766 81.1756 12.3926C81.4103 12.7979 81.7143 13.1126 82.0876 13.3366C82.461 13.5606 82.861 13.6726 83.2876 13.6726ZM92.8985 15.2566C92.0985 15.2566 91.3838 15.0699 90.7545 14.6966C90.1252 14.3233 89.6292 13.8113 89.2665 13.1606C88.9145 12.5099 88.7385 11.7686 88.7385 10.9366C88.7385 10.1579 88.9092 9.43794 89.2505 8.77661C89.5918 8.11528 90.0665 7.58728 90.6745 7.19261C91.2932 6.78728 92.0025 6.58461 92.8025 6.58461C93.6452 6.58461 94.3598 6.76594 94.9465 7.12861C95.5438 7.49128 95.9972 7.98728 96.3065 8.61661C96.6158 9.24594 96.7705 9.95528 96.7705 10.7446C96.7705 10.8619 96.7652 10.9686 96.7545 11.0646C96.7545 11.1606 96.7492 11.2353 96.7385 11.2886H90.4345C90.4772 11.7366 90.5892 12.1259 90.7705 12.4566C91.0052 12.8726 91.3145 13.1873 91.6985 13.4006C92.0825 13.6139 92.4985 13.7206 92.9465 13.7206C93.4905 13.7206 93.9438 13.5979 94.3065 13.3526C94.6798 13.0966 94.9732 12.7819 95.1865 12.4086L96.6105 13.0966C96.2585 13.7366 95.7785 14.2593 95.1705 14.6646C94.5625 15.0593 93.8052 15.2566 92.8985 15.2566ZM90.5305 9.99261H95.0585C95.0478 9.78994 94.9945 9.57661 94.8985 9.35261C94.8025 9.11794 94.6638 8.90461 94.4825 8.71261C94.3012 8.52061 94.0718 8.36594 93.7945 8.24861C93.5172 8.12061 93.1918 8.05661 92.8185 8.05661C92.3492 8.05661 91.9332 8.17928 91.5705 8.42461C91.2078 8.65928 90.9252 8.98994 90.7225 9.41661C90.6372 9.59794 90.5732 9.78994 90.5305 9.99261ZM101.123 15.2566C100.686 15.2566 100.238 15.2033 99.7791 15.0966C99.3311 14.9899 98.9151 14.8086 98.5311 14.5526C98.1471 14.2859 97.8218 13.9179 97.5551 13.4486L98.9311 12.6486C99.2298 13.0646 99.5711 13.3526 99.9551 13.5126C100.35 13.6619 100.739 13.7366 101.123 13.7366C101.678 13.7366 102.099 13.6299 102.387 13.4166C102.675 13.2033 102.819 12.9259 102.819 12.5846C102.819 12.2859 102.686 12.0459 102.419 11.8646C102.163 11.6726 101.8 11.5766 101.331 11.5766H100.003V10.2166H101.331C101.736 10.2166 102.046 10.1206 102.259 9.92861C102.483 9.73661 102.595 9.49128 102.595 9.19261C102.595 8.84061 102.446 8.56328 102.147 8.36061C101.848 8.14728 101.47 8.04061 101.011 8.04061C100.606 8.04061 100.216 8.12594 99.8431 8.29661C99.4698 8.45661 99.1871 8.67528 98.9951 8.95261L97.7151 8.10461C97.9605 7.78461 98.2538 7.51261 98.5951 7.28861C98.9365 7.06461 99.3098 6.89394 99.7151 6.77661C100.131 6.64861 100.568 6.58461 101.027 6.58461C101.635 6.58461 102.179 6.68594 102.659 6.88861C103.139 7.09128 103.518 7.37394 103.795 7.73661C104.083 8.08861 104.227 8.49928 104.227 8.96861C104.227 9.37394 104.126 9.73661 103.923 10.0566C103.72 10.3766 103.454 10.6113 103.123 10.7606V10.8566C103.539 11.0273 103.875 11.2833 104.131 11.6246C104.387 11.9659 104.515 12.3553 104.515 12.7926C104.515 13.2726 104.371 13.6993 104.083 14.0726C103.806 14.4459 103.411 14.7393 102.899 14.9526C102.398 15.1553 101.806 15.2566 101.123 15.2566Z" fill="white"/>
<g id="GPay (Dark)">
<g id="GPay">
<g id="Pay">
<path id="Fill 1" fill-rule="evenodd" clip-rule="evenodd" d="M133.356 3.42339V8.16175H136.278C136.974 8.16175 137.55 7.92781 138.005 7.45993C138.473 6.99313 138.707 6.43644 138.707 5.79203C138.707 5.16061 138.473 4.61041 138.005 4.14254C137.55 3.66274 136.974 3.4223 136.278 3.4223H133.356V3.42339ZM133.356 9.82966V15.3262H131.611V1.75549H136.24C137.417 1.75549 138.415 2.14756 139.238 2.93061C140.073 3.71365 140.491 4.66782 140.491 5.79203C140.491 6.94224 140.073 7.90291 139.238 8.67296C138.428 9.44409 137.429 9.82858 136.24 9.82858H133.356V9.82966Z" fill="white"/>
<path id="Fill 3" fill-rule="evenodd" clip-rule="evenodd" d="M142.255 12.4831C142.255 12.9379 142.448 13.317 142.834 13.6203C143.22 13.9235 143.672 14.0752 144.19 14.0752C144.924 14.0752 145.578 13.8032 146.153 13.2607C146.729 12.717 147.017 12.0791 147.017 11.3469C146.472 10.917 145.713 10.7025 144.74 10.7025C144.031 10.7025 143.44 10.8736 142.966 11.2148C142.492 11.5559 142.255 11.9773 142.255 12.4831M144.513 5.73566C145.803 5.73566 146.821 6.08007 147.569 6.76889C148.314 7.45771 148.687 8.40213 148.687 9.60216V15.3261H147.018V14.0373H146.942C146.221 15.0985 145.259 15.6294 144.058 15.6294C143.033 15.6294 142.176 15.3261 141.487 14.7196C140.797 14.1131 140.453 13.3549 140.453 12.4452C140.453 11.4845 140.816 10.7208 141.543 10.1523C142.271 9.58375 143.241 9.2989 144.456 9.2989C145.492 9.2989 146.346 9.48844 147.017 9.86751V9.46894C147.017 8.86243 146.776 8.34798 146.296 7.92451C145.814 7.50103 145.252 7.28984 144.607 7.28984C143.633 7.28984 142.862 7.70032 142.293 8.52235L140.755 7.55519C141.603 6.34217 142.855 5.73566 144.513 5.73566" fill="white"/>
<path id="Fill 5" fill-rule="evenodd" clip-rule="evenodd" d="M158.269 6.03894L152.443 19.4201H150.641L152.804 14.738L148.971 6.03894H150.869L153.639 12.7106H153.677L156.371 6.03894H158.269Z" fill="white"/>
</g>
<g id="G">
<path id="Fill 8" fill-rule="evenodd" clip-rule="evenodd" d="M126.303 8.64473C126.303 8.09563 126.256 7.56601 126.168 7.05914H118.806V10.0625H123.023C122.842 11.0414 122.294 11.8744 121.464 12.4322V14.3828H123.98C125.454 13.0246 126.303 11.0177 126.303 8.64473" fill="#4285F4"/>
<path id="Fill 10" fill-rule="evenodd" clip-rule="evenodd" d="M118.806 16.2651C120.913 16.2651 122.687 15.5741 123.98 14.3828L121.464 12.4322C120.763 12.9033 119.861 13.1784 118.806 13.1784C116.77 13.1784 115.042 11.8073 114.424 9.95959H111.832V11.9687C113.116 14.516 115.757 16.2651 118.806 16.2651" fill="#34A853"/>
<path id="Fill 12" fill-rule="evenodd" clip-rule="evenodd" d="M114.424 9.9596C114.266 9.48847 114.179 8.98593 114.179 8.46715C114.179 7.94837 114.266 7.44583 114.424 6.9747V4.96564H111.832C111.3 6.01837 111 7.20756 111 8.46715C111 9.72674 111.3 10.916 111.832 11.9687L114.424 9.9596Z" fill="#FABB05"/>
<path id="Fill 14" fill-rule="evenodd" clip-rule="evenodd" d="M118.806 3.75583C119.957 3.75583 120.988 4.15115 121.801 4.92553V4.92661L124.029 2.70094C122.676 1.44243 120.912 0.669128 118.806 0.669128C115.757 0.669128 113.116 2.41826 111.832 4.9656L114.424 6.97467C115.042 5.12698 116.77 3.75583 118.806 3.75583" fill="#E94235"/>
</g>
</g>
</g>
</g>
</svg>
