<svg width="314" height="38" viewBox="0 0 314 38" fill="none" xmlns="http://www.w3.org/2000/svg">
<g id="uk_checkout_with_Dark">
<path id="Text" d="M12.9629 30.448C11.4695 30.448 10.0882 30.1773 8.81885 29.636C7.56818 29.0947 6.47618 28.348 5.54285 27.396C4.60952 26.444 3.88152 25.3333 3.35885 24.064C2.83618 22.7947 2.57485 21.432 2.57485 19.976C2.57485 18.52 2.83618 17.1573 3.35885 15.888C3.88152 14.6187 4.60952 13.508 5.54285 12.556C6.47618 11.604 7.56818 10.8573 8.81885 10.316C10.0882 9.77467 11.4695 9.504 12.9629 9.504C14.4375 9.504 15.8002 9.77467 17.0509 10.316C18.3202 10.8573 19.4215 11.604 20.3549 12.556C21.3069 13.508 22.0349 14.6187 22.5389 15.888C23.0615 17.1573 23.3229 18.52 23.3229 19.976C23.3229 21.432 23.0615 22.7947 22.5389 24.064C22.0349 25.3333 21.3069 26.444 20.3549 27.396C19.4215 28.348 18.3202 29.0947 17.0509 29.636C15.8002 30.1773 14.4375 30.448 12.9629 30.448ZM12.9629 27.536C14.3069 27.536 15.5295 27.2187 16.6309 26.584C17.7322 25.9493 18.6095 25.0627 19.2629 23.924C19.9162 22.7853 20.2429 21.4693 20.2429 19.976C20.2429 18.4827 19.9162 17.1667 19.2629 16.028C18.6095 14.8893 17.7322 14.0027 16.6309 13.368C15.5295 12.7333 14.3069 12.416 12.9629 12.416C11.6189 12.416 10.3962 12.7333 9.29485 13.368C8.19352 14.0027 7.31618 14.8893 6.66285 16.028C6.00952 17.1667 5.68285 18.4827 5.68285 19.976C5.68285 21.4693 6.00952 22.7853 6.66285 23.924C7.31618 25.0627 8.19352 25.9493 9.29485 26.584C10.3962 27.2187 11.6189 27.536 12.9629 27.536ZM26.539 30V15.72H39.083V30H36.059V18.352H29.563V30H26.539ZM43.1411 30.224C42.7118 30.224 42.3011 30.1773 41.9091 30.084V27.284C42.1705 27.4147 42.4598 27.48 42.7771 27.48C43.4118 27.48 43.8598 27.2373 44.1211 26.752C44.3825 26.248 44.5411 25.6133 44.5971 24.848C44.6531 24.0827 44.6811 23.2893 44.6811 22.468V15.72H55.6011V30H52.6051V18.352H47.5371V22.944C47.5371 23.9147 47.4718 24.8387 47.3411 25.716C47.2291 26.5747 47.0145 27.3493 46.6971 28.04C46.3798 28.712 45.9318 29.244 45.3531 29.636C44.7931 30.028 44.0558 30.224 43.1411 30.224ZM63.8026 30.448C62.7759 30.448 61.8613 30.252 61.0586 29.86C60.2559 29.4493 59.6306 28.88 59.1826 28.152C58.7346 27.424 58.5106 26.5933 58.5106 25.66C58.5106 24.652 58.7719 23.7933 59.2946 23.084C59.8359 22.356 60.5546 21.8053 61.4506 21.432C62.3466 21.0587 63.3359 20.872 64.4186 20.872C65.3146 20.872 66.0986 20.956 66.7706 21.124C67.4613 21.292 67.9839 21.4693 68.3386 21.656V20.9C68.3386 19.9667 68.0026 19.22 67.3306 18.66C66.6586 18.1 65.7906 17.82 64.7266 17.82C63.9986 17.82 63.3079 17.988 62.6546 18.324C62.0013 18.6413 61.4786 19.08 61.0866 19.64L59.0146 18.044C59.6306 17.1853 60.4426 16.5133 61.4506 16.028C62.4773 15.524 63.5973 15.272 64.8106 15.272C66.8826 15.272 68.4786 15.7853 69.5986 16.812C70.7186 17.82 71.2786 19.2387 71.2786 21.068V30H68.3386V28.236H68.1706C67.7973 28.8147 67.2373 29.328 66.4906 29.776C65.7439 30.224 64.8479 30.448 63.8026 30.448ZM64.3346 27.984C65.1186 27.984 65.8093 27.7973 66.4066 27.424C67.0039 27.0507 67.4706 26.5653 67.8066 25.968C68.1613 25.352 68.3386 24.6893 68.3386 23.98C67.9093 23.7373 67.4053 23.5413 66.8266 23.392C66.2479 23.224 65.6319 23.14 64.9786 23.14C63.7466 23.14 62.8693 23.392 62.3466 23.896C61.8239 24.3813 61.5626 24.9787 61.5626 25.688C61.5626 26.36 61.8146 26.9107 62.3186 27.34C62.8226 27.7693 63.4946 27.984 64.3346 27.984ZM78.0556 30V18.352H73.3516V15.72H85.7556V18.352H81.0516V30H78.0556ZM88.5242 30V15.72H91.5482V23.028L91.3802 25.716H91.5482L98.6882 15.72H101.684V30H98.6882V22.72L98.8562 20.032H98.6882L91.5482 30H88.5242ZM109.171 30V18.352H104.467V15.72H116.871V18.352H112.167V30H109.171ZM119.64 30V15.72H122.664V23.028L122.496 25.716H122.664L129.804 15.72H132.8V30H129.804V22.72L129.972 20.032H129.804L122.664 30H119.64ZM151.686 30V24.848C151.294 25.128 150.799 25.352 150.202 25.52C149.605 25.6693 148.951 25.744 148.242 25.744C146.599 25.744 145.283 25.268 144.294 24.316C143.323 23.364 142.838 22.076 142.838 20.452V15.72H145.862V20.144C145.862 21.04 146.114 21.7493 146.618 22.272C147.141 22.776 147.869 23.028 148.802 23.028C149.381 23.028 149.922 22.944 150.426 22.776C150.949 22.5893 151.369 22.3467 151.686 22.048V15.72H154.682V30H151.686ZM164.935 30.448C163.535 30.448 162.284 30.1213 161.183 29.468C160.082 28.8147 159.214 27.9187 158.579 26.78C157.963 25.6413 157.655 24.344 157.655 22.888C157.655 21.5253 157.954 20.2653 158.551 19.108C159.148 17.9507 159.979 17.0267 161.043 16.336C162.126 15.6267 163.367 15.272 164.767 15.272C166.242 15.272 167.492 15.5893 168.519 16.224C169.564 16.8587 170.358 17.7267 170.899 18.828C171.44 19.9293 171.711 21.1707 171.711 22.552C171.711 22.7573 171.702 22.944 171.683 23.112C171.683 23.28 171.674 23.4107 171.655 23.504H160.623C160.772 24.9227 161.267 25.9867 162.107 26.696C162.966 27.4053 163.936 27.76 165.019 27.76C165.99 27.76 166.792 27.5453 167.427 27.116C168.062 26.668 168.566 26.1173 168.939 25.464L171.431 26.668C170.815 27.788 169.975 28.7027 168.911 29.412C167.847 30.1027 166.522 30.448 164.935 30.448ZM164.795 17.848C163.787 17.848 162.928 18.156 162.219 18.772C161.51 19.388 161.034 20.2093 160.791 21.236H168.715C168.678 20.7507 168.519 20.2467 168.239 19.724C167.959 19.2013 167.53 18.7627 166.951 18.408C166.391 18.0347 165.672 17.848 164.795 17.848ZM174.788 36.048V15.72H177.616V17.652H177.784C178.158 17.036 178.736 16.4853 179.52 16C180.323 15.5147 181.275 15.272 182.376 15.272C183.683 15.272 184.85 15.5987 185.876 16.252C186.903 16.9053 187.715 17.8013 188.312 18.94C188.928 20.0787 189.236 21.3853 189.236 22.86C189.236 24.3347 188.928 25.6507 188.312 26.808C187.715 27.9467 186.903 28.8427 185.876 29.496C184.85 30.1307 183.683 30.448 182.376 30.448C181.275 30.448 180.323 30.2147 179.52 29.748C178.736 29.2627 178.158 28.712 177.784 28.096H177.616L177.784 30.084V36.048H174.788ZM181.928 27.676C182.675 27.676 183.375 27.48 184.028 27.088C184.682 26.696 185.214 26.1453 185.624 25.436C186.035 24.708 186.24 23.8493 186.24 22.86C186.24 21.8707 186.035 21.0213 185.624 20.312C185.214 19.584 184.682 19.024 184.028 18.632C183.375 18.24 182.675 18.044 181.928 18.044C181.182 18.044 180.482 18.24 179.828 18.632C179.175 19.024 178.643 19.584 178.232 20.312C177.822 21.0213 177.616 21.8707 177.616 22.86C177.616 23.8493 177.822 24.708 178.232 25.436C178.643 26.1453 179.175 26.696 179.828 27.088C180.482 27.48 181.182 27.676 181.928 27.676ZM198.785 30.448C197.385 30.448 196.134 30.1213 195.033 29.468C193.932 28.8147 193.064 27.9187 192.429 26.78C191.813 25.6413 191.505 24.344 191.505 22.888C191.505 21.5253 191.804 20.2653 192.401 19.108C192.998 17.9507 193.829 17.0267 194.893 16.336C195.976 15.6267 197.217 15.272 198.617 15.272C200.092 15.272 201.342 15.5893 202.369 16.224C203.414 16.8587 204.208 17.7267 204.749 18.828C205.29 19.9293 205.561 21.1707 205.561 22.552C205.561 22.7573 205.552 22.944 205.533 23.112C205.533 23.28 205.524 23.4107 205.505 23.504H194.473C194.622 24.9227 195.117 25.9867 195.957 26.696C196.816 27.4053 197.786 27.76 198.869 27.76C199.84 27.76 200.642 27.5453 201.277 27.116C201.912 26.668 202.416 26.1173 202.789 25.464L205.281 26.668C204.665 27.788 203.825 28.7027 202.761 29.412C201.697 30.1027 200.372 30.448 198.785 30.448ZM198.645 17.848C197.637 17.848 196.778 18.156 196.069 18.772C195.36 19.388 194.884 20.2093 194.641 21.236H202.565C202.528 20.7507 202.369 20.2467 202.089 19.724C201.809 19.2013 201.38 18.7627 200.801 18.408C200.241 18.0347 199.522 17.848 198.645 17.848ZM213.215 30.448C212.431 30.448 211.647 30.3547 210.863 30.168C210.079 29.9813 209.342 29.664 208.651 29.216C207.979 28.7493 207.419 28.1053 206.971 27.284L209.379 25.884C209.902 26.612 210.499 27.116 211.171 27.396C211.862 27.6573 212.543 27.788 213.215 27.788C214.186 27.788 214.923 27.6013 215.427 27.228C215.931 26.8547 216.183 26.3693 216.183 25.772C216.183 25.2493 215.95 24.8293 215.483 24.512C215.035 24.176 214.401 24.008 213.579 24.008H211.255V21.628H213.579C214.289 21.628 214.83 21.46 215.203 21.124C215.595 20.788 215.791 20.3587 215.791 19.836C215.791 19.22 215.53 18.7347 215.007 18.38C214.485 18.0067 213.822 17.82 213.019 17.82C212.31 17.82 211.629 17.9693 210.975 18.268C210.322 18.548 209.827 18.9307 209.491 19.416L207.251 17.932C207.905 17.1107 208.726 16.4667 209.715 16C210.723 15.5147 211.834 15.272 213.047 15.272C214.093 15.272 215.035 15.4493 215.875 15.804C216.734 16.1587 217.406 16.6533 217.891 17.288C218.395 17.904 218.647 18.6227 218.647 19.444C218.647 20.1533 218.47 20.788 218.115 21.348C217.761 21.8893 217.294 22.3 216.715 22.58V22.748C217.443 23.0467 218.031 23.4947 218.479 24.092C218.927 24.6893 219.151 25.3707 219.151 26.136C219.151 26.976 218.909 27.7227 218.423 28.376C217.938 29.0107 217.247 29.5147 216.351 29.888C215.455 30.2613 214.41 30.448 213.215 30.448Z" fill="white"/>
<g id="GPay Logo (Dark)">
<g id="GPay">
<g id="Pay">
<path id="Fill 1" fill-rule="evenodd" clip-rule="evenodd" d="M270.529 9.34665V17.5128H275.565C276.765 17.5128 277.757 17.1096 278.541 16.3032C279.347 15.4988 279.75 14.5394 279.75 13.4288C279.75 12.3406 279.347 11.3924 278.541 10.586C277.757 9.75916 276.765 9.34479 275.565 9.34479H270.529V9.34665ZM270.529 20.3872V29.8599H267.521V6.47218H275.499C277.527 6.47218 279.248 7.14787 280.666 8.49738C282.105 9.84688 282.824 11.4913 282.824 13.4288C282.824 15.411 282.105 17.0667 280.666 18.3938C279.27 19.7227 277.547 20.3854 275.499 20.3854H270.529V20.3872Z" fill="white"/>
<path id="Fill 3" fill-rule="evenodd" clip-rule="evenodd" d="M285.864 24.9602C285.864 25.7442 286.197 26.3975 286.862 26.9201C287.527 27.4427 288.306 27.704 289.2 27.704C290.465 27.704 291.591 27.2354 292.584 26.3004C293.576 25.3634 294.071 24.264 294.071 23.0022C293.133 22.2612 291.825 21.8916 290.147 21.8916C288.925 21.8916 287.907 22.1866 287.09 22.7745C286.273 23.3623 285.864 24.0886 285.864 24.9602ZM289.756 13.3317C291.98 13.3317 293.735 13.9253 295.022 15.1124C296.308 16.2995 296.95 17.9271 296.95 19.9952V29.8599H294.073V27.6387H293.942C292.699 29.4677 291.042 30.3825 288.972 30.3825C287.206 30.3825 285.728 29.8599 284.541 28.8146C283.353 27.7694 282.759 26.4628 282.759 24.8949C282.759 23.2393 283.385 21.9232 284.638 20.9434C285.892 19.9635 287.565 19.4726 289.658 19.4726C291.444 19.4726 292.916 19.7993 294.071 20.4525V19.7657C294.071 18.7204 293.656 17.8338 292.829 17.104C291.999 16.3742 291.031 16.0102 289.919 16.0102C288.239 16.0102 286.911 16.7176 285.93 18.1343L283.28 16.4675C284.741 14.377 286.899 13.3317 289.756 13.3317Z" fill="white"/>
<path id="Fill 5" fill-rule="evenodd" clip-rule="evenodd" d="M313.463 13.8543L303.424 36.9154H300.318L304.046 28.8464L297.44 13.8543H300.71L305.484 25.3522H305.55L310.193 13.8543H313.463Z" fill="white"/>
</g>
<g id="G">
<path id="Fill 8" fill-rule="evenodd" clip-rule="evenodd" d="M258.373 18.3452C258.373 17.3989 258.293 16.4861 258.141 15.6126H245.454V20.7885H252.72C252.408 22.4757 251.465 23.9112 250.033 24.8725V28.2341H254.37C256.91 25.8935 258.373 22.4348 258.373 18.3452Z" fill="#4285F4"/>
<path id="Fill 10" fill-rule="evenodd" clip-rule="evenodd" d="M245.454 31.4782C249.084 31.4782 252.141 30.2873 254.37 28.2341L250.033 24.8725C248.826 25.6844 247.272 26.1585 245.454 26.1585C241.944 26.1585 238.966 23.7955 237.901 20.6112H233.433V24.0736C235.647 28.4637 240.197 31.4782 245.454 31.4782Z" fill="#34A853"/>
<path id="Fill 12" fill-rule="evenodd" clip-rule="evenodd" d="M237.901 20.6111C237.628 19.7992 237.479 18.9331 237.479 18.0391C237.479 17.145 237.628 16.2789 237.901 15.467V12.0045H233.433C232.518 13.8188 232 15.8683 232 18.0391C232 20.2098 232.518 22.2595 233.433 24.0736L237.901 20.6111Z" fill="#FABB05"/>
<path id="Fill 14" fill-rule="evenodd" clip-rule="evenodd" d="M245.454 9.91964C247.436 9.91964 249.213 10.6009 250.615 11.9355V11.9374L254.455 8.10163C252.123 5.93272 249.082 4.60001 245.454 4.60001C240.197 4.60001 235.647 7.61447 233.433 12.0046L237.901 15.467C238.966 12.2827 241.944 9.91964 245.454 9.91964Z" fill="#E94235"/>
</g>
</g>
</g>
</g>
</svg>
