<svg width="179" height="21" viewBox="0 0 179 21" fill="none" xmlns="http://www.w3.org/2000/svg">
<g id="uk_checkout_with_Pay_NBG">
<path id="Left Text" d="M6.97163 15.2566C6.1183 15.2566 5.32896 15.1019 4.60363 14.7926C3.88896 14.4833 3.26496 14.0566 2.73163 13.5126C2.19829 12.9579 1.78229 12.3233 1.48363 11.6086C1.18496 10.8833 1.03563 10.1046 1.03563 9.27261C1.03563 8.44061 1.18496 7.66728 1.48363 6.95261C1.78229 6.22728 2.19829 5.59261 2.73163 5.04861C3.26496 4.49394 3.88896 4.06194 4.60363 3.75261C5.32896 3.44328 6.1183 3.28861 6.97163 3.28861C7.82496 3.28861 8.60896 3.44328 9.32363 3.75261C10.0383 4.06194 10.6623 4.49394 11.1956 5.04861C11.7396 5.59261 12.1556 6.22728 12.4436 6.95261C12.7423 7.66728 12.8916 8.44061 12.8916 9.27261C12.8916 10.1046 12.7423 10.8833 12.4436 11.6086C12.1556 12.3233 11.7396 12.9579 11.1956 13.5126C10.6623 14.0566 10.0383 14.4833 9.32363 14.7926C8.60896 15.1019 7.82496 15.2566 6.97163 15.2566ZM6.97163 13.5926C7.7503 13.5926 8.44896 13.4113 9.06763 13.0486C9.69696 12.6859 10.1983 12.1793 10.5716 11.5286C10.945 10.8779 11.1316 10.1259 11.1316 9.27261C11.1316 8.40861 10.945 7.65661 10.5716 7.01661C10.1983 6.36594 9.69696 5.85928 9.06763 5.49661C8.44896 5.13394 7.7503 4.95261 6.97163 4.95261C6.20363 4.95261 5.50496 5.13394 4.87563 5.49661C4.24629 5.85928 3.74496 6.36594 3.37163 7.01661C2.99829 7.65661 2.81163 8.40861 2.81163 9.27261C2.81163 10.1259 2.99829 10.8779 3.37163 11.5286C3.74496 12.1793 4.24629 12.6859 4.87563 13.0486C5.50496 13.4113 6.20363 13.5926 6.97163 13.5926ZM14.708 15.0006V6.84061H21.876V15.0006H20.148V8.34461H16.436V15.0006H14.708ZM24.1735 15.1286C24.0562 15.1286 23.9335 15.1179 23.8055 15.0966C23.6882 15.0859 23.5762 15.0699 23.4695 15.0486V13.4486C23.5442 13.4806 23.6295 13.5073 23.7255 13.5286C23.8215 13.5499 23.9015 13.5606 23.9655 13.5606C24.3282 13.5606 24.5842 13.4219 24.7335 13.1446C24.8828 12.8566 24.9735 12.4939 25.0055 12.0566C25.0375 11.6193 25.0535 11.1659 25.0535 10.6966V6.84061H31.2935V15.0006H29.5815V8.34461H26.6855V10.9686C26.6855 11.5126 26.6482 12.0353 26.5735 12.5366C26.4988 13.0379 26.3708 13.4859 26.1895 13.8806C26.0188 14.2646 25.7682 14.5686 25.4375 14.7926C25.1175 15.0166 24.6962 15.1286 24.1735 15.1286ZM35.9586 15.2566C35.372 15.2566 34.8493 15.1393 34.3906 14.9046C33.9426 14.6699 33.5853 14.3499 33.3186 13.9446C33.0626 13.5286 32.9346 13.0539 32.9346 12.5206C32.9346 11.9339 33.084 11.4379 33.3826 11.0326C33.692 10.6273 34.1026 10.3179 34.6146 10.1046C35.1266 9.89128 35.692 9.78461 36.3106 9.78461C36.652 9.78461 36.9666 9.81128 37.2546 9.86461C37.5533 9.90728 37.8093 9.96061 38.0226 10.0246C38.2466 10.0886 38.4226 10.1579 38.5506 10.2326V9.80061C38.5506 9.26728 38.3586 8.84061 37.9746 8.52061C37.5906 8.20061 37.0946 8.04061 36.4866 8.04061C36.0706 8.04061 35.676 8.13661 35.3026 8.32861C34.9293 8.50994 34.6306 8.76061 34.4066 9.08061L33.2226 8.16861C33.4573 7.83794 33.74 7.55528 34.0706 7.32061C34.412 7.08594 34.7906 6.90461 35.2066 6.77661C35.6333 6.64861 36.076 6.58461 36.5346 6.58461C37.7186 6.58461 38.6306 6.87794 39.2706 7.46461C39.9106 8.04061 40.2306 8.85128 40.2306 9.89661V15.0006H38.5506V13.9926H38.4546C38.316 14.2059 38.124 14.4086 37.8786 14.6006C37.644 14.7926 37.3613 14.9473 37.0306 15.0646C36.7106 15.1926 36.3533 15.2566 35.9586 15.2566ZM36.2626 13.8486C36.7106 13.8486 37.1053 13.7419 37.4466 13.5286C37.7986 13.3153 38.0706 13.0379 38.2626 12.6966C38.4546 12.3446 38.5506 11.9659 38.5506 11.5606C38.316 11.4219 38.028 11.3099 37.6866 11.2246C37.356 11.1286 37.004 11.0806 36.6306 11.0806C35.9266 11.0806 35.4253 11.2193 35.1266 11.4966C34.828 11.7739 34.6786 12.1206 34.6786 12.5366C34.6786 12.9206 34.8226 13.2353 35.1106 13.4806C35.3986 13.7259 35.7826 13.8486 36.2626 13.8486ZM44.0818 15.0006V8.34461H41.3938V6.84061H48.4818V8.34461H45.7938V15.0006H44.0818ZM50.0424 15.0006V6.84061H51.7704V11.0166L51.6744 12.5526H51.7704L55.8504 6.84061H57.5624V15.0006H55.8504V10.8406L55.9464 9.30461H55.8504L51.7704 15.0006H50.0424ZM61.8193 15.0006V8.34461H59.1313V6.84061H66.2193V8.34461H63.5313V15.0006H61.8193ZM67.7799 15.0006V6.84061H69.5079V11.0166L69.4119 12.5526H69.5079L73.5879 6.84061H75.2999V15.0006H73.5879V10.8406L73.6839 9.30461H73.5879L69.5079 15.0006H67.7799ZM86.0491 15.0006V12.0566C85.8251 12.2166 85.5425 12.3446 85.2011 12.4406C84.8598 12.5259 84.4865 12.5686 84.0811 12.5686C83.1425 12.5686 82.3905 12.2966 81.8251 11.7526C81.2705 11.2086 80.9931 10.4726 80.9931 9.54461V6.84061H82.7211V9.36861C82.7211 9.88061 82.8651 10.2859 83.1531 10.5846C83.4518 10.8726 83.8678 11.0166 84.4011 11.0166C84.7211 11.0166 85.0305 10.9686 85.3291 10.8726C85.6385 10.7659 85.8785 10.6273 86.0491 10.4566V6.84061H87.7611V15.0006H86.0491ZM93.5985 15.2566C92.7985 15.2566 92.0838 15.0699 91.4545 14.6966C90.8252 14.3233 90.3292 13.8113 89.9665 13.1606C89.6145 12.5099 89.4385 11.7686 89.4385 10.9366C89.4385 10.1579 89.6092 9.43794 89.9505 8.77661C90.2918 8.11528 90.7665 7.58728 91.3745 7.19261C91.9932 6.78728 92.7025 6.58461 93.5025 6.58461C94.3452 6.58461 95.0598 6.76594 95.6465 7.12861C96.2438 7.49128 96.6972 7.98728 97.0065 8.61661C97.3158 9.24594 97.4705 9.95528 97.4705 10.7446C97.4705 10.8619 97.4652 10.9686 97.4545 11.0646C97.4545 11.1606 97.4492 11.2353 97.4385 11.2886H91.1345C91.1772 11.7366 91.2892 12.1259 91.4705 12.4566C91.7052 12.8726 92.0145 13.1873 92.3985 13.4006C92.7825 13.6139 93.1985 13.7206 93.6465 13.7206C94.1905 13.7206 94.6438 13.5979 95.0065 13.3526C95.3798 13.0966 95.6732 12.7819 95.8865 12.4086L97.3105 13.0966C96.9585 13.7366 96.4785 14.2593 95.8705 14.6646C95.2625 15.0593 94.5052 15.2566 93.5985 15.2566ZM91.2305 9.99261H95.7585C95.7478 9.78994 95.6945 9.57661 95.5985 9.35261C95.5025 9.11794 95.3638 8.90461 95.1825 8.71261C95.0012 8.52061 94.7718 8.36594 94.4945 8.24861C94.2172 8.12061 93.8918 8.05661 93.5185 8.05661C93.0492 8.05661 92.6332 8.17928 92.2705 8.42461C91.9078 8.65928 91.6252 8.98994 91.4225 9.41661C91.3372 9.59794 91.2732 9.78994 91.2305 9.99261ZM99.2076 18.4566V6.84061H100.824V7.94461H100.92C101.069 7.70994 101.266 7.49128 101.512 7.28861C101.768 7.07528 102.066 6.90461 102.408 6.77661C102.749 6.64861 103.128 6.58461 103.544 6.58461C104.29 6.58461 104.957 6.77128 105.544 7.14461C106.13 7.51794 106.594 8.02994 106.936 8.68061C107.288 9.33128 107.464 10.0779 107.464 10.9206C107.464 11.7633 107.288 12.5099 106.936 13.1606C106.594 13.8113 106.13 14.3233 105.544 14.6966C104.957 15.0699 104.29 15.2566 103.544 15.2566C102.925 15.2566 102.386 15.1179 101.928 14.8406C101.469 14.5633 101.133 14.2539 100.92 13.9126H100.824L100.92 15.0486V18.4566H99.2076ZM103.288 13.6726C103.714 13.6726 104.114 13.5606 104.488 13.3366C104.872 13.1126 105.176 12.7926 105.4 12.3766C105.634 11.9606 105.752 11.4753 105.752 10.9206C105.752 10.3553 105.634 9.86994 105.4 9.46461C105.176 9.04861 104.872 8.72861 104.488 8.50461C104.114 8.28061 103.714 8.16861 103.288 8.16861C102.861 8.16861 102.461 8.28061 102.088 8.50461C101.714 8.72861 101.41 9.04861 101.176 9.46461C100.941 9.86994 100.824 10.3553 100.824 10.9206C100.824 11.4859 100.941 11.9766 101.176 12.3926C101.41 12.7979 101.714 13.1126 102.088 13.3366C102.461 13.5606 102.861 13.6726 103.288 13.6726ZM112.899 15.2566C112.099 15.2566 111.384 15.0699 110.755 14.6966C110.125 14.3233 109.629 13.8113 109.267 13.1606C108.915 12.5099 108.739 11.7686 108.739 10.9366C108.739 10.1579 108.909 9.43794 109.251 8.77661C109.592 8.11528 110.067 7.58728 110.675 7.19261C111.293 6.78728 112.003 6.58461 112.803 6.58461C113.645 6.58461 114.36 6.76594 114.947 7.12861C115.544 7.49128 115.997 7.98728 116.307 8.61661C116.616 9.24594 116.771 9.95528 116.771 10.7446C116.771 10.8619 116.765 10.9686 116.755 11.0646C116.755 11.1606 116.749 11.2353 116.739 11.2886H110.435C110.477 11.7366 110.589 12.1259 110.771 12.4566C111.005 12.8726 111.315 13.1873 111.699 13.4006C112.083 13.6139 112.499 13.7206 112.947 13.7206C113.491 13.7206 113.944 13.5979 114.307 13.3526C114.68 13.0966 114.973 12.7819 115.187 12.4086L116.611 13.0966C116.259 13.7366 115.779 14.2593 115.171 14.6646C114.563 15.0593 113.805 15.2566 112.899 15.2566ZM110.531 9.99261H115.059C115.048 9.78994 114.995 9.57661 114.899 9.35261C114.803 9.11794 114.664 8.90461 114.483 8.71261C114.301 8.52061 114.072 8.36594 113.795 8.24861C113.517 8.12061 113.192 8.05661 112.819 8.05661C112.349 8.05661 111.933 8.17928 111.571 8.42461C111.208 8.65928 110.925 8.98994 110.723 9.41661C110.637 9.59794 110.573 9.78994 110.531 9.99261ZM121.123 15.2566C120.686 15.2566 120.238 15.2033 119.779 15.0966C119.331 14.9899 118.915 14.8086 118.531 14.5526C118.147 14.2859 117.822 13.9179 117.555 13.4486L118.931 12.6486C119.23 13.0646 119.571 13.3526 119.955 13.5126C120.35 13.6619 120.739 13.7366 121.123 13.7366C121.678 13.7366 122.099 13.6299 122.387 13.4166C122.675 13.2033 122.819 12.9259 122.819 12.5846C122.819 12.2859 122.686 12.0459 122.419 11.8646C122.163 11.6726 121.8 11.5766 121.331 11.5766H120.003V10.2166H121.331C121.736 10.2166 122.046 10.1206 122.259 9.92861C122.483 9.73661 122.595 9.49128 122.595 9.19261C122.595 8.84061 122.446 8.56328 122.147 8.36061C121.848 8.14728 121.47 8.04061 121.011 8.04061C120.606 8.04061 120.216 8.12594 119.843 8.29661C119.47 8.45661 119.187 8.67528 118.995 8.95261L117.715 8.10461C117.96 7.78461 118.254 7.51261 118.595 7.28861C118.936 7.06461 119.31 6.89394 119.715 6.77661C120.131 6.64861 120.568 6.58461 121.027 6.58461C121.635 6.58461 122.179 6.68594 122.659 6.88861C123.139 7.09128 123.518 7.37394 123.795 7.73661C124.083 8.08861 124.227 8.49928 124.227 8.96861C124.227 9.37394 124.126 9.73661 123.923 10.0566C123.72 10.3766 123.454 10.6113 123.123 10.7606V10.8566C123.539 11.0273 123.875 11.2833 124.131 11.6246C124.387 11.9659 124.515 12.3553 124.515 12.7926C124.515 13.2726 124.371 13.6993 124.083 14.0726C123.806 14.4459 123.411 14.7393 122.899 14.9526C122.398 15.1553 121.806 15.2566 121.123 15.2566Z" fill="white"/>
<g id="GPay (Dark)">
<g id="GPay">
<g id="Pay">
<path id="Fill 1" fill-rule="evenodd" clip-rule="evenodd" d="M153.356 3.42339V8.16175H156.278C156.974 8.16175 157.55 7.92781 158.005 7.45993C158.473 6.99313 158.707 6.43644 158.707 5.79203C158.707 5.16061 158.473 4.61041 158.005 4.14254C157.55 3.66274 156.974 3.4223 156.278 3.4223H153.356V3.42339ZM153.356 9.82966V15.3262H151.611V1.75549H156.24C157.417 1.75549 158.415 2.14756 159.238 2.93061C160.073 3.71365 160.491 4.66782 160.491 5.79203C160.491 6.94224 160.073 7.90291 159.238 8.67296C158.428 9.44409 157.429 9.82858 156.24 9.82858H153.356V9.82966Z" fill="white"/>
<path id="Fill 3" fill-rule="evenodd" clip-rule="evenodd" d="M162.255 12.4831C162.255 12.9379 162.448 13.317 162.834 13.6203C163.22 13.9235 163.672 14.0752 164.19 14.0752C164.924 14.0752 165.578 13.8032 166.153 13.2607C166.729 12.717 167.017 12.0791 167.017 11.3469C166.472 10.917 165.713 10.7025 164.74 10.7025C164.031 10.7025 163.44 10.8736 162.966 11.2148C162.492 11.5559 162.255 11.9773 162.255 12.4831M164.513 5.73566C165.803 5.73566 166.821 6.08007 167.569 6.76889C168.314 7.45771 168.687 8.40213 168.687 9.60216V15.3261H167.018V14.0373H166.942C166.221 15.0985 165.259 15.6294 164.058 15.6294C163.033 15.6294 162.176 15.3261 161.487 14.7196C160.797 14.1131 160.453 13.3549 160.453 12.4452C160.453 11.4845 160.816 10.7208 161.543 10.1523C162.271 9.58375 163.241 9.2989 164.456 9.2989C165.492 9.2989 166.346 9.48844 167.017 9.86751V9.46894C167.017 8.86243 166.776 8.34798 166.296 7.92451C165.814 7.50103 165.252 7.28984 164.607 7.28984C163.633 7.28984 162.862 7.70032 162.293 8.52235L160.755 7.55519C161.603 6.34217 162.855 5.73566 164.513 5.73566" fill="white"/>
<path id="Fill 5" fill-rule="evenodd" clip-rule="evenodd" d="M178.269 6.03894L172.443 19.4201H170.641L172.804 14.738L168.971 6.03894H170.869L173.639 12.7106H173.677L176.371 6.03894H178.269Z" fill="white"/>
</g>
<g id="G">
<path id="Fill 8" fill-rule="evenodd" clip-rule="evenodd" d="M146.303 8.64473C146.303 8.09563 146.256 7.56601 146.168 7.05914H138.806V10.0625H143.023C142.842 11.0414 142.294 11.8744 141.464 12.4322V14.3828H143.98C145.454 13.0246 146.303 11.0177 146.303 8.64473" fill="#4285F4"/>
<path id="Fill 10" fill-rule="evenodd" clip-rule="evenodd" d="M138.806 16.2651C140.913 16.2651 142.687 15.5741 143.98 14.3828L141.464 12.4322C140.763 12.9033 139.861 13.1784 138.806 13.1784C136.77 13.1784 135.042 11.8073 134.424 9.95959H131.832V11.9687C133.116 14.516 135.757 16.2651 138.806 16.2651" fill="#34A853"/>
<path id="Fill 12" fill-rule="evenodd" clip-rule="evenodd" d="M134.424 9.9596C134.266 9.48847 134.179 8.98593 134.179 8.46715C134.179 7.94837 134.266 7.44583 134.424 6.9747V4.96564H131.832C131.3 6.01837 131 7.20756 131 8.46715C131 9.72674 131.3 10.916 131.832 11.9687L134.424 9.9596Z" fill="#FABB05"/>
<path id="Fill 14" fill-rule="evenodd" clip-rule="evenodd" d="M138.806 3.75583C139.957 3.75583 140.988 4.15115 141.801 4.92553V4.92661L144.029 2.70094C142.676 1.44243 140.912 0.669128 138.806 0.669128C135.757 0.669128 133.116 2.41826 131.832 4.9656L134.424 6.97467C135.042 5.12698 136.77 3.75583 138.806 3.75583" fill="#E94235"/>
</g>
</g>
</g>
</g>
</svg>
