<svg width="378" height="38" viewBox="0 0 378 38" fill="none" xmlns="http://www.w3.org/2000/svg">
<g id="uk_donate_with_Light">
<path id="Text" d="M3.41018 30V9.952H18.5302V30H15.4502V12.864H6.49018V30H3.41018ZM29.5863 30.448C28.1117 30.448 26.8143 30.112 25.6943 29.44C24.5743 28.768 23.697 27.8627 23.0623 26.724C22.4277 25.5853 22.1103 24.2973 22.1103 22.86C22.1103 21.4413 22.4277 20.1627 23.0623 19.024C23.697 17.8667 24.5743 16.952 25.6943 16.28C26.8143 15.608 28.1117 15.272 29.5863 15.272C31.0423 15.272 32.3303 15.608 33.4503 16.28C34.5703 16.952 35.4477 17.8667 36.0823 19.024C36.717 20.1627 37.0343 21.4413 37.0343 22.86C37.0343 24.2973 36.717 25.5853 36.0823 26.724C35.4477 27.8627 34.5703 28.768 33.4503 29.44C32.3303 30.112 31.0423 30.448 29.5863 30.448ZM29.5863 27.676C30.3703 27.676 31.0983 27.4893 31.7703 27.116C32.4423 26.724 32.9837 26.1733 33.3943 25.464C33.8237 24.736 34.0383 23.868 34.0383 22.86C34.0383 21.852 33.8237 20.9933 33.3943 20.284C32.9837 19.556 32.4423 19.0053 31.7703 18.632C31.0983 18.24 30.3703 18.044 29.5863 18.044C28.8023 18.044 28.065 18.24 27.3743 18.632C26.7023 19.0053 26.1517 19.556 25.7223 20.284C25.3117 20.9933 25.1063 21.852 25.1063 22.86C25.1063 23.868 25.3117 24.736 25.7223 25.464C26.1517 26.1733 26.7023 26.724 27.3743 27.116C28.065 27.4893 28.8023 27.676 29.5863 27.676ZM38.0573 30V29.832L43.8813 22.44L38.3653 15.888V15.72H41.8933L46.8493 22.048H47.0173V15.72H50.0413V22.048H50.2093L55.1933 15.72H58.7493V15.888L53.2053 22.44L59.0293 29.832V30H55.4733L50.2093 22.972H50.0413V30H47.0173V22.972H46.8493L41.6133 30H38.0573ZM67.4513 30.448C66.0513 30.448 64.8006 30.1213 63.6993 29.468C62.5979 28.8147 61.7299 27.9187 61.0953 26.78C60.4793 25.6413 60.1713 24.344 60.1713 22.888C60.1713 21.5253 60.4699 20.2653 61.0673 19.108C61.6646 17.9507 62.4953 17.0267 63.5593 16.336C64.6419 15.6267 65.8833 15.272 67.2833 15.272C68.7579 15.272 70.0086 15.5893 71.0353 16.224C72.0806 16.8587 72.8739 17.7267 73.4153 18.828C73.9566 19.9293 74.2273 21.1707 74.2273 22.552C74.2273 22.7573 74.2179 22.944 74.1993 23.112C74.1993 23.28 74.1899 23.4107 74.1713 23.504H63.1393C63.2886 24.9227 63.7833 25.9867 64.6233 26.696C65.4819 27.4053 66.4526 27.76 67.5353 27.76C68.5059 27.76 69.3086 27.5453 69.9433 27.116C70.5779 26.668 71.0819 26.1173 71.4553 25.464L73.9473 26.668C73.3313 27.788 72.4913 28.7027 71.4273 29.412C70.3633 30.1027 69.0379 30.448 67.4513 30.448ZM67.3113 17.848C66.3033 17.848 65.4446 18.156 64.7353 18.772C64.0259 19.388 63.5499 20.2093 63.3073 21.236H71.2313C71.1939 20.7507 71.0353 20.2467 70.7553 19.724C70.4753 19.2013 70.0459 18.7627 69.4673 18.408C68.9073 18.0347 68.1886 17.848 67.3113 17.848ZM77.3047 36.048V15.72H80.1327V17.652H80.3007C80.6741 17.036 81.2527 16.4853 82.0367 16C82.8394 15.5147 83.7914 15.272 84.8927 15.272C86.1994 15.272 87.3661 15.5987 88.3927 16.252C89.4194 16.9053 90.2314 17.8013 90.8287 18.94C91.4447 20.0787 91.7527 21.3853 91.7527 22.86C91.7527 24.3347 91.4447 25.6507 90.8287 26.808C90.2314 27.9467 89.4194 28.8427 88.3927 29.496C87.3661 30.1307 86.1994 30.448 84.8927 30.448C83.7914 30.448 82.8394 30.2147 82.0367 29.748C81.2527 29.2627 80.6741 28.712 80.3007 28.096H80.1327L80.3007 30.084V36.048H77.3047ZM84.4447 27.676C85.1914 27.676 85.8914 27.48 86.5447 27.088C87.1981 26.696 87.7301 26.1453 88.1407 25.436C88.5514 24.708 88.7567 23.8493 88.7567 22.86C88.7567 21.8707 88.5514 21.0213 88.1407 20.312C87.7301 19.584 87.1981 19.024 86.5447 18.632C85.8914 18.24 85.1914 18.044 84.4447 18.044C83.6981 18.044 82.9981 18.24 82.3447 18.632C81.6914 19.024 81.1594 19.584 80.7487 20.312C80.3381 21.0213 80.1327 21.8707 80.1327 22.86C80.1327 23.8493 80.3381 24.708 80.7487 25.436C81.1594 26.1453 81.6914 26.696 82.3447 27.088C82.9981 27.48 83.6981 27.676 84.4447 27.676ZM98.2806 30V18.352H93.5766V15.72H105.981V18.352H101.277V30H98.2806ZM108.749 30V15.72H115.833C116.673 15.72 117.42 15.888 118.073 16.224C118.745 16.5413 119.268 16.98 119.641 17.54C120.033 18.1 120.229 18.7253 120.229 19.416C120.229 20.1627 120.061 20.8067 119.725 21.348C119.408 21.8893 118.988 22.2907 118.465 22.552V22.72C119.174 23 119.734 23.42 120.145 23.98C120.574 24.54 120.789 25.184 120.789 25.912C120.789 26.752 120.565 27.48 120.117 28.096C119.688 28.712 119.128 29.188 118.437 29.524C117.746 29.8413 117.009 30 116.225 30H108.749ZM111.773 18.184V21.544H115.469C115.973 21.544 116.393 21.3853 116.729 21.068C117.065 20.7507 117.233 20.3493 117.233 19.864C117.233 19.36 117.065 18.9587 116.729 18.66C116.393 18.3427 115.973 18.184 115.469 18.184H111.773ZM111.773 27.48H115.917C116.458 27.48 116.906 27.312 117.261 26.976C117.634 26.6213 117.821 26.1733 117.821 25.632C117.821 25.1093 117.634 24.6707 117.261 24.316C116.906 23.9613 116.458 23.784 115.917 23.784H111.773V27.48ZM128.304 35.348C128.248 35.4973 128.183 35.6373 128.108 35.768C128.052 35.8987 128.015 35.992 127.996 36.048H124.776C124.869 35.8427 125 35.544 125.168 35.152C125.355 34.7787 125.532 34.4147 125.7 34.06C125.868 33.7053 126.045 33.304 126.232 32.856C126.437 32.408 126.643 31.9693 126.848 31.54L127.912 29.216L121.948 15.72H125.308L129.396 25.464H129.536L133.484 15.72H136.816L129.424 32.744C129.219 33.2293 128.995 33.7333 128.752 34.256C128.528 34.7973 128.379 35.1613 128.304 35.348ZM139.291 30V15.72H146.375C147.215 15.72 147.961 15.888 148.615 16.224C149.287 16.5413 149.809 16.98 150.183 17.54C150.575 18.1 150.771 18.7253 150.771 19.416C150.771 20.1627 150.603 20.8067 150.267 21.348C149.949 21.8893 149.529 22.2907 149.007 22.552V22.72C149.716 23 150.276 23.42 150.687 23.98C151.116 24.54 151.331 25.184 151.331 25.912C151.331 26.752 151.107 27.48 150.659 28.096C150.229 28.712 149.669 29.188 148.979 29.524C148.288 29.8413 147.551 30 146.767 30H139.291ZM142.315 18.184V21.544H146.011C146.515 21.544 146.935 21.3853 147.271 21.068C147.607 20.7507 147.775 20.3493 147.775 19.864C147.775 19.36 147.607 18.9587 147.271 18.66C146.935 18.3427 146.515 18.184 146.011 18.184H142.315ZM142.315 27.48H146.459C147 27.48 147.448 27.312 147.803 26.976C148.176 26.6213 148.363 26.1733 148.363 25.632C148.363 25.1093 148.176 24.6707 147.803 24.316C147.448 23.9613 147 23.784 146.459 23.784H142.315V27.48ZM158.918 30.448C157.892 30.448 156.977 30.252 156.174 29.86C155.372 29.4493 154.746 28.88 154.298 28.152C153.85 27.424 153.626 26.5933 153.626 25.66C153.626 24.652 153.888 23.7933 154.41 23.084C154.952 22.356 155.67 21.8053 156.566 21.432C157.462 21.0587 158.452 20.872 159.534 20.872C160.43 20.872 161.214 20.956 161.886 21.124C162.577 21.292 163.1 21.4693 163.454 21.656V20.9C163.454 19.9667 163.118 19.22 162.446 18.66C161.774 18.1 160.906 17.82 159.842 17.82C159.114 17.82 158.424 17.988 157.77 18.324C157.117 18.6413 156.594 19.08 156.202 19.64L154.13 18.044C154.746 17.1853 155.558 16.5133 156.566 16.028C157.593 15.524 158.713 15.272 159.926 15.272C161.998 15.272 163.594 15.7853 164.714 16.812C165.834 17.82 166.394 19.2387 166.394 21.068V30H163.454V28.236H163.286C162.913 28.8147 162.353 29.328 161.606 29.776C160.86 30.224 159.964 30.448 158.918 30.448ZM159.45 27.984C160.234 27.984 160.925 27.7973 161.522 27.424C162.12 27.0507 162.586 26.5653 162.922 25.968C163.277 25.352 163.454 24.6893 163.454 23.98C163.025 23.7373 162.521 23.5413 161.942 23.392C161.364 23.224 160.748 23.14 160.094 23.14C158.862 23.14 157.985 23.392 157.462 23.896C156.94 24.3813 156.678 24.9787 156.678 25.688C156.678 26.36 156.93 26.9107 157.434 27.34C157.938 27.7693 158.61 27.984 159.45 27.984ZM173.171 30V18.352H168.467V15.72H180.871V18.352H176.167V30H173.171ZM183.64 30V15.72H186.664V23.028L186.496 25.716H186.664L193.804 15.72H196.8V30H193.804V22.72L193.972 20.032H193.804L186.664 30H183.64ZM215.686 30V24.848C215.294 25.128 214.799 25.352 214.202 25.52C213.605 25.6693 212.951 25.744 212.242 25.744C210.599 25.744 209.283 25.268 208.294 24.316C207.323 23.364 206.838 22.076 206.838 20.452V15.72H209.862V20.144C209.862 21.04 210.114 21.7493 210.618 22.272C211.141 22.776 211.869 23.028 212.802 23.028C213.381 23.028 213.922 22.944 214.426 22.776C214.949 22.5893 215.369 22.3467 215.686 22.048V15.72H218.682V30H215.686ZM228.935 30.448C227.535 30.448 226.284 30.1213 225.183 29.468C224.082 28.8147 223.214 27.9187 222.579 26.78C221.963 25.6413 221.655 24.344 221.655 22.888C221.655 21.5253 221.954 20.2653 222.551 19.108C223.148 17.9507 223.979 17.0267 225.043 16.336C226.126 15.6267 227.367 15.272 228.767 15.272C230.242 15.272 231.492 15.5893 232.519 16.224C233.564 16.8587 234.358 17.7267 234.899 18.828C235.44 19.9293 235.711 21.1707 235.711 22.552C235.711 22.7573 235.702 22.944 235.683 23.112C235.683 23.28 235.674 23.4107 235.655 23.504H224.623C224.772 24.9227 225.267 25.9867 226.107 26.696C226.966 27.4053 227.936 27.76 229.019 27.76C229.99 27.76 230.792 27.5453 231.427 27.116C232.062 26.668 232.566 26.1173 232.939 25.464L235.431 26.668C234.815 27.788 233.975 28.7027 232.911 29.412C231.847 30.1027 230.522 30.448 228.935 30.448ZM228.795 17.848C227.787 17.848 226.928 18.156 226.219 18.772C225.51 19.388 225.034 20.2093 224.791 21.236H232.715C232.678 20.7507 232.519 20.2467 232.239 19.724C231.959 19.2013 231.53 18.7627 230.951 18.408C230.391 18.0347 229.672 17.848 228.795 17.848ZM238.788 36.048V15.72H241.616V17.652H241.784C242.158 17.036 242.736 16.4853 243.52 16C244.323 15.5147 245.275 15.272 246.376 15.272C247.683 15.272 248.85 15.5987 249.876 16.252C250.903 16.9053 251.715 17.8013 252.312 18.94C252.928 20.0787 253.236 21.3853 253.236 22.86C253.236 24.3347 252.928 25.6507 252.312 26.808C251.715 27.9467 250.903 28.8427 249.876 29.496C248.85 30.1307 247.683 30.448 246.376 30.448C245.275 30.448 244.323 30.2147 243.52 29.748C242.736 29.2627 242.158 28.712 241.784 28.096H241.616L241.784 30.084V36.048H238.788ZM245.928 27.676C246.675 27.676 247.375 27.48 248.028 27.088C248.682 26.696 249.214 26.1453 249.624 25.436C250.035 24.708 250.24 23.8493 250.24 22.86C250.24 21.8707 250.035 21.0213 249.624 20.312C249.214 19.584 248.682 19.024 248.028 18.632C247.375 18.24 246.675 18.044 245.928 18.044C245.182 18.044 244.482 18.24 243.828 18.632C243.175 19.024 242.643 19.584 242.232 20.312C241.822 21.0213 241.616 21.8707 241.616 22.86C241.616 23.8493 241.822 24.708 242.232 25.436C242.643 26.1453 243.175 26.696 243.828 27.088C244.482 27.48 245.182 27.676 245.928 27.676ZM262.785 30.448C261.385 30.448 260.134 30.1213 259.033 29.468C257.932 28.8147 257.064 27.9187 256.429 26.78C255.813 25.6413 255.505 24.344 255.505 22.888C255.505 21.5253 255.804 20.2653 256.401 19.108C256.998 17.9507 257.829 17.0267 258.893 16.336C259.976 15.6267 261.217 15.272 262.617 15.272C264.092 15.272 265.342 15.5893 266.369 16.224C267.414 16.8587 268.208 17.7267 268.749 18.828C269.29 19.9293 269.561 21.1707 269.561 22.552C269.561 22.7573 269.552 22.944 269.533 23.112C269.533 23.28 269.524 23.4107 269.505 23.504H258.473C258.622 24.9227 259.117 25.9867 259.957 26.696C260.816 27.4053 261.786 27.76 262.869 27.76C263.84 27.76 264.642 27.5453 265.277 27.116C265.912 26.668 266.416 26.1173 266.789 25.464L269.281 26.668C268.665 27.788 267.825 28.7027 266.761 29.412C265.697 30.1027 264.372 30.448 262.785 30.448ZM262.645 17.848C261.637 17.848 260.778 18.156 260.069 18.772C259.36 19.388 258.884 20.2093 258.641 21.236H266.565C266.528 20.7507 266.369 20.2467 266.089 19.724C265.809 19.2013 265.38 18.7627 264.801 18.408C264.241 18.0347 263.522 17.848 262.645 17.848ZM277.215 30.448C276.431 30.448 275.647 30.3547 274.863 30.168C274.079 29.9813 273.342 29.664 272.651 29.216C271.979 28.7493 271.419 28.1053 270.971 27.284L273.379 25.884C273.902 26.612 274.499 27.116 275.171 27.396C275.862 27.6573 276.543 27.788 277.215 27.788C278.186 27.788 278.923 27.6013 279.427 27.228C279.931 26.8547 280.183 26.3693 280.183 25.772C280.183 25.2493 279.95 24.8293 279.483 24.512C279.035 24.176 278.401 24.008 277.579 24.008H275.255V21.628H277.579C278.289 21.628 278.83 21.46 279.203 21.124C279.595 20.788 279.791 20.3587 279.791 19.836C279.791 19.22 279.53 18.7347 279.007 18.38C278.485 18.0067 277.822 17.82 277.019 17.82C276.31 17.82 275.629 17.9693 274.975 18.268C274.322 18.548 273.827 18.9307 273.491 19.416L271.251 17.932C271.905 17.1107 272.726 16.4667 273.715 16C274.723 15.5147 275.834 15.272 277.047 15.272C278.093 15.272 279.035 15.4493 279.875 15.804C280.734 16.1587 281.406 16.6533 281.891 17.288C282.395 17.904 282.647 18.6227 282.647 19.444C282.647 20.1533 282.47 20.788 282.115 21.348C281.761 21.8893 281.294 22.3 280.715 22.58V22.748C281.443 23.0467 282.031 23.4947 282.479 24.092C282.927 24.6893 283.151 25.3707 283.151 26.136C283.151 26.976 282.909 27.7227 282.423 28.376C281.938 29.0107 281.247 29.5147 280.351 29.888C279.455 30.2613 278.41 30.448 277.215 30.448Z" fill="#3C4043"/>
<g id="GPay Logo (Light)">
<g id="GPay">
<g id="Pay">
<path id="Fill 1" fill-rule="evenodd" clip-rule="evenodd" d="M334.529 9.44664V17.6128H339.565C340.765 17.6128 341.757 17.2096 342.541 16.4032C343.347 15.5988 343.75 14.6394 343.75 13.5288C343.75 12.4406 343.347 11.4924 342.541 10.686C341.757 9.85915 340.765 9.44478 339.565 9.44478H334.529V9.44664ZM334.529 20.4872V29.9599H331.521V6.57217H339.499C341.527 6.57217 343.248 7.24786 344.666 8.59737C346.105 9.94688 346.824 11.5913 346.824 13.5288C346.824 15.511 346.105 17.1667 344.666 18.4938C343.27 19.8227 341.547 20.4854 339.499 20.4854H334.529V20.4872Z" fill="#5F6368"/>
<path id="Fill 3" fill-rule="evenodd" clip-rule="evenodd" d="M349.864 25.0602C349.864 25.8442 350.197 26.4975 350.862 27.0201C351.527 27.5427 352.306 27.804 353.2 27.804C354.465 27.804 355.591 27.3354 356.584 26.4004C357.576 25.4634 358.071 24.364 358.071 23.1022C357.133 22.3612 355.825 21.9916 354.147 21.9916C352.925 21.9916 351.907 22.2865 351.09 22.8745C350.273 23.4623 349.864 24.1886 349.864 25.0602ZM353.756 13.4317C355.98 13.4317 357.735 14.0252 359.022 15.2124C360.308 16.3995 360.95 18.0271 360.95 20.0952V29.9599H358.073V27.7387H357.942C356.699 29.5677 355.042 30.4825 352.972 30.4825C351.206 30.4825 349.728 29.9599 348.541 28.9146C347.353 27.8694 346.759 26.5628 346.759 24.9949C346.759 23.3393 347.385 22.0232 348.638 21.0434C349.892 20.0635 351.565 19.5726 353.658 19.5726C355.444 19.5726 356.916 19.8992 358.071 20.5525V19.8656C358.071 18.8204 357.656 17.9338 356.829 17.204C355.999 16.4741 355.031 16.1102 353.919 16.1102C352.239 16.1102 350.911 16.8176 349.93 18.2343L347.28 16.5675C348.741 14.4769 350.899 13.4317 353.756 13.4317Z" fill="#5F6368"/>
<path id="Fill 5" fill-rule="evenodd" clip-rule="evenodd" d="M377.463 13.9543L367.424 37.0154H364.318L368.046 28.9464L361.44 13.9543H364.71L369.484 25.4522H369.55L374.193 13.9543H377.463Z" fill="#5F6368"/>
</g>
<g id="G">
<path id="Fill 8" fill-rule="evenodd" clip-rule="evenodd" d="M322.373 18.4452C322.373 17.4989 322.293 16.5861 322.141 15.7126H309.454V20.8885H316.72C316.408 22.5757 315.465 24.0112 314.033 24.9725V28.3341H318.37C320.91 25.9935 322.373 22.5348 322.373 18.4452Z" fill="#4285F4"/>
<path id="Fill 10" fill-rule="evenodd" clip-rule="evenodd" d="M309.454 31.5782C313.084 31.5782 316.141 30.3873 318.37 28.3341L314.033 24.9725C312.826 25.7844 311.272 26.2585 309.454 26.2585C305.944 26.2585 302.966 23.8955 301.901 20.7112H297.433V24.1736C299.647 28.5637 304.197 31.5782 309.454 31.5782Z" fill="#34A853"/>
<path id="Fill 12" fill-rule="evenodd" clip-rule="evenodd" d="M301.901 20.7111C301.628 19.8992 301.479 19.0331 301.479 18.139C301.479 17.245 301.628 16.3789 301.901 15.567V12.1045H297.433C296.518 13.9188 296 15.9683 296 18.139C296 20.3098 296.518 22.3595 297.433 24.1736L301.901 20.7111Z" fill="#FABB05"/>
<path id="Fill 14" fill-rule="evenodd" clip-rule="evenodd" d="M309.454 10.0196C311.436 10.0196 313.213 10.7009 314.615 12.0355V12.0374L318.455 8.20162C316.123 6.03271 313.082 4.7 309.454 4.7C304.197 4.7 299.647 7.71446 297.433 12.1046L301.901 15.567C302.966 12.3827 305.944 10.0196 309.454 10.0196Z" fill="#E94235"/>
</g>
</g>
</g>
</g>
</svg>
