<svg width="216" height="21" viewBox="0 0 216 21" fill="none" xmlns="http://www.w3.org/2000/svg">
<g id="uk_donate_with_Pay_NBG">
<path id="Left Text" d="M2.02725 15.0006V3.54461H10.6672V15.0006H8.90725V5.20861H3.78725V15.0006H2.02725ZM16.9636 15.2566C16.121 15.2566 15.3796 15.0646 14.7396 14.6806C14.0996 14.2966 13.5983 13.7793 13.2356 13.1286C12.873 12.4673 12.6916 11.7313 12.6916 10.9206C12.6916 10.1099 12.873 9.37928 13.2356 8.72861C13.5983 8.06728 14.0996 7.54461 14.7396 7.16061C15.3796 6.77661 16.121 6.58461 16.9636 6.58461C17.7956 6.58461 18.5316 6.78194 19.1716 7.17661C19.8116 7.56061 20.313 8.07794 20.6756 8.72861C21.0383 9.37928 21.2196 10.1099 21.2196 10.9206C21.2196 11.7313 21.0383 12.4673 20.6756 13.1286C20.313 13.7793 19.8116 14.2966 19.1716 14.6806C18.5316 15.0646 17.7956 15.2566 16.9636 15.2566ZM16.9636 13.6726C17.4116 13.6726 17.8276 13.5659 18.2116 13.3526C18.5956 13.1286 18.905 12.8139 19.1396 12.4086C19.385 11.9926 19.5076 11.4966 19.5076 10.9206C19.5076 10.3446 19.385 9.85394 19.1396 9.44861C18.905 9.03261 18.5956 8.71794 18.2116 8.50461C17.8276 8.28061 17.4116 8.16861 16.9636 8.16861C16.5156 8.16861 16.0943 8.28061 15.6996 8.50461C15.3156 8.71794 15.001 9.03261 14.7556 9.44861C14.521 9.85394 14.4036 10.3446 14.4036 10.9206C14.4036 11.4966 14.521 11.9926 14.7556 12.4086C15.001 12.8139 15.321 13.1286 15.7156 13.3526C16.1103 13.5659 16.5263 13.6726 16.9636 13.6726ZM21.7827 15.0006V14.9046L25.1107 10.6806L21.9587 6.93661V6.84061H23.9747L26.8067 10.4566H26.9027V6.84061H28.6307V10.4566H28.7267L31.5747 6.84061H33.6067V6.93661L30.4387 10.6806L33.7667 14.9046V15.0006H31.7347L28.7267 10.9846H28.6307V15.0006H26.9027V10.9846H26.8067L23.8147 15.0006H21.7827ZM38.5579 15.2566C37.7579 15.2566 37.0432 15.0699 36.4139 14.6966C35.7845 14.3233 35.2885 13.8113 34.9259 13.1606C34.5739 12.5099 34.3979 11.7686 34.3979 10.9366C34.3979 10.1579 34.5685 9.43794 34.9099 8.77661C35.2512 8.11528 35.7259 7.58728 36.3339 7.19261C36.9525 6.78728 37.6619 6.58461 38.4619 6.58461C39.3045 6.58461 40.0192 6.76594 40.6059 7.12861C41.2032 7.49128 41.6565 7.98728 41.9659 8.61661C42.2752 9.24594 42.4299 9.95528 42.4299 10.7446C42.4299 10.8619 42.4245 10.9686 42.4139 11.0646C42.4139 11.1606 42.4085 11.2353 42.3979 11.2886H36.0939C36.1365 11.7366 36.2485 12.1259 36.4299 12.4566C36.6645 12.8726 36.9739 13.1873 37.3579 13.4006C37.7419 13.6139 38.1579 13.7206 38.6059 13.7206C39.1499 13.7206 39.6032 13.5979 39.9659 13.3526C40.3392 13.0966 40.6325 12.7819 40.8459 12.4086L42.2699 13.0966C41.9179 13.7366 41.4379 14.2593 40.8299 14.6646C40.2219 15.0593 39.4645 15.2566 38.5579 15.2566ZM36.1899 9.99261H40.7179C40.7072 9.78994 40.6539 9.57661 40.5579 9.35261C40.4619 9.11794 40.3232 8.90461 40.1419 8.71261C39.9605 8.52061 39.7312 8.36594 39.4539 8.24861C39.1765 8.12061 38.8512 8.05661 38.4779 8.05661C38.0085 8.05661 37.5925 8.17928 37.2299 8.42461C36.8672 8.65928 36.5845 8.98994 36.3819 9.41661C36.2965 9.59794 36.2325 9.78994 36.1899 9.99261ZM44.167 18.4566V6.84061H45.783V7.94461H45.879C46.0283 7.70994 46.2257 7.49128 46.471 7.28861C46.727 7.07528 47.0257 6.90461 47.367 6.77661C47.7083 6.64861 48.087 6.58461 48.503 6.58461C49.2497 6.58461 49.9163 6.77128 50.503 7.14461C51.0897 7.51794 51.5537 8.02994 51.895 8.68061C52.247 9.33128 52.423 10.0779 52.423 10.9206C52.423 11.7633 52.247 12.5099 51.895 13.1606C51.5537 13.8113 51.0897 14.3233 50.503 14.6966C49.9163 15.0699 49.2497 15.2566 48.503 15.2566C47.8843 15.2566 47.3457 15.1179 46.887 14.8406C46.4283 14.5633 46.0923 14.2539 45.879 13.9126H45.783L45.879 15.0486V18.4566H44.167ZM48.247 13.6726C48.6737 13.6726 49.0737 13.5606 49.447 13.3366C49.831 13.1126 50.135 12.7926 50.359 12.3766C50.5937 11.9606 50.711 11.4753 50.711 10.9206C50.711 10.3553 50.5937 9.86994 50.359 9.46461C50.135 9.04861 49.831 8.72861 49.447 8.50461C49.0737 8.28061 48.6737 8.16861 48.247 8.16861C47.8203 8.16861 47.4203 8.28061 47.047 8.50461C46.6737 8.72861 46.3697 9.04861 46.135 9.46461C45.9003 9.86994 45.783 10.3553 45.783 10.9206C45.783 11.4859 45.9003 11.9766 46.135 12.3926C46.3697 12.7979 46.6737 13.1126 47.047 13.3366C47.4203 13.5606 47.8203 13.6726 48.247 13.6726ZM56.1317 15.0006V8.34461H53.4437V6.84061H60.5317V8.34461H57.8437V15.0006H56.1317ZM62.0924 15.0006V6.84061H66.1404C66.6204 6.84061 67.047 6.93661 67.4204 7.12861C67.8044 7.30994 68.103 7.56061 68.3164 7.88061C68.5404 8.20061 68.6524 8.55794 68.6524 8.95261C68.6524 9.37928 68.5564 9.74728 68.3644 10.0566C68.183 10.3659 67.943 10.5953 67.6444 10.7446V10.8406C68.0497 11.0006 68.3697 11.2406 68.6044 11.5606C68.8497 11.8806 68.9724 12.2486 68.9724 12.6646C68.9724 13.1446 68.8444 13.5606 68.5884 13.9126C68.343 14.2646 68.023 14.5366 67.6284 14.7286C67.2337 14.9099 66.8124 15.0006 66.3644 15.0006H62.0924ZM63.8204 11.4486V13.5606H66.1884C66.4977 13.5606 66.7537 13.4646 66.9564 13.2726C67.1697 13.0699 67.2764 12.8139 67.2764 12.5046C67.2764 12.2059 67.1697 11.9553 66.9564 11.7526C66.7537 11.5499 66.4977 11.4486 66.1884 11.4486H63.8204ZM63.8204 8.24861V10.1686H65.9324C66.2204 10.1686 66.4604 10.0779 66.6524 9.89661C66.8444 9.71528 66.9404 9.48594 66.9404 9.20861C66.9404 8.92061 66.8444 8.69128 66.6524 8.52061C66.4604 8.33928 66.2204 8.24861 65.9324 8.24861H63.8204ZM73.2451 18.0566C73.2131 18.1313 73.1758 18.2059 73.1331 18.2806C73.1011 18.3659 73.0798 18.4246 73.0691 18.4566H71.2291C71.2825 18.3393 71.3571 18.1739 71.4531 17.9606C71.5598 17.7473 71.6611 17.5339 71.7571 17.3206C71.8211 17.1819 71.8851 17.0326 71.9491 16.8726C72.0238 16.7126 72.0985 16.5473 72.1731 16.3766C72.2585 16.2059 72.3385 16.0406 72.4131 15.8806L73.0211 14.5526L69.6131 6.84061H71.5331L73.8691 12.4086H73.9491L76.2051 6.84061H78.1091L73.8851 16.5686C73.8105 16.7499 73.7251 16.9419 73.6291 17.1446C73.5438 17.3473 73.4638 17.5286 73.3891 17.6886C73.3251 17.8593 73.2771 17.9819 73.2451 18.0566ZM79.5017 15.0006V6.84061H83.5497C84.0297 6.84061 84.4564 6.93661 84.8297 7.12861C85.2137 7.30994 85.5124 7.56061 85.7257 7.88061C85.9497 8.20061 86.0617 8.55794 86.0617 8.95261C86.0617 9.37928 85.9657 9.74728 85.7737 10.0566C85.5924 10.3659 85.3524 10.5953 85.0537 10.7446V10.8406C85.4591 11.0006 85.7791 11.2406 86.0137 11.5606C86.2591 11.8806 86.3817 12.2486 86.3817 12.6646C86.3817 13.1446 86.2537 13.5606 85.9977 13.9126C85.7524 14.2646 85.4324 14.5366 85.0377 14.7286C84.6431 14.9099 84.2217 15.0006 83.7737 15.0006H79.5017ZM81.2297 11.4486V13.5606H83.5977C83.9071 13.5606 84.1631 13.4646 84.3657 13.2726C84.5791 13.0699 84.6857 12.8139 84.6857 12.5046C84.6857 12.2059 84.5791 11.9553 84.3657 11.7526C84.1631 11.5499 83.9071 11.4486 83.5977 11.4486H81.2297ZM81.2297 8.24861V10.1686H83.3417C83.6297 10.1686 83.8697 10.0779 84.0617 9.89661C84.2537 9.71528 84.3497 9.48594 84.3497 9.20861C84.3497 8.92061 84.2537 8.69128 84.0617 8.52061C83.8697 8.33928 83.6297 8.24861 83.3417 8.24861H81.2297ZM90.6961 15.2566C90.1095 15.2566 89.5868 15.1393 89.1281 14.9046C88.6801 14.6699 88.3228 14.3499 88.0561 13.9446C87.8001 13.5286 87.6721 13.0539 87.6721 12.5206C87.6721 11.9339 87.8215 11.4379 88.1201 11.0326C88.4295 10.6273 88.8401 10.3179 89.3521 10.1046C89.8641 9.89128 90.4295 9.78461 91.0481 9.78461C91.3895 9.78461 91.7041 9.81128 91.9921 9.86461C92.2908 9.90728 92.5468 9.96061 92.7601 10.0246C92.9841 10.0886 93.1601 10.1579 93.2881 10.2326V9.80061C93.2881 9.26728 93.0961 8.84061 92.7121 8.52061C92.3281 8.20061 91.8321 8.04061 91.2241 8.04061C90.8081 8.04061 90.4135 8.13661 90.0401 8.32861C89.6668 8.50994 89.3681 8.76061 89.1441 9.08061L87.9601 8.16861C88.1948 7.83794 88.4775 7.55528 88.8081 7.32061C89.1495 7.08594 89.5281 6.90461 89.9441 6.77661C90.3708 6.64861 90.8135 6.58461 91.2721 6.58461C92.4561 6.58461 93.3681 6.87794 94.0081 7.46461C94.6481 8.04061 94.9681 8.85128 94.9681 9.89661V15.0006H93.2881V13.9926H93.1921C93.0535 14.2059 92.8615 14.4086 92.6161 14.6006C92.3815 14.7926 92.0988 14.9473 91.7681 15.0646C91.4481 15.1926 91.0908 15.2566 90.6961 15.2566ZM91.0001 13.8486C91.4481 13.8486 91.8428 13.7419 92.1841 13.5286C92.5361 13.3153 92.8081 13.0379 93.0001 12.6966C93.1921 12.3446 93.2881 11.9659 93.2881 11.5606C93.0535 11.4219 92.7655 11.3099 92.4241 11.2246C92.0935 11.1286 91.7415 11.0806 91.3681 11.0806C90.6641 11.0806 90.1628 11.2193 89.8641 11.4966C89.5655 11.7739 89.4161 12.1206 89.4161 12.5366C89.4161 12.9206 89.5601 13.2353 89.8481 13.4806C90.1361 13.7259 90.5201 13.8486 91.0001 13.8486ZM98.8192 15.0006V8.34461H96.1312V6.84061H103.219V8.34461H100.531V15.0006H98.8192ZM104.78 15.0006V6.84061H106.508V11.0166L106.412 12.5526H106.508L110.588 6.84061H112.3V15.0006H110.588V10.8406L110.684 9.30461H110.588L106.508 15.0006H104.78ZM123.049 15.0006V12.0566C122.825 12.2166 122.542 12.3446 122.201 12.4406C121.86 12.5259 121.486 12.5686 121.081 12.5686C120.142 12.5686 119.39 12.2966 118.825 11.7526C118.27 11.2086 117.993 10.4726 117.993 9.54461V6.84061H119.721V9.36861C119.721 9.88061 119.865 10.2859 120.153 10.5846C120.452 10.8726 120.868 11.0166 121.401 11.0166C121.721 11.0166 122.03 10.9686 122.329 10.8726C122.638 10.7659 122.878 10.6273 123.049 10.4566V6.84061H124.761V15.0006H123.049ZM130.598 15.2566C129.798 15.2566 129.084 15.0699 128.454 14.6966C127.825 14.3233 127.329 13.8113 126.966 13.1606C126.614 12.5099 126.438 11.7686 126.438 10.9366C126.438 10.1579 126.609 9.43794 126.95 8.77661C127.292 8.11528 127.766 7.58728 128.374 7.19261C128.993 6.78728 129.702 6.58461 130.502 6.58461C131.345 6.58461 132.06 6.76594 132.646 7.12861C133.244 7.49128 133.697 7.98728 134.006 8.61661C134.316 9.24594 134.47 9.95528 134.47 10.7446C134.47 10.8619 134.465 10.9686 134.454 11.0646C134.454 11.1606 134.449 11.2353 134.438 11.2886H128.134C128.177 11.7366 128.289 12.1259 128.47 12.4566C128.705 12.8726 129.014 13.1873 129.398 13.4006C129.782 13.6139 130.198 13.7206 130.646 13.7206C131.19 13.7206 131.644 13.5979 132.006 13.3526C132.38 13.0966 132.673 12.7819 132.886 12.4086L134.31 13.0966C133.958 13.7366 133.478 14.2593 132.87 14.6646C132.262 15.0593 131.505 15.2566 130.598 15.2566ZM128.23 9.99261H132.758C132.748 9.78994 132.694 9.57661 132.598 9.35261C132.502 9.11794 132.364 8.90461 132.182 8.71261C132.001 8.52061 131.772 8.36594 131.494 8.24861C131.217 8.12061 130.892 8.05661 130.518 8.05661C130.049 8.05661 129.633 8.17928 129.27 8.42461C128.908 8.65928 128.625 8.98994 128.422 9.41661C128.337 9.59794 128.273 9.78994 128.23 9.99261ZM136.208 18.4566V6.84061H137.824V7.94461H137.92C138.069 7.70994 138.266 7.49128 138.512 7.28861C138.768 7.07528 139.066 6.90461 139.408 6.77661C139.749 6.64861 140.128 6.58461 140.544 6.58461C141.29 6.58461 141.957 6.77128 142.544 7.14461C143.13 7.51794 143.594 8.02994 143.936 8.68061C144.288 9.33128 144.464 10.0779 144.464 10.9206C144.464 11.7633 144.288 12.5099 143.936 13.1606C143.594 13.8113 143.13 14.3233 142.544 14.6966C141.957 15.0699 141.29 15.2566 140.544 15.2566C139.925 15.2566 139.386 15.1179 138.928 14.8406C138.469 14.5633 138.133 14.2539 137.92 13.9126H137.824L137.92 15.0486V18.4566H136.208ZM140.288 13.6726C140.714 13.6726 141.114 13.5606 141.488 13.3366C141.872 13.1126 142.176 12.7926 142.4 12.3766C142.634 11.9606 142.752 11.4753 142.752 10.9206C142.752 10.3553 142.634 9.86994 142.4 9.46461C142.176 9.04861 141.872 8.72861 141.488 8.50461C141.114 8.28061 140.714 8.16861 140.288 8.16861C139.861 8.16861 139.461 8.28061 139.088 8.50461C138.714 8.72861 138.41 9.04861 138.176 9.46461C137.941 9.86994 137.824 10.3553 137.824 10.9206C137.824 11.4859 137.941 11.9766 138.176 12.3926C138.41 12.7979 138.714 13.1126 139.088 13.3366C139.461 13.5606 139.861 13.6726 140.288 13.6726ZM149.898 15.2566C149.098 15.2566 148.384 15.0699 147.754 14.6966C147.125 14.3233 146.629 13.8113 146.266 13.1606C145.914 12.5099 145.738 11.7686 145.738 10.9366C145.738 10.1579 145.909 9.43794 146.25 8.77661C146.592 8.11528 147.066 7.58728 147.674 7.19261C148.293 6.78728 149.002 6.58461 149.802 6.58461C150.645 6.58461 151.36 6.76594 151.946 7.12861C152.544 7.49128 152.997 7.98728 153.306 8.61661C153.616 9.24594 153.77 9.95528 153.77 10.7446C153.77 10.8619 153.765 10.9686 153.754 11.0646C153.754 11.1606 153.749 11.2353 153.738 11.2886H147.434C147.477 11.7366 147.589 12.1259 147.77 12.4566C148.005 12.8726 148.314 13.1873 148.698 13.4006C149.082 13.6139 149.498 13.7206 149.946 13.7206C150.49 13.7206 150.944 13.5979 151.306 13.3526C151.68 13.0966 151.973 12.7819 152.186 12.4086L153.61 13.0966C153.258 13.7366 152.778 14.2593 152.17 14.6646C151.562 15.0593 150.805 15.2566 149.898 15.2566ZM147.53 9.99261H152.058C152.048 9.78994 151.994 9.57661 151.898 9.35261C151.802 9.11794 151.664 8.90461 151.482 8.71261C151.301 8.52061 151.072 8.36594 150.794 8.24861C150.517 8.12061 150.192 8.05661 149.818 8.05661C149.349 8.05661 148.933 8.17928 148.57 8.42461C148.208 8.65928 147.925 8.98994 147.722 9.41661C147.637 9.59794 147.573 9.78994 147.53 9.99261ZM158.123 15.2566C157.686 15.2566 157.238 15.2033 156.779 15.0966C156.331 14.9899 155.915 14.8086 155.531 14.5526C155.147 14.2859 154.822 13.9179 154.555 13.4486L155.931 12.6486C156.23 13.0646 156.571 13.3526 156.955 13.5126C157.35 13.6619 157.739 13.7366 158.123 13.7366C158.678 13.7366 159.099 13.6299 159.387 13.4166C159.675 13.2033 159.819 12.9259 159.819 12.5846C159.819 12.2859 159.686 12.0459 159.419 11.8646C159.163 11.6726 158.8 11.5766 158.331 11.5766H157.003V10.2166H158.331C158.736 10.2166 159.046 10.1206 159.259 9.92861C159.483 9.73661 159.595 9.49128 159.595 9.19261C159.595 8.84061 159.446 8.56328 159.147 8.36061C158.848 8.14728 158.47 8.04061 158.011 8.04061C157.606 8.04061 157.216 8.12594 156.843 8.29661C156.47 8.45661 156.187 8.67528 155.995 8.95261L154.715 8.10461C154.96 7.78461 155.254 7.51261 155.595 7.28861C155.936 7.06461 156.31 6.89394 156.715 6.77661C157.131 6.64861 157.568 6.58461 158.027 6.58461C158.635 6.58461 159.179 6.68594 159.659 6.88861C160.139 7.09128 160.518 7.37394 160.795 7.73661C161.083 8.08861 161.227 8.49928 161.227 8.96861C161.227 9.37394 161.126 9.73661 160.923 10.0566C160.72 10.3766 160.454 10.6113 160.123 10.7606V10.8566C160.539 11.0273 160.875 11.2833 161.131 11.6246C161.387 11.9659 161.515 12.3553 161.515 12.7926C161.515 13.2726 161.371 13.6993 161.083 14.0726C160.806 14.4459 160.411 14.7393 159.899 14.9526C159.398 15.1553 158.806 15.2566 158.123 15.2566Z" fill="white"/>
<g id="GPay (Dark)">
<g id="GPay">
<g id="Pay">
<path id="Fill 1" fill-rule="evenodd" clip-rule="evenodd" d="M190.356 3.42339V8.16175H193.278C193.974 8.16175 194.55 7.92781 195.005 7.45993C195.473 6.99313 195.707 6.43644 195.707 5.79203C195.707 5.16061 195.473 4.61041 195.005 4.14254C194.55 3.66274 193.974 3.4223 193.278 3.4223H190.356V3.42339ZM190.356 9.82966V15.3262H188.611V1.75549H193.24C194.417 1.75549 195.415 2.14756 196.238 2.93061C197.073 3.71365 197.491 4.66782 197.491 5.79203C197.491 6.94224 197.073 7.90291 196.238 8.67296C195.428 9.44409 194.429 9.82858 193.24 9.82858H190.356V9.82966Z" fill="white"/>
<path id="Fill 3" fill-rule="evenodd" clip-rule="evenodd" d="M199.255 12.4831C199.255 12.9379 199.448 13.317 199.834 13.6203C200.22 13.9235 200.672 14.0752 201.19 14.0752C201.924 14.0752 202.578 13.8032 203.153 13.2607C203.729 12.717 204.017 12.0791 204.017 11.3469C203.472 10.917 202.713 10.7025 201.74 10.7025C201.031 10.7025 200.44 10.8736 199.966 11.2148C199.492 11.5559 199.255 11.9773 199.255 12.4831M201.513 5.73566C202.803 5.73566 203.821 6.08007 204.569 6.76889C205.314 7.45771 205.687 8.40213 205.687 9.60216V15.3261H204.018V14.0373H203.942C203.221 15.0985 202.259 15.6294 201.058 15.6294C200.033 15.6294 199.176 15.3261 198.487 14.7196C197.797 14.1131 197.453 13.3549 197.453 12.4452C197.453 11.4845 197.816 10.7208 198.543 10.1523C199.271 9.58375 200.241 9.2989 201.456 9.2989C202.492 9.2989 203.346 9.48844 204.017 9.86751V9.46894C204.017 8.86243 203.776 8.34798 203.296 7.92451C202.814 7.50103 202.252 7.28984 201.607 7.28984C200.633 7.28984 199.862 7.70032 199.293 8.52235L197.755 7.55519C198.603 6.34217 199.855 5.73566 201.513 5.73566" fill="white"/>
<path id="Fill 5" fill-rule="evenodd" clip-rule="evenodd" d="M215.269 6.03894L209.443 19.4201H207.641L209.804 14.738L205.971 6.03894H207.869L210.639 12.7106H210.677L213.371 6.03894H215.269Z" fill="white"/>
</g>
<g id="G">
<path id="Fill 8" fill-rule="evenodd" clip-rule="evenodd" d="M183.303 8.64473C183.303 8.09563 183.256 7.56601 183.168 7.05914H175.806V10.0625H180.023C179.842 11.0414 179.294 11.8744 178.464 12.4322V14.3828H180.98C182.454 13.0246 183.303 11.0177 183.303 8.64473" fill="#4285F4"/>
<path id="Fill 10" fill-rule="evenodd" clip-rule="evenodd" d="M175.806 16.2651C177.913 16.2651 179.687 15.5741 180.98 14.3828L178.464 12.4322C177.764 12.9033 176.861 13.1784 175.806 13.1784C173.77 13.1784 172.042 11.8073 171.424 9.95959H168.832V11.9687C170.116 14.516 172.757 16.2651 175.806 16.2651" fill="#34A853"/>
<path id="Fill 12" fill-rule="evenodd" clip-rule="evenodd" d="M171.424 9.9596C171.266 9.48847 171.179 8.98593 171.179 8.46715C171.179 7.94837 171.266 7.44583 171.424 6.9747V4.96564H168.832C168.3 6.01837 168 7.20756 168 8.46715C168 9.72674 168.3 10.916 168.832 11.9687L171.424 9.9596Z" fill="#FABB05"/>
<path id="Fill 14" fill-rule="evenodd" clip-rule="evenodd" d="M175.806 3.75583C176.957 3.75583 177.988 4.15115 178.801 4.92553V4.92661L181.029 2.70094C179.676 1.44243 177.912 0.669128 175.806 0.669128C172.757 0.669128 170.116 2.41826 168.832 4.9656L171.424 6.97467C172.042 5.12698 173.77 3.75583 175.806 3.75583" fill="#E94235"/>
</g>
</g>
</g>
</g>
</svg>
