<svg width="314" height="38" viewBox="0 0 314 38" fill="none" xmlns="http://www.w3.org/2000/svg">
<g id="uk_order_with_Light">
<path id="Text" d="M10.5944 30.448C8.76511 30.448 7.18778 30.0187 5.86244 29.16C4.53711 28.3013 3.64111 27.1627 3.17444 25.744L5.77844 24.372C6.18911 25.3053 6.78644 26.08 7.57044 26.696C8.37311 27.2933 9.39044 27.592 10.6224 27.592C11.7424 27.592 12.7038 27.312 13.5064 26.752C14.3278 26.192 14.7384 25.3613 14.7384 24.26C14.7384 23.308 14.4024 22.5147 13.7304 21.88C13.0771 21.2267 12.1438 20.9 10.9304 20.9H8.21444V18.156H10.9304C11.9571 18.156 12.7318 17.8853 13.2544 17.344C13.7771 16.784 14.0384 16.084 14.0384 15.244C14.0384 14.2733 13.7211 13.536 13.0864 13.032C12.4518 12.528 11.5744 12.276 10.4544 12.276C9.46511 12.276 8.57844 12.4813 7.79444 12.892C7.02911 13.3027 6.45044 13.872 6.05844 14.6L3.53844 13.396C4.13578 12.1827 5.03178 11.2307 6.22644 10.54C7.42111 9.84933 8.83044 9.504 10.4544 9.504C11.8171 9.504 12.9931 9.73733 13.9824 10.204C14.9904 10.6707 15.7651 11.3147 16.3064 12.136C16.8478 12.9387 17.1184 13.872 17.1184 14.936C17.1184 15.888 16.8758 16.7467 16.3904 17.512C15.9238 18.2587 15.2238 18.856 14.2904 19.304V19.472C15.3358 19.9013 16.1851 20.5173 16.8384 21.32C17.4918 22.1227 17.8184 23.1213 17.8184 24.316C17.8184 25.436 17.5291 26.4627 16.9504 27.396C16.3718 28.3293 15.5411 29.076 14.4584 29.636C13.3758 30.1773 12.0878 30.448 10.5944 30.448ZM25.5503 30.448C24.5236 30.448 23.6089 30.252 22.8063 29.86C22.0036 29.4493 21.3783 28.88 20.9303 28.152C20.4823 27.424 20.2583 26.5933 20.2583 25.66C20.2583 24.652 20.5196 23.7933 21.0423 23.084C21.5836 22.356 22.3023 21.8053 23.1983 21.432C24.0943 21.0587 25.0836 20.872 26.1663 20.872C27.0623 20.872 27.8463 20.956 28.5183 21.124C29.2089 21.292 29.7316 21.4693 30.0863 21.656V20.9C30.0863 19.9667 29.7503 19.22 29.0783 18.66C28.4063 18.1 27.5383 17.82 26.4743 17.82C25.7463 17.82 25.0556 17.988 24.4023 18.324C23.7489 18.6413 23.2263 19.08 22.8343 19.64L20.7623 18.044C21.3783 17.1853 22.1903 16.5133 23.1983 16.028C24.2249 15.524 25.3449 15.272 26.5583 15.272C28.6303 15.272 30.2263 15.7853 31.3463 16.812C32.4663 17.82 33.0263 19.2387 33.0263 21.068V30H30.0863V28.236H29.9183C29.5449 28.8147 28.9849 29.328 28.2383 29.776C27.4916 30.224 26.5956 30.448 25.5503 30.448ZM26.0823 27.984C26.8663 27.984 27.5569 27.7973 28.1543 27.424C28.7516 27.0507 29.2183 26.5653 29.5543 25.968C29.9089 25.352 30.0863 24.6893 30.0863 23.98C29.6569 23.7373 29.1529 23.5413 28.5743 23.392C27.9956 23.224 27.3796 23.14 26.7263 23.14C25.4943 23.14 24.6169 23.392 24.0943 23.896C23.5716 24.3813 23.3103 24.9787 23.3103 25.688C23.3103 26.36 23.5623 26.9107 24.0663 27.34C24.5703 27.7693 25.2423 27.984 26.0823 27.984ZM36.6554 30V15.72H40.2394L44.6354 24.456H44.7754L49.1994 15.72H52.6994V30H49.8154V23.056L49.9554 20.312H49.7874L45.6714 28.18H43.6834L39.5674 20.312H39.3994L39.5394 23.056V30H36.6554ZM63.1168 30.448C61.6422 30.448 60.3448 30.112 59.2248 29.44C58.1048 28.768 57.2275 27.8627 56.5928 26.724C55.9582 25.5853 55.6408 24.2973 55.6408 22.86C55.6408 21.4413 55.9582 20.1627 56.5928 19.024C57.2275 17.8667 58.1048 16.952 59.2248 16.28C60.3448 15.608 61.6422 15.272 63.1168 15.272C64.5728 15.272 65.8608 15.608 66.9808 16.28C68.1008 16.952 68.9782 17.8667 69.6128 19.024C70.2475 20.1627 70.5648 21.4413 70.5648 22.86C70.5648 24.2973 70.2475 25.5853 69.6128 26.724C68.9782 27.8627 68.1008 28.768 66.9808 29.44C65.8608 30.112 64.5728 30.448 63.1168 30.448ZM63.1168 27.676C63.9008 27.676 64.6288 27.4893 65.3008 27.116C65.9728 26.724 66.5142 26.1733 66.9248 25.464C67.3542 24.736 67.5688 23.868 67.5688 22.86C67.5688 21.852 67.3542 20.9933 66.9248 20.284C66.5142 19.556 65.9728 19.0053 65.3008 18.632C64.6288 18.24 63.9008 18.044 63.1168 18.044C62.3328 18.044 61.5955 18.24 60.9048 18.632C60.2328 19.0053 59.6822 19.556 59.2528 20.284C58.8422 20.9933 58.6368 21.852 58.6368 22.86C58.6368 23.868 58.8422 24.736 59.2528 25.464C59.6822 26.1733 60.2328 26.724 60.9048 27.116C61.5955 27.4893 62.3328 27.676 63.1168 27.676ZM73.3765 30V15.72H80.4605C81.3005 15.72 82.0472 15.888 82.7005 16.224C83.3725 16.5413 83.8952 16.98 84.2685 17.54C84.6605 18.1 84.8565 18.7253 84.8565 19.416C84.8565 20.1627 84.6885 20.8067 84.3525 21.348C84.0352 21.8893 83.6152 22.2907 83.0925 22.552V22.72C83.8018 23 84.3618 23.42 84.7725 23.98C85.2018 24.54 85.4165 25.184 85.4165 25.912C85.4165 26.752 85.1925 27.48 84.7445 28.096C84.3152 28.712 83.7552 29.188 83.0645 29.524C82.3738 29.8413 81.6365 30 80.8525 30H73.3765ZM76.4005 18.184V21.544H80.0965C80.6005 21.544 81.0205 21.3853 81.3565 21.068C81.6925 20.7507 81.8605 20.3493 81.8605 19.864C81.8605 19.36 81.6925 18.9587 81.3565 18.66C81.0205 18.3427 80.6005 18.184 80.0965 18.184H76.4005ZM76.4005 27.48H80.5445C81.0858 27.48 81.5338 27.312 81.8885 26.976C82.2618 26.6213 82.4485 26.1733 82.4485 25.632C82.4485 25.1093 82.2618 24.6707 81.8885 24.316C81.5338 23.9613 81.0858 23.784 80.5445 23.784H76.4005V27.48ZM88.5242 30V15.72H91.5482V23.028L91.3802 25.716H91.5482L98.6882 15.72H101.684V30H98.6882V22.72L98.8562 20.032H98.6882L91.5482 30H88.5242ZM109.171 30V18.352H104.467V15.72H116.871V18.352H112.167V30H109.171ZM119.64 30V15.72H122.664V23.028L122.496 25.716H122.664L129.804 15.72H132.8V30H129.804V22.72L129.972 20.032H129.804L122.664 30H119.64ZM151.686 30V24.848C151.294 25.128 150.799 25.352 150.202 25.52C149.605 25.6693 148.951 25.744 148.242 25.744C146.599 25.744 145.283 25.268 144.294 24.316C143.323 23.364 142.838 22.076 142.838 20.452V15.72H145.862V20.144C145.862 21.04 146.114 21.7493 146.618 22.272C147.141 22.776 147.869 23.028 148.802 23.028C149.381 23.028 149.922 22.944 150.426 22.776C150.949 22.5893 151.369 22.3467 151.686 22.048V15.72H154.682V30H151.686ZM164.935 30.448C163.535 30.448 162.284 30.1213 161.183 29.468C160.082 28.8147 159.214 27.9187 158.579 26.78C157.963 25.6413 157.655 24.344 157.655 22.888C157.655 21.5253 157.954 20.2653 158.551 19.108C159.148 17.9507 159.979 17.0267 161.043 16.336C162.126 15.6267 163.367 15.272 164.767 15.272C166.242 15.272 167.492 15.5893 168.519 16.224C169.564 16.8587 170.358 17.7267 170.899 18.828C171.44 19.9293 171.711 21.1707 171.711 22.552C171.711 22.7573 171.702 22.944 171.683 23.112C171.683 23.28 171.674 23.4107 171.655 23.504H160.623C160.772 24.9227 161.267 25.9867 162.107 26.696C162.966 27.4053 163.936 27.76 165.019 27.76C165.99 27.76 166.792 27.5453 167.427 27.116C168.062 26.668 168.566 26.1173 168.939 25.464L171.431 26.668C170.815 27.788 169.975 28.7027 168.911 29.412C167.847 30.1027 166.522 30.448 164.935 30.448ZM164.795 17.848C163.787 17.848 162.928 18.156 162.219 18.772C161.51 19.388 161.034 20.2093 160.791 21.236H168.715C168.678 20.7507 168.519 20.2467 168.239 19.724C167.959 19.2013 167.53 18.7627 166.951 18.408C166.391 18.0347 165.672 17.848 164.795 17.848ZM174.788 36.048V15.72H177.616V17.652H177.784C178.158 17.036 178.736 16.4853 179.52 16C180.323 15.5147 181.275 15.272 182.376 15.272C183.683 15.272 184.85 15.5987 185.876 16.252C186.903 16.9053 187.715 17.8013 188.312 18.94C188.928 20.0787 189.236 21.3853 189.236 22.86C189.236 24.3347 188.928 25.6507 188.312 26.808C187.715 27.9467 186.903 28.8427 185.876 29.496C184.85 30.1307 183.683 30.448 182.376 30.448C181.275 30.448 180.323 30.2147 179.52 29.748C178.736 29.2627 178.158 28.712 177.784 28.096H177.616L177.784 30.084V36.048H174.788ZM181.928 27.676C182.675 27.676 183.375 27.48 184.028 27.088C184.682 26.696 185.214 26.1453 185.624 25.436C186.035 24.708 186.24 23.8493 186.24 22.86C186.24 21.8707 186.035 21.0213 185.624 20.312C185.214 19.584 184.682 19.024 184.028 18.632C183.375 18.24 182.675 18.044 181.928 18.044C181.182 18.044 180.482 18.24 179.828 18.632C179.175 19.024 178.643 19.584 178.232 20.312C177.822 21.0213 177.616 21.8707 177.616 22.86C177.616 23.8493 177.822 24.708 178.232 25.436C178.643 26.1453 179.175 26.696 179.828 27.088C180.482 27.48 181.182 27.676 181.928 27.676ZM198.785 30.448C197.385 30.448 196.134 30.1213 195.033 29.468C193.932 28.8147 193.064 27.9187 192.429 26.78C191.813 25.6413 191.505 24.344 191.505 22.888C191.505 21.5253 191.804 20.2653 192.401 19.108C192.998 17.9507 193.829 17.0267 194.893 16.336C195.976 15.6267 197.217 15.272 198.617 15.272C200.092 15.272 201.342 15.5893 202.369 16.224C203.414 16.8587 204.208 17.7267 204.749 18.828C205.29 19.9293 205.561 21.1707 205.561 22.552C205.561 22.7573 205.552 22.944 205.533 23.112C205.533 23.28 205.524 23.4107 205.505 23.504H194.473C194.622 24.9227 195.117 25.9867 195.957 26.696C196.816 27.4053 197.786 27.76 198.869 27.76C199.84 27.76 200.642 27.5453 201.277 27.116C201.912 26.668 202.416 26.1173 202.789 25.464L205.281 26.668C204.665 27.788 203.825 28.7027 202.761 29.412C201.697 30.1027 200.372 30.448 198.785 30.448ZM198.645 17.848C197.637 17.848 196.778 18.156 196.069 18.772C195.36 19.388 194.884 20.2093 194.641 21.236H202.565C202.528 20.7507 202.369 20.2467 202.089 19.724C201.809 19.2013 201.38 18.7627 200.801 18.408C200.241 18.0347 199.522 17.848 198.645 17.848ZM213.215 30.448C212.431 30.448 211.647 30.3547 210.863 30.168C210.079 29.9813 209.342 29.664 208.651 29.216C207.979 28.7493 207.419 28.1053 206.971 27.284L209.379 25.884C209.902 26.612 210.499 27.116 211.171 27.396C211.862 27.6573 212.543 27.788 213.215 27.788C214.186 27.788 214.923 27.6013 215.427 27.228C215.931 26.8547 216.183 26.3693 216.183 25.772C216.183 25.2493 215.95 24.8293 215.483 24.512C215.035 24.176 214.401 24.008 213.579 24.008H211.255V21.628H213.579C214.289 21.628 214.83 21.46 215.203 21.124C215.595 20.788 215.791 20.3587 215.791 19.836C215.791 19.22 215.53 18.7347 215.007 18.38C214.485 18.0067 213.822 17.82 213.019 17.82C212.31 17.82 211.629 17.9693 210.975 18.268C210.322 18.548 209.827 18.9307 209.491 19.416L207.251 17.932C207.905 17.1107 208.726 16.4667 209.715 16C210.723 15.5147 211.834 15.272 213.047 15.272C214.093 15.272 215.035 15.4493 215.875 15.804C216.734 16.1587 217.406 16.6533 217.891 17.288C218.395 17.904 218.647 18.6227 218.647 19.444C218.647 20.1533 218.47 20.788 218.115 21.348C217.761 21.8893 217.294 22.3 216.715 22.58V22.748C217.443 23.0467 218.031 23.4947 218.479 24.092C218.927 24.6893 219.151 25.3707 219.151 26.136C219.151 26.976 218.909 27.7227 218.423 28.376C217.938 29.0107 217.247 29.5147 216.351 29.888C215.455 30.2613 214.41 30.448 213.215 30.448Z" fill="#3C4043"/>
<g id="GPay Logo (Light)">
<g id="GPay">
<g id="Pay">
<path id="Fill 1" fill-rule="evenodd" clip-rule="evenodd" d="M270.529 9.44664V17.6128H275.565C276.765 17.6128 277.757 17.2096 278.541 16.4032C279.347 15.5988 279.75 14.6394 279.75 13.5288C279.75 12.4406 279.347 11.4924 278.541 10.686C277.757 9.85915 276.765 9.44478 275.565 9.44478H270.529V9.44664ZM270.529 20.4872V29.9599H267.521V6.57217H275.499C277.527 6.57217 279.248 7.24786 280.666 8.59737C282.105 9.94688 282.824 11.5913 282.824 13.5288C282.824 15.511 282.105 17.1667 280.666 18.4938C279.27 19.8227 277.547 20.4854 275.499 20.4854H270.529V20.4872Z" fill="#5F6368"/>
<path id="Fill 3" fill-rule="evenodd" clip-rule="evenodd" d="M285.864 25.0602C285.864 25.8442 286.197 26.4975 286.862 27.0201C287.527 27.5427 288.306 27.804 289.2 27.804C290.465 27.804 291.591 27.3354 292.584 26.4004C293.576 25.4634 294.071 24.364 294.071 23.1022C293.133 22.3612 291.825 21.9916 290.147 21.9916C288.925 21.9916 287.907 22.2865 287.09 22.8745C286.273 23.4623 285.864 24.1886 285.864 25.0602ZM289.756 13.4317C291.98 13.4317 293.735 14.0252 295.022 15.2124C296.308 16.3995 296.95 18.0271 296.95 20.0952V29.9599H294.073V27.7387H293.942C292.699 29.5677 291.042 30.4825 288.972 30.4825C287.206 30.4825 285.728 29.9599 284.541 28.9146C283.353 27.8694 282.759 26.5628 282.759 24.9949C282.759 23.3393 283.385 22.0232 284.638 21.0434C285.892 20.0635 287.565 19.5726 289.658 19.5726C291.444 19.5726 292.916 19.8992 294.071 20.5525V19.8656C294.071 18.8204 293.656 17.9338 292.829 17.204C291.999 16.4741 291.031 16.1102 289.919 16.1102C288.239 16.1102 286.911 16.8176 285.93 18.2343L283.28 16.5675C284.741 14.4769 286.899 13.4317 289.756 13.4317Z" fill="#5F6368"/>
<path id="Fill 5" fill-rule="evenodd" clip-rule="evenodd" d="M313.463 13.9543L303.424 37.0154H300.318L304.046 28.9464L297.44 13.9543H300.71L305.484 25.4522H305.55L310.193 13.9543H313.463Z" fill="#5F6368"/>
</g>
<g id="G">
<path id="Fill 8" fill-rule="evenodd" clip-rule="evenodd" d="M258.373 18.4452C258.373 17.4989 258.293 16.5861 258.141 15.7126H245.454V20.8885H252.72C252.408 22.5757 251.465 24.0112 250.033 24.9725V28.3341H254.37C256.91 25.9935 258.373 22.5348 258.373 18.4452Z" fill="#4285F4"/>
<path id="Fill 10" fill-rule="evenodd" clip-rule="evenodd" d="M245.454 31.5782C249.084 31.5782 252.141 30.3873 254.37 28.3341L250.033 24.9725C248.826 25.7844 247.272 26.2585 245.454 26.2585C241.944 26.2585 238.966 23.8955 237.901 20.7112H233.433V24.1736C235.647 28.5637 240.197 31.5782 245.454 31.5782Z" fill="#34A853"/>
<path id="Fill 12" fill-rule="evenodd" clip-rule="evenodd" d="M237.901 20.7111C237.628 19.8992 237.479 19.0331 237.479 18.139C237.479 17.245 237.628 16.3789 237.901 15.567V12.1045H233.433C232.518 13.9188 232 15.9683 232 18.139C232 20.3098 232.518 22.3595 233.433 24.1736L237.901 20.7111Z" fill="#FABB05"/>
<path id="Fill 14" fill-rule="evenodd" clip-rule="evenodd" d="M245.454 10.0196C247.436 10.0196 249.213 10.7009 250.615 12.0355V12.0374L254.455 8.20162C252.123 6.03271 249.082 4.7 245.454 4.7C240.197 4.7 235.647 7.71446 233.433 12.1046L237.901 15.567C238.966 12.3827 241.944 10.0196 245.454 10.0196Z" fill="#E94235"/>
</g>
</g>
</g>
</g>
</svg>
