<svg width="179" height="21" viewBox="0 0 179 21" fill="none" xmlns="http://www.w3.org/2000/svg">
<g id="uk_order_with_Pay_NBG">
<path id="Left Text" d="M5.61825 15.2566C4.91425 15.2566 4.27425 15.1446 3.69825 14.9206C3.13292 14.6966 2.64759 14.3819 2.24225 13.9766C1.84759 13.5713 1.55959 13.1019 1.37825 12.5686L2.86625 11.7846C3.10092 12.3179 3.44225 12.7606 3.89025 13.1126C4.34892 13.4539 4.93025 13.6246 5.63425 13.6246C6.06092 13.6246 6.45025 13.5553 6.80225 13.4166C7.16492 13.2779 7.45292 13.0646 7.66625 12.7766C7.87959 12.4886 7.98625 12.1366 7.98625 11.7206C7.98625 11.1766 7.79425 10.7233 7.41025 10.3606C7.03692 9.98728 6.50359 9.80061 5.81025 9.80061H4.25825V8.23261H5.81025C6.39692 8.23261 6.83959 8.07794 7.13825 7.76861C7.43692 7.44861 7.58625 7.04861 7.58625 6.56861C7.58625 6.01394 7.40492 5.59261 7.04225 5.30461C6.67959 5.01661 6.17825 4.87261 5.53825 4.87261C4.97292 4.87261 4.46625 4.98994 4.01825 5.22461C3.58092 5.45928 3.25025 5.78461 3.02625 6.20061L1.58625 5.51261C1.82092 5.04328 2.12492 4.64328 2.49825 4.31261C2.87159 3.98194 3.31425 3.73128 3.82625 3.56061C4.34892 3.37928 4.91959 3.28861 5.53825 3.28861C6.31692 3.28861 6.98892 3.42194 7.55425 3.68861C8.13025 3.94461 8.57292 4.30728 8.88225 4.77661C9.19159 5.24594 9.34625 5.78461 9.34625 6.39261C9.34625 6.93661 9.20759 7.42728 8.93025 7.86461C8.66359 8.29128 8.26359 8.63261 7.73025 8.88861V8.98461C8.32759 9.22994 8.81292 9.58194 9.18625 10.0406C9.55959 10.4993 9.74625 11.0699 9.74625 11.7526C9.74625 12.3926 9.58092 12.9793 9.25025 13.5126C8.91959 14.0459 8.44492 14.4726 7.82625 14.7926C7.20759 15.1019 6.47159 15.2566 5.61825 15.2566ZM14.143 15.2566C13.5563 15.2566 13.0337 15.1393 12.575 14.9046C12.127 14.6699 11.7697 14.3499 11.503 13.9446C11.247 13.5286 11.119 13.0539 11.119 12.5206C11.119 11.9339 11.2683 11.4379 11.567 11.0326C11.8763 10.6273 12.287 10.3179 12.799 10.1046C13.311 9.89128 13.8763 9.78461 14.495 9.78461C14.8363 9.78461 15.151 9.81128 15.439 9.86461C15.7377 9.90728 15.9937 9.96061 16.207 10.0246C16.431 10.0886 16.607 10.1579 16.735 10.2326V9.80061C16.735 9.26728 16.543 8.84061 16.159 8.52061C15.775 8.20061 15.279 8.04061 14.671 8.04061C14.255 8.04061 13.8603 8.13661 13.487 8.32861C13.1137 8.50994 12.815 8.76061 12.591 9.08061L11.407 8.16861C11.6417 7.83794 11.9243 7.55528 12.255 7.32061C12.5963 7.08594 12.975 6.90461 13.391 6.77661C13.8177 6.64861 14.2603 6.58461 14.719 6.58461C15.903 6.58461 16.815 6.87794 17.455 7.46461C18.095 8.04061 18.415 8.85128 18.415 9.89661V15.0006H16.735V13.9926H16.639C16.5003 14.2059 16.3083 14.4086 16.063 14.6006C15.8283 14.7926 15.5457 14.9473 15.215 15.0646C14.895 15.1926 14.5377 15.2566 14.143 15.2566ZM14.447 13.8486C14.895 13.8486 15.2897 13.7419 15.631 13.5286C15.983 13.3153 16.255 13.0379 16.447 12.6966C16.639 12.3446 16.735 11.9659 16.735 11.5606C16.5003 11.4219 16.2123 11.3099 15.871 11.2246C15.5403 11.1286 15.1883 11.0806 14.815 11.0806C14.111 11.0806 13.6097 11.2193 13.311 11.4966C13.0123 11.7739 12.863 12.1206 12.863 12.5366C12.863 12.9206 13.007 13.2353 13.295 13.4806C13.583 13.7259 13.967 13.8486 14.447 13.8486ZM20.4674 15.0006V6.84061H22.5154L25.0274 11.8326H25.1074L27.6354 6.84061H29.6354V15.0006H27.9874V11.0326L28.0674 9.46461H27.9714L25.6194 13.9606H24.4834L22.1314 9.46461H22.0354L22.1154 11.0326V15.0006H20.4674ZM35.5668 15.2566C34.7241 15.2566 33.9828 15.0646 33.3428 14.6806C32.7028 14.2966 32.2014 13.7793 31.8388 13.1286C31.4761 12.4673 31.2948 11.7313 31.2948 10.9206C31.2948 10.1099 31.4761 9.37928 31.8388 8.72861C32.2014 8.06728 32.7028 7.54461 33.3428 7.16061C33.9828 6.77661 34.7241 6.58461 35.5668 6.58461C36.3988 6.58461 37.1348 6.78194 37.7748 7.17661C38.4148 7.56061 38.9161 8.07794 39.2788 8.72861C39.6414 9.37928 39.8228 10.1099 39.8228 10.9206C39.8228 11.7313 39.6414 12.4673 39.2788 13.1286C38.9161 13.7793 38.4148 14.2966 37.7748 14.6806C37.1348 15.0646 36.3988 15.2566 35.5668 15.2566ZM35.5668 13.6726C36.0148 13.6726 36.4308 13.5659 36.8148 13.3526C37.1988 13.1286 37.5081 12.8139 37.7428 12.4086C37.9881 11.9926 38.1108 11.4966 38.1108 10.9206C38.1108 10.3446 37.9881 9.85394 37.7428 9.44861C37.5081 9.03261 37.1988 8.71794 36.8148 8.50461C36.4308 8.28061 36.0148 8.16861 35.5668 8.16861C35.1188 8.16861 34.6974 8.28061 34.3028 8.50461C33.9188 8.71794 33.6041 9.03261 33.3588 9.44861C33.1241 9.85394 33.0068 10.3446 33.0068 10.9206C33.0068 11.4966 33.1241 11.9926 33.3588 12.4086C33.6041 12.8139 33.9241 13.1286 34.3188 13.3526C34.7134 13.5659 35.1294 13.6726 35.5668 13.6726ZM41.408 15.0006V6.84061H45.456C45.936 6.84061 46.3627 6.93661 46.736 7.12861C47.12 7.30994 47.4187 7.56061 47.632 7.88061C47.856 8.20061 47.968 8.55794 47.968 8.95261C47.968 9.37928 47.872 9.74728 47.68 10.0566C47.4987 10.3659 47.2587 10.5953 46.96 10.7446V10.8406C47.3653 11.0006 47.6853 11.2406 47.92 11.5606C48.1653 11.8806 48.288 12.2486 48.288 12.6646C48.288 13.1446 48.16 13.5606 47.904 13.9126C47.6587 14.2646 47.3387 14.5366 46.944 14.7286C46.5493 14.9099 46.128 15.0006 45.68 15.0006H41.408ZM43.136 11.4486V13.5606H45.504C45.8133 13.5606 46.0693 13.4646 46.272 13.2726C46.4853 13.0699 46.592 12.8139 46.592 12.5046C46.592 12.2059 46.4853 11.9553 46.272 11.7526C46.0693 11.5499 45.8133 11.4486 45.504 11.4486H43.136ZM43.136 8.24861V10.1686H45.248C45.536 10.1686 45.776 10.0779 45.968 9.89661C46.16 9.71528 46.256 9.48594 46.256 9.20861C46.256 8.92061 46.16 8.69128 45.968 8.52061C45.776 8.33928 45.536 8.24861 45.248 8.24861H43.136ZM50.0424 15.0006V6.84061H51.7704V11.0166L51.6744 12.5526H51.7704L55.8504 6.84061H57.5624V15.0006H55.8504V10.8406L55.9464 9.30461H55.8504L51.7704 15.0006H50.0424ZM61.8193 15.0006V8.34461H59.1313V6.84061H66.2193V8.34461H63.5313V15.0006H61.8193ZM67.7799 15.0006V6.84061H69.5079V11.0166L69.4119 12.5526H69.5079L73.5879 6.84061H75.2999V15.0006H73.5879V10.8406L73.6839 9.30461H73.5879L69.5079 15.0006H67.7799ZM86.0491 15.0006V12.0566C85.8251 12.2166 85.5425 12.3446 85.2011 12.4406C84.8598 12.5259 84.4865 12.5686 84.0811 12.5686C83.1425 12.5686 82.3905 12.2966 81.8251 11.7526C81.2705 11.2086 80.9931 10.4726 80.9931 9.54461V6.84061H82.7211V9.36861C82.7211 9.88061 82.8651 10.2859 83.1531 10.5846C83.4518 10.8726 83.8678 11.0166 84.4011 11.0166C84.7211 11.0166 85.0305 10.9686 85.3291 10.8726C85.6385 10.7659 85.8785 10.6273 86.0491 10.4566V6.84061H87.7611V15.0006H86.0491ZM93.5985 15.2566C92.7985 15.2566 92.0838 15.0699 91.4545 14.6966C90.8252 14.3233 90.3292 13.8113 89.9665 13.1606C89.6145 12.5099 89.4385 11.7686 89.4385 10.9366C89.4385 10.1579 89.6092 9.43794 89.9505 8.77661C90.2918 8.11528 90.7665 7.58728 91.3745 7.19261C91.9932 6.78728 92.7025 6.58461 93.5025 6.58461C94.3452 6.58461 95.0598 6.76594 95.6465 7.12861C96.2438 7.49128 96.6972 7.98728 97.0065 8.61661C97.3158 9.24594 97.4705 9.95528 97.4705 10.7446C97.4705 10.8619 97.4652 10.9686 97.4545 11.0646C97.4545 11.1606 97.4492 11.2353 97.4385 11.2886H91.1345C91.1772 11.7366 91.2892 12.1259 91.4705 12.4566C91.7052 12.8726 92.0145 13.1873 92.3985 13.4006C92.7825 13.6139 93.1985 13.7206 93.6465 13.7206C94.1905 13.7206 94.6438 13.5979 95.0065 13.3526C95.3798 13.0966 95.6732 12.7819 95.8865 12.4086L97.3105 13.0966C96.9585 13.7366 96.4785 14.2593 95.8705 14.6646C95.2625 15.0593 94.5052 15.2566 93.5985 15.2566ZM91.2305 9.99261H95.7585C95.7478 9.78994 95.6945 9.57661 95.5985 9.35261C95.5025 9.11794 95.3638 8.90461 95.1825 8.71261C95.0012 8.52061 94.7718 8.36594 94.4945 8.24861C94.2172 8.12061 93.8918 8.05661 93.5185 8.05661C93.0492 8.05661 92.6332 8.17928 92.2705 8.42461C91.9078 8.65928 91.6252 8.98994 91.4225 9.41661C91.3372 9.59794 91.2732 9.78994 91.2305 9.99261ZM99.2076 18.4566V6.84061H100.824V7.94461H100.92C101.069 7.70994 101.266 7.49128 101.512 7.28861C101.768 7.07528 102.066 6.90461 102.408 6.77661C102.749 6.64861 103.128 6.58461 103.544 6.58461C104.29 6.58461 104.957 6.77128 105.544 7.14461C106.13 7.51794 106.594 8.02994 106.936 8.68061C107.288 9.33128 107.464 10.0779 107.464 10.9206C107.464 11.7633 107.288 12.5099 106.936 13.1606C106.594 13.8113 106.13 14.3233 105.544 14.6966C104.957 15.0699 104.29 15.2566 103.544 15.2566C102.925 15.2566 102.386 15.1179 101.928 14.8406C101.469 14.5633 101.133 14.2539 100.92 13.9126H100.824L100.92 15.0486V18.4566H99.2076ZM103.288 13.6726C103.714 13.6726 104.114 13.5606 104.488 13.3366C104.872 13.1126 105.176 12.7926 105.4 12.3766C105.634 11.9606 105.752 11.4753 105.752 10.9206C105.752 10.3553 105.634 9.86994 105.4 9.46461C105.176 9.04861 104.872 8.72861 104.488 8.50461C104.114 8.28061 103.714 8.16861 103.288 8.16861C102.861 8.16861 102.461 8.28061 102.088 8.50461C101.714 8.72861 101.41 9.04861 101.176 9.46461C100.941 9.86994 100.824 10.3553 100.824 10.9206C100.824 11.4859 100.941 11.9766 101.176 12.3926C101.41 12.7979 101.714 13.1126 102.088 13.3366C102.461 13.5606 102.861 13.6726 103.288 13.6726ZM112.899 15.2566C112.099 15.2566 111.384 15.0699 110.755 14.6966C110.125 14.3233 109.629 13.8113 109.267 13.1606C108.915 12.5099 108.739 11.7686 108.739 10.9366C108.739 10.1579 108.909 9.43794 109.251 8.77661C109.592 8.11528 110.067 7.58728 110.675 7.19261C111.293 6.78728 112.003 6.58461 112.803 6.58461C113.645 6.58461 114.36 6.76594 114.947 7.12861C115.544 7.49128 115.997 7.98728 116.307 8.61661C116.616 9.24594 116.771 9.95528 116.771 10.7446C116.771 10.8619 116.765 10.9686 116.755 11.0646C116.755 11.1606 116.749 11.2353 116.739 11.2886H110.435C110.477 11.7366 110.589 12.1259 110.771 12.4566C111.005 12.8726 111.315 13.1873 111.699 13.4006C112.083 13.6139 112.499 13.7206 112.947 13.7206C113.491 13.7206 113.944 13.5979 114.307 13.3526C114.68 13.0966 114.973 12.7819 115.187 12.4086L116.611 13.0966C116.259 13.7366 115.779 14.2593 115.171 14.6646C114.563 15.0593 113.805 15.2566 112.899 15.2566ZM110.531 9.99261H115.059C115.048 9.78994 114.995 9.57661 114.899 9.35261C114.803 9.11794 114.664 8.90461 114.483 8.71261C114.301 8.52061 114.072 8.36594 113.795 8.24861C113.517 8.12061 113.192 8.05661 112.819 8.05661C112.349 8.05661 111.933 8.17928 111.571 8.42461C111.208 8.65928 110.925 8.98994 110.723 9.41661C110.637 9.59794 110.573 9.78994 110.531 9.99261ZM121.123 15.2566C120.686 15.2566 120.238 15.2033 119.779 15.0966C119.331 14.9899 118.915 14.8086 118.531 14.5526C118.147 14.2859 117.822 13.9179 117.555 13.4486L118.931 12.6486C119.23 13.0646 119.571 13.3526 119.955 13.5126C120.35 13.6619 120.739 13.7366 121.123 13.7366C121.678 13.7366 122.099 13.6299 122.387 13.4166C122.675 13.2033 122.819 12.9259 122.819 12.5846C122.819 12.2859 122.686 12.0459 122.419 11.8646C122.163 11.6726 121.8 11.5766 121.331 11.5766H120.003V10.2166H121.331C121.736 10.2166 122.046 10.1206 122.259 9.92861C122.483 9.73661 122.595 9.49128 122.595 9.19261C122.595 8.84061 122.446 8.56328 122.147 8.36061C121.848 8.14728 121.47 8.04061 121.011 8.04061C120.606 8.04061 120.216 8.12594 119.843 8.29661C119.47 8.45661 119.187 8.67528 118.995 8.95261L117.715 8.10461C117.96 7.78461 118.254 7.51261 118.595 7.28861C118.936 7.06461 119.31 6.89394 119.715 6.77661C120.131 6.64861 120.568 6.58461 121.027 6.58461C121.635 6.58461 122.179 6.68594 122.659 6.88861C123.139 7.09128 123.518 7.37394 123.795 7.73661C124.083 8.08861 124.227 8.49928 124.227 8.96861C124.227 9.37394 124.126 9.73661 123.923 10.0566C123.72 10.3766 123.454 10.6113 123.123 10.7606V10.8566C123.539 11.0273 123.875 11.2833 124.131 11.6246C124.387 11.9659 124.515 12.3553 124.515 12.7926C124.515 13.2726 124.371 13.6993 124.083 14.0726C123.806 14.4459 123.411 14.7393 122.899 14.9526C122.398 15.1553 121.806 15.2566 121.123 15.2566Z" fill="white"/>
<g id="GPay (Dark)">
<g id="GPay">
<g id="Pay">
<path id="Fill 1" fill-rule="evenodd" clip-rule="evenodd" d="M153.356 3.42339V8.16175H156.278C156.974 8.16175 157.55 7.92781 158.005 7.45993C158.473 6.99313 158.707 6.43644 158.707 5.79203C158.707 5.16061 158.473 4.61041 158.005 4.14254C157.55 3.66274 156.974 3.4223 156.278 3.4223H153.356V3.42339ZM153.356 9.82966V15.3262H151.611V1.75549H156.24C157.417 1.75549 158.415 2.14756 159.238 2.93061C160.073 3.71365 160.491 4.66782 160.491 5.79203C160.491 6.94224 160.073 7.90291 159.238 8.67296C158.428 9.44409 157.429 9.82858 156.24 9.82858H153.356V9.82966Z" fill="white"/>
<path id="Fill 3" fill-rule="evenodd" clip-rule="evenodd" d="M162.255 12.4831C162.255 12.9379 162.448 13.317 162.834 13.6203C163.22 13.9235 163.672 14.0752 164.19 14.0752C164.924 14.0752 165.578 13.8032 166.153 13.2607C166.729 12.717 167.017 12.0791 167.017 11.3469C166.472 10.917 165.713 10.7025 164.74 10.7025C164.031 10.7025 163.44 10.8736 162.966 11.2148C162.492 11.5559 162.255 11.9773 162.255 12.4831M164.513 5.73566C165.803 5.73566 166.821 6.08007 167.569 6.76889C168.314 7.45771 168.687 8.40213 168.687 9.60216V15.3261H167.018V14.0373H166.942C166.221 15.0985 165.259 15.6294 164.058 15.6294C163.033 15.6294 162.176 15.3261 161.487 14.7196C160.797 14.1131 160.453 13.3549 160.453 12.4452C160.453 11.4845 160.816 10.7208 161.543 10.1523C162.271 9.58375 163.241 9.2989 164.456 9.2989C165.492 9.2989 166.346 9.48844 167.017 9.86751V9.46894C167.017 8.86243 166.776 8.34798 166.296 7.92451C165.814 7.50103 165.252 7.28984 164.607 7.28984C163.633 7.28984 162.862 7.70032 162.293 8.52235L160.755 7.55519C161.603 6.34217 162.855 5.73566 164.513 5.73566" fill="white"/>
<path id="Fill 5" fill-rule="evenodd" clip-rule="evenodd" d="M178.269 6.03894L172.443 19.4201H170.641L172.804 14.738L168.971 6.03894H170.869L173.639 12.7106H173.677L176.371 6.03894H178.269Z" fill="white"/>
</g>
<g id="G">
<path id="Fill 8" fill-rule="evenodd" clip-rule="evenodd" d="M146.303 8.64473C146.303 8.09563 146.256 7.56601 146.168 7.05914H138.806V10.0625H143.023C142.842 11.0414 142.294 11.8744 141.464 12.4322V14.3828H143.98C145.454 13.0246 146.303 11.0177 146.303 8.64473" fill="#4285F4"/>
<path id="Fill 10" fill-rule="evenodd" clip-rule="evenodd" d="M138.806 16.2651C140.913 16.2651 142.687 15.5741 143.98 14.3828L141.464 12.4322C140.763 12.9033 139.861 13.1784 138.806 13.1784C136.77 13.1784 135.042 11.8073 134.424 9.95959H131.832V11.9687C133.116 14.516 135.757 16.2651 138.806 16.2651" fill="#34A853"/>
<path id="Fill 12" fill-rule="evenodd" clip-rule="evenodd" d="M134.424 9.9596C134.266 9.48847 134.179 8.98593 134.179 8.46715C134.179 7.94837 134.266 7.44583 134.424 6.9747V4.96564H131.832C131.3 6.01837 131 7.20756 131 8.46715C131 9.72674 131.3 10.916 131.832 11.9687L134.424 9.9596Z" fill="#FABB05"/>
<path id="Fill 14" fill-rule="evenodd" clip-rule="evenodd" d="M138.806 3.75583C139.957 3.75583 140.988 4.15115 141.801 4.92553V4.92661L144.029 2.70094C142.676 1.44243 140.912 0.669128 138.806 0.669128C135.757 0.669128 133.116 2.41826 131.832 4.9656L134.424 6.97467C135.042 5.12698 136.77 3.75583 138.806 3.75583" fill="#E94235"/>
</g>
</g>
</g>
</g>
</svg>
