<svg width="184" height="21" viewBox="0 0 184 21" fill="none" xmlns="http://www.w3.org/2000/svg">
<g id="uk_pay_with_Pay_NBG">
<path id="Left Text" d="M7.47238 15.2566C6.62971 15.2566 5.84571 15.1073 5.12038 14.8086C4.39504 14.4993 3.76038 14.0779 3.21638 13.5446C2.68304 13.0006 2.26171 12.3659 1.95238 11.6406C1.65371 10.9046 1.50438 10.1153 1.50438 9.27261C1.50438 8.41928 1.65371 7.62994 1.95238 6.90461C2.26171 6.17928 2.68304 5.54994 3.21638 5.01661C3.76038 4.47261 4.39504 4.05128 5.12038 3.75261C5.84571 3.44328 6.62971 3.28861 7.47238 3.28861C8.06971 3.28861 8.62438 3.36328 9.13638 3.51261C9.64838 3.66194 10.1177 3.87528 10.5444 4.15261C10.971 4.42994 11.3604 4.76594 11.7124 5.16061L10.4804 6.36061C10.2244 6.05128 9.94705 5.79528 9.64838 5.59261C9.34971 5.37928 9.01905 5.21928 8.65638 5.11261C8.30438 5.00594 7.91505 4.95261 7.48838 4.95261C6.72038 4.95261 6.01638 5.13394 5.37638 5.49661C4.73638 5.84861 4.22438 6.34461 3.84038 6.98461C3.46704 7.62461 3.28038 8.38728 3.28038 9.27261C3.28038 10.1473 3.46704 10.9099 3.84038 11.5606C4.22438 12.2006 4.73638 12.7019 5.37638 13.0646C6.01638 13.4166 6.72038 13.5926 7.48838 13.5926C7.95771 13.5926 8.38438 13.5286 8.76838 13.4006C9.16304 13.2726 9.52571 13.0859 9.85638 12.8406C10.187 12.5953 10.491 12.3073 10.7684 11.9766L12.0324 13.1926C11.6804 13.6086 11.2697 13.9713 10.8004 14.2806C10.331 14.5899 9.81905 14.8299 9.26438 15.0006C8.70971 15.1713 8.11238 15.2566 7.47238 15.2566ZM13.708 15.0006V6.84061H20.876V15.0006H19.148V8.34461H15.436V15.0006H13.708ZM23.1735 15.1286C23.0562 15.1286 22.9335 15.1179 22.8055 15.0966C22.6882 15.0859 22.5762 15.0699 22.4695 15.0486V13.4486C22.5442 13.4806 22.6295 13.5073 22.7255 13.5286C22.8215 13.5499 22.9015 13.5606 22.9655 13.5606C23.3282 13.5606 23.5842 13.4219 23.7335 13.1446C23.8828 12.8566 23.9735 12.4939 24.0055 12.0566C24.0375 11.6193 24.0535 11.1659 24.0535 10.6966V6.84061H30.2935V15.0006H28.5815V8.34461H25.6855V10.9686C25.6855 11.5126 25.6482 12.0353 25.5735 12.5366C25.4988 13.0379 25.3708 13.4859 25.1895 13.8806C25.0188 14.2646 24.7682 14.5686 24.4375 14.7926C24.1175 15.0166 23.6962 15.1286 23.1735 15.1286ZM34.9586 15.2566C34.372 15.2566 33.8493 15.1393 33.3906 14.9046C32.9426 14.6699 32.5853 14.3499 32.3186 13.9446C32.0626 13.5286 31.9346 13.0539 31.9346 12.5206C31.9346 11.9339 32.084 11.4379 32.3826 11.0326C32.692 10.6273 33.1026 10.3179 33.6146 10.1046C34.1266 9.89128 34.692 9.78461 35.3106 9.78461C35.652 9.78461 35.9666 9.81128 36.2546 9.86461C36.5533 9.90728 36.8093 9.96061 37.0226 10.0246C37.2466 10.0886 37.4226 10.1579 37.5506 10.2326V9.80061C37.5506 9.26728 37.3586 8.84061 36.9746 8.52061C36.5906 8.20061 36.0946 8.04061 35.4866 8.04061C35.0706 8.04061 34.676 8.13661 34.3026 8.32861C33.9293 8.50994 33.6306 8.76061 33.4066 9.08061L32.2226 8.16861C32.4573 7.83794 32.74 7.55528 33.0706 7.32061C33.412 7.08594 33.7906 6.90461 34.2066 6.77661C34.6333 6.64861 35.076 6.58461 35.5346 6.58461C36.7186 6.58461 37.6306 6.87794 38.2706 7.46461C38.9106 8.04061 39.2306 8.85128 39.2306 9.89661V15.0006H37.5506V13.9926H37.4546C37.316 14.2059 37.124 14.4086 36.8786 14.6006C36.644 14.7926 36.3613 14.9473 36.0306 15.0646C35.7106 15.1926 35.3533 15.2566 34.9586 15.2566ZM35.2626 13.8486C35.7106 13.8486 36.1053 13.7419 36.4466 13.5286C36.7986 13.3153 37.0706 13.0379 37.2626 12.6966C37.4546 12.3446 37.5506 11.9659 37.5506 11.5606C37.316 11.4219 37.028 11.3099 36.6866 11.2246C36.356 11.1286 36.004 11.0806 35.6306 11.0806C34.9266 11.0806 34.4253 11.2193 34.1266 11.4966C33.828 11.7739 33.6786 12.1206 33.6786 12.5366C33.6786 12.9206 33.8226 13.2353 34.1106 13.4806C34.3986 13.7259 34.7826 13.8486 35.2626 13.8486ZM43.0818 15.0006V8.34461H40.3938V6.84061H47.4818V8.34461H44.7938V15.0006H43.0818ZM49.0424 15.0006V6.84061H50.7704V11.0166L50.6744 12.5526H50.7704L54.8504 6.84061H56.5624V15.0006H54.8504V10.8406L54.9464 9.30461H54.8504L50.7704 15.0006H49.0424ZM60.8193 15.0006V8.34461H58.1313V6.84061H65.2193V8.34461H62.5313V15.0006H60.8193ZM66.7799 15.0006V6.84061H68.5079V11.0166L68.4119 12.5526H68.5079L72.5879 6.84061H74.2999V15.0006H72.5879V10.8406L72.6839 9.30461H72.5879L68.5079 15.0006H66.7799ZM85.0491 15.0006V12.0566C84.8251 12.2166 84.5425 12.3446 84.2011 12.4406C83.8598 12.5259 83.4865 12.5686 83.0811 12.5686C82.1425 12.5686 81.3905 12.2966 80.8251 11.7526C80.2705 11.2086 79.9931 10.4726 79.9931 9.54461V6.84061H81.7211V9.36861C81.7211 9.88061 81.8651 10.2859 82.1531 10.5846C82.4518 10.8726 82.8678 11.0166 83.4011 11.0166C83.7211 11.0166 84.0305 10.9686 84.3291 10.8726C84.6385 10.7659 84.8785 10.6273 85.0491 10.4566V6.84061H86.7611V15.0006H85.0491ZM92.5985 15.2566C91.7985 15.2566 91.0838 15.0699 90.4545 14.6966C89.8252 14.3233 89.3292 13.8113 88.9665 13.1606C88.6145 12.5099 88.4385 11.7686 88.4385 10.9366C88.4385 10.1579 88.6092 9.43794 88.9505 8.77661C89.2918 8.11528 89.7665 7.58728 90.3745 7.19261C90.9932 6.78728 91.7025 6.58461 92.5025 6.58461C93.3452 6.58461 94.0598 6.76594 94.6465 7.12861C95.2438 7.49128 95.6972 7.98728 96.0065 8.61661C96.3158 9.24594 96.4705 9.95528 96.4705 10.7446C96.4705 10.8619 96.4652 10.9686 96.4545 11.0646C96.4545 11.1606 96.4492 11.2353 96.4385 11.2886H90.1345C90.1772 11.7366 90.2892 12.1259 90.4705 12.4566C90.7052 12.8726 91.0145 13.1873 91.3985 13.4006C91.7825 13.6139 92.1985 13.7206 92.6465 13.7206C93.1905 13.7206 93.6438 13.5979 94.0065 13.3526C94.3798 13.0966 94.6732 12.7819 94.8865 12.4086L96.3105 13.0966C95.9585 13.7366 95.4785 14.2593 94.8705 14.6646C94.2625 15.0593 93.5052 15.2566 92.5985 15.2566ZM90.2305 9.99261H94.7585C94.7478 9.78994 94.6945 9.57661 94.5985 9.35261C94.5025 9.11794 94.3638 8.90461 94.1825 8.71261C94.0012 8.52061 93.7718 8.36594 93.4945 8.24861C93.2172 8.12061 92.8918 8.05661 92.5185 8.05661C92.0492 8.05661 91.6332 8.17928 91.2705 8.42461C90.9078 8.65928 90.6252 8.98994 90.4225 9.41661C90.3372 9.59794 90.2732 9.78994 90.2305 9.99261ZM98.2076 18.4566V6.84061H99.8236V7.94461H99.9196C100.069 7.70994 100.266 7.49128 100.512 7.28861C100.768 7.07528 101.066 6.90461 101.408 6.77661C101.749 6.64861 102.128 6.58461 102.544 6.58461C103.29 6.58461 103.957 6.77128 104.544 7.14461C105.13 7.51794 105.594 8.02994 105.936 8.68061C106.288 9.33128 106.464 10.0779 106.464 10.9206C106.464 11.7633 106.288 12.5099 105.936 13.1606C105.594 13.8113 105.13 14.3233 104.544 14.6966C103.957 15.0699 103.29 15.2566 102.544 15.2566C101.925 15.2566 101.386 15.1179 100.928 14.8406C100.469 14.5633 100.133 14.2539 99.9196 13.9126H99.8236L99.9196 15.0486V18.4566H98.2076ZM102.288 13.6726C102.714 13.6726 103.114 13.5606 103.488 13.3366C103.872 13.1126 104.176 12.7926 104.4 12.3766C104.634 11.9606 104.752 11.4753 104.752 10.9206C104.752 10.3553 104.634 9.86994 104.4 9.46461C104.176 9.04861 103.872 8.72861 103.488 8.50461C103.114 8.28061 102.714 8.16861 102.288 8.16861C101.861 8.16861 101.461 8.28061 101.088 8.50461C100.714 8.72861 100.41 9.04861 100.176 9.46461C99.941 9.86994 99.8236 10.3553 99.8236 10.9206C99.8236 11.4859 99.941 11.9766 100.176 12.3926C100.41 12.7979 100.714 13.1126 101.088 13.3366C101.461 13.5606 101.861 13.6726 102.288 13.6726ZM111.899 15.2566C111.099 15.2566 110.384 15.0699 109.755 14.6966C109.125 14.3233 108.629 13.8113 108.267 13.1606C107.915 12.5099 107.739 11.7686 107.739 10.9366C107.739 10.1579 107.909 9.43794 108.251 8.77661C108.592 8.11528 109.067 7.58728 109.675 7.19261C110.293 6.78728 111.003 6.58461 111.803 6.58461C112.645 6.58461 113.36 6.76594 113.947 7.12861C114.544 7.49128 114.997 7.98728 115.307 8.61661C115.616 9.24594 115.771 9.95528 115.771 10.7446C115.771 10.8619 115.765 10.9686 115.755 11.0646C115.755 11.1606 115.749 11.2353 115.739 11.2886H109.435C109.477 11.7366 109.589 12.1259 109.771 12.4566C110.005 12.8726 110.315 13.1873 110.699 13.4006C111.083 13.6139 111.499 13.7206 111.947 13.7206C112.491 13.7206 112.944 13.5979 113.307 13.3526C113.68 13.0966 113.973 12.7819 114.187 12.4086L115.611 13.0966C115.259 13.7366 114.779 14.2593 114.171 14.6646C113.563 15.0593 112.805 15.2566 111.899 15.2566ZM109.531 9.99261H114.059C114.048 9.78994 113.995 9.57661 113.899 9.35261C113.803 9.11794 113.664 8.90461 113.483 8.71261C113.301 8.52061 113.072 8.36594 112.795 8.24861C112.517 8.12061 112.192 8.05661 111.819 8.05661C111.349 8.05661 110.933 8.17928 110.571 8.42461C110.208 8.65928 109.925 8.98994 109.723 9.41661C109.637 9.59794 109.573 9.78994 109.531 9.99261ZM120.123 15.2566C119.686 15.2566 119.238 15.2033 118.779 15.0966C118.331 14.9899 117.915 14.8086 117.531 14.5526C117.147 14.2859 116.822 13.9179 116.555 13.4486L117.931 12.6486C118.23 13.0646 118.571 13.3526 118.955 13.5126C119.35 13.6619 119.739 13.7366 120.123 13.7366C120.678 13.7366 121.099 13.6299 121.387 13.4166C121.675 13.2033 121.819 12.9259 121.819 12.5846C121.819 12.2859 121.686 12.0459 121.419 11.8646C121.163 11.6726 120.8 11.5766 120.331 11.5766H119.003V10.2166H120.331C120.736 10.2166 121.046 10.1206 121.259 9.92861C121.483 9.73661 121.595 9.49128 121.595 9.19261C121.595 8.84061 121.446 8.56328 121.147 8.36061C120.848 8.14728 120.47 8.04061 120.011 8.04061C119.606 8.04061 119.216 8.12594 118.843 8.29661C118.47 8.45661 118.187 8.67528 117.995 8.95261L116.715 8.10461C116.96 7.78461 117.254 7.51261 117.595 7.28861C117.936 7.06461 118.31 6.89394 118.715 6.77661C119.131 6.64861 119.568 6.58461 120.027 6.58461C120.635 6.58461 121.179 6.68594 121.659 6.88861C122.139 7.09128 122.518 7.37394 122.795 7.73661C123.083 8.08861 123.227 8.49928 123.227 8.96861C123.227 9.37394 123.126 9.73661 122.923 10.0566C122.72 10.3766 122.454 10.6113 122.123 10.7606V10.8566C122.539 11.0273 122.875 11.2833 123.131 11.6246C123.387 11.9659 123.515 12.3553 123.515 12.7926C123.515 13.2726 123.371 13.6993 123.083 14.0726C122.806 14.4459 122.411 14.7393 121.899 14.9526C121.398 15.1553 120.806 15.2566 120.123 15.2566Z" fill="white"/>
<g id="GPay (Dark)">
<g id="GPay">
<g id="Pay">
<path id="Fill 1" fill-rule="evenodd" clip-rule="evenodd" d="M152.356 3.42339V8.16175H155.278C155.974 8.16175 156.55 7.92781 157.005 7.45993C157.473 6.99313 157.707 6.43644 157.707 5.79203C157.707 5.16061 157.473 4.61041 157.005 4.14254C156.55 3.66274 155.974 3.4223 155.278 3.4223H152.356V3.42339ZM152.356 9.82966V15.3262H150.611V1.75549H155.24C156.417 1.75549 157.415 2.14756 158.238 2.93061C159.073 3.71365 159.491 4.66782 159.491 5.79203C159.491 6.94224 159.073 7.90291 158.238 8.67296C157.428 9.44409 156.429 9.82858 155.24 9.82858H152.356V9.82966Z" fill="white"/>
<path id="Fill 3" fill-rule="evenodd" clip-rule="evenodd" d="M161.255 12.4831C161.255 12.9379 161.448 13.317 161.834 13.6203C162.22 13.9235 162.672 14.0752 163.19 14.0752C163.924 14.0752 164.578 13.8032 165.153 13.2607C165.729 12.717 166.017 12.0791 166.017 11.3469C165.472 10.917 164.713 10.7025 163.74 10.7025C163.031 10.7025 162.44 10.8736 161.966 11.2148C161.492 11.5559 161.255 11.9773 161.255 12.4831M163.513 5.73566C164.803 5.73566 165.821 6.08007 166.569 6.76889C167.314 7.45771 167.687 8.40213 167.687 9.60216V15.3261H166.018V14.0373H165.942C165.221 15.0985 164.259 15.6294 163.058 15.6294C162.033 15.6294 161.176 15.3261 160.487 14.7196C159.797 14.1131 159.453 13.3549 159.453 12.4452C159.453 11.4845 159.816 10.7208 160.543 10.1523C161.271 9.58375 162.241 9.2989 163.456 9.2989C164.492 9.2989 165.346 9.48844 166.017 9.86751V9.46894C166.017 8.86243 165.776 8.34798 165.296 7.92451C164.814 7.50103 164.252 7.28984 163.607 7.28984C162.633 7.28984 161.862 7.70032 161.293 8.52235L159.755 7.55519C160.603 6.34217 161.855 5.73566 163.513 5.73566" fill="white"/>
<path id="Fill 5" fill-rule="evenodd" clip-rule="evenodd" d="M177.269 6.03894L171.443 19.4201H169.641L171.804 14.738L167.971 6.03894H169.869L172.639 12.7106H172.677L175.371 6.03894H177.269Z" fill="white"/>
</g>
<g id="G">
<path id="Fill 8" fill-rule="evenodd" clip-rule="evenodd" d="M145.303 8.64473C145.303 8.09563 145.256 7.56601 145.168 7.05914H137.806V10.0625H142.023C141.842 11.0414 141.294 11.8744 140.464 12.4322V14.3828H142.98C144.454 13.0246 145.303 11.0177 145.303 8.64473" fill="#4285F4"/>
<path id="Fill 10" fill-rule="evenodd" clip-rule="evenodd" d="M137.806 16.2651C139.913 16.2651 141.687 15.5741 142.98 14.3828L140.464 12.4322C139.763 12.9033 138.861 13.1784 137.806 13.1784C135.77 13.1784 134.042 11.8073 133.424 9.95959H130.832V11.9687C132.116 14.516 134.757 16.2651 137.806 16.2651" fill="#34A853"/>
<path id="Fill 12" fill-rule="evenodd" clip-rule="evenodd" d="M133.424 9.9596C133.266 9.48847 133.179 8.98593 133.179 8.46715C133.179 7.94837 133.266 7.44583 133.424 6.9747V4.96564H130.832C130.3 6.01837 130 7.20756 130 8.46715C130 9.72674 130.3 10.916 130.832 11.9687L133.424 9.9596Z" fill="#FABB05"/>
<path id="Fill 14" fill-rule="evenodd" clip-rule="evenodd" d="M137.806 3.75583C138.957 3.75583 139.988 4.15115 140.801 4.92553V4.92661L143.029 2.70094C141.676 1.44243 139.912 0.669128 137.806 0.669128C134.757 0.669128 132.116 2.41826 130.832 4.9656L133.424 6.97467C134.042 5.12698 135.77 3.75583 137.806 3.75583" fill="#E94235"/>
</g>
</g>
</g>
</g>
</svg>
