<svg width="260" height="21" viewBox="0 0 260 21" fill="none" xmlns="http://www.w3.org/2000/svg">
<g id="uk_subscribe_with_Pay_NBG">
<path id="Left Text" d="M7.32475 15.2566C6.47141 15.2566 5.68208 15.1019 4.95675 14.7926C4.24208 14.4833 3.61808 14.0566 3.08475 13.5126C2.55141 12.9579 2.13541 12.3233 1.83675 11.6086C1.53808 10.8833 1.38875 10.1046 1.38875 9.27261C1.38875 8.44061 1.53808 7.66728 1.83675 6.95261C2.13541 6.22728 2.55141 5.59261 3.08475 5.04861C3.61808 4.49394 4.24208 4.06194 4.95675 3.75261C5.68208 3.44328 6.47141 3.28861 7.32475 3.28861C8.17808 3.28861 8.96208 3.44328 9.67675 3.75261C10.3914 4.06194 11.0154 4.49394 11.5487 5.04861C12.0927 5.59261 12.5087 6.22728 12.7967 6.95261C13.0954 7.66728 13.2447 8.44061 13.2447 9.27261C13.2447 10.1046 13.0954 10.8833 12.7967 11.6086C12.5087 12.3233 12.0927 12.9579 11.5487 13.5126C11.0154 14.0566 10.3914 14.4833 9.67675 14.7926C8.96208 15.1019 8.17808 15.2566 7.32475 15.2566ZM7.32475 13.5926C8.10341 13.5926 8.80208 13.4113 9.42075 13.0486C10.0501 12.6859 10.5514 12.1793 10.9247 11.5286C11.2981 10.8779 11.4847 10.1259 11.4847 9.27261C11.4847 8.40861 11.2981 7.65661 10.9247 7.01661C10.5514 6.36594 10.0501 5.85928 9.42075 5.49661C8.80208 5.13394 8.10341 4.95261 7.32475 4.95261C6.55675 4.95261 5.85808 5.13394 5.22875 5.49661C4.59941 5.85928 4.09808 6.36594 3.72475 7.01661C3.35141 7.65661 3.16475 8.40861 3.16475 9.27261C3.16475 10.1259 3.35141 10.8779 3.72475 11.5286C4.09808 12.1793 4.59941 12.6859 5.22875 13.0486C5.85808 13.4113 6.55675 13.5926 7.32475 13.5926ZM19.031 18.4566V15.1606C18.455 15.1073 17.943 15.0059 17.495 14.8566C16.8123 14.6326 16.2523 14.3233 15.815 13.9286C15.3777 13.5233 15.0577 13.0646 14.855 12.5526C14.6523 12.0406 14.551 11.4966 14.551 10.9206C14.551 10.3126 14.6523 9.75261 14.855 9.24061C15.0577 8.72861 15.3723 8.28061 15.799 7.89661C16.2363 7.51261 16.7963 7.21394 17.479 7.00061C17.9377 6.85128 18.455 6.75528 19.031 6.71261V3.54461H20.743V6.69661C21.3297 6.74994 21.8523 6.85128 22.311 7.00061C22.983 7.21394 23.5323 7.51261 23.959 7.89661C24.3857 8.28061 24.7003 8.72861 24.903 9.24061C25.1163 9.75261 25.223 10.3126 25.223 10.9206C25.223 11.4966 25.1163 12.0406 24.903 12.5526C24.7003 13.0646 24.3857 13.5233 23.959 13.9286C23.5323 14.3233 22.983 14.6326 22.311 14.8566C21.8523 15.0059 21.3297 15.1073 20.743 15.1606V18.4566H19.031ZM20.743 8.18461V13.6886C21.223 13.6353 21.6337 13.5286 21.975 13.3686C22.4977 13.1233 22.8817 12.7926 23.127 12.3766C23.383 11.9499 23.511 11.4646 23.511 10.9206C23.511 10.0459 23.2283 9.36861 22.663 8.88861C22.2257 8.51528 21.5857 8.28061 20.743 8.18461ZM19.031 13.6886V8.20061C18.5617 8.24328 18.1563 8.33394 17.815 8.47261C17.271 8.69661 16.8763 9.01661 16.631 9.43261C16.3857 9.83794 16.263 10.3339 16.263 10.9206C16.263 11.4646 16.3857 11.9499 16.631 12.3766C16.8763 12.7926 17.271 13.1233 17.815 13.3686C18.1457 13.5179 18.551 13.6246 19.031 13.6886ZM30.8011 15.2566C29.9585 15.2566 29.2171 15.0646 28.5771 14.6806C27.9371 14.2966 27.4358 13.7793 27.0731 13.1286C26.7105 12.4673 26.5291 11.7313 26.5291 10.9206C26.5291 10.1099 26.7105 9.37928 27.0731 8.72861C27.4358 8.06728 27.9371 7.54461 28.5771 7.16061C29.2171 6.77661 29.9585 6.58461 30.8011 6.58461C31.6331 6.58461 32.3691 6.78194 33.0091 7.17661C33.6491 7.56061 34.1505 8.07794 34.5131 8.72861C34.8758 9.37928 35.0571 10.1099 35.0571 10.9206C35.0571 11.7313 34.8758 12.4673 34.5131 13.1286C34.1505 13.7793 33.6491 14.2966 33.0091 14.6806C32.3691 15.0646 31.6331 15.2566 30.8011 15.2566ZM30.8011 13.6726C31.2491 13.6726 31.6651 13.5659 32.0491 13.3526C32.4331 13.1286 32.7425 12.8139 32.9771 12.4086C33.2225 11.9926 33.3451 11.4966 33.3451 10.9206C33.3451 10.3446 33.2225 9.85394 32.9771 9.44861C32.7425 9.03261 32.4331 8.71794 32.0491 8.50461C31.6651 8.28061 31.2491 8.16861 30.8011 8.16861C30.3531 8.16861 29.9318 8.28061 29.5371 8.50461C29.1531 8.71794 28.8385 9.03261 28.5931 9.44861C28.3585 9.85394 28.2411 10.3446 28.2411 10.9206C28.2411 11.4966 28.3585 11.9926 28.5931 12.4086C28.8385 12.8139 29.1585 13.1286 29.5531 13.3526C29.9478 13.5659 30.3638 13.6726 30.8011 13.6726ZM36.7045 18.4566V6.84061H38.3205V7.94461H38.4165C38.5658 7.70994 38.7632 7.49128 39.0085 7.28861C39.2645 7.07528 39.5632 6.90461 39.9045 6.77661C40.2458 6.64861 40.6245 6.58461 41.0405 6.58461C41.7872 6.58461 42.4538 6.77128 43.0405 7.14461C43.6272 7.51794 44.0912 8.02994 44.4325 8.68061C44.7845 9.33128 44.9605 10.0779 44.9605 10.9206C44.9605 11.7633 44.7845 12.5099 44.4325 13.1606C44.0912 13.8113 43.6272 14.3233 43.0405 14.6966C42.4538 15.0699 41.7872 15.2566 41.0405 15.2566C40.4218 15.2566 39.8832 15.1179 39.4245 14.8406C38.9658 14.5633 38.6298 14.2539 38.4165 13.9126H38.3205L38.4165 15.0486V18.4566H36.7045ZM40.7845 13.6726C41.2112 13.6726 41.6112 13.5606 41.9845 13.3366C42.3685 13.1126 42.6725 12.7926 42.8965 12.3766C43.1312 11.9606 43.2485 11.4753 43.2485 10.9206C43.2485 10.3553 43.1312 9.86994 42.8965 9.46461C42.6725 9.04861 42.3685 8.72861 41.9845 8.50461C41.6112 8.28061 41.2112 8.16861 40.7845 8.16861C40.3578 8.16861 39.9578 8.28061 39.5845 8.50461C39.2112 8.72861 38.9072 9.04861 38.6725 9.46461C38.4378 9.86994 38.3205 10.3553 38.3205 10.9206C38.3205 11.4859 38.4378 11.9766 38.6725 12.3926C38.9072 12.7979 39.2112 13.1126 39.5845 13.3366C39.9578 13.5606 40.3578 13.6726 40.7845 13.6726ZM46.5892 15.0006V6.84061H48.6372L51.1492 11.8326H51.2292L53.7572 6.84061H55.7572V15.0006H54.1092V11.0326L54.1892 9.46461H54.0932L51.7412 13.9606H50.6052L48.2532 9.46461H48.1572L48.2372 11.0326V15.0006H46.5892ZM57.9267 15.0006V6.84061H59.6547V11.0166L59.5587 12.5526H59.6547L63.7347 6.84061H65.4467V15.0006H63.7347V10.8406L63.8307 9.30461H63.7347L59.6547 15.0006H57.9267ZM69.7036 15.0006V8.34461H67.0156V6.84061H74.1036V8.34461H71.4156V15.0006H69.7036ZM75.6643 15.0006V6.84061H77.3923V11.0166L77.2963 12.5526H77.3923L81.4723 6.84061H83.1843V15.0006H81.4723V10.8406L81.5683 9.30461H81.4723L77.3923 15.0006H75.6643ZM89.2455 15.0006V6.84061H96.4135V15.0006H94.6855V8.34461H90.9735V15.0006H89.2455ZM98.711 15.0006V6.84061H100.439V15.0006H98.711ZM99.575 5.64061C99.255 5.64061 98.9777 5.52861 98.743 5.30461C98.519 5.06994 98.407 4.79261 98.407 4.47261C98.407 4.14194 98.519 3.86994 98.743 3.65661C98.9777 3.43261 99.255 3.32061 99.575 3.32061C99.9057 3.32061 100.183 3.43261 100.407 3.65661C100.631 3.86994 100.743 4.14194 100.743 4.47261C100.743 4.79261 100.631 5.06994 100.407 5.30461C100.183 5.52861 99.9057 5.64061 99.575 5.64061ZM102.109 17.4326V13.4966H103.005C103.176 13.2833 103.33 12.9899 103.469 12.6166C103.608 12.2433 103.714 11.8166 103.789 11.3366C103.864 10.8566 103.901 10.3713 103.901 9.88061V6.84061H110.013V13.4966H111.197V17.4326H109.613V15.0006H103.709V17.4326H102.109ZM104.861 13.4966H108.301V8.34461H105.533V10.0246C105.533 10.5153 105.506 10.9633 105.453 11.3686C105.41 11.7739 105.336 12.1419 105.229 12.4726C105.133 12.8033 105.01 13.1126 104.861 13.4006V13.4966ZM112.883 15.0006V6.84061H120.051V15.0006H118.323V8.34461H114.611V15.0006H112.883ZM122.22 15.0006V6.84061H123.948V11.0166L123.852 12.5526H123.948L128.028 6.84061H129.74V15.0006H128.028V10.8406L128.124 9.30461H128.028L123.948 15.0006H122.22ZM135.615 15.2566C134.794 15.2566 134.063 15.0699 133.423 14.6966C132.794 14.3233 132.298 13.8113 131.935 13.1606C131.583 12.4993 131.407 11.7526 131.407 10.9206C131.407 10.0886 131.583 9.34728 131.935 8.69661C132.298 8.04594 132.794 7.53394 133.423 7.16061C134.063 6.77661 134.794 6.58461 135.615 6.58461C136.522 6.58461 137.285 6.78728 137.903 7.19261C138.533 7.59794 138.981 8.14728 139.247 8.84061L137.679 9.48061C137.487 9.04328 137.21 8.71794 136.847 8.50461C136.495 8.28061 136.074 8.16861 135.583 8.16861C135.135 8.16861 134.725 8.28594 134.351 8.52061C133.978 8.74461 133.679 9.05928 133.455 9.46461C133.231 9.86994 133.119 10.3553 133.119 10.9206C133.119 11.4753 133.231 11.9606 133.455 12.3766C133.679 12.7926 133.978 13.1126 134.351 13.3366C134.725 13.5606 135.135 13.6726 135.583 13.6726C136.106 13.6726 136.549 13.5553 136.911 13.3206C137.274 13.0859 137.557 12.7553 137.759 12.3286L139.295 13.0006C138.997 13.6513 138.533 14.1899 137.903 14.6166C137.285 15.0433 136.522 15.2566 135.615 15.2566ZM140.927 15.0006V6.84061H142.655V10.4566H142.751L145.951 6.84061H147.935V6.93661L144.527 10.6646L148.063 14.9046V15.0006H146.015L142.751 10.9846H142.655V15.0006H140.927ZM152.22 18.0566C152.188 18.1313 152.151 18.2059 152.108 18.2806C152.076 18.3659 152.055 18.4246 152.044 18.4566H150.204C150.257 18.3393 150.332 18.1739 150.428 17.9606C150.535 17.7473 150.636 17.5339 150.732 17.3206C150.796 17.1819 150.86 17.0326 150.924 16.8726C150.999 16.7126 151.073 16.5473 151.148 16.3766C151.233 16.2059 151.313 16.0406 151.388 15.8806L151.996 14.5526L148.588 6.84061H150.508L152.844 12.4086H152.924L155.18 6.84061H157.084L152.86 16.5686C152.785 16.7499 152.7 16.9419 152.604 17.1446C152.519 17.3473 152.439 17.5286 152.364 17.6886C152.3 17.8593 152.252 17.9819 152.22 18.0566ZM167.049 15.0006V12.0566C166.825 12.2166 166.542 12.3446 166.201 12.4406C165.86 12.5259 165.486 12.5686 165.081 12.5686C164.142 12.5686 163.39 12.2966 162.825 11.7526C162.27 11.2086 161.993 10.4726 161.993 9.54461V6.84061H163.721V9.36861C163.721 9.88061 163.865 10.2859 164.153 10.5846C164.452 10.8726 164.868 11.0166 165.401 11.0166C165.721 11.0166 166.03 10.9686 166.329 10.8726C166.638 10.7659 166.878 10.6273 167.049 10.4566V6.84061H168.761V15.0006H167.049ZM174.599 15.2566C173.799 15.2566 173.084 15.0699 172.455 14.6966C171.825 14.3233 171.329 13.8113 170.967 13.1606C170.615 12.5099 170.439 11.7686 170.439 10.9366C170.439 10.1579 170.609 9.43794 170.951 8.77661C171.292 8.11528 171.767 7.58728 172.375 7.19261C172.993 6.78728 173.703 6.58461 174.503 6.58461C175.345 6.58461 176.06 6.76594 176.647 7.12861C177.244 7.49128 177.697 7.98728 178.007 8.61661C178.316 9.24594 178.471 9.95528 178.471 10.7446C178.471 10.8619 178.465 10.9686 178.455 11.0646C178.455 11.1606 178.449 11.2353 178.439 11.2886H172.135C172.177 11.7366 172.289 12.1259 172.471 12.4566C172.705 12.8726 173.015 13.1873 173.399 13.4006C173.783 13.6139 174.199 13.7206 174.647 13.7206C175.191 13.7206 175.644 13.5979 176.007 13.3526C176.38 13.0966 176.673 12.7819 176.887 12.4086L178.311 13.0966C177.959 13.7366 177.479 14.2593 176.871 14.6646C176.263 15.0593 175.505 15.2566 174.599 15.2566ZM172.231 9.99261H176.759C176.748 9.78994 176.695 9.57661 176.599 9.35261C176.503 9.11794 176.364 8.90461 176.183 8.71261C176.001 8.52061 175.772 8.36594 175.495 8.24861C175.217 8.12061 174.892 8.05661 174.519 8.05661C174.049 8.05661 173.633 8.17928 173.271 8.42461C172.908 8.65928 172.625 8.98994 172.423 9.41661C172.337 9.59794 172.273 9.78994 172.231 9.99261ZM180.208 18.4566V6.84061H181.824V7.94461H181.92C182.069 7.70994 182.266 7.49128 182.512 7.28861C182.768 7.07528 183.066 6.90461 183.408 6.77661C183.749 6.64861 184.128 6.58461 184.544 6.58461C185.29 6.58461 185.957 6.77128 186.544 7.14461C187.13 7.51794 187.594 8.02994 187.936 8.68061C188.288 9.33128 188.464 10.0779 188.464 10.9206C188.464 11.7633 188.288 12.5099 187.936 13.1606C187.594 13.8113 187.13 14.3233 186.544 14.6966C185.957 15.0699 185.29 15.2566 184.544 15.2566C183.925 15.2566 183.386 15.1179 182.928 14.8406C182.469 14.5633 182.133 14.2539 181.92 13.9126H181.824L181.92 15.0486V18.4566H180.208ZM184.288 13.6726C184.714 13.6726 185.114 13.5606 185.488 13.3366C185.872 13.1126 186.176 12.7926 186.4 12.3766C186.634 11.9606 186.752 11.4753 186.752 10.9206C186.752 10.3553 186.634 9.86994 186.4 9.46461C186.176 9.04861 185.872 8.72861 185.488 8.50461C185.114 8.28061 184.714 8.16861 184.288 8.16861C183.861 8.16861 183.461 8.28061 183.088 8.50461C182.714 8.72861 182.41 9.04861 182.176 9.46461C181.941 9.86994 181.824 10.3553 181.824 10.9206C181.824 11.4859 181.941 11.9766 182.176 12.3926C182.41 12.7979 182.714 13.1126 183.088 13.3366C183.461 13.5606 183.861 13.6726 184.288 13.6726ZM193.898 15.2566C193.098 15.2566 192.384 15.0699 191.754 14.6966C191.125 14.3233 190.629 13.8113 190.266 13.1606C189.914 12.5099 189.738 11.7686 189.738 10.9366C189.738 10.1579 189.909 9.43794 190.25 8.77661C190.592 8.11528 191.066 7.58728 191.674 7.19261C192.293 6.78728 193.002 6.58461 193.802 6.58461C194.645 6.58461 195.36 6.76594 195.946 7.12861C196.544 7.49128 196.997 7.98728 197.306 8.61661C197.616 9.24594 197.77 9.95528 197.77 10.7446C197.77 10.8619 197.765 10.9686 197.754 11.0646C197.754 11.1606 197.749 11.2353 197.738 11.2886H191.434C191.477 11.7366 191.589 12.1259 191.77 12.4566C192.005 12.8726 192.314 13.1873 192.698 13.4006C193.082 13.6139 193.498 13.7206 193.946 13.7206C194.49 13.7206 194.944 13.5979 195.306 13.3526C195.68 13.0966 195.973 12.7819 196.186 12.4086L197.61 13.0966C197.258 13.7366 196.778 14.2593 196.17 14.6646C195.562 15.0593 194.805 15.2566 193.898 15.2566ZM191.53 9.99261H196.058C196.048 9.78994 195.994 9.57661 195.898 9.35261C195.802 9.11794 195.664 8.90461 195.482 8.71261C195.301 8.52061 195.072 8.36594 194.794 8.24861C194.517 8.12061 194.192 8.05661 193.818 8.05661C193.349 8.05661 192.933 8.17928 192.57 8.42461C192.208 8.65928 191.925 8.98994 191.722 9.41661C191.637 9.59794 191.573 9.78994 191.53 9.99261ZM202.123 15.2566C201.686 15.2566 201.238 15.2033 200.779 15.0966C200.331 14.9899 199.915 14.8086 199.531 14.5526C199.147 14.2859 198.822 13.9179 198.555 13.4486L199.931 12.6486C200.23 13.0646 200.571 13.3526 200.955 13.5126C201.35 13.6619 201.739 13.7366 202.123 13.7366C202.678 13.7366 203.099 13.6299 203.387 13.4166C203.675 13.2033 203.819 12.9259 203.819 12.5846C203.819 12.2859 203.686 12.0459 203.419 11.8646C203.163 11.6726 202.8 11.5766 202.331 11.5766H201.003V10.2166H202.331C202.736 10.2166 203.046 10.1206 203.259 9.92861C203.483 9.73661 203.595 9.49128 203.595 9.19261C203.595 8.84061 203.446 8.56328 203.147 8.36061C202.848 8.14728 202.47 8.04061 202.011 8.04061C201.606 8.04061 201.216 8.12594 200.843 8.29661C200.47 8.45661 200.187 8.67528 199.995 8.95261L198.715 8.10461C198.96 7.78461 199.254 7.51261 199.595 7.28861C199.936 7.06461 200.31 6.89394 200.715 6.77661C201.131 6.64861 201.568 6.58461 202.027 6.58461C202.635 6.58461 203.179 6.68594 203.659 6.88861C204.139 7.09128 204.518 7.37394 204.795 7.73661C205.083 8.08861 205.227 8.49928 205.227 8.96861C205.227 9.37394 205.126 9.73661 204.923 10.0566C204.72 10.3766 204.454 10.6113 204.123 10.7606V10.8566C204.539 11.0273 204.875 11.2833 205.131 11.6246C205.387 11.9659 205.515 12.3553 205.515 12.7926C205.515 13.2726 205.371 13.6993 205.083 14.0726C204.806 14.4459 204.411 14.7393 203.899 14.9526C203.398 15.1553 202.806 15.2566 202.123 15.2566Z" fill="white"/>
<g id="GPay (Dark)">
<g id="GPay">
<g id="Pay">
<path id="Fill 1" fill-rule="evenodd" clip-rule="evenodd" d="M234.356 3.42339V8.16175H237.278C237.974 8.16175 238.55 7.92781 239.005 7.45993C239.473 6.99313 239.707 6.43644 239.707 5.79203C239.707 5.16061 239.473 4.61041 239.005 4.14254C238.55 3.66274 237.974 3.4223 237.278 3.4223H234.356V3.42339ZM234.356 9.82966V15.3262H232.611V1.75549H237.24C238.417 1.75549 239.415 2.14756 240.238 2.93061C241.073 3.71365 241.491 4.66782 241.491 5.79203C241.491 6.94224 241.073 7.90291 240.238 8.67296C239.428 9.44409 238.429 9.82858 237.24 9.82858H234.356V9.82966Z" fill="white"/>
<path id="Fill 3" fill-rule="evenodd" clip-rule="evenodd" d="M243.255 12.4831C243.255 12.9379 243.448 13.317 243.834 13.6203C244.22 13.9235 244.672 14.0752 245.19 14.0752C245.924 14.0752 246.578 13.8032 247.153 13.2607C247.729 12.717 248.017 12.0791 248.017 11.3469C247.472 10.917 246.713 10.7025 245.74 10.7025C245.031 10.7025 244.44 10.8736 243.966 11.2148C243.492 11.5559 243.255 11.9773 243.255 12.4831M245.513 5.73566C246.803 5.73566 247.821 6.08007 248.569 6.76889C249.314 7.45771 249.687 8.40213 249.687 9.60216V15.3261H248.018V14.0373H247.942C247.221 15.0985 246.259 15.6294 245.058 15.6294C244.033 15.6294 243.176 15.3261 242.487 14.7196C241.797 14.1131 241.453 13.3549 241.453 12.4452C241.453 11.4845 241.816 10.7208 242.543 10.1523C243.271 9.58375 244.241 9.2989 245.456 9.2989C246.492 9.2989 247.346 9.48844 248.017 9.86751V9.46894C248.017 8.86243 247.776 8.34798 247.296 7.92451C246.814 7.50103 246.252 7.28984 245.607 7.28984C244.633 7.28984 243.862 7.70032 243.293 8.52235L241.755 7.55519C242.603 6.34217 243.855 5.73566 245.513 5.73566" fill="white"/>
<path id="Fill 5" fill-rule="evenodd" clip-rule="evenodd" d="M259.269 6.03894L253.443 19.4201H251.641L253.804 14.738L249.971 6.03894H251.869L254.639 12.7106H254.677L257.371 6.03894H259.269Z" fill="white"/>
</g>
<g id="G">
<path id="Fill 8" fill-rule="evenodd" clip-rule="evenodd" d="M227.303 8.64473C227.303 8.09563 227.256 7.56601 227.168 7.05914H219.806V10.0625H224.023C223.842 11.0414 223.294 11.8744 222.464 12.4322V14.3828H224.98C226.454 13.0246 227.303 11.0177 227.303 8.64473" fill="#4285F4"/>
<path id="Fill 10" fill-rule="evenodd" clip-rule="evenodd" d="M219.806 16.2651C221.913 16.2651 223.687 15.5741 224.98 14.3828L222.464 12.4322C221.764 12.9033 220.861 13.1784 219.806 13.1784C217.77 13.1784 216.042 11.8073 215.424 9.95959H212.832V11.9687C214.116 14.516 216.757 16.2651 219.806 16.2651" fill="#34A853"/>
<path id="Fill 12" fill-rule="evenodd" clip-rule="evenodd" d="M215.424 9.9596C215.266 9.48847 215.179 8.98593 215.179 8.46715C215.179 7.94837 215.266 7.44583 215.424 6.9747V4.96564H212.832C212.3 6.01837 212 7.20756 212 8.46715C212 9.72674 212.3 10.916 212.832 11.9687L215.424 9.9596Z" fill="#FABB05"/>
<path id="Fill 14" fill-rule="evenodd" clip-rule="evenodd" d="M219.806 3.75583C220.957 3.75583 221.988 4.15115 222.801 4.92553V4.92661L225.029 2.70094C223.676 1.44243 221.912 0.669128 219.806 0.669128C216.757 0.669128 214.116 2.41826 212.832 4.9656L215.424 6.97467C216.042 5.12698 217.77 3.75583 219.806 3.75583" fill="#E94235"/>
</g>
</g>
</g>
</g>
</svg>
