<svg width="456" height="38" viewBox="0 0 456 38" fill="none" xmlns="http://www.w3.org/2000/svg">
<g id="uk_subscribe_with_Dark">
<path id="Text" d="M13.4933 30.448C12 30.448 10.6186 30.1773 9.34931 29.636C8.09864 29.0947 7.00664 28.348 6.07331 27.396C5.13997 26.444 4.41197 25.3333 3.88931 24.064C3.36664 22.7947 3.10531 21.432 3.10531 19.976C3.10531 18.52 3.36664 17.1573 3.88931 15.888C4.41197 14.6187 5.13997 13.508 6.07331 12.556C7.00664 11.604 8.09864 10.8573 9.34931 10.316C10.6186 9.77467 12 9.504 13.4933 9.504C14.968 9.504 16.3306 9.77467 17.5813 10.316C18.8506 10.8573 19.952 11.604 20.8853 12.556C21.8373 13.508 22.5653 14.6187 23.0693 15.888C23.592 17.1573 23.8533 18.52 23.8533 19.976C23.8533 21.432 23.592 22.7947 23.0693 24.064C22.5653 25.3333 21.8373 26.444 20.8853 27.396C19.952 28.348 18.8506 29.0947 17.5813 29.636C16.3306 30.1773 14.968 30.448 13.4933 30.448ZM13.4933 27.536C14.8373 27.536 16.06 27.2187 17.1613 26.584C18.2626 25.9493 19.14 25.0627 19.7933 23.924C20.4466 22.7853 20.7733 21.4693 20.7733 19.976C20.7733 18.4827 20.4466 17.1667 19.7933 16.028C19.14 14.8893 18.2626 14.0027 17.1613 13.368C16.06 12.7333 14.8373 12.416 13.4933 12.416C12.1493 12.416 10.9266 12.7333 9.82531 13.368C8.72397 14.0027 7.84664 14.8893 7.19331 16.028C6.53997 17.1667 6.21331 18.4827 6.21331 19.976C6.21331 21.4693 6.53997 22.7853 7.19331 23.924C7.84664 25.0627 8.72397 25.9493 9.82531 26.584C10.9266 27.2187 12.1493 27.536 13.4933 27.536ZM34.0167 36.048V30.252C32.1874 30.084 30.6941 29.6547 29.5367 28.964C28.3794 28.2547 27.5301 27.368 26.9887 26.304C26.4474 25.24 26.1767 24.092 26.1767 22.86C26.1767 21.5533 26.4474 20.3773 26.9887 19.332C27.5301 18.268 28.3701 17.4 29.5087 16.728C30.6661 16.056 32.1687 15.6453 34.0167 15.496V9.952H37.0127V15.496C38.8421 15.6453 40.3261 16.056 41.4647 16.728C42.6221 17.4 43.4714 18.268 44.0127 19.332C44.5727 20.3773 44.8527 21.5533 44.8527 22.86C44.8527 24.1107 44.5727 25.268 44.0127 26.332C43.4714 27.396 42.6221 28.2827 41.4647 28.992C40.3261 29.6827 38.8421 30.112 37.0127 30.28V36.048H34.0167ZM41.8567 22.86C41.8567 21.516 41.4741 20.4333 40.7087 19.612C39.9434 18.772 38.7114 18.268 37.0127 18.1V27.704C38.7114 27.4987 39.9434 26.9573 40.7087 26.08C41.4741 25.184 41.8567 24.1107 41.8567 22.86ZM29.1727 22.86C29.1727 24.1107 29.5461 25.1747 30.2927 26.052C31.0581 26.9293 32.2994 27.4707 34.0167 27.676V18.1C32.2994 18.2867 31.0581 18.8 30.2927 19.64C29.5461 20.4613 29.1727 21.5347 29.1727 22.86ZM54.652 30.448C53.1773 30.448 51.88 30.112 50.76 29.44C49.64 28.768 48.7626 27.8627 48.128 26.724C47.4933 25.5853 47.176 24.2973 47.176 22.86C47.176 21.4413 47.4933 20.1627 48.128 19.024C48.7626 17.8667 49.64 16.952 50.76 16.28C51.88 15.608 53.1773 15.272 54.652 15.272C56.108 15.272 57.396 15.608 58.516 16.28C59.636 16.952 60.5133 17.8667 61.148 19.024C61.7826 20.1627 62.1 21.4413 62.1 22.86C62.1 24.2973 61.7826 25.5853 61.148 26.724C60.5133 27.8627 59.636 28.768 58.516 29.44C57.396 30.112 56.108 30.448 54.652 30.448ZM54.652 27.676C55.436 27.676 56.164 27.4893 56.836 27.116C57.508 26.724 58.0493 26.1733 58.46 25.464C58.8893 24.736 59.104 23.868 59.104 22.86C59.104 21.852 58.8893 20.9933 58.46 20.284C58.0493 19.556 57.508 19.0053 56.836 18.632C56.164 18.24 55.436 18.044 54.652 18.044C53.868 18.044 53.1306 18.24 52.44 18.632C51.768 19.0053 51.2173 19.556 50.788 20.284C50.3773 20.9933 50.172 21.852 50.172 22.86C50.172 23.868 50.3773 24.736 50.788 25.464C51.2173 26.1733 51.768 26.724 52.44 27.116C53.1306 27.4893 53.868 27.676 54.652 27.676ZM65.0204 36.048V15.72H67.8484V17.652H68.0164C68.3897 17.036 68.9684 16.4853 69.7524 16C70.555 15.5147 71.507 15.272 72.6084 15.272C73.915 15.272 75.0817 15.5987 76.1084 16.252C77.135 16.9053 77.947 17.8013 78.5444 18.94C79.1604 20.0787 79.4684 21.3853 79.4684 22.86C79.4684 24.3347 79.1604 25.6507 78.5444 26.808C77.947 27.9467 77.135 28.8427 76.1084 29.496C75.0817 30.1307 73.915 30.448 72.6084 30.448C71.507 30.448 70.555 30.2147 69.7524 29.748C68.9684 29.2627 68.3897 28.712 68.0164 28.096H67.8484L68.0164 30.084V36.048H65.0204ZM72.1604 27.676C72.907 27.676 73.607 27.48 74.2604 27.088C74.9137 26.696 75.4457 26.1453 75.8564 25.436C76.267 24.708 76.4724 23.8493 76.4724 22.86C76.4724 21.8707 76.267 21.0213 75.8564 20.312C75.4457 19.584 74.9137 19.024 74.2604 18.632C73.607 18.24 72.907 18.044 72.1604 18.044C71.4137 18.044 70.7137 18.24 70.0604 18.632C69.407 19.024 68.875 19.584 68.4644 20.312C68.0537 21.0213 67.8484 21.8707 67.8484 22.86C67.8484 23.8493 68.0537 24.708 68.4644 25.436C68.875 26.1453 69.407 26.696 70.0604 27.088C70.7137 27.48 71.4137 27.676 72.1604 27.676ZM82.3562 30V15.72H85.9402L90.3362 24.456H90.4762L94.9002 15.72H98.4002V30H95.5162V23.056L95.6562 20.312H95.4882L91.3722 28.18H89.3842L85.2682 20.312H85.1002L85.2402 23.056V30H82.3562ZM102.234 30V15.72H105.258V23.028L105.09 25.716H105.258L112.398 15.72H115.394V30H112.398V22.72L112.566 20.032H112.398L105.258 30H102.234ZM122.881 30V18.352H118.177V15.72H130.581V18.352H125.877V30H122.881ZM133.35 30V15.72H136.374V23.028L136.206 25.716H136.374L143.514 15.72H146.51V30H143.514V22.72L143.682 20.032H143.514L136.374 30H133.35ZM157.192 30V15.72H169.736V30H166.712V18.352H160.216V30H157.192ZM175.306 13.62C174.746 13.62 174.261 13.424 173.85 13.032C173.458 12.6213 173.262 12.136 173.262 11.576C173.262 11.016 173.458 10.54 173.85 10.148C174.261 9.756 174.746 9.56 175.306 9.56C175.866 9.56 176.342 9.756 176.734 10.148C177.145 10.54 177.35 11.016 177.35 11.576C177.35 12.136 177.145 12.6213 176.734 13.032C176.342 13.424 175.866 13.62 175.306 13.62ZM173.794 30V15.72H176.818V30H173.794ZM179.778 34.256V27.368H181.346C181.645 27.0133 181.906 26.5093 182.13 25.856C182.373 25.184 182.56 24.428 182.69 23.588C182.84 22.748 182.914 21.8987 182.914 21.04V15.72H193.61V27.368H195.682V34.256H192.91V30H182.578V34.256H179.778ZM184.594 27.368H190.614V18.352H185.77V21.292C185.77 22.5987 185.677 23.728 185.49 24.68C185.304 25.6133 185.005 26.4533 184.594 27.2V27.368ZM198.67 30V15.72H211.214V30H208.19V18.352H201.694V30H198.67ZM215.048 30V15.72H218.072V23.028L217.904 25.716H218.072L225.212 15.72H228.208V30H225.212V22.72L225.38 20.032H225.212L218.072 30H215.048ZM238.527 30.448C237.089 30.448 235.82 30.1213 234.719 29.468C233.617 28.8147 232.749 27.9187 232.115 26.78C231.48 25.6227 231.163 24.316 231.163 22.86C231.163 21.404 231.48 20.1067 232.115 18.968C232.749 17.8107 233.617 16.9053 234.719 16.252C235.82 15.5987 237.089 15.272 238.527 15.272C240.113 15.272 241.448 15.6267 242.531 16.336C243.632 17.0453 244.416 18.0067 244.883 19.22L242.139 20.34C241.485 18.8093 240.263 18.044 238.471 18.044C237.687 18.044 236.968 18.2493 236.315 18.66C235.661 19.052 235.139 19.612 234.747 20.34C234.355 21.0493 234.159 21.8893 234.159 22.86C234.159 23.8307 234.355 24.68 234.747 25.408C235.139 26.136 235.661 26.696 236.315 27.088C236.968 27.48 237.687 27.676 238.471 27.676C239.385 27.676 240.16 27.4707 240.795 27.06C241.429 26.6307 241.924 26.052 242.279 25.324L244.967 26.5C244.463 27.6387 243.66 28.5813 242.559 29.328C241.457 30.0747 240.113 30.448 238.527 30.448ZM247.859 30V15.72H250.883V22.048H251.051L256.651 15.72H260.123V15.888L254.159 22.412L260.347 29.832V30H256.763L251.051 22.972H250.883V30H247.859ZM267.66 35.348C267.604 35.4973 267.539 35.6373 267.464 35.768C267.408 35.8987 267.371 35.992 267.352 36.048H264.132C264.226 35.8427 264.356 35.544 264.524 35.152C264.711 34.7787 264.888 34.4147 265.056 34.06C265.224 33.7053 265.402 33.304 265.588 32.856C265.794 32.408 265.999 31.9693 266.204 31.54L267.268 29.216L261.304 15.72H264.664L268.752 25.464H268.892L272.84 15.72H276.172L268.78 32.744C268.575 33.2293 268.351 33.7333 268.108 34.256C267.884 34.7973 267.735 35.1613 267.66 35.348ZM293.686 30V24.848C293.294 25.128 292.799 25.352 292.202 25.52C291.605 25.6693 290.951 25.744 290.242 25.744C288.599 25.744 287.283 25.268 286.294 24.316C285.323 23.364 284.838 22.076 284.838 20.452V15.72H287.862V20.144C287.862 21.04 288.114 21.7493 288.618 22.272C289.141 22.776 289.869 23.028 290.802 23.028C291.381 23.028 291.922 22.944 292.426 22.776C292.949 22.5893 293.369 22.3467 293.686 22.048V15.72H296.682V30H293.686ZM306.935 30.448C305.535 30.448 304.284 30.1213 303.183 29.468C302.082 28.8147 301.214 27.9187 300.579 26.78C299.963 25.6413 299.655 24.344 299.655 22.888C299.655 21.5253 299.954 20.2653 300.551 19.108C301.148 17.9507 301.979 17.0267 303.043 16.336C304.126 15.6267 305.367 15.272 306.767 15.272C308.242 15.272 309.492 15.5893 310.519 16.224C311.564 16.8587 312.358 17.7267 312.899 18.828C313.44 19.9293 313.711 21.1707 313.711 22.552C313.711 22.7573 313.702 22.944 313.683 23.112C313.683 23.28 313.674 23.4107 313.655 23.504H302.623C302.772 24.9227 303.267 25.9867 304.107 26.696C304.966 27.4053 305.936 27.76 307.019 27.76C307.99 27.76 308.792 27.5453 309.427 27.116C310.062 26.668 310.566 26.1173 310.939 25.464L313.431 26.668C312.815 27.788 311.975 28.7027 310.911 29.412C309.847 30.1027 308.522 30.448 306.935 30.448ZM306.795 17.848C305.787 17.848 304.928 18.156 304.219 18.772C303.51 19.388 303.034 20.2093 302.791 21.236H310.715C310.678 20.7507 310.519 20.2467 310.239 19.724C309.959 19.2013 309.53 18.7627 308.951 18.408C308.391 18.0347 307.672 17.848 306.795 17.848ZM316.788 36.048V15.72H319.616V17.652H319.784C320.158 17.036 320.736 16.4853 321.52 16C322.323 15.5147 323.275 15.272 324.376 15.272C325.683 15.272 326.85 15.5987 327.876 16.252C328.903 16.9053 329.715 17.8013 330.312 18.94C330.928 20.0787 331.236 21.3853 331.236 22.86C331.236 24.3347 330.928 25.6507 330.312 26.808C329.715 27.9467 328.903 28.8427 327.876 29.496C326.85 30.1307 325.683 30.448 324.376 30.448C323.275 30.448 322.323 30.2147 321.52 29.748C320.736 29.2627 320.158 28.712 319.784 28.096H319.616L319.784 30.084V36.048H316.788ZM323.928 27.676C324.675 27.676 325.375 27.48 326.028 27.088C326.682 26.696 327.214 26.1453 327.624 25.436C328.035 24.708 328.24 23.8493 328.24 22.86C328.24 21.8707 328.035 21.0213 327.624 20.312C327.214 19.584 326.682 19.024 326.028 18.632C325.375 18.24 324.675 18.044 323.928 18.044C323.182 18.044 322.482 18.24 321.828 18.632C321.175 19.024 320.643 19.584 320.232 20.312C319.822 21.0213 319.616 21.8707 319.616 22.86C319.616 23.8493 319.822 24.708 320.232 25.436C320.643 26.1453 321.175 26.696 321.828 27.088C322.482 27.48 323.182 27.676 323.928 27.676ZM340.785 30.448C339.385 30.448 338.134 30.1213 337.033 29.468C335.932 28.8147 335.064 27.9187 334.429 26.78C333.813 25.6413 333.505 24.344 333.505 22.888C333.505 21.5253 333.804 20.2653 334.401 19.108C334.998 17.9507 335.829 17.0267 336.893 16.336C337.976 15.6267 339.217 15.272 340.617 15.272C342.092 15.272 343.342 15.5893 344.369 16.224C345.414 16.8587 346.208 17.7267 346.749 18.828C347.29 19.9293 347.561 21.1707 347.561 22.552C347.561 22.7573 347.552 22.944 347.533 23.112C347.533 23.28 347.524 23.4107 347.505 23.504H336.473C336.622 24.9227 337.117 25.9867 337.957 26.696C338.816 27.4053 339.786 27.76 340.869 27.76C341.84 27.76 342.642 27.5453 343.277 27.116C343.912 26.668 344.416 26.1173 344.789 25.464L347.281 26.668C346.665 27.788 345.825 28.7027 344.761 29.412C343.697 30.1027 342.372 30.448 340.785 30.448ZM340.645 17.848C339.637 17.848 338.778 18.156 338.069 18.772C337.36 19.388 336.884 20.2093 336.641 21.236H344.565C344.528 20.7507 344.369 20.2467 344.089 19.724C343.809 19.2013 343.38 18.7627 342.801 18.408C342.241 18.0347 341.522 17.848 340.645 17.848ZM355.215 30.448C354.431 30.448 353.647 30.3547 352.863 30.168C352.079 29.9813 351.342 29.664 350.651 29.216C349.979 28.7493 349.419 28.1053 348.971 27.284L351.379 25.884C351.902 26.612 352.499 27.116 353.171 27.396C353.862 27.6573 354.543 27.788 355.215 27.788C356.186 27.788 356.923 27.6013 357.427 27.228C357.931 26.8547 358.183 26.3693 358.183 25.772C358.183 25.2493 357.95 24.8293 357.483 24.512C357.035 24.176 356.401 24.008 355.579 24.008H353.255V21.628H355.579C356.289 21.628 356.83 21.46 357.203 21.124C357.595 20.788 357.791 20.3587 357.791 19.836C357.791 19.22 357.53 18.7347 357.007 18.38C356.485 18.0067 355.822 17.82 355.019 17.82C354.31 17.82 353.629 17.9693 352.975 18.268C352.322 18.548 351.827 18.9307 351.491 19.416L349.251 17.932C349.905 17.1107 350.726 16.4667 351.715 16C352.723 15.5147 353.834 15.272 355.047 15.272C356.093 15.272 357.035 15.4493 357.875 15.804C358.734 16.1587 359.406 16.6533 359.891 17.288C360.395 17.904 360.647 18.6227 360.647 19.444C360.647 20.1533 360.47 20.788 360.115 21.348C359.761 21.8893 359.294 22.3 358.715 22.58V22.748C359.443 23.0467 360.031 23.4947 360.479 24.092C360.927 24.6893 361.151 25.3707 361.151 26.136C361.151 26.976 360.909 27.7227 360.423 28.376C359.938 29.0107 359.247 29.5147 358.351 29.888C357.455 30.2613 356.41 30.448 355.215 30.448Z" fill="white"/>
<g id="GPay Logo (Dark)">
<g id="GPay">
<g id="Pay">
<path id="Fill 1" fill-rule="evenodd" clip-rule="evenodd" d="M412.529 9.34665V17.5128H417.565C418.765 17.5128 419.757 17.1096 420.541 16.3032C421.347 15.4988 421.75 14.5394 421.75 13.4288C421.75 12.3406 421.347 11.3924 420.541 10.586C419.757 9.75916 418.765 9.34479 417.565 9.34479H412.529V9.34665ZM412.529 20.3872V29.8599H409.521V6.47218H417.499C419.527 6.47218 421.248 7.14787 422.666 8.49738C424.105 9.84688 424.824 11.4913 424.824 13.4288C424.824 15.411 424.105 17.0667 422.666 18.3938C421.27 19.7227 419.547 20.3854 417.499 20.3854H412.529V20.3872Z" fill="white"/>
<path id="Fill 3" fill-rule="evenodd" clip-rule="evenodd" d="M427.864 24.9602C427.864 25.7442 428.197 26.3975 428.862 26.9201C429.527 27.4427 430.306 27.704 431.2 27.704C432.465 27.704 433.591 27.2354 434.584 26.3004C435.576 25.3634 436.071 24.264 436.071 23.0022C435.133 22.2612 433.825 21.8916 432.147 21.8916C430.925 21.8916 429.907 22.1866 429.09 22.7745C428.273 23.3623 427.864 24.0886 427.864 24.9602ZM431.756 13.3317C433.98 13.3317 435.735 13.9253 437.022 15.1124C438.308 16.2995 438.95 17.9271 438.95 19.9952V29.8599H436.073V27.6387H435.942C434.699 29.4677 433.042 30.3825 430.972 30.3825C429.206 30.3825 427.728 29.8599 426.541 28.8146C425.353 27.7694 424.759 26.4628 424.759 24.8949C424.759 23.2393 425.385 21.9232 426.638 20.9434C427.892 19.9635 429.565 19.4726 431.658 19.4726C433.444 19.4726 434.916 19.7993 436.071 20.4525V19.7657C436.071 18.7204 435.656 17.8338 434.829 17.104C433.999 16.3742 433.031 16.0102 431.919 16.0102C430.239 16.0102 428.911 16.7176 427.93 18.1343L425.28 16.4675C426.741 14.377 428.899 13.3317 431.756 13.3317Z" fill="white"/>
<path id="Fill 5" fill-rule="evenodd" clip-rule="evenodd" d="M455.463 13.8543L445.424 36.9154H442.318L446.046 28.8464L439.44 13.8543H442.71L447.484 25.3522H447.55L452.193 13.8543H455.463Z" fill="white"/>
</g>
<g id="G">
<path id="Fill 8" fill-rule="evenodd" clip-rule="evenodd" d="M400.373 18.3452C400.373 17.3989 400.293 16.4861 400.141 15.6126H387.454V20.7885H394.72C394.408 22.4757 393.465 23.9112 392.033 24.8725V28.2341H396.37C398.91 25.8935 400.373 22.4348 400.373 18.3452Z" fill="#4285F4"/>
<path id="Fill 10" fill-rule="evenodd" clip-rule="evenodd" d="M387.454 31.4782C391.084 31.4782 394.141 30.2873 396.37 28.2341L392.033 24.8725C390.826 25.6844 389.272 26.1585 387.454 26.1585C383.944 26.1585 380.966 23.7955 379.901 20.6112H375.433V24.0736C377.647 28.4637 382.197 31.4782 387.454 31.4782Z" fill="#34A853"/>
<path id="Fill 12" fill-rule="evenodd" clip-rule="evenodd" d="M379.901 20.6111C379.628 19.7992 379.479 18.9331 379.479 18.0391C379.479 17.145 379.628 16.2789 379.901 15.467V12.0045H375.433C374.518 13.8188 374 15.8683 374 18.0391C374 20.2098 374.518 22.2595 375.433 24.0736L379.901 20.6111Z" fill="#FABB05"/>
<path id="Fill 14" fill-rule="evenodd" clip-rule="evenodd" d="M387.454 9.91964C389.436 9.91964 391.213 10.6009 392.615 11.9355V11.9374L396.455 8.10163C394.123 5.93272 391.082 4.60001 387.454 4.60001C382.197 4.60001 377.647 7.61447 375.433 12.0046L379.901 15.467C380.966 12.2827 383.944 9.91964 387.454 9.91964Z" fill="#E94235"/>
</g>
</g>
</g>
</g>
</svg>
