<svg width="294" height="38" viewBox="0 0 294 38" fill="none" xmlns="http://www.w3.org/2000/svg">
<g id="uk_view_in_Dark">
<path id="Text" d="M3.95315 30V9.952H19.0732V30H15.9932V12.864H7.03315V30H3.95315ZM29.9333 30.448C28.5333 30.448 27.2826 30.1213 26.1813 29.468C25.08 28.8147 24.212 27.9187 23.5773 26.78C22.9613 25.6413 22.6533 24.344 22.6533 22.888C22.6533 21.5253 22.952 20.2653 23.5493 19.108C24.1466 17.9507 24.9773 17.0267 26.0413 16.336C27.124 15.6267 28.3653 15.272 29.7653 15.272C31.24 15.272 32.4906 15.5893 33.5173 16.224C34.5626 16.8587 35.356 17.7267 35.8973 18.828C36.4386 19.9293 36.7093 21.1707 36.7093 22.552C36.7093 22.7573 36.7 22.944 36.6813 23.112C36.6813 23.28 36.672 23.4107 36.6533 23.504H25.6213C25.7706 24.9227 26.2653 25.9867 27.1053 26.696C27.964 27.4053 28.9346 27.76 30.0173 27.76C30.988 27.76 31.7906 27.5453 32.4253 27.116C33.06 26.668 33.564 26.1173 33.9373 25.464L36.4293 26.668C35.8133 27.788 34.9733 28.7027 33.9093 29.412C32.8453 30.1027 31.52 30.448 29.9333 30.448ZM29.7933 17.848C28.7853 17.848 27.9266 18.156 27.2173 18.772C26.508 19.388 26.032 20.2093 25.7893 21.236H33.7133C33.676 20.7507 33.5173 20.2467 33.2373 19.724C32.9573 19.2013 32.528 18.7627 31.9493 18.408C31.3893 18.0347 30.6706 17.848 29.7933 17.848ZM39.7868 36.048V15.72H42.6148V17.652H42.7828C43.1561 17.036 43.7348 16.4853 44.5188 16C45.3214 15.5147 46.2734 15.272 47.3748 15.272C48.6814 15.272 49.8481 15.5987 50.8748 16.252C51.9014 16.9053 52.7134 17.8013 53.3108 18.94C53.9268 20.0787 54.2348 21.3853 54.2348 22.86C54.2348 24.3347 53.9268 25.6507 53.3108 26.808C52.7134 27.9467 51.9014 28.8427 50.8748 29.496C49.8481 30.1307 48.6814 30.448 47.3748 30.448C46.2734 30.448 45.3214 30.2147 44.5188 29.748C43.7348 29.2627 43.1561 28.712 42.7828 28.096H42.6148L42.7828 30.084V36.048H39.7868ZM46.9268 27.676C47.6734 27.676 48.3734 27.48 49.0268 27.088C49.6801 26.696 50.2121 26.1453 50.6228 25.436C51.0334 24.708 51.2388 23.8493 51.2388 22.86C51.2388 21.8707 51.0334 21.0213 50.6228 20.312C50.2121 19.584 49.6801 19.024 49.0268 18.632C48.3734 18.24 47.6734 18.044 46.9268 18.044C46.1801 18.044 45.4801 18.24 44.8268 18.632C44.1734 19.024 43.6414 19.584 43.2308 20.312C42.8201 21.0213 42.6148 21.8707 42.6148 22.86C42.6148 23.8493 42.8201 24.708 43.2308 25.436C43.6414 26.1453 44.1734 26.696 44.8268 27.088C45.4801 27.48 46.1801 27.676 46.9268 27.676ZM63.7833 30.448C62.3833 30.448 61.1326 30.1213 60.0313 29.468C58.93 28.8147 58.062 27.9187 57.4273 26.78C56.8113 25.6413 56.5033 24.344 56.5033 22.888C56.5033 21.5253 56.802 20.2653 57.3993 19.108C57.9966 17.9507 58.8273 17.0267 59.8913 16.336C60.974 15.6267 62.2153 15.272 63.6153 15.272C65.09 15.272 66.3406 15.5893 67.3673 16.224C68.4126 16.8587 69.206 17.7267 69.7473 18.828C70.2886 19.9293 70.5593 21.1707 70.5593 22.552C70.5593 22.7573 70.55 22.944 70.5313 23.112C70.5313 23.28 70.522 23.4107 70.5033 23.504H59.4713C59.6206 24.9227 60.1153 25.9867 60.9553 26.696C61.814 27.4053 62.7846 27.76 63.8673 27.76C64.838 27.76 65.6406 27.5453 66.2753 27.116C66.91 26.668 67.414 26.1173 67.7873 25.464L70.2793 26.668C69.6633 27.788 68.8233 28.7027 67.7593 29.412C66.6953 30.1027 65.37 30.448 63.7833 30.448ZM63.6433 17.848C62.6353 17.848 61.7766 18.156 61.0673 18.772C60.358 19.388 59.882 20.2093 59.6393 21.236H67.5633C67.526 20.7507 67.3673 20.2467 67.0873 19.724C66.8073 19.2013 66.378 18.7627 65.7993 18.408C65.2393 18.0347 64.5206 17.848 63.6433 17.848ZM73.6648 30V15.72H83.0168V18.352H76.6888V30H73.6648ZM85.2357 30.224C84.8063 30.224 84.3957 30.1773 84.0037 30.084V27.284C84.265 27.4147 84.5543 27.48 84.8717 27.48C85.5063 27.48 85.9543 27.2373 86.2157 26.752C86.477 26.248 86.6357 25.6133 86.6917 24.848C86.7477 24.0827 86.7757 23.2893 86.7757 22.468V15.72H97.6957V30H94.6997V18.352H89.6317V22.944C89.6317 23.9147 89.5663 24.8387 89.4357 25.716C89.3237 26.5747 89.109 27.3493 88.7917 28.04C88.4743 28.712 88.0263 29.244 87.4477 29.636C86.8877 30.028 86.1503 30.224 85.2357 30.224ZM100.63 30V29.832L104.438 24.876L104.382 24.708C103.486 24.3533 102.758 23.8027 102.198 23.056C101.638 22.3093 101.358 21.4507 101.358 20.48C101.358 19.5653 101.582 18.7533 102.03 18.044C102.478 17.3347 103.085 16.7747 103.85 16.364C104.634 15.9347 105.511 15.72 106.482 15.72H112.614V30H109.59V25.156H107.602L104.018 30H100.63ZM106.706 22.748H109.59V18.24H106.706C106.053 18.24 105.493 18.4547 105.026 18.884C104.578 19.3133 104.354 19.8453 104.354 20.48C104.354 21.1333 104.578 21.6747 105.026 22.104C105.493 22.5333 106.053 22.748 106.706 22.748ZM116.455 30V15.72H119.479V21.46H126.255V15.72H129.279V30H126.255V24.092H119.479V30H116.455ZM137.979 35.348C137.923 35.4973 137.858 35.6373 137.783 35.768C137.727 35.8987 137.69 35.992 137.671 36.048H134.451C134.544 35.8427 134.675 35.544 134.843 35.152C135.03 34.7787 135.207 34.4147 135.375 34.06C135.543 33.7053 135.72 33.304 135.907 32.856C136.112 32.408 136.318 31.9693 136.523 31.54L137.587 29.216L131.623 15.72H134.983L139.071 25.464H139.211L143.159 15.72H146.491L139.099 32.744C138.894 33.2293 138.67 33.7333 138.427 34.256C138.203 34.7973 138.054 35.1613 137.979 35.348ZM152.606 30V18.352H147.902V15.72H160.306V18.352H155.602V30H152.606ZM163.074 30V15.72H166.098V23.028L165.93 25.716H166.098L173.238 15.72H176.234V30H173.238V22.72L173.406 20.032H173.238L166.098 30H163.074ZM186.916 30V15.72H194C194.84 15.72 195.587 15.888 196.24 16.224C196.912 16.5413 197.435 16.98 197.808 17.54C198.2 18.1 198.396 18.7253 198.396 19.416C198.396 20.1627 198.228 20.8067 197.892 21.348C197.575 21.8893 197.155 22.2907 196.632 22.552V22.72C197.342 23 197.902 23.42 198.312 23.98C198.742 24.54 198.956 25.184 198.956 25.912C198.956 26.752 198.732 27.48 198.284 28.096C197.855 28.712 197.295 29.188 196.604 29.524C195.914 29.8413 195.176 30 194.392 30H186.916ZM189.94 18.184V21.544H193.636C194.14 21.544 194.56 21.3853 194.896 21.068C195.232 20.7507 195.4 20.3493 195.4 19.864C195.4 19.36 195.232 18.9587 194.896 18.66C194.56 18.3427 194.14 18.184 193.636 18.184H189.94ZM189.94 27.48H194.084C194.626 27.48 195.074 27.312 195.428 26.976C195.802 26.6213 195.988 26.1733 195.988 25.632C195.988 25.1093 195.802 24.6707 195.428 24.316C195.074 23.9613 194.626 23.784 194.084 23.784H189.94V27.48Z" fill="white"/>
<g id="GPay Logo (Dark)">
<g id="GPay">
<g id="Pay">
<path id="Fill 1" fill-rule="evenodd" clip-rule="evenodd" d="M250.529 9.34665V17.5128H255.565C256.765 17.5128 257.757 17.1096 258.541 16.3032C259.347 15.4988 259.75 14.5394 259.75 13.4288C259.75 12.3406 259.347 11.3924 258.541 10.586C257.757 9.75916 256.765 9.34479 255.565 9.34479H250.529V9.34665ZM250.529 20.3872V29.8599H247.521V6.47218H255.499C257.527 6.47218 259.248 7.14787 260.666 8.49738C262.105 9.84688 262.824 11.4913 262.824 13.4288C262.824 15.411 262.105 17.0667 260.666 18.3938C259.27 19.7227 257.547 20.3854 255.499 20.3854H250.529V20.3872Z" fill="white"/>
<path id="Fill 3" fill-rule="evenodd" clip-rule="evenodd" d="M265.864 24.9602C265.864 25.7442 266.197 26.3975 266.862 26.9201C267.527 27.4427 268.306 27.704 269.2 27.704C270.465 27.704 271.591 27.2354 272.584 26.3004C273.576 25.3634 274.071 24.264 274.071 23.0022C273.133 22.2612 271.825 21.8916 270.147 21.8916C268.925 21.8916 267.907 22.1866 267.09 22.7745C266.273 23.3623 265.864 24.0886 265.864 24.9602ZM269.756 13.3317C271.98 13.3317 273.735 13.9253 275.022 15.1124C276.308 16.2995 276.95 17.9271 276.95 19.9952V29.8599H274.073V27.6387H273.942C272.699 29.4677 271.042 30.3825 268.972 30.3825C267.206 30.3825 265.728 29.8599 264.541 28.8146C263.353 27.7694 262.759 26.4628 262.759 24.8949C262.759 23.2393 263.385 21.9232 264.638 20.9434C265.892 19.9635 267.565 19.4726 269.658 19.4726C271.444 19.4726 272.916 19.7993 274.071 20.4525V19.7657C274.071 18.7204 273.656 17.8338 272.829 17.104C271.999 16.3742 271.031 16.0102 269.919 16.0102C268.239 16.0102 266.911 16.7176 265.93 18.1343L263.28 16.4675C264.741 14.377 266.899 13.3317 269.756 13.3317Z" fill="white"/>
<path id="Fill 5" fill-rule="evenodd" clip-rule="evenodd" d="M293.463 13.8543L283.424 36.9154H280.318L284.046 28.8464L277.44 13.8543H280.71L285.484 25.3522H285.55L290.193 13.8543H293.463Z" fill="white"/>
</g>
<g id="G">
<path id="Fill 8" fill-rule="evenodd" clip-rule="evenodd" d="M238.373 18.3452C238.373 17.3989 238.293 16.4861 238.141 15.6126H225.454V20.7885H232.72C232.408 22.4757 231.465 23.9112 230.033 24.8725V28.2341H234.37C236.91 25.8935 238.373 22.4348 238.373 18.3452Z" fill="#4285F4"/>
<path id="Fill 10" fill-rule="evenodd" clip-rule="evenodd" d="M225.454 31.4782C229.084 31.4782 232.141 30.2873 234.37 28.2341L230.033 24.8725C228.826 25.6844 227.272 26.1585 225.454 26.1585C221.944 26.1585 218.966 23.7955 217.901 20.6112H213.433V24.0736C215.647 28.4637 220.197 31.4782 225.454 31.4782Z" fill="#34A853"/>
<path id="Fill 12" fill-rule="evenodd" clip-rule="evenodd" d="M217.901 20.6111C217.628 19.7992 217.479 18.9331 217.479 18.0391C217.479 17.145 217.628 16.2789 217.901 15.467V12.0045H213.433C212.518 13.8188 212 15.8683 212 18.0391C212 20.2098 212.518 22.2595 213.433 24.0736L217.901 20.6111Z" fill="#FABB05"/>
<path id="Fill 14" fill-rule="evenodd" clip-rule="evenodd" d="M225.454 9.91964C227.436 9.91964 229.213 10.6009 230.615 11.9355V11.9374L234.455 8.10163C232.123 5.93272 229.082 4.60001 225.454 4.60001C220.197 4.60001 215.647 7.61447 213.433 12.0046L217.901 15.467C218.966 12.2827 221.944 9.91964 225.454 9.91964Z" fill="#E94235"/>
</g>
</g>
</g>
</g>
</svg>
