<svg width="135" height="21" viewBox="0 0 135 21" fill="none" xmlns="http://www.w3.org/2000/svg">
<g id="it_add_to_Pay_NBG">
<path id="Left Text" d="M0.733752 15.0006L5.05375 3.54461H7.05375L11.3898 15.0006H9.45375L8.39775 12.0566H3.72575L2.66975 15.0006H0.733752ZM7.80575 10.4246L6.54175 6.92061L6.10975 5.60861H6.01375L5.58175 6.92061L4.31775 10.4246H7.80575ZM16.3161 18.7126C15.6015 18.7126 14.9828 18.5953 14.4601 18.3606C13.9481 18.1366 13.5321 17.8433 13.2121 17.4806C12.8921 17.1286 12.6628 16.7659 12.5241 16.3926L14.1241 15.7206C14.2948 16.1473 14.5668 16.4939 14.9401 16.7606C15.3241 17.0379 15.7828 17.1766 16.3161 17.1766C17.0735 17.1766 17.6655 16.9526 18.0921 16.5046C18.5188 16.0566 18.7321 15.4219 18.7321 14.6006V13.8166H18.6361C18.3801 14.1899 18.0281 14.4939 17.5801 14.7286C17.1321 14.9633 16.6148 15.0806 16.0281 15.0806C15.3348 15.0806 14.6948 14.9046 14.1081 14.5526C13.5321 14.2006 13.0681 13.7099 12.7161 13.0806C12.3748 12.4406 12.2041 11.6939 12.2041 10.8406C12.2041 9.97661 12.3748 9.22994 12.7161 8.60061C13.0681 7.96061 13.5321 7.46461 14.1081 7.11261C14.6948 6.76061 15.3348 6.58461 16.0281 6.58461C16.6148 6.58461 17.1321 6.70194 17.5801 6.93661C18.0281 7.16061 18.3801 7.46994 18.6361 7.86461H18.7321V6.84061H20.3801V14.5686C20.3801 15.4539 20.2041 16.2059 19.8521 16.8246C19.5108 17.4433 19.0361 17.9126 18.4281 18.2326C17.8201 18.5526 17.1161 18.7126 16.3161 18.7126ZM16.3321 13.5126C16.7588 13.5126 17.1535 13.4113 17.5161 13.2086C17.8895 12.9953 18.1828 12.6913 18.3961 12.2966C18.6201 11.8913 18.7321 11.4059 18.7321 10.8406C18.7321 10.2433 18.6201 9.74728 18.3961 9.35261C18.1828 8.95794 17.8895 8.65928 17.5161 8.45661C17.1535 8.25394 16.7588 8.15261 16.3321 8.15261C15.9055 8.15261 15.5055 8.25394 15.1321 8.45661C14.7695 8.65928 14.4761 8.96328 14.2521 9.36861C14.0281 9.76328 13.9161 10.2539 13.9161 10.8406C13.9161 11.4166 14.0281 11.9073 14.2521 12.3126C14.4761 12.7073 14.7695 13.0059 15.1321 13.2086C15.5055 13.4113 15.9055 13.5126 16.3321 13.5126ZM26.1536 18.7126C25.439 18.7126 24.8203 18.5953 24.2976 18.3606C23.7856 18.1366 23.3696 17.8433 23.0496 17.4806C22.7296 17.1286 22.5003 16.7659 22.3616 16.3926L23.9616 15.7206C24.1323 16.1473 24.4043 16.4939 24.7776 16.7606C25.1616 17.0379 25.6203 17.1766 26.1536 17.1766C26.911 17.1766 27.503 16.9526 27.9296 16.5046C28.3563 16.0566 28.5696 15.4219 28.5696 14.6006V13.8166H28.4736C28.2176 14.1899 27.8656 14.4939 27.4176 14.7286C26.9696 14.9633 26.4523 15.0806 25.8656 15.0806C25.1723 15.0806 24.5323 14.9046 23.9456 14.5526C23.3696 14.2006 22.9056 13.7099 22.5536 13.0806C22.2123 12.4406 22.0416 11.6939 22.0416 10.8406C22.0416 9.97661 22.2123 9.22994 22.5536 8.60061C22.9056 7.96061 23.3696 7.46461 23.9456 7.11261C24.5323 6.76061 25.1723 6.58461 25.8656 6.58461C26.4523 6.58461 26.9696 6.70194 27.4176 6.93661C27.8656 7.16061 28.2176 7.46994 28.4736 7.86461H28.5696V6.84061H30.2176V14.5686C30.2176 15.4539 30.0416 16.2059 29.6896 16.8246C29.3483 17.4433 28.8736 17.9126 28.2656 18.2326C27.6576 18.5526 26.9536 18.7126 26.1536 18.7126ZM26.1696 13.5126C26.5963 13.5126 26.991 13.4113 27.3536 13.2086C27.727 12.9953 28.0203 12.6913 28.2336 12.2966C28.4576 11.8913 28.5696 11.4059 28.5696 10.8406C28.5696 10.2433 28.4576 9.74728 28.2336 9.35261C28.0203 8.95794 27.727 8.65928 27.3536 8.45661C26.991 8.25394 26.5963 8.15261 26.1696 8.15261C25.743 8.15261 25.343 8.25394 24.9696 8.45661C24.607 8.65928 24.3136 8.96328 24.0896 9.36861C23.8656 9.76328 23.7536 10.2539 23.7536 10.8406C23.7536 11.4166 23.8656 11.9073 24.0896 12.3126C24.3136 12.7073 24.607 13.0059 24.9696 13.2086C25.343 13.4113 25.743 13.5126 26.1696 13.5126ZM32.5173 15.0006V6.84061H34.2453V15.0006H32.5173ZM33.3813 5.64061C33.0613 5.64061 32.7839 5.52861 32.5493 5.30461C32.3253 5.06994 32.2133 4.79261 32.2133 4.47261C32.2133 4.14194 32.3253 3.86994 32.5493 3.65661C32.7839 3.43261 33.0613 3.32061 33.3813 3.32061C33.7119 3.32061 33.9893 3.43261 34.2133 3.65661C34.4373 3.86994 34.5493 4.14194 34.5493 4.47261C34.5493 4.79261 34.4373 5.06994 34.2133 5.30461C33.9893 5.52861 33.7119 5.64061 33.3813 5.64061ZM39.4993 15.2566C38.4966 15.2566 37.7393 14.9579 37.2273 14.3606C36.7259 13.7526 36.4753 12.9313 36.4753 11.8966V6.84061H38.2033V11.6566C38.2033 12.3393 38.3633 12.8459 38.6833 13.1766C39.0139 13.5073 39.4246 13.6726 39.9153 13.6726C40.3633 13.6726 40.7473 13.5606 41.0673 13.3366C41.3873 13.1019 41.6326 12.7979 41.8033 12.4246C41.9846 12.0513 42.0753 11.6513 42.0753 11.2246V6.84061H43.7873V15.0006H42.1713V13.8966H42.0753C41.9259 14.1526 41.7179 14.3819 41.4513 14.5846C41.1846 14.7873 40.8859 14.9473 40.5553 15.0646C40.2246 15.1926 39.8726 15.2566 39.4993 15.2566ZM45.9705 15.0006V6.84061H47.6025V7.96061H47.6985C47.9332 7.56594 48.2798 7.24061 48.7385 6.98461C49.2078 6.71794 49.7198 6.58461 50.2745 6.58461C51.2772 6.58461 52.0292 6.88328 52.5305 7.48061C53.0318 8.06728 53.2825 8.85661 53.2825 9.84861V15.0006H51.5705V10.0726C51.5705 9.41128 51.4052 8.93128 51.0745 8.63261C50.7438 8.32328 50.3118 8.16861 49.7785 8.16861C49.3625 8.16861 48.9998 8.28594 48.6905 8.52061C48.3812 8.74461 48.1358 9.04328 47.9545 9.41661C47.7838 9.78994 47.6985 10.1899 47.6985 10.6166V15.0006H45.9705ZM59.0036 18.7126C58.289 18.7126 57.6703 18.5953 57.1476 18.3606C56.6356 18.1366 56.2196 17.8433 55.8996 17.4806C55.5796 17.1286 55.3503 16.7659 55.2116 16.3926L56.8116 15.7206C56.9823 16.1473 57.2543 16.4939 57.6276 16.7606C58.0116 17.0379 58.4703 17.1766 59.0036 17.1766C59.761 17.1766 60.353 16.9526 60.7796 16.5046C61.2063 16.0566 61.4196 15.4219 61.4196 14.6006V13.8166H61.3236C61.0676 14.1899 60.7156 14.4939 60.2676 14.7286C59.8196 14.9633 59.3023 15.0806 58.7156 15.0806C58.0223 15.0806 57.3823 14.9046 56.7956 14.5526C56.2196 14.2006 55.7556 13.7099 55.4036 13.0806C55.0623 12.4406 54.8916 11.6939 54.8916 10.8406C54.8916 9.97661 55.0623 9.22994 55.4036 8.60061C55.7556 7.96061 56.2196 7.46461 56.7956 7.11261C57.3823 6.76061 58.0223 6.58461 58.7156 6.58461C59.3023 6.58461 59.8196 6.70194 60.2676 6.93661C60.7156 7.16061 61.0676 7.46994 61.3236 7.86461H61.4196V6.84061H63.0676V14.5686C63.0676 15.4539 62.8916 16.2059 62.5396 16.8246C62.1983 17.4433 61.7236 17.9126 61.1156 18.2326C60.5076 18.5526 59.8036 18.7126 59.0036 18.7126ZM59.0196 13.5126C59.4463 13.5126 59.841 13.4113 60.2036 13.2086C60.577 12.9953 60.8703 12.6913 61.0836 12.2966C61.3076 11.8913 61.4196 11.4059 61.4196 10.8406C61.4196 10.2433 61.3076 9.74728 61.0836 9.35261C60.8703 8.95794 60.577 8.65928 60.2036 8.45661C59.841 8.25394 59.4463 8.15261 59.0196 8.15261C58.593 8.15261 58.193 8.25394 57.8196 8.45661C57.457 8.65928 57.1636 8.96328 56.9396 9.36861C56.7156 9.76328 56.6036 10.2539 56.6036 10.8406C56.6036 11.4166 56.7156 11.9073 56.9396 12.3126C57.1636 12.7073 57.457 13.0059 57.8196 13.2086C58.193 13.4113 58.593 13.5126 59.0196 13.5126ZM65.3672 15.0006V6.84061H67.0952V15.0006H65.3672ZM66.2312 5.64061C65.9112 5.64061 65.6339 5.52861 65.3992 5.30461C65.1752 5.06994 65.0632 4.79261 65.0632 4.47261C65.0632 4.14194 65.1752 3.86994 65.3992 3.65661C65.6339 3.43261 65.9112 3.32061 66.2312 3.32061C66.5619 3.32061 66.8392 3.43261 67.0632 3.65661C67.2872 3.86994 67.3992 4.14194 67.3992 4.47261C67.3992 4.79261 67.2872 5.06994 67.0632 5.30461C66.8392 5.52861 66.5619 5.64061 66.2312 5.64061ZM75.8336 15.2566C75.247 15.2566 74.7243 15.1393 74.2656 14.9046C73.8176 14.6699 73.4603 14.3499 73.1936 13.9446C72.9376 13.5286 72.8096 13.0539 72.8096 12.5206C72.8096 11.9339 72.959 11.4379 73.2576 11.0326C73.567 10.6273 73.9776 10.3179 74.4896 10.1046C75.0016 9.89128 75.567 9.78461 76.1856 9.78461C76.527 9.78461 76.8416 9.81128 77.1296 9.86461C77.4283 9.90728 77.6843 9.96061 77.8976 10.0246C78.1216 10.0886 78.2976 10.1579 78.4256 10.2326V9.80061C78.4256 9.26728 78.2336 8.84061 77.8496 8.52061C77.4656 8.20061 76.9696 8.04061 76.3616 8.04061C75.9456 8.04061 75.551 8.13661 75.1776 8.32861C74.8043 8.50994 74.5056 8.76061 74.2816 9.08061L73.0976 8.16861C73.3323 7.83794 73.615 7.55528 73.9456 7.32061C74.287 7.08594 74.6656 6.90461 75.0816 6.77661C75.5083 6.64861 75.951 6.58461 76.4096 6.58461C77.5936 6.58461 78.5056 6.87794 79.1456 7.46461C79.7856 8.04061 80.1056 8.85128 80.1056 9.89661V15.0006H78.4256V13.9926H78.3296C78.191 14.2059 77.999 14.4086 77.7536 14.6006C77.519 14.7926 77.2363 14.9473 76.9056 15.0646C76.5856 15.1926 76.2283 15.2566 75.8336 15.2566ZM76.1376 13.8486C76.5856 13.8486 76.9803 13.7419 77.3216 13.5286C77.6736 13.3153 77.9456 13.0379 78.1376 12.6966C78.3296 12.3446 78.4256 11.9659 78.4256 11.5606C78.191 11.4219 77.903 11.3099 77.5616 11.2246C77.231 11.1286 76.879 11.0806 76.5056 11.0806C75.8016 11.0806 75.3003 11.2193 75.0016 11.4966C74.703 11.7739 74.5536 12.1206 74.5536 12.5366C74.5536 12.9206 74.6976 13.2353 74.9856 13.4806C75.2736 13.7259 75.6576 13.8486 76.1376 13.8486Z" fill="white"/>
<g id="GPay (Dark)">
<g id="GPay">
<g id="Pay">
<path id="Fill 1" fill-rule="evenodd" clip-rule="evenodd" d="M109.356 3.42339V8.16175H112.278C112.974 8.16175 113.55 7.92781 114.005 7.45993C114.473 6.99313 114.707 6.43644 114.707 5.79203C114.707 5.16061 114.473 4.61041 114.005 4.14254C113.55 3.66274 112.974 3.4223 112.278 3.4223H109.356V3.42339ZM109.356 9.82966V15.3262H107.611V1.75549H112.24C113.417 1.75549 114.415 2.14756 115.238 2.93061C116.073 3.71365 116.491 4.66782 116.491 5.79203C116.491 6.94224 116.073 7.90291 115.238 8.67296C114.428 9.44409 113.429 9.82858 112.24 9.82858H109.356V9.82966Z" fill="white"/>
<path id="Fill 3" fill-rule="evenodd" clip-rule="evenodd" d="M118.255 12.4831C118.255 12.9379 118.448 13.317 118.834 13.6203C119.22 13.9235 119.672 14.0752 120.19 14.0752C120.924 14.0752 121.578 13.8032 122.153 13.2607C122.729 12.717 123.017 12.0791 123.017 11.3469C122.472 10.917 121.713 10.7025 120.74 10.7025C120.031 10.7025 119.44 10.8736 118.966 11.2148C118.492 11.5559 118.255 11.9773 118.255 12.4831M120.513 5.73566C121.803 5.73566 122.821 6.08007 123.569 6.76889C124.314 7.45771 124.687 8.40213 124.687 9.60216V15.3261H123.018V14.0373H122.942C122.221 15.0985 121.259 15.6294 120.058 15.6294C119.033 15.6294 118.176 15.3261 117.487 14.7196C116.797 14.1131 116.453 13.3549 116.453 12.4452C116.453 11.4845 116.816 10.7208 117.543 10.1523C118.271 9.58375 119.241 9.2989 120.456 9.2989C121.492 9.2989 122.346 9.48844 123.017 9.86751V9.46894C123.017 8.86243 122.776 8.34798 122.296 7.92451C121.814 7.50103 121.252 7.28984 120.607 7.28984C119.633 7.28984 118.862 7.70032 118.293 8.52235L116.755 7.55519C117.603 6.34217 118.855 5.73566 120.513 5.73566" fill="white"/>
<path id="Fill 5" fill-rule="evenodd" clip-rule="evenodd" d="M134.269 6.03894L128.443 19.4201H126.641L128.804 14.738L124.971 6.03894H126.869L129.639 12.7106H129.677L132.371 6.03894H134.269Z" fill="white"/>
</g>
<g id="G">
<path id="Fill 8" fill-rule="evenodd" clip-rule="evenodd" d="M102.303 8.64473C102.303 8.09563 102.256 7.56601 102.168 7.05914H94.8065V10.0625H99.0231C98.842 11.0414 98.2944 11.8744 97.4639 12.4322V14.3828H99.9804C101.454 13.0246 102.303 11.0177 102.303 8.64473" fill="#4285F4"/>
<path id="Fill 10" fill-rule="evenodd" clip-rule="evenodd" d="M94.8065 16.2651C96.9131 16.2651 98.6869 15.5741 99.9804 14.3828L97.4639 12.4322C96.7635 12.9033 95.8614 13.1784 94.8065 13.1784C92.7703 13.1784 91.042 11.8073 90.424 9.95959H87.8316V11.9687C89.1164 14.516 91.7565 16.2651 94.8065 16.2651" fill="#34A853"/>
<path id="Fill 12" fill-rule="evenodd" clip-rule="evenodd" d="M90.424 9.9596C90.2657 9.48847 90.179 8.98593 90.179 8.46715C90.179 7.94837 90.2657 7.44583 90.424 6.9747V4.96564H87.8316C87.3003 6.01837 87 7.20756 87 8.46715C87 9.72674 87.3003 10.916 87.8316 11.9687L90.424 9.9596Z" fill="#FABB05"/>
<path id="Fill 14" fill-rule="evenodd" clip-rule="evenodd" d="M94.8065 3.75583C95.9568 3.75583 96.9879 4.15115 97.8011 4.92553V4.92661L100.029 2.70094C98.6761 1.44243 96.912 0.669128 94.8065 0.669128C91.7565 0.669128 89.1164 2.41826 87.8316 4.9656L90.424 6.97467C91.042 5.12698 92.7703 3.75583 94.8065 3.75583" fill="#E94235"/>
</g>
</g>
</g>
</g>
</svg>
