<svg width="254" height="38" viewBox="0 0 254 38" fill="none" xmlns="http://www.w3.org/2000/svg">
<g id="it_book_with_Dark">
<path id="Text" d="M2.47894 30V9.952H9.36694C10.5803 9.952 11.6816 10.2133 12.6709 10.736C13.6603 11.2587 14.4443 11.9773 15.0229 12.892C15.6203 13.8067 15.9189 14.8707 15.9189 16.084C15.9189 17.2973 15.6203 18.3707 15.0229 19.304C14.4443 20.2187 13.6603 20.9373 12.6709 21.46C11.6816 21.964 10.5803 22.216 9.36694 22.216H5.55894V30H2.47894ZM9.45094 12.864H5.55894V19.304H9.45094C10.1789 19.304 10.7949 19.1547 11.2989 18.856C11.8029 18.5387 12.1856 18.1373 12.4469 17.652C12.7269 17.148 12.8669 16.6253 12.8669 16.084C12.8669 15.5427 12.7269 15.0293 12.4469 14.544C12.1856 14.0587 11.8029 13.6573 11.2989 13.34C10.7949 13.0227 10.1789 12.864 9.45094 12.864ZM18.8726 30V15.72H21.7286V17.82H21.8966C22.2139 17.092 22.7553 16.4947 23.5206 16.028C24.3046 15.5427 25.1446 15.3 26.0406 15.3C26.4326 15.3 26.7593 15.328 27.0206 15.384C27.3006 15.44 27.5526 15.5053 27.7766 15.58V18.716C27.4219 18.5667 27.0579 18.4453 26.6846 18.352C26.3299 18.2587 25.9566 18.212 25.5646 18.212C24.8553 18.212 24.2206 18.408 23.6606 18.8C23.1193 19.1733 22.6899 19.6867 22.3726 20.34C22.0553 20.9747 21.8966 21.6747 21.8966 22.44V30H18.8726ZM36.0872 30.448C34.6872 30.448 33.4366 30.1213 32.3352 29.468C31.2339 28.8147 30.3659 27.9187 29.7312 26.78C29.1152 25.6413 28.8072 24.344 28.8072 22.888C28.8072 21.5253 29.1059 20.2653 29.7032 19.108C30.3006 17.9507 31.1312 17.0267 32.1952 16.336C33.2779 15.6267 34.5192 15.272 35.9192 15.272C37.3939 15.272 38.6446 15.5893 39.6712 16.224C40.7166 16.8587 41.5099 17.7267 42.0512 18.828C42.5926 19.9293 42.8632 21.1707 42.8632 22.552C42.8632 22.7573 42.8539 22.944 42.8352 23.112C42.8352 23.28 42.8259 23.4107 42.8072 23.504H31.7752C31.9246 24.9227 32.4192 25.9867 33.2592 26.696C34.1179 27.4053 35.0886 27.76 36.1712 27.76C37.1419 27.76 37.9446 27.5453 38.5792 27.116C39.2139 26.668 39.7179 26.1173 40.0912 25.464L42.5832 26.668C41.9672 27.788 41.1272 28.7027 40.0632 29.412C38.9992 30.1027 37.6739 30.448 36.0872 30.448ZM35.9472 17.848C34.9392 17.848 34.0806 18.156 33.3712 18.772C32.6619 19.388 32.1859 20.2093 31.9432 21.236H39.8672C39.8299 20.7507 39.6712 20.2467 39.3912 19.724C39.1112 19.2013 38.6819 18.7627 38.1032 18.408C37.5432 18.0347 36.8246 17.848 35.9472 17.848ZM45.9687 30V15.72H48.8247V17.68H48.9927C49.4034 16.9893 50.01 16.42 50.8127 15.972C51.634 15.5053 52.53 15.272 53.5007 15.272C55.2554 15.272 56.5714 15.7947 57.4487 16.84C58.326 17.8853 58.7647 19.2667 58.7647 20.984V30H55.7687V21.376C55.7687 20.2187 55.4794 19.3787 54.9007 18.856C54.322 18.3147 53.566 18.044 52.6327 18.044C51.9047 18.044 51.27 18.2493 50.7287 18.66C50.1874 19.052 49.758 19.5747 49.4407 20.228C49.142 20.8813 48.9927 21.5813 48.9927 22.328V30H45.9687ZM69.2309 30.448C67.7562 30.448 66.4589 30.112 65.3389 29.44C64.2189 28.768 63.3415 27.8627 62.7069 26.724C62.0722 25.5853 61.7549 24.2973 61.7549 22.86C61.7549 21.4413 62.0722 20.1627 62.7069 19.024C63.3415 17.8667 64.2189 16.952 65.3389 16.28C66.4589 15.608 67.7562 15.272 69.2309 15.272C70.6869 15.272 71.9749 15.608 73.0949 16.28C74.2149 16.952 75.0922 17.8667 75.7269 19.024C76.3615 20.1627 76.6789 21.4413 76.6789 22.86C76.6789 24.2973 76.3615 25.5853 75.7269 26.724C75.0922 27.8627 74.2149 28.768 73.0949 29.44C71.9749 30.112 70.6869 30.448 69.2309 30.448ZM69.2309 27.676C70.0149 27.676 70.7429 27.4893 71.4149 27.116C72.0869 26.724 72.6282 26.1733 73.0389 25.464C73.4682 24.736 73.6829 23.868 73.6829 22.86C73.6829 21.852 73.4682 20.9933 73.0389 20.284C72.6282 19.556 72.0869 19.0053 71.4149 18.632C70.7429 18.24 70.0149 18.044 69.2309 18.044C68.4469 18.044 67.7095 18.24 67.0189 18.632C66.3469 19.0053 65.7962 19.556 65.3669 20.284C64.9562 20.9933 64.7509 21.852 64.7509 22.86C64.7509 23.868 64.9562 24.736 65.3669 25.464C65.7962 26.1733 66.3469 26.724 67.0189 27.116C67.7095 27.4893 68.4469 27.676 69.2309 27.676ZM80.8658 25.856V18.352H78.3738V15.72H80.8658V11.688H83.8898V15.72H87.3898V18.352H83.8898V25.212C83.8898 25.9213 84.0298 26.4627 84.3098 26.836C84.6085 27.2093 85.1032 27.396 85.7938 27.396C86.1485 27.396 86.4472 27.3493 86.6898 27.256C86.9512 27.1627 87.2125 27.032 87.4738 26.864V29.804C87.1565 29.9347 86.8205 30.0373 86.4658 30.112C86.1112 30.1867 85.6912 30.224 85.2058 30.224C83.8805 30.224 82.8258 29.8413 82.0418 29.076C81.2578 28.292 80.8658 27.2187 80.8658 25.856ZM94.7979 30.448C93.7712 30.448 92.8566 30.252 92.0539 29.86C91.2512 29.4493 90.6259 28.88 90.1779 28.152C89.7299 27.424 89.5059 26.5933 89.5059 25.66C89.5059 24.652 89.7672 23.7933 90.2899 23.084C90.8312 22.356 91.5499 21.8053 92.4459 21.432C93.3419 21.0587 94.3312 20.872 95.4139 20.872C96.3099 20.872 97.0939 20.956 97.7659 21.124C98.4566 21.292 98.9792 21.4693 99.3339 21.656V20.9C99.3339 19.9667 98.9979 19.22 98.3259 18.66C97.6539 18.1 96.7859 17.82 95.7219 17.82C94.9939 17.82 94.3032 17.988 93.6499 18.324C92.9966 18.6413 92.4739 19.08 92.0819 19.64L90.0099 18.044C90.6259 17.1853 91.4379 16.5133 92.4459 16.028C93.4726 15.524 94.5926 15.272 95.8059 15.272C97.8779 15.272 99.4739 15.7853 100.594 16.812C101.714 17.82 102.274 19.2387 102.274 21.068V30H99.3339V28.236H99.1659C98.7926 28.8147 98.2326 29.328 97.4859 29.776C96.7392 30.224 95.8432 30.448 94.7979 30.448ZM95.3299 27.984C96.1139 27.984 96.8046 27.7973 97.4019 27.424C97.9992 27.0507 98.4659 26.5653 98.8019 25.968C99.1566 25.352 99.3339 24.6893 99.3339 23.98C98.9046 23.7373 98.4006 23.5413 97.8219 23.392C97.2432 23.224 96.6272 23.14 95.9739 23.14C94.7419 23.14 93.8646 23.392 93.3419 23.896C92.8192 24.3813 92.5579 24.9787 92.5579 25.688C92.5579 26.36 92.8099 26.9107 93.3139 27.34C93.8179 27.7693 94.4899 27.984 95.3299 27.984ZM119.346 30.448C117.909 30.448 116.64 30.1213 115.538 29.468C114.437 28.8147 113.569 27.9187 112.934 26.78C112.3 25.6227 111.982 24.316 111.982 22.86C111.982 21.404 112.3 20.1067 112.934 18.968C113.569 17.8107 114.437 16.9053 115.538 16.252C116.64 15.5987 117.909 15.272 119.346 15.272C120.933 15.272 122.268 15.6267 123.35 16.336C124.452 17.0453 125.236 18.0067 125.702 19.22L122.958 20.34C122.305 18.8093 121.082 18.044 119.29 18.044C118.506 18.044 117.788 18.2493 117.134 18.66C116.481 19.052 115.958 19.612 115.566 20.34C115.174 21.0493 114.978 21.8893 114.978 22.86C114.978 23.8307 115.174 24.68 115.566 25.408C115.958 26.136 116.481 26.696 117.134 27.088C117.788 27.48 118.506 27.676 119.29 27.676C120.205 27.676 120.98 27.4707 121.614 27.06C122.249 26.6307 122.744 26.052 123.098 25.324L125.786 26.5C125.282 27.6387 124.48 28.5813 123.378 29.328C122.277 30.0747 120.933 30.448 119.346 30.448ZM135.262 30.448C133.787 30.448 132.49 30.112 131.37 29.44C130.25 28.768 129.373 27.8627 128.738 26.724C128.103 25.5853 127.786 24.2973 127.786 22.86C127.786 21.4413 128.103 20.1627 128.738 19.024C129.373 17.8667 130.25 16.952 131.37 16.28C132.49 15.608 133.787 15.272 135.262 15.272C136.718 15.272 138.006 15.608 139.126 16.28C140.246 16.952 141.123 17.8667 141.758 19.024C142.393 20.1627 142.71 21.4413 142.71 22.86C142.71 24.2973 142.393 25.5853 141.758 26.724C141.123 27.8627 140.246 28.768 139.126 29.44C138.006 30.112 136.718 30.448 135.262 30.448ZM135.262 27.676C136.046 27.676 136.774 27.4893 137.446 27.116C138.118 26.724 138.659 26.1733 139.07 25.464C139.499 24.736 139.714 23.868 139.714 22.86C139.714 21.852 139.499 20.9933 139.07 20.284C138.659 19.556 138.118 19.0053 137.446 18.632C136.774 18.24 136.046 18.044 135.262 18.044C134.478 18.044 133.741 18.24 133.05 18.632C132.378 19.0053 131.827 19.556 131.398 20.284C130.987 20.9933 130.782 21.852 130.782 22.86C130.782 23.868 130.987 24.736 131.398 25.464C131.827 26.1733 132.378 26.724 133.05 27.116C133.741 27.4893 134.478 27.676 135.262 27.676ZM145.522 30V15.72H148.378V17.68H148.546C148.956 16.9893 149.563 16.42 150.366 15.972C151.187 15.5053 152.083 15.272 153.054 15.272C154.808 15.272 156.124 15.7947 157.002 16.84C157.879 17.8853 158.318 19.2667 158.318 20.984V30H155.322V21.376C155.322 20.2187 155.032 19.3787 154.454 18.856C153.875 18.3147 153.119 18.044 152.186 18.044C151.458 18.044 150.823 18.2493 150.282 18.66C149.74 19.052 149.311 19.5747 148.994 20.228C148.695 20.8813 148.546 21.5813 148.546 22.328V30H145.522Z" fill="white"/>
<g id="GPay Logo (Dark)">
<g id="GPay">
<g id="Pay">
<path id="Fill 1" fill-rule="evenodd" clip-rule="evenodd" d="M210.529 9.34665V17.5128H215.565C216.765 17.5128 217.757 17.1096 218.541 16.3032C219.347 15.4988 219.75 14.5394 219.75 13.4288C219.75 12.3406 219.347 11.3924 218.541 10.586C217.757 9.75916 216.765 9.34479 215.565 9.34479H210.529V9.34665ZM210.529 20.3872V29.8599H207.521V6.47218H215.499C217.527 6.47218 219.248 7.14787 220.666 8.49738C222.105 9.84688 222.824 11.4913 222.824 13.4288C222.824 15.411 222.105 17.0667 220.666 18.3938C219.27 19.7227 217.547 20.3854 215.499 20.3854H210.529V20.3872Z" fill="white"/>
<path id="Fill 3" fill-rule="evenodd" clip-rule="evenodd" d="M225.864 24.9602C225.864 25.7442 226.197 26.3975 226.862 26.9201C227.527 27.4427 228.306 27.704 229.2 27.704C230.465 27.704 231.591 27.2354 232.584 26.3004C233.576 25.3634 234.071 24.264 234.071 23.0022C233.133 22.2612 231.825 21.8916 230.147 21.8916C228.925 21.8916 227.907 22.1866 227.09 22.7745C226.273 23.3623 225.864 24.0886 225.864 24.9602ZM229.756 13.3317C231.98 13.3317 233.735 13.9253 235.022 15.1124C236.308 16.2995 236.95 17.9271 236.95 19.9952V29.8599H234.073V27.6387H233.942C232.699 29.4677 231.042 30.3825 228.972 30.3825C227.206 30.3825 225.728 29.8599 224.541 28.8146C223.353 27.7694 222.759 26.4628 222.759 24.8949C222.759 23.2393 223.385 21.9232 224.638 20.9434C225.892 19.9635 227.565 19.4726 229.658 19.4726C231.444 19.4726 232.916 19.7993 234.071 20.4525V19.7657C234.071 18.7204 233.656 17.8338 232.829 17.104C231.999 16.3742 231.031 16.0102 229.919 16.0102C228.239 16.0102 226.911 16.7176 225.93 18.1343L223.28 16.4675C224.741 14.377 226.899 13.3317 229.756 13.3317Z" fill="white"/>
<path id="Fill 5" fill-rule="evenodd" clip-rule="evenodd" d="M253.463 13.8543L243.424 36.9154H240.318L244.046 28.8464L237.44 13.8543H240.71L245.484 25.3522H245.55L250.193 13.8543H253.463Z" fill="white"/>
</g>
<g id="G">
<path id="Fill 8" fill-rule="evenodd" clip-rule="evenodd" d="M198.373 18.3452C198.373 17.3989 198.293 16.4861 198.141 15.6126H185.454V20.7885H192.72C192.408 22.4757 191.465 23.9112 190.033 24.8725V28.2341H194.37C196.91 25.8935 198.373 22.4348 198.373 18.3452Z" fill="#4285F4"/>
<path id="Fill 10" fill-rule="evenodd" clip-rule="evenodd" d="M185.454 31.4782C189.084 31.4782 192.141 30.2873 194.37 28.2341L190.033 24.8725C188.826 25.6844 187.272 26.1585 185.454 26.1585C181.944 26.1585 178.966 23.7955 177.901 20.6112H173.433V24.0736C175.647 28.4637 180.197 31.4782 185.454 31.4782Z" fill="#34A853"/>
<path id="Fill 12" fill-rule="evenodd" clip-rule="evenodd" d="M177.901 20.6111C177.628 19.7992 177.479 18.9331 177.479 18.0391C177.479 17.145 177.628 16.2789 177.901 15.467V12.0045H173.433C172.518 13.8188 172 15.8683 172 18.0391C172 20.2098 172.518 22.2595 173.433 24.0736L177.901 20.6111Z" fill="#FABB05"/>
<path id="Fill 14" fill-rule="evenodd" clip-rule="evenodd" d="M185.454 9.91964C187.436 9.91964 189.213 10.6009 190.615 11.9355V11.9374L194.455 8.10163C192.123 5.93272 189.082 4.60001 185.454 4.60001C180.197 4.60001 175.647 7.61447 173.433 12.0046L177.901 15.467C178.966 12.2827 181.944 9.91964 185.454 9.91964Z" fill="#E94235"/>
</g>
</g>
</g>
</g>
</svg>
