<svg width="146" height="21" viewBox="0 0 146 21" fill="none" xmlns="http://www.w3.org/2000/svg">
<g id="it_book_with_Pay_NBG">
<path id="Left Text" d="M2.20225 15.0006V3.54461H6.13825C6.83158 3.54461 7.46092 3.69394 8.02625 3.99261C8.59158 4.28061 9.03958 4.69128 9.37025 5.22461C9.71158 5.74728 9.88225 6.35528 9.88225 7.04861C9.88225 7.73128 9.71158 8.33928 9.37025 8.87261C9.03958 9.40594 8.59158 9.82194 8.02625 10.1206C7.46092 10.4086 6.83158 10.5526 6.13825 10.5526H3.96225V15.0006H2.20225ZM3.96225 8.88861H6.18625C6.60225 8.88861 6.95425 8.80328 7.24225 8.63261C7.53025 8.45128 7.74892 8.22194 7.89825 7.94461C8.05825 7.65661 8.13825 7.35794 8.13825 7.04861C8.13825 6.73928 8.05825 6.44594 7.89825 6.16861C7.74892 5.89128 7.53025 5.66194 7.24225 5.48061C6.95425 5.29928 6.60225 5.20861 6.18625 5.20861H3.96225V8.88861ZM11.5486 15.0006V6.84061H13.1806V8.04061H13.2766C13.4046 7.76328 13.586 7.51794 13.8206 7.30461C14.066 7.09128 14.3433 6.92061 14.6526 6.79261C14.9726 6.66461 15.3033 6.60061 15.6446 6.60061C15.8686 6.60061 16.0553 6.61661 16.2046 6.64861C16.3646 6.66994 16.5086 6.70728 16.6366 6.76061V8.55261C16.434 8.46728 16.226 8.39794 16.0126 8.34461C15.81 8.29128 15.5966 8.26461 15.3726 8.26461C14.9673 8.26461 14.6046 8.37661 14.2846 8.60061C13.9753 8.81394 13.73 9.10194 13.5486 9.46461C13.3673 9.82728 13.2766 10.2326 13.2766 10.6806V15.0006H11.5486ZM21.3641 15.2566C20.5641 15.2566 19.8495 15.0699 19.2201 14.6966C18.5908 14.3233 18.0948 13.8113 17.7321 13.1606C17.3801 12.5099 17.2041 11.7686 17.2041 10.9366C17.2041 10.1579 17.3748 9.43794 17.7161 8.77661C18.0575 8.11528 18.5321 7.58728 19.1401 7.19261C19.7588 6.78728 20.4681 6.58461 21.2681 6.58461C22.1108 6.58461 22.8255 6.76594 23.4121 7.12861C24.0095 7.49128 24.4628 7.98728 24.7721 8.61661C25.0815 9.24594 25.2361 9.95528 25.2361 10.7446C25.2361 10.8619 25.2308 10.9686 25.2201 11.0646C25.2201 11.1606 25.2148 11.2353 25.2041 11.2886H18.9001C18.9428 11.7366 19.0548 12.1259 19.2361 12.4566C19.4708 12.8726 19.7801 13.1873 20.1641 13.4006C20.5481 13.6139 20.9641 13.7206 21.4121 13.7206C21.9561 13.7206 22.4095 13.5979 22.7721 13.3526C23.1455 13.0966 23.4388 12.7819 23.6521 12.4086L25.0761 13.0966C24.7241 13.7366 24.2441 14.2593 23.6361 14.6646C23.0281 15.0593 22.2708 15.2566 21.3641 15.2566ZM18.9961 9.99261H23.5241C23.5135 9.78994 23.4601 9.57661 23.3641 9.35261C23.2681 9.11794 23.1295 8.90461 22.9481 8.71261C22.7668 8.52061 22.5375 8.36594 22.2601 8.24861C21.9828 8.12061 21.6575 8.05661 21.2841 8.05661C20.8148 8.05661 20.3988 8.17928 20.0361 8.42461C19.6735 8.65928 19.3908 8.98994 19.1881 9.41661C19.1028 9.59794 19.0388 9.78994 18.9961 9.99261ZM26.9893 15.0006V6.84061H28.6213V7.96061H28.7173C28.9519 7.56594 29.2986 7.24061 29.7573 6.98461C30.2266 6.71794 30.7386 6.58461 31.2933 6.58461C32.2959 6.58461 33.0479 6.88328 33.5493 7.48061C34.0506 8.06728 34.3013 8.85661 34.3013 9.84861V15.0006H32.5893V10.0726C32.5893 9.41128 32.4239 8.93128 32.0933 8.63261C31.7626 8.32328 31.3306 8.16861 30.7973 8.16861C30.3813 8.16861 30.0186 8.28594 29.7093 8.52061C29.3999 8.74461 29.1546 9.04328 28.9733 9.41661C28.8026 9.78994 28.7173 10.1899 28.7173 10.6166V15.0006H26.9893ZM40.2605 15.2566C39.4178 15.2566 38.6765 15.0646 38.0365 14.6806C37.3965 14.2966 36.8952 13.7793 36.5325 13.1286C36.1698 12.4673 35.9885 11.7313 35.9885 10.9206C35.9885 10.1099 36.1698 9.37928 36.5325 8.72861C36.8952 8.06728 37.3965 7.54461 38.0365 7.16061C38.6765 6.77661 39.4178 6.58461 40.2605 6.58461C41.0925 6.58461 41.8285 6.78194 42.4685 7.17661C43.1085 7.56061 43.6098 8.07794 43.9725 8.72861C44.3352 9.37928 44.5165 10.1099 44.5165 10.9206C44.5165 11.7313 44.3352 12.4673 43.9725 13.1286C43.6098 13.7793 43.1085 14.2966 42.4685 14.6806C41.8285 15.0646 41.0925 15.2566 40.2605 15.2566ZM40.2605 13.6726C40.7085 13.6726 41.1245 13.5659 41.5085 13.3526C41.8925 13.1286 42.2018 12.8139 42.4365 12.4086C42.6818 11.9926 42.8045 11.4966 42.8045 10.9206C42.8045 10.3446 42.6818 9.85394 42.4365 9.44861C42.2018 9.03261 41.8925 8.71794 41.5085 8.50461C41.1245 8.28061 40.7085 8.16861 40.2605 8.16861C39.8125 8.16861 39.3912 8.28061 38.9965 8.50461C38.6125 8.71794 38.2978 9.03261 38.0525 9.44861C37.8178 9.85394 37.7005 10.3446 37.7005 10.9206C37.7005 11.4966 37.8178 11.9926 38.0525 12.4086C38.2978 12.8139 38.6178 13.1286 39.0125 13.3526C39.4072 13.5659 39.8232 13.6726 40.2605 13.6726ZM45.4636 6.84061H46.8876V4.53661H48.6156V6.84061H50.6156V8.34461H48.6156V12.2646C48.6156 12.6699 48.6956 12.9793 48.8556 13.1926C49.0263 13.4059 49.309 13.5126 49.7036 13.5126C49.8956 13.5126 50.0663 13.4859 50.2156 13.4326C50.365 13.3686 50.5143 13.2939 50.6636 13.2086V14.8886C50.4823 14.9633 50.2903 15.0219 50.0876 15.0646C49.885 15.1073 49.645 15.1286 49.3676 15.1286C48.6103 15.1286 48.0076 14.9099 47.5596 14.4726C47.1116 14.0246 46.8876 13.4113 46.8876 12.6326V8.34461H45.4636V6.84061ZM54.8274 15.2566C54.2407 15.2566 53.718 15.1393 53.2594 14.9046C52.8114 14.6699 52.454 14.3499 52.1874 13.9446C51.9314 13.5286 51.8034 13.0539 51.8034 12.5206C51.8034 11.9339 51.9527 11.4379 52.2514 11.0326C52.5607 10.6273 52.9714 10.3179 53.4834 10.1046C53.9954 9.89128 54.5607 9.78461 55.1794 9.78461C55.5207 9.78461 55.8354 9.81128 56.1234 9.86461C56.422 9.90728 56.678 9.96061 56.8914 10.0246C57.1154 10.0886 57.2914 10.1579 57.4194 10.2326V9.80061C57.4194 9.26728 57.2274 8.84061 56.8434 8.52061C56.4594 8.20061 55.9634 8.04061 55.3554 8.04061C54.9394 8.04061 54.5447 8.13661 54.1714 8.32861C53.798 8.50994 53.4994 8.76061 53.2754 9.08061L52.0914 8.16861C52.326 7.83794 52.6087 7.55528 52.9394 7.32061C53.2807 7.08594 53.6594 6.90461 54.0754 6.77661C54.502 6.64861 54.9447 6.58461 55.4034 6.58461C56.5874 6.58461 57.4994 6.87794 58.1394 7.46461C58.7794 8.04061 59.0994 8.85128 59.0994 9.89661V15.0006H57.4194V13.9926H57.3234C57.1847 14.2059 56.9927 14.4086 56.7474 14.6006C56.5127 14.7926 56.23 14.9473 55.8994 15.0646C55.5794 15.1926 55.222 15.2566 54.8274 15.2566ZM55.1314 13.8486C55.5794 13.8486 55.974 13.7419 56.3154 13.5286C56.6674 13.3153 56.9394 13.0379 57.1314 12.6966C57.3234 12.3446 57.4194 11.9659 57.4194 11.5606C57.1847 11.4219 56.8967 11.3099 56.5554 11.2246C56.2247 11.1286 55.8727 11.0806 55.4994 11.0806C54.7954 11.0806 54.294 11.2193 53.9954 11.4966C53.6967 11.7739 53.5474 12.1206 53.5474 12.5366C53.5474 12.9206 53.6914 13.2353 53.9794 13.4806C54.2674 13.7259 54.6514 13.8486 55.1314 13.8486ZM68.8121 15.2566C67.9908 15.2566 67.2601 15.0699 66.6201 14.6966C65.9908 14.3233 65.4948 13.8113 65.1321 13.1606C64.7801 12.4993 64.6041 11.7526 64.6041 10.9206C64.6041 10.0886 64.7801 9.34728 65.1321 8.69661C65.4948 8.04594 65.9908 7.53394 66.6201 7.16061C67.2601 6.77661 67.9908 6.58461 68.8121 6.58461C69.7188 6.58461 70.4815 6.78728 71.1001 7.19261C71.7295 7.59794 72.1775 8.14728 72.4441 8.84061L70.8761 9.48061C70.6841 9.04328 70.4068 8.71794 70.0441 8.50461C69.6921 8.28061 69.2708 8.16861 68.7801 8.16861C68.3321 8.16861 67.9215 8.28594 67.5481 8.52061C67.1748 8.74461 66.8761 9.05928 66.6521 9.46461C66.4281 9.86994 66.3161 10.3553 66.3161 10.9206C66.3161 11.4753 66.4281 11.9606 66.6521 12.3766C66.8761 12.7926 67.1748 13.1126 67.5481 13.3366C67.9215 13.5606 68.3321 13.6726 68.7801 13.6726C69.3028 13.6726 69.7455 13.5553 70.1081 13.3206C70.4708 13.0859 70.7535 12.7553 70.9561 12.3286L72.4921 13.0006C72.1935 13.6513 71.7295 14.1899 71.1001 14.6166C70.4815 15.0433 69.7188 15.2566 68.8121 15.2566ZM77.8855 15.2566C77.0428 15.2566 76.3015 15.0646 75.6615 14.6806C75.0215 14.2966 74.5202 13.7793 74.1575 13.1286C73.7948 12.4673 73.6135 11.7313 73.6135 10.9206C73.6135 10.1099 73.7948 9.37928 74.1575 8.72861C74.5202 8.06728 75.0215 7.54461 75.6615 7.16061C76.3015 6.77661 77.0428 6.58461 77.8855 6.58461C78.7175 6.58461 79.4535 6.78194 80.0935 7.17661C80.7335 7.56061 81.2348 8.07794 81.5975 8.72861C81.9602 9.37928 82.1415 10.1099 82.1415 10.9206C82.1415 11.7313 81.9602 12.4673 81.5975 13.1286C81.2348 13.7793 80.7335 14.2966 80.0935 14.6806C79.4535 15.0646 78.7175 15.2566 77.8855 15.2566ZM77.8855 13.6726C78.3335 13.6726 78.7495 13.5659 79.1335 13.3526C79.5175 13.1286 79.8268 12.8139 80.0615 12.4086C80.3068 11.9926 80.4295 11.4966 80.4295 10.9206C80.4295 10.3446 80.3068 9.85394 80.0615 9.44861C79.8268 9.03261 79.5175 8.71794 79.1335 8.50461C78.7495 8.28061 78.3335 8.16861 77.8855 8.16861C77.4375 8.16861 77.0162 8.28061 76.6215 8.50461C76.2375 8.71794 75.9228 9.03261 75.6775 9.44861C75.4428 9.85394 75.3255 10.3446 75.3255 10.9206C75.3255 11.4966 75.4428 11.9926 75.6775 12.4086C75.9228 12.8139 76.2428 13.1286 76.6375 13.3526C77.0322 13.5659 77.4482 13.6726 77.8855 13.6726ZM83.7268 15.0006V6.84061H85.3588V7.96061H85.4548C85.6894 7.56594 86.0361 7.24061 86.4948 6.98461C86.9641 6.71794 87.4761 6.58461 88.0308 6.58461C89.0334 6.58461 89.7854 6.88328 90.2868 7.48061C90.7881 8.06728 91.0388 8.85661 91.0388 9.84861V15.0006H89.3268V10.0726C89.3268 9.41128 89.1614 8.93128 88.8308 8.63261C88.5001 8.32328 88.0681 8.16861 87.5348 8.16861C87.1188 8.16861 86.7561 8.28594 86.4468 8.52061C86.1374 8.74461 85.8921 9.04328 85.7108 9.41661C85.5401 9.78994 85.4548 10.1899 85.4548 10.6166V15.0006H83.7268Z" fill="white"/>
<g id="GPay (Dark)">
<g id="GPay">
<g id="Pay">
<path id="Fill 1" fill-rule="evenodd" clip-rule="evenodd" d="M120.356 3.42339V8.16175H123.278C123.974 8.16175 124.55 7.92781 125.005 7.45993C125.473 6.99313 125.707 6.43644 125.707 5.79203C125.707 5.16061 125.473 4.61041 125.005 4.14254C124.55 3.66274 123.974 3.4223 123.278 3.4223H120.356V3.42339ZM120.356 9.82966V15.3262H118.611V1.75549H123.24C124.417 1.75549 125.415 2.14756 126.238 2.93061C127.073 3.71365 127.491 4.66782 127.491 5.79203C127.491 6.94224 127.073 7.90291 126.238 8.67296C125.428 9.44409 124.429 9.82858 123.24 9.82858H120.356V9.82966Z" fill="white"/>
<path id="Fill 3" fill-rule="evenodd" clip-rule="evenodd" d="M129.255 12.4831C129.255 12.9379 129.448 13.317 129.834 13.6203C130.22 13.9235 130.672 14.0752 131.19 14.0752C131.924 14.0752 132.578 13.8032 133.153 13.2607C133.729 12.717 134.017 12.0791 134.017 11.3469C133.472 10.917 132.713 10.7025 131.74 10.7025C131.031 10.7025 130.44 10.8736 129.966 11.2148C129.492 11.5559 129.255 11.9773 129.255 12.4831M131.513 5.73566C132.803 5.73566 133.821 6.08007 134.569 6.76889C135.314 7.45771 135.687 8.40213 135.687 9.60216V15.3261H134.018V14.0373H133.942C133.221 15.0985 132.259 15.6294 131.058 15.6294C130.033 15.6294 129.176 15.3261 128.487 14.7196C127.797 14.1131 127.453 13.3549 127.453 12.4452C127.453 11.4845 127.816 10.7208 128.543 10.1523C129.271 9.58375 130.241 9.2989 131.456 9.2989C132.492 9.2989 133.346 9.48844 134.017 9.86751V9.46894C134.017 8.86243 133.776 8.34798 133.296 7.92451C132.814 7.50103 132.252 7.28984 131.607 7.28984C130.633 7.28984 129.862 7.70032 129.293 8.52235L127.755 7.55519C128.603 6.34217 129.855 5.73566 131.513 5.73566" fill="white"/>
<path id="Fill 5" fill-rule="evenodd" clip-rule="evenodd" d="M145.269 6.03894L139.443 19.4201H137.641L139.804 14.738L135.971 6.03894H137.869L140.639 12.7106H140.677L143.371 6.03894H145.269Z" fill="white"/>
</g>
<g id="G">
<path id="Fill 8" fill-rule="evenodd" clip-rule="evenodd" d="M113.303 8.64473C113.303 8.09563 113.256 7.56601 113.168 7.05914H105.806V10.0625H110.023C109.842 11.0414 109.294 11.8744 108.464 12.4322V14.3828H110.98C112.454 13.0246 113.303 11.0177 113.303 8.64473" fill="#4285F4"/>
<path id="Fill 10" fill-rule="evenodd" clip-rule="evenodd" d="M105.806 16.2651C107.913 16.2651 109.687 15.5741 110.98 14.3828L108.464 12.4322C107.763 12.9033 106.861 13.1784 105.806 13.1784C103.77 13.1784 102.042 11.8073 101.424 9.95959H98.8316V11.9687C100.116 14.516 102.757 16.2651 105.806 16.2651" fill="#34A853"/>
<path id="Fill 12" fill-rule="evenodd" clip-rule="evenodd" d="M101.424 9.9596C101.266 9.48847 101.179 8.98593 101.179 8.46715C101.179 7.94837 101.266 7.44583 101.424 6.9747V4.96564H98.8316C98.3003 6.01837 98 7.20756 98 8.46715C98 9.72674 98.3003 10.916 98.8316 11.9687L101.424 9.9596Z" fill="#FABB05"/>
<path id="Fill 14" fill-rule="evenodd" clip-rule="evenodd" d="M105.806 3.75583C106.957 3.75583 107.988 4.15115 108.801 4.92553V4.92661L111.029 2.70094C109.676 1.44243 107.912 0.669128 105.806 0.669128C102.757 0.669128 100.116 2.41826 98.8316 4.9656L101.424 6.97467C102.042 5.12698 103.77 3.75583 105.806 3.75583" fill="#E94235"/>
</g>
</g>
</g>
</g>
</svg>
