<svg width="153" height="21" viewBox="0 0 153 21" fill="none" xmlns="http://www.w3.org/2000/svg">
<g id="it_buy_with_Pay_NBG">
<path id="Left Text" d="M0.730623 15.0006L5.05062 3.54461H7.05062L11.3866 15.0006H9.45062L8.39462 12.0566H3.72262L2.66662 15.0006H0.730623ZM7.80262 10.4246L6.53862 6.92061L6.10662 5.60861H6.01062L5.57862 6.92061L4.31462 10.4246H7.80262ZM16.3309 15.2566C15.5095 15.2566 14.7789 15.0699 14.1389 14.6966C13.5095 14.3233 13.0135 13.8113 12.6509 13.1606C12.2989 12.4993 12.1229 11.7526 12.1229 10.9206C12.1229 10.0886 12.2989 9.34728 12.6509 8.69661C13.0135 8.04594 13.5095 7.53394 14.1389 7.16061C14.7789 6.77661 15.5095 6.58461 16.3309 6.58461C17.2375 6.58461 18.0002 6.78728 18.6189 7.19261C19.2482 7.59794 19.6962 8.14728 19.9629 8.84061L18.3949 9.48061C18.2029 9.04328 17.9255 8.71794 17.5629 8.50461C17.2109 8.28061 16.7895 8.16861 16.2989 8.16861C15.8509 8.16861 15.4402 8.28594 15.0669 8.52061C14.6935 8.74461 14.3949 9.05928 14.1709 9.46461C13.9469 9.86994 13.8349 10.3553 13.8349 10.9206C13.8349 11.4753 13.9469 11.9606 14.1709 12.3766C14.3949 12.7926 14.6935 13.1126 15.0669 13.3366C15.4402 13.5606 15.8509 13.6726 16.2989 13.6726C16.8215 13.6726 17.2642 13.5553 17.6269 13.3206C17.9895 13.0859 18.2722 12.7553 18.4749 12.3286L20.0109 13.0006C19.7122 13.6513 19.2482 14.1899 18.6189 14.6166C18.0002 15.0433 17.2375 15.2566 16.3309 15.2566ZM27.6762 18.4566V15.0486L27.7722 13.9126H27.6762C27.5376 14.1366 27.3402 14.3553 27.0842 14.5686C26.8389 14.7713 26.5456 14.9366 26.2042 15.0646C25.8629 15.1926 25.4789 15.2566 25.0522 15.2566C24.3162 15.2566 23.6496 15.0699 23.0522 14.6966C22.4549 14.3233 21.9856 13.8113 21.6442 13.1606C21.3029 12.5099 21.1322 11.7633 21.1322 10.9206C21.1322 10.0779 21.3029 9.33128 21.6442 8.68061C21.9856 8.02994 22.4549 7.51794 23.0522 7.14461C23.6496 6.77128 24.3162 6.58461 25.0522 6.58461C25.4789 6.58461 25.8629 6.64861 26.2042 6.77661C26.5456 6.90461 26.8389 7.07528 27.0842 7.28861C27.3402 7.49128 27.5376 7.70994 27.6762 7.94461H27.7722V6.84061H29.3882V18.4566H27.6762ZM25.3082 13.6726C25.7349 13.6726 26.1349 13.5606 26.5082 13.3366C26.8922 13.1126 27.1962 12.7979 27.4202 12.3926C27.6549 11.9766 27.7722 11.4859 27.7722 10.9206C27.7722 10.3553 27.6549 9.86994 27.4202 9.46461C27.1962 9.04861 26.8922 8.72861 26.5082 8.50461C26.1349 8.28061 25.7349 8.16861 25.3082 8.16861C24.8816 8.16861 24.4816 8.28061 24.1082 8.50461C23.7349 8.72861 23.4309 9.04861 23.1962 9.46461C22.9616 9.86994 22.8442 10.3553 22.8442 10.9206C22.8442 11.4753 22.9616 11.9606 23.1962 12.3766C23.4309 12.7926 23.7349 13.1126 24.1082 13.3366C24.4816 13.5606 24.8816 13.6726 25.3082 13.6726ZM34.5024 15.2566C33.4997 15.2566 32.7424 14.9579 32.2304 14.3606C31.729 13.7526 31.4784 12.9313 31.4784 11.8966V6.84061H33.2064V11.6566C33.2064 12.3393 33.3664 12.8459 33.6864 13.1766C34.017 13.5073 34.4277 13.6726 34.9184 13.6726C35.3664 13.6726 35.7504 13.5606 36.0704 13.3366C36.3904 13.1019 36.6357 12.7979 36.8064 12.4246C36.9877 12.0513 37.0784 11.6513 37.0784 11.2246V6.84061H38.7904V15.0006H37.1744V13.8966H37.0784C36.929 14.1526 36.721 14.3819 36.4544 14.5846C36.1877 14.7873 35.889 14.9473 35.5584 15.0646C35.2277 15.1926 34.8757 15.2566 34.5024 15.2566ZM41.1016 15.0006V6.84061H42.8296V15.0006H41.1016ZM41.9656 5.64061C41.6456 5.64061 41.3683 5.52861 41.1336 5.30461C40.9096 5.06994 40.7976 4.79261 40.7976 4.47261C40.7976 4.14194 40.9096 3.86994 41.1336 3.65661C41.3683 3.43261 41.6456 3.32061 41.9656 3.32061C42.2963 3.32061 42.5736 3.43261 42.7976 3.65661C43.0216 3.86994 43.1336 4.14194 43.1336 4.47261C43.1336 4.79261 43.0216 5.06994 42.7976 5.30461C42.5736 5.52861 42.2963 5.64061 41.9656 5.64061ZM48.0996 15.2566C47.449 15.2566 46.8836 15.1606 46.4036 14.9686C45.9236 14.7659 45.529 14.4993 45.2196 14.1686C44.9103 13.8273 44.681 13.4593 44.5316 13.0646L46.0836 12.3926C46.2756 12.8299 46.5476 13.1659 46.8996 13.4006C47.2623 13.6246 47.6783 13.7366 48.1476 13.7366C48.5743 13.7366 48.9423 13.6619 49.2516 13.5126C49.561 13.3526 49.7156 13.0966 49.7156 12.7446C49.7156 12.5206 49.641 12.3393 49.4916 12.2006C49.353 12.0513 49.161 11.9286 48.9156 11.8326C48.681 11.7366 48.409 11.6513 48.0996 11.5766L47.1236 11.3526C46.7396 11.2566 46.3716 11.1073 46.0196 10.9046C45.6783 10.6913 45.401 10.4246 45.1876 10.1046C44.9743 9.78461 44.8676 9.40594 44.8676 8.96861C44.8676 8.47794 45.0063 8.05661 45.2836 7.70461C45.5716 7.34194 45.9556 7.06461 46.4356 6.87261C46.9156 6.68061 47.433 6.58461 47.9876 6.58461C48.4996 6.58461 48.9636 6.65394 49.3796 6.79261C49.8063 6.92061 50.1743 7.11794 50.4836 7.38461C50.8036 7.64061 51.0543 7.96061 51.2356 8.34461L49.7476 9.01661C49.5663 8.65394 49.321 8.40328 49.0116 8.26461C48.7023 8.11528 48.3663 8.04061 48.0036 8.04061C47.5983 8.04061 47.257 8.12594 46.9796 8.29661C46.713 8.45661 46.5796 8.66994 46.5796 8.93661C46.5796 9.21394 46.697 9.43261 46.9316 9.59261C47.177 9.75261 47.4756 9.88061 47.8276 9.97661L49.0116 10.2646C49.8223 10.4673 50.4303 10.7766 50.8356 11.1926C51.241 11.5979 51.4436 12.0939 51.4436 12.6806C51.4436 13.2033 51.2943 13.6619 50.9956 14.0566C50.697 14.4406 50.2916 14.7393 49.7796 14.9526C49.2783 15.1553 48.7183 15.2566 48.0996 15.2566ZM52.4636 6.84061H53.8876V4.53661H55.6156V6.84061H57.6156V8.34461H55.6156V12.2646C55.6156 12.6699 55.6956 12.9793 55.8556 13.1926C56.0263 13.4059 56.309 13.5126 56.7036 13.5126C56.8956 13.5126 57.0663 13.4859 57.2156 13.4326C57.365 13.3686 57.5143 13.2939 57.6636 13.2086V14.8886C57.4823 14.9633 57.2903 15.0219 57.0876 15.0646C56.885 15.1073 56.645 15.1286 56.3676 15.1286C55.6103 15.1286 55.0076 14.9099 54.5596 14.4726C54.1116 14.0246 53.8876 13.4113 53.8876 12.6326V8.34461H52.4636V6.84061ZM61.8274 15.2566C61.2407 15.2566 60.718 15.1393 60.2594 14.9046C59.8114 14.6699 59.454 14.3499 59.1874 13.9446C58.9314 13.5286 58.8034 13.0539 58.8034 12.5206C58.8034 11.9339 58.9527 11.4379 59.2514 11.0326C59.5607 10.6273 59.9714 10.3179 60.4834 10.1046C60.9954 9.89128 61.5607 9.78461 62.1794 9.78461C62.5207 9.78461 62.8354 9.81128 63.1234 9.86461C63.422 9.90728 63.678 9.96061 63.8914 10.0246C64.1154 10.0886 64.2914 10.1579 64.4194 10.2326V9.80061C64.4194 9.26728 64.2274 8.84061 63.8434 8.52061C63.4594 8.20061 62.9634 8.04061 62.3554 8.04061C61.9394 8.04061 61.5447 8.13661 61.1714 8.32861C60.798 8.50994 60.4994 8.76061 60.2754 9.08061L59.0914 8.16861C59.326 7.83794 59.6087 7.55528 59.9394 7.32061C60.2807 7.08594 60.6594 6.90461 61.0754 6.77661C61.502 6.64861 61.9447 6.58461 62.4034 6.58461C63.5874 6.58461 64.4994 6.87794 65.1394 7.46461C65.7794 8.04061 66.0994 8.85128 66.0994 9.89661V15.0006H64.4194V13.9926H64.3234C64.1847 14.2059 63.9927 14.4086 63.7474 14.6006C63.5127 14.7926 63.23 14.9473 62.8994 15.0646C62.5794 15.1926 62.222 15.2566 61.8274 15.2566ZM62.1314 13.8486C62.5794 13.8486 62.974 13.7419 63.3154 13.5286C63.6674 13.3153 63.9394 13.0379 64.1314 12.6966C64.3234 12.3446 64.4194 11.9659 64.4194 11.5606C64.1847 11.4219 63.8967 11.3099 63.5554 11.2246C63.2247 11.1286 62.8727 11.0806 62.4994 11.0806C61.7954 11.0806 61.294 11.2193 60.9954 11.4966C60.6967 11.7739 60.5474 12.1206 60.5474 12.5366C60.5474 12.9206 60.6914 13.2353 60.9794 13.4806C61.2674 13.7259 61.6514 13.8486 62.1314 13.8486ZM75.8121 15.2566C74.9908 15.2566 74.2601 15.0699 73.6201 14.6966C72.9908 14.3233 72.4948 13.8113 72.1321 13.1606C71.7801 12.4993 71.6041 11.7526 71.6041 10.9206C71.6041 10.0886 71.7801 9.34728 72.1321 8.69661C72.4948 8.04594 72.9908 7.53394 73.6201 7.16061C74.2601 6.77661 74.9908 6.58461 75.8121 6.58461C76.7188 6.58461 77.4815 6.78728 78.1001 7.19261C78.7295 7.59794 79.1775 8.14728 79.4441 8.84061L77.8761 9.48061C77.6841 9.04328 77.4068 8.71794 77.0441 8.50461C76.6921 8.28061 76.2708 8.16861 75.7801 8.16861C75.3321 8.16861 74.9215 8.28594 74.5481 8.52061C74.1748 8.74461 73.8761 9.05928 73.6521 9.46461C73.4281 9.86994 73.3161 10.3553 73.3161 10.9206C73.3161 11.4753 73.4281 11.9606 73.6521 12.3766C73.8761 12.7926 74.1748 13.1126 74.5481 13.3366C74.9215 13.5606 75.3321 13.6726 75.7801 13.6726C76.3028 13.6726 76.7455 13.5553 77.1081 13.3206C77.4708 13.0859 77.7535 12.7553 77.9561 12.3286L79.4921 13.0006C79.1935 13.6513 78.7295 14.1899 78.1001 14.6166C77.4815 15.0433 76.7188 15.2566 75.8121 15.2566ZM84.8855 15.2566C84.0428 15.2566 83.3015 15.0646 82.6615 14.6806C82.0215 14.2966 81.5202 13.7793 81.1575 13.1286C80.7948 12.4673 80.6135 11.7313 80.6135 10.9206C80.6135 10.1099 80.7948 9.37928 81.1575 8.72861C81.5202 8.06728 82.0215 7.54461 82.6615 7.16061C83.3015 6.77661 84.0428 6.58461 84.8855 6.58461C85.7175 6.58461 86.4535 6.78194 87.0935 7.17661C87.7335 7.56061 88.2348 8.07794 88.5975 8.72861C88.9602 9.37928 89.1415 10.1099 89.1415 10.9206C89.1415 11.7313 88.9602 12.4673 88.5975 13.1286C88.2348 13.7793 87.7335 14.2966 87.0935 14.6806C86.4535 15.0646 85.7175 15.2566 84.8855 15.2566ZM84.8855 13.6726C85.3335 13.6726 85.7495 13.5659 86.1335 13.3526C86.5175 13.1286 86.8268 12.8139 87.0615 12.4086C87.3068 11.9926 87.4295 11.4966 87.4295 10.9206C87.4295 10.3446 87.3068 9.85394 87.0615 9.44861C86.8268 9.03261 86.5175 8.71794 86.1335 8.50461C85.7495 8.28061 85.3335 8.16861 84.8855 8.16861C84.4375 8.16861 84.0162 8.28061 83.6215 8.50461C83.2375 8.71794 82.9228 9.03261 82.6775 9.44861C82.4428 9.85394 82.3255 10.3446 82.3255 10.9206C82.3255 11.4966 82.4428 11.9926 82.6775 12.4086C82.9228 12.8139 83.2428 13.1286 83.6375 13.3526C84.0322 13.5659 84.4482 13.6726 84.8855 13.6726ZM90.7268 15.0006V6.84061H92.3588V7.96061H92.4548C92.6894 7.56594 93.0361 7.24061 93.4948 6.98461C93.9641 6.71794 94.4761 6.58461 95.0308 6.58461C96.0334 6.58461 96.7854 6.88328 97.2868 7.48061C97.7881 8.06728 98.0388 8.85661 98.0388 9.84861V15.0006H96.3268V10.0726C96.3268 9.41128 96.1614 8.93128 95.8308 8.63261C95.5001 8.32328 95.0681 8.16861 94.5348 8.16861C94.1188 8.16861 93.7561 8.28594 93.4468 8.52061C93.1374 8.74461 92.8921 9.04328 92.7108 9.41661C92.5401 9.78994 92.4548 10.1899 92.4548 10.6166V15.0006H90.7268Z" fill="white"/>
<g id="GPay (Dark)">
<g id="GPay">
<g id="Pay">
<path id="Fill 1" fill-rule="evenodd" clip-rule="evenodd" d="M127.356 3.42339V8.16175H130.278C130.974 8.16175 131.55 7.92781 132.005 7.45993C132.473 6.99313 132.707 6.43644 132.707 5.79203C132.707 5.16061 132.473 4.61041 132.005 4.14254C131.55 3.66274 130.974 3.4223 130.278 3.4223H127.356V3.42339ZM127.356 9.82966V15.3262H125.611V1.75549H130.24C131.417 1.75549 132.415 2.14756 133.238 2.93061C134.073 3.71365 134.491 4.66782 134.491 5.79203C134.491 6.94224 134.073 7.90291 133.238 8.67296C132.428 9.44409 131.429 9.82858 130.24 9.82858H127.356V9.82966Z" fill="white"/>
<path id="Fill 3" fill-rule="evenodd" clip-rule="evenodd" d="M136.255 12.4831C136.255 12.9379 136.448 13.317 136.834 13.6203C137.22 13.9235 137.672 14.0752 138.19 14.0752C138.924 14.0752 139.578 13.8032 140.153 13.2607C140.729 12.717 141.017 12.0791 141.017 11.3469C140.472 10.917 139.713 10.7025 138.74 10.7025C138.031 10.7025 137.44 10.8736 136.966 11.2148C136.492 11.5559 136.255 11.9773 136.255 12.4831M138.513 5.73566C139.803 5.73566 140.821 6.08007 141.569 6.76889C142.314 7.45771 142.687 8.40213 142.687 9.60216V15.3261H141.018V14.0373H140.942C140.221 15.0985 139.259 15.6294 138.058 15.6294C137.033 15.6294 136.176 15.3261 135.487 14.7196C134.797 14.1131 134.453 13.3549 134.453 12.4452C134.453 11.4845 134.816 10.7208 135.543 10.1523C136.271 9.58375 137.241 9.2989 138.456 9.2989C139.492 9.2989 140.346 9.48844 141.017 9.86751V9.46894C141.017 8.86243 140.776 8.34798 140.296 7.92451C139.814 7.50103 139.252 7.28984 138.607 7.28984C137.633 7.28984 136.862 7.70032 136.293 8.52235L134.755 7.55519C135.603 6.34217 136.855 5.73566 138.513 5.73566" fill="white"/>
<path id="Fill 5" fill-rule="evenodd" clip-rule="evenodd" d="M152.269 6.03894L146.443 19.4201H144.641L146.804 14.738L142.971 6.03894H144.869L147.639 12.7106H147.677L150.371 6.03894H152.269Z" fill="white"/>
</g>
<g id="G">
<path id="Fill 8" fill-rule="evenodd" clip-rule="evenodd" d="M120.303 8.64473C120.303 8.09563 120.256 7.56601 120.168 7.05914H112.806V10.0625H117.023C116.842 11.0414 116.294 11.8744 115.464 12.4322V14.3828H117.98C119.454 13.0246 120.303 11.0177 120.303 8.64473" fill="#4285F4"/>
<path id="Fill 10" fill-rule="evenodd" clip-rule="evenodd" d="M112.806 16.2651C114.913 16.2651 116.687 15.5741 117.98 14.3828L115.464 12.4322C114.763 12.9033 113.861 13.1784 112.806 13.1784C110.77 13.1784 109.042 11.8073 108.424 9.95959H105.832V11.9687C107.116 14.516 109.757 16.2651 112.806 16.2651" fill="#34A853"/>
<path id="Fill 12" fill-rule="evenodd" clip-rule="evenodd" d="M108.424 9.9596C108.266 9.48847 108.179 8.98593 108.179 8.46715C108.179 7.94837 108.266 7.44583 108.424 6.9747V4.96564H105.832C105.3 6.01837 105 7.20756 105 8.46715C105 9.72674 105.3 10.916 105.832 11.9687L108.424 9.9596Z" fill="#FABB05"/>
<path id="Fill 14" fill-rule="evenodd" clip-rule="evenodd" d="M112.806 3.75583C113.957 3.75583 114.988 4.15115 115.801 4.92553V4.92661L118.029 2.70094C116.676 1.44243 114.912 0.669128 112.806 0.669128C109.757 0.669128 107.116 2.41826 105.832 4.9656L108.424 6.97467C109.042 5.12698 110.77 3.75583 112.806 3.75583" fill="#E94235"/>
</g>
</g>
</g>
</g>
</svg>
