<svg width="216" height="21" viewBox="0 0 216 21" fill="none" xmlns="http://www.w3.org/2000/svg">
<g id="it_checkout_with_Pay_NBG">
<path id="Left Text" d="M4.71924 15.0006L0.655244 3.54461H2.57524L5.16724 11.1606L5.56724 12.4566H5.66324L6.09524 11.1606L8.79924 3.54461H10.7192L6.54324 15.0006H4.71924ZM13.868 15.2566C13.2813 15.2566 12.7587 15.1393 12.3 14.9046C11.852 14.6699 11.4947 14.3499 11.228 13.9446C10.972 13.5286 10.844 13.0539 10.844 12.5206C10.844 11.9339 10.9933 11.4379 11.292 11.0326C11.6013 10.6273 12.012 10.3179 12.524 10.1046C13.036 9.89128 13.6013 9.78461 14.22 9.78461C14.5613 9.78461 14.876 9.81128 15.164 9.86461C15.4627 9.90728 15.7187 9.96061 15.932 10.0246C16.156 10.0886 16.332 10.1579 16.46 10.2326V9.80061C16.46 9.26728 16.268 8.84061 15.884 8.52061C15.5 8.20061 15.004 8.04061 14.396 8.04061C13.98 8.04061 13.5853 8.13661 13.212 8.32861C12.8387 8.50994 12.54 8.76061 12.316 9.08061L11.132 8.16861C11.3667 7.83794 11.6493 7.55528 11.98 7.32061C12.3213 7.08594 12.7 6.90461 13.116 6.77661C13.5427 6.64861 13.9853 6.58461 14.444 6.58461C15.628 6.58461 16.54 6.87794 17.18 7.46461C17.82 8.04061 18.14 8.85128 18.14 9.89661V15.0006H16.46V13.9926H16.364C16.2253 14.2059 16.0333 14.4086 15.788 14.6006C15.5533 14.7926 15.2707 14.9473 14.94 15.0646C14.62 15.1926 14.2627 15.2566 13.868 15.2566ZM14.172 13.8486C14.62 13.8486 15.0147 13.7419 15.356 13.5286C15.708 13.3153 15.98 13.0379 16.172 12.6966C16.364 12.3446 16.46 11.9659 16.46 11.5606C16.2253 11.4219 15.9373 11.3099 15.596 11.2246C15.2653 11.1286 14.9133 11.0806 14.54 11.0806C13.836 11.0806 13.3347 11.2193 13.036 11.4966C12.7373 11.7739 12.588 12.1206 12.588 12.5366C12.588 12.9206 12.732 13.2353 13.02 13.4806C13.308 13.7259 13.692 13.8486 14.172 13.8486ZM20.3204 15.0006V6.84061H22.0484V15.0006H20.3204ZM21.1844 5.64061C20.8644 5.64061 20.587 5.52861 20.3524 5.30461C20.1284 5.06994 20.0164 4.79261 20.0164 4.47261C20.0164 4.14194 20.1284 3.86994 20.3524 3.65661C20.587 3.43261 20.8644 3.32061 21.1844 3.32061C21.515 3.32061 21.7924 3.43261 22.0164 3.65661C22.2404 3.86994 22.3524 4.14194 22.3524 4.47261C22.3524 4.79261 22.2404 5.06994 22.0164 5.30461C21.7924 5.52861 21.515 5.64061 21.1844 5.64061ZM30.7867 15.2566C30.2001 15.2566 29.6774 15.1393 29.2187 14.9046C28.7707 14.6699 28.4134 14.3499 28.1467 13.9446C27.8907 13.5286 27.7627 13.0539 27.7627 12.5206C27.7627 11.9339 27.9121 11.4379 28.2107 11.0326C28.5201 10.6273 28.9307 10.3179 29.4427 10.1046C29.9547 9.89128 30.5201 9.78461 31.1387 9.78461C31.4801 9.78461 31.7947 9.81128 32.0827 9.86461C32.3814 9.90728 32.6374 9.96061 32.8507 10.0246C33.0747 10.0886 33.2507 10.1579 33.3787 10.2326V9.80061C33.3787 9.26728 33.1867 8.84061 32.8027 8.52061C32.4187 8.20061 31.9227 8.04061 31.3147 8.04061C30.8987 8.04061 30.5041 8.13661 30.1307 8.32861C29.7574 8.50994 29.4587 8.76061 29.2347 9.08061L28.0507 8.16861C28.2854 7.83794 28.5681 7.55528 28.8987 7.32061C29.2401 7.08594 29.6187 6.90461 30.0347 6.77661C30.4614 6.64861 30.9041 6.58461 31.3627 6.58461C32.5467 6.58461 33.4587 6.87794 34.0987 7.46461C34.7387 8.04061 35.0587 8.85128 35.0587 9.89661V15.0006H33.3787V13.9926H33.2827C33.1441 14.2059 32.9521 14.4086 32.7067 14.6006C32.4721 14.7926 32.1894 14.9473 31.8587 15.0646C31.5387 15.1926 31.1814 15.2566 30.7867 15.2566ZM31.0907 13.8486C31.5387 13.8486 31.9334 13.7419 32.2747 13.5286C32.6267 13.3153 32.8987 13.0379 33.0907 12.6966C33.2827 12.3446 33.3787 11.9659 33.3787 11.5606C33.1441 11.4219 32.8561 11.3099 32.5147 11.2246C32.1841 11.1286 31.8321 11.0806 31.4587 11.0806C30.7547 11.0806 30.2534 11.2193 29.9547 11.4966C29.6561 11.7739 29.5067 12.1206 29.5067 12.5366C29.5067 12.9206 29.6507 13.2353 29.9387 13.4806C30.2267 13.7259 30.6107 13.8486 31.0907 13.8486ZM37.1271 15.0006V3.54461H38.8551V15.0006H37.1271ZM44.9107 18.4566V6.84061H46.5267V7.94461H46.6227C46.7721 7.70994 46.9694 7.49128 47.2147 7.28861C47.4707 7.07528 47.7694 6.90461 48.1107 6.77661C48.4521 6.64861 48.8307 6.58461 49.2467 6.58461C49.9934 6.58461 50.6601 6.77128 51.2467 7.14461C51.8334 7.51794 52.2974 8.02994 52.6387 8.68061C52.9907 9.33128 53.1667 10.0779 53.1667 10.9206C53.1667 11.7633 52.9907 12.5099 52.6387 13.1606C52.2974 13.8113 51.8334 14.3233 51.2467 14.6966C50.6601 15.0699 49.9934 15.2566 49.2467 15.2566C48.6281 15.2566 48.0894 15.1179 47.6307 14.8406C47.1721 14.5633 46.8361 14.2539 46.6227 13.9126H46.5267L46.6227 15.0486V18.4566H44.9107ZM48.9907 13.6726C49.4174 13.6726 49.8174 13.5606 50.1907 13.3366C50.5747 13.1126 50.8787 12.7926 51.1027 12.3766C51.3374 11.9606 51.4547 11.4753 51.4547 10.9206C51.4547 10.3553 51.3374 9.86994 51.1027 9.46461C50.8787 9.04861 50.5747 8.72861 50.1907 8.50461C49.8174 8.28061 49.4174 8.16861 48.9907 8.16861C48.5641 8.16861 48.1641 8.28061 47.7907 8.50461C47.4174 8.72861 47.1134 9.04861 46.8787 9.46461C46.6441 9.86994 46.5267 10.3553 46.5267 10.9206C46.5267 11.4859 46.6441 11.9766 46.8787 12.3926C47.1134 12.7979 47.4174 13.1126 47.7907 13.3366C48.1641 13.5606 48.5641 13.6726 48.9907 13.6726ZM57.4649 15.2566C56.8782 15.2566 56.3555 15.1393 55.8969 14.9046C55.4489 14.6699 55.0915 14.3499 54.8249 13.9446C54.5689 13.5286 54.4409 13.0539 54.4409 12.5206C54.4409 11.9339 54.5902 11.4379 54.8889 11.0326C55.1982 10.6273 55.6089 10.3179 56.1209 10.1046C56.6329 9.89128 57.1982 9.78461 57.8169 9.78461C58.1582 9.78461 58.4729 9.81128 58.7609 9.86461C59.0595 9.90728 59.3155 9.96061 59.5289 10.0246C59.7529 10.0886 59.9289 10.1579 60.0569 10.2326V9.80061C60.0569 9.26728 59.8649 8.84061 59.4809 8.52061C59.0969 8.20061 58.6009 8.04061 57.9929 8.04061C57.5769 8.04061 57.1822 8.13661 56.8089 8.32861C56.4355 8.50994 56.1369 8.76061 55.9129 9.08061L54.7289 8.16861C54.9635 7.83794 55.2462 7.55528 55.5769 7.32061C55.9182 7.08594 56.2969 6.90461 56.7129 6.77661C57.1395 6.64861 57.5822 6.58461 58.0409 6.58461C59.2249 6.58461 60.1369 6.87794 60.7769 7.46461C61.4169 8.04061 61.7369 8.85128 61.7369 9.89661V15.0006H60.0569V13.9926H59.9609C59.8222 14.2059 59.6302 14.4086 59.3849 14.6006C59.1502 14.7926 58.8675 14.9473 58.5369 15.0646C58.2169 15.1926 57.8595 15.2566 57.4649 15.2566ZM57.7689 13.8486C58.2169 13.8486 58.6115 13.7419 58.9529 13.5286C59.3049 13.3153 59.5769 13.0379 59.7689 12.6966C59.9609 12.3446 60.0569 11.9659 60.0569 11.5606C59.8222 11.4219 59.5342 11.3099 59.1929 11.2246C58.8622 11.1286 58.5102 11.0806 58.1369 11.0806C57.4329 11.0806 56.9315 11.2193 56.6329 11.4966C56.3342 11.7739 56.1849 12.1206 56.1849 12.5366C56.1849 12.9206 56.3289 13.2353 56.6169 13.4806C56.9049 13.7259 57.2889 13.8486 57.7689 13.8486ZM67.3911 18.7126C66.6765 18.7126 66.0578 18.5953 65.5351 18.3606C65.0231 18.1366 64.6071 17.8433 64.2871 17.4806C63.9671 17.1286 63.7378 16.7659 63.5991 16.3926L65.1991 15.7206C65.3698 16.1473 65.6418 16.4939 66.0151 16.7606C66.3991 17.0379 66.8578 17.1766 67.3911 17.1766C68.1485 17.1766 68.7405 16.9526 69.1671 16.5046C69.5938 16.0566 69.8071 15.4219 69.8071 14.6006V13.8166H69.7111C69.4551 14.1899 69.1031 14.4939 68.6551 14.7286C68.2071 14.9633 67.6898 15.0806 67.1031 15.0806C66.4098 15.0806 65.7698 14.9046 65.1831 14.5526C64.6071 14.2006 64.1431 13.7099 63.7911 13.0806C63.4498 12.4406 63.2791 11.6939 63.2791 10.8406C63.2791 9.97661 63.4498 9.22994 63.7911 8.60061C64.1431 7.96061 64.6071 7.46461 65.1831 7.11261C65.7698 6.76061 66.4098 6.58461 67.1031 6.58461C67.6898 6.58461 68.2071 6.70194 68.6551 6.93661C69.1031 7.16061 69.4551 7.46994 69.7111 7.86461H69.8071V6.84061H71.4551V14.5686C71.4551 15.4539 71.2791 16.2059 70.9271 16.8246C70.5858 17.4433 70.1111 17.9126 69.5031 18.2326C68.8951 18.5526 68.1911 18.7126 67.3911 18.7126ZM67.4071 13.5126C67.8338 13.5126 68.2285 13.4113 68.5911 13.2086C68.9645 12.9953 69.2578 12.6913 69.4711 12.2966C69.6951 11.8913 69.8071 11.4059 69.8071 10.8406C69.8071 10.2433 69.6951 9.74728 69.4711 9.35261C69.2578 8.95794 68.9645 8.65928 68.5911 8.45661C68.2285 8.25394 67.8338 8.15261 67.4071 8.15261C66.9805 8.15261 66.5805 8.25394 66.2071 8.45661C65.8445 8.65928 65.5511 8.96328 65.3271 9.36861C65.1031 9.76328 64.9911 10.2539 64.9911 10.8406C64.9911 11.4166 65.1031 11.9073 65.3271 12.3126C65.5511 12.7073 65.8445 13.0059 66.2071 13.2086C66.5805 13.4113 66.9805 13.5126 67.4071 13.5126ZM76.1086 15.2566C75.522 15.2566 74.9993 15.1393 74.5406 14.9046C74.0926 14.6699 73.7353 14.3499 73.4686 13.9446C73.2126 13.5286 73.0846 13.0539 73.0846 12.5206C73.0846 11.9339 73.234 11.4379 73.5326 11.0326C73.842 10.6273 74.2526 10.3179 74.7646 10.1046C75.2766 9.89128 75.842 9.78461 76.4606 9.78461C76.802 9.78461 77.1166 9.81128 77.4046 9.86461C77.7033 9.90728 77.9593 9.96061 78.1726 10.0246C78.3966 10.0886 78.5726 10.1579 78.7006 10.2326V9.80061C78.7006 9.26728 78.5086 8.84061 78.1246 8.52061C77.7406 8.20061 77.2446 8.04061 76.6366 8.04061C76.2206 8.04061 75.826 8.13661 75.4526 8.32861C75.0793 8.50994 74.7806 8.76061 74.5566 9.08061L73.3726 8.16861C73.6073 7.83794 73.89 7.55528 74.2206 7.32061C74.562 7.08594 74.9406 6.90461 75.3566 6.77661C75.7833 6.64861 76.226 6.58461 76.6846 6.58461C77.8686 6.58461 78.7806 6.87794 79.4206 7.46461C80.0606 8.04061 80.3806 8.85128 80.3806 9.89661V15.0006H78.7006V13.9926H78.6046C78.466 14.2059 78.274 14.4086 78.0286 14.6006C77.794 14.7926 77.5113 14.9473 77.1806 15.0646C76.8606 15.1926 76.5033 15.2566 76.1086 15.2566ZM76.4126 13.8486C76.8606 13.8486 77.2553 13.7419 77.5966 13.5286C77.9486 13.3153 78.2206 13.0379 78.4126 12.6966C78.6046 12.3446 78.7006 11.9659 78.7006 11.5606C78.466 11.4219 78.178 11.3099 77.8366 11.2246C77.506 11.1286 77.154 11.0806 76.7806 11.0806C76.0766 11.0806 75.5753 11.2193 75.2766 11.4966C74.978 11.7739 74.8286 12.1206 74.8286 12.5366C74.8286 12.9206 74.9726 13.2353 75.2606 13.4806C75.5486 13.7259 75.9326 13.8486 76.4126 13.8486ZM82.433 15.0006V6.84061H84.065V7.96061H84.161C84.321 7.69394 84.529 7.45928 84.785 7.25661C85.041 7.05394 85.329 6.89394 85.649 6.77661C85.9797 6.64861 86.321 6.58461 86.673 6.58461C87.281 6.58461 87.7983 6.72861 88.225 7.01661C88.6517 7.30461 88.9557 7.66728 89.137 8.10461C89.4037 7.67794 89.7663 7.32061 90.225 7.03261C90.6837 6.73394 91.2437 6.58461 91.905 6.58461C92.865 6.58461 93.5797 6.87794 94.049 7.46461C94.5183 8.04061 94.753 8.80861 94.753 9.76861V15.0006H93.041V10.0566C93.041 9.39528 92.897 8.91528 92.609 8.61661C92.3317 8.31794 91.9423 8.16861 91.441 8.16861C91.0463 8.16861 90.6997 8.28061 90.401 8.50461C90.1023 8.71794 89.8677 9.01128 89.697 9.38461C89.537 9.75794 89.457 10.1739 89.457 10.6326V15.0006H87.745V10.0566C87.745 9.40594 87.601 8.93128 87.313 8.63261C87.025 8.32328 86.6197 8.16861 86.097 8.16861C85.7237 8.16861 85.3877 8.28061 85.089 8.50461C84.801 8.72861 84.5717 9.02728 84.401 9.40061C84.241 9.77394 84.161 10.1899 84.161 10.6486V15.0006H82.433ZM100.577 15.2566C99.7766 15.2566 99.062 15.0699 98.4326 14.6966C97.8033 14.3233 97.3073 13.8113 96.9446 13.1606C96.5926 12.5099 96.4166 11.7686 96.4166 10.9366C96.4166 10.1579 96.5873 9.43794 96.9286 8.77661C97.27 8.11528 97.7446 7.58728 98.3526 7.19261C98.9713 6.78728 99.6806 6.58461 100.481 6.58461C101.323 6.58461 102.038 6.76594 102.625 7.12861C103.222 7.49128 103.675 7.98728 103.985 8.61661C104.294 9.24594 104.449 9.95528 104.449 10.7446C104.449 10.8619 104.443 10.9686 104.433 11.0646C104.433 11.1606 104.427 11.2353 104.417 11.2886H98.1126C98.1553 11.7366 98.2673 12.1259 98.4486 12.4566C98.6833 12.8726 98.9926 13.1873 99.3766 13.4006C99.7606 13.6139 100.177 13.7206 100.625 13.7206C101.169 13.7206 101.622 13.5979 101.985 13.3526C102.358 13.0966 102.651 12.7819 102.865 12.4086L104.289 13.0966C103.937 13.7366 103.457 14.2593 102.849 14.6646C102.241 15.0593 101.483 15.2566 100.577 15.2566ZM98.2086 9.99261H102.737C102.726 9.78994 102.673 9.57661 102.577 9.35261C102.481 9.11794 102.342 8.90461 102.161 8.71261C101.979 8.52061 101.75 8.36594 101.473 8.24861C101.195 8.12061 100.87 8.05661 100.497 8.05661C100.027 8.05661 99.6113 8.17928 99.2486 8.42461C98.886 8.65928 98.6033 8.98994 98.4006 9.41661C98.3153 9.59794 98.2513 9.78994 98.2086 9.99261ZM106.202 15.0006V6.84061H107.834V7.96061H107.93C108.164 7.56594 108.511 7.24061 108.97 6.98461C109.439 6.71794 109.951 6.58461 110.506 6.58461C111.508 6.58461 112.26 6.88328 112.762 7.48061C113.263 8.06728 113.514 8.85661 113.514 9.84861V15.0006H111.802V10.0726C111.802 9.41128 111.636 8.93128 111.306 8.63261C110.975 8.32328 110.543 8.16861 110.01 8.16861C109.594 8.16861 109.231 8.28594 108.922 8.52061C108.612 8.74461 108.367 9.04328 108.186 9.41661C108.015 9.78994 107.93 10.1899 107.93 10.6166V15.0006H106.202ZM114.667 6.84061H116.091V4.53661H117.819V6.84061H119.819V8.34461H117.819V12.2646C117.819 12.6699 117.899 12.9793 118.059 13.1926C118.229 13.4059 118.512 13.5126 118.907 13.5126C119.099 13.5126 119.269 13.4859 119.419 13.4326C119.568 13.3686 119.717 13.2939 119.867 13.2086V14.8886C119.685 14.9633 119.493 15.0219 119.291 15.0646C119.088 15.1073 118.848 15.1286 118.571 15.1286C117.813 15.1286 117.211 14.9099 116.763 14.4726C116.315 14.0246 116.091 13.4113 116.091 12.6326V8.34461H114.667V6.84061ZM125.154 15.2566C124.312 15.2566 123.57 15.0646 122.93 14.6806C122.29 14.2966 121.789 13.7793 121.426 13.1286C121.064 12.4673 120.882 11.7313 120.882 10.9206C120.882 10.1099 121.064 9.37928 121.426 8.72861C121.789 8.06728 122.29 7.54461 122.93 7.16061C123.57 6.77661 124.312 6.58461 125.154 6.58461C125.986 6.58461 126.722 6.78194 127.362 7.17661C128.002 7.56061 128.504 8.07794 128.866 8.72861C129.229 9.37928 129.41 10.1099 129.41 10.9206C129.41 11.7313 129.229 12.4673 128.866 13.1286C128.504 13.7793 128.002 14.2966 127.362 14.6806C126.722 15.0646 125.986 15.2566 125.154 15.2566ZM125.154 13.6726C125.602 13.6726 126.018 13.5659 126.402 13.3526C126.786 13.1286 127.096 12.8139 127.33 12.4086C127.576 11.9926 127.698 11.4966 127.698 10.9206C127.698 10.3446 127.576 9.85394 127.33 9.44861C127.096 9.03261 126.786 8.71794 126.402 8.50461C126.018 8.28061 125.602 8.16861 125.154 8.16861C124.706 8.16861 124.285 8.28061 123.89 8.50461C123.506 8.71794 123.192 9.03261 122.946 9.44861C122.712 9.85394 122.594 10.3446 122.594 10.9206C122.594 11.4966 122.712 11.9926 122.946 12.4086C123.192 12.8139 123.512 13.1286 123.906 13.3526C124.301 13.5659 124.717 13.6726 125.154 13.6726ZM138.812 15.2566C137.991 15.2566 137.26 15.0699 136.62 14.6966C135.991 14.3233 135.495 13.8113 135.132 13.1606C134.78 12.4993 134.604 11.7526 134.604 10.9206C134.604 10.0886 134.78 9.34728 135.132 8.69661C135.495 8.04594 135.991 7.53394 136.62 7.16061C137.26 6.77661 137.991 6.58461 138.812 6.58461C139.719 6.58461 140.481 6.78728 141.1 7.19261C141.729 7.59794 142.177 8.14728 142.444 8.84061L140.876 9.48061C140.684 9.04328 140.407 8.71794 140.044 8.50461C139.692 8.28061 139.271 8.16861 138.78 8.16861C138.332 8.16861 137.921 8.28594 137.548 8.52061C137.175 8.74461 136.876 9.05928 136.652 9.46461C136.428 9.86994 136.316 10.3553 136.316 10.9206C136.316 11.4753 136.428 11.9606 136.652 12.3766C136.876 12.7926 137.175 13.1126 137.548 13.3366C137.921 13.5606 138.332 13.6726 138.78 13.6726C139.303 13.6726 139.745 13.5553 140.108 13.3206C140.471 13.0859 140.753 12.7553 140.956 12.3286L142.492 13.0006C142.193 13.6513 141.729 14.1899 141.1 14.6166C140.481 15.0433 139.719 15.2566 138.812 15.2566ZM147.885 15.2566C147.043 15.2566 146.301 15.0646 145.661 14.6806C145.021 14.2966 144.52 13.7793 144.157 13.1286C143.795 12.4673 143.613 11.7313 143.613 10.9206C143.613 10.1099 143.795 9.37928 144.157 8.72861C144.52 8.06728 145.021 7.54461 145.661 7.16061C146.301 6.77661 147.043 6.58461 147.885 6.58461C148.717 6.58461 149.453 6.78194 150.093 7.17661C150.733 7.56061 151.235 8.07794 151.597 8.72861C151.96 9.37928 152.141 10.1099 152.141 10.9206C152.141 11.7313 151.96 12.4673 151.597 13.1286C151.235 13.7793 150.733 14.2966 150.093 14.6806C149.453 15.0646 148.717 15.2566 147.885 15.2566ZM147.885 13.6726C148.333 13.6726 148.749 13.5659 149.133 13.3526C149.517 13.1286 149.827 12.8139 150.061 12.4086C150.307 11.9926 150.429 11.4966 150.429 10.9206C150.429 10.3446 150.307 9.85394 150.061 9.44861C149.827 9.03261 149.517 8.71794 149.133 8.50461C148.749 8.28061 148.333 8.16861 147.885 8.16861C147.437 8.16861 147.016 8.28061 146.621 8.50461C146.237 8.71794 145.923 9.03261 145.677 9.44861C145.443 9.85394 145.325 10.3446 145.325 10.9206C145.325 11.4966 145.443 11.9926 145.677 12.4086C145.923 12.8139 146.243 13.1286 146.637 13.3526C147.032 13.5659 147.448 13.6726 147.885 13.6726ZM153.727 15.0006V6.84061H155.359V7.96061H155.455C155.689 7.56594 156.036 7.24061 156.495 6.98461C156.964 6.71794 157.476 6.58461 158.031 6.58461C159.033 6.58461 159.785 6.88328 160.287 7.48061C160.788 8.06728 161.039 8.85661 161.039 9.84861V15.0006H159.327V10.0726C159.327 9.41128 159.161 8.93128 158.831 8.63261C158.5 8.32328 158.068 8.16861 157.535 8.16861C157.119 8.16861 156.756 8.28594 156.447 8.52061C156.137 8.74461 155.892 9.04328 155.711 9.41661C155.54 9.78994 155.455 10.1899 155.455 10.6166V15.0006H153.727Z" fill="white"/>
<g id="GPay (Dark)">
<g id="GPay">
<g id="Pay">
<path id="Fill 1" fill-rule="evenodd" clip-rule="evenodd" d="M190.356 3.42339V8.16175H193.278C193.974 8.16175 194.55 7.92781 195.005 7.45993C195.473 6.99313 195.707 6.43644 195.707 5.79203C195.707 5.16061 195.473 4.61041 195.005 4.14254C194.55 3.66274 193.974 3.4223 193.278 3.4223H190.356V3.42339ZM190.356 9.82966V15.3262H188.611V1.75549H193.24C194.417 1.75549 195.415 2.14756 196.238 2.93061C197.073 3.71365 197.491 4.66782 197.491 5.79203C197.491 6.94224 197.073 7.90291 196.238 8.67296C195.428 9.44409 194.429 9.82858 193.24 9.82858H190.356V9.82966Z" fill="white"/>
<path id="Fill 3" fill-rule="evenodd" clip-rule="evenodd" d="M199.255 12.4831C199.255 12.9379 199.448 13.317 199.834 13.6203C200.22 13.9235 200.672 14.0752 201.19 14.0752C201.924 14.0752 202.578 13.8032 203.153 13.2607C203.729 12.717 204.017 12.0791 204.017 11.3469C203.472 10.917 202.713 10.7025 201.74 10.7025C201.031 10.7025 200.44 10.8736 199.966 11.2148C199.492 11.5559 199.255 11.9773 199.255 12.4831M201.513 5.73566C202.803 5.73566 203.821 6.08007 204.569 6.76889C205.314 7.45771 205.687 8.40213 205.687 9.60216V15.3261H204.018V14.0373H203.942C203.221 15.0985 202.259 15.6294 201.058 15.6294C200.033 15.6294 199.176 15.3261 198.487 14.7196C197.797 14.1131 197.453 13.3549 197.453 12.4452C197.453 11.4845 197.816 10.7208 198.543 10.1523C199.271 9.58375 200.241 9.2989 201.456 9.2989C202.492 9.2989 203.346 9.48844 204.017 9.86751V9.46894C204.017 8.86243 203.776 8.34798 203.296 7.92451C202.814 7.50103 202.252 7.28984 201.607 7.28984C200.633 7.28984 199.862 7.70032 199.293 8.52235L197.755 7.55519C198.603 6.34217 199.855 5.73566 201.513 5.73566" fill="white"/>
<path id="Fill 5" fill-rule="evenodd" clip-rule="evenodd" d="M215.269 6.03894L209.443 19.4201H207.641L209.804 14.738L205.971 6.03894H207.869L210.639 12.7106H210.677L213.371 6.03894H215.269Z" fill="white"/>
</g>
<g id="G">
<path id="Fill 8" fill-rule="evenodd" clip-rule="evenodd" d="M183.303 8.64473C183.303 8.09563 183.256 7.56601 183.168 7.05914H175.806V10.0625H180.023C179.842 11.0414 179.294 11.8744 178.464 12.4322V14.3828H180.98C182.454 13.0246 183.303 11.0177 183.303 8.64473" fill="#4285F4"/>
<path id="Fill 10" fill-rule="evenodd" clip-rule="evenodd" d="M175.806 16.2651C177.913 16.2651 179.687 15.5741 180.98 14.3828L178.464 12.4322C177.764 12.9033 176.861 13.1784 175.806 13.1784C173.77 13.1784 172.042 11.8073 171.424 9.95959H168.832V11.9687C170.116 14.516 172.757 16.2651 175.806 16.2651" fill="#34A853"/>
<path id="Fill 12" fill-rule="evenodd" clip-rule="evenodd" d="M171.424 9.9596C171.266 9.48847 171.179 8.98593 171.179 8.46715C171.179 7.94837 171.266 7.44583 171.424 6.9747V4.96564H168.832C168.3 6.01837 168 7.20756 168 8.46715C168 9.72674 168.3 10.916 168.832 11.9687L171.424 9.9596Z" fill="#FABB05"/>
<path id="Fill 14" fill-rule="evenodd" clip-rule="evenodd" d="M175.806 3.75583C176.957 3.75583 177.988 4.15115 178.801 4.92553V4.92661L181.029 2.70094C179.676 1.44243 177.912 0.669128 175.806 0.669128C172.757 0.669128 170.116 2.41826 168.832 4.9656L171.424 6.97467C172.042 5.12698 173.77 3.75583 175.806 3.75583" fill="#E94235"/>
</g>
</g>
</g>
</g>
</svg>
