<svg width="378" height="38" viewBox="0 0 378 38" fill="none" xmlns="http://www.w3.org/2000/svg">
<g id="it_checkout_with_Light">
<path id="Text" d="M8.04618 30L0.934175 9.952H4.29418L8.83018 23.28L9.53018 25.548H9.69818L10.4542 23.28L15.1862 9.952H18.5462L11.2382 30H8.04618ZM24.094 30.448C23.0673 30.448 22.1527 30.252 21.35 29.86C20.5473 29.4493 19.922 28.88 19.474 28.152C19.026 27.424 18.802 26.5933 18.802 25.66C18.802 24.652 19.0633 23.7933 19.586 23.084C20.1273 22.356 20.846 21.8053 21.742 21.432C22.638 21.0587 23.6273 20.872 24.71 20.872C25.606 20.872 26.39 20.956 27.062 21.124C27.7527 21.292 28.2753 21.4693 28.63 21.656V20.9C28.63 19.9667 28.294 19.22 27.622 18.66C26.95 18.1 26.082 17.82 25.018 17.82C24.29 17.82 23.5993 17.988 22.946 18.324C22.2927 18.6413 21.77 19.08 21.378 19.64L19.306 18.044C19.922 17.1853 20.734 16.5133 21.742 16.028C22.7687 15.524 23.8887 15.272 25.102 15.272C27.174 15.272 28.77 15.7853 29.89 16.812C31.01 17.82 31.57 19.2387 31.57 21.068V30H28.63V28.236H28.462C28.0887 28.8147 27.5287 29.328 26.782 29.776C26.0353 30.224 25.1393 30.448 24.094 30.448ZM24.626 27.984C25.41 27.984 26.1007 27.7973 26.698 27.424C27.2953 27.0507 27.762 26.5653 28.098 25.968C28.4527 25.352 28.63 24.6893 28.63 23.98C28.2007 23.7373 27.6967 23.5413 27.118 23.392C26.5393 23.224 25.9233 23.14 25.27 23.14C24.038 23.14 23.1607 23.392 22.638 23.896C22.1153 24.3813 21.854 24.9787 21.854 25.688C21.854 26.36 22.106 26.9107 22.61 27.34C23.114 27.7693 23.786 27.984 24.626 27.984ZM36.9351 13.62C36.3751 13.62 35.8898 13.424 35.4791 13.032C35.0871 12.6213 34.8911 12.136 34.8911 11.576C34.8911 11.016 35.0871 10.54 35.4791 10.148C35.8898 9.756 36.3751 9.56 36.9351 9.56C37.4951 9.56 37.9711 9.756 38.3631 10.148C38.7738 10.54 38.9791 11.016 38.9791 11.576C38.9791 12.136 38.7738 12.6213 38.3631 13.032C37.9711 13.424 37.4951 13.62 36.9351 13.62ZM35.4231 30V15.72H38.4471V30H35.4231ZM53.8143 30.448C52.7876 30.448 51.873 30.252 51.0703 29.86C50.2676 29.4493 49.6423 28.88 49.1943 28.152C48.7463 27.424 48.5223 26.5933 48.5223 25.66C48.5223 24.652 48.7836 23.7933 49.3063 23.084C49.8476 22.356 50.5663 21.8053 51.4623 21.432C52.3583 21.0587 53.3476 20.872 54.4303 20.872C55.3263 20.872 56.1103 20.956 56.7823 21.124C57.473 21.292 57.9956 21.4693 58.3503 21.656V20.9C58.3503 19.9667 58.0143 19.22 57.3423 18.66C56.6703 18.1 55.8023 17.82 54.7383 17.82C54.0103 17.82 53.3196 17.988 52.6663 18.324C52.013 18.6413 51.4903 19.08 51.0983 19.64L49.0263 18.044C49.6423 17.1853 50.4543 16.5133 51.4623 16.028C52.489 15.524 53.609 15.272 54.8223 15.272C56.8943 15.272 58.4903 15.7853 59.6103 16.812C60.7303 17.82 61.2903 19.2387 61.2903 21.068V30H58.3503V28.236H58.1823C57.809 28.8147 57.249 29.328 56.5023 29.776C55.7556 30.224 54.8596 30.448 53.8143 30.448ZM54.3463 27.984C55.1303 27.984 55.821 27.7973 56.4183 27.424C57.0156 27.0507 57.4823 26.5653 57.8183 25.968C58.173 25.352 58.3503 24.6893 58.3503 23.98C57.921 23.7373 57.417 23.5413 56.8383 23.392C56.2596 23.224 55.6436 23.14 54.9903 23.14C53.7583 23.14 52.881 23.392 52.3583 23.896C51.8356 24.3813 51.5743 24.9787 51.5743 25.688C51.5743 26.36 51.8263 26.9107 52.3303 27.34C52.8343 27.7693 53.5063 27.984 54.3463 27.984ZM64.9475 30V9.952H67.9715V30H64.9475ZM78.6438 36.048V15.72H81.4718V17.652H81.6398C82.0131 17.036 82.5918 16.4853 83.3758 16C84.1785 15.5147 85.1305 15.272 86.2318 15.272C87.5385 15.272 88.7051 15.5987 89.7318 16.252C90.7585 16.9053 91.5705 17.8013 92.1678 18.94C92.7838 20.0787 93.0918 21.3853 93.0918 22.86C93.0918 24.3347 92.7838 25.6507 92.1678 26.808C91.5705 27.9467 90.7585 28.8427 89.7318 29.496C88.7051 30.1307 87.5385 30.448 86.2318 30.448C85.1305 30.448 84.1785 30.2147 83.3758 29.748C82.5918 29.2627 82.0131 28.712 81.6398 28.096H81.4718L81.6398 30.084V36.048H78.6438ZM85.7838 27.676C86.5305 27.676 87.2305 27.48 87.8838 27.088C88.5371 26.696 89.0691 26.1453 89.4798 25.436C89.8905 24.708 90.0958 23.8493 90.0958 22.86C90.0958 21.8707 89.8905 21.0213 89.4798 20.312C89.0691 19.584 88.5371 19.024 87.8838 18.632C87.2305 18.24 86.5305 18.044 85.7838 18.044C85.0371 18.044 84.3371 18.24 83.6838 18.632C83.0305 19.024 82.4985 19.584 82.0878 20.312C81.6771 21.0213 81.4718 21.8707 81.4718 22.86C81.4718 23.8493 81.6771 24.708 82.0878 25.436C82.4985 26.1453 83.0305 26.696 83.6838 27.088C84.3371 27.48 85.0371 27.676 85.7838 27.676ZM100.651 30.448C99.6244 30.448 98.7097 30.252 97.907 29.86C97.1044 29.4493 96.479 28.88 96.031 28.152C95.583 27.424 95.359 26.5933 95.359 25.66C95.359 24.652 95.6204 23.7933 96.143 23.084C96.6844 22.356 97.403 21.8053 98.299 21.432C99.195 21.0587 100.184 20.872 101.267 20.872C102.163 20.872 102.947 20.956 103.619 21.124C104.31 21.292 104.832 21.4693 105.187 21.656V20.9C105.187 19.9667 104.851 19.22 104.179 18.66C103.507 18.1 102.639 17.82 101.575 17.82C100.847 17.82 100.156 17.988 99.503 18.324C98.8497 18.6413 98.327 19.08 97.935 19.64L95.863 18.044C96.479 17.1853 97.291 16.5133 98.299 16.028C99.3257 15.524 100.446 15.272 101.659 15.272C103.731 15.272 105.327 15.7853 106.447 16.812C107.567 17.82 108.127 19.2387 108.127 21.068V30H105.187V28.236H105.019C104.646 28.8147 104.086 29.328 103.339 29.776C102.592 30.224 101.696 30.448 100.651 30.448ZM101.183 27.984C101.967 27.984 102.658 27.7973 103.255 27.424C103.852 27.0507 104.319 26.5653 104.655 25.968C105.01 25.352 105.187 24.6893 105.187 23.98C104.758 23.7373 104.254 23.5413 103.675 23.392C103.096 23.224 102.48 23.14 101.827 23.14C100.595 23.14 99.7177 23.392 99.195 23.896C98.6724 24.3813 98.411 24.9787 98.411 25.688C98.411 26.36 98.663 26.9107 99.167 27.34C99.671 27.7693 100.343 27.984 101.183 27.984ZM118.059 36.496C116.809 36.496 115.726 36.2907 114.811 35.88C113.915 35.488 113.187 34.9747 112.627 34.34C112.067 33.724 111.666 33.0893 111.423 32.436L114.223 31.26C114.522 32.0067 114.998 32.6133 115.651 33.08C116.323 33.5653 117.126 33.808 118.059 33.808C119.366 33.808 120.393 33.416 121.139 32.632C121.905 31.848 122.287 30.7373 122.287 29.3V27.928H122.119C121.671 28.6 121.046 29.1413 120.243 29.552C119.459 29.944 118.563 30.14 117.555 30.14C116.342 30.14 115.231 29.832 114.223 29.216C113.215 28.6 112.403 27.7413 111.787 26.64C111.171 25.52 110.863 24.2133 110.863 22.72C110.863 21.208 111.171 19.9013 111.787 18.8C112.403 17.68 113.215 16.812 114.223 16.196C115.231 15.58 116.342 15.272 117.555 15.272C118.563 15.272 119.459 15.4773 120.243 15.888C121.046 16.2987 121.671 16.84 122.119 17.512H122.287V15.72H125.171V29.244C125.171 30.7933 124.863 32.1093 124.247 33.192C123.65 34.2747 122.819 35.096 121.755 35.656C120.691 36.216 119.459 36.496 118.059 36.496ZM118.087 27.396C118.834 27.396 119.525 27.2187 120.159 26.864C120.794 26.4907 121.307 25.9587 121.699 25.268C122.091 24.5587 122.287 23.7093 122.287 22.72C122.287 21.6933 122.091 20.8347 121.699 20.144C121.307 19.4347 120.794 18.9027 120.159 18.548C119.525 18.1933 118.834 18.016 118.087 18.016C117.341 18.016 116.641 18.2027 115.987 18.576C115.353 18.9307 114.839 19.4533 114.447 20.144C114.055 20.8347 113.859 21.6933 113.859 22.72C113.859 23.728 114.055 24.5867 114.447 25.296C114.839 25.9867 115.353 26.5093 115.987 26.864C116.641 27.2187 117.341 27.396 118.087 27.396ZM133.353 30.448C132.326 30.448 131.411 30.252 130.609 29.86C129.806 29.4493 129.181 28.88 128.733 28.152C128.285 27.424 128.061 26.5933 128.061 25.66C128.061 24.652 128.322 23.7933 128.845 23.084C129.386 22.356 130.105 21.8053 131.001 21.432C131.897 21.0587 132.886 20.872 133.969 20.872C134.865 20.872 135.649 20.956 136.321 21.124C137.011 21.292 137.534 21.4693 137.889 21.656V20.9C137.889 19.9667 137.553 19.22 136.881 18.66C136.209 18.1 135.341 17.82 134.277 17.82C133.549 17.82 132.858 17.988 132.205 18.324C131.551 18.6413 131.029 19.08 130.637 19.64L128.565 18.044C129.181 17.1853 129.993 16.5133 131.001 16.028C132.027 15.524 133.147 15.272 134.361 15.272C136.433 15.272 138.029 15.7853 139.149 16.812C140.269 17.82 140.829 19.2387 140.829 21.068V30H137.889V28.236H137.721C137.347 28.8147 136.787 29.328 136.041 29.776C135.294 30.224 134.398 30.448 133.353 30.448ZM133.885 27.984C134.669 27.984 135.359 27.7973 135.957 27.424C136.554 27.0507 137.021 26.5653 137.357 25.968C137.711 25.352 137.889 24.6893 137.889 23.98C137.459 23.7373 136.955 23.5413 136.377 23.392C135.798 23.224 135.182 23.14 134.529 23.14C133.297 23.14 132.419 23.392 131.897 23.896C131.374 24.3813 131.113 24.9787 131.113 25.688C131.113 26.36 131.365 26.9107 131.869 27.34C132.373 27.7693 133.045 27.984 133.885 27.984ZM144.458 30V15.72H147.314V17.68H147.482C147.892 16.9893 148.49 16.42 149.274 15.972C150.058 15.5053 150.926 15.272 151.878 15.272C152.942 15.272 153.847 15.524 154.594 16.028C155.34 16.532 155.872 17.1667 156.19 17.932C156.656 17.1853 157.291 16.56 158.094 16.056C158.896 15.5333 159.876 15.272 161.034 15.272C162.714 15.272 163.964 15.7853 164.786 16.812C165.607 17.82 166.018 19.164 166.018 20.844V30H163.022V21.348C163.022 20.2093 162.77 19.3787 162.266 18.856C161.78 18.3147 161.099 18.044 160.222 18.044C159.531 18.044 158.924 18.24 158.402 18.632C157.879 19.0053 157.468 19.5187 157.17 20.172C156.89 20.8253 156.75 21.5533 156.75 22.356V30H153.754V21.348C153.754 20.2093 153.502 19.3787 152.998 18.856C152.494 18.3147 151.784 18.044 150.87 18.044C150.198 18.044 149.61 18.24 149.106 18.632C148.602 19.024 148.2 19.5467 147.902 20.2C147.622 20.8533 147.482 21.5813 147.482 22.384V30H144.458ZM176.247 30.448C174.847 30.448 173.596 30.1213 172.495 29.468C171.393 28.8147 170.525 27.9187 169.891 26.78C169.275 25.6413 168.967 24.344 168.967 22.888C168.967 21.5253 169.265 20.2653 169.863 19.108C170.46 17.9507 171.291 17.0267 172.355 16.336C173.437 15.6267 174.679 15.272 176.079 15.272C177.553 15.272 178.804 15.5893 179.831 16.224C180.876 16.8587 181.669 17.7267 182.211 18.828C182.752 19.9293 183.023 21.1707 183.023 22.552C183.023 22.7573 183.013 22.944 182.995 23.112C182.995 23.28 182.985 23.4107 182.967 23.504H171.935C172.084 24.9227 172.579 25.9867 173.419 26.696C174.277 27.4053 175.248 27.76 176.331 27.76C177.301 27.76 178.104 27.5453 178.739 27.116C179.373 26.668 179.877 26.1173 180.251 25.464L182.743 26.668C182.127 27.788 181.287 28.7027 180.223 29.412C179.159 30.1027 177.833 30.448 176.247 30.448ZM176.107 17.848C175.099 17.848 174.24 18.156 173.531 18.772C172.821 19.388 172.345 20.2093 172.103 21.236H180.027C179.989 20.7507 179.831 20.2467 179.551 19.724C179.271 19.2013 178.841 18.7627 178.263 18.408C177.703 18.0347 176.984 17.848 176.107 17.848ZM186.128 30V15.72H188.984V17.68H189.152C189.563 16.9893 190.169 16.42 190.972 15.972C191.793 15.5053 192.689 15.272 193.66 15.272C195.415 15.272 196.731 15.7947 197.608 16.84C198.485 17.8853 198.924 19.2667 198.924 20.984V30H195.928V21.376C195.928 20.2187 195.639 19.3787 195.06 18.856C194.481 18.3147 193.725 18.044 192.792 18.044C192.064 18.044 191.429 18.2493 190.888 18.66C190.347 19.052 189.917 19.5747 189.6 20.228C189.301 20.8813 189.152 21.5813 189.152 22.328V30H186.128ZM203.471 25.856V18.352H200.979V15.72H203.471V11.688H206.495V15.72H209.995V18.352H206.495V25.212C206.495 25.9213 206.635 26.4627 206.915 26.836C207.214 27.2093 207.709 27.396 208.399 27.396C208.754 27.396 209.053 27.3493 209.295 27.256C209.557 27.1627 209.818 27.032 210.079 26.864V29.804C209.762 29.9347 209.426 30.0373 209.071 30.112C208.717 30.1867 208.297 30.224 207.811 30.224C206.486 30.224 205.431 29.8413 204.647 29.076C203.863 28.292 203.471 27.2187 203.471 25.856ZM219.37 30.448C217.895 30.448 216.598 30.112 215.478 29.44C214.358 28.768 213.481 27.8627 212.846 26.724C212.211 25.5853 211.894 24.2973 211.894 22.86C211.894 21.4413 212.211 20.1627 212.846 19.024C213.481 17.8667 214.358 16.952 215.478 16.28C216.598 15.608 217.895 15.272 219.37 15.272C220.826 15.272 222.114 15.608 223.234 16.28C224.354 16.952 225.231 17.8667 225.866 19.024C226.501 20.1627 226.818 21.4413 226.818 22.86C226.818 24.2973 226.501 25.5853 225.866 26.724C225.231 27.8627 224.354 28.768 223.234 29.44C222.114 30.112 220.826 30.448 219.37 30.448ZM219.37 27.676C220.154 27.676 220.882 27.4893 221.554 27.116C222.226 26.724 222.767 26.1733 223.178 25.464C223.607 24.736 223.822 23.868 223.822 22.86C223.822 21.852 223.607 20.9933 223.178 20.284C222.767 19.556 222.226 19.0053 221.554 18.632C220.882 18.24 220.154 18.044 219.37 18.044C218.586 18.044 217.849 18.24 217.158 18.632C216.486 19.0053 215.935 19.556 215.506 20.284C215.095 20.9933 214.89 21.852 214.89 22.86C214.89 23.868 215.095 24.736 215.506 25.464C215.935 26.1733 216.486 26.724 217.158 27.116C217.849 27.4893 218.586 27.676 219.37 27.676ZM243.346 30.448C241.909 30.448 240.64 30.1213 239.538 29.468C238.437 28.8147 237.569 27.9187 236.934 26.78C236.3 25.6227 235.982 24.316 235.982 22.86C235.982 21.404 236.3 20.1067 236.934 18.968C237.569 17.8107 238.437 16.9053 239.538 16.252C240.64 15.5987 241.909 15.272 243.346 15.272C244.933 15.272 246.268 15.6267 247.35 16.336C248.452 17.0453 249.236 18.0067 249.702 19.22L246.958 20.34C246.305 18.8093 245.082 18.044 243.29 18.044C242.506 18.044 241.788 18.2493 241.134 18.66C240.481 19.052 239.958 19.612 239.566 20.34C239.174 21.0493 238.978 21.8893 238.978 22.86C238.978 23.8307 239.174 24.68 239.566 25.408C239.958 26.136 240.481 26.696 241.134 27.088C241.788 27.48 242.506 27.676 243.29 27.676C244.205 27.676 244.98 27.4707 245.614 27.06C246.249 26.6307 246.744 26.052 247.098 25.324L249.786 26.5C249.282 27.6387 248.48 28.5813 247.378 29.328C246.277 30.0747 244.933 30.448 243.346 30.448ZM259.262 30.448C257.787 30.448 256.49 30.112 255.37 29.44C254.25 28.768 253.373 27.8627 252.738 26.724C252.103 25.5853 251.786 24.2973 251.786 22.86C251.786 21.4413 252.103 20.1627 252.738 19.024C253.373 17.8667 254.25 16.952 255.37 16.28C256.49 15.608 257.787 15.272 259.262 15.272C260.718 15.272 262.006 15.608 263.126 16.28C264.246 16.952 265.123 17.8667 265.758 19.024C266.393 20.1627 266.71 21.4413 266.71 22.86C266.71 24.2973 266.393 25.5853 265.758 26.724C265.123 27.8627 264.246 28.768 263.126 29.44C262.006 30.112 260.718 30.448 259.262 30.448ZM259.262 27.676C260.046 27.676 260.774 27.4893 261.446 27.116C262.118 26.724 262.659 26.1733 263.07 25.464C263.499 24.736 263.714 23.868 263.714 22.86C263.714 21.852 263.499 20.9933 263.07 20.284C262.659 19.556 262.118 19.0053 261.446 18.632C260.774 18.24 260.046 18.044 259.262 18.044C258.478 18.044 257.741 18.24 257.05 18.632C256.378 19.0053 255.827 19.556 255.398 20.284C254.987 20.9933 254.782 21.852 254.782 22.86C254.782 23.868 254.987 24.736 255.398 25.464C255.827 26.1733 256.378 26.724 257.05 27.116C257.741 27.4893 258.478 27.676 259.262 27.676ZM269.522 30V15.72H272.378V17.68H272.546C272.956 16.9893 273.563 16.42 274.366 15.972C275.187 15.5053 276.083 15.272 277.054 15.272C278.808 15.272 280.124 15.7947 281.002 16.84C281.879 17.8853 282.318 19.2667 282.318 20.984V30H279.322V21.376C279.322 20.2187 279.032 19.3787 278.454 18.856C277.875 18.3147 277.119 18.044 276.186 18.044C275.458 18.044 274.823 18.2493 274.282 18.66C273.74 19.052 273.311 19.5747 272.994 20.228C272.695 20.8813 272.546 21.5813 272.546 22.328V30H269.522Z" fill="#3C4043"/>
<g id="GPay Logo (Light)">
<g id="GPay">
<g id="Pay">
<path id="Fill 1" fill-rule="evenodd" clip-rule="evenodd" d="M334.529 9.44664V17.6128H339.565C340.765 17.6128 341.757 17.2096 342.541 16.4032C343.347 15.5988 343.75 14.6394 343.75 13.5288C343.75 12.4406 343.347 11.4924 342.541 10.686C341.757 9.85915 340.765 9.44478 339.565 9.44478H334.529V9.44664ZM334.529 20.4872V29.9599H331.521V6.57217H339.499C341.527 6.57217 343.248 7.24786 344.666 8.59737C346.105 9.94688 346.824 11.5913 346.824 13.5288C346.824 15.511 346.105 17.1667 344.666 18.4938C343.27 19.8227 341.547 20.4854 339.499 20.4854H334.529V20.4872Z" fill="#5F6368"/>
<path id="Fill 3" fill-rule="evenodd" clip-rule="evenodd" d="M349.864 25.0602C349.864 25.8442 350.197 26.4975 350.862 27.0201C351.527 27.5427 352.306 27.804 353.2 27.804C354.465 27.804 355.591 27.3354 356.584 26.4004C357.576 25.4634 358.071 24.364 358.071 23.1022C357.133 22.3612 355.825 21.9916 354.147 21.9916C352.925 21.9916 351.907 22.2865 351.09 22.8745C350.273 23.4623 349.864 24.1886 349.864 25.0602ZM353.756 13.4317C355.98 13.4317 357.735 14.0252 359.022 15.2124C360.308 16.3995 360.95 18.0271 360.95 20.0952V29.9599H358.073V27.7387H357.942C356.699 29.5677 355.042 30.4825 352.972 30.4825C351.206 30.4825 349.728 29.9599 348.541 28.9146C347.353 27.8694 346.759 26.5628 346.759 24.9949C346.759 23.3393 347.385 22.0232 348.638 21.0434C349.892 20.0635 351.565 19.5726 353.658 19.5726C355.444 19.5726 356.916 19.8992 358.071 20.5525V19.8656C358.071 18.8204 357.656 17.9338 356.829 17.204C355.999 16.4741 355.031 16.1102 353.919 16.1102C352.239 16.1102 350.911 16.8176 349.93 18.2343L347.28 16.5675C348.741 14.4769 350.899 13.4317 353.756 13.4317Z" fill="#5F6368"/>
<path id="Fill 5" fill-rule="evenodd" clip-rule="evenodd" d="M377.463 13.9543L367.424 37.0154H364.318L368.046 28.9464L361.44 13.9543H364.71L369.484 25.4522H369.55L374.193 13.9543H377.463Z" fill="#5F6368"/>
</g>
<g id="G">
<path id="Fill 8" fill-rule="evenodd" clip-rule="evenodd" d="M322.373 18.4452C322.373 17.4989 322.293 16.5861 322.141 15.7126H309.454V20.8885H316.72C316.408 22.5757 315.465 24.0112 314.033 24.9725V28.3341H318.37C320.91 25.9935 322.373 22.5348 322.373 18.4452Z" fill="#4285F4"/>
<path id="Fill 10" fill-rule="evenodd" clip-rule="evenodd" d="M309.454 31.5782C313.084 31.5782 316.141 30.3873 318.37 28.3341L314.033 24.9725C312.826 25.7844 311.272 26.2585 309.454 26.2585C305.944 26.2585 302.966 23.8955 301.901 20.7112H297.433V24.1736C299.647 28.5637 304.197 31.5782 309.454 31.5782Z" fill="#34A853"/>
<path id="Fill 12" fill-rule="evenodd" clip-rule="evenodd" d="M301.901 20.7111C301.628 19.8992 301.479 19.0331 301.479 18.139C301.479 17.245 301.628 16.3789 301.901 15.567V12.1045H297.433C296.518 13.9188 296 15.9683 296 18.139C296 20.3098 296.518 22.3595 297.433 24.1736L301.901 20.7111Z" fill="#FABB05"/>
<path id="Fill 14" fill-rule="evenodd" clip-rule="evenodd" d="M309.454 10.0196C311.436 10.0196 313.213 10.7009 314.615 12.0355V12.0374L318.455 8.20162C316.123 6.03271 313.082 4.7 309.454 4.7C304.197 4.7 299.647 7.71446 297.433 12.1046L301.901 15.567C302.966 12.3827 305.944 10.0196 309.454 10.0196Z" fill="#E94235"/>
</g>
</g>
</g>
</g>
</svg>
