<svg width="222" height="21" viewBox="0 0 222 21" fill="none" xmlns="http://www.w3.org/2000/svg">
<g id="it_donate_with_Pay_NBG">
<path id="Left Text" d="M1.63975 15.0006V3.54461H8.58375V5.20861H3.39975V8.56861H8.07175V10.2326H3.39975V15.0006H1.63975ZM12.5774 15.2566C11.9907 15.2566 11.468 15.1393 11.0094 14.9046C10.5614 14.6699 10.204 14.3499 9.93737 13.9446C9.68137 13.5286 9.55337 13.0539 9.55337 12.5206C9.55337 11.9339 9.70271 11.4379 10.0014 11.0326C10.3107 10.6273 10.7214 10.3179 11.2334 10.1046C11.7454 9.89128 12.3107 9.78461 12.9294 9.78461C13.2707 9.78461 13.5854 9.81128 13.8734 9.86461C14.172 9.90728 14.428 9.96061 14.6414 10.0246C14.8654 10.0886 15.0414 10.1579 15.1694 10.2326V9.80061C15.1694 9.26728 14.9774 8.84061 14.5934 8.52061C14.2094 8.20061 13.7134 8.04061 13.1054 8.04061C12.6894 8.04061 12.2947 8.13661 11.9214 8.32861C11.548 8.50994 11.2494 8.76061 11.0254 9.08061L9.84137 8.16861C10.076 7.83794 10.3587 7.55528 10.6894 7.32061C11.0307 7.08594 11.4094 6.90461 11.8254 6.77661C12.252 6.64861 12.6947 6.58461 13.1534 6.58461C14.3374 6.58461 15.2494 6.87794 15.8894 7.46461C16.5294 8.04061 16.8494 8.85128 16.8494 9.89661V15.0006H15.1694V13.9926H15.0734C14.9347 14.2059 14.7427 14.4086 14.4974 14.6006C14.2627 14.7926 13.98 14.9473 13.6494 15.0646C13.3294 15.1926 12.972 15.2566 12.5774 15.2566ZM12.8814 13.8486C13.3294 13.8486 13.724 13.7419 14.0654 13.5286C14.4174 13.3153 14.6894 13.0379 14.8814 12.6966C15.0734 12.3446 15.1694 11.9659 15.1694 11.5606C14.9347 11.4219 14.6467 11.3099 14.3054 11.2246C13.9747 11.1286 13.6227 11.0806 13.2494 11.0806C12.5454 11.0806 12.044 11.2193 11.7454 11.4966C11.4467 11.7739 11.2974 12.1206 11.2974 12.5366C11.2974 12.9206 11.4414 13.2353 11.7294 13.4806C12.0174 13.7259 12.4014 13.8486 12.8814 13.8486ZM19.0297 15.0006V6.84061H20.7577V15.0006H19.0297ZM19.8937 5.64061C19.5737 5.64061 19.2964 5.52861 19.0617 5.30461C18.8377 5.06994 18.7257 4.79261 18.7257 4.47261C18.7257 4.14194 18.8377 3.86994 19.0617 3.65661C19.2964 3.43261 19.5737 3.32061 19.8937 3.32061C20.2244 3.32061 20.5017 3.43261 20.7257 3.65661C20.9497 3.86994 21.0617 4.14194 21.0617 4.47261C21.0617 4.79261 20.9497 5.06994 20.7257 5.30461C20.5017 5.52861 20.2244 5.64061 19.8937 5.64061ZM29.8961 15.2566C28.8935 15.2566 28.1361 14.9579 27.6241 14.3606C27.1228 13.7526 26.8721 12.9313 26.8721 11.8966V6.84061H28.6001V11.6566C28.6001 12.3393 28.7601 12.8459 29.0801 13.1766C29.4108 13.5073 29.8215 13.6726 30.3121 13.6726C30.7601 13.6726 31.1441 13.5606 31.4641 13.3366C31.7841 13.1019 32.0295 12.7979 32.2001 12.4246C32.3815 12.0513 32.4721 11.6513 32.4721 11.2246V6.84061H34.1841V15.0006H32.5681V13.8966H32.4721C32.3228 14.1526 32.1148 14.3819 31.8481 14.5846C31.5815 14.7873 31.2828 14.9473 30.9521 15.0646C30.6215 15.1926 30.2695 15.2566 29.8961 15.2566ZM36.3674 15.0006V6.84061H37.9994V7.96061H38.0954C38.33 7.56594 38.6767 7.24061 39.1354 6.98461C39.6047 6.71794 40.1167 6.58461 40.6714 6.58461C41.674 6.58461 42.426 6.88328 42.9274 7.48061C43.4287 8.06728 43.6794 8.85661 43.6794 9.84861V15.0006H41.9674V10.0726C41.9674 9.41128 41.802 8.93128 41.4714 8.63261C41.1407 8.32328 40.7087 8.16861 40.1754 8.16861C39.7594 8.16861 39.3967 8.28594 39.0874 8.52061C38.778 8.74461 38.5327 9.04328 38.3514 9.41661C38.1807 9.78994 38.0954 10.1899 38.0954 10.6166V15.0006H36.3674ZM48.2805 15.2566C47.6938 15.2566 47.1712 15.1393 46.7125 14.9046C46.2645 14.6699 45.9072 14.3499 45.6405 13.9446C45.3845 13.5286 45.2565 13.0539 45.2565 12.5206C45.2565 11.9339 45.4058 11.4379 45.7045 11.0326C46.0138 10.6273 46.4245 10.3179 46.9365 10.1046C47.4485 9.89128 48.0138 9.78461 48.6325 9.78461C48.9738 9.78461 49.2885 9.81128 49.5765 9.86461C49.8752 9.90728 50.1312 9.96061 50.3445 10.0246C50.5685 10.0886 50.7445 10.1579 50.8725 10.2326V9.80061C50.8725 9.26728 50.6805 8.84061 50.2965 8.52061C49.9125 8.20061 49.4165 8.04061 48.8085 8.04061C48.3925 8.04061 47.9978 8.13661 47.6245 8.32861C47.2512 8.50994 46.9525 8.76061 46.7285 9.08061L45.5445 8.16861C45.7792 7.83794 46.0618 7.55528 46.3925 7.32061C46.7338 7.08594 47.1125 6.90461 47.5285 6.77661C47.9552 6.64861 48.3978 6.58461 48.8565 6.58461C50.0405 6.58461 50.9525 6.87794 51.5925 7.46461C52.2325 8.04061 52.5525 8.85128 52.5525 9.89661V15.0006H50.8725V13.9926H50.7765C50.6378 14.2059 50.4458 14.4086 50.2005 14.6006C49.9658 14.7926 49.6832 14.9473 49.3525 15.0646C49.0325 15.1926 48.6752 15.2566 48.2805 15.2566ZM48.5845 13.8486C49.0325 13.8486 49.4272 13.7419 49.7685 13.5286C50.1205 13.3153 50.3925 13.0379 50.5845 12.6966C50.7765 12.3446 50.8725 11.9659 50.8725 11.5606C50.6378 11.4219 50.3498 11.3099 50.0085 11.2246C49.6778 11.1286 49.3258 11.0806 48.9525 11.0806C48.2485 11.0806 47.7472 11.2193 47.4485 11.4966C47.1498 11.7739 47.0005 12.1206 47.0005 12.5366C47.0005 12.9206 47.1445 13.2353 47.4325 13.4806C47.7205 13.7259 48.1045 13.8486 48.5845 13.8486ZM61.9773 15.2566C61.2413 15.2566 60.5746 15.0699 59.9773 14.6966C59.3799 14.3233 58.9106 13.8113 58.5693 13.1606C58.2279 12.5099 58.0573 11.7633 58.0573 10.9206C58.0573 10.0779 58.2279 9.33128 58.5693 8.68061C58.9106 8.02994 59.3799 7.51794 59.9773 7.14461C60.5746 6.77128 61.2413 6.58461 61.9773 6.58461C62.4039 6.58461 62.7879 6.64861 63.1293 6.77661C63.4706 6.90461 63.7639 7.07528 64.0093 7.28861C64.2653 7.49128 64.4626 7.70994 64.6013 7.94461H64.6973L64.6013 6.80861V3.54461H66.3133V15.0006H64.6973V13.9126H64.6013C64.4626 14.1366 64.2653 14.3553 64.0093 14.5686C63.7639 14.7713 63.4706 14.9366 63.1293 15.0646C62.7879 15.1926 62.4039 15.2566 61.9773 15.2566ZM62.2333 13.6726C62.6599 13.6726 63.0599 13.5606 63.4333 13.3366C63.8173 13.1126 64.1213 12.7979 64.3453 12.3926C64.5799 11.9766 64.6973 11.4859 64.6973 10.9206C64.6973 10.3553 64.5799 9.86994 64.3453 9.46461C64.1213 9.04861 63.8173 8.72861 63.4333 8.50461C63.0599 8.28061 62.6599 8.16861 62.2333 8.16861C61.8066 8.16861 61.4066 8.28061 61.0333 8.50461C60.6599 8.72861 60.3559 9.04861 60.1213 9.46461C59.8866 9.86994 59.7693 10.3553 59.7693 10.9206C59.7693 11.4753 59.8866 11.9606 60.1213 12.3766C60.3559 12.7926 60.6599 13.1126 61.0333 13.3366C61.4066 13.5606 61.8066 13.6726 62.2333 13.6726ZM72.2605 15.2566C71.4178 15.2566 70.6765 15.0646 70.0365 14.6806C69.3965 14.2966 68.8952 13.7793 68.5325 13.1286C68.1698 12.4673 67.9885 11.7313 67.9885 10.9206C67.9885 10.1099 68.1698 9.37928 68.5325 8.72861C68.8952 8.06728 69.3965 7.54461 70.0365 7.16061C70.6765 6.77661 71.4178 6.58461 72.2605 6.58461C73.0925 6.58461 73.8285 6.78194 74.4685 7.17661C75.1085 7.56061 75.6098 8.07794 75.9725 8.72861C76.3352 9.37928 76.5165 10.1099 76.5165 10.9206C76.5165 11.7313 76.3352 12.4673 75.9725 13.1286C75.6098 13.7793 75.1085 14.2966 74.4685 14.6806C73.8285 15.0646 73.0925 15.2566 72.2605 15.2566ZM72.2605 13.6726C72.7085 13.6726 73.1245 13.5659 73.5085 13.3526C73.8925 13.1286 74.2018 12.8139 74.4365 12.4086C74.6818 11.9926 74.8045 11.4966 74.8045 10.9206C74.8045 10.3446 74.6818 9.85394 74.4365 9.44861C74.2018 9.03261 73.8925 8.71794 73.5085 8.50461C73.1245 8.28061 72.7085 8.16861 72.2605 8.16861C71.8125 8.16861 71.3912 8.28061 70.9965 8.50461C70.6125 8.71794 70.2978 9.03261 70.0525 9.44861C69.8178 9.85394 69.7005 10.3446 69.7005 10.9206C69.7005 11.4966 69.8178 11.9926 70.0525 12.4086C70.2978 12.8139 70.6178 13.1286 71.0125 13.3526C71.4072 13.5659 71.8232 13.6726 72.2605 13.6726ZM78.1018 15.0006V6.84061H79.7338V7.96061H79.8298C80.0644 7.56594 80.4111 7.24061 80.8698 6.98461C81.3391 6.71794 81.8511 6.58461 82.4058 6.58461C83.4084 6.58461 84.1604 6.88328 84.6618 7.48061C85.1631 8.06728 85.4138 8.85661 85.4138 9.84861V15.0006H83.7018V10.0726C83.7018 9.41128 83.5364 8.93128 83.2058 8.63261C82.8751 8.32328 82.4431 8.16861 81.9098 8.16861C81.4938 8.16861 81.1311 8.28594 80.8218 8.52061C80.5124 8.74461 80.2671 9.04328 80.0858 9.41661C79.9151 9.78994 79.8298 10.1899 79.8298 10.6166V15.0006H78.1018ZM90.0149 15.2566C89.4282 15.2566 88.9055 15.1393 88.4469 14.9046C87.9989 14.6699 87.6415 14.3499 87.3749 13.9446C87.1189 13.5286 86.9909 13.0539 86.9909 12.5206C86.9909 11.9339 87.1402 11.4379 87.4389 11.0326C87.7482 10.6273 88.1589 10.3179 88.6709 10.1046C89.1829 9.89128 89.7482 9.78461 90.3669 9.78461C90.7082 9.78461 91.0229 9.81128 91.3109 9.86461C91.6095 9.90728 91.8655 9.96061 92.0789 10.0246C92.3029 10.0886 92.4789 10.1579 92.6069 10.2326V9.80061C92.6069 9.26728 92.4149 8.84061 92.0309 8.52061C91.6469 8.20061 91.1509 8.04061 90.5429 8.04061C90.1269 8.04061 89.7322 8.13661 89.3589 8.32861C88.9855 8.50994 88.6869 8.76061 88.4629 9.08061L87.2789 8.16861C87.5135 7.83794 87.7962 7.55528 88.1269 7.32061C88.4682 7.08594 88.8469 6.90461 89.2629 6.77661C89.6895 6.64861 90.1322 6.58461 90.5909 6.58461C91.7749 6.58461 92.6869 6.87794 93.3269 7.46461C93.9669 8.04061 94.2869 8.85128 94.2869 9.89661V15.0006H92.6069V13.9926H92.5109C92.3722 14.2059 92.1802 14.4086 91.9349 14.6006C91.7002 14.7926 91.4175 14.9473 91.0869 15.0646C90.7669 15.1926 90.4095 15.2566 90.0149 15.2566ZM90.3189 13.8486C90.7669 13.8486 91.1615 13.7419 91.5029 13.5286C91.8549 13.3153 92.1269 13.0379 92.3189 12.6966C92.5109 12.3446 92.6069 11.9659 92.6069 11.5606C92.3722 11.4219 92.0842 11.3099 91.7429 11.2246C91.4122 11.1286 91.0602 11.0806 90.6869 11.0806C89.9829 11.0806 89.4815 11.2193 89.1829 11.4966C88.8842 11.7739 88.7349 12.1206 88.7349 12.5366C88.7349 12.9206 88.8789 13.2353 89.1669 13.4806C89.4549 13.7259 89.8389 13.8486 90.3189 13.8486ZM95.9076 15.0006V13.5606L100.452 8.34461H96.0516V6.84061H102.564V8.28061L98.0356 13.4966H102.692V15.0006H95.9076ZM104.742 15.0006V6.84061H106.47V15.0006H104.742ZM105.606 5.64061C105.286 5.64061 105.009 5.52861 104.774 5.30461C104.55 5.06994 104.438 4.79261 104.438 4.47261C104.438 4.14194 104.55 3.86994 104.774 3.65661C105.009 3.43261 105.286 3.32061 105.606 3.32061C105.937 3.32061 106.214 3.43261 106.438 3.65661C106.662 3.86994 106.774 4.14194 106.774 4.47261C106.774 4.79261 106.662 5.06994 106.438 5.30461C106.214 5.52861 105.937 5.64061 105.606 5.64061ZM112.526 15.2566C111.683 15.2566 110.942 15.0646 110.302 14.6806C109.662 14.2966 109.161 13.7793 108.798 13.1286C108.435 12.4673 108.254 11.7313 108.254 10.9206C108.254 10.1099 108.435 9.37928 108.798 8.72861C109.161 8.06728 109.662 7.54461 110.302 7.16061C110.942 6.77661 111.683 6.58461 112.526 6.58461C113.358 6.58461 114.094 6.78194 114.734 7.17661C115.374 7.56061 115.875 8.07794 116.238 8.72861C116.601 9.37928 116.782 10.1099 116.782 10.9206C116.782 11.7313 116.601 12.4673 116.238 13.1286C115.875 13.7793 115.374 14.2966 114.734 14.6806C114.094 15.0646 113.358 15.2566 112.526 15.2566ZM112.526 13.6726C112.974 13.6726 113.39 13.5659 113.774 13.3526C114.158 13.1286 114.467 12.8139 114.702 12.4086C114.947 11.9926 115.07 11.4966 115.07 10.9206C115.07 10.3446 114.947 9.85394 114.702 9.44861C114.467 9.03261 114.158 8.71794 113.774 8.50461C113.39 8.28061 112.974 8.16861 112.526 8.16861C112.078 8.16861 111.657 8.28061 111.262 8.50461C110.878 8.71794 110.563 9.03261 110.318 9.44861C110.083 9.85394 109.966 10.3446 109.966 10.9206C109.966 11.4966 110.083 11.9926 110.318 12.4086C110.563 12.8139 110.883 13.1286 111.278 13.3526C111.673 13.5659 112.089 13.6726 112.526 13.6726ZM118.367 15.0006V6.84061H119.999V7.96061H120.095C120.33 7.56594 120.677 7.24061 121.135 6.98461C121.605 6.71794 122.117 6.58461 122.671 6.58461C123.674 6.58461 124.426 6.88328 124.927 7.48061C125.429 8.06728 125.679 8.85661 125.679 9.84861V15.0006H123.967V10.0726C123.967 9.41128 123.802 8.93128 123.471 8.63261C123.141 8.32328 122.709 8.16861 122.175 8.16861C121.759 8.16861 121.397 8.28594 121.087 8.52061C120.778 8.74461 120.533 9.04328 120.351 9.41661C120.181 9.78994 120.095 10.1899 120.095 10.6166V15.0006H118.367ZM131.527 15.2566C130.727 15.2566 130.012 15.0699 129.383 14.6966C128.753 14.3233 128.257 13.8113 127.895 13.1606C127.543 12.5099 127.367 11.7686 127.367 10.9366C127.367 10.1579 127.537 9.43794 127.879 8.77661C128.22 8.11528 128.695 7.58728 129.303 7.19261C129.921 6.78728 130.631 6.58461 131.431 6.58461C132.273 6.58461 132.988 6.76594 133.575 7.12861C134.172 7.49128 134.625 7.98728 134.935 8.61661C135.244 9.24594 135.399 9.95528 135.399 10.7446C135.399 10.8619 135.393 10.9686 135.383 11.0646C135.383 11.1606 135.377 11.2353 135.367 11.2886H129.063C129.105 11.7366 129.217 12.1259 129.399 12.4566C129.633 12.8726 129.943 13.1873 130.327 13.4006C130.711 13.6139 131.127 13.7206 131.575 13.7206C132.119 13.7206 132.572 13.5979 132.935 13.3526C133.308 13.0966 133.601 12.7819 133.815 12.4086L135.239 13.0966C134.887 13.7366 134.407 14.2593 133.799 14.6646C133.191 15.0593 132.433 15.2566 131.527 15.2566ZM129.159 9.99261H133.687C133.676 9.78994 133.623 9.57661 133.527 9.35261C133.431 9.11794 133.292 8.90461 133.111 8.71261C132.929 8.52061 132.7 8.36594 132.423 8.24861C132.145 8.12061 131.82 8.05661 131.447 8.05661C130.977 8.05661 130.561 8.17928 130.199 8.42461C129.836 8.65928 129.553 8.98994 129.351 9.41661C129.265 9.59794 129.201 9.78994 129.159 9.99261ZM144.812 15.2566C143.991 15.2566 143.26 15.0699 142.62 14.6966C141.991 14.3233 141.495 13.8113 141.132 13.1606C140.78 12.4993 140.604 11.7526 140.604 10.9206C140.604 10.0886 140.78 9.34728 141.132 8.69661C141.495 8.04594 141.991 7.53394 142.62 7.16061C143.26 6.77661 143.991 6.58461 144.812 6.58461C145.719 6.58461 146.481 6.78728 147.1 7.19261C147.729 7.59794 148.177 8.14728 148.444 8.84061L146.876 9.48061C146.684 9.04328 146.407 8.71794 146.044 8.50461C145.692 8.28061 145.271 8.16861 144.78 8.16861C144.332 8.16861 143.921 8.28594 143.548 8.52061C143.175 8.74461 142.876 9.05928 142.652 9.46461C142.428 9.86994 142.316 10.3553 142.316 10.9206C142.316 11.4753 142.428 11.9606 142.652 12.3766C142.876 12.7926 143.175 13.1126 143.548 13.3366C143.921 13.5606 144.332 13.6726 144.78 13.6726C145.303 13.6726 145.745 13.5553 146.108 13.3206C146.471 13.0859 146.753 12.7553 146.956 12.3286L148.492 13.0006C148.193 13.6513 147.729 14.1899 147.1 14.6166C146.481 15.0433 145.719 15.2566 144.812 15.2566ZM153.886 15.2566C153.043 15.2566 152.302 15.0646 151.662 14.6806C151.022 14.2966 150.52 13.7793 150.158 13.1286C149.795 12.4673 149.614 11.7313 149.614 10.9206C149.614 10.1099 149.795 9.37928 150.158 8.72861C150.52 8.06728 151.022 7.54461 151.662 7.16061C152.302 6.77661 153.043 6.58461 153.886 6.58461C154.718 6.58461 155.454 6.78194 156.094 7.17661C156.734 7.56061 157.235 8.07794 157.598 8.72861C157.96 9.37928 158.142 10.1099 158.142 10.9206C158.142 11.7313 157.96 12.4673 157.598 13.1286C157.235 13.7793 156.734 14.2966 156.094 14.6806C155.454 15.0646 154.718 15.2566 153.886 15.2566ZM153.886 13.6726C154.334 13.6726 154.75 13.5659 155.134 13.3526C155.518 13.1286 155.827 12.8139 156.062 12.4086C156.307 11.9926 156.43 11.4966 156.43 10.9206C156.43 10.3446 156.307 9.85394 156.062 9.44861C155.827 9.03261 155.518 8.71794 155.134 8.50461C154.75 8.28061 154.334 8.16861 153.886 8.16861C153.438 8.16861 153.016 8.28061 152.622 8.50461C152.238 8.71794 151.923 9.03261 151.678 9.44861C151.443 9.85394 151.326 10.3446 151.326 10.9206C151.326 11.4966 151.443 11.9926 151.678 12.4086C151.923 12.8139 152.243 13.1286 152.638 13.3526C153.032 13.5659 153.448 13.6726 153.886 13.6726ZM159.727 15.0006V6.84061H161.359V7.96061H161.455C161.689 7.56594 162.036 7.24061 162.495 6.98461C162.964 6.71794 163.476 6.58461 164.031 6.58461C165.033 6.58461 165.785 6.88328 166.287 7.48061C166.788 8.06728 167.039 8.85661 167.039 9.84861V15.0006H165.327V10.0726C165.327 9.41128 165.161 8.93128 164.831 8.63261C164.5 8.32328 164.068 8.16861 163.535 8.16861C163.119 8.16861 162.756 8.28594 162.447 8.52061C162.137 8.74461 161.892 9.04328 161.711 9.41661C161.54 9.78994 161.455 10.1899 161.455 10.6166V15.0006H159.727Z" fill="white"/>
<g id="GPay (Dark)">
<g id="GPay">
<g id="Pay">
<path id="Fill 1" fill-rule="evenodd" clip-rule="evenodd" d="M196.356 3.42339V8.16175H199.278C199.974 8.16175 200.55 7.92781 201.005 7.45993C201.473 6.99313 201.707 6.43644 201.707 5.79203C201.707 5.16061 201.473 4.61041 201.005 4.14254C200.55 3.66274 199.974 3.4223 199.278 3.4223H196.356V3.42339ZM196.356 9.82966V15.3262H194.611V1.75549H199.24C200.417 1.75549 201.415 2.14756 202.238 2.93061C203.073 3.71365 203.491 4.66782 203.491 5.79203C203.491 6.94224 203.073 7.90291 202.238 8.67296C201.428 9.44409 200.429 9.82858 199.24 9.82858H196.356V9.82966Z" fill="white"/>
<path id="Fill 3" fill-rule="evenodd" clip-rule="evenodd" d="M205.255 12.4831C205.255 12.9379 205.448 13.317 205.834 13.6203C206.22 13.9235 206.672 14.0752 207.19 14.0752C207.924 14.0752 208.578 13.8032 209.153 13.2607C209.729 12.717 210.017 12.0791 210.017 11.3469C209.472 10.917 208.713 10.7025 207.74 10.7025C207.031 10.7025 206.44 10.8736 205.966 11.2148C205.492 11.5559 205.255 11.9773 205.255 12.4831M207.513 5.73566C208.803 5.73566 209.821 6.08007 210.569 6.76889C211.314 7.45771 211.687 8.40213 211.687 9.60216V15.3261H210.018V14.0373H209.942C209.221 15.0985 208.259 15.6294 207.058 15.6294C206.033 15.6294 205.176 15.3261 204.487 14.7196C203.797 14.1131 203.453 13.3549 203.453 12.4452C203.453 11.4845 203.816 10.7208 204.543 10.1523C205.271 9.58375 206.241 9.2989 207.456 9.2989C208.492 9.2989 209.346 9.48844 210.017 9.86751V9.46894C210.017 8.86243 209.776 8.34798 209.296 7.92451C208.814 7.50103 208.252 7.28984 207.607 7.28984C206.633 7.28984 205.862 7.70032 205.293 8.52235L203.755 7.55519C204.603 6.34217 205.855 5.73566 207.513 5.73566" fill="white"/>
<path id="Fill 5" fill-rule="evenodd" clip-rule="evenodd" d="M221.269 6.03894L215.443 19.4201H213.641L215.804 14.738L211.971 6.03894H213.869L216.639 12.7106H216.677L219.371 6.03894H221.269Z" fill="white"/>
</g>
<g id="G">
<path id="Fill 8" fill-rule="evenodd" clip-rule="evenodd" d="M189.303 8.64473C189.303 8.09563 189.256 7.56601 189.168 7.05914H181.806V10.0625H186.023C185.842 11.0414 185.294 11.8744 184.464 12.4322V14.3828H186.98C188.454 13.0246 189.303 11.0177 189.303 8.64473" fill="#4285F4"/>
<path id="Fill 10" fill-rule="evenodd" clip-rule="evenodd" d="M181.806 16.2651C183.913 16.2651 185.687 15.5741 186.98 14.3828L184.464 12.4322C183.764 12.9033 182.861 13.1784 181.806 13.1784C179.77 13.1784 178.042 11.8073 177.424 9.95959H174.832V11.9687C176.116 14.516 178.757 16.2651 181.806 16.2651" fill="#34A853"/>
<path id="Fill 12" fill-rule="evenodd" clip-rule="evenodd" d="M177.424 9.9596C177.266 9.48847 177.179 8.98593 177.179 8.46715C177.179 7.94837 177.266 7.44583 177.424 6.9747V4.96564H174.832C174.3 6.01837 174 7.20756 174 8.46715C174 9.72674 174.3 10.916 174.832 11.9687L177.424 9.9596Z" fill="#FABB05"/>
<path id="Fill 14" fill-rule="evenodd" clip-rule="evenodd" d="M181.806 3.75583C182.957 3.75583 183.988 4.15115 184.801 4.92553V4.92661L187.029 2.70094C185.676 1.44243 183.912 0.669128 181.806 0.669128C178.757 0.669128 176.116 2.41826 174.832 4.9656L177.424 6.97467C178.042 5.12698 179.77 3.75583 181.806 3.75583" fill="#E94235"/>
</g>
</g>
</g>
</g>
</svg>
