<svg width="220" height="38" viewBox="0 0 220 38" fill="none" xmlns="http://www.w3.org/2000/svg">
<g id="it_donate_with_Light">
<path id="Text" d="M3.39456 30V9.952H9.80656C11.9159 9.952 13.7266 10.3813 15.2386 11.24C16.7692 12.08 17.9452 13.256 18.7666 14.768C19.6066 16.28 20.0266 18.016 20.0266 19.976C20.0266 21.9547 19.6066 23.7 18.7666 25.212C17.9452 26.7053 16.7692 27.8813 15.2386 28.74C13.7266 29.58 11.9159 30 9.80656 30H3.39456ZM6.47456 27.088H9.72256C11.9999 27.088 13.7639 26.4533 15.0146 25.184C16.2839 23.9147 16.9186 22.1787 16.9186 19.976C16.9186 17.7733 16.2839 16.0373 15.0146 14.768C13.7639 13.4987 11.9999 12.864 9.72256 12.864H6.47456V27.088ZM29.6528 30.448C28.1781 30.448 26.8808 30.112 25.7608 29.44C24.6408 28.768 23.7634 27.8627 23.1288 26.724C22.4941 25.5853 22.1768 24.2973 22.1768 22.86C22.1768 21.4413 22.4941 20.1627 23.1288 19.024C23.7634 17.8667 24.6408 16.952 25.7608 16.28C26.8808 15.608 28.1781 15.272 29.6528 15.272C31.1088 15.272 32.3968 15.608 33.5168 16.28C34.6368 16.952 35.5141 17.8667 36.1488 19.024C36.7834 20.1627 37.1008 21.4413 37.1008 22.86C37.1008 24.2973 36.7834 25.5853 36.1488 26.724C35.5141 27.8627 34.6368 28.768 33.5168 29.44C32.3968 30.112 31.1088 30.448 29.6528 30.448ZM29.6528 27.676C30.4368 27.676 31.1648 27.4893 31.8368 27.116C32.5088 26.724 33.0501 26.1733 33.4608 25.464C33.8901 24.736 34.1048 23.868 34.1048 22.86C34.1048 21.852 33.8901 20.9933 33.4608 20.284C33.0501 19.556 32.5088 19.0053 31.8368 18.632C31.1648 18.24 30.4368 18.044 29.6528 18.044C28.8688 18.044 28.1314 18.24 27.4408 18.632C26.7688 19.0053 26.2181 19.556 25.7888 20.284C25.3781 20.9933 25.1728 21.852 25.1728 22.86C25.1728 23.868 25.3781 24.736 25.7888 25.464C26.2181 26.1733 26.7688 26.724 27.4408 27.116C28.1314 27.4893 28.8688 27.676 29.6528 27.676ZM39.9124 30V15.72H42.7684V17.68H42.9364C43.3471 16.9893 43.9538 16.42 44.7564 15.972C45.5778 15.5053 46.4738 15.272 47.4444 15.272C49.1991 15.272 50.5151 15.7947 51.3924 16.84C52.2698 17.8853 52.7084 19.2667 52.7084 20.984V30H49.7124V21.376C49.7124 20.2187 49.4231 19.3787 48.8444 18.856C48.2658 18.3147 47.5098 18.044 46.5764 18.044C45.8484 18.044 45.2138 18.2493 44.6724 18.66C44.1311 19.052 43.7018 19.5747 43.3844 20.228C43.0858 20.8813 42.9364 21.5813 42.9364 22.328V30H39.9124ZM60.7979 30.448C59.7712 30.448 58.8566 30.252 58.0539 29.86C57.2512 29.4493 56.6259 28.88 56.1779 28.152C55.7299 27.424 55.5059 26.5933 55.5059 25.66C55.5059 24.652 55.7672 23.7933 56.2899 23.084C56.8312 22.356 57.5499 21.8053 58.4459 21.432C59.3419 21.0587 60.3312 20.872 61.4139 20.872C62.3099 20.872 63.0939 20.956 63.7659 21.124C64.4566 21.292 64.9792 21.4693 65.3339 21.656V20.9C65.3339 19.9667 64.9979 19.22 64.3259 18.66C63.6539 18.1 62.7859 17.82 61.7219 17.82C60.9939 17.82 60.3032 17.988 59.6499 18.324C58.9966 18.6413 58.4739 19.08 58.0819 19.64L56.0099 18.044C56.6259 17.1853 57.4379 16.5133 58.4459 16.028C59.4726 15.524 60.5926 15.272 61.8059 15.272C63.8779 15.272 65.4739 15.7853 66.5939 16.812C67.7139 17.82 68.2739 19.2387 68.2739 21.068V30H65.3339V28.236H65.1659C64.7926 28.8147 64.2326 29.328 63.4859 29.776C62.7392 30.224 61.8432 30.448 60.7979 30.448ZM61.3299 27.984C62.1139 27.984 62.8046 27.7973 63.4019 27.424C63.9992 27.0507 64.4659 26.5653 64.8019 25.968C65.1566 25.352 65.3339 24.6893 65.3339 23.98C64.9046 23.7373 64.4006 23.5413 63.8219 23.392C63.2432 23.224 62.6272 23.14 61.9739 23.14C60.7419 23.14 59.8646 23.392 59.3419 23.896C58.8192 24.3813 58.5579 24.9787 58.5579 25.688C58.5579 26.36 58.8099 26.9107 59.3139 27.34C59.8179 27.7693 60.4899 27.984 61.3299 27.984ZM85.3462 30.448C83.9089 30.448 82.6396 30.1213 81.5382 29.468C80.4369 28.8147 79.5689 27.9187 78.9342 26.78C78.2996 25.6227 77.9822 24.316 77.9822 22.86C77.9822 21.404 78.2996 20.1067 78.9342 18.968C79.5689 17.8107 80.4369 16.9053 81.5382 16.252C82.6396 15.5987 83.9089 15.272 85.3462 15.272C86.9329 15.272 88.2676 15.6267 89.3502 16.336C90.4516 17.0453 91.2356 18.0067 91.7022 19.22L88.9582 20.34C88.3049 18.8093 87.0822 18.044 85.2902 18.044C84.5062 18.044 83.7876 18.2493 83.1342 18.66C82.4809 19.052 81.9582 19.612 81.5662 20.34C81.1742 21.0493 80.9782 21.8893 80.9782 22.86C80.9782 23.8307 81.1742 24.68 81.5662 25.408C81.9582 26.136 82.4809 26.696 83.1342 27.088C83.7876 27.48 84.5062 27.676 85.2902 27.676C86.2049 27.676 86.9796 27.4707 87.6142 27.06C88.2489 26.6307 88.7436 26.052 89.0982 25.324L91.7862 26.5C91.2822 27.6387 90.4796 28.5813 89.3782 29.328C88.2769 30.0747 86.9329 30.448 85.3462 30.448ZM101.262 30.448C99.7875 30.448 98.4901 30.112 97.3701 29.44C96.2501 28.768 95.3728 27.8627 94.7381 26.724C94.1035 25.5853 93.7861 24.2973 93.7861 22.86C93.7861 21.4413 94.1035 20.1627 94.7381 19.024C95.3728 17.8667 96.2501 16.952 97.3701 16.28C98.4901 15.608 99.7875 15.272 101.262 15.272C102.718 15.272 104.006 15.608 105.126 16.28C106.246 16.952 107.123 17.8667 107.758 19.024C108.393 20.1627 108.71 21.4413 108.71 22.86C108.71 24.2973 108.393 25.5853 107.758 26.724C107.123 27.8627 106.246 28.768 105.126 29.44C104.006 30.112 102.718 30.448 101.262 30.448ZM101.262 27.676C102.046 27.676 102.774 27.4893 103.446 27.116C104.118 26.724 104.659 26.1733 105.07 25.464C105.499 24.736 105.714 23.868 105.714 22.86C105.714 21.852 105.499 20.9933 105.07 20.284C104.659 19.556 104.118 19.0053 103.446 18.632C102.774 18.24 102.046 18.044 101.262 18.044C100.478 18.044 99.7408 18.24 99.0501 18.632C98.3781 19.0053 97.8275 19.556 97.3981 20.284C96.9875 20.9933 96.7821 21.852 96.7821 22.86C96.7821 23.868 96.9875 24.736 97.3981 25.464C97.8275 26.1733 98.3781 26.724 99.0501 27.116C99.7408 27.4893 100.478 27.676 101.262 27.676ZM111.522 30V15.72H114.378V17.68H114.546C114.956 16.9893 115.563 16.42 116.366 15.972C117.187 15.5053 118.083 15.272 119.054 15.272C120.808 15.272 122.124 15.7947 123.002 16.84C123.879 17.8853 124.318 19.2667 124.318 20.984V30H121.322V21.376C121.322 20.2187 121.032 19.3787 120.454 18.856C119.875 18.3147 119.119 18.044 118.186 18.044C117.458 18.044 116.823 18.2493 116.282 18.66C115.74 19.052 115.311 19.5747 114.994 20.228C114.695 20.8813 114.546 21.5813 114.546 22.328V30H111.522Z" fill="#3C4043"/>
<g id="GPay Logo (Light)">
<g id="GPay">
<g id="Pay">
<path id="Fill 1" fill-rule="evenodd" clip-rule="evenodd" d="M176.529 9.44664V17.6128H181.565C182.765 17.6128 183.757 17.2096 184.541 16.4032C185.347 15.5988 185.75 14.6394 185.75 13.5288C185.75 12.4406 185.347 11.4924 184.541 10.686C183.757 9.85915 182.765 9.44478 181.565 9.44478H176.529V9.44664ZM176.529 20.4872V29.9599H173.521V6.57217H181.499C183.527 6.57217 185.248 7.24786 186.666 8.59737C188.105 9.94688 188.824 11.5913 188.824 13.5288C188.824 15.511 188.105 17.1667 186.666 18.4938C185.27 19.8227 183.547 20.4854 181.499 20.4854H176.529V20.4872Z" fill="#5F6368"/>
<path id="Fill 3" fill-rule="evenodd" clip-rule="evenodd" d="M191.864 25.0602C191.864 25.8442 192.197 26.4975 192.862 27.0201C193.527 27.5427 194.306 27.804 195.2 27.804C196.465 27.804 197.591 27.3354 198.584 26.4004C199.576 25.4634 200.071 24.364 200.071 23.1022C199.133 22.3612 197.825 21.9916 196.147 21.9916C194.925 21.9916 193.907 22.2865 193.09 22.8745C192.273 23.4623 191.864 24.1886 191.864 25.0602ZM195.756 13.4317C197.98 13.4317 199.735 14.0252 201.022 15.2124C202.308 16.3995 202.95 18.0271 202.95 20.0952V29.9599H200.073V27.7387H199.942C198.699 29.5677 197.042 30.4825 194.972 30.4825C193.206 30.4825 191.728 29.9599 190.541 28.9146C189.353 27.8694 188.759 26.5628 188.759 24.9949C188.759 23.3393 189.385 22.0232 190.638 21.0434C191.892 20.0635 193.565 19.5726 195.658 19.5726C197.444 19.5726 198.916 19.8992 200.071 20.5525V19.8656C200.071 18.8204 199.656 17.9338 198.829 17.204C197.999 16.4741 197.031 16.1102 195.919 16.1102C194.239 16.1102 192.911 16.8176 191.93 18.2343L189.28 16.5675C190.741 14.4769 192.899 13.4317 195.756 13.4317Z" fill="#5F6368"/>
<path id="Fill 5" fill-rule="evenodd" clip-rule="evenodd" d="M219.463 13.9543L209.424 37.0154H206.318L210.046 28.9464L203.44 13.9543H206.71L211.484 25.4522H211.55L216.193 13.9543H219.463Z" fill="#5F6368"/>
</g>
<g id="G">
<path id="Fill 8" fill-rule="evenodd" clip-rule="evenodd" d="M164.373 18.4452C164.373 17.4989 164.293 16.5861 164.141 15.7126H151.454V20.8885H158.72C158.408 22.5757 157.465 24.0112 156.033 24.9725V28.3341H160.37C162.91 25.9935 164.373 22.5348 164.373 18.4452Z" fill="#4285F4"/>
<path id="Fill 10" fill-rule="evenodd" clip-rule="evenodd" d="M151.454 31.5782C155.084 31.5782 158.141 30.3873 160.37 28.3341L156.033 24.9725C154.826 25.7844 153.272 26.2585 151.454 26.2585C147.944 26.2585 144.966 23.8955 143.901 20.7112H139.433V24.1736C141.647 28.5637 146.197 31.5782 151.454 31.5782Z" fill="#34A853"/>
<path id="Fill 12" fill-rule="evenodd" clip-rule="evenodd" d="M143.901 20.7111C143.628 19.8992 143.479 19.0331 143.479 18.139C143.479 17.245 143.628 16.3789 143.901 15.567V12.1045H139.433C138.518 13.9188 138 15.9683 138 18.139C138 20.3098 138.518 22.3595 139.433 24.1736L143.901 20.7111Z" fill="#FABB05"/>
<path id="Fill 14" fill-rule="evenodd" clip-rule="evenodd" d="M151.454 10.0196C153.436 10.0196 155.213 10.7009 156.615 12.0355V12.0374L160.455 8.20162C158.123 6.03271 155.082 4.7 151.454 4.7C146.197 4.7 141.647 7.71446 139.433 12.1046L143.901 15.567C144.966 12.3827 147.944 10.0196 151.454 10.0196Z" fill="#E94235"/>
</g>
</g>
</g>
</g>
</svg>
