<svg width="242" height="38" viewBox="0 0 242 38" fill="none" xmlns="http://www.w3.org/2000/svg">
<g id="it_order_with_Light">
<path id="Text" d="M12.655 30.448C11.1617 30.448 9.78037 30.1773 8.51103 29.636C7.26037 29.0947 6.16837 28.348 5.23503 27.396C4.3017 26.444 3.5737 25.3333 3.05103 24.064C2.52837 22.7947 2.26703 21.432 2.26703 19.976C2.26703 18.52 2.52837 17.1573 3.05103 15.888C3.5737 14.6187 4.3017 13.508 5.23503 12.556C6.16837 11.604 7.26037 10.8573 8.51103 10.316C9.78037 9.77467 11.1617 9.504 12.655 9.504C14.1297 9.504 15.4924 9.77467 16.743 10.316C18.0124 10.8573 19.1137 11.604 20.047 12.556C20.999 13.508 21.727 14.6187 22.231 15.888C22.7537 17.1573 23.015 18.52 23.015 19.976C23.015 21.432 22.7537 22.7947 22.231 24.064C21.727 25.3333 20.999 26.444 20.047 27.396C19.1137 28.348 18.0124 29.0947 16.743 29.636C15.4924 30.1773 14.1297 30.448 12.655 30.448ZM12.655 27.536C13.999 27.536 15.2217 27.2187 16.323 26.584C17.4244 25.9493 18.3017 25.0627 18.955 23.924C19.6084 22.7853 19.935 21.4693 19.935 19.976C19.935 18.4827 19.6084 17.1667 18.955 16.028C18.3017 14.8893 17.4244 14.0027 16.323 13.368C15.2217 12.7333 13.999 12.416 12.655 12.416C11.311 12.416 10.0884 12.7333 8.98704 13.368C7.8857 14.0027 7.00837 14.8893 6.35503 16.028C5.7017 17.1667 5.37503 18.4827 5.37503 19.976C5.37503 21.4693 5.7017 22.7853 6.35503 23.924C7.00837 25.0627 7.8857 25.9493 8.98704 26.584C10.0884 27.2187 11.311 27.536 12.655 27.536ZM26.3679 30V15.72H29.2239V17.82H29.3919C29.7092 17.092 30.2506 16.4947 31.0159 16.028C31.7999 15.5427 32.6399 15.3 33.5359 15.3C33.9279 15.3 34.2546 15.328 34.5159 15.384C34.7959 15.44 35.0479 15.5053 35.2719 15.58V18.716C34.9172 18.5667 34.5532 18.4453 34.1799 18.352C33.8252 18.2587 33.4519 18.212 33.0599 18.212C32.3506 18.212 31.7159 18.408 31.1559 18.8C30.6146 19.1733 30.1852 19.6867 29.8679 20.34C29.5506 20.9747 29.3919 21.6747 29.3919 22.44V30H26.3679ZM43.1625 30.448C41.8745 30.448 40.7079 30.1307 39.6625 29.496C38.6359 28.8427 37.8145 27.9467 37.1985 26.808C36.6012 25.6507 36.3025 24.3347 36.3025 22.86C36.3025 21.3853 36.6012 20.0787 37.1985 18.94C37.8145 17.8013 38.6359 16.9053 39.6625 16.252C40.7079 15.5987 41.8745 15.272 43.1625 15.272C44.2639 15.272 45.2065 15.5147 45.9905 16C46.7932 16.4853 47.3812 17.036 47.7545 17.652H47.9225L47.7545 15.664V9.952H50.7505V30H47.9225V28.096H47.7545C47.3812 28.712 46.7932 29.2627 45.9905 29.748C45.2065 30.2147 44.2639 30.448 43.1625 30.448ZM43.6105 27.676C44.3572 27.676 45.0572 27.48 45.7105 27.088C46.3825 26.696 46.9145 26.1453 47.3065 25.436C47.7172 24.708 47.9225 23.8493 47.9225 22.86C47.9225 21.8707 47.7172 21.0213 47.3065 20.312C46.9145 19.584 46.3825 19.024 45.7105 18.632C45.0572 18.24 44.3572 18.044 43.6105 18.044C42.8639 18.044 42.1639 18.24 41.5105 18.632C40.8572 19.024 40.3252 19.584 39.9145 20.312C39.5039 21.0213 39.2985 21.8707 39.2985 22.86C39.2985 23.8493 39.5039 24.708 39.9145 25.436C40.3252 26.1453 40.8572 26.696 41.5105 27.088C42.1639 27.48 42.8639 27.676 43.6105 27.676ZM56.3484 13.62C55.7884 13.62 55.3031 13.424 54.8924 13.032C54.5004 12.6213 54.3044 12.136 54.3044 11.576C54.3044 11.016 54.5004 10.54 54.8924 10.148C55.3031 9.756 55.7884 9.56 56.3484 9.56C56.9084 9.56 57.3844 9.756 57.7764 10.148C58.1871 10.54 58.3924 11.016 58.3924 11.576C58.3924 12.136 58.1871 12.6213 57.7764 13.032C57.3844 13.424 56.9084 13.62 56.3484 13.62ZM54.8364 30V15.72H57.8604V30H54.8364ZM61.9124 30V15.72H64.7684V17.68H64.9364C65.3471 16.9893 65.9538 16.42 66.7564 15.972C67.5778 15.5053 68.4738 15.272 69.4444 15.272C71.1991 15.272 72.5151 15.7947 73.3924 16.84C74.2698 17.8853 74.7084 19.2667 74.7084 20.984V30H71.7124V21.376C71.7124 20.2187 71.4231 19.3787 70.8444 18.856C70.2658 18.3147 69.5098 18.044 68.5764 18.044C67.8484 18.044 67.2138 18.2493 66.6724 18.66C66.1311 19.052 65.7018 19.5747 65.3844 20.228C65.0858 20.8813 64.9364 21.5813 64.9364 22.328V30H61.9124ZM82.7979 30.448C81.7712 30.448 80.8566 30.252 80.0539 29.86C79.2512 29.4493 78.6259 28.88 78.1779 28.152C77.7299 27.424 77.5059 26.5933 77.5059 25.66C77.5059 24.652 77.7672 23.7933 78.2899 23.084C78.8312 22.356 79.5499 21.8053 80.4459 21.432C81.3419 21.0587 82.3312 20.872 83.4139 20.872C84.3099 20.872 85.0939 20.956 85.7659 21.124C86.4566 21.292 86.9792 21.4693 87.3339 21.656V20.9C87.3339 19.9667 86.9979 19.22 86.3259 18.66C85.6539 18.1 84.7859 17.82 83.7219 17.82C82.9939 17.82 82.3032 17.988 81.6499 18.324C80.9966 18.6413 80.4739 19.08 80.0819 19.64L78.0099 18.044C78.6259 17.1853 79.4379 16.5133 80.4459 16.028C81.4726 15.524 82.5926 15.272 83.8059 15.272C85.8779 15.272 87.4739 15.7853 88.5939 16.812C89.7139 17.82 90.2739 19.2387 90.2739 21.068V30H87.3339V28.236H87.1659C86.7926 28.8147 86.2326 29.328 85.4859 29.776C84.7392 30.224 83.8432 30.448 82.7979 30.448ZM83.3299 27.984C84.1139 27.984 84.8046 27.7973 85.4019 27.424C85.9992 27.0507 86.4659 26.5653 86.8019 25.968C87.1566 25.352 87.3339 24.6893 87.3339 23.98C86.9046 23.7373 86.4006 23.5413 85.8219 23.392C85.2432 23.224 84.6272 23.14 83.9739 23.14C82.7419 23.14 81.8646 23.392 81.3419 23.896C80.8192 24.3813 80.5579 24.9787 80.5579 25.688C80.5579 26.36 80.8099 26.9107 81.3139 27.34C81.8179 27.7693 82.4899 27.984 83.3299 27.984ZM107.346 30.448C105.909 30.448 104.64 30.1213 103.538 29.468C102.437 28.8147 101.569 27.9187 100.934 26.78C100.3 25.6227 99.9822 24.316 99.9822 22.86C99.9822 21.404 100.3 20.1067 100.934 18.968C101.569 17.8107 102.437 16.9053 103.538 16.252C104.64 15.5987 105.909 15.272 107.346 15.272C108.933 15.272 110.268 15.6267 111.35 16.336C112.452 17.0453 113.236 18.0067 113.702 19.22L110.958 20.34C110.305 18.8093 109.082 18.044 107.29 18.044C106.506 18.044 105.788 18.2493 105.134 18.66C104.481 19.052 103.958 19.612 103.566 20.34C103.174 21.0493 102.978 21.8893 102.978 22.86C102.978 23.8307 103.174 24.68 103.566 25.408C103.958 26.136 104.481 26.696 105.134 27.088C105.788 27.48 106.506 27.676 107.29 27.676C108.205 27.676 108.98 27.4707 109.614 27.06C110.249 26.6307 110.744 26.052 111.098 25.324L113.786 26.5C113.282 27.6387 112.48 28.5813 111.378 29.328C110.277 30.0747 108.933 30.448 107.346 30.448ZM123.262 30.448C121.787 30.448 120.49 30.112 119.37 29.44C118.25 28.768 117.373 27.8627 116.738 26.724C116.103 25.5853 115.786 24.2973 115.786 22.86C115.786 21.4413 116.103 20.1627 116.738 19.024C117.373 17.8667 118.25 16.952 119.37 16.28C120.49 15.608 121.787 15.272 123.262 15.272C124.718 15.272 126.006 15.608 127.126 16.28C128.246 16.952 129.123 17.8667 129.758 19.024C130.393 20.1627 130.71 21.4413 130.71 22.86C130.71 24.2973 130.393 25.5853 129.758 26.724C129.123 27.8627 128.246 28.768 127.126 29.44C126.006 30.112 124.718 30.448 123.262 30.448ZM123.262 27.676C124.046 27.676 124.774 27.4893 125.446 27.116C126.118 26.724 126.659 26.1733 127.07 25.464C127.499 24.736 127.714 23.868 127.714 22.86C127.714 21.852 127.499 20.9933 127.07 20.284C126.659 19.556 126.118 19.0053 125.446 18.632C124.774 18.24 124.046 18.044 123.262 18.044C122.478 18.044 121.741 18.24 121.05 18.632C120.378 19.0053 119.827 19.556 119.398 20.284C118.987 20.9933 118.782 21.852 118.782 22.86C118.782 23.868 118.987 24.736 119.398 25.464C119.827 26.1733 120.378 26.724 121.05 27.116C121.741 27.4893 122.478 27.676 123.262 27.676ZM133.522 30V15.72H136.378V17.68H136.546C136.956 16.9893 137.563 16.42 138.366 15.972C139.187 15.5053 140.083 15.272 141.054 15.272C142.808 15.272 144.124 15.7947 145.002 16.84C145.879 17.8853 146.318 19.2667 146.318 20.984V30H143.322V21.376C143.322 20.2187 143.032 19.3787 142.454 18.856C141.875 18.3147 141.119 18.044 140.186 18.044C139.458 18.044 138.823 18.2493 138.282 18.66C137.74 19.052 137.311 19.5747 136.994 20.228C136.695 20.8813 136.546 21.5813 136.546 22.328V30H133.522Z" fill="#3C4043"/>
<g id="GPay Logo (Light)">
<g id="GPay">
<g id="Pay">
<path id="Fill 1" fill-rule="evenodd" clip-rule="evenodd" d="M198.529 9.44664V17.6128H203.565C204.765 17.6128 205.757 17.2096 206.541 16.4032C207.347 15.5988 207.75 14.6394 207.75 13.5288C207.75 12.4406 207.347 11.4924 206.541 10.686C205.757 9.85915 204.765 9.44478 203.565 9.44478H198.529V9.44664ZM198.529 20.4872V29.9599H195.521V6.57217H203.499C205.527 6.57217 207.248 7.24786 208.666 8.59737C210.105 9.94688 210.824 11.5913 210.824 13.5288C210.824 15.511 210.105 17.1667 208.666 18.4938C207.27 19.8227 205.547 20.4854 203.499 20.4854H198.529V20.4872Z" fill="#5F6368"/>
<path id="Fill 3" fill-rule="evenodd" clip-rule="evenodd" d="M213.864 25.0602C213.864 25.8442 214.197 26.4975 214.862 27.0201C215.527 27.5427 216.306 27.804 217.2 27.804C218.465 27.804 219.591 27.3354 220.584 26.4004C221.576 25.4634 222.071 24.364 222.071 23.1022C221.133 22.3612 219.825 21.9916 218.147 21.9916C216.925 21.9916 215.907 22.2865 215.09 22.8745C214.273 23.4623 213.864 24.1886 213.864 25.0602ZM217.756 13.4317C219.98 13.4317 221.735 14.0252 223.022 15.2124C224.308 16.3995 224.95 18.0271 224.95 20.0952V29.9599H222.073V27.7387H221.942C220.699 29.5677 219.042 30.4825 216.972 30.4825C215.206 30.4825 213.728 29.9599 212.541 28.9146C211.353 27.8694 210.759 26.5628 210.759 24.9949C210.759 23.3393 211.385 22.0232 212.638 21.0434C213.892 20.0635 215.565 19.5726 217.658 19.5726C219.444 19.5726 220.916 19.8992 222.071 20.5525V19.8656C222.071 18.8204 221.656 17.9338 220.829 17.204C219.999 16.4741 219.031 16.1102 217.919 16.1102C216.239 16.1102 214.911 16.8176 213.93 18.2343L211.28 16.5675C212.741 14.4769 214.899 13.4317 217.756 13.4317Z" fill="#5F6368"/>
<path id="Fill 5" fill-rule="evenodd" clip-rule="evenodd" d="M241.463 13.9543L231.424 37.0154H228.318L232.046 28.9464L225.44 13.9543H228.71L233.484 25.4522H233.55L238.193 13.9543H241.463Z" fill="#5F6368"/>
</g>
<g id="G">
<path id="Fill 8" fill-rule="evenodd" clip-rule="evenodd" d="M186.373 18.4452C186.373 17.4989 186.293 16.5861 186.141 15.7126H173.454V20.8885H180.72C180.408 22.5757 179.465 24.0112 178.033 24.9725V28.3341H182.37C184.91 25.9935 186.373 22.5348 186.373 18.4452Z" fill="#4285F4"/>
<path id="Fill 10" fill-rule="evenodd" clip-rule="evenodd" d="M173.454 31.5782C177.084 31.5782 180.141 30.3873 182.37 28.3341L178.033 24.9725C176.826 25.7844 175.272 26.2585 173.454 26.2585C169.944 26.2585 166.966 23.8955 165.901 20.7112H161.433V24.1736C163.647 28.5637 168.197 31.5782 173.454 31.5782Z" fill="#34A853"/>
<path id="Fill 12" fill-rule="evenodd" clip-rule="evenodd" d="M165.901 20.7111C165.628 19.8992 165.479 19.0331 165.479 18.139C165.479 17.245 165.628 16.3789 165.901 15.567V12.1045H161.433C160.518 13.9188 160 15.9683 160 18.139C160 20.3098 160.518 22.3595 161.433 24.1736L165.901 20.7111Z" fill="#FABB05"/>
<path id="Fill 14" fill-rule="evenodd" clip-rule="evenodd" d="M173.454 10.0196C175.436 10.0196 177.213 10.7009 178.615 12.0355V12.0374L182.455 8.20162C180.123 6.03271 177.082 4.7 173.454 4.7C168.197 4.7 163.647 7.71446 161.433 12.1046L165.901 15.567C166.966 12.3827 169.944 10.0196 173.454 10.0196Z" fill="#E94235"/>
</g>
</g>
</g>
</g>
</svg>
