<svg width="138" height="21" viewBox="0 0 138 21" fill="none" xmlns="http://www.w3.org/2000/svg">
<g id="it_order_with_Pay_NBG">
<path id="Left Text" d="M6.85288 15.2566C5.99954 15.2566 5.21021 15.1019 4.48488 14.7926C3.77021 14.4833 3.14621 14.0566 2.61288 13.5126C2.07954 12.9579 1.66354 12.3233 1.36488 11.6086C1.06621 10.8833 0.916877 10.1046 0.916877 9.27261C0.916877 8.44061 1.06621 7.66728 1.36488 6.95261C1.66354 6.22728 2.07954 5.59261 2.61288 5.04861C3.14621 4.49394 3.77021 4.06194 4.48488 3.75261C5.21021 3.44328 5.99954 3.28861 6.85288 3.28861C7.70621 3.28861 8.49021 3.44328 9.20488 3.75261C9.91954 4.06194 10.5435 4.49394 11.0769 5.04861C11.6209 5.59261 12.0369 6.22728 12.3249 6.95261C12.6235 7.66728 12.7729 8.44061 12.7729 9.27261C12.7729 10.1046 12.6235 10.8833 12.3249 11.6086C12.0369 12.3233 11.6209 12.9579 11.0769 13.5126C10.5435 14.0566 9.91954 14.4833 9.20488 14.7926C8.49021 15.1019 7.70621 15.2566 6.85288 15.2566ZM6.85288 13.5926C7.63154 13.5926 8.33021 13.4113 8.94888 13.0486C9.57821 12.6859 10.0795 12.1793 10.4529 11.5286C10.8262 10.8779 11.0129 10.1259 11.0129 9.27261C11.0129 8.40861 10.8262 7.65661 10.4529 7.01661C10.0795 6.36594 9.57821 5.85928 8.94888 5.49661C8.33021 5.13394 7.63154 4.95261 6.85288 4.95261C6.08488 4.95261 5.38621 5.13394 4.75688 5.49661C4.12754 5.85928 3.62621 6.36594 3.25288 7.01661C2.87954 7.65661 2.69288 8.40861 2.69288 9.27261C2.69288 10.1259 2.87954 10.8779 3.25288 11.5286C3.62621 12.1793 4.12754 12.6859 4.75688 13.0486C5.38621 13.4113 6.08488 13.5926 6.85288 13.5926ZM14.6674 15.0006V6.84061H16.2994V8.04061H16.3954C16.5234 7.76328 16.7047 7.51794 16.9394 7.30461C17.1847 7.09128 17.462 6.92061 17.7714 6.79261C18.0914 6.66461 18.422 6.60061 18.7634 6.60061C18.9874 6.60061 19.174 6.61661 19.3234 6.64861C19.4834 6.66994 19.6274 6.70728 19.7554 6.76061V8.55261C19.5527 8.46728 19.3447 8.39794 19.1314 8.34461C18.9287 8.29128 18.7154 8.26461 18.4914 8.26461C18.086 8.26461 17.7234 8.37661 17.4034 8.60061C17.094 8.81394 16.8487 9.10194 16.6674 9.46461C16.486 9.82728 16.3954 10.2326 16.3954 10.6806V15.0006H14.6674ZM24.2429 15.2566C23.5069 15.2566 22.8402 15.0699 22.2429 14.6966C21.6455 14.3233 21.1762 13.8113 20.8349 13.1606C20.4935 12.5099 20.3229 11.7633 20.3229 10.9206C20.3229 10.0779 20.4935 9.33128 20.8349 8.68061C21.1762 8.02994 21.6455 7.51794 22.2429 7.14461C22.8402 6.77128 23.5069 6.58461 24.2429 6.58461C24.6695 6.58461 25.0535 6.64861 25.3949 6.77661C25.7362 6.90461 26.0295 7.07528 26.2749 7.28861C26.5309 7.49128 26.7282 7.70994 26.8669 7.94461H26.9629L26.8669 6.80861V3.54461H28.5789V15.0006H26.9629V13.9126H26.8669C26.7282 14.1366 26.5309 14.3553 26.2749 14.5686C26.0295 14.7713 25.7362 14.9366 25.3949 15.0646C25.0535 15.1926 24.6695 15.2566 24.2429 15.2566ZM24.4989 13.6726C24.9255 13.6726 25.3255 13.5606 25.6989 13.3366C26.0829 13.1126 26.3869 12.7979 26.6109 12.3926C26.8455 11.9766 26.9629 11.4859 26.9629 10.9206C26.9629 10.3553 26.8455 9.86994 26.6109 9.46461C26.3869 9.04861 26.0829 8.72861 25.6989 8.50461C25.3255 8.28061 24.9255 8.16861 24.4989 8.16861C24.0722 8.16861 23.6722 8.28061 23.2989 8.50461C22.9255 8.72861 22.6215 9.04861 22.3869 9.46461C22.1522 9.86994 22.0349 10.3553 22.0349 10.9206C22.0349 11.4753 22.1522 11.9606 22.3869 12.3766C22.6215 12.7926 22.9255 13.1126 23.2989 13.3366C23.6722 13.5606 24.0722 13.6726 24.4989 13.6726ZM30.8923 15.0006V6.84061H32.6203V15.0006H30.8923ZM31.7563 5.64061C31.4363 5.64061 31.1589 5.52861 30.9243 5.30461C30.7003 5.06994 30.5883 4.79261 30.5883 4.47261C30.5883 4.14194 30.7003 3.86994 30.9243 3.65661C31.1589 3.43261 31.4363 3.32061 31.7563 3.32061C32.0869 3.32061 32.3643 3.43261 32.5883 3.65661C32.8123 3.86994 32.9243 4.14194 32.9243 4.47261C32.9243 4.79261 32.8123 5.06994 32.5883 5.30461C32.3643 5.52861 32.0869 5.64061 31.7563 5.64061ZM34.9143 15.0006V6.84061H36.5463V7.96061H36.6423C36.8769 7.56594 37.2236 7.24061 37.6823 6.98461C38.1516 6.71794 38.6636 6.58461 39.2183 6.58461C40.2209 6.58461 40.9729 6.88328 41.4743 7.48061C41.9756 8.06728 42.2263 8.85661 42.2263 9.84861V15.0006H40.5143V10.0726C40.5143 9.41128 40.3489 8.93128 40.0183 8.63261C39.6876 8.32328 39.2556 8.16861 38.7223 8.16861C38.3063 8.16861 37.9436 8.28594 37.6343 8.52061C37.3249 8.74461 37.0796 9.04328 36.8983 9.41661C36.7276 9.78994 36.6423 10.1899 36.6423 10.6166V15.0006H34.9143ZM46.8274 15.2566C46.2407 15.2566 45.718 15.1393 45.2594 14.9046C44.8114 14.6699 44.454 14.3499 44.1874 13.9446C43.9314 13.5286 43.8034 13.0539 43.8034 12.5206C43.8034 11.9339 43.9527 11.4379 44.2514 11.0326C44.5607 10.6273 44.9714 10.3179 45.4834 10.1046C45.9954 9.89128 46.5607 9.78461 47.1794 9.78461C47.5207 9.78461 47.8354 9.81128 48.1234 9.86461C48.422 9.90728 48.678 9.96061 48.8914 10.0246C49.1154 10.0886 49.2914 10.1579 49.4194 10.2326V9.80061C49.4194 9.26728 49.2274 8.84061 48.8434 8.52061C48.4594 8.20061 47.9634 8.04061 47.3554 8.04061C46.9394 8.04061 46.5447 8.13661 46.1714 8.32861C45.798 8.50994 45.4994 8.76061 45.2754 9.08061L44.0914 8.16861C44.326 7.83794 44.6087 7.55528 44.9394 7.32061C45.2807 7.08594 45.6594 6.90461 46.0754 6.77661C46.502 6.64861 46.9447 6.58461 47.4034 6.58461C48.5874 6.58461 49.4994 6.87794 50.1394 7.46461C50.7794 8.04061 51.0994 8.85128 51.0994 9.89661V15.0006H49.4194V13.9926H49.3234C49.1847 14.2059 48.9927 14.4086 48.7474 14.6006C48.5127 14.7926 48.23 14.9473 47.8994 15.0646C47.5794 15.1926 47.222 15.2566 46.8274 15.2566ZM47.1314 13.8486C47.5794 13.8486 47.974 13.7419 48.3154 13.5286C48.6674 13.3153 48.9394 13.0379 49.1314 12.6966C49.3234 12.3446 49.4194 11.9659 49.4194 11.5606C49.1847 11.4219 48.8967 11.3099 48.5554 11.2246C48.2247 11.1286 47.8727 11.0806 47.4994 11.0806C46.7954 11.0806 46.294 11.2193 45.9954 11.4966C45.6967 11.7739 45.5474 12.1206 45.5474 12.5366C45.5474 12.9206 45.6914 13.2353 45.9794 13.4806C46.2674 13.7259 46.6514 13.8486 47.1314 13.8486ZM60.8121 15.2566C59.9908 15.2566 59.2601 15.0699 58.6201 14.6966C57.9908 14.3233 57.4948 13.8113 57.1321 13.1606C56.7801 12.4993 56.6041 11.7526 56.6041 10.9206C56.6041 10.0886 56.7801 9.34728 57.1321 8.69661C57.4948 8.04594 57.9908 7.53394 58.6201 7.16061C59.2601 6.77661 59.9908 6.58461 60.8121 6.58461C61.7188 6.58461 62.4815 6.78728 63.1001 7.19261C63.7295 7.59794 64.1775 8.14728 64.4441 8.84061L62.8761 9.48061C62.6841 9.04328 62.4068 8.71794 62.0441 8.50461C61.6921 8.28061 61.2708 8.16861 60.7801 8.16861C60.3321 8.16861 59.9215 8.28594 59.5481 8.52061C59.1748 8.74461 58.8761 9.05928 58.6521 9.46461C58.4281 9.86994 58.3161 10.3553 58.3161 10.9206C58.3161 11.4753 58.4281 11.9606 58.6521 12.3766C58.8761 12.7926 59.1748 13.1126 59.5481 13.3366C59.9215 13.5606 60.3321 13.6726 60.7801 13.6726C61.3028 13.6726 61.7455 13.5553 62.1081 13.3206C62.4708 13.0859 62.7535 12.7553 62.9561 12.3286L64.4921 13.0006C64.1935 13.6513 63.7295 14.1899 63.1001 14.6166C62.4815 15.0433 61.7188 15.2566 60.8121 15.2566ZM69.8855 15.2566C69.0428 15.2566 68.3015 15.0646 67.6615 14.6806C67.0215 14.2966 66.5202 13.7793 66.1575 13.1286C65.7948 12.4673 65.6135 11.7313 65.6135 10.9206C65.6135 10.1099 65.7948 9.37928 66.1575 8.72861C66.5202 8.06728 67.0215 7.54461 67.6615 7.16061C68.3015 6.77661 69.0428 6.58461 69.8855 6.58461C70.7175 6.58461 71.4535 6.78194 72.0935 7.17661C72.7335 7.56061 73.2348 8.07794 73.5975 8.72861C73.9602 9.37928 74.1415 10.1099 74.1415 10.9206C74.1415 11.7313 73.9602 12.4673 73.5975 13.1286C73.2348 13.7793 72.7335 14.2966 72.0935 14.6806C71.4535 15.0646 70.7175 15.2566 69.8855 15.2566ZM69.8855 13.6726C70.3335 13.6726 70.7495 13.5659 71.1335 13.3526C71.5175 13.1286 71.8268 12.8139 72.0615 12.4086C72.3068 11.9926 72.4295 11.4966 72.4295 10.9206C72.4295 10.3446 72.3068 9.85394 72.0615 9.44861C71.8268 9.03261 71.5175 8.71794 71.1335 8.50461C70.7495 8.28061 70.3335 8.16861 69.8855 8.16861C69.4375 8.16861 69.0162 8.28061 68.6215 8.50461C68.2375 8.71794 67.9228 9.03261 67.6775 9.44861C67.4428 9.85394 67.3255 10.3446 67.3255 10.9206C67.3255 11.4966 67.4428 11.9926 67.6775 12.4086C67.9228 12.8139 68.2428 13.1286 68.6375 13.3526C69.0322 13.5659 69.4482 13.6726 69.8855 13.6726ZM75.7268 15.0006V6.84061H77.3588V7.96061H77.4548C77.6894 7.56594 78.0361 7.24061 78.4948 6.98461C78.9641 6.71794 79.4761 6.58461 80.0308 6.58461C81.0334 6.58461 81.7854 6.88328 82.2868 7.48061C82.7881 8.06728 83.0388 8.85661 83.0388 9.84861V15.0006H81.3268V10.0726C81.3268 9.41128 81.1614 8.93128 80.8308 8.63261C80.5001 8.32328 80.0681 8.16861 79.5348 8.16861C79.1188 8.16861 78.7561 8.28594 78.4468 8.52061C78.1374 8.74461 77.8921 9.04328 77.7108 9.41661C77.5401 9.78994 77.4548 10.1899 77.4548 10.6166V15.0006H75.7268Z" fill="white"/>
<g id="GPay (Dark)">
<g id="GPay">
<g id="Pay">
<path id="Fill 1" fill-rule="evenodd" clip-rule="evenodd" d="M112.356 3.42339V8.16175H115.278C115.974 8.16175 116.55 7.92781 117.005 7.45993C117.473 6.99313 117.707 6.43644 117.707 5.79203C117.707 5.16061 117.473 4.61041 117.005 4.14254C116.55 3.66274 115.974 3.4223 115.278 3.4223H112.356V3.42339ZM112.356 9.82966V15.3262H110.611V1.75549H115.24C116.417 1.75549 117.415 2.14756 118.238 2.93061C119.073 3.71365 119.491 4.66782 119.491 5.79203C119.491 6.94224 119.073 7.90291 118.238 8.67296C117.428 9.44409 116.429 9.82858 115.24 9.82858H112.356V9.82966Z" fill="white"/>
<path id="Fill 3" fill-rule="evenodd" clip-rule="evenodd" d="M121.255 12.4831C121.255 12.9379 121.448 13.317 121.834 13.6203C122.22 13.9235 122.672 14.0752 123.19 14.0752C123.924 14.0752 124.578 13.8032 125.153 13.2607C125.729 12.717 126.017 12.0791 126.017 11.3469C125.472 10.917 124.713 10.7025 123.74 10.7025C123.031 10.7025 122.44 10.8736 121.966 11.2148C121.492 11.5559 121.255 11.9773 121.255 12.4831M123.513 5.73566C124.803 5.73566 125.821 6.08007 126.569 6.76889C127.314 7.45771 127.687 8.40213 127.687 9.60216V15.3261H126.018V14.0373H125.942C125.221 15.0985 124.259 15.6294 123.058 15.6294C122.033 15.6294 121.176 15.3261 120.487 14.7196C119.797 14.1131 119.453 13.3549 119.453 12.4452C119.453 11.4845 119.816 10.7208 120.543 10.1523C121.271 9.58375 122.241 9.2989 123.456 9.2989C124.492 9.2989 125.346 9.48844 126.017 9.86751V9.46894C126.017 8.86243 125.776 8.34798 125.296 7.92451C124.814 7.50103 124.252 7.28984 123.607 7.28984C122.633 7.28984 121.862 7.70032 121.293 8.52235L119.755 7.55519C120.603 6.34217 121.855 5.73566 123.513 5.73566" fill="white"/>
<path id="Fill 5" fill-rule="evenodd" clip-rule="evenodd" d="M137.269 6.03894L131.443 19.4201H129.641L131.804 14.738L127.971 6.03894H129.869L132.639 12.7106H132.677L135.371 6.03894H137.269Z" fill="white"/>
</g>
<g id="G">
<path id="Fill 8" fill-rule="evenodd" clip-rule="evenodd" d="M105.303 8.64473C105.303 8.09563 105.256 7.56601 105.168 7.05914H97.8065V10.0625H102.023C101.842 11.0414 101.294 11.8744 100.464 12.4322V14.3828H102.98C104.454 13.0246 105.303 11.0177 105.303 8.64473" fill="#4285F4"/>
<path id="Fill 10" fill-rule="evenodd" clip-rule="evenodd" d="M97.8065 16.2651C99.9131 16.2651 101.687 15.5741 102.98 14.3828L100.464 12.4322C99.7635 12.9033 98.8614 13.1784 97.8065 13.1784C95.7703 13.1784 94.042 11.8073 93.424 9.95959H90.8316V11.9687C92.1164 14.516 94.7565 16.2651 97.8065 16.2651" fill="#34A853"/>
<path id="Fill 12" fill-rule="evenodd" clip-rule="evenodd" d="M93.424 9.9596C93.2657 9.48847 93.179 8.98593 93.179 8.46715C93.179 7.94837 93.2657 7.44583 93.424 6.9747V4.96564H90.8316C90.3003 6.01837 90 7.20756 90 8.46715C90 9.72674 90.3003 10.916 90.8316 11.9687L93.424 9.9596Z" fill="#FABB05"/>
<path id="Fill 14" fill-rule="evenodd" clip-rule="evenodd" d="M97.8065 3.75583C98.9568 3.75583 99.9879 4.15115 100.801 4.92553V4.92661L103.029 2.70094C101.676 1.44243 99.912 0.669128 97.8065 0.669128C94.7565 0.669128 92.1164 2.41826 90.8316 4.9656L93.424 6.97467C94.042 5.12698 95.7703 3.75583 97.8065 3.75583" fill="#E94235"/>
</g>
</g>
</g>
</g>
</svg>
