<svg width="216" height="38" viewBox="0 0 216 38" fill="none" xmlns="http://www.w3.org/2000/svg">
<g id="it_pay_with_Dark">
<path id="Text" d="M3.76956 30V9.952H10.6576C11.8709 9.952 12.9722 10.2133 13.9616 10.736C14.9509 11.2587 15.7349 11.9773 16.3136 12.892C16.9109 13.8067 17.2096 14.8707 17.2096 16.084C17.2096 17.2973 16.9109 18.3707 16.3136 19.304C15.7349 20.2187 14.9509 20.9373 13.9616 21.46C12.9722 21.964 11.8709 22.216 10.6576 22.216H6.84956V30H3.76956ZM10.7416 12.864H6.84956V19.304H10.7416C11.4696 19.304 12.0856 19.1547 12.5896 18.856C13.0936 18.5387 13.4762 18.1373 13.7376 17.652C14.0176 17.148 14.1576 16.6253 14.1576 16.084C14.1576 15.5427 14.0176 15.0293 13.7376 14.544C13.4762 14.0587 13.0936 13.6573 12.5896 13.34C12.0856 13.0227 11.4696 12.864 10.7416 12.864ZM24.0963 30.448C23.0697 30.448 22.155 30.252 21.3523 29.86C20.5497 29.4493 19.9243 28.88 19.4763 28.152C19.0283 27.424 18.8043 26.5933 18.8043 25.66C18.8043 24.652 19.0657 23.7933 19.5883 23.084C20.1297 22.356 20.8483 21.8053 21.7443 21.432C22.6403 21.0587 23.6297 20.872 24.7123 20.872C25.6083 20.872 26.3923 20.956 27.0643 21.124C27.755 21.292 28.2777 21.4693 28.6323 21.656V20.9C28.6323 19.9667 28.2963 19.22 27.6243 18.66C26.9523 18.1 26.0843 17.82 25.0203 17.82C24.2923 17.82 23.6017 17.988 22.9483 18.324C22.295 18.6413 21.7723 19.08 21.3803 19.64L19.3083 18.044C19.9243 17.1853 20.7363 16.5133 21.7443 16.028C22.771 15.524 23.891 15.272 25.1043 15.272C27.1763 15.272 28.7723 15.7853 29.8923 16.812C31.0123 17.82 31.5723 19.2387 31.5723 21.068V30H28.6323V28.236H28.4643C28.091 28.8147 27.531 29.328 26.7843 29.776C26.0377 30.224 25.1417 30.448 24.0963 30.448ZM24.6283 27.984C25.4123 27.984 26.103 27.7973 26.7003 27.424C27.2977 27.0507 27.7643 26.5653 28.1003 25.968C28.455 25.352 28.6323 24.6893 28.6323 23.98C28.203 23.7373 27.699 23.5413 27.1203 23.392C26.5417 23.224 25.9257 23.14 25.2723 23.14C24.0403 23.14 23.163 23.392 22.6403 23.896C22.1177 24.3813 21.8563 24.9787 21.8563 25.688C21.8563 26.36 22.1083 26.9107 22.6123 27.34C23.1163 27.7693 23.7883 27.984 24.6283 27.984ZM41.5048 36.496C40.2541 36.496 39.1714 36.2907 38.2568 35.88C37.3608 35.488 36.6328 34.9747 36.0728 34.34C35.5128 33.724 35.1114 33.0893 34.8688 32.436L37.6688 31.26C37.9674 32.0067 38.4434 32.6133 39.0968 33.08C39.7688 33.5653 40.5714 33.808 41.5048 33.808C42.8114 33.808 43.8381 33.416 44.5848 32.632C45.3501 31.848 45.7328 30.7373 45.7328 29.3V27.928H45.5648C45.1168 28.6 44.4914 29.1413 43.6888 29.552C42.9048 29.944 42.0088 30.14 41.0008 30.14C39.7874 30.14 38.6768 29.832 37.6688 29.216C36.6608 28.6 35.8488 27.7413 35.2328 26.64C34.6168 25.52 34.3088 24.2133 34.3088 22.72C34.3088 21.208 34.6168 19.9013 35.2328 18.8C35.8488 17.68 36.6608 16.812 37.6688 16.196C38.6768 15.58 39.7874 15.272 41.0008 15.272C42.0088 15.272 42.9048 15.4773 43.6888 15.888C44.4914 16.2987 45.1168 16.84 45.5648 17.512H45.7328V15.72H48.6168V29.244C48.6168 30.7933 48.3088 32.1093 47.6928 33.192C47.0954 34.2747 46.2648 35.096 45.2008 35.656C44.1368 36.216 42.9048 36.496 41.5048 36.496ZM41.5328 27.396C42.2794 27.396 42.9701 27.2187 43.6048 26.864C44.2394 26.4907 44.7528 25.9587 45.1448 25.268C45.5368 24.5587 45.7328 23.7093 45.7328 22.72C45.7328 21.6933 45.5368 20.8347 45.1448 20.144C44.7528 19.4347 44.2394 18.9027 43.6048 18.548C42.9701 18.1933 42.2794 18.016 41.5328 18.016C40.7861 18.016 40.0861 18.2027 39.4328 18.576C38.7981 18.9307 38.2848 19.4533 37.8928 20.144C37.5008 20.8347 37.3048 21.6933 37.3048 22.72C37.3048 23.728 37.5008 24.5867 37.8928 25.296C38.2848 25.9867 38.7981 26.5093 39.4328 26.864C40.0861 27.2187 40.7861 27.396 41.5328 27.396ZM56.7979 30.448C55.7712 30.448 54.8566 30.252 54.0539 29.86C53.2512 29.4493 52.6259 28.88 52.1779 28.152C51.7299 27.424 51.5059 26.5933 51.5059 25.66C51.5059 24.652 51.7672 23.7933 52.2899 23.084C52.8312 22.356 53.5499 21.8053 54.4459 21.432C55.3419 21.0587 56.3312 20.872 57.4139 20.872C58.3099 20.872 59.0939 20.956 59.7659 21.124C60.4566 21.292 60.9792 21.4693 61.3339 21.656V20.9C61.3339 19.9667 60.9979 19.22 60.3259 18.66C59.6539 18.1 58.7859 17.82 57.7219 17.82C56.9939 17.82 56.3032 17.988 55.6499 18.324C54.9966 18.6413 54.4739 19.08 54.0819 19.64L52.0099 18.044C52.6259 17.1853 53.4379 16.5133 54.4459 16.028C55.4726 15.524 56.5926 15.272 57.8059 15.272C59.8779 15.272 61.4739 15.7853 62.5939 16.812C63.7139 17.82 64.2739 19.2387 64.2739 21.068V30H61.3339V28.236H61.1659C60.7926 28.8147 60.2326 29.328 59.4859 29.776C58.7392 30.224 57.8432 30.448 56.7979 30.448ZM57.3299 27.984C58.1139 27.984 58.8046 27.7973 59.4019 27.424C59.9992 27.0507 60.4659 26.5653 60.8019 25.968C61.1566 25.352 61.3339 24.6893 61.3339 23.98C60.9046 23.7373 60.4006 23.5413 59.8219 23.392C59.2432 23.224 58.6272 23.14 57.9739 23.14C56.7419 23.14 55.8646 23.392 55.3419 23.896C54.8192 24.3813 54.5579 24.9787 54.5579 25.688C54.5579 26.36 54.8099 26.9107 55.3139 27.34C55.8179 27.7693 56.4899 27.984 57.3299 27.984ZM81.3462 30.448C79.9089 30.448 78.6396 30.1213 77.5382 29.468C76.4369 28.8147 75.5689 27.9187 74.9342 26.78C74.2996 25.6227 73.9822 24.316 73.9822 22.86C73.9822 21.404 74.2996 20.1067 74.9342 18.968C75.5689 17.8107 76.4369 16.9053 77.5382 16.252C78.6396 15.5987 79.9089 15.272 81.3462 15.272C82.9329 15.272 84.2676 15.6267 85.3502 16.336C86.4516 17.0453 87.2356 18.0067 87.7022 19.22L84.9582 20.34C84.3049 18.8093 83.0822 18.044 81.2902 18.044C80.5062 18.044 79.7876 18.2493 79.1342 18.66C78.4809 19.052 77.9582 19.612 77.5662 20.34C77.1742 21.0493 76.9782 21.8893 76.9782 22.86C76.9782 23.8307 77.1742 24.68 77.5662 25.408C77.9582 26.136 78.4809 26.696 79.1342 27.088C79.7876 27.48 80.5062 27.676 81.2902 27.676C82.2049 27.676 82.9796 27.4707 83.6142 27.06C84.2489 26.6307 84.7436 26.052 85.0982 25.324L87.7862 26.5C87.2822 27.6387 86.4796 28.5813 85.3782 29.328C84.2769 30.0747 82.9329 30.448 81.3462 30.448ZM97.2621 30.448C95.7875 30.448 94.4901 30.112 93.3701 29.44C92.2501 28.768 91.3728 27.8627 90.7381 26.724C90.1035 25.5853 89.7861 24.2973 89.7861 22.86C89.7861 21.4413 90.1035 20.1627 90.7381 19.024C91.3728 17.8667 92.2501 16.952 93.3701 16.28C94.4901 15.608 95.7875 15.272 97.2621 15.272C98.7181 15.272 100.006 15.608 101.126 16.28C102.246 16.952 103.123 17.8667 103.758 19.024C104.393 20.1627 104.71 21.4413 104.71 22.86C104.71 24.2973 104.393 25.5853 103.758 26.724C103.123 27.8627 102.246 28.768 101.126 29.44C100.006 30.112 98.7181 30.448 97.2621 30.448ZM97.2621 27.676C98.0461 27.676 98.7741 27.4893 99.4461 27.116C100.118 26.724 100.659 26.1733 101.07 25.464C101.499 24.736 101.714 23.868 101.714 22.86C101.714 21.852 101.499 20.9933 101.07 20.284C100.659 19.556 100.118 19.0053 99.4461 18.632C98.7741 18.24 98.0461 18.044 97.2621 18.044C96.4781 18.044 95.7408 18.24 95.0501 18.632C94.3781 19.0053 93.8275 19.556 93.3981 20.284C92.9875 20.9933 92.7821 21.852 92.7821 22.86C92.7821 23.868 92.9875 24.736 93.3981 25.464C93.8275 26.1733 94.3781 26.724 95.0501 27.116C95.7408 27.4893 96.4781 27.676 97.2621 27.676ZM107.522 30V15.72H110.378V17.68H110.546C110.956 16.9893 111.563 16.42 112.366 15.972C113.187 15.5053 114.083 15.272 115.054 15.272C116.808 15.272 118.124 15.7947 119.002 16.84C119.879 17.8853 120.318 19.2667 120.318 20.984V30H117.322V21.376C117.322 20.2187 117.032 19.3787 116.454 18.856C115.875 18.3147 115.119 18.044 114.186 18.044C113.458 18.044 112.823 18.2493 112.282 18.66C111.74 19.052 111.311 19.5747 110.994 20.228C110.695 20.8813 110.546 21.5813 110.546 22.328V30H107.522Z" fill="white"/>
<g id="GPay Logo (Dark)">
<g id="GPay">
<g id="Pay">
<path id="Fill 1" fill-rule="evenodd" clip-rule="evenodd" d="M172.529 9.34665V17.5128H177.565C178.765 17.5128 179.757 17.1096 180.541 16.3032C181.347 15.4988 181.75 14.5394 181.75 13.4288C181.75 12.3406 181.347 11.3924 180.541 10.586C179.757 9.75916 178.765 9.34479 177.565 9.34479H172.529V9.34665ZM172.529 20.3872V29.8599H169.521V6.47218H177.499C179.527 6.47218 181.248 7.14787 182.666 8.49738C184.105 9.84688 184.824 11.4913 184.824 13.4288C184.824 15.411 184.105 17.0667 182.666 18.3938C181.27 19.7227 179.547 20.3854 177.499 20.3854H172.529V20.3872Z" fill="white"/>
<path id="Fill 3" fill-rule="evenodd" clip-rule="evenodd" d="M187.864 24.9602C187.864 25.7442 188.197 26.3975 188.862 26.9201C189.527 27.4427 190.306 27.704 191.2 27.704C192.465 27.704 193.591 27.2354 194.584 26.3004C195.576 25.3634 196.071 24.264 196.071 23.0022C195.133 22.2612 193.825 21.8916 192.147 21.8916C190.925 21.8916 189.907 22.1866 189.09 22.7745C188.273 23.3623 187.864 24.0886 187.864 24.9602ZM191.756 13.3317C193.98 13.3317 195.735 13.9253 197.022 15.1124C198.308 16.2995 198.95 17.9271 198.95 19.9952V29.8599H196.073V27.6387H195.942C194.699 29.4677 193.042 30.3825 190.972 30.3825C189.206 30.3825 187.728 29.8599 186.541 28.8146C185.353 27.7694 184.759 26.4628 184.759 24.8949C184.759 23.2393 185.385 21.9232 186.638 20.9434C187.892 19.9635 189.565 19.4726 191.658 19.4726C193.444 19.4726 194.916 19.7993 196.071 20.4525V19.7657C196.071 18.7204 195.656 17.8338 194.829 17.104C193.999 16.3742 193.031 16.0102 191.919 16.0102C190.239 16.0102 188.911 16.7176 187.93 18.1343L185.28 16.4675C186.741 14.377 188.899 13.3317 191.756 13.3317Z" fill="white"/>
<path id="Fill 5" fill-rule="evenodd" clip-rule="evenodd" d="M215.463 13.8543L205.424 36.9154H202.318L206.046 28.8464L199.44 13.8543H202.71L207.484 25.3522H207.55L212.193 13.8543H215.463Z" fill="white"/>
</g>
<g id="G">
<path id="Fill 8" fill-rule="evenodd" clip-rule="evenodd" d="M160.373 18.3452C160.373 17.3989 160.293 16.4861 160.141 15.6126H147.454V20.7885H154.72C154.408 22.4757 153.465 23.9112 152.033 24.8725V28.2341H156.37C158.91 25.8935 160.373 22.4348 160.373 18.3452Z" fill="#4285F4"/>
<path id="Fill 10" fill-rule="evenodd" clip-rule="evenodd" d="M147.454 31.4782C151.084 31.4782 154.141 30.2873 156.37 28.2341L152.033 24.8725C150.826 25.6844 149.272 26.1585 147.454 26.1585C143.944 26.1585 140.966 23.7955 139.901 20.6112H135.433V24.0736C137.647 28.4637 142.197 31.4782 147.454 31.4782Z" fill="#34A853"/>
<path id="Fill 12" fill-rule="evenodd" clip-rule="evenodd" d="M139.901 20.6111C139.628 19.7992 139.479 18.9331 139.479 18.0391C139.479 17.145 139.628 16.2789 139.901 15.467V12.0045H135.433C134.518 13.8188 134 15.8683 134 18.0391C134 20.2098 134.518 22.2595 135.433 24.0736L139.901 20.6111Z" fill="#FABB05"/>
<path id="Fill 14" fill-rule="evenodd" clip-rule="evenodd" d="M147.454 9.91964C149.436 9.91964 151.213 10.6009 152.615 11.9355V11.9374L156.455 8.10163C154.123 5.93272 151.082 4.60001 147.454 4.60001C142.197 4.60001 137.647 7.61447 135.433 12.0046L139.901 15.467C140.966 12.2827 143.944 9.91964 147.454 9.91964Z" fill="#E94235"/>
</g>
</g>
</g>
</g>
</svg>
