<svg width="123" height="21" viewBox="0 0 123 21" fill="none" xmlns="http://www.w3.org/2000/svg">
<g id="it_pay_with_Pay_NBG">
<path id="Left Text" d="M1.58975 15.0006V3.54461H5.52575C6.21908 3.54461 6.84841 3.69394 7.41375 3.99261C7.97908 4.28061 8.42708 4.69128 8.75775 5.22461C9.09908 5.74728 9.26975 6.35528 9.26975 7.04861C9.26975 7.73128 9.09908 8.33928 8.75775 8.87261C8.42708 9.40594 7.97908 9.82194 7.41375 10.1206C6.84841 10.4086 6.21908 10.5526 5.52575 10.5526H3.34975V15.0006H1.58975ZM3.34975 8.88861H5.57375C5.98975 8.88861 6.34175 8.80328 6.62975 8.63261C6.91775 8.45128 7.13641 8.22194 7.28575 7.94461C7.44575 7.65661 7.52575 7.35794 7.52575 7.04861C7.52575 6.73928 7.44575 6.44594 7.28575 6.16861C7.13641 5.89128 6.91775 5.66194 6.62975 5.48061C6.34175 5.29928 5.98975 5.20861 5.57375 5.20861H3.34975V8.88861ZM13.1836 15.2566C12.597 15.2566 12.0743 15.1393 11.6156 14.9046C11.1676 14.6699 10.8103 14.3499 10.5436 13.9446C10.2876 13.5286 10.1596 13.0539 10.1596 12.5206C10.1596 11.9339 10.309 11.4379 10.6076 11.0326C10.917 10.6273 11.3276 10.3179 11.8396 10.1046C12.3516 9.89128 12.917 9.78461 13.5356 9.78461C13.877 9.78461 14.1916 9.81128 14.4796 9.86461C14.7783 9.90728 15.0343 9.96061 15.2476 10.0246C15.4716 10.0886 15.6476 10.1579 15.7756 10.2326V9.80061C15.7756 9.26728 15.5836 8.84061 15.1996 8.52061C14.8156 8.20061 14.3196 8.04061 13.7116 8.04061C13.2956 8.04061 12.901 8.13661 12.5276 8.32861C12.1543 8.50994 11.8556 8.76061 11.6316 9.08061L10.4476 8.16861C10.6823 7.83794 10.965 7.55528 11.2956 7.32061C11.637 7.08594 12.0156 6.90461 12.4316 6.77661C12.8583 6.64861 13.301 6.58461 13.7596 6.58461C14.9436 6.58461 15.8556 6.87794 16.4956 7.46461C17.1356 8.04061 17.4556 8.85128 17.4556 9.89661V15.0006H15.7756V13.9926H15.6796C15.541 14.2059 15.349 14.4086 15.1036 14.6006C14.869 14.7926 14.5863 14.9473 14.2556 15.0646C13.9356 15.1926 13.5783 15.2566 13.1836 15.2566ZM13.4876 13.8486C13.9356 13.8486 14.3303 13.7419 14.6716 13.5286C15.0236 13.3153 15.2956 13.0379 15.4876 12.6966C15.6796 12.3446 15.7756 11.9659 15.7756 11.5606C15.541 11.4219 15.253 11.3099 14.9116 11.2246C14.581 11.1286 14.229 11.0806 13.8556 11.0806C13.1516 11.0806 12.6503 11.2193 12.3516 11.4966C12.053 11.7739 11.9036 12.1206 11.9036 12.5366C11.9036 12.9206 12.0476 13.2353 12.3356 13.4806C12.6236 13.7259 13.0076 13.8486 13.4876 13.8486ZM23.1099 18.7126C22.3952 18.7126 21.7765 18.5953 21.2539 18.3606C20.7419 18.1366 20.3259 17.8433 20.0059 17.4806C19.6859 17.1286 19.4565 16.7659 19.3179 16.3926L20.9179 15.7206C21.0885 16.1473 21.3605 16.4939 21.7339 16.7606C22.1179 17.0379 22.5765 17.1766 23.1099 17.1766C23.8672 17.1766 24.4592 16.9526 24.8859 16.5046C25.3125 16.0566 25.5259 15.4219 25.5259 14.6006V13.8166H25.4299C25.1739 14.1899 24.8219 14.4939 24.3739 14.7286C23.9259 14.9633 23.4085 15.0806 22.8219 15.0806C22.1285 15.0806 21.4885 14.9046 20.9019 14.5526C20.3259 14.2006 19.8619 13.7099 19.5099 13.0806C19.1685 12.4406 18.9979 11.6939 18.9979 10.8406C18.9979 9.97661 19.1685 9.22994 19.5099 8.60061C19.8619 7.96061 20.3259 7.46461 20.9019 7.11261C21.4885 6.76061 22.1285 6.58461 22.8219 6.58461C23.4085 6.58461 23.9259 6.70194 24.3739 6.93661C24.8219 7.16061 25.1739 7.46994 25.4299 7.86461H25.5259V6.84061H27.1739V14.5686C27.1739 15.4539 26.9979 16.2059 26.6459 16.8246C26.3045 17.4433 25.8299 17.9126 25.2219 18.2326C24.6139 18.5526 23.9099 18.7126 23.1099 18.7126ZM23.1259 13.5126C23.5525 13.5126 23.9472 13.4113 24.3099 13.2086C24.6832 12.9953 24.9765 12.6913 25.1899 12.2966C25.4139 11.8913 25.5259 11.4059 25.5259 10.8406C25.5259 10.2433 25.4139 9.74728 25.1899 9.35261C24.9765 8.95794 24.6832 8.65928 24.3099 8.45661C23.9472 8.25394 23.5525 8.15261 23.1259 8.15261C22.6992 8.15261 22.2992 8.25394 21.9259 8.45661C21.5632 8.65928 21.2699 8.96328 21.0459 9.36861C20.8219 9.76328 20.7099 10.2539 20.7099 10.8406C20.7099 11.4166 20.8219 11.9073 21.0459 12.3126C21.2699 12.7073 21.5632 13.0059 21.9259 13.2086C22.2992 13.4113 22.6992 13.5126 23.1259 13.5126ZM31.8274 15.2566C31.2407 15.2566 30.718 15.1393 30.2594 14.9046C29.8114 14.6699 29.454 14.3499 29.1874 13.9446C28.9314 13.5286 28.8034 13.0539 28.8034 12.5206C28.8034 11.9339 28.9527 11.4379 29.2514 11.0326C29.5607 10.6273 29.9714 10.3179 30.4834 10.1046C30.9954 9.89128 31.5607 9.78461 32.1794 9.78461C32.5207 9.78461 32.8354 9.81128 33.1234 9.86461C33.422 9.90728 33.678 9.96061 33.8914 10.0246C34.1154 10.0886 34.2914 10.1579 34.4194 10.2326V9.80061C34.4194 9.26728 34.2274 8.84061 33.8434 8.52061C33.4594 8.20061 32.9634 8.04061 32.3554 8.04061C31.9394 8.04061 31.5447 8.13661 31.1714 8.32861C30.798 8.50994 30.4994 8.76061 30.2754 9.08061L29.0914 8.16861C29.326 7.83794 29.6087 7.55528 29.9394 7.32061C30.2807 7.08594 30.6594 6.90461 31.0754 6.77661C31.502 6.64861 31.9447 6.58461 32.4034 6.58461C33.5874 6.58461 34.4994 6.87794 35.1394 7.46461C35.7794 8.04061 36.0994 8.85128 36.0994 9.89661V15.0006H34.4194V13.9926H34.3234C34.1847 14.2059 33.9927 14.4086 33.7474 14.6006C33.5127 14.7926 33.23 14.9473 32.8994 15.0646C32.5794 15.1926 32.222 15.2566 31.8274 15.2566ZM32.1314 13.8486C32.5794 13.8486 32.974 13.7419 33.3154 13.5286C33.6674 13.3153 33.9394 13.0379 34.1314 12.6966C34.3234 12.3446 34.4194 11.9659 34.4194 11.5606C34.1847 11.4219 33.8967 11.3099 33.5554 11.2246C33.2247 11.1286 32.8727 11.0806 32.4994 11.0806C31.7954 11.0806 31.294 11.2193 30.9954 11.4966C30.6967 11.7739 30.5474 12.1206 30.5474 12.5366C30.5474 12.9206 30.6914 13.2353 30.9794 13.4806C31.2674 13.7259 31.6514 13.8486 32.1314 13.8486ZM45.8121 15.2566C44.9908 15.2566 44.2601 15.0699 43.6201 14.6966C42.9908 14.3233 42.4948 13.8113 42.1321 13.1606C41.7801 12.4993 41.6041 11.7526 41.6041 10.9206C41.6041 10.0886 41.7801 9.34728 42.1321 8.69661C42.4948 8.04594 42.9908 7.53394 43.6201 7.16061C44.2601 6.77661 44.9908 6.58461 45.8121 6.58461C46.7188 6.58461 47.4815 6.78728 48.1001 7.19261C48.7295 7.59794 49.1775 8.14728 49.4441 8.84061L47.8761 9.48061C47.6841 9.04328 47.4068 8.71794 47.0441 8.50461C46.6921 8.28061 46.2708 8.16861 45.7801 8.16861C45.3321 8.16861 44.9215 8.28594 44.5481 8.52061C44.1748 8.74461 43.8761 9.05928 43.6521 9.46461C43.4281 9.86994 43.3161 10.3553 43.3161 10.9206C43.3161 11.4753 43.4281 11.9606 43.6521 12.3766C43.8761 12.7926 44.1748 13.1126 44.5481 13.3366C44.9215 13.5606 45.3321 13.6726 45.7801 13.6726C46.3028 13.6726 46.7455 13.5553 47.1081 13.3206C47.4708 13.0859 47.7535 12.7553 47.9561 12.3286L49.4921 13.0006C49.1935 13.6513 48.7295 14.1899 48.1001 14.6166C47.4815 15.0433 46.7188 15.2566 45.8121 15.2566ZM54.8855 15.2566C54.0428 15.2566 53.3015 15.0646 52.6615 14.6806C52.0215 14.2966 51.5202 13.7793 51.1575 13.1286C50.7948 12.4673 50.6135 11.7313 50.6135 10.9206C50.6135 10.1099 50.7948 9.37928 51.1575 8.72861C51.5202 8.06728 52.0215 7.54461 52.6615 7.16061C53.3015 6.77661 54.0428 6.58461 54.8855 6.58461C55.7175 6.58461 56.4535 6.78194 57.0935 7.17661C57.7335 7.56061 58.2348 8.07794 58.5975 8.72861C58.9602 9.37928 59.1415 10.1099 59.1415 10.9206C59.1415 11.7313 58.9602 12.4673 58.5975 13.1286C58.2348 13.7793 57.7335 14.2966 57.0935 14.6806C56.4535 15.0646 55.7175 15.2566 54.8855 15.2566ZM54.8855 13.6726C55.3335 13.6726 55.7495 13.5659 56.1335 13.3526C56.5175 13.1286 56.8268 12.8139 57.0615 12.4086C57.3068 11.9926 57.4295 11.4966 57.4295 10.9206C57.4295 10.3446 57.3068 9.85394 57.0615 9.44861C56.8268 9.03261 56.5175 8.71794 56.1335 8.50461C55.7495 8.28061 55.3335 8.16861 54.8855 8.16861C54.4375 8.16861 54.0162 8.28061 53.6215 8.50461C53.2375 8.71794 52.9228 9.03261 52.6775 9.44861C52.4428 9.85394 52.3255 10.3446 52.3255 10.9206C52.3255 11.4966 52.4428 11.9926 52.6775 12.4086C52.9228 12.8139 53.2428 13.1286 53.6375 13.3526C54.0322 13.5659 54.4482 13.6726 54.8855 13.6726ZM60.7267 15.0006V6.84061H62.3587V7.96061H62.4547C62.6894 7.56594 63.0361 7.24061 63.4947 6.98461C63.9641 6.71794 64.4761 6.58461 65.0307 6.58461C66.0334 6.58461 66.7854 6.88328 67.2867 7.48061C67.7881 8.06728 68.0387 8.85661 68.0387 9.84861V15.0006H66.3267V10.0726C66.3267 9.41128 66.1614 8.93128 65.8307 8.63261C65.5001 8.32328 65.0681 8.16861 64.5347 8.16861C64.1187 8.16861 63.7561 8.28594 63.4467 8.52061C63.1374 8.74461 62.8921 9.04328 62.7107 9.41661C62.5401 9.78994 62.4547 10.1899 62.4547 10.6166V15.0006H60.7267Z" fill="white"/>
<g id="GPay (Dark)">
<g id="GPay">
<g id="Pay">
<path id="Fill 1" fill-rule="evenodd" clip-rule="evenodd" d="M97.3563 3.42339V8.16175H100.278C100.974 8.16175 101.55 7.92781 102.005 7.45993C102.473 6.99313 102.707 6.43644 102.707 5.79203C102.707 5.16061 102.473 4.61041 102.005 4.14254C101.55 3.66274 100.974 3.4223 100.278 3.4223H97.3563V3.42339ZM97.3563 9.82966V15.3262H95.6107V1.75549H100.24C101.417 1.75549 102.415 2.14756 103.238 2.93061C104.073 3.71365 104.491 4.66782 104.491 5.79203C104.491 6.94224 104.073 7.90291 103.238 8.67296C102.428 9.44409 101.429 9.82858 100.24 9.82858H97.3563V9.82966Z" fill="white"/>
<path id="Fill 3" fill-rule="evenodd" clip-rule="evenodd" d="M106.255 12.4831C106.255 12.9379 106.448 13.317 106.834 13.6203C107.22 13.9235 107.672 14.0752 108.19 14.0752C108.924 14.0752 109.578 13.8032 110.153 13.2607C110.729 12.717 111.017 12.0791 111.017 11.3469C110.472 10.917 109.713 10.7025 108.74 10.7025C108.031 10.7025 107.44 10.8736 106.966 11.2148C106.492 11.5559 106.255 11.9773 106.255 12.4831M108.513 5.73566C109.803 5.73566 110.821 6.08007 111.569 6.76889C112.314 7.45771 112.687 8.40213 112.687 9.60216V15.3261H111.018V14.0373H110.942C110.221 15.0985 109.259 15.6294 108.058 15.6294C107.033 15.6294 106.176 15.3261 105.487 14.7196C104.797 14.1131 104.453 13.3549 104.453 12.4452C104.453 11.4845 104.816 10.7208 105.543 10.1523C106.271 9.58375 107.241 9.2989 108.456 9.2989C109.492 9.2989 110.346 9.48844 111.017 9.86751V9.46894C111.017 8.86243 110.776 8.34798 110.296 7.92451C109.814 7.50103 109.252 7.28984 108.607 7.28984C107.633 7.28984 106.862 7.70032 106.293 8.52235L104.755 7.55519C105.603 6.34217 106.855 5.73566 108.513 5.73566" fill="white"/>
<path id="Fill 5" fill-rule="evenodd" clip-rule="evenodd" d="M122.269 6.03894L116.443 19.4201H114.641L116.804 14.738L112.971 6.03894H114.869L117.639 12.7106H117.677L120.371 6.03894H122.269Z" fill="white"/>
</g>
<g id="G">
<path id="Fill 8" fill-rule="evenodd" clip-rule="evenodd" d="M90.3029 8.64473C90.3029 8.09563 90.2562 7.56601 90.1684 7.05914H82.8065V10.0625H87.0231C86.842 11.0414 86.2944 11.8744 85.4639 12.4322V14.3828H87.9804C89.4539 13.0246 90.3029 11.0177 90.3029 8.64473" fill="#4285F4"/>
<path id="Fill 10" fill-rule="evenodd" clip-rule="evenodd" d="M82.8065 16.2651C84.9131 16.2651 86.6869 15.5741 87.9804 14.3828L85.4639 12.4322C84.7635 12.9033 83.8614 13.1784 82.8065 13.1784C80.7703 13.1784 79.042 11.8073 78.424 9.95959H75.8316V11.9687C77.1164 14.516 79.7565 16.2651 82.8065 16.2651" fill="#34A853"/>
<path id="Fill 12" fill-rule="evenodd" clip-rule="evenodd" d="M78.424 9.9596C78.2657 9.48847 78.179 8.98593 78.179 8.46715C78.179 7.94837 78.2657 7.44583 78.424 6.9747V4.96564H75.8316C75.3003 6.01837 75 7.20756 75 8.46715C75 9.72674 75.3003 10.916 75.8316 11.9687L78.424 9.9596Z" fill="#FABB05"/>
<path id="Fill 14" fill-rule="evenodd" clip-rule="evenodd" d="M82.8065 3.75583C83.9568 3.75583 84.9879 4.15115 85.8011 4.92553V4.92661L88.0292 2.70094C86.6761 1.44243 84.912 0.669128 82.8065 0.669128C79.7565 0.669128 77.1164 2.41826 75.8316 4.9656L78.424 6.97467C79.042 5.12698 80.7703 3.75583 82.8065 3.75583" fill="#E94235"/>
</g>
</g>
</g>
</g>
</svg>
