<svg width="272" height="38" viewBox="0 0 272 38" fill="none" xmlns="http://www.w3.org/2000/svg">
<g id="it_subscribe_with_Dark">
<path id="Text" d="M0.420778 30L7.98078 9.952H11.4808L19.0688 30H15.6808L13.8328 24.848H5.65678L3.80878 30H0.420778ZM8.90478 15.86L6.69278 21.992H12.7968L10.5848 15.86L9.82878 13.564H9.66078L8.90478 15.86ZM29.1769 30.448C28.0755 30.448 27.1235 30.2147 26.3209 29.748C25.5369 29.2627 24.9582 28.712 24.5849 28.096H24.4169V30H21.5609V9.952H24.5849V15.664L24.4169 17.652H24.5849C24.9582 17.036 25.5369 16.4853 26.3209 16C27.1235 15.5147 28.0755 15.272 29.1769 15.272C30.4835 15.272 31.6502 15.5987 32.6769 16.252C33.7035 16.9053 34.5155 17.8013 35.1129 18.94C35.7289 20.0787 36.0369 21.3853 36.0369 22.86C36.0369 24.3347 35.7289 25.6507 35.1129 26.808C34.5155 27.9467 33.7035 28.8427 32.6769 29.496C31.6502 30.1307 30.4835 30.448 29.1769 30.448ZM28.7289 27.676C29.4755 27.676 30.1755 27.48 30.8289 27.088C31.4822 26.696 32.0142 26.1453 32.4249 25.436C32.8355 24.708 33.0409 23.8493 33.0409 22.86C33.0409 21.8707 32.8355 21.0213 32.4249 20.312C32.0142 19.584 31.4822 19.024 30.8289 18.632C30.1755 18.24 29.4755 18.044 28.7289 18.044C27.9822 18.044 27.2822 18.24 26.6289 18.632C25.9755 19.024 25.4435 19.584 25.0329 20.312C24.6222 21.0213 24.4169 21.8707 24.4169 22.86C24.4169 23.8493 24.6222 24.708 25.0329 25.436C25.4435 26.1453 25.9755 26.696 26.6289 27.088C27.2822 27.48 27.9822 27.676 28.7289 27.676ZM46.5941 30.448C45.4927 30.448 44.5407 30.2147 43.7381 29.748C42.9541 29.2627 42.3754 28.712 42.0021 28.096H41.8341V30H38.9781V9.952H42.0021V15.664L41.8341 17.652H42.0021C42.3754 17.036 42.9541 16.4853 43.7381 16C44.5407 15.5147 45.4927 15.272 46.5941 15.272C47.9007 15.272 49.0674 15.5987 50.0941 16.252C51.1207 16.9053 51.9327 17.8013 52.5301 18.94C53.1461 20.0787 53.4541 21.3853 53.4541 22.86C53.4541 24.3347 53.1461 25.6507 52.5301 26.808C51.9327 27.9467 51.1207 28.8427 50.0941 29.496C49.0674 30.1307 47.9007 30.448 46.5941 30.448ZM46.1461 27.676C46.8927 27.676 47.5927 27.48 48.2461 27.088C48.8994 26.696 49.4314 26.1453 49.8421 25.436C50.2527 24.708 50.4581 23.8493 50.4581 22.86C50.4581 21.8707 50.2527 21.0213 49.8421 20.312C49.4314 19.584 48.8994 19.024 48.2461 18.632C47.5927 18.24 46.8927 18.044 46.1461 18.044C45.3994 18.044 44.6994 18.24 44.0461 18.632C43.3927 19.024 42.8607 19.584 42.4501 20.312C42.0394 21.0213 41.8341 21.8707 41.8341 22.86C41.8341 23.8493 42.0394 24.708 42.4501 25.436C42.8607 26.1453 43.3927 26.696 44.0461 27.088C44.6994 27.48 45.3994 27.676 46.1461 27.676ZM63.252 30.448C61.7773 30.448 60.48 30.112 59.36 29.44C58.24 28.768 57.3626 27.8627 56.728 26.724C56.0933 25.5853 55.776 24.2973 55.776 22.86C55.776 21.4413 56.0933 20.1627 56.728 19.024C57.3626 17.8667 58.24 16.952 59.36 16.28C60.48 15.608 61.7773 15.272 63.252 15.272C64.708 15.272 65.996 15.608 67.116 16.28C68.236 16.952 69.1133 17.8667 69.748 19.024C70.3826 20.1627 70.7 21.4413 70.7 22.86C70.7 24.2973 70.3826 25.5853 69.748 26.724C69.1133 27.8627 68.236 28.768 67.116 29.44C65.996 30.112 64.708 30.448 63.252 30.448ZM63.252 27.676C64.036 27.676 64.764 27.4893 65.436 27.116C66.108 26.724 66.6493 26.1733 67.06 25.464C67.4893 24.736 67.704 23.868 67.704 22.86C67.704 21.852 67.4893 20.9933 67.06 20.284C66.6493 19.556 66.108 19.0053 65.436 18.632C64.764 18.24 64.036 18.044 63.252 18.044C62.468 18.044 61.7306 18.24 61.04 18.632C60.368 19.0053 59.8173 19.556 59.388 20.284C58.9773 20.9933 58.772 21.852 58.772 22.86C58.772 23.868 58.9773 24.736 59.388 25.464C59.8173 26.1733 60.368 26.724 61.04 27.116C61.7306 27.4893 62.468 27.676 63.252 27.676ZM73.5117 30V15.72H76.3677V17.68H76.5357C76.9463 16.9893 77.553 16.42 78.3557 15.972C79.177 15.5053 80.073 15.272 81.0437 15.272C82.7983 15.272 84.1143 15.7947 84.9917 16.84C85.869 17.8853 86.3077 19.2667 86.3077 20.984V30H83.3117V21.376C83.3117 20.2187 83.0223 19.3787 82.4437 18.856C81.865 18.3147 81.109 18.044 80.1757 18.044C79.4477 18.044 78.813 18.2493 78.2717 18.66C77.7303 19.052 77.301 19.5747 76.9837 20.228C76.685 20.8813 76.5357 21.5813 76.5357 22.328V30H73.5117ZM94.3971 30.448C93.3705 30.448 92.4558 30.252 91.6531 29.86C90.8505 29.4493 90.2251 28.88 89.7771 28.152C89.3291 27.424 89.1051 26.5933 89.1051 25.66C89.1051 24.652 89.3665 23.7933 89.8891 23.084C90.4305 22.356 91.1491 21.8053 92.0451 21.432C92.9411 21.0587 93.9305 20.872 95.0131 20.872C95.9091 20.872 96.6931 20.956 97.3651 21.124C98.0558 21.292 98.5785 21.4693 98.9331 21.656V20.9C98.9331 19.9667 98.5971 19.22 97.9251 18.66C97.2531 18.1 96.3851 17.82 95.3211 17.82C94.5931 17.82 93.9025 17.988 93.2491 18.324C92.5958 18.6413 92.0731 19.08 91.6811 19.64L89.6091 18.044C90.2251 17.1853 91.0371 16.5133 92.0451 16.028C93.0718 15.524 94.1918 15.272 95.4051 15.272C97.4771 15.272 99.0731 15.7853 100.193 16.812C101.313 17.82 101.873 19.2387 101.873 21.068V30H98.9331V28.236H98.7651C98.3918 28.8147 97.8318 29.328 97.0851 29.776C96.3385 30.224 95.4425 30.448 94.3971 30.448ZM94.9291 27.984C95.7131 27.984 96.4038 27.7973 97.0011 27.424C97.5985 27.0507 98.0651 26.5653 98.4011 25.968C98.7558 25.352 98.9331 24.6893 98.9331 23.98C98.5038 23.7373 97.9998 23.5413 97.4211 23.392C96.8425 23.224 96.2265 23.14 95.5731 23.14C94.3411 23.14 93.4638 23.392 92.9411 23.896C92.4185 24.3813 92.1571 24.9787 92.1571 25.688C92.1571 26.36 92.4091 26.9107 92.9131 27.34C93.4171 27.7693 94.0891 27.984 94.9291 27.984ZM106.741 25.856V18.352H104.249V15.72H106.741V11.688H109.765V15.72H113.265V18.352H109.765V25.212C109.765 25.9213 109.905 26.4627 110.185 26.836C110.484 27.2093 110.978 27.396 111.669 27.396C112.024 27.396 112.322 27.3493 112.565 27.256C112.826 27.1627 113.088 27.032 113.349 26.864V29.804C113.032 29.9347 112.696 30.0373 112.341 30.112C111.986 30.1867 111.566 30.224 111.081 30.224C109.756 30.224 108.701 29.8413 107.917 29.076C107.133 28.292 106.741 27.2187 106.741 25.856ZM118.339 13.62C117.779 13.62 117.294 13.424 116.883 13.032C116.491 12.6213 116.295 12.136 116.295 11.576C116.295 11.016 116.491 10.54 116.883 10.148C117.294 9.756 117.779 9.56 118.339 9.56C118.899 9.56 119.375 9.756 119.767 10.148C120.178 10.54 120.383 11.016 120.383 11.576C120.383 12.136 120.178 12.6213 119.767 13.032C119.375 13.424 118.899 13.62 118.339 13.62ZM116.827 30V15.72H119.851V30H116.827ZM137.346 30.448C135.909 30.448 134.64 30.1213 133.538 29.468C132.437 28.8147 131.569 27.9187 130.934 26.78C130.3 25.6227 129.982 24.316 129.982 22.86C129.982 21.404 130.3 20.1067 130.934 18.968C131.569 17.8107 132.437 16.9053 133.538 16.252C134.64 15.5987 135.909 15.272 137.346 15.272C138.933 15.272 140.268 15.6267 141.35 16.336C142.452 17.0453 143.236 18.0067 143.702 19.22L140.958 20.34C140.305 18.8093 139.082 18.044 137.29 18.044C136.506 18.044 135.788 18.2493 135.134 18.66C134.481 19.052 133.958 19.612 133.566 20.34C133.174 21.0493 132.978 21.8893 132.978 22.86C132.978 23.8307 133.174 24.68 133.566 25.408C133.958 26.136 134.481 26.696 135.134 27.088C135.788 27.48 136.506 27.676 137.29 27.676C138.205 27.676 138.98 27.4707 139.614 27.06C140.249 26.6307 140.744 26.052 141.098 25.324L143.786 26.5C143.282 27.6387 142.48 28.5813 141.378 29.328C140.277 30.0747 138.933 30.448 137.346 30.448ZM153.262 30.448C151.787 30.448 150.49 30.112 149.37 29.44C148.25 28.768 147.373 27.8627 146.738 26.724C146.103 25.5853 145.786 24.2973 145.786 22.86C145.786 21.4413 146.103 20.1627 146.738 19.024C147.373 17.8667 148.25 16.952 149.37 16.28C150.49 15.608 151.787 15.272 153.262 15.272C154.718 15.272 156.006 15.608 157.126 16.28C158.246 16.952 159.123 17.8667 159.758 19.024C160.393 20.1627 160.71 21.4413 160.71 22.86C160.71 24.2973 160.393 25.5853 159.758 26.724C159.123 27.8627 158.246 28.768 157.126 29.44C156.006 30.112 154.718 30.448 153.262 30.448ZM153.262 27.676C154.046 27.676 154.774 27.4893 155.446 27.116C156.118 26.724 156.659 26.1733 157.07 25.464C157.499 24.736 157.714 23.868 157.714 22.86C157.714 21.852 157.499 20.9933 157.07 20.284C156.659 19.556 156.118 19.0053 155.446 18.632C154.774 18.24 154.046 18.044 153.262 18.044C152.478 18.044 151.741 18.24 151.05 18.632C150.378 19.0053 149.827 19.556 149.398 20.284C148.987 20.9933 148.782 21.852 148.782 22.86C148.782 23.868 148.987 24.736 149.398 25.464C149.827 26.1733 150.378 26.724 151.05 27.116C151.741 27.4893 152.478 27.676 153.262 27.676ZM163.522 30V15.72H166.378V17.68H166.546C166.956 16.9893 167.563 16.42 168.366 15.972C169.187 15.5053 170.083 15.272 171.054 15.272C172.808 15.272 174.124 15.7947 175.002 16.84C175.879 17.8853 176.318 19.2667 176.318 20.984V30H173.322V21.376C173.322 20.2187 173.032 19.3787 172.454 18.856C171.875 18.3147 171.119 18.044 170.186 18.044C169.458 18.044 168.823 18.2493 168.282 18.66C167.74 19.052 167.311 19.5747 166.994 20.228C166.695 20.8813 166.546 21.5813 166.546 22.328V30H163.522Z" fill="white"/>
<g id="GPay Logo (Dark)">
<g id="GPay">
<g id="Pay">
<path id="Fill 1" fill-rule="evenodd" clip-rule="evenodd" d="M228.529 9.34665V17.5128H233.565C234.765 17.5128 235.757 17.1096 236.541 16.3032C237.347 15.4988 237.75 14.5394 237.75 13.4288C237.75 12.3406 237.347 11.3924 236.541 10.586C235.757 9.75916 234.765 9.34479 233.565 9.34479H228.529V9.34665ZM228.529 20.3872V29.8599H225.521V6.47218H233.499C235.527 6.47218 237.248 7.14787 238.666 8.49738C240.105 9.84688 240.824 11.4913 240.824 13.4288C240.824 15.411 240.105 17.0667 238.666 18.3938C237.27 19.7227 235.547 20.3854 233.499 20.3854H228.529V20.3872Z" fill="white"/>
<path id="Fill 3" fill-rule="evenodd" clip-rule="evenodd" d="M243.864 24.9602C243.864 25.7442 244.197 26.3975 244.862 26.9201C245.527 27.4427 246.306 27.704 247.2 27.704C248.465 27.704 249.591 27.2354 250.584 26.3004C251.576 25.3634 252.071 24.264 252.071 23.0022C251.133 22.2612 249.825 21.8916 248.147 21.8916C246.925 21.8916 245.907 22.1866 245.09 22.7745C244.273 23.3623 243.864 24.0886 243.864 24.9602ZM247.756 13.3317C249.98 13.3317 251.735 13.9253 253.022 15.1124C254.308 16.2995 254.95 17.9271 254.95 19.9952V29.8599H252.073V27.6387H251.942C250.699 29.4677 249.042 30.3825 246.972 30.3825C245.206 30.3825 243.728 29.8599 242.541 28.8146C241.353 27.7694 240.759 26.4628 240.759 24.8949C240.759 23.2393 241.385 21.9232 242.638 20.9434C243.892 19.9635 245.565 19.4726 247.658 19.4726C249.444 19.4726 250.916 19.7993 252.071 20.4525V19.7657C252.071 18.7204 251.656 17.8338 250.829 17.104C249.999 16.3742 249.031 16.0102 247.919 16.0102C246.239 16.0102 244.911 16.7176 243.93 18.1343L241.28 16.4675C242.741 14.377 244.899 13.3317 247.756 13.3317Z" fill="white"/>
<path id="Fill 5" fill-rule="evenodd" clip-rule="evenodd" d="M271.463 13.8543L261.424 36.9154H258.318L262.046 28.8464L255.44 13.8543H258.71L263.484 25.3522H263.55L268.193 13.8543H271.463Z" fill="white"/>
</g>
<g id="G">
<path id="Fill 8" fill-rule="evenodd" clip-rule="evenodd" d="M216.373 18.3452C216.373 17.3989 216.293 16.4861 216.141 15.6126H203.454V20.7885H210.72C210.408 22.4757 209.465 23.9112 208.033 24.8725V28.2341H212.37C214.91 25.8935 216.373 22.4348 216.373 18.3452Z" fill="#4285F4"/>
<path id="Fill 10" fill-rule="evenodd" clip-rule="evenodd" d="M203.454 31.4782C207.084 31.4782 210.141 30.2873 212.37 28.2341L208.033 24.8725C206.826 25.6844 205.272 26.1585 203.454 26.1585C199.944 26.1585 196.966 23.7955 195.901 20.6112H191.433V24.0736C193.647 28.4637 198.197 31.4782 203.454 31.4782Z" fill="#34A853"/>
<path id="Fill 12" fill-rule="evenodd" clip-rule="evenodd" d="M195.901 20.6111C195.628 19.7992 195.479 18.9331 195.479 18.0391C195.479 17.145 195.628 16.2789 195.901 15.467V12.0045H191.433C190.518 13.8188 190 15.8683 190 18.0391C190 20.2098 190.518 22.2595 191.433 24.0736L195.901 20.6111Z" fill="#FABB05"/>
<path id="Fill 14" fill-rule="evenodd" clip-rule="evenodd" d="M203.454 9.91964C205.436 9.91964 207.213 10.6009 208.615 11.9355V11.9374L212.455 8.10163C210.123 5.93272 207.082 4.60001 203.454 4.60001C198.197 4.60001 193.647 7.61447 191.433 12.0046L195.901 15.467C196.966 12.2827 199.944 9.91964 203.454 9.91964Z" fill="#E94235"/>
</g>
</g>
</g>
</g>
</svg>
