<svg width="156" height="21" viewBox="0 0 156 21" fill="none" xmlns="http://www.w3.org/2000/svg">
<g id="it_subscribe_with_Pay_NBG">
<path id="Left Text" d="M0.761873 15.0006L5.08187 3.54461H7.08187L11.4179 15.0006H9.48187L8.42587 12.0566H3.75387L2.69787 15.0006H0.761873ZM7.83387 10.4246L6.56987 6.92061L6.13787 5.60861H6.04187L5.60987 6.92061L4.34587 10.4246H7.83387ZM17.1725 15.2566C16.7565 15.2566 16.3778 15.1926 16.0365 15.0646C15.6952 14.9366 15.3965 14.7713 15.1405 14.5686C14.8952 14.3553 14.6978 14.1366 14.5485 13.9126H14.4525V15.0006H12.8205V3.54461H14.5485V6.80861L14.4525 7.94461H14.5485C14.6978 7.70994 14.8952 7.49128 15.1405 7.28861C15.3965 7.07528 15.6952 6.90461 16.0365 6.77661C16.3778 6.64861 16.7565 6.58461 17.1725 6.58461C17.9192 6.58461 18.5858 6.77128 19.1725 7.14461C19.7592 7.51794 20.2232 8.02994 20.5645 8.68061C20.9165 9.33128 21.0925 10.0779 21.0925 10.9206C21.0925 11.7633 20.9165 12.5099 20.5645 13.1606C20.2232 13.8113 19.7592 14.3233 19.1725 14.6966C18.5858 15.0699 17.9192 15.2566 17.1725 15.2566ZM16.9165 13.6726C17.3432 13.6726 17.7432 13.5606 18.1165 13.3366C18.5005 13.1126 18.8045 12.7926 19.0285 12.3766C19.2632 11.9606 19.3805 11.4753 19.3805 10.9206C19.3805 10.3553 19.2632 9.86994 19.0285 9.46461C18.8045 9.04861 18.5005 8.72861 18.1165 8.50461C17.7432 8.28061 17.3432 8.16861 16.9165 8.16861C16.4898 8.16861 16.0898 8.28061 15.7165 8.50461C15.3432 8.72861 15.0392 9.04861 14.8045 9.46461C14.5698 9.86994 14.4525 10.3553 14.4525 10.9206C14.4525 11.4859 14.5698 11.9766 14.8045 12.3926C15.0392 12.7979 15.3432 13.1126 15.7165 13.3366C16.0898 13.5606 16.4898 13.6726 16.9165 13.6726ZM27.1037 15.2566C26.6877 15.2566 26.3091 15.1926 25.9677 15.0646C25.6264 14.9366 25.3277 14.7713 25.0717 14.5686C24.8264 14.3553 24.6291 14.1366 24.4797 13.9126H24.3837V15.0006H22.7517V3.54461H24.4797V6.80861L24.3837 7.94461H24.4797C24.6291 7.70994 24.8264 7.49128 25.0717 7.28861C25.3277 7.07528 25.6264 6.90461 25.9677 6.77661C26.3091 6.64861 26.6877 6.58461 27.1037 6.58461C27.8504 6.58461 28.5171 6.77128 29.1037 7.14461C29.6904 7.51794 30.1544 8.02994 30.4957 8.68061C30.8477 9.33128 31.0237 10.0779 31.0237 10.9206C31.0237 11.7633 30.8477 12.5099 30.4957 13.1606C30.1544 13.8113 29.6904 14.3233 29.1037 14.6966C28.5171 15.0699 27.8504 15.2566 27.1037 15.2566ZM26.8477 13.6726C27.2744 13.6726 27.6744 13.5606 28.0477 13.3366C28.4317 13.1126 28.7357 12.7926 28.9597 12.3766C29.1944 11.9606 29.3117 11.4753 29.3117 10.9206C29.3117 10.3553 29.1944 9.86994 28.9597 9.46461C28.7357 9.04861 28.4317 8.72861 28.0477 8.50461C27.6744 8.28061 27.2744 8.16861 26.8477 8.16861C26.4211 8.16861 26.0211 8.28061 25.6477 8.50461C25.2744 8.72861 24.9704 9.04861 24.7357 9.46461C24.5011 9.86994 24.3837 10.3553 24.3837 10.9206C24.3837 11.4859 24.5011 11.9766 24.7357 12.3926C24.9704 12.7979 25.2744 13.1126 25.6477 13.3366C26.0211 13.5606 26.4211 13.6726 26.8477 13.6726ZM36.6011 15.2566C35.7585 15.2566 35.0171 15.0646 34.3771 14.6806C33.7371 14.2966 33.2358 13.7793 32.8731 13.1286C32.5105 12.4673 32.3291 11.7313 32.3291 10.9206C32.3291 10.1099 32.5105 9.37928 32.8731 8.72861C33.2358 8.06728 33.7371 7.54461 34.3771 7.16061C35.0171 6.77661 35.7585 6.58461 36.6011 6.58461C37.4331 6.58461 38.1691 6.78194 38.8091 7.17661C39.4491 7.56061 39.9505 8.07794 40.3131 8.72861C40.6758 9.37928 40.8571 10.1099 40.8571 10.9206C40.8571 11.7313 40.6758 12.4673 40.3131 13.1286C39.9505 13.7793 39.4491 14.2966 38.8091 14.6806C38.1691 15.0646 37.4331 15.2566 36.6011 15.2566ZM36.6011 13.6726C37.0491 13.6726 37.4651 13.5659 37.8491 13.3526C38.2331 13.1286 38.5425 12.8139 38.7771 12.4086C39.0225 11.9926 39.1451 11.4966 39.1451 10.9206C39.1451 10.3446 39.0225 9.85394 38.7771 9.44861C38.5425 9.03261 38.2331 8.71794 37.8491 8.50461C37.4651 8.28061 37.0491 8.16861 36.6011 8.16861C36.1531 8.16861 35.7318 8.28061 35.3371 8.50461C34.9531 8.71794 34.6385 9.03261 34.3931 9.44861C34.1585 9.85394 34.0411 10.3446 34.0411 10.9206C34.0411 11.4966 34.1585 11.9926 34.3931 12.4086C34.6385 12.8139 34.9585 13.1286 35.3531 13.3526C35.7478 13.5659 36.1638 13.6726 36.6011 13.6726ZM42.4424 15.0006V6.84061H44.0744V7.96061H44.1704C44.405 7.56594 44.7517 7.24061 45.2104 6.98461C45.6797 6.71794 46.1917 6.58461 46.7464 6.58461C47.749 6.58461 48.501 6.88328 49.0024 7.48061C49.5037 8.06728 49.7544 8.85661 49.7544 9.84861V15.0006H48.0424V10.0726C48.0424 9.41128 47.877 8.93128 47.5464 8.63261C47.2157 8.32328 46.7837 8.16861 46.2504 8.16861C45.8344 8.16861 45.4717 8.28594 45.1624 8.52061C44.853 8.74461 44.6077 9.04328 44.4264 9.41661C44.2557 9.78994 44.1704 10.1899 44.1704 10.6166V15.0006H42.4424ZM54.3555 15.2566C53.7688 15.2566 53.2462 15.1393 52.7875 14.9046C52.3395 14.6699 51.9822 14.3499 51.7155 13.9446C51.4595 13.5286 51.3315 13.0539 51.3315 12.5206C51.3315 11.9339 51.4808 11.4379 51.7795 11.0326C52.0888 10.6273 52.4995 10.3179 53.0115 10.1046C53.5235 9.89128 54.0888 9.78461 54.7075 9.78461C55.0488 9.78461 55.3635 9.81128 55.6515 9.86461C55.9502 9.90728 56.2062 9.96061 56.4195 10.0246C56.6435 10.0886 56.8195 10.1579 56.9475 10.2326V9.80061C56.9475 9.26728 56.7555 8.84061 56.3715 8.52061C55.9875 8.20061 55.4915 8.04061 54.8835 8.04061C54.4675 8.04061 54.0728 8.13661 53.6995 8.32861C53.3262 8.50994 53.0275 8.76061 52.8035 9.08061L51.6195 8.16861C51.8542 7.83794 52.1368 7.55528 52.4675 7.32061C52.8088 7.08594 53.1875 6.90461 53.6035 6.77661C54.0302 6.64861 54.4728 6.58461 54.9315 6.58461C56.1155 6.58461 57.0275 6.87794 57.6675 7.46461C58.3075 8.04061 58.6275 8.85128 58.6275 9.89661V15.0006H56.9475V13.9926H56.8515C56.7128 14.2059 56.5208 14.4086 56.2755 14.6006C56.0408 14.7926 55.7582 14.9473 55.4275 15.0646C55.1075 15.1926 54.7502 15.2566 54.3555 15.2566ZM54.6595 13.8486C55.1075 13.8486 55.5022 13.7419 55.8435 13.5286C56.1955 13.3153 56.4675 13.0379 56.6595 12.6966C56.8515 12.3446 56.9475 11.9659 56.9475 11.5606C56.7128 11.4219 56.4248 11.3099 56.0835 11.2246C55.7528 11.1286 55.4008 11.0806 55.0275 11.0806C54.3235 11.0806 53.8222 11.2193 53.5235 11.4966C53.2248 11.7739 53.0755 12.1206 53.0755 12.5366C53.0755 12.9206 53.2195 13.2353 53.5075 13.4806C53.7955 13.7259 54.1795 13.8486 54.6595 13.8486ZM59.9636 6.84061H61.3876V4.53661H63.1156V6.84061H65.1156V8.34461H63.1156V12.2646C63.1156 12.6699 63.1956 12.9793 63.3556 13.1926C63.5263 13.4059 63.809 13.5126 64.2036 13.5126C64.3956 13.5126 64.5663 13.4859 64.7156 13.4326C64.865 13.3686 65.0143 13.2939 65.1636 13.2086V14.8886C64.9823 14.9633 64.7903 15.0219 64.5876 15.0646C64.385 15.1073 64.145 15.1286 63.8676 15.1286C63.1103 15.1286 62.5076 14.9099 62.0596 14.4726C61.6116 14.0246 61.3876 13.4113 61.3876 12.6326V8.34461H59.9636V6.84061ZM67.1298 15.0006V6.84061H68.8578V15.0006H67.1298ZM67.9938 5.64061C67.6738 5.64061 67.3964 5.52861 67.1618 5.30461C66.9378 5.06994 66.8258 4.79261 66.8258 4.47261C66.8258 4.14194 66.9378 3.86994 67.1618 3.65661C67.3964 3.43261 67.6738 3.32061 67.9938 3.32061C68.3244 3.32061 68.6018 3.43261 68.8258 3.65661C69.0498 3.86994 69.1618 4.14194 69.1618 4.47261C69.1618 4.79261 69.0498 5.06994 68.8258 5.30461C68.6018 5.52861 68.3244 5.64061 67.9938 5.64061ZM78.8121 15.2566C77.9908 15.2566 77.2601 15.0699 76.6201 14.6966C75.9908 14.3233 75.4948 13.8113 75.1321 13.1606C74.7801 12.4993 74.6041 11.7526 74.6041 10.9206C74.6041 10.0886 74.7801 9.34728 75.1321 8.69661C75.4948 8.04594 75.9908 7.53394 76.6201 7.16061C77.2601 6.77661 77.9908 6.58461 78.8121 6.58461C79.7188 6.58461 80.4815 6.78728 81.1001 7.19261C81.7295 7.59794 82.1775 8.14728 82.4441 8.84061L80.8761 9.48061C80.6841 9.04328 80.4068 8.71794 80.0441 8.50461C79.6921 8.28061 79.2708 8.16861 78.7801 8.16861C78.3321 8.16861 77.9215 8.28594 77.5481 8.52061C77.1748 8.74461 76.8761 9.05928 76.6521 9.46461C76.4281 9.86994 76.3161 10.3553 76.3161 10.9206C76.3161 11.4753 76.4281 11.9606 76.6521 12.3766C76.8761 12.7926 77.1748 13.1126 77.5481 13.3366C77.9215 13.5606 78.3321 13.6726 78.7801 13.6726C79.3028 13.6726 79.7455 13.5553 80.1081 13.3206C80.4708 13.0859 80.7535 12.7553 80.9561 12.3286L82.4921 13.0006C82.1935 13.6513 81.7295 14.1899 81.1001 14.6166C80.4815 15.0433 79.7188 15.2566 78.8121 15.2566ZM87.8855 15.2566C87.0428 15.2566 86.3015 15.0646 85.6615 14.6806C85.0215 14.2966 84.5202 13.7793 84.1575 13.1286C83.7948 12.4673 83.6135 11.7313 83.6135 10.9206C83.6135 10.1099 83.7948 9.37928 84.1575 8.72861C84.5202 8.06728 85.0215 7.54461 85.6615 7.16061C86.3015 6.77661 87.0428 6.58461 87.8855 6.58461C88.7175 6.58461 89.4535 6.78194 90.0935 7.17661C90.7335 7.56061 91.2348 8.07794 91.5975 8.72861C91.9602 9.37928 92.1415 10.1099 92.1415 10.9206C92.1415 11.7313 91.9602 12.4673 91.5975 13.1286C91.2348 13.7793 90.7335 14.2966 90.0935 14.6806C89.4535 15.0646 88.7175 15.2566 87.8855 15.2566ZM87.8855 13.6726C88.3335 13.6726 88.7495 13.5659 89.1335 13.3526C89.5175 13.1286 89.8268 12.8139 90.0615 12.4086C90.3068 11.9926 90.4295 11.4966 90.4295 10.9206C90.4295 10.3446 90.3068 9.85394 90.0615 9.44861C89.8268 9.03261 89.5175 8.71794 89.1335 8.50461C88.7495 8.28061 88.3335 8.16861 87.8855 8.16861C87.4375 8.16861 87.0162 8.28061 86.6215 8.50461C86.2375 8.71794 85.9228 9.03261 85.6775 9.44861C85.4428 9.85394 85.3255 10.3446 85.3255 10.9206C85.3255 11.4966 85.4428 11.9926 85.6775 12.4086C85.9228 12.8139 86.2428 13.1286 86.6375 13.3526C87.0322 13.5659 87.4482 13.6726 87.8855 13.6726ZM93.7268 15.0006V6.84061H95.3588V7.96061H95.4548C95.6894 7.56594 96.0361 7.24061 96.4948 6.98461C96.9641 6.71794 97.4761 6.58461 98.0308 6.58461C99.0334 6.58461 99.7854 6.88328 100.287 7.48061C100.788 8.06728 101.039 8.85661 101.039 9.84861V15.0006H99.3268V10.0726C99.3268 9.41128 99.1614 8.93128 98.8308 8.63261C98.5001 8.32328 98.0681 8.16861 97.5348 8.16861C97.1188 8.16861 96.7561 8.28594 96.4468 8.52061C96.1374 8.74461 95.8921 9.04328 95.7108 9.41661C95.5401 9.78994 95.4548 10.1899 95.4548 10.6166V15.0006H93.7268Z" fill="white"/>
<g id="GPay (Dark)">
<g id="GPay">
<g id="Pay">
<path id="Fill 1" fill-rule="evenodd" clip-rule="evenodd" d="M130.356 3.42339V8.16175H133.278C133.974 8.16175 134.55 7.92781 135.005 7.45993C135.473 6.99313 135.707 6.43644 135.707 5.79203C135.707 5.16061 135.473 4.61041 135.005 4.14254C134.55 3.66274 133.974 3.4223 133.278 3.4223H130.356V3.42339ZM130.356 9.82966V15.3262H128.611V1.75549H133.24C134.417 1.75549 135.415 2.14756 136.238 2.93061C137.073 3.71365 137.491 4.66782 137.491 5.79203C137.491 6.94224 137.073 7.90291 136.238 8.67296C135.428 9.44409 134.429 9.82858 133.24 9.82858H130.356V9.82966Z" fill="white"/>
<path id="Fill 3" fill-rule="evenodd" clip-rule="evenodd" d="M139.255 12.4831C139.255 12.9379 139.448 13.317 139.834 13.6203C140.22 13.9235 140.672 14.0752 141.19 14.0752C141.924 14.0752 142.578 13.8032 143.153 13.2607C143.729 12.717 144.017 12.0791 144.017 11.3469C143.472 10.917 142.713 10.7025 141.74 10.7025C141.031 10.7025 140.44 10.8736 139.966 11.2148C139.492 11.5559 139.255 11.9773 139.255 12.4831M141.513 5.73566C142.803 5.73566 143.821 6.08007 144.569 6.76889C145.314 7.45771 145.687 8.40213 145.687 9.60216V15.3261H144.018V14.0373H143.942C143.221 15.0985 142.259 15.6294 141.058 15.6294C140.033 15.6294 139.176 15.3261 138.487 14.7196C137.797 14.1131 137.453 13.3549 137.453 12.4452C137.453 11.4845 137.816 10.7208 138.543 10.1523C139.271 9.58375 140.241 9.2989 141.456 9.2989C142.492 9.2989 143.346 9.48844 144.017 9.86751V9.46894C144.017 8.86243 143.776 8.34798 143.296 7.92451C142.814 7.50103 142.252 7.28984 141.607 7.28984C140.633 7.28984 139.862 7.70032 139.293 8.52235L137.755 7.55519C138.603 6.34217 139.855 5.73566 141.513 5.73566" fill="white"/>
<path id="Fill 5" fill-rule="evenodd" clip-rule="evenodd" d="M155.269 6.03894L149.443 19.4201H147.641L149.804 14.738L145.971 6.03894H147.869L150.639 12.7106H150.677L153.371 6.03894H155.269Z" fill="white"/>
</g>
<g id="G">
<path id="Fill 8" fill-rule="evenodd" clip-rule="evenodd" d="M123.303 8.64473C123.303 8.09563 123.256 7.56601 123.168 7.05914H115.806V10.0625H120.023C119.842 11.0414 119.294 11.8744 118.464 12.4322V14.3828H120.98C122.454 13.0246 123.303 11.0177 123.303 8.64473" fill="#4285F4"/>
<path id="Fill 10" fill-rule="evenodd" clip-rule="evenodd" d="M115.806 16.2651C117.913 16.2651 119.687 15.5741 120.98 14.3828L118.464 12.4322C117.763 12.9033 116.861 13.1784 115.806 13.1784C113.77 13.1784 112.042 11.8073 111.424 9.95959H108.832V11.9687C110.116 14.516 112.757 16.2651 115.806 16.2651" fill="#34A853"/>
<path id="Fill 12" fill-rule="evenodd" clip-rule="evenodd" d="M111.424 9.9596C111.266 9.48847 111.179 8.98593 111.179 8.46715C111.179 7.94837 111.266 7.44583 111.424 6.9747V4.96564H108.832C108.3 6.01837 108 7.20756 108 8.46715C108 9.72674 108.3 10.916 108.832 11.9687L111.424 9.9596Z" fill="#FABB05"/>
<path id="Fill 14" fill-rule="evenodd" clip-rule="evenodd" d="M115.806 3.75583C116.957 3.75583 117.988 4.15115 118.801 4.92553V4.92661L121.029 2.70094C119.676 1.44243 117.912 0.669128 115.806 0.669128C112.757 0.669128 110.116 2.41826 108.832 4.9656L111.424 6.97467C112.042 5.12698 113.77 3.75583 115.806 3.75583" fill="#E94235"/>
</g>
</g>
</g>
</g>
</svg>
