<svg width="262" height="38" viewBox="0 0 262 38" fill="none" xmlns="http://www.w3.org/2000/svg">
<g id="it_view_in_Light">
<path id="Text" d="M8.9079 30L1.7959 9.952H5.1559L9.6919 23.28L10.3919 25.548H10.5599L11.3159 23.28L16.0479 9.952H19.4079L12.0999 30H8.9079ZM23.0594 13.62C22.4994 13.62 22.014 13.424 21.6034 13.032C21.2114 12.6213 21.0154 12.136 21.0154 11.576C21.0154 11.016 21.2114 10.54 21.6034 10.148C22.014 9.756 22.4994 9.56 23.0594 9.56C23.6194 9.56 24.0954 9.756 24.4874 10.148C24.898 10.54 25.1034 11.016 25.1034 11.576C25.1034 12.136 24.898 12.6213 24.4874 13.032C24.0954 13.424 23.6194 13.62 23.0594 13.62ZM21.5474 30V15.72H24.5714V30H21.5474ZM33.8314 30.448C32.114 30.448 30.742 30.0747 29.7154 29.328C28.6887 28.5627 27.9794 27.6573 27.5874 26.612L30.3034 25.436C30.6394 26.2013 31.1247 26.7893 31.7594 27.2C32.394 27.592 33.1127 27.788 33.9154 27.788C34.662 27.788 35.306 27.6573 35.8474 27.396C36.3887 27.116 36.6594 26.668 36.6594 26.052C36.6594 25.4547 36.3887 25.016 35.8474 24.736C35.306 24.456 34.634 24.2133 33.8314 24.008L32.1234 23.616C31.4327 23.448 30.7887 23.1867 30.1914 22.832C29.594 22.4773 29.1087 22.02 28.7354 21.46C28.362 20.8813 28.1754 20.2093 28.1754 19.444C28.1754 18.604 28.4274 17.876 28.9314 17.26C29.4354 16.6253 30.098 16.14 30.9194 15.804C31.7594 15.4493 32.6647 15.272 33.6354 15.272C34.9607 15.272 36.118 15.5333 37.1074 16.056C38.1154 16.56 38.8527 17.3253 39.3194 18.352L36.7154 19.528C36.3794 18.8933 35.9407 18.4547 35.3994 18.212C34.8767 17.9507 34.298 17.82 33.6634 17.82C32.954 17.82 32.3567 17.9693 31.8714 18.268C31.4047 18.5667 31.1714 18.94 31.1714 19.388C31.1714 19.8733 31.3767 20.256 31.7874 20.536C32.2167 20.816 32.7394 21.04 33.3554 21.208L35.4274 21.712C36.846 22.0667 37.91 22.608 38.6194 23.336C39.3287 24.0453 39.6834 24.9133 39.6834 25.94C39.6834 26.8547 39.422 27.6573 38.8994 28.348C38.3767 29.02 37.6674 29.5427 36.7714 29.916C35.894 30.2707 34.914 30.448 33.8314 30.448ZM47.8026 30.448C46.0479 30.448 44.7226 29.9253 43.8266 28.88C42.9493 27.816 42.5106 26.3787 42.5106 24.568V15.72H45.5346V24.148C45.5346 25.3613 45.8146 26.2573 46.3746 26.836C46.9533 27.396 47.6719 27.676 48.5306 27.676C49.2959 27.676 49.9586 27.48 50.5186 27.088C51.0973 26.6773 51.5359 26.1547 51.8346 25.52C52.1519 24.8667 52.3106 24.1573 52.3106 23.392V15.72H55.3066V30H52.4786V28.068H52.3106C51.8999 28.74 51.2839 29.3093 50.4626 29.776C49.6599 30.224 48.7733 30.448 47.8026 30.448ZM63.5081 30.448C62.4814 30.448 61.5667 30.252 60.7641 29.86C59.9614 29.4493 59.3361 28.88 58.8881 28.152C58.4401 27.424 58.2161 26.5933 58.2161 25.66C58.2161 24.652 58.4774 23.7933 59.0001 23.084C59.5414 22.356 60.2601 21.8053 61.1561 21.432C62.0521 21.0587 63.0414 20.872 64.1241 20.872C65.0201 20.872 65.8041 20.956 66.4761 21.124C67.1667 21.292 67.6894 21.4693 68.0441 21.656V20.9C68.0441 19.9667 67.7081 19.22 67.0361 18.66C66.3641 18.1 65.4961 17.82 64.4321 17.82C63.7041 17.82 63.0134 17.988 62.3601 18.324C61.7067 18.6413 61.1841 19.08 60.7921 19.64L58.7201 18.044C59.3361 17.1853 60.1481 16.5133 61.1561 16.028C62.1827 15.524 63.3027 15.272 64.5161 15.272C66.5881 15.272 68.1841 15.7853 69.3041 16.812C70.4241 17.82 70.9841 19.2387 70.9841 21.068V30H68.0441V28.236H67.8761C67.5027 28.8147 66.9427 29.328 66.1961 29.776C65.4494 30.224 64.5534 30.448 63.5081 30.448ZM64.0401 27.984C64.8241 27.984 65.5147 27.7973 66.1121 27.424C66.7094 27.0507 67.1761 26.5653 67.5121 25.968C67.8667 25.352 68.0441 24.6893 68.0441 23.98C67.6147 23.7373 67.1107 23.5413 66.5321 23.392C65.9534 23.224 65.3374 23.14 64.6841 23.14C63.4521 23.14 62.5747 23.392 62.0521 23.896C61.5294 24.3813 61.2681 24.9787 61.2681 25.688C61.2681 26.36 61.5201 26.9107 62.0241 27.34C62.5281 27.7693 63.2001 27.984 64.0401 27.984ZM74.6412 30V9.952H77.6652V30H74.6412ZM83.2664 13.62C82.7064 13.62 82.2211 13.424 81.8104 13.032C81.4184 12.6213 81.2224 12.136 81.2224 11.576C81.2224 11.016 81.4184 10.54 81.8104 10.148C82.2211 9.756 82.7064 9.56 83.2664 9.56C83.8264 9.56 84.3024 9.756 84.6944 10.148C85.1051 10.54 85.3104 11.016 85.3104 11.576C85.3104 12.136 85.1051 12.6213 84.6944 13.032C84.3024 13.424 83.8264 13.62 83.2664 13.62ZM81.7544 30V15.72H84.7784V30H81.7544ZM88.1024 30V27.48L96.0544 18.352H88.3544V15.72H99.7504V18.24L91.8264 27.368H99.9744V30H88.1024ZM102.375 30V27.48L110.327 18.352H102.627V15.72H114.023V18.24L106.099 27.368H114.247V30H102.375ZM121.582 30.448C120.556 30.448 119.641 30.252 118.838 29.86C118.036 29.4493 117.41 28.88 116.962 28.152C116.514 27.424 116.29 26.5933 116.29 25.66C116.29 24.652 116.552 23.7933 117.074 23.084C117.616 22.356 118.334 21.8053 119.23 21.432C120.126 21.0587 121.116 20.872 122.198 20.872C123.094 20.872 123.878 20.956 124.55 21.124C125.241 21.292 125.764 21.4693 126.118 21.656V20.9C126.118 19.9667 125.782 19.22 125.11 18.66C124.438 18.1 123.57 17.82 122.506 17.82C121.778 17.82 121.088 17.988 120.434 18.324C119.781 18.6413 119.258 19.08 118.866 19.64L116.794 18.044C117.41 17.1853 118.222 16.5133 119.23 16.028C120.257 15.524 121.377 15.272 122.59 15.272C124.662 15.272 126.258 15.7853 127.378 16.812C128.498 17.82 129.058 19.2387 129.058 21.068V30H126.118V28.236H125.95C125.577 28.8147 125.017 29.328 124.27 29.776C123.524 30.224 122.628 30.448 121.582 30.448ZM122.114 27.984C122.898 27.984 123.589 27.7973 124.186 27.424C124.784 27.0507 125.25 26.5653 125.586 25.968C125.941 25.352 126.118 24.6893 126.118 23.98C125.689 23.7373 125.185 23.5413 124.606 23.392C124.028 23.224 123.412 23.14 122.758 23.14C121.526 23.14 120.649 23.392 120.126 23.896C119.604 24.3813 119.342 24.9787 119.342 25.688C119.342 26.36 119.594 26.9107 120.098 27.34C120.602 27.7693 121.274 27.984 122.114 27.984ZM144.731 30.448C143.013 30.448 141.641 30.0747 140.615 29.328C139.588 28.5627 138.879 27.6573 138.487 26.612L141.203 25.436C141.539 26.2013 142.024 26.7893 142.659 27.2C143.293 27.592 144.012 27.788 144.815 27.788C145.561 27.788 146.205 27.6573 146.747 27.396C147.288 27.116 147.559 26.668 147.559 26.052C147.559 25.4547 147.288 25.016 146.747 24.736C146.205 24.456 145.533 24.2133 144.731 24.008L143.023 23.616C142.332 23.448 141.688 23.1867 141.091 22.832C140.493 22.4773 140.008 22.02 139.635 21.46C139.261 20.8813 139.075 20.2093 139.075 19.444C139.075 18.604 139.327 17.876 139.831 17.26C140.335 16.6253 140.997 16.14 141.819 15.804C142.659 15.4493 143.564 15.272 144.535 15.272C145.86 15.272 147.017 15.5333 148.007 16.056C149.015 16.56 149.752 17.3253 150.219 18.352L147.615 19.528C147.279 18.8933 146.84 18.4547 146.299 18.212C145.776 17.9507 145.197 17.82 144.563 17.82C143.853 17.82 143.256 17.9693 142.771 18.268C142.304 18.5667 142.071 18.94 142.071 19.388C142.071 19.8733 142.276 20.256 142.687 20.536C143.116 20.816 143.639 21.04 144.255 21.208L146.327 21.712C147.745 22.0667 148.809 22.608 149.519 23.336C150.228 24.0453 150.583 24.9133 150.583 25.94C150.583 26.8547 150.321 27.6573 149.799 28.348C149.276 29.02 148.567 29.5427 147.671 29.916C146.793 30.2707 145.813 30.448 144.731 30.448ZM158.702 30.448C156.947 30.448 155.622 29.9253 154.726 28.88C153.848 27.816 153.41 26.3787 153.41 24.568V15.72H156.434V24.148C156.434 25.3613 156.714 26.2573 157.274 26.836C157.852 27.396 158.571 27.676 159.43 27.676C160.195 27.676 160.858 27.48 161.418 27.088C161.996 26.6773 162.435 26.1547 162.734 25.52C163.051 24.8667 163.21 24.1573 163.21 23.392V15.72H166.206V30H163.378V28.068H163.21C162.799 28.74 162.183 29.3093 161.362 29.776C160.559 30.224 159.672 30.448 158.702 30.448Z" fill="#3C4043"/>
<g id="GPay Logo (Light)">
<g id="GPay">
<g id="Pay">
<path id="Fill 1" fill-rule="evenodd" clip-rule="evenodd" d="M218.529 9.44664V17.6128H223.565C224.765 17.6128 225.757 17.2096 226.541 16.4032C227.347 15.5988 227.75 14.6394 227.75 13.5288C227.75 12.4406 227.347 11.4924 226.541 10.686C225.757 9.85915 224.765 9.44478 223.565 9.44478H218.529V9.44664ZM218.529 20.4872V29.9599H215.521V6.57217H223.499C225.527 6.57217 227.248 7.24786 228.666 8.59737C230.105 9.94688 230.824 11.5913 230.824 13.5288C230.824 15.511 230.105 17.1667 228.666 18.4938C227.27 19.8227 225.547 20.4854 223.499 20.4854H218.529V20.4872Z" fill="#5F6368"/>
<path id="Fill 3" fill-rule="evenodd" clip-rule="evenodd" d="M233.864 25.0602C233.864 25.8442 234.197 26.4975 234.862 27.0201C235.527 27.5427 236.306 27.804 237.2 27.804C238.465 27.804 239.591 27.3354 240.584 26.4004C241.576 25.4634 242.071 24.364 242.071 23.1022C241.133 22.3612 239.825 21.9916 238.147 21.9916C236.925 21.9916 235.907 22.2865 235.09 22.8745C234.273 23.4623 233.864 24.1886 233.864 25.0602ZM237.756 13.4317C239.98 13.4317 241.735 14.0252 243.022 15.2124C244.308 16.3995 244.95 18.0271 244.95 20.0952V29.9599H242.073V27.7387H241.942C240.699 29.5677 239.042 30.4825 236.972 30.4825C235.206 30.4825 233.728 29.9599 232.541 28.9146C231.353 27.8694 230.759 26.5628 230.759 24.9949C230.759 23.3393 231.385 22.0232 232.638 21.0434C233.892 20.0635 235.565 19.5726 237.658 19.5726C239.444 19.5726 240.916 19.8992 242.071 20.5525V19.8656C242.071 18.8204 241.656 17.9338 240.829 17.204C239.999 16.4741 239.031 16.1102 237.919 16.1102C236.239 16.1102 234.911 16.8176 233.93 18.2343L231.28 16.5675C232.741 14.4769 234.899 13.4317 237.756 13.4317Z" fill="#5F6368"/>
<path id="Fill 5" fill-rule="evenodd" clip-rule="evenodd" d="M261.463 13.9543L251.424 37.0154H248.318L252.046 28.9464L245.44 13.9543H248.71L253.484 25.4522H253.55L258.193 13.9543H261.463Z" fill="#5F6368"/>
</g>
<g id="G">
<path id="Fill 8" fill-rule="evenodd" clip-rule="evenodd" d="M206.373 18.4452C206.373 17.4989 206.293 16.5861 206.141 15.7126H193.454V20.8885H200.72C200.408 22.5757 199.465 24.0112 198.033 24.9725V28.3341H202.37C204.91 25.9935 206.373 22.5348 206.373 18.4452Z" fill="#4285F4"/>
<path id="Fill 10" fill-rule="evenodd" clip-rule="evenodd" d="M193.454 31.5782C197.084 31.5782 200.141 30.3873 202.37 28.3341L198.033 24.9725C196.826 25.7844 195.272 26.2585 193.454 26.2585C189.944 26.2585 186.966 23.8955 185.901 20.7112H181.433V24.1736C183.647 28.5637 188.197 31.5782 193.454 31.5782Z" fill="#34A853"/>
<path id="Fill 12" fill-rule="evenodd" clip-rule="evenodd" d="M185.901 20.7111C185.628 19.8992 185.479 19.0331 185.479 18.139C185.479 17.245 185.628 16.3789 185.901 15.567V12.1045H181.433C180.518 13.9188 180 15.9683 180 18.139C180 20.3098 180.518 22.3595 181.433 24.1736L185.901 20.7111Z" fill="#FABB05"/>
<path id="Fill 14" fill-rule="evenodd" clip-rule="evenodd" d="M193.454 10.0196C195.436 10.0196 197.213 10.7009 198.615 12.0355V12.0374L202.455 8.20162C200.123 6.03271 197.082 4.7 193.454 4.7C188.197 4.7 183.647 7.71446 181.433 12.1046L185.901 15.567C186.966 12.3827 189.944 10.0196 193.454 10.0196Z" fill="#E94235"/>
</g>
</g>
</g>
</g>
</svg>
