<svg width="118" height="21" viewBox="0 0 118 21" fill="none" xmlns="http://www.w3.org/2000/svg">
<g id="no_add_to_Pay_NBG">
<path id="Left Text" d="M1.321 15.0006V3.54461H3.081V13.3366H8.009V15.0006H1.321ZM13.2235 15.2566C12.4235 15.2566 11.7088 15.0699 11.0795 14.6966C10.4502 14.3233 9.95417 13.8113 9.5915 13.1606C9.2395 12.5099 9.0635 11.7686 9.0635 10.9366C9.0635 10.1579 9.23417 9.43794 9.5755 8.77661C9.91683 8.11528 10.3915 7.58728 10.9995 7.19261C11.6182 6.78728 12.3275 6.58461 13.1275 6.58461C13.9702 6.58461 14.6848 6.76594 15.2715 7.12861C15.8688 7.49128 16.3222 7.98728 16.6315 8.61661C16.9408 9.24594 17.0955 9.95528 17.0955 10.7446C17.0955 10.8619 17.0902 10.9686 17.0795 11.0646C17.0795 11.1606 17.0742 11.2353 17.0635 11.2886H10.7595C10.8022 11.7366 10.9142 12.1259 11.0955 12.4566C11.3302 12.8726 11.6395 13.1873 12.0235 13.4006C12.4075 13.6139 12.8235 13.7206 13.2715 13.7206C13.8155 13.7206 14.2688 13.5979 14.6315 13.3526C15.0048 13.0966 15.2982 12.7819 15.5115 12.4086L16.9355 13.0966C16.5835 13.7366 16.1035 14.2593 15.4955 14.6646C14.8875 15.0593 14.1302 15.2566 13.2235 15.2566ZM10.8555 9.99261H15.3835C15.3728 9.78994 15.3195 9.57661 15.2235 9.35261C15.1275 9.11794 14.9888 8.90461 14.8075 8.71261C14.6262 8.52061 14.3968 8.36594 14.1195 8.24861C13.8422 8.12061 13.5168 8.05661 13.1435 8.05661C12.6742 8.05661 12.2582 8.17928 11.8955 8.42461C11.5328 8.65928 11.2502 8.98994 11.0475 9.41661C10.9622 9.59794 10.8982 9.78994 10.8555 9.99261ZM22.6068 18.7126C21.8921 18.7126 21.2734 18.5953 20.7508 18.3606C20.2388 18.1366 19.8228 17.8433 19.5028 17.4806C19.1828 17.1286 18.9534 16.7659 18.8148 16.3926L20.4148 15.7206C20.5854 16.1473 20.8574 16.4939 21.2308 16.7606C21.6148 17.0379 22.0734 17.1766 22.6068 17.1766C23.3641 17.1766 23.9561 16.9526 24.3828 16.5046C24.8094 16.0566 25.0228 15.4219 25.0228 14.6006V13.8166H24.9268C24.6708 14.1899 24.3188 14.4939 23.8708 14.7286C23.4228 14.9633 22.9054 15.0806 22.3188 15.0806C21.6254 15.0806 20.9854 14.9046 20.3988 14.5526C19.8228 14.2006 19.3588 13.7099 19.0068 13.0806C18.6654 12.4406 18.4948 11.6939 18.4948 10.8406C18.4948 9.97661 18.6654 9.22994 19.0068 8.60061C19.3588 7.96061 19.8228 7.46461 20.3988 7.11261C20.9854 6.76061 21.6254 6.58461 22.3188 6.58461C22.9054 6.58461 23.4228 6.70194 23.8708 6.93661C24.3188 7.16061 24.6708 7.46994 24.9268 7.86461H25.0228V6.84061H26.6708V14.5686C26.6708 15.4539 26.4948 16.2059 26.1428 16.8246C25.8014 17.4433 25.3268 17.9126 24.7188 18.2326C24.1108 18.5526 23.4068 18.7126 22.6068 18.7126ZM22.6228 13.5126C23.0494 13.5126 23.4441 13.4113 23.8068 13.2086C24.1801 12.9953 24.4734 12.6913 24.6868 12.2966C24.9108 11.8913 25.0228 11.4059 25.0228 10.8406C25.0228 10.2433 24.9108 9.74728 24.6868 9.35261C24.4734 8.95794 24.1801 8.65928 23.8068 8.45661C23.4441 8.25394 23.0494 8.15261 22.6228 8.15261C22.1961 8.15261 21.7961 8.25394 21.4228 8.45661C21.0601 8.65928 20.7668 8.96328 20.5428 9.36861C20.3188 9.76328 20.2068 10.2539 20.2068 10.8406C20.2068 11.4166 20.3188 11.9073 20.5428 12.3126C20.7668 12.7073 21.0601 13.0059 21.4228 13.2086C21.7961 13.4113 22.1961 13.5126 22.6228 13.5126ZM32.4443 18.7126C31.7296 18.7126 31.1109 18.5953 30.5883 18.3606C30.0763 18.1366 29.6603 17.8433 29.3403 17.4806C29.0203 17.1286 28.7909 16.7659 28.6523 16.3926L30.2523 15.7206C30.4229 16.1473 30.6949 16.4939 31.0683 16.7606C31.4523 17.0379 31.9109 17.1766 32.4443 17.1766C33.2016 17.1766 33.7936 16.9526 34.2203 16.5046C34.6469 16.0566 34.8603 15.4219 34.8603 14.6006V13.8166H34.7643C34.5083 14.1899 34.1563 14.4939 33.7083 14.7286C33.2603 14.9633 32.7429 15.0806 32.1563 15.0806C31.4629 15.0806 30.8229 14.9046 30.2363 14.5526C29.6603 14.2006 29.1963 13.7099 28.8443 13.0806C28.5029 12.4406 28.3323 11.6939 28.3323 10.8406C28.3323 9.97661 28.5029 9.22994 28.8443 8.60061C29.1963 7.96061 29.6603 7.46461 30.2363 7.11261C30.8229 6.76061 31.4629 6.58461 32.1563 6.58461C32.7429 6.58461 33.2603 6.70194 33.7083 6.93661C34.1563 7.16061 34.5083 7.46994 34.7643 7.86461H34.8603V6.84061H36.5083V14.5686C36.5083 15.4539 36.3323 16.2059 35.9803 16.8246C35.6389 17.4433 35.1643 17.9126 34.5563 18.2326C33.9483 18.5526 33.2443 18.7126 32.4443 18.7126ZM32.4603 13.5126C32.8869 13.5126 33.2816 13.4113 33.6443 13.2086C34.0176 12.9953 34.3109 12.6913 34.5243 12.2966C34.7483 11.8913 34.8603 11.4059 34.8603 10.8406C34.8603 10.2433 34.7483 9.74728 34.5243 9.35261C34.3109 8.95794 34.0176 8.65928 33.6443 8.45661C33.2816 8.25394 32.8869 8.15261 32.4603 8.15261C32.0336 8.15261 31.6336 8.25394 31.2603 8.45661C30.8976 8.65928 30.6043 8.96328 30.3803 9.36861C30.1563 9.76328 30.0443 10.2539 30.0443 10.8406C30.0443 11.4166 30.1563 11.9073 30.3803 12.3126C30.6043 12.7073 30.8976 13.0059 31.2603 13.2086C31.6336 13.4113 32.0336 13.5126 32.4603 13.5126ZM42.0043 6.84061H43.4283V4.53661H45.1563V6.84061H47.1563V8.34461H45.1563V12.2646C45.1563 12.6699 45.2363 12.9793 45.3963 13.1926C45.5669 13.4059 45.8496 13.5126 46.2443 13.5126C46.4363 13.5126 46.6069 13.4859 46.7563 13.4326C46.9056 13.3686 47.0549 13.2939 47.2043 13.2086V14.8886C47.0229 14.9633 46.8309 15.0219 46.6283 15.0646C46.4256 15.1073 46.1856 15.1286 45.9083 15.1286C45.1509 15.1286 44.5483 14.9099 44.1003 14.4726C43.6523 14.0246 43.4283 13.4113 43.4283 12.6326V8.34461H42.0043V6.84061ZM49.1704 15.0006V6.84061H50.8984V15.0006H49.1704ZM50.0344 5.64061C49.7144 5.64061 49.437 5.52861 49.2024 5.30461C48.9784 5.06994 48.8664 4.79261 48.8664 4.47261C48.8664 4.14194 48.9784 3.86994 49.2024 3.65661C49.437 3.43261 49.7144 3.32061 50.0344 3.32061C50.365 3.32061 50.6424 3.43261 50.8664 3.65661C51.0904 3.86994 51.2024 4.14194 51.2024 4.47261C51.2024 4.79261 51.0904 5.06994 50.8664 5.30461C50.6424 5.52861 50.365 5.64061 50.0344 5.64061ZM53.2084 15.0006V3.54461H54.9364V15.0006H53.2084ZM61.136 15.0006V6.84061H62.864V15.0006H61.136ZM62 5.64061C61.68 5.64061 61.4027 5.52861 61.168 5.30461C60.944 5.06994 60.832 4.79261 60.832 4.47261C60.832 4.14194 60.944 3.86994 61.168 3.65661C61.4027 3.43261 61.68 3.32061 62 3.32061C62.3307 3.32061 62.608 3.43261 62.832 3.65661C63.056 3.86994 63.168 4.14194 63.168 4.47261C63.168 4.79261 63.056 5.06994 62.832 5.30461C62.608 5.52861 62.3307 5.64061 62 5.64061Z" fill="white"/>
<g id="GPay (Dark)">
<g id="GPay">
<g id="Pay">
<path id="Fill 1" fill-rule="evenodd" clip-rule="evenodd" d="M92.3563 3.42339V8.16175H95.2784C95.9745 8.16175 96.5501 7.92781 97.0055 7.45993C97.4728 6.99313 97.707 6.43644 97.707 5.79203C97.707 5.16061 97.4728 4.61041 97.0055 4.14254C96.5501 3.66274 95.9745 3.4223 95.2784 3.4223H92.3563V3.42339ZM92.3563 9.82966V15.3262H90.6107V1.75549H95.2404C96.4169 1.75549 97.4154 2.14756 98.2383 2.93061C99.0732 3.71365 99.4906 4.66782 99.4906 5.79203C99.4906 6.94224 99.0731 7.90291 98.2383 8.67296C97.4283 9.44409 96.4287 9.82858 95.2404 9.82858H92.3563V9.82966Z" fill="white"/>
<path id="Fill 3" fill-rule="evenodd" clip-rule="evenodd" d="M101.255 12.4831C101.255 12.9379 101.448 13.317 101.834 13.6203C102.22 13.9235 102.672 14.0752 103.19 14.0752C103.924 14.0752 104.578 13.8032 105.153 13.2607C105.729 12.717 106.017 12.0791 106.017 11.3469C105.472 10.917 104.713 10.7025 103.74 10.7025C103.031 10.7025 102.44 10.8736 101.966 11.2148C101.492 11.5559 101.255 11.9773 101.255 12.4831M103.513 5.73566C104.803 5.73566 105.821 6.08007 106.569 6.76889C107.314 7.45771 107.687 8.40213 107.687 9.60216V15.3261H106.018V14.0373H105.942C105.221 15.0985 104.259 15.6294 103.058 15.6294C102.033 15.6294 101.176 15.3261 100.487 14.7196C99.7975 14.1131 99.4527 13.3549 99.4527 12.4452C99.4527 11.4845 99.8158 10.7208 100.543 10.1523C101.271 9.58375 102.241 9.2989 103.456 9.2989C104.492 9.2989 105.346 9.48844 106.017 9.86751V9.46894C106.017 8.86243 105.776 8.34798 105.296 7.92451C104.814 7.50103 104.252 7.28984 103.607 7.28984C102.633 7.28984 101.862 7.70032 101.293 8.52235L99.7551 7.55519C100.603 6.34217 101.855 5.73566 103.513 5.73566" fill="white"/>
<path id="Fill 5" fill-rule="evenodd" clip-rule="evenodd" d="M117.269 6.03894L111.443 19.4201H109.641L111.804 14.738L107.971 6.03894H109.869L112.639 12.7106H112.677L115.371 6.03894H117.269Z" fill="white"/>
</g>
<g id="G">
<path id="Fill 8" fill-rule="evenodd" clip-rule="evenodd" d="M85.3029 8.64473C85.3029 8.09563 85.2562 7.56601 85.1684 7.05914H77.8065V10.0625H82.0231C81.842 11.0414 81.2944 11.8744 80.4639 12.4322V14.3828H82.9804C84.4539 13.0246 85.3029 11.0177 85.3029 8.64473" fill="#4285F4"/>
<path id="Fill 10" fill-rule="evenodd" clip-rule="evenodd" d="M77.8065 16.2651C79.9131 16.2651 81.6869 15.5741 82.9804 14.3828L80.4639 12.4322C79.7635 12.9033 78.8614 13.1784 77.8065 13.1784C75.7703 13.1784 74.042 11.8073 73.424 9.95959H70.8316V11.9687C72.1164 14.516 74.7565 16.2651 77.8065 16.2651" fill="#34A853"/>
<path id="Fill 12" fill-rule="evenodd" clip-rule="evenodd" d="M73.424 9.9596C73.2657 9.48847 73.179 8.98593 73.179 8.46715C73.179 7.94837 73.2657 7.44583 73.424 6.9747V4.96564H70.8316C70.3003 6.01837 70 7.20756 70 8.46715C70 9.72674 70.3003 10.916 70.8316 11.9687L73.424 9.9596Z" fill="#FABB05"/>
<path id="Fill 14" fill-rule="evenodd" clip-rule="evenodd" d="M77.8065 3.75583C78.9568 3.75583 79.9879 4.15115 80.8011 4.92553V4.92661L83.0292 2.70094C81.6761 1.44243 79.912 0.669128 77.8065 0.669128C74.7565 0.669128 72.1164 2.41826 70.8316 4.9656L73.424 6.97467C74.042 5.12698 75.7703 3.75583 77.8065 3.75583" fill="#E94235"/>
</g>
</g>
</g>
</g>
</svg>
