<svg width="280" height="38" viewBox="0 0 280 38" fill="none" xmlns="http://www.w3.org/2000/svg">
<g id="no_book_with_Dark">
<path id="Text" d="M3.05003 30V9.952H10.078C11.31 9.952 12.4114 10.2133 13.382 10.736C14.3527 11.2587 15.118 11.9867 15.678 12.92C16.2567 13.8347 16.546 14.8893 16.546 16.084C16.546 17.3907 16.1354 18.576 15.314 19.64C14.5114 20.6853 13.3727 21.4133 11.898 21.824L17.47 29.832V30H13.914L8.56603 22.132H6.13003V30H3.05003ZM10.106 12.836H6.13003V19.304H9.99403C10.946 19.304 11.758 19.0053 12.43 18.408C13.102 17.792 13.438 17.008 13.438 16.056C13.438 15.5147 13.3074 15.0013 13.046 14.516C12.7847 14.012 12.402 13.6107 11.898 13.312C11.4127 12.9947 10.8154 12.836 10.106 12.836ZM26.1864 30.448C24.7864 30.448 23.5358 30.1213 22.4344 29.468C21.3331 28.8147 20.4651 27.9187 19.8304 26.78C19.2144 25.6413 18.9064 24.344 18.9064 22.888C18.9064 21.5253 19.2051 20.2653 19.8024 19.108C20.3998 17.9507 21.2304 17.0267 22.2944 16.336C23.3771 15.6267 24.6184 15.272 26.0184 15.272C27.4931 15.272 28.7438 15.5893 29.7704 16.224C30.8158 16.8587 31.6091 17.7267 32.1504 18.828C32.6918 19.9293 32.9624 21.1707 32.9624 22.552C32.9624 22.7573 32.9531 22.944 32.9344 23.112C32.9344 23.28 32.9251 23.4107 32.9064 23.504H21.8744C22.0238 24.9227 22.5184 25.9867 23.3584 26.696C24.2171 27.4053 25.1878 27.76 26.2704 27.76C27.2411 27.76 28.0438 27.5453 28.6784 27.116C29.3131 26.668 29.8171 26.1173 30.1904 25.464L32.6824 26.668C32.0664 27.788 31.2264 28.7027 30.1624 29.412C29.0984 30.1027 27.7731 30.448 26.1864 30.448ZM26.0464 17.848C25.0384 17.848 24.1798 18.156 23.4704 18.772C22.7611 19.388 22.2851 20.2093 22.0424 21.236H29.9664C29.9291 20.7507 29.7704 20.2467 29.4904 19.724C29.2104 19.2013 28.7811 18.7627 28.2024 18.408C27.6424 18.0347 26.9238 17.848 26.0464 17.848ZM41.4126 30.448C39.6953 30.448 38.3233 30.0747 37.2966 29.328C36.27 28.5627 35.5606 27.6573 35.1686 26.612L37.8846 25.436C38.2206 26.2013 38.706 26.7893 39.3406 27.2C39.9753 27.592 40.694 27.788 41.4966 27.788C42.2433 27.788 42.8873 27.6573 43.4286 27.396C43.97 27.116 44.2406 26.668 44.2406 26.052C44.2406 25.4547 43.97 25.016 43.4286 24.736C42.8873 24.456 42.2153 24.2133 41.4126 24.008L39.7046 23.616C39.014 23.448 38.37 23.1867 37.7726 22.832C37.1753 22.4773 36.69 22.02 36.3166 21.46C35.9433 20.8813 35.7566 20.2093 35.7566 19.444C35.7566 18.604 36.0086 17.876 36.5126 17.26C37.0166 16.6253 37.6793 16.14 38.5006 15.804C39.3406 15.4493 40.246 15.272 41.2166 15.272C42.542 15.272 43.6993 15.5333 44.6886 16.056C45.6966 16.56 46.434 17.3253 46.9006 18.352L44.2966 19.528C43.9606 18.8933 43.522 18.4547 42.9806 18.212C42.458 17.9507 41.8793 17.82 41.2446 17.82C40.5353 17.82 39.938 17.9693 39.4526 18.268C38.986 18.5667 38.7526 18.94 38.7526 19.388C38.7526 19.8733 38.958 20.256 39.3686 20.536C39.798 20.816 40.3206 21.04 40.9366 21.208L43.0086 21.712C44.4273 22.0667 45.4913 22.608 46.2006 23.336C46.91 24.0453 47.2646 24.9133 47.2646 25.94C47.2646 26.8547 47.0033 27.6573 46.4806 28.348C45.958 29.02 45.2486 29.5427 44.3526 29.916C43.4753 30.2707 42.4953 30.448 41.4126 30.448ZM56.8646 30.448C55.4646 30.448 54.2139 30.1213 53.1126 29.468C52.0112 28.8147 51.1432 27.9187 50.5086 26.78C49.8926 25.6413 49.5846 24.344 49.5846 22.888C49.5846 21.5253 49.8832 20.2653 50.4806 19.108C51.0779 17.9507 51.9086 17.0267 52.9726 16.336C54.0552 15.6267 55.2966 15.272 56.6966 15.272C58.1712 15.272 59.4219 15.5893 60.4486 16.224C61.4939 16.8587 62.2872 17.7267 62.8286 18.828C63.3699 19.9293 63.6406 21.1707 63.6406 22.552C63.6406 22.7573 63.6312 22.944 63.6126 23.112C63.6126 23.28 63.6032 23.4107 63.5846 23.504H52.5526C52.7019 24.9227 53.1966 25.9867 54.0366 26.696C54.8952 27.4053 55.8659 27.76 56.9486 27.76C57.9192 27.76 58.7219 27.5453 59.3566 27.116C59.9912 26.668 60.4952 26.1173 60.8686 25.464L63.3606 26.668C62.7446 27.788 61.9046 28.7027 60.8406 29.412C59.7766 30.1027 58.4512 30.448 56.8646 30.448ZM56.7246 17.848C55.7166 17.848 54.8579 18.156 54.1486 18.772C53.4392 19.388 52.9632 20.2093 52.7206 21.236H60.6446C60.6072 20.7507 60.4486 20.2467 60.1686 19.724C59.8886 19.2013 59.4592 18.7627 58.8806 18.408C58.3206 18.0347 57.6019 17.848 56.7246 17.848ZM66.746 30V15.72H69.602V17.82H69.77C70.0874 17.092 70.6287 16.4947 71.394 16.028C72.178 15.5427 73.018 15.3 73.914 15.3C74.306 15.3 74.6327 15.328 74.894 15.384C75.174 15.44 75.426 15.5053 75.65 15.58V18.716C75.2954 18.5667 74.9314 18.4453 74.558 18.352C74.2034 18.2587 73.83 18.212 73.438 18.212C72.7287 18.212 72.094 18.408 71.534 18.8C70.9927 19.1733 70.5634 19.6867 70.246 20.34C69.9287 20.9747 69.77 21.6747 69.77 22.44V30H66.746ZM83.0892 30L77.1812 15.72H80.5412L84.5452 26.108H84.6852L88.7732 15.72H92.0772L86.1132 30H83.0892ZM100.448 30.448C99.0482 30.448 97.7975 30.1213 96.6962 29.468C95.5948 28.8147 94.7268 27.9187 94.0922 26.78C93.4762 25.6413 93.1682 24.344 93.1682 22.888C93.1682 21.5253 93.4668 20.2653 94.0642 19.108C94.6615 17.9507 95.4922 17.0267 96.5562 16.336C97.6388 15.6267 98.8802 15.272 100.28 15.272C101.755 15.272 103.005 15.5893 104.032 16.224C105.077 16.8587 105.871 17.7267 106.412 18.828C106.953 19.9293 107.224 21.1707 107.224 22.552C107.224 22.7573 107.215 22.944 107.196 23.112C107.196 23.28 107.187 23.4107 107.168 23.504H96.1362C96.2855 24.9227 96.7802 25.9867 97.6202 26.696C98.4788 27.4053 99.4495 27.76 100.532 27.76C101.503 27.76 102.305 27.5453 102.94 27.116C103.575 26.668 104.079 26.1173 104.452 25.464L106.944 26.668C106.328 27.788 105.488 28.7027 104.424 29.412C103.36 30.1027 102.035 30.448 100.448 30.448ZM100.308 17.848C99.3002 17.848 98.4415 18.156 97.7322 18.772C97.0228 19.388 96.5468 20.2093 96.3042 21.236H104.228C104.191 20.7507 104.032 20.2467 103.752 19.724C103.472 19.2013 103.043 18.7627 102.464 18.408C101.904 18.0347 101.185 17.848 100.308 17.848ZM99.0482 12.976L100.364 9.392H103.78L101.54 12.976H99.0482ZM110.33 30V15.72H113.186V17.82H113.354C113.671 17.092 114.212 16.4947 114.978 16.028C115.762 15.5427 116.602 15.3 117.498 15.3C117.89 15.3 118.216 15.328 118.478 15.384C118.758 15.44 119.01 15.5053 119.234 15.58V18.716C118.879 18.5667 118.515 18.4453 118.142 18.352C117.787 18.2587 117.414 18.212 117.022 18.212C116.312 18.212 115.678 18.408 115.118 18.8C114.576 19.1733 114.147 19.6867 113.83 20.34C113.512 20.9747 113.354 21.6747 113.354 22.44V30H110.33ZM128.703 30V15.72H131.559V17.68H131.727C132.138 16.9893 132.735 16.42 133.519 15.972C134.303 15.5053 135.171 15.272 136.123 15.272C137.187 15.272 138.092 15.524 138.839 16.028C139.586 16.532 140.118 17.1667 140.435 17.932C140.902 17.1853 141.536 16.56 142.339 16.056C143.142 15.5333 144.122 15.272 145.279 15.272C146.959 15.272 148.21 15.7853 149.031 16.812C149.852 17.82 150.263 19.164 150.263 20.844V30H147.267V21.348C147.267 20.2093 147.015 19.3787 146.511 18.856C146.026 18.3147 145.344 18.044 144.467 18.044C143.776 18.044 143.17 18.24 142.647 18.632C142.124 19.0053 141.714 19.5187 141.415 20.172C141.135 20.8253 140.995 21.5533 140.995 22.356V30H137.999V21.348C137.999 20.2093 137.747 19.3787 137.243 18.856C136.739 18.3147 136.03 18.044 135.115 18.044C134.443 18.044 133.855 18.24 133.351 18.632C132.847 19.024 132.446 19.5467 132.147 20.2C131.867 20.8533 131.727 21.5813 131.727 22.384V30H128.703ZM160.492 30.448C159.092 30.448 157.841 30.1213 156.74 29.468C155.639 28.8147 154.771 27.9187 154.136 26.78C153.52 25.6413 153.212 24.344 153.212 22.888C153.212 21.5253 153.511 20.2653 154.108 19.108C154.705 17.9507 155.536 17.0267 156.6 16.336C157.683 15.6267 158.924 15.272 160.324 15.272C161.799 15.272 163.049 15.5893 164.076 16.224C165.121 16.8587 165.915 17.7267 166.456 18.828C166.997 19.9293 167.268 21.1707 167.268 22.552C167.268 22.7573 167.259 22.944 167.24 23.112C167.24 23.28 167.231 23.4107 167.212 23.504H156.18C156.329 24.9227 156.824 25.9867 157.664 26.696C158.523 27.4053 159.493 27.76 160.576 27.76C161.547 27.76 162.349 27.5453 162.984 27.116C163.619 26.668 164.123 26.1173 164.496 25.464L166.988 26.668C166.372 27.788 165.532 28.7027 164.468 29.412C163.404 30.1027 162.079 30.448 160.492 30.448ZM160.352 17.848C159.344 17.848 158.485 18.156 157.776 18.772C157.067 19.388 156.591 20.2093 156.348 21.236H164.272C164.235 20.7507 164.076 20.2467 163.796 19.724C163.516 19.2013 163.087 18.7627 162.508 18.408C161.948 18.0347 161.229 17.848 160.352 17.848ZM176.614 30.448C175.326 30.448 174.159 30.1307 173.114 29.496C172.087 28.8427 171.266 27.9467 170.65 26.808C170.053 25.6507 169.754 24.3347 169.754 22.86C169.754 21.3853 170.053 20.0787 170.65 18.94C171.266 17.8013 172.087 16.9053 173.114 16.252C174.159 15.5987 175.326 15.272 176.614 15.272C177.715 15.272 178.658 15.5147 179.442 16C180.245 16.4853 180.833 17.036 181.206 17.652H181.374L181.206 15.664V9.952H184.202V30H181.374V28.096H181.206C180.833 28.712 180.245 29.2627 179.442 29.748C178.658 30.2147 177.715 30.448 176.614 30.448ZM177.062 27.676C177.809 27.676 178.509 27.48 179.162 27.088C179.834 26.696 180.366 26.1453 180.758 25.436C181.169 24.708 181.374 23.8493 181.374 22.86C181.374 21.8707 181.169 21.0213 180.758 20.312C180.366 19.584 179.834 19.024 179.162 18.632C178.509 18.24 177.809 18.044 177.062 18.044C176.315 18.044 175.615 18.24 174.962 18.632C174.309 19.024 173.777 19.584 173.366 20.312C172.955 21.0213 172.75 21.8707 172.75 22.86C172.75 23.8493 172.955 24.708 173.366 25.436C173.777 26.1453 174.309 26.696 174.962 27.088C175.615 27.48 176.315 27.676 177.062 27.676Z" fill="white"/>
<g id="GPay Logo (Dark)">
<g id="GPay">
<g id="Pay">
<path id="Fill 1" fill-rule="evenodd" clip-rule="evenodd" d="M236.529 9.34665V17.5128H241.565C242.765 17.5128 243.757 17.1096 244.541 16.3032C245.347 15.4988 245.75 14.5394 245.75 13.4288C245.75 12.3406 245.347 11.3924 244.541 10.586C243.757 9.75916 242.765 9.34479 241.565 9.34479H236.529V9.34665ZM236.529 20.3872V29.8599H233.521V6.47218H241.499C243.527 6.47218 245.248 7.14787 246.666 8.49738C248.105 9.84688 248.824 11.4913 248.824 13.4288C248.824 15.411 248.105 17.0667 246.666 18.3938C245.27 19.7227 243.547 20.3854 241.499 20.3854H236.529V20.3872Z" fill="white"/>
<path id="Fill 3" fill-rule="evenodd" clip-rule="evenodd" d="M251.864 24.9602C251.864 25.7442 252.197 26.3975 252.862 26.9201C253.527 27.4427 254.306 27.704 255.2 27.704C256.465 27.704 257.591 27.2354 258.584 26.3004C259.576 25.3634 260.071 24.264 260.071 23.0022C259.133 22.2612 257.825 21.8916 256.147 21.8916C254.925 21.8916 253.907 22.1866 253.09 22.7745C252.273 23.3623 251.864 24.0886 251.864 24.9602ZM255.756 13.3317C257.98 13.3317 259.735 13.9253 261.022 15.1124C262.308 16.2995 262.95 17.9271 262.95 19.9952V29.8599H260.073V27.6387H259.942C258.699 29.4677 257.042 30.3825 254.972 30.3825C253.206 30.3825 251.728 29.8599 250.541 28.8146C249.353 27.7694 248.759 26.4628 248.759 24.8949C248.759 23.2393 249.385 21.9232 250.638 20.9434C251.892 19.9635 253.565 19.4726 255.658 19.4726C257.444 19.4726 258.916 19.7993 260.071 20.4525V19.7657C260.071 18.7204 259.656 17.8338 258.829 17.104C257.999 16.3742 257.031 16.0102 255.919 16.0102C254.239 16.0102 252.911 16.7176 251.93 18.1343L249.28 16.4675C250.741 14.377 252.899 13.3317 255.756 13.3317Z" fill="white"/>
<path id="Fill 5" fill-rule="evenodd" clip-rule="evenodd" d="M279.463 13.8543L269.424 36.9154H266.318L270.046 28.8464L263.44 13.8543H266.71L271.484 25.3522H271.55L276.193 13.8543H279.463Z" fill="white"/>
</g>
<g id="G">
<path id="Fill 8" fill-rule="evenodd" clip-rule="evenodd" d="M224.373 18.3452C224.373 17.3989 224.293 16.4861 224.141 15.6126H211.454V20.7885H218.72C218.408 22.4757 217.465 23.9112 216.033 24.8725V28.2341H220.37C222.91 25.8935 224.373 22.4348 224.373 18.3452Z" fill="#4285F4"/>
<path id="Fill 10" fill-rule="evenodd" clip-rule="evenodd" d="M211.454 31.4782C215.084 31.4782 218.141 30.2873 220.37 28.2341L216.033 24.8725C214.826 25.6844 213.272 26.1585 211.454 26.1585C207.944 26.1585 204.966 23.7955 203.901 20.6112H199.433V24.0736C201.647 28.4637 206.197 31.4782 211.454 31.4782Z" fill="#34A853"/>
<path id="Fill 12" fill-rule="evenodd" clip-rule="evenodd" d="M203.901 20.6111C203.628 19.7992 203.479 18.9331 203.479 18.0391C203.479 17.145 203.628 16.2789 203.901 15.467V12.0045H199.433C198.518 13.8188 198 15.8683 198 18.0391C198 20.2098 198.518 22.2595 199.433 24.0736L203.901 20.6111Z" fill="#FABB05"/>
<path id="Fill 14" fill-rule="evenodd" clip-rule="evenodd" d="M211.454 9.91964C213.436 9.91964 215.213 10.6009 216.615 11.9355V11.9374L220.455 8.10163C218.123 5.93272 215.082 4.60001 211.454 4.60001C206.197 4.60001 201.647 7.61447 199.433 12.0046L203.901 15.467C204.966 12.2827 207.944 9.91964 211.454 9.91964Z" fill="#E94235"/>
</g>
</g>
</g>
</g>
</svg>
