<svg width="127" height="21" viewBox="0 0 127 21" fill="none" xmlns="http://www.w3.org/2000/svg">
<g id="no_buy_with_Pay_NBG">
<path id="Left Text" d="M2.21475 15.0006V3.54461H3.97475V9.17661L8.74275 3.54461H10.9187V3.64061L6.72675 8.47261L11.2867 14.9046V15.0006H9.14275L5.54275 9.84861L3.97475 11.6726V15.0006H2.21475ZM12.048 18.6166C11.8773 18.6166 11.7227 18.6059 11.584 18.5846C11.4347 18.5633 11.2907 18.5366 11.152 18.5046V16.8406C11.248 16.8939 11.3653 16.9419 11.504 16.9846C11.6427 17.0273 11.776 17.0486 11.904 17.0486C12.2027 17.0486 12.416 16.9526 12.544 16.7606C12.672 16.5793 12.736 16.3126 12.736 15.9606V6.84061H14.464V15.9766C14.464 16.6059 14.3573 17.1126 14.144 17.4966C13.9413 17.8806 13.6587 18.1633 13.296 18.3446C12.9333 18.5259 12.5173 18.6166 12.048 18.6166ZM13.6 5.64061C13.28 5.64061 13.0027 5.52861 12.768 5.30461C12.544 5.06994 12.432 4.79261 12.432 4.47261C12.432 4.14194 12.544 3.86994 12.768 3.65661C13.0027 3.43261 13.28 3.32061 13.6 3.32061C13.9307 3.32061 14.208 3.43261 14.432 3.65661C14.656 3.86994 14.768 4.14194 14.768 4.47261C14.768 4.79261 14.656 5.06994 14.432 5.30461C14.208 5.52861 13.9307 5.64061 13.6 5.64061ZM20.5199 15.2566C19.8905 15.2566 19.3199 15.1499 18.8079 14.9366L18.3919 15.5926L17.2399 14.9366L17.6719 14.2326C17.3199 13.9233 17.0265 13.5553 16.7919 13.1286C16.4292 12.4673 16.2479 11.7313 16.2479 10.9206C16.2479 10.1099 16.4292 9.37928 16.7919 8.72861C17.1545 8.06728 17.6559 7.54461 18.2959 7.16061C18.9359 6.77661 19.6772 6.58461 20.5199 6.58461C21.1492 6.58461 21.7199 6.69661 22.2319 6.92061L22.6639 6.24861L23.8159 6.88861L23.3519 7.62461C23.7039 7.93394 23.9972 8.30194 24.2319 8.72861C24.5945 9.37928 24.7759 10.1099 24.7759 10.9206C24.7759 11.7313 24.5945 12.4673 24.2319 13.1286C23.8692 13.7793 23.3679 14.2966 22.7279 14.6806C22.0879 15.0646 21.3519 15.2566 20.5199 15.2566ZM18.5839 12.7766L21.3679 8.31261C21.1012 8.21661 20.8185 8.16861 20.5199 8.16861C20.0719 8.16861 19.6505 8.28061 19.2559 8.50461C18.8719 8.71794 18.5572 9.03261 18.3119 9.44861C18.0772 9.85394 17.9599 10.3446 17.9599 10.9206C17.9599 11.4966 18.0825 11.9926 18.3279 12.4086C18.4025 12.5366 18.4879 12.6593 18.5839 12.7766ZM20.5199 13.6726C20.9679 13.6726 21.3839 13.5659 21.7679 13.3526C22.1519 13.1286 22.4612 12.8139 22.6959 12.4086C22.9412 11.9926 23.0639 11.4966 23.0639 10.9206C23.0639 10.3446 22.9412 9.85394 22.6959 9.44861C22.6212 9.30994 22.5412 9.18728 22.4559 9.08061L19.6879 13.5286C19.9545 13.6246 20.2319 13.6726 20.5199 13.6726ZM26.4232 18.4566V6.84061H28.0392V7.94461H28.1352C28.2846 7.70994 28.4819 7.49128 28.7272 7.28861C28.9832 7.07528 29.2819 6.90461 29.6232 6.77661C29.9646 6.64861 30.3432 6.58461 30.7592 6.58461C31.5059 6.58461 32.1726 6.77128 32.7592 7.14461C33.3459 7.51794 33.8099 8.02994 34.1512 8.68061C34.5032 9.33128 34.6792 10.0779 34.6792 10.9206C34.6792 11.7633 34.5032 12.5099 34.1512 13.1606C33.8099 13.8113 33.3459 14.3233 32.7592 14.6966C32.1726 15.0699 31.5059 15.2566 30.7592 15.2566C30.1406 15.2566 29.6019 15.1179 29.1432 14.8406C28.6846 14.5633 28.3486 14.2539 28.1352 13.9126H28.0392L28.1352 15.0486V18.4566H26.4232ZM30.5032 13.6726C30.9299 13.6726 31.3299 13.5606 31.7032 13.3366C32.0872 13.1126 32.3912 12.7926 32.6152 12.3766C32.8499 11.9606 32.9672 11.4753 32.9672 10.9206C32.9672 10.3553 32.8499 9.86994 32.6152 9.46461C32.3912 9.04861 32.0872 8.72861 31.7032 8.50461C31.3299 8.28061 30.9299 8.16861 30.5032 8.16861C30.0766 8.16861 29.6766 8.28061 29.3032 8.50461C28.9299 8.72861 28.6259 9.04861 28.3912 9.46461C28.1566 9.86994 28.0392 10.3553 28.0392 10.9206C28.0392 11.4859 28.1566 11.9766 28.3912 12.3926C28.6259 12.7979 28.9299 13.1126 29.3032 13.3366C29.6766 13.5606 30.0766 13.6726 30.5032 13.6726ZM40.3017 15.0006V6.84061H41.9337V7.96061H42.0297C42.1897 7.69394 42.3977 7.45928 42.6537 7.25661C42.9097 7.05394 43.1977 6.89394 43.5177 6.77661C43.8484 6.64861 44.1897 6.58461 44.5417 6.58461C45.1497 6.58461 45.6671 6.72861 46.0937 7.01661C46.5204 7.30461 46.8244 7.66728 47.0057 8.10461C47.2724 7.67794 47.6351 7.32061 48.0937 7.03261C48.5524 6.73394 49.1124 6.58461 49.7737 6.58461C50.7337 6.58461 51.4484 6.87794 51.9177 7.46461C52.3871 8.04061 52.6217 8.80861 52.6217 9.76861V15.0006H50.9097V10.0566C50.9097 9.39528 50.7657 8.91528 50.4777 8.61661C50.2004 8.31794 49.8111 8.16861 49.3097 8.16861C48.9151 8.16861 48.5684 8.28061 48.2697 8.50461C47.9711 8.71794 47.7364 9.01128 47.5657 9.38461C47.4057 9.75794 47.3257 10.1739 47.3257 10.6326V15.0006H45.6137V10.0566C45.6137 9.40594 45.4697 8.93128 45.1817 8.63261C44.8937 8.32328 44.4884 8.16861 43.9657 8.16861C43.5924 8.16861 43.2564 8.28061 42.9577 8.50461C42.6697 8.72861 42.4404 9.02728 42.2697 9.40061C42.1097 9.77394 42.0297 10.1899 42.0297 10.6486V15.0006H40.3017ZM58.4454 15.2566C57.6454 15.2566 56.9307 15.0699 56.3014 14.6966C55.672 14.3233 55.176 13.8113 54.8134 13.1606C54.4614 12.5099 54.2854 11.7686 54.2854 10.9366C54.2854 10.1579 54.456 9.43794 54.7974 8.77661C55.1387 8.11528 55.6134 7.58728 56.2214 7.19261C56.84 6.78728 57.5494 6.58461 58.3494 6.58461C59.192 6.58461 59.9067 6.76594 60.4934 7.12861C61.0907 7.49128 61.544 7.98728 61.8534 8.61661C62.1627 9.24594 62.3174 9.95528 62.3174 10.7446C62.3174 10.8619 62.312 10.9686 62.3014 11.0646C62.3014 11.1606 62.296 11.2353 62.2854 11.2886H55.9814C56.024 11.7366 56.136 12.1259 56.3174 12.4566C56.552 12.8726 56.8614 13.1873 57.2454 13.4006C57.6294 13.6139 58.0454 13.7206 58.4934 13.7206C59.0374 13.7206 59.4907 13.5979 59.8534 13.3526C60.2267 13.0966 60.52 12.7819 60.7334 12.4086L62.1574 13.0966C61.8054 13.7366 61.3254 14.2593 60.7174 14.6646C60.1094 15.0593 59.352 15.2566 58.4454 15.2566ZM56.0774 9.99261H60.6054C60.5947 9.78994 60.5414 9.57661 60.4454 9.35261C60.3494 9.11794 60.2107 8.90461 60.0294 8.71261C59.848 8.52061 59.6187 8.36594 59.3414 8.24861C59.064 8.12061 58.7387 8.05661 58.3654 8.05661C57.896 8.05661 57.48 8.17928 57.1174 8.42461C56.7547 8.65928 56.472 8.98994 56.2694 9.41661C56.184 9.59794 56.12 9.78994 56.0774 9.99261ZM67.6366 15.2566C66.9006 15.2566 66.234 15.0699 65.6366 14.6966C65.0393 14.3233 64.57 13.8113 64.2286 13.1606C63.8873 12.5099 63.7166 11.7633 63.7166 10.9206C63.7166 10.0779 63.8873 9.33128 64.2286 8.68061C64.57 8.02994 65.0393 7.51794 65.6366 7.14461C66.234 6.77128 66.9006 6.58461 67.6366 6.58461C68.0633 6.58461 68.4473 6.64861 68.7886 6.77661C69.13 6.90461 69.4233 7.07528 69.6686 7.28861C69.9246 7.49128 70.122 7.70994 70.2606 7.94461H70.3566L70.2606 6.80861V3.54461H71.9726V15.0006H70.3566V13.9126H70.2606C70.122 14.1366 69.9246 14.3553 69.6686 14.5686C69.4233 14.7713 69.13 14.9366 68.7886 15.0646C68.4473 15.1926 68.0633 15.2566 67.6366 15.2566ZM67.8926 13.6726C68.3193 13.6726 68.7193 13.5606 69.0926 13.3366C69.4766 13.1126 69.7806 12.7979 70.0046 12.3926C70.2393 11.9766 70.3566 11.4859 70.3566 10.9206C70.3566 10.3553 70.2393 9.86994 70.0046 9.46461C69.7806 9.04861 69.4766 8.72861 69.0926 8.50461C68.7193 8.28061 68.3193 8.16861 67.8926 8.16861C67.466 8.16861 67.066 8.28061 66.6926 8.50461C66.3193 8.72861 66.0153 9.04861 65.7806 9.46461C65.546 9.86994 65.4286 10.3553 65.4286 10.9206C65.4286 11.4753 65.546 11.9606 65.7806 12.3766C66.0153 12.7926 66.3193 13.1126 66.6926 13.3366C67.066 13.5606 67.466 13.6726 67.8926 13.6726Z" fill="white"/>
<g id="GPay (Dark)">
<g id="GPay">
<g id="Pay">
<path id="Fill 1" fill-rule="evenodd" clip-rule="evenodd" d="M101.356 3.42339V8.16175H104.278C104.974 8.16175 105.55 7.92781 106.005 7.45993C106.473 6.99313 106.707 6.43644 106.707 5.79203C106.707 5.16061 106.473 4.61041 106.005 4.14254C105.55 3.66274 104.974 3.4223 104.278 3.4223H101.356V3.42339ZM101.356 9.82966V15.3262H99.6107V1.75549H104.24C105.417 1.75549 106.415 2.14756 107.238 2.93061C108.073 3.71365 108.491 4.66782 108.491 5.79203C108.491 6.94224 108.073 7.90291 107.238 8.67296C106.428 9.44409 105.429 9.82858 104.24 9.82858H101.356V9.82966Z" fill="white"/>
<path id="Fill 3" fill-rule="evenodd" clip-rule="evenodd" d="M110.255 12.4831C110.255 12.9379 110.448 13.317 110.834 13.6203C111.22 13.9235 111.672 14.0752 112.19 14.0752C112.924 14.0752 113.578 13.8032 114.153 13.2607C114.729 12.717 115.017 12.0791 115.017 11.3469C114.472 10.917 113.713 10.7025 112.74 10.7025C112.031 10.7025 111.44 10.8736 110.966 11.2148C110.492 11.5559 110.255 11.9773 110.255 12.4831M112.513 5.73566C113.803 5.73566 114.821 6.08007 115.569 6.76889C116.314 7.45771 116.687 8.40213 116.687 9.60216V15.3261H115.018V14.0373H114.942C114.221 15.0985 113.259 15.6294 112.058 15.6294C111.033 15.6294 110.176 15.3261 109.487 14.7196C108.797 14.1131 108.453 13.3549 108.453 12.4452C108.453 11.4845 108.816 10.7208 109.543 10.1523C110.271 9.58375 111.241 9.2989 112.456 9.2989C113.492 9.2989 114.346 9.48844 115.017 9.86751V9.46894C115.017 8.86243 114.776 8.34798 114.296 7.92451C113.814 7.50103 113.252 7.28984 112.607 7.28984C111.633 7.28984 110.862 7.70032 110.293 8.52235L108.755 7.55519C109.603 6.34217 110.855 5.73566 112.513 5.73566" fill="white"/>
<path id="Fill 5" fill-rule="evenodd" clip-rule="evenodd" d="M126.269 6.03894L120.443 19.4201H118.641L120.804 14.738L116.971 6.03894H118.869L121.639 12.7106H121.677L124.371 6.03894H126.269Z" fill="white"/>
</g>
<g id="G">
<path id="Fill 8" fill-rule="evenodd" clip-rule="evenodd" d="M94.3029 8.64473C94.3029 8.09563 94.2562 7.56601 94.1684 7.05914H86.8065V10.0625H91.0231C90.842 11.0414 90.2944 11.8744 89.4639 12.4322V14.3828H91.9804C93.4539 13.0246 94.3029 11.0177 94.3029 8.64473" fill="#4285F4"/>
<path id="Fill 10" fill-rule="evenodd" clip-rule="evenodd" d="M86.8065 16.2651C88.9131 16.2651 90.6869 15.5741 91.9804 14.3828L89.4639 12.4322C88.7635 12.9033 87.8614 13.1784 86.8065 13.1784C84.7703 13.1784 83.042 11.8073 82.424 9.95959H79.8316V11.9687C81.1164 14.516 83.7565 16.2651 86.8065 16.2651" fill="#34A853"/>
<path id="Fill 12" fill-rule="evenodd" clip-rule="evenodd" d="M82.424 9.9596C82.2657 9.48847 82.179 8.98593 82.179 8.46715C82.179 7.94837 82.2657 7.44583 82.424 6.9747V4.96564H79.8316C79.3003 6.01837 79 7.20756 79 8.46715C79 9.72674 79.3003 10.916 79.8316 11.9687L82.424 9.9596Z" fill="#FABB05"/>
<path id="Fill 14" fill-rule="evenodd" clip-rule="evenodd" d="M86.8065 3.75583C87.9568 3.75583 88.9879 4.15115 89.8011 4.92553V4.92661L92.0292 2.70094C90.6761 1.44243 88.912 0.669128 86.8065 0.669128C83.7565 0.669128 81.1164 2.41826 79.8316 4.9656L82.424 6.97467C83.042 5.12698 84.7703 3.75583 86.8065 3.75583" fill="#E94235"/>
</g>
</g>
</g>
</g>
</svg>
