<svg width="336" height="38" viewBox="0 0 336 38" fill="none" xmlns="http://www.w3.org/2000/svg">
<g id="no_checkout_with_Light">
<path id="Text" d="M2.69924 30V9.952H14.8512V12.864H5.77924V18.744H13.9552V21.656H5.77924V30H2.69924ZM22.5776 30.448C20.8229 30.448 19.4976 29.9253 18.6016 28.88C17.7243 27.816 17.2856 26.3787 17.2856 24.568V15.72H20.3096V24.148C20.3096 25.3613 20.5896 26.2573 21.1496 26.836C21.7283 27.396 22.4469 27.676 23.3056 27.676C24.0709 27.676 24.7336 27.48 25.2936 27.088C25.8723 26.6773 26.3109 26.1547 26.6096 25.52C26.9269 24.8667 27.0856 24.1573 27.0856 23.392V15.72H30.0816V30H27.2536V28.068H27.0856C26.6749 28.74 26.0589 29.3093 25.2376 29.776C24.4349 30.224 23.5483 30.448 22.5776 30.448ZM33.9678 30V9.952H36.9918V30H33.9678ZM40.885 30V9.952H43.909V30H40.885ZM49.3982 30V18.352H46.7942V15.72H49.3982V14.544C49.3982 13.536 49.6128 12.6773 50.0422 11.968C50.4715 11.24 51.0502 10.6893 51.7782 10.316C52.5248 9.924 53.3648 9.728 54.2982 9.728C54.8022 9.728 55.2315 9.76533 55.5862 9.84C55.9595 9.896 56.2675 9.97067 56.5102 10.064V13.004C56.2675 12.9107 55.9875 12.8173 55.6702 12.724C55.3715 12.612 54.9982 12.556 54.5502 12.556C53.9715 12.556 53.4675 12.752 53.0382 13.144C52.6088 13.5173 52.3942 14.068 52.3942 14.796V15.72H55.9782V18.352H52.3942V30H49.3982ZM65.0207 30.448C63.546 30.448 62.2487 30.112 61.1287 29.44C60.0087 28.768 59.1314 27.8627 58.4967 26.724C57.862 25.5853 57.5447 24.2973 57.5447 22.86C57.5447 21.4413 57.862 20.1627 58.4967 19.024C59.1314 17.8667 60.0087 16.952 61.1287 16.28C62.2487 15.608 63.546 15.272 65.0207 15.272C66.4767 15.272 67.7647 15.608 68.8847 16.28C70.0047 16.952 70.882 17.8667 71.5167 19.024C72.1514 20.1627 72.4687 21.4413 72.4687 22.86C72.4687 24.2973 72.1514 25.5853 71.5167 26.724C70.882 27.8627 70.0047 28.768 68.8847 29.44C67.7647 30.112 66.4767 30.448 65.0207 30.448ZM65.0207 27.676C65.8047 27.676 66.5327 27.4893 67.2047 27.116C67.8767 26.724 68.418 26.1733 68.8287 25.464C69.258 24.736 69.4727 23.868 69.4727 22.86C69.4727 21.852 69.258 20.9933 68.8287 20.284C68.418 19.556 67.8767 19.0053 67.2047 18.632C66.5327 18.24 65.8047 18.044 65.0207 18.044C64.2367 18.044 63.4994 18.24 62.8087 18.632C62.1367 19.0053 61.586 19.556 61.1567 20.284C60.746 20.9933 60.5407 21.852 60.5407 22.86C60.5407 23.868 60.746 24.736 61.1567 25.464C61.586 26.1733 62.1367 26.724 62.8087 27.116C63.4994 27.4893 64.2367 27.676 65.0207 27.676ZM61.2967 31.036L59.2807 29.888L68.7727 14.684L70.7887 15.804L61.2967 31.036ZM75.2804 30V15.72H78.1364V17.82H78.3044C78.6217 17.092 79.1631 16.4947 79.9284 16.028C80.7124 15.5427 81.5524 15.3 82.4484 15.3C82.8404 15.3 83.1671 15.328 83.4284 15.384C83.7084 15.44 83.9604 15.5053 84.1844 15.58V18.716C83.8297 18.5667 83.4657 18.4453 83.0924 18.352C82.7377 18.2587 82.3644 18.212 81.9724 18.212C81.2631 18.212 80.6284 18.408 80.0684 18.8C79.5271 19.1733 79.0977 19.6867 78.7804 20.34C78.4631 20.9747 78.3044 21.6747 78.3044 22.44V30H75.2804ZM93.6538 30V9.952H96.6778V21.768L102.726 15.72H106.478V15.888L100.962 21.348L106.674 29.832V30H103.09L98.8338 23.448L96.6778 25.576V30H93.6538ZM110.592 13.62C110.032 13.62 109.547 13.424 109.136 13.032C108.744 12.6213 108.548 12.136 108.548 11.576C108.548 11.016 108.744 10.54 109.136 10.148C109.547 9.756 110.032 9.56 110.592 9.56C111.152 9.56 111.628 9.756 112.02 10.148C112.431 10.54 112.636 11.016 112.636 11.576C112.636 12.136 112.431 12.6213 112.02 13.032C111.628 13.424 111.152 13.62 110.592 13.62ZM107.876 36.328C107.298 36.328 106.775 36.2627 106.308 36.132V33.22C106.495 33.332 106.71 33.416 106.952 33.472C107.176 33.5467 107.4 33.584 107.624 33.584C108.166 33.584 108.539 33.416 108.744 33.08C108.968 32.7627 109.08 32.296 109.08 31.68V15.72H112.104V31.708C112.104 33.3507 111.703 34.5267 110.9 35.236C110.098 35.964 109.09 36.328 107.876 36.328ZM122.739 30.448C121.265 30.448 119.967 30.112 118.847 29.44C117.727 28.768 116.85 27.8627 116.215 26.724C115.581 25.5853 115.263 24.2973 115.263 22.86C115.263 21.4413 115.581 20.1627 116.215 19.024C116.85 17.8667 117.727 16.952 118.847 16.28C119.967 15.608 121.265 15.272 122.739 15.272C124.195 15.272 125.483 15.608 126.603 16.28C127.723 16.952 128.601 17.8667 129.235 19.024C129.87 20.1627 130.187 21.4413 130.187 22.86C130.187 24.2973 129.87 25.5853 129.235 26.724C128.601 27.8627 127.723 28.768 126.603 29.44C125.483 30.112 124.195 30.448 122.739 30.448ZM122.739 27.676C123.523 27.676 124.251 27.4893 124.923 27.116C125.595 26.724 126.137 26.1733 126.547 25.464C126.977 24.736 127.191 23.868 127.191 22.86C127.191 21.852 126.977 20.9933 126.547 20.284C126.137 19.556 125.595 19.0053 124.923 18.632C124.251 18.24 123.523 18.044 122.739 18.044C121.955 18.044 121.218 18.24 120.527 18.632C119.855 19.0053 119.305 19.556 118.875 20.284C118.465 20.9933 118.259 21.852 118.259 22.86C118.259 23.868 118.465 24.736 118.875 25.464C119.305 26.1733 119.855 26.724 120.527 27.116C121.218 27.4893 121.955 27.676 122.739 27.676ZM119.015 31.036L116.999 29.888L126.491 14.684L128.507 15.804L119.015 31.036ZM133.108 36.048V15.72H135.936V17.652H136.104C136.477 17.036 137.056 16.4853 137.84 16C138.643 15.5147 139.595 15.272 140.696 15.272C142.003 15.272 143.169 15.5987 144.196 16.252C145.223 16.9053 146.035 17.8013 146.632 18.94C147.248 20.0787 147.556 21.3853 147.556 22.86C147.556 24.3347 147.248 25.6507 146.632 26.808C146.035 27.9467 145.223 28.8427 144.196 29.496C143.169 30.1307 142.003 30.448 140.696 30.448C139.595 30.448 138.643 30.2147 137.84 29.748C137.056 29.2627 136.477 28.712 136.104 28.096H135.936L136.104 30.084V36.048H133.108ZM140.248 27.676C140.995 27.676 141.695 27.48 142.348 27.088C143.001 26.696 143.533 26.1453 143.944 25.436C144.355 24.708 144.56 23.8493 144.56 22.86C144.56 21.8707 144.355 21.0213 143.944 20.312C143.533 19.584 143.001 19.024 142.348 18.632C141.695 18.24 140.995 18.044 140.248 18.044C139.501 18.044 138.801 18.24 138.148 18.632C137.495 19.024 136.963 19.584 136.552 20.312C136.141 21.0213 135.936 21.8707 135.936 22.86C135.936 23.8493 136.141 24.708 136.552 25.436C136.963 26.1453 137.495 26.696 138.148 27.088C138.801 27.48 139.501 27.676 140.248 27.676ZM157.159 30.448C155.759 30.448 154.508 30.1213 153.407 29.468C152.306 28.8147 151.438 27.9187 150.803 26.78C150.187 25.6413 149.879 24.344 149.879 22.888C149.879 21.5253 150.178 20.2653 150.775 19.108C151.372 17.9507 152.203 17.0267 153.267 16.336C154.35 15.6267 155.591 15.272 156.991 15.272C158.466 15.272 159.716 15.5893 160.743 16.224C161.788 16.8587 162.582 17.7267 163.123 18.828C163.664 19.9293 163.935 21.1707 163.935 22.552C163.935 22.7573 163.926 22.944 163.907 23.112C163.907 23.28 163.898 23.4107 163.879 23.504H152.847C152.996 24.9227 153.491 25.9867 154.331 26.696C155.19 27.4053 156.16 27.76 157.243 27.76C158.214 27.76 159.016 27.5453 159.651 27.116C160.286 26.668 160.79 26.1173 161.163 25.464L163.655 26.668C163.039 27.788 162.199 28.7027 161.135 29.412C160.071 30.1027 158.746 30.448 157.159 30.448ZM157.019 17.848C156.011 17.848 155.152 18.156 154.443 18.772C153.734 19.388 153.258 20.2093 153.015 21.236H160.939C160.902 20.7507 160.743 20.2467 160.463 19.724C160.183 19.2013 159.754 18.7627 159.175 18.408C158.615 18.0347 157.896 17.848 157.019 17.848ZM168.142 25.856V18.352H165.65V15.72H168.142V11.688H171.166V15.72H174.666V18.352H171.166V25.212C171.166 25.9213 171.306 26.4627 171.586 26.836C171.885 27.2093 172.38 27.396 173.07 27.396C173.425 27.396 173.724 27.3493 173.966 27.256C174.228 27.1627 174.489 27.032 174.75 26.864V29.804C174.433 29.9347 174.097 30.0373 173.742 30.112C173.388 30.1867 172.968 30.224 172.482 30.224C171.157 30.224 170.102 29.8413 169.318 29.076C168.534 28.292 168.142 27.2187 168.142 25.856ZM184.703 30V15.72H187.559V17.68H187.727C188.138 16.9893 188.735 16.42 189.519 15.972C190.303 15.5053 191.171 15.272 192.123 15.272C193.187 15.272 194.092 15.524 194.839 16.028C195.586 16.532 196.118 17.1667 196.435 17.932C196.902 17.1853 197.536 16.56 198.339 16.056C199.142 15.5333 200.122 15.272 201.279 15.272C202.959 15.272 204.21 15.7853 205.031 16.812C205.852 17.82 206.263 19.164 206.263 20.844V30H203.267V21.348C203.267 20.2093 203.015 19.3787 202.511 18.856C202.026 18.3147 201.344 18.044 200.467 18.044C199.776 18.044 199.17 18.24 198.647 18.632C198.124 19.0053 197.714 19.5187 197.415 20.172C197.135 20.8253 196.995 21.5533 196.995 22.356V30H193.999V21.348C193.999 20.2093 193.747 19.3787 193.243 18.856C192.739 18.3147 192.03 18.044 191.115 18.044C190.443 18.044 189.855 18.24 189.351 18.632C188.847 19.024 188.446 19.5467 188.147 20.2C187.867 20.8533 187.727 21.5813 187.727 22.384V30H184.703ZM216.492 30.448C215.092 30.448 213.841 30.1213 212.74 29.468C211.639 28.8147 210.771 27.9187 210.136 26.78C209.52 25.6413 209.212 24.344 209.212 22.888C209.212 21.5253 209.511 20.2653 210.108 19.108C210.705 17.9507 211.536 17.0267 212.6 16.336C213.683 15.6267 214.924 15.272 216.324 15.272C217.799 15.272 219.049 15.5893 220.076 16.224C221.121 16.8587 221.915 17.7267 222.456 18.828C222.997 19.9293 223.268 21.1707 223.268 22.552C223.268 22.7573 223.259 22.944 223.24 23.112C223.24 23.28 223.231 23.4107 223.212 23.504H212.18C212.329 24.9227 212.824 25.9867 213.664 26.696C214.523 27.4053 215.493 27.76 216.576 27.76C217.547 27.76 218.349 27.5453 218.984 27.116C219.619 26.668 220.123 26.1173 220.496 25.464L222.988 26.668C222.372 27.788 221.532 28.7027 220.468 29.412C219.404 30.1027 218.079 30.448 216.492 30.448ZM216.352 17.848C215.344 17.848 214.485 18.156 213.776 18.772C213.067 19.388 212.591 20.2093 212.348 21.236H220.272C220.235 20.7507 220.076 20.2467 219.796 19.724C219.516 19.2013 219.087 18.7627 218.508 18.408C217.948 18.0347 217.229 17.848 216.352 17.848ZM232.614 30.448C231.326 30.448 230.159 30.1307 229.114 29.496C228.087 28.8427 227.266 27.9467 226.65 26.808C226.053 25.6507 225.754 24.3347 225.754 22.86C225.754 21.3853 226.053 20.0787 226.65 18.94C227.266 17.8013 228.087 16.9053 229.114 16.252C230.159 15.5987 231.326 15.272 232.614 15.272C233.715 15.272 234.658 15.5147 235.442 16C236.245 16.4853 236.833 17.036 237.206 17.652H237.374L237.206 15.664V9.952H240.202V30H237.374V28.096H237.206C236.833 28.712 236.245 29.2627 235.442 29.748C234.658 30.2147 233.715 30.448 232.614 30.448ZM233.062 27.676C233.809 27.676 234.509 27.48 235.162 27.088C235.834 26.696 236.366 26.1453 236.758 25.436C237.169 24.708 237.374 23.8493 237.374 22.86C237.374 21.8707 237.169 21.0213 236.758 20.312C236.366 19.584 235.834 19.024 235.162 18.632C234.509 18.24 233.809 18.044 233.062 18.044C232.315 18.044 231.615 18.24 230.962 18.632C230.309 19.024 229.777 19.584 229.366 20.312C228.955 21.0213 228.75 21.8707 228.75 22.86C228.75 23.8493 228.955 24.708 229.366 25.436C229.777 26.1453 230.309 26.696 230.962 27.088C231.615 27.48 232.315 27.676 233.062 27.676Z" fill="#3C4043"/>
<g id="GPay Logo (Light)">
<g id="GPay">
<g id="Pay">
<path id="Fill 1" fill-rule="evenodd" clip-rule="evenodd" d="M292.529 9.44664V17.6128H297.565C298.765 17.6128 299.757 17.2096 300.541 16.4032C301.347 15.5988 301.75 14.6394 301.75 13.5288C301.75 12.4406 301.347 11.4924 300.541 10.686C299.757 9.85915 298.765 9.44478 297.565 9.44478H292.529V9.44664ZM292.529 20.4872V29.9599H289.521V6.57217H297.499C299.527 6.57217 301.248 7.24786 302.666 8.59737C304.105 9.94688 304.824 11.5913 304.824 13.5288C304.824 15.511 304.105 17.1667 302.666 18.4938C301.27 19.8227 299.547 20.4854 297.499 20.4854H292.529V20.4872Z" fill="#5F6368"/>
<path id="Fill 3" fill-rule="evenodd" clip-rule="evenodd" d="M307.864 25.0602C307.864 25.8442 308.197 26.4975 308.862 27.0201C309.527 27.5427 310.306 27.804 311.2 27.804C312.465 27.804 313.591 27.3354 314.584 26.4004C315.576 25.4634 316.071 24.364 316.071 23.1022C315.133 22.3612 313.825 21.9916 312.147 21.9916C310.925 21.9916 309.907 22.2865 309.09 22.8745C308.273 23.4623 307.864 24.1886 307.864 25.0602ZM311.756 13.4317C313.98 13.4317 315.735 14.0252 317.022 15.2124C318.308 16.3995 318.95 18.0271 318.95 20.0952V29.9599H316.073V27.7387H315.942C314.699 29.5677 313.042 30.4825 310.972 30.4825C309.206 30.4825 307.728 29.9599 306.541 28.9146C305.353 27.8694 304.759 26.5628 304.759 24.9949C304.759 23.3393 305.385 22.0232 306.638 21.0434C307.892 20.0635 309.565 19.5726 311.658 19.5726C313.444 19.5726 314.916 19.8992 316.071 20.5525V19.8656C316.071 18.8204 315.656 17.9338 314.829 17.204C313.999 16.4741 313.031 16.1102 311.919 16.1102C310.239 16.1102 308.911 16.8176 307.93 18.2343L305.28 16.5675C306.741 14.4769 308.899 13.4317 311.756 13.4317Z" fill="#5F6368"/>
<path id="Fill 5" fill-rule="evenodd" clip-rule="evenodd" d="M335.463 13.9543L325.424 37.0154H322.318L326.046 28.9464L319.44 13.9543H322.71L327.484 25.4522H327.55L332.193 13.9543H335.463Z" fill="#5F6368"/>
</g>
<g id="G">
<path id="Fill 8" fill-rule="evenodd" clip-rule="evenodd" d="M280.373 18.4452C280.373 17.4989 280.293 16.5861 280.141 15.7126H267.454V20.8885H274.72C274.408 22.5757 273.465 24.0112 272.033 24.9725V28.3341H276.37C278.91 25.9935 280.373 22.5348 280.373 18.4452Z" fill="#4285F4"/>
<path id="Fill 10" fill-rule="evenodd" clip-rule="evenodd" d="M267.454 31.5782C271.084 31.5782 274.141 30.3873 276.37 28.3341L272.033 24.9725C270.826 25.7844 269.272 26.2585 267.454 26.2585C263.944 26.2585 260.966 23.8955 259.901 20.7112H255.433V24.1736C257.647 28.5637 262.197 31.5782 267.454 31.5782Z" fill="#34A853"/>
<path id="Fill 12" fill-rule="evenodd" clip-rule="evenodd" d="M259.901 20.7111C259.628 19.8992 259.479 19.0331 259.479 18.139C259.479 17.245 259.628 16.3789 259.901 15.567V12.1045H255.433C254.518 13.9188 254 15.9683 254 18.139C254 20.3098 254.518 22.3595 255.433 24.1736L259.901 20.7111Z" fill="#FABB05"/>
<path id="Fill 14" fill-rule="evenodd" clip-rule="evenodd" d="M267.454 10.0196C269.436 10.0196 271.213 10.7009 272.615 12.0355V12.0374L276.455 8.20162C274.123 6.03271 271.082 4.7 267.454 4.7C262.197 4.7 257.647 7.71446 255.433 12.1046L259.901 15.567C260.966 12.3827 263.944 10.0196 267.454 10.0196Z" fill="#E94235"/>
</g>
</g>
</g>
</g>
</svg>
