<svg width="139" height="21" viewBox="0 0 139 21" fill="none" xmlns="http://www.w3.org/2000/svg">
<g id="no_donate_with_Pay_NBG">
<path id="Left Text" d="M2.23663 15.0006V3.54461H5.90063C7.10596 3.54461 8.14063 3.78994 9.00463 4.28061C9.8793 4.76061 10.5513 5.43261 11.0206 6.29661C11.5006 7.16061 11.7406 8.15261 11.7406 9.27261C11.7406 10.3926 11.5006 11.3846 11.0206 12.2486C10.5513 13.1126 9.8793 13.7899 9.00463 14.2806C8.14063 14.7606 7.10596 15.0006 5.90063 15.0006H2.23663ZM3.99663 13.3366H5.85263C6.71663 13.3366 7.45796 13.1766 8.07663 12.8566C8.69529 12.5259 9.16463 12.0566 9.48463 11.4486C9.80463 10.8406 9.96463 10.1153 9.96463 9.27261C9.96463 8.42994 9.80463 7.70461 9.48463 7.09661C9.16463 6.48861 8.69529 6.02461 8.07663 5.70461C7.45796 5.37394 6.71663 5.20861 5.85263 5.20861H3.99663V13.3366ZM17.2199 15.2566C16.3772 15.2566 15.6359 15.0646 14.9959 14.6806C14.3559 14.2966 13.8545 13.7793 13.4919 13.1286C13.1292 12.4673 12.9479 11.7313 12.9479 10.9206C12.9479 10.1099 13.1292 9.37928 13.4919 8.72861C13.8545 8.06728 14.3559 7.54461 14.9959 7.16061C15.6359 6.77661 16.3772 6.58461 17.2199 6.58461C18.0519 6.58461 18.7879 6.78194 19.4279 7.17661C20.0679 7.56061 20.5692 8.07794 20.9319 8.72861C21.2945 9.37928 21.4759 10.1099 21.4759 10.9206C21.4759 11.7313 21.2945 12.4673 20.9319 13.1286C20.5692 13.7793 20.0679 14.2966 19.4279 14.6806C18.7879 15.0646 18.0519 15.2566 17.2199 15.2566ZM17.2199 13.6726C17.6679 13.6726 18.0839 13.5659 18.4679 13.3526C18.8519 13.1286 19.1612 12.8139 19.3959 12.4086C19.6412 11.9926 19.7639 11.4966 19.7639 10.9206C19.7639 10.3446 19.6412 9.85394 19.3959 9.44861C19.1612 9.03261 18.8519 8.71794 18.4679 8.50461C18.0839 8.28061 17.6679 8.16861 17.2199 8.16861C16.7719 8.16861 16.3505 8.28061 15.9559 8.50461C15.5719 8.71794 15.2572 9.03261 15.0119 9.44861C14.7772 9.85394 14.6599 10.3446 14.6599 10.9206C14.6599 11.4966 14.7772 11.9926 15.0119 12.4086C15.2572 12.8139 15.5772 13.1286 15.9719 13.3526C16.3665 13.5659 16.7825 13.6726 17.2199 13.6726ZM23.0611 15.0006V6.84061H24.6931V7.96061H24.7891C25.0238 7.56594 25.3705 7.24061 25.8291 6.98461C26.2985 6.71794 26.8105 6.58461 27.3651 6.58461C28.3678 6.58461 29.1198 6.88328 29.6211 7.48061C30.1225 8.06728 30.3731 8.85661 30.3731 9.84861V15.0006H28.6611V10.0726C28.6611 9.41128 28.4958 8.93128 28.1651 8.63261C27.8345 8.32328 27.4025 8.16861 26.8691 8.16861C26.4531 8.16861 26.0905 8.28594 25.7811 8.52061C25.4718 8.74461 25.2265 9.04328 25.0451 9.41661C24.8745 9.78994 24.7891 10.1899 24.7891 10.6166V15.0006H23.0611ZM36.2204 15.2566C35.4204 15.2566 34.7057 15.0699 34.0764 14.6966C33.447 14.3233 32.951 13.8113 32.5884 13.1606C32.2364 12.5099 32.0604 11.7686 32.0604 10.9366C32.0604 10.1579 32.231 9.43794 32.5724 8.77661C32.9137 8.11528 33.3884 7.58728 33.9964 7.19261C34.615 6.78728 35.3244 6.58461 36.1244 6.58461C36.967 6.58461 37.6817 6.76594 38.2684 7.12861C38.8657 7.49128 39.319 7.98728 39.6284 8.61661C39.9377 9.24594 40.0924 9.95528 40.0924 10.7446C40.0924 10.8619 40.087 10.9686 40.0764 11.0646C40.0764 11.1606 40.071 11.2353 40.0604 11.2886H33.7564C33.799 11.7366 33.911 12.1259 34.0924 12.4566C34.327 12.8726 34.6364 13.1873 35.0204 13.4006C35.4044 13.6139 35.8204 13.7206 36.2684 13.7206C36.8124 13.7206 37.2657 13.5979 37.6284 13.3526C38.0017 13.0966 38.295 12.7819 38.5084 12.4086L39.9324 13.0966C39.5804 13.7366 39.1004 14.2593 38.4924 14.6646C37.8844 15.0593 37.127 15.2566 36.2204 15.2566ZM33.8524 9.99261H38.3804C38.3697 9.78994 38.3164 9.57661 38.2204 9.35261C38.1244 9.11794 37.9857 8.90461 37.8044 8.71261C37.623 8.52061 37.3937 8.36594 37.1164 8.24861C36.839 8.12061 36.5137 8.05661 36.1404 8.05661C35.671 8.05661 35.255 8.17928 34.8924 8.42461C34.5297 8.65928 34.247 8.98994 34.0444 9.41661C33.959 9.59794 33.895 9.78994 33.8524 9.99261ZM35.4204 5.27261L36.1724 3.22461H38.1244L36.8444 5.27261H35.4204ZM41.8455 15.0006V6.84061H43.4775V8.04061H43.5735C43.7015 7.76328 43.8828 7.51794 44.1175 7.30461C44.3628 7.09128 44.6402 6.92061 44.9495 6.79261C45.2695 6.66461 45.6002 6.60061 45.9415 6.60061C46.1655 6.60061 46.3522 6.61661 46.5015 6.64861C46.6615 6.66994 46.8055 6.70728 46.9335 6.76061V8.55261C46.7308 8.46728 46.5228 8.39794 46.3095 8.34461C46.1068 8.29128 45.8935 8.26461 45.6695 8.26461C45.2642 8.26461 44.9015 8.37661 44.5815 8.60061C44.2722 8.81394 44.0268 9.10194 43.8455 9.46461C43.6642 9.82728 43.5735 10.2326 43.5735 10.6806V15.0006H41.8455ZM52.3018 15.0006V6.84061H53.9338V7.96061H54.0298C54.1898 7.69394 54.3978 7.45928 54.6538 7.25661C54.9098 7.05394 55.1978 6.89394 55.5178 6.77661C55.8484 6.64861 56.1898 6.58461 56.5418 6.58461C57.1498 6.58461 57.6671 6.72861 58.0938 7.01661C58.5204 7.30461 58.8244 7.66728 59.0058 8.10461C59.2724 7.67794 59.6351 7.32061 60.0938 7.03261C60.5524 6.73394 61.1124 6.58461 61.7738 6.58461C62.7338 6.58461 63.4484 6.87794 63.9178 7.46461C64.3871 8.04061 64.6218 8.80861 64.6218 9.76861V15.0006H62.9098V10.0566C62.9098 9.39528 62.7658 8.91528 62.4778 8.61661C62.2004 8.31794 61.8111 8.16861 61.3098 8.16861C60.9151 8.16861 60.5684 8.28061 60.2698 8.50461C59.9711 8.71794 59.7364 9.01128 59.5658 9.38461C59.4058 9.75794 59.3258 10.1739 59.3258 10.6326V15.0006H57.6138V10.0566C57.6138 9.40594 57.4698 8.93128 57.1818 8.63261C56.8938 8.32328 56.4884 8.16861 55.9658 8.16861C55.5924 8.16861 55.2564 8.28061 54.9578 8.50461C54.6698 8.72861 54.4404 9.02728 54.2698 9.40061C54.1098 9.77394 54.0298 10.1899 54.0298 10.6486V15.0006H52.3018ZM70.4454 15.2566C69.6454 15.2566 68.9307 15.0699 68.3014 14.6966C67.672 14.3233 67.176 13.8113 66.8134 13.1606C66.4614 12.5099 66.2854 11.7686 66.2854 10.9366C66.2854 10.1579 66.456 9.43794 66.7974 8.77661C67.1387 8.11528 67.6134 7.58728 68.2214 7.19261C68.84 6.78728 69.5494 6.58461 70.3494 6.58461C71.192 6.58461 71.9067 6.76594 72.4934 7.12861C73.0907 7.49128 73.544 7.98728 73.8534 8.61661C74.1627 9.24594 74.3174 9.95528 74.3174 10.7446C74.3174 10.8619 74.312 10.9686 74.3014 11.0646C74.3014 11.1606 74.296 11.2353 74.2854 11.2886H67.9814C68.024 11.7366 68.136 12.1259 68.3174 12.4566C68.552 12.8726 68.8614 13.1873 69.2454 13.4006C69.6294 13.6139 70.0454 13.7206 70.4934 13.7206C71.0374 13.7206 71.4907 13.5979 71.8534 13.3526C72.2267 13.0966 72.52 12.7819 72.7334 12.4086L74.1574 13.0966C73.8054 13.7366 73.3254 14.2593 72.7174 14.6646C72.1094 15.0593 71.352 15.2566 70.4454 15.2566ZM68.0774 9.99261H72.6054C72.5947 9.78994 72.5414 9.57661 72.4454 9.35261C72.3494 9.11794 72.2107 8.90461 72.0294 8.71261C71.848 8.52061 71.6187 8.36594 71.3414 8.24861C71.064 8.12061 70.7387 8.05661 70.3654 8.05661C69.896 8.05661 69.48 8.17928 69.1174 8.42461C68.7547 8.65928 68.472 8.98994 68.2694 9.41661C68.184 9.59794 68.12 9.78994 68.0774 9.99261ZM79.6366 15.2566C78.9006 15.2566 78.234 15.0699 77.6366 14.6966C77.0393 14.3233 76.57 13.8113 76.2286 13.1606C75.8873 12.5099 75.7166 11.7633 75.7166 10.9206C75.7166 10.0779 75.8873 9.33128 76.2286 8.68061C76.57 8.02994 77.0393 7.51794 77.6366 7.14461C78.234 6.77128 78.9006 6.58461 79.6366 6.58461C80.0633 6.58461 80.4473 6.64861 80.7886 6.77661C81.13 6.90461 81.4233 7.07528 81.6686 7.28861C81.9246 7.49128 82.122 7.70994 82.2606 7.94461H82.3566L82.2606 6.80861V3.54461H83.9726V15.0006H82.3566V13.9126H82.2606C82.122 14.1366 81.9246 14.3553 81.6686 14.5686C81.4233 14.7713 81.13 14.9366 80.7886 15.0646C80.4473 15.1926 80.0633 15.2566 79.6366 15.2566ZM79.8926 13.6726C80.3193 13.6726 80.7193 13.5606 81.0926 13.3366C81.4766 13.1126 81.7806 12.7979 82.0046 12.3926C82.2393 11.9766 82.3566 11.4859 82.3566 10.9206C82.3566 10.3553 82.2393 9.86994 82.0046 9.46461C81.7806 9.04861 81.4766 8.72861 81.0926 8.50461C80.7193 8.28061 80.3193 8.16861 79.8926 8.16861C79.466 8.16861 79.066 8.28061 78.6926 8.50461C78.3193 8.72861 78.0153 9.04861 77.7806 9.46461C77.546 9.86994 77.4286 10.3553 77.4286 10.9206C77.4286 11.4753 77.546 11.9606 77.7806 12.3766C78.0153 12.7926 78.3193 13.1126 78.6926 13.3366C79.066 13.5606 79.466 13.6726 79.8926 13.6726Z" fill="white"/>
<g id="GPay (Dark)">
<g id="GPay">
<g id="Pay">
<path id="Fill 1" fill-rule="evenodd" clip-rule="evenodd" d="M113.356 3.42339V8.16175H116.278C116.974 8.16175 117.55 7.92781 118.005 7.45993C118.473 6.99313 118.707 6.43644 118.707 5.79203C118.707 5.16061 118.473 4.61041 118.005 4.14254C117.55 3.66274 116.974 3.4223 116.278 3.4223H113.356V3.42339ZM113.356 9.82966V15.3262H111.611V1.75549H116.24C117.417 1.75549 118.415 2.14756 119.238 2.93061C120.073 3.71365 120.491 4.66782 120.491 5.79203C120.491 6.94224 120.073 7.90291 119.238 8.67296C118.428 9.44409 117.429 9.82858 116.24 9.82858H113.356V9.82966Z" fill="white"/>
<path id="Fill 3" fill-rule="evenodd" clip-rule="evenodd" d="M122.255 12.4831C122.255 12.9379 122.448 13.317 122.834 13.6203C123.22 13.9235 123.672 14.0752 124.19 14.0752C124.924 14.0752 125.578 13.8032 126.153 13.2607C126.729 12.717 127.017 12.0791 127.017 11.3469C126.472 10.917 125.713 10.7025 124.74 10.7025C124.031 10.7025 123.44 10.8736 122.966 11.2148C122.492 11.5559 122.255 11.9773 122.255 12.4831M124.513 5.73566C125.803 5.73566 126.821 6.08007 127.569 6.76889C128.314 7.45771 128.687 8.40213 128.687 9.60216V15.3261H127.018V14.0373H126.942C126.221 15.0985 125.259 15.6294 124.058 15.6294C123.033 15.6294 122.176 15.3261 121.487 14.7196C120.797 14.1131 120.453 13.3549 120.453 12.4452C120.453 11.4845 120.816 10.7208 121.543 10.1523C122.271 9.58375 123.241 9.2989 124.456 9.2989C125.492 9.2989 126.346 9.48844 127.017 9.86751V9.46894C127.017 8.86243 126.776 8.34798 126.296 7.92451C125.814 7.50103 125.252 7.28984 124.607 7.28984C123.633 7.28984 122.862 7.70032 122.293 8.52235L120.755 7.55519C121.603 6.34217 122.855 5.73566 124.513 5.73566" fill="white"/>
<path id="Fill 5" fill-rule="evenodd" clip-rule="evenodd" d="M138.269 6.03894L132.443 19.4201H130.641L132.804 14.738L128.971 6.03894H130.869L133.639 12.7106H133.677L136.371 6.03894H138.269Z" fill="white"/>
</g>
<g id="G">
<path id="Fill 8" fill-rule="evenodd" clip-rule="evenodd" d="M106.303 8.64473C106.303 8.09563 106.256 7.56601 106.168 7.05914H98.8065V10.0625H103.023C102.842 11.0414 102.294 11.8744 101.464 12.4322V14.3828H103.98C105.454 13.0246 106.303 11.0177 106.303 8.64473" fill="#4285F4"/>
<path id="Fill 10" fill-rule="evenodd" clip-rule="evenodd" d="M98.8065 16.2651C100.913 16.2651 102.687 15.5741 103.98 14.3828L101.464 12.4322C100.763 12.9033 99.8614 13.1784 98.8065 13.1784C96.7703 13.1784 95.042 11.8073 94.424 9.95959H91.8316V11.9687C93.1164 14.516 95.7565 16.2651 98.8065 16.2651" fill="#34A853"/>
<path id="Fill 12" fill-rule="evenodd" clip-rule="evenodd" d="M94.424 9.9596C94.2657 9.48847 94.179 8.98593 94.179 8.46715C94.179 7.94837 94.2657 7.44583 94.424 6.9747V4.96564H91.8316C91.3003 6.01837 91 7.20756 91 8.46715C91 9.72674 91.3003 10.916 91.8316 11.9687L94.424 9.9596Z" fill="#FABB05"/>
<path id="Fill 14" fill-rule="evenodd" clip-rule="evenodd" d="M98.8065 3.75583C99.9568 3.75583 100.988 4.15115 101.801 4.92553V4.92661L104.029 2.70094C102.676 1.44243 100.912 0.669128 98.8065 0.669128C95.7565 0.669128 93.1164 2.41826 91.8316 4.9656L94.424 6.97467C95.042 5.12698 96.7703 3.75583 98.8065 3.75583" fill="#E94235"/>
</g>
</g>
</g>
</g>
</svg>
