<svg width="242" height="38" viewBox="0 0 242 38" fill="none" xmlns="http://www.w3.org/2000/svg">
<g id="no_donate_with_Dark">
<path id="Text" d="M2.8641 30V9.952H9.2761C11.3854 9.952 13.1961 10.3813 14.7081 11.24C16.2388 12.08 17.4148 13.256 18.2361 14.768C19.0761 16.28 19.4961 18.016 19.4961 19.976C19.4961 21.9547 19.0761 23.7 18.2361 25.212C17.4148 26.7053 16.2388 27.8813 14.7081 28.74C13.1961 29.58 11.3854 30 9.2761 30H2.8641ZM5.9441 27.088H9.1921C11.4694 27.088 13.2334 26.4533 14.4841 25.184C15.7534 23.9147 16.3881 22.1787 16.3881 19.976C16.3881 17.7733 15.7534 16.0373 14.4841 14.768C13.2334 13.4987 11.4694 12.864 9.1921 12.864H5.9441V27.088ZM29.1223 30.448C27.6476 30.448 26.3503 30.112 25.2303 29.44C24.1103 28.768 23.233 27.8627 22.5983 26.724C21.9636 25.5853 21.6463 24.2973 21.6463 22.86C21.6463 21.4413 21.9636 20.1627 22.5983 19.024C23.233 17.8667 24.1103 16.952 25.2303 16.28C26.3503 15.608 27.6476 15.272 29.1223 15.272C30.5783 15.272 31.8663 15.608 32.9863 16.28C34.1063 16.952 34.9836 17.8667 35.6183 19.024C36.253 20.1627 36.5703 21.4413 36.5703 22.86C36.5703 24.2973 36.253 25.5853 35.6183 26.724C34.9836 27.8627 34.1063 28.768 32.9863 29.44C31.8663 30.112 30.5783 30.448 29.1223 30.448ZM29.1223 27.676C29.9063 27.676 30.6343 27.4893 31.3063 27.116C31.9783 26.724 32.5196 26.1733 32.9303 25.464C33.3596 24.736 33.5743 23.868 33.5743 22.86C33.5743 21.852 33.3596 20.9933 32.9303 20.284C32.5196 19.556 31.9783 19.0053 31.3063 18.632C30.6343 18.24 29.9063 18.044 29.1223 18.044C28.3383 18.044 27.601 18.24 26.9103 18.632C26.2383 19.0053 25.6876 19.556 25.2583 20.284C24.8476 20.9933 24.6423 21.852 24.6423 22.86C24.6423 23.868 24.8476 24.736 25.2583 25.464C25.6876 26.1733 26.2383 26.724 26.9103 27.116C27.601 27.4893 28.3383 27.676 29.1223 27.676ZM39.382 30V15.72H42.238V17.68H42.406C42.8166 16.9893 43.4233 16.42 44.226 15.972C45.0473 15.5053 45.9433 15.272 46.914 15.272C48.6686 15.272 49.9846 15.7947 50.862 16.84C51.7393 17.8853 52.178 19.2667 52.178 20.984V30H49.182V21.376C49.182 20.2187 48.8926 19.3787 48.314 18.856C47.7353 18.3147 46.9793 18.044 46.046 18.044C45.318 18.044 44.6833 18.2493 44.142 18.66C43.6006 19.052 43.1713 19.5747 42.854 20.228C42.5553 20.8813 42.406 21.5813 42.406 22.328V30H39.382ZM62.4482 30.448C61.0482 30.448 59.7975 30.1213 58.6962 29.468C57.5948 28.8147 56.7268 27.9187 56.0922 26.78C55.4762 25.6413 55.1682 24.344 55.1682 22.888C55.1682 21.5253 55.4668 20.2653 56.0642 19.108C56.6615 17.9507 57.4922 17.0267 58.5562 16.336C59.6388 15.6267 60.8802 15.272 62.2802 15.272C63.7548 15.272 65.0055 15.5893 66.0322 16.224C67.0775 16.8587 67.8708 17.7267 68.4122 18.828C68.9535 19.9293 69.2242 21.1707 69.2242 22.552C69.2242 22.7573 69.2148 22.944 69.1962 23.112C69.1962 23.28 69.1868 23.4107 69.1682 23.504H58.1362C58.2855 24.9227 58.7802 25.9867 59.6202 26.696C60.4788 27.4053 61.4495 27.76 62.5322 27.76C63.5028 27.76 64.3055 27.5453 64.9402 27.116C65.5748 26.668 66.0788 26.1173 66.4522 25.464L68.9442 26.668C68.3282 27.788 67.4882 28.7027 66.4242 29.412C65.3602 30.1027 64.0348 30.448 62.4482 30.448ZM62.3082 17.848C61.3002 17.848 60.4415 18.156 59.7322 18.772C59.0228 19.388 58.5468 20.2093 58.3042 21.236H66.2282C66.1908 20.7507 66.0322 20.2467 65.7522 19.724C65.4722 19.2013 65.0428 18.7627 64.4642 18.408C63.9042 18.0347 63.1855 17.848 62.3082 17.848ZM61.0482 12.976L62.3642 9.392H65.7802L63.5402 12.976H61.0482ZM72.3296 30V15.72H75.1856V17.82H75.3536C75.671 17.092 76.2123 16.4947 76.9776 16.028C77.7616 15.5427 78.6016 15.3 79.4976 15.3C79.8896 15.3 80.2163 15.328 80.4776 15.384C80.7576 15.44 81.0096 15.5053 81.2336 15.58V18.716C80.879 18.5667 80.515 18.4453 80.1416 18.352C79.787 18.2587 79.4136 18.212 79.0216 18.212C78.3123 18.212 77.6776 18.408 77.1176 18.8C76.5763 19.1733 76.147 19.6867 75.8296 20.34C75.5123 20.9747 75.3536 21.6747 75.3536 22.44V30H72.3296ZM90.7031 30V15.72H93.5591V17.68H93.7271C94.1377 16.9893 94.7351 16.42 95.5191 15.972C96.3031 15.5053 97.1711 15.272 98.1231 15.272C99.1871 15.272 100.092 15.524 100.839 16.028C101.586 16.532 102.118 17.1667 102.435 17.932C102.902 17.1853 103.536 16.56 104.339 16.056C105.142 15.5333 106.122 15.272 107.279 15.272C108.959 15.272 110.21 15.7853 111.031 16.812C111.852 17.82 112.263 19.164 112.263 20.844V30H109.267V21.348C109.267 20.2093 109.015 19.3787 108.511 18.856C108.026 18.3147 107.344 18.044 106.467 18.044C105.776 18.044 105.17 18.24 104.647 18.632C104.124 19.0053 103.714 19.5187 103.415 20.172C103.135 20.8253 102.995 21.5533 102.995 22.356V30H99.9991V21.348C99.9991 20.2093 99.7471 19.3787 99.2431 18.856C98.7391 18.3147 98.0297 18.044 97.1151 18.044C96.4431 18.044 95.8551 18.24 95.3511 18.632C94.8471 19.024 94.4457 19.5467 94.1471 20.2C93.8671 20.8533 93.7271 21.5813 93.7271 22.384V30H90.7031ZM122.492 30.448C121.092 30.448 119.841 30.1213 118.74 29.468C117.639 28.8147 116.771 27.9187 116.136 26.78C115.52 25.6413 115.212 24.344 115.212 22.888C115.212 21.5253 115.511 20.2653 116.108 19.108C116.705 17.9507 117.536 17.0267 118.6 16.336C119.683 15.6267 120.924 15.272 122.324 15.272C123.799 15.272 125.049 15.5893 126.076 16.224C127.121 16.8587 127.915 17.7267 128.456 18.828C128.997 19.9293 129.268 21.1707 129.268 22.552C129.268 22.7573 129.259 22.944 129.24 23.112C129.24 23.28 129.231 23.4107 129.212 23.504H118.18C118.329 24.9227 118.824 25.9867 119.664 26.696C120.523 27.4053 121.493 27.76 122.576 27.76C123.547 27.76 124.349 27.5453 124.984 27.116C125.619 26.668 126.123 26.1173 126.496 25.464L128.988 26.668C128.372 27.788 127.532 28.7027 126.468 29.412C125.404 30.1027 124.079 30.448 122.492 30.448ZM122.352 17.848C121.344 17.848 120.485 18.156 119.776 18.772C119.067 19.388 118.591 20.2093 118.348 21.236H126.272C126.235 20.7507 126.076 20.2467 125.796 19.724C125.516 19.2013 125.087 18.7627 124.508 18.408C123.948 18.0347 123.229 17.848 122.352 17.848ZM138.614 30.448C137.326 30.448 136.159 30.1307 135.114 29.496C134.087 28.8427 133.266 27.9467 132.65 26.808C132.053 25.6507 131.754 24.3347 131.754 22.86C131.754 21.3853 132.053 20.0787 132.65 18.94C133.266 17.8013 134.087 16.9053 135.114 16.252C136.159 15.5987 137.326 15.272 138.614 15.272C139.715 15.272 140.658 15.5147 141.442 16C142.245 16.4853 142.833 17.036 143.206 17.652H143.374L143.206 15.664V9.952H146.202V30H143.374V28.096H143.206C142.833 28.712 142.245 29.2627 141.442 29.748C140.658 30.2147 139.715 30.448 138.614 30.448ZM139.062 27.676C139.809 27.676 140.509 27.48 141.162 27.088C141.834 26.696 142.366 26.1453 142.758 25.436C143.169 24.708 143.374 23.8493 143.374 22.86C143.374 21.8707 143.169 21.0213 142.758 20.312C142.366 19.584 141.834 19.024 141.162 18.632C140.509 18.24 139.809 18.044 139.062 18.044C138.315 18.044 137.615 18.24 136.962 18.632C136.309 19.024 135.777 19.584 135.366 20.312C134.955 21.0213 134.75 21.8707 134.75 22.86C134.75 23.8493 134.955 24.708 135.366 25.436C135.777 26.1453 136.309 26.696 136.962 27.088C137.615 27.48 138.315 27.676 139.062 27.676Z" fill="white"/>
<g id="GPay Logo (Dark)">
<g id="GPay">
<g id="Pay">
<path id="Fill 1" fill-rule="evenodd" clip-rule="evenodd" d="M198.529 9.34665V17.5128H203.565C204.765 17.5128 205.757 17.1096 206.541 16.3032C207.347 15.4988 207.75 14.5394 207.75 13.4288C207.75 12.3406 207.347 11.3924 206.541 10.586C205.757 9.75916 204.765 9.34479 203.565 9.34479H198.529V9.34665ZM198.529 20.3872V29.8599H195.521V6.47218H203.499C205.527 6.47218 207.248 7.14787 208.666 8.49738C210.105 9.84688 210.824 11.4913 210.824 13.4288C210.824 15.411 210.105 17.0667 208.666 18.3938C207.27 19.7227 205.547 20.3854 203.499 20.3854H198.529V20.3872Z" fill="white"/>
<path id="Fill 3" fill-rule="evenodd" clip-rule="evenodd" d="M213.864 24.9602C213.864 25.7442 214.197 26.3975 214.862 26.9201C215.527 27.4427 216.306 27.704 217.2 27.704C218.465 27.704 219.591 27.2354 220.584 26.3004C221.576 25.3634 222.071 24.264 222.071 23.0022C221.133 22.2612 219.825 21.8916 218.147 21.8916C216.925 21.8916 215.907 22.1866 215.09 22.7745C214.273 23.3623 213.864 24.0886 213.864 24.9602ZM217.756 13.3317C219.98 13.3317 221.735 13.9253 223.022 15.1124C224.308 16.2995 224.95 17.9271 224.95 19.9952V29.8599H222.073V27.6387H221.942C220.699 29.4677 219.042 30.3825 216.972 30.3825C215.206 30.3825 213.728 29.8599 212.541 28.8146C211.353 27.7694 210.759 26.4628 210.759 24.8949C210.759 23.2393 211.385 21.9232 212.638 20.9434C213.892 19.9635 215.565 19.4726 217.658 19.4726C219.444 19.4726 220.916 19.7993 222.071 20.4525V19.7657C222.071 18.7204 221.656 17.8338 220.829 17.104C219.999 16.3742 219.031 16.0102 217.919 16.0102C216.239 16.0102 214.911 16.7176 213.93 18.1343L211.28 16.4675C212.741 14.377 214.899 13.3317 217.756 13.3317Z" fill="white"/>
<path id="Fill 5" fill-rule="evenodd" clip-rule="evenodd" d="M241.463 13.8543L231.424 36.9154H228.318L232.046 28.8464L225.44 13.8543H228.71L233.484 25.3522H233.55L238.193 13.8543H241.463Z" fill="white"/>
</g>
<g id="G">
<path id="Fill 8" fill-rule="evenodd" clip-rule="evenodd" d="M186.373 18.3452C186.373 17.3989 186.293 16.4861 186.141 15.6126H173.454V20.7885H180.72C180.408 22.4757 179.465 23.9112 178.033 24.8725V28.2341H182.37C184.91 25.8935 186.373 22.4348 186.373 18.3452Z" fill="#4285F4"/>
<path id="Fill 10" fill-rule="evenodd" clip-rule="evenodd" d="M173.454 31.4782C177.084 31.4782 180.141 30.2873 182.37 28.2341L178.033 24.8725C176.826 25.6844 175.272 26.1585 173.454 26.1585C169.944 26.1585 166.966 23.7955 165.901 20.6112H161.433V24.0736C163.647 28.4637 168.197 31.4782 173.454 31.4782Z" fill="#34A853"/>
<path id="Fill 12" fill-rule="evenodd" clip-rule="evenodd" d="M165.901 20.6111C165.628 19.7992 165.479 18.9331 165.479 18.0391C165.479 17.145 165.628 16.2789 165.901 15.467V12.0045H161.433C160.518 13.8188 160 15.8683 160 18.0391C160 20.2098 160.518 22.2595 161.433 24.0736L165.901 20.6111Z" fill="#FABB05"/>
<path id="Fill 14" fill-rule="evenodd" clip-rule="evenodd" d="M173.454 9.91964C175.436 9.91964 177.213 10.6009 178.615 11.9355V11.9374L182.455 8.10163C180.123 5.93272 177.082 4.60001 173.454 4.60001C168.197 4.60001 163.647 7.61447 161.433 12.0046L165.901 15.467C166.966 12.2827 169.944 9.91964 173.454 9.91964Z" fill="#E94235"/>
</g>
</g>
</g>
</g>
</svg>
