<svg width="138" height="21" viewBox="0 0 138 21" fill="none" xmlns="http://www.w3.org/2000/svg">
<g id="no_order_with_Pay_NBG">
<path id="Left Text" d="M1.71788 15.0006V3.54461H6.00588C6.63521 3.54461 7.20588 3.67794 7.71788 3.94461C8.22988 4.21128 8.63521 4.57394 8.93388 5.03261C9.24321 5.49128 9.39788 6.00861 9.39788 6.58461C9.39788 7.17128 9.25388 7.67261 8.96588 8.08861C8.67788 8.50461 8.30454 8.81928 7.84588 9.03261V9.11261C8.42188 9.30461 8.89121 9.63528 9.25388 10.1046C9.61654 10.5739 9.79788 11.1339 9.79788 11.7846C9.79788 12.4246 9.63254 12.9846 9.30188 13.4646C8.98188 13.9446 8.54454 14.3233 7.98988 14.6006C7.44588 14.8673 6.84854 15.0006 6.19788 15.0006H1.71788ZM3.47788 9.92861V13.3686H6.19788C6.58188 13.3686 6.91254 13.2886 7.18988 13.1286C7.46721 12.9686 7.67521 12.7553 7.81388 12.4886C7.96321 12.2219 8.03788 11.9446 8.03788 11.6566C8.03788 11.3473 7.96321 11.0646 7.81388 10.8086C7.66454 10.5419 7.44588 10.3286 7.15788 10.1686C6.88054 10.0086 6.53921 9.92861 6.13388 9.92861H3.47788ZM3.47788 8.36061H5.92588C6.29921 8.36061 6.61388 8.28594 6.86988 8.13661C7.13654 7.97661 7.33921 7.77394 7.47788 7.52861C7.61654 7.27261 7.68588 7.01128 7.68588 6.74461C7.68588 6.47794 7.61654 6.22728 7.47788 5.99261C7.34988 5.74728 7.15788 5.54994 6.90188 5.40061C6.64588 5.24061 6.34188 5.16061 5.98988 5.16061H3.47788V8.36061ZM15.3235 15.2566C14.5235 15.2566 13.8088 15.0699 13.1795 14.6966C12.5502 14.3233 12.0542 13.8113 11.6915 13.1606C11.3395 12.5099 11.1635 11.7686 11.1635 10.9366C11.1635 10.1579 11.3342 9.43794 11.6755 8.77661C12.0168 8.11528 12.4915 7.58728 13.0995 7.19261C13.7182 6.78728 14.4275 6.58461 15.2275 6.58461C16.0702 6.58461 16.7848 6.76594 17.3715 7.12861C17.9688 7.49128 18.4222 7.98728 18.7315 8.61661C19.0408 9.24594 19.1955 9.95528 19.1955 10.7446C19.1955 10.8619 19.1902 10.9686 19.1795 11.0646C19.1795 11.1606 19.1742 11.2353 19.1635 11.2886H12.8595C12.9022 11.7366 13.0142 12.1259 13.1955 12.4566C13.4302 12.8726 13.7395 13.1873 14.1235 13.4006C14.5075 13.6139 14.9235 13.7206 15.3715 13.7206C15.9155 13.7206 16.3688 13.5979 16.7315 13.3526C17.1048 13.0966 17.3982 12.7819 17.6115 12.4086L19.0355 13.0966C18.6835 13.7366 18.2035 14.2593 17.5955 14.6646C16.9875 15.0593 16.2302 15.2566 15.3235 15.2566ZM12.9555 9.99261H17.4835C17.4728 9.78994 17.4195 9.57661 17.3235 9.35261C17.2275 9.11794 17.0888 8.90461 16.9075 8.71261C16.7262 8.52061 16.4968 8.36594 16.2195 8.24861C15.9422 8.12061 15.6168 8.05661 15.2435 8.05661C14.7742 8.05661 14.3582 8.17928 13.9955 8.42461C13.6328 8.65928 13.3502 8.98994 13.1475 9.41661C13.0622 9.59794 12.9982 9.78994 12.9555 9.99261ZM24.0027 15.2566C23.3521 15.2566 22.7867 15.1606 22.3067 14.9686C21.8267 14.7659 21.4321 14.4993 21.1227 14.1686C20.8134 13.8273 20.5841 13.4593 20.4347 13.0646L21.9867 12.3926C22.1787 12.8299 22.4507 13.1659 22.8027 13.4006C23.1654 13.6246 23.5814 13.7366 24.0507 13.7366C24.4774 13.7366 24.8454 13.6619 25.1547 13.5126C25.4641 13.3526 25.6187 13.0966 25.6187 12.7446C25.6187 12.5206 25.5441 12.3393 25.3947 12.2006C25.2561 12.0513 25.0641 11.9286 24.8187 11.8326C24.5841 11.7366 24.3121 11.6513 24.0027 11.5766L23.0267 11.3526C22.6427 11.2566 22.2747 11.1073 21.9227 10.9046C21.5814 10.6913 21.3041 10.4246 21.0907 10.1046C20.8774 9.78461 20.7707 9.40594 20.7707 8.96861C20.7707 8.47794 20.9094 8.05661 21.1867 7.70461C21.4747 7.34194 21.8587 7.06461 22.3387 6.87261C22.8187 6.68061 23.3361 6.58461 23.8907 6.58461C24.4027 6.58461 24.8667 6.65394 25.2827 6.79261C25.7094 6.92061 26.0774 7.11794 26.3867 7.38461C26.7067 7.64061 26.9574 7.96061 27.1387 8.34461L25.6507 9.01661C25.4694 8.65394 25.2241 8.40328 24.9147 8.26461C24.6054 8.11528 24.2694 8.04061 23.9067 8.04061C23.5014 8.04061 23.1601 8.12594 22.8827 8.29661C22.6161 8.45661 22.4827 8.66994 22.4827 8.93661C22.4827 9.21394 22.6001 9.43261 22.8347 9.59261C23.0801 9.75261 23.3787 9.88061 23.7307 9.97661L24.9147 10.2646C25.7254 10.4673 26.3334 10.7766 26.7387 11.1926C27.1441 11.5979 27.3467 12.0939 27.3467 12.6806C27.3467 13.2033 27.1974 13.6619 26.8987 14.0566C26.6001 14.4406 26.1947 14.7393 25.6827 14.9526C25.1814 15.1553 24.6214 15.2566 24.0027 15.2566ZM28.3668 6.84061H29.7908V4.53661H31.5188V6.84061H33.5188V8.34461H31.5188V12.2646C31.5188 12.6699 31.5988 12.9793 31.7588 13.1926C31.9294 13.4059 32.2121 13.5126 32.6068 13.5126C32.7988 13.5126 32.9694 13.4859 33.1188 13.4326C33.2681 13.3686 33.4174 13.2939 33.5668 13.2086V14.8886C33.3854 14.9633 33.1934 15.0219 32.9908 15.0646C32.7881 15.1073 32.5481 15.1286 32.2708 15.1286C31.5134 15.1286 30.9108 14.9099 30.4628 14.4726C30.0148 14.0246 29.7908 13.4113 29.7908 12.6326V8.34461H28.3668V6.84061ZM35.5329 15.0006V6.84061H37.2609V15.0006H35.5329ZM36.3969 5.64061C36.0769 5.64061 35.7995 5.52861 35.5649 5.30461C35.3409 5.06994 35.2289 4.79261 35.2289 4.47261C35.2289 4.14194 35.3409 3.86994 35.5649 3.65661C35.7995 3.43261 36.0769 3.32061 36.3969 3.32061C36.7275 3.32061 37.0049 3.43261 37.2289 3.65661C37.4529 3.86994 37.5649 4.14194 37.5649 4.47261C37.5649 4.79261 37.4529 5.06994 37.2289 5.30461C37.0049 5.52861 36.7275 5.64061 36.3969 5.64061ZM39.5709 15.0006V3.54461H41.2989V15.0006H39.5709ZM43.5021 15.0006V3.54461H45.2301V15.0006H43.5021ZM51.3018 15.0006V6.84061H52.9338V7.96061H53.0298C53.1898 7.69394 53.3978 7.45928 53.6538 7.25661C53.9098 7.05394 54.1978 6.89394 54.5178 6.77661C54.8484 6.64861 55.1898 6.58461 55.5418 6.58461C56.1498 6.58461 56.6671 6.72861 57.0938 7.01661C57.5204 7.30461 57.8244 7.66728 58.0058 8.10461C58.2724 7.67794 58.6351 7.32061 59.0938 7.03261C59.5524 6.73394 60.1124 6.58461 60.7738 6.58461C61.7338 6.58461 62.4484 6.87794 62.9178 7.46461C63.3871 8.04061 63.6218 8.80861 63.6218 9.76861V15.0006H61.9098V10.0566C61.9098 9.39528 61.7658 8.91528 61.4778 8.61661C61.2004 8.31794 60.8111 8.16861 60.3098 8.16861C59.9151 8.16861 59.5684 8.28061 59.2698 8.50461C58.9711 8.71794 58.7364 9.01128 58.5658 9.38461C58.4058 9.75794 58.3258 10.1739 58.3258 10.6326V15.0006H56.6138V10.0566C56.6138 9.40594 56.4698 8.93128 56.1818 8.63261C55.8938 8.32328 55.4884 8.16861 54.9658 8.16861C54.5924 8.16861 54.2564 8.28061 53.9578 8.50461C53.6698 8.72861 53.4404 9.02728 53.2698 9.40061C53.1098 9.77394 53.0298 10.1899 53.0298 10.6486V15.0006H51.3018ZM69.4454 15.2566C68.6454 15.2566 67.9307 15.0699 67.3014 14.6966C66.672 14.3233 66.176 13.8113 65.8134 13.1606C65.4614 12.5099 65.2854 11.7686 65.2854 10.9366C65.2854 10.1579 65.456 9.43794 65.7974 8.77661C66.1387 8.11528 66.6134 7.58728 67.2214 7.19261C67.84 6.78728 68.5494 6.58461 69.3494 6.58461C70.192 6.58461 70.9067 6.76594 71.4934 7.12861C72.0907 7.49128 72.544 7.98728 72.8534 8.61661C73.1627 9.24594 73.3174 9.95528 73.3174 10.7446C73.3174 10.8619 73.312 10.9686 73.3014 11.0646C73.3014 11.1606 73.296 11.2353 73.2854 11.2886H66.9814C67.024 11.7366 67.136 12.1259 67.3174 12.4566C67.552 12.8726 67.8614 13.1873 68.2454 13.4006C68.6294 13.6139 69.0454 13.7206 69.4934 13.7206C70.0374 13.7206 70.4907 13.5979 70.8534 13.3526C71.2267 13.0966 71.52 12.7819 71.7334 12.4086L73.1574 13.0966C72.8054 13.7366 72.3254 14.2593 71.7174 14.6646C71.1094 15.0593 70.352 15.2566 69.4454 15.2566ZM67.0774 9.99261H71.6054C71.5947 9.78994 71.5414 9.57661 71.4454 9.35261C71.3494 9.11794 71.2107 8.90461 71.0294 8.71261C70.848 8.52061 70.6187 8.36594 70.3414 8.24861C70.064 8.12061 69.7387 8.05661 69.3654 8.05661C68.896 8.05661 68.48 8.17928 68.1174 8.42461C67.7547 8.65928 67.472 8.98994 67.2694 9.41661C67.184 9.59794 67.12 9.78994 67.0774 9.99261ZM78.6366 15.2566C77.9006 15.2566 77.234 15.0699 76.6366 14.6966C76.0393 14.3233 75.57 13.8113 75.2286 13.1606C74.8873 12.5099 74.7166 11.7633 74.7166 10.9206C74.7166 10.0779 74.8873 9.33128 75.2286 8.68061C75.57 8.02994 76.0393 7.51794 76.6366 7.14461C77.234 6.77128 77.9006 6.58461 78.6366 6.58461C79.0633 6.58461 79.4473 6.64861 79.7886 6.77661C80.13 6.90461 80.4233 7.07528 80.6686 7.28861C80.9246 7.49128 81.122 7.70994 81.2606 7.94461H81.3566L81.2606 6.80861V3.54461H82.9726V15.0006H81.3566V13.9126H81.2606C81.122 14.1366 80.9246 14.3553 80.6686 14.5686C80.4233 14.7713 80.13 14.9366 79.7886 15.0646C79.4473 15.1926 79.0633 15.2566 78.6366 15.2566ZM78.8926 13.6726C79.3193 13.6726 79.7193 13.5606 80.0926 13.3366C80.4766 13.1126 80.7806 12.7979 81.0046 12.3926C81.2393 11.9766 81.3566 11.4859 81.3566 10.9206C81.3566 10.3553 81.2393 9.86994 81.0046 9.46461C80.7806 9.04861 80.4766 8.72861 80.0926 8.50461C79.7193 8.28061 79.3193 8.16861 78.8926 8.16861C78.466 8.16861 78.066 8.28061 77.6926 8.50461C77.3193 8.72861 77.0153 9.04861 76.7806 9.46461C76.546 9.86994 76.4286 10.3553 76.4286 10.9206C76.4286 11.4753 76.546 11.9606 76.7806 12.3766C77.0153 12.7926 77.3193 13.1126 77.6926 13.3366C78.066 13.5606 78.466 13.6726 78.8926 13.6726Z" fill="white"/>
<g id="GPay (Dark)">
<g id="GPay">
<g id="Pay">
<path id="Fill 1" fill-rule="evenodd" clip-rule="evenodd" d="M112.356 3.42339V8.16175H115.278C115.974 8.16175 116.55 7.92781 117.005 7.45993C117.473 6.99313 117.707 6.43644 117.707 5.79203C117.707 5.16061 117.473 4.61041 117.005 4.14254C116.55 3.66274 115.974 3.4223 115.278 3.4223H112.356V3.42339ZM112.356 9.82966V15.3262H110.611V1.75549H115.24C116.417 1.75549 117.415 2.14756 118.238 2.93061C119.073 3.71365 119.491 4.66782 119.491 5.79203C119.491 6.94224 119.073 7.90291 118.238 8.67296C117.428 9.44409 116.429 9.82858 115.24 9.82858H112.356V9.82966Z" fill="white"/>
<path id="Fill 3" fill-rule="evenodd" clip-rule="evenodd" d="M121.255 12.4831C121.255 12.9379 121.448 13.317 121.834 13.6203C122.22 13.9235 122.672 14.0752 123.19 14.0752C123.924 14.0752 124.578 13.8032 125.153 13.2607C125.729 12.717 126.017 12.0791 126.017 11.3469C125.472 10.917 124.713 10.7025 123.74 10.7025C123.031 10.7025 122.44 10.8736 121.966 11.2148C121.492 11.5559 121.255 11.9773 121.255 12.4831M123.513 5.73566C124.803 5.73566 125.821 6.08007 126.569 6.76889C127.314 7.45771 127.687 8.40213 127.687 9.60216V15.3261H126.018V14.0373H125.942C125.221 15.0985 124.259 15.6294 123.058 15.6294C122.033 15.6294 121.176 15.3261 120.487 14.7196C119.797 14.1131 119.453 13.3549 119.453 12.4452C119.453 11.4845 119.816 10.7208 120.543 10.1523C121.271 9.58375 122.241 9.2989 123.456 9.2989C124.492 9.2989 125.346 9.48844 126.017 9.86751V9.46894C126.017 8.86243 125.776 8.34798 125.296 7.92451C124.814 7.50103 124.252 7.28984 123.607 7.28984C122.633 7.28984 121.862 7.70032 121.293 8.52235L119.755 7.55519C120.603 6.34217 121.855 5.73566 123.513 5.73566" fill="white"/>
<path id="Fill 5" fill-rule="evenodd" clip-rule="evenodd" d="M137.269 6.03894L131.443 19.4201H129.641L131.804 14.738L127.971 6.03894H129.869L132.639 12.7106H132.677L135.371 6.03894H137.269Z" fill="white"/>
</g>
<g id="G">
<path id="Fill 8" fill-rule="evenodd" clip-rule="evenodd" d="M105.303 8.64473C105.303 8.09563 105.256 7.56601 105.168 7.05914H97.8065V10.0625H102.023C101.842 11.0414 101.294 11.8744 100.464 12.4322V14.3828H102.98C104.454 13.0246 105.303 11.0177 105.303 8.64473" fill="#4285F4"/>
<path id="Fill 10" fill-rule="evenodd" clip-rule="evenodd" d="M97.8065 16.2651C99.9131 16.2651 101.687 15.5741 102.98 14.3828L100.464 12.4322C99.7635 12.9033 98.8614 13.1784 97.8065 13.1784C95.7703 13.1784 94.042 11.8073 93.424 9.95959H90.8316V11.9687C92.1164 14.516 94.7565 16.2651 97.8065 16.2651" fill="#34A853"/>
<path id="Fill 12" fill-rule="evenodd" clip-rule="evenodd" d="M93.424 9.9596C93.2657 9.48847 93.179 8.98593 93.179 8.46715C93.179 7.94837 93.2657 7.44583 93.424 6.9747V4.96564H90.8316C90.3003 6.01837 90 7.20756 90 8.46715C90 9.72674 90.3003 10.916 90.8316 11.9687L93.424 9.9596Z" fill="#FABB05"/>
<path id="Fill 14" fill-rule="evenodd" clip-rule="evenodd" d="M97.8065 3.75583C98.9568 3.75583 99.9879 4.15115 100.801 4.92553V4.92661L103.029 2.70094C101.676 1.44243 99.912 0.669128 97.8065 0.669128C94.7565 0.669128 92.1164 2.41826 90.8316 4.9656L93.424 6.97467C94.042 5.12698 95.7703 3.75583 97.8065 3.75583" fill="#E94235"/>
</g>
</g>
</g>
</g>
</svg>
