<svg width="242" height="38" viewBox="0 0 242 38" fill="none" xmlns="http://www.w3.org/2000/svg">
<g id="no_order_with_Light">
<path id="Text" d="M3.63128 30V9.952H11.1353C12.2179 9.952 13.2073 10.1853 14.1033 10.652C15.0179 11.1187 15.7366 11.7533 16.2593 12.556C16.8006 13.3587 17.0713 14.264 17.0713 15.272C17.0713 16.2987 16.8099 17.176 16.2873 17.904C15.7833 18.632 15.1393 19.1827 14.3553 19.556V19.696C15.3633 20.0507 16.1846 20.6387 16.8193 21.46C17.4539 22.2627 17.7713 23.2333 17.7713 24.372C17.7713 25.492 17.4819 26.4813 16.9033 27.34C16.3433 28.18 15.5779 28.8333 14.6073 29.3C13.6553 29.7667 12.6099 30 11.4713 30H3.63128ZM11.1073 12.78H6.71128V18.38H10.9953C11.9659 18.38 12.7219 18.0907 13.2633 17.512C13.8046 16.9147 14.0753 16.2613 14.0753 15.552C14.0753 14.8613 13.8139 14.2267 13.2913 13.648C12.7686 13.0693 12.0406 12.78 11.1073 12.78ZM6.71128 27.144H11.4713C12.4793 27.144 13.2633 26.8453 13.8233 26.248C14.4019 25.632 14.6913 24.932 14.6913 24.148C14.6913 23.364 14.4019 22.664 13.8233 22.048C13.2446 21.432 12.4233 21.124 11.3593 21.124H6.71128V27.144ZM27.4786 30.448C26.0786 30.448 24.828 30.1213 23.7266 29.468C22.6253 28.8147 21.7573 27.9187 21.1226 26.78C20.5066 25.6413 20.1986 24.344 20.1986 22.888C20.1986 21.5253 20.4973 20.2653 21.0946 19.108C21.692 17.9507 22.5226 17.0267 23.5866 16.336C24.6693 15.6267 25.9106 15.272 27.3106 15.272C28.7853 15.272 30.036 15.5893 31.0626 16.224C32.108 16.8587 32.9013 17.7267 33.4426 18.828C33.984 19.9293 34.2546 21.1707 34.2546 22.552C34.2546 22.7573 34.2453 22.944 34.2266 23.112C34.2266 23.28 34.2173 23.4107 34.1986 23.504H23.1666C23.316 24.9227 23.8106 25.9867 24.6506 26.696C25.5093 27.4053 26.48 27.76 27.5626 27.76C28.5333 27.76 29.336 27.5453 29.9706 27.116C30.6053 26.668 31.1093 26.1173 31.4826 25.464L33.9746 26.668C33.3586 27.788 32.5186 28.7027 31.4546 29.412C30.3906 30.1027 29.0653 30.448 27.4786 30.448ZM27.3386 17.848C26.3306 17.848 25.472 18.156 24.7626 18.772C24.0533 19.388 23.5773 20.2093 23.3346 21.236H31.2586C31.2213 20.7507 31.0626 20.2467 30.7826 19.724C30.5026 19.2013 30.0733 18.7627 29.4946 18.408C28.9346 18.0347 28.216 17.848 27.3386 17.848ZM42.7048 30.448C40.9875 30.448 39.6155 30.0747 38.5888 29.328C37.5621 28.5627 36.8528 27.6573 36.4608 26.612L39.1768 25.436C39.5128 26.2013 39.9981 26.7893 40.6328 27.2C41.2675 27.592 41.9861 27.788 42.7888 27.788C43.5355 27.788 44.1795 27.6573 44.7208 27.396C45.2621 27.116 45.5328 26.668 45.5328 26.052C45.5328 25.4547 45.2621 25.016 44.7208 24.736C44.1795 24.456 43.5075 24.2133 42.7048 24.008L40.9968 23.616C40.3061 23.448 39.6621 23.1867 39.0648 22.832C38.4675 22.4773 37.9821 22.02 37.6088 21.46C37.2355 20.8813 37.0488 20.2093 37.0488 19.444C37.0488 18.604 37.3008 17.876 37.8048 17.26C38.3088 16.6253 38.9715 16.14 39.7928 15.804C40.6328 15.4493 41.5381 15.272 42.5088 15.272C43.8341 15.272 44.9915 15.5333 45.9808 16.056C46.9888 16.56 47.7261 17.3253 48.1928 18.352L45.5888 19.528C45.2528 18.8933 44.8141 18.4547 44.2728 18.212C43.7501 17.9507 43.1715 17.82 42.5368 17.82C41.8275 17.82 41.2301 17.9693 40.7448 18.268C40.2781 18.5667 40.0448 18.94 40.0448 19.388C40.0448 19.8733 40.2501 20.256 40.6608 20.536C41.0901 20.816 41.6128 21.04 42.2288 21.208L44.3008 21.712C45.7195 22.0667 46.7835 22.608 47.4928 23.336C48.2021 24.0453 48.5568 24.9133 48.5568 25.94C48.5568 26.8547 48.2955 27.6573 47.7728 28.348C47.2501 29.02 46.5408 29.5427 45.6448 29.916C44.7675 30.2707 43.7875 30.448 42.7048 30.448ZM52.8713 25.856V18.352H50.3793V15.72H52.8713V11.688H55.8953V15.72H59.3953V18.352H55.8953V25.212C55.8953 25.9213 56.0353 26.4627 56.3153 26.836C56.614 27.2093 57.1086 27.396 57.7993 27.396C58.154 27.396 58.4526 27.3493 58.6953 27.256C58.9566 27.1627 59.218 27.032 59.4793 26.864V29.804C59.162 29.9347 58.826 30.0373 58.4713 30.112C58.1166 30.1867 57.6966 30.224 57.2113 30.224C55.886 30.224 54.8313 29.8413 54.0473 29.076C53.2633 28.292 52.8713 27.2187 52.8713 25.856ZM64.4695 13.62C63.9095 13.62 63.4242 13.424 63.0135 13.032C62.6215 12.6213 62.4255 12.136 62.4255 11.576C62.4255 11.016 62.6215 10.54 63.0135 10.148C63.4242 9.756 63.9095 9.56 64.4695 9.56C65.0295 9.56 65.5055 9.756 65.8975 10.148C66.3082 10.54 66.5135 11.016 66.5135 11.576C66.5135 12.136 66.3082 12.6213 65.8975 13.032C65.5055 13.424 65.0295 13.62 64.4695 13.62ZM62.9575 30V15.72H65.9815V30H62.9575ZM70.0615 30V9.952H73.0855V30H70.0615ZM76.9787 30V9.952H80.0027V30H76.9787ZM90.7031 30V15.72H93.5591V17.68H93.7271C94.1377 16.9893 94.7351 16.42 95.5191 15.972C96.3031 15.5053 97.1711 15.272 98.1231 15.272C99.1871 15.272 100.092 15.524 100.839 16.028C101.586 16.532 102.118 17.1667 102.435 17.932C102.902 17.1853 103.536 16.56 104.339 16.056C105.142 15.5333 106.122 15.272 107.279 15.272C108.959 15.272 110.21 15.7853 111.031 16.812C111.852 17.82 112.263 19.164 112.263 20.844V30H109.267V21.348C109.267 20.2093 109.015 19.3787 108.511 18.856C108.026 18.3147 107.344 18.044 106.467 18.044C105.776 18.044 105.17 18.24 104.647 18.632C104.124 19.0053 103.714 19.5187 103.415 20.172C103.135 20.8253 102.995 21.5533 102.995 22.356V30H99.9991V21.348C99.9991 20.2093 99.7471 19.3787 99.2431 18.856C98.7391 18.3147 98.0297 18.044 97.1151 18.044C96.4431 18.044 95.8551 18.24 95.3511 18.632C94.8471 19.024 94.4457 19.5467 94.1471 20.2C93.8671 20.8533 93.7271 21.5813 93.7271 22.384V30H90.7031ZM122.492 30.448C121.092 30.448 119.841 30.1213 118.74 29.468C117.639 28.8147 116.771 27.9187 116.136 26.78C115.52 25.6413 115.212 24.344 115.212 22.888C115.212 21.5253 115.511 20.2653 116.108 19.108C116.705 17.9507 117.536 17.0267 118.6 16.336C119.683 15.6267 120.924 15.272 122.324 15.272C123.799 15.272 125.049 15.5893 126.076 16.224C127.121 16.8587 127.915 17.7267 128.456 18.828C128.997 19.9293 129.268 21.1707 129.268 22.552C129.268 22.7573 129.259 22.944 129.24 23.112C129.24 23.28 129.231 23.4107 129.212 23.504H118.18C118.329 24.9227 118.824 25.9867 119.664 26.696C120.523 27.4053 121.493 27.76 122.576 27.76C123.547 27.76 124.349 27.5453 124.984 27.116C125.619 26.668 126.123 26.1173 126.496 25.464L128.988 26.668C128.372 27.788 127.532 28.7027 126.468 29.412C125.404 30.1027 124.079 30.448 122.492 30.448ZM122.352 17.848C121.344 17.848 120.485 18.156 119.776 18.772C119.067 19.388 118.591 20.2093 118.348 21.236H126.272C126.235 20.7507 126.076 20.2467 125.796 19.724C125.516 19.2013 125.087 18.7627 124.508 18.408C123.948 18.0347 123.229 17.848 122.352 17.848ZM138.614 30.448C137.326 30.448 136.159 30.1307 135.114 29.496C134.087 28.8427 133.266 27.9467 132.65 26.808C132.053 25.6507 131.754 24.3347 131.754 22.86C131.754 21.3853 132.053 20.0787 132.65 18.94C133.266 17.8013 134.087 16.9053 135.114 16.252C136.159 15.5987 137.326 15.272 138.614 15.272C139.715 15.272 140.658 15.5147 141.442 16C142.245 16.4853 142.833 17.036 143.206 17.652H143.374L143.206 15.664V9.952H146.202V30H143.374V28.096H143.206C142.833 28.712 142.245 29.2627 141.442 29.748C140.658 30.2147 139.715 30.448 138.614 30.448ZM139.062 27.676C139.809 27.676 140.509 27.48 141.162 27.088C141.834 26.696 142.366 26.1453 142.758 25.436C143.169 24.708 143.374 23.8493 143.374 22.86C143.374 21.8707 143.169 21.0213 142.758 20.312C142.366 19.584 141.834 19.024 141.162 18.632C140.509 18.24 139.809 18.044 139.062 18.044C138.315 18.044 137.615 18.24 136.962 18.632C136.309 19.024 135.777 19.584 135.366 20.312C134.955 21.0213 134.75 21.8707 134.75 22.86C134.75 23.8493 134.955 24.708 135.366 25.436C135.777 26.1453 136.309 26.696 136.962 27.088C137.615 27.48 138.315 27.676 139.062 27.676Z" fill="#3C4043"/>
<g id="GPay Logo (Light)">
<g id="GPay">
<g id="Pay">
<path id="Fill 1" fill-rule="evenodd" clip-rule="evenodd" d="M198.529 9.44664V17.6128H203.565C204.765 17.6128 205.757 17.2096 206.541 16.4032C207.347 15.5988 207.75 14.6394 207.75 13.5288C207.75 12.4406 207.347 11.4924 206.541 10.686C205.757 9.85915 204.765 9.44478 203.565 9.44478H198.529V9.44664ZM198.529 20.4872V29.9599H195.521V6.57217H203.499C205.527 6.57217 207.248 7.24786 208.666 8.59737C210.105 9.94688 210.824 11.5913 210.824 13.5288C210.824 15.511 210.105 17.1667 208.666 18.4938C207.27 19.8227 205.547 20.4854 203.499 20.4854H198.529V20.4872Z" fill="#5F6368"/>
<path id="Fill 3" fill-rule="evenodd" clip-rule="evenodd" d="M213.864 25.0602C213.864 25.8442 214.197 26.4975 214.862 27.0201C215.527 27.5427 216.306 27.804 217.2 27.804C218.465 27.804 219.591 27.3354 220.584 26.4004C221.576 25.4634 222.071 24.364 222.071 23.1022C221.133 22.3612 219.825 21.9916 218.147 21.9916C216.925 21.9916 215.907 22.2865 215.09 22.8745C214.273 23.4623 213.864 24.1886 213.864 25.0602ZM217.756 13.4317C219.98 13.4317 221.735 14.0252 223.022 15.2124C224.308 16.3995 224.95 18.0271 224.95 20.0952V29.9599H222.073V27.7387H221.942C220.699 29.5677 219.042 30.4825 216.972 30.4825C215.206 30.4825 213.728 29.9599 212.541 28.9146C211.353 27.8694 210.759 26.5628 210.759 24.9949C210.759 23.3393 211.385 22.0232 212.638 21.0434C213.892 20.0635 215.565 19.5726 217.658 19.5726C219.444 19.5726 220.916 19.8992 222.071 20.5525V19.8656C222.071 18.8204 221.656 17.9338 220.829 17.204C219.999 16.4741 219.031 16.1102 217.919 16.1102C216.239 16.1102 214.911 16.8176 213.93 18.2343L211.28 16.5675C212.741 14.4769 214.899 13.4317 217.756 13.4317Z" fill="#5F6368"/>
<path id="Fill 5" fill-rule="evenodd" clip-rule="evenodd" d="M241.463 13.9543L231.424 37.0154H228.318L232.046 28.9464L225.44 13.9543H228.71L233.484 25.4522H233.55L238.193 13.9543H241.463Z" fill="#5F6368"/>
</g>
<g id="G">
<path id="Fill 8" fill-rule="evenodd" clip-rule="evenodd" d="M186.373 18.4452C186.373 17.4989 186.293 16.5861 186.141 15.7126H173.454V20.8885H180.72C180.408 22.5757 179.465 24.0112 178.033 24.9725V28.3341H182.37C184.91 25.9935 186.373 22.5348 186.373 18.4452Z" fill="#4285F4"/>
<path id="Fill 10" fill-rule="evenodd" clip-rule="evenodd" d="M173.454 31.5782C177.084 31.5782 180.141 30.3873 182.37 28.3341L178.033 24.9725C176.826 25.7844 175.272 26.2585 173.454 26.2585C169.944 26.2585 166.966 23.8955 165.901 20.7112H161.433V24.1736C163.647 28.5637 168.197 31.5782 173.454 31.5782Z" fill="#34A853"/>
<path id="Fill 12" fill-rule="evenodd" clip-rule="evenodd" d="M165.901 20.7111C165.628 19.8992 165.479 19.0331 165.479 18.139C165.479 17.245 165.628 16.3789 165.901 15.567V12.1045H161.433C160.518 13.9188 160 15.9683 160 18.139C160 20.3098 160.518 22.3595 161.433 24.1736L165.901 20.7111Z" fill="#FABB05"/>
<path id="Fill 14" fill-rule="evenodd" clip-rule="evenodd" d="M173.454 10.0196C175.436 10.0196 177.213 10.7009 178.615 12.0355V12.0374L182.455 8.20162C180.123 6.03271 177.082 4.7 173.454 4.7C168.197 4.7 163.647 7.71446 161.433 12.1046L165.901 15.567C166.966 12.3827 169.944 10.0196 173.454 10.0196Z" fill="#E94235"/>
</g>
</g>
</g>
</g>
</svg>
