<svg width="158" height="21" viewBox="0 0 158 21" fill="none" xmlns="http://www.w3.org/2000/svg">
<g id="no_subscribe_with_Pay_NBG">
<path id="Left Text" d="M0.880625 15.0006L5.20063 3.54461H7.20063L11.5366 15.0006H9.60063L8.54463 12.0566H3.87263L2.81663 15.0006H0.880625ZM7.95263 10.4246L6.68863 6.92061L6.25663 5.60861H6.16063L5.72863 6.92061L4.46463 10.4246H7.95263ZM17.2912 15.2566C16.8752 15.2566 16.4966 15.1926 16.1552 15.0646C15.8139 14.9366 15.5152 14.7713 15.2592 14.5686C15.0139 14.3553 14.8166 14.1366 14.6672 13.9126H14.5712V15.0006H12.9392V3.54461H14.6672V6.80861L14.5712 7.94461H14.6672C14.8166 7.70994 15.0139 7.49128 15.2592 7.28861C15.5152 7.07528 15.8139 6.90461 16.1552 6.77661C16.4966 6.64861 16.8752 6.58461 17.2912 6.58461C18.0379 6.58461 18.7046 6.77128 19.2912 7.14461C19.8779 7.51794 20.3419 8.02994 20.6833 8.68061C21.0353 9.33128 21.2113 10.0779 21.2113 10.9206C21.2113 11.7633 21.0353 12.5099 20.6833 13.1606C20.3419 13.8113 19.8779 14.3233 19.2912 14.6966C18.7046 15.0699 18.0379 15.2566 17.2912 15.2566ZM17.0352 13.6726C17.4619 13.6726 17.8619 13.5606 18.2352 13.3366C18.6192 13.1126 18.9232 12.7926 19.1473 12.3766C19.3819 11.9606 19.4992 11.4753 19.4992 10.9206C19.4992 10.3553 19.3819 9.86994 19.1473 9.46461C18.9232 9.04861 18.6192 8.72861 18.2352 8.50461C17.8619 8.28061 17.4619 8.16861 17.0352 8.16861C16.6086 8.16861 16.2086 8.28061 15.8352 8.50461C15.4619 8.72861 15.1579 9.04861 14.9232 9.46461C14.6886 9.86994 14.5712 10.3553 14.5712 10.9206C14.5712 11.4859 14.6886 11.9766 14.9232 12.3926C15.1579 12.7979 15.4619 13.1126 15.8352 13.3366C16.2086 13.5606 16.6086 13.6726 17.0352 13.6726ZM26.7886 15.2566C25.946 15.2566 25.2046 15.0646 24.5646 14.6806C23.9246 14.2966 23.4233 13.7793 23.0606 13.1286C22.698 12.4673 22.5166 11.7313 22.5166 10.9206C22.5166 10.1099 22.698 9.37928 23.0606 8.72861C23.4233 8.06728 23.9246 7.54461 24.5646 7.16061C25.2046 6.77661 25.946 6.58461 26.7886 6.58461C27.6206 6.58461 28.3566 6.78194 28.9966 7.17661C29.6366 7.56061 30.138 8.07794 30.5006 8.72861C30.8633 9.37928 31.0446 10.1099 31.0446 10.9206C31.0446 11.7313 30.8633 12.4673 30.5006 13.1286C30.138 13.7793 29.6366 14.2966 28.9966 14.6806C28.3566 15.0646 27.6206 15.2566 26.7886 15.2566ZM26.7886 13.6726C27.2366 13.6726 27.6526 13.5659 28.0366 13.3526C28.4206 13.1286 28.73 12.8139 28.9646 12.4086C29.21 11.9926 29.3326 11.4966 29.3326 10.9206C29.3326 10.3446 29.21 9.85394 28.9646 9.44861C28.73 9.03261 28.4206 8.71794 28.0366 8.50461C27.6526 8.28061 27.2366 8.16861 26.7886 8.16861C26.3406 8.16861 25.9193 8.28061 25.5246 8.50461C25.1406 8.71794 24.826 9.03261 24.5806 9.44861C24.346 9.85394 24.2286 10.3446 24.2286 10.9206C24.2286 11.4966 24.346 11.9926 24.5806 12.4086C24.826 12.8139 25.146 13.1286 25.5406 13.3526C25.9353 13.5659 26.3513 13.6726 26.7886 13.6726ZM32.6299 15.0006V6.84061H34.2619V7.96061H34.3579C34.5925 7.56594 34.9392 7.24061 35.3979 6.98461C35.8672 6.71794 36.3792 6.58461 36.9339 6.58461C37.9365 6.58461 38.6885 6.88328 39.1899 7.48061C39.6912 8.06728 39.9419 8.85661 39.9419 9.84861V15.0006H38.2299V10.0726C38.2299 9.41128 38.0645 8.93128 37.7339 8.63261C37.4032 8.32328 36.9712 8.16861 36.4379 8.16861C36.0219 8.16861 35.6592 8.28594 35.3499 8.52061C35.0405 8.74461 34.7952 9.04328 34.6139 9.41661C34.4432 9.78994 34.3579 10.1899 34.3579 10.6166V15.0006H32.6299ZM42.0611 15.0006V6.84061H43.6931V7.96061H43.7891C44.0238 7.56594 44.3705 7.24061 44.8291 6.98461C45.2985 6.71794 45.8105 6.58461 46.3651 6.58461C47.3678 6.58461 48.1198 6.88328 48.6211 7.48061C49.1225 8.06728 49.3731 8.85661 49.3731 9.84861V15.0006H47.6611V10.0726C47.6611 9.41128 47.4958 8.93128 47.1651 8.63261C46.8345 8.32328 46.4025 8.16861 45.8691 8.16861C45.4531 8.16861 45.0905 8.28594 44.7811 8.52061C44.4718 8.74461 44.2265 9.04328 44.0451 9.41661C43.8745 9.78994 43.7891 10.1899 43.7891 10.6166V15.0006H42.0611ZM55.2204 15.2566C54.4204 15.2566 53.7057 15.0699 53.0764 14.6966C52.447 14.3233 51.951 13.8113 51.5884 13.1606C51.2364 12.5099 51.0604 11.7686 51.0604 10.9366C51.0604 10.1579 51.231 9.43794 51.5724 8.77661C51.9137 8.11528 52.3884 7.58728 52.9964 7.19261C53.615 6.78728 54.3244 6.58461 55.1244 6.58461C55.967 6.58461 56.6817 6.76594 57.2684 7.12861C57.8657 7.49128 58.319 7.98728 58.6284 8.61661C58.9377 9.24594 59.0924 9.95528 59.0924 10.7446C59.0924 10.8619 59.087 10.9686 59.0764 11.0646C59.0764 11.1606 59.071 11.2353 59.0604 11.2886H52.7564C52.799 11.7366 52.911 12.1259 53.0924 12.4566C53.327 12.8726 53.6364 13.1873 54.0204 13.4006C54.4044 13.6139 54.8204 13.7206 55.2684 13.7206C55.8124 13.7206 56.2657 13.5979 56.6284 13.3526C57.0017 13.0966 57.295 12.7819 57.5084 12.4086L58.9324 13.0966C58.5804 13.7366 58.1004 14.2593 57.4924 14.6646C56.8844 15.0593 56.127 15.2566 55.2204 15.2566ZM52.8524 9.99261H57.3804C57.3697 9.78994 57.3164 9.57661 57.2204 9.35261C57.1244 9.11794 56.9857 8.90461 56.8044 8.71261C56.623 8.52061 56.3937 8.36594 56.1164 8.24861C55.839 8.12061 55.5137 8.05661 55.1404 8.05661C54.671 8.05661 54.255 8.17928 53.8924 8.42461C53.5297 8.65928 53.247 8.98994 53.0444 9.41661C52.959 9.59794 52.895 9.78994 52.8524 9.99261ZM60.8455 15.0006V6.84061H62.4775V8.04061H62.5735C62.7015 7.76328 62.8828 7.51794 63.1175 7.30461C63.3628 7.09128 63.6402 6.92061 63.9495 6.79261C64.2695 6.66461 64.6002 6.60061 64.9415 6.60061C65.1655 6.60061 65.3522 6.61661 65.5015 6.64861C65.6615 6.66994 65.8055 6.70728 65.9335 6.76061V8.55261C65.7308 8.46728 65.5228 8.39794 65.3095 8.34461C65.1068 8.29128 64.8935 8.26461 64.6695 8.26461C64.2642 8.26461 63.9015 8.37661 63.5815 8.60061C63.2722 8.81394 63.0268 9.10194 62.8455 9.46461C62.6642 9.82728 62.5735 10.2326 62.5735 10.6806V15.0006H60.8455ZM71.3017 15.0006V6.84061H72.9337V7.96061H73.0297C73.1897 7.69394 73.3977 7.45928 73.6537 7.25661C73.9097 7.05394 74.1977 6.89394 74.5177 6.77661C74.8484 6.64861 75.1897 6.58461 75.5417 6.58461C76.1497 6.58461 76.6671 6.72861 77.0937 7.01661C77.5204 7.30461 77.8244 7.66728 78.0057 8.10461C78.2724 7.67794 78.6351 7.32061 79.0937 7.03261C79.5524 6.73394 80.1124 6.58461 80.7737 6.58461C81.7337 6.58461 82.4484 6.87794 82.9177 7.46461C83.3871 8.04061 83.6217 8.80861 83.6217 9.76861V15.0006H81.9097V10.0566C81.9097 9.39528 81.7657 8.91528 81.4777 8.61661C81.2004 8.31794 80.8111 8.16861 80.3097 8.16861C79.9151 8.16861 79.5684 8.28061 79.2697 8.50461C78.9711 8.71794 78.7364 9.01128 78.5657 9.38461C78.4057 9.75794 78.3257 10.1739 78.3257 10.6326V15.0006H76.6137V10.0566C76.6137 9.40594 76.4697 8.93128 76.1817 8.63261C75.8937 8.32328 75.4884 8.16861 74.9657 8.16861C74.5924 8.16861 74.2564 8.28061 73.9577 8.50461C73.6697 8.72861 73.4404 9.02728 73.2697 9.40061C73.1097 9.77394 73.0297 10.1899 73.0297 10.6486V15.0006H71.3017ZM89.4454 15.2566C88.6454 15.2566 87.9307 15.0699 87.3014 14.6966C86.672 14.3233 86.176 13.8113 85.8134 13.1606C85.4614 12.5099 85.2854 11.7686 85.2854 10.9366C85.2854 10.1579 85.456 9.43794 85.7974 8.77661C86.1387 8.11528 86.6134 7.58728 87.2214 7.19261C87.84 6.78728 88.5494 6.58461 89.3494 6.58461C90.192 6.58461 90.9067 6.76594 91.4934 7.12861C92.0907 7.49128 92.544 7.98728 92.8534 8.61661C93.1627 9.24594 93.3174 9.95528 93.3174 10.7446C93.3174 10.8619 93.312 10.9686 93.3014 11.0646C93.3014 11.1606 93.296 11.2353 93.2854 11.2886H86.9814C87.024 11.7366 87.136 12.1259 87.3174 12.4566C87.552 12.8726 87.8614 13.1873 88.2454 13.4006C88.6294 13.6139 89.0454 13.7206 89.4934 13.7206C90.0374 13.7206 90.4907 13.5979 90.8534 13.3526C91.2267 13.0966 91.52 12.7819 91.7334 12.4086L93.1574 13.0966C92.8054 13.7366 92.3254 14.2593 91.7174 14.6646C91.1094 15.0593 90.352 15.2566 89.4454 15.2566ZM87.0774 9.99261H91.6054C91.5947 9.78994 91.5414 9.57661 91.4454 9.35261C91.3494 9.11794 91.2107 8.90461 91.0294 8.71261C90.848 8.52061 90.6187 8.36594 90.3414 8.24861C90.064 8.12061 89.7387 8.05661 89.3654 8.05661C88.896 8.05661 88.48 8.17928 88.1174 8.42461C87.7547 8.65928 87.472 8.98994 87.2694 9.41661C87.184 9.59794 87.12 9.78994 87.0774 9.99261ZM98.6366 15.2566C97.9006 15.2566 97.234 15.0699 96.6366 14.6966C96.0393 14.3233 95.57 13.8113 95.2286 13.1606C94.8873 12.5099 94.7166 11.7633 94.7166 10.9206C94.7166 10.0779 94.8873 9.33128 95.2286 8.68061C95.57 8.02994 96.0393 7.51794 96.6366 7.14461C97.234 6.77128 97.9006 6.58461 98.6366 6.58461C99.0633 6.58461 99.4473 6.64861 99.7886 6.77661C100.13 6.90461 100.423 7.07528 100.669 7.28861C100.925 7.49128 101.122 7.70994 101.261 7.94461H101.357L101.261 6.80861V3.54461H102.973V15.0006H101.357V13.9126H101.261C101.122 14.1366 100.925 14.3553 100.669 14.5686C100.423 14.7713 100.13 14.9366 99.7886 15.0646C99.4473 15.1926 99.0633 15.2566 98.6366 15.2566ZM98.8926 13.6726C99.3193 13.6726 99.7193 13.5606 100.093 13.3366C100.477 13.1126 100.781 12.7979 101.005 12.3926C101.239 11.9766 101.357 11.4859 101.357 10.9206C101.357 10.3553 101.239 9.86994 101.005 9.46461C100.781 9.04861 100.477 8.72861 100.093 8.50461C99.7193 8.28061 99.3193 8.16861 98.8926 8.16861C98.466 8.16861 98.066 8.28061 97.6926 8.50461C97.3193 8.72861 97.0153 9.04861 96.7806 9.46461C96.546 9.86994 96.4286 10.3553 96.4286 10.9206C96.4286 11.4753 96.546 11.9606 96.7806 12.3766C97.0153 12.7926 97.3193 13.1126 97.6926 13.3366C98.066 13.5606 98.466 13.6726 98.8926 13.6726Z" fill="white"/>
<g id="GPay (Dark)">
<g id="GPay">
<g id="Pay">
<path id="Fill 1" fill-rule="evenodd" clip-rule="evenodd" d="M132.356 3.42339V8.16175H135.278C135.974 8.16175 136.55 7.92781 137.005 7.45993C137.473 6.99313 137.707 6.43644 137.707 5.79203C137.707 5.16061 137.473 4.61041 137.005 4.14254C136.55 3.66274 135.974 3.4223 135.278 3.4223H132.356V3.42339ZM132.356 9.82966V15.3262H130.611V1.75549H135.24C136.417 1.75549 137.415 2.14756 138.238 2.93061C139.073 3.71365 139.491 4.66782 139.491 5.79203C139.491 6.94224 139.073 7.90291 138.238 8.67296C137.428 9.44409 136.429 9.82858 135.24 9.82858H132.356V9.82966Z" fill="white"/>
<path id="Fill 3" fill-rule="evenodd" clip-rule="evenodd" d="M141.255 12.4831C141.255 12.9379 141.448 13.317 141.834 13.6203C142.22 13.9235 142.672 14.0752 143.19 14.0752C143.924 14.0752 144.578 13.8032 145.153 13.2607C145.729 12.717 146.017 12.0791 146.017 11.3469C145.472 10.917 144.713 10.7025 143.74 10.7025C143.031 10.7025 142.44 10.8736 141.966 11.2148C141.492 11.5559 141.255 11.9773 141.255 12.4831M143.513 5.73566C144.803 5.73566 145.821 6.08007 146.569 6.76889C147.314 7.45771 147.687 8.40213 147.687 9.60216V15.3261H146.018V14.0373H145.942C145.221 15.0985 144.259 15.6294 143.058 15.6294C142.033 15.6294 141.176 15.3261 140.487 14.7196C139.797 14.1131 139.453 13.3549 139.453 12.4452C139.453 11.4845 139.816 10.7208 140.543 10.1523C141.271 9.58375 142.241 9.2989 143.456 9.2989C144.492 9.2989 145.346 9.48844 146.017 9.86751V9.46894C146.017 8.86243 145.776 8.34798 145.296 7.92451C144.814 7.50103 144.252 7.28984 143.607 7.28984C142.633 7.28984 141.862 7.70032 141.293 8.52235L139.755 7.55519C140.603 6.34217 141.855 5.73566 143.513 5.73566" fill="white"/>
<path id="Fill 5" fill-rule="evenodd" clip-rule="evenodd" d="M157.269 6.03894L151.443 19.4201H149.641L151.804 14.738L147.971 6.03894H149.869L152.639 12.7106H152.677L155.371 6.03894H157.269Z" fill="white"/>
</g>
<g id="G">
<path id="Fill 8" fill-rule="evenodd" clip-rule="evenodd" d="M125.303 8.64473C125.303 8.09563 125.256 7.56601 125.168 7.05914H117.806V10.0625H122.023C121.842 11.0414 121.294 11.8744 120.464 12.4322V14.3828H122.98C124.454 13.0246 125.303 11.0177 125.303 8.64473" fill="#4285F4"/>
<path id="Fill 10" fill-rule="evenodd" clip-rule="evenodd" d="M117.806 16.2651C119.913 16.2651 121.687 15.5741 122.98 14.3828L120.464 12.4322C119.763 12.9033 118.861 13.1784 117.806 13.1784C115.77 13.1784 114.042 11.8073 113.424 9.95959H110.832V11.9687C112.116 14.516 114.757 16.2651 117.806 16.2651" fill="#34A853"/>
<path id="Fill 12" fill-rule="evenodd" clip-rule="evenodd" d="M113.424 9.9596C113.266 9.48847 113.179 8.98593 113.179 8.46715C113.179 7.94837 113.266 7.44583 113.424 6.9747V4.96564H110.832C110.3 6.01837 110 7.20756 110 8.46715C110 9.72674 110.3 10.916 110.832 11.9687L113.424 9.9596Z" fill="#FABB05"/>
<path id="Fill 14" fill-rule="evenodd" clip-rule="evenodd" d="M117.806 3.75583C118.957 3.75583 119.988 4.15115 120.801 4.92553V4.92661L123.029 2.70094C121.676 1.44243 119.912 0.669128 117.806 0.669128C114.757 0.669128 112.116 2.41826 110.832 4.9656L113.424 6.97467C114.042 5.12698 115.77 3.75583 117.806 3.75583" fill="#E94235"/>
</g>
</g>
</g>
</g>
</svg>
