<svg width="142" height="38" viewBox="0 0 142 38" fill="none" xmlns="http://www.w3.org/2000/svg">
<g id="no_view_in_Light">
<path id="Text" d="M9.4459 30.448C8.3819 30.448 7.36457 30.2427 6.3939 29.832C5.42324 29.4027 4.56457 28.7773 3.8179 27.956C3.0899 27.1347 2.54857 26.1173 2.1939 24.904L5.1059 23.728C5.40457 24.8107 5.92724 25.716 6.67391 26.444C7.42057 27.172 8.35391 27.536 9.47391 27.536C10.1086 27.536 10.6966 27.424 11.2379 27.2C11.7979 26.976 12.2459 26.6493 12.5819 26.22C12.9179 25.772 13.0859 25.2307 13.0859 24.596C13.0859 23.7187 12.7592 23.0187 12.1059 22.496C11.4526 21.9547 10.4072 21.4227 8.96991 20.9L7.70991 20.452C6.98191 20.1907 6.24457 19.836 5.4979 19.388C4.7699 18.9213 4.16324 18.3333 3.6779 17.624C3.19257 16.896 2.9499 16.0093 2.9499 14.964C2.9499 13.9747 3.21124 13.0693 3.7339 12.248C4.27524 11.408 5.01257 10.7453 5.9459 10.26C6.8979 9.756 7.99924 9.504 9.2499 9.504C10.5379 9.504 11.6112 9.73733 12.4699 10.204C13.3472 10.652 14.0286 11.2027 14.5139 11.856C15.0179 12.4907 15.3632 13.088 15.5499 13.648L12.7779 14.824C12.6659 14.4507 12.4606 14.0773 12.1619 13.704C11.8819 13.312 11.4992 12.9947 11.0139 12.752C10.5472 12.4907 9.96857 12.36 9.27791 12.36C8.38191 12.36 7.60724 12.6027 6.9539 13.088C6.31924 13.5547 6.0019 14.1707 6.0019 14.936C6.0019 15.664 6.30057 16.252 6.89791 16.7C7.49524 17.148 8.36324 17.568 9.5019 17.96L10.7899 18.408C11.6486 18.688 12.4886 19.0707 13.3099 19.556C14.1499 20.0413 14.8312 20.6853 15.3539 21.488C15.8952 22.272 16.1659 23.2893 16.1659 24.54C16.1659 25.5667 15.9606 26.4533 15.5499 27.2C15.1579 27.9467 14.6259 28.5627 13.9539 29.048C13.3006 29.5147 12.5726 29.86 11.7699 30.084C10.9859 30.3267 10.2112 30.448 9.4459 30.448ZM26.0474 30.448C24.6474 30.448 23.3967 30.1213 22.2954 29.468C21.194 28.8147 20.326 27.9187 19.6914 26.78C19.0754 25.6413 18.7674 24.344 18.7674 22.888C18.7674 21.5253 19.066 20.2653 19.6634 19.108C20.2607 17.9507 21.0914 17.0267 22.1554 16.336C23.238 15.6267 24.4794 15.272 25.8794 15.272C27.354 15.272 28.6047 15.5893 29.6314 16.224C30.6767 16.8587 31.47 17.7267 32.0114 18.828C32.5527 19.9293 32.8234 21.1707 32.8234 22.552C32.8234 22.7573 32.814 22.944 32.7954 23.112C32.7954 23.28 32.786 23.4107 32.7674 23.504H21.7354C21.8847 24.9227 22.3794 25.9867 23.2194 26.696C24.078 27.4053 25.0487 27.76 26.1314 27.76C27.102 27.76 27.9047 27.5453 28.5394 27.116C29.174 26.668 29.678 26.1173 30.0514 25.464L32.5434 26.668C31.9274 27.788 31.0874 28.7027 30.0234 29.412C28.9594 30.1027 27.634 30.448 26.0474 30.448ZM25.9074 17.848C24.8994 17.848 24.0407 18.156 23.3314 18.772C22.622 19.388 22.146 20.2093 21.9034 21.236H29.8274C29.79 20.7507 29.6314 20.2467 29.3514 19.724C29.0714 19.2013 28.642 18.7627 28.0634 18.408C27.5034 18.0347 26.7847 17.848 25.9074 17.848ZM44.5 13.62C43.94 13.62 43.4547 13.424 43.044 13.032C42.652 12.6213 42.456 12.136 42.456 11.576C42.456 11.016 42.652 10.54 43.044 10.148C43.4547 9.756 43.94 9.56 44.5 9.56C45.06 9.56 45.536 9.756 45.928 10.148C46.3387 10.54 46.544 11.016 46.544 11.576C46.544 12.136 46.3387 12.6213 45.928 13.032C45.536 13.424 45.06 13.62 44.5 13.62ZM42.988 30V15.72H46.012V30H42.988Z" fill="#3C4043"/>
<g id="GPay Logo (Light)">
<g id="GPay">
<g id="Pay">
<path id="Fill 1" fill-rule="evenodd" clip-rule="evenodd" d="M98.5289 9.44664V17.6128H103.565C104.765 17.6128 105.757 17.2096 106.541 16.4032C107.347 15.5988 107.75 14.6394 107.75 13.5288C107.75 12.4406 107.347 11.4924 106.541 10.686C105.757 9.85915 104.765 9.44478 103.565 9.44478H98.5289V9.44664ZM98.5289 20.4872V29.9599H95.5205V6.57217H103.499C105.527 6.57217 107.248 7.24786 108.666 8.59737C110.105 9.94688 110.824 11.5913 110.824 13.5288C110.824 15.511 110.105 17.1667 108.666 18.4938C107.27 19.8227 105.547 20.4854 103.499 20.4854H98.5289V20.4872Z" fill="#5F6368"/>
<path id="Fill 3" fill-rule="evenodd" clip-rule="evenodd" d="M113.864 25.0602C113.864 25.8442 114.197 26.4975 114.862 27.0201C115.527 27.5427 116.306 27.804 117.2 27.804C118.465 27.804 119.591 27.3354 120.584 26.4004C121.576 25.4634 122.071 24.364 122.071 23.1022C121.133 22.3612 119.825 21.9916 118.147 21.9916C116.925 21.9916 115.907 22.2865 115.09 22.8745C114.273 23.4623 113.864 24.1886 113.864 25.0602ZM117.756 13.4317C119.98 13.4317 121.735 14.0252 123.022 15.2124C124.308 16.3995 124.95 18.0271 124.95 20.0952V29.9599H122.073V27.7387H121.942C120.699 29.5677 119.042 30.4825 116.972 30.4825C115.206 30.4825 113.728 29.9599 112.541 28.9146C111.353 27.8694 110.759 26.5628 110.759 24.9949C110.759 23.3393 111.385 22.0232 112.638 21.0434C113.892 20.0635 115.565 19.5726 117.658 19.5726C119.444 19.5726 120.916 19.8992 122.071 20.5525V19.8656C122.071 18.8204 121.656 17.9338 120.829 17.204C119.999 16.4741 119.031 16.1102 117.919 16.1102C116.239 16.1102 114.911 16.8176 113.93 18.2343L111.28 16.5675C112.741 14.4769 114.899 13.4317 117.756 13.4317Z" fill="#5F6368"/>
<path id="Fill 5" fill-rule="evenodd" clip-rule="evenodd" d="M141.463 13.9543L131.424 37.0154H128.318L132.046 28.9464L125.44 13.9543H128.71L133.484 25.4522H133.55L138.193 13.9543H141.463Z" fill="#5F6368"/>
</g>
<g id="G">
<path id="Fill 8" fill-rule="evenodd" clip-rule="evenodd" d="M86.3729 18.4452C86.3729 17.4989 86.2926 16.5861 86.1412 15.7126H73.4536V20.8885H80.7205C80.4084 22.5757 79.4648 24.0112 78.0335 24.9725V28.3341H82.3704C84.9098 25.9935 86.3729 22.5348 86.3729 18.4452Z" fill="#4285F4"/>
<path id="Fill 10" fill-rule="evenodd" clip-rule="evenodd" d="M73.4536 31.5782C77.0843 31.5782 80.1412 30.3873 82.3704 28.3341L78.0335 24.9725C76.8264 25.7844 75.2717 26.2585 73.4536 26.2585C69.9444 26.2585 66.9659 23.8955 65.9009 20.7112H61.4331V24.1736C63.6474 28.5637 68.1973 31.5782 73.4536 31.5782Z" fill="#34A853"/>
<path id="Fill 12" fill-rule="evenodd" clip-rule="evenodd" d="M65.9009 20.7111C65.6281 19.8992 65.4787 19.0331 65.4787 18.139C65.4787 17.245 65.6281 16.3789 65.9009 15.567V12.1045H61.4332C60.5176 13.9188 60 15.9683 60 18.139C60 20.3098 60.5176 22.3595 61.4332 24.1736L65.9009 20.7111Z" fill="#FABB05"/>
<path id="Fill 14" fill-rule="evenodd" clip-rule="evenodd" d="M73.4536 10.0196C75.4362 10.0196 77.2132 10.7009 78.6146 12.0355V12.0374L82.4545 8.20162C80.1226 6.03271 77.0824 4.7 73.4536 4.7C68.1973 4.7 63.6474 7.71446 61.4331 12.1046L65.9009 15.567C66.9659 12.3827 69.9444 10.0196 73.4536 10.0196Z" fill="#E94235"/>
</g>
</g>
</g>
</g>
</svg>
