<svg width="124" height="21" viewBox="0 0 124 21" fill="none" xmlns="http://www.w3.org/2000/svg">
<g id="fr_add_to_Pay_NBG">
<path id="Left Text" d="M0.977503 15.0006L5.2975 3.54461H7.2975L11.6335 15.0006H9.6975L8.6415 12.0566H3.9695L2.9135 15.0006H0.977503ZM8.0495 10.4246L6.7855 6.92061L6.3535 5.60861H6.2575L5.8255 6.92061L4.5615 10.4246H8.0495ZM12.4761 18.6166C12.3055 18.6166 12.1508 18.6059 12.0121 18.5846C11.8628 18.5633 11.7188 18.5366 11.5801 18.5046V16.8406C11.6761 16.8939 11.7935 16.9419 11.9321 16.9846C12.0708 17.0273 12.2041 17.0486 12.3321 17.0486C12.6308 17.0486 12.8441 16.9526 12.9721 16.7606C13.1001 16.5793 13.1641 16.3126 13.1641 15.9606V6.84061H14.8921V15.9766C14.8921 16.6059 14.7855 17.1126 14.5721 17.4966C14.3695 17.8806 14.0868 18.1633 13.7241 18.3446C13.3615 18.5259 12.9455 18.6166 12.4761 18.6166ZM14.0281 5.64061C13.7081 5.64061 13.4308 5.52861 13.1961 5.30461C12.9721 5.06994 12.8601 4.79261 12.8601 4.47261C12.8601 4.14194 12.9721 3.86994 13.1961 3.65661C13.4308 3.43261 13.7081 3.32061 14.0281 3.32061C14.3588 3.32061 14.6361 3.43261 14.8601 3.65661C15.0841 3.86994 15.1961 4.14194 15.1961 4.47261C15.1961 4.79261 15.0841 5.06994 14.8601 5.30461C14.6361 5.52861 14.3588 5.64061 14.0281 5.64061ZM20.948 15.2566C20.1053 15.2566 19.364 15.0646 18.724 14.6806C18.084 14.2966 17.5827 13.7793 17.22 13.1286C16.8573 12.4673 16.676 11.7313 16.676 10.9206C16.676 10.1099 16.8573 9.37928 17.22 8.72861C17.5827 8.06728 18.084 7.54461 18.724 7.16061C19.364 6.77661 20.1053 6.58461 20.948 6.58461C21.78 6.58461 22.516 6.78194 23.156 7.17661C23.796 7.56061 24.2973 8.07794 24.66 8.72861C25.0227 9.37928 25.204 10.1099 25.204 10.9206C25.204 11.7313 25.0227 12.4673 24.66 13.1286C24.2973 13.7793 23.796 14.2966 23.156 14.6806C22.516 15.0646 21.78 15.2566 20.948 15.2566ZM20.948 13.6726C21.396 13.6726 21.812 13.5659 22.196 13.3526C22.58 13.1286 22.8893 12.8139 23.124 12.4086C23.3693 11.9926 23.492 11.4966 23.492 10.9206C23.492 10.3446 23.3693 9.85394 23.124 9.44861C22.8893 9.03261 22.58 8.71794 22.196 8.50461C21.812 8.28061 21.396 8.16861 20.948 8.16861C20.5 8.16861 20.0787 8.28061 19.684 8.50461C19.3 8.71794 18.9853 9.03261 18.74 9.44861C18.5053 9.85394 18.388 10.3446 18.388 10.9206C18.388 11.4966 18.5053 11.9926 18.74 12.4086C18.9853 12.8139 19.3053 13.1286 19.7 13.3526C20.0947 13.5659 20.5107 13.6726 20.948 13.6726ZM29.8274 15.2566C28.8247 15.2566 28.0674 14.9579 27.5554 14.3606C27.054 13.7526 26.8034 12.9313 26.8034 11.8966V6.84061H28.5314V11.6566C28.5314 12.3393 28.6914 12.8459 29.0114 13.1766C29.342 13.5073 29.7527 13.6726 30.2434 13.6726C30.6914 13.6726 31.0754 13.5606 31.3954 13.3366C31.7154 13.1019 31.9607 12.7979 32.1314 12.4246C32.3127 12.0513 32.4034 11.6513 32.4034 11.2246V6.84061H34.1154V15.0006H32.4994V13.8966H32.4034C32.254 14.1526 32.046 14.3819 31.7794 14.5846C31.5127 14.7873 31.214 14.9473 30.8834 15.0646C30.5527 15.1926 30.2007 15.2566 29.8274 15.2566ZM35.8168 6.84061H37.2408V4.53661H38.9688V6.84061H40.9688V8.34461H38.9688V12.2646C38.9688 12.6699 39.0488 12.9793 39.2088 13.1926C39.3794 13.4059 39.6621 13.5126 40.0568 13.5126C40.2488 13.5126 40.4194 13.4859 40.5688 13.4326C40.7181 13.3686 40.8674 13.2939 41.0168 13.2086V14.8886C40.8354 14.9633 40.6434 15.0219 40.4408 15.0646C40.2381 15.1073 39.9981 15.1286 39.7208 15.1286C38.9634 15.1286 38.3608 14.9099 37.9128 14.4726C37.4648 14.0246 37.2408 13.4113 37.2408 12.6326V8.34461H35.8168V6.84061ZM46.1923 15.2566C45.3923 15.2566 44.6776 15.0699 44.0483 14.6966C43.4189 14.3233 42.9229 13.8113 42.5603 13.1606C42.2083 12.5099 42.0323 11.7686 42.0323 10.9366C42.0323 10.1579 42.2029 9.43794 42.5443 8.77661C42.8856 8.11528 43.3603 7.58728 43.9683 7.19261C44.5869 6.78728 45.2963 6.58461 46.0963 6.58461C46.9389 6.58461 47.6536 6.76594 48.2403 7.12861C48.8376 7.49128 49.2909 7.98728 49.6003 8.61661C49.9096 9.24594 50.0643 9.95528 50.0643 10.7446C50.0643 10.8619 50.0589 10.9686 50.0483 11.0646C50.0483 11.1606 50.0429 11.2353 50.0323 11.2886H43.7283C43.7709 11.7366 43.8829 12.1259 44.0643 12.4566C44.2989 12.8726 44.6083 13.1873 44.9923 13.4006C45.3763 13.6139 45.7923 13.7206 46.2403 13.7206C46.7843 13.7206 47.2376 13.5979 47.6003 13.3526C47.9736 13.0966 48.2669 12.7819 48.4803 12.4086L49.9043 13.0966C49.5523 13.7366 49.0723 14.2593 48.4643 14.6646C47.8563 15.0593 47.0989 15.2566 46.1923 15.2566ZM43.8243 9.99261H48.3523C48.3416 9.78994 48.2883 9.57661 48.1923 9.35261C48.0963 9.11794 47.9576 8.90461 47.7763 8.71261C47.5949 8.52061 47.3656 8.36594 47.0883 8.24861C46.8109 8.12061 46.4856 8.05661 46.1123 8.05661C45.6429 8.05661 45.2269 8.17928 44.8643 8.42461C44.5016 8.65928 44.2189 8.98994 44.0163 9.41661C43.9309 9.59794 43.8669 9.78994 43.8243 9.99261ZM51.8174 15.0006V6.84061H53.4494V8.04061H53.5454C53.6734 7.76328 53.8547 7.51794 54.0894 7.30461C54.3347 7.09128 54.612 6.92061 54.9214 6.79261C55.2414 6.66461 55.572 6.60061 55.9134 6.60061C56.1374 6.60061 56.324 6.61661 56.4734 6.64861C56.6334 6.66994 56.7774 6.70728 56.9054 6.76061V8.55261C56.7027 8.46728 56.4947 8.39794 56.2814 8.34461C56.0787 8.29128 55.8654 8.26461 55.6414 8.26461C55.236 8.26461 54.8734 8.37661 54.5534 8.60061C54.244 8.81394 53.9987 9.10194 53.8174 9.46461C53.636 9.82728 53.5454 10.2326 53.5454 10.6806V15.0006H51.8174ZM64.8336 15.2566C64.247 15.2566 63.7243 15.1393 63.2656 14.9046C62.8176 14.6699 62.4603 14.3499 62.1936 13.9446C61.9376 13.5286 61.8096 13.0539 61.8096 12.5206C61.8096 11.9339 61.959 11.4379 62.2576 11.0326C62.567 10.6273 62.9776 10.3179 63.4896 10.1046C64.0016 9.89128 64.567 9.78461 65.1856 9.78461C65.527 9.78461 65.8416 9.81128 66.1296 9.86461C66.4283 9.90728 66.6843 9.96061 66.8976 10.0246C67.1216 10.0886 67.2976 10.1579 67.4256 10.2326V9.80061C67.4256 9.26728 67.2336 8.84061 66.8496 8.52061C66.4656 8.20061 65.9696 8.04061 65.3616 8.04061C64.9456 8.04061 64.551 8.13661 64.1776 8.32861C63.8043 8.50994 63.5056 8.76061 63.2816 9.08061L62.0976 8.16861C62.3323 7.83794 62.615 7.55528 62.9456 7.32061C63.287 7.08594 63.6656 6.90461 64.0816 6.77661C64.5083 6.64861 64.951 6.58461 65.4096 6.58461C66.5936 6.58461 67.5056 6.87794 68.1456 7.46461C68.7856 8.04061 69.1056 8.85128 69.1056 9.89661V15.0006H67.4256V13.9926H67.3296C67.191 14.2059 66.999 14.4086 66.7536 14.6006C66.519 14.7926 66.2363 14.9473 65.9056 15.0646C65.5856 15.1926 65.2283 15.2566 64.8336 15.2566ZM65.1376 13.8486C65.5856 13.8486 65.9803 13.7419 66.3216 13.5286C66.6736 13.3153 66.9456 13.0379 67.1376 12.6966C67.3296 12.3446 67.4256 11.9659 67.4256 11.5606C67.191 11.4219 66.903 11.3099 66.5616 11.2246C66.231 11.1286 65.879 11.0806 65.5056 11.0806C64.8016 11.0806 64.3003 11.2193 64.0016 11.4966C63.703 11.7739 63.5536 12.1206 63.5536 12.5366C63.5536 12.9206 63.6976 13.2353 63.9856 13.4806C64.2736 13.7259 64.6576 13.8486 65.1376 13.8486ZM64.7696 5.27261L63.4896 3.22461H65.4576L66.2096 5.27261H64.7696Z" fill="white"/>
<g id="GPay (Dark)">
<g id="GPay">
<g id="Pay">
<path id="Fill 1" fill-rule="evenodd" clip-rule="evenodd" d="M98.3563 3.42339V8.16175H101.278C101.974 8.16175 102.55 7.92781 103.005 7.45993C103.473 6.99313 103.707 6.43644 103.707 5.79203C103.707 5.16061 103.473 4.61041 103.005 4.14254C102.55 3.66274 101.974 3.4223 101.278 3.4223H98.3563V3.42339ZM98.3563 9.82966V15.3262H96.6107V1.75549H101.24C102.417 1.75549 103.415 2.14756 104.238 2.93061C105.073 3.71365 105.491 4.66782 105.491 5.79203C105.491 6.94224 105.073 7.90291 104.238 8.67296C103.428 9.44409 102.429 9.82858 101.24 9.82858H98.3563V9.82966Z" fill="white"/>
<path id="Fill 3" fill-rule="evenodd" clip-rule="evenodd" d="M107.255 12.4831C107.255 12.9379 107.448 13.317 107.834 13.6203C108.22 13.9235 108.672 14.0752 109.19 14.0752C109.924 14.0752 110.578 13.8032 111.153 13.2607C111.729 12.717 112.017 12.0791 112.017 11.3469C111.472 10.917 110.713 10.7025 109.74 10.7025C109.031 10.7025 108.44 10.8736 107.966 11.2148C107.492 11.5559 107.255 11.9773 107.255 12.4831M109.513 5.73566C110.803 5.73566 111.821 6.08007 112.569 6.76889C113.314 7.45771 113.687 8.40213 113.687 9.60216V15.3261H112.018V14.0373H111.942C111.221 15.0985 110.259 15.6294 109.058 15.6294C108.033 15.6294 107.176 15.3261 106.487 14.7196C105.797 14.1131 105.453 13.3549 105.453 12.4452C105.453 11.4845 105.816 10.7208 106.543 10.1523C107.271 9.58375 108.241 9.2989 109.456 9.2989C110.492 9.2989 111.346 9.48844 112.017 9.86751V9.46894C112.017 8.86243 111.776 8.34798 111.296 7.92451C110.814 7.50103 110.252 7.28984 109.607 7.28984C108.633 7.28984 107.862 7.70032 107.293 8.52235L105.755 7.55519C106.603 6.34217 107.855 5.73566 109.513 5.73566" fill="white"/>
<path id="Fill 5" fill-rule="evenodd" clip-rule="evenodd" d="M123.269 6.03894L117.443 19.4201H115.641L117.804 14.738L113.971 6.03894H115.869L118.639 12.7106H118.677L121.371 6.03894H123.269Z" fill="white"/>
</g>
<g id="G">
<path id="Fill 8" fill-rule="evenodd" clip-rule="evenodd" d="M91.3029 8.64473C91.3029 8.09563 91.2562 7.56601 91.1684 7.05914H83.8065V10.0625H88.0231C87.842 11.0414 87.2944 11.8744 86.4639 12.4322V14.3828H88.9804C90.4539 13.0246 91.3029 11.0177 91.3029 8.64473" fill="#4285F4"/>
<path id="Fill 10" fill-rule="evenodd" clip-rule="evenodd" d="M83.8065 16.2651C85.9131 16.2651 87.6869 15.5741 88.9804 14.3828L86.4639 12.4322C85.7635 12.9033 84.8614 13.1784 83.8065 13.1784C81.7703 13.1784 80.042 11.8073 79.424 9.95959H76.8316V11.9687C78.1164 14.516 80.7565 16.2651 83.8065 16.2651" fill="#34A853"/>
<path id="Fill 12" fill-rule="evenodd" clip-rule="evenodd" d="M79.424 9.9596C79.2657 9.48847 79.179 8.98593 79.179 8.46715C79.179 7.94837 79.2657 7.44583 79.424 6.9747V4.96564H76.8316C76.3003 6.01837 76 7.20756 76 8.46715C76 9.72674 76.3003 10.916 76.8316 11.9687L79.424 9.9596Z" fill="#FABB05"/>
<path id="Fill 14" fill-rule="evenodd" clip-rule="evenodd" d="M83.8065 3.75583C84.9568 3.75583 85.9879 4.15115 86.8011 4.92553V4.92661L89.0292 2.70094C87.6761 1.44243 85.912 0.669128 83.8065 0.669128C80.7565 0.669128 78.1164 2.41826 76.8316 4.9656L79.424 6.97467C80.042 5.12698 81.7703 3.75583 83.8065 3.75583" fill="#E94235"/>
</g>
</g>
</g>
</g>
</svg>
