<svg width="284" height="38" viewBox="0 0 284 38" fill="none" xmlns="http://www.w3.org/2000/svg">
<g id="fr_book_with_Light">
<path id="Text" d="M3.44143 30V9.952H10.4694C11.7014 9.952 12.8028 10.2133 13.7734 10.736C14.7441 11.2587 15.5094 11.9867 16.0694 12.92C16.6481 13.8347 16.9374 14.8893 16.9374 16.084C16.9374 17.3907 16.5268 18.576 15.7054 19.64C14.9028 20.6853 13.7641 21.4133 12.2894 21.824L17.8614 29.832V30H14.3054L8.95743 22.132H6.52143V30H3.44143ZM10.4974 12.836H6.52143V19.304H10.3854C11.3374 19.304 12.1494 19.0053 12.8214 18.408C13.4934 17.792 13.8294 17.008 13.8294 16.056C13.8294 15.5147 13.6988 15.0013 13.4374 14.516C13.1761 14.012 12.7934 13.6107 12.2894 13.312C11.8041 12.9947 11.2068 12.836 10.4974 12.836ZM26.5778 30.448C25.1778 30.448 23.9272 30.1213 22.8258 29.468C21.7245 28.8147 20.8565 27.9187 20.2218 26.78C19.6058 25.6413 19.2978 24.344 19.2978 22.888C19.2978 21.5253 19.5965 20.2653 20.1938 19.108C20.7912 17.9507 21.6218 17.0267 22.6858 16.336C23.7685 15.6267 25.0098 15.272 26.4098 15.272C27.8845 15.272 29.1352 15.5893 30.1618 16.224C31.2072 16.8587 32.0005 17.7267 32.5418 18.828C33.0832 19.9293 33.3538 21.1707 33.3538 22.552C33.3538 22.7573 33.3445 22.944 33.3258 23.112C33.3258 23.28 33.3165 23.4107 33.2978 23.504H22.2658C22.4152 24.9227 22.9098 25.9867 23.7498 26.696C24.6085 27.4053 25.5792 27.76 26.6618 27.76C27.6325 27.76 28.4352 27.5453 29.0698 27.116C29.7045 26.668 30.2085 26.1173 30.5818 25.464L33.0738 26.668C32.4578 27.788 31.6178 28.7027 30.5538 29.412C29.4898 30.1027 28.1645 30.448 26.5778 30.448ZM26.4378 17.848C25.4298 17.848 24.5712 18.156 23.8618 18.772C23.1525 19.388 22.6765 20.2093 22.4338 21.236H30.3578C30.3205 20.7507 30.1618 20.2467 29.8818 19.724C29.6018 19.2013 29.1725 18.7627 28.5938 18.408C28.0338 18.0347 27.3152 17.848 26.4378 17.848ZM25.1778 12.976L26.4938 9.392H29.9098L27.6698 12.976H25.1778ZM41.804 30.448C40.0867 30.448 38.7147 30.0747 37.688 29.328C36.6614 28.5627 35.952 27.6573 35.56 26.612L38.276 25.436C38.612 26.2013 39.0974 26.7893 39.732 27.2C40.3667 27.592 41.0854 27.788 41.888 27.788C42.6347 27.788 43.2787 27.6573 43.82 27.396C44.3614 27.116 44.632 26.668 44.632 26.052C44.632 25.4547 44.3614 25.016 43.82 24.736C43.2787 24.456 42.6067 24.2133 41.804 24.008L40.096 23.616C39.4054 23.448 38.7614 23.1867 38.164 22.832C37.5667 22.4773 37.0814 22.02 36.708 21.46C36.3347 20.8813 36.148 20.2093 36.148 19.444C36.148 18.604 36.4 17.876 36.904 17.26C37.408 16.6253 38.0707 16.14 38.892 15.804C39.732 15.4493 40.6374 15.272 41.608 15.272C42.9334 15.272 44.0907 15.5333 45.08 16.056C46.088 16.56 46.8254 17.3253 47.292 18.352L44.688 19.528C44.352 18.8933 43.9134 18.4547 43.372 18.212C42.8494 17.9507 42.2707 17.82 41.636 17.82C40.9267 17.82 40.3294 17.9693 39.844 18.268C39.3774 18.5667 39.144 18.94 39.144 19.388C39.144 19.8733 39.3494 20.256 39.76 20.536C40.1894 20.816 40.712 21.04 41.328 21.208L43.4 21.712C44.8187 22.0667 45.8827 22.608 46.592 23.336C47.3014 24.0453 47.656 24.9133 47.656 25.94C47.656 26.8547 47.3947 27.6573 46.872 28.348C46.3494 29.02 45.64 29.5427 44.744 29.916C43.8667 30.2707 42.8867 30.448 41.804 30.448ZM57.256 30.448C55.856 30.448 54.6053 30.1213 53.504 29.468C52.4026 28.8147 51.5346 27.9187 50.9 26.78C50.284 25.6413 49.976 24.344 49.976 22.888C49.976 21.5253 50.2746 20.2653 50.872 19.108C51.4693 17.9507 52.3 17.0267 53.364 16.336C54.4466 15.6267 55.688 15.272 57.088 15.272C58.5626 15.272 59.8133 15.5893 60.84 16.224C61.8853 16.8587 62.6786 17.7267 63.22 18.828C63.7613 19.9293 64.032 21.1707 64.032 22.552C64.032 22.7573 64.0226 22.944 64.004 23.112C64.004 23.28 63.9946 23.4107 63.976 23.504H52.944C53.0933 24.9227 53.588 25.9867 54.428 26.696C55.2866 27.4053 56.2573 27.76 57.34 27.76C58.3106 27.76 59.1133 27.5453 59.748 27.116C60.3826 26.668 60.8866 26.1173 61.26 25.464L63.752 26.668C63.136 27.788 62.296 28.7027 61.232 29.412C60.168 30.1027 58.8426 30.448 57.256 30.448ZM57.116 17.848C56.108 17.848 55.2493 18.156 54.54 18.772C53.8306 19.388 53.3546 20.2093 53.112 21.236H61.036C60.9986 20.7507 60.84 20.2467 60.56 19.724C60.28 19.2013 59.8506 18.7627 59.272 18.408C58.712 18.0347 57.9933 17.848 57.116 17.848ZM67.1374 30V15.72H69.9934V17.82H70.1614C70.4788 17.092 71.0201 16.4947 71.7854 16.028C72.5694 15.5427 73.4094 15.3 74.3054 15.3C74.6974 15.3 75.0241 15.328 75.2854 15.384C75.5654 15.44 75.8174 15.5053 76.0414 15.58V18.716C75.6868 18.5667 75.3228 18.4453 74.9494 18.352C74.5948 18.2587 74.2214 18.212 73.8294 18.212C73.1201 18.212 72.4854 18.408 71.9254 18.8C71.3841 19.1733 70.9548 19.6867 70.6374 20.34C70.3201 20.9747 70.1614 21.6747 70.1614 22.44V30H67.1374ZM83.4806 30L77.5726 15.72H80.9326L84.9366 26.108H85.0766L89.1646 15.72H92.4686L86.5046 30H83.4806ZM100.84 30.448C99.4396 30.448 98.1889 30.1213 97.0876 29.468C95.9862 28.8147 95.1182 27.9187 94.4836 26.78C93.8676 25.6413 93.5596 24.344 93.5596 22.888C93.5596 21.5253 93.8582 20.2653 94.4556 19.108C95.0529 17.9507 95.8836 17.0267 96.9476 16.336C98.0302 15.6267 99.2716 15.272 100.672 15.272C102.146 15.272 103.397 15.5893 104.424 16.224C105.469 16.8587 106.262 17.7267 106.804 18.828C107.345 19.9293 107.616 21.1707 107.616 22.552C107.616 22.7573 107.606 22.944 107.588 23.112C107.588 23.28 107.578 23.4107 107.56 23.504H96.5276C96.6769 24.9227 97.1716 25.9867 98.0116 26.696C98.8702 27.4053 99.8409 27.76 100.924 27.76C101.894 27.76 102.697 27.5453 103.332 27.116C103.966 26.668 104.47 26.1173 104.844 25.464L107.336 26.668C106.72 27.788 105.88 28.7027 104.816 29.412C103.752 30.1027 102.426 30.448 100.84 30.448ZM100.7 17.848C99.6916 17.848 98.8329 18.156 98.1236 18.772C97.4142 19.388 96.9382 20.2093 96.6956 21.236H104.62C104.582 20.7507 104.424 20.2467 104.144 19.724C103.864 19.2013 103.434 18.7627 102.856 18.408C102.296 18.0347 101.577 17.848 100.7 17.848ZM110.721 30V15.72H113.577V17.82H113.745C114.062 17.092 114.604 16.4947 115.369 16.028C116.153 15.5427 116.993 15.3 117.889 15.3C118.281 15.3 118.608 15.328 118.869 15.384C119.149 15.44 119.401 15.5053 119.625 15.58V18.716C119.27 18.5667 118.906 18.4453 118.533 18.352C118.178 18.2587 117.805 18.212 117.413 18.212C116.704 18.212 116.069 18.408 115.509 18.8C114.968 19.1733 114.538 19.6867 114.221 20.34C113.904 20.9747 113.745 21.6747 113.745 22.44V30H110.721ZM133.574 30.448C132.548 30.448 131.633 30.252 130.83 29.86C130.028 29.4493 129.402 28.88 128.954 28.152C128.506 27.424 128.282 26.5933 128.282 25.66C128.282 24.652 128.544 23.7933 129.066 23.084C129.608 22.356 130.326 21.8053 131.222 21.432C132.118 21.0587 133.108 20.872 134.19 20.872C135.086 20.872 135.87 20.956 136.542 21.124C137.233 21.292 137.756 21.4693 138.11 21.656V20.9C138.11 19.9667 137.774 19.22 137.102 18.66C136.43 18.1 135.562 17.82 134.498 17.82C133.77 17.82 133.08 17.988 132.426 18.324C131.773 18.6413 131.25 19.08 130.858 19.64L128.786 18.044C129.402 17.1853 130.214 16.5133 131.222 16.028C132.249 15.524 133.369 15.272 134.582 15.272C136.654 15.272 138.25 15.7853 139.37 16.812C140.49 17.82 141.05 19.2387 141.05 21.068V30H138.11V28.236H137.942C137.569 28.8147 137.009 29.328 136.262 29.776C135.516 30.224 134.62 30.448 133.574 30.448ZM134.106 27.984C134.89 27.984 135.581 27.7973 136.178 27.424C136.776 27.0507 137.242 26.5653 137.578 25.968C137.933 25.352 138.11 24.6893 138.11 23.98C137.681 23.7373 137.177 23.5413 136.598 23.392C136.02 23.224 135.404 23.14 134.75 23.14C133.518 23.14 132.641 23.392 132.118 23.896C131.596 24.3813 131.334 24.9787 131.334 25.688C131.334 26.36 131.586 26.9107 132.09 27.34C132.594 27.7693 133.266 27.984 134.106 27.984ZM148.746 30L142.838 15.72H146.198L150.202 26.108H150.342L154.43 15.72H157.734L151.77 30H148.746ZM166.105 30.448C164.705 30.448 163.455 30.1213 162.353 29.468C161.252 28.8147 160.384 27.9187 159.749 26.78C159.133 25.6413 158.825 24.344 158.825 22.888C158.825 21.5253 159.124 20.2653 159.721 19.108C160.319 17.9507 161.149 17.0267 162.213 16.336C163.296 15.6267 164.537 15.272 165.937 15.272C167.412 15.272 168.663 15.5893 169.689 16.224C170.735 16.8587 171.528 17.7267 172.069 18.828C172.611 19.9293 172.881 21.1707 172.881 22.552C172.881 22.7573 172.872 22.944 172.853 23.112C172.853 23.28 172.844 23.4107 172.825 23.504H161.793C161.943 24.9227 162.437 25.9867 163.277 26.696C164.136 27.4053 165.107 27.76 166.189 27.76C167.16 27.76 167.963 27.5453 168.597 27.116C169.232 26.668 169.736 26.1173 170.109 25.464L172.601 26.668C171.985 27.788 171.145 28.7027 170.081 29.412C169.017 30.1027 167.692 30.448 166.105 30.448ZM165.965 17.848C164.957 17.848 164.099 18.156 163.389 18.772C162.68 19.388 162.204 20.2093 161.961 21.236H169.885C169.848 20.7507 169.689 20.2467 169.409 19.724C169.129 19.2013 168.7 18.7627 168.121 18.408C167.561 18.0347 166.843 17.848 165.965 17.848ZM182.731 30.448C181.294 30.448 180.025 30.1213 178.923 29.468C177.822 28.8147 176.954 27.9187 176.319 26.78C175.685 25.6227 175.367 24.316 175.367 22.86C175.367 21.404 175.685 20.1067 176.319 18.968C176.954 17.8107 177.822 16.9053 178.923 16.252C180.025 15.5987 181.294 15.272 182.731 15.272C184.318 15.272 185.653 15.6267 186.735 16.336C187.837 17.0453 188.621 18.0067 189.087 19.22L186.343 20.34C185.69 18.8093 184.467 18.044 182.675 18.044C181.891 18.044 181.173 18.2493 180.519 18.66C179.866 19.052 179.343 19.612 178.951 20.34C178.559 21.0493 178.363 21.8893 178.363 22.86C178.363 23.8307 178.559 24.68 178.951 25.408C179.343 26.136 179.866 26.696 180.519 27.088C181.173 27.48 181.891 27.676 182.675 27.676C183.59 27.676 184.365 27.4707 184.999 27.06C185.634 26.6307 186.129 26.052 186.483 25.324L189.171 26.5C188.667 27.6387 187.865 28.5813 186.763 29.328C185.662 30.0747 184.318 30.448 182.731 30.448Z" fill="#3C4043"/>
<g id="GPay Logo (Light)">
<g id="GPay">
<g id="Pay">
<path id="Fill 1" fill-rule="evenodd" clip-rule="evenodd" d="M240.529 9.44664V17.6128H245.565C246.765 17.6128 247.757 17.2096 248.541 16.4032C249.347 15.5988 249.75 14.6394 249.75 13.5288C249.75 12.4406 249.347 11.4924 248.541 10.686C247.757 9.85915 246.765 9.44478 245.565 9.44478H240.529V9.44664ZM240.529 20.4872V29.9599H237.521V6.57217H245.499C247.527 6.57217 249.248 7.24786 250.666 8.59737C252.105 9.94688 252.824 11.5913 252.824 13.5288C252.824 15.511 252.105 17.1667 250.666 18.4938C249.27 19.8227 247.547 20.4854 245.499 20.4854H240.529V20.4872Z" fill="#5F6368"/>
<path id="Fill 3" fill-rule="evenodd" clip-rule="evenodd" d="M255.864 25.0602C255.864 25.8442 256.197 26.4975 256.862 27.0201C257.527 27.5427 258.306 27.804 259.2 27.804C260.465 27.804 261.591 27.3354 262.584 26.4004C263.576 25.4634 264.071 24.364 264.071 23.1022C263.133 22.3612 261.825 21.9916 260.147 21.9916C258.925 21.9916 257.907 22.2865 257.09 22.8745C256.273 23.4623 255.864 24.1886 255.864 25.0602ZM259.756 13.4317C261.98 13.4317 263.735 14.0252 265.022 15.2124C266.308 16.3995 266.95 18.0271 266.95 20.0952V29.9599H264.073V27.7387H263.942C262.699 29.5677 261.042 30.4825 258.972 30.4825C257.206 30.4825 255.728 29.9599 254.541 28.9146C253.353 27.8694 252.759 26.5628 252.759 24.9949C252.759 23.3393 253.385 22.0232 254.638 21.0434C255.892 20.0635 257.565 19.5726 259.658 19.5726C261.444 19.5726 262.916 19.8992 264.071 20.5525V19.8656C264.071 18.8204 263.656 17.9338 262.829 17.204C261.999 16.4741 261.031 16.1102 259.919 16.1102C258.239 16.1102 256.911 16.8176 255.93 18.2343L253.28 16.5675C254.741 14.4769 256.899 13.4317 259.756 13.4317Z" fill="#5F6368"/>
<path id="Fill 5" fill-rule="evenodd" clip-rule="evenodd" d="M283.463 13.9543L273.424 37.0154H270.318L274.046 28.9464L267.44 13.9543H270.71L275.484 25.4522H275.55L280.193 13.9543H283.463Z" fill="#5F6368"/>
</g>
<g id="G">
<path id="Fill 8" fill-rule="evenodd" clip-rule="evenodd" d="M228.373 18.4452C228.373 17.4989 228.293 16.5861 228.141 15.7126H215.454V20.8885H222.72C222.408 22.5757 221.465 24.0112 220.033 24.9725V28.3341H224.37C226.91 25.9935 228.373 22.5348 228.373 18.4452Z" fill="#4285F4"/>
<path id="Fill 10" fill-rule="evenodd" clip-rule="evenodd" d="M215.454 31.5782C219.084 31.5782 222.141 30.3873 224.37 28.3341L220.033 24.9725C218.826 25.7844 217.272 26.2585 215.454 26.2585C211.944 26.2585 208.966 23.8955 207.901 20.7112H203.433V24.1736C205.647 28.5637 210.197 31.5782 215.454 31.5782Z" fill="#34A853"/>
<path id="Fill 12" fill-rule="evenodd" clip-rule="evenodd" d="M207.901 20.7111C207.628 19.8992 207.479 19.0331 207.479 18.139C207.479 17.245 207.628 16.3789 207.901 15.567V12.1045H203.433C202.518 13.9188 202 15.9683 202 18.139C202 20.3098 202.518 22.3595 203.433 24.1736L207.901 20.7111Z" fill="#FABB05"/>
<path id="Fill 14" fill-rule="evenodd" clip-rule="evenodd" d="M215.454 10.0196C217.436 10.0196 219.213 10.7009 220.615 12.0355V12.0374L224.455 8.20162C222.123 6.03271 219.082 4.7 215.454 4.7C210.197 4.7 205.647 7.71446 203.433 12.1046L207.901 15.567C208.966 12.3827 211.944 10.0196 215.454 10.0196Z" fill="#E94235"/>
</g>
</g>
</g>
</g>
</svg>
