<svg width="162" height="21" viewBox="0 0 162 21" fill="none" xmlns="http://www.w3.org/2000/svg">
<g id="fr_book_with_Pay_NBG">
<path id="Left Text" d="M1.65225 15.0006V3.54461H5.66825C6.37225 3.54461 7.00158 3.69394 7.55625 3.99261C8.11091 4.29128 8.54825 4.70194 8.86825 5.22461C9.19891 5.74728 9.36425 6.35528 9.36425 7.04861C9.36425 7.50728 9.26825 7.94461 9.07625 8.36061C8.89491 8.77661 8.62825 9.14994 8.27625 9.48061C7.93491 9.80061 7.51891 10.0513 7.02825 10.2326C6.93225 10.2753 6.83091 10.3073 6.72425 10.3286L9.89225 14.9046V15.0006H7.86025L4.80425 10.5046H3.41225V15.0006H1.65225ZM3.41225 8.88861H5.62025C5.98291 8.88861 6.30825 8.80861 6.59625 8.64861C6.89491 8.48861 7.13491 8.26994 7.31625 7.99261C7.49758 7.70461 7.58825 7.38461 7.58825 7.03261C7.58825 6.72328 7.51358 6.42994 7.36425 6.15261C7.21491 5.86461 6.99625 5.63528 6.70825 5.46461C6.43091 5.28328 6.08958 5.19261 5.68425 5.19261H3.41225V8.88861ZM14.8516 15.2566C14.0516 15.2566 13.337 15.0699 12.7076 14.6966C12.0783 14.3233 11.5823 13.8113 11.2196 13.1606C10.8676 12.5099 10.6916 11.7686 10.6916 10.9366C10.6916 10.1579 10.8623 9.43794 11.2036 8.77661C11.545 8.11528 12.0196 7.58728 12.6276 7.19261C13.2463 6.78728 13.9556 6.58461 14.7556 6.58461C15.5983 6.58461 16.313 6.76594 16.8996 7.12861C17.497 7.49128 17.9503 7.98728 18.2596 8.61661C18.569 9.24594 18.7236 9.95528 18.7236 10.7446C18.7236 10.8619 18.7183 10.9686 18.7076 11.0646C18.7076 11.1606 18.7023 11.2353 18.6916 11.2886H12.3876C12.4303 11.7366 12.5423 12.1259 12.7236 12.4566C12.9583 12.8726 13.2676 13.1873 13.6516 13.4006C14.0356 13.6139 14.4516 13.7206 14.8996 13.7206C15.4436 13.7206 15.897 13.5979 16.2596 13.3526C16.633 13.0966 16.9263 12.7819 17.1396 12.4086L18.5636 13.0966C18.2116 13.7366 17.7316 14.2593 17.1236 14.6646C16.5156 15.0593 15.7583 15.2566 14.8516 15.2566ZM12.4836 9.99261H17.0116C17.001 9.78994 16.9476 9.57661 16.8516 9.35261C16.7556 9.11794 16.617 8.90461 16.4356 8.71261C16.2543 8.52061 16.025 8.36594 15.7476 8.24861C15.4703 8.12061 15.145 8.05661 14.7716 8.05661C14.3023 8.05661 13.8863 8.17928 13.5236 8.42461C13.161 8.65928 12.8783 8.98994 12.6756 9.41661C12.5903 9.59794 12.5263 9.78994 12.4836 9.99261ZM14.0516 5.27261L14.8036 3.22461H16.7556L15.4756 5.27261H14.0516ZM23.5309 15.2566C22.8802 15.2566 22.3149 15.1606 21.8349 14.9686C21.3549 14.7659 20.9602 14.4993 20.6509 14.1686C20.3415 13.8273 20.1122 13.4593 19.9629 13.0646L21.5149 12.3926C21.7069 12.8299 21.9789 13.1659 22.3309 13.4006C22.6935 13.6246 23.1095 13.7366 23.5789 13.7366C24.0055 13.7366 24.3735 13.6619 24.6829 13.5126C24.9922 13.3526 25.1469 13.0966 25.1469 12.7446C25.1469 12.5206 25.0722 12.3393 24.9229 12.2006C24.7842 12.0513 24.5922 11.9286 24.3469 11.8326C24.1122 11.7366 23.8402 11.6513 23.5309 11.5766L22.5549 11.3526C22.1709 11.2566 21.8029 11.1073 21.4509 10.9046C21.1095 10.6913 20.8322 10.4246 20.6189 10.1046C20.4055 9.78461 20.2989 9.40594 20.2989 8.96861C20.2989 8.47794 20.4375 8.05661 20.7149 7.70461C21.0029 7.34194 21.3869 7.06461 21.8669 6.87261C22.3469 6.68061 22.8642 6.58461 23.4189 6.58461C23.9309 6.58461 24.3949 6.65394 24.8109 6.79261C25.2375 6.92061 25.6055 7.11794 25.9149 7.38461C26.2349 7.64061 26.4855 7.96061 26.6669 8.34461L25.1789 9.01661C24.9975 8.65394 24.7522 8.40328 24.4429 8.26461C24.1335 8.11528 23.7975 8.04061 23.4349 8.04061C23.0295 8.04061 22.6882 8.12594 22.4109 8.29661C22.1442 8.45661 22.0109 8.66994 22.0109 8.93661C22.0109 9.21394 22.1282 9.43261 22.3629 9.59261C22.6082 9.75261 22.9069 9.88061 23.2589 9.97661L24.4429 10.2646C25.2535 10.4673 25.8615 10.7766 26.2669 11.1926C26.6722 11.5979 26.8749 12.0939 26.8749 12.6806C26.8749 13.2033 26.7255 13.6619 26.4269 14.0566C26.1282 14.4406 25.7229 14.7393 25.2109 14.9526C24.7095 15.1553 24.1495 15.2566 23.5309 15.2566ZM32.3391 15.2566C31.5391 15.2566 30.8245 15.0699 30.1951 14.6966C29.5658 14.3233 29.0698 13.8113 28.7071 13.1606C28.3551 12.5099 28.1791 11.7686 28.1791 10.9366C28.1791 10.1579 28.3498 9.43794 28.6911 8.77661C29.0325 8.11528 29.5071 7.58728 30.1151 7.19261C30.7338 6.78728 31.4431 6.58461 32.2431 6.58461C33.0858 6.58461 33.8005 6.76594 34.3871 7.12861C34.9845 7.49128 35.4378 7.98728 35.7471 8.61661C36.0565 9.24594 36.2111 9.95528 36.2111 10.7446C36.2111 10.8619 36.2058 10.9686 36.1951 11.0646C36.1951 11.1606 36.1898 11.2353 36.1791 11.2886H29.8751C29.9178 11.7366 30.0298 12.1259 30.2111 12.4566C30.4458 12.8726 30.7551 13.1873 31.1391 13.4006C31.5231 13.6139 31.9391 13.7206 32.3871 13.7206C32.9311 13.7206 33.3845 13.5979 33.7471 13.3526C34.1205 13.0966 34.4138 12.7819 34.6271 12.4086L36.0511 13.0966C35.6991 13.7366 35.2191 14.2593 34.6111 14.6646C34.0031 15.0593 33.2458 15.2566 32.3391 15.2566ZM29.9711 9.99261H34.4991C34.4885 9.78994 34.4351 9.57661 34.3391 9.35261C34.2431 9.11794 34.1045 8.90461 33.9231 8.71261C33.7418 8.52061 33.5125 8.36594 33.2351 8.24861C32.9578 8.12061 32.6325 8.05661 32.2591 8.05661C31.7898 8.05661 31.3738 8.17928 31.0111 8.42461C30.6485 8.65928 30.3658 8.98994 30.1631 9.41661C30.0778 9.59794 30.0138 9.78994 29.9711 9.99261ZM37.9642 15.0006V6.84061H39.5962V8.04061H39.6922C39.8202 7.76328 40.0016 7.51794 40.2362 7.30461C40.4816 7.09128 40.7589 6.92061 41.0682 6.79261C41.3882 6.66461 41.7189 6.60061 42.0602 6.60061C42.2842 6.60061 42.4709 6.61661 42.6202 6.64861C42.7802 6.66994 42.9242 6.70728 43.0522 6.76061V8.55261C42.8496 8.46728 42.6416 8.39794 42.4282 8.34461C42.2256 8.29128 42.0122 8.26461 41.7882 8.26461C41.3829 8.26461 41.0202 8.37661 40.7002 8.60061C40.3909 8.81394 40.1456 9.10194 39.9642 9.46461C39.7829 9.82728 39.6922 10.2326 39.6922 10.6806V15.0006H37.9642ZM47.2817 15.0006L43.9057 6.84061H45.8257L48.1137 12.7766H48.1937L50.5297 6.84061H52.4177L49.0097 15.0006H47.2817ZM57.1797 15.2566C56.3797 15.2566 55.6651 15.0699 55.0357 14.6966C54.4064 14.3233 53.9104 13.8113 53.5477 13.1606C53.1957 12.5099 53.0197 11.7686 53.0197 10.9366C53.0197 10.1579 53.1904 9.43794 53.5317 8.77661C53.8731 8.11528 54.3477 7.58728 54.9557 7.19261C55.5744 6.78728 56.2837 6.58461 57.0837 6.58461C57.9264 6.58461 58.6411 6.76594 59.2277 7.12861C59.8251 7.49128 60.2784 7.98728 60.5877 8.61661C60.8971 9.24594 61.0517 9.95528 61.0517 10.7446C61.0517 10.8619 61.0464 10.9686 61.0357 11.0646C61.0357 11.1606 61.0304 11.2353 61.0197 11.2886H54.7157C54.7584 11.7366 54.8704 12.1259 55.0517 12.4566C55.2864 12.8726 55.5957 13.1873 55.9797 13.4006C56.3637 13.6139 56.7797 13.7206 57.2277 13.7206C57.7717 13.7206 58.2251 13.5979 58.5877 13.3526C58.9611 13.0966 59.2544 12.7819 59.4677 12.4086L60.8917 13.0966C60.5397 13.7366 60.0597 14.2593 59.4517 14.6646C58.8437 15.0593 58.0864 15.2566 57.1797 15.2566ZM54.8117 9.99261H59.3397C59.3291 9.78994 59.2757 9.57661 59.1797 9.35261C59.0837 9.11794 58.9451 8.90461 58.7637 8.71261C58.5824 8.52061 58.3531 8.36594 58.0757 8.24861C57.7984 8.12061 57.4731 8.05661 57.0997 8.05661C56.6304 8.05661 56.2144 8.17928 55.8517 8.42461C55.4891 8.65928 55.2064 8.98994 55.0037 9.41661C54.9184 9.59794 54.8544 9.78994 54.8117 9.99261ZM62.8049 15.0006V6.84061H64.4369V8.04061H64.5329C64.6609 7.76328 64.8422 7.51794 65.0769 7.30461C65.3222 7.09128 65.5995 6.92061 65.9089 6.79261C66.2289 6.66461 66.5595 6.60061 66.9009 6.60061C67.1249 6.60061 67.3115 6.61661 67.4609 6.64861C67.6209 6.66994 67.7649 6.70728 67.8929 6.76061V8.55261C67.6902 8.46728 67.4822 8.39794 67.2689 8.34461C67.0662 8.29128 66.8529 8.26461 66.6289 8.26461C66.2235 8.26461 65.8609 8.37661 65.5409 8.60061C65.2315 8.81394 64.9862 9.10194 64.8049 9.46461C64.6235 9.82728 64.5329 10.2326 64.5329 10.6806V15.0006H62.8049ZM75.8211 15.2566C75.2345 15.2566 74.7118 15.1393 74.2531 14.9046C73.8051 14.6699 73.4478 14.3499 73.1811 13.9446C72.9251 13.5286 72.7971 13.0539 72.7971 12.5206C72.7971 11.9339 72.9465 11.4379 73.2451 11.0326C73.5545 10.6273 73.9651 10.3179 74.4771 10.1046C74.9891 9.89128 75.5545 9.78461 76.1731 9.78461C76.5145 9.78461 76.8291 9.81128 77.1171 9.86461C77.4158 9.90728 77.6718 9.96061 77.8851 10.0246C78.1091 10.0886 78.2851 10.1579 78.4131 10.2326V9.80061C78.4131 9.26728 78.2211 8.84061 77.8371 8.52061C77.4531 8.20061 76.9571 8.04061 76.3491 8.04061C75.9331 8.04061 75.5385 8.13661 75.1651 8.32861C74.7918 8.50994 74.4931 8.76061 74.2691 9.08061L73.0851 8.16861C73.3198 7.83794 73.6025 7.55528 73.9331 7.32061C74.2745 7.08594 74.6531 6.90461 75.0691 6.77661C75.4958 6.64861 75.9385 6.58461 76.3971 6.58461C77.5811 6.58461 78.4931 6.87794 79.1331 7.46461C79.7731 8.04061 80.0931 8.85128 80.0931 9.89661V15.0006H78.4131V13.9926H78.3171C78.1785 14.2059 77.9865 14.4086 77.7411 14.6006C77.5065 14.7926 77.2238 14.9473 76.8931 15.0646C76.5731 15.1926 76.2158 15.2566 75.8211 15.2566ZM76.1251 13.8486C76.5731 13.8486 76.9678 13.7419 77.3091 13.5286C77.6611 13.3153 77.9331 13.0379 78.1251 12.6966C78.3171 12.3446 78.4131 11.9659 78.4131 11.5606C78.1785 11.4219 77.8905 11.3099 77.5491 11.2246C77.2185 11.1286 76.8665 11.0806 76.4931 11.0806C75.7891 11.0806 75.2878 11.2193 74.9891 11.4966C74.6905 11.7739 74.5411 12.1206 74.5411 12.5366C74.5411 12.9206 74.6851 13.2353 74.9731 13.4806C75.2611 13.7259 75.6451 13.8486 76.1251 13.8486ZM84.4692 15.0006L81.0932 6.84061H83.0132L85.3012 12.7766H85.3812L87.7172 6.84061H89.6052L86.1972 15.0006H84.4692ZM94.3672 15.2566C93.5672 15.2566 92.8526 15.0699 92.2232 14.6966C91.5939 14.3233 91.0979 13.8113 90.7352 13.1606C90.3832 12.5099 90.2072 11.7686 90.2072 10.9366C90.2072 10.1579 90.3779 9.43794 90.7192 8.77661C91.0606 8.11528 91.5352 7.58728 92.1432 7.19261C92.7619 6.78728 93.4712 6.58461 94.2712 6.58461C95.1139 6.58461 95.8286 6.76594 96.4152 7.12861C97.0126 7.49128 97.4659 7.98728 97.7752 8.61661C98.0846 9.24594 98.2392 9.95528 98.2392 10.7446C98.2392 10.8619 98.2339 10.9686 98.2232 11.0646C98.2232 11.1606 98.2179 11.2353 98.2072 11.2886H91.9032C91.9459 11.7366 92.0579 12.1259 92.2392 12.4566C92.4739 12.8726 92.7832 13.1873 93.1672 13.4006C93.5512 13.6139 93.9672 13.7206 94.4152 13.7206C94.9592 13.7206 95.4126 13.5979 95.7752 13.3526C96.1486 13.0966 96.4419 12.7819 96.6552 12.4086L98.0792 13.0966C97.7272 13.7366 97.2472 14.2593 96.6392 14.6646C96.0312 15.0593 95.2739 15.2566 94.3672 15.2566ZM91.9992 9.99261H96.5272C96.5166 9.78994 96.4632 9.57661 96.3672 9.35261C96.2712 9.11794 96.1326 8.90461 95.9512 8.71261C95.7699 8.52061 95.5406 8.36594 95.2632 8.24861C94.9859 8.12061 94.6606 8.05661 94.2872 8.05661C93.8179 8.05661 93.4019 8.17928 93.0392 8.42461C92.6766 8.65928 92.3939 8.98994 92.1912 9.41661C92.1059 9.59794 92.0419 9.78994 91.9992 9.99261ZM103.847 15.2566C103.025 15.2566 102.295 15.0699 101.655 14.6966C101.025 14.3233 100.529 13.8113 100.167 13.1606C99.8145 12.4993 99.6385 11.7526 99.6385 10.9206C99.6385 10.0886 99.8145 9.34728 100.167 8.69661C100.529 8.04594 101.025 7.53394 101.655 7.16061C102.295 6.77661 103.025 6.58461 103.847 6.58461C104.753 6.58461 105.516 6.78728 106.135 7.19261C106.764 7.59794 107.212 8.14728 107.479 8.84061L105.911 9.48061C105.719 9.04328 105.441 8.71794 105.079 8.50461C104.727 8.28061 104.305 8.16861 103.815 8.16861C103.367 8.16861 102.956 8.28594 102.583 8.52061C102.209 8.74461 101.911 9.05928 101.687 9.46461C101.463 9.86994 101.351 10.3553 101.351 10.9206C101.351 11.4753 101.463 11.9606 101.687 12.3766C101.911 12.7926 102.209 13.1126 102.583 13.3366C102.956 13.5606 103.367 13.6726 103.815 13.6726C104.337 13.6726 104.78 13.5553 105.143 13.3206C105.505 13.0859 105.788 12.7553 105.991 12.3286L107.527 13.0006C107.228 13.6513 106.764 14.1899 106.135 14.6166C105.516 15.0433 104.753 15.2566 103.847 15.2566Z" fill="white"/>
<g id="GPay (Dark)">
<g id="GPay">
<g id="Pay">
<path id="Fill 1" fill-rule="evenodd" clip-rule="evenodd" d="M136.356 3.42339V8.16175H139.278C139.974 8.16175 140.55 7.92781 141.005 7.45993C141.473 6.99313 141.707 6.43644 141.707 5.79203C141.707 5.16061 141.473 4.61041 141.005 4.14254C140.55 3.66274 139.974 3.4223 139.278 3.4223H136.356V3.42339ZM136.356 9.82966V15.3262H134.611V1.75549H139.24C140.417 1.75549 141.415 2.14756 142.238 2.93061C143.073 3.71365 143.491 4.66782 143.491 5.79203C143.491 6.94224 143.073 7.90291 142.238 8.67296C141.428 9.44409 140.429 9.82858 139.24 9.82858H136.356V9.82966Z" fill="white"/>
<path id="Fill 3" fill-rule="evenodd" clip-rule="evenodd" d="M145.255 12.4831C145.255 12.9379 145.448 13.317 145.834 13.6203C146.22 13.9235 146.672 14.0752 147.19 14.0752C147.924 14.0752 148.578 13.8032 149.153 13.2607C149.729 12.717 150.017 12.0791 150.017 11.3469C149.472 10.917 148.713 10.7025 147.74 10.7025C147.031 10.7025 146.44 10.8736 145.966 11.2148C145.492 11.5559 145.255 11.9773 145.255 12.4831M147.513 5.73566C148.803 5.73566 149.821 6.08007 150.569 6.76889C151.314 7.45771 151.687 8.40213 151.687 9.60216V15.3261H150.018V14.0373H149.942C149.221 15.0985 148.259 15.6294 147.058 15.6294C146.033 15.6294 145.176 15.3261 144.487 14.7196C143.797 14.1131 143.453 13.3549 143.453 12.4452C143.453 11.4845 143.816 10.7208 144.543 10.1523C145.271 9.58375 146.241 9.2989 147.456 9.2989C148.492 9.2989 149.346 9.48844 150.017 9.86751V9.46894C150.017 8.86243 149.776 8.34798 149.296 7.92451C148.814 7.50103 148.252 7.28984 147.607 7.28984C146.633 7.28984 145.862 7.70032 145.293 8.52235L143.755 7.55519C144.603 6.34217 145.855 5.73566 147.513 5.73566" fill="white"/>
<path id="Fill 5" fill-rule="evenodd" clip-rule="evenodd" d="M161.269 6.03894L155.443 19.4201H153.641L155.804 14.738L151.971 6.03894H153.869L156.639 12.7106H156.677L159.371 6.03894H161.269Z" fill="white"/>
</g>
<g id="G">
<path id="Fill 8" fill-rule="evenodd" clip-rule="evenodd" d="M129.303 8.64473C129.303 8.09563 129.256 7.56601 129.168 7.05914H121.806V10.0625H126.023C125.842 11.0414 125.294 11.8744 124.464 12.4322V14.3828H126.98C128.454 13.0246 129.303 11.0177 129.303 8.64473" fill="#4285F4"/>
<path id="Fill 10" fill-rule="evenodd" clip-rule="evenodd" d="M121.806 16.2651C123.913 16.2651 125.687 15.5741 126.98 14.3828L124.464 12.4322C123.763 12.9033 122.861 13.1784 121.806 13.1784C119.77 13.1784 118.042 11.8073 117.424 9.95959H114.832V11.9687C116.116 14.516 118.757 16.2651 121.806 16.2651" fill="#34A853"/>
<path id="Fill 12" fill-rule="evenodd" clip-rule="evenodd" d="M117.424 9.9596C117.266 9.48847 117.179 8.98593 117.179 8.46715C117.179 7.94837 117.266 7.44583 117.424 6.9747V4.96564H114.832C114.3 6.01837 114 7.20756 114 8.46715C114 9.72674 114.3 10.916 114.832 11.9687L117.424 9.9596Z" fill="#FABB05"/>
<path id="Fill 14" fill-rule="evenodd" clip-rule="evenodd" d="M121.806 3.75583C122.957 3.75583 123.988 4.15115 124.801 4.92553V4.92661L127.029 2.70094C125.676 1.44243 123.912 0.669128 121.806 0.669128C118.757 0.669128 116.116 2.41826 114.832 4.9656L117.424 6.97467C118.042 5.12698 119.77 3.75583 121.806 3.75583" fill="#E94235"/>
</g>
</g>
</g>
</g>
</svg>
