<svg width="161" height="21" viewBox="0 0 161 21" fill="none" xmlns="http://www.w3.org/2000/svg">
<g id="fr_buy_with_Pay_NBG">
<path id="Left Text" d="M0.855623 15.0006L5.17562 3.54461H7.17562L11.5116 15.0006H9.57562L8.51962 12.0566H3.84762L2.79162 15.0006H0.855623ZM7.92762 10.4246L6.66362 6.92061L6.23162 5.60861H6.13562L5.70362 6.92061L4.43962 10.4246H7.92762ZM16.4559 15.2566C15.6345 15.2566 14.9039 15.0699 14.2639 14.6966C13.6345 14.3233 13.1385 13.8113 12.7759 13.1606C12.4239 12.4993 12.2479 11.7526 12.2479 10.9206C12.2479 10.0886 12.4239 9.34728 12.7759 8.69661C13.1385 8.04594 13.6345 7.53394 14.2639 7.16061C14.9039 6.77661 15.6345 6.58461 16.4559 6.58461C17.3625 6.58461 18.1252 6.78728 18.7439 7.19261C19.3732 7.59794 19.8212 8.14728 20.0879 8.84061L18.5199 9.48061C18.3279 9.04328 18.0505 8.71794 17.6879 8.50461C17.3359 8.28061 16.9145 8.16861 16.4239 8.16861C15.9759 8.16861 15.5652 8.28594 15.1919 8.52061C14.8185 8.74461 14.5199 9.05928 14.2959 9.46461C14.0719 9.86994 13.9599 10.3553 13.9599 10.9206C13.9599 11.4753 14.0719 11.9606 14.2959 12.3766C14.5199 12.7926 14.8185 13.1126 15.1919 13.3366C15.5652 13.5606 15.9759 13.6726 16.4239 13.6726C16.9465 13.6726 17.3892 13.5553 17.7519 13.3206C18.1145 13.0859 18.3972 12.7553 18.5999 12.3286L20.1359 13.0006C19.8372 13.6513 19.3732 14.1899 18.7439 14.6166C18.1252 15.0433 17.3625 15.2566 16.4559 15.2566ZM21.7674 15.0006V3.54461H23.4954V6.68061L23.3994 7.96061H23.4954C23.7194 7.56594 24.0607 7.24061 24.5194 6.98461C24.9887 6.71794 25.506 6.58461 26.0714 6.58461C26.754 6.58461 27.3194 6.72328 27.7674 7.00061C28.226 7.27794 28.5674 7.66194 28.7914 8.15261C29.0154 8.63261 29.1274 9.19794 29.1274 9.84861V15.0006H27.4154V10.0726C27.4154 9.63528 27.33 9.27794 27.1594 9.00061C26.9994 8.72328 26.786 8.51528 26.5194 8.37661C26.2527 8.23794 25.954 8.16861 25.6234 8.16861C25.2074 8.16861 24.8394 8.28594 24.5194 8.52061C24.1994 8.75528 23.9487 9.06461 23.7674 9.44861C23.586 9.82194 23.4954 10.2219 23.4954 10.6486V15.0006H21.7674ZM34.9735 15.2566C34.1735 15.2566 33.4588 15.0699 32.8295 14.6966C32.2002 14.3233 31.7042 13.8113 31.3415 13.1606C30.9895 12.5099 30.8135 11.7686 30.8135 10.9366C30.8135 10.1579 30.9842 9.43794 31.3255 8.77661C31.6668 8.11528 32.1415 7.58728 32.7495 7.19261C33.3682 6.78728 34.0775 6.58461 34.8775 6.58461C35.7202 6.58461 36.4348 6.76594 37.0215 7.12861C37.6188 7.49128 38.0722 7.98728 38.3815 8.61661C38.6908 9.24594 38.8455 9.95528 38.8455 10.7446C38.8455 10.8619 38.8402 10.9686 38.8295 11.0646C38.8295 11.1606 38.8242 11.2353 38.8135 11.2886H32.5095C32.5522 11.7366 32.6642 12.1259 32.8455 12.4566C33.0802 12.8726 33.3895 13.1873 33.7735 13.4006C34.1575 13.6139 34.5735 13.7206 35.0215 13.7206C35.5655 13.7206 36.0188 13.5979 36.3815 13.3526C36.7548 13.0966 37.0482 12.7819 37.2615 12.4086L38.6855 13.0966C38.3335 13.7366 37.8535 14.2593 37.2455 14.6646C36.6375 15.0593 35.8802 15.2566 34.9735 15.2566ZM32.6055 9.99261H37.1335C37.1228 9.78994 37.0695 9.57661 36.9735 9.35261C36.8775 9.11794 36.7388 8.90461 36.5575 8.71261C36.3762 8.52061 36.1468 8.36594 35.8695 8.24861C35.5922 8.12061 35.2668 8.05661 34.8935 8.05661C34.4242 8.05661 34.0082 8.17928 33.6455 8.42461C33.2828 8.65928 33.0002 8.98994 32.7975 9.41661C32.7122 9.59794 32.6482 9.78994 32.6055 9.99261ZM39.8042 6.84061H41.2282V4.53661H42.9562V6.84061H44.9562V8.34461H42.9562V12.2646C42.9562 12.6699 43.0362 12.9793 43.1962 13.1926C43.3669 13.4059 43.6496 13.5126 44.0442 13.5126C44.2362 13.5126 44.4069 13.4859 44.5562 13.4326C44.7056 13.3686 44.8549 13.2939 45.0042 13.2086V14.8886C44.8229 14.9633 44.6309 15.0219 44.4282 15.0646C44.2256 15.1073 43.9856 15.1286 43.7082 15.1286C42.9509 15.1286 42.3482 14.9099 41.9002 14.4726C41.4522 14.0246 41.2282 13.4113 41.2282 12.6326V8.34461H39.8042V6.84061ZM50.1797 15.2566C49.3797 15.2566 48.6651 15.0699 48.0357 14.6966C47.4064 14.3233 46.9104 13.8113 46.5477 13.1606C46.1957 12.5099 46.0197 11.7686 46.0197 10.9366C46.0197 10.1579 46.1904 9.43794 46.5317 8.77661C46.8731 8.11528 47.3477 7.58728 47.9557 7.19261C48.5744 6.78728 49.2837 6.58461 50.0837 6.58461C50.9264 6.58461 51.6411 6.76594 52.2277 7.12861C52.8251 7.49128 53.2784 7.98728 53.5877 8.61661C53.8971 9.24594 54.0517 9.95528 54.0517 10.7446C54.0517 10.8619 54.0464 10.9686 54.0357 11.0646C54.0357 11.1606 54.0304 11.2353 54.0197 11.2886H47.7157C47.7584 11.7366 47.8704 12.1259 48.0517 12.4566C48.2864 12.8726 48.5957 13.1873 48.9797 13.4006C49.3637 13.6139 49.7797 13.7206 50.2277 13.7206C50.7717 13.7206 51.2251 13.5979 51.5877 13.3526C51.9611 13.0966 52.2544 12.7819 52.4677 12.4086L53.8917 13.0966C53.5397 13.7366 53.0597 14.2593 52.4517 14.6646C51.8437 15.0593 51.0864 15.2566 50.1797 15.2566ZM47.8117 9.99261H52.3397C52.3291 9.78994 52.2757 9.57661 52.1797 9.35261C52.0837 9.11794 51.9451 8.90461 51.7637 8.71261C51.5824 8.52061 51.3531 8.36594 51.0757 8.24861C50.7984 8.12061 50.4731 8.05661 50.0997 8.05661C49.6304 8.05661 49.2144 8.17928 48.8517 8.42461C48.4891 8.65928 48.2064 8.98994 48.0037 9.41661C47.9184 9.59794 47.8544 9.78994 47.8117 9.99261ZM55.8049 15.0006V6.84061H57.4369V8.04061H57.5329C57.6609 7.76328 57.8422 7.51794 58.0769 7.30461C58.3222 7.09128 58.5995 6.92061 58.9089 6.79261C59.2289 6.66461 59.5595 6.60061 59.9009 6.60061C60.1249 6.60061 60.3115 6.61661 60.4609 6.64861C60.6209 6.66994 60.7649 6.70728 60.8929 6.76061V8.55261C60.6902 8.46728 60.4822 8.39794 60.2689 8.34461C60.0662 8.29128 59.8529 8.26461 59.6289 8.26461C59.2235 8.26461 58.8609 8.37661 58.5409 8.60061C58.2315 8.81394 57.9862 9.10194 57.8049 9.46461C57.6235 9.82728 57.5329 10.2326 57.5329 10.6806V15.0006H55.8049ZM68.8211 15.2566C68.2345 15.2566 67.7118 15.1393 67.2531 14.9046C66.8051 14.6699 66.4478 14.3499 66.1811 13.9446C65.9251 13.5286 65.7971 13.0539 65.7971 12.5206C65.7971 11.9339 65.9465 11.4379 66.2451 11.0326C66.5545 10.6273 66.9651 10.3179 67.4771 10.1046C67.9891 9.89128 68.5545 9.78461 69.1731 9.78461C69.5145 9.78461 69.8291 9.81128 70.1171 9.86461C70.4158 9.90728 70.6718 9.96061 70.8851 10.0246C71.1091 10.0886 71.2851 10.1579 71.4131 10.2326V9.80061C71.4131 9.26728 71.2211 8.84061 70.8371 8.52061C70.4531 8.20061 69.9571 8.04061 69.3491 8.04061C68.9331 8.04061 68.5385 8.13661 68.1651 8.32861C67.7918 8.50994 67.4931 8.76061 67.2691 9.08061L66.0851 8.16861C66.3198 7.83794 66.6025 7.55528 66.9331 7.32061C67.2745 7.08594 67.6531 6.90461 68.0691 6.77661C68.4958 6.64861 68.9385 6.58461 69.3971 6.58461C70.5811 6.58461 71.4931 6.87794 72.1331 7.46461C72.7731 8.04061 73.0931 8.85128 73.0931 9.89661V15.0006H71.4131V13.9926H71.3171C71.1785 14.2059 70.9865 14.4086 70.7411 14.6006C70.5065 14.7926 70.2238 14.9473 69.8931 15.0646C69.5731 15.1926 69.2158 15.2566 68.8211 15.2566ZM69.1251 13.8486C69.5731 13.8486 69.9678 13.7419 70.3091 13.5286C70.6611 13.3153 70.9331 13.0379 71.1251 12.6966C71.3171 12.3446 71.4131 11.9659 71.4131 11.5606C71.1785 11.4219 70.8905 11.3099 70.5491 11.2246C70.2185 11.1286 69.8665 11.0806 69.4931 11.0806C68.7891 11.0806 68.2878 11.2193 67.9891 11.4966C67.6905 11.7739 67.5411 12.1206 67.5411 12.5366C67.5411 12.9206 67.6851 13.2353 67.9731 13.4806C68.2611 13.7259 68.6451 13.8486 69.1251 13.8486ZM77.4692 15.0006L74.0932 6.84061H76.0132L78.3012 12.7766H78.3812L80.7172 6.84061H82.6052L79.1972 15.0006H77.4692ZM87.3672 15.2566C86.5672 15.2566 85.8526 15.0699 85.2232 14.6966C84.5939 14.3233 84.0979 13.8113 83.7352 13.1606C83.3832 12.5099 83.2072 11.7686 83.2072 10.9366C83.2072 10.1579 83.3779 9.43794 83.7192 8.77661C84.0606 8.11528 84.5352 7.58728 85.1432 7.19261C85.7619 6.78728 86.4712 6.58461 87.2712 6.58461C88.1139 6.58461 88.8286 6.76594 89.4152 7.12861C90.0126 7.49128 90.4659 7.98728 90.7752 8.61661C91.0846 9.24594 91.2392 9.95528 91.2392 10.7446C91.2392 10.8619 91.2339 10.9686 91.2232 11.0646C91.2232 11.1606 91.2179 11.2353 91.2072 11.2886H84.9032C84.9459 11.7366 85.0579 12.1259 85.2392 12.4566C85.4739 12.8726 85.7832 13.1873 86.1672 13.4006C86.5512 13.6139 86.9672 13.7206 87.4152 13.7206C87.9592 13.7206 88.4126 13.5979 88.7752 13.3526C89.1486 13.0966 89.4419 12.7819 89.6552 12.4086L91.0792 13.0966C90.7272 13.7366 90.2472 14.2593 89.6392 14.6646C89.0312 15.0593 88.2739 15.2566 87.3672 15.2566ZM84.9992 9.99261H89.5272C89.5166 9.78994 89.4632 9.57661 89.3672 9.35261C89.2712 9.11794 89.1326 8.90461 88.9512 8.71261C88.7699 8.52061 88.5406 8.36594 88.2632 8.24861C87.9859 8.12061 87.6606 8.05661 87.2872 8.05661C86.8179 8.05661 86.4019 8.17928 86.0392 8.42461C85.6766 8.65928 85.3939 8.98994 85.1912 9.41661C85.1059 9.59794 85.0419 9.78994 84.9992 9.99261ZM96.8465 15.2566C96.0252 15.2566 95.2945 15.0699 94.6545 14.6966C94.0252 14.3233 93.5292 13.8113 93.1665 13.1606C92.8145 12.4993 92.6385 11.7526 92.6385 10.9206C92.6385 10.0886 92.8145 9.34728 93.1665 8.69661C93.5292 8.04594 94.0252 7.53394 94.6545 7.16061C95.2945 6.77661 96.0252 6.58461 96.8465 6.58461C97.7532 6.58461 98.5158 6.78728 99.1345 7.19261C99.7638 7.59794 100.212 8.14728 100.479 8.84061L98.9105 9.48061C98.7185 9.04328 98.4412 8.71794 98.0785 8.50461C97.7265 8.28061 97.3052 8.16861 96.8145 8.16861C96.3665 8.16861 95.9558 8.28594 95.5825 8.52061C95.2092 8.74461 94.9105 9.05928 94.6865 9.46461C94.4625 9.86994 94.3505 10.3553 94.3505 10.9206C94.3505 11.4753 94.4625 11.9606 94.6865 12.3766C94.9105 12.7926 95.2092 13.1126 95.5825 13.3366C95.9558 13.5606 96.3665 13.6726 96.8145 13.6726C97.3372 13.6726 97.7798 13.5553 98.1425 13.3206C98.5052 13.0859 98.7878 12.7553 98.9905 12.3286L100.527 13.0006C100.228 13.6513 99.7638 14.1899 99.1345 14.6166C98.5158 15.0433 97.7532 15.2566 96.8465 15.2566Z" fill="white"/>
<g id="GPay (Dark)">
<g id="GPay">
<g id="Pay">
<path id="Fill 1" fill-rule="evenodd" clip-rule="evenodd" d="M129.356 3.42339V8.16175H132.278C132.974 8.16175 133.55 7.92781 134.005 7.45993C134.473 6.99313 134.707 6.43644 134.707 5.79203C134.707 5.16061 134.473 4.61041 134.005 4.14254C133.55 3.66274 132.974 3.4223 132.278 3.4223H129.356V3.42339ZM129.356 9.82966V15.3262H127.611V1.75549H132.24C133.417 1.75549 134.415 2.14756 135.238 2.93061C136.073 3.71365 136.491 4.66782 136.491 5.79203C136.491 6.94224 136.073 7.90291 135.238 8.67296C134.428 9.44409 133.429 9.82858 132.24 9.82858H129.356V9.82966Z" fill="white"/>
<path id="Fill 3" fill-rule="evenodd" clip-rule="evenodd" d="M138.255 12.4831C138.255 12.9379 138.448 13.317 138.834 13.6203C139.22 13.9235 139.672 14.0752 140.19 14.0752C140.924 14.0752 141.578 13.8032 142.153 13.2607C142.729 12.717 143.017 12.0791 143.017 11.3469C142.472 10.917 141.713 10.7025 140.74 10.7025C140.031 10.7025 139.44 10.8736 138.966 11.2148C138.492 11.5559 138.255 11.9773 138.255 12.4831M140.513 5.73566C141.803 5.73566 142.821 6.08007 143.569 6.76889C144.314 7.45771 144.687 8.40213 144.687 9.60216V15.3261H143.018V14.0373H142.942C142.221 15.0985 141.259 15.6294 140.058 15.6294C139.033 15.6294 138.176 15.3261 137.487 14.7196C136.797 14.1131 136.453 13.3549 136.453 12.4452C136.453 11.4845 136.816 10.7208 137.543 10.1523C138.271 9.58375 139.241 9.2989 140.456 9.2989C141.492 9.2989 142.346 9.48844 143.017 9.86751V9.46894C143.017 8.86243 142.776 8.34798 142.296 7.92451C141.814 7.50103 141.252 7.28984 140.607 7.28984C139.633 7.28984 138.862 7.70032 138.293 8.52235L136.755 7.55519C137.603 6.34217 138.855 5.73566 140.513 5.73566" fill="white"/>
<path id="Fill 5" fill-rule="evenodd" clip-rule="evenodd" d="M154.269 6.03894L148.443 19.4201H146.641L148.804 14.738L144.971 6.03894H146.869L149.639 12.7106H149.677L152.371 6.03894H154.269Z" fill="white"/>
</g>
<g id="G">
<path id="Fill 8" fill-rule="evenodd" clip-rule="evenodd" d="M122.303 8.64473C122.303 8.09563 122.256 7.56601 122.168 7.05914H114.806V10.0625H119.023C118.842 11.0414 118.294 11.8744 117.464 12.4322V14.3828H119.98C121.454 13.0246 122.303 11.0177 122.303 8.64473" fill="#4285F4"/>
<path id="Fill 10" fill-rule="evenodd" clip-rule="evenodd" d="M114.806 16.2651C116.913 16.2651 118.687 15.5741 119.98 14.3828L117.464 12.4322C116.763 12.9033 115.861 13.1784 114.806 13.1784C112.77 13.1784 111.042 11.8073 110.424 9.95959H107.832V11.9687C109.116 14.516 111.757 16.2651 114.806 16.2651" fill="#34A853"/>
<path id="Fill 12" fill-rule="evenodd" clip-rule="evenodd" d="M110.424 9.9596C110.266 9.48847 110.179 8.98593 110.179 8.46715C110.179 7.94837 110.266 7.44583 110.424 6.9747V4.96564H107.832C107.3 6.01837 107 7.20756 107 8.46715C107 9.72674 107.3 10.916 107.832 11.9687L110.424 9.9596Z" fill="#FABB05"/>
<path id="Fill 14" fill-rule="evenodd" clip-rule="evenodd" d="M114.806 3.75583C115.957 3.75583 116.988 4.15115 117.801 4.92553V4.92661L120.029 2.70094C118.676 1.44243 116.912 0.669128 114.806 0.669128C111.757 0.669128 109.116 2.41826 107.832 4.9656L110.424 6.97467C111.042 5.12698 112.77 3.75583 114.806 3.75583" fill="#E94235"/>
</g>
</g>
</g>
</g>
</svg>
