<svg width="240" height="38" viewBox="0 0 240 38" fill="none" xmlns="http://www.w3.org/2000/svg">
<g id="fr_checkout_with_Dark">
<path id="Text" d="M4.00941 30V9.952H10.8974C12.1107 9.952 13.2121 10.2133 14.2014 10.736C15.1907 11.2587 15.9747 11.9773 16.5534 12.892C17.1507 13.8067 17.4494 14.8707 17.4494 16.084C17.4494 17.2973 17.1507 18.3707 16.5534 19.304C15.9747 20.2187 15.1907 20.9373 14.2014 21.46C13.2121 21.964 12.1107 22.216 10.8974 22.216H7.08941V30H4.00941ZM10.9814 12.864H7.08941V19.304H10.9814C11.7094 19.304 12.3254 19.1547 12.8294 18.856C13.3334 18.5387 13.7161 18.1373 13.9774 17.652C14.2574 17.148 14.3974 16.6253 14.3974 16.084C14.3974 15.5427 14.2574 15.0293 13.9774 14.544C13.7161 14.0587 13.3334 13.6573 12.8294 13.34C12.3254 13.0227 11.7094 12.864 10.9814 12.864ZM24.3362 30.448C23.3095 30.448 22.3949 30.252 21.5922 29.86C20.7895 29.4493 20.1642 28.88 19.7162 28.152C19.2682 27.424 19.0442 26.5933 19.0442 25.66C19.0442 24.652 19.3055 23.7933 19.8282 23.084C20.3695 22.356 21.0882 21.8053 21.9842 21.432C22.8802 21.0587 23.8695 20.872 24.9522 20.872C25.8482 20.872 26.6322 20.956 27.3042 21.124C27.9949 21.292 28.5175 21.4693 28.8722 21.656V20.9C28.8722 19.9667 28.5362 19.22 27.8642 18.66C27.1922 18.1 26.3242 17.82 25.2602 17.82C24.5322 17.82 23.8415 17.988 23.1882 18.324C22.5349 18.6413 22.0122 19.08 21.6202 19.64L19.5482 18.044C20.1642 17.1853 20.9762 16.5133 21.9842 16.028C23.0109 15.524 24.1309 15.272 25.3442 15.272C27.4162 15.272 29.0122 15.7853 30.1322 16.812C31.2522 17.82 31.8122 19.2387 31.8122 21.068V30H28.8722V28.236H28.7042C28.3309 28.8147 27.7709 29.328 27.0242 29.776C26.2775 30.224 25.3815 30.448 24.3362 30.448ZM24.8682 27.984C25.6522 27.984 26.3429 27.7973 26.9402 27.424C27.5375 27.0507 28.0042 26.5653 28.3402 25.968C28.6949 25.352 28.8722 24.6893 28.8722 23.98C28.4429 23.7373 27.9389 23.5413 27.3602 23.392C26.7815 23.224 26.1655 23.14 25.5122 23.14C24.2802 23.14 23.4029 23.392 22.8802 23.896C22.3575 24.3813 22.0962 24.9787 22.0962 25.688C22.0962 26.36 22.3482 26.9107 22.8522 27.34C23.3562 27.7693 24.0282 27.984 24.8682 27.984ZM40.0399 35.348C39.9839 35.4973 39.9186 35.6373 39.8439 35.768C39.7879 35.8987 39.7506 35.992 39.7319 36.048H36.5119C36.6052 35.8427 36.7359 35.544 36.9039 35.152C37.0906 34.7787 37.2679 34.4147 37.4359 34.06C37.6039 33.7053 37.7812 33.304 37.9679 32.856C38.1732 32.408 38.3786 31.9693 38.5839 31.54L39.6479 29.216L33.6839 15.72H37.0439L41.1319 25.464H41.2719L45.2199 15.72H48.5519L41.1599 32.744C40.9546 33.2293 40.7306 33.7333 40.4879 34.256C40.2639 34.7973 40.1146 35.1613 40.0399 35.348ZM56.8396 30.448C55.4396 30.448 54.1889 30.1213 53.0876 29.468C51.9862 28.8147 51.1182 27.9187 50.4836 26.78C49.8676 25.6413 49.5596 24.344 49.5596 22.888C49.5596 21.5253 49.8582 20.2653 50.4556 19.108C51.0529 17.9507 51.8836 17.0267 52.9476 16.336C54.0302 15.6267 55.2716 15.272 56.6716 15.272C58.1462 15.272 59.3969 15.5893 60.4236 16.224C61.4689 16.8587 62.2622 17.7267 62.8036 18.828C63.3449 19.9293 63.6156 21.1707 63.6156 22.552C63.6156 22.7573 63.6062 22.944 63.5876 23.112C63.5876 23.28 63.5782 23.4107 63.5596 23.504H52.5276C52.6769 24.9227 53.1716 25.9867 54.0116 26.696C54.8702 27.4053 55.8409 27.76 56.9236 27.76C57.8942 27.76 58.6969 27.5453 59.3316 27.116C59.9662 26.668 60.4702 26.1173 60.8436 25.464L63.3356 26.668C62.7196 27.788 61.8796 28.7027 60.8156 29.412C59.7516 30.1027 58.4262 30.448 56.8396 30.448ZM56.6996 17.848C55.6916 17.848 54.8329 18.156 54.1236 18.772C53.4142 19.388 52.9382 20.2093 52.6956 21.236H60.6196C60.5822 20.7507 60.4236 20.2467 60.1436 19.724C59.8636 19.2013 59.4342 18.7627 58.8556 18.408C58.2956 18.0347 57.5769 17.848 56.6996 17.848ZM66.721 30V15.72H69.577V17.82H69.745C70.0624 17.092 70.6037 16.4947 71.369 16.028C72.153 15.5427 72.993 15.3 73.889 15.3C74.281 15.3 74.6077 15.328 74.869 15.384C75.149 15.44 75.401 15.5053 75.625 15.58V18.716C75.2704 18.5667 74.9064 18.4453 74.533 18.352C74.1784 18.2587 73.805 18.212 73.413 18.212C72.7037 18.212 72.069 18.408 71.509 18.8C70.9677 19.1733 70.5384 19.6867 70.221 20.34C69.9037 20.9747 69.745 21.6747 69.745 22.44V30H66.721ZM89.5745 30.448C88.5478 30.448 87.6331 30.252 86.8305 29.86C86.0278 29.4493 85.4025 28.88 84.9545 28.152C84.5065 27.424 84.2825 26.5933 84.2825 25.66C84.2825 24.652 84.5438 23.7933 85.0665 23.084C85.6078 22.356 86.3265 21.8053 87.2225 21.432C88.1185 21.0587 89.1078 20.872 90.1905 20.872C91.0865 20.872 91.8705 20.956 92.5425 21.124C93.2331 21.292 93.7558 21.4693 94.1105 21.656V20.9C94.1105 19.9667 93.7745 19.22 93.1025 18.66C92.4305 18.1 91.5625 17.82 90.4985 17.82C89.7705 17.82 89.0798 17.988 88.4265 18.324C87.7731 18.6413 87.2505 19.08 86.8585 19.64L84.7865 18.044C85.4025 17.1853 86.2145 16.5133 87.2225 16.028C88.2491 15.524 89.3691 15.272 90.5825 15.272C92.6545 15.272 94.2505 15.7853 95.3705 16.812C96.4905 17.82 97.0505 19.2387 97.0505 21.068V30H94.1105V28.236H93.9425C93.5691 28.8147 93.0091 29.328 92.2625 29.776C91.5158 30.224 90.6198 30.448 89.5745 30.448ZM90.1065 27.984C90.8905 27.984 91.5811 27.7973 92.1785 27.424C92.7758 27.0507 93.2425 26.5653 93.5785 25.968C93.9331 25.352 94.1105 24.6893 94.1105 23.98C93.6811 23.7373 93.1771 23.5413 92.5985 23.392C92.0198 23.224 91.4038 23.14 90.7505 23.14C89.5185 23.14 88.6411 23.392 88.1185 23.896C87.5958 24.3813 87.3345 24.9787 87.3345 25.688C87.3345 26.36 87.5865 26.9107 88.0905 27.34C88.5945 27.7693 89.2665 27.984 90.1065 27.984ZM104.746 30L98.8382 15.72H102.198L106.202 26.108H106.342L110.43 15.72H113.734L107.77 30H104.746ZM122.105 30.448C120.705 30.448 119.455 30.1213 118.353 29.468C117.252 28.8147 116.384 27.9187 115.749 26.78C115.133 25.6413 114.825 24.344 114.825 22.888C114.825 21.5253 115.124 20.2653 115.721 19.108C116.319 17.9507 117.149 17.0267 118.213 16.336C119.296 15.6267 120.537 15.272 121.937 15.272C123.412 15.272 124.663 15.5893 125.689 16.224C126.735 16.8587 127.528 17.7267 128.069 18.828C128.611 19.9293 128.881 21.1707 128.881 22.552C128.881 22.7573 128.872 22.944 128.853 23.112C128.853 23.28 128.844 23.4107 128.825 23.504H117.793C117.943 24.9227 118.437 25.9867 119.277 26.696C120.136 27.4053 121.107 27.76 122.189 27.76C123.16 27.76 123.963 27.5453 124.597 27.116C125.232 26.668 125.736 26.1173 126.109 25.464L128.601 26.668C127.985 27.788 127.145 28.7027 126.081 29.412C125.017 30.1027 123.692 30.448 122.105 30.448ZM121.965 17.848C120.957 17.848 120.099 18.156 119.389 18.772C118.68 19.388 118.204 20.2093 117.961 21.236H125.885C125.848 20.7507 125.689 20.2467 125.409 19.724C125.129 19.2013 124.7 18.7627 124.121 18.408C123.561 18.0347 122.843 17.848 121.965 17.848ZM138.731 30.448C137.294 30.448 136.025 30.1213 134.923 29.468C133.822 28.8147 132.954 27.9187 132.319 26.78C131.685 25.6227 131.367 24.316 131.367 22.86C131.367 21.404 131.685 20.1067 132.319 18.968C132.954 17.8107 133.822 16.9053 134.923 16.252C136.025 15.5987 137.294 15.272 138.731 15.272C140.318 15.272 141.653 15.6267 142.735 16.336C143.837 17.0453 144.621 18.0067 145.087 19.22L142.343 20.34C141.69 18.8093 140.467 18.044 138.675 18.044C137.891 18.044 137.173 18.2493 136.519 18.66C135.866 19.052 135.343 19.612 134.951 20.34C134.559 21.0493 134.363 21.8893 134.363 22.86C134.363 23.8307 134.559 24.68 134.951 25.408C135.343 26.136 135.866 26.696 136.519 27.088C137.173 27.48 137.891 27.676 138.675 27.676C139.59 27.676 140.365 27.4707 140.999 27.06C141.634 26.6307 142.129 26.052 142.483 25.324L145.171 26.5C144.667 27.6387 143.865 28.5813 142.763 29.328C141.662 30.0747 140.318 30.448 138.731 30.448Z" fill="white"/>
<g id="GPay Logo (Dark)">
<g id="GPay">
<g id="Pay">
<path id="Fill 1" fill-rule="evenodd" clip-rule="evenodd" d="M196.529 9.34665V17.5128H201.565C202.765 17.5128 203.757 17.1096 204.541 16.3032C205.347 15.4988 205.75 14.5394 205.75 13.4288C205.75 12.3406 205.347 11.3924 204.541 10.586C203.757 9.75916 202.765 9.34479 201.565 9.34479H196.529V9.34665ZM196.529 20.3872V29.8599H193.521V6.47218H201.499C203.527 6.47218 205.248 7.14787 206.666 8.49738C208.105 9.84688 208.824 11.4913 208.824 13.4288C208.824 15.411 208.105 17.0667 206.666 18.3938C205.27 19.7227 203.547 20.3854 201.499 20.3854H196.529V20.3872Z" fill="white"/>
<path id="Fill 3" fill-rule="evenodd" clip-rule="evenodd" d="M211.864 24.9602C211.864 25.7442 212.197 26.3975 212.862 26.9201C213.527 27.4427 214.306 27.704 215.2 27.704C216.465 27.704 217.591 27.2354 218.584 26.3004C219.576 25.3634 220.071 24.264 220.071 23.0022C219.133 22.2612 217.825 21.8916 216.147 21.8916C214.925 21.8916 213.907 22.1866 213.09 22.7745C212.273 23.3623 211.864 24.0886 211.864 24.9602ZM215.756 13.3317C217.98 13.3317 219.735 13.9253 221.022 15.1124C222.308 16.2995 222.95 17.9271 222.95 19.9952V29.8599H220.073V27.6387H219.942C218.699 29.4677 217.042 30.3825 214.972 30.3825C213.206 30.3825 211.728 29.8599 210.541 28.8146C209.353 27.7694 208.759 26.4628 208.759 24.8949C208.759 23.2393 209.385 21.9232 210.638 20.9434C211.892 19.9635 213.565 19.4726 215.658 19.4726C217.444 19.4726 218.916 19.7993 220.071 20.4525V19.7657C220.071 18.7204 219.656 17.8338 218.829 17.104C217.999 16.3742 217.031 16.0102 215.919 16.0102C214.239 16.0102 212.911 16.7176 211.93 18.1343L209.28 16.4675C210.741 14.377 212.899 13.3317 215.756 13.3317Z" fill="white"/>
<path id="Fill 5" fill-rule="evenodd" clip-rule="evenodd" d="M239.463 13.8543L229.424 36.9154H226.318L230.046 28.8464L223.44 13.8543H226.71L231.484 25.3522H231.55L236.193 13.8543H239.463Z" fill="white"/>
</g>
<g id="G">
<path id="Fill 8" fill-rule="evenodd" clip-rule="evenodd" d="M184.373 18.3452C184.373 17.3989 184.293 16.4861 184.141 15.6126H171.454V20.7885H178.72C178.408 22.4757 177.465 23.9112 176.033 24.8725V28.2341H180.37C182.91 25.8935 184.373 22.4348 184.373 18.3452Z" fill="#4285F4"/>
<path id="Fill 10" fill-rule="evenodd" clip-rule="evenodd" d="M171.454 31.4782C175.084 31.4782 178.141 30.2873 180.37 28.2341L176.033 24.8725C174.826 25.6844 173.272 26.1585 171.454 26.1585C167.944 26.1585 164.966 23.7955 163.901 20.6112H159.433V24.0736C161.647 28.4637 166.197 31.4782 171.454 31.4782Z" fill="#34A853"/>
<path id="Fill 12" fill-rule="evenodd" clip-rule="evenodd" d="M163.901 20.6111C163.628 19.7992 163.479 18.9331 163.479 18.0391C163.479 17.145 163.628 16.2789 163.901 15.467V12.0045H159.433C158.518 13.8188 158 15.8683 158 18.0391C158 20.2098 158.518 22.2595 159.433 24.0736L163.901 20.6111Z" fill="#FABB05"/>
<path id="Fill 14" fill-rule="evenodd" clip-rule="evenodd" d="M171.454 9.91964C173.436 9.91964 175.213 10.6009 176.615 11.9355V11.9374L180.455 8.10163C178.123 5.93272 175.082 4.60001 171.454 4.60001C166.197 4.60001 161.647 7.61447 159.433 12.0046L163.901 15.467C164.966 12.2827 167.944 9.91964 171.454 9.91964Z" fill="#E94235"/>
</g>
</g>
</g>
</g>
</svg>
