<svg width="143" height="21" viewBox="0 0 143 21" fill="none" xmlns="http://www.w3.org/2000/svg">
<g id="fr_checkout_with_Pay_NBG">
<path id="Left Text" d="M1.78038 15.0006V3.54461H5.79638C6.50038 3.54461 7.12971 3.69394 7.68438 3.99261C8.23904 4.29128 8.67638 4.70194 8.99638 5.22461C9.32704 5.74728 9.49238 6.35528 9.49238 7.04861C9.49238 7.50728 9.39638 7.94461 9.20438 8.36061C9.02304 8.77661 8.75638 9.14994 8.40438 9.48061C8.06304 9.80061 7.64704 10.0513 7.15638 10.2326C7.06038 10.2753 6.95904 10.3073 6.85238 10.3286L10.0204 14.9046V15.0006H7.98838L4.93238 10.5046H3.54038V15.0006H1.78038ZM3.54038 8.88861H5.74838C6.11104 8.88861 6.43638 8.80861 6.72438 8.64861C7.02304 8.48861 7.26304 8.26994 7.44438 7.99261C7.62571 7.70461 7.71638 7.38461 7.71638 7.03261C7.71638 6.72328 7.64171 6.42994 7.49238 6.15261C7.34304 5.86461 7.12438 5.63528 6.83638 5.46461C6.55904 5.28328 6.21771 5.19261 5.81238 5.19261H3.54038V8.88861ZM14.9797 15.2566C14.1797 15.2566 13.4651 15.0699 12.8357 14.6966C12.2064 14.3233 11.7104 13.8113 11.3477 13.1606C10.9957 12.5099 10.8197 11.7686 10.8197 10.9366C10.8197 10.1579 10.9904 9.43794 11.3317 8.77661C11.6731 8.11528 12.1477 7.58728 12.7557 7.19261C13.3744 6.78728 14.0837 6.58461 14.8837 6.58461C15.7264 6.58461 16.4411 6.76594 17.0278 7.12861C17.6251 7.49128 18.0784 7.98728 18.3877 8.61661C18.6971 9.24594 18.8518 9.95528 18.8518 10.7446C18.8518 10.8619 18.8464 10.9686 18.8357 11.0646C18.8357 11.1606 18.8304 11.2353 18.8197 11.2886H12.5157C12.5584 11.7366 12.6704 12.1259 12.8517 12.4566C13.0864 12.8726 13.3957 13.1873 13.7797 13.4006C14.1637 13.6139 14.5797 13.7206 15.0278 13.7206C15.5718 13.7206 16.0251 13.5979 16.3877 13.3526C16.7611 13.0966 17.0544 12.7819 17.2677 12.4086L18.6917 13.0966C18.3397 13.7366 17.8598 14.2593 17.2517 14.6646C16.6437 15.0593 15.8864 15.2566 14.9797 15.2566ZM12.6117 9.99261H17.1398C17.1291 9.78994 17.0757 9.57661 16.9798 9.35261C16.8838 9.11794 16.7451 8.90461 16.5637 8.71261C16.3824 8.52061 16.1531 8.36594 15.8758 8.24861C15.5984 8.12061 15.2731 8.05661 14.8997 8.05661C14.4304 8.05661 14.0144 8.17928 13.6517 8.42461C13.2891 8.65928 13.0064 8.98994 12.8037 9.41661C12.7184 9.59794 12.6544 9.78994 12.6117 9.99261ZM14.1797 5.27261L14.9317 3.22461H16.8837L15.6037 5.27261H14.1797ZM24.363 18.7126C23.6483 18.7126 23.0297 18.5953 22.507 18.3606C21.995 18.1366 21.579 17.8433 21.259 17.4806C20.939 17.1286 20.7097 16.7659 20.571 16.3926L22.171 15.7206C22.3417 16.1473 22.6137 16.4939 22.987 16.7606C23.371 17.0379 23.8297 17.1766 24.363 17.1766C25.1203 17.1766 25.7123 16.9526 26.139 16.5046C26.5657 16.0566 26.779 15.4219 26.779 14.6006V13.8166H26.683C26.427 14.1899 26.075 14.4939 25.627 14.7286C25.179 14.9633 24.6617 15.0806 24.075 15.0806C23.3817 15.0806 22.7417 14.9046 22.155 14.5526C21.579 14.2006 21.115 13.7099 20.763 13.0806C20.4217 12.4406 20.251 11.6939 20.251 10.8406C20.251 9.97661 20.4217 9.22994 20.763 8.60061C21.115 7.96061 21.579 7.46461 22.155 7.11261C22.7417 6.76061 23.3817 6.58461 24.075 6.58461C24.6617 6.58461 25.179 6.70194 25.627 6.93661C26.075 7.16061 26.427 7.46994 26.683 7.86461H26.779V6.84061H28.427V14.5686C28.427 15.4539 28.251 16.2059 27.899 16.8246C27.5577 17.4433 27.083 17.9126 26.475 18.2326C25.867 18.5526 25.163 18.7126 24.363 18.7126ZM24.379 13.5126C24.8057 13.5126 25.2003 13.4113 25.563 13.2086C25.9363 12.9953 26.2297 12.6913 26.443 12.2966C26.667 11.8913 26.779 11.4059 26.779 10.8406C26.779 10.2433 26.667 9.74728 26.443 9.35261C26.2297 8.95794 25.9363 8.65928 25.563 8.45661C25.2003 8.25394 24.8057 8.15261 24.379 8.15261C23.9523 8.15261 23.5523 8.25394 23.179 8.45661C22.8163 8.65928 22.523 8.96328 22.299 9.36861C22.075 9.76328 21.963 10.2539 21.963 10.8406C21.963 11.4166 22.075 11.9073 22.299 12.3126C22.523 12.7073 22.8163 13.0059 23.179 13.2086C23.5523 13.4113 23.9523 13.5126 24.379 13.5126ZM30.6146 15.0006V3.54461H32.3426V15.0006H30.6146ZM38.1797 15.2566C37.3797 15.2566 36.6651 15.0699 36.0357 14.6966C35.4064 14.3233 34.9104 13.8113 34.5477 13.1606C34.1957 12.5099 34.0197 11.7686 34.0197 10.9366C34.0197 10.1579 34.1904 9.43794 34.5317 8.77661C34.8731 8.11528 35.3477 7.58728 35.9557 7.19261C36.5744 6.78728 37.2837 6.58461 38.0837 6.58461C38.9264 6.58461 39.6411 6.76594 40.2277 7.12861C40.8251 7.49128 41.2784 7.98728 41.5877 8.61661C41.8971 9.24594 42.0517 9.95528 42.0517 10.7446C42.0517 10.8619 42.0464 10.9686 42.0357 11.0646C42.0357 11.1606 42.0304 11.2353 42.0197 11.2886H35.7157C35.7584 11.7366 35.8704 12.1259 36.0517 12.4566C36.2864 12.8726 36.5957 13.1873 36.9797 13.4006C37.3637 13.6139 37.7797 13.7206 38.2277 13.7206C38.7717 13.7206 39.2251 13.5979 39.5877 13.3526C39.9611 13.0966 40.2544 12.7819 40.4677 12.4086L41.8917 13.0966C41.5397 13.7366 41.0597 14.2593 40.4517 14.6646C39.8437 15.0593 39.0864 15.2566 38.1797 15.2566ZM35.8117 9.99261H40.3397C40.3291 9.78994 40.2757 9.57661 40.1797 9.35261C40.0837 9.11794 39.9451 8.90461 39.7637 8.71261C39.5824 8.52061 39.3531 8.36594 39.0757 8.24861C38.7984 8.12061 38.4731 8.05661 38.0997 8.05661C37.6304 8.05661 37.2144 8.17928 36.8517 8.42461C36.4891 8.65928 36.2064 8.98994 36.0037 9.41661C35.9184 9.59794 35.8544 9.78994 35.8117 9.99261ZM43.8049 15.0006V6.84061H45.4369V8.04061H45.5329C45.6609 7.76328 45.8422 7.51794 46.0769 7.30461C46.3222 7.09128 46.5995 6.92061 46.9089 6.79261C47.2289 6.66461 47.5595 6.60061 47.9009 6.60061C48.1249 6.60061 48.3115 6.61661 48.4609 6.64861C48.6209 6.66994 48.7649 6.70728 48.8929 6.76061V8.55261C48.6902 8.46728 48.4822 8.39794 48.2689 8.34461C48.0662 8.29128 47.8529 8.26461 47.6289 8.26461C47.2235 8.26461 46.8609 8.37661 46.5409 8.60061C46.2315 8.81394 45.9862 9.10194 45.8049 9.46461C45.6235 9.82728 45.5329 10.2326 45.5329 10.6806V15.0006H43.8049ZM56.8211 15.2566C56.2345 15.2566 55.7118 15.1393 55.2531 14.9046C54.8051 14.6699 54.4478 14.3499 54.1811 13.9446C53.9251 13.5286 53.7971 13.0539 53.7971 12.5206C53.7971 11.9339 53.9465 11.4379 54.2451 11.0326C54.5545 10.6273 54.9651 10.3179 55.4771 10.1046C55.9891 9.89128 56.5545 9.78461 57.1731 9.78461C57.5145 9.78461 57.8291 9.81128 58.1171 9.86461C58.4158 9.90728 58.6718 9.96061 58.8851 10.0246C59.1091 10.0886 59.2851 10.1579 59.4131 10.2326V9.80061C59.4131 9.26728 59.2211 8.84061 58.8371 8.52061C58.4531 8.20061 57.9571 8.04061 57.3491 8.04061C56.9331 8.04061 56.5385 8.13661 56.1651 8.32861C55.7918 8.50994 55.4931 8.76061 55.2691 9.08061L54.0851 8.16861C54.3198 7.83794 54.6025 7.55528 54.9331 7.32061C55.2745 7.08594 55.6531 6.90461 56.0691 6.77661C56.4958 6.64861 56.9385 6.58461 57.3971 6.58461C58.5811 6.58461 59.4931 6.87794 60.1331 7.46461C60.7731 8.04061 61.0931 8.85128 61.0931 9.89661V15.0006H59.4131V13.9926H59.3171C59.1785 14.2059 58.9865 14.4086 58.7411 14.6006C58.5065 14.7926 58.2238 14.9473 57.8931 15.0646C57.5731 15.1926 57.2158 15.2566 56.8211 15.2566ZM57.1251 13.8486C57.5731 13.8486 57.9678 13.7419 58.3091 13.5286C58.6611 13.3153 58.9331 13.0379 59.1251 12.6966C59.3171 12.3446 59.4131 11.9659 59.4131 11.5606C59.1785 11.4219 58.8905 11.3099 58.5491 11.2246C58.2185 11.1286 57.8665 11.0806 57.4931 11.0806C56.7891 11.0806 56.2878 11.2193 55.9891 11.4966C55.6905 11.7739 55.5411 12.1206 55.5411 12.5366C55.5411 12.9206 55.6851 13.2353 55.9731 13.4806C56.2611 13.7259 56.6451 13.8486 57.1251 13.8486ZM65.4693 15.0006L62.0933 6.84061H64.0133L66.3013 12.7766H66.3813L68.7173 6.84061H70.6053L67.1973 15.0006H65.4693ZM75.3672 15.2566C74.5672 15.2566 73.8526 15.0699 73.2232 14.6966C72.5939 14.3233 72.0979 13.8113 71.7352 13.1606C71.3832 12.5099 71.2072 11.7686 71.2072 10.9366C71.2072 10.1579 71.3779 9.43794 71.7192 8.77661C72.0606 8.11528 72.5352 7.58728 73.1432 7.19261C73.7619 6.78728 74.4712 6.58461 75.2712 6.58461C76.1139 6.58461 76.8286 6.76594 77.4152 7.12861C78.0126 7.49128 78.4659 7.98728 78.7752 8.61661C79.0846 9.24594 79.2392 9.95528 79.2392 10.7446C79.2392 10.8619 79.2339 10.9686 79.2232 11.0646C79.2232 11.1606 79.2179 11.2353 79.2072 11.2886H72.9032C72.9459 11.7366 73.0579 12.1259 73.2392 12.4566C73.4739 12.8726 73.7832 13.1873 74.1672 13.4006C74.5512 13.6139 74.9672 13.7206 75.4152 13.7206C75.9592 13.7206 76.4126 13.5979 76.7752 13.3526C77.1486 13.0966 77.4419 12.7819 77.6552 12.4086L79.0792 13.0966C78.7272 13.7366 78.2472 14.2593 77.6392 14.6646C77.0312 15.0593 76.2739 15.2566 75.3672 15.2566ZM72.9992 9.99261H77.5272C77.5166 9.78994 77.4632 9.57661 77.3672 9.35261C77.2712 9.11794 77.1326 8.90461 76.9512 8.71261C76.7699 8.52061 76.5406 8.36594 76.2632 8.24861C75.9859 8.12061 75.6606 8.05661 75.2872 8.05661C74.8179 8.05661 74.4019 8.17928 74.0392 8.42461C73.6766 8.65928 73.3939 8.98994 73.1912 9.41661C73.1059 9.59794 73.0419 9.78994 72.9992 9.99261ZM84.8465 15.2566C84.0252 15.2566 83.2945 15.0699 82.6545 14.6966C82.0252 14.3233 81.5292 13.8113 81.1665 13.1606C80.8145 12.4993 80.6385 11.7526 80.6385 10.9206C80.6385 10.0886 80.8145 9.34728 81.1665 8.69661C81.5292 8.04594 82.0252 7.53394 82.6545 7.16061C83.2945 6.77661 84.0252 6.58461 84.8465 6.58461C85.7532 6.58461 86.5158 6.78728 87.1345 7.19261C87.7638 7.59794 88.2118 8.14728 88.4785 8.84061L86.9105 9.48061C86.7185 9.04328 86.4412 8.71794 86.0785 8.50461C85.7265 8.28061 85.3052 8.16861 84.8145 8.16861C84.3665 8.16861 83.9558 8.28594 83.5825 8.52061C83.2092 8.74461 82.9105 9.05928 82.6865 9.46461C82.4625 9.86994 82.3505 10.3553 82.3505 10.9206C82.3505 11.4753 82.4625 11.9606 82.6865 12.3766C82.9105 12.7926 83.2092 13.1126 83.5825 13.3366C83.9558 13.5606 84.3665 13.6726 84.8145 13.6726C85.3372 13.6726 85.7798 13.5553 86.1425 13.3206C86.5052 13.0859 86.7878 12.7553 86.9905 12.3286L88.5265 13.0006C88.2278 13.6513 87.7638 14.1899 87.1345 14.6166C86.5158 15.0433 85.7532 15.2566 84.8465 15.2566Z" fill="white"/>
<g id="GPay (Dark)">
<g id="GPay">
<g id="Pay">
<path id="Fill 1" fill-rule="evenodd" clip-rule="evenodd" d="M117.356 3.42339V8.16175H120.278C120.974 8.16175 121.55 7.92781 122.005 7.45993C122.473 6.99313 122.707 6.43644 122.707 5.79203C122.707 5.16061 122.473 4.61041 122.005 4.14254C121.55 3.66274 120.974 3.4223 120.278 3.4223H117.356V3.42339ZM117.356 9.82966V15.3262H115.611V1.75549H120.24C121.417 1.75549 122.415 2.14756 123.238 2.93061C124.073 3.71365 124.491 4.66782 124.491 5.79203C124.491 6.94224 124.073 7.90291 123.238 8.67296C122.428 9.44409 121.429 9.82858 120.24 9.82858H117.356V9.82966Z" fill="white"/>
<path id="Fill 3" fill-rule="evenodd" clip-rule="evenodd" d="M126.255 12.4831C126.255 12.9379 126.448 13.317 126.834 13.6203C127.22 13.9235 127.672 14.0752 128.19 14.0752C128.924 14.0752 129.578 13.8032 130.153 13.2607C130.729 12.717 131.017 12.0791 131.017 11.3469C130.472 10.917 129.713 10.7025 128.74 10.7025C128.031 10.7025 127.44 10.8736 126.966 11.2148C126.492 11.5559 126.255 11.9773 126.255 12.4831M128.513 5.73566C129.803 5.73566 130.821 6.08007 131.569 6.76889C132.314 7.45771 132.687 8.40213 132.687 9.60216V15.3261H131.018V14.0373H130.942C130.221 15.0985 129.259 15.6294 128.058 15.6294C127.033 15.6294 126.176 15.3261 125.487 14.7196C124.797 14.1131 124.453 13.3549 124.453 12.4452C124.453 11.4845 124.816 10.7208 125.543 10.1523C126.271 9.58375 127.241 9.2989 128.456 9.2989C129.492 9.2989 130.346 9.48844 131.017 9.86751V9.46894C131.017 8.86243 130.776 8.34798 130.296 7.92451C129.814 7.50103 129.252 7.28984 128.607 7.28984C127.633 7.28984 126.862 7.70032 126.293 8.52235L124.755 7.55519C125.603 6.34217 126.855 5.73566 128.513 5.73566" fill="white"/>
<path id="Fill 5" fill-rule="evenodd" clip-rule="evenodd" d="M142.269 6.03894L136.443 19.4201H134.641L136.804 14.738L132.971 6.03894H134.869L137.639 12.7106H137.677L140.371 6.03894H142.269Z" fill="white"/>
</g>
<g id="G">
<path id="Fill 8" fill-rule="evenodd" clip-rule="evenodd" d="M110.303 8.64473C110.303 8.09563 110.256 7.56601 110.168 7.05914H102.806V10.0625H107.023C106.842 11.0414 106.294 11.8744 105.464 12.4322V14.3828H107.98C109.454 13.0246 110.303 11.0177 110.303 8.64473" fill="#4285F4"/>
<path id="Fill 10" fill-rule="evenodd" clip-rule="evenodd" d="M102.806 16.2651C104.913 16.2651 106.687 15.5741 107.98 14.3828L105.464 12.4322C104.763 12.9033 103.861 13.1784 102.806 13.1784C100.77 13.1784 99.042 11.8073 98.424 9.95959H95.8316V11.9687C97.1164 14.516 99.7565 16.2651 102.806 16.2651" fill="#34A853"/>
<path id="Fill 12" fill-rule="evenodd" clip-rule="evenodd" d="M98.424 9.9596C98.2657 9.48847 98.179 8.98593 98.179 8.46715C98.179 7.94837 98.2657 7.44583 98.424 6.9747V4.96564H95.8316C95.3003 6.01837 95 7.20756 95 8.46715C95 9.72674 95.3003 10.916 95.8316 11.9687L98.424 9.9596Z" fill="#FABB05"/>
<path id="Fill 14" fill-rule="evenodd" clip-rule="evenodd" d="M102.806 3.75583C103.957 3.75583 104.988 4.15115 105.801 4.92553V4.92661L108.029 2.70094C106.676 1.44243 104.912 0.669128 102.806 0.669128C99.7565 0.669128 97.1164 2.41826 95.8316 4.9656L98.424 6.97467C99.042 5.12698 100.77 3.75583 102.806 3.75583" fill="#E94235"/>
</g>
</g>
</g>
</g>
</svg>
