<svg width="150" height="21" viewBox="0 0 150 21" fill="none" xmlns="http://www.w3.org/2000/svg">
<g id="fr_donate_with_Pay_NBG">
<path id="Left Text" d="M1.76475 15.0006V3.54461H5.42875C6.63408 3.54461 7.66875 3.78994 8.53275 4.28061C9.40742 4.76061 10.0794 5.43261 10.5488 6.29661C11.0288 7.16061 11.2688 8.15261 11.2688 9.27261C11.2688 10.3926 11.0288 11.3846 10.5488 12.2486C10.0794 13.1126 9.40742 13.7899 8.53275 14.2806C7.66875 14.7606 6.63408 15.0006 5.42875 15.0006H1.76475ZM3.52475 13.3366H5.38075C6.24475 13.3366 6.98608 13.1766 7.60475 12.8566C8.22342 12.5259 8.69275 12.0566 9.01275 11.4486C9.33275 10.8406 9.49275 10.1153 9.49275 9.27261C9.49275 8.42994 9.33275 7.70461 9.01275 7.09661C8.69275 6.48861 8.22342 6.02461 7.60475 5.70461C6.98608 5.37394 6.24475 5.20861 5.38075 5.20861H3.52475V13.3366ZM16.748 15.2566C15.9053 15.2566 15.164 15.0646 14.524 14.6806C13.884 14.2966 13.3827 13.7793 13.02 13.1286C12.6573 12.4673 12.476 11.7313 12.476 10.9206C12.476 10.1099 12.6573 9.37928 13.02 8.72861C13.3827 8.06728 13.884 7.54461 14.524 7.16061C15.164 6.77661 15.9053 6.58461 16.748 6.58461C17.58 6.58461 18.316 6.78194 18.956 7.17661C19.596 7.56061 20.0973 8.07794 20.46 8.72861C20.8227 9.37928 21.004 10.1099 21.004 10.9206C21.004 11.7313 20.8227 12.4673 20.46 13.1286C20.0973 13.7793 19.596 14.2966 18.956 14.6806C18.316 15.0646 17.58 15.2566 16.748 15.2566ZM16.748 13.6726C17.196 13.6726 17.612 13.5659 17.996 13.3526C18.38 13.1286 18.6893 12.8139 18.924 12.4086C19.1693 11.9926 19.292 11.4966 19.292 10.9206C19.292 10.3446 19.1693 9.85394 18.924 9.44861C18.6893 9.03261 18.38 8.71794 17.996 8.50461C17.612 8.28061 17.196 8.16861 16.748 8.16861C16.3 8.16861 15.8787 8.28061 15.484 8.50461C15.1 8.71794 14.7853 9.03261 14.54 9.44861C14.3053 9.85394 14.188 10.3446 14.188 10.9206C14.188 11.4966 14.3053 11.9926 14.54 12.4086C14.7853 12.8139 15.1053 13.1286 15.5 13.3526C15.8947 13.5659 16.3107 13.6726 16.748 13.6726ZM22.5892 15.0006V6.84061H24.2212V7.96061H24.3172C24.5519 7.56594 24.8986 7.24061 25.3572 6.98461C25.8266 6.71794 26.3386 6.58461 26.8932 6.58461C27.8959 6.58461 28.6479 6.88328 29.1492 7.48061C29.6506 8.06728 29.9012 8.85661 29.9012 9.84861V15.0006H28.1892V10.0726C28.1892 9.41128 28.0239 8.93128 27.6932 8.63261C27.3626 8.32328 26.9306 8.16861 26.3972 8.16861C25.9812 8.16861 25.6186 8.28594 25.3092 8.52061C24.9999 8.74461 24.7546 9.04328 24.5732 9.41661C24.4026 9.78994 24.3172 10.1899 24.3172 10.6166V15.0006H22.5892ZM32.0205 15.0006V6.84061H33.6525V7.96061H33.7485C33.9832 7.56594 34.3298 7.24061 34.7885 6.98461C35.2578 6.71794 35.7698 6.58461 36.3245 6.58461C37.3272 6.58461 38.0792 6.88328 38.5805 7.48061C39.0818 8.06728 39.3325 8.85661 39.3325 9.84861V15.0006H37.6205V10.0726C37.6205 9.41128 37.4552 8.93128 37.1245 8.63261C36.7938 8.32328 36.3618 8.16861 35.8285 8.16861C35.4125 8.16861 35.0498 8.28594 34.7405 8.52061C34.4312 8.74461 34.1858 9.04328 34.0045 9.41661C33.8338 9.78994 33.7485 10.1899 33.7485 10.6166V15.0006H32.0205ZM45.1797 15.2566C44.3797 15.2566 43.6651 15.0699 43.0357 14.6966C42.4064 14.3233 41.9104 13.8113 41.5477 13.1606C41.1957 12.5099 41.0197 11.7686 41.0197 10.9366C41.0197 10.1579 41.1904 9.43794 41.5317 8.77661C41.8731 8.11528 42.3477 7.58728 42.9557 7.19261C43.5744 6.78728 44.2837 6.58461 45.0837 6.58461C45.9264 6.58461 46.6411 6.76594 47.2277 7.12861C47.8251 7.49128 48.2784 7.98728 48.5877 8.61661C48.8971 9.24594 49.0517 9.95528 49.0517 10.7446C49.0517 10.8619 49.0464 10.9686 49.0357 11.0646C49.0357 11.1606 49.0304 11.2353 49.0197 11.2886H42.7157C42.7584 11.7366 42.8704 12.1259 43.0517 12.4566C43.2864 12.8726 43.5957 13.1873 43.9797 13.4006C44.3637 13.6139 44.7797 13.7206 45.2277 13.7206C45.7717 13.7206 46.2251 13.5979 46.5877 13.3526C46.9611 13.0966 47.2544 12.7819 47.4677 12.4086L48.8917 13.0966C48.5397 13.7366 48.0597 14.2593 47.4517 14.6646C46.8437 15.0593 46.0864 15.2566 45.1797 15.2566ZM42.8117 9.99261H47.3397C47.3291 9.78994 47.2757 9.57661 47.1797 9.35261C47.0837 9.11794 46.9451 8.90461 46.7637 8.71261C46.5824 8.52061 46.3531 8.36594 46.0757 8.24861C45.7984 8.12061 45.4731 8.05661 45.0997 8.05661C44.6304 8.05661 44.2144 8.17928 43.8517 8.42461C43.4891 8.65928 43.2064 8.98994 43.0037 9.41661C42.9184 9.59794 42.8544 9.78994 42.8117 9.99261ZM50.8049 15.0006V6.84061H52.4369V8.04061H52.5329C52.6609 7.76328 52.8422 7.51794 53.0769 7.30461C53.3222 7.09128 53.5995 6.92061 53.9089 6.79261C54.2289 6.66461 54.5595 6.60061 54.9009 6.60061C55.1249 6.60061 55.3115 6.61661 55.4609 6.64861C55.6209 6.66994 55.7649 6.70728 55.8929 6.76061V8.55261C55.6902 8.46728 55.4822 8.39794 55.2689 8.34461C55.0662 8.29128 54.8529 8.26461 54.6289 8.26461C54.2235 8.26461 53.8609 8.37661 53.5409 8.60061C53.2315 8.81394 52.9862 9.10194 52.8049 9.46461C52.6235 9.82728 52.5329 10.2326 52.5329 10.6806V15.0006H50.8049ZM63.8211 15.2566C63.2345 15.2566 62.7118 15.1393 62.2531 14.9046C61.8051 14.6699 61.4478 14.3499 61.1811 13.9446C60.9251 13.5286 60.7971 13.0539 60.7971 12.5206C60.7971 11.9339 60.9465 11.4379 61.2451 11.0326C61.5545 10.6273 61.9651 10.3179 62.4771 10.1046C62.9891 9.89128 63.5545 9.78461 64.1731 9.78461C64.5145 9.78461 64.8291 9.81128 65.1171 9.86461C65.4158 9.90728 65.6718 9.96061 65.8851 10.0246C66.1091 10.0886 66.2851 10.1579 66.4131 10.2326V9.80061C66.4131 9.26728 66.2211 8.84061 65.8371 8.52061C65.4531 8.20061 64.9571 8.04061 64.3491 8.04061C63.9331 8.04061 63.5385 8.13661 63.1651 8.32861C62.7918 8.50994 62.4931 8.76061 62.2691 9.08061L61.0851 8.16861C61.3198 7.83794 61.6025 7.55528 61.9331 7.32061C62.2745 7.08594 62.6531 6.90461 63.0691 6.77661C63.4958 6.64861 63.9385 6.58461 64.3971 6.58461C65.5811 6.58461 66.4931 6.87794 67.1331 7.46461C67.7731 8.04061 68.0931 8.85128 68.0931 9.89661V15.0006H66.4131V13.9926H66.3171C66.1785 14.2059 65.9865 14.4086 65.7411 14.6006C65.5065 14.7926 65.2238 14.9473 64.8931 15.0646C64.5731 15.1926 64.2158 15.2566 63.8211 15.2566ZM64.1251 13.8486C64.5731 13.8486 64.9678 13.7419 65.3091 13.5286C65.6611 13.3153 65.9331 13.0379 66.1251 12.6966C66.3171 12.3446 66.4131 11.9659 66.4131 11.5606C66.1785 11.4219 65.8905 11.3099 65.5491 11.2246C65.2185 11.1286 64.8665 11.0806 64.4931 11.0806C63.7891 11.0806 63.2878 11.2193 62.9891 11.4966C62.6905 11.7739 62.5411 12.1206 62.5411 12.5366C62.5411 12.9206 62.6851 13.2353 62.9731 13.4806C63.2611 13.7259 63.6451 13.8486 64.1251 13.8486ZM72.4692 15.0006L69.0932 6.84061H71.0132L73.3012 12.7766H73.3812L75.7172 6.84061H77.6052L74.1972 15.0006H72.4692ZM82.3672 15.2566C81.5672 15.2566 80.8526 15.0699 80.2232 14.6966C79.5939 14.3233 79.0979 13.8113 78.7352 13.1606C78.3832 12.5099 78.2072 11.7686 78.2072 10.9366C78.2072 10.1579 78.3779 9.43794 78.7192 8.77661C79.0606 8.11528 79.5352 7.58728 80.1432 7.19261C80.7619 6.78728 81.4712 6.58461 82.2712 6.58461C83.1139 6.58461 83.8286 6.76594 84.4152 7.12861C85.0126 7.49128 85.4659 7.98728 85.7752 8.61661C86.0846 9.24594 86.2392 9.95528 86.2392 10.7446C86.2392 10.8619 86.2339 10.9686 86.2232 11.0646C86.2232 11.1606 86.2179 11.2353 86.2072 11.2886H79.9032C79.9459 11.7366 80.0579 12.1259 80.2392 12.4566C80.4739 12.8726 80.7832 13.1873 81.1672 13.4006C81.5512 13.6139 81.9672 13.7206 82.4152 13.7206C82.9592 13.7206 83.4126 13.5979 83.7752 13.3526C84.1486 13.0966 84.4419 12.7819 84.6552 12.4086L86.0792 13.0966C85.7272 13.7366 85.2472 14.2593 84.6392 14.6646C84.0312 15.0593 83.2739 15.2566 82.3672 15.2566ZM79.9992 9.99261H84.5272C84.5166 9.78994 84.4632 9.57661 84.3672 9.35261C84.2712 9.11794 84.1326 8.90461 83.9512 8.71261C83.7699 8.52061 83.5406 8.36594 83.2632 8.24861C82.9859 8.12061 82.6606 8.05661 82.2872 8.05661C81.8179 8.05661 81.4019 8.17928 81.0392 8.42461C80.6766 8.65928 80.3939 8.98994 80.1912 9.41661C80.1059 9.59794 80.0419 9.78994 79.9992 9.99261ZM91.8465 15.2566C91.0252 15.2566 90.2945 15.0699 89.6545 14.6966C89.0252 14.3233 88.5292 13.8113 88.1665 13.1606C87.8145 12.4993 87.6385 11.7526 87.6385 10.9206C87.6385 10.0886 87.8145 9.34728 88.1665 8.69661C88.5292 8.04594 89.0252 7.53394 89.6545 7.16061C90.2945 6.77661 91.0252 6.58461 91.8465 6.58461C92.7532 6.58461 93.5158 6.78728 94.1345 7.19261C94.7638 7.59794 95.2118 8.14728 95.4785 8.84061L93.9105 9.48061C93.7185 9.04328 93.4412 8.71794 93.0785 8.50461C92.7265 8.28061 92.3052 8.16861 91.8145 8.16861C91.3665 8.16861 90.9558 8.28594 90.5825 8.52061C90.2092 8.74461 89.9105 9.05928 89.6865 9.46461C89.4625 9.86994 89.3505 10.3553 89.3505 10.9206C89.3505 11.4753 89.4625 11.9606 89.6865 12.3766C89.9105 12.7926 90.2092 13.1126 90.5825 13.3366C90.9558 13.5606 91.3665 13.6726 91.8145 13.6726C92.3372 13.6726 92.7798 13.5553 93.1425 13.3206C93.5052 13.0859 93.7878 12.7553 93.9905 12.3286L95.5265 13.0006C95.2278 13.6513 94.7638 14.1899 94.1345 14.6166C93.5158 15.0433 92.7532 15.2566 91.8465 15.2566Z" fill="white"/>
<g id="GPay (Dark)">
<g id="GPay">
<g id="Pay">
<path id="Fill 1" fill-rule="evenodd" clip-rule="evenodd" d="M124.356 3.42339V8.16175H127.278C127.974 8.16175 128.55 7.92781 129.005 7.45993C129.473 6.99313 129.707 6.43644 129.707 5.79203C129.707 5.16061 129.473 4.61041 129.005 4.14254C128.55 3.66274 127.974 3.4223 127.278 3.4223H124.356V3.42339ZM124.356 9.82966V15.3262H122.611V1.75549H127.24C128.417 1.75549 129.415 2.14756 130.238 2.93061C131.073 3.71365 131.491 4.66782 131.491 5.79203C131.491 6.94224 131.073 7.90291 130.238 8.67296C129.428 9.44409 128.429 9.82858 127.24 9.82858H124.356V9.82966Z" fill="white"/>
<path id="Fill 3" fill-rule="evenodd" clip-rule="evenodd" d="M133.255 12.4831C133.255 12.9379 133.448 13.317 133.834 13.6203C134.22 13.9235 134.672 14.0752 135.19 14.0752C135.924 14.0752 136.578 13.8032 137.153 13.2607C137.729 12.717 138.017 12.0791 138.017 11.3469C137.472 10.917 136.713 10.7025 135.74 10.7025C135.031 10.7025 134.44 10.8736 133.966 11.2148C133.492 11.5559 133.255 11.9773 133.255 12.4831M135.513 5.73566C136.803 5.73566 137.821 6.08007 138.569 6.76889C139.314 7.45771 139.687 8.40213 139.687 9.60216V15.3261H138.018V14.0373H137.942C137.221 15.0985 136.259 15.6294 135.058 15.6294C134.033 15.6294 133.176 15.3261 132.487 14.7196C131.797 14.1131 131.453 13.3549 131.453 12.4452C131.453 11.4845 131.816 10.7208 132.543 10.1523C133.271 9.58375 134.241 9.2989 135.456 9.2989C136.492 9.2989 137.346 9.48844 138.017 9.86751V9.46894C138.017 8.86243 137.776 8.34798 137.296 7.92451C136.814 7.50103 136.252 7.28984 135.607 7.28984C134.633 7.28984 133.862 7.70032 133.293 8.52235L131.755 7.55519C132.603 6.34217 133.855 5.73566 135.513 5.73566" fill="white"/>
<path id="Fill 5" fill-rule="evenodd" clip-rule="evenodd" d="M149.269 6.03894L143.443 19.4201H141.641L143.804 14.738L139.971 6.03894H141.869L144.639 12.7106H144.677L147.371 6.03894H149.269Z" fill="white"/>
</g>
<g id="G">
<path id="Fill 8" fill-rule="evenodd" clip-rule="evenodd" d="M117.303 8.64473C117.303 8.09563 117.256 7.56601 117.168 7.05914H109.806V10.0625H114.023C113.842 11.0414 113.294 11.8744 112.464 12.4322V14.3828H114.98C116.454 13.0246 117.303 11.0177 117.303 8.64473" fill="#4285F4"/>
<path id="Fill 10" fill-rule="evenodd" clip-rule="evenodd" d="M109.806 16.2651C111.913 16.2651 113.687 15.5741 114.98 14.3828L112.464 12.4322C111.763 12.9033 110.861 13.1784 109.806 13.1784C107.77 13.1784 106.042 11.8073 105.424 9.95959H102.832V11.9687C104.116 14.516 106.757 16.2651 109.806 16.2651" fill="#34A853"/>
<path id="Fill 12" fill-rule="evenodd" clip-rule="evenodd" d="M105.424 9.9596C105.266 9.48847 105.179 8.98593 105.179 8.46715C105.179 7.94837 105.266 7.44583 105.424 6.9747V4.96564H102.832C102.3 6.01837 102 7.20756 102 8.46715C102 9.72674 102.3 10.916 102.832 11.9687L105.424 9.9596Z" fill="#FABB05"/>
<path id="Fill 14" fill-rule="evenodd" clip-rule="evenodd" d="M109.806 3.75583C110.957 3.75583 111.988 4.15115 112.801 4.92553V4.92661L115.029 2.70094C113.676 1.44243 111.912 0.669128 109.806 0.669128C106.757 0.669128 104.116 2.41826 102.832 4.9656L105.424 6.97467C106.042 5.12698 107.77 3.75583 109.806 3.75583" fill="#E94235"/>
</g>
</g>
</g>
</g>
</svg>
