<svg width="328" height="38" viewBox="0 0 328 38" fill="none" xmlns="http://www.w3.org/2000/svg">
<g id="fr_donate_with_Dark">
<path id="Text" d="M3.88597 30V9.952H16.038V12.864H6.96597V18.744H15.142V21.656H6.96597V30H3.88597ZM23.0643 30.448C22.0376 30.448 21.123 30.252 20.3203 29.86C19.5176 29.4493 18.8923 28.88 18.4443 28.152C17.9963 27.424 17.7723 26.5933 17.7723 25.66C17.7723 24.652 18.0336 23.7933 18.5563 23.084C19.0976 22.356 19.8163 21.8053 20.7123 21.432C21.6083 21.0587 22.5976 20.872 23.6803 20.872C24.5763 20.872 25.3603 20.956 26.0323 21.124C26.723 21.292 27.2456 21.4693 27.6003 21.656V20.9C27.6003 19.9667 27.2643 19.22 26.5923 18.66C25.9203 18.1 25.0523 17.82 23.9883 17.82C23.2603 17.82 22.5696 17.988 21.9163 18.324C21.263 18.6413 20.7403 19.08 20.3483 19.64L18.2763 18.044C18.8923 17.1853 19.7043 16.5133 20.7123 16.028C21.739 15.524 22.859 15.272 24.0723 15.272C26.1443 15.272 27.7403 15.7853 28.8603 16.812C29.9803 17.82 30.5403 19.2387 30.5403 21.068V30H27.6003V28.236H27.4323C27.059 28.8147 26.499 29.328 25.7523 29.776C25.0056 30.224 24.1096 30.448 23.0643 30.448ZM23.5963 27.984C24.3803 27.984 25.071 27.7973 25.6683 27.424C26.2656 27.0507 26.7323 26.5653 27.0683 25.968C27.423 25.352 27.6003 24.6893 27.6003 23.98C27.171 23.7373 26.667 23.5413 26.0883 23.392C25.5096 23.224 24.8936 23.14 24.2403 23.14C23.0083 23.14 22.131 23.392 21.6083 23.896C21.0856 24.3813 20.8243 24.9787 20.8243 25.688C20.8243 26.36 21.0763 26.9107 21.5803 27.34C22.0843 27.7693 22.7563 27.984 23.5963 27.984ZM35.9055 13.62C35.3455 13.62 34.8601 13.424 34.4495 13.032C34.0575 12.6213 33.8615 12.136 33.8615 11.576C33.8615 11.016 34.0575 10.54 34.4495 10.148C34.8601 9.756 35.3455 9.56 35.9055 9.56C36.4655 9.56 36.9415 9.756 37.3335 10.148C37.7441 10.54 37.9495 11.016 37.9495 11.576C37.9495 12.136 37.7441 12.6213 37.3335 13.032C36.9415 13.424 36.4655 13.62 35.9055 13.62ZM34.3935 30V15.72H37.4175V30H34.3935ZM41.4695 30V15.72H44.3255V17.82H44.4935C44.8108 17.092 45.3521 16.4947 46.1175 16.028C46.9015 15.5427 47.7415 15.3 48.6375 15.3C49.0295 15.3 49.3561 15.328 49.6175 15.384C49.8975 15.44 50.1495 15.5053 50.3735 15.58V18.716C50.0188 18.5667 49.6548 18.4453 49.2815 18.352C48.9268 18.2587 48.5535 18.212 48.1615 18.212C47.4521 18.212 46.8175 18.408 46.2575 18.8C45.7161 19.1733 45.2868 19.6867 44.9695 20.34C44.6521 20.9747 44.4935 21.6747 44.4935 22.44V30H41.4695ZM58.6841 30.448C57.2841 30.448 56.0334 30.1213 54.9321 29.468C53.8308 28.8147 52.9628 27.9187 52.3281 26.78C51.7121 25.6413 51.4041 24.344 51.4041 22.888C51.4041 21.5253 51.7028 20.2653 52.3001 19.108C52.8974 17.9507 53.7281 17.0267 54.7921 16.336C55.8748 15.6267 57.1161 15.272 58.5161 15.272C59.9908 15.272 61.2414 15.5893 62.2681 16.224C63.3134 16.8587 64.1068 17.7267 64.6481 18.828C65.1894 19.9293 65.4601 21.1707 65.4601 22.552C65.4601 22.7573 65.4508 22.944 65.4321 23.112C65.4321 23.28 65.4228 23.4107 65.4041 23.504H54.3721C54.5214 24.9227 55.0161 25.9867 55.8561 26.696C56.7148 27.4053 57.6854 27.76 58.7681 27.76C59.7388 27.76 60.5414 27.5453 61.1761 27.116C61.8108 26.668 62.3148 26.1173 62.6881 25.464L65.1801 26.668C64.5641 27.788 63.7241 28.7027 62.6601 29.412C61.5961 30.1027 60.2708 30.448 58.6841 30.448ZM58.5441 17.848C57.5361 17.848 56.6774 18.156 55.9681 18.772C55.2588 19.388 54.7828 20.2093 54.5401 21.236H62.4641C62.4268 20.7507 62.2681 20.2467 61.9881 19.724C61.7081 19.2013 61.2788 18.7627 60.7001 18.408C60.1401 18.0347 59.4214 17.848 58.5441 17.848ZM80.5807 30.448C78.8261 30.448 77.5007 29.9253 76.6047 28.88C75.7274 27.816 75.2887 26.3787 75.2887 24.568V15.72H78.3127V24.148C78.3127 25.3613 78.5927 26.2573 79.1527 26.836C79.7314 27.396 80.4501 27.676 81.3087 27.676C82.0741 27.676 82.7367 27.48 83.2967 27.088C83.8754 26.6773 84.3141 26.1547 84.6127 25.52C84.9301 24.8667 85.0887 24.1573 85.0887 23.392V15.72H88.0847V30H85.2567V28.068H85.0887C84.6781 28.74 84.0621 29.3093 83.2407 29.776C82.4381 30.224 81.5514 30.448 80.5807 30.448ZM91.9429 30V15.72H94.7989V17.68H94.9669C95.3776 16.9893 95.9842 16.42 96.7869 15.972C97.6082 15.5053 98.5042 15.272 99.4749 15.272C101.23 15.272 102.546 15.7947 103.423 16.84C104.3 17.8853 104.739 19.2667 104.739 20.984V30H101.743V21.376C101.743 20.2187 101.454 19.3787 100.875 18.856C100.296 18.3147 99.5402 18.044 98.6069 18.044C97.8789 18.044 97.2442 18.2493 96.7029 18.66C96.1616 19.052 95.7322 19.5747 95.4149 20.228C95.1162 20.8813 94.9669 21.5813 94.9669 22.328V30H91.9429ZM121.424 30.448C120.136 30.448 118.97 30.1307 117.924 29.496C116.898 28.8427 116.076 27.9467 115.46 26.808C114.863 25.6507 114.564 24.3347 114.564 22.86C114.564 21.3853 114.863 20.0787 115.46 18.94C116.076 17.8013 116.898 16.9053 117.924 16.252C118.97 15.5987 120.136 15.272 121.424 15.272C122.526 15.272 123.468 15.5147 124.252 16C125.055 16.4853 125.643 17.036 126.016 17.652H126.184L126.016 15.664V9.952H129.012V30H126.184V28.096H126.016C125.643 28.712 125.055 29.2627 124.252 29.748C123.468 30.2147 122.526 30.448 121.424 30.448ZM121.872 27.676C122.619 27.676 123.319 27.48 123.972 27.088C124.644 26.696 125.176 26.1453 125.568 25.436C125.979 24.708 126.184 23.8493 126.184 22.86C126.184 21.8707 125.979 21.0213 125.568 20.312C125.176 19.584 124.644 19.024 123.972 18.632C123.319 18.24 122.619 18.044 121.872 18.044C121.126 18.044 120.426 18.24 119.772 18.632C119.119 19.024 118.587 19.584 118.176 20.312C117.766 21.0213 117.56 21.8707 117.56 22.86C117.56 23.8493 117.766 24.708 118.176 25.436C118.587 26.1453 119.119 26.696 119.772 27.088C120.426 27.48 121.126 27.676 121.872 27.676ZM139.457 30.448C137.983 30.448 136.685 30.112 135.565 29.44C134.445 28.768 133.568 27.8627 132.933 26.724C132.299 25.5853 131.981 24.2973 131.981 22.86C131.981 21.4413 132.299 20.1627 132.933 19.024C133.568 17.8667 134.445 16.952 135.565 16.28C136.685 15.608 137.983 15.272 139.457 15.272C140.913 15.272 142.201 15.608 143.321 16.28C144.441 16.952 145.319 17.8667 145.953 19.024C146.588 20.1627 146.905 21.4413 146.905 22.86C146.905 24.2973 146.588 25.5853 145.953 26.724C145.319 27.8627 144.441 28.768 143.321 29.44C142.201 30.112 140.913 30.448 139.457 30.448ZM139.457 27.676C140.241 27.676 140.969 27.4893 141.641 27.116C142.313 26.724 142.855 26.1733 143.265 25.464C143.695 24.736 143.909 23.868 143.909 22.86C143.909 21.852 143.695 20.9933 143.265 20.284C142.855 19.556 142.313 19.0053 141.641 18.632C140.969 18.24 140.241 18.044 139.457 18.044C138.673 18.044 137.936 18.24 137.245 18.632C136.573 19.0053 136.023 19.556 135.593 20.284C135.183 20.9933 134.977 21.852 134.977 22.86C134.977 23.868 135.183 24.736 135.593 25.464C136.023 26.1733 136.573 26.724 137.245 27.116C137.936 27.4893 138.673 27.676 139.457 27.676ZM149.717 30V15.72H152.573V17.68H152.741C153.152 16.9893 153.758 16.42 154.561 15.972C155.382 15.5053 156.278 15.272 157.249 15.272C159.004 15.272 160.32 15.7947 161.197 16.84C162.074 17.8853 162.513 19.2667 162.513 20.984V30H159.517V21.376C159.517 20.2187 159.228 19.3787 158.649 18.856C158.07 18.3147 157.314 18.044 156.381 18.044C155.653 18.044 155.018 18.2493 154.477 18.66C153.936 19.052 153.506 19.5747 153.189 20.228C152.89 20.8813 152.741 21.5813 152.741 22.328V30H149.717ZM177.574 30.448C176.548 30.448 175.633 30.252 174.83 29.86C174.028 29.4493 173.402 28.88 172.954 28.152C172.506 27.424 172.282 26.5933 172.282 25.66C172.282 24.652 172.544 23.7933 173.066 23.084C173.608 22.356 174.326 21.8053 175.222 21.432C176.118 21.0587 177.108 20.872 178.19 20.872C179.086 20.872 179.87 20.956 180.542 21.124C181.233 21.292 181.756 21.4693 182.11 21.656V20.9C182.11 19.9667 181.774 19.22 181.102 18.66C180.43 18.1 179.562 17.82 178.498 17.82C177.77 17.82 177.08 17.988 176.426 18.324C175.773 18.6413 175.25 19.08 174.858 19.64L172.786 18.044C173.402 17.1853 174.214 16.5133 175.222 16.028C176.249 15.524 177.369 15.272 178.582 15.272C180.654 15.272 182.25 15.7853 183.37 16.812C184.49 17.82 185.05 19.2387 185.05 21.068V30H182.11V28.236H181.942C181.569 28.8147 181.009 29.328 180.262 29.776C179.516 30.224 178.62 30.448 177.574 30.448ZM178.106 27.984C178.89 27.984 179.581 27.7973 180.178 27.424C180.776 27.0507 181.242 26.5653 181.578 25.968C181.933 25.352 182.11 24.6893 182.11 23.98C181.681 23.7373 181.177 23.5413 180.598 23.392C180.02 23.224 179.404 23.14 178.75 23.14C177.518 23.14 176.641 23.392 176.118 23.896C175.596 24.3813 175.334 24.9787 175.334 25.688C175.334 26.36 175.586 26.9107 176.09 27.34C176.594 27.7693 177.266 27.984 178.106 27.984ZM192.746 30L186.838 15.72H190.198L194.202 26.108H194.342L198.43 15.72H201.734L195.77 30H192.746ZM210.105 30.448C208.705 30.448 207.455 30.1213 206.353 29.468C205.252 28.8147 204.384 27.9187 203.749 26.78C203.133 25.6413 202.825 24.344 202.825 22.888C202.825 21.5253 203.124 20.2653 203.721 19.108C204.319 17.9507 205.149 17.0267 206.213 16.336C207.296 15.6267 208.537 15.272 209.937 15.272C211.412 15.272 212.663 15.5893 213.689 16.224C214.735 16.8587 215.528 17.7267 216.069 18.828C216.611 19.9293 216.881 21.1707 216.881 22.552C216.881 22.7573 216.872 22.944 216.853 23.112C216.853 23.28 216.844 23.4107 216.825 23.504H205.793C205.943 24.9227 206.437 25.9867 207.277 26.696C208.136 27.4053 209.107 27.76 210.189 27.76C211.16 27.76 211.963 27.5453 212.597 27.116C213.232 26.668 213.736 26.1173 214.109 25.464L216.601 26.668C215.985 27.788 215.145 28.7027 214.081 29.412C213.017 30.1027 211.692 30.448 210.105 30.448ZM209.965 17.848C208.957 17.848 208.099 18.156 207.389 18.772C206.68 19.388 206.204 20.2093 205.961 21.236H213.885C213.848 20.7507 213.689 20.2467 213.409 19.724C213.129 19.2013 212.7 18.7627 212.121 18.408C211.561 18.0347 210.843 17.848 209.965 17.848ZM226.731 30.448C225.294 30.448 224.025 30.1213 222.923 29.468C221.822 28.8147 220.954 27.9187 220.319 26.78C219.685 25.6227 219.367 24.316 219.367 22.86C219.367 21.404 219.685 20.1067 220.319 18.968C220.954 17.8107 221.822 16.9053 222.923 16.252C224.025 15.5987 225.294 15.272 226.731 15.272C228.318 15.272 229.653 15.6267 230.735 16.336C231.837 17.0453 232.621 18.0067 233.087 19.22L230.343 20.34C229.69 18.8093 228.467 18.044 226.675 18.044C225.891 18.044 225.173 18.2493 224.519 18.66C223.866 19.052 223.343 19.612 222.951 20.34C222.559 21.0493 222.363 21.8893 222.363 22.86C222.363 23.8307 222.559 24.68 222.951 25.408C223.343 26.136 223.866 26.696 224.519 27.088C225.173 27.48 225.891 27.676 226.675 27.676C227.59 27.676 228.365 27.4707 228.999 27.06C229.634 26.6307 230.129 26.052 230.483 25.324L233.171 26.5C232.667 27.6387 231.865 28.5813 230.763 29.328C229.662 30.0747 228.318 30.448 226.731 30.448Z" fill="white"/>
<g id="GPay Logo (Dark)">
<g id="GPay">
<g id="Pay">
<path id="Fill 1" fill-rule="evenodd" clip-rule="evenodd" d="M284.529 9.34665V17.5128H289.565C290.765 17.5128 291.757 17.1096 292.541 16.3032C293.347 15.4988 293.75 14.5394 293.75 13.4288C293.75 12.3406 293.347 11.3924 292.541 10.586C291.757 9.75916 290.765 9.34479 289.565 9.34479H284.529V9.34665ZM284.529 20.3872V29.8599H281.521V6.47218H289.499C291.527 6.47218 293.248 7.14787 294.666 8.49738C296.105 9.84688 296.824 11.4913 296.824 13.4288C296.824 15.411 296.105 17.0667 294.666 18.3938C293.27 19.7227 291.547 20.3854 289.499 20.3854H284.529V20.3872Z" fill="white"/>
<path id="Fill 3" fill-rule="evenodd" clip-rule="evenodd" d="M299.864 24.9602C299.864 25.7442 300.197 26.3975 300.862 26.9201C301.527 27.4427 302.306 27.704 303.2 27.704C304.465 27.704 305.591 27.2354 306.584 26.3004C307.576 25.3634 308.071 24.264 308.071 23.0022C307.133 22.2612 305.825 21.8916 304.147 21.8916C302.925 21.8916 301.907 22.1866 301.09 22.7745C300.273 23.3623 299.864 24.0886 299.864 24.9602ZM303.756 13.3317C305.98 13.3317 307.735 13.9253 309.022 15.1124C310.308 16.2995 310.95 17.9271 310.95 19.9952V29.8599H308.073V27.6387H307.942C306.699 29.4677 305.042 30.3825 302.972 30.3825C301.206 30.3825 299.728 29.8599 298.541 28.8146C297.353 27.7694 296.759 26.4628 296.759 24.8949C296.759 23.2393 297.385 21.9232 298.638 20.9434C299.892 19.9635 301.565 19.4726 303.658 19.4726C305.444 19.4726 306.916 19.7993 308.071 20.4525V19.7657C308.071 18.7204 307.656 17.8338 306.829 17.104C305.999 16.3742 305.031 16.0102 303.919 16.0102C302.239 16.0102 300.911 16.7176 299.93 18.1343L297.28 16.4675C298.741 14.377 300.899 13.3317 303.756 13.3317Z" fill="white"/>
<path id="Fill 5" fill-rule="evenodd" clip-rule="evenodd" d="M327.463 13.8543L317.424 36.9154H314.318L318.046 28.8464L311.44 13.8543H314.71L319.484 25.3522H319.55L324.193 13.8543H327.463Z" fill="white"/>
</g>
<g id="G">
<path id="Fill 8" fill-rule="evenodd" clip-rule="evenodd" d="M272.373 18.3452C272.373 17.3989 272.293 16.4861 272.141 15.6126H259.454V20.7885H266.72C266.408 22.4757 265.465 23.9112 264.033 24.8725V28.2341H268.37C270.91 25.8935 272.373 22.4348 272.373 18.3452Z" fill="#4285F4"/>
<path id="Fill 10" fill-rule="evenodd" clip-rule="evenodd" d="M259.454 31.4782C263.084 31.4782 266.141 30.2873 268.37 28.2341L264.033 24.8725C262.826 25.6844 261.272 26.1585 259.454 26.1585C255.944 26.1585 252.966 23.7955 251.901 20.6112H247.433V24.0736C249.647 28.4637 254.197 31.4782 259.454 31.4782Z" fill="#34A853"/>
<path id="Fill 12" fill-rule="evenodd" clip-rule="evenodd" d="M251.901 20.6111C251.628 19.7992 251.479 18.9331 251.479 18.0391C251.479 17.145 251.628 16.2789 251.901 15.467V12.0045H247.433C246.518 13.8188 246 15.8683 246 18.0391C246 20.2098 246.518 22.2595 247.433 24.0736L251.901 20.6111Z" fill="#FABB05"/>
<path id="Fill 14" fill-rule="evenodd" clip-rule="evenodd" d="M259.454 9.91964C261.436 9.91964 263.213 10.6009 264.615 11.9355V11.9374L268.455 8.10163C266.123 5.93272 263.082 4.60001 259.454 4.60001C254.197 4.60001 249.647 7.61447 247.433 12.0046L251.901 15.467C252.966 12.2827 255.944 9.91964 259.454 9.91964Z" fill="#E94235"/>
</g>
</g>
</g>
</g>
</svg>
