<svg width="330" height="38" viewBox="0 0 330 38" fill="none" xmlns="http://www.w3.org/2000/svg">
<g id="fr_order_with_Dark">
<path id="Text" d="M12.722 30.448C11.2473 30.448 9.87531 30.1867 8.60598 29.664C7.33664 29.1227 6.22598 28.376 5.27398 27.424C4.34064 26.472 3.60331 25.3613 3.06198 24.092C2.53931 22.8227 2.27797 21.4507 2.27797 19.976C2.27797 18.5013 2.53931 17.1293 3.06198 15.86C3.60331 14.5907 4.34064 13.48 5.27398 12.528C6.22598 11.576 7.33664 10.8387 8.60598 10.316C9.87531 9.77467 11.2473 9.504 12.722 9.504C14.29 9.504 15.69 9.79333 16.922 10.372C18.154 10.932 19.2273 11.7347 20.142 12.78L17.986 14.88C17.314 14.0773 16.5486 13.4707 15.69 13.06C14.85 12.6307 13.87 12.416 12.75 12.416C11.406 12.416 10.174 12.7333 9.05397 13.368C7.93398 13.984 7.03798 14.8613 6.36598 16C5.71264 17.12 5.38597 18.4453 5.38597 19.976C5.38597 21.5067 5.71264 22.8413 6.36598 23.98C7.03798 25.1 7.93398 25.9773 9.05397 26.612C10.174 27.228 11.406 27.536 12.75 27.536C13.9633 27.536 15.0366 27.284 15.97 26.78C16.922 26.276 17.762 25.5853 18.49 24.708L20.702 26.836C19.7686 27.9373 18.6206 28.8147 17.258 29.468C15.914 30.1213 14.402 30.448 12.722 30.448ZM30.1184 30.448C28.6437 30.448 27.3464 30.112 26.2264 29.44C25.1064 28.768 24.229 27.8627 23.5944 26.724C22.9597 25.5853 22.6424 24.2973 22.6424 22.86C22.6424 21.4413 22.9597 20.1627 23.5944 19.024C24.229 17.8667 25.1064 16.952 26.2264 16.28C27.3464 15.608 28.6437 15.272 30.1184 15.272C31.5744 15.272 32.8624 15.608 33.9824 16.28C35.1024 16.952 35.9797 17.8667 36.6144 19.024C37.249 20.1627 37.5664 21.4413 37.5664 22.86C37.5664 24.2973 37.249 25.5853 36.6144 26.724C35.9797 27.8627 35.1024 28.768 33.9824 29.44C32.8624 30.112 31.5744 30.448 30.1184 30.448ZM30.1184 27.676C30.9024 27.676 31.6304 27.4893 32.3024 27.116C32.9744 26.724 33.5157 26.1733 33.9264 25.464C34.3557 24.736 34.5704 23.868 34.5704 22.86C34.5704 21.852 34.3557 20.9933 33.9264 20.284C33.5157 19.556 32.9744 19.0053 32.3024 18.632C31.6304 18.24 30.9024 18.044 30.1184 18.044C29.3344 18.044 28.597 18.24 27.9064 18.632C27.2344 19.0053 26.6837 19.556 26.2544 20.284C25.8437 20.9933 25.6384 21.852 25.6384 22.86C25.6384 23.868 25.8437 24.736 26.2544 25.464C26.6837 26.1733 27.2344 26.724 27.9064 27.116C28.597 27.4893 29.3344 27.676 30.1184 27.676ZM40.3781 30V15.72H43.2341V17.68H43.4021C43.8127 16.9893 44.4101 16.42 45.1941 15.972C45.9781 15.5053 46.8461 15.272 47.7981 15.272C48.8621 15.272 49.7674 15.524 50.5141 16.028C51.2607 16.532 51.7927 17.1667 52.1101 17.932C52.5767 17.1853 53.2114 16.56 54.0141 16.056C54.8167 15.5333 55.7967 15.272 56.9541 15.272C58.6341 15.272 59.8847 15.7853 60.7061 16.812C61.5274 17.82 61.9381 19.164 61.9381 20.844V30H58.9421V21.348C58.9421 20.2093 58.6901 19.3787 58.1861 18.856C57.7007 18.3147 57.0194 18.044 56.1421 18.044C55.4514 18.044 54.8447 18.24 54.3221 18.632C53.7994 19.0053 53.3887 19.5187 53.0901 20.172C52.8101 20.8253 52.6701 21.5533 52.6701 22.356V30H49.6741V21.348C49.6741 20.2093 49.4221 19.3787 48.9181 18.856C48.4141 18.3147 47.7047 18.044 46.7901 18.044C46.1181 18.044 45.5301 18.24 45.0261 18.632C44.5221 19.024 44.1207 19.5467 43.8221 20.2C43.5421 20.8533 43.4021 21.5813 43.4021 22.384V30H40.3781ZM65.6429 30V15.72H68.4989V17.68H68.6669C69.0776 16.9893 69.6749 16.42 70.4589 15.972C71.2429 15.5053 72.1109 15.272 73.0629 15.272C74.1269 15.272 75.0322 15.524 75.7789 16.028C76.5256 16.532 77.0576 17.1667 77.3749 17.932C77.8416 17.1853 78.4762 16.56 79.2789 16.056C80.0816 15.5333 81.0616 15.272 82.2189 15.272C83.8989 15.272 85.1496 15.7853 85.9709 16.812C86.7922 17.82 87.2029 19.164 87.2029 20.844V30H84.2069V21.348C84.2069 20.2093 83.9549 19.3787 83.4509 18.856C82.9656 18.3147 82.2842 18.044 81.4069 18.044C80.7162 18.044 80.1096 18.24 79.5869 18.632C79.0642 19.0053 78.6536 19.5187 78.3549 20.172C78.0749 20.8253 77.9349 21.5533 77.9349 22.356V30H74.9389V21.348C74.9389 20.2093 74.6869 19.3787 74.1829 18.856C73.6789 18.3147 72.9696 18.044 72.0549 18.044C71.3829 18.044 70.7949 18.24 70.2909 18.632C69.7869 19.024 69.3856 19.5467 69.0869 20.2C68.8069 20.8533 68.6669 21.5813 68.6669 22.384V30H65.6429ZM95.251 30.448C94.2244 30.448 93.3097 30.252 92.507 29.86C91.7044 29.4493 91.079 28.88 90.631 28.152C90.183 27.424 89.959 26.5933 89.959 25.66C89.959 24.652 90.2204 23.7933 90.743 23.084C91.2844 22.356 92.003 21.8053 92.899 21.432C93.795 21.0587 94.7844 20.872 95.867 20.872C96.763 20.872 97.547 20.956 98.219 21.124C98.9097 21.292 99.4324 21.4693 99.787 21.656V20.9C99.787 19.9667 99.451 19.22 98.779 18.66C98.107 18.1 97.239 17.82 96.175 17.82C95.447 17.82 94.7564 17.988 94.103 18.324C93.4497 18.6413 92.927 19.08 92.535 19.64L90.463 18.044C91.079 17.1853 91.891 16.5133 92.899 16.028C93.9257 15.524 95.0457 15.272 96.259 15.272C98.331 15.272 99.927 15.7853 101.047 16.812C102.167 17.82 102.727 19.2387 102.727 21.068V30H99.787V28.236H99.619C99.2457 28.8147 98.6857 29.328 97.939 29.776C97.1924 30.224 96.2964 30.448 95.251 30.448ZM95.783 27.984C96.567 27.984 97.2577 27.7973 97.855 27.424C98.4524 27.0507 98.919 26.5653 99.255 25.968C99.6097 25.352 99.787 24.6893 99.787 23.98C99.3577 23.7373 98.8537 23.5413 98.275 23.392C97.6964 23.224 97.0804 23.14 96.427 23.14C95.195 23.14 94.3177 23.392 93.795 23.896C93.2724 24.3813 93.011 24.9787 93.011 25.688C93.011 26.36 93.263 26.9107 93.767 27.34C94.271 27.7693 94.943 27.984 95.783 27.984ZM106.356 30V15.72H109.212V17.68H109.38C109.791 16.9893 110.398 16.42 111.2 15.972C112.022 15.5053 112.918 15.272 113.888 15.272C115.643 15.272 116.959 15.7947 117.836 16.84C118.714 17.8853 119.152 19.2667 119.152 20.984V30H116.156V21.376C116.156 20.2187 115.867 19.3787 115.288 18.856C114.71 18.3147 113.954 18.044 113.02 18.044C112.292 18.044 111.658 18.2493 111.116 18.66C110.575 19.052 110.146 19.5747 109.828 20.228C109.53 20.8813 109.38 21.5813 109.38 22.328V30H106.356ZM129.002 30.448C127.714 30.448 126.548 30.1307 125.502 29.496C124.476 28.8427 123.654 27.9467 123.038 26.808C122.441 25.6507 122.142 24.3347 122.142 22.86C122.142 21.3853 122.441 20.0787 123.038 18.94C123.654 17.8013 124.476 16.9053 125.502 16.252C126.548 15.5987 127.714 15.272 129.002 15.272C130.104 15.272 131.046 15.5147 131.83 16C132.633 16.4853 133.221 17.036 133.594 17.652H133.762L133.594 15.664V9.952H136.59V30H133.762V28.096H133.594C133.221 28.712 132.633 29.2627 131.83 29.748C131.046 30.2147 130.104 30.448 129.002 30.448ZM129.45 27.676C130.197 27.676 130.897 27.48 131.55 27.088C132.222 26.696 132.754 26.1453 133.146 25.436C133.557 24.708 133.762 23.8493 133.762 22.86C133.762 21.8707 133.557 21.0213 133.146 20.312C132.754 19.584 132.222 19.024 131.55 18.632C130.897 18.24 130.197 18.044 129.45 18.044C128.704 18.044 128.004 18.24 127.35 18.632C126.697 19.024 126.165 19.584 125.754 20.312C125.344 21.0213 125.138 21.8707 125.138 22.86C125.138 23.8493 125.344 24.708 125.754 25.436C126.165 26.1453 126.697 26.696 127.35 27.088C128.004 27.48 128.704 27.676 129.45 27.676ZM146.84 30.448C145.44 30.448 144.189 30.1213 143.088 29.468C141.986 28.8147 141.118 27.9187 140.484 26.78C139.868 25.6413 139.56 24.344 139.56 22.888C139.56 21.5253 139.858 20.2653 140.456 19.108C141.053 17.9507 141.884 17.0267 142.948 16.336C144.03 15.6267 145.272 15.272 146.672 15.272C148.146 15.272 149.397 15.5893 150.424 16.224C151.469 16.8587 152.262 17.7267 152.804 18.828C153.345 19.9293 153.616 21.1707 153.616 22.552C153.616 22.7573 153.606 22.944 153.588 23.112C153.588 23.28 153.578 23.4107 153.56 23.504H142.528C142.677 24.9227 143.172 25.9867 144.012 26.696C144.87 27.4053 145.841 27.76 146.924 27.76C147.894 27.76 148.697 27.5453 149.332 27.116C149.966 26.668 150.47 26.1173 150.844 25.464L153.336 26.668C152.72 27.788 151.88 28.7027 150.816 29.412C149.752 30.1027 148.426 30.448 146.84 30.448ZM146.7 17.848C145.692 17.848 144.833 18.156 144.124 18.772C143.414 19.388 142.938 20.2093 142.696 21.236H150.62C150.582 20.7507 150.424 20.2467 150.144 19.724C149.864 19.2013 149.434 18.7627 148.856 18.408C148.296 18.0347 147.577 17.848 146.7 17.848ZM156.721 30V15.72H159.577V17.82H159.745C160.062 17.092 160.604 16.4947 161.369 16.028C162.153 15.5427 162.993 15.3 163.889 15.3C164.281 15.3 164.608 15.328 164.869 15.384C165.149 15.44 165.401 15.5053 165.625 15.58V18.716C165.27 18.5667 164.906 18.4453 164.533 18.352C164.178 18.2587 163.805 18.212 163.413 18.212C162.704 18.212 162.069 18.408 161.509 18.8C160.968 19.1733 160.538 19.6867 160.221 20.34C159.904 20.9747 159.745 21.6747 159.745 22.44V30H156.721ZM179.574 30.448C178.548 30.448 177.633 30.252 176.83 29.86C176.028 29.4493 175.402 28.88 174.954 28.152C174.506 27.424 174.282 26.5933 174.282 25.66C174.282 24.652 174.544 23.7933 175.066 23.084C175.608 22.356 176.326 21.8053 177.222 21.432C178.118 21.0587 179.108 20.872 180.19 20.872C181.086 20.872 181.87 20.956 182.542 21.124C183.233 21.292 183.756 21.4693 184.11 21.656V20.9C184.11 19.9667 183.774 19.22 183.102 18.66C182.43 18.1 181.562 17.82 180.498 17.82C179.77 17.82 179.08 17.988 178.426 18.324C177.773 18.6413 177.25 19.08 176.858 19.64L174.786 18.044C175.402 17.1853 176.214 16.5133 177.222 16.028C178.249 15.524 179.369 15.272 180.582 15.272C182.654 15.272 184.25 15.7853 185.37 16.812C186.49 17.82 187.05 19.2387 187.05 21.068V30H184.11V28.236H183.942C183.569 28.8147 183.009 29.328 182.262 29.776C181.516 30.224 180.62 30.448 179.574 30.448ZM180.106 27.984C180.89 27.984 181.581 27.7973 182.178 27.424C182.776 27.0507 183.242 26.5653 183.578 25.968C183.933 25.352 184.11 24.6893 184.11 23.98C183.681 23.7373 183.177 23.5413 182.598 23.392C182.02 23.224 181.404 23.14 180.75 23.14C179.518 23.14 178.641 23.392 178.118 23.896C177.596 24.3813 177.334 24.9787 177.334 25.688C177.334 26.36 177.586 26.9107 178.09 27.34C178.594 27.7693 179.266 27.984 180.106 27.984ZM194.746 30L188.838 15.72H192.198L196.202 26.108H196.342L200.43 15.72H203.734L197.77 30H194.746ZM212.105 30.448C210.705 30.448 209.455 30.1213 208.353 29.468C207.252 28.8147 206.384 27.9187 205.749 26.78C205.133 25.6413 204.825 24.344 204.825 22.888C204.825 21.5253 205.124 20.2653 205.721 19.108C206.319 17.9507 207.149 17.0267 208.213 16.336C209.296 15.6267 210.537 15.272 211.937 15.272C213.412 15.272 214.663 15.5893 215.689 16.224C216.735 16.8587 217.528 17.7267 218.069 18.828C218.611 19.9293 218.881 21.1707 218.881 22.552C218.881 22.7573 218.872 22.944 218.853 23.112C218.853 23.28 218.844 23.4107 218.825 23.504H207.793C207.943 24.9227 208.437 25.9867 209.277 26.696C210.136 27.4053 211.107 27.76 212.189 27.76C213.16 27.76 213.963 27.5453 214.597 27.116C215.232 26.668 215.736 26.1173 216.109 25.464L218.601 26.668C217.985 27.788 217.145 28.7027 216.081 29.412C215.017 30.1027 213.692 30.448 212.105 30.448ZM211.965 17.848C210.957 17.848 210.099 18.156 209.389 18.772C208.68 19.388 208.204 20.2093 207.961 21.236H215.885C215.848 20.7507 215.689 20.2467 215.409 19.724C215.129 19.2013 214.7 18.7627 214.121 18.408C213.561 18.0347 212.843 17.848 211.965 17.848ZM228.731 30.448C227.294 30.448 226.025 30.1213 224.923 29.468C223.822 28.8147 222.954 27.9187 222.319 26.78C221.685 25.6227 221.367 24.316 221.367 22.86C221.367 21.404 221.685 20.1067 222.319 18.968C222.954 17.8107 223.822 16.9053 224.923 16.252C226.025 15.5987 227.294 15.272 228.731 15.272C230.318 15.272 231.653 15.6267 232.735 16.336C233.837 17.0453 234.621 18.0067 235.087 19.22L232.343 20.34C231.69 18.8093 230.467 18.044 228.675 18.044C227.891 18.044 227.173 18.2493 226.519 18.66C225.866 19.052 225.343 19.612 224.951 20.34C224.559 21.0493 224.363 21.8893 224.363 22.86C224.363 23.8307 224.559 24.68 224.951 25.408C225.343 26.136 225.866 26.696 226.519 27.088C227.173 27.48 227.891 27.676 228.675 27.676C229.59 27.676 230.365 27.4707 230.999 27.06C231.634 26.6307 232.129 26.052 232.483 25.324L235.171 26.5C234.667 27.6387 233.865 28.5813 232.763 29.328C231.662 30.0747 230.318 30.448 228.731 30.448Z" fill="white"/>
<g id="GPay Logo (Dark)">
<g id="GPay">
<g id="Pay">
<path id="Fill 1" fill-rule="evenodd" clip-rule="evenodd" d="M286.529 9.34665V17.5128H291.565C292.765 17.5128 293.757 17.1096 294.541 16.3032C295.347 15.4988 295.75 14.5394 295.75 13.4288C295.75 12.3406 295.347 11.3924 294.541 10.586C293.757 9.75916 292.765 9.34479 291.565 9.34479H286.529V9.34665ZM286.529 20.3872V29.8599H283.521V6.47218H291.499C293.527 6.47218 295.248 7.14787 296.666 8.49738C298.105 9.84688 298.824 11.4913 298.824 13.4288C298.824 15.411 298.105 17.0667 296.666 18.3938C295.27 19.7227 293.547 20.3854 291.499 20.3854H286.529V20.3872Z" fill="white"/>
<path id="Fill 3" fill-rule="evenodd" clip-rule="evenodd" d="M301.864 24.9602C301.864 25.7442 302.197 26.3975 302.862 26.9201C303.527 27.4427 304.306 27.704 305.2 27.704C306.465 27.704 307.591 27.2354 308.584 26.3004C309.576 25.3634 310.071 24.264 310.071 23.0022C309.133 22.2612 307.825 21.8916 306.147 21.8916C304.925 21.8916 303.907 22.1866 303.09 22.7745C302.273 23.3623 301.864 24.0886 301.864 24.9602ZM305.756 13.3317C307.98 13.3317 309.735 13.9253 311.022 15.1124C312.308 16.2995 312.95 17.9271 312.95 19.9952V29.8599H310.073V27.6387H309.942C308.699 29.4677 307.042 30.3825 304.972 30.3825C303.206 30.3825 301.728 29.8599 300.541 28.8146C299.353 27.7694 298.759 26.4628 298.759 24.8949C298.759 23.2393 299.385 21.9232 300.638 20.9434C301.892 19.9635 303.565 19.4726 305.658 19.4726C307.444 19.4726 308.916 19.7993 310.071 20.4525V19.7657C310.071 18.7204 309.656 17.8338 308.829 17.104C307.999 16.3742 307.031 16.0102 305.919 16.0102C304.239 16.0102 302.911 16.7176 301.93 18.1343L299.28 16.4675C300.741 14.377 302.899 13.3317 305.756 13.3317Z" fill="white"/>
<path id="Fill 5" fill-rule="evenodd" clip-rule="evenodd" d="M329.463 13.8543L319.424 36.9154H316.318L320.046 28.8464L313.44 13.8543H316.71L321.484 25.3522H321.55L326.193 13.8543H329.463Z" fill="white"/>
</g>
<g id="G">
<path id="Fill 8" fill-rule="evenodd" clip-rule="evenodd" d="M274.373 18.3452C274.373 17.3989 274.293 16.4861 274.141 15.6126H261.454V20.7885H268.72C268.408 22.4757 267.465 23.9112 266.033 24.8725V28.2341H270.37C272.91 25.8935 274.373 22.4348 274.373 18.3452Z" fill="#4285F4"/>
<path id="Fill 10" fill-rule="evenodd" clip-rule="evenodd" d="M261.454 31.4782C265.084 31.4782 268.141 30.2873 270.37 28.2341L266.033 24.8725C264.826 25.6844 263.272 26.1585 261.454 26.1585C257.944 26.1585 254.966 23.7955 253.901 20.6112H249.433V24.0736C251.647 28.4637 256.197 31.4782 261.454 31.4782Z" fill="#34A853"/>
<path id="Fill 12" fill-rule="evenodd" clip-rule="evenodd" d="M253.901 20.6111C253.628 19.7992 253.479 18.9331 253.479 18.0391C253.479 17.145 253.628 16.2789 253.901 15.467V12.0045H249.433C248.518 13.8188 248 15.8683 248 18.0391C248 20.2098 248.518 22.2595 249.433 24.0736L253.901 20.6111Z" fill="#FABB05"/>
<path id="Fill 14" fill-rule="evenodd" clip-rule="evenodd" d="M261.454 9.91964C263.436 9.91964 265.213 10.6009 266.615 11.9355V11.9374L270.455 8.10163C268.123 5.93272 265.082 4.60001 261.454 4.60001C256.197 4.60001 251.647 7.61447 249.433 12.0046L253.901 15.467C254.966 12.2827 257.944 9.91964 261.454 9.91964Z" fill="#E94235"/>
</g>
</g>
</g>
</g>
</svg>
