<svg width="188" height="21" viewBox="0 0 188 21" fill="none" xmlns="http://www.w3.org/2000/svg">
<g id="fr_order_with_Pay_NBG">
<path id="Left Text" d="M6.69113 15.2566C5.84846 15.2566 5.06446 15.1073 4.33913 14.8086C3.61379 14.4993 2.97913 14.0779 2.43513 13.5446C1.90179 13.0006 1.48046 12.3659 1.17113 11.6406C0.872461 10.9046 0.723128 10.1153 0.723128 9.27261C0.723128 8.41928 0.872461 7.62994 1.17113 6.90461C1.48046 6.17928 1.90179 5.54994 2.43513 5.01661C2.97913 4.47261 3.61379 4.05128 4.33913 3.75261C5.06446 3.44328 5.84846 3.28861 6.69113 3.28861C7.28846 3.28861 7.84313 3.36328 8.35513 3.51261C8.86713 3.66194 9.33646 3.87528 9.76313 4.15261C10.1898 4.42994 10.5791 4.76594 10.9311 5.16061L9.69913 6.36061C9.44313 6.05128 9.1658 5.79528 8.86713 5.59261C8.56846 5.37928 8.2378 5.21928 7.87513 5.11261C7.52313 5.00594 7.1338 4.95261 6.70713 4.95261C5.93913 4.95261 5.23513 5.13394 4.59513 5.49661C3.95513 5.84861 3.44313 6.34461 3.05913 6.98461C2.68579 7.62461 2.49913 8.38728 2.49913 9.27261C2.49913 10.1473 2.68579 10.9099 3.05913 11.5606C3.44313 12.2006 3.95513 12.7019 4.59513 13.0646C5.23513 13.4166 5.93913 13.5926 6.70713 13.5926C7.17646 13.5926 7.60313 13.5286 7.98713 13.4006C8.38179 13.2726 8.74446 13.0859 9.07513 12.8406C9.4058 12.5953 9.7098 12.3073 9.98713 11.9766L11.2511 13.1926C10.8991 13.6086 10.4885 13.9713 10.0191 14.2806C9.5498 14.5899 9.0378 14.8299 8.48313 15.0006C7.92846 15.1713 7.33113 15.2566 6.69113 15.2566ZM16.6105 15.2566C15.7678 15.2566 15.0265 15.0646 14.3865 14.6806C13.7465 14.2966 13.2452 13.7793 12.8825 13.1286C12.5198 12.4673 12.3385 11.7313 12.3385 10.9206C12.3385 10.1099 12.5198 9.37928 12.8825 8.72861C13.2452 8.06728 13.7465 7.54461 14.3865 7.16061C15.0265 6.77661 15.7678 6.58461 16.6105 6.58461C17.4425 6.58461 18.1785 6.78194 18.8185 7.17661C19.4585 7.56061 19.9598 8.07794 20.3225 8.72861C20.6852 9.37928 20.8665 10.1099 20.8665 10.9206C20.8665 11.7313 20.6852 12.4673 20.3225 13.1286C19.9598 13.7793 19.4585 14.2966 18.8185 14.6806C18.1785 15.0646 17.4425 15.2566 16.6105 15.2566ZM16.6105 13.6726C17.0585 13.6726 17.4745 13.5659 17.8585 13.3526C18.2425 13.1286 18.5518 12.8139 18.7865 12.4086C19.0318 11.9926 19.1545 11.4966 19.1545 10.9206C19.1545 10.3446 19.0318 9.85394 18.7865 9.44861C18.5518 9.03261 18.2425 8.71794 17.8585 8.50461C17.4745 8.28061 17.0585 8.16861 16.6105 8.16861C16.1625 8.16861 15.7412 8.28061 15.3465 8.50461C14.9625 8.71794 14.6478 9.03261 14.4025 9.44861C14.1678 9.85394 14.0505 10.3446 14.0505 10.9206C14.0505 11.4966 14.1678 11.9926 14.4025 12.4086C14.6478 12.8139 14.9678 13.1286 15.3625 13.3526C15.7572 13.5659 16.1732 13.6726 16.6105 13.6726ZM22.4518 15.0006V6.84061H24.0838V7.96061H24.1798C24.3398 7.69394 24.5478 7.45928 24.8038 7.25661C25.0598 7.05394 25.3478 6.89394 25.6678 6.77661C25.9984 6.64861 26.3398 6.58461 26.6918 6.58461C27.2998 6.58461 27.8171 6.72861 28.2438 7.01661C28.6704 7.30461 28.9744 7.66728 29.1558 8.10461C29.4224 7.67794 29.7851 7.32061 30.2438 7.03261C30.7024 6.73394 31.2624 6.58461 31.9238 6.58461C32.8838 6.58461 33.5984 6.87794 34.0678 7.46461C34.5371 8.04061 34.7718 8.80861 34.7718 9.76861V15.0006H33.0598V10.0566C33.0598 9.39528 32.9158 8.91528 32.6278 8.61661C32.3504 8.31794 31.9611 8.16861 31.4598 8.16861C31.0651 8.16861 30.7184 8.28061 30.4198 8.50461C30.1211 8.71794 29.8864 9.01128 29.7158 9.38461C29.5558 9.75794 29.4758 10.1739 29.4758 10.6326V15.0006H27.7638V10.0566C27.7638 9.40594 27.6198 8.93128 27.3318 8.63261C27.0438 8.32328 26.6384 8.16861 26.1158 8.16861C25.7424 8.16861 25.4064 8.28061 25.1078 8.50461C24.8198 8.72861 24.5904 9.02728 24.4198 9.40061C24.2598 9.77394 24.1798 10.1899 24.1798 10.6486V15.0006H22.4518ZM36.8674 15.0006V6.84061H38.4994V7.96061H38.5954C38.7554 7.69394 38.9634 7.45928 39.2194 7.25661C39.4754 7.05394 39.7634 6.89394 40.0834 6.77661C40.414 6.64861 40.7554 6.58461 41.1074 6.58461C41.7154 6.58461 42.2327 6.72861 42.6594 7.01661C43.086 7.30461 43.39 7.66728 43.5714 8.10461C43.838 7.67794 44.2007 7.32061 44.6594 7.03261C45.118 6.73394 45.678 6.58461 46.3394 6.58461C47.2994 6.58461 48.014 6.87794 48.4834 7.46461C48.9527 8.04061 49.1874 8.80861 49.1874 9.76861V15.0006H47.4754V10.0566C47.4754 9.39528 47.3314 8.91528 47.0434 8.61661C46.766 8.31794 46.3767 8.16861 45.8754 8.16861C45.4807 8.16861 45.134 8.28061 44.8354 8.50461C44.5367 8.71794 44.302 9.01128 44.1314 9.38461C43.9714 9.75794 43.8914 10.1739 43.8914 10.6326V15.0006H42.1794V10.0566C42.1794 9.40594 42.0354 8.93128 41.7474 8.63261C41.4594 8.32328 41.054 8.16861 40.5314 8.16861C40.158 8.16861 39.822 8.28061 39.5234 8.50461C39.2354 8.72861 39.006 9.02728 38.8354 9.40061C38.6754 9.77394 38.5954 10.1899 38.5954 10.6486V15.0006H36.8674ZM53.7649 15.2566C53.1782 15.2566 52.6555 15.1393 52.1969 14.9046C51.7489 14.6699 51.3915 14.3499 51.1249 13.9446C50.8689 13.5286 50.7409 13.0539 50.7409 12.5206C50.7409 11.9339 50.8902 11.4379 51.1889 11.0326C51.4982 10.6273 51.9089 10.3179 52.4209 10.1046C52.9329 9.89128 53.4982 9.78461 54.1169 9.78461C54.4582 9.78461 54.7729 9.81128 55.0609 9.86461C55.3595 9.90728 55.6155 9.96061 55.8289 10.0246C56.0529 10.0886 56.2289 10.1579 56.3569 10.2326V9.80061C56.3569 9.26728 56.1649 8.84061 55.7809 8.52061C55.3969 8.20061 54.9009 8.04061 54.2929 8.04061C53.8769 8.04061 53.4822 8.13661 53.1089 8.32861C52.7355 8.50994 52.4369 8.76061 52.2129 9.08061L51.0289 8.16861C51.2635 7.83794 51.5462 7.55528 51.8769 7.32061C52.2182 7.08594 52.5969 6.90461 53.0129 6.77661C53.4395 6.64861 53.8822 6.58461 54.3409 6.58461C55.5249 6.58461 56.4369 6.87794 57.0769 7.46461C57.7169 8.04061 58.0369 8.85128 58.0369 9.89661V15.0006H56.3569V13.9926H56.2609C56.1222 14.2059 55.9302 14.4086 55.6849 14.6006C55.4502 14.7926 55.1675 14.9473 54.8369 15.0646C54.5169 15.1926 54.1595 15.2566 53.7649 15.2566ZM54.0689 13.8486C54.5169 13.8486 54.9115 13.7419 55.2529 13.5286C55.6049 13.3153 55.8769 13.0379 56.0689 12.6966C56.2609 12.3446 56.3569 11.9659 56.3569 11.5606C56.1222 11.4219 55.8342 11.3099 55.4929 11.2246C55.1622 11.1286 54.8102 11.0806 54.4369 11.0806C53.7329 11.0806 53.2315 11.2193 52.9329 11.4966C52.6342 11.7739 52.4849 12.1206 52.4849 12.5366C52.4849 12.9206 52.6289 13.2353 52.9169 13.4806C53.2049 13.7259 53.5889 13.8486 54.0689 13.8486ZM60.0893 15.0006V6.84061H61.7213V7.96061H61.8173C62.0519 7.56594 62.3986 7.24061 62.8573 6.98461C63.3266 6.71794 63.8386 6.58461 64.3933 6.58461C65.3959 6.58461 66.1479 6.88328 66.6493 7.48061C67.1506 8.06728 67.4013 8.85661 67.4013 9.84861V15.0006H65.6893V10.0726C65.6893 9.41128 65.5239 8.93128 65.1933 8.63261C64.8626 8.32328 64.4306 8.16861 63.8973 8.16861C63.4813 8.16861 63.1186 8.28594 62.8093 8.52061C62.4999 8.74461 62.2546 9.04328 62.0733 9.41661C61.9026 9.78994 61.8173 10.1899 61.8173 10.6166V15.0006H60.0893ZM73.0085 15.2566C72.2725 15.2566 71.6058 15.0699 71.0085 14.6966C70.4112 14.3233 69.9418 13.8113 69.6005 13.1606C69.2592 12.5099 69.0885 11.7633 69.0885 10.9206C69.0885 10.0779 69.2592 9.33128 69.6005 8.68061C69.9418 8.02994 70.4112 7.51794 71.0085 7.14461C71.6058 6.77128 72.2725 6.58461 73.0085 6.58461C73.4352 6.58461 73.8192 6.64861 74.1605 6.77661C74.5018 6.90461 74.7952 7.07528 75.0405 7.28861C75.2965 7.49128 75.4938 7.70994 75.6325 7.94461H75.7285L75.6325 6.80861V3.54461H77.3445V15.0006H75.7285V13.9126H75.6325C75.4938 14.1366 75.2965 14.3553 75.0405 14.5686C74.7952 14.7713 74.5018 14.9366 74.1605 15.0646C73.8192 15.1926 73.4352 15.2566 73.0085 15.2566ZM73.2645 13.6726C73.6912 13.6726 74.0912 13.5606 74.4645 13.3366C74.8485 13.1126 75.1525 12.7979 75.3765 12.3926C75.6112 11.9766 75.7285 11.4859 75.7285 10.9206C75.7285 10.3553 75.6112 9.86994 75.3765 9.46461C75.1525 9.04861 74.8485 8.72861 74.4645 8.50461C74.0912 8.28061 73.6912 8.16861 73.2645 8.16861C72.8378 8.16861 72.4378 8.28061 72.0645 8.50461C71.6912 8.72861 71.3872 9.04861 71.1525 9.46461C70.9178 9.86994 70.8005 10.3553 70.8005 10.9206C70.8005 11.4753 70.9178 11.9606 71.1525 12.3766C71.3872 12.7926 71.6912 13.1126 72.0645 13.3366C72.4378 13.5606 72.8378 13.6726 73.2645 13.6726ZM83.1798 15.2566C82.3798 15.2566 81.6651 15.0699 81.0358 14.6966C80.4064 14.3233 79.9104 13.8113 79.5478 13.1606C79.1958 12.5099 79.0198 11.7686 79.0198 10.9366C79.0198 10.1579 79.1904 9.43794 79.5318 8.77661C79.8731 8.11528 80.3478 7.58728 80.9558 7.19261C81.5744 6.78728 82.2838 6.58461 83.0838 6.58461C83.9264 6.58461 84.6411 6.76594 85.2278 7.12861C85.8251 7.49128 86.2784 7.98728 86.5878 8.61661C86.8971 9.24594 87.0518 9.95528 87.0518 10.7446C87.0518 10.8619 87.0464 10.9686 87.0358 11.0646C87.0358 11.1606 87.0304 11.2353 87.0198 11.2886H80.7158C80.7584 11.7366 80.8704 12.1259 81.0518 12.4566C81.2864 12.8726 81.5958 13.1873 81.9798 13.4006C82.3638 13.6139 82.7798 13.7206 83.2278 13.7206C83.7718 13.7206 84.2251 13.5979 84.5878 13.3526C84.9611 13.0966 85.2544 12.7819 85.4678 12.4086L86.8918 13.0966C86.5398 13.7366 86.0598 14.2593 85.4518 14.6646C84.8438 15.0593 84.0864 15.2566 83.1798 15.2566ZM80.8118 9.99261H85.3398C85.3291 9.78994 85.2758 9.57661 85.1798 9.35261C85.0838 9.11794 84.9451 8.90461 84.7638 8.71261C84.5824 8.52061 84.3531 8.36594 84.0758 8.24861C83.7984 8.12061 83.4731 8.05661 83.0998 8.05661C82.6304 8.05661 82.2144 8.17928 81.8518 8.42461C81.4891 8.65928 81.2064 8.98994 81.0038 9.41661C80.9184 9.59794 80.8544 9.78994 80.8118 9.99261ZM88.8049 15.0006V6.84061H90.4369V8.04061H90.5329C90.6609 7.76328 90.8422 7.51794 91.0769 7.30461C91.3222 7.09128 91.5995 6.92061 91.9089 6.79261C92.2289 6.66461 92.5595 6.60061 92.9009 6.60061C93.1249 6.60061 93.3115 6.61661 93.4609 6.64861C93.6209 6.66994 93.7649 6.70728 93.8929 6.76061V8.55261C93.6902 8.46728 93.4822 8.39794 93.2689 8.34461C93.0662 8.29128 92.8529 8.26461 92.6289 8.26461C92.2235 8.26461 91.8609 8.37661 91.5409 8.60061C91.2315 8.81394 90.9862 9.10194 90.8049 9.46461C90.6235 9.82728 90.5329 10.2326 90.5329 10.6806V15.0006H88.8049ZM101.821 15.2566C101.234 15.2566 100.712 15.1393 100.253 14.9046C99.8051 14.6699 99.4478 14.3499 99.1811 13.9446C98.9251 13.5286 98.7971 13.0539 98.7971 12.5206C98.7971 11.9339 98.9465 11.4379 99.2451 11.0326C99.5545 10.6273 99.9651 10.3179 100.477 10.1046C100.989 9.89128 101.554 9.78461 102.173 9.78461C102.514 9.78461 102.829 9.81128 103.117 9.86461C103.416 9.90728 103.672 9.96061 103.885 10.0246C104.109 10.0886 104.285 10.1579 104.413 10.2326V9.80061C104.413 9.26728 104.221 8.84061 103.837 8.52061C103.453 8.20061 102.957 8.04061 102.349 8.04061C101.933 8.04061 101.538 8.13661 101.165 8.32861C100.792 8.50994 100.493 8.76061 100.269 9.08061L99.0851 8.16861C99.3198 7.83794 99.6025 7.55528 99.9331 7.32061C100.274 7.08594 100.653 6.90461 101.069 6.77661C101.496 6.64861 101.938 6.58461 102.397 6.58461C103.581 6.58461 104.493 6.87794 105.133 7.46461C105.773 8.04061 106.093 8.85128 106.093 9.89661V15.0006H104.413V13.9926H104.317C104.178 14.2059 103.986 14.4086 103.741 14.6006C103.506 14.7926 103.224 14.9473 102.893 15.0646C102.573 15.1926 102.216 15.2566 101.821 15.2566ZM102.125 13.8486C102.573 13.8486 102.968 13.7419 103.309 13.5286C103.661 13.3153 103.933 13.0379 104.125 12.6966C104.317 12.3446 104.413 11.9659 104.413 11.5606C104.178 11.4219 103.89 11.3099 103.549 11.2246C103.218 11.1286 102.866 11.0806 102.493 11.0806C101.789 11.0806 101.288 11.2193 100.989 11.4966C100.69 11.7739 100.541 12.1206 100.541 12.5366C100.541 12.9206 100.685 13.2353 100.973 13.4806C101.261 13.7259 101.645 13.8486 102.125 13.8486ZM110.469 15.0006L107.093 6.84061H109.013L111.301 12.7766H111.381L113.717 6.84061H115.605L112.197 15.0006H110.469ZM120.367 15.2566C119.567 15.2566 118.853 15.0699 118.223 14.6966C117.594 14.3233 117.098 13.8113 116.735 13.1606C116.383 12.5099 116.207 11.7686 116.207 10.9366C116.207 10.1579 116.378 9.43794 116.719 8.77661C117.061 8.11528 117.535 7.58728 118.143 7.19261C118.762 6.78728 119.471 6.58461 120.271 6.58461C121.114 6.58461 121.829 6.76594 122.415 7.12861C123.013 7.49128 123.466 7.98728 123.775 8.61661C124.085 9.24594 124.239 9.95528 124.239 10.7446C124.239 10.8619 124.234 10.9686 124.223 11.0646C124.223 11.1606 124.218 11.2353 124.207 11.2886H117.903C117.946 11.7366 118.058 12.1259 118.239 12.4566C118.474 12.8726 118.783 13.1873 119.167 13.4006C119.551 13.6139 119.967 13.7206 120.415 13.7206C120.959 13.7206 121.413 13.5979 121.775 13.3526C122.149 13.0966 122.442 12.7819 122.655 12.4086L124.079 13.0966C123.727 13.7366 123.247 14.2593 122.639 14.6646C122.031 15.0593 121.274 15.2566 120.367 15.2566ZM117.999 9.99261H122.527C122.517 9.78994 122.463 9.57661 122.367 9.35261C122.271 9.11794 122.133 8.90461 121.951 8.71261C121.77 8.52061 121.541 8.36594 121.263 8.24861C120.986 8.12061 120.661 8.05661 120.287 8.05661C119.818 8.05661 119.402 8.17928 119.039 8.42461C118.677 8.65928 118.394 8.98994 118.191 9.41661C118.106 9.59794 118.042 9.78994 117.999 9.99261ZM129.847 15.2566C129.025 15.2566 128.295 15.0699 127.655 14.6966C127.025 14.3233 126.529 13.8113 126.167 13.1606C125.815 12.4993 125.639 11.7526 125.639 10.9206C125.639 10.0886 125.815 9.34728 126.167 8.69661C126.529 8.04594 127.025 7.53394 127.655 7.16061C128.295 6.77661 129.025 6.58461 129.847 6.58461C130.753 6.58461 131.516 6.78728 132.135 7.19261C132.764 7.59794 133.212 8.14728 133.479 8.84061L131.911 9.48061C131.719 9.04328 131.441 8.71794 131.079 8.50461C130.727 8.28061 130.305 8.16861 129.815 8.16861C129.367 8.16861 128.956 8.28594 128.583 8.52061C128.209 8.74461 127.911 9.05928 127.687 9.46461C127.463 9.86994 127.351 10.3553 127.351 10.9206C127.351 11.4753 127.463 11.9606 127.687 12.3766C127.911 12.7926 128.209 13.1126 128.583 13.3366C128.956 13.5606 129.367 13.6726 129.815 13.6726C130.337 13.6726 130.78 13.5553 131.143 13.3206C131.505 13.0859 131.788 12.7553 131.991 12.3286L133.527 13.0006C133.228 13.6513 132.764 14.1899 132.135 14.6166C131.516 15.0433 130.753 15.2566 129.847 15.2566Z" fill="white"/>
<g id="GPay (Dark)">
<g id="GPay">
<g id="Pay">
<path id="Fill 1" fill-rule="evenodd" clip-rule="evenodd" d="M162.356 3.42339V8.16175H165.278C165.974 8.16175 166.55 7.92781 167.005 7.45993C167.473 6.99313 167.707 6.43644 167.707 5.79203C167.707 5.16061 167.473 4.61041 167.005 4.14254C166.55 3.66274 165.974 3.4223 165.278 3.4223H162.356V3.42339ZM162.356 9.82966V15.3262H160.611V1.75549H165.24C166.417 1.75549 167.415 2.14756 168.238 2.93061C169.073 3.71365 169.491 4.66782 169.491 5.79203C169.491 6.94224 169.073 7.90291 168.238 8.67296C167.428 9.44409 166.429 9.82858 165.24 9.82858H162.356V9.82966Z" fill="white"/>
<path id="Fill 3" fill-rule="evenodd" clip-rule="evenodd" d="M171.255 12.4831C171.255 12.9379 171.448 13.317 171.834 13.6203C172.22 13.9235 172.672 14.0752 173.19 14.0752C173.924 14.0752 174.578 13.8032 175.153 13.2607C175.729 12.717 176.017 12.0791 176.017 11.3469C175.472 10.917 174.713 10.7025 173.74 10.7025C173.031 10.7025 172.44 10.8736 171.966 11.2148C171.492 11.5559 171.255 11.9773 171.255 12.4831M173.513 5.73566C174.803 5.73566 175.821 6.08007 176.569 6.76889C177.314 7.45771 177.687 8.40213 177.687 9.60216V15.3261H176.018V14.0373H175.942C175.221 15.0985 174.259 15.6294 173.058 15.6294C172.033 15.6294 171.176 15.3261 170.487 14.7196C169.797 14.1131 169.453 13.3549 169.453 12.4452C169.453 11.4845 169.816 10.7208 170.543 10.1523C171.271 9.58375 172.241 9.2989 173.456 9.2989C174.492 9.2989 175.346 9.48844 176.017 9.86751V9.46894C176.017 8.86243 175.776 8.34798 175.296 7.92451C174.814 7.50103 174.252 7.28984 173.607 7.28984C172.633 7.28984 171.862 7.70032 171.293 8.52235L169.755 7.55519C170.603 6.34217 171.855 5.73566 173.513 5.73566" fill="white"/>
<path id="Fill 5" fill-rule="evenodd" clip-rule="evenodd" d="M187.269 6.03894L181.443 19.4201H179.641L181.804 14.738L177.971 6.03894H179.869L182.639 12.7106H182.677L185.371 6.03894H187.269Z" fill="white"/>
</g>
<g id="G">
<path id="Fill 8" fill-rule="evenodd" clip-rule="evenodd" d="M155.303 8.64473C155.303 8.09563 155.256 7.56601 155.168 7.05914H147.806V10.0625H152.023C151.842 11.0414 151.294 11.8744 150.464 12.4322V14.3828H152.98C154.454 13.0246 155.303 11.0177 155.303 8.64473" fill="#4285F4"/>
<path id="Fill 10" fill-rule="evenodd" clip-rule="evenodd" d="M147.806 16.2651C149.913 16.2651 151.687 15.5741 152.98 14.3828L150.464 12.4322C149.763 12.9033 148.861 13.1784 147.806 13.1784C145.77 13.1784 144.042 11.8073 143.424 9.95959H140.832V11.9687C142.116 14.516 144.757 16.2651 147.806 16.2651" fill="#34A853"/>
<path id="Fill 12" fill-rule="evenodd" clip-rule="evenodd" d="M143.424 9.9596C143.266 9.48847 143.179 8.98593 143.179 8.46715C143.179 7.94837 143.266 7.44583 143.424 6.9747V4.96564H140.832C140.3 6.01837 140 7.20756 140 8.46715C140 9.72674 140.3 10.916 140.832 11.9687L143.424 9.9596Z" fill="#FABB05"/>
<path id="Fill 14" fill-rule="evenodd" clip-rule="evenodd" d="M147.806 3.75583C148.957 3.75583 149.988 4.15115 150.801 4.92553V4.92661L153.029 2.70094C151.676 1.44243 149.912 0.669128 147.806 0.669128C144.757 0.669128 142.116 2.41826 140.832 4.9656L143.424 6.97467C144.042 5.12698 145.77 3.75583 147.806 3.75583" fill="#E94235"/>
</g>
</g>
</g>
</g>
</svg>
