<svg width="137" height="21" viewBox="0 0 137 21" fill="none" xmlns="http://www.w3.org/2000/svg">
<g id="fr_pay_with_Pay_NBG">
<path id="Left Text" d="M2.05538 15.0006V3.54461H5.99138C6.68471 3.54461 7.31404 3.69394 7.87938 3.99261C8.44471 4.28061 8.89271 4.69128 9.22338 5.22461C9.56471 5.74728 9.73538 6.35528 9.73538 7.04861C9.73538 7.73128 9.56471 8.33928 9.22338 8.87261C8.89271 9.40594 8.44471 9.82194 7.87938 10.1206C7.31404 10.4086 6.68471 10.5526 5.99138 10.5526H3.81538V15.0006H2.05538ZM3.81538 8.88861H6.03938C6.45538 8.88861 6.80738 8.80328 7.09538 8.63261C7.38338 8.45128 7.60204 8.22194 7.75138 7.94461C7.91138 7.65661 7.99138 7.35794 7.99138 7.04861C7.99138 6.73928 7.91138 6.44594 7.75138 6.16861C7.60204 5.89128 7.38338 5.66194 7.09538 5.48061C6.80738 5.29928 6.45538 5.20861 6.03938 5.20861H3.81538V8.88861ZM13.6493 15.2566C13.0626 15.2566 12.5399 15.1393 12.0813 14.9046C11.6333 14.6699 11.2759 14.3499 11.0093 13.9446C10.7533 13.5286 10.6253 13.0539 10.6253 12.5206C10.6253 11.9339 10.7746 11.4379 11.0733 11.0326C11.3826 10.6273 11.7933 10.3179 12.3053 10.1046C12.8173 9.89128 13.3826 9.78461 14.0013 9.78461C14.3426 9.78461 14.6573 9.81128 14.9453 9.86461C15.2439 9.90728 15.4999 9.96061 15.7133 10.0246C15.9373 10.0886 16.1133 10.1579 16.2413 10.2326V9.80061C16.2413 9.26728 16.0493 8.84061 15.6653 8.52061C15.2813 8.20061 14.7853 8.04061 14.1773 8.04061C13.7613 8.04061 13.3666 8.13661 12.9933 8.32861C12.6199 8.50994 12.3213 8.76061 12.0973 9.08061L10.9133 8.16861C11.1479 7.83794 11.4306 7.55528 11.7613 7.32061C12.1026 7.08594 12.4813 6.90461 12.8973 6.77661C13.3239 6.64861 13.7666 6.58461 14.2253 6.58461C15.4093 6.58461 16.3213 6.87794 16.9613 7.46461C17.6013 8.04061 17.9213 8.85128 17.9213 9.89661V15.0006H16.2413V13.9926H16.1453C16.0066 14.2059 15.8146 14.4086 15.5693 14.6006C15.3346 14.7926 15.0519 14.9473 14.7213 15.0646C14.4013 15.1926 14.0439 15.2566 13.6493 15.2566ZM13.9533 13.8486C14.4013 13.8486 14.7959 13.7419 15.1373 13.5286C15.4893 13.3153 15.7613 13.0379 15.9533 12.6966C16.1453 12.3446 16.2413 11.9659 16.2413 11.5606C16.0066 11.4219 15.7186 11.3099 15.3773 11.2246C15.0466 11.1286 14.6946 11.0806 14.3213 11.0806C13.6173 11.0806 13.1159 11.2193 12.8173 11.4966C12.5186 11.7739 12.3693 12.1206 12.3693 12.5366C12.3693 12.9206 12.5133 13.2353 12.8013 13.4806C13.0893 13.7259 13.4733 13.8486 13.9533 13.8486ZM22.6014 18.0566C22.5694 18.1313 22.532 18.2059 22.4894 18.2806C22.4574 18.3659 22.436 18.4246 22.4254 18.4566H20.5854C20.6387 18.3393 20.7134 18.1739 20.8094 17.9606C20.916 17.7473 21.0174 17.5339 21.1134 17.3206C21.1774 17.1819 21.2414 17.0326 21.3054 16.8726C21.38 16.7126 21.4547 16.5473 21.5294 16.3766C21.6147 16.2059 21.6947 16.0406 21.7694 15.8806L22.3774 14.5526L18.9694 6.84061H20.8894L23.2254 12.4086H23.3054L25.5614 6.84061H27.4654L23.2414 16.5686C23.1667 16.7499 23.0814 16.9419 22.9854 17.1446C22.9 17.3473 22.82 17.5286 22.7454 17.6886C22.6814 17.8593 22.6334 17.9819 22.6014 18.0566ZM32.1798 15.2566C31.3798 15.2566 30.6651 15.0699 30.0358 14.6966C29.4064 14.3233 28.9104 13.8113 28.5478 13.1606C28.1958 12.5099 28.0198 11.7686 28.0198 10.9366C28.0198 10.1579 28.1904 9.43794 28.5318 8.77661C28.8731 8.11528 29.3478 7.58728 29.9558 7.19261C30.5744 6.78728 31.2838 6.58461 32.0838 6.58461C32.9264 6.58461 33.6411 6.76594 34.2278 7.12861C34.8251 7.49128 35.2784 7.98728 35.5878 8.61661C35.8971 9.24594 36.0518 9.95528 36.0518 10.7446C36.0518 10.8619 36.0464 10.9686 36.0358 11.0646C36.0358 11.1606 36.0304 11.2353 36.0198 11.2886H29.7158C29.7584 11.7366 29.8704 12.1259 30.0518 12.4566C30.2864 12.8726 30.5958 13.1873 30.9798 13.4006C31.3638 13.6139 31.7798 13.7206 32.2278 13.7206C32.7718 13.7206 33.2251 13.5979 33.5878 13.3526C33.9611 13.0966 34.2544 12.7819 34.4678 12.4086L35.8918 13.0966C35.5398 13.7366 35.0598 14.2593 34.4518 14.6646C33.8438 15.0593 33.0864 15.2566 32.1798 15.2566ZM29.8118 9.99261H34.3398C34.3291 9.78994 34.2758 9.57661 34.1798 9.35261C34.0838 9.11794 33.9451 8.90461 33.7638 8.71261C33.5824 8.52061 33.3531 8.36594 33.0758 8.24861C32.7984 8.12061 32.4731 8.05661 32.0998 8.05661C31.6304 8.05661 31.2144 8.17928 30.8518 8.42461C30.4891 8.65928 30.2064 8.98994 30.0038 9.41661C29.9184 9.59794 29.8544 9.78994 29.8118 9.99261ZM37.8049 15.0006V6.84061H39.4369V8.04061H39.5329C39.6609 7.76328 39.8422 7.51794 40.0769 7.30461C40.3222 7.09128 40.5995 6.92061 40.9089 6.79261C41.2289 6.66461 41.5595 6.60061 41.9009 6.60061C42.1249 6.60061 42.3115 6.61661 42.4609 6.64861C42.6209 6.66994 42.7649 6.70728 42.8929 6.76061V8.55261C42.6902 8.46728 42.4822 8.39794 42.2689 8.34461C42.0662 8.29128 41.8529 8.26461 41.6289 8.26461C41.2235 8.26461 40.8609 8.37661 40.5409 8.60061C40.2315 8.81394 39.9862 9.10194 39.8049 9.46461C39.6235 9.82728 39.5329 10.2326 39.5329 10.6806V15.0006H37.8049ZM50.8211 15.2566C50.2345 15.2566 49.7118 15.1393 49.2531 14.9046C48.8051 14.6699 48.4478 14.3499 48.1811 13.9446C47.9251 13.5286 47.7971 13.0539 47.7971 12.5206C47.7971 11.9339 47.9465 11.4379 48.2451 11.0326C48.5545 10.6273 48.9651 10.3179 49.4771 10.1046C49.9891 9.89128 50.5545 9.78461 51.1731 9.78461C51.5145 9.78461 51.8291 9.81128 52.1171 9.86461C52.4158 9.90728 52.6718 9.96061 52.8851 10.0246C53.1091 10.0886 53.2851 10.1579 53.4131 10.2326V9.80061C53.4131 9.26728 53.2211 8.84061 52.8371 8.52061C52.4531 8.20061 51.9571 8.04061 51.3491 8.04061C50.9331 8.04061 50.5385 8.13661 50.1651 8.32861C49.7918 8.50994 49.4931 8.76061 49.2691 9.08061L48.0851 8.16861C48.3198 7.83794 48.6025 7.55528 48.9331 7.32061C49.2745 7.08594 49.6531 6.90461 50.0691 6.77661C50.4958 6.64861 50.9385 6.58461 51.3971 6.58461C52.5811 6.58461 53.4931 6.87794 54.1331 7.46461C54.7731 8.04061 55.0931 8.85128 55.0931 9.89661V15.0006H53.4131V13.9926H53.3171C53.1785 14.2059 52.9865 14.4086 52.7411 14.6006C52.5065 14.7926 52.2238 14.9473 51.8931 15.0646C51.5731 15.1926 51.2158 15.2566 50.8211 15.2566ZM51.1251 13.8486C51.5731 13.8486 51.9678 13.7419 52.3091 13.5286C52.6611 13.3153 52.9331 13.0379 53.1251 12.6966C53.3171 12.3446 53.4131 11.9659 53.4131 11.5606C53.1785 11.4219 52.8905 11.3099 52.5491 11.2246C52.2185 11.1286 51.8665 11.0806 51.4931 11.0806C50.7891 11.0806 50.2878 11.2193 49.9891 11.4966C49.6905 11.7739 49.5411 12.1206 49.5411 12.5366C49.5411 12.9206 49.6851 13.2353 49.9731 13.4806C50.2611 13.7259 50.6451 13.8486 51.1251 13.8486ZM59.4693 15.0006L56.0933 6.84061H58.0133L60.3013 12.7766H60.3813L62.7173 6.84061H64.6053L61.1973 15.0006H59.4693ZM69.3673 15.2566C68.5673 15.2566 67.8526 15.0699 67.2233 14.6966C66.5939 14.3233 66.0979 13.8113 65.7353 13.1606C65.3833 12.5099 65.2073 11.7686 65.2073 10.9366C65.2073 10.1579 65.3779 9.43794 65.7193 8.77661C66.0606 8.11528 66.5353 7.58728 67.1433 7.19261C67.7619 6.78728 68.4713 6.58461 69.2713 6.58461C70.1139 6.58461 70.8286 6.76594 71.4153 7.12861C72.0126 7.49128 72.4659 7.98728 72.7753 8.61661C73.0846 9.24594 73.2393 9.95528 73.2393 10.7446C73.2393 10.8619 73.2339 10.9686 73.2233 11.0646C73.2233 11.1606 73.2179 11.2353 73.2073 11.2886H66.9033C66.9459 11.7366 67.0579 12.1259 67.2393 12.4566C67.4739 12.8726 67.7833 13.1873 68.1673 13.4006C68.5513 13.6139 68.9673 13.7206 69.4153 13.7206C69.9593 13.7206 70.4126 13.5979 70.7753 13.3526C71.1486 13.0966 71.4419 12.7819 71.6553 12.4086L73.0793 13.0966C72.7273 13.7366 72.2473 14.2593 71.6393 14.6646C71.0313 15.0593 70.2739 15.2566 69.3673 15.2566ZM66.9993 9.99261H71.5273C71.5166 9.78994 71.4633 9.57661 71.3673 9.35261C71.2713 9.11794 71.1326 8.90461 70.9513 8.71261C70.7699 8.52061 70.5406 8.36594 70.2633 8.24861C69.9859 8.12061 69.6606 8.05661 69.2873 8.05661C68.8179 8.05661 68.4019 8.17928 68.0393 8.42461C67.6766 8.65928 67.3939 8.98994 67.1913 9.41661C67.1059 9.59794 67.0419 9.78994 66.9993 9.99261ZM78.8465 15.2566C78.0252 15.2566 77.2945 15.0699 76.6545 14.6966C76.0252 14.3233 75.5292 13.8113 75.1665 13.1606C74.8145 12.4993 74.6385 11.7526 74.6385 10.9206C74.6385 10.0886 74.8145 9.34728 75.1665 8.69661C75.5292 8.04594 76.0252 7.53394 76.6545 7.16061C77.2945 6.77661 78.0252 6.58461 78.8465 6.58461C79.7532 6.58461 80.5158 6.78728 81.1345 7.19261C81.7638 7.59794 82.2118 8.14728 82.4785 8.84061L80.9105 9.48061C80.7185 9.04328 80.4412 8.71794 80.0785 8.50461C79.7265 8.28061 79.3052 8.16861 78.8145 8.16861C78.3665 8.16861 77.9558 8.28594 77.5825 8.52061C77.2092 8.74461 76.9105 9.05928 76.6865 9.46461C76.4625 9.86994 76.3505 10.3553 76.3505 10.9206C76.3505 11.4753 76.4625 11.9606 76.6865 12.3766C76.9105 12.7926 77.2092 13.1126 77.5825 13.3366C77.9558 13.5606 78.3665 13.6726 78.8145 13.6726C79.3372 13.6726 79.7798 13.5553 80.1425 13.3206C80.5052 13.0859 80.7878 12.7553 80.9905 12.3286L82.5265 13.0006C82.2278 13.6513 81.7638 14.1899 81.1345 14.6166C80.5158 15.0433 79.7532 15.2566 78.8465 15.2566Z" fill="white"/>
<g id="GPay (Dark)">
<g id="GPay">
<g id="Pay">
<path id="Fill 1" fill-rule="evenodd" clip-rule="evenodd" d="M111.356 3.42339V8.16175H114.278C114.974 8.16175 115.55 7.92781 116.005 7.45993C116.473 6.99313 116.707 6.43644 116.707 5.79203C116.707 5.16061 116.473 4.61041 116.005 4.14254C115.55 3.66274 114.974 3.4223 114.278 3.4223H111.356V3.42339ZM111.356 9.82966V15.3262H109.611V1.75549H114.24C115.417 1.75549 116.415 2.14756 117.238 2.93061C118.073 3.71365 118.491 4.66782 118.491 5.79203C118.491 6.94224 118.073 7.90291 117.238 8.67296C116.428 9.44409 115.429 9.82858 114.24 9.82858H111.356V9.82966Z" fill="white"/>
<path id="Fill 3" fill-rule="evenodd" clip-rule="evenodd" d="M120.255 12.4831C120.255 12.9379 120.448 13.317 120.834 13.6203C121.22 13.9235 121.672 14.0752 122.19 14.0752C122.924 14.0752 123.578 13.8032 124.153 13.2607C124.729 12.717 125.017 12.0791 125.017 11.3469C124.472 10.917 123.713 10.7025 122.74 10.7025C122.031 10.7025 121.44 10.8736 120.966 11.2148C120.492 11.5559 120.255 11.9773 120.255 12.4831M122.513 5.73566C123.803 5.73566 124.821 6.08007 125.569 6.76889C126.314 7.45771 126.687 8.40213 126.687 9.60216V15.3261H125.018V14.0373H124.942C124.221 15.0985 123.259 15.6294 122.058 15.6294C121.033 15.6294 120.176 15.3261 119.487 14.7196C118.797 14.1131 118.453 13.3549 118.453 12.4452C118.453 11.4845 118.816 10.7208 119.543 10.1523C120.271 9.58375 121.241 9.2989 122.456 9.2989C123.492 9.2989 124.346 9.48844 125.017 9.86751V9.46894C125.017 8.86243 124.776 8.34798 124.296 7.92451C123.814 7.50103 123.252 7.28984 122.607 7.28984C121.633 7.28984 120.862 7.70032 120.293 8.52235L118.755 7.55519C119.603 6.34217 120.855 5.73566 122.513 5.73566" fill="white"/>
<path id="Fill 5" fill-rule="evenodd" clip-rule="evenodd" d="M136.269 6.03894L130.443 19.4201H128.641L130.804 14.738L126.971 6.03894H128.869L131.639 12.7106H131.677L134.371 6.03894H136.269Z" fill="white"/>
</g>
<g id="G">
<path id="Fill 8" fill-rule="evenodd" clip-rule="evenodd" d="M104.303 8.64473C104.303 8.09563 104.256 7.56601 104.168 7.05914H96.8065V10.0625H101.023C100.842 11.0414 100.294 11.8744 99.4639 12.4322V14.3828H101.98C103.454 13.0246 104.303 11.0177 104.303 8.64473" fill="#4285F4"/>
<path id="Fill 10" fill-rule="evenodd" clip-rule="evenodd" d="M96.8065 16.2651C98.9131 16.2651 100.687 15.5741 101.98 14.3828L99.4639 12.4322C98.7635 12.9033 97.8614 13.1784 96.8065 13.1784C94.7703 13.1784 93.042 11.8073 92.424 9.95959H89.8316V11.9687C91.1164 14.516 93.7565 16.2651 96.8065 16.2651" fill="#34A853"/>
<path id="Fill 12" fill-rule="evenodd" clip-rule="evenodd" d="M92.424 9.9596C92.2657 9.48847 92.179 8.98593 92.179 8.46715C92.179 7.94837 92.2657 7.44583 92.424 6.9747V4.96564H89.8316C89.3003 6.01837 89 7.20756 89 8.46715C89 9.72674 89.3003 10.916 89.8316 11.9687L92.424 9.9596Z" fill="#FABB05"/>
<path id="Fill 14" fill-rule="evenodd" clip-rule="evenodd" d="M96.8065 3.75583C97.9568 3.75583 98.9879 4.15115 99.8011 4.92553V4.92661L102.029 2.70094C100.676 1.44243 98.912 0.669128 96.8065 0.669128C93.7565 0.669128 91.1164 2.41826 89.8316 4.9656L92.424 6.97467C93.042 5.12698 94.7703 3.75583 96.8065 3.75583" fill="#E94235"/>
</g>
</g>
</g>
</g>
</svg>
