<svg width="298" height="38" viewBox="0 0 298 38" fill="none" xmlns="http://www.w3.org/2000/svg">
<g id="fr_subscribe_with_Dark">
<path id="Text" d="M9.07482 30.448C8.01082 30.448 6.99349 30.2427 6.02282 29.832C5.05215 29.4027 4.19349 28.7773 3.44682 27.956C2.71882 27.1347 2.17749 26.1173 1.82282 24.904L4.73482 23.728C5.03349 24.8107 5.55615 25.716 6.30282 26.444C7.04949 27.172 7.98282 27.536 9.10282 27.536C9.73749 27.536 10.3255 27.424 10.8668 27.2C11.4268 26.976 11.8748 26.6493 12.2108 26.22C12.5468 25.772 12.7148 25.2307 12.7148 24.596C12.7148 23.7187 12.3882 23.0187 11.7348 22.496C11.0815 21.9547 10.0362 21.4227 8.59882 20.9L7.33882 20.452C6.61082 20.1907 5.87349 19.836 5.12682 19.388C4.39882 18.9213 3.79215 18.3333 3.30682 17.624C2.82149 16.896 2.57882 16.0093 2.57882 14.964C2.57882 13.9747 2.84015 13.0693 3.36282 12.248C3.90415 11.408 4.64149 10.7453 5.57482 10.26C6.52682 9.756 7.62815 9.504 8.87882 9.504C10.1668 9.504 11.2402 9.73733 12.0988 10.204C12.9762 10.652 13.6575 11.2027 14.1428 11.856C14.6468 12.4907 14.9922 13.088 15.1788 13.648L12.4068 14.824C12.2948 14.4507 12.0895 14.0773 11.7908 13.704C11.5108 13.312 11.1282 12.9947 10.6428 12.752C10.1762 12.4907 9.59749 12.36 8.90682 12.36C8.01082 12.36 7.23615 12.6027 6.58282 13.088C5.94815 13.5547 5.63082 14.1707 5.63082 14.936C5.63082 15.664 5.92949 16.252 6.52682 16.7C7.12415 17.148 7.99215 17.568 9.13082 17.96L10.4188 18.408C11.2775 18.688 12.1175 19.0707 12.9388 19.556C13.7788 20.0413 14.4602 20.6853 14.9828 21.488C15.5242 22.272 15.7948 23.2893 15.7948 24.54C15.7948 25.5667 15.5895 26.4533 15.1788 27.2C14.7868 27.9467 14.2548 28.5627 13.5828 29.048C12.9295 29.5147 12.2015 29.86 11.3988 30.084C10.6148 30.3267 9.84015 30.448 9.07482 30.448ZM18.8163 16.196V9.952H21.5603V16.196H18.8163ZM29.5924 30.448C28.5658 30.448 27.6511 30.252 26.8484 29.86C26.0458 29.4493 25.4204 28.88 24.9724 28.152C24.5244 27.424 24.3004 26.5933 24.3004 25.66C24.3004 24.652 24.5618 23.7933 25.0844 23.084C25.6258 22.356 26.3444 21.8053 27.2404 21.432C28.1364 21.0587 29.1258 20.872 30.2084 20.872C31.1044 20.872 31.8884 20.956 32.5604 21.124C33.2511 21.292 33.7738 21.4693 34.1284 21.656V20.9C34.1284 19.9667 33.7924 19.22 33.1204 18.66C32.4484 18.1 31.5804 17.82 30.5164 17.82C29.7884 17.82 29.0978 17.988 28.4444 18.324C27.7911 18.6413 27.2684 19.08 26.8764 19.64L24.8044 18.044C25.4204 17.1853 26.2324 16.5133 27.2404 16.028C28.2671 15.524 29.3871 15.272 30.6004 15.272C32.6724 15.272 34.2684 15.7853 35.3884 16.812C36.5084 17.82 37.0684 19.2387 37.0684 21.068V30H34.1284V28.236H33.9604C33.5871 28.8147 33.0271 29.328 32.2804 29.776C31.5338 30.224 30.6378 30.448 29.5924 30.448ZM30.1244 27.984C30.9084 27.984 31.5991 27.7973 32.1964 27.424C32.7938 27.0507 33.2604 26.5653 33.5964 25.968C33.9511 25.352 34.1284 24.6893 34.1284 23.98C33.6991 23.7373 33.1951 23.5413 32.6164 23.392C32.0378 23.224 31.4218 23.14 30.7684 23.14C29.5364 23.14 28.6591 23.392 28.1364 23.896C27.6138 24.3813 27.3524 24.9787 27.3524 25.688C27.3524 26.36 27.6044 26.9107 28.1084 27.34C28.6124 27.7693 29.2844 27.984 30.1244 27.984ZM48.3136 30.448C47.2123 30.448 46.2603 30.2147 45.4576 29.748C44.6736 29.2627 44.0949 28.712 43.7216 28.096H43.5536V30H40.6976V9.952H43.7216V15.664L43.5536 17.652H43.7216C44.0949 17.036 44.6736 16.4853 45.4576 16C46.2603 15.5147 47.2123 15.272 48.3136 15.272C49.6203 15.272 50.7869 15.5987 51.8136 16.252C52.8403 16.9053 53.6523 17.8013 54.2496 18.94C54.8656 20.0787 55.1736 21.3853 55.1736 22.86C55.1736 24.3347 54.8656 25.6507 54.2496 26.808C53.6523 27.9467 52.8403 28.8427 51.8136 29.496C50.7869 30.1307 49.6203 30.448 48.3136 30.448ZM47.8656 27.676C48.6123 27.676 49.3123 27.48 49.9656 27.088C50.6189 26.696 51.1509 26.1453 51.5616 25.436C51.9723 24.708 52.1776 23.8493 52.1776 22.86C52.1776 21.8707 51.9723 21.0213 51.5616 20.312C51.1509 19.584 50.6189 19.024 49.9656 18.632C49.3123 18.24 48.6123 18.044 47.8656 18.044C47.1189 18.044 46.4189 18.24 45.7656 18.632C45.1123 19.024 44.5803 19.584 44.1696 20.312C43.7589 21.0213 43.5536 21.8707 43.5536 22.86C43.5536 23.8493 43.7589 24.708 44.1696 25.436C44.5803 26.1453 45.1123 26.696 45.7656 27.088C46.4189 27.48 47.1189 27.676 47.8656 27.676ZM64.9715 30.448C63.4968 30.448 62.1995 30.112 61.0795 29.44C59.9595 28.768 59.0822 27.8627 58.4475 26.724C57.8128 25.5853 57.4955 24.2973 57.4955 22.86C57.4955 21.4413 57.8128 20.1627 58.4475 19.024C59.0822 17.8667 59.9595 16.952 61.0795 16.28C62.1995 15.608 63.4968 15.272 64.9715 15.272C66.4275 15.272 67.7155 15.608 68.8355 16.28C69.9555 16.952 70.8328 17.8667 71.4675 19.024C72.1022 20.1627 72.4195 21.4413 72.4195 22.86C72.4195 24.2973 72.1022 25.5853 71.4675 26.724C70.8328 27.8627 69.9555 28.768 68.8355 29.44C67.7155 30.112 66.4275 30.448 64.9715 30.448ZM64.9715 27.676C65.7555 27.676 66.4835 27.4893 67.1555 27.116C67.8275 26.724 68.3688 26.1733 68.7795 25.464C69.2088 24.736 69.4235 23.868 69.4235 22.86C69.4235 21.852 69.2088 20.9933 68.7795 20.284C68.3688 19.556 67.8275 19.0053 67.1555 18.632C66.4835 18.24 65.7555 18.044 64.9715 18.044C64.1875 18.044 63.4502 18.24 62.7595 18.632C62.0875 19.0053 61.5368 19.556 61.1075 20.284C60.6968 20.9933 60.4915 21.852 60.4915 22.86C60.4915 23.868 60.6968 24.736 61.1075 25.464C61.5368 26.1733 62.0875 26.724 62.7595 27.116C63.4502 27.4893 64.1875 27.676 64.9715 27.676ZM75.2312 30V15.72H78.0872V17.68H78.2552C78.6659 16.9893 79.2725 16.42 80.0752 15.972C80.8965 15.5053 81.7925 15.272 82.7632 15.272C84.5179 15.272 85.8339 15.7947 86.7112 16.84C87.5885 17.8853 88.0272 19.2667 88.0272 20.984V30H85.0312V21.376C85.0312 20.2187 84.7419 19.3787 84.1632 18.856C83.5845 18.3147 82.8285 18.044 81.8952 18.044C81.1672 18.044 80.5325 18.2493 79.9912 18.66C79.4499 19.052 79.0205 19.5747 78.7032 20.228C78.4045 20.8813 78.2552 21.5813 78.2552 22.328V30H75.2312ZM91.7734 30V15.72H94.6294V17.68H94.7974C95.2081 16.9893 95.8147 16.42 96.6174 15.972C97.4387 15.5053 98.3347 15.272 99.3054 15.272C101.06 15.272 102.376 15.7947 103.253 16.84C104.131 17.8853 104.569 19.2667 104.569 20.984V30H101.573V21.376C101.573 20.2187 101.284 19.3787 100.705 18.856C100.127 18.3147 99.3707 18.044 98.4374 18.044C97.7094 18.044 97.0747 18.2493 96.5334 18.66C95.9921 19.052 95.5627 19.5747 95.2454 20.228C94.9467 20.8813 94.7974 21.5813 94.7974 22.328V30H91.7734ZM114.84 30.448C113.44 30.448 112.189 30.1213 111.088 29.468C109.986 28.8147 109.118 27.9187 108.484 26.78C107.868 25.6413 107.56 24.344 107.56 22.888C107.56 21.5253 107.858 20.2653 108.456 19.108C109.053 17.9507 109.884 17.0267 110.948 16.336C112.03 15.6267 113.272 15.272 114.672 15.272C116.146 15.272 117.397 15.5893 118.424 16.224C119.469 16.8587 120.262 17.7267 120.804 18.828C121.345 19.9293 121.616 21.1707 121.616 22.552C121.616 22.7573 121.606 22.944 121.588 23.112C121.588 23.28 121.578 23.4107 121.56 23.504H110.528C110.677 24.9227 111.172 25.9867 112.012 26.696C112.87 27.4053 113.841 27.76 114.924 27.76C115.894 27.76 116.697 27.5453 117.332 27.116C117.966 26.668 118.47 26.1173 118.844 25.464L121.336 26.668C120.72 27.788 119.88 28.7027 118.816 29.412C117.752 30.1027 116.426 30.448 114.84 30.448ZM114.7 17.848C113.692 17.848 112.833 18.156 112.124 18.772C111.414 19.388 110.938 20.2093 110.696 21.236H118.62C118.582 20.7507 118.424 20.2467 118.144 19.724C117.864 19.2013 117.434 18.7627 116.856 18.408C116.296 18.0347 115.577 17.848 114.7 17.848ZM124.721 30V15.72H127.577V17.82H127.745C128.062 17.092 128.604 16.4947 129.369 16.028C130.153 15.5427 130.993 15.3 131.889 15.3C132.281 15.3 132.608 15.328 132.869 15.384C133.149 15.44 133.401 15.5053 133.625 15.58V18.716C133.27 18.5667 132.906 18.4453 132.533 18.352C132.178 18.2587 131.805 18.212 131.413 18.212C130.704 18.212 130.069 18.408 129.509 18.8C128.968 19.1733 128.538 19.6867 128.221 20.34C127.904 20.9747 127.745 21.6747 127.745 22.44V30H124.721ZM147.574 30.448C146.548 30.448 145.633 30.252 144.83 29.86C144.028 29.4493 143.402 28.88 142.954 28.152C142.506 27.424 142.282 26.5933 142.282 25.66C142.282 24.652 142.544 23.7933 143.066 23.084C143.608 22.356 144.326 21.8053 145.222 21.432C146.118 21.0587 147.108 20.872 148.19 20.872C149.086 20.872 149.87 20.956 150.542 21.124C151.233 21.292 151.756 21.4693 152.11 21.656V20.9C152.11 19.9667 151.774 19.22 151.102 18.66C150.43 18.1 149.562 17.82 148.498 17.82C147.77 17.82 147.08 17.988 146.426 18.324C145.773 18.6413 145.25 19.08 144.858 19.64L142.786 18.044C143.402 17.1853 144.214 16.5133 145.222 16.028C146.249 15.524 147.369 15.272 148.582 15.272C150.654 15.272 152.25 15.7853 153.37 16.812C154.49 17.82 155.05 19.2387 155.05 21.068V30H152.11V28.236H151.942C151.569 28.8147 151.009 29.328 150.262 29.776C149.516 30.224 148.62 30.448 147.574 30.448ZM148.106 27.984C148.89 27.984 149.581 27.7973 150.178 27.424C150.776 27.0507 151.242 26.5653 151.578 25.968C151.933 25.352 152.11 24.6893 152.11 23.98C151.681 23.7373 151.177 23.5413 150.598 23.392C150.02 23.224 149.404 23.14 148.75 23.14C147.518 23.14 146.641 23.392 146.118 23.896C145.596 24.3813 145.334 24.9787 145.334 25.688C145.334 26.36 145.586 26.9107 146.09 27.34C146.594 27.7693 147.266 27.984 148.106 27.984ZM162.746 30L156.838 15.72H160.198L164.202 26.108H164.342L168.43 15.72H171.734L165.77 30H162.746ZM180.105 30.448C178.705 30.448 177.455 30.1213 176.353 29.468C175.252 28.8147 174.384 27.9187 173.749 26.78C173.133 25.6413 172.825 24.344 172.825 22.888C172.825 21.5253 173.124 20.2653 173.721 19.108C174.319 17.9507 175.149 17.0267 176.213 16.336C177.296 15.6267 178.537 15.272 179.937 15.272C181.412 15.272 182.663 15.5893 183.689 16.224C184.735 16.8587 185.528 17.7267 186.069 18.828C186.611 19.9293 186.881 21.1707 186.881 22.552C186.881 22.7573 186.872 22.944 186.853 23.112C186.853 23.28 186.844 23.4107 186.825 23.504H175.793C175.943 24.9227 176.437 25.9867 177.277 26.696C178.136 27.4053 179.107 27.76 180.189 27.76C181.16 27.76 181.963 27.5453 182.597 27.116C183.232 26.668 183.736 26.1173 184.109 25.464L186.601 26.668C185.985 27.788 185.145 28.7027 184.081 29.412C183.017 30.1027 181.692 30.448 180.105 30.448ZM179.965 17.848C178.957 17.848 178.099 18.156 177.389 18.772C176.68 19.388 176.204 20.2093 175.961 21.236H183.885C183.848 20.7507 183.689 20.2467 183.409 19.724C183.129 19.2013 182.7 18.7627 182.121 18.408C181.561 18.0347 180.843 17.848 179.965 17.848ZM196.731 30.448C195.294 30.448 194.025 30.1213 192.923 29.468C191.822 28.8147 190.954 27.9187 190.319 26.78C189.685 25.6227 189.367 24.316 189.367 22.86C189.367 21.404 189.685 20.1067 190.319 18.968C190.954 17.8107 191.822 16.9053 192.923 16.252C194.025 15.5987 195.294 15.272 196.731 15.272C198.318 15.272 199.653 15.6267 200.735 16.336C201.837 17.0453 202.621 18.0067 203.087 19.22L200.343 20.34C199.69 18.8093 198.467 18.044 196.675 18.044C195.891 18.044 195.173 18.2493 194.519 18.66C193.866 19.052 193.343 19.612 192.951 20.34C192.559 21.0493 192.363 21.8893 192.363 22.86C192.363 23.8307 192.559 24.68 192.951 25.408C193.343 26.136 193.866 26.696 194.519 27.088C195.173 27.48 195.891 27.676 196.675 27.676C197.59 27.676 198.365 27.4707 198.999 27.06C199.634 26.6307 200.129 26.052 200.483 25.324L203.171 26.5C202.667 27.6387 201.865 28.5813 200.763 29.328C199.662 30.0747 198.318 30.448 196.731 30.448Z" fill="white"/>
<g id="GPay Logo (Dark)">
<g id="GPay">
<g id="Pay">
<path id="Fill 1" fill-rule="evenodd" clip-rule="evenodd" d="M254.529 9.34665V17.5128H259.565C260.765 17.5128 261.757 17.1096 262.541 16.3032C263.347 15.4988 263.75 14.5394 263.75 13.4288C263.75 12.3406 263.347 11.3924 262.541 10.586C261.757 9.75916 260.765 9.34479 259.565 9.34479H254.529V9.34665ZM254.529 20.3872V29.8599H251.521V6.47218H259.499C261.527 6.47218 263.248 7.14787 264.666 8.49738C266.105 9.84688 266.824 11.4913 266.824 13.4288C266.824 15.411 266.105 17.0667 264.666 18.3938C263.27 19.7227 261.547 20.3854 259.499 20.3854H254.529V20.3872Z" fill="white"/>
<path id="Fill 3" fill-rule="evenodd" clip-rule="evenodd" d="M269.864 24.9602C269.864 25.7442 270.197 26.3975 270.862 26.9201C271.527 27.4427 272.306 27.704 273.2 27.704C274.465 27.704 275.591 27.2354 276.584 26.3004C277.576 25.3634 278.071 24.264 278.071 23.0022C277.133 22.2612 275.825 21.8916 274.147 21.8916C272.925 21.8916 271.907 22.1866 271.09 22.7745C270.273 23.3623 269.864 24.0886 269.864 24.9602ZM273.756 13.3317C275.98 13.3317 277.735 13.9253 279.022 15.1124C280.308 16.2995 280.95 17.9271 280.95 19.9952V29.8599H278.073V27.6387H277.942C276.699 29.4677 275.042 30.3825 272.972 30.3825C271.206 30.3825 269.728 29.8599 268.541 28.8146C267.353 27.7694 266.759 26.4628 266.759 24.8949C266.759 23.2393 267.385 21.9232 268.638 20.9434C269.892 19.9635 271.565 19.4726 273.658 19.4726C275.444 19.4726 276.916 19.7993 278.071 20.4525V19.7657C278.071 18.7204 277.656 17.8338 276.829 17.104C275.999 16.3742 275.031 16.0102 273.919 16.0102C272.239 16.0102 270.911 16.7176 269.93 18.1343L267.28 16.4675C268.741 14.377 270.899 13.3317 273.756 13.3317Z" fill="white"/>
<path id="Fill 5" fill-rule="evenodd" clip-rule="evenodd" d="M297.463 13.8543L287.424 36.9154H284.318L288.046 28.8464L281.44 13.8543H284.71L289.484 25.3522H289.55L294.193 13.8543H297.463Z" fill="white"/>
</g>
<g id="G">
<path id="Fill 8" fill-rule="evenodd" clip-rule="evenodd" d="M242.373 18.3452C242.373 17.3989 242.293 16.4861 242.141 15.6126H229.454V20.7885H236.72C236.408 22.4757 235.465 23.9112 234.033 24.8725V28.2341H238.37C240.91 25.8935 242.373 22.4348 242.373 18.3452Z" fill="#4285F4"/>
<path id="Fill 10" fill-rule="evenodd" clip-rule="evenodd" d="M229.454 31.4782C233.084 31.4782 236.141 30.2873 238.37 28.2341L234.033 24.8725C232.826 25.6844 231.272 26.1585 229.454 26.1585C225.944 26.1585 222.966 23.7955 221.901 20.6112H217.433V24.0736C219.647 28.4637 224.197 31.4782 229.454 31.4782Z" fill="#34A853"/>
<path id="Fill 12" fill-rule="evenodd" clip-rule="evenodd" d="M221.901 20.6111C221.628 19.7992 221.479 18.9331 221.479 18.0391C221.479 17.145 221.628 16.2789 221.901 15.467V12.0045H217.433C216.518 13.8188 216 15.8683 216 18.0391C216 20.2098 216.518 22.2595 217.433 24.0736L221.901 20.6111Z" fill="#FABB05"/>
<path id="Fill 14" fill-rule="evenodd" clip-rule="evenodd" d="M229.454 9.91964C231.436 9.91964 233.213 10.6009 234.615 11.9355V11.9374L238.455 8.10163C236.123 5.93272 233.082 4.60001 229.454 4.60001C224.197 4.60001 219.647 7.61447 217.433 12.0046L221.901 15.467C222.966 12.2827 225.944 9.91964 229.454 9.91964Z" fill="#E94235"/>
</g>
</g>
</g>
</g>
</svg>
