<svg width="170" height="21" viewBox="0 0 170 21" fill="none" xmlns="http://www.w3.org/2000/svg">
<g id="fr_subscribe_with_Pay_NBG">
<path id="Left Text" d="M4.89275 15.2566C4.28475 15.2566 3.70342 15.1393 3.14875 14.9046C2.59409 14.6593 2.10342 14.3019 1.67675 13.8326C1.26075 13.3633 0.95142 12.7819 0.748753 12.0886L2.41275 11.4166C2.58342 12.0353 2.88209 12.5526 3.30875 12.9686C3.73542 13.3846 4.26875 13.5926 4.90875 13.5926C5.27142 13.5926 5.60742 13.5286 5.91675 13.4006C6.23675 13.2726 6.49275 13.0859 6.68475 12.8406C6.87675 12.5846 6.97275 12.2753 6.97275 11.9126C6.97275 11.5713 6.89275 11.2833 6.73275 11.0486C6.57275 10.8033 6.31675 10.5846 5.96475 10.3926C5.61275 10.1899 5.16475 9.99261 4.62075 9.80061L3.90075 9.54461C3.59142 9.42728 3.27675 9.28328 2.95675 9.11261C2.63675 8.94194 2.33809 8.73394 2.06075 8.48861C1.79409 8.23261 1.58075 7.93394 1.42075 7.59261C1.26075 7.25128 1.18075 6.85661 1.18075 6.40861C1.18075 5.83261 1.33009 5.30994 1.62875 4.84061C1.93809 4.37128 2.35942 3.99794 2.89275 3.72061C3.43675 3.43261 4.06609 3.28861 4.78075 3.28861C5.51675 3.28861 6.13009 3.42194 6.62075 3.68861C7.12209 3.94461 7.51142 4.25394 7.78875 4.61661C8.07675 4.97928 8.27409 5.32594 8.38075 5.65661L6.79675 6.32861C6.73275 6.10461 6.61542 5.88594 6.44475 5.67261C6.28475 5.45928 6.06609 5.28328 5.78875 5.14461C5.52209 4.99528 5.19142 4.92061 4.79675 4.92061C4.45542 4.92061 4.14075 4.98461 3.85275 5.11261C3.57542 5.24061 3.35142 5.41661 3.18075 5.64061C3.01009 5.85394 2.92475 6.10461 2.92475 6.39261C2.92475 6.80861 3.09542 7.14994 3.43675 7.41661C3.77809 7.67261 4.27409 7.90728 4.92475 8.12061L5.66075 8.37661C6.03409 8.50461 6.40209 8.65928 6.76475 8.84061C7.12742 9.01128 7.45809 9.23528 7.75675 9.51261C8.05542 9.77928 8.29009 10.1099 8.46075 10.5046C8.64209 10.8886 8.73275 11.3473 8.73275 11.8806C8.73275 12.4673 8.61542 12.9793 8.38075 13.4166C8.15675 13.8433 7.85275 14.1953 7.46875 14.4726C7.09542 14.7393 6.67942 14.9366 6.22075 15.0646C5.77275 15.1926 5.33009 15.2566 4.89275 15.2566ZM10.4379 7.11261V3.54461H12.0059V7.11261H10.4379ZM16.5743 15.2566C15.9876 15.2566 15.4649 15.1393 15.0063 14.9046C14.5583 14.6699 14.2009 14.3499 13.9343 13.9446C13.6783 13.5286 13.5503 13.0539 13.5503 12.5206C13.5503 11.9339 13.6996 11.4379 13.9983 11.0326C14.3076 10.6273 14.7183 10.3179 15.2303 10.1046C15.7423 9.89128 16.3076 9.78461 16.9263 9.78461C17.2676 9.78461 17.5823 9.81128 17.8703 9.86461C18.1689 9.90728 18.4249 9.96061 18.6383 10.0246C18.8623 10.0886 19.0383 10.1579 19.1663 10.2326V9.80061C19.1663 9.26728 18.9743 8.84061 18.5903 8.52061C18.2063 8.20061 17.7103 8.04061 17.1023 8.04061C16.6863 8.04061 16.2916 8.13661 15.9183 8.32861C15.5449 8.50994 15.2463 8.76061 15.0223 9.08061L13.8383 8.16861C14.0729 7.83794 14.3556 7.55528 14.6863 7.32061C15.0276 7.08594 15.4063 6.90461 15.8223 6.77661C16.2489 6.64861 16.6916 6.58461 17.1503 6.58461C18.3343 6.58461 19.2463 6.87794 19.8863 7.46461C20.5263 8.04061 20.8463 8.85128 20.8463 9.89661V15.0006H19.1663V13.9926H19.0703C18.9316 14.2059 18.7396 14.4086 18.4943 14.6006C18.2596 14.7926 17.9769 14.9473 17.6463 15.0646C17.3263 15.1926 16.9689 15.2566 16.5743 15.2566ZM16.8783 13.8486C17.3263 13.8486 17.7209 13.7419 18.0623 13.5286C18.4143 13.3153 18.6863 13.0379 18.8783 12.6966C19.0703 12.3446 19.1663 11.9659 19.1663 11.5606C18.9316 11.4219 18.6436 11.3099 18.3023 11.2246C17.9716 11.1286 17.6196 11.0806 17.2463 11.0806C16.5423 11.0806 16.0409 11.2193 15.7423 11.4966C15.4436 11.7739 15.2943 12.1206 15.2943 12.5366C15.2943 12.9206 15.4383 13.2353 15.7263 13.4806C16.0143 13.7259 16.3983 13.8486 16.8783 13.8486ZM27.2506 15.2566C26.8346 15.2566 26.456 15.1926 26.1146 15.0646C25.7733 14.9366 25.4746 14.7713 25.2186 14.5686C24.9733 14.3553 24.776 14.1366 24.6266 13.9126H24.5306V15.0006H22.8986V3.54461H24.6266V6.80861L24.5306 7.94461H24.6266C24.776 7.70994 24.9733 7.49128 25.2186 7.28861C25.4746 7.07528 25.7733 6.90461 26.1146 6.77661C26.456 6.64861 26.8346 6.58461 27.2506 6.58461C27.9973 6.58461 28.664 6.77128 29.2506 7.14461C29.8373 7.51794 30.3013 8.02994 30.6426 8.68061C30.9946 9.33128 31.1706 10.0779 31.1706 10.9206C31.1706 11.7633 30.9946 12.5099 30.6426 13.1606C30.3013 13.8113 29.8373 14.3233 29.2506 14.6966C28.664 15.0699 27.9973 15.2566 27.2506 15.2566ZM26.9946 13.6726C27.4213 13.6726 27.8213 13.5606 28.1946 13.3366C28.5786 13.1126 28.8826 12.7926 29.1066 12.3766C29.3413 11.9606 29.4586 11.4753 29.4586 10.9206C29.4586 10.3553 29.3413 9.86994 29.1066 9.46461C28.8826 9.04861 28.5786 8.72861 28.1946 8.50461C27.8213 8.28061 27.4213 8.16861 26.9946 8.16861C26.568 8.16861 26.168 8.28061 25.7946 8.50461C25.4213 8.72861 25.1173 9.04861 24.8826 9.46461C24.648 9.86994 24.5306 10.3553 24.5306 10.9206C24.5306 11.4859 24.648 11.9766 24.8826 12.3926C25.1173 12.7979 25.4213 13.1126 25.7946 13.3366C26.168 13.5606 26.568 13.6726 26.9946 13.6726ZM36.748 15.2566C35.9053 15.2566 35.164 15.0646 34.524 14.6806C33.884 14.2966 33.3827 13.7793 33.02 13.1286C32.6573 12.4673 32.476 11.7313 32.476 10.9206C32.476 10.1099 32.6573 9.37928 33.02 8.72861C33.3827 8.06728 33.884 7.54461 34.524 7.16061C35.164 6.77661 35.9053 6.58461 36.748 6.58461C37.58 6.58461 38.316 6.78194 38.956 7.17661C39.596 7.56061 40.0973 8.07794 40.46 8.72861C40.8227 9.37928 41.004 10.1099 41.004 10.9206C41.004 11.7313 40.8227 12.4673 40.46 13.1286C40.0973 13.7793 39.596 14.2966 38.956 14.6806C38.316 15.0646 37.58 15.2566 36.748 15.2566ZM36.748 13.6726C37.196 13.6726 37.612 13.5659 37.996 13.3526C38.38 13.1286 38.6893 12.8139 38.924 12.4086C39.1693 11.9926 39.292 11.4966 39.292 10.9206C39.292 10.3446 39.1693 9.85394 38.924 9.44861C38.6893 9.03261 38.38 8.71794 37.996 8.50461C37.612 8.28061 37.196 8.16861 36.748 8.16861C36.3 8.16861 35.8787 8.28061 35.484 8.50461C35.1 8.71794 34.7853 9.03261 34.54 9.44861C34.3053 9.85394 34.188 10.3446 34.188 10.9206C34.188 11.4966 34.3053 11.9926 34.54 12.4086C34.7853 12.8139 35.1053 13.1286 35.5 13.3526C35.8947 13.5659 36.3107 13.6726 36.748 13.6726ZM42.5893 15.0006V6.84061H44.2213V7.96061H44.3173C44.5519 7.56594 44.8986 7.24061 45.3573 6.98461C45.8266 6.71794 46.3386 6.58461 46.8933 6.58461C47.8959 6.58461 48.6479 6.88328 49.1493 7.48061C49.6506 8.06728 49.9013 8.85661 49.9013 9.84861V15.0006H48.1893V10.0726C48.1893 9.41128 48.0239 8.93128 47.6933 8.63261C47.3626 8.32328 46.9306 8.16861 46.3973 8.16861C45.9813 8.16861 45.6186 8.28594 45.3093 8.52061C44.9999 8.74461 44.7546 9.04328 44.5733 9.41661C44.4026 9.78994 44.3173 10.1899 44.3173 10.6166V15.0006H42.5893ZM52.0205 15.0006V6.84061H53.6525V7.96061H53.7485C53.9832 7.56594 54.3298 7.24061 54.7885 6.98461C55.2578 6.71794 55.7698 6.58461 56.3245 6.58461C57.3272 6.58461 58.0792 6.88328 58.5805 7.48061C59.0818 8.06728 59.3325 8.85661 59.3325 9.84861V15.0006H57.6205V10.0726C57.6205 9.41128 57.4552 8.93128 57.1245 8.63261C56.7938 8.32328 56.3618 8.16861 55.8285 8.16861C55.4125 8.16861 55.0498 8.28594 54.7405 8.52061C54.4312 8.74461 54.1858 9.04328 54.0045 9.41661C53.8338 9.78994 53.7485 10.1899 53.7485 10.6166V15.0006H52.0205ZM65.1798 15.2566C64.3798 15.2566 63.6651 15.0699 63.0358 14.6966C62.4064 14.3233 61.9104 13.8113 61.5478 13.1606C61.1958 12.5099 61.0198 11.7686 61.0198 10.9366C61.0198 10.1579 61.1904 9.43794 61.5318 8.77661C61.8731 8.11528 62.3478 7.58728 62.9558 7.19261C63.5744 6.78728 64.2838 6.58461 65.0838 6.58461C65.9264 6.58461 66.6411 6.76594 67.2278 7.12861C67.8251 7.49128 68.2784 7.98728 68.5878 8.61661C68.8971 9.24594 69.0518 9.95528 69.0518 10.7446C69.0518 10.8619 69.0464 10.9686 69.0358 11.0646C69.0358 11.1606 69.0304 11.2353 69.0198 11.2886H62.7158C62.7584 11.7366 62.8704 12.1259 63.0518 12.4566C63.2864 12.8726 63.5958 13.1873 63.9798 13.4006C64.3638 13.6139 64.7798 13.7206 65.2278 13.7206C65.7718 13.7206 66.2251 13.5979 66.5878 13.3526C66.9611 13.0966 67.2544 12.7819 67.4678 12.4086L68.8918 13.0966C68.5398 13.7366 68.0598 14.2593 67.4518 14.6646C66.8438 15.0593 66.0864 15.2566 65.1798 15.2566ZM62.8118 9.99261H67.3398C67.3291 9.78994 67.2758 9.57661 67.1798 9.35261C67.0838 9.11794 66.9451 8.90461 66.7638 8.71261C66.5824 8.52061 66.3531 8.36594 66.0758 8.24861C65.7984 8.12061 65.4731 8.05661 65.0998 8.05661C64.6304 8.05661 64.2144 8.17928 63.8518 8.42461C63.4891 8.65928 63.2064 8.98994 63.0038 9.41661C62.9184 9.59794 62.8544 9.78994 62.8118 9.99261ZM70.8049 15.0006V6.84061H72.4369V8.04061H72.5329C72.6609 7.76328 72.8422 7.51794 73.0769 7.30461C73.3222 7.09128 73.5995 6.92061 73.9089 6.79261C74.2289 6.66461 74.5595 6.60061 74.9009 6.60061C75.1249 6.60061 75.3115 6.61661 75.4609 6.64861C75.6209 6.66994 75.7649 6.70728 75.8929 6.76061V8.55261C75.6902 8.46728 75.4822 8.39794 75.2689 8.34461C75.0662 8.29128 74.8529 8.26461 74.6289 8.26461C74.2235 8.26461 73.8609 8.37661 73.5409 8.60061C73.2315 8.81394 72.9862 9.10194 72.8049 9.46461C72.6235 9.82728 72.5329 10.2326 72.5329 10.6806V15.0006H70.8049ZM83.8211 15.2566C83.2345 15.2566 82.7118 15.1393 82.2531 14.9046C81.8051 14.6699 81.4478 14.3499 81.1811 13.9446C80.9251 13.5286 80.7971 13.0539 80.7971 12.5206C80.7971 11.9339 80.9465 11.4379 81.2451 11.0326C81.5545 10.6273 81.9651 10.3179 82.4771 10.1046C82.9891 9.89128 83.5545 9.78461 84.1731 9.78461C84.5145 9.78461 84.8291 9.81128 85.1171 9.86461C85.4158 9.90728 85.6718 9.96061 85.8851 10.0246C86.1091 10.0886 86.2851 10.1579 86.4131 10.2326V9.80061C86.4131 9.26728 86.2211 8.84061 85.8371 8.52061C85.4531 8.20061 84.9571 8.04061 84.3491 8.04061C83.9331 8.04061 83.5385 8.13661 83.1651 8.32861C82.7918 8.50994 82.4931 8.76061 82.2691 9.08061L81.0851 8.16861C81.3198 7.83794 81.6025 7.55528 81.9331 7.32061C82.2745 7.08594 82.6531 6.90461 83.0691 6.77661C83.4958 6.64861 83.9385 6.58461 84.3971 6.58461C85.5811 6.58461 86.4931 6.87794 87.1331 7.46461C87.7731 8.04061 88.0931 8.85128 88.0931 9.89661V15.0006H86.4131V13.9926H86.3171C86.1785 14.2059 85.9865 14.4086 85.7411 14.6006C85.5065 14.7926 85.2238 14.9473 84.8931 15.0646C84.5731 15.1926 84.2158 15.2566 83.8211 15.2566ZM84.1251 13.8486C84.5731 13.8486 84.9678 13.7419 85.3091 13.5286C85.6611 13.3153 85.9331 13.0379 86.1251 12.6966C86.3171 12.3446 86.4131 11.9659 86.4131 11.5606C86.1785 11.4219 85.8905 11.3099 85.5491 11.2246C85.2185 11.1286 84.8665 11.0806 84.4931 11.0806C83.7891 11.0806 83.2878 11.2193 82.9891 11.4966C82.6905 11.7739 82.5411 12.1206 82.5411 12.5366C82.5411 12.9206 82.6851 13.2353 82.9731 13.4806C83.2611 13.7259 83.6451 13.8486 84.1251 13.8486ZM92.4693 15.0006L89.0933 6.84061H91.0133L93.3013 12.7766H93.3813L95.7173 6.84061H97.6053L94.1973 15.0006H92.4693ZM102.367 15.2566C101.567 15.2566 100.853 15.0699 100.223 14.6966C99.5939 14.3233 99.0979 13.8113 98.7353 13.1606C98.3833 12.5099 98.2073 11.7686 98.2073 10.9366C98.2073 10.1579 98.3779 9.43794 98.7193 8.77661C99.0606 8.11528 99.5353 7.58728 100.143 7.19261C100.762 6.78728 101.471 6.58461 102.271 6.58461C103.114 6.58461 103.829 6.76594 104.415 7.12861C105.013 7.49128 105.466 7.98728 105.775 8.61661C106.085 9.24594 106.239 9.95528 106.239 10.7446C106.239 10.8619 106.234 10.9686 106.223 11.0646C106.223 11.1606 106.218 11.2353 106.207 11.2886H99.9033C99.9459 11.7366 100.058 12.1259 100.239 12.4566C100.474 12.8726 100.783 13.1873 101.167 13.4006C101.551 13.6139 101.967 13.7206 102.415 13.7206C102.959 13.7206 103.413 13.5979 103.775 13.3526C104.149 13.0966 104.442 12.7819 104.655 12.4086L106.079 13.0966C105.727 13.7366 105.247 14.2593 104.639 14.6646C104.031 15.0593 103.274 15.2566 102.367 15.2566ZM99.9993 9.99261H104.527C104.517 9.78994 104.463 9.57661 104.367 9.35261C104.271 9.11794 104.133 8.90461 103.951 8.71261C103.77 8.52061 103.541 8.36594 103.263 8.24861C102.986 8.12061 102.661 8.05661 102.287 8.05661C101.818 8.05661 101.402 8.17928 101.039 8.42461C100.677 8.65928 100.394 8.98994 100.191 9.41661C100.106 9.59794 100.042 9.78994 99.9993 9.99261ZM111.847 15.2566C111.025 15.2566 110.295 15.0699 109.655 14.6966C109.025 14.3233 108.529 13.8113 108.167 13.1606C107.815 12.4993 107.639 11.7526 107.639 10.9206C107.639 10.0886 107.815 9.34728 108.167 8.69661C108.529 8.04594 109.025 7.53394 109.655 7.16061C110.295 6.77661 111.025 6.58461 111.847 6.58461C112.753 6.58461 113.516 6.78728 114.135 7.19261C114.764 7.59794 115.212 8.14728 115.479 8.84061L113.911 9.48061C113.719 9.04328 113.441 8.71794 113.079 8.50461C112.727 8.28061 112.305 8.16861 111.815 8.16861C111.367 8.16861 110.956 8.28594 110.583 8.52061C110.209 8.74461 109.911 9.05928 109.687 9.46461C109.463 9.86994 109.351 10.3553 109.351 10.9206C109.351 11.4753 109.463 11.9606 109.687 12.3766C109.911 12.7926 110.209 13.1126 110.583 13.3366C110.956 13.5606 111.367 13.6726 111.815 13.6726C112.337 13.6726 112.78 13.5553 113.143 13.3206C113.505 13.0859 113.788 12.7553 113.991 12.3286L115.527 13.0006C115.228 13.6513 114.764 14.1899 114.135 14.6166C113.516 15.0433 112.753 15.2566 111.847 15.2566Z" fill="white"/>
<g id="GPay (Dark)">
<g id="GPay">
<g id="Pay">
<path id="Fill 1" fill-rule="evenodd" clip-rule="evenodd" d="M144.356 3.42339V8.16175H147.278C147.974 8.16175 148.55 7.92781 149.005 7.45993C149.473 6.99313 149.707 6.43644 149.707 5.79203C149.707 5.16061 149.473 4.61041 149.005 4.14254C148.55 3.66274 147.974 3.4223 147.278 3.4223H144.356V3.42339ZM144.356 9.82966V15.3262H142.611V1.75549H147.24C148.417 1.75549 149.415 2.14756 150.238 2.93061C151.073 3.71365 151.491 4.66782 151.491 5.79203C151.491 6.94224 151.073 7.90291 150.238 8.67296C149.428 9.44409 148.429 9.82858 147.24 9.82858H144.356V9.82966Z" fill="white"/>
<path id="Fill 3" fill-rule="evenodd" clip-rule="evenodd" d="M153.255 12.4831C153.255 12.9379 153.448 13.317 153.834 13.6203C154.22 13.9235 154.672 14.0752 155.19 14.0752C155.924 14.0752 156.578 13.8032 157.153 13.2607C157.729 12.717 158.017 12.0791 158.017 11.3469C157.472 10.917 156.713 10.7025 155.74 10.7025C155.031 10.7025 154.44 10.8736 153.966 11.2148C153.492 11.5559 153.255 11.9773 153.255 12.4831M155.513 5.73566C156.803 5.73566 157.821 6.08007 158.569 6.76889C159.314 7.45771 159.687 8.40213 159.687 9.60216V15.3261H158.018V14.0373H157.942C157.221 15.0985 156.259 15.6294 155.058 15.6294C154.033 15.6294 153.176 15.3261 152.487 14.7196C151.797 14.1131 151.453 13.3549 151.453 12.4452C151.453 11.4845 151.816 10.7208 152.543 10.1523C153.271 9.58375 154.241 9.2989 155.456 9.2989C156.492 9.2989 157.346 9.48844 158.017 9.86751V9.46894C158.017 8.86243 157.776 8.34798 157.296 7.92451C156.814 7.50103 156.252 7.28984 155.607 7.28984C154.633 7.28984 153.862 7.70032 153.293 8.52235L151.755 7.55519C152.603 6.34217 153.855 5.73566 155.513 5.73566" fill="white"/>
<path id="Fill 5" fill-rule="evenodd" clip-rule="evenodd" d="M169.269 6.03894L163.443 19.4201H161.641L163.804 14.738L159.971 6.03894H161.869L164.639 12.7106H164.677L167.371 6.03894H169.269Z" fill="white"/>
</g>
<g id="G">
<path id="Fill 8" fill-rule="evenodd" clip-rule="evenodd" d="M137.303 8.64473C137.303 8.09563 137.256 7.56601 137.168 7.05914H129.806V10.0625H134.023C133.842 11.0414 133.294 11.8744 132.464 12.4322V14.3828H134.98C136.454 13.0246 137.303 11.0177 137.303 8.64473" fill="#4285F4"/>
<path id="Fill 10" fill-rule="evenodd" clip-rule="evenodd" d="M129.806 16.2651C131.913 16.2651 133.687 15.5741 134.98 14.3828L132.464 12.4322C131.763 12.9033 130.861 13.1784 129.806 13.1784C127.77 13.1784 126.042 11.8073 125.424 9.95959H122.832V11.9687C124.116 14.516 126.757 16.2651 129.806 16.2651" fill="#34A853"/>
<path id="Fill 12" fill-rule="evenodd" clip-rule="evenodd" d="M125.424 9.9596C125.266 9.48847 125.179 8.98593 125.179 8.46715C125.179 7.94837 125.266 7.44583 125.424 6.9747V4.96564H122.832C122.3 6.01837 122 7.20756 122 8.46715C122 9.72674 122.3 10.916 122.832 11.9687L125.424 9.9596Z" fill="#FABB05"/>
<path id="Fill 14" fill-rule="evenodd" clip-rule="evenodd" d="M129.806 3.75583C130.957 3.75583 131.988 4.15115 132.801 4.92553V4.92661L135.029 2.70094C133.676 1.44243 131.912 0.669128 129.806 0.669128C126.757 0.669128 124.116 2.41826 122.832 4.9656L125.424 6.97467C126.042 5.12698 127.77 3.75583 129.806 3.75583" fill="#E94235"/>
</g>
</g>
</g>
</g>
</svg>
