<svg width="270" height="38" viewBox="0 0 270 38" fill="none" xmlns="http://www.w3.org/2000/svg">
<g id="fr_view_in_Light">
<path id="Text" d="M0.443438 30L8.00344 9.952H11.5034L19.0914 30H15.7034L13.8554 24.848H5.67944L3.83144 30H0.443438ZM8.92744 15.86L6.71544 21.992H12.8194L10.6074 15.86L9.85144 13.564H9.68344L8.92744 15.86ZM28.7192 18.352V15.72H31.3232V14.544C31.3232 13.536 31.5378 12.6773 31.9672 11.968C32.3965 11.24 32.9752 10.6893 33.7032 10.316C34.4498 9.924 35.2898 9.728 36.2232 9.728C36.6898 9.728 37.0632 9.756 37.3432 9.812C37.6232 9.868 37.8565 9.924 38.0432 9.98V12.892C37.8752 12.836 37.6512 12.7707 37.3712 12.696C37.1098 12.6027 36.7738 12.556 36.3632 12.556C35.8218 12.556 35.3458 12.752 34.9352 13.144C34.5245 13.5173 34.3192 14.068 34.3192 14.796V15.72H40.4232V18.352H34.3192V30H31.3232V18.352H28.7192ZM19.6192 18.352V15.72H22.2232V14.544C22.2232 13.536 22.4378 12.6773 22.8672 11.968C23.2965 11.24 23.8752 10.6893 24.6032 10.316C25.3498 9.924 26.1898 9.728 27.1232 9.728C27.5898 9.728 27.9632 9.756 28.2432 9.812C28.5232 9.868 28.7565 9.924 28.9432 9.98V12.892C28.7752 12.836 28.5512 12.7707 28.2712 12.696C28.0098 12.6027 27.6738 12.556 27.2632 12.556C26.7218 12.556 26.2458 12.752 25.8352 13.144C25.4245 13.5173 25.2192 14.068 25.2192 14.796V15.72H31.3232V18.352H25.2192V30H22.2232V18.352H19.6192ZM41.8792 13.62C41.3192 13.62 40.8338 13.424 40.4232 13.032C40.0312 12.6213 39.8352 12.136 39.8352 11.576C39.8352 11.016 40.0312 10.54 40.4232 10.148C40.8338 9.756 41.3192 9.56 41.8792 9.56C42.4392 9.56 42.9152 9.756 43.3072 10.148C43.7178 10.54 43.9232 11.016 43.9232 11.576C43.9232 12.136 43.7178 12.6213 43.3072 13.032C42.9152 13.424 42.4392 13.62 41.8792 13.62ZM40.3672 30V15.72H43.3912V30H40.3672ZM53.9212 30.448C52.4839 30.448 51.2146 30.1213 50.1132 29.468C49.0119 28.8147 48.1439 27.9187 47.5092 26.78C46.8746 25.6227 46.5572 24.316 46.5572 22.86C46.5572 21.404 46.8746 20.1067 47.5092 18.968C48.1439 17.8107 49.0119 16.9053 50.1132 16.252C51.2146 15.5987 52.4839 15.272 53.9212 15.272C55.5079 15.272 56.8426 15.6267 57.9252 16.336C59.0266 17.0453 59.8106 18.0067 60.2772 19.22L57.5332 20.34C56.8799 18.8093 55.6572 18.044 53.8652 18.044C53.0812 18.044 52.3626 18.2493 51.7092 18.66C51.0559 19.052 50.5332 19.612 50.1412 20.34C49.7492 21.0493 49.5532 21.8893 49.5532 22.86C49.5532 23.8307 49.7492 24.68 50.1412 25.408C50.5332 26.136 51.0559 26.696 51.7092 27.088C52.3626 27.48 53.0812 27.676 53.8652 27.676C54.7799 27.676 55.5546 27.4707 56.1892 27.06C56.8239 26.6307 57.3186 26.052 57.6732 25.324L60.3612 26.5C59.8572 27.6387 59.0546 28.5813 57.9532 29.328C56.8519 30.0747 55.5079 30.448 53.9212 30.448ZM63.2538 30V9.952H66.2778V15.44L66.1098 17.68H66.2778C66.6698 16.9893 67.2672 16.42 68.0698 15.972C68.8912 15.5053 69.7965 15.272 70.7858 15.272C72.5592 15.272 73.8938 15.804 74.7898 16.868C75.6858 17.9133 76.1338 19.2853 76.1338 20.984V30H73.1378V21.376C73.1378 20.2187 72.8298 19.3787 72.2138 18.856C71.6165 18.3147 70.8792 18.044 70.0018 18.044C69.2738 18.044 68.6298 18.2493 68.0698 18.66C67.5098 19.0707 67.0712 19.612 66.7538 20.284C66.4365 20.9373 66.2778 21.6373 66.2778 22.384V30H63.2538ZM86.4021 30.448C85.0021 30.448 83.7514 30.1213 82.6501 29.468C81.5487 28.8147 80.6807 27.9187 80.0461 26.78C79.4301 25.6413 79.1221 24.344 79.1221 22.888C79.1221 21.5253 79.4207 20.2653 80.0181 19.108C80.6154 17.9507 81.4461 17.0267 82.5101 16.336C83.5927 15.6267 84.8341 15.272 86.2341 15.272C87.7087 15.272 88.9594 15.5893 89.9861 16.224C91.0314 16.8587 91.8247 17.7267 92.3661 18.828C92.9074 19.9293 93.1781 21.1707 93.1781 22.552C93.1781 22.7573 93.1687 22.944 93.1501 23.112C93.1501 23.28 93.1407 23.4107 93.1221 23.504H82.0901C82.2394 24.9227 82.7341 25.9867 83.5741 26.696C84.4327 27.4053 85.4034 27.76 86.4861 27.76C87.4567 27.76 88.2594 27.5453 88.8941 27.116C89.5287 26.668 90.0327 26.1173 90.4061 25.464L92.8981 26.668C92.2821 27.788 91.4421 28.7027 90.3781 29.412C89.3141 30.1027 87.9887 30.448 86.4021 30.448ZM86.2621 17.848C85.2541 17.848 84.3954 18.156 83.6861 18.772C82.9767 19.388 82.5007 20.2093 82.2581 21.236H90.1821C90.1447 20.7507 89.9861 20.2467 89.7061 19.724C89.4261 19.2013 88.9967 18.7627 88.4181 18.408C87.8581 18.0347 87.1394 17.848 86.2621 17.848ZM96.2835 30V15.72H99.1395V17.82H99.3075C99.6249 17.092 100.166 16.4947 100.932 16.028C101.716 15.5427 102.556 15.3 103.452 15.3C103.844 15.3 104.17 15.328 104.432 15.384C104.712 15.44 104.964 15.5053 105.188 15.58V18.716C104.833 18.5667 104.469 18.4453 104.096 18.352C103.741 18.2587 103.368 18.212 102.976 18.212C102.266 18.212 101.632 18.408 101.072 18.8C100.53 19.1733 100.101 19.6867 99.7835 20.34C99.4662 20.9747 99.3075 21.6747 99.3075 22.44V30H96.2835ZM120.761 30.448C119.473 30.448 118.306 30.1307 117.261 29.496C116.234 28.8427 115.413 27.9467 114.797 26.808C114.2 25.6507 113.901 24.3347 113.901 22.86C113.901 21.3853 114.2 20.0787 114.797 18.94C115.413 17.8013 116.234 16.9053 117.261 16.252C118.306 15.5987 119.473 15.272 120.761 15.272C121.862 15.272 122.805 15.5147 123.589 16C124.392 16.4853 124.98 17.036 125.353 17.652H125.521L125.353 15.664V9.952H128.349V30H125.521V28.096H125.353C124.98 28.712 124.392 29.2627 123.589 29.748C122.805 30.2147 121.862 30.448 120.761 30.448ZM121.209 27.676C121.956 27.676 122.656 27.48 123.309 27.088C123.981 26.696 124.513 26.1453 124.905 25.436C125.316 24.708 125.521 23.8493 125.521 22.86C125.521 21.8707 125.316 21.0213 124.905 20.312C124.513 19.584 123.981 19.024 123.309 18.632C122.656 18.24 121.956 18.044 121.209 18.044C120.462 18.044 119.762 18.24 119.109 18.632C118.456 19.024 117.924 19.584 117.513 20.312C117.102 21.0213 116.897 21.8707 116.897 22.86C116.897 23.8493 117.102 24.708 117.513 25.436C117.924 26.1453 118.456 26.696 119.109 27.088C119.762 27.48 120.462 27.676 121.209 27.676ZM136.554 30.448C135.527 30.448 134.613 30.252 133.81 29.86C133.007 29.4493 132.382 28.88 131.934 28.152C131.486 27.424 131.262 26.5933 131.262 25.66C131.262 24.652 131.523 23.7933 132.046 23.084C132.587 22.356 133.306 21.8053 134.202 21.432C135.098 21.0587 136.087 20.872 137.17 20.872C138.066 20.872 138.85 20.956 139.522 21.124C140.213 21.292 140.735 21.4693 141.09 21.656V20.9C141.09 19.9667 140.754 19.22 140.082 18.66C139.41 18.1 138.542 17.82 137.478 17.82C136.75 17.82 136.059 17.988 135.406 18.324C134.753 18.6413 134.23 19.08 133.838 19.64L131.766 18.044C132.382 17.1853 133.194 16.5133 134.202 16.028C135.229 15.524 136.349 15.272 137.562 15.272C139.634 15.272 141.23 15.7853 142.35 16.812C143.47 17.82 144.03 19.2387 144.03 21.068V30H141.09V28.236H140.922C140.549 28.8147 139.989 29.328 139.242 29.776C138.495 30.224 137.599 30.448 136.554 30.448ZM137.086 27.984C137.87 27.984 138.561 27.7973 139.158 27.424C139.755 27.0507 140.222 26.5653 140.558 25.968C140.913 25.352 141.09 24.6893 141.09 23.98C140.661 23.7373 140.157 23.5413 139.578 23.392C138.999 23.224 138.383 23.14 137.73 23.14C136.498 23.14 135.621 23.392 135.098 23.896C134.575 24.3813 134.314 24.9787 134.314 25.688C134.314 26.36 134.566 26.9107 135.07 27.34C135.574 27.7693 136.246 27.984 137.086 27.984ZM147.659 30V15.72H150.515V17.68H150.683C151.094 16.9893 151.701 16.42 152.503 15.972C153.325 15.5053 154.221 15.272 155.191 15.272C156.946 15.272 158.262 15.7947 159.139 16.84C160.017 17.8853 160.455 19.2667 160.455 20.984V30H157.459V21.376C157.459 20.2187 157.17 19.3787 156.591 18.856C156.013 18.3147 155.257 18.044 154.323 18.044C153.595 18.044 152.961 18.2493 152.419 18.66C151.878 19.052 151.449 19.5747 151.131 20.228C150.833 20.8813 150.683 21.5813 150.683 22.328V30H147.659ZM169.273 30.448C167.555 30.448 166.183 30.0747 165.157 29.328C164.13 28.5627 163.421 27.6573 163.029 26.612L165.745 25.436C166.081 26.2013 166.566 26.7893 167.201 27.2C167.835 27.592 168.554 27.788 169.357 27.788C170.103 27.788 170.747 27.6573 171.289 27.396C171.83 27.116 172.101 26.668 172.101 26.052C172.101 25.4547 171.83 25.016 171.289 24.736C170.747 24.456 170.075 24.2133 169.273 24.008L167.565 23.616C166.874 23.448 166.23 23.1867 165.633 22.832C165.035 22.4773 164.55 22.02 164.177 21.46C163.803 20.8813 163.617 20.2093 163.617 19.444C163.617 18.604 163.869 17.876 164.373 17.26C164.877 16.6253 165.539 16.14 166.361 15.804C167.201 15.4493 168.106 15.272 169.077 15.272C170.402 15.272 171.559 15.5333 172.549 16.056C173.557 16.56 174.294 17.3253 174.761 18.352L172.157 19.528C171.821 18.8933 171.382 18.4547 170.841 18.212C170.318 17.9507 169.739 17.82 169.105 17.82C168.395 17.82 167.798 17.9693 167.313 18.268C166.846 18.5667 166.613 18.94 166.613 19.388C166.613 19.8733 166.818 20.256 167.229 20.536C167.658 20.816 168.181 21.04 168.797 21.208L170.869 21.712C172.287 22.0667 173.351 22.608 174.061 23.336C174.77 24.0453 175.125 24.9133 175.125 25.94C175.125 26.8547 174.863 27.6573 174.341 28.348C173.818 29.02 173.109 29.5427 172.213 29.916C171.335 30.2707 170.355 30.448 169.273 30.448Z" fill="#3C4043"/>
<g id="GPay Logo (Light)">
<g id="GPay">
<g id="Pay">
<path id="Fill 1" fill-rule="evenodd" clip-rule="evenodd" d="M226.529 9.44664V17.6128H231.565C232.765 17.6128 233.757 17.2096 234.541 16.4032C235.347 15.5988 235.75 14.6394 235.75 13.5288C235.75 12.4406 235.347 11.4924 234.541 10.686C233.757 9.85915 232.765 9.44478 231.565 9.44478H226.529V9.44664ZM226.529 20.4872V29.9599H223.521V6.57217H231.499C233.527 6.57217 235.248 7.24786 236.666 8.59737C238.105 9.94688 238.824 11.5913 238.824 13.5288C238.824 15.511 238.105 17.1667 236.666 18.4938C235.27 19.8227 233.547 20.4854 231.499 20.4854H226.529V20.4872Z" fill="#5F6368"/>
<path id="Fill 3" fill-rule="evenodd" clip-rule="evenodd" d="M241.864 25.0602C241.864 25.8442 242.197 26.4975 242.862 27.0201C243.527 27.5427 244.306 27.804 245.2 27.804C246.465 27.804 247.591 27.3354 248.584 26.4004C249.576 25.4634 250.071 24.364 250.071 23.1022C249.133 22.3612 247.825 21.9916 246.147 21.9916C244.925 21.9916 243.907 22.2865 243.09 22.8745C242.273 23.4623 241.864 24.1886 241.864 25.0602ZM245.756 13.4317C247.98 13.4317 249.735 14.0252 251.022 15.2124C252.308 16.3995 252.95 18.0271 252.95 20.0952V29.9599H250.073V27.7387H249.942C248.699 29.5677 247.042 30.4825 244.972 30.4825C243.206 30.4825 241.728 29.9599 240.541 28.9146C239.353 27.8694 238.759 26.5628 238.759 24.9949C238.759 23.3393 239.385 22.0232 240.638 21.0434C241.892 20.0635 243.565 19.5726 245.658 19.5726C247.444 19.5726 248.916 19.8992 250.071 20.5525V19.8656C250.071 18.8204 249.656 17.9338 248.829 17.204C247.999 16.4741 247.031 16.1102 245.919 16.1102C244.239 16.1102 242.911 16.8176 241.93 18.2343L239.28 16.5675C240.741 14.4769 242.899 13.4317 245.756 13.4317Z" fill="#5F6368"/>
<path id="Fill 5" fill-rule="evenodd" clip-rule="evenodd" d="M269.463 13.9543L259.424 37.0154H256.318L260.046 28.9464L253.44 13.9543H256.71L261.484 25.4522H261.55L266.193 13.9543H269.463Z" fill="#5F6368"/>
</g>
<g id="G">
<path id="Fill 8" fill-rule="evenodd" clip-rule="evenodd" d="M214.373 18.4452C214.373 17.4989 214.293 16.5861 214.141 15.7126H201.454V20.8885H208.72C208.408 22.5757 207.465 24.0112 206.033 24.9725V28.3341H210.37C212.91 25.9935 214.373 22.5348 214.373 18.4452Z" fill="#4285F4"/>
<path id="Fill 10" fill-rule="evenodd" clip-rule="evenodd" d="M201.454 31.5782C205.084 31.5782 208.141 30.3873 210.37 28.3341L206.033 24.9725C204.826 25.7844 203.272 26.2585 201.454 26.2585C197.944 26.2585 194.966 23.8955 193.901 20.7112H189.433V24.1736C191.647 28.5637 196.197 31.5782 201.454 31.5782Z" fill="#34A853"/>
<path id="Fill 12" fill-rule="evenodd" clip-rule="evenodd" d="M193.901 20.7111C193.628 19.8992 193.479 19.0331 193.479 18.139C193.479 17.245 193.628 16.3789 193.901 15.567V12.1045H189.433C188.518 13.9188 188 15.9683 188 18.139C188 20.3098 188.518 22.3595 189.433 24.1736L193.901 20.7111Z" fill="#FABB05"/>
<path id="Fill 14" fill-rule="evenodd" clip-rule="evenodd" d="M201.454 10.0196C203.436 10.0196 205.213 10.7009 206.615 12.0355V12.0374L210.455 8.20162C208.123 6.03271 205.082 4.7 201.454 4.7C196.197 4.7 191.647 7.71446 189.433 12.1046L193.901 15.567C194.966 12.3827 197.944 10.0196 201.454 10.0196Z" fill="#E94235"/>
</g>
</g>
</g>
</g>
</svg>
