<svg width="103" height="21" viewBox="0 0 103 21" fill="none" xmlns="http://www.w3.org/2000/svg">
<g id="ja_add_to_Pay_NBG">
<g id="GPay (Dark)">
<g id="GPay">
<g id="Pay">
<path id="Fill 1" fill-rule="evenodd" clip-rule="evenodd" d="M22.3563 3.42339V8.16175H25.2784C25.9745 8.16175 26.5501 7.92781 27.0055 7.45993C27.4728 6.99313 27.707 6.43644 27.707 5.79203C27.707 5.16061 27.4728 4.61041 27.0055 4.14254C26.5501 3.66274 25.9745 3.4223 25.2784 3.4223H22.3563V3.42339ZM22.3563 9.82966V15.3262H20.6107V1.75549H25.2404C26.4169 1.75549 27.4154 2.14756 28.2383 2.93061C29.0732 3.71365 29.4906 4.66782 29.4906 5.79203C29.4906 6.94224 29.0731 7.90291 28.2383 8.67296C27.4283 9.44409 26.4287 9.82858 25.2404 9.82858H22.3563V9.82966Z" fill="white"/>
<path id="Fill 3" fill-rule="evenodd" clip-rule="evenodd" d="M31.2546 12.4831C31.2546 12.9379 31.4476 13.317 31.8337 13.6203C32.2195 13.9235 32.6717 14.0752 33.19 14.0752C33.9239 14.0752 34.5777 13.8032 35.1535 13.2607C35.7293 12.717 36.0165 12.0791 36.0165 11.3469C35.4722 10.917 34.7133 10.7025 33.7396 10.7025C33.0306 10.7025 32.4397 10.8736 31.9659 11.2148C31.492 11.5559 31.2546 11.9773 31.2546 12.4831M33.513 5.73566C34.8033 5.73566 35.8214 6.08007 36.5685 6.76889C37.3145 7.45771 37.6873 8.40213 37.6873 9.60216V15.3261H36.0177V14.0373H35.9417C35.2207 15.0985 34.259 15.6294 33.0578 15.6294C32.0332 15.6294 31.1755 15.3261 30.4869 14.7196C29.7975 14.1131 29.4527 13.3549 29.4527 12.4452C29.4527 11.4845 29.8158 10.7208 30.5433 10.1523C31.2708 9.58375 32.2413 9.2989 33.4557 9.2989C34.4921 9.2989 35.3465 9.48844 36.0165 9.86751V9.46894C36.0165 8.86243 35.7758 8.34798 35.2956 7.92451C34.8141 7.50103 34.2525 7.28984 33.6074 7.28984C32.6326 7.28984 31.8618 7.70032 31.2926 8.52235L29.7551 7.55519C30.6029 6.34217 31.8552 5.73566 33.513 5.73566" fill="white"/>
<path id="Fill 5" fill-rule="evenodd" clip-rule="evenodd" d="M47.2687 6.03894L41.4432 19.4201H39.6411L41.8043 14.738L37.9714 6.03894H39.8688L42.639 12.7106H42.677L45.3713 6.03894H47.2687Z" fill="white"/>
</g>
<g id="G">
<path id="Fill 8" fill-rule="evenodd" clip-rule="evenodd" d="M15.3029 8.64473C15.3029 8.09563 15.2562 7.56601 15.1684 7.05914H7.80648V10.0625H12.0231C11.842 11.0414 11.2945 11.8744 10.4639 12.4322V14.3828H12.9804C14.4539 13.0246 15.3029 11.0177 15.3029 8.64473" fill="#4285F4"/>
<path id="Fill 10" fill-rule="evenodd" clip-rule="evenodd" d="M7.80646 16.2651C9.91313 16.2651 11.6869 15.5741 12.9804 14.3828L10.4639 12.4322C9.7635 12.9033 8.86142 13.1784 7.80646 13.1784C5.77028 13.1784 4.04201 11.8073 3.424 9.95959H0.831596V11.9687C2.11641 14.516 4.75652 16.2651 7.80646 16.2651" fill="#34A853"/>
<path id="Fill 12" fill-rule="evenodd" clip-rule="evenodd" d="M3.42401 9.9596C3.26571 9.48847 3.17897 8.98593 3.17897 8.46715C3.17897 7.94837 3.26571 7.44583 3.42401 6.9747V4.96564H0.831606C0.300332 6.01837 0 7.20756 0 8.46715C0 9.72674 0.300332 10.916 0.831606 11.9687L3.42401 9.9596Z" fill="#FABB05"/>
<path id="Fill 14" fill-rule="evenodd" clip-rule="evenodd" d="M7.80646 3.75583C8.95683 3.75583 9.98794 4.15115 10.8011 4.92553V4.92661L13.0292 2.70094C11.6761 1.44243 9.91204 0.669128 7.80646 0.669128C4.75652 0.669128 2.11641 2.41826 0.831596 4.9656L3.424 6.97467C4.04201 5.12698 5.77028 3.75583 7.80646 3.75583" fill="#E94235"/>
</g>
</g>
</g>
<path id="Right Text" d="M60.93 4.20061L60.946 5.49661C62.69 5.68861 65.794 5.68861 67.506 5.49661V4.20061C65.922 4.44061 62.674 4.50461 60.93 4.20061ZM61.554 10.7286L60.402 10.6166C60.226 11.3846 60.146 11.9606 60.146 12.4886C60.146 13.9926 61.346 14.8886 64.018 14.8886C65.682 14.8886 67.026 14.7606 68.018 14.5526L67.986 13.2086C66.706 13.5126 65.458 13.6406 64.034 13.6406C61.842 13.6406 61.33 12.9206 61.33 12.1846C61.33 11.7526 61.41 11.3046 61.554 10.7286ZM57.89 2.96861L56.466 2.85661C56.45 3.20861 56.402 3.60861 56.354 3.97661C56.162 5.30461 55.634 8.04061 55.634 10.3926C55.634 12.5686 55.906 14.4086 56.226 15.5446L57.362 15.4646C57.346 15.2886 57.33 15.0646 57.314 14.9046C57.314 14.7126 57.346 14.4086 57.394 14.1846C57.538 13.4166 58.13 11.7366 58.53 10.6006L57.858 10.0726C57.586 10.7286 57.218 11.6886 56.946 12.4086C56.85 11.6246 56.802 10.9526 56.802 10.1846C56.802 8.37661 57.298 5.52861 57.602 4.04061C57.666 3.75261 57.794 3.24061 57.89 2.96861ZM73.976 7.88061H70.568V9.00061H72.808V13.5446H73.976V7.88061ZM73.976 13.0166H72.888C72.072 13.7046 71.128 14.4086 70.36 14.9206L71 16.1526C71.864 15.4486 72.68 14.7606 73.448 14.0726C74.472 15.3366 75.912 15.8966 77.992 15.9766C79.768 16.0406 83.08 16.0086 84.84 15.9446C84.888 15.5766 85.096 15.0006 85.224 14.7126C83.336 14.8406 79.736 14.8886 77.992 14.8246C76.152 14.7446 74.728 14.2006 73.976 13.0166ZM70.744 2.68061C71.784 3.38461 72.984 4.47261 73.496 5.24061L74.44 4.45661C73.88 3.67261 72.68 2.63261 71.624 1.96061L70.744 2.68061ZM76.344 3.24061V4.24861H82.28V6.40861H76.344V7.43261H83.448V3.24061H76.344ZM78.952 1.51261C78.824 2.13661 78.536 3.03261 78.296 3.64061L79.4 3.88061C79.672 3.33661 80.024 2.52061 80.328 1.73661L78.952 1.51261ZM75.768 3.24061V13.5126H76.936V3.24061H75.768ZM76.408 8.95261V9.97661H82.904V12.4726H76.408V13.5126H84.088V8.95261H76.408ZM95.63 13.7046V14.8726H99.982V13.7046H95.63ZM86.798 4.60061V5.76861H92.942V4.60061H86.798ZM95.086 3.56061V16.0406H96.254V4.71261H99.342V15.9286H100.558V3.56061H95.086ZM92.622 4.60061V4.88861C92.51 11.7366 92.366 14.1046 91.998 14.6006C91.854 14.8086 91.71 14.8566 91.47 14.8406C91.166 14.8406 90.478 14.8406 89.726 14.7766C89.934 15.1126 90.062 15.6406 90.078 15.9926C90.798 16.0406 91.534 16.0406 91.982 15.9766C92.462 15.9286 92.75 15.7846 93.038 15.3686C93.55 14.6646 93.662 12.3286 93.79 5.20861C93.79 5.04861 93.79 4.60061 93.79 4.60061H92.622ZM89.07 1.78461C89.054 7.38461 89.07 12.6646 86.398 15.4806C86.702 15.6566 87.118 16.0246 87.326 16.2966C90.142 13.2406 90.222 7.68861 90.238 1.78461H89.07Z" fill="white"/>
</g>
</svg>
