<svg width="236" height="38" viewBox="0 0 236 38" fill="none" xmlns="http://www.w3.org/2000/svg">
<g id="ja_book_with_Light">
<g id="GPay Logo (Light)">
<g id="GPay">
<g id="Pay">
<path id="Fill 1" fill-rule="evenodd" clip-rule="evenodd" d="M38.5289 9.44664V17.6128H43.5649C44.7645 17.6128 45.7565 17.2096 46.5413 16.4032C47.3467 15.5988 47.7503 14.6394 47.7503 13.5288C47.7503 12.4406 47.3467 11.4924 46.5413 10.686C45.7565 9.85915 44.7645 9.44478 43.5649 9.44478H38.5289V9.44664ZM38.5289 20.4872V29.9599H35.5205V6.57217H43.4993C45.5269 6.57217 47.2478 7.24786 48.6659 8.59737C50.1049 9.94688 50.8241 11.5913 50.8241 13.5288C50.8241 15.511 50.1047 17.1667 48.6659 18.4938C47.2701 19.8227 45.5473 20.4854 43.4993 20.4854H38.5289V20.4872Z" fill="#5F6368"/>
<path id="Fill 3" fill-rule="evenodd" clip-rule="evenodd" d="M53.8642 25.0602C53.8642 25.8442 54.1968 26.4975 54.8622 27.0201C55.5272 27.5427 56.3064 27.804 57.1998 27.804C58.4646 27.804 59.5913 27.3354 60.5835 26.4004C61.5759 25.4634 62.0709 24.364 62.0709 23.1022C61.1329 22.3612 59.8249 21.9916 58.1469 21.9916C56.9251 21.9916 55.9067 22.2865 55.0901 22.8745C54.2734 23.4623 53.8642 24.1886 53.8642 25.0602ZM57.7564 13.4317C59.98 13.4317 61.7346 14.0252 63.0222 15.2124C64.3078 16.3995 64.9504 18.0271 64.9504 20.0952V29.9599H62.073V27.7387H61.942C60.6994 29.5677 59.042 30.4825 56.9718 30.4825C55.206 30.4825 53.7279 29.9599 52.5412 28.9146C51.353 27.8694 50.7588 26.5628 50.7588 24.9949C50.7588 23.3393 51.3846 22.0232 52.6384 21.0434C53.8922 20.0635 55.5648 19.5726 57.6576 19.5726C59.4437 19.5726 60.9162 19.8992 62.0709 20.5525V19.8656C62.0709 18.8204 61.6561 17.9338 60.8285 17.204C59.9987 16.4741 59.0308 16.1102 57.919 16.1102C56.2391 16.1102 54.9108 16.8176 53.9298 18.2343L51.2799 16.5675C52.7412 14.4769 54.8994 13.4317 57.7564 13.4317Z" fill="#5F6368"/>
<path id="Fill 5" fill-rule="evenodd" clip-rule="evenodd" d="M81.4629 13.9543L71.4233 37.0154H68.3175L72.0455 28.9464L65.4399 13.9543H68.7099L73.4841 25.4522H73.5495L78.1929 13.9543H81.4629Z" fill="#5F6368"/>
</g>
<g id="G">
<path id="Fill 8" fill-rule="evenodd" clip-rule="evenodd" d="M26.3729 18.4452C26.3729 17.4989 26.2926 16.5861 26.1412 15.7126H13.4536V20.8885H20.7205C20.4084 22.5757 19.4648 24.0112 18.0335 24.9725V28.3341H22.3704C24.9098 25.9935 26.3729 22.5348 26.3729 18.4452Z" fill="#4285F4"/>
<path id="Fill 10" fill-rule="evenodd" clip-rule="evenodd" d="M13.4536 31.5782C17.0843 31.5782 20.1412 30.3873 22.3704 28.3341L18.0335 24.9725C16.8264 25.7844 15.2717 26.2585 13.4536 26.2585C9.94445 26.2585 6.96594 23.8955 5.90086 20.7112H1.43311V24.1736C3.64736 28.5637 8.19733 31.5782 13.4536 31.5782Z" fill="#34A853"/>
<path id="Fill 12" fill-rule="evenodd" clip-rule="evenodd" d="M5.90095 20.7111C5.62814 19.8992 5.47865 19.0331 5.47865 18.139C5.47865 17.245 5.62814 16.3789 5.90095 15.567V12.1045H1.43319C0.517594 13.9188 0 15.9683 0 18.139C0 20.3098 0.517594 22.3595 1.43319 24.1736L5.90095 20.7111Z" fill="#FABB05"/>
<path id="Fill 14" fill-rule="evenodd" clip-rule="evenodd" d="M13.4536 10.0196C15.4362 10.0196 17.2132 10.7009 18.6146 12.0355V12.0374L22.4545 8.20162C20.1226 6.03271 17.0824 4.7 13.4536 4.7C8.19733 4.7 3.64736 7.71446 1.43311 12.1046L5.90086 15.567C6.96594 12.3827 9.94445 10.0196 13.4536 10.0196Z" fill="#E94235"/>
</g>
</g>
</g>
<path id="Text" d="M95.212 11.576L95.464 14.012C98.488 13.368 105.628 12.696 108.624 12.36C106.048 13.9 103.388 17.456 103.388 21.824C103.388 28.068 109.296 30.84 114.476 31.036L115.288 28.712C110.724 28.544 105.628 26.808 105.628 21.348C105.628 18.016 108.064 13.76 112.04 12.472C113.468 12.052 115.932 12.024 117.528 12.024V9.784C115.652 9.868 113.02 10.036 109.968 10.288C104.816 10.708 99.524 11.24 97.704 11.436C97.172 11.492 96.276 11.548 95.212 11.576ZM113.496 15.468L112.068 16.084C112.908 17.232 113.72 18.688 114.364 20.032L115.792 19.36C115.204 18.128 114.14 16.392 113.496 15.468ZM116.548 14.292L115.176 14.936C116.044 16.112 116.856 17.484 117.528 18.856L118.984 18.156C118.34 16.924 117.22 15.216 116.548 14.292ZM146.248 16.812L145.828 16.98H140.06L140.536 16.252C139.752 15.832 138.66 15.3 137.512 14.796C140.032 13.2 142.804 11.1 144.792 9.112L143.28 7.964L142.804 8.076H125.528V10.008H140.788C139.276 11.38 137.232 12.836 135.468 13.844C133.76 13.088 131.94 12.332 130.4 11.716L129.336 13.256C131.828 14.32 135.02 15.776 137.4 16.98H122.896V18.968H134.432V29.496C134.432 29.916 134.264 30.028 133.76 30.056C133.2 30.084 131.324 30.112 129.392 30.028C129.672 30.616 130.036 31.456 130.176 32.044C132.612 32.044 134.236 32.016 135.216 31.708C136.196 31.4 136.532 30.812 136.532 29.524V18.968H144.484C143.476 20.592 142.244 22.216 141.208 23.336L142.888 24.4C144.596 22.692 146.416 20.032 147.9 17.596L146.248 16.812ZM152.232 22.44C151.924 24.904 151.336 27.396 150.412 29.104C150.86 29.244 151.7 29.636 152.036 29.888C152.96 28.096 153.632 25.408 154.024 22.776L152.232 22.44ZM158.308 22.832C159.064 24.568 159.848 26.808 160.1 28.264L161.752 27.704C161.5 26.248 160.688 24.036 159.876 22.328L158.308 22.832ZM157.608 16.196C158.084 16.952 158.56 17.82 158.98 18.688C157.44 18.744 155.9 18.828 154.5 18.884C156.432 16.476 158.672 13.172 160.296 10.54L158.504 9.756C157.72 11.268 156.656 13.088 155.508 14.852C155.06 14.264 154.472 13.592 153.8 12.92C154.864 11.408 156.04 9.168 156.992 7.292L155.144 6.592C154.556 8.132 153.576 10.232 152.652 11.8C152.372 11.548 152.092 11.296 151.812 11.072L150.748 12.444C152.064 13.62 153.548 15.188 154.416 16.448C153.8 17.372 153.156 18.212 152.54 18.94C151.896 18.968 151.252 18.996 150.692 18.996L150.86 20.872L155.424 20.648V32.184H157.3V20.536L159.736 20.396C159.988 20.984 160.156 21.516 160.268 21.992L161.92 21.208C161.528 19.696 160.296 17.316 159.148 15.524L157.608 16.196ZM175.808 11.604H165.532C166.204 10.148 166.764 8.608 167.24 7.04L165.14 6.564C164.104 10.26 162.312 13.928 160.156 16.252C160.66 16.532 161.584 17.148 161.976 17.484C162.9 16.392 163.796 15.048 164.58 13.564H173.764C173.344 24.484 172.868 28.74 171.944 29.692C171.636 30.056 171.272 30.112 170.74 30.112C170.04 30.112 168.332 30.112 166.456 29.944C166.848 30.504 167.072 31.4 167.128 31.988C168.808 32.1 170.516 32.128 171.44 32.044C172.504 31.932 173.12 31.736 173.764 30.924C174.912 29.552 175.304 25.212 175.808 12.668V11.604ZM169.536 24.036C168.864 22.272 167.184 19.612 165.616 17.652L163.936 18.464C165.504 20.508 167.072 23.28 167.716 24.988L169.536 24.036ZM195.456 7.824H192.908C192.936 8.048 193.048 8.86 193.076 9.588C193.104 9.98 193.132 10.652 193.132 11.436C188.96 11.492 183.696 11.66 180.588 11.716L180.644 13.872C184.144 13.62 188.904 13.424 193.16 13.396C193.188 14.376 193.188 15.384 193.188 16.224C192.628 16.028 192.012 15.916 191.312 15.916C188.652 15.916 186.384 18.016 186.384 20.788C186.384 23.84 188.624 25.464 190.976 25.464C191.928 25.464 192.74 25.212 193.412 24.708C192.292 27.256 189.716 28.824 185.992 29.664L187.868 31.512C194.392 29.552 196.24 25.352 196.24 21.572C196.24 20.172 195.932 18.94 195.344 17.988C195.316 16.7 195.288 14.964 195.288 13.368C195.428 13.368 195.54 13.368 195.68 13.368C199.768 13.368 202.316 13.424 203.884 13.508L203.912 11.436C202.568 11.436 199.124 11.408 195.708 11.408C195.568 11.408 195.428 11.408 195.288 11.408C195.288 10.652 195.316 10.008 195.316 9.588C195.344 9.224 195.4 8.132 195.456 7.824ZM188.484 20.76C188.484 18.94 189.856 17.792 191.312 17.792C192.404 17.792 193.356 18.324 193.804 19.556C194.056 22.216 192.992 23.532 191.34 23.532C189.772 23.532 188.484 22.496 188.484 20.76ZM216.448 27.06C216.448 26.08 217.428 25.268 218.688 25.268C220.816 25.268 222.216 26.864 222.44 29.076C221.74 29.188 220.984 29.244 220.172 29.244C217.988 29.244 216.448 28.404 216.448 27.06ZM212.864 9.364L212.948 11.688C213.536 11.604 214.18 11.548 214.796 11.52C216.28 11.436 221.88 11.184 223.364 11.128C221.936 12.388 218.436 15.328 216.868 16.616C215.244 17.988 211.66 20.984 209.336 22.888L210.932 24.54C214.488 20.928 216.98 18.94 221.656 18.94C225.296 18.94 227.928 21.012 227.928 23.756C227.928 26.052 226.668 27.676 224.428 28.544C224.092 25.884 222.216 23.588 218.716 23.588C216.112 23.588 214.404 25.296 214.404 27.228C214.404 29.552 216.728 31.204 220.536 31.204C226.472 31.204 230.168 28.292 230.168 23.784C230.168 20.004 226.836 17.204 222.188 17.204C220.928 17.204 219.584 17.344 218.296 17.792C220.48 15.972 224.288 12.724 225.688 11.66C226.192 11.24 226.752 10.876 227.256 10.512L225.968 8.888C225.688 8.972 225.296 9.056 224.456 9.112C222.972 9.252 216.308 9.476 214.852 9.476C214.292 9.476 213.508 9.448 212.864 9.364Z" fill="#3C4043"/>
</g>
</svg>
