<svg width="236" height="38" viewBox="0 0 236 38" fill="none" xmlns="http://www.w3.org/2000/svg">
<g id="ja_checkout_with_Light">
<g id="GPay Logo (Light)">
<g id="GPay">
<g id="Pay">
<path id="Fill 1" fill-rule="evenodd" clip-rule="evenodd" d="M38.5289 9.44664V17.6128H43.5649C44.7645 17.6128 45.7565 17.2096 46.5413 16.4032C47.3467 15.5988 47.7503 14.6394 47.7503 13.5288C47.7503 12.4406 47.3467 11.4924 46.5413 10.686C45.7565 9.85915 44.7645 9.44478 43.5649 9.44478H38.5289V9.44664ZM38.5289 20.4872V29.9599H35.5205V6.57217H43.4993C45.5269 6.57217 47.2478 7.24786 48.6659 8.59737C50.1049 9.94688 50.8241 11.5913 50.8241 13.5288C50.8241 15.511 50.1047 17.1667 48.6659 18.4938C47.2701 19.8227 45.5473 20.4854 43.4993 20.4854H38.5289V20.4872Z" fill="#5F6368"/>
<path id="Fill 3" fill-rule="evenodd" clip-rule="evenodd" d="M53.8642 25.0602C53.8642 25.8442 54.1968 26.4975 54.8622 27.0201C55.5272 27.5427 56.3064 27.804 57.1998 27.804C58.4646 27.804 59.5913 27.3354 60.5835 26.4004C61.5759 25.4634 62.0709 24.364 62.0709 23.1022C61.1329 22.3612 59.8249 21.9916 58.1469 21.9916C56.9251 21.9916 55.9067 22.2865 55.0901 22.8745C54.2734 23.4623 53.8642 24.1886 53.8642 25.0602ZM57.7564 13.4317C59.98 13.4317 61.7346 14.0252 63.0222 15.2124C64.3078 16.3995 64.9504 18.0271 64.9504 20.0952V29.9599H62.073V27.7387H61.942C60.6994 29.5677 59.042 30.4825 56.9718 30.4825C55.206 30.4825 53.7279 29.9599 52.5412 28.9146C51.353 27.8694 50.7588 26.5628 50.7588 24.9949C50.7588 23.3393 51.3846 22.0232 52.6384 21.0434C53.8922 20.0635 55.5648 19.5726 57.6576 19.5726C59.4437 19.5726 60.9162 19.8992 62.0709 20.5525V19.8656C62.0709 18.8204 61.6561 17.9338 60.8285 17.204C59.9987 16.4741 59.0308 16.1102 57.919 16.1102C56.2391 16.1102 54.9108 16.8176 53.9298 18.2343L51.2799 16.5675C52.7412 14.4769 54.8994 13.4317 57.7564 13.4317Z" fill="#5F6368"/>
<path id="Fill 5" fill-rule="evenodd" clip-rule="evenodd" d="M81.4629 13.9543L71.4233 37.0154H68.3175L72.0455 28.9464L65.4399 13.9543H68.7099L73.4841 25.4522H73.5495L78.1929 13.9543H81.4629Z" fill="#5F6368"/>
</g>
<g id="G">
<path id="Fill 8" fill-rule="evenodd" clip-rule="evenodd" d="M26.3729 18.4452C26.3729 17.4989 26.2926 16.5861 26.1412 15.7126H13.4536V20.8885H20.7205C20.4084 22.5757 19.4648 24.0112 18.0335 24.9725V28.3341H22.3704C24.9098 25.9935 26.3729 22.5348 26.3729 18.4452Z" fill="#4285F4"/>
<path id="Fill 10" fill-rule="evenodd" clip-rule="evenodd" d="M13.4536 31.5782C17.0843 31.5782 20.1412 30.3873 22.3704 28.3341L18.0335 24.9725C16.8264 25.7844 15.2717 26.2585 13.4536 26.2585C9.94445 26.2585 6.96594 23.8955 5.90086 20.7112H1.43311V24.1736C3.64736 28.5637 8.19733 31.5782 13.4536 31.5782Z" fill="#34A853"/>
<path id="Fill 12" fill-rule="evenodd" clip-rule="evenodd" d="M5.90095 20.7111C5.62814 19.8992 5.47865 19.0331 5.47865 18.139C5.47865 17.245 5.62814 16.3789 5.90095 15.567V12.1045H1.43319C0.517594 13.9188 0 15.9683 0 18.139C0 20.3098 0.517594 22.3595 1.43319 24.1736L5.90095 20.7111Z" fill="#FABB05"/>
<path id="Fill 14" fill-rule="evenodd" clip-rule="evenodd" d="M13.4536 10.0196C15.4362 10.0196 17.2132 10.7009 18.6146 12.0355V12.0374L22.4545 8.20162C20.1226 6.03271 17.0824 4.7 13.4536 4.7C8.19733 4.7 3.64736 7.71446 1.43311 12.1046L5.90086 15.567C6.96594 12.3827 9.94445 10.0196 13.4536 10.0196Z" fill="#E94235"/>
</g>
</g>
</g>
<path id="Text" d="M95.212 11.576L95.464 14.012C98.488 13.368 105.628 12.696 108.624 12.36C106.048 13.9 103.388 17.456 103.388 21.824C103.388 28.068 109.296 30.84 114.476 31.036L115.288 28.712C110.724 28.544 105.628 26.808 105.628 21.348C105.628 18.016 108.064 13.76 112.04 12.472C113.468 12.052 115.932 12.024 117.528 12.024V9.784C115.652 9.868 113.02 10.036 109.968 10.288C104.816 10.708 99.524 11.24 97.704 11.436C97.172 11.492 96.276 11.548 95.212 11.576ZM113.496 15.468L112.068 16.084C112.908 17.232 113.72 18.688 114.364 20.032L115.792 19.36C115.204 18.128 114.14 16.392 113.496 15.468ZM116.548 14.292L115.176 14.936C116.044 16.112 116.856 17.484 117.528 18.856L118.984 18.156C118.34 16.924 117.22 15.216 116.548 14.292ZM130.092 9.812C129.028 8.804 126.816 7.572 125.052 6.816L123.932 8.328C125.696 9.14 127.852 10.484 128.888 11.464L130.092 9.812ZM128.72 17.092C127.6 16.168 125.36 14.992 123.596 14.292L122.448 15.86C124.268 16.616 126.452 17.876 127.544 18.828L128.72 17.092ZM128.02 21.376C126.564 24.568 124.604 28.236 123.232 30.42L125.024 31.736C126.508 29.104 128.272 25.632 129.616 22.664L128.02 21.376ZM139.024 12.976H143.756V19.332H138.912C138.996 18.268 139.024 17.176 139.024 16.112V12.976ZM148.096 21.264V19.332H145.772V11.044H139.024V6.62H136.98V11.044H131.464V12.976H136.98V16.084C136.98 17.176 136.952 18.268 136.84 19.332H129.952V21.264H136.532C135.776 24.848 133.788 28.152 128.664 30.7C129.168 31.036 129.924 31.764 130.288 32.184C135.524 29.496 137.68 25.912 138.52 22.048C140.032 26.836 142.72 30.392 146.892 32.184C147.172 31.624 147.844 30.812 148.32 30.42C144.344 28.88 141.712 25.604 140.34 21.264H148.096ZM158.392 9.812C157.328 8.804 155.116 7.572 153.352 6.816L152.232 8.328C153.996 9.14 156.152 10.484 157.188 11.464L158.392 9.812ZM157.02 17.092C155.9 16.168 153.66 14.992 151.896 14.292L150.748 15.86C152.568 16.616 154.752 17.876 155.844 18.828L157.02 17.092ZM156.544 21.376C155.032 24.568 152.988 28.236 151.588 30.42L153.352 31.736C154.892 29.132 156.74 25.632 158.112 22.664L156.544 21.376ZM162.872 25.044C162.984 24.176 163.012 23.336 163.012 22.58V22.384H171.748V25.044H162.872ZM171.748 20.62H163.012V18.968H161.024V22.58C161.024 25.128 160.604 28.74 157.412 31.232C157.888 31.512 158.672 32.044 159.036 32.408C161.024 30.812 162.032 28.824 162.536 26.836H171.748V32.1H173.792V18.968H171.748V20.62ZM170.656 11.324C169.844 12.5 168.752 13.508 167.436 14.348C166.064 13.564 164.832 12.584 163.74 11.324H170.656ZM176.144 11.324V9.504H168.388V6.592H166.288V9.504H158.644V11.324H161.528C162.704 13.004 164.076 14.32 165.588 15.356C163.32 16.42 160.632 17.148 157.804 17.624C158.168 18.072 158.672 18.94 158.84 19.388C161.948 18.744 164.916 17.82 167.408 16.448C169.788 17.68 172.476 18.492 175.5 19.164C175.724 18.52 176.2 17.764 176.648 17.316C173.904 16.812 171.468 16.196 169.312 15.272C170.796 14.18 172.056 12.892 172.952 11.324H176.144ZM195.456 7.824H192.908C192.936 8.048 193.048 8.86 193.076 9.588C193.104 9.98 193.132 10.652 193.132 11.436C188.96 11.492 183.696 11.66 180.588 11.716L180.644 13.872C184.144 13.62 188.904 13.424 193.16 13.396C193.188 14.376 193.188 15.384 193.188 16.224C192.628 16.028 192.012 15.916 191.312 15.916C188.652 15.916 186.384 18.016 186.384 20.788C186.384 23.84 188.624 25.464 190.976 25.464C191.928 25.464 192.74 25.212 193.412 24.708C192.292 27.256 189.716 28.824 185.992 29.664L187.868 31.512C194.392 29.552 196.24 25.352 196.24 21.572C196.24 20.172 195.932 18.94 195.344 17.988C195.316 16.7 195.288 14.964 195.288 13.368C195.428 13.368 195.54 13.368 195.68 13.368C199.768 13.368 202.316 13.424 203.884 13.508L203.912 11.436C202.568 11.436 199.124 11.408 195.708 11.408C195.568 11.408 195.428 11.408 195.288 11.408C195.288 10.652 195.316 10.008 195.316 9.588C195.344 9.224 195.4 8.132 195.456 7.824ZM188.484 20.76C188.484 18.94 189.856 17.792 191.312 17.792C192.404 17.792 193.356 18.324 193.804 19.556C194.056 22.216 192.992 23.532 191.34 23.532C189.772 23.532 188.484 22.496 188.484 20.76ZM216.448 27.06C216.448 26.08 217.428 25.268 218.688 25.268C220.816 25.268 222.216 26.864 222.44 29.076C221.74 29.188 220.984 29.244 220.172 29.244C217.988 29.244 216.448 28.404 216.448 27.06ZM212.864 9.364L212.948 11.688C213.536 11.604 214.18 11.548 214.796 11.52C216.28 11.436 221.88 11.184 223.364 11.128C221.936 12.388 218.436 15.328 216.868 16.616C215.244 17.988 211.66 20.984 209.336 22.888L210.932 24.54C214.488 20.928 216.98 18.94 221.656 18.94C225.296 18.94 227.928 21.012 227.928 23.756C227.928 26.052 226.668 27.676 224.428 28.544C224.092 25.884 222.216 23.588 218.716 23.588C216.112 23.588 214.404 25.296 214.404 27.228C214.404 29.552 216.728 31.204 220.536 31.204C226.472 31.204 230.168 28.292 230.168 23.784C230.168 20.004 226.836 17.204 222.188 17.204C220.928 17.204 219.584 17.344 218.296 17.792C220.48 15.972 224.288 12.724 225.688 11.66C226.192 11.24 226.752 10.876 227.256 10.512L225.968 8.888C225.688 8.972 225.296 9.056 224.456 9.112C222.972 9.252 216.308 9.476 214.852 9.476C214.292 9.476 213.508 9.448 212.864 9.364Z" fill="#3C4043"/>
</g>
</svg>
