<svg width="135" height="21" viewBox="0 0 135 21" fill="none" xmlns="http://www.w3.org/2000/svg">
<g id="ja_checkout_with_Pay_NBG">
<g id="GPay (Dark)">
<g id="GPay">
<g id="Pay">
<path id="Fill 1" fill-rule="evenodd" clip-rule="evenodd" d="M22.3563 3.42339V8.16175H25.2784C25.9745 8.16175 26.5501 7.92781 27.0055 7.45993C27.4728 6.99313 27.707 6.43644 27.707 5.79203C27.707 5.16061 27.4728 4.61041 27.0055 4.14254C26.5501 3.66274 25.9745 3.4223 25.2784 3.4223H22.3563V3.42339ZM22.3563 9.82966V15.3262H20.6107V1.75549H25.2404C26.4169 1.75549 27.4154 2.14756 28.2383 2.93061C29.0732 3.71365 29.4906 4.66782 29.4906 5.79203C29.4906 6.94224 29.0731 7.90291 28.2383 8.67296C27.4283 9.44409 26.4287 9.82858 25.2404 9.82858H22.3563V9.82966Z" fill="white"/>
<path id="Fill 3" fill-rule="evenodd" clip-rule="evenodd" d="M31.2546 12.4831C31.2546 12.9379 31.4476 13.317 31.8337 13.6203C32.2195 13.9235 32.6717 14.0752 33.19 14.0752C33.9239 14.0752 34.5777 13.8032 35.1535 13.2607C35.7293 12.717 36.0165 12.0791 36.0165 11.3469C35.4722 10.917 34.7133 10.7025 33.7396 10.7025C33.0306 10.7025 32.4397 10.8736 31.9659 11.2148C31.492 11.5559 31.2546 11.9773 31.2546 12.4831M33.513 5.73566C34.8033 5.73566 35.8214 6.08007 36.5685 6.76889C37.3145 7.45771 37.6873 8.40213 37.6873 9.60216V15.3261H36.0177V14.0373H35.9417C35.2207 15.0985 34.259 15.6294 33.0578 15.6294C32.0332 15.6294 31.1755 15.3261 30.4869 14.7196C29.7975 14.1131 29.4527 13.3549 29.4527 12.4452C29.4527 11.4845 29.8158 10.7208 30.5433 10.1523C31.2708 9.58375 32.2413 9.2989 33.4557 9.2989C34.4921 9.2989 35.3465 9.48844 36.0165 9.86751V9.46894C36.0165 8.86243 35.7758 8.34798 35.2956 7.92451C34.8141 7.50103 34.2525 7.28984 33.6074 7.28984C32.6326 7.28984 31.8618 7.70032 31.2926 8.52235L29.7551 7.55519C30.6029 6.34217 31.8552 5.73566 33.513 5.73566" fill="white"/>
<path id="Fill 5" fill-rule="evenodd" clip-rule="evenodd" d="M47.2687 6.03894L41.4432 19.4201H39.6411L41.8043 14.738L37.9714 6.03894H39.8688L42.639 12.7106H42.677L45.3713 6.03894H47.2687Z" fill="white"/>
</g>
<g id="G">
<path id="Fill 8" fill-rule="evenodd" clip-rule="evenodd" d="M15.3029 8.64473C15.3029 8.09563 15.2562 7.56601 15.1684 7.05914H7.80648V10.0625H12.0231C11.842 11.0414 11.2945 11.8744 10.4639 12.4322V14.3828H12.9804C14.4539 13.0246 15.3029 11.0177 15.3029 8.64473" fill="#4285F4"/>
<path id="Fill 10" fill-rule="evenodd" clip-rule="evenodd" d="M7.80646 16.2651C9.91313 16.2651 11.6869 15.5741 12.9804 14.3828L10.4639 12.4322C9.7635 12.9033 8.86142 13.1784 7.80646 13.1784C5.77028 13.1784 4.04201 11.8073 3.424 9.95959H0.831596V11.9687C2.11641 14.516 4.75652 16.2651 7.80646 16.2651" fill="#34A853"/>
<path id="Fill 12" fill-rule="evenodd" clip-rule="evenodd" d="M3.42401 9.9596C3.26571 9.48847 3.17897 8.98593 3.17897 8.46715C3.17897 7.94837 3.26571 7.44583 3.42401 6.9747V4.96564H0.831606C0.300332 6.01837 0 7.20756 0 8.46715C0 9.72674 0.300332 10.916 0.831606 11.9687L3.42401 9.9596Z" fill="#FABB05"/>
<path id="Fill 14" fill-rule="evenodd" clip-rule="evenodd" d="M7.80646 3.75583C8.95683 3.75583 9.98794 4.15115 10.8011 4.92553V4.92661L13.0292 2.70094C11.6761 1.44243 9.91204 0.669128 7.80646 0.669128C4.75652 0.669128 2.11641 2.41826 0.831596 4.9656L3.424 6.97467C4.04201 5.12698 5.77028 3.75583 7.80646 3.75583" fill="#E94235"/>
</g>
</g>
</g>
<path id="Right Text" d="M54.898 4.47261L55.042 5.88061C56.77 5.51261 60.85 5.11261 62.562 4.93661C61.106 5.80061 59.586 7.84861 59.586 10.3286C59.586 13.9126 62.946 15.4806 65.906 15.5926L66.37 14.2806C63.778 14.1846 60.85 13.1766 60.85 10.0566C60.85 8.16861 62.242 5.72061 64.53 4.98461C65.346 4.76061 66.738 4.72861 67.666 4.74461L67.65 3.46461C66.578 3.49661 65.09 3.59261 63.33 3.73661C60.386 3.99261 57.362 4.28061 56.338 4.39261C56.018 4.42461 55.506 4.45661 54.898 4.47261ZM65.346 6.69661L64.546 7.04861C65.026 7.72061 65.474 8.53661 65.842 9.30461L66.674 8.93661C66.322 8.21661 65.714 7.22461 65.346 6.69661ZM67.09 6.02461L66.306 6.39261C66.802 7.06461 67.282 7.86461 67.666 8.63261L68.482 8.23261C68.114 7.52861 67.49 6.55261 67.09 6.02461ZM75.592 4.13661V5.27261H82.648V9.44861H83.832V4.13661H75.592ZM74.696 8.88861V10.0406H85.16V8.88861H74.696ZM78.744 1.59261V7.04861C78.744 10.2166 78.296 13.3206 73.96 15.4646C74.264 15.6566 74.712 16.0726 74.92 16.3126C79.448 14.0086 79.944 10.5366 79.944 7.06461V1.59261H78.744ZM80.52 9.43261L79.416 9.70461C80.248 12.8726 81.848 15.1766 84.456 16.3286C84.632 15.9926 85.016 15.5286 85.288 15.2886C82.808 14.3446 81.24 12.2166 80.52 9.43261ZM71.24 2.56861C72.264 3.04861 73.496 3.81661 74.104 4.39261L74.792 3.41661C74.184 2.85661 72.92 2.13661 71.912 1.70461L71.24 2.56861ZM70.392 6.92061C71.432 7.35261 72.696 8.07261 73.32 8.61661L74.008 7.62461C73.368 7.09661 72.072 6.40861 71.048 6.02461L70.392 6.92061ZM70.84 15.2886L71.88 16.0566C72.744 14.5526 73.752 12.5366 74.52 10.8406L73.592 10.1046C72.76 11.9286 71.64 14.0566 70.84 15.2886ZM91.086 3.24061V4.31261H101.166V3.24061H91.086ZM93.118 9.64061V10.6806H99.214V9.64061H93.118ZM93.054 12.2166V13.2566H99.23V12.2166H93.054ZM95.486 1.57661V3.75261H96.718V1.57661H95.486ZM98.622 8.71261V16.2806H99.806V8.71261H98.622ZM98.302 3.81661C97.07 6.15261 94.03 7.35261 90.606 7.91261C90.814 8.16861 91.102 8.68061 91.214 8.95261C94.75 8.20061 97.95 6.84061 99.438 4.13661L98.302 3.81661ZM87.39 2.56861C88.414 3.04861 89.646 3.81661 90.254 4.39261L90.942 3.41661C90.334 2.85661 89.07 2.13661 88.062 1.70461L87.39 2.56861ZM86.542 6.92061C87.582 7.35261 88.846 8.07261 89.47 8.61661L90.158 7.62461C89.518 7.09661 88.222 6.40861 87.198 6.02461L86.542 6.92061ZM87.022 15.2886L88.062 16.0566C88.942 14.5686 89.998 12.5366 90.782 10.8406L89.87 10.1046C89.006 11.9286 87.838 14.0566 87.022 15.2886ZM92.462 8.69661V10.7766C92.462 12.2646 92.222 14.3286 90.366 15.7686C90.654 15.9286 91.102 16.2326 91.326 16.4406C93.326 14.8406 93.614 12.5206 93.614 10.7926V8.69661H92.462ZM93.614 3.76861L92.638 4.18461C94.59 7.00061 97.31 8.05661 100.798 8.80861C100.926 8.44061 101.198 8.00861 101.47 7.73661C98.062 7.11261 95.438 6.24861 93.614 3.76861ZM112.132 2.32861H110.66C110.692 2.47261 110.74 2.92061 110.772 3.35261C110.82 4.23261 110.836 7.41661 110.836 8.12061L112.052 8.74461C112.036 7.46461 112.004 4.37661 112.052 3.33661C112.052 3.14461 112.1 2.52061 112.132 2.32861ZM103.62 4.56861L103.652 5.80061C106.068 5.62461 109.492 5.51261 112.244 5.51261C114.596 5.51261 116.036 5.54461 116.932 5.59261L116.948 4.40861C116.196 4.39261 114.212 4.39261 112.26 4.39261C109.796 4.39261 105.796 4.53661 103.62 4.56861ZM112.02 9.20861L111.14 8.76061C111.396 10.4726 110.756 11.3046 109.764 11.3046C108.884 11.3046 108.132 10.7286 108.132 9.72061C108.132 8.68061 108.916 8.02461 109.764 8.02461C110.628 8.02461 111.332 8.63261 111.332 10.0726C111.332 12.7126 109.636 14.1366 106.724 14.8246L107.796 15.8646C111.508 14.7606 112.564 12.3606 112.564 10.1846C112.564 8.34461 111.62 6.96861 109.764 6.96861C108.244 6.96861 106.932 8.15261 106.932 9.73661C106.932 11.4806 108.228 12.4246 109.572 12.4246C111.028 12.4246 112.02 11.3526 112.02 9.20861ZM122.058 3.22461L122.09 4.53661C122.442 4.48861 122.794 4.47261 123.162 4.44061C123.994 4.39261 127.194 4.26461 128.042 4.21661C127.242 4.93661 125.226 6.61661 124.33 7.35261C123.418 8.13661 121.354 9.86461 120.026 10.9526L120.954 11.8806C122.97 9.81661 124.41 8.69661 127.066 8.69661C129.162 8.69661 130.666 9.86461 130.666 11.4486C130.666 13.4486 128.954 14.5686 126.234 14.5686C124.97 14.5686 124.09 14.1046 124.09 13.3206C124.09 12.7606 124.65 12.3126 125.386 12.3126C126.666 12.3126 127.45 13.2886 127.546 14.6486L128.698 14.4566C128.586 12.8406 127.514 11.3366 125.386 11.3366C123.914 11.3366 122.922 12.3286 122.922 13.4166C122.922 14.7606 124.25 15.7046 126.426 15.7046C129.818 15.7046 131.946 14.0246 131.946 11.4486C131.946 9.28861 130.042 7.70461 127.386 7.70461C126.666 7.70461 125.898 7.78461 125.162 8.02461C126.41 7.00061 128.586 5.12861 129.37 4.52061C129.674 4.28061 129.994 4.07261 130.282 3.88061L129.546 2.93661C129.37 3.00061 129.146 3.03261 128.666 3.08061C127.818 3.16061 124.026 3.27261 123.178 3.27261C122.858 3.27261 122.41 3.25661 122.058 3.22461Z" fill="white"/>
</g>
</svg>
