<svg width="236" height="38" viewBox="0 0 236 38" fill="none" xmlns="http://www.w3.org/2000/svg">
<g id="ja_donate_with_Dark">
<g id="GPay Logo (Dark)">
<g id="GPay">
<g id="Pay">
<path id="Fill 1" fill-rule="evenodd" clip-rule="evenodd" d="M38.5289 9.34665V17.5128H43.5649C44.7645 17.5128 45.7565 17.1096 46.5413 16.3032C47.3467 15.4988 47.7503 14.5394 47.7503 13.4288C47.7503 12.3406 47.3467 11.3924 46.5413 10.586C45.7565 9.75916 44.7645 9.34479 43.5649 9.34479H38.5289V9.34665ZM38.5289 20.3872V29.8599H35.5205V6.47218H43.4993C45.5269 6.47218 47.2478 7.14787 48.6659 8.49738C50.1049 9.84688 50.8241 11.4913 50.8241 13.4288C50.8241 15.411 50.1047 17.0667 48.6659 18.3938C47.2701 19.7227 45.5473 20.3854 43.4993 20.3854H38.5289V20.3872Z" fill="white"/>
<path id="Fill 3" fill-rule="evenodd" clip-rule="evenodd" d="M53.8642 24.9602C53.8642 25.7442 54.1968 26.3975 54.8622 26.9201C55.5272 27.4427 56.3064 27.704 57.1998 27.704C58.4646 27.704 59.5913 27.2354 60.5835 26.3004C61.5759 25.3634 62.0709 24.264 62.0709 23.0022C61.1329 22.2612 59.8249 21.8916 58.1469 21.8916C56.9251 21.8916 55.9067 22.1866 55.0901 22.7745C54.2734 23.3623 53.8642 24.0886 53.8642 24.9602ZM57.7564 13.3317C59.98 13.3317 61.7346 13.9253 63.0222 15.1124C64.3078 16.2995 64.9504 17.9271 64.9504 19.9952V29.8599H62.073V27.6387H61.942C60.6994 29.4677 59.042 30.3825 56.9718 30.3825C55.206 30.3825 53.7279 29.8599 52.5412 28.8146C51.353 27.7694 50.7588 26.4628 50.7588 24.8949C50.7588 23.2393 51.3846 21.9232 52.6384 20.9434C53.8922 19.9635 55.5648 19.4726 57.6576 19.4726C59.4437 19.4726 60.9162 19.7993 62.0709 20.4525V19.7657C62.0709 18.7204 61.6561 17.8338 60.8285 17.104C59.9987 16.3742 59.0308 16.0102 57.919 16.0102C56.2391 16.0102 54.9108 16.7176 53.9298 18.1343L51.2799 16.4675C52.7412 14.377 54.8994 13.3317 57.7564 13.3317Z" fill="white"/>
<path id="Fill 5" fill-rule="evenodd" clip-rule="evenodd" d="M81.4629 13.8543L71.4233 36.9154H68.3175L72.0455 28.8464L65.4399 13.8543H68.7099L73.4841 25.3522H73.5495L78.1929 13.8543H81.4629Z" fill="white"/>
</g>
<g id="G">
<path id="Fill 8" fill-rule="evenodd" clip-rule="evenodd" d="M26.3729 18.3452C26.3729 17.3989 26.2926 16.4861 26.1412 15.6126H13.4536V20.7885H20.7205C20.4084 22.4757 19.4648 23.9112 18.0335 24.8725V28.2341H22.3704C24.9098 25.8935 26.3729 22.4348 26.3729 18.3452Z" fill="#4285F4"/>
<path id="Fill 10" fill-rule="evenodd" clip-rule="evenodd" d="M13.4536 31.4782C17.0843 31.4782 20.1412 30.2873 22.3704 28.2341L18.0335 24.8725C16.8264 25.6844 15.2717 26.1585 13.4536 26.1585C9.94445 26.1585 6.96594 23.7955 5.90086 20.6112H1.43311V24.0736C3.64736 28.4637 8.19733 31.4782 13.4536 31.4782Z" fill="#34A853"/>
<path id="Fill 12" fill-rule="evenodd" clip-rule="evenodd" d="M5.90095 20.6111C5.62814 19.7992 5.47865 18.9331 5.47865 18.0391C5.47865 17.145 5.62814 16.2789 5.90095 15.467V12.0045H1.43319C0.517594 13.8188 0 15.8683 0 18.0391C0 20.2098 0.517594 22.2595 1.43319 24.0736L5.90095 20.6111Z" fill="#FABB05"/>
<path id="Fill 14" fill-rule="evenodd" clip-rule="evenodd" d="M13.4536 9.91964C15.4362 9.91964 17.2132 10.6009 18.6146 11.9355V11.9374L22.4545 8.10163C20.1226 5.93272 17.0824 4.60001 13.4536 4.60001C8.19733 4.60001 3.64736 7.61447 1.43311 12.0046L5.90086 15.467C6.96594 12.2827 9.94445 9.91964 13.4536 9.91964Z" fill="#E94235"/>
</g>
</g>
</g>
<path id="Text" d="M95.212 11.576L95.464 14.012C98.488 13.368 105.628 12.696 108.624 12.36C106.048 13.9 103.388 17.456 103.388 21.824C103.388 28.068 109.296 30.84 114.476 31.036L115.288 28.712C110.724 28.544 105.628 26.808 105.628 21.348C105.628 18.016 108.064 13.76 112.04 12.472C113.468 12.052 115.932 12.024 117.528 12.024V9.784C115.652 9.868 113.02 10.036 109.968 10.288C104.816 10.708 99.524 11.24 97.704 11.436C97.172 11.492 96.276 11.548 95.212 11.576ZM113.496 15.468L112.068 16.084C112.908 17.232 113.72 18.688 114.364 20.032L115.792 19.36C115.204 18.128 114.14 16.392 113.496 15.468ZM116.548 14.292L115.176 14.936C116.044 16.112 116.856 17.484 117.528 18.856L118.984 18.156C118.34 16.924 117.22 15.216 116.548 14.292ZM125.388 10.624H145.156V13.732H147.144V8.804H136.28V6.564H134.236V8.804H123.456V13.732H125.388V10.624ZM135.636 24.764V27.62H128.58V24.764H135.636ZM137.568 29.244V23.14H126.62V30.644H128.58V29.244H137.568ZM147.62 19.528H143.448L144.288 18.352C142.188 17.232 138.38 15.86 135.216 15.048C135.3 14.88 135.384 14.712 135.468 14.544H144.148V12.864H136C136.14 12.276 136.224 11.66 136.308 10.988H134.376C134.292 11.688 134.18 12.304 134.04 12.864H126.452V14.544H133.312C132.164 16.364 129.924 17.372 125.332 17.988C125.668 18.352 126.144 19.08 126.284 19.528C130.372 18.912 132.808 17.96 134.264 16.392C137.148 17.176 140.508 18.436 142.608 19.528H123.008V21.404H141.516V29.748C141.516 30.14 141.432 30.224 140.984 30.28C140.508 30.28 138.968 30.28 137.288 30.224C137.512 30.784 137.82 31.568 137.932 32.1C140.088 32.1 141.544 32.128 142.44 31.82C143.336 31.512 143.588 30.952 143.588 29.804V21.404H147.62V19.528ZM157.888 6.76C156.292 11.1 153.632 15.356 150.776 18.072C151.168 18.548 151.812 19.64 152.064 20.116C153.016 19.136 153.996 17.988 154.892 16.728V32.072H156.964V13.508C158.112 11.576 159.092 9.504 159.932 7.404L157.888 6.76ZM176.228 12.78H172.672V6.9H170.572V12.78H159.288V14.852H170.572V29.3C170.572 29.944 170.32 30.112 169.704 30.168C169.032 30.196 166.736 30.196 164.384 30.112C164.692 30.672 165.084 31.624 165.196 32.156C168.22 32.184 170.096 32.156 171.188 31.82C172.224 31.512 172.672 30.868 172.672 29.3V14.852H176.228V12.78ZM167.044 24.568C166.148 22.86 164.3 19.948 162.844 17.792L161.052 18.632C162.48 20.872 164.272 23.868 165.112 25.604L167.044 24.568ZM195.456 7.824H192.908C192.936 8.048 193.048 8.86 193.076 9.588C193.104 9.98 193.132 10.652 193.132 11.436C188.96 11.492 183.696 11.66 180.588 11.716L180.644 13.872C184.144 13.62 188.904 13.424 193.16 13.396C193.188 14.376 193.188 15.384 193.188 16.224C192.628 16.028 192.012 15.916 191.312 15.916C188.652 15.916 186.384 18.016 186.384 20.788C186.384 23.84 188.624 25.464 190.976 25.464C191.928 25.464 192.74 25.212 193.412 24.708C192.292 27.256 189.716 28.824 185.992 29.664L187.868 31.512C194.392 29.552 196.24 25.352 196.24 21.572C196.24 20.172 195.932 18.94 195.344 17.988C195.316 16.7 195.288 14.964 195.288 13.368C195.428 13.368 195.54 13.368 195.68 13.368C199.768 13.368 202.316 13.424 203.884 13.508L203.912 11.436C202.568 11.436 199.124 11.408 195.708 11.408C195.568 11.408 195.428 11.408 195.288 11.408C195.288 10.652 195.316 10.008 195.316 9.588C195.344 9.224 195.4 8.132 195.456 7.824ZM188.484 20.76C188.484 18.94 189.856 17.792 191.312 17.792C192.404 17.792 193.356 18.324 193.804 19.556C194.056 22.216 192.992 23.532 191.34 23.532C189.772 23.532 188.484 22.496 188.484 20.76ZM216.448 27.06C216.448 26.08 217.428 25.268 218.688 25.268C220.816 25.268 222.216 26.864 222.44 29.076C221.74 29.188 220.984 29.244 220.172 29.244C217.988 29.244 216.448 28.404 216.448 27.06ZM212.864 9.364L212.948 11.688C213.536 11.604 214.18 11.548 214.796 11.52C216.28 11.436 221.88 11.184 223.364 11.128C221.936 12.388 218.436 15.328 216.868 16.616C215.244 17.988 211.66 20.984 209.336 22.888L210.932 24.54C214.488 20.928 216.98 18.94 221.656 18.94C225.296 18.94 227.928 21.012 227.928 23.756C227.928 26.052 226.668 27.676 224.428 28.544C224.092 25.884 222.216 23.588 218.716 23.588C216.112 23.588 214.404 25.296 214.404 27.228C214.404 29.552 216.728 31.204 220.536 31.204C226.472 31.204 230.168 28.292 230.168 23.784C230.168 20.004 226.836 17.204 222.188 17.204C220.928 17.204 219.584 17.344 218.296 17.792C220.48 15.972 224.288 12.724 225.688 11.66C226.192 11.24 226.752 10.876 227.256 10.512L225.968 8.888C225.688 8.972 225.296 9.056 224.456 9.112C222.972 9.252 216.308 9.476 214.852 9.476C214.292 9.476 213.508 9.448 212.864 9.364Z" fill="white"/>
</g>
</svg>
