<svg width="119" height="21" viewBox="0 0 119 21" fill="none" xmlns="http://www.w3.org/2000/svg">
<g id="ja_pay_with_Pay_NBG">
<g id="GPay (Dark)">
<g id="GPay">
<g id="Pay">
<path id="Fill 1" fill-rule="evenodd" clip-rule="evenodd" d="M22.3563 3.42339V8.16175H25.2784C25.9745 8.16175 26.5501 7.92781 27.0055 7.45993C27.4728 6.99313 27.707 6.43644 27.707 5.79203C27.707 5.16061 27.4728 4.61041 27.0055 4.14254C26.5501 3.66274 25.9745 3.4223 25.2784 3.4223H22.3563V3.42339ZM22.3563 9.82966V15.3262H20.6107V1.75549H25.2404C26.4169 1.75549 27.4154 2.14756 28.2383 2.93061C29.0732 3.71365 29.4906 4.66782 29.4906 5.79203C29.4906 6.94224 29.0731 7.90291 28.2383 8.67296C27.4283 9.44409 26.4287 9.82858 25.2404 9.82858H22.3563V9.82966Z" fill="white"/>
<path id="Fill 3" fill-rule="evenodd" clip-rule="evenodd" d="M31.2546 12.4831C31.2546 12.9379 31.4476 13.317 31.8337 13.6203C32.2195 13.9235 32.6717 14.0752 33.19 14.0752C33.9239 14.0752 34.5777 13.8032 35.1535 13.2607C35.7293 12.717 36.0165 12.0791 36.0165 11.3469C35.4722 10.917 34.7133 10.7025 33.7396 10.7025C33.0306 10.7025 32.4397 10.8736 31.9659 11.2148C31.492 11.5559 31.2546 11.9773 31.2546 12.4831M33.513 5.73566C34.8033 5.73566 35.8214 6.08007 36.5685 6.76889C37.3145 7.45771 37.6873 8.40213 37.6873 9.60216V15.3261H36.0177V14.0373H35.9417C35.2207 15.0985 34.259 15.6294 33.0578 15.6294C32.0332 15.6294 31.1755 15.3261 30.4869 14.7196C29.7975 14.1131 29.4527 13.3549 29.4527 12.4452C29.4527 11.4845 29.8158 10.7208 30.5433 10.1523C31.2708 9.58375 32.2413 9.2989 33.4557 9.2989C34.4921 9.2989 35.3465 9.48844 36.0165 9.86751V9.46894C36.0165 8.86243 35.7758 8.34798 35.2956 7.92451C34.8141 7.50103 34.2525 7.28984 33.6074 7.28984C32.6326 7.28984 31.8618 7.70032 31.2926 8.52235L29.7551 7.55519C30.6029 6.34217 31.8552 5.73566 33.513 5.73566" fill="white"/>
<path id="Fill 5" fill-rule="evenodd" clip-rule="evenodd" d="M47.2687 6.03894L41.4432 19.4201H39.6411L41.8043 14.738L37.9714 6.03894H39.8688L42.639 12.7106H42.677L45.3713 6.03894H47.2687Z" fill="white"/>
</g>
<g id="G">
<path id="Fill 8" fill-rule="evenodd" clip-rule="evenodd" d="M15.3029 8.64473C15.3029 8.09563 15.2562 7.56601 15.1684 7.05914H7.80648V10.0625H12.0231C11.842 11.0414 11.2945 11.8744 10.4639 12.4322V14.3828H12.9804C14.4539 13.0246 15.3029 11.0177 15.3029 8.64473" fill="#4285F4"/>
<path id="Fill 10" fill-rule="evenodd" clip-rule="evenodd" d="M7.80646 16.2651C9.91313 16.2651 11.6869 15.5741 12.9804 14.3828L10.4639 12.4322C9.7635 12.9033 8.86142 13.1784 7.80646 13.1784C5.77028 13.1784 4.04201 11.8073 3.424 9.95959H0.831596V11.9687C2.11641 14.516 4.75652 16.2651 7.80646 16.2651" fill="#34A853"/>
<path id="Fill 12" fill-rule="evenodd" clip-rule="evenodd" d="M3.42401 9.9596C3.26571 9.48847 3.17897 8.98593 3.17897 8.46715C3.17897 7.94837 3.26571 7.44583 3.42401 6.9747V4.96564H0.831606C0.300332 6.01837 0 7.20756 0 8.46715C0 9.72674 0.300332 10.916 0.831606 11.9687L3.42401 9.9596Z" fill="#FABB05"/>
<path id="Fill 14" fill-rule="evenodd" clip-rule="evenodd" d="M7.80646 3.75583C8.95683 3.75583 9.98794 4.15115 10.8011 4.92553V4.92661L13.0292 2.70094C11.6761 1.44243 9.91204 0.669128 7.80646 0.669128C4.75652 0.669128 2.11641 2.41826 0.831596 4.9656L3.424 6.97467C4.04201 5.12698 5.77028 3.75583 7.80646 3.75583" fill="#E94235"/>
</g>
</g>
</g>
<path id="Right Text" d="M54.898 4.47261L55.042 5.88061C56.77 5.51261 60.85 5.11261 62.562 4.93661C61.106 5.80061 59.586 7.84861 59.586 10.3286C59.586 13.9126 62.946 15.4806 65.906 15.5926L66.37 14.2806C63.778 14.1846 60.85 13.1766 60.85 10.0566C60.85 8.16861 62.242 5.72061 64.53 4.98461C65.346 4.76061 66.738 4.72861 67.666 4.74461L67.65 3.46461C66.578 3.49661 65.09 3.59261 63.33 3.73661C60.386 3.99261 57.362 4.28061 56.338 4.39261C56.018 4.42461 55.506 4.45661 54.898 4.47261ZM65.346 6.69661L64.546 7.04861C65.026 7.72061 65.474 8.53661 65.842 9.30461L66.674 8.93661C66.322 8.21661 65.714 7.22461 65.346 6.69661ZM67.09 6.02461L66.306 6.39261C66.802 7.06461 67.282 7.86461 67.666 8.63261L68.482 8.23261C68.114 7.52861 67.49 6.55261 67.09 6.02461ZM74.44 8.79261L73.336 9.19261C75.336 13.2086 79.064 15.5126 84.408 16.3286C84.584 15.9926 84.904 15.4646 85.176 15.1926C79.928 14.4886 76.184 12.3446 74.44 8.79261ZM71.752 7.67261V8.84061H82.184V7.67261H71.752ZM71.016 4.00861V5.20861H84.52V4.00861H71.016ZM77.144 1.57661V8.21661H78.376V1.57661H77.144ZM81.8 7.67261V7.91261C80.136 12.2966 75.624 14.3286 70.424 15.1446C70.648 15.4166 70.968 15.9766 71.08 16.2806C76.392 15.3206 81.144 13.0486 83.128 8.12061L82.312 7.62461L82.072 7.67261H81.8ZM95.614 2.00861C94.99 6.04061 93.71 11.5286 92.654 14.9206L93.79 15.1766C94.862 11.7686 96.158 6.40861 96.926 2.24861L95.614 2.00861ZM91.134 14.7126L91.406 15.9606C93.694 15.6726 97.054 15.2406 100.206 14.8086L100.158 13.6886C96.814 14.0886 93.278 14.5046 91.134 14.7126ZM97.294 9.41661C98.59 11.6086 99.886 14.5046 100.318 16.2806L101.47 15.8166C100.99 14.0246 99.646 11.1926 98.334 9.03261L97.294 9.41661ZM86.686 4.84061V5.97661H92.766V4.84061H86.686ZM89.246 1.56061V14.8086C89.246 15.0806 89.15 15.1446 88.91 15.1606C88.654 15.1766 87.822 15.1926 86.958 15.1606C87.118 15.4806 87.278 15.9926 87.342 16.2966C88.542 16.2966 89.31 16.2806 89.79 16.0726C90.238 15.8966 90.414 15.5606 90.414 14.8086V1.56061H89.246ZM86.462 10.0246L86.75 11.2086C88.462 10.7766 90.798 10.1526 92.99 9.57661L92.878 8.50461C90.526 9.08061 88.046 9.67261 86.462 10.0246ZM113.604 9.68861C113.604 12.5526 110.868 14.0726 106.98 14.5686L107.716 15.7846C111.86 15.1446 114.964 13.2086 114.964 9.73661C114.964 7.44861 113.284 6.18461 111.012 6.18461C109.156 6.18461 107.348 6.69661 106.228 6.95261C105.732 7.04861 105.204 7.16061 104.756 7.19261L105.156 8.66461C105.54 8.50461 106.02 8.32861 106.516 8.18461C107.444 7.91261 109.028 7.38461 110.868 7.38461C112.516 7.38461 113.604 8.32861 113.604 9.68861ZM106.884 2.47261L106.692 3.68861C108.5 4.00861 111.716 4.32861 113.492 4.45661L113.684 3.22461C112.132 3.20861 108.66 2.87261 106.884 2.47261Z" fill="white"/>
</g>
</svg>
