<svg width="208" height="38" viewBox="0 0 208 38" fill="none" xmlns="http://www.w3.org/2000/svg">
<g id="ja_pay_with_Light">
<g id="GPay Logo (Light)">
<g id="GPay">
<g id="Pay">
<path id="Fill 1" fill-rule="evenodd" clip-rule="evenodd" d="M38.5289 9.44664V17.6128H43.5649C44.7645 17.6128 45.7565 17.2096 46.5413 16.4032C47.3467 15.5988 47.7503 14.6394 47.7503 13.5288C47.7503 12.4406 47.3467 11.4924 46.5413 10.686C45.7565 9.85915 44.7645 9.44478 43.5649 9.44478H38.5289V9.44664ZM38.5289 20.4872V29.9599H35.5205V6.57217H43.4993C45.5269 6.57217 47.2478 7.24786 48.6659 8.59737C50.1049 9.94688 50.8241 11.5913 50.8241 13.5288C50.8241 15.511 50.1047 17.1667 48.6659 18.4938C47.2701 19.8227 45.5473 20.4854 43.4993 20.4854H38.5289V20.4872Z" fill="#5F6368"/>
<path id="Fill 3" fill-rule="evenodd" clip-rule="evenodd" d="M53.8642 25.0602C53.8642 25.8442 54.1968 26.4975 54.8622 27.0201C55.5272 27.5427 56.3064 27.804 57.1998 27.804C58.4646 27.804 59.5913 27.3354 60.5835 26.4004C61.5759 25.4634 62.0709 24.364 62.0709 23.1022C61.1329 22.3612 59.8249 21.9916 58.1469 21.9916C56.9251 21.9916 55.9067 22.2865 55.0901 22.8745C54.2734 23.4623 53.8642 24.1886 53.8642 25.0602ZM57.7564 13.4317C59.98 13.4317 61.7346 14.0252 63.0222 15.2124C64.3078 16.3995 64.9504 18.0271 64.9504 20.0952V29.9599H62.073V27.7387H61.942C60.6994 29.5677 59.042 30.4825 56.9718 30.4825C55.206 30.4825 53.7279 29.9599 52.5412 28.9146C51.353 27.8694 50.7588 26.5628 50.7588 24.9949C50.7588 23.3393 51.3846 22.0232 52.6384 21.0434C53.8922 20.0635 55.5648 19.5726 57.6576 19.5726C59.4437 19.5726 60.9162 19.8992 62.0709 20.5525V19.8656C62.0709 18.8204 61.6561 17.9338 60.8285 17.204C59.9987 16.4741 59.0308 16.1102 57.919 16.1102C56.2391 16.1102 54.9108 16.8176 53.9298 18.2343L51.2799 16.5675C52.7412 14.4769 54.8994 13.4317 57.7564 13.4317Z" fill="#5F6368"/>
<path id="Fill 5" fill-rule="evenodd" clip-rule="evenodd" d="M81.4629 13.9543L71.4233 37.0154H68.3175L72.0455 28.9464L65.4399 13.9543H68.7099L73.4841 25.4522H73.5495L78.1929 13.9543H81.4629Z" fill="#5F6368"/>
</g>
<g id="G">
<path id="Fill 8" fill-rule="evenodd" clip-rule="evenodd" d="M26.3729 18.4452C26.3729 17.4989 26.2926 16.5861 26.1412 15.7126H13.4536V20.8885H20.7205C20.4084 22.5757 19.4648 24.0112 18.0335 24.9725V28.3341H22.3704C24.9098 25.9935 26.3729 22.5348 26.3729 18.4452Z" fill="#4285F4"/>
<path id="Fill 10" fill-rule="evenodd" clip-rule="evenodd" d="M13.4536 31.5782C17.0843 31.5782 20.1412 30.3873 22.3704 28.3341L18.0335 24.9725C16.8264 25.7844 15.2717 26.2585 13.4536 26.2585C9.94445 26.2585 6.96594 23.8955 5.90086 20.7112H1.43311V24.1736C3.64736 28.5637 8.19733 31.5782 13.4536 31.5782Z" fill="#34A853"/>
<path id="Fill 12" fill-rule="evenodd" clip-rule="evenodd" d="M5.90095 20.7111C5.62814 19.8992 5.47865 19.0331 5.47865 18.139C5.47865 17.245 5.62814 16.3789 5.90095 15.567V12.1045H1.43319C0.517594 13.9188 0 15.9683 0 18.139C0 20.3098 0.517594 22.3595 1.43319 24.1736L5.90095 20.7111Z" fill="#FABB05"/>
<path id="Fill 14" fill-rule="evenodd" clip-rule="evenodd" d="M13.4536 10.0196C15.4362 10.0196 17.2132 10.7009 18.6146 12.0355V12.0374L22.4545 8.20162C20.1226 6.03271 17.0824 4.7 13.4536 4.7C8.19733 4.7 3.64736 7.71446 1.43311 12.1046L5.90086 15.567C6.96594 12.3827 9.94445 10.0196 13.4536 10.0196Z" fill="#E94235"/>
</g>
</g>
</g>
<path id="Text" d="M95.212 11.576L95.464 14.012C98.488 13.368 105.628 12.696 108.624 12.36C106.048 13.9 103.388 17.456 103.388 21.824C103.388 28.068 109.296 30.84 114.476 31.036L115.288 28.712C110.724 28.544 105.628 26.808 105.628 21.348C105.628 18.016 108.064 13.76 112.04 12.472C113.468 12.052 115.932 12.024 117.528 12.024V9.784C115.652 9.868 113.02 10.036 109.968 10.288C104.816 10.708 99.524 11.24 97.704 11.436C97.172 11.492 96.276 11.548 95.212 11.576ZM113.496 15.468L112.068 16.084C112.908 17.232 113.72 18.688 114.364 20.032L115.792 19.36C115.204 18.128 114.14 16.392 113.496 15.468ZM116.548 14.292L115.176 14.936C116.044 16.112 116.856 17.484 117.528 18.856L118.984 18.156C118.34 16.924 117.22 15.216 116.548 14.292ZM141.572 19.22C140.144 21.992 137.988 24.148 135.328 25.8C132.808 24.064 130.848 21.88 129.504 19.22H141.572ZM143.14 17.092L142.748 17.176H136.308V12.864H146.976V10.848H136.308V6.592H134.18V10.848H123.568V12.864H134.18V17.176H124.828V19.22H129.252L127.572 19.808C129 22.664 130.932 25.016 133.368 26.92C130.176 28.516 126.452 29.552 122.504 30.168C122.896 30.616 123.456 31.596 123.624 32.128C127.824 31.372 131.8 30.14 135.244 28.236C138.408 30.196 142.272 31.512 146.808 32.212C147.088 31.624 147.648 30.7 148.124 30.252C143.924 29.692 140.256 28.6 137.26 26.976C140.452 24.764 143 21.852 144.568 17.96L143.14 17.092ZM161.752 18.604L157.44 19.668V14.208H161.528V12.276H157.44V6.564H155.452V12.276H151V14.208H155.452V20.144C153.604 20.592 151.924 20.984 150.608 21.264L151.112 23.308C152.4 22.972 153.884 22.58 155.452 22.188V29.58C155.452 30.056 155.284 30.168 154.864 30.196C154.444 30.224 152.988 30.252 151.476 30.196C151.756 30.728 152.008 31.624 152.12 32.156C154.248 32.156 155.564 32.1 156.348 31.792C157.16 31.456 157.44 30.868 157.44 29.58V21.656C158.924 21.264 160.464 20.872 161.948 20.48L161.752 18.604ZM176.648 31.316C175.836 28.208 173.512 23.308 171.216 19.528L169.452 20.228C170.824 22.524 172.168 25.296 173.176 27.788C169.9 28.18 166.596 28.544 163.712 28.88C165.504 22.944 167.492 14.46 168.752 7.74L166.512 7.348C165.448 14.096 163.376 23.168 161.556 29.104C160.52 29.244 159.568 29.328 158.728 29.412L159.176 31.568C163.012 31.092 168.612 30.364 173.904 29.636C174.24 30.532 174.492 31.4 174.688 32.128L176.648 31.316ZM198.06 20.676C198.06 25.688 193.272 28.376 186.468 29.216L187.728 31.344C194.98 30.252 200.44 26.836 200.44 20.76C200.44 16.756 197.472 14.544 193.496 14.544C190.276 14.544 187.084 15.44 185.124 15.888C184.284 16.084 183.332 16.252 182.548 16.308L183.276 18.912C183.948 18.632 184.76 18.324 185.628 18.044C187.28 17.568 190.024 16.644 193.272 16.644C196.156 16.644 198.06 18.324 198.06 20.676ZM186.3 8.076L185.936 10.204C189.1 10.764 194.756 11.324 197.864 11.52L198.2 9.364C195.456 9.336 189.38 8.776 186.3 8.076Z" fill="#3C4043"/>
</g>
</svg>
