<svg width="236" height="38" viewBox="0 0 236 38" fill="none" xmlns="http://www.w3.org/2000/svg">
<g id="ja_subscribe_with_Light">
<g id="GPay Logo (Light)">
<g id="GPay">
<g id="Pay">
<path id="Fill 1" fill-rule="evenodd" clip-rule="evenodd" d="M38.5289 9.44664V17.6128H43.5649C44.7645 17.6128 45.7565 17.2096 46.5413 16.4032C47.3467 15.5988 47.7503 14.6394 47.7503 13.5288C47.7503 12.4406 47.3467 11.4924 46.5413 10.686C45.7565 9.85915 44.7645 9.44478 43.5649 9.44478H38.5289V9.44664ZM38.5289 20.4872V29.9599H35.5205V6.57217H43.4993C45.5269 6.57217 47.2478 7.24786 48.6659 8.59737C50.1049 9.94688 50.8241 11.5913 50.8241 13.5288C50.8241 15.511 50.1047 17.1667 48.6659 18.4938C47.2701 19.8227 45.5473 20.4854 43.4993 20.4854H38.5289V20.4872Z" fill="#5F6368"/>
<path id="Fill 3" fill-rule="evenodd" clip-rule="evenodd" d="M53.8642 25.0602C53.8642 25.8442 54.1968 26.4975 54.8622 27.0201C55.5272 27.5427 56.3064 27.804 57.1998 27.804C58.4646 27.804 59.5913 27.3354 60.5835 26.4004C61.5759 25.4634 62.0709 24.364 62.0709 23.1022C61.1329 22.3612 59.8249 21.9916 58.1469 21.9916C56.9251 21.9916 55.9067 22.2865 55.0901 22.8745C54.2734 23.4623 53.8642 24.1886 53.8642 25.0602ZM57.7564 13.4317C59.98 13.4317 61.7346 14.0252 63.0222 15.2124C64.3078 16.3995 64.9504 18.0271 64.9504 20.0952V29.9599H62.073V27.7387H61.942C60.6994 29.5677 59.042 30.4825 56.9718 30.4825C55.206 30.4825 53.7279 29.9599 52.5412 28.9146C51.353 27.8694 50.7588 26.5628 50.7588 24.9949C50.7588 23.3393 51.3846 22.0232 52.6384 21.0434C53.8922 20.0635 55.5648 19.5726 57.6576 19.5726C59.4437 19.5726 60.9162 19.8992 62.0709 20.5525V19.8656C62.0709 18.8204 61.6561 17.9338 60.8285 17.204C59.9987 16.4741 59.0308 16.1102 57.919 16.1102C56.2391 16.1102 54.9108 16.8176 53.9298 18.2343L51.2799 16.5675C52.7412 14.4769 54.8994 13.4317 57.7564 13.4317Z" fill="#5F6368"/>
<path id="Fill 5" fill-rule="evenodd" clip-rule="evenodd" d="M81.4629 13.9543L71.4233 37.0154H68.3175L72.0455 28.9464L65.4399 13.9543H68.7099L73.4841 25.4522H73.5495L78.1929 13.9543H81.4629Z" fill="#5F6368"/>
</g>
<g id="G">
<path id="Fill 8" fill-rule="evenodd" clip-rule="evenodd" d="M26.3729 18.4452C26.3729 17.4989 26.2926 16.5861 26.1412 15.7126H13.4536V20.8885H20.7205C20.4084 22.5757 19.4648 24.0112 18.0335 24.9725V28.3341H22.3704C24.9098 25.9935 26.3729 22.5348 26.3729 18.4452Z" fill="#4285F4"/>
<path id="Fill 10" fill-rule="evenodd" clip-rule="evenodd" d="M13.4536 31.5782C17.0843 31.5782 20.1412 30.3873 22.3704 28.3341L18.0335 24.9725C16.8264 25.7844 15.2717 26.2585 13.4536 26.2585C9.94445 26.2585 6.96594 23.8955 5.90086 20.7112H1.43311V24.1736C3.64736 28.5637 8.19733 31.5782 13.4536 31.5782Z" fill="#34A853"/>
<path id="Fill 12" fill-rule="evenodd" clip-rule="evenodd" d="M5.90095 20.7111C5.62814 19.8992 5.47865 19.0331 5.47865 18.139C5.47865 17.245 5.62814 16.3789 5.90095 15.567V12.1045H1.43319C0.517594 13.9188 0 15.9683 0 18.139C0 20.3098 0.517594 22.3595 1.43319 24.1736L5.90095 20.7111Z" fill="#FABB05"/>
<path id="Fill 14" fill-rule="evenodd" clip-rule="evenodd" d="M13.4536 10.0196C15.4362 10.0196 17.2132 10.7009 18.6146 12.0355V12.0374L22.4545 8.20162C20.1226 6.03271 17.0824 4.7 13.4536 4.7C8.19733 4.7 3.64736 7.71446 1.43311 12.1046L5.90086 15.567C6.96594 12.3827 9.94445 10.0196 13.4536 10.0196Z" fill="#E94235"/>
</g>
</g>
</g>
<path id="Text" d="M95.212 11.576L95.464 14.012C98.488 13.368 105.628 12.696 108.624 12.36C106.048 13.9 103.388 17.456 103.388 21.824C103.388 28.068 109.296 30.84 114.476 31.036L115.288 28.712C110.724 28.544 105.628 26.808 105.628 21.348C105.628 18.016 108.064 13.76 112.04 12.472C113.468 12.052 115.932 12.024 117.528 12.024V9.784C115.652 9.868 113.02 10.036 109.968 10.288C104.816 10.708 99.524 11.24 97.704 11.436C97.172 11.492 96.276 11.548 95.212 11.576ZM113.496 15.468L112.068 16.084C112.908 17.232 113.72 18.688 114.364 20.032L115.792 19.36C115.204 18.128 114.14 16.392 113.496 15.468ZM116.548 14.292L115.176 14.936C116.044 16.112 116.856 17.484 117.528 18.856L118.984 18.156C118.34 16.924 117.22 15.216 116.548 14.292ZM129.7 12.92H125.528V9.364H129.7V12.92ZM129.7 18.128H125.528V14.544H129.7V18.128ZM129.7 23.42H125.528V19.78H129.7V23.42ZM131.576 7.628H123.708V25.128H131.576V7.628ZM125.08 25.716C124.548 27.732 123.568 29.72 122.28 31.036C122.728 31.316 123.512 31.848 123.848 32.156C125.108 30.672 126.312 28.432 126.956 26.136L125.08 25.716ZM128.58 26.388C129.448 27.732 130.428 29.608 130.82 30.784L132.472 30C132.024 28.824 131.072 27.032 130.148 25.688L128.58 26.388ZM140.928 25.94V23.84H144.512V25.94H140.928ZM135.664 23.84H139.08V25.94H135.664V23.84ZM139.08 20.396V22.384H135.664V20.396H139.08ZM144.512 20.396V22.384H140.928V20.396H144.512ZM137.96 13.788H142.104V15.636H137.96V13.788ZM137.96 10.568H142.104V12.248H137.96V10.568ZM148.096 25.94H146.416V18.828H140.928V17.204H147.984V15.636H143.98V13.788H146.948V12.248H143.98V10.568H147.396V9H143.98V6.592H142.104V9H137.96V6.592H136.112V9H132.724V10.568H136.112V12.248H133.452V13.788H136.112V15.636H132.08V17.204H139.08V18.828H133.788V25.94H131.968V27.536H133.788V32.156H135.664V27.536H144.512V29.972C144.512 30.336 144.372 30.42 144.036 30.448C143.644 30.448 142.3 30.448 140.844 30.42C141.096 30.896 141.348 31.624 141.432 32.1C143.448 32.1 144.708 32.1 145.492 31.82C146.192 31.512 146.416 30.98 146.416 29.972V27.536H148.096V25.94ZM167.24 13.452H161.808V15.216H175.108V13.452H169.312V10.848H175.92V9.084H169.312V6.564H167.24V9.084H160.912V10.848H167.24V13.452ZM162.676 18.94H174.1V22.16H176.032V17.232H160.8V22.16H162.676V18.94ZM159.372 7.544H152.12V9.224H159.372V7.544ZM160.212 11.212H150.776V12.92H160.212V11.212ZM157.72 24.148V28.824H153.688V24.148H157.72ZM159.484 22.44H151.924V31.82H153.688V30.504H159.484V22.44ZM151.952 20.368H159.484V18.688H151.952V20.368ZM151.952 16.644H159.484V14.992H151.952V16.644ZM164.916 20.788C164.692 26.024 164.048 28.936 159.568 30.532C159.988 30.924 160.548 31.708 160.772 32.156C165.7 30.224 166.624 26.724 166.876 20.788H164.916ZM172.308 29.944C171.72 29.944 171.636 29.86 171.636 29.16V20.788H169.704V29.16C169.704 31.204 170.152 31.82 172.056 31.82H174.38C176.032 31.82 176.536 30.84 176.676 27.088C176.172 26.92 175.332 26.612 174.968 26.276C174.884 29.496 174.772 29.944 174.156 29.944H172.308ZM195.456 7.824H192.908C192.936 8.048 193.048 8.86 193.076 9.588C193.104 9.98 193.132 10.652 193.132 11.436C188.96 11.492 183.696 11.66 180.588 11.716L180.644 13.872C184.144 13.62 188.904 13.424 193.16 13.396C193.188 14.376 193.188 15.384 193.188 16.224C192.628 16.028 192.012 15.916 191.312 15.916C188.652 15.916 186.384 18.016 186.384 20.788C186.384 23.84 188.624 25.464 190.976 25.464C191.928 25.464 192.74 25.212 193.412 24.708C192.292 27.256 189.716 28.824 185.992 29.664L187.868 31.512C194.392 29.552 196.24 25.352 196.24 21.572C196.24 20.172 195.932 18.94 195.344 17.988C195.316 16.7 195.288 14.964 195.288 13.368C195.428 13.368 195.54 13.368 195.68 13.368C199.768 13.368 202.316 13.424 203.884 13.508L203.912 11.436C202.568 11.436 199.124 11.408 195.708 11.408C195.568 11.408 195.428 11.408 195.288 11.408C195.288 10.652 195.316 10.008 195.316 9.588C195.344 9.224 195.4 8.132 195.456 7.824ZM188.484 20.76C188.484 18.94 189.856 17.792 191.312 17.792C192.404 17.792 193.356 18.324 193.804 19.556C194.056 22.216 192.992 23.532 191.34 23.532C189.772 23.532 188.484 22.496 188.484 20.76ZM216.448 27.06C216.448 26.08 217.428 25.268 218.688 25.268C220.816 25.268 222.216 26.864 222.44 29.076C221.74 29.188 220.984 29.244 220.172 29.244C217.988 29.244 216.448 28.404 216.448 27.06ZM212.864 9.364L212.948 11.688C213.536 11.604 214.18 11.548 214.796 11.52C216.28 11.436 221.88 11.184 223.364 11.128C221.936 12.388 218.436 15.328 216.868 16.616C215.244 17.988 211.66 20.984 209.336 22.888L210.932 24.54C214.488 20.928 216.98 18.94 221.656 18.94C225.296 18.94 227.928 21.012 227.928 23.756C227.928 26.052 226.668 27.676 224.428 28.544C224.092 25.884 222.216 23.588 218.716 23.588C216.112 23.588 214.404 25.296 214.404 27.228C214.404 29.552 216.728 31.204 220.536 31.204C226.472 31.204 230.168 28.292 230.168 23.784C230.168 20.004 226.836 17.204 222.188 17.204C220.928 17.204 219.584 17.344 218.296 17.792C220.48 15.972 224.288 12.724 225.688 11.66C226.192 11.24 226.752 10.876 227.256 10.512L225.968 8.888C225.688 8.972 225.296 9.056 224.456 9.112C222.972 9.252 216.308 9.476 214.852 9.476C214.292 9.476 213.508 9.448 212.864 9.364Z" fill="#3C4043"/>
</g>
</svg>
