<svg width="167" height="21" viewBox="0 0 167 21" fill="none" xmlns="http://www.w3.org/2000/svg">
<g id="ja_subscribe_with_Pay_NBG">
<g id="GPay (Dark)">
<g id="GPay">
<g id="Pay">
<path id="Fill 1" fill-rule="evenodd" clip-rule="evenodd" d="M22.3563 3.42339V8.16175H25.2784C25.9745 8.16175 26.5501 7.92781 27.0055 7.45993C27.4728 6.99313 27.707 6.43644 27.707 5.79203C27.707 5.16061 27.4728 4.61041 27.0055 4.14254C26.5501 3.66274 25.9745 3.4223 25.2784 3.4223H22.3563V3.42339ZM22.3563 9.82966V15.3262H20.6107V1.75549H25.2404C26.4169 1.75549 27.4154 2.14756 28.2383 2.93061C29.0732 3.71365 29.4906 4.66782 29.4906 5.79203C29.4906 6.94224 29.0731 7.90291 28.2383 8.67296C27.4283 9.44409 26.4287 9.82858 25.2404 9.82858H22.3563V9.82966Z" fill="white"/>
<path id="Fill 3" fill-rule="evenodd" clip-rule="evenodd" d="M31.2546 12.4831C31.2546 12.9379 31.4476 13.317 31.8337 13.6203C32.2195 13.9235 32.6717 14.0752 33.19 14.0752C33.9239 14.0752 34.5777 13.8032 35.1535 13.2607C35.7293 12.717 36.0165 12.0791 36.0165 11.3469C35.4722 10.917 34.7133 10.7025 33.7396 10.7025C33.0306 10.7025 32.4397 10.8736 31.9659 11.2148C31.492 11.5559 31.2546 11.9773 31.2546 12.4831M33.513 5.73566C34.8033 5.73566 35.8214 6.08007 36.5685 6.76889C37.3145 7.45771 37.6873 8.40213 37.6873 9.60216V15.3261H36.0177V14.0373H35.9417C35.2207 15.0985 34.259 15.6294 33.0578 15.6294C32.0332 15.6294 31.1755 15.3261 30.4869 14.7196C29.7975 14.1131 29.4527 13.3549 29.4527 12.4452C29.4527 11.4845 29.8158 10.7208 30.5433 10.1523C31.2708 9.58375 32.2413 9.2989 33.4557 9.2989C34.4921 9.2989 35.3465 9.48844 36.0165 9.86751V9.46894C36.0165 8.86243 35.7758 8.34798 35.2956 7.92451C34.8141 7.50103 34.2525 7.28984 33.6074 7.28984C32.6326 7.28984 31.8618 7.70032 31.2926 8.52235L29.7551 7.55519C30.6029 6.34217 31.8552 5.73566 33.513 5.73566" fill="white"/>
<path id="Fill 5" fill-rule="evenodd" clip-rule="evenodd" d="M47.2687 6.03894L41.4432 19.4201H39.6411L41.8043 14.738L37.9714 6.03894H39.8688L42.639 12.7106H42.677L45.3713 6.03894H47.2687Z" fill="white"/>
</g>
<g id="G">
<path id="Fill 8" fill-rule="evenodd" clip-rule="evenodd" d="M15.3029 8.64473C15.3029 8.09563 15.2562 7.56601 15.1684 7.05914H7.80648V10.0625H12.0231C11.842 11.0414 11.2945 11.8744 10.4639 12.4322V14.3828H12.9804C14.4539 13.0246 15.3029 11.0177 15.3029 8.64473" fill="#4285F4"/>
<path id="Fill 10" fill-rule="evenodd" clip-rule="evenodd" d="M7.80646 16.2651C9.91313 16.2651 11.6869 15.5741 12.9804 14.3828L10.4639 12.4322C9.7635 12.9033 8.86142 13.1784 7.80646 13.1784C5.77028 13.1784 4.04201 11.8073 3.424 9.95959H0.831596V11.9687C2.11641 14.516 4.75652 16.2651 7.80646 16.2651" fill="#34A853"/>
<path id="Fill 12" fill-rule="evenodd" clip-rule="evenodd" d="M3.42401 9.9596C3.26571 9.48847 3.17897 8.98593 3.17897 8.46715C3.17897 7.94837 3.26571 7.44583 3.42401 6.9747V4.96564H0.831606C0.300332 6.01837 0 7.20756 0 8.46715C0 9.72674 0.300332 10.916 0.831606 11.9687L3.42401 9.9596Z" fill="#FABB05"/>
<path id="Fill 14" fill-rule="evenodd" clip-rule="evenodd" d="M7.80646 3.75583C8.95683 3.75583 9.98794 4.15115 10.8011 4.92553V4.92661L13.0292 2.70094C11.6761 1.44243 9.91204 0.669128 7.80646 0.669128C4.75652 0.669128 2.11641 2.41826 0.831596 4.9656L3.424 6.97467C4.04201 5.12698 5.77028 3.75583 7.80646 3.75583" fill="#E94235"/>
</g>
</g>
</g>
<path id="Right Text" d="M54.898 4.47261L55.042 5.88061C56.77 5.51261 60.85 5.11261 62.562 4.93661C61.106 5.80061 59.586 7.84861 59.586 10.3286C59.586 13.9126 62.946 15.4806 65.906 15.5926L66.37 14.2806C63.778 14.1846 60.85 13.1766 60.85 10.0566C60.85 8.16861 62.242 5.72061 64.53 4.98461C65.346 4.76061 66.738 4.72861 67.666 4.74461L67.65 3.46461C66.578 3.49661 65.09 3.59261 63.33 3.73661C60.386 3.99261 57.362 4.28061 56.338 4.39261C56.018 4.42461 55.506 4.45661 54.898 4.47261ZM65.346 6.69661L64.546 7.04861C65.026 7.72061 65.474 8.53661 65.842 9.30461L66.674 8.93661C66.322 8.21661 65.714 7.22461 65.346 6.69661ZM67.09 6.02461L66.306 6.39261C66.802 7.06461 67.282 7.86461 67.666 8.63261L68.482 8.23261C68.114 7.52861 67.49 6.55261 67.09 6.02461ZM73.176 6.45661V7.60861H82.504V6.45661H73.176ZM77.784 10.2806V11.4166H83.176V10.2806H77.784ZM77.144 7.04861V14.9846L78.392 15.1446V7.04861H77.144ZM73.352 8.98461C73 11.8806 72.136 14.1686 70.344 15.5606C70.632 15.7366 71.144 16.1526 71.336 16.3606C73.144 14.7926 74.152 12.3446 74.6 9.11261L73.352 8.98461ZM74.104 11.0486L73.128 11.4166C74.504 15.3206 77.112 16.0726 80.92 16.0726H84.68C84.728 15.7206 84.936 15.1446 85.128 14.8566C84.344 14.8726 81.576 14.8726 80.984 14.8726C77.736 14.8726 75.24 14.3126 74.104 11.0486ZM77.128 1.57661V4.16861H78.392V1.57661H77.128ZM71.112 3.40061V6.88861H72.296V4.55261H83.256V6.88861H84.488V3.40061H71.112ZM95.71 2.36061V3.46461H100.158V2.36061H95.71ZM95.71 6.04061V7.11261H100.158V6.04061H95.71ZM95.694 9.76861V10.8566H100.19V9.76861H95.694ZM99.614 2.36061V14.7446C99.614 14.9846 99.534 15.0646 99.294 15.0646C99.054 15.0806 98.254 15.0806 97.406 15.0646C97.566 15.3686 97.742 15.8966 97.774 16.2326C98.958 16.2326 99.71 16.2006 100.158 16.0086C100.622 15.8166 100.782 15.4486 100.782 14.7606V2.36061H99.614ZM95.214 2.36061V8.16861C95.214 10.4886 95.102 13.5286 93.758 15.6726C94.03 15.7846 94.51 16.1366 94.718 16.3606C96.158 14.0886 96.35 10.6326 96.35 8.16861V2.36061H95.214ZM86.766 3.70461V4.76061H94.43V3.70461H86.766ZM88.654 6.18461V7.16061H92.702V6.18461H88.654ZM88.654 8.72861V9.68861H92.718V8.72861H88.654ZM86.558 11.3046V12.3766H94.43V11.3046H86.558ZM88.126 1.75261V11.7366H89.23V1.75261H88.126ZM92.142 1.75261V11.7366H93.246V1.75261H92.142ZM88.782 12.7286C88.302 13.8006 87.47 14.8726 86.574 15.5926C86.862 15.7526 87.326 16.1046 87.55 16.2966C88.414 15.4966 89.342 14.2646 89.934 13.0486L88.782 12.7286ZM91.086 13.2246C91.71 13.9766 92.43 15.0326 92.734 15.6726L93.71 15.0966C93.39 14.4406 92.638 13.4486 92.014 12.7286L91.086 13.2246ZM108.612 2.95261V3.86461H117.06V2.95261H108.612ZM108.244 6.77661V7.68861H117.396V6.77661H108.244ZM108.196 12.7126V13.6406H117.46V12.7126H108.196ZM109.028 4.82461V5.72061H116.788V4.82461H109.028ZM110.564 1.57661V7.14461H111.636V1.57661H110.564ZM114.02 1.57661V7.14461H115.092V1.57661H114.02ZM112.26 7.17661V13.0006H113.332V7.17661H112.26ZM115.396 8.61661V15.0326C115.396 15.2406 115.332 15.2886 115.108 15.3046C114.9 15.3206 114.116 15.3206 113.284 15.2886C113.428 15.5766 113.572 15.9926 113.62 16.2646C114.772 16.2646 115.508 16.2806 115.956 16.1046C116.372 15.9286 116.5 15.6246 116.5 15.0326V8.61661H115.396ZM109.22 8.61661V16.2966H110.308V9.52861H115.876V8.61661H109.22ZM109.78 10.6806V11.5126H115.844V10.6806H109.78ZM104.212 12.5846C103.908 13.7526 103.316 14.8886 102.596 15.6566C102.852 15.8166 103.3 16.1366 103.508 16.2966C104.244 15.4486 104.916 14.1526 105.3 12.8406L104.212 12.5846ZM106.228 12.9846C106.724 13.7686 107.268 14.8406 107.508 15.5126L108.468 15.0486C108.228 14.3926 107.652 13.3526 107.124 12.5686L106.228 12.9846ZM104.468 6.16861H106.868V8.23261H104.468V6.16861ZM104.468 9.16061H106.868V11.2566H104.468V9.16061ZM104.468 3.17661H106.868V5.22461H104.468V3.17661ZM103.412 2.16861V12.2486H107.94V2.16861H103.412ZM121.882 2.53661V3.75261H126.41V2.53661H121.882ZM125.802 2.53661C125.802 5.54461 126.33 12.3606 132.73 16.2326C132.954 15.9446 133.434 15.4326 133.706 15.2246C127.386 11.4806 127.034 5.40061 127.034 2.53661H125.802ZM125.354 5.67261C124.378 10.2006 122.378 13.4326 118.826 15.2886C119.146 15.5126 119.69 16.0086 119.914 16.2646C123.45 14.1846 125.562 10.8086 126.714 5.92861L125.354 5.67261ZM144.432 2.32861H142.96C142.992 2.47261 143.04 2.92061 143.072 3.35261C143.12 4.23261 143.136 7.41661 143.136 8.12061L144.352 8.74461C144.336 7.46461 144.304 4.37661 144.352 3.33661C144.352 3.14461 144.4 2.52061 144.432 2.32861ZM135.92 4.56861L135.952 5.80061C138.368 5.62461 141.792 5.51261 144.544 5.51261C146.896 5.51261 148.336 5.54461 149.232 5.59261L149.248 4.40861C148.496 4.39261 146.512 4.39261 144.56 4.39261C142.096 4.39261 138.096 4.53661 135.92 4.56861ZM144.32 9.20861L143.44 8.76061C143.696 10.4726 143.056 11.3046 142.064 11.3046C141.184 11.3046 140.432 10.7286 140.432 9.72061C140.432 8.68061 141.216 8.02461 142.064 8.02461C142.928 8.02461 143.632 8.63261 143.632 10.0726C143.632 12.7126 141.936 14.1366 139.024 14.8246L140.096 15.8646C143.808 14.7606 144.864 12.3606 144.864 10.1846C144.864 8.34461 143.92 6.96861 142.064 6.96861C140.544 6.96861 139.232 8.15261 139.232 9.73661C139.232 11.4806 140.528 12.4246 141.872 12.4246C143.328 12.4246 144.32 11.3526 144.32 9.20861ZM154.358 3.22461L154.39 4.53661C154.742 4.48861 155.094 4.47261 155.462 4.44061C156.294 4.39261 159.494 4.26461 160.342 4.21661C159.542 4.93661 157.526 6.61661 156.63 7.35261C155.718 8.13661 153.654 9.86461 152.326 10.9526L153.254 11.8806C155.27 9.81661 156.71 8.69661 159.366 8.69661C161.462 8.69661 162.966 9.86461 162.966 11.4486C162.966 13.4486 161.254 14.5686 158.534 14.5686C157.27 14.5686 156.39 14.1046 156.39 13.3206C156.39 12.7606 156.95 12.3126 157.686 12.3126C158.966 12.3126 159.75 13.2886 159.846 14.6486L160.998 14.4566C160.886 12.8406 159.814 11.3366 157.686 11.3366C156.214 11.3366 155.222 12.3286 155.222 13.4166C155.222 14.7606 156.55 15.7046 158.726 15.7046C162.118 15.7046 164.246 14.0246 164.246 11.4486C164.246 9.28861 162.342 7.70461 159.686 7.70461C158.966 7.70461 158.198 7.78461 157.462 8.02461C158.71 7.00061 160.886 5.12861 161.67 4.52061C161.974 4.28061 162.294 4.07261 162.582 3.88061L161.846 2.93661C161.67 3.00061 161.446 3.03261 160.966 3.08061C160.118 3.16061 156.326 3.27261 155.478 3.27261C155.158 3.27261 154.71 3.25661 154.358 3.22461Z" fill="white"/>
</g>
</svg>
