<svg width="104" height="19" viewBox="0 0 104 19" fill="none" xmlns="http://www.w3.org/2000/svg">
    <path fill-rule="evenodd" clip-rule="evenodd" d="M0.147999 4.976H3.914C4.446 4.976 4.938 5.093 5.391 5.326C5.844 5.559 6.205 5.881 6.476 6.292C6.747 6.703 6.882 7.155 6.882 7.65C6.882 8.145 6.758 8.574 6.511 8.938C6.264 9.302 5.939 9.577 5.538 9.764V9.848C6.042 10.025 6.45 10.319 6.763 10.73C7.076 11.141 7.232 11.621 7.232 12.172C7.232 12.723 7.09 13.213 6.805 13.642C6.52 14.071 6.138 14.405 5.657 14.643C5.176 14.881 4.651 15 4.082 15H0.147999V4.976ZM3.844 9.176C4.292 9.176 4.654 9.036 4.929 8.756C5.204 8.476 5.342 8.154 5.342 7.79C5.342 7.426 5.209 7.106 4.943 6.831C4.677 6.556 4.329 6.418 3.9 6.418H1.716V9.176H3.844ZM4.082 13.544C4.558 13.544 4.938 13.395 5.223 13.096C5.508 12.797 5.65 12.452 5.65 12.06C5.65 11.659 5.503 11.311 5.209 11.017C4.915 10.723 4.521 10.576 4.026 10.576H1.716V13.544H4.082ZM11.442 15.224C10.574 15.224 9.914 14.965 9.461 14.447C9.008 13.929 8.782 13.208 8.782 12.284V7.86H10.322V12.074C10.322 12.653 10.46 13.087 10.735 13.376C11.01 13.665 11.372 13.81 11.82 13.81C12.184 13.81 12.506 13.714 12.786 13.523C13.066 13.332 13.281 13.077 13.43 12.76C13.579 12.443 13.654 12.102 13.654 11.738V7.86H15.194V15H13.738V14.076H13.654C13.458 14.412 13.155 14.687 12.744 14.902C12.333 15.117 11.899 15.224 11.442 15.224ZM19.32 14.608L16.352 7.86H18.074L20.09 12.718H20.146L22.106 7.86H23.8L19.39 18.024H17.766L19.32 14.608ZM27.586 7.86H29.252L30.694 12.97H30.75L32.36 7.86H33.942L35.538 12.97H35.594L37.036 7.86H38.674L36.392 15H34.768L33.13 9.876H33.088L31.464 15H29.868L27.586 7.86ZM40.7 6.824C40.411 6.824 40.166 6.724 39.965 6.523C39.764 6.322 39.664 6.077 39.664 5.788C39.664 5.499 39.764 5.254 39.965 5.053C40.166 4.852 40.411 4.752 40.7 4.752C40.989 4.752 41.234 4.852 41.435 5.053C41.636 5.254 41.736 5.499 41.736 5.788C41.736 6.077 41.636 6.322 41.435 6.523C41.234 6.724 40.989 6.824 40.7 6.824ZM39.93 7.86H41.47V15H39.93V7.86ZM46.394 15.112C46.077 15.112 45.778 15.061 45.498 14.958C45.218 14.855 44.989 14.72 44.812 14.552C44.411 14.151 44.21 13.605 44.21 12.914V9.218H42.964V7.86H44.21V5.844H45.75V7.86H47.486V9.218H45.75V12.578C45.75 12.961 45.825 13.231 45.974 13.39C46.114 13.577 46.357 13.67 46.702 13.67C46.861 13.67 47.001 13.649 47.122 13.607C47.243 13.565 47.374 13.497 47.514 13.404V14.902C47.206 15.042 46.833 15.112 46.394 15.112ZM49.176 4.976H50.716V7.706L50.646 8.798H50.716C50.921 8.462 51.227 8.184 51.633 7.965C52.039 7.746 52.475 7.636 52.942 7.636C53.81 7.636 54.473 7.89 54.93 8.399C55.387 8.908 55.616 9.601 55.616 10.478V15H54.076V10.688C54.076 10.147 53.934 9.741 53.649 9.47C53.364 9.199 52.993 9.064 52.536 9.064C52.191 9.064 51.88 9.162 51.605 9.358C51.33 9.554 51.113 9.813 50.954 10.135C50.795 10.457 50.716 10.8 50.716 11.164V15H49.176V4.976Z" fill="#3C4043" />
    <path fill-rule="evenodd" clip-rule="evenodd" d="M81.795 4.62899V8.72599H84.349C84.957 8.72599 85.46 8.52299 85.858 8.11899C86.266 7.71499 86.471 7.23399 86.471 6.67699C86.471 6.13099 86.266 5.65499 85.858 5.24999C85.46 4.83499 84.957 4.62799 84.349 4.62799H81.795V4.62899ZM81.795 10.168V14.921H80.27V3.18599H84.315C85.343 3.18599 86.216 3.52499 86.935 4.20199C87.665 4.87899 88.029 5.70499 88.029 6.67699C88.029 7.67099 87.665 8.50199 86.935 9.16799C86.227 9.83499 85.354 10.167 84.315 10.167H81.795V10.168Z" fill="#5F6368" />
    <path fill-rule="evenodd" clip-rule="evenodd" d="M89.571 12.462C89.571 12.856 89.739 13.184 90.077 13.446C90.414 13.708 90.809 13.839 91.262 13.839C91.903 13.839 92.475 13.604 92.978 13.135C93.481 12.665 93.732 12.113 93.732 11.48C93.256 11.108 92.593 10.923 91.742 10.923C91.123 10.923 90.607 11.071 90.192 11.366C89.778 11.661 89.571 12.025 89.571 12.462ZM91.544 6.62799C92.672 6.62799 93.562 6.92599 94.214 7.52099C94.866 8.11699 95.192 8.93399 95.192 9.97099V14.921H93.733V13.806H93.667C93.037 14.724 92.196 15.183 91.147 15.183C90.251 15.183 89.502 14.921 88.9 14.396C88.298 13.872 87.996 13.216 87.996 12.43C87.996 11.599 88.314 10.939 88.949 10.447C89.585 9.95499 90.433 9.70899 91.494 9.70899C92.4 9.70899 93.147 9.87299 93.732 10.201V9.85599C93.732 9.33199 93.522 8.88699 93.102 8.52099C92.681 8.15399 92.191 7.97199 91.627 7.97199C90.775 7.97199 90.102 8.32699 89.604 9.03799L88.261 8.20099C89.001 7.15199 90.096 6.62799 91.544 6.62799Z" fill="#5F6368" />
    <path fill-rule="evenodd" clip-rule="evenodd" d="M103.565 6.89L98.474 18.461H96.899L98.789 14.412L95.44 6.89H97.098L99.519 12.659H99.552L101.906 6.89H103.565Z" fill="#5F6368" />
    <path fill-rule="evenodd" clip-rule="evenodd" d="M75.631 9.14299C75.631 8.66899 75.591 8.21099 75.514 7.77199H69.081V10.369H72.765C72.607 11.216 72.129 11.936 71.403 12.418V14.105H73.602C74.89 12.931 75.631 11.195 75.631 9.14299Z" fill="#4285F4" />
    <path fill-rule="evenodd" clip-rule="evenodd" d="M69.081 15.733C70.922 15.733 72.472 15.135 73.602 14.105L71.403 12.418C70.791 12.826 70.003 13.064 69.081 13.064C67.301 13.064 65.791 11.878 65.251 10.28H62.986V12.018C64.108 14.22 66.415 15.733 69.081 15.733Z" fill="#34A853" />
    <path fill-rule="evenodd" clip-rule="evenodd" d="M65.251 10.28C65.113 9.87299 65.037 9.43799 65.037 8.98999C65.037 8.54099 65.113 8.10699 65.251 7.69899V5.96199H62.986C62.521 6.87199 62.259 7.90099 62.259 8.98999C62.259 10.079 62.521 11.107 62.986 12.018L65.251 10.28Z" fill="#FABB05" />
    <path fill-rule="evenodd" clip-rule="evenodd" d="M69.081 4.91599C70.086 4.91599 70.987 5.25799 71.698 5.92699V5.92799L73.645 4.00399C72.462 2.91599 70.921 2.24699 69.081 2.24699C66.415 2.24699 64.108 3.75899 62.986 5.96199L65.251 7.69899C65.791 6.10199 67.301 4.91599 69.081 4.91599Z" fill="#E94235" />
</svg>
