<svg width="104" height="19" viewBox="0 0 104 19" fill="none" xmlns="http://www.w3.org/2000/svg">
    <path fill-rule="evenodd" clip-rule="evenodd" d="M0.148003 4.976H3.914C4.446 4.976 4.938 5.093 5.391 5.326C5.844 5.559 6.205 5.881 6.476 6.292C6.746 6.702 6.882 7.155 6.882 7.65C6.882 8.145 6.758 8.574 6.511 8.938C6.264 9.302 5.939 9.578 5.538 9.764V9.848C6.042 10.025 6.45 10.319 6.763 10.73C7.076 11.14 7.232 11.621 7.232 12.172C7.24041 12.6937 7.09162 13.2059 6.805 13.642C6.52 14.072 6.138 14.405 5.657 14.643C5.16701 14.8831 4.62765 15.0054 4.082 15H0.148003V4.976ZM3.844 9.176C4.292 9.176 4.654 9.036 4.929 8.756C5.204 8.476 5.342 8.154 5.342 7.79C5.342 7.426 5.209 7.106 4.943 6.831C4.677 6.556 4.329 6.418 3.9 6.418H1.716V9.176H3.844ZM4.082 13.544C4.558 13.544 4.938 13.394 5.223 13.096C5.508 12.797 5.65 12.452 5.65 12.06C5.65 11.659 5.503 11.311 5.209 11.017C4.915 10.723 4.521 10.576 4.026 10.576H1.716V13.544H4.082ZM9.461 14.447C9.008 13.929 8.782 13.208 8.782 12.284V7.86H10.322V12.074C10.322 12.653 10.46 13.087 10.735 13.376C11.01 13.666 11.372 13.81 11.82 13.81C12.184 13.81 12.506 13.714 12.786 13.523C13.066 13.332 13.281 13.077 13.43 12.76C13.5799 12.4403 13.6564 12.0911 13.654 11.738V7.86H15.194V15H13.738V14.076H13.654C13.458 14.412 13.154 14.687 12.744 14.902C12.334 15.117 11.899 15.224 11.442 15.224C10.574 15.224 9.914 14.965 9.461 14.447ZM19.32 14.608L16.352 7.86H18.074L20.09 12.718H20.146L22.106 7.86H23.8L19.39 18.024H17.766L19.32 14.608ZM27.586 7.86H29.252L30.694 12.97H30.75L32.36 7.86H33.942L35.538 12.97H35.594L37.036 7.86H38.674L36.392 15H34.768L33.13 9.876H33.088L31.464 15H29.868L27.586 7.86ZM39.965 6.523C39.8673 6.42754 39.7902 6.31308 39.7384 6.18666C39.6866 6.06025 39.6613 5.92457 39.664 5.788C39.6613 5.65142 39.6866 5.51575 39.7384 5.38933C39.7902 5.26292 39.8673 5.14846 39.965 5.053C40.0605 4.95529 40.1749 4.87817 40.3013 4.8264C40.4278 4.77463 40.5634 4.74931 40.7 4.752C40.8366 4.74931 40.9723 4.77463 41.0987 4.8264C41.2251 4.87817 41.3395 4.95529 41.435 5.053C41.5327 5.14846 41.6098 5.26292 41.6616 5.38933C41.7134 5.51575 41.7387 5.65142 41.736 5.788C41.7387 5.92457 41.7134 6.06025 41.6616 6.18666C41.6098 6.31308 41.5327 6.42754 41.435 6.523C41.3395 6.62071 41.2251 6.69783 41.0987 6.7496C40.9723 6.80137 40.8366 6.82669 40.7 6.824C40.5634 6.82669 40.4278 6.80137 40.3013 6.7496C40.1749 6.69783 40.0605 6.62071 39.965 6.523V6.523ZM39.93 7.86H41.47V15H39.93V7.86ZM45.498 14.958C45.244 14.8709 45.0106 14.7327 44.812 14.552C44.411 14.151 44.21 13.605 44.21 12.914V9.218H42.964V7.86H44.21V5.844H45.75V7.86H47.486V9.218H45.75V12.578C45.75 12.961 45.825 13.231 45.974 13.39C46.114 13.577 46.357 13.67 46.702 13.67C46.861 13.67 47.001 13.649 47.122 13.607C47.243 13.565 47.374 13.497 47.514 13.404V14.902C47.206 15.042 46.833 15.112 46.394 15.112C46.077 15.112 45.778 15.061 45.498 14.958V14.958ZM49.176 4.976H50.716V7.706L50.646 8.798H50.716C50.921 8.462 51.227 8.184 51.633 7.965C52.039 7.745 52.475 7.636 52.942 7.636C53.81 7.636 54.472 7.89 54.93 8.399C55.387 8.908 55.616 9.601 55.616 10.478V15H54.076V10.688C54.076 10.147 53.934 9.741 53.649 9.47C53.364 9.2 52.993 9.064 52.536 9.064C52.191 9.064 51.88 9.162 51.605 9.358C51.3261 9.55816 51.1022 9.8254 50.954 10.135C50.7958 10.4549 50.7143 10.8072 50.716 11.164V15H49.176V4.976V4.976ZM81.526 4.635V8.718H84.044C84.644 8.718 85.14 8.516 85.532 8.113C85.935 7.711 86.137 7.231 86.137 6.676C86.137 6.132 85.935 5.658 85.532 5.254C85.14 4.841 84.644 4.634 84.044 4.634H81.526V4.635ZM81.526 10.155V14.891H80.022V3.198H84.012C85.025 3.198 85.885 3.535 86.594 4.21C87.314 4.885 87.674 5.707 87.674 6.676C87.674 7.667 87.314 8.495 86.594 9.158C85.897 9.823 85.035 10.154 84.011 10.154H81.526V10.155V10.155ZM89.194 12.442C89.194 12.834 89.36 13.16 89.693 13.422C90.025 13.682 90.415 13.813 90.861 13.813C91.494 13.813 92.057 13.579 92.553 13.112C93.05 12.643 93.297 12.093 93.297 11.462C92.828 11.092 92.174 10.907 91.335 10.907C90.725 10.907 90.215 11.055 89.807 11.349C89.398 11.643 89.194 12.006 89.194 12.442V12.442ZM91.14 6.627C92.252 6.627 93.129 6.924 93.773 7.517C94.415 8.111 94.737 8.925 94.737 9.959V14.891H93.298V13.781H93.233C92.611 14.695 91.783 15.153 90.747 15.153C89.865 15.153 89.126 14.891 88.532 14.369C87.938 13.846 87.641 13.193 87.641 12.409C87.641 11.581 87.954 10.923 88.581 10.433C89.208 9.943 90.044 9.698 91.091 9.698C91.983 9.698 92.72 9.861 93.297 10.188V9.844C93.297 9.322 93.09 8.878 92.676 8.514C92.2771 8.15506 91.7576 7.95973 91.221 7.967C90.381 7.967 89.717 8.32 89.226 9.029L87.902 8.195C88.632 7.15 89.712 6.627 91.14 6.627V6.627ZM102.993 6.889L97.973 18.419H96.42L98.284 14.385L94.982 6.889H96.617L99.004 12.638H99.036L101.358 6.888L102.993 6.889Z" fill="white" />
    <path fill-rule="evenodd" clip-rule="evenodd" d="M75.448 9.13399C75.448 8.66099 75.408 8.20399 75.332 7.76799H68.988V10.356H72.622C72.5475 10.7695 72.39 11.1636 72.159 11.5146C71.9281 11.8655 71.6283 12.1661 71.278 12.398V14.078H73.447C74.717 12.908 75.448 11.178 75.448 9.13399" fill="#4285F4" />
    <path fill-rule="evenodd" clip-rule="evenodd" d="M68.988 15.7C70.804 15.7 72.332 15.105 73.447 14.079L71.278 12.398C70.675 12.804 69.898 13.041 68.988 13.041C67.234 13.041 65.744 11.859 65.212 10.267H62.978V11.998C63.5384 13.1114 64.3971 14.0472 65.4583 14.701C66.5196 15.3549 67.7415 15.7011 68.988 15.701" fill="#34A853" />
    <path fill-rule="evenodd" clip-rule="evenodd" d="M65.212 10.267C64.9314 9.43262 64.9314 8.52936 65.212 7.69499V5.96399H62.978C62.5056 6.89946 62.26 7.93299 62.261 8.98099C62.261 10.066 62.521 11.091 62.978 11.998L65.212 10.267Z" fill="#FABB05" />
    <path fill-rule="evenodd" clip-rule="evenodd" d="M68.988 4.92099C69.98 4.92099 70.868 5.26099 71.568 5.92899V5.92999L73.488 4.01199C72.323 2.92799 70.803 2.26199 68.988 2.26199C67.7416 2.26183 66.5197 2.60787 65.4585 3.26154C64.3973 3.91521 63.5386 4.85081 62.978 5.96399L65.212 7.69499C65.744 6.10299 67.234 4.92099 68.988 4.92099" fill="#E94235" />
</svg>
