<svg width="256" height="38" viewBox="0 0 256 38" fill="none" xmlns="http://www.w3.org/2000/svg">
    <g id="en_donate_with_Dark">
        <path id="Text" d="M3.90472 30V9.952H10.3167C12.4261 9.952 14.2367 10.3813 15.7487 11.24C17.2794 12.08 18.4554 13.256 19.2767 14.768C20.1167 16.28 20.5367 18.016 20.5367 19.976C20.5367 21.9547 20.1167 23.7 19.2767 25.212C18.4554 26.7053 17.2794 27.8813 15.7487 28.74C14.2367 29.58 12.4261 30 10.3167 30H3.90472ZM6.98472 27.088H10.2327C12.5101 27.088 14.2741 26.4533 15.5247 25.184C16.7941 23.9147 17.4287 22.1787 17.4287 19.976C17.4287 17.7733 16.7941 16.0373 15.5247 14.768C14.2741 13.4987 12.5101 12.864 10.2327 12.864H6.98472V27.088ZM30.1629 30.448C28.6882 30.448 27.3909 30.112 26.2709 29.44C25.1509 28.768 24.2736 27.8627 23.6389 26.724C23.0042 25.5853 22.6869 24.2973 22.6869 22.86C22.6869 21.4413 23.0042 20.1627 23.6389 19.024C24.2736 17.8667 25.1509 16.952 26.2709 16.28C27.3909 15.608 28.6882 15.272 30.1629 15.272C31.6189 15.272 32.9069 15.608 34.0269 16.28C35.1469 16.952 36.0242 17.8667 36.6589 19.024C37.2936 20.1627 37.6109 21.4413 37.6109 22.86C37.6109 24.2973 37.2936 25.5853 36.6589 26.724C36.0242 27.8627 35.1469 28.768 34.0269 29.44C32.9069 30.112 31.6189 30.448 30.1629 30.448ZM30.1629 27.676C30.9469 27.676 31.6749 27.4893 32.3469 27.116C33.0189 26.724 33.5602 26.1733 33.9709 25.464C34.4002 24.736 34.6149 23.868 34.6149 22.86C34.6149 21.852 34.4002 20.9933 33.9709 20.284C33.5602 19.556 33.0189 19.0053 32.3469 18.632C31.6749 18.24 30.9469 18.044 30.1629 18.044C29.3789 18.044 28.6416 18.24 27.9509 18.632C27.2789 19.0053 26.7282 19.556 26.2989 20.284C25.8882 20.9933 25.6829 21.852 25.6829 22.86C25.6829 23.868 25.8882 24.736 26.2989 25.464C26.7282 26.1733 27.2789 26.724 27.9509 27.116C28.6416 27.4893 29.3789 27.676 30.1629 27.676ZM40.4226 30V15.72H43.2786V17.68H43.4466C43.8573 16.9893 44.4639 16.42 45.2666 15.972C46.0879 15.5053 46.9839 15.272 47.9546 15.272C49.7093 15.272 51.0253 15.7947 51.9026 16.84C52.7799 17.8853 53.2186 19.2667 53.2186 20.984V30H50.2226V21.376C50.2226 20.2187 49.9333 19.3787 49.3546 18.856C48.7759 18.3147 48.0199 18.044 47.0866 18.044C46.3586 18.044 45.7239 18.2493 45.1826 18.66C44.6413 19.052 44.2119 19.5747 43.8946 20.228C43.5959 20.8813 43.4466 21.5813 43.4466 22.328V30H40.4226ZM61.3081 30.448C60.2814 30.448 59.3667 30.252 58.5641 29.86C57.7614 29.4493 57.1361 28.88 56.6881 28.152C56.2401 27.424 56.0161 26.5933 56.0161 25.66C56.0161 24.652 56.2774 23.7933 56.8001 23.084C57.3414 22.356 58.0601 21.8053 58.9561 21.432C59.8521 21.0587 60.8414 20.872 61.9241 20.872C62.8201 20.872 63.6041 20.956 64.2761 21.124C64.9667 21.292 65.4894 21.4693 65.8441 21.656V20.9C65.8441 19.9667 65.5081 19.22 64.8361 18.66C64.1641 18.1 63.2961 17.82 62.2321 17.82C61.5041 17.82 60.8134 17.988 60.1601 18.324C59.5067 18.6413 58.9841 19.08 58.5921 19.64L56.5201 18.044C57.1361 17.1853 57.9481 16.5133 58.9561 16.028C59.9827 15.524 61.1027 15.272 62.3161 15.272C64.3881 15.272 65.9841 15.7853 67.1041 16.812C68.2241 17.82 68.7841 19.2387 68.7841 21.068V30H65.8441V28.236H65.6761C65.3027 28.8147 64.7427 29.328 63.9961 29.776C63.2494 30.224 62.3534 30.448 61.3081 30.448ZM61.8401 27.984C62.6241 27.984 63.3147 27.7973 63.9121 27.424C64.5094 27.0507 64.9761 26.5653 65.3121 25.968C65.6667 25.352 65.8441 24.6893 65.8441 23.98C65.4147 23.7373 64.9107 23.5413 64.3321 23.392C63.7534 23.224 63.1374 23.14 62.4841 23.14C61.2521 23.14 60.3747 23.392 59.8521 23.896C59.3294 24.3813 59.0681 24.9787 59.0681 25.688C59.0681 26.36 59.3201 26.9107 59.8241 27.34C60.3281 27.7693 61.0001 27.984 61.8401 27.984ZM73.6518 25.856V18.352H71.1598V15.72H73.6518V11.688H76.6758V15.72H80.1758V18.352H76.6758V25.212C76.6758 25.9213 76.8158 26.4627 77.0958 26.836C77.3944 27.2093 77.8891 27.396 78.5798 27.396C78.9344 27.396 79.2331 27.3493 79.4758 27.256C79.7371 27.1627 79.9984 27.032 80.2598 26.864V29.804C79.9424 29.9347 79.6064 30.0373 79.2518 30.112C78.8971 30.1867 78.4771 30.224 77.9918 30.224C76.6664 30.224 75.6118 29.8413 74.8278 29.076C74.0438 28.292 73.6518 27.2187 73.6518 25.856ZM89.3544 30.448C87.9544 30.448 86.7037 30.1213 85.6024 29.468C84.5011 28.8147 83.6331 27.9187 82.9984 26.78C82.3824 25.6413 82.0744 24.344 82.0744 22.888C82.0744 21.5253 82.3731 20.2653 82.9704 19.108C83.5677 17.9507 84.3984 17.0267 85.4624 16.336C86.5451 15.6267 87.7864 15.272 89.1864 15.272C90.6611 15.272 91.9117 15.5893 92.9384 16.224C93.9837 16.8587 94.7771 17.7267 95.3184 18.828C95.8597 19.9293 96.1304 21.1707 96.1304 22.552C96.1304 22.7573 96.1211 22.944 96.1024 23.112C96.1024 23.28 96.0931 23.4107 96.0744 23.504H85.0424C85.1917 24.9227 85.6864 25.9867 86.5264 26.696C87.3851 27.4053 88.3557 27.76 89.4384 27.76C90.4091 27.76 91.2117 27.5453 91.8464 27.116C92.4811 26.668 92.9851 26.1173 93.3584 25.464L95.8504 26.668C95.2344 27.788 94.3944 28.7027 93.3304 29.412C92.2664 30.1027 90.9411 30.448 89.3544 30.448ZM89.2144 17.848C88.2064 17.848 87.3477 18.156 86.6384 18.772C85.9291 19.388 85.4531 20.2093 85.2104 21.236H93.1344C93.0971 20.7507 92.9384 20.2467 92.6584 19.724C92.3784 19.2013 91.9491 18.7627 91.3704 18.408C90.8104 18.0347 90.0917 17.848 89.2144 17.848ZM109.067 30L104.503 15.72H107.779L110.719 25.996H110.831L114.051 15.72H117.159L120.379 25.996H120.491L123.431 15.72H126.651L122.059 30H118.895L115.591 19.668H115.479L112.203 30H109.067ZM130.638 13.62C130.078 13.62 129.593 13.424 129.182 13.032C128.79 12.6213 128.594 12.136 128.594 11.576C128.594 11.016 128.79 10.54 129.182 10.148C129.593 9.756 130.078 9.56 130.638 9.56C131.198 9.56 131.674 9.756 132.066 10.148C132.477 10.54 132.682 11.016 132.682 11.576C132.682 12.136 132.477 12.6213 132.066 13.032C131.674 13.424 131.198 13.62 130.638 13.62ZM129.126 30V15.72H132.15V30H129.126ZM137.578 25.856V18.352H135.086V15.72H137.578V11.688H140.602V15.72H144.102V18.352H140.602V25.212C140.602 25.9213 140.742 26.4627 141.022 26.836C141.32 27.2093 141.815 27.396 142.506 27.396C142.86 27.396 143.159 27.3493 143.402 27.256C143.663 27.1627 143.924 27.032 144.186 26.864V29.804C143.868 29.9347 143.532 30.0373 143.178 30.112C142.823 30.1867 142.403 30.224 141.918 30.224C140.592 30.224 139.538 29.8413 138.754 29.076C137.97 28.292 137.578 27.2187 137.578 25.856ZM147.44 30V9.952H150.464V15.44L150.296 17.68H150.464C150.856 16.9893 151.453 16.42 152.256 15.972C153.077 15.5053 153.982 15.272 154.972 15.272C156.745 15.272 158.08 15.804 158.976 16.868C159.872 17.9133 160.32 19.2853 160.32 20.984V30H157.324V21.376C157.324 20.2187 157.016 19.3787 156.4 18.856C155.802 18.3147 155.065 18.044 154.188 18.044C153.46 18.044 152.816 18.2493 152.256 18.66C151.696 19.0707 151.257 19.612 150.94 20.284C150.622 20.9373 150.464 21.6373 150.464 22.384V30H147.44Z" fill="white" />
        <g id="GPay Logo (Dark)">
            <g id="GPay">
                <g id="Pay">
                    <path id="Fill 1" fill-rule="evenodd" clip-rule="evenodd" d="M212.529 9.34665V17.5128H217.565C218.765 17.5128 219.757 17.1096 220.541 16.3032C221.347 15.4988 221.75 14.5394 221.75 13.4288C221.75 12.3406 221.347 11.3924 220.541 10.586C219.757 9.75916 218.765 9.34479 217.565 9.34479H212.529V9.34665ZM212.529 20.3872V29.8599H209.521V6.47218H217.499C219.527 6.47218 221.248 7.14787 222.666 8.49738C224.105 9.84688 224.824 11.4913 224.824 13.4288C224.824 15.411 224.105 17.0667 222.666 18.3938C221.27 19.7227 219.547 20.3854 217.499 20.3854H212.529V20.3872Z" fill="white" />
                    <path id="Fill 3" fill-rule="evenodd" clip-rule="evenodd" d="M227.864 24.9602C227.864 25.7442 228.197 26.3975 228.862 26.9201C229.527 27.4427 230.306 27.704 231.2 27.704C232.465 27.704 233.591 27.2354 234.584 26.3004C235.576 25.3634 236.071 24.264 236.071 23.0022C235.133 22.2612 233.825 21.8916 232.147 21.8916C230.925 21.8916 229.907 22.1866 229.09 22.7745C228.273 23.3623 227.864 24.0886 227.864 24.9602ZM231.756 13.3317C233.98 13.3317 235.735 13.9253 237.022 15.1124C238.308 16.2995 238.95 17.9271 238.95 19.9952V29.8599H236.073V27.6387H235.942C234.699 29.4677 233.042 30.3825 230.972 30.3825C229.206 30.3825 227.728 29.8599 226.541 28.8146C225.353 27.7694 224.759 26.4628 224.759 24.8949C224.759 23.2393 225.385 21.9232 226.638 20.9434C227.892 19.9635 229.565 19.4726 231.658 19.4726C233.444 19.4726 234.916 19.7993 236.071 20.4525V19.7657C236.071 18.7204 235.656 17.8338 234.829 17.104C233.999 16.3742 233.031 16.0102 231.919 16.0102C230.239 16.0102 228.911 16.7176 227.93 18.1343L225.28 16.4675C226.741 14.377 228.899 13.3317 231.756 13.3317Z" fill="white" />
                    <path id="Fill 5" fill-rule="evenodd" clip-rule="evenodd" d="M255.463 13.8543L245.424 36.9154H242.318L246.046 28.8464L239.44 13.8543H242.71L247.484 25.3522H247.55L252.193 13.8543H255.463Z" fill="white" />
                </g>
                <g id="G">
                    <path id="Fill 8" fill-rule="evenodd" clip-rule="evenodd" d="M200.373 18.3452C200.373 17.3989 200.293 16.4861 200.141 15.6126H187.454V20.7885H194.72C194.408 22.4757 193.465 23.9112 192.033 24.8725V28.2341H196.37C198.91 25.8935 200.373 22.4348 200.373 18.3452Z" fill="#4285F4" />
                    <path id="Fill 10" fill-rule="evenodd" clip-rule="evenodd" d="M187.454 31.4782C191.084 31.4782 194.141 30.2873 196.37 28.2341L192.033 24.8725C190.826 25.6844 189.272 26.1585 187.454 26.1585C183.944 26.1585 180.966 23.7955 179.901 20.6112H175.433V24.0736C177.647 28.4637 182.197 31.4782 187.454 31.4782Z" fill="#34A853" />
                    <path id="Fill 12" fill-rule="evenodd" clip-rule="evenodd" d="M179.901 20.6111C179.628 19.7992 179.479 18.9331 179.479 18.0391C179.479 17.145 179.628 16.2789 179.901 15.467V12.0045H175.433C174.518 13.8188 174 15.8683 174 18.0391C174 20.2098 174.518 22.2595 175.433 24.0736L179.901 20.6111Z" fill="#FABB05" />
                    <path id="Fill 14" fill-rule="evenodd" clip-rule="evenodd" d="M187.454 9.91964C189.436 9.91964 191.213 10.6009 192.615 11.9355V11.9374L196.455 8.10163C194.123 5.93272 191.082 4.60001 187.454 4.60001C182.197 4.60001 177.647 7.61447 175.433 12.0046L179.901 15.467C180.966 12.2827 183.944 9.91964 187.454 9.91964Z" fill="#E94235" />
                </g>
            </g>
        </g>
    </g>
</svg>
