<svg width="41" height="19" viewBox="0 0 41 19" fill="none" xmlns="http://www.w3.org/2000/svg">
    <path fill-rule="evenodd" clip-rule="evenodd" d="M19.526 4.635V8.718H22.044C22.644 8.718 23.14 8.516 23.532 8.113C23.935 7.711 24.137 7.231 24.137 6.676C24.137 6.132 23.935 5.658 23.532 5.254C23.14 4.841 22.644 4.634 22.044 4.634H19.526V4.635ZM19.526 10.155V14.891H18.022V3.198H22.011C23.025 3.198 23.885 3.535 24.594 4.21C25.314 4.885 25.674 5.707 25.674 6.676C25.674 7.667 25.314 8.495 24.594 9.158C23.897 9.823 23.035 10.154 22.011 10.154H19.526V10.155Z" fill="#5F6368" />
    <path fill-rule="evenodd" clip-rule="evenodd" d="M27.194 12.442C27.194 12.834 27.36 13.16 27.693 13.422C28.025 13.683 28.415 13.813 28.861 13.813C29.494 13.813 30.057 13.579 30.553 13.112C31.05 12.643 31.297 12.093 31.297 11.463C30.828 11.092 30.174 10.907 29.335 10.907C28.724 10.907 28.215 11.055 27.807 11.349C27.398 11.643 27.194 12.006 27.194 12.442ZM29.14 6.627C30.252 6.627 31.129 6.924 31.773 7.518C32.415 8.111 32.737 8.925 32.737 9.959V14.891H31.298V13.781H31.233C30.611 14.695 29.783 15.153 28.747 15.153C27.865 15.153 27.126 14.891 26.532 14.369C25.938 13.846 25.641 13.193 25.641 12.409C25.641 11.581 25.954 10.923 26.581 10.433C27.208 9.943 28.044 9.698 29.09 9.698C29.983 9.698 30.72 9.861 31.297 10.188V9.844C31.297 9.322 31.09 8.878 30.676 8.513C30.261 8.149 29.777 7.967 29.221 7.967C28.381 7.967 27.717 8.32 27.226 9.029L25.902 8.195C26.632 7.15 27.711 6.627 29.14 6.627Z" fill="#5F6368" />
    <path fill-rule="evenodd" clip-rule="evenodd" d="M40.993 6.889L35.973 18.42H34.42L36.284 14.385L32.981 6.889H34.616L37.003 12.638H37.036L39.358 6.889H40.993Z" fill="#5F6368" />
    <path fill-rule="evenodd" clip-rule="evenodd" d="M13.448 9.13401C13.448 8.66101 13.408 8.20501 13.332 7.76801H6.988V10.356H10.622C10.466 11.199 9.994 11.917 9.278 12.398V14.079H11.447C12.716 12.908 13.448 11.179 13.448 9.13401Z" fill="#4285F4" />
    <path fill-rule="evenodd" clip-rule="evenodd" d="M6.988 15.701C8.804 15.701 10.332 15.105 11.447 14.079L9.278 12.398C8.675 12.804 7.897 13.041 6.988 13.041C5.234 13.041 3.744 11.859 3.212 10.267H0.978V11.998C2.085 14.193 4.36 15.701 6.988 15.701Z" fill="#34A853" />
    <path fill-rule="evenodd" clip-rule="evenodd" d="M3.212 10.267C3.076 9.861 3.001 9.428 3.001 8.981C3.001 8.534 3.076 8.101 3.212 7.695V5.964H0.978C0.52 6.871 0.261 7.896 0.261 8.981C0.261 10.066 0.52 11.091 0.978 11.998L3.212 10.267Z" fill="#FABB05" />
    <path fill-rule="evenodd" clip-rule="evenodd" d="M6.988 4.921C7.98 4.921 8.868 5.262 9.569 5.929V5.93L11.489 4.012C10.323 2.928 8.803 2.261 6.988 2.261C4.36 2.261 2.085 3.769 0.978 5.964L3.212 7.695C3.744 6.103 5.234 4.921 6.988 4.921Z" fill="#E94235" />
</svg>
