<svg width="103" height="21" viewBox="0 0 103 21" fill="none" xmlns="http://www.w3.org/2000/svg">
<g id="zh_add_to_Pay_NBG">
<path id="Left Text" d="M7.084 10.4086C6.732 11.6726 6.076 13.0966 5.084 13.9126L5.964 14.6166C7.052 13.6566 7.676 12.1046 8.06 10.7446L7.084 10.4086ZM10.908 11.0166C11.404 12.1046 11.852 13.5286 11.996 14.4726L12.972 14.1046C12.812 13.1766 12.364 11.7686 11.82 10.6966L10.908 11.0166ZM12.892 10.6646C13.836 11.8646 14.812 13.5446 15.196 14.6646L16.22 14.1206C15.804 13.0166 14.828 11.3846 13.836 10.1846L12.892 10.6646ZM12.348 6.04061L11.308 6.39261C12.172 8.15261 13.756 9.80061 15.436 10.6326C15.612 10.3286 15.98 9.88061 16.252 9.65661C14.652 8.98461 13.116 7.56061 12.348 6.04061ZM9.612 3.24061C8.924 6.45661 7.308 8.63261 4.636 9.89661C4.876 10.1046 5.292 10.5846 5.452 10.8406C8.22 9.36861 9.98 7.00061 10.828 3.43261L9.612 3.24061ZM14.124 1.72061C12.236 2.32861 8.668 2.71261 5.66 2.87261C5.804 3.16061 5.948 3.60861 5.996 3.89661C9.068 3.75261 12.748 3.38461 15.068 2.63261L14.124 1.72061ZM5.1 5.54461V6.64861H15.836V5.54461H5.1ZM9.084 8.74461V14.9526C9.084 15.1446 9.02 15.1926 8.812 15.2086C8.604 15.2246 7.9 15.2246 7.1 15.1926C7.244 15.5286 7.404 15.9606 7.436 16.2646C8.524 16.2646 9.228 16.2646 9.644 16.0886C10.092 15.9126 10.204 15.5766 10.204 14.9686V8.74461H9.084ZM2.06 2.56861C2.988 3.03261 4.092 3.78461 4.62 4.32861L5.356 3.36861C4.78 2.82461 3.66 2.13661 2.748 1.72061L2.06 2.56861ZM1.292 6.92061C2.252 7.32061 3.404 8.00861 3.98 8.52061L4.668 7.56061C4.092 7.04861 2.924 6.40861 1.964 6.04061L1.292 6.92061ZM1.644 15.4006L2.732 16.0886C3.436 14.6646 4.22 12.7926 4.828 11.1926L3.868 10.5206C3.212 12.2486 2.3 14.2166 1.644 15.4006ZM26.53 13.7046V14.8726H30.882V13.7046H26.53ZM17.698 4.60061V5.76861H23.842V4.60061H17.698ZM25.986 3.56061V16.0406H27.154V4.71261H30.242V15.9286H31.458V3.56061H25.986ZM23.522 4.60061V4.88861C23.41 11.7366 23.266 14.1046 22.898 14.6006C22.754 14.8086 22.61 14.8566 22.37 14.8406C22.066 14.8406 21.378 14.8406 20.626 14.7766C20.834 15.1126 20.962 15.6406 20.978 15.9926C21.698 16.0406 22.434 16.0406 22.882 15.9766C23.362 15.9286 23.65 15.7846 23.938 15.3686C24.45 14.6646 24.562 12.3286 24.69 5.20861C24.69 5.04861 24.69 4.60061 24.69 4.60061H23.522ZM19.97 1.78461C19.954 7.38461 19.97 12.6646 17.298 15.4806C17.602 15.6566 18.018 16.0246 18.226 16.2966C21.042 13.2406 21.122 7.68861 21.138 1.78461H19.97ZM33.8 2.61661V3.70461H42.008V2.61661H33.8ZM34.28 10.2326V11.3206H41.544V10.2326H34.28ZM37.336 8.32861V14.7766L38.52 14.6006V8.32861H37.336ZM33.624 14.6006L33.816 15.8006C35.944 15.5126 39.096 15.0646 42.072 14.6486L42.04 13.5286C38.952 13.9446 35.704 14.3766 33.624 14.6006ZM33.768 6.96861L33.864 8.10461C35.768 7.99261 38.504 7.84861 41.128 7.68861L41.16 6.63261C38.408 6.77661 35.592 6.90461 33.768 6.96861ZM38.872 5.01661C39.832 6.15261 40.904 7.70461 41.368 8.68061L42.328 8.10461C41.864 7.14461 40.744 5.64061 39.768 4.52061L38.872 5.01661ZM36.568 3.19261C36.216 4.45661 35.528 6.32861 34.968 7.46461L36.024 7.72061C36.616 6.61661 37.304 4.85661 37.864 3.44861L36.568 3.19261ZM42.712 3.49661V12.3606H43.864V3.49661H42.712ZM46.488 2.02461V14.6806C46.488 14.9686 46.408 15.0486 46.12 15.0646C45.8 15.0646 44.808 15.0806 43.736 15.0326C43.912 15.4006 44.088 15.9606 44.152 16.2966C45.448 16.2966 46.424 16.2646 46.952 16.0566C47.48 15.8646 47.672 15.4966 47.672 14.6646V2.02461H46.488Z" fill="white"/>
<g id="GPay (Dark)">
<g id="GPay">
<g id="Pay">
<path id="Fill 1" fill-rule="evenodd" clip-rule="evenodd" d="M77.3563 3.42339V8.16175H80.2784C80.9745 8.16175 81.5501 7.92781 82.0055 7.45993C82.4728 6.99313 82.707 6.43644 82.707 5.79203C82.707 5.16061 82.4728 4.61041 82.0055 4.14254C81.5501 3.66274 80.9745 3.4223 80.2784 3.4223H77.3563V3.42339ZM77.3563 9.82966V15.3262H75.6107V1.75549H80.2404C81.4169 1.75549 82.4154 2.14756 83.2383 2.93061C84.0732 3.71365 84.4906 4.66782 84.4906 5.79203C84.4906 6.94224 84.0731 7.90291 83.2383 8.67296C82.4283 9.44409 81.4287 9.82858 80.2404 9.82858H77.3563V9.82966Z" fill="white"/>
<path id="Fill 3" fill-rule="evenodd" clip-rule="evenodd" d="M86.2546 12.4831C86.2546 12.9379 86.4476 13.317 86.8337 13.6203C87.2195 13.9235 87.6717 14.0752 88.19 14.0752C88.9239 14.0752 89.5777 13.8032 90.1535 13.2607C90.7293 12.717 91.0165 12.0791 91.0165 11.3469C90.4722 10.917 89.7133 10.7025 88.7396 10.7025C88.0306 10.7025 87.4397 10.8736 86.9659 11.2148C86.492 11.5559 86.2546 11.9773 86.2546 12.4831M88.513 5.73566C89.8033 5.73566 90.8214 6.08007 91.5685 6.76889C92.3145 7.45771 92.6873 8.40213 92.6873 9.60216V15.3261H91.0177V14.0373H90.9417C90.2207 15.0985 89.259 15.6294 88.0578 15.6294C87.0332 15.6294 86.1755 15.3261 85.4869 14.7196C84.7975 14.1131 84.4527 13.3549 84.4527 12.4452C84.4527 11.4845 84.8158 10.7208 85.5433 10.1523C86.2708 9.58375 87.2413 9.2989 88.4557 9.2989C89.4921 9.2989 90.3465 9.48844 91.0165 9.86751V9.46894C91.0165 8.86243 90.7758 8.34798 90.2956 7.92451C89.8141 7.50103 89.2525 7.28984 88.6074 7.28984C87.6326 7.28984 86.8618 7.70032 86.2926 8.52235L84.7551 7.55519C85.6029 6.34217 86.8552 5.73566 88.513 5.73566" fill="white"/>
<path id="Fill 5" fill-rule="evenodd" clip-rule="evenodd" d="M102.269 6.03894L96.4432 19.4201H94.6411L96.8043 14.738L92.9714 6.03894H94.8688L97.639 12.7106H97.677L100.371 6.03894H102.269Z" fill="white"/>
</g>
<g id="G">
<path id="Fill 8" fill-rule="evenodd" clip-rule="evenodd" d="M70.3029 8.64473C70.3029 8.09563 70.2562 7.56601 70.1684 7.05914H62.8065V10.0625H67.0231C66.842 11.0414 66.2944 11.8744 65.4639 12.4322V14.3828H67.9804C69.4539 13.0246 70.3029 11.0177 70.3029 8.64473" fill="#4285F4"/>
<path id="Fill 10" fill-rule="evenodd" clip-rule="evenodd" d="M62.8065 16.2651C64.9131 16.2651 66.6869 15.5741 67.9804 14.3828L65.4639 12.4322C64.7635 12.9033 63.8614 13.1784 62.8065 13.1784C60.7703 13.1784 59.042 11.8073 58.424 9.95959H55.8316V11.9687C57.1164 14.516 59.7565 16.2651 62.8065 16.2651" fill="#34A853"/>
<path id="Fill 12" fill-rule="evenodd" clip-rule="evenodd" d="M58.424 9.9596C58.2657 9.48847 58.179 8.98593 58.179 8.46715C58.179 7.94837 58.2657 7.44583 58.424 6.9747V4.96564H55.8316C55.3003 6.01837 55 7.20756 55 8.46715C55 9.72674 55.3003 10.916 55.8316 11.9687L58.424 9.9596Z" fill="#FABB05"/>
<path id="Fill 14" fill-rule="evenodd" clip-rule="evenodd" d="M62.8065 3.75583C63.9568 3.75583 64.9879 4.15115 65.8011 4.92553V4.92661L68.0292 2.70094C66.6761 1.44243 64.912 0.669128 62.8065 0.669128C59.7565 0.669128 57.1164 2.41826 55.8316 4.9656L58.424 6.97467C59.042 5.12698 60.7703 3.75583 62.8065 3.75583" fill="#E94235"/>
</g>
</g>
</g>
</g>
</svg>
