<svg width="222" height="38" viewBox="0 0 222 38" fill="none" xmlns="http://www.w3.org/2000/svg">
<g id="zh_book_with_Light">
<path id="Left Text" d="M9.288 8.424C7.72 12.54 5.088 16.6 2.344 19.176C2.792 19.792 3.52 21.192 3.772 21.808C4.696 20.884 5.62 19.792 6.488 18.616V34.324H8.952V14.864C10.016 13.044 10.94 11.112 11.724 9.236L9.288 8.424ZM13.964 21.92V18.364H18.248V21.052V21.92H13.964ZM25.248 18.364V21.92H20.824C20.824 21.64 20.824 21.332 20.824 21.052V18.364H25.248ZM27.74 24.076V16.208H20.824V13.8H28.552V11.42H20.824V8.648H18.248V11.42H10.884V13.8H18.248V16.208H11.584V24.076H18.08C17.912 25.42 17.548 26.708 16.82 27.884C15.532 26.932 14.468 25.812 13.684 24.524L11.556 25.196C12.536 26.904 13.796 28.36 15.308 29.592C14.076 30.628 12.284 31.524 9.792 32.112C10.352 32.644 11.08 33.68 11.388 34.268C14.104 33.456 16.036 32.364 17.436 31.048C20.152 32.644 23.484 33.68 27.348 34.24C27.684 33.512 28.384 32.448 28.888 31.888C25.024 31.496 21.636 30.6 18.948 29.2C19.984 27.66 20.432 25.924 20.656 24.076H27.74ZM45.512 23.432V19.288H52.288V23.432H45.512ZM36.72 23.432C36.804 22.396 36.832 21.36 36.832 20.408V19.288H42.908V23.432H36.72ZM42.908 12.904V16.852H36.832V12.904H42.908ZM52.288 16.852H45.512V12.904H52.288V16.852ZM54.892 10.412H34.256V20.38C34.256 24.328 33.976 29.284 30.924 32.672C31.512 32.98 32.576 33.876 32.968 34.38C35.012 32.112 36.02 28.976 36.468 25.896H42.908V33.904H45.512V25.896H52.288V30.908C52.288 31.44 52.092 31.608 51.588 31.608C51.056 31.608 49.208 31.636 47.416 31.552C47.752 32.224 48.172 33.372 48.284 34.072C50.86 34.1 52.484 34.044 53.52 33.624C54.528 33.232 54.892 32.448 54.892 30.936V10.412Z" fill="#3C4043"/>
<g id="GPay Logo (Light)">
<g id="GPay">
<g id="Pay">
<path id="Fill 1" fill-rule="evenodd" clip-rule="evenodd" d="M108.529 9.44664V17.6128H113.565C114.765 17.6128 115.757 17.2096 116.541 16.4032C117.347 15.5988 117.75 14.6394 117.75 13.5288C117.75 12.4406 117.347 11.4924 116.541 10.686C115.757 9.85915 114.765 9.44478 113.565 9.44478H108.529V9.44664ZM108.529 20.4872V29.9599H105.521V6.57217H113.499C115.527 6.57217 117.248 7.24786 118.666 8.59737C120.105 9.94688 120.824 11.5913 120.824 13.5288C120.824 15.511 120.105 17.1667 118.666 18.4938C117.27 19.8227 115.547 20.4854 113.499 20.4854H108.529V20.4872Z" fill="#5F6368"/>
<path id="Fill 3" fill-rule="evenodd" clip-rule="evenodd" d="M123.864 25.0602C123.864 25.8442 124.197 26.4975 124.862 27.0201C125.527 27.5427 126.306 27.804 127.2 27.804C128.465 27.804 129.591 27.3354 130.584 26.4004C131.576 25.4634 132.071 24.364 132.071 23.1022C131.133 22.3612 129.825 21.9916 128.147 21.9916C126.925 21.9916 125.907 22.2865 125.09 22.8745C124.273 23.4623 123.864 24.1886 123.864 25.0602ZM127.756 13.4317C129.98 13.4317 131.735 14.0252 133.022 15.2124C134.308 16.3995 134.95 18.0271 134.95 20.0952V29.9599H132.073V27.7387H131.942C130.699 29.5677 129.042 30.4825 126.972 30.4825C125.206 30.4825 123.728 29.9599 122.541 28.9146C121.353 27.8694 120.759 26.5628 120.759 24.9949C120.759 23.3393 121.385 22.0232 122.638 21.0434C123.892 20.0635 125.565 19.5726 127.658 19.5726C129.444 19.5726 130.916 19.8992 132.071 20.5525V19.8656C132.071 18.8204 131.656 17.9338 130.829 17.204C129.999 16.4741 129.031 16.1102 127.919 16.1102C126.239 16.1102 124.911 16.8176 123.93 18.2343L121.28 16.5675C122.741 14.4769 124.899 13.4317 127.756 13.4317Z" fill="#5F6368"/>
<path id="Fill 5" fill-rule="evenodd" clip-rule="evenodd" d="M151.463 13.9543L141.423 37.0154H138.318L142.046 28.9464L135.44 13.9543H138.71L143.484 25.4522H143.55L148.193 13.9543H151.463Z" fill="#5F6368"/>
</g>
<g id="G">
<path id="Fill 8" fill-rule="evenodd" clip-rule="evenodd" d="M96.3729 18.4452C96.3729 17.4989 96.2926 16.5861 96.1412 15.7126H83.4536V20.8885H90.7205C90.4084 22.5757 89.4648 24.0112 88.0335 24.9725V28.3341H92.3704C94.9098 25.9935 96.3729 22.5348 96.3729 18.4452Z" fill="#4285F4"/>
<path id="Fill 10" fill-rule="evenodd" clip-rule="evenodd" d="M83.4536 31.5782C87.0843 31.5782 90.1412 30.3873 92.3704 28.3341L88.0335 24.9725C86.8264 25.7844 85.2717 26.2585 83.4536 26.2585C79.9444 26.2585 76.9659 23.8955 75.9009 20.7112H71.4331V24.1736C73.6474 28.5637 78.1973 31.5782 83.4536 31.5782Z" fill="#34A853"/>
<path id="Fill 12" fill-rule="evenodd" clip-rule="evenodd" d="M75.9009 20.7111C75.6281 19.8992 75.4787 19.0331 75.4787 18.139C75.4787 17.245 75.6281 16.3789 75.9009 15.567V12.1045H71.4332C70.5176 13.9188 70 15.9683 70 18.139C70 20.3098 70.5176 22.3595 71.4332 24.1736L75.9009 20.7111Z" fill="#FABB05"/>
<path id="Fill 14" fill-rule="evenodd" clip-rule="evenodd" d="M83.4536 10.0196C85.4362 10.0196 87.2132 10.7009 88.6146 12.0355V12.0374L92.4545 8.20162C90.1226 6.03271 87.0824 4.7 83.4536 4.7C78.1973 4.7 73.6474 7.71446 71.4331 12.1046L75.9009 15.567C76.9659 12.3827 79.9444 10.0196 83.4536 10.0196Z" fill="#E94235"/>
</g>
</g>
</g>
<path id="Right Text" d="M176.86 14.444V27.716H179.268V16.768H186.212V27.632H188.732V14.444H183.552C183.832 13.688 184.112 12.82 184.42 11.98H189.824V9.684H175.908V11.98H181.592C181.452 12.764 181.256 13.688 181.032 14.444H176.86ZM174.592 18.7L174.228 18.784H172.604L173.22 17.944C172.632 17.524 171.792 16.936 170.896 16.348C172.52 14.836 174.228 12.68 175.404 10.748L173.836 9.656L173.36 9.796H164.68V12.064H171.708C170.924 13.184 169.972 14.332 169.076 15.172C168.264 14.64 167.452 14.136 166.724 13.716L165.324 15.34C166.864 16.348 168.852 17.692 170.336 18.784H164.064V21.08H168.432V31.272C168.432 31.58 168.32 31.692 167.928 31.692C167.564 31.72 166.276 31.72 164.96 31.692C165.268 32.364 165.632 33.456 165.744 34.156C167.648 34.156 168.936 34.128 169.804 33.708C170.7 33.316 170.952 32.588 170.952 31.3V21.08H173.332C172.94 22.508 172.464 23.936 172.044 24.916L174.032 25.364C174.704 23.796 175.516 21.304 176.188 19.092L174.592 18.7ZM183.944 18.392H181.508V23.712C181.508 26.456 180.752 30.124 174.396 32.252C174.956 32.672 175.684 33.54 176.02 34.072C182.964 31.496 183.944 27.324 183.944 23.74V18.392ZM183.244 29.704C184.868 31.076 187.08 33.036 188.116 34.24L189.908 32.448C188.816 31.3 186.548 29.424 184.896 28.136L183.244 29.704ZM200.484 13.38C199.588 12.176 197.6 10.272 196.116 8.956L194.352 10.608C195.864 12.008 197.796 13.996 198.664 15.256L200.484 13.38ZM199.7 28.472V17.132H192.784V19.624H197.208V28.92C197.208 30.18 196.256 31.048 195.696 31.44C196.144 31.944 196.76 33.036 196.956 33.624C197.46 33.036 198.384 32.364 204.376 28.248C204.096 27.688 203.76 26.624 203.62 25.896L199.7 28.472ZM218.152 10.748H202.612V13.38H210.62V30.6C210.62 31.132 210.424 31.3 209.892 31.328C209.276 31.328 207.232 31.356 205.328 31.272C205.776 32 206.252 33.288 206.392 34.072C208.996 34.072 210.788 34.016 211.88 33.54C213 33.12 213.364 32.252 213.364 30.628V13.38H218.152V10.748Z" fill="#3C4043"/>
</g>
</svg>
