<svg width="126" height="21" viewBox="0 0 126 21" fill="none" xmlns="http://www.w3.org/2000/svg">
<g id="zh_book_with_Pay_NBG">
<path id="Left Text" d="M4.978 7.88061H1.506V9.00061H3.842V13.5446H4.978V7.88061ZM4.978 13.0646H3.938C3.09 13.7526 2.098 14.4726 1.298 14.9686L1.89 16.1526C2.802 15.4646 3.666 14.7606 4.482 14.0726C5.474 15.3366 6.93 15.8966 9.026 15.9766C10.818 16.0566 14.242 16.0246 16.018 15.9446C16.082 15.5926 16.258 15.0326 16.402 14.7606C14.482 14.8886 10.786 14.9366 9.026 14.8566C7.138 14.7926 5.762 14.2486 4.978 13.0646ZM1.778 2.68061C2.786 3.43261 3.954 4.56861 4.45 5.35261L5.362 4.52061C4.834 3.73661 3.634 2.64861 2.61 1.92861L1.778 2.68061ZM8.178 4.24861C9.73 4.84061 11.714 5.75261 12.722 6.37661L13.538 5.62461C12.466 4.98461 10.45 4.10461 8.946 3.57661L8.178 4.24861ZM6.658 5.59261V13.8806H7.794V6.52061H14.93V5.59261H6.658ZM14.354 5.59261V12.6646C14.354 12.8726 14.306 12.9366 14.098 12.9366C13.89 12.9366 13.218 12.9526 12.466 12.9206C12.61 13.1926 12.754 13.6086 12.802 13.9126C13.874 13.9126 14.546 13.9126 14.962 13.7206C15.394 13.5446 15.506 13.2726 15.506 12.6806V5.59261H14.354ZM6.658 2.23261V3.19261H14.642V2.23261H6.658ZM7.282 7.92861V8.82461H14.818V7.92861H7.282ZM7.282 10.2806V11.2086H14.818V10.2806H7.282ZM10.482 5.97661V13.8166H11.57V5.97661H10.482ZM14.242 2.23261V2.45661C13.522 3.20861 12.034 4.13661 10.722 4.64861C10.898 4.82461 11.202 5.14461 11.362 5.35261C12.818 4.74461 14.434 3.75261 15.506 2.74461L14.77 2.16861L14.514 2.23261H14.242ZM18.248 2.61661C19.144 3.44861 20.168 4.61661 20.632 5.38461L21.624 4.66461C21.128 3.92861 20.072 2.80861 19.176 2.00861L18.248 2.61661ZM21.176 7.56061H17.784V8.69661H20.008V13.3846H21.176V7.56061ZM20.568 12.7606C19.768 12.7606 18.68 13.5926 17.576 14.7926L18.424 15.9126C19.24 14.8246 20.008 13.8806 20.552 13.8806C20.904 13.8806 21.416 14.4086 22.104 14.8406C23.208 15.5446 24.552 15.7046 26.552 15.7046C28.072 15.7046 30.92 15.6246 32.056 15.5606C32.072 15.1926 32.264 14.5846 32.424 14.2486C30.872 14.4246 28.456 14.5526 26.568 14.5526C24.776 14.5526 23.416 14.4406 22.376 13.7846C21.48 13.2406 21.112 12.7606 20.568 12.7606ZM22.312 4.45661V5.59261H31.944V4.45661H22.312ZM28.504 1.62461V11.9286C28.504 12.2166 28.392 12.2966 28.072 12.3286C27.752 12.3286 26.648 12.3286 25.464 12.2966C25.64 12.6486 25.848 13.1766 25.896 13.5286C27.416 13.5286 28.392 13.4966 28.936 13.3046C29.512 13.1126 29.736 12.7606 29.736 11.9446V1.62461H28.504ZM23.08 7.36861C23.896 8.37661 24.888 9.76861 25.32 10.6166L26.328 9.99261C25.864 9.16061 24.856 7.83261 24.04 6.85661L23.08 7.36861Z" fill="white"/>
<g id="GPay (Dark)">
<g id="GPay">
<g id="Pay">
<path id="Fill 1" fill-rule="evenodd" clip-rule="evenodd" d="M61.3563 3.42339V8.16175H64.2784C64.9745 8.16175 65.5501 7.92781 66.0055 7.45993C66.4728 6.99313 66.707 6.43644 66.707 5.79203C66.707 5.16061 66.4728 4.61041 66.0055 4.14254C65.5501 3.66274 64.9745 3.4223 64.2784 3.4223H61.3563V3.42339ZM61.3563 9.82966V15.3262H59.6107V1.75549H64.2404C65.4169 1.75549 66.4154 2.14756 67.2383 2.93061C68.0732 3.71365 68.4906 4.66782 68.4906 5.79203C68.4906 6.94224 68.0731 7.90291 67.2383 8.67296C66.4283 9.44409 65.4287 9.82858 64.2404 9.82858H61.3563V9.82966Z" fill="white"/>
<path id="Fill 3" fill-rule="evenodd" clip-rule="evenodd" d="M70.2546 12.4831C70.2546 12.9379 70.4476 13.317 70.8337 13.6203C71.2195 13.9235 71.6717 14.0752 72.19 14.0752C72.9239 14.0752 73.5777 13.8032 74.1535 13.2607C74.7293 12.717 75.0165 12.0791 75.0165 11.3469C74.4722 10.917 73.7133 10.7025 72.7396 10.7025C72.0306 10.7025 71.4397 10.8736 70.9659 11.2148C70.492 11.5559 70.2546 11.9773 70.2546 12.4831M72.513 5.73566C73.8033 5.73566 74.8214 6.08007 75.5685 6.76889C76.3145 7.45771 76.6873 8.40213 76.6873 9.60216V15.3261H75.0177V14.0373H74.9417C74.2207 15.0985 73.259 15.6294 72.0578 15.6294C71.0332 15.6294 70.1755 15.3261 69.4869 14.7196C68.7975 14.1131 68.4527 13.3549 68.4527 12.4452C68.4527 11.4845 68.8158 10.7208 69.5433 10.1523C70.2708 9.58375 71.2413 9.2989 72.4557 9.2989C73.4921 9.2989 74.3465 9.48844 75.0165 9.86751V9.46894C75.0165 8.86243 74.7758 8.34798 74.2956 7.92451C73.8141 7.50103 73.2525 7.28984 72.6074 7.28984C71.6326 7.28984 70.8618 7.70032 70.2926 8.52235L68.7551 7.55519C69.6029 6.34217 70.8552 5.73566 72.513 5.73566" fill="white"/>
<path id="Fill 5" fill-rule="evenodd" clip-rule="evenodd" d="M86.2687 6.03894L80.4432 19.4201H78.6411L80.8043 14.738L76.9714 6.03894H78.8688L81.639 12.7106H81.677L84.3713 6.03894H86.2687Z" fill="white"/>
</g>
<g id="G">
<path id="Fill 8" fill-rule="evenodd" clip-rule="evenodd" d="M54.3029 8.64473C54.3029 8.09563 54.2562 7.56601 54.1684 7.05914H46.8065V10.0625H51.0231C50.842 11.0414 50.2944 11.8744 49.4639 12.4322V14.3828H51.9804C53.4539 13.0246 54.3029 11.0177 54.3029 8.64473" fill="#4285F4"/>
<path id="Fill 10" fill-rule="evenodd" clip-rule="evenodd" d="M46.8065 16.2651C48.9131 16.2651 50.6869 15.5741 51.9804 14.3828L49.4639 12.4322C48.7635 12.9033 47.8614 13.1784 46.8065 13.1784C44.7703 13.1784 43.042 11.8073 42.424 9.95959H39.8316V11.9687C41.1164 14.516 43.7565 16.2651 46.8065 16.2651" fill="#34A853"/>
<path id="Fill 12" fill-rule="evenodd" clip-rule="evenodd" d="M42.424 9.9596C42.2657 9.48847 42.179 8.98593 42.179 8.46715C42.179 7.94837 42.2657 7.44583 42.424 6.9747V4.96564H39.8316C39.3003 6.01837 39 7.20756 39 8.46715C39 9.72674 39.3003 10.916 39.8316 11.9687L42.424 9.9596Z" fill="#FABB05"/>
<path id="Fill 14" fill-rule="evenodd" clip-rule="evenodd" d="M46.8065 3.75583C47.9568 3.75583 48.9879 4.15115 49.8011 4.92553V4.92661L52.0292 2.70094C50.6761 1.44243 48.912 0.669128 46.8065 0.669128C43.7565 0.669128 41.1164 2.41826 39.8316 4.9656L42.424 6.97467C43.042 5.12698 44.7703 3.75583 46.8065 3.75583" fill="#E94235"/>
</g>
</g>
</g>
<path id="Right Text" d="M93.594 2.34461V3.40061H98.794V2.34461H93.594ZM93.242 7.48061V8.56861H99.354V7.48061H93.242ZM95.882 7.94461V14.8566C95.882 15.0486 95.818 15.1126 95.594 15.1126C95.37 15.1286 94.618 15.1286 93.802 15.1126C93.962 15.4326 94.138 15.9286 94.186 16.2486C95.29 16.2486 95.994 16.2326 96.442 16.0406C96.906 15.8646 97.034 15.5126 97.034 14.8726V7.94461H95.882ZM98.426 2.34461V2.56861C97.93 3.49661 96.922 4.79261 96.042 5.54461C96.25 5.70461 96.57 6.02461 96.73 6.23261C97.722 5.38461 98.89 4.02461 99.642 2.77661L98.89 2.28061L98.682 2.34461H98.426ZM99.018 7.48061V7.65661C98.698 8.76061 98.234 10.1046 97.85 10.9206L98.778 11.1606C99.194 10.2806 99.706 8.87261 100.122 7.64061L99.37 7.43261L99.194 7.48061H99.018ZM94.042 5.27261C95.274 6.10461 96.906 7.27261 97.738 7.96061L98.426 7.08061C97.578 6.39261 95.914 5.28861 94.714 4.52061L94.042 5.27261ZM100.058 2.28061V3.35261H107.994V2.28061H100.058ZM103.578 2.80861C103.45 3.56061 103.178 4.64861 102.938 5.36861L103.978 5.57661C104.282 4.90461 104.602 3.89661 104.906 2.98461L103.578 2.80861ZM103.37 7.08061V10.2806C103.37 11.9286 102.986 14.0886 99.21 15.3366C99.466 15.5606 99.786 15.9606 99.946 16.2006C103.994 14.7126 104.506 12.3126 104.506 10.2966V7.08061H103.37ZM104.234 13.5926C105.258 14.4086 106.554 15.5446 107.162 16.2646L107.994 15.4326C107.354 14.7446 106.042 13.6246 105.034 12.8726L104.234 13.5926ZM100.634 4.96861V12.5846H101.754V6.05661H106.186V12.5526H107.354V4.96861H100.634ZM110.608 2.64861C111.472 3.46461 112.544 4.61661 113.04 5.33661L113.888 4.47261C113.392 3.78461 112.288 2.68061 111.424 1.89661L110.608 2.64861ZM109.6 6.58461V7.75261H113.168V6.58461H109.6ZM115.136 2.92061V4.12061H124.16V2.92061H115.136ZM120.048 3.33661V14.5046C120.048 14.8086 119.936 14.9046 119.616 14.9206C119.28 14.9366 118.128 14.9526 116.928 14.9046C117.136 15.2406 117.36 15.8326 117.424 16.2006C118.944 16.2006 119.936 16.1686 120.528 15.9606C121.104 15.7526 121.312 15.3366 121.312 14.5206V3.33661H120.048ZM112.08 15.8966C112.32 15.5606 112.8 15.2246 116.16 12.9046C116.032 12.6646 115.888 12.1686 115.808 11.8326L112.224 14.1846L111.856 14.7286L112.08 15.8966ZM112.08 15.8966C112.08 15.4326 113.472 14.5206 113.472 14.5206V6.58461H112.304V13.4806C112.304 14.1846 111.76 14.6806 111.456 14.8726C111.68 15.1126 111.984 15.5926 112.08 15.8966Z" fill="white"/>
</g>
</svg>
