<svg width="126" height="21" viewBox="0 0 126 21" fill="none" xmlns="http://www.w3.org/2000/svg">
<g id="zh_checkout_with_Pay_NBG">
<path id="Left Text" d="M4.978 7.88061H1.506V9.00061H3.842V13.5446H4.978V7.88061ZM4.978 13.0646H3.938C3.09 13.7526 2.098 14.4726 1.298 14.9686L1.89 16.1526C2.802 15.4646 3.666 14.7606 4.482 14.0726C5.474 15.3366 6.93 15.8966 9.026 15.9766C10.818 16.0566 14.242 16.0246 16.018 15.9446C16.082 15.5926 16.258 15.0326 16.402 14.7606C14.482 14.8886 10.786 14.9366 9.026 14.8566C7.138 14.7926 5.762 14.2486 4.978 13.0646ZM1.778 2.68061C2.786 3.43261 3.954 4.56861 4.45 5.35261L5.362 4.52061C4.834 3.73661 3.634 2.64861 2.61 1.92861L1.778 2.68061ZM8.178 4.24861C9.73 4.84061 11.714 5.75261 12.722 6.37661L13.538 5.62461C12.466 4.98461 10.45 4.10461 8.946 3.57661L8.178 4.24861ZM6.658 5.59261V13.8806H7.794V6.52061H14.93V5.59261H6.658ZM14.354 5.59261V12.6646C14.354 12.8726 14.306 12.9366 14.098 12.9366C13.89 12.9366 13.218 12.9526 12.466 12.9206C12.61 13.1926 12.754 13.6086 12.802 13.9126C13.874 13.9126 14.546 13.9126 14.962 13.7206C15.394 13.5446 15.506 13.2726 15.506 12.6806V5.59261H14.354ZM6.658 2.23261V3.19261H14.642V2.23261H6.658ZM7.282 7.92861V8.82461H14.818V7.92861H7.282ZM7.282 10.2806V11.2086H14.818V10.2806H7.282ZM10.482 5.97661V13.8166H11.57V5.97661H10.482ZM14.242 2.23261V2.45661C13.522 3.20861 12.034 4.13661 10.722 4.64861C10.898 4.82461 11.202 5.14461 11.362 5.35261C12.818 4.74461 14.434 3.75261 15.506 2.74461L14.77 2.16861L14.514 2.23261H14.242ZM18.248 2.61661C19.144 3.44861 20.168 4.61661 20.632 5.38461L21.624 4.66461C21.128 3.92861 20.072 2.80861 19.176 2.00861L18.248 2.61661ZM21.176 7.56061H17.784V8.69661H20.008V13.3846H21.176V7.56061ZM20.568 12.7606C19.768 12.7606 18.68 13.5926 17.576 14.7926L18.424 15.9126C19.24 14.8246 20.008 13.8806 20.552 13.8806C20.904 13.8806 21.416 14.4086 22.104 14.8406C23.208 15.5446 24.552 15.7046 26.552 15.7046C28.072 15.7046 30.92 15.6246 32.056 15.5606C32.072 15.1926 32.264 14.5846 32.424 14.2486C30.872 14.4246 28.456 14.5526 26.568 14.5526C24.776 14.5526 23.416 14.4406 22.376 13.7846C21.48 13.2406 21.112 12.7606 20.568 12.7606ZM22.312 4.45661V5.59261H31.944V4.45661H22.312ZM28.504 1.62461V11.9286C28.504 12.2166 28.392 12.2966 28.072 12.3286C27.752 12.3286 26.648 12.3286 25.464 12.2966C25.64 12.6486 25.848 13.1766 25.896 13.5286C27.416 13.5286 28.392 13.4966 28.936 13.3046C29.512 13.1126 29.736 12.7606 29.736 11.9446V1.62461H28.504ZM23.08 7.36861C23.896 8.37661 24.888 9.76861 25.32 10.6166L26.328 9.99261C25.864 9.16061 24.856 7.83261 24.04 6.85661L23.08 7.36861Z" fill="white"/>
<g id="GPay (Dark)">
<g id="GPay">
<g id="Pay">
<path id="Fill 1" fill-rule="evenodd" clip-rule="evenodd" d="M61.3563 3.42339V8.16175H64.2784C64.9745 8.16175 65.5501 7.92781 66.0055 7.45993C66.4728 6.99313 66.707 6.43644 66.707 5.79203C66.707 5.16061 66.4728 4.61041 66.0055 4.14254C65.5501 3.66274 64.9745 3.4223 64.2784 3.4223H61.3563V3.42339ZM61.3563 9.82966V15.3262H59.6107V1.75549H64.2404C65.4169 1.75549 66.4154 2.14756 67.2383 2.93061C68.0732 3.71365 68.4906 4.66782 68.4906 5.79203C68.4906 6.94224 68.0731 7.90291 67.2383 8.67296C66.4283 9.44409 65.4287 9.82858 64.2404 9.82858H61.3563V9.82966Z" fill="white"/>
<path id="Fill 3" fill-rule="evenodd" clip-rule="evenodd" d="M70.2546 12.4831C70.2546 12.9379 70.4476 13.317 70.8337 13.6203C71.2195 13.9235 71.6717 14.0752 72.19 14.0752C72.9239 14.0752 73.5777 13.8032 74.1535 13.2607C74.7293 12.717 75.0165 12.0791 75.0165 11.3469C74.4722 10.917 73.7133 10.7025 72.7396 10.7025C72.0306 10.7025 71.4397 10.8736 70.9659 11.2148C70.492 11.5559 70.2546 11.9773 70.2546 12.4831M72.513 5.73566C73.8033 5.73566 74.8214 6.08007 75.5685 6.76889C76.3145 7.45771 76.6873 8.40213 76.6873 9.60216V15.3261H75.0177V14.0373H74.9417C74.2207 15.0985 73.259 15.6294 72.0578 15.6294C71.0332 15.6294 70.1755 15.3261 69.4869 14.7196C68.7975 14.1131 68.4527 13.3549 68.4527 12.4452C68.4527 11.4845 68.8158 10.7208 69.5433 10.1523C70.2708 9.58375 71.2413 9.2989 72.4557 9.2989C73.4921 9.2989 74.3465 9.48844 75.0165 9.86751V9.46894C75.0165 8.86243 74.7758 8.34798 74.2956 7.92451C73.8141 7.50103 73.2525 7.28984 72.6074 7.28984C71.6326 7.28984 70.8618 7.70032 70.2926 8.52235L68.7551 7.55519C69.6029 6.34217 70.8552 5.73566 72.513 5.73566" fill="white"/>
<path id="Fill 5" fill-rule="evenodd" clip-rule="evenodd" d="M86.2687 6.03894L80.4432 19.4201H78.6411L80.8043 14.738L76.9714 6.03894H78.8688L81.639 12.7106H81.677L84.3713 6.03894H86.2687Z" fill="white"/>
</g>
<g id="G">
<path id="Fill 8" fill-rule="evenodd" clip-rule="evenodd" d="M54.3029 8.64473C54.3029 8.09563 54.2562 7.56601 54.1684 7.05914H46.8065V10.0625H51.0231C50.842 11.0414 50.2944 11.8744 49.4639 12.4322V14.3828H51.9804C53.4539 13.0246 54.3029 11.0177 54.3029 8.64473" fill="#4285F4"/>
<path id="Fill 10" fill-rule="evenodd" clip-rule="evenodd" d="M46.8065 16.2651C48.9131 16.2651 50.6869 15.5741 51.9804 14.3828L49.4639 12.4322C48.7635 12.9033 47.8614 13.1784 46.8065 13.1784C44.7703 13.1784 43.042 11.8073 42.424 9.95959H39.8316V11.9687C41.1164 14.516 43.7565 16.2651 46.8065 16.2651" fill="#34A853"/>
<path id="Fill 12" fill-rule="evenodd" clip-rule="evenodd" d="M42.424 9.9596C42.2657 9.48847 42.179 8.98593 42.179 8.46715C42.179 7.94837 42.2657 7.44583 42.424 6.9747V4.96564H39.8316C39.3003 6.01837 39 7.20756 39 8.46715C39 9.72674 39.3003 10.916 39.8316 11.9687L42.424 9.9596Z" fill="#FABB05"/>
<path id="Fill 14" fill-rule="evenodd" clip-rule="evenodd" d="M46.8065 3.75583C47.9568 3.75583 48.9879 4.15115 49.8011 4.92553V4.92661L52.0292 2.70094C50.6761 1.44243 48.912 0.669128 46.8065 0.669128C43.7565 0.669128 41.1164 2.41826 39.8316 4.9656L42.424 6.97467C43.042 5.12698 44.7703 3.75583 46.8065 3.75583" fill="#E94235"/>
</g>
</g>
</g>
<path id="Right Text" d="M93.658 12.0726C93.658 11.8166 94.49 11.4326 94.49 11.4326V11.4006C96.09 9.88061 97.722 7.75261 99.082 5.60861L97.994 4.93661C96.842 7.08061 95.082 9.28861 94.506 9.84861C93.994 10.4246 93.61 10.8246 93.242 10.8886C93.386 11.2086 93.594 11.8166 93.658 12.0726ZM93.658 12.0726C94.026 11.8646 94.602 11.7206 99.082 10.9046C99.034 10.6486 99.002 10.1846 99.002 9.86461L94.234 10.6486L93.594 11.0646L93.658 12.0726ZM93.546 8.18461C93.546 7.91261 94.362 7.51261 94.362 7.51261V7.48061C95.45 6.10461 96.586 4.10461 97.418 2.16861L96.202 1.67261C95.546 3.52861 94.394 5.51261 94.042 6.02461C93.706 6.55261 93.418 6.90461 93.114 6.98461C93.274 7.30461 93.466 7.91261 93.546 8.18461ZM93.546 8.18461C93.834 8.04061 94.33 7.94461 97.402 7.60861C97.402 7.36861 97.434 6.90461 97.498 6.60061L94.122 6.90461L93.514 7.27261L93.546 8.18461ZM93.21 14.1686L93.418 15.4006C95.002 15.0326 97.13 14.6006 99.146 14.1366L99.05 13.0166C96.906 13.4646 94.682 13.9126 93.21 14.1686ZM99.178 3.70461V4.87261H107.722V3.70461H99.178ZM99.578 7.35261V8.50461H107.45V7.35261H99.578ZM100.634 14.4886V15.5926H106.442V14.4886H100.634ZM102.858 1.56061V7.94461H104.106V1.56061H102.858ZM99.994 10.1366V16.2806H101.162V11.2406H105.85V16.2166H107.066V10.1366H99.994ZM112.208 4.36061V8.93661C112.208 10.9846 112.032 13.8646 109.392 15.4806C109.616 15.6566 109.904 15.9926 110.048 16.2006C112.864 14.3606 113.168 11.2726 113.168 8.93661V4.36061H112.208ZM112.768 12.9206C113.52 13.8166 114.368 15.0326 114.752 15.7846L115.552 15.1446C115.152 14.4086 114.256 13.2406 113.52 12.3766L112.768 12.9206ZM110.16 2.32861V12.1686H111.104V3.32061H114.208V12.1366H115.168V2.32861H110.16ZM115.568 7.80061V8.92061H123.92V7.80061H115.568ZM120.448 8.44061L119.408 8.68061C120.112 11.8166 121.424 14.5046 123.424 15.9446C123.616 15.6406 123.968 15.2086 124.24 15.0166C122.352 13.8006 121.056 11.2566 120.448 8.44061ZM116.784 16.3766C116.784 15.9606 118.128 15.3046 118.128 15.3046V1.89661H117.008V14.3286C117.008 14.9686 116.576 15.2726 116.304 15.4006C116.48 15.6406 116.704 16.1046 116.784 16.3766ZM122.256 2.26461C121.44 3.88061 120.08 5.41661 118.672 6.42461C118.928 6.63261 119.36 7.08061 119.552 7.30461C120.976 6.16861 122.448 4.42461 123.36 2.61661L122.256 2.26461ZM116.784 16.3766C117.056 16.1526 117.504 15.9606 120.592 14.6966C120.544 14.4566 120.496 13.9766 120.496 13.6566L117.136 14.8566L116.656 15.3206L116.784 16.3766Z" fill="white"/>
</g>
</svg>
