<svg width="126" height="21" viewBox="0 0 126 21" fill="none" xmlns="http://www.w3.org/2000/svg">
<g id="zh_donate_with_Pay_NBG">
<path id="Left Text" d="M4.978 7.88061H1.506V9.00061H3.842V13.5446H4.978V7.88061ZM4.978 13.0646H3.938C3.09 13.7526 2.098 14.4726 1.298 14.9686L1.89 16.1526C2.802 15.4646 3.666 14.7606 4.482 14.0726C5.474 15.3366 6.93 15.8966 9.026 15.9766C10.818 16.0566 14.242 16.0246 16.018 15.9446C16.082 15.5926 16.258 15.0326 16.402 14.7606C14.482 14.8886 10.786 14.9366 9.026 14.8566C7.138 14.7926 5.762 14.2486 4.978 13.0646ZM1.778 2.68061C2.786 3.43261 3.954 4.56861 4.45 5.35261L5.362 4.52061C4.834 3.73661 3.634 2.64861 2.61 1.92861L1.778 2.68061ZM8.178 4.24861C9.73 4.84061 11.714 5.75261 12.722 6.37661L13.538 5.62461C12.466 4.98461 10.45 4.10461 8.946 3.57661L8.178 4.24861ZM6.658 5.59261V13.8806H7.794V6.52061H14.93V5.59261H6.658ZM14.354 5.59261V12.6646C14.354 12.8726 14.306 12.9366 14.098 12.9366C13.89 12.9366 13.218 12.9526 12.466 12.9206C12.61 13.1926 12.754 13.6086 12.802 13.9126C13.874 13.9126 14.546 13.9126 14.962 13.7206C15.394 13.5446 15.506 13.2726 15.506 12.6806V5.59261H14.354ZM6.658 2.23261V3.19261H14.642V2.23261H6.658ZM7.282 7.92861V8.82461H14.818V7.92861H7.282ZM7.282 10.2806V11.2086H14.818V10.2806H7.282ZM10.482 5.97661V13.8166H11.57V5.97661H10.482ZM14.242 2.23261V2.45661C13.522 3.20861 12.034 4.13661 10.722 4.64861C10.898 4.82461 11.202 5.14461 11.362 5.35261C12.818 4.74461 14.434 3.75261 15.506 2.74461L14.77 2.16861L14.514 2.23261H14.242ZM18.248 2.61661C19.144 3.44861 20.168 4.61661 20.632 5.38461L21.624 4.66461C21.128 3.92861 20.072 2.80861 19.176 2.00861L18.248 2.61661ZM21.176 7.56061H17.784V8.69661H20.008V13.3846H21.176V7.56061ZM20.568 12.7606C19.768 12.7606 18.68 13.5926 17.576 14.7926L18.424 15.9126C19.24 14.8246 20.008 13.8806 20.552 13.8806C20.904 13.8806 21.416 14.4086 22.104 14.8406C23.208 15.5446 24.552 15.7046 26.552 15.7046C28.072 15.7046 30.92 15.6246 32.056 15.5606C32.072 15.1926 32.264 14.5846 32.424 14.2486C30.872 14.4246 28.456 14.5526 26.568 14.5526C24.776 14.5526 23.416 14.4406 22.376 13.7846C21.48 13.2406 21.112 12.7606 20.568 12.7606ZM22.312 4.45661V5.59261H31.944V4.45661H22.312ZM28.504 1.62461V11.9286C28.504 12.2166 28.392 12.2966 28.072 12.3286C27.752 12.3286 26.648 12.3286 25.464 12.2966C25.64 12.6486 25.848 13.1766 25.896 13.5286C27.416 13.5286 28.392 13.4966 28.936 13.3046C29.512 13.1126 29.736 12.7606 29.736 11.9446V1.62461H28.504ZM23.08 7.36861C23.896 8.37661 24.888 9.76861 25.32 10.6166L26.328 9.99261C25.864 9.16061 24.856 7.83261 24.04 6.85661L23.08 7.36861Z" fill="white"/>
<g id="GPay (Dark)">
<g id="GPay">
<g id="Pay">
<path id="Fill 1" fill-rule="evenodd" clip-rule="evenodd" d="M61.3563 3.42339V8.16175H64.2784C64.9745 8.16175 65.5501 7.92781 66.0055 7.45993C66.4728 6.99313 66.707 6.43644 66.707 5.79203C66.707 5.16061 66.4728 4.61041 66.0055 4.14254C65.5501 3.66274 64.9745 3.4223 64.2784 3.4223H61.3563V3.42339ZM61.3563 9.82966V15.3262H59.6107V1.75549H64.2404C65.4169 1.75549 66.4154 2.14756 67.2383 2.93061C68.0732 3.71365 68.4906 4.66782 68.4906 5.79203C68.4906 6.94224 68.0731 7.90291 67.2383 8.67296C66.4283 9.44409 65.4287 9.82858 64.2404 9.82858H61.3563V9.82966Z" fill="white"/>
<path id="Fill 3" fill-rule="evenodd" clip-rule="evenodd" d="M70.2546 12.4831C70.2546 12.9379 70.4476 13.317 70.8337 13.6203C71.2195 13.9235 71.6717 14.0752 72.19 14.0752C72.9239 14.0752 73.5777 13.8032 74.1535 13.2607C74.7293 12.717 75.0165 12.0791 75.0165 11.3469C74.4722 10.917 73.7133 10.7025 72.7396 10.7025C72.0306 10.7025 71.4397 10.8736 70.9659 11.2148C70.492 11.5559 70.2546 11.9773 70.2546 12.4831M72.513 5.73566C73.8033 5.73566 74.8214 6.08007 75.5685 6.76889C76.3145 7.45771 76.6873 8.40213 76.6873 9.60216V15.3261H75.0177V14.0373H74.9417C74.2207 15.0985 73.259 15.6294 72.0578 15.6294C71.0332 15.6294 70.1755 15.3261 69.4869 14.7196C68.7975 14.1131 68.4527 13.3549 68.4527 12.4452C68.4527 11.4845 68.8158 10.7208 69.5433 10.1523C70.2708 9.58375 71.2413 9.2989 72.4557 9.2989C73.4921 9.2989 74.3465 9.48844 75.0165 9.86751V9.46894C75.0165 8.86243 74.7758 8.34798 74.2956 7.92451C73.8141 7.50103 73.2525 7.28984 72.6074 7.28984C71.6326 7.28984 70.8618 7.70032 70.2926 8.52235L68.7551 7.55519C69.6029 6.34217 70.8552 5.73566 72.513 5.73566" fill="white"/>
<path id="Fill 5" fill-rule="evenodd" clip-rule="evenodd" d="M86.2687 6.03894L80.4432 19.4201H78.6411L80.8043 14.738L76.9714 6.03894H78.8688L81.639 12.7106H81.677L84.3713 6.03894H86.2687Z" fill="white"/>
</g>
<g id="G">
<path id="Fill 8" fill-rule="evenodd" clip-rule="evenodd" d="M54.3029 8.64473C54.3029 8.09563 54.2562 7.56601 54.1684 7.05914H46.8065V10.0625H51.0231C50.842 11.0414 50.2944 11.8744 49.4639 12.4322V14.3828H51.9804C53.4539 13.0246 54.3029 11.0177 54.3029 8.64473" fill="#4285F4"/>
<path id="Fill 10" fill-rule="evenodd" clip-rule="evenodd" d="M46.8065 16.2651C48.9131 16.2651 50.6869 15.5741 51.9804 14.3828L49.4639 12.4322C48.7635 12.9033 47.8614 13.1784 46.8065 13.1784C44.7703 13.1784 43.042 11.8073 42.424 9.95959H39.8316V11.9687C41.1164 14.516 43.7565 16.2651 46.8065 16.2651" fill="#34A853"/>
<path id="Fill 12" fill-rule="evenodd" clip-rule="evenodd" d="M42.424 9.9596C42.2657 9.48847 42.179 8.98593 42.179 8.46715C42.179 7.94837 42.2657 7.44583 42.424 6.9747V4.96564H39.8316C39.3003 6.01837 39 7.20756 39 8.46715C39 9.72674 39.3003 10.916 39.8316 11.9687L42.424 9.9596Z" fill="#FABB05"/>
<path id="Fill 14" fill-rule="evenodd" clip-rule="evenodd" d="M46.8065 3.75583C47.9568 3.75583 48.9879 4.15115 49.8011 4.92553V4.92661L52.0292 2.70094C50.6761 1.44243 48.912 0.669128 46.8065 0.669128C43.7565 0.669128 41.1164 2.41826 39.8316 4.9656L42.424 6.97467C43.042 5.12698 44.7703 3.75583 46.8065 3.75583" fill="#E94235"/>
</g>
</g>
</g>
<path id="Right Text" d="M101.034 3.09661H105.786V5.24061H101.034V3.09661ZM99.914 2.08861V6.23261H106.954V2.08861H99.914ZM99.45 7.41661V16.2646H100.634V8.44061H106.97V7.41661H99.45ZM99.93 9.78461V10.8086H106.778V9.78461H99.93ZM99.93 12.1846V13.2086H106.778V12.1846H99.93ZM106.218 7.41661V14.8726C106.218 15.0806 106.154 15.1446 105.93 15.1446C105.706 15.1606 104.922 15.1766 104.09 15.1446C104.25 15.4646 104.41 15.9286 104.458 16.2646C105.61 16.2646 106.378 16.2486 106.842 16.0726C107.29 15.8806 107.434 15.5446 107.434 14.8726V7.41661H106.218ZM93.21 10.0406L93.562 11.1926C95.082 10.7606 97.082 10.1686 98.97 9.59261L98.81 8.50461C96.778 9.08061 94.65 9.68861 93.21 10.0406ZM93.402 4.79261V5.92861H98.922V4.79261H93.402ZM95.658 1.57661V14.8726C95.658 15.0966 95.578 15.1766 95.354 15.1766C95.146 15.1926 94.442 15.1926 93.706 15.1766C93.85 15.4806 94.01 15.9766 94.058 16.2646C95.162 16.2806 95.834 16.2326 96.25 16.0566C96.682 15.8646 96.826 15.5446 96.826 14.8566V1.57661H95.658ZM109.616 3.09661V4.10461H117.008V3.09661H109.616ZM109.424 9.94461V10.9526H117.152V9.94461H109.424ZM109.984 5.48061V6.50461H116.672V5.48061H109.984ZM110.16 7.70461V8.71261H116.48V7.70461H110.16ZM112.752 10.3766V15.0486C112.752 15.2086 112.704 15.2566 112.528 15.2566C112.352 15.2726 111.792 15.2726 111.152 15.2566C111.296 15.5606 111.456 15.9926 111.504 16.2966C112.416 16.2966 112.992 16.2806 113.376 16.1046C113.776 15.9446 113.872 15.6246 113.872 15.0646V10.3766H112.752ZM112.736 1.62461V6.13661H113.872V1.62461H112.736ZM110.656 11.5126C110.368 12.7126 109.856 13.9126 109.184 14.7446C109.44 14.8406 109.904 15.0966 110.112 15.2406C110.768 14.3606 111.344 13.0486 111.68 11.7046L110.656 11.5126ZM114.8 11.8646C115.264 12.6486 115.744 13.7206 115.952 14.3606L116.896 13.8966C116.704 13.2726 116.192 12.2646 115.712 11.4966L114.8 11.8646ZM118.32 4.47261V5.57661H123.168V4.47261H118.32ZM120.272 4.92061H119.68V7.76861C119.68 9.08061 119.2 13.1926 115.84 15.3366C116.064 15.5606 116.4 16.0406 116.528 16.2966C119.152 14.5846 120.096 11.6086 120.256 10.2326C120.416 11.5446 121.248 14.6646 123.52 16.2966C123.68 16.0086 124.048 15.5446 124.256 15.2726C121.312 13.1926 120.832 9.04861 120.832 7.76861V4.92061H120.272ZM118.368 1.54461C118.064 4.10461 117.472 6.56861 116.448 8.15261C116.736 8.32861 117.264 8.68061 117.472 8.87261C118.512 7.14461 119.2 4.50461 119.568 1.73661L118.368 1.54461ZM122.832 4.47261V4.69661C122.688 5.92861 122.448 7.54461 122.192 8.52061L123.152 8.79261C123.472 7.73661 123.776 6.05661 123.984 4.64861L123.216 4.42461L123.008 4.47261H122.832Z" fill="white"/>
</g>
</svg>
