<svg width="222" height="38" viewBox="0 0 222 38" fill="none" xmlns="http://www.w3.org/2000/svg">
<g id="zh_order_with_Dark">
<path id="Left Text" d="M9.288 8.424C7.72 12.54 5.088 16.6 2.344 19.176C2.792 19.792 3.52 21.192 3.772 21.808C4.696 20.884 5.62 19.792 6.488 18.616V34.324H8.952V14.864C10.016 13.044 10.94 11.112 11.724 9.236L9.288 8.424ZM13.964 21.92V18.364H18.248V21.052V21.92H13.964ZM25.248 18.364V21.92H20.824C20.824 21.64 20.824 21.332 20.824 21.052V18.364H25.248ZM27.74 24.076V16.208H20.824V13.8H28.552V11.42H20.824V8.648H18.248V11.42H10.884V13.8H18.248V16.208H11.584V24.076H18.08C17.912 25.42 17.548 26.708 16.82 27.884C15.532 26.932 14.468 25.812 13.684 24.524L11.556 25.196C12.536 26.904 13.796 28.36 15.308 29.592C14.076 30.628 12.284 31.524 9.792 32.112C10.352 32.644 11.08 33.68 11.388 34.268C14.104 33.456 16.036 32.364 17.436 31.048C20.152 32.644 23.484 33.68 27.348 34.24C27.684 33.512 28.384 32.448 28.888 31.888C25.024 31.496 21.636 30.6 18.948 29.2C19.984 27.66 20.432 25.924 20.656 24.076H27.74ZM45.512 23.432V19.288H52.288V23.432H45.512ZM36.72 23.432C36.804 22.396 36.832 21.36 36.832 20.408V19.288H42.908V23.432H36.72ZM42.908 12.904V16.852H36.832V12.904H42.908ZM52.288 16.852H45.512V12.904H52.288V16.852ZM54.892 10.412H34.256V20.38C34.256 24.328 33.976 29.284 30.924 32.672C31.512 32.98 32.576 33.876 32.968 34.38C35.012 32.112 36.02 28.976 36.468 25.896H42.908V33.904H45.512V25.896H52.288V30.908C52.288 31.44 52.092 31.608 51.588 31.608C51.056 31.608 49.208 31.636 47.416 31.552C47.752 32.224 48.172 33.372 48.284 34.072C50.86 34.1 52.484 34.044 53.52 33.624C54.528 33.232 54.892 32.448 54.892 30.936V10.412Z" fill="white"/>
<g id="GPay Logo (Dark)">
<g id="GPay">
<g id="Pay">
<path id="Fill 1" fill-rule="evenodd" clip-rule="evenodd" d="M108.529 9.34665V17.5128H113.565C114.765 17.5128 115.757 17.1096 116.541 16.3032C117.347 15.4988 117.75 14.5394 117.75 13.4288C117.75 12.3406 117.347 11.3924 116.541 10.586C115.757 9.75916 114.765 9.34479 113.565 9.34479H108.529V9.34665ZM108.529 20.3872V29.8599H105.521V6.47218H113.499C115.527 6.47218 117.248 7.14787 118.666 8.49738C120.105 9.84688 120.824 11.4913 120.824 13.4288C120.824 15.411 120.105 17.0667 118.666 18.3938C117.27 19.7227 115.547 20.3854 113.499 20.3854H108.529V20.3872Z" fill="white"/>
<path id="Fill 3" fill-rule="evenodd" clip-rule="evenodd" d="M123.864 24.9602C123.864 25.7442 124.197 26.3975 124.862 26.9201C125.527 27.4427 126.306 27.704 127.2 27.704C128.465 27.704 129.591 27.2354 130.584 26.3004C131.576 25.3634 132.071 24.264 132.071 23.0022C131.133 22.2612 129.825 21.8916 128.147 21.8916C126.925 21.8916 125.907 22.1866 125.09 22.7745C124.273 23.3623 123.864 24.0886 123.864 24.9602ZM127.756 13.3317C129.98 13.3317 131.735 13.9253 133.022 15.1124C134.308 16.2995 134.95 17.9271 134.95 19.9952V29.8599H132.073V27.6387H131.942C130.699 29.4677 129.042 30.3825 126.972 30.3825C125.206 30.3825 123.728 29.8599 122.541 28.8146C121.353 27.7694 120.759 26.4628 120.759 24.8949C120.759 23.2393 121.385 21.9232 122.638 20.9434C123.892 19.9635 125.565 19.4726 127.658 19.4726C129.444 19.4726 130.916 19.7993 132.071 20.4525V19.7657C132.071 18.7204 131.656 17.8338 130.829 17.104C129.999 16.3742 129.031 16.0102 127.919 16.0102C126.239 16.0102 124.911 16.7176 123.93 18.1343L121.28 16.4675C122.741 14.377 124.899 13.3317 127.756 13.3317Z" fill="white"/>
<path id="Fill 5" fill-rule="evenodd" clip-rule="evenodd" d="M151.463 13.8543L141.423 36.9154H138.318L142.046 28.8464L135.44 13.8543H138.71L143.484 25.3522H143.55L148.193 13.8543H151.463Z" fill="white"/>
</g>
<g id="G">
<path id="Fill 8" fill-rule="evenodd" clip-rule="evenodd" d="M96.3729 18.3452C96.3729 17.3989 96.2926 16.4861 96.1412 15.6126H83.4536V20.7885H90.7205C90.4084 22.4757 89.4648 23.9112 88.0335 24.8725V28.2341H92.3704C94.9098 25.8935 96.3729 22.4348 96.3729 18.3452Z" fill="#4285F4"/>
<path id="Fill 10" fill-rule="evenodd" clip-rule="evenodd" d="M83.4536 31.4782C87.0843 31.4782 90.1412 30.2873 92.3704 28.2341L88.0335 24.8725C86.8264 25.6844 85.2717 26.1585 83.4536 26.1585C79.9444 26.1585 76.9659 23.7955 75.9009 20.6112H71.4331V24.0736C73.6474 28.4637 78.1973 31.4782 83.4536 31.4782Z" fill="#34A853"/>
<path id="Fill 12" fill-rule="evenodd" clip-rule="evenodd" d="M75.9009 20.6111C75.6281 19.7992 75.4787 18.9331 75.4787 18.0391C75.4787 17.145 75.6281 16.2789 75.9009 15.467V12.0045H71.4332C70.5176 13.8188 70 15.8683 70 18.0391C70 20.2098 70.5176 22.2595 71.4332 24.0736L75.9009 20.6111Z" fill="#FABB05"/>
<path id="Fill 14" fill-rule="evenodd" clip-rule="evenodd" d="M83.4536 9.91964C85.4362 9.91964 87.2132 10.6009 88.6146 11.9355V11.9374L92.4545 8.10163C90.1226 5.93272 87.0824 4.60001 83.4536 4.60001C78.1973 4.60001 73.6474 7.61447 71.4331 12.0046L75.9009 15.467C76.9659 12.2827 79.9444 9.91964 83.4536 9.91964Z" fill="#E94235"/>
</g>
</g>
</g>
<path id="Right Text" d="M189.376 13.184V10.524H164.652V13.184H175.04V34.156H177.812V20.072C180.836 21.752 184.336 23.936 186.128 25.448L188.032 23.068C185.876 21.388 181.48 18.896 178.288 17.356L177.812 17.916V13.184H189.376ZM197.964 22.48V19.96H203.9V22.48H197.964ZM197.964 15.424H203.9V17.916H197.964V15.424ZM212.804 17.916H206.588V15.424H212.804V17.916ZM212.804 22.48H206.588V19.96H212.804V22.48ZM217.788 26.96H206.588V24.636H215.464V13.296H211.096C211.936 12.176 212.832 10.832 213.644 9.572L210.788 8.676C210.172 10.076 209.108 11.952 208.156 13.296H201.688L202.92 12.68C202.36 11.56 201.072 9.852 199.98 8.62L197.74 9.684C198.664 10.748 199.672 12.204 200.26 13.296H195.416V24.636H203.9V26.96H192.868V29.368H203.9V34.184H206.588V29.368H217.788V26.96Z" fill="white"/>
</g>
</svg>
