<svg width="222" height="38" viewBox="0 0 222 38" fill="none" xmlns="http://www.w3.org/2000/svg">
<g id="zh_subscribe_with_Light">
<path id="Left Text" d="M9.288 8.424C7.72 12.54 5.088 16.6 2.344 19.176C2.792 19.792 3.52 21.192 3.772 21.808C4.696 20.884 5.62 19.792 6.488 18.616V34.324H8.952V14.864C10.016 13.044 10.94 11.112 11.724 9.236L9.288 8.424ZM13.964 21.92V18.364H18.248V21.052V21.92H13.964ZM25.248 18.364V21.92H20.824C20.824 21.64 20.824 21.332 20.824 21.052V18.364H25.248ZM27.74 24.076V16.208H20.824V13.8H28.552V11.42H20.824V8.648H18.248V11.42H10.884V13.8H18.248V16.208H11.584V24.076H18.08C17.912 25.42 17.548 26.708 16.82 27.884C15.532 26.932 14.468 25.812 13.684 24.524L11.556 25.196C12.536 26.904 13.796 28.36 15.308 29.592C14.076 30.628 12.284 31.524 9.792 32.112C10.352 32.644 11.08 33.68 11.388 34.268C14.104 33.456 16.036 32.364 17.436 31.048C20.152 32.644 23.484 33.68 27.348 34.24C27.684 33.512 28.384 32.448 28.888 31.888C25.024 31.496 21.636 30.6 18.948 29.2C19.984 27.66 20.432 25.924 20.656 24.076H27.74ZM45.512 23.432V19.288H52.288V23.432H45.512ZM36.72 23.432C36.804 22.396 36.832 21.36 36.832 20.408V19.288H42.908V23.432H36.72ZM42.908 12.904V16.852H36.832V12.904H42.908ZM52.288 16.852H45.512V12.904H52.288V16.852ZM54.892 10.412H34.256V20.38C34.256 24.328 33.976 29.284 30.924 32.672C31.512 32.98 32.576 33.876 32.968 34.38C35.012 32.112 36.02 28.976 36.468 25.896H42.908V33.904H45.512V25.896H52.288V30.908C52.288 31.44 52.092 31.608 51.588 31.608C51.056 31.608 49.208 31.636 47.416 31.552C47.752 32.224 48.172 33.372 48.284 34.072C50.86 34.1 52.484 34.044 53.52 33.624C54.528 33.232 54.892 32.448 54.892 30.936V10.412Z" fill="#3C4043"/>
<g id="GPay Logo (Light)">
<g id="GPay">
<g id="Pay">
<path id="Fill 1" fill-rule="evenodd" clip-rule="evenodd" d="M108.529 9.44664V17.6128H113.565C114.765 17.6128 115.757 17.2096 116.541 16.4032C117.347 15.5988 117.75 14.6394 117.75 13.5288C117.75 12.4406 117.347 11.4924 116.541 10.686C115.757 9.85915 114.765 9.44478 113.565 9.44478H108.529V9.44664ZM108.529 20.4872V29.9599H105.521V6.57217H113.499C115.527 6.57217 117.248 7.24786 118.666 8.59737C120.105 9.94688 120.824 11.5913 120.824 13.5288C120.824 15.511 120.105 17.1667 118.666 18.4938C117.27 19.8227 115.547 20.4854 113.499 20.4854H108.529V20.4872Z" fill="#5F6368"/>
<path id="Fill 3" fill-rule="evenodd" clip-rule="evenodd" d="M123.864 25.0602C123.864 25.8442 124.197 26.4975 124.862 27.0201C125.527 27.5427 126.306 27.804 127.2 27.804C128.465 27.804 129.591 27.3354 130.584 26.4004C131.576 25.4634 132.071 24.364 132.071 23.1022C131.133 22.3612 129.825 21.9916 128.147 21.9916C126.925 21.9916 125.907 22.2865 125.09 22.8745C124.273 23.4623 123.864 24.1886 123.864 25.0602ZM127.756 13.4317C129.98 13.4317 131.735 14.0252 133.022 15.2124C134.308 16.3995 134.95 18.0271 134.95 20.0952V29.9599H132.073V27.7387H131.942C130.699 29.5677 129.042 30.4825 126.972 30.4825C125.206 30.4825 123.728 29.9599 122.541 28.9146C121.353 27.8694 120.759 26.5628 120.759 24.9949C120.759 23.3393 121.385 22.0232 122.638 21.0434C123.892 20.0635 125.565 19.5726 127.658 19.5726C129.444 19.5726 130.916 19.8992 132.071 20.5525V19.8656C132.071 18.8204 131.656 17.9338 130.829 17.204C129.999 16.4741 129.031 16.1102 127.919 16.1102C126.239 16.1102 124.911 16.8176 123.93 18.2343L121.28 16.5675C122.741 14.4769 124.899 13.4317 127.756 13.4317Z" fill="#5F6368"/>
<path id="Fill 5" fill-rule="evenodd" clip-rule="evenodd" d="M151.463 13.9543L141.423 37.0154H138.318L142.046 28.9464L135.44 13.9543H138.71L143.484 25.4522H143.55L148.193 13.9543H151.463Z" fill="#5F6368"/>
</g>
<g id="G">
<path id="Fill 8" fill-rule="evenodd" clip-rule="evenodd" d="M96.3729 18.4452C96.3729 17.4989 96.2926 16.5861 96.1412 15.7126H83.4536V20.8885H90.7205C90.4084 22.5757 89.4648 24.0112 88.0335 24.9725V28.3341H92.3704C94.9098 25.9935 96.3729 22.5348 96.3729 18.4452Z" fill="#4285F4"/>
<path id="Fill 10" fill-rule="evenodd" clip-rule="evenodd" d="M83.4536 31.5782C87.0843 31.5782 90.1412 30.3873 92.3704 28.3341L88.0335 24.9725C86.8264 25.7844 85.2717 26.2585 83.4536 26.2585C79.9444 26.2585 76.9659 23.8955 75.9009 20.7112H71.4331V24.1736C73.6474 28.5637 78.1973 31.5782 83.4536 31.5782Z" fill="#34A853"/>
<path id="Fill 12" fill-rule="evenodd" clip-rule="evenodd" d="M75.9009 20.7111C75.6281 19.8992 75.4787 19.0331 75.4787 18.139C75.4787 17.245 75.6281 16.3789 75.9009 15.567V12.1045H71.4332C70.5176 13.9188 70 15.9683 70 18.139C70 20.3098 70.5176 22.3595 71.4332 24.1736L75.9009 20.7111Z" fill="#FABB05"/>
<path id="Fill 14" fill-rule="evenodd" clip-rule="evenodd" d="M83.4536 10.0196C85.4362 10.0196 87.2132 10.7009 88.6146 12.0355V12.0374L92.4545 8.20162C90.1226 6.03271 87.0824 4.7 83.4536 4.7C78.1973 4.7 73.6474 7.71446 71.4331 12.1046L75.9009 15.567C76.9659 12.3827 79.9444 10.0196 83.4536 10.0196Z" fill="#E94235"/>
</g>
</g>
</g>
<path id="Right Text" d="M172.184 13.38C171.288 12.176 169.3 10.272 167.816 8.956L166.052 10.608C167.564 12.008 169.496 13.996 170.364 15.256L172.184 13.38ZM171.4 28.472V17.132H164.484V19.624H168.908V28.92C168.908 30.18 167.956 31.048 167.396 31.44C167.844 31.944 168.46 33.036 168.656 33.624C169.16 33.036 170.084 32.364 176.076 28.248C175.796 27.688 175.46 26.624 175.32 25.896L171.4 28.472ZM189.852 10.748H174.312V13.38H182.32V30.6C182.32 31.132 182.124 31.3 181.592 31.328C180.976 31.328 178.932 31.356 177.028 31.272C177.476 32 177.952 33.288 178.092 34.072C180.696 34.072 182.488 34.016 183.58 33.54C184.7 33.12 185.064 32.252 185.064 30.628V13.38H189.852V10.748ZM199.532 12.624C198.86 11.532 197.376 9.908 196.116 8.788L194.128 10.048C195.36 11.252 196.76 12.932 197.376 14.052L199.532 12.624ZM193.736 34.212H196.284V14.948H193.736V34.212ZM201.38 19.848H208.968V22.732H201.38V19.848ZM208.856 29.704C208.324 29.704 208.24 29.62 208.24 29.004V24.804H211.404V17.776H208.492C209.248 16.656 210.032 15.284 210.788 13.968L208.296 13.352C207.736 14.696 206.728 16.516 205.86 17.776H202.752L204.236 17.048C203.872 16.012 202.92 14.528 201.996 13.408L199.98 14.36C200.792 15.368 201.632 16.768 202.024 17.776H199.084V24.804H201.996C201.604 27.38 200.596 29.34 197.348 30.516C197.824 30.908 198.524 31.86 198.804 32.448C202.612 30.824 203.816 28.248 204.292 24.804H205.972V29.004C205.972 31.104 206.448 31.748 208.52 31.748H210.76C212.328 31.748 212.916 31.02 213.14 28.276C212.524 28.108 211.6 27.772 211.152 27.408C211.068 29.424 210.984 29.704 210.508 29.704H208.856ZM216.864 9.992H201.072V12.288H214.344V31.244C214.344 31.636 214.232 31.748 213.868 31.776C213.532 31.776 212.356 31.776 211.236 31.748C211.572 32.364 211.908 33.428 211.992 34.072C213.756 34.072 214.988 34.016 215.828 33.624C216.612 33.232 216.864 32.56 216.864 31.272V9.992Z" fill="#3C4043"/>
</g>
</svg>
