<svg width="220" height="38" viewBox="0 0 220 38" fill="none" xmlns="http://www.w3.org/2000/svg">
<g id="zh_view_in_Dark">
<path id="Left Text" d="M19.18 23.88H25.144V21.472H19.18V16.432H16.548V21.472H10.556V23.88H16.548V31.104H9.492V33.54H26.208V31.104H19.18V23.88ZM12.236 12.596C12.684 11.448 13.076 10.3 13.44 9.152L10.724 8.48C10.36 9.852 9.94 11.224 9.352 12.596H1.792V15.088H8.232C6.496 18.504 4.116 21.64 1.036 23.74C1.456 24.356 2.044 25.476 2.324 26.176C3.36 25.448 4.34 24.608 5.236 23.74V34.156H7.84V20.716C9.128 18.98 10.22 17.076 11.172 15.088H26.236V12.596H12.236Z" fill="white"/>
<g id="GPay Logo (Dark)">
<g id="GPay">
<g id="Pay">
<path id="Fill 1" fill-rule="evenodd" clip-rule="evenodd" d="M78.5289 9.34665V17.5128H83.5649C84.7645 17.5128 85.7565 17.1096 86.5413 16.3032C87.3467 15.4988 87.7503 14.5394 87.7503 13.4288C87.7503 12.3406 87.3467 11.3924 86.5413 10.586C85.7565 9.75916 84.7645 9.34479 83.5649 9.34479H78.5289V9.34665ZM78.5289 20.3872V29.8599H75.5205V6.47218H83.4993C85.5269 6.47218 87.2478 7.14787 88.6659 8.49738C90.1049 9.84688 90.8241 11.4913 90.8241 13.4288C90.8241 15.411 90.1047 17.0667 88.6659 18.3938C87.2701 19.7227 85.5473 20.3854 83.4993 20.3854H78.5289V20.3872Z" fill="white"/>
<path id="Fill 3" fill-rule="evenodd" clip-rule="evenodd" d="M93.8642 24.9602C93.8642 25.7442 94.1968 26.3975 94.8622 26.9201C95.5272 27.4427 96.3064 27.704 97.1998 27.704C98.4646 27.704 99.5913 27.2354 100.584 26.3004C101.576 25.3634 102.071 24.264 102.071 23.0022C101.133 22.2612 99.8249 21.8916 98.1469 21.8916C96.9251 21.8916 95.9067 22.1866 95.0901 22.7745C94.2734 23.3623 93.8642 24.0886 93.8642 24.9602ZM97.7564 13.3317C99.98 13.3317 101.735 13.9253 103.022 15.1124C104.308 16.2995 104.95 17.9271 104.95 19.9952V29.8599H102.073V27.6387H101.942C100.699 29.4677 99.042 30.3825 96.9718 30.3825C95.206 30.3825 93.7279 29.8599 92.5412 28.8146C91.353 27.7694 90.7588 26.4628 90.7588 24.8949C90.7588 23.2393 91.3846 21.9232 92.6384 20.9434C93.8922 19.9635 95.5648 19.4726 97.6576 19.4726C99.4437 19.4726 100.916 19.7993 102.071 20.4525V19.7657C102.071 18.7204 101.656 17.8338 100.829 17.104C99.9987 16.3742 99.0308 16.0102 97.919 16.0102C96.2391 16.0102 94.9108 16.7176 93.9298 18.1343L91.2799 16.4675C92.7412 14.377 94.8994 13.3317 97.7564 13.3317Z" fill="white"/>
<path id="Fill 5" fill-rule="evenodd" clip-rule="evenodd" d="M121.463 13.8543L111.423 36.9154H108.318L112.046 28.8464L105.44 13.8543H108.71L113.484 25.3522H113.55L118.193 13.8543H121.463Z" fill="white"/>
</g>
<g id="G">
<path id="Fill 8" fill-rule="evenodd" clip-rule="evenodd" d="M66.3729 18.3452C66.3729 17.3989 66.2926 16.4861 66.1412 15.6126H53.4536V20.7885H60.7205C60.4084 22.4757 59.4648 23.9112 58.0335 24.8725V28.2341H62.3704C64.9098 25.8935 66.3729 22.4348 66.3729 18.3452Z" fill="#4285F4"/>
<path id="Fill 10" fill-rule="evenodd" clip-rule="evenodd" d="M53.4536 31.4782C57.0843 31.4782 60.1412 30.2873 62.3704 28.2341L58.0335 24.8725C56.8264 25.6844 55.2717 26.1585 53.4536 26.1585C49.9444 26.1585 46.9659 23.7955 45.9009 20.6112H41.4331V24.0736C43.6474 28.4637 48.1973 31.4782 53.4536 31.4782Z" fill="#34A853"/>
<path id="Fill 12" fill-rule="evenodd" clip-rule="evenodd" d="M45.9009 20.6111C45.6281 19.7992 45.4787 18.9331 45.4787 18.0391C45.4787 17.145 45.6281 16.2789 45.9009 15.467V12.0045H41.4332C40.5176 13.8188 40 15.8683 40 18.0391C40 20.2098 40.5176 22.2595 41.4332 24.0736L45.9009 20.6111Z" fill="#FABB05"/>
<path id="Fill 14" fill-rule="evenodd" clip-rule="evenodd" d="M53.4536 9.91964C55.4362 9.91964 57.2132 10.6009 58.6146 11.9355V11.9374L62.4545 8.10163C60.1226 5.93272 57.0824 4.60001 53.4536 4.60001C48.1973 4.60001 43.6474 7.61447 41.4331 12.0046L45.9009 15.467C46.9659 12.2827 49.9444 9.91964 53.4536 9.91964Z" fill="#E94235"/>
</g>
</g>
</g>
<path id="Right Text" d="M148.288 22.732V15.956H155.568V22.732H148.288ZM138.32 22.732V15.956H145.572V22.732H138.32ZM148.288 13.408V8.536H145.572V13.408H135.716V26.932H138.32V25.28H145.572V34.184H148.288V25.28H155.568V26.792H158.284V13.408H148.288ZM163.372 33.372H187.34V31.048H163.372V33.372ZM180.396 24.104H169.98V22.228H180.396V24.104ZM180.396 27.744H169.98V25.84H180.396V27.744ZM167.404 20.436V29.564H183.084V20.436H167.404ZM187.648 11.868H176.504V8.508H173.928V11.868H162.98V14.136H171.268C169 16.544 165.584 18.7 162.336 19.764C162.868 20.296 163.624 21.248 163.988 21.864C167.684 20.38 171.464 17.692 173.928 14.528V19.596H176.504V14.892C179.892 16.936 183.924 19.708 185.996 21.528L187.648 19.652C185.8 18.084 182.524 15.956 179.556 14.136H187.648V11.868ZM210.572 24.412H199.372V22.816H210.572V24.412ZM199.372 31.188V29.48H210.572V31.188H199.372ZM199.372 26.148H210.572V27.744H199.372V26.148ZM215.864 19.176V17.104H201.612C201.864 16.572 202.116 15.984 202.34 15.424H214.296V13.38H203.04C203.236 12.792 203.432 12.232 203.6 11.644C207.492 11.42 211.216 11.056 214.1 10.552L212.532 8.676C207.996 9.516 199.736 9.908 192.96 9.936C193.212 10.468 193.436 11.336 193.464 11.924C195.788 11.924 198.252 11.868 200.716 11.784C200.576 12.316 200.436 12.848 200.24 13.38H193.324V15.424H199.54C199.288 15.984 199.036 16.572 198.756 17.104H191.336V19.176H197.636C195.928 22.004 193.604 24.468 190.58 26.176C191.084 26.652 191.84 27.604 192.176 28.22C193.968 27.184 195.536 25.896 196.88 24.468V34.296H199.372V33.232H210.572V34.296H213.176V20.8H199.68C200.016 20.268 200.296 19.736 200.604 19.176H215.864Z" fill="white"/>
</g>
</svg>
