<svg width="220" height="38" viewBox="0 0 220 38" fill="none" xmlns="http://www.w3.org/2000/svg">
<g id="zh_view_in_Light">
<path id="Left Text" d="M19.18 23.88H25.144V21.472H19.18V16.432H16.548V21.472H10.556V23.88H16.548V31.104H9.492V33.54H26.208V31.104H19.18V23.88ZM12.236 12.596C12.684 11.448 13.076 10.3 13.44 9.152L10.724 8.48C10.36 9.852 9.94 11.224 9.352 12.596H1.792V15.088H8.232C6.496 18.504 4.116 21.64 1.036 23.74C1.456 24.356 2.044 25.476 2.324 26.176C3.36 25.448 4.34 24.608 5.236 23.74V34.156H7.84V20.716C9.128 18.98 10.22 17.076 11.172 15.088H26.236V12.596H12.236Z" fill="#3C4043"/>
<g id="GPay Logo (Light)">
<g id="GPay">
<g id="Pay">
<path id="Fill 1" fill-rule="evenodd" clip-rule="evenodd" d="M78.5289 9.44664V17.6128H83.5649C84.7645 17.6128 85.7565 17.2096 86.5413 16.4032C87.3467 15.5988 87.7503 14.6394 87.7503 13.5288C87.7503 12.4406 87.3467 11.4924 86.5413 10.686C85.7565 9.85915 84.7645 9.44478 83.5649 9.44478H78.5289V9.44664ZM78.5289 20.4872V29.9599H75.5205V6.57217H83.4993C85.5269 6.57217 87.2478 7.24786 88.6659 8.59737C90.1049 9.94688 90.8241 11.5913 90.8241 13.5288C90.8241 15.511 90.1047 17.1667 88.6659 18.4938C87.2701 19.8227 85.5473 20.4854 83.4993 20.4854H78.5289V20.4872Z" fill="#5F6368"/>
<path id="Fill 3" fill-rule="evenodd" clip-rule="evenodd" d="M93.8642 25.0602C93.8642 25.8442 94.1968 26.4975 94.8622 27.0201C95.5272 27.5427 96.3064 27.804 97.1998 27.804C98.4646 27.804 99.5913 27.3354 100.584 26.4004C101.576 25.4634 102.071 24.364 102.071 23.1022C101.133 22.3612 99.8249 21.9916 98.1469 21.9916C96.9251 21.9916 95.9067 22.2865 95.0901 22.8745C94.2734 23.4623 93.8642 24.1886 93.8642 25.0602ZM97.7564 13.4317C99.98 13.4317 101.735 14.0252 103.022 15.2124C104.308 16.3995 104.95 18.0271 104.95 20.0952V29.9599H102.073V27.7387H101.942C100.699 29.5677 99.042 30.4825 96.9718 30.4825C95.206 30.4825 93.7279 29.9599 92.5412 28.9146C91.353 27.8694 90.7588 26.5628 90.7588 24.9949C90.7588 23.3393 91.3846 22.0232 92.6384 21.0434C93.8922 20.0635 95.5648 19.5726 97.6576 19.5726C99.4437 19.5726 100.916 19.8992 102.071 20.5525V19.8656C102.071 18.8204 101.656 17.9338 100.829 17.204C99.9987 16.4741 99.0308 16.1102 97.919 16.1102C96.2391 16.1102 94.9108 16.8176 93.9298 18.2343L91.2799 16.5675C92.7412 14.4769 94.8994 13.4317 97.7564 13.4317Z" fill="#5F6368"/>
<path id="Fill 5" fill-rule="evenodd" clip-rule="evenodd" d="M121.463 13.9543L111.423 37.0154H108.318L112.046 28.9464L105.44 13.9543H108.71L113.484 25.4522H113.55L118.193 13.9543H121.463Z" fill="#5F6368"/>
</g>
<g id="G">
<path id="Fill 8" fill-rule="evenodd" clip-rule="evenodd" d="M66.3729 18.4452C66.3729 17.4989 66.2926 16.5861 66.1412 15.7126H53.4536V20.8885H60.7205C60.4084 22.5757 59.4648 24.0112 58.0335 24.9725V28.3341H62.3704C64.9098 25.9935 66.3729 22.5348 66.3729 18.4452Z" fill="#4285F4"/>
<path id="Fill 10" fill-rule="evenodd" clip-rule="evenodd" d="M53.4536 31.5782C57.0843 31.5782 60.1412 30.3873 62.3704 28.3341L58.0335 24.9725C56.8264 25.7844 55.2717 26.2585 53.4536 26.2585C49.9444 26.2585 46.9659 23.8955 45.9009 20.7112H41.4331V24.1736C43.6474 28.5637 48.1973 31.5782 53.4536 31.5782Z" fill="#34A853"/>
<path id="Fill 12" fill-rule="evenodd" clip-rule="evenodd" d="M45.9009 20.7111C45.6281 19.8992 45.4787 19.0331 45.4787 18.139C45.4787 17.245 45.6281 16.3789 45.9009 15.567V12.1045H41.4332C40.5176 13.9188 40 15.9683 40 18.139C40 20.3098 40.5176 22.3595 41.4332 24.1736L45.9009 20.7111Z" fill="#FABB05"/>
<path id="Fill 14" fill-rule="evenodd" clip-rule="evenodd" d="M53.4536 10.0196C55.4362 10.0196 57.2132 10.7009 58.6146 12.0355V12.0374L62.4545 8.20162C60.1226 6.03271 57.0824 4.7 53.4536 4.7C48.1973 4.7 43.6474 7.71446 41.4331 12.1046L45.9009 15.567C46.9659 12.3827 49.9444 10.0196 53.4536 10.0196Z" fill="#E94235"/>
</g>
</g>
</g>
<path id="Right Text" d="M148.288 22.732V15.956H155.568V22.732H148.288ZM138.32 22.732V15.956H145.572V22.732H138.32ZM148.288 13.408V8.536H145.572V13.408H135.716V26.932H138.32V25.28H145.572V34.184H148.288V25.28H155.568V26.792H158.284V13.408H148.288ZM163.372 33.372H187.34V31.048H163.372V33.372ZM180.396 24.104H169.98V22.228H180.396V24.104ZM180.396 27.744H169.98V25.84H180.396V27.744ZM167.404 20.436V29.564H183.084V20.436H167.404ZM187.648 11.868H176.504V8.508H173.928V11.868H162.98V14.136H171.268C169 16.544 165.584 18.7 162.336 19.764C162.868 20.296 163.624 21.248 163.988 21.864C167.684 20.38 171.464 17.692 173.928 14.528V19.596H176.504V14.892C179.892 16.936 183.924 19.708 185.996 21.528L187.648 19.652C185.8 18.084 182.524 15.956 179.556 14.136H187.648V11.868ZM210.572 24.412H199.372V22.816H210.572V24.412ZM199.372 31.188V29.48H210.572V31.188H199.372ZM199.372 26.148H210.572V27.744H199.372V26.148ZM215.864 19.176V17.104H201.612C201.864 16.572 202.116 15.984 202.34 15.424H214.296V13.38H203.04C203.236 12.792 203.432 12.232 203.6 11.644C207.492 11.42 211.216 11.056 214.1 10.552L212.532 8.676C207.996 9.516 199.736 9.908 192.96 9.936C193.212 10.468 193.436 11.336 193.464 11.924C195.788 11.924 198.252 11.868 200.716 11.784C200.576 12.316 200.436 12.848 200.24 13.38H193.324V15.424H199.54C199.288 15.984 199.036 16.572 198.756 17.104H191.336V19.176H197.636C195.928 22.004 193.604 24.468 190.58 26.176C191.084 26.652 191.84 27.604 192.176 28.22C193.968 27.184 195.536 25.896 196.88 24.468V34.296H199.372V33.232H210.572V34.296H213.176V20.8H199.68C200.016 20.268 200.296 19.736 200.604 19.176H215.864Z" fill="#3C4043"/>
</g>
</svg>
