<svg width="169" height="21" viewBox="0 0 169 21" fill="none" xmlns="http://www.w3.org/2000/svg">
<g id="nl_add_to_Pay_NBG">
<path id="Left Text" d="M4.34762 15.0006V5.20861H1.13162V3.54461H9.29162V5.20861H6.09162V15.0006H4.34762ZM13.4167 15.2566C12.5741 15.2566 11.8327 15.0646 11.1927 14.6806C10.5527 14.2966 10.0514 13.7793 9.68875 13.1286C9.32608 12.4673 9.14475 11.7313 9.14475 10.9206C9.14475 10.1099 9.32608 9.37928 9.68875 8.72861C10.0514 8.06728 10.5527 7.54461 11.1927 7.16061C11.8327 6.77661 12.5741 6.58461 13.4167 6.58461C14.2487 6.58461 14.9847 6.78194 15.6247 7.17661C16.2647 7.56061 16.7661 8.07794 17.1287 8.72861C17.4914 9.37928 17.6727 10.1099 17.6727 10.9206C17.6727 11.7313 17.4914 12.4673 17.1287 13.1286C16.7661 13.7793 16.2647 14.2966 15.6247 14.6806C14.9847 15.0646 14.2487 15.2566 13.4167 15.2566ZM13.4167 13.6726C13.8647 13.6726 14.2807 13.5659 14.6647 13.3526C15.0487 13.1286 15.3581 12.8139 15.5927 12.4086C15.8381 11.9926 15.9607 11.4966 15.9607 10.9206C15.9607 10.3446 15.8381 9.85394 15.5927 9.44861C15.3581 9.03261 15.0487 8.71794 14.6647 8.50461C14.2807 8.28061 13.8647 8.16861 13.4167 8.16861C12.9687 8.16861 12.5474 8.28061 12.1527 8.50461C11.7687 8.71794 11.4541 9.03261 11.2087 9.44861C10.9741 9.85394 10.8567 10.3446 10.8567 10.9206C10.8567 11.4966 10.9741 11.9926 11.2087 12.4086C11.4541 12.8139 11.7741 13.1286 12.1687 13.3526C12.5634 13.5659 12.9794 13.6726 13.4167 13.6726ZM23.1422 15.2566C22.3422 15.2566 21.6276 15.0699 20.9982 14.6966C20.3689 14.3233 19.8729 13.8113 19.5102 13.1606C19.1582 12.5099 18.9822 11.7686 18.9822 10.9366C18.9822 10.1579 19.1529 9.43794 19.4942 8.77661C19.8356 8.11528 20.3102 7.58728 20.9182 7.19261C21.5369 6.78728 22.2462 6.58461 23.0462 6.58461C23.8889 6.58461 24.6036 6.76594 25.1902 7.12861C25.7876 7.49128 26.2409 7.98728 26.5502 8.61661C26.8596 9.24594 27.0142 9.95528 27.0142 10.7446C27.0142 10.8619 27.0089 10.9686 26.9982 11.0646C26.9982 11.1606 26.9929 11.2353 26.9822 11.2886H20.6782C20.7209 11.7366 20.8329 12.1259 21.0142 12.4566C21.2489 12.8726 21.5582 13.1873 21.9422 13.4006C22.3262 13.6139 22.7422 13.7206 23.1902 13.7206C23.7342 13.7206 24.1876 13.5979 24.5502 13.3526C24.9236 13.0966 25.2169 12.7819 25.4302 12.4086L26.8542 13.0966C26.5022 13.7366 26.0222 14.2593 25.4142 14.6646C24.8062 15.0593 24.0489 15.2566 23.1422 15.2566ZM20.7742 9.99261H25.3022C25.2916 9.78994 25.2382 9.57661 25.1422 9.35261C25.0462 9.11794 24.9076 8.90461 24.7262 8.71261C24.5449 8.52061 24.3156 8.36594 24.0382 8.24861C23.7609 8.12061 23.4356 8.05661 23.0622 8.05661C22.5929 8.05661 22.1769 8.17928 21.8142 8.42461C21.4516 8.65928 21.1689 8.98994 20.9662 9.41661C20.8809 9.59794 20.8169 9.78994 20.7742 9.99261ZM31.0911 15.0006L27.7151 6.84061H29.6351L31.9231 12.7766H32.0031L34.3391 6.84061H36.2271L32.8191 15.0006H31.0911ZM41.1011 15.2566C40.2585 15.2566 39.5171 15.0646 38.8771 14.6806C38.2371 14.2966 37.7358 13.7793 37.3731 13.1286C37.0105 12.4673 36.8291 11.7313 36.8291 10.9206C36.8291 10.1099 37.0105 9.37928 37.3731 8.72861C37.7358 8.06728 38.2371 7.54461 38.8771 7.16061C39.5171 6.77661 40.2585 6.58461 41.1011 6.58461C41.9331 6.58461 42.6691 6.78194 43.3091 7.17661C43.9491 7.56061 44.4505 8.07794 44.8131 8.72861C45.1758 9.37928 45.3571 10.1099 45.3571 10.9206C45.3571 11.7313 45.1758 12.4673 44.8131 13.1286C44.4505 13.7793 43.9491 14.2966 43.3091 14.6806C42.6691 15.0646 41.9331 15.2566 41.1011 15.2566ZM41.1011 13.6726C41.5491 13.6726 41.9651 13.5659 42.3491 13.3526C42.7331 13.1286 43.0425 12.8139 43.2771 12.4086C43.5225 11.9926 43.6451 11.4966 43.6451 10.9206C43.6451 10.3446 43.5225 9.85394 43.2771 9.44861C43.0425 9.03261 42.7331 8.71794 42.3491 8.50461C41.9651 8.28061 41.5491 8.16861 41.1011 8.16861C40.6531 8.16861 40.2318 8.28061 39.8371 8.50461C39.4531 8.71794 39.1385 9.03261 38.8931 9.44861C38.6585 9.85394 38.5411 10.3446 38.5411 10.9206C38.5411 11.4966 38.6585 11.9926 38.8931 12.4086C39.1385 12.8139 39.4585 13.1286 39.8531 13.3526C40.2478 13.5659 40.6638 13.6726 41.1011 13.6726ZM50.8266 15.2566C50.0266 15.2566 49.312 15.0699 48.6826 14.6966C48.0533 14.3233 47.5573 13.8113 47.1946 13.1606C46.8426 12.5099 46.6666 11.7686 46.6666 10.9366C46.6666 10.1579 46.8373 9.43794 47.1786 8.77661C47.52 8.11528 47.9946 7.58728 48.6026 7.19261C49.2213 6.78728 49.9306 6.58461 50.7306 6.58461C51.5733 6.58461 52.288 6.76594 52.8746 7.12861C53.472 7.49128 53.9253 7.98728 54.2346 8.61661C54.544 9.24594 54.6986 9.95528 54.6986 10.7446C54.6986 10.8619 54.6933 10.9686 54.6826 11.0646C54.6826 11.1606 54.6773 11.2353 54.6666 11.2886H48.3626C48.4053 11.7366 48.5173 12.1259 48.6986 12.4566C48.9333 12.8726 49.2426 13.1873 49.6266 13.4006C50.0106 13.6139 50.4266 13.7206 50.8746 13.7206C51.4186 13.7206 51.872 13.5979 52.2346 13.3526C52.608 13.0966 52.9013 12.7819 53.1146 12.4086L54.5386 13.0966C54.1866 13.7366 53.7066 14.2593 53.0986 14.6646C52.4906 15.0593 51.7333 15.2566 50.8266 15.2566ZM48.4586 9.99261H52.9866C52.976 9.78994 52.9226 9.57661 52.8266 9.35261C52.7306 9.11794 52.592 8.90461 52.4106 8.71261C52.2293 8.52061 52 8.36594 51.7226 8.24861C51.4453 8.12061 51.12 8.05661 50.7466 8.05661C50.2773 8.05661 49.8613 8.17928 49.4986 8.42461C49.136 8.65928 48.8533 8.98994 48.6506 9.41661C48.5653 9.59794 48.5013 9.78994 48.4586 9.99261ZM60.2099 18.7126C59.4952 18.7126 58.8765 18.5953 58.3539 18.3606C57.8419 18.1366 57.4259 17.8433 57.1059 17.4806C56.7859 17.1286 56.5565 16.7659 56.4179 16.3926L58.0179 15.7206C58.1885 16.1473 58.4605 16.4939 58.8339 16.7606C59.2179 17.0379 59.6765 17.1766 60.2099 17.1766C60.9672 17.1766 61.5592 16.9526 61.9859 16.5046C62.4125 16.0566 62.6259 15.4219 62.6259 14.6006V13.8166H62.5299C62.2739 14.1899 61.9219 14.4939 61.4739 14.7286C61.0259 14.9633 60.5085 15.0806 59.9219 15.0806C59.2285 15.0806 58.5885 14.9046 58.0019 14.5526C57.4259 14.2006 56.9619 13.7099 56.6099 13.0806C56.2685 12.4406 56.0979 11.6939 56.0979 10.8406C56.0979 9.97661 56.2685 9.22994 56.6099 8.60061C56.9619 7.96061 57.4259 7.46461 58.0019 7.11261C58.5885 6.76061 59.2285 6.58461 59.9219 6.58461C60.5085 6.58461 61.0259 6.70194 61.4739 6.93661C61.9219 7.16061 62.2739 7.46994 62.5299 7.86461H62.6259V6.84061H64.2739V14.5686C64.2739 15.4539 64.0979 16.2059 63.7459 16.8246C63.4045 17.4433 62.9299 17.9126 62.3219 18.2326C61.7139 18.5526 61.0099 18.7126 60.2099 18.7126ZM60.2259 13.5126C60.6525 13.5126 61.0472 13.4113 61.4099 13.2086C61.7832 12.9953 62.0765 12.6913 62.2899 12.2966C62.5139 11.8913 62.6259 11.4059 62.6259 10.8406C62.6259 10.2433 62.5139 9.74728 62.2899 9.35261C62.0765 8.95794 61.7832 8.65928 61.4099 8.45661C61.0472 8.25394 60.6525 8.15261 60.2259 8.15261C59.7992 8.15261 59.3992 8.25394 59.0259 8.45661C58.6632 8.65928 58.3699 8.96328 58.1459 9.36861C57.9219 9.76328 57.8099 10.2539 57.8099 10.8406C57.8099 11.4166 57.9219 11.9073 58.1459 12.3126C58.3699 12.7073 58.6632 13.0059 59.0259 13.2086C59.3992 13.4113 59.7992 13.5126 60.2259 13.5126ZM70.0954 15.2566C69.2954 15.2566 68.5807 15.0699 67.9514 14.6966C67.322 14.3233 66.826 13.8113 66.4634 13.1606C66.1114 12.5099 65.9354 11.7686 65.9354 10.9366C65.9354 10.1579 66.106 9.43794 66.4474 8.77661C66.7887 8.11528 67.2634 7.58728 67.8714 7.19261C68.49 6.78728 69.1994 6.58461 69.9994 6.58461C70.842 6.58461 71.5567 6.76594 72.1434 7.12861C72.7407 7.49128 73.194 7.98728 73.5034 8.61661C73.8127 9.24594 73.9674 9.95528 73.9674 10.7446C73.9674 10.8619 73.962 10.9686 73.9514 11.0646C73.9514 11.1606 73.946 11.2353 73.9354 11.2886H67.6314C67.674 11.7366 67.786 12.1259 67.9674 12.4566C68.202 12.8726 68.5114 13.1873 68.8954 13.4006C69.2794 13.6139 69.6954 13.7206 70.1434 13.7206C70.6874 13.7206 71.1407 13.5979 71.5034 13.3526C71.8767 13.0966 72.17 12.7819 72.3834 12.4086L73.8074 13.0966C73.4554 13.7366 72.9754 14.2593 72.3674 14.6646C71.7594 15.0593 71.002 15.2566 70.0954 15.2566ZM67.7274 9.99261H72.2554C72.2447 9.78994 72.1914 9.57661 72.0954 9.35261C71.9994 9.11794 71.8607 8.90461 71.6794 8.71261C71.498 8.52061 71.2687 8.36594 70.9914 8.24861C70.714 8.12061 70.3887 8.05661 70.0154 8.05661C69.546 8.05661 69.13 8.17928 68.7674 8.42461C68.4047 8.65928 68.122 8.98994 67.9194 9.41661C67.834 9.59794 67.77 9.78994 67.7274 9.99261ZM75.7205 15.0006V6.84061H77.3525V7.96061H77.4485C77.6832 7.56594 78.0298 7.24061 78.4885 6.98461C78.9578 6.71794 79.4698 6.58461 80.0245 6.58461C81.0272 6.58461 81.7792 6.88328 82.2805 7.48061C82.7818 8.06728 83.0325 8.85661 83.0325 9.84861V15.0006H81.3205V10.0726C81.3205 9.41128 81.1552 8.93128 80.8245 8.63261C80.4938 8.32328 80.0618 8.16861 79.5285 8.16861C79.1125 8.16861 78.7498 8.28594 78.4405 8.52061C78.1312 8.74461 77.8858 9.04328 77.7045 9.41661C77.5338 9.78994 77.4485 10.1899 77.4485 10.6166V15.0006H75.7205ZM91.5961 15.2566C91.0095 15.2566 90.4868 15.1393 90.0281 14.9046C89.5801 14.6699 89.2228 14.3499 88.9561 13.9446C88.7001 13.5286 88.5721 13.0539 88.5721 12.5206C88.5721 11.9339 88.7215 11.4379 89.0201 11.0326C89.3295 10.6273 89.7401 10.3179 90.2521 10.1046C90.7641 9.89128 91.3295 9.78461 91.9481 9.78461C92.2895 9.78461 92.6041 9.81128 92.8921 9.86461C93.1908 9.90728 93.4468 9.96061 93.6601 10.0246C93.8841 10.0886 94.0601 10.1579 94.1881 10.2326V9.80061C94.1881 9.26728 93.9961 8.84061 93.6121 8.52061C93.2281 8.20061 92.7321 8.04061 92.1241 8.04061C91.7081 8.04061 91.3135 8.13661 90.9401 8.32861C90.5668 8.50994 90.2681 8.76061 90.0441 9.08061L88.8601 8.16861C89.0948 7.83794 89.3775 7.55528 89.7081 7.32061C90.0495 7.08594 90.4281 6.90461 90.8441 6.77661C91.2708 6.64861 91.7135 6.58461 92.1721 6.58461C93.3561 6.58461 94.2681 6.87794 94.9081 7.46461C95.5481 8.04061 95.8681 8.85128 95.8681 9.89661V15.0006H94.1881V13.9926H94.0921C93.9535 14.2059 93.7615 14.4086 93.5161 14.6006C93.2815 14.7926 92.9988 14.9473 92.6681 15.0646C92.3481 15.1926 91.9908 15.2566 91.5961 15.2566ZM91.9001 13.8486C92.3481 13.8486 92.7428 13.7419 93.0841 13.5286C93.4361 13.3153 93.7081 13.0379 93.9001 12.6966C94.0921 12.3446 94.1881 11.9659 94.1881 11.5606C93.9535 11.4219 93.6655 11.3099 93.3241 11.2246C92.9935 11.1286 92.6415 11.0806 92.2681 11.0806C91.5641 11.0806 91.0628 11.2193 90.7641 11.4966C90.4655 11.7739 90.3161 12.1206 90.3161 12.5366C90.3161 12.9206 90.4601 13.2353 90.7481 13.4806C91.0361 13.7259 91.4201 13.8486 91.9001 13.8486ZM100.402 15.2566C99.8157 15.2566 99.293 15.1393 98.8344 14.9046C98.3864 14.6699 98.029 14.3499 97.7624 13.9446C97.5064 13.5286 97.3784 13.0539 97.3784 12.5206C97.3784 11.9339 97.5277 11.4379 97.8264 11.0326C98.1357 10.6273 98.5464 10.3179 99.0584 10.1046C99.5704 9.89128 100.136 9.78461 100.754 9.78461C101.096 9.78461 101.41 9.81128 101.698 9.86461C101.997 9.90728 102.253 9.96061 102.466 10.0246C102.69 10.0886 102.866 10.1579 102.994 10.2326V9.80061C102.994 9.26728 102.802 8.84061 102.418 8.52061C102.034 8.20061 101.538 8.04061 100.93 8.04061C100.514 8.04061 100.12 8.13661 99.7464 8.32861C99.373 8.50994 99.0744 8.76061 98.8504 9.08061L97.6664 8.16861C97.901 7.83794 98.1837 7.55528 98.5144 7.32061C98.8557 7.08594 99.2344 6.90461 99.6504 6.77661C100.077 6.64861 100.52 6.58461 100.978 6.58461C102.162 6.58461 103.074 6.87794 103.714 7.46461C104.354 8.04061 104.674 8.85128 104.674 9.89661V15.0006H102.994V13.9926H102.898C102.76 14.2059 102.568 14.4086 102.322 14.6006C102.088 14.7926 101.805 14.9473 101.474 15.0646C101.154 15.1926 100.797 15.2566 100.402 15.2566ZM100.706 13.8486C101.154 13.8486 101.549 13.7419 101.89 13.5286C102.242 13.3153 102.514 13.0379 102.706 12.6966C102.898 12.3446 102.994 11.9659 102.994 11.5606C102.76 11.4219 102.472 11.3099 102.13 11.2246C101.8 11.1286 101.448 11.0806 101.074 11.0806C100.37 11.0806 99.869 11.2193 99.5704 11.4966C99.2717 11.7739 99.1224 12.1206 99.1224 12.5366C99.1224 12.9206 99.2664 13.2353 99.5544 13.4806C99.8424 13.7259 100.226 13.8486 100.706 13.8486ZM106.727 15.0006V6.84061H108.359V7.96061H108.455C108.689 7.56594 109.036 7.24061 109.495 6.98461C109.964 6.71794 110.476 6.58461 111.031 6.58461C112.033 6.58461 112.785 6.88328 113.287 7.48061C113.788 8.06728 114.039 8.85661 114.039 9.84861V15.0006H112.327V10.0726C112.327 9.41128 112.161 8.93128 111.831 8.63261C111.5 8.32328 111.068 8.16861 110.535 8.16861C110.119 8.16861 109.756 8.28594 109.447 8.52061C109.137 8.74461 108.892 9.04328 108.711 9.41661C108.54 9.78994 108.455 10.1899 108.455 10.6166V15.0006H106.727Z" fill="white"/>
<g id="GPay (Dark)">
<g id="GPay">
<g id="Pay">
<path id="Fill 1" fill-rule="evenodd" clip-rule="evenodd" d="M143.356 3.42339V8.16175H146.278C146.974 8.16175 147.55 7.92781 148.005 7.45993C148.473 6.99313 148.707 6.43644 148.707 5.79203C148.707 5.16061 148.473 4.61041 148.005 4.14254C147.55 3.66274 146.974 3.4223 146.278 3.4223H143.356V3.42339ZM143.356 9.82966V15.3262H141.611V1.75549H146.24C147.417 1.75549 148.415 2.14756 149.238 2.93061C150.073 3.71365 150.491 4.66782 150.491 5.79203C150.491 6.94224 150.073 7.90291 149.238 8.67296C148.428 9.44409 147.429 9.82858 146.24 9.82858H143.356V9.82966Z" fill="white"/>
<path id="Fill 3" fill-rule="evenodd" clip-rule="evenodd" d="M152.255 12.4831C152.255 12.9379 152.448 13.317 152.834 13.6203C153.22 13.9235 153.672 14.0752 154.19 14.0752C154.924 14.0752 155.578 13.8032 156.153 13.2607C156.729 12.717 157.017 12.0791 157.017 11.3469C156.472 10.917 155.713 10.7025 154.74 10.7025C154.031 10.7025 153.44 10.8736 152.966 11.2148C152.492 11.5559 152.255 11.9773 152.255 12.4831M154.513 5.73566C155.803 5.73566 156.821 6.08007 157.569 6.76889C158.314 7.45771 158.687 8.40213 158.687 9.60216V15.3261H157.018V14.0373H156.942C156.221 15.0985 155.259 15.6294 154.058 15.6294C153.033 15.6294 152.176 15.3261 151.487 14.7196C150.797 14.1131 150.453 13.3549 150.453 12.4452C150.453 11.4845 150.816 10.7208 151.543 10.1523C152.271 9.58375 153.241 9.2989 154.456 9.2989C155.492 9.2989 156.346 9.48844 157.017 9.86751V9.46894C157.017 8.86243 156.776 8.34798 156.296 7.92451C155.814 7.50103 155.252 7.28984 154.607 7.28984C153.633 7.28984 152.862 7.70032 152.293 8.52235L150.755 7.55519C151.603 6.34217 152.855 5.73566 154.513 5.73566" fill="white"/>
<path id="Fill 5" fill-rule="evenodd" clip-rule="evenodd" d="M168.269 6.03894L162.443 19.4201H160.641L162.804 14.738L158.971 6.03894H160.869L163.639 12.7106H163.677L166.371 6.03894H168.269Z" fill="white"/>
</g>
<g id="G">
<path id="Fill 8" fill-rule="evenodd" clip-rule="evenodd" d="M136.303 8.64473C136.303 8.09563 136.256 7.56601 136.168 7.05914H128.806V10.0625H133.023C132.842 11.0414 132.294 11.8744 131.464 12.4322V14.3828H133.98C135.454 13.0246 136.303 11.0177 136.303 8.64473" fill="#4285F4"/>
<path id="Fill 10" fill-rule="evenodd" clip-rule="evenodd" d="M128.806 16.2651C130.913 16.2651 132.687 15.5741 133.98 14.3828L131.464 12.4322C130.763 12.9033 129.861 13.1784 128.806 13.1784C126.77 13.1784 125.042 11.8073 124.424 9.95959H121.832V11.9687C123.116 14.516 125.757 16.2651 128.806 16.2651" fill="#34A853"/>
<path id="Fill 12" fill-rule="evenodd" clip-rule="evenodd" d="M124.424 9.9596C124.266 9.48847 124.179 8.98593 124.179 8.46715C124.179 7.94837 124.266 7.44583 124.424 6.9747V4.96564H121.832C121.3 6.01837 121 7.20756 121 8.46715C121 9.72674 121.3 10.916 121.832 11.9687L124.424 9.9596Z" fill="#FABB05"/>
<path id="Fill 14" fill-rule="evenodd" clip-rule="evenodd" d="M128.806 3.75583C129.957 3.75583 130.988 4.15115 131.801 4.92553V4.92661L134.029 2.70094C132.676 1.44243 130.912 0.669128 128.806 0.669128C125.757 0.669128 123.116 2.41826 121.832 4.9656L124.424 6.97467C125.042 5.12698 126.77 3.75583 128.806 3.75583" fill="#E94235"/>
</g>
</g>
</g>
</g>
</svg>
