<svg width="145" height="21" viewBox="0 0 145 21" fill="none" xmlns="http://www.w3.org/2000/svg">
<g id="nl_book_with_Pay_NBG">
<path id="Left Text" d="M2.05538 15.0006V3.54461H6.34338C6.97271 3.54461 7.54338 3.67794 8.05538 3.94461C8.56738 4.21128 8.97271 4.57394 9.27138 5.03261C9.58071 5.49128 9.73538 6.00861 9.73538 6.58461C9.73538 7.17128 9.59138 7.67261 9.30338 8.08861C9.01538 8.50461 8.64204 8.81928 8.18338 9.03261V9.11261C8.75938 9.30461 9.22871 9.63528 9.59138 10.1046C9.95404 10.5739 10.1354 11.1339 10.1354 11.7846C10.1354 12.4246 9.97004 12.9846 9.63938 13.4646C9.31938 13.9446 8.88204 14.3233 8.32738 14.6006C7.78338 14.8673 7.18604 15.0006 6.53538 15.0006H2.05538ZM3.81538 9.92861V13.3686H6.53538C6.91938 13.3686 7.25004 13.2886 7.52738 13.1286C7.80471 12.9686 8.01271 12.7553 8.15138 12.4886C8.30071 12.2219 8.37538 11.9446 8.37538 11.6566C8.37538 11.3473 8.30071 11.0646 8.15138 10.8086C8.00204 10.5419 7.78338 10.3286 7.49538 10.1686C7.21804 10.0086 6.87671 9.92861 6.47138 9.92861H3.81538ZM3.81538 8.36061H6.26338C6.63671 8.36061 6.95138 8.28594 7.20738 8.13661C7.47404 7.97661 7.67671 7.77394 7.81538 7.52861C7.95404 7.27261 8.02338 7.01128 8.02338 6.74461C8.02338 6.47794 7.95404 6.22728 7.81538 5.99261C7.68738 5.74728 7.49538 5.54994 7.23938 5.40061C6.98338 5.24061 6.67938 5.16061 6.32738 5.16061H3.81538V8.36061ZM15.773 15.2566C14.9303 15.2566 14.189 15.0646 13.549 14.6806C12.909 14.2966 12.4077 13.7793 12.045 13.1286C11.6823 12.4673 11.501 11.7313 11.501 10.9206C11.501 10.1099 11.6823 9.37928 12.045 8.72861C12.4077 8.06728 12.909 7.54461 13.549 7.16061C14.189 6.77661 14.9303 6.58461 15.773 6.58461C16.605 6.58461 17.341 6.78194 17.981 7.17661C18.621 7.56061 19.1223 8.07794 19.485 8.72861C19.8477 9.37928 20.029 10.1099 20.029 10.9206C20.029 11.7313 19.8477 12.4673 19.485 13.1286C19.1223 13.7793 18.621 14.2966 17.981 14.6806C17.341 15.0646 16.605 15.2566 15.773 15.2566ZM15.773 13.6726C16.221 13.6726 16.637 13.5659 17.021 13.3526C17.405 13.1286 17.7143 12.8139 17.949 12.4086C18.1943 11.9926 18.317 11.4966 18.317 10.9206C18.317 10.3446 18.1943 9.85394 17.949 9.44861C17.7143 9.03261 17.405 8.71794 17.021 8.50461C16.637 8.28061 16.221 8.16861 15.773 8.16861C15.325 8.16861 14.9037 8.28061 14.509 8.50461C14.125 8.71794 13.8103 9.03261 13.565 9.44861C13.3303 9.85394 13.213 10.3446 13.213 10.9206C13.213 11.4966 13.3303 11.9926 13.565 12.4086C13.8103 12.8139 14.1303 13.1286 14.525 13.3526C14.9197 13.5659 15.3357 13.6726 15.773 13.6726ZM25.4985 15.2566C24.6985 15.2566 23.9838 15.0699 23.3545 14.6966C22.7252 14.3233 22.2292 13.8113 21.8665 13.1606C21.5145 12.5099 21.3385 11.7686 21.3385 10.9366C21.3385 10.1579 21.5092 9.43794 21.8505 8.77661C22.1918 8.11528 22.6665 7.58728 23.2745 7.19261C23.8932 6.78728 24.6025 6.58461 25.4025 6.58461C26.2452 6.58461 26.9598 6.76594 27.5465 7.12861C28.1438 7.49128 28.5972 7.98728 28.9065 8.61661C29.2158 9.24594 29.3705 9.95528 29.3705 10.7446C29.3705 10.8619 29.3652 10.9686 29.3545 11.0646C29.3545 11.1606 29.3492 11.2353 29.3385 11.2886H23.0345C23.0772 11.7366 23.1892 12.1259 23.3705 12.4566C23.6052 12.8726 23.9145 13.1873 24.2985 13.4006C24.6825 13.6139 25.0985 13.7206 25.5465 13.7206C26.0905 13.7206 26.5438 13.5979 26.9065 13.3526C27.2798 13.0966 27.5732 12.7819 27.7865 12.4086L29.2105 13.0966C28.8585 13.7366 28.3785 14.2593 27.7705 14.6646C27.1625 15.0593 26.4052 15.2566 25.4985 15.2566ZM23.1305 9.99261H27.6585C27.6478 9.78994 27.5945 9.57661 27.4985 9.35261C27.4025 9.11794 27.2638 8.90461 27.0825 8.71261C26.9012 8.52061 26.6718 8.36594 26.3945 8.24861C26.1172 8.12061 25.7918 8.05661 25.4185 8.05661C24.9492 8.05661 24.5332 8.17928 24.1705 8.42461C23.8078 8.65928 23.5252 8.98994 23.3225 9.41661C23.2372 9.59794 23.1732 9.78994 23.1305 9.99261ZM31.1236 15.0006V3.54461H32.8516V10.2966L36.3076 6.84061H38.4516V6.93661L35.2996 10.0566L38.5636 14.9046V15.0006H36.5156L34.0836 11.2566L32.8516 12.4726V15.0006H31.1236ZM43.2829 15.2566C42.4829 15.2566 41.7682 15.0699 41.1389 14.6966C40.5095 14.3233 40.0135 13.8113 39.6509 13.1606C39.2989 12.5099 39.1229 11.7686 39.1229 10.9366C39.1229 10.1579 39.2935 9.43794 39.6349 8.77661C39.9762 8.11528 40.4509 7.58728 41.0589 7.19261C41.6775 6.78728 42.3869 6.58461 43.1869 6.58461C44.0295 6.58461 44.7442 6.76594 45.3309 7.12861C45.9282 7.49128 46.3815 7.98728 46.6909 8.61661C47.0002 9.24594 47.1549 9.95528 47.1549 10.7446C47.1549 10.8619 47.1495 10.9686 47.1389 11.0646C47.1389 11.1606 47.1335 11.2353 47.1229 11.2886H40.8189C40.8615 11.7366 40.9735 12.1259 41.1549 12.4566C41.3895 12.8726 41.6989 13.1873 42.0829 13.4006C42.4669 13.6139 42.8829 13.7206 43.3309 13.7206C43.8749 13.7206 44.3282 13.5979 44.6909 13.3526C45.0642 13.0966 45.3575 12.7819 45.5709 12.4086L46.9949 13.0966C46.6429 13.7366 46.1629 14.2593 45.5549 14.6646C44.9469 15.0593 44.1895 15.2566 43.2829 15.2566ZM40.9149 9.99261H45.4429C45.4322 9.78994 45.3789 9.57661 45.2829 9.35261C45.1869 9.11794 45.0482 8.90461 44.8669 8.71261C44.6855 8.52061 44.4562 8.36594 44.1789 8.24861C43.9015 8.12061 43.5762 8.05661 43.2029 8.05661C42.7335 8.05661 42.3175 8.17928 41.9549 8.42461C41.5922 8.65928 41.3095 8.98994 41.1069 9.41661C41.0215 9.59794 40.9575 9.78994 40.9149 9.99261ZM48.908 15.0006V6.84061H50.54V7.96061H50.636C50.8707 7.56594 51.2173 7.24061 51.676 6.98461C52.1453 6.71794 52.6573 6.58461 53.212 6.58461C54.2147 6.58461 54.9667 6.88328 55.468 7.48061C55.9693 8.06728 56.22 8.85661 56.22 9.84861V15.0006H54.508V10.0726C54.508 9.41128 54.3427 8.93128 54.012 8.63261C53.6813 8.32328 53.2493 8.16861 52.716 8.16861C52.3 8.16861 51.9373 8.28594 51.628 8.52061C51.3187 8.74461 51.0733 9.04328 50.892 9.41661C50.7213 9.78994 50.636 10.1899 50.636 10.6166V15.0006H48.908ZM62.2236 15.0006V6.84061H63.8556V7.96061H63.9516C64.1116 7.69394 64.3196 7.45928 64.5756 7.25661C64.8316 7.05394 65.1196 6.89394 65.4396 6.77661C65.7703 6.64861 66.1116 6.58461 66.4636 6.58461C67.0716 6.58461 67.589 6.72861 68.0156 7.01661C68.4423 7.30461 68.7463 7.66728 68.9276 8.10461C69.1943 7.67794 69.557 7.32061 70.0156 7.03261C70.4743 6.73394 71.0343 6.58461 71.6956 6.58461C72.6556 6.58461 73.3703 6.87794 73.8396 7.46461C74.309 8.04061 74.5436 8.80861 74.5436 9.76861V15.0006H72.8316V10.0566C72.8316 9.39528 72.6876 8.91528 72.3996 8.61661C72.1223 8.31794 71.733 8.16861 71.2316 8.16861C70.837 8.16861 70.4903 8.28061 70.1916 8.50461C69.893 8.71794 69.6583 9.01128 69.4876 9.38461C69.3276 9.75794 69.2476 10.1739 69.2476 10.6326V15.0006H67.5356V10.0566C67.5356 9.40594 67.3916 8.93128 67.1036 8.63261C66.8156 8.32328 66.4103 8.16861 65.8876 8.16861C65.5143 8.16861 65.1783 8.28061 64.8796 8.50461C64.5916 8.72861 64.3623 9.02728 64.1916 9.40061C64.0316 9.77394 63.9516 10.1899 63.9516 10.6486V15.0006H62.2236ZM80.3672 15.2566C79.5672 15.2566 78.8526 15.0699 78.2232 14.6966C77.5939 14.3233 77.0979 13.8113 76.7352 13.1606C76.3832 12.5099 76.2072 11.7686 76.2072 10.9366C76.2072 10.1579 76.3779 9.43794 76.7192 8.77661C77.0606 8.11528 77.5352 7.58728 78.1432 7.19261C78.7619 6.78728 79.4712 6.58461 80.2712 6.58461C81.1139 6.58461 81.8286 6.76594 82.4152 7.12861C83.0126 7.49128 83.4659 7.98728 83.7752 8.61661C84.0846 9.24594 84.2392 9.95528 84.2392 10.7446C84.2392 10.8619 84.2339 10.9686 84.2232 11.0646C84.2232 11.1606 84.2179 11.2353 84.2072 11.2886H77.9032C77.9459 11.7366 78.0579 12.1259 78.2392 12.4566C78.4739 12.8726 78.7832 13.1873 79.1672 13.4006C79.5512 13.6139 79.9672 13.7206 80.4152 13.7206C80.9592 13.7206 81.4126 13.5979 81.7752 13.3526C82.1486 13.0966 82.4419 12.7819 82.6552 12.4086L84.0792 13.0966C83.7272 13.7366 83.2472 14.2593 82.6392 14.6646C82.0312 15.0593 81.2739 15.2566 80.3672 15.2566ZM77.9992 9.99261H82.5272C82.5166 9.78994 82.4632 9.57661 82.3672 9.35261C82.2712 9.11794 82.1326 8.90461 81.9512 8.71261C81.7699 8.52061 81.5406 8.36594 81.2632 8.24861C80.9859 8.12061 80.6606 8.05661 80.2872 8.05661C79.8179 8.05661 79.4019 8.17928 79.0392 8.42461C78.6766 8.65928 78.3939 8.98994 78.1912 9.41661C78.1059 9.59794 78.0419 9.78994 77.9992 9.99261ZM85.198 6.84061H86.622V4.53661H88.35V6.84061H90.35V8.34461H88.35V12.2646C88.35 12.6699 88.43 12.9793 88.59 13.1926C88.7607 13.4059 89.0433 13.5126 89.438 13.5126C89.63 13.5126 89.8007 13.4859 89.95 13.4326C90.0993 13.3686 90.2487 13.2939 90.398 13.2086V14.8886C90.2167 14.9633 90.0247 15.0219 89.822 15.0646C89.6193 15.1073 89.3793 15.1286 89.102 15.1286C88.3447 15.1286 87.742 14.9099 87.294 14.4726C86.846 14.0246 86.622 13.4113 86.622 12.6326V8.34461H85.198V6.84061Z" fill="white"/>
<g id="GPay (Dark)">
<g id="GPay">
<g id="Pay">
<path id="Fill 1" fill-rule="evenodd" clip-rule="evenodd" d="M119.356 3.42339V8.16175H122.278C122.974 8.16175 123.55 7.92781 124.005 7.45993C124.473 6.99313 124.707 6.43644 124.707 5.79203C124.707 5.16061 124.473 4.61041 124.005 4.14254C123.55 3.66274 122.974 3.4223 122.278 3.4223H119.356V3.42339ZM119.356 9.82966V15.3262H117.611V1.75549H122.24C123.417 1.75549 124.415 2.14756 125.238 2.93061C126.073 3.71365 126.491 4.66782 126.491 5.79203C126.491 6.94224 126.073 7.90291 125.238 8.67296C124.428 9.44409 123.429 9.82858 122.24 9.82858H119.356V9.82966Z" fill="white"/>
<path id="Fill 3" fill-rule="evenodd" clip-rule="evenodd" d="M128.255 12.4831C128.255 12.9379 128.448 13.317 128.834 13.6203C129.22 13.9235 129.672 14.0752 130.19 14.0752C130.924 14.0752 131.578 13.8032 132.153 13.2607C132.729 12.717 133.017 12.0791 133.017 11.3469C132.472 10.917 131.713 10.7025 130.74 10.7025C130.031 10.7025 129.44 10.8736 128.966 11.2148C128.492 11.5559 128.255 11.9773 128.255 12.4831M130.513 5.73566C131.803 5.73566 132.821 6.08007 133.569 6.76889C134.314 7.45771 134.687 8.40213 134.687 9.60216V15.3261H133.018V14.0373H132.942C132.221 15.0985 131.259 15.6294 130.058 15.6294C129.033 15.6294 128.176 15.3261 127.487 14.7196C126.797 14.1131 126.453 13.3549 126.453 12.4452C126.453 11.4845 126.816 10.7208 127.543 10.1523C128.271 9.58375 129.241 9.2989 130.456 9.2989C131.492 9.2989 132.346 9.48844 133.017 9.86751V9.46894C133.017 8.86243 132.776 8.34798 132.296 7.92451C131.814 7.50103 131.252 7.28984 130.607 7.28984C129.633 7.28984 128.862 7.70032 128.293 8.52235L126.755 7.55519C127.603 6.34217 128.855 5.73566 130.513 5.73566" fill="white"/>
<path id="Fill 5" fill-rule="evenodd" clip-rule="evenodd" d="M144.269 6.03894L138.443 19.4201H136.641L138.804 14.738L134.971 6.03894H136.869L139.639 12.7106H139.677L142.371 6.03894H144.269Z" fill="white"/>
</g>
<g id="G">
<path id="Fill 8" fill-rule="evenodd" clip-rule="evenodd" d="M112.303 8.64473C112.303 8.09563 112.256 7.56601 112.168 7.05914H104.806V10.0625H109.023C108.842 11.0414 108.294 11.8744 107.464 12.4322V14.3828H109.98C111.454 13.0246 112.303 11.0177 112.303 8.64473" fill="#4285F4"/>
<path id="Fill 10" fill-rule="evenodd" clip-rule="evenodd" d="M104.806 16.2651C106.913 16.2651 108.687 15.5741 109.98 14.3828L107.464 12.4322C106.763 12.9033 105.861 13.1784 104.806 13.1784C102.77 13.1784 101.042 11.8073 100.424 9.95959H97.8316V11.9687C99.1164 14.516 101.757 16.2651 104.806 16.2651" fill="#34A853"/>
<path id="Fill 12" fill-rule="evenodd" clip-rule="evenodd" d="M100.424 9.9596C100.266 9.48847 100.179 8.98593 100.179 8.46715C100.179 7.94837 100.266 7.44583 100.424 6.9747V4.96564H97.8316C97.3003 6.01837 97 7.20756 97 8.46715C97 9.72674 97.3003 10.916 97.8316 11.9687L100.424 9.9596Z" fill="#FABB05"/>
<path id="Fill 14" fill-rule="evenodd" clip-rule="evenodd" d="M104.806 3.75583C105.957 3.75583 106.988 4.15115 107.801 4.92553V4.92661L110.029 2.70094C108.676 1.44243 106.912 0.669128 104.806 0.669128C101.757 0.669128 99.1164 2.41826 97.8316 4.9656L100.424 6.97467C101.042 5.12698 102.77 3.75583 104.806 3.75583" fill="#E94235"/>
</g>
</g>
</g>
</g>
</svg>
