<svg width="254" height="38" viewBox="0 0 254 38" fill="none" xmlns="http://www.w3.org/2000/svg">
<g id="nl_book_with_Light">
<path id="Text" d="M4.00941 30V9.952H11.5134C12.5961 9.952 13.5854 10.1853 14.4814 10.652C15.3961 11.1187 16.1147 11.7533 16.6374 12.556C17.1787 13.3587 17.4494 14.264 17.4494 15.272C17.4494 16.2987 17.1881 17.176 16.6654 17.904C16.1614 18.632 15.5174 19.1827 14.7334 19.556V19.696C15.7414 20.0507 16.5627 20.6387 17.1974 21.46C17.8321 22.2627 18.1494 23.2333 18.1494 24.372C18.1494 25.492 17.8601 26.4813 17.2814 27.34C16.7214 28.18 15.9561 28.8333 14.9854 29.3C14.0334 29.7667 12.9881 30 11.8494 30H4.00941ZM11.4854 12.78H7.08941V18.38H11.3734C12.3441 18.38 13.1001 18.0907 13.6414 17.512C14.1827 16.9147 14.4534 16.2613 14.4534 15.552C14.4534 14.8613 14.1921 14.2267 13.6694 13.648C13.1467 13.0693 12.4187 12.78 11.4854 12.78ZM7.08941 27.144H11.8494C12.8574 27.144 13.6414 26.8453 14.2014 26.248C14.7801 25.632 15.0694 24.932 15.0694 24.148C15.0694 23.364 14.7801 22.664 14.2014 22.048C13.6227 21.432 12.8014 21.124 11.7374 21.124H7.08941V27.144ZM28.0528 30.448C26.5781 30.448 25.2808 30.112 24.1608 29.44C23.0408 28.768 22.1634 27.8627 21.5288 26.724C20.8941 25.5853 20.5768 24.2973 20.5768 22.86C20.5768 21.4413 20.8941 20.1627 21.5288 19.024C22.1634 17.8667 23.0408 16.952 24.1608 16.28C25.2808 15.608 26.5781 15.272 28.0528 15.272C29.5088 15.272 30.7968 15.608 31.9168 16.28C33.0368 16.952 33.9141 17.8667 34.5488 19.024C35.1834 20.1627 35.5008 21.4413 35.5008 22.86C35.5008 24.2973 35.1834 25.5853 34.5488 26.724C33.9141 27.8627 33.0368 28.768 31.9168 29.44C30.7968 30.112 29.5088 30.448 28.0528 30.448ZM28.0528 27.676C28.8368 27.676 29.5648 27.4893 30.2368 27.116C30.9088 26.724 31.4501 26.1733 31.8608 25.464C32.2901 24.736 32.5048 23.868 32.5048 22.86C32.5048 21.852 32.2901 20.9933 31.8608 20.284C31.4501 19.556 30.9088 19.0053 30.2368 18.632C29.5648 18.24 28.8368 18.044 28.0528 18.044C27.2688 18.044 26.5314 18.24 25.8408 18.632C25.1688 19.0053 24.6181 19.556 24.1888 20.284C23.7781 20.9933 23.5728 21.852 23.5728 22.86C23.5728 23.868 23.7781 24.736 24.1888 25.464C24.6181 26.1733 25.1688 26.724 25.8408 27.116C26.5314 27.4893 27.2688 27.676 28.0528 27.676ZM45.1099 30.448C43.7099 30.448 42.4592 30.1213 41.3579 29.468C40.2565 28.8147 39.3885 27.9187 38.7539 26.78C38.1379 25.6413 37.8299 24.344 37.8299 22.888C37.8299 21.5253 38.1285 20.2653 38.7259 19.108C39.3232 17.9507 40.1539 17.0267 41.2179 16.336C42.3005 15.6267 43.5419 15.272 44.9419 15.272C46.4165 15.272 47.6672 15.5893 48.6939 16.224C49.7392 16.8587 50.5325 17.7267 51.0739 18.828C51.6152 19.9293 51.8859 21.1707 51.8859 22.552C51.8859 22.7573 51.8765 22.944 51.8579 23.112C51.8579 23.28 51.8485 23.4107 51.8299 23.504H40.7979C40.9472 24.9227 41.4419 25.9867 42.2819 26.696C43.1405 27.4053 44.1112 27.76 45.1939 27.76C46.1645 27.76 46.9672 27.5453 47.6019 27.116C48.2365 26.668 48.7405 26.1173 49.1139 25.464L51.6059 26.668C50.9899 27.788 50.1499 28.7027 49.0859 29.412C48.0219 30.1027 46.6965 30.448 45.1099 30.448ZM44.9699 17.848C43.9619 17.848 43.1032 18.156 42.3939 18.772C41.6845 19.388 41.2085 20.2093 40.9659 21.236H48.8899C48.8525 20.7507 48.6939 20.2467 48.4139 19.724C48.1339 19.2013 47.7045 18.7627 47.1259 18.408C46.5659 18.0347 45.8472 17.848 44.9699 17.848ZM54.9913 30V9.952H58.0153V21.768L64.0633 15.72H67.8153V15.888L62.2993 21.348L68.0113 29.832V30H64.4273L60.1713 23.448L58.0153 25.576V30H54.9913ZM76.3075 30.448C74.9075 30.448 73.6569 30.1213 72.5555 29.468C71.4542 28.8147 70.5862 27.9187 69.9515 26.78C69.3355 25.6413 69.0275 24.344 69.0275 22.888C69.0275 21.5253 69.3262 20.2653 69.9235 19.108C70.5209 17.9507 71.3515 17.0267 72.4155 16.336C73.4982 15.6267 74.7395 15.272 76.1395 15.272C77.6142 15.272 78.8649 15.5893 79.8915 16.224C80.9369 16.8587 81.7302 17.7267 82.2715 18.828C82.8129 19.9293 83.0835 21.1707 83.0835 22.552C83.0835 22.7573 83.0742 22.944 83.0555 23.112C83.0555 23.28 83.0462 23.4107 83.0275 23.504H71.9955C72.1449 24.9227 72.6395 25.9867 73.4795 26.696C74.3382 27.4053 75.3089 27.76 76.3915 27.76C77.3622 27.76 78.1649 27.5453 78.7995 27.116C79.4342 26.668 79.9382 26.1173 80.3115 25.464L82.8035 26.668C82.1875 27.788 81.3475 28.7027 80.2835 29.412C79.2195 30.1027 77.8942 30.448 76.3075 30.448ZM76.1675 17.848C75.1595 17.848 74.3009 18.156 73.5915 18.772C72.8822 19.388 72.4062 20.2093 72.1635 21.236H80.0875C80.0502 20.7507 79.8915 20.2467 79.6115 19.724C79.3315 19.2013 78.9022 18.7627 78.3235 18.408C77.7635 18.0347 77.0449 17.848 76.1675 17.848ZM86.189 30V15.72H89.045V17.68H89.213C89.6237 16.9893 90.2303 16.42 91.033 15.972C91.8543 15.5053 92.7503 15.272 93.721 15.272C95.4757 15.272 96.7917 15.7947 97.669 16.84C98.5463 17.8853 98.985 19.2667 98.985 20.984V30H95.989V21.376C95.989 20.2187 95.6997 19.3787 95.121 18.856C94.5423 18.3147 93.7863 18.044 92.853 18.044C92.125 18.044 91.4903 18.2493 90.949 18.66C90.4077 19.052 89.9783 19.5747 89.661 20.228C89.3623 20.8813 89.213 21.5813 89.213 22.328V30H86.189ZM109.566 30V15.72H112.422V17.68H112.59C113.001 16.9893 113.598 16.42 114.382 15.972C115.166 15.5053 116.034 15.272 116.986 15.272C118.05 15.272 118.956 15.524 119.702 16.028C120.449 16.532 120.981 17.1667 121.298 17.932C121.765 17.1853 122.4 16.56 123.202 16.056C124.005 15.5333 124.985 15.272 126.142 15.272C127.822 15.272 129.073 15.7853 129.894 16.812C130.716 17.82 131.126 19.164 131.126 20.844V30H128.13V21.348C128.13 20.2093 127.878 19.3787 127.374 18.856C126.889 18.3147 126.208 18.044 125.33 18.044C124.64 18.044 124.033 18.24 123.51 18.632C122.988 19.0053 122.577 19.5187 122.278 20.172C121.998 20.8253 121.858 21.5533 121.858 22.356V30H118.862V21.348C118.862 20.2093 118.61 19.3787 118.106 18.856C117.602 18.3147 116.893 18.044 115.978 18.044C115.306 18.044 114.718 18.24 114.214 18.632C113.71 19.024 113.309 19.5467 113.01 20.2C112.73 20.8533 112.59 21.5813 112.59 22.384V30H109.566ZM141.355 30.448C139.955 30.448 138.705 30.1213 137.603 29.468C136.502 28.8147 135.634 27.9187 134.999 26.78C134.383 25.6413 134.075 24.344 134.075 22.888C134.075 21.5253 134.374 20.2653 134.971 19.108C135.569 17.9507 136.399 17.0267 137.463 16.336C138.546 15.6267 139.787 15.272 141.187 15.272C142.662 15.272 143.913 15.5893 144.939 16.224C145.985 16.8587 146.778 17.7267 147.319 18.828C147.861 19.9293 148.131 21.1707 148.131 22.552C148.131 22.7573 148.122 22.944 148.103 23.112C148.103 23.28 148.094 23.4107 148.075 23.504H137.043C137.193 24.9227 137.687 25.9867 138.527 26.696C139.386 27.4053 140.357 27.76 141.439 27.76C142.41 27.76 143.213 27.5453 143.847 27.116C144.482 26.668 144.986 26.1173 145.359 25.464L147.851 26.668C147.235 27.788 146.395 28.7027 145.331 29.412C144.267 30.1027 142.942 30.448 141.355 30.448ZM141.215 17.848C140.207 17.848 139.349 18.156 138.639 18.772C137.93 19.388 137.454 20.2093 137.211 21.236H145.135C145.098 20.7507 144.939 20.2467 144.659 19.724C144.379 19.2013 143.95 18.7627 143.371 18.408C142.811 18.0347 142.093 17.848 141.215 17.848ZM152.339 25.856V18.352H149.847V15.72H152.339V11.688H155.363V15.72H158.863V18.352H155.363V25.212C155.363 25.9213 155.503 26.4627 155.783 26.836C156.081 27.2093 156.576 27.396 157.267 27.396C157.621 27.396 157.92 27.3493 158.163 27.256C158.424 27.1627 158.685 27.032 158.947 26.864V29.804C158.629 29.9347 158.293 30.0373 157.939 30.112C157.584 30.1867 157.164 30.224 156.679 30.224C155.353 30.224 154.299 29.8413 153.515 29.076C152.731 28.292 152.339 27.2187 152.339 25.856Z" fill="#3C4043"/>
<g id="GPay Logo (Light)">
<g id="GPay">
<g id="Pay">
<path id="Fill 1" fill-rule="evenodd" clip-rule="evenodd" d="M210.529 9.44664V17.6128H215.565C216.765 17.6128 217.757 17.2096 218.541 16.4032C219.347 15.5988 219.75 14.6394 219.75 13.5288C219.75 12.4406 219.347 11.4924 218.541 10.686C217.757 9.85915 216.765 9.44478 215.565 9.44478H210.529V9.44664ZM210.529 20.4872V29.9599H207.521V6.57217H215.499C217.527 6.57217 219.248 7.24786 220.666 8.59737C222.105 9.94688 222.824 11.5913 222.824 13.5288C222.824 15.511 222.105 17.1667 220.666 18.4938C219.27 19.8227 217.547 20.4854 215.499 20.4854H210.529V20.4872Z" fill="#5F6368"/>
<path id="Fill 3" fill-rule="evenodd" clip-rule="evenodd" d="M225.864 25.0602C225.864 25.8442 226.197 26.4975 226.862 27.0201C227.527 27.5427 228.306 27.804 229.2 27.804C230.465 27.804 231.591 27.3354 232.584 26.4004C233.576 25.4634 234.071 24.364 234.071 23.1022C233.133 22.3612 231.825 21.9916 230.147 21.9916C228.925 21.9916 227.907 22.2865 227.09 22.8745C226.273 23.4623 225.864 24.1886 225.864 25.0602ZM229.756 13.4317C231.98 13.4317 233.735 14.0252 235.022 15.2124C236.308 16.3995 236.95 18.0271 236.95 20.0952V29.9599H234.073V27.7387H233.942C232.699 29.5677 231.042 30.4825 228.972 30.4825C227.206 30.4825 225.728 29.9599 224.541 28.9146C223.353 27.8694 222.759 26.5628 222.759 24.9949C222.759 23.3393 223.385 22.0232 224.638 21.0434C225.892 20.0635 227.565 19.5726 229.658 19.5726C231.444 19.5726 232.916 19.8992 234.071 20.5525V19.8656C234.071 18.8204 233.656 17.9338 232.829 17.204C231.999 16.4741 231.031 16.1102 229.919 16.1102C228.239 16.1102 226.911 16.8176 225.93 18.2343L223.28 16.5675C224.741 14.4769 226.899 13.4317 229.756 13.4317Z" fill="#5F6368"/>
<path id="Fill 5" fill-rule="evenodd" clip-rule="evenodd" d="M253.463 13.9543L243.424 37.0154H240.318L244.046 28.9464L237.44 13.9543H240.71L245.484 25.4522H245.55L250.193 13.9543H253.463Z" fill="#5F6368"/>
</g>
<g id="G">
<path id="Fill 8" fill-rule="evenodd" clip-rule="evenodd" d="M198.373 18.4452C198.373 17.4989 198.293 16.5861 198.141 15.7126H185.454V20.8885H192.72C192.408 22.5757 191.465 24.0112 190.033 24.9725V28.3341H194.37C196.91 25.9935 198.373 22.5348 198.373 18.4452Z" fill="#4285F4"/>
<path id="Fill 10" fill-rule="evenodd" clip-rule="evenodd" d="M185.454 31.5782C189.084 31.5782 192.141 30.3873 194.37 28.3341L190.033 24.9725C188.826 25.7844 187.272 26.2585 185.454 26.2585C181.944 26.2585 178.966 23.8955 177.901 20.7112H173.433V24.1736C175.647 28.5637 180.197 31.5782 185.454 31.5782Z" fill="#34A853"/>
<path id="Fill 12" fill-rule="evenodd" clip-rule="evenodd" d="M177.901 20.7111C177.628 19.8992 177.479 19.0331 177.479 18.139C177.479 17.245 177.628 16.3789 177.901 15.567V12.1045H173.433C172.518 13.9188 172 15.9683 172 18.139C172 20.3098 172.518 22.3595 173.433 24.1736L177.901 20.7111Z" fill="#FABB05"/>
<path id="Fill 14" fill-rule="evenodd" clip-rule="evenodd" d="M185.454 10.0196C187.436 10.0196 189.213 10.7009 190.615 12.0355V12.0374L194.455 8.20162C192.123 6.03271 189.082 4.7 185.454 4.7C180.197 4.7 175.647 7.71446 173.433 12.1046L177.901 15.567C178.966 12.3827 181.944 10.0196 185.454 10.0196Z" fill="#E94235"/>
</g>
</g>
</g>
</g>
</svg>
