<svg width="137" height="21" viewBox="0 0 137 21" fill="none" xmlns="http://www.w3.org/2000/svg">
<g id="nl_buy_with_Pay_NBG">
<path id="Left Text" d="M1.73663 15.0006V3.54461H3.49663V9.17661L8.26463 3.54461H10.4406V3.64061L6.24863 8.47261L10.8086 14.9046V15.0006H8.66463L5.06463 9.84861L3.49663 11.6726V15.0006H1.73663ZM15.6574 15.2566C14.8147 15.2566 14.0734 15.0646 13.4334 14.6806C12.7934 14.2966 12.292 13.7793 11.9294 13.1286C11.5667 12.4673 11.3854 11.7313 11.3854 10.9206C11.3854 10.1099 11.5667 9.37928 11.9294 8.72861C12.292 8.06728 12.7934 7.54461 13.4334 7.16061C14.0734 6.77661 14.8147 6.58461 15.6574 6.58461C16.4894 6.58461 17.2254 6.78194 17.8654 7.17661C18.5054 7.56061 19.0067 8.07794 19.3694 8.72861C19.732 9.37928 19.9134 10.1099 19.9134 10.9206C19.9134 11.7313 19.732 12.4673 19.3694 13.1286C19.0067 13.7793 18.5054 14.2966 17.8654 14.6806C17.2254 15.0646 16.4894 15.2566 15.6574 15.2566ZM15.6574 13.6726C16.1054 13.6726 16.5214 13.5659 16.9054 13.3526C17.2894 13.1286 17.5987 12.8139 17.8334 12.4086C18.0787 11.9926 18.2014 11.4966 18.2014 10.9206C18.2014 10.3446 18.0787 9.85394 17.8334 9.44861C17.5987 9.03261 17.2894 8.71794 16.9054 8.50461C16.5214 8.28061 16.1054 8.16861 15.6574 8.16861C15.2094 8.16861 14.788 8.28061 14.3934 8.50461C14.0094 8.71794 13.6947 9.03261 13.4494 9.44861C13.2147 9.85394 13.0974 10.3446 13.0974 10.9206C13.0974 11.4966 13.2147 11.9926 13.4494 12.4086C13.6947 12.8139 14.0147 13.1286 14.4094 13.3526C14.804 13.5659 15.22 13.6726 15.6574 13.6726ZM21.5608 18.4566V6.84061H23.1768V7.94461H23.2728C23.4221 7.70994 23.6194 7.49128 23.8648 7.28861C24.1208 7.07528 24.4194 6.90461 24.7608 6.77661C25.1021 6.64861 25.4808 6.58461 25.8968 6.58461C26.6434 6.58461 27.3101 6.77128 27.8968 7.14461C28.4834 7.51794 28.9474 8.02994 29.2888 8.68061C29.6408 9.33128 29.8168 10.0779 29.8168 10.9206C29.8168 11.7633 29.6408 12.5099 29.2888 13.1606C28.9474 13.8113 28.4834 14.3233 27.8968 14.6966C27.3101 15.0699 26.6434 15.2566 25.8968 15.2566C25.2781 15.2566 24.7394 15.1179 24.2808 14.8406C23.8221 14.5633 23.4861 14.2539 23.2728 13.9126H23.1768L23.2728 15.0486V18.4566H21.5608ZM25.6408 13.6726C26.0674 13.6726 26.4674 13.5606 26.8408 13.3366C27.2248 13.1126 27.5288 12.7926 27.7528 12.3766C27.9874 11.9606 28.1048 11.4753 28.1048 10.9206C28.1048 10.3553 27.9874 9.86994 27.7528 9.46461C27.5288 9.04861 27.2248 8.72861 26.8408 8.50461C26.4674 8.28061 26.0674 8.16861 25.6408 8.16861C25.2141 8.16861 24.8141 8.28061 24.4408 8.50461C24.0674 8.72861 23.7634 9.04861 23.5288 9.46461C23.2941 9.86994 23.1768 10.3553 23.1768 10.9206C23.1768 11.4859 23.2941 11.9766 23.5288 12.3926C23.7634 12.7979 24.0674 13.1126 24.4408 13.3366C24.8141 13.5606 25.2141 13.6726 25.6408 13.6726ZM35.2829 15.2566C34.4829 15.2566 33.7682 15.0699 33.1389 14.6966C32.5095 14.3233 32.0135 13.8113 31.6509 13.1606C31.2989 12.5099 31.1229 11.7686 31.1229 10.9366C31.1229 10.1579 31.2935 9.43794 31.6349 8.77661C31.9762 8.11528 32.4509 7.58728 33.0589 7.19261C33.6775 6.78728 34.3869 6.58461 35.1869 6.58461C36.0295 6.58461 36.7442 6.76594 37.3309 7.12861C37.9282 7.49128 38.3815 7.98728 38.6909 8.61661C39.0002 9.24594 39.1549 9.95528 39.1549 10.7446C39.1549 10.8619 39.1495 10.9686 39.1389 11.0646C39.1389 11.1606 39.1335 11.2353 39.1229 11.2886H32.8189C32.8615 11.7366 32.9735 12.1259 33.1549 12.4566C33.3895 12.8726 33.6989 13.1873 34.0829 13.4006C34.4669 13.6139 34.8829 13.7206 35.3309 13.7206C35.8749 13.7206 36.3282 13.5979 36.6909 13.3526C37.0642 13.0966 37.3575 12.7819 37.5709 12.4086L38.9949 13.0966C38.6429 13.7366 38.1629 14.2593 37.5549 14.6646C36.9469 15.0593 36.1895 15.2566 35.2829 15.2566ZM32.9149 9.99261H37.4429C37.4322 9.78994 37.3789 9.57661 37.2829 9.35261C37.1869 9.11794 37.0482 8.90461 36.8669 8.71261C36.6855 8.52061 36.4562 8.36594 36.1789 8.24861C35.9015 8.12061 35.5762 8.05661 35.2029 8.05661C34.7335 8.05661 34.3175 8.17928 33.9549 8.42461C33.5922 8.65928 33.3095 8.98994 33.1069 9.41661C33.0215 9.59794 32.9575 9.78994 32.9149 9.99261ZM40.908 15.0006V6.84061H42.54V7.96061H42.636C42.8707 7.56594 43.2173 7.24061 43.676 6.98461C44.1453 6.71794 44.6573 6.58461 45.212 6.58461C46.2147 6.58461 46.9667 6.88328 47.468 7.48061C47.9693 8.06728 48.22 8.85661 48.22 9.84861V15.0006H46.508V10.0726C46.508 9.41128 46.3427 8.93128 46.012 8.63261C45.6813 8.32328 45.2493 8.16861 44.716 8.16861C44.3 8.16861 43.9373 8.28594 43.628 8.52061C43.3187 8.74461 43.0733 9.04328 42.892 9.41661C42.7213 9.78994 42.636 10.1899 42.636 10.6166V15.0006H40.908ZM54.2236 15.0006V6.84061H55.8556V7.96061H55.9516C56.1116 7.69394 56.3196 7.45928 56.5756 7.25661C56.8316 7.05394 57.1196 6.89394 57.4396 6.77661C57.7703 6.64861 58.1116 6.58461 58.4636 6.58461C59.0716 6.58461 59.589 6.72861 60.0156 7.01661C60.4423 7.30461 60.7463 7.66728 60.9276 8.10461C61.1943 7.67794 61.557 7.32061 62.0156 7.03261C62.4743 6.73394 63.0343 6.58461 63.6956 6.58461C64.6556 6.58461 65.3703 6.87794 65.8396 7.46461C66.309 8.04061 66.5436 8.80861 66.5436 9.76861V15.0006H64.8316V10.0566C64.8316 9.39528 64.6876 8.91528 64.3996 8.61661C64.1223 8.31794 63.733 8.16861 63.2316 8.16861C62.837 8.16861 62.4903 8.28061 62.1916 8.50461C61.893 8.71794 61.6583 9.01128 61.4876 9.38461C61.3276 9.75794 61.2476 10.1739 61.2476 10.6326V15.0006H59.5356V10.0566C59.5356 9.40594 59.3916 8.93128 59.1036 8.63261C58.8156 8.32328 58.4103 8.16861 57.8876 8.16861C57.5143 8.16861 57.1783 8.28061 56.8796 8.50461C56.5916 8.72861 56.3623 9.02728 56.1916 9.40061C56.0316 9.77394 55.9516 10.1899 55.9516 10.6486V15.0006H54.2236ZM72.3673 15.2566C71.5673 15.2566 70.8526 15.0699 70.2233 14.6966C69.5939 14.3233 69.0979 13.8113 68.7353 13.1606C68.3833 12.5099 68.2073 11.7686 68.2073 10.9366C68.2073 10.1579 68.3779 9.43794 68.7193 8.77661C69.0606 8.11528 69.5353 7.58728 70.1433 7.19261C70.7619 6.78728 71.4713 6.58461 72.2713 6.58461C73.1139 6.58461 73.8286 6.76594 74.4153 7.12861C75.0126 7.49128 75.4659 7.98728 75.7753 8.61661C76.0846 9.24594 76.2393 9.95528 76.2393 10.7446C76.2393 10.8619 76.2339 10.9686 76.2233 11.0646C76.2233 11.1606 76.2179 11.2353 76.2073 11.2886H69.9033C69.9459 11.7366 70.0579 12.1259 70.2393 12.4566C70.4739 12.8726 70.7833 13.1873 71.1673 13.4006C71.5513 13.6139 71.9673 13.7206 72.4153 13.7206C72.9593 13.7206 73.4126 13.5979 73.7753 13.3526C74.1486 13.0966 74.4419 12.7819 74.6553 12.4086L76.0793 13.0966C75.7273 13.7366 75.2473 14.2593 74.6393 14.6646C74.0313 15.0593 73.2739 15.2566 72.3673 15.2566ZM69.9993 9.99261H74.5273C74.5166 9.78994 74.4633 9.57661 74.3673 9.35261C74.2713 9.11794 74.1326 8.90461 73.9513 8.71261C73.7699 8.52061 73.5406 8.36594 73.2633 8.24861C72.9859 8.12061 72.6606 8.05661 72.2873 8.05661C71.8179 8.05661 71.4019 8.17928 71.0393 8.42461C70.6766 8.65928 70.3939 8.98994 70.1913 9.41661C70.1059 9.59794 70.0419 9.78994 69.9993 9.99261ZM77.198 6.84061H78.622V4.53661H80.35V6.84061H82.35V8.34461H80.35V12.2646C80.35 12.6699 80.43 12.9793 80.59 13.1926C80.7607 13.4059 81.0433 13.5126 81.438 13.5126C81.63 13.5126 81.8007 13.4859 81.95 13.4326C82.0993 13.3686 82.2487 13.2939 82.398 13.2086V14.8886C82.2167 14.9633 82.0247 15.0219 81.822 15.0646C81.6193 15.1073 81.3793 15.1286 81.102 15.1286C80.3447 15.1286 79.742 14.9099 79.294 14.4726C78.846 14.0246 78.622 13.4113 78.622 12.6326V8.34461H77.198V6.84061Z" fill="white"/>
<g id="GPay (Dark)">
<g id="GPay">
<g id="Pay">
<path id="Fill 1" fill-rule="evenodd" clip-rule="evenodd" d="M111.356 3.42339V8.16175H114.278C114.974 8.16175 115.55 7.92781 116.005 7.45993C116.473 6.99313 116.707 6.43644 116.707 5.79203C116.707 5.16061 116.473 4.61041 116.005 4.14254C115.55 3.66274 114.974 3.4223 114.278 3.4223H111.356V3.42339ZM111.356 9.82966V15.3262H109.611V1.75549H114.24C115.417 1.75549 116.415 2.14756 117.238 2.93061C118.073 3.71365 118.491 4.66782 118.491 5.79203C118.491 6.94224 118.073 7.90291 117.238 8.67296C116.428 9.44409 115.429 9.82858 114.24 9.82858H111.356V9.82966Z" fill="white"/>
<path id="Fill 3" fill-rule="evenodd" clip-rule="evenodd" d="M120.255 12.4831C120.255 12.9379 120.448 13.317 120.834 13.6203C121.22 13.9235 121.672 14.0752 122.19 14.0752C122.924 14.0752 123.578 13.8032 124.153 13.2607C124.729 12.717 125.017 12.0791 125.017 11.3469C124.472 10.917 123.713 10.7025 122.74 10.7025C122.031 10.7025 121.44 10.8736 120.966 11.2148C120.492 11.5559 120.255 11.9773 120.255 12.4831M122.513 5.73566C123.803 5.73566 124.821 6.08007 125.569 6.76889C126.314 7.45771 126.687 8.40213 126.687 9.60216V15.3261H125.018V14.0373H124.942C124.221 15.0985 123.259 15.6294 122.058 15.6294C121.033 15.6294 120.176 15.3261 119.487 14.7196C118.797 14.1131 118.453 13.3549 118.453 12.4452C118.453 11.4845 118.816 10.7208 119.543 10.1523C120.271 9.58375 121.241 9.2989 122.456 9.2989C123.492 9.2989 124.346 9.48844 125.017 9.86751V9.46894C125.017 8.86243 124.776 8.34798 124.296 7.92451C123.814 7.50103 123.252 7.28984 122.607 7.28984C121.633 7.28984 120.862 7.70032 120.293 8.52235L118.755 7.55519C119.603 6.34217 120.855 5.73566 122.513 5.73566" fill="white"/>
<path id="Fill 5" fill-rule="evenodd" clip-rule="evenodd" d="M136.269 6.03894L130.443 19.4201H128.641L130.804 14.738L126.971 6.03894H128.869L131.639 12.7106H131.677L134.371 6.03894H136.269Z" fill="white"/>
</g>
<g id="G">
<path id="Fill 8" fill-rule="evenodd" clip-rule="evenodd" d="M104.303 8.64473C104.303 8.09563 104.256 7.56601 104.168 7.05914H96.8065V10.0625H101.023C100.842 11.0414 100.294 11.8744 99.4639 12.4322V14.3828H101.98C103.454 13.0246 104.303 11.0177 104.303 8.64473" fill="#4285F4"/>
<path id="Fill 10" fill-rule="evenodd" clip-rule="evenodd" d="M96.8065 16.2651C98.9131 16.2651 100.687 15.5741 101.98 14.3828L99.4639 12.4322C98.7635 12.9033 97.8614 13.1784 96.8065 13.1784C94.7703 13.1784 93.042 11.8073 92.424 9.95959H89.8316V11.9687C91.1164 14.516 93.7565 16.2651 96.8065 16.2651" fill="#34A853"/>
<path id="Fill 12" fill-rule="evenodd" clip-rule="evenodd" d="M92.424 9.9596C92.2657 9.48847 92.179 8.98593 92.179 8.46715C92.179 7.94837 92.2657 7.44583 92.424 6.9747V4.96564H89.8316C89.3003 6.01837 89 7.20756 89 8.46715C89 9.72674 89.3003 10.916 89.8316 11.9687L92.424 9.9596Z" fill="#FABB05"/>
<path id="Fill 14" fill-rule="evenodd" clip-rule="evenodd" d="M96.8065 3.75583C97.9568 3.75583 98.9879 4.15115 99.8011 4.92553V4.92661L102.029 2.70094C100.676 1.44243 98.912 0.669128 96.8065 0.669128C93.7565 0.669128 91.1164 2.41826 89.8316 4.9656L92.424 6.97467C93.042 5.12698 94.7703 3.75583 96.8065 3.75583" fill="#E94235"/>
</g>
</g>
</g>
</g>
</svg>
