<svg width="254" height="38" viewBox="0 0 254 38" fill="none" xmlns="http://www.w3.org/2000/svg">
<g id="nl_checkout_with_Dark">
<path id="Text" d="M3.13519 30V9.952H10.6392C11.7219 9.952 12.7112 10.1853 13.6072 10.652C14.5219 11.1187 15.2405 11.7533 15.7632 12.556C16.3045 13.3587 16.5752 14.264 16.5752 15.272C16.5752 16.2987 16.3139 17.176 15.7912 17.904C15.2872 18.632 14.6432 19.1827 13.8592 19.556V19.696C14.8672 20.0507 15.6885 20.6387 16.3232 21.46C16.9579 22.2627 17.2752 23.2333 17.2752 24.372C17.2752 25.492 16.9859 26.4813 16.4072 27.34C15.8472 28.18 15.0819 28.8333 14.1112 29.3C13.1592 29.7667 12.1139 30 10.9752 30H3.13519ZM10.6112 12.78H6.21519V18.38H10.4992C11.4699 18.38 12.2259 18.0907 12.7672 17.512C13.3085 16.9147 13.5792 16.2613 13.5792 15.552C13.5792 14.8613 13.3179 14.2267 12.7952 13.648C12.2725 13.0693 11.5445 12.78 10.6112 12.78ZM6.21519 27.144H10.9752C11.9832 27.144 12.7672 26.8453 13.3272 26.248C13.9059 25.632 14.1952 24.932 14.1952 24.148C14.1952 23.364 13.9059 22.664 13.3272 22.048C12.7485 21.432 11.9272 21.124 10.8632 21.124H6.21519V27.144ZM26.9825 30.448C25.5825 30.448 24.3319 30.1213 23.2305 29.468C22.1292 28.8147 21.2612 27.9187 20.6265 26.78C20.0105 25.6413 19.7025 24.344 19.7025 22.888C19.7025 21.5253 20.0012 20.2653 20.5985 19.108C21.1959 17.9507 22.0265 17.0267 23.0905 16.336C24.1732 15.6267 25.4145 15.272 26.8145 15.272C28.2892 15.272 29.5399 15.5893 30.5665 16.224C31.6119 16.8587 32.4052 17.7267 32.9465 18.828C33.4879 19.9293 33.7585 21.1707 33.7585 22.552C33.7585 22.7573 33.7492 22.944 33.7305 23.112C33.7305 23.28 33.7212 23.4107 33.7025 23.504H22.6705C22.8199 24.9227 23.3145 25.9867 24.1545 26.696C25.0132 27.4053 25.9839 27.76 27.0665 27.76C28.0372 27.76 28.8399 27.5453 29.4745 27.116C30.1092 26.668 30.6132 26.1173 30.9865 25.464L33.4785 26.668C32.8625 27.788 32.0225 28.7027 30.9585 29.412C29.8945 30.1027 28.5692 30.448 26.9825 30.448ZM26.8425 17.848C25.8345 17.848 24.9759 18.156 24.2665 18.772C23.5572 19.388 23.0812 20.2093 22.8385 21.236H30.7625C30.7252 20.7507 30.5665 20.2467 30.2865 19.724C30.0065 19.2013 29.5772 18.7627 28.9985 18.408C28.4385 18.0347 27.7199 17.848 26.8425 17.848ZM37.9658 25.856V18.352H35.4738V15.72H37.9658V11.688H40.9898V15.72H44.4898V18.352H40.9898V25.212C40.9898 25.9213 41.1298 26.4627 41.4098 26.836C41.7085 27.2093 42.2032 27.396 42.8938 27.396C43.2485 27.396 43.5472 27.3493 43.7898 27.256C44.0512 27.1627 44.3125 27.032 44.5738 26.864V29.804C44.2565 29.9347 43.9205 30.0373 43.5658 30.112C43.2112 30.1867 42.7912 30.224 42.3058 30.224C40.9805 30.224 39.9258 29.8413 39.1418 29.076C38.3578 28.292 37.9658 27.2187 37.9658 25.856ZM51.8979 30.448C50.8712 30.448 49.9566 30.252 49.1539 29.86C48.3512 29.4493 47.7259 28.88 47.2779 28.152C46.8299 27.424 46.6059 26.5933 46.6059 25.66C46.6059 24.652 46.8672 23.7933 47.3899 23.084C47.9312 22.356 48.6499 21.8053 49.5459 21.432C50.4419 21.0587 51.4312 20.872 52.5139 20.872C53.4099 20.872 54.1939 20.956 54.8659 21.124C55.5566 21.292 56.0792 21.4693 56.4339 21.656V20.9C56.4339 19.9667 56.0979 19.22 55.4259 18.66C54.7539 18.1 53.8859 17.82 52.8219 17.82C52.0939 17.82 51.4032 17.988 50.7499 18.324C50.0966 18.6413 49.5739 19.08 49.1819 19.64L47.1099 18.044C47.7259 17.1853 48.5379 16.5133 49.5459 16.028C50.5726 15.524 51.6926 15.272 52.9059 15.272C54.9779 15.272 56.5739 15.7853 57.6939 16.812C58.8139 17.82 59.3739 19.2387 59.3739 21.068V30H56.4339V28.236H56.2659C55.8926 28.8147 55.3326 29.328 54.5859 29.776C53.8392 30.224 52.9432 30.448 51.8979 30.448ZM52.4299 27.984C53.2139 27.984 53.9046 27.7973 54.5019 27.424C55.0992 27.0507 55.5659 26.5653 55.9019 25.968C56.2566 25.352 56.4339 24.6893 56.4339 23.98C56.0046 23.7373 55.5006 23.5413 54.9219 23.392C54.3432 23.224 53.7272 23.14 53.0739 23.14C51.8419 23.14 50.9646 23.392 50.4419 23.896C49.9192 24.3813 49.6579 24.9787 49.6579 25.688C49.6579 26.36 49.9099 26.9107 50.4139 27.34C50.9179 27.7693 51.5899 27.984 52.4299 27.984ZM63.0311 30V9.952H66.0551V30H63.0311ZM76.3075 30.448C74.9075 30.448 73.6569 30.1213 72.5555 29.468C71.4542 28.8147 70.5862 27.9187 69.9515 26.78C69.3355 25.6413 69.0275 24.344 69.0275 22.888C69.0275 21.5253 69.3262 20.2653 69.9235 19.108C70.5209 17.9507 71.3515 17.0267 72.4155 16.336C73.4982 15.6267 74.7395 15.272 76.1395 15.272C77.6142 15.272 78.8649 15.5893 79.8915 16.224C80.9369 16.8587 81.7302 17.7267 82.2715 18.828C82.8129 19.9293 83.0835 21.1707 83.0835 22.552C83.0835 22.7573 83.0742 22.944 83.0555 23.112C83.0555 23.28 83.0462 23.4107 83.0275 23.504H71.9955C72.1449 24.9227 72.6395 25.9867 73.4795 26.696C74.3382 27.4053 75.3089 27.76 76.3915 27.76C77.3622 27.76 78.1649 27.5453 78.7995 27.116C79.4342 26.668 79.9382 26.1173 80.3115 25.464L82.8035 26.668C82.1875 27.788 81.3475 28.7027 80.2835 29.412C79.2195 30.1027 77.8942 30.448 76.3075 30.448ZM76.1675 17.848C75.1595 17.848 74.3009 18.156 73.5915 18.772C72.8822 19.388 72.4062 20.2093 72.1635 21.236H80.0875C80.0502 20.7507 79.8915 20.2467 79.6115 19.724C79.3315 19.2013 78.9022 18.7627 78.3235 18.408C77.7635 18.0347 77.0449 17.848 76.1675 17.848ZM86.189 30V15.72H89.045V17.68H89.213C89.6237 16.9893 90.2303 16.42 91.033 15.972C91.8543 15.5053 92.7503 15.272 93.721 15.272C95.4757 15.272 96.7917 15.7947 97.669 16.84C98.5463 17.8853 98.985 19.2667 98.985 20.984V30H95.989V21.376C95.989 20.2187 95.6997 19.3787 95.121 18.856C94.5423 18.3147 93.7863 18.044 92.853 18.044C92.125 18.044 91.4903 18.2493 90.949 18.66C90.4077 19.052 89.9783 19.5747 89.661 20.228C89.3623 20.8813 89.213 21.5813 89.213 22.328V30H86.189ZM109.566 30V15.72H112.422V17.68H112.59C113.001 16.9893 113.598 16.42 114.382 15.972C115.166 15.5053 116.034 15.272 116.986 15.272C118.05 15.272 118.956 15.524 119.702 16.028C120.449 16.532 120.981 17.1667 121.298 17.932C121.765 17.1853 122.4 16.56 123.202 16.056C124.005 15.5333 124.985 15.272 126.142 15.272C127.822 15.272 129.073 15.7853 129.894 16.812C130.716 17.82 131.126 19.164 131.126 20.844V30H128.13V21.348C128.13 20.2093 127.878 19.3787 127.374 18.856C126.889 18.3147 126.208 18.044 125.33 18.044C124.64 18.044 124.033 18.24 123.51 18.632C122.988 19.0053 122.577 19.5187 122.278 20.172C121.998 20.8253 121.858 21.5533 121.858 22.356V30H118.862V21.348C118.862 20.2093 118.61 19.3787 118.106 18.856C117.602 18.3147 116.893 18.044 115.978 18.044C115.306 18.044 114.718 18.24 114.214 18.632C113.71 19.024 113.309 19.5467 113.01 20.2C112.73 20.8533 112.59 21.5813 112.59 22.384V30H109.566ZM141.355 30.448C139.955 30.448 138.705 30.1213 137.603 29.468C136.502 28.8147 135.634 27.9187 134.999 26.78C134.383 25.6413 134.075 24.344 134.075 22.888C134.075 21.5253 134.374 20.2653 134.971 19.108C135.569 17.9507 136.399 17.0267 137.463 16.336C138.546 15.6267 139.787 15.272 141.187 15.272C142.662 15.272 143.913 15.5893 144.939 16.224C145.985 16.8587 146.778 17.7267 147.319 18.828C147.861 19.9293 148.131 21.1707 148.131 22.552C148.131 22.7573 148.122 22.944 148.103 23.112C148.103 23.28 148.094 23.4107 148.075 23.504H137.043C137.193 24.9227 137.687 25.9867 138.527 26.696C139.386 27.4053 140.357 27.76 141.439 27.76C142.41 27.76 143.213 27.5453 143.847 27.116C144.482 26.668 144.986 26.1173 145.359 25.464L147.851 26.668C147.235 27.788 146.395 28.7027 145.331 29.412C144.267 30.1027 142.942 30.448 141.355 30.448ZM141.215 17.848C140.207 17.848 139.349 18.156 138.639 18.772C137.93 19.388 137.454 20.2093 137.211 21.236H145.135C145.098 20.7507 144.939 20.2467 144.659 19.724C144.379 19.2013 143.95 18.7627 143.371 18.408C142.811 18.0347 142.093 17.848 141.215 17.848ZM152.339 25.856V18.352H149.847V15.72H152.339V11.688H155.363V15.72H158.863V18.352H155.363V25.212C155.363 25.9213 155.503 26.4627 155.783 26.836C156.081 27.2093 156.576 27.396 157.267 27.396C157.621 27.396 157.92 27.3493 158.163 27.256C158.424 27.1627 158.685 27.032 158.947 26.864V29.804C158.629 29.9347 158.293 30.0373 157.939 30.112C157.584 30.1867 157.164 30.224 156.679 30.224C155.353 30.224 154.299 29.8413 153.515 29.076C152.731 28.292 152.339 27.2187 152.339 25.856Z" fill="white"/>
<g id="GPay Logo (Dark)">
<g id="GPay">
<g id="Pay">
<path id="Fill 1" fill-rule="evenodd" clip-rule="evenodd" d="M210.529 9.34665V17.5128H215.565C216.765 17.5128 217.757 17.1096 218.541 16.3032C219.347 15.4988 219.75 14.5394 219.75 13.4288C219.75 12.3406 219.347 11.3924 218.541 10.586C217.757 9.75916 216.765 9.34479 215.565 9.34479H210.529V9.34665ZM210.529 20.3872V29.8599H207.521V6.47218H215.499C217.527 6.47218 219.248 7.14787 220.666 8.49738C222.105 9.84688 222.824 11.4913 222.824 13.4288C222.824 15.411 222.105 17.0667 220.666 18.3938C219.27 19.7227 217.547 20.3854 215.499 20.3854H210.529V20.3872Z" fill="white"/>
<path id="Fill 3" fill-rule="evenodd" clip-rule="evenodd" d="M225.864 24.9602C225.864 25.7442 226.197 26.3975 226.862 26.9201C227.527 27.4427 228.306 27.704 229.2 27.704C230.465 27.704 231.591 27.2354 232.584 26.3004C233.576 25.3634 234.071 24.264 234.071 23.0022C233.133 22.2612 231.825 21.8916 230.147 21.8916C228.925 21.8916 227.907 22.1866 227.09 22.7745C226.273 23.3623 225.864 24.0886 225.864 24.9602ZM229.756 13.3317C231.98 13.3317 233.735 13.9253 235.022 15.1124C236.308 16.2995 236.95 17.9271 236.95 19.9952V29.8599H234.073V27.6387H233.942C232.699 29.4677 231.042 30.3825 228.972 30.3825C227.206 30.3825 225.728 29.8599 224.541 28.8146C223.353 27.7694 222.759 26.4628 222.759 24.8949C222.759 23.2393 223.385 21.9232 224.638 20.9434C225.892 19.9635 227.565 19.4726 229.658 19.4726C231.444 19.4726 232.916 19.7993 234.071 20.4525V19.7657C234.071 18.7204 233.656 17.8338 232.829 17.104C231.999 16.3742 231.031 16.0102 229.919 16.0102C228.239 16.0102 226.911 16.7176 225.93 18.1343L223.28 16.4675C224.741 14.377 226.899 13.3317 229.756 13.3317Z" fill="white"/>
<path id="Fill 5" fill-rule="evenodd" clip-rule="evenodd" d="M253.463 13.8543L243.424 36.9154H240.318L244.046 28.8464L237.44 13.8543H240.71L245.484 25.3522H245.55L250.193 13.8543H253.463Z" fill="white"/>
</g>
<g id="G">
<path id="Fill 8" fill-rule="evenodd" clip-rule="evenodd" d="M198.373 18.3452C198.373 17.3989 198.293 16.4861 198.141 15.6126H185.454V20.7885H192.72C192.408 22.4757 191.465 23.9112 190.033 24.8725V28.2341H194.37C196.91 25.8935 198.373 22.4348 198.373 18.3452Z" fill="#4285F4"/>
<path id="Fill 10" fill-rule="evenodd" clip-rule="evenodd" d="M185.454 31.4782C189.084 31.4782 192.141 30.2873 194.37 28.2341L190.033 24.8725C188.826 25.6844 187.272 26.1585 185.454 26.1585C181.944 26.1585 178.966 23.7955 177.901 20.6112H173.433V24.0736C175.647 28.4637 180.197 31.4782 185.454 31.4782Z" fill="#34A853"/>
<path id="Fill 12" fill-rule="evenodd" clip-rule="evenodd" d="M177.901 20.6111C177.628 19.7992 177.479 18.9331 177.479 18.0391C177.479 17.145 177.628 16.2789 177.901 15.467V12.0045H173.433C172.518 13.8188 172 15.8683 172 18.0391C172 20.2098 172.518 22.2595 173.433 24.0736L177.901 20.6111Z" fill="#FABB05"/>
<path id="Fill 14" fill-rule="evenodd" clip-rule="evenodd" d="M185.454 9.91964C187.436 9.91964 189.213 10.6009 190.615 11.9355V11.9374L194.455 8.10163C192.123 5.93272 189.082 4.60001 185.454 4.60001C180.197 4.60001 175.647 7.61447 173.433 12.0046L177.901 15.467C178.966 12.2827 181.944 9.91964 185.454 9.91964Z" fill="#E94235"/>
</g>
</g>
</g>
</g>
</svg>
