<svg width="153" height="21" viewBox="0 0 153 21" fill="none" xmlns="http://www.w3.org/2000/svg">
<g id="nl_donate_with_Pay_NBG">
<path id="Left Text" d="M1.8585 15.0006V3.54461H5.5225C6.72783 3.54461 7.7625 3.78994 8.6265 4.28061C9.50117 4.76061 10.1732 5.43261 10.6425 6.29661C11.1225 7.16061 11.3625 8.15261 11.3625 9.27261C11.3625 10.3926 11.1225 11.3846 10.6425 12.2486C10.1732 13.1126 9.50117 13.7899 8.6265 14.2806C7.7625 14.7606 6.72783 15.0006 5.5225 15.0006H1.8585ZM3.6185 13.3366H5.4745C6.3385 13.3366 7.07983 13.1766 7.6985 12.8566C8.31717 12.5259 8.7865 12.0566 9.1065 11.4486C9.4265 10.8406 9.5865 10.1153 9.5865 9.27261C9.5865 8.42994 9.4265 7.70461 9.1065 7.09661C8.7865 6.48861 8.31717 6.02461 7.6985 5.70461C7.07983 5.37394 6.3385 5.20861 5.4745 5.20861H3.6185V13.3366ZM16.8417 15.2566C15.9991 15.2566 15.2577 15.0646 14.6177 14.6806C13.9777 14.2966 13.4764 13.7793 13.1137 13.1286C12.7511 12.4673 12.5697 11.7313 12.5697 10.9206C12.5697 10.1099 12.7511 9.37928 13.1137 8.72861C13.4764 8.06728 13.9777 7.54461 14.6177 7.16061C15.2577 6.77661 15.9991 6.58461 16.8417 6.58461C17.6737 6.58461 18.4097 6.78194 19.0497 7.17661C19.6898 7.56061 20.1911 8.07794 20.5538 8.72861C20.9164 9.37928 21.0977 10.1099 21.0977 10.9206C21.0977 11.7313 20.9164 12.4673 20.5538 13.1286C20.1911 13.7793 19.6898 14.2966 19.0497 14.6806C18.4097 15.0646 17.6737 15.2566 16.8417 15.2566ZM16.8417 13.6726C17.2897 13.6726 17.7057 13.5659 18.0897 13.3526C18.4737 13.1286 18.7831 12.8139 19.0177 12.4086C19.2631 11.9926 19.3857 11.4966 19.3857 10.9206C19.3857 10.3446 19.2631 9.85394 19.0177 9.44861C18.7831 9.03261 18.4737 8.71794 18.0897 8.50461C17.7057 8.28061 17.2897 8.16861 16.8417 8.16861C16.3937 8.16861 15.9724 8.28061 15.5777 8.50461C15.1937 8.71794 14.8791 9.03261 14.6337 9.44861C14.3991 9.85394 14.2817 10.3446 14.2817 10.9206C14.2817 11.4966 14.3991 11.9926 14.6337 12.4086C14.8791 12.8139 15.1991 13.1286 15.5937 13.3526C15.9884 13.5659 16.4044 13.6726 16.8417 13.6726ZM22.683 15.0006V6.84061H24.315V7.96061H24.411C24.6457 7.56594 24.9923 7.24061 25.451 6.98461C25.9203 6.71794 26.4323 6.58461 26.987 6.58461C27.9897 6.58461 28.7417 6.88328 29.243 7.48061C29.7443 8.06728 29.995 8.85661 29.995 9.84861V15.0006H28.283V10.0726C28.283 9.41128 28.1177 8.93128 27.787 8.63261C27.4563 8.32328 27.0243 8.16861 26.491 8.16861C26.075 8.16861 25.7123 8.28594 25.403 8.52061C25.0937 8.74461 24.8483 9.04328 24.667 9.41661C24.4963 9.78994 24.411 10.1899 24.411 10.6166V15.0006H22.683ZM35.8423 15.2566C35.0423 15.2566 34.3276 15.0699 33.6983 14.6966C33.0689 14.3233 32.5729 13.8113 32.2103 13.1606C31.8583 12.5099 31.6823 11.7686 31.6823 10.9366C31.6823 10.1579 31.8529 9.43794 32.1943 8.77661C32.5356 8.11528 33.0103 7.58728 33.6183 7.19261C34.2369 6.78728 34.9463 6.58461 35.7463 6.58461C36.5889 6.58461 37.3036 6.76594 37.8903 7.12861C38.4876 7.49128 38.9409 7.98728 39.2503 8.61661C39.5596 9.24594 39.7143 9.95528 39.7143 10.7446C39.7143 10.8619 39.7089 10.9686 39.6983 11.0646C39.6983 11.1606 39.6929 11.2353 39.6823 11.2886H33.3783C33.4209 11.7366 33.5329 12.1259 33.7143 12.4566C33.9489 12.8726 34.2583 13.1873 34.6423 13.4006C35.0263 13.6139 35.4423 13.7206 35.8903 13.7206C36.4343 13.7206 36.8876 13.5979 37.2503 13.3526C37.6236 13.0966 37.9169 12.7819 38.1303 12.4086L39.5543 13.0966C39.2023 13.7366 38.7223 14.2593 38.1143 14.6646C37.5063 15.0593 36.7489 15.2566 35.8423 15.2566ZM33.4743 9.99261H38.0023C37.9916 9.78994 37.9383 9.57661 37.8423 9.35261C37.7463 9.11794 37.6076 8.90461 37.4263 8.71261C37.2449 8.52061 37.0156 8.36594 36.7383 8.24861C36.4609 8.12061 36.1356 8.05661 35.7623 8.05661C35.2929 8.05661 34.8769 8.17928 34.5143 8.42461C34.1516 8.65928 33.8689 8.98994 33.6663 9.41661C33.5809 9.59794 33.5169 9.78994 33.4743 9.99261ZM41.4674 15.0006V6.84061H43.0994V8.04061H43.1954C43.3234 7.76328 43.5047 7.51794 43.7394 7.30461C43.9847 7.09128 44.262 6.92061 44.5714 6.79261C44.8914 6.66461 45.222 6.60061 45.5634 6.60061C45.7874 6.60061 45.974 6.61661 46.1234 6.64861C46.2834 6.66994 46.4274 6.70728 46.5554 6.76061V8.55261C46.3527 8.46728 46.1447 8.39794 45.9314 8.34461C45.7287 8.29128 45.5154 8.26461 45.2914 8.26461C44.886 8.26461 44.5234 8.37661 44.2034 8.60061C43.894 8.81394 43.6487 9.10194 43.4674 9.46461C43.286 9.82728 43.1954 10.2326 43.1954 10.6806V15.0006H41.4674ZM51.2829 15.2566C50.4829 15.2566 49.7682 15.0699 49.1389 14.6966C48.5095 14.3233 48.0135 13.8113 47.6509 13.1606C47.2989 12.5099 47.1229 11.7686 47.1229 10.9366C47.1229 10.1579 47.2935 9.43794 47.6349 8.77661C47.9762 8.11528 48.4509 7.58728 49.0589 7.19261C49.6775 6.78728 50.3869 6.58461 51.1869 6.58461C52.0295 6.58461 52.7442 6.76594 53.3309 7.12861C53.9282 7.49128 54.3815 7.98728 54.6909 8.61661C55.0002 9.24594 55.1549 9.95528 55.1549 10.7446C55.1549 10.8619 55.1495 10.9686 55.1389 11.0646C55.1389 11.1606 55.1335 11.2353 55.1229 11.2886H48.8189C48.8615 11.7366 48.9735 12.1259 49.1549 12.4566C49.3895 12.8726 49.6989 13.1873 50.0829 13.4006C50.4669 13.6139 50.8829 13.7206 51.3309 13.7206C51.8749 13.7206 52.3282 13.5979 52.6909 13.3526C53.0642 13.0966 53.3575 12.7819 53.5709 12.4086L54.9949 13.0966C54.6429 13.7366 54.1629 14.2593 53.5549 14.6646C52.9469 15.0593 52.1895 15.2566 51.2829 15.2566ZM48.9149 9.99261H53.4429C53.4322 9.78994 53.3789 9.57661 53.2829 9.35261C53.1869 9.11794 53.0482 8.90461 52.8669 8.71261C52.6855 8.52061 52.4562 8.36594 52.1789 8.24861C51.9015 8.12061 51.5762 8.05661 51.2029 8.05661C50.7335 8.05661 50.3175 8.17928 49.9549 8.42461C49.5922 8.65928 49.3095 8.98994 49.1069 9.41661C49.0215 9.59794 48.9575 9.78994 48.9149 9.99261ZM56.908 15.0006V6.84061H58.54V7.96061H58.636C58.8707 7.56594 59.2173 7.24061 59.676 6.98461C60.1453 6.71794 60.6573 6.58461 61.212 6.58461C62.2147 6.58461 62.9667 6.88328 63.468 7.48061C63.9693 8.06728 64.22 8.85661 64.22 9.84861V15.0006H62.508V10.0726C62.508 9.41128 62.3427 8.93128 62.012 8.63261C61.6813 8.32328 61.2493 8.16861 60.716 8.16861C60.3 8.16861 59.9373 8.28594 59.628 8.52061C59.3187 8.74461 59.0733 9.04328 58.892 9.41661C58.7213 9.78994 58.636 10.1899 58.636 10.6166V15.0006H56.908ZM70.2236 15.0006V6.84061H71.8556V7.96061H71.9516C72.1116 7.69394 72.3196 7.45928 72.5756 7.25661C72.8316 7.05394 73.1196 6.89394 73.4396 6.77661C73.7703 6.64861 74.1116 6.58461 74.4636 6.58461C75.0716 6.58461 75.589 6.72861 76.0156 7.01661C76.4423 7.30461 76.7463 7.66728 76.9276 8.10461C77.1943 7.67794 77.557 7.32061 78.0156 7.03261C78.4743 6.73394 79.0343 6.58461 79.6956 6.58461C80.6556 6.58461 81.3703 6.87794 81.8396 7.46461C82.309 8.04061 82.5436 8.80861 82.5436 9.76861V15.0006H80.8316V10.0566C80.8316 9.39528 80.6876 8.91528 80.3996 8.61661C80.1223 8.31794 79.733 8.16861 79.2316 8.16861C78.837 8.16861 78.4903 8.28061 78.1916 8.50461C77.893 8.71794 77.6583 9.01128 77.4876 9.38461C77.3276 9.75794 77.2476 10.1739 77.2476 10.6326V15.0006H75.5356V10.0566C75.5356 9.40594 75.3916 8.93128 75.1036 8.63261C74.8156 8.32328 74.4103 8.16861 73.8876 8.16861C73.5143 8.16861 73.1783 8.28061 72.8796 8.50461C72.5916 8.72861 72.3623 9.02728 72.1916 9.40061C72.0316 9.77394 71.9516 10.1899 71.9516 10.6486V15.0006H70.2236ZM88.3672 15.2566C87.5672 15.2566 86.8526 15.0699 86.2232 14.6966C85.5939 14.3233 85.0979 13.8113 84.7352 13.1606C84.3832 12.5099 84.2072 11.7686 84.2072 10.9366C84.2072 10.1579 84.3779 9.43794 84.7192 8.77661C85.0606 8.11528 85.5352 7.58728 86.1432 7.19261C86.7619 6.78728 87.4712 6.58461 88.2712 6.58461C89.1139 6.58461 89.8286 6.76594 90.4152 7.12861C91.0126 7.49128 91.4659 7.98728 91.7752 8.61661C92.0846 9.24594 92.2392 9.95528 92.2392 10.7446C92.2392 10.8619 92.2339 10.9686 92.2232 11.0646C92.2232 11.1606 92.2179 11.2353 92.2072 11.2886H85.9032C85.9459 11.7366 86.0579 12.1259 86.2392 12.4566C86.4739 12.8726 86.7832 13.1873 87.1672 13.4006C87.5512 13.6139 87.9672 13.7206 88.4152 13.7206C88.9592 13.7206 89.4126 13.5979 89.7752 13.3526C90.1486 13.0966 90.4419 12.7819 90.6552 12.4086L92.0792 13.0966C91.7272 13.7366 91.2472 14.2593 90.6392 14.6646C90.0312 15.0593 89.2739 15.2566 88.3672 15.2566ZM85.9992 9.99261H90.5272C90.5166 9.78994 90.4632 9.57661 90.3672 9.35261C90.2712 9.11794 90.1326 8.90461 89.9512 8.71261C89.7699 8.52061 89.5406 8.36594 89.2632 8.24861C88.9859 8.12061 88.6606 8.05661 88.2872 8.05661C87.8179 8.05661 87.4019 8.17928 87.0392 8.42461C86.6766 8.65928 86.3939 8.98994 86.1912 9.41661C86.1059 9.59794 86.0419 9.78994 85.9992 9.99261ZM93.198 6.84061H94.622V4.53661H96.35V6.84061H98.35V8.34461H96.35V12.2646C96.35 12.6699 96.43 12.9793 96.59 13.1926C96.7607 13.4059 97.0433 13.5126 97.438 13.5126C97.63 13.5126 97.8007 13.4859 97.95 13.4326C98.0993 13.3686 98.2487 13.2939 98.398 13.2086V14.8886C98.2167 14.9633 98.0247 15.0219 97.822 15.0646C97.6193 15.1073 97.3793 15.1286 97.102 15.1286C96.3447 15.1286 95.742 14.9099 95.294 14.4726C94.846 14.0246 94.622 13.4113 94.622 12.6326V8.34461H93.198V6.84061Z" fill="white"/>
<g id="GPay (Dark)">
<g id="GPay">
<g id="Pay">
<path id="Fill 1" fill-rule="evenodd" clip-rule="evenodd" d="M127.356 3.42339V8.16175H130.278C130.974 8.16175 131.55 7.92781 132.005 7.45993C132.473 6.99313 132.707 6.43644 132.707 5.79203C132.707 5.16061 132.473 4.61041 132.005 4.14254C131.55 3.66274 130.974 3.4223 130.278 3.4223H127.356V3.42339ZM127.356 9.82966V15.3262H125.611V1.75549H130.24C131.417 1.75549 132.415 2.14756 133.238 2.93061C134.073 3.71365 134.491 4.66782 134.491 5.79203C134.491 6.94224 134.073 7.90291 133.238 8.67296C132.428 9.44409 131.429 9.82858 130.24 9.82858H127.356V9.82966Z" fill="white"/>
<path id="Fill 3" fill-rule="evenodd" clip-rule="evenodd" d="M136.255 12.4831C136.255 12.9379 136.448 13.317 136.834 13.6203C137.22 13.9235 137.672 14.0752 138.19 14.0752C138.924 14.0752 139.578 13.8032 140.153 13.2607C140.729 12.717 141.017 12.0791 141.017 11.3469C140.472 10.917 139.713 10.7025 138.74 10.7025C138.031 10.7025 137.44 10.8736 136.966 11.2148C136.492 11.5559 136.255 11.9773 136.255 12.4831M138.513 5.73566C139.803 5.73566 140.821 6.08007 141.569 6.76889C142.314 7.45771 142.687 8.40213 142.687 9.60216V15.3261H141.018V14.0373H140.942C140.221 15.0985 139.259 15.6294 138.058 15.6294C137.033 15.6294 136.176 15.3261 135.487 14.7196C134.797 14.1131 134.453 13.3549 134.453 12.4452C134.453 11.4845 134.816 10.7208 135.543 10.1523C136.271 9.58375 137.241 9.2989 138.456 9.2989C139.492 9.2989 140.346 9.48844 141.017 9.86751V9.46894C141.017 8.86243 140.776 8.34798 140.296 7.92451C139.814 7.50103 139.252 7.28984 138.607 7.28984C137.633 7.28984 136.862 7.70032 136.293 8.52235L134.755 7.55519C135.603 6.34217 136.855 5.73566 138.513 5.73566" fill="white"/>
<path id="Fill 5" fill-rule="evenodd" clip-rule="evenodd" d="M152.269 6.03894L146.443 19.4201H144.641L146.804 14.738L142.971 6.03894H144.869L147.639 12.7106H147.677L150.371 6.03894H152.269Z" fill="white"/>
</g>
<g id="G">
<path id="Fill 8" fill-rule="evenodd" clip-rule="evenodd" d="M120.303 8.64473C120.303 8.09563 120.256 7.56601 120.168 7.05914H112.806V10.0625H117.023C116.842 11.0414 116.294 11.8744 115.464 12.4322V14.3828H117.98C119.454 13.0246 120.303 11.0177 120.303 8.64473" fill="#4285F4"/>
<path id="Fill 10" fill-rule="evenodd" clip-rule="evenodd" d="M112.806 16.2651C114.913 16.2651 116.687 15.5741 117.98 14.3828L115.464 12.4322C114.763 12.9033 113.861 13.1784 112.806 13.1784C110.77 13.1784 109.042 11.8073 108.424 9.95959H105.832V11.9687C107.116 14.516 109.757 16.2651 112.806 16.2651" fill="#34A853"/>
<path id="Fill 12" fill-rule="evenodd" clip-rule="evenodd" d="M108.424 9.9596C108.266 9.48847 108.179 8.98593 108.179 8.46715C108.179 7.94837 108.266 7.44583 108.424 6.9747V4.96564H105.832C105.3 6.01837 105 7.20756 105 8.46715C105 9.72674 105.3 10.916 105.832 11.9687L108.424 9.9596Z" fill="#FABB05"/>
<path id="Fill 14" fill-rule="evenodd" clip-rule="evenodd" d="M112.806 3.75583C113.957 3.75583 114.988 4.15115 115.801 4.92553V4.92661L118.029 2.70094C116.676 1.44243 114.912 0.669128 112.806 0.669128C109.757 0.669128 107.116 2.41826 105.832 4.9656L108.424 6.97467C109.042 5.12698 110.77 3.75583 112.806 3.75583" fill="#E94235"/>
</g>
</g>
</g>
</g>
</svg>
