<svg width="268" height="38" viewBox="0 0 268 38" fill="none" xmlns="http://www.w3.org/2000/svg">
<g id="nl_donate_with_Light">
<path id="Text" d="M3.62738 30V9.952H10.0394C12.1487 9.952 13.9594 10.3813 15.4714 11.24C17.002 12.08 18.178 13.256 18.9994 14.768C19.8394 16.28 20.2594 18.016 20.2594 19.976C20.2594 21.9547 19.8394 23.7 18.9994 25.212C18.178 26.7053 17.002 27.8813 15.4714 28.74C13.9594 29.58 12.1487 30 10.0394 30H3.62738ZM6.70738 27.088H9.95538C12.2327 27.088 13.9967 26.4533 15.2474 25.184C16.5167 23.9147 17.1514 22.1787 17.1514 19.976C17.1514 17.7733 16.5167 16.0373 15.2474 14.768C13.9967 13.4987 12.2327 12.864 9.95538 12.864H6.70738V27.088ZM29.8856 30.448C28.4109 30.448 27.1136 30.112 25.9936 29.44C24.8736 28.768 23.9962 27.8627 23.3616 26.724C22.7269 25.5853 22.4096 24.2973 22.4096 22.86C22.4096 21.4413 22.7269 20.1627 23.3616 19.024C23.9962 17.8667 24.8736 16.952 25.9936 16.28C27.1136 15.608 28.4109 15.272 29.8856 15.272C31.3416 15.272 32.6296 15.608 33.7496 16.28C34.8696 16.952 35.7469 17.8667 36.3816 19.024C37.0162 20.1627 37.3336 21.4413 37.3336 22.86C37.3336 24.2973 37.0162 25.5853 36.3816 26.724C35.7469 27.8627 34.8696 28.768 33.7496 29.44C32.6296 30.112 31.3416 30.448 29.8856 30.448ZM29.8856 27.676C30.6696 27.676 31.3976 27.4893 32.0696 27.116C32.7416 26.724 33.2829 26.1733 33.6936 25.464C34.1229 24.736 34.3376 23.868 34.3376 22.86C34.3376 21.852 34.1229 20.9933 33.6936 20.284C33.2829 19.556 32.7416 19.0053 32.0696 18.632C31.3976 18.24 30.6696 18.044 29.8856 18.044C29.1016 18.044 28.3642 18.24 27.6736 18.632C27.0016 19.0053 26.4509 19.556 26.0216 20.284C25.6109 20.9933 25.4056 21.852 25.4056 22.86C25.4056 23.868 25.6109 24.736 26.0216 25.464C26.4509 26.1733 27.0016 26.724 27.6736 27.116C28.3642 27.4893 29.1016 27.676 29.8856 27.676ZM40.1452 30V15.72H43.0012V17.68H43.1692C43.5799 16.9893 44.1866 16.42 44.9892 15.972C45.8106 15.5053 46.7066 15.272 47.6772 15.272C49.4319 15.272 50.7479 15.7947 51.6252 16.84C52.5026 17.8853 52.9412 19.2667 52.9412 20.984V30H49.9452V21.376C49.9452 20.2187 49.6559 19.3787 49.0772 18.856C48.4986 18.3147 47.7426 18.044 46.8092 18.044C46.0812 18.044 45.4466 18.2493 44.9052 18.66C44.3639 19.052 43.9346 19.5747 43.6172 20.228C43.3186 20.8813 43.1692 21.5813 43.1692 22.328V30H40.1452ZM63.2114 30.448C61.8114 30.448 60.5608 30.1213 59.4594 29.468C58.3581 28.8147 57.4901 27.9187 56.8554 26.78C56.2394 25.6413 55.9314 24.344 55.9314 22.888C55.9314 21.5253 56.2301 20.2653 56.8274 19.108C57.4248 17.9507 58.2554 17.0267 59.3194 16.336C60.4021 15.6267 61.6434 15.272 63.0434 15.272C64.5181 15.272 65.7688 15.5893 66.7954 16.224C67.8408 16.8587 68.6341 17.7267 69.1754 18.828C69.7168 19.9293 69.9874 21.1707 69.9874 22.552C69.9874 22.7573 69.9781 22.944 69.9594 23.112C69.9594 23.28 69.9501 23.4107 69.9314 23.504H58.8994C59.0488 24.9227 59.5434 25.9867 60.3834 26.696C61.2421 27.4053 62.2128 27.76 63.2954 27.76C64.2661 27.76 65.0688 27.5453 65.7034 27.116C66.3381 26.668 66.8421 26.1173 67.2154 25.464L69.7074 26.668C69.0914 27.788 68.2514 28.7027 67.1874 29.412C66.1234 30.1027 64.7981 30.448 63.2114 30.448ZM63.0714 17.848C62.0634 17.848 61.2048 18.156 60.4954 18.772C59.7861 19.388 59.3101 20.2093 59.0674 21.236H66.9914C66.9541 20.7507 66.7954 20.2467 66.5154 19.724C66.2354 19.2013 65.8061 18.7627 65.2274 18.408C64.6674 18.0347 63.9488 17.848 63.0714 17.848ZM73.0929 30V15.72H75.9489V17.82H76.1169C76.4342 17.092 76.9756 16.4947 77.7409 16.028C78.5249 15.5427 79.3649 15.3 80.2609 15.3C80.6529 15.3 80.9796 15.328 81.2409 15.384C81.5209 15.44 81.7729 15.5053 81.9969 15.58V18.716C81.6422 18.5667 81.2782 18.4453 80.9049 18.352C80.5502 18.2587 80.1769 18.212 79.7849 18.212C79.0756 18.212 78.4409 18.408 77.8809 18.8C77.3396 19.1733 76.9102 19.6867 76.5929 20.34C76.2756 20.9747 76.1169 21.6747 76.1169 22.44V30H73.0929ZM90.3075 30.448C88.9075 30.448 87.6569 30.1213 86.5555 29.468C85.4542 28.8147 84.5862 27.9187 83.9515 26.78C83.3355 25.6413 83.0275 24.344 83.0275 22.888C83.0275 21.5253 83.3262 20.2653 83.9235 19.108C84.5209 17.9507 85.3515 17.0267 86.4155 16.336C87.4982 15.6267 88.7395 15.272 90.1395 15.272C91.6142 15.272 92.8649 15.5893 93.8915 16.224C94.9369 16.8587 95.7302 17.7267 96.2715 18.828C96.8129 19.9293 97.0835 21.1707 97.0835 22.552C97.0835 22.7573 97.0742 22.944 97.0555 23.112C97.0555 23.28 97.0462 23.4107 97.0275 23.504H85.9955C86.1449 24.9227 86.6395 25.9867 87.4795 26.696C88.3382 27.4053 89.3089 27.76 90.3915 27.76C91.3622 27.76 92.1649 27.5453 92.7995 27.116C93.4342 26.668 93.9382 26.1173 94.3115 25.464L96.8035 26.668C96.1875 27.788 95.3475 28.7027 94.2835 29.412C93.2195 30.1027 91.8942 30.448 90.3075 30.448ZM90.1675 17.848C89.1595 17.848 88.3009 18.156 87.5915 18.772C86.8822 19.388 86.4062 20.2093 86.1635 21.236H94.0875C94.0502 20.7507 93.8915 20.2467 93.6115 19.724C93.3315 19.2013 92.9022 18.7627 92.3235 18.408C91.7635 18.0347 91.0449 17.848 90.1675 17.848ZM100.189 30V15.72H103.045V17.68H103.213C103.624 16.9893 104.23 16.42 105.033 15.972C105.854 15.5053 106.75 15.272 107.721 15.272C109.476 15.272 110.792 15.7947 111.669 16.84C112.546 17.8853 112.985 19.2667 112.985 20.984V30H109.989V21.376C109.989 20.2187 109.7 19.3787 109.121 18.856C108.542 18.3147 107.786 18.044 106.853 18.044C106.125 18.044 105.49 18.2493 104.949 18.66C104.408 19.052 103.978 19.5747 103.661 20.228C103.362 20.8813 103.213 21.5813 103.213 22.328V30H100.189ZM123.566 30V15.72H126.422V17.68H126.59C127.001 16.9893 127.598 16.42 128.382 15.972C129.166 15.5053 130.034 15.272 130.986 15.272C132.05 15.272 132.956 15.524 133.702 16.028C134.449 16.532 134.981 17.1667 135.298 17.932C135.765 17.1853 136.4 16.56 137.202 16.056C138.005 15.5333 138.985 15.272 140.142 15.272C141.822 15.272 143.073 15.7853 143.894 16.812C144.716 17.82 145.126 19.164 145.126 20.844V30H142.13V21.348C142.13 20.2093 141.878 19.3787 141.374 18.856C140.889 18.3147 140.208 18.044 139.33 18.044C138.64 18.044 138.033 18.24 137.51 18.632C136.988 19.0053 136.577 19.5187 136.278 20.172C135.998 20.8253 135.858 21.5533 135.858 22.356V30H132.862V21.348C132.862 20.2093 132.61 19.3787 132.106 18.856C131.602 18.3147 130.893 18.044 129.978 18.044C129.306 18.044 128.718 18.24 128.214 18.632C127.71 19.024 127.309 19.5467 127.01 20.2C126.73 20.8533 126.59 21.5813 126.59 22.384V30H123.566ZM155.355 30.448C153.955 30.448 152.705 30.1213 151.603 29.468C150.502 28.8147 149.634 27.9187 148.999 26.78C148.383 25.6413 148.075 24.344 148.075 22.888C148.075 21.5253 148.374 20.2653 148.971 19.108C149.569 17.9507 150.399 17.0267 151.463 16.336C152.546 15.6267 153.787 15.272 155.187 15.272C156.662 15.272 157.913 15.5893 158.939 16.224C159.985 16.8587 160.778 17.7267 161.319 18.828C161.861 19.9293 162.131 21.1707 162.131 22.552C162.131 22.7573 162.122 22.944 162.103 23.112C162.103 23.28 162.094 23.4107 162.075 23.504H151.043C151.193 24.9227 151.687 25.9867 152.527 26.696C153.386 27.4053 154.357 27.76 155.439 27.76C156.41 27.76 157.213 27.5453 157.847 27.116C158.482 26.668 158.986 26.1173 159.359 25.464L161.851 26.668C161.235 27.788 160.395 28.7027 159.331 29.412C158.267 30.1027 156.942 30.448 155.355 30.448ZM155.215 17.848C154.207 17.848 153.349 18.156 152.639 18.772C151.93 19.388 151.454 20.2093 151.211 21.236H159.135C159.098 20.7507 158.939 20.2467 158.659 19.724C158.379 19.2013 157.95 18.7627 157.371 18.408C156.811 18.0347 156.093 17.848 155.215 17.848ZM166.339 25.856V18.352H163.847V15.72H166.339V11.688H169.363V15.72H172.863V18.352H169.363V25.212C169.363 25.9213 169.503 26.4627 169.783 26.836C170.081 27.2093 170.576 27.396 171.267 27.396C171.621 27.396 171.92 27.3493 172.163 27.256C172.424 27.1627 172.685 27.032 172.947 26.864V29.804C172.629 29.9347 172.293 30.0373 171.939 30.112C171.584 30.1867 171.164 30.224 170.679 30.224C169.353 30.224 168.299 29.8413 167.515 29.076C166.731 28.292 166.339 27.2187 166.339 25.856Z" fill="#3C4043"/>
<g id="GPay Logo (Light)">
<g id="GPay">
<g id="Pay">
<path id="Fill 1" fill-rule="evenodd" clip-rule="evenodd" d="M224.529 9.44664V17.6128H229.565C230.765 17.6128 231.757 17.2096 232.541 16.4032C233.347 15.5988 233.75 14.6394 233.75 13.5288C233.75 12.4406 233.347 11.4924 232.541 10.686C231.757 9.85915 230.765 9.44478 229.565 9.44478H224.529V9.44664ZM224.529 20.4872V29.9599H221.521V6.57217H229.499C231.527 6.57217 233.248 7.24786 234.666 8.59737C236.105 9.94688 236.824 11.5913 236.824 13.5288C236.824 15.511 236.105 17.1667 234.666 18.4938C233.27 19.8227 231.547 20.4854 229.499 20.4854H224.529V20.4872Z" fill="#5F6368"/>
<path id="Fill 3" fill-rule="evenodd" clip-rule="evenodd" d="M239.864 25.0602C239.864 25.8442 240.197 26.4975 240.862 27.0201C241.527 27.5427 242.306 27.804 243.2 27.804C244.465 27.804 245.591 27.3354 246.584 26.4004C247.576 25.4634 248.071 24.364 248.071 23.1022C247.133 22.3612 245.825 21.9916 244.147 21.9916C242.925 21.9916 241.907 22.2865 241.09 22.8745C240.273 23.4623 239.864 24.1886 239.864 25.0602ZM243.756 13.4317C245.98 13.4317 247.735 14.0252 249.022 15.2124C250.308 16.3995 250.95 18.0271 250.95 20.0952V29.9599H248.073V27.7387H247.942C246.699 29.5677 245.042 30.4825 242.972 30.4825C241.206 30.4825 239.728 29.9599 238.541 28.9146C237.353 27.8694 236.759 26.5628 236.759 24.9949C236.759 23.3393 237.385 22.0232 238.638 21.0434C239.892 20.0635 241.565 19.5726 243.658 19.5726C245.444 19.5726 246.916 19.8992 248.071 20.5525V19.8656C248.071 18.8204 247.656 17.9338 246.829 17.204C245.999 16.4741 245.031 16.1102 243.919 16.1102C242.239 16.1102 240.911 16.8176 239.93 18.2343L237.28 16.5675C238.741 14.4769 240.899 13.4317 243.756 13.4317Z" fill="#5F6368"/>
<path id="Fill 5" fill-rule="evenodd" clip-rule="evenodd" d="M267.463 13.9543L257.424 37.0154H254.318L258.046 28.9464L251.44 13.9543H254.71L259.484 25.4522H259.55L264.193 13.9543H267.463Z" fill="#5F6368"/>
</g>
<g id="G">
<path id="Fill 8" fill-rule="evenodd" clip-rule="evenodd" d="M212.373 18.4452C212.373 17.4989 212.293 16.5861 212.141 15.7126H199.454V20.8885H206.72C206.408 22.5757 205.465 24.0112 204.033 24.9725V28.3341H208.37C210.91 25.9935 212.373 22.5348 212.373 18.4452Z" fill="#4285F4"/>
<path id="Fill 10" fill-rule="evenodd" clip-rule="evenodd" d="M199.454 31.5782C203.084 31.5782 206.141 30.3873 208.37 28.3341L204.033 24.9725C202.826 25.7844 201.272 26.2585 199.454 26.2585C195.944 26.2585 192.966 23.8955 191.901 20.7112H187.433V24.1736C189.647 28.5637 194.197 31.5782 199.454 31.5782Z" fill="#34A853"/>
<path id="Fill 12" fill-rule="evenodd" clip-rule="evenodd" d="M191.901 20.7111C191.628 19.8992 191.479 19.0331 191.479 18.139C191.479 17.245 191.628 16.3789 191.901 15.567V12.1045H187.433C186.518 13.9188 186 15.9683 186 18.139C186 20.3098 186.518 22.3595 187.433 24.1736L191.901 20.7111Z" fill="#FABB05"/>
<path id="Fill 14" fill-rule="evenodd" clip-rule="evenodd" d="M199.454 10.0196C201.436 10.0196 203.213 10.7009 204.615 12.0355V12.0374L208.455 8.20162C206.123 6.03271 203.082 4.7 199.454 4.7C194.197 4.7 189.647 7.71446 187.433 12.1046L191.901 15.567C192.966 12.3827 195.944 10.0196 199.454 10.0196Z" fill="#E94235"/>
</g>
</g>
</g>
</g>
</svg>
