<svg width="158" height="21" viewBox="0 0 158 21" fill="none" xmlns="http://www.w3.org/2000/svg">
<g id="nl_order_with_Pay_NBG">
<path id="Left Text" d="M2.121 15.0006V3.54461H6.409C7.03833 3.54461 7.609 3.67794 8.121 3.94461C8.633 4.21128 9.03833 4.57394 9.337 5.03261C9.64633 5.49128 9.801 6.00861 9.801 6.58461C9.801 7.17128 9.657 7.67261 9.369 8.08861C9.081 8.50461 8.70766 8.81928 8.249 9.03261V9.11261C8.825 9.30461 9.29433 9.63528 9.657 10.1046C10.0197 10.5739 10.201 11.1339 10.201 11.7846C10.201 12.4246 10.0357 12.9846 9.705 13.4646C9.385 13.9446 8.94766 14.3233 8.393 14.6006C7.849 14.8673 7.25166 15.0006 6.601 15.0006H2.121ZM3.881 9.92861V13.3686H6.601C6.985 13.3686 7.31566 13.2886 7.593 13.1286C7.87033 12.9686 8.07833 12.7553 8.217 12.4886C8.36633 12.2219 8.441 11.9446 8.441 11.6566C8.441 11.3473 8.36633 11.0646 8.217 10.8086C8.06766 10.5419 7.849 10.3286 7.561 10.1686C7.28366 10.0086 6.94233 9.92861 6.537 9.92861H3.881ZM3.881 8.36061H6.329C6.70233 8.36061 7.017 8.28594 7.273 8.13661C7.53966 7.97661 7.74233 7.77394 7.881 7.52861C8.01966 7.27261 8.089 7.01128 8.089 6.74461C8.089 6.47794 8.01966 6.22728 7.881 5.99261C7.753 5.74728 7.561 5.54994 7.305 5.40061C7.049 5.24061 6.745 5.16061 6.393 5.16061H3.881V8.36061ZM15.7266 15.2566C14.9266 15.2566 14.212 15.0699 13.5826 14.6966C12.9533 14.3233 12.4573 13.8113 12.0946 13.1606C11.7426 12.5099 11.5666 11.7686 11.5666 10.9366C11.5666 10.1579 11.7373 9.43794 12.0786 8.77661C12.42 8.11528 12.8946 7.58728 13.5026 7.19261C14.1213 6.78728 14.8306 6.58461 15.6306 6.58461C16.4733 6.58461 17.188 6.76594 17.7746 7.12861C18.372 7.49128 18.8253 7.98728 19.1346 8.61661C19.444 9.24594 19.5986 9.95528 19.5986 10.7446C19.5986 10.8619 19.5933 10.9686 19.5826 11.0646C19.5826 11.1606 19.5773 11.2353 19.5666 11.2886H13.2626C13.3053 11.7366 13.4173 12.1259 13.5986 12.4566C13.8333 12.8726 14.1426 13.1873 14.5266 13.4006C14.9106 13.6139 15.3266 13.7206 15.7746 13.7206C16.3186 13.7206 16.772 13.5979 17.1346 13.3526C17.508 13.0966 17.8013 12.7819 18.0146 12.4086L19.4386 13.0966C19.0866 13.7366 18.6066 14.2593 17.9986 14.6646C17.3906 15.0593 16.6333 15.2566 15.7266 15.2566ZM13.3586 9.99261H17.8866C17.876 9.78994 17.8226 9.57661 17.7266 9.35261C17.6306 9.11794 17.492 8.90461 17.3106 8.71261C17.1293 8.52061 16.9 8.36594 16.6226 8.24861C16.3453 8.12061 16.02 8.05661 15.6466 8.05661C15.1773 8.05661 14.7613 8.17928 14.3986 8.42461C14.036 8.65928 13.7533 8.98994 13.5506 9.41661C13.4653 9.59794 13.4013 9.78994 13.3586 9.99261ZM24.4059 15.2566C23.7552 15.2566 23.1899 15.1606 22.7099 14.9686C22.2299 14.7659 21.8352 14.4993 21.5259 14.1686C21.2165 13.8273 20.9872 13.4593 20.8379 13.0646L22.3899 12.3926C22.5819 12.8299 22.8539 13.1659 23.2059 13.4006C23.5685 13.6246 23.9845 13.7366 24.4539 13.7366C24.8805 13.7366 25.2485 13.6619 25.5579 13.5126C25.8672 13.3526 26.0219 13.0966 26.0219 12.7446C26.0219 12.5206 25.9472 12.3393 25.7979 12.2006C25.6592 12.0513 25.4672 11.9286 25.2219 11.8326C24.9872 11.7366 24.7152 11.6513 24.4059 11.5766L23.4299 11.3526C23.0459 11.2566 22.6779 11.1073 22.3259 10.9046C21.9845 10.6913 21.7072 10.4246 21.4939 10.1046C21.2805 9.78461 21.1739 9.40594 21.1739 8.96861C21.1739 8.47794 21.3125 8.05661 21.5899 7.70461C21.8779 7.34194 22.2619 7.06461 22.7419 6.87261C23.2219 6.68061 23.7392 6.58461 24.2939 6.58461C24.8059 6.58461 25.2699 6.65394 25.6859 6.79261C26.1125 6.92061 26.4805 7.11794 26.7899 7.38461C27.1099 7.64061 27.3605 7.96061 27.5419 8.34461L26.0539 9.01661C25.8725 8.65394 25.6272 8.40328 25.3179 8.26461C25.0085 8.11528 24.6725 8.04061 24.3099 8.04061C23.9045 8.04061 23.5632 8.12594 23.2859 8.29661C23.0192 8.45661 22.8859 8.66994 22.8859 8.93661C22.8859 9.21394 23.0032 9.43261 23.2379 9.59261C23.4832 9.75261 23.7819 9.88061 24.1339 9.97661L25.3179 10.2646C26.1285 10.4673 26.7365 10.7766 27.1419 11.1926C27.5472 11.5979 27.7499 12.0939 27.7499 12.6806C27.7499 13.2033 27.6005 13.6619 27.3019 14.0566C27.0032 14.4406 26.5979 14.7393 26.0859 14.9526C25.5845 15.1553 25.0245 15.2566 24.4059 15.2566ZM28.7699 6.84061H30.1939V4.53661H31.9219V6.84061H33.9219V8.34461H31.9219V12.2646C31.9219 12.6699 32.0019 12.9793 32.1619 13.1926C32.3325 13.4059 32.6152 13.5126 33.0099 13.5126C33.2019 13.5126 33.3725 13.4859 33.5219 13.4326C33.6712 13.3686 33.8205 13.2939 33.9699 13.2086V14.8886C33.7885 14.9633 33.5965 15.0219 33.3939 15.0646C33.1912 15.1073 32.9512 15.1286 32.6739 15.1286C31.9165 15.1286 31.3139 14.9099 30.8659 14.4726C30.4179 14.0246 30.1939 13.4113 30.1939 12.6326V8.34461H28.7699V6.84061ZM39.1454 15.2566C38.3454 15.2566 37.6307 15.0699 37.0014 14.6966C36.372 14.3233 35.876 13.8113 35.5134 13.1606C35.1614 12.5099 34.9854 11.7686 34.9854 10.9366C34.9854 10.1579 35.156 9.43794 35.4974 8.77661C35.8387 8.11528 36.3134 7.58728 36.9214 7.19261C37.54 6.78728 38.2494 6.58461 39.0494 6.58461C39.892 6.58461 40.6067 6.76594 41.1934 7.12861C41.7907 7.49128 42.244 7.98728 42.5534 8.61661C42.8627 9.24594 43.0174 9.95528 43.0174 10.7446C43.0174 10.8619 43.012 10.9686 43.0014 11.0646C43.0014 11.1606 42.996 11.2353 42.9854 11.2886H36.6814C36.724 11.7366 36.836 12.1259 37.0174 12.4566C37.252 12.8726 37.5614 13.1873 37.9454 13.4006C38.3294 13.6139 38.7454 13.7206 39.1934 13.7206C39.7374 13.7206 40.1907 13.5979 40.5534 13.3526C40.9267 13.0966 41.22 12.7819 41.4334 12.4086L42.8574 13.0966C42.5054 13.7366 42.0254 14.2593 41.4174 14.6646C40.8094 15.0593 40.052 15.2566 39.1454 15.2566ZM36.7774 9.99261H41.3054C41.2947 9.78994 41.2414 9.57661 41.1454 9.35261C41.0494 9.11794 40.9107 8.90461 40.7294 8.71261C40.548 8.52061 40.3187 8.36594 40.0414 8.24861C39.764 8.12061 39.4387 8.05661 39.0654 8.05661C38.596 8.05661 38.18 8.17928 37.8174 8.42461C37.4547 8.65928 37.172 8.98994 36.9694 9.41661C36.884 9.59794 36.82 9.78994 36.7774 9.99261ZM44.7865 15.0006V3.54461H46.5145V15.0006H44.7865ZM48.7177 15.0006V3.54461H50.4457V15.0006H48.7177ZM56.2829 15.2566C55.4829 15.2566 54.7682 15.0699 54.1389 14.6966C53.5095 14.3233 53.0135 13.8113 52.6509 13.1606C52.2989 12.5099 52.1229 11.7686 52.1229 10.9366C52.1229 10.1579 52.2935 9.43794 52.6349 8.77661C52.9762 8.11528 53.4509 7.58728 54.0589 7.19261C54.6775 6.78728 55.3869 6.58461 56.1869 6.58461C57.0295 6.58461 57.7442 6.76594 58.3309 7.12861C58.9282 7.49128 59.3815 7.98728 59.6909 8.61661C60.0002 9.24594 60.1549 9.95528 60.1549 10.7446C60.1549 10.8619 60.1495 10.9686 60.1389 11.0646C60.1389 11.1606 60.1335 11.2353 60.1229 11.2886H53.8189C53.8615 11.7366 53.9735 12.1259 54.1549 12.4566C54.3895 12.8726 54.6989 13.1873 55.0829 13.4006C55.4669 13.6139 55.8829 13.7206 56.3309 13.7206C56.8749 13.7206 57.3282 13.5979 57.6909 13.3526C58.0642 13.0966 58.3575 12.7819 58.5709 12.4086L59.9949 13.0966C59.6429 13.7366 59.1629 14.2593 58.5549 14.6646C57.9469 15.0593 57.1895 15.2566 56.2829 15.2566ZM53.9149 9.99261H58.4429C58.4322 9.78994 58.3789 9.57661 58.2829 9.35261C58.1869 9.11794 58.0482 8.90461 57.8669 8.71261C57.6855 8.52061 57.4562 8.36594 57.1789 8.24861C56.9015 8.12061 56.5762 8.05661 56.2029 8.05661C55.7335 8.05661 55.3175 8.17928 54.9549 8.42461C54.5922 8.65928 54.3095 8.98994 54.1069 9.41661C54.0215 9.59794 53.9575 9.78994 53.9149 9.99261ZM61.908 15.0006V6.84061H63.54V7.96061H63.636C63.8707 7.56594 64.2173 7.24061 64.676 6.98461C65.1453 6.71794 65.6573 6.58461 66.212 6.58461C67.2147 6.58461 67.9667 6.88328 68.468 7.48061C68.9693 8.06728 69.22 8.85661 69.22 9.84861V15.0006H67.508V10.0726C67.508 9.41128 67.3427 8.93128 67.012 8.63261C66.6813 8.32328 66.2493 8.16861 65.716 8.16861C65.3 8.16861 64.9373 8.28594 64.628 8.52061C64.3187 8.74461 64.0733 9.04328 63.892 9.41661C63.7213 9.78994 63.636 10.1899 63.636 10.6166V15.0006H61.908ZM75.2236 15.0006V6.84061H76.8556V7.96061H76.9516C77.1116 7.69394 77.3196 7.45928 77.5756 7.25661C77.8316 7.05394 78.1196 6.89394 78.4396 6.77661C78.7703 6.64861 79.1116 6.58461 79.4636 6.58461C80.0716 6.58461 80.589 6.72861 81.0156 7.01661C81.4423 7.30461 81.7463 7.66728 81.9276 8.10461C82.1943 7.67794 82.557 7.32061 83.0156 7.03261C83.4743 6.73394 84.0343 6.58461 84.6956 6.58461C85.6556 6.58461 86.3703 6.87794 86.8396 7.46461C87.309 8.04061 87.5436 8.80861 87.5436 9.76861V15.0006H85.8316V10.0566C85.8316 9.39528 85.6876 8.91528 85.3996 8.61661C85.1223 8.31794 84.733 8.16861 84.2316 8.16861C83.837 8.16861 83.4903 8.28061 83.1916 8.50461C82.893 8.71794 82.6583 9.01128 82.4876 9.38461C82.3276 9.75794 82.2476 10.1739 82.2476 10.6326V15.0006H80.5356V10.0566C80.5356 9.40594 80.3916 8.93128 80.1036 8.63261C79.8156 8.32328 79.4103 8.16861 78.8876 8.16861C78.5143 8.16861 78.1783 8.28061 77.8796 8.50461C77.5916 8.72861 77.3623 9.02728 77.1916 9.40061C77.0316 9.77394 76.9516 10.1899 76.9516 10.6486V15.0006H75.2236ZM93.3672 15.2566C92.5672 15.2566 91.8526 15.0699 91.2232 14.6966C90.5939 14.3233 90.0979 13.8113 89.7352 13.1606C89.3832 12.5099 89.2072 11.7686 89.2072 10.9366C89.2072 10.1579 89.3779 9.43794 89.7192 8.77661C90.0606 8.11528 90.5352 7.58728 91.1432 7.19261C91.7619 6.78728 92.4712 6.58461 93.2712 6.58461C94.1139 6.58461 94.8286 6.76594 95.4152 7.12861C96.0126 7.49128 96.4659 7.98728 96.7752 8.61661C97.0846 9.24594 97.2392 9.95528 97.2392 10.7446C97.2392 10.8619 97.2339 10.9686 97.2232 11.0646C97.2232 11.1606 97.2179 11.2353 97.2072 11.2886H90.9032C90.9459 11.7366 91.0579 12.1259 91.2392 12.4566C91.4739 12.8726 91.7832 13.1873 92.1672 13.4006C92.5512 13.6139 92.9672 13.7206 93.4152 13.7206C93.9592 13.7206 94.4126 13.5979 94.7752 13.3526C95.1486 13.0966 95.4419 12.7819 95.6552 12.4086L97.0792 13.0966C96.7272 13.7366 96.2472 14.2593 95.6392 14.6646C95.0312 15.0593 94.2739 15.2566 93.3672 15.2566ZM90.9992 9.99261H95.5272C95.5166 9.78994 95.4632 9.57661 95.3672 9.35261C95.2712 9.11794 95.1326 8.90461 94.9512 8.71261C94.7699 8.52061 94.5406 8.36594 94.2632 8.24861C93.9859 8.12061 93.6606 8.05661 93.2872 8.05661C92.8179 8.05661 92.4019 8.17928 92.0392 8.42461C91.6766 8.65928 91.3939 8.98994 91.1912 9.41661C91.1059 9.59794 91.0419 9.78994 90.9992 9.99261ZM98.198 6.84061H99.622V4.53661H101.35V6.84061H103.35V8.34461H101.35V12.2646C101.35 12.6699 101.43 12.9793 101.59 13.1926C101.761 13.4059 102.043 13.5126 102.438 13.5126C102.63 13.5126 102.801 13.4859 102.95 13.4326C103.099 13.3686 103.249 13.2939 103.398 13.2086V14.8886C103.217 14.9633 103.025 15.0219 102.822 15.0646C102.619 15.1073 102.379 15.1286 102.102 15.1286C101.345 15.1286 100.742 14.9099 100.294 14.4726C99.846 14.0246 99.622 13.4113 99.622 12.6326V8.34461H98.198V6.84061Z" fill="white"/>
<g id="GPay (Dark)">
<g id="GPay">
<g id="Pay">
<path id="Fill 1" fill-rule="evenodd" clip-rule="evenodd" d="M132.356 3.42339V8.16175H135.278C135.974 8.16175 136.55 7.92781 137.005 7.45993C137.473 6.99313 137.707 6.43644 137.707 5.79203C137.707 5.16061 137.473 4.61041 137.005 4.14254C136.55 3.66274 135.974 3.4223 135.278 3.4223H132.356V3.42339ZM132.356 9.82966V15.3262H130.611V1.75549H135.24C136.417 1.75549 137.415 2.14756 138.238 2.93061C139.073 3.71365 139.491 4.66782 139.491 5.79203C139.491 6.94224 139.073 7.90291 138.238 8.67296C137.428 9.44409 136.429 9.82858 135.24 9.82858H132.356V9.82966Z" fill="white"/>
<path id="Fill 3" fill-rule="evenodd" clip-rule="evenodd" d="M141.255 12.4831C141.255 12.9379 141.448 13.317 141.834 13.6203C142.22 13.9235 142.672 14.0752 143.19 14.0752C143.924 14.0752 144.578 13.8032 145.153 13.2607C145.729 12.717 146.017 12.0791 146.017 11.3469C145.472 10.917 144.713 10.7025 143.74 10.7025C143.031 10.7025 142.44 10.8736 141.966 11.2148C141.492 11.5559 141.255 11.9773 141.255 12.4831M143.513 5.73566C144.803 5.73566 145.821 6.08007 146.569 6.76889C147.314 7.45771 147.687 8.40213 147.687 9.60216V15.3261H146.018V14.0373H145.942C145.221 15.0985 144.259 15.6294 143.058 15.6294C142.033 15.6294 141.176 15.3261 140.487 14.7196C139.797 14.1131 139.453 13.3549 139.453 12.4452C139.453 11.4845 139.816 10.7208 140.543 10.1523C141.271 9.58375 142.241 9.2989 143.456 9.2989C144.492 9.2989 145.346 9.48844 146.017 9.86751V9.46894C146.017 8.86243 145.776 8.34798 145.296 7.92451C144.814 7.50103 144.252 7.28984 143.607 7.28984C142.633 7.28984 141.862 7.70032 141.293 8.52235L139.755 7.55519C140.603 6.34217 141.855 5.73566 143.513 5.73566" fill="white"/>
<path id="Fill 5" fill-rule="evenodd" clip-rule="evenodd" d="M157.269 6.03894L151.443 19.4201H149.641L151.804 14.738L147.971 6.03894H149.869L152.639 12.7106H152.677L155.371 6.03894H157.269Z" fill="white"/>
</g>
<g id="G">
<path id="Fill 8" fill-rule="evenodd" clip-rule="evenodd" d="M125.303 8.64473C125.303 8.09563 125.256 7.56601 125.168 7.05914H117.806V10.0625H122.023C121.842 11.0414 121.294 11.8744 120.464 12.4322V14.3828H122.98C124.454 13.0246 125.303 11.0177 125.303 8.64473" fill="#4285F4"/>
<path id="Fill 10" fill-rule="evenodd" clip-rule="evenodd" d="M117.806 16.2651C119.913 16.2651 121.687 15.5741 122.98 14.3828L120.464 12.4322C119.763 12.9033 118.861 13.1784 117.806 13.1784C115.77 13.1784 114.042 11.8073 113.424 9.95959H110.832V11.9687C112.116 14.516 114.757 16.2651 117.806 16.2651" fill="#34A853"/>
<path id="Fill 12" fill-rule="evenodd" clip-rule="evenodd" d="M113.424 9.9596C113.266 9.48847 113.179 8.98593 113.179 8.46715C113.179 7.94837 113.266 7.44583 113.424 6.9747V4.96564H110.832C110.3 6.01837 110 7.20756 110 8.46715C110 9.72674 110.3 10.916 110.832 11.9687L113.424 9.9596Z" fill="#FABB05"/>
<path id="Fill 14" fill-rule="evenodd" clip-rule="evenodd" d="M117.806 3.75583C118.957 3.75583 119.988 4.15115 120.801 4.92553V4.92661L123.029 2.70094C121.676 1.44243 119.912 0.669128 117.806 0.669128C114.757 0.669128 112.116 2.41826 110.832 4.9656L113.424 6.97467C114.042 5.12698 115.77 3.75583 117.806 3.75583" fill="#E94235"/>
</g>
</g>
</g>
</g>
</svg>
