<svg width="276" height="38" viewBox="0 0 276 38" fill="none" xmlns="http://www.w3.org/2000/svg">
<g id="nl_order_with_Light">
<path id="Text" d="M3.26174 30V9.952H10.7657C11.8484 9.952 12.8377 10.1853 13.7337 10.652C14.6484 11.1187 15.3671 11.7533 15.8897 12.556C16.4311 13.3587 16.7017 14.264 16.7017 15.272C16.7017 16.2987 16.4404 17.176 15.9177 17.904C15.4137 18.632 14.7697 19.1827 13.9857 19.556V19.696C14.9937 20.0507 15.8151 20.6387 16.4497 21.46C17.0844 22.2627 17.4017 23.2333 17.4017 24.372C17.4017 25.492 17.1124 26.4813 16.5337 27.34C15.9737 28.18 15.2084 28.8333 14.2377 29.3C13.2857 29.7667 12.2404 30 11.1017 30H3.26174ZM10.7377 12.78H6.34174V18.38H10.6257C11.5964 18.38 12.3524 18.0907 12.8937 17.512C13.4351 16.9147 13.7057 16.2613 13.7057 15.552C13.7057 14.8613 13.4444 14.2267 12.9217 13.648C12.3991 13.0693 11.6711 12.78 10.7377 12.78ZM6.34174 27.144H11.1017C12.1097 27.144 12.8937 26.8453 13.4537 26.248C14.0324 25.632 14.3217 24.932 14.3217 24.148C14.3217 23.364 14.0324 22.664 13.4537 22.048C12.8751 21.432 12.0537 21.124 10.9897 21.124H6.34174V27.144ZM27.1091 30.448C25.7091 30.448 24.4584 30.1213 23.3571 29.468C22.2558 28.8147 21.3878 27.9187 20.7531 26.78C20.1371 25.6413 19.8291 24.344 19.8291 22.888C19.8291 21.5253 20.1278 20.2653 20.7251 19.108C21.3224 17.9507 22.1531 17.0267 23.2171 16.336C24.2998 15.6267 25.5411 15.272 26.9411 15.272C28.4158 15.272 29.6664 15.5893 30.6931 16.224C31.7384 16.8587 32.5318 17.7267 33.0731 18.828C33.6144 19.9293 33.8851 21.1707 33.8851 22.552C33.8851 22.7573 33.8758 22.944 33.8571 23.112C33.8571 23.28 33.8478 23.4107 33.8291 23.504H22.7971C22.9464 24.9227 23.4411 25.9867 24.2811 26.696C25.1398 27.4053 26.1104 27.76 27.1931 27.76C28.1638 27.76 28.9664 27.5453 29.6011 27.116C30.2358 26.668 30.7398 26.1173 31.1131 25.464L33.6051 26.668C32.9891 27.788 32.1491 28.7027 31.0851 29.412C30.0211 30.1027 28.6958 30.448 27.1091 30.448ZM26.9691 17.848C25.9611 17.848 25.1024 18.156 24.3931 18.772C23.6838 19.388 23.2078 20.2093 22.9651 21.236H30.8891C30.8518 20.7507 30.6931 20.2467 30.4131 19.724C30.1331 19.2013 29.7038 18.7627 29.1251 18.408C28.5651 18.0347 27.8464 17.848 26.9691 17.848ZM42.3353 30.448C40.6179 30.448 39.2459 30.0747 38.2193 29.328C37.1926 28.5627 36.4833 27.6573 36.0913 26.612L38.8073 25.436C39.1433 26.2013 39.6286 26.7893 40.2633 27.2C40.8979 27.592 41.6166 27.788 42.4193 27.788C43.1659 27.788 43.8099 27.6573 44.3513 27.396C44.8926 27.116 45.1633 26.668 45.1633 26.052C45.1633 25.4547 44.8926 25.016 44.3513 24.736C43.8099 24.456 43.1379 24.2133 42.3353 24.008L40.6273 23.616C39.9366 23.448 39.2926 23.1867 38.6953 22.832C38.0979 22.4773 37.6126 22.02 37.2393 21.46C36.8659 20.8813 36.6793 20.2093 36.6793 19.444C36.6793 18.604 36.9313 17.876 37.4353 17.26C37.9393 16.6253 38.6019 16.14 39.4233 15.804C40.2633 15.4493 41.1686 15.272 42.1393 15.272C43.4646 15.272 44.6219 15.5333 45.6113 16.056C46.6193 16.56 47.3566 17.3253 47.8233 18.352L45.2193 19.528C44.8833 18.8933 44.4446 18.4547 43.9033 18.212C43.3806 17.9507 42.8019 17.82 42.1673 17.82C41.4579 17.82 40.8606 17.9693 40.3753 18.268C39.9086 18.5667 39.6753 18.94 39.6753 19.388C39.6753 19.8733 39.8806 20.256 40.2913 20.536C40.7206 20.816 41.2433 21.04 41.8593 21.208L43.9313 21.712C45.3499 22.0667 46.4139 22.608 47.1233 23.336C47.8326 24.0453 48.1873 24.9133 48.1873 25.94C48.1873 26.8547 47.9259 27.6573 47.4033 28.348C46.8806 29.02 46.1713 29.5427 45.2753 29.916C44.3979 30.2707 43.4179 30.448 42.3353 30.448ZM52.5018 25.856V18.352H50.0098V15.72H52.5018V11.688H55.5258V15.72H59.0258V18.352H55.5258V25.212C55.5258 25.9213 55.6658 26.4627 55.9458 26.836C56.2444 27.2093 56.7391 27.396 57.4298 27.396C57.7844 27.396 58.0831 27.3493 58.3258 27.256C58.5871 27.1627 58.8484 27.032 59.1098 26.864V29.804C58.7924 29.9347 58.4564 30.0373 58.1018 30.112C57.7471 30.1867 57.3271 30.224 56.8418 30.224C55.5164 30.224 54.4618 29.8413 53.6778 29.076C52.8938 28.292 52.5018 27.2187 52.5018 25.856ZM68.2044 30.448C66.8044 30.448 65.5537 30.1213 64.4524 29.468C63.3511 28.8147 62.4831 27.9187 61.8484 26.78C61.2324 25.6413 60.9244 24.344 60.9244 22.888C60.9244 21.5253 61.2231 20.2653 61.8204 19.108C62.4177 17.9507 63.2484 17.0267 64.3124 16.336C65.3951 15.6267 66.6364 15.272 68.0364 15.272C69.5111 15.272 70.7617 15.5893 71.7884 16.224C72.8337 16.8587 73.6271 17.7267 74.1684 18.828C74.7097 19.9293 74.9804 21.1707 74.9804 22.552C74.9804 22.7573 74.9711 22.944 74.9524 23.112C74.9524 23.28 74.9431 23.4107 74.9244 23.504H63.8924C64.0417 24.9227 64.5364 25.9867 65.3764 26.696C66.2351 27.4053 67.2057 27.76 68.2884 27.76C69.2591 27.76 70.0617 27.5453 70.6964 27.116C71.3311 26.668 71.8351 26.1173 72.2084 25.464L74.7004 26.668C74.0844 27.788 73.2444 28.7027 72.1804 29.412C71.1164 30.1027 69.7911 30.448 68.2044 30.448ZM68.0644 17.848C67.0564 17.848 66.1977 18.156 65.4884 18.772C64.7791 19.388 64.3031 20.2093 64.0604 21.236H71.9844C71.9471 20.7507 71.7884 20.2467 71.5084 19.724C71.2284 19.2013 70.7991 18.7627 70.2204 18.408C69.6604 18.0347 68.9417 17.848 68.0644 17.848ZM78.1139 30V9.952H81.1379V30H78.1139ZM85.0311 30V9.952H88.0551V30H85.0311ZM98.3075 30.448C96.9075 30.448 95.6569 30.1213 94.5555 29.468C93.4542 28.8147 92.5862 27.9187 91.9515 26.78C91.3355 25.6413 91.0275 24.344 91.0275 22.888C91.0275 21.5253 91.3262 20.2653 91.9235 19.108C92.5209 17.9507 93.3515 17.0267 94.4155 16.336C95.4982 15.6267 96.7395 15.272 98.1395 15.272C99.6142 15.272 100.865 15.5893 101.892 16.224C102.937 16.8587 103.73 17.7267 104.272 18.828C104.813 19.9293 105.084 21.1707 105.084 22.552C105.084 22.7573 105.074 22.944 105.056 23.112C105.056 23.28 105.046 23.4107 105.028 23.504H93.9955C94.1449 24.9227 94.6395 25.9867 95.4795 26.696C96.3382 27.4053 97.3089 27.76 98.3915 27.76C99.3622 27.76 100.165 27.5453 100.8 27.116C101.434 26.668 101.938 26.1173 102.312 25.464L104.804 26.668C104.188 27.788 103.348 28.7027 102.284 29.412C101.22 30.1027 99.8942 30.448 98.3075 30.448ZM98.1675 17.848C97.1595 17.848 96.3009 18.156 95.5915 18.772C94.8822 19.388 94.4062 20.2093 94.1635 21.236H102.088C102.05 20.7507 101.892 20.2467 101.612 19.724C101.332 19.2013 100.902 18.7627 100.324 18.408C99.7635 18.0347 99.0449 17.848 98.1675 17.848ZM108.189 30V15.72H111.045V17.68H111.213C111.624 16.9893 112.23 16.42 113.033 15.972C113.854 15.5053 114.75 15.272 115.721 15.272C117.476 15.272 118.792 15.7947 119.669 16.84C120.546 17.8853 120.985 19.2667 120.985 20.984V30H117.989V21.376C117.989 20.2187 117.7 19.3787 117.121 18.856C116.542 18.3147 115.786 18.044 114.853 18.044C114.125 18.044 113.49 18.2493 112.949 18.66C112.408 19.052 111.978 19.5747 111.661 20.228C111.362 20.8813 111.213 21.5813 111.213 22.328V30H108.189ZM131.566 30V15.72H134.422V17.68H134.59C135.001 16.9893 135.598 16.42 136.382 15.972C137.166 15.5053 138.034 15.272 138.986 15.272C140.05 15.272 140.956 15.524 141.702 16.028C142.449 16.532 142.981 17.1667 143.298 17.932C143.765 17.1853 144.4 16.56 145.202 16.056C146.005 15.5333 146.985 15.272 148.142 15.272C149.822 15.272 151.073 15.7853 151.894 16.812C152.716 17.82 153.126 19.164 153.126 20.844V30H150.13V21.348C150.13 20.2093 149.878 19.3787 149.374 18.856C148.889 18.3147 148.208 18.044 147.33 18.044C146.64 18.044 146.033 18.24 145.51 18.632C144.988 19.0053 144.577 19.5187 144.278 20.172C143.998 20.8253 143.858 21.5533 143.858 22.356V30H140.862V21.348C140.862 20.2093 140.61 19.3787 140.106 18.856C139.602 18.3147 138.893 18.044 137.978 18.044C137.306 18.044 136.718 18.24 136.214 18.632C135.71 19.024 135.309 19.5467 135.01 20.2C134.73 20.8533 134.59 21.5813 134.59 22.384V30H131.566ZM163.355 30.448C161.955 30.448 160.705 30.1213 159.603 29.468C158.502 28.8147 157.634 27.9187 156.999 26.78C156.383 25.6413 156.075 24.344 156.075 22.888C156.075 21.5253 156.374 20.2653 156.971 19.108C157.569 17.9507 158.399 17.0267 159.463 16.336C160.546 15.6267 161.787 15.272 163.187 15.272C164.662 15.272 165.913 15.5893 166.939 16.224C167.985 16.8587 168.778 17.7267 169.319 18.828C169.861 19.9293 170.131 21.1707 170.131 22.552C170.131 22.7573 170.122 22.944 170.103 23.112C170.103 23.28 170.094 23.4107 170.075 23.504H159.043C159.193 24.9227 159.687 25.9867 160.527 26.696C161.386 27.4053 162.357 27.76 163.439 27.76C164.41 27.76 165.213 27.5453 165.847 27.116C166.482 26.668 166.986 26.1173 167.359 25.464L169.851 26.668C169.235 27.788 168.395 28.7027 167.331 29.412C166.267 30.1027 164.942 30.448 163.355 30.448ZM163.215 17.848C162.207 17.848 161.349 18.156 160.639 18.772C159.93 19.388 159.454 20.2093 159.211 21.236H167.135C167.098 20.7507 166.939 20.2467 166.659 19.724C166.379 19.2013 165.95 18.7627 165.371 18.408C164.811 18.0347 164.093 17.848 163.215 17.848ZM174.339 25.856V18.352H171.847V15.72H174.339V11.688H177.363V15.72H180.863V18.352H177.363V25.212C177.363 25.9213 177.503 26.4627 177.783 26.836C178.081 27.2093 178.576 27.396 179.267 27.396C179.621 27.396 179.92 27.3493 180.163 27.256C180.424 27.1627 180.685 27.032 180.947 26.864V29.804C180.629 29.9347 180.293 30.0373 179.939 30.112C179.584 30.1867 179.164 30.224 178.679 30.224C177.353 30.224 176.299 29.8413 175.515 29.076C174.731 28.292 174.339 27.2187 174.339 25.856Z" fill="#3C4043"/>
<g id="GPay Logo (Light)">
<g id="GPay">
<g id="Pay">
<path id="Fill 1" fill-rule="evenodd" clip-rule="evenodd" d="M232.529 9.44664V17.6128H237.565C238.765 17.6128 239.757 17.2096 240.541 16.4032C241.347 15.5988 241.75 14.6394 241.75 13.5288C241.75 12.4406 241.347 11.4924 240.541 10.686C239.757 9.85915 238.765 9.44478 237.565 9.44478H232.529V9.44664ZM232.529 20.4872V29.9599H229.521V6.57217H237.499C239.527 6.57217 241.248 7.24786 242.666 8.59737C244.105 9.94688 244.824 11.5913 244.824 13.5288C244.824 15.511 244.105 17.1667 242.666 18.4938C241.27 19.8227 239.547 20.4854 237.499 20.4854H232.529V20.4872Z" fill="#5F6368"/>
<path id="Fill 3" fill-rule="evenodd" clip-rule="evenodd" d="M247.864 25.0602C247.864 25.8442 248.197 26.4975 248.862 27.0201C249.527 27.5427 250.306 27.804 251.2 27.804C252.465 27.804 253.591 27.3354 254.584 26.4004C255.576 25.4634 256.071 24.364 256.071 23.1022C255.133 22.3612 253.825 21.9916 252.147 21.9916C250.925 21.9916 249.907 22.2865 249.09 22.8745C248.273 23.4623 247.864 24.1886 247.864 25.0602ZM251.756 13.4317C253.98 13.4317 255.735 14.0252 257.022 15.2124C258.308 16.3995 258.95 18.0271 258.95 20.0952V29.9599H256.073V27.7387H255.942C254.699 29.5677 253.042 30.4825 250.972 30.4825C249.206 30.4825 247.728 29.9599 246.541 28.9146C245.353 27.8694 244.759 26.5628 244.759 24.9949C244.759 23.3393 245.385 22.0232 246.638 21.0434C247.892 20.0635 249.565 19.5726 251.658 19.5726C253.444 19.5726 254.916 19.8992 256.071 20.5525V19.8656C256.071 18.8204 255.656 17.9338 254.829 17.204C253.999 16.4741 253.031 16.1102 251.919 16.1102C250.239 16.1102 248.911 16.8176 247.93 18.2343L245.28 16.5675C246.741 14.4769 248.899 13.4317 251.756 13.4317Z" fill="#5F6368"/>
<path id="Fill 5" fill-rule="evenodd" clip-rule="evenodd" d="M275.463 13.9543L265.424 37.0154H262.318L266.046 28.9464L259.44 13.9543H262.71L267.484 25.4522H267.55L272.193 13.9543H275.463Z" fill="#5F6368"/>
</g>
<g id="G">
<path id="Fill 8" fill-rule="evenodd" clip-rule="evenodd" d="M220.373 18.4452C220.373 17.4989 220.293 16.5861 220.141 15.7126H207.454V20.8885H214.72C214.408 22.5757 213.465 24.0112 212.033 24.9725V28.3341H216.37C218.91 25.9935 220.373 22.5348 220.373 18.4452Z" fill="#4285F4"/>
<path id="Fill 10" fill-rule="evenodd" clip-rule="evenodd" d="M207.454 31.5782C211.084 31.5782 214.141 30.3873 216.37 28.3341L212.033 24.9725C210.826 25.7844 209.272 26.2585 207.454 26.2585C203.944 26.2585 200.966 23.8955 199.901 20.7112H195.433V24.1736C197.647 28.5637 202.197 31.5782 207.454 31.5782Z" fill="#34A853"/>
<path id="Fill 12" fill-rule="evenodd" clip-rule="evenodd" d="M199.901 20.7111C199.628 19.8992 199.479 19.0331 199.479 18.139C199.479 17.245 199.628 16.3789 199.901 15.567V12.1045H195.433C194.518 13.9188 194 15.9683 194 18.139C194 20.3098 194.518 22.3595 195.433 24.1736L199.901 20.7111Z" fill="#FABB05"/>
<path id="Fill 14" fill-rule="evenodd" clip-rule="evenodd" d="M207.454 10.0196C209.436 10.0196 211.213 10.7009 212.615 12.0355V12.0374L216.455 8.20162C214.123 6.03271 211.082 4.7 207.454 4.7C202.197 4.7 197.647 7.71446 195.433 12.1046L199.901 15.567C200.966 12.3827 203.944 10.0196 207.454 10.0196Z" fill="#E94235"/>
</g>
</g>
</g>
</g>
</svg>
