<svg width="172" height="21" viewBox="0 0 172 21" fill="none" xmlns="http://www.w3.org/2000/svg">
<g id="nl_subscribe_with_Pay_NBG">
<path id="Left Text" d="M0.502497 15.0006L4.8225 3.54461H6.8225L11.1585 15.0006H9.2225L8.1665 12.0566H3.4945L2.4385 15.0006H0.502497ZM7.5745 10.4246L6.3105 6.92061L5.8785 5.60861H5.7825L5.3505 6.92061L4.0865 10.4246H7.5745ZM16.9131 15.2566C16.4971 15.2566 16.1185 15.1926 15.7771 15.0646C15.4358 14.9366 15.1371 14.7713 14.8811 14.5686C14.6358 14.3553 14.4385 14.1366 14.2891 13.9126H14.1931V15.0006H12.5611V3.54461H14.2891V6.80861L14.1931 7.94461H14.2891C14.4385 7.70994 14.6358 7.49128 14.8811 7.28861C15.1371 7.07528 15.4358 6.90461 15.7771 6.77661C16.1185 6.64861 16.4971 6.58461 16.9131 6.58461C17.6598 6.58461 18.3265 6.77128 18.9131 7.14461C19.4998 7.51794 19.9638 8.02994 20.3051 8.68061C20.6571 9.33128 20.8331 10.0779 20.8331 10.9206C20.8331 11.7633 20.6571 12.5099 20.3051 13.1606C19.9638 13.8113 19.4998 14.3233 18.9131 14.6966C18.3265 15.0699 17.6598 15.2566 16.9131 15.2566ZM16.6571 13.6726C17.0838 13.6726 17.4838 13.5606 17.8571 13.3366C18.2411 13.1126 18.5451 12.7926 18.7691 12.3766C19.0038 11.9606 19.1211 11.4753 19.1211 10.9206C19.1211 10.3553 19.0038 9.86994 18.7691 9.46461C18.5451 9.04861 18.2411 8.72861 17.8571 8.50461C17.4838 8.28061 17.0838 8.16861 16.6571 8.16861C16.2305 8.16861 15.8305 8.28061 15.4571 8.50461C15.0838 8.72861 14.7798 9.04861 14.5451 9.46461C14.3105 9.86994 14.1931 10.3553 14.1931 10.9206C14.1931 11.4859 14.3105 11.9766 14.5451 12.3926C14.7798 12.7979 15.0838 13.1126 15.4571 13.3366C15.8305 13.5606 16.2305 13.6726 16.6571 13.6726ZM26.4105 15.2566C25.5678 15.2566 24.8265 15.0646 24.1865 14.6806C23.5465 14.2966 23.0452 13.7793 22.6825 13.1286C22.3198 12.4673 22.1385 11.7313 22.1385 10.9206C22.1385 10.1099 22.3198 9.37928 22.6825 8.72861C23.0452 8.06728 23.5465 7.54461 24.1865 7.16061C24.8265 6.77661 25.5678 6.58461 26.4105 6.58461C27.2425 6.58461 27.9785 6.78194 28.6185 7.17661C29.2585 7.56061 29.7598 8.07794 30.1225 8.72861C30.4852 9.37928 30.6665 10.1099 30.6665 10.9206C30.6665 11.7313 30.4852 12.4673 30.1225 13.1286C29.7598 13.7793 29.2585 14.2966 28.6185 14.6806C27.9785 15.0646 27.2425 15.2566 26.4105 15.2566ZM26.4105 13.6726C26.8585 13.6726 27.2745 13.5659 27.6585 13.3526C28.0425 13.1286 28.3518 12.8139 28.5865 12.4086C28.8318 11.9926 28.9545 11.4966 28.9545 10.9206C28.9545 10.3446 28.8318 9.85394 28.5865 9.44861C28.3518 9.03261 28.0425 8.71794 27.6585 8.50461C27.2745 8.28061 26.8585 8.16861 26.4105 8.16861C25.9625 8.16861 25.5412 8.28061 25.1465 8.50461C24.7625 8.71794 24.4478 9.03261 24.2025 9.44861C23.9678 9.85394 23.8505 10.3446 23.8505 10.9206C23.8505 11.4966 23.9678 11.9926 24.2025 12.4086C24.4478 12.8139 24.7678 13.1286 25.1625 13.3526C25.5572 13.5659 25.9732 13.6726 26.4105 13.6726ZM32.2517 15.0006V6.84061H33.8837V7.96061H33.9797C34.2144 7.56594 34.5611 7.24061 35.0197 6.98461C35.4891 6.71794 36.0011 6.58461 36.5557 6.58461C37.5584 6.58461 38.3104 6.88328 38.8117 7.48061C39.3131 8.06728 39.5637 8.85661 39.5637 9.84861V15.0006H37.8517V10.0726C37.8517 9.41128 37.6864 8.93128 37.3557 8.63261C37.0251 8.32328 36.5931 8.16861 36.0597 8.16861C35.6437 8.16861 35.2811 8.28594 34.9717 8.52061C34.6624 8.74461 34.4171 9.04328 34.2357 9.41661C34.0651 9.78994 33.9797 10.1899 33.9797 10.6166V15.0006H32.2517ZM41.683 15.0006V6.84061H43.315V7.96061H43.411C43.6457 7.56594 43.9923 7.24061 44.451 6.98461C44.9203 6.71794 45.4323 6.58461 45.987 6.58461C46.9897 6.58461 47.7417 6.88328 48.243 7.48061C48.7443 8.06728 48.995 8.85661 48.995 9.84861V15.0006H47.283V10.0726C47.283 9.41128 47.1177 8.93128 46.787 8.63261C46.4563 8.32328 46.0243 8.16861 45.491 8.16861C45.075 8.16861 44.7123 8.28594 44.403 8.52061C44.0937 8.74461 43.8483 9.04328 43.667 9.41661C43.4963 9.78994 43.411 10.1899 43.411 10.6166V15.0006H41.683ZM54.8422 15.2566C54.0422 15.2566 53.3276 15.0699 52.6982 14.6966C52.0689 14.3233 51.5729 13.8113 51.2102 13.1606C50.8582 12.5099 50.6822 11.7686 50.6822 10.9366C50.6822 10.1579 50.8529 9.43794 51.1942 8.77661C51.5356 8.11528 52.0102 7.58728 52.6182 7.19261C53.2369 6.78728 53.9462 6.58461 54.7462 6.58461C55.5889 6.58461 56.3036 6.76594 56.8902 7.12861C57.4876 7.49128 57.9409 7.98728 58.2502 8.61661C58.5596 9.24594 58.7142 9.95528 58.7142 10.7446C58.7142 10.8619 58.7089 10.9686 58.6982 11.0646C58.6982 11.1606 58.6929 11.2353 58.6822 11.2886H52.3782C52.4209 11.7366 52.5329 12.1259 52.7142 12.4566C52.9489 12.8726 53.2582 13.1873 53.6422 13.4006C54.0262 13.6139 54.4422 13.7206 54.8902 13.7206C55.4342 13.7206 55.8876 13.5979 56.2502 13.3526C56.6236 13.0966 56.9169 12.7819 57.1302 12.4086L58.5542 13.0966C58.2022 13.7366 57.7222 14.2593 57.1142 14.6646C56.5062 15.0593 55.7489 15.2566 54.8422 15.2566ZM52.4742 9.99261H57.0022C56.9916 9.78994 56.9382 9.57661 56.8422 9.35261C56.7462 9.11794 56.6076 8.90461 56.4262 8.71261C56.2449 8.52061 56.0156 8.36594 55.7382 8.24861C55.4609 8.12061 55.1356 8.05661 54.7622 8.05661C54.2929 8.05661 53.8769 8.17928 53.5142 8.42461C53.1516 8.65928 52.8689 8.98994 52.6662 9.41661C52.5809 9.59794 52.5169 9.78994 52.4742 9.99261ZM60.4674 15.0006V6.84061H62.0994V8.04061H62.1954C62.3234 7.76328 62.5047 7.51794 62.7394 7.30461C62.9847 7.09128 63.262 6.92061 63.5714 6.79261C63.8914 6.66461 64.222 6.60061 64.5634 6.60061C64.7874 6.60061 64.974 6.61661 65.1234 6.64861C65.2834 6.66994 65.4274 6.70728 65.5554 6.76061V8.55261C65.3527 8.46728 65.1447 8.39794 64.9314 8.34461C64.7287 8.29128 64.5154 8.26461 64.2914 8.26461C63.886 8.26461 63.5234 8.37661 63.2034 8.60061C62.894 8.81394 62.6487 9.10194 62.4674 9.46461C62.286 9.82728 62.1954 10.2326 62.1954 10.6806V15.0006H60.4674ZM70.2829 15.2566C69.4829 15.2566 68.7682 15.0699 68.1389 14.6966C67.5095 14.3233 67.0135 13.8113 66.6509 13.1606C66.2989 12.5099 66.1229 11.7686 66.1229 10.9366C66.1229 10.1579 66.2935 9.43794 66.6349 8.77661C66.9762 8.11528 67.4509 7.58728 68.0589 7.19261C68.6775 6.78728 69.3869 6.58461 70.1869 6.58461C71.0295 6.58461 71.7442 6.76594 72.3309 7.12861C72.9282 7.49128 73.3815 7.98728 73.6909 8.61661C74.0002 9.24594 74.1549 9.95528 74.1549 10.7446C74.1549 10.8619 74.1495 10.9686 74.1389 11.0646C74.1389 11.1606 74.1335 11.2353 74.1229 11.2886H67.8189C67.8615 11.7366 67.9735 12.1259 68.1549 12.4566C68.3895 12.8726 68.6989 13.1873 69.0829 13.4006C69.4669 13.6139 69.8829 13.7206 70.3309 13.7206C70.8749 13.7206 71.3282 13.5979 71.6909 13.3526C72.0642 13.0966 72.3575 12.7819 72.5709 12.4086L73.9949 13.0966C73.6429 13.7366 73.1629 14.2593 72.5549 14.6646C71.9469 15.0593 71.1895 15.2566 70.2829 15.2566ZM67.9149 9.99261H72.4429C72.4322 9.78994 72.3789 9.57661 72.2829 9.35261C72.1869 9.11794 72.0482 8.90461 71.8669 8.71261C71.6855 8.52061 71.4562 8.36594 71.1789 8.24861C70.9015 8.12061 70.5762 8.05661 70.2029 8.05661C69.7335 8.05661 69.3175 8.17928 68.9549 8.42461C68.5922 8.65928 68.3095 8.98994 68.1069 9.41661C68.0215 9.59794 67.9575 9.78994 67.9149 9.99261ZM75.908 15.0006V6.84061H77.54V7.96061H77.636C77.8707 7.56594 78.2173 7.24061 78.676 6.98461C79.1453 6.71794 79.6573 6.58461 80.212 6.58461C81.2147 6.58461 81.9667 6.88328 82.468 7.48061C82.9693 8.06728 83.22 8.85661 83.22 9.84861V15.0006H81.508V10.0726C81.508 9.41128 81.3427 8.93128 81.012 8.63261C80.6813 8.32328 80.2493 8.16861 79.716 8.16861C79.3 8.16861 78.9373 8.28594 78.628 8.52061C78.3187 8.74461 78.0733 9.04328 77.892 9.41661C77.7213 9.78994 77.636 10.1899 77.636 10.6166V15.0006H75.908ZM89.2236 15.0006V6.84061H90.8556V7.96061H90.9516C91.1116 7.69394 91.3196 7.45928 91.5756 7.25661C91.8316 7.05394 92.1196 6.89394 92.4396 6.77661C92.7703 6.64861 93.1116 6.58461 93.4636 6.58461C94.0716 6.58461 94.589 6.72861 95.0156 7.01661C95.4423 7.30461 95.7463 7.66728 95.9276 8.10461C96.1943 7.67794 96.557 7.32061 97.0156 7.03261C97.4743 6.73394 98.0343 6.58461 98.6956 6.58461C99.6556 6.58461 100.37 6.87794 100.84 7.46461C101.309 8.04061 101.544 8.80861 101.544 9.76861V15.0006H99.8316V10.0566C99.8316 9.39528 99.6876 8.91528 99.3996 8.61661C99.1223 8.31794 98.733 8.16861 98.2316 8.16861C97.837 8.16861 97.4903 8.28061 97.1916 8.50461C96.893 8.71794 96.6583 9.01128 96.4876 9.38461C96.3276 9.75794 96.2476 10.1739 96.2476 10.6326V15.0006H94.5356V10.0566C94.5356 9.40594 94.3916 8.93128 94.1036 8.63261C93.8156 8.32328 93.4103 8.16861 92.8876 8.16861C92.5143 8.16861 92.1783 8.28061 91.8796 8.50461C91.5916 8.72861 91.3623 9.02728 91.1916 9.40061C91.0316 9.77394 90.9516 10.1899 90.9516 10.6486V15.0006H89.2236ZM107.367 15.2566C106.567 15.2566 105.853 15.0699 105.223 14.6966C104.594 14.3233 104.098 13.8113 103.735 13.1606C103.383 12.5099 103.207 11.7686 103.207 10.9366C103.207 10.1579 103.378 9.43794 103.719 8.77661C104.061 8.11528 104.535 7.58728 105.143 7.19261C105.762 6.78728 106.471 6.58461 107.271 6.58461C108.114 6.58461 108.829 6.76594 109.415 7.12861C110.013 7.49128 110.466 7.98728 110.775 8.61661C111.085 9.24594 111.239 9.95528 111.239 10.7446C111.239 10.8619 111.234 10.9686 111.223 11.0646C111.223 11.1606 111.218 11.2353 111.207 11.2886H104.903C104.946 11.7366 105.058 12.1259 105.239 12.4566C105.474 12.8726 105.783 13.1873 106.167 13.4006C106.551 13.6139 106.967 13.7206 107.415 13.7206C107.959 13.7206 108.413 13.5979 108.775 13.3526C109.149 13.0966 109.442 12.7819 109.655 12.4086L111.079 13.0966C110.727 13.7366 110.247 14.2593 109.639 14.6646C109.031 15.0593 108.274 15.2566 107.367 15.2566ZM104.999 9.99261H109.527C109.517 9.78994 109.463 9.57661 109.367 9.35261C109.271 9.11794 109.133 8.90461 108.951 8.71261C108.77 8.52061 108.541 8.36594 108.263 8.24861C107.986 8.12061 107.661 8.05661 107.287 8.05661C106.818 8.05661 106.402 8.17928 106.039 8.42461C105.677 8.65928 105.394 8.98994 105.191 9.41661C105.106 9.59794 105.042 9.78994 104.999 9.99261ZM112.198 6.84061H113.622V4.53661H115.35V6.84061H117.35V8.34461H115.35V12.2646C115.35 12.6699 115.43 12.9793 115.59 13.1926C115.761 13.4059 116.043 13.5126 116.438 13.5126C116.63 13.5126 116.801 13.4859 116.95 13.4326C117.099 13.3686 117.249 13.2939 117.398 13.2086V14.8886C117.217 14.9633 117.025 15.0219 116.822 15.0646C116.619 15.1073 116.379 15.1286 116.102 15.1286C115.345 15.1286 114.742 14.9099 114.294 14.4726C113.846 14.0246 113.622 13.4113 113.622 12.6326V8.34461H112.198V6.84061Z" fill="white"/>
<g id="GPay (Dark)">
<g id="GPay">
<g id="Pay">
<path id="Fill 1" fill-rule="evenodd" clip-rule="evenodd" d="M146.356 3.42339V8.16175H149.278C149.974 8.16175 150.55 7.92781 151.005 7.45993C151.473 6.99313 151.707 6.43644 151.707 5.79203C151.707 5.16061 151.473 4.61041 151.005 4.14254C150.55 3.66274 149.974 3.4223 149.278 3.4223H146.356V3.42339ZM146.356 9.82966V15.3262H144.611V1.75549H149.24C150.417 1.75549 151.415 2.14756 152.238 2.93061C153.073 3.71365 153.491 4.66782 153.491 5.79203C153.491 6.94224 153.073 7.90291 152.238 8.67296C151.428 9.44409 150.429 9.82858 149.24 9.82858H146.356V9.82966Z" fill="white"/>
<path id="Fill 3" fill-rule="evenodd" clip-rule="evenodd" d="M155.255 12.4831C155.255 12.9379 155.448 13.317 155.834 13.6203C156.22 13.9235 156.672 14.0752 157.19 14.0752C157.924 14.0752 158.578 13.8032 159.153 13.2607C159.729 12.717 160.017 12.0791 160.017 11.3469C159.472 10.917 158.713 10.7025 157.74 10.7025C157.031 10.7025 156.44 10.8736 155.966 11.2148C155.492 11.5559 155.255 11.9773 155.255 12.4831M157.513 5.73566C158.803 5.73566 159.821 6.08007 160.569 6.76889C161.314 7.45771 161.687 8.40213 161.687 9.60216V15.3261H160.018V14.0373H159.942C159.221 15.0985 158.259 15.6294 157.058 15.6294C156.033 15.6294 155.176 15.3261 154.487 14.7196C153.797 14.1131 153.453 13.3549 153.453 12.4452C153.453 11.4845 153.816 10.7208 154.543 10.1523C155.271 9.58375 156.241 9.2989 157.456 9.2989C158.492 9.2989 159.346 9.48844 160.017 9.86751V9.46894C160.017 8.86243 159.776 8.34798 159.296 7.92451C158.814 7.50103 158.252 7.28984 157.607 7.28984C156.633 7.28984 155.862 7.70032 155.293 8.52235L153.755 7.55519C154.603 6.34217 155.855 5.73566 157.513 5.73566" fill="white"/>
<path id="Fill 5" fill-rule="evenodd" clip-rule="evenodd" d="M171.269 6.03894L165.443 19.4201H163.641L165.804 14.738L161.971 6.03894H163.869L166.639 12.7106H166.677L169.371 6.03894H171.269Z" fill="white"/>
</g>
<g id="G">
<path id="Fill 8" fill-rule="evenodd" clip-rule="evenodd" d="M139.303 8.64473C139.303 8.09563 139.256 7.56601 139.168 7.05914H131.806V10.0625H136.023C135.842 11.0414 135.294 11.8744 134.464 12.4322V14.3828H136.98C138.454 13.0246 139.303 11.0177 139.303 8.64473" fill="#4285F4"/>
<path id="Fill 10" fill-rule="evenodd" clip-rule="evenodd" d="M131.806 16.2651C133.913 16.2651 135.687 15.5741 136.98 14.3828L134.464 12.4322C133.763 12.9033 132.861 13.1784 131.806 13.1784C129.77 13.1784 128.042 11.8073 127.424 9.95959H124.832V11.9687C126.116 14.516 128.757 16.2651 131.806 16.2651" fill="#34A853"/>
<path id="Fill 12" fill-rule="evenodd" clip-rule="evenodd" d="M127.424 9.9596C127.266 9.48847 127.179 8.98593 127.179 8.46715C127.179 7.94837 127.266 7.44583 127.424 6.9747V4.96564H124.832C124.3 6.01837 124 7.20756 124 8.46715C124 9.72674 124.3 10.916 124.832 11.9687L127.424 9.9596Z" fill="#FABB05"/>
<path id="Fill 14" fill-rule="evenodd" clip-rule="evenodd" d="M131.806 3.75583C132.957 3.75583 133.988 4.15115 134.801 4.92553V4.92661L137.029 2.70094C135.676 1.44243 133.912 0.669128 131.806 0.669128C128.757 0.669128 126.116 2.41826 124.832 4.9656L127.424 6.97467C128.042 5.12698 129.77 3.75583 131.806 3.75583" fill="#E94235"/>
</g>
</g>
</g>
</g>
</svg>
