<svg width="302" height="38" viewBox="0 0 302 38" fill="none" xmlns="http://www.w3.org/2000/svg">
<g id="nl_subscribe_with_Light">
<path id="Text" d="M1.92937 30L9.48937 9.952H12.9894L20.5774 30H17.1894L15.3414 24.848H7.16537L5.31737 30H1.92937ZM10.4134 15.86L8.20137 21.992H14.3054L12.0934 15.86L11.3374 13.564H11.1694L10.4134 15.86ZM30.6855 30.448C29.5841 30.448 28.6321 30.2147 27.8295 29.748C27.0455 29.2627 26.4668 28.712 26.0935 28.096H25.9255V30H23.0695V9.952H26.0935V15.664L25.9255 17.652H26.0935C26.4668 17.036 27.0455 16.4853 27.8295 16C28.6321 15.5147 29.5841 15.272 30.6855 15.272C31.9921 15.272 33.1588 15.5987 34.1855 16.252C35.2121 16.9053 36.0241 17.8013 36.6215 18.94C37.2375 20.0787 37.5455 21.3853 37.5455 22.86C37.5455 24.3347 37.2375 25.6507 36.6215 26.808C36.0241 27.9467 35.2121 28.8427 34.1855 29.496C33.1588 30.1307 31.9921 30.448 30.6855 30.448ZM30.2375 27.676C30.9841 27.676 31.6841 27.48 32.3375 27.088C32.9908 26.696 33.5228 26.1453 33.9335 25.436C34.3441 24.708 34.5495 23.8493 34.5495 22.86C34.5495 21.8707 34.3441 21.0213 33.9335 20.312C33.5228 19.584 32.9908 19.024 32.3375 18.632C31.6841 18.24 30.9841 18.044 30.2375 18.044C29.4908 18.044 28.7908 18.24 28.1375 18.632C27.4841 19.024 26.9521 19.584 26.5415 20.312C26.1308 21.0213 25.9255 21.8707 25.9255 22.86C25.9255 23.8493 26.1308 24.708 26.5415 25.436C26.9521 26.1453 27.4841 26.696 28.1375 27.088C28.7908 27.48 29.4908 27.676 30.2375 27.676ZM47.3434 30.448C45.8687 30.448 44.5714 30.112 43.4514 29.44C42.3314 28.768 41.454 27.8627 40.8194 26.724C40.1847 25.5853 39.8674 24.2973 39.8674 22.86C39.8674 21.4413 40.1847 20.1627 40.8194 19.024C41.454 17.8667 42.3314 16.952 43.4514 16.28C44.5714 15.608 45.8687 15.272 47.3434 15.272C48.7994 15.272 50.0874 15.608 51.2074 16.28C52.3274 16.952 53.2047 17.8667 53.8394 19.024C54.474 20.1627 54.7914 21.4413 54.7914 22.86C54.7914 24.2973 54.474 25.5853 53.8394 26.724C53.2047 27.8627 52.3274 28.768 51.2074 29.44C50.0874 30.112 48.7994 30.448 47.3434 30.448ZM47.3434 27.676C48.1274 27.676 48.8554 27.4893 49.5274 27.116C50.1994 26.724 50.7407 26.1733 51.1514 25.464C51.5807 24.736 51.7954 23.868 51.7954 22.86C51.7954 21.852 51.5807 20.9933 51.1514 20.284C50.7407 19.556 50.1994 19.0053 49.5274 18.632C48.8554 18.24 48.1274 18.044 47.3434 18.044C46.5594 18.044 45.822 18.24 45.1314 18.632C44.4594 19.0053 43.9087 19.556 43.4794 20.284C43.0687 20.9933 42.8634 21.852 42.8634 22.86C42.8634 23.868 43.0687 24.736 43.4794 25.464C43.9087 26.1733 44.4594 26.724 45.1314 27.116C45.822 27.4893 46.5594 27.676 47.3434 27.676ZM57.6031 30V15.72H60.4591V17.68H60.6271C61.0377 16.9893 61.6444 16.42 62.4471 15.972C63.2684 15.5053 64.1644 15.272 65.1351 15.272C66.8897 15.272 68.2057 15.7947 69.0831 16.84C69.9604 17.8853 70.3991 19.2667 70.3991 20.984V30H67.4031V21.376C67.4031 20.2187 67.1137 19.3787 66.5351 18.856C65.9564 18.3147 65.2004 18.044 64.2671 18.044C63.5391 18.044 62.9044 18.2493 62.3631 18.66C61.8217 19.052 61.3924 19.5747 61.0751 20.228C60.7764 20.8813 60.6271 21.5813 60.6271 22.328V30H57.6031ZM74.1452 30V15.72H77.0012V17.68H77.1692C77.5799 16.9893 78.1866 16.42 78.9892 15.972C79.8106 15.5053 80.7066 15.272 81.6772 15.272C83.4319 15.272 84.7479 15.7947 85.6252 16.84C86.5026 17.8853 86.9412 19.2667 86.9412 20.984V30H83.9452V21.376C83.9452 20.2187 83.6559 19.3787 83.0772 18.856C82.4986 18.3147 81.7426 18.044 80.8092 18.044C80.0812 18.044 79.4466 18.2493 78.9052 18.66C78.3639 19.052 77.9346 19.5747 77.6172 20.228C77.3186 20.8813 77.1692 21.5813 77.1692 22.328V30H74.1452ZM97.2114 30.448C95.8114 30.448 94.5608 30.1213 93.4594 29.468C92.3581 28.8147 91.4901 27.9187 90.8554 26.78C90.2394 25.6413 89.9314 24.344 89.9314 22.888C89.9314 21.5253 90.2301 20.2653 90.8274 19.108C91.4248 17.9507 92.2554 17.0267 93.3194 16.336C94.4021 15.6267 95.6434 15.272 97.0434 15.272C98.5181 15.272 99.7688 15.5893 100.795 16.224C101.841 16.8587 102.634 17.7267 103.175 18.828C103.717 19.9293 103.987 21.1707 103.987 22.552C103.987 22.7573 103.978 22.944 103.959 23.112C103.959 23.28 103.95 23.4107 103.931 23.504H92.8994C93.0488 24.9227 93.5434 25.9867 94.3834 26.696C95.2421 27.4053 96.2128 27.76 97.2954 27.76C98.2661 27.76 99.0688 27.5453 99.7034 27.116C100.338 26.668 100.842 26.1173 101.215 25.464L103.707 26.668C103.091 27.788 102.251 28.7027 101.187 29.412C100.123 30.1027 98.7981 30.448 97.2114 30.448ZM97.0714 17.848C96.0634 17.848 95.2048 18.156 94.4954 18.772C93.7861 19.388 93.3101 20.2093 93.0674 21.236H100.991C100.954 20.7507 100.795 20.2467 100.515 19.724C100.235 19.2013 99.8061 18.7627 99.2274 18.408C98.6674 18.0347 97.9488 17.848 97.0714 17.848ZM107.093 30V15.72H109.949V17.82H110.117C110.434 17.092 110.976 16.4947 111.741 16.028C112.525 15.5427 113.365 15.3 114.261 15.3C114.653 15.3 114.98 15.328 115.241 15.384C115.521 15.44 115.773 15.5053 115.997 15.58V18.716C115.642 18.5667 115.278 18.4453 114.905 18.352C114.55 18.2587 114.177 18.212 113.785 18.212C113.076 18.212 112.441 18.408 111.881 18.8C111.34 19.1733 110.91 19.6867 110.593 20.34C110.276 20.9747 110.117 21.6747 110.117 22.44V30H107.093ZM124.308 30.448C122.908 30.448 121.657 30.1213 120.556 29.468C119.454 28.8147 118.586 27.9187 117.952 26.78C117.336 25.6413 117.028 24.344 117.028 22.888C117.028 21.5253 117.326 20.2653 117.924 19.108C118.521 17.9507 119.352 17.0267 120.416 16.336C121.498 15.6267 122.74 15.272 124.14 15.272C125.614 15.272 126.865 15.5893 127.892 16.224C128.937 16.8587 129.73 17.7267 130.272 18.828C130.813 19.9293 131.084 21.1707 131.084 22.552C131.084 22.7573 131.074 22.944 131.056 23.112C131.056 23.28 131.046 23.4107 131.028 23.504H119.996C120.145 24.9227 120.64 25.9867 121.48 26.696C122.338 27.4053 123.309 27.76 124.392 27.76C125.362 27.76 126.165 27.5453 126.8 27.116C127.434 26.668 127.938 26.1173 128.312 25.464L130.804 26.668C130.188 27.788 129.348 28.7027 128.284 29.412C127.22 30.1027 125.894 30.448 124.308 30.448ZM124.168 17.848C123.16 17.848 122.301 18.156 121.592 18.772C120.882 19.388 120.406 20.2093 120.164 21.236H128.088C128.05 20.7507 127.892 20.2467 127.612 19.724C127.332 19.2013 126.902 18.7627 126.324 18.408C125.764 18.0347 125.045 17.848 124.168 17.848ZM134.189 30V15.72H137.045V17.68H137.213C137.624 16.9893 138.23 16.42 139.033 15.972C139.854 15.5053 140.75 15.272 141.721 15.272C143.476 15.272 144.792 15.7947 145.669 16.84C146.546 17.8853 146.985 19.2667 146.985 20.984V30H143.989V21.376C143.989 20.2187 143.7 19.3787 143.121 18.856C142.542 18.3147 141.786 18.044 140.853 18.044C140.125 18.044 139.49 18.2493 138.949 18.66C138.408 19.052 137.978 19.5747 137.661 20.228C137.362 20.8813 137.213 21.5813 137.213 22.328V30H134.189ZM157.566 30V15.72H160.422V17.68H160.59C161.001 16.9893 161.598 16.42 162.382 15.972C163.166 15.5053 164.034 15.272 164.986 15.272C166.05 15.272 166.956 15.524 167.702 16.028C168.449 16.532 168.981 17.1667 169.298 17.932C169.765 17.1853 170.4 16.56 171.202 16.056C172.005 15.5333 172.985 15.272 174.142 15.272C175.822 15.272 177.073 15.7853 177.894 16.812C178.716 17.82 179.126 19.164 179.126 20.844V30H176.13V21.348C176.13 20.2093 175.878 19.3787 175.374 18.856C174.889 18.3147 174.208 18.044 173.33 18.044C172.64 18.044 172.033 18.24 171.51 18.632C170.988 19.0053 170.577 19.5187 170.278 20.172C169.998 20.8253 169.858 21.5533 169.858 22.356V30H166.862V21.348C166.862 20.2093 166.61 19.3787 166.106 18.856C165.602 18.3147 164.893 18.044 163.978 18.044C163.306 18.044 162.718 18.24 162.214 18.632C161.71 19.024 161.309 19.5467 161.01 20.2C160.73 20.8533 160.59 21.5813 160.59 22.384V30H157.566ZM189.355 30.448C187.955 30.448 186.705 30.1213 185.603 29.468C184.502 28.8147 183.634 27.9187 182.999 26.78C182.383 25.6413 182.075 24.344 182.075 22.888C182.075 21.5253 182.374 20.2653 182.971 19.108C183.569 17.9507 184.399 17.0267 185.463 16.336C186.546 15.6267 187.787 15.272 189.187 15.272C190.662 15.272 191.913 15.5893 192.939 16.224C193.985 16.8587 194.778 17.7267 195.319 18.828C195.861 19.9293 196.131 21.1707 196.131 22.552C196.131 22.7573 196.122 22.944 196.103 23.112C196.103 23.28 196.094 23.4107 196.075 23.504H185.043C185.193 24.9227 185.687 25.9867 186.527 26.696C187.386 27.4053 188.357 27.76 189.439 27.76C190.41 27.76 191.213 27.5453 191.847 27.116C192.482 26.668 192.986 26.1173 193.359 25.464L195.851 26.668C195.235 27.788 194.395 28.7027 193.331 29.412C192.267 30.1027 190.942 30.448 189.355 30.448ZM189.215 17.848C188.207 17.848 187.349 18.156 186.639 18.772C185.93 19.388 185.454 20.2093 185.211 21.236H193.135C193.098 20.7507 192.939 20.2467 192.659 19.724C192.379 19.2013 191.95 18.7627 191.371 18.408C190.811 18.0347 190.093 17.848 189.215 17.848ZM200.339 25.856V18.352H197.847V15.72H200.339V11.688H203.363V15.72H206.863V18.352H203.363V25.212C203.363 25.9213 203.503 26.4627 203.783 26.836C204.081 27.2093 204.576 27.396 205.267 27.396C205.621 27.396 205.92 27.3493 206.163 27.256C206.424 27.1627 206.685 27.032 206.947 26.864V29.804C206.629 29.9347 206.293 30.0373 205.939 30.112C205.584 30.1867 205.164 30.224 204.679 30.224C203.353 30.224 202.299 29.8413 201.515 29.076C200.731 28.292 200.339 27.2187 200.339 25.856Z" fill="#3C4043"/>
<g id="GPay Logo (Light)">
<g id="GPay">
<g id="Pay">
<path id="Fill 1" fill-rule="evenodd" clip-rule="evenodd" d="M258.529 9.44664V17.6128H263.565C264.765 17.6128 265.757 17.2096 266.541 16.4032C267.347 15.5988 267.75 14.6394 267.75 13.5288C267.75 12.4406 267.347 11.4924 266.541 10.686C265.757 9.85915 264.765 9.44478 263.565 9.44478H258.529V9.44664ZM258.529 20.4872V29.9599H255.521V6.57217H263.499C265.527 6.57217 267.248 7.24786 268.666 8.59737C270.105 9.94688 270.824 11.5913 270.824 13.5288C270.824 15.511 270.105 17.1667 268.666 18.4938C267.27 19.8227 265.547 20.4854 263.499 20.4854H258.529V20.4872Z" fill="#5F6368"/>
<path id="Fill 3" fill-rule="evenodd" clip-rule="evenodd" d="M273.864 25.0602C273.864 25.8442 274.197 26.4975 274.862 27.0201C275.527 27.5427 276.306 27.804 277.2 27.804C278.465 27.804 279.591 27.3354 280.584 26.4004C281.576 25.4634 282.071 24.364 282.071 23.1022C281.133 22.3612 279.825 21.9916 278.147 21.9916C276.925 21.9916 275.907 22.2865 275.09 22.8745C274.273 23.4623 273.864 24.1886 273.864 25.0602ZM277.756 13.4317C279.98 13.4317 281.735 14.0252 283.022 15.2124C284.308 16.3995 284.95 18.0271 284.95 20.0952V29.9599H282.073V27.7387H281.942C280.699 29.5677 279.042 30.4825 276.972 30.4825C275.206 30.4825 273.728 29.9599 272.541 28.9146C271.353 27.8694 270.759 26.5628 270.759 24.9949C270.759 23.3393 271.385 22.0232 272.638 21.0434C273.892 20.0635 275.565 19.5726 277.658 19.5726C279.444 19.5726 280.916 19.8992 282.071 20.5525V19.8656C282.071 18.8204 281.656 17.9338 280.829 17.204C279.999 16.4741 279.031 16.1102 277.919 16.1102C276.239 16.1102 274.911 16.8176 273.93 18.2343L271.28 16.5675C272.741 14.4769 274.899 13.4317 277.756 13.4317Z" fill="#5F6368"/>
<path id="Fill 5" fill-rule="evenodd" clip-rule="evenodd" d="M301.463 13.9543L291.424 37.0154H288.318L292.046 28.9464L285.44 13.9543H288.71L293.484 25.4522H293.55L298.193 13.9543H301.463Z" fill="#5F6368"/>
</g>
<g id="G">
<path id="Fill 8" fill-rule="evenodd" clip-rule="evenodd" d="M246.373 18.4452C246.373 17.4989 246.293 16.5861 246.141 15.7126H233.454V20.8885H240.72C240.408 22.5757 239.465 24.0112 238.033 24.9725V28.3341H242.37C244.91 25.9935 246.373 22.5348 246.373 18.4452Z" fill="#4285F4"/>
<path id="Fill 10" fill-rule="evenodd" clip-rule="evenodd" d="M233.454 31.5782C237.084 31.5782 240.141 30.3873 242.37 28.3341L238.033 24.9725C236.826 25.7844 235.272 26.2585 233.454 26.2585C229.944 26.2585 226.966 23.8955 225.901 20.7112H221.433V24.1736C223.647 28.5637 228.197 31.5782 233.454 31.5782Z" fill="#34A853"/>
<path id="Fill 12" fill-rule="evenodd" clip-rule="evenodd" d="M225.901 20.7111C225.628 19.8992 225.479 19.0331 225.479 18.139C225.479 17.245 225.628 16.3789 225.901 15.567V12.1045H221.433C220.518 13.9188 220 15.9683 220 18.139C220 20.3098 220.518 22.3595 221.433 24.1736L225.901 20.7111Z" fill="#FABB05"/>
<path id="Fill 14" fill-rule="evenodd" clip-rule="evenodd" d="M233.454 10.0196C235.436 10.0196 237.213 10.7009 238.615 12.0355V12.0374L242.455 8.20162C240.123 6.03271 237.082 4.7 233.454 4.7C228.197 4.7 223.647 7.71446 221.433 12.1046L225.901 15.567C226.966 12.3827 229.944 10.0196 233.454 10.0196Z" fill="#E94235"/>
</g>
</g>
</g>
</g>
</svg>
