<svg width="238" height="38" viewBox="0 0 238 38" fill="none" xmlns="http://www.w3.org/2000/svg">
<g id="nl_view_in_Light">
<path id="Text" d="M4.11566 30V9.952H11.6197C12.7023 9.952 13.6917 10.1853 14.5877 10.652C15.5023 11.1187 16.221 11.7533 16.7437 12.556C17.285 13.3587 17.5557 14.264 17.5557 15.272C17.5557 16.2987 17.2943 17.176 16.7717 17.904C16.2677 18.632 15.6237 19.1827 14.8397 19.556V19.696C15.8477 20.0507 16.669 20.6387 17.3037 21.46C17.9383 22.2627 18.2557 23.2333 18.2557 24.372C18.2557 25.492 17.9663 26.4813 17.3877 27.34C16.8277 28.18 16.0623 28.8333 15.0917 29.3C14.1397 29.7667 13.0943 30 11.9557 30H4.11566ZM11.5917 12.78H7.19566V18.38H11.4797C12.4503 18.38 13.2063 18.0907 13.7477 17.512C14.289 16.9147 14.5597 16.2613 14.5597 15.552C14.5597 14.8613 14.2983 14.2267 13.7757 13.648C13.253 13.0693 12.525 12.78 11.5917 12.78ZM7.19566 27.144H11.9557C12.9637 27.144 13.7477 26.8453 14.3077 26.248C14.8863 25.632 15.1757 24.932 15.1757 24.148C15.1757 23.364 14.8863 22.664 14.3077 22.048C13.729 21.432 12.9077 21.124 11.8437 21.124H7.19566V27.144ZM27.963 30.448C26.563 30.448 25.3123 30.1213 24.211 29.468C23.1097 28.8147 22.2417 27.9187 21.607 26.78C20.991 25.6413 20.683 24.344 20.683 22.888C20.683 21.5253 20.9817 20.2653 21.579 19.108C22.1763 17.9507 23.007 17.0267 24.071 16.336C25.1537 15.6267 26.395 15.272 27.795 15.272C29.2697 15.272 30.5203 15.5893 31.547 16.224C32.5923 16.8587 33.3857 17.7267 33.927 18.828C34.4683 19.9293 34.739 21.1707 34.739 22.552C34.739 22.7573 34.7297 22.944 34.711 23.112C34.711 23.28 34.7017 23.4107 34.683 23.504H23.651C23.8003 24.9227 24.295 25.9867 25.135 26.696C25.9937 27.4053 26.9643 27.76 28.047 27.76C29.0177 27.76 29.8203 27.5453 30.455 27.116C31.0897 26.668 31.5937 26.1173 31.967 25.464L34.459 26.668C33.843 27.788 33.003 28.7027 31.939 29.412C30.875 30.1027 29.5497 30.448 27.963 30.448ZM27.823 17.848C26.815 17.848 25.9563 18.156 25.247 18.772C24.5377 19.388 24.0617 20.2093 23.819 21.236H31.743C31.7057 20.7507 31.547 20.2467 31.267 19.724C30.987 19.2013 30.5577 18.7627 29.979 18.408C29.419 18.0347 28.7003 17.848 27.823 17.848ZM37.8445 30V9.952H40.8685V21.768L46.9165 15.72H50.6685V15.888L45.1525 21.348L50.8645 29.832V30H47.2805L43.0245 23.448L40.8685 25.576V30H37.8445ZM54.7828 13.62C54.2228 13.62 53.7375 13.424 53.3268 13.032C52.9348 12.6213 52.7388 12.136 52.7388 11.576C52.7388 11.016 52.9348 10.54 53.3268 10.148C53.7375 9.756 54.2228 9.56 54.7828 9.56C55.3428 9.56 55.8188 9.756 56.2108 10.148C56.6215 10.54 56.8268 11.016 56.8268 11.576C56.8268 12.136 56.6215 12.6213 56.2108 13.032C55.8188 13.424 55.3428 13.62 54.7828 13.62ZM53.2708 30V15.72H56.2948V30H53.2708ZM62.0828 13.62C61.5228 13.62 61.0375 13.424 60.6268 13.032C60.2348 12.6213 60.0388 12.136 60.0388 11.576C60.0388 11.016 60.2348 10.54 60.6268 10.148C61.0375 9.756 61.5228 9.56 62.0828 9.56C62.6428 9.56 63.1188 9.756 63.5108 10.148C63.9215 10.54 64.1268 11.016 64.1268 11.576C64.1268 12.136 63.9215 12.6213 63.5108 13.032C63.1188 13.424 62.6428 13.62 62.0828 13.62ZM59.3668 36.328C58.7881 36.328 58.2655 36.2627 57.7988 36.132V33.22C57.9855 33.332 58.2001 33.416 58.4428 33.472C58.6668 33.5467 58.8908 33.584 59.1148 33.584C59.6561 33.584 60.0295 33.416 60.2348 33.08C60.4588 32.7627 60.5708 32.296 60.5708 31.68V15.72H63.5948V31.708C63.5948 33.3507 63.1935 34.5267 62.3908 35.236C61.5881 35.964 60.5801 36.328 59.3668 36.328ZM67.6468 30V9.952H70.6708V21.768L76.7188 15.72H80.4708V15.888L74.9548 21.348L80.6668 29.832V30H77.0828L72.8268 23.448L70.6708 25.576V30H67.6468ZM88.963 30.448C87.563 30.448 86.3123 30.1213 85.211 29.468C84.1097 28.8147 83.2417 27.9187 82.607 26.78C81.991 25.6413 81.683 24.344 81.683 22.888C81.683 21.5253 81.9817 20.2653 82.579 19.108C83.1763 17.9507 84.007 17.0267 85.071 16.336C86.1537 15.6267 87.395 15.272 88.795 15.272C90.2697 15.272 91.5203 15.5893 92.547 16.224C93.5923 16.8587 94.3857 17.7267 94.927 18.828C95.4683 19.9293 95.739 21.1707 95.739 22.552C95.739 22.7573 95.7297 22.944 95.711 23.112C95.711 23.28 95.7017 23.4107 95.683 23.504H84.651C84.8003 24.9227 85.295 25.9867 86.135 26.696C86.9937 27.4053 87.9643 27.76 89.047 27.76C90.0177 27.76 90.8203 27.5453 91.455 27.116C92.0897 26.668 92.5937 26.1173 92.967 25.464L95.459 26.668C94.843 27.788 94.003 28.7027 92.939 29.412C91.875 30.1027 90.5497 30.448 88.963 30.448ZM88.823 17.848C87.815 17.848 86.9563 18.156 86.247 18.772C85.5377 19.388 85.0617 20.2093 84.819 21.236H92.743C92.7057 20.7507 92.547 20.2467 92.267 19.724C91.987 19.2013 91.5577 18.7627 90.979 18.408C90.419 18.0347 89.7003 17.848 88.823 17.848ZM98.8445 30V15.72H101.7V17.68H101.868C102.279 16.9893 102.886 16.42 103.688 15.972C104.51 15.5053 105.406 15.272 106.376 15.272C108.131 15.272 109.447 15.7947 110.324 16.84C111.202 17.8853 111.64 19.2667 111.64 20.984V30H108.644V21.376C108.644 20.2187 108.355 19.3787 107.776 18.856C107.198 18.3147 106.442 18.044 105.508 18.044C104.78 18.044 104.146 18.2493 103.604 18.66C103.063 19.052 102.634 19.5747 102.316 20.228C102.018 20.8813 101.868 21.5813 101.868 22.328V30H98.8445ZM123.958 13.62C123.398 13.62 122.912 13.424 122.502 13.032C122.11 12.6213 121.914 12.136 121.914 11.576C121.914 11.016 122.11 10.54 122.502 10.148C122.912 9.756 123.398 9.56 123.958 9.56C124.518 9.56 124.994 9.756 125.386 10.148C125.796 10.54 126.002 11.016 126.002 11.576C126.002 12.136 125.796 12.6213 125.386 13.032C124.994 13.424 124.518 13.62 123.958 13.62ZM122.446 30V15.72H125.47V30H122.446ZM129.522 30V15.72H132.378V17.68H132.546C132.956 16.9893 133.563 16.42 134.366 15.972C135.187 15.5053 136.083 15.272 137.054 15.272C138.808 15.272 140.124 15.7947 141.002 16.84C141.879 17.8853 142.318 19.2667 142.318 20.984V30H139.322V21.376C139.322 20.2187 139.032 19.3787 138.454 18.856C137.875 18.3147 137.119 18.044 136.186 18.044C135.458 18.044 134.823 18.2493 134.282 18.66C133.74 19.052 133.311 19.5747 132.994 20.228C132.695 20.8813 132.546 21.5813 132.546 22.328V30H129.522Z" fill="#3C4043"/>
<g id="GPay Logo (Light)">
<g id="GPay">
<g id="Pay">
<path id="Fill 1" fill-rule="evenodd" clip-rule="evenodd" d="M194.529 9.44664V17.6128H199.565C200.765 17.6128 201.757 17.2096 202.541 16.4032C203.347 15.5988 203.75 14.6394 203.75 13.5288C203.75 12.4406 203.347 11.4924 202.541 10.686C201.757 9.85915 200.765 9.44478 199.565 9.44478H194.529V9.44664ZM194.529 20.4872V29.9599H191.521V6.57217H199.499C201.527 6.57217 203.248 7.24786 204.666 8.59737C206.105 9.94688 206.824 11.5913 206.824 13.5288C206.824 15.511 206.105 17.1667 204.666 18.4938C203.27 19.8227 201.547 20.4854 199.499 20.4854H194.529V20.4872Z" fill="#5F6368"/>
<path id="Fill 3" fill-rule="evenodd" clip-rule="evenodd" d="M209.864 25.0602C209.864 25.8442 210.197 26.4975 210.862 27.0201C211.527 27.5427 212.306 27.804 213.2 27.804C214.465 27.804 215.591 27.3354 216.584 26.4004C217.576 25.4634 218.071 24.364 218.071 23.1022C217.133 22.3612 215.825 21.9916 214.147 21.9916C212.925 21.9916 211.907 22.2865 211.09 22.8745C210.273 23.4623 209.864 24.1886 209.864 25.0602ZM213.756 13.4317C215.98 13.4317 217.735 14.0252 219.022 15.2124C220.308 16.3995 220.95 18.0271 220.95 20.0952V29.9599H218.073V27.7387H217.942C216.699 29.5677 215.042 30.4825 212.972 30.4825C211.206 30.4825 209.728 29.9599 208.541 28.9146C207.353 27.8694 206.759 26.5628 206.759 24.9949C206.759 23.3393 207.385 22.0232 208.638 21.0434C209.892 20.0635 211.565 19.5726 213.658 19.5726C215.444 19.5726 216.916 19.8992 218.071 20.5525V19.8656C218.071 18.8204 217.656 17.9338 216.829 17.204C215.999 16.4741 215.031 16.1102 213.919 16.1102C212.239 16.1102 210.911 16.8176 209.93 18.2343L207.28 16.5675C208.741 14.4769 210.899 13.4317 213.756 13.4317Z" fill="#5F6368"/>
<path id="Fill 5" fill-rule="evenodd" clip-rule="evenodd" d="M237.463 13.9543L227.424 37.0154H224.318L228.046 28.9464L221.44 13.9543H224.71L229.484 25.4522H229.55L234.193 13.9543H237.463Z" fill="#5F6368"/>
</g>
<g id="G">
<path id="Fill 8" fill-rule="evenodd" clip-rule="evenodd" d="M182.373 18.4452C182.373 17.4989 182.293 16.5861 182.141 15.7126H169.454V20.8885H176.72C176.408 22.5757 175.465 24.0112 174.033 24.9725V28.3341H178.37C180.91 25.9935 182.373 22.5348 182.373 18.4452Z" fill="#4285F4"/>
<path id="Fill 10" fill-rule="evenodd" clip-rule="evenodd" d="M169.454 31.5782C173.084 31.5782 176.141 30.3873 178.37 28.3341L174.033 24.9725C172.826 25.7844 171.272 26.2585 169.454 26.2585C165.944 26.2585 162.966 23.8955 161.901 20.7112H157.433V24.1736C159.647 28.5637 164.197 31.5782 169.454 31.5782Z" fill="#34A853"/>
<path id="Fill 12" fill-rule="evenodd" clip-rule="evenodd" d="M161.901 20.7111C161.628 19.8992 161.479 19.0331 161.479 18.139C161.479 17.245 161.628 16.3789 161.901 15.567V12.1045H157.433C156.518 13.9188 156 15.9683 156 18.139C156 20.3098 156.518 22.3595 157.433 24.1736L161.901 20.7111Z" fill="#FABB05"/>
<path id="Fill 14" fill-rule="evenodd" clip-rule="evenodd" d="M169.454 10.0196C171.436 10.0196 173.213 10.7009 174.615 12.0355V12.0374L178.455 8.20162C176.123 6.03271 173.082 4.7 169.454 4.7C164.197 4.7 159.647 7.71446 157.433 12.1046L161.901 15.567C162.966 12.3827 165.944 10.0196 169.454 10.0196Z" fill="#E94235"/>
</g>
</g>
</g>
</g>
</svg>
