<svg width="182" height="21" viewBox="0 0 182 21" fill="none" xmlns="http://www.w3.org/2000/svg">
<g id="ms_add_to_Pay_NBG">
<path id="Left Text" d="M3.8695 15.0006V5.20861H0.653503V3.54461H8.8135V5.20861H5.6135V15.0006H3.8695ZM11.7368 15.2566C11.1501 15.2566 10.6274 15.1393 10.1688 14.9046C9.72075 14.6699 9.36342 14.3499 9.09675 13.9446C8.84075 13.5286 8.71275 13.0539 8.71275 12.5206C8.71275 11.9339 8.86209 11.4379 9.16075 11.0326C9.47009 10.6273 9.88075 10.3179 10.3928 10.1046C10.9048 9.89128 11.4701 9.78461 12.0888 9.78461C12.4301 9.78461 12.7448 9.81128 13.0328 9.86461C13.3314 9.90728 13.5874 9.96061 13.8008 10.0246C14.0248 10.0886 14.2008 10.1579 14.3288 10.2326V9.80061C14.3288 9.26728 14.1368 8.84061 13.7528 8.52061C13.3688 8.20061 12.8728 8.04061 12.2648 8.04061C11.8488 8.04061 11.4541 8.13661 11.0808 8.32861C10.7074 8.50994 10.4088 8.76061 10.1848 9.08061L9.00075 8.16861C9.23542 7.83794 9.51809 7.55528 9.84875 7.32061C10.1901 7.08594 10.5688 6.90461 10.9848 6.77661C11.4114 6.64861 11.8541 6.58461 12.3128 6.58461C13.4968 6.58461 14.4088 6.87794 15.0488 7.46461C15.6888 8.04061 16.0088 8.85128 16.0088 9.89661V15.0006H14.3288V13.9926H14.2328C14.0941 14.2059 13.9021 14.4086 13.6568 14.6006C13.4221 14.7926 13.1394 14.9473 12.8088 15.0646C12.4888 15.1926 12.1314 15.2566 11.7368 15.2566ZM12.0408 13.8486C12.4888 13.8486 12.8834 13.7419 13.2248 13.5286C13.5768 13.3153 13.8488 13.0379 14.0408 12.6966C14.2328 12.3446 14.3288 11.9659 14.3288 11.5606C14.0941 11.4219 13.8061 11.3099 13.4648 11.2246C13.1341 11.1286 12.7821 11.0806 12.4088 11.0806C11.7048 11.0806 11.2034 11.2193 10.9048 11.4966C10.6061 11.7739 10.4568 12.1206 10.4568 12.5366C10.4568 12.9206 10.6008 13.2353 10.8888 13.4806C11.1768 13.7259 11.5608 13.8486 12.0408 13.8486ZM18.0611 15.0006V6.84061H19.6931V7.96061H19.7891C19.9491 7.69394 20.1571 7.45928 20.4131 7.25661C20.6691 7.05394 20.9571 6.89394 21.2771 6.77661C21.6078 6.64861 21.9491 6.58461 22.3011 6.58461C22.9091 6.58461 23.4265 6.72861 23.8531 7.01661C24.2798 7.30461 24.5838 7.66728 24.7651 8.10461C25.0318 7.67794 25.3945 7.32061 25.8531 7.03261C26.3118 6.73394 26.8718 6.58461 27.5331 6.58461C28.4931 6.58461 29.2078 6.87794 29.6771 7.46461C30.1465 8.04061 30.3811 8.80861 30.3811 9.76861V15.0006H28.6691V10.0566C28.6691 9.39528 28.5251 8.91528 28.2371 8.61661C27.9598 8.31794 27.5705 8.16861 27.0691 8.16861C26.6745 8.16861 26.3278 8.28061 26.0291 8.50461C25.7305 8.71794 25.4958 9.01128 25.3251 9.38461C25.1651 9.75794 25.0851 10.1739 25.0851 10.6326V15.0006H23.3731V10.0566C23.3731 9.40594 23.2291 8.93128 22.9411 8.63261C22.6531 8.32328 22.2478 8.16861 21.7251 8.16861C21.3518 8.16861 21.0158 8.28061 20.7171 8.50461C20.4291 8.72861 20.1998 9.02728 20.0291 9.40061C19.8691 9.77394 19.7891 10.1899 19.7891 10.6486V15.0006H18.0611ZM36.8288 15.2566C36.4128 15.2566 36.0341 15.1926 35.6928 15.0646C35.3514 14.9366 35.0528 14.7713 34.7968 14.5686C34.5514 14.3553 34.3541 14.1366 34.2048 13.9126H34.1088V15.0006H32.4768V3.54461H34.2048V6.80861L34.1088 7.94461H34.2048C34.3541 7.70994 34.5514 7.49128 34.7968 7.28861C35.0528 7.07528 35.3514 6.90461 35.6928 6.77661C36.0341 6.64861 36.4128 6.58461 36.8288 6.58461C37.5754 6.58461 38.2421 6.77128 38.8288 7.14461C39.4154 7.51794 39.8794 8.02994 40.2208 8.68061C40.5728 9.33128 40.7488 10.0779 40.7488 10.9206C40.7488 11.7633 40.5728 12.5099 40.2208 13.1606C39.8794 13.8113 39.4154 14.3233 38.8288 14.6966C38.2421 15.0699 37.5754 15.2566 36.8288 15.2566ZM36.5728 13.6726C36.9994 13.6726 37.3994 13.5606 37.7728 13.3366C38.1568 13.1126 38.4608 12.7926 38.6848 12.3766C38.9194 11.9606 39.0368 11.4753 39.0368 10.9206C39.0368 10.3553 38.9194 9.86994 38.6848 9.46461C38.4608 9.04861 38.1568 8.72861 37.7728 8.50461C37.3994 8.28061 36.9994 8.16861 36.5728 8.16861C36.1461 8.16861 35.7461 8.28061 35.3728 8.50461C34.9994 8.72861 34.6954 9.04861 34.4608 9.46461C34.2261 9.86994 34.1088 10.3553 34.1088 10.9206C34.1088 11.4859 34.2261 11.9766 34.4608 12.3926C34.6954 12.7979 34.9994 13.1126 35.3728 13.3366C35.7461 13.5606 36.1461 13.6726 36.5728 13.6726ZM45.0461 15.2566C44.4595 15.2566 43.9368 15.1393 43.4781 14.9046C43.0301 14.6699 42.6728 14.3499 42.4061 13.9446C42.1501 13.5286 42.0221 13.0539 42.0221 12.5206C42.0221 11.9339 42.1715 11.4379 42.4701 11.0326C42.7795 10.6273 43.1901 10.3179 43.7021 10.1046C44.2141 9.89128 44.7795 9.78461 45.3981 9.78461C45.7395 9.78461 46.0541 9.81128 46.3421 9.86461C46.6408 9.90728 46.8968 9.96061 47.1101 10.0246C47.3341 10.0886 47.5101 10.1579 47.6381 10.2326V9.80061C47.6381 9.26728 47.4461 8.84061 47.0621 8.52061C46.6781 8.20061 46.1821 8.04061 45.5741 8.04061C45.1581 8.04061 44.7635 8.13661 44.3901 8.32861C44.0168 8.50994 43.7181 8.76061 43.4941 9.08061L42.3101 8.16861C42.5448 7.83794 42.8275 7.55528 43.1581 7.32061C43.4995 7.08594 43.8781 6.90461 44.2941 6.77661C44.7208 6.64861 45.1635 6.58461 45.6221 6.58461C46.8061 6.58461 47.7181 6.87794 48.3581 7.46461C48.9981 8.04061 49.3181 8.85128 49.3181 9.89661V15.0006H47.6381V13.9926H47.5421C47.4035 14.2059 47.2115 14.4086 46.9661 14.6006C46.7315 14.7926 46.4488 14.9473 46.1181 15.0646C45.7981 15.1926 45.4408 15.2566 45.0461 15.2566ZM45.3501 13.8486C45.7981 13.8486 46.1928 13.7419 46.5341 13.5286C46.8861 13.3153 47.1581 13.0379 47.3501 12.6966C47.5421 12.3446 47.6381 11.9659 47.6381 11.5606C47.4035 11.4219 47.1155 11.3099 46.7741 11.2246C46.4435 11.1286 46.0915 11.0806 45.7181 11.0806C45.0141 11.0806 44.5128 11.2193 44.2141 11.4966C43.9155 11.7739 43.7661 12.1206 43.7661 12.5366C43.7661 12.9206 43.9101 13.2353 44.1981 13.4806C44.4861 13.7259 44.8701 13.8486 45.3501 13.8486ZM51.3705 15.0006V3.54461H53.0985V6.68061L53.0025 7.96061H53.0985C53.3225 7.56594 53.6638 7.24061 54.1225 6.98461C54.5918 6.71794 55.1092 6.58461 55.6745 6.58461C56.3572 6.58461 56.9225 6.72328 57.3705 7.00061C57.8292 7.27794 58.1705 7.66194 58.3945 8.15261C58.6185 8.63261 58.7305 9.19794 58.7305 9.84861V15.0006H57.0185V10.0726C57.0185 9.63528 56.9332 9.27794 56.7625 9.00061C56.6025 8.72328 56.3892 8.51528 56.1225 8.37661C55.8558 8.23794 55.5572 8.16861 55.2265 8.16861C54.8105 8.16861 54.4425 8.28594 54.1225 8.52061C53.8025 8.75528 53.5518 9.06461 53.3705 9.44861C53.1892 9.82194 53.0985 10.2219 53.0985 10.6486V15.0006H51.3705ZM60.8486 15.0006V3.54461H62.5766V10.2966L66.0326 6.84061H68.1766V6.93661L65.0246 10.0566L68.2886 14.9046V15.0006H66.2406L63.8086 11.2566L62.5766 12.4726V15.0006H60.8486ZM71.918 15.2566C71.3313 15.2566 70.8087 15.1393 70.35 14.9046C69.902 14.6699 69.5447 14.3499 69.278 13.9446C69.022 13.5286 68.894 13.0539 68.894 12.5206C68.894 11.9339 69.0433 11.4379 69.342 11.0326C69.6513 10.6273 70.062 10.3179 70.574 10.1046C71.086 9.89128 71.6513 9.78461 72.27 9.78461C72.6113 9.78461 72.926 9.81128 73.214 9.86461C73.5127 9.90728 73.7687 9.96061 73.982 10.0246C74.206 10.0886 74.382 10.1579 74.51 10.2326V9.80061C74.51 9.26728 74.318 8.84061 73.934 8.52061C73.55 8.20061 73.054 8.04061 72.446 8.04061C72.03 8.04061 71.6353 8.13661 71.262 8.32861C70.8887 8.50994 70.59 8.76061 70.366 9.08061L69.182 8.16861C69.4167 7.83794 69.6993 7.55528 70.03 7.32061C70.3713 7.08594 70.75 6.90461 71.166 6.77661C71.5927 6.64861 72.0353 6.58461 72.494 6.58461C73.678 6.58461 74.59 6.87794 75.23 7.46461C75.87 8.04061 76.19 8.85128 76.19 9.89661V15.0006H74.51V13.9926H74.414C74.2753 14.2059 74.0833 14.4086 73.838 14.6006C73.6033 14.7926 73.3207 14.9473 72.99 15.0646C72.67 15.1926 72.3127 15.2566 71.918 15.2566ZM72.222 13.8486C72.67 13.8486 73.0647 13.7419 73.406 13.5286C73.758 13.3153 74.03 13.0379 74.222 12.6966C74.414 12.3446 74.51 11.9659 74.51 11.5606C74.2753 11.4219 73.9873 11.3099 73.646 11.2246C73.3153 11.1286 72.9633 11.0806 72.59 11.0806C71.886 11.0806 71.3847 11.2193 71.086 11.4966C70.7873 11.7739 70.638 12.1206 70.638 12.5366C70.638 12.9206 70.782 13.2353 71.07 13.4806C71.358 13.7259 71.742 13.8486 72.222 13.8486ZM78.2424 15.0006V6.84061H79.8744V7.96061H79.9704C80.205 7.56594 80.5517 7.24061 81.0104 6.98461C81.4797 6.71794 81.9917 6.58461 82.5464 6.58461C83.549 6.58461 84.301 6.88328 84.8024 7.48061C85.3037 8.06728 85.5544 8.85661 85.5544 9.84861V15.0006H83.8424V10.0726C83.8424 9.41128 83.677 8.93128 83.3464 8.63261C83.0157 8.32328 82.5837 8.16861 82.0504 8.16861C81.6344 8.16861 81.2717 8.28594 80.9624 8.52061C80.653 8.74461 80.4077 9.04328 80.2264 9.41661C80.0557 9.78994 79.9704 10.1899 79.9704 10.6166V15.0006H78.2424ZM91.542 18.4566V6.84061H93.158V7.94461H93.254C93.4033 7.70994 93.6007 7.49128 93.846 7.28861C94.102 7.07528 94.4007 6.90461 94.742 6.77661C95.0833 6.64861 95.462 6.58461 95.878 6.58461C96.6247 6.58461 97.2913 6.77128 97.878 7.14461C98.4647 7.51794 98.9287 8.02994 99.27 8.68061C99.622 9.33128 99.798 10.0779 99.798 10.9206C99.798 11.7633 99.622 12.5099 99.27 13.1606C98.9287 13.8113 98.4647 14.3233 97.878 14.6966C97.2913 15.0699 96.6247 15.2566 95.878 15.2566C95.2593 15.2566 94.7207 15.1179 94.262 14.8406C93.8033 14.5633 93.4673 14.2539 93.254 13.9126H93.158L93.254 15.0486V18.4566H91.542ZM95.622 13.6726C96.0487 13.6726 96.4487 13.5606 96.822 13.3366C97.206 13.1126 97.51 12.7926 97.734 12.3766C97.9687 11.9606 98.086 11.4753 98.086 10.9206C98.086 10.3553 97.9687 9.86994 97.734 9.46461C97.51 9.04861 97.206 8.72861 96.822 8.50461C96.4487 8.28061 96.0487 8.16861 95.622 8.16861C95.1953 8.16861 94.7953 8.28061 94.422 8.50461C94.0487 8.72861 93.7447 9.04861 93.51 9.46461C93.2753 9.86994 93.158 10.3553 93.158 10.9206C93.158 11.4859 93.2753 11.9766 93.51 12.3926C93.7447 12.7979 94.0487 13.1126 94.422 13.3366C94.7953 13.5606 95.1953 13.6726 95.622 13.6726ZM104.096 15.2566C103.509 15.2566 102.987 15.1393 102.528 14.9046C102.08 14.6699 101.723 14.3499 101.456 13.9446C101.2 13.5286 101.072 13.0539 101.072 12.5206C101.072 11.9339 101.221 11.4379 101.52 11.0326C101.829 10.6273 102.24 10.3179 102.752 10.1046C103.264 9.89128 103.829 9.78461 104.448 9.78461C104.789 9.78461 105.104 9.81128 105.392 9.86461C105.691 9.90728 105.947 9.96061 106.16 10.0246C106.384 10.0886 106.56 10.1579 106.688 10.2326V9.80061C106.688 9.26728 106.496 8.84061 106.112 8.52061C105.728 8.20061 105.232 8.04061 104.624 8.04061C104.208 8.04061 103.813 8.13661 103.44 8.32861C103.067 8.50994 102.768 8.76061 102.544 9.08061L101.36 8.16861C101.595 7.83794 101.877 7.55528 102.208 7.32061C102.549 7.08594 102.928 6.90461 103.344 6.77661C103.771 6.64861 104.213 6.58461 104.672 6.58461C105.856 6.58461 106.768 6.87794 107.408 7.46461C108.048 8.04061 108.368 8.85128 108.368 9.89661V15.0006H106.688V13.9926H106.592C106.453 14.2059 106.261 14.4086 106.016 14.6006C105.781 14.7926 105.499 14.9473 105.168 15.0646C104.848 15.1926 104.491 15.2566 104.096 15.2566ZM104.4 13.8486C104.848 13.8486 105.243 13.7419 105.584 13.5286C105.936 13.3153 106.208 13.0379 106.4 12.6966C106.592 12.3446 106.688 11.9659 106.688 11.5606C106.453 11.4219 106.165 11.3099 105.824 11.2246C105.493 11.1286 105.141 11.0806 104.768 11.0806C104.064 11.0806 103.563 11.2193 103.264 11.4966C102.965 11.7739 102.816 12.1206 102.816 12.5366C102.816 12.9206 102.96 13.2353 103.248 13.4806C103.536 13.7259 103.92 13.8486 104.4 13.8486ZM113.83 15.2566C113.094 15.2566 112.428 15.0699 111.83 14.6966C111.233 14.3233 110.764 13.8113 110.422 13.1606C110.081 12.5099 109.91 11.7633 109.91 10.9206C109.91 10.0779 110.081 9.33128 110.422 8.68061C110.764 8.02994 111.233 7.51794 111.83 7.14461C112.428 6.77128 113.094 6.58461 113.83 6.58461C114.257 6.58461 114.641 6.64861 114.982 6.77661C115.324 6.90461 115.617 7.07528 115.862 7.28861C116.118 7.49128 116.316 7.70994 116.454 7.94461H116.55L116.454 6.80861V3.54461H118.166V15.0006H116.55V13.9126H116.454C116.316 14.1366 116.118 14.3553 115.862 14.5686C115.617 14.7713 115.324 14.9366 114.982 15.0646C114.641 15.1926 114.257 15.2566 113.83 15.2566ZM114.086 13.6726C114.513 13.6726 114.913 13.5606 115.286 13.3366C115.67 13.1126 115.974 12.7979 116.198 12.3926C116.433 11.9766 116.55 11.4859 116.55 10.9206C116.55 10.3553 116.433 9.86994 116.198 9.46461C115.974 9.04861 115.67 8.72861 115.286 8.50461C114.913 8.28061 114.513 8.16861 114.086 8.16861C113.66 8.16861 113.26 8.28061 112.886 8.50461C112.513 8.72861 112.209 9.04861 111.974 9.46461C111.74 9.86994 111.622 10.3553 111.622 10.9206C111.622 11.4753 111.74 11.9606 111.974 12.3766C112.209 12.7926 112.513 13.1126 112.886 13.3366C113.26 13.5606 113.66 13.6726 114.086 13.6726ZM122.834 15.2566C122.247 15.2566 121.724 15.1393 121.266 14.9046C120.818 14.6699 120.46 14.3499 120.194 13.9446C119.938 13.5286 119.81 13.0539 119.81 12.5206C119.81 11.9339 119.959 11.4379 120.258 11.0326C120.567 10.6273 120.978 10.3179 121.49 10.1046C122.002 9.89128 122.567 9.78461 123.186 9.78461C123.527 9.78461 123.842 9.81128 124.13 9.86461C124.428 9.90728 124.684 9.96061 124.898 10.0246C125.122 10.0886 125.298 10.1579 125.426 10.2326V9.80061C125.426 9.26728 125.234 8.84061 124.85 8.52061C124.466 8.20061 123.97 8.04061 123.362 8.04061C122.946 8.04061 122.551 8.13661 122.178 8.32861C121.804 8.50994 121.506 8.76061 121.282 9.08061L120.098 8.16861C120.332 7.83794 120.615 7.55528 120.946 7.32061C121.287 7.08594 121.666 6.90461 122.082 6.77661C122.508 6.64861 122.951 6.58461 123.41 6.58461C124.594 6.58461 125.506 6.87794 126.146 7.46461C126.786 8.04061 127.106 8.85128 127.106 9.89661V15.0006H125.426V13.9926H125.33C125.191 14.2059 124.999 14.4086 124.754 14.6006C124.519 14.7926 124.236 14.9473 123.906 15.0646C123.586 15.1926 123.228 15.2566 122.834 15.2566ZM123.138 13.8486C123.586 13.8486 123.98 13.7419 124.322 13.5286C124.674 13.3153 124.946 13.0379 125.138 12.6966C125.33 12.3446 125.426 11.9659 125.426 11.5606C125.191 11.4219 124.903 11.3099 124.562 11.2246C124.231 11.1286 123.879 11.0806 123.506 11.0806C122.802 11.0806 122.3 11.2193 122.002 11.4966C121.703 11.7739 121.554 12.1206 121.554 12.5366C121.554 12.9206 121.698 13.2353 121.986 13.4806C122.274 13.7259 122.658 13.8486 123.138 13.8486Z" fill="white"/>
<g id="GPay (Dark)">
<g id="GPay">
<g id="Pay">
<path id="Fill 1" fill-rule="evenodd" clip-rule="evenodd" d="M156.356 3.42339V8.16175H159.278C159.974 8.16175 160.55 7.92781 161.005 7.45993C161.473 6.99313 161.707 6.43644 161.707 5.79203C161.707 5.16061 161.473 4.61041 161.005 4.14254C160.55 3.66274 159.974 3.4223 159.278 3.4223H156.356V3.42339ZM156.356 9.82966V15.3262H154.611V1.75549H159.24C160.417 1.75549 161.415 2.14756 162.238 2.93061C163.073 3.71365 163.491 4.66782 163.491 5.79203C163.491 6.94224 163.073 7.90291 162.238 8.67296C161.428 9.44409 160.429 9.82858 159.24 9.82858H156.356V9.82966Z" fill="white"/>
<path id="Fill 3" fill-rule="evenodd" clip-rule="evenodd" d="M165.255 12.4831C165.255 12.9379 165.448 13.317 165.834 13.6203C166.22 13.9235 166.672 14.0752 167.19 14.0752C167.924 14.0752 168.578 13.8032 169.153 13.2607C169.729 12.717 170.017 12.0791 170.017 11.3469C169.472 10.917 168.713 10.7025 167.74 10.7025C167.031 10.7025 166.44 10.8736 165.966 11.2148C165.492 11.5559 165.255 11.9773 165.255 12.4831M167.513 5.73566C168.803 5.73566 169.821 6.08007 170.569 6.76889C171.314 7.45771 171.687 8.40213 171.687 9.60216V15.3261H170.018V14.0373H169.942C169.221 15.0985 168.259 15.6294 167.058 15.6294C166.033 15.6294 165.176 15.3261 164.487 14.7196C163.797 14.1131 163.453 13.3549 163.453 12.4452C163.453 11.4845 163.816 10.7208 164.543 10.1523C165.271 9.58375 166.241 9.2989 167.456 9.2989C168.492 9.2989 169.346 9.48844 170.017 9.86751V9.46894C170.017 8.86243 169.776 8.34798 169.296 7.92451C168.814 7.50103 168.252 7.28984 167.607 7.28984C166.633 7.28984 165.862 7.70032 165.293 8.52235L163.755 7.55519C164.603 6.34217 165.855 5.73566 167.513 5.73566" fill="white"/>
<path id="Fill 5" fill-rule="evenodd" clip-rule="evenodd" d="M181.269 6.03894L175.443 19.4201H173.641L175.804 14.738L171.971 6.03894H173.869L176.639 12.7106H176.677L179.371 6.03894H181.269Z" fill="white"/>
</g>
<g id="G">
<path id="Fill 8" fill-rule="evenodd" clip-rule="evenodd" d="M149.303 8.64473C149.303 8.09563 149.256 7.56601 149.168 7.05914H141.806V10.0625H146.023C145.842 11.0414 145.294 11.8744 144.464 12.4322V14.3828H146.98C148.454 13.0246 149.303 11.0177 149.303 8.64473" fill="#4285F4"/>
<path id="Fill 10" fill-rule="evenodd" clip-rule="evenodd" d="M141.806 16.2651C143.913 16.2651 145.687 15.5741 146.98 14.3828L144.464 12.4322C143.763 12.9033 142.861 13.1784 141.806 13.1784C139.77 13.1784 138.042 11.8073 137.424 9.95959H134.832V11.9687C136.116 14.516 138.757 16.2651 141.806 16.2651" fill="#34A853"/>
<path id="Fill 12" fill-rule="evenodd" clip-rule="evenodd" d="M137.424 9.9596C137.266 9.48847 137.179 8.98593 137.179 8.46715C137.179 7.94837 137.266 7.44583 137.424 6.9747V4.96564H134.832C134.3 6.01837 134 7.20756 134 8.46715C134 9.72674 134.3 10.916 134.832 11.9687L137.424 9.9596Z" fill="#FABB05"/>
<path id="Fill 14" fill-rule="evenodd" clip-rule="evenodd" d="M141.806 3.75583C142.957 3.75583 143.988 4.15115 144.801 4.92553V4.92661L147.029 2.70094C145.676 1.44243 143.912 0.669128 141.806 0.669128C138.757 0.669128 136.116 2.41826 134.832 4.9656L137.424 6.97467C138.042 5.12698 139.77 3.75583 141.806 3.75583" fill="#E94235"/>
</g>
</g>
</g>
</g>
</svg>
