<svg width="306" height="38" viewBox="0 0 306 38" fill="none" xmlns="http://www.w3.org/2000/svg">
<g id="ms_book_with_Light">
<path id="Text" d="M7.05287 30V12.864H1.42487V9.952H15.7049V12.864H10.1049V30H7.05287ZM22.7653 30.448C21.3653 30.448 20.1147 30.1213 19.0133 29.468C17.912 28.8147 17.044 27.9187 16.4093 26.78C15.7933 25.6413 15.4853 24.344 15.4853 22.888C15.4853 21.5253 15.784 20.2653 16.3813 19.108C16.9787 17.9507 17.8093 17.0267 18.8733 16.336C19.956 15.6267 21.1973 15.272 22.5973 15.272C24.072 15.272 25.3227 15.5893 26.3493 16.224C27.3947 16.8587 28.188 17.7267 28.7293 18.828C29.2707 19.9293 29.5413 21.1707 29.5413 22.552C29.5413 22.7573 29.532 22.944 29.5133 23.112C29.5133 23.28 29.504 23.4107 29.4853 23.504H18.4533C18.6027 24.9227 19.0973 25.9867 19.9373 26.696C20.796 27.4053 21.7667 27.76 22.8493 27.76C23.82 27.76 24.6227 27.5453 25.2573 27.116C25.892 26.668 26.396 26.1173 26.7693 25.464L29.2613 26.668C28.6453 27.788 27.8053 28.7027 26.7413 29.412C25.6773 30.1027 24.352 30.448 22.7653 30.448ZM22.6253 17.848C21.6173 17.848 20.7587 18.156 20.0493 18.772C19.34 19.388 18.864 20.2093 18.6213 21.236H26.5453C26.508 20.7507 26.3493 20.2467 26.0693 19.724C25.7893 19.2013 25.36 18.7627 24.7813 18.408C24.2213 18.0347 23.5027 17.848 22.6253 17.848ZM32.6468 30V15.72H35.5028V17.68H35.6708C36.0815 16.9893 36.6788 16.42 37.4628 15.972C38.2468 15.5053 39.1148 15.272 40.0668 15.272C41.1308 15.272 42.0361 15.524 42.7828 16.028C43.5295 16.532 44.0615 17.1667 44.3788 17.932C44.8455 17.1853 45.4801 16.56 46.2828 16.056C47.0855 15.5333 48.0655 15.272 49.2228 15.272C50.9028 15.272 52.1535 15.7853 52.9748 16.812C53.7961 17.82 54.2068 19.164 54.2068 20.844V30H51.2108V21.348C51.2108 20.2093 50.9588 19.3787 50.4548 18.856C49.9695 18.3147 49.2881 18.044 48.4108 18.044C47.7201 18.044 47.1135 18.24 46.5908 18.632C46.0681 19.0053 45.6575 19.5187 45.3588 20.172C45.0788 20.8253 44.9388 21.5533 44.9388 22.356V30H41.9428V21.348C41.9428 20.2093 41.6908 19.3787 41.1868 18.856C40.6828 18.3147 39.9735 18.044 39.0588 18.044C38.3868 18.044 37.7988 18.24 37.2948 18.632C36.7908 19.024 36.3895 19.5467 36.0908 20.2C35.8108 20.8533 35.6708 21.5813 35.6708 22.384V30H32.6468ZM57.8837 36.048V15.72H60.7117V17.652H60.8797C61.253 17.036 61.8317 16.4853 62.6157 16C63.4183 15.5147 64.3703 15.272 65.4717 15.272C66.7783 15.272 67.945 15.5987 68.9717 16.252C69.9983 16.9053 70.8103 17.8013 71.4077 18.94C72.0237 20.0787 72.3317 21.3853 72.3317 22.86C72.3317 24.3347 72.0237 25.6507 71.4077 26.808C70.8103 27.9467 69.9983 28.8427 68.9717 29.496C67.945 30.1307 66.7783 30.448 65.4717 30.448C64.3703 30.448 63.4183 30.2147 62.6157 29.748C61.8317 29.2627 61.253 28.712 60.8797 28.096H60.7117L60.8797 30.084V36.048H57.8837ZM65.0237 27.676C65.7703 27.676 66.4703 27.48 67.1237 27.088C67.777 26.696 68.309 26.1453 68.7197 25.436C69.1303 24.708 69.3357 23.8493 69.3357 22.86C69.3357 21.8707 69.1303 21.0213 68.7197 20.312C68.309 19.584 67.777 19.024 67.1237 18.632C66.4703 18.24 65.7703 18.044 65.0237 18.044C64.277 18.044 63.577 18.24 62.9237 18.632C62.2703 19.024 61.7383 19.584 61.3277 20.312C60.917 21.0213 60.7117 21.8707 60.7117 22.86C60.7117 23.8493 60.917 24.708 61.3277 25.436C61.7383 26.1453 62.2703 26.696 62.9237 27.088C63.577 27.48 64.277 27.676 65.0237 27.676ZM79.8909 30.448C78.8642 30.448 77.9495 30.252 77.1469 29.86C76.3442 29.4493 75.7189 28.88 75.2709 28.152C74.8229 27.424 74.5989 26.5933 74.5989 25.66C74.5989 24.652 74.8602 23.7933 75.3829 23.084C75.9242 22.356 76.6429 21.8053 77.5389 21.432C78.4349 21.0587 79.4242 20.872 80.5069 20.872C81.4029 20.872 82.1869 20.956 82.8589 21.124C83.5495 21.292 84.0722 21.4693 84.4269 21.656V20.9C84.4269 19.9667 84.0909 19.22 83.4189 18.66C82.7469 18.1 81.8789 17.82 80.8149 17.82C80.0869 17.82 79.3962 17.988 78.7429 18.324C78.0895 18.6413 77.5669 19.08 77.1749 19.64L75.1029 18.044C75.7189 17.1853 76.5309 16.5133 77.5389 16.028C78.5655 15.524 79.6855 15.272 80.8989 15.272C82.9709 15.272 84.5669 15.7853 85.6869 16.812C86.8069 17.82 87.3669 19.2387 87.3669 21.068V30H84.4269V28.236H84.2589C83.8855 28.8147 83.3255 29.328 82.5789 29.776C81.8322 30.224 80.9362 30.448 79.8909 30.448ZM80.4229 27.984C81.2069 27.984 81.8975 27.7973 82.4949 27.424C83.0922 27.0507 83.5589 26.5653 83.8949 25.968C84.2495 25.352 84.4269 24.6893 84.4269 23.98C83.9975 23.7373 83.4935 23.5413 82.9149 23.392C82.3362 23.224 81.7202 23.14 81.0669 23.14C79.8349 23.14 78.9575 23.392 78.4349 23.896C77.9122 24.3813 77.6509 24.9787 77.6509 25.688C77.6509 26.36 77.9029 26.9107 78.4069 27.34C78.9109 27.7693 79.5829 27.984 80.4229 27.984ZM90.996 30V9.952H94.02V15.44L93.852 17.68H94.02C94.412 16.9893 95.0094 16.42 95.812 15.972C96.6334 15.5053 97.5387 15.272 98.528 15.272C100.301 15.272 101.636 15.804 102.532 16.868C103.428 17.9133 103.876 19.2853 103.876 20.984V30H100.88V21.376C100.88 20.2187 100.572 19.3787 99.956 18.856C99.3587 18.3147 98.6214 18.044 97.744 18.044C97.016 18.044 96.372 18.2493 95.812 18.66C95.252 19.0707 94.8134 19.612 94.496 20.284C94.1787 20.9373 94.02 21.6373 94.02 22.384V30H90.996ZM120.559 30.448C119.271 30.448 118.105 30.1307 117.059 29.496C116.033 28.8427 115.211 27.9467 114.595 26.808C113.998 25.6507 113.699 24.3347 113.699 22.86C113.699 21.3853 113.998 20.0787 114.595 18.94C115.211 17.8013 116.033 16.9053 117.059 16.252C118.105 15.5987 119.271 15.272 120.559 15.272C121.661 15.272 122.603 15.5147 123.387 16C124.19 16.4853 124.778 17.036 125.151 17.652H125.319L125.151 15.664V9.952H128.147V30H125.319V28.096H125.151C124.778 28.712 124.19 29.2627 123.387 29.748C122.603 30.2147 121.661 30.448 120.559 30.448ZM121.007 27.676C121.754 27.676 122.454 27.48 123.107 27.088C123.779 26.696 124.311 26.1453 124.703 25.436C125.114 24.708 125.319 23.8493 125.319 22.86C125.319 21.8707 125.114 21.0213 124.703 20.312C124.311 19.584 123.779 19.024 123.107 18.632C122.454 18.24 121.754 18.044 121.007 18.044C120.261 18.044 119.561 18.24 118.907 18.632C118.254 19.024 117.722 19.584 117.311 20.312C116.901 21.0213 116.695 21.8707 116.695 22.86C116.695 23.8493 116.901 24.708 117.311 25.436C117.722 26.1453 118.254 26.696 118.907 27.088C119.561 27.48 120.261 27.676 121.007 27.676ZM138.397 30.448C136.997 30.448 135.746 30.1213 134.645 29.468C133.543 28.8147 132.675 27.9187 132.041 26.78C131.425 25.6413 131.117 24.344 131.117 22.888C131.117 21.5253 131.415 20.2653 132.013 19.108C132.61 17.9507 133.441 17.0267 134.505 16.336C135.587 15.6267 136.829 15.272 138.229 15.272C139.703 15.272 140.954 15.5893 141.981 16.224C143.026 16.8587 143.819 17.7267 144.361 18.828C144.902 19.9293 145.173 21.1707 145.173 22.552C145.173 22.7573 145.163 22.944 145.145 23.112C145.145 23.28 145.135 23.4107 145.117 23.504H134.085C134.234 24.9227 134.729 25.9867 135.569 26.696C136.427 27.4053 137.398 27.76 138.481 27.76C139.451 27.76 140.254 27.5453 140.889 27.116C141.523 26.668 142.027 26.1173 142.401 25.464L144.893 26.668C144.277 27.788 143.437 28.7027 142.373 29.412C141.309 30.1027 139.983 30.448 138.397 30.448ZM138.257 17.848C137.249 17.848 136.39 18.156 135.681 18.772C134.971 19.388 134.495 20.2093 134.253 21.236H142.177C142.139 20.7507 141.981 20.2467 141.701 19.724C141.421 19.2013 140.991 18.7627 140.413 18.408C139.853 18.0347 139.134 17.848 138.257 17.848ZM148.278 30V15.72H151.134V17.68H151.302C151.713 16.9893 152.319 16.42 153.122 15.972C153.943 15.5053 154.839 15.272 155.81 15.272C157.565 15.272 158.881 15.7947 159.758 16.84C160.635 17.8853 161.074 19.2667 161.074 20.984V30H158.078V21.376C158.078 20.2187 157.789 19.3787 157.21 18.856C156.631 18.3147 155.875 18.044 154.942 18.044C154.214 18.044 153.579 18.2493 153.038 18.66C152.497 19.052 152.067 19.5747 151.75 20.228C151.451 20.8813 151.302 21.5813 151.302 22.328V30H148.278ZM171.124 36.496C169.873 36.496 168.79 36.2907 167.876 35.88C166.98 35.488 166.252 34.9747 165.692 34.34C165.132 33.724 164.73 33.0893 164.488 32.436L167.288 31.26C167.586 32.0067 168.062 32.6133 168.716 33.08C169.388 33.5653 170.19 33.808 171.124 33.808C172.43 33.808 173.457 33.416 174.204 32.632C174.969 31.848 175.352 30.7373 175.352 29.3V27.928H175.184C174.736 28.6 174.11 29.1413 173.308 29.552C172.524 29.944 171.628 30.14 170.62 30.14C169.406 30.14 168.296 29.832 167.288 29.216C166.28 28.6 165.468 27.7413 164.852 26.64C164.236 25.52 163.928 24.2133 163.928 22.72C163.928 21.208 164.236 19.9013 164.852 18.8C165.468 17.68 166.28 16.812 167.288 16.196C168.296 15.58 169.406 15.272 170.62 15.272C171.628 15.272 172.524 15.4773 173.308 15.888C174.11 16.2987 174.736 16.84 175.184 17.512H175.352V15.72H178.236V29.244C178.236 30.7933 177.928 32.1093 177.312 33.192C176.714 34.2747 175.884 35.096 174.82 35.656C173.756 36.216 172.524 36.496 171.124 36.496ZM171.152 27.396C171.898 27.396 172.589 27.2187 173.224 26.864C173.858 26.4907 174.372 25.9587 174.764 25.268C175.156 24.5587 175.352 23.7093 175.352 22.72C175.352 21.6933 175.156 20.8347 174.764 20.144C174.372 19.4347 173.858 18.9027 173.224 18.548C172.589 18.1933 171.898 18.016 171.152 18.016C170.405 18.016 169.705 18.2027 169.052 18.576C168.417 18.9307 167.904 19.4533 167.512 20.144C167.12 20.8347 166.924 21.6933 166.924 22.72C166.924 23.728 167.12 24.5867 167.512 25.296C167.904 25.9867 168.417 26.5093 169.052 26.864C169.705 27.2187 170.405 27.396 171.152 27.396ZM186.417 30.448C185.39 30.448 184.475 30.252 183.673 29.86C182.87 29.4493 182.245 28.88 181.797 28.152C181.349 27.424 181.125 26.5933 181.125 25.66C181.125 24.652 181.386 23.7933 181.909 23.084C182.45 22.356 183.169 21.8053 184.065 21.432C184.961 21.0587 185.95 20.872 187.033 20.872C187.929 20.872 188.713 20.956 189.385 21.124C190.075 21.292 190.598 21.4693 190.953 21.656V20.9C190.953 19.9667 190.617 19.22 189.945 18.66C189.273 18.1 188.405 17.82 187.341 17.82C186.613 17.82 185.922 17.988 185.269 18.324C184.615 18.6413 184.093 19.08 183.701 19.64L181.629 18.044C182.245 17.1853 183.057 16.5133 184.065 16.028C185.091 15.524 186.211 15.272 187.425 15.272C189.497 15.272 191.093 15.7853 192.213 16.812C193.333 17.82 193.893 19.2387 193.893 21.068V30H190.953V28.236H190.785C190.411 28.8147 189.851 29.328 189.105 29.776C188.358 30.224 187.462 30.448 186.417 30.448ZM186.949 27.984C187.733 27.984 188.423 27.7973 189.021 27.424C189.618 27.0507 190.085 26.5653 190.421 25.968C190.775 25.352 190.953 24.6893 190.953 23.98C190.523 23.7373 190.019 23.5413 189.441 23.392C188.862 23.224 188.246 23.14 187.593 23.14C186.361 23.14 185.483 23.392 184.961 23.896C184.438 24.3813 184.177 24.9787 184.177 25.688C184.177 26.36 184.429 26.9107 184.933 27.34C185.437 27.7693 186.109 27.984 186.949 27.984ZM197.522 30V15.72H200.378V17.68H200.546C200.956 16.9893 201.563 16.42 202.366 15.972C203.187 15.5053 204.083 15.272 205.054 15.272C206.808 15.272 208.124 15.7947 209.002 16.84C209.879 17.8853 210.318 19.2667 210.318 20.984V30H207.322V21.376C207.322 20.2187 207.032 19.3787 206.454 18.856C205.875 18.3147 205.119 18.044 204.186 18.044C203.458 18.044 202.823 18.2493 202.282 18.66C201.74 19.052 201.311 19.5747 200.994 20.228C200.695 20.8813 200.546 21.5813 200.546 22.328V30H197.522Z" fill="#3C4043"/>
<g id="GPay Logo (Light)">
<g id="GPay">
<g id="Pay">
<path id="Fill 1" fill-rule="evenodd" clip-rule="evenodd" d="M262.529 9.44664V17.6128H267.565C268.765 17.6128 269.757 17.2096 270.541 16.4032C271.347 15.5988 271.75 14.6394 271.75 13.5288C271.75 12.4406 271.347 11.4924 270.541 10.686C269.757 9.85915 268.765 9.44478 267.565 9.44478H262.529V9.44664ZM262.529 20.4872V29.9599H259.521V6.57217H267.499C269.527 6.57217 271.248 7.24786 272.666 8.59737C274.105 9.94688 274.824 11.5913 274.824 13.5288C274.824 15.511 274.105 17.1667 272.666 18.4938C271.27 19.8227 269.547 20.4854 267.499 20.4854H262.529V20.4872Z" fill="#5F6368"/>
<path id="Fill 3" fill-rule="evenodd" clip-rule="evenodd" d="M277.864 25.0602C277.864 25.8442 278.197 26.4975 278.862 27.0201C279.527 27.5427 280.306 27.804 281.2 27.804C282.465 27.804 283.591 27.3354 284.584 26.4004C285.576 25.4634 286.071 24.364 286.071 23.1022C285.133 22.3612 283.825 21.9916 282.147 21.9916C280.925 21.9916 279.907 22.2865 279.09 22.8745C278.273 23.4623 277.864 24.1886 277.864 25.0602ZM281.756 13.4317C283.98 13.4317 285.735 14.0252 287.022 15.2124C288.308 16.3995 288.95 18.0271 288.95 20.0952V29.9599H286.073V27.7387H285.942C284.699 29.5677 283.042 30.4825 280.972 30.4825C279.206 30.4825 277.728 29.9599 276.541 28.9146C275.353 27.8694 274.759 26.5628 274.759 24.9949C274.759 23.3393 275.385 22.0232 276.638 21.0434C277.892 20.0635 279.565 19.5726 281.658 19.5726C283.444 19.5726 284.916 19.8992 286.071 20.5525V19.8656C286.071 18.8204 285.656 17.9338 284.829 17.204C283.999 16.4741 283.031 16.1102 281.919 16.1102C280.239 16.1102 278.911 16.8176 277.93 18.2343L275.28 16.5675C276.741 14.4769 278.899 13.4317 281.756 13.4317Z" fill="#5F6368"/>
<path id="Fill 5" fill-rule="evenodd" clip-rule="evenodd" d="M305.463 13.9543L295.424 37.0154H292.318L296.046 28.9464L289.44 13.9543H292.71L297.484 25.4522H297.55L302.193 13.9543H305.463Z" fill="#5F6368"/>
</g>
<g id="G">
<path id="Fill 8" fill-rule="evenodd" clip-rule="evenodd" d="M250.373 18.4452C250.373 17.4989 250.293 16.5861 250.141 15.7126H237.454V20.8885H244.72C244.408 22.5757 243.465 24.0112 242.033 24.9725V28.3341H246.37C248.91 25.9935 250.373 22.5348 250.373 18.4452Z" fill="#4285F4"/>
<path id="Fill 10" fill-rule="evenodd" clip-rule="evenodd" d="M237.454 31.5782C241.084 31.5782 244.141 30.3873 246.37 28.3341L242.033 24.9725C240.826 25.7844 239.272 26.2585 237.454 26.2585C233.944 26.2585 230.966 23.8955 229.901 20.7112H225.433V24.1736C227.647 28.5637 232.197 31.5782 237.454 31.5782Z" fill="#34A853"/>
<path id="Fill 12" fill-rule="evenodd" clip-rule="evenodd" d="M229.901 20.7111C229.628 19.8992 229.479 19.0331 229.479 18.139C229.479 17.245 229.628 16.3789 229.901 15.567V12.1045H225.433C224.518 13.9188 224 15.9683 224 18.139C224 20.3098 224.518 22.3595 225.433 24.1736L229.901 20.7111Z" fill="#FABB05"/>
<path id="Fill 14" fill-rule="evenodd" clip-rule="evenodd" d="M237.454 10.0196C239.436 10.0196 241.213 10.7009 242.615 12.0355V12.0374L246.455 8.20162C244.123 6.03271 241.082 4.7 237.454 4.7C232.197 4.7 227.647 7.71446 225.433 12.1046L229.901 15.567C230.966 12.3827 233.944 10.0196 237.454 10.0196Z" fill="#E94235"/>
</g>
</g>
</g>
</g>
</svg>
