<svg width="175" height="21" viewBox="0 0 175 21" fill="none" xmlns="http://www.w3.org/2000/svg">
<g id="ms_book_with_Pay_NBG">
<path id="Left Text" d="M4.1445 15.0006V5.20861H0.928497V3.54461H9.0885V5.20861H5.8885V15.0006H4.1445ZM13.1016 15.2566C12.3016 15.2566 11.587 15.0699 10.9576 14.6966C10.3283 14.3233 9.83229 13.8113 9.46962 13.1606C9.11762 12.5099 8.94162 11.7686 8.94162 10.9366C8.94162 10.1579 9.11229 9.43794 9.45362 8.77661C9.79495 8.11528 10.2696 7.58728 10.8776 7.19261C11.4963 6.78728 12.2056 6.58461 13.0056 6.58461C13.8483 6.58461 14.563 6.76594 15.1496 7.12861C15.747 7.49128 16.2003 7.98728 16.5096 8.61661C16.819 9.24594 16.9736 9.95528 16.9736 10.7446C16.9736 10.8619 16.9683 10.9686 16.9576 11.0646C16.9576 11.1606 16.9523 11.2353 16.9416 11.2886H10.6376C10.6803 11.7366 10.7923 12.1259 10.9736 12.4566C11.2083 12.8726 11.5176 13.1873 11.9016 13.4006C12.2856 13.6139 12.7016 13.7206 13.1496 13.7206C13.6936 13.7206 14.147 13.5979 14.5096 13.3526C14.883 13.0966 15.1763 12.7819 15.3896 12.4086L16.8136 13.0966C16.4616 13.7366 15.9816 14.2593 15.3736 14.6646C14.7656 15.0593 14.0083 15.2566 13.1016 15.2566ZM10.7336 9.99261H15.2616C15.251 9.78994 15.1976 9.57661 15.1016 9.35261C15.0056 9.11794 14.867 8.90461 14.6856 8.71261C14.5043 8.52061 14.275 8.36594 13.9976 8.24861C13.7203 8.12061 13.395 8.05661 13.0216 8.05661C12.5523 8.05661 12.1363 8.17928 11.7736 8.42461C11.411 8.65928 11.1283 8.98994 10.9256 9.41661C10.8403 9.59794 10.7763 9.78994 10.7336 9.99261ZM18.7267 15.0006V6.84061H20.3587V7.96061H20.4547C20.6147 7.69394 20.8227 7.45928 21.0787 7.25661C21.3347 7.05394 21.6227 6.89394 21.9427 6.77661C22.2734 6.64861 22.6147 6.58461 22.9667 6.58461C23.5747 6.58461 24.0921 6.72861 24.5187 7.01661C24.9454 7.30461 25.2494 7.66728 25.4307 8.10461C25.6974 7.67794 26.0601 7.32061 26.5187 7.03261C26.9774 6.73394 27.5374 6.58461 28.1987 6.58461C29.1587 6.58461 29.8734 6.87794 30.3427 7.46461C30.8121 8.04061 31.0467 8.80861 31.0467 9.76861V15.0006H29.3347V10.0566C29.3347 9.39528 29.1907 8.91528 28.9027 8.61661C28.6254 8.31794 28.2361 8.16861 27.7347 8.16861C27.3401 8.16861 26.9934 8.28061 26.6947 8.50461C26.3961 8.71794 26.1614 9.01128 25.9907 9.38461C25.8307 9.75794 25.7507 10.1739 25.7507 10.6326V15.0006H24.0387V10.0566C24.0387 9.40594 23.8947 8.93128 23.6067 8.63261C23.3187 8.32328 22.9134 8.16861 22.3907 8.16861C22.0174 8.16861 21.6814 8.28061 21.3827 8.50461C21.0947 8.72861 20.8654 9.02728 20.6947 9.40061C20.5347 9.77394 20.4547 10.1899 20.4547 10.6486V15.0006H18.7267ZM33.1264 18.4566V6.84061H34.7424V7.94461H34.8384C34.9877 7.70994 35.185 7.49128 35.4304 7.28861C35.6864 7.07528 35.985 6.90461 36.3264 6.77661C36.6677 6.64861 37.0464 6.58461 37.4624 6.58461C38.209 6.58461 38.8757 6.77128 39.4624 7.14461C40.049 7.51794 40.513 8.02994 40.8544 8.68061C41.2064 9.33128 41.3824 10.0779 41.3824 10.9206C41.3824 11.7633 41.2064 12.5099 40.8544 13.1606C40.513 13.8113 40.049 14.3233 39.4624 14.6966C38.8757 15.0699 38.209 15.2566 37.4624 15.2566C36.8437 15.2566 36.305 15.1179 35.8464 14.8406C35.3877 14.5633 35.0517 14.2539 34.8384 13.9126H34.7424L34.8384 15.0486V18.4566H33.1264ZM37.2064 13.6726C37.633 13.6726 38.033 13.5606 38.4064 13.3366C38.7904 13.1126 39.0944 12.7926 39.3184 12.3766C39.553 11.9606 39.6704 11.4753 39.6704 10.9206C39.6704 10.3553 39.553 9.86994 39.3184 9.46461C39.0944 9.04861 38.7904 8.72861 38.4064 8.50461C38.033 8.28061 37.633 8.16861 37.2064 8.16861C36.7797 8.16861 36.3797 8.28061 36.0064 8.50461C35.633 8.72861 35.329 9.04861 35.0944 9.46461C34.8597 9.86994 34.7424 10.3553 34.7424 10.9206C34.7424 11.4859 34.8597 11.9766 35.0944 12.3926C35.329 12.7979 35.633 13.1126 36.0064 13.3366C36.3797 13.5606 36.7797 13.6726 37.2064 13.6726ZM45.6805 15.2566C45.0938 15.2566 44.5712 15.1393 44.1125 14.9046C43.6645 14.6699 43.3072 14.3499 43.0405 13.9446C42.7845 13.5286 42.6565 13.0539 42.6565 12.5206C42.6565 11.9339 42.8058 11.4379 43.1045 11.0326C43.4138 10.6273 43.8245 10.3179 44.3365 10.1046C44.8485 9.89128 45.4138 9.78461 46.0325 9.78461C46.3738 9.78461 46.6885 9.81128 46.9765 9.86461C47.2752 9.90728 47.5312 9.96061 47.7445 10.0246C47.9685 10.0886 48.1445 10.1579 48.2725 10.2326V9.80061C48.2725 9.26728 48.0805 8.84061 47.6965 8.52061C47.3125 8.20061 46.8165 8.04061 46.2085 8.04061C45.7925 8.04061 45.3978 8.13661 45.0245 8.32861C44.6512 8.50994 44.3525 8.76061 44.1285 9.08061L42.9445 8.16861C43.1792 7.83794 43.4618 7.55528 43.7925 7.32061C44.1338 7.08594 44.5125 6.90461 44.9285 6.77661C45.3552 6.64861 45.7978 6.58461 46.2565 6.58461C47.4405 6.58461 48.3525 6.87794 48.9925 7.46461C49.6325 8.04061 49.9525 8.85128 49.9525 9.89661V15.0006H48.2725V13.9926H48.1765C48.0378 14.2059 47.8458 14.4086 47.6005 14.6006C47.3658 14.7926 47.0832 14.9473 46.7525 15.0646C46.4325 15.1926 46.0752 15.2566 45.6805 15.2566ZM45.9845 13.8486C46.4325 13.8486 46.8272 13.7419 47.1685 13.5286C47.5205 13.3153 47.7925 13.0379 47.9845 12.6966C48.1765 12.3446 48.2725 11.9659 48.2725 11.5606C48.0378 11.4219 47.7498 11.3099 47.4085 11.2246C47.0778 11.1286 46.7258 11.0806 46.3525 11.0806C45.6485 11.0806 45.1472 11.2193 44.8485 11.4966C44.5498 11.7739 44.4005 12.1206 44.4005 12.5366C44.4005 12.9206 44.5445 13.2353 44.8325 13.4806C45.1205 13.7259 45.5045 13.8486 45.9845 13.8486ZM52.0049 15.0006V3.54461H53.7329V6.68061L53.6369 7.96061H53.7329C53.9569 7.56594 54.2982 7.24061 54.7569 6.98461C55.2262 6.71794 55.7435 6.58461 56.3089 6.58461C56.9915 6.58461 57.5569 6.72328 58.0049 7.00061C58.4635 7.27794 58.8049 7.66194 59.0289 8.15261C59.2529 8.63261 59.3649 9.19794 59.3649 9.84861V15.0006H57.6529V10.0726C57.6529 9.63528 57.5675 9.27794 57.3969 9.00061C57.2369 8.72328 57.0235 8.51528 56.7569 8.37661C56.4902 8.23794 56.1915 8.16861 55.8609 8.16861C55.4449 8.16861 55.0769 8.28594 54.7569 8.52061C54.4369 8.75528 54.1862 9.06461 54.0049 9.44861C53.8235 9.82194 53.7329 10.2219 53.7329 10.6486V15.0006H52.0049ZM68.8554 15.2566C68.1194 15.2566 67.4527 15.0699 66.8554 14.6966C66.258 14.3233 65.7887 13.8113 65.4474 13.1606C65.106 12.5099 64.9354 11.7633 64.9354 10.9206C64.9354 10.0779 65.106 9.33128 65.4474 8.68061C65.7887 8.02994 66.258 7.51794 66.8554 7.14461C67.4527 6.77128 68.1194 6.58461 68.8554 6.58461C69.282 6.58461 69.666 6.64861 70.0074 6.77661C70.3487 6.90461 70.642 7.07528 70.8874 7.28861C71.1434 7.49128 71.3407 7.70994 71.4794 7.94461H71.5754L71.4794 6.80861V3.54461H73.1914V15.0006H71.5754V13.9126H71.4794C71.3407 14.1366 71.1434 14.3553 70.8874 14.5686C70.642 14.7713 70.3487 14.9366 70.0074 15.0646C69.666 15.1926 69.282 15.2566 68.8554 15.2566ZM69.1114 13.6726C69.538 13.6726 69.938 13.5606 70.3114 13.3366C70.6954 13.1126 70.9994 12.7979 71.2234 12.3926C71.458 11.9766 71.5754 11.4859 71.5754 10.9206C71.5754 10.3553 71.458 9.86994 71.2234 9.46461C70.9994 9.04861 70.6954 8.72861 70.3114 8.50461C69.938 8.28061 69.538 8.16861 69.1114 8.16861C68.6847 8.16861 68.2847 8.28061 67.9114 8.50461C67.538 8.72861 67.234 9.04861 66.9994 9.46461C66.7647 9.86994 66.6474 10.3553 66.6474 10.9206C66.6474 11.4753 66.7647 11.9606 66.9994 12.3766C67.234 12.7926 67.538 13.1126 67.9114 13.3366C68.2847 13.5606 68.6847 13.6726 69.1114 13.6726ZM79.0266 15.2566C78.2266 15.2566 77.512 15.0699 76.8826 14.6966C76.2533 14.3233 75.7573 13.8113 75.3946 13.1606C75.0426 12.5099 74.8666 11.7686 74.8666 10.9366C74.8666 10.1579 75.0373 9.43794 75.3786 8.77661C75.72 8.11528 76.1946 7.58728 76.8026 7.19261C77.4213 6.78728 78.1306 6.58461 78.9306 6.58461C79.7733 6.58461 80.488 6.76594 81.0746 7.12861C81.672 7.49128 82.1253 7.98728 82.4346 8.61661C82.744 9.24594 82.8986 9.95528 82.8986 10.7446C82.8986 10.8619 82.8933 10.9686 82.8826 11.0646C82.8826 11.1606 82.8773 11.2353 82.8666 11.2886H76.5626C76.6053 11.7366 76.7173 12.1259 76.8986 12.4566C77.1333 12.8726 77.4426 13.1873 77.8266 13.4006C78.2106 13.6139 78.6266 13.7206 79.0746 13.7206C79.6186 13.7206 80.072 13.5979 80.4346 13.3526C80.808 13.0966 81.1013 12.7819 81.3146 12.4086L82.7386 13.0966C82.3866 13.7366 81.9066 14.2593 81.2986 14.6646C80.6906 15.0593 79.9333 15.2566 79.0266 15.2566ZM76.6586 9.99261H81.1866C81.176 9.78994 81.1226 9.57661 81.0266 9.35261C80.9306 9.11794 80.792 8.90461 80.6106 8.71261C80.4293 8.52061 80.2 8.36594 79.9226 8.24861C79.6453 8.12061 79.32 8.05661 78.9466 8.05661C78.4773 8.05661 78.0613 8.17928 77.6986 8.42461C77.336 8.65928 77.0533 8.98994 76.8506 9.41661C76.7653 9.59794 76.7013 9.78994 76.6586 9.99261ZM84.6517 15.0006V6.84061H86.2837V7.96061H86.3797C86.6144 7.56594 86.9611 7.24061 87.4197 6.98461C87.8891 6.71794 88.4011 6.58461 88.9557 6.58461C89.9584 6.58461 90.7104 6.88328 91.2117 7.48061C91.7131 8.06728 91.9637 8.85661 91.9637 9.84861V15.0006H90.2517V10.0726C90.2517 9.41128 90.0864 8.93128 89.7557 8.63261C89.4251 8.32328 88.9931 8.16861 88.4597 8.16861C88.0437 8.16861 87.6811 8.28594 87.3717 8.52061C87.0624 8.74461 86.8171 9.04328 86.6357 9.41661C86.4651 9.78994 86.3797 10.1899 86.3797 10.6166V15.0006H84.6517ZM97.6849 18.7126C96.9702 18.7126 96.3515 18.5953 95.8289 18.3606C95.3169 18.1366 94.9009 17.8433 94.5809 17.4806C94.2609 17.1286 94.0315 16.7659 93.8929 16.3926L95.4929 15.7206C95.6635 16.1473 95.9355 16.4939 96.3089 16.7606C96.6929 17.0379 97.1515 17.1766 97.6849 17.1766C98.4422 17.1766 99.0342 16.9526 99.4609 16.5046C99.8875 16.0566 100.101 15.4219 100.101 14.6006V13.8166H100.005C99.7489 14.1899 99.3969 14.4939 98.9489 14.7286C98.5009 14.9633 97.9835 15.0806 97.3969 15.0806C96.7035 15.0806 96.0635 14.9046 95.4769 14.5526C94.9009 14.2006 94.4369 13.7099 94.0849 13.0806C93.7435 12.4406 93.5729 11.6939 93.5729 10.8406C93.5729 9.97661 93.7435 9.22994 94.0849 8.60061C94.4369 7.96061 94.9009 7.46461 95.4769 7.11261C96.0635 6.76061 96.7035 6.58461 97.3969 6.58461C97.9835 6.58461 98.5009 6.70194 98.9489 6.93661C99.3969 7.16061 99.7489 7.46994 100.005 7.86461H100.101V6.84061H101.749V14.5686C101.749 15.4539 101.573 16.2059 101.221 16.8246C100.88 17.4433 100.405 17.9126 99.7969 18.2326C99.1889 18.5526 98.4849 18.7126 97.6849 18.7126ZM97.7009 13.5126C98.1275 13.5126 98.5222 13.4113 98.8849 13.2086C99.2582 12.9953 99.5515 12.6913 99.7649 12.2966C99.9889 11.8913 100.101 11.4059 100.101 10.8406C100.101 10.2433 99.9889 9.74728 99.7649 9.35261C99.5515 8.95794 99.2582 8.65928 98.8849 8.45661C98.5222 8.25394 98.1275 8.15261 97.7009 8.15261C97.2742 8.15261 96.8742 8.25394 96.5009 8.45661C96.1382 8.65928 95.8449 8.96328 95.6209 9.36861C95.3969 9.76328 95.2849 10.2539 95.2849 10.8406C95.2849 11.4166 95.3969 11.9073 95.6209 12.3126C95.8449 12.7073 96.1382 13.0059 96.5009 13.2086C96.8742 13.4113 97.2742 13.5126 97.7009 13.5126ZM106.402 15.2566C105.816 15.2566 105.293 15.1393 104.834 14.9046C104.386 14.6699 104.029 14.3499 103.762 13.9446C103.506 13.5286 103.378 13.0539 103.378 12.5206C103.378 11.9339 103.528 11.4379 103.826 11.0326C104.136 10.6273 104.546 10.3179 105.058 10.1046C105.57 9.89128 106.136 9.78461 106.754 9.78461C107.096 9.78461 107.41 9.81128 107.698 9.86461C107.997 9.90728 108.253 9.96061 108.466 10.0246C108.69 10.0886 108.866 10.1579 108.994 10.2326V9.80061C108.994 9.26728 108.802 8.84061 108.418 8.52061C108.034 8.20061 107.538 8.04061 106.93 8.04061C106.514 8.04061 106.12 8.13661 105.746 8.32861C105.373 8.50994 105.074 8.76061 104.85 9.08061L103.666 8.16861C103.901 7.83794 104.184 7.55528 104.514 7.32061C104.856 7.08594 105.234 6.90461 105.65 6.77661C106.077 6.64861 106.52 6.58461 106.978 6.58461C108.162 6.58461 109.074 6.87794 109.714 7.46461C110.354 8.04061 110.674 8.85128 110.674 9.89661V15.0006H108.994V13.9926H108.898C108.76 14.2059 108.568 14.4086 108.322 14.6006C108.088 14.7926 107.805 14.9473 107.474 15.0646C107.154 15.1926 106.797 15.2566 106.402 15.2566ZM106.706 13.8486C107.154 13.8486 107.549 13.7419 107.89 13.5286C108.242 13.3153 108.514 13.0379 108.706 12.6966C108.898 12.3446 108.994 11.9659 108.994 11.5606C108.76 11.4219 108.472 11.3099 108.13 11.2246C107.8 11.1286 107.448 11.0806 107.074 11.0806C106.37 11.0806 105.869 11.2193 105.57 11.4966C105.272 11.7739 105.122 12.1206 105.122 12.5366C105.122 12.9206 105.266 13.2353 105.554 13.4806C105.842 13.7259 106.226 13.8486 106.706 13.8486ZM112.727 15.0006V6.84061H114.359V7.96061H114.455C114.689 7.56594 115.036 7.24061 115.495 6.98461C115.964 6.71794 116.476 6.58461 117.031 6.58461C118.033 6.58461 118.785 6.88328 119.287 7.48061C119.788 8.06728 120.039 8.85661 120.039 9.84861V15.0006H118.327V10.0726C118.327 9.41128 118.161 8.93128 117.831 8.63261C117.5 8.32328 117.068 8.16861 116.535 8.16861C116.119 8.16861 115.756 8.28594 115.447 8.52061C115.137 8.74461 114.892 9.04328 114.711 9.41661C114.54 9.78994 114.455 10.1899 114.455 10.6166V15.0006H112.727Z" fill="white"/>
<g id="GPay (Dark)">
<g id="GPay">
<g id="Pay">
<path id="Fill 1" fill-rule="evenodd" clip-rule="evenodd" d="M149.356 3.42339V8.16175H152.278C152.974 8.16175 153.55 7.92781 154.005 7.45993C154.473 6.99313 154.707 6.43644 154.707 5.79203C154.707 5.16061 154.473 4.61041 154.005 4.14254C153.55 3.66274 152.974 3.4223 152.278 3.4223H149.356V3.42339ZM149.356 9.82966V15.3262H147.611V1.75549H152.24C153.417 1.75549 154.415 2.14756 155.238 2.93061C156.073 3.71365 156.491 4.66782 156.491 5.79203C156.491 6.94224 156.073 7.90291 155.238 8.67296C154.428 9.44409 153.429 9.82858 152.24 9.82858H149.356V9.82966Z" fill="white"/>
<path id="Fill 3" fill-rule="evenodd" clip-rule="evenodd" d="M158.255 12.4831C158.255 12.9379 158.448 13.317 158.834 13.6203C159.22 13.9235 159.672 14.0752 160.19 14.0752C160.924 14.0752 161.578 13.8032 162.153 13.2607C162.729 12.717 163.017 12.0791 163.017 11.3469C162.472 10.917 161.713 10.7025 160.74 10.7025C160.031 10.7025 159.44 10.8736 158.966 11.2148C158.492 11.5559 158.255 11.9773 158.255 12.4831M160.513 5.73566C161.803 5.73566 162.821 6.08007 163.569 6.76889C164.314 7.45771 164.687 8.40213 164.687 9.60216V15.3261H163.018V14.0373H162.942C162.221 15.0985 161.259 15.6294 160.058 15.6294C159.033 15.6294 158.176 15.3261 157.487 14.7196C156.797 14.1131 156.453 13.3549 156.453 12.4452C156.453 11.4845 156.816 10.7208 157.543 10.1523C158.271 9.58375 159.241 9.2989 160.456 9.2989C161.492 9.2989 162.346 9.48844 163.017 9.86751V9.46894C163.017 8.86243 162.776 8.34798 162.296 7.92451C161.814 7.50103 161.252 7.28984 160.607 7.28984C159.633 7.28984 158.862 7.70032 158.293 8.52235L156.755 7.55519C157.603 6.34217 158.855 5.73566 160.513 5.73566" fill="white"/>
<path id="Fill 5" fill-rule="evenodd" clip-rule="evenodd" d="M174.269 6.03894L168.443 19.4201H166.641L168.804 14.738L164.971 6.03894H166.869L169.639 12.7106H169.677L172.371 6.03894H174.269Z" fill="white"/>
</g>
<g id="G">
<path id="Fill 8" fill-rule="evenodd" clip-rule="evenodd" d="M142.303 8.64473C142.303 8.09563 142.256 7.56601 142.168 7.05914H134.806V10.0625H139.023C138.842 11.0414 138.294 11.8744 137.464 12.4322V14.3828H139.98C141.454 13.0246 142.303 11.0177 142.303 8.64473" fill="#4285F4"/>
<path id="Fill 10" fill-rule="evenodd" clip-rule="evenodd" d="M134.806 16.2651C136.913 16.2651 138.687 15.5741 139.98 14.3828L137.464 12.4322C136.763 12.9033 135.861 13.1784 134.806 13.1784C132.77 13.1784 131.042 11.8073 130.424 9.95959H127.832V11.9687C129.116 14.516 131.757 16.2651 134.806 16.2651" fill="#34A853"/>
<path id="Fill 12" fill-rule="evenodd" clip-rule="evenodd" d="M130.424 9.9596C130.266 9.48847 130.179 8.98593 130.179 8.46715C130.179 7.94837 130.266 7.44583 130.424 6.9747V4.96564H127.832C127.3 6.01837 127 7.20756 127 8.46715C127 9.72674 127.3 10.916 127.832 11.9687L130.424 9.9596Z" fill="#FABB05"/>
<path id="Fill 14" fill-rule="evenodd" clip-rule="evenodd" d="M134.806 3.75583C135.957 3.75583 136.988 4.15115 137.801 4.92553V4.92661L140.029 2.70094C138.676 1.44243 136.912 0.669128 134.806 0.669128C131.757 0.669128 129.116 2.41826 127.832 4.9656L130.424 6.97467C131.042 5.12698 132.77 3.75583 134.806 3.75583" fill="#E94235"/>
</g>
</g>
</g>
</g>
</svg>
