<svg width="434" height="38" viewBox="0 0 434 38" fill="none" xmlns="http://www.w3.org/2000/svg">
<g id="ms_checkout_with_Dark">
<path id="Text" d="M2.72973 30V9.952H10.2337C11.3164 9.952 12.3057 10.1853 13.2017 10.652C14.1164 11.1187 14.8351 11.7533 15.3577 12.556C15.8991 13.3587 16.1697 14.264 16.1697 15.272C16.1697 16.2987 15.9084 17.176 15.3857 17.904C14.8817 18.632 14.2377 19.1827 13.4537 19.556V19.696C14.4617 20.0507 15.2831 20.6387 15.9177 21.46C16.5524 22.2627 16.8697 23.2333 16.8697 24.372C16.8697 25.492 16.5804 26.4813 16.0017 27.34C15.4417 28.18 14.6764 28.8333 13.7057 29.3C12.7537 29.7667 11.7084 30 10.5697 30H2.72973ZM10.2057 12.78H5.80973V18.38H10.0937C11.0644 18.38 11.8204 18.0907 12.3617 17.512C12.9031 16.9147 13.1737 16.2613 13.1737 15.552C13.1737 14.8613 12.9124 14.2267 12.3897 13.648C11.8671 13.0693 11.1391 12.78 10.2057 12.78ZM5.80973 27.144H10.5697C11.5777 27.144 12.3617 26.8453 12.9217 26.248C13.5004 25.632 13.7897 24.932 13.7897 24.148C13.7897 23.364 13.5004 22.664 12.9217 22.048C12.3431 21.432 11.5217 21.124 10.4577 21.124H5.80973V27.144ZM25.2331 30.448C23.4784 30.448 22.1531 29.9253 21.2571 28.88C20.3797 27.816 19.9411 26.3787 19.9411 24.568V15.72H22.9651V24.148C22.9651 25.3613 23.2451 26.2573 23.8051 26.836C24.3837 27.396 25.1024 27.676 25.9611 27.676C26.7264 27.676 27.3891 27.48 27.9491 27.088C28.5277 26.6773 28.9664 26.1547 29.2651 25.52C29.5824 24.8667 29.7411 24.1573 29.7411 23.392V15.72H32.7371V30H29.9091V28.068H29.7411C29.3304 28.74 28.7144 29.3093 27.8931 29.776C27.0904 30.224 26.2037 30.448 25.2331 30.448ZM40.9385 30.448C39.9119 30.448 38.9972 30.252 38.1945 29.86C37.3919 29.4493 36.7665 28.88 36.3185 28.152C35.8705 27.424 35.6465 26.5933 35.6465 25.66C35.6465 24.652 35.9079 23.7933 36.4305 23.084C36.9719 22.356 37.6905 21.8053 38.5865 21.432C39.4825 21.0587 40.4719 20.872 41.5545 20.872C42.4505 20.872 43.2345 20.956 43.9065 21.124C44.5972 21.292 45.1199 21.4693 45.4745 21.656V20.9C45.4745 19.9667 45.1385 19.22 44.4665 18.66C43.7945 18.1 42.9265 17.82 41.8625 17.82C41.1345 17.82 40.4439 17.988 39.7905 18.324C39.1372 18.6413 38.6145 19.08 38.2225 19.64L36.1505 18.044C36.7665 17.1853 37.5785 16.5133 38.5865 16.028C39.6132 15.524 40.7332 15.272 41.9465 15.272C44.0185 15.272 45.6145 15.7853 46.7345 16.812C47.8545 17.82 48.4145 19.2387 48.4145 21.068V30H45.4745V28.236H45.3065C44.9332 28.8147 44.3732 29.328 43.6265 29.776C42.8799 30.224 41.9839 30.448 40.9385 30.448ZM41.4705 27.984C42.2545 27.984 42.9452 27.7973 43.5425 27.424C44.1399 27.0507 44.6065 26.5653 44.9425 25.968C45.2972 25.352 45.4745 24.6893 45.4745 23.98C45.0452 23.7373 44.5412 23.5413 43.9625 23.392C43.3839 23.224 42.7679 23.14 42.1145 23.14C40.8825 23.14 40.0052 23.392 39.4825 23.896C38.9599 24.3813 38.6985 24.9787 38.6985 25.688C38.6985 26.36 38.9505 26.9107 39.4545 27.34C39.9585 27.7693 40.6305 27.984 41.4705 27.984ZM53.2823 25.856V18.352H50.7903V15.72H53.2823V11.688H56.3063V15.72H59.8063V18.352H56.3063V25.212C56.3063 25.9213 56.4463 26.4627 56.7263 26.836C57.0249 27.2093 57.5196 27.396 58.2103 27.396C58.5649 27.396 58.8636 27.3493 59.1063 27.256C59.3676 27.1627 59.6289 27.032 59.8903 26.864V29.804C59.5729 29.9347 59.2369 30.0373 58.8823 30.112C58.5276 30.1867 58.1076 30.224 57.6223 30.224C56.2969 30.224 55.2423 29.8413 54.4583 29.076C53.6743 28.292 53.2823 27.2187 53.2823 25.856ZM69.8149 36.048V15.72H72.6429V17.652H72.8109C73.1843 17.036 73.7629 16.4853 74.5469 16C75.3496 15.5147 76.3016 15.272 77.4029 15.272C78.7096 15.272 79.8763 15.5987 80.9029 16.252C81.9296 16.9053 82.7416 17.8013 83.3389 18.94C83.9549 20.0787 84.2629 21.3853 84.2629 22.86C84.2629 24.3347 83.9549 25.6507 83.3389 26.808C82.7416 27.9467 81.9296 28.8427 80.9029 29.496C79.8763 30.1307 78.7096 30.448 77.4029 30.448C76.3016 30.448 75.3496 30.2147 74.5469 29.748C73.7629 29.2627 73.1843 28.712 72.8109 28.096H72.6429L72.8109 30.084V36.048H69.8149ZM76.9549 27.676C77.7016 27.676 78.4016 27.48 79.0549 27.088C79.7083 26.696 80.2403 26.1453 80.6509 25.436C81.0616 24.708 81.2669 23.8493 81.2669 22.86C81.2669 21.8707 81.0616 21.0213 80.6509 20.312C80.2403 19.584 79.7083 19.024 79.0549 18.632C78.4016 18.24 77.7016 18.044 76.9549 18.044C76.2083 18.044 75.5083 18.24 74.8549 18.632C74.2016 19.024 73.6696 19.584 73.2589 20.312C72.8483 21.0213 72.6429 21.8707 72.6429 22.86C72.6429 23.8493 72.8483 24.708 73.2589 25.436C73.6696 26.1453 74.2016 26.696 74.8549 27.088C75.5083 27.48 76.2083 27.676 76.9549 27.676ZM93.8661 30.448C92.4661 30.448 91.2155 30.1213 90.1141 29.468C89.0128 28.8147 88.1448 27.9187 87.5101 26.78C86.8941 25.6413 86.5861 24.344 86.5861 22.888C86.5861 21.5253 86.8848 20.2653 87.4821 19.108C88.0795 17.9507 88.9101 17.0267 89.9741 16.336C91.0568 15.6267 92.2981 15.272 93.6981 15.272C95.1728 15.272 96.4235 15.5893 97.4501 16.224C98.4955 16.8587 99.2888 17.7267 99.8301 18.828C100.371 19.9293 100.642 21.1707 100.642 22.552C100.642 22.7573 100.633 22.944 100.614 23.112C100.614 23.28 100.605 23.4107 100.586 23.504H89.5541C89.7035 24.9227 90.1981 25.9867 91.0381 26.696C91.8968 27.4053 92.8675 27.76 93.9501 27.76C94.9208 27.76 95.7235 27.5453 96.3581 27.116C96.9928 26.668 97.4968 26.1173 97.8701 25.464L100.362 26.668C99.7461 27.788 98.9061 28.7027 97.8421 29.412C96.7781 30.1027 95.4528 30.448 93.8661 30.448ZM93.7261 17.848C92.7181 17.848 91.8595 18.156 91.1501 18.772C90.4408 19.388 89.9648 20.2093 89.7221 21.236H97.6461C97.6088 20.7507 97.4501 20.2467 97.1701 19.724C96.8901 19.2013 96.4608 18.7627 95.8821 18.408C95.3221 18.0347 94.6035 17.848 93.7261 17.848ZM103.748 30V15.72H106.604V17.68H106.772C107.182 16.9893 107.78 16.42 108.564 15.972C109.348 15.5053 110.216 15.272 111.168 15.272C112.232 15.272 113.137 15.524 113.884 16.028C114.63 16.532 115.162 17.1667 115.48 17.932C115.946 17.1853 116.581 16.56 117.384 16.056C118.186 15.5333 119.166 15.272 120.324 15.272C122.004 15.272 123.254 15.7853 124.076 16.812C124.897 17.82 125.308 19.164 125.308 20.844V30H122.312V21.348C122.312 20.2093 122.06 19.3787 121.556 18.856C121.07 18.3147 120.389 18.044 119.512 18.044C118.821 18.044 118.214 18.24 117.692 18.632C117.169 19.0053 116.758 19.5187 116.46 20.172C116.18 20.8253 116.04 21.5533 116.04 22.356V30H113.044V21.348C113.044 20.2093 112.792 19.3787 112.288 18.856C111.784 18.3147 111.074 18.044 110.16 18.044C109.488 18.044 108.9 18.24 108.396 18.632C107.892 19.024 107.49 19.5467 107.192 20.2C106.912 20.8533 106.772 21.5813 106.772 22.384V30H103.748ZM136.628 30.448C135.527 30.448 134.575 30.2147 133.772 29.748C132.988 29.2627 132.41 28.712 132.036 28.096H131.868V30H129.012V9.952H132.036V15.664L131.868 17.652H132.036C132.41 17.036 132.988 16.4853 133.772 16C134.575 15.5147 135.527 15.272 136.628 15.272C137.935 15.272 139.102 15.5987 140.128 16.252C141.155 16.9053 141.967 17.8013 142.564 18.94C143.18 20.0787 143.488 21.3853 143.488 22.86C143.488 24.3347 143.18 25.6507 142.564 26.808C141.967 27.9467 141.155 28.8427 140.128 29.496C139.102 30.1307 137.935 30.448 136.628 30.448ZM136.18 27.676C136.927 27.676 137.627 27.48 138.28 27.088C138.934 26.696 139.466 26.1453 139.876 25.436C140.287 24.708 140.492 23.8493 140.492 22.86C140.492 21.8707 140.287 21.0213 139.876 20.312C139.466 19.584 138.934 19.024 138.28 18.632C137.627 18.24 136.927 18.044 136.18 18.044C135.434 18.044 134.734 18.24 134.08 18.632C133.427 19.024 132.895 19.584 132.484 20.312C132.074 21.0213 131.868 21.8707 131.868 22.86C131.868 23.8493 132.074 24.708 132.484 25.436C132.895 26.1453 133.427 26.696 134.08 27.088C134.734 27.48 135.434 27.676 136.18 27.676ZM151.046 30.448C150.02 30.448 149.105 30.252 148.302 29.86C147.5 29.4493 146.874 28.88 146.426 28.152C145.978 27.424 145.754 26.5933 145.754 25.66C145.754 24.652 146.016 23.7933 146.538 23.084C147.08 22.356 147.798 21.8053 148.694 21.432C149.59 21.0587 150.58 20.872 151.662 20.872C152.558 20.872 153.342 20.956 154.014 21.124C154.705 21.292 155.228 21.4693 155.582 21.656V20.9C155.582 19.9667 155.246 19.22 154.574 18.66C153.902 18.1 153.034 17.82 151.97 17.82C151.242 17.82 150.552 17.988 149.898 18.324C149.245 18.6413 148.722 19.08 148.33 19.64L146.258 18.044C146.874 17.1853 147.686 16.5133 148.694 16.028C149.721 15.524 150.841 15.272 152.054 15.272C154.126 15.272 155.722 15.7853 156.842 16.812C157.962 17.82 158.522 19.2387 158.522 21.068V30H155.582V28.236H155.414C155.041 28.8147 154.481 29.328 153.734 29.776C152.988 30.224 152.092 30.448 151.046 30.448ZM151.578 27.984C152.362 27.984 153.053 27.7973 153.65 27.424C154.248 27.0507 154.714 26.5653 155.05 25.968C155.405 25.352 155.582 24.6893 155.582 23.98C155.153 23.7373 154.649 23.5413 154.07 23.392C153.492 23.224 152.876 23.14 152.222 23.14C150.99 23.14 150.113 23.392 149.59 23.896C149.068 24.3813 148.806 24.9787 148.806 25.688C148.806 26.36 149.058 26.9107 149.562 27.34C150.066 27.7693 150.738 27.984 151.578 27.984ZM166.75 35.348C166.694 35.4973 166.629 35.6373 166.554 35.768C166.498 35.8987 166.461 35.992 166.442 36.048H163.222C163.315 35.8427 163.446 35.544 163.614 35.152C163.801 34.7787 163.978 34.4147 164.146 34.06C164.314 33.7053 164.491 33.304 164.678 32.856C164.883 32.408 165.089 31.9693 165.294 31.54L166.358 29.216L160.394 15.72H163.754L167.842 25.464H167.982L171.93 15.72H175.262L167.87 32.744C167.665 33.2293 167.441 33.7333 167.198 34.256C166.974 34.7973 166.825 35.1613 166.75 35.348ZM181.342 30.448C180.315 30.448 179.4 30.252 178.598 29.86C177.795 29.4493 177.17 28.88 176.722 28.152C176.274 27.424 176.05 26.5933 176.05 25.66C176.05 24.652 176.311 23.7933 176.834 23.084C177.375 22.356 178.094 21.8053 178.99 21.432C179.886 21.0587 180.875 20.872 181.958 20.872C182.854 20.872 183.638 20.956 184.31 21.124C185 21.292 185.523 21.4693 185.878 21.656V20.9C185.878 19.9667 185.542 19.22 184.87 18.66C184.198 18.1 183.33 17.82 182.266 17.82C181.538 17.82 180.847 17.988 180.194 18.324C179.54 18.6413 179.018 19.08 178.626 19.64L176.554 18.044C177.17 17.1853 177.982 16.5133 178.99 16.028C180.016 15.524 181.136 15.272 182.35 15.272C184.422 15.272 186.018 15.7853 187.138 16.812C188.258 17.82 188.818 19.2387 188.818 21.068V30H185.878V28.236H185.71C185.336 28.8147 184.776 29.328 184.03 29.776C183.283 30.224 182.387 30.448 181.342 30.448ZM181.874 27.984C182.658 27.984 183.348 27.7973 183.946 27.424C184.543 27.0507 185.01 26.5653 185.346 25.968C185.7 25.352 185.878 24.6893 185.878 23.98C185.448 23.7373 184.944 23.5413 184.366 23.392C183.787 23.224 183.171 23.14 182.518 23.14C181.286 23.14 180.408 23.392 179.886 23.896C179.363 24.3813 179.102 24.9787 179.102 25.688C179.102 26.36 179.354 26.9107 179.858 27.34C180.362 27.7693 181.034 27.984 181.874 27.984ZM192.447 30V15.72H195.303V17.82H195.471C195.788 17.092 196.329 16.4947 197.095 16.028C197.879 15.5427 198.719 15.3 199.615 15.3C200.007 15.3 200.333 15.328 200.595 15.384C200.875 15.44 201.127 15.5053 201.351 15.58V18.716C200.996 18.5667 200.632 18.4453 200.259 18.352C199.904 18.2587 199.531 18.212 199.139 18.212C198.429 18.212 197.795 18.408 197.235 18.8C196.693 19.1733 196.264 19.6867 195.947 20.34C195.629 20.9747 195.471 21.6747 195.471 22.44V30H192.447ZM207.973 30.448C206.946 30.448 206.032 30.252 205.229 29.86C204.426 29.4493 203.801 28.88 203.353 28.152C202.905 27.424 202.681 26.5933 202.681 25.66C202.681 24.652 202.942 23.7933 203.465 23.084C204.006 22.356 204.725 21.8053 205.621 21.432C206.517 21.0587 207.506 20.872 208.589 20.872C209.485 20.872 210.269 20.956 210.941 21.124C211.632 21.292 212.154 21.4693 212.509 21.656V20.9C212.509 19.9667 212.173 19.22 211.501 18.66C210.829 18.1 209.961 17.82 208.897 17.82C208.169 17.82 207.478 17.988 206.825 18.324C206.172 18.6413 205.649 19.08 205.257 19.64L203.185 18.044C203.801 17.1853 204.613 16.5133 205.621 16.028C206.648 15.524 207.768 15.272 208.981 15.272C211.053 15.272 212.649 15.7853 213.769 16.812C214.889 17.82 215.449 19.2387 215.449 21.068V30H212.509V28.236H212.341C211.968 28.8147 211.408 29.328 210.661 29.776C209.914 30.224 209.018 30.448 207.973 30.448ZM208.505 27.984C209.289 27.984 209.98 27.7973 210.577 27.424C211.174 27.0507 211.641 26.5653 211.977 25.968C212.332 25.352 212.509 24.6893 212.509 23.98C212.08 23.7373 211.576 23.5413 210.997 23.392C210.418 23.224 209.802 23.14 209.149 23.14C207.917 23.14 207.04 23.392 206.517 23.896C205.994 24.3813 205.733 24.9787 205.733 25.688C205.733 26.36 205.985 26.9107 206.489 27.34C206.993 27.7693 207.665 27.984 208.505 27.984ZM219.078 30V15.72H221.934V17.68H222.102C222.513 16.9893 223.119 16.42 223.922 15.972C224.743 15.5053 225.639 15.272 226.61 15.272C228.365 15.272 229.681 15.7947 230.558 16.84C231.435 17.8853 231.874 19.2667 231.874 20.984V30H228.878V21.376C228.878 20.2187 228.589 19.3787 228.01 18.856C227.431 18.3147 226.675 18.044 225.742 18.044C225.014 18.044 224.379 18.2493 223.838 18.66C223.297 19.052 222.867 19.5747 222.55 20.228C222.251 20.8813 222.102 21.5813 222.102 22.328V30H219.078ZM248.559 30.448C247.271 30.448 246.105 30.1307 245.059 29.496C244.033 28.8427 243.211 27.9467 242.595 26.808C241.998 25.6507 241.699 24.3347 241.699 22.86C241.699 21.3853 241.998 20.0787 242.595 18.94C243.211 17.8013 244.033 16.9053 245.059 16.252C246.105 15.5987 247.271 15.272 248.559 15.272C249.661 15.272 250.603 15.5147 251.387 16C252.19 16.4853 252.778 17.036 253.151 17.652H253.319L253.151 15.664V9.952H256.147V30H253.319V28.096H253.151C252.778 28.712 252.19 29.2627 251.387 29.748C250.603 30.2147 249.661 30.448 248.559 30.448ZM249.007 27.676C249.754 27.676 250.454 27.48 251.107 27.088C251.779 26.696 252.311 26.1453 252.703 25.436C253.114 24.708 253.319 23.8493 253.319 22.86C253.319 21.8707 253.114 21.0213 252.703 20.312C252.311 19.584 251.779 19.024 251.107 18.632C250.454 18.24 249.754 18.044 249.007 18.044C248.261 18.044 247.561 18.24 246.907 18.632C246.254 19.024 245.722 19.584 245.311 20.312C244.901 21.0213 244.695 21.8707 244.695 22.86C244.695 23.8493 244.901 24.708 245.311 25.436C245.722 26.1453 246.254 26.696 246.907 27.088C247.561 27.48 248.261 27.676 249.007 27.676ZM266.397 30.448C264.997 30.448 263.746 30.1213 262.645 29.468C261.543 28.8147 260.675 27.9187 260.041 26.78C259.425 25.6413 259.117 24.344 259.117 22.888C259.117 21.5253 259.415 20.2653 260.013 19.108C260.61 17.9507 261.441 17.0267 262.505 16.336C263.587 15.6267 264.829 15.272 266.229 15.272C267.703 15.272 268.954 15.5893 269.981 16.224C271.026 16.8587 271.819 17.7267 272.361 18.828C272.902 19.9293 273.173 21.1707 273.173 22.552C273.173 22.7573 273.163 22.944 273.145 23.112C273.145 23.28 273.135 23.4107 273.117 23.504H262.085C262.234 24.9227 262.729 25.9867 263.569 26.696C264.427 27.4053 265.398 27.76 266.481 27.76C267.451 27.76 268.254 27.5453 268.889 27.116C269.523 26.668 270.027 26.1173 270.401 25.464L272.893 26.668C272.277 27.788 271.437 28.7027 270.373 29.412C269.309 30.1027 267.983 30.448 266.397 30.448ZM266.257 17.848C265.249 17.848 264.39 18.156 263.681 18.772C262.971 19.388 262.495 20.2093 262.253 21.236H270.177C270.139 20.7507 269.981 20.2467 269.701 19.724C269.421 19.2013 268.991 18.7627 268.413 18.408C267.853 18.0347 267.134 17.848 266.257 17.848ZM276.278 30V15.72H279.134V17.68H279.302C279.713 16.9893 280.319 16.42 281.122 15.972C281.943 15.5053 282.839 15.272 283.81 15.272C285.565 15.272 286.881 15.7947 287.758 16.84C288.635 17.8853 289.074 19.2667 289.074 20.984V30H286.078V21.376C286.078 20.2187 285.789 19.3787 285.21 18.856C284.631 18.3147 283.875 18.044 282.942 18.044C282.214 18.044 281.579 18.2493 281.038 18.66C280.497 19.052 280.067 19.5747 279.75 20.228C279.451 20.8813 279.302 21.5813 279.302 22.328V30H276.278ZM299.124 36.496C297.873 36.496 296.79 36.2907 295.876 35.88C294.98 35.488 294.252 34.9747 293.692 34.34C293.132 33.724 292.73 33.0893 292.488 32.436L295.288 31.26C295.586 32.0067 296.062 32.6133 296.716 33.08C297.388 33.5653 298.19 33.808 299.124 33.808C300.43 33.808 301.457 33.416 302.204 32.632C302.969 31.848 303.352 30.7373 303.352 29.3V27.928H303.184C302.736 28.6 302.11 29.1413 301.308 29.552C300.524 29.944 299.628 30.14 298.62 30.14C297.406 30.14 296.296 29.832 295.288 29.216C294.28 28.6 293.468 27.7413 292.852 26.64C292.236 25.52 291.928 24.2133 291.928 22.72C291.928 21.208 292.236 19.9013 292.852 18.8C293.468 17.68 294.28 16.812 295.288 16.196C296.296 15.58 297.406 15.272 298.62 15.272C299.628 15.272 300.524 15.4773 301.308 15.888C302.11 16.2987 302.736 16.84 303.184 17.512H303.352V15.72H306.236V29.244C306.236 30.7933 305.928 32.1093 305.312 33.192C304.714 34.2747 303.884 35.096 302.82 35.656C301.756 36.216 300.524 36.496 299.124 36.496ZM299.152 27.396C299.898 27.396 300.589 27.2187 301.224 26.864C301.858 26.4907 302.372 25.9587 302.764 25.268C303.156 24.5587 303.352 23.7093 303.352 22.72C303.352 21.6933 303.156 20.8347 302.764 20.144C302.372 19.4347 301.858 18.9027 301.224 18.548C300.589 18.1933 299.898 18.016 299.152 18.016C298.405 18.016 297.705 18.2027 297.052 18.576C296.417 18.9307 295.904 19.4533 295.512 20.144C295.12 20.8347 294.924 21.6933 294.924 22.72C294.924 23.728 295.12 24.5867 295.512 25.296C295.904 25.9867 296.417 26.5093 297.052 26.864C297.705 27.2187 298.405 27.396 299.152 27.396ZM314.417 30.448C313.39 30.448 312.475 30.252 311.673 29.86C310.87 29.4493 310.245 28.88 309.797 28.152C309.349 27.424 309.125 26.5933 309.125 25.66C309.125 24.652 309.386 23.7933 309.909 23.084C310.45 22.356 311.169 21.8053 312.065 21.432C312.961 21.0587 313.95 20.872 315.033 20.872C315.929 20.872 316.713 20.956 317.385 21.124C318.075 21.292 318.598 21.4693 318.953 21.656V20.9C318.953 19.9667 318.617 19.22 317.945 18.66C317.273 18.1 316.405 17.82 315.341 17.82C314.613 17.82 313.922 17.988 313.269 18.324C312.615 18.6413 312.093 19.08 311.701 19.64L309.629 18.044C310.245 17.1853 311.057 16.5133 312.065 16.028C313.091 15.524 314.211 15.272 315.425 15.272C317.497 15.272 319.093 15.7853 320.213 16.812C321.333 17.82 321.893 19.2387 321.893 21.068V30H318.953V28.236H318.785C318.411 28.8147 317.851 29.328 317.105 29.776C316.358 30.224 315.462 30.448 314.417 30.448ZM314.949 27.984C315.733 27.984 316.423 27.7973 317.021 27.424C317.618 27.0507 318.085 26.5653 318.421 25.968C318.775 25.352 318.953 24.6893 318.953 23.98C318.523 23.7373 318.019 23.5413 317.441 23.392C316.862 23.224 316.246 23.14 315.593 23.14C314.361 23.14 313.483 23.392 312.961 23.896C312.438 24.3813 312.177 24.9787 312.177 25.688C312.177 26.36 312.429 26.9107 312.933 27.34C313.437 27.7693 314.109 27.984 314.949 27.984ZM325.522 30V15.72H328.378V17.68H328.546C328.956 16.9893 329.563 16.42 330.366 15.972C331.187 15.5053 332.083 15.272 333.054 15.272C334.808 15.272 336.124 15.7947 337.002 16.84C337.879 17.8853 338.318 19.2667 338.318 20.984V30H335.322V21.376C335.322 20.2187 335.032 19.3787 334.454 18.856C333.875 18.3147 333.119 18.044 332.186 18.044C331.458 18.044 330.823 18.2493 330.282 18.66C329.74 19.052 329.311 19.5747 328.994 20.228C328.695 20.8813 328.546 21.5813 328.546 22.328V30H325.522Z" fill="white"/>
<g id="GPay Logo (Dark)">
<g id="GPay">
<g id="Pay">
<path id="Fill 1" fill-rule="evenodd" clip-rule="evenodd" d="M390.529 9.34665V17.5128H395.565C396.765 17.5128 397.757 17.1096 398.541 16.3032C399.347 15.4988 399.75 14.5394 399.75 13.4288C399.75 12.3406 399.347 11.3924 398.541 10.586C397.757 9.75916 396.765 9.34479 395.565 9.34479H390.529V9.34665ZM390.529 20.3872V29.8599H387.521V6.47218H395.499C397.527 6.47218 399.248 7.14787 400.666 8.49738C402.105 9.84688 402.824 11.4913 402.824 13.4288C402.824 15.411 402.105 17.0667 400.666 18.3938C399.27 19.7227 397.547 20.3854 395.499 20.3854H390.529V20.3872Z" fill="white"/>
<path id="Fill 3" fill-rule="evenodd" clip-rule="evenodd" d="M405.864 24.9602C405.864 25.7442 406.197 26.3975 406.862 26.9201C407.527 27.4427 408.306 27.704 409.2 27.704C410.465 27.704 411.591 27.2354 412.584 26.3004C413.576 25.3634 414.071 24.264 414.071 23.0022C413.133 22.2612 411.825 21.8916 410.147 21.8916C408.925 21.8916 407.907 22.1866 407.09 22.7745C406.273 23.3623 405.864 24.0886 405.864 24.9602ZM409.756 13.3317C411.98 13.3317 413.735 13.9253 415.022 15.1124C416.308 16.2995 416.95 17.9271 416.95 19.9952V29.8599H414.073V27.6387H413.942C412.699 29.4677 411.042 30.3825 408.972 30.3825C407.206 30.3825 405.728 29.8599 404.541 28.8146C403.353 27.7694 402.759 26.4628 402.759 24.8949C402.759 23.2393 403.385 21.9232 404.638 20.9434C405.892 19.9635 407.565 19.4726 409.658 19.4726C411.444 19.4726 412.916 19.7993 414.071 20.4525V19.7657C414.071 18.7204 413.656 17.8338 412.829 17.104C411.999 16.3742 411.031 16.0102 409.919 16.0102C408.239 16.0102 406.911 16.7176 405.93 18.1343L403.28 16.4675C404.741 14.377 406.899 13.3317 409.756 13.3317Z" fill="white"/>
<path id="Fill 5" fill-rule="evenodd" clip-rule="evenodd" d="M433.463 13.8543L423.424 36.9154H420.318L424.046 28.8464L417.44 13.8543H420.71L425.484 25.3522H425.55L430.193 13.8543H433.463Z" fill="white"/>
</g>
<g id="G">
<path id="Fill 8" fill-rule="evenodd" clip-rule="evenodd" d="M378.373 18.3452C378.373 17.3989 378.293 16.4861 378.141 15.6126H365.454V20.7885H372.72C372.408 22.4757 371.465 23.9112 370.033 24.8725V28.2341H374.37C376.91 25.8935 378.373 22.4348 378.373 18.3452Z" fill="#4285F4"/>
<path id="Fill 10" fill-rule="evenodd" clip-rule="evenodd" d="M365.454 31.4782C369.084 31.4782 372.141 30.2873 374.37 28.2341L370.033 24.8725C368.826 25.6844 367.272 26.1585 365.454 26.1585C361.944 26.1585 358.966 23.7955 357.901 20.6112H353.433V24.0736C355.647 28.4637 360.197 31.4782 365.454 31.4782Z" fill="#34A853"/>
<path id="Fill 12" fill-rule="evenodd" clip-rule="evenodd" d="M357.901 20.6111C357.628 19.7992 357.479 18.9331 357.479 18.0391C357.479 17.145 357.628 16.2789 357.901 15.467V12.0045H353.433C352.518 13.8188 352 15.8683 352 18.0391C352 20.2098 352.518 22.2595 353.433 24.0736L357.901 20.6111Z" fill="#FABB05"/>
<path id="Fill 14" fill-rule="evenodd" clip-rule="evenodd" d="M365.454 9.91964C367.436 9.91964 369.213 10.6009 370.615 11.9355V11.9374L374.455 8.10163C372.123 5.93272 369.082 4.60001 365.454 4.60001C360.197 4.60001 355.647 7.61447 353.433 12.0046L357.901 15.467C358.966 12.2827 361.944 9.91964 365.454 9.91964Z" fill="#E94235"/>
</g>
</g>
</g>
</g>
</svg>
