<svg width="216" height="21" viewBox="0 0 216 21" fill="none" xmlns="http://www.w3.org/2000/svg">
<g id="ms_checkout_with_Pay_NBG">
<path id="Left Text" d="M5.09588 15.2566C4.48788 15.2566 3.90654 15.1393 3.35188 14.9046C2.79721 14.6593 2.30654 14.3019 1.87988 13.8326C1.46388 13.3633 1.15454 12.7819 0.951878 12.0886L2.61588 11.4166C2.78654 12.0353 3.08521 12.5526 3.51188 12.9686C3.93854 13.3846 4.47188 13.5926 5.11188 13.5926C5.47454 13.5926 5.81054 13.5286 6.11988 13.4006C6.43988 13.2726 6.69588 13.0859 6.88788 12.8406C7.07988 12.5846 7.17588 12.2753 7.17588 11.9126C7.17588 11.5713 7.09588 11.2833 6.93588 11.0486C6.77588 10.8033 6.51988 10.5846 6.16788 10.3926C5.81588 10.1899 5.36788 9.99261 4.82388 9.80061L4.10388 9.54461C3.79454 9.42728 3.47988 9.28328 3.15988 9.11261C2.83988 8.94194 2.54121 8.73394 2.26388 8.48861C1.99721 8.23261 1.78388 7.93394 1.62388 7.59261C1.46388 7.25128 1.38388 6.85661 1.38388 6.40861C1.38388 5.83261 1.53321 5.30994 1.83188 4.84061C2.14121 4.37128 2.56254 3.99794 3.09588 3.72061C3.63988 3.43261 4.26921 3.28861 4.98388 3.28861C5.71988 3.28861 6.33321 3.42194 6.82388 3.68861C7.32521 3.94461 7.71455 4.25394 7.99188 4.61661C8.27988 4.97928 8.47721 5.32594 8.58388 5.65661L6.99988 6.32861C6.93588 6.10461 6.81854 5.88594 6.64788 5.67261C6.48788 5.45928 6.26921 5.28328 5.99188 5.14461C5.72521 4.99528 5.39455 4.92061 4.99988 4.92061C4.65855 4.92061 4.34388 4.98461 4.05588 5.11261C3.77854 5.24061 3.55454 5.41661 3.38388 5.64061C3.21321 5.85394 3.12788 6.10461 3.12788 6.39261C3.12788 6.80861 3.29854 7.14994 3.63988 7.41661C3.98121 7.67261 4.47721 7.90728 5.12788 8.12061L5.86388 8.37661C6.23721 8.50461 6.60521 8.65928 6.96788 8.84061C7.33055 9.01128 7.66121 9.23528 7.95988 9.51261C8.25855 9.77928 8.49321 10.1099 8.66388 10.5046C8.84521 10.8886 8.93588 11.3473 8.93588 11.8806C8.93588 12.4673 8.81855 12.9793 8.58388 13.4166C8.35988 13.8433 8.05588 14.1953 7.67188 14.4726C7.29855 14.7393 6.88254 14.9366 6.42388 15.0646C5.97588 15.1926 5.53321 15.2566 5.09588 15.2566ZM14.561 15.2566C13.761 15.2566 13.0463 15.0699 12.417 14.6966C11.7877 14.3233 11.2917 13.8113 10.929 13.1606C10.577 12.5099 10.401 11.7686 10.401 10.9366C10.401 10.1579 10.5717 9.43794 10.913 8.77661C11.2543 8.11528 11.729 7.58728 12.337 7.19261C12.9557 6.78728 13.665 6.58461 14.465 6.58461C15.3077 6.58461 16.0223 6.76594 16.609 7.12861C17.2063 7.49128 17.6597 7.98728 17.969 8.61661C18.2783 9.24594 18.433 9.95528 18.433 10.7446C18.433 10.8619 18.4277 10.9686 18.417 11.0646C18.417 11.1606 18.4117 11.2353 18.401 11.2886H12.097C12.1397 11.7366 12.2517 12.1259 12.433 12.4566C12.6677 12.8726 12.977 13.1873 13.361 13.4006C13.745 13.6139 14.161 13.7206 14.609 13.7206C15.153 13.7206 15.6063 13.5979 15.969 13.3526C16.3423 13.0966 16.6357 12.7819 16.849 12.4086L18.273 13.0966C17.921 13.7366 17.441 14.2593 16.833 14.6646C16.225 15.0593 15.4677 15.2566 14.561 15.2566ZM12.193 9.99261H16.721C16.7103 9.78994 16.657 9.57661 16.561 9.35261C16.465 9.11794 16.3263 8.90461 16.145 8.71261C15.9637 8.52061 15.7343 8.36594 15.457 8.24861C15.1797 8.12061 14.8543 8.05661 14.481 8.05661C14.0117 8.05661 13.5957 8.17928 13.233 8.42461C12.8703 8.65928 12.5877 8.98994 12.385 9.41661C12.2997 9.59794 12.2357 9.78994 12.193 9.99261ZM20.1861 15.0006V6.84061H21.8181V7.96061H21.9141C22.0741 7.69394 22.2821 7.45928 22.5381 7.25661C22.7941 7.05394 23.0821 6.89394 23.4021 6.77661C23.7328 6.64861 24.0741 6.58461 24.4261 6.58461C25.0341 6.58461 25.5515 6.72861 25.9781 7.01661C26.4048 7.30461 26.7088 7.66728 26.8901 8.10461C27.1568 7.67794 27.5195 7.32061 27.9781 7.03261C28.4368 6.73394 28.9968 6.58461 29.6581 6.58461C30.6181 6.58461 31.3328 6.87794 31.8021 7.46461C32.2715 8.04061 32.5061 8.80861 32.5061 9.76861V15.0006H30.7941V10.0566C30.7941 9.39528 30.6501 8.91528 30.3621 8.61661C30.0848 8.31794 29.6955 8.16861 29.1941 8.16861C28.7995 8.16861 28.4528 8.28061 28.1541 8.50461C27.8555 8.71794 27.6208 9.01128 27.4501 9.38461C27.2901 9.75794 27.2101 10.1739 27.2101 10.6326V15.0006H25.4981V10.0566C25.4981 9.40594 25.3541 8.93128 25.0661 8.63261C24.7781 8.32328 24.3728 8.16861 23.8501 8.16861C23.4768 8.16861 23.1408 8.28061 22.8421 8.50461C22.5541 8.72861 22.3248 9.02728 22.1541 9.40061C21.9941 9.77394 21.9141 10.1899 21.9141 10.6486V15.0006H20.1861ZM37.0836 15.2566C36.497 15.2566 35.9743 15.1393 35.5156 14.9046C35.0676 14.6699 34.7103 14.3499 34.4436 13.9446C34.1876 13.5286 34.0596 13.0539 34.0596 12.5206C34.0596 11.9339 34.209 11.4379 34.5076 11.0326C34.817 10.6273 35.2276 10.3179 35.7396 10.1046C36.2516 9.89128 36.817 9.78461 37.4356 9.78461C37.777 9.78461 38.0916 9.81128 38.3796 9.86461C38.6783 9.90728 38.9343 9.96061 39.1476 10.0246C39.3716 10.0886 39.5476 10.1579 39.6756 10.2326V9.80061C39.6756 9.26728 39.4836 8.84061 39.0996 8.52061C38.7156 8.20061 38.2196 8.04061 37.6116 8.04061C37.1956 8.04061 36.801 8.13661 36.4276 8.32861C36.0543 8.50994 35.7556 8.76061 35.5316 9.08061L34.3476 8.16861C34.5823 7.83794 34.865 7.55528 35.1956 7.32061C35.537 7.08594 35.9156 6.90461 36.3316 6.77661C36.7583 6.64861 37.201 6.58461 37.6596 6.58461C38.8436 6.58461 39.7556 6.87794 40.3956 7.46461C41.0356 8.04061 41.3556 8.85128 41.3556 9.89661V15.0006H39.6756V13.9926H39.5796C39.441 14.2059 39.249 14.4086 39.0036 14.6006C38.769 14.7926 38.4863 14.9473 38.1556 15.0646C37.8356 15.1926 37.4783 15.2566 37.0836 15.2566ZM37.3876 13.8486C37.8356 13.8486 38.2303 13.7419 38.5716 13.5286C38.9236 13.3153 39.1956 13.0379 39.3876 12.6966C39.5796 12.3446 39.6756 11.9659 39.6756 11.5606C39.441 11.4219 39.153 11.3099 38.8116 11.2246C38.481 11.1286 38.129 11.0806 37.7556 11.0806C37.0516 11.0806 36.5503 11.2193 36.2516 11.4966C35.953 11.7739 35.8036 12.1206 35.8036 12.5366C35.8036 12.9206 35.9476 13.2353 36.2356 13.4806C36.5236 13.7259 36.9076 13.8486 37.3876 13.8486ZM43.408 15.0006V3.54461H45.136V10.2966L48.592 6.84061H50.736V6.93661L47.584 10.0566L50.848 14.9046V15.0006H48.8L46.368 11.2566L45.136 12.4726V15.0006H43.408ZM55.958 15.0006V3.54461H57.686V10.2966L61.142 6.84061H63.286V6.93661L60.134 10.0566L63.398 14.9046V15.0006H61.35L58.918 11.2566L57.686 12.4726V15.0006H55.958ZM68.1173 15.2566C67.3173 15.2566 66.6026 15.0699 65.9733 14.6966C65.3439 14.3233 64.8479 13.8113 64.4853 13.1606C64.1333 12.5099 63.9573 11.7686 63.9573 10.9366C63.9573 10.1579 64.1279 9.43794 64.4693 8.77661C64.8106 8.11528 65.2853 7.58728 65.8933 7.19261C66.5119 6.78728 67.2213 6.58461 68.0213 6.58461C68.8639 6.58461 69.5786 6.76594 70.1653 7.12861C70.7626 7.49128 71.2159 7.98728 71.5253 8.61661C71.8346 9.24594 71.9893 9.95528 71.9893 10.7446C71.9893 10.8619 71.9839 10.9686 71.9733 11.0646C71.9733 11.1606 71.9679 11.2353 71.9573 11.2886H65.6533C65.6959 11.7366 65.8079 12.1259 65.9893 12.4566C66.2239 12.8726 66.5333 13.1873 66.9173 13.4006C67.3013 13.6139 67.7173 13.7206 68.1653 13.7206C68.7093 13.7206 69.1626 13.5979 69.5253 13.3526C69.8986 13.0966 70.1919 12.7819 70.4053 12.4086L71.8293 13.0966C71.4773 13.7366 70.9973 14.2593 70.3893 14.6646C69.7813 15.0593 69.0239 15.2566 68.1173 15.2566ZM65.7493 9.99261H70.2773C70.2666 9.78994 70.2133 9.57661 70.1173 9.35261C70.0213 9.11794 69.8826 8.90461 69.7013 8.71261C69.5199 8.52061 69.2906 8.36594 69.0133 8.24861C68.7359 8.12061 68.4106 8.05661 68.0373 8.05661C67.5679 8.05661 67.1519 8.17928 66.7893 8.42461C66.4266 8.65928 66.1439 8.98994 65.9413 9.41661C65.8559 9.59794 65.7919 9.78994 65.7493 9.99261ZM73.7584 15.0006V3.54461H75.4864V15.0006H73.7584ZM80.6336 15.2566C79.631 15.2566 78.8736 14.9579 78.3616 14.3606C77.8603 13.7526 77.6096 12.9313 77.6096 11.8966V6.84061H79.3376V11.6566C79.3376 12.3393 79.4976 12.8459 79.8176 13.1766C80.1483 13.5073 80.559 13.6726 81.0496 13.6726C81.4976 13.6726 81.8816 13.5606 82.2016 13.3366C82.5216 13.1019 82.767 12.7979 82.9376 12.4246C83.119 12.0513 83.2096 11.6513 83.2096 11.2246V6.84061H84.9216V15.0006H83.3056V13.8966H83.2096C83.0603 14.1526 82.8523 14.3819 82.5856 14.5846C82.319 14.7873 82.0203 14.9473 81.6896 15.0646C81.359 15.1926 81.007 15.2566 80.6336 15.2566ZM89.5868 15.2566C89.0001 15.2566 88.4774 15.1393 88.0188 14.9046C87.5708 14.6699 87.2134 14.3499 86.9468 13.9446C86.6908 13.5286 86.5628 13.0539 86.5628 12.5206C86.5628 11.9339 86.7121 11.4379 87.0108 11.0326C87.3201 10.6273 87.7308 10.3179 88.2428 10.1046C88.7548 9.89128 89.3201 9.78461 89.9388 9.78461C90.2801 9.78461 90.5948 9.81128 90.8828 9.86461C91.1814 9.90728 91.4374 9.96061 91.6508 10.0246C91.8748 10.0886 92.0508 10.1579 92.1788 10.2326V9.80061C92.1788 9.26728 91.9868 8.84061 91.6028 8.52061C91.2188 8.20061 90.7228 8.04061 90.1148 8.04061C89.6988 8.04061 89.3041 8.13661 88.9308 8.32861C88.5574 8.50994 88.2588 8.76061 88.0348 9.08061L86.8508 8.16861C87.0854 7.83794 87.3681 7.55528 87.6988 7.32061C88.0401 7.08594 88.4188 6.90461 88.8348 6.77661C89.2614 6.64861 89.7041 6.58461 90.1628 6.58461C91.3468 6.58461 92.2588 6.87794 92.8988 7.46461C93.5388 8.04061 93.8588 8.85128 93.8588 9.89661V15.0006H92.1788V13.9926H92.0828C91.9441 14.2059 91.7521 14.4086 91.5068 14.6006C91.2721 14.7926 90.9894 14.9473 90.6588 15.0646C90.3388 15.1926 89.9814 15.2566 89.5868 15.2566ZM89.8908 13.8486C90.3388 13.8486 90.7334 13.7419 91.0748 13.5286C91.4268 13.3153 91.6988 13.0379 91.8908 12.6966C92.0828 12.3446 92.1788 11.9659 92.1788 11.5606C91.9441 11.4219 91.6561 11.3099 91.3148 11.2246C90.9841 11.1286 90.6321 11.0806 90.2588 11.0806C89.5548 11.0806 89.0534 11.2193 88.7548 11.4966C88.4561 11.7739 88.3068 12.1206 88.3068 12.5366C88.3068 12.9206 88.4508 13.2353 88.7388 13.4806C89.0268 13.7259 89.4108 13.8486 89.8908 13.8486ZM95.9111 15.0006V6.84061H97.5431V8.04061H97.6391C97.7671 7.76328 97.9485 7.51794 98.1831 7.30461C98.4285 7.09128 98.7058 6.92061 99.0151 6.79261C99.3351 6.66461 99.6658 6.60061 100.007 6.60061C100.231 6.60061 100.418 6.61661 100.567 6.64861C100.727 6.66994 100.871 6.70728 100.999 6.76061V8.55261C100.796 8.46728 100.588 8.39794 100.375 8.34461C100.172 8.29128 99.9591 8.26461 99.7351 8.26461C99.3298 8.26461 98.9671 8.37661 98.6471 8.60061C98.3378 8.81394 98.0925 9.10194 97.9111 9.46461C97.7298 9.82728 97.6391 10.2326 97.6391 10.6806V15.0006H95.9111ZM109.855 15.2566C109.119 15.2566 108.453 15.0699 107.855 14.6966C107.258 14.3233 106.789 13.8113 106.447 13.1606C106.106 12.5099 105.935 11.7633 105.935 10.9206C105.935 10.0779 106.106 9.33128 106.447 8.68061C106.789 8.02994 107.258 7.51794 107.855 7.14461C108.453 6.77128 109.119 6.58461 109.855 6.58461C110.282 6.58461 110.666 6.64861 111.007 6.77661C111.349 6.90461 111.642 7.07528 111.887 7.28861C112.143 7.49128 112.341 7.70994 112.479 7.94461H112.575L112.479 6.80861V3.54461H114.191V15.0006H112.575V13.9126H112.479C112.341 14.1366 112.143 14.3553 111.887 14.5686C111.642 14.7713 111.349 14.9366 111.007 15.0646C110.666 15.1926 110.282 15.2566 109.855 15.2566ZM110.111 13.6726C110.538 13.6726 110.938 13.5606 111.311 13.3366C111.695 13.1126 111.999 12.7979 112.223 12.3926C112.458 11.9766 112.575 11.4859 112.575 10.9206C112.575 10.3553 112.458 9.86994 112.223 9.46461C111.999 9.04861 111.695 8.72861 111.311 8.50461C110.938 8.28061 110.538 8.16861 110.111 8.16861C109.685 8.16861 109.285 8.28061 108.911 8.50461C108.538 8.72861 108.234 9.04861 107.999 9.46461C107.765 9.86994 107.647 10.3553 107.647 10.9206C107.647 11.4753 107.765 11.9606 107.999 12.3766C108.234 12.7926 108.538 13.1126 108.911 13.3366C109.285 13.5606 109.685 13.6726 110.111 13.6726ZM120.027 15.2566C119.227 15.2566 118.512 15.0699 117.883 14.6966C117.253 14.3233 116.757 13.8113 116.395 13.1606C116.043 12.5099 115.867 11.7686 115.867 10.9366C115.867 10.1579 116.037 9.43794 116.379 8.77661C116.72 8.11528 117.195 7.58728 117.803 7.19261C118.421 6.78728 119.131 6.58461 119.931 6.58461C120.773 6.58461 121.488 6.76594 122.075 7.12861C122.672 7.49128 123.125 7.98728 123.435 8.61661C123.744 9.24594 123.899 9.95528 123.899 10.7446C123.899 10.8619 123.893 10.9686 123.883 11.0646C123.883 11.1606 123.877 11.2353 123.867 11.2886H117.563C117.605 11.7366 117.717 12.1259 117.899 12.4566C118.133 12.8726 118.443 13.1873 118.827 13.4006C119.211 13.6139 119.627 13.7206 120.075 13.7206C120.619 13.7206 121.072 13.5979 121.435 13.3526C121.808 13.0966 122.101 12.7819 122.315 12.4086L123.739 13.0966C123.387 13.7366 122.907 14.2593 122.299 14.6646C121.691 15.0593 120.933 15.2566 120.027 15.2566ZM117.659 9.99261H122.187C122.176 9.78994 122.123 9.57661 122.027 9.35261C121.931 9.11794 121.792 8.90461 121.611 8.71261C121.429 8.52061 121.2 8.36594 120.923 8.24861C120.645 8.12061 120.32 8.05661 119.947 8.05661C119.477 8.05661 119.061 8.17928 118.699 8.42461C118.336 8.65928 118.053 8.98994 117.851 9.41661C117.765 9.59794 117.701 9.78994 117.659 9.99261ZM125.652 15.0006V6.84061H127.284V7.96061H127.38C127.614 7.56594 127.961 7.24061 128.42 6.98461C128.889 6.71794 129.401 6.58461 129.956 6.58461C130.958 6.58461 131.71 6.88328 132.212 7.48061C132.713 8.06728 132.964 8.85661 132.964 9.84861V15.0006H131.252V10.0726C131.252 9.41128 131.086 8.93128 130.756 8.63261C130.425 8.32328 129.993 8.16861 129.46 8.16861C129.044 8.16861 128.681 8.28594 128.372 8.52061C128.062 8.74461 127.817 9.04328 127.636 9.41661C127.465 9.78994 127.38 10.1899 127.38 10.6166V15.0006H125.652ZM138.685 18.7126C137.97 18.7126 137.352 18.5953 136.829 18.3606C136.317 18.1366 135.901 17.8433 135.581 17.4806C135.261 17.1286 135.032 16.7659 134.893 16.3926L136.493 15.7206C136.664 16.1473 136.936 16.4939 137.309 16.7606C137.693 17.0379 138.152 17.1766 138.685 17.1766C139.442 17.1766 140.034 16.9526 140.461 16.5046C140.888 16.0566 141.101 15.4219 141.101 14.6006V13.8166H141.005C140.749 14.1899 140.397 14.4939 139.949 14.7286C139.501 14.9633 138.984 15.0806 138.397 15.0806C137.704 15.0806 137.064 14.9046 136.477 14.5526C135.901 14.2006 135.437 13.7099 135.085 13.0806C134.744 12.4406 134.573 11.6939 134.573 10.8406C134.573 9.97661 134.744 9.22994 135.085 8.60061C135.437 7.96061 135.901 7.46461 136.477 7.11261C137.064 6.76061 137.704 6.58461 138.397 6.58461C138.984 6.58461 139.501 6.70194 139.949 6.93661C140.397 7.16061 140.749 7.46994 141.005 7.86461H141.101V6.84061H142.749V14.5686C142.749 15.4539 142.573 16.2059 142.221 16.8246C141.88 17.4433 141.405 17.9126 140.797 18.2326C140.189 18.5526 139.485 18.7126 138.685 18.7126ZM138.701 13.5126C139.128 13.5126 139.522 13.4113 139.885 13.2086C140.258 12.9953 140.552 12.6913 140.765 12.2966C140.989 11.8913 141.101 11.4059 141.101 10.8406C141.101 10.2433 140.989 9.74728 140.765 9.35261C140.552 8.95794 140.258 8.65928 139.885 8.45661C139.522 8.25394 139.128 8.15261 138.701 8.15261C138.274 8.15261 137.874 8.25394 137.501 8.45661C137.138 8.65928 136.845 8.96328 136.621 9.36861C136.397 9.76328 136.285 10.2539 136.285 10.8406C136.285 11.4166 136.397 11.9073 136.621 12.3126C136.845 12.7073 137.138 13.0059 137.501 13.2086C137.874 13.4113 138.274 13.5126 138.701 13.5126ZM147.402 15.2566C146.816 15.2566 146.293 15.1393 145.834 14.9046C145.386 14.6699 145.029 14.3499 144.762 13.9446C144.506 13.5286 144.378 13.0539 144.378 12.5206C144.378 11.9339 144.528 11.4379 144.826 11.0326C145.136 10.6273 145.546 10.3179 146.058 10.1046C146.57 9.89128 147.136 9.78461 147.754 9.78461C148.096 9.78461 148.41 9.81128 148.698 9.86461C148.997 9.90728 149.253 9.96061 149.466 10.0246C149.69 10.0886 149.866 10.1579 149.994 10.2326V9.80061C149.994 9.26728 149.802 8.84061 149.418 8.52061C149.034 8.20061 148.538 8.04061 147.93 8.04061C147.514 8.04061 147.12 8.13661 146.746 8.32861C146.373 8.50994 146.074 8.76061 145.85 9.08061L144.666 8.16861C144.901 7.83794 145.184 7.55528 145.514 7.32061C145.856 7.08594 146.234 6.90461 146.65 6.77661C147.077 6.64861 147.52 6.58461 147.978 6.58461C149.162 6.58461 150.074 6.87794 150.714 7.46461C151.354 8.04061 151.674 8.85128 151.674 9.89661V15.0006H149.994V13.9926H149.898C149.76 14.2059 149.568 14.4086 149.322 14.6006C149.088 14.7926 148.805 14.9473 148.474 15.0646C148.154 15.1926 147.797 15.2566 147.402 15.2566ZM147.706 13.8486C148.154 13.8486 148.549 13.7419 148.89 13.5286C149.242 13.3153 149.514 13.0379 149.706 12.6966C149.898 12.3446 149.994 11.9659 149.994 11.5606C149.76 11.4219 149.472 11.3099 149.13 11.2246C148.8 11.1286 148.448 11.0806 148.074 11.0806C147.37 11.0806 146.869 11.2193 146.57 11.4966C146.272 11.7739 146.122 12.1206 146.122 12.5366C146.122 12.9206 146.266 13.2353 146.554 13.4806C146.842 13.7259 147.226 13.8486 147.706 13.8486ZM153.727 15.0006V6.84061H155.359V7.96061H155.455C155.689 7.56594 156.036 7.24061 156.495 6.98461C156.964 6.71794 157.476 6.58461 158.031 6.58461C159.033 6.58461 159.785 6.88328 160.287 7.48061C160.788 8.06728 161.039 8.85661 161.039 9.84861V15.0006H159.327V10.0726C159.327 9.41128 159.161 8.93128 158.831 8.63261C158.5 8.32328 158.068 8.16861 157.535 8.16861C157.119 8.16861 156.756 8.28594 156.447 8.52061C156.137 8.74461 155.892 9.04328 155.711 9.41661C155.54 9.78994 155.455 10.1899 155.455 10.6166V15.0006H153.727Z" fill="white"/>
<g id="GPay (Dark)">
<g id="GPay">
<g id="Pay">
<path id="Fill 1" fill-rule="evenodd" clip-rule="evenodd" d="M190.356 3.42339V8.16175H193.278C193.974 8.16175 194.55 7.92781 195.005 7.45993C195.473 6.99313 195.707 6.43644 195.707 5.79203C195.707 5.16061 195.473 4.61041 195.005 4.14254C194.55 3.66274 193.974 3.4223 193.278 3.4223H190.356V3.42339ZM190.356 9.82966V15.3262H188.611V1.75549H193.24C194.417 1.75549 195.415 2.14756 196.238 2.93061C197.073 3.71365 197.491 4.66782 197.491 5.79203C197.491 6.94224 197.073 7.90291 196.238 8.67296C195.428 9.44409 194.429 9.82858 193.24 9.82858H190.356V9.82966Z" fill="white"/>
<path id="Fill 3" fill-rule="evenodd" clip-rule="evenodd" d="M199.255 12.4831C199.255 12.9379 199.448 13.317 199.834 13.6203C200.22 13.9235 200.672 14.0752 201.19 14.0752C201.924 14.0752 202.578 13.8032 203.153 13.2607C203.729 12.717 204.017 12.0791 204.017 11.3469C203.472 10.917 202.713 10.7025 201.74 10.7025C201.031 10.7025 200.44 10.8736 199.966 11.2148C199.492 11.5559 199.255 11.9773 199.255 12.4831M201.513 5.73566C202.803 5.73566 203.821 6.08007 204.569 6.76889C205.314 7.45771 205.687 8.40213 205.687 9.60216V15.3261H204.018V14.0373H203.942C203.221 15.0985 202.259 15.6294 201.058 15.6294C200.033 15.6294 199.176 15.3261 198.487 14.7196C197.797 14.1131 197.453 13.3549 197.453 12.4452C197.453 11.4845 197.816 10.7208 198.543 10.1523C199.271 9.58375 200.241 9.2989 201.456 9.2989C202.492 9.2989 203.346 9.48844 204.017 9.86751V9.46894C204.017 8.86243 203.776 8.34798 203.296 7.92451C202.814 7.50103 202.252 7.28984 201.607 7.28984C200.633 7.28984 199.862 7.70032 199.293 8.52235L197.755 7.55519C198.603 6.34217 199.855 5.73566 201.513 5.73566" fill="white"/>
<path id="Fill 5" fill-rule="evenodd" clip-rule="evenodd" d="M215.269 6.03894L209.443 19.4201H207.641L209.804 14.738L205.971 6.03894H207.869L210.639 12.7106H210.677L213.371 6.03894H215.269Z" fill="white"/>
</g>
<g id="G">
<path id="Fill 8" fill-rule="evenodd" clip-rule="evenodd" d="M183.303 8.64473C183.303 8.09563 183.256 7.56601 183.168 7.05914H175.806V10.0625H180.023C179.842 11.0414 179.294 11.8744 178.464 12.4322V14.3828H180.98C182.454 13.0246 183.303 11.0177 183.303 8.64473" fill="#4285F4"/>
<path id="Fill 10" fill-rule="evenodd" clip-rule="evenodd" d="M175.806 16.2651C177.913 16.2651 179.687 15.5741 180.98 14.3828L178.464 12.4322C177.764 12.9033 176.861 13.1784 175.806 13.1784C173.77 13.1784 172.042 11.8073 171.424 9.95959H168.832V11.9687C170.116 14.516 172.757 16.2651 175.806 16.2651" fill="#34A853"/>
<path id="Fill 12" fill-rule="evenodd" clip-rule="evenodd" d="M171.424 9.9596C171.266 9.48847 171.179 8.98593 171.179 8.46715C171.179 7.94837 171.266 7.44583 171.424 6.9747V4.96564H168.832C168.3 6.01837 168 7.20756 168 8.46715C168 9.72674 168.3 10.916 168.832 11.9687L171.424 9.9596Z" fill="#FABB05"/>
<path id="Fill 14" fill-rule="evenodd" clip-rule="evenodd" d="M175.806 3.75583C176.957 3.75583 177.988 4.15115 178.801 4.92553V4.92661L181.029 2.70094C179.676 1.44243 177.912 0.669128 175.806 0.669128C172.757 0.669128 170.116 2.41826 168.832 4.9656L171.424 6.97467C172.042 5.12698 173.77 3.75583 175.806 3.75583" fill="#E94235"/>
</g>
</g>
</g>
</g>
</svg>
