<svg width="290" height="38" viewBox="0 0 290 38" fill="none" xmlns="http://www.w3.org/2000/svg">
<g id="ms_donate_with_Dark">
<path id="Text" d="M3.42503 30V9.952H9.83703C11.9464 9.952 13.757 10.3813 15.269 11.24C16.7997 12.08 17.9757 13.256 18.797 14.768C19.637 16.28 20.057 18.016 20.057 19.976C20.057 21.9547 19.637 23.7 18.797 25.212C17.9757 26.7053 16.7997 27.8813 15.269 28.74C13.757 29.58 11.9464 30 9.83703 30H3.42503ZM6.50503 27.088H9.75303C12.0304 27.088 13.7944 26.4533 15.045 25.184C16.3144 23.9147 16.949 22.1787 16.949 19.976C16.949 17.7733 16.3144 16.0373 15.045 14.768C13.7944 13.4987 12.0304 12.864 9.75303 12.864H6.50503V27.088ZM29.4872 30.448C28.0872 30.448 26.8365 30.1213 25.7352 29.468C24.6339 28.8147 23.7659 27.9187 23.1312 26.78C22.5152 25.6413 22.2072 24.344 22.2072 22.888C22.2072 21.5253 22.5059 20.2653 23.1032 19.108C23.7005 17.9507 24.5312 17.0267 25.5952 16.336C26.6779 15.6267 27.9192 15.272 29.3192 15.272C30.7939 15.272 32.0445 15.5893 33.0712 16.224C34.1165 16.8587 34.9099 17.7267 35.4512 18.828C35.9925 19.9293 36.2632 21.1707 36.2632 22.552C36.2632 22.7573 36.2539 22.944 36.2352 23.112C36.2352 23.28 36.2259 23.4107 36.2072 23.504H25.1752C25.3245 24.9227 25.8192 25.9867 26.6592 26.696C27.5179 27.4053 28.4885 27.76 29.5712 27.76C30.5419 27.76 31.3445 27.5453 31.9792 27.116C32.6139 26.668 33.1179 26.1173 33.4912 25.464L35.9832 26.668C35.3672 27.788 34.5272 28.7027 33.4632 29.412C32.3992 30.1027 31.0739 30.448 29.4872 30.448ZM29.3472 17.848C28.3392 17.848 27.4805 18.156 26.7712 18.772C26.0619 19.388 25.5859 20.2093 25.3432 21.236H33.2672C33.2299 20.7507 33.0712 20.2467 32.7912 19.724C32.5112 19.2013 32.0819 18.7627 31.5032 18.408C30.9432 18.0347 30.2245 17.848 29.3472 17.848ZM39.3687 30V15.72H42.2247V17.82H42.3927C42.71 17.092 43.2513 16.4947 44.0167 16.028C44.8007 15.5427 45.6407 15.3 46.5367 15.3C46.9287 15.3 47.2553 15.328 47.5167 15.384C47.7967 15.44 48.0487 15.5053 48.2727 15.58V18.716C47.918 18.5667 47.554 18.4453 47.1807 18.352C46.826 18.2587 46.4527 18.212 46.0607 18.212C45.3513 18.212 44.7167 18.408 44.1567 18.8C43.6153 19.1733 43.186 19.6867 42.8687 20.34C42.5513 20.9747 42.3927 21.6747 42.3927 22.44V30H39.3687ZM50.907 30V15.72H53.763V17.68H53.931C54.3416 16.9893 54.939 16.42 55.723 15.972C56.507 15.5053 57.375 15.272 58.327 15.272C59.391 15.272 60.2963 15.524 61.043 16.028C61.7896 16.532 62.3216 17.1667 62.639 17.932C63.1056 17.1853 63.7403 16.56 64.543 16.056C65.3456 15.5333 66.3256 15.272 67.483 15.272C69.163 15.272 70.4136 15.7853 71.235 16.812C72.0563 17.82 72.467 19.164 72.467 20.844V30H69.471V21.348C69.471 20.2093 69.219 19.3787 68.715 18.856C68.2296 18.3147 67.5483 18.044 66.671 18.044C65.9803 18.044 65.3736 18.24 64.851 18.632C64.3283 19.0053 63.9176 19.5187 63.619 20.172C63.339 20.8253 63.199 21.5533 63.199 22.356V30H60.203V21.348C60.203 20.2093 59.951 19.3787 59.447 18.856C58.943 18.3147 58.2336 18.044 57.319 18.044C56.647 18.044 56.059 18.24 55.555 18.632C55.051 19.024 54.6496 19.5467 54.351 20.2C54.071 20.8533 53.931 21.5813 53.931 22.384V30H50.907ZM80.5151 30.448C79.4884 30.448 78.5738 30.252 77.7711 29.86C76.9684 29.4493 76.3431 28.88 75.8951 28.152C75.4471 27.424 75.2231 26.5933 75.2231 25.66C75.2231 24.652 75.4844 23.7933 76.0071 23.084C76.5484 22.356 77.2671 21.8053 78.1631 21.432C79.0591 21.0587 80.0484 20.872 81.1311 20.872C82.0271 20.872 82.8111 20.956 83.4831 21.124C84.1738 21.292 84.6964 21.4693 85.0511 21.656V20.9C85.0511 19.9667 84.7151 19.22 84.0431 18.66C83.3711 18.1 82.5031 17.82 81.4391 17.82C80.7111 17.82 80.0204 17.988 79.3671 18.324C78.7138 18.6413 78.1911 19.08 77.7991 19.64L75.7271 18.044C76.3431 17.1853 77.1551 16.5133 78.1631 16.028C79.1898 15.524 80.3098 15.272 81.5231 15.272C83.5951 15.272 85.1911 15.7853 86.3111 16.812C87.4311 17.82 87.9911 19.2387 87.9911 21.068V30H85.0511V28.236H84.8831C84.5098 28.8147 83.9498 29.328 83.2031 29.776C82.4564 30.224 81.5604 30.448 80.5151 30.448ZM81.0471 27.984C81.8311 27.984 82.5218 27.7973 83.1191 27.424C83.7164 27.0507 84.1831 26.5653 84.5191 25.968C84.8738 25.352 85.0511 24.6893 85.0511 23.98C84.6218 23.7373 84.1178 23.5413 83.5391 23.392C82.9604 23.224 82.3444 23.14 81.6911 23.14C80.4591 23.14 79.5818 23.392 79.0591 23.896C78.5364 24.3813 78.2751 24.9787 78.2751 25.688C78.2751 26.36 78.5271 26.9107 79.0311 27.34C79.5351 27.7693 80.2071 27.984 81.0471 27.984ZM104.559 30.448C103.271 30.448 102.105 30.1307 101.059 29.496C100.033 28.8427 99.2114 27.9467 98.5954 26.808C97.9981 25.6507 97.6994 24.3347 97.6994 22.86C97.6994 21.3853 97.9981 20.0787 98.5954 18.94C99.2114 17.8013 100.033 16.9053 101.059 16.252C102.105 15.5987 103.271 15.272 104.559 15.272C105.661 15.272 106.603 15.5147 107.387 16C108.19 16.4853 108.778 17.036 109.151 17.652H109.319L109.151 15.664V9.952H112.147V30H109.319V28.096H109.151C108.778 28.712 108.19 29.2627 107.387 29.748C106.603 30.2147 105.661 30.448 104.559 30.448ZM105.007 27.676C105.754 27.676 106.454 27.48 107.107 27.088C107.779 26.696 108.311 26.1453 108.703 25.436C109.114 24.708 109.319 23.8493 109.319 22.86C109.319 21.8707 109.114 21.0213 108.703 20.312C108.311 19.584 107.779 19.024 107.107 18.632C106.454 18.24 105.754 18.044 105.007 18.044C104.261 18.044 103.561 18.24 102.907 18.632C102.254 19.024 101.722 19.584 101.311 20.312C100.901 21.0213 100.695 21.8707 100.695 22.86C100.695 23.8493 100.901 24.708 101.311 25.436C101.722 26.1453 102.254 26.696 102.907 27.088C103.561 27.48 104.261 27.676 105.007 27.676ZM122.397 30.448C120.997 30.448 119.746 30.1213 118.645 29.468C117.543 28.8147 116.675 27.9187 116.041 26.78C115.425 25.6413 115.117 24.344 115.117 22.888C115.117 21.5253 115.415 20.2653 116.013 19.108C116.61 17.9507 117.441 17.0267 118.505 16.336C119.587 15.6267 120.829 15.272 122.229 15.272C123.703 15.272 124.954 15.5893 125.981 16.224C127.026 16.8587 127.819 17.7267 128.361 18.828C128.902 19.9293 129.173 21.1707 129.173 22.552C129.173 22.7573 129.163 22.944 129.145 23.112C129.145 23.28 129.135 23.4107 129.117 23.504H118.085C118.234 24.9227 118.729 25.9867 119.569 26.696C120.427 27.4053 121.398 27.76 122.481 27.76C123.451 27.76 124.254 27.5453 124.889 27.116C125.523 26.668 126.027 26.1173 126.401 25.464L128.893 26.668C128.277 27.788 127.437 28.7027 126.373 29.412C125.309 30.1027 123.983 30.448 122.397 30.448ZM122.257 17.848C121.249 17.848 120.39 18.156 119.681 18.772C118.971 19.388 118.495 20.2093 118.253 21.236H126.177C126.139 20.7507 125.981 20.2467 125.701 19.724C125.421 19.2013 124.991 18.7627 124.413 18.408C123.853 18.0347 123.134 17.848 122.257 17.848ZM132.278 30V15.72H135.134V17.68H135.302C135.713 16.9893 136.319 16.42 137.122 15.972C137.943 15.5053 138.839 15.272 139.81 15.272C141.565 15.272 142.881 15.7947 143.758 16.84C144.635 17.8853 145.074 19.2667 145.074 20.984V30H142.078V21.376C142.078 20.2187 141.789 19.3787 141.21 18.856C140.631 18.3147 139.875 18.044 138.942 18.044C138.214 18.044 137.579 18.2493 137.038 18.66C136.497 19.052 136.067 19.5747 135.75 20.228C135.451 20.8813 135.302 21.5813 135.302 22.328V30H132.278ZM155.124 36.496C153.873 36.496 152.79 36.2907 151.876 35.88C150.98 35.488 150.252 34.9747 149.692 34.34C149.132 33.724 148.73 33.0893 148.488 32.436L151.288 31.26C151.586 32.0067 152.062 32.6133 152.716 33.08C153.388 33.5653 154.19 33.808 155.124 33.808C156.43 33.808 157.457 33.416 158.204 32.632C158.969 31.848 159.352 30.7373 159.352 29.3V27.928H159.184C158.736 28.6 158.11 29.1413 157.308 29.552C156.524 29.944 155.628 30.14 154.62 30.14C153.406 30.14 152.296 29.832 151.288 29.216C150.28 28.6 149.468 27.7413 148.852 26.64C148.236 25.52 147.928 24.2133 147.928 22.72C147.928 21.208 148.236 19.9013 148.852 18.8C149.468 17.68 150.28 16.812 151.288 16.196C152.296 15.58 153.406 15.272 154.62 15.272C155.628 15.272 156.524 15.4773 157.308 15.888C158.11 16.2987 158.736 16.84 159.184 17.512H159.352V15.72H162.236V29.244C162.236 30.7933 161.928 32.1093 161.312 33.192C160.714 34.2747 159.884 35.096 158.82 35.656C157.756 36.216 156.524 36.496 155.124 36.496ZM155.152 27.396C155.898 27.396 156.589 27.2187 157.224 26.864C157.858 26.4907 158.372 25.9587 158.764 25.268C159.156 24.5587 159.352 23.7093 159.352 22.72C159.352 21.6933 159.156 20.8347 158.764 20.144C158.372 19.4347 157.858 18.9027 157.224 18.548C156.589 18.1933 155.898 18.016 155.152 18.016C154.405 18.016 153.705 18.2027 153.052 18.576C152.417 18.9307 151.904 19.4533 151.512 20.144C151.12 20.8347 150.924 21.6933 150.924 22.72C150.924 23.728 151.12 24.5867 151.512 25.296C151.904 25.9867 152.417 26.5093 153.052 26.864C153.705 27.2187 154.405 27.396 155.152 27.396ZM170.417 30.448C169.39 30.448 168.475 30.252 167.673 29.86C166.87 29.4493 166.245 28.88 165.797 28.152C165.349 27.424 165.125 26.5933 165.125 25.66C165.125 24.652 165.386 23.7933 165.909 23.084C166.45 22.356 167.169 21.8053 168.065 21.432C168.961 21.0587 169.95 20.872 171.033 20.872C171.929 20.872 172.713 20.956 173.385 21.124C174.075 21.292 174.598 21.4693 174.953 21.656V20.9C174.953 19.9667 174.617 19.22 173.945 18.66C173.273 18.1 172.405 17.82 171.341 17.82C170.613 17.82 169.922 17.988 169.269 18.324C168.615 18.6413 168.093 19.08 167.701 19.64L165.629 18.044C166.245 17.1853 167.057 16.5133 168.065 16.028C169.091 15.524 170.211 15.272 171.425 15.272C173.497 15.272 175.093 15.7853 176.213 16.812C177.333 17.82 177.893 19.2387 177.893 21.068V30H174.953V28.236H174.785C174.411 28.8147 173.851 29.328 173.105 29.776C172.358 30.224 171.462 30.448 170.417 30.448ZM170.949 27.984C171.733 27.984 172.423 27.7973 173.021 27.424C173.618 27.0507 174.085 26.5653 174.421 25.968C174.775 25.352 174.953 24.6893 174.953 23.98C174.523 23.7373 174.019 23.5413 173.441 23.392C172.862 23.224 172.246 23.14 171.593 23.14C170.361 23.14 169.483 23.392 168.961 23.896C168.438 24.3813 168.177 24.9787 168.177 25.688C168.177 26.36 168.429 26.9107 168.933 27.34C169.437 27.7693 170.109 27.984 170.949 27.984ZM181.522 30V15.72H184.378V17.68H184.546C184.956 16.9893 185.563 16.42 186.366 15.972C187.187 15.5053 188.083 15.272 189.054 15.272C190.808 15.272 192.124 15.7947 193.002 16.84C193.879 17.8853 194.318 19.2667 194.318 20.984V30H191.322V21.376C191.322 20.2187 191.032 19.3787 190.454 18.856C189.875 18.3147 189.119 18.044 188.186 18.044C187.458 18.044 186.823 18.2493 186.282 18.66C185.74 19.052 185.311 19.5747 184.994 20.228C184.695 20.8813 184.546 21.5813 184.546 22.328V30H181.522Z" fill="white"/>
<g id="GPay Logo (Dark)">
<g id="GPay">
<g id="Pay">
<path id="Fill 1" fill-rule="evenodd" clip-rule="evenodd" d="M246.529 9.34665V17.5128H251.565C252.765 17.5128 253.757 17.1096 254.541 16.3032C255.347 15.4988 255.75 14.5394 255.75 13.4288C255.75 12.3406 255.347 11.3924 254.541 10.586C253.757 9.75916 252.765 9.34479 251.565 9.34479H246.529V9.34665ZM246.529 20.3872V29.8599H243.521V6.47218H251.499C253.527 6.47218 255.248 7.14787 256.666 8.49738C258.105 9.84688 258.824 11.4913 258.824 13.4288C258.824 15.411 258.105 17.0667 256.666 18.3938C255.27 19.7227 253.547 20.3854 251.499 20.3854H246.529V20.3872Z" fill="white"/>
<path id="Fill 3" fill-rule="evenodd" clip-rule="evenodd" d="M261.864 24.9602C261.864 25.7442 262.197 26.3975 262.862 26.9201C263.527 27.4427 264.306 27.704 265.2 27.704C266.465 27.704 267.591 27.2354 268.584 26.3004C269.576 25.3634 270.071 24.264 270.071 23.0022C269.133 22.2612 267.825 21.8916 266.147 21.8916C264.925 21.8916 263.907 22.1866 263.09 22.7745C262.273 23.3623 261.864 24.0886 261.864 24.9602ZM265.756 13.3317C267.98 13.3317 269.735 13.9253 271.022 15.1124C272.308 16.2995 272.95 17.9271 272.95 19.9952V29.8599H270.073V27.6387H269.942C268.699 29.4677 267.042 30.3825 264.972 30.3825C263.206 30.3825 261.728 29.8599 260.541 28.8146C259.353 27.7694 258.759 26.4628 258.759 24.8949C258.759 23.2393 259.385 21.9232 260.638 20.9434C261.892 19.9635 263.565 19.4726 265.658 19.4726C267.444 19.4726 268.916 19.7993 270.071 20.4525V19.7657C270.071 18.7204 269.656 17.8338 268.829 17.104C267.999 16.3742 267.031 16.0102 265.919 16.0102C264.239 16.0102 262.911 16.7176 261.93 18.1343L259.28 16.4675C260.741 14.377 262.899 13.3317 265.756 13.3317Z" fill="white"/>
<path id="Fill 5" fill-rule="evenodd" clip-rule="evenodd" d="M289.463 13.8543L279.424 36.9154H276.318L280.046 28.8464L273.44 13.8543H276.71L281.484 25.3522H281.55L286.193 13.8543H289.463Z" fill="white"/>
</g>
<g id="G">
<path id="Fill 8" fill-rule="evenodd" clip-rule="evenodd" d="M234.373 18.3452C234.373 17.3989 234.293 16.4861 234.141 15.6126H221.454V20.7885H228.72C228.408 22.4757 227.465 23.9112 226.033 24.8725V28.2341H230.37C232.91 25.8935 234.373 22.4348 234.373 18.3452Z" fill="#4285F4"/>
<path id="Fill 10" fill-rule="evenodd" clip-rule="evenodd" d="M221.454 31.4782C225.084 31.4782 228.141 30.2873 230.37 28.2341L226.033 24.8725C224.826 25.6844 223.272 26.1585 221.454 26.1585C217.944 26.1585 214.966 23.7955 213.901 20.6112H209.433V24.0736C211.647 28.4637 216.197 31.4782 221.454 31.4782Z" fill="#34A853"/>
<path id="Fill 12" fill-rule="evenodd" clip-rule="evenodd" d="M213.901 20.6111C213.628 19.7992 213.479 18.9331 213.479 18.0391C213.479 17.145 213.628 16.2789 213.901 15.467V12.0045H209.433C208.518 13.8188 208 15.8683 208 18.0391C208 20.2098 208.518 22.2595 209.433 24.0736L213.901 20.6111Z" fill="#FABB05"/>
<path id="Fill 14" fill-rule="evenodd" clip-rule="evenodd" d="M221.454 9.91964C223.436 9.91964 225.213 10.6009 226.615 11.9355V11.9374L230.455 8.10163C228.123 5.93272 225.082 4.60001 221.454 4.60001C216.197 4.60001 211.647 7.61447 209.433 12.0046L213.901 15.467C214.966 12.2827 217.944 9.91964 221.454 9.91964Z" fill="#E94235"/>
</g>
</g>
</g>
</g>
</svg>
