<svg width="166" height="21" viewBox="0 0 166 21" fill="none" xmlns="http://www.w3.org/2000/svg">
<g id="ms_donate_with_Pay_NBG">
<path id="Left Text" d="M2.19287 15.0006V3.54461H5.85687C7.06221 3.54461 8.09687 3.78994 8.96087 4.28061C9.83554 4.76061 10.5075 5.43261 10.9769 6.29661C11.4569 7.16061 11.6969 8.15261 11.6969 9.27261C11.6969 10.3926 11.4569 11.3846 10.9769 12.2486C10.5075 13.1126 9.83554 13.7899 8.96087 14.2806C8.09687 14.7606 7.06221 15.0006 5.85687 15.0006H2.19287ZM3.95287 13.3366H5.80887C6.67287 13.3366 7.41421 13.1766 8.03287 12.8566C8.65154 12.5259 9.12087 12.0566 9.44087 11.4486C9.76087 10.8406 9.92087 10.1153 9.92087 9.27261C9.92087 8.42994 9.76087 7.70461 9.44087 7.09661C9.12087 6.48861 8.65154 6.02461 8.03287 5.70461C7.41421 5.37394 6.67287 5.20861 5.80887 5.20861H3.95287V13.3366ZM17.0641 15.2566C16.2641 15.2566 15.5495 15.0699 14.9201 14.6966C14.2908 14.3233 13.7948 13.8113 13.4321 13.1606C13.0801 12.5099 12.9041 11.7686 12.9041 10.9366C12.9041 10.1579 13.0748 9.43794 13.4161 8.77661C13.7575 8.11528 14.2321 7.58728 14.8401 7.19261C15.4588 6.78728 16.1681 6.58461 16.9681 6.58461C17.8108 6.58461 18.5255 6.76594 19.1121 7.12861C19.7095 7.49128 20.1628 7.98728 20.4721 8.61661C20.7815 9.24594 20.9361 9.95528 20.9361 10.7446C20.9361 10.8619 20.9308 10.9686 20.9201 11.0646C20.9201 11.1606 20.9148 11.2353 20.9041 11.2886H14.6001C14.6428 11.7366 14.7548 12.1259 14.9361 12.4566C15.1708 12.8726 15.4801 13.1873 15.8641 13.4006C16.2481 13.6139 16.6641 13.7206 17.1121 13.7206C17.6561 13.7206 18.1095 13.5979 18.4721 13.3526C18.8455 13.0966 19.1388 12.7819 19.3521 12.4086L20.7761 13.0966C20.4241 13.7366 19.9441 14.2593 19.3361 14.6646C18.7281 15.0593 17.9708 15.2566 17.0641 15.2566ZM14.6961 9.99261H19.2241C19.2135 9.78994 19.1601 9.57661 19.0641 9.35261C18.9681 9.11794 18.8295 8.90461 18.6481 8.71261C18.4668 8.52061 18.2375 8.36594 17.9601 8.24861C17.6828 8.12061 17.3575 8.05661 16.9841 8.05661C16.5148 8.05661 16.0988 8.17928 15.7361 8.42461C15.3735 8.65928 15.0908 8.98994 14.8881 9.41661C14.8028 9.59794 14.7388 9.78994 14.6961 9.99261ZM22.6892 15.0006V6.84061H24.3212V8.04061H24.4172C24.5452 7.76328 24.7266 7.51794 24.9612 7.30461C25.2066 7.09128 25.4839 6.92061 25.7932 6.79261C26.1132 6.66461 26.4439 6.60061 26.7852 6.60061C27.0092 6.60061 27.1959 6.61661 27.3452 6.64861C27.5052 6.66994 27.6492 6.70728 27.7772 6.76061V8.55261C27.5746 8.46728 27.3666 8.39794 27.1532 8.34461C26.9506 8.29128 26.7372 8.26461 26.5132 8.26461C26.1079 8.26461 25.7452 8.37661 25.4252 8.60061C25.1159 8.81394 24.8706 9.10194 24.6892 9.46461C24.5079 9.82728 24.4172 10.2326 24.4172 10.6806V15.0006H22.6892ZM29.2611 15.0006V6.84061H30.8931V7.96061H30.9891C31.1491 7.69394 31.3571 7.45928 31.6131 7.25661C31.8691 7.05394 32.1571 6.89394 32.4771 6.77661C32.8078 6.64861 33.1491 6.58461 33.5011 6.58461C34.1091 6.58461 34.6265 6.72861 35.0531 7.01661C35.4798 7.30461 35.7838 7.66728 35.9651 8.10461C36.2318 7.67794 36.5945 7.32061 37.0531 7.03261C37.5118 6.73394 38.0718 6.58461 38.7331 6.58461C39.6931 6.58461 40.4078 6.87794 40.8771 7.46461C41.3465 8.04061 41.5811 8.80861 41.5811 9.76861V15.0006H39.8691V10.0566C39.8691 9.39528 39.7251 8.91528 39.4371 8.61661C39.1598 8.31794 38.7705 8.16861 38.2691 8.16861C37.8745 8.16861 37.5278 8.28061 37.2291 8.50461C36.9305 8.71794 36.6958 9.01128 36.5251 9.38461C36.3651 9.75794 36.2851 10.1739 36.2851 10.6326V15.0006H34.5731V10.0566C34.5731 9.40594 34.4291 8.93128 34.1411 8.63261C33.8531 8.32328 33.4478 8.16861 32.9251 8.16861C32.5518 8.16861 32.2158 8.28061 31.9171 8.50461C31.6291 8.72861 31.3998 9.02728 31.2291 9.40061C31.0691 9.77394 30.9891 10.1899 30.9891 10.6486V15.0006H29.2611ZM46.1586 15.2566C45.572 15.2566 45.0493 15.1393 44.5906 14.9046C44.1426 14.6699 43.7853 14.3499 43.5186 13.9446C43.2626 13.5286 43.1346 13.0539 43.1346 12.5206C43.1346 11.9339 43.284 11.4379 43.5826 11.0326C43.892 10.6273 44.3026 10.3179 44.8146 10.1046C45.3266 9.89128 45.892 9.78461 46.5106 9.78461C46.852 9.78461 47.1666 9.81128 47.4546 9.86461C47.7533 9.90728 48.0093 9.96061 48.2226 10.0246C48.4466 10.0886 48.6226 10.1579 48.7506 10.2326V9.80061C48.7506 9.26728 48.5586 8.84061 48.1746 8.52061C47.7906 8.20061 47.2946 8.04061 46.6866 8.04061C46.2706 8.04061 45.876 8.13661 45.5026 8.32861C45.1293 8.50994 44.8306 8.76061 44.6066 9.08061L43.4226 8.16861C43.6573 7.83794 43.94 7.55528 44.2706 7.32061C44.612 7.08594 44.9906 6.90461 45.4066 6.77661C45.8333 6.64861 46.276 6.58461 46.7346 6.58461C47.9186 6.58461 48.8306 6.87794 49.4706 7.46461C50.1106 8.04061 50.4306 8.85128 50.4306 9.89661V15.0006H48.7506V13.9926H48.6546C48.516 14.2059 48.324 14.4086 48.0786 14.6006C47.844 14.7926 47.5613 14.9473 47.2306 15.0646C46.9106 15.1926 46.5533 15.2566 46.1586 15.2566ZM46.4626 13.8486C46.9106 13.8486 47.3053 13.7419 47.6466 13.5286C47.9986 13.3153 48.2706 13.0379 48.4626 12.6966C48.6546 12.3446 48.7506 11.9659 48.7506 11.5606C48.516 11.4219 48.228 11.3099 47.8866 11.2246C47.556 11.1286 47.204 11.0806 46.8306 11.0806C46.1266 11.0806 45.6253 11.2193 45.3266 11.4966C45.028 11.7739 44.8786 12.1206 44.8786 12.5366C44.8786 12.9206 45.0226 13.2353 45.3106 13.4806C45.5986 13.7259 45.9826 13.8486 46.4626 13.8486ZM59.8554 15.2566C59.1194 15.2566 58.4527 15.0699 57.8554 14.6966C57.258 14.3233 56.7887 13.8113 56.4474 13.1606C56.106 12.5099 55.9354 11.7633 55.9354 10.9206C55.9354 10.0779 56.106 9.33128 56.4474 8.68061C56.7887 8.02994 57.258 7.51794 57.8554 7.14461C58.4527 6.77128 59.1194 6.58461 59.8554 6.58461C60.282 6.58461 60.666 6.64861 61.0074 6.77661C61.3487 6.90461 61.642 7.07528 61.8874 7.28861C62.1434 7.49128 62.3407 7.70994 62.4794 7.94461H62.5754L62.4794 6.80861V3.54461H64.1914V15.0006H62.5754V13.9126H62.4794C62.3407 14.1366 62.1434 14.3553 61.8874 14.5686C61.642 14.7713 61.3487 14.9366 61.0074 15.0646C60.666 15.1926 60.282 15.2566 59.8554 15.2566ZM60.1114 13.6726C60.538 13.6726 60.938 13.5606 61.3114 13.3366C61.6954 13.1126 61.9994 12.7979 62.2234 12.3926C62.458 11.9766 62.5754 11.4859 62.5754 10.9206C62.5754 10.3553 62.458 9.86994 62.2234 9.46461C61.9994 9.04861 61.6954 8.72861 61.3114 8.50461C60.938 8.28061 60.538 8.16861 60.1114 8.16861C59.6847 8.16861 59.2847 8.28061 58.9114 8.50461C58.538 8.72861 58.234 9.04861 57.9994 9.46461C57.7647 9.86994 57.6474 10.3553 57.6474 10.9206C57.6474 11.4753 57.7647 11.9606 57.9994 12.3766C58.234 12.7926 58.538 13.1126 58.9114 13.3366C59.2847 13.5606 59.6847 13.6726 60.1114 13.6726ZM70.0266 15.2566C69.2266 15.2566 68.512 15.0699 67.8826 14.6966C67.2533 14.3233 66.7573 13.8113 66.3946 13.1606C66.0426 12.5099 65.8666 11.7686 65.8666 10.9366C65.8666 10.1579 66.0373 9.43794 66.3786 8.77661C66.72 8.11528 67.1946 7.58728 67.8026 7.19261C68.4213 6.78728 69.1306 6.58461 69.9306 6.58461C70.7733 6.58461 71.488 6.76594 72.0746 7.12861C72.672 7.49128 73.1253 7.98728 73.4346 8.61661C73.744 9.24594 73.8986 9.95528 73.8986 10.7446C73.8986 10.8619 73.8933 10.9686 73.8826 11.0646C73.8826 11.1606 73.8773 11.2353 73.8666 11.2886H67.5626C67.6053 11.7366 67.7173 12.1259 67.8986 12.4566C68.1333 12.8726 68.4426 13.1873 68.8266 13.4006C69.2106 13.6139 69.6266 13.7206 70.0746 13.7206C70.6186 13.7206 71.072 13.5979 71.4346 13.3526C71.808 13.0966 72.1013 12.7819 72.3146 12.4086L73.7386 13.0966C73.3866 13.7366 72.9066 14.2593 72.2986 14.6646C71.6906 15.0593 70.9333 15.2566 70.0266 15.2566ZM67.6586 9.99261H72.1866C72.176 9.78994 72.1226 9.57661 72.0266 9.35261C71.9306 9.11794 71.792 8.90461 71.6106 8.71261C71.4293 8.52061 71.2 8.36594 70.9226 8.24861C70.6453 8.12061 70.32 8.05661 69.9466 8.05661C69.4773 8.05661 69.0613 8.17928 68.6986 8.42461C68.336 8.65928 68.0533 8.98994 67.8506 9.41661C67.7653 9.59794 67.7013 9.78994 67.6586 9.99261ZM75.6517 15.0006V6.84061H77.2837V7.96061H77.3797C77.6144 7.56594 77.9611 7.24061 78.4197 6.98461C78.8891 6.71794 79.4011 6.58461 79.9557 6.58461C80.9584 6.58461 81.7104 6.88328 82.2117 7.48061C82.7131 8.06728 82.9637 8.85661 82.9637 9.84861V15.0006H81.2517V10.0726C81.2517 9.41128 81.0864 8.93128 80.7557 8.63261C80.4251 8.32328 79.9931 8.16861 79.4597 8.16861C79.0437 8.16861 78.6811 8.28594 78.3717 8.52061C78.0624 8.74461 77.8171 9.04328 77.6357 9.41661C77.4651 9.78994 77.3797 10.1899 77.3797 10.6166V15.0006H75.6517ZM88.6849 18.7126C87.9702 18.7126 87.3515 18.5953 86.8289 18.3606C86.3169 18.1366 85.9009 17.8433 85.5809 17.4806C85.2609 17.1286 85.0315 16.7659 84.8929 16.3926L86.4929 15.7206C86.6635 16.1473 86.9355 16.4939 87.3089 16.7606C87.6929 17.0379 88.1515 17.1766 88.6849 17.1766C89.4422 17.1766 90.0342 16.9526 90.4609 16.5046C90.8875 16.0566 91.1009 15.4219 91.1009 14.6006V13.8166H91.0049C90.7489 14.1899 90.3969 14.4939 89.9489 14.7286C89.5009 14.9633 88.9835 15.0806 88.3969 15.0806C87.7035 15.0806 87.0635 14.9046 86.4769 14.5526C85.9009 14.2006 85.4369 13.7099 85.0849 13.0806C84.7435 12.4406 84.5729 11.6939 84.5729 10.8406C84.5729 9.97661 84.7435 9.22994 85.0849 8.60061C85.4369 7.96061 85.9009 7.46461 86.4769 7.11261C87.0635 6.76061 87.7035 6.58461 88.3969 6.58461C88.9835 6.58461 89.5009 6.70194 89.9489 6.93661C90.3969 7.16061 90.7489 7.46994 91.0049 7.86461H91.1009V6.84061H92.7489V14.5686C92.7489 15.4539 92.5729 16.2059 92.2209 16.8246C91.8795 17.4433 91.4049 17.9126 90.7969 18.2326C90.1889 18.5526 89.4849 18.7126 88.6849 18.7126ZM88.7009 13.5126C89.1275 13.5126 89.5222 13.4113 89.8849 13.2086C90.2582 12.9953 90.5515 12.6913 90.7649 12.2966C90.9889 11.8913 91.1009 11.4059 91.1009 10.8406C91.1009 10.2433 90.9889 9.74728 90.7649 9.35261C90.5515 8.95794 90.2582 8.65928 89.8849 8.45661C89.5222 8.25394 89.1275 8.15261 88.7009 8.15261C88.2742 8.15261 87.8742 8.25394 87.5009 8.45661C87.1382 8.65928 86.8449 8.96328 86.6209 9.36861C86.3969 9.76328 86.2849 10.2539 86.2849 10.8406C86.2849 11.4166 86.3969 11.9073 86.6209 12.3126C86.8449 12.7073 87.1382 13.0059 87.5009 13.2086C87.8742 13.4113 88.2742 13.5126 88.7009 13.5126ZM97.4024 15.2566C96.8157 15.2566 96.293 15.1393 95.8344 14.9046C95.3864 14.6699 95.029 14.3499 94.7624 13.9446C94.5064 13.5286 94.3784 13.0539 94.3784 12.5206C94.3784 11.9339 94.5277 11.4379 94.8264 11.0326C95.1357 10.6273 95.5464 10.3179 96.0584 10.1046C96.5704 9.89128 97.1357 9.78461 97.7544 9.78461C98.0957 9.78461 98.4104 9.81128 98.6984 9.86461C98.997 9.90728 99.253 9.96061 99.4664 10.0246C99.6904 10.0886 99.8664 10.1579 99.9944 10.2326V9.80061C99.9944 9.26728 99.8024 8.84061 99.4184 8.52061C99.0344 8.20061 98.5384 8.04061 97.9304 8.04061C97.5144 8.04061 97.1197 8.13661 96.7464 8.32861C96.373 8.50994 96.0744 8.76061 95.8504 9.08061L94.6664 8.16861C94.901 7.83794 95.1837 7.55528 95.5144 7.32061C95.8557 7.08594 96.2344 6.90461 96.6504 6.77661C97.077 6.64861 97.5197 6.58461 97.9784 6.58461C99.1624 6.58461 100.074 6.87794 100.714 7.46461C101.354 8.04061 101.674 8.85128 101.674 9.89661V15.0006H99.9944V13.9926H99.8984C99.7597 14.2059 99.5677 14.4086 99.3224 14.6006C99.0877 14.7926 98.805 14.9473 98.4744 15.0646C98.1544 15.1926 97.797 15.2566 97.4024 15.2566ZM97.7064 13.8486C98.1544 13.8486 98.549 13.7419 98.8904 13.5286C99.2424 13.3153 99.5144 13.0379 99.7064 12.6966C99.8984 12.3446 99.9944 11.9659 99.9944 11.5606C99.7597 11.4219 99.4717 11.3099 99.1304 11.2246C98.7997 11.1286 98.4477 11.0806 98.0744 11.0806C97.3704 11.0806 96.869 11.2193 96.5704 11.4966C96.2717 11.7739 96.1224 12.1206 96.1224 12.5366C96.1224 12.9206 96.2664 13.2353 96.5544 13.4806C96.8424 13.7259 97.2264 13.8486 97.7064 13.8486ZM103.727 15.0006V6.84061H105.359V7.96061H105.455C105.689 7.56594 106.036 7.24061 106.495 6.98461C106.964 6.71794 107.476 6.58461 108.031 6.58461C109.033 6.58461 109.785 6.88328 110.287 7.48061C110.788 8.06728 111.039 8.85661 111.039 9.84861V15.0006H109.327V10.0726C109.327 9.41128 109.161 8.93128 108.831 8.63261C108.5 8.32328 108.068 8.16861 107.535 8.16861C107.119 8.16861 106.756 8.28594 106.447 8.52061C106.137 8.74461 105.892 9.04328 105.711 9.41661C105.54 9.78994 105.455 10.1899 105.455 10.6166V15.0006H103.727Z" fill="white"/>
<g id="GPay (Dark)">
<g id="GPay">
<g id="Pay">
<path id="Fill 1" fill-rule="evenodd" clip-rule="evenodd" d="M140.356 3.42339V8.16175H143.278C143.974 8.16175 144.55 7.92781 145.005 7.45993C145.473 6.99313 145.707 6.43644 145.707 5.79203C145.707 5.16061 145.473 4.61041 145.005 4.14254C144.55 3.66274 143.974 3.4223 143.278 3.4223H140.356V3.42339ZM140.356 9.82966V15.3262H138.611V1.75549H143.24C144.417 1.75549 145.415 2.14756 146.238 2.93061C147.073 3.71365 147.491 4.66782 147.491 5.79203C147.491 6.94224 147.073 7.90291 146.238 8.67296C145.428 9.44409 144.429 9.82858 143.24 9.82858H140.356V9.82966Z" fill="white"/>
<path id="Fill 3" fill-rule="evenodd" clip-rule="evenodd" d="M149.255 12.4831C149.255 12.9379 149.448 13.317 149.834 13.6203C150.22 13.9235 150.672 14.0752 151.19 14.0752C151.924 14.0752 152.578 13.8032 153.153 13.2607C153.729 12.717 154.017 12.0791 154.017 11.3469C153.472 10.917 152.713 10.7025 151.74 10.7025C151.031 10.7025 150.44 10.8736 149.966 11.2148C149.492 11.5559 149.255 11.9773 149.255 12.4831M151.513 5.73566C152.803 5.73566 153.821 6.08007 154.569 6.76889C155.314 7.45771 155.687 8.40213 155.687 9.60216V15.3261H154.018V14.0373H153.942C153.221 15.0985 152.259 15.6294 151.058 15.6294C150.033 15.6294 149.176 15.3261 148.487 14.7196C147.797 14.1131 147.453 13.3549 147.453 12.4452C147.453 11.4845 147.816 10.7208 148.543 10.1523C149.271 9.58375 150.241 9.2989 151.456 9.2989C152.492 9.2989 153.346 9.48844 154.017 9.86751V9.46894C154.017 8.86243 153.776 8.34798 153.296 7.92451C152.814 7.50103 152.252 7.28984 151.607 7.28984C150.633 7.28984 149.862 7.70032 149.293 8.52235L147.755 7.55519C148.603 6.34217 149.855 5.73566 151.513 5.73566" fill="white"/>
<path id="Fill 5" fill-rule="evenodd" clip-rule="evenodd" d="M165.269 6.03894L159.443 19.4201H157.641L159.804 14.738L155.971 6.03894H157.869L160.639 12.7106H160.677L163.371 6.03894H165.269Z" fill="white"/>
</g>
<g id="G">
<path id="Fill 8" fill-rule="evenodd" clip-rule="evenodd" d="M133.303 8.64473C133.303 8.09563 133.256 7.56601 133.168 7.05914H125.806V10.0625H130.023C129.842 11.0414 129.294 11.8744 128.464 12.4322V14.3828H130.98C132.454 13.0246 133.303 11.0177 133.303 8.64473" fill="#4285F4"/>
<path id="Fill 10" fill-rule="evenodd" clip-rule="evenodd" d="M125.806 16.2651C127.913 16.2651 129.687 15.5741 130.98 14.3828L128.464 12.4322C127.763 12.9033 126.861 13.1784 125.806 13.1784C123.77 13.1784 122.042 11.8073 121.424 9.95959H118.832V11.9687C120.116 14.516 122.757 16.2651 125.806 16.2651" fill="#34A853"/>
<path id="Fill 12" fill-rule="evenodd" clip-rule="evenodd" d="M121.424 9.9596C121.266 9.48847 121.179 8.98593 121.179 8.46715C121.179 7.94837 121.266 7.44583 121.424 6.9747V4.96564H118.832C118.3 6.01837 118 7.20756 118 8.46715C118 9.72674 118.3 10.916 118.832 11.9687L121.424 9.9596Z" fill="#FABB05"/>
<path id="Fill 14" fill-rule="evenodd" clip-rule="evenodd" d="M125.806 3.75583C126.957 3.75583 127.988 4.15115 128.801 4.92553V4.92661L131.029 2.70094C129.676 1.44243 127.912 0.669128 125.806 0.669128C122.757 0.669128 120.116 2.41826 118.832 4.9656L121.424 6.97467C122.042 5.12698 123.77 3.75583 125.806 3.75583" fill="#E94235"/>
</g>
</g>
</g>
</g>
</svg>
