<svg width="160" height="21" viewBox="0 0 160 21" fill="none" xmlns="http://www.w3.org/2000/svg">
<g id="ms_order_with_Pay_NBG">
<path id="Left Text" d="M1.896 15.0006V3.54461H5.832C6.52533 3.54461 7.15467 3.69394 7.72 3.99261C8.28533 4.28061 8.73333 4.69128 9.064 5.22461C9.40533 5.74728 9.576 6.35528 9.576 7.04861C9.576 7.73128 9.40533 8.33928 9.064 8.87261C8.73333 9.40594 8.28533 9.82194 7.72 10.1206C7.15467 10.4086 6.52533 10.5526 5.832 10.5526H3.656V15.0006H1.896ZM3.656 8.88861H5.88C6.296 8.88861 6.648 8.80328 6.936 8.63261C7.224 8.45128 7.44267 8.22194 7.592 7.94461C7.752 7.65661 7.832 7.35794 7.832 7.04861C7.832 6.73928 7.752 6.44594 7.592 6.16861C7.44267 5.89128 7.224 5.66194 6.936 5.48061C6.648 5.29928 6.296 5.20861 5.88 5.20861H3.656V8.88861ZM14.4079 15.2566C13.6079 15.2566 12.8932 15.0699 12.2639 14.6966C11.6345 14.3233 11.1385 13.8113 10.7759 13.1606C10.4239 12.5099 10.2479 11.7686 10.2479 10.9366C10.2479 10.1579 10.4185 9.43794 10.7599 8.77661C11.1012 8.11528 11.5759 7.58728 12.1839 7.19261C12.8025 6.78728 13.5119 6.58461 14.3119 6.58461C15.1545 6.58461 15.8692 6.76594 16.4559 7.12861C17.0532 7.49128 17.5065 7.98728 17.8159 8.61661C18.1252 9.24594 18.2799 9.95528 18.2799 10.7446C18.2799 10.8619 18.2745 10.9686 18.2639 11.0646C18.2639 11.1606 18.2585 11.2353 18.2479 11.2886H11.9439C11.9865 11.7366 12.0985 12.1259 12.2799 12.4566C12.5145 12.8726 12.8239 13.1873 13.2079 13.4006C13.5919 13.6139 14.0079 13.7206 14.4559 13.7206C14.9999 13.7206 15.4532 13.5979 15.8159 13.3526C16.1892 13.0966 16.4825 12.7819 16.6959 12.4086L18.1199 13.0966C17.7679 13.7366 17.2879 14.2593 16.6799 14.6646C16.0719 15.0593 15.3145 15.2566 14.4079 15.2566ZM12.0399 9.99261H16.5679C16.5572 9.78994 16.5039 9.57661 16.4079 9.35261C16.3119 9.11794 16.1732 8.90461 15.9919 8.71261C15.8105 8.52061 15.5812 8.36594 15.3039 8.24861C15.0265 8.12061 14.7012 8.05661 14.3279 8.05661C13.8585 8.05661 13.4425 8.17928 13.0799 8.42461C12.7172 8.65928 12.4345 8.98994 12.2319 9.41661C12.1465 9.59794 12.0825 9.78994 12.0399 9.99261ZM23.0871 15.2566C22.4365 15.2566 21.8711 15.1606 21.3911 14.9686C20.9111 14.7659 20.5165 14.4993 20.2071 14.1686C19.8978 13.8273 19.6685 13.4593 19.5191 13.0646L21.0711 12.3926C21.2631 12.8299 21.5351 13.1659 21.8871 13.4006C22.2498 13.6246 22.6658 13.7366 23.1351 13.7366C23.5618 13.7366 23.9298 13.6619 24.2391 13.5126C24.5485 13.3526 24.7031 13.0966 24.7031 12.7446C24.7031 12.5206 24.6285 12.3393 24.4791 12.2006C24.3405 12.0513 24.1485 11.9286 23.9031 11.8326C23.6685 11.7366 23.3965 11.6513 23.0871 11.5766L22.1111 11.3526C21.7271 11.2566 21.3591 11.1073 21.0071 10.9046C20.6658 10.6913 20.3885 10.4246 20.1751 10.1046C19.9618 9.78461 19.8551 9.40594 19.8551 8.96861C19.8551 8.47794 19.9938 8.05661 20.2711 7.70461C20.5591 7.34194 20.9431 7.06461 21.4231 6.87261C21.9031 6.68061 22.4205 6.58461 22.9751 6.58461C23.4871 6.58461 23.9511 6.65394 24.3671 6.79261C24.7938 6.92061 25.1618 7.11794 25.4711 7.38461C25.7911 7.64061 26.0418 7.96061 26.2231 8.34461L24.7351 9.01661C24.5538 8.65394 24.3085 8.40328 23.9991 8.26461C23.6898 8.11528 23.3538 8.04061 22.9911 8.04061C22.5858 8.04061 22.2445 8.12594 21.9671 8.29661C21.7005 8.45661 21.5671 8.66994 21.5671 8.93661C21.5671 9.21394 21.6845 9.43261 21.9191 9.59261C22.1645 9.75261 22.4631 9.88061 22.8151 9.97661L23.9991 10.2646C24.8098 10.4673 25.4178 10.7766 25.8231 11.1926C26.2285 11.5979 26.4311 12.0939 26.4311 12.6806C26.4311 13.2033 26.2818 13.6619 25.9831 14.0566C25.6845 14.4406 25.2791 14.7393 24.7671 14.9526C24.2658 15.1553 23.7058 15.2566 23.0871 15.2566ZM30.7274 15.2566C30.1407 15.2566 29.618 15.1393 29.1594 14.9046C28.7114 14.6699 28.354 14.3499 28.0874 13.9446C27.8314 13.5286 27.7034 13.0539 27.7034 12.5206C27.7034 11.9339 27.8527 11.4379 28.1514 11.0326C28.4607 10.6273 28.8714 10.3179 29.3834 10.1046C29.8954 9.89128 30.4607 9.78461 31.0794 9.78461C31.4207 9.78461 31.7354 9.81128 32.0234 9.86461C32.322 9.90728 32.578 9.96061 32.7914 10.0246C33.0154 10.0886 33.1914 10.1579 33.3194 10.2326V9.80061C33.3194 9.26728 33.1274 8.84061 32.7434 8.52061C32.3594 8.20061 31.8634 8.04061 31.2554 8.04061C30.8394 8.04061 30.4447 8.13661 30.0714 8.32861C29.698 8.50994 29.3994 8.76061 29.1754 9.08061L27.9914 8.16861C28.226 7.83794 28.5087 7.55528 28.8394 7.32061C29.1807 7.08594 29.5594 6.90461 29.9754 6.77661C30.402 6.64861 30.8447 6.58461 31.3034 6.58461C32.4874 6.58461 33.3994 6.87794 34.0394 7.46461C34.6794 8.04061 34.9994 8.85128 34.9994 9.89661V15.0006H33.3194V13.9926H33.2234C33.0847 14.2059 32.8927 14.4086 32.6474 14.6006C32.4127 14.7926 32.13 14.9473 31.7994 15.0646C31.4794 15.1926 31.122 15.2566 30.7274 15.2566ZM31.0314 13.8486C31.4794 13.8486 31.874 13.7419 32.2154 13.5286C32.5674 13.3153 32.8394 13.0379 33.0314 12.6966C33.2234 12.3446 33.3194 11.9659 33.3194 11.5606C33.0847 11.4219 32.7967 11.3099 32.4554 11.2246C32.1247 11.1286 31.7727 11.0806 31.3994 11.0806C30.6954 11.0806 30.194 11.2193 29.8954 11.4966C29.5967 11.7739 29.4474 12.1206 29.4474 12.5366C29.4474 12.9206 29.5914 13.2353 29.8794 13.4806C30.1674 13.7259 30.5514 13.8486 31.0314 13.8486ZM37.0517 15.0006V6.84061H38.6837V7.96061H38.7797C39.0144 7.56594 39.3611 7.24061 39.8197 6.98461C40.2891 6.71794 40.8011 6.58461 41.3557 6.58461C42.3584 6.58461 43.1104 6.88328 43.6117 7.48061C44.1131 8.06728 44.3637 8.85661 44.3637 9.84861V15.0006H42.6517V10.0726C42.6517 9.41128 42.4864 8.93128 42.1557 8.63261C41.8251 8.32328 41.3931 8.16861 40.8597 8.16861C40.4437 8.16861 40.0811 8.28594 39.7717 8.52061C39.4624 8.74461 39.2171 9.04328 39.0357 9.41661C38.8651 9.78994 38.7797 10.1899 38.7797 10.6166V15.0006H37.0517ZM53.8554 15.2566C53.1194 15.2566 52.4527 15.0699 51.8554 14.6966C51.258 14.3233 50.7887 13.8113 50.4474 13.1606C50.106 12.5099 49.9354 11.7633 49.9354 10.9206C49.9354 10.0779 50.106 9.33128 50.4474 8.68061C50.7887 8.02994 51.258 7.51794 51.8554 7.14461C52.4527 6.77128 53.1194 6.58461 53.8554 6.58461C54.282 6.58461 54.666 6.64861 55.0074 6.77661C55.3487 6.90461 55.642 7.07528 55.8874 7.28861C56.1434 7.49128 56.3407 7.70994 56.4794 7.94461H56.5754L56.4794 6.80861V3.54461H58.1914V15.0006H56.5754V13.9126H56.4794C56.3407 14.1366 56.1434 14.3553 55.8874 14.5686C55.642 14.7713 55.3487 14.9366 55.0074 15.0646C54.666 15.1926 54.282 15.2566 53.8554 15.2566ZM54.1114 13.6726C54.538 13.6726 54.938 13.5606 55.3114 13.3366C55.6954 13.1126 55.9994 12.7979 56.2234 12.3926C56.458 11.9766 56.5754 11.4859 56.5754 10.9206C56.5754 10.3553 56.458 9.86994 56.2234 9.46461C55.9994 9.04861 55.6954 8.72861 55.3114 8.50461C54.938 8.28061 54.538 8.16861 54.1114 8.16861C53.6847 8.16861 53.2847 8.28061 52.9114 8.50461C52.538 8.72861 52.234 9.04861 51.9994 9.46461C51.7647 9.86994 51.6474 10.3553 51.6474 10.9206C51.6474 11.4753 51.7647 11.9606 51.9994 12.3766C52.234 12.7926 52.538 13.1126 52.9114 13.3366C53.2847 13.5606 53.6847 13.6726 54.1114 13.6726ZM64.0266 15.2566C63.2266 15.2566 62.512 15.0699 61.8826 14.6966C61.2533 14.3233 60.7573 13.8113 60.3946 13.1606C60.0426 12.5099 59.8666 11.7686 59.8666 10.9366C59.8666 10.1579 60.0373 9.43794 60.3786 8.77661C60.72 8.11528 61.1946 7.58728 61.8026 7.19261C62.4213 6.78728 63.1306 6.58461 63.9306 6.58461C64.7733 6.58461 65.488 6.76594 66.0746 7.12861C66.672 7.49128 67.1253 7.98728 67.4346 8.61661C67.744 9.24594 67.8986 9.95528 67.8986 10.7446C67.8986 10.8619 67.8933 10.9686 67.8826 11.0646C67.8826 11.1606 67.8773 11.2353 67.8666 11.2886H61.5626C61.6053 11.7366 61.7173 12.1259 61.8986 12.4566C62.1333 12.8726 62.4426 13.1873 62.8266 13.4006C63.2106 13.6139 63.6266 13.7206 64.0746 13.7206C64.6186 13.7206 65.072 13.5979 65.4346 13.3526C65.808 13.0966 66.1013 12.7819 66.3146 12.4086L67.7386 13.0966C67.3866 13.7366 66.9066 14.2593 66.2986 14.6646C65.6906 15.0593 64.9333 15.2566 64.0266 15.2566ZM61.6586 9.99261H66.1866C66.176 9.78994 66.1226 9.57661 66.0266 9.35261C65.9306 9.11794 65.792 8.90461 65.6106 8.71261C65.4293 8.52061 65.2 8.36594 64.9226 8.24861C64.6453 8.12061 64.32 8.05661 63.9466 8.05661C63.4773 8.05661 63.0613 8.17928 62.6986 8.42461C62.336 8.65928 62.0533 8.98994 61.8506 9.41661C61.7653 9.59794 61.7013 9.78994 61.6586 9.99261ZM69.6517 15.0006V6.84061H71.2837V7.96061H71.3797C71.6144 7.56594 71.9611 7.24061 72.4197 6.98461C72.8891 6.71794 73.4011 6.58461 73.9557 6.58461C74.9584 6.58461 75.7104 6.88328 76.2117 7.48061C76.7131 8.06728 76.9637 8.85661 76.9637 9.84861V15.0006H75.2517V10.0726C75.2517 9.41128 75.0864 8.93128 74.7557 8.63261C74.4251 8.32328 73.9931 8.16861 73.4597 8.16861C73.0437 8.16861 72.6811 8.28594 72.3717 8.52061C72.0624 8.74461 71.8171 9.04328 71.6357 9.41661C71.4651 9.78994 71.3797 10.1899 71.3797 10.6166V15.0006H69.6517ZM82.6849 18.7126C81.9702 18.7126 81.3515 18.5953 80.8289 18.3606C80.3169 18.1366 79.9009 17.8433 79.5809 17.4806C79.2609 17.1286 79.0315 16.7659 78.8929 16.3926L80.4929 15.7206C80.6635 16.1473 80.9355 16.4939 81.3089 16.7606C81.6929 17.0379 82.1515 17.1766 82.6849 17.1766C83.4422 17.1766 84.0342 16.9526 84.4609 16.5046C84.8875 16.0566 85.1009 15.4219 85.1009 14.6006V13.8166H85.0049C84.7489 14.1899 84.3969 14.4939 83.9489 14.7286C83.5009 14.9633 82.9835 15.0806 82.3969 15.0806C81.7035 15.0806 81.0635 14.9046 80.4769 14.5526C79.9009 14.2006 79.4369 13.7099 79.0849 13.0806C78.7435 12.4406 78.5729 11.6939 78.5729 10.8406C78.5729 9.97661 78.7435 9.22994 79.0849 8.60061C79.4369 7.96061 79.9009 7.46461 80.4769 7.11261C81.0635 6.76061 81.7035 6.58461 82.3969 6.58461C82.9835 6.58461 83.5009 6.70194 83.9489 6.93661C84.3969 7.16061 84.7489 7.46994 85.0049 7.86461H85.1009V6.84061H86.7489V14.5686C86.7489 15.4539 86.5729 16.2059 86.2209 16.8246C85.8795 17.4433 85.4049 17.9126 84.7969 18.2326C84.1889 18.5526 83.4849 18.7126 82.6849 18.7126ZM82.7009 13.5126C83.1275 13.5126 83.5222 13.4113 83.8849 13.2086C84.2582 12.9953 84.5515 12.6913 84.7649 12.2966C84.9889 11.8913 85.1009 11.4059 85.1009 10.8406C85.1009 10.2433 84.9889 9.74728 84.7649 9.35261C84.5515 8.95794 84.2582 8.65928 83.8849 8.45661C83.5222 8.25394 83.1275 8.15261 82.7009 8.15261C82.2742 8.15261 81.8742 8.25394 81.5009 8.45661C81.1382 8.65928 80.8449 8.96328 80.6209 9.36861C80.3969 9.76328 80.2849 10.2539 80.2849 10.8406C80.2849 11.4166 80.3969 11.9073 80.6209 12.3126C80.8449 12.7073 81.1382 13.0059 81.5009 13.2086C81.8742 13.4113 82.2742 13.5126 82.7009 13.5126ZM91.4024 15.2566C90.8157 15.2566 90.293 15.1393 89.8344 14.9046C89.3864 14.6699 89.029 14.3499 88.7624 13.9446C88.5064 13.5286 88.3784 13.0539 88.3784 12.5206C88.3784 11.9339 88.5277 11.4379 88.8264 11.0326C89.1357 10.6273 89.5464 10.3179 90.0584 10.1046C90.5704 9.89128 91.1357 9.78461 91.7544 9.78461C92.0957 9.78461 92.4104 9.81128 92.6984 9.86461C92.997 9.90728 93.253 9.96061 93.4664 10.0246C93.6904 10.0886 93.8664 10.1579 93.9944 10.2326V9.80061C93.9944 9.26728 93.8024 8.84061 93.4184 8.52061C93.0344 8.20061 92.5384 8.04061 91.9304 8.04061C91.5144 8.04061 91.1197 8.13661 90.7464 8.32861C90.373 8.50994 90.0744 8.76061 89.8504 9.08061L88.6664 8.16861C88.901 7.83794 89.1837 7.55528 89.5144 7.32061C89.8557 7.08594 90.2344 6.90461 90.6504 6.77661C91.077 6.64861 91.5197 6.58461 91.9784 6.58461C93.1624 6.58461 94.0744 6.87794 94.7144 7.46461C95.3544 8.04061 95.6744 8.85128 95.6744 9.89661V15.0006H93.9944V13.9926H93.8984C93.7597 14.2059 93.5677 14.4086 93.3224 14.6006C93.0877 14.7926 92.805 14.9473 92.4744 15.0646C92.1544 15.1926 91.797 15.2566 91.4024 15.2566ZM91.7064 13.8486C92.1544 13.8486 92.549 13.7419 92.8904 13.5286C93.2424 13.3153 93.5144 13.0379 93.7064 12.6966C93.8984 12.3446 93.9944 11.9659 93.9944 11.5606C93.7597 11.4219 93.4717 11.3099 93.1304 11.2246C92.7997 11.1286 92.4477 11.0806 92.0744 11.0806C91.3704 11.0806 90.869 11.2193 90.5704 11.4966C90.2717 11.7739 90.1224 12.1206 90.1224 12.5366C90.1224 12.9206 90.2664 13.2353 90.5544 13.4806C90.8424 13.7259 91.2264 13.8486 91.7064 13.8486ZM97.7268 15.0006V6.84061H99.3588V7.96061H99.4548C99.6894 7.56594 100.036 7.24061 100.495 6.98461C100.964 6.71794 101.476 6.58461 102.031 6.58461C103.033 6.58461 103.785 6.88328 104.287 7.48061C104.788 8.06728 105.039 8.85661 105.039 9.84861V15.0006H103.327V10.0726C103.327 9.41128 103.161 8.93128 102.831 8.63261C102.5 8.32328 102.068 8.16861 101.535 8.16861C101.119 8.16861 100.756 8.28594 100.447 8.52061C100.137 8.74461 99.8921 9.04328 99.7108 9.41661C99.5401 9.78994 99.4548 10.1899 99.4548 10.6166V15.0006H97.7268Z" fill="white"/>
<g id="GPay (Dark)">
<g id="GPay">
<g id="Pay">
<path id="Fill 1" fill-rule="evenodd" clip-rule="evenodd" d="M134.356 3.42339V8.16175H137.278C137.974 8.16175 138.55 7.92781 139.005 7.45993C139.473 6.99313 139.707 6.43644 139.707 5.79203C139.707 5.16061 139.473 4.61041 139.005 4.14254C138.55 3.66274 137.974 3.4223 137.278 3.4223H134.356V3.42339ZM134.356 9.82966V15.3262H132.611V1.75549H137.24C138.417 1.75549 139.415 2.14756 140.238 2.93061C141.073 3.71365 141.491 4.66782 141.491 5.79203C141.491 6.94224 141.073 7.90291 140.238 8.67296C139.428 9.44409 138.429 9.82858 137.24 9.82858H134.356V9.82966Z" fill="white"/>
<path id="Fill 3" fill-rule="evenodd" clip-rule="evenodd" d="M143.255 12.4831C143.255 12.9379 143.448 13.317 143.834 13.6203C144.22 13.9235 144.672 14.0752 145.19 14.0752C145.924 14.0752 146.578 13.8032 147.153 13.2607C147.729 12.717 148.017 12.0791 148.017 11.3469C147.472 10.917 146.713 10.7025 145.74 10.7025C145.031 10.7025 144.44 10.8736 143.966 11.2148C143.492 11.5559 143.255 11.9773 143.255 12.4831M145.513 5.73566C146.803 5.73566 147.821 6.08007 148.569 6.76889C149.314 7.45771 149.687 8.40213 149.687 9.60216V15.3261H148.018V14.0373H147.942C147.221 15.0985 146.259 15.6294 145.058 15.6294C144.033 15.6294 143.176 15.3261 142.487 14.7196C141.797 14.1131 141.453 13.3549 141.453 12.4452C141.453 11.4845 141.816 10.7208 142.543 10.1523C143.271 9.58375 144.241 9.2989 145.456 9.2989C146.492 9.2989 147.346 9.48844 148.017 9.86751V9.46894C148.017 8.86243 147.776 8.34798 147.296 7.92451C146.814 7.50103 146.252 7.28984 145.607 7.28984C144.633 7.28984 143.862 7.70032 143.293 8.52235L141.755 7.55519C142.603 6.34217 143.855 5.73566 145.513 5.73566" fill="white"/>
<path id="Fill 5" fill-rule="evenodd" clip-rule="evenodd" d="M159.269 6.03894L153.443 19.4201H151.641L153.804 14.738L149.971 6.03894H151.869L154.639 12.7106H154.677L157.371 6.03894H159.269Z" fill="white"/>
</g>
<g id="G">
<path id="Fill 8" fill-rule="evenodd" clip-rule="evenodd" d="M127.303 8.64473C127.303 8.09563 127.256 7.56601 127.168 7.05914H119.806V10.0625H124.023C123.842 11.0414 123.294 11.8744 122.464 12.4322V14.3828H124.98C126.454 13.0246 127.303 11.0177 127.303 8.64473" fill="#4285F4"/>
<path id="Fill 10" fill-rule="evenodd" clip-rule="evenodd" d="M119.806 16.2651C121.913 16.2651 123.687 15.5741 124.98 14.3828L122.464 12.4322C121.763 12.9033 120.861 13.1784 119.806 13.1784C117.77 13.1784 116.042 11.8073 115.424 9.95959H112.832V11.9687C114.116 14.516 116.757 16.2651 119.806 16.2651" fill="#34A853"/>
<path id="Fill 12" fill-rule="evenodd" clip-rule="evenodd" d="M115.424 9.9596C115.266 9.48847 115.179 8.98593 115.179 8.46715C115.179 7.94837 115.266 7.44583 115.424 6.9747V4.96564H112.832C112.3 6.01837 112 7.20756 112 8.46715C112 9.72674 112.3 10.916 112.832 11.9687L115.424 9.9596Z" fill="#FABB05"/>
<path id="Fill 14" fill-rule="evenodd" clip-rule="evenodd" d="M119.806 3.75583C120.957 3.75583 121.988 4.15115 122.801 4.92553V4.92661L125.029 2.70094C123.676 1.44243 121.912 0.669128 119.806 0.669128C116.757 0.669128 114.116 2.41826 112.832 4.9656L115.424 6.97467C116.042 5.12698 117.77 3.75583 119.806 3.75583" fill="#E94235"/>
</g>
</g>
</g>
</g>
</svg>
