<svg width="314" height="38" viewBox="0 0 314 38" fill="none" xmlns="http://www.w3.org/2000/svg">
<g id="ms_subscribe_with_Light">
<path id="Text" d="M2.35238 30V9.952H5.43238V27.088H14.0564V30H2.35238ZM21.476 30.448C20.4494 30.448 19.5347 30.252 18.732 29.86C17.9294 29.4493 17.304 28.88 16.856 28.152C16.408 27.424 16.184 26.5933 16.184 25.66C16.184 24.652 16.4454 23.7933 16.968 23.084C17.5094 22.356 18.228 21.8053 19.124 21.432C20.02 21.0587 21.0094 20.872 22.092 20.872C22.988 20.872 23.772 20.956 24.444 21.124C25.1347 21.292 25.6574 21.4693 26.012 21.656V20.9C26.012 19.9667 25.676 19.22 25.004 18.66C24.332 18.1 23.464 17.82 22.4 17.82C21.672 17.82 20.9814 17.988 20.328 18.324C19.6747 18.6413 19.152 19.08 18.76 19.64L16.688 18.044C17.304 17.1853 18.116 16.5133 19.124 16.028C20.1507 15.524 21.2707 15.272 22.484 15.272C24.556 15.272 26.152 15.7853 27.272 16.812C28.392 17.82 28.952 19.2387 28.952 21.068V30H26.012V28.236H25.844C25.4707 28.8147 24.9107 29.328 24.164 29.776C23.4174 30.224 22.5214 30.448 21.476 30.448ZM22.008 27.984C22.792 27.984 23.4827 27.7973 24.08 27.424C24.6774 27.0507 25.144 26.5653 25.48 25.968C25.8347 25.352 26.012 24.6893 26.012 23.98C25.5827 23.7373 25.0787 23.5413 24.5 23.392C23.9214 23.224 23.3054 23.14 22.652 23.14C21.42 23.14 20.5427 23.392 20.02 23.896C19.4974 24.3813 19.236 24.9787 19.236 25.688C19.236 26.36 19.488 26.9107 19.992 27.34C20.496 27.7693 21.168 27.984 22.008 27.984ZM32.5812 30V15.72H35.4372V17.68H35.6052C36.0159 16.9893 36.6225 16.42 37.4252 15.972C38.2465 15.5053 39.1425 15.272 40.1132 15.272C41.8679 15.272 43.1839 15.7947 44.0612 16.84C44.9385 17.8853 45.3772 19.2667 45.3772 20.984V30H42.3812V21.376C42.3812 20.2187 42.0919 19.3787 41.5132 18.856C40.9345 18.3147 40.1785 18.044 39.2452 18.044C38.5172 18.044 37.8825 18.2493 37.3412 18.66C36.7999 19.052 36.3705 19.5747 36.0532 20.228C35.7545 20.8813 35.6052 21.5813 35.6052 22.328V30H32.5812ZM55.4267 36.496C54.176 36.496 53.0933 36.2907 52.1787 35.88C51.2827 35.488 50.5547 34.9747 49.9947 34.34C49.4347 33.724 49.0333 33.0893 48.7907 32.436L51.5907 31.26C51.8893 32.0067 52.3653 32.6133 53.0187 33.08C53.6907 33.5653 54.4933 33.808 55.4267 33.808C56.7333 33.808 57.76 33.416 58.5067 32.632C59.272 31.848 59.6547 30.7373 59.6547 29.3V27.928H59.4867C59.0387 28.6 58.4133 29.1413 57.6107 29.552C56.8267 29.944 55.9307 30.14 54.9227 30.14C53.7093 30.14 52.5987 29.832 51.5907 29.216C50.5827 28.6 49.7707 27.7413 49.1547 26.64C48.5387 25.52 48.2307 24.2133 48.2307 22.72C48.2307 21.208 48.5387 19.9013 49.1547 18.8C49.7707 17.68 50.5827 16.812 51.5907 16.196C52.5987 15.58 53.7093 15.272 54.9227 15.272C55.9307 15.272 56.8267 15.4773 57.6107 15.888C58.4133 16.2987 59.0387 16.84 59.4867 17.512H59.6547V15.72H62.5387V29.244C62.5387 30.7933 62.2307 32.1093 61.6147 33.192C61.0173 34.2747 60.1867 35.096 59.1227 35.656C58.0587 36.216 56.8267 36.496 55.4267 36.496ZM55.4547 27.396C56.2013 27.396 56.892 27.2187 57.5267 26.864C58.1613 26.4907 58.6747 25.9587 59.0667 25.268C59.4587 24.5587 59.6547 23.7093 59.6547 22.72C59.6547 21.6933 59.4587 20.8347 59.0667 20.144C58.6747 19.4347 58.1613 18.9027 57.5267 18.548C56.892 18.1933 56.2013 18.016 55.4547 18.016C54.708 18.016 54.008 18.2027 53.3547 18.576C52.72 18.9307 52.2067 19.4533 51.8147 20.144C51.4227 20.8347 51.2267 21.6933 51.2267 22.72C51.2267 23.728 51.4227 24.5867 51.8147 25.296C52.2067 25.9867 52.72 26.5093 53.3547 26.864C54.008 27.2187 54.708 27.396 55.4547 27.396ZM72.6798 36.496C71.4291 36.496 70.3465 36.2907 69.4318 35.88C68.5358 35.488 67.8078 34.9747 67.2478 34.34C66.6878 33.724 66.2865 33.0893 66.0438 32.436L68.8438 31.26C69.1425 32.0067 69.6185 32.6133 70.2718 33.08C70.9438 33.5653 71.7465 33.808 72.6798 33.808C73.9865 33.808 75.0131 33.416 75.7598 32.632C76.5251 31.848 76.9078 30.7373 76.9078 29.3V27.928H76.7398C76.2918 28.6 75.6665 29.1413 74.8638 29.552C74.0798 29.944 73.1838 30.14 72.1758 30.14C70.9625 30.14 69.8518 29.832 68.8438 29.216C67.8358 28.6 67.0238 27.7413 66.4078 26.64C65.7918 25.52 65.4838 24.2133 65.4838 22.72C65.4838 21.208 65.7918 19.9013 66.4078 18.8C67.0238 17.68 67.8358 16.812 68.8438 16.196C69.8518 15.58 70.9625 15.272 72.1758 15.272C73.1838 15.272 74.0798 15.4773 74.8638 15.888C75.6665 16.2987 76.2918 16.84 76.7398 17.512H76.9078V15.72H79.7918V29.244C79.7918 30.7933 79.4838 32.1093 78.8678 33.192C78.2705 34.2747 77.4398 35.096 76.3758 35.656C75.3118 36.216 74.0798 36.496 72.6798 36.496ZM72.7078 27.396C73.4545 27.396 74.1451 27.2187 74.7798 26.864C75.4145 26.4907 75.9278 25.9587 76.3198 25.268C76.7118 24.5587 76.9078 23.7093 76.9078 22.72C76.9078 21.6933 76.7118 20.8347 76.3198 20.144C75.9278 19.4347 75.4145 18.9027 74.7798 18.548C74.1451 18.1933 73.4545 18.016 72.7078 18.016C71.9611 18.016 71.2611 18.2027 70.6078 18.576C69.9731 18.9307 69.4598 19.4533 69.0678 20.144C68.6758 20.8347 68.4798 21.6933 68.4798 22.72C68.4798 23.728 68.6758 24.5867 69.0678 25.296C69.4598 25.9867 69.9731 26.5093 70.6078 26.864C71.2611 27.2187 71.9611 27.396 72.7078 27.396ZM87.9729 30.448C86.9462 30.448 86.0316 30.252 85.2289 29.86C84.4262 29.4493 83.8009 28.88 83.3529 28.152C82.9049 27.424 82.6809 26.5933 82.6809 25.66C82.6809 24.652 82.9422 23.7933 83.4649 23.084C84.0062 22.356 84.7249 21.8053 85.6209 21.432C86.5169 21.0587 87.5062 20.872 88.5889 20.872C89.4849 20.872 90.2689 20.956 90.9409 21.124C91.6316 21.292 92.1542 21.4693 92.5089 21.656V20.9C92.5089 19.9667 92.1729 19.22 91.5009 18.66C90.8289 18.1 89.9609 17.82 88.8969 17.82C88.1689 17.82 87.4782 17.988 86.8249 18.324C86.1716 18.6413 85.6489 19.08 85.2569 19.64L83.1849 18.044C83.8009 17.1853 84.6129 16.5133 85.6209 16.028C86.6476 15.524 87.7676 15.272 88.9809 15.272C91.0529 15.272 92.6489 15.7853 93.7689 16.812C94.8889 17.82 95.4489 19.2387 95.4489 21.068V30H92.5089V28.236H92.3409C91.9676 28.8147 91.4076 29.328 90.6609 29.776C89.9142 30.224 89.0182 30.448 87.9729 30.448ZM88.5049 27.984C89.2889 27.984 89.9796 27.7973 90.5769 27.424C91.1742 27.0507 91.6409 26.5653 91.9769 25.968C92.3316 25.352 92.5089 24.6893 92.5089 23.98C92.0796 23.7373 91.5756 23.5413 90.9969 23.392C90.4182 23.224 89.8022 23.14 89.1489 23.14C87.9169 23.14 87.0396 23.392 86.5169 23.896C85.9942 24.3813 85.7329 24.9787 85.7329 25.688C85.7329 26.36 85.9849 26.9107 86.4889 27.34C86.9929 27.7693 87.6649 27.984 88.5049 27.984ZM99.0781 30V15.72H101.934V17.68H102.102C102.513 16.9893 103.119 16.42 103.922 15.972C104.743 15.5053 105.639 15.272 106.61 15.272C108.365 15.272 109.681 15.7947 110.558 16.84C111.435 17.8853 111.874 19.2667 111.874 20.984V30H108.878V21.376C108.878 20.2187 108.589 19.3787 108.01 18.856C107.431 18.3147 106.675 18.044 105.742 18.044C105.014 18.044 104.379 18.2493 103.838 18.66C103.297 19.052 102.867 19.5747 102.55 20.228C102.251 20.8813 102.102 21.5813 102.102 22.328V30H99.0781ZM128.559 30.448C127.271 30.448 126.105 30.1307 125.059 29.496C124.033 28.8427 123.211 27.9467 122.595 26.808C121.998 25.6507 121.699 24.3347 121.699 22.86C121.699 21.3853 121.998 20.0787 122.595 18.94C123.211 17.8013 124.033 16.9053 125.059 16.252C126.105 15.5987 127.271 15.272 128.559 15.272C129.661 15.272 130.603 15.5147 131.387 16C132.19 16.4853 132.778 17.036 133.151 17.652H133.319L133.151 15.664V9.952H136.147V30H133.319V28.096H133.151C132.778 28.712 132.19 29.2627 131.387 29.748C130.603 30.2147 129.661 30.448 128.559 30.448ZM129.007 27.676C129.754 27.676 130.454 27.48 131.107 27.088C131.779 26.696 132.311 26.1453 132.703 25.436C133.114 24.708 133.319 23.8493 133.319 22.86C133.319 21.8707 133.114 21.0213 132.703 20.312C132.311 19.584 131.779 19.024 131.107 18.632C130.454 18.24 129.754 18.044 129.007 18.044C128.261 18.044 127.561 18.24 126.907 18.632C126.254 19.024 125.722 19.584 125.311 20.312C124.901 21.0213 124.695 21.8707 124.695 22.86C124.695 23.8493 124.901 24.708 125.311 25.436C125.722 26.1453 126.254 26.696 126.907 27.088C127.561 27.48 128.261 27.676 129.007 27.676ZM146.397 30.448C144.997 30.448 143.746 30.1213 142.645 29.468C141.543 28.8147 140.675 27.9187 140.041 26.78C139.425 25.6413 139.117 24.344 139.117 22.888C139.117 21.5253 139.415 20.2653 140.013 19.108C140.61 17.9507 141.441 17.0267 142.505 16.336C143.587 15.6267 144.829 15.272 146.229 15.272C147.703 15.272 148.954 15.5893 149.981 16.224C151.026 16.8587 151.819 17.7267 152.361 18.828C152.902 19.9293 153.173 21.1707 153.173 22.552C153.173 22.7573 153.163 22.944 153.145 23.112C153.145 23.28 153.135 23.4107 153.117 23.504H142.085C142.234 24.9227 142.729 25.9867 143.569 26.696C144.427 27.4053 145.398 27.76 146.481 27.76C147.451 27.76 148.254 27.5453 148.889 27.116C149.523 26.668 150.027 26.1173 150.401 25.464L152.893 26.668C152.277 27.788 151.437 28.7027 150.373 29.412C149.309 30.1027 147.983 30.448 146.397 30.448ZM146.257 17.848C145.249 17.848 144.39 18.156 143.681 18.772C142.971 19.388 142.495 20.2093 142.253 21.236H150.177C150.139 20.7507 149.981 20.2467 149.701 19.724C149.421 19.2013 148.991 18.7627 148.413 18.408C147.853 18.0347 147.134 17.848 146.257 17.848ZM156.278 30V15.72H159.134V17.68H159.302C159.713 16.9893 160.319 16.42 161.122 15.972C161.943 15.5053 162.839 15.272 163.81 15.272C165.565 15.272 166.881 15.7947 167.758 16.84C168.635 17.8853 169.074 19.2667 169.074 20.984V30H166.078V21.376C166.078 20.2187 165.789 19.3787 165.21 18.856C164.631 18.3147 163.875 18.044 162.942 18.044C162.214 18.044 161.579 18.2493 161.038 18.66C160.497 19.052 160.067 19.5747 159.75 20.228C159.451 20.8813 159.302 21.5813 159.302 22.328V30H156.278ZM179.124 36.496C177.873 36.496 176.79 36.2907 175.876 35.88C174.98 35.488 174.252 34.9747 173.692 34.34C173.132 33.724 172.73 33.0893 172.488 32.436L175.288 31.26C175.586 32.0067 176.062 32.6133 176.716 33.08C177.388 33.5653 178.19 33.808 179.124 33.808C180.43 33.808 181.457 33.416 182.204 32.632C182.969 31.848 183.352 30.7373 183.352 29.3V27.928H183.184C182.736 28.6 182.11 29.1413 181.308 29.552C180.524 29.944 179.628 30.14 178.62 30.14C177.406 30.14 176.296 29.832 175.288 29.216C174.28 28.6 173.468 27.7413 172.852 26.64C172.236 25.52 171.928 24.2133 171.928 22.72C171.928 21.208 172.236 19.9013 172.852 18.8C173.468 17.68 174.28 16.812 175.288 16.196C176.296 15.58 177.406 15.272 178.62 15.272C179.628 15.272 180.524 15.4773 181.308 15.888C182.11 16.2987 182.736 16.84 183.184 17.512H183.352V15.72H186.236V29.244C186.236 30.7933 185.928 32.1093 185.312 33.192C184.714 34.2747 183.884 35.096 182.82 35.656C181.756 36.216 180.524 36.496 179.124 36.496ZM179.152 27.396C179.898 27.396 180.589 27.2187 181.224 26.864C181.858 26.4907 182.372 25.9587 182.764 25.268C183.156 24.5587 183.352 23.7093 183.352 22.72C183.352 21.6933 183.156 20.8347 182.764 20.144C182.372 19.4347 181.858 18.9027 181.224 18.548C180.589 18.1933 179.898 18.016 179.152 18.016C178.405 18.016 177.705 18.2027 177.052 18.576C176.417 18.9307 175.904 19.4533 175.512 20.144C175.12 20.8347 174.924 21.6933 174.924 22.72C174.924 23.728 175.12 24.5867 175.512 25.296C175.904 25.9867 176.417 26.5093 177.052 26.864C177.705 27.2187 178.405 27.396 179.152 27.396ZM194.417 30.448C193.39 30.448 192.475 30.252 191.673 29.86C190.87 29.4493 190.245 28.88 189.797 28.152C189.349 27.424 189.125 26.5933 189.125 25.66C189.125 24.652 189.386 23.7933 189.909 23.084C190.45 22.356 191.169 21.8053 192.065 21.432C192.961 21.0587 193.95 20.872 195.033 20.872C195.929 20.872 196.713 20.956 197.385 21.124C198.075 21.292 198.598 21.4693 198.953 21.656V20.9C198.953 19.9667 198.617 19.22 197.945 18.66C197.273 18.1 196.405 17.82 195.341 17.82C194.613 17.82 193.922 17.988 193.269 18.324C192.615 18.6413 192.093 19.08 191.701 19.64L189.629 18.044C190.245 17.1853 191.057 16.5133 192.065 16.028C193.091 15.524 194.211 15.272 195.425 15.272C197.497 15.272 199.093 15.7853 200.213 16.812C201.333 17.82 201.893 19.2387 201.893 21.068V30H198.953V28.236H198.785C198.411 28.8147 197.851 29.328 197.105 29.776C196.358 30.224 195.462 30.448 194.417 30.448ZM194.949 27.984C195.733 27.984 196.423 27.7973 197.021 27.424C197.618 27.0507 198.085 26.5653 198.421 25.968C198.775 25.352 198.953 24.6893 198.953 23.98C198.523 23.7373 198.019 23.5413 197.441 23.392C196.862 23.224 196.246 23.14 195.593 23.14C194.361 23.14 193.483 23.392 192.961 23.896C192.438 24.3813 192.177 24.9787 192.177 25.688C192.177 26.36 192.429 26.9107 192.933 27.34C193.437 27.7693 194.109 27.984 194.949 27.984ZM205.522 30V15.72H208.378V17.68H208.546C208.956 16.9893 209.563 16.42 210.366 15.972C211.187 15.5053 212.083 15.272 213.054 15.272C214.808 15.272 216.124 15.7947 217.002 16.84C217.879 17.8853 218.318 19.2667 218.318 20.984V30H215.322V21.376C215.322 20.2187 215.032 19.3787 214.454 18.856C213.875 18.3147 213.119 18.044 212.186 18.044C211.458 18.044 210.823 18.2493 210.282 18.66C209.74 19.052 209.311 19.5747 208.994 20.228C208.695 20.8813 208.546 21.5813 208.546 22.328V30H205.522Z" fill="#3C4043"/>
<g id="GPay Logo (Light)">
<g id="GPay">
<g id="Pay">
<path id="Fill 1" fill-rule="evenodd" clip-rule="evenodd" d="M270.529 9.44664V17.6128H275.565C276.765 17.6128 277.757 17.2096 278.541 16.4032C279.347 15.5988 279.75 14.6394 279.75 13.5288C279.75 12.4406 279.347 11.4924 278.541 10.686C277.757 9.85915 276.765 9.44478 275.565 9.44478H270.529V9.44664ZM270.529 20.4872V29.9599H267.521V6.57217H275.499C277.527 6.57217 279.248 7.24786 280.666 8.59737C282.105 9.94688 282.824 11.5913 282.824 13.5288C282.824 15.511 282.105 17.1667 280.666 18.4938C279.27 19.8227 277.547 20.4854 275.499 20.4854H270.529V20.4872Z" fill="#5F6368"/>
<path id="Fill 3" fill-rule="evenodd" clip-rule="evenodd" d="M285.864 25.0602C285.864 25.8442 286.197 26.4975 286.862 27.0201C287.527 27.5427 288.306 27.804 289.2 27.804C290.465 27.804 291.591 27.3354 292.584 26.4004C293.576 25.4634 294.071 24.364 294.071 23.1022C293.133 22.3612 291.825 21.9916 290.147 21.9916C288.925 21.9916 287.907 22.2865 287.09 22.8745C286.273 23.4623 285.864 24.1886 285.864 25.0602ZM289.756 13.4317C291.98 13.4317 293.735 14.0252 295.022 15.2124C296.308 16.3995 296.95 18.0271 296.95 20.0952V29.9599H294.073V27.7387H293.942C292.699 29.5677 291.042 30.4825 288.972 30.4825C287.206 30.4825 285.728 29.9599 284.541 28.9146C283.353 27.8694 282.759 26.5628 282.759 24.9949C282.759 23.3393 283.385 22.0232 284.638 21.0434C285.892 20.0635 287.565 19.5726 289.658 19.5726C291.444 19.5726 292.916 19.8992 294.071 20.5525V19.8656C294.071 18.8204 293.656 17.9338 292.829 17.204C291.999 16.4741 291.031 16.1102 289.919 16.1102C288.239 16.1102 286.911 16.8176 285.93 18.2343L283.28 16.5675C284.741 14.4769 286.899 13.4317 289.756 13.4317Z" fill="#5F6368"/>
<path id="Fill 5" fill-rule="evenodd" clip-rule="evenodd" d="M313.463 13.9543L303.424 37.0154H300.318L304.046 28.9464L297.44 13.9543H300.71L305.484 25.4522H305.55L310.193 13.9543H313.463Z" fill="#5F6368"/>
</g>
<g id="G">
<path id="Fill 8" fill-rule="evenodd" clip-rule="evenodd" d="M258.373 18.4452C258.373 17.4989 258.293 16.5861 258.141 15.7126H245.454V20.8885H252.72C252.408 22.5757 251.465 24.0112 250.033 24.9725V28.3341H254.37C256.91 25.9935 258.373 22.5348 258.373 18.4452Z" fill="#4285F4"/>
<path id="Fill 10" fill-rule="evenodd" clip-rule="evenodd" d="M245.454 31.5782C249.084 31.5782 252.141 30.3873 254.37 28.3341L250.033 24.9725C248.826 25.7844 247.272 26.2585 245.454 26.2585C241.944 26.2585 238.966 23.8955 237.901 20.7112H233.433V24.1736C235.647 28.5637 240.197 31.5782 245.454 31.5782Z" fill="#34A853"/>
<path id="Fill 12" fill-rule="evenodd" clip-rule="evenodd" d="M237.901 20.7111C237.628 19.8992 237.479 19.0331 237.479 18.139C237.479 17.245 237.628 16.3789 237.901 15.567V12.1045H233.433C232.518 13.9188 232 15.9683 232 18.139C232 20.3098 232.518 22.3595 233.433 24.1736L237.901 20.7111Z" fill="#FABB05"/>
<path id="Fill 14" fill-rule="evenodd" clip-rule="evenodd" d="M245.454 10.0196C247.436 10.0196 249.213 10.7009 250.615 12.0355V12.0374L254.455 8.20162C252.123 6.03271 249.082 4.7 245.454 4.7C240.197 4.7 235.647 7.71446 233.433 12.1046L237.901 15.567C238.966 12.3827 241.944 10.0196 245.454 10.0196Z" fill="#E94235"/>
</g>
</g>
</g>
</g>
</svg>
