<svg width="180" height="21" viewBox="0 0 180 21" fill="none" xmlns="http://www.w3.org/2000/svg">
<g id="ms_subscribe_with_Pay_NBG">
<path id="Left Text" d="M1.9085 15.0006V3.54461H3.6685V13.3366H8.5965V15.0006H1.9085ZM12.8149 15.2566C12.2282 15.2566 11.7055 15.1393 11.2469 14.9046C10.7989 14.6699 10.4415 14.3499 10.1749 13.9446C9.91888 13.5286 9.79088 13.0539 9.79088 12.5206C9.79088 11.9339 9.94021 11.4379 10.2389 11.0326C10.5482 10.6273 10.9589 10.3179 11.4709 10.1046C11.9829 9.89128 12.5482 9.78461 13.1669 9.78461C13.5082 9.78461 13.8229 9.81128 14.1109 9.86461C14.4095 9.90728 14.6655 9.96061 14.8789 10.0246C15.1029 10.0886 15.2789 10.1579 15.4069 10.2326V9.80061C15.4069 9.26728 15.2149 8.84061 14.8309 8.52061C14.4469 8.20061 13.9509 8.04061 13.3429 8.04061C12.9269 8.04061 12.5322 8.13661 12.1589 8.32861C11.7855 8.50994 11.4869 8.76061 11.2629 9.08061L10.0789 8.16861C10.3135 7.83794 10.5962 7.55528 10.9269 7.32061C11.2682 7.08594 11.6469 6.90461 12.0629 6.77661C12.4895 6.64861 12.9322 6.58461 13.3909 6.58461C14.5749 6.58461 15.4869 6.87794 16.1269 7.46461C16.7669 8.04061 17.0869 8.85128 17.0869 9.89661V15.0006H15.4069V13.9926H15.3109C15.1722 14.2059 14.9802 14.4086 14.7349 14.6006C14.5002 14.7926 14.2175 14.9473 13.8869 15.0646C13.5669 15.1926 13.2095 15.2566 12.8149 15.2566ZM13.1189 13.8486C13.5669 13.8486 13.9615 13.7419 14.3029 13.5286C14.6549 13.3153 14.9269 13.0379 15.1189 12.6966C15.3109 12.3446 15.4069 11.9659 15.4069 11.5606C15.1722 11.4219 14.8842 11.3099 14.5429 11.2246C14.2122 11.1286 13.8602 11.0806 13.4869 11.0806C12.7829 11.0806 12.2815 11.2193 11.9829 11.4966C11.6842 11.7739 11.5349 12.1206 11.5349 12.5366C11.5349 12.9206 11.6789 13.2353 11.9669 13.4806C12.2549 13.7259 12.6389 13.8486 13.1189 13.8486ZM19.1393 15.0006V6.84061H20.7713V7.96061H20.8673C21.1019 7.56594 21.4486 7.24061 21.9073 6.98461C22.3766 6.71794 22.8886 6.58461 23.4433 6.58461C24.4459 6.58461 25.1979 6.88328 25.6993 7.48061C26.2006 8.06728 26.4513 8.85661 26.4513 9.84861V15.0006H24.7393V10.0726C24.7393 9.41128 24.5739 8.93128 24.2433 8.63261C23.9126 8.32328 23.4806 8.16861 22.9473 8.16861C22.5313 8.16861 22.1686 8.28594 21.8593 8.52061C21.5499 8.74461 21.3046 9.04328 21.1233 9.41661C20.9526 9.78994 20.8673 10.1899 20.8673 10.6166V15.0006H19.1393ZM32.1724 18.7126C31.4577 18.7126 30.839 18.5953 30.3164 18.3606C29.8044 18.1366 29.3884 17.8433 29.0684 17.4806C28.7484 17.1286 28.519 16.7659 28.3804 16.3926L29.9804 15.7206C30.151 16.1473 30.423 16.4939 30.7964 16.7606C31.1804 17.0379 31.639 17.1766 32.1724 17.1766C32.9297 17.1766 33.5217 16.9526 33.9484 16.5046C34.375 16.0566 34.5884 15.4219 34.5884 14.6006V13.8166H34.4924C34.2364 14.1899 33.8844 14.4939 33.4364 14.7286C32.9884 14.9633 32.471 15.0806 31.8844 15.0806C31.191 15.0806 30.551 14.9046 29.9644 14.5526C29.3884 14.2006 28.9244 13.7099 28.5724 13.0806C28.231 12.4406 28.0604 11.6939 28.0604 10.8406C28.0604 9.97661 28.231 9.22994 28.5724 8.60061C28.9244 7.96061 29.3884 7.46461 29.9644 7.11261C30.551 6.76061 31.191 6.58461 31.8844 6.58461C32.471 6.58461 32.9884 6.70194 33.4364 6.93661C33.8844 7.16061 34.2364 7.46994 34.4924 7.86461H34.5884V6.84061H36.2364V14.5686C36.2364 15.4539 36.0604 16.2059 35.7084 16.8246C35.367 17.4433 34.8924 17.9126 34.2844 18.2326C33.6764 18.5526 32.9724 18.7126 32.1724 18.7126ZM32.1884 13.5126C32.615 13.5126 33.0097 13.4113 33.3724 13.2086C33.7457 12.9953 34.039 12.6913 34.2524 12.2966C34.4764 11.8913 34.5884 11.4059 34.5884 10.8406C34.5884 10.2433 34.4764 9.74728 34.2524 9.35261C34.039 8.95794 33.7457 8.65928 33.3724 8.45661C33.0097 8.25394 32.615 8.15261 32.1884 8.15261C31.7617 8.15261 31.3617 8.25394 30.9884 8.45661C30.6257 8.65928 30.3324 8.96328 30.1084 9.36861C29.8844 9.76328 29.7724 10.2539 29.7724 10.8406C29.7724 11.4166 29.8844 11.9073 30.1084 12.3126C30.3324 12.7073 30.6257 13.0059 30.9884 13.2086C31.3617 13.4113 31.7617 13.5126 32.1884 13.5126ZM42.0099 18.7126C41.2952 18.7126 40.6765 18.5953 40.1539 18.3606C39.6419 18.1366 39.2259 17.8433 38.9059 17.4806C38.5859 17.1286 38.3565 16.7659 38.2179 16.3926L39.8179 15.7206C39.9885 16.1473 40.2605 16.4939 40.6339 16.7606C41.0179 17.0379 41.4765 17.1766 42.0099 17.1766C42.7672 17.1766 43.3592 16.9526 43.7859 16.5046C44.2125 16.0566 44.4259 15.4219 44.4259 14.6006V13.8166H44.3299C44.0739 14.1899 43.7219 14.4939 43.2739 14.7286C42.8259 14.9633 42.3085 15.0806 41.7219 15.0806C41.0285 15.0806 40.3885 14.9046 39.8019 14.5526C39.2259 14.2006 38.7619 13.7099 38.4099 13.0806C38.0685 12.4406 37.8979 11.6939 37.8979 10.8406C37.8979 9.97661 38.0685 9.22994 38.4099 8.60061C38.7619 7.96061 39.2259 7.46461 39.8019 7.11261C40.3885 6.76061 41.0285 6.58461 41.7219 6.58461C42.3085 6.58461 42.8259 6.70194 43.2739 6.93661C43.7219 7.16061 44.0739 7.46994 44.3299 7.86461H44.4259V6.84061H46.0739V14.5686C46.0739 15.4539 45.8979 16.2059 45.5459 16.8246C45.2045 17.4433 44.7299 17.9126 44.1219 18.2326C43.5139 18.5526 42.8099 18.7126 42.0099 18.7126ZM42.0259 13.5126C42.4525 13.5126 42.8472 13.4113 43.2099 13.2086C43.5832 12.9953 43.8765 12.6913 44.0899 12.2966C44.3139 11.8913 44.4259 11.4059 44.4259 10.8406C44.4259 10.2433 44.3139 9.74728 44.0899 9.35261C43.8765 8.95794 43.5832 8.65928 43.2099 8.45661C42.8472 8.25394 42.4525 8.15261 42.0259 8.15261C41.5992 8.15261 41.1992 8.25394 40.8259 8.45661C40.4632 8.65928 40.1699 8.96328 39.9459 9.36861C39.7219 9.76328 39.6099 10.2539 39.6099 10.8406C39.6099 11.4166 39.7219 11.9073 39.9459 12.3126C40.1699 12.7073 40.4632 13.0059 40.8259 13.2086C41.1992 13.4113 41.5992 13.5126 42.0259 13.5126ZM50.7274 15.2566C50.1407 15.2566 49.618 15.1393 49.1594 14.9046C48.7114 14.6699 48.354 14.3499 48.0874 13.9446C47.8314 13.5286 47.7034 13.0539 47.7034 12.5206C47.7034 11.9339 47.8527 11.4379 48.1514 11.0326C48.4607 10.6273 48.8714 10.3179 49.3834 10.1046C49.8954 9.89128 50.4607 9.78461 51.0794 9.78461C51.4207 9.78461 51.7354 9.81128 52.0234 9.86461C52.322 9.90728 52.578 9.96061 52.7914 10.0246C53.0154 10.0886 53.1914 10.1579 53.3194 10.2326V9.80061C53.3194 9.26728 53.1274 8.84061 52.7434 8.52061C52.3594 8.20061 51.8634 8.04061 51.2554 8.04061C50.8394 8.04061 50.4447 8.13661 50.0714 8.32861C49.698 8.50994 49.3994 8.76061 49.1754 9.08061L47.9914 8.16861C48.226 7.83794 48.5087 7.55528 48.8394 7.32061C49.1807 7.08594 49.5594 6.90461 49.9754 6.77661C50.402 6.64861 50.8447 6.58461 51.3034 6.58461C52.4874 6.58461 53.3994 6.87794 54.0394 7.46461C54.6794 8.04061 54.9994 8.85128 54.9994 9.89661V15.0006H53.3194V13.9926H53.2234C53.0847 14.2059 52.8927 14.4086 52.6474 14.6006C52.4127 14.7926 52.13 14.9473 51.7994 15.0646C51.4794 15.1926 51.122 15.2566 50.7274 15.2566ZM51.0314 13.8486C51.4794 13.8486 51.874 13.7419 52.2154 13.5286C52.5674 13.3153 52.8394 13.0379 53.0314 12.6966C53.2234 12.3446 53.3194 11.9659 53.3194 11.5606C53.0847 11.4219 52.7967 11.3099 52.4554 11.2246C52.1247 11.1286 51.7727 11.0806 51.3994 11.0806C50.6954 11.0806 50.194 11.2193 49.8954 11.4966C49.5967 11.7739 49.4474 12.1206 49.4474 12.5366C49.4474 12.9206 49.5914 13.2353 49.8794 13.4806C50.1674 13.7259 50.5514 13.8486 51.0314 13.8486ZM57.0518 15.0006V6.84061H58.6838V7.96061H58.7798C59.0144 7.56594 59.3611 7.24061 59.8198 6.98461C60.2891 6.71794 60.8011 6.58461 61.3558 6.58461C62.3584 6.58461 63.1104 6.88328 63.6118 7.48061C64.1131 8.06728 64.3638 8.85661 64.3638 9.84861V15.0006H62.6518V10.0726C62.6518 9.41128 62.4864 8.93128 62.1558 8.63261C61.8251 8.32328 61.3931 8.16861 60.8598 8.16861C60.4438 8.16861 60.0811 8.28594 59.7718 8.52061C59.4624 8.74461 59.2171 9.04328 59.0358 9.41661C58.8651 9.78994 58.7798 10.1899 58.7798 10.6166V15.0006H57.0518ZM73.8554 15.2566C73.1194 15.2566 72.4527 15.0699 71.8554 14.6966C71.258 14.3233 70.7887 13.8113 70.4474 13.1606C70.106 12.5099 69.9354 11.7633 69.9354 10.9206C69.9354 10.0779 70.106 9.33128 70.4474 8.68061C70.7887 8.02994 71.258 7.51794 71.8554 7.14461C72.4527 6.77128 73.1194 6.58461 73.8554 6.58461C74.282 6.58461 74.666 6.64861 75.0074 6.77661C75.3487 6.90461 75.642 7.07528 75.8874 7.28861C76.1434 7.49128 76.3407 7.70994 76.4794 7.94461H76.5754L76.4794 6.80861V3.54461H78.1914V15.0006H76.5754V13.9126H76.4794C76.3407 14.1366 76.1434 14.3553 75.8874 14.5686C75.642 14.7713 75.3487 14.9366 75.0074 15.0646C74.666 15.1926 74.282 15.2566 73.8554 15.2566ZM74.1114 13.6726C74.538 13.6726 74.938 13.5606 75.3114 13.3366C75.6954 13.1126 75.9994 12.7979 76.2234 12.3926C76.458 11.9766 76.5754 11.4859 76.5754 10.9206C76.5754 10.3553 76.458 9.86994 76.2234 9.46461C75.9994 9.04861 75.6954 8.72861 75.3114 8.50461C74.938 8.28061 74.538 8.16861 74.1114 8.16861C73.6847 8.16861 73.2847 8.28061 72.9114 8.50461C72.538 8.72861 72.234 9.04861 71.9994 9.46461C71.7647 9.86994 71.6474 10.3553 71.6474 10.9206C71.6474 11.4753 71.7647 11.9606 71.9994 12.3766C72.234 12.7926 72.538 13.1126 72.9114 13.3366C73.2847 13.5606 73.6847 13.6726 74.1114 13.6726ZM84.0266 15.2566C83.2266 15.2566 82.512 15.0699 81.8826 14.6966C81.2533 14.3233 80.7573 13.8113 80.3946 13.1606C80.0426 12.5099 79.8666 11.7686 79.8666 10.9366C79.8666 10.1579 80.0373 9.43794 80.3786 8.77661C80.72 8.11528 81.1946 7.58728 81.8026 7.19261C82.4213 6.78728 83.1306 6.58461 83.9306 6.58461C84.7733 6.58461 85.488 6.76594 86.0746 7.12861C86.672 7.49128 87.1253 7.98728 87.4346 8.61661C87.744 9.24594 87.8986 9.95528 87.8986 10.7446C87.8986 10.8619 87.8933 10.9686 87.8826 11.0646C87.8826 11.1606 87.8773 11.2353 87.8666 11.2886H81.5626C81.6053 11.7366 81.7173 12.1259 81.8986 12.4566C82.1333 12.8726 82.4426 13.1873 82.8266 13.4006C83.2106 13.6139 83.6266 13.7206 84.0746 13.7206C84.6186 13.7206 85.072 13.5979 85.4346 13.3526C85.808 13.0966 86.1013 12.7819 86.3146 12.4086L87.7386 13.0966C87.3866 13.7366 86.9066 14.2593 86.2986 14.6646C85.6906 15.0593 84.9333 15.2566 84.0266 15.2566ZM81.6586 9.99261H86.1866C86.176 9.78994 86.1226 9.57661 86.0266 9.35261C85.9306 9.11794 85.792 8.90461 85.6106 8.71261C85.4293 8.52061 85.2 8.36594 84.9226 8.24861C84.6453 8.12061 84.32 8.05661 83.9466 8.05661C83.4773 8.05661 83.0613 8.17928 82.6986 8.42461C82.336 8.65928 82.0533 8.98994 81.8506 9.41661C81.7653 9.59794 81.7013 9.78994 81.6586 9.99261ZM89.6518 15.0006V6.84061H91.2838V7.96061H91.3798C91.6144 7.56594 91.9611 7.24061 92.4198 6.98461C92.8891 6.71794 93.4011 6.58461 93.9558 6.58461C94.9584 6.58461 95.7104 6.88328 96.2118 7.48061C96.7131 8.06728 96.9638 8.85661 96.9638 9.84861V15.0006H95.2518V10.0726C95.2518 9.41128 95.0864 8.93128 94.7558 8.63261C94.4251 8.32328 93.9931 8.16861 93.4598 8.16861C93.0438 8.16861 92.6811 8.28594 92.3718 8.52061C92.0624 8.74461 91.8171 9.04328 91.6358 9.41661C91.4651 9.78994 91.3798 10.1899 91.3798 10.6166V15.0006H89.6518ZM102.685 18.7126C101.97 18.7126 101.352 18.5953 100.829 18.3606C100.317 18.1366 99.9009 17.8433 99.5809 17.4806C99.2609 17.1286 99.0315 16.7659 98.8929 16.3926L100.493 15.7206C100.664 16.1473 100.936 16.4939 101.309 16.7606C101.693 17.0379 102.152 17.1766 102.685 17.1766C103.442 17.1766 104.034 16.9526 104.461 16.5046C104.888 16.0566 105.101 15.4219 105.101 14.6006V13.8166H105.005C104.749 14.1899 104.397 14.4939 103.949 14.7286C103.501 14.9633 102.984 15.0806 102.397 15.0806C101.704 15.0806 101.064 14.9046 100.477 14.5526C99.9009 14.2006 99.4369 13.7099 99.0849 13.0806C98.7435 12.4406 98.5729 11.6939 98.5729 10.8406C98.5729 9.97661 98.7435 9.22994 99.0849 8.60061C99.4369 7.96061 99.9009 7.46461 100.477 7.11261C101.064 6.76061 101.704 6.58461 102.397 6.58461C102.984 6.58461 103.501 6.70194 103.949 6.93661C104.397 7.16061 104.749 7.46994 105.005 7.86461H105.101V6.84061H106.749V14.5686C106.749 15.4539 106.573 16.2059 106.221 16.8246C105.88 17.4433 105.405 17.9126 104.797 18.2326C104.189 18.5526 103.485 18.7126 102.685 18.7126ZM102.701 13.5126C103.128 13.5126 103.522 13.4113 103.885 13.2086C104.258 12.9953 104.552 12.6913 104.765 12.2966C104.989 11.8913 105.101 11.4059 105.101 10.8406C105.101 10.2433 104.989 9.74728 104.765 9.35261C104.552 8.95794 104.258 8.65928 103.885 8.45661C103.522 8.25394 103.128 8.15261 102.701 8.15261C102.274 8.15261 101.874 8.25394 101.501 8.45661C101.138 8.65928 100.845 8.96328 100.621 9.36861C100.397 9.76328 100.285 10.2539 100.285 10.8406C100.285 11.4166 100.397 11.9073 100.621 12.3126C100.845 12.7073 101.138 13.0059 101.501 13.2086C101.874 13.4113 102.274 13.5126 102.701 13.5126ZM111.402 15.2566C110.816 15.2566 110.293 15.1393 109.834 14.9046C109.386 14.6699 109.029 14.3499 108.762 13.9446C108.506 13.5286 108.378 13.0539 108.378 12.5206C108.378 11.9339 108.528 11.4379 108.826 11.0326C109.136 10.6273 109.546 10.3179 110.058 10.1046C110.57 9.89128 111.136 9.78461 111.754 9.78461C112.096 9.78461 112.41 9.81128 112.698 9.86461C112.997 9.90728 113.253 9.96061 113.466 10.0246C113.69 10.0886 113.866 10.1579 113.994 10.2326V9.80061C113.994 9.26728 113.802 8.84061 113.418 8.52061C113.034 8.20061 112.538 8.04061 111.93 8.04061C111.514 8.04061 111.12 8.13661 110.746 8.32861C110.373 8.50994 110.074 8.76061 109.85 9.08061L108.666 8.16861C108.901 7.83794 109.184 7.55528 109.514 7.32061C109.856 7.08594 110.234 6.90461 110.65 6.77661C111.077 6.64861 111.52 6.58461 111.978 6.58461C113.162 6.58461 114.074 6.87794 114.714 7.46461C115.354 8.04061 115.674 8.85128 115.674 9.89661V15.0006H113.994V13.9926H113.898C113.76 14.2059 113.568 14.4086 113.322 14.6006C113.088 14.7926 112.805 14.9473 112.474 15.0646C112.154 15.1926 111.797 15.2566 111.402 15.2566ZM111.706 13.8486C112.154 13.8486 112.549 13.7419 112.89 13.5286C113.242 13.3153 113.514 13.0379 113.706 12.6966C113.898 12.3446 113.994 11.9659 113.994 11.5606C113.76 11.4219 113.472 11.3099 113.13 11.2246C112.8 11.1286 112.448 11.0806 112.074 11.0806C111.37 11.0806 110.869 11.2193 110.57 11.4966C110.272 11.7739 110.122 12.1206 110.122 12.5366C110.122 12.9206 110.266 13.2353 110.554 13.4806C110.842 13.7259 111.226 13.8486 111.706 13.8486ZM117.727 15.0006V6.84061H119.359V7.96061H119.455C119.689 7.56594 120.036 7.24061 120.495 6.98461C120.964 6.71794 121.476 6.58461 122.031 6.58461C123.033 6.58461 123.785 6.88328 124.287 7.48061C124.788 8.06728 125.039 8.85661 125.039 9.84861V15.0006H123.327V10.0726C123.327 9.41128 123.161 8.93128 122.831 8.63261C122.5 8.32328 122.068 8.16861 121.535 8.16861C121.119 8.16861 120.756 8.28594 120.447 8.52061C120.137 8.74461 119.892 9.04328 119.711 9.41661C119.54 9.78994 119.455 10.1899 119.455 10.6166V15.0006H117.727Z" fill="white"/>
<g id="GPay (Dark)">
<g id="GPay">
<g id="Pay">
<path id="Fill 1" fill-rule="evenodd" clip-rule="evenodd" d="M154.356 3.42339V8.16175H157.278C157.974 8.16175 158.55 7.92781 159.005 7.45993C159.473 6.99313 159.707 6.43644 159.707 5.79203C159.707 5.16061 159.473 4.61041 159.005 4.14254C158.55 3.66274 157.974 3.4223 157.278 3.4223H154.356V3.42339ZM154.356 9.82966V15.3262H152.611V1.75549H157.24C158.417 1.75549 159.415 2.14756 160.238 2.93061C161.073 3.71365 161.491 4.66782 161.491 5.79203C161.491 6.94224 161.073 7.90291 160.238 8.67296C159.428 9.44409 158.429 9.82858 157.24 9.82858H154.356V9.82966Z" fill="white"/>
<path id="Fill 3" fill-rule="evenodd" clip-rule="evenodd" d="M163.255 12.4831C163.255 12.9379 163.448 13.317 163.834 13.6203C164.22 13.9235 164.672 14.0752 165.19 14.0752C165.924 14.0752 166.578 13.8032 167.153 13.2607C167.729 12.717 168.017 12.0791 168.017 11.3469C167.472 10.917 166.713 10.7025 165.74 10.7025C165.031 10.7025 164.44 10.8736 163.966 11.2148C163.492 11.5559 163.255 11.9773 163.255 12.4831M165.513 5.73566C166.803 5.73566 167.821 6.08007 168.569 6.76889C169.314 7.45771 169.687 8.40213 169.687 9.60216V15.3261H168.018V14.0373H167.942C167.221 15.0985 166.259 15.6294 165.058 15.6294C164.033 15.6294 163.176 15.3261 162.487 14.7196C161.797 14.1131 161.453 13.3549 161.453 12.4452C161.453 11.4845 161.816 10.7208 162.543 10.1523C163.271 9.58375 164.241 9.2989 165.456 9.2989C166.492 9.2989 167.346 9.48844 168.017 9.86751V9.46894C168.017 8.86243 167.776 8.34798 167.296 7.92451C166.814 7.50103 166.252 7.28984 165.607 7.28984C164.633 7.28984 163.862 7.70032 163.293 8.52235L161.755 7.55519C162.603 6.34217 163.855 5.73566 165.513 5.73566" fill="white"/>
<path id="Fill 5" fill-rule="evenodd" clip-rule="evenodd" d="M179.269 6.03894L173.443 19.4201H171.641L173.804 14.738L169.971 6.03894H171.869L174.639 12.7106H174.677L177.371 6.03894H179.269Z" fill="white"/>
</g>
<g id="G">
<path id="Fill 8" fill-rule="evenodd" clip-rule="evenodd" d="M147.303 8.64473C147.303 8.09563 147.256 7.56601 147.168 7.05914H139.806V10.0625H144.023C143.842 11.0414 143.294 11.8744 142.464 12.4322V14.3828H144.98C146.454 13.0246 147.303 11.0177 147.303 8.64473" fill="#4285F4"/>
<path id="Fill 10" fill-rule="evenodd" clip-rule="evenodd" d="M139.806 16.2651C141.913 16.2651 143.687 15.5741 144.98 14.3828L142.464 12.4322C141.763 12.9033 140.861 13.1784 139.806 13.1784C137.77 13.1784 136.042 11.8073 135.424 9.95959H132.832V11.9687C134.116 14.516 136.757 16.2651 139.806 16.2651" fill="#34A853"/>
<path id="Fill 12" fill-rule="evenodd" clip-rule="evenodd" d="M135.424 9.9596C135.266 9.48847 135.179 8.98593 135.179 8.46715C135.179 7.94837 135.266 7.44583 135.424 6.9747V4.96564H132.832C132.3 6.01837 132 7.20756 132 8.46715C132 9.72674 132.3 10.916 132.832 11.9687L135.424 9.9596Z" fill="#FABB05"/>
<path id="Fill 14" fill-rule="evenodd" clip-rule="evenodd" d="M139.806 3.75583C140.957 3.75583 141.988 4.15115 142.801 4.92553V4.92661L145.029 2.70094C143.676 1.44243 141.912 0.669128 139.806 0.669128C136.757 0.669128 134.116 2.41826 132.832 4.9656L135.424 6.97467C136.042 5.12698 137.77 3.75583 139.806 3.75583" fill="#E94235"/>
</g>
</g>
</g>
</g>
</svg>
