<svg width="248" height="38" viewBox="0 0 248 38" fill="none" xmlns="http://www.w3.org/2000/svg">
<g id="ms_view_in_Dark">
<path id="Text" d="M3.61566 30V9.952H6.69566V27.088H15.3197V30H3.61566ZM19.9953 13.62C19.4353 13.62 18.95 13.424 18.5393 13.032C18.1473 12.6213 17.9513 12.136 17.9513 11.576C17.9513 11.016 18.1473 10.54 18.5393 10.148C18.95 9.756 19.4353 9.56 19.9953 9.56C20.5553 9.56 21.0313 9.756 21.4233 10.148C21.834 10.54 22.0393 11.016 22.0393 11.576C22.0393 12.136 21.834 12.6213 21.4233 13.032C21.0313 13.424 20.5553 13.62 19.9953 13.62ZM18.4833 30V15.72H21.5073V30H18.4833ZM25.5593 30V9.952H28.5833V15.44L28.4153 17.68H28.5833C28.9753 16.9893 29.5726 16.42 30.3753 15.972C31.1966 15.5053 32.102 15.272 33.0913 15.272C34.8646 15.272 36.1993 15.804 37.0953 16.868C37.9913 17.9133 38.4393 19.2853 38.4393 20.984V30H35.4433V21.376C35.4433 20.2187 35.1353 19.3787 34.5193 18.856C33.922 18.3147 33.1846 18.044 32.3073 18.044C31.5793 18.044 30.9353 18.2493 30.3753 18.66C29.8153 19.0707 29.3766 19.612 29.0593 20.284C28.742 20.9373 28.5833 21.6373 28.5833 22.384V30H25.5593ZM46.5268 30.448C45.5001 30.448 44.5855 30.252 43.7828 29.86C42.9801 29.4493 42.3548 28.88 41.9068 28.152C41.4588 27.424 41.2348 26.5933 41.2348 25.66C41.2348 24.652 41.4961 23.7933 42.0188 23.084C42.5601 22.356 43.2788 21.8053 44.1748 21.432C45.0708 21.0587 46.0601 20.872 47.1428 20.872C48.0388 20.872 48.8228 20.956 49.4948 21.124C50.1855 21.292 50.7081 21.4693 51.0628 21.656V20.9C51.0628 19.9667 50.7268 19.22 50.0548 18.66C49.3828 18.1 48.5148 17.82 47.4508 17.82C46.7228 17.82 46.0321 17.988 45.3788 18.324C44.7255 18.6413 44.2028 19.08 43.8108 19.64L41.7388 18.044C42.3548 17.1853 43.1668 16.5133 44.1748 16.028C45.2015 15.524 46.3215 15.272 47.5348 15.272C49.6068 15.272 51.2028 15.7853 52.3228 16.812C53.4428 17.82 54.0028 19.2387 54.0028 21.068V30H51.0628V28.236H50.8948C50.5215 28.8147 49.9615 29.328 49.2148 29.776C48.4681 30.224 47.5721 30.448 46.5268 30.448ZM47.0588 27.984C47.8428 27.984 48.5335 27.7973 49.1308 27.424C49.7281 27.0507 50.1948 26.5653 50.5308 25.968C50.8855 25.352 51.0628 24.6893 51.0628 23.98C50.6335 23.7373 50.1295 23.5413 49.5508 23.392C48.9721 23.224 48.3561 23.14 47.7028 23.14C46.4708 23.14 45.5935 23.392 45.0708 23.896C44.5481 24.3813 44.2868 24.9787 44.2868 25.688C44.2868 26.36 44.5388 26.9107 45.0428 27.34C45.5468 27.7693 46.2188 27.984 47.0588 27.984ZM58.8705 25.856V18.352H56.3785V15.72H58.8705V11.688H61.8945V15.72H65.3945V18.352H61.8945V25.212C61.8945 25.9213 62.0345 26.4627 62.3145 26.836C62.6132 27.2093 63.1079 27.396 63.7985 27.396C64.1532 27.396 64.4519 27.3493 64.6945 27.256C64.9559 27.1627 65.2172 27.032 65.4785 26.864V29.804C65.1612 29.9347 64.8252 30.0373 64.4705 30.112C64.1159 30.1867 63.6959 30.224 63.2105 30.224C61.8852 30.224 60.8305 29.8413 60.0465 29.076C59.2625 28.292 58.8705 27.2187 58.8705 25.856ZM81.5352 30.448C80.2472 30.448 79.0805 30.1307 78.0352 29.496C77.0085 28.8427 76.1872 27.9467 75.5712 26.808C74.9739 25.6507 74.6752 24.3347 74.6752 22.86C74.6752 21.3853 74.9739 20.0787 75.5712 18.94C76.1872 17.8013 77.0085 16.9053 78.0352 16.252C79.0805 15.5987 80.2472 15.272 81.5352 15.272C82.6365 15.272 83.5792 15.5147 84.3632 16C85.1659 16.4853 85.7539 17.036 86.1272 17.652H86.2952L86.1272 15.664V9.952H89.1232V30H86.2952V28.096H86.1272C85.7539 28.712 85.1659 29.2627 84.3632 29.748C83.5792 30.2147 82.6365 30.448 81.5352 30.448ZM81.9832 27.676C82.7299 27.676 83.4299 27.48 84.0832 27.088C84.7552 26.696 85.2872 26.1453 85.6792 25.436C86.0899 24.708 86.2952 23.8493 86.2952 22.86C86.2952 21.8707 86.0899 21.0213 85.6792 20.312C85.2872 19.584 84.7552 19.024 84.0832 18.632C83.4299 18.24 82.7299 18.044 81.9832 18.044C81.2365 18.044 80.5365 18.24 79.8832 18.632C79.2299 19.024 78.6979 19.584 78.2872 20.312C77.8765 21.0213 77.6712 21.8707 77.6712 22.86C77.6712 23.8493 77.8765 24.708 78.2872 25.436C78.6979 26.1453 79.2299 26.696 79.8832 27.088C80.5365 27.48 81.2365 27.676 81.9832 27.676ZM97.3284 30.448C96.3017 30.448 95.387 30.252 94.5844 29.86C93.7817 29.4493 93.1564 28.88 92.7084 28.152C92.2604 27.424 92.0364 26.5933 92.0364 25.66C92.0364 24.652 92.2977 23.7933 92.8204 23.084C93.3617 22.356 94.0804 21.8053 94.9764 21.432C95.8724 21.0587 96.8617 20.872 97.9444 20.872C98.8404 20.872 99.6244 20.956 100.296 21.124C100.987 21.292 101.51 21.4693 101.864 21.656V20.9C101.864 19.9667 101.528 19.22 100.856 18.66C100.184 18.1 99.3164 17.82 98.2524 17.82C97.5244 17.82 96.8337 17.988 96.1804 18.324C95.527 18.6413 95.0044 19.08 94.6124 19.64L92.5404 18.044C93.1564 17.1853 93.9684 16.5133 94.9764 16.028C96.003 15.524 97.123 15.272 98.3364 15.272C100.408 15.272 102.004 15.7853 103.124 16.812C104.244 17.82 104.804 19.2387 104.804 21.068V30H101.864V28.236H101.696C101.323 28.8147 100.763 29.328 100.016 29.776C99.2697 30.224 98.3737 30.448 97.3284 30.448ZM97.8604 27.984C98.6444 27.984 99.335 27.7973 99.9324 27.424C100.53 27.0507 100.996 26.5653 101.332 25.968C101.687 25.352 101.864 24.6893 101.864 23.98C101.435 23.7373 100.931 23.5413 100.352 23.392C99.7737 23.224 99.1577 23.14 98.5044 23.14C97.2724 23.14 96.395 23.392 95.8724 23.896C95.3497 24.3813 95.0884 24.9787 95.0884 25.688C95.0884 26.36 95.3404 26.9107 95.8444 27.34C96.3484 27.7693 97.0204 27.984 97.8604 27.984ZM108.462 30V9.952H111.486V30H108.462ZM119.694 30.448C118.667 30.448 117.753 30.252 116.95 29.86C116.147 29.4493 115.522 28.88 115.074 28.152C114.626 27.424 114.402 26.5933 114.402 25.66C114.402 24.652 114.663 23.7933 115.186 23.084C115.727 22.356 116.446 21.8053 117.342 21.432C118.238 21.0587 119.227 20.872 120.31 20.872C121.206 20.872 121.99 20.956 122.662 21.124C123.353 21.292 123.875 21.4693 124.23 21.656V20.9C124.23 19.9667 123.894 19.22 123.222 18.66C122.55 18.1 121.682 17.82 120.618 17.82C119.89 17.82 119.199 17.988 118.546 18.324C117.893 18.6413 117.37 19.08 116.978 19.64L114.906 18.044C115.522 17.1853 116.334 16.5133 117.342 16.028C118.369 15.524 119.489 15.272 120.702 15.272C122.774 15.272 124.37 15.7853 125.49 16.812C126.61 17.82 127.17 19.2387 127.17 21.068V30H124.23V28.236H124.062C123.689 28.8147 123.129 29.328 122.382 29.776C121.635 30.224 120.739 30.448 119.694 30.448ZM120.226 27.984C121.01 27.984 121.701 27.7973 122.298 27.424C122.895 27.0507 123.362 26.5653 123.698 25.968C124.053 25.352 124.23 24.6893 124.23 23.98C123.801 23.7373 123.297 23.5413 122.718 23.392C122.139 23.224 121.523 23.14 120.87 23.14C119.638 23.14 118.761 23.392 118.238 23.896C117.715 24.3813 117.454 24.9787 117.454 25.688C117.454 26.36 117.706 26.9107 118.21 27.34C118.714 27.7693 119.386 27.984 120.226 27.984ZM130.799 30V15.72H133.655V17.68H133.823C134.234 16.9893 134.831 16.42 135.615 15.972C136.399 15.5053 137.267 15.272 138.219 15.272C139.283 15.272 140.188 15.524 140.935 16.028C141.682 16.532 142.214 17.1667 142.531 17.932C142.998 17.1853 143.632 16.56 144.435 16.056C145.238 15.5333 146.218 15.272 147.375 15.272C149.055 15.272 150.306 15.7853 151.127 16.812C151.948 17.82 152.359 19.164 152.359 20.844V30H149.363V21.348C149.363 20.2093 149.111 19.3787 148.607 18.856C148.122 18.3147 147.44 18.044 146.563 18.044C145.872 18.044 145.266 18.24 144.743 18.632C144.22 19.0053 143.81 19.5187 143.511 20.172C143.231 20.8253 143.091 21.5533 143.091 22.356V30H140.095V21.348C140.095 20.2093 139.843 19.3787 139.339 18.856C138.835 18.3147 138.126 18.044 137.211 18.044C136.539 18.044 135.951 18.24 135.447 18.632C134.943 19.024 134.542 19.5467 134.243 20.2C133.963 20.8533 133.823 21.5813 133.823 22.384V30H130.799Z" fill="white"/>
<g id="GPay Logo (Dark)">
<g id="GPay">
<g id="Pay">
<path id="Fill 1" fill-rule="evenodd" clip-rule="evenodd" d="M204.529 9.34665V17.5128H209.565C210.765 17.5128 211.757 17.1096 212.541 16.3032C213.347 15.4988 213.75 14.5394 213.75 13.4288C213.75 12.3406 213.347 11.3924 212.541 10.586C211.757 9.75916 210.765 9.34479 209.565 9.34479H204.529V9.34665ZM204.529 20.3872V29.8599H201.521V6.47218H209.499C211.527 6.47218 213.248 7.14787 214.666 8.49738C216.105 9.84688 216.824 11.4913 216.824 13.4288C216.824 15.411 216.105 17.0667 214.666 18.3938C213.27 19.7227 211.547 20.3854 209.499 20.3854H204.529V20.3872Z" fill="white"/>
<path id="Fill 3" fill-rule="evenodd" clip-rule="evenodd" d="M219.864 24.9602C219.864 25.7442 220.197 26.3975 220.862 26.9201C221.527 27.4427 222.306 27.704 223.2 27.704C224.465 27.704 225.591 27.2354 226.584 26.3004C227.576 25.3634 228.071 24.264 228.071 23.0022C227.133 22.2612 225.825 21.8916 224.147 21.8916C222.925 21.8916 221.907 22.1866 221.09 22.7745C220.273 23.3623 219.864 24.0886 219.864 24.9602ZM223.756 13.3317C225.98 13.3317 227.735 13.9253 229.022 15.1124C230.308 16.2995 230.95 17.9271 230.95 19.9952V29.8599H228.073V27.6387H227.942C226.699 29.4677 225.042 30.3825 222.972 30.3825C221.206 30.3825 219.728 29.8599 218.541 28.8146C217.353 27.7694 216.759 26.4628 216.759 24.8949C216.759 23.2393 217.385 21.9232 218.638 20.9434C219.892 19.9635 221.565 19.4726 223.658 19.4726C225.444 19.4726 226.916 19.7993 228.071 20.4525V19.7657C228.071 18.7204 227.656 17.8338 226.829 17.104C225.999 16.3742 225.031 16.0102 223.919 16.0102C222.239 16.0102 220.911 16.7176 219.93 18.1343L217.28 16.4675C218.741 14.377 220.899 13.3317 223.756 13.3317Z" fill="white"/>
<path id="Fill 5" fill-rule="evenodd" clip-rule="evenodd" d="M247.463 13.8543L237.424 36.9154H234.318L238.046 28.8464L231.44 13.8543H234.71L239.484 25.3522H239.55L244.193 13.8543H247.463Z" fill="white"/>
</g>
<g id="G">
<path id="Fill 8" fill-rule="evenodd" clip-rule="evenodd" d="M192.373 18.3452C192.373 17.3989 192.293 16.4861 192.141 15.6126H179.454V20.7885H186.72C186.408 22.4757 185.465 23.9112 184.033 24.8725V28.2341H188.37C190.91 25.8935 192.373 22.4348 192.373 18.3452Z" fill="#4285F4"/>
<path id="Fill 10" fill-rule="evenodd" clip-rule="evenodd" d="M179.454 31.4782C183.084 31.4782 186.141 30.2873 188.37 28.2341L184.033 24.8725C182.826 25.6844 181.272 26.1585 179.454 26.1585C175.944 26.1585 172.966 23.7955 171.901 20.6112H167.433V24.0736C169.647 28.4637 174.197 31.4782 179.454 31.4782Z" fill="#34A853"/>
<path id="Fill 12" fill-rule="evenodd" clip-rule="evenodd" d="M171.901 20.6111C171.628 19.7992 171.479 18.9331 171.479 18.0391C171.479 17.145 171.628 16.2789 171.901 15.467V12.0045H167.433C166.518 13.8188 166 15.8683 166 18.0391C166 20.2098 166.518 22.2595 167.433 24.0736L171.901 20.6111Z" fill="#FABB05"/>
<path id="Fill 14" fill-rule="evenodd" clip-rule="evenodd" d="M179.454 9.91964C181.436 9.91964 183.213 10.6009 184.615 11.9355V11.9374L188.455 8.10163C186.123 5.93272 183.082 4.60001 179.454 4.60001C174.197 4.60001 169.647 7.61447 167.433 12.0046L171.901 15.467C172.966 12.2827 175.944 9.91964 179.454 9.91964Z" fill="#E94235"/>
</g>
</g>
</g>
</g>
</svg>
