<svg width="111" height="21" viewBox="0 0 111 21" fill="none" xmlns="http://www.w3.org/2000/svg">
<g id="sl_add_to_Pay_NBG">
<path id="Left Text" d="M1.44287 15.0006V3.54461H5.10687C6.31221 3.54461 7.34687 3.78994 8.21087 4.28061C9.08554 4.76061 9.75754 5.43261 10.2269 6.29661C10.7069 7.16061 10.9469 8.15261 10.9469 9.27261C10.9469 10.3926 10.7069 11.3846 10.2269 12.2486C9.75754 13.1126 9.08554 13.7899 8.21087 14.2806C7.34687 14.7606 6.31221 15.0006 5.10687 15.0006H1.44287ZM3.20287 13.3366H5.05887C5.92287 13.3366 6.66421 13.1766 7.28287 12.8566C7.90154 12.5259 8.37087 12.0566 8.69087 11.4486C9.01087 10.8406 9.17087 10.1153 9.17087 9.27261C9.17087 8.42994 9.01087 7.70461 8.69087 7.09661C8.37087 6.48861 7.90154 6.02461 7.28287 5.70461C6.66421 5.37394 5.92287 5.20861 5.05887 5.20861H3.20287V13.3366ZM16.4261 15.2566C15.5835 15.2566 14.8421 15.0646 14.2021 14.6806C13.5621 14.2966 13.0608 13.7793 12.6981 13.1286C12.3355 12.4673 12.1541 11.7313 12.1541 10.9206C12.1541 10.1099 12.3355 9.37928 12.6981 8.72861C13.0608 8.06728 13.5621 7.54461 14.2021 7.16061C14.8421 6.77661 15.5835 6.58461 16.4261 6.58461C17.2581 6.58461 17.9941 6.78194 18.6341 7.17661C19.2741 7.56061 19.7755 8.07794 20.1381 8.72861C20.5008 9.37928 20.6821 10.1099 20.6821 10.9206C20.6821 11.7313 20.5008 12.4673 20.1381 13.1286C19.7755 13.7793 19.2741 14.2966 18.6341 14.6806C17.9941 15.0646 17.2581 15.2566 16.4261 15.2566ZM16.4261 13.6726C16.8741 13.6726 17.2901 13.5659 17.6741 13.3526C18.0581 13.1286 18.3675 12.8139 18.6021 12.4086C18.8475 11.9926 18.9701 11.4966 18.9701 10.9206C18.9701 10.3446 18.8475 9.85394 18.6021 9.44861C18.3675 9.03261 18.0581 8.71794 17.6741 8.50461C17.2901 8.28061 16.8741 8.16861 16.4261 8.16861C15.9781 8.16861 15.5568 8.28061 15.1621 8.50461C14.7781 8.71794 14.4635 9.03261 14.2181 9.44861C13.9835 9.85394 13.8661 10.3446 13.8661 10.9206C13.8661 11.4966 13.9835 11.9926 14.2181 12.4086C14.4635 12.8139 14.7835 13.1286 15.1781 13.3526C15.5728 13.5659 15.9888 13.6726 16.4261 13.6726ZM25.9116 15.2566C25.1756 15.2566 24.509 15.0699 23.9116 14.6966C23.3143 14.3233 22.845 13.8113 22.5036 13.1606C22.1623 12.5099 21.9916 11.7633 21.9916 10.9206C21.9916 10.0779 22.1623 9.33128 22.5036 8.68061C22.845 8.02994 23.3143 7.51794 23.9116 7.14461C24.509 6.77128 25.1756 6.58461 25.9116 6.58461C26.3383 6.58461 26.7223 6.64861 27.0636 6.77661C27.405 6.90461 27.6983 7.07528 27.9436 7.28861C28.1996 7.49128 28.397 7.70994 28.5356 7.94461H28.6316L28.5356 6.80861V3.54461H30.2476V15.0006H28.6316V13.9126H28.5356C28.397 14.1366 28.1996 14.3553 27.9436 14.5686C27.6983 14.7713 27.405 14.9366 27.0636 15.0646C26.7223 15.1926 26.3383 15.2566 25.9116 15.2566ZM26.1676 13.6726C26.5943 13.6726 26.9943 13.5606 27.3676 13.3366C27.7516 13.1126 28.0556 12.7979 28.2796 12.3926C28.5143 11.9766 28.6316 11.4859 28.6316 10.9206C28.6316 10.3553 28.5143 9.86994 28.2796 9.46461C28.0556 9.04861 27.7516 8.72861 27.3676 8.50461C26.9943 8.28061 26.5943 8.16861 26.1676 8.16861C25.741 8.16861 25.341 8.28061 24.9676 8.50461C24.5943 8.72861 24.2903 9.04861 24.0556 9.46461C23.821 9.86994 23.7036 10.3553 23.7036 10.9206C23.7036 11.4753 23.821 11.9606 24.0556 12.3766C24.2903 12.7926 24.5943 13.1126 24.9676 13.3366C25.341 13.5606 25.741 13.6726 26.1676 13.6726ZM34.9149 15.2566C34.3282 15.2566 33.8055 15.1393 33.3469 14.9046C32.8989 14.6699 32.5415 14.3499 32.2749 13.9446C32.0189 13.5286 31.8909 13.0539 31.8909 12.5206C31.8909 11.9339 32.0402 11.4379 32.3389 11.0326C32.6482 10.6273 33.0589 10.3179 33.5709 10.1046C34.0829 9.89128 34.6482 9.78461 35.2669 9.78461C35.6082 9.78461 35.9229 9.81128 36.2109 9.86461C36.5095 9.90728 36.7655 9.96061 36.9789 10.0246C37.2029 10.0886 37.3789 10.1579 37.5069 10.2326V9.80061C37.5069 9.26728 37.3149 8.84061 36.9309 8.52061C36.5469 8.20061 36.0509 8.04061 35.4429 8.04061C35.0269 8.04061 34.6322 8.13661 34.2589 8.32861C33.8855 8.50994 33.5869 8.76061 33.3629 9.08061L32.1789 8.16861C32.4135 7.83794 32.6962 7.55528 33.0269 7.32061C33.3682 7.08594 33.7469 6.90461 34.1629 6.77661C34.5895 6.64861 35.0322 6.58461 35.4909 6.58461C36.6749 6.58461 37.5869 6.87794 38.2269 7.46461C38.8669 8.04061 39.1869 8.85128 39.1869 9.89661V15.0006H37.5069V13.9926H37.4109C37.2722 14.2059 37.0802 14.4086 36.8349 14.6006C36.6002 14.7926 36.3175 14.9473 35.9869 15.0646C35.6669 15.1926 35.3095 15.2566 34.9149 15.2566ZM35.2189 13.8486C35.6669 13.8486 36.0615 13.7419 36.4029 13.5286C36.7549 13.3153 37.0269 13.0379 37.2189 12.6966C37.4109 12.3446 37.5069 11.9659 37.5069 11.5606C37.2722 11.4219 36.9842 11.3099 36.6429 11.2246C36.3122 11.1286 35.9602 11.0806 35.5869 11.0806C34.8829 11.0806 34.3815 11.2193 34.0829 11.4966C33.7842 11.7739 33.6349 12.1206 33.6349 12.5366C33.6349 12.9206 33.7789 13.2353 34.0669 13.4806C34.3549 13.7259 34.7389 13.8486 35.2189 13.8486ZM40.6792 18.6166C40.5086 18.6166 40.3539 18.6059 40.2152 18.5846C40.0659 18.5633 39.9219 18.5366 39.7832 18.5046V16.8406C39.8792 16.8939 39.9966 16.9419 40.1352 16.9846C40.2739 17.0273 40.4072 17.0486 40.5352 17.0486C40.8339 17.0486 41.0472 16.9526 41.1752 16.7606C41.3032 16.5793 41.3672 16.3126 41.3672 15.9606V6.84061H43.0952V15.9766C43.0952 16.6059 42.9886 17.1126 42.7752 17.4966C42.5726 17.8806 42.2899 18.1633 41.9272 18.3446C41.5646 18.5259 41.1486 18.6166 40.6792 18.6166ZM42.2312 5.64061C41.9112 5.64061 41.6339 5.52861 41.3992 5.30461C41.1752 5.06994 41.0632 4.79261 41.0632 4.47261C41.0632 4.14194 41.1752 3.86994 41.3992 3.65661C41.6339 3.43261 41.9112 3.32061 42.2312 3.32061C42.5619 3.32061 42.8392 3.43261 43.0632 3.65661C43.2872 3.86994 43.3992 4.14194 43.3992 4.47261C43.3992 4.79261 43.2872 5.06994 43.0632 5.30461C42.8392 5.52861 42.5619 5.64061 42.2312 5.64061ZM51.7536 15.0006L48.3776 6.84061H50.2976L52.5856 12.7766H52.6656L55.0016 6.84061H56.8896L53.4816 15.0006H51.7536Z" fill="white"/>
<g id="GPay (Dark)">
<g id="GPay">
<g id="Pay">
<path id="Fill 1" fill-rule="evenodd" clip-rule="evenodd" d="M85.3563 3.42339V8.16175H88.2784C88.9745 8.16175 89.5501 7.92781 90.0055 7.45993C90.4728 6.99313 90.707 6.43644 90.707 5.79203C90.707 5.16061 90.4728 4.61041 90.0055 4.14254C89.5501 3.66274 88.9745 3.4223 88.2784 3.4223H85.3563V3.42339ZM85.3563 9.82966V15.3262H83.6107V1.75549H88.2404C89.4169 1.75549 90.4154 2.14756 91.2383 2.93061C92.0732 3.71365 92.4906 4.66782 92.4906 5.79203C92.4906 6.94224 92.0731 7.90291 91.2383 8.67296C90.4283 9.44409 89.4287 9.82858 88.2404 9.82858H85.3563V9.82966Z" fill="white"/>
<path id="Fill 3" fill-rule="evenodd" clip-rule="evenodd" d="M94.2546 12.4831C94.2546 12.9379 94.4476 13.317 94.8337 13.6203C95.2195 13.9235 95.6717 14.0752 96.19 14.0752C96.9239 14.0752 97.5777 13.8032 98.1535 13.2607C98.7293 12.717 99.0165 12.0791 99.0165 11.3469C98.4722 10.917 97.7133 10.7025 96.7396 10.7025C96.0306 10.7025 95.4397 10.8736 94.9659 11.2148C94.492 11.5559 94.2546 11.9773 94.2546 12.4831M96.513 5.73566C97.8033 5.73566 98.8214 6.08007 99.5685 6.76889C100.314 7.45771 100.687 8.40213 100.687 9.60216V15.3261H99.0177V14.0373H98.9417C98.2207 15.0985 97.259 15.6294 96.0578 15.6294C95.0332 15.6294 94.1755 15.3261 93.4869 14.7196C92.7975 14.1131 92.4527 13.3549 92.4527 12.4452C92.4527 11.4845 92.8158 10.7208 93.5433 10.1523C94.2708 9.58375 95.2413 9.2989 96.4557 9.2989C97.4921 9.2989 98.3465 9.48844 99.0165 9.86751V9.46894C99.0165 8.86243 98.7758 8.34798 98.2956 7.92451C97.8141 7.50103 97.2525 7.28984 96.6074 7.28984C95.6326 7.28984 94.8618 7.70032 94.2926 8.52235L92.7551 7.55519C93.6029 6.34217 94.8552 5.73566 96.513 5.73566" fill="white"/>
<path id="Fill 5" fill-rule="evenodd" clip-rule="evenodd" d="M110.269 6.03894L104.443 19.4201H102.641L104.804 14.738L100.971 6.03894H102.869L105.639 12.7106H105.677L108.371 6.03894H110.269Z" fill="white"/>
</g>
<g id="G">
<path id="Fill 8" fill-rule="evenodd" clip-rule="evenodd" d="M78.3029 8.64473C78.3029 8.09563 78.2562 7.56601 78.1684 7.05914H70.8065V10.0625H75.0231C74.842 11.0414 74.2944 11.8744 73.4639 12.4322V14.3828H75.9804C77.4539 13.0246 78.3029 11.0177 78.3029 8.64473" fill="#4285F4"/>
<path id="Fill 10" fill-rule="evenodd" clip-rule="evenodd" d="M70.8065 16.2651C72.9131 16.2651 74.6869 15.5741 75.9804 14.3828L73.4639 12.4322C72.7635 12.9033 71.8614 13.1784 70.8065 13.1784C68.7703 13.1784 67.042 11.8073 66.424 9.95959H63.8316V11.9687C65.1164 14.516 67.7565 16.2651 70.8065 16.2651" fill="#34A853"/>
<path id="Fill 12" fill-rule="evenodd" clip-rule="evenodd" d="M66.424 9.9596C66.2657 9.48847 66.179 8.98593 66.179 8.46715C66.179 7.94837 66.2657 7.44583 66.424 6.9747V4.96564H63.8316C63.3003 6.01837 63 7.20756 63 8.46715C63 9.72674 63.3003 10.916 63.8316 11.9687L66.424 9.9596Z" fill="#FABB05"/>
<path id="Fill 14" fill-rule="evenodd" clip-rule="evenodd" d="M70.8065 3.75583C71.9568 3.75583 72.9879 4.15115 73.8011 4.92553V4.92661L76.0292 2.70094C74.6761 1.44243 72.912 0.669128 70.8065 0.669128C67.7565 0.669128 65.1164 2.41826 63.8316 4.9656L66.424 6.97467C67.042 5.12698 68.7703 3.75583 70.8065 3.75583" fill="#E94235"/>
</g>
</g>
</g>
</g>
</svg>
