<svg width="225" height="21" viewBox="0 0 225 21" fill="none" xmlns="http://www.w3.org/2000/svg">
<g id="sl_book_with_Pay_NBG">
<path id="Left Text" d="M2.0335 15.0006V3.54461H6.0495C6.7535 3.54461 7.38284 3.69394 7.9375 3.99261C8.49217 4.29128 8.9295 4.70194 9.2495 5.22461C9.58017 5.74728 9.7455 6.35528 9.7455 7.04861C9.7455 7.50728 9.6495 7.94461 9.4575 8.36061C9.27617 8.77661 9.0095 9.14994 8.6575 9.48061C8.31617 9.80061 7.90017 10.0513 7.4095 10.2326C7.3135 10.2753 7.21217 10.3073 7.1055 10.3286L10.2735 14.9046V15.0006H8.2415L5.1855 10.5046H3.7935V15.0006H2.0335ZM3.7935 8.88861H6.0015C6.36417 8.88861 6.6895 8.80861 6.9775 8.64861C7.27617 8.48861 7.51617 8.26994 7.6975 7.99261C7.87884 7.70461 7.9695 7.38461 7.9695 7.03261C7.9695 6.72328 7.89484 6.42994 7.7455 6.15261C7.59617 5.86461 7.3775 5.63528 7.0895 5.46461C6.81217 5.28328 6.47084 5.19261 6.0655 5.19261H3.7935V8.88861ZM15.2329 15.2566C14.4329 15.2566 13.7182 15.0699 13.0889 14.6966C12.4595 14.3233 11.9635 13.8113 11.6009 13.1606C11.2489 12.5099 11.0729 11.7686 11.0729 10.9366C11.0729 10.1579 11.2435 9.43794 11.5849 8.77661C11.9262 8.11528 12.4009 7.58728 13.0089 7.19261C13.6275 6.78728 14.3369 6.58461 15.1369 6.58461C15.9795 6.58461 16.6942 6.76594 17.2809 7.12861C17.8782 7.49128 18.3315 7.98728 18.6409 8.61661C18.9502 9.24594 19.1049 9.95528 19.1049 10.7446C19.1049 10.8619 19.0995 10.9686 19.0889 11.0646C19.0889 11.1606 19.0835 11.2353 19.0729 11.2886H12.7689C12.8115 11.7366 12.9235 12.1259 13.1049 12.4566C13.3395 12.8726 13.6489 13.1873 14.0329 13.4006C14.4169 13.6139 14.8329 13.7206 15.2809 13.7206C15.8249 13.7206 16.2782 13.5979 16.6409 13.3526C17.0142 13.0966 17.3075 12.7819 17.5209 12.4086L18.9449 13.0966C18.5929 13.7366 18.1129 14.2593 17.5049 14.6646C16.8969 15.0593 16.1395 15.2566 15.2329 15.2566ZM12.8649 9.99261H17.3929C17.3822 9.78994 17.3289 9.57661 17.2329 9.35261C17.1369 9.11794 16.9982 8.90461 16.8169 8.71261C16.6355 8.52061 16.4062 8.36594 16.1289 8.24861C15.8515 8.12061 15.5262 8.05661 15.1529 8.05661C14.6835 8.05661 14.2675 8.17928 13.9049 8.42461C13.5422 8.65928 13.2595 8.98994 13.0569 9.41661C12.9715 9.59794 12.9075 9.78994 12.8649 9.99261ZM20.3639 15.0006V13.5606L24.9079 8.34461H20.5079V6.84061H27.0199V8.28061L22.4919 13.4966H27.1479V15.0006H20.3639ZM32.486 15.2566C31.686 15.2566 30.9713 15.0699 30.342 14.6966C29.7127 14.3233 29.2167 13.8113 28.854 13.1606C28.502 12.5099 28.326 11.7686 28.326 10.9366C28.326 10.1579 28.4967 9.43794 28.838 8.77661C29.1793 8.11528 29.654 7.58728 30.262 7.19261C30.8807 6.78728 31.59 6.58461 32.39 6.58461C33.2327 6.58461 33.9473 6.76594 34.534 7.12861C35.1313 7.49128 35.5847 7.98728 35.894 8.61661C36.2033 9.24594 36.358 9.95528 36.358 10.7446C36.358 10.8619 36.3527 10.9686 36.342 11.0646C36.342 11.1606 36.3367 11.2353 36.326 11.2886H30.022C30.0647 11.7366 30.1767 12.1259 30.358 12.4566C30.5927 12.8726 30.902 13.1873 31.286 13.4006C31.67 13.6139 32.086 13.7206 32.534 13.7206C33.078 13.7206 33.5313 13.5979 33.894 13.3526C34.2673 13.0966 34.5607 12.7819 34.774 12.4086L36.198 13.0966C35.846 13.7366 35.366 14.2593 34.758 14.6646C34.15 15.0593 33.3927 15.2566 32.486 15.2566ZM30.118 9.99261H34.646C34.6353 9.78994 34.582 9.57661 34.486 9.35261C34.39 9.11794 34.2513 8.90461 34.07 8.71261C33.8887 8.52061 33.6593 8.36594 33.382 8.24861C33.1047 8.12061 32.7793 8.05661 32.406 8.05661C31.9367 8.05661 31.5207 8.17928 31.158 8.42461C30.7953 8.65928 30.5127 8.98994 30.31 9.41661C30.2247 9.59794 30.1607 9.78994 30.118 9.99261ZM38.1111 15.0006V6.84061H39.7431V8.04061H39.8391C39.9671 7.76328 40.1485 7.51794 40.3831 7.30461C40.6285 7.09128 40.9058 6.92061 41.2151 6.79261C41.5351 6.66461 41.8658 6.60061 42.2071 6.60061C42.4311 6.60061 42.6178 6.61661 42.7671 6.64861C42.9271 6.66994 43.0711 6.70728 43.1991 6.76061V8.55261C42.9965 8.46728 42.7885 8.39794 42.5751 8.34461C42.3725 8.29128 42.1591 8.26461 41.9351 8.26461C41.5298 8.26461 41.1671 8.37661 40.8471 8.60061C40.5378 8.81394 40.2925 9.10194 40.1111 9.46461C39.9298 9.82728 39.8391 10.2326 39.8391 10.6806V15.0006H38.1111ZM47.4286 15.0006L44.0526 6.84061H45.9726L48.2606 12.7766H48.3406L50.6766 6.84061H52.5646L49.1566 15.0006H47.4286ZM56.2368 15.2566C55.6501 15.2566 55.1274 15.1393 54.6688 14.9046C54.2208 14.6699 53.8634 14.3499 53.5968 13.9446C53.3408 13.5286 53.2128 13.0539 53.2128 12.5206C53.2128 11.9339 53.3621 11.4379 53.6608 11.0326C53.9701 10.6273 54.3808 10.3179 54.8928 10.1046C55.4048 9.89128 55.9701 9.78461 56.5888 9.78461C56.9301 9.78461 57.2448 9.81128 57.5328 9.86461C57.8314 9.90728 58.0874 9.96061 58.3008 10.0246C58.5248 10.0886 58.7008 10.1579 58.8288 10.2326V9.80061C58.8288 9.26728 58.6368 8.84061 58.2528 8.52061C57.8688 8.20061 57.3728 8.04061 56.7648 8.04061C56.3488 8.04061 55.9541 8.13661 55.5808 8.32861C55.2074 8.50994 54.9088 8.76061 54.6848 9.08061L53.5008 8.16861C53.7354 7.83794 54.0181 7.55528 54.3488 7.32061C54.6901 7.08594 55.0688 6.90461 55.4848 6.77661C55.9114 6.64861 56.3541 6.58461 56.8128 6.58461C57.9968 6.58461 58.9088 6.87794 59.5488 7.46461C60.1888 8.04061 60.5088 8.85128 60.5088 9.89661V15.0006H58.8288V13.9926H58.7328C58.5941 14.2059 58.4021 14.4086 58.1568 14.6006C57.9221 14.7926 57.6394 14.9473 57.3088 15.0646C56.9888 15.1926 56.6314 15.2566 56.2368 15.2566ZM56.5408 13.8486C56.9888 13.8486 57.3834 13.7419 57.7248 13.5286C58.0768 13.3153 58.3488 13.0379 58.5408 12.6966C58.7328 12.3446 58.8288 11.9659 58.8288 11.5606C58.5941 11.4219 58.3061 11.3099 57.9648 11.2246C57.6341 11.1286 57.2821 11.0806 56.9088 11.0806C56.2048 11.0806 55.7034 11.2193 55.4048 11.4966C55.1061 11.7739 54.9568 12.1206 54.9568 12.5366C54.9568 12.9206 55.1008 13.2353 55.3888 13.4806C55.6768 13.7259 56.0608 13.8486 56.5408 13.8486ZM66.259 15.2566C65.4377 15.2566 64.707 15.0699 64.067 14.6966C63.4377 14.3233 62.9417 13.8113 62.579 13.1606C62.227 12.4993 62.051 11.7526 62.051 10.9206C62.051 10.0886 62.227 9.34728 62.579 8.69661C62.9417 8.04594 63.4377 7.53394 64.067 7.16061C64.707 6.77661 65.4377 6.58461 66.259 6.58461C67.1657 6.58461 67.9283 6.78728 68.547 7.19261C69.1763 7.59794 69.6243 8.14728 69.891 8.84061L68.323 9.48061C68.131 9.04328 67.8537 8.71794 67.491 8.50461C67.139 8.28061 66.7177 8.16861 66.227 8.16861C65.779 8.16861 65.3683 8.28594 64.995 8.52061C64.6217 8.74461 64.323 9.05928 64.099 9.46461C63.875 9.86994 63.763 10.3553 63.763 10.9206C63.763 11.4753 63.875 11.9606 64.099 12.3766C64.323 12.7926 64.6217 13.1126 64.995 13.3366C65.3683 13.5606 65.779 13.6726 66.227 13.6726C66.7497 13.6726 67.1923 13.5553 67.555 13.3206C67.9177 13.0859 68.2003 12.7553 68.403 12.3286L69.939 13.0006C69.6403 13.6513 69.1763 14.1899 68.547 14.6166C67.9283 15.0433 67.1657 15.2566 66.259 15.2566ZM71.6985 15.0006V6.84061H73.4265V15.0006H71.6985ZM72.5625 5.64061C72.2425 5.64061 71.9652 5.52861 71.7305 5.30461C71.5065 5.06994 71.3945 4.79261 71.3945 4.47261C71.3945 4.14194 71.5065 3.86994 71.7305 3.65661C71.9652 3.43261 72.2425 3.32061 72.5625 3.32061C72.8932 3.32061 73.1705 3.43261 73.3945 3.65661C73.6185 3.86994 73.7305 4.14194 73.7305 4.47261C73.7305 4.79261 73.6185 5.06994 73.3945 5.30461C73.1705 5.52861 72.8932 5.64061 72.5625 5.64061ZM75.1605 18.6166C74.9898 18.6166 74.8352 18.6059 74.6965 18.5846C74.5472 18.5633 74.4032 18.5366 74.2645 18.5046V16.8406C74.3605 16.8939 74.4778 16.9419 74.6165 16.9846C74.7552 17.0273 74.8885 17.0486 75.0165 17.0486C75.3152 17.0486 75.5285 16.9526 75.6565 16.7606C75.7845 16.5793 75.8485 16.3126 75.8485 15.9606V6.84061H77.5765V15.9766C77.5765 16.6059 77.4698 17.1126 77.2565 17.4966C77.0538 17.8806 76.7712 18.1633 76.4085 18.3446C76.0458 18.5259 75.6298 18.6166 75.1605 18.6166ZM76.7125 5.64061C76.3925 5.64061 76.1152 5.52861 75.8805 5.30461C75.6565 5.06994 75.5445 4.79261 75.5445 4.47261C75.5445 4.14194 75.6565 3.86994 75.8805 3.65661C76.1152 3.43261 76.3925 3.32061 76.7125 3.32061C77.0432 3.32061 77.3205 3.43261 77.5445 3.65661C77.7685 3.86994 77.8805 4.14194 77.8805 4.47261C77.8805 4.79261 77.7685 5.06994 77.5445 5.30461C77.3205 5.52861 77.0432 5.64061 76.7125 5.64061ZM82.3524 15.2566C81.7657 15.2566 81.243 15.1393 80.7844 14.9046C80.3364 14.6699 79.979 14.3499 79.7124 13.9446C79.4564 13.5286 79.3284 13.0539 79.3284 12.5206C79.3284 11.9339 79.4777 11.4379 79.7764 11.0326C80.0857 10.6273 80.4964 10.3179 81.0084 10.1046C81.5204 9.89128 82.0857 9.78461 82.7044 9.78461C83.0457 9.78461 83.3604 9.81128 83.6484 9.86461C83.947 9.90728 84.203 9.96061 84.4164 10.0246C84.6404 10.0886 84.8164 10.1579 84.9444 10.2326V9.80061C84.9444 9.26728 84.7524 8.84061 84.3684 8.52061C83.9844 8.20061 83.4884 8.04061 82.8804 8.04061C82.4644 8.04061 82.0697 8.13661 81.6964 8.32861C81.323 8.50994 81.0244 8.76061 80.8004 9.08061L79.6164 8.16861C79.851 7.83794 80.1337 7.55528 80.4644 7.32061C80.8057 7.08594 81.1844 6.90461 81.6004 6.77661C82.027 6.64861 82.4697 6.58461 82.9284 6.58461C84.1124 6.58461 85.0244 6.87794 85.6644 7.46461C86.3044 8.04061 86.6244 8.85128 86.6244 9.89661V15.0006H84.9444V13.9926H84.8484C84.7097 14.2059 84.5177 14.4086 84.2724 14.6006C84.0377 14.7926 83.755 14.9473 83.4244 15.0646C83.1044 15.1926 82.747 15.2566 82.3524 15.2566ZM82.6564 13.8486C83.1044 13.8486 83.499 13.7419 83.8404 13.5286C84.1924 13.3153 84.4644 13.0379 84.6564 12.6966C84.8484 12.3446 84.9444 11.9659 84.9444 11.5606C84.7097 11.4219 84.4217 11.3099 84.0804 11.2246C83.7497 11.1286 83.3977 11.0806 83.0244 11.0806C82.3204 11.0806 81.819 11.2193 81.5204 11.4966C81.2217 11.7739 81.0724 12.1206 81.0724 12.5366C81.0724 12.9206 81.2164 13.2353 81.5044 13.4806C81.7924 13.7259 82.1764 13.8486 82.6564 13.8486ZM95.5371 15.2566C94.8865 15.2566 94.3211 15.1606 93.8411 14.9686C93.3611 14.7659 92.9665 14.4993 92.6571 14.1686C92.3478 13.8273 92.1185 13.4593 91.9691 13.0646L93.5211 12.3926C93.7131 12.8299 93.9851 13.1659 94.3371 13.4006C94.6998 13.6246 95.1158 13.7366 95.5851 13.7366C96.0118 13.7366 96.3798 13.6619 96.6891 13.5126C96.9985 13.3526 97.1531 13.0966 97.1531 12.7446C97.1531 12.5206 97.0785 12.3393 96.9291 12.2006C96.7905 12.0513 96.5985 11.9286 96.3531 11.8326C96.1185 11.7366 95.8465 11.6513 95.5371 11.5766L94.5611 11.3526C94.1771 11.2566 93.8091 11.1073 93.4571 10.9046C93.1158 10.6913 92.8385 10.4246 92.6251 10.1046C92.4118 9.78461 92.3051 9.40594 92.3051 8.96861C92.3051 8.47794 92.4438 8.05661 92.7211 7.70461C93.0091 7.34194 93.3931 7.06461 93.8731 6.87261C94.3531 6.68061 94.8705 6.58461 95.4251 6.58461C95.9371 6.58461 96.4011 6.65394 96.8171 6.79261C97.2438 6.92061 97.6118 7.11794 97.9211 7.38461C98.2411 7.64061 98.4918 7.96061 98.6731 8.34461L97.1851 9.01661C97.0038 8.65394 96.7585 8.40328 96.4491 8.26461C96.1398 8.11528 95.8038 8.04061 95.4411 8.04061C95.0358 8.04061 94.6945 8.12594 94.4171 8.29661C94.1505 8.45661 94.0171 8.66994 94.0171 8.93661C94.0171 9.21394 94.1345 9.43261 94.3691 9.59261C94.6145 9.75261 94.9131 9.88061 95.2651 9.97661L96.4491 10.2646C97.2598 10.4673 97.8678 10.7766 98.2731 11.1926C98.6785 11.5979 98.8811 12.0939 98.8811 12.6806C98.8811 13.2033 98.7318 13.6619 98.4331 14.0566C98.1345 14.4406 97.7291 14.7393 97.2171 14.9526C96.7158 15.1553 96.1558 15.2566 95.5371 15.2566ZM107.4 15.2566C106.749 15.2566 106.184 15.1606 105.704 14.9686C105.224 14.7659 104.829 14.4993 104.52 14.1686C104.21 13.8273 103.981 13.4593 103.832 13.0646L105.384 12.3926C105.576 12.8299 105.848 13.1659 106.2 13.4006C106.562 13.6246 106.978 13.7366 107.448 13.7366C107.874 13.7366 108.242 13.6619 108.552 13.5126C108.861 13.3526 109.016 13.0966 109.016 12.7446C109.016 12.5206 108.941 12.3393 108.792 12.2006C108.653 12.0513 108.461 11.9286 108.216 11.8326C107.981 11.7366 107.709 11.6513 107.4 11.5766L106.424 11.3526C106.04 11.2566 105.672 11.1073 105.32 10.9046C104.978 10.6913 104.701 10.4246 104.488 10.1046C104.274 9.78461 104.168 9.40594 104.168 8.96861C104.168 8.47794 104.306 8.05661 104.584 7.70461C104.872 7.34194 105.256 7.06461 105.736 6.87261C106.216 6.68061 106.733 6.58461 107.288 6.58461C107.8 6.58461 108.264 6.65394 108.68 6.79261C109.106 6.92061 109.474 7.11794 109.784 7.38461C110.104 7.64061 110.354 7.96061 110.536 8.34461L109.048 9.01661C108.866 8.65394 108.621 8.40328 108.312 8.26461C108.002 8.11528 107.666 8.04061 107.304 8.04061C106.898 8.04061 106.557 8.12594 106.28 8.29661C106.013 8.45661 105.88 8.66994 105.88 8.93661C105.88 9.21394 105.997 9.43261 106.232 9.59261C106.477 9.75261 106.776 9.88061 107.128 9.97661L108.312 10.2646C109.122 10.4673 109.73 10.7766 110.136 11.1926C110.541 11.5979 110.744 12.0939 110.744 12.6806C110.744 13.2033 110.594 13.6619 110.296 14.0566C109.997 14.4406 109.592 14.7393 109.08 14.9526C108.578 15.1553 108.018 15.2566 107.4 15.2566ZM111.764 6.84061H113.188V4.53661H114.916V6.84061H116.916V8.34461H114.916V12.2646C114.916 12.6699 114.996 12.9793 115.156 13.1926C115.326 13.4059 115.609 13.5126 116.004 13.5126C116.196 13.5126 116.366 13.4859 116.516 13.4326C116.665 13.3686 116.814 13.2939 116.964 13.2086V14.8886C116.782 14.9633 116.59 15.0219 116.388 15.0646C116.185 15.1073 115.945 15.1286 115.668 15.1286C114.91 15.1286 114.308 14.9099 113.86 14.4726C113.412 14.0246 113.188 13.4113 113.188 12.6326V8.34461H111.764V6.84061ZM122.251 15.2566C121.408 15.2566 120.667 15.0646 120.027 14.6806C119.387 14.2966 118.886 13.7793 118.523 13.1286C118.16 12.4673 117.979 11.7313 117.979 10.9206C117.979 10.1099 118.16 9.37928 118.523 8.72861C118.886 8.06728 119.387 7.54461 120.027 7.16061C120.667 6.77661 121.408 6.58461 122.251 6.58461C123.083 6.58461 123.819 6.78194 124.459 7.17661C125.099 7.56061 125.6 8.07794 125.963 8.72861C126.326 9.37928 126.507 10.1099 126.507 10.9206C126.507 11.7313 126.326 12.4673 125.963 13.1286C125.6 13.7793 125.099 14.2966 124.459 14.6806C123.819 15.0646 123.083 15.2566 122.251 15.2566ZM122.251 13.6726C122.699 13.6726 123.115 13.5659 123.499 13.3526C123.883 13.1286 124.192 12.8139 124.427 12.4086C124.672 11.9926 124.795 11.4966 124.795 10.9206C124.795 10.3446 124.672 9.85394 124.427 9.44861C124.192 9.03261 123.883 8.71794 123.499 8.50461C123.115 8.28061 122.699 8.16861 122.251 8.16861C121.803 8.16861 121.382 8.28061 120.987 8.50461C120.603 8.71794 120.288 9.03261 120.043 9.44861C119.808 9.85394 119.691 10.3446 119.691 10.9206C119.691 11.4966 119.808 11.9926 120.043 12.4086C120.288 12.8139 120.608 13.1286 121.003 13.3526C121.398 13.5659 121.814 13.6726 122.251 13.6726ZM128.092 15.0006V6.84061H129.724V8.04061H129.82C129.948 7.76328 130.13 7.51794 130.364 7.30461C130.61 7.09128 130.887 6.92061 131.196 6.79261C131.516 6.66461 131.847 6.60061 132.188 6.60061C132.412 6.60061 132.599 6.61661 132.748 6.64861C132.908 6.66994 133.052 6.70728 133.18 6.76061V8.55261C132.978 8.46728 132.77 8.39794 132.556 8.34461C132.354 8.29128 132.14 8.26461 131.916 8.26461C131.511 8.26461 131.148 8.37661 130.828 8.60061C130.519 8.81394 130.274 9.10194 130.092 9.46461C129.911 9.82728 129.82 10.2326 129.82 10.6806V15.0006H128.092ZM134.792 15.0006V6.84061H136.52V15.0006H134.792ZM135.656 5.64061C135.336 5.64061 135.059 5.52861 134.824 5.30461C134.6 5.06994 134.488 4.79261 134.488 4.47261C134.488 4.14194 134.6 3.86994 134.824 3.65661C135.059 3.43261 135.336 3.32061 135.656 3.32061C135.987 3.32061 136.264 3.43261 136.488 3.65661C136.712 3.86994 136.824 4.14194 136.824 4.47261C136.824 4.79261 136.712 5.06994 136.488 5.30461C136.264 5.52861 135.987 5.64061 135.656 5.64061ZM138.176 6.84061H139.6V4.53661H141.328V6.84061H143.328V8.34461H141.328V12.2646C141.328 12.6699 141.408 12.9793 141.568 13.1926C141.739 13.4059 142.021 13.5126 142.416 13.5126C142.608 13.5126 142.779 13.4859 142.928 13.4326C143.077 13.3686 143.227 13.2939 143.376 13.2086V14.8886C143.195 14.9633 143.003 15.0219 142.8 15.0646C142.597 15.1073 142.357 15.1286 142.08 15.1286C141.323 15.1286 140.72 14.9099 140.272 14.4726C139.824 14.0246 139.6 13.4113 139.6 12.6326V8.34461H138.176V6.84061ZM147.694 15.0006L144.318 6.84061H146.238L148.526 12.7766H148.606L150.942 6.84061H152.83L149.422 15.0006H147.694ZM154.227 15.0006V6.84061H155.955V15.0006H154.227ZM155.091 5.64061C154.771 5.64061 154.493 5.52861 154.259 5.30461C154.035 5.06994 153.923 4.79261 153.923 4.47261C153.923 4.14194 154.035 3.86994 154.259 3.65661C154.493 3.43261 154.771 3.32061 155.091 3.32061C155.421 3.32061 155.699 3.43261 155.923 3.65661C156.147 3.86994 156.259 4.14194 156.259 4.47261C156.259 4.79261 156.147 5.06994 155.923 5.30461C155.699 5.52861 155.421 5.64061 155.091 5.64061ZM157.689 18.6166C157.518 18.6166 157.363 18.6059 157.225 18.5846C157.075 18.5633 156.931 18.5366 156.793 18.5046V16.8406C156.889 16.8939 157.006 16.9419 157.145 16.9846C157.283 17.0273 157.417 17.0486 157.545 17.0486C157.843 17.0486 158.057 16.9526 158.185 16.7606C158.313 16.5793 158.377 16.3126 158.377 15.9606V6.84061H160.105V15.9766C160.105 16.6059 159.998 17.1126 159.785 17.4966C159.582 17.8806 159.299 18.1633 158.937 18.3446C158.574 18.5259 158.158 18.6166 157.689 18.6166ZM159.241 5.64061C158.921 5.64061 158.643 5.52861 158.409 5.30461C158.185 5.06994 158.073 4.79261 158.073 4.47261C158.073 4.14194 158.185 3.86994 158.409 3.65661C158.643 3.43261 158.921 3.32061 159.241 3.32061C159.571 3.32061 159.849 3.43261 160.073 3.65661C160.297 3.86994 160.409 4.14194 160.409 4.47261C160.409 4.79261 160.297 5.06994 160.073 5.30461C159.849 5.52861 159.571 5.64061 159.241 5.64061ZM166.161 15.2566C165.318 15.2566 164.577 15.0646 163.937 14.6806C163.297 14.2966 162.795 13.7793 162.433 13.1286C162.07 12.4673 161.889 11.7313 161.889 10.9206C161.889 10.1099 162.07 9.37928 162.433 8.72861C162.795 8.06728 163.297 7.54461 163.937 7.16061C164.577 6.77661 165.318 6.58461 166.161 6.58461C166.993 6.58461 167.729 6.78194 168.369 7.17661C169.009 7.56061 169.51 8.07794 169.873 8.72861C170.235 9.37928 170.417 10.1099 170.417 10.9206C170.417 11.7313 170.235 12.4673 169.873 13.1286C169.51 13.7793 169.009 14.2966 168.369 14.6806C167.729 15.0646 166.993 15.2566 166.161 15.2566ZM166.161 13.6726C166.609 13.6726 167.025 13.5659 167.409 13.3526C167.793 13.1286 168.102 12.8139 168.337 12.4086C168.582 11.9926 168.705 11.4966 168.705 10.9206C168.705 10.3446 168.582 9.85394 168.337 9.44861C168.102 9.03261 167.793 8.71794 167.409 8.50461C167.025 8.28061 166.609 8.16861 166.161 8.16861C165.713 8.16861 165.291 8.28061 164.897 8.50461C164.513 8.71794 164.198 9.03261 163.953 9.44861C163.718 9.85394 163.601 10.3446 163.601 10.9206C163.601 11.4966 163.718 11.9926 163.953 12.4086C164.198 12.8139 164.518 13.1286 164.913 13.3526C165.307 13.5659 165.723 13.6726 166.161 13.6726Z" fill="white"/>
<g id="GPay (Dark)">
<g id="GPay">
<g id="Pay">
<path id="Fill 1" fill-rule="evenodd" clip-rule="evenodd" d="M199.356 3.42339V8.16175H202.278C202.974 8.16175 203.55 7.92781 204.005 7.45993C204.473 6.99313 204.707 6.43644 204.707 5.79203C204.707 5.16061 204.473 4.61041 204.005 4.14254C203.55 3.66274 202.974 3.4223 202.278 3.4223H199.356V3.42339ZM199.356 9.82966V15.3262H197.611V1.75549H202.24C203.417 1.75549 204.415 2.14756 205.238 2.93061C206.073 3.71365 206.491 4.66782 206.491 5.79203C206.491 6.94224 206.073 7.90291 205.238 8.67296C204.428 9.44409 203.429 9.82858 202.24 9.82858H199.356V9.82966Z" fill="white"/>
<path id="Fill 3" fill-rule="evenodd" clip-rule="evenodd" d="M208.255 12.4831C208.255 12.9379 208.448 13.317 208.834 13.6203C209.22 13.9235 209.672 14.0752 210.19 14.0752C210.924 14.0752 211.578 13.8032 212.153 13.2607C212.729 12.717 213.017 12.0791 213.017 11.3469C212.472 10.917 211.713 10.7025 210.74 10.7025C210.031 10.7025 209.44 10.8736 208.966 11.2148C208.492 11.5559 208.255 11.9773 208.255 12.4831M210.513 5.73566C211.803 5.73566 212.821 6.08007 213.569 6.76889C214.314 7.45771 214.687 8.40213 214.687 9.60216V15.3261H213.018V14.0373H212.942C212.221 15.0985 211.259 15.6294 210.058 15.6294C209.033 15.6294 208.176 15.3261 207.487 14.7196C206.797 14.1131 206.453 13.3549 206.453 12.4452C206.453 11.4845 206.816 10.7208 207.543 10.1523C208.271 9.58375 209.241 9.2989 210.456 9.2989C211.492 9.2989 212.346 9.48844 213.017 9.86751V9.46894C213.017 8.86243 212.776 8.34798 212.296 7.92451C211.814 7.50103 211.252 7.28984 210.607 7.28984C209.633 7.28984 208.862 7.70032 208.293 8.52235L206.755 7.55519C207.603 6.34217 208.855 5.73566 210.513 5.73566" fill="white"/>
<path id="Fill 5" fill-rule="evenodd" clip-rule="evenodd" d="M224.269 6.03894L218.443 19.4201H216.641L218.804 14.738L214.971 6.03894H216.869L219.639 12.7106H219.677L222.371 6.03894H224.269Z" fill="white"/>
</g>
<g id="G">
<path id="Fill 8" fill-rule="evenodd" clip-rule="evenodd" d="M192.303 8.64473C192.303 8.09563 192.256 7.56601 192.168 7.05914H184.806V10.0625H189.023C188.842 11.0414 188.294 11.8744 187.464 12.4322V14.3828H189.98C191.454 13.0246 192.303 11.0177 192.303 8.64473" fill="#4285F4"/>
<path id="Fill 10" fill-rule="evenodd" clip-rule="evenodd" d="M184.806 16.2651C186.913 16.2651 188.687 15.5741 189.98 14.3828L187.464 12.4322C186.764 12.9033 185.861 13.1784 184.806 13.1784C182.77 13.1784 181.042 11.8073 180.424 9.95959H177.832V11.9687C179.116 14.516 181.757 16.2651 184.806 16.2651" fill="#34A853"/>
<path id="Fill 12" fill-rule="evenodd" clip-rule="evenodd" d="M180.424 9.9596C180.266 9.48847 180.179 8.98593 180.179 8.46715C180.179 7.94837 180.266 7.44583 180.424 6.9747V4.96564H177.832C177.3 6.01837 177 7.20756 177 8.46715C177 9.72674 177.3 10.916 177.832 11.9687L180.424 9.9596Z" fill="#FABB05"/>
<path id="Fill 14" fill-rule="evenodd" clip-rule="evenodd" d="M184.806 3.75583C185.957 3.75583 186.988 4.15115 187.801 4.92553V4.92661L190.029 2.70094C188.676 1.44243 186.912 0.669128 184.806 0.669128C181.757 0.669128 179.116 2.41826 177.832 4.9656L180.424 6.97467C181.042 5.12698 182.77 3.75583 184.806 3.75583" fill="#E94235"/>
</g>
</g>
</g>
</g>
</svg>
