<svg width="394" height="38" viewBox="0 0 394 38" fill="none" xmlns="http://www.w3.org/2000/svg">
<g id="sl_book_with_Light">
<path id="Text" d="M3.44613 30V9.952H10.4741C11.7061 9.952 12.8075 10.2133 13.7781 10.736C14.7488 11.2587 15.5141 11.9867 16.0741 12.92C16.6528 13.8347 16.9421 14.8893 16.9421 16.084C16.9421 17.3907 16.5315 18.576 15.7101 19.64C14.9075 20.6853 13.7688 21.4133 12.2941 21.824L17.8661 29.832V30H14.3101L8.96213 22.132H6.52613V30H3.44613ZM10.5021 12.836H6.52613V19.304H10.3901C11.3421 19.304 12.1541 19.0053 12.8261 18.408C13.4981 17.792 13.8341 17.008 13.8341 16.056C13.8341 15.5147 13.7035 15.0013 13.4421 14.516C13.1808 14.012 12.7981 13.6107 12.2941 13.312C11.8088 12.9947 11.2115 12.836 10.5021 12.836ZM26.5825 30.448C25.1825 30.448 23.9319 30.1213 22.8305 29.468C21.7292 28.8147 20.8612 27.9187 20.2265 26.78C19.6105 25.6413 19.3025 24.344 19.3025 22.888C19.3025 21.5253 19.6012 20.2653 20.1985 19.108C20.7959 17.9507 21.6265 17.0267 22.6905 16.336C23.7732 15.6267 25.0145 15.272 26.4145 15.272C27.8892 15.272 29.1399 15.5893 30.1665 16.224C31.2119 16.8587 32.0052 17.7267 32.5465 18.828C33.0879 19.9293 33.3585 21.1707 33.3585 22.552C33.3585 22.7573 33.3492 22.944 33.3305 23.112C33.3305 23.28 33.3212 23.4107 33.3025 23.504H22.2705C22.4199 24.9227 22.9145 25.9867 23.7545 26.696C24.6132 27.4053 25.5839 27.76 26.6665 27.76C27.6372 27.76 28.4399 27.5453 29.0745 27.116C29.7092 26.668 30.2132 26.1173 30.5865 25.464L33.0785 26.668C32.4625 27.788 31.6225 28.7027 30.5585 29.412C29.4945 30.1027 28.1692 30.448 26.5825 30.448ZM26.4425 17.848C25.4345 17.848 24.5759 18.156 23.8665 18.772C23.1572 19.388 22.6812 20.2093 22.4385 21.236H30.3625C30.3252 20.7507 30.1665 20.2467 29.8865 19.724C29.6065 19.2013 29.1772 18.7627 28.5985 18.408C28.0385 18.0347 27.3199 17.848 26.4425 17.848ZM35.5993 30V27.48L43.5513 18.352H35.8513V15.72H47.2473V18.24L39.3233 27.368H47.4713V30H35.5993ZM56.8505 30.448C55.4505 30.448 54.1998 30.1213 53.0985 29.468C51.9972 28.8147 51.1292 27.9187 50.4945 26.78C49.8785 25.6413 49.5705 24.344 49.5705 22.888C49.5705 21.5253 49.8692 20.2653 50.4665 19.108C51.0638 17.9507 51.8945 17.0267 52.9585 16.336C54.0412 15.6267 55.2825 15.272 56.6825 15.272C58.1572 15.272 59.4078 15.5893 60.4345 16.224C61.4798 16.8587 62.2732 17.7267 62.8145 18.828C63.3558 19.9293 63.6265 21.1707 63.6265 22.552C63.6265 22.7573 63.6172 22.944 63.5985 23.112C63.5985 23.28 63.5892 23.4107 63.5705 23.504H52.5385C52.6878 24.9227 53.1825 25.9867 54.0225 26.696C54.8812 27.4053 55.8518 27.76 56.9345 27.76C57.9052 27.76 58.7078 27.5453 59.3425 27.116C59.9772 26.668 60.4812 26.1173 60.8545 25.464L63.3465 26.668C62.7305 27.788 61.8905 28.7027 60.8265 29.412C59.7625 30.1027 58.4372 30.448 56.8505 30.448ZM56.7105 17.848C55.7025 17.848 54.8438 18.156 54.1345 18.772C53.4252 19.388 52.9492 20.2093 52.7065 21.236H60.6305C60.5932 20.7507 60.4345 20.2467 60.1545 19.724C59.8745 19.2013 59.4452 18.7627 58.8665 18.408C58.3065 18.0347 57.5878 17.848 56.7105 17.848ZM66.732 30V15.72H69.588V17.82H69.756C70.0733 17.092 70.6146 16.4947 71.38 16.028C72.164 15.5427 73.004 15.3 73.9 15.3C74.292 15.3 74.6186 15.328 74.88 15.384C75.16 15.44 75.412 15.5053 75.636 15.58V18.716C75.2813 18.5667 74.9173 18.4453 74.544 18.352C74.1893 18.2587 73.816 18.212 73.424 18.212C72.7146 18.212 72.08 18.408 71.52 18.8C70.9786 19.1733 70.5493 19.6867 70.232 20.34C69.9146 20.9747 69.756 21.6747 69.756 22.44V30H66.732ZM83.0751 30L77.1671 15.72H80.5271L84.5311 26.108H84.6711L88.7591 15.72H92.0631L86.0991 30H83.0751ZM98.5268 30.448C97.5002 30.448 96.5855 30.252 95.7828 29.86C94.9802 29.4493 94.3548 28.88 93.9068 28.152C93.4588 27.424 93.2348 26.5933 93.2348 25.66C93.2348 24.652 93.4962 23.7933 94.0188 23.084C94.5602 22.356 95.2788 21.8053 96.1748 21.432C97.0708 21.0587 98.0602 20.872 99.1428 20.872C100.039 20.872 100.823 20.956 101.495 21.124C102.185 21.292 102.708 21.4693 103.063 21.656V20.9C103.063 19.9667 102.727 19.22 102.055 18.66C101.383 18.1 100.515 17.82 99.4508 17.82C98.7228 17.82 98.0322 17.988 97.3788 18.324C96.7255 18.6413 96.2028 19.08 95.8108 19.64L93.7388 18.044C94.3548 17.1853 95.1668 16.5133 96.1748 16.028C97.2015 15.524 98.3215 15.272 99.5348 15.272C101.607 15.272 103.203 15.7853 104.323 16.812C105.443 17.82 106.003 19.2387 106.003 21.068V30H103.063V28.236H102.895C102.521 28.8147 101.961 29.328 101.215 29.776C100.468 30.224 99.5722 30.448 98.5268 30.448ZM99.0588 27.984C99.8428 27.984 100.533 27.7973 101.131 27.424C101.728 27.0507 102.195 26.5653 102.531 25.968C102.885 25.352 103.063 24.6893 103.063 23.98C102.633 23.7373 102.129 23.5413 101.551 23.392C100.972 23.224 100.356 23.14 99.7028 23.14C98.4708 23.14 97.5935 23.392 97.0708 23.896C96.5482 24.3813 96.2868 24.9787 96.2868 25.688C96.2868 26.36 96.5388 26.9107 97.0428 27.34C97.5468 27.7693 98.2188 27.984 99.0588 27.984ZM116.103 30.448C114.666 30.448 113.397 30.1213 112.295 29.468C111.194 28.8147 110.326 27.9187 109.691 26.78C109.057 25.6227 108.739 24.316 108.739 22.86C108.739 21.404 109.057 20.1067 109.691 18.968C110.326 17.8107 111.194 16.9053 112.295 16.252C113.397 15.5987 114.666 15.272 116.103 15.272C117.69 15.272 119.025 15.6267 120.107 16.336C121.209 17.0453 121.993 18.0067 122.459 19.22L119.715 20.34C119.062 18.8093 117.839 18.044 116.047 18.044C115.263 18.044 114.545 18.2493 113.891 18.66C113.238 19.052 112.715 19.612 112.323 20.34C111.931 21.0493 111.735 21.8893 111.735 22.86C111.735 23.8307 111.931 24.68 112.323 25.408C112.715 26.136 113.238 26.696 113.891 27.088C114.545 27.48 115.263 27.676 116.047 27.676C116.962 27.676 117.737 27.4707 118.371 27.06C119.006 26.6307 119.501 26.052 119.855 25.324L122.543 26.5C122.039 27.6387 121.237 28.5813 120.135 29.328C119.034 30.0747 117.69 30.448 116.103 30.448ZM127.172 13.62C126.612 13.62 126.127 13.424 125.716 13.032C125.324 12.6213 125.128 12.136 125.128 11.576C125.128 11.016 125.324 10.54 125.716 10.148C126.127 9.756 126.612 9.56 127.172 9.56C127.732 9.56 128.208 9.756 128.6 10.148C129.011 10.54 129.216 11.016 129.216 11.576C129.216 12.136 129.011 12.6213 128.6 13.032C128.208 13.424 127.732 13.62 127.172 13.62ZM125.66 30V15.72H128.684V30H125.66ZM134.472 13.62C133.912 13.62 133.427 13.424 133.016 13.032C132.624 12.6213 132.428 12.136 132.428 11.576C132.428 11.016 132.624 10.54 133.016 10.148C133.427 9.756 133.912 9.56 134.472 9.56C135.032 9.56 135.508 9.756 135.9 10.148C136.311 10.54 136.516 11.016 136.516 11.576C136.516 12.136 136.311 12.6213 135.9 13.032C135.508 13.424 135.032 13.62 134.472 13.62ZM131.756 36.328C131.177 36.328 130.655 36.2627 130.188 36.132V33.22C130.375 33.332 130.589 33.416 130.832 33.472C131.056 33.5467 131.28 33.584 131.504 33.584C132.045 33.584 132.419 33.416 132.624 33.08C132.848 32.7627 132.96 32.296 132.96 31.68V15.72H135.984V31.708C135.984 33.3507 135.583 34.5267 134.78 35.236C133.977 35.964 132.969 36.328 131.756 36.328ZM144.379 30.448C143.352 30.448 142.438 30.252 141.635 29.86C140.832 29.4493 140.207 28.88 139.759 28.152C139.311 27.424 139.087 26.5933 139.087 25.66C139.087 24.652 139.348 23.7933 139.871 23.084C140.412 22.356 141.131 21.8053 142.027 21.432C142.923 21.0587 143.912 20.872 144.995 20.872C145.891 20.872 146.675 20.956 147.347 21.124C148.038 21.292 148.56 21.4693 148.915 21.656V20.9C148.915 19.9667 148.579 19.22 147.907 18.66C147.235 18.1 146.367 17.82 145.303 17.82C144.575 17.82 143.884 17.988 143.231 18.324C142.578 18.6413 142.055 19.08 141.663 19.64L139.591 18.044C140.207 17.1853 141.019 16.5133 142.027 16.028C143.054 15.524 144.174 15.272 145.387 15.272C147.459 15.272 149.055 15.7853 150.175 16.812C151.295 17.82 151.855 19.2387 151.855 21.068V30H148.915V28.236H148.747C148.374 28.8147 147.814 29.328 147.067 29.776C146.32 30.224 145.424 30.448 144.379 30.448ZM144.911 27.984C145.695 27.984 146.386 27.7973 146.983 27.424C147.58 27.0507 148.047 26.5653 148.383 25.968C148.738 25.352 148.915 24.6893 148.915 23.98C148.486 23.7373 147.982 23.5413 147.403 23.392C146.824 23.224 146.208 23.14 145.555 23.14C144.323 23.14 143.446 23.392 142.923 23.896C142.4 24.3813 142.139 24.9787 142.139 25.688C142.139 26.36 142.391 26.9107 142.895 27.34C143.399 27.7693 144.071 27.984 144.911 27.984ZM167.527 30.448C165.81 30.448 164.438 30.0747 163.411 29.328C162.385 28.5627 161.675 27.6573 161.283 26.612L163.999 25.436C164.335 26.2013 164.821 26.7893 165.455 27.2C166.09 27.592 166.809 27.788 167.611 27.788C168.358 27.788 169.002 27.6573 169.543 27.396C170.085 27.116 170.355 26.668 170.355 26.052C170.355 25.4547 170.085 25.016 169.543 24.736C169.002 24.456 168.33 24.2133 167.527 24.008L165.819 23.616C165.129 23.448 164.485 23.1867 163.887 22.832C163.29 22.4773 162.805 22.02 162.431 21.46C162.058 20.8813 161.871 20.2093 161.871 19.444C161.871 18.604 162.123 17.876 162.627 17.26C163.131 16.6253 163.794 16.14 164.615 15.804C165.455 15.4493 166.361 15.272 167.331 15.272C168.657 15.272 169.814 15.5333 170.803 16.056C171.811 16.56 172.549 17.3253 173.015 18.352L170.411 19.528C170.075 18.8933 169.637 18.4547 169.095 18.212C168.573 17.9507 167.994 17.82 167.359 17.82C166.65 17.82 166.053 17.9693 165.567 18.268C165.101 18.5667 164.867 18.94 164.867 19.388C164.867 19.8733 165.073 20.256 165.483 20.536C165.913 20.816 166.435 21.04 167.051 21.208L169.123 21.712C170.542 22.0667 171.606 22.608 172.315 23.336C173.025 24.0453 173.379 24.9133 173.379 25.94C173.379 26.8547 173.118 27.6573 172.595 28.348C172.073 29.02 171.363 29.5427 170.467 29.916C169.59 30.2707 168.61 30.448 167.527 30.448ZM188.362 30.448C186.645 30.448 185.273 30.0747 184.246 29.328C183.219 28.5627 182.51 27.6573 182.118 26.612L184.834 25.436C185.17 26.2013 185.655 26.7893 186.29 27.2C186.925 27.592 187.643 27.788 188.446 27.788C189.193 27.788 189.837 27.6573 190.378 27.396C190.919 27.116 191.19 26.668 191.19 26.052C191.19 25.4547 190.919 25.016 190.378 24.736C189.837 24.456 189.165 24.2133 188.362 24.008L186.654 23.616C185.963 23.448 185.319 23.1867 184.722 22.832C184.125 22.4773 183.639 22.02 183.266 21.46C182.893 20.8813 182.706 20.2093 182.706 19.444C182.706 18.604 182.958 17.876 183.462 17.26C183.966 16.6253 184.629 16.14 185.45 15.804C186.29 15.4493 187.195 15.272 188.166 15.272C189.491 15.272 190.649 15.5333 191.638 16.056C192.646 16.56 193.383 17.3253 193.85 18.352L191.246 19.528C190.91 18.8933 190.471 18.4547 189.93 18.212C189.407 17.9507 188.829 17.82 188.194 17.82C187.485 17.82 186.887 17.9693 186.402 18.268C185.935 18.5667 185.702 18.94 185.702 19.388C185.702 19.8733 185.907 20.256 186.318 20.536C186.747 20.816 187.27 21.04 187.886 21.208L189.958 21.712C191.377 22.0667 192.441 22.608 193.15 23.336C193.859 24.0453 194.214 24.9133 194.214 25.94C194.214 26.8547 193.953 27.6573 193.43 28.348C192.907 29.02 192.198 29.5427 191.302 29.916C190.425 30.2707 189.445 30.448 188.362 30.448ZM198.528 25.856V18.352H196.036V15.72H198.528V11.688H201.552V15.72H205.052V18.352H201.552V25.212C201.552 25.9213 201.692 26.4627 201.972 26.836C202.271 27.2093 202.766 27.396 203.456 27.396C203.811 27.396 204.11 27.3493 204.352 27.256C204.614 27.1627 204.875 27.032 205.136 26.864V29.804C204.819 29.9347 204.483 30.0373 204.128 30.112C203.774 30.1867 203.354 30.224 202.868 30.224C201.543 30.224 200.488 29.8413 199.704 29.076C198.92 28.292 198.528 27.2187 198.528 25.856ZM214.427 30.448C212.952 30.448 211.655 30.112 210.535 29.44C209.415 28.768 208.538 27.8627 207.903 26.724C207.268 25.5853 206.951 24.2973 206.951 22.86C206.951 21.4413 207.268 20.1627 207.903 19.024C208.538 17.8667 209.415 16.952 210.535 16.28C211.655 15.608 212.952 15.272 214.427 15.272C215.883 15.272 217.171 15.608 218.291 16.28C219.411 16.952 220.288 17.8667 220.923 19.024C221.558 20.1627 221.875 21.4413 221.875 22.86C221.875 24.2973 221.558 25.5853 220.923 26.724C220.288 27.8627 219.411 28.768 218.291 29.44C217.171 30.112 215.883 30.448 214.427 30.448ZM214.427 27.676C215.211 27.676 215.939 27.4893 216.611 27.116C217.283 26.724 217.824 26.1733 218.235 25.464C218.664 24.736 218.879 23.868 218.879 22.86C218.879 21.852 218.664 20.9933 218.235 20.284C217.824 19.556 217.283 19.0053 216.611 18.632C215.939 18.24 215.211 18.044 214.427 18.044C213.643 18.044 212.906 18.24 212.215 18.632C211.543 19.0053 210.992 19.556 210.563 20.284C210.152 20.9933 209.947 21.852 209.947 22.86C209.947 23.868 210.152 24.736 210.563 25.464C210.992 26.1733 211.543 26.724 212.215 27.116C212.906 27.4893 213.643 27.676 214.427 27.676ZM224.687 30V15.72H227.543V17.82H227.711C228.028 17.092 228.569 16.4947 229.335 16.028C230.119 15.5427 230.959 15.3 231.855 15.3C232.247 15.3 232.573 15.328 232.835 15.384C233.115 15.44 233.367 15.5053 233.591 15.58V18.716C233.236 18.5667 232.872 18.4453 232.499 18.352C232.144 18.2587 231.771 18.212 231.379 18.212C230.669 18.212 230.035 18.408 229.475 18.8C228.933 19.1733 228.504 19.6867 228.187 20.34C227.869 20.9747 227.711 21.6747 227.711 22.44V30H224.687ZM237.961 13.62C237.401 13.62 236.916 13.424 236.505 13.032C236.113 12.6213 235.917 12.136 235.917 11.576C235.917 11.016 236.113 10.54 236.505 10.148C236.916 9.756 237.401 9.56 237.961 9.56C238.521 9.56 238.997 9.756 239.389 10.148C239.8 10.54 240.005 11.016 240.005 11.576C240.005 12.136 239.8 12.6213 239.389 13.032C238.997 13.424 238.521 13.62 237.961 13.62ZM236.449 30V15.72H239.473V30H236.449ZM244.9 25.856V18.352H242.408V15.72H244.9V11.688H247.924V15.72H251.424V18.352H247.924V25.212C247.924 25.9213 248.064 26.4627 248.344 26.836C248.643 27.2093 249.138 27.396 249.828 27.396C250.183 27.396 250.482 27.3493 250.724 27.256C250.986 27.1627 251.247 27.032 251.508 26.864V29.804C251.191 29.9347 250.855 30.0373 250.5 30.112C250.146 30.1867 249.726 30.224 249.24 30.224C247.915 30.224 246.86 29.8413 246.076 29.076C245.292 28.292 244.9 27.2187 244.9 25.856ZM259.102 30L253.194 15.72H256.554L260.558 26.108H260.698L264.786 15.72H268.09L262.126 30H259.102ZM272.084 13.62C271.524 13.62 271.038 13.424 270.628 13.032C270.236 12.6213 270.04 12.136 270.04 11.576C270.04 11.016 270.236 10.54 270.628 10.148C271.038 9.756 271.524 9.56 272.084 9.56C272.644 9.56 273.12 9.756 273.512 10.148C273.922 10.54 274.128 11.016 274.128 11.576C274.128 12.136 273.922 12.6213 273.512 13.032C273.12 13.424 272.644 13.62 272.084 13.62ZM270.572 30V15.72H273.596V30H270.572ZM279.384 13.62C278.824 13.62 278.338 13.424 277.928 13.032C277.536 12.6213 277.34 12.136 277.34 11.576C277.34 11.016 277.536 10.54 277.928 10.148C278.338 9.756 278.824 9.56 279.384 9.56C279.944 9.56 280.42 9.756 280.812 10.148C281.222 10.54 281.428 11.016 281.428 11.576C281.428 12.136 281.222 12.6213 280.812 13.032C280.42 13.424 279.944 13.62 279.384 13.62ZM276.668 36.328C276.089 36.328 275.566 36.2627 275.1 36.132V33.22C275.286 33.332 275.501 33.416 275.744 33.472C275.968 33.5467 276.192 33.584 276.416 33.584C276.957 33.584 277.33 33.416 277.536 33.08C277.76 32.7627 277.872 32.296 277.872 31.68V15.72H280.896V31.708C280.896 33.3507 280.494 34.5267 279.692 35.236C278.889 35.964 277.881 36.328 276.668 36.328ZM291.531 30.448C290.056 30.448 288.759 30.112 287.639 29.44C286.519 28.768 285.642 27.8627 285.007 26.724C284.372 25.5853 284.055 24.2973 284.055 22.86C284.055 21.4413 284.372 20.1627 285.007 19.024C285.642 17.8667 286.519 16.952 287.639 16.28C288.759 15.608 290.056 15.272 291.531 15.272C292.987 15.272 294.275 15.608 295.395 16.28C296.515 16.952 297.392 17.8667 298.027 19.024C298.662 20.1627 298.979 21.4413 298.979 22.86C298.979 24.2973 298.662 25.5853 298.027 26.724C297.392 27.8627 296.515 28.768 295.395 29.44C294.275 30.112 292.987 30.448 291.531 30.448ZM291.531 27.676C292.315 27.676 293.043 27.4893 293.715 27.116C294.387 26.724 294.928 26.1733 295.339 25.464C295.768 24.736 295.983 23.868 295.983 22.86C295.983 21.852 295.768 20.9933 295.339 20.284C294.928 19.556 294.387 19.0053 293.715 18.632C293.043 18.24 292.315 18.044 291.531 18.044C290.747 18.044 290.01 18.24 289.319 18.632C288.647 19.0053 288.096 19.556 287.667 20.284C287.256 20.9933 287.051 21.852 287.051 22.86C287.051 23.868 287.256 24.736 287.667 25.464C288.096 26.1733 288.647 26.724 289.319 27.116C290.01 27.4893 290.747 27.676 291.531 27.676Z" fill="#3C4043"/>
<g id="GPay Logo (Light)">
<g id="GPay">
<g id="Pay">
<path id="Fill 1" fill-rule="evenodd" clip-rule="evenodd" d="M350.529 9.44664V17.6128H355.565C356.765 17.6128 357.757 17.2096 358.541 16.4032C359.347 15.5988 359.75 14.6394 359.75 13.5288C359.75 12.4406 359.347 11.4924 358.541 10.686C357.757 9.85915 356.765 9.44478 355.565 9.44478H350.529V9.44664ZM350.529 20.4872V29.9599H347.521V6.57217H355.499C357.527 6.57217 359.248 7.24786 360.666 8.59737C362.105 9.94688 362.824 11.5913 362.824 13.5288C362.824 15.511 362.105 17.1667 360.666 18.4938C359.27 19.8227 357.547 20.4854 355.499 20.4854H350.529V20.4872Z" fill="#5F6368"/>
<path id="Fill 3" fill-rule="evenodd" clip-rule="evenodd" d="M365.864 25.0602C365.864 25.8442 366.197 26.4975 366.862 27.0201C367.527 27.5427 368.306 27.804 369.2 27.804C370.465 27.804 371.591 27.3354 372.584 26.4004C373.576 25.4634 374.071 24.364 374.071 23.1022C373.133 22.3612 371.825 21.9916 370.147 21.9916C368.925 21.9916 367.907 22.2865 367.09 22.8745C366.273 23.4623 365.864 24.1886 365.864 25.0602ZM369.756 13.4317C371.98 13.4317 373.735 14.0252 375.022 15.2124C376.308 16.3995 376.95 18.0271 376.95 20.0952V29.9599H374.073V27.7387H373.942C372.699 29.5677 371.042 30.4825 368.972 30.4825C367.206 30.4825 365.728 29.9599 364.541 28.9146C363.353 27.8694 362.759 26.5628 362.759 24.9949C362.759 23.3393 363.385 22.0232 364.638 21.0434C365.892 20.0635 367.565 19.5726 369.658 19.5726C371.444 19.5726 372.916 19.8992 374.071 20.5525V19.8656C374.071 18.8204 373.656 17.9338 372.829 17.204C371.999 16.4741 371.031 16.1102 369.919 16.1102C368.239 16.1102 366.911 16.8176 365.93 18.2343L363.28 16.5675C364.741 14.4769 366.899 13.4317 369.756 13.4317Z" fill="#5F6368"/>
<path id="Fill 5" fill-rule="evenodd" clip-rule="evenodd" d="M393.463 13.9543L383.424 37.0154H380.318L384.046 28.9464L377.44 13.9543H380.71L385.484 25.4522H385.55L390.193 13.9543H393.463Z" fill="#5F6368"/>
</g>
<g id="G">
<path id="Fill 8" fill-rule="evenodd" clip-rule="evenodd" d="M338.373 18.4452C338.373 17.4989 338.293 16.5861 338.141 15.7126H325.454V20.8885H332.72C332.408 22.5757 331.465 24.0112 330.033 24.9725V28.3341H334.37C336.91 25.9935 338.373 22.5348 338.373 18.4452Z" fill="#4285F4"/>
<path id="Fill 10" fill-rule="evenodd" clip-rule="evenodd" d="M325.454 31.5782C329.084 31.5782 332.141 30.3873 334.37 28.3341L330.033 24.9725C328.826 25.7844 327.272 26.2585 325.454 26.2585C321.944 26.2585 318.966 23.8955 317.901 20.7112H313.433V24.1736C315.647 28.5637 320.197 31.5782 325.454 31.5782Z" fill="#34A853"/>
<path id="Fill 12" fill-rule="evenodd" clip-rule="evenodd" d="M317.901 20.7111C317.628 19.8992 317.479 19.0331 317.479 18.139C317.479 17.245 317.628 16.3789 317.901 15.567V12.1045H313.433C312.518 13.9188 312 15.9683 312 18.139C312 20.3098 312.518 22.3595 313.433 24.1736L317.901 20.7111Z" fill="#FABB05"/>
<path id="Fill 14" fill-rule="evenodd" clip-rule="evenodd" d="M325.454 10.0196C327.436 10.0196 329.213 10.7009 330.615 12.0355V12.0374L334.455 8.20162C332.123 6.03271 329.082 4.7 325.454 4.7C320.197 4.7 315.647 7.71446 313.433 12.1046L317.901 15.567C318.966 12.3827 321.944 10.0196 325.454 10.0196Z" fill="#E94235"/>
</g>
</g>
</g>
</g>
</svg>
