<svg width="186" height="21" viewBox="0 0 186 21" fill="none" xmlns="http://www.w3.org/2000/svg">
<g id="sl_buy_with_Pay_NBG">
<path id="Left Text" d="M1.496 15.0006V3.54461H3.576L8.76 11.9606H8.856L8.76 9.75261V3.54461H10.504V15.0006H8.68L3.24 6.15261H3.144L3.24 8.36061V15.0006H1.496ZM15.2774 15.2566C14.6907 15.2566 14.168 15.1393 13.7094 14.9046C13.2614 14.6699 12.904 14.3499 12.6374 13.9446C12.3814 13.5286 12.2534 13.0539 12.2534 12.5206C12.2534 11.9339 12.4027 11.4379 12.7014 11.0326C13.0107 10.6273 13.4214 10.3179 13.9334 10.1046C14.4454 9.89128 15.0107 9.78461 15.6294 9.78461C15.9707 9.78461 16.2854 9.81128 16.5734 9.86461C16.872 9.90728 17.128 9.96061 17.3414 10.0246C17.5654 10.0886 17.7414 10.1579 17.8694 10.2326V9.80061C17.8694 9.26728 17.6774 8.84061 17.2934 8.52061C16.9094 8.20061 16.4134 8.04061 15.8054 8.04061C15.3894 8.04061 14.9947 8.13661 14.6214 8.32861C14.248 8.50994 13.9494 8.76061 13.7254 9.08061L12.5414 8.16861C12.776 7.83794 13.0587 7.55528 13.3894 7.32061C13.7307 7.08594 14.1094 6.90461 14.5254 6.77661C14.952 6.64861 15.3947 6.58461 15.8534 6.58461C17.0374 6.58461 17.9494 6.87794 18.5894 7.46461C19.2294 8.04061 19.5494 8.85128 19.5494 9.89661V15.0006H17.8694V13.9926H17.7734C17.6347 14.2059 17.4427 14.4086 17.1974 14.6006C16.9627 14.7926 16.68 14.9473 16.3494 15.0646C16.0294 15.1926 15.672 15.2566 15.2774 15.2566ZM15.5814 13.8486C16.0294 13.8486 16.424 13.7419 16.7654 13.5286C17.1174 13.3153 17.3894 13.0379 17.5814 12.6966C17.7734 12.3446 17.8694 11.9659 17.8694 11.5606C17.6347 11.4219 17.3467 11.3099 17.0054 11.2246C16.6747 11.1286 16.3227 11.0806 15.9494 11.0806C15.2454 11.0806 14.744 11.2193 14.4454 11.4966C14.1467 11.7739 13.9974 12.1206 13.9974 12.5366C13.9974 12.9206 14.1414 13.2353 14.4294 13.4806C14.7174 13.7259 15.1014 13.8486 15.5814 13.8486ZM21.6017 15.0006V3.54461H23.3297V10.2966L26.7857 6.84061H28.9297V6.93661L25.7777 10.0566L29.0417 14.9046V15.0006H26.9937L24.5617 11.2566L23.3297 12.4726V15.0006H21.6017ZM33.2274 15.2566C32.2247 15.2566 31.4674 14.9579 30.9554 14.3606C30.454 13.7526 30.2034 12.9313 30.2034 11.8966V6.84061H31.9314V11.6566C31.9314 12.3393 32.0914 12.8459 32.4114 13.1766C32.742 13.5073 33.1527 13.6726 33.6434 13.6726C34.0914 13.6726 34.4754 13.5606 34.7954 13.3366C35.1154 13.1019 35.3607 12.7979 35.5314 12.4246C35.7127 12.0513 35.8034 11.6513 35.8034 11.2246V6.84061H37.5154V15.0006H35.8994V13.8966H35.8034C35.654 14.1526 35.446 14.3819 35.1794 14.5846C34.9127 14.7873 34.614 14.9473 34.2834 15.0646C33.9527 15.1926 33.6007 15.2566 33.2274 15.2566ZM39.6826 18.4566V6.84061H41.2986V7.94461H41.3946C41.544 7.70994 41.7413 7.49128 41.9866 7.28861C42.2426 7.07528 42.5413 6.90461 42.8826 6.77661C43.224 6.64861 43.6026 6.58461 44.0186 6.58461C44.7653 6.58461 45.432 6.77128 46.0186 7.14461C46.6053 7.51794 47.0693 8.02994 47.4106 8.68061C47.7626 9.33128 47.9386 10.0779 47.9386 10.9206C47.9386 11.7633 47.7626 12.5099 47.4106 13.1606C47.0693 13.8113 46.6053 14.3233 46.0186 14.6966C45.432 15.0699 44.7653 15.2566 44.0186 15.2566C43.4 15.2566 42.8613 15.1179 42.4026 14.8406C41.944 14.5633 41.608 14.2539 41.3946 13.9126H41.2986L41.3946 15.0486V18.4566H39.6826ZM43.7626 13.6726C44.1893 13.6726 44.5893 13.5606 44.9626 13.3366C45.3466 13.1126 45.6506 12.7926 45.8746 12.3766C46.1093 11.9606 46.2266 11.4753 46.2266 10.9206C46.2266 10.3553 46.1093 9.86994 45.8746 9.46461C45.6506 9.04861 45.3466 8.72861 44.9626 8.50461C44.5893 8.28061 44.1893 8.16861 43.7626 8.16861C43.336 8.16861 42.936 8.28061 42.5626 8.50461C42.1893 8.72861 41.8853 9.04861 41.6506 9.46461C41.416 9.86994 41.2986 10.3553 41.2986 10.9206C41.2986 11.4859 41.416 11.9766 41.6506 12.3926C41.8853 12.7979 42.1893 13.1126 42.5626 13.3366C42.936 13.5606 43.336 13.6726 43.7626 13.6726ZM56.5371 15.2566C55.8865 15.2566 55.3211 15.1606 54.8411 14.9686C54.3611 14.7659 53.9665 14.4993 53.6571 14.1686C53.3478 13.8273 53.1185 13.4593 52.9691 13.0646L54.5211 12.3926C54.7131 12.8299 54.9851 13.1659 55.3371 13.4006C55.6998 13.6246 56.1158 13.7366 56.5851 13.7366C57.0118 13.7366 57.3798 13.6619 57.6891 13.5126C57.9985 13.3526 58.1531 13.0966 58.1531 12.7446C58.1531 12.5206 58.0785 12.3393 57.9291 12.2006C57.7905 12.0513 57.5985 11.9286 57.3531 11.8326C57.1185 11.7366 56.8465 11.6513 56.5371 11.5766L55.5611 11.3526C55.1771 11.2566 54.8091 11.1073 54.4571 10.9046C54.1158 10.6913 53.8385 10.4246 53.6251 10.1046C53.4118 9.78461 53.3051 9.40594 53.3051 8.96861C53.3051 8.47794 53.4438 8.05661 53.7211 7.70461C54.0091 7.34194 54.3931 7.06461 54.8731 6.87261C55.3531 6.68061 55.8705 6.58461 56.4251 6.58461C56.9371 6.58461 57.4011 6.65394 57.8171 6.79261C58.2438 6.92061 58.6118 7.11794 58.9211 7.38461C59.2411 7.64061 59.4918 7.96061 59.6731 8.34461L58.1851 9.01661C58.0038 8.65394 57.7585 8.40328 57.4491 8.26461C57.1398 8.11528 56.8038 8.04061 56.4411 8.04061C56.0358 8.04061 55.6945 8.12594 55.4171 8.29661C55.1505 8.45661 55.0171 8.66994 55.0171 8.93661C55.0171 9.21394 55.1345 9.43261 55.3691 9.59261C55.6145 9.75261 55.9131 9.88061 56.2651 9.97661L57.4491 10.2646C58.2598 10.4673 58.8678 10.7766 59.2731 11.1926C59.6785 11.5979 59.8811 12.0939 59.8811 12.6806C59.8811 13.2033 59.7318 13.6619 59.4331 14.0566C59.1345 14.4406 58.7291 14.7393 58.2171 14.9526C57.7158 15.1553 57.1558 15.2566 56.5371 15.2566ZM68.3996 15.2566C67.749 15.2566 67.1836 15.1606 66.7036 14.9686C66.2236 14.7659 65.829 14.4993 65.5196 14.1686C65.2103 13.8273 64.981 13.4593 64.8316 13.0646L66.3836 12.3926C66.5756 12.8299 66.8476 13.1659 67.1996 13.4006C67.5623 13.6246 67.9783 13.7366 68.4476 13.7366C68.8743 13.7366 69.2423 13.6619 69.5516 13.5126C69.861 13.3526 70.0156 13.0966 70.0156 12.7446C70.0156 12.5206 69.941 12.3393 69.7916 12.2006C69.653 12.0513 69.461 11.9286 69.2156 11.8326C68.981 11.7366 68.709 11.6513 68.3996 11.5766L67.4236 11.3526C67.0396 11.2566 66.6716 11.1073 66.3196 10.9046C65.9783 10.6913 65.701 10.4246 65.4876 10.1046C65.2743 9.78461 65.1676 9.40594 65.1676 8.96861C65.1676 8.47794 65.3063 8.05661 65.5836 7.70461C65.8716 7.34194 66.2556 7.06461 66.7356 6.87261C67.2156 6.68061 67.733 6.58461 68.2876 6.58461C68.7996 6.58461 69.2636 6.65394 69.6796 6.79261C70.1063 6.92061 70.4743 7.11794 70.7836 7.38461C71.1036 7.64061 71.3543 7.96061 71.5356 8.34461L70.0476 9.01661C69.8663 8.65394 69.621 8.40328 69.3116 8.26461C69.0023 8.11528 68.6663 8.04061 68.3036 8.04061C67.8983 8.04061 67.557 8.12594 67.2796 8.29661C67.013 8.45661 66.8796 8.66994 66.8796 8.93661C66.8796 9.21394 66.997 9.43261 67.2316 9.59261C67.477 9.75261 67.7756 9.88061 68.1276 9.97661L69.3116 10.2646C70.1223 10.4673 70.7303 10.7766 71.1356 11.1926C71.541 11.5979 71.7436 12.0939 71.7436 12.6806C71.7436 13.2033 71.5943 13.6619 71.2956 14.0566C70.997 14.4406 70.5916 14.7393 70.0796 14.9526C69.5783 15.1553 69.0183 15.2566 68.3996 15.2566ZM72.7636 6.84061H74.1876V4.53661H75.9156V6.84061H77.9156V8.34461H75.9156V12.2646C75.9156 12.6699 75.9956 12.9793 76.1556 13.1926C76.3263 13.4059 76.609 13.5126 77.0036 13.5126C77.1956 13.5126 77.3663 13.4859 77.5156 13.4326C77.665 13.3686 77.8143 13.2939 77.9636 13.2086V14.8886C77.7823 14.9633 77.5903 15.0219 77.3876 15.0646C77.185 15.1073 76.945 15.1286 76.6676 15.1286C75.9103 15.1286 75.3076 14.9099 74.8596 14.4726C74.4116 14.0246 74.1876 13.4113 74.1876 12.6326V8.34461H72.7636V6.84061ZM83.2511 15.2566C82.4085 15.2566 81.6671 15.0646 81.0271 14.6806C80.3871 14.2966 79.8858 13.7793 79.5231 13.1286C79.1605 12.4673 78.9791 11.7313 78.9791 10.9206C78.9791 10.1099 79.1605 9.37928 79.5231 8.72861C79.8858 8.06728 80.3871 7.54461 81.0271 7.16061C81.6671 6.77661 82.4085 6.58461 83.2511 6.58461C84.0831 6.58461 84.8191 6.78194 85.4591 7.17661C86.0991 7.56061 86.6005 8.07794 86.9631 8.72861C87.3258 9.37928 87.5071 10.1099 87.5071 10.9206C87.5071 11.7313 87.3258 12.4673 86.9631 13.1286C86.6005 13.7793 86.0991 14.2966 85.4591 14.6806C84.8191 15.0646 84.0831 15.2566 83.2511 15.2566ZM83.2511 13.6726C83.6991 13.6726 84.1151 13.5659 84.4991 13.3526C84.8831 13.1286 85.1925 12.8139 85.4271 12.4086C85.6725 11.9926 85.7951 11.4966 85.7951 10.9206C85.7951 10.3446 85.6725 9.85394 85.4271 9.44861C85.1925 9.03261 84.8831 8.71794 84.4991 8.50461C84.1151 8.28061 83.6991 8.16861 83.2511 8.16861C82.8031 8.16861 82.3818 8.28061 81.9871 8.50461C81.6031 8.71794 81.2885 9.03261 81.0431 9.44861C80.8085 9.85394 80.6911 10.3446 80.6911 10.9206C80.6911 11.4966 80.8085 11.9926 81.0431 12.4086C81.2885 12.8139 81.6085 13.1286 82.0031 13.3526C82.3978 13.5659 82.8138 13.6726 83.2511 13.6726ZM89.0924 15.0006V6.84061H90.7244V8.04061H90.8204C90.9484 7.76328 91.1297 7.51794 91.3644 7.30461C91.6097 7.09128 91.887 6.92061 92.1964 6.79261C92.5164 6.66461 92.847 6.60061 93.1884 6.60061C93.4124 6.60061 93.599 6.61661 93.7484 6.64861C93.9084 6.66994 94.0524 6.70728 94.1804 6.76061V8.55261C93.9777 8.46728 93.7697 8.39794 93.5564 8.34461C93.3537 8.29128 93.1404 8.26461 92.9164 8.26461C92.511 8.26461 92.1484 8.37661 91.8284 8.60061C91.519 8.81394 91.2737 9.10194 91.0924 9.46461C90.911 9.82728 90.8204 10.2326 90.8204 10.6806V15.0006H89.0924ZM95.7923 15.0006V6.84061H97.5203V15.0006H95.7923ZM96.6562 5.64061C96.3363 5.64061 96.0589 5.52861 95.8243 5.30461C95.6003 5.06994 95.4883 4.79261 95.4883 4.47261C95.4883 4.14194 95.6003 3.86994 95.8243 3.65661C96.0589 3.43261 96.3363 3.32061 96.6562 3.32061C96.9869 3.32061 97.2643 3.43261 97.4883 3.65661C97.7123 3.86994 97.8243 4.14194 97.8243 4.47261C97.8243 4.79261 97.7123 5.06994 97.4883 5.30461C97.2643 5.52861 96.9869 5.64061 96.6562 5.64061ZM99.1761 6.84061H100.6V4.53661H102.328V6.84061H104.328V8.34461H102.328V12.2646C102.328 12.6699 102.408 12.9793 102.568 13.1926C102.739 13.4059 103.021 13.5126 103.416 13.5126C103.608 13.5126 103.779 13.4859 103.928 13.4326C104.077 13.3686 104.227 13.2939 104.376 13.2086V14.8886C104.195 14.9633 104.003 15.0219 103.8 15.0646C103.597 15.1073 103.357 15.1286 103.08 15.1286C102.323 15.1286 101.72 14.9099 101.272 14.4726C100.824 14.0246 100.6 13.4113 100.6 12.6326V8.34461H99.1761V6.84061ZM108.694 15.0006L105.318 6.84061H107.238L109.526 12.7766H109.606L111.942 6.84061H113.83L110.422 15.0006H108.694ZM115.227 15.0006V6.84061H116.955V15.0006H115.227ZM116.091 5.64061C115.771 5.64061 115.493 5.52861 115.259 5.30461C115.035 5.06994 114.923 4.79261 114.923 4.47261C114.923 4.14194 115.035 3.86994 115.259 3.65661C115.493 3.43261 115.771 3.32061 116.091 3.32061C116.421 3.32061 116.699 3.43261 116.923 3.65661C117.147 3.86994 117.259 4.14194 117.259 4.47261C117.259 4.79261 117.147 5.06994 116.923 5.30461C116.699 5.52861 116.421 5.64061 116.091 5.64061ZM118.689 18.6166C118.518 18.6166 118.363 18.6059 118.225 18.5846C118.075 18.5633 117.931 18.5366 117.793 18.5046V16.8406C117.889 16.8939 118.006 16.9419 118.145 16.9846C118.283 17.0273 118.417 17.0486 118.545 17.0486C118.843 17.0486 119.057 16.9526 119.185 16.7606C119.313 16.5793 119.377 16.3126 119.377 15.9606V6.84061H121.105V15.9766C121.105 16.6059 120.998 17.1126 120.785 17.4966C120.582 17.8806 120.299 18.1633 119.937 18.3446C119.574 18.5259 119.158 18.6166 118.689 18.6166ZM120.241 5.64061C119.921 5.64061 119.643 5.52861 119.409 5.30461C119.185 5.06994 119.073 4.79261 119.073 4.47261C119.073 4.14194 119.185 3.86994 119.409 3.65661C119.643 3.43261 119.921 3.32061 120.241 3.32061C120.571 3.32061 120.849 3.43261 121.073 3.65661C121.297 3.86994 121.409 4.14194 121.409 4.47261C121.409 4.79261 121.297 5.06994 121.073 5.30461C120.849 5.52861 120.571 5.64061 120.241 5.64061ZM127.161 15.2566C126.318 15.2566 125.577 15.0646 124.937 14.6806C124.297 14.2966 123.795 13.7793 123.433 13.1286C123.07 12.4673 122.889 11.7313 122.889 10.9206C122.889 10.1099 123.07 9.37928 123.433 8.72861C123.795 8.06728 124.297 7.54461 124.937 7.16061C125.577 6.77661 126.318 6.58461 127.161 6.58461C127.993 6.58461 128.729 6.78194 129.369 7.17661C130.009 7.56061 130.51 8.07794 130.873 8.72861C131.235 9.37928 131.417 10.1099 131.417 10.9206C131.417 11.7313 131.235 12.4673 130.873 13.1286C130.51 13.7793 130.009 14.2966 129.369 14.6806C128.729 15.0646 127.993 15.2566 127.161 15.2566ZM127.161 13.6726C127.609 13.6726 128.025 13.5659 128.409 13.3526C128.793 13.1286 129.102 12.8139 129.337 12.4086C129.582 11.9926 129.705 11.4966 129.705 10.9206C129.705 10.3446 129.582 9.85394 129.337 9.44861C129.102 9.03261 128.793 8.71794 128.409 8.50461C128.025 8.28061 127.609 8.16861 127.161 8.16861C126.713 8.16861 126.291 8.28061 125.897 8.50461C125.513 8.71794 125.198 9.03261 124.953 9.44861C124.718 9.85394 124.601 10.3446 124.601 10.9206C124.601 11.4966 124.718 11.9926 124.953 12.4086C125.198 12.8139 125.518 13.1286 125.913 13.3526C126.307 13.5659 126.723 13.6726 127.161 13.6726Z" fill="white"/>
<g id="GPay (Dark)">
<g id="GPay">
<g id="Pay">
<path id="Fill 1" fill-rule="evenodd" clip-rule="evenodd" d="M160.356 3.42339V8.16175H163.278C163.974 8.16175 164.55 7.92781 165.005 7.45993C165.473 6.99313 165.707 6.43644 165.707 5.79203C165.707 5.16061 165.473 4.61041 165.005 4.14254C164.55 3.66274 163.974 3.4223 163.278 3.4223H160.356V3.42339ZM160.356 9.82966V15.3262H158.611V1.75549H163.24C164.417 1.75549 165.415 2.14756 166.238 2.93061C167.073 3.71365 167.491 4.66782 167.491 5.79203C167.491 6.94224 167.073 7.90291 166.238 8.67296C165.428 9.44409 164.429 9.82858 163.24 9.82858H160.356V9.82966Z" fill="white"/>
<path id="Fill 3" fill-rule="evenodd" clip-rule="evenodd" d="M169.255 12.4831C169.255 12.9379 169.448 13.317 169.834 13.6203C170.22 13.9235 170.672 14.0752 171.19 14.0752C171.924 14.0752 172.578 13.8032 173.153 13.2607C173.729 12.717 174.017 12.0791 174.017 11.3469C173.472 10.917 172.713 10.7025 171.74 10.7025C171.031 10.7025 170.44 10.8736 169.966 11.2148C169.492 11.5559 169.255 11.9773 169.255 12.4831M171.513 5.73566C172.803 5.73566 173.821 6.08007 174.569 6.76889C175.314 7.45771 175.687 8.40213 175.687 9.60216V15.3261H174.018V14.0373H173.942C173.221 15.0985 172.259 15.6294 171.058 15.6294C170.033 15.6294 169.176 15.3261 168.487 14.7196C167.797 14.1131 167.453 13.3549 167.453 12.4452C167.453 11.4845 167.816 10.7208 168.543 10.1523C169.271 9.58375 170.241 9.2989 171.456 9.2989C172.492 9.2989 173.346 9.48844 174.017 9.86751V9.46894C174.017 8.86243 173.776 8.34798 173.296 7.92451C172.814 7.50103 172.252 7.28984 171.607 7.28984C170.633 7.28984 169.862 7.70032 169.293 8.52235L167.755 7.55519C168.603 6.34217 169.855 5.73566 171.513 5.73566" fill="white"/>
<path id="Fill 5" fill-rule="evenodd" clip-rule="evenodd" d="M185.269 6.03894L179.443 19.4201H177.641L179.804 14.738L175.971 6.03894H177.869L180.639 12.7106H180.677L183.371 6.03894H185.269Z" fill="white"/>
</g>
<g id="G">
<path id="Fill 8" fill-rule="evenodd" clip-rule="evenodd" d="M153.303 8.64473C153.303 8.09563 153.256 7.56601 153.168 7.05914H145.806V10.0625H150.023C149.842 11.0414 149.294 11.8744 148.464 12.4322V14.3828H150.98C152.454 13.0246 153.303 11.0177 153.303 8.64473" fill="#4285F4"/>
<path id="Fill 10" fill-rule="evenodd" clip-rule="evenodd" d="M145.806 16.2651C147.913 16.2651 149.687 15.5741 150.98 14.3828L148.464 12.4322C147.763 12.9033 146.861 13.1784 145.806 13.1784C143.77 13.1784 142.042 11.8073 141.424 9.95959H138.832V11.9687C140.116 14.516 142.757 16.2651 145.806 16.2651" fill="#34A853"/>
<path id="Fill 12" fill-rule="evenodd" clip-rule="evenodd" d="M141.424 9.9596C141.266 9.48847 141.179 8.98593 141.179 8.46715C141.179 7.94837 141.266 7.44583 141.424 6.9747V4.96564H138.832C138.3 6.01837 138 7.20756 138 8.46715C138 9.72674 138.3 10.916 138.832 11.9687L141.424 9.9596Z" fill="#FABB05"/>
<path id="Fill 14" fill-rule="evenodd" clip-rule="evenodd" d="M145.806 3.75583C146.957 3.75583 147.988 4.15115 148.801 4.92553V4.92661L151.029 2.70094C149.676 1.44243 147.912 0.669128 145.806 0.669128C142.757 0.669128 140.116 2.41826 138.832 4.9656L141.424 6.97467C142.042 5.12698 143.77 3.75583 145.806 3.75583" fill="#E94235"/>
</g>
</g>
</g>
</g>
</svg>
