<svg width="269" height="21" viewBox="0 0 269 21" fill="none" xmlns="http://www.w3.org/2000/svg">
<g id="sl_checkout_with_Pay_NBG">
<path id="Left Text" d="M1.57988 15.0006V13.2086L7.57988 5.20861H1.83588V3.54461H9.61188V5.33661L3.65988 13.3366H9.67588V15.0006H1.57988ZM14.143 15.2566C13.5563 15.2566 13.0337 15.1393 12.575 14.9046C12.127 14.6699 11.7697 14.3499 11.503 13.9446C11.247 13.5286 11.119 13.0539 11.119 12.5206C11.119 11.9339 11.2683 11.4379 11.567 11.0326C11.8763 10.6273 12.287 10.3179 12.799 10.1046C13.311 9.89128 13.8763 9.78461 14.495 9.78461C14.8363 9.78461 15.151 9.81128 15.439 9.86461C15.7377 9.90728 15.9937 9.96061 16.207 10.0246C16.431 10.0886 16.607 10.1579 16.735 10.2326V9.80061C16.735 9.26728 16.543 8.84061 16.159 8.52061C15.775 8.20061 15.279 8.04061 14.671 8.04061C14.255 8.04061 13.8603 8.13661 13.487 8.32861C13.1137 8.50994 12.815 8.76061 12.591 9.08061L11.407 8.16861C11.6417 7.83794 11.9243 7.55528 12.255 7.32061C12.5963 7.08594 12.975 6.90461 13.391 6.77661C13.8177 6.64861 14.2603 6.58461 14.719 6.58461C15.903 6.58461 16.815 6.87794 17.455 7.46461C18.095 8.04061 18.415 8.85128 18.415 9.89661V15.0006H16.735V13.9926H16.639C16.5003 14.2059 16.3083 14.4086 16.063 14.6006C15.8283 14.7926 15.5457 14.9473 15.215 15.0646C14.895 15.1926 14.5377 15.2566 14.143 15.2566ZM14.447 13.8486C14.895 13.8486 15.2897 13.7419 15.631 13.5286C15.983 13.3153 16.255 13.0379 16.447 12.6966C16.639 12.3446 16.735 11.9659 16.735 11.5606C16.5003 11.4219 16.2123 11.3099 15.871 11.2246C15.5403 11.1286 15.1883 11.0806 14.815 11.0806C14.111 11.0806 13.6097 11.2193 13.311 11.4966C13.0123 11.7739 12.863 12.1206 12.863 12.5366C12.863 12.9206 13.007 13.2353 13.295 13.4806C13.583 13.7259 13.967 13.8486 14.447 13.8486ZM20.4674 15.0006V3.54461H22.1954V10.2966L25.6514 6.84061H27.7954V6.93661L24.6434 10.0566L27.9074 14.9046V15.0006H25.8594L23.4274 11.2566L22.1954 12.4726V15.0006H20.4674ZM29.149 15.0006V3.54461H30.877V15.0006H29.149ZM32.5043 18.6166C32.3336 18.6166 32.1789 18.6059 32.0403 18.5846C31.8909 18.5633 31.7469 18.5366 31.6083 18.5046V16.8406C31.7043 16.8939 31.8216 16.9419 31.9603 16.9846C32.0989 17.0273 32.2323 17.0486 32.3603 17.0486C32.6589 17.0486 32.8723 16.9526 33.0003 16.7606C33.1283 16.5793 33.1923 16.3126 33.1923 15.9606V6.84061H34.9203V15.9766C34.9203 16.6059 34.8136 17.1126 34.6003 17.4966C34.3976 17.8806 34.1149 18.1633 33.7523 18.3446C33.3896 18.5259 32.9736 18.6166 32.5043 18.6166ZM34.0563 5.64061C33.7363 5.64061 33.4589 5.52861 33.2243 5.30461C33.0003 5.06994 32.8883 4.79261 32.8883 4.47261C32.8883 4.14194 33.0003 3.86994 33.2243 3.65661C33.4589 3.43261 33.7363 3.32061 34.0563 3.32061C34.3869 3.32061 34.6643 3.43261 34.8883 3.65661C35.1123 3.86994 35.2243 4.14194 35.2243 4.47261C35.2243 4.79261 35.1123 5.06994 34.8883 5.30461C34.6643 5.52861 34.3869 5.64061 34.0563 5.64061ZM40.1743 15.2566C39.1716 15.2566 38.4143 14.9579 37.9023 14.3606C37.4009 13.7526 37.1503 12.9313 37.1503 11.8966V6.84061H38.8783V11.6566C38.8783 12.3393 39.0383 12.8459 39.3583 13.1766C39.6889 13.5073 40.0996 13.6726 40.5903 13.6726C41.0383 13.6726 41.4223 13.5606 41.7423 13.3366C42.0623 13.1019 42.3076 12.7979 42.4783 12.4246C42.6596 12.0513 42.7503 11.6513 42.7503 11.2246V6.84061H44.4623V15.0006H42.8463V13.8966H42.7503C42.6009 14.1526 42.3929 14.3819 42.1263 14.5846C41.8596 14.7873 41.5609 14.9473 41.2303 15.0646C40.8996 15.1926 40.5476 15.2566 40.1743 15.2566ZM50.3434 15.2566C49.522 15.2566 48.7914 15.0699 48.1514 14.6966C47.522 14.3233 47.026 13.8113 46.6634 13.1606C46.3114 12.4993 46.1354 11.7526 46.1354 10.9206C46.1354 10.0886 46.3114 9.34728 46.6634 8.69661C47.026 8.04594 47.522 7.53394 48.1514 7.16061C48.7914 6.77661 49.522 6.58461 50.3434 6.58461C51.25 6.58461 52.0127 6.78728 52.6314 7.19261C53.2607 7.59794 53.7087 8.14728 53.9754 8.84061L52.4074 9.48061C52.2154 9.04328 51.938 8.71794 51.5754 8.50461C51.2234 8.28061 50.802 8.16861 50.3114 8.16861C49.8634 8.16861 49.4527 8.28594 49.0794 8.52061C48.706 8.74461 48.4074 9.05928 48.1834 9.46461C47.9594 9.86994 47.8474 10.3553 47.8474 10.9206C47.8474 11.4753 47.9594 11.9606 48.1834 12.3766C48.4074 12.7926 48.706 13.1126 49.0794 13.3366C49.4527 13.5606 49.8634 13.6726 50.3114 13.6726C50.834 13.6726 51.2767 13.5553 51.6394 13.3206C52.002 13.0859 52.2847 12.7553 52.4874 12.3286L54.0234 13.0006C53.7247 13.6513 53.2607 14.1899 52.6314 14.6166C52.0127 15.0433 51.25 15.2566 50.3434 15.2566ZM49.5914 5.27261L47.8794 3.33661V3.22461H49.5274L50.2634 4.21661H50.4234L51.1754 3.22461H52.8394V3.33661L51.1114 5.27261H49.5914ZM59.3048 15.2566C58.5048 15.2566 57.7901 15.0699 57.1608 14.6966C56.5314 14.3233 56.0354 13.8113 55.6728 13.1606C55.3208 12.5099 55.1448 11.7686 55.1448 10.9366C55.1448 10.1579 55.3154 9.43794 55.6568 8.77661C55.9981 8.11528 56.4728 7.58728 57.0808 7.19261C57.6994 6.78728 58.4088 6.58461 59.2088 6.58461C60.0514 6.58461 60.7661 6.76594 61.3528 7.12861C61.9501 7.49128 62.4034 7.98728 62.7128 8.61661C63.0221 9.24594 63.1768 9.95528 63.1768 10.7446C63.1768 10.8619 63.1714 10.9686 63.1608 11.0646C63.1608 11.1606 63.1554 11.2353 63.1448 11.2886H56.8408C56.8834 11.7366 56.9954 12.1259 57.1768 12.4566C57.4114 12.8726 57.7208 13.1873 58.1048 13.4006C58.4888 13.6139 58.9048 13.7206 59.3528 13.7206C59.8968 13.7206 60.3501 13.5979 60.7128 13.3526C61.0861 13.0966 61.3794 12.7819 61.5928 12.4086L63.0168 13.0966C62.6648 13.7366 62.1848 14.2593 61.5768 14.6646C60.9688 15.0593 60.2114 15.2566 59.3048 15.2566ZM56.9368 9.99261H61.4648C61.4541 9.78994 61.4008 9.57661 61.3048 9.35261C61.2088 9.11794 61.0701 8.90461 60.8888 8.71261C60.7074 8.52061 60.4781 8.36594 60.2008 8.24861C59.9234 8.12061 59.5981 8.05661 59.2248 8.05661C58.7554 8.05661 58.3394 8.17928 57.9768 8.42461C57.6141 8.65928 57.3314 8.98994 57.1288 9.41661C57.0434 9.59794 56.9794 9.78994 56.9368 9.99261ZM64.9299 15.0006V3.54461H66.6579V10.2966L70.1139 6.84061H72.2579V6.93661L69.1059 10.0566L72.3699 14.9046V15.0006H70.3219L67.8899 11.2566L66.6579 12.4726V15.0006H64.9299ZM77.4799 15.0006V6.84061H79.1119V7.96061H79.2079C79.4425 7.56594 79.7892 7.24061 80.2479 6.98461C80.7172 6.71794 81.2292 6.58461 81.7839 6.58461C82.7865 6.58461 83.5385 6.88328 84.0399 7.48061C84.5412 8.06728 84.7919 8.85661 84.7919 9.84861V15.0006H83.0799V10.0726C83.0799 9.41128 82.9145 8.93128 82.5839 8.63261C82.2532 8.32328 81.8212 8.16861 81.2879 8.16861C80.8719 8.16861 80.5092 8.28594 80.1999 8.52061C79.8905 8.74461 79.6452 9.04328 79.4639 9.41661C79.2932 9.78994 79.2079 10.1899 79.2079 10.6166V15.0006H77.4799ZM89.393 15.2566C88.8063 15.2566 88.2837 15.1393 87.825 14.9046C87.377 14.6699 87.0197 14.3499 86.753 13.9446C86.497 13.5286 86.369 13.0539 86.369 12.5206C86.369 11.9339 86.5183 11.4379 86.817 11.0326C87.1263 10.6273 87.537 10.3179 88.049 10.1046C88.561 9.89128 89.1263 9.78461 89.745 9.78461C90.0863 9.78461 90.401 9.81128 90.689 9.86461C90.9877 9.90728 91.2437 9.96061 91.457 10.0246C91.681 10.0886 91.857 10.1579 91.985 10.2326V9.80061C91.985 9.26728 91.793 8.84061 91.409 8.52061C91.025 8.20061 90.529 8.04061 89.921 8.04061C89.505 8.04061 89.1103 8.13661 88.737 8.32861C88.3637 8.50994 88.065 8.76061 87.841 9.08061L86.657 8.16861C86.8917 7.83794 87.1743 7.55528 87.505 7.32061C87.8463 7.08594 88.225 6.90461 88.641 6.77661C89.0677 6.64861 89.5103 6.58461 89.969 6.58461C91.153 6.58461 92.065 6.87794 92.705 7.46461C93.345 8.04061 93.665 8.85128 93.665 9.89661V15.0006H91.985V13.9926H91.889C91.7503 14.2059 91.5583 14.4086 91.313 14.6006C91.0783 14.7926 90.7957 14.9473 90.465 15.0646C90.145 15.1926 89.7877 15.2566 89.393 15.2566ZM89.697 13.8486C90.145 13.8486 90.5397 13.7419 90.881 13.5286C91.233 13.3153 91.505 13.0379 91.697 12.6966C91.889 12.3446 91.985 11.9659 91.985 11.5606C91.7503 11.4219 91.4623 11.3099 91.121 11.2246C90.7903 11.1286 90.4383 11.0806 90.065 11.0806C89.361 11.0806 88.8597 11.2193 88.561 11.4966C88.2623 11.7739 88.113 12.1206 88.113 12.5366C88.113 12.9206 88.257 13.2353 88.545 13.4806C88.833 13.7259 89.217 13.8486 89.697 13.8486ZM95.7174 15.0006V3.54461H97.4454V10.2966L100.901 6.84061H103.045V6.93661L99.8934 10.0566L103.157 14.9046V15.0006H101.109L98.6774 11.2566L97.4454 12.4726V15.0006H95.7174ZM107.343 15.2566C106.34 15.2566 105.583 14.9579 105.071 14.3606C104.57 13.7526 104.319 12.9313 104.319 11.8966V6.84061H106.047V11.6566C106.047 12.3393 106.207 12.8459 106.527 13.1766C106.858 13.5073 107.268 13.6726 107.759 13.6726C108.207 13.6726 108.591 13.5606 108.911 13.3366C109.231 13.1019 109.476 12.7979 109.647 12.4246C109.828 12.0513 109.919 11.6513 109.919 11.2246V6.84061H111.631V15.0006H110.015V13.8966H109.919C109.77 14.1526 109.562 14.3819 109.295 14.5846C109.028 14.7873 108.73 14.9473 108.399 15.0646C108.068 15.1926 107.716 15.2566 107.343 15.2566ZM113.798 18.4566V6.84061H115.414V7.94461H115.51C115.66 7.70994 115.857 7.49128 116.102 7.28861C116.358 7.07528 116.657 6.90461 116.998 6.77661C117.34 6.64861 117.718 6.58461 118.134 6.58461C118.881 6.58461 119.548 6.77128 120.134 7.14461C120.721 7.51794 121.185 8.02994 121.526 8.68061C121.878 9.33128 122.054 10.0779 122.054 10.9206C122.054 11.7633 121.878 12.5099 121.526 13.1606C121.185 13.8113 120.721 14.3233 120.134 14.6966C119.548 15.0699 118.881 15.2566 118.134 15.2566C117.516 15.2566 116.977 15.1179 116.518 14.8406C116.06 14.5633 115.724 14.2539 115.51 13.9126H115.414L115.51 15.0486V18.4566H113.798ZM117.878 13.6726C118.305 13.6726 118.705 13.5606 119.078 13.3366C119.462 13.1126 119.766 12.7926 119.99 12.3766C120.225 11.9606 120.342 11.4753 120.342 10.9206C120.342 10.3553 120.225 9.86994 119.99 9.46461C119.766 9.04861 119.462 8.72861 119.078 8.50461C118.705 8.28061 118.305 8.16861 117.878 8.16861C117.452 8.16861 117.052 8.28061 116.678 8.50461C116.305 8.72861 116.001 9.04861 115.766 9.46461C115.532 9.86994 115.414 10.3553 115.414 10.9206C115.414 11.4859 115.532 11.9766 115.766 12.3926C116.001 12.7979 116.305 13.1126 116.678 13.3366C117.052 13.5606 117.452 13.6726 117.878 13.6726ZM126.352 15.2566C125.766 15.2566 125.243 15.1393 124.784 14.9046C124.336 14.6699 123.979 14.3499 123.712 13.9446C123.456 13.5286 123.328 13.0539 123.328 12.5206C123.328 11.9339 123.478 11.4379 123.776 11.0326C124.086 10.6273 124.496 10.3179 125.008 10.1046C125.52 9.89128 126.086 9.78461 126.704 9.78461C127.046 9.78461 127.36 9.81128 127.648 9.86461C127.947 9.90728 128.203 9.96061 128.416 10.0246C128.64 10.0886 128.816 10.1579 128.944 10.2326V9.80061C128.944 9.26728 128.752 8.84061 128.368 8.52061C127.984 8.20061 127.488 8.04061 126.88 8.04061C126.464 8.04061 126.07 8.13661 125.696 8.32861C125.323 8.50994 125.024 8.76061 124.8 9.08061L123.616 8.16861C123.851 7.83794 124.134 7.55528 124.464 7.32061C124.806 7.08594 125.184 6.90461 125.6 6.77661C126.027 6.64861 126.47 6.58461 126.928 6.58461C128.112 6.58461 129.024 6.87794 129.664 7.46461C130.304 8.04061 130.624 8.85128 130.624 9.89661V15.0006H128.944V13.9926H128.848C128.71 14.2059 128.518 14.4086 128.272 14.6006C128.038 14.7926 127.755 14.9473 127.424 15.0646C127.104 15.1926 126.747 15.2566 126.352 15.2566ZM126.656 13.8486C127.104 13.8486 127.499 13.7419 127.84 13.5286C128.192 13.3153 128.464 13.0379 128.656 12.6966C128.848 12.3446 128.944 11.9659 128.944 11.5606C128.71 11.4219 128.422 11.3099 128.08 11.2246C127.75 11.1286 127.398 11.0806 127.024 11.0806C126.32 11.0806 125.819 11.2193 125.52 11.4966C125.222 11.7739 125.072 12.1206 125.072 12.5366C125.072 12.9206 125.216 13.2353 125.504 13.4806C125.792 13.7259 126.176 13.8486 126.656 13.8486ZM139.537 15.2566C138.886 15.2566 138.321 15.1606 137.841 14.9686C137.361 14.7659 136.966 14.4993 136.657 14.1686C136.348 13.8273 136.118 13.4593 135.969 13.0646L137.521 12.3926C137.713 12.8299 137.985 13.1659 138.337 13.4006C138.7 13.6246 139.116 13.7366 139.585 13.7366C140.012 13.7366 140.38 13.6619 140.689 13.5126C140.998 13.3526 141.153 13.0966 141.153 12.7446C141.153 12.5206 141.078 12.3393 140.929 12.2006C140.79 12.0513 140.598 11.9286 140.353 11.8326C140.118 11.7366 139.846 11.6513 139.537 11.5766L138.561 11.3526C138.177 11.2566 137.809 11.1073 137.457 10.9046C137.116 10.6913 136.838 10.4246 136.625 10.1046C136.412 9.78461 136.305 9.40594 136.305 8.96861C136.305 8.47794 136.444 8.05661 136.721 7.70461C137.009 7.34194 137.393 7.06461 137.873 6.87261C138.353 6.68061 138.87 6.58461 139.425 6.58461C139.937 6.58461 140.401 6.65394 140.817 6.79261C141.244 6.92061 141.612 7.11794 141.921 7.38461C142.241 7.64061 142.492 7.96061 142.673 8.34461L141.185 9.01661C141.004 8.65394 140.758 8.40328 140.449 8.26461C140.14 8.11528 139.804 8.04061 139.441 8.04061C139.036 8.04061 138.694 8.12594 138.417 8.29661C138.15 8.45661 138.017 8.66994 138.017 8.93661C138.017 9.21394 138.134 9.43261 138.369 9.59261C138.614 9.75261 138.913 9.88061 139.265 9.97661L140.449 10.2646C141.26 10.4673 141.868 10.7766 142.273 11.1926C142.678 11.5979 142.881 12.0939 142.881 12.6806C142.881 13.2033 142.732 13.6619 142.433 14.0566C142.134 14.4406 141.729 14.7393 141.217 14.9526C140.716 15.1553 140.156 15.2566 139.537 15.2566ZM151.4 15.2566C150.749 15.2566 150.184 15.1606 149.704 14.9686C149.224 14.7659 148.829 14.4993 148.52 14.1686C148.21 13.8273 147.981 13.4593 147.832 13.0646L149.384 12.3926C149.576 12.8299 149.848 13.1659 150.2 13.4006C150.562 13.6246 150.978 13.7366 151.448 13.7366C151.874 13.7366 152.242 13.6619 152.552 13.5126C152.861 13.3526 153.016 13.0966 153.016 12.7446C153.016 12.5206 152.941 12.3393 152.792 12.2006C152.653 12.0513 152.461 11.9286 152.216 11.8326C151.981 11.7366 151.709 11.6513 151.4 11.5766L150.424 11.3526C150.04 11.2566 149.672 11.1073 149.32 10.9046C148.978 10.6913 148.701 10.4246 148.488 10.1046C148.274 9.78461 148.168 9.40594 148.168 8.96861C148.168 8.47794 148.306 8.05661 148.584 7.70461C148.872 7.34194 149.256 7.06461 149.736 6.87261C150.216 6.68061 150.733 6.58461 151.288 6.58461C151.8 6.58461 152.264 6.65394 152.68 6.79261C153.106 6.92061 153.474 7.11794 153.784 7.38461C154.104 7.64061 154.354 7.96061 154.536 8.34461L153.048 9.01661C152.866 8.65394 152.621 8.40328 152.312 8.26461C152.002 8.11528 151.666 8.04061 151.304 8.04061C150.898 8.04061 150.557 8.12594 150.28 8.29661C150.013 8.45661 149.88 8.66994 149.88 8.93661C149.88 9.21394 149.997 9.43261 150.232 9.59261C150.477 9.75261 150.776 9.88061 151.128 9.97661L152.312 10.2646C153.122 10.4673 153.73 10.7766 154.136 11.1926C154.541 11.5979 154.744 12.0939 154.744 12.6806C154.744 13.2033 154.594 13.6619 154.296 14.0566C153.997 14.4406 153.592 14.7393 153.08 14.9526C152.578 15.1553 152.018 15.2566 151.4 15.2566ZM155.764 6.84061H157.188V4.53661H158.916V6.84061H160.916V8.34461H158.916V12.2646C158.916 12.6699 158.996 12.9793 159.156 13.1926C159.326 13.4059 159.609 13.5126 160.004 13.5126C160.196 13.5126 160.366 13.4859 160.516 13.4326C160.665 13.3686 160.814 13.2939 160.964 13.2086V14.8886C160.782 14.9633 160.59 15.0219 160.388 15.0646C160.185 15.1073 159.945 15.1286 159.668 15.1286C158.91 15.1286 158.308 14.9099 157.86 14.4726C157.412 14.0246 157.188 13.4113 157.188 12.6326V8.34461H155.764V6.84061ZM166.251 15.2566C165.408 15.2566 164.667 15.0646 164.027 14.6806C163.387 14.2966 162.886 13.7793 162.523 13.1286C162.16 12.4673 161.979 11.7313 161.979 10.9206C161.979 10.1099 162.16 9.37928 162.523 8.72861C162.886 8.06728 163.387 7.54461 164.027 7.16061C164.667 6.77661 165.408 6.58461 166.251 6.58461C167.083 6.58461 167.819 6.78194 168.459 7.17661C169.099 7.56061 169.6 8.07794 169.963 8.72861C170.326 9.37928 170.507 10.1099 170.507 10.9206C170.507 11.7313 170.326 12.4673 169.963 13.1286C169.6 13.7793 169.099 14.2966 168.459 14.6806C167.819 15.0646 167.083 15.2566 166.251 15.2566ZM166.251 13.6726C166.699 13.6726 167.115 13.5659 167.499 13.3526C167.883 13.1286 168.192 12.8139 168.427 12.4086C168.672 11.9926 168.795 11.4966 168.795 10.9206C168.795 10.3446 168.672 9.85394 168.427 9.44861C168.192 9.03261 167.883 8.71794 167.499 8.50461C167.115 8.28061 166.699 8.16861 166.251 8.16861C165.803 8.16861 165.382 8.28061 164.987 8.50461C164.603 8.71794 164.288 9.03261 164.043 9.44861C163.808 9.85394 163.691 10.3446 163.691 10.9206C163.691 11.4966 163.808 11.9926 164.043 12.4086C164.288 12.8139 164.608 13.1286 165.003 13.3526C165.398 13.5659 165.814 13.6726 166.251 13.6726ZM172.092 15.0006V6.84061H173.724V8.04061H173.82C173.948 7.76328 174.13 7.51794 174.364 7.30461C174.61 7.09128 174.887 6.92061 175.196 6.79261C175.516 6.66461 175.847 6.60061 176.188 6.60061C176.412 6.60061 176.599 6.61661 176.748 6.64861C176.908 6.66994 177.052 6.70728 177.18 6.76061V8.55261C176.978 8.46728 176.77 8.39794 176.556 8.34461C176.354 8.29128 176.14 8.26461 175.916 8.26461C175.511 8.26461 175.148 8.37661 174.828 8.60061C174.519 8.81394 174.274 9.10194 174.092 9.46461C173.911 9.82728 173.82 10.2326 173.82 10.6806V15.0006H172.092ZM178.792 15.0006V6.84061H180.52V15.0006H178.792ZM179.656 5.64061C179.336 5.64061 179.059 5.52861 178.824 5.30461C178.6 5.06994 178.488 4.79261 178.488 4.47261C178.488 4.14194 178.6 3.86994 178.824 3.65661C179.059 3.43261 179.336 3.32061 179.656 3.32061C179.987 3.32061 180.264 3.43261 180.488 3.65661C180.712 3.86994 180.824 4.14194 180.824 4.47261C180.824 4.79261 180.712 5.06994 180.488 5.30461C180.264 5.52861 179.987 5.64061 179.656 5.64061ZM182.176 6.84061H183.6V4.53661H185.328V6.84061H187.328V8.34461H185.328V12.2646C185.328 12.6699 185.408 12.9793 185.568 13.1926C185.739 13.4059 186.021 13.5126 186.416 13.5126C186.608 13.5126 186.779 13.4859 186.928 13.4326C187.077 13.3686 187.227 13.2939 187.376 13.2086V14.8886C187.195 14.9633 187.003 15.0219 186.8 15.0646C186.597 15.1073 186.357 15.1286 186.08 15.1286C185.323 15.1286 184.72 14.9099 184.272 14.4726C183.824 14.0246 183.6 13.4113 183.6 12.6326V8.34461H182.176V6.84061ZM191.694 15.0006L188.318 6.84061H190.238L192.526 12.7766H192.606L194.942 6.84061H196.83L193.422 15.0006H191.694ZM198.227 15.0006V6.84061H199.955V15.0006H198.227ZM199.091 5.64061C198.771 5.64061 198.493 5.52861 198.259 5.30461C198.035 5.06994 197.923 4.79261 197.923 4.47261C197.923 4.14194 198.035 3.86994 198.259 3.65661C198.493 3.43261 198.771 3.32061 199.091 3.32061C199.421 3.32061 199.699 3.43261 199.923 3.65661C200.147 3.86994 200.259 4.14194 200.259 4.47261C200.259 4.79261 200.147 5.06994 199.923 5.30461C199.699 5.52861 199.421 5.64061 199.091 5.64061ZM201.689 18.6166C201.518 18.6166 201.363 18.6059 201.225 18.5846C201.075 18.5633 200.931 18.5366 200.793 18.5046V16.8406C200.889 16.8939 201.006 16.9419 201.145 16.9846C201.283 17.0273 201.417 17.0486 201.545 17.0486C201.843 17.0486 202.057 16.9526 202.185 16.7606C202.313 16.5793 202.377 16.3126 202.377 15.9606V6.84061H204.105V15.9766C204.105 16.6059 203.998 17.1126 203.785 17.4966C203.582 17.8806 203.299 18.1633 202.937 18.3446C202.574 18.5259 202.158 18.6166 201.689 18.6166ZM203.241 5.64061C202.921 5.64061 202.643 5.52861 202.409 5.30461C202.185 5.06994 202.073 4.79261 202.073 4.47261C202.073 4.14194 202.185 3.86994 202.409 3.65661C202.643 3.43261 202.921 3.32061 203.241 3.32061C203.571 3.32061 203.849 3.43261 204.073 3.65661C204.297 3.86994 204.409 4.14194 204.409 4.47261C204.409 4.79261 204.297 5.06994 204.073 5.30461C203.849 5.52861 203.571 5.64061 203.241 5.64061ZM210.161 15.2566C209.318 15.2566 208.577 15.0646 207.937 14.6806C207.297 14.2966 206.795 13.7793 206.433 13.1286C206.07 12.4673 205.889 11.7313 205.889 10.9206C205.889 10.1099 206.07 9.37928 206.433 8.72861C206.795 8.06728 207.297 7.54461 207.937 7.16061C208.577 6.77661 209.318 6.58461 210.161 6.58461C210.993 6.58461 211.729 6.78194 212.369 7.17661C213.009 7.56061 213.51 8.07794 213.873 8.72861C214.235 9.37928 214.417 10.1099 214.417 10.9206C214.417 11.7313 214.235 12.4673 213.873 13.1286C213.51 13.7793 213.009 14.2966 212.369 14.6806C211.729 15.0646 210.993 15.2566 210.161 15.2566ZM210.161 13.6726C210.609 13.6726 211.025 13.5659 211.409 13.3526C211.793 13.1286 212.102 12.8139 212.337 12.4086C212.582 11.9926 212.705 11.4966 212.705 10.9206C212.705 10.3446 212.582 9.85394 212.337 9.44861C212.102 9.03261 211.793 8.71794 211.409 8.50461C211.025 8.28061 210.609 8.16861 210.161 8.16861C209.713 8.16861 209.291 8.28061 208.897 8.50461C208.513 8.71794 208.198 9.03261 207.953 9.44861C207.718 9.85394 207.601 10.3446 207.601 10.9206C207.601 11.4966 207.718 11.9926 207.953 12.4086C208.198 12.8139 208.518 13.1286 208.913 13.3526C209.307 13.5659 209.723 13.6726 210.161 13.6726Z" fill="white"/>
<g id="GPay (Dark)">
<g id="GPay">
<g id="Pay">
<path id="Fill 1" fill-rule="evenodd" clip-rule="evenodd" d="M243.356 3.42339V8.16175H246.278C246.974 8.16175 247.55 7.92781 248.005 7.45993C248.473 6.99313 248.707 6.43644 248.707 5.79203C248.707 5.16061 248.473 4.61041 248.005 4.14254C247.55 3.66274 246.974 3.4223 246.278 3.4223H243.356V3.42339ZM243.356 9.82966V15.3262H241.611V1.75549H246.24C247.417 1.75549 248.415 2.14756 249.238 2.93061C250.073 3.71365 250.491 4.66782 250.491 5.79203C250.491 6.94224 250.073 7.90291 249.238 8.67296C248.428 9.44409 247.429 9.82858 246.24 9.82858H243.356V9.82966Z" fill="white"/>
<path id="Fill 3" fill-rule="evenodd" clip-rule="evenodd" d="M252.255 12.4831C252.255 12.9379 252.448 13.317 252.834 13.6203C253.22 13.9235 253.672 14.0752 254.19 14.0752C254.924 14.0752 255.578 13.8032 256.153 13.2607C256.729 12.717 257.017 12.0791 257.017 11.3469C256.472 10.917 255.713 10.7025 254.74 10.7025C254.031 10.7025 253.44 10.8736 252.966 11.2148C252.492 11.5559 252.255 11.9773 252.255 12.4831M254.513 5.73566C255.803 5.73566 256.821 6.08007 257.569 6.76889C258.314 7.45771 258.687 8.40213 258.687 9.60216V15.3261H257.018V14.0373H256.942C256.221 15.0985 255.259 15.6294 254.058 15.6294C253.033 15.6294 252.176 15.3261 251.487 14.7196C250.797 14.1131 250.453 13.3549 250.453 12.4452C250.453 11.4845 250.816 10.7208 251.543 10.1523C252.271 9.58375 253.241 9.2989 254.456 9.2989C255.492 9.2989 256.346 9.48844 257.017 9.86751V9.46894C257.017 8.86243 256.776 8.34798 256.296 7.92451C255.814 7.50103 255.252 7.28984 254.607 7.28984C253.633 7.28984 252.862 7.70032 252.293 8.52235L250.755 7.55519C251.603 6.34217 252.855 5.73566 254.513 5.73566" fill="white"/>
<path id="Fill 5" fill-rule="evenodd" clip-rule="evenodd" d="M268.269 6.03894L262.443 19.4201H260.641L262.804 14.738L258.971 6.03894H260.869L263.639 12.7106H263.677L266.371 6.03894H268.269Z" fill="white"/>
</g>
<g id="G">
<path id="Fill 8" fill-rule="evenodd" clip-rule="evenodd" d="M236.303 8.64473C236.303 8.09563 236.256 7.56601 236.168 7.05914H228.806V10.0625H233.023C232.842 11.0414 232.294 11.8744 231.464 12.4322V14.3828H233.98C235.454 13.0246 236.303 11.0177 236.303 8.64473" fill="#4285F4"/>
<path id="Fill 10" fill-rule="evenodd" clip-rule="evenodd" d="M228.806 16.2651C230.913 16.2651 232.687 15.5741 233.98 14.3828L231.464 12.4322C230.764 12.9033 229.861 13.1784 228.806 13.1784C226.77 13.1784 225.042 11.8073 224.424 9.95959H221.832V11.9687C223.116 14.516 225.757 16.2651 228.806 16.2651" fill="#34A853"/>
<path id="Fill 12" fill-rule="evenodd" clip-rule="evenodd" d="M224.424 9.9596C224.266 9.48847 224.179 8.98593 224.179 8.46715C224.179 7.94837 224.266 7.44583 224.424 6.9747V4.96564H221.832C221.3 6.01837 221 7.20756 221 8.46715C221 9.72674 221.3 10.916 221.832 11.9687L224.424 9.9596Z" fill="#FABB05"/>
<path id="Fill 14" fill-rule="evenodd" clip-rule="evenodd" d="M228.806 3.75583C229.957 3.75583 230.988 4.15115 231.801 4.92553V4.92661L234.029 2.70094C232.676 1.44243 230.912 0.669128 228.806 0.669128C225.757 0.669128 223.116 2.41826 221.832 4.9656L224.424 6.97467C225.042 5.12698 226.77 3.75583 228.806 3.75583" fill="#E94235"/>
</g>
</g>
</g>
</g>
</svg>
