<svg width="470" height="38" viewBox="0 0 470 38" fill="none" xmlns="http://www.w3.org/2000/svg">
<g id="sl_checkout_with_Dark">
<path id="Text" d="M1.46479 30V26.864L11.9648 12.864H1.91279V9.952H15.5208V13.088L5.10479 27.088H15.6328V30H1.46479ZM23.4878 30.448C22.4611 30.448 21.5464 30.252 20.7438 29.86C19.9411 29.4493 19.3158 28.88 18.8678 28.152C18.4198 27.424 18.1958 26.5933 18.1958 25.66C18.1958 24.652 18.4571 23.7933 18.9798 23.084C19.5211 22.356 20.2398 21.8053 21.1358 21.432C22.0318 21.0587 23.0211 20.872 24.1038 20.872C24.9998 20.872 25.7838 20.956 26.4558 21.124C27.1464 21.292 27.6691 21.4693 28.0238 21.656V20.9C28.0238 19.9667 27.6878 19.22 27.0158 18.66C26.3438 18.1 25.4758 17.82 24.4118 17.82C23.6838 17.82 22.9931 17.988 22.3398 18.324C21.6864 18.6413 21.1638 19.08 20.7718 19.64L18.6998 18.044C19.3158 17.1853 20.1278 16.5133 21.1358 16.028C22.1624 15.524 23.2824 15.272 24.4958 15.272C26.5678 15.272 28.1638 15.7853 29.2838 16.812C30.4038 17.82 30.9638 19.2387 30.9638 21.068V30H28.0238V28.236H27.8558C27.4824 28.8147 26.9224 29.328 26.1758 29.776C25.4291 30.224 24.5331 30.448 23.4878 30.448ZM24.0198 27.984C24.8038 27.984 25.4944 27.7973 26.0918 27.424C26.6891 27.0507 27.1558 26.5653 27.4918 25.968C27.8464 25.352 28.0238 24.6893 28.0238 23.98C27.5944 23.7373 27.0904 23.5413 26.5118 23.392C25.9331 23.224 25.3171 23.14 24.6638 23.14C23.4318 23.14 22.5544 23.392 22.0318 23.896C21.5091 24.3813 21.2478 24.9787 21.2478 25.688C21.2478 26.36 21.4998 26.9107 22.0038 27.34C22.5078 27.7693 23.1798 27.984 24.0198 27.984ZM34.5929 30V9.952H37.6169V21.768L43.6649 15.72H47.4169V15.888L41.9009 21.348L47.6129 29.832V30H44.0289L39.7729 23.448L37.6169 25.576V30H34.5929ZM49.8233 30V9.952H52.8473V30H49.8233ZM58.4484 13.62C57.8884 13.62 57.4031 13.424 56.9924 13.032C56.6004 12.6213 56.4044 12.136 56.4044 11.576C56.4044 11.016 56.6004 10.54 56.9924 10.148C57.4031 9.756 57.8884 9.56 58.4484 9.56C59.0084 9.56 59.4844 9.756 59.8764 10.148C60.2871 10.54 60.4924 11.016 60.4924 11.576C60.4924 12.136 60.2871 12.6213 59.8764 13.032C59.4844 13.424 59.0084 13.62 58.4484 13.62ZM55.7324 36.328C55.1538 36.328 54.6311 36.2627 54.1644 36.132V33.22C54.3511 33.332 54.5658 33.416 54.8084 33.472C55.0324 33.5467 55.2564 33.584 55.4804 33.584C56.0218 33.584 56.3951 33.416 56.6004 33.08C56.8244 32.7627 56.9364 32.296 56.9364 31.68V15.72H59.9604V31.708C59.9604 33.3507 59.5591 34.5267 58.7564 35.236C57.9538 35.964 56.9458 36.328 55.7324 36.328ZM69.1924 30.448C67.4378 30.448 66.1124 29.9253 65.2164 28.88C64.3391 27.816 63.9004 26.3787 63.9004 24.568V15.72H66.9244V24.148C66.9244 25.3613 67.2044 26.2573 67.7644 26.836C68.3431 27.396 69.0618 27.676 69.9204 27.676C70.6858 27.676 71.3484 27.48 71.9084 27.088C72.4871 26.6773 72.9258 26.1547 73.2244 25.52C73.5418 24.8667 73.7004 24.1573 73.7004 23.392V15.72H76.6964V30H73.8684V28.068H73.7004C73.2898 28.74 72.6738 29.3093 71.8524 29.776C71.0498 30.224 70.1631 30.448 69.1924 30.448ZM87.0259 30.448C85.5886 30.448 84.3192 30.1213 83.2179 29.468C82.1166 28.8147 81.2486 27.9187 80.6139 26.78C79.9792 25.6227 79.6619 24.316 79.6619 22.86C79.6619 21.404 79.9792 20.1067 80.6139 18.968C81.2486 17.8107 82.1166 16.9053 83.2179 16.252C84.3192 15.5987 85.5886 15.272 87.0259 15.272C88.6126 15.272 89.9472 15.6267 91.0299 16.336C92.1312 17.0453 92.9152 18.0067 93.3819 19.22L90.6379 20.34C89.9846 18.8093 88.7619 18.044 86.9699 18.044C86.1859 18.044 85.4672 18.2493 84.8139 18.66C84.1606 19.052 83.6379 19.612 83.2459 20.34C82.8539 21.0493 82.6579 21.8893 82.6579 22.86C82.6579 23.8307 82.8539 24.68 83.2459 25.408C83.6379 26.136 84.1606 26.696 84.8139 27.088C85.4672 27.48 86.1859 27.676 86.9699 27.676C87.8846 27.676 88.6592 27.4707 89.2939 27.06C89.9286 26.6307 90.4232 26.052 90.7779 25.324L93.4659 26.5C92.9619 27.6387 92.1592 28.5813 91.0579 29.328C89.9566 30.0747 88.6126 30.448 87.0259 30.448ZM85.7099 12.976L82.7139 9.588V9.392H85.5979L86.8859 11.128H87.1659L88.4819 9.392H91.3939V9.588L88.3699 12.976H85.7099ZM102.746 30.448C101.346 30.448 100.095 30.1213 98.9938 29.468C97.8925 28.8147 97.0245 27.9187 96.3898 26.78C95.7738 25.6413 95.4658 24.344 95.4658 22.888C95.4658 21.5253 95.7645 20.2653 96.3618 19.108C96.9592 17.9507 97.7898 17.0267 98.8538 16.336C99.9365 15.6267 101.178 15.272 102.578 15.272C104.052 15.272 105.303 15.5893 106.33 16.224C107.375 16.8587 108.168 17.7267 108.71 18.828C109.251 19.9293 109.522 21.1707 109.522 22.552C109.522 22.7573 109.512 22.944 109.494 23.112C109.494 23.28 109.484 23.4107 109.466 23.504H98.4338C98.5832 24.9227 99.0778 25.9867 99.9178 26.696C100.776 27.4053 101.747 27.76 102.83 27.76C103.8 27.76 104.603 27.5453 105.238 27.116C105.872 26.668 106.376 26.1173 106.75 25.464L109.242 26.668C108.626 27.788 107.786 28.7027 106.722 29.412C105.658 30.1027 104.332 30.448 102.746 30.448ZM102.606 17.848C101.598 17.848 100.739 18.156 100.03 18.772C99.3205 19.388 98.8445 20.2093 98.6018 21.236H106.526C106.488 20.7507 106.33 20.2467 106.05 19.724C105.77 19.2013 105.34 18.7627 104.762 18.408C104.202 18.0347 103.483 17.848 102.606 17.848ZM112.627 30V9.952H115.651V21.768L121.699 15.72H125.451V15.888L119.935 21.348L125.647 29.832V30H122.063L117.807 23.448L115.651 25.576V30H112.627ZM134.665 30V15.72H137.521V17.68H137.689C138.099 16.9893 138.706 16.42 139.509 15.972C140.33 15.5053 141.226 15.272 142.197 15.272C143.951 15.272 145.267 15.7947 146.145 16.84C147.022 17.8853 147.461 19.2667 147.461 20.984V30H144.465V21.376C144.465 20.2187 144.175 19.3787 143.597 18.856C143.018 18.3147 142.262 18.044 141.329 18.044C140.601 18.044 139.966 18.2493 139.425 18.66C138.883 19.052 138.454 19.5747 138.137 20.228C137.838 20.8813 137.689 21.5813 137.689 22.328V30H134.665ZM155.55 30.448C154.524 30.448 153.609 30.252 152.806 29.86C152.004 29.4493 151.378 28.88 150.93 28.152C150.482 27.424 150.258 26.5933 150.258 25.66C150.258 24.652 150.52 23.7933 151.042 23.084C151.584 22.356 152.302 21.8053 153.198 21.432C154.094 21.0587 155.084 20.872 156.166 20.872C157.062 20.872 157.846 20.956 158.518 21.124C159.209 21.292 159.732 21.4693 160.086 21.656V20.9C160.086 19.9667 159.75 19.22 159.078 18.66C158.406 18.1 157.538 17.82 156.474 17.82C155.746 17.82 155.056 17.988 154.402 18.324C153.749 18.6413 153.226 19.08 152.834 19.64L150.762 18.044C151.378 17.1853 152.19 16.5133 153.198 16.028C154.225 15.524 155.345 15.272 156.558 15.272C158.63 15.272 160.226 15.7853 161.346 16.812C162.466 17.82 163.026 19.2387 163.026 21.068V30H160.086V28.236H159.918C159.545 28.8147 158.985 29.328 158.238 29.776C157.492 30.224 156.596 30.448 155.55 30.448ZM156.082 27.984C156.866 27.984 157.557 27.7973 158.154 27.424C158.752 27.0507 159.218 26.5653 159.554 25.968C159.909 25.352 160.086 24.6893 160.086 23.98C159.657 23.7373 159.153 23.5413 158.574 23.392C157.996 23.224 157.38 23.14 156.726 23.14C155.494 23.14 154.617 23.392 154.094 23.896C153.572 24.3813 153.31 24.9787 153.31 25.688C153.31 26.36 153.562 26.9107 154.066 27.34C154.57 27.7693 155.242 27.984 156.082 27.984ZM166.655 30V9.952H169.679V21.768L175.727 15.72H179.479V15.888L173.963 21.348L179.675 29.832V30H176.091L171.835 23.448L169.679 25.576V30H166.655ZM187.038 30.448C185.283 30.448 183.958 29.9253 183.062 28.88C182.184 27.816 181.746 26.3787 181.746 24.568V15.72H184.77V24.148C184.77 25.3613 185.05 26.2573 185.61 26.836C186.188 27.396 186.907 27.676 187.766 27.676C188.531 27.676 189.194 27.48 189.754 27.088C190.332 26.6773 190.771 26.1547 191.07 25.52C191.387 24.8667 191.546 24.1573 191.546 23.392V15.72H194.542V30H191.714V28.068H191.546C191.135 28.74 190.519 29.3093 189.698 29.776C188.895 30.224 188.008 30.448 187.038 30.448ZM198.372 36.048V15.72H201.2V17.652H201.368C201.741 17.036 202.32 16.4853 203.104 16C203.907 15.5147 204.859 15.272 205.96 15.272C207.267 15.272 208.433 15.5987 209.46 16.252C210.487 16.9053 211.299 17.8013 211.896 18.94C212.512 20.0787 212.82 21.3853 212.82 22.86C212.82 24.3347 212.512 25.6507 211.896 26.808C211.299 27.9467 210.487 28.8427 209.46 29.496C208.433 30.1307 207.267 30.448 205.96 30.448C204.859 30.448 203.907 30.2147 203.104 29.748C202.32 29.2627 201.741 28.712 201.368 28.096H201.2L201.368 30.084V36.048H198.372ZM205.512 27.676C206.259 27.676 206.959 27.48 207.612 27.088C208.265 26.696 208.797 26.1453 209.208 25.436C209.619 24.708 209.824 23.8493 209.824 22.86C209.824 21.8707 209.619 21.0213 209.208 20.312C208.797 19.584 208.265 19.024 207.612 18.632C206.959 18.24 206.259 18.044 205.512 18.044C204.765 18.044 204.065 18.24 203.412 18.632C202.759 19.024 202.227 19.584 201.816 20.312C201.405 21.0213 201.2 21.8707 201.2 22.86C201.2 23.8493 201.405 24.708 201.816 25.436C202.227 26.1453 202.759 26.696 203.412 27.088C204.065 27.48 204.765 27.676 205.512 27.676ZM220.379 30.448C219.352 30.448 218.438 30.252 217.635 29.86C216.832 29.4493 216.207 28.88 215.759 28.152C215.311 27.424 215.087 26.5933 215.087 25.66C215.087 24.652 215.348 23.7933 215.871 23.084C216.412 22.356 217.131 21.8053 218.027 21.432C218.923 21.0587 219.912 20.872 220.995 20.872C221.891 20.872 222.675 20.956 223.347 21.124C224.038 21.292 224.56 21.4693 224.915 21.656V20.9C224.915 19.9667 224.579 19.22 223.907 18.66C223.235 18.1 222.367 17.82 221.303 17.82C220.575 17.82 219.884 17.988 219.231 18.324C218.578 18.6413 218.055 19.08 217.663 19.64L215.591 18.044C216.207 17.1853 217.019 16.5133 218.027 16.028C219.054 15.524 220.174 15.272 221.387 15.272C223.459 15.272 225.055 15.7853 226.175 16.812C227.295 17.82 227.855 19.2387 227.855 21.068V30H224.915V28.236H224.747C224.374 28.8147 223.814 29.328 223.067 29.776C222.32 30.224 221.424 30.448 220.379 30.448ZM220.911 27.984C221.695 27.984 222.386 27.7973 222.983 27.424C223.58 27.0507 224.047 26.5653 224.383 25.968C224.738 25.352 224.915 24.6893 224.915 23.98C224.486 23.7373 223.982 23.5413 223.403 23.392C222.824 23.224 222.208 23.14 221.555 23.14C220.323 23.14 219.446 23.392 218.923 23.896C218.4 24.3813 218.139 24.9787 218.139 25.688C218.139 26.36 218.391 26.9107 218.895 27.34C219.399 27.7693 220.071 27.984 220.911 27.984ZM243.527 30.448C241.81 30.448 240.438 30.0747 239.411 29.328C238.385 28.5627 237.675 27.6573 237.283 26.612L239.999 25.436C240.335 26.2013 240.821 26.7893 241.455 27.2C242.09 27.592 242.809 27.788 243.611 27.788C244.358 27.788 245.002 27.6573 245.543 27.396C246.085 27.116 246.355 26.668 246.355 26.052C246.355 25.4547 246.085 25.016 245.543 24.736C245.002 24.456 244.33 24.2133 243.527 24.008L241.819 23.616C241.129 23.448 240.485 23.1867 239.887 22.832C239.29 22.4773 238.805 22.02 238.431 21.46C238.058 20.8813 237.871 20.2093 237.871 19.444C237.871 18.604 238.123 17.876 238.627 17.26C239.131 16.6253 239.794 16.14 240.615 15.804C241.455 15.4493 242.361 15.272 243.331 15.272C244.657 15.272 245.814 15.5333 246.803 16.056C247.811 16.56 248.549 17.3253 249.015 18.352L246.411 19.528C246.075 18.8933 245.637 18.4547 245.095 18.212C244.573 17.9507 243.994 17.82 243.359 17.82C242.65 17.82 242.053 17.9693 241.567 18.268C241.101 18.5667 240.867 18.94 240.867 19.388C240.867 19.8733 241.073 20.256 241.483 20.536C241.913 20.816 242.435 21.04 243.051 21.208L245.123 21.712C246.542 22.0667 247.606 22.608 248.315 23.336C249.025 24.0453 249.379 24.9133 249.379 25.94C249.379 26.8547 249.118 27.6573 248.595 28.348C248.073 29.02 247.363 29.5427 246.467 29.916C245.59 30.2707 244.61 30.448 243.527 30.448ZM264.362 30.448C262.645 30.448 261.273 30.0747 260.246 29.328C259.219 28.5627 258.51 27.6573 258.118 26.612L260.834 25.436C261.17 26.2013 261.655 26.7893 262.29 27.2C262.925 27.592 263.643 27.788 264.446 27.788C265.193 27.788 265.837 27.6573 266.378 27.396C266.919 27.116 267.19 26.668 267.19 26.052C267.19 25.4547 266.919 25.016 266.378 24.736C265.837 24.456 265.165 24.2133 264.362 24.008L262.654 23.616C261.963 23.448 261.319 23.1867 260.722 22.832C260.125 22.4773 259.639 22.02 259.266 21.46C258.893 20.8813 258.706 20.2093 258.706 19.444C258.706 18.604 258.958 17.876 259.462 17.26C259.966 16.6253 260.629 16.14 261.45 15.804C262.29 15.4493 263.195 15.272 264.166 15.272C265.491 15.272 266.649 15.5333 267.638 16.056C268.646 16.56 269.383 17.3253 269.85 18.352L267.246 19.528C266.91 18.8933 266.471 18.4547 265.93 18.212C265.407 17.9507 264.829 17.82 264.194 17.82C263.485 17.82 262.887 17.9693 262.402 18.268C261.935 18.5667 261.702 18.94 261.702 19.388C261.702 19.8733 261.907 20.256 262.318 20.536C262.747 20.816 263.27 21.04 263.886 21.208L265.958 21.712C267.377 22.0667 268.441 22.608 269.15 23.336C269.859 24.0453 270.214 24.9133 270.214 25.94C270.214 26.8547 269.953 27.6573 269.43 28.348C268.907 29.02 268.198 29.5427 267.302 29.916C266.425 30.2707 265.445 30.448 264.362 30.448ZM274.528 25.856V18.352H272.036V15.72H274.528V11.688H277.552V15.72H281.052V18.352H277.552V25.212C277.552 25.9213 277.692 26.4627 277.972 26.836C278.271 27.2093 278.766 27.396 279.456 27.396C279.811 27.396 280.11 27.3493 280.352 27.256C280.614 27.1627 280.875 27.032 281.136 26.864V29.804C280.819 29.9347 280.483 30.0373 280.128 30.112C279.774 30.1867 279.354 30.224 278.868 30.224C277.543 30.224 276.488 29.8413 275.704 29.076C274.92 28.292 274.528 27.2187 274.528 25.856ZM290.427 30.448C288.952 30.448 287.655 30.112 286.535 29.44C285.415 28.768 284.538 27.8627 283.903 26.724C283.268 25.5853 282.951 24.2973 282.951 22.86C282.951 21.4413 283.268 20.1627 283.903 19.024C284.538 17.8667 285.415 16.952 286.535 16.28C287.655 15.608 288.952 15.272 290.427 15.272C291.883 15.272 293.171 15.608 294.291 16.28C295.411 16.952 296.288 17.8667 296.923 19.024C297.558 20.1627 297.875 21.4413 297.875 22.86C297.875 24.2973 297.558 25.5853 296.923 26.724C296.288 27.8627 295.411 28.768 294.291 29.44C293.171 30.112 291.883 30.448 290.427 30.448ZM290.427 27.676C291.211 27.676 291.939 27.4893 292.611 27.116C293.283 26.724 293.824 26.1733 294.235 25.464C294.664 24.736 294.879 23.868 294.879 22.86C294.879 21.852 294.664 20.9933 294.235 20.284C293.824 19.556 293.283 19.0053 292.611 18.632C291.939 18.24 291.211 18.044 290.427 18.044C289.643 18.044 288.906 18.24 288.215 18.632C287.543 19.0053 286.992 19.556 286.563 20.284C286.152 20.9933 285.947 21.852 285.947 22.86C285.947 23.868 286.152 24.736 286.563 25.464C286.992 26.1733 287.543 26.724 288.215 27.116C288.906 27.4893 289.643 27.676 290.427 27.676ZM300.687 30V15.72H303.543V17.82H303.711C304.028 17.092 304.569 16.4947 305.335 16.028C306.119 15.5427 306.959 15.3 307.855 15.3C308.247 15.3 308.573 15.328 308.835 15.384C309.115 15.44 309.367 15.5053 309.591 15.58V18.716C309.236 18.5667 308.872 18.4453 308.499 18.352C308.144 18.2587 307.771 18.212 307.379 18.212C306.669 18.212 306.035 18.408 305.475 18.8C304.933 19.1733 304.504 19.6867 304.187 20.34C303.869 20.9747 303.711 21.6747 303.711 22.44V30H300.687ZM313.961 13.62C313.401 13.62 312.916 13.424 312.505 13.032C312.113 12.6213 311.917 12.136 311.917 11.576C311.917 11.016 312.113 10.54 312.505 10.148C312.916 9.756 313.401 9.56 313.961 9.56C314.521 9.56 314.997 9.756 315.389 10.148C315.8 10.54 316.005 11.016 316.005 11.576C316.005 12.136 315.8 12.6213 315.389 13.032C314.997 13.424 314.521 13.62 313.961 13.62ZM312.449 30V15.72H315.473V30H312.449ZM320.9 25.856V18.352H318.408V15.72H320.9V11.688H323.924V15.72H327.424V18.352H323.924V25.212C323.924 25.9213 324.064 26.4627 324.344 26.836C324.643 27.2093 325.138 27.396 325.828 27.396C326.183 27.396 326.482 27.3493 326.724 27.256C326.986 27.1627 327.247 27.032 327.508 26.864V29.804C327.191 29.9347 326.855 30.0373 326.5 30.112C326.146 30.1867 325.726 30.224 325.24 30.224C323.915 30.224 322.86 29.8413 322.076 29.076C321.292 28.292 320.9 27.2187 320.9 25.856ZM335.102 30L329.194 15.72H332.554L336.558 26.108H336.698L340.786 15.72H344.09L338.126 30H335.102ZM348.084 13.62C347.524 13.62 347.038 13.424 346.628 13.032C346.236 12.6213 346.04 12.136 346.04 11.576C346.04 11.016 346.236 10.54 346.628 10.148C347.038 9.756 347.524 9.56 348.084 9.56C348.644 9.56 349.12 9.756 349.512 10.148C349.922 10.54 350.128 11.016 350.128 11.576C350.128 12.136 349.922 12.6213 349.512 13.032C349.12 13.424 348.644 13.62 348.084 13.62ZM346.572 30V15.72H349.596V30H346.572ZM355.384 13.62C354.824 13.62 354.338 13.424 353.928 13.032C353.536 12.6213 353.34 12.136 353.34 11.576C353.34 11.016 353.536 10.54 353.928 10.148C354.338 9.756 354.824 9.56 355.384 9.56C355.944 9.56 356.42 9.756 356.812 10.148C357.222 10.54 357.428 11.016 357.428 11.576C357.428 12.136 357.222 12.6213 356.812 13.032C356.42 13.424 355.944 13.62 355.384 13.62ZM352.668 36.328C352.089 36.328 351.566 36.2627 351.1 36.132V33.22C351.286 33.332 351.501 33.416 351.744 33.472C351.968 33.5467 352.192 33.584 352.416 33.584C352.957 33.584 353.33 33.416 353.536 33.08C353.76 32.7627 353.872 32.296 353.872 31.68V15.72H356.896V31.708C356.896 33.3507 356.494 34.5267 355.692 35.236C354.889 35.964 353.881 36.328 352.668 36.328ZM367.531 30.448C366.056 30.448 364.759 30.112 363.639 29.44C362.519 28.768 361.642 27.8627 361.007 26.724C360.372 25.5853 360.055 24.2973 360.055 22.86C360.055 21.4413 360.372 20.1627 361.007 19.024C361.642 17.8667 362.519 16.952 363.639 16.28C364.759 15.608 366.056 15.272 367.531 15.272C368.987 15.272 370.275 15.608 371.395 16.28C372.515 16.952 373.392 17.8667 374.027 19.024C374.662 20.1627 374.979 21.4413 374.979 22.86C374.979 24.2973 374.662 25.5853 374.027 26.724C373.392 27.8627 372.515 28.768 371.395 29.44C370.275 30.112 368.987 30.448 367.531 30.448ZM367.531 27.676C368.315 27.676 369.043 27.4893 369.715 27.116C370.387 26.724 370.928 26.1733 371.339 25.464C371.768 24.736 371.983 23.868 371.983 22.86C371.983 21.852 371.768 20.9933 371.339 20.284C370.928 19.556 370.387 19.0053 369.715 18.632C369.043 18.24 368.315 18.044 367.531 18.044C366.747 18.044 366.01 18.24 365.319 18.632C364.647 19.0053 364.096 19.556 363.667 20.284C363.256 20.9933 363.051 21.852 363.051 22.86C363.051 23.868 363.256 24.736 363.667 25.464C364.096 26.1733 364.647 26.724 365.319 27.116C366.01 27.4893 366.747 27.676 367.531 27.676Z" fill="white"/>
<g id="GPay Logo (Dark)">
<g id="GPay">
<g id="Pay">
<path id="Fill 1" fill-rule="evenodd" clip-rule="evenodd" d="M426.529 9.34665V17.5128H431.565C432.765 17.5128 433.757 17.1096 434.541 16.3032C435.347 15.4988 435.75 14.5394 435.75 13.4288C435.75 12.3406 435.347 11.3924 434.541 10.586C433.757 9.75916 432.765 9.34479 431.565 9.34479H426.529V9.34665ZM426.529 20.3872V29.8599H423.521V6.47218H431.499C433.527 6.47218 435.248 7.14787 436.666 8.49738C438.105 9.84688 438.824 11.4913 438.824 13.4288C438.824 15.411 438.105 17.0667 436.666 18.3938C435.27 19.7227 433.547 20.3854 431.499 20.3854H426.529V20.3872Z" fill="white"/>
<path id="Fill 3" fill-rule="evenodd" clip-rule="evenodd" d="M441.864 24.9602C441.864 25.7442 442.197 26.3975 442.862 26.9201C443.527 27.4427 444.306 27.704 445.2 27.704C446.465 27.704 447.591 27.2354 448.584 26.3004C449.576 25.3634 450.071 24.264 450.071 23.0022C449.133 22.2612 447.825 21.8916 446.147 21.8916C444.925 21.8916 443.907 22.1866 443.09 22.7745C442.273 23.3623 441.864 24.0886 441.864 24.9602ZM445.756 13.3317C447.98 13.3317 449.735 13.9253 451.022 15.1124C452.308 16.2995 452.95 17.9271 452.95 19.9952V29.8599H450.073V27.6387H449.942C448.699 29.4677 447.042 30.3825 444.972 30.3825C443.206 30.3825 441.728 29.8599 440.541 28.8146C439.353 27.7694 438.759 26.4628 438.759 24.8949C438.759 23.2393 439.385 21.9232 440.638 20.9434C441.892 19.9635 443.565 19.4726 445.658 19.4726C447.444 19.4726 448.916 19.7993 450.071 20.4525V19.7657C450.071 18.7204 449.656 17.8338 448.829 17.104C447.999 16.3742 447.031 16.0102 445.919 16.0102C444.239 16.0102 442.911 16.7176 441.93 18.1343L439.28 16.4675C440.741 14.377 442.899 13.3317 445.756 13.3317Z" fill="white"/>
<path id="Fill 5" fill-rule="evenodd" clip-rule="evenodd" d="M469.463 13.8543L459.423 36.9154H456.318L460.046 28.8464L453.44 13.8543H456.71L461.484 25.3522H461.55L466.193 13.8543H469.463Z" fill="white"/>
</g>
<g id="G">
<path id="Fill 8" fill-rule="evenodd" clip-rule="evenodd" d="M414.373 18.3452C414.373 17.3989 414.293 16.4861 414.141 15.6126H401.454V20.7885H408.72C408.408 22.4757 407.465 23.9112 406.033 24.8725V28.2341H410.37C412.91 25.8935 414.373 22.4348 414.373 18.3452Z" fill="#4285F4"/>
<path id="Fill 10" fill-rule="evenodd" clip-rule="evenodd" d="M401.454 31.4782C405.084 31.4782 408.141 30.2873 410.37 28.2341L406.033 24.8725C404.826 25.6844 403.272 26.1585 401.454 26.1585C397.944 26.1585 394.966 23.7955 393.901 20.6112H389.433V24.0736C391.647 28.4637 396.197 31.4782 401.454 31.4782Z" fill="#34A853"/>
<path id="Fill 12" fill-rule="evenodd" clip-rule="evenodd" d="M393.901 20.6111C393.628 19.7992 393.479 18.9331 393.479 18.0391C393.479 17.145 393.628 16.2789 393.901 15.467V12.0045H389.433C388.518 13.8188 388 15.8683 388 18.0391C388 20.2098 388.518 22.2595 389.433 24.0736L393.901 20.6111Z" fill="#FABB05"/>
<path id="Fill 14" fill-rule="evenodd" clip-rule="evenodd" d="M401.454 9.91964C403.436 9.91964 405.213 10.6009 406.615 11.9355V11.9374L410.455 8.10163C408.123 5.93272 405.082 4.60001 401.454 4.60001C396.197 4.60001 391.647 7.61447 389.433 12.0046L393.901 15.467C394.966 12.2827 397.944 9.91964 401.454 9.91964Z" fill="#E94235"/>
</g>
</g>
</g>
</g>
</svg>
