<svg width="203" height="21" viewBox="0 0 203 21" fill="none" xmlns="http://www.w3.org/2000/svg">
<g id="sl_donate_with_Pay_NBG">
<path id="Left Text" d="M1.49913 15.0006V3.54461H5.16313C6.36846 3.54461 7.40313 3.78994 8.26713 4.28061C9.14179 4.76061 9.81379 5.43261 10.2831 6.29661C10.7631 7.16061 11.0031 8.15261 11.0031 9.27261C11.0031 10.3926 10.7631 11.3846 10.2831 12.2486C9.81379 13.1126 9.14179 13.7899 8.26713 14.2806C7.40313 14.7606 6.36846 15.0006 5.16313 15.0006H1.49913ZM3.25913 13.3366H5.11513C5.97913 13.3366 6.72046 13.1766 7.33913 12.8566C7.95779 12.5259 8.42713 12.0566 8.74713 11.4486C9.06713 10.8406 9.22713 10.1153 9.22713 9.27261C9.22713 8.42994 9.06713 7.70461 8.74713 7.09661C8.42713 6.48861 7.95779 6.02461 7.33913 5.70461C6.72046 5.37394 5.97913 5.20861 5.11513 5.20861H3.25913V13.3366ZM16.4824 15.2566C15.6397 15.2566 14.8984 15.0646 14.2584 14.6806C13.6184 14.2966 13.117 13.7793 12.7544 13.1286C12.3917 12.4673 12.2104 11.7313 12.2104 10.9206C12.2104 10.1099 12.3917 9.37928 12.7544 8.72861C13.117 8.06728 13.6184 7.54461 14.2584 7.16061C14.8984 6.77661 15.6397 6.58461 16.4824 6.58461C17.3144 6.58461 18.0504 6.78194 18.6904 7.17661C19.3304 7.56061 19.8317 8.07794 20.1944 8.72861C20.557 9.37928 20.7384 10.1099 20.7384 10.9206C20.7384 11.7313 20.557 12.4673 20.1944 13.1286C19.8317 13.7793 19.3304 14.2966 18.6904 14.6806C18.0504 15.0646 17.3144 15.2566 16.4824 15.2566ZM16.4824 13.6726C16.9304 13.6726 17.3464 13.5659 17.7304 13.3526C18.1144 13.1286 18.4237 12.8139 18.6584 12.4086C18.9037 11.9926 19.0264 11.4966 19.0264 10.9206C19.0264 10.3446 18.9037 9.85394 18.6584 9.44861C18.4237 9.03261 18.1144 8.71794 17.7304 8.50461C17.3464 8.28061 16.9304 8.16861 16.4824 8.16861C16.0344 8.16861 15.613 8.28061 15.2184 8.50461C14.8344 8.71794 14.5197 9.03261 14.2744 9.44861C14.0397 9.85394 13.9224 10.3446 13.9224 10.9206C13.9224 11.4966 14.0397 11.9926 14.2744 12.4086C14.5197 12.8139 14.8397 13.1286 15.2344 13.3526C15.629 13.5659 16.045 13.6726 16.4824 13.6726ZM22.3236 15.0006V6.84061H23.9556V7.96061H24.0516C24.2863 7.56594 24.633 7.24061 25.0916 6.98461C25.561 6.71794 26.073 6.58461 26.6276 6.58461C27.6303 6.58461 28.3823 6.88328 28.8836 7.48061C29.385 8.06728 29.6356 8.85661 29.6356 9.84861V15.0006H27.9236V10.0726C27.9236 9.41128 27.7583 8.93128 27.4276 8.63261C27.097 8.32328 26.665 8.16861 26.1316 8.16861C25.7156 8.16861 25.353 8.28594 25.0436 8.52061C24.7343 8.74461 24.489 9.04328 24.3076 9.41661C24.137 9.78994 24.0516 10.1899 24.0516 10.6166V15.0006H22.3236ZM34.2368 15.2566C33.6501 15.2566 33.1274 15.1393 32.6688 14.9046C32.2208 14.6699 31.8634 14.3499 31.5968 13.9446C31.3408 13.5286 31.2128 13.0539 31.2128 12.5206C31.2128 11.9339 31.3621 11.4379 31.6608 11.0326C31.9701 10.6273 32.3808 10.3179 32.8928 10.1046C33.4048 9.89128 33.9701 9.78461 34.5888 9.78461C34.9301 9.78461 35.2448 9.81128 35.5328 9.86461C35.8314 9.90728 36.0874 9.96061 36.3008 10.0246C36.5248 10.0886 36.7008 10.1579 36.8288 10.2326V9.80061C36.8288 9.26728 36.6368 8.84061 36.2528 8.52061C35.8688 8.20061 35.3728 8.04061 34.7648 8.04061C34.3488 8.04061 33.9541 8.13661 33.5808 8.32861C33.2074 8.50994 32.9088 8.76061 32.6848 9.08061L31.5008 8.16861C31.7354 7.83794 32.0181 7.55528 32.3488 7.32061C32.6901 7.08594 33.0688 6.90461 33.4848 6.77661C33.9114 6.64861 34.3541 6.58461 34.8128 6.58461C35.9968 6.58461 36.9088 6.87794 37.5488 7.46461C38.1888 8.04061 38.5088 8.85128 38.5088 9.89661V15.0006H36.8288V13.9926H36.7328C36.5941 14.2059 36.4021 14.4086 36.1568 14.6006C35.9221 14.7926 35.6394 14.9473 35.3088 15.0646C34.9888 15.1926 34.6314 15.2566 34.2368 15.2566ZM34.5408 13.8486C34.9888 13.8486 35.3834 13.7419 35.7248 13.5286C36.0768 13.3153 36.3488 13.0379 36.5408 12.6966C36.7328 12.3446 36.8288 11.9659 36.8288 11.5606C36.5941 11.4219 36.3061 11.3099 35.9648 11.2246C35.6341 11.1286 35.2821 11.0806 34.9088 11.0806C34.2048 11.0806 33.7034 11.2193 33.4048 11.4966C33.1061 11.7739 32.9568 12.1206 32.9568 12.5366C32.9568 12.9206 33.1008 13.2353 33.3888 13.4806C33.6768 13.7259 34.0608 13.8486 34.5408 13.8486ZM44.259 15.2566C43.4377 15.2566 42.707 15.0699 42.067 14.6966C41.4377 14.3233 40.9417 13.8113 40.579 13.1606C40.227 12.4993 40.051 11.7526 40.051 10.9206C40.051 10.0886 40.227 9.34728 40.579 8.69661C40.9417 8.04594 41.4377 7.53394 42.067 7.16061C42.707 6.77661 43.4377 6.58461 44.259 6.58461C45.1657 6.58461 45.9283 6.78728 46.547 7.19261C47.1763 7.59794 47.6243 8.14728 47.891 8.84061L46.323 9.48061C46.131 9.04328 45.8537 8.71794 45.491 8.50461C45.139 8.28061 44.7177 8.16861 44.227 8.16861C43.779 8.16861 43.3683 8.28594 42.995 8.52061C42.6217 8.74461 42.323 9.05928 42.099 9.46461C41.875 9.86994 41.763 10.3553 41.763 10.9206C41.763 11.4753 41.875 11.9606 42.099 12.3766C42.323 12.7926 42.6217 13.1126 42.995 13.3366C43.3683 13.5606 43.779 13.6726 44.227 13.6726C44.7497 13.6726 45.1923 13.5553 45.555 13.3206C45.9177 13.0859 46.2003 12.7553 46.403 12.3286L47.939 13.0006C47.6403 13.6513 47.1763 14.1899 46.547 14.6166C45.9283 15.0433 45.1657 15.2566 44.259 15.2566ZM49.6985 15.0006V6.84061H51.4265V15.0006H49.6985ZM50.5625 5.64061C50.2425 5.64061 49.9652 5.52861 49.7305 5.30461C49.5065 5.06994 49.3945 4.79261 49.3945 4.47261C49.3945 4.14194 49.5065 3.86994 49.7305 3.65661C49.9652 3.43261 50.2425 3.32061 50.5625 3.32061C50.8932 3.32061 51.1705 3.43261 51.3945 3.65661C51.6185 3.86994 51.7305 4.14194 51.7305 4.47261C51.7305 4.79261 51.6185 5.06994 51.3945 5.30461C51.1705 5.52861 50.8932 5.64061 50.5625 5.64061ZM53.1605 18.6166C52.9898 18.6166 52.8352 18.6059 52.6965 18.5846C52.5472 18.5633 52.4032 18.5366 52.2645 18.5046V16.8406C52.3605 16.8939 52.4778 16.9419 52.6165 16.9846C52.7552 17.0273 52.8885 17.0486 53.0165 17.0486C53.3152 17.0486 53.5285 16.9526 53.6565 16.7606C53.7845 16.5793 53.8485 16.3126 53.8485 15.9606V6.84061H55.5765V15.9766C55.5765 16.6059 55.4698 17.1126 55.2565 17.4966C55.0538 17.8806 54.7712 18.1633 54.4085 18.3446C54.0458 18.5259 53.6298 18.6166 53.1605 18.6166ZM54.7125 5.64061C54.3925 5.64061 54.1152 5.52861 53.8805 5.30461C53.6565 5.06994 53.5445 4.79261 53.5445 4.47261C53.5445 4.14194 53.6565 3.86994 53.8805 3.65661C54.1152 3.43261 54.3925 3.32061 54.7125 3.32061C55.0432 3.32061 55.3205 3.43261 55.5445 3.65661C55.7685 3.86994 55.8805 4.14194 55.8805 4.47261C55.8805 4.79261 55.7685 5.06994 55.5445 5.30461C55.3205 5.52861 55.0432 5.64061 54.7125 5.64061ZM60.3524 15.2566C59.7657 15.2566 59.243 15.1393 58.7844 14.9046C58.3364 14.6699 57.979 14.3499 57.7124 13.9446C57.4564 13.5286 57.3284 13.0539 57.3284 12.5206C57.3284 11.9339 57.4777 11.4379 57.7764 11.0326C58.0857 10.6273 58.4964 10.3179 59.0084 10.1046C59.5204 9.89128 60.0857 9.78461 60.7044 9.78461C61.0457 9.78461 61.3604 9.81128 61.6484 9.86461C61.947 9.90728 62.203 9.96061 62.4164 10.0246C62.6404 10.0886 62.8164 10.1579 62.9444 10.2326V9.80061C62.9444 9.26728 62.7524 8.84061 62.3684 8.52061C61.9844 8.20061 61.4884 8.04061 60.8804 8.04061C60.4644 8.04061 60.0697 8.13661 59.6964 8.32861C59.323 8.50994 59.0244 8.76061 58.8004 9.08061L57.6164 8.16861C57.851 7.83794 58.1337 7.55528 58.4644 7.32061C58.8057 7.08594 59.1844 6.90461 59.6004 6.77661C60.027 6.64861 60.4697 6.58461 60.9284 6.58461C62.1124 6.58461 63.0244 6.87794 63.6644 7.46461C64.3044 8.04061 64.6244 8.85128 64.6244 9.89661V15.0006H62.9444V13.9926H62.8484C62.7097 14.2059 62.5177 14.4086 62.2724 14.6006C62.0377 14.7926 61.755 14.9473 61.4244 15.0646C61.1044 15.1926 60.747 15.2566 60.3524 15.2566ZM60.6564 13.8486C61.1044 13.8486 61.499 13.7419 61.8404 13.5286C62.1924 13.3153 62.4644 13.0379 62.6564 12.6966C62.8484 12.3446 62.9444 11.9659 62.9444 11.5606C62.7097 11.4219 62.4217 11.3099 62.0804 11.2246C61.7497 11.1286 61.3977 11.0806 61.0244 11.0806C60.3204 11.0806 59.819 11.2193 59.5204 11.4966C59.2217 11.7739 59.0724 12.1206 59.0724 12.5366C59.0724 12.9206 59.2164 13.2353 59.5044 13.4806C59.7924 13.7259 60.1764 13.8486 60.6564 13.8486ZM73.5371 15.2566C72.8865 15.2566 72.3211 15.1606 71.8411 14.9686C71.3611 14.7659 70.9665 14.4993 70.6571 14.1686C70.3478 13.8273 70.1185 13.4593 69.9691 13.0646L71.5211 12.3926C71.7131 12.8299 71.9851 13.1659 72.3371 13.4006C72.6998 13.6246 73.1158 13.7366 73.5851 13.7366C74.0118 13.7366 74.3798 13.6619 74.6891 13.5126C74.9985 13.3526 75.1531 13.0966 75.1531 12.7446C75.1531 12.5206 75.0785 12.3393 74.9291 12.2006C74.7905 12.0513 74.5985 11.9286 74.3531 11.8326C74.1185 11.7366 73.8465 11.6513 73.5371 11.5766L72.5611 11.3526C72.1771 11.2566 71.8091 11.1073 71.4571 10.9046C71.1158 10.6913 70.8385 10.4246 70.6251 10.1046C70.4118 9.78461 70.3051 9.40594 70.3051 8.96861C70.3051 8.47794 70.4438 8.05661 70.7211 7.70461C71.0091 7.34194 71.3931 7.06461 71.8731 6.87261C72.3531 6.68061 72.8705 6.58461 73.4251 6.58461C73.9371 6.58461 74.4011 6.65394 74.8171 6.79261C75.2438 6.92061 75.6118 7.11794 75.9211 7.38461C76.2411 7.64061 76.4918 7.96061 76.6731 8.34461L75.1851 9.01661C75.0038 8.65394 74.7585 8.40328 74.4491 8.26461C74.1398 8.11528 73.8038 8.04061 73.4411 8.04061C73.0358 8.04061 72.6945 8.12594 72.4171 8.29661C72.1505 8.45661 72.0171 8.66994 72.0171 8.93661C72.0171 9.21394 72.1345 9.43261 72.3691 9.59261C72.6145 9.75261 72.9131 9.88061 73.2651 9.97661L74.4491 10.2646C75.2598 10.4673 75.8678 10.7766 76.2731 11.1926C76.6785 11.5979 76.8811 12.0939 76.8811 12.6806C76.8811 13.2033 76.7318 13.6619 76.4331 14.0566C76.1345 14.4406 75.7291 14.7393 75.2171 14.9526C74.7158 15.1553 74.1558 15.2566 73.5371 15.2566ZM85.3996 15.2566C84.749 15.2566 84.1836 15.1606 83.7036 14.9686C83.2236 14.7659 82.829 14.4993 82.5196 14.1686C82.2103 13.8273 81.981 13.4593 81.8316 13.0646L83.3836 12.3926C83.5756 12.8299 83.8476 13.1659 84.1996 13.4006C84.5623 13.6246 84.9783 13.7366 85.4476 13.7366C85.8743 13.7366 86.2423 13.6619 86.5516 13.5126C86.861 13.3526 87.0156 13.0966 87.0156 12.7446C87.0156 12.5206 86.941 12.3393 86.7916 12.2006C86.653 12.0513 86.461 11.9286 86.2156 11.8326C85.981 11.7366 85.709 11.6513 85.3996 11.5766L84.4236 11.3526C84.0396 11.2566 83.6716 11.1073 83.3196 10.9046C82.9783 10.6913 82.701 10.4246 82.4876 10.1046C82.2743 9.78461 82.1676 9.40594 82.1676 8.96861C82.1676 8.47794 82.3063 8.05661 82.5836 7.70461C82.8716 7.34194 83.2556 7.06461 83.7356 6.87261C84.2156 6.68061 84.733 6.58461 85.2876 6.58461C85.7996 6.58461 86.2636 6.65394 86.6796 6.79261C87.1063 6.92061 87.4743 7.11794 87.7836 7.38461C88.1036 7.64061 88.3543 7.96061 88.5356 8.34461L87.0476 9.01661C86.8663 8.65394 86.621 8.40328 86.3116 8.26461C86.0023 8.11528 85.6663 8.04061 85.3036 8.04061C84.8983 8.04061 84.557 8.12594 84.2796 8.29661C84.013 8.45661 83.8796 8.66994 83.8796 8.93661C83.8796 9.21394 83.997 9.43261 84.2316 9.59261C84.477 9.75261 84.7756 9.88061 85.1276 9.97661L86.3116 10.2646C87.1223 10.4673 87.7303 10.7766 88.1356 11.1926C88.541 11.5979 88.7436 12.0939 88.7436 12.6806C88.7436 13.2033 88.5943 13.6619 88.2956 14.0566C87.997 14.4406 87.5916 14.7393 87.0796 14.9526C86.5783 15.1553 86.0183 15.2566 85.3996 15.2566ZM89.7636 6.84061H91.1876V4.53661H92.9156V6.84061H94.9156V8.34461H92.9156V12.2646C92.9156 12.6699 92.9956 12.9793 93.1556 13.1926C93.3263 13.4059 93.609 13.5126 94.0036 13.5126C94.1956 13.5126 94.3663 13.4859 94.5156 13.4326C94.665 13.3686 94.8143 13.2939 94.9636 13.2086V14.8886C94.7823 14.9633 94.5903 15.0219 94.3876 15.0646C94.185 15.1073 93.945 15.1286 93.6676 15.1286C92.9103 15.1286 92.3076 14.9099 91.8596 14.4726C91.4116 14.0246 91.1876 13.4113 91.1876 12.6326V8.34461H89.7636V6.84061ZM100.251 15.2566C99.4085 15.2566 98.6671 15.0646 98.0271 14.6806C97.3871 14.2966 96.8858 13.7793 96.5231 13.1286C96.1605 12.4673 95.9791 11.7313 95.9791 10.9206C95.9791 10.1099 96.1605 9.37928 96.5231 8.72861C96.8858 8.06728 97.3871 7.54461 98.0271 7.16061C98.6671 6.77661 99.4085 6.58461 100.251 6.58461C101.083 6.58461 101.819 6.78194 102.459 7.17661C103.099 7.56061 103.6 8.07794 103.963 8.72861C104.326 9.37928 104.507 10.1099 104.507 10.9206C104.507 11.7313 104.326 12.4673 103.963 13.1286C103.6 13.7793 103.099 14.2966 102.459 14.6806C101.819 15.0646 101.083 15.2566 100.251 15.2566ZM100.251 13.6726C100.699 13.6726 101.115 13.5659 101.499 13.3526C101.883 13.1286 102.192 12.8139 102.427 12.4086C102.672 11.9926 102.795 11.4966 102.795 10.9206C102.795 10.3446 102.672 9.85394 102.427 9.44861C102.192 9.03261 101.883 8.71794 101.499 8.50461C101.115 8.28061 100.699 8.16861 100.251 8.16861C99.8031 8.16861 99.3818 8.28061 98.9871 8.50461C98.6031 8.71794 98.2885 9.03261 98.0431 9.44861C97.8085 9.85394 97.6911 10.3446 97.6911 10.9206C97.6911 11.4966 97.8085 11.9926 98.0431 12.4086C98.2885 12.8139 98.6085 13.1286 99.0031 13.3526C99.3978 13.5659 99.8138 13.6726 100.251 13.6726ZM106.092 15.0006V6.84061H107.724V8.04061H107.82C107.948 7.76328 108.13 7.51794 108.364 7.30461C108.61 7.09128 108.887 6.92061 109.196 6.79261C109.516 6.66461 109.847 6.60061 110.188 6.60061C110.412 6.60061 110.599 6.61661 110.748 6.64861C110.908 6.66994 111.052 6.70728 111.18 6.76061V8.55261C110.978 8.46728 110.77 8.39794 110.556 8.34461C110.354 8.29128 110.14 8.26461 109.916 8.26461C109.511 8.26461 109.148 8.37661 108.828 8.60061C108.519 8.81394 108.274 9.10194 108.092 9.46461C107.911 9.82728 107.82 10.2326 107.82 10.6806V15.0006H106.092ZM112.792 15.0006V6.84061H114.52V15.0006H112.792ZM113.656 5.64061C113.336 5.64061 113.059 5.52861 112.824 5.30461C112.6 5.06994 112.488 4.79261 112.488 4.47261C112.488 4.14194 112.6 3.86994 112.824 3.65661C113.059 3.43261 113.336 3.32061 113.656 3.32061C113.987 3.32061 114.264 3.43261 114.488 3.65661C114.712 3.86994 114.824 4.14194 114.824 4.47261C114.824 4.79261 114.712 5.06994 114.488 5.30461C114.264 5.52861 113.987 5.64061 113.656 5.64061ZM116.176 6.84061H117.6V4.53661H119.328V6.84061H121.328V8.34461H119.328V12.2646C119.328 12.6699 119.408 12.9793 119.568 13.1926C119.739 13.4059 120.021 13.5126 120.416 13.5126C120.608 13.5126 120.779 13.4859 120.928 13.4326C121.077 13.3686 121.227 13.2939 121.376 13.2086V14.8886C121.195 14.9633 121.003 15.0219 120.8 15.0646C120.597 15.1073 120.357 15.1286 120.08 15.1286C119.323 15.1286 118.72 14.9099 118.272 14.4726C117.824 14.0246 117.6 13.4113 117.6 12.6326V8.34461H116.176V6.84061ZM125.694 15.0006L122.318 6.84061H124.238L126.526 12.7766H126.606L128.942 6.84061H130.83L127.422 15.0006H125.694ZM132.227 15.0006V6.84061H133.955V15.0006H132.227ZM133.091 5.64061C132.771 5.64061 132.493 5.52861 132.259 5.30461C132.035 5.06994 131.923 4.79261 131.923 4.47261C131.923 4.14194 132.035 3.86994 132.259 3.65661C132.493 3.43261 132.771 3.32061 133.091 3.32061C133.421 3.32061 133.699 3.43261 133.923 3.65661C134.147 3.86994 134.259 4.14194 134.259 4.47261C134.259 4.79261 134.147 5.06994 133.923 5.30461C133.699 5.52861 133.421 5.64061 133.091 5.64061ZM135.689 18.6166C135.518 18.6166 135.363 18.6059 135.225 18.5846C135.075 18.5633 134.931 18.5366 134.793 18.5046V16.8406C134.889 16.8939 135.006 16.9419 135.145 16.9846C135.283 17.0273 135.417 17.0486 135.545 17.0486C135.843 17.0486 136.057 16.9526 136.185 16.7606C136.313 16.5793 136.377 16.3126 136.377 15.9606V6.84061H138.105V15.9766C138.105 16.6059 137.998 17.1126 137.785 17.4966C137.582 17.8806 137.299 18.1633 136.937 18.3446C136.574 18.5259 136.158 18.6166 135.689 18.6166ZM137.241 5.64061C136.921 5.64061 136.643 5.52861 136.409 5.30461C136.185 5.06994 136.073 4.79261 136.073 4.47261C136.073 4.14194 136.185 3.86994 136.409 3.65661C136.643 3.43261 136.921 3.32061 137.241 3.32061C137.571 3.32061 137.849 3.43261 138.073 3.65661C138.297 3.86994 138.409 4.14194 138.409 4.47261C138.409 4.79261 138.297 5.06994 138.073 5.30461C137.849 5.52861 137.571 5.64061 137.241 5.64061ZM144.161 15.2566C143.318 15.2566 142.577 15.0646 141.937 14.6806C141.297 14.2966 140.795 13.7793 140.433 13.1286C140.07 12.4673 139.889 11.7313 139.889 10.9206C139.889 10.1099 140.07 9.37928 140.433 8.72861C140.795 8.06728 141.297 7.54461 141.937 7.16061C142.577 6.77661 143.318 6.58461 144.161 6.58461C144.993 6.58461 145.729 6.78194 146.369 7.17661C147.009 7.56061 147.51 8.07794 147.873 8.72861C148.235 9.37928 148.417 10.1099 148.417 10.9206C148.417 11.7313 148.235 12.4673 147.873 13.1286C147.51 13.7793 147.009 14.2966 146.369 14.6806C145.729 15.0646 144.993 15.2566 144.161 15.2566ZM144.161 13.6726C144.609 13.6726 145.025 13.5659 145.409 13.3526C145.793 13.1286 146.102 12.8139 146.337 12.4086C146.582 11.9926 146.705 11.4966 146.705 10.9206C146.705 10.3446 146.582 9.85394 146.337 9.44861C146.102 9.03261 145.793 8.71794 145.409 8.50461C145.025 8.28061 144.609 8.16861 144.161 8.16861C143.713 8.16861 143.291 8.28061 142.897 8.50461C142.513 8.71794 142.198 9.03261 141.953 9.44861C141.718 9.85394 141.601 10.3446 141.601 10.9206C141.601 11.4966 141.718 11.9926 141.953 12.4086C142.198 12.8139 142.518 13.1286 142.913 13.3526C143.307 13.5659 143.723 13.6726 144.161 13.6726Z" fill="white"/>
<g id="GPay (Dark)">
<g id="GPay">
<g id="Pay">
<path id="Fill 1" fill-rule="evenodd" clip-rule="evenodd" d="M177.356 3.42339V8.16175H180.278C180.974 8.16175 181.55 7.92781 182.005 7.45993C182.473 6.99313 182.707 6.43644 182.707 5.79203C182.707 5.16061 182.473 4.61041 182.005 4.14254C181.55 3.66274 180.974 3.4223 180.278 3.4223H177.356V3.42339ZM177.356 9.82966V15.3262H175.611V1.75549H180.24C181.417 1.75549 182.415 2.14756 183.238 2.93061C184.073 3.71365 184.491 4.66782 184.491 5.79203C184.491 6.94224 184.073 7.90291 183.238 8.67296C182.428 9.44409 181.429 9.82858 180.24 9.82858H177.356V9.82966Z" fill="white"/>
<path id="Fill 3" fill-rule="evenodd" clip-rule="evenodd" d="M186.255 12.4831C186.255 12.9379 186.448 13.317 186.834 13.6203C187.22 13.9235 187.672 14.0752 188.19 14.0752C188.924 14.0752 189.578 13.8032 190.153 13.2607C190.729 12.717 191.017 12.0791 191.017 11.3469C190.472 10.917 189.713 10.7025 188.74 10.7025C188.031 10.7025 187.44 10.8736 186.966 11.2148C186.492 11.5559 186.255 11.9773 186.255 12.4831M188.513 5.73566C189.803 5.73566 190.821 6.08007 191.569 6.76889C192.314 7.45771 192.687 8.40213 192.687 9.60216V15.3261H191.018V14.0373H190.942C190.221 15.0985 189.259 15.6294 188.058 15.6294C187.033 15.6294 186.176 15.3261 185.487 14.7196C184.797 14.1131 184.453 13.3549 184.453 12.4452C184.453 11.4845 184.816 10.7208 185.543 10.1523C186.271 9.58375 187.241 9.2989 188.456 9.2989C189.492 9.2989 190.346 9.48844 191.017 9.86751V9.46894C191.017 8.86243 190.776 8.34798 190.296 7.92451C189.814 7.50103 189.252 7.28984 188.607 7.28984C187.633 7.28984 186.862 7.70032 186.293 8.52235L184.755 7.55519C185.603 6.34217 186.855 5.73566 188.513 5.73566" fill="white"/>
<path id="Fill 5" fill-rule="evenodd" clip-rule="evenodd" d="M202.269 6.03894L196.443 19.4201H194.641L196.804 14.738L192.971 6.03894H194.869L197.639 12.7106H197.677L200.371 6.03894H202.269Z" fill="white"/>
</g>
<g id="G">
<path id="Fill 8" fill-rule="evenodd" clip-rule="evenodd" d="M170.303 8.64473C170.303 8.09563 170.256 7.56601 170.168 7.05914H162.806V10.0625H167.023C166.842 11.0414 166.294 11.8744 165.464 12.4322V14.3828H167.98C169.454 13.0246 170.303 11.0177 170.303 8.64473" fill="#4285F4"/>
<path id="Fill 10" fill-rule="evenodd" clip-rule="evenodd" d="M162.806 16.2651C164.913 16.2651 166.687 15.5741 167.98 14.3828L165.464 12.4322C164.764 12.9033 163.861 13.1784 162.806 13.1784C160.77 13.1784 159.042 11.8073 158.424 9.95959H155.832V11.9687C157.116 14.516 159.757 16.2651 162.806 16.2651" fill="#34A853"/>
<path id="Fill 12" fill-rule="evenodd" clip-rule="evenodd" d="M158.424 9.9596C158.266 9.48847 158.179 8.98593 158.179 8.46715C158.179 7.94837 158.266 7.44583 158.424 6.9747V4.96564H155.832C155.3 6.01837 155 7.20756 155 8.46715C155 9.72674 155.3 10.916 155.832 11.9687L158.424 9.9596Z" fill="#FABB05"/>
<path id="Fill 14" fill-rule="evenodd" clip-rule="evenodd" d="M162.806 3.75583C163.957 3.75583 164.988 4.15115 165.801 4.92553V4.92661L168.029 2.70094C166.676 1.44243 164.912 0.669128 162.806 0.669128C159.757 0.669128 157.116 2.41826 155.832 4.9656L158.424 6.97467C159.042 5.12698 160.77 3.75583 162.806 3.75583" fill="#E94235"/>
</g>
</g>
</g>
</g>
</svg>
