<svg width="356" height="38" viewBox="0 0 356 38" fill="none" xmlns="http://www.w3.org/2000/svg">
<g id="sl_donate_with_Light">
<path id="Text" d="M3.12347 30V9.952H9.53547C11.6448 9.952 13.4555 10.3813 14.9675 11.24C16.4981 12.08 17.6741 13.256 18.4955 14.768C19.3355 16.28 19.7555 18.016 19.7555 19.976C19.7555 21.9547 19.3355 23.7 18.4955 25.212C17.6741 26.7053 16.4981 27.8813 14.9675 28.74C13.4555 29.58 11.6448 30 9.53547 30H3.12347ZM6.20347 27.088H9.45147C11.7288 27.088 13.4928 26.4533 14.7435 25.184C16.0128 23.9147 16.6475 22.1787 16.6475 19.976C16.6475 17.7733 16.0128 16.0373 14.7435 14.768C13.4928 13.4987 11.7288 12.864 9.45147 12.864H6.20347V27.088ZM29.3817 30.448C27.907 30.448 26.6097 30.112 25.4897 29.44C24.3697 28.768 23.4923 27.8627 22.8577 26.724C22.223 25.5853 21.9057 24.2973 21.9057 22.86C21.9057 21.4413 22.223 20.1627 22.8577 19.024C23.4923 17.8667 24.3697 16.952 25.4897 16.28C26.6097 15.608 27.907 15.272 29.3817 15.272C30.8377 15.272 32.1257 15.608 33.2457 16.28C34.3657 16.952 35.243 17.8667 35.8777 19.024C36.5123 20.1627 36.8297 21.4413 36.8297 22.86C36.8297 24.2973 36.5123 25.5853 35.8777 26.724C35.243 27.8627 34.3657 28.768 33.2457 29.44C32.1257 30.112 30.8377 30.448 29.3817 30.448ZM29.3817 27.676C30.1657 27.676 30.8937 27.4893 31.5657 27.116C32.2377 26.724 32.779 26.1733 33.1897 25.464C33.619 24.736 33.8337 23.868 33.8337 22.86C33.8337 21.852 33.619 20.9933 33.1897 20.284C32.779 19.556 32.2377 19.0053 31.5657 18.632C30.8937 18.24 30.1657 18.044 29.3817 18.044C28.5977 18.044 27.8603 18.24 27.1697 18.632C26.4977 19.0053 25.947 19.556 25.5177 20.284C25.107 20.9933 24.9017 21.852 24.9017 22.86C24.9017 23.868 25.107 24.736 25.5177 25.464C25.947 26.1733 26.4977 26.724 27.1697 27.116C27.8603 27.4893 28.5977 27.676 29.3817 27.676ZM39.6413 30V15.72H42.4973V17.68H42.6653C43.076 16.9893 43.6827 16.42 44.4853 15.972C45.3067 15.5053 46.2027 15.272 47.1733 15.272C48.928 15.272 50.244 15.7947 51.1213 16.84C51.9987 17.8853 52.4373 19.2667 52.4373 20.984V30H49.4413V21.376C49.4413 20.2187 49.152 19.3787 48.5733 18.856C47.9947 18.3147 47.2387 18.044 46.3053 18.044C45.5773 18.044 44.9427 18.2493 44.4013 18.66C43.86 19.052 43.4307 19.5747 43.1133 20.228C42.8147 20.8813 42.6653 21.5813 42.6653 22.328V30H39.6413ZM60.5268 30.448C59.5001 30.448 58.5855 30.252 57.7828 29.86C56.9801 29.4493 56.3548 28.88 55.9068 28.152C55.4588 27.424 55.2348 26.5933 55.2348 25.66C55.2348 24.652 55.4961 23.7933 56.0188 23.084C56.5601 22.356 57.2788 21.8053 58.1748 21.432C59.0708 21.0587 60.0601 20.872 61.1428 20.872C62.0388 20.872 62.8228 20.956 63.4948 21.124C64.1855 21.292 64.7081 21.4693 65.0628 21.656V20.9C65.0628 19.9667 64.7268 19.22 64.0548 18.66C63.3828 18.1 62.5148 17.82 61.4508 17.82C60.7228 17.82 60.0321 17.988 59.3788 18.324C58.7255 18.6413 58.2028 19.08 57.8108 19.64L55.7388 18.044C56.3548 17.1853 57.1668 16.5133 58.1748 16.028C59.2015 15.524 60.3215 15.272 61.5348 15.272C63.6068 15.272 65.2028 15.7853 66.3228 16.812C67.4428 17.82 68.0028 19.2387 68.0028 21.068V30H65.0628V28.236H64.8948C64.5215 28.8147 63.9615 29.328 63.2148 29.776C62.4681 30.224 61.5721 30.448 60.5268 30.448ZM61.0588 27.984C61.8428 27.984 62.5335 27.7973 63.1308 27.424C63.7281 27.0507 64.1948 26.5653 64.5308 25.968C64.8855 25.352 65.0628 24.6893 65.0628 23.98C64.6335 23.7373 64.1295 23.5413 63.5508 23.392C62.9721 23.224 62.3561 23.14 61.7028 23.14C60.4708 23.14 59.5935 23.392 59.0708 23.896C58.5481 24.3813 58.2868 24.9787 58.2868 25.688C58.2868 26.36 58.5388 26.9107 59.0428 27.34C59.5468 27.7693 60.2188 27.984 61.0588 27.984ZM78.1032 30.448C76.6659 30.448 75.3966 30.1213 74.2952 29.468C73.1939 28.8147 72.3259 27.9187 71.6912 26.78C71.0566 25.6227 70.7392 24.316 70.7392 22.86C70.7392 21.404 71.0566 20.1067 71.6912 18.968C72.3259 17.8107 73.1939 16.9053 74.2952 16.252C75.3966 15.5987 76.6659 15.272 78.1032 15.272C79.6899 15.272 81.0246 15.6267 82.1072 16.336C83.2086 17.0453 83.9926 18.0067 84.4592 19.22L81.7152 20.34C81.0619 18.8093 79.8392 18.044 78.0472 18.044C77.2632 18.044 76.5446 18.2493 75.8912 18.66C75.2379 19.052 74.7152 19.612 74.3232 20.34C73.9312 21.0493 73.7352 21.8893 73.7352 22.86C73.7352 23.8307 73.9312 24.68 74.3232 25.408C74.7152 26.136 75.2379 26.696 75.8912 27.088C76.5446 27.48 77.2632 27.676 78.0472 27.676C78.9619 27.676 79.7366 27.4707 80.3712 27.06C81.0059 26.6307 81.5006 26.052 81.8552 25.324L84.5432 26.5C84.0392 27.6387 83.2366 28.5813 82.1352 29.328C81.0339 30.0747 79.6899 30.448 78.1032 30.448ZM89.1719 13.62C88.6119 13.62 88.1265 13.424 87.7159 13.032C87.3239 12.6213 87.1279 12.136 87.1279 11.576C87.1279 11.016 87.3239 10.54 87.7159 10.148C88.1265 9.756 88.6119 9.56 89.1719 9.56C89.7319 9.56 90.2079 9.756 90.5999 10.148C91.0105 10.54 91.2159 11.016 91.2159 11.576C91.2159 12.136 91.0105 12.6213 90.5999 13.032C90.2079 13.424 89.7319 13.62 89.1719 13.62ZM87.6599 30V15.72H90.6839V30H87.6599ZM96.4719 13.62C95.9119 13.62 95.4265 13.424 95.0159 13.032C94.6239 12.6213 94.4279 12.136 94.4279 11.576C94.4279 11.016 94.6239 10.54 95.0159 10.148C95.4265 9.756 95.9119 9.56 96.4719 9.56C97.0319 9.56 97.5079 9.756 97.8999 10.148C98.3105 10.54 98.5159 11.016 98.5159 11.576C98.5159 12.136 98.3105 12.6213 97.8999 13.032C97.5079 13.424 97.0319 13.62 96.4719 13.62ZM93.7559 36.328C93.1772 36.328 92.6545 36.2627 92.1879 36.132V33.22C92.3745 33.332 92.5892 33.416 92.8319 33.472C93.0559 33.5467 93.2799 33.584 93.5039 33.584C94.0452 33.584 94.4185 33.416 94.6239 33.08C94.8479 32.7627 94.9599 32.296 94.9599 31.68V15.72H97.9839V31.708C97.9839 33.3507 97.5825 34.5267 96.7799 35.236C95.9772 35.964 94.9692 36.328 93.7559 36.328ZM106.379 30.448C105.352 30.448 104.438 30.252 103.635 29.86C102.832 29.4493 102.207 28.88 101.759 28.152C101.311 27.424 101.087 26.5933 101.087 25.66C101.087 24.652 101.348 23.7933 101.871 23.084C102.412 22.356 103.131 21.8053 104.027 21.432C104.923 21.0587 105.912 20.872 106.995 20.872C107.891 20.872 108.675 20.956 109.347 21.124C110.038 21.292 110.56 21.4693 110.915 21.656V20.9C110.915 19.9667 110.579 19.22 109.907 18.66C109.235 18.1 108.367 17.82 107.303 17.82C106.575 17.82 105.884 17.988 105.231 18.324C104.578 18.6413 104.055 19.08 103.663 19.64L101.591 18.044C102.207 17.1853 103.019 16.5133 104.027 16.028C105.054 15.524 106.174 15.272 107.387 15.272C109.459 15.272 111.055 15.7853 112.175 16.812C113.295 17.82 113.855 19.2387 113.855 21.068V30H110.915V28.236H110.747C110.374 28.8147 109.814 29.328 109.067 29.776C108.32 30.224 107.424 30.448 106.379 30.448ZM106.911 27.984C107.695 27.984 108.386 27.7973 108.983 27.424C109.58 27.0507 110.047 26.5653 110.383 25.968C110.738 25.352 110.915 24.6893 110.915 23.98C110.486 23.7373 109.982 23.5413 109.403 23.392C108.824 23.224 108.208 23.14 107.555 23.14C106.323 23.14 105.446 23.392 104.923 23.896C104.4 24.3813 104.139 24.9787 104.139 25.688C104.139 26.36 104.391 26.9107 104.895 27.34C105.399 27.7693 106.071 27.984 106.911 27.984ZM129.527 30.448C127.81 30.448 126.438 30.0747 125.411 29.328C124.385 28.5627 123.675 27.6573 123.283 26.612L125.999 25.436C126.335 26.2013 126.821 26.7893 127.455 27.2C128.09 27.592 128.809 27.788 129.611 27.788C130.358 27.788 131.002 27.6573 131.543 27.396C132.085 27.116 132.355 26.668 132.355 26.052C132.355 25.4547 132.085 25.016 131.543 24.736C131.002 24.456 130.33 24.2133 129.527 24.008L127.819 23.616C127.129 23.448 126.485 23.1867 125.887 22.832C125.29 22.4773 124.805 22.02 124.431 21.46C124.058 20.8813 123.871 20.2093 123.871 19.444C123.871 18.604 124.123 17.876 124.627 17.26C125.131 16.6253 125.794 16.14 126.615 15.804C127.455 15.4493 128.361 15.272 129.331 15.272C130.657 15.272 131.814 15.5333 132.803 16.056C133.811 16.56 134.549 17.3253 135.015 18.352L132.411 19.528C132.075 18.8933 131.637 18.4547 131.095 18.212C130.573 17.9507 129.994 17.82 129.359 17.82C128.65 17.82 128.053 17.9693 127.567 18.268C127.101 18.5667 126.867 18.94 126.867 19.388C126.867 19.8733 127.073 20.256 127.483 20.536C127.913 20.816 128.435 21.04 129.051 21.208L131.123 21.712C132.542 22.0667 133.606 22.608 134.315 23.336C135.025 24.0453 135.379 24.9133 135.379 25.94C135.379 26.8547 135.118 27.6573 134.595 28.348C134.073 29.02 133.363 29.5427 132.467 29.916C131.59 30.2707 130.61 30.448 129.527 30.448ZM150.362 30.448C148.645 30.448 147.273 30.0747 146.246 29.328C145.219 28.5627 144.51 27.6573 144.118 26.612L146.834 25.436C147.17 26.2013 147.655 26.7893 148.29 27.2C148.925 27.592 149.643 27.788 150.446 27.788C151.193 27.788 151.837 27.6573 152.378 27.396C152.919 27.116 153.19 26.668 153.19 26.052C153.19 25.4547 152.919 25.016 152.378 24.736C151.837 24.456 151.165 24.2133 150.362 24.008L148.654 23.616C147.963 23.448 147.319 23.1867 146.722 22.832C146.125 22.4773 145.639 22.02 145.266 21.46C144.893 20.8813 144.706 20.2093 144.706 19.444C144.706 18.604 144.958 17.876 145.462 17.26C145.966 16.6253 146.629 16.14 147.45 15.804C148.29 15.4493 149.195 15.272 150.166 15.272C151.491 15.272 152.649 15.5333 153.638 16.056C154.646 16.56 155.383 17.3253 155.85 18.352L153.246 19.528C152.91 18.8933 152.471 18.4547 151.93 18.212C151.407 17.9507 150.829 17.82 150.194 17.82C149.485 17.82 148.887 17.9693 148.402 18.268C147.935 18.5667 147.702 18.94 147.702 19.388C147.702 19.8733 147.907 20.256 148.318 20.536C148.747 20.816 149.27 21.04 149.886 21.208L151.958 21.712C153.377 22.0667 154.441 22.608 155.15 23.336C155.859 24.0453 156.214 24.9133 156.214 25.94C156.214 26.8547 155.953 27.6573 155.43 28.348C154.907 29.02 154.198 29.5427 153.302 29.916C152.425 30.2707 151.445 30.448 150.362 30.448ZM160.528 25.856V18.352H158.036V15.72H160.528V11.688H163.552V15.72H167.052V18.352H163.552V25.212C163.552 25.9213 163.692 26.4627 163.972 26.836C164.271 27.2093 164.766 27.396 165.456 27.396C165.811 27.396 166.11 27.3493 166.352 27.256C166.614 27.1627 166.875 27.032 167.136 26.864V29.804C166.819 29.9347 166.483 30.0373 166.128 30.112C165.774 30.1867 165.354 30.224 164.868 30.224C163.543 30.224 162.488 29.8413 161.704 29.076C160.92 28.292 160.528 27.2187 160.528 25.856ZM176.427 30.448C174.952 30.448 173.655 30.112 172.535 29.44C171.415 28.768 170.538 27.8627 169.903 26.724C169.268 25.5853 168.951 24.2973 168.951 22.86C168.951 21.4413 169.268 20.1627 169.903 19.024C170.538 17.8667 171.415 16.952 172.535 16.28C173.655 15.608 174.952 15.272 176.427 15.272C177.883 15.272 179.171 15.608 180.291 16.28C181.411 16.952 182.288 17.8667 182.923 19.024C183.558 20.1627 183.875 21.4413 183.875 22.86C183.875 24.2973 183.558 25.5853 182.923 26.724C182.288 27.8627 181.411 28.768 180.291 29.44C179.171 30.112 177.883 30.448 176.427 30.448ZM176.427 27.676C177.211 27.676 177.939 27.4893 178.611 27.116C179.283 26.724 179.824 26.1733 180.235 25.464C180.664 24.736 180.879 23.868 180.879 22.86C180.879 21.852 180.664 20.9933 180.235 20.284C179.824 19.556 179.283 19.0053 178.611 18.632C177.939 18.24 177.211 18.044 176.427 18.044C175.643 18.044 174.906 18.24 174.215 18.632C173.543 19.0053 172.992 19.556 172.563 20.284C172.152 20.9933 171.947 21.852 171.947 22.86C171.947 23.868 172.152 24.736 172.563 25.464C172.992 26.1733 173.543 26.724 174.215 27.116C174.906 27.4893 175.643 27.676 176.427 27.676ZM186.687 30V15.72H189.543V17.82H189.711C190.028 17.092 190.569 16.4947 191.335 16.028C192.119 15.5427 192.959 15.3 193.855 15.3C194.247 15.3 194.573 15.328 194.835 15.384C195.115 15.44 195.367 15.5053 195.591 15.58V18.716C195.236 18.5667 194.872 18.4453 194.499 18.352C194.144 18.2587 193.771 18.212 193.379 18.212C192.669 18.212 192.035 18.408 191.475 18.8C190.933 19.1733 190.504 19.6867 190.187 20.34C189.869 20.9747 189.711 21.6747 189.711 22.44V30H186.687ZM199.961 13.62C199.401 13.62 198.916 13.424 198.505 13.032C198.113 12.6213 197.917 12.136 197.917 11.576C197.917 11.016 198.113 10.54 198.505 10.148C198.916 9.756 199.401 9.56 199.961 9.56C200.521 9.56 200.997 9.756 201.389 10.148C201.8 10.54 202.005 11.016 202.005 11.576C202.005 12.136 201.8 12.6213 201.389 13.032C200.997 13.424 200.521 13.62 199.961 13.62ZM198.449 30V15.72H201.473V30H198.449ZM206.9 25.856V18.352H204.408V15.72H206.9V11.688H209.924V15.72H213.424V18.352H209.924V25.212C209.924 25.9213 210.064 26.4627 210.344 26.836C210.643 27.2093 211.138 27.396 211.828 27.396C212.183 27.396 212.482 27.3493 212.724 27.256C212.986 27.1627 213.247 27.032 213.508 26.864V29.804C213.191 29.9347 212.855 30.0373 212.5 30.112C212.146 30.1867 211.726 30.224 211.24 30.224C209.915 30.224 208.86 29.8413 208.076 29.076C207.292 28.292 206.9 27.2187 206.9 25.856ZM221.102 30L215.194 15.72H218.554L222.558 26.108H222.698L226.786 15.72H230.09L224.126 30H221.102ZM234.084 13.62C233.524 13.62 233.038 13.424 232.628 13.032C232.236 12.6213 232.04 12.136 232.04 11.576C232.04 11.016 232.236 10.54 232.628 10.148C233.038 9.756 233.524 9.56 234.084 9.56C234.644 9.56 235.12 9.756 235.512 10.148C235.922 10.54 236.128 11.016 236.128 11.576C236.128 12.136 235.922 12.6213 235.512 13.032C235.12 13.424 234.644 13.62 234.084 13.62ZM232.572 30V15.72H235.596V30H232.572ZM241.384 13.62C240.824 13.62 240.338 13.424 239.928 13.032C239.536 12.6213 239.34 12.136 239.34 11.576C239.34 11.016 239.536 10.54 239.928 10.148C240.338 9.756 240.824 9.56 241.384 9.56C241.944 9.56 242.42 9.756 242.812 10.148C243.222 10.54 243.428 11.016 243.428 11.576C243.428 12.136 243.222 12.6213 242.812 13.032C242.42 13.424 241.944 13.62 241.384 13.62ZM238.668 36.328C238.089 36.328 237.566 36.2627 237.1 36.132V33.22C237.286 33.332 237.501 33.416 237.744 33.472C237.968 33.5467 238.192 33.584 238.416 33.584C238.957 33.584 239.33 33.416 239.536 33.08C239.76 32.7627 239.872 32.296 239.872 31.68V15.72H242.896V31.708C242.896 33.3507 242.494 34.5267 241.692 35.236C240.889 35.964 239.881 36.328 238.668 36.328ZM253.531 30.448C252.056 30.448 250.759 30.112 249.639 29.44C248.519 28.768 247.642 27.8627 247.007 26.724C246.372 25.5853 246.055 24.2973 246.055 22.86C246.055 21.4413 246.372 20.1627 247.007 19.024C247.642 17.8667 248.519 16.952 249.639 16.28C250.759 15.608 252.056 15.272 253.531 15.272C254.987 15.272 256.275 15.608 257.395 16.28C258.515 16.952 259.392 17.8667 260.027 19.024C260.662 20.1627 260.979 21.4413 260.979 22.86C260.979 24.2973 260.662 25.5853 260.027 26.724C259.392 27.8627 258.515 28.768 257.395 29.44C256.275 30.112 254.987 30.448 253.531 30.448ZM253.531 27.676C254.315 27.676 255.043 27.4893 255.715 27.116C256.387 26.724 256.928 26.1733 257.339 25.464C257.768 24.736 257.983 23.868 257.983 22.86C257.983 21.852 257.768 20.9933 257.339 20.284C256.928 19.556 256.387 19.0053 255.715 18.632C255.043 18.24 254.315 18.044 253.531 18.044C252.747 18.044 252.01 18.24 251.319 18.632C250.647 19.0053 250.096 19.556 249.667 20.284C249.256 20.9933 249.051 21.852 249.051 22.86C249.051 23.868 249.256 24.736 249.667 25.464C250.096 26.1733 250.647 26.724 251.319 27.116C252.01 27.4893 252.747 27.676 253.531 27.676Z" fill="#3C4043"/>
<g id="GPay Logo (Light)">
<g id="GPay">
<g id="Pay">
<path id="Fill 1" fill-rule="evenodd" clip-rule="evenodd" d="M312.529 9.44664V17.6128H317.565C318.765 17.6128 319.757 17.2096 320.541 16.4032C321.347 15.5988 321.75 14.6394 321.75 13.5288C321.75 12.4406 321.347 11.4924 320.541 10.686C319.757 9.85915 318.765 9.44478 317.565 9.44478H312.529V9.44664ZM312.529 20.4872V29.9599H309.521V6.57217H317.499C319.527 6.57217 321.248 7.24786 322.666 8.59737C324.105 9.94688 324.824 11.5913 324.824 13.5288C324.824 15.511 324.105 17.1667 322.666 18.4938C321.27 19.8227 319.547 20.4854 317.499 20.4854H312.529V20.4872Z" fill="#5F6368"/>
<path id="Fill 3" fill-rule="evenodd" clip-rule="evenodd" d="M327.864 25.0602C327.864 25.8442 328.197 26.4975 328.862 27.0201C329.527 27.5427 330.306 27.804 331.2 27.804C332.465 27.804 333.591 27.3354 334.584 26.4004C335.576 25.4634 336.071 24.364 336.071 23.1022C335.133 22.3612 333.825 21.9916 332.147 21.9916C330.925 21.9916 329.907 22.2865 329.09 22.8745C328.273 23.4623 327.864 24.1886 327.864 25.0602ZM331.756 13.4317C333.98 13.4317 335.735 14.0252 337.022 15.2124C338.308 16.3995 338.95 18.0271 338.95 20.0952V29.9599H336.073V27.7387H335.942C334.699 29.5677 333.042 30.4825 330.972 30.4825C329.206 30.4825 327.728 29.9599 326.541 28.9146C325.353 27.8694 324.759 26.5628 324.759 24.9949C324.759 23.3393 325.385 22.0232 326.638 21.0434C327.892 20.0635 329.565 19.5726 331.658 19.5726C333.444 19.5726 334.916 19.8992 336.071 20.5525V19.8656C336.071 18.8204 335.656 17.9338 334.829 17.204C333.999 16.4741 333.031 16.1102 331.919 16.1102C330.239 16.1102 328.911 16.8176 327.93 18.2343L325.28 16.5675C326.741 14.4769 328.899 13.4317 331.756 13.4317Z" fill="#5F6368"/>
<path id="Fill 5" fill-rule="evenodd" clip-rule="evenodd" d="M355.463 13.9543L345.424 37.0154H342.318L346.046 28.9464L339.44 13.9543H342.71L347.484 25.4522H347.55L352.193 13.9543H355.463Z" fill="#5F6368"/>
</g>
<g id="G">
<path id="Fill 8" fill-rule="evenodd" clip-rule="evenodd" d="M300.373 18.4452C300.373 17.4989 300.293 16.5861 300.141 15.7126H287.454V20.8885H294.72C294.408 22.5757 293.465 24.0112 292.033 24.9725V28.3341H296.37C298.91 25.9935 300.373 22.5348 300.373 18.4452Z" fill="#4285F4"/>
<path id="Fill 10" fill-rule="evenodd" clip-rule="evenodd" d="M287.454 31.5782C291.084 31.5782 294.141 30.3873 296.37 28.3341L292.033 24.9725C290.826 25.7844 289.272 26.2585 287.454 26.2585C283.944 26.2585 280.966 23.8955 279.901 20.7112H275.433V24.1736C277.647 28.5637 282.197 31.5782 287.454 31.5782Z" fill="#34A853"/>
<path id="Fill 12" fill-rule="evenodd" clip-rule="evenodd" d="M279.901 20.7111C279.628 19.8992 279.479 19.0331 279.479 18.139C279.479 17.245 279.628 16.3789 279.901 15.567V12.1045H275.433C274.518 13.9188 274 15.9683 274 18.139C274 20.3098 274.518 22.3595 275.433 24.1736L279.901 20.7111Z" fill="#FABB05"/>
<path id="Fill 14" fill-rule="evenodd" clip-rule="evenodd" d="M287.454 10.0196C289.436 10.0196 291.213 10.7009 292.615 12.0355V12.0374L296.455 8.20162C294.123 6.03271 291.082 4.7 287.454 4.7C282.197 4.7 277.647 7.71446 275.433 12.1046L279.901 15.567C280.966 12.3827 283.944 10.0196 287.454 10.0196Z" fill="#E94235"/>
</g>
</g>
</g>
</g>
</svg>
