<svg width="201" height="21" viewBox="0 0 201 21" fill="none" xmlns="http://www.w3.org/2000/svg">
<g id="sl_order_with_Pay_NBG">
<path id="Left Text" d="M1.71788 15.0006V3.54461H3.79788L8.98188 11.9606H9.07788L8.98188 9.75261V3.54461H10.7259V15.0006H8.90188L3.46188 6.15261H3.36588L3.46188 8.36061V15.0006H1.71788ZM15.4992 15.2566C14.9126 15.2566 14.3899 15.1393 13.9312 14.9046C13.4832 14.6699 13.1259 14.3499 12.8592 13.9446C12.6032 13.5286 12.4752 13.0539 12.4752 12.5206C12.4752 11.9339 12.6246 11.4379 12.9232 11.0326C13.2326 10.6273 13.6432 10.3179 14.1552 10.1046C14.6672 9.89128 15.2326 9.78461 15.8512 9.78461C16.1926 9.78461 16.5072 9.81128 16.7952 9.86461C17.0939 9.90728 17.3499 9.96061 17.5633 10.0246C17.7873 10.0886 17.9633 10.1579 18.0912 10.2326V9.80061C18.0912 9.26728 17.8992 8.84061 17.5152 8.52061C17.1312 8.20061 16.6352 8.04061 16.0272 8.04061C15.6112 8.04061 15.2166 8.13661 14.8432 8.32861C14.4699 8.50994 14.1712 8.76061 13.9472 9.08061L12.7632 8.16861C12.9979 7.83794 13.2806 7.55528 13.6112 7.32061C13.9526 7.08594 14.3312 6.90461 14.7472 6.77661C15.1739 6.64861 15.6166 6.58461 16.0752 6.58461C17.2592 6.58461 18.1712 6.87794 18.8112 7.46461C19.4512 8.04061 19.7712 8.85128 19.7712 9.89661V15.0006H18.0912V13.9926H17.9952C17.8566 14.2059 17.6646 14.4086 17.4193 14.6006C17.1846 14.7926 16.9019 14.9473 16.5712 15.0646C16.2512 15.1926 15.8939 15.2566 15.4992 15.2566ZM15.8032 13.8486C16.2512 13.8486 16.6459 13.7419 16.9872 13.5286C17.3392 13.3153 17.6112 13.0379 17.8032 12.6966C17.9952 12.3446 18.0912 11.9659 18.0912 11.5606C17.8566 11.4219 17.5686 11.3099 17.2273 11.2246C16.8966 11.1286 16.5446 11.0806 16.1712 11.0806C15.4672 11.0806 14.9659 11.2193 14.6672 11.4966C14.3686 11.7739 14.2192 12.1206 14.2192 12.5366C14.2192 12.9206 14.3632 13.2353 14.6512 13.4806C14.9392 13.7259 15.3232 13.8486 15.8032 13.8486ZM21.8236 15.0006V6.84061H23.4556V8.04061H23.5516C23.6796 7.76328 23.861 7.51794 24.0956 7.30461C24.341 7.09128 24.6183 6.92061 24.9276 6.79261C25.2476 6.66461 25.5783 6.60061 25.9196 6.60061C26.1436 6.60061 26.3303 6.61661 26.4796 6.64861C26.6396 6.66994 26.7836 6.70728 26.9116 6.76061V8.55261C26.709 8.46728 26.501 8.39794 26.2876 8.34461C26.085 8.29128 25.8716 8.26461 25.6476 8.26461C25.2423 8.26461 24.8796 8.37661 24.5596 8.60061C24.2503 8.81394 24.005 9.10194 23.8236 9.46461C23.6423 9.82728 23.5516 10.2326 23.5516 10.6806V15.0006H21.8236ZM31.7511 15.2566C30.9085 15.2566 30.1671 15.0646 29.5271 14.6806C28.8871 14.2966 28.3858 13.7793 28.0231 13.1286C27.6605 12.4673 27.4791 11.7313 27.4791 10.9206C27.4791 10.1099 27.6605 9.37928 28.0231 8.72861C28.3858 8.06728 28.8871 7.54461 29.5271 7.16061C30.1671 6.77661 30.9085 6.58461 31.7511 6.58461C32.5831 6.58461 33.3191 6.78194 33.9591 7.17661C34.5991 7.56061 35.1005 8.07794 35.4631 8.72861C35.8258 9.37928 36.0071 10.1099 36.0071 10.9206C36.0071 11.7313 35.8258 12.4673 35.4631 13.1286C35.1005 13.7793 34.5991 14.2966 33.9591 14.6806C33.3191 15.0646 32.5831 15.2566 31.7511 15.2566ZM31.7511 13.6726C32.1991 13.6726 32.6151 13.5659 32.9991 13.3526C33.3831 13.1286 33.6925 12.8139 33.9271 12.4086C34.1725 11.9926 34.2951 11.4966 34.2951 10.9206C34.2951 10.3446 34.1725 9.85394 33.9271 9.44861C33.6925 9.03261 33.3831 8.71794 32.9991 8.50461C32.6151 8.28061 32.1991 8.16861 31.7511 8.16861C31.3031 8.16861 30.8818 8.28061 30.4871 8.50461C30.1031 8.71794 29.7885 9.03261 29.5431 9.44861C29.3085 9.85394 29.1911 10.3446 29.1911 10.9206C29.1911 11.4966 29.3085 11.9926 29.5431 12.4086C29.7885 12.8139 30.1085 13.1286 30.5031 13.3526C30.8978 13.5659 31.3138 13.6726 31.7511 13.6726ZM41.5246 15.2566C40.7033 15.2566 39.9726 15.0699 39.3326 14.6966C38.7033 14.3233 38.2073 13.8113 37.8446 13.1606C37.4926 12.4993 37.3166 11.7526 37.3166 10.9206C37.3166 10.0886 37.4926 9.34728 37.8446 8.69661C38.2073 8.04594 38.7033 7.53394 39.3326 7.16061C39.9726 6.77661 40.7033 6.58461 41.5246 6.58461C42.4313 6.58461 43.194 6.78728 43.8126 7.19261C44.442 7.59794 44.89 8.14728 45.1566 8.84061L43.5886 9.48061C43.3966 9.04328 43.1193 8.71794 42.7566 8.50461C42.4046 8.28061 41.9833 8.16861 41.4926 8.16861C41.0446 8.16861 40.634 8.28594 40.2606 8.52061C39.8873 8.74461 39.5886 9.05928 39.3646 9.46461C39.1406 9.86994 39.0286 10.3553 39.0286 10.9206C39.0286 11.4753 39.1406 11.9606 39.3646 12.3766C39.5886 12.7926 39.8873 13.1126 40.2606 13.3366C40.634 13.5606 41.0446 13.6726 41.4926 13.6726C42.0153 13.6726 42.458 13.5553 42.8206 13.3206C43.1833 13.0859 43.466 12.7553 43.6686 12.3286L45.2046 13.0006C44.906 13.6513 44.442 14.1899 43.8126 14.6166C43.194 15.0433 42.4313 15.2566 41.5246 15.2566ZM40.7726 5.27261L39.0606 3.33661V3.22461H40.7086L41.4446 4.21661H41.6046L42.3566 3.22461H44.0206V3.33661L42.2926 5.27261H40.7726ZM46.9641 15.0006V6.84061H48.6921V15.0006H46.9641ZM47.8281 5.64061C47.5081 5.64061 47.2308 5.52861 46.9961 5.30461C46.7721 5.06994 46.6601 4.79261 46.6601 4.47261C46.6601 4.14194 46.7721 3.86994 46.9961 3.65661C47.2308 3.43261 47.5081 3.32061 47.8281 3.32061C48.1588 3.32061 48.4361 3.43261 48.6601 3.65661C48.8841 3.86994 48.9961 4.14194 48.9961 4.47261C48.9961 4.79261 48.8841 5.06994 48.6601 5.30461C48.4361 5.52861 48.1588 5.64061 47.8281 5.64061ZM51.0021 15.0006V3.54461H52.7301V15.0006H51.0021ZM58.6792 15.2566C57.8366 15.2566 57.0952 15.0646 56.4552 14.6806C55.8152 14.2966 55.3139 13.7793 54.9512 13.1286C54.5886 12.4673 54.4072 11.7313 54.4072 10.9206C54.4072 10.1099 54.5886 9.37928 54.9512 8.72861C55.3139 8.06728 55.8152 7.54461 56.4552 7.16061C57.0952 6.77661 57.8366 6.58461 58.6792 6.58461C59.5112 6.58461 60.2472 6.78194 60.8872 7.17661C61.5272 7.56061 62.0286 8.07794 62.3912 8.72861C62.7539 9.37928 62.9352 10.1099 62.9352 10.9206C62.9352 11.7313 62.7539 12.4673 62.3912 13.1286C62.0286 13.7793 61.5272 14.2966 60.8872 14.6806C60.2472 15.0646 59.5112 15.2566 58.6792 15.2566ZM58.6792 13.6726C59.1272 13.6726 59.5432 13.5659 59.9272 13.3526C60.3112 13.1286 60.6206 12.8139 60.8552 12.4086C61.1006 11.9926 61.2232 11.4966 61.2232 10.9206C61.2232 10.3446 61.1006 9.85394 60.8552 9.44861C60.6206 9.03261 60.3112 8.71794 59.9272 8.50461C59.5432 8.28061 59.1272 8.16861 58.6792 8.16861C58.2312 8.16861 57.8099 8.28061 57.4152 8.50461C57.0312 8.71794 56.7166 9.03261 56.4712 9.44861C56.2366 9.85394 56.1192 10.3446 56.1192 10.9206C56.1192 11.4966 56.2366 11.9926 56.4712 12.4086C56.7166 12.8139 57.0366 13.1286 57.4312 13.3526C57.8259 13.5659 58.2419 13.6726 58.6792 13.6726ZM71.5371 15.2566C70.8865 15.2566 70.3211 15.1606 69.8411 14.9686C69.3611 14.7659 68.9665 14.4993 68.6571 14.1686C68.3478 13.8273 68.1185 13.4593 67.9691 13.0646L69.5211 12.3926C69.7131 12.8299 69.9851 13.1659 70.3371 13.4006C70.6998 13.6246 71.1158 13.7366 71.5851 13.7366C72.0118 13.7366 72.3798 13.6619 72.6891 13.5126C72.9985 13.3526 73.1531 13.0966 73.1531 12.7446C73.1531 12.5206 73.0785 12.3393 72.9291 12.2006C72.7905 12.0513 72.5985 11.9286 72.3531 11.8326C72.1185 11.7366 71.8465 11.6513 71.5371 11.5766L70.5611 11.3526C70.1771 11.2566 69.8091 11.1073 69.4571 10.9046C69.1158 10.6913 68.8385 10.4246 68.6251 10.1046C68.4118 9.78461 68.3051 9.40594 68.3051 8.96861C68.3051 8.47794 68.4438 8.05661 68.7211 7.70461C69.0091 7.34194 69.3931 7.06461 69.8731 6.87261C70.3531 6.68061 70.8705 6.58461 71.4251 6.58461C71.9371 6.58461 72.4011 6.65394 72.8171 6.79261C73.2438 6.92061 73.6118 7.11794 73.9211 7.38461C74.2411 7.64061 74.4918 7.96061 74.6731 8.34461L73.1851 9.01661C73.0038 8.65394 72.7585 8.40328 72.4491 8.26461C72.1398 8.11528 71.8038 8.04061 71.4411 8.04061C71.0358 8.04061 70.6945 8.12594 70.4171 8.29661C70.1505 8.45661 70.0171 8.66994 70.0171 8.93661C70.0171 9.21394 70.1345 9.43261 70.3691 9.59261C70.6145 9.75261 70.9131 9.88061 71.2651 9.97661L72.4491 10.2646C73.2598 10.4673 73.8678 10.7766 74.2731 11.1926C74.6785 11.5979 74.8811 12.0939 74.8811 12.6806C74.8811 13.2033 74.7318 13.6619 74.4331 14.0566C74.1345 14.4406 73.7291 14.7393 73.2171 14.9526C72.7158 15.1553 72.1558 15.2566 71.5371 15.2566ZM83.3996 15.2566C82.749 15.2566 82.1836 15.1606 81.7036 14.9686C81.2236 14.7659 80.829 14.4993 80.5196 14.1686C80.2103 13.8273 79.981 13.4593 79.8316 13.0646L81.3836 12.3926C81.5756 12.8299 81.8476 13.1659 82.1996 13.4006C82.5623 13.6246 82.9783 13.7366 83.4476 13.7366C83.8743 13.7366 84.2423 13.6619 84.5516 13.5126C84.861 13.3526 85.0156 13.0966 85.0156 12.7446C85.0156 12.5206 84.941 12.3393 84.7916 12.2006C84.653 12.0513 84.461 11.9286 84.2156 11.8326C83.981 11.7366 83.709 11.6513 83.3996 11.5766L82.4236 11.3526C82.0396 11.2566 81.6716 11.1073 81.3196 10.9046C80.9783 10.6913 80.701 10.4246 80.4876 10.1046C80.2743 9.78461 80.1676 9.40594 80.1676 8.96861C80.1676 8.47794 80.3063 8.05661 80.5836 7.70461C80.8716 7.34194 81.2556 7.06461 81.7356 6.87261C82.2156 6.68061 82.733 6.58461 83.2876 6.58461C83.7996 6.58461 84.2636 6.65394 84.6796 6.79261C85.1063 6.92061 85.4743 7.11794 85.7836 7.38461C86.1036 7.64061 86.3543 7.96061 86.5356 8.34461L85.0476 9.01661C84.8663 8.65394 84.621 8.40328 84.3116 8.26461C84.0023 8.11528 83.6663 8.04061 83.3036 8.04061C82.8983 8.04061 82.557 8.12594 82.2796 8.29661C82.013 8.45661 81.8796 8.66994 81.8796 8.93661C81.8796 9.21394 81.997 9.43261 82.2316 9.59261C82.477 9.75261 82.7756 9.88061 83.1276 9.97661L84.3116 10.2646C85.1223 10.4673 85.7303 10.7766 86.1356 11.1926C86.541 11.5979 86.7436 12.0939 86.7436 12.6806C86.7436 13.2033 86.5943 13.6619 86.2956 14.0566C85.997 14.4406 85.5916 14.7393 85.0796 14.9526C84.5783 15.1553 84.0183 15.2566 83.3996 15.2566ZM87.7636 6.84061H89.1876V4.53661H90.9156V6.84061H92.9156V8.34461H90.9156V12.2646C90.9156 12.6699 90.9956 12.9793 91.1556 13.1926C91.3263 13.4059 91.609 13.5126 92.0036 13.5126C92.1956 13.5126 92.3663 13.4859 92.5156 13.4326C92.665 13.3686 92.8143 13.2939 92.9636 13.2086V14.8886C92.7823 14.9633 92.5903 15.0219 92.3876 15.0646C92.185 15.1073 91.945 15.1286 91.6676 15.1286C90.9103 15.1286 90.3076 14.9099 89.8596 14.4726C89.4116 14.0246 89.1876 13.4113 89.1876 12.6326V8.34461H87.7636V6.84061ZM98.2511 15.2566C97.4085 15.2566 96.6671 15.0646 96.0271 14.6806C95.3871 14.2966 94.8858 13.7793 94.5231 13.1286C94.1605 12.4673 93.9791 11.7313 93.9791 10.9206C93.9791 10.1099 94.1605 9.37928 94.5231 8.72861C94.8858 8.06728 95.3871 7.54461 96.0271 7.16061C96.6671 6.77661 97.4085 6.58461 98.2511 6.58461C99.0831 6.58461 99.8191 6.78194 100.459 7.17661C101.099 7.56061 101.6 8.07794 101.963 8.72861C102.326 9.37928 102.507 10.1099 102.507 10.9206C102.507 11.7313 102.326 12.4673 101.963 13.1286C101.6 13.7793 101.099 14.2966 100.459 14.6806C99.8191 15.0646 99.0831 15.2566 98.2511 15.2566ZM98.2511 13.6726C98.6991 13.6726 99.1151 13.5659 99.4991 13.3526C99.8831 13.1286 100.192 12.8139 100.427 12.4086C100.672 11.9926 100.795 11.4966 100.795 10.9206C100.795 10.3446 100.672 9.85394 100.427 9.44861C100.192 9.03261 99.8831 8.71794 99.4991 8.50461C99.1151 8.28061 98.6991 8.16861 98.2511 8.16861C97.8031 8.16861 97.3818 8.28061 96.9871 8.50461C96.6031 8.71794 96.2885 9.03261 96.0431 9.44861C95.8085 9.85394 95.6911 10.3446 95.6911 10.9206C95.6911 11.4966 95.8085 11.9926 96.0431 12.4086C96.2885 12.8139 96.6085 13.1286 97.0031 13.3526C97.3978 13.5659 97.8138 13.6726 98.2511 13.6726ZM104.092 15.0006V6.84061H105.724V8.04061H105.82C105.948 7.76328 106.13 7.51794 106.364 7.30461C106.61 7.09128 106.887 6.92061 107.196 6.79261C107.516 6.66461 107.847 6.60061 108.188 6.60061C108.412 6.60061 108.599 6.61661 108.748 6.64861C108.908 6.66994 109.052 6.70728 109.18 6.76061V8.55261C108.978 8.46728 108.77 8.39794 108.556 8.34461C108.354 8.29128 108.14 8.26461 107.916 8.26461C107.511 8.26461 107.148 8.37661 106.828 8.60061C106.519 8.81394 106.274 9.10194 106.092 9.46461C105.911 9.82728 105.82 10.2326 105.82 10.6806V15.0006H104.092ZM110.792 15.0006V6.84061H112.52V15.0006H110.792ZM111.656 5.64061C111.336 5.64061 111.059 5.52861 110.824 5.30461C110.6 5.06994 110.488 4.79261 110.488 4.47261C110.488 4.14194 110.6 3.86994 110.824 3.65661C111.059 3.43261 111.336 3.32061 111.656 3.32061C111.987 3.32061 112.264 3.43261 112.488 3.65661C112.712 3.86994 112.824 4.14194 112.824 4.47261C112.824 4.79261 112.712 5.06994 112.488 5.30461C112.264 5.52861 111.987 5.64061 111.656 5.64061ZM114.176 6.84061H115.6V4.53661H117.328V6.84061H119.328V8.34461H117.328V12.2646C117.328 12.6699 117.408 12.9793 117.568 13.1926C117.739 13.4059 118.021 13.5126 118.416 13.5126C118.608 13.5126 118.779 13.4859 118.928 13.4326C119.077 13.3686 119.227 13.2939 119.376 13.2086V14.8886C119.195 14.9633 119.003 15.0219 118.8 15.0646C118.597 15.1073 118.357 15.1286 118.08 15.1286C117.323 15.1286 116.72 14.9099 116.272 14.4726C115.824 14.0246 115.6 13.4113 115.6 12.6326V8.34461H114.176V6.84061ZM123.694 15.0006L120.318 6.84061H122.238L124.526 12.7766H124.606L126.942 6.84061H128.83L125.422 15.0006H123.694ZM130.227 15.0006V6.84061H131.955V15.0006H130.227ZM131.091 5.64061C130.771 5.64061 130.493 5.52861 130.259 5.30461C130.035 5.06994 129.923 4.79261 129.923 4.47261C129.923 4.14194 130.035 3.86994 130.259 3.65661C130.493 3.43261 130.771 3.32061 131.091 3.32061C131.421 3.32061 131.699 3.43261 131.923 3.65661C132.147 3.86994 132.259 4.14194 132.259 4.47261C132.259 4.79261 132.147 5.06994 131.923 5.30461C131.699 5.52861 131.421 5.64061 131.091 5.64061ZM133.689 18.6166C133.518 18.6166 133.363 18.6059 133.225 18.5846C133.075 18.5633 132.931 18.5366 132.793 18.5046V16.8406C132.889 16.8939 133.006 16.9419 133.145 16.9846C133.283 17.0273 133.417 17.0486 133.545 17.0486C133.843 17.0486 134.057 16.9526 134.185 16.7606C134.313 16.5793 134.377 16.3126 134.377 15.9606V6.84061H136.105V15.9766C136.105 16.6059 135.998 17.1126 135.785 17.4966C135.582 17.8806 135.299 18.1633 134.937 18.3446C134.574 18.5259 134.158 18.6166 133.689 18.6166ZM135.241 5.64061C134.921 5.64061 134.643 5.52861 134.409 5.30461C134.185 5.06994 134.073 4.79261 134.073 4.47261C134.073 4.14194 134.185 3.86994 134.409 3.65661C134.643 3.43261 134.921 3.32061 135.241 3.32061C135.571 3.32061 135.849 3.43261 136.073 3.65661C136.297 3.86994 136.409 4.14194 136.409 4.47261C136.409 4.79261 136.297 5.06994 136.073 5.30461C135.849 5.52861 135.571 5.64061 135.241 5.64061ZM142.161 15.2566C141.318 15.2566 140.577 15.0646 139.937 14.6806C139.297 14.2966 138.795 13.7793 138.433 13.1286C138.07 12.4673 137.889 11.7313 137.889 10.9206C137.889 10.1099 138.07 9.37928 138.433 8.72861C138.795 8.06728 139.297 7.54461 139.937 7.16061C140.577 6.77661 141.318 6.58461 142.161 6.58461C142.993 6.58461 143.729 6.78194 144.369 7.17661C145.009 7.56061 145.51 8.07794 145.873 8.72861C146.235 9.37928 146.417 10.1099 146.417 10.9206C146.417 11.7313 146.235 12.4673 145.873 13.1286C145.51 13.7793 145.009 14.2966 144.369 14.6806C143.729 15.0646 142.993 15.2566 142.161 15.2566ZM142.161 13.6726C142.609 13.6726 143.025 13.5659 143.409 13.3526C143.793 13.1286 144.102 12.8139 144.337 12.4086C144.582 11.9926 144.705 11.4966 144.705 10.9206C144.705 10.3446 144.582 9.85394 144.337 9.44861C144.102 9.03261 143.793 8.71794 143.409 8.50461C143.025 8.28061 142.609 8.16861 142.161 8.16861C141.713 8.16861 141.291 8.28061 140.897 8.50461C140.513 8.71794 140.198 9.03261 139.953 9.44861C139.718 9.85394 139.601 10.3446 139.601 10.9206C139.601 11.4966 139.718 11.9926 139.953 12.4086C140.198 12.8139 140.518 13.1286 140.913 13.3526C141.307 13.5659 141.723 13.6726 142.161 13.6726Z" fill="white"/>
<g id="GPay (Dark)">
<g id="GPay">
<g id="Pay">
<path id="Fill 1" fill-rule="evenodd" clip-rule="evenodd" d="M175.356 3.42339V8.16175H178.278C178.974 8.16175 179.55 7.92781 180.005 7.45993C180.473 6.99313 180.707 6.43644 180.707 5.79203C180.707 5.16061 180.473 4.61041 180.005 4.14254C179.55 3.66274 178.974 3.4223 178.278 3.4223H175.356V3.42339ZM175.356 9.82966V15.3262H173.611V1.75549H178.24C179.417 1.75549 180.415 2.14756 181.238 2.93061C182.073 3.71365 182.491 4.66782 182.491 5.79203C182.491 6.94224 182.073 7.90291 181.238 8.67296C180.428 9.44409 179.429 9.82858 178.24 9.82858H175.356V9.82966Z" fill="white"/>
<path id="Fill 3" fill-rule="evenodd" clip-rule="evenodd" d="M184.255 12.4831C184.255 12.9379 184.448 13.317 184.834 13.6203C185.22 13.9235 185.672 14.0752 186.19 14.0752C186.924 14.0752 187.578 13.8032 188.153 13.2607C188.729 12.717 189.017 12.0791 189.017 11.3469C188.472 10.917 187.713 10.7025 186.74 10.7025C186.031 10.7025 185.44 10.8736 184.966 11.2148C184.492 11.5559 184.255 11.9773 184.255 12.4831M186.513 5.73566C187.803 5.73566 188.821 6.08007 189.569 6.76889C190.314 7.45771 190.687 8.40213 190.687 9.60216V15.3261H189.018V14.0373H188.942C188.221 15.0985 187.259 15.6294 186.058 15.6294C185.033 15.6294 184.176 15.3261 183.487 14.7196C182.797 14.1131 182.453 13.3549 182.453 12.4452C182.453 11.4845 182.816 10.7208 183.543 10.1523C184.271 9.58375 185.241 9.2989 186.456 9.2989C187.492 9.2989 188.346 9.48844 189.017 9.86751V9.46894C189.017 8.86243 188.776 8.34798 188.296 7.92451C187.814 7.50103 187.252 7.28984 186.607 7.28984C185.633 7.28984 184.862 7.70032 184.293 8.52235L182.755 7.55519C183.603 6.34217 184.855 5.73566 186.513 5.73566" fill="white"/>
<path id="Fill 5" fill-rule="evenodd" clip-rule="evenodd" d="M200.269 6.03894L194.443 19.4201H192.641L194.804 14.738L190.971 6.03894H192.869L195.639 12.7106H195.677L198.371 6.03894H200.269Z" fill="white"/>
</g>
<g id="G">
<path id="Fill 8" fill-rule="evenodd" clip-rule="evenodd" d="M168.303 8.64473C168.303 8.09563 168.256 7.56601 168.168 7.05914H160.806V10.0625H165.023C164.842 11.0414 164.294 11.8744 163.464 12.4322V14.3828H165.98C167.454 13.0246 168.303 11.0177 168.303 8.64473" fill="#4285F4"/>
<path id="Fill 10" fill-rule="evenodd" clip-rule="evenodd" d="M160.806 16.2651C162.913 16.2651 164.687 15.5741 165.98 14.3828L163.464 12.4322C162.764 12.9033 161.861 13.1784 160.806 13.1784C158.77 13.1784 157.042 11.8073 156.424 9.95959H153.832V11.9687C155.116 14.516 157.757 16.2651 160.806 16.2651" fill="#34A853"/>
<path id="Fill 12" fill-rule="evenodd" clip-rule="evenodd" d="M156.424 9.9596C156.266 9.48847 156.179 8.98593 156.179 8.46715C156.179 7.94837 156.266 7.44583 156.424 6.9747V4.96564H153.832C153.3 6.01837 153 7.20756 153 8.46715C153 9.72674 153.3 10.916 153.832 11.9687L156.424 9.9596Z" fill="#FABB05"/>
<path id="Fill 14" fill-rule="evenodd" clip-rule="evenodd" d="M160.806 3.75583C161.957 3.75583 162.988 4.15115 163.801 4.92553V4.92661L166.029 2.70094C164.676 1.44243 162.912 0.669128 160.806 0.669128C157.757 0.669128 155.116 2.41826 153.832 4.9656L156.424 6.97467C157.042 5.12698 158.77 3.75583 160.806 3.75583" fill="#E94235"/>
</g>
</g>
</g>
</g>
</svg>
