<svg width="352" height="38" viewBox="0 0 352 38" fill="none" xmlns="http://www.w3.org/2000/svg">
<g id="sl_order_with_Dark">
<path id="Text" d="M3.00628 30V9.952H6.64628L15.7183 24.68H15.8863L15.7183 20.816V9.952H18.7703V30H15.5783L6.05828 14.516H5.89028L6.05828 18.38V30H3.00628ZM27.1612 30.448C26.1345 30.448 25.2199 30.252 24.4172 29.86C23.6145 29.4493 22.9892 28.88 22.5412 28.152C22.0932 27.424 21.8692 26.5933 21.8692 25.66C21.8692 24.652 22.1305 23.7933 22.6532 23.084C23.1945 22.356 23.9132 21.8053 24.8092 21.432C25.7052 21.0587 26.6945 20.872 27.7772 20.872C28.6732 20.872 29.4572 20.956 30.1292 21.124C30.8199 21.292 31.3425 21.4693 31.6972 21.656V20.9C31.6972 19.9667 31.3612 19.22 30.6892 18.66C30.0172 18.1 29.1492 17.82 28.0852 17.82C27.3572 17.82 26.6665 17.988 26.0132 18.324C25.3599 18.6413 24.8372 19.08 24.4452 19.64L22.3732 18.044C22.9892 17.1853 23.8012 16.5133 24.8092 16.028C25.8359 15.524 26.9559 15.272 28.1692 15.272C30.2412 15.272 31.8372 15.7853 32.9572 16.812C34.0772 17.82 34.6372 19.2387 34.6372 21.068V30H31.6972V28.236H31.5292C31.1559 28.8147 30.5959 29.328 29.8492 29.776C29.1025 30.224 28.2065 30.448 27.1612 30.448ZM27.6932 27.984C28.4772 27.984 29.1679 27.7973 29.7652 27.424C30.3625 27.0507 30.8292 26.5653 31.1652 25.968C31.5199 25.352 31.6972 24.6893 31.6972 23.98C31.2679 23.7373 30.7639 23.5413 30.1852 23.392C29.6065 23.224 28.9905 23.14 28.3372 23.14C27.1052 23.14 26.2279 23.392 25.7052 23.896C25.1825 24.3813 24.9212 24.9787 24.9212 25.688C24.9212 26.36 25.1732 26.9107 25.6772 27.34C26.1812 27.7693 26.8532 27.984 27.6932 27.984ZM38.2663 30V15.72H41.1223V17.82H41.2903C41.6077 17.092 42.149 16.4947 42.9143 16.028C43.6983 15.5427 44.5383 15.3 45.4343 15.3C45.8263 15.3 46.153 15.328 46.4143 15.384C46.6943 15.44 46.9463 15.5053 47.1703 15.58V18.716C46.8157 18.5667 46.4517 18.4453 46.0783 18.352C45.7237 18.2587 45.3503 18.212 44.9583 18.212C44.249 18.212 43.6143 18.408 43.0543 18.8C42.513 19.1733 42.0837 19.6867 41.7663 20.34C41.449 20.9747 41.2903 21.6747 41.2903 22.44V30H38.2663ZM55.677 30.448C54.2023 30.448 52.905 30.112 51.785 29.44C50.665 28.768 49.7876 27.8627 49.153 26.724C48.5183 25.5853 48.201 24.2973 48.201 22.86C48.201 21.4413 48.5183 20.1627 49.153 19.024C49.7876 17.8667 50.665 16.952 51.785 16.28C52.905 15.608 54.2023 15.272 55.677 15.272C57.133 15.272 58.421 15.608 59.541 16.28C60.661 16.952 61.5383 17.8667 62.173 19.024C62.8076 20.1627 63.125 21.4413 63.125 22.86C63.125 24.2973 62.8076 25.5853 62.173 26.724C61.5383 27.8627 60.661 28.768 59.541 29.44C58.421 30.112 57.133 30.448 55.677 30.448ZM55.677 27.676C56.461 27.676 57.189 27.4893 57.861 27.116C58.533 26.724 59.0743 26.1733 59.485 25.464C59.9143 24.736 60.129 23.868 60.129 22.86C60.129 21.852 59.9143 20.9933 59.485 20.284C59.0743 19.556 58.533 19.0053 57.861 18.632C57.189 18.24 56.461 18.044 55.677 18.044C54.893 18.044 54.1556 18.24 53.465 18.632C52.793 19.0053 52.2423 19.556 51.813 20.284C51.4023 20.9933 51.197 21.852 51.197 22.86C51.197 23.868 51.4023 24.736 51.813 25.464C52.2423 26.1733 52.793 26.724 53.465 27.116C54.1556 27.4893 54.893 27.676 55.677 27.676ZM72.8181 30.448C71.3808 30.448 70.1114 30.1213 69.0101 29.468C67.9088 28.8147 67.0408 27.9187 66.4061 26.78C65.7714 25.6227 65.4541 24.316 65.4541 22.86C65.4541 21.404 65.7714 20.1067 66.4061 18.968C67.0408 17.8107 67.9088 16.9053 69.0101 16.252C70.1114 15.5987 71.3808 15.272 72.8181 15.272C74.4048 15.272 75.7394 15.6267 76.8221 16.336C77.9234 17.0453 78.7074 18.0067 79.1741 19.22L76.4301 20.34C75.7768 18.8093 74.5541 18.044 72.7621 18.044C71.9781 18.044 71.2594 18.2493 70.6061 18.66C69.9528 19.052 69.4301 19.612 69.0381 20.34C68.6461 21.0493 68.4501 21.8893 68.4501 22.86C68.4501 23.8307 68.6461 24.68 69.0381 25.408C69.4301 26.136 69.9528 26.696 70.6061 27.088C71.2594 27.48 71.9781 27.676 72.7621 27.676C73.6768 27.676 74.4514 27.4707 75.0861 27.06C75.7208 26.6307 76.2154 26.052 76.5701 25.324L79.2581 26.5C78.7541 27.6387 77.9514 28.5813 76.8501 29.328C75.7488 30.0747 74.4048 30.448 72.8181 30.448ZM71.5021 12.976L68.5061 9.588V9.392H71.3901L72.6781 11.128H72.9581L74.2741 9.392H77.1861V9.588L74.1621 12.976H71.5021ZM83.8867 13.62C83.3267 13.62 82.8414 13.424 82.4307 13.032C82.0387 12.6213 81.8427 12.136 81.8427 11.576C81.8427 11.016 82.0387 10.54 82.4307 10.148C82.8414 9.756 83.3267 9.56 83.8867 9.56C84.4467 9.56 84.9227 9.756 85.3147 10.148C85.7254 10.54 85.9307 11.016 85.9307 11.576C85.9307 12.136 85.7254 12.6213 85.3147 13.032C84.9227 13.424 84.4467 13.62 83.8867 13.62ZM82.3747 30V15.72H85.3987V30H82.3747ZM89.4787 30V9.952H92.5027V30H89.4787ZM102.951 30.448C101.477 30.448 100.179 30.112 99.0592 29.44C97.9392 28.768 97.0619 27.8627 96.4272 26.724C95.7925 25.5853 95.4752 24.2973 95.4752 22.86C95.4752 21.4413 95.7925 20.1627 96.4272 19.024C97.0619 17.8667 97.9392 16.952 99.0592 16.28C100.179 15.608 101.477 15.272 102.951 15.272C104.407 15.272 105.695 15.608 106.815 16.28C107.935 16.952 108.813 17.8667 109.447 19.024C110.082 20.1627 110.399 21.4413 110.399 22.86C110.399 24.2973 110.082 25.5853 109.447 26.724C108.813 27.8627 107.935 28.768 106.815 29.44C105.695 30.112 104.407 30.448 102.951 30.448ZM102.951 27.676C103.735 27.676 104.463 27.4893 105.135 27.116C105.807 26.724 106.349 26.1733 106.759 25.464C107.189 24.736 107.403 23.868 107.403 22.86C107.403 21.852 107.189 20.9933 106.759 20.284C106.349 19.556 105.807 19.0053 105.135 18.632C104.463 18.24 103.735 18.044 102.951 18.044C102.167 18.044 101.43 18.24 100.739 18.632C100.067 19.0053 99.5165 19.556 99.0872 20.284C98.6765 20.9933 98.4712 21.852 98.4712 22.86C98.4712 23.868 98.6765 24.736 99.0872 25.464C99.5165 26.1733 100.067 26.724 100.739 27.116C101.43 27.4893 102.167 27.676 102.951 27.676ZM125.527 30.448C123.81 30.448 122.438 30.0747 121.411 29.328C120.385 28.5627 119.675 27.6573 119.283 26.612L121.999 25.436C122.335 26.2013 122.821 26.7893 123.455 27.2C124.09 27.592 124.809 27.788 125.611 27.788C126.358 27.788 127.002 27.6573 127.543 27.396C128.085 27.116 128.355 26.668 128.355 26.052C128.355 25.4547 128.085 25.016 127.543 24.736C127.002 24.456 126.33 24.2133 125.527 24.008L123.819 23.616C123.129 23.448 122.485 23.1867 121.887 22.832C121.29 22.4773 120.805 22.02 120.431 21.46C120.058 20.8813 119.871 20.2093 119.871 19.444C119.871 18.604 120.123 17.876 120.627 17.26C121.131 16.6253 121.794 16.14 122.615 15.804C123.455 15.4493 124.361 15.272 125.331 15.272C126.657 15.272 127.814 15.5333 128.803 16.056C129.811 16.56 130.549 17.3253 131.015 18.352L128.411 19.528C128.075 18.8933 127.637 18.4547 127.095 18.212C126.573 17.9507 125.994 17.82 125.359 17.82C124.65 17.82 124.053 17.9693 123.567 18.268C123.101 18.5667 122.867 18.94 122.867 19.388C122.867 19.8733 123.073 20.256 123.483 20.536C123.913 20.816 124.435 21.04 125.051 21.208L127.123 21.712C128.542 22.0667 129.606 22.608 130.315 23.336C131.025 24.0453 131.379 24.9133 131.379 25.94C131.379 26.8547 131.118 27.6573 130.595 28.348C130.073 29.02 129.363 29.5427 128.467 29.916C127.59 30.2707 126.61 30.448 125.527 30.448ZM146.362 30.448C144.645 30.448 143.273 30.0747 142.246 29.328C141.219 28.5627 140.51 27.6573 140.118 26.612L142.834 25.436C143.17 26.2013 143.655 26.7893 144.29 27.2C144.925 27.592 145.643 27.788 146.446 27.788C147.193 27.788 147.837 27.6573 148.378 27.396C148.919 27.116 149.19 26.668 149.19 26.052C149.19 25.4547 148.919 25.016 148.378 24.736C147.837 24.456 147.165 24.2133 146.362 24.008L144.654 23.616C143.963 23.448 143.319 23.1867 142.722 22.832C142.125 22.4773 141.639 22.02 141.266 21.46C140.893 20.8813 140.706 20.2093 140.706 19.444C140.706 18.604 140.958 17.876 141.462 17.26C141.966 16.6253 142.629 16.14 143.45 15.804C144.29 15.4493 145.195 15.272 146.166 15.272C147.491 15.272 148.649 15.5333 149.638 16.056C150.646 16.56 151.383 17.3253 151.85 18.352L149.246 19.528C148.91 18.8933 148.471 18.4547 147.93 18.212C147.407 17.9507 146.829 17.82 146.194 17.82C145.485 17.82 144.887 17.9693 144.402 18.268C143.935 18.5667 143.702 18.94 143.702 19.388C143.702 19.8733 143.907 20.256 144.318 20.536C144.747 20.816 145.27 21.04 145.886 21.208L147.958 21.712C149.377 22.0667 150.441 22.608 151.15 23.336C151.859 24.0453 152.214 24.9133 152.214 25.94C152.214 26.8547 151.953 27.6573 151.43 28.348C150.907 29.02 150.198 29.5427 149.302 29.916C148.425 30.2707 147.445 30.448 146.362 30.448ZM156.528 25.856V18.352H154.036V15.72H156.528V11.688H159.552V15.72H163.052V18.352H159.552V25.212C159.552 25.9213 159.692 26.4627 159.972 26.836C160.271 27.2093 160.766 27.396 161.456 27.396C161.811 27.396 162.11 27.3493 162.352 27.256C162.614 27.1627 162.875 27.032 163.136 26.864V29.804C162.819 29.9347 162.483 30.0373 162.128 30.112C161.774 30.1867 161.354 30.224 160.868 30.224C159.543 30.224 158.488 29.8413 157.704 29.076C156.92 28.292 156.528 27.2187 156.528 25.856ZM172.427 30.448C170.952 30.448 169.655 30.112 168.535 29.44C167.415 28.768 166.538 27.8627 165.903 26.724C165.268 25.5853 164.951 24.2973 164.951 22.86C164.951 21.4413 165.268 20.1627 165.903 19.024C166.538 17.8667 167.415 16.952 168.535 16.28C169.655 15.608 170.952 15.272 172.427 15.272C173.883 15.272 175.171 15.608 176.291 16.28C177.411 16.952 178.288 17.8667 178.923 19.024C179.558 20.1627 179.875 21.4413 179.875 22.86C179.875 24.2973 179.558 25.5853 178.923 26.724C178.288 27.8627 177.411 28.768 176.291 29.44C175.171 30.112 173.883 30.448 172.427 30.448ZM172.427 27.676C173.211 27.676 173.939 27.4893 174.611 27.116C175.283 26.724 175.824 26.1733 176.235 25.464C176.664 24.736 176.879 23.868 176.879 22.86C176.879 21.852 176.664 20.9933 176.235 20.284C175.824 19.556 175.283 19.0053 174.611 18.632C173.939 18.24 173.211 18.044 172.427 18.044C171.643 18.044 170.906 18.24 170.215 18.632C169.543 19.0053 168.992 19.556 168.563 20.284C168.152 20.9933 167.947 21.852 167.947 22.86C167.947 23.868 168.152 24.736 168.563 25.464C168.992 26.1733 169.543 26.724 170.215 27.116C170.906 27.4893 171.643 27.676 172.427 27.676ZM182.687 30V15.72H185.543V17.82H185.711C186.028 17.092 186.569 16.4947 187.335 16.028C188.119 15.5427 188.959 15.3 189.855 15.3C190.247 15.3 190.573 15.328 190.835 15.384C191.115 15.44 191.367 15.5053 191.591 15.58V18.716C191.236 18.5667 190.872 18.4453 190.499 18.352C190.144 18.2587 189.771 18.212 189.379 18.212C188.669 18.212 188.035 18.408 187.475 18.8C186.933 19.1733 186.504 19.6867 186.187 20.34C185.869 20.9747 185.711 21.6747 185.711 22.44V30H182.687ZM195.961 13.62C195.401 13.62 194.916 13.424 194.505 13.032C194.113 12.6213 193.917 12.136 193.917 11.576C193.917 11.016 194.113 10.54 194.505 10.148C194.916 9.756 195.401 9.56 195.961 9.56C196.521 9.56 196.997 9.756 197.389 10.148C197.8 10.54 198.005 11.016 198.005 11.576C198.005 12.136 197.8 12.6213 197.389 13.032C196.997 13.424 196.521 13.62 195.961 13.62ZM194.449 30V15.72H197.473V30H194.449ZM202.9 25.856V18.352H200.408V15.72H202.9V11.688H205.924V15.72H209.424V18.352H205.924V25.212C205.924 25.9213 206.064 26.4627 206.344 26.836C206.643 27.2093 207.138 27.396 207.828 27.396C208.183 27.396 208.482 27.3493 208.724 27.256C208.986 27.1627 209.247 27.032 209.508 26.864V29.804C209.191 29.9347 208.855 30.0373 208.5 30.112C208.146 30.1867 207.726 30.224 207.24 30.224C205.915 30.224 204.86 29.8413 204.076 29.076C203.292 28.292 202.9 27.2187 202.9 25.856ZM217.102 30L211.194 15.72H214.554L218.558 26.108H218.698L222.786 15.72H226.09L220.126 30H217.102ZM230.084 13.62C229.524 13.62 229.038 13.424 228.628 13.032C228.236 12.6213 228.04 12.136 228.04 11.576C228.04 11.016 228.236 10.54 228.628 10.148C229.038 9.756 229.524 9.56 230.084 9.56C230.644 9.56 231.12 9.756 231.512 10.148C231.922 10.54 232.128 11.016 232.128 11.576C232.128 12.136 231.922 12.6213 231.512 13.032C231.12 13.424 230.644 13.62 230.084 13.62ZM228.572 30V15.72H231.596V30H228.572ZM237.384 13.62C236.824 13.62 236.338 13.424 235.928 13.032C235.536 12.6213 235.34 12.136 235.34 11.576C235.34 11.016 235.536 10.54 235.928 10.148C236.338 9.756 236.824 9.56 237.384 9.56C237.944 9.56 238.42 9.756 238.812 10.148C239.222 10.54 239.428 11.016 239.428 11.576C239.428 12.136 239.222 12.6213 238.812 13.032C238.42 13.424 237.944 13.62 237.384 13.62ZM234.668 36.328C234.089 36.328 233.566 36.2627 233.1 36.132V33.22C233.286 33.332 233.501 33.416 233.744 33.472C233.968 33.5467 234.192 33.584 234.416 33.584C234.957 33.584 235.33 33.416 235.536 33.08C235.76 32.7627 235.872 32.296 235.872 31.68V15.72H238.896V31.708C238.896 33.3507 238.494 34.5267 237.692 35.236C236.889 35.964 235.881 36.328 234.668 36.328ZM249.531 30.448C248.056 30.448 246.759 30.112 245.639 29.44C244.519 28.768 243.642 27.8627 243.007 26.724C242.372 25.5853 242.055 24.2973 242.055 22.86C242.055 21.4413 242.372 20.1627 243.007 19.024C243.642 17.8667 244.519 16.952 245.639 16.28C246.759 15.608 248.056 15.272 249.531 15.272C250.987 15.272 252.275 15.608 253.395 16.28C254.515 16.952 255.392 17.8667 256.027 19.024C256.662 20.1627 256.979 21.4413 256.979 22.86C256.979 24.2973 256.662 25.5853 256.027 26.724C255.392 27.8627 254.515 28.768 253.395 29.44C252.275 30.112 250.987 30.448 249.531 30.448ZM249.531 27.676C250.315 27.676 251.043 27.4893 251.715 27.116C252.387 26.724 252.928 26.1733 253.339 25.464C253.768 24.736 253.983 23.868 253.983 22.86C253.983 21.852 253.768 20.9933 253.339 20.284C252.928 19.556 252.387 19.0053 251.715 18.632C251.043 18.24 250.315 18.044 249.531 18.044C248.747 18.044 248.01 18.24 247.319 18.632C246.647 19.0053 246.096 19.556 245.667 20.284C245.256 20.9933 245.051 21.852 245.051 22.86C245.051 23.868 245.256 24.736 245.667 25.464C246.096 26.1733 246.647 26.724 247.319 27.116C248.01 27.4893 248.747 27.676 249.531 27.676Z" fill="white"/>
<g id="GPay Logo (Dark)">
<g id="GPay">
<g id="Pay">
<path id="Fill 1" fill-rule="evenodd" clip-rule="evenodd" d="M308.529 9.34665V17.5128H313.565C314.765 17.5128 315.757 17.1096 316.541 16.3032C317.347 15.4988 317.75 14.5394 317.75 13.4288C317.75 12.3406 317.347 11.3924 316.541 10.586C315.757 9.75916 314.765 9.34479 313.565 9.34479H308.529V9.34665ZM308.529 20.3872V29.8599H305.521V6.47218H313.499C315.527 6.47218 317.248 7.14787 318.666 8.49738C320.105 9.84688 320.824 11.4913 320.824 13.4288C320.824 15.411 320.105 17.0667 318.666 18.3938C317.27 19.7227 315.547 20.3854 313.499 20.3854H308.529V20.3872Z" fill="white"/>
<path id="Fill 3" fill-rule="evenodd" clip-rule="evenodd" d="M323.864 24.9602C323.864 25.7442 324.197 26.3975 324.862 26.9201C325.527 27.4427 326.306 27.704 327.2 27.704C328.465 27.704 329.591 27.2354 330.584 26.3004C331.576 25.3634 332.071 24.264 332.071 23.0022C331.133 22.2612 329.825 21.8916 328.147 21.8916C326.925 21.8916 325.907 22.1866 325.09 22.7745C324.273 23.3623 323.864 24.0886 323.864 24.9602ZM327.756 13.3317C329.98 13.3317 331.735 13.9253 333.022 15.1124C334.308 16.2995 334.95 17.9271 334.95 19.9952V29.8599H332.073V27.6387H331.942C330.699 29.4677 329.042 30.3825 326.972 30.3825C325.206 30.3825 323.728 29.8599 322.541 28.8146C321.353 27.7694 320.759 26.4628 320.759 24.8949C320.759 23.2393 321.385 21.9232 322.638 20.9434C323.892 19.9635 325.565 19.4726 327.658 19.4726C329.444 19.4726 330.916 19.7993 332.071 20.4525V19.7657C332.071 18.7204 331.656 17.8338 330.829 17.104C329.999 16.3742 329.031 16.0102 327.919 16.0102C326.239 16.0102 324.911 16.7176 323.93 18.1343L321.28 16.4675C322.741 14.377 324.899 13.3317 327.756 13.3317Z" fill="white"/>
<path id="Fill 5" fill-rule="evenodd" clip-rule="evenodd" d="M351.463 13.8543L341.424 36.9154H338.318L342.046 28.8464L335.44 13.8543H338.71L343.484 25.3522H343.55L348.193 13.8543H351.463Z" fill="white"/>
</g>
<g id="G">
<path id="Fill 8" fill-rule="evenodd" clip-rule="evenodd" d="M296.373 18.3452C296.373 17.3989 296.293 16.4861 296.141 15.6126H283.454V20.7885H290.72C290.408 22.4757 289.465 23.9112 288.033 24.8725V28.2341H292.37C294.91 25.8935 296.373 22.4348 296.373 18.3452Z" fill="#4285F4"/>
<path id="Fill 10" fill-rule="evenodd" clip-rule="evenodd" d="M283.454 31.4782C287.084 31.4782 290.141 30.2873 292.37 28.2341L288.033 24.8725C286.826 25.6844 285.272 26.1585 283.454 26.1585C279.944 26.1585 276.966 23.7955 275.901 20.6112H271.433V24.0736C273.647 28.4637 278.197 31.4782 283.454 31.4782Z" fill="#34A853"/>
<path id="Fill 12" fill-rule="evenodd" clip-rule="evenodd" d="M275.901 20.6111C275.628 19.7992 275.479 18.9331 275.479 18.0391C275.479 17.145 275.628 16.2789 275.901 15.467V12.0045H271.433C270.518 13.8188 270 15.8683 270 18.0391C270 20.2098 270.518 22.2595 271.433 24.0736L275.901 20.6111Z" fill="#FABB05"/>
<path id="Fill 14" fill-rule="evenodd" clip-rule="evenodd" d="M283.454 9.91964C285.436 9.91964 287.213 10.6009 288.615 11.9355V11.9374L292.455 8.10163C290.123 5.93272 287.082 4.60001 283.454 4.60001C278.197 4.60001 273.647 7.61447 271.433 12.0046L275.901 15.467C276.966 12.2827 279.944 9.91964 283.454 9.91964Z" fill="#E94235"/>
</g>
</g>
</g>
</g>
</svg>
