<svg width="328" height="38" viewBox="0 0 328 38" fill="none" xmlns="http://www.w3.org/2000/svg">
<g id="sl_pay_with_Dark">
<path id="Text" d="M3.45082 30V9.952H10.3388C11.5521 9.952 12.6535 10.2133 13.6428 10.736C14.6321 11.2587 15.4161 11.9773 15.9948 12.892C16.5922 13.8067 16.8908 14.8707 16.8908 16.084C16.8908 17.2973 16.5922 18.3707 15.9948 19.304C15.4161 20.2187 14.6321 20.9373 13.6428 21.46C12.6535 21.964 11.5521 22.216 10.3388 22.216H6.53082V30H3.45082ZM10.4228 12.864H6.53082V19.304H10.4228C11.1508 19.304 11.7668 19.1547 12.2708 18.856C12.7748 18.5387 13.1575 18.1373 13.4188 17.652C13.6988 17.148 13.8388 16.6253 13.8388 16.084C13.8388 15.5427 13.6988 15.0293 13.4188 14.544C13.1575 14.0587 12.7748 13.6573 12.2708 13.34C11.7668 13.0227 11.1508 12.864 10.4228 12.864ZM20.0092 30V9.952H23.0332V30H20.0092ZM31.2417 30.448C30.215 30.448 29.3003 30.252 28.4977 29.86C27.695 29.4493 27.0697 28.88 26.6217 28.152C26.1737 27.424 25.9497 26.5933 25.9497 25.66C25.9497 24.652 26.211 23.7933 26.7337 23.084C27.275 22.356 27.9937 21.8053 28.8897 21.432C29.7857 21.0587 30.775 20.872 31.8577 20.872C32.7537 20.872 33.5377 20.956 34.2097 21.124C34.9003 21.292 35.423 21.4693 35.7777 21.656V20.9C35.7777 19.9667 35.4417 19.22 34.7697 18.66C34.0977 18.1 33.2297 17.82 32.1657 17.82C31.4377 17.82 30.747 17.988 30.0937 18.324C29.4403 18.6413 28.9177 19.08 28.5257 19.64L26.4537 18.044C27.0697 17.1853 27.8817 16.5133 28.8897 16.028C29.9163 15.524 31.0363 15.272 32.2497 15.272C34.3217 15.272 35.9177 15.7853 37.0377 16.812C38.1577 17.82 38.7177 19.2387 38.7177 21.068V30H35.7777V28.236H35.6097C35.2363 28.8147 34.6763 29.328 33.9297 29.776C33.183 30.224 32.287 30.448 31.2417 30.448ZM31.7737 27.984C32.5577 27.984 33.2483 27.7973 33.8457 27.424C34.443 27.0507 34.9097 26.5653 35.2457 25.968C35.6003 25.352 35.7777 24.6893 35.7777 23.98C35.3483 23.7373 34.8443 23.5413 34.2657 23.392C33.687 23.224 33.071 23.14 32.4177 23.14C31.1857 23.14 30.3083 23.392 29.7857 23.896C29.263 24.3813 29.0017 24.9787 29.0017 25.688C29.0017 26.36 29.2537 26.9107 29.7577 27.34C30.2617 27.7693 30.9337 27.984 31.7737 27.984ZM48.8181 30.448C47.3808 30.448 46.1114 30.1213 45.0101 29.468C43.9088 28.8147 43.0408 27.9187 42.4061 26.78C41.7714 25.6227 41.4541 24.316 41.4541 22.86C41.4541 21.404 41.7714 20.1067 42.4061 18.968C43.0408 17.8107 43.9088 16.9053 45.0101 16.252C46.1114 15.5987 47.3808 15.272 48.8181 15.272C50.4048 15.272 51.7394 15.6267 52.8221 16.336C53.9234 17.0453 54.7074 18.0067 55.1741 19.22L52.4301 20.34C51.7768 18.8093 50.5541 18.044 48.7621 18.044C47.9781 18.044 47.2594 18.2493 46.6061 18.66C45.9528 19.052 45.4301 19.612 45.0381 20.34C44.6461 21.0493 44.4501 21.8893 44.4501 22.86C44.4501 23.8307 44.6461 24.68 45.0381 25.408C45.4301 26.136 45.9528 26.696 46.6061 27.088C47.2594 27.48 47.9781 27.676 48.7621 27.676C49.6768 27.676 50.4514 27.4707 51.0861 27.06C51.7208 26.6307 52.2154 26.052 52.5701 25.324L55.2581 26.5C54.7541 27.6387 53.9514 28.5813 52.8501 29.328C51.7488 30.0747 50.4048 30.448 48.8181 30.448ZM47.5021 12.976L44.5061 9.588V9.392H47.3901L48.6781 11.128H48.9581L50.2741 9.392H53.1861V9.588L50.1621 12.976H47.5021ZM59.8867 13.62C59.3267 13.62 58.8414 13.424 58.4307 13.032C58.0387 12.6213 57.8427 12.136 57.8427 11.576C57.8427 11.016 58.0387 10.54 58.4307 10.148C58.8414 9.756 59.3267 9.56 59.8867 9.56C60.4467 9.56 60.9227 9.756 61.3147 10.148C61.7254 10.54 61.9307 11.016 61.9307 11.576C61.9307 12.136 61.7254 12.6213 61.3147 13.032C60.9227 13.424 60.4467 13.62 59.8867 13.62ZM58.3747 30V15.72H61.3987V30H58.3747ZM65.4787 30V9.952H68.5027V30H65.4787ZM78.9512 30.448C77.4765 30.448 76.1792 30.112 75.0592 29.44C73.9392 28.768 73.0619 27.8627 72.4272 26.724C71.7925 25.5853 71.4752 24.2973 71.4752 22.86C71.4752 21.4413 71.7925 20.1627 72.4272 19.024C73.0619 17.8667 73.9392 16.952 75.0592 16.28C76.1792 15.608 77.4765 15.272 78.9512 15.272C80.4072 15.272 81.6952 15.608 82.8152 16.28C83.9352 16.952 84.8125 17.8667 85.4472 19.024C86.0819 20.1627 86.3992 21.4413 86.3992 22.86C86.3992 24.2973 86.0819 25.5853 85.4472 26.724C84.8125 27.8627 83.9352 28.768 82.8152 29.44C81.6952 30.112 80.4072 30.448 78.9512 30.448ZM78.9512 27.676C79.7352 27.676 80.4632 27.4893 81.1352 27.116C81.8072 26.724 82.3485 26.1733 82.7592 25.464C83.1885 24.736 83.4032 23.868 83.4032 22.86C83.4032 21.852 83.1885 20.9933 82.7592 20.284C82.3485 19.556 81.8072 19.0053 81.1352 18.632C80.4632 18.24 79.7352 18.044 78.9512 18.044C78.1672 18.044 77.4299 18.24 76.7392 18.632C76.0672 19.0053 75.5165 19.556 75.0872 20.284C74.6765 20.9933 74.4712 21.852 74.4712 22.86C74.4712 23.868 74.6765 24.736 75.0872 25.464C75.5165 26.1733 76.0672 26.724 76.7392 27.116C77.4299 27.4893 78.1672 27.676 78.9512 27.676ZM101.527 30.448C99.8101 30.448 98.4381 30.0747 97.4115 29.328C96.3848 28.5627 95.6755 27.6573 95.2835 26.612L97.9995 25.436C98.3355 26.2013 98.8208 26.7893 99.4555 27.2C100.09 27.592 100.809 27.788 101.611 27.788C102.358 27.788 103.002 27.6573 103.543 27.396C104.085 27.116 104.355 26.668 104.355 26.052C104.355 25.4547 104.085 25.016 103.543 24.736C103.002 24.456 102.33 24.2133 101.527 24.008L99.8195 23.616C99.1288 23.448 98.4848 23.1867 97.8875 22.832C97.2901 22.4773 96.8048 22.02 96.4315 21.46C96.0581 20.8813 95.8715 20.2093 95.8715 19.444C95.8715 18.604 96.1235 17.876 96.6275 17.26C97.1315 16.6253 97.7941 16.14 98.6155 15.804C99.4555 15.4493 100.361 15.272 101.331 15.272C102.657 15.272 103.814 15.5333 104.803 16.056C105.811 16.56 106.549 17.3253 107.015 18.352L104.411 19.528C104.075 18.8933 103.637 18.4547 103.095 18.212C102.573 17.9507 101.994 17.82 101.359 17.82C100.65 17.82 100.053 17.9693 99.5675 18.268C99.1008 18.5667 98.8675 18.94 98.8675 19.388C98.8675 19.8733 99.0728 20.256 99.4835 20.536C99.9128 20.816 100.435 21.04 101.051 21.208L103.123 21.712C104.542 22.0667 105.606 22.608 106.315 23.336C107.025 24.0453 107.379 24.9133 107.379 25.94C107.379 26.8547 107.118 27.6573 106.595 28.348C106.073 29.02 105.363 29.5427 104.467 29.916C103.59 30.2707 102.61 30.448 101.527 30.448ZM122.362 30.448C120.645 30.448 119.273 30.0747 118.246 29.328C117.219 28.5627 116.51 27.6573 116.118 26.612L118.834 25.436C119.17 26.2013 119.655 26.7893 120.29 27.2C120.925 27.592 121.643 27.788 122.446 27.788C123.193 27.788 123.837 27.6573 124.378 27.396C124.919 27.116 125.19 26.668 125.19 26.052C125.19 25.4547 124.919 25.016 124.378 24.736C123.837 24.456 123.165 24.2133 122.362 24.008L120.654 23.616C119.963 23.448 119.319 23.1867 118.722 22.832C118.125 22.4773 117.639 22.02 117.266 21.46C116.893 20.8813 116.706 20.2093 116.706 19.444C116.706 18.604 116.958 17.876 117.462 17.26C117.966 16.6253 118.629 16.14 119.45 15.804C120.29 15.4493 121.195 15.272 122.166 15.272C123.491 15.272 124.649 15.5333 125.638 16.056C126.646 16.56 127.383 17.3253 127.85 18.352L125.246 19.528C124.91 18.8933 124.471 18.4547 123.93 18.212C123.407 17.9507 122.829 17.82 122.194 17.82C121.485 17.82 120.887 17.9693 120.402 18.268C119.935 18.5667 119.702 18.94 119.702 19.388C119.702 19.8733 119.907 20.256 120.318 20.536C120.747 20.816 121.27 21.04 121.886 21.208L123.958 21.712C125.377 22.0667 126.441 22.608 127.15 23.336C127.859 24.0453 128.214 24.9133 128.214 25.94C128.214 26.8547 127.953 27.6573 127.43 28.348C126.907 29.02 126.198 29.5427 125.302 29.916C124.425 30.2707 123.445 30.448 122.362 30.448ZM132.528 25.856V18.352H130.036V15.72H132.528V11.688H135.552V15.72H139.052V18.352H135.552V25.212C135.552 25.9213 135.692 26.4627 135.972 26.836C136.271 27.2093 136.766 27.396 137.456 27.396C137.811 27.396 138.11 27.3493 138.352 27.256C138.614 27.1627 138.875 27.032 139.136 26.864V29.804C138.819 29.9347 138.483 30.0373 138.128 30.112C137.774 30.1867 137.354 30.224 136.868 30.224C135.543 30.224 134.488 29.8413 133.704 29.076C132.92 28.292 132.528 27.2187 132.528 25.856ZM148.427 30.448C146.952 30.448 145.655 30.112 144.535 29.44C143.415 28.768 142.538 27.8627 141.903 26.724C141.268 25.5853 140.951 24.2973 140.951 22.86C140.951 21.4413 141.268 20.1627 141.903 19.024C142.538 17.8667 143.415 16.952 144.535 16.28C145.655 15.608 146.952 15.272 148.427 15.272C149.883 15.272 151.171 15.608 152.291 16.28C153.411 16.952 154.288 17.8667 154.923 19.024C155.558 20.1627 155.875 21.4413 155.875 22.86C155.875 24.2973 155.558 25.5853 154.923 26.724C154.288 27.8627 153.411 28.768 152.291 29.44C151.171 30.112 149.883 30.448 148.427 30.448ZM148.427 27.676C149.211 27.676 149.939 27.4893 150.611 27.116C151.283 26.724 151.824 26.1733 152.235 25.464C152.664 24.736 152.879 23.868 152.879 22.86C152.879 21.852 152.664 20.9933 152.235 20.284C151.824 19.556 151.283 19.0053 150.611 18.632C149.939 18.24 149.211 18.044 148.427 18.044C147.643 18.044 146.906 18.24 146.215 18.632C145.543 19.0053 144.992 19.556 144.563 20.284C144.152 20.9933 143.947 21.852 143.947 22.86C143.947 23.868 144.152 24.736 144.563 25.464C144.992 26.1733 145.543 26.724 146.215 27.116C146.906 27.4893 147.643 27.676 148.427 27.676ZM158.687 30V15.72H161.543V17.82H161.711C162.028 17.092 162.569 16.4947 163.335 16.028C164.119 15.5427 164.959 15.3 165.855 15.3C166.247 15.3 166.573 15.328 166.835 15.384C167.115 15.44 167.367 15.5053 167.591 15.58V18.716C167.236 18.5667 166.872 18.4453 166.499 18.352C166.144 18.2587 165.771 18.212 165.379 18.212C164.669 18.212 164.035 18.408 163.475 18.8C162.933 19.1733 162.504 19.6867 162.187 20.34C161.869 20.9747 161.711 21.6747 161.711 22.44V30H158.687ZM171.961 13.62C171.401 13.62 170.916 13.424 170.505 13.032C170.113 12.6213 169.917 12.136 169.917 11.576C169.917 11.016 170.113 10.54 170.505 10.148C170.916 9.756 171.401 9.56 171.961 9.56C172.521 9.56 172.997 9.756 173.389 10.148C173.8 10.54 174.005 11.016 174.005 11.576C174.005 12.136 173.8 12.6213 173.389 13.032C172.997 13.424 172.521 13.62 171.961 13.62ZM170.449 30V15.72H173.473V30H170.449ZM178.9 25.856V18.352H176.408V15.72H178.9V11.688H181.924V15.72H185.424V18.352H181.924V25.212C181.924 25.9213 182.064 26.4627 182.344 26.836C182.643 27.2093 183.138 27.396 183.828 27.396C184.183 27.396 184.482 27.3493 184.724 27.256C184.986 27.1627 185.247 27.032 185.508 26.864V29.804C185.191 29.9347 184.855 30.0373 184.5 30.112C184.146 30.1867 183.726 30.224 183.24 30.224C181.915 30.224 180.86 29.8413 180.076 29.076C179.292 28.292 178.9 27.2187 178.9 25.856ZM193.102 30L187.194 15.72H190.554L194.558 26.108H194.698L198.786 15.72H202.09L196.126 30H193.102ZM206.084 13.62C205.524 13.62 205.038 13.424 204.628 13.032C204.236 12.6213 204.04 12.136 204.04 11.576C204.04 11.016 204.236 10.54 204.628 10.148C205.038 9.756 205.524 9.56 206.084 9.56C206.644 9.56 207.12 9.756 207.512 10.148C207.922 10.54 208.128 11.016 208.128 11.576C208.128 12.136 207.922 12.6213 207.512 13.032C207.12 13.424 206.644 13.62 206.084 13.62ZM204.572 30V15.72H207.596V30H204.572ZM213.384 13.62C212.824 13.62 212.338 13.424 211.928 13.032C211.536 12.6213 211.34 12.136 211.34 11.576C211.34 11.016 211.536 10.54 211.928 10.148C212.338 9.756 212.824 9.56 213.384 9.56C213.944 9.56 214.42 9.756 214.812 10.148C215.222 10.54 215.428 11.016 215.428 11.576C215.428 12.136 215.222 12.6213 214.812 13.032C214.42 13.424 213.944 13.62 213.384 13.62ZM210.668 36.328C210.089 36.328 209.566 36.2627 209.1 36.132V33.22C209.286 33.332 209.501 33.416 209.744 33.472C209.968 33.5467 210.192 33.584 210.416 33.584C210.957 33.584 211.33 33.416 211.536 33.08C211.76 32.7627 211.872 32.296 211.872 31.68V15.72H214.896V31.708C214.896 33.3507 214.494 34.5267 213.692 35.236C212.889 35.964 211.881 36.328 210.668 36.328ZM225.531 30.448C224.056 30.448 222.759 30.112 221.639 29.44C220.519 28.768 219.642 27.8627 219.007 26.724C218.372 25.5853 218.055 24.2973 218.055 22.86C218.055 21.4413 218.372 20.1627 219.007 19.024C219.642 17.8667 220.519 16.952 221.639 16.28C222.759 15.608 224.056 15.272 225.531 15.272C226.987 15.272 228.275 15.608 229.395 16.28C230.515 16.952 231.392 17.8667 232.027 19.024C232.662 20.1627 232.979 21.4413 232.979 22.86C232.979 24.2973 232.662 25.5853 232.027 26.724C231.392 27.8627 230.515 28.768 229.395 29.44C228.275 30.112 226.987 30.448 225.531 30.448ZM225.531 27.676C226.315 27.676 227.043 27.4893 227.715 27.116C228.387 26.724 228.928 26.1733 229.339 25.464C229.768 24.736 229.983 23.868 229.983 22.86C229.983 21.852 229.768 20.9933 229.339 20.284C228.928 19.556 228.387 19.0053 227.715 18.632C227.043 18.24 226.315 18.044 225.531 18.044C224.747 18.044 224.01 18.24 223.319 18.632C222.647 19.0053 222.096 19.556 221.667 20.284C221.256 20.9933 221.051 21.852 221.051 22.86C221.051 23.868 221.256 24.736 221.667 25.464C222.096 26.1733 222.647 26.724 223.319 27.116C224.01 27.4893 224.747 27.676 225.531 27.676Z" fill="white"/>
<g id="GPay Logo (Dark)">
<g id="GPay">
<g id="Pay">
<path id="Fill 1" fill-rule="evenodd" clip-rule="evenodd" d="M284.529 9.34665V17.5128H289.565C290.765 17.5128 291.757 17.1096 292.541 16.3032C293.347 15.4988 293.75 14.5394 293.75 13.4288C293.75 12.3406 293.347 11.3924 292.541 10.586C291.757 9.75916 290.765 9.34479 289.565 9.34479H284.529V9.34665ZM284.529 20.3872V29.8599H281.521V6.47218H289.499C291.527 6.47218 293.248 7.14787 294.666 8.49738C296.105 9.84688 296.824 11.4913 296.824 13.4288C296.824 15.411 296.105 17.0667 294.666 18.3938C293.27 19.7227 291.547 20.3854 289.499 20.3854H284.529V20.3872Z" fill="white"/>
<path id="Fill 3" fill-rule="evenodd" clip-rule="evenodd" d="M299.864 24.9602C299.864 25.7442 300.197 26.3975 300.862 26.9201C301.527 27.4427 302.306 27.704 303.2 27.704C304.465 27.704 305.591 27.2354 306.584 26.3004C307.576 25.3634 308.071 24.264 308.071 23.0022C307.133 22.2612 305.825 21.8916 304.147 21.8916C302.925 21.8916 301.907 22.1866 301.09 22.7745C300.273 23.3623 299.864 24.0886 299.864 24.9602ZM303.756 13.3317C305.98 13.3317 307.735 13.9253 309.022 15.1124C310.308 16.2995 310.95 17.9271 310.95 19.9952V29.8599H308.073V27.6387H307.942C306.699 29.4677 305.042 30.3825 302.972 30.3825C301.206 30.3825 299.728 29.8599 298.541 28.8146C297.353 27.7694 296.759 26.4628 296.759 24.8949C296.759 23.2393 297.385 21.9232 298.638 20.9434C299.892 19.9635 301.565 19.4726 303.658 19.4726C305.444 19.4726 306.916 19.7993 308.071 20.4525V19.7657C308.071 18.7204 307.656 17.8338 306.829 17.104C305.999 16.3742 305.031 16.0102 303.919 16.0102C302.239 16.0102 300.911 16.7176 299.93 18.1343L297.28 16.4675C298.741 14.377 300.899 13.3317 303.756 13.3317Z" fill="white"/>
<path id="Fill 5" fill-rule="evenodd" clip-rule="evenodd" d="M327.463 13.8543L317.424 36.9154H314.318L318.046 28.8464L311.44 13.8543H314.71L319.484 25.3522H319.55L324.193 13.8543H327.463Z" fill="white"/>
</g>
<g id="G">
<path id="Fill 8" fill-rule="evenodd" clip-rule="evenodd" d="M272.373 18.3452C272.373 17.3989 272.293 16.4861 272.141 15.6126H259.454V20.7885H266.72C266.408 22.4757 265.465 23.9112 264.033 24.8725V28.2341H268.37C270.91 25.8935 272.373 22.4348 272.373 18.3452Z" fill="#4285F4"/>
<path id="Fill 10" fill-rule="evenodd" clip-rule="evenodd" d="M259.454 31.4782C263.084 31.4782 266.141 30.2873 268.37 28.2341L264.033 24.8725C262.826 25.6844 261.272 26.1585 259.454 26.1585C255.944 26.1585 252.966 23.7955 251.901 20.6112H247.433V24.0736C249.647 28.4637 254.197 31.4782 259.454 31.4782Z" fill="#34A853"/>
<path id="Fill 12" fill-rule="evenodd" clip-rule="evenodd" d="M251.901 20.6111C251.628 19.7992 251.479 18.9331 251.479 18.0391C251.479 17.145 251.628 16.2789 251.901 15.467V12.0045H247.433C246.518 13.8188 246 15.8683 246 18.0391C246 20.2098 246.518 22.2595 247.433 24.0736L251.901 20.6111Z" fill="#FABB05"/>
<path id="Fill 14" fill-rule="evenodd" clip-rule="evenodd" d="M259.454 9.91964C261.436 9.91964 263.213 10.6009 264.615 11.9355V11.9374L268.455 8.10163C266.123 5.93272 263.082 4.60001 259.454 4.60001C254.197 4.60001 249.647 7.61447 247.433 12.0046L251.901 15.467C252.966 12.2827 255.944 9.91964 259.454 9.91964Z" fill="#E94235"/>
</g>
</g>
</g>
</g>
</svg>
