<svg width="187" height="21" viewBox="0 0 187 21" fill="none" xmlns="http://www.w3.org/2000/svg">
<g id="sl_pay_with_Pay_NBG">
<path id="Left Text" d="M1.66474 15.0006V3.54461H5.60074C6.29408 3.54461 6.92341 3.69394 7.48874 3.99261C8.05408 4.28061 8.50208 4.69128 8.83274 5.22461C9.17408 5.74728 9.34474 6.35528 9.34474 7.04861C9.34474 7.73128 9.17408 8.33928 8.83274 8.87261C8.50208 9.40594 8.05408 9.82194 7.48874 10.1206C6.92341 10.4086 6.29408 10.5526 5.60074 10.5526H3.42474V15.0006H1.66474ZM3.42474 8.88861H5.64874C6.06474 8.88861 6.41674 8.80328 6.70474 8.63261C6.99274 8.45128 7.21141 8.22194 7.36074 7.94461C7.52074 7.65661 7.60074 7.35794 7.60074 7.04861C7.60074 6.73928 7.52074 6.44594 7.36074 6.16861C7.21141 5.89128 6.99274 5.66194 6.70474 5.48061C6.41674 5.29928 6.06474 5.20861 5.64874 5.20861H3.42474V8.88861ZM11.1052 15.0006V3.54461H12.8332V15.0006H11.1052ZM17.5024 15.2566C16.9157 15.2566 16.393 15.1393 15.9344 14.9046C15.4864 14.6699 15.129 14.3499 14.8624 13.9446C14.6064 13.5286 14.4784 13.0539 14.4784 12.5206C14.4784 11.9339 14.6277 11.4379 14.9264 11.0326C15.2357 10.6273 15.6464 10.3179 16.1584 10.1046C16.6704 9.89128 17.2357 9.78461 17.8544 9.78461C18.1957 9.78461 18.5104 9.81128 18.7984 9.86461C19.097 9.90728 19.353 9.96061 19.5664 10.0246C19.7904 10.0886 19.9664 10.1579 20.0944 10.2326V9.80061C20.0944 9.26728 19.9024 8.84061 19.5184 8.52061C19.1344 8.20061 18.6384 8.04061 18.0304 8.04061C17.6144 8.04061 17.2197 8.13661 16.8464 8.32861C16.473 8.50994 16.1744 8.76061 15.9504 9.08061L14.7664 8.16861C15.001 7.83794 15.2837 7.55528 15.6144 7.32061C15.9557 7.08594 16.3344 6.90461 16.7504 6.77661C17.177 6.64861 17.6197 6.58461 18.0784 6.58461C19.2624 6.58461 20.1744 6.87794 20.8144 7.46461C21.4544 8.04061 21.7744 8.85128 21.7744 9.89661V15.0006H20.0944V13.9926H19.9984C19.8597 14.2059 19.6677 14.4086 19.4224 14.6006C19.1877 14.7926 18.905 14.9473 18.5744 15.0646C18.2544 15.1926 17.897 15.2566 17.5024 15.2566ZM17.8064 13.8486C18.2544 13.8486 18.649 13.7419 18.9904 13.5286C19.3424 13.3153 19.6144 13.0379 19.8064 12.6966C19.9984 12.3446 20.0944 11.9659 20.0944 11.5606C19.8597 11.4219 19.5717 11.3099 19.2304 11.2246C18.8997 11.1286 18.5477 11.0806 18.1744 11.0806C17.4704 11.0806 16.969 11.2193 16.6704 11.4966C16.3717 11.7739 16.2224 12.1206 16.2224 12.5366C16.2224 12.9206 16.3664 13.2353 16.6544 13.4806C16.9424 13.7259 17.3264 13.8486 17.8064 13.8486ZM27.5246 15.2566C26.7033 15.2566 25.9726 15.0699 25.3326 14.6966C24.7033 14.3233 24.2073 13.8113 23.8446 13.1606C23.4926 12.4993 23.3166 11.7526 23.3166 10.9206C23.3166 10.0886 23.4926 9.34728 23.8446 8.69661C24.2073 8.04594 24.7033 7.53394 25.3326 7.16061C25.9726 6.77661 26.7033 6.58461 27.5246 6.58461C28.4313 6.58461 29.194 6.78728 29.8126 7.19261C30.442 7.59794 30.89 8.14728 31.1566 8.84061L29.5886 9.48061C29.3966 9.04328 29.1193 8.71794 28.7566 8.50461C28.4046 8.28061 27.9833 8.16861 27.4926 8.16861C27.0446 8.16861 26.634 8.28594 26.2606 8.52061C25.8873 8.74461 25.5886 9.05928 25.3646 9.46461C25.1406 9.86994 25.0286 10.3553 25.0286 10.9206C25.0286 11.4753 25.1406 11.9606 25.3646 12.3766C25.5886 12.7926 25.8873 13.1126 26.2606 13.3366C26.634 13.5606 27.0446 13.6726 27.4926 13.6726C28.0153 13.6726 28.458 13.5553 28.8206 13.3206C29.1833 13.0859 29.466 12.7553 29.6686 12.3286L31.2046 13.0006C30.906 13.6513 30.442 14.1899 29.8126 14.6166C29.194 15.0433 28.4313 15.2566 27.5246 15.2566ZM26.7726 5.27261L25.0606 3.33661V3.22461H26.7086L27.4446 4.21661H27.6046L28.3566 3.22461H30.0206V3.33661L28.2926 5.27261H26.7726ZM32.9641 15.0006V6.84061H34.6921V15.0006H32.9641ZM33.8281 5.64061C33.5081 5.64061 33.2308 5.52861 32.9961 5.30461C32.7721 5.06994 32.6601 4.79261 32.6601 4.47261C32.6601 4.14194 32.7721 3.86994 32.9961 3.65661C33.2308 3.43261 33.5081 3.32061 33.8281 3.32061C34.1588 3.32061 34.4361 3.43261 34.6601 3.65661C34.8841 3.86994 34.9961 4.14194 34.9961 4.47261C34.9961 4.79261 34.8841 5.06994 34.6601 5.30461C34.4361 5.52861 34.1588 5.64061 33.8281 5.64061ZM37.0021 15.0006V3.54461H38.7301V15.0006H37.0021ZM44.6792 15.2566C43.8366 15.2566 43.0952 15.0646 42.4552 14.6806C41.8152 14.2966 41.3139 13.7793 40.9512 13.1286C40.5886 12.4673 40.4072 11.7313 40.4072 10.9206C40.4072 10.1099 40.5886 9.37928 40.9512 8.72861C41.3139 8.06728 41.8152 7.54461 42.4552 7.16061C43.0952 6.77661 43.8366 6.58461 44.6792 6.58461C45.5112 6.58461 46.2472 6.78194 46.8872 7.17661C47.5272 7.56061 48.0286 8.07794 48.3912 8.72861C48.7539 9.37928 48.9352 10.1099 48.9352 10.9206C48.9352 11.7313 48.7539 12.4673 48.3912 13.1286C48.0286 13.7793 47.5272 14.2966 46.8872 14.6806C46.2472 15.0646 45.5112 15.2566 44.6792 15.2566ZM44.6792 13.6726C45.1272 13.6726 45.5432 13.5659 45.9272 13.3526C46.3112 13.1286 46.6206 12.8139 46.8552 12.4086C47.1006 11.9926 47.2232 11.4966 47.2232 10.9206C47.2232 10.3446 47.1006 9.85394 46.8552 9.44861C46.6206 9.03261 46.3112 8.71794 45.9272 8.50461C45.5432 8.28061 45.1272 8.16861 44.6792 8.16861C44.2312 8.16861 43.8099 8.28061 43.4152 8.50461C43.0312 8.71794 42.7166 9.03261 42.4712 9.44861C42.2366 9.85394 42.1192 10.3446 42.1192 10.9206C42.1192 11.4966 42.2366 11.9926 42.4712 12.4086C42.7166 12.8139 43.0366 13.1286 43.4312 13.3526C43.8259 13.5659 44.2419 13.6726 44.6792 13.6726ZM57.5371 15.2566C56.8865 15.2566 56.3211 15.1606 55.8411 14.9686C55.3611 14.7659 54.9665 14.4993 54.6571 14.1686C54.3478 13.8273 54.1185 13.4593 53.9691 13.0646L55.5211 12.3926C55.7131 12.8299 55.9851 13.1659 56.3371 13.4006C56.6998 13.6246 57.1158 13.7366 57.5851 13.7366C58.0118 13.7366 58.3798 13.6619 58.6891 13.5126C58.9985 13.3526 59.1531 13.0966 59.1531 12.7446C59.1531 12.5206 59.0785 12.3393 58.9291 12.2006C58.7905 12.0513 58.5985 11.9286 58.3531 11.8326C58.1185 11.7366 57.8465 11.6513 57.5371 11.5766L56.5611 11.3526C56.1771 11.2566 55.8091 11.1073 55.4571 10.9046C55.1158 10.6913 54.8385 10.4246 54.6251 10.1046C54.4118 9.78461 54.3051 9.40594 54.3051 8.96861C54.3051 8.47794 54.4438 8.05661 54.7211 7.70461C55.0091 7.34194 55.3931 7.06461 55.8731 6.87261C56.3531 6.68061 56.8705 6.58461 57.4251 6.58461C57.9371 6.58461 58.4011 6.65394 58.8171 6.79261C59.2438 6.92061 59.6118 7.11794 59.9211 7.38461C60.2411 7.64061 60.4918 7.96061 60.6731 8.34461L59.1851 9.01661C59.0038 8.65394 58.7585 8.40328 58.4491 8.26461C58.1398 8.11528 57.8038 8.04061 57.4411 8.04061C57.0358 8.04061 56.6945 8.12594 56.4171 8.29661C56.1505 8.45661 56.0171 8.66994 56.0171 8.93661C56.0171 9.21394 56.1345 9.43261 56.3691 9.59261C56.6145 9.75261 56.9131 9.88061 57.2651 9.97661L58.4491 10.2646C59.2598 10.4673 59.8678 10.7766 60.2731 11.1926C60.6785 11.5979 60.8811 12.0939 60.8811 12.6806C60.8811 13.2033 60.7318 13.6619 60.4331 14.0566C60.1345 14.4406 59.7291 14.7393 59.2171 14.9526C58.7158 15.1553 58.1558 15.2566 57.5371 15.2566ZM69.3996 15.2566C68.749 15.2566 68.1836 15.1606 67.7036 14.9686C67.2236 14.7659 66.829 14.4993 66.5196 14.1686C66.2103 13.8273 65.981 13.4593 65.8316 13.0646L67.3836 12.3926C67.5756 12.8299 67.8476 13.1659 68.1996 13.4006C68.5623 13.6246 68.9783 13.7366 69.4476 13.7366C69.8743 13.7366 70.2423 13.6619 70.5516 13.5126C70.861 13.3526 71.0156 13.0966 71.0156 12.7446C71.0156 12.5206 70.941 12.3393 70.7916 12.2006C70.653 12.0513 70.461 11.9286 70.2156 11.8326C69.981 11.7366 69.709 11.6513 69.3996 11.5766L68.4236 11.3526C68.0396 11.2566 67.6716 11.1073 67.3196 10.9046C66.9783 10.6913 66.701 10.4246 66.4876 10.1046C66.2743 9.78461 66.1676 9.40594 66.1676 8.96861C66.1676 8.47794 66.3063 8.05661 66.5836 7.70461C66.8716 7.34194 67.2556 7.06461 67.7356 6.87261C68.2156 6.68061 68.733 6.58461 69.2876 6.58461C69.7996 6.58461 70.2636 6.65394 70.6796 6.79261C71.1063 6.92061 71.4743 7.11794 71.7836 7.38461C72.1036 7.64061 72.3543 7.96061 72.5356 8.34461L71.0476 9.01661C70.8663 8.65394 70.621 8.40328 70.3116 8.26461C70.0023 8.11528 69.6663 8.04061 69.3036 8.04061C68.8983 8.04061 68.557 8.12594 68.2796 8.29661C68.013 8.45661 67.8796 8.66994 67.8796 8.93661C67.8796 9.21394 67.997 9.43261 68.2316 9.59261C68.477 9.75261 68.7756 9.88061 69.1276 9.97661L70.3116 10.2646C71.1223 10.4673 71.7303 10.7766 72.1356 11.1926C72.541 11.5979 72.7436 12.0939 72.7436 12.6806C72.7436 13.2033 72.5943 13.6619 72.2956 14.0566C71.997 14.4406 71.5916 14.7393 71.0796 14.9526C70.5783 15.1553 70.0183 15.2566 69.3996 15.2566ZM73.7636 6.84061H75.1876V4.53661H76.9156V6.84061H78.9156V8.34461H76.9156V12.2646C76.9156 12.6699 76.9956 12.9793 77.1556 13.1926C77.3263 13.4059 77.609 13.5126 78.0036 13.5126C78.1956 13.5126 78.3663 13.4859 78.5156 13.4326C78.665 13.3686 78.8143 13.2939 78.9636 13.2086V14.8886C78.7823 14.9633 78.5903 15.0219 78.3876 15.0646C78.185 15.1073 77.945 15.1286 77.6676 15.1286C76.9103 15.1286 76.3076 14.9099 75.8596 14.4726C75.4116 14.0246 75.1876 13.4113 75.1876 12.6326V8.34461H73.7636V6.84061ZM84.2511 15.2566C83.4085 15.2566 82.6671 15.0646 82.0271 14.6806C81.3871 14.2966 80.8858 13.7793 80.5231 13.1286C80.1605 12.4673 79.9791 11.7313 79.9791 10.9206C79.9791 10.1099 80.1605 9.37928 80.5231 8.72861C80.8858 8.06728 81.3871 7.54461 82.0271 7.16061C82.6671 6.77661 83.4085 6.58461 84.2511 6.58461C85.0831 6.58461 85.8191 6.78194 86.4591 7.17661C87.0991 7.56061 87.6005 8.07794 87.9631 8.72861C88.3258 9.37928 88.5071 10.1099 88.5071 10.9206C88.5071 11.7313 88.3258 12.4673 87.9631 13.1286C87.6005 13.7793 87.0991 14.2966 86.4591 14.6806C85.8191 15.0646 85.0831 15.2566 84.2511 15.2566ZM84.2511 13.6726C84.6991 13.6726 85.1151 13.5659 85.4991 13.3526C85.8831 13.1286 86.1925 12.8139 86.4271 12.4086C86.6725 11.9926 86.7951 11.4966 86.7951 10.9206C86.7951 10.3446 86.6725 9.85394 86.4271 9.44861C86.1925 9.03261 85.8831 8.71794 85.4991 8.50461C85.1151 8.28061 84.6991 8.16861 84.2511 8.16861C83.8031 8.16861 83.3818 8.28061 82.9871 8.50461C82.6031 8.71794 82.2885 9.03261 82.0431 9.44861C81.8085 9.85394 81.6911 10.3446 81.6911 10.9206C81.6911 11.4966 81.8085 11.9926 82.0431 12.4086C82.2885 12.8139 82.6085 13.1286 83.0031 13.3526C83.3978 13.5659 83.8138 13.6726 84.2511 13.6726ZM90.0924 15.0006V6.84061H91.7244V8.04061H91.8204C91.9484 7.76328 92.1297 7.51794 92.3644 7.30461C92.6097 7.09128 92.887 6.92061 93.1964 6.79261C93.5164 6.66461 93.847 6.60061 94.1884 6.60061C94.4124 6.60061 94.599 6.61661 94.7484 6.64861C94.9084 6.66994 95.0524 6.70728 95.1804 6.76061V8.55261C94.9777 8.46728 94.7697 8.39794 94.5564 8.34461C94.3537 8.29128 94.1404 8.26461 93.9164 8.26461C93.511 8.26461 93.1484 8.37661 92.8284 8.60061C92.519 8.81394 92.2737 9.10194 92.0924 9.46461C91.911 9.82728 91.8204 10.2326 91.8204 10.6806V15.0006H90.0924ZM96.7922 15.0006V6.84061H98.5202V15.0006H96.7922ZM97.6562 5.64061C97.3362 5.64061 97.0589 5.52861 96.8242 5.30461C96.6002 5.06994 96.4882 4.79261 96.4882 4.47261C96.4882 4.14194 96.6002 3.86994 96.8242 3.65661C97.0589 3.43261 97.3362 3.32061 97.6562 3.32061C97.9869 3.32061 98.2642 3.43261 98.4882 3.65661C98.7122 3.86994 98.8242 4.14194 98.8242 4.47261C98.8242 4.79261 98.7122 5.06994 98.4882 5.30461C98.2642 5.52861 97.9869 5.64061 97.6562 5.64061ZM100.176 6.84061H101.6V4.53661H103.328V6.84061H105.328V8.34461H103.328V12.2646C103.328 12.6699 103.408 12.9793 103.568 13.1926C103.739 13.4059 104.021 13.5126 104.416 13.5126C104.608 13.5126 104.779 13.4859 104.928 13.4326C105.077 13.3686 105.227 13.2939 105.376 13.2086V14.8886C105.195 14.9633 105.003 15.0219 104.8 15.0646C104.597 15.1073 104.357 15.1286 104.08 15.1286C103.323 15.1286 102.72 14.9099 102.272 14.4726C101.824 14.0246 101.6 13.4113 101.6 12.6326V8.34461H100.176V6.84061ZM109.694 15.0006L106.318 6.84061H108.238L110.526 12.7766H110.606L112.942 6.84061H114.83L111.422 15.0006H109.694ZM116.227 15.0006V6.84061H117.955V15.0006H116.227ZM117.091 5.64061C116.771 5.64061 116.493 5.52861 116.259 5.30461C116.035 5.06994 115.923 4.79261 115.923 4.47261C115.923 4.14194 116.035 3.86994 116.259 3.65661C116.493 3.43261 116.771 3.32061 117.091 3.32061C117.421 3.32061 117.699 3.43261 117.923 3.65661C118.147 3.86994 118.259 4.14194 118.259 4.47261C118.259 4.79261 118.147 5.06994 117.923 5.30461C117.699 5.52861 117.421 5.64061 117.091 5.64061ZM119.689 18.6166C119.518 18.6166 119.363 18.6059 119.225 18.5846C119.075 18.5633 118.931 18.5366 118.793 18.5046V16.8406C118.889 16.8939 119.006 16.9419 119.145 16.9846C119.283 17.0273 119.417 17.0486 119.545 17.0486C119.843 17.0486 120.057 16.9526 120.185 16.7606C120.313 16.5793 120.377 16.3126 120.377 15.9606V6.84061H122.105V15.9766C122.105 16.6059 121.998 17.1126 121.785 17.4966C121.582 17.8806 121.299 18.1633 120.937 18.3446C120.574 18.5259 120.158 18.6166 119.689 18.6166ZM121.241 5.64061C120.921 5.64061 120.643 5.52861 120.409 5.30461C120.185 5.06994 120.073 4.79261 120.073 4.47261C120.073 4.14194 120.185 3.86994 120.409 3.65661C120.643 3.43261 120.921 3.32061 121.241 3.32061C121.571 3.32061 121.849 3.43261 122.073 3.65661C122.297 3.86994 122.409 4.14194 122.409 4.47261C122.409 4.79261 122.297 5.06994 122.073 5.30461C121.849 5.52861 121.571 5.64061 121.241 5.64061ZM128.16 15.2566C127.318 15.2566 126.576 15.0646 125.936 14.6806C125.296 14.2966 124.795 13.7793 124.432 13.1286C124.07 12.4673 123.888 11.7313 123.888 10.9206C123.888 10.1099 124.07 9.37928 124.432 8.72861C124.795 8.06728 125.296 7.54461 125.936 7.16061C126.576 6.77661 127.318 6.58461 128.16 6.58461C128.992 6.58461 129.728 6.78194 130.368 7.17661C131.008 7.56061 131.51 8.07794 131.872 8.72861C132.235 9.37928 132.416 10.1099 132.416 10.9206C132.416 11.7313 132.235 12.4673 131.872 13.1286C131.51 13.7793 131.008 14.2966 130.368 14.6806C129.728 15.0646 128.992 15.2566 128.16 15.2566ZM128.16 13.6726C128.608 13.6726 129.024 13.5659 129.408 13.3526C129.792 13.1286 130.102 12.8139 130.336 12.4086C130.582 11.9926 130.704 11.4966 130.704 10.9206C130.704 10.3446 130.582 9.85394 130.336 9.44861C130.102 9.03261 129.792 8.71794 129.408 8.50461C129.024 8.28061 128.608 8.16861 128.16 8.16861C127.712 8.16861 127.291 8.28061 126.896 8.50461C126.512 8.71794 126.198 9.03261 125.952 9.44861C125.718 9.85394 125.6 10.3446 125.6 10.9206C125.6 11.4966 125.718 11.9926 125.952 12.4086C126.198 12.8139 126.518 13.1286 126.912 13.3526C127.307 13.5659 127.723 13.6726 128.16 13.6726Z" fill="white"/>
<g id="GPay (Dark)">
<g id="GPay">
<g id="Pay">
<path id="Fill 1" fill-rule="evenodd" clip-rule="evenodd" d="M161.356 3.42339V8.16175H164.278C164.974 8.16175 165.55 7.92781 166.005 7.45993C166.473 6.99313 166.707 6.43644 166.707 5.79203C166.707 5.16061 166.473 4.61041 166.005 4.14254C165.55 3.66274 164.974 3.4223 164.278 3.4223H161.356V3.42339ZM161.356 9.82966V15.3262H159.611V1.75549H164.24C165.417 1.75549 166.415 2.14756 167.238 2.93061C168.073 3.71365 168.491 4.66782 168.491 5.79203C168.491 6.94224 168.073 7.90291 167.238 8.67296C166.428 9.44409 165.429 9.82858 164.24 9.82858H161.356V9.82966Z" fill="white"/>
<path id="Fill 3" fill-rule="evenodd" clip-rule="evenodd" d="M170.255 12.4831C170.255 12.9379 170.448 13.317 170.834 13.6203C171.22 13.9235 171.672 14.0752 172.19 14.0752C172.924 14.0752 173.578 13.8032 174.153 13.2607C174.729 12.717 175.017 12.0791 175.017 11.3469C174.472 10.917 173.713 10.7025 172.74 10.7025C172.031 10.7025 171.44 10.8736 170.966 11.2148C170.492 11.5559 170.255 11.9773 170.255 12.4831M172.513 5.73566C173.803 5.73566 174.821 6.08007 175.569 6.76889C176.314 7.45771 176.687 8.40213 176.687 9.60216V15.3261H175.018V14.0373H174.942C174.221 15.0985 173.259 15.6294 172.058 15.6294C171.033 15.6294 170.176 15.3261 169.487 14.7196C168.797 14.1131 168.453 13.3549 168.453 12.4452C168.453 11.4845 168.816 10.7208 169.543 10.1523C170.271 9.58375 171.241 9.2989 172.456 9.2989C173.492 9.2989 174.346 9.48844 175.017 9.86751V9.46894C175.017 8.86243 174.776 8.34798 174.296 7.92451C173.814 7.50103 173.252 7.28984 172.607 7.28984C171.633 7.28984 170.862 7.70032 170.293 8.52235L168.755 7.55519C169.603 6.34217 170.855 5.73566 172.513 5.73566" fill="white"/>
<path id="Fill 5" fill-rule="evenodd" clip-rule="evenodd" d="M186.269 6.03894L180.443 19.4201H178.641L180.804 14.738L176.971 6.03894H178.869L181.639 12.7106H181.677L184.371 6.03894H186.269Z" fill="white"/>
</g>
<g id="G">
<path id="Fill 8" fill-rule="evenodd" clip-rule="evenodd" d="M154.303 8.64473C154.303 8.09563 154.256 7.56601 154.168 7.05914H146.806V10.0625H151.023C150.842 11.0414 150.294 11.8744 149.464 12.4322V14.3828H151.98C153.454 13.0246 154.303 11.0177 154.303 8.64473" fill="#4285F4"/>
<path id="Fill 10" fill-rule="evenodd" clip-rule="evenodd" d="M146.806 16.2651C148.913 16.2651 150.687 15.5741 151.98 14.3828L149.464 12.4322C148.763 12.9033 147.861 13.1784 146.806 13.1784C144.77 13.1784 143.042 11.8073 142.424 9.95959H139.832V11.9687C141.116 14.516 143.757 16.2651 146.806 16.2651" fill="#34A853"/>
<path id="Fill 12" fill-rule="evenodd" clip-rule="evenodd" d="M142.424 9.9596C142.266 9.48847 142.179 8.98593 142.179 8.46715C142.179 7.94837 142.266 7.44583 142.424 6.9747V4.96564H139.832C139.3 6.01837 139 7.20756 139 8.46715C139 9.72674 139.3 10.916 139.832 11.9687L142.424 9.9596Z" fill="#FABB05"/>
<path id="Fill 14" fill-rule="evenodd" clip-rule="evenodd" d="M146.806 3.75583C147.957 3.75583 148.988 4.15115 149.801 4.92553V4.92661L152.029 2.70094C150.676 1.44243 148.912 0.669128 146.806 0.669128C143.757 0.669128 141.116 2.41826 139.832 4.9656L142.424 6.97467C143.042 5.12698 144.77 3.75583 146.806 3.75583" fill="#E94235"/>
</g>
</g>
</g>
</g>
</svg>
