<svg width="502" height="38" viewBox="0 0 502 38" fill="none" xmlns="http://www.w3.org/2000/svg">
<g id="sl_subscribe_with_Light">
<path id="Text" d="M9.40529 30.448C8.34129 30.448 7.32396 30.2427 6.35329 29.832C5.38263 29.4027 4.52396 28.7773 3.77729 27.956C3.04929 27.1347 2.50796 26.1173 2.15329 24.904L5.06529 23.728C5.36396 24.8107 5.88663 25.716 6.63329 26.444C7.37996 27.172 8.31329 27.536 9.43329 27.536C10.068 27.536 10.656 27.424 11.1973 27.2C11.7573 26.976 12.2053 26.6493 12.5413 26.22C12.8773 25.772 13.0453 25.2307 13.0453 24.596C13.0453 23.7187 12.7186 23.0187 12.0653 22.496C11.412 21.9547 10.3666 21.4227 8.92929 20.9L7.66929 20.452C6.94129 20.1907 6.20396 19.836 5.45729 19.388C4.72929 18.9213 4.12263 18.3333 3.63729 17.624C3.15196 16.896 2.90929 16.0093 2.90929 14.964C2.90929 13.9747 3.17063 13.0693 3.69329 12.248C4.23463 11.408 4.97196 10.7453 5.90529 10.26C6.85729 9.756 7.95863 9.504 9.20929 9.504C10.4973 9.504 11.5706 9.73733 12.4293 10.204C13.3066 10.652 13.988 11.2027 14.4733 11.856C14.9773 12.4907 15.3226 13.088 15.5093 13.648L12.7373 14.824C12.6253 14.4507 12.42 14.0773 12.1213 13.704C11.8413 13.312 11.4586 12.9947 10.9733 12.752C10.5066 12.4907 9.92796 12.36 9.23729 12.36C8.34129 12.36 7.56663 12.6027 6.91329 13.088C6.27863 13.5547 5.96129 14.1707 5.96129 14.936C5.96129 15.664 6.25996 16.252 6.85729 16.7C7.45463 17.148 8.32263 17.568 9.46129 17.96L10.7493 18.408C11.608 18.688 12.448 19.0707 13.2693 19.556C14.1093 20.0413 14.7906 20.6853 15.3133 21.488C15.8546 22.272 16.1253 23.2893 16.1253 24.54C16.1253 25.5667 15.92 26.4533 15.5093 27.2C15.1173 27.9467 14.5853 28.5627 13.9133 29.048C13.26 29.5147 12.532 29.86 11.7293 30.084C10.9453 30.3267 10.1706 30.448 9.40529 30.448ZM19.4828 30V9.952H22.5068V21.768L28.5548 15.72H32.3068V15.888L26.7908 21.348L32.5028 29.832V30H28.9188L24.6628 23.448L22.5068 25.576V30H19.4828ZM34.7131 30V9.952H37.7371V30H34.7131ZM47.9896 30.448C46.5896 30.448 45.3389 30.1213 44.2376 29.468C43.1362 28.8147 42.2682 27.9187 41.6336 26.78C41.0176 25.6413 40.7096 24.344 40.7096 22.888C40.7096 21.5253 41.0082 20.2653 41.6056 19.108C42.2029 17.9507 43.0336 17.0267 44.0976 16.336C45.1802 15.6267 46.4216 15.272 47.8216 15.272C49.2962 15.272 50.5469 15.5893 51.5736 16.224C52.6189 16.8587 53.4122 17.7267 53.9536 18.828C54.4949 19.9293 54.7656 21.1707 54.7656 22.552C54.7656 22.7573 54.7562 22.944 54.7376 23.112C54.7376 23.28 54.7282 23.4107 54.7096 23.504H43.6776C43.8269 24.9227 44.3216 25.9867 45.1616 26.696C46.0202 27.4053 46.9909 27.76 48.0736 27.76C49.0442 27.76 49.8469 27.5453 50.4816 27.116C51.1162 26.668 51.6202 26.1173 51.9936 25.464L54.4856 26.668C53.8696 27.788 53.0296 28.7027 51.9656 29.412C50.9016 30.1027 49.5762 30.448 47.9896 30.448ZM47.8496 17.848C46.8416 17.848 45.9829 18.156 45.2736 18.772C44.5642 19.388 44.0882 20.2093 43.8456 21.236H51.7696C51.7322 20.7507 51.5736 20.2467 51.2936 19.724C51.0136 19.2013 50.5842 18.7627 50.0056 18.408C49.4456 18.0347 48.7269 17.848 47.8496 17.848ZM57.871 30V15.72H60.727V17.68H60.895C61.3057 16.9893 61.9124 16.42 62.715 15.972C63.5364 15.5053 64.4324 15.272 65.403 15.272C67.1577 15.272 68.4737 15.7947 69.351 16.84C70.2284 17.8853 70.667 19.2667 70.667 20.984V30H67.671V21.376C67.671 20.2187 67.3817 19.3787 66.803 18.856C66.2244 18.3147 65.4684 18.044 64.535 18.044C63.807 18.044 63.1724 18.2493 62.631 18.66C62.0897 19.052 61.6604 19.5747 61.343 20.228C61.0444 20.8813 60.895 21.5813 60.895 22.328V30H57.871ZM76.1492 13.62C75.5892 13.62 75.1039 13.424 74.6932 13.032C74.3012 12.6213 74.1052 12.136 74.1052 11.576C74.1052 11.016 74.3012 10.54 74.6932 10.148C75.1039 9.756 75.5892 9.56 76.1492 9.56C76.7092 9.56 77.1852 9.756 77.5772 10.148C77.9879 10.54 78.1932 11.016 78.1932 11.576C78.1932 12.136 77.9879 12.6213 77.5772 13.032C77.1852 13.424 76.7092 13.62 76.1492 13.62ZM74.6372 30V15.72H77.6612V30H74.6372ZM83.0885 25.856V18.352H80.5965V15.72H83.0885V11.688H86.1125V15.72H89.6125V18.352H86.1125V25.212C86.1125 25.9213 86.2525 26.4627 86.5325 26.836C86.8312 27.2093 87.3258 27.396 88.0165 27.396C88.3712 27.396 88.6698 27.3493 88.9125 27.256C89.1738 27.1627 89.4352 27.032 89.6965 26.864V29.804C89.3792 29.9347 89.0432 30.0373 88.6885 30.112C88.3338 30.1867 87.9138 30.224 87.4285 30.224C86.1032 30.224 85.0485 29.8413 84.2645 29.076C83.4805 28.292 83.0885 27.2187 83.0885 25.856ZM98.7911 30.448C97.3911 30.448 96.1405 30.1213 95.0391 29.468C93.9378 28.8147 93.0698 27.9187 92.4351 26.78C91.8191 25.6413 91.5111 24.344 91.5111 22.888C91.5111 21.5253 91.8098 20.2653 92.4071 19.108C93.0045 17.9507 93.8351 17.0267 94.8991 16.336C95.9818 15.6267 97.2231 15.272 98.6231 15.272C100.098 15.272 101.348 15.5893 102.375 16.224C103.42 16.8587 104.214 17.7267 104.755 18.828C105.296 19.9293 105.567 21.1707 105.567 22.552C105.567 22.7573 105.558 22.944 105.539 23.112C105.539 23.28 105.53 23.4107 105.511 23.504H94.4791C94.6285 24.9227 95.1231 25.9867 95.9631 26.696C96.8218 27.4053 97.7925 27.76 98.8751 27.76C99.8458 27.76 100.648 27.5453 101.283 27.116C101.918 26.668 102.422 26.1173 102.795 25.464L105.287 26.668C104.671 27.788 103.831 28.7027 102.767 29.412C101.703 30.1027 100.378 30.448 98.7911 30.448ZM98.6511 17.848C97.6431 17.848 96.7845 18.156 96.0751 18.772C95.3658 19.388 94.8898 20.2093 94.6471 21.236H102.571C102.534 20.7507 102.375 20.2467 102.095 19.724C101.815 19.2013 101.386 18.7627 100.807 18.408C100.247 18.0347 99.5285 17.848 98.6511 17.848ZM112.739 30L106.831 15.72H110.191L114.195 26.108H114.335L118.423 15.72H121.727L115.763 30H112.739ZM130.819 30V15.72H133.675V17.68H133.843C134.254 16.9893 134.861 16.42 135.663 15.972C136.485 15.5053 137.381 15.272 138.351 15.272C140.106 15.272 141.422 15.7947 142.299 16.84C143.177 17.8853 143.615 19.2667 143.615 20.984V30H140.619V21.376C140.619 20.2187 140.33 19.3787 139.751 18.856C139.173 18.3147 138.417 18.044 137.483 18.044C136.755 18.044 136.121 18.2493 135.579 18.66C135.038 19.052 134.609 19.5747 134.291 20.228C133.993 20.8813 133.843 21.5813 133.843 22.328V30H130.819ZM151.705 30.448C150.678 30.448 149.764 30.252 148.961 29.86C148.158 29.4493 147.533 28.88 147.085 28.152C146.637 27.424 146.413 26.5933 146.413 25.66C146.413 24.652 146.674 23.7933 147.197 23.084C147.738 22.356 148.457 21.8053 149.353 21.432C150.249 21.0587 151.238 20.872 152.321 20.872C153.217 20.872 154.001 20.956 154.673 21.124C155.364 21.292 155.886 21.4693 156.241 21.656V20.9C156.241 19.9667 155.905 19.22 155.233 18.66C154.561 18.1 153.693 17.82 152.629 17.82C151.901 17.82 151.21 17.988 150.557 18.324C149.904 18.6413 149.381 19.08 148.989 19.64L146.917 18.044C147.533 17.1853 148.345 16.5133 149.353 16.028C150.38 15.524 151.5 15.272 152.713 15.272C154.785 15.272 156.381 15.7853 157.501 16.812C158.621 17.82 159.181 19.2387 159.181 21.068V30H156.241V28.236H156.073C155.7 28.8147 155.14 29.328 154.393 29.776C153.646 30.224 152.75 30.448 151.705 30.448ZM152.237 27.984C153.021 27.984 153.712 27.7973 154.309 27.424C154.906 27.0507 155.373 26.5653 155.709 25.968C156.064 25.352 156.241 24.6893 156.241 23.98C155.812 23.7373 155.308 23.5413 154.729 23.392C154.15 23.224 153.534 23.14 152.881 23.14C151.649 23.14 150.772 23.392 150.249 23.896C149.726 24.3813 149.465 24.9787 149.465 25.688C149.465 26.36 149.717 26.9107 150.221 27.34C150.725 27.7693 151.397 27.984 152.237 27.984ZM162.81 30V15.72H165.666V17.82H165.834C166.151 17.092 166.693 16.4947 167.458 16.028C168.242 15.5427 169.082 15.3 169.978 15.3C170.37 15.3 170.697 15.328 170.958 15.384C171.238 15.44 171.49 15.5053 171.714 15.58V18.716C171.359 18.5667 170.995 18.4453 170.622 18.352C170.267 18.2587 169.894 18.212 169.502 18.212C168.793 18.212 168.158 18.408 167.598 18.8C167.057 19.1733 166.627 19.6867 166.31 20.34C165.993 20.9747 165.834 21.6747 165.834 22.44V30H162.81ZM180.221 30.448C178.746 30.448 177.449 30.112 176.329 29.44C175.209 28.768 174.331 27.8627 173.697 26.724C173.062 25.5853 172.745 24.2973 172.745 22.86C172.745 21.4413 173.062 20.1627 173.697 19.024C174.331 17.8667 175.209 16.952 176.329 16.28C177.449 15.608 178.746 15.272 180.221 15.272C181.677 15.272 182.965 15.608 184.085 16.28C185.205 16.952 186.082 17.8667 186.717 19.024C187.351 20.1627 187.669 21.4413 187.669 22.86C187.669 24.2973 187.351 25.5853 186.717 26.724C186.082 27.8627 185.205 28.768 184.085 29.44C182.965 30.112 181.677 30.448 180.221 30.448ZM180.221 27.676C181.005 27.676 181.733 27.4893 182.405 27.116C183.077 26.724 183.618 26.1733 184.029 25.464C184.458 24.736 184.673 23.868 184.673 22.86C184.673 21.852 184.458 20.9933 184.029 20.284C183.618 19.556 183.077 19.0053 182.405 18.632C181.733 18.24 181.005 18.044 180.221 18.044C179.437 18.044 178.699 18.24 178.009 18.632C177.337 19.0053 176.786 19.556 176.357 20.284C175.946 20.9933 175.741 21.852 175.741 22.86C175.741 23.868 175.946 24.736 176.357 25.464C176.786 26.1733 177.337 26.724 178.009 27.116C178.699 27.4893 179.437 27.676 180.221 27.676ZM197.362 30.448C195.925 30.448 194.655 30.1213 193.554 29.468C192.453 28.8147 191.585 27.9187 190.95 26.78C190.315 25.6227 189.998 24.316 189.998 22.86C189.998 21.404 190.315 20.1067 190.95 18.968C191.585 17.8107 192.453 16.9053 193.554 16.252C194.655 15.5987 195.925 15.272 197.362 15.272C198.949 15.272 200.283 15.6267 201.366 16.336C202.467 17.0453 203.251 18.0067 203.718 19.22L200.974 20.34C200.321 18.8093 199.098 18.044 197.306 18.044C196.522 18.044 195.803 18.2493 195.15 18.66C194.497 19.052 193.974 19.612 193.582 20.34C193.19 21.0493 192.994 21.8893 192.994 22.86C192.994 23.8307 193.19 24.68 193.582 25.408C193.974 26.136 194.497 26.696 195.15 27.088C195.803 27.48 196.522 27.676 197.306 27.676C198.221 27.676 198.995 27.4707 199.63 27.06C200.265 26.6307 200.759 26.052 201.114 25.324L203.802 26.5C203.298 27.6387 202.495 28.5813 201.394 29.328C200.293 30.0747 198.949 30.448 197.362 30.448ZM196.046 12.976L193.05 9.588V9.392H195.934L197.222 11.128H197.502L198.818 9.392H201.73V9.588L198.706 12.976H196.046ZM206.694 30V15.72H209.55V17.68H209.718C210.129 16.9893 210.736 16.42 211.538 15.972C212.36 15.5053 213.256 15.272 214.226 15.272C215.981 15.272 217.297 15.7947 218.174 16.84C219.052 17.8853 219.49 19.2667 219.49 20.984V30H216.494V21.376C216.494 20.2187 216.205 19.3787 215.626 18.856C215.048 18.3147 214.292 18.044 213.358 18.044C212.63 18.044 211.996 18.2493 211.454 18.66C210.913 19.052 210.484 19.5747 210.166 20.228C209.868 20.8813 209.718 21.5813 209.718 22.328V30H206.694ZM224.973 13.62C224.413 13.62 223.927 13.424 223.517 13.032C223.125 12.6213 222.929 12.136 222.929 11.576C222.929 11.016 223.125 10.54 223.517 10.148C223.927 9.756 224.413 9.56 224.973 9.56C225.533 9.56 226.009 9.756 226.401 10.148C226.811 10.54 227.017 11.016 227.017 11.576C227.017 12.136 226.811 12.6213 226.401 13.032C226.009 13.424 225.533 13.62 224.973 13.62ZM223.461 30V15.72H226.485V30H223.461ZM230.537 30V15.72H233.393V17.68H233.561C233.971 16.9893 234.578 16.42 235.381 15.972C236.202 15.5053 237.098 15.272 238.069 15.272C239.823 15.272 241.139 15.7947 242.017 16.84C242.894 17.8853 243.333 19.2667 243.333 20.984V30H240.337V21.376C240.337 20.2187 240.047 19.3787 239.469 18.856C238.89 18.3147 238.134 18.044 237.201 18.044C236.473 18.044 235.838 18.2493 235.297 18.66C234.755 19.052 234.326 19.5747 234.009 20.228C233.71 20.8813 233.561 21.5813 233.561 22.328V30H230.537ZM253.603 30.448C252.203 30.448 250.952 30.1213 249.851 29.468C248.75 28.8147 247.882 27.9187 247.247 26.78C246.631 25.6413 246.323 24.344 246.323 22.888C246.323 21.5253 246.622 20.2653 247.219 19.108C247.816 17.9507 248.647 17.0267 249.711 16.336C250.794 15.6267 252.035 15.272 253.435 15.272C254.91 15.272 256.16 15.5893 257.187 16.224C258.232 16.8587 259.026 17.7267 259.567 18.828C260.108 19.9293 260.379 21.1707 260.379 22.552C260.379 22.7573 260.37 22.944 260.351 23.112C260.351 23.28 260.342 23.4107 260.323 23.504H249.291C249.44 24.9227 249.935 25.9867 250.775 26.696C251.634 27.4053 252.604 27.76 253.687 27.76C254.658 27.76 255.46 27.5453 256.095 27.116C256.73 26.668 257.234 26.1173 257.607 25.464L260.099 26.668C259.483 27.788 258.643 28.7027 257.579 29.412C256.515 30.1027 255.19 30.448 253.603 30.448ZM253.463 17.848C252.455 17.848 251.596 18.156 250.887 18.772C250.178 19.388 249.702 20.2093 249.459 21.236H257.383C257.346 20.7507 257.187 20.2467 256.907 19.724C256.627 19.2013 256.198 18.7627 255.619 18.408C255.059 18.0347 254.34 17.848 253.463 17.848ZM275.527 30.448C273.81 30.448 272.438 30.0747 271.411 29.328C270.385 28.5627 269.675 27.6573 269.283 26.612L271.999 25.436C272.335 26.2013 272.821 26.7893 273.455 27.2C274.09 27.592 274.809 27.788 275.611 27.788C276.358 27.788 277.002 27.6573 277.543 27.396C278.085 27.116 278.355 26.668 278.355 26.052C278.355 25.4547 278.085 25.016 277.543 24.736C277.002 24.456 276.33 24.2133 275.527 24.008L273.819 23.616C273.129 23.448 272.485 23.1867 271.887 22.832C271.29 22.4773 270.805 22.02 270.431 21.46C270.058 20.8813 269.871 20.2093 269.871 19.444C269.871 18.604 270.123 17.876 270.627 17.26C271.131 16.6253 271.794 16.14 272.615 15.804C273.455 15.4493 274.361 15.272 275.331 15.272C276.657 15.272 277.814 15.5333 278.803 16.056C279.811 16.56 280.549 17.3253 281.015 18.352L278.411 19.528C278.075 18.8933 277.637 18.4547 277.095 18.212C276.573 17.9507 275.994 17.82 275.359 17.82C274.65 17.82 274.053 17.9693 273.567 18.268C273.101 18.5667 272.867 18.94 272.867 19.388C272.867 19.8733 273.073 20.256 273.483 20.536C273.913 20.816 274.435 21.04 275.051 21.208L277.123 21.712C278.542 22.0667 279.606 22.608 280.315 23.336C281.025 24.0453 281.379 24.9133 281.379 25.94C281.379 26.8547 281.118 27.6573 280.595 28.348C280.073 29.02 279.363 29.5427 278.467 29.916C277.59 30.2707 276.61 30.448 275.527 30.448ZM296.362 30.448C294.645 30.448 293.273 30.0747 292.246 29.328C291.219 28.5627 290.51 27.6573 290.118 26.612L292.834 25.436C293.17 26.2013 293.655 26.7893 294.29 27.2C294.925 27.592 295.643 27.788 296.446 27.788C297.193 27.788 297.837 27.6573 298.378 27.396C298.919 27.116 299.19 26.668 299.19 26.052C299.19 25.4547 298.919 25.016 298.378 24.736C297.837 24.456 297.165 24.2133 296.362 24.008L294.654 23.616C293.963 23.448 293.319 23.1867 292.722 22.832C292.125 22.4773 291.639 22.02 291.266 21.46C290.893 20.8813 290.706 20.2093 290.706 19.444C290.706 18.604 290.958 17.876 291.462 17.26C291.966 16.6253 292.629 16.14 293.45 15.804C294.29 15.4493 295.195 15.272 296.166 15.272C297.491 15.272 298.649 15.5333 299.638 16.056C300.646 16.56 301.383 17.3253 301.85 18.352L299.246 19.528C298.91 18.8933 298.471 18.4547 297.93 18.212C297.407 17.9507 296.829 17.82 296.194 17.82C295.485 17.82 294.887 17.9693 294.402 18.268C293.935 18.5667 293.702 18.94 293.702 19.388C293.702 19.8733 293.907 20.256 294.318 20.536C294.747 20.816 295.27 21.04 295.886 21.208L297.958 21.712C299.377 22.0667 300.441 22.608 301.15 23.336C301.859 24.0453 302.214 24.9133 302.214 25.94C302.214 26.8547 301.953 27.6573 301.43 28.348C300.907 29.02 300.198 29.5427 299.302 29.916C298.425 30.2707 297.445 30.448 296.362 30.448ZM306.528 25.856V18.352H304.036V15.72H306.528V11.688H309.552V15.72H313.052V18.352H309.552V25.212C309.552 25.9213 309.692 26.4627 309.972 26.836C310.271 27.2093 310.766 27.396 311.456 27.396C311.811 27.396 312.11 27.3493 312.352 27.256C312.614 27.1627 312.875 27.032 313.136 26.864V29.804C312.819 29.9347 312.483 30.0373 312.128 30.112C311.774 30.1867 311.354 30.224 310.868 30.224C309.543 30.224 308.488 29.8413 307.704 29.076C306.92 28.292 306.528 27.2187 306.528 25.856ZM322.427 30.448C320.952 30.448 319.655 30.112 318.535 29.44C317.415 28.768 316.538 27.8627 315.903 26.724C315.268 25.5853 314.951 24.2973 314.951 22.86C314.951 21.4413 315.268 20.1627 315.903 19.024C316.538 17.8667 317.415 16.952 318.535 16.28C319.655 15.608 320.952 15.272 322.427 15.272C323.883 15.272 325.171 15.608 326.291 16.28C327.411 16.952 328.288 17.8667 328.923 19.024C329.558 20.1627 329.875 21.4413 329.875 22.86C329.875 24.2973 329.558 25.5853 328.923 26.724C328.288 27.8627 327.411 28.768 326.291 29.44C325.171 30.112 323.883 30.448 322.427 30.448ZM322.427 27.676C323.211 27.676 323.939 27.4893 324.611 27.116C325.283 26.724 325.824 26.1733 326.235 25.464C326.664 24.736 326.879 23.868 326.879 22.86C326.879 21.852 326.664 20.9933 326.235 20.284C325.824 19.556 325.283 19.0053 324.611 18.632C323.939 18.24 323.211 18.044 322.427 18.044C321.643 18.044 320.906 18.24 320.215 18.632C319.543 19.0053 318.992 19.556 318.563 20.284C318.152 20.9933 317.947 21.852 317.947 22.86C317.947 23.868 318.152 24.736 318.563 25.464C318.992 26.1733 319.543 26.724 320.215 27.116C320.906 27.4893 321.643 27.676 322.427 27.676ZM332.687 30V15.72H335.543V17.82H335.711C336.028 17.092 336.569 16.4947 337.335 16.028C338.119 15.5427 338.959 15.3 339.855 15.3C340.247 15.3 340.573 15.328 340.835 15.384C341.115 15.44 341.367 15.5053 341.591 15.58V18.716C341.236 18.5667 340.872 18.4453 340.499 18.352C340.144 18.2587 339.771 18.212 339.379 18.212C338.669 18.212 338.035 18.408 337.475 18.8C336.933 19.1733 336.504 19.6867 336.187 20.34C335.869 20.9747 335.711 21.6747 335.711 22.44V30H332.687ZM345.961 13.62C345.401 13.62 344.916 13.424 344.505 13.032C344.113 12.6213 343.917 12.136 343.917 11.576C343.917 11.016 344.113 10.54 344.505 10.148C344.916 9.756 345.401 9.56 345.961 9.56C346.521 9.56 346.997 9.756 347.389 10.148C347.8 10.54 348.005 11.016 348.005 11.576C348.005 12.136 347.8 12.6213 347.389 13.032C346.997 13.424 346.521 13.62 345.961 13.62ZM344.449 30V15.72H347.473V30H344.449ZM352.9 25.856V18.352H350.408V15.72H352.9V11.688H355.924V15.72H359.424V18.352H355.924V25.212C355.924 25.9213 356.064 26.4627 356.344 26.836C356.643 27.2093 357.138 27.396 357.828 27.396C358.183 27.396 358.482 27.3493 358.724 27.256C358.986 27.1627 359.247 27.032 359.508 26.864V29.804C359.191 29.9347 358.855 30.0373 358.5 30.112C358.146 30.1867 357.726 30.224 357.24 30.224C355.915 30.224 354.86 29.8413 354.076 29.076C353.292 28.292 352.9 27.2187 352.9 25.856ZM367.102 30L361.194 15.72H364.554L368.558 26.108H368.698L372.786 15.72H376.09L370.126 30H367.102ZM380.084 13.62C379.524 13.62 379.038 13.424 378.628 13.032C378.236 12.6213 378.04 12.136 378.04 11.576C378.04 11.016 378.236 10.54 378.628 10.148C379.038 9.756 379.524 9.56 380.084 9.56C380.644 9.56 381.12 9.756 381.512 10.148C381.922 10.54 382.128 11.016 382.128 11.576C382.128 12.136 381.922 12.6213 381.512 13.032C381.12 13.424 380.644 13.62 380.084 13.62ZM378.572 30V15.72H381.596V30H378.572ZM387.384 13.62C386.824 13.62 386.338 13.424 385.928 13.032C385.536 12.6213 385.34 12.136 385.34 11.576C385.34 11.016 385.536 10.54 385.928 10.148C386.338 9.756 386.824 9.56 387.384 9.56C387.944 9.56 388.42 9.756 388.812 10.148C389.222 10.54 389.428 11.016 389.428 11.576C389.428 12.136 389.222 12.6213 388.812 13.032C388.42 13.424 387.944 13.62 387.384 13.62ZM384.668 36.328C384.089 36.328 383.566 36.2627 383.1 36.132V33.22C383.286 33.332 383.501 33.416 383.744 33.472C383.968 33.5467 384.192 33.584 384.416 33.584C384.957 33.584 385.33 33.416 385.536 33.08C385.76 32.7627 385.872 32.296 385.872 31.68V15.72H388.896V31.708C388.896 33.3507 388.494 34.5267 387.692 35.236C386.889 35.964 385.881 36.328 384.668 36.328ZM399.531 30.448C398.056 30.448 396.759 30.112 395.639 29.44C394.519 28.768 393.642 27.8627 393.007 26.724C392.372 25.5853 392.055 24.2973 392.055 22.86C392.055 21.4413 392.372 20.1627 393.007 19.024C393.642 17.8667 394.519 16.952 395.639 16.28C396.759 15.608 398.056 15.272 399.531 15.272C400.987 15.272 402.275 15.608 403.395 16.28C404.515 16.952 405.392 17.8667 406.027 19.024C406.662 20.1627 406.979 21.4413 406.979 22.86C406.979 24.2973 406.662 25.5853 406.027 26.724C405.392 27.8627 404.515 28.768 403.395 29.44C402.275 30.112 400.987 30.448 399.531 30.448ZM399.531 27.676C400.315 27.676 401.043 27.4893 401.715 27.116C402.387 26.724 402.928 26.1733 403.339 25.464C403.768 24.736 403.983 23.868 403.983 22.86C403.983 21.852 403.768 20.9933 403.339 20.284C402.928 19.556 402.387 19.0053 401.715 18.632C401.043 18.24 400.315 18.044 399.531 18.044C398.747 18.044 398.01 18.24 397.319 18.632C396.647 19.0053 396.096 19.556 395.667 20.284C395.256 20.9933 395.051 21.852 395.051 22.86C395.051 23.868 395.256 24.736 395.667 25.464C396.096 26.1733 396.647 26.724 397.319 27.116C398.01 27.4893 398.747 27.676 399.531 27.676Z" fill="#3C4043"/>
<g id="GPay Logo (Light)">
<g id="GPay">
<g id="Pay">
<path id="Fill 1" fill-rule="evenodd" clip-rule="evenodd" d="M458.529 9.44664V17.6128H463.565C464.765 17.6128 465.757 17.2096 466.541 16.4032C467.347 15.5988 467.75 14.6394 467.75 13.5288C467.75 12.4406 467.347 11.4924 466.541 10.686C465.757 9.85915 464.765 9.44478 463.565 9.44478H458.529V9.44664ZM458.529 20.4872V29.9599H455.521V6.57217H463.499C465.527 6.57217 467.248 7.24786 468.666 8.59737C470.105 9.94688 470.824 11.5913 470.824 13.5288C470.824 15.511 470.105 17.1667 468.666 18.4938C467.27 19.8227 465.547 20.4854 463.499 20.4854H458.529V20.4872Z" fill="#5F6368"/>
<path id="Fill 3" fill-rule="evenodd" clip-rule="evenodd" d="M473.864 25.0602C473.864 25.8442 474.197 26.4975 474.862 27.0201C475.527 27.5427 476.306 27.804 477.2 27.804C478.465 27.804 479.591 27.3354 480.584 26.4004C481.576 25.4634 482.071 24.364 482.071 23.1022C481.133 22.3612 479.825 21.9916 478.147 21.9916C476.925 21.9916 475.907 22.2865 475.09 22.8745C474.273 23.4623 473.864 24.1886 473.864 25.0602ZM477.756 13.4317C479.98 13.4317 481.735 14.0252 483.022 15.2124C484.308 16.3995 484.95 18.0271 484.95 20.0952V29.9599H482.073V27.7387H481.942C480.699 29.5677 479.042 30.4825 476.972 30.4825C475.206 30.4825 473.728 29.9599 472.541 28.9146C471.353 27.8694 470.759 26.5628 470.759 24.9949C470.759 23.3393 471.385 22.0232 472.638 21.0434C473.892 20.0635 475.565 19.5726 477.658 19.5726C479.444 19.5726 480.916 19.8992 482.071 20.5525V19.8656C482.071 18.8204 481.656 17.9338 480.829 17.204C479.999 16.4741 479.031 16.1102 477.919 16.1102C476.239 16.1102 474.911 16.8176 473.93 18.2343L471.28 16.5675C472.741 14.4769 474.899 13.4317 477.756 13.4317Z" fill="#5F6368"/>
<path id="Fill 5" fill-rule="evenodd" clip-rule="evenodd" d="M501.463 13.9543L491.423 37.0154H488.318L492.046 28.9464L485.44 13.9543H488.71L493.484 25.4522H493.55L498.193 13.9543H501.463Z" fill="#5F6368"/>
</g>
<g id="G">
<path id="Fill 8" fill-rule="evenodd" clip-rule="evenodd" d="M446.373 18.4452C446.373 17.4989 446.293 16.5861 446.141 15.7126H433.454V20.8885H440.72C440.408 22.5757 439.465 24.0112 438.033 24.9725V28.3341H442.37C444.91 25.9935 446.373 22.5348 446.373 18.4452Z" fill="#4285F4"/>
<path id="Fill 10" fill-rule="evenodd" clip-rule="evenodd" d="M433.454 31.5782C437.084 31.5782 440.141 30.3873 442.37 28.3341L438.033 24.9725C436.826 25.7844 435.272 26.2585 433.454 26.2585C429.944 26.2585 426.966 23.8955 425.901 20.7112H421.433V24.1736C423.647 28.5637 428.197 31.5782 433.454 31.5782Z" fill="#34A853"/>
<path id="Fill 12" fill-rule="evenodd" clip-rule="evenodd" d="M425.901 20.7111C425.628 19.8992 425.479 19.0331 425.479 18.139C425.479 17.245 425.628 16.3789 425.901 15.567V12.1045H421.433C420.518 13.9188 420 15.9683 420 18.139C420 20.3098 420.518 22.3595 421.433 24.1736L425.901 20.7111Z" fill="#FABB05"/>
<path id="Fill 14" fill-rule="evenodd" clip-rule="evenodd" d="M433.454 10.0196C435.436 10.0196 437.213 10.7009 438.615 12.0355V12.0374L442.455 8.20162C440.123 6.03271 437.082 4.7 433.454 4.7C428.197 4.7 423.647 7.71446 421.433 12.1046L425.901 15.567C426.966 12.3827 429.944 10.0196 433.454 10.0196Z" fill="#E94235"/>
</g>
</g>
</g>
</g>
</svg>
