<svg width="286" height="21" viewBox="0 0 286 21" fill="none" xmlns="http://www.w3.org/2000/svg">
<g id="sl_subscribe_with_Pay_NBG">
<path id="Left Text" d="M4.89588 15.2566C4.28788 15.2566 3.70655 15.1393 3.15188 14.9046C2.59721 14.6593 2.10655 14.3019 1.67988 13.8326C1.26388 13.3633 0.954548 12.7819 0.751881 12.0886L2.41588 11.4166C2.58655 12.0353 2.88521 12.5526 3.31188 12.9686C3.73855 13.3846 4.27188 13.5926 4.91188 13.5926C5.27455 13.5926 5.61055 13.5286 5.91988 13.4006C6.23988 13.2726 6.49588 13.0859 6.68788 12.8406C6.87988 12.5846 6.97588 12.2753 6.97588 11.9126C6.97588 11.5713 6.89588 11.2833 6.73588 11.0486C6.57588 10.8033 6.31988 10.5846 5.96788 10.3926C5.61588 10.1899 5.16788 9.99261 4.62388 9.80061L3.90388 9.54461C3.59455 9.42728 3.27988 9.28328 2.95988 9.11261C2.63988 8.94194 2.34121 8.73394 2.06388 8.48861C1.79721 8.23261 1.58388 7.93394 1.42388 7.59261C1.26388 7.25128 1.18388 6.85661 1.18388 6.40861C1.18388 5.83261 1.33321 5.30994 1.63188 4.84061C1.94121 4.37128 2.36255 3.99794 2.89588 3.72061C3.43988 3.43261 4.06921 3.28861 4.78388 3.28861C5.51988 3.28861 6.13321 3.42194 6.62388 3.68861C7.12521 3.94461 7.51455 4.25394 7.79188 4.61661C8.07988 4.97928 8.27721 5.32594 8.38388 5.65661L6.79988 6.32861C6.73588 6.10461 6.61855 5.88594 6.44788 5.67261C6.28788 5.45928 6.06921 5.28328 5.79188 5.14461C5.52521 4.99528 5.19455 4.92061 4.79988 4.92061C4.45855 4.92061 4.14388 4.98461 3.85588 5.11261C3.57855 5.24061 3.35455 5.41661 3.18388 5.64061C3.01321 5.85394 2.92788 6.10461 2.92788 6.39261C2.92788 6.80861 3.09855 7.14994 3.43988 7.41661C3.78121 7.67261 4.27721 7.90728 4.92788 8.12061L5.66388 8.37661C6.03721 8.50461 6.40521 8.65928 6.76788 8.84061C7.13055 9.01128 7.46121 9.23528 7.75988 9.51261C8.05855 9.77928 8.29321 10.1099 8.46388 10.5046C8.64522 10.8886 8.73588 11.3473 8.73588 11.8806C8.73588 12.4673 8.61855 12.9793 8.38388 13.4166C8.15988 13.8433 7.85588 14.1953 7.47188 14.4726C7.09855 14.7393 6.68255 14.9366 6.22388 15.0646C5.77588 15.1926 5.33321 15.2566 4.89588 15.2566ZM10.633 15.0006V3.54461H12.361V10.2966L15.817 6.84061H17.961V6.93661L14.809 10.0566L18.073 14.9046V15.0006H16.025L13.593 11.2566L12.361 12.4726V15.0006H10.633ZM19.3146 15.0006V3.54461H21.0426V15.0006H19.3146ZM26.8798 15.2566C26.0798 15.2566 25.3651 15.0699 24.7358 14.6966C24.1064 14.3233 23.6104 13.8113 23.2478 13.1606C22.8958 12.5099 22.7198 11.7686 22.7198 10.9366C22.7198 10.1579 22.8904 9.43794 23.2318 8.77661C23.5731 8.11528 24.0478 7.58728 24.6558 7.19261C25.2744 6.78728 25.9838 6.58461 26.7838 6.58461C27.6264 6.58461 28.3411 6.76594 28.9278 7.12861C29.5251 7.49128 29.9784 7.98728 30.2878 8.61661C30.5971 9.24594 30.7518 9.95528 30.7518 10.7446C30.7518 10.8619 30.7464 10.9686 30.7358 11.0646C30.7358 11.1606 30.7304 11.2353 30.7198 11.2886H24.4158C24.4584 11.7366 24.5704 12.1259 24.7518 12.4566C24.9864 12.8726 25.2958 13.1873 25.6798 13.4006C26.0638 13.6139 26.4798 13.7206 26.9278 13.7206C27.4718 13.7206 27.9251 13.5979 28.2878 13.3526C28.6611 13.0966 28.9544 12.7819 29.1678 12.4086L30.5918 13.0966C30.2398 13.7366 29.7598 14.2593 29.1518 14.6646C28.5438 15.0593 27.7864 15.2566 26.8798 15.2566ZM24.5118 9.99261H29.0398C29.0291 9.78994 28.9758 9.57661 28.8798 9.35261C28.7838 9.11794 28.6451 8.90461 28.4638 8.71261C28.2824 8.52061 28.0531 8.36594 27.7758 8.24861C27.4984 8.12061 27.1731 8.05661 26.7998 8.05661C26.3304 8.05661 25.9144 8.17928 25.5518 8.42461C25.1891 8.65928 24.9064 8.98994 24.7038 9.41661C24.6184 9.59794 24.5544 9.78994 24.5118 9.99261ZM32.5049 15.0006V6.84061H34.1369V7.96061H34.2329C34.4675 7.56594 34.8142 7.24061 35.2729 6.98461C35.7422 6.71794 36.2542 6.58461 36.8089 6.58461C37.8115 6.58461 38.5635 6.88328 39.0649 7.48061C39.5662 8.06728 39.8169 8.85661 39.8169 9.84861V15.0006H38.1049V10.0726C38.1049 9.41128 37.9395 8.93128 37.6089 8.63261C37.2782 8.32328 36.8462 8.16861 36.3129 8.16861C35.8969 8.16861 35.5342 8.28594 35.2249 8.52061C34.9155 8.74461 34.6702 9.04328 34.4889 9.41661C34.3182 9.78994 34.2329 10.1899 34.2329 10.6166V15.0006H32.5049ZM42.0641 15.0006V6.84061H43.7921V15.0006H42.0641ZM42.9281 5.64061C42.6081 5.64061 42.3308 5.52861 42.0961 5.30461C41.8721 5.06994 41.7601 4.79261 41.7601 4.47261C41.7601 4.14194 41.8721 3.86994 42.0961 3.65661C42.3308 3.43261 42.6081 3.32061 42.9281 3.32061C43.2588 3.32061 43.5361 3.43261 43.7601 3.65661C43.9841 3.86994 44.0961 4.14194 44.0961 4.47261C44.0961 4.79261 43.9841 5.06994 43.7601 5.30461C43.5361 5.52861 43.2588 5.64061 42.9281 5.64061ZM45.448 6.84061H46.872V4.53661H48.6V6.84061H50.6V8.34461H48.6V12.2646C48.6 12.6699 48.68 12.9793 48.84 13.1926C49.0107 13.4059 49.2933 13.5126 49.688 13.5126C49.88 13.5126 50.0507 13.4859 50.2 13.4326C50.3493 13.3686 50.4987 13.2939 50.648 13.2086V14.8886C50.4667 14.9633 50.2747 15.0219 50.072 15.0646C49.8693 15.1073 49.6293 15.1286 49.352 15.1286C48.5947 15.1286 47.992 14.9099 47.544 14.4726C47.096 14.0246 46.872 13.4113 46.872 12.6326V8.34461H45.448V6.84061ZM55.8235 15.2566C55.0235 15.2566 54.3088 15.0699 53.6795 14.6966C53.0502 14.3233 52.5542 13.8113 52.1915 13.1606C51.8395 12.5099 51.6635 11.7686 51.6635 10.9366C51.6635 10.1579 51.8342 9.43794 52.1755 8.77661C52.5168 8.11528 52.9915 7.58728 53.5995 7.19261C54.2182 6.78728 54.9275 6.58461 55.7275 6.58461C56.5702 6.58461 57.2848 6.76594 57.8715 7.12861C58.4688 7.49128 58.9222 7.98728 59.2315 8.61661C59.5408 9.24594 59.6955 9.95528 59.6955 10.7446C59.6955 10.8619 59.6902 10.9686 59.6795 11.0646C59.6795 11.1606 59.6742 11.2353 59.6635 11.2886H53.3595C53.4022 11.7366 53.5142 12.1259 53.6955 12.4566C53.9302 12.8726 54.2395 13.1873 54.6235 13.4006C55.0075 13.6139 55.4235 13.7206 55.8715 13.7206C56.4155 13.7206 56.8688 13.5979 57.2315 13.3526C57.6048 13.0966 57.8982 12.7819 58.1115 12.4086L59.5355 13.0966C59.1835 13.7366 58.7035 14.2593 58.0955 14.6646C57.4875 15.0593 56.7302 15.2566 55.8235 15.2566ZM53.4555 9.99261H57.9835C57.9728 9.78994 57.9195 9.57661 57.8235 9.35261C57.7275 9.11794 57.5888 8.90461 57.4075 8.71261C57.2262 8.52061 56.9968 8.36594 56.7195 8.24861C56.4422 8.12061 56.1168 8.05661 55.7435 8.05661C55.2742 8.05661 54.8582 8.17928 54.4955 8.42461C54.1328 8.65928 53.8502 8.98994 53.6475 9.41661C53.5622 9.59794 53.4982 9.78994 53.4555 9.99261ZM63.7724 15.0006L60.3964 6.84061H62.3164L64.6044 12.7766H64.6844L67.0204 6.84061H68.9084L65.5004 15.0006H63.7724ZM74.0611 15.0006V6.84061H75.6931V7.96061H75.7891C76.0238 7.56594 76.3705 7.24061 76.8291 6.98461C77.2985 6.71794 77.8105 6.58461 78.3651 6.58461C79.3678 6.58461 80.1198 6.88328 80.6211 7.48061C81.1225 8.06728 81.3731 8.85661 81.3731 9.84861V15.0006H79.6611V10.0726C79.6611 9.41128 79.4958 8.93128 79.1651 8.63261C78.8345 8.32328 78.4025 8.16861 77.8691 8.16861C77.4531 8.16861 77.0905 8.28594 76.7811 8.52061C76.4718 8.74461 76.2265 9.04328 76.0451 9.41661C75.8745 9.78994 75.7891 10.1899 75.7891 10.6166V15.0006H74.0611ZM85.9743 15.2566C85.3876 15.2566 84.8649 15.1393 84.4063 14.9046C83.9583 14.6699 83.6009 14.3499 83.3343 13.9446C83.0783 13.5286 82.9503 13.0539 82.9503 12.5206C82.9503 11.9339 83.0996 11.4379 83.3983 11.0326C83.7076 10.6273 84.1183 10.3179 84.6303 10.1046C85.1423 9.89128 85.7076 9.78461 86.3263 9.78461C86.6676 9.78461 86.9823 9.81128 87.2703 9.86461C87.5689 9.90728 87.8249 9.96061 88.0383 10.0246C88.2623 10.0886 88.4383 10.1579 88.5663 10.2326V9.80061C88.5663 9.26728 88.3743 8.84061 87.9903 8.52061C87.6063 8.20061 87.1103 8.04061 86.5023 8.04061C86.0863 8.04061 85.6916 8.13661 85.3183 8.32861C84.9449 8.50994 84.6463 8.76061 84.4223 9.08061L83.2383 8.16861C83.4729 7.83794 83.7556 7.55528 84.0863 7.32061C84.4276 7.08594 84.8063 6.90461 85.2223 6.77661C85.6489 6.64861 86.0916 6.58461 86.5503 6.58461C87.7343 6.58461 88.6463 6.87794 89.2863 7.46461C89.9263 8.04061 90.2463 8.85128 90.2463 9.89661V15.0006H88.5663V13.9926H88.4703C88.3316 14.2059 88.1396 14.4086 87.8943 14.6006C87.6596 14.7926 87.3769 14.9473 87.0463 15.0646C86.7263 15.1926 86.3689 15.2566 85.9743 15.2566ZM86.2783 13.8486C86.7263 13.8486 87.1209 13.7419 87.4623 13.5286C87.8143 13.3153 88.0863 13.0379 88.2783 12.6966C88.4703 12.3446 88.5663 11.9659 88.5663 11.5606C88.3316 11.4219 88.0436 11.3099 87.7023 11.2246C87.3716 11.1286 87.0196 11.0806 86.6463 11.0806C85.9423 11.0806 85.4409 11.2193 85.1423 11.4966C84.8436 11.7739 84.6943 12.1206 84.6943 12.5366C84.6943 12.9206 84.8383 13.2353 85.1263 13.4806C85.4143 13.7259 85.7983 13.8486 86.2783 13.8486ZM92.2986 15.0006V6.84061H93.9306V8.04061H94.0266C94.1546 7.76328 94.336 7.51794 94.5706 7.30461C94.816 7.09128 95.0933 6.92061 95.4026 6.79261C95.7226 6.66461 96.0533 6.60061 96.3946 6.60061C96.6186 6.60061 96.8053 6.61661 96.9546 6.64861C97.1146 6.66994 97.2586 6.70728 97.3866 6.76061V8.55261C97.184 8.46728 96.976 8.39794 96.7626 8.34461C96.56 8.29128 96.3466 8.26461 96.1226 8.26461C95.7173 8.26461 95.3546 8.37661 95.0346 8.60061C94.7253 8.81394 94.48 9.10194 94.2986 9.46461C94.1173 9.82728 94.0266 10.2326 94.0266 10.6806V15.0006H92.2986ZM102.226 15.2566C101.383 15.2566 100.642 15.0646 100.002 14.6806C99.3621 14.2966 98.8608 13.7793 98.4981 13.1286C98.1355 12.4673 97.9541 11.7313 97.9541 10.9206C97.9541 10.1099 98.1355 9.37928 98.4981 8.72861C98.8608 8.06728 99.3621 7.54461 100.002 7.16061C100.642 6.77661 101.383 6.58461 102.226 6.58461C103.058 6.58461 103.794 6.78194 104.434 7.17661C105.074 7.56061 105.575 8.07794 105.938 8.72861C106.301 9.37928 106.482 10.1099 106.482 10.9206C106.482 11.7313 106.301 12.4673 105.938 13.1286C105.575 13.7793 105.074 14.2966 104.434 14.6806C103.794 15.0646 103.058 15.2566 102.226 15.2566ZM102.226 13.6726C102.674 13.6726 103.09 13.5659 103.474 13.3526C103.858 13.1286 104.167 12.8139 104.402 12.4086C104.647 11.9926 104.77 11.4966 104.77 10.9206C104.77 10.3446 104.647 9.85394 104.402 9.44861C104.167 9.03261 103.858 8.71794 103.474 8.50461C103.09 8.28061 102.674 8.16861 102.226 8.16861C101.778 8.16861 101.357 8.28061 100.962 8.50461C100.578 8.71794 100.263 9.03261 100.018 9.44861C99.7835 9.85394 99.6661 10.3446 99.6661 10.9206C99.6661 11.4966 99.7835 11.9926 100.018 12.4086C100.263 12.8139 100.583 13.1286 100.978 13.3526C101.373 13.5659 101.789 13.6726 102.226 13.6726ZM112 15.2566C111.178 15.2566 110.448 15.0699 109.808 14.6966C109.178 14.3233 108.682 13.8113 108.32 13.1606C107.968 12.4993 107.792 11.7526 107.792 10.9206C107.792 10.0886 107.968 9.34728 108.32 8.69661C108.682 8.04594 109.178 7.53394 109.808 7.16061C110.448 6.77661 111.178 6.58461 112 6.58461C112.906 6.58461 113.669 6.78728 114.288 7.19261C114.917 7.59794 115.365 8.14728 115.632 8.84061L114.064 9.48061C113.872 9.04328 113.594 8.71794 113.232 8.50461C112.88 8.28061 112.458 8.16861 111.968 8.16861C111.52 8.16861 111.109 8.28594 110.736 8.52061C110.362 8.74461 110.064 9.05928 109.84 9.46461C109.616 9.86994 109.504 10.3553 109.504 10.9206C109.504 11.4753 109.616 11.9606 109.84 12.3766C110.064 12.7926 110.362 13.1126 110.736 13.3366C111.109 13.5606 111.52 13.6726 111.968 13.6726C112.49 13.6726 112.933 13.5553 113.296 13.3206C113.658 13.0859 113.941 12.7553 114.144 12.3286L115.68 13.0006C115.381 13.6513 114.917 14.1899 114.288 14.6166C113.669 15.0433 112.906 15.2566 112 15.2566ZM111.248 5.27261L109.536 3.33661V3.22461H111.184L111.92 4.21661H112.08L112.832 3.22461H114.496V3.33661L112.768 5.27261H111.248ZM117.311 15.0006V6.84061H118.943V7.96061H119.039C119.274 7.56594 119.62 7.24061 120.079 6.98461C120.548 6.71794 121.06 6.58461 121.615 6.58461C122.618 6.58461 123.37 6.88328 123.871 7.48061C124.372 8.06728 124.623 8.85661 124.623 9.84861V15.0006H122.911V10.0726C122.911 9.41128 122.746 8.93128 122.415 8.63261C122.084 8.32328 121.652 8.16861 121.119 8.16861C120.703 8.16861 120.34 8.28594 120.031 8.52061C119.722 8.74461 119.476 9.04328 119.295 9.41661C119.124 9.78994 119.039 10.1899 119.039 10.6166V15.0006H117.311ZM126.87 15.0006V6.84061H128.598V15.0006H126.87ZM127.734 5.64061C127.414 5.64061 127.137 5.52861 126.902 5.30461C126.678 5.06994 126.566 4.79261 126.566 4.47261C126.566 4.14194 126.678 3.86994 126.902 3.65661C127.137 3.43261 127.414 3.32061 127.734 3.32061C128.065 3.32061 128.342 3.43261 128.566 3.65661C128.79 3.86994 128.902 4.14194 128.902 4.47261C128.902 4.79261 128.79 5.06994 128.566 5.30461C128.342 5.52861 128.065 5.64061 127.734 5.64061ZM130.892 15.0006V6.84061H132.524V7.96061H132.62C132.855 7.56594 133.202 7.24061 133.66 6.98461C134.13 6.71794 134.642 6.58461 135.196 6.58461C136.199 6.58461 136.951 6.88328 137.452 7.48061C137.954 8.06728 138.204 8.85661 138.204 9.84861V15.0006H136.492V10.0726C136.492 9.41128 136.327 8.93128 135.996 8.63261C135.666 8.32328 135.234 8.16861 134.7 8.16861C134.284 8.16861 133.922 8.28594 133.612 8.52061C133.303 8.74461 133.058 9.04328 132.876 9.41661C132.706 9.78994 132.62 10.1899 132.62 10.6166V15.0006H130.892ZM144.052 15.2566C143.252 15.2566 142.537 15.0699 141.908 14.6966C141.278 14.3233 140.782 13.8113 140.42 13.1606C140.068 12.5099 139.892 11.7686 139.892 10.9366C139.892 10.1579 140.062 9.43794 140.404 8.77661C140.745 8.11528 141.22 7.58728 141.828 7.19261C142.446 6.78728 143.156 6.58461 143.956 6.58461C144.798 6.58461 145.513 6.76594 146.1 7.12861C146.697 7.49128 147.15 7.98728 147.46 8.61661C147.769 9.24594 147.924 9.95528 147.924 10.7446C147.924 10.8619 147.918 10.9686 147.908 11.0646C147.908 11.1606 147.902 11.2353 147.892 11.2886H141.588C141.63 11.7366 141.742 12.1259 141.924 12.4566C142.158 12.8726 142.468 13.1873 142.852 13.4006C143.236 13.6139 143.652 13.7206 144.1 13.7206C144.644 13.7206 145.097 13.5979 145.46 13.3526C145.833 13.0966 146.126 12.7819 146.34 12.4086L147.764 13.0966C147.412 13.7366 146.932 14.2593 146.324 14.6646C145.716 15.0593 144.958 15.2566 144.052 15.2566ZM141.684 9.99261H146.212C146.201 9.78994 146.148 9.57661 146.052 9.35261C145.956 9.11794 145.817 8.90461 145.636 8.71261C145.454 8.52061 145.225 8.36594 144.948 8.24861C144.67 8.12061 144.345 8.05661 143.972 8.05661C143.502 8.05661 143.086 8.17928 142.724 8.42461C142.361 8.65928 142.078 8.98994 141.876 9.41661C141.79 9.59794 141.726 9.78994 141.684 9.99261ZM156.537 15.2566C155.886 15.2566 155.321 15.1606 154.841 14.9686C154.361 14.7659 153.966 14.4993 153.657 14.1686C153.348 13.8273 153.118 13.4593 152.969 13.0646L154.521 12.3926C154.713 12.8299 154.985 13.1659 155.337 13.4006C155.7 13.6246 156.116 13.7366 156.585 13.7366C157.012 13.7366 157.38 13.6619 157.689 13.5126C157.998 13.3526 158.153 13.0966 158.153 12.7446C158.153 12.5206 158.078 12.3393 157.929 12.2006C157.79 12.0513 157.598 11.9286 157.353 11.8326C157.118 11.7366 156.846 11.6513 156.537 11.5766L155.561 11.3526C155.177 11.2566 154.809 11.1073 154.457 10.9046C154.116 10.6913 153.838 10.4246 153.625 10.1046C153.412 9.78461 153.305 9.40594 153.305 8.96861C153.305 8.47794 153.444 8.05661 153.721 7.70461C154.009 7.34194 154.393 7.06461 154.873 6.87261C155.353 6.68061 155.87 6.58461 156.425 6.58461C156.937 6.58461 157.401 6.65394 157.817 6.79261C158.244 6.92061 158.612 7.11794 158.921 7.38461C159.241 7.64061 159.492 7.96061 159.673 8.34461L158.185 9.01661C158.004 8.65394 157.758 8.40328 157.449 8.26461C157.14 8.11528 156.804 8.04061 156.441 8.04061C156.036 8.04061 155.694 8.12594 155.417 8.29661C155.15 8.45661 155.017 8.66994 155.017 8.93661C155.017 9.21394 155.134 9.43261 155.369 9.59261C155.614 9.75261 155.913 9.88061 156.265 9.97661L157.449 10.2646C158.26 10.4673 158.868 10.7766 159.273 11.1926C159.678 11.5979 159.881 12.0939 159.881 12.6806C159.881 13.2033 159.732 13.6619 159.433 14.0566C159.134 14.4406 158.729 14.7393 158.217 14.9526C157.716 15.1553 157.156 15.2566 156.537 15.2566ZM168.4 15.2566C167.749 15.2566 167.184 15.1606 166.704 14.9686C166.224 14.7659 165.829 14.4993 165.52 14.1686C165.21 13.8273 164.981 13.4593 164.832 13.0646L166.384 12.3926C166.576 12.8299 166.848 13.1659 167.2 13.4006C167.562 13.6246 167.978 13.7366 168.448 13.7366C168.874 13.7366 169.242 13.6619 169.552 13.5126C169.861 13.3526 170.016 13.0966 170.016 12.7446C170.016 12.5206 169.941 12.3393 169.792 12.2006C169.653 12.0513 169.461 11.9286 169.216 11.8326C168.981 11.7366 168.709 11.6513 168.4 11.5766L167.424 11.3526C167.04 11.2566 166.672 11.1073 166.32 10.9046C165.978 10.6913 165.701 10.4246 165.488 10.1046C165.274 9.78461 165.168 9.40594 165.168 8.96861C165.168 8.47794 165.306 8.05661 165.584 7.70461C165.872 7.34194 166.256 7.06461 166.736 6.87261C167.216 6.68061 167.733 6.58461 168.288 6.58461C168.8 6.58461 169.264 6.65394 169.68 6.79261C170.106 6.92061 170.474 7.11794 170.784 7.38461C171.104 7.64061 171.354 7.96061 171.536 8.34461L170.048 9.01661C169.866 8.65394 169.621 8.40328 169.312 8.26461C169.002 8.11528 168.666 8.04061 168.304 8.04061C167.898 8.04061 167.557 8.12594 167.28 8.29661C167.013 8.45661 166.88 8.66994 166.88 8.93661C166.88 9.21394 166.997 9.43261 167.232 9.59261C167.477 9.75261 167.776 9.88061 168.128 9.97661L169.312 10.2646C170.122 10.4673 170.73 10.7766 171.136 11.1926C171.541 11.5979 171.744 12.0939 171.744 12.6806C171.744 13.2033 171.594 13.6619 171.296 14.0566C170.997 14.4406 170.592 14.7393 170.08 14.9526C169.578 15.1553 169.018 15.2566 168.4 15.2566ZM172.764 6.84061H174.188V4.53661H175.916V6.84061H177.916V8.34461H175.916V12.2646C175.916 12.6699 175.996 12.9793 176.156 13.1926C176.326 13.4059 176.609 13.5126 177.004 13.5126C177.196 13.5126 177.366 13.4859 177.516 13.4326C177.665 13.3686 177.814 13.2939 177.964 13.2086V14.8886C177.782 14.9633 177.59 15.0219 177.388 15.0646C177.185 15.1073 176.945 15.1286 176.668 15.1286C175.91 15.1286 175.308 14.9099 174.86 14.4726C174.412 14.0246 174.188 13.4113 174.188 12.6326V8.34461H172.764V6.84061ZM183.251 15.2566C182.408 15.2566 181.667 15.0646 181.027 14.6806C180.387 14.2966 179.886 13.7793 179.523 13.1286C179.16 12.4673 178.979 11.7313 178.979 10.9206C178.979 10.1099 179.16 9.37928 179.523 8.72861C179.886 8.06728 180.387 7.54461 181.027 7.16061C181.667 6.77661 182.408 6.58461 183.251 6.58461C184.083 6.58461 184.819 6.78194 185.459 7.17661C186.099 7.56061 186.6 8.07794 186.963 8.72861C187.326 9.37928 187.507 10.1099 187.507 10.9206C187.507 11.7313 187.326 12.4673 186.963 13.1286C186.6 13.7793 186.099 14.2966 185.459 14.6806C184.819 15.0646 184.083 15.2566 183.251 15.2566ZM183.251 13.6726C183.699 13.6726 184.115 13.5659 184.499 13.3526C184.883 13.1286 185.192 12.8139 185.427 12.4086C185.672 11.9926 185.795 11.4966 185.795 10.9206C185.795 10.3446 185.672 9.85394 185.427 9.44861C185.192 9.03261 184.883 8.71794 184.499 8.50461C184.115 8.28061 183.699 8.16861 183.251 8.16861C182.803 8.16861 182.382 8.28061 181.987 8.50461C181.603 8.71794 181.288 9.03261 181.043 9.44861C180.808 9.85394 180.691 10.3446 180.691 10.9206C180.691 11.4966 180.808 11.9926 181.043 12.4086C181.288 12.8139 181.608 13.1286 182.003 13.3526C182.398 13.5659 182.814 13.6726 183.251 13.6726ZM189.092 15.0006V6.84061H190.724V8.04061H190.82C190.948 7.76328 191.13 7.51794 191.364 7.30461C191.61 7.09128 191.887 6.92061 192.196 6.79261C192.516 6.66461 192.847 6.60061 193.188 6.60061C193.412 6.60061 193.599 6.61661 193.748 6.64861C193.908 6.66994 194.052 6.70728 194.18 6.76061V8.55261C193.978 8.46728 193.77 8.39794 193.556 8.34461C193.354 8.29128 193.14 8.26461 192.916 8.26461C192.511 8.26461 192.148 8.37661 191.828 8.60061C191.519 8.81394 191.274 9.10194 191.092 9.46461C190.911 9.82728 190.82 10.2326 190.82 10.6806V15.0006H189.092ZM195.792 15.0006V6.84061H197.52V15.0006H195.792ZM196.656 5.64061C196.336 5.64061 196.059 5.52861 195.824 5.30461C195.6 5.06994 195.488 4.79261 195.488 4.47261C195.488 4.14194 195.6 3.86994 195.824 3.65661C196.059 3.43261 196.336 3.32061 196.656 3.32061C196.987 3.32061 197.264 3.43261 197.488 3.65661C197.712 3.86994 197.824 4.14194 197.824 4.47261C197.824 4.79261 197.712 5.06994 197.488 5.30461C197.264 5.52861 196.987 5.64061 196.656 5.64061ZM199.176 6.84061H200.6V4.53661H202.328V6.84061H204.328V8.34461H202.328V12.2646C202.328 12.6699 202.408 12.9793 202.568 13.1926C202.739 13.4059 203.021 13.5126 203.416 13.5126C203.608 13.5126 203.779 13.4859 203.928 13.4326C204.077 13.3686 204.227 13.2939 204.376 13.2086V14.8886C204.195 14.9633 204.003 15.0219 203.8 15.0646C203.597 15.1073 203.357 15.1286 203.08 15.1286C202.323 15.1286 201.72 14.9099 201.272 14.4726C200.824 14.0246 200.6 13.4113 200.6 12.6326V8.34461H199.176V6.84061ZM208.694 15.0006L205.318 6.84061H207.238L209.526 12.7766H209.606L211.942 6.84061H213.83L210.422 15.0006H208.694ZM215.227 15.0006V6.84061H216.955V15.0006H215.227ZM216.091 5.64061C215.771 5.64061 215.493 5.52861 215.259 5.30461C215.035 5.06994 214.923 4.79261 214.923 4.47261C214.923 4.14194 215.035 3.86994 215.259 3.65661C215.493 3.43261 215.771 3.32061 216.091 3.32061C216.421 3.32061 216.699 3.43261 216.923 3.65661C217.147 3.86994 217.259 4.14194 217.259 4.47261C217.259 4.79261 217.147 5.06994 216.923 5.30461C216.699 5.52861 216.421 5.64061 216.091 5.64061ZM218.689 18.6166C218.518 18.6166 218.363 18.6059 218.225 18.5846C218.075 18.5633 217.931 18.5366 217.793 18.5046V16.8406C217.889 16.8939 218.006 16.9419 218.145 16.9846C218.283 17.0273 218.417 17.0486 218.545 17.0486C218.843 17.0486 219.057 16.9526 219.185 16.7606C219.313 16.5793 219.377 16.3126 219.377 15.9606V6.84061H221.105V15.9766C221.105 16.6059 220.998 17.1126 220.785 17.4966C220.582 17.8806 220.299 18.1633 219.937 18.3446C219.574 18.5259 219.158 18.6166 218.689 18.6166ZM220.241 5.64061C219.921 5.64061 219.643 5.52861 219.409 5.30461C219.185 5.06994 219.073 4.79261 219.073 4.47261C219.073 4.14194 219.185 3.86994 219.409 3.65661C219.643 3.43261 219.921 3.32061 220.241 3.32061C220.571 3.32061 220.849 3.43261 221.073 3.65661C221.297 3.86994 221.409 4.14194 221.409 4.47261C221.409 4.79261 221.297 5.06994 221.073 5.30461C220.849 5.52861 220.571 5.64061 220.241 5.64061ZM227.161 15.2566C226.318 15.2566 225.577 15.0646 224.937 14.6806C224.297 14.2966 223.795 13.7793 223.433 13.1286C223.07 12.4673 222.889 11.7313 222.889 10.9206C222.889 10.1099 223.07 9.37928 223.433 8.72861C223.795 8.06728 224.297 7.54461 224.937 7.16061C225.577 6.77661 226.318 6.58461 227.161 6.58461C227.993 6.58461 228.729 6.78194 229.369 7.17661C230.009 7.56061 230.51 8.07794 230.873 8.72861C231.235 9.37928 231.417 10.1099 231.417 10.9206C231.417 11.7313 231.235 12.4673 230.873 13.1286C230.51 13.7793 230.009 14.2966 229.369 14.6806C228.729 15.0646 227.993 15.2566 227.161 15.2566ZM227.161 13.6726C227.609 13.6726 228.025 13.5659 228.409 13.3526C228.793 13.1286 229.102 12.8139 229.337 12.4086C229.582 11.9926 229.705 11.4966 229.705 10.9206C229.705 10.3446 229.582 9.85394 229.337 9.44861C229.102 9.03261 228.793 8.71794 228.409 8.50461C228.025 8.28061 227.609 8.16861 227.161 8.16861C226.713 8.16861 226.291 8.28061 225.897 8.50461C225.513 8.71794 225.198 9.03261 224.953 9.44861C224.718 9.85394 224.601 10.3446 224.601 10.9206C224.601 11.4966 224.718 11.9926 224.953 12.4086C225.198 12.8139 225.518 13.1286 225.913 13.3526C226.307 13.5659 226.723 13.6726 227.161 13.6726Z" fill="white"/>
<g id="GPay (Dark)">
<g id="GPay">
<g id="Pay">
<path id="Fill 1" fill-rule="evenodd" clip-rule="evenodd" d="M260.356 3.42339V8.16175H263.278C263.974 8.16175 264.55 7.92781 265.005 7.45993C265.473 6.99313 265.707 6.43644 265.707 5.79203C265.707 5.16061 265.473 4.61041 265.005 4.14254C264.55 3.66274 263.974 3.4223 263.278 3.4223H260.356V3.42339ZM260.356 9.82966V15.3262H258.611V1.75549H263.24C264.417 1.75549 265.415 2.14756 266.238 2.93061C267.073 3.71365 267.491 4.66782 267.491 5.79203C267.491 6.94224 267.073 7.90291 266.238 8.67296C265.428 9.44409 264.429 9.82858 263.24 9.82858H260.356V9.82966Z" fill="white"/>
<path id="Fill 3" fill-rule="evenodd" clip-rule="evenodd" d="M269.255 12.4831C269.255 12.9379 269.448 13.317 269.834 13.6203C270.22 13.9235 270.672 14.0752 271.19 14.0752C271.924 14.0752 272.578 13.8032 273.153 13.2607C273.729 12.717 274.017 12.0791 274.017 11.3469C273.472 10.917 272.713 10.7025 271.74 10.7025C271.031 10.7025 270.44 10.8736 269.966 11.2148C269.492 11.5559 269.255 11.9773 269.255 12.4831M271.513 5.73566C272.803 5.73566 273.821 6.08007 274.569 6.76889C275.314 7.45771 275.687 8.40213 275.687 9.60216V15.3261H274.018V14.0373H273.942C273.221 15.0985 272.259 15.6294 271.058 15.6294C270.033 15.6294 269.176 15.3261 268.487 14.7196C267.797 14.1131 267.453 13.3549 267.453 12.4452C267.453 11.4845 267.816 10.7208 268.543 10.1523C269.271 9.58375 270.241 9.2989 271.456 9.2989C272.492 9.2989 273.346 9.48844 274.017 9.86751V9.46894C274.017 8.86243 273.776 8.34798 273.296 7.92451C272.814 7.50103 272.252 7.28984 271.607 7.28984C270.633 7.28984 269.862 7.70032 269.293 8.52235L267.755 7.55519C268.603 6.34217 269.855 5.73566 271.513 5.73566" fill="white"/>
<path id="Fill 5" fill-rule="evenodd" clip-rule="evenodd" d="M285.269 6.03894L279.443 19.4201H277.641L279.804 14.738L275.971 6.03894H277.869L280.639 12.7106H280.677L283.371 6.03894H285.269Z" fill="white"/>
</g>
<g id="G">
<path id="Fill 8" fill-rule="evenodd" clip-rule="evenodd" d="M253.303 8.64473C253.303 8.09563 253.256 7.56601 253.168 7.05914H245.806V10.0625H250.023C249.842 11.0414 249.294 11.8744 248.464 12.4322V14.3828H250.98C252.454 13.0246 253.303 11.0177 253.303 8.64473" fill="#4285F4"/>
<path id="Fill 10" fill-rule="evenodd" clip-rule="evenodd" d="M245.806 16.2651C247.913 16.2651 249.687 15.5741 250.98 14.3828L248.464 12.4322C247.764 12.9033 246.861 13.1784 245.806 13.1784C243.77 13.1784 242.042 11.8073 241.424 9.95959H238.832V11.9687C240.116 14.516 242.757 16.2651 245.806 16.2651" fill="#34A853"/>
<path id="Fill 12" fill-rule="evenodd" clip-rule="evenodd" d="M241.424 9.9596C241.266 9.48847 241.179 8.98593 241.179 8.46715C241.179 7.94837 241.266 7.44583 241.424 6.9747V4.96564H238.832C238.3 6.01837 238 7.20756 238 8.46715C238 9.72674 238.3 10.916 238.832 11.9687L241.424 9.9596Z" fill="#FABB05"/>
<path id="Fill 14" fill-rule="evenodd" clip-rule="evenodd" d="M245.806 3.75583C246.957 3.75583 247.988 4.15115 248.801 4.92553V4.92661L251.029 2.70094C249.676 1.44243 247.912 0.669128 245.806 0.669128C242.757 0.669128 240.116 2.41826 238.832 4.9656L241.424 6.97467C242.042 5.12698 243.77 3.75583 245.806 3.75583" fill="#E94235"/>
</g>
</g>
</g>
</g>
</svg>
