<svg width="300" height="38" viewBox="0 0 300 38" fill="none" xmlns="http://www.w3.org/2000/svg">
<g id="sl_view_in_Light">
<path id="Text" d="M12.3355 30.448C10.8422 30.448 9.46083 30.1773 8.1915 29.636C6.94083 29.0947 5.84883 28.348 4.9155 27.396C3.98217 26.444 3.25417 25.3333 2.7315 24.064C2.20883 22.7947 1.9475 21.432 1.9475 19.976C1.9475 18.52 2.20883 17.1573 2.7315 15.888C3.25417 14.6187 3.98217 13.508 4.9155 12.556C5.84883 11.604 6.94083 10.8573 8.1915 10.316C9.46083 9.77467 10.8422 9.504 12.3355 9.504C13.8102 9.504 15.1728 9.77467 16.4235 10.316C17.6928 10.8573 18.7942 11.604 19.7275 12.556C20.6795 13.508 21.4075 14.6187 21.9115 15.888C22.4342 17.1573 22.6955 18.52 22.6955 19.976C22.6955 21.432 22.4342 22.7947 21.9115 24.064C21.4075 25.3333 20.6795 26.444 19.7275 27.396C18.7942 28.348 17.6928 29.0947 16.4235 29.636C15.1728 30.1773 13.8102 30.448 12.3355 30.448ZM12.3355 27.536C13.6795 27.536 14.9022 27.2187 16.0035 26.584C17.1048 25.9493 17.9822 25.0627 18.6355 23.924C19.2888 22.7853 19.6155 21.4693 19.6155 19.976C19.6155 18.4827 19.2888 17.1667 18.6355 16.028C17.9822 14.8893 17.1048 14.0027 16.0035 13.368C14.9022 12.7333 13.6795 12.416 12.3355 12.416C10.9915 12.416 9.76883 12.7333 8.6675 13.368C7.56617 14.0027 6.68883 14.8893 6.0355 16.028C5.38217 17.1667 5.0555 18.4827 5.0555 19.976C5.0555 21.4693 5.38217 22.7853 6.0355 23.924C6.68883 25.0627 7.56617 25.9493 8.6675 26.584C9.76883 27.2187 10.9915 27.536 12.3355 27.536ZM32.4884 36.496C31.2377 36.496 30.155 36.2907 29.2404 35.88C28.3444 35.488 27.6164 34.9747 27.0564 34.34C26.4964 33.724 26.095 33.0893 25.8524 32.436L28.6524 31.26C28.951 32.0067 29.427 32.6133 30.0804 33.08C30.7524 33.5653 31.555 33.808 32.4884 33.808C33.795 33.808 34.8217 33.416 35.5684 32.632C36.3337 31.848 36.7164 30.7373 36.7164 29.3V27.928H36.5484C36.1004 28.6 35.475 29.1413 34.6724 29.552C33.8884 29.944 32.9924 30.14 31.9844 30.14C30.771 30.14 29.6604 29.832 28.6524 29.216C27.6444 28.6 26.8324 27.7413 26.2164 26.64C25.6004 25.52 25.2924 24.2133 25.2924 22.72C25.2924 21.208 25.6004 19.9013 26.2164 18.8C26.8324 17.68 27.6444 16.812 28.6524 16.196C29.6604 15.58 30.771 15.272 31.9844 15.272C32.9924 15.272 33.8884 15.4773 34.6724 15.888C35.475 16.2987 36.1004 16.84 36.5484 17.512H36.7164V15.72H39.6004V29.244C39.6004 30.7933 39.2924 32.1093 38.6764 33.192C38.079 34.2747 37.2484 35.096 36.1844 35.656C35.1204 36.216 33.8884 36.496 32.4884 36.496ZM32.5164 27.396C33.263 27.396 33.9537 27.2187 34.5884 26.864C35.223 26.4907 35.7364 25.9587 36.1284 25.268C36.5204 24.5587 36.7164 23.7093 36.7164 22.72C36.7164 21.6933 36.5204 20.8347 36.1284 20.144C35.7364 19.4347 35.223 18.9027 34.5884 18.548C33.9537 18.1933 33.263 18.016 32.5164 18.016C31.7697 18.016 31.0697 18.2027 30.4164 18.576C29.7817 18.9307 29.2684 19.4533 28.8764 20.144C28.4844 20.8347 28.2884 21.6933 28.2884 22.72C28.2884 23.728 28.4844 24.5867 28.8764 25.296C29.2684 25.9867 29.7817 26.5093 30.4164 26.864C31.0697 27.2187 31.7697 27.396 32.5164 27.396ZM43.4662 30V9.952H46.4902V30H43.4662ZM56.7427 30.448C55.3427 30.448 54.092 30.1213 52.9907 29.468C51.8894 28.8147 51.0214 27.9187 50.3867 26.78C49.7707 25.6413 49.4627 24.344 49.4627 22.888C49.4627 21.5253 49.7614 20.2653 50.3587 19.108C50.956 17.9507 51.7867 17.0267 52.8507 16.336C53.9334 15.6267 55.1747 15.272 56.5747 15.272C58.0494 15.272 59.3 15.5893 60.3267 16.224C61.372 16.8587 62.1654 17.7267 62.7067 18.828C63.248 19.9293 63.5187 21.1707 63.5187 22.552C63.5187 22.7573 63.5094 22.944 63.4907 23.112C63.4907 23.28 63.4814 23.4107 63.4627 23.504H52.4307C52.58 24.9227 53.0747 25.9867 53.9147 26.696C54.7734 27.4053 55.744 27.76 56.8267 27.76C57.7974 27.76 58.6 27.5453 59.2347 27.116C59.8694 26.668 60.3734 26.1173 60.7467 25.464L63.2387 26.668C62.6227 27.788 61.7827 28.7027 60.7187 29.412C59.6547 30.1027 58.3294 30.448 56.7427 30.448ZM56.6027 17.848C55.5947 17.848 54.736 18.156 54.0267 18.772C53.3174 19.388 52.8414 20.2093 52.5987 21.236H60.5227C60.4854 20.7507 60.3267 20.2467 60.0467 19.724C59.7667 19.2013 59.3374 18.7627 58.7587 18.408C58.1987 18.0347 57.48 17.848 56.6027 17.848ZM72.8649 30.448C71.5769 30.448 70.4102 30.1307 69.3649 29.496C68.3382 28.8427 67.5169 27.9467 66.9009 26.808C66.3035 25.6507 66.0049 24.3347 66.0049 22.86C66.0049 21.3853 66.3035 20.0787 66.9009 18.94C67.5169 17.8013 68.3382 16.9053 69.3649 16.252C70.4102 15.5987 71.5769 15.272 72.8649 15.272C73.9662 15.272 74.9089 15.5147 75.6929 16C76.4955 16.4853 77.0835 17.036 77.4569 17.652H77.6249L77.4569 15.664V9.952H80.4529V30H77.6249V28.096H77.4569C77.0835 28.712 76.4955 29.2627 75.6929 29.748C74.9089 30.2147 73.9662 30.448 72.8649 30.448ZM73.3129 27.676C74.0595 27.676 74.7595 27.48 75.4129 27.088C76.0849 26.696 76.6169 26.1453 77.0089 25.436C77.4195 24.708 77.6249 23.8493 77.6249 22.86C77.6249 21.8707 77.4195 21.0213 77.0089 20.312C76.6169 19.584 76.0849 19.024 75.4129 18.632C74.7595 18.24 74.0595 18.044 73.3129 18.044C72.5662 18.044 71.8662 18.24 71.2129 18.632C70.5595 19.024 70.0275 19.584 69.6169 20.312C69.2062 21.0213 69.0009 21.8707 69.0009 22.86C69.0009 23.8493 69.2062 24.708 69.6169 25.436C70.0275 26.1453 70.5595 26.696 71.2129 27.088C71.8662 27.48 72.5662 27.676 73.3129 27.676ZM95.4899 30L89.5819 15.72H92.9419L96.9459 26.108H97.0859L101.174 15.72H104.478L98.5139 30H95.4899ZM118.778 30.448C117.061 30.448 115.689 30.0747 114.662 29.328C113.636 28.5627 112.926 27.6573 112.534 26.612L115.25 25.436C115.586 26.2013 116.072 26.7893 116.706 27.2C117.341 27.592 118.06 27.788 118.862 27.788C119.609 27.788 120.253 27.6573 120.794 27.396C121.336 27.116 121.606 26.668 121.606 26.052C121.606 25.4547 121.336 25.016 120.794 24.736C120.253 24.456 119.581 24.2133 118.778 24.008L117.07 23.616C116.38 23.448 115.736 23.1867 115.138 22.832C114.541 22.4773 114.056 22.02 113.682 21.46C113.309 20.8813 113.122 20.2093 113.122 19.444C113.122 18.604 113.374 17.876 113.878 17.26C114.382 16.6253 115.045 16.14 115.866 15.804C116.706 15.4493 117.612 15.272 118.582 15.272C119.908 15.272 121.065 15.5333 122.054 16.056C123.062 16.56 123.8 17.3253 124.266 18.352L121.662 19.528C121.326 18.8933 120.888 18.4547 120.346 18.212C119.824 17.9507 119.245 17.82 118.61 17.82C117.901 17.82 117.304 17.9693 116.818 18.268C116.352 18.5667 116.118 18.94 116.118 19.388C116.118 19.8733 116.324 20.256 116.734 20.536C117.164 20.816 117.686 21.04 118.302 21.208L120.374 21.712C121.793 22.0667 122.857 22.608 123.566 23.336C124.276 24.0453 124.63 24.9133 124.63 25.94C124.63 26.8547 124.369 27.6573 123.846 28.348C123.324 29.02 122.614 29.5427 121.718 29.916C120.841 30.2707 119.861 30.448 118.778 30.448ZM128.945 25.856V18.352H126.453V15.72H128.945V11.688H131.969V15.72H135.469V18.352H131.969V25.212C131.969 25.9213 132.109 26.4627 132.389 26.836C132.687 27.2093 133.182 27.396 133.873 27.396C134.227 27.396 134.526 27.3493 134.769 27.256C135.03 27.1627 135.291 27.032 135.553 26.864V29.804C135.235 29.9347 134.899 30.0373 134.545 30.112C134.19 30.1867 133.77 30.224 133.285 30.224C131.959 30.224 130.905 29.8413 130.121 29.076C129.337 28.292 128.945 27.2187 128.945 25.856ZM144.843 30.448C143.369 30.448 142.071 30.112 140.951 29.44C139.831 28.768 138.954 27.8627 138.319 26.724C137.685 25.5853 137.367 24.2973 137.367 22.86C137.367 21.4413 137.685 20.1627 138.319 19.024C138.954 17.8667 139.831 16.952 140.951 16.28C142.071 15.608 143.369 15.272 144.843 15.272C146.299 15.272 147.587 15.608 148.707 16.28C149.827 16.952 150.705 17.8667 151.339 19.024C151.974 20.1627 152.291 21.4413 152.291 22.86C152.291 24.2973 151.974 25.5853 151.339 26.724C150.705 27.8627 149.827 28.768 148.707 29.44C147.587 30.112 146.299 30.448 144.843 30.448ZM144.843 27.676C145.627 27.676 146.355 27.4893 147.027 27.116C147.699 26.724 148.241 26.1733 148.651 25.464C149.081 24.736 149.295 23.868 149.295 22.86C149.295 21.852 149.081 20.9933 148.651 20.284C148.241 19.556 147.699 19.0053 147.027 18.632C146.355 18.24 145.627 18.044 144.843 18.044C144.059 18.044 143.322 18.24 142.631 18.632C141.959 19.0053 141.409 19.556 140.979 20.284C140.569 20.9933 140.363 21.852 140.363 22.86C140.363 23.868 140.569 24.736 140.979 25.464C141.409 26.1733 141.959 26.724 142.631 27.116C143.322 27.4893 144.059 27.676 144.843 27.676ZM155.103 30V15.72H157.959V17.82H158.127C158.444 17.092 158.986 16.4947 159.751 16.028C160.535 15.5427 161.375 15.3 162.271 15.3C162.663 15.3 162.99 15.328 163.251 15.384C163.531 15.44 163.783 15.5053 164.007 15.58V18.716C163.652 18.5667 163.288 18.4453 162.915 18.352C162.56 18.2587 162.187 18.212 161.795 18.212C161.086 18.212 160.451 18.408 159.891 18.8C159.35 19.1733 158.92 19.6867 158.603 20.34C158.286 20.9747 158.127 21.6747 158.127 22.44V30H155.103ZM168.377 13.62C167.817 13.62 167.332 13.424 166.921 13.032C166.529 12.6213 166.333 12.136 166.333 11.576C166.333 11.016 166.529 10.54 166.921 10.148C167.332 9.756 167.817 9.56 168.377 9.56C168.937 9.56 169.413 9.756 169.805 10.148C170.216 10.54 170.421 11.016 170.421 11.576C170.421 12.136 170.216 12.6213 169.805 13.032C169.413 13.424 168.937 13.62 168.377 13.62ZM166.865 30V15.72H169.889V30H166.865ZM175.317 25.856V18.352H172.825V15.72H175.317V11.688H178.341V15.72H181.841V18.352H178.341V25.212C178.341 25.9213 178.481 26.4627 178.761 26.836C179.059 27.2093 179.554 27.396 180.245 27.396C180.599 27.396 180.898 27.3493 181.141 27.256C181.402 27.1627 181.663 27.032 181.925 26.864V29.804C181.607 29.9347 181.271 30.0373 180.917 30.112C180.562 30.1867 180.142 30.224 179.657 30.224C178.331 30.224 177.277 29.8413 176.493 29.076C175.709 28.292 175.317 27.2187 175.317 25.856ZM189.519 30L183.611 15.72H186.971L190.975 26.108H191.115L195.203 15.72H198.507L192.543 30H189.519ZM202.5 13.62C201.94 13.62 201.455 13.424 201.044 13.032C200.652 12.6213 200.456 12.136 200.456 11.576C200.456 11.016 200.652 10.54 201.044 10.148C201.455 9.756 201.94 9.56 202.5 9.56C203.06 9.56 203.536 9.756 203.928 10.148C204.339 10.54 204.544 11.016 204.544 11.576C204.544 12.136 204.339 12.6213 203.928 13.032C203.536 13.424 203.06 13.62 202.5 13.62ZM200.988 30V15.72H204.012V30H200.988Z" fill="#3C4043"/>
<g id="GPay Logo (Light)">
<g id="GPay">
<g id="Pay">
<path id="Fill 1" fill-rule="evenodd" clip-rule="evenodd" d="M256.529 9.44664V17.6128H261.565C262.765 17.6128 263.757 17.2096 264.541 16.4032C265.347 15.5988 265.75 14.6394 265.75 13.5288C265.75 12.4406 265.347 11.4924 264.541 10.686C263.757 9.85915 262.765 9.44478 261.565 9.44478H256.529V9.44664ZM256.529 20.4872V29.9599H253.521V6.57217H261.499C263.527 6.57217 265.248 7.24786 266.666 8.59737C268.105 9.94688 268.824 11.5913 268.824 13.5288C268.824 15.511 268.105 17.1667 266.666 18.4938C265.27 19.8227 263.547 20.4854 261.499 20.4854H256.529V20.4872Z" fill="#5F6368"/>
<path id="Fill 3" fill-rule="evenodd" clip-rule="evenodd" d="M271.864 25.0602C271.864 25.8442 272.197 26.4975 272.862 27.0201C273.527 27.5427 274.306 27.804 275.2 27.804C276.465 27.804 277.591 27.3354 278.584 26.4004C279.576 25.4634 280.071 24.364 280.071 23.1022C279.133 22.3612 277.825 21.9916 276.147 21.9916C274.925 21.9916 273.907 22.2865 273.09 22.8745C272.273 23.4623 271.864 24.1886 271.864 25.0602ZM275.756 13.4317C277.98 13.4317 279.735 14.0252 281.022 15.2124C282.308 16.3995 282.95 18.0271 282.95 20.0952V29.9599H280.073V27.7387H279.942C278.699 29.5677 277.042 30.4825 274.972 30.4825C273.206 30.4825 271.728 29.9599 270.541 28.9146C269.353 27.8694 268.759 26.5628 268.759 24.9949C268.759 23.3393 269.385 22.0232 270.638 21.0434C271.892 20.0635 273.565 19.5726 275.658 19.5726C277.444 19.5726 278.916 19.8992 280.071 20.5525V19.8656C280.071 18.8204 279.656 17.9338 278.829 17.204C277.999 16.4741 277.031 16.1102 275.919 16.1102C274.239 16.1102 272.911 16.8176 271.93 18.2343L269.28 16.5675C270.741 14.4769 272.899 13.4317 275.756 13.4317Z" fill="#5F6368"/>
<path id="Fill 5" fill-rule="evenodd" clip-rule="evenodd" d="M299.463 13.9543L289.424 37.0154H286.318L290.046 28.9464L283.44 13.9543H286.71L291.484 25.4522H291.55L296.193 13.9543H299.463Z" fill="#5F6368"/>
</g>
<g id="G">
<path id="Fill 8" fill-rule="evenodd" clip-rule="evenodd" d="M244.373 18.4452C244.373 17.4989 244.293 16.5861 244.141 15.7126H231.454V20.8885H238.72C238.408 22.5757 237.465 24.0112 236.033 24.9725V28.3341H240.37C242.91 25.9935 244.373 22.5348 244.373 18.4452Z" fill="#4285F4"/>
<path id="Fill 10" fill-rule="evenodd" clip-rule="evenodd" d="M231.454 31.5782C235.084 31.5782 238.141 30.3873 240.37 28.3341L236.033 24.9725C234.826 25.7844 233.272 26.2585 231.454 26.2585C227.944 26.2585 224.966 23.8955 223.901 20.7112H219.433V24.1736C221.647 28.5637 226.197 31.5782 231.454 31.5782Z" fill="#34A853"/>
<path id="Fill 12" fill-rule="evenodd" clip-rule="evenodd" d="M223.901 20.7111C223.628 19.8992 223.479 19.0331 223.479 18.139C223.479 17.245 223.628 16.3789 223.901 15.567V12.1045H219.433C218.518 13.9188 218 15.9683 218 18.139C218 20.3098 218.518 22.3595 219.433 24.1736L223.901 20.7111Z" fill="#FABB05"/>
<path id="Fill 14" fill-rule="evenodd" clip-rule="evenodd" d="M231.454 10.0196C233.436 10.0196 235.213 10.7009 236.615 12.0355V12.0374L240.455 8.20162C238.123 6.03271 235.082 4.7 231.454 4.7C226.197 4.7 221.647 7.71446 219.433 12.1046L223.901 15.567C224.966 12.3827 227.944 10.0196 231.454 10.0196Z" fill="#E94235"/>
</g>
</g>
</g>
</g>
</svg>
