<svg width="96" height="21" viewBox="0 0 96 21" fill="none" xmlns="http://www.w3.org/2000/svg">
<g id="tr_add_to_Pay_NBG">
<g id="GPay (Dark)">
<g id="GPay">
<g id="Pay">
<path id="Fill 1" fill-rule="evenodd" clip-rule="evenodd" d="M22.3563 3.42339V8.16175H25.2784C25.9745 8.16175 26.5501 7.92781 27.0055 7.45993C27.4728 6.99313 27.707 6.43644 27.707 5.79203C27.707 5.16061 27.4728 4.61041 27.0055 4.14254C26.5501 3.66274 25.9745 3.4223 25.2784 3.4223H22.3563V3.42339ZM22.3563 9.82966V15.3262H20.6107V1.75549H25.2404C26.4169 1.75549 27.4154 2.14756 28.2383 2.93061C29.0732 3.71365 29.4906 4.66782 29.4906 5.79203C29.4906 6.94224 29.0731 7.90291 28.2383 8.67296C27.4283 9.44409 26.4287 9.82858 25.2404 9.82858H22.3563V9.82966Z" fill="white"/>
<path id="Fill 3" fill-rule="evenodd" clip-rule="evenodd" d="M31.2546 12.4831C31.2546 12.9379 31.4476 13.317 31.8337 13.6203C32.2195 13.9235 32.6717 14.0752 33.19 14.0752C33.9239 14.0752 34.5777 13.8032 35.1535 13.2607C35.7293 12.717 36.0165 12.0791 36.0165 11.3469C35.4722 10.917 34.7133 10.7025 33.7396 10.7025C33.0306 10.7025 32.4397 10.8736 31.9659 11.2148C31.492 11.5559 31.2546 11.9773 31.2546 12.4831M33.513 5.73566C34.8033 5.73566 35.8214 6.08007 36.5685 6.76889C37.3145 7.45771 37.6873 8.40213 37.6873 9.60216V15.3261H36.0177V14.0373H35.9417C35.2207 15.0985 34.259 15.6294 33.0578 15.6294C32.0332 15.6294 31.1755 15.3261 30.4869 14.7196C29.7975 14.1131 29.4527 13.3549 29.4527 12.4452C29.4527 11.4845 29.8158 10.7208 30.5433 10.1523C31.2708 9.58375 32.2413 9.2989 33.4557 9.2989C34.4921 9.2989 35.3465 9.48844 36.0165 9.86751V9.46894C36.0165 8.86243 35.7758 8.34798 35.2956 7.92451C34.8141 7.50103 34.2525 7.28984 33.6074 7.28984C32.6326 7.28984 31.8618 7.70032 31.2926 8.52235L29.7551 7.55519C30.6029 6.34217 31.8552 5.73566 33.513 5.73566" fill="white"/>
<path id="Fill 5" fill-rule="evenodd" clip-rule="evenodd" d="M47.2687 6.03894L41.4432 19.4201H39.6411L41.8043 14.738L37.9714 6.03894H39.8688L42.639 12.7106H42.677L45.3713 6.03894H47.2687Z" fill="white"/>
</g>
<g id="G">
<path id="Fill 8" fill-rule="evenodd" clip-rule="evenodd" d="M15.3029 8.64473C15.3029 8.09563 15.2562 7.56601 15.1684 7.05914H7.80648V10.0625H12.0231C11.842 11.0414 11.2945 11.8744 10.4639 12.4322V14.3828H12.9804C14.4539 13.0246 15.3029 11.0177 15.3029 8.64473" fill="#4285F4"/>
<path id="Fill 10" fill-rule="evenodd" clip-rule="evenodd" d="M7.80646 16.2651C9.91313 16.2651 11.6869 15.5741 12.9804 14.3828L10.4639 12.4322C9.7635 12.9033 8.86142 13.1784 7.80646 13.1784C5.77028 13.1784 4.04201 11.8073 3.424 9.95959H0.831596V11.9687C2.11641 14.516 4.75652 16.2651 7.80646 16.2651" fill="#34A853"/>
<path id="Fill 12" fill-rule="evenodd" clip-rule="evenodd" d="M3.42401 9.9596C3.26571 9.48847 3.17897 8.98593 3.17897 8.46715C3.17897 7.94837 3.26571 7.44583 3.42401 6.9747V4.96564H0.831606C0.300332 6.01837 0 7.20756 0 8.46715C0 9.72674 0.300332 10.916 0.831606 11.9687L3.42401 9.9596Z" fill="#FABB05"/>
<path id="Fill 14" fill-rule="evenodd" clip-rule="evenodd" d="M7.80646 3.75583C8.95683 3.75583 9.98794 4.15115 10.8011 4.92553V4.92661L13.0292 2.70094C11.6761 1.44243 9.91204 0.669128 7.80646 0.669128C4.75652 0.669128 2.11641 2.41826 0.831596 4.9656L3.424 6.97467C4.04201 5.12698 5.77028 3.75583 7.80646 3.75583" fill="#E94235"/>
</g>
</g>
</g>
<path id="Right Text" d="M48.466 7.11261V3.54461H50.034V7.11261H48.466ZM55.7704 15.2566C54.9704 15.2566 54.2557 15.0699 53.6264 14.6966C52.997 14.3233 52.501 13.8113 52.1384 13.1606C51.7864 12.5099 51.6104 11.7686 51.6104 10.9366C51.6104 10.1579 51.781 9.43794 52.1224 8.77661C52.4637 8.11528 52.9384 7.58728 53.5464 7.19261C54.165 6.78728 54.8744 6.58461 55.6744 6.58461C56.517 6.58461 57.2317 6.76594 57.8184 7.12861C58.4157 7.49128 58.869 7.98728 59.1784 8.61661C59.4877 9.24594 59.6424 9.95528 59.6424 10.7446C59.6424 10.8619 59.637 10.9686 59.6264 11.0646C59.6264 11.1606 59.621 11.2353 59.6104 11.2886H53.3064C53.349 11.7366 53.461 12.1259 53.6424 12.4566C53.877 12.8726 54.1864 13.1873 54.5704 13.4006C54.9544 13.6139 55.3704 13.7206 55.8184 13.7206C56.3624 13.7206 56.8157 13.5979 57.1784 13.3526C57.5517 13.0966 57.845 12.7819 58.0584 12.4086L59.4824 13.0966C59.1304 13.7366 58.6504 14.2593 58.0424 14.6646C57.4344 15.0593 56.677 15.2566 55.7704 15.2566ZM53.4024 9.99261H57.9304C57.9197 9.78994 57.8664 9.57661 57.7704 9.35261C57.6744 9.11794 57.5357 8.90461 57.3544 8.71261C57.173 8.52061 56.9437 8.36594 56.6664 8.24861C56.389 8.12061 56.0637 8.05661 55.6904 8.05661C55.221 8.05661 54.805 8.17928 54.4424 8.42461C54.0797 8.65928 53.797 8.98994 53.5944 9.41661C53.509 9.59794 53.445 9.78994 53.4024 9.99261ZM69.0079 15.2566C68.2079 15.2566 67.4932 15.0699 66.8639 14.6966C66.2345 14.3233 65.7385 13.8113 65.3759 13.1606C65.0239 12.5099 64.8479 11.7686 64.8479 10.9366C64.8479 10.1579 65.0185 9.43794 65.3599 8.77661C65.7012 8.11528 66.1759 7.58728 66.7839 7.19261C67.4025 6.78728 68.1119 6.58461 68.9119 6.58461C69.7545 6.58461 70.4692 6.76594 71.0559 7.12861C71.6532 7.49128 72.1065 7.98728 72.4159 8.61661C72.7252 9.24594 72.8799 9.95528 72.8799 10.7446C72.8799 10.8619 72.8745 10.9686 72.8639 11.0646C72.8639 11.1606 72.8585 11.2353 72.8479 11.2886H66.5439C66.5865 11.7366 66.6985 12.1259 66.8799 12.4566C67.1145 12.8726 67.4239 13.1873 67.8079 13.4006C68.1919 13.6139 68.6079 13.7206 69.0559 13.7206C69.5999 13.7206 70.0532 13.5979 70.4159 13.3526C70.7892 13.0966 71.0825 12.7819 71.2959 12.4086L72.7199 13.0966C72.3679 13.7366 71.8879 14.2593 71.2799 14.6646C70.6719 15.0593 69.9145 15.2566 69.0079 15.2566ZM66.6399 9.99261H71.1679C71.1572 9.78994 71.1039 9.57661 71.0079 9.35261C70.9119 9.11794 70.7732 8.90461 70.5919 8.71261C70.4105 8.52061 70.1812 8.36594 69.9039 8.24861C69.6265 8.12061 69.3012 8.05661 68.9279 8.05661C68.4585 8.05661 68.0425 8.17928 67.6799 8.42461C67.3172 8.65928 67.0345 8.98994 66.8319 9.41661C66.7465 9.59794 66.6825 9.78994 66.6399 9.99261ZM74.633 15.0006V3.54461H76.361V10.2966L79.817 6.84061H81.961V6.93661L78.809 10.0566L82.073 14.9046V15.0006H80.025L77.593 11.2566L76.361 12.4726V15.0006H74.633ZM83.3146 15.0006V3.54461H85.0426V15.0006H83.3146ZM90.8797 15.2566C90.0797 15.2566 89.3651 15.0699 88.7357 14.6966C88.1064 14.3233 87.6104 13.8113 87.2477 13.1606C86.8957 12.5099 86.7197 11.7686 86.7197 10.9366C86.7197 10.1579 86.8904 9.43794 87.2317 8.77661C87.5731 8.11528 88.0477 7.58728 88.6557 7.19261C89.2744 6.78728 89.9837 6.58461 90.7837 6.58461C91.6264 6.58461 92.3411 6.76594 92.9277 7.12861C93.5251 7.49128 93.9784 7.98728 94.2877 8.61661C94.5971 9.24594 94.7517 9.95528 94.7517 10.7446C94.7517 10.8619 94.7464 10.9686 94.7357 11.0646C94.7357 11.1606 94.7304 11.2353 94.7197 11.2886H88.4157C88.4584 11.7366 88.5704 12.1259 88.7517 12.4566C88.9864 12.8726 89.2957 13.1873 89.6797 13.4006C90.0637 13.6139 90.4797 13.7206 90.9277 13.7206C91.4717 13.7206 91.9251 13.5979 92.2877 13.3526C92.6611 13.0966 92.9544 12.7819 93.1677 12.4086L94.5917 13.0966C94.2397 13.7366 93.7597 14.2593 93.1517 14.6646C92.5437 15.0593 91.7864 15.2566 90.8797 15.2566ZM88.5117 9.99261H93.0397C93.0291 9.78994 92.9757 9.57661 92.8797 9.35261C92.7837 9.11794 92.6451 8.90461 92.4637 8.71261C92.2824 8.52061 92.0531 8.36594 91.7757 8.24861C91.4984 8.12061 91.1731 8.05661 90.7997 8.05661C90.3304 8.05661 89.9144 8.17928 89.5517 8.42461C89.1891 8.65928 88.9064 8.98994 88.7037 9.41661C88.6184 9.59794 88.5544 9.78994 88.5117 9.99261Z" fill="white"/>
</g>
</svg>
