<svg width="194" height="21" viewBox="0 0 194 21" fill="none" xmlns="http://www.w3.org/2000/svg">
<g id="tr_book_with_Pay_NBG">
<g id="GPay (Dark)">
<g id="GPay">
<g id="Pay">
<path id="Fill 1" fill-rule="evenodd" clip-rule="evenodd" d="M22.3563 3.42339V8.16175H25.2784C25.9745 8.16175 26.5501 7.92781 27.0055 7.45993C27.4728 6.99313 27.707 6.43644 27.707 5.79203C27.707 5.16061 27.4728 4.61041 27.0055 4.14254C26.5501 3.66274 25.9745 3.4223 25.2784 3.4223H22.3563V3.42339ZM22.3563 9.82966V15.3262H20.6107V1.75549H25.2404C26.4169 1.75549 27.4154 2.14756 28.2383 2.93061C29.0732 3.71365 29.4906 4.66782 29.4906 5.79203C29.4906 6.94224 29.0731 7.90291 28.2383 8.67296C27.4283 9.44409 26.4287 9.82858 25.2404 9.82858H22.3563V9.82966Z" fill="white"/>
<path id="Fill 3" fill-rule="evenodd" clip-rule="evenodd" d="M31.2546 12.4831C31.2546 12.9379 31.4476 13.317 31.8337 13.6203C32.2195 13.9235 32.6717 14.0752 33.19 14.0752C33.9239 14.0752 34.5777 13.8032 35.1535 13.2607C35.7293 12.717 36.0165 12.0791 36.0165 11.3469C35.4722 10.917 34.7133 10.7025 33.7396 10.7025C33.0306 10.7025 32.4397 10.8736 31.9659 11.2148C31.492 11.5559 31.2546 11.9773 31.2546 12.4831M33.513 5.73566C34.8033 5.73566 35.8214 6.08007 36.5685 6.76889C37.3145 7.45771 37.6873 8.40213 37.6873 9.60216V15.3261H36.0177V14.0373H35.9417C35.2207 15.0985 34.259 15.6294 33.0578 15.6294C32.0332 15.6294 31.1755 15.3261 30.4869 14.7196C29.7975 14.1131 29.4527 13.3549 29.4527 12.4452C29.4527 11.4845 29.8158 10.7208 30.5433 10.1523C31.2708 9.58375 32.2413 9.2989 33.4557 9.2989C34.4921 9.2989 35.3465 9.48844 36.0165 9.86751V9.46894C36.0165 8.86243 35.7758 8.34798 35.2956 7.92451C34.8141 7.50103 34.2525 7.28984 33.6074 7.28984C32.6326 7.28984 31.8618 7.70032 31.2926 8.52235L29.7551 7.55519C30.6029 6.34217 31.8552 5.73566 33.513 5.73566" fill="white"/>
<path id="Fill 5" fill-rule="evenodd" clip-rule="evenodd" d="M47.2687 6.03894L41.4432 19.4201H39.6411L41.8043 14.738L37.9714 6.03894H39.8688L42.639 12.7106H42.677L45.3713 6.03894H47.2687Z" fill="white"/>
</g>
<g id="G">
<path id="Fill 8" fill-rule="evenodd" clip-rule="evenodd" d="M15.3029 8.64473C15.3029 8.09563 15.2562 7.56601 15.1684 7.05914H7.80648V10.0625H12.0231C11.842 11.0414 11.2945 11.8744 10.4639 12.4322V14.3828H12.9804C14.4539 13.0246 15.3029 11.0177 15.3029 8.64473" fill="#4285F4"/>
<path id="Fill 10" fill-rule="evenodd" clip-rule="evenodd" d="M7.80646 16.2651C9.91313 16.2651 11.6869 15.5741 12.9804 14.3828L10.4639 12.4322C9.7635 12.9033 8.86142 13.1784 7.80646 13.1784C5.77028 13.1784 4.04201 11.8073 3.424 9.95959H0.831596V11.9687C2.11641 14.516 4.75652 16.2651 7.80646 16.2651" fill="#34A853"/>
<path id="Fill 12" fill-rule="evenodd" clip-rule="evenodd" d="M3.42401 9.9596C3.26571 9.48847 3.17897 8.98593 3.17897 8.46715C3.17897 7.94837 3.26571 7.44583 3.42401 6.9747V4.96564H0.831606C0.300332 6.01837 0 7.20756 0 8.46715C0 9.72674 0.300332 10.916 0.831606 11.9687L3.42401 9.9596Z" fill="#FABB05"/>
<path id="Fill 14" fill-rule="evenodd" clip-rule="evenodd" d="M7.80646 3.75583C8.95683 3.75583 9.98794 4.15115 10.8011 4.92553V4.92661L13.0292 2.70094C11.6761 1.44243 9.91204 0.669128 7.80646 0.669128C4.75652 0.669128 2.11641 2.41826 0.831596 4.9656L3.424 6.97467C4.04201 5.12698 5.77028 3.75583 7.80646 3.75583" fill="#E94235"/>
</g>
</g>
</g>
<path id="Right Text" d="M48.786 15.0006V6.84061H50.514V15.0006H48.786ZM49.65 5.64061C49.33 5.64061 49.0527 5.52861 48.818 5.30461C48.594 5.06994 48.482 4.79261 48.482 4.47261C48.482 4.14194 48.594 3.86994 48.818 3.65661C49.0527 3.43261 49.33 3.32061 49.65 3.32061C49.9807 3.32061 50.258 3.43261 50.482 3.65661C50.706 3.86994 50.818 4.14194 50.818 4.47261C50.818 4.79261 50.706 5.06994 50.482 5.30461C50.258 5.52861 49.9807 5.64061 49.65 5.64061ZM52.824 15.0006V3.54461H54.552V15.0006H52.824ZM60.3891 15.2566C59.5891 15.2566 58.8745 15.0699 58.2451 14.6966C57.6158 14.3233 57.1198 13.8113 56.7571 13.1606C56.4051 12.5099 56.2291 11.7686 56.2291 10.9366C56.2291 10.1579 56.3998 9.43794 56.7411 8.77661C57.0825 8.11528 57.5571 7.58728 58.1651 7.19261C58.7838 6.78728 59.4931 6.58461 60.2931 6.58461C61.1358 6.58461 61.8505 6.76594 62.4371 7.12861C63.0345 7.49128 63.4878 7.98728 63.7971 8.61661C64.1065 9.24594 64.2611 9.95528 64.2611 10.7446C64.2611 10.8619 64.2558 10.9686 64.2451 11.0646C64.2451 11.1606 64.2398 11.2353 64.2291 11.2886H57.9251C57.9678 11.7366 58.0798 12.1259 58.2611 12.4566C58.4958 12.8726 58.8051 13.1873 59.1891 13.4006C59.5731 13.6139 59.9891 13.7206 60.4371 13.7206C60.9811 13.7206 61.4345 13.5979 61.7971 13.3526C62.1705 13.0966 62.4638 12.7819 62.6771 12.4086L64.1011 13.0966C63.7491 13.7366 63.2691 14.2593 62.6611 14.6646C62.0531 15.0593 61.2958 15.2566 60.3891 15.2566ZM58.0211 9.99261H62.5491C62.5385 9.78994 62.4851 9.57661 62.3891 9.35261C62.2931 9.11794 62.1545 8.90461 61.9731 8.71261C61.7918 8.52061 61.5625 8.36594 61.2851 8.24861C61.0078 8.12061 60.6825 8.05661 60.3091 8.05661C59.8398 8.05661 59.4238 8.17928 59.0611 8.42461C58.6985 8.65928 58.4158 8.98994 58.2131 9.41661C58.1278 9.59794 58.0638 9.78994 58.0211 9.99261ZM69.8986 15.0006V6.84061H71.5306V8.04061H71.6266C71.7546 7.76328 71.936 7.51794 72.1706 7.30461C72.416 7.09128 72.6933 6.92061 73.0026 6.79261C73.3226 6.66461 73.6533 6.60061 73.9946 6.60061C74.2186 6.60061 74.4053 6.61661 74.5546 6.64861C74.7146 6.66994 74.8586 6.70728 74.9866 6.76061V8.55261C74.784 8.46728 74.576 8.39794 74.3626 8.34461C74.16 8.29128 73.9466 8.26461 73.7226 8.26461C73.3173 8.26461 72.9546 8.37661 72.6346 8.60061C72.3253 8.81394 72.08 9.10194 71.8986 9.46461C71.7173 9.82728 71.6266 10.2326 71.6266 10.6806V15.0006H69.8986ZM79.7141 15.2566C78.9141 15.2566 78.1995 15.0699 77.5701 14.6966C76.9408 14.3233 76.4448 13.8113 76.0821 13.1606C75.7301 12.5099 75.5541 11.7686 75.5541 10.9366C75.5541 10.1579 75.7248 9.43794 76.0661 8.77661C76.4075 8.11528 76.8821 7.58728 77.4901 7.19261C78.1088 6.78728 78.8181 6.58461 79.6181 6.58461C80.4608 6.58461 81.1755 6.76594 81.7621 7.12861C82.3595 7.49128 82.8128 7.98728 83.1221 8.61661C83.4315 9.24594 83.5861 9.95528 83.5861 10.7446C83.5861 10.8619 83.5808 10.9686 83.5701 11.0646C83.5701 11.1606 83.5648 11.2353 83.5541 11.2886H77.2501C77.2928 11.7366 77.4048 12.1259 77.5861 12.4566C77.8208 12.8726 78.1301 13.1873 78.5141 13.4006C78.8981 13.6139 79.3141 13.7206 79.7621 13.7206C80.3061 13.7206 80.7595 13.5979 81.1221 13.3526C81.4955 13.0966 81.7888 12.7819 82.0021 12.4086L83.4261 13.0966C83.0741 13.7366 82.5941 14.2593 81.9861 14.6646C81.3781 15.0593 80.6208 15.2566 79.7141 15.2566ZM77.3461 9.99261H81.8741C81.8635 9.78994 81.8101 9.57661 81.7141 9.35261C81.6181 9.11794 81.4795 8.90461 81.2981 8.71261C81.1168 8.52061 80.8875 8.36594 80.6101 8.24861C80.3328 8.12061 80.0075 8.05661 79.6341 8.05661C79.1648 8.05661 78.7488 8.17928 78.3861 8.42461C78.0235 8.65928 77.7408 8.98994 77.5381 9.41661C77.4528 9.59794 77.3888 9.78994 77.3461 9.99261ZM84.8451 15.0006V13.5606L89.3891 8.34461H84.9891V6.84061H91.5011V8.28061L86.9731 13.4966H91.6291V15.0006H84.8451ZM96.9672 15.2566C96.1672 15.2566 95.4526 15.0699 94.8232 14.6966C94.1939 14.3233 93.6979 13.8113 93.3352 13.1606C92.9832 12.5099 92.8072 11.7686 92.8072 10.9366C92.8072 10.1579 92.9779 9.43794 93.3192 8.77661C93.6606 8.11528 94.1352 7.58728 94.7432 7.19261C95.3619 6.78728 96.0712 6.58461 96.8712 6.58461C97.7139 6.58461 98.4286 6.76594 99.0152 7.12861C99.6126 7.49128 100.066 7.98728 100.375 8.61661C100.685 9.24594 100.839 9.95528 100.839 10.7446C100.839 10.8619 100.834 10.9686 100.823 11.0646C100.823 11.1606 100.818 11.2353 100.807 11.2886H94.5032C94.5459 11.7366 94.6579 12.1259 94.8392 12.4566C95.0739 12.8726 95.3832 13.1873 95.7672 13.4006C96.1512 13.6139 96.5672 13.7206 97.0152 13.7206C97.5592 13.7206 98.0126 13.5979 98.3752 13.3526C98.7486 13.0966 99.0419 12.7819 99.2552 12.4086L100.679 13.0966C100.327 13.7366 99.8472 14.2593 99.2392 14.6646C98.6312 15.0593 97.8739 15.2566 96.9672 15.2566ZM94.5992 9.99261H99.1272C99.1166 9.78994 99.0632 9.57661 98.9672 9.35261C98.8712 9.11794 98.7326 8.90461 98.5512 8.71261C98.3699 8.52061 98.1406 8.36594 97.8632 8.24861C97.5859 8.12061 97.2606 8.05661 96.8872 8.05661C96.4179 8.05661 96.0019 8.17928 95.6392 8.42461C95.2766 8.65928 94.9939 8.98994 94.7912 9.41661C94.7059 9.59794 94.6419 9.78994 94.5992 9.99261ZM102.592 15.0006V6.84061H104.224V8.04061H104.32C104.448 7.76328 104.63 7.51794 104.864 7.30461C105.11 7.09128 105.387 6.92061 105.696 6.79261C106.016 6.66461 106.347 6.60061 106.688 6.60061C106.912 6.60061 107.099 6.61661 107.248 6.64861C107.408 6.66994 107.552 6.70728 107.68 6.76061V8.55261C107.478 8.46728 107.27 8.39794 107.056 8.34461C106.854 8.29128 106.64 8.26461 106.416 8.26461C106.011 8.26461 105.648 8.37661 105.328 8.60061C105.019 8.81394 104.774 9.10194 104.592 9.46461C104.411 9.82728 104.32 10.2326 104.32 10.6806V15.0006H102.592ZM111.91 15.0006L108.534 6.84061H110.454L112.742 12.7766H112.822L115.158 6.84061H117.046L113.638 15.0006H111.91ZM120.718 15.2566C120.131 15.2566 119.609 15.1393 119.15 14.9046C118.702 14.6699 118.345 14.3499 118.078 13.9446C117.822 13.5286 117.694 13.0539 117.694 12.5206C117.694 11.9339 117.843 11.4379 118.142 11.0326C118.451 10.6273 118.862 10.3179 119.374 10.1046C119.886 9.89128 120.451 9.78461 121.07 9.78461C121.411 9.78461 121.726 9.81128 122.014 9.86461C122.313 9.90728 122.569 9.96061 122.782 10.0246C123.006 10.0886 123.182 10.1579 123.31 10.2326V9.80061C123.31 9.26728 123.118 8.84061 122.734 8.52061C122.35 8.20061 121.854 8.04061 121.246 8.04061C120.83 8.04061 120.435 8.13661 120.062 8.32861C119.689 8.50994 119.39 8.76061 119.166 9.08061L117.982 8.16861C118.217 7.83794 118.499 7.55528 118.83 7.32061C119.171 7.08594 119.55 6.90461 119.966 6.77661C120.393 6.64861 120.835 6.58461 121.294 6.58461C122.478 6.58461 123.39 6.87794 124.03 7.46461C124.67 8.04061 124.99 8.85128 124.99 9.89661V15.0006H123.31V13.9926H123.214C123.075 14.2059 122.883 14.4086 122.638 14.6006C122.403 14.7926 122.121 14.9473 121.79 15.0646C121.47 15.1926 121.113 15.2566 120.718 15.2566ZM121.022 13.8486C121.47 13.8486 121.865 13.7419 122.206 13.5286C122.558 13.3153 122.83 13.0379 123.022 12.6966C123.214 12.3446 123.31 11.9659 123.31 11.5606C123.075 11.4219 122.787 11.3099 122.446 11.2246C122.115 11.1286 121.763 11.0806 121.39 11.0806C120.686 11.0806 120.185 11.2193 119.886 11.4966C119.587 11.7739 119.438 12.1206 119.438 12.5366C119.438 12.9206 119.582 13.2353 119.87 13.4806C120.158 13.7259 120.542 13.8486 121.022 13.8486ZM129.94 15.2566C129.29 15.2566 128.724 15.1606 128.244 14.9686C127.764 14.7659 127.37 14.4993 127.06 14.1686C126.751 13.8273 126.522 13.4593 126.372 13.0646L127.924 12.3926C128.116 12.8299 128.388 13.1659 128.74 13.4006C129.103 13.6246 129.519 13.7366 129.988 13.7366C130.415 13.7366 130.783 13.6619 131.092 13.5126C131.402 13.3526 131.556 13.0966 131.556 12.7446C131.556 12.5206 131.482 12.3393 131.332 12.2006C131.194 12.0513 131.002 11.9286 130.756 11.8326C130.522 11.7366 130.25 11.6513 129.94 11.5766L128.964 11.3526C128.58 11.2566 128.212 11.1073 127.86 10.9046C127.519 10.6913 127.242 10.4246 127.028 10.1046C126.815 9.78461 126.708 9.40594 126.708 8.96861C126.708 8.47794 126.847 8.05661 127.124 7.70461C127.412 7.34194 127.796 7.06461 128.276 6.87261C128.756 6.68061 129.274 6.58461 129.828 6.58461C130.34 6.58461 130.804 6.65394 131.22 6.79261C131.647 6.92061 132.015 7.11794 132.324 7.38461C132.644 7.64061 132.895 7.96061 133.076 8.34461L131.588 9.01661C131.407 8.65394 131.162 8.40328 130.852 8.26461C130.543 8.11528 130.207 8.04061 129.844 8.04061C129.439 8.04061 129.098 8.12594 128.82 8.29661C128.554 8.45661 128.42 8.66994 128.42 8.93661C128.42 9.21394 128.538 9.43261 128.772 9.59261C129.018 9.75261 129.316 9.88061 129.668 9.97661L130.852 10.2646C131.663 10.4673 132.271 10.7766 132.676 11.1926C133.082 11.5979 133.284 12.0939 133.284 12.6806C133.284 13.2033 133.135 13.6619 132.836 14.0566C132.538 14.4406 132.132 14.7393 131.62 14.9526C131.119 15.1553 130.559 15.2566 129.94 15.2566ZM137.726 18.0566C137.694 18.1313 137.657 18.2059 137.614 18.2806C137.582 18.3659 137.561 18.4246 137.55 18.4566H135.71C135.764 18.3393 135.838 18.1739 135.934 17.9606C136.041 17.7473 136.142 17.5339 136.238 17.3206C136.302 17.1819 136.366 17.0326 136.43 16.8726C136.505 16.7126 136.58 16.5473 136.654 16.3766C136.74 16.2059 136.82 16.0406 136.894 15.8806L137.502 14.5526L134.094 6.84061H136.014L138.35 12.4086H138.43L140.686 6.84061H142.59L138.366 16.5686C138.292 16.7499 138.206 16.9419 138.11 17.1446C138.025 17.3473 137.945 17.5286 137.87 17.6886C137.806 17.8593 137.758 17.9819 137.726 18.0566ZM147.417 15.2566C146.574 15.2566 145.833 15.0646 145.193 14.6806C144.553 14.2966 144.051 13.7793 143.689 13.1286C143.326 12.4673 143.145 11.7313 143.145 10.9206C143.145 10.1099 143.326 9.37928 143.689 8.72861C144.051 8.06728 144.553 7.54461 145.193 7.16061C145.833 6.77661 146.574 6.58461 147.417 6.58461C148.249 6.58461 148.985 6.78194 149.625 7.17661C150.265 7.56061 150.766 8.07794 151.129 8.72861C151.491 9.37928 151.673 10.1099 151.673 10.9206C151.673 11.7313 151.491 12.4673 151.129 13.1286C150.766 13.7793 150.265 14.2966 149.625 14.6806C148.985 15.0646 148.249 15.2566 147.417 15.2566ZM147.417 13.6726C147.865 13.6726 148.281 13.5659 148.665 13.3526C149.049 13.1286 149.358 12.8139 149.593 12.4086C149.838 11.9926 149.961 11.4966 149.961 10.9206C149.961 10.3446 149.838 9.85394 149.593 9.44861C149.358 9.03261 149.049 8.71794 148.665 8.50461C148.281 8.28061 147.865 8.16861 147.417 8.16861C146.969 8.16861 146.547 8.28061 146.153 8.50461C145.769 8.71794 145.454 9.03261 145.209 9.44861C144.974 9.85394 144.857 10.3446 144.857 10.9206C144.857 11.4966 144.974 11.9926 145.209 12.4086C145.454 12.8139 145.774 13.1286 146.169 13.3526C146.563 13.5659 146.979 13.6726 147.417 13.6726ZM153.258 15.0006V6.84061H154.89V7.96061H154.986C155.221 7.56594 155.567 7.24061 156.026 6.98461C156.495 6.71794 157.007 6.58461 157.562 6.58461C158.565 6.58461 159.317 6.88328 159.818 7.48061C160.319 8.06728 160.57 8.85661 160.57 9.84861V15.0006H158.858V10.0726C158.858 9.41128 158.693 8.93128 158.362 8.63261C158.031 8.32328 157.599 8.16861 157.066 8.16861C156.65 8.16861 156.287 8.28594 155.978 8.52061C155.669 8.74461 155.423 9.04328 155.242 9.41661C155.071 9.78994 154.986 10.1899 154.986 10.6166V15.0006H153.258ZM169.358 18.0566C169.326 18.1313 169.288 18.2059 169.246 18.2806C169.214 18.3659 169.192 18.4246 169.182 18.4566H167.342C167.395 18.3393 167.47 18.1739 167.566 17.9606C167.672 17.7473 167.774 17.5339 167.87 17.3206C167.934 17.1819 167.998 17.0326 168.062 16.8726C168.136 16.7126 168.211 16.5473 168.286 16.3766C168.371 16.2059 168.451 16.0406 168.526 15.8806L169.134 14.5526L165.726 6.84061H167.646L169.982 12.4086H170.062L172.318 6.84061H174.222L169.998 16.5686C169.923 16.7499 169.838 16.9419 169.742 17.1446C169.656 17.3473 169.576 17.5286 169.502 17.6886C169.438 17.8593 169.39 17.9819 169.358 18.0566ZM177.674 15.2566C177.088 15.2566 176.565 15.1393 176.106 14.9046C175.658 14.6699 175.301 14.3499 175.034 13.9446C174.778 13.5286 174.65 13.0539 174.65 12.5206C174.65 11.9339 174.8 11.4379 175.098 11.0326C175.408 10.6273 175.818 10.3179 176.33 10.1046C176.842 9.89128 177.408 9.78461 178.026 9.78461C178.368 9.78461 178.682 9.81128 178.97 9.86461C179.269 9.90728 179.525 9.96061 179.738 10.0246C179.962 10.0886 180.138 10.1579 180.266 10.2326V9.80061C180.266 9.26728 180.074 8.84061 179.69 8.52061C179.306 8.20061 178.81 8.04061 178.202 8.04061C177.786 8.04061 177.392 8.13661 177.018 8.32861C176.645 8.50994 176.346 8.76061 176.122 9.08061L174.938 8.16861C175.173 7.83794 175.456 7.55528 175.786 7.32061C176.128 7.08594 176.506 6.90461 176.922 6.77661C177.349 6.64861 177.792 6.58461 178.25 6.58461C179.434 6.58461 180.346 6.87794 180.986 7.46461C181.626 8.04061 181.946 8.85128 181.946 9.89661V15.0006H180.266V13.9926H180.17C180.032 14.2059 179.84 14.4086 179.594 14.6006C179.36 14.7926 179.077 14.9473 178.746 15.0646C178.426 15.1926 178.069 15.2566 177.674 15.2566ZM177.978 13.8486C178.426 13.8486 178.821 13.7419 179.162 13.5286C179.514 13.3153 179.786 13.0379 179.978 12.6966C180.17 12.3446 180.266 11.9659 180.266 11.5606C180.032 11.4219 179.744 11.3099 179.402 11.2246C179.072 11.1286 178.72 11.0806 178.346 11.0806C177.642 11.0806 177.141 11.2193 176.842 11.4966C176.544 11.7739 176.394 12.1206 176.394 12.5366C176.394 12.9206 176.538 13.2353 176.826 13.4806C177.114 13.7259 177.498 13.8486 177.978 13.8486ZM183.983 18.4566V6.84061H185.599V7.94461H185.695C185.844 7.70994 186.041 7.49128 186.287 7.28861C186.543 7.07528 186.841 6.90461 187.183 6.77661C187.524 6.64861 187.903 6.58461 188.319 6.58461C189.065 6.58461 189.732 6.77128 190.319 7.14461C190.905 7.51794 191.369 8.02994 191.711 8.68061C192.063 9.33128 192.239 10.0779 192.239 10.9206C192.239 11.7633 192.063 12.5099 191.711 13.1606C191.369 13.8113 190.905 14.3233 190.319 14.6966C189.732 15.0699 189.065 15.2566 188.319 15.2566C187.7 15.2566 187.161 15.1179 186.703 14.8406C186.244 14.5633 185.908 14.2539 185.695 13.9126H185.599L185.695 15.0486V18.4566H183.983ZM188.063 13.6726C188.489 13.6726 188.889 13.5606 189.263 13.3366C189.647 13.1126 189.951 12.7926 190.175 12.3766C190.409 11.9606 190.527 11.4753 190.527 10.9206C190.527 10.3553 190.409 9.86994 190.175 9.46461C189.951 9.04861 189.647 8.72861 189.263 8.50461C188.889 8.28061 188.489 8.16861 188.063 8.16861C187.636 8.16861 187.236 8.28061 186.863 8.50461C186.489 8.72861 186.185 9.04861 185.951 9.46461C185.716 9.86994 185.599 10.3553 185.599 10.9206C185.599 11.4859 185.716 11.9766 185.951 12.3926C186.185 12.7979 186.489 13.1126 186.863 13.3366C187.236 13.5606 187.636 13.6726 188.063 13.6726Z" fill="white"/>
</g>
</svg>
