<svg width="350" height="38" viewBox="0 0 350 38" fill="none" xmlns="http://www.w3.org/2000/svg">
<g id="tr_book_with_Light">
<g id="GPay Logo (Light)">
<g id="GPay">
<g id="Pay">
<path id="Fill 1" fill-rule="evenodd" clip-rule="evenodd" d="M38.5289 9.44664V17.6128H43.5649C44.7645 17.6128 45.7565 17.2096 46.5413 16.4032C47.3467 15.5988 47.7503 14.6394 47.7503 13.5288C47.7503 12.4406 47.3467 11.4924 46.5413 10.686C45.7565 9.85915 44.7645 9.44478 43.5649 9.44478H38.5289V9.44664ZM38.5289 20.4872V29.9599H35.5205V6.57217H43.4993C45.5269 6.57217 47.2478 7.24786 48.6659 8.59737C50.1049 9.94688 50.8241 11.5913 50.8241 13.5288C50.8241 15.511 50.1047 17.1667 48.6659 18.4938C47.2701 19.8227 45.5473 20.4854 43.4993 20.4854H38.5289V20.4872Z" fill="#5F6368"/>
<path id="Fill 3" fill-rule="evenodd" clip-rule="evenodd" d="M53.8642 25.0602C53.8642 25.8442 54.1968 26.4975 54.8622 27.0201C55.5272 27.5427 56.3064 27.804 57.1998 27.804C58.4646 27.804 59.5913 27.3354 60.5835 26.4004C61.5759 25.4634 62.0709 24.364 62.0709 23.1022C61.1329 22.3612 59.8249 21.9916 58.1469 21.9916C56.9251 21.9916 55.9067 22.2865 55.0901 22.8745C54.2734 23.4623 53.8642 24.1886 53.8642 25.0602ZM57.7564 13.4317C59.98 13.4317 61.7346 14.0252 63.0222 15.2124C64.3078 16.3995 64.9504 18.0271 64.9504 20.0952V29.9599H62.073V27.7387H61.942C60.6994 29.5677 59.042 30.4825 56.9718 30.4825C55.206 30.4825 53.7279 29.9599 52.5412 28.9146C51.353 27.8694 50.7588 26.5628 50.7588 24.9949C50.7588 23.3393 51.3846 22.0232 52.6384 21.0434C53.8922 20.0635 55.5648 19.5726 57.6576 19.5726C59.4437 19.5726 60.9162 19.8992 62.0709 20.5525V19.8656C62.0709 18.8204 61.6561 17.9338 60.8285 17.204C59.9987 16.4741 59.0308 16.1102 57.919 16.1102C56.2391 16.1102 54.9108 16.8176 53.9298 18.2343L51.2799 16.5675C52.7412 14.4769 54.8994 13.4317 57.7564 13.4317Z" fill="#5F6368"/>
<path id="Fill 5" fill-rule="evenodd" clip-rule="evenodd" d="M81.4629 13.9543L71.4233 37.0154H68.3175L72.0455 28.9464L65.4399 13.9543H68.7099L73.4841 25.4522H73.5495L78.1929 13.9543H81.4629Z" fill="#5F6368"/>
</g>
<g id="G">
<path id="Fill 8" fill-rule="evenodd" clip-rule="evenodd" d="M26.3729 18.4452C26.3729 17.4989 26.2926 16.5861 26.1412 15.7126H13.4536V20.8885H20.7205C20.4084 22.5757 19.4648 24.0112 18.0335 24.9725V28.3341H22.3704C24.9098 25.9935 26.3729 22.5348 26.3729 18.4452Z" fill="#4285F4"/>
<path id="Fill 10" fill-rule="evenodd" clip-rule="evenodd" d="M13.4536 31.5782C17.0843 31.5782 20.1412 30.3873 22.3704 28.3341L18.0335 24.9725C16.8264 25.7844 15.2717 26.2585 13.4536 26.2585C9.94445 26.2585 6.96594 23.8955 5.90086 20.7112H1.43311V24.1736C3.64736 28.5637 8.19733 31.5782 13.4536 31.5782Z" fill="#34A853"/>
<path id="Fill 12" fill-rule="evenodd" clip-rule="evenodd" d="M5.90095 20.7111C5.62814 19.8992 5.47865 19.0331 5.47865 18.139C5.47865 17.245 5.62814 16.3789 5.90095 15.567V12.1045H1.43319C0.517594 13.9188 0 15.9683 0 18.139C0 20.3098 0.517594 22.3595 1.43319 24.1736L5.90095 20.7111Z" fill="#FABB05"/>
<path id="Fill 14" fill-rule="evenodd" clip-rule="evenodd" d="M13.4536 10.0196C15.4362 10.0196 17.2132 10.7009 18.6146 12.0355V12.0374L22.4545 8.20162C20.1226 6.03271 17.0824 4.7 13.4536 4.7C8.19733 4.7 3.64736 7.71446 1.43311 12.1046L5.90086 15.567C6.96594 12.3827 9.94445 10.0196 13.4536 10.0196Z" fill="#E94235"/>
</g>
</g>
</g>
<path id="Text" d="M96.5 13.62C95.94 13.62 95.4547 13.424 95.044 13.032C94.652 12.6213 94.456 12.136 94.456 11.576C94.456 11.016 94.652 10.54 95.044 10.148C95.4547 9.756 95.94 9.56 96.5 9.56C97.06 9.56 97.536 9.756 97.928 10.148C98.3387 10.54 98.544 11.016 98.544 11.576C98.544 12.136 98.3387 12.6213 97.928 13.032C97.536 13.424 97.06 13.62 96.5 13.62ZM94.988 30V15.72H98.012V30H94.988ZM102.092 30V9.952H105.116V30H102.092ZM115.368 30.448C113.968 30.448 112.718 30.1213 111.616 29.468C110.515 28.8147 109.647 27.9187 109.012 26.78C108.396 25.6413 108.088 24.344 108.088 22.888C108.088 21.5253 108.387 20.2653 108.984 19.108C109.582 17.9507 110.412 17.0267 111.476 16.336C112.559 15.6267 113.8 15.272 115.2 15.272C116.675 15.272 117.926 15.5893 118.952 16.224C119.998 16.8587 120.791 17.7267 121.332 18.828C121.874 19.9293 122.144 21.1707 122.144 22.552C122.144 22.7573 122.135 22.944 122.116 23.112C122.116 23.28 122.107 23.4107 122.088 23.504H111.056C111.206 24.9227 111.7 25.9867 112.54 26.696C113.399 27.4053 114.37 27.76 115.452 27.76C116.423 27.76 117.226 27.5453 117.86 27.116C118.495 26.668 118.999 26.1173 119.372 25.464L121.864 26.668C121.248 27.788 120.408 28.7027 119.344 29.412C118.28 30.1027 116.955 30.448 115.368 30.448ZM115.228 17.848C114.22 17.848 113.362 18.156 112.652 18.772C111.943 19.388 111.467 20.2093 111.224 21.236H119.148C119.111 20.7507 118.952 20.2467 118.672 19.724C118.392 19.2013 117.963 18.7627 117.384 18.408C116.824 18.0347 116.106 17.848 115.228 17.848ZM132.085 30V15.72H134.941V17.82H135.109C135.426 17.092 135.968 16.4947 136.733 16.028C137.517 15.5427 138.357 15.3 139.253 15.3C139.645 15.3 139.972 15.328 140.233 15.384C140.513 15.44 140.765 15.5053 140.989 15.58V18.716C140.634 18.5667 140.27 18.4453 139.897 18.352C139.542 18.2587 139.169 18.212 138.777 18.212C138.068 18.212 137.433 18.408 136.873 18.8C136.332 19.1733 135.902 19.6867 135.585 20.34C135.268 20.9747 135.109 21.6747 135.109 22.44V30H132.085ZM149.3 30.448C147.9 30.448 146.649 30.1213 145.548 29.468C144.446 28.8147 143.578 27.9187 142.944 26.78C142.328 25.6413 142.02 24.344 142.02 22.888C142.02 21.5253 142.318 20.2653 142.916 19.108C143.513 17.9507 144.344 17.0267 145.408 16.336C146.49 15.6267 147.732 15.272 149.132 15.272C150.606 15.272 151.857 15.5893 152.884 16.224C153.929 16.8587 154.722 17.7267 155.264 18.828C155.805 19.9293 156.076 21.1707 156.076 22.552C156.076 22.7573 156.066 22.944 156.048 23.112C156.048 23.28 156.038 23.4107 156.02 23.504H144.988C145.137 24.9227 145.632 25.9867 146.472 26.696C147.33 27.4053 148.301 27.76 149.384 27.76C150.354 27.76 151.157 27.5453 151.792 27.116C152.426 26.668 152.93 26.1173 153.304 25.464L155.796 26.668C155.18 27.788 154.34 28.7027 153.276 29.412C152.212 30.1027 150.886 30.448 149.3 30.448ZM149.16 17.848C148.152 17.848 147.293 18.156 146.584 18.772C145.874 19.388 145.398 20.2093 145.156 21.236H153.08C153.042 20.7507 152.884 20.2467 152.604 19.724C152.324 19.2013 151.894 18.7627 151.316 18.408C150.756 18.0347 150.037 17.848 149.16 17.848ZM158.316 30V27.48L166.268 18.352H158.568V15.72H169.964V18.24L162.04 27.368H170.188V30H158.316ZM179.568 30.448C178.168 30.448 176.917 30.1213 175.816 29.468C174.714 28.8147 173.846 27.9187 173.212 26.78C172.596 25.6413 172.288 24.344 172.288 22.888C172.288 21.5253 172.586 20.2653 173.184 19.108C173.781 17.9507 174.612 17.0267 175.676 16.336C176.758 15.6267 178 15.272 179.4 15.272C180.874 15.272 182.125 15.5893 183.152 16.224C184.197 16.8587 184.99 17.7267 185.532 18.828C186.073 19.9293 186.344 21.1707 186.344 22.552C186.344 22.7573 186.334 22.944 186.316 23.112C186.316 23.28 186.306 23.4107 186.288 23.504H175.256C175.405 24.9227 175.9 25.9867 176.74 26.696C177.598 27.4053 178.569 27.76 179.652 27.76C180.622 27.76 181.425 27.5453 182.06 27.116C182.694 26.668 183.198 26.1173 183.572 25.464L186.064 26.668C185.448 27.788 184.608 28.7027 183.544 29.412C182.48 30.1027 181.154 30.448 179.568 30.448ZM179.428 17.848C178.42 17.848 177.561 18.156 176.852 18.772C176.142 19.388 175.666 20.2093 175.424 21.236H183.348C183.31 20.7507 183.152 20.2467 182.872 19.724C182.592 19.2013 182.162 18.7627 181.584 18.408C181.024 18.0347 180.305 17.848 179.428 17.848ZM189.449 30V15.72H192.305V17.82H192.473C192.79 17.092 193.332 16.4947 194.097 16.028C194.881 15.5427 195.721 15.3 196.617 15.3C197.009 15.3 197.336 15.328 197.597 15.384C197.877 15.44 198.129 15.5053 198.353 15.58V18.716C197.998 18.5667 197.634 18.4453 197.261 18.352C196.906 18.2587 196.533 18.212 196.141 18.212C195.432 18.212 194.797 18.408 194.237 18.8C193.696 19.1733 193.266 19.6867 192.949 20.34C192.632 20.9747 192.473 21.6747 192.473 22.44V30H189.449ZM205.792 30L199.884 15.72H203.244L207.248 26.108H207.388L211.476 15.72H214.78L208.816 30H205.792ZM221.244 30.448C220.217 30.448 219.303 30.252 218.5 29.86C217.697 29.4493 217.072 28.88 216.624 28.152C216.176 27.424 215.952 26.5933 215.952 25.66C215.952 24.652 216.213 23.7933 216.736 23.084C217.277 22.356 217.996 21.8053 218.892 21.432C219.788 21.0587 220.777 20.872 221.86 20.872C222.756 20.872 223.54 20.956 224.212 21.124C224.903 21.292 225.425 21.4693 225.78 21.656V20.9C225.78 19.9667 225.444 19.22 224.772 18.66C224.1 18.1 223.232 17.82 222.168 17.82C221.44 17.82 220.749 17.988 220.096 18.324C219.443 18.6413 218.92 19.08 218.528 19.64L216.456 18.044C217.072 17.1853 217.884 16.5133 218.892 16.028C219.919 15.524 221.039 15.272 222.252 15.272C224.324 15.272 225.92 15.7853 227.04 16.812C228.16 17.82 228.72 19.2387 228.72 21.068V30H225.78V28.236H225.612C225.239 28.8147 224.679 29.328 223.932 29.776C223.185 30.224 222.289 30.448 221.244 30.448ZM221.776 27.984C222.56 27.984 223.251 27.7973 223.848 27.424C224.445 27.0507 224.912 26.5653 225.248 25.968C225.603 25.352 225.78 24.6893 225.78 23.98C225.351 23.7373 224.847 23.5413 224.268 23.392C223.689 23.224 223.073 23.14 222.42 23.14C221.188 23.14 220.311 23.392 219.788 23.896C219.265 24.3813 219.004 24.9787 219.004 25.688C219.004 26.36 219.256 26.9107 219.76 27.34C220.264 27.7693 220.936 27.984 221.776 27.984ZM237.42 30.448C235.703 30.448 234.331 30.0747 233.304 29.328C232.278 28.5627 231.568 27.6573 231.176 26.612L233.892 25.436C234.228 26.2013 234.714 26.7893 235.348 27.2C235.983 27.592 236.702 27.788 237.504 27.788C238.251 27.788 238.895 27.6573 239.436 27.396C239.978 27.116 240.248 26.668 240.248 26.052C240.248 25.4547 239.978 25.016 239.436 24.736C238.895 24.456 238.223 24.2133 237.42 24.008L235.712 23.616C235.022 23.448 234.378 23.1867 233.78 22.832C233.183 22.4773 232.698 22.02 232.324 21.46C231.951 20.8813 231.764 20.2093 231.764 19.444C231.764 18.604 232.016 17.876 232.52 17.26C233.024 16.6253 233.687 16.14 234.508 15.804C235.348 15.4493 236.254 15.272 237.224 15.272C238.55 15.272 239.707 15.5333 240.696 16.056C241.704 16.56 242.442 17.3253 242.908 18.352L240.304 19.528C239.968 18.8933 239.53 18.4547 238.988 18.212C238.466 17.9507 237.887 17.82 237.252 17.82C236.543 17.82 235.946 17.9693 235.46 18.268C234.994 18.5667 234.76 18.94 234.76 19.388C234.76 19.8733 234.966 20.256 235.376 20.536C235.806 20.816 236.328 21.04 236.944 21.208L239.016 21.712C240.435 22.0667 241.499 22.608 242.208 23.336C242.918 24.0453 243.272 24.9133 243.272 25.94C243.272 26.8547 243.011 27.6573 242.488 28.348C241.966 29.02 241.256 29.5427 240.36 29.916C239.483 30.2707 238.503 30.448 237.42 30.448ZM251.084 35.348C251.028 35.4973 250.962 35.6373 250.888 35.768C250.832 35.8987 250.794 35.992 250.776 36.048H247.556C247.649 35.8427 247.78 35.544 247.948 35.152C248.134 34.7787 248.312 34.4147 248.48 34.06C248.648 33.7053 248.825 33.304 249.012 32.856C249.217 32.408 249.422 31.9693 249.628 31.54L250.692 29.216L244.728 15.72H248.088L252.176 25.464H252.316L256.264 15.72H259.596L252.204 32.744C251.998 33.2293 251.774 33.7333 251.532 34.256C251.308 34.7973 251.158 35.1613 251.084 35.348ZM268.079 30.448C266.605 30.448 265.307 30.112 264.187 29.44C263.067 28.768 262.19 27.8627 261.555 26.724C260.921 25.5853 260.603 24.2973 260.603 22.86C260.603 21.4413 260.921 20.1627 261.555 19.024C262.19 17.8667 263.067 16.952 264.187 16.28C265.307 15.608 266.605 15.272 268.079 15.272C269.535 15.272 270.823 15.608 271.943 16.28C273.063 16.952 273.941 17.8667 274.575 19.024C275.21 20.1627 275.527 21.4413 275.527 22.86C275.527 24.2973 275.21 25.5853 274.575 26.724C273.941 27.8627 273.063 28.768 271.943 29.44C270.823 30.112 269.535 30.448 268.079 30.448ZM268.079 27.676C268.863 27.676 269.591 27.4893 270.263 27.116C270.935 26.724 271.477 26.1733 271.887 25.464C272.317 24.736 272.531 23.868 272.531 22.86C272.531 21.852 272.317 20.9933 271.887 20.284C271.477 19.556 270.935 19.0053 270.263 18.632C269.591 18.24 268.863 18.044 268.079 18.044C267.295 18.044 266.558 18.24 265.867 18.632C265.195 19.0053 264.645 19.556 264.215 20.284C263.805 20.9933 263.599 21.852 263.599 22.86C263.599 23.868 263.805 24.736 264.215 25.464C264.645 26.1733 265.195 26.724 265.867 27.116C266.558 27.4893 267.295 27.676 268.079 27.676ZM278.339 30V15.72H281.195V17.68H281.363C281.774 16.9893 282.38 16.42 283.183 15.972C284.004 15.5053 284.9 15.272 285.871 15.272C287.626 15.272 288.942 15.7947 289.819 16.84C290.696 17.8853 291.135 19.2667 291.135 20.984V30H288.139V21.376C288.139 20.2187 287.85 19.3787 287.271 18.856C286.692 18.3147 285.936 18.044 285.003 18.044C284.275 18.044 283.64 18.2493 283.099 18.66C282.558 19.052 282.128 19.5747 281.811 20.228C281.512 20.8813 281.363 21.5813 281.363 22.328V30H278.339ZM306.588 35.348C306.532 35.4973 306.467 35.6373 306.392 35.768C306.336 35.8987 306.299 35.992 306.28 36.048H303.06C303.154 35.8427 303.284 35.544 303.452 35.152C303.639 34.7787 303.816 34.4147 303.984 34.06C304.152 33.7053 304.33 33.304 304.516 32.856C304.722 32.408 304.927 31.9693 305.132 31.54L306.196 29.216L300.232 15.72H303.592L307.68 25.464H307.82L311.768 15.72H315.1L307.708 32.744C307.503 33.2293 307.279 33.7333 307.036 34.256C306.812 34.7973 306.663 35.1613 306.588 35.348ZM321.18 30.448C320.153 30.448 319.239 30.252 318.436 29.86C317.633 29.4493 317.008 28.88 316.56 28.152C316.112 27.424 315.888 26.5933 315.888 25.66C315.888 24.652 316.149 23.7933 316.672 23.084C317.213 22.356 317.932 21.8053 318.828 21.432C319.724 21.0587 320.713 20.872 321.796 20.872C322.692 20.872 323.476 20.956 324.148 21.124C324.839 21.292 325.361 21.4693 325.716 21.656V20.9C325.716 19.9667 325.38 19.22 324.708 18.66C324.036 18.1 323.168 17.82 322.104 17.82C321.376 17.82 320.685 17.988 320.032 18.324C319.379 18.6413 318.856 19.08 318.464 19.64L316.392 18.044C317.008 17.1853 317.82 16.5133 318.828 16.028C319.855 15.524 320.975 15.272 322.188 15.272C324.26 15.272 325.856 15.7853 326.976 16.812C328.096 17.82 328.656 19.2387 328.656 21.068V30H325.716V28.236H325.548C325.175 28.8147 324.615 29.328 323.868 29.776C323.121 30.224 322.225 30.448 321.18 30.448ZM321.712 27.984C322.496 27.984 323.187 27.7973 323.784 27.424C324.381 27.0507 324.848 26.5653 325.184 25.968C325.539 25.352 325.716 24.6893 325.716 23.98C325.287 23.7373 324.783 23.5413 324.204 23.392C323.625 23.224 323.009 23.14 322.356 23.14C321.124 23.14 320.247 23.392 319.724 23.896C319.201 24.3813 318.94 24.9787 318.94 25.688C318.94 26.36 319.192 26.9107 319.696 27.34C320.2 27.7693 320.872 27.984 321.712 27.984ZM332.257 36.048V15.72H335.085V17.652H335.253C335.626 17.036 336.205 16.4853 336.989 16C337.792 15.5147 338.744 15.272 339.845 15.272C341.152 15.272 342.318 15.5987 343.345 16.252C344.372 16.9053 345.184 17.8013 345.781 18.94C346.397 20.0787 346.705 21.3853 346.705 22.86C346.705 24.3347 346.397 25.6507 345.781 26.808C345.184 27.9467 344.372 28.8427 343.345 29.496C342.318 30.1307 341.152 30.448 339.845 30.448C338.744 30.448 337.792 30.2147 336.989 29.748C336.205 29.2627 335.626 28.712 335.253 28.096H335.085L335.253 30.084V36.048H332.257ZM339.397 27.676C340.144 27.676 340.844 27.48 341.497 27.088C342.15 26.696 342.682 26.1453 343.093 25.436C343.504 24.708 343.709 23.8493 343.709 22.86C343.709 21.8707 343.504 21.0213 343.093 20.312C342.682 19.584 342.15 19.024 341.497 18.632C340.844 18.24 340.144 18.044 339.397 18.044C338.65 18.044 337.95 18.24 337.297 18.632C336.644 19.024 336.112 19.584 335.701 20.312C335.29 21.0213 335.085 21.8707 335.085 22.86C335.085 23.8493 335.29 24.708 335.701 25.436C336.112 26.1453 336.644 26.696 337.297 27.088C337.95 27.48 338.65 27.676 339.397 27.676Z" fill="#3C4043"/>
</g>
</svg>
