<svg width="123" height="21" viewBox="0 0 123 21" fill="none" xmlns="http://www.w3.org/2000/svg">
<g id="tr_buy_with_Pay_NBG">
<g id="GPay (Dark)">
<g id="GPay">
<g id="Pay">
<path id="Fill 1" fill-rule="evenodd" clip-rule="evenodd" d="M22.3563 3.42339V8.16175H25.2784C25.9745 8.16175 26.5501 7.92781 27.0055 7.45993C27.4728 6.99313 27.707 6.43644 27.707 5.79203C27.707 5.16061 27.4728 4.61041 27.0055 4.14254C26.5501 3.66274 25.9745 3.4223 25.2784 3.4223H22.3563V3.42339ZM22.3563 9.82966V15.3262H20.6107V1.75549H25.2404C26.4169 1.75549 27.4154 2.14756 28.2383 2.93061C29.0732 3.71365 29.4906 4.66782 29.4906 5.79203C29.4906 6.94224 29.0731 7.90291 28.2383 8.67296C27.4283 9.44409 26.4287 9.82858 25.2404 9.82858H22.3563V9.82966Z" fill="white"/>
<path id="Fill 3" fill-rule="evenodd" clip-rule="evenodd" d="M31.2546 12.4831C31.2546 12.9379 31.4476 13.317 31.8337 13.6203C32.2195 13.9235 32.6717 14.0752 33.19 14.0752C33.9239 14.0752 34.5777 13.8032 35.1535 13.2607C35.7293 12.717 36.0165 12.0791 36.0165 11.3469C35.4722 10.917 34.7133 10.7025 33.7396 10.7025C33.0306 10.7025 32.4397 10.8736 31.9659 11.2148C31.492 11.5559 31.2546 11.9773 31.2546 12.4831M33.513 5.73566C34.8033 5.73566 35.8214 6.08007 36.5685 6.76889C37.3145 7.45771 37.6873 8.40213 37.6873 9.60216V15.3261H36.0177V14.0373H35.9417C35.2207 15.0985 34.259 15.6294 33.0578 15.6294C32.0332 15.6294 31.1755 15.3261 30.4869 14.7196C29.7975 14.1131 29.4527 13.3549 29.4527 12.4452C29.4527 11.4845 29.8158 10.7208 30.5433 10.1523C31.2708 9.58375 32.2413 9.2989 33.4557 9.2989C34.4921 9.2989 35.3465 9.48844 36.0165 9.86751V9.46894C36.0165 8.86243 35.7758 8.34798 35.2956 7.92451C34.8141 7.50103 34.2525 7.28984 33.6074 7.28984C32.6326 7.28984 31.8618 7.70032 31.2926 8.52235L29.7551 7.55519C30.6029 6.34217 31.8552 5.73566 33.513 5.73566" fill="white"/>
<path id="Fill 5" fill-rule="evenodd" clip-rule="evenodd" d="M47.2687 6.03894L41.4432 19.4201H39.6411L41.8043 14.738L37.9714 6.03894H39.8688L42.639 12.7106H42.677L45.3713 6.03894H47.2687Z" fill="white"/>
</g>
<g id="G">
<path id="Fill 8" fill-rule="evenodd" clip-rule="evenodd" d="M15.3029 8.64473C15.3029 8.09563 15.2562 7.56601 15.1684 7.05914H7.80648V10.0625H12.0231C11.842 11.0414 11.2945 11.8744 10.4639 12.4322V14.3828H12.9804C14.4539 13.0246 15.3029 11.0177 15.3029 8.64473" fill="#4285F4"/>
<path id="Fill 10" fill-rule="evenodd" clip-rule="evenodd" d="M7.80646 16.2651C9.91313 16.2651 11.6869 15.5741 12.9804 14.3828L10.4639 12.4322C9.7635 12.9033 8.86142 13.1784 7.80646 13.1784C5.77028 13.1784 4.04201 11.8073 3.424 9.95959H0.831596V11.9687C2.11641 14.516 4.75652 16.2651 7.80646 16.2651" fill="#34A853"/>
<path id="Fill 12" fill-rule="evenodd" clip-rule="evenodd" d="M3.42401 9.9596C3.26571 9.48847 3.17897 8.98593 3.17897 8.46715C3.17897 7.94837 3.26571 7.44583 3.42401 6.9747V4.96564H0.831606C0.300332 6.01837 0 7.20756 0 8.46715C0 9.72674 0.300332 10.916 0.831606 11.9687L3.42401 9.9596Z" fill="#FABB05"/>
<path id="Fill 14" fill-rule="evenodd" clip-rule="evenodd" d="M7.80646 3.75583C8.95683 3.75583 9.98794 4.15115 10.8011 4.92553V4.92661L13.0292 2.70094C11.6761 1.44243 9.91204 0.669128 7.80646 0.669128C4.75652 0.669128 2.11641 2.41826 0.831596 4.9656L3.424 6.97467C4.04201 5.12698 5.77028 3.75583 7.80646 3.75583" fill="#E94235"/>
</g>
</g>
</g>
<path id="Right Text" d="M48.786 15.0006V6.84061H50.514V15.0006H48.786ZM49.65 5.64061C49.33 5.64061 49.0527 5.52861 48.818 5.30461C48.594 5.06994 48.482 4.79261 48.482 4.47261C48.482 4.14194 48.594 3.86994 48.818 3.65661C49.0527 3.43261 49.33 3.32061 49.65 3.32061C49.9807 3.32061 50.258 3.43261 50.482 3.65661C50.706 3.86994 50.818 4.14194 50.818 4.47261C50.818 4.79261 50.706 5.06994 50.482 5.30461C50.258 5.52861 49.9807 5.64061 49.65 5.64061ZM52.824 15.0006V3.54461H54.552V15.0006H52.824ZM60.3891 15.2566C59.5891 15.2566 58.8745 15.0699 58.2451 14.6966C57.6158 14.3233 57.1198 13.8113 56.7571 13.1606C56.4051 12.5099 56.2291 11.7686 56.2291 10.9366C56.2291 10.1579 56.3998 9.43794 56.7411 8.77661C57.0825 8.11528 57.5571 7.58728 58.1651 7.19261C58.7838 6.78728 59.4931 6.58461 60.2931 6.58461C61.1358 6.58461 61.8505 6.76594 62.4371 7.12861C63.0345 7.49128 63.4878 7.98728 63.7971 8.61661C64.1065 9.24594 64.2611 9.95528 64.2611 10.7446C64.2611 10.8619 64.2558 10.9686 64.2451 11.0646C64.2451 11.1606 64.2398 11.2353 64.2291 11.2886H57.9251C57.9678 11.7366 58.0798 12.1259 58.2611 12.4566C58.4958 12.8726 58.8051 13.1873 59.1891 13.4006C59.5731 13.6139 59.9891 13.7206 60.4371 13.7206C60.9811 13.7206 61.4345 13.5979 61.7971 13.3526C62.1705 13.0966 62.4638 12.7819 62.6771 12.4086L64.1011 13.0966C63.7491 13.7366 63.2691 14.2593 62.6611 14.6646C62.0531 15.0593 61.2958 15.2566 60.3891 15.2566ZM58.0211 9.99261H62.5491C62.5385 9.78994 62.4851 9.57661 62.3891 9.35261C62.2931 9.11794 62.1545 8.90461 61.9731 8.71261C61.7918 8.52061 61.5625 8.36594 61.2851 8.24861C61.0078 8.12061 60.6825 8.05661 60.3091 8.05661C59.8398 8.05661 59.4238 8.17928 59.0611 8.42461C58.6985 8.65928 58.4158 8.98994 58.2131 9.41661C58.1278 9.59794 58.0638 9.78994 58.0211 9.99261ZM72.8746 15.2566C72.224 15.2566 71.6586 15.1606 71.1786 14.9686C70.6986 14.7659 70.304 14.4993 69.9946 14.1686C69.6853 13.8273 69.456 13.4593 69.3066 13.0646L70.8586 12.3926C71.0506 12.8299 71.3226 13.1659 71.6746 13.4006C72.0373 13.6246 72.4533 13.7366 72.9226 13.7366C73.3493 13.7366 73.7173 13.6619 74.0266 13.5126C74.336 13.3526 74.4906 13.0966 74.4906 12.7446C74.4906 12.5206 74.416 12.3393 74.2666 12.2006C74.128 12.0513 73.936 11.9286 73.6906 11.8326C73.456 11.7366 73.184 11.6513 72.8746 11.5766L71.8986 11.3526C71.5146 11.2566 71.1466 11.1073 70.7946 10.9046C70.4533 10.6913 70.176 10.4246 69.9626 10.1046C69.7493 9.78461 69.6426 9.40594 69.6426 8.96861C69.6426 8.47794 69.7813 8.05661 70.0586 7.70461C70.3466 7.34194 70.7306 7.06461 71.2106 6.87261C71.6906 6.68061 72.208 6.58461 72.7626 6.58461C73.2746 6.58461 73.7386 6.65394 74.1546 6.79261C74.5813 6.92061 74.9493 7.11794 75.2586 7.38461C75.5786 7.64061 75.8293 7.96061 76.0106 8.34461L74.5226 9.01661C74.3413 8.65394 74.096 8.40328 73.7866 8.26461C73.4773 8.11528 73.1413 8.04061 72.7786 8.04061C72.3733 8.04061 72.032 8.12594 71.7546 8.29661C71.488 8.45661 71.3546 8.66994 71.3546 8.93661C71.3546 9.21394 71.472 9.43261 71.7066 9.59261C71.952 9.75261 72.2506 9.88061 72.6026 9.97661L73.7866 10.2646C74.5973 10.4673 75.2053 10.7766 75.6106 11.1926C76.016 11.5979 76.2186 12.0939 76.2186 12.6806C76.2186 13.2033 76.0693 13.6619 75.7706 14.0566C75.472 14.4406 75.0666 14.7393 74.5546 14.9526C74.0533 15.1553 73.4933 15.2566 72.8746 15.2566ZM80.5149 15.2566C79.9282 15.2566 79.4055 15.1393 78.9469 14.9046C78.4989 14.6699 78.1415 14.3499 77.8749 13.9446C77.6189 13.5286 77.4909 13.0539 77.4909 12.5206C77.4909 11.9339 77.6402 11.4379 77.9389 11.0326C78.2482 10.6273 78.6589 10.3179 79.1709 10.1046C79.6829 9.89128 80.2482 9.78461 80.8669 9.78461C81.2082 9.78461 81.5229 9.81128 81.8109 9.86461C82.1095 9.90728 82.3655 9.96061 82.5789 10.0246C82.8029 10.0886 82.9789 10.1579 83.1069 10.2326V9.80061C83.1069 9.26728 82.9149 8.84061 82.5309 8.52061C82.1469 8.20061 81.6509 8.04061 81.0429 8.04061C80.6269 8.04061 80.2322 8.13661 79.8589 8.32861C79.4855 8.50994 79.1869 8.76061 78.9629 9.08061L77.7789 8.16861C78.0135 7.83794 78.2962 7.55528 78.6269 7.32061C78.9682 7.08594 79.3469 6.90461 79.7629 6.77661C80.1895 6.64861 80.6322 6.58461 81.0909 6.58461C82.2749 6.58461 83.1869 6.87794 83.8269 7.46461C84.4669 8.04061 84.7869 8.85128 84.7869 9.89661V15.0006H83.1069V13.9926H83.0109C82.8722 14.2059 82.6802 14.4086 82.4349 14.6006C82.2002 14.7926 81.9175 14.9473 81.5869 15.0646C81.2669 15.1926 80.9095 15.2566 80.5149 15.2566ZM80.8189 13.8486C81.2669 13.8486 81.6615 13.7419 82.0029 13.5286C82.3549 13.3153 82.6269 13.0379 82.8189 12.6966C83.0109 12.3446 83.1069 11.9659 83.1069 11.5606C82.8722 11.4219 82.5842 11.3099 82.2429 11.2246C81.9122 11.1286 81.5602 11.0806 81.1869 11.0806C80.4829 11.0806 79.9815 11.2193 79.6829 11.4966C79.3842 11.7739 79.2349 12.1206 79.2349 12.5366C79.2349 12.9206 79.3789 13.2353 79.6669 13.4806C79.9549 13.7259 80.3389 13.8486 80.8189 13.8486ZM86.123 6.84061H87.547V4.53661H89.275V6.84061H91.275V8.34461H89.275V12.2646C89.275 12.6699 89.355 12.9793 89.515 13.1926C89.6857 13.4059 89.9683 13.5126 90.363 13.5126C90.555 13.5126 90.7257 13.4859 90.875 13.4326C91.0243 13.3686 91.1737 13.2939 91.323 13.2086V14.8886C91.1417 14.9633 90.9497 15.0219 90.747 15.0646C90.5443 15.1073 90.3043 15.1286 90.027 15.1286C89.2697 15.1286 88.667 14.9099 88.219 14.4726C87.771 14.0246 87.547 13.4113 87.547 12.6326V8.34461H86.123V6.84061ZM93.2891 15.0006V6.84061H95.0171V15.0006H93.2891ZM97.3267 15.0006V6.84061H98.9587V7.96061H99.0547C99.2894 7.56594 99.6361 7.24061 100.095 6.98461C100.564 6.71794 101.076 6.58461 101.631 6.58461C102.633 6.58461 103.385 6.88328 103.887 7.48061C104.388 8.06728 104.639 8.85661 104.639 9.84861V15.0006H102.927V10.0726C102.927 9.41128 102.761 8.93128 102.431 8.63261C102.1 8.32328 101.668 8.16861 101.135 8.16861C100.719 8.16861 100.356 8.28594 100.047 8.52061C99.7374 8.74461 99.4921 9.04328 99.3107 9.41661C99.1401 9.78994 99.0547 10.1899 99.0547 10.6166V15.0006H97.3267ZM113.202 15.2566C112.616 15.2566 112.093 15.1393 111.634 14.9046C111.186 14.6699 110.829 14.3499 110.562 13.9446C110.306 13.5286 110.178 13.0539 110.178 12.5206C110.178 11.9339 110.328 11.4379 110.626 11.0326C110.936 10.6273 111.346 10.3179 111.858 10.1046C112.37 9.89128 112.936 9.78461 113.554 9.78461C113.896 9.78461 114.21 9.81128 114.498 9.86461C114.797 9.90728 115.053 9.96061 115.266 10.0246C115.49 10.0886 115.666 10.1579 115.794 10.2326V9.80061C115.794 9.26728 115.602 8.84061 115.218 8.52061C114.834 8.20061 114.338 8.04061 113.73 8.04061C113.314 8.04061 112.92 8.13661 112.546 8.32861C112.173 8.50994 111.874 8.76061 111.65 9.08061L110.466 8.16861C110.701 7.83794 110.984 7.55528 111.314 7.32061C111.656 7.08594 112.034 6.90461 112.45 6.77661C112.877 6.64861 113.32 6.58461 113.778 6.58461C114.962 6.58461 115.874 6.87794 116.514 7.46461C117.154 8.04061 117.474 8.85128 117.474 9.89661V15.0006H115.794V13.9926H115.698C115.56 14.2059 115.368 14.4086 115.122 14.6006C114.888 14.7926 114.605 14.9473 114.274 15.0646C113.954 15.1926 113.597 15.2566 113.202 15.2566ZM113.506 13.8486C113.954 13.8486 114.349 13.7419 114.69 13.5286C115.042 13.3153 115.314 13.0379 115.506 12.6966C115.698 12.3446 115.794 11.9659 115.794 11.5606C115.56 11.4219 115.272 11.3099 114.93 11.2246C114.6 11.1286 114.248 11.0806 113.874 11.0806C113.17 11.0806 112.669 11.2193 112.37 11.4966C112.072 11.7739 111.922 12.1206 111.922 12.5366C111.922 12.9206 112.066 13.2353 112.354 13.4806C112.642 13.7259 113.026 13.8486 113.506 13.8486ZM119.543 15.0006V3.54461H121.271V15.0006H119.543Z" fill="white"/>
</g>
</svg>
