<svg width="154" height="21" viewBox="0 0 154 21" fill="none" xmlns="http://www.w3.org/2000/svg">
<g id="tr_checkout_with_Pay_NBG">
<g id="GPay (Dark)">
<g id="GPay">
<g id="Pay">
<path id="Fill 1" fill-rule="evenodd" clip-rule="evenodd" d="M22.3563 3.42339V8.16175H25.2784C25.9745 8.16175 26.5501 7.92781 27.0055 7.45993C27.4728 6.99313 27.707 6.43644 27.707 5.79203C27.707 5.16061 27.4728 4.61041 27.0055 4.14254C26.5501 3.66274 25.9745 3.4223 25.2784 3.4223H22.3563V3.42339ZM22.3563 9.82966V15.3262H20.6107V1.75549H25.2404C26.4169 1.75549 27.4154 2.14756 28.2383 2.93061C29.0732 3.71365 29.4906 4.66782 29.4906 5.79203C29.4906 6.94224 29.0731 7.90291 28.2383 8.67296C27.4283 9.44409 26.4287 9.82858 25.2404 9.82858H22.3563V9.82966Z" fill="white"/>
<path id="Fill 3" fill-rule="evenodd" clip-rule="evenodd" d="M31.2546 12.4831C31.2546 12.9379 31.4476 13.317 31.8337 13.6203C32.2195 13.9235 32.6717 14.0752 33.19 14.0752C33.9239 14.0752 34.5777 13.8032 35.1535 13.2607C35.7293 12.717 36.0165 12.0791 36.0165 11.3469C35.4722 10.917 34.7133 10.7025 33.7396 10.7025C33.0306 10.7025 32.4397 10.8736 31.9659 11.2148C31.492 11.5559 31.2546 11.9773 31.2546 12.4831M33.513 5.73566C34.8033 5.73566 35.8214 6.08007 36.5685 6.76889C37.3145 7.45771 37.6873 8.40213 37.6873 9.60216V15.3261H36.0177V14.0373H35.9417C35.2207 15.0985 34.259 15.6294 33.0578 15.6294C32.0332 15.6294 31.1755 15.3261 30.4869 14.7196C29.7975 14.1131 29.4527 13.3549 29.4527 12.4452C29.4527 11.4845 29.8158 10.7208 30.5433 10.1523C31.2708 9.58375 32.2413 9.2989 33.4557 9.2989C34.4921 9.2989 35.3465 9.48844 36.0165 9.86751V9.46894C36.0165 8.86243 35.7758 8.34798 35.2956 7.92451C34.8141 7.50103 34.2525 7.28984 33.6074 7.28984C32.6326 7.28984 31.8618 7.70032 31.2926 8.52235L29.7551 7.55519C30.6029 6.34217 31.8552 5.73566 33.513 5.73566" fill="white"/>
<path id="Fill 5" fill-rule="evenodd" clip-rule="evenodd" d="M47.2687 6.03894L41.4432 19.4201H39.6411L41.8043 14.738L37.9714 6.03894H39.8688L42.639 12.7106H42.677L45.3713 6.03894H47.2687Z" fill="white"/>
</g>
<g id="G">
<path id="Fill 8" fill-rule="evenodd" clip-rule="evenodd" d="M15.3029 8.64473C15.3029 8.09563 15.2562 7.56601 15.1684 7.05914H7.80648V10.0625H12.0231C11.842 11.0414 11.2945 11.8744 10.4639 12.4322V14.3828H12.9804C14.4539 13.0246 15.3029 11.0177 15.3029 8.64473" fill="#4285F4"/>
<path id="Fill 10" fill-rule="evenodd" clip-rule="evenodd" d="M7.80646 16.2651C9.91313 16.2651 11.6869 15.5741 12.9804 14.3828L10.4639 12.4322C9.7635 12.9033 8.86142 13.1784 7.80646 13.1784C5.77028 13.1784 4.04201 11.8073 3.424 9.95959H0.831596V11.9687C2.11641 14.516 4.75652 16.2651 7.80646 16.2651" fill="#34A853"/>
<path id="Fill 12" fill-rule="evenodd" clip-rule="evenodd" d="M3.42401 9.9596C3.26571 9.48847 3.17897 8.98593 3.17897 8.46715C3.17897 7.94837 3.26571 7.44583 3.42401 6.9747V4.96564H0.831606C0.300332 6.01837 0 7.20756 0 8.46715C0 9.72674 0.300332 10.916 0.831606 11.9687L3.42401 9.9596Z" fill="#FABB05"/>
<path id="Fill 14" fill-rule="evenodd" clip-rule="evenodd" d="M7.80646 3.75583C8.95683 3.75583 9.98794 4.15115 10.8011 4.92553V4.92661L13.0292 2.70094C11.6761 1.44243 9.91204 0.669128 7.80646 0.669128C4.75652 0.669128 2.11641 2.41826 0.831596 4.9656L3.424 6.97467C4.04201 5.12698 5.77028 3.75583 7.80646 3.75583" fill="#E94235"/>
</g>
</g>
</g>
<path id="Right Text" d="M48.786 15.0006V6.84061H50.514V15.0006H48.786ZM49.65 5.64061C49.33 5.64061 49.0527 5.52861 48.818 5.30461C48.594 5.06994 48.482 4.79261 48.482 4.47261C48.482 4.14194 48.594 3.86994 48.818 3.65661C49.0527 3.43261 49.33 3.32061 49.65 3.32061C49.9807 3.32061 50.258 3.43261 50.482 3.65661C50.706 3.86994 50.818 4.14194 50.818 4.47261C50.818 4.79261 50.706 5.06994 50.482 5.30461C50.258 5.52861 49.9807 5.64061 49.65 5.64061ZM52.824 15.0006V3.54461H54.552V15.0006H52.824ZM60.3891 15.2566C59.5891 15.2566 58.8745 15.0699 58.2451 14.6966C57.6158 14.3233 57.1198 13.8113 56.7571 13.1606C56.4051 12.5099 56.2291 11.7686 56.2291 10.9366C56.2291 10.1579 56.3998 9.43794 56.7411 8.77661C57.0825 8.11528 57.5571 7.58728 58.1651 7.19261C58.7838 6.78728 59.4931 6.58461 60.2931 6.58461C61.1358 6.58461 61.8505 6.76594 62.4371 7.12861C63.0345 7.49128 63.4878 7.98728 63.7971 8.61661C64.1065 9.24594 64.2611 9.95528 64.2611 10.7446C64.2611 10.8619 64.2558 10.9686 64.2451 11.0646C64.2451 11.1606 64.2398 11.2353 64.2291 11.2886H57.9251C57.9678 11.7366 58.0798 12.1259 58.2611 12.4566C58.4958 12.8726 58.8051 13.1873 59.1891 13.4006C59.5731 13.6139 59.9891 13.7206 60.4371 13.7206C60.9811 13.7206 61.4345 13.5979 61.7971 13.3526C62.1705 13.0966 62.4638 12.7819 62.6771 12.4086L64.1011 13.0966C63.7491 13.7366 63.2691 14.2593 62.6611 14.6646C62.0531 15.0593 61.2958 15.2566 60.3891 15.2566ZM58.0211 9.99261H62.5491C62.5385 9.78994 62.4851 9.57661 62.3891 9.35261C62.2931 9.11794 62.1545 8.90461 61.9731 8.71261C61.7918 8.52061 61.5625 8.36594 61.2851 8.24861C61.0078 8.12061 60.6825 8.05661 60.3091 8.05661C59.8398 8.05661 59.4238 8.17928 59.0611 8.42461C58.6985 8.65928 58.4158 8.98994 58.2131 9.41661C58.1278 9.59794 58.0638 9.78994 58.0211 9.99261ZM73.7386 15.2566C72.896 15.2566 72.1546 15.0646 71.5146 14.6806C70.8746 14.2966 70.3733 13.7793 70.0106 13.1286C69.648 12.4673 69.4666 11.7313 69.4666 10.9206C69.4666 10.1099 69.648 9.37928 70.0106 8.72861C70.3733 8.06728 70.8746 7.54461 71.5146 7.16061C72.1546 6.77661 72.896 6.58461 73.7386 6.58461C74.5706 6.58461 75.3066 6.78194 75.9466 7.17661C76.5866 7.56061 77.088 8.07794 77.4506 8.72861C77.8133 9.37928 77.9946 10.1099 77.9946 10.9206C77.9946 11.7313 77.8133 12.4673 77.4506 13.1286C77.088 13.7793 76.5866 14.2966 75.9466 14.6806C75.3066 15.0646 74.5706 15.2566 73.7386 15.2566ZM73.7386 13.6726C74.1866 13.6726 74.6026 13.5659 74.9866 13.3526C75.3706 13.1286 75.68 12.8139 75.9146 12.4086C76.16 11.9926 76.2826 11.4966 76.2826 10.9206C76.2826 10.3446 76.16 9.85394 75.9146 9.44861C75.68 9.03261 75.3706 8.71794 74.9866 8.50461C74.6026 8.28061 74.1866 8.16861 73.7386 8.16861C73.2906 8.16861 72.8693 8.28061 72.4746 8.50461C72.0906 8.71794 71.776 9.03261 71.5306 9.44861C71.296 9.85394 71.1786 10.3446 71.1786 10.9206C71.1786 11.4966 71.296 11.9926 71.5306 12.4086C71.776 12.8139 72.096 13.1286 72.4906 13.3526C72.8853 13.5659 73.3013 13.6726 73.7386 13.6726ZM75.1466 5.17661C74.88 5.17661 74.6453 5.08061 74.4426 4.88861C74.2506 4.68594 74.1546 4.45128 74.1546 4.18461C74.1546 3.89661 74.2506 3.66194 74.4426 3.48061C74.6453 3.28861 74.88 3.19261 75.1466 3.19261C75.4346 3.19261 75.6746 3.28861 75.8666 3.48061C76.0586 3.66194 76.1546 3.89661 76.1546 4.18461C76.1546 4.45128 76.0586 4.68594 75.8666 4.88861C75.6746 5.08061 75.4346 5.17661 75.1466 5.17661ZM72.3146 5.17661C72.048 5.17661 71.8133 5.08061 71.6106 4.88861C71.4186 4.68594 71.3226 4.45128 71.3226 4.18461C71.3226 3.89661 71.4186 3.66194 71.6106 3.48061C71.8133 3.28861 72.048 3.19261 72.3146 3.19261C72.6026 3.19261 72.8373 3.28861 73.0186 3.48061C73.2106 3.66194 73.3066 3.89661 73.3066 4.18461C73.3066 4.45128 73.2106 4.68594 73.0186 4.88861C72.8373 5.08061 72.6026 5.17661 72.3146 5.17661ZM83.2241 15.2566C82.4881 15.2566 81.8215 15.0699 81.2241 14.6966C80.6268 14.3233 80.1575 13.8113 79.8161 13.1606C79.4748 12.5099 79.3041 11.7633 79.3041 10.9206C79.3041 10.0779 79.4748 9.33128 79.8161 8.68061C80.1575 8.02994 80.6268 7.51794 81.2241 7.14461C81.8215 6.77128 82.4881 6.58461 83.2241 6.58461C83.6508 6.58461 84.0348 6.64861 84.3761 6.77661C84.7175 6.90461 85.0108 7.07528 85.2561 7.28861C85.5121 7.49128 85.7095 7.70994 85.8481 7.94461H85.9441L85.8481 6.80861V3.54461H87.5601V15.0006H85.9441V13.9126H85.8481C85.7095 14.1366 85.5121 14.3553 85.2561 14.5686C85.0108 14.7713 84.7175 14.9366 84.3761 15.0646C84.0348 15.1926 83.6508 15.2566 83.2241 15.2566ZM83.4801 13.6726C83.9068 13.6726 84.3068 13.5606 84.6801 13.3366C85.0641 13.1126 85.3681 12.7979 85.5921 12.3926C85.8268 11.9766 85.9441 11.4859 85.9441 10.9206C85.9441 10.3553 85.8268 9.86994 85.5921 9.46461C85.3681 9.04861 85.0641 8.72861 84.6801 8.50461C84.3068 8.28061 83.9068 8.16861 83.4801 8.16861C83.0535 8.16861 82.6535 8.28061 82.2801 8.50461C81.9068 8.72861 81.6028 9.04861 81.3681 9.46461C81.1335 9.86994 81.0161 10.3553 81.0161 10.9206C81.0161 11.4753 81.1335 11.9606 81.3681 12.3766C81.6028 12.7926 81.9068 13.1126 82.2801 13.3366C82.6535 13.5606 83.0535 13.6726 83.4801 13.6726ZM93.3954 15.2566C92.5954 15.2566 91.8807 15.0699 91.2514 14.6966C90.622 14.3233 90.126 13.8113 89.7634 13.1606C89.4114 12.5099 89.2354 11.7686 89.2354 10.9366C89.2354 10.1579 89.406 9.43794 89.7474 8.77661C90.0887 8.11528 90.5634 7.58728 91.1714 7.19261C91.79 6.78728 92.4994 6.58461 93.2994 6.58461C94.142 6.58461 94.8567 6.76594 95.4434 7.12861C96.0407 7.49128 96.494 7.98728 96.8034 8.61661C97.1127 9.24594 97.2674 9.95528 97.2674 10.7446C97.2674 10.8619 97.262 10.9686 97.2514 11.0646C97.2514 11.1606 97.246 11.2353 97.2354 11.2886H90.9314C90.974 11.7366 91.086 12.1259 91.2674 12.4566C91.502 12.8726 91.8114 13.1873 92.1954 13.4006C92.5794 13.6139 92.9954 13.7206 93.4434 13.7206C93.9874 13.7206 94.4407 13.5979 94.8034 13.3526C95.1767 13.0966 95.47 12.7819 95.6834 12.4086L97.1074 13.0966C96.7554 13.7366 96.2754 14.2593 95.6674 14.6646C95.0594 15.0593 94.302 15.2566 93.3954 15.2566ZM91.0274 9.99261H95.5554C95.5447 9.78994 95.4914 9.57661 95.3954 9.35261C95.2994 9.11794 95.1607 8.90461 94.9794 8.71261C94.798 8.52061 94.5687 8.36594 94.2914 8.24861C94.014 8.12061 93.6887 8.05661 93.3154 8.05661C92.846 8.05661 92.43 8.17928 92.0674 8.42461C91.7047 8.65928 91.422 8.98994 91.2194 9.41661C91.134 9.59794 91.07 9.78994 91.0274 9.99261ZM99.0205 15.0006V6.84061H100.652V7.96061H100.748C100.908 7.69394 101.116 7.45928 101.372 7.25661C101.628 7.05394 101.916 6.89394 102.236 6.77661C102.567 6.64861 102.908 6.58461 103.26 6.58461C103.868 6.58461 104.386 6.72861 104.812 7.01661C105.239 7.30461 105.543 7.66728 105.724 8.10461C105.991 7.67794 106.354 7.32061 106.812 7.03261C107.271 6.73394 107.831 6.58461 108.492 6.58461C109.452 6.58461 110.167 6.87794 110.636 7.46461C111.106 8.04061 111.34 8.80861 111.34 9.76861V15.0006H109.628V10.0566C109.628 9.39528 109.484 8.91528 109.196 8.61661C108.919 8.31794 108.53 8.16861 108.028 8.16861C107.634 8.16861 107.287 8.28061 106.988 8.50461C106.69 8.71794 106.455 9.01128 106.284 9.38461C106.124 9.75794 106.044 10.1739 106.044 10.6326V15.0006H104.332V10.0566C104.332 9.40594 104.188 8.93128 103.9 8.63261C103.612 8.32328 103.207 8.16861 102.684 8.16861C102.311 8.16861 101.975 8.28061 101.676 8.50461C101.388 8.72861 101.159 9.02728 100.988 9.40061C100.828 9.77394 100.748 10.1899 100.748 10.6486V15.0006H99.0205ZM117.164 15.2566C116.364 15.2566 115.649 15.0699 115.02 14.6966C114.391 14.3233 113.895 13.8113 113.532 13.1606C113.18 12.5099 113.004 11.7686 113.004 10.9366C113.004 10.1579 113.175 9.43794 113.516 8.77661C113.857 8.11528 114.332 7.58728 114.94 7.19261C115.559 6.78728 116.268 6.58461 117.068 6.58461C117.911 6.58461 118.625 6.76594 119.212 7.12861C119.809 7.49128 120.263 7.98728 120.572 8.61661C120.881 9.24594 121.036 9.95528 121.036 10.7446C121.036 10.8619 121.031 10.9686 121.02 11.0646C121.02 11.1606 121.015 11.2353 121.004 11.2886H114.7C114.743 11.7366 114.855 12.1259 115.036 12.4566C115.271 12.8726 115.58 13.1873 115.964 13.4006C116.348 13.6139 116.764 13.7206 117.212 13.7206C117.756 13.7206 118.209 13.5979 118.572 13.3526C118.945 13.0966 119.239 12.7819 119.452 12.4086L120.876 13.0966C120.524 13.7366 120.044 14.2593 119.436 14.6646C118.828 15.0593 118.071 15.2566 117.164 15.2566ZM114.796 9.99261H119.324C119.313 9.78994 119.26 9.57661 119.164 9.35261C119.068 9.11794 118.929 8.90461 118.748 8.71261C118.567 8.52061 118.337 8.36594 118.06 8.24861C117.783 8.12061 117.457 8.05661 117.084 8.05661C116.615 8.05661 116.199 8.17928 115.836 8.42461C115.473 8.65928 115.191 8.98994 114.988 9.41661C114.903 9.59794 114.839 9.78994 114.796 9.99261ZM129.458 18.0566C129.426 18.1313 129.388 18.2059 129.346 18.2806C129.314 18.3659 129.292 18.4246 129.282 18.4566H127.442C127.495 18.3393 127.57 18.1739 127.666 17.9606C127.772 17.7473 127.874 17.5339 127.97 17.3206C128.034 17.1819 128.098 17.0326 128.162 16.8726C128.236 16.7126 128.311 16.5473 128.386 16.3766C128.471 16.2059 128.551 16.0406 128.626 15.8806L129.234 14.5526L125.826 6.84061H127.746L130.082 12.4086H130.162L132.418 6.84061H134.322L130.098 16.5686C130.023 16.7499 129.938 16.9419 129.842 17.1446C129.756 17.3473 129.676 17.5286 129.602 17.6886C129.538 17.8593 129.49 17.9819 129.458 18.0566ZM137.774 15.2566C137.188 15.2566 136.665 15.1393 136.206 14.9046C135.758 14.6699 135.401 14.3499 135.134 13.9446C134.878 13.5286 134.75 13.0539 134.75 12.5206C134.75 11.9339 134.9 11.4379 135.198 11.0326C135.508 10.6273 135.918 10.3179 136.43 10.1046C136.942 9.89128 137.508 9.78461 138.126 9.78461C138.468 9.78461 138.782 9.81128 139.07 9.86461C139.369 9.90728 139.625 9.96061 139.838 10.0246C140.062 10.0886 140.238 10.1579 140.366 10.2326V9.80061C140.366 9.26728 140.174 8.84061 139.79 8.52061C139.406 8.20061 138.91 8.04061 138.302 8.04061C137.886 8.04061 137.492 8.13661 137.118 8.32861C136.745 8.50994 136.446 8.76061 136.222 9.08061L135.038 8.16861C135.273 7.83794 135.556 7.55528 135.886 7.32061C136.228 7.08594 136.606 6.90461 137.022 6.77661C137.449 6.64861 137.892 6.58461 138.35 6.58461C139.534 6.58461 140.446 6.87794 141.086 7.46461C141.726 8.04061 142.046 8.85128 142.046 9.89661V15.0006H140.366V13.9926H140.27C140.132 14.2059 139.94 14.4086 139.694 14.6006C139.46 14.7926 139.177 14.9473 138.846 15.0646C138.526 15.1926 138.169 15.2566 137.774 15.2566ZM138.078 13.8486C138.526 13.8486 138.921 13.7419 139.262 13.5286C139.614 13.3153 139.886 13.0379 140.078 12.6966C140.27 12.3446 140.366 11.9659 140.366 11.5606C140.132 11.4219 139.844 11.3099 139.502 11.2246C139.172 11.1286 138.82 11.0806 138.446 11.0806C137.742 11.0806 137.241 11.2193 136.942 11.4966C136.644 11.7739 136.494 12.1206 136.494 12.5366C136.494 12.9206 136.638 13.2353 136.926 13.4806C137.214 13.7259 137.598 13.8486 138.078 13.8486ZM144.083 18.4566V6.84061H145.699V7.94461H145.795C145.944 7.70994 146.141 7.49128 146.387 7.28861C146.643 7.07528 146.941 6.90461 147.283 6.77661C147.624 6.64861 148.003 6.58461 148.419 6.58461C149.165 6.58461 149.832 6.77128 150.419 7.14461C151.005 7.51794 151.469 8.02994 151.811 8.68061C152.163 9.33128 152.339 10.0779 152.339 10.9206C152.339 11.7633 152.163 12.5099 151.811 13.1606C151.469 13.8113 151.005 14.3233 150.419 14.6966C149.832 15.0699 149.165 15.2566 148.419 15.2566C147.8 15.2566 147.261 15.1179 146.803 14.8406C146.344 14.5633 146.008 14.2539 145.795 13.9126H145.699L145.795 15.0486V18.4566H144.083ZM148.163 13.6726C148.589 13.6726 148.989 13.5606 149.363 13.3366C149.747 13.1126 150.051 12.7926 150.275 12.3766C150.509 11.9606 150.627 11.4753 150.627 10.9206C150.627 10.3553 150.509 9.86994 150.275 9.46461C150.051 9.04861 149.747 8.72861 149.363 8.50461C148.989 8.28061 148.589 8.16861 148.163 8.16861C147.736 8.16861 147.336 8.28061 146.963 8.50461C146.589 8.72861 146.285 9.04861 146.051 9.46461C145.816 9.86994 145.699 10.3553 145.699 10.9206C145.699 11.4859 145.816 11.9766 146.051 12.3926C146.285 12.7979 146.589 13.1126 146.963 13.3366C147.336 13.5606 147.736 13.6726 148.163 13.6726Z" fill="white"/>
</g>
</svg>
