<svg width="142" height="21" viewBox="0 0 142 21" fill="none" xmlns="http://www.w3.org/2000/svg">
<g id="tr_donate_with_Pay_NBG">
<g id="GPay (Dark)">
<g id="GPay">
<g id="Pay">
<path id="Fill 1" fill-rule="evenodd" clip-rule="evenodd" d="M22.3563 3.42339V8.16175H25.2784C25.9745 8.16175 26.5501 7.92781 27.0055 7.45993C27.4728 6.99313 27.707 6.43644 27.707 5.79203C27.707 5.16061 27.4728 4.61041 27.0055 4.14254C26.5501 3.66274 25.9745 3.4223 25.2784 3.4223H22.3563V3.42339ZM22.3563 9.82966V15.3262H20.6107V1.75549H25.2404C26.4169 1.75549 27.4154 2.14756 28.2383 2.93061C29.0732 3.71365 29.4906 4.66782 29.4906 5.79203C29.4906 6.94224 29.0731 7.90291 28.2383 8.67296C27.4283 9.44409 26.4287 9.82858 25.2404 9.82858H22.3563V9.82966Z" fill="white"/>
<path id="Fill 3" fill-rule="evenodd" clip-rule="evenodd" d="M31.2546 12.4831C31.2546 12.9379 31.4476 13.317 31.8337 13.6203C32.2195 13.9235 32.6717 14.0752 33.19 14.0752C33.9239 14.0752 34.5777 13.8032 35.1535 13.2607C35.7293 12.717 36.0165 12.0791 36.0165 11.3469C35.4722 10.917 34.7133 10.7025 33.7396 10.7025C33.0306 10.7025 32.4397 10.8736 31.9659 11.2148C31.492 11.5559 31.2546 11.9773 31.2546 12.4831M33.513 5.73566C34.8033 5.73566 35.8214 6.08007 36.5685 6.76889C37.3145 7.45771 37.6873 8.40213 37.6873 9.60216V15.3261H36.0177V14.0373H35.9417C35.2207 15.0985 34.259 15.6294 33.0578 15.6294C32.0332 15.6294 31.1755 15.3261 30.4869 14.7196C29.7975 14.1131 29.4527 13.3549 29.4527 12.4452C29.4527 11.4845 29.8158 10.7208 30.5433 10.1523C31.2708 9.58375 32.2413 9.2989 33.4557 9.2989C34.4921 9.2989 35.3465 9.48844 36.0165 9.86751V9.46894C36.0165 8.86243 35.7758 8.34798 35.2956 7.92451C34.8141 7.50103 34.2525 7.28984 33.6074 7.28984C32.6326 7.28984 31.8618 7.70032 31.2926 8.52235L29.7551 7.55519C30.6029 6.34217 31.8552 5.73566 33.513 5.73566" fill="white"/>
<path id="Fill 5" fill-rule="evenodd" clip-rule="evenodd" d="M47.2687 6.03894L41.4432 19.4201H39.6411L41.8043 14.738L37.9714 6.03894H39.8688L42.639 12.7106H42.677L45.3713 6.03894H47.2687Z" fill="white"/>
</g>
<g id="G">
<path id="Fill 8" fill-rule="evenodd" clip-rule="evenodd" d="M15.3029 8.64473C15.3029 8.09563 15.2562 7.56601 15.1684 7.05914H7.80648V10.0625H12.0231C11.842 11.0414 11.2945 11.8744 10.4639 12.4322V14.3828H12.9804C14.4539 13.0246 15.3029 11.0177 15.3029 8.64473" fill="#4285F4"/>
<path id="Fill 10" fill-rule="evenodd" clip-rule="evenodd" d="M7.80646 16.2651C9.91313 16.2651 11.6869 15.5741 12.9804 14.3828L10.4639 12.4322C9.7635 12.9033 8.86142 13.1784 7.80646 13.1784C5.77028 13.1784 4.04201 11.8073 3.424 9.95959H0.831596V11.9687C2.11641 14.516 4.75652 16.2651 7.80646 16.2651" fill="#34A853"/>
<path id="Fill 12" fill-rule="evenodd" clip-rule="evenodd" d="M3.42401 9.9596C3.26571 9.48847 3.17897 8.98593 3.17897 8.46715C3.17897 7.94837 3.26571 7.44583 3.42401 6.9747V4.96564H0.831606C0.300332 6.01837 0 7.20756 0 8.46715C0 9.72674 0.300332 10.916 0.831606 11.9687L3.42401 9.9596Z" fill="#FABB05"/>
<path id="Fill 14" fill-rule="evenodd" clip-rule="evenodd" d="M7.80646 3.75583C8.95683 3.75583 9.98794 4.15115 10.8011 4.92553V4.92661L13.0292 2.70094C11.6761 1.44243 9.91204 0.669128 7.80646 0.669128C4.75652 0.669128 2.11641 2.41826 0.831596 4.9656L3.424 6.97467C4.04201 5.12698 5.77028 3.75583 7.80646 3.75583" fill="#E94235"/>
</g>
</g>
</g>
<path id="Right Text" d="M48.786 15.0006V6.84061H50.514V15.0006H48.786ZM49.65 5.64061C49.33 5.64061 49.0527 5.52861 48.818 5.30461C48.594 5.06994 48.482 4.79261 48.482 4.47261C48.482 4.14194 48.594 3.86994 48.818 3.65661C49.0527 3.43261 49.33 3.32061 49.65 3.32061C49.9807 3.32061 50.258 3.43261 50.482 3.65661C50.706 3.86994 50.818 4.14194 50.818 4.47261C50.818 4.79261 50.706 5.06994 50.482 5.30461C50.258 5.52861 49.9807 5.64061 49.65 5.64061ZM52.824 15.0006V3.54461H54.552V15.0006H52.824ZM60.3891 15.2566C59.5891 15.2566 58.8745 15.0699 58.2451 14.6966C57.6158 14.3233 57.1198 13.8113 56.7571 13.1606C56.4051 12.5099 56.2291 11.7686 56.2291 10.9366C56.2291 10.1579 56.3998 9.43794 56.7411 8.77661C57.0825 8.11528 57.5571 7.58728 58.1651 7.19261C58.7838 6.78728 59.4931 6.58461 60.2931 6.58461C61.1358 6.58461 61.8505 6.76594 62.4371 7.12861C63.0345 7.49128 63.4878 7.98728 63.7971 8.61661C64.1065 9.24594 64.2611 9.95528 64.2611 10.7446C64.2611 10.8619 64.2558 10.9686 64.2451 11.0646C64.2451 11.1606 64.2398 11.2353 64.2291 11.2886H57.9251C57.9678 11.7366 58.0798 12.1259 58.2611 12.4566C58.4958 12.8726 58.8051 13.1873 59.1891 13.4006C59.5731 13.6139 59.9891 13.7206 60.4371 13.7206C60.9811 13.7206 61.4345 13.5979 61.7971 13.3526C62.1705 13.0966 62.4638 12.7819 62.6771 12.4086L64.1011 13.0966C63.7491 13.7366 63.2691 14.2593 62.6611 14.6646C62.0531 15.0593 61.2958 15.2566 60.3891 15.2566ZM58.0211 9.99261H62.5491C62.5385 9.78994 62.4851 9.57661 62.3891 9.35261C62.2931 9.11794 62.1545 8.90461 61.9731 8.71261C61.7918 8.52061 61.5625 8.36594 61.2851 8.24861C61.0078 8.12061 60.6825 8.05661 60.3091 8.05661C59.8398 8.05661 59.4238 8.17928 59.0611 8.42461C58.6985 8.65928 58.4158 8.98994 58.2131 9.41661C58.1278 9.59794 58.0638 9.78994 58.0211 9.99261ZM74.2506 15.2566C73.8346 15.2566 73.456 15.1926 73.1146 15.0646C72.7733 14.9366 72.4746 14.7713 72.2186 14.5686C71.9733 14.3553 71.776 14.1366 71.6266 13.9126H71.5306V15.0006H69.8986V3.54461H71.6266V6.80861L71.5306 7.94461H71.6266C71.776 7.70994 71.9733 7.49128 72.2186 7.28861C72.4746 7.07528 72.7733 6.90461 73.1146 6.77661C73.456 6.64861 73.8346 6.58461 74.2506 6.58461C74.9973 6.58461 75.664 6.77128 76.2506 7.14461C76.8373 7.51794 77.3013 8.02994 77.6426 8.68061C77.9946 9.33128 78.1706 10.0779 78.1706 10.9206C78.1706 11.7633 77.9946 12.5099 77.6426 13.1606C77.3013 13.8113 76.8373 14.3233 76.2506 14.6966C75.664 15.0699 74.9973 15.2566 74.2506 15.2566ZM73.9946 13.6726C74.4213 13.6726 74.8213 13.5606 75.1946 13.3366C75.5786 13.1126 75.8826 12.7926 76.1066 12.3766C76.3413 11.9606 76.4586 11.4753 76.4586 10.9206C76.4586 10.3553 76.3413 9.86994 76.1066 9.46461C75.8826 9.04861 75.5786 8.72861 75.1946 8.50461C74.8213 8.28061 74.4213 8.16861 73.9946 8.16861C73.568 8.16861 73.168 8.28061 72.7946 8.50461C72.4213 8.72861 72.1173 9.04861 71.8826 9.46461C71.648 9.86994 71.5306 10.3553 71.5306 10.9206C71.5306 11.4859 71.648 11.9766 71.8826 12.3926C72.1173 12.7979 72.4213 13.1126 72.7946 13.3366C73.168 13.5606 73.568 13.6726 73.9946 13.6726ZM82.468 15.2566C81.8813 15.2566 81.3587 15.1393 80.9 14.9046C80.452 14.6699 80.0947 14.3499 79.828 13.9446C79.572 13.5286 79.444 13.0539 79.444 12.5206C79.444 11.9339 79.5933 11.4379 79.892 11.0326C80.2013 10.6273 80.612 10.3179 81.124 10.1046C81.636 9.89128 82.2013 9.78461 82.82 9.78461C83.1613 9.78461 83.476 9.81128 83.764 9.86461C84.0627 9.90728 84.3187 9.96061 84.532 10.0246C84.756 10.0886 84.932 10.1579 85.06 10.2326V9.80061C85.06 9.26728 84.868 8.84061 84.484 8.52061C84.1 8.20061 83.604 8.04061 82.996 8.04061C82.58 8.04061 82.1853 8.13661 81.812 8.32861C81.4387 8.50994 81.14 8.76061 80.916 9.08061L79.732 8.16861C79.9667 7.83794 80.2493 7.55528 80.58 7.32061C80.9213 7.08594 81.3 6.90461 81.716 6.77661C82.1427 6.64861 82.5853 6.58461 83.044 6.58461C84.228 6.58461 85.14 6.87794 85.78 7.46461C86.42 8.04061 86.74 8.85128 86.74 9.89661V15.0006H85.06V13.9926H84.964C84.8253 14.2059 84.6333 14.4086 84.388 14.6006C84.1533 14.7926 83.8707 14.9473 83.54 15.0646C83.22 15.1926 82.8627 15.2566 82.468 15.2566ZM82.772 13.8486C83.22 13.8486 83.6147 13.7419 83.956 13.5286C84.308 13.3153 84.58 13.0379 84.772 12.6966C84.964 12.3446 85.06 11.9659 85.06 11.5606C84.8253 11.4219 84.5373 11.3099 84.196 11.2246C83.8653 11.1286 83.5133 11.0806 83.14 11.0806C82.436 11.0806 81.9347 11.2193 81.636 11.4966C81.3373 11.7739 81.188 12.1206 81.188 12.5366C81.188 12.9206 81.332 13.2353 81.62 13.4806C81.908 13.7259 82.292 13.8486 82.772 13.8486ZM92.3942 18.7126C91.6796 18.7126 91.0609 18.5953 90.5382 18.3606C90.0262 18.1366 89.6102 17.8433 89.2902 17.4806C88.9702 17.1286 88.7409 16.7659 88.6022 16.3926L90.2022 15.7206C90.3729 16.1473 90.6449 16.4939 91.0182 16.7606C91.4022 17.0379 91.8609 17.1766 92.3942 17.1766C93.1516 17.1766 93.7436 16.9526 94.1702 16.5046C94.5969 16.0566 94.8102 15.4219 94.8102 14.6006V13.8166H94.7142C94.4582 14.1899 94.1062 14.4939 93.6582 14.7286C93.2102 14.9633 92.6929 15.0806 92.1062 15.0806C91.4129 15.0806 90.7729 14.9046 90.1862 14.5526C89.6102 14.2006 89.1462 13.7099 88.7942 13.0806C88.4529 12.4406 88.2822 11.6939 88.2822 10.8406C88.2822 9.97661 88.4529 9.22994 88.7942 8.60061C89.1462 7.96061 89.6102 7.46461 90.1862 7.11261C90.7729 6.76061 91.4129 6.58461 92.1062 6.58461C92.6929 6.58461 93.2102 6.70194 93.6582 6.93661C94.1062 7.16061 94.4582 7.46994 94.7142 7.86461H94.8102V6.84061H96.4582V14.5686C96.4582 15.4539 96.2822 16.2059 95.9302 16.8246C95.5889 17.4433 95.1142 17.9126 94.5062 18.2326C93.8982 18.5526 93.1942 18.7126 92.3942 18.7126ZM92.4102 13.5126C92.8369 13.5126 93.2316 13.4113 93.5942 13.2086C93.9676 12.9953 94.2609 12.6913 94.4742 12.2966C94.6982 11.8913 94.8102 11.4059 94.8102 10.8406C94.8102 10.2433 94.6982 9.74728 94.4742 9.35261C94.2609 8.95794 93.9676 8.65928 93.5942 8.45661C93.2316 8.25394 92.8369 8.15261 92.4102 8.15261C91.9836 8.15261 91.5836 8.25394 91.2102 8.45661C90.8476 8.65928 90.5542 8.96328 90.3302 9.36861C90.1062 9.76328 89.9942 10.2539 89.9942 10.8406C89.9942 11.4166 90.1062 11.9073 90.3302 12.3126C90.5542 12.7073 90.8476 13.0059 91.2102 13.2086C91.5836 13.4113 91.9836 13.5126 92.4102 13.5126ZM92.5382 5.30461C92.1649 5.30461 91.8182 5.21394 91.4982 5.03261C91.1782 4.85128 90.9169 4.60594 90.7142 4.29661C90.5222 3.98728 90.4262 3.62994 90.4262 3.22461H91.7062C91.7062 3.44861 91.7809 3.64594 91.9302 3.81661C92.0796 3.98728 92.2822 4.07261 92.5382 4.07261C92.7836 4.07261 92.9756 3.98728 93.1142 3.81661C93.2636 3.64594 93.3382 3.44861 93.3382 3.22461H94.6182C94.6182 3.61928 94.5222 3.97661 94.3302 4.29661C94.1382 4.60594 93.8822 4.85128 93.5622 5.03261C93.2422 5.21394 92.9009 5.30461 92.5382 5.30461ZM98.7579 15.0006V6.84061H100.486V15.0006H98.7579ZM105.981 18.7926C105.619 18.7926 105.299 18.6859 105.021 18.4726C104.755 18.2699 104.563 18.0193 104.445 17.7206L105.357 17.3366C105.4 17.4753 105.475 17.5926 105.581 17.6886C105.699 17.7953 105.832 17.8486 105.981 17.8486C106.173 17.8486 106.323 17.7899 106.429 17.6726C106.547 17.5553 106.605 17.4166 106.605 17.2566C106.605 17.0859 106.547 16.9366 106.429 16.8086C106.323 16.6806 106.173 16.6166 105.981 16.6166C105.875 16.6166 105.779 16.6379 105.693 16.6806C105.619 16.7339 105.549 16.7926 105.485 16.8566L104.653 16.4886L105.133 15.2246C104.707 15.1819 104.328 15.0913 103.997 14.9526C103.517 14.7606 103.123 14.4993 102.813 14.1686C102.504 13.8273 102.275 13.4593 102.125 13.0646L103.677 12.3926C103.869 12.8299 104.141 13.1659 104.493 13.4006C104.856 13.6246 105.272 13.7366 105.741 13.7366C106.168 13.7366 106.536 13.6619 106.845 13.5126C107.155 13.3526 107.309 13.0966 107.309 12.7446C107.309 12.5206 107.235 12.3393 107.085 12.2006C106.947 12.0513 106.755 11.9286 106.509 11.8326C106.275 11.7366 106.003 11.6513 105.693 11.5766L104.717 11.3526C104.333 11.2566 103.965 11.1073 103.613 10.9046C103.272 10.6913 102.995 10.4246 102.781 10.1046C102.568 9.78461 102.461 9.40594 102.461 8.96861C102.461 8.47794 102.6 8.05661 102.877 7.70461C103.165 7.34194 103.549 7.06461 104.029 6.87261C104.509 6.68061 105.027 6.58461 105.581 6.58461C106.093 6.58461 106.557 6.65394 106.973 6.79261C107.4 6.92061 107.768 7.11794 108.077 7.38461C108.397 7.64061 108.648 7.96061 108.829 8.34461L107.341 9.01661C107.16 8.65394 106.915 8.40328 106.605 8.26461C106.296 8.11528 105.96 8.04061 105.597 8.04061C105.192 8.04061 104.851 8.12594 104.573 8.29661C104.307 8.45661 104.173 8.66994 104.173 8.93661C104.173 9.21394 104.291 9.43261 104.525 9.59261C104.771 9.75261 105.069 9.88061 105.421 9.97661L106.605 10.2646C107.416 10.4673 108.024 10.7766 108.429 11.1926C108.835 11.5979 109.037 12.0939 109.037 12.6806C109.037 13.2033 108.888 13.6619 108.589 14.0566C108.291 14.4406 107.891 14.7339 107.389 14.9366C106.984 15.1073 106.547 15.2086 106.077 15.2406L105.837 15.7686C105.891 15.7579 105.944 15.7473 105.997 15.7366C106.051 15.7366 106.109 15.7366 106.173 15.7366C106.579 15.7366 106.925 15.8753 107.213 16.1526C107.501 16.4299 107.645 16.7979 107.645 17.2566C107.645 17.5339 107.576 17.7899 107.437 18.0246C107.299 18.2593 107.101 18.4459 106.845 18.5846C106.6 18.7233 106.312 18.7926 105.981 18.7926ZM117.364 18.0566C117.332 18.1313 117.295 18.2059 117.252 18.2806C117.22 18.3659 117.199 18.4246 117.188 18.4566H115.348C115.401 18.3393 115.476 18.1739 115.572 17.9606C115.679 17.7473 115.78 17.5339 115.876 17.3206C115.94 17.1819 116.004 17.0326 116.068 16.8726C116.143 16.7126 116.217 16.5473 116.292 16.3766C116.377 16.2059 116.457 16.0406 116.532 15.8806L117.14 14.5526L113.732 6.84061H115.652L117.988 12.4086H118.068L120.324 6.84061H122.228L118.004 16.5686C117.929 16.7499 117.844 16.9419 117.748 17.1446C117.663 17.3473 117.583 17.5286 117.508 17.6886C117.444 17.8593 117.396 17.9819 117.364 18.0566ZM125.68 15.2566C125.094 15.2566 124.571 15.1393 124.112 14.9046C123.664 14.6699 123.307 14.3499 123.04 13.9446C122.784 13.5286 122.656 13.0539 122.656 12.5206C122.656 11.9339 122.806 11.4379 123.104 11.0326C123.414 10.6273 123.824 10.3179 124.336 10.1046C124.848 9.89128 125.414 9.78461 126.032 9.78461C126.374 9.78461 126.688 9.81128 126.976 9.86461C127.275 9.90728 127.531 9.96061 127.744 10.0246C127.968 10.0886 128.144 10.1579 128.272 10.2326V9.80061C128.272 9.26728 128.08 8.84061 127.696 8.52061C127.312 8.20061 126.816 8.04061 126.208 8.04061C125.792 8.04061 125.398 8.13661 125.024 8.32861C124.651 8.50994 124.352 8.76061 124.128 9.08061L122.944 8.16861C123.179 7.83794 123.462 7.55528 123.792 7.32061C124.134 7.08594 124.512 6.90461 124.928 6.77661C125.355 6.64861 125.798 6.58461 126.256 6.58461C127.44 6.58461 128.352 6.87794 128.992 7.46461C129.632 8.04061 129.952 8.85128 129.952 9.89661V15.0006H128.272V13.9926H128.176C128.038 14.2059 127.846 14.4086 127.6 14.6006C127.366 14.7926 127.083 14.9473 126.752 15.0646C126.432 15.1926 126.075 15.2566 125.68 15.2566ZM125.984 13.8486C126.432 13.8486 126.827 13.7419 127.168 13.5286C127.52 13.3153 127.792 13.0379 127.984 12.6966C128.176 12.3446 128.272 11.9659 128.272 11.5606C128.038 11.4219 127.75 11.3099 127.408 11.2246C127.078 11.1286 126.726 11.0806 126.352 11.0806C125.648 11.0806 125.147 11.2193 124.848 11.4966C124.55 11.7739 124.4 12.1206 124.4 12.5366C124.4 12.9206 124.544 13.2353 124.832 13.4806C125.12 13.7259 125.504 13.8486 125.984 13.8486ZM131.989 18.4566V6.84061H133.605V7.94461H133.701C133.85 7.70994 134.048 7.49128 134.293 7.28861C134.549 7.07528 134.848 6.90461 135.189 6.77661C135.53 6.64861 135.909 6.58461 136.325 6.58461C137.072 6.58461 137.738 6.77128 138.325 7.14461C138.912 7.51794 139.376 8.02994 139.717 8.68061C140.069 9.33128 140.245 10.0779 140.245 10.9206C140.245 11.7633 140.069 12.5099 139.717 13.1606C139.376 13.8113 138.912 14.3233 138.325 14.6966C137.738 15.0699 137.072 15.2566 136.325 15.2566C135.706 15.2566 135.168 15.1179 134.709 14.8406C134.25 14.5633 133.914 14.2539 133.701 13.9126H133.605L133.701 15.0486V18.4566H131.989ZM136.069 13.6726C136.496 13.6726 136.896 13.5606 137.269 13.3366C137.653 13.1126 137.957 12.7926 138.181 12.3766C138.416 11.9606 138.533 11.4753 138.533 10.9206C138.533 10.3553 138.416 9.86994 138.181 9.46461C137.957 9.04861 137.653 8.72861 137.269 8.50461C136.896 8.28061 136.496 8.16861 136.069 8.16861C135.642 8.16861 135.242 8.28061 134.869 8.50461C134.496 8.72861 134.192 9.04861 133.957 9.46461C133.722 9.86994 133.605 10.3553 133.605 10.9206C133.605 11.4859 133.722 11.9766 133.957 12.3926C134.192 12.7979 134.496 13.1126 134.869 13.3366C135.242 13.5606 135.642 13.6726 136.069 13.6726Z" fill="white"/>
</g>
</svg>
