<svg width="258" height="38" viewBox="0 0 258 38" fill="none" xmlns="http://www.w3.org/2000/svg">
<g id="tr_donate_with_Light">
<g id="GPay Logo (Light)">
<g id="GPay">
<g id="Pay">
<path id="Fill 1" fill-rule="evenodd" clip-rule="evenodd" d="M38.5289 9.44664V17.6128H43.5649C44.7645 17.6128 45.7565 17.2096 46.5413 16.4032C47.3467 15.5988 47.7503 14.6394 47.7503 13.5288C47.7503 12.4406 47.3467 11.4924 46.5413 10.686C45.7565 9.85915 44.7645 9.44478 43.5649 9.44478H38.5289V9.44664ZM38.5289 20.4872V29.9599H35.5205V6.57217H43.4993C45.5269 6.57217 47.2478 7.24786 48.6659 8.59737C50.1049 9.94688 50.8241 11.5913 50.8241 13.5288C50.8241 15.511 50.1047 17.1667 48.6659 18.4938C47.2701 19.8227 45.5473 20.4854 43.4993 20.4854H38.5289V20.4872Z" fill="#5F6368"/>
<path id="Fill 3" fill-rule="evenodd" clip-rule="evenodd" d="M53.8642 25.0602C53.8642 25.8442 54.1968 26.4975 54.8622 27.0201C55.5272 27.5427 56.3064 27.804 57.1998 27.804C58.4646 27.804 59.5913 27.3354 60.5835 26.4004C61.5759 25.4634 62.0709 24.364 62.0709 23.1022C61.1329 22.3612 59.8249 21.9916 58.1469 21.9916C56.9251 21.9916 55.9067 22.2865 55.0901 22.8745C54.2734 23.4623 53.8642 24.1886 53.8642 25.0602ZM57.7564 13.4317C59.98 13.4317 61.7346 14.0252 63.0222 15.2124C64.3078 16.3995 64.9504 18.0271 64.9504 20.0952V29.9599H62.073V27.7387H61.942C60.6994 29.5677 59.042 30.4825 56.9718 30.4825C55.206 30.4825 53.7279 29.9599 52.5412 28.9146C51.353 27.8694 50.7588 26.5628 50.7588 24.9949C50.7588 23.3393 51.3846 22.0232 52.6384 21.0434C53.8922 20.0635 55.5648 19.5726 57.6576 19.5726C59.4437 19.5726 60.9162 19.8992 62.0709 20.5525V19.8656C62.0709 18.8204 61.6561 17.9338 60.8285 17.204C59.9987 16.4741 59.0308 16.1102 57.919 16.1102C56.2391 16.1102 54.9108 16.8176 53.9298 18.2343L51.2799 16.5675C52.7412 14.4769 54.8994 13.4317 57.7564 13.4317Z" fill="#5F6368"/>
<path id="Fill 5" fill-rule="evenodd" clip-rule="evenodd" d="M81.4629 13.9543L71.4233 37.0154H68.3175L72.0455 28.9464L65.4399 13.9543H68.7099L73.4841 25.4522H73.5495L78.1929 13.9543H81.4629Z" fill="#5F6368"/>
</g>
<g id="G">
<path id="Fill 8" fill-rule="evenodd" clip-rule="evenodd" d="M26.3729 18.4452C26.3729 17.4989 26.2926 16.5861 26.1412 15.7126H13.4536V20.8885H20.7205C20.4084 22.5757 19.4648 24.0112 18.0335 24.9725V28.3341H22.3704C24.9098 25.9935 26.3729 22.5348 26.3729 18.4452Z" fill="#4285F4"/>
<path id="Fill 10" fill-rule="evenodd" clip-rule="evenodd" d="M13.4536 31.5782C17.0843 31.5782 20.1412 30.3873 22.3704 28.3341L18.0335 24.9725C16.8264 25.7844 15.2717 26.2585 13.4536 26.2585C9.94445 26.2585 6.96594 23.8955 5.90086 20.7112H1.43311V24.1736C3.64736 28.5637 8.19733 31.5782 13.4536 31.5782Z" fill="#34A853"/>
<path id="Fill 12" fill-rule="evenodd" clip-rule="evenodd" d="M5.90095 20.7111C5.62814 19.8992 5.47865 19.0331 5.47865 18.139C5.47865 17.245 5.62814 16.3789 5.90095 15.567V12.1045H1.43319C0.517594 13.9188 0 15.9683 0 18.139C0 20.3098 0.517594 22.3595 1.43319 24.1736L5.90095 20.7111Z" fill="#FABB05"/>
<path id="Fill 14" fill-rule="evenodd" clip-rule="evenodd" d="M13.4536 10.0196C15.4362 10.0196 17.2132 10.7009 18.6146 12.0355V12.0374L22.4545 8.20162C20.1226 6.03271 17.0824 4.7 13.4536 4.7C8.19733 4.7 3.64736 7.71446 1.43311 12.1046L5.90086 15.567C6.96594 12.3827 9.94445 10.0196 13.4536 10.0196Z" fill="#E94235"/>
</g>
</g>
</g>
<path id="Text" d="M96.5 13.62C95.94 13.62 95.4547 13.424 95.044 13.032C94.652 12.6213 94.456 12.136 94.456 11.576C94.456 11.016 94.652 10.54 95.044 10.148C95.4547 9.756 95.94 9.56 96.5 9.56C97.06 9.56 97.536 9.756 97.928 10.148C98.3387 10.54 98.544 11.016 98.544 11.576C98.544 12.136 98.3387 12.6213 97.928 13.032C97.536 13.424 97.06 13.62 96.5 13.62ZM94.988 30V15.72H98.012V30H94.988ZM102.092 30V9.952H105.116V30H102.092ZM115.368 30.448C113.968 30.448 112.718 30.1213 111.616 29.468C110.515 28.8147 109.647 27.9187 109.012 26.78C108.396 25.6413 108.088 24.344 108.088 22.888C108.088 21.5253 108.387 20.2653 108.984 19.108C109.582 17.9507 110.412 17.0267 111.476 16.336C112.559 15.6267 113.8 15.272 115.2 15.272C116.675 15.272 117.926 15.5893 118.952 16.224C119.998 16.8587 120.791 17.7267 121.332 18.828C121.874 19.9293 122.144 21.1707 122.144 22.552C122.144 22.7573 122.135 22.944 122.116 23.112C122.116 23.28 122.107 23.4107 122.088 23.504H111.056C111.206 24.9227 111.7 25.9867 112.54 26.696C113.399 27.4053 114.37 27.76 115.452 27.76C116.423 27.76 117.226 27.5453 117.86 27.116C118.495 26.668 118.999 26.1173 119.372 25.464L121.864 26.668C121.248 27.788 120.408 28.7027 119.344 29.412C118.28 30.1027 116.955 30.448 115.368 30.448ZM115.228 17.848C114.22 17.848 113.362 18.156 112.652 18.772C111.943 19.388 111.467 20.2093 111.224 21.236H119.148C119.111 20.7507 118.952 20.2467 118.672 19.724C118.392 19.2013 117.963 18.7627 117.384 18.408C116.824 18.0347 116.106 17.848 115.228 17.848ZM139.701 30.448C138.6 30.448 137.648 30.2147 136.845 29.748C136.061 29.2627 135.482 28.712 135.109 28.096H134.941V30H132.085V9.952H135.109V15.664L134.941 17.652H135.109C135.482 17.036 136.061 16.4853 136.845 16C137.648 15.5147 138.6 15.272 139.701 15.272C141.008 15.272 142.174 15.5987 143.201 16.252C144.228 16.9053 145.04 17.8013 145.637 18.94C146.253 20.0787 146.561 21.3853 146.561 22.86C146.561 24.3347 146.253 25.6507 145.637 26.808C145.04 27.9467 144.228 28.8427 143.201 29.496C142.174 30.1307 141.008 30.448 139.701 30.448ZM139.253 27.676C140 27.676 140.7 27.48 141.353 27.088C142.006 26.696 142.538 26.1453 142.949 25.436C143.36 24.708 143.565 23.8493 143.565 22.86C143.565 21.8707 143.36 21.0213 142.949 20.312C142.538 19.584 142.006 19.024 141.353 18.632C140.7 18.24 140 18.044 139.253 18.044C138.506 18.044 137.806 18.24 137.153 18.632C136.5 19.024 135.968 19.584 135.557 20.312C135.146 21.0213 134.941 21.8707 134.941 22.86C134.941 23.8493 135.146 24.708 135.557 25.436C135.968 26.1453 136.5 26.696 137.153 27.088C137.806 27.48 138.506 27.676 139.253 27.676ZM154.119 30.448C153.092 30.448 152.178 30.252 151.375 29.86C150.572 29.4493 149.947 28.88 149.499 28.152C149.051 27.424 148.827 26.5933 148.827 25.66C148.827 24.652 149.088 23.7933 149.611 23.084C150.152 22.356 150.871 21.8053 151.767 21.432C152.663 21.0587 153.652 20.872 154.735 20.872C155.631 20.872 156.415 20.956 157.087 21.124C157.778 21.292 158.3 21.4693 158.655 21.656V20.9C158.655 19.9667 158.319 19.22 157.647 18.66C156.975 18.1 156.107 17.82 155.043 17.82C154.315 17.82 153.624 17.988 152.971 18.324C152.318 18.6413 151.795 19.08 151.403 19.64L149.331 18.044C149.947 17.1853 150.759 16.5133 151.767 16.028C152.794 15.524 153.914 15.272 155.127 15.272C157.199 15.272 158.795 15.7853 159.915 16.812C161.035 17.82 161.595 19.2387 161.595 21.068V30H158.655V28.236H158.487C158.114 28.8147 157.554 29.328 156.807 29.776C156.06 30.224 155.164 30.448 154.119 30.448ZM154.651 27.984C155.435 27.984 156.126 27.7973 156.723 27.424C157.32 27.0507 157.787 26.5653 158.123 25.968C158.478 25.352 158.655 24.6893 158.655 23.98C158.226 23.7373 157.722 23.5413 157.143 23.392C156.564 23.224 155.948 23.14 155.295 23.14C154.063 23.14 153.186 23.392 152.663 23.896C152.14 24.3813 151.879 24.9787 151.879 25.688C151.879 26.36 152.131 26.9107 152.635 27.34C153.139 27.7693 153.811 27.984 154.651 27.984ZM171.527 36.496C170.277 36.496 169.194 36.2907 168.279 35.88C167.383 35.488 166.655 34.9747 166.095 34.34C165.535 33.724 165.134 33.0893 164.891 32.436L167.691 31.26C167.99 32.0067 168.466 32.6133 169.119 33.08C169.791 33.5653 170.594 33.808 171.527 33.808C172.834 33.808 173.861 33.416 174.607 32.632C175.373 31.848 175.755 30.7373 175.755 29.3V27.928H175.587C175.139 28.6 174.514 29.1413 173.711 29.552C172.927 29.944 172.031 30.14 171.023 30.14C169.81 30.14 168.699 29.832 167.691 29.216C166.683 28.6 165.871 27.7413 165.255 26.64C164.639 25.52 164.331 24.2133 164.331 22.72C164.331 21.208 164.639 19.9013 165.255 18.8C165.871 17.68 166.683 16.812 167.691 16.196C168.699 15.58 169.81 15.272 171.023 15.272C172.031 15.272 172.927 15.4773 173.711 15.888C174.514 16.2987 175.139 16.84 175.587 17.512H175.755V15.72H178.639V29.244C178.639 30.7933 178.331 32.1093 177.715 33.192C177.118 34.2747 176.287 35.096 175.223 35.656C174.159 36.216 172.927 36.496 171.527 36.496ZM171.555 27.396C172.302 27.396 172.993 27.2187 173.627 26.864C174.262 26.4907 174.775 25.9587 175.167 25.268C175.559 24.5587 175.755 23.7093 175.755 22.72C175.755 21.6933 175.559 20.8347 175.167 20.144C174.775 19.4347 174.262 18.9027 173.627 18.548C172.993 18.1933 172.302 18.016 171.555 18.016C170.809 18.016 170.109 18.2027 169.455 18.576C168.821 18.9307 168.307 19.4533 167.915 20.144C167.523 20.8347 167.327 21.6933 167.327 22.72C167.327 23.728 167.523 24.5867 167.915 25.296C168.307 25.9867 168.821 26.5093 169.455 26.864C170.109 27.2187 170.809 27.396 171.555 27.396ZM171.779 13.032C171.126 13.032 170.519 12.8733 169.959 12.556C169.399 12.2387 168.942 11.8093 168.587 11.268C168.251 10.708 168.083 10.0827 168.083 9.392H170.323C170.323 9.784 170.454 10.1293 170.715 10.428C170.977 10.7267 171.331 10.876 171.779 10.876C172.209 10.876 172.545 10.7267 172.787 10.428C173.049 10.1293 173.179 9.784 173.179 9.392H175.419C175.419 10.0827 175.242 10.708 174.887 11.268C174.551 11.8093 174.103 12.2387 173.543 12.556C173.002 12.8733 172.414 13.032 171.779 13.032ZM182.701 30V15.72H185.725V30H182.701ZM194.876 30.448C193.159 30.448 191.787 30.0747 190.76 29.328C189.733 28.5627 189.024 27.6573 188.632 26.612L191.348 25.436C191.684 26.2013 192.169 26.7893 192.804 27.2C193.439 27.592 194.157 27.788 194.96 27.788C195.707 27.788 196.351 27.6573 196.892 27.396C197.433 27.116 197.704 26.668 197.704 26.052C197.704 25.4547 197.433 25.016 196.892 24.736C196.351 24.456 195.679 24.2133 194.876 24.008L193.168 23.616C192.477 23.448 191.833 23.1867 191.236 22.832C190.639 22.4773 190.153 22.02 189.78 21.46C189.407 20.8813 189.22 20.2093 189.22 19.444C189.22 18.604 189.472 17.876 189.976 17.26C190.48 16.6253 191.143 16.14 191.964 15.804C192.804 15.4493 193.709 15.272 194.68 15.272C196.005 15.272 197.163 15.5333 198.152 16.056C199.16 16.56 199.897 17.3253 200.364 18.352L197.76 19.528C197.424 18.8933 196.985 18.4547 196.444 18.212C195.921 17.9507 195.343 17.82 194.708 17.82C193.999 17.82 193.401 17.9693 192.916 18.268C192.449 18.5667 192.216 18.94 192.216 19.388C192.216 19.8733 192.421 20.256 192.832 20.536C193.261 20.816 193.784 21.04 194.4 21.208L196.472 21.712C197.891 22.0667 198.955 22.608 199.664 23.336C200.373 24.0453 200.728 24.9133 200.728 25.94C200.728 26.8547 200.467 27.6573 199.944 28.348C199.421 29.02 198.712 29.5427 197.816 29.916C196.939 30.2707 195.959 30.448 194.876 30.448ZM195.38 36.636C194.727 36.636 194.157 36.4493 193.672 36.076C193.205 35.7213 192.879 35.2827 192.692 34.76L194.26 34.088C194.353 34.3307 194.493 34.536 194.68 34.704C194.867 34.8907 195.1 34.984 195.38 34.984C195.716 34.984 195.977 34.8813 196.164 34.676C196.369 34.4707 196.472 34.228 196.472 33.948C196.472 33.6493 196.369 33.388 196.164 33.164C195.977 32.94 195.716 32.828 195.38 32.828C195.193 32.828 195.025 32.8653 194.876 32.94C194.745 33.0333 194.624 33.136 194.512 33.248L193.056 32.604L194.036 30H195.716L195.128 31.344C195.296 31.3067 195.483 31.288 195.688 31.288C196.397 31.288 197.004 31.5307 197.508 32.016C198.031 32.5013 198.292 33.1453 198.292 33.948C198.292 34.6947 198.021 35.3293 197.48 35.852C196.939 36.3747 196.239 36.636 195.38 36.636ZM215.374 35.348C215.318 35.4973 215.253 35.6373 215.178 35.768C215.122 35.8987 215.085 35.992 215.066 36.048H211.846C211.94 35.8427 212.07 35.544 212.238 35.152C212.425 34.7787 212.602 34.4147 212.77 34.06C212.938 33.7053 213.116 33.304 213.302 32.856C213.508 32.408 213.713 31.9693 213.918 31.54L214.982 29.216L209.018 15.72H212.378L216.466 25.464H216.606L220.554 15.72H223.886L216.494 32.744C216.289 33.2293 216.065 33.7333 215.822 34.256C215.598 34.7973 215.449 35.1613 215.374 35.348ZM229.966 30.448C228.939 30.448 228.025 30.252 227.222 29.86C226.419 29.4493 225.794 28.88 225.346 28.152C224.898 27.424 224.674 26.5933 224.674 25.66C224.674 24.652 224.935 23.7933 225.458 23.084C225.999 22.356 226.718 21.8053 227.614 21.432C228.51 21.0587 229.499 20.872 230.582 20.872C231.478 20.872 232.262 20.956 232.934 21.124C233.625 21.292 234.147 21.4693 234.502 21.656V20.9C234.502 19.9667 234.166 19.22 233.494 18.66C232.822 18.1 231.954 17.82 230.89 17.82C230.162 17.82 229.471 17.988 228.818 18.324C228.165 18.6413 227.642 19.08 227.25 19.64L225.178 18.044C225.794 17.1853 226.606 16.5133 227.614 16.028C228.641 15.524 229.761 15.272 230.974 15.272C233.046 15.272 234.642 15.7853 235.762 16.812C236.882 17.82 237.442 19.2387 237.442 21.068V30H234.502V28.236H234.334C233.961 28.8147 233.401 29.328 232.654 29.776C231.907 30.224 231.011 30.448 229.966 30.448ZM230.498 27.984C231.282 27.984 231.973 27.7973 232.57 27.424C233.167 27.0507 233.634 26.5653 233.97 25.968C234.325 25.352 234.502 24.6893 234.502 23.98C234.073 23.7373 233.569 23.5413 232.99 23.392C232.411 23.224 231.795 23.14 231.142 23.14C229.91 23.14 229.033 23.392 228.51 23.896C227.987 24.3813 227.726 24.9787 227.726 25.688C227.726 26.36 227.978 26.9107 228.482 27.34C228.986 27.7693 229.658 27.984 230.498 27.984ZM241.043 36.048V15.72H243.871V17.652H244.039C244.412 17.036 244.991 16.4853 245.775 16C246.578 15.5147 247.53 15.272 248.631 15.272C249.938 15.272 251.104 15.5987 252.131 16.252C253.158 16.9053 253.97 17.8013 254.567 18.94C255.183 20.0787 255.491 21.3853 255.491 22.86C255.491 24.3347 255.183 25.6507 254.567 26.808C253.97 27.9467 253.158 28.8427 252.131 29.496C251.104 30.1307 249.938 30.448 248.631 30.448C247.53 30.448 246.578 30.2147 245.775 29.748C244.991 29.2627 244.412 28.712 244.039 28.096H243.871L244.039 30.084V36.048H241.043ZM248.183 27.676C248.93 27.676 249.63 27.48 250.283 27.088C250.936 26.696 251.468 26.1453 251.879 25.436C252.29 24.708 252.495 23.8493 252.495 22.86C252.495 21.8707 252.29 21.0213 251.879 20.312C251.468 19.584 250.936 19.024 250.283 18.632C249.63 18.24 248.93 18.044 248.183 18.044C247.436 18.044 246.736 18.24 246.083 18.632C245.43 19.024 244.898 19.584 244.487 20.312C244.076 21.0213 243.871 21.8707 243.871 22.86C243.871 23.8493 244.076 24.708 244.487 25.436C244.898 26.1453 245.43 26.696 246.083 27.088C246.736 27.48 247.436 27.676 248.183 27.676Z" fill="#3C4043"/>
</g>
</svg>
