<svg width="270" height="38" viewBox="0 0 270 38" fill="none" xmlns="http://www.w3.org/2000/svg">
<g id="tr_order_with_Dark">
<g id="GPay Logo (Dark)">
<g id="GPay">
<g id="Pay">
<path id="Fill 1" fill-rule="evenodd" clip-rule="evenodd" d="M38.5289 9.34665V17.5128H43.5649C44.7645 17.5128 45.7565 17.1096 46.5413 16.3032C47.3467 15.4988 47.7503 14.5394 47.7503 13.4288C47.7503 12.3406 47.3467 11.3924 46.5413 10.586C45.7565 9.75916 44.7645 9.34479 43.5649 9.34479H38.5289V9.34665ZM38.5289 20.3872V29.8599H35.5205V6.47218H43.4993C45.5269 6.47218 47.2478 7.14787 48.6659 8.49738C50.1049 9.84688 50.8241 11.4913 50.8241 13.4288C50.8241 15.411 50.1047 17.0667 48.6659 18.3938C47.2701 19.7227 45.5473 20.3854 43.4993 20.3854H38.5289V20.3872Z" fill="white"/>
<path id="Fill 3" fill-rule="evenodd" clip-rule="evenodd" d="M53.8642 24.9602C53.8642 25.7442 54.1968 26.3975 54.8622 26.9201C55.5272 27.4427 56.3064 27.704 57.1998 27.704C58.4646 27.704 59.5913 27.2354 60.5835 26.3004C61.5759 25.3634 62.0709 24.264 62.0709 23.0022C61.1329 22.2612 59.8249 21.8916 58.1469 21.8916C56.9251 21.8916 55.9067 22.1866 55.0901 22.7745C54.2734 23.3623 53.8642 24.0886 53.8642 24.9602ZM57.7564 13.3317C59.98 13.3317 61.7346 13.9253 63.0222 15.1124C64.3078 16.2995 64.9504 17.9271 64.9504 19.9952V29.8599H62.073V27.6387H61.942C60.6994 29.4677 59.042 30.3825 56.9718 30.3825C55.206 30.3825 53.7279 29.8599 52.5412 28.8146C51.353 27.7694 50.7588 26.4628 50.7588 24.8949C50.7588 23.2393 51.3846 21.9232 52.6384 20.9434C53.8922 19.9635 55.5648 19.4726 57.6576 19.4726C59.4437 19.4726 60.9162 19.7993 62.0709 20.4525V19.7657C62.0709 18.7204 61.6561 17.8338 60.8285 17.104C59.9987 16.3742 59.0308 16.0102 57.919 16.0102C56.2391 16.0102 54.9108 16.7176 53.9298 18.1343L51.2799 16.4675C52.7412 14.377 54.8994 13.3317 57.7564 13.3317Z" fill="white"/>
<path id="Fill 5" fill-rule="evenodd" clip-rule="evenodd" d="M81.4629 13.8543L71.4233 36.9154H68.3175L72.0455 28.8464L65.4399 13.8543H68.7099L73.4841 25.3522H73.5495L78.1929 13.8543H81.4629Z" fill="white"/>
</g>
<g id="G">
<path id="Fill 8" fill-rule="evenodd" clip-rule="evenodd" d="M26.3729 18.3452C26.3729 17.3989 26.2926 16.4861 26.1412 15.6126H13.4536V20.7885H20.7205C20.4084 22.4757 19.4648 23.9112 18.0335 24.8725V28.2341H22.3704C24.9098 25.8935 26.3729 22.4348 26.3729 18.3452Z" fill="#4285F4"/>
<path id="Fill 10" fill-rule="evenodd" clip-rule="evenodd" d="M13.4536 31.4782C17.0843 31.4782 20.1412 30.2873 22.3704 28.2341L18.0335 24.8725C16.8264 25.6844 15.2717 26.1585 13.4536 26.1585C9.94445 26.1585 6.96594 23.7955 5.90086 20.6112H1.43311V24.0736C3.64736 28.4637 8.19733 31.4782 13.4536 31.4782Z" fill="#34A853"/>
<path id="Fill 12" fill-rule="evenodd" clip-rule="evenodd" d="M5.90095 20.6111C5.62814 19.7992 5.47865 18.9331 5.47865 18.0391C5.47865 17.145 5.62814 16.2789 5.90095 15.467V12.0045H1.43319C0.517594 13.8188 0 15.8683 0 18.0391C0 20.2098 0.517594 22.2595 1.43319 24.0736L5.90095 20.6111Z" fill="#FABB05"/>
<path id="Fill 14" fill-rule="evenodd" clip-rule="evenodd" d="M13.4536 9.91964C15.4362 9.91964 17.2132 10.6009 18.6146 11.9355V11.9374L22.4545 8.10163C20.1226 5.93272 17.0824 4.60001 13.4536 4.60001C8.19733 4.60001 3.64736 7.61447 1.43311 12.0046L5.90086 15.467C6.96594 12.2827 9.94445 9.91964 13.4536 9.91964Z" fill="#E94235"/>
</g>
</g>
</g>
<path id="Text" d="M96.5 13.62C95.94 13.62 95.4547 13.424 95.044 13.032C94.652 12.6213 94.456 12.136 94.456 11.576C94.456 11.016 94.652 10.54 95.044 10.148C95.4547 9.756 95.94 9.56 96.5 9.56C97.06 9.56 97.536 9.756 97.928 10.148C98.3387 10.54 98.544 11.016 98.544 11.576C98.544 12.136 98.3387 12.6213 97.928 13.032C97.536 13.424 97.06 13.62 96.5 13.62ZM94.988 30V15.72H98.012V30H94.988ZM102.092 30V9.952H105.116V30H102.092ZM115.368 30.448C113.968 30.448 112.718 30.1213 111.616 29.468C110.515 28.8147 109.647 27.9187 109.012 26.78C108.396 25.6413 108.088 24.344 108.088 22.888C108.088 21.5253 108.387 20.2653 108.984 19.108C109.582 17.9507 110.412 17.0267 111.476 16.336C112.559 15.6267 113.8 15.272 115.2 15.272C116.675 15.272 117.926 15.5893 118.952 16.224C119.998 16.8587 120.791 17.7267 121.332 18.828C121.874 19.9293 122.144 21.1707 122.144 22.552C122.144 22.7573 122.135 22.944 122.116 23.112C122.116 23.28 122.107 23.4107 122.088 23.504H111.056C111.206 24.9227 111.7 25.9867 112.54 26.696C113.399 27.4053 114.37 27.76 115.452 27.76C116.423 27.76 117.226 27.5453 117.86 27.116C118.495 26.668 118.999 26.1173 119.372 25.464L121.864 26.668C121.248 27.788 120.408 28.7027 119.344 29.412C118.28 30.1027 116.955 30.448 115.368 30.448ZM115.228 17.848C114.22 17.848 113.362 18.156 112.652 18.772C111.943 19.388 111.467 20.2093 111.224 21.236H119.148C119.111 20.7507 118.952 20.2467 118.672 19.724C118.392 19.2013 117.963 18.7627 117.384 18.408C116.824 18.0347 116.106 17.848 115.228 17.848ZM137.293 30.448C135.576 30.448 134.204 30.0747 133.177 29.328C132.15 28.5627 131.441 27.6573 131.049 26.612L133.765 25.436C134.101 26.2013 134.586 26.7893 135.221 27.2C135.856 27.592 136.574 27.788 137.377 27.788C138.124 27.788 138.768 27.6573 139.309 27.396C139.85 27.116 140.121 26.668 140.121 26.052C140.121 25.4547 139.85 25.016 139.309 24.736C138.768 24.456 138.096 24.2133 137.293 24.008L135.585 23.616C134.894 23.448 134.25 23.1867 133.653 22.832C133.056 22.4773 132.57 22.02 132.197 21.46C131.824 20.8813 131.637 20.2093 131.637 19.444C131.637 18.604 131.889 17.876 132.393 17.26C132.897 16.6253 133.56 16.14 134.381 15.804C135.221 15.4493 136.126 15.272 137.097 15.272C138.422 15.272 139.58 15.5333 140.569 16.056C141.577 16.56 142.314 17.3253 142.781 18.352L140.177 19.528C139.841 18.8933 139.402 18.4547 138.861 18.212C138.338 17.9507 137.76 17.82 137.125 17.82C136.416 17.82 135.818 17.9693 135.333 18.268C134.866 18.5667 134.633 18.94 134.633 19.388C134.633 19.8733 134.838 20.256 135.249 20.536C135.678 20.816 136.201 21.04 136.817 21.208L138.889 21.712C140.308 22.0667 141.372 22.608 142.081 23.336C142.79 24.0453 143.145 24.9133 143.145 25.94C143.145 26.8547 142.884 27.6573 142.361 28.348C141.838 29.02 141.129 29.5427 140.233 29.916C139.356 30.2707 138.376 30.448 137.293 30.448ZM147.684 13.62C147.124 13.62 146.638 13.424 146.228 13.032C145.836 12.6213 145.64 12.136 145.64 11.576C145.64 11.016 145.836 10.54 146.228 10.148C146.638 9.756 147.124 9.56 147.684 9.56C148.244 9.56 148.72 9.756 149.112 10.148C149.522 10.54 149.728 11.016 149.728 11.576C149.728 12.136 149.522 12.6213 149.112 13.032C148.72 13.424 148.244 13.62 147.684 13.62ZM146.172 30V15.72H149.196V30H146.172ZM153.22 36.048V15.72H156.048V17.652H156.216C156.589 17.036 157.168 16.4853 157.952 16C158.754 15.5147 159.706 15.272 160.808 15.272C162.114 15.272 163.281 15.5987 164.308 16.252C165.334 16.9053 166.146 17.8013 166.744 18.94C167.36 20.0787 167.668 21.3853 167.668 22.86C167.668 24.3347 167.36 25.6507 166.744 26.808C166.146 27.9467 165.334 28.8427 164.308 29.496C163.281 30.1307 162.114 30.448 160.808 30.448C159.706 30.448 158.754 30.2147 157.952 29.748C157.168 29.2627 156.589 28.712 156.216 28.096H156.048L156.216 30.084V36.048H153.22ZM160.36 27.676C161.106 27.676 161.806 27.48 162.46 27.088C163.113 26.696 163.645 26.1453 164.056 25.436C164.466 24.708 164.672 23.8493 164.672 22.86C164.672 21.8707 164.466 21.0213 164.056 20.312C163.645 19.584 163.113 19.024 162.46 18.632C161.806 18.24 161.106 18.044 160.36 18.044C159.613 18.044 158.913 18.24 158.26 18.632C157.606 19.024 157.074 19.584 156.664 20.312C156.253 21.0213 156.048 21.8707 156.048 22.86C156.048 23.8493 156.253 24.708 156.664 25.436C157.074 26.1453 157.606 26.696 158.26 27.088C158.913 27.48 159.613 27.676 160.36 27.676ZM175.227 30.448C174.2 30.448 173.285 30.252 172.483 29.86C171.68 29.4493 171.055 28.88 170.607 28.152C170.159 27.424 169.935 26.5933 169.935 25.66C169.935 24.652 170.196 23.7933 170.719 23.084C171.26 22.356 171.979 21.8053 172.875 21.432C173.771 21.0587 174.76 20.872 175.843 20.872C176.739 20.872 177.523 20.956 178.195 21.124C178.885 21.292 179.408 21.4693 179.763 21.656V20.9C179.763 19.9667 179.427 19.22 178.755 18.66C178.083 18.1 177.215 17.82 176.151 17.82C175.423 17.82 174.732 17.988 174.079 18.324C173.425 18.6413 172.903 19.08 172.511 19.64L170.439 18.044C171.055 17.1853 171.867 16.5133 172.875 16.028C173.901 15.524 175.021 15.272 176.235 15.272C178.307 15.272 179.903 15.7853 181.023 16.812C182.143 17.82 182.703 19.2387 182.703 21.068V30H179.763V28.236H179.595C179.221 28.8147 178.661 29.328 177.915 29.776C177.168 30.224 176.272 30.448 175.227 30.448ZM175.759 27.984C176.543 27.984 177.233 27.7973 177.831 27.424C178.428 27.0507 178.895 26.5653 179.231 25.968C179.585 25.352 179.763 24.6893 179.763 23.98C179.333 23.7373 178.829 23.5413 178.251 23.392C177.672 23.224 177.056 23.14 176.403 23.14C175.171 23.14 174.293 23.392 173.771 23.896C173.248 24.3813 172.987 24.9787 172.987 25.688C172.987 26.36 173.239 26.9107 173.743 27.34C174.247 27.7693 174.919 27.984 175.759 27.984ZM186.332 30V15.72H189.188V17.82H189.356C189.673 17.092 190.215 16.4947 190.98 16.028C191.764 15.5427 192.604 15.3 193.5 15.3C193.892 15.3 194.219 15.328 194.48 15.384C194.76 15.44 195.012 15.5053 195.236 15.58V18.716C194.881 18.5667 194.517 18.4453 194.144 18.352C193.789 18.2587 193.416 18.212 193.024 18.212C192.315 18.212 191.68 18.408 191.12 18.8C190.579 19.1733 190.149 19.6867 189.832 20.34C189.515 20.9747 189.356 21.6747 189.356 22.44V30H186.332ZM199.606 13.62C199.046 13.62 198.561 13.424 198.15 13.032C197.758 12.6213 197.562 12.136 197.562 11.576C197.562 11.016 197.758 10.54 198.15 10.148C198.561 9.756 199.046 9.56 199.606 9.56C200.166 9.56 200.642 9.756 201.034 10.148C201.445 10.54 201.65 11.016 201.65 11.576C201.65 12.136 201.445 12.6213 201.034 13.032C200.642 13.424 200.166 13.62 199.606 13.62ZM198.094 30V15.72H201.118V30H198.094ZM210.378 30.448C208.661 30.448 207.289 30.0747 206.262 29.328C205.236 28.5627 204.526 27.6573 204.134 26.612L206.85 25.436C207.186 26.2013 207.672 26.7893 208.306 27.2C208.941 27.592 209.66 27.788 210.462 27.788C211.209 27.788 211.853 27.6573 212.394 27.396C212.936 27.116 213.206 26.668 213.206 26.052C213.206 25.4547 212.936 25.016 212.394 24.736C211.853 24.456 211.181 24.2133 210.378 24.008L208.67 23.616C207.98 23.448 207.336 23.1867 206.738 22.832C206.141 22.4773 205.656 22.02 205.282 21.46C204.909 20.8813 204.722 20.2093 204.722 19.444C204.722 18.604 204.974 17.876 205.478 17.26C205.982 16.6253 206.645 16.14 207.466 15.804C208.306 15.4493 209.212 15.272 210.182 15.272C211.508 15.272 212.665 15.5333 213.654 16.056C214.662 16.56 215.4 17.3253 215.866 18.352L213.262 19.528C212.926 18.8933 212.488 18.4547 211.946 18.212C211.424 17.9507 210.845 17.82 210.21 17.82C209.501 17.82 208.904 17.9693 208.418 18.268C207.952 18.5667 207.718 18.94 207.718 19.388C207.718 19.8733 207.924 20.256 208.334 20.536C208.764 20.816 209.286 21.04 209.902 21.208L211.974 21.712C213.393 22.0667 214.457 22.608 215.166 23.336C215.876 24.0453 216.23 24.9133 216.23 25.94C216.23 26.8547 215.969 27.6573 215.446 28.348C214.924 29.02 214.214 29.5427 213.318 29.916C212.441 30.2707 211.461 30.448 210.378 30.448ZM210.882 36.636C210.229 36.636 209.66 36.4493 209.174 36.076C208.708 35.7213 208.381 35.2827 208.194 34.76L209.762 34.088C209.856 34.3307 209.996 34.536 210.182 34.704C210.369 34.8907 210.602 34.984 210.882 34.984C211.218 34.984 211.48 34.8813 211.666 34.676C211.872 34.4707 211.974 34.228 211.974 33.948C211.974 33.6493 211.872 33.388 211.666 33.164C211.48 32.94 211.218 32.828 210.882 32.828C210.696 32.828 210.528 32.8653 210.378 32.94C210.248 33.0333 210.126 33.136 210.014 33.248L208.558 32.604L209.538 30H211.218L210.63 31.344C210.798 31.3067 210.985 31.288 211.19 31.288C211.9 31.288 212.506 31.5307 213.01 32.016C213.533 32.5013 213.794 33.1453 213.794 33.948C213.794 34.6947 213.524 35.3293 212.982 35.852C212.441 36.3747 211.741 36.636 210.882 36.636ZM230.345 30L224.437 15.72H227.797L231.801 26.108H231.941L236.029 15.72H239.333L233.369 30H230.345ZM247.704 30.448C246.304 30.448 245.053 30.1213 243.952 29.468C242.85 28.8147 241.982 27.9187 241.348 26.78C240.732 25.6413 240.424 24.344 240.424 22.888C240.424 21.5253 240.722 20.2653 241.32 19.108C241.917 17.9507 242.748 17.0267 243.812 16.336C244.894 15.6267 246.136 15.272 247.536 15.272C249.01 15.272 250.261 15.5893 251.288 16.224C252.333 16.8587 253.126 17.7267 253.668 18.828C254.209 19.9293 254.48 21.1707 254.48 22.552C254.48 22.7573 254.47 22.944 254.452 23.112C254.452 23.28 254.442 23.4107 254.424 23.504H243.392C243.541 24.9227 244.036 25.9867 244.876 26.696C245.734 27.4053 246.705 27.76 247.788 27.76C248.758 27.76 249.561 27.5453 250.196 27.116C250.83 26.668 251.334 26.1173 251.708 25.464L254.2 26.668C253.584 27.788 252.744 28.7027 251.68 29.412C250.616 30.1027 249.29 30.448 247.704 30.448ZM247.564 17.848C246.556 17.848 245.697 18.156 244.988 18.772C244.278 19.388 243.802 20.2093 243.56 21.236H251.484C251.446 20.7507 251.288 20.2467 251.008 19.724C250.728 19.2013 250.298 18.7627 249.72 18.408C249.16 18.0347 248.441 17.848 247.564 17.848ZM257.585 30V15.72H260.441V17.82H260.609C260.926 17.092 261.468 16.4947 262.233 16.028C263.017 15.5427 263.857 15.3 264.753 15.3C265.145 15.3 265.472 15.328 265.733 15.384C266.013 15.44 266.265 15.5053 266.489 15.58V18.716C266.134 18.5667 265.77 18.4453 265.397 18.352C265.042 18.2587 264.669 18.212 264.277 18.212C263.568 18.212 262.933 18.408 262.373 18.8C261.832 19.1733 261.402 19.6867 261.085 20.34C260.768 20.9747 260.609 21.6747 260.609 22.44V30H257.585Z" fill="white"/>
</g>
</svg>
