<svg width="148" height="21" viewBox="0 0 148 21" fill="none" xmlns="http://www.w3.org/2000/svg">
<g id="tr_order_with_Pay_NBG">
<g id="GPay (Dark)">
<g id="GPay">
<g id="Pay">
<path id="Fill 1" fill-rule="evenodd" clip-rule="evenodd" d="M22.3563 3.42339V8.16175H25.2784C25.9745 8.16175 26.5501 7.92781 27.0055 7.45993C27.4728 6.99313 27.707 6.43644 27.707 5.79203C27.707 5.16061 27.4728 4.61041 27.0055 4.14254C26.5501 3.66274 25.9745 3.4223 25.2784 3.4223H22.3563V3.42339ZM22.3563 9.82966V15.3262H20.6107V1.75549H25.2404C26.4169 1.75549 27.4154 2.14756 28.2383 2.93061C29.0732 3.71365 29.4906 4.66782 29.4906 5.79203C29.4906 6.94224 29.0731 7.90291 28.2383 8.67296C27.4283 9.44409 26.4287 9.82858 25.2404 9.82858H22.3563V9.82966Z" fill="white"/>
<path id="Fill 3" fill-rule="evenodd" clip-rule="evenodd" d="M31.2546 12.4831C31.2546 12.9379 31.4476 13.317 31.8337 13.6203C32.2195 13.9235 32.6717 14.0752 33.19 14.0752C33.9239 14.0752 34.5777 13.8032 35.1535 13.2607C35.7293 12.717 36.0165 12.0791 36.0165 11.3469C35.4722 10.917 34.7133 10.7025 33.7396 10.7025C33.0306 10.7025 32.4397 10.8736 31.9659 11.2148C31.492 11.5559 31.2546 11.9773 31.2546 12.4831M33.513 5.73566C34.8033 5.73566 35.8214 6.08007 36.5685 6.76889C37.3145 7.45771 37.6873 8.40213 37.6873 9.60216V15.3261H36.0177V14.0373H35.9417C35.2207 15.0985 34.259 15.6294 33.0578 15.6294C32.0332 15.6294 31.1755 15.3261 30.4869 14.7196C29.7975 14.1131 29.4527 13.3549 29.4527 12.4452C29.4527 11.4845 29.8158 10.7208 30.5433 10.1523C31.2708 9.58375 32.2413 9.2989 33.4557 9.2989C34.4921 9.2989 35.3465 9.48844 36.0165 9.86751V9.46894C36.0165 8.86243 35.7758 8.34798 35.2956 7.92451C34.8141 7.50103 34.2525 7.28984 33.6074 7.28984C32.6326 7.28984 31.8618 7.70032 31.2926 8.52235L29.7551 7.55519C30.6029 6.34217 31.8552 5.73566 33.513 5.73566" fill="white"/>
<path id="Fill 5" fill-rule="evenodd" clip-rule="evenodd" d="M47.2687 6.03894L41.4432 19.4201H39.6411L41.8043 14.738L37.9714 6.03894H39.8688L42.639 12.7106H42.677L45.3713 6.03894H47.2687Z" fill="white"/>
</g>
<g id="G">
<path id="Fill 8" fill-rule="evenodd" clip-rule="evenodd" d="M15.3029 8.64473C15.3029 8.09563 15.2562 7.56601 15.1684 7.05914H7.80648V10.0625H12.0231C11.842 11.0414 11.2945 11.8744 10.4639 12.4322V14.3828H12.9804C14.4539 13.0246 15.3029 11.0177 15.3029 8.64473" fill="#4285F4"/>
<path id="Fill 10" fill-rule="evenodd" clip-rule="evenodd" d="M7.80646 16.2651C9.91313 16.2651 11.6869 15.5741 12.9804 14.3828L10.4639 12.4322C9.7635 12.9033 8.86142 13.1784 7.80646 13.1784C5.77028 13.1784 4.04201 11.8073 3.424 9.95959H0.831596V11.9687C2.11641 14.516 4.75652 16.2651 7.80646 16.2651" fill="#34A853"/>
<path id="Fill 12" fill-rule="evenodd" clip-rule="evenodd" d="M3.42401 9.9596C3.26571 9.48847 3.17897 8.98593 3.17897 8.46715C3.17897 7.94837 3.26571 7.44583 3.42401 6.9747V4.96564H0.831606C0.300332 6.01837 0 7.20756 0 8.46715C0 9.72674 0.300332 10.916 0.831606 11.9687L3.42401 9.9596Z" fill="#FABB05"/>
<path id="Fill 14" fill-rule="evenodd" clip-rule="evenodd" d="M7.80646 3.75583C8.95683 3.75583 9.98794 4.15115 10.8011 4.92553V4.92661L13.0292 2.70094C11.6761 1.44243 9.91204 0.669128 7.80646 0.669128C4.75652 0.669128 2.11641 2.41826 0.831596 4.9656L3.424 6.97467C4.04201 5.12698 5.77028 3.75583 7.80646 3.75583" fill="#E94235"/>
</g>
</g>
</g>
<path id="Right Text" d="M48.786 15.0006V6.84061H50.514V15.0006H48.786ZM49.65 5.64061C49.33 5.64061 49.0527 5.52861 48.818 5.30461C48.594 5.06994 48.482 4.79261 48.482 4.47261C48.482 4.14194 48.594 3.86994 48.818 3.65661C49.0527 3.43261 49.33 3.32061 49.65 3.32061C49.9807 3.32061 50.258 3.43261 50.482 3.65661C50.706 3.86994 50.818 4.14194 50.818 4.47261C50.818 4.79261 50.706 5.06994 50.482 5.30461C50.258 5.52861 49.9807 5.64061 49.65 5.64061ZM52.824 15.0006V3.54461H54.552V15.0006H52.824ZM60.3891 15.2566C59.5891 15.2566 58.8745 15.0699 58.2451 14.6966C57.6158 14.3233 57.1198 13.8113 56.7571 13.1606C56.4051 12.5099 56.2291 11.7686 56.2291 10.9366C56.2291 10.1579 56.3998 9.43794 56.7411 8.77661C57.0825 8.11528 57.5571 7.58728 58.1651 7.19261C58.7838 6.78728 59.4931 6.58461 60.2931 6.58461C61.1358 6.58461 61.8505 6.76594 62.4371 7.12861C63.0345 7.49128 63.4878 7.98728 63.7971 8.61661C64.1065 9.24594 64.2611 9.95528 64.2611 10.7446C64.2611 10.8619 64.2558 10.9686 64.2451 11.0646C64.2451 11.1606 64.2398 11.2353 64.2291 11.2886H57.9251C57.9678 11.7366 58.0798 12.1259 58.2611 12.4566C58.4958 12.8726 58.8051 13.1873 59.1891 13.4006C59.5731 13.6139 59.9891 13.7206 60.4371 13.7206C60.9811 13.7206 61.4345 13.5979 61.7971 13.3526C62.1705 13.0966 62.4638 12.7819 62.6771 12.4086L64.1011 13.0966C63.7491 13.7366 63.2691 14.2593 62.6611 14.6646C62.0531 15.0593 61.2958 15.2566 60.3891 15.2566ZM58.0211 9.99261H62.5491C62.5385 9.78994 62.4851 9.57661 62.3891 9.35261C62.2931 9.11794 62.1545 8.90461 61.9731 8.71261C61.7918 8.52061 61.5625 8.36594 61.2851 8.24861C61.0078 8.12061 60.6825 8.05661 60.3091 8.05661C59.8398 8.05661 59.4238 8.17928 59.0611 8.42461C58.6985 8.65928 58.4158 8.98994 58.2131 9.41661C58.1278 9.59794 58.0638 9.78994 58.0211 9.99261ZM72.8746 15.2566C72.224 15.2566 71.6586 15.1606 71.1786 14.9686C70.6986 14.7659 70.304 14.4993 69.9946 14.1686C69.6853 13.8273 69.456 13.4593 69.3066 13.0646L70.8586 12.3926C71.0506 12.8299 71.3226 13.1659 71.6746 13.4006C72.0373 13.6246 72.4533 13.7366 72.9226 13.7366C73.3493 13.7366 73.7173 13.6619 74.0266 13.5126C74.336 13.3526 74.4906 13.0966 74.4906 12.7446C74.4906 12.5206 74.416 12.3393 74.2666 12.2006C74.128 12.0513 73.936 11.9286 73.6906 11.8326C73.456 11.7366 73.184 11.6513 72.8746 11.5766L71.8986 11.3526C71.5146 11.2566 71.1466 11.1073 70.7946 10.9046C70.4533 10.6913 70.176 10.4246 69.9626 10.1046C69.7493 9.78461 69.6426 9.40594 69.6426 8.96861C69.6426 8.47794 69.7813 8.05661 70.0586 7.70461C70.3466 7.34194 70.7306 7.06461 71.2106 6.87261C71.6906 6.68061 72.208 6.58461 72.7626 6.58461C73.2746 6.58461 73.7386 6.65394 74.1546 6.79261C74.5813 6.92061 74.9493 7.11794 75.2586 7.38461C75.5786 7.64061 75.8293 7.96061 76.0106 8.34461L74.5226 9.01661C74.3413 8.65394 74.096 8.40328 73.7866 8.26461C73.4773 8.11528 73.1413 8.04061 72.7786 8.04061C72.3733 8.04061 72.032 8.12594 71.7546 8.29661C71.488 8.45661 71.3546 8.66994 71.3546 8.93661C71.3546 9.21394 71.472 9.43261 71.7066 9.59261C71.952 9.75261 72.2506 9.88061 72.6026 9.97661L73.7866 10.2646C74.5973 10.4673 75.2053 10.7766 75.6106 11.1926C76.016 11.5979 76.2186 12.0939 76.2186 12.6806C76.2186 13.2033 76.0693 13.6619 75.7706 14.0566C75.472 14.4406 75.0666 14.7393 74.5546 14.9526C74.0533 15.1553 73.4933 15.2566 72.8746 15.2566ZM77.9266 15.0006V6.84061H79.6546V15.0006H77.9266ZM78.7906 5.64061C78.4706 5.64061 78.1933 5.52861 77.9586 5.30461C77.7346 5.06994 77.6226 4.79261 77.6226 4.47261C77.6226 4.14194 77.7346 3.86994 77.9586 3.65661C78.1933 3.43261 78.4706 3.32061 78.7906 3.32061C79.1213 3.32061 79.3986 3.43261 79.6226 3.65661C79.8466 3.86994 79.9586 4.14194 79.9586 4.47261C79.9586 4.79261 79.8466 5.06994 79.6226 5.30461C79.3986 5.52861 79.1213 5.64061 78.7906 5.64061ZM81.9326 18.4566V6.84061H83.5486V7.94461H83.6446C83.794 7.70994 83.9913 7.49128 84.2366 7.28861C84.4926 7.07528 84.7913 6.90461 85.1326 6.77661C85.474 6.64861 85.8526 6.58461 86.2686 6.58461C87.0153 6.58461 87.682 6.77128 88.2686 7.14461C88.8553 7.51794 89.3193 8.02994 89.6606 8.68061C90.0126 9.33128 90.1886 10.0779 90.1886 10.9206C90.1886 11.7633 90.0126 12.5099 89.6606 13.1606C89.3193 13.8113 88.8553 14.3233 88.2686 14.6966C87.682 15.0699 87.0153 15.2566 86.2686 15.2566C85.65 15.2566 85.1113 15.1179 84.6526 14.8406C84.194 14.5633 83.858 14.2539 83.6446 13.9126H83.5486L83.6446 15.0486V18.4566H81.9326ZM86.0126 13.6726C86.4393 13.6726 86.8393 13.5606 87.2126 13.3366C87.5966 13.1126 87.9006 12.7926 88.1246 12.3766C88.3593 11.9606 88.4766 11.4753 88.4766 10.9206C88.4766 10.3553 88.3593 9.86994 88.1246 9.46461C87.9006 9.04861 87.5966 8.72861 87.2126 8.50461C86.8393 8.28061 86.4393 8.16861 86.0126 8.16861C85.586 8.16861 85.186 8.28061 84.8126 8.50461C84.4393 8.72861 84.1353 9.04861 83.9006 9.46461C83.666 9.86994 83.5486 10.3553 83.5486 10.9206C83.5486 11.4859 83.666 11.9766 83.9006 12.3926C84.1353 12.7979 84.4393 13.1126 84.8126 13.3366C85.186 13.5606 85.586 13.6726 86.0126 13.6726ZM94.4867 15.2566C93.9001 15.2566 93.3774 15.1393 92.9187 14.9046C92.4707 14.6699 92.1134 14.3499 91.8467 13.9446C91.5907 13.5286 91.4627 13.0539 91.4627 12.5206C91.4627 11.9339 91.6121 11.4379 91.9107 11.0326C92.2201 10.6273 92.6307 10.3179 93.1427 10.1046C93.6547 9.89128 94.2201 9.78461 94.8387 9.78461C95.1801 9.78461 95.4947 9.81128 95.7827 9.86461C96.0814 9.90728 96.3374 9.96061 96.5507 10.0246C96.7747 10.0886 96.9507 10.1579 97.0787 10.2326V9.80061C97.0787 9.26728 96.8867 8.84061 96.5027 8.52061C96.1187 8.20061 95.6227 8.04061 95.0147 8.04061C94.5987 8.04061 94.2041 8.13661 93.8307 8.32861C93.4574 8.50994 93.1587 8.76061 92.9347 9.08061L91.7507 8.16861C91.9854 7.83794 92.2681 7.55528 92.5987 7.32061C92.9401 7.08594 93.3187 6.90461 93.7347 6.77661C94.1614 6.64861 94.6041 6.58461 95.0627 6.58461C96.2467 6.58461 97.1587 6.87794 97.7987 7.46461C98.4387 8.04061 98.7587 8.85128 98.7587 9.89661V15.0006H97.0787V13.9926H96.9827C96.8441 14.2059 96.6521 14.4086 96.4067 14.6006C96.1721 14.7926 95.8894 14.9473 95.5587 15.0646C95.2387 15.1926 94.8814 15.2566 94.4867 15.2566ZM94.7907 13.8486C95.2387 13.8486 95.6334 13.7419 95.9747 13.5286C96.3267 13.3153 96.5987 13.0379 96.7907 12.6966C96.9827 12.3446 97.0787 11.9659 97.0787 11.5606C96.8441 11.4219 96.5561 11.3099 96.2147 11.2246C95.8841 11.1286 95.5321 11.0806 95.1587 11.0806C94.4547 11.0806 93.9534 11.2193 93.6547 11.4966C93.3561 11.7739 93.2067 12.1206 93.2067 12.5366C93.2067 12.9206 93.3507 13.2353 93.6387 13.4806C93.9267 13.7259 94.3107 13.8486 94.7907 13.8486ZM100.811 15.0006V6.84061H102.443V8.04061H102.539C102.667 7.76328 102.848 7.51794 103.083 7.30461C103.328 7.09128 103.606 6.92061 103.915 6.79261C104.235 6.66461 104.566 6.60061 104.907 6.60061C105.131 6.60061 105.318 6.61661 105.467 6.64861C105.627 6.66994 105.771 6.70728 105.899 6.76061V8.55261C105.696 8.46728 105.488 8.39794 105.275 8.34461C105.072 8.29128 104.859 8.26461 104.635 8.26461C104.23 8.26461 103.867 8.37661 103.547 8.60061C103.238 8.81394 102.992 9.10194 102.811 9.46461C102.63 9.82728 102.539 10.2326 102.539 10.6806V15.0006H100.811ZM107.511 15.0006V6.84061H109.239V15.0006H107.511ZM108.375 5.64061C108.055 5.64061 107.778 5.52861 107.543 5.30461C107.319 5.06994 107.207 4.79261 107.207 4.47261C107.207 4.14194 107.319 3.86994 107.543 3.65661C107.778 3.43261 108.055 3.32061 108.375 3.32061C108.706 3.32061 108.983 3.43261 109.207 3.65661C109.431 3.86994 109.543 4.14194 109.543 4.47261C109.543 4.79261 109.431 5.06994 109.207 5.30461C108.983 5.52861 108.706 5.64061 108.375 5.64061ZM114.797 18.7926C114.434 18.7926 114.114 18.6859 113.837 18.4726C113.57 18.2699 113.378 18.0193 113.261 17.7206L114.173 17.3366C114.216 17.4753 114.29 17.5926 114.397 17.6886C114.514 17.7953 114.648 17.8486 114.797 17.8486C114.989 17.8486 115.138 17.7899 115.245 17.6726C115.362 17.5553 115.421 17.4166 115.421 17.2566C115.421 17.0859 115.362 16.9366 115.245 16.8086C115.138 16.6806 114.989 16.6166 114.797 16.6166C114.69 16.6166 114.594 16.6379 114.509 16.6806C114.434 16.7339 114.365 16.7926 114.301 16.8566L113.469 16.4886L113.949 15.2246C113.522 15.1819 113.144 15.0913 112.813 14.9526C112.333 14.7606 111.938 14.4993 111.629 14.1686C111.32 13.8273 111.09 13.4593 110.941 13.0646L112.493 12.3926C112.685 12.8299 112.957 13.1659 113.309 13.4006C113.672 13.6246 114.088 13.7366 114.557 13.7366C114.984 13.7366 115.352 13.6619 115.661 13.5126C115.97 13.3526 116.125 13.0966 116.125 12.7446C116.125 12.5206 116.05 12.3393 115.901 12.2006C115.762 12.0513 115.57 11.9286 115.325 11.8326C115.09 11.7366 114.818 11.6513 114.509 11.5766L113.533 11.3526C113.149 11.2566 112.781 11.1073 112.429 10.9046C112.088 10.6913 111.81 10.4246 111.597 10.1046C111.384 9.78461 111.277 9.40594 111.277 8.96861C111.277 8.47794 111.416 8.05661 111.693 7.70461C111.981 7.34194 112.365 7.06461 112.845 6.87261C113.325 6.68061 113.842 6.58461 114.397 6.58461C114.909 6.58461 115.373 6.65394 115.789 6.79261C116.216 6.92061 116.584 7.11794 116.893 7.38461C117.213 7.64061 117.464 7.96061 117.645 8.34461L116.157 9.01661C115.976 8.65394 115.73 8.40328 115.421 8.26461C115.112 8.11528 114.776 8.04061 114.413 8.04061C114.008 8.04061 113.666 8.12594 113.389 8.29661C113.122 8.45661 112.989 8.66994 112.989 8.93661C112.989 9.21394 113.106 9.43261 113.341 9.59261C113.586 9.75261 113.885 9.88061 114.237 9.97661L115.421 10.2646C116.232 10.4673 116.84 10.7766 117.245 11.1926C117.65 11.5979 117.853 12.0939 117.853 12.6806C117.853 13.2033 117.704 13.6619 117.405 14.0566C117.106 14.4406 116.706 14.7339 116.205 14.9366C115.8 15.1073 115.362 15.2086 114.893 15.2406L114.653 15.7686C114.706 15.7579 114.76 15.7473 114.813 15.7366C114.866 15.7366 114.925 15.7366 114.989 15.7366C115.394 15.7366 115.741 15.8753 116.029 16.1526C116.317 16.4299 116.461 16.7979 116.461 17.2566C116.461 17.5339 116.392 17.7899 116.253 18.0246C116.114 18.2593 115.917 18.4459 115.661 18.5846C115.416 18.7233 115.128 18.7926 114.797 18.7926ZM125.875 15.0006L122.499 6.84061H124.419L126.707 12.7766H126.787L129.123 6.84061H131.011L127.603 15.0006H125.875ZM135.773 15.2566C134.973 15.2566 134.259 15.0699 133.629 14.6966C133 14.3233 132.504 13.8113 132.141 13.1606C131.789 12.5099 131.613 11.7686 131.613 10.9366C131.613 10.1579 131.784 9.43794 132.125 8.77661C132.467 8.11528 132.941 7.58728 133.549 7.19261C134.168 6.78728 134.877 6.58461 135.677 6.58461C136.52 6.58461 137.235 6.76594 137.821 7.12861C138.419 7.49128 138.872 7.98728 139.181 8.61661C139.491 9.24594 139.645 9.95528 139.645 10.7446C139.645 10.8619 139.64 10.9686 139.629 11.0646C139.629 11.1606 139.624 11.2353 139.613 11.2886H133.309C133.352 11.7366 133.464 12.1259 133.645 12.4566C133.88 12.8726 134.189 13.1873 134.573 13.4006C134.957 13.6139 135.373 13.7206 135.821 13.7206C136.365 13.7206 136.819 13.5979 137.181 13.3526C137.555 13.0966 137.848 12.7819 138.061 12.4086L139.485 13.0966C139.133 13.7366 138.653 14.2593 138.045 14.6646C137.437 15.0593 136.68 15.2566 135.773 15.2566ZM133.405 9.99261H137.933C137.923 9.78994 137.869 9.57661 137.773 9.35261C137.677 9.11794 137.539 8.90461 137.357 8.71261C137.176 8.52061 136.947 8.36594 136.669 8.24861C136.392 8.12061 136.067 8.05661 135.693 8.05661C135.224 8.05661 134.808 8.17928 134.445 8.42461C134.083 8.65928 133.8 8.98994 133.597 9.41661C133.512 9.59794 133.448 9.78994 133.405 9.99261ZM141.399 15.0006V6.84061H143.031V8.04061H143.127C143.255 7.76328 143.436 7.51794 143.671 7.30461C143.916 7.09128 144.193 6.92061 144.503 6.79261C144.823 6.66461 145.153 6.60061 145.495 6.60061C145.719 6.60061 145.905 6.61661 146.055 6.64861C146.215 6.66994 146.359 6.70728 146.487 6.76061V8.55261C146.284 8.46728 146.076 8.39794 145.863 8.34461C145.66 8.29128 145.447 8.26461 145.223 8.26461C144.817 8.26461 144.455 8.37661 144.135 8.60061C143.825 8.81394 143.58 9.10194 143.399 9.46461C143.217 9.82728 143.127 10.2326 143.127 10.6806V15.0006H141.399Z" fill="white"/>
</g>
</svg>
