<svg width="184" height="38" viewBox="0 0 184 38" fill="none" xmlns="http://www.w3.org/2000/svg">
<g id="tr_pay_with_Light">
<g id="GPay Logo (Light)">
<g id="GPay">
<g id="Pay">
<path id="Fill 1" fill-rule="evenodd" clip-rule="evenodd" d="M38.5289 9.44664V17.6128H43.5649C44.7645 17.6128 45.7565 17.2096 46.5413 16.4032C47.3467 15.5988 47.7503 14.6394 47.7503 13.5288C47.7503 12.4406 47.3467 11.4924 46.5413 10.686C45.7565 9.85915 44.7645 9.44478 43.5649 9.44478H38.5289V9.44664ZM38.5289 20.4872V29.9599H35.5205V6.57217H43.4993C45.5269 6.57217 47.2478 7.24786 48.6659 8.59737C50.1049 9.94688 50.8241 11.5913 50.8241 13.5288C50.8241 15.511 50.1047 17.1667 48.6659 18.4938C47.2701 19.8227 45.5473 20.4854 43.4993 20.4854H38.5289V20.4872Z" fill="#5F6368"/>
<path id="Fill 3" fill-rule="evenodd" clip-rule="evenodd" d="M53.8642 25.0602C53.8642 25.8442 54.1968 26.4975 54.8622 27.0201C55.5272 27.5427 56.3064 27.804 57.1998 27.804C58.4646 27.804 59.5913 27.3354 60.5835 26.4004C61.5759 25.4634 62.0709 24.364 62.0709 23.1022C61.1329 22.3612 59.8249 21.9916 58.1469 21.9916C56.9251 21.9916 55.9067 22.2865 55.0901 22.8745C54.2734 23.4623 53.8642 24.1886 53.8642 25.0602ZM57.7564 13.4317C59.98 13.4317 61.7346 14.0252 63.0222 15.2124C64.3078 16.3995 64.9504 18.0271 64.9504 20.0952V29.9599H62.073V27.7387H61.942C60.6994 29.5677 59.042 30.4825 56.9718 30.4825C55.206 30.4825 53.7279 29.9599 52.5412 28.9146C51.353 27.8694 50.7588 26.5628 50.7588 24.9949C50.7588 23.3393 51.3846 22.0232 52.6384 21.0434C53.8922 20.0635 55.5648 19.5726 57.6576 19.5726C59.4437 19.5726 60.9162 19.8992 62.0709 20.5525V19.8656C62.0709 18.8204 61.6561 17.9338 60.8285 17.204C59.9987 16.4741 59.0308 16.1102 57.919 16.1102C56.2391 16.1102 54.9108 16.8176 53.9298 18.2343L51.2799 16.5675C52.7412 14.4769 54.8994 13.4317 57.7564 13.4317Z" fill="#5F6368"/>
<path id="Fill 5" fill-rule="evenodd" clip-rule="evenodd" d="M81.4629 13.9543L71.4233 37.0154H68.3175L72.0455 28.9464L65.4399 13.9543H68.7099L73.4841 25.4522H73.5495L78.1929 13.9543H81.4629Z" fill="#5F6368"/>
</g>
<g id="G">
<path id="Fill 8" fill-rule="evenodd" clip-rule="evenodd" d="M26.3729 18.4452C26.3729 17.4989 26.2926 16.5861 26.1412 15.7126H13.4536V20.8885H20.7205C20.4084 22.5757 19.4648 24.0112 18.0335 24.9725V28.3341H22.3704C24.9098 25.9935 26.3729 22.5348 26.3729 18.4452Z" fill="#4285F4"/>
<path id="Fill 10" fill-rule="evenodd" clip-rule="evenodd" d="M13.4536 31.5782C17.0843 31.5782 20.1412 30.3873 22.3704 28.3341L18.0335 24.9725C16.8264 25.7844 15.2717 26.2585 13.4536 26.2585C9.94445 26.2585 6.96594 23.8955 5.90086 20.7112H1.43311V24.1736C3.64736 28.5637 8.19733 31.5782 13.4536 31.5782Z" fill="#34A853"/>
<path id="Fill 12" fill-rule="evenodd" clip-rule="evenodd" d="M5.90095 20.7111C5.62814 19.8992 5.47865 19.0331 5.47865 18.139C5.47865 17.245 5.62814 16.3789 5.90095 15.567V12.1045H1.43319C0.517594 13.9188 0 15.9683 0 18.139C0 20.3098 0.517594 22.3595 1.43319 24.1736L5.90095 20.7111Z" fill="#FABB05"/>
<path id="Fill 14" fill-rule="evenodd" clip-rule="evenodd" d="M13.4536 10.0196C15.4362 10.0196 17.2132 10.7009 18.6146 12.0355V12.0374L22.4545 8.20162C20.1226 6.03271 17.0824 4.7 13.4536 4.7C8.19733 4.7 3.64736 7.71446 1.43311 12.1046L5.90086 15.567C6.96594 12.3827 9.94445 10.0196 13.4536 10.0196Z" fill="#E94235"/>
</g>
</g>
</g>
<path id="Text" d="M96.5 13.62C95.94 13.62 95.4547 13.424 95.044 13.032C94.652 12.6213 94.456 12.136 94.456 11.576C94.456 11.016 94.652 10.54 95.044 10.148C95.4547 9.756 95.94 9.56 96.5 9.56C97.06 9.56 97.536 9.756 97.928 10.148C98.3387 10.54 98.544 11.016 98.544 11.576C98.544 12.136 98.3387 12.6213 97.928 13.032C97.536 13.424 97.06 13.62 96.5 13.62ZM94.988 30V15.72H98.012V30H94.988ZM102.092 30V9.952H105.116V30H102.092ZM115.368 30.448C113.968 30.448 112.718 30.1213 111.616 29.468C110.515 28.8147 109.647 27.9187 109.012 26.78C108.396 25.6413 108.088 24.344 108.088 22.888C108.088 21.5253 108.387 20.2653 108.984 19.108C109.582 17.9507 110.412 17.0267 111.476 16.336C112.559 15.6267 113.8 15.272 115.2 15.272C116.675 15.272 117.926 15.5893 118.952 16.224C119.998 16.8587 120.791 17.7267 121.332 18.828C121.874 19.9293 122.144 21.1707 122.144 22.552C122.144 22.7573 122.135 22.944 122.116 23.112C122.116 23.28 122.107 23.4107 122.088 23.504H111.056C111.206 24.9227 111.7 25.9867 112.54 26.696C113.399 27.4053 114.37 27.76 115.452 27.76C116.423 27.76 117.226 27.5453 117.86 27.116C118.495 26.668 118.999 26.1173 119.372 25.464L121.864 26.668C121.248 27.788 120.408 28.7027 119.344 29.412C118.28 30.1027 116.955 30.448 115.368 30.448ZM115.228 17.848C114.22 17.848 113.362 18.156 112.652 18.772C111.943 19.388 111.467 20.2093 111.224 21.236H119.148C119.111 20.7507 118.952 20.2467 118.672 19.724C118.392 19.2013 117.963 18.7627 117.384 18.408C116.824 18.0347 116.106 17.848 115.228 17.848ZM138.805 30.448C137.33 30.448 136.033 30.112 134.913 29.44C133.793 28.768 132.916 27.8627 132.281 26.724C131.646 25.5853 131.329 24.2973 131.329 22.86C131.329 21.4413 131.646 20.1627 132.281 19.024C132.916 17.8667 133.793 16.952 134.913 16.28C136.033 15.608 137.33 15.272 138.805 15.272C140.261 15.272 141.549 15.608 142.669 16.28C143.789 16.952 144.666 17.8667 145.301 19.024C145.936 20.1627 146.253 21.4413 146.253 22.86C146.253 24.2973 145.936 25.5853 145.301 26.724C144.666 27.8627 143.789 28.768 142.669 29.44C141.549 30.112 140.261 30.448 138.805 30.448ZM138.805 27.676C139.589 27.676 140.317 27.4893 140.989 27.116C141.661 26.724 142.202 26.1733 142.613 25.464C143.042 24.736 143.257 23.868 143.257 22.86C143.257 21.852 143.042 20.9933 142.613 20.284C142.202 19.556 141.661 19.0053 140.989 18.632C140.317 18.24 139.589 18.044 138.805 18.044C138.021 18.044 137.284 18.24 136.593 18.632C135.921 19.0053 135.37 19.556 134.941 20.284C134.53 20.9933 134.325 21.852 134.325 22.86C134.325 23.868 134.53 24.736 134.941 25.464C135.37 26.1733 135.921 26.724 136.593 27.116C137.284 27.4893 138.021 27.676 138.805 27.676ZM141.269 12.808C140.802 12.808 140.392 12.64 140.037 12.304C139.701 11.9493 139.533 11.5293 139.533 11.044C139.533 10.5587 139.701 10.1573 140.037 9.84C140.392 9.504 140.802 9.336 141.269 9.336C141.773 9.336 142.193 9.504 142.529 9.84C142.865 10.1573 143.033 10.5587 143.033 11.044C143.033 11.5293 142.865 11.9493 142.529 12.304C142.193 12.64 141.773 12.808 141.269 12.808ZM136.313 12.808C135.846 12.808 135.436 12.64 135.081 12.304C134.745 11.9493 134.577 11.5293 134.577 11.044C134.577 10.5587 134.745 10.1573 135.081 9.84C135.436 9.504 135.846 9.336 136.313 9.336C136.817 9.336 137.228 9.504 137.545 9.84C137.881 10.1573 138.049 10.5587 138.049 11.044C138.049 11.5293 137.881 11.9493 137.545 12.304C137.228 12.64 136.817 12.808 136.313 12.808ZM155.442 30.448C154.154 30.448 152.988 30.1307 151.942 29.496C150.916 28.8427 150.094 27.9467 149.478 26.808C148.881 25.6507 148.582 24.3347 148.582 22.86C148.582 21.3853 148.881 20.0787 149.478 18.94C150.094 17.8013 150.916 16.9053 151.942 16.252C152.988 15.5987 154.154 15.272 155.442 15.272C156.544 15.272 157.486 15.5147 158.27 16C159.073 16.4853 159.661 17.036 160.034 17.652H160.202L160.034 15.664V9.952H163.03V30H160.202V28.096H160.034C159.661 28.712 159.073 29.2627 158.27 29.748C157.486 30.2147 156.544 30.448 155.442 30.448ZM155.89 27.676C156.637 27.676 157.337 27.48 157.99 27.088C158.662 26.696 159.194 26.1453 159.586 25.436C159.997 24.708 160.202 23.8493 160.202 22.86C160.202 21.8707 159.997 21.0213 159.586 20.312C159.194 19.584 158.662 19.024 157.99 18.632C157.337 18.24 156.637 18.044 155.89 18.044C155.144 18.044 154.444 18.24 153.79 18.632C153.137 19.024 152.605 19.584 152.194 20.312C151.784 21.0213 151.578 21.8707 151.578 22.86C151.578 23.8493 151.784 24.708 152.194 25.436C152.605 26.1453 153.137 26.696 153.79 27.088C154.444 27.48 155.144 27.676 155.89 27.676ZM173.279 30.448C171.879 30.448 170.629 30.1213 169.527 29.468C168.426 28.8147 167.558 27.9187 166.923 26.78C166.307 25.6413 165.999 24.344 165.999 22.888C165.999 21.5253 166.298 20.2653 166.895 19.108C167.493 17.9507 168.323 17.0267 169.387 16.336C170.47 15.6267 171.711 15.272 173.111 15.272C174.586 15.272 175.837 15.5893 176.863 16.224C177.909 16.8587 178.702 17.7267 179.243 18.828C179.785 19.9293 180.055 21.1707 180.055 22.552C180.055 22.7573 180.046 22.944 180.027 23.112C180.027 23.28 180.018 23.4107 179.999 23.504H168.967C169.117 24.9227 169.611 25.9867 170.451 26.696C171.31 27.4053 172.281 27.76 173.363 27.76C174.334 27.76 175.137 27.5453 175.771 27.116C176.406 26.668 176.91 26.1173 177.283 25.464L179.775 26.668C179.159 27.788 178.319 28.7027 177.255 29.412C176.191 30.1027 174.866 30.448 173.279 30.448ZM173.139 17.848C172.131 17.848 171.273 18.156 170.563 18.772C169.854 19.388 169.378 20.2093 169.135 21.236H177.059C177.022 20.7507 176.863 20.2467 176.583 19.724C176.303 19.2013 175.874 18.7627 175.295 18.408C174.735 18.0347 174.017 17.848 173.139 17.848Z" fill="#3C4043"/>
</g>
</svg>
