<svg width="246" height="38" viewBox="0 0 246 38" fill="none" xmlns="http://www.w3.org/2000/svg">
<g id="tr_subscribe_with_Dark">
<g id="GPay Logo (Dark)">
<g id="GPay">
<g id="Pay">
<path id="Fill 1" fill-rule="evenodd" clip-rule="evenodd" d="M38.5289 9.34665V17.5128H43.5649C44.7645 17.5128 45.7565 17.1096 46.5413 16.3032C47.3467 15.4988 47.7503 14.5394 47.7503 13.4288C47.7503 12.3406 47.3467 11.3924 46.5413 10.586C45.7565 9.75916 44.7645 9.34479 43.5649 9.34479H38.5289V9.34665ZM38.5289 20.3872V29.8599H35.5205V6.47218H43.4993C45.5269 6.47218 47.2478 7.14787 48.6659 8.49738C50.1049 9.84688 50.8241 11.4913 50.8241 13.4288C50.8241 15.411 50.1047 17.0667 48.6659 18.3938C47.2701 19.7227 45.5473 20.3854 43.4993 20.3854H38.5289V20.3872Z" fill="white"/>
<path id="Fill 3" fill-rule="evenodd" clip-rule="evenodd" d="M53.8642 24.9602C53.8642 25.7442 54.1968 26.3975 54.8622 26.9201C55.5272 27.4427 56.3064 27.704 57.1998 27.704C58.4646 27.704 59.5913 27.2354 60.5835 26.3004C61.5759 25.3634 62.0709 24.264 62.0709 23.0022C61.1329 22.2612 59.8249 21.8916 58.1469 21.8916C56.9251 21.8916 55.9067 22.1866 55.0901 22.7745C54.2734 23.3623 53.8642 24.0886 53.8642 24.9602ZM57.7564 13.3317C59.98 13.3317 61.7346 13.9253 63.0222 15.1124C64.3078 16.2995 64.9504 17.9271 64.9504 19.9952V29.8599H62.073V27.6387H61.942C60.6994 29.4677 59.042 30.3825 56.9718 30.3825C55.206 30.3825 53.7279 29.8599 52.5412 28.8146C51.353 27.7694 50.7588 26.4628 50.7588 24.8949C50.7588 23.2393 51.3846 21.9232 52.6384 20.9434C53.8922 19.9635 55.5648 19.4726 57.6576 19.4726C59.4437 19.4726 60.9162 19.7993 62.0709 20.4525V19.7657C62.0709 18.7204 61.6561 17.8338 60.8285 17.104C59.9987 16.3742 59.0308 16.0102 57.919 16.0102C56.2391 16.0102 54.9108 16.7176 53.9298 18.1343L51.2799 16.4675C52.7412 14.377 54.8994 13.3317 57.7564 13.3317Z" fill="white"/>
<path id="Fill 5" fill-rule="evenodd" clip-rule="evenodd" d="M81.4629 13.8543L71.4233 36.9154H68.3175L72.0455 28.8464L65.4399 13.8543H68.7099L73.4841 25.3522H73.5495L78.1929 13.8543H81.4629Z" fill="white"/>
</g>
<g id="G">
<path id="Fill 8" fill-rule="evenodd" clip-rule="evenodd" d="M26.3729 18.3452C26.3729 17.3989 26.2926 16.4861 26.1412 15.6126H13.4536V20.7885H20.7205C20.4084 22.4757 19.4648 23.9112 18.0335 24.8725V28.2341H22.3704C24.9098 25.8935 26.3729 22.4348 26.3729 18.3452Z" fill="#4285F4"/>
<path id="Fill 10" fill-rule="evenodd" clip-rule="evenodd" d="M13.4536 31.4782C17.0843 31.4782 20.1412 30.2873 22.3704 28.2341L18.0335 24.8725C16.8264 25.6844 15.2717 26.1585 13.4536 26.1585C9.94445 26.1585 6.96594 23.7955 5.90086 20.6112H1.43311V24.0736C3.64736 28.4637 8.19733 31.4782 13.4536 31.4782Z" fill="#34A853"/>
<path id="Fill 12" fill-rule="evenodd" clip-rule="evenodd" d="M5.90095 20.6111C5.62814 19.7992 5.47865 18.9331 5.47865 18.0391C5.47865 17.145 5.62814 16.2789 5.90095 15.467V12.0045H1.43319C0.517594 13.8188 0 15.8683 0 18.0391C0 20.2098 0.517594 22.2595 1.43319 24.0736L5.90095 20.6111Z" fill="#FABB05"/>
<path id="Fill 14" fill-rule="evenodd" clip-rule="evenodd" d="M13.4536 9.91964C15.4362 9.91964 17.2132 10.6009 18.6146 11.9355V11.9374L22.4545 8.10163C20.1226 5.93272 17.0824 4.60001 13.4536 4.60001C8.19733 4.60001 3.64736 7.61447 1.43311 12.0046L5.90086 15.467C6.96594 12.2827 9.94445 9.91964 13.4536 9.91964Z" fill="#E94235"/>
</g>
</g>
</g>
<path id="Text" d="M96.5 13.62C95.94 13.62 95.4547 13.424 95.044 13.032C94.652 12.6213 94.456 12.136 94.456 11.576C94.456 11.016 94.652 10.54 95.044 10.148C95.4547 9.756 95.94 9.56 96.5 9.56C97.06 9.56 97.536 9.756 97.928 10.148C98.3387 10.54 98.544 11.016 98.544 11.576C98.544 12.136 98.3387 12.6213 97.928 13.032C97.536 13.424 97.06 13.62 96.5 13.62ZM94.988 30V15.72H98.012V30H94.988ZM102.092 30V9.952H105.116V30H102.092ZM115.368 30.448C113.968 30.448 112.718 30.1213 111.616 29.468C110.515 28.8147 109.647 27.9187 109.012 26.78C108.396 25.6413 108.088 24.344 108.088 22.888C108.088 21.5253 108.387 20.2653 108.984 19.108C109.582 17.9507 110.412 17.0267 111.476 16.336C112.559 15.6267 113.8 15.272 115.2 15.272C116.675 15.272 117.926 15.5893 118.952 16.224C119.998 16.8587 120.791 17.7267 121.332 18.828C121.874 19.9293 122.144 21.1707 122.144 22.552C122.144 22.7573 122.135 22.944 122.116 23.112C122.116 23.28 122.107 23.4107 122.088 23.504H111.056C111.206 24.9227 111.7 25.9867 112.54 26.696C113.399 27.4053 114.37 27.76 115.452 27.76C116.423 27.76 117.226 27.5453 117.86 27.116C118.495 26.668 118.999 26.1173 119.372 25.464L121.864 26.668C121.248 27.788 120.408 28.7027 119.344 29.412C118.28 30.1027 116.955 30.448 115.368 30.448ZM115.228 17.848C114.22 17.848 113.362 18.156 112.652 18.772C111.943 19.388 111.467 20.2093 111.224 21.236H119.148C119.111 20.7507 118.952 20.2467 118.672 19.724C118.392 19.2013 117.963 18.7627 117.384 18.408C116.824 18.0347 116.106 17.848 115.228 17.848ZM136.565 30.448C135.538 30.448 134.624 30.252 133.821 29.86C133.018 29.4493 132.393 28.88 131.945 28.152C131.497 27.424 131.273 26.5933 131.273 25.66C131.273 24.652 131.534 23.7933 132.057 23.084C132.598 22.356 133.317 21.8053 134.213 21.432C135.109 21.0587 136.098 20.872 137.181 20.872C138.077 20.872 138.861 20.956 139.533 21.124C140.224 21.292 140.746 21.4693 141.101 21.656V20.9C141.101 19.9667 140.765 19.22 140.093 18.66C139.421 18.1 138.553 17.82 137.489 17.82C136.761 17.82 136.07 17.988 135.417 18.324C134.764 18.6413 134.241 19.08 133.849 19.64L131.777 18.044C132.393 17.1853 133.205 16.5133 134.213 16.028C135.24 15.524 136.36 15.272 137.573 15.272C139.645 15.272 141.241 15.7853 142.361 16.812C143.481 17.82 144.041 19.2387 144.041 21.068V30H141.101V28.236H140.933C140.56 28.8147 140 29.328 139.253 29.776C138.506 30.224 137.61 30.448 136.565 30.448ZM137.097 27.984C137.881 27.984 138.572 27.7973 139.169 27.424C139.766 27.0507 140.233 26.5653 140.569 25.968C140.924 25.352 141.101 24.6893 141.101 23.98C140.672 23.7373 140.168 23.5413 139.589 23.392C139.01 23.224 138.394 23.14 137.741 23.14C136.509 23.14 135.632 23.392 135.109 23.896C134.586 24.3813 134.325 24.9787 134.325 25.688C134.325 26.36 134.577 26.9107 135.081 27.34C135.585 27.7693 136.257 27.984 137.097 27.984ZM155.286 30.448C154.185 30.448 153.233 30.2147 152.43 29.748C151.646 29.2627 151.068 28.712 150.694 28.096H150.526V30H147.67V9.952H150.694V15.664L150.526 17.652H150.694C151.068 17.036 151.646 16.4853 152.43 16C153.233 15.5147 154.185 15.272 155.286 15.272C156.593 15.272 157.76 15.5987 158.786 16.252C159.813 16.9053 160.625 17.8013 161.222 18.94C161.838 20.0787 162.146 21.3853 162.146 22.86C162.146 24.3347 161.838 25.6507 161.222 26.808C160.625 27.9467 159.813 28.8427 158.786 29.496C157.76 30.1307 156.593 30.448 155.286 30.448ZM154.838 27.676C155.585 27.676 156.285 27.48 156.938 27.088C157.592 26.696 158.124 26.1453 158.534 25.436C158.945 24.708 159.15 23.8493 159.15 22.86C159.15 21.8707 158.945 21.0213 158.534 20.312C158.124 19.584 157.592 19.024 156.938 18.632C156.285 18.24 155.585 18.044 154.838 18.044C154.092 18.044 153.392 18.24 152.738 18.632C152.085 19.024 151.553 19.584 151.142 20.312C150.732 21.0213 150.526 21.8707 150.526 22.86C150.526 23.8493 150.732 24.708 151.142 25.436C151.553 26.1453 152.085 26.696 152.738 27.088C153.392 27.48 154.092 27.676 154.838 27.676ZM171.944 30.448C170.469 30.448 169.172 30.112 168.052 29.44C166.932 28.768 166.055 27.8627 165.42 26.724C164.785 25.5853 164.468 24.2973 164.468 22.86C164.468 21.4413 164.785 20.1627 165.42 19.024C166.055 17.8667 166.932 16.952 168.052 16.28C169.172 15.608 170.469 15.272 171.944 15.272C173.4 15.272 174.688 15.608 175.808 16.28C176.928 16.952 177.805 17.8667 178.44 19.024C179.075 20.1627 179.392 21.4413 179.392 22.86C179.392 24.2973 179.075 25.5853 178.44 26.724C177.805 27.8627 176.928 28.768 175.808 29.44C174.688 30.112 173.4 30.448 171.944 30.448ZM171.944 27.676C172.728 27.676 173.456 27.4893 174.128 27.116C174.8 26.724 175.341 26.1733 175.752 25.464C176.181 24.736 176.396 23.868 176.396 22.86C176.396 21.852 176.181 20.9933 175.752 20.284C175.341 19.556 174.8 19.0053 174.128 18.632C173.456 18.24 172.728 18.044 171.944 18.044C171.16 18.044 170.423 18.24 169.732 18.632C169.06 19.0053 168.509 19.556 168.08 20.284C167.669 20.9933 167.464 21.852 167.464 22.86C167.464 23.868 167.669 24.736 168.08 25.464C168.509 26.1733 169.06 26.724 169.732 27.116C170.423 27.4893 171.16 27.676 171.944 27.676ZM182.204 30V15.72H185.06V17.68H185.228C185.639 16.9893 186.245 16.42 187.048 15.972C187.869 15.5053 188.765 15.272 189.736 15.272C191.491 15.272 192.807 15.7947 193.684 16.84C194.561 17.8853 195 19.2667 195 20.984V30H192.004V21.376C192.004 20.2187 191.715 19.3787 191.136 18.856C190.557 18.3147 189.801 18.044 188.868 18.044C188.14 18.044 187.505 18.2493 186.964 18.66C186.423 19.052 185.993 19.5747 185.676 20.228C185.377 20.8813 185.228 21.5813 185.228 22.328V30H182.204ZM205.27 30.448C203.87 30.448 202.619 30.1213 201.518 29.468C200.417 28.8147 199.549 27.9187 198.914 26.78C198.298 25.6413 197.99 24.344 197.99 22.888C197.99 21.5253 198.289 20.2653 198.886 19.108C199.483 17.9507 200.314 17.0267 201.378 16.336C202.461 15.6267 203.702 15.272 205.102 15.272C206.577 15.272 207.827 15.5893 208.854 16.224C209.899 16.8587 210.693 17.7267 211.234 18.828C211.775 19.9293 212.046 21.1707 212.046 22.552C212.046 22.7573 212.037 22.944 212.018 23.112C212.018 23.28 212.009 23.4107 211.99 23.504H200.958C201.107 24.9227 201.602 25.9867 202.442 26.696C203.301 27.4053 204.271 27.76 205.354 27.76C206.325 27.76 207.127 27.5453 207.762 27.116C208.397 26.668 208.901 26.1173 209.274 25.464L211.766 26.668C211.15 27.788 210.31 28.7027 209.246 29.412C208.182 30.1027 206.857 30.448 205.27 30.448ZM205.13 17.848C204.122 17.848 203.263 18.156 202.554 18.772C201.845 19.388 201.369 20.2093 201.126 21.236H209.05C209.013 20.7507 208.854 20.2467 208.574 19.724C208.294 19.2013 207.865 18.7627 207.286 18.408C206.726 18.0347 206.007 17.848 205.13 17.848ZM228.707 30.448C227.232 30.448 225.935 30.112 224.815 29.44C223.695 28.768 222.817 27.8627 222.183 26.724C221.548 25.5853 221.231 24.2973 221.231 22.86C221.231 21.4413 221.548 20.1627 222.183 19.024C222.817 17.8667 223.695 16.952 224.815 16.28C225.935 15.608 227.232 15.272 228.707 15.272C230.163 15.272 231.451 15.608 232.571 16.28C233.691 16.952 234.568 17.8667 235.203 19.024C235.837 20.1627 236.155 21.4413 236.155 22.86C236.155 24.2973 235.837 25.5853 235.203 26.724C234.568 27.8627 233.691 28.768 232.571 29.44C231.451 30.112 230.163 30.448 228.707 30.448ZM228.707 27.676C229.491 27.676 230.219 27.4893 230.891 27.116C231.563 26.724 232.104 26.1733 232.515 25.464C232.944 24.736 233.159 23.868 233.159 22.86C233.159 21.852 232.944 20.9933 232.515 20.284C232.104 19.556 231.563 19.0053 230.891 18.632C230.219 18.24 229.491 18.044 228.707 18.044C227.923 18.044 227.185 18.24 226.495 18.632C225.823 19.0053 225.272 19.556 224.843 20.284C224.432 20.9933 224.227 21.852 224.227 22.86C224.227 23.868 224.432 24.736 224.843 25.464C225.272 26.1733 225.823 26.724 226.495 27.116C227.185 27.4893 227.923 27.676 228.707 27.676ZM239.131 30V9.952H242.155V30H239.131Z" fill="white"/>
</g>
</svg>
