<svg width="135" height="21" viewBox="0 0 135 21" fill="none" xmlns="http://www.w3.org/2000/svg">
<g id="tr_subscribe_with_Pay_NBG">
<g id="GPay (Dark)">
<g id="GPay">
<g id="Pay">
<path id="Fill 1" fill-rule="evenodd" clip-rule="evenodd" d="M22.3563 3.42339V8.16175H25.2784C25.9745 8.16175 26.5501 7.92781 27.0055 7.45993C27.4728 6.99313 27.707 6.43644 27.707 5.79203C27.707 5.16061 27.4728 4.61041 27.0055 4.14254C26.5501 3.66274 25.9745 3.4223 25.2784 3.4223H22.3563V3.42339ZM22.3563 9.82966V15.3262H20.6107V1.75549H25.2404C26.4169 1.75549 27.4154 2.14756 28.2383 2.93061C29.0732 3.71365 29.4906 4.66782 29.4906 5.79203C29.4906 6.94224 29.0731 7.90291 28.2383 8.67296C27.4283 9.44409 26.4287 9.82858 25.2404 9.82858H22.3563V9.82966Z" fill="white"/>
<path id="Fill 3" fill-rule="evenodd" clip-rule="evenodd" d="M31.2546 12.4831C31.2546 12.9379 31.4476 13.317 31.8337 13.6203C32.2195 13.9235 32.6717 14.0752 33.19 14.0752C33.9239 14.0752 34.5777 13.8032 35.1535 13.2607C35.7293 12.717 36.0165 12.0791 36.0165 11.3469C35.4722 10.917 34.7133 10.7025 33.7396 10.7025C33.0306 10.7025 32.4397 10.8736 31.9659 11.2148C31.492 11.5559 31.2546 11.9773 31.2546 12.4831M33.513 5.73566C34.8033 5.73566 35.8214 6.08007 36.5685 6.76889C37.3145 7.45771 37.6873 8.40213 37.6873 9.60216V15.3261H36.0177V14.0373H35.9417C35.2207 15.0985 34.259 15.6294 33.0578 15.6294C32.0332 15.6294 31.1755 15.3261 30.4869 14.7196C29.7975 14.1131 29.4527 13.3549 29.4527 12.4452C29.4527 11.4845 29.8158 10.7208 30.5433 10.1523C31.2708 9.58375 32.2413 9.2989 33.4557 9.2989C34.4921 9.2989 35.3465 9.48844 36.0165 9.86751V9.46894C36.0165 8.86243 35.7758 8.34798 35.2956 7.92451C34.8141 7.50103 34.2525 7.28984 33.6074 7.28984C32.6326 7.28984 31.8618 7.70032 31.2926 8.52235L29.7551 7.55519C30.6029 6.34217 31.8552 5.73566 33.513 5.73566" fill="white"/>
<path id="Fill 5" fill-rule="evenodd" clip-rule="evenodd" d="M47.2687 6.03894L41.4432 19.4201H39.6411L41.8043 14.738L37.9714 6.03894H39.8688L42.639 12.7106H42.677L45.3713 6.03894H47.2687Z" fill="white"/>
</g>
<g id="G">
<path id="Fill 8" fill-rule="evenodd" clip-rule="evenodd" d="M15.3029 8.64473C15.3029 8.09563 15.2562 7.56601 15.1684 7.05914H7.80648V10.0625H12.0231C11.842 11.0414 11.2945 11.8744 10.4639 12.4322V14.3828H12.9804C14.4539 13.0246 15.3029 11.0177 15.3029 8.64473" fill="#4285F4"/>
<path id="Fill 10" fill-rule="evenodd" clip-rule="evenodd" d="M7.80646 16.2651C9.91313 16.2651 11.6869 15.5741 12.9804 14.3828L10.4639 12.4322C9.7635 12.9033 8.86142 13.1784 7.80646 13.1784C5.77028 13.1784 4.04201 11.8073 3.424 9.95959H0.831596V11.9687C2.11641 14.516 4.75652 16.2651 7.80646 16.2651" fill="#34A853"/>
<path id="Fill 12" fill-rule="evenodd" clip-rule="evenodd" d="M3.42401 9.9596C3.26571 9.48847 3.17897 8.98593 3.17897 8.46715C3.17897 7.94837 3.26571 7.44583 3.42401 6.9747V4.96564H0.831606C0.300332 6.01837 0 7.20756 0 8.46715C0 9.72674 0.300332 10.916 0.831606 11.9687L3.42401 9.9596Z" fill="#FABB05"/>
<path id="Fill 14" fill-rule="evenodd" clip-rule="evenodd" d="M7.80646 3.75583C8.95683 3.75583 9.98794 4.15115 10.8011 4.92553V4.92661L13.0292 2.70094C11.6761 1.44243 9.91204 0.669128 7.80646 0.669128C4.75652 0.669128 2.11641 2.41826 0.831596 4.9656L3.424 6.97467C4.04201 5.12698 5.77028 3.75583 7.80646 3.75583" fill="#E94235"/>
</g>
</g>
</g>
<path id="Right Text" d="M48.786 15.0006V6.84061H50.514V15.0006H48.786ZM49.65 5.64061C49.33 5.64061 49.0527 5.52861 48.818 5.30461C48.594 5.06994 48.482 4.79261 48.482 4.47261C48.482 4.14194 48.594 3.86994 48.818 3.65661C49.0527 3.43261 49.33 3.32061 49.65 3.32061C49.9807 3.32061 50.258 3.43261 50.482 3.65661C50.706 3.86994 50.818 4.14194 50.818 4.47261C50.818 4.79261 50.706 5.06994 50.482 5.30461C50.258 5.52861 49.9807 5.64061 49.65 5.64061ZM52.824 15.0006V3.54461H54.552V15.0006H52.824ZM60.3891 15.2566C59.5891 15.2566 58.8745 15.0699 58.2451 14.6966C57.6158 14.3233 57.1198 13.8113 56.7571 13.1606C56.4051 12.5099 56.2291 11.7686 56.2291 10.9366C56.2291 10.1579 56.3998 9.43794 56.7411 8.77661C57.0825 8.11528 57.5571 7.58728 58.1651 7.19261C58.7838 6.78728 59.4931 6.58461 60.2931 6.58461C61.1358 6.58461 61.8505 6.76594 62.4371 7.12861C63.0345 7.49128 63.4878 7.98728 63.7971 8.61661C64.1065 9.24594 64.2611 9.95528 64.2611 10.7446C64.2611 10.8619 64.2558 10.9686 64.2451 11.0646C64.2451 11.1606 64.2398 11.2353 64.2291 11.2886H57.9251C57.9678 11.7366 58.0798 12.1259 58.2611 12.4566C58.4958 12.8726 58.8051 13.1873 59.1891 13.4006C59.5731 13.6139 59.9891 13.7206 60.4371 13.7206C60.9811 13.7206 61.4345 13.5979 61.7971 13.3526C62.1705 13.0966 62.4638 12.7819 62.6771 12.4086L64.1011 13.0966C63.7491 13.7366 63.2691 14.2593 62.6611 14.6646C62.0531 15.0593 61.2958 15.2566 60.3891 15.2566ZM58.0211 9.99261H62.5491C62.5385 9.78994 62.4851 9.57661 62.3891 9.35261C62.2931 9.11794 62.1545 8.90461 61.9731 8.71261C61.7918 8.52061 61.5625 8.36594 61.2851 8.24861C61.0078 8.12061 60.6825 8.05661 60.3091 8.05661C59.8398 8.05661 59.4238 8.17928 59.0611 8.42461C58.6985 8.65928 58.4158 8.98994 58.2131 9.41661C58.1278 9.59794 58.0638 9.78994 58.0211 9.99261ZM72.4586 15.2566C71.872 15.2566 71.3493 15.1393 70.8906 14.9046C70.4426 14.6699 70.0853 14.3499 69.8186 13.9446C69.5626 13.5286 69.4346 13.0539 69.4346 12.5206C69.4346 11.9339 69.584 11.4379 69.8826 11.0326C70.192 10.6273 70.6026 10.3179 71.1146 10.1046C71.6266 9.89128 72.192 9.78461 72.8106 9.78461C73.152 9.78461 73.4666 9.81128 73.7546 9.86461C74.0533 9.90728 74.3093 9.96061 74.5226 10.0246C74.7466 10.0886 74.9226 10.1579 75.0506 10.2326V9.80061C75.0506 9.26728 74.8586 8.84061 74.4746 8.52061C74.0906 8.20061 73.5946 8.04061 72.9866 8.04061C72.5706 8.04061 72.176 8.13661 71.8026 8.32861C71.4293 8.50994 71.1306 8.76061 70.9066 9.08061L69.7226 8.16861C69.9573 7.83794 70.24 7.55528 70.5706 7.32061C70.912 7.08594 71.2906 6.90461 71.7066 6.77661C72.1333 6.64861 72.576 6.58461 73.0346 6.58461C74.2186 6.58461 75.1306 6.87794 75.7706 7.46461C76.4106 8.04061 76.7306 8.85128 76.7306 9.89661V15.0006H75.0506V13.9926H74.9546C74.816 14.2059 74.624 14.4086 74.3786 14.6006C74.144 14.7926 73.8613 14.9473 73.5306 15.0646C73.2106 15.1926 72.8533 15.2566 72.4586 15.2566ZM72.7626 13.8486C73.2106 13.8486 73.6053 13.7419 73.9466 13.5286C74.2986 13.3153 74.5706 13.0379 74.7626 12.6966C74.9546 12.3446 75.0506 11.9659 75.0506 11.5606C74.816 11.4219 74.528 11.3099 74.1866 11.2246C73.856 11.1286 73.504 11.0806 73.1306 11.0806C72.4266 11.0806 71.9253 11.2193 71.6266 11.4966C71.328 11.7739 71.1786 12.1206 71.1786 12.5366C71.1786 12.9206 71.3226 13.2353 71.6106 13.4806C71.8986 13.7259 72.2826 13.8486 72.7626 13.8486ZM83.135 15.2566C82.719 15.2566 82.3403 15.1926 81.999 15.0646C81.6577 14.9366 81.359 14.7713 81.103 14.5686C80.8577 14.3553 80.6603 14.1366 80.511 13.9126H80.415V15.0006H78.783V3.54461H80.511V6.80861L80.415 7.94461H80.511C80.6603 7.70994 80.8577 7.49128 81.103 7.28861C81.359 7.07528 81.6577 6.90461 81.999 6.77661C82.3403 6.64861 82.719 6.58461 83.135 6.58461C83.8817 6.58461 84.5483 6.77128 85.135 7.14461C85.7217 7.51794 86.1857 8.02994 86.527 8.68061C86.879 9.33128 87.055 10.0779 87.055 10.9206C87.055 11.7633 86.879 12.5099 86.527 13.1606C86.1857 13.8113 85.7217 14.3233 85.135 14.6966C84.5483 15.0699 83.8817 15.2566 83.135 15.2566ZM82.879 13.6726C83.3057 13.6726 83.7057 13.5606 84.079 13.3366C84.463 13.1126 84.767 12.7926 84.991 12.3766C85.2257 11.9606 85.343 11.4753 85.343 10.9206C85.343 10.3553 85.2257 9.86994 84.991 9.46461C84.767 9.04861 84.463 8.72861 84.079 8.50461C83.7057 8.28061 83.3057 8.16861 82.879 8.16861C82.4523 8.16861 82.0523 8.28061 81.679 8.50461C81.3057 8.72861 81.0017 9.04861 80.767 9.46461C80.5323 9.86994 80.415 10.3553 80.415 10.9206C80.415 11.4859 80.5323 11.9766 80.767 12.3926C81.0017 12.7979 81.3057 13.1126 81.679 13.3366C82.0523 13.5606 82.4523 13.6726 82.879 13.6726ZM92.6324 15.2566C91.7897 15.2566 91.0484 15.0646 90.4084 14.6806C89.7684 14.2966 89.267 13.7793 88.9044 13.1286C88.5417 12.4673 88.3604 11.7313 88.3604 10.9206C88.3604 10.1099 88.5417 9.37928 88.9044 8.72861C89.267 8.06728 89.7684 7.54461 90.4084 7.16061C91.0484 6.77661 91.7897 6.58461 92.6324 6.58461C93.4644 6.58461 94.2004 6.78194 94.8404 7.17661C95.4804 7.56061 95.9817 8.07794 96.3444 8.72861C96.707 9.37928 96.8884 10.1099 96.8884 10.9206C96.8884 11.7313 96.707 12.4673 96.3444 13.1286C95.9817 13.7793 95.4804 14.2966 94.8404 14.6806C94.2004 15.0646 93.4644 15.2566 92.6324 15.2566ZM92.6324 13.6726C93.0804 13.6726 93.4964 13.5659 93.8804 13.3526C94.2644 13.1286 94.5737 12.8139 94.8084 12.4086C95.0537 11.9926 95.1764 11.4966 95.1764 10.9206C95.1764 10.3446 95.0537 9.85394 94.8084 9.44861C94.5737 9.03261 94.2644 8.71794 93.8804 8.50461C93.4964 8.28061 93.0804 8.16861 92.6324 8.16861C92.1844 8.16861 91.763 8.28061 91.3684 8.50461C90.9844 8.71794 90.6697 9.03261 90.4244 9.44861C90.1897 9.85394 90.0724 10.3446 90.0724 10.9206C90.0724 11.4966 90.1897 11.9926 90.4244 12.4086C90.6697 12.8139 90.9897 13.1286 91.3844 13.3526C91.779 13.5659 92.195 13.6726 92.6324 13.6726ZM98.4736 15.0006V6.84061H100.106V7.96061H100.202C100.436 7.56594 100.783 7.24061 101.242 6.98461C101.711 6.71794 102.223 6.58461 102.778 6.58461C103.78 6.58461 104.532 6.88328 105.034 7.48061C105.535 8.06728 105.786 8.85661 105.786 9.84861V15.0006H104.074V10.0726C104.074 9.41128 103.908 8.93128 103.578 8.63261C103.247 8.32328 102.815 8.16861 102.282 8.16861C101.866 8.16861 101.503 8.28594 101.194 8.52061C100.884 8.74461 100.639 9.04328 100.458 9.41661C100.287 9.78994 100.202 10.1899 100.202 10.6166V15.0006H98.4736ZM111.633 15.2566C110.833 15.2566 110.118 15.0699 109.489 14.6966C108.86 14.3233 108.364 13.8113 108.001 13.1606C107.649 12.5099 107.473 11.7686 107.473 10.9366C107.473 10.1579 107.644 9.43794 107.985 8.77661C108.326 8.11528 108.801 7.58728 109.409 7.19261C110.028 6.78728 110.737 6.58461 111.537 6.58461C112.38 6.58461 113.094 6.76594 113.681 7.12861C114.278 7.49128 114.732 7.98728 115.041 8.61661C115.35 9.24594 115.505 9.95528 115.505 10.7446C115.505 10.8619 115.5 10.9686 115.489 11.0646C115.489 11.1606 115.484 11.2353 115.473 11.2886H109.169C109.212 11.7366 109.324 12.1259 109.505 12.4566C109.74 12.8726 110.049 13.1873 110.433 13.4006C110.817 13.6139 111.233 13.7206 111.681 13.7206C112.225 13.7206 112.678 13.5979 113.041 13.3526C113.414 13.0966 113.708 12.7819 113.921 12.4086L115.345 13.0966C114.993 13.7366 114.513 14.2593 113.905 14.6646C113.297 15.0593 112.54 15.2566 111.633 15.2566ZM109.265 9.99261H113.793C113.782 9.78994 113.729 9.57661 113.633 9.35261C113.537 9.11794 113.398 8.90461 113.217 8.71261C113.036 8.52061 112.806 8.36594 112.529 8.24861C112.252 8.12061 111.926 8.05661 111.553 8.05661C111.084 8.05661 110.668 8.17928 110.305 8.42461C109.942 8.65928 109.66 8.98994 109.457 9.41661C109.372 9.59794 109.308 9.78994 109.265 9.99261ZM124.982 15.2566C124.14 15.2566 123.398 15.0646 122.758 14.6806C122.118 14.2966 121.617 13.7793 121.254 13.1286C120.892 12.4673 120.71 11.7313 120.71 10.9206C120.71 10.1099 120.892 9.37928 121.254 8.72861C121.617 8.06728 122.118 7.54461 122.758 7.16061C123.398 6.77661 124.14 6.58461 124.982 6.58461C125.814 6.58461 126.55 6.78194 127.19 7.17661C127.83 7.56061 128.332 8.07794 128.694 8.72861C129.057 9.37928 129.238 10.1099 129.238 10.9206C129.238 11.7313 129.057 12.4673 128.694 13.1286C128.332 13.7793 127.83 14.2966 127.19 14.6806C126.55 15.0646 125.814 15.2566 124.982 15.2566ZM124.982 13.6726C125.43 13.6726 125.846 13.5659 126.23 13.3526C126.614 13.1286 126.924 12.8139 127.158 12.4086C127.404 11.9926 127.526 11.4966 127.526 10.9206C127.526 10.3446 127.404 9.85394 127.158 9.44861C126.924 9.03261 126.614 8.71794 126.23 8.50461C125.846 8.28061 125.43 8.16861 124.982 8.16861C124.534 8.16861 124.113 8.28061 123.718 8.50461C123.334 8.71794 123.02 9.03261 122.774 9.44861C122.54 9.85394 122.422 10.3446 122.422 10.9206C122.422 11.4966 122.54 11.9926 122.774 12.4086C123.02 12.8139 123.34 13.1286 123.734 13.3526C124.129 13.5659 124.545 13.6726 124.982 13.6726ZM130.918 15.0006V3.54461H132.646V15.0006H130.918Z" fill="white"/>
</g>
</svg>
