<svg width="262" height="38" viewBox="0 0 262 38" fill="none" xmlns="http://www.w3.org/2000/svg">
<g id="tr_view_in_Dark">
<g id="GPay Logo (Dark)">
<g id="GPay">
<g id="Pay">
<path id="Fill 1" fill-rule="evenodd" clip-rule="evenodd" d="M38.5289 9.34665V17.5128H43.5649C44.7645 17.5128 45.7565 17.1096 46.5413 16.3032C47.3467 15.4988 47.7503 14.5394 47.7503 13.4288C47.7503 12.3406 47.3467 11.3924 46.5413 10.586C45.7565 9.75916 44.7645 9.34479 43.5649 9.34479H38.5289V9.34665ZM38.5289 20.3872V29.8599H35.5205V6.47218H43.4993C45.5269 6.47218 47.2478 7.14787 48.6659 8.49738C50.1049 9.84688 50.8241 11.4913 50.8241 13.4288C50.8241 15.411 50.1047 17.0667 48.6659 18.3938C47.2701 19.7227 45.5473 20.3854 43.4993 20.3854H38.5289V20.3872Z" fill="white"/>
<path id="Fill 3" fill-rule="evenodd" clip-rule="evenodd" d="M53.8642 24.9602C53.8642 25.7442 54.1968 26.3975 54.8622 26.9201C55.5272 27.4427 56.3064 27.704 57.1998 27.704C58.4646 27.704 59.5913 27.2354 60.5835 26.3004C61.5759 25.3634 62.0709 24.264 62.0709 23.0022C61.1329 22.2612 59.8249 21.8916 58.1469 21.8916C56.9251 21.8916 55.9067 22.1866 55.0901 22.7745C54.2734 23.3623 53.8642 24.0886 53.8642 24.9602ZM57.7564 13.3317C59.98 13.3317 61.7346 13.9253 63.0222 15.1124C64.3078 16.2995 64.9504 17.9271 64.9504 19.9952V29.8599H62.073V27.6387H61.942C60.6994 29.4677 59.042 30.3825 56.9718 30.3825C55.206 30.3825 53.7279 29.8599 52.5412 28.8146C51.353 27.7694 50.7588 26.4628 50.7588 24.8949C50.7588 23.2393 51.3846 21.9232 52.6384 20.9434C53.8922 19.9635 55.5648 19.4726 57.6576 19.4726C59.4437 19.4726 60.9162 19.7993 62.0709 20.4525V19.7657C62.0709 18.7204 61.6561 17.8338 60.8285 17.104C59.9987 16.3742 59.0308 16.0102 57.919 16.0102C56.2391 16.0102 54.9108 16.7176 53.9298 18.1343L51.2799 16.4675C52.7412 14.377 54.8994 13.3317 57.7564 13.3317Z" fill="white"/>
<path id="Fill 5" fill-rule="evenodd" clip-rule="evenodd" d="M81.4629 13.8543L71.4233 36.9154H68.3175L72.0455 28.8464L65.4399 13.8543H68.7099L73.4841 25.3522H73.5495L78.1929 13.8543H81.4629Z" fill="white"/>
</g>
<g id="G">
<path id="Fill 8" fill-rule="evenodd" clip-rule="evenodd" d="M26.3729 18.3452C26.3729 17.3989 26.2926 16.4861 26.1412 15.6126H13.4536V20.7885H20.7205C20.4084 22.4757 19.4648 23.9112 18.0335 24.8725V28.2341H22.3704C24.9098 25.8935 26.3729 22.4348 26.3729 18.3452Z" fill="#4285F4"/>
<path id="Fill 10" fill-rule="evenodd" clip-rule="evenodd" d="M13.4536 31.4782C17.0843 31.4782 20.1412 30.2873 22.3704 28.2341L18.0335 24.8725C16.8264 25.6844 15.2717 26.1585 13.4536 26.1585C9.94445 26.1585 6.96594 23.7955 5.90086 20.6112H1.43311V24.0736C3.64736 28.4637 8.19733 31.4782 13.4536 31.4782Z" fill="#34A853"/>
<path id="Fill 12" fill-rule="evenodd" clip-rule="evenodd" d="M5.90095 20.6111C5.62814 19.7992 5.47865 18.9331 5.47865 18.0391C5.47865 17.145 5.62814 16.2789 5.90095 15.467V12.0045H1.43319C0.517594 13.8188 0 15.8683 0 18.0391C0 20.2098 0.517594 22.2595 1.43319 24.0736L5.90095 20.6111Z" fill="#FABB05"/>
<path id="Fill 14" fill-rule="evenodd" clip-rule="evenodd" d="M13.4536 9.91964C15.4362 9.91964 17.2132 10.6009 18.6146 11.9355V11.9374L22.4545 8.10163C20.1226 5.93272 17.0824 4.60001 13.4536 4.60001C8.19733 4.60001 3.64736 7.61447 1.43311 12.0046L5.90086 15.467C6.96594 12.2827 9.94445 9.91964 13.4536 9.91964Z" fill="#E94235"/>
</g>
</g>
</g>
<path id="Text" d="M96.5 13.62C95.94 13.62 95.4547 13.424 95.044 13.032C94.652 12.6213 94.456 12.136 94.456 11.576C94.456 11.016 94.652 10.54 95.044 10.148C95.4547 9.756 95.94 9.56 96.5 9.56C97.06 9.56 97.536 9.756 97.928 10.148C98.3387 10.54 98.544 11.016 98.544 11.576C98.544 12.136 98.3387 12.6213 97.928 13.032C97.536 13.424 97.06 13.62 96.5 13.62ZM94.988 30V15.72H98.012V30H94.988ZM102.092 30V9.952H105.116V30H102.092ZM115.368 30.448C113.968 30.448 112.718 30.1213 111.616 29.468C110.515 28.8147 109.647 27.9187 109.012 26.78C108.396 25.6413 108.088 24.344 108.088 22.888C108.088 21.5253 108.387 20.2653 108.984 19.108C109.582 17.9507 110.412 17.0267 111.476 16.336C112.559 15.6267 113.8 15.272 115.2 15.272C116.675 15.272 117.926 15.5893 118.952 16.224C119.998 16.8587 120.791 17.7267 121.332 18.828C121.874 19.9293 122.144 21.1707 122.144 22.552C122.144 22.7573 122.135 22.944 122.116 23.112C122.116 23.28 122.107 23.4107 122.088 23.504H111.056C111.206 24.9227 111.7 25.9867 112.54 26.696C113.399 27.4053 114.37 27.76 115.452 27.76C116.423 27.76 117.226 27.5453 117.86 27.116C118.495 26.668 118.999 26.1173 119.372 25.464L121.864 26.668C121.248 27.788 120.408 28.7027 119.344 29.412C118.28 30.1027 116.955 30.448 115.368 30.448ZM115.228 17.848C114.22 17.848 113.362 18.156 112.652 18.772C111.943 19.388 111.467 20.2093 111.224 21.236H119.148C119.111 20.7507 118.952 20.2467 118.672 19.724C118.392 19.2013 117.963 18.7627 117.384 18.408C116.824 18.0347 116.106 17.848 115.228 17.848ZM138.525 36.496C137.274 36.496 136.192 36.2907 135.277 35.88C134.381 35.488 133.653 34.9747 133.093 34.34C132.533 33.724 132.132 33.0893 131.889 32.436L134.689 31.26C134.988 32.0067 135.464 32.6133 136.117 33.08C136.789 33.5653 137.592 33.808 138.525 33.808C139.832 33.808 140.858 33.416 141.605 32.632C142.37 31.848 142.753 30.7373 142.753 29.3V27.928H142.585C142.137 28.6 141.512 29.1413 140.709 29.552C139.925 29.944 139.029 30.14 138.021 30.14C136.808 30.14 135.697 29.832 134.689 29.216C133.681 28.6 132.869 27.7413 132.253 26.64C131.637 25.52 131.329 24.2133 131.329 22.72C131.329 21.208 131.637 19.9013 132.253 18.8C132.869 17.68 133.681 16.812 134.689 16.196C135.697 15.58 136.808 15.272 138.021 15.272C139.029 15.272 139.925 15.4773 140.709 15.888C141.512 16.2987 142.137 16.84 142.585 17.512H142.753V15.72H145.637V29.244C145.637 30.7933 145.329 32.1093 144.713 33.192C144.116 34.2747 143.285 35.096 142.221 35.656C141.157 36.216 139.925 36.496 138.525 36.496ZM138.553 27.396C139.3 27.396 139.99 27.2187 140.625 26.864C141.26 26.4907 141.773 25.9587 142.165 25.268C142.557 24.5587 142.753 23.7093 142.753 22.72C142.753 21.6933 142.557 20.8347 142.165 20.144C141.773 19.4347 141.26 18.9027 140.625 18.548C139.99 18.1933 139.3 18.016 138.553 18.016C137.806 18.016 137.106 18.2027 136.453 18.576C135.818 18.9307 135.305 19.4533 134.913 20.144C134.521 20.8347 134.325 21.6933 134.325 22.72C134.325 23.728 134.521 24.5867 134.913 25.296C135.305 25.9867 135.818 26.5093 136.453 26.864C137.106 27.2187 137.806 27.396 138.553 27.396ZM156.058 30.448C154.584 30.448 153.286 30.112 152.166 29.44C151.046 28.768 150.169 27.8627 149.534 26.724C148.9 25.5853 148.582 24.2973 148.582 22.86C148.582 21.4413 148.9 20.1627 149.534 19.024C150.169 17.8667 151.046 16.952 152.166 16.28C153.286 15.608 154.584 15.272 156.058 15.272C157.514 15.272 158.802 15.608 159.922 16.28C161.042 16.952 161.92 17.8667 162.554 19.024C163.189 20.1627 163.506 21.4413 163.506 22.86C163.506 24.2973 163.189 25.5853 162.554 26.724C161.92 27.8627 161.042 28.768 159.922 29.44C158.802 30.112 157.514 30.448 156.058 30.448ZM156.058 27.676C156.842 27.676 157.57 27.4893 158.242 27.116C158.914 26.724 159.456 26.1733 159.866 25.464C160.296 24.736 160.51 23.868 160.51 22.86C160.51 21.852 160.296 20.9933 159.866 20.284C159.456 19.556 158.914 19.0053 158.242 18.632C157.57 18.24 156.842 18.044 156.058 18.044C155.274 18.044 154.537 18.24 153.846 18.632C153.174 19.0053 152.624 19.556 152.194 20.284C151.784 20.9933 151.578 21.852 151.578 22.86C151.578 23.868 151.784 24.736 152.194 25.464C152.624 26.1733 153.174 26.724 153.846 27.116C154.537 27.4893 155.274 27.676 156.058 27.676ZM158.522 12.808C158.056 12.808 157.645 12.64 157.29 12.304C156.954 11.9493 156.786 11.5293 156.786 11.044C156.786 10.5587 156.954 10.1573 157.29 9.84C157.645 9.504 158.056 9.336 158.522 9.336C159.026 9.336 159.446 9.504 159.782 9.84C160.118 10.1573 160.286 10.5587 160.286 11.044C160.286 11.5293 160.118 11.9493 159.782 12.304C159.446 12.64 159.026 12.808 158.522 12.808ZM153.566 12.808C153.1 12.808 152.689 12.64 152.334 12.304C151.998 11.9493 151.83 11.5293 151.83 11.044C151.83 10.5587 151.998 10.1573 152.334 9.84C152.689 9.504 153.1 9.336 153.566 9.336C154.07 9.336 154.481 9.504 154.798 9.84C155.134 10.1573 155.302 10.5587 155.302 11.044C155.302 11.5293 155.134 11.9493 154.798 12.304C154.481 12.64 154.07 12.808 153.566 12.808ZM166.318 30V15.72H169.174V17.82H169.342C169.659 17.092 170.201 16.4947 170.966 16.028C171.75 15.5427 172.59 15.3 173.486 15.3C173.878 15.3 174.205 15.328 174.466 15.384C174.746 15.44 174.998 15.5053 175.222 15.58V18.716C174.867 18.5667 174.503 18.4453 174.13 18.352C173.775 18.2587 173.402 18.212 173.01 18.212C172.301 18.212 171.666 18.408 171.106 18.8C170.565 19.1733 170.135 19.6867 169.818 20.34C169.501 20.9747 169.342 21.6747 169.342 22.44V30H166.318ZM183.036 30.448C181.282 30.448 179.956 29.9253 179.06 28.88C178.183 27.816 177.744 26.3787 177.744 24.568V15.72H180.768V24.148C180.768 25.3613 181.048 26.2573 181.608 26.836C182.187 27.396 182.906 27.676 183.764 27.676C184.53 27.676 185.192 27.48 185.752 27.088C186.331 26.6773 186.77 26.1547 187.068 25.52C187.386 24.8667 187.544 24.1573 187.544 23.392V15.72H190.54V30H187.712V28.068H187.544C187.134 28.74 186.518 29.3093 185.696 29.776C184.894 30.224 184.007 30.448 183.036 30.448ZM186.62 12.808C186.154 12.808 185.743 12.64 185.388 12.304C185.052 11.9493 184.884 11.5293 184.884 11.044C184.884 10.5587 185.052 10.1573 185.388 9.84C185.743 9.504 186.154 9.336 186.62 9.336C187.124 9.336 187.544 9.504 187.88 9.84C188.216 10.1573 188.384 10.5587 188.384 11.044C188.384 11.5293 188.216 11.9493 187.88 12.304C187.544 12.64 187.124 12.808 186.62 12.808ZM181.664 12.808C181.198 12.808 180.787 12.64 180.432 12.304C180.096 11.9493 179.928 11.5293 179.928 11.044C179.928 10.5587 180.096 10.1573 180.432 9.84C180.787 9.504 181.198 9.336 181.664 9.336C182.168 9.336 182.579 9.504 182.896 9.84C183.232 10.1573 183.4 10.5587 183.4 11.044C183.4 11.5293 183.232 11.9493 182.896 12.304C182.579 12.64 182.168 12.808 181.664 12.808ZM194.398 30V15.72H197.254V17.68H197.422C197.833 16.9893 198.44 16.42 199.242 15.972C200.064 15.5053 200.96 15.272 201.93 15.272C203.685 15.272 205.001 15.7947 205.878 16.84C206.756 17.8853 207.194 19.2667 207.194 20.984V30H204.198V21.376C204.198 20.2187 203.909 19.3787 203.33 18.856C202.752 18.3147 201.996 18.044 201.062 18.044C200.334 18.044 199.7 18.2493 199.158 18.66C198.617 19.052 198.188 19.5747 197.87 20.228C197.572 20.8813 197.422 21.5813 197.422 22.328V30H194.398ZM211.742 25.856V18.352H209.25V15.72H211.742V11.688H214.766V15.72H218.266V18.352H214.766V25.212C214.766 25.9213 214.906 26.4627 215.186 26.836C215.484 27.2093 215.979 27.396 216.67 27.396C217.024 27.396 217.323 27.3493 217.566 27.256C217.827 27.1627 218.088 27.032 218.35 26.864V29.804C218.032 29.9347 217.696 30.0373 217.342 30.112C216.987 30.1867 216.567 30.224 216.082 30.224C214.756 30.224 213.702 29.8413 212.918 29.076C212.134 28.292 211.742 27.2187 211.742 25.856ZM226.647 30.448C224.892 30.448 223.567 29.9253 222.671 28.88C221.794 27.816 221.355 26.3787 221.355 24.568V15.72H224.379V24.148C224.379 25.3613 224.659 26.2573 225.219 26.836C225.798 27.396 226.516 27.676 227.375 27.676C228.14 27.676 228.803 27.48 229.363 27.088C229.942 26.6773 230.38 26.1547 230.679 25.52C230.996 24.8667 231.155 24.1573 231.155 23.392V15.72H234.151V30H231.323V28.068H231.155C230.744 28.74 230.128 29.3093 229.307 29.776C228.504 30.224 227.618 30.448 226.647 30.448ZM230.231 12.808C229.764 12.808 229.354 12.64 228.999 12.304C228.663 11.9493 228.495 11.5293 228.495 11.044C228.495 10.5587 228.663 10.1573 228.999 9.84C229.354 9.504 229.764 9.336 230.231 9.336C230.735 9.336 231.155 9.504 231.491 9.84C231.827 10.1573 231.995 10.5587 231.995 11.044C231.995 11.5293 231.827 11.9493 231.491 12.304C231.155 12.64 230.735 12.808 230.231 12.808ZM225.275 12.808C224.808 12.808 224.398 12.64 224.043 12.304C223.707 11.9493 223.539 11.5293 223.539 11.044C223.539 10.5587 223.707 10.1573 224.043 9.84C224.398 9.504 224.808 9.336 225.275 9.336C225.779 9.336 226.19 9.504 226.507 9.84C226.843 10.1573 227.011 10.5587 227.011 11.044C227.011 11.5293 226.843 11.9493 226.507 12.304C226.19 12.64 225.779 12.808 225.275 12.808ZM238.037 30V9.952H241.061V30H238.037ZM251.314 30.448C249.914 30.448 248.663 30.1213 247.562 29.468C246.46 28.8147 245.592 27.9187 244.958 26.78C244.342 25.6413 244.034 24.344 244.034 22.888C244.034 21.5253 244.332 20.2653 244.93 19.108C245.527 17.9507 246.358 17.0267 247.422 16.336C248.504 15.6267 249.746 15.272 251.146 15.272C252.62 15.272 253.871 15.5893 254.898 16.224C255.943 16.8587 256.736 17.7267 257.278 18.828C257.819 19.9293 258.09 21.1707 258.09 22.552C258.09 22.7573 258.08 22.944 258.062 23.112C258.062 23.28 258.052 23.4107 258.034 23.504H247.002C247.151 24.9227 247.646 25.9867 248.486 26.696C249.344 27.4053 250.315 27.76 251.398 27.76C252.368 27.76 253.171 27.5453 253.806 27.116C254.44 26.668 254.944 26.1173 255.318 25.464L257.81 26.668C257.194 27.788 256.354 28.7027 255.29 29.412C254.226 30.1027 252.9 30.448 251.314 30.448ZM251.174 17.848C250.166 17.848 249.307 18.156 248.598 18.772C247.888 19.388 247.412 20.2093 247.17 21.236H255.094C255.056 20.7507 254.898 20.2467 254.618 19.724C254.338 19.2013 253.908 18.7627 253.33 18.408C252.77 18.0347 252.051 17.848 251.174 17.848Z" fill="white"/>
</g>
</svg>
