<svg width="156" height="21" viewBox="0 0 156 21" fill="none" xmlns="http://www.w3.org/2000/svg">
<g id="el_add_to_Pay_NBG">
<path id="Left Text" d="M2.12413 15.0006V3.54461H10.7641V15.0006H9.00413V5.20861H3.88413V15.0006H2.12413ZM13.0002 18.4566V11.0486C13.0002 10.1419 13.1762 9.35794 13.5282 8.69661C13.8909 8.02461 14.3816 7.50728 15.0002 7.14461C15.6296 6.77128 16.3389 6.58461 17.1282 6.58461C17.8002 6.58461 18.3923 6.70194 18.9043 6.93661C19.4162 7.17128 19.8482 7.49128 20.2002 7.89661C20.5523 8.30194 20.8189 8.76594 21.0002 9.28861C21.1816 9.81128 21.2723 10.3606 21.2723 10.9366C21.2723 11.7793 21.0963 12.5259 20.7443 13.1766C20.4029 13.8273 19.9389 14.3393 19.3523 14.7126C18.7656 15.0753 18.1149 15.2566 17.4002 15.2566C16.9736 15.2566 16.5842 15.1926 16.2322 15.0646C15.8909 14.9473 15.5922 14.7873 15.3362 14.5846C15.0909 14.3819 14.8882 14.1579 14.7282 13.9126H14.6322L14.7282 15.0326V18.4566H13.0002ZM17.0802 13.6726C17.5176 13.6726 17.9229 13.5606 18.2962 13.3366C18.6803 13.1019 18.9843 12.7819 19.2083 12.3766C19.4429 11.9713 19.5602 11.4966 19.5602 10.9526C19.5602 10.3659 19.4429 9.86461 19.2083 9.44861C18.9736 9.03261 18.6642 8.71794 18.2803 8.50461C17.9069 8.28061 17.5069 8.16861 17.0802 8.16861C16.6856 8.16861 16.3016 8.27528 15.9282 8.48861C15.5549 8.70194 15.2456 9.01661 15.0002 9.43261C14.7549 9.84861 14.6322 10.3659 14.6322 10.9846C14.6322 11.4966 14.7442 11.9606 14.9682 12.3766C15.1922 12.7819 15.4909 13.1019 15.8642 13.3366C16.2376 13.5606 16.6429 13.6726 17.0802 13.6726ZM26.8511 15.2566C26.0085 15.2566 25.2671 15.0646 24.6271 14.6806C23.9871 14.2966 23.4858 13.7793 23.1231 13.1286C22.7605 12.4673 22.5791 11.7313 22.5791 10.9206C22.5791 10.1099 22.7605 9.37928 23.1231 8.72861C23.4858 8.06728 23.9871 7.54461 24.6271 7.16061C25.2671 6.77661 26.0085 6.58461 26.8511 6.58461C27.6831 6.58461 28.4191 6.78194 29.0591 7.17661C29.6991 7.56061 30.2005 8.07794 30.5631 8.72861C30.9258 9.37928 31.1071 10.1099 31.1071 10.9206C31.1071 11.7313 30.9258 12.4673 30.5631 13.1286C30.2005 13.7793 29.6991 14.2966 29.0591 14.6806C28.4191 15.0646 27.6831 15.2566 26.8511 15.2566ZM26.8511 13.6726C27.2991 13.6726 27.7151 13.5659 28.0991 13.3526C28.4831 13.1286 28.7925 12.8139 29.0271 12.4086C29.2725 11.9926 29.3951 11.4966 29.3951 10.9206C29.3951 10.3446 29.2725 9.85394 29.0271 9.44861C28.7925 9.03261 28.4831 8.71794 28.0991 8.50461C27.7151 8.28061 27.2991 8.16861 26.8511 8.16861C26.4031 8.16861 25.9818 8.28061 25.5871 8.50461C25.2031 8.71794 24.8885 9.03261 24.6431 9.44861C24.4085 9.85394 24.2911 10.3446 24.2911 10.9206C24.2911 11.4966 24.4085 11.9926 24.6431 12.4086C24.8885 12.8139 25.2085 13.1286 25.6031 13.3526C25.9978 13.5659 26.4138 13.6726 26.8511 13.6726ZM36.5766 15.2566C35.7553 15.2566 35.03 15.0753 34.4006 14.7126C33.782 14.3393 33.2966 13.8379 32.9446 13.2086C32.5926 12.5686 32.4166 11.8486 32.4166 11.0486C32.4166 10.2379 32.5926 9.51794 32.9446 8.88861C33.3073 8.25928 33.814 7.76328 34.4646 7.40061C35.1153 7.02728 35.8886 6.84061 36.7846 6.84061H41.7606V8.34461H40.8166L39.5526 8.23261V8.32861C39.8086 8.52061 40.0273 8.74994 40.2086 9.01661C40.39 9.27261 40.5286 9.57128 40.6246 9.91261C40.7313 10.2433 40.7846 10.6059 40.7846 11.0006C40.7846 11.8006 40.6086 12.5259 40.2566 13.1766C39.9046 13.8166 39.4086 14.3233 38.7686 14.6966C38.1393 15.0699 37.4086 15.2566 36.5766 15.2566ZM36.5926 13.6726C37.03 13.6726 37.4353 13.5713 37.8086 13.3686C38.182 13.1553 38.486 12.8513 38.7206 12.4566C38.9553 12.0619 39.0726 11.5873 39.0726 11.0326C39.0726 10.4566 38.9553 9.97128 38.7206 9.57661C38.486 9.17128 38.182 8.86194 37.8086 8.64861C37.4353 8.43528 37.03 8.32861 36.5926 8.32861C36.166 8.32861 35.7606 8.43528 35.3766 8.64861C35.0033 8.86194 34.6993 9.17128 34.4646 9.57661C34.2406 9.97128 34.1286 10.4566 34.1286 11.0326C34.1286 11.5873 34.2406 12.0619 34.4646 12.4566C34.6993 12.8513 35.0033 13.1553 35.3766 13.3686C35.7606 13.5713 36.166 13.6726 36.5926 13.6726ZM47.1972 15.2566C46.3652 15.2566 45.6346 15.0433 45.0052 14.6166C44.3866 14.1793 43.9012 13.5233 43.5492 12.6486C43.2079 11.7633 43.0372 10.6539 43.0372 9.32061C43.0372 7.98728 43.2079 6.88861 43.5492 6.02461C43.9012 5.14994 44.3866 4.49928 45.0052 4.07261C45.6346 3.63528 46.3652 3.41661 47.1972 3.41661C48.0292 3.41661 48.7546 3.63528 49.3732 4.07261C50.0026 4.49928 50.4932 5.14994 50.8452 6.02461C51.1972 6.88861 51.3732 7.98728 51.3732 9.32061C51.3732 10.6539 51.1972 11.7633 50.8452 12.6486C50.4932 13.5233 50.0026 14.1793 49.3732 14.6166C48.7546 15.0433 48.0292 15.2566 47.1972 15.2566ZM47.1972 13.6726C47.5279 13.6726 47.8426 13.6033 48.1412 13.4646C48.4399 13.3153 48.7012 13.0699 48.9252 12.7286C49.1492 12.3766 49.3252 11.9126 49.4532 11.3366C49.5386 10.9633 49.5972 10.5313 49.6292 10.0406H44.7812C44.8026 10.5313 44.8559 10.9633 44.9412 11.3366C45.0692 11.9126 45.2452 12.3766 45.4692 12.7286C45.6932 13.0699 45.9492 13.3153 46.2372 13.4646C46.5359 13.6033 46.8559 13.6726 47.1972 13.6726ZM49.6292 8.53661C49.6079 7.99261 49.5492 7.52328 49.4532 7.12861C49.3252 6.58461 49.1439 6.15794 48.9092 5.84861C48.6852 5.53928 48.4239 5.32061 48.1252 5.19261C47.8266 5.06461 47.5119 5.00061 47.1812 5.00061C46.8612 5.00061 46.5572 5.06461 46.2692 5.19261C45.9812 5.32061 45.7199 5.53928 45.4852 5.84861C45.2612 6.15794 45.0852 6.58461 44.9572 7.12861C44.8612 7.52328 44.7972 7.99261 44.7652 8.53661H49.6292ZM53.1799 15.0006V6.84061H54.8119V7.96061H54.9079C55.1425 7.56594 55.4892 7.24061 55.9479 6.98461C56.4172 6.71794 56.9292 6.58461 57.4839 6.58461C58.4865 6.58461 59.2385 6.88328 59.7399 7.48061C60.2412 8.06728 60.4919 8.85661 60.4919 9.84861V18.4566H58.7799V10.0726C58.7799 9.41128 58.6145 8.93128 58.2839 8.63261C57.9532 8.32328 57.5212 8.16861 56.9879 8.16861C56.5719 8.16861 56.2092 8.28594 55.8999 8.52061C55.5905 8.74461 55.3452 9.04328 55.1639 9.41661C54.9932 9.78994 54.9079 10.1899 54.9079 10.6166V15.0006H53.1799ZM55.8839 5.27261L56.4759 2.77661H58.5239L57.3399 5.27261H55.8839ZM62.6111 15.0006V6.84061H64.3391V10.3126L67.7951 6.84061H69.9391V6.93661L66.7871 10.0566L70.0511 14.9046V15.0006H68.0031L65.5871 11.2566L64.3391 12.4726V15.0006H62.6111ZM71.2768 15.0006V6.84061H72.9088V7.96061H73.0048C73.2394 7.56594 73.5861 7.24061 74.0448 6.98461C74.5141 6.71794 75.0261 6.58461 75.5808 6.58461C76.5834 6.58461 77.3354 6.88328 77.8368 7.48061C78.3381 8.06728 78.5888 8.85661 78.5888 9.84861V18.4566H76.8768V10.0726C76.8768 9.41128 76.7114 8.93128 76.3808 8.63261C76.0501 8.32328 75.6181 8.16861 75.0848 8.16861C74.6688 8.16861 74.3061 8.28594 73.9968 8.52061C73.6874 8.74461 73.4421 9.04328 73.2608 9.41661C73.0901 9.78994 73.0048 10.1899 73.0048 10.6166V15.0006H71.2768ZM88.3204 15.2566C87.499 15.2566 86.7737 15.0753 86.1444 14.7126C85.5257 14.3393 85.0404 13.8379 84.6884 13.2086C84.3364 12.5686 84.1604 11.8486 84.1604 11.0486C84.1604 10.2379 84.3364 9.51794 84.6884 8.88861C85.051 8.25928 85.5577 7.76328 86.2084 7.40061C86.859 7.02728 87.6324 6.84061 88.5284 6.84061H93.5044V8.34461H92.5604L91.2964 8.23261V8.32861C91.5524 8.52061 91.771 8.74994 91.9524 9.01661C92.1337 9.27261 92.2724 9.57128 92.3684 9.91261C92.475 10.2433 92.5284 10.6059 92.5284 11.0006C92.5284 11.8006 92.3524 12.5259 92.0004 13.1766C91.6484 13.8166 91.1524 14.3233 90.5124 14.6966C89.883 15.0699 89.1524 15.2566 88.3204 15.2566ZM88.3364 13.6726C88.7737 13.6726 89.179 13.5713 89.5524 13.3686C89.9257 13.1553 90.2297 12.8513 90.4644 12.4566C90.699 12.0619 90.8164 11.5873 90.8164 11.0326C90.8164 10.4566 90.699 9.97128 90.4644 9.57661C90.2297 9.17128 89.9257 8.86194 89.5524 8.64861C89.179 8.43528 88.7737 8.32861 88.3364 8.32861C87.9097 8.32861 87.5044 8.43528 87.1204 8.64861C86.747 8.86194 86.443 9.17128 86.2084 9.57661C85.9844 9.97128 85.8724 10.4566 85.8724 11.0326C85.8724 11.5873 85.9844 12.0619 86.2084 12.4566C86.443 12.8513 86.747 13.1553 87.1204 13.3686C87.5044 13.5713 87.9097 13.6726 88.3364 13.6726ZM97.8966 15.2566C97.1286 15.2566 96.4833 15.1553 95.9606 14.9526C95.438 14.7393 95.0433 14.4566 94.7766 14.1046C94.51 13.7526 94.3766 13.3579 94.3766 12.9206C94.3766 12.3659 94.5206 11.9233 94.8086 11.5926C95.1073 11.2619 95.5233 11.0486 96.0566 10.9526V10.8886C95.7153 10.7926 95.4273 10.6593 95.1926 10.4886C94.9686 10.3073 94.798 10.0939 94.6806 9.84861C94.574 9.59261 94.5206 9.32061 94.5206 9.03261C94.5206 8.25394 94.83 7.65128 95.4486 7.22461C96.078 6.79794 96.9793 6.58461 98.1526 6.58461C98.6753 6.58461 99.15 6.63261 99.5766 6.72861C100.014 6.81394 100.403 6.95261 100.745 7.14461C101.086 7.32594 101.374 7.56061 101.609 7.84861L100.553 8.95261C100.286 8.67528 99.95 8.46194 99.5446 8.31261C99.15 8.15261 98.6593 8.07261 98.0726 8.07261C97.6033 8.07261 97.23 8.12594 96.9526 8.23261C96.6753 8.32861 96.478 8.46194 96.3606 8.63261C96.2433 8.80328 96.1846 8.98994 96.1846 9.19261C96.1846 9.52328 96.334 9.76861 96.6326 9.92861C96.9313 10.0779 97.342 10.1526 97.8646 10.1526H99.4966V11.6566H97.7686C97.1606 11.6566 96.7286 11.7473 96.4726 11.9286C96.2166 12.0993 96.0886 12.3499 96.0886 12.6806C96.0886 12.9899 96.238 13.2459 96.5366 13.4486C96.846 13.6406 97.3046 13.7366 97.9126 13.7366C98.5206 13.7366 99.0646 13.6353 99.5446 13.4326C100.025 13.2193 100.398 12.9686 100.665 12.6806L101.673 13.7206C101.491 13.9659 101.235 14.2059 100.905 14.4406C100.574 14.6753 100.158 14.8673 99.6566 15.0166C99.1553 15.1766 98.5686 15.2566 97.8966 15.2566Z" fill="white"/>
<g id="GPay (Dark)">
<g id="GPay">
<g id="Pay">
<path id="Fill 1" fill-rule="evenodd" clip-rule="evenodd" d="M130.356 3.42339V8.16175H133.278C133.974 8.16175 134.55 7.92781 135.005 7.45993C135.473 6.99313 135.707 6.43644 135.707 5.79203C135.707 5.16061 135.473 4.61041 135.005 4.14254C134.55 3.66274 133.974 3.4223 133.278 3.4223H130.356V3.42339ZM130.356 9.82966V15.3262H128.611V1.75549H133.24C134.417 1.75549 135.415 2.14756 136.238 2.93061C137.073 3.71365 137.491 4.66782 137.491 5.79203C137.491 6.94224 137.073 7.90291 136.238 8.67296C135.428 9.44409 134.429 9.82858 133.24 9.82858H130.356V9.82966Z" fill="white"/>
<path id="Fill 3" fill-rule="evenodd" clip-rule="evenodd" d="M139.255 12.4831C139.255 12.9379 139.448 13.317 139.834 13.6203C140.22 13.9235 140.672 14.0752 141.19 14.0752C141.924 14.0752 142.578 13.8032 143.153 13.2607C143.729 12.717 144.017 12.0791 144.017 11.3469C143.472 10.917 142.713 10.7025 141.74 10.7025C141.031 10.7025 140.44 10.8736 139.966 11.2148C139.492 11.5559 139.255 11.9773 139.255 12.4831M141.513 5.73566C142.803 5.73566 143.821 6.08007 144.569 6.76889C145.314 7.45771 145.687 8.40213 145.687 9.60216V15.3261H144.018V14.0373H143.942C143.221 15.0985 142.259 15.6294 141.058 15.6294C140.033 15.6294 139.176 15.3261 138.487 14.7196C137.797 14.1131 137.453 13.3549 137.453 12.4452C137.453 11.4845 137.816 10.7208 138.543 10.1523C139.271 9.58375 140.241 9.2989 141.456 9.2989C142.492 9.2989 143.346 9.48844 144.017 9.86751V9.46894C144.017 8.86243 143.776 8.34798 143.296 7.92451C142.814 7.50103 142.252 7.28984 141.607 7.28984C140.633 7.28984 139.862 7.70032 139.293 8.52235L137.755 7.55519C138.603 6.34217 139.855 5.73566 141.513 5.73566" fill="white"/>
<path id="Fill 5" fill-rule="evenodd" clip-rule="evenodd" d="M155.269 6.03894L149.443 19.4201H147.641L149.804 14.738L145.971 6.03894H147.869L150.639 12.7106H150.677L153.371 6.03894H155.269Z" fill="white"/>
</g>
<g id="G">
<path id="Fill 8" fill-rule="evenodd" clip-rule="evenodd" d="M123.303 8.64473C123.303 8.09563 123.256 7.56601 123.168 7.05914H115.806V10.0625H120.023C119.842 11.0414 119.294 11.8744 118.464 12.4322V14.3828H120.98C122.454 13.0246 123.303 11.0177 123.303 8.64473" fill="#4285F4"/>
<path id="Fill 10" fill-rule="evenodd" clip-rule="evenodd" d="M115.806 16.2651C117.913 16.2651 119.687 15.5741 120.98 14.3828L118.464 12.4322C117.763 12.9033 116.861 13.1784 115.806 13.1784C113.77 13.1784 112.042 11.8073 111.424 9.95959H108.832V11.9687C110.116 14.516 112.757 16.2651 115.806 16.2651" fill="#34A853"/>
<path id="Fill 12" fill-rule="evenodd" clip-rule="evenodd" d="M111.424 9.9596C111.266 9.48847 111.179 8.98593 111.179 8.46715C111.179 7.94837 111.266 7.44583 111.424 6.9747V4.96564H108.832C108.3 6.01837 108 7.20756 108 8.46715C108 9.72674 108.3 10.916 108.832 11.9687L111.424 9.9596Z" fill="#FABB05"/>
<path id="Fill 14" fill-rule="evenodd" clip-rule="evenodd" d="M115.806 3.75583C116.957 3.75583 117.988 4.15115 118.801 4.92553V4.92661L121.029 2.70094C119.676 1.44243 117.912 0.669128 115.806 0.669128C112.757 0.669128 110.116 2.41826 108.832 4.9656L111.424 6.97467C112.042 5.12698 113.77 3.75583 115.806 3.75583" fill="#E94235"/>
</g>
</g>
</g>
</g>
</svg>
