<svg width="146" height="21" viewBox="0 0 146 21" fill="none" xmlns="http://www.w3.org/2000/svg">
<g id="el_book_with_Pay_NBG">
<path id="Left Text" d="M2.27413 15.0006V3.54461H4.03413V9.09661H4.13013L8.69013 3.54461H10.8981V3.64061L6.06613 9.36861L11.1541 14.9046V15.0006H8.85013L4.13013 9.75261H4.03413V15.0006H2.27413ZM12.0409 18.4566V11.0486C12.0409 10.1419 12.2169 9.35794 12.5689 8.69661C12.9315 8.02461 13.4222 7.50728 14.0409 7.14461C14.6702 6.77128 15.3795 6.58461 16.1689 6.58461C16.8409 6.58461 17.4329 6.70194 17.9449 6.93661C18.4569 7.17128 18.8889 7.49128 19.2409 7.89661C19.5929 8.30194 19.8595 8.76594 20.0409 9.28861C20.2222 9.81128 20.3129 10.3606 20.3129 10.9366C20.3129 11.7793 20.1369 12.5259 19.7849 13.1766C19.4435 13.8273 18.9795 14.3393 18.3929 14.7126C17.8062 15.0753 17.1555 15.2566 16.4409 15.2566C16.0142 15.2566 15.6249 15.1926 15.2729 15.0646C14.9315 14.9473 14.6329 14.7873 14.3769 14.5846C14.1315 14.3819 13.9289 14.1579 13.7689 13.9126H13.6729L13.7689 15.0326V18.4566H12.0409ZM16.1209 13.6726C16.5582 13.6726 16.9635 13.5606 17.3369 13.3366C17.7209 13.1019 18.0249 12.7819 18.2489 12.3766C18.4835 11.9713 18.6009 11.4966 18.6009 10.9526C18.6009 10.3659 18.4835 9.86461 18.2489 9.44861C18.0142 9.03261 17.7049 8.71794 17.3209 8.50461C16.9475 8.28061 16.5475 8.16861 16.1209 8.16861C15.7262 8.16861 15.3422 8.27528 14.9689 8.48861C14.5955 8.70194 14.2862 9.01661 14.0409 9.43261C13.7955 9.84861 13.6729 10.3659 13.6729 10.9846C13.6729 11.4966 13.7849 11.9606 14.0089 12.3766C14.2329 12.7819 14.5315 13.1019 14.9049 13.3366C15.2782 13.5606 15.6835 13.6726 16.1209 13.6726ZM25.4758 15.2566C24.9531 15.2566 24.4571 15.1553 23.9878 14.9526C23.5291 14.7393 23.1184 14.4406 22.7558 14.0566C22.4038 13.6726 22.1264 13.2193 21.9238 12.6966C21.7211 12.1633 21.6198 11.5766 21.6198 10.9366C21.6198 10.0619 21.7958 9.29928 22.1478 8.64861C22.5104 7.99794 22.9851 7.49128 23.5718 7.12861C24.1691 6.76594 24.8198 6.58461 25.5238 6.58461C25.9291 6.58461 26.2971 6.64328 26.6278 6.76061C26.9691 6.87794 27.2678 7.04328 27.5238 7.25661C27.7904 7.45928 28.0038 7.68861 28.1638 7.94461H28.2598V6.84061H29.8758V12.2806C29.8758 12.6966 29.9451 13.0059 30.0838 13.2086C30.2224 13.4113 30.4624 13.5126 30.8038 13.5126C30.9424 13.5126 31.0704 13.4966 31.1878 13.4646C31.3158 13.4219 31.4331 13.3686 31.5398 13.3046V14.9846C31.3904 15.0273 31.2304 15.0593 31.0598 15.0806C30.8891 15.1126 30.7131 15.1286 30.5318 15.1286C29.9344 15.1286 29.4651 15.0113 29.1238 14.7766C28.7824 14.5313 28.5424 14.1633 28.4038 13.6726H28.3078C27.9984 14.1953 27.6038 14.5899 27.1238 14.8566C26.6438 15.1233 26.0944 15.2566 25.4758 15.2566ZM25.7958 13.6726C26.2224 13.6726 26.6224 13.5606 26.9958 13.3366C27.3798 13.1126 27.6838 12.7979 27.9078 12.3926C28.1424 11.9766 28.2598 11.4859 28.2598 10.9206C28.2598 10.3553 28.1424 9.86994 27.9078 9.46461C27.6838 9.04861 27.3798 8.72861 26.9958 8.50461C26.6224 8.28061 26.2224 8.16861 25.7958 8.16861C25.3691 8.16861 24.9691 8.28061 24.5958 8.50461C24.2224 8.72861 23.9184 9.04861 23.6838 9.46461C23.4491 9.86994 23.3318 10.3553 23.3318 10.9206C23.3318 11.4753 23.4491 11.9606 23.6838 12.3766C23.9184 12.7926 24.2224 13.1126 24.5958 13.3366C24.9691 13.5606 25.3691 13.6726 25.7958 13.6726ZM24.8358 5.27261L25.4278 2.77661H27.4758L26.2918 5.27261H24.8358ZM37.0583 15.1286C36.5569 15.1286 36.1196 15.0326 35.7463 14.8406C35.3729 14.6486 35.0796 14.3659 34.8663 13.9926C34.6636 13.6193 34.5623 13.1713 34.5623 12.6486V8.34461H31.9543V6.84061H39.3463V8.34461H36.2743V12.2806C36.2743 12.6859 36.3596 12.9953 36.5303 13.2086C36.7116 13.4113 36.9943 13.5126 37.3783 13.5126C37.5809 13.5126 37.7516 13.4859 37.8903 13.4326C38.0396 13.3686 38.1836 13.2939 38.3223 13.2086V14.8886C38.1303 14.9739 37.9329 15.0326 37.7303 15.0646C37.5276 15.1073 37.3036 15.1286 37.0583 15.1286ZM41.133 15.0006V6.84061H42.765V7.96061H42.861C43.0957 7.56594 43.4423 7.24061 43.901 6.98461C44.3703 6.71794 44.8823 6.58461 45.437 6.58461C46.4397 6.58461 47.1917 6.88328 47.693 7.48061C48.1943 8.06728 48.445 8.85661 48.445 9.84861V18.4566H46.733V10.0726C46.733 9.41128 46.5677 8.93128 46.237 8.63261C45.9063 8.32328 45.4743 8.16861 44.941 8.16861C44.525 8.16861 44.1623 8.28594 43.853 8.52061C43.5437 8.74461 43.2983 9.04328 43.117 9.41661C42.9463 9.78994 42.861 10.1899 42.861 10.6166V15.0006H41.133ZM54.2923 15.2566C53.4709 15.2566 52.7456 15.0753 52.1163 14.7126C51.4976 14.3393 51.0123 13.8379 50.6603 13.2086C50.3083 12.5686 50.1323 11.8486 50.1323 11.0486C50.1323 10.2379 50.3083 9.51794 50.6603 8.88861C51.0229 8.25928 51.5296 7.76328 52.1803 7.40061C52.8309 7.02728 53.6043 6.84061 54.5003 6.84061H59.4763V8.34461H58.5323L57.2683 8.23261V8.32861C57.5243 8.52061 57.7429 8.74994 57.9243 9.01661C58.1056 9.27261 58.2443 9.57128 58.3403 9.91261C58.4469 10.2433 58.5003 10.6059 58.5003 11.0006C58.5003 11.8006 58.3243 12.5259 57.9723 13.1766C57.6203 13.8166 57.1243 14.3233 56.4843 14.6966C55.8549 15.0699 55.1243 15.2566 54.2923 15.2566ZM54.3083 13.6726C54.7456 13.6726 55.1509 13.5713 55.5243 13.3686C55.8976 13.1553 56.2016 12.8513 56.4363 12.4566C56.6709 12.0619 56.7883 11.5873 56.7883 11.0326C56.7883 10.4566 56.6709 9.97128 56.4363 9.57661C56.2016 9.17128 55.8976 8.86194 55.5243 8.64861C55.1509 8.43528 54.7456 8.32861 54.3083 8.32861C53.8816 8.32861 53.4763 8.43528 53.0923 8.64861C52.7189 8.86194 52.4149 9.17128 52.1803 9.57661C51.9563 9.97128 51.8443 10.4566 51.8443 11.0326C51.8443 11.5873 51.9563 12.0619 52.1803 12.4566C52.4149 12.8513 52.7189 13.1553 53.0923 13.3686C53.4763 13.5713 53.8816 13.6726 54.3083 13.6726ZM61.1049 15.0006V6.84061H62.7369V7.96061H62.8329C63.0675 7.56594 63.4142 7.24061 63.8729 6.98461C64.3422 6.71794 64.8542 6.58461 65.4089 6.58461C66.4115 6.58461 67.1635 6.88328 67.6649 7.48061C68.1662 8.06728 68.4169 8.85661 68.4169 9.84861V18.4566H66.7049V10.0726C66.7049 9.41128 66.5395 8.93128 66.2089 8.63261C65.8782 8.32328 65.4462 8.16861 64.9129 8.16861C64.4969 8.16861 64.1342 8.28594 63.8249 8.52061C63.5155 8.74461 63.2702 9.04328 63.0889 9.41661C62.9182 9.78994 62.8329 10.1899 62.8329 10.6166V15.0006H61.1049ZM74.3565 18.4566V6.84061H76.0845V11.7206C76.0845 12.1793 76.1538 12.5526 76.2925 12.8406C76.4418 13.1286 76.6392 13.3419 76.8845 13.4806C77.1298 13.6086 77.4018 13.6726 77.7005 13.6726C78.1698 13.6726 78.5698 13.5499 78.9005 13.3046C79.2418 13.0593 79.5032 12.7393 79.6845 12.3446C79.8658 11.9499 79.9565 11.5446 79.9565 11.1286V6.84061H81.6685V12.3126C81.6685 12.7179 81.7378 13.0219 81.8765 13.2246C82.0258 13.4166 82.2658 13.5126 82.5965 13.5126C82.7352 13.5126 82.8632 13.4966 82.9805 13.4646C83.0978 13.4219 83.2152 13.3686 83.3325 13.3046V14.9846C83.1832 15.0273 83.0285 15.0593 82.8685 15.0806C82.7192 15.1126 82.5432 15.1286 82.3405 15.1286C81.6792 15.1286 81.1832 15.0006 80.8525 14.7446C80.5325 14.4779 80.3085 14.1206 80.1805 13.6726H80.0845C79.9352 13.9499 79.7485 14.2113 79.5245 14.4566C79.3112 14.6913 79.0552 14.8833 78.7565 15.0326C78.4578 15.1819 78.1058 15.2566 77.7005 15.2566C77.3698 15.2566 77.0552 15.1819 76.7565 15.0326C76.4685 14.8939 76.2445 14.7179 76.0845 14.5046H75.9885L76.0845 15.4166V18.4566H74.3565ZM87.8966 15.2566C87.1286 15.2566 86.4833 15.1553 85.9606 14.9526C85.438 14.7393 85.0433 14.4566 84.7766 14.1046C84.51 13.7526 84.3766 13.3579 84.3766 12.9206C84.3766 12.3659 84.5206 11.9233 84.8086 11.5926C85.1073 11.2619 85.5233 11.0486 86.0566 10.9526V10.8886C85.7153 10.7926 85.4273 10.6593 85.1926 10.4886C84.9686 10.3073 84.798 10.0939 84.6806 9.84861C84.574 9.59261 84.5206 9.32061 84.5206 9.03261C84.5206 8.25394 84.83 7.65128 85.4486 7.22461C86.078 6.79794 86.9793 6.58461 88.1526 6.58461C88.6753 6.58461 89.15 6.63261 89.5766 6.72861C90.014 6.81394 90.4033 6.95261 90.7446 7.14461C91.086 7.32594 91.374 7.56061 91.6086 7.84861L90.5526 8.95261C90.286 8.67528 89.95 8.46194 89.5446 8.31261C89.15 8.15261 88.6593 8.07261 88.0726 8.07261C87.6033 8.07261 87.23 8.12594 86.9526 8.23261C86.6753 8.32861 86.478 8.46194 86.3606 8.63261C86.2433 8.80328 86.1846 8.98994 86.1846 9.19261C86.1846 9.52328 86.334 9.76861 86.6326 9.92861C86.9313 10.0779 87.342 10.1526 87.8646 10.1526H89.4966V11.6566H87.7686C87.1606 11.6566 86.7286 11.7473 86.4726 11.9286C86.2166 12.0993 86.0886 12.3499 86.0886 12.6806C86.0886 12.9899 86.238 13.2459 86.5366 13.4486C86.846 13.6406 87.3046 13.7366 87.9126 13.7366C88.5206 13.7366 89.0646 13.6353 89.5446 13.4326C90.0246 13.2193 90.398 12.9686 90.6646 12.6806L91.6726 13.7206C91.4913 13.9659 91.2353 14.2059 90.9046 14.4406C90.574 14.6753 90.158 14.8673 89.6566 15.0166C89.1553 15.1766 88.5686 15.2566 87.8966 15.2566Z" fill="white"/>
<g id="GPay (Dark)">
<g id="GPay">
<g id="Pay">
<path id="Fill 1" fill-rule="evenodd" clip-rule="evenodd" d="M120.356 3.42339V8.16175H123.278C123.974 8.16175 124.55 7.92781 125.005 7.45993C125.473 6.99313 125.707 6.43644 125.707 5.79203C125.707 5.16061 125.473 4.61041 125.005 4.14254C124.55 3.66274 123.974 3.4223 123.278 3.4223H120.356V3.42339ZM120.356 9.82966V15.3262H118.611V1.75549H123.24C124.417 1.75549 125.415 2.14756 126.238 2.93061C127.073 3.71365 127.491 4.66782 127.491 5.79203C127.491 6.94224 127.073 7.90291 126.238 8.67296C125.428 9.44409 124.429 9.82858 123.24 9.82858H120.356V9.82966Z" fill="white"/>
<path id="Fill 3" fill-rule="evenodd" clip-rule="evenodd" d="M129.255 12.4831C129.255 12.9379 129.448 13.317 129.834 13.6203C130.22 13.9235 130.672 14.0752 131.19 14.0752C131.924 14.0752 132.578 13.8032 133.153 13.2607C133.729 12.717 134.017 12.0791 134.017 11.3469C133.472 10.917 132.713 10.7025 131.74 10.7025C131.031 10.7025 130.44 10.8736 129.966 11.2148C129.492 11.5559 129.255 11.9773 129.255 12.4831M131.513 5.73566C132.803 5.73566 133.821 6.08007 134.569 6.76889C135.314 7.45771 135.687 8.40213 135.687 9.60216V15.3261H134.018V14.0373H133.942C133.221 15.0985 132.259 15.6294 131.058 15.6294C130.033 15.6294 129.176 15.3261 128.487 14.7196C127.797 14.1131 127.453 13.3549 127.453 12.4452C127.453 11.4845 127.816 10.7208 128.543 10.1523C129.271 9.58375 130.241 9.2989 131.456 9.2989C132.492 9.2989 133.346 9.48844 134.017 9.86751V9.46894C134.017 8.86243 133.776 8.34798 133.296 7.92451C132.814 7.50103 132.252 7.28984 131.607 7.28984C130.633 7.28984 129.862 7.70032 129.293 8.52235L127.755 7.55519C128.603 6.34217 129.855 5.73566 131.513 5.73566" fill="white"/>
<path id="Fill 5" fill-rule="evenodd" clip-rule="evenodd" d="M145.269 6.03894L139.443 19.4201H137.641L139.804 14.738L135.971 6.03894H137.869L140.639 12.7106H140.677L143.371 6.03894H145.269Z" fill="white"/>
</g>
<g id="G">
<path id="Fill 8" fill-rule="evenodd" clip-rule="evenodd" d="M113.303 8.64473C113.303 8.09563 113.256 7.56601 113.168 7.05914H105.806V10.0625H110.023C109.842 11.0414 109.294 11.8744 108.464 12.4322V14.3828H110.98C112.454 13.0246 113.303 11.0177 113.303 8.64473" fill="#4285F4"/>
<path id="Fill 10" fill-rule="evenodd" clip-rule="evenodd" d="M105.806 16.2651C107.913 16.2651 109.687 15.5741 110.98 14.3828L108.464 12.4322C107.763 12.9033 106.861 13.1784 105.806 13.1784C103.77 13.1784 102.042 11.8073 101.424 9.95959H98.8316V11.9687C100.116 14.516 102.757 16.2651 105.806 16.2651" fill="#34A853"/>
<path id="Fill 12" fill-rule="evenodd" clip-rule="evenodd" d="M101.424 9.9596C101.266 9.48847 101.179 8.98593 101.179 8.46715C101.179 7.94837 101.266 7.44583 101.424 6.9747V4.96564H98.8316C98.3003 6.01837 98 7.20756 98 8.46715C98 9.72674 98.3003 10.916 98.8316 11.9687L101.424 9.9596Z" fill="#FABB05"/>
<path id="Fill 14" fill-rule="evenodd" clip-rule="evenodd" d="M105.806 3.75583C106.957 3.75583 107.988 4.15115 108.801 4.92553V4.92661L111.029 2.70094C109.676 1.44243 107.912 0.669128 105.806 0.669128C102.757 0.669128 100.116 2.41826 98.8316 4.9656L101.424 6.97467C102.042 5.12698 103.77 3.75583 105.806 3.75583" fill="#E94235"/>
</g>
</g>
</g>
</g>
</svg>
