<svg width="256" height="38" viewBox="0 0 256 38" fill="none" xmlns="http://www.w3.org/2000/svg">
<g id="el_book_with_Dark">
<path id="Text" d="M2.42738 30V9.952H5.50738V19.668H5.67538L13.6554 9.952H17.5194V10.12L9.06338 20.144L17.9674 29.832V30H13.9354L5.67538 20.816H5.50738V30H2.42738ZM20.1036 36.048V23.084C20.1036 21.4973 20.4116 20.1253 21.0276 18.968C21.6622 17.792 22.5209 16.8867 23.6036 16.252C24.7049 15.5987 25.9462 15.272 27.3276 15.272C28.8956 15.272 30.2116 15.6267 31.2756 16.336C32.3582 17.0267 33.1796 17.96 33.7396 19.136C34.2996 20.2933 34.5796 21.544 34.5796 22.888C34.5796 24.3627 34.2716 25.6693 33.6556 26.808C33.0582 27.9467 32.2462 28.8427 31.2196 29.496C30.1929 30.1307 29.0542 30.448 27.8036 30.448C26.6836 30.448 25.7222 30.2147 24.9196 29.748C24.1356 29.2813 23.5382 28.7307 23.1276 28.096H22.9596L23.1276 30.056V36.048H20.1036ZM27.2436 27.676C28.0089 27.676 28.7182 27.48 29.3716 27.088C30.0249 26.6773 30.5569 26.1173 30.9676 25.408C31.3782 24.6987 31.5836 23.868 31.5836 22.916C31.5836 21.8893 31.3689 21.012 30.9396 20.284C30.5289 19.556 29.9969 19.0053 29.3436 18.632C28.6902 18.24 27.9902 18.044 27.2436 18.044C26.5529 18.044 25.8809 18.2307 25.2276 18.604C24.5742 18.9773 24.0329 19.528 23.6036 20.256C23.1742 20.984 22.9596 21.8893 22.9596 22.972C22.9596 23.868 23.1556 24.68 23.5476 25.408C23.9396 26.1173 24.4622 26.6773 25.1156 27.088C25.7689 27.48 26.4782 27.676 27.2436 27.676ZM43.6521 30.448C42.4388 30.448 41.3188 30.1307 40.2921 29.496C39.2654 28.8427 38.4441 27.956 37.8281 26.836C37.2121 25.6973 36.9041 24.3813 36.9041 22.888C36.9041 21.376 37.2121 20.0507 37.8281 18.912C38.4628 17.7547 39.2934 16.8587 40.3201 16.224C41.3654 15.5893 42.5041 15.272 43.7361 15.272C44.7814 15.272 45.7054 15.5053 46.5081 15.972C47.3294 16.42 47.9454 16.98 48.3561 17.652H48.5241V15.72H51.3521V25.24C51.3521 25.9493 51.4734 26.4907 51.7161 26.864C51.9588 27.2187 52.3788 27.396 52.9761 27.396C53.2188 27.396 53.4428 27.368 53.6481 27.312C53.8534 27.2373 54.0588 27.144 54.2641 27.032V29.972C53.7041 30.14 53.1161 30.224 52.5001 30.224C51.4361 30.224 50.6054 30.0093 50.0081 29.58C49.4108 29.1507 49.0001 28.516 48.7761 27.676H48.6081C47.5254 29.524 45.8734 30.448 43.6521 30.448ZM44.2121 27.676C44.9588 27.676 45.6588 27.48 46.3121 27.088C46.9841 26.696 47.5161 26.1453 47.9081 25.436C48.3188 24.708 48.5241 23.8493 48.5241 22.86C48.5241 21.8707 48.3188 21.0213 47.9081 20.312C47.5161 19.584 46.9841 19.024 46.3121 18.632C45.6588 18.24 44.9588 18.044 44.2121 18.044C43.4654 18.044 42.7654 18.24 42.1121 18.632C41.4588 19.024 40.9268 19.584 40.5161 20.312C40.1054 21.0213 39.9001 21.8707 39.9001 22.86C39.9001 23.8493 40.1054 24.708 40.5161 25.436C40.9268 26.1453 41.4588 26.696 42.1121 27.088C42.7654 27.48 43.4654 27.676 44.2121 27.676ZM42.5321 12.976L43.5681 8.608H47.1521L45.0801 12.976H42.5321ZM65.0801 30.224C63.7734 30.224 62.7187 29.8507 61.9161 29.104C61.1134 28.3573 60.7121 27.284 60.7121 25.884V18.352H56.1481V15.72H69.0841V18.352H63.7081V25.24C63.7081 25.968 63.8574 26.5093 64.1561 26.864C64.4734 27.2187 64.9681 27.396 65.6401 27.396C65.9947 27.396 66.2934 27.3493 66.5361 27.256C66.7974 27.144 67.0494 27.0133 67.2921 26.864V29.804C66.6201 30.084 65.8827 30.224 65.0801 30.224ZM72.2484 30V15.72H75.1044V17.68H75.2724C75.683 16.9893 76.2897 16.42 77.0924 15.972C77.9137 15.5053 78.8097 15.272 79.7804 15.272C81.535 15.272 82.851 15.7947 83.7284 16.84C84.6057 17.8853 85.0444 19.2667 85.0444 20.984V36.048H82.0484V21.376C82.0484 20.2187 81.759 19.3787 81.1804 18.856C80.6017 18.3147 79.8457 18.044 78.9124 18.044C78.1844 18.044 77.5497 18.2493 77.0084 18.66C76.467 19.052 76.0377 19.5747 75.7204 20.228C75.4217 20.8813 75.2724 21.5813 75.2724 22.328V30H72.2484ZM95.3146 30.448C93.8772 30.448 92.6079 30.1307 91.5066 29.496C90.4052 28.8427 89.5466 27.9653 88.9306 26.864C88.3332 25.744 88.0346 24.484 88.0346 23.084C88.0346 21.6653 88.3426 20.4053 88.9586 19.304C89.5746 18.2027 90.4519 17.3347 91.5906 16.7C92.7479 16.0467 94.1106 15.72 95.6786 15.72H104.387V18.352H102.735L100.523 18.156V18.324C101.176 18.828 101.699 19.472 102.091 20.256C102.483 21.04 102.679 21.9547 102.679 23C102.679 24.4 102.371 25.66 101.755 26.78C101.139 27.9 100.271 28.796 99.1506 29.468C98.0492 30.1213 96.7706 30.448 95.3146 30.448ZM95.3426 27.676C96.1079 27.676 96.8172 27.4987 97.4706 27.144C98.1239 26.7707 98.6559 26.2387 99.0666 25.548C99.4772 24.8573 99.6826 24.0267 99.6826 23.056C99.6826 22.048 99.4772 21.1987 99.0666 20.508C98.6559 19.7987 98.1239 19.2573 97.4706 18.884C96.8172 18.5107 96.1079 18.324 95.3426 18.324C94.5959 18.324 93.8866 18.5107 93.2146 18.884C92.5612 19.2573 92.0292 19.7987 91.6186 20.508C91.2266 21.1987 91.0306 22.048 91.0306 23.056C91.0306 24.0267 91.2266 24.8573 91.6186 25.548C92.0292 26.2387 92.5612 26.7707 93.2146 27.144C93.8866 27.4987 94.5959 27.676 95.3426 27.676ZM107.274 30V15.72H110.13V17.68H110.298C110.709 16.9893 111.315 16.42 112.118 15.972C112.939 15.5053 113.835 15.272 114.806 15.272C116.561 15.272 117.877 15.7947 118.754 16.84C119.631 17.8853 120.07 19.2667 120.07 20.984V36.048H117.074V21.376C117.074 20.2187 116.785 19.3787 116.206 18.856C115.627 18.3147 114.871 18.044 113.938 18.044C113.21 18.044 112.575 18.2493 112.034 18.66C111.493 19.052 111.063 19.5747 110.746 20.228C110.447 20.8813 110.298 21.5813 110.298 22.328V30H107.274ZM130.539 36.048V15.72H133.563V24.26C133.563 25.4733 133.834 26.3507 134.375 26.892C134.935 27.4147 135.607 27.676 136.391 27.676C137.194 27.676 137.885 27.4613 138.463 27.032C139.061 26.6027 139.518 26.052 139.835 25.38C140.171 24.6893 140.339 23.9707 140.339 23.224V15.72H143.335V25.296C143.335 26.0053 143.457 26.5373 143.699 26.892C143.961 27.228 144.381 27.396 144.959 27.396C145.202 27.396 145.426 27.368 145.631 27.312C145.837 27.2373 146.042 27.144 146.247 27.032V29.972C145.986 30.0467 145.715 30.1027 145.435 30.14C145.174 30.196 144.866 30.224 144.511 30.224C143.373 30.224 142.514 30 141.935 29.552C141.357 29.0853 140.955 28.46 140.731 27.676H140.563C140.171 28.4227 139.639 29.076 138.967 29.636C138.295 30.1773 137.437 30.448 136.391 30.448C135.813 30.448 135.262 30.3267 134.739 30.084C134.217 29.8413 133.825 29.524 133.563 29.132H133.395L133.563 30.728V36.048H130.539ZM154.819 30.448C152.803 30.448 151.272 30.056 150.227 29.272C149.182 28.488 148.659 27.5173 148.659 26.36C148.659 25.408 148.911 24.6427 149.415 24.064C149.938 23.4667 150.666 23.084 151.599 22.916V22.804C150.684 22.58 150.003 22.1693 149.555 21.572C149.126 20.9747 148.911 20.3027 148.911 19.556C148.911 18.212 149.452 17.1667 150.535 16.42C151.636 15.6547 153.214 15.272 155.267 15.272C156.63 15.272 157.824 15.4493 158.851 15.804C159.878 16.1587 160.699 16.7187 161.315 17.484L159.467 19.416C159.019 18.9493 158.44 18.576 157.731 18.296C157.04 18.016 156.172 17.876 155.127 17.876C153.876 17.876 153.008 18.072 152.523 18.464C152.056 18.856 151.823 19.3133 151.823 19.836C151.823 20.4147 152.084 20.844 152.607 21.124C153.13 21.3853 153.848 21.516 154.763 21.516H157.619V24.148H154.595C153.531 24.148 152.775 24.3067 152.327 24.624C151.879 24.9413 151.655 25.38 151.655 25.94C151.655 26.5 151.916 26.948 152.439 27.284C152.98 27.62 153.783 27.788 154.847 27.788C155.911 27.788 156.863 27.6107 157.703 27.256C158.543 26.9013 159.196 26.4627 159.663 25.94L161.427 27.76C160.96 28.4133 160.186 29.0293 159.103 29.608C158.02 30.168 156.592 30.448 154.819 30.448Z" fill="white"/>
<g id="GPay Logo (Dark)">
<g id="GPay">
<g id="Pay">
<path id="Fill 1" fill-rule="evenodd" clip-rule="evenodd" d="M212.529 9.34665V17.5128H217.565C218.765 17.5128 219.757 17.1096 220.541 16.3032C221.347 15.4988 221.75 14.5394 221.75 13.4288C221.75 12.3406 221.347 11.3924 220.541 10.586C219.757 9.75916 218.765 9.34479 217.565 9.34479H212.529V9.34665ZM212.529 20.3872V29.8599H209.521V6.47218H217.499C219.527 6.47218 221.248 7.14787 222.666 8.49738C224.105 9.84688 224.824 11.4913 224.824 13.4288C224.824 15.411 224.105 17.0667 222.666 18.3938C221.27 19.7227 219.547 20.3854 217.499 20.3854H212.529V20.3872Z" fill="white"/>
<path id="Fill 3" fill-rule="evenodd" clip-rule="evenodd" d="M227.864 24.9602C227.864 25.7442 228.197 26.3975 228.862 26.9201C229.527 27.4427 230.306 27.704 231.2 27.704C232.465 27.704 233.591 27.2354 234.584 26.3004C235.576 25.3634 236.071 24.264 236.071 23.0022C235.133 22.2612 233.825 21.8916 232.147 21.8916C230.925 21.8916 229.907 22.1866 229.09 22.7745C228.273 23.3623 227.864 24.0886 227.864 24.9602ZM231.756 13.3317C233.98 13.3317 235.735 13.9253 237.022 15.1124C238.308 16.2995 238.95 17.9271 238.95 19.9952V29.8599H236.073V27.6387H235.942C234.699 29.4677 233.042 30.3825 230.972 30.3825C229.206 30.3825 227.728 29.8599 226.541 28.8146C225.353 27.7694 224.759 26.4628 224.759 24.8949C224.759 23.2393 225.385 21.9232 226.638 20.9434C227.892 19.9635 229.565 19.4726 231.658 19.4726C233.444 19.4726 234.916 19.7993 236.071 20.4525V19.7657C236.071 18.7204 235.656 17.8338 234.829 17.104C233.999 16.3742 233.031 16.0102 231.919 16.0102C230.239 16.0102 228.911 16.7176 227.93 18.1343L225.28 16.4675C226.741 14.377 228.899 13.3317 231.756 13.3317Z" fill="white"/>
<path id="Fill 5" fill-rule="evenodd" clip-rule="evenodd" d="M255.463 13.8543L245.424 36.9154H242.318L246.046 28.8464L239.44 13.8543H242.71L247.484 25.3522H247.55L252.193 13.8543H255.463Z" fill="white"/>
</g>
<g id="G">
<path id="Fill 8" fill-rule="evenodd" clip-rule="evenodd" d="M200.373 18.3452C200.373 17.3989 200.293 16.4861 200.141 15.6126H187.454V20.7885H194.72C194.408 22.4757 193.465 23.9112 192.033 24.8725V28.2341H196.37C198.91 25.8935 200.373 22.4348 200.373 18.3452Z" fill="#4285F4"/>
<path id="Fill 10" fill-rule="evenodd" clip-rule="evenodd" d="M187.454 31.4782C191.084 31.4782 194.141 30.2873 196.37 28.2341L192.033 24.8725C190.826 25.6844 189.272 26.1585 187.454 26.1585C183.944 26.1585 180.966 23.7955 179.901 20.6112H175.433V24.0736C177.647 28.4637 182.197 31.4782 187.454 31.4782Z" fill="#34A853"/>
<path id="Fill 12" fill-rule="evenodd" clip-rule="evenodd" d="M179.901 20.6111C179.628 19.7992 179.479 18.9331 179.479 18.0391C179.479 17.145 179.628 16.2789 179.901 15.467V12.0045H175.433C174.518 13.8188 174 15.8683 174 18.0391C174 20.2098 174.518 22.2595 175.433 24.0736L179.901 20.6111Z" fill="#FABB05"/>
<path id="Fill 14" fill-rule="evenodd" clip-rule="evenodd" d="M187.454 9.91964C189.436 9.91964 191.213 10.6009 192.615 11.9355V11.9374L196.455 8.10163C194.123 5.93272 191.082 4.60001 187.454 4.60001C182.197 4.60001 177.647 7.61447 175.433 12.0046L179.901 15.467C180.966 12.2827 183.944 9.91964 187.454 9.91964Z" fill="#E94235"/>
</g>
</g>
</g>
</g>
</svg>
