<svg width="127" height="21" viewBox="0 0 127 21" fill="none" xmlns="http://www.w3.org/2000/svg">
<g id="el_buy_with_Pay_NBG">
<path id="Left Text" d="M0.814997 15.0006L5.135 3.54461H7.135L11.471 15.0006H9.535L8.479 12.0566H3.807L2.751 15.0006H0.814997ZM7.887 10.4246L6.623 6.92061L6.191 5.60861H6.095L5.663 6.92061L4.399 10.4246H7.887ZM14.5567 18.4566V15.0006L11.1807 6.84061H13.1007L15.3887 12.7926H15.4687L17.8047 6.84061H19.6927L16.2847 15.0006V18.4566H14.5567ZM24.6449 15.2566C23.8022 15.2566 23.0609 15.0646 22.4209 14.6806C21.7809 14.2966 21.2795 13.7793 20.9169 13.1286C20.5542 12.4673 20.3729 11.7313 20.3729 10.9206C20.3729 10.1099 20.5542 9.37928 20.9169 8.72861C21.2795 8.06728 21.7809 7.54461 22.4209 7.16061C23.0609 6.77661 23.8022 6.58461 24.6449 6.58461C25.4769 6.58461 26.2129 6.78194 26.8529 7.17661C27.4929 7.56061 27.9942 8.07794 28.3569 8.72861C28.7195 9.37928 28.9009 10.1099 28.9009 10.9206C28.9009 11.7313 28.7195 12.4673 28.3569 13.1286C27.9942 13.7793 27.4929 14.2966 26.8529 14.6806C26.2129 15.0646 25.4769 15.2566 24.6449 15.2566ZM24.6449 13.6726C25.0929 13.6726 25.5089 13.5659 25.8929 13.3526C26.2769 13.1286 26.5862 12.8139 26.8209 12.4086C27.0662 11.9926 27.1889 11.4966 27.1889 10.9206C27.1889 10.3446 27.0662 9.85394 26.8209 9.44861C26.5862 9.03261 26.2769 8.71794 25.8929 8.50461C25.5089 8.28061 25.0929 8.16861 24.6449 8.16861C24.1969 8.16861 23.7755 8.28061 23.3809 8.50461C22.9969 8.71794 22.6822 9.03261 22.4369 9.44861C22.2022 9.85394 22.0849 10.3446 22.0849 10.9206C22.0849 11.4966 22.2022 11.9926 22.4369 12.4086C22.6822 12.8139 23.0022 13.1286 23.3969 13.3526C23.7915 13.5659 24.2075 13.6726 24.6449 13.6726ZM30.4221 18.4566V11.0486C30.4221 10.1419 30.5981 9.35794 30.9501 8.69661C31.3128 8.02461 31.8035 7.50728 32.4221 7.14461C33.0515 6.77128 33.7608 6.58461 34.5501 6.58461C35.2221 6.58461 35.8141 6.70194 36.3261 6.93661C36.8381 7.17128 37.2701 7.49128 37.6221 7.89661C37.9741 8.30194 38.2408 8.76594 38.4221 9.28861C38.6035 9.81128 38.6941 10.3606 38.6941 10.9366C38.6941 11.7793 38.5181 12.5259 38.1661 13.1766C37.8248 13.8273 37.3608 14.3393 36.7741 14.7126C36.1875 15.0753 35.5368 15.2566 34.8221 15.2566C34.3955 15.2566 34.0061 15.1926 33.6541 15.0646C33.3128 14.9473 33.0141 14.7873 32.7581 14.5846C32.5128 14.3819 32.3101 14.1579 32.1501 13.9126H32.0541L32.1501 15.0326V18.4566H30.4221ZM34.5021 13.6726C34.9395 13.6726 35.3448 13.5606 35.7181 13.3366C36.1021 13.1019 36.4061 12.7819 36.6301 12.3766C36.8648 11.9713 36.9821 11.4966 36.9821 10.9526C36.9821 10.3659 36.8648 9.86461 36.6301 9.44861C36.3955 9.03261 36.0861 8.71794 35.7021 8.50461C35.3288 8.28061 34.9288 8.16861 34.5021 8.16861C34.1075 8.16861 33.7235 8.27528 33.3501 8.48861C32.9768 8.70194 32.6675 9.01661 32.4221 9.43261C32.1768 9.84861 32.0541 10.3659 32.0541 10.9846C32.0541 11.4966 32.1661 11.9606 32.3901 12.3766C32.6141 12.7819 32.9128 13.1019 33.2861 13.3366C33.6595 13.5606 34.0648 13.6726 34.5021 13.6726ZM43.857 15.2566C43.3343 15.2566 42.8383 15.1553 42.369 14.9526C41.9103 14.7393 41.4997 14.4406 41.137 14.0566C40.785 13.6726 40.5077 13.2193 40.305 12.6966C40.1023 12.1633 40.001 11.5766 40.001 10.9366C40.001 10.0619 40.177 9.29928 40.529 8.64861C40.8917 7.99794 41.3663 7.49128 41.953 7.12861C42.5503 6.76594 43.201 6.58461 43.905 6.58461C44.3103 6.58461 44.6783 6.64328 45.009 6.76061C45.3503 6.87794 45.649 7.04328 45.905 7.25661C46.1717 7.45928 46.385 7.68861 46.545 7.94461H46.641V6.84061H48.257V12.2806C48.257 12.6966 48.3263 13.0059 48.465 13.2086C48.6037 13.4113 48.8437 13.5126 49.185 13.5126C49.3237 13.5126 49.4517 13.4966 49.569 13.4646C49.697 13.4219 49.8143 13.3686 49.921 13.3046V14.9846C49.7717 15.0273 49.6117 15.0593 49.441 15.0806C49.2703 15.1126 49.0943 15.1286 48.913 15.1286C48.3157 15.1286 47.8463 15.0113 47.505 14.7766C47.1637 14.5313 46.9237 14.1633 46.785 13.6726H46.689C46.3797 14.1953 45.985 14.5899 45.505 14.8566C45.025 15.1233 44.4757 15.2566 43.857 15.2566ZM44.177 13.6726C44.6037 13.6726 45.0037 13.5606 45.377 13.3366C45.761 13.1126 46.065 12.7979 46.289 12.3926C46.5237 11.9766 46.641 11.4859 46.641 10.9206C46.641 10.3553 46.5237 9.86994 46.289 9.46461C46.065 9.04861 45.761 8.72861 45.377 8.50461C45.0037 8.28061 44.6037 8.16861 44.177 8.16861C43.7503 8.16861 43.3503 8.28061 42.977 8.50461C42.6037 8.72861 42.2997 9.04861 42.065 9.46461C41.8303 9.86994 41.713 10.3553 41.713 10.9206C41.713 11.4753 41.8303 11.9606 42.065 12.3766C42.2997 12.7926 42.6037 13.1126 42.977 13.3366C43.3503 13.5606 43.7503 13.6726 44.177 13.6726ZM43.217 5.27261L43.809 2.77661H45.857L44.673 5.27261H43.217ZM55.3565 18.4566V6.84061H57.0845V11.7206C57.0845 12.1793 57.1538 12.5526 57.2925 12.8406C57.4418 13.1286 57.6392 13.3419 57.8845 13.4806C58.1298 13.6086 58.4018 13.6726 58.7005 13.6726C59.1698 13.6726 59.5698 13.5499 59.9005 13.3046C60.2418 13.0593 60.5032 12.7393 60.6845 12.3446C60.8658 11.9499 60.9565 11.5446 60.9565 11.1286V6.84061H62.6685V12.3126C62.6685 12.7179 62.7378 13.0219 62.8765 13.2246C63.0258 13.4166 63.2658 13.5126 63.5965 13.5126C63.7352 13.5126 63.8632 13.4966 63.9805 13.4646C64.0978 13.4219 64.2152 13.3686 64.3325 13.3046V14.9846C64.1832 15.0273 64.0285 15.0593 63.8685 15.0806C63.7192 15.1126 63.5432 15.1286 63.3405 15.1286C62.6792 15.1286 62.1832 15.0006 61.8525 14.7446C61.5325 14.4779 61.3085 14.1206 61.1805 13.6726H61.0845C60.9352 13.9499 60.7485 14.2113 60.5245 14.4566C60.3112 14.6913 60.0552 14.8833 59.7565 15.0326C59.4578 15.1819 59.1058 15.2566 58.7005 15.2566C58.3698 15.2566 58.0552 15.1819 57.7565 15.0326C57.4685 14.8939 57.2445 14.7179 57.0845 14.5046H56.9885L57.0845 15.4166V18.4566H55.3565ZM68.8966 15.2566C68.1286 15.2566 67.4833 15.1553 66.9606 14.9526C66.438 14.7393 66.0433 14.4566 65.7766 14.1046C65.51 13.7526 65.3766 13.3579 65.3766 12.9206C65.3766 12.3659 65.5206 11.9233 65.8086 11.5926C66.1073 11.2619 66.5233 11.0486 67.0566 10.9526V10.8886C66.7153 10.7926 66.4273 10.6593 66.1926 10.4886C65.9686 10.3073 65.798 10.0939 65.6806 9.84861C65.574 9.59261 65.5206 9.32061 65.5206 9.03261C65.5206 8.25394 65.83 7.65128 66.4486 7.22461C67.078 6.79794 67.9793 6.58461 69.1526 6.58461C69.6753 6.58461 70.15 6.63261 70.5766 6.72861C71.014 6.81394 71.4033 6.95261 71.7446 7.14461C72.086 7.32594 72.374 7.56061 72.6086 7.84861L71.5526 8.95261C71.286 8.67528 70.95 8.46194 70.5446 8.31261C70.15 8.15261 69.6593 8.07261 69.0726 8.07261C68.6033 8.07261 68.23 8.12594 67.9526 8.23261C67.6753 8.32861 67.478 8.46194 67.3606 8.63261C67.2433 8.80328 67.1846 8.98994 67.1846 9.19261C67.1846 9.52328 67.334 9.76861 67.6326 9.92861C67.9313 10.0779 68.342 10.1526 68.8646 10.1526H70.4966V11.6566H68.7686C68.1606 11.6566 67.7286 11.7473 67.4726 11.9286C67.2166 12.0993 67.0886 12.3499 67.0886 12.6806C67.0886 12.9899 67.238 13.2459 67.5366 13.4486C67.846 13.6406 68.3046 13.7366 68.9126 13.7366C69.5206 13.7366 70.0646 13.6353 70.5446 13.4326C71.0246 13.2193 71.398 12.9686 71.6646 12.6806L72.6726 13.7206C72.4913 13.9659 72.2353 14.2059 71.9046 14.4406C71.574 14.6753 71.158 14.8673 70.6566 15.0166C70.1553 15.1766 69.5686 15.2566 68.8966 15.2566Z" fill="white"/>
<g id="GPay (Dark)">
<g id="GPay">
<g id="Pay">
<path id="Fill 1" fill-rule="evenodd" clip-rule="evenodd" d="M101.356 3.42339V8.16175H104.278C104.974 8.16175 105.55 7.92781 106.005 7.45993C106.473 6.99313 106.707 6.43644 106.707 5.79203C106.707 5.16061 106.473 4.61041 106.005 4.14254C105.55 3.66274 104.974 3.4223 104.278 3.4223H101.356V3.42339ZM101.356 9.82966V15.3262H99.6107V1.75549H104.24C105.417 1.75549 106.415 2.14756 107.238 2.93061C108.073 3.71365 108.491 4.66782 108.491 5.79203C108.491 6.94224 108.073 7.90291 107.238 8.67296C106.428 9.44409 105.429 9.82858 104.24 9.82858H101.356V9.82966Z" fill="white"/>
<path id="Fill 3" fill-rule="evenodd" clip-rule="evenodd" d="M110.255 12.4831C110.255 12.9379 110.448 13.317 110.834 13.6203C111.22 13.9235 111.672 14.0752 112.19 14.0752C112.924 14.0752 113.578 13.8032 114.153 13.2607C114.729 12.717 115.017 12.0791 115.017 11.3469C114.472 10.917 113.713 10.7025 112.74 10.7025C112.031 10.7025 111.44 10.8736 110.966 11.2148C110.492 11.5559 110.255 11.9773 110.255 12.4831M112.513 5.73566C113.803 5.73566 114.821 6.08007 115.569 6.76889C116.314 7.45771 116.687 8.40213 116.687 9.60216V15.3261H115.018V14.0373H114.942C114.221 15.0985 113.259 15.6294 112.058 15.6294C111.033 15.6294 110.176 15.3261 109.487 14.7196C108.797 14.1131 108.453 13.3549 108.453 12.4452C108.453 11.4845 108.816 10.7208 109.543 10.1523C110.271 9.58375 111.241 9.2989 112.456 9.2989C113.492 9.2989 114.346 9.48844 115.017 9.86751V9.46894C115.017 8.86243 114.776 8.34798 114.296 7.92451C113.814 7.50103 113.252 7.28984 112.607 7.28984C111.633 7.28984 110.862 7.70032 110.293 8.52235L108.755 7.55519C109.603 6.34217 110.855 5.73566 112.513 5.73566" fill="white"/>
<path id="Fill 5" fill-rule="evenodd" clip-rule="evenodd" d="M126.269 6.03894L120.443 19.4201H118.641L120.804 14.738L116.971 6.03894H118.869L121.639 12.7106H121.677L124.371 6.03894H126.269Z" fill="white"/>
</g>
<g id="G">
<path id="Fill 8" fill-rule="evenodd" clip-rule="evenodd" d="M94.3029 8.64473C94.3029 8.09563 94.2562 7.56601 94.1684 7.05914H86.8065V10.0625H91.0231C90.842 11.0414 90.2944 11.8744 89.4639 12.4322V14.3828H91.9804C93.4539 13.0246 94.3029 11.0177 94.3029 8.64473" fill="#4285F4"/>
<path id="Fill 10" fill-rule="evenodd" clip-rule="evenodd" d="M86.8065 16.2651C88.9131 16.2651 90.6869 15.5741 91.9804 14.3828L89.4639 12.4322C88.7635 12.9033 87.8614 13.1784 86.8065 13.1784C84.7703 13.1784 83.042 11.8073 82.424 9.95959H79.8316V11.9687C81.1164 14.516 83.7565 16.2651 86.8065 16.2651" fill="#34A853"/>
<path id="Fill 12" fill-rule="evenodd" clip-rule="evenodd" d="M82.424 9.9596C82.2657 9.48847 82.179 8.98593 82.179 8.46715C82.179 7.94837 82.2657 7.44583 82.424 6.9747V4.96564H79.8316C79.3003 6.01837 79 7.20756 79 8.46715C79 9.72674 79.3003 10.916 79.8316 11.9687L82.424 9.9596Z" fill="#FABB05"/>
<path id="Fill 14" fill-rule="evenodd" clip-rule="evenodd" d="M86.8065 3.75583C87.9568 3.75583 88.9879 4.15115 89.8011 4.92553V4.92661L92.0292 2.70094C90.6761 1.44243 88.912 0.669128 86.8065 0.669128C83.7565 0.669128 81.1164 2.41826 79.8316 4.9656L82.424 6.97467C83.042 5.12698 84.7703 3.75583 86.8065 3.75583" fill="#E94235"/>
</g>
</g>
</g>
</g>
</svg>
