<svg width="241" height="21" viewBox="0 0 241 21" fill="none" xmlns="http://www.w3.org/2000/svg">
<g id="el_checkout_with_Pay_NBG">
<path id="Left Text" d="M7.55599 15.2566C6.70266 15.2566 5.91333 15.1019 5.18799 14.7926C4.47333 14.4833 3.84933 14.0566 3.31599 13.5126C2.78266 12.9579 2.36666 12.3233 2.06799 11.6086C1.76933 10.8833 1.61999 10.1046 1.61999 9.27261C1.61999 8.44061 1.76933 7.66728 2.06799 6.95261C2.36666 6.22728 2.78266 5.59261 3.31599 5.04861C3.84933 4.49394 4.47333 4.06194 5.18799 3.75261C5.91333 3.44328 6.70266 3.28861 7.55599 3.28861C8.40933 3.28861 9.19333 3.44328 9.90799 3.75261C10.6227 4.06194 11.2467 4.49394 11.78 5.04861C12.324 5.59261 12.74 6.22728 13.028 6.95261C13.3267 7.66728 13.476 8.44061 13.476 9.27261C13.476 10.1046 13.3267 10.8833 13.028 11.6086C12.74 12.3233 12.324 12.9579 11.78 13.5126C11.2467 14.0566 10.6227 14.4833 9.90799 14.7926C9.19333 15.1019 8.40933 15.2566 7.55599 15.2566ZM7.55599 13.5926C8.33466 13.5926 9.03333 13.4113 9.65199 13.0486C10.2813 12.6859 10.7827 12.1793 11.156 11.5286C11.5293 10.8779 11.716 10.1259 11.716 9.27261C11.716 8.40861 11.5293 7.65661 11.156 7.01661C10.7827 6.36594 10.2813 5.85928 9.65199 5.49661C9.03333 5.13394 8.33466 4.95261 7.55599 4.95261C6.78799 4.95261 6.08933 5.13394 5.45999 5.49661C4.83066 5.85928 4.32933 6.36594 3.95599 7.01661C3.58266 7.65661 3.39599 8.40861 3.39599 9.27261C3.39599 10.1259 3.58266 10.8779 3.95599 11.5286C4.32933 12.1793 4.83066 12.6859 5.45999 13.0486C6.08933 13.4113 6.78799 13.5926 7.55599 13.5926ZM20.2856 15.0006L18.0296 9.43261H17.9496L15.6136 15.0006H13.6936L17.0856 7.35261L16.4936 6.08861C16.3016 5.66194 16.115 5.37928 15.9336 5.24061C15.7523 5.10194 15.523 5.03261 15.2456 5.03261C15.1176 5.03261 14.9896 5.04861 14.8616 5.08061C14.7443 5.11261 14.627 5.16594 14.5096 5.24061V3.56061C14.659 3.50728 14.819 3.46994 14.9896 3.44861C15.1603 3.42728 15.3576 3.41661 15.5816 3.41661C16.019 3.41661 16.3763 3.48594 16.6536 3.62461C16.9416 3.75261 17.187 3.96594 17.3896 4.26461C17.603 4.56328 17.8163 4.96328 18.0296 5.46461L22.1736 15.0006H20.2856ZM26.9855 15.2566C26.1428 15.2566 25.4015 15.0646 24.7615 14.6806C24.1215 14.2966 23.6202 13.7793 23.2575 13.1286C22.8948 12.4673 22.7135 11.7313 22.7135 10.9206C22.7135 10.1099 22.8948 9.37928 23.2575 8.72861C23.6202 8.06728 24.1215 7.54461 24.7615 7.16061C25.4015 6.77661 26.1428 6.58461 26.9855 6.58461C27.8175 6.58461 28.5535 6.78194 29.1935 7.17661C29.8335 7.56061 30.3348 8.07794 30.6975 8.72861C31.0602 9.37928 31.2415 10.1099 31.2415 10.9206C31.2415 11.7313 31.0602 12.4673 30.6975 13.1286C30.3348 13.7793 29.8335 14.2966 29.1935 14.6806C28.5535 15.0646 27.8175 15.2566 26.9855 15.2566ZM26.9855 13.6726C27.4335 13.6726 27.8495 13.5659 28.2335 13.3526C28.6175 13.1286 28.9268 12.8139 29.1615 12.4086C29.4068 11.9926 29.5295 11.4966 29.5295 10.9206C29.5295 10.3446 29.4068 9.85394 29.1615 9.44861C28.9268 9.03261 28.6175 8.71794 28.2335 8.50461C27.8495 8.28061 27.4335 8.16861 26.9855 8.16861C26.5375 8.16861 26.1162 8.28061 25.7215 8.50461C25.3375 8.71794 25.0228 9.03261 24.7775 9.44861C24.5428 9.85394 24.4255 10.3446 24.4255 10.9206C24.4255 11.4966 24.5428 11.9926 24.7775 12.4086C25.0228 12.8139 25.3428 13.1286 25.7375 13.3526C26.1322 13.5659 26.5482 13.6726 26.9855 13.6726ZM32.8267 15.0006V6.84061H34.5547V10.3126L38.0107 6.84061H40.1547V6.93661L37.0027 10.0566L40.2667 14.9046V15.0006H38.2187L35.8027 11.2566L34.5547 12.4726V15.0006H32.8267ZM47.2044 15.0006L44.9484 9.43261H44.8684L42.5324 15.0006H40.6124L44.0044 7.35261L43.4124 6.08861C43.2204 5.66194 43.0337 5.37928 42.8524 5.24061C42.671 5.10194 42.4417 5.03261 42.1644 5.03261C42.0364 5.03261 41.9084 5.04861 41.7804 5.08061C41.663 5.11261 41.5457 5.16594 41.4284 5.24061V3.56061C41.5777 3.50728 41.7377 3.46994 41.9084 3.44861C42.079 3.42728 42.2764 3.41661 42.5004 3.41661C42.9377 3.41661 43.295 3.48594 43.5724 3.62461C43.8604 3.75261 44.1057 3.96594 44.3084 4.26461C44.5217 4.56328 44.735 4.96328 44.9484 5.46461L49.0924 15.0006H47.2044ZM50.0642 15.0006V6.84061H51.6962V7.96061H51.7922C52.0269 7.56594 52.3736 7.24061 52.8322 6.98461C53.3016 6.71794 53.8136 6.58461 54.3682 6.58461C55.3709 6.58461 56.1229 6.88328 56.6242 7.48061C57.1256 8.06728 57.3762 8.85661 57.3762 9.84861V18.4566H55.6642V10.0726C55.6642 9.41128 55.4989 8.93128 55.1682 8.63261C54.8376 8.32328 54.4056 8.16861 53.8722 8.16861C53.4562 8.16861 53.0936 8.28594 52.7842 8.52061C52.4749 8.74461 52.2296 9.04328 52.0482 9.41661C51.8776 9.78994 51.7922 10.1899 51.7922 10.6166V15.0006H50.0642ZM52.7682 5.27261L53.3602 2.77661H55.4082L54.2242 5.27261H52.7682ZM59.4315 18.4566V11.0486C59.4315 10.1419 59.6075 9.35794 59.9595 8.69661C60.3222 8.02461 60.8128 7.50728 61.4315 7.14461C62.0608 6.77128 62.7702 6.58461 63.5595 6.58461C64.2315 6.58461 64.8235 6.70194 65.3355 6.93661C65.8475 7.17128 66.2795 7.49128 66.6315 7.89661C66.9835 8.30194 67.2502 8.76594 67.4315 9.28861C67.6128 9.81128 67.7035 10.3606 67.7035 10.9366C67.7035 11.7793 67.5275 12.5259 67.1755 13.1766C66.8342 13.8273 66.3702 14.3393 65.7835 14.7126C65.1968 15.0753 64.5462 15.2566 63.8315 15.2566C63.4048 15.2566 63.0155 15.1926 62.6635 15.0646C62.3222 14.9473 62.0235 14.7873 61.7675 14.5846C61.5222 14.3819 61.3195 14.1579 61.1595 13.9126H61.0635L61.1595 15.0326V18.4566H59.4315ZM63.5115 13.6726C63.9488 13.6726 64.3542 13.5606 64.7275 13.3366C65.1115 13.1019 65.4155 12.7819 65.6395 12.3766C65.8742 11.9713 65.9915 11.4966 65.9915 10.9526C65.9915 10.3659 65.8742 9.86461 65.6395 9.44861C65.4048 9.03261 65.0955 8.71794 64.7115 8.50461C64.3382 8.28061 63.9382 8.16861 63.5115 8.16861C63.1168 8.16861 62.7328 8.27528 62.3595 8.48861C61.9862 8.70194 61.6768 9.01661 61.4315 9.43261C61.1862 9.84861 61.0635 10.3659 61.0635 10.9846C61.0635 11.4966 61.1755 11.9606 61.3995 12.3766C61.6235 12.7819 61.9222 13.1019 62.2955 13.3366C62.6688 13.5606 63.0742 13.6726 63.5115 13.6726ZM72.4184 15.2566C71.853 15.2566 71.3197 15.1179 70.8184 14.8406C70.317 14.5633 69.917 14.1313 69.6184 13.5446C69.3197 12.9579 69.1704 12.2059 69.1704 11.2886C69.1704 10.7233 69.2344 10.1579 69.3624 9.59261C69.4904 9.02728 69.6664 8.50461 69.8904 8.02461C70.125 7.54461 70.397 7.14994 70.7064 6.84061H72.5304C72.189 7.24594 71.8957 7.68861 71.6504 8.16861C71.4157 8.64861 71.229 9.15528 71.0904 9.68861C70.9624 10.2113 70.8984 10.7446 70.8984 11.2886C70.8984 12.0779 71.0424 12.6806 71.3304 13.0966C71.629 13.5019 72.029 13.7046 72.5304 13.7046C72.829 13.7046 73.1064 13.6353 73.3624 13.4966C73.6184 13.3473 73.821 13.1286 73.9704 12.8406C74.1304 12.5419 74.2104 12.1633 74.2104 11.7046V8.92061H75.9384V11.7046C75.9384 12.1633 76.013 12.5419 76.1624 12.8406C76.3224 13.1286 76.5304 13.3473 76.7864 13.4966C77.0424 13.6353 77.3197 13.7046 77.6184 13.7046C78.0877 13.7046 78.477 13.5019 78.7864 13.0966C79.1064 12.6806 79.2664 12.0779 79.2664 11.2886C79.2664 10.7446 79.197 10.2113 79.0584 9.68861C78.9304 9.15528 78.7437 8.64861 78.4984 8.16861C78.253 7.68861 77.9544 7.24594 77.6024 6.84061H79.4424C79.7624 7.14994 80.0344 7.54461 80.2584 8.02461C80.493 8.50461 80.669 9.02728 80.7864 9.59261C80.9144 10.1579 80.9784 10.7233 80.9784 11.2886C80.9784 12.1633 80.8237 12.8993 80.5144 13.4966C80.2157 14.0833 79.821 14.5259 79.3304 14.8246C78.8397 15.1126 78.301 15.2566 77.7144 15.2566C77.3624 15.2566 77.0157 15.1926 76.6744 15.0646C76.3437 14.9473 76.0397 14.7606 75.7624 14.5046C75.4957 14.2486 75.2717 13.9179 75.0904 13.5126C74.9197 13.9179 74.6904 14.2486 74.4024 14.5046C74.125 14.7606 73.8157 14.9473 73.4744 15.0646C73.133 15.1926 72.781 15.2566 72.4184 15.2566ZM86.6016 15.2566C85.7803 15.2566 85.0549 15.0753 84.4256 14.7126C83.8069 14.3393 83.3216 13.8379 82.9696 13.2086C82.6176 12.5686 82.4416 11.8486 82.4416 11.0486C82.4416 10.2379 82.6176 9.51794 82.9696 8.88861C83.3323 8.25928 83.8389 7.76328 84.4896 7.40061C85.1403 7.02728 85.9136 6.84061 86.8096 6.84061H91.7856V8.34461H90.8416L89.5776 8.23261V8.32861C89.8336 8.52061 90.0523 8.74994 90.2336 9.01661C90.4149 9.27261 90.5536 9.57128 90.6496 9.91261C90.7563 10.2433 90.8096 10.6059 90.8096 11.0006C90.8096 11.8006 90.6336 12.5259 90.2816 13.1766C89.9296 13.8166 89.4336 14.3233 88.7936 14.6966C88.1643 15.0699 87.4336 15.2566 86.6016 15.2566ZM86.6176 13.6726C87.0549 13.6726 87.4603 13.5713 87.8336 13.3686C88.2069 13.1553 88.5109 12.8513 88.7456 12.4566C88.9803 12.0619 89.0976 11.5873 89.0976 11.0326C89.0976 10.4566 88.9803 9.97128 88.7456 9.57661C88.5109 9.17128 88.2069 8.86194 87.8336 8.64861C87.4603 8.43528 87.0549 8.32861 86.6176 8.32861C86.1909 8.32861 85.7856 8.43528 85.4016 8.64861C85.0283 8.86194 84.7243 9.17128 84.4896 9.57661C84.2656 9.97128 84.1536 10.4566 84.1536 11.0326C84.1536 11.5873 84.2656 12.0619 84.4896 12.4566C84.7243 12.8513 85.0283 13.1553 85.4016 13.3686C85.7856 13.5713 86.1909 13.6726 86.6176 13.6726ZM93.4142 15.0006V6.84061H95.0462V7.96061H95.1422C95.3769 7.56594 95.7236 7.24061 96.1822 6.98461C96.6516 6.71794 97.1636 6.58461 97.7182 6.58461C98.7209 6.58461 99.4729 6.88328 99.9742 7.48061C100.476 8.06728 100.726 8.85661 100.726 9.84861V18.4566H99.0142V10.0726C99.0142 9.41128 98.8489 8.93128 98.5182 8.63261C98.1876 8.32328 97.7556 8.16861 97.2222 8.16861C96.8062 8.16861 96.4436 8.28594 96.1342 8.52061C95.8249 8.74461 95.5796 9.04328 95.3982 9.41661C95.2276 9.78994 95.1422 10.1899 95.1422 10.6166V15.0006H93.4142ZM110.154 15.2566C109.631 15.2566 109.135 15.1553 108.666 14.9526C108.207 14.7393 107.797 14.4406 107.434 14.0566C107.082 13.6726 106.805 13.2193 106.602 12.6966C106.399 12.1633 106.298 11.5766 106.298 10.9366C106.298 10.0619 106.474 9.29928 106.826 8.64861C107.189 7.99794 107.663 7.49128 108.25 7.12861C108.847 6.76594 109.498 6.58461 110.202 6.58461C110.607 6.58461 110.975 6.64328 111.306 6.76061C111.647 6.87794 111.946 7.04328 112.202 7.25661C112.469 7.45928 112.682 7.68861 112.842 7.94461H112.938V6.84061H114.554V12.2806C114.554 12.6966 114.623 13.0059 114.762 13.2086C114.901 13.4113 115.141 13.5126 115.482 13.5126C115.621 13.5126 115.749 13.4966 115.866 13.4646C115.994 13.4219 116.111 13.3686 116.218 13.3046V14.9846C116.069 15.0273 115.909 15.0593 115.738 15.0806C115.567 15.1126 115.391 15.1286 115.21 15.1286C114.613 15.1286 114.143 15.0113 113.802 14.7766C113.461 14.5313 113.221 14.1633 113.082 13.6726H112.986C112.677 14.1953 112.282 14.5899 111.802 14.8566C111.322 15.1233 110.773 15.2566 110.154 15.2566ZM110.474 13.6726C110.901 13.6726 111.301 13.5606 111.674 13.3366C112.058 13.1126 112.362 12.7979 112.586 12.3926C112.821 11.9766 112.938 11.4859 112.938 10.9206C112.938 10.3553 112.821 9.86994 112.586 9.46461C112.362 9.04861 112.058 8.72861 111.674 8.50461C111.301 8.28061 110.901 8.16861 110.474 8.16861C110.047 8.16861 109.647 8.28061 109.274 8.50461C108.901 8.72861 108.597 9.04861 108.362 9.46461C108.127 9.86994 108.01 10.3553 108.01 10.9206C108.01 11.4753 108.127 11.9606 108.362 12.3766C108.597 12.7926 108.901 13.1126 109.274 13.3366C109.647 13.5606 110.047 13.6726 110.474 13.6726ZM119.829 18.4566V15.0006L116.453 6.84061H118.373L120.661 12.7926H120.741L123.077 6.84061H124.965L121.557 15.0006V18.4566H119.829ZM129.917 15.2566C129.074 15.2566 128.333 15.0646 127.693 14.6806C127.053 14.2966 126.551 13.7793 126.189 13.1286C125.826 12.4673 125.645 11.7313 125.645 10.9206C125.645 10.1099 125.826 9.37928 126.189 8.72861C126.551 8.06728 127.053 7.54461 127.693 7.16061C128.333 6.77661 129.074 6.58461 129.917 6.58461C130.749 6.58461 131.485 6.78194 132.125 7.17661C132.765 7.56061 133.266 8.07794 133.629 8.72861C133.991 9.37928 134.173 10.1099 134.173 10.9206C134.173 11.7313 133.991 12.4673 133.629 13.1286C133.266 13.7793 132.765 14.2966 132.125 14.6806C131.485 15.0646 130.749 15.2566 129.917 15.2566ZM129.917 13.6726C130.365 13.6726 130.781 13.5659 131.165 13.3526C131.549 13.1286 131.858 12.8139 132.093 12.4086C132.338 11.9926 132.461 11.4966 132.461 10.9206C132.461 10.3446 132.338 9.85394 132.093 9.44861C131.858 9.03261 131.549 8.71794 131.165 8.50461C130.781 8.28061 130.365 8.16861 129.917 8.16861C129.469 8.16861 129.047 8.28061 128.653 8.50461C128.269 8.71794 127.954 9.03261 127.709 9.44861C127.474 9.85394 127.357 10.3446 127.357 10.9206C127.357 11.4966 127.474 11.9926 127.709 12.4086C127.954 12.8139 128.274 13.1286 128.669 13.3526C129.063 13.5659 129.479 13.6726 129.917 13.6726ZM135.694 18.4566V11.0486C135.694 10.1419 135.87 9.35794 136.222 8.69661C136.585 8.02461 137.075 7.50728 137.694 7.14461C138.323 6.77128 139.033 6.58461 139.822 6.58461C140.494 6.58461 141.086 6.70194 141.598 6.93661C142.11 7.17128 142.542 7.49128 142.894 7.89661C143.246 8.30194 143.513 8.76594 143.694 9.28861C143.875 9.81128 143.966 10.3606 143.966 10.9366C143.966 11.7793 143.79 12.5259 143.438 13.1766C143.097 13.8273 142.633 14.3393 142.046 14.7126C141.459 15.0753 140.809 15.2566 140.094 15.2566C139.667 15.2566 139.278 15.1926 138.926 15.0646C138.585 14.9473 138.286 14.7873 138.03 14.5846C137.785 14.3819 137.582 14.1579 137.422 13.9126H137.326L137.422 15.0326V18.4566H135.694ZM139.774 13.6726C140.211 13.6726 140.617 13.5606 140.99 13.3366C141.374 13.1019 141.678 12.7819 141.902 12.3766C142.137 11.9713 142.254 11.4966 142.254 10.9526C142.254 10.3659 142.137 9.86461 141.902 9.44861C141.667 9.03261 141.358 8.71794 140.974 8.50461C140.601 8.28061 140.201 8.16861 139.774 8.16861C139.379 8.16861 138.995 8.27528 138.622 8.48861C138.249 8.70194 137.939 9.01661 137.694 9.43261C137.449 9.84861 137.326 10.3659 137.326 10.9846C137.326 11.4966 137.438 11.9606 137.662 12.3766C137.886 12.7819 138.185 13.1019 138.558 13.3366C138.931 13.5606 139.337 13.6726 139.774 13.6726ZM149.129 15.2566C148.606 15.2566 148.11 15.1553 147.641 14.9526C147.182 14.7393 146.772 14.4406 146.409 14.0566C146.057 13.6726 145.78 13.2193 145.577 12.6966C145.374 12.1633 145.273 11.5766 145.273 10.9366C145.273 10.0619 145.449 9.29928 145.801 8.64861C146.164 7.99794 146.638 7.49128 147.225 7.12861C147.822 6.76594 148.473 6.58461 149.177 6.58461C149.582 6.58461 149.95 6.64328 150.281 6.76061C150.622 6.87794 150.921 7.04328 151.177 7.25661C151.444 7.45928 151.657 7.68861 151.817 7.94461H151.913V6.84061H153.529V12.2806C153.529 12.6966 153.598 13.0059 153.737 13.2086C153.876 13.4113 154.116 13.5126 154.457 13.5126C154.596 13.5126 154.724 13.4966 154.841 13.4646C154.969 13.4219 155.086 13.3686 155.193 13.3046V14.9846C155.044 15.0273 154.884 15.0593 154.713 15.0806C154.542 15.1126 154.366 15.1286 154.185 15.1286C153.588 15.1286 153.118 15.0113 152.777 14.7766C152.436 14.5313 152.196 14.1633 152.057 13.6726H151.961C151.652 14.1953 151.257 14.5899 150.777 14.8566C150.297 15.1233 149.748 15.2566 149.129 15.2566ZM149.449 13.6726C149.876 13.6726 150.276 13.5606 150.649 13.3366C151.033 13.1126 151.337 12.7979 151.561 12.3926C151.796 11.9766 151.913 11.4859 151.913 10.9206C151.913 10.3553 151.796 9.86994 151.561 9.46461C151.337 9.04861 151.033 8.72861 150.649 8.50461C150.276 8.28061 149.876 8.16861 149.449 8.16861C149.022 8.16861 148.622 8.28061 148.249 8.50461C147.876 8.72861 147.572 9.04861 147.337 9.46461C147.102 9.86994 146.985 10.3553 146.985 10.9206C146.985 11.4753 147.102 11.9606 147.337 12.3766C147.572 12.7926 147.876 13.1126 148.249 13.3366C148.622 13.5606 149.022 13.6726 149.449 13.6726ZM148.489 5.27261L149.081 2.77661H151.129L149.945 5.27261H148.489ZM160.751 17.8966V16.4566C161.007 16.4566 161.194 16.3926 161.311 16.2646C161.439 16.1473 161.503 16.0033 161.503 15.8326C161.503 15.6513 161.439 15.5019 161.311 15.3846C161.194 15.2779 161.007 15.2193 160.751 15.2086L160.287 15.1926C159.381 15.1606 158.613 14.9739 157.983 14.6326C157.354 14.2806 156.874 13.7953 156.543 13.1766C156.223 12.5473 156.063 11.8166 156.063 10.9846C156.063 10.3766 156.159 9.81128 156.351 9.28861C156.543 8.75528 156.821 8.28594 157.183 7.88061C157.557 7.47528 158.005 7.16061 158.527 6.93661C159.05 6.70194 159.642 6.58461 160.303 6.58461C160.933 6.58461 161.482 6.68594 161.951 6.88861C162.431 7.08061 162.837 7.34728 163.167 7.68861C163.498 8.02994 163.743 8.41394 163.903 8.84061L162.335 9.48061C162.154 9.04328 161.882 8.71794 161.519 8.50461C161.167 8.28061 160.741 8.16861 160.239 8.16861C159.823 8.16861 159.423 8.27528 159.039 8.48861C158.666 8.70194 158.362 9.01128 158.127 9.41661C157.893 9.82194 157.775 10.3233 157.775 10.9206C157.775 11.7419 157.989 12.3979 158.415 12.8886C158.853 13.3686 159.471 13.6193 160.271 13.6406L160.671 13.6566C161.471 13.6886 162.079 13.8859 162.495 14.2486C162.911 14.6113 163.119 15.1126 163.119 15.7526C163.119 16.4246 162.895 16.9473 162.447 17.3206C161.999 17.7046 161.434 17.8966 160.751 17.8966ZM169.356 18.4566V6.84061H171.084V11.7206C171.084 12.1793 171.154 12.5526 171.292 12.8406C171.442 13.1286 171.639 13.3419 171.884 13.4806C172.13 13.6086 172.402 13.6726 172.7 13.6726C173.17 13.6726 173.57 13.5499 173.9 13.3046C174.242 13.0593 174.503 12.7393 174.684 12.3446C174.866 11.9499 174.956 11.5446 174.956 11.1286V6.84061H176.668V12.3126C176.668 12.7179 176.738 13.0219 176.876 13.2246C177.026 13.4166 177.266 13.5126 177.596 13.5126C177.735 13.5126 177.863 13.4966 177.98 13.4646C178.098 13.4219 178.215 13.3686 178.332 13.3046V14.9846C178.183 15.0273 178.028 15.0593 177.868 15.0806C177.719 15.1126 177.543 15.1286 177.34 15.1286C176.679 15.1286 176.183 15.0006 175.852 14.7446C175.532 14.4779 175.308 14.1206 175.18 13.6726H175.084C174.935 13.9499 174.748 14.2113 174.524 14.4566C174.311 14.6913 174.055 14.8833 173.756 15.0326C173.458 15.1819 173.106 15.2566 172.7 15.2566C172.37 15.2566 172.055 15.1819 171.756 15.0326C171.468 14.8939 171.244 14.7179 171.084 14.5046H170.988L171.084 15.4166V18.4566H169.356ZM182.897 15.2566C182.129 15.2566 181.483 15.1553 180.961 14.9526C180.438 14.7393 180.043 14.4566 179.777 14.1046C179.51 13.7526 179.377 13.3579 179.377 12.9206C179.377 12.3659 179.521 11.9233 179.809 11.5926C180.107 11.2619 180.523 11.0486 181.057 10.9526V10.8886C180.715 10.7926 180.427 10.6593 180.193 10.4886C179.969 10.3073 179.798 10.0939 179.681 9.84861C179.574 9.59261 179.521 9.32061 179.521 9.03261C179.521 8.25394 179.83 7.65128 180.449 7.22461C181.078 6.79794 181.979 6.58461 183.153 6.58461C183.675 6.58461 184.15 6.63261 184.577 6.72861C185.014 6.81394 185.403 6.95261 185.745 7.14461C186.086 7.32594 186.374 7.56061 186.609 7.84861L185.553 8.95261C185.286 8.67528 184.95 8.46194 184.545 8.31261C184.15 8.15261 183.659 8.07261 183.073 8.07261C182.603 8.07261 182.23 8.12594 181.953 8.23261C181.675 8.32861 181.478 8.46194 181.361 8.63261C181.243 8.80328 181.185 8.98994 181.185 9.19261C181.185 9.52328 181.334 9.76861 181.633 9.92861C181.931 10.0779 182.342 10.1526 182.865 10.1526H184.497V11.6566H182.769C182.161 11.6566 181.729 11.7473 181.473 11.9286C181.217 12.0993 181.089 12.3499 181.089 12.6806C181.089 12.9899 181.238 13.2459 181.537 13.4486C181.846 13.6406 182.305 13.7366 182.913 13.7366C183.521 13.7366 184.065 13.6353 184.545 13.4326C185.025 13.2193 185.398 12.9686 185.665 12.6806L186.673 13.7206C186.491 13.9659 186.235 14.2059 185.905 14.4406C185.574 14.6753 185.158 14.8673 184.657 15.0166C184.155 15.1766 183.569 15.2566 182.897 15.2566Z" fill="white"/>
<g id="GPay (Dark)">
<g id="GPay">
<g id="Pay">
<path id="Fill 1" fill-rule="evenodd" clip-rule="evenodd" d="M215.356 3.42339V8.16175H218.278C218.974 8.16175 219.55 7.92781 220.005 7.45993C220.473 6.99313 220.707 6.43644 220.707 5.79203C220.707 5.16061 220.473 4.61041 220.005 4.14254C219.55 3.66274 218.974 3.4223 218.278 3.4223H215.356V3.42339ZM215.356 9.82966V15.3262H213.611V1.75549H218.24C219.417 1.75549 220.415 2.14756 221.238 2.93061C222.073 3.71365 222.491 4.66782 222.491 5.79203C222.491 6.94224 222.073 7.90291 221.238 8.67296C220.428 9.44409 219.429 9.82858 218.24 9.82858H215.356V9.82966Z" fill="white"/>
<path id="Fill 3" fill-rule="evenodd" clip-rule="evenodd" d="M224.255 12.4831C224.255 12.9379 224.448 13.317 224.834 13.6203C225.22 13.9235 225.672 14.0752 226.19 14.0752C226.924 14.0752 227.578 13.8032 228.153 13.2607C228.729 12.717 229.017 12.0791 229.017 11.3469C228.472 10.917 227.713 10.7025 226.74 10.7025C226.031 10.7025 225.44 10.8736 224.966 11.2148C224.492 11.5559 224.255 11.9773 224.255 12.4831M226.513 5.73566C227.803 5.73566 228.821 6.08007 229.569 6.76889C230.314 7.45771 230.687 8.40213 230.687 9.60216V15.3261H229.018V14.0373H228.942C228.221 15.0985 227.259 15.6294 226.058 15.6294C225.033 15.6294 224.176 15.3261 223.487 14.7196C222.797 14.1131 222.453 13.3549 222.453 12.4452C222.453 11.4845 222.816 10.7208 223.543 10.1523C224.271 9.58375 225.241 9.2989 226.456 9.2989C227.492 9.2989 228.346 9.48844 229.017 9.86751V9.46894C229.017 8.86243 228.776 8.34798 228.296 7.92451C227.814 7.50103 227.252 7.28984 226.607 7.28984C225.633 7.28984 224.862 7.70032 224.293 8.52235L222.755 7.55519C223.603 6.34217 224.855 5.73566 226.513 5.73566" fill="white"/>
<path id="Fill 5" fill-rule="evenodd" clip-rule="evenodd" d="M240.269 6.03894L234.443 19.4201H232.641L234.804 14.738L230.971 6.03894H232.869L235.639 12.7106H235.677L238.371 6.03894H240.269Z" fill="white"/>
</g>
<g id="G">
<path id="Fill 8" fill-rule="evenodd" clip-rule="evenodd" d="M208.303 8.64473C208.303 8.09563 208.256 7.56601 208.168 7.05914H200.806V10.0625H205.023C204.842 11.0414 204.294 11.8744 203.464 12.4322V14.3828H205.98C207.454 13.0246 208.303 11.0177 208.303 8.64473" fill="#4285F4"/>
<path id="Fill 10" fill-rule="evenodd" clip-rule="evenodd" d="M200.806 16.2651C202.913 16.2651 204.687 15.5741 205.98 14.3828L203.464 12.4322C202.764 12.9033 201.861 13.1784 200.806 13.1784C198.77 13.1784 197.042 11.8073 196.424 9.95959H193.832V11.9687C195.116 14.516 197.757 16.2651 200.806 16.2651" fill="#34A853"/>
<path id="Fill 12" fill-rule="evenodd" clip-rule="evenodd" d="M196.424 9.9596C196.266 9.48847 196.179 8.98593 196.179 8.46715C196.179 7.94837 196.266 7.44583 196.424 6.9747V4.96564H193.832C193.3 6.01837 193 7.20756 193 8.46715C193 9.72674 193.3 10.916 193.832 11.9687L196.424 9.9596Z" fill="#FABB05"/>
<path id="Fill 14" fill-rule="evenodd" clip-rule="evenodd" d="M200.806 3.75583C201.957 3.75583 202.988 4.15115 203.801 4.92553V4.92661L206.029 2.70094C204.676 1.44243 202.912 0.669128 200.806 0.669128C197.757 0.669128 195.116 2.41826 193.832 4.9656L196.424 6.97467C197.042 5.12698 198.77 3.75583 200.806 3.75583" fill="#E94235"/>
</g>
</g>
</g>
</g>
</svg>
