<svg width="426" height="38" viewBox="0 0 426 38" fill="none" xmlns="http://www.w3.org/2000/svg">
<g id="el_checkout_with_Dark">
<path id="Text" d="M12.0105 30.448C10.5172 30.448 9.13582 30.1773 7.86649 29.636C6.61582 29.0947 5.52382 28.348 4.59049 27.396C3.65715 26.444 2.92915 25.3333 2.40649 24.064C1.88382 22.7947 1.62249 21.432 1.62249 19.976C1.62249 18.52 1.88382 17.1573 2.40649 15.888C2.92915 14.6187 3.65715 13.508 4.59049 12.556C5.52382 11.604 6.61582 10.8573 7.86649 10.316C9.13582 9.77467 10.5172 9.504 12.0105 9.504C13.4852 9.504 14.8478 9.77467 16.0985 10.316C17.3678 10.8573 18.4692 11.604 19.4025 12.556C20.3545 13.508 21.0825 14.6187 21.5865 15.888C22.1092 17.1573 22.3705 18.52 22.3705 19.976C22.3705 21.432 22.1092 22.7947 21.5865 24.064C21.0825 25.3333 20.3545 26.444 19.4025 27.396C18.4692 28.348 17.3678 29.0947 16.0985 29.636C14.8478 30.1773 13.4852 30.448 12.0105 30.448ZM12.0105 27.536C13.3545 27.536 14.5772 27.2187 15.6785 26.584C16.7798 25.9493 17.6572 25.0627 18.3105 23.924C18.9638 22.7853 19.2905 21.4693 19.2905 19.976C19.2905 18.4827 18.9638 17.1667 18.3105 16.028C17.6572 14.8893 16.7798 14.0027 15.6785 13.368C14.5772 12.7333 13.3545 12.416 12.0105 12.416C10.6665 12.416 9.44382 12.7333 8.34249 13.368C7.24115 14.0027 6.36382 14.8893 5.71049 16.028C5.05715 17.1667 4.73049 18.4827 4.73049 19.976C4.73049 21.4693 5.05715 22.7853 5.71049 23.924C6.36382 25.0627 7.24115 25.9493 8.34249 26.584C9.44382 27.2187 10.6665 27.536 12.0105 27.536ZM24.1834 30L30.1194 16.616L29.0834 14.404C28.7474 13.676 28.4207 13.1907 28.1034 12.948C27.786 12.6867 27.3847 12.556 26.8994 12.556C26.4514 12.556 26.022 12.6773 25.6114 12.92V9.98C25.8727 9.90533 26.1527 9.84933 26.4514 9.812C26.75 9.756 27.0954 9.728 27.4874 9.728C28.2527 9.728 28.878 9.84 29.3634 10.064C29.8674 10.288 30.2967 10.6707 30.6514 11.212C31.0247 11.7347 31.398 12.4347 31.7714 13.312L39.0234 30H35.7194L31.7714 20.256H31.6314L27.5434 30H24.1834ZM48.0285 30.448C46.5539 30.448 45.2565 30.112 44.1365 29.44C43.0165 28.768 42.1392 27.8627 41.5045 26.724C40.8699 25.5853 40.5525 24.2973 40.5525 22.86C40.5525 21.4413 40.8699 20.1627 41.5045 19.024C42.1392 17.8667 43.0165 16.952 44.1365 16.28C45.2565 15.608 46.5539 15.272 48.0285 15.272C49.4845 15.272 50.7725 15.608 51.8925 16.28C53.0125 16.952 53.8899 17.8667 54.5245 19.024C55.1592 20.1627 55.4765 21.4413 55.4765 22.86C55.4765 24.2973 55.1592 25.5853 54.5245 26.724C53.8899 27.8627 53.0125 28.768 51.8925 29.44C50.7725 30.112 49.4845 30.448 48.0285 30.448ZM48.0285 27.676C48.8125 27.676 49.5405 27.4893 50.2125 27.116C50.8845 26.724 51.4259 26.1733 51.8365 25.464C52.2659 24.736 52.4805 23.868 52.4805 22.86C52.4805 21.852 52.2659 20.9933 51.8365 20.284C51.4259 19.556 50.8845 19.0053 50.2125 18.632C49.5405 18.24 48.8125 18.044 48.0285 18.044C47.2445 18.044 46.5072 18.24 45.8165 18.632C45.1445 19.0053 44.5939 19.556 44.1645 20.284C43.7539 20.9933 43.5485 21.852 43.5485 22.86C43.5485 23.868 43.7539 24.736 44.1645 25.464C44.5939 26.1733 45.1445 26.724 45.8165 27.116C46.5072 27.4893 47.2445 27.676 48.0285 27.676ZM58.5616 30V15.72H61.5856V21.796L67.6336 15.72H71.3856V15.888L65.8696 21.348L71.5816 29.832V30H67.9976L63.7696 23.448L61.5856 25.576V30H58.5616ZM72.224 30L78.16 16.616L77.124 14.404C76.788 13.676 76.4613 13.1907 76.144 12.948C75.8267 12.6867 75.4253 12.556 74.94 12.556C74.492 12.556 74.0627 12.6773 73.652 12.92V9.98C73.9133 9.90533 74.1933 9.84933 74.492 9.812C74.7907 9.756 75.136 9.728 75.528 9.728C76.2933 9.728 76.9187 9.84 77.404 10.064C77.908 10.288 78.3373 10.6707 78.692 11.212C79.0653 11.7347 79.4387 12.4347 79.812 13.312L87.064 30H83.76L79.812 20.256H79.672L75.584 30H72.224ZM89.3491 30V15.72H92.2051V17.68H92.3731C92.7838 16.9893 93.3905 16.42 94.1931 15.972C95.0145 15.5053 95.9105 15.272 96.8811 15.272C98.6358 15.272 99.9518 15.7947 100.829 16.84C101.706 17.8853 102.145 19.2667 102.145 20.984V36.048H99.1491V21.376C99.1491 20.2187 98.8598 19.3787 98.2811 18.856C97.7025 18.3147 96.9465 18.044 96.0131 18.044C95.2851 18.044 94.6505 18.2493 94.1091 18.66C93.5678 19.052 93.1385 19.5747 92.8211 20.228C92.5225 20.8813 92.3731 21.5813 92.3731 22.328V30H89.3491ZM94.0811 12.976L95.1171 8.608H98.7011L96.6291 12.976H94.0811ZM105.779 36.048V23.084C105.779 21.4973 106.087 20.1253 106.703 18.968C107.338 17.792 108.197 16.8867 109.279 16.252C110.381 15.5987 111.622 15.272 113.003 15.272C114.571 15.272 115.887 15.6267 116.951 16.336C118.034 17.0267 118.855 17.96 119.415 19.136C119.975 20.2933 120.255 21.544 120.255 22.888C120.255 24.3627 119.947 25.6693 119.331 26.808C118.734 27.9467 117.922 28.8427 116.895 29.496C115.869 30.1307 114.73 30.448 113.479 30.448C112.359 30.448 111.398 30.2147 110.595 29.748C109.811 29.2813 109.214 28.7307 108.803 28.096H108.635L108.803 30.056V36.048H105.779ZM112.919 27.676C113.685 27.676 114.394 27.48 115.047 27.088C115.701 26.6773 116.233 26.1173 116.643 25.408C117.054 24.6987 117.259 23.868 117.259 22.916C117.259 21.8893 117.045 21.012 116.615 20.284C116.205 19.556 115.673 19.0053 115.019 18.632C114.366 18.24 113.666 18.044 112.919 18.044C112.229 18.044 111.557 18.2307 110.903 18.604C110.25 18.9773 109.709 19.528 109.279 20.256C108.85 20.984 108.635 21.8893 108.635 22.972C108.635 23.868 108.831 24.68 109.223 25.408C109.615 26.1173 110.138 26.6773 110.791 27.088C111.445 27.48 112.154 27.676 112.919 27.676ZM128.544 30.448C127.536 30.448 126.603 30.2147 125.744 29.748C124.885 29.2627 124.185 28.5067 123.644 27.48C123.121 26.4533 122.86 25.128 122.86 23.504C122.86 22.5147 122.963 21.5347 123.168 20.564C123.392 19.5747 123.709 18.66 124.12 17.82C124.531 16.9613 125.007 16.2613 125.548 15.72H128.74C127.844 16.7653 127.144 17.9693 126.64 19.332C126.136 20.6947 125.884 22.0853 125.884 23.504C125.884 24.8853 126.136 25.94 126.64 26.668C127.163 27.3773 127.863 27.732 128.74 27.732C129.524 27.732 130.205 27.452 130.784 26.892C131.381 26.332 131.68 25.4453 131.68 24.232V19.36H134.704V24.232C134.704 25.4453 134.993 26.332 135.572 26.892C136.169 27.452 136.86 27.732 137.644 27.732C138.465 27.732 139.147 27.3773 139.688 26.668C140.248 25.94 140.528 24.8853 140.528 23.504C140.528 22.0853 140.267 20.6947 139.744 19.332C139.24 17.9693 138.531 16.7653 137.616 15.72H140.836C141.377 16.2613 141.853 16.9613 142.264 17.82C142.675 18.66 142.983 19.5747 143.188 20.564C143.412 21.5347 143.524 22.5147 143.524 23.504C143.524 25.0347 143.253 26.3227 142.712 27.368C142.189 28.3947 141.489 29.1693 140.612 29.692C139.753 30.196 138.82 30.448 137.812 30.448C136.879 30.448 135.992 30.2053 135.152 29.72C134.331 29.2347 133.687 28.46 133.22 27.396C132.772 28.46 132.119 29.2347 131.26 29.72C130.401 30.2053 129.496 30.448 128.544 30.448ZM153.402 30.448C151.965 30.448 150.695 30.1307 149.594 29.496C148.493 28.8427 147.634 27.9653 147.018 26.864C146.421 25.744 146.122 24.484 146.122 23.084C146.122 21.6653 146.43 20.4053 147.046 19.304C147.662 18.2027 148.539 17.3347 149.678 16.7C150.835 16.0467 152.198 15.72 153.766 15.72H162.474V18.352H160.822L158.61 18.156V18.324C159.263 18.828 159.786 19.472 160.178 20.256C160.57 21.04 160.766 21.9547 160.766 23C160.766 24.4 160.458 25.66 159.842 26.78C159.226 27.9 158.358 28.796 157.238 29.468C156.137 30.1213 154.858 30.448 153.402 30.448ZM153.43 27.676C154.195 27.676 154.905 27.4987 155.558 27.144C156.211 26.7707 156.743 26.2387 157.154 25.548C157.565 24.8573 157.77 24.0267 157.77 23.056C157.77 22.048 157.565 21.1987 157.154 20.508C156.743 19.7987 156.211 19.2573 155.558 18.884C154.905 18.5107 154.195 18.324 153.43 18.324C152.683 18.324 151.974 18.5107 151.302 18.884C150.649 19.2573 150.117 19.7987 149.706 20.508C149.314 21.1987 149.118 22.048 149.118 23.056C149.118 24.0267 149.314 24.8573 149.706 25.548C150.117 26.2387 150.649 26.7707 151.302 27.144C151.974 27.4987 152.683 27.676 153.43 27.676ZM165.362 30V15.72H168.218V17.68H168.386C168.796 16.9893 169.403 16.42 170.206 15.972C171.027 15.5053 171.923 15.272 172.894 15.272C174.648 15.272 175.964 15.7947 176.842 16.84C177.719 17.8853 178.158 19.2667 178.158 20.984V36.048H175.162V21.376C175.162 20.2187 174.872 19.3787 174.294 18.856C173.715 18.3147 172.959 18.044 172.026 18.044C171.298 18.044 170.663 18.2493 170.122 18.66C169.58 19.052 169.151 19.5747 168.834 20.228C168.535 20.8813 168.386 21.5813 168.386 22.328V30H165.362ZM194.731 30.448C193.518 30.448 192.398 30.1307 191.371 29.496C190.344 28.8427 189.523 27.956 188.907 26.836C188.291 25.6973 187.983 24.3813 187.983 22.888C187.983 21.376 188.291 20.0507 188.907 18.912C189.542 17.7547 190.372 16.8587 191.399 16.224C192.444 15.5893 193.583 15.272 194.815 15.272C195.86 15.272 196.784 15.5053 197.587 15.972C198.408 16.42 199.024 16.98 199.435 17.652H199.603V15.72H202.431V25.24C202.431 25.9493 202.552 26.4907 202.795 26.864C203.038 27.2187 203.458 27.396 204.055 27.396C204.298 27.396 204.522 27.368 204.727 27.312C204.932 27.2373 205.138 27.144 205.343 27.032V29.972C204.783 30.14 204.195 30.224 203.579 30.224C202.515 30.224 201.684 30.0093 201.087 29.58C200.49 29.1507 200.079 28.516 199.855 27.676H199.687C198.604 29.524 196.952 30.448 194.731 30.448ZM195.291 27.676C196.038 27.676 196.738 27.48 197.391 27.088C198.063 26.696 198.595 26.1453 198.987 25.436C199.398 24.708 199.603 23.8493 199.603 22.86C199.603 21.8707 199.398 21.0213 198.987 20.312C198.595 19.584 198.063 19.024 197.391 18.632C196.738 18.24 196.038 18.044 195.291 18.044C194.544 18.044 193.844 18.24 193.191 18.632C192.538 19.024 192.006 19.584 191.595 20.312C191.184 21.0213 190.979 21.8707 190.979 22.86C190.979 23.8493 191.184 24.708 191.595 25.436C192.006 26.1453 192.538 26.696 193.191 27.088C193.844 27.48 194.544 27.676 195.291 27.676ZM212.547 36.048V30L206.639 15.72H209.999L214.003 26.136H214.143L218.231 15.72H221.535L215.571 30V36.048H212.547ZM230.512 30.448C229.037 30.448 227.74 30.112 226.62 29.44C225.5 28.768 224.623 27.8627 223.988 26.724C223.353 25.5853 223.036 24.2973 223.036 22.86C223.036 21.4413 223.353 20.1627 223.988 19.024C224.623 17.8667 225.5 16.952 226.62 16.28C227.74 15.608 229.037 15.272 230.512 15.272C231.968 15.272 233.256 15.608 234.376 16.28C235.496 16.952 236.373 17.8667 237.008 19.024C237.643 20.1627 237.96 21.4413 237.96 22.86C237.96 24.2973 237.643 25.5853 237.008 26.724C236.373 27.8627 235.496 28.768 234.376 29.44C233.256 30.112 231.968 30.448 230.512 30.448ZM230.512 27.676C231.296 27.676 232.024 27.4893 232.696 27.116C233.368 26.724 233.909 26.1733 234.32 25.464C234.749 24.736 234.964 23.868 234.964 22.86C234.964 21.852 234.749 20.9933 234.32 20.284C233.909 19.556 233.368 19.0053 232.696 18.632C232.024 18.24 231.296 18.044 230.512 18.044C229.728 18.044 228.991 18.24 228.3 18.632C227.628 19.0053 227.077 19.556 226.648 20.284C226.237 20.9933 226.032 21.852 226.032 22.86C226.032 23.868 226.237 24.736 226.648 25.464C227.077 26.1733 227.628 26.724 228.3 27.116C228.991 27.4893 229.728 27.676 230.512 27.676ZM240.933 36.048V23.084C240.933 21.4973 241.241 20.1253 241.857 18.968C242.492 17.792 243.351 16.8867 244.433 16.252C245.535 15.5987 246.776 15.272 248.157 15.272C249.725 15.272 251.041 15.6267 252.105 16.336C253.188 17.0267 254.009 17.96 254.569 19.136C255.129 20.2933 255.409 21.544 255.409 22.888C255.409 24.3627 255.101 25.6693 254.485 26.808C253.888 27.9467 253.076 28.8427 252.049 29.496C251.023 30.1307 249.884 30.448 248.633 30.448C247.513 30.448 246.552 30.2147 245.749 29.748C244.965 29.2813 244.368 28.7307 243.957 28.096H243.789L243.957 30.056V36.048H240.933ZM248.073 27.676C248.839 27.676 249.548 27.48 250.201 27.088C250.855 26.6773 251.387 26.1173 251.797 25.408C252.208 24.6987 252.413 23.868 252.413 22.916C252.413 21.8893 252.199 21.012 251.769 20.284C251.359 19.556 250.827 19.0053 250.173 18.632C249.52 18.24 248.82 18.044 248.073 18.044C247.383 18.044 246.711 18.2307 246.057 18.604C245.404 18.9773 244.863 19.528 244.433 20.256C244.004 20.984 243.789 21.8893 243.789 22.972C243.789 23.868 243.985 24.68 244.377 25.408C244.769 26.1173 245.292 26.6773 245.945 27.088C246.599 27.48 247.308 27.676 248.073 27.676ZM264.482 30.448C263.268 30.448 262.148 30.1307 261.122 29.496C260.095 28.8427 259.274 27.956 258.658 26.836C258.042 25.6973 257.734 24.3813 257.734 22.888C257.734 21.376 258.042 20.0507 258.658 18.912C259.292 17.7547 260.123 16.8587 261.15 16.224C262.195 15.5893 263.334 15.272 264.566 15.272C265.611 15.272 266.535 15.5053 267.338 15.972C268.159 16.42 268.775 16.98 269.186 17.652H269.354V15.72H272.182V25.24C272.182 25.9493 272.303 26.4907 272.546 26.864C272.788 27.2187 273.208 27.396 273.806 27.396C274.048 27.396 274.272 27.368 274.478 27.312C274.683 27.2373 274.888 27.144 275.094 27.032V29.972C274.534 30.14 273.946 30.224 273.33 30.224C272.266 30.224 271.435 30.0093 270.838 29.58C270.24 29.1507 269.83 28.516 269.606 27.676H269.438C268.355 29.524 266.703 30.448 264.482 30.448ZM265.042 27.676C265.788 27.676 266.488 27.48 267.142 27.088C267.814 26.696 268.346 26.1453 268.738 25.436C269.148 24.708 269.354 23.8493 269.354 22.86C269.354 21.8707 269.148 21.0213 268.738 20.312C268.346 19.584 267.814 19.024 267.142 18.632C266.488 18.24 265.788 18.044 265.042 18.044C264.295 18.044 263.595 18.24 262.942 18.632C262.288 19.024 261.756 19.584 261.346 20.312C260.935 21.0213 260.73 21.8707 260.73 22.86C260.73 23.8493 260.935 24.708 261.346 25.436C261.756 26.1453 262.288 26.696 262.942 27.088C263.595 27.48 264.295 27.676 265.042 27.676ZM263.362 12.976L264.398 8.608H267.982L265.91 12.976H263.362ZM285.406 35.068V32.548C285.854 32.548 286.18 32.436 286.386 32.212C286.61 32.0067 286.722 31.7547 286.722 31.456C286.722 31.1387 286.61 30.8773 286.386 30.672C286.18 30.4853 285.854 30.3827 285.406 30.364L284.594 30.336C282.204 30.28 280.375 29.5893 279.106 28.264C277.836 26.9387 277.202 25.1747 277.202 22.972C277.202 21.572 277.491 20.2933 278.07 19.136C278.667 17.96 279.516 17.0267 280.618 16.336C281.738 15.6267 283.072 15.272 284.622 15.272C286.264 15.272 287.618 15.6547 288.682 16.42C289.746 17.1667 290.492 18.1 290.922 19.22L288.178 20.34C287.86 19.5933 287.384 19.024 286.75 18.632C286.115 18.24 285.368 18.044 284.51 18.044C283.782 18.044 283.082 18.2307 282.41 18.604C281.756 18.9773 281.224 19.528 280.814 20.256C280.403 20.9653 280.198 21.8333 280.198 22.86C280.198 24.2973 280.571 25.4453 281.318 26.304C282.083 27.144 283.166 27.5827 284.566 27.62L285.266 27.648C286.684 27.704 287.748 28.0493 288.458 28.684C289.186 29.3187 289.55 30.196 289.55 31.316C289.55 32.5107 289.158 33.4347 288.374 34.088C287.59 34.7413 286.6 35.068 285.406 35.068ZM300.539 36.048V15.72H303.563V24.26C303.563 25.4733 303.834 26.3507 304.375 26.892C304.935 27.4147 305.607 27.676 306.391 27.676C307.194 27.676 307.885 27.4613 308.463 27.032C309.061 26.6027 309.518 26.052 309.835 25.38C310.171 24.6893 310.339 23.9707 310.339 23.224V15.72H313.335V25.296C313.335 26.0053 313.457 26.5373 313.699 26.892C313.961 27.228 314.381 27.396 314.959 27.396C315.202 27.396 315.426 27.368 315.631 27.312C315.837 27.2373 316.042 27.144 316.247 27.032V29.972C315.986 30.0467 315.715 30.1027 315.435 30.14C315.174 30.196 314.866 30.224 314.511 30.224C313.373 30.224 312.514 30 311.935 29.552C311.357 29.0853 310.955 28.46 310.731 27.676H310.563C310.171 28.4227 309.639 29.076 308.967 29.636C308.295 30.1773 307.437 30.448 306.391 30.448C305.813 30.448 305.262 30.3267 304.739 30.084C304.217 29.8413 303.825 29.524 303.563 29.132H303.395L303.563 30.728V36.048H300.539ZM324.819 30.448C322.803 30.448 321.272 30.056 320.227 29.272C319.182 28.488 318.659 27.5173 318.659 26.36C318.659 25.408 318.911 24.6427 319.415 24.064C319.938 23.4667 320.666 23.084 321.599 22.916V22.804C320.684 22.58 320.003 22.1693 319.555 21.572C319.126 20.9747 318.911 20.3027 318.911 19.556C318.911 18.212 319.452 17.1667 320.535 16.42C321.636 15.6547 323.214 15.272 325.267 15.272C326.63 15.272 327.824 15.4493 328.851 15.804C329.878 16.1587 330.699 16.7187 331.315 17.484L329.467 19.416C329.019 18.9493 328.44 18.576 327.731 18.296C327.04 18.016 326.172 17.876 325.127 17.876C323.876 17.876 323.008 18.072 322.523 18.464C322.056 18.856 321.823 19.3133 321.823 19.836C321.823 20.4147 322.084 20.844 322.607 21.124C323.13 21.3853 323.848 21.516 324.763 21.516H327.619V24.148H324.595C323.531 24.148 322.775 24.3067 322.327 24.624C321.879 24.9413 321.655 25.38 321.655 25.94C321.655 26.5 321.916 26.948 322.439 27.284C322.98 27.62 323.783 27.788 324.847 27.788C325.911 27.788 326.863 27.6107 327.703 27.256C328.543 26.9013 329.196 26.4627 329.663 25.94L331.427 27.76C330.96 28.4133 330.186 29.0293 329.103 29.608C328.02 30.168 326.592 30.448 324.819 30.448Z" fill="white"/>
<g id="GPay Logo (Dark)">
<g id="GPay">
<g id="Pay">
<path id="Fill 1" fill-rule="evenodd" clip-rule="evenodd" d="M382.529 9.34665V17.5128H387.565C388.765 17.5128 389.757 17.1096 390.541 16.3032C391.347 15.4988 391.75 14.5394 391.75 13.4288C391.75 12.3406 391.347 11.3924 390.541 10.586C389.757 9.75916 388.765 9.34479 387.565 9.34479H382.529V9.34665ZM382.529 20.3872V29.8599H379.521V6.47218H387.499C389.527 6.47218 391.248 7.14787 392.666 8.49738C394.105 9.84688 394.824 11.4913 394.824 13.4288C394.824 15.411 394.105 17.0667 392.666 18.3938C391.27 19.7227 389.547 20.3854 387.499 20.3854H382.529V20.3872Z" fill="white"/>
<path id="Fill 3" fill-rule="evenodd" clip-rule="evenodd" d="M397.864 24.9602C397.864 25.7442 398.197 26.3975 398.862 26.9201C399.527 27.4427 400.306 27.704 401.2 27.704C402.465 27.704 403.591 27.2354 404.584 26.3004C405.576 25.3634 406.071 24.264 406.071 23.0022C405.133 22.2612 403.825 21.8916 402.147 21.8916C400.925 21.8916 399.907 22.1866 399.09 22.7745C398.273 23.3623 397.864 24.0886 397.864 24.9602ZM401.756 13.3317C403.98 13.3317 405.735 13.9253 407.022 15.1124C408.308 16.2995 408.95 17.9271 408.95 19.9952V29.8599H406.073V27.6387H405.942C404.699 29.4677 403.042 30.3825 400.972 30.3825C399.206 30.3825 397.728 29.8599 396.541 28.8146C395.353 27.7694 394.759 26.4628 394.759 24.8949C394.759 23.2393 395.385 21.9232 396.638 20.9434C397.892 19.9635 399.565 19.4726 401.658 19.4726C403.444 19.4726 404.916 19.7993 406.071 20.4525V19.7657C406.071 18.7204 405.656 17.8338 404.829 17.104C403.999 16.3742 403.031 16.0102 401.919 16.0102C400.239 16.0102 398.911 16.7176 397.93 18.1343L395.28 16.4675C396.741 14.377 398.899 13.3317 401.756 13.3317Z" fill="white"/>
<path id="Fill 5" fill-rule="evenodd" clip-rule="evenodd" d="M425.463 13.8543L415.424 36.9154H412.318L416.046 28.8464L409.44 13.8543H412.71L417.484 25.3522H417.55L422.193 13.8543H425.463Z" fill="white"/>
</g>
<g id="G">
<path id="Fill 8" fill-rule="evenodd" clip-rule="evenodd" d="M370.373 18.3452C370.373 17.3989 370.293 16.4861 370.141 15.6126H357.454V20.7885H364.72C364.408 22.4757 363.465 23.9112 362.033 24.8725V28.2341H366.37C368.91 25.8935 370.373 22.4348 370.373 18.3452Z" fill="#4285F4"/>
<path id="Fill 10" fill-rule="evenodd" clip-rule="evenodd" d="M357.454 31.4782C361.084 31.4782 364.141 30.2873 366.37 28.2341L362.033 24.8725C360.826 25.6844 359.272 26.1585 357.454 26.1585C353.944 26.1585 350.966 23.7955 349.901 20.6112H345.433V24.0736C347.647 28.4637 352.197 31.4782 357.454 31.4782Z" fill="#34A853"/>
<path id="Fill 12" fill-rule="evenodd" clip-rule="evenodd" d="M349.901 20.6111C349.628 19.7992 349.479 18.9331 349.479 18.0391C349.479 17.145 349.628 16.2789 349.901 15.467V12.0045H345.433C344.518 13.8188 344 15.8683 344 18.0391C344 20.2098 344.518 22.2595 345.433 24.0736L349.901 20.6111Z" fill="#FABB05"/>
<path id="Fill 14" fill-rule="evenodd" clip-rule="evenodd" d="M357.454 9.91964C359.436 9.91964 361.213 10.6009 362.615 11.9355V11.9374L366.455 8.10163C364.123 5.93272 361.082 4.60001 357.454 4.60001C352.197 4.60001 347.647 7.61447 345.433 12.0046L349.901 15.467C350.966 12.2827 353.944 9.91964 357.454 9.91964Z" fill="#E94235"/>
</g>
</g>
</g>
</g>
</svg>
