<svg width="230" height="38" viewBox="0 0 230 38" fill="none" xmlns="http://www.w3.org/2000/svg">
<g id="el_donate_with_Light">
<path id="Text" d="M2.18078 30V28.096L9.04078 9.952H12.5128L19.4008 28.124V30H2.18078ZM5.87678 27.144H15.7048L10.8608 13.564H10.6928L5.87678 27.144ZM27.6407 30.448C26.6327 30.448 25.6994 30.2147 24.8407 29.748C23.9821 29.2627 23.2821 28.5067 22.7407 27.48C22.2181 26.4533 21.9567 25.128 21.9567 23.504C21.9567 22.5147 22.0594 21.5347 22.2647 20.564C22.4887 19.5747 22.8061 18.66 23.2167 17.82C23.6274 16.9613 24.1034 16.2613 24.6447 15.72H27.8367C26.9407 16.7653 26.2407 17.9693 25.7367 19.332C25.2327 20.6947 24.9807 22.0853 24.9807 23.504C24.9807 24.8853 25.2327 25.94 25.7367 26.668C26.2594 27.3773 26.9594 27.732 27.8367 27.732C28.6207 27.732 29.3021 27.452 29.8807 26.892C30.4781 26.332 30.7767 25.4453 30.7767 24.232V19.36H33.8007V24.232C33.8007 25.4453 34.0901 26.332 34.6687 26.892C35.2661 27.452 35.9567 27.732 36.7407 27.732C37.5621 27.732 38.2434 27.3773 38.7847 26.668C39.3447 25.94 39.6247 24.8853 39.6247 23.504C39.6247 22.0853 39.3634 20.6947 38.8407 19.332C38.3367 17.9693 37.6274 16.7653 36.7127 15.72H39.9327C40.4741 16.2613 40.9501 16.9613 41.3607 17.82C41.7714 18.66 42.0794 19.5747 42.2847 20.564C42.5087 21.5347 42.6207 22.5147 42.6207 23.504C42.6207 25.0347 42.3501 26.3227 41.8087 27.368C41.2861 28.3947 40.5861 29.1693 39.7087 29.692C38.8501 30.196 37.9167 30.448 36.9087 30.448C35.9754 30.448 35.0887 30.2053 34.2487 29.72C33.4274 29.2347 32.7834 28.46 32.3167 27.396C31.8687 28.46 31.2154 29.2347 30.3567 29.72C29.4981 30.2053 28.5927 30.448 27.6407 30.448ZM45.8629 36.048V23.084C45.8629 21.4973 46.1709 20.1253 46.7869 18.968C47.4216 17.792 48.2803 16.8867 49.3629 16.252C50.4643 15.5987 51.7056 15.272 53.0869 15.272C54.6549 15.272 55.9709 15.6267 57.0349 16.336C58.1176 17.0267 58.9389 17.96 59.4989 19.136C60.0589 20.2933 60.3389 21.544 60.3389 22.888C60.3389 24.3627 60.0309 25.6693 59.4149 26.808C58.8176 27.9467 58.0056 28.8427 56.9789 29.496C55.9523 30.1307 54.8136 30.448 53.5629 30.448C52.4429 30.448 51.4816 30.2147 50.6789 29.748C49.8949 29.2813 49.2976 28.7307 48.8869 28.096H48.7189L48.8869 30.056V36.048H45.8629ZM53.0029 27.676C53.7683 27.676 54.4776 27.48 55.1309 27.088C55.7843 26.6773 56.3163 26.1173 56.7269 25.408C57.1376 24.6987 57.3429 23.868 57.3429 22.916C57.3429 21.8893 57.1283 21.012 56.6989 20.284C56.2883 19.556 55.7563 19.0053 55.1029 18.632C54.4496 18.24 53.7496 18.044 53.0029 18.044C52.3123 18.044 51.6403 18.2307 50.9869 18.604C50.3336 18.9773 49.7923 19.528 49.3629 20.256C48.9336 20.984 48.7189 21.8893 48.7189 22.972C48.7189 23.868 48.9149 24.68 49.3069 25.408C49.6989 26.1173 50.2216 26.6773 50.8749 27.088C51.5283 27.48 52.2376 27.676 53.0029 27.676ZM69.1035 30.448C67.0875 30.448 65.5568 30.056 64.5115 29.272C63.4661 28.488 62.9435 27.5173 62.9435 26.36C62.9435 25.408 63.1955 24.6427 63.6995 24.064C64.2221 23.4667 64.9501 23.084 65.8835 22.916V22.804C64.9688 22.58 64.2875 22.1693 63.8395 21.572C63.4101 20.9747 63.1955 20.3027 63.1955 19.556C63.1955 18.212 63.7368 17.1667 64.8195 16.42C65.9208 15.6547 67.4981 15.272 69.5515 15.272C70.9141 15.272 72.1088 15.4493 73.1355 15.804C74.1621 16.1587 74.9835 16.7187 75.5995 17.484L73.7515 19.416C73.3035 18.9493 72.7248 18.576 72.0155 18.296C71.3248 18.016 70.4568 17.876 69.4115 17.876C68.1608 17.876 67.2928 18.072 66.8075 18.464C66.3408 18.856 66.1075 19.3133 66.1075 19.836C66.1075 20.4147 66.3688 20.844 66.8915 21.124C67.4141 21.3853 68.1328 21.516 69.0475 21.516H71.9035V24.148H68.8795C67.8155 24.148 67.0595 24.3067 66.6115 24.624C66.1635 24.9413 65.9395 25.38 65.9395 25.94C65.9395 26.5 66.2008 26.948 66.7235 27.284C67.2648 27.62 68.0675 27.788 69.1315 27.788C70.1955 27.788 71.1475 27.6107 71.9875 27.256C72.8275 26.9013 73.4808 26.4627 73.9475 25.94L75.7115 27.76C75.2448 28.4133 74.4701 29.0293 73.3875 29.608C72.3048 30.168 70.8768 30.448 69.1035 30.448ZM84.3404 30.448C83.127 30.448 82.007 30.1307 80.9804 29.496C79.9537 28.8427 79.1324 27.956 78.5164 26.836C77.9004 25.6973 77.5924 24.3813 77.5924 22.888C77.5924 21.376 77.9004 20.0507 78.5164 18.912C79.151 17.7547 79.9817 16.8587 81.0084 16.224C82.0537 15.5893 83.1924 15.272 84.4244 15.272C85.4697 15.272 86.3937 15.5053 87.1964 15.972C88.0177 16.42 88.6337 16.98 89.0444 17.652H89.2124V15.72H92.0404V25.24C92.0404 25.9493 92.1617 26.4907 92.4044 26.864C92.647 27.2187 93.067 27.396 93.6644 27.396C93.907 27.396 94.131 27.368 94.3364 27.312C94.5417 27.2373 94.747 27.144 94.9524 27.032V29.972C94.3924 30.14 93.8044 30.224 93.1884 30.224C92.1244 30.224 91.2937 30.0093 90.6964 29.58C90.099 29.1507 89.6884 28.516 89.4644 27.676H89.2964C88.2137 29.524 86.5617 30.448 84.3404 30.448ZM84.9004 27.676C85.647 27.676 86.347 27.48 87.0004 27.088C87.6724 26.696 88.2044 26.1453 88.5964 25.436C89.007 24.708 89.2124 23.8493 89.2124 22.86C89.2124 21.8707 89.007 21.0213 88.5964 20.312C88.2044 19.584 87.6724 19.024 87.0004 18.632C86.347 18.24 85.647 18.044 84.9004 18.044C84.1537 18.044 83.4537 18.24 82.8004 18.632C82.147 19.024 81.615 19.584 81.2044 20.312C80.7937 21.0213 80.5884 21.8707 80.5884 22.86C80.5884 23.8493 80.7937 24.708 81.2044 25.436C81.615 26.1453 82.147 26.696 82.8004 27.088C83.4537 27.48 84.1537 27.676 84.9004 27.676ZM83.2204 12.976L84.2564 8.608H87.8404L85.7684 12.976H83.2204ZM104.539 36.048V15.72H107.563V24.26C107.563 25.4733 107.834 26.3507 108.375 26.892C108.935 27.4147 109.607 27.676 110.391 27.676C111.194 27.676 111.885 27.4613 112.463 27.032C113.061 26.6027 113.518 26.052 113.835 25.38C114.171 24.6893 114.339 23.9707 114.339 23.224V15.72H117.335V25.296C117.335 26.0053 117.457 26.5373 117.699 26.892C117.961 27.228 118.381 27.396 118.959 27.396C119.202 27.396 119.426 27.368 119.631 27.312C119.837 27.2373 120.042 27.144 120.247 27.032V29.972C119.986 30.0467 119.715 30.1027 119.435 30.14C119.174 30.196 118.866 30.224 118.511 30.224C117.373 30.224 116.514 30 115.935 29.552C115.357 29.0853 114.955 28.46 114.731 27.676H114.563C114.171 28.4227 113.639 29.076 112.967 29.636C112.295 30.1773 111.437 30.448 110.391 30.448C109.813 30.448 109.262 30.3267 108.739 30.084C108.217 29.8413 107.825 29.524 107.563 29.132H107.395L107.563 30.728V36.048H104.539ZM128.819 30.448C126.803 30.448 125.272 30.056 124.227 29.272C123.182 28.488 122.659 27.5173 122.659 26.36C122.659 25.408 122.911 24.6427 123.415 24.064C123.938 23.4667 124.666 23.084 125.599 22.916V22.804C124.684 22.58 124.003 22.1693 123.555 21.572C123.126 20.9747 122.911 20.3027 122.911 19.556C122.911 18.212 123.452 17.1667 124.535 16.42C125.636 15.6547 127.214 15.272 129.267 15.272C130.63 15.272 131.824 15.4493 132.851 15.804C133.878 16.1587 134.699 16.7187 135.315 17.484L133.467 19.416C133.019 18.9493 132.44 18.576 131.731 18.296C131.04 18.016 130.172 17.876 129.127 17.876C127.876 17.876 127.008 18.072 126.523 18.464C126.056 18.856 125.823 19.3133 125.823 19.836C125.823 20.4147 126.084 20.844 126.607 21.124C127.13 21.3853 127.848 21.516 128.763 21.516H131.619V24.148H128.595C127.531 24.148 126.775 24.3067 126.327 24.624C125.879 24.9413 125.655 25.38 125.655 25.94C125.655 26.5 125.916 26.948 126.439 27.284C126.98 27.62 127.783 27.788 128.847 27.788C129.911 27.788 130.863 27.6107 131.703 27.256C132.543 26.9013 133.196 26.4627 133.663 25.94L135.427 27.76C134.96 28.4133 134.186 29.0293 133.103 29.608C132.02 30.168 130.592 30.448 128.819 30.448Z" fill="#3C4043"/>
<g id="GPay Logo (Light)">
<g id="GPay">
<g id="Pay">
<path id="Fill 1" fill-rule="evenodd" clip-rule="evenodd" d="M186.529 9.44664V17.6128H191.565C192.765 17.6128 193.757 17.2096 194.541 16.4032C195.347 15.5988 195.75 14.6394 195.75 13.5288C195.75 12.4406 195.347 11.4924 194.541 10.686C193.757 9.85915 192.765 9.44478 191.565 9.44478H186.529V9.44664ZM186.529 20.4872V29.9599H183.521V6.57217H191.499C193.527 6.57217 195.248 7.24786 196.666 8.59737C198.105 9.94688 198.824 11.5913 198.824 13.5288C198.824 15.511 198.105 17.1667 196.666 18.4938C195.27 19.8227 193.547 20.4854 191.499 20.4854H186.529V20.4872Z" fill="#5F6368"/>
<path id="Fill 3" fill-rule="evenodd" clip-rule="evenodd" d="M201.864 25.0602C201.864 25.8442 202.197 26.4975 202.862 27.0201C203.527 27.5427 204.306 27.804 205.2 27.804C206.465 27.804 207.591 27.3354 208.584 26.4004C209.576 25.4634 210.071 24.364 210.071 23.1022C209.133 22.3612 207.825 21.9916 206.147 21.9916C204.925 21.9916 203.907 22.2865 203.09 22.8745C202.273 23.4623 201.864 24.1886 201.864 25.0602ZM205.756 13.4317C207.98 13.4317 209.735 14.0252 211.022 15.2124C212.308 16.3995 212.95 18.0271 212.95 20.0952V29.9599H210.073V27.7387H209.942C208.699 29.5677 207.042 30.4825 204.972 30.4825C203.206 30.4825 201.728 29.9599 200.541 28.9146C199.353 27.8694 198.759 26.5628 198.759 24.9949C198.759 23.3393 199.385 22.0232 200.638 21.0434C201.892 20.0635 203.565 19.5726 205.658 19.5726C207.444 19.5726 208.916 19.8992 210.071 20.5525V19.8656C210.071 18.8204 209.656 17.9338 208.829 17.204C207.999 16.4741 207.031 16.1102 205.919 16.1102C204.239 16.1102 202.911 16.8176 201.93 18.2343L199.28 16.5675C200.741 14.4769 202.899 13.4317 205.756 13.4317Z" fill="#5F6368"/>
<path id="Fill 5" fill-rule="evenodd" clip-rule="evenodd" d="M229.463 13.9543L219.424 37.0154H216.318L220.046 28.9464L213.44 13.9543H216.71L221.484 25.4522H221.55L226.193 13.9543H229.463Z" fill="#5F6368"/>
</g>
<g id="G">
<path id="Fill 8" fill-rule="evenodd" clip-rule="evenodd" d="M174.373 18.4452C174.373 17.4989 174.293 16.5861 174.141 15.7126H161.454V20.8885H168.72C168.408 22.5757 167.465 24.0112 166.033 24.9725V28.3341H170.37C172.91 25.9935 174.373 22.5348 174.373 18.4452Z" fill="#4285F4"/>
<path id="Fill 10" fill-rule="evenodd" clip-rule="evenodd" d="M161.454 31.5782C165.084 31.5782 168.141 30.3873 170.37 28.3341L166.033 24.9725C164.826 25.7844 163.272 26.2585 161.454 26.2585C157.944 26.2585 154.966 23.8955 153.901 20.7112H149.433V24.1736C151.647 28.5637 156.197 31.5782 161.454 31.5782Z" fill="#34A853"/>
<path id="Fill 12" fill-rule="evenodd" clip-rule="evenodd" d="M153.901 20.7111C153.628 19.8992 153.479 19.0331 153.479 18.139C153.479 17.245 153.628 16.3789 153.901 15.567V12.1045H149.433C148.518 13.9188 148 15.9683 148 18.139C148 20.3098 148.518 22.3595 149.433 24.1736L153.901 20.7111Z" fill="#FABB05"/>
<path id="Fill 14" fill-rule="evenodd" clip-rule="evenodd" d="M161.454 10.0196C163.436 10.0196 165.213 10.7009 166.615 12.0355V12.0374L170.455 8.20162C168.123 6.03271 165.082 4.7 161.454 4.7C156.197 4.7 151.647 7.71446 149.433 12.1046L153.901 15.567C154.966 12.3827 157.944 10.0196 161.454 10.0196Z" fill="#E94235"/>
</g>
</g>
</g>
</g>
</svg>
