<svg width="131" height="21" viewBox="0 0 131 21" fill="none" xmlns="http://www.w3.org/2000/svg">
<g id="el_donate_with_Pay_NBG">
<path id="Left Text" d="M1.54125 15.0006V13.9126L5.46125 3.54461H7.44525L11.3812 13.9286V15.0006H1.54125ZM3.65325 13.3686H9.26925L6.50125 5.60861H6.40525L3.65325 13.3686ZM15.834 15.2566C15.2687 15.2566 14.7353 15.1179 14.234 14.8406C13.7327 14.5633 13.3327 14.1313 13.034 13.5446C12.7353 12.9579 12.586 12.2059 12.586 11.2886C12.586 10.7233 12.65 10.1579 12.778 9.59261C12.906 9.02728 13.082 8.50461 13.306 8.02461C13.5407 7.54461 13.8127 7.14994 14.122 6.84061H15.946C15.6047 7.24594 15.3113 7.68861 15.066 8.16861C14.8313 8.64861 14.6447 9.15528 14.506 9.68861C14.378 10.2113 14.314 10.7446 14.314 11.2886C14.314 12.0779 14.458 12.6806 14.746 13.0966C15.0447 13.5019 15.4447 13.7046 15.946 13.7046C16.2447 13.7046 16.522 13.6353 16.778 13.4966C17.034 13.3473 17.2367 13.1286 17.386 12.8406C17.546 12.5419 17.626 12.1633 17.626 11.7046V8.92061H19.354V11.7046C19.354 12.1633 19.4287 12.5419 19.578 12.8406C19.738 13.1286 19.946 13.3473 20.202 13.4966C20.458 13.6353 20.7353 13.7046 21.034 13.7046C21.5033 13.7046 21.8927 13.5019 22.202 13.0966C22.522 12.6806 22.682 12.0779 22.682 11.2886C22.682 10.7446 22.6127 10.2113 22.474 9.68861C22.346 9.15528 22.1593 8.64861 21.914 8.16861C21.6687 7.68861 21.37 7.24594 21.018 6.84061H22.858C23.178 7.14994 23.45 7.54461 23.674 8.02461C23.9087 8.50461 24.0847 9.02728 24.202 9.59261C24.33 10.1579 24.394 10.7233 24.394 11.2886C24.394 12.1633 24.2393 12.8993 23.93 13.4966C23.6313 14.0833 23.2367 14.5259 22.746 14.8246C22.2553 15.1126 21.7167 15.2566 21.13 15.2566C20.778 15.2566 20.4313 15.1926 20.09 15.0646C19.7593 14.9473 19.4553 14.7606 19.178 14.5046C18.9113 14.2486 18.6873 13.9179 18.506 13.5126C18.3353 13.9179 18.106 14.2486 17.818 14.5046C17.5407 14.7606 17.2313 14.9473 16.89 15.0646C16.5487 15.1926 16.1967 15.2566 15.834 15.2566ZM26.069 18.4566V11.0486C26.069 10.1419 26.245 9.35794 26.597 8.69661C26.9597 8.02461 27.4503 7.50728 28.069 7.14461C28.6983 6.77128 29.4077 6.58461 30.197 6.58461C30.869 6.58461 31.461 6.70194 31.973 6.93661C32.485 7.17128 32.917 7.49128 33.269 7.89661C33.621 8.30194 33.8877 8.76594 34.069 9.28861C34.2503 9.81128 34.341 10.3606 34.341 10.9366C34.341 11.7793 34.165 12.5259 33.813 13.1766C33.4717 13.8273 33.0077 14.3393 32.421 14.7126C31.8343 15.0753 31.1837 15.2566 30.469 15.2566C30.0423 15.2566 29.653 15.1926 29.301 15.0646C28.9597 14.9473 28.661 14.7873 28.405 14.5846C28.1597 14.3819 27.957 14.1579 27.797 13.9126H27.701L27.797 15.0326V18.4566H26.069ZM30.149 13.6726C30.5863 13.6726 30.9917 13.5606 31.365 13.3366C31.749 13.1019 32.053 12.7819 32.277 12.3766C32.5117 11.9713 32.629 11.4966 32.629 10.9526C32.629 10.3659 32.5117 9.86461 32.277 9.44861C32.0423 9.03261 31.733 8.71794 31.349 8.50461C30.9757 8.28061 30.5757 8.16861 30.149 8.16861C29.7543 8.16861 29.3703 8.27528 28.997 8.48861C28.6237 8.70194 28.3143 9.01661 28.069 9.43261C27.8237 9.84861 27.701 10.3659 27.701 10.9846C27.701 11.4966 27.813 11.9606 28.037 12.3766C28.261 12.7819 28.5597 13.1019 28.933 13.3366C29.3063 13.5606 29.7117 13.6726 30.149 13.6726ZM39.3279 15.2566C38.5599 15.2566 37.9145 15.1553 37.3919 14.9526C36.8692 14.7393 36.4745 14.4566 36.2079 14.1046C35.9412 13.7526 35.8079 13.3579 35.8079 12.9206C35.8079 12.3659 35.9519 11.9233 36.2399 11.5926C36.5385 11.2619 36.9545 11.0486 37.4879 10.9526V10.8886C37.1465 10.7926 36.8585 10.6593 36.6239 10.4886C36.3999 10.3073 36.2292 10.0939 36.1119 9.84861C36.0052 9.59261 35.9519 9.32061 35.9519 9.03261C35.9519 8.25394 36.2612 7.65128 36.8799 7.22461C37.5092 6.79794 38.4105 6.58461 39.5839 6.58461C40.1065 6.58461 40.5812 6.63261 41.0079 6.72861C41.4452 6.81394 41.8345 6.95261 42.1759 7.14461C42.5172 7.32594 42.8052 7.56061 43.0399 7.84861L41.9839 8.95261C41.7172 8.67528 41.3812 8.46194 40.9759 8.31261C40.5812 8.15261 40.0905 8.07261 39.5039 8.07261C39.0345 8.07261 38.6612 8.12594 38.3839 8.23261C38.1065 8.32861 37.9092 8.46194 37.7919 8.63261C37.6745 8.80328 37.6159 8.98994 37.6159 9.19261C37.6159 9.52328 37.7652 9.76861 38.0639 9.92861C38.3625 10.0779 38.7732 10.1526 39.2959 10.1526H40.9279V11.6566H39.1999C38.5919 11.6566 38.1599 11.7473 37.9039 11.9286C37.6479 12.0993 37.5199 12.3499 37.5199 12.6806C37.5199 12.9899 37.6692 13.2459 37.9679 13.4486C38.2772 13.6406 38.7359 13.7366 39.3439 13.7366C39.9519 13.7366 40.4959 13.6353 40.9759 13.4326C41.4559 13.2193 41.8292 12.9686 42.0959 12.6806L43.1039 13.7206C42.9225 13.9659 42.6665 14.2059 42.3359 14.4406C42.0052 14.6753 41.5892 14.8673 41.0879 15.0166C40.5865 15.1766 39.9999 15.2566 39.3279 15.2566ZM47.857 15.2566C47.3343 15.2566 46.8383 15.1553 46.369 14.9526C45.9103 14.7393 45.4997 14.4406 45.137 14.0566C44.785 13.6726 44.5077 13.2193 44.305 12.6966C44.1023 12.1633 44.001 11.5766 44.001 10.9366C44.001 10.0619 44.177 9.29928 44.529 8.64861C44.8917 7.99794 45.3663 7.49128 45.953 7.12861C46.5503 6.76594 47.201 6.58461 47.905 6.58461C48.3103 6.58461 48.6783 6.64328 49.009 6.76061C49.3503 6.87794 49.649 7.04328 49.905 7.25661C50.1717 7.45928 50.385 7.68861 50.545 7.94461H50.641V6.84061H52.257V12.2806C52.257 12.6966 52.3263 13.0059 52.465 13.2086C52.6037 13.4113 52.8437 13.5126 53.185 13.5126C53.3237 13.5126 53.4517 13.4966 53.569 13.4646C53.697 13.4219 53.8143 13.3686 53.921 13.3046V14.9846C53.7717 15.0273 53.6117 15.0593 53.441 15.0806C53.2703 15.1126 53.0943 15.1286 52.913 15.1286C52.3157 15.1286 51.8463 15.0113 51.505 14.7766C51.1637 14.5313 50.9237 14.1633 50.785 13.6726H50.689C50.3797 14.1953 49.985 14.5899 49.505 14.8566C49.025 15.1233 48.4757 15.2566 47.857 15.2566ZM48.177 13.6726C48.6037 13.6726 49.0037 13.5606 49.377 13.3366C49.761 13.1126 50.065 12.7979 50.289 12.3926C50.5237 11.9766 50.641 11.4859 50.641 10.9206C50.641 10.3553 50.5237 9.86994 50.289 9.46461C50.065 9.04861 49.761 8.72861 49.377 8.50461C49.0037 8.28061 48.6037 8.16861 48.177 8.16861C47.7503 8.16861 47.3503 8.28061 46.977 8.50461C46.6037 8.72861 46.2997 9.04861 46.065 9.46461C45.8303 9.86994 45.713 10.3553 45.713 10.9206C45.713 11.4753 45.8303 11.9606 46.065 12.3766C46.2997 12.7926 46.6037 13.1126 46.977 13.3366C47.3503 13.5606 47.7503 13.6726 48.177 13.6726ZM47.217 5.27261L47.809 2.77661H49.857L48.673 5.27261H47.217ZM59.3565 18.4566V6.84061H61.0845V11.7206C61.0845 12.1793 61.1538 12.5526 61.2925 12.8406C61.4418 13.1286 61.6392 13.3419 61.8845 13.4806C62.1298 13.6086 62.4018 13.6726 62.7005 13.6726C63.1698 13.6726 63.5698 13.5499 63.9005 13.3046C64.2418 13.0593 64.5032 12.7393 64.6845 12.3446C64.8658 11.9499 64.9565 11.5446 64.9565 11.1286V6.84061H66.6685V12.3126C66.6685 12.7179 66.7378 13.0219 66.8765 13.2246C67.0258 13.4166 67.2658 13.5126 67.5965 13.5126C67.7352 13.5126 67.8632 13.4966 67.9805 13.4646C68.0978 13.4219 68.2152 13.3686 68.3325 13.3046V14.9846C68.1832 15.0273 68.0285 15.0593 67.8685 15.0806C67.7192 15.1126 67.5432 15.1286 67.3405 15.1286C66.6792 15.1286 66.1832 15.0006 65.8525 14.7446C65.5325 14.4779 65.3085 14.1206 65.1805 13.6726H65.0845C64.9352 13.9499 64.7485 14.2113 64.5245 14.4566C64.3112 14.6913 64.0552 14.8833 63.7565 15.0326C63.4578 15.1819 63.1058 15.2566 62.7005 15.2566C62.3698 15.2566 62.0552 15.1819 61.7565 15.0326C61.4685 14.8939 61.2445 14.7179 61.0845 14.5046H60.9885L61.0845 15.4166V18.4566H59.3565ZM72.8966 15.2566C72.1286 15.2566 71.4833 15.1553 70.9606 14.9526C70.438 14.7393 70.0433 14.4566 69.7766 14.1046C69.51 13.7526 69.3766 13.3579 69.3766 12.9206C69.3766 12.3659 69.5206 11.9233 69.8086 11.5926C70.1073 11.2619 70.5233 11.0486 71.0566 10.9526V10.8886C70.7153 10.7926 70.4273 10.6593 70.1926 10.4886C69.9686 10.3073 69.798 10.0939 69.6806 9.84861C69.574 9.59261 69.5206 9.32061 69.5206 9.03261C69.5206 8.25394 69.83 7.65128 70.4486 7.22461C71.078 6.79794 71.9793 6.58461 73.1526 6.58461C73.6753 6.58461 74.15 6.63261 74.5766 6.72861C75.014 6.81394 75.4033 6.95261 75.7446 7.14461C76.086 7.32594 76.374 7.56061 76.6086 7.84861L75.5526 8.95261C75.286 8.67528 74.95 8.46194 74.5446 8.31261C74.15 8.15261 73.6593 8.07261 73.0726 8.07261C72.6033 8.07261 72.23 8.12594 71.9526 8.23261C71.6753 8.32861 71.478 8.46194 71.3606 8.63261C71.2433 8.80328 71.1846 8.98994 71.1846 9.19261C71.1846 9.52328 71.334 9.76861 71.6326 9.92861C71.9313 10.0779 72.342 10.1526 72.8646 10.1526H74.4966V11.6566H72.7686C72.1606 11.6566 71.7286 11.7473 71.4726 11.9286C71.2166 12.0993 71.0886 12.3499 71.0886 12.6806C71.0886 12.9899 71.238 13.2459 71.5366 13.4486C71.846 13.6406 72.3046 13.7366 72.9126 13.7366C73.5206 13.7366 74.0646 13.6353 74.5446 13.4326C75.0246 13.2193 75.398 12.9686 75.6646 12.6806L76.6726 13.7206C76.4913 13.9659 76.2353 14.2059 75.9046 14.4406C75.574 14.6753 75.158 14.8673 74.6566 15.0166C74.1553 15.1766 73.5686 15.2566 72.8966 15.2566Z" fill="white"/>
<g id="GPay (Dark)">
<g id="GPay">
<g id="Pay">
<path id="Fill 1" fill-rule="evenodd" clip-rule="evenodd" d="M105.356 3.42339V8.16175H108.278C108.974 8.16175 109.55 7.92781 110.005 7.45993C110.473 6.99313 110.707 6.43644 110.707 5.79203C110.707 5.16061 110.473 4.61041 110.005 4.14254C109.55 3.66274 108.974 3.4223 108.278 3.4223H105.356V3.42339ZM105.356 9.82966V15.3262H103.611V1.75549H108.24C109.417 1.75549 110.415 2.14756 111.238 2.93061C112.073 3.71365 112.491 4.66782 112.491 5.79203C112.491 6.94224 112.073 7.90291 111.238 8.67296C110.428 9.44409 109.429 9.82858 108.24 9.82858H105.356V9.82966Z" fill="white"/>
<path id="Fill 3" fill-rule="evenodd" clip-rule="evenodd" d="M114.255 12.4831C114.255 12.9379 114.448 13.317 114.834 13.6203C115.22 13.9235 115.672 14.0752 116.19 14.0752C116.924 14.0752 117.578 13.8032 118.153 13.2607C118.729 12.717 119.017 12.0791 119.017 11.3469C118.472 10.917 117.713 10.7025 116.74 10.7025C116.031 10.7025 115.44 10.8736 114.966 11.2148C114.492 11.5559 114.255 11.9773 114.255 12.4831M116.513 5.73566C117.803 5.73566 118.821 6.08007 119.569 6.76889C120.314 7.45771 120.687 8.40213 120.687 9.60216V15.3261H119.018V14.0373H118.942C118.221 15.0985 117.259 15.6294 116.058 15.6294C115.033 15.6294 114.176 15.3261 113.487 14.7196C112.797 14.1131 112.453 13.3549 112.453 12.4452C112.453 11.4845 112.816 10.7208 113.543 10.1523C114.271 9.58375 115.241 9.2989 116.456 9.2989C117.492 9.2989 118.346 9.48844 119.017 9.86751V9.46894C119.017 8.86243 118.776 8.34798 118.296 7.92451C117.814 7.50103 117.252 7.28984 116.607 7.28984C115.633 7.28984 114.862 7.70032 114.293 8.52235L112.755 7.55519C113.603 6.34217 114.855 5.73566 116.513 5.73566" fill="white"/>
<path id="Fill 5" fill-rule="evenodd" clip-rule="evenodd" d="M130.269 6.03894L124.443 19.4201H122.641L124.804 14.738L120.971 6.03894H122.869L125.639 12.7106H125.677L128.371 6.03894H130.269Z" fill="white"/>
</g>
<g id="G">
<path id="Fill 8" fill-rule="evenodd" clip-rule="evenodd" d="M98.3029 8.64473C98.3029 8.09563 98.2562 7.56601 98.1684 7.05914H90.8065V10.0625H95.0231C94.842 11.0414 94.2944 11.8744 93.4639 12.4322V14.3828H95.9804C97.4539 13.0246 98.3029 11.0177 98.3029 8.64473" fill="#4285F4"/>
<path id="Fill 10" fill-rule="evenodd" clip-rule="evenodd" d="M90.8065 16.2651C92.9131 16.2651 94.6869 15.5741 95.9804 14.3828L93.4639 12.4322C92.7635 12.9033 91.8614 13.1784 90.8065 13.1784C88.7703 13.1784 87.042 11.8073 86.424 9.95959H83.8316V11.9687C85.1164 14.516 87.7565 16.2651 90.8065 16.2651" fill="#34A853"/>
<path id="Fill 12" fill-rule="evenodd" clip-rule="evenodd" d="M86.424 9.9596C86.2657 9.48847 86.179 8.98593 86.179 8.46715C86.179 7.94837 86.2657 7.44583 86.424 6.9747V4.96564H83.8316C83.3003 6.01837 83 7.20756 83 8.46715C83 9.72674 83.3003 10.916 83.8316 11.9687L86.424 9.9596Z" fill="#FABB05"/>
<path id="Fill 14" fill-rule="evenodd" clip-rule="evenodd" d="M90.8065 3.75583C91.9568 3.75583 92.9879 4.15115 93.8011 4.92553V4.92661L96.0292 2.70094C94.6761 1.44243 92.912 0.669128 90.8065 0.669128C87.7565 0.669128 85.1164 2.41826 83.8316 4.9656L86.424 6.97467C87.042 5.12698 88.7703 3.75583 90.8065 3.75583" fill="#E94235"/>
</g>
</g>
</g>
</g>
</svg>
