<svg width="302" height="38" viewBox="0 0 302 38" fill="none" xmlns="http://www.w3.org/2000/svg">
<g id="el_order_with_Light">
<path id="Text" d="M3.44924 30V9.952H18.5692V30H15.4892V12.864H6.52924V30H3.44924ZM28.8974 30.448C27.6841 30.448 26.5641 30.1307 25.5374 29.496C24.5107 28.8427 23.6894 27.956 23.0734 26.836C22.4574 25.6973 22.1494 24.3813 22.1494 22.888C22.1494 21.376 22.4574 20.0507 23.0734 18.912C23.7081 17.7547 24.5387 16.8587 25.5654 16.224C26.6107 15.5893 27.7494 15.272 28.9814 15.272C30.0267 15.272 30.9507 15.5053 31.7534 15.972C32.5747 16.42 33.1907 16.98 33.6014 17.652H33.7694V15.72H36.5974V25.24C36.5974 25.9493 36.7187 26.4907 36.9614 26.864C37.2041 27.2187 37.6241 27.396 38.2214 27.396C38.4641 27.396 38.6881 27.368 38.8934 27.312C39.0987 27.2373 39.3041 27.144 39.5094 27.032V29.972C38.9494 30.14 38.3614 30.224 37.7454 30.224C36.6814 30.224 35.8507 30.0093 35.2534 29.58C34.6561 29.1507 34.2454 28.516 34.0214 27.676H33.8534C32.7707 29.524 31.1187 30.448 28.8974 30.448ZM29.4574 27.676C30.2041 27.676 30.9041 27.48 31.5574 27.088C32.2294 26.696 32.7614 26.1453 33.1534 25.436C33.5641 24.708 33.7694 23.8493 33.7694 22.86C33.7694 21.8707 33.5641 21.0213 33.1534 20.312C32.7614 19.584 32.2294 19.024 31.5574 18.632C30.9041 18.24 30.2041 18.044 29.4574 18.044C28.7107 18.044 28.0107 18.24 27.3574 18.632C26.7041 19.024 26.1721 19.584 25.7614 20.312C25.3507 21.0213 25.1454 21.8707 25.1454 22.86C25.1454 23.8493 25.3507 24.708 25.7614 25.436C26.1721 26.1453 26.7041 26.696 27.3574 27.088C28.0107 27.48 28.7107 27.676 29.4574 27.676ZM42.2614 36.048V23.084C42.2614 21.4973 42.5694 20.1253 43.1854 18.968C43.82 17.792 44.6787 16.8867 45.7614 16.252C46.8627 15.5987 48.104 15.272 49.4854 15.272C51.0534 15.272 52.3694 15.6267 53.4334 16.336C54.516 17.0267 55.3374 17.96 55.8974 19.136C56.4574 20.2933 56.7374 21.544 56.7374 22.888C56.7374 24.3627 56.4294 25.6693 55.8134 26.808C55.216 27.9467 54.404 28.8427 53.3774 29.496C52.3507 30.1307 51.212 30.448 49.9614 30.448C48.8414 30.448 47.88 30.2147 47.0774 29.748C46.2934 29.2813 45.696 28.7307 45.2854 28.096H45.1174L45.2854 30.056V36.048H42.2614ZM49.4014 27.676C50.1667 27.676 50.876 27.48 51.5294 27.088C52.1827 26.6773 52.7147 26.1173 53.1254 25.408C53.536 24.6987 53.7414 23.868 53.7414 22.916C53.7414 21.8893 53.5267 21.012 53.0974 20.284C52.6867 19.556 52.1547 19.0053 51.5014 18.632C50.848 18.24 50.148 18.044 49.4014 18.044C48.7107 18.044 48.0387 18.2307 47.3854 18.604C46.732 18.9773 46.1907 19.528 45.7614 20.256C45.332 20.984 45.1174 21.8893 45.1174 22.972C45.1174 23.868 45.3134 24.68 45.7054 25.408C46.0974 26.1173 46.62 26.6773 47.2734 27.088C47.9267 27.48 48.636 27.676 49.4014 27.676ZM65.8099 30.448C64.5966 30.448 63.4766 30.1307 62.4499 29.496C61.4232 28.8427 60.6019 27.956 59.9859 26.836C59.3699 25.6973 59.0619 24.3813 59.0619 22.888C59.0619 21.376 59.3699 20.0507 59.9859 18.912C60.6206 17.7547 61.4512 16.8587 62.4779 16.224C63.5232 15.5893 64.6619 15.272 65.8939 15.272C66.9392 15.272 67.8632 15.5053 68.6659 15.972C69.4872 16.42 70.1032 16.98 70.5139 17.652H70.6819V15.72H73.5099V25.24C73.5099 25.9493 73.6312 26.4907 73.8739 26.864C74.1166 27.2187 74.5366 27.396 75.1339 27.396C75.3766 27.396 75.6006 27.368 75.8059 27.312C76.0112 27.2373 76.2166 27.144 76.4219 27.032V29.972C75.8619 30.14 75.2739 30.224 74.6579 30.224C73.5939 30.224 72.7632 30.0093 72.1659 29.58C71.5686 29.1507 71.1579 28.516 70.9339 27.676H70.7659C69.6832 29.524 68.0312 30.448 65.8099 30.448ZM66.3699 27.676C67.1166 27.676 67.8166 27.48 68.4699 27.088C69.1419 26.696 69.6739 26.1453 70.0659 25.436C70.4766 24.708 70.6819 23.8493 70.6819 22.86C70.6819 21.8707 70.4766 21.0213 70.0659 20.312C69.6739 19.584 69.1419 19.024 68.4699 18.632C67.8166 18.24 67.1166 18.044 66.3699 18.044C65.6232 18.044 64.9232 18.24 64.2699 18.632C63.6166 19.024 63.0846 19.584 62.6739 20.312C62.2632 21.0213 62.0579 21.8707 62.0579 22.86C62.0579 23.8493 62.2632 24.708 62.6739 25.436C63.0846 26.1453 63.6166 26.696 64.2699 27.088C64.9232 27.48 65.6232 27.676 66.3699 27.676ZM83.6259 36.048V30L77.7179 15.72H81.0779L85.0819 26.136H85.2219L89.3099 15.72H92.6139L86.6499 30V36.048H83.6259ZM99.211 36.048V30L93.303 15.72H96.663L100.667 26.136H100.807L104.895 15.72H108.199L102.235 30V36.048H99.211ZM116.14 30.448C114.124 30.448 112.594 30.056 111.548 29.272C110.503 28.488 109.98 27.5173 109.98 26.36C109.98 25.408 110.232 24.6427 110.736 24.064C111.259 23.4667 111.987 23.084 112.92 22.916V22.804C112.006 22.58 111.324 22.1693 110.876 21.572C110.447 20.9747 110.232 20.3027 110.232 19.556C110.232 18.212 110.774 17.1667 111.856 16.42C112.958 15.6547 114.535 15.272 116.588 15.272C117.951 15.272 119.146 15.4493 120.172 15.804C121.199 16.1587 122.02 16.7187 122.636 17.484L120.788 19.416C120.34 18.9493 119.762 18.576 119.052 18.296C118.362 18.016 117.494 17.876 116.448 17.876C115.198 17.876 114.33 18.072 113.844 18.464C113.378 18.856 113.144 19.3133 113.144 19.836C113.144 20.4147 113.406 20.844 113.928 21.124C114.451 21.3853 115.17 21.516 116.084 21.516H118.94V24.148H115.916C114.852 24.148 114.096 24.3067 113.648 24.624C113.2 24.9413 112.976 25.38 112.976 25.94C112.976 26.5 113.238 26.948 113.76 27.284C114.302 27.62 115.104 27.788 116.168 27.788C117.232 27.788 118.184 27.6107 119.024 27.256C119.864 26.9013 120.518 26.4627 120.984 25.94L122.748 27.76C122.282 28.4133 121.507 29.0293 120.424 29.608C119.342 30.168 117.914 30.448 116.14 30.448ZM123.845 30L129.781 16.616L128.745 14.404C128.409 13.676 128.082 13.1907 127.765 12.948C127.448 12.6867 127.046 12.556 126.561 12.556C126.113 12.556 125.684 12.6773 125.273 12.92V9.98C125.534 9.90533 125.814 9.84933 126.113 9.812C126.412 9.756 126.757 9.728 127.149 9.728C127.914 9.728 128.54 9.84 129.025 10.064C129.529 10.288 129.958 10.6707 130.313 11.212C130.686 11.7347 131.06 12.4347 131.433 13.312L138.685 30H135.381L131.433 20.256H131.293L127.205 30H123.845ZM145.226 30.224C143.882 30.224 142.818 29.8413 142.034 29.076C141.25 28.292 140.858 27.2187 140.858 25.856V15.72H143.882V25.212C143.882 25.9213 144.032 26.4627 144.33 26.836C144.629 27.2093 145.114 27.396 145.786 27.396C146.141 27.396 146.44 27.3493 146.682 27.256C146.944 27.1627 147.205 27.032 147.466 26.864V29.804C147.149 29.9347 146.813 30.0373 146.458 30.112C146.104 30.1867 145.693 30.224 145.226 30.224ZM141.278 12.976L142.314 8.608H145.898L143.826 12.976H141.278ZM156.34 30.448C155.127 30.448 154.007 30.1307 152.98 29.496C151.954 28.8427 151.132 27.956 150.516 26.836C149.9 25.6973 149.592 24.3813 149.592 22.888C149.592 21.376 149.9 20.0507 150.516 18.912C151.151 17.7547 151.982 16.8587 153.008 16.224C154.054 15.5893 155.192 15.272 156.424 15.272C157.47 15.272 158.394 15.5053 159.196 15.972C160.018 16.42 160.634 16.98 161.044 17.652H161.212V15.72H164.04V25.24C164.04 25.9493 164.162 26.4907 164.404 26.864C164.647 27.2187 165.067 27.396 165.664 27.396C165.907 27.396 166.131 27.368 166.336 27.312C166.542 27.2373 166.747 27.144 166.952 27.032V29.972C166.392 30.14 165.804 30.224 165.188 30.224C164.124 30.224 163.294 30.0093 162.696 29.58C162.099 29.1507 161.688 28.516 161.464 27.676H161.296C160.214 29.524 158.562 30.448 156.34 30.448ZM156.9 27.676C157.647 27.676 158.347 27.48 159 27.088C159.672 26.696 160.204 26.1453 160.596 25.436C161.007 24.708 161.212 23.8493 161.212 22.86C161.212 21.8707 161.007 21.0213 160.596 20.312C160.204 19.584 159.672 19.024 159 18.632C158.347 18.24 157.647 18.044 156.9 18.044C156.154 18.044 155.454 18.24 154.8 18.632C154.147 19.024 153.615 19.584 153.204 20.312C152.794 21.0213 152.588 21.8707 152.588 22.86C152.588 23.8493 152.794 24.708 153.204 25.436C153.615 26.1453 154.147 26.696 154.8 27.088C155.454 27.48 156.154 27.676 156.9 27.676ZM176.539 36.048V15.72H179.563V24.26C179.563 25.4733 179.834 26.3507 180.375 26.892C180.935 27.4147 181.607 27.676 182.391 27.676C183.194 27.676 183.885 27.4613 184.463 27.032C185.061 26.6027 185.518 26.052 185.835 25.38C186.171 24.6893 186.339 23.9707 186.339 23.224V15.72H189.335V25.296C189.335 26.0053 189.457 26.5373 189.699 26.892C189.961 27.228 190.381 27.396 190.959 27.396C191.202 27.396 191.426 27.368 191.631 27.312C191.837 27.2373 192.042 27.144 192.247 27.032V29.972C191.986 30.0467 191.715 30.1027 191.435 30.14C191.174 30.196 190.866 30.224 190.511 30.224C189.373 30.224 188.514 30 187.935 29.552C187.357 29.0853 186.955 28.46 186.731 27.676H186.563C186.171 28.4227 185.639 29.076 184.967 29.636C184.295 30.1773 183.437 30.448 182.391 30.448C181.813 30.448 181.262 30.3267 180.739 30.084C180.217 29.8413 179.825 29.524 179.563 29.132H179.395L179.563 30.728V36.048H176.539ZM200.819 30.448C198.803 30.448 197.272 30.056 196.227 29.272C195.182 28.488 194.659 27.5173 194.659 26.36C194.659 25.408 194.911 24.6427 195.415 24.064C195.938 23.4667 196.666 23.084 197.599 22.916V22.804C196.684 22.58 196.003 22.1693 195.555 21.572C195.126 20.9747 194.911 20.3027 194.911 19.556C194.911 18.212 195.452 17.1667 196.535 16.42C197.636 15.6547 199.214 15.272 201.267 15.272C202.63 15.272 203.824 15.4493 204.851 15.804C205.878 16.1587 206.699 16.7187 207.315 17.484L205.467 19.416C205.019 18.9493 204.44 18.576 203.731 18.296C203.04 18.016 202.172 17.876 201.127 17.876C199.876 17.876 199.008 18.072 198.523 18.464C198.056 18.856 197.823 19.3133 197.823 19.836C197.823 20.4147 198.084 20.844 198.607 21.124C199.13 21.3853 199.848 21.516 200.763 21.516H203.619V24.148H200.595C199.531 24.148 198.775 24.3067 198.327 24.624C197.879 24.9413 197.655 25.38 197.655 25.94C197.655 26.5 197.916 26.948 198.439 27.284C198.98 27.62 199.783 27.788 200.847 27.788C201.911 27.788 202.863 27.6107 203.703 27.256C204.543 26.9013 205.196 26.4627 205.663 25.94L207.427 27.76C206.96 28.4133 206.186 29.0293 205.103 29.608C204.02 30.168 202.592 30.448 200.819 30.448Z" fill="#3C4043"/>
<g id="GPay Logo (Light)">
<g id="GPay">
<g id="Pay">
<path id="Fill 1" fill-rule="evenodd" clip-rule="evenodd" d="M258.529 9.44664V17.6128H263.565C264.765 17.6128 265.757 17.2096 266.541 16.4032C267.347 15.5988 267.75 14.6394 267.75 13.5288C267.75 12.4406 267.347 11.4924 266.541 10.686C265.757 9.85915 264.765 9.44478 263.565 9.44478H258.529V9.44664ZM258.529 20.4872V29.9599H255.521V6.57217H263.499C265.527 6.57217 267.248 7.24786 268.666 8.59737C270.105 9.94688 270.824 11.5913 270.824 13.5288C270.824 15.511 270.105 17.1667 268.666 18.4938C267.27 19.8227 265.547 20.4854 263.499 20.4854H258.529V20.4872Z" fill="#5F6368"/>
<path id="Fill 3" fill-rule="evenodd" clip-rule="evenodd" d="M273.864 25.0602C273.864 25.8442 274.197 26.4975 274.862 27.0201C275.527 27.5427 276.306 27.804 277.2 27.804C278.465 27.804 279.591 27.3354 280.584 26.4004C281.576 25.4634 282.071 24.364 282.071 23.1022C281.133 22.3612 279.825 21.9916 278.147 21.9916C276.925 21.9916 275.907 22.2865 275.09 22.8745C274.273 23.4623 273.864 24.1886 273.864 25.0602ZM277.756 13.4317C279.98 13.4317 281.735 14.0252 283.022 15.2124C284.308 16.3995 284.95 18.0271 284.95 20.0952V29.9599H282.073V27.7387H281.942C280.699 29.5677 279.042 30.4825 276.972 30.4825C275.206 30.4825 273.728 29.9599 272.541 28.9146C271.353 27.8694 270.759 26.5628 270.759 24.9949C270.759 23.3393 271.385 22.0232 272.638 21.0434C273.892 20.0635 275.565 19.5726 277.658 19.5726C279.444 19.5726 280.916 19.8992 282.071 20.5525V19.8656C282.071 18.8204 281.656 17.9338 280.829 17.204C279.999 16.4741 279.031 16.1102 277.919 16.1102C276.239 16.1102 274.911 16.8176 273.93 18.2343L271.28 16.5675C272.741 14.4769 274.899 13.4317 277.756 13.4317Z" fill="#5F6368"/>
<path id="Fill 5" fill-rule="evenodd" clip-rule="evenodd" d="M301.463 13.9543L291.424 37.0154H288.318L292.046 28.9464L285.44 13.9543H288.71L293.484 25.4522H293.55L298.193 13.9543H301.463Z" fill="#5F6368"/>
</g>
<g id="G">
<path id="Fill 8" fill-rule="evenodd" clip-rule="evenodd" d="M246.373 18.4452C246.373 17.4989 246.293 16.5861 246.141 15.7126H233.454V20.8885H240.72C240.408 22.5757 239.465 24.0112 238.033 24.9725V28.3341H242.37C244.91 25.9935 246.373 22.5348 246.373 18.4452Z" fill="#4285F4"/>
<path id="Fill 10" fill-rule="evenodd" clip-rule="evenodd" d="M233.454 31.5782C237.084 31.5782 240.141 30.3873 242.37 28.3341L238.033 24.9725C236.826 25.7844 235.272 26.2585 233.454 26.2585C229.944 26.2585 226.966 23.8955 225.901 20.7112H221.433V24.1736C223.647 28.5637 228.197 31.5782 233.454 31.5782Z" fill="#34A853"/>
<path id="Fill 12" fill-rule="evenodd" clip-rule="evenodd" d="M225.901 20.7111C225.628 19.8992 225.479 19.0331 225.479 18.139C225.479 17.245 225.628 16.3789 225.901 15.567V12.1045H221.433C220.518 13.9188 220 15.9683 220 18.139C220 20.3098 220.518 22.3595 221.433 24.1736L225.901 20.7111Z" fill="#FABB05"/>
<path id="Fill 14" fill-rule="evenodd" clip-rule="evenodd" d="M233.454 10.0196C235.436 10.0196 237.213 10.7009 238.615 12.0355V12.0374L242.455 8.20162C240.123 6.03271 237.082 4.7 233.454 4.7C228.197 4.7 223.647 7.71446 221.433 12.1046L225.901 15.567C226.966 12.3827 229.944 10.0196 233.454 10.0196Z" fill="#E94235"/>
</g>
</g>
</g>
</g>
</svg>
