<svg width="171" height="21" viewBox="0 0 171 21" fill="none" xmlns="http://www.w3.org/2000/svg">
<g id="el_order_with_Pay_NBG">
<path id="Left Text" d="M2.26162 15.0006V3.54461H10.9016V15.0006H9.14162V5.20861H4.02162V15.0006H2.26162ZM16.6257 15.2566C16.1031 15.2566 15.6071 15.1553 15.1377 14.9526C14.6791 14.7393 14.2684 14.4406 13.9057 14.0566C13.5537 13.6726 13.2764 13.2193 13.0737 12.6966C12.8711 12.1633 12.7697 11.5766 12.7697 10.9366C12.7697 10.0619 12.9457 9.29928 13.2977 8.64861C13.6604 7.99794 14.1351 7.49128 14.7217 7.12861C15.3191 6.76594 15.9697 6.58461 16.6737 6.58461C17.0791 6.58461 17.4471 6.64328 17.7777 6.76061C18.1191 6.87794 18.4177 7.04328 18.6737 7.25661C18.9404 7.45928 19.1537 7.68861 19.3137 7.94461H19.4097V6.84061H21.0257V12.2806C21.0257 12.6966 21.0951 13.0059 21.2337 13.2086C21.3724 13.4113 21.6124 13.5126 21.9537 13.5126C22.0924 13.5126 22.2204 13.4966 22.3377 13.4646C22.4657 13.4219 22.5831 13.3686 22.6897 13.3046V14.9846C22.5404 15.0273 22.3804 15.0593 22.2097 15.0806C22.0391 15.1126 21.8631 15.1286 21.6817 15.1286C21.0844 15.1286 20.6151 15.0113 20.2737 14.7766C19.9324 14.5313 19.6924 14.1633 19.5537 13.6726H19.4577C19.1484 14.1953 18.7537 14.5899 18.2737 14.8566C17.7937 15.1233 17.2444 15.2566 16.6257 15.2566ZM16.9457 13.6726C17.3724 13.6726 17.7724 13.5606 18.1457 13.3366C18.5297 13.1126 18.8337 12.7979 19.0577 12.3926C19.2924 11.9766 19.4097 11.4859 19.4097 10.9206C19.4097 10.3553 19.2924 9.86994 19.0577 9.46461C18.8337 9.04861 18.5297 8.72861 18.1457 8.50461C17.7724 8.28061 17.3724 8.16861 16.9457 8.16861C16.5191 8.16861 16.1191 8.28061 15.7457 8.50461C15.3724 8.72861 15.0684 9.04861 14.8337 9.46461C14.5991 9.86994 14.4817 10.3553 14.4817 10.9206C14.4817 11.4753 14.5991 11.9606 14.8337 12.3766C15.0684 12.7926 15.3724 13.1126 15.7457 13.3366C16.1191 13.5606 16.5191 13.6726 16.9457 13.6726ZM23.9284 18.4566V11.0486C23.9284 10.1419 24.1044 9.35794 24.4564 8.69661C24.819 8.02461 25.3097 7.50728 25.9284 7.14461C26.5577 6.77128 27.267 6.58461 28.0564 6.58461C28.7284 6.58461 29.3204 6.70194 29.8324 6.93661C30.3444 7.17128 30.7764 7.49128 31.1284 7.89661C31.4804 8.30194 31.747 8.76594 31.9284 9.28861C32.1097 9.81128 32.2004 10.3606 32.2004 10.9366C32.2004 11.7793 32.0244 12.5259 31.6724 13.1766C31.331 13.8273 30.867 14.3393 30.2804 14.7126C29.6937 15.0753 29.043 15.2566 28.3284 15.2566C27.9017 15.2566 27.5124 15.1926 27.1604 15.0646C26.819 14.9473 26.5204 14.7873 26.2644 14.5846C26.019 14.3819 25.8164 14.1579 25.6564 13.9126H25.5604L25.6564 15.0326V18.4566H23.9284ZM28.0084 13.6726C28.4457 13.6726 28.851 13.5606 29.2244 13.3366C29.6084 13.1019 29.9124 12.7819 30.1364 12.3766C30.371 11.9713 30.4884 11.4966 30.4884 10.9526C30.4884 10.3659 30.371 9.86461 30.1364 9.44861C29.9017 9.03261 29.5924 8.71794 29.2084 8.50461C28.835 8.28061 28.435 8.16861 28.0084 8.16861C27.6137 8.16861 27.2297 8.27528 26.8564 8.48861C26.483 8.70194 26.1737 9.01661 25.9284 9.43261C25.683 9.84861 25.5604 10.3659 25.5604 10.9846C25.5604 11.4966 25.6724 11.9606 25.8964 12.3766C26.1204 12.7819 26.419 13.1019 26.7924 13.3366C27.1657 13.5606 27.571 13.6726 28.0084 13.6726ZM37.3632 15.2566C36.8406 15.2566 36.3446 15.1553 35.8752 14.9526C35.4166 14.7393 35.0059 14.4406 34.6432 14.0566C34.2912 13.6726 34.0139 13.2193 33.8112 12.6966C33.6086 12.1633 33.5072 11.5766 33.5072 10.9366C33.5072 10.0619 33.6832 9.29928 34.0352 8.64861C34.3979 7.99794 34.8726 7.49128 35.4592 7.12861C36.0566 6.76594 36.7072 6.58461 37.4112 6.58461C37.8166 6.58461 38.1846 6.64328 38.5152 6.76061C38.8566 6.87794 39.1552 7.04328 39.4112 7.25661C39.6779 7.45928 39.8912 7.68861 40.0512 7.94461H40.1472V6.84061H41.7632V12.2806C41.7632 12.6966 41.8326 13.0059 41.9712 13.2086C42.1099 13.4113 42.3499 13.5126 42.6912 13.5126C42.8299 13.5126 42.9579 13.4966 43.0752 13.4646C43.2032 13.4219 43.3206 13.3686 43.4272 13.3046V14.9846C43.2779 15.0273 43.1179 15.0593 42.9472 15.0806C42.7766 15.1126 42.6006 15.1286 42.4192 15.1286C41.8219 15.1286 41.3526 15.0113 41.0112 14.7766C40.6699 14.5313 40.4299 14.1633 40.2912 13.6726H40.1952C39.8859 14.1953 39.4912 14.5899 39.0112 14.8566C38.5312 15.1233 37.9819 15.2566 37.3632 15.2566ZM37.6832 13.6726C38.1099 13.6726 38.5099 13.5606 38.8832 13.3366C39.2672 13.1126 39.5712 12.7979 39.7952 12.3926C40.0299 11.9766 40.1472 11.4859 40.1472 10.9206C40.1472 10.3553 40.0299 9.86994 39.7952 9.46461C39.5712 9.04861 39.2672 8.72861 38.8832 8.50461C38.5099 8.28061 38.1099 8.16861 37.6832 8.16861C37.2566 8.16861 36.8566 8.28061 36.4832 8.50461C36.1099 8.72861 35.8059 9.04861 35.5712 9.46461C35.3366 9.86994 35.2192 10.3553 35.2192 10.9206C35.2192 11.4753 35.3366 11.9606 35.5712 12.3766C35.8059 12.7926 36.1099 13.1126 36.4832 13.3366C36.8566 13.5606 37.2566 13.6726 37.6832 13.6726ZM47.038 18.4566V15.0006L43.662 6.84061H45.582L47.87 12.7926H47.95L50.286 6.84061H52.174L48.766 15.0006V18.4566H47.038ZM55.9224 18.4566V15.0006L52.5464 6.84061H54.4664L56.7544 12.7926H56.8344L59.1704 6.84061H61.0584L57.6504 15.0006V18.4566H55.9224ZM65.4185 15.2566C64.6505 15.2566 64.0052 15.1553 63.4825 14.9526C62.9598 14.7393 62.5652 14.4566 62.2985 14.1046C62.0318 13.7526 61.8985 13.3579 61.8985 12.9206C61.8985 12.3659 62.0425 11.9233 62.3305 11.5926C62.6292 11.2619 63.0452 11.0486 63.5785 10.9526V10.8886C63.2372 10.7926 62.9492 10.6593 62.7145 10.4886C62.4905 10.3073 62.3198 10.0939 62.2025 9.84861C62.0958 9.59261 62.0425 9.32061 62.0425 9.03261C62.0425 8.25394 62.3518 7.65128 62.9705 7.22461C63.5998 6.79794 64.5012 6.58461 65.6745 6.58461C66.1972 6.58461 66.6718 6.63261 67.0985 6.72861C67.5358 6.81394 67.9252 6.95261 68.2665 7.14461C68.6078 7.32594 68.8958 7.56061 69.1305 7.84861L68.0745 8.95261C67.8078 8.67528 67.4718 8.46194 67.0665 8.31261C66.6718 8.15261 66.1812 8.07261 65.5945 8.07261C65.1252 8.07261 64.7518 8.12594 64.4745 8.23261C64.1972 8.32861 63.9998 8.46194 63.8825 8.63261C63.7652 8.80328 63.7065 8.98994 63.7065 9.19261C63.7065 9.52328 63.8558 9.76861 64.1545 9.92861C64.4532 10.0779 64.8638 10.1526 65.3865 10.1526H67.0185V11.6566H65.2905C64.6825 11.6566 64.2505 11.7473 63.9945 11.9286C63.7385 12.0993 63.6105 12.3499 63.6105 12.6806C63.6105 12.9899 63.7598 13.2459 64.0585 13.4486C64.3678 13.6406 64.8265 13.7366 65.4345 13.7366C66.0425 13.7366 66.5865 13.6353 67.0665 13.4326C67.5465 13.2193 67.9198 12.9686 68.1865 12.6806L69.1945 13.7206C69.0132 13.9659 68.7572 14.2059 68.4265 14.4406C68.0958 14.6753 67.6798 14.8673 67.1785 15.0166C66.6772 15.1766 66.0905 15.2566 65.4185 15.2566ZM76.3919 15.0006L74.1359 9.43261H74.0559L71.7199 15.0006H69.7999L73.1919 7.35261L72.5999 6.08861C72.4079 5.66194 72.2212 5.37928 72.0399 5.24061C71.8585 5.10194 71.6292 5.03261 71.3519 5.03261C71.2239 5.03261 71.0959 5.04861 70.9679 5.08061C70.8505 5.11261 70.7332 5.16594 70.6159 5.24061V3.56061C70.7652 3.50728 70.9252 3.46994 71.0959 3.44861C71.2665 3.42728 71.4639 3.41661 71.6879 3.41661C72.1252 3.41661 72.4825 3.48594 72.7599 3.62461C73.0479 3.75261 73.2932 3.96594 73.4959 4.26461C73.7092 4.56328 73.9225 4.96328 74.1359 5.46461L78.2799 15.0006H76.3919ZM81.84 15.1286C81.072 15.1286 80.464 14.9099 80.016 14.4726C79.568 14.0246 79.344 13.4113 79.344 12.6326V6.84061H81.072V12.2646C81.072 12.6699 81.1573 12.9793 81.328 13.1926C81.4987 13.4059 81.776 13.5126 82.16 13.5126C82.3627 13.5126 82.5333 13.4859 82.672 13.4326C82.8213 13.3686 82.9707 13.2939 83.12 13.2086V14.8886C82.9387 14.9633 82.7467 15.0219 82.544 15.0646C82.3413 15.1073 82.1067 15.1286 81.84 15.1286ZM79.584 5.27261L80.176 2.77661H82.224L81.04 5.27261H79.584ZM87.857 15.2566C87.3343 15.2566 86.8383 15.1553 86.369 14.9526C85.9103 14.7393 85.4997 14.4406 85.137 14.0566C84.785 13.6726 84.5077 13.2193 84.305 12.6966C84.1023 12.1633 84.001 11.5766 84.001 10.9366C84.001 10.0619 84.177 9.29928 84.529 8.64861C84.8917 7.99794 85.3663 7.49128 85.953 7.12861C86.5503 6.76594 87.201 6.58461 87.905 6.58461C88.3103 6.58461 88.6783 6.64328 89.009 6.76061C89.3503 6.87794 89.649 7.04328 89.905 7.25661C90.1717 7.45928 90.385 7.68861 90.545 7.94461H90.641V6.84061H92.257V12.2806C92.257 12.6966 92.3263 13.0059 92.465 13.2086C92.6037 13.4113 92.8437 13.5126 93.185 13.5126C93.3237 13.5126 93.4517 13.4966 93.569 13.4646C93.697 13.4219 93.8143 13.3686 93.921 13.3046V14.9846C93.7717 15.0273 93.6117 15.0593 93.441 15.0806C93.2703 15.1126 93.0943 15.1286 92.913 15.1286C92.3157 15.1286 91.8463 15.0113 91.505 14.7766C91.1637 14.5313 90.9237 14.1633 90.785 13.6726H90.689C90.3797 14.1953 89.985 14.5899 89.505 14.8566C89.025 15.1233 88.4757 15.2566 87.857 15.2566ZM88.177 13.6726C88.6037 13.6726 89.0037 13.5606 89.377 13.3366C89.761 13.1126 90.065 12.7979 90.289 12.3926C90.5237 11.9766 90.641 11.4859 90.641 10.9206C90.641 10.3553 90.5237 9.86994 90.289 9.46461C90.065 9.04861 89.761 8.72861 89.377 8.50461C89.0037 8.28061 88.6037 8.16861 88.177 8.16861C87.7503 8.16861 87.3503 8.28061 86.977 8.50461C86.6037 8.72861 86.2997 9.04861 86.065 9.46461C85.8303 9.86994 85.713 10.3553 85.713 10.9206C85.713 11.4753 85.8303 11.9606 86.065 12.3766C86.2997 12.7926 86.6037 13.1126 86.977 13.3366C87.3503 13.5606 87.7503 13.6726 88.177 13.6726ZM99.3565 18.4566V6.84061H101.084V11.7206C101.084 12.1793 101.154 12.5526 101.292 12.8406C101.442 13.1286 101.639 13.3419 101.884 13.4806C102.13 13.6086 102.402 13.6726 102.7 13.6726C103.17 13.6726 103.57 13.5499 103.9 13.3046C104.242 13.0593 104.503 12.7393 104.684 12.3446C104.866 11.9499 104.956 11.5446 104.956 11.1286V6.84061H106.668V12.3126C106.668 12.7179 106.738 13.0219 106.876 13.2246C107.026 13.4166 107.266 13.5126 107.596 13.5126C107.735 13.5126 107.863 13.4966 107.98 13.4646C108.098 13.4219 108.215 13.3686 108.332 13.3046V14.9846C108.183 15.0273 108.028 15.0593 107.868 15.0806C107.719 15.1126 107.543 15.1286 107.34 15.1286C106.679 15.1286 106.183 15.0006 105.852 14.7446C105.532 14.4779 105.308 14.1206 105.18 13.6726H105.084C104.935 13.9499 104.748 14.2113 104.524 14.4566C104.311 14.6913 104.055 14.8833 103.756 15.0326C103.458 15.1819 103.106 15.2566 102.7 15.2566C102.37 15.2566 102.055 15.1819 101.756 15.0326C101.468 14.8939 101.244 14.7179 101.084 14.5046H100.988L101.084 15.4166V18.4566H99.3565ZM112.897 15.2566C112.129 15.2566 111.483 15.1553 110.961 14.9526C110.438 14.7393 110.043 14.4566 109.777 14.1046C109.51 13.7526 109.377 13.3579 109.377 12.9206C109.377 12.3659 109.521 11.9233 109.809 11.5926C110.107 11.2619 110.523 11.0486 111.057 10.9526V10.8886C110.715 10.7926 110.427 10.6593 110.193 10.4886C109.969 10.3073 109.798 10.0939 109.681 9.84861C109.574 9.59261 109.521 9.32061 109.521 9.03261C109.521 8.25394 109.83 7.65128 110.449 7.22461C111.078 6.79794 111.979 6.58461 113.153 6.58461C113.675 6.58461 114.15 6.63261 114.577 6.72861C115.014 6.81394 115.403 6.95261 115.745 7.14461C116.086 7.32594 116.374 7.56061 116.609 7.84861L115.553 8.95261C115.286 8.67528 114.95 8.46194 114.545 8.31261C114.15 8.15261 113.659 8.07261 113.073 8.07261C112.603 8.07261 112.23 8.12594 111.953 8.23261C111.675 8.32861 111.478 8.46194 111.361 8.63261C111.243 8.80328 111.185 8.98994 111.185 9.19261C111.185 9.52328 111.334 9.76861 111.633 9.92861C111.931 10.0779 112.342 10.1526 112.865 10.1526H114.497V11.6566H112.769C112.161 11.6566 111.729 11.7473 111.473 11.9286C111.217 12.0993 111.089 12.3499 111.089 12.6806C111.089 12.9899 111.238 13.2459 111.537 13.4486C111.846 13.6406 112.305 13.7366 112.913 13.7366C113.521 13.7366 114.065 13.6353 114.545 13.4326C115.025 13.2193 115.398 12.9686 115.665 12.6806L116.673 13.7206C116.491 13.9659 116.235 14.2059 115.905 14.4406C115.574 14.6753 115.158 14.8673 114.657 15.0166C114.155 15.1766 113.569 15.2566 112.897 15.2566Z" fill="white"/>
<g id="GPay (Dark)">
<g id="GPay">
<g id="Pay">
<path id="Fill 1" fill-rule="evenodd" clip-rule="evenodd" d="M145.356 3.42339V8.16175H148.278C148.974 8.16175 149.55 7.92781 150.005 7.45993C150.473 6.99313 150.707 6.43644 150.707 5.79203C150.707 5.16061 150.473 4.61041 150.005 4.14254C149.55 3.66274 148.974 3.4223 148.278 3.4223H145.356V3.42339ZM145.356 9.82966V15.3262H143.611V1.75549H148.24C149.417 1.75549 150.415 2.14756 151.238 2.93061C152.073 3.71365 152.491 4.66782 152.491 5.79203C152.491 6.94224 152.073 7.90291 151.238 8.67296C150.428 9.44409 149.429 9.82858 148.24 9.82858H145.356V9.82966Z" fill="white"/>
<path id="Fill 3" fill-rule="evenodd" clip-rule="evenodd" d="M154.255 12.4831C154.255 12.9379 154.448 13.317 154.834 13.6203C155.22 13.9235 155.672 14.0752 156.19 14.0752C156.924 14.0752 157.578 13.8032 158.153 13.2607C158.729 12.717 159.017 12.0791 159.017 11.3469C158.472 10.917 157.713 10.7025 156.74 10.7025C156.031 10.7025 155.44 10.8736 154.966 11.2148C154.492 11.5559 154.255 11.9773 154.255 12.4831M156.513 5.73566C157.803 5.73566 158.821 6.08007 159.569 6.76889C160.314 7.45771 160.687 8.40213 160.687 9.60216V15.3261H159.018V14.0373H158.942C158.221 15.0985 157.259 15.6294 156.058 15.6294C155.033 15.6294 154.176 15.3261 153.487 14.7196C152.797 14.1131 152.453 13.3549 152.453 12.4452C152.453 11.4845 152.816 10.7208 153.543 10.1523C154.271 9.58375 155.241 9.2989 156.456 9.2989C157.492 9.2989 158.346 9.48844 159.017 9.86751V9.46894C159.017 8.86243 158.776 8.34798 158.296 7.92451C157.814 7.50103 157.252 7.28984 156.607 7.28984C155.633 7.28984 154.862 7.70032 154.293 8.52235L152.755 7.55519C153.603 6.34217 154.855 5.73566 156.513 5.73566" fill="white"/>
<path id="Fill 5" fill-rule="evenodd" clip-rule="evenodd" d="M170.269 6.03894L164.443 19.4201H162.641L164.804 14.738L160.971 6.03894H162.869L165.639 12.7106H165.677L168.371 6.03894H170.269Z" fill="white"/>
</g>
<g id="G">
<path id="Fill 8" fill-rule="evenodd" clip-rule="evenodd" d="M138.303 8.64473C138.303 8.09563 138.256 7.56601 138.168 7.05914H130.806V10.0625H135.023C134.842 11.0414 134.294 11.8744 133.464 12.4322V14.3828H135.98C137.454 13.0246 138.303 11.0177 138.303 8.64473" fill="#4285F4"/>
<path id="Fill 10" fill-rule="evenodd" clip-rule="evenodd" d="M130.806 16.2651C132.913 16.2651 134.687 15.5741 135.98 14.3828L133.464 12.4322C132.763 12.9033 131.861 13.1784 130.806 13.1784C128.77 13.1784 127.042 11.8073 126.424 9.95959H123.832V11.9687C125.116 14.516 127.757 16.2651 130.806 16.2651" fill="#34A853"/>
<path id="Fill 12" fill-rule="evenodd" clip-rule="evenodd" d="M126.424 9.9596C126.266 9.48847 126.179 8.98593 126.179 8.46715C126.179 7.94837 126.266 7.44583 126.424 6.9747V4.96564H123.832C123.3 6.01837 123 7.20756 123 8.46715C123 9.72674 123.3 10.916 123.832 11.9687L126.424 9.9596Z" fill="#FABB05"/>
<path id="Fill 14" fill-rule="evenodd" clip-rule="evenodd" d="M130.806 3.75583C131.957 3.75583 132.988 4.15115 133.801 4.92553V4.92661L136.029 2.70094C134.676 1.44243 132.912 0.669128 130.806 0.669128C127.757 0.669128 125.116 2.41826 123.832 4.9656L126.424 6.97467C127.042 5.12698 128.77 3.75583 130.806 3.75583" fill="#E94235"/>
</g>
</g>
</g>
</g>
</svg>
