<svg width="149" height="21" viewBox="0 0 149 21" fill="none" xmlns="http://www.w3.org/2000/svg">
<g id="el_pay_with_Pay_NBG">
<path id="Left Text" d="M1.39913 15.0006V3.54461H10.0391V15.0006H8.27913V5.20861H3.15913V15.0006H1.39913ZM18.0513 15.0006L15.7953 9.43261H15.7153L13.3793 15.0006H11.4593L14.8513 7.35261L14.2593 6.08861C14.0673 5.66194 13.8806 5.37928 13.6993 5.24061C13.5179 5.10194 13.2886 5.03261 13.0113 5.03261C12.8833 5.03261 12.7553 5.04861 12.6273 5.08061C12.5099 5.11261 12.3926 5.16594 12.2753 5.24061V3.56061C12.4246 3.50728 12.5846 3.46994 12.7553 3.44861C12.9259 3.42728 13.1233 3.41661 13.3473 3.41661C13.7846 3.41661 14.1419 3.48594 14.4193 3.62461C14.7073 3.75261 14.9526 3.96594 15.1553 4.26461C15.3686 4.56328 15.5819 4.96328 15.7953 5.46461L19.9393 15.0006H18.0513ZM20.9111 15.0006V6.84061H22.5431V7.96061H22.6391C22.8738 7.56594 23.2205 7.24061 23.6791 6.98461C24.1485 6.71794 24.6605 6.58461 25.2151 6.58461C26.2178 6.58461 26.9698 6.88328 27.4711 7.48061C27.9725 8.06728 28.2231 8.85661 28.2231 9.84861V18.4566H26.5111V10.0726C26.5111 9.41128 26.3458 8.93128 26.0151 8.63261C25.6845 8.32328 25.2525 8.16861 24.7191 8.16861C24.3031 8.16861 23.9405 8.28594 23.6311 8.52061C23.3218 8.74461 23.0765 9.04328 22.8951 9.41661C22.7245 9.78994 22.6391 10.1899 22.6391 10.6166V15.0006H20.9111ZM30.2784 18.4566V11.0486C30.2784 10.1419 30.4544 9.35794 30.8064 8.69661C31.169 8.02461 31.6597 7.50728 32.2784 7.14461C32.9077 6.77128 33.617 6.58461 34.4064 6.58461C35.0784 6.58461 35.6704 6.70194 36.1824 6.93661C36.6944 7.17128 37.1264 7.49128 37.4784 7.89661C37.8304 8.30194 38.097 8.76594 38.2784 9.28861C38.4597 9.81128 38.5504 10.3606 38.5504 10.9366C38.5504 11.7793 38.3744 12.5259 38.0224 13.1766C37.681 13.8273 37.217 14.3393 36.6304 14.7126C36.0437 15.0753 35.393 15.2566 34.6784 15.2566C34.2517 15.2566 33.8624 15.1926 33.5104 15.0646C33.169 14.9473 32.8704 14.7873 32.6144 14.5846C32.369 14.3819 32.1664 14.1579 32.0064 13.9126H31.9104L32.0064 15.0326V18.4566H30.2784ZM34.3584 13.6726C34.7957 13.6726 35.201 13.5606 35.5744 13.3366C35.9584 13.1019 36.2624 12.7819 36.4864 12.3766C36.721 11.9713 36.8384 11.4966 36.8384 10.9526C36.8384 10.3659 36.721 9.86461 36.4864 9.44861C36.2517 9.03261 35.9424 8.71794 35.5584 8.50461C35.185 8.28061 34.785 8.16861 34.3584 8.16861C33.9637 8.16861 33.5797 8.27528 33.2064 8.48861C32.833 8.70194 32.5237 9.01661 32.2784 9.43261C32.033 9.84861 31.9104 10.3659 31.9104 10.9846C31.9104 11.4966 32.0224 11.9606 32.2464 12.3766C32.4704 12.7819 32.769 13.1019 33.1424 13.3366C33.5157 13.5606 33.921 13.6726 34.3584 13.6726ZM43.2653 15.2566C42.6999 15.2566 42.1666 15.1179 41.6653 14.8406C41.1639 14.5633 40.7639 14.1313 40.4653 13.5446C40.1666 12.9579 40.0173 12.2059 40.0173 11.2886C40.0173 10.7233 40.0813 10.1579 40.2093 9.59261C40.3373 9.02728 40.5133 8.50461 40.7373 8.02461C40.9719 7.54461 41.2439 7.14994 41.5533 6.84061H43.3773C43.0359 7.24594 42.7426 7.68861 42.4973 8.16861C42.2626 8.64861 42.0759 9.15528 41.9373 9.68861C41.8093 10.2113 41.7453 10.7446 41.7453 11.2886C41.7453 12.0779 41.8893 12.6806 42.1773 13.0966C42.4759 13.5019 42.8759 13.7046 43.3773 13.7046C43.6759 13.7046 43.9533 13.6353 44.2093 13.4966C44.4653 13.3473 44.6679 13.1286 44.8173 12.8406C44.9773 12.5419 45.0573 12.1633 45.0573 11.7046V8.92061H46.7853V11.7046C46.7853 12.1633 46.8599 12.5419 47.0093 12.8406C47.1693 13.1286 47.3773 13.3473 47.6333 13.4966C47.8893 13.6353 48.1666 13.7046 48.4653 13.7046C48.9346 13.7046 49.3239 13.5019 49.6333 13.0966C49.9533 12.6806 50.1133 12.0779 50.1133 11.2886C50.1133 10.7446 50.0439 10.2113 49.9053 9.68861C49.7773 9.15528 49.5906 8.64861 49.3453 8.16861C49.0999 7.68861 48.8013 7.24594 48.4493 6.84061H50.2893C50.6093 7.14994 50.8813 7.54461 51.1053 8.02461C51.3399 8.50461 51.5159 9.02728 51.6333 9.59261C51.7613 10.1579 51.8253 10.7233 51.8253 11.2886C51.8253 12.1633 51.6706 12.8993 51.3613 13.4966C51.0626 14.0833 50.6679 14.5259 50.1773 14.8246C49.6866 15.1126 49.1479 15.2566 48.5613 15.2566C48.2093 15.2566 47.8626 15.1926 47.5213 15.0646C47.1906 14.9473 46.8866 14.7606 46.6093 14.5046C46.3426 14.2486 46.1186 13.9179 45.9373 13.5126C45.7666 13.9179 45.5373 14.2486 45.2493 14.5046C44.9719 14.7606 44.6626 14.9473 44.3213 15.0646C43.9799 15.1926 43.6279 15.2566 43.2653 15.2566ZM53.5003 18.4566V6.84061H55.2283V11.7206C55.2283 12.1793 55.2976 12.5526 55.4363 12.8406C55.5856 13.1286 55.7829 13.3419 56.0283 13.4806C56.2736 13.6086 56.5456 13.6726 56.8443 13.6726C57.3136 13.6726 57.7136 13.5499 58.0443 13.3046C58.3856 13.0593 58.6469 12.7393 58.8283 12.3446C59.0096 11.9499 59.1003 11.5446 59.1003 11.1286V6.84061H60.8123V12.3126C60.8123 12.7179 60.8816 13.0219 61.0203 13.2246C61.1696 13.4166 61.4096 13.5126 61.7403 13.5126C61.8789 13.5126 62.0069 13.4966 62.1243 13.4646C62.2416 13.4219 62.3589 13.3686 62.4763 13.3046V14.9846C62.3269 15.0273 62.1723 15.0593 62.0123 15.0806C61.8629 15.1126 61.6869 15.1286 61.4843 15.1286C60.8229 15.1286 60.3269 15.0006 59.9963 14.7446C59.6763 14.4779 59.4523 14.1206 59.3243 13.6726H59.2283C59.0789 13.9499 58.8923 14.2113 58.6683 14.4566C58.4549 14.6913 58.1989 14.8833 57.9003 15.0326C57.6016 15.1819 57.2496 15.2566 56.8443 15.2566C56.5136 15.2566 56.1989 15.1819 55.9003 15.0326C55.6123 14.8939 55.3883 14.7179 55.2283 14.5046H55.1323L55.2283 15.4166V18.4566H53.5003ZM64.1049 15.0006V6.84061H65.7369V7.96061H65.8329C66.0675 7.56594 66.4142 7.24061 66.8729 6.98461C67.3422 6.71794 67.8542 6.58461 68.4089 6.58461C69.4115 6.58461 70.1635 6.88328 70.6649 7.48061C71.1662 8.06728 71.4169 8.85661 71.4169 9.84861V18.4566H69.7049V10.0726C69.7049 9.41128 69.5395 8.93128 69.2089 8.63261C68.8782 8.32328 68.4462 8.16861 67.9129 8.16861C67.4969 8.16861 67.1342 8.28594 66.8249 8.52061C66.5155 8.74461 66.2702 9.04328 66.0889 9.41661C65.9182 9.78994 65.8329 10.1899 65.8329 10.6166V15.0006H64.1049ZM66.8089 5.27261L67.4009 2.77661H69.4489L68.2649 5.27261H66.8089ZM77.3565 18.4566V6.84061H79.0845V11.7206C79.0845 12.1793 79.1538 12.5526 79.2925 12.8406C79.4418 13.1286 79.6392 13.3419 79.8845 13.4806C80.1298 13.6086 80.4018 13.6726 80.7005 13.6726C81.1698 13.6726 81.5698 13.5499 81.9005 13.3046C82.2418 13.0593 82.5032 12.7393 82.6845 12.3446C82.8658 11.9499 82.9565 11.5446 82.9565 11.1286V6.84061H84.6685V12.3126C84.6685 12.7179 84.7378 13.0219 84.8765 13.2246C85.0258 13.4166 85.2658 13.5126 85.5965 13.5126C85.7352 13.5126 85.8632 13.4966 85.9805 13.4646C86.0978 13.4219 86.2152 13.3686 86.3325 13.3046V14.9846C86.1832 15.0273 86.0285 15.0593 85.8685 15.0806C85.7192 15.1126 85.5432 15.1286 85.3405 15.1286C84.6792 15.1286 84.1832 15.0006 83.8525 14.7446C83.5325 14.4779 83.3085 14.1206 83.1805 13.6726H83.0845C82.9352 13.9499 82.7485 14.2113 82.5245 14.4566C82.3112 14.6913 82.0552 14.8833 81.7565 15.0326C81.4578 15.1819 81.1058 15.2566 80.7005 15.2566C80.3698 15.2566 80.0552 15.1819 79.7565 15.0326C79.4685 14.8939 79.2445 14.7179 79.0845 14.5046H78.9885L79.0845 15.4166V18.4566H77.3565ZM90.8966 15.2566C90.1286 15.2566 89.4833 15.1553 88.9606 14.9526C88.438 14.7393 88.0433 14.4566 87.7766 14.1046C87.51 13.7526 87.3766 13.3579 87.3766 12.9206C87.3766 12.3659 87.5206 11.9233 87.8086 11.5926C88.1073 11.2619 88.5233 11.0486 89.0566 10.9526V10.8886C88.7153 10.7926 88.4273 10.6593 88.1926 10.4886C87.9686 10.3073 87.798 10.0939 87.6806 9.84861C87.574 9.59261 87.5206 9.32061 87.5206 9.03261C87.5206 8.25394 87.83 7.65128 88.4486 7.22461C89.078 6.79794 89.9793 6.58461 91.1526 6.58461C91.6753 6.58461 92.15 6.63261 92.5766 6.72861C93.014 6.81394 93.4033 6.95261 93.7446 7.14461C94.086 7.32594 94.374 7.56061 94.6086 7.84861L93.5526 8.95261C93.286 8.67528 92.95 8.46194 92.5446 8.31261C92.15 8.15261 91.6593 8.07261 91.0726 8.07261C90.6033 8.07261 90.23 8.12594 89.9526 8.23261C89.6753 8.32861 89.478 8.46194 89.3606 8.63261C89.2433 8.80328 89.1846 8.98994 89.1846 9.19261C89.1846 9.52328 89.334 9.76861 89.6326 9.92861C89.9313 10.0779 90.342 10.1526 90.8646 10.1526H92.4966V11.6566H90.7686C90.1606 11.6566 89.7286 11.7473 89.4726 11.9286C89.2166 12.0993 89.0886 12.3499 89.0886 12.6806C89.0886 12.9899 89.238 13.2459 89.5366 13.4486C89.846 13.6406 90.3046 13.7366 90.9126 13.7366C91.5206 13.7366 92.0646 13.6353 92.5446 13.4326C93.0246 13.2193 93.398 12.9686 93.6646 12.6806L94.6726 13.7206C94.4913 13.9659 94.2353 14.2059 93.9046 14.4406C93.574 14.6753 93.158 14.8673 92.6566 15.0166C92.1553 15.1766 91.5686 15.2566 90.8966 15.2566Z" fill="white"/>
<g id="GPay (Dark)">
<g id="GPay">
<g id="Pay">
<path id="Fill 1" fill-rule="evenodd" clip-rule="evenodd" d="M123.356 3.42339V8.16175H126.278C126.974 8.16175 127.55 7.92781 128.005 7.45993C128.473 6.99313 128.707 6.43644 128.707 5.79203C128.707 5.16061 128.473 4.61041 128.005 4.14254C127.55 3.66274 126.974 3.4223 126.278 3.4223H123.356V3.42339ZM123.356 9.82966V15.3262H121.611V1.75549H126.24C127.417 1.75549 128.415 2.14756 129.238 2.93061C130.073 3.71365 130.491 4.66782 130.491 5.79203C130.491 6.94224 130.073 7.90291 129.238 8.67296C128.428 9.44409 127.429 9.82858 126.24 9.82858H123.356V9.82966Z" fill="white"/>
<path id="Fill 3" fill-rule="evenodd" clip-rule="evenodd" d="M132.255 12.4831C132.255 12.9379 132.448 13.317 132.834 13.6203C133.22 13.9235 133.672 14.0752 134.19 14.0752C134.924 14.0752 135.578 13.8032 136.153 13.2607C136.729 12.717 137.017 12.0791 137.017 11.3469C136.472 10.917 135.713 10.7025 134.74 10.7025C134.031 10.7025 133.44 10.8736 132.966 11.2148C132.492 11.5559 132.255 11.9773 132.255 12.4831M134.513 5.73566C135.803 5.73566 136.821 6.08007 137.569 6.76889C138.314 7.45771 138.687 8.40213 138.687 9.60216V15.3261H137.018V14.0373H136.942C136.221 15.0985 135.259 15.6294 134.058 15.6294C133.033 15.6294 132.176 15.3261 131.487 14.7196C130.797 14.1131 130.453 13.3549 130.453 12.4452C130.453 11.4845 130.816 10.7208 131.543 10.1523C132.271 9.58375 133.241 9.2989 134.456 9.2989C135.492 9.2989 136.346 9.48844 137.017 9.86751V9.46894C137.017 8.86243 136.776 8.34798 136.296 7.92451C135.814 7.50103 135.252 7.28984 134.607 7.28984C133.633 7.28984 132.862 7.70032 132.293 8.52235L130.755 7.55519C131.603 6.34217 132.855 5.73566 134.513 5.73566" fill="white"/>
<path id="Fill 5" fill-rule="evenodd" clip-rule="evenodd" d="M148.269 6.03894L142.443 19.4201H140.641L142.804 14.738L138.971 6.03894H140.869L143.639 12.7106H143.677L146.371 6.03894H148.269Z" fill="white"/>
</g>
<g id="G">
<path id="Fill 8" fill-rule="evenodd" clip-rule="evenodd" d="M116.303 8.64473C116.303 8.09563 116.256 7.56601 116.168 7.05914H108.806V10.0625H113.023C112.842 11.0414 112.294 11.8744 111.464 12.4322V14.3828H113.98C115.454 13.0246 116.303 11.0177 116.303 8.64473" fill="#4285F4"/>
<path id="Fill 10" fill-rule="evenodd" clip-rule="evenodd" d="M108.806 16.2651C110.913 16.2651 112.687 15.5741 113.98 14.3828L111.464 12.4322C110.763 12.9033 109.861 13.1784 108.806 13.1784C106.77 13.1784 105.042 11.8073 104.424 9.95959H101.832V11.9687C103.116 14.516 105.757 16.2651 108.806 16.2651" fill="#34A853"/>
<path id="Fill 12" fill-rule="evenodd" clip-rule="evenodd" d="M104.424 9.9596C104.266 9.48847 104.179 8.98593 104.179 8.46715C104.179 7.94837 104.266 7.44583 104.424 6.9747V4.96564H101.832C101.3 6.01837 101 7.20756 101 8.46715C101 9.72674 101.3 10.916 101.832 11.9687L104.424 9.9596Z" fill="#FABB05"/>
<path id="Fill 14" fill-rule="evenodd" clip-rule="evenodd" d="M108.806 3.75583C109.957 3.75583 110.988 4.15115 111.801 4.92553V4.92661L114.029 2.70094C112.676 1.44243 110.912 0.669128 108.806 0.669128C105.757 0.669128 103.116 2.41826 101.832 4.9656L104.424 6.97467C105.042 5.12698 106.77 3.75583 108.806 3.75583" fill="#E94235"/>
</g>
</g>
</g>
</g>
</svg>
