<svg width="264" height="38" viewBox="0 0 264 38" fill="none" xmlns="http://www.w3.org/2000/svg">
<g id="el_pay_with_Dark">
<path id="Text" d="M4.22035 30V9.952H19.3403V30H16.2603V12.864H7.30035V30H4.22035ZM22.1365 30L28.0725 16.616L27.0365 14.404C26.7005 13.676 26.3738 13.1907 26.0565 12.948C25.7392 12.6867 25.3378 12.556 24.8525 12.556C24.4045 12.556 23.9752 12.6773 23.5645 12.92V9.98C23.8258 9.90533 24.1058 9.84933 24.4045 9.812C24.7032 9.756 25.0485 9.728 25.4405 9.728C26.2058 9.728 26.8312 9.84 27.3165 10.064C27.8205 10.288 28.2498 10.6707 28.6045 11.212C28.9778 11.7347 29.3512 12.4347 29.7245 13.312L36.9765 30H33.6725L29.7245 20.256H29.5845L25.4965 30H22.1365ZM39.2617 30V15.72H42.1177V17.68H42.2857C42.6963 16.9893 43.303 16.42 44.1057 15.972C44.927 15.5053 45.823 15.272 46.7937 15.272C48.5483 15.272 49.8643 15.7947 50.7417 16.84C51.619 17.8853 52.0577 19.2667 52.0577 20.984V36.048H49.0617V21.376C49.0617 20.2187 48.7723 19.3787 48.1937 18.856C47.615 18.3147 46.859 18.044 45.9257 18.044C45.1977 18.044 44.563 18.2493 44.0217 18.66C43.4803 19.052 43.051 19.5747 42.7337 20.228C42.435 20.8813 42.2857 21.5813 42.2857 22.328V30H39.2617ZM55.6918 36.048V23.084C55.6918 21.4973 55.9998 20.1253 56.6158 18.968C57.2505 17.792 58.1092 16.8867 59.1918 16.252C60.2932 15.5987 61.5345 15.272 62.9158 15.272C64.4838 15.272 65.7998 15.6267 66.8638 16.336C67.9465 17.0267 68.7678 17.96 69.3278 19.136C69.8878 20.2933 70.1678 21.544 70.1678 22.888C70.1678 24.3627 69.8598 25.6693 69.2438 26.808C68.6465 27.9467 67.8345 28.8427 66.8078 29.496C65.7812 30.1307 64.6425 30.448 63.3918 30.448C62.2718 30.448 61.3105 30.2147 60.5078 29.748C59.7238 29.2813 59.1265 28.7307 58.7158 28.096H58.5478L58.7158 30.056V36.048H55.6918ZM62.8318 27.676C63.5972 27.676 64.3065 27.48 64.9598 27.088C65.6132 26.6773 66.1452 26.1173 66.5558 25.408C66.9665 24.6987 67.1718 23.868 67.1718 22.916C67.1718 21.8893 66.9572 21.012 66.5278 20.284C66.1172 19.556 65.5852 19.0053 64.9318 18.632C64.2785 18.24 63.5785 18.044 62.8318 18.044C62.1412 18.044 61.4692 18.2307 60.8158 18.604C60.1625 18.9773 59.6212 19.528 59.1918 20.256C58.7625 20.984 58.5478 21.8893 58.5478 22.972C58.5478 23.868 58.7438 24.68 59.1358 25.408C59.5278 26.1173 60.0505 26.6773 60.7038 27.088C61.3572 27.48 62.0665 27.676 62.8318 27.676ZM78.4564 30.448C77.4484 30.448 76.515 30.2147 75.6564 29.748C74.7977 29.2627 74.0977 28.5067 73.5564 27.48C73.0337 26.4533 72.7724 25.128 72.7724 23.504C72.7724 22.5147 72.875 21.5347 73.0804 20.564C73.3044 19.5747 73.6217 18.66 74.0324 17.82C74.443 16.9613 74.919 16.2613 75.4604 15.72H78.6524C77.7564 16.7653 77.0564 17.9693 76.5524 19.332C76.0484 20.6947 75.7964 22.0853 75.7964 23.504C75.7964 24.8853 76.0484 25.94 76.5524 26.668C77.075 27.3773 77.775 27.732 78.6524 27.732C79.4364 27.732 80.1177 27.452 80.6964 26.892C81.2937 26.332 81.5924 25.4453 81.5924 24.232V19.36H84.6164V24.232C84.6164 25.4453 84.9057 26.332 85.4844 26.892C86.0817 27.452 86.7724 27.732 87.5564 27.732C88.3777 27.732 89.059 27.3773 89.6004 26.668C90.1604 25.94 90.4404 24.8853 90.4404 23.504C90.4404 22.0853 90.179 20.6947 89.6564 19.332C89.1524 17.9693 88.443 16.7653 87.5284 15.72H90.7484C91.2897 16.2613 91.7657 16.9613 92.1764 17.82C92.587 18.66 92.895 19.5747 93.1004 20.564C93.3244 21.5347 93.4364 22.5147 93.4364 23.504C93.4364 25.0347 93.1657 26.3227 92.6244 27.368C92.1017 28.3947 91.4017 29.1693 90.5244 29.692C89.6657 30.196 88.7324 30.448 87.7244 30.448C86.791 30.448 85.9044 30.2053 85.0644 29.72C84.243 29.2347 83.599 28.46 83.1324 27.396C82.6844 28.46 82.031 29.2347 81.1724 29.72C80.3137 30.2053 79.4084 30.448 78.4564 30.448ZM96.6786 36.048V15.72H99.7026V24.26C99.7026 25.4733 99.9732 26.3507 100.515 26.892C101.075 27.4147 101.747 27.676 102.531 27.676C103.333 27.676 104.024 27.4613 104.603 27.032C105.2 26.6027 105.657 26.052 105.975 25.38C106.311 24.6893 106.479 23.9707 106.479 23.224V15.72H109.475V25.296C109.475 26.0053 109.596 26.5373 109.839 26.892C110.1 27.228 110.52 27.396 111.099 27.396C111.341 27.396 111.565 27.368 111.771 27.312C111.976 27.2373 112.181 27.144 112.387 27.032V29.972C112.125 30.0467 111.855 30.1027 111.575 30.14C111.313 30.196 111.005 30.224 110.651 30.224C109.512 30.224 108.653 30 108.075 29.552C107.496 29.0853 107.095 28.46 106.871 27.676H106.703C106.311 28.4227 105.779 29.076 105.107 29.636C104.435 30.1773 103.576 30.448 102.531 30.448C101.952 30.448 101.401 30.3267 100.879 30.084C100.356 29.8413 99.9639 29.524 99.7026 29.132H99.5346L99.7026 30.728V36.048H96.6786ZM115.274 30V15.72H118.13V17.68H118.298C118.709 16.9893 119.315 16.42 120.118 15.972C120.939 15.5053 121.835 15.272 122.806 15.272C124.561 15.272 125.877 15.7947 126.754 16.84C127.631 17.8853 128.07 19.2667 128.07 20.984V36.048H125.074V21.376C125.074 20.2187 124.785 19.3787 124.206 18.856C123.627 18.3147 122.871 18.044 121.938 18.044C121.21 18.044 120.575 18.2493 120.034 18.66C119.493 19.052 119.063 19.5747 118.746 20.228C118.447 20.8813 118.298 21.5813 118.298 22.328V30H115.274ZM120.006 12.976L121.042 8.608H124.626L122.554 12.976H120.006ZM138.539 36.048V15.72H141.563V24.26C141.563 25.4733 141.834 26.3507 142.375 26.892C142.935 27.4147 143.607 27.676 144.391 27.676C145.194 27.676 145.885 27.4613 146.463 27.032C147.061 26.6027 147.518 26.052 147.835 25.38C148.171 24.6893 148.339 23.9707 148.339 23.224V15.72H151.335V25.296C151.335 26.0053 151.457 26.5373 151.699 26.892C151.961 27.228 152.381 27.396 152.959 27.396C153.202 27.396 153.426 27.368 153.631 27.312C153.837 27.2373 154.042 27.144 154.247 27.032V29.972C153.986 30.0467 153.715 30.1027 153.435 30.14C153.174 30.196 152.866 30.224 152.511 30.224C151.373 30.224 150.514 30 149.935 29.552C149.357 29.0853 148.955 28.46 148.731 27.676H148.563C148.171 28.4227 147.639 29.076 146.967 29.636C146.295 30.1773 145.437 30.448 144.391 30.448C143.813 30.448 143.262 30.3267 142.739 30.084C142.217 29.8413 141.825 29.524 141.563 29.132H141.395L141.563 30.728V36.048H138.539ZM162.819 30.448C160.803 30.448 159.272 30.056 158.227 29.272C157.182 28.488 156.659 27.5173 156.659 26.36C156.659 25.408 156.911 24.6427 157.415 24.064C157.938 23.4667 158.666 23.084 159.599 22.916V22.804C158.684 22.58 158.003 22.1693 157.555 21.572C157.126 20.9747 156.911 20.3027 156.911 19.556C156.911 18.212 157.452 17.1667 158.535 16.42C159.636 15.6547 161.214 15.272 163.267 15.272C164.63 15.272 165.824 15.4493 166.851 15.804C167.878 16.1587 168.699 16.7187 169.315 17.484L167.467 19.416C167.019 18.9493 166.44 18.576 165.731 18.296C165.04 18.016 164.172 17.876 163.127 17.876C161.876 17.876 161.008 18.072 160.523 18.464C160.056 18.856 159.823 19.3133 159.823 19.836C159.823 20.4147 160.084 20.844 160.607 21.124C161.13 21.3853 161.848 21.516 162.763 21.516H165.619V24.148H162.595C161.531 24.148 160.775 24.3067 160.327 24.624C159.879 24.9413 159.655 25.38 159.655 25.94C159.655 26.5 159.916 26.948 160.439 27.284C160.98 27.62 161.783 27.788 162.847 27.788C163.911 27.788 164.863 27.6107 165.703 27.256C166.543 26.9013 167.196 26.4627 167.663 25.94L169.427 27.76C168.96 28.4133 168.186 29.0293 167.103 29.608C166.02 30.168 164.592 30.448 162.819 30.448Z" fill="white"/>
<g id="GPay Logo (Dark)">
<g id="GPay">
<g id="Pay">
<path id="Fill 1" fill-rule="evenodd" clip-rule="evenodd" d="M220.529 9.34665V17.5128H225.565C226.765 17.5128 227.757 17.1096 228.541 16.3032C229.347 15.4988 229.75 14.5394 229.75 13.4288C229.75 12.3406 229.347 11.3924 228.541 10.586C227.757 9.75916 226.765 9.34479 225.565 9.34479H220.529V9.34665ZM220.529 20.3872V29.8599H217.521V6.47218H225.499C227.527 6.47218 229.248 7.14787 230.666 8.49738C232.105 9.84688 232.824 11.4913 232.824 13.4288C232.824 15.411 232.105 17.0667 230.666 18.3938C229.27 19.7227 227.547 20.3854 225.499 20.3854H220.529V20.3872Z" fill="white"/>
<path id="Fill 3" fill-rule="evenodd" clip-rule="evenodd" d="M235.864 24.9602C235.864 25.7442 236.197 26.3975 236.862 26.9201C237.527 27.4427 238.306 27.704 239.2 27.704C240.465 27.704 241.591 27.2354 242.584 26.3004C243.576 25.3634 244.071 24.264 244.071 23.0022C243.133 22.2612 241.825 21.8916 240.147 21.8916C238.925 21.8916 237.907 22.1866 237.09 22.7745C236.273 23.3623 235.864 24.0886 235.864 24.9602ZM239.756 13.3317C241.98 13.3317 243.735 13.9253 245.022 15.1124C246.308 16.2995 246.95 17.9271 246.95 19.9952V29.8599H244.073V27.6387H243.942C242.699 29.4677 241.042 30.3825 238.972 30.3825C237.206 30.3825 235.728 29.8599 234.541 28.8146C233.353 27.7694 232.759 26.4628 232.759 24.8949C232.759 23.2393 233.385 21.9232 234.638 20.9434C235.892 19.9635 237.565 19.4726 239.658 19.4726C241.444 19.4726 242.916 19.7993 244.071 20.4525V19.7657C244.071 18.7204 243.656 17.8338 242.829 17.104C241.999 16.3742 241.031 16.0102 239.919 16.0102C238.239 16.0102 236.911 16.7176 235.93 18.1343L233.28 16.4675C234.741 14.377 236.899 13.3317 239.756 13.3317Z" fill="white"/>
<path id="Fill 5" fill-rule="evenodd" clip-rule="evenodd" d="M263.463 13.8543L253.424 36.9154H250.318L254.046 28.8464L247.44 13.8543H250.71L255.484 25.3522H255.55L260.193 13.8543H263.463Z" fill="white"/>
</g>
<g id="G">
<path id="Fill 8" fill-rule="evenodd" clip-rule="evenodd" d="M208.373 18.3452C208.373 17.3989 208.293 16.4861 208.141 15.6126H195.454V20.7885H202.72C202.408 22.4757 201.465 23.9112 200.033 24.8725V28.2341H204.37C206.91 25.8935 208.373 22.4348 208.373 18.3452Z" fill="#4285F4"/>
<path id="Fill 10" fill-rule="evenodd" clip-rule="evenodd" d="M195.454 31.4782C199.084 31.4782 202.141 30.2873 204.37 28.2341L200.033 24.8725C198.826 25.6844 197.272 26.1585 195.454 26.1585C191.944 26.1585 188.966 23.7955 187.901 20.6112H183.433V24.0736C185.647 28.4637 190.197 31.4782 195.454 31.4782Z" fill="#34A853"/>
<path id="Fill 12" fill-rule="evenodd" clip-rule="evenodd" d="M187.901 20.6111C187.628 19.7992 187.479 18.9331 187.479 18.0391C187.479 17.145 187.628 16.2789 187.901 15.467V12.0045H183.433C182.518 13.8188 182 15.8683 182 18.0391C182 20.2098 182.518 22.2595 183.433 24.0736L187.901 20.6111Z" fill="#FABB05"/>
<path id="Fill 14" fill-rule="evenodd" clip-rule="evenodd" d="M195.454 9.91964C197.436 9.91964 199.213 10.6009 200.615 11.9355V11.9374L204.455 8.10163C202.123 5.93272 199.082 4.60001 195.454 4.60001C190.197 4.60001 185.647 7.61447 183.433 12.0046L187.901 15.467C188.966 12.2827 191.944 9.91964 195.454 9.91964Z" fill="#E94235"/>
</g>
</g>
</g>
</g>
</svg>
