<svg width="256" height="38" viewBox="0 0 256 38" fill="none" xmlns="http://www.w3.org/2000/svg">
<g id="el_subscribe_with_Dark">
<path id="Text" d="M2.37269 30V9.952H14.5247V12.864H5.45269V18.52H13.6287V21.432H5.45269V27.088H14.5247V30H2.37269ZM22.5321 36.048V30L16.6241 15.72H19.9841L23.9881 26.136H24.1281L28.2161 15.72H31.5201L25.5561 30V36.048H22.5321ZM38.1173 36.048V30L32.2093 15.72H35.5693L39.5733 26.136H39.7133L43.8013 15.72H47.1053L41.1413 30V36.048H38.1173ZM49.2504 36.048V23.084C49.2504 21.4973 49.5584 20.1253 50.1744 18.968C50.8091 17.792 51.6678 16.8867 52.7504 16.252C53.8518 15.5987 55.0931 15.272 56.4744 15.272C58.0424 15.272 59.3584 15.6267 60.4224 16.336C61.5051 17.0267 62.3264 17.96 62.8864 19.136C63.4464 20.2933 63.7264 21.544 63.7264 22.888C63.7264 24.3627 63.4184 25.6693 62.8024 26.808C62.2051 27.9467 61.3931 28.8427 60.3664 29.496C59.3398 30.1307 58.2011 30.448 56.9504 30.448C55.8304 30.448 54.8691 30.2147 54.0664 29.748C53.2824 29.2813 52.6851 28.7307 52.2744 28.096H52.1064L52.2744 30.056V36.048H49.2504ZM56.3904 27.676C57.1558 27.676 57.8651 27.48 58.5184 27.088C59.1718 26.6773 59.7038 26.1173 60.1144 25.408C60.5251 24.6987 60.7304 23.868 60.7304 22.916C60.7304 21.8893 60.5158 21.012 60.0864 20.284C59.6758 19.556 59.1438 19.0053 58.4904 18.632C57.8371 18.24 57.1371 18.044 56.3904 18.044C55.6998 18.044 55.0278 18.2307 54.3744 18.604C53.7211 18.9773 53.1798 19.528 52.7504 20.256C52.3211 20.984 52.1064 21.8893 52.1064 22.972C52.1064 23.868 52.3024 24.68 52.6944 25.408C53.0864 26.1173 53.6091 26.6773 54.2624 27.088C54.9158 27.48 55.6251 27.676 56.3904 27.676ZM72.799 30.448C71.5856 30.448 70.4656 30.1307 69.439 29.496C68.4123 28.8427 67.591 27.956 66.975 26.836C66.359 25.6973 66.051 24.3813 66.051 22.888C66.051 21.376 66.359 20.0507 66.975 18.912C67.6096 17.7547 68.4403 16.8587 69.467 16.224C70.5123 15.5893 71.651 15.272 72.883 15.272C73.9283 15.272 74.8523 15.5053 75.655 15.972C76.4763 16.42 77.0923 16.98 77.503 17.652H77.671V15.72H80.499V25.24C80.499 25.9493 80.6203 26.4907 80.863 26.864C81.1056 27.2187 81.5256 27.396 82.123 27.396C82.3656 27.396 82.5896 27.368 82.795 27.312C83.0003 27.2373 83.2056 27.144 83.411 27.032V29.972C82.851 30.14 82.263 30.224 81.647 30.224C80.583 30.224 79.7523 30.0093 79.155 29.58C78.5576 29.1507 78.147 28.516 77.923 27.676H77.755C76.6723 29.524 75.0203 30.448 72.799 30.448ZM73.359 27.676C74.1056 27.676 74.8056 27.48 75.459 27.088C76.131 26.696 76.663 26.1453 77.055 25.436C77.4656 24.708 77.671 23.8493 77.671 22.86C77.671 21.8707 77.4656 21.0213 77.055 20.312C76.663 19.584 76.131 19.024 75.459 18.632C74.8056 18.24 74.1056 18.044 73.359 18.044C72.6123 18.044 71.9123 18.24 71.259 18.632C70.6056 19.024 70.0736 19.584 69.663 20.312C69.2523 21.0213 69.047 21.8707 69.047 22.86C69.047 23.8493 69.2523 24.708 69.663 25.436C70.0736 26.1453 70.6056 26.696 71.259 27.088C71.9123 27.48 72.6123 27.676 73.359 27.676ZM85.5189 22.86C85.5189 21.516 85.7896 20.2933 86.3309 19.192C86.8909 18.0907 87.7496 17.1947 88.9069 16.504C90.0643 15.7947 91.5483 15.356 93.3589 15.188V11.688H96.3829V15.188C98.1936 15.356 99.6683 15.7947 100.807 16.504C101.964 17.1947 102.814 18.0907 103.355 19.192C103.915 20.2933 104.195 21.516 104.195 22.86C104.195 24.148 103.915 25.3427 103.355 26.444C102.814 27.5453 101.964 28.46 100.807 29.188C99.6496 29.916 98.1749 30.364 96.3829 30.532V36.048H93.3589V30.532C91.5483 30.364 90.0643 29.916 88.9069 29.188C87.7496 28.46 86.8909 27.5453 86.3309 26.444C85.7896 25.3427 85.5189 24.148 85.5189 22.86ZM101.199 22.86C101.199 21.4413 100.816 20.2933 100.051 19.416C99.3043 18.52 98.0816 17.9787 96.3829 17.792V27.928C98.0629 27.7227 99.2856 27.1627 100.051 26.248C100.816 25.3147 101.199 24.1853 101.199 22.86ZM88.5429 22.86C88.5429 24.1667 88.9163 25.2867 89.6629 26.22C90.4096 27.1347 91.6416 27.704 93.3589 27.928V17.792C91.6603 17.9973 90.4283 18.548 89.6629 19.444C88.9163 20.3213 88.5429 21.46 88.5429 22.86ZM107.274 30V15.72H110.13V17.68H110.298C110.709 16.9893 111.315 16.42 112.118 15.972C112.939 15.5053 113.835 15.272 114.806 15.272C116.561 15.272 117.877 15.7947 118.754 16.84C119.631 17.8853 120.07 19.2667 120.07 20.984V36.048H117.074V21.376C117.074 20.2187 116.785 19.3787 116.206 18.856C115.627 18.3147 114.871 18.044 113.938 18.044C113.21 18.044 112.575 18.2493 112.034 18.66C111.493 19.052 111.063 19.5747 110.746 20.228C110.447 20.8813 110.298 21.5813 110.298 22.328V30H107.274ZM112.006 12.976L113.042 8.608H116.626L114.554 12.976H112.006ZM130.539 36.048V15.72H133.563V24.26C133.563 25.4733 133.834 26.3507 134.375 26.892C134.935 27.4147 135.607 27.676 136.391 27.676C137.194 27.676 137.885 27.4613 138.463 27.032C139.061 26.6027 139.518 26.052 139.835 25.38C140.171 24.6893 140.339 23.9707 140.339 23.224V15.72H143.335V25.296C143.335 26.0053 143.457 26.5373 143.699 26.892C143.961 27.228 144.381 27.396 144.959 27.396C145.202 27.396 145.426 27.368 145.631 27.312C145.837 27.2373 146.042 27.144 146.247 27.032V29.972C145.986 30.0467 145.715 30.1027 145.435 30.14C145.174 30.196 144.866 30.224 144.511 30.224C143.373 30.224 142.514 30 141.935 29.552C141.357 29.0853 140.955 28.46 140.731 27.676H140.563C140.171 28.4227 139.639 29.076 138.967 29.636C138.295 30.1773 137.437 30.448 136.391 30.448C135.813 30.448 135.262 30.3267 134.739 30.084C134.217 29.8413 133.825 29.524 133.563 29.132H133.395L133.563 30.728V36.048H130.539ZM154.819 30.448C152.803 30.448 151.272 30.056 150.227 29.272C149.182 28.488 148.659 27.5173 148.659 26.36C148.659 25.408 148.911 24.6427 149.415 24.064C149.938 23.4667 150.666 23.084 151.599 22.916V22.804C150.684 22.58 150.003 22.1693 149.555 21.572C149.126 20.9747 148.911 20.3027 148.911 19.556C148.911 18.212 149.452 17.1667 150.535 16.42C151.636 15.6547 153.214 15.272 155.267 15.272C156.63 15.272 157.824 15.4493 158.851 15.804C159.878 16.1587 160.699 16.7187 161.315 17.484L159.467 19.416C159.019 18.9493 158.44 18.576 157.731 18.296C157.04 18.016 156.172 17.876 155.127 17.876C153.876 17.876 153.008 18.072 152.523 18.464C152.056 18.856 151.823 19.3133 151.823 19.836C151.823 20.4147 152.084 20.844 152.607 21.124C153.13 21.3853 153.848 21.516 154.763 21.516H157.619V24.148H154.595C153.531 24.148 152.775 24.3067 152.327 24.624C151.879 24.9413 151.655 25.38 151.655 25.94C151.655 26.5 151.916 26.948 152.439 27.284C152.98 27.62 153.783 27.788 154.847 27.788C155.911 27.788 156.863 27.6107 157.703 27.256C158.543 26.9013 159.196 26.4627 159.663 25.94L161.427 27.76C160.96 28.4133 160.186 29.0293 159.103 29.608C158.02 30.168 156.592 30.448 154.819 30.448Z" fill="white"/>
<g id="GPay Logo (Dark)">
<g id="GPay">
<g id="Pay">
<path id="Fill 1" fill-rule="evenodd" clip-rule="evenodd" d="M212.529 9.34665V17.5128H217.565C218.765 17.5128 219.757 17.1096 220.541 16.3032C221.347 15.4988 221.75 14.5394 221.75 13.4288C221.75 12.3406 221.347 11.3924 220.541 10.586C219.757 9.75916 218.765 9.34479 217.565 9.34479H212.529V9.34665ZM212.529 20.3872V29.8599H209.521V6.47218H217.499C219.527 6.47218 221.248 7.14787 222.666 8.49738C224.105 9.84688 224.824 11.4913 224.824 13.4288C224.824 15.411 224.105 17.0667 222.666 18.3938C221.27 19.7227 219.547 20.3854 217.499 20.3854H212.529V20.3872Z" fill="white"/>
<path id="Fill 3" fill-rule="evenodd" clip-rule="evenodd" d="M227.864 24.9602C227.864 25.7442 228.197 26.3975 228.862 26.9201C229.527 27.4427 230.306 27.704 231.2 27.704C232.465 27.704 233.591 27.2354 234.584 26.3004C235.576 25.3634 236.071 24.264 236.071 23.0022C235.133 22.2612 233.825 21.8916 232.147 21.8916C230.925 21.8916 229.907 22.1866 229.09 22.7745C228.273 23.3623 227.864 24.0886 227.864 24.9602ZM231.756 13.3317C233.98 13.3317 235.735 13.9253 237.022 15.1124C238.308 16.2995 238.95 17.9271 238.95 19.9952V29.8599H236.073V27.6387H235.942C234.699 29.4677 233.042 30.3825 230.972 30.3825C229.206 30.3825 227.728 29.8599 226.541 28.8146C225.353 27.7694 224.759 26.4628 224.759 24.8949C224.759 23.2393 225.385 21.9232 226.638 20.9434C227.892 19.9635 229.565 19.4726 231.658 19.4726C233.444 19.4726 234.916 19.7993 236.071 20.4525V19.7657C236.071 18.7204 235.656 17.8338 234.829 17.104C233.999 16.3742 233.031 16.0102 231.919 16.0102C230.239 16.0102 228.911 16.7176 227.93 18.1343L225.28 16.4675C226.741 14.377 228.899 13.3317 231.756 13.3317Z" fill="white"/>
<path id="Fill 5" fill-rule="evenodd" clip-rule="evenodd" d="M255.463 13.8543L245.424 36.9154H242.318L246.046 28.8464L239.44 13.8543H242.71L247.484 25.3522H247.55L252.193 13.8543H255.463Z" fill="white"/>
</g>
<g id="G">
<path id="Fill 8" fill-rule="evenodd" clip-rule="evenodd" d="M200.373 18.3452C200.373 17.3989 200.293 16.4861 200.141 15.6126H187.454V20.7885H194.72C194.408 22.4757 193.465 23.9112 192.033 24.8725V28.2341H196.37C198.91 25.8935 200.373 22.4348 200.373 18.3452Z" fill="#4285F4"/>
<path id="Fill 10" fill-rule="evenodd" clip-rule="evenodd" d="M187.454 31.4782C191.084 31.4782 194.141 30.2873 196.37 28.2341L192.033 24.8725C190.826 25.6844 189.272 26.1585 187.454 26.1585C183.944 26.1585 180.966 23.7955 179.901 20.6112H175.433V24.0736C177.647 28.4637 182.197 31.4782 187.454 31.4782Z" fill="#34A853"/>
<path id="Fill 12" fill-rule="evenodd" clip-rule="evenodd" d="M179.901 20.6111C179.628 19.7992 179.479 18.9331 179.479 18.0391C179.479 17.145 179.628 16.2789 179.901 15.467V12.0045H175.433C174.518 13.8188 174 15.8683 174 18.0391C174 20.2098 174.518 22.2595 175.433 24.0736L179.901 20.6111Z" fill="#FABB05"/>
<path id="Fill 14" fill-rule="evenodd" clip-rule="evenodd" d="M187.454 9.91964C189.436 9.91964 191.213 10.6009 192.615 11.9355V11.9374L196.455 8.10163C194.123 5.93272 191.082 4.60001 187.454 4.60001C182.197 4.60001 177.647 7.61447 175.433 12.0046L179.901 15.467C180.966 12.2827 183.944 9.91964 187.454 9.91964Z" fill="#E94235"/>
</g>
</g>
</g>
</g>
</svg>
