<svg width="146" height="21" viewBox="0 0 146 21" fill="none" xmlns="http://www.w3.org/2000/svg">
<g id="el_subscribe_with_Pay_NBG">
<path id="Left Text" d="M2.22725 15.0006V3.54461H9.17125V5.20861H3.98725V8.44061H8.65925V10.1046H3.98725V13.3366H9.17125V15.0006H2.22725ZM13.413 18.4566V15.0006L10.037 6.84061H11.957L14.245 12.7926H14.325L16.661 6.84061H18.549L15.141 15.0006V18.4566H13.413ZM22.2974 18.4566V15.0006L18.9214 6.84061H20.8414L23.1294 12.7926H23.2094L25.5454 6.84061H27.4334L24.0254 15.0006V18.4566H22.2974ZM28.4815 18.4566V11.0486C28.4815 10.1419 28.6575 9.35794 29.0095 8.69661C29.3722 8.02461 29.8628 7.50728 30.4815 7.14461C31.1108 6.77128 31.8202 6.58461 32.6095 6.58461C33.2815 6.58461 33.8735 6.70194 34.3855 6.93661C34.8975 7.17128 35.3295 7.49128 35.6815 7.89661C36.0335 8.30194 36.3002 8.76594 36.4815 9.28861C36.6628 9.81128 36.7535 10.3606 36.7535 10.9366C36.7535 11.7793 36.5775 12.5259 36.2255 13.1766C35.8842 13.8273 35.4202 14.3393 34.8335 14.7126C34.2468 15.0753 33.5962 15.2566 32.8815 15.2566C32.4548 15.2566 32.0655 15.1926 31.7135 15.0646C31.3722 14.9473 31.0735 14.7873 30.8175 14.5846C30.5722 14.3819 30.3695 14.1579 30.2095 13.9126H30.1135L30.2095 15.0326V18.4566H28.4815ZM32.5615 13.6726C32.9988 13.6726 33.4042 13.5606 33.7775 13.3366C34.1615 13.1019 34.4655 12.7819 34.6895 12.3766C34.9242 11.9713 35.0415 11.4966 35.0415 10.9526C35.0415 10.3659 34.9242 9.86461 34.6895 9.44861C34.4548 9.03261 34.1455 8.71794 33.7615 8.50461C33.3882 8.28061 32.9882 8.16861 32.5615 8.16861C32.1668 8.16861 31.7828 8.27528 31.4095 8.48861C31.0362 8.70194 30.7268 9.01661 30.4815 9.43261C30.2362 9.84861 30.1135 10.3659 30.1135 10.9846C30.1135 11.4966 30.2255 11.9606 30.4495 12.3766C30.6735 12.7819 30.9722 13.1019 31.3455 13.3366C31.7188 13.5606 32.1242 13.6726 32.5615 13.6726ZM41.9164 15.2566C41.3937 15.2566 40.8977 15.1553 40.4284 14.9526C39.9697 14.7393 39.559 14.4406 39.1964 14.0566C38.8444 13.6726 38.567 13.2193 38.3644 12.6966C38.1617 12.1633 38.0604 11.5766 38.0604 10.9366C38.0604 10.0619 38.2364 9.29928 38.5884 8.64861C38.951 7.99794 39.4257 7.49128 40.0124 7.12861C40.6097 6.76594 41.2604 6.58461 41.9644 6.58461C42.3697 6.58461 42.7377 6.64328 43.0684 6.76061C43.4097 6.87794 43.7084 7.04328 43.9644 7.25661C44.231 7.45928 44.4444 7.68861 44.6044 7.94461H44.7004V6.84061H46.3164V12.2806C46.3164 12.6966 46.3857 13.0059 46.5244 13.2086C46.663 13.4113 46.903 13.5126 47.2444 13.5126C47.383 13.5126 47.511 13.4966 47.6284 13.4646C47.7564 13.4219 47.8737 13.3686 47.9804 13.3046V14.9846C47.831 15.0273 47.671 15.0593 47.5004 15.0806C47.3297 15.1126 47.1537 15.1286 46.9724 15.1286C46.375 15.1286 45.9057 15.0113 45.5644 14.7766C45.223 14.5313 44.983 14.1633 44.8444 13.6726H44.7484C44.439 14.1953 44.0444 14.5899 43.5644 14.8566C43.0844 15.1233 42.535 15.2566 41.9164 15.2566ZM42.2364 13.6726C42.663 13.6726 43.063 13.5606 43.4364 13.3366C43.8204 13.1126 44.1244 12.7979 44.3484 12.3926C44.583 11.9766 44.7004 11.4859 44.7004 10.9206C44.7004 10.3553 44.583 9.86994 44.3484 9.46461C44.1244 9.04861 43.8204 8.72861 43.4364 8.50461C43.063 8.28061 42.663 8.16861 42.2364 8.16861C41.8097 8.16861 41.4097 8.28061 41.0364 8.50461C40.663 8.72861 40.359 9.04861 40.1244 9.46461C39.8897 9.86994 39.7724 10.3553 39.7724 10.9206C39.7724 11.4753 39.8897 11.9606 40.1244 12.3766C40.359 12.7926 40.663 13.1126 41.0364 13.3366C41.4097 13.5606 41.8097 13.6726 42.2364 13.6726ZM48.851 10.9206C48.851 10.0779 49.0377 9.32594 49.411 8.66461C49.795 7.99261 50.3817 7.46461 51.171 7.08061C51.7577 6.79261 52.4777 6.61128 53.331 6.53661V4.53661H55.059V6.53661C55.9123 6.61128 56.6377 6.79261 57.235 7.08061C58.0243 7.46461 58.6003 7.99261 58.963 8.66461C59.3363 9.32594 59.523 10.0779 59.523 10.9206C59.523 11.7206 59.3363 12.4566 58.963 13.1286C58.5897 13.8006 58.0137 14.3393 57.235 14.7446C56.6377 15.0433 55.9123 15.2299 55.059 15.3046V18.4566H53.331V15.3046C52.4777 15.2299 51.7577 15.0433 51.171 14.7446C50.371 14.3393 49.7843 13.8006 49.411 13.1286C49.0377 12.4566 48.851 11.7206 48.851 10.9206ZM55.059 8.02461V13.8326C55.5283 13.7686 55.9337 13.6566 56.275 13.4966C56.7977 13.2406 57.1817 12.8939 57.427 12.4566C57.683 12.0086 57.811 11.4966 57.811 10.9206C57.811 10.3019 57.6883 9.77394 57.443 9.33661C57.1977 8.89928 56.8137 8.56328 56.291 8.32861C55.9497 8.17928 55.539 8.07794 55.059 8.02461ZM50.579 10.9206C50.579 11.4966 50.7017 12.0086 50.947 12.4566C51.1923 12.8939 51.5817 13.2406 52.115 13.4966C52.4457 13.6566 52.851 13.7633 53.331 13.8166V8.02461C52.8617 8.07794 52.4563 8.17928 52.115 8.32861C51.5817 8.56328 51.1923 8.90461 50.947 9.35261C50.7017 9.78994 50.579 10.3126 50.579 10.9206ZM61.1049 15.0006V6.84061H62.7369V7.96061H62.8329C63.0675 7.56594 63.4142 7.24061 63.8729 6.98461C64.3422 6.71794 64.8542 6.58461 65.4089 6.58461C66.4115 6.58461 67.1635 6.88328 67.6649 7.48061C68.1662 8.06728 68.4169 8.85661 68.4169 9.84861V18.4566H66.7049V10.0726C66.7049 9.41128 66.5395 8.93128 66.2089 8.63261C65.8782 8.32328 65.4462 8.16861 64.9129 8.16861C64.4969 8.16861 64.1342 8.28594 63.8249 8.52061C63.5155 8.74461 63.2702 9.04328 63.0889 9.41661C62.9182 9.78994 62.8329 10.1899 62.8329 10.6166V15.0006H61.1049ZM63.8089 5.27261L64.4009 2.77661H66.4489L65.2649 5.27261H63.8089ZM74.3565 18.4566V6.84061H76.0845V11.7206C76.0845 12.1793 76.1538 12.5526 76.2925 12.8406C76.4418 13.1286 76.6392 13.3419 76.8845 13.4806C77.1298 13.6086 77.4018 13.6726 77.7005 13.6726C78.1698 13.6726 78.5698 13.5499 78.9005 13.3046C79.2418 13.0593 79.5032 12.7393 79.6845 12.3446C79.8658 11.9499 79.9565 11.5446 79.9565 11.1286V6.84061H81.6685V12.3126C81.6685 12.7179 81.7378 13.0219 81.8765 13.2246C82.0258 13.4166 82.2658 13.5126 82.5965 13.5126C82.7352 13.5126 82.8632 13.4966 82.9805 13.4646C83.0978 13.4219 83.2152 13.3686 83.3325 13.3046V14.9846C83.1832 15.0273 83.0285 15.0593 82.8685 15.0806C82.7192 15.1126 82.5432 15.1286 82.3405 15.1286C81.6792 15.1286 81.1832 15.0006 80.8525 14.7446C80.5325 14.4779 80.3085 14.1206 80.1805 13.6726H80.0845C79.9352 13.9499 79.7485 14.2113 79.5245 14.4566C79.3112 14.6913 79.0552 14.8833 78.7565 15.0326C78.4578 15.1819 78.1058 15.2566 77.7005 15.2566C77.3698 15.2566 77.0552 15.1819 76.7565 15.0326C76.4685 14.8939 76.2445 14.7179 76.0845 14.5046H75.9885L76.0845 15.4166V18.4566H74.3565ZM87.8966 15.2566C87.1286 15.2566 86.4833 15.1553 85.9606 14.9526C85.438 14.7393 85.0433 14.4566 84.7766 14.1046C84.51 13.7526 84.3766 13.3579 84.3766 12.9206C84.3766 12.3659 84.5206 11.9233 84.8086 11.5926C85.1073 11.2619 85.5233 11.0486 86.0566 10.9526V10.8886C85.7153 10.7926 85.4273 10.6593 85.1926 10.4886C84.9686 10.3073 84.798 10.0939 84.6806 9.84861C84.574 9.59261 84.5206 9.32061 84.5206 9.03261C84.5206 8.25394 84.83 7.65128 85.4486 7.22461C86.078 6.79794 86.9793 6.58461 88.1526 6.58461C88.6753 6.58461 89.15 6.63261 89.5766 6.72861C90.014 6.81394 90.4033 6.95261 90.7446 7.14461C91.086 7.32594 91.374 7.56061 91.6086 7.84861L90.5526 8.95261C90.286 8.67528 89.95 8.46194 89.5446 8.31261C89.15 8.15261 88.6593 8.07261 88.0726 8.07261C87.6033 8.07261 87.23 8.12594 86.9526 8.23261C86.6753 8.32861 86.478 8.46194 86.3606 8.63261C86.2433 8.80328 86.1846 8.98994 86.1846 9.19261C86.1846 9.52328 86.334 9.76861 86.6326 9.92861C86.9313 10.0779 87.342 10.1526 87.8646 10.1526H89.4966V11.6566H87.7686C87.1606 11.6566 86.7286 11.7473 86.4726 11.9286C86.2166 12.0993 86.0886 12.3499 86.0886 12.6806C86.0886 12.9899 86.238 13.2459 86.5366 13.4486C86.846 13.6406 87.3046 13.7366 87.9126 13.7366C88.5206 13.7366 89.0646 13.6353 89.5446 13.4326C90.0246 13.2193 90.398 12.9686 90.6646 12.6806L91.6726 13.7206C91.4913 13.9659 91.2353 14.2059 90.9046 14.4406C90.574 14.6753 90.158 14.8673 89.6566 15.0166C89.1553 15.1766 88.5686 15.2566 87.8966 15.2566Z" fill="white"/>
<g id="GPay (Dark)">
<g id="GPay">
<g id="Pay">
<path id="Fill 1" fill-rule="evenodd" clip-rule="evenodd" d="M120.356 3.42339V8.16175H123.278C123.974 8.16175 124.55 7.92781 125.005 7.45993C125.473 6.99313 125.707 6.43644 125.707 5.79203C125.707 5.16061 125.473 4.61041 125.005 4.14254C124.55 3.66274 123.974 3.4223 123.278 3.4223H120.356V3.42339ZM120.356 9.82966V15.3262H118.611V1.75549H123.24C124.417 1.75549 125.415 2.14756 126.238 2.93061C127.073 3.71365 127.491 4.66782 127.491 5.79203C127.491 6.94224 127.073 7.90291 126.238 8.67296C125.428 9.44409 124.429 9.82858 123.24 9.82858H120.356V9.82966Z" fill="white"/>
<path id="Fill 3" fill-rule="evenodd" clip-rule="evenodd" d="M129.255 12.4831C129.255 12.9379 129.448 13.317 129.834 13.6203C130.22 13.9235 130.672 14.0752 131.19 14.0752C131.924 14.0752 132.578 13.8032 133.153 13.2607C133.729 12.717 134.017 12.0791 134.017 11.3469C133.472 10.917 132.713 10.7025 131.74 10.7025C131.031 10.7025 130.44 10.8736 129.966 11.2148C129.492 11.5559 129.255 11.9773 129.255 12.4831M131.513 5.73566C132.803 5.73566 133.821 6.08007 134.569 6.76889C135.314 7.45771 135.687 8.40213 135.687 9.60216V15.3261H134.018V14.0373H133.942C133.221 15.0985 132.259 15.6294 131.058 15.6294C130.033 15.6294 129.176 15.3261 128.487 14.7196C127.797 14.1131 127.453 13.3549 127.453 12.4452C127.453 11.4845 127.816 10.7208 128.543 10.1523C129.271 9.58375 130.241 9.2989 131.456 9.2989C132.492 9.2989 133.346 9.48844 134.017 9.86751V9.46894C134.017 8.86243 133.776 8.34798 133.296 7.92451C132.814 7.50103 132.252 7.28984 131.607 7.28984C130.633 7.28984 129.862 7.70032 129.293 8.52235L127.755 7.55519C128.603 6.34217 129.855 5.73566 131.513 5.73566" fill="white"/>
<path id="Fill 5" fill-rule="evenodd" clip-rule="evenodd" d="M145.269 6.03894L139.443 19.4201H137.641L139.804 14.738L135.971 6.03894H137.869L140.639 12.7106H140.677L143.371 6.03894H145.269Z" fill="white"/>
</g>
<g id="G">
<path id="Fill 8" fill-rule="evenodd" clip-rule="evenodd" d="M113.303 8.64473C113.303 8.09563 113.256 7.56601 113.168 7.05914H105.806V10.0625H110.023C109.842 11.0414 109.294 11.8744 108.464 12.4322V14.3828H110.98C112.454 13.0246 113.303 11.0177 113.303 8.64473" fill="#4285F4"/>
<path id="Fill 10" fill-rule="evenodd" clip-rule="evenodd" d="M105.806 16.2651C107.913 16.2651 109.687 15.5741 110.98 14.3828L108.464 12.4322C107.763 12.9033 106.861 13.1784 105.806 13.1784C103.77 13.1784 102.042 11.8073 101.424 9.95959H98.8316V11.9687C100.116 14.516 102.757 16.2651 105.806 16.2651" fill="#34A853"/>
<path id="Fill 12" fill-rule="evenodd" clip-rule="evenodd" d="M101.424 9.9596C101.266 9.48847 101.179 8.98593 101.179 8.46715C101.179 7.94837 101.266 7.44583 101.424 6.9747V4.96564H98.8316C98.3003 6.01837 98 7.20756 98 8.46715C98 9.72674 98.3003 10.916 98.8316 11.9687L101.424 9.9596Z" fill="#FABB05"/>
<path id="Fill 14" fill-rule="evenodd" clip-rule="evenodd" d="M105.806 3.75583C106.957 3.75583 107.988 4.15115 108.801 4.92553V4.92661L111.029 2.70094C109.676 1.44243 107.912 0.669128 105.806 0.669128C102.757 0.669128 100.116 2.41826 98.8316 4.9656L101.424 6.97467C102.042 5.12698 103.77 3.75583 105.806 3.75583" fill="#E94235"/>
</g>
</g>
</g>
</g>
</svg>
