<svg width="274" height="38" viewBox="0 0 274 38" fill="none" xmlns="http://www.w3.org/2000/svg">
<g id="el_view_in_Dark">
<path id="Text" d="M3.36566 30V9.952H18.4857V30H15.4057V12.864H6.44566V30H3.36566ZM22.7098 36.048V23.084C22.7098 21.4973 23.0178 20.1253 23.6338 18.968C24.2685 17.792 25.1271 16.8867 26.2098 16.252C27.3111 15.5987 28.5525 15.272 29.9338 15.272C31.5018 15.272 32.8178 15.6267 33.8818 16.336C34.9645 17.0267 35.7858 17.96 36.3458 19.136C36.9058 20.2933 37.1858 21.544 37.1858 22.888C37.1858 24.3627 36.8778 25.6693 36.2618 26.808C35.6645 27.9467 34.8525 28.8427 33.8258 29.496C32.7991 30.1307 31.6605 30.448 30.4098 30.448C29.2898 30.448 28.3285 30.2147 27.5258 29.748C26.7418 29.2813 26.1445 28.7307 25.7338 28.096H25.5658L25.7338 30.056V36.048H22.7098ZM29.8498 27.676C30.6151 27.676 31.3245 27.48 31.9778 27.088C32.6311 26.6773 33.1631 26.1173 33.5738 25.408C33.9845 24.6987 34.1898 23.868 34.1898 22.916C34.1898 21.8893 33.9751 21.012 33.5458 20.284C33.1351 19.556 32.6031 19.0053 31.9498 18.632C31.2965 18.24 30.5965 18.044 29.8498 18.044C29.1591 18.044 28.4871 18.2307 27.8338 18.604C27.1805 18.9773 26.6391 19.528 26.2098 20.256C25.7805 20.984 25.5658 21.8893 25.5658 22.972C25.5658 23.868 25.7618 24.68 26.1538 25.408C26.5458 26.1173 27.0685 26.6773 27.7218 27.088C28.3751 27.48 29.0845 27.676 29.8498 27.676ZM46.9863 30.448C45.5117 30.448 44.2143 30.112 43.0943 29.44C41.9743 28.768 41.097 27.8627 40.4623 26.724C39.8277 25.5853 39.5103 24.2973 39.5103 22.86C39.5103 21.4413 39.8277 20.1627 40.4623 19.024C41.097 17.8667 41.9743 16.952 43.0943 16.28C44.2143 15.608 45.5117 15.272 46.9863 15.272C48.4423 15.272 49.7303 15.608 50.8503 16.28C51.9703 16.952 52.8477 17.8667 53.4823 19.024C54.117 20.1627 54.4343 21.4413 54.4343 22.86C54.4343 24.2973 54.117 25.5853 53.4823 26.724C52.8477 27.8627 51.9703 28.768 50.8503 29.44C49.7303 30.112 48.4423 30.448 46.9863 30.448ZM46.9863 27.676C47.7703 27.676 48.4983 27.4893 49.1703 27.116C49.8423 26.724 50.3837 26.1733 50.7943 25.464C51.2237 24.736 51.4383 23.868 51.4383 22.86C51.4383 21.852 51.2237 20.9933 50.7943 20.284C50.3837 19.556 49.8423 19.0053 49.1703 18.632C48.4983 18.24 47.7703 18.044 46.9863 18.044C46.2023 18.044 45.465 18.24 44.7743 18.632C44.1023 19.0053 43.5517 19.556 43.1223 20.284C42.7117 20.9933 42.5063 21.852 42.5063 22.86C42.5063 23.868 42.7117 24.736 43.1223 25.464C43.5517 26.1733 44.1023 26.724 44.7743 27.116C45.465 27.4893 46.2023 27.676 46.9863 27.676ZM57.4075 36.048V16.896C57.4075 14.6 58.0515 12.836 59.3395 11.604C60.6275 10.372 62.3168 9.756 64.4075 9.756C65.9008 9.756 67.1235 10.0173 68.0755 10.54C69.0275 11.0627 69.7275 11.744 70.1755 12.584C70.6235 13.424 70.8475 14.292 70.8475 15.188C70.8475 16.3267 70.5768 17.2413 70.0355 17.932C69.4941 18.604 68.8501 19.08 68.1035 19.36V19.528C69.3168 19.864 70.2501 20.4427 70.9035 21.264C71.5568 22.0853 71.8835 23.1493 71.8835 24.456C71.8835 25.632 71.5941 26.6773 71.0155 27.592C70.4555 28.488 69.6808 29.188 68.6915 29.692C67.7021 30.196 66.5635 30.448 65.2755 30.448C64.2301 30.448 63.2595 30.2333 62.3635 29.804C61.4861 29.356 60.8421 28.796 60.4315 28.124H60.2635L60.4315 30.28V36.048H57.4075ZM65.1075 27.732C66.3395 27.732 67.2821 27.396 67.9355 26.724C68.5888 26.0333 68.9155 25.2307 68.9155 24.316C68.9155 23.196 68.5795 22.3747 67.9075 21.852C67.2541 21.3107 66.2928 21.04 65.0235 21.04H63.1755V18.408H64.7435C65.8635 18.408 66.6661 18.1373 67.1515 17.596C67.6555 17.036 67.9075 16.364 67.9075 15.58C67.9075 14.572 67.5715 13.8067 66.8995 13.284C66.2461 12.7613 65.4061 12.5 64.3795 12.5C63.1661 12.5 62.1955 12.864 61.4675 13.592C60.7395 14.32 60.3755 15.4493 60.3755 16.98V22.86C60.3755 24.316 60.8048 25.492 61.6635 26.388C62.5221 27.284 63.6701 27.732 65.1075 27.732ZM81.7113 30.448C80.2367 30.448 78.9393 30.112 77.8193 29.44C76.6993 28.768 75.822 27.8627 75.1873 26.724C74.5527 25.5853 74.2353 24.2973 74.2353 22.86C74.2353 21.4413 74.5527 20.1627 75.1873 19.024C75.822 17.8667 76.6993 16.952 77.8193 16.28C78.9393 15.608 80.2367 15.272 81.7113 15.272C83.1673 15.272 84.4553 15.608 85.5753 16.28C86.6953 16.952 87.5727 17.8667 88.2073 19.024C88.842 20.1627 89.1593 21.4413 89.1593 22.86C89.1593 24.2973 88.842 25.5853 88.2073 26.724C87.5727 27.8627 86.6953 28.768 85.5753 29.44C84.4553 30.112 83.1673 30.448 81.7113 30.448ZM81.7113 27.676C82.4953 27.676 83.2233 27.4893 83.8953 27.116C84.5673 26.724 85.1087 26.1733 85.5193 25.464C85.9487 24.736 86.1633 23.868 86.1633 22.86C86.1633 21.852 85.9487 20.9933 85.5193 20.284C85.1087 19.556 84.5673 19.0053 83.8953 18.632C83.2233 18.24 82.4953 18.044 81.7113 18.044C80.9273 18.044 80.19 18.24 79.4993 18.632C78.8273 19.0053 78.2767 19.556 77.8473 20.284C77.4367 20.9933 77.2313 21.852 77.2313 22.86C77.2313 23.868 77.4367 24.736 77.8473 25.464C78.2767 26.1733 78.8273 26.724 79.4993 27.116C80.19 27.4893 80.9273 27.676 81.7113 27.676ZM90.7045 30L96.6405 16.616L95.6045 14.404C95.2685 13.676 94.9418 13.1907 94.6245 12.948C94.3071 12.6867 93.9058 12.556 93.4205 12.556C92.9725 12.556 92.5431 12.6773 92.1325 12.92V9.98C92.3938 9.90533 92.6738 9.84933 92.9725 9.812C93.2711 9.756 93.6165 9.728 94.0085 9.728C94.7738 9.728 95.3991 9.84 95.8845 10.064C96.3885 10.288 96.8178 10.6707 97.1725 11.212C97.5458 11.7347 97.9191 12.4347 98.2925 13.312L105.544 30H102.24L98.2925 20.256H98.1525L94.0645 30H90.7045ZM107.83 30V15.72H110.686V17.68H110.854C111.264 16.9893 111.871 16.42 112.674 15.972C113.495 15.5053 114.391 15.272 115.362 15.272C117.116 15.272 118.432 15.7947 119.31 16.84C120.187 17.8853 120.626 19.2667 120.626 20.984V36.048H117.63V21.376C117.63 20.2187 117.34 19.3787 116.762 18.856C116.183 18.3147 115.427 18.044 114.494 18.044C113.766 18.044 113.131 18.2493 112.59 18.66C112.048 19.052 111.619 19.5747 111.302 20.228C111.003 20.8813 110.854 21.5813 110.854 22.328V30H107.83ZM112.562 12.976L113.598 8.608H117.182L115.11 12.976H112.562ZM137.731 30.448C136.294 30.448 135.024 30.1307 133.923 29.496C132.822 28.8427 131.963 27.9653 131.347 26.864C130.75 25.744 130.451 24.484 130.451 23.084C130.451 21.6653 130.759 20.4053 131.375 19.304C131.991 18.2027 132.868 17.3347 134.007 16.7C135.164 16.0467 136.527 15.72 138.095 15.72H146.803V18.352H145.151L142.939 18.156V18.324C143.592 18.828 144.115 19.472 144.507 20.256C144.899 21.04 145.095 21.9547 145.095 23C145.095 24.4 144.787 25.66 144.171 26.78C143.555 27.9 142.687 28.796 141.567 29.468C140.466 30.1213 139.187 30.448 137.731 30.448ZM137.759 27.676C138.524 27.676 139.234 27.4987 139.887 27.144C140.54 26.7707 141.072 26.2387 141.483 25.548C141.894 24.8573 142.099 24.0267 142.099 23.056C142.099 22.048 141.894 21.1987 141.483 20.508C141.072 19.7987 140.54 19.2573 139.887 18.884C139.234 18.5107 138.524 18.324 137.759 18.324C137.012 18.324 136.303 18.5107 135.631 18.884C134.978 19.2573 134.446 19.7987 134.035 20.508C133.643 21.1987 133.447 22.048 133.447 23.056C133.447 24.0267 133.643 24.8573 134.035 25.548C134.446 26.2387 134.978 26.7707 135.631 27.144C136.303 27.4987 137.012 27.676 137.759 27.676ZM157.643 30.224C156.336 30.224 155.281 29.8507 154.479 29.104C153.676 28.3573 153.275 27.284 153.275 25.884V18.352H148.711V15.72H161.647V18.352H156.271V25.24C156.271 25.968 156.42 26.5093 156.719 26.864C157.036 27.2187 157.531 27.396 158.203 27.396C158.557 27.396 158.856 27.3493 159.099 27.256C159.36 27.144 159.612 27.0133 159.855 26.864V29.804C159.183 30.084 158.445 30.224 157.643 30.224ZM171.531 30.448C170.056 30.448 168.759 30.112 167.639 29.44C166.519 28.768 165.642 27.8627 165.007 26.724C164.372 25.5853 164.055 24.2973 164.055 22.86C164.055 21.4413 164.372 20.1627 165.007 19.024C165.642 17.8667 166.519 16.952 167.639 16.28C168.759 15.608 170.056 15.272 171.531 15.272C172.987 15.272 174.275 15.608 175.395 16.28C176.515 16.952 177.392 17.8667 178.027 19.024C178.662 20.1627 178.979 21.4413 178.979 22.86C178.979 24.2973 178.662 25.5853 178.027 26.724C177.392 27.8627 176.515 28.768 175.395 29.44C174.275 30.112 172.987 30.448 171.531 30.448ZM171.531 27.676C172.315 27.676 173.043 27.4893 173.715 27.116C174.387 26.724 174.928 26.1733 175.339 25.464C175.768 24.736 175.983 23.868 175.983 22.86C175.983 21.852 175.768 20.9933 175.339 20.284C174.928 19.556 174.387 19.0053 173.715 18.632C173.043 18.24 172.315 18.044 171.531 18.044C170.747 18.044 170.01 18.24 169.319 18.632C168.647 19.0053 168.096 19.556 167.667 20.284C167.256 20.9933 167.051 21.852 167.051 22.86C167.051 23.868 167.256 24.736 167.667 25.464C168.096 26.1733 168.647 26.724 169.319 27.116C170.01 27.4893 170.747 27.676 171.531 27.676Z" fill="white"/>
<g id="GPay Logo (Dark)">
<g id="GPay">
<g id="Pay">
<path id="Fill 1" fill-rule="evenodd" clip-rule="evenodd" d="M230.529 9.34665V17.5128H235.565C236.765 17.5128 237.757 17.1096 238.541 16.3032C239.347 15.4988 239.75 14.5394 239.75 13.4288C239.75 12.3406 239.347 11.3924 238.541 10.586C237.757 9.75916 236.765 9.34479 235.565 9.34479H230.529V9.34665ZM230.529 20.3872V29.8599H227.521V6.47218H235.499C237.527 6.47218 239.248 7.14787 240.666 8.49738C242.105 9.84688 242.824 11.4913 242.824 13.4288C242.824 15.411 242.105 17.0667 240.666 18.3938C239.27 19.7227 237.547 20.3854 235.499 20.3854H230.529V20.3872Z" fill="white"/>
<path id="Fill 3" fill-rule="evenodd" clip-rule="evenodd" d="M245.864 24.9602C245.864 25.7442 246.197 26.3975 246.862 26.9201C247.527 27.4427 248.306 27.704 249.2 27.704C250.465 27.704 251.591 27.2354 252.584 26.3004C253.576 25.3634 254.071 24.264 254.071 23.0022C253.133 22.2612 251.825 21.8916 250.147 21.8916C248.925 21.8916 247.907 22.1866 247.09 22.7745C246.273 23.3623 245.864 24.0886 245.864 24.9602ZM249.756 13.3317C251.98 13.3317 253.735 13.9253 255.022 15.1124C256.308 16.2995 256.95 17.9271 256.95 19.9952V29.8599H254.073V27.6387H253.942C252.699 29.4677 251.042 30.3825 248.972 30.3825C247.206 30.3825 245.728 29.8599 244.541 28.8146C243.353 27.7694 242.759 26.4628 242.759 24.8949C242.759 23.2393 243.385 21.9232 244.638 20.9434C245.892 19.9635 247.565 19.4726 249.658 19.4726C251.444 19.4726 252.916 19.7993 254.071 20.4525V19.7657C254.071 18.7204 253.656 17.8338 252.829 17.104C251.999 16.3742 251.031 16.0102 249.919 16.0102C248.239 16.0102 246.911 16.7176 245.93 18.1343L243.28 16.4675C244.741 14.377 246.899 13.3317 249.756 13.3317Z" fill="white"/>
<path id="Fill 5" fill-rule="evenodd" clip-rule="evenodd" d="M273.463 13.8543L263.424 36.9154H260.318L264.046 28.8464L257.44 13.8543H260.71L265.484 25.3522H265.55L270.193 13.8543H273.463Z" fill="white"/>
</g>
<g id="G">
<path id="Fill 8" fill-rule="evenodd" clip-rule="evenodd" d="M218.373 18.3452C218.373 17.3989 218.293 16.4861 218.141 15.6126H205.454V20.7885H212.72C212.408 22.4757 211.465 23.9112 210.033 24.8725V28.2341H214.37C216.91 25.8935 218.373 22.4348 218.373 18.3452Z" fill="#4285F4"/>
<path id="Fill 10" fill-rule="evenodd" clip-rule="evenodd" d="M205.454 31.4782C209.084 31.4782 212.141 30.2873 214.37 28.2341L210.033 24.8725C208.826 25.6844 207.272 26.1585 205.454 26.1585C201.944 26.1585 198.966 23.7955 197.901 20.6112H193.433V24.0736C195.647 28.4637 200.197 31.4782 205.454 31.4782Z" fill="#34A853"/>
<path id="Fill 12" fill-rule="evenodd" clip-rule="evenodd" d="M197.901 20.6111C197.628 19.7992 197.479 18.9331 197.479 18.0391C197.479 17.145 197.628 16.2789 197.901 15.467V12.0045H193.433C192.518 13.8188 192 15.8683 192 18.0391C192 20.2098 192.518 22.2595 193.433 24.0736L197.901 20.6111Z" fill="#FABB05"/>
<path id="Fill 14" fill-rule="evenodd" clip-rule="evenodd" d="M205.454 9.91964C207.436 9.91964 209.213 10.6009 210.615 11.9355V11.9374L214.455 8.10163C212.123 5.93272 209.082 4.60001 205.454 4.60001C200.197 4.60001 195.647 7.61447 193.433 12.0046L197.901 15.467C198.966 12.2827 201.944 9.91964 205.454 9.91964Z" fill="#E94235"/>
</g>
</g>
</g>
</g>
</svg>
