<svg width="129" height="21" viewBox="0 0 129 21" fill="none" xmlns="http://www.w3.org/2000/svg">
<g id="es_add_to_Pay_NBG">
<path id="Left Text" d="M0.758753 15.0006L5.07875 3.54461H7.07875L11.4148 15.0006H9.47875L8.42275 12.0566H3.75075L2.69475 15.0006H0.758753ZM7.83075 10.4246L6.56675 6.92061L6.13475 5.60861H6.03875L5.60675 6.92061L4.34275 10.4246H7.83075ZM16.3411 18.7126C15.6265 18.7126 15.0078 18.5953 14.4851 18.3606C13.9731 18.1366 13.5571 17.8433 13.2371 17.4806C12.9171 17.1286 12.6878 16.7659 12.5491 16.3926L14.1491 15.7206C14.3198 16.1473 14.5918 16.4939 14.9651 16.7606C15.3491 17.0379 15.8078 17.1766 16.3411 17.1766C17.0985 17.1766 17.6905 16.9526 18.1171 16.5046C18.5438 16.0566 18.7571 15.4219 18.7571 14.6006V13.8166H18.6611C18.4051 14.1899 18.0531 14.4939 17.6051 14.7286C17.1571 14.9633 16.6398 15.0806 16.0531 15.0806C15.3598 15.0806 14.7198 14.9046 14.1331 14.5526C13.5571 14.2006 13.0931 13.7099 12.7411 13.0806C12.3998 12.4406 12.2291 11.6939 12.2291 10.8406C12.2291 9.97661 12.3998 9.22994 12.7411 8.60061C13.0931 7.96061 13.5571 7.46461 14.1331 7.11261C14.7198 6.76061 15.3598 6.58461 16.0531 6.58461C16.6398 6.58461 17.1571 6.70194 17.6051 6.93661C18.0531 7.16061 18.4051 7.46994 18.6611 7.86461H18.7571V6.84061H20.4051V14.5686C20.4051 15.4539 20.2291 16.2059 19.8771 16.8246C19.5358 17.4433 19.0611 17.9126 18.4531 18.2326C17.8451 18.5526 17.1411 18.7126 16.3411 18.7126ZM16.3571 13.5126C16.7838 13.5126 17.1785 13.4113 17.5411 13.2086C17.9145 12.9953 18.2078 12.6913 18.4211 12.2966C18.6451 11.8913 18.7571 11.4059 18.7571 10.8406C18.7571 10.2433 18.6451 9.74728 18.4211 9.35261C18.2078 8.95794 17.9145 8.65928 17.5411 8.45661C17.1785 8.25394 16.7838 8.15261 16.3571 8.15261C15.9305 8.15261 15.5305 8.25394 15.1571 8.45661C14.7945 8.65928 14.5011 8.96328 14.2771 9.36861C14.0531 9.76328 13.9411 10.2539 13.9411 10.8406C13.9411 11.4166 14.0531 11.9073 14.2771 12.3126C14.5011 12.7073 14.7945 13.0059 15.1571 13.2086C15.5305 13.4113 15.9305 13.5126 16.3571 13.5126ZM22.5768 15.0006V6.84061H24.2088V8.04061H24.3048C24.4328 7.76328 24.6141 7.51794 24.8488 7.30461C25.0941 7.09128 25.3714 6.92061 25.6808 6.79261C26.0008 6.66461 26.3314 6.60061 26.6728 6.60061C26.8968 6.60061 27.0834 6.61661 27.2328 6.64861C27.3928 6.66994 27.5368 6.70728 27.6648 6.76061V8.55261C27.4621 8.46728 27.2541 8.39794 27.0408 8.34461C26.8381 8.29128 26.6248 8.26461 26.4008 8.26461C25.9954 8.26461 25.6328 8.37661 25.3128 8.60061C25.0034 8.81394 24.7581 9.10194 24.5768 9.46461C24.3954 9.82728 24.3048 10.2326 24.3048 10.6806V15.0006H22.5768ZM32.3923 15.2566C31.5923 15.2566 30.8776 15.0699 30.2483 14.6966C29.6189 14.3233 29.1229 13.8113 28.7603 13.1606C28.4083 12.5099 28.2323 11.7686 28.2323 10.9366C28.2323 10.1579 28.4029 9.43794 28.7443 8.77661C29.0856 8.11528 29.5603 7.58728 30.1683 7.19261C30.7869 6.78728 31.4963 6.58461 32.2963 6.58461C33.1389 6.58461 33.8536 6.76594 34.4403 7.12861C35.0376 7.49128 35.4909 7.98728 35.8003 8.61661C36.1096 9.24594 36.2643 9.95528 36.2643 10.7446C36.2643 10.8619 36.2589 10.9686 36.2483 11.0646C36.2483 11.1606 36.2429 11.2353 36.2323 11.2886H29.9283C29.9709 11.7366 30.0829 12.1259 30.2643 12.4566C30.4989 12.8726 30.8083 13.1873 31.1923 13.4006C31.5763 13.6139 31.9923 13.7206 32.4403 13.7206C32.9843 13.7206 33.4376 13.5979 33.8003 13.3526C34.1736 13.0966 34.4669 12.7819 34.6803 12.4086L36.1043 13.0966C35.7523 13.7366 35.2723 14.2593 34.6643 14.6646C34.0563 15.0593 33.2989 15.2566 32.3923 15.2566ZM30.0243 9.99261H34.5523C34.5416 9.78994 34.4883 9.57661 34.3923 9.35261C34.2963 9.11794 34.1576 8.90461 33.9763 8.71261C33.7949 8.52061 33.5656 8.36594 33.2883 8.24861C33.0109 8.12061 32.6856 8.05661 32.3123 8.05661C31.8429 8.05661 31.4269 8.17928 31.0643 8.42461C30.7016 8.65928 30.4189 8.98994 30.2163 9.41661C30.1309 9.59794 30.0669 9.78994 30.0243 9.99261ZM41.7755 18.7126C41.0608 18.7126 40.4422 18.5953 39.9195 18.3606C39.4075 18.1366 38.9915 17.8433 38.6715 17.4806C38.3515 17.1286 38.1222 16.7659 37.9835 16.3926L39.5835 15.7206C39.7542 16.1473 40.0262 16.4939 40.3995 16.7606C40.7835 17.0379 41.2422 17.1766 41.7755 17.1766C42.5328 17.1766 43.1248 16.9526 43.5515 16.5046C43.9782 16.0566 44.1915 15.4219 44.1915 14.6006V13.8166H44.0955C43.8395 14.1899 43.4875 14.4939 43.0395 14.7286C42.5915 14.9633 42.0742 15.0806 41.4875 15.0806C40.7942 15.0806 40.1542 14.9046 39.5675 14.5526C38.9915 14.2006 38.5275 13.7099 38.1755 13.0806C37.8342 12.4406 37.6635 11.6939 37.6635 10.8406C37.6635 9.97661 37.8342 9.22994 38.1755 8.60061C38.5275 7.96061 38.9915 7.46461 39.5675 7.11261C40.1542 6.76061 40.7942 6.58461 41.4875 6.58461C42.0742 6.58461 42.5915 6.70194 43.0395 6.93661C43.4875 7.16061 43.8395 7.46994 44.0955 7.86461H44.1915V6.84061H45.8395V14.5686C45.8395 15.4539 45.6635 16.2059 45.3115 16.8246C44.9702 17.4433 44.4955 17.9126 43.8875 18.2326C43.2795 18.5526 42.5755 18.7126 41.7755 18.7126ZM41.7915 13.5126C42.2182 13.5126 42.6128 13.4113 42.9755 13.2086C43.3488 12.9953 43.6422 12.6913 43.8555 12.2966C44.0795 11.8913 44.1915 11.4059 44.1915 10.8406C44.1915 10.2433 44.0795 9.74728 43.8555 9.35261C43.6422 8.95794 43.3488 8.65928 42.9755 8.45661C42.6128 8.25394 42.2182 8.15261 41.7915 8.15261C41.3648 8.15261 40.9648 8.25394 40.5915 8.45661C40.2288 8.65928 39.9355 8.96328 39.7115 9.36861C39.4875 9.76328 39.3755 10.2539 39.3755 10.8406C39.3755 11.4166 39.4875 11.9073 39.7115 12.3126C39.9355 12.7073 40.2288 13.0059 40.5915 13.2086C40.9648 13.4113 41.3648 13.5126 41.7915 13.5126ZM50.493 15.2566C49.9063 15.2566 49.3837 15.1393 48.925 14.9046C48.477 14.6699 48.1197 14.3499 47.853 13.9446C47.597 13.5286 47.469 13.0539 47.469 12.5206C47.469 11.9339 47.6183 11.4379 47.917 11.0326C48.2263 10.6273 48.637 10.3179 49.149 10.1046C49.661 9.89128 50.2263 9.78461 50.845 9.78461C51.1863 9.78461 51.501 9.81128 51.789 9.86461C52.0877 9.90728 52.3437 9.96061 52.557 10.0246C52.781 10.0886 52.957 10.1579 53.085 10.2326V9.80061C53.085 9.26728 52.893 8.84061 52.509 8.52061C52.125 8.20061 51.629 8.04061 51.021 8.04061C50.605 8.04061 50.2103 8.13661 49.837 8.32861C49.4637 8.50994 49.165 8.76061 48.941 9.08061L47.757 8.16861C47.9917 7.83794 48.2743 7.55528 48.605 7.32061C48.9463 7.08594 49.325 6.90461 49.741 6.77661C50.1677 6.64861 50.6103 6.58461 51.069 6.58461C52.253 6.58461 53.165 6.87794 53.805 7.46461C54.445 8.04061 54.765 8.85128 54.765 9.89661V15.0006H53.085V13.9926H52.989C52.8503 14.2059 52.6583 14.4086 52.413 14.6006C52.1783 14.7926 51.8957 14.9473 51.565 15.0646C51.245 15.1926 50.8877 15.2566 50.493 15.2566ZM50.797 13.8486C51.245 13.8486 51.6397 13.7419 51.981 13.5286C52.333 13.3153 52.605 13.0379 52.797 12.6966C52.989 12.3446 53.085 11.9659 53.085 11.5606C52.8503 11.4219 52.5623 11.3099 52.221 11.2246C51.8903 11.1286 51.5383 11.0806 51.165 11.0806C50.461 11.0806 49.9597 11.2193 49.661 11.4966C49.3623 11.7739 49.213 12.1206 49.213 12.5366C49.213 12.9206 49.357 13.2353 49.645 13.4806C49.933 13.7259 50.317 13.8486 50.797 13.8486ZM56.8174 15.0006V6.84061H58.4494V8.04061H58.5454C58.6734 7.76328 58.8547 7.51794 59.0894 7.30461C59.3347 7.09128 59.612 6.92061 59.9214 6.79261C60.2414 6.66461 60.572 6.60061 60.9134 6.60061C61.1374 6.60061 61.324 6.61661 61.4734 6.64861C61.6334 6.66994 61.7774 6.70728 61.9054 6.76061V8.55261C61.7027 8.46728 61.4947 8.39794 61.2814 8.34461C61.0787 8.29128 60.8654 8.26461 60.6414 8.26461C60.236 8.26461 59.8734 8.37661 59.5534 8.60061C59.244 8.81394 58.9987 9.10194 58.8174 9.46461C58.636 9.82728 58.5454 10.2326 58.5454 10.6806V15.0006H56.8174ZM69.8336 15.2566C69.247 15.2566 68.7243 15.1393 68.2656 14.9046C67.8176 14.6699 67.4603 14.3499 67.1936 13.9446C66.9376 13.5286 66.8096 13.0539 66.8096 12.5206C66.8096 11.9339 66.959 11.4379 67.2576 11.0326C67.567 10.6273 67.9776 10.3179 68.4896 10.1046C69.0016 9.89128 69.567 9.78461 70.1856 9.78461C70.527 9.78461 70.8416 9.81128 71.1296 9.86461C71.4283 9.90728 71.6843 9.96061 71.8976 10.0246C72.1216 10.0886 72.2976 10.1579 72.4256 10.2326V9.80061C72.4256 9.26728 72.2336 8.84061 71.8496 8.52061C71.4656 8.20061 70.9696 8.04061 70.3616 8.04061C69.9456 8.04061 69.551 8.13661 69.1776 8.32861C68.8043 8.50994 68.5056 8.76061 68.2816 9.08061L67.0976 8.16861C67.3323 7.83794 67.615 7.55528 67.9456 7.32061C68.287 7.08594 68.6656 6.90461 69.0816 6.77661C69.5083 6.64861 69.951 6.58461 70.4096 6.58461C71.5936 6.58461 72.5056 6.87794 73.1456 7.46461C73.7856 8.04061 74.1056 8.85128 74.1056 9.89661V15.0006H72.4256V13.9926H72.3296C72.191 14.2059 71.999 14.4086 71.7536 14.6006C71.519 14.7926 71.2363 14.9473 70.9056 15.0646C70.5856 15.1926 70.2283 15.2566 69.8336 15.2566ZM70.1376 13.8486C70.5856 13.8486 70.9803 13.7419 71.3216 13.5286C71.6736 13.3153 71.9456 13.0379 72.1376 12.6966C72.3296 12.3446 72.4256 11.9659 72.4256 11.5606C72.191 11.4219 71.903 11.3099 71.5616 11.2246C71.231 11.1286 70.879 11.0806 70.5056 11.0806C69.8016 11.0806 69.3003 11.2193 69.0016 11.4966C68.703 11.7739 68.5536 12.1206 68.5536 12.5366C68.5536 12.9206 68.6976 13.2353 68.9856 13.4806C69.2736 13.7259 69.6576 13.8486 70.1376 13.8486Z" fill="white"/>
<g id="GPay (Dark)">
<g id="GPay">
<g id="Pay">
<path id="Fill 1" fill-rule="evenodd" clip-rule="evenodd" d="M103.356 3.42339V8.16175H106.278C106.974 8.16175 107.55 7.92781 108.005 7.45993C108.473 6.99313 108.707 6.43644 108.707 5.79203C108.707 5.16061 108.473 4.61041 108.005 4.14254C107.55 3.66274 106.974 3.4223 106.278 3.4223H103.356V3.42339ZM103.356 9.82966V15.3262H101.611V1.75549H106.24C107.417 1.75549 108.415 2.14756 109.238 2.93061C110.073 3.71365 110.491 4.66782 110.491 5.79203C110.491 6.94224 110.073 7.90291 109.238 8.67296C108.428 9.44409 107.429 9.82858 106.24 9.82858H103.356V9.82966Z" fill="white"/>
<path id="Fill 3" fill-rule="evenodd" clip-rule="evenodd" d="M112.255 12.4831C112.255 12.9379 112.448 13.317 112.834 13.6203C113.22 13.9235 113.672 14.0752 114.19 14.0752C114.924 14.0752 115.578 13.8032 116.153 13.2607C116.729 12.717 117.017 12.0791 117.017 11.3469C116.472 10.917 115.713 10.7025 114.74 10.7025C114.031 10.7025 113.44 10.8736 112.966 11.2148C112.492 11.5559 112.255 11.9773 112.255 12.4831M114.513 5.73566C115.803 5.73566 116.821 6.08007 117.569 6.76889C118.314 7.45771 118.687 8.40213 118.687 9.60216V15.3261H117.018V14.0373H116.942C116.221 15.0985 115.259 15.6294 114.058 15.6294C113.033 15.6294 112.176 15.3261 111.487 14.7196C110.797 14.1131 110.453 13.3549 110.453 12.4452C110.453 11.4845 110.816 10.7208 111.543 10.1523C112.271 9.58375 113.241 9.2989 114.456 9.2989C115.492 9.2989 116.346 9.48844 117.017 9.86751V9.46894C117.017 8.86243 116.776 8.34798 116.296 7.92451C115.814 7.50103 115.252 7.28984 114.607 7.28984C113.633 7.28984 112.862 7.70032 112.293 8.52235L110.755 7.55519C111.603 6.34217 112.855 5.73566 114.513 5.73566" fill="white"/>
<path id="Fill 5" fill-rule="evenodd" clip-rule="evenodd" d="M128.269 6.03894L122.443 19.4201H120.641L122.804 14.738L118.971 6.03894H120.869L123.639 12.7106H123.677L126.371 6.03894H128.269Z" fill="white"/>
</g>
<g id="G">
<path id="Fill 8" fill-rule="evenodd" clip-rule="evenodd" d="M96.3029 8.64473C96.3029 8.09563 96.2562 7.56601 96.1684 7.05914H88.8065V10.0625H93.0231C92.842 11.0414 92.2944 11.8744 91.4639 12.4322V14.3828H93.9804C95.4539 13.0246 96.3029 11.0177 96.3029 8.64473" fill="#4285F4"/>
<path id="Fill 10" fill-rule="evenodd" clip-rule="evenodd" d="M88.8065 16.2651C90.9131 16.2651 92.6869 15.5741 93.9804 14.3828L91.4639 12.4322C90.7635 12.9033 89.8614 13.1784 88.8065 13.1784C86.7703 13.1784 85.042 11.8073 84.424 9.95959H81.8316V11.9687C83.1164 14.516 85.7565 16.2651 88.8065 16.2651" fill="#34A853"/>
<path id="Fill 12" fill-rule="evenodd" clip-rule="evenodd" d="M84.424 9.9596C84.2657 9.48847 84.179 8.98593 84.179 8.46715C84.179 7.94837 84.2657 7.44583 84.424 6.9747V4.96564H81.8316C81.3003 6.01837 81 7.20756 81 8.46715C81 9.72674 81.3003 10.916 81.8316 11.9687L84.424 9.9596Z" fill="#FABB05"/>
<path id="Fill 14" fill-rule="evenodd" clip-rule="evenodd" d="M88.8065 3.75583C89.9568 3.75583 90.9879 4.15115 91.8011 4.92553V4.92661L94.0292 2.70094C92.6761 1.44243 90.912 0.669128 88.8065 0.669128C85.7565 0.669128 83.1164 2.41826 81.8316 4.9656L84.424 6.97467C85.042 5.12698 86.7703 3.75583 88.8065 3.75583" fill="#E94235"/>
</g>
</g>
</g>
</g>
</svg>
