<svg width="270" height="38" viewBox="0 0 270 38" fill="none" xmlns="http://www.w3.org/2000/svg">
<g id="es_book_with_Dark">
<path id="Text" d="M3.76878 30V9.952H10.7968C12.0288 9.952 13.1301 10.2133 14.1008 10.736C15.0714 11.2587 15.8368 11.9867 16.3968 12.92C16.9754 13.8347 17.2648 14.8893 17.2648 16.084C17.2648 17.3907 16.8541 18.576 16.0328 19.64C15.2301 20.6853 14.0914 21.4133 12.6168 21.824L18.1888 29.832V30H14.6328L9.28478 22.132H6.84878V30H3.76878ZM10.8248 12.836H6.84878V19.304H10.7128C11.6648 19.304 12.4768 19.0053 13.1488 18.408C13.8208 17.792 14.1568 17.008 14.1568 16.056C14.1568 15.5147 14.0261 15.0013 13.7648 14.516C13.5034 14.012 13.1208 13.6107 12.6168 13.312C12.1314 12.9947 11.5341 12.836 10.8248 12.836ZM26.9052 30.448C25.5052 30.448 24.2545 30.1213 23.1532 29.468C22.0519 28.8147 21.1839 27.9187 20.5492 26.78C19.9332 25.6413 19.6252 24.344 19.6252 22.888C19.6252 21.5253 19.9239 20.2653 20.5212 19.108C21.1185 17.9507 21.9492 17.0267 23.0132 16.336C24.0959 15.6267 25.3372 15.272 26.7372 15.272C28.2119 15.272 29.4625 15.5893 30.4892 16.224C31.5345 16.8587 32.3279 17.7267 32.8692 18.828C33.4105 19.9293 33.6812 21.1707 33.6812 22.552C33.6812 22.7573 33.6719 22.944 33.6532 23.112C33.6532 23.28 33.6439 23.4107 33.6252 23.504H22.5932C22.7425 24.9227 23.2372 25.9867 24.0772 26.696C24.9359 27.4053 25.9065 27.76 26.9892 27.76C27.9599 27.76 28.7625 27.5453 29.3972 27.116C30.0319 26.668 30.5359 26.1173 30.9092 25.464L33.4012 26.668C32.7852 27.788 31.9452 28.7027 30.8812 29.412C29.8172 30.1027 28.4919 30.448 26.9052 30.448ZM26.7652 17.848C25.7572 17.848 24.8985 18.156 24.1892 18.772C23.4799 19.388 23.0039 20.2093 22.7612 21.236H30.6852C30.6479 20.7507 30.4892 20.2467 30.2092 19.724C29.9292 19.2013 29.4999 18.7627 28.9212 18.408C28.3612 18.0347 27.6425 17.848 26.7652 17.848ZM42.1314 30.448C40.414 30.448 39.042 30.0747 38.0154 29.328C36.9887 28.5627 36.2794 27.6573 35.8874 26.612L38.6034 25.436C38.9394 26.2013 39.4247 26.7893 40.0594 27.2C40.694 27.592 41.4127 27.788 42.2154 27.788C42.962 27.788 43.606 27.6573 44.1474 27.396C44.6887 27.116 44.9594 26.668 44.9594 26.052C44.9594 25.4547 44.6887 25.016 44.1474 24.736C43.606 24.456 42.934 24.2133 42.1314 24.008L40.4234 23.616C39.7327 23.448 39.0887 23.1867 38.4914 22.832C37.894 22.4773 37.4087 22.02 37.0354 21.46C36.662 20.8813 36.4754 20.2093 36.4754 19.444C36.4754 18.604 36.7274 17.876 37.2314 17.26C37.7354 16.6253 38.398 16.14 39.2194 15.804C40.0594 15.4493 40.9647 15.272 41.9354 15.272C43.2607 15.272 44.418 15.5333 45.4074 16.056C46.4154 16.56 47.1527 17.3253 47.6194 18.352L45.0154 19.528C44.6794 18.8933 44.2407 18.4547 43.6994 18.212C43.1767 17.9507 42.598 17.82 41.9634 17.82C41.254 17.82 40.6567 17.9693 40.1714 18.268C39.7047 18.5667 39.4714 18.94 39.4714 19.388C39.4714 19.8733 39.6767 20.256 40.0874 20.536C40.5167 20.816 41.0394 21.04 41.6554 21.208L43.7274 21.712C45.146 22.0667 46.21 22.608 46.9194 23.336C47.6287 24.0453 47.9834 24.9133 47.9834 25.94C47.9834 26.8547 47.722 27.6573 47.1994 28.348C46.6767 29.02 45.9674 29.5427 45.0714 29.916C44.194 30.2707 43.214 30.448 42.1314 30.448ZM57.5833 30.448C56.1833 30.448 54.9326 30.1213 53.8313 29.468C52.73 28.8147 51.862 27.9187 51.2273 26.78C50.6113 25.6413 50.3033 24.344 50.3033 22.888C50.3033 21.5253 50.602 20.2653 51.1993 19.108C51.7966 17.9507 52.6273 17.0267 53.6913 16.336C54.774 15.6267 56.0153 15.272 57.4153 15.272C58.89 15.272 60.1406 15.5893 61.1673 16.224C62.2126 16.8587 63.006 17.7267 63.5473 18.828C64.0886 19.9293 64.3593 21.1707 64.3593 22.552C64.3593 22.7573 64.35 22.944 64.3313 23.112C64.3313 23.28 64.322 23.4107 64.3033 23.504H53.2713C53.4206 24.9227 53.9153 25.9867 54.7553 26.696C55.614 27.4053 56.5846 27.76 57.6673 27.76C58.638 27.76 59.4406 27.5453 60.0753 27.116C60.71 26.668 61.214 26.1173 61.5873 25.464L64.0793 26.668C63.4633 27.788 62.6233 28.7027 61.5593 29.412C60.4953 30.1027 59.17 30.448 57.5833 30.448ZM57.4433 17.848C56.4353 17.848 55.5766 18.156 54.8673 18.772C54.158 19.388 53.682 20.2093 53.4393 21.236H61.3633C61.326 20.7507 61.1673 20.2467 60.8873 19.724C60.6073 19.2013 60.178 18.7627 59.5993 18.408C59.0393 18.0347 58.3206 17.848 57.4433 17.848ZM67.4648 30V15.72H70.3208V17.82H70.4888C70.8061 17.092 71.3474 16.4947 72.1128 16.028C72.8968 15.5427 73.7368 15.3 74.6328 15.3C75.0248 15.3 75.3514 15.328 75.6128 15.384C75.8928 15.44 76.1448 15.5053 76.3688 15.58V18.716C76.0141 18.5667 75.6501 18.4453 75.2768 18.352C74.9221 18.2587 74.5488 18.212 74.1568 18.212C73.4474 18.212 72.8128 18.408 72.2528 18.8C71.7114 19.1733 71.2821 19.6867 70.9648 20.34C70.6474 20.9747 70.4888 21.6747 70.4888 22.44V30H67.4648ZM83.8079 30L77.8999 15.72H81.2599L85.2639 26.108H85.4039L89.4919 15.72H92.7959L86.8319 30H83.8079ZM99.2596 30.448C98.233 30.448 97.3183 30.252 96.5156 29.86C95.713 29.4493 95.0876 28.88 94.6396 28.152C94.1916 27.424 93.9676 26.5933 93.9676 25.66C93.9676 24.652 94.229 23.7933 94.7516 23.084C95.293 22.356 96.0116 21.8053 96.9076 21.432C97.8036 21.0587 98.793 20.872 99.8756 20.872C100.772 20.872 101.556 20.956 102.228 21.124C102.918 21.292 103.441 21.4693 103.796 21.656V20.9C103.796 19.9667 103.46 19.22 102.788 18.66C102.116 18.1 101.248 17.82 100.184 17.82C99.4556 17.82 98.765 17.988 98.1116 18.324C97.4583 18.6413 96.9356 19.08 96.5436 19.64L94.4716 18.044C95.0876 17.1853 95.8996 16.5133 96.9076 16.028C97.9343 15.524 99.0543 15.272 100.268 15.272C102.34 15.272 103.936 15.7853 105.056 16.812C106.176 17.82 106.736 19.2387 106.736 21.068V30H103.796V28.236H103.628C103.254 28.8147 102.694 29.328 101.948 29.776C101.201 30.224 100.305 30.448 99.2596 30.448ZM99.7916 27.984C100.576 27.984 101.266 27.7973 101.864 27.424C102.461 27.0507 102.928 26.5653 103.264 25.968C103.618 25.352 103.796 24.6893 103.796 23.98C103.366 23.7373 102.862 23.5413 102.284 23.392C101.705 23.224 101.089 23.14 100.436 23.14C99.2036 23.14 98.3263 23.392 97.8036 23.896C97.281 24.3813 97.0196 24.9787 97.0196 25.688C97.0196 26.36 97.2716 26.9107 97.7756 27.34C98.2796 27.7693 98.9516 27.984 99.7916 27.984ZM110.365 30V15.72H113.221V17.82H113.389C113.706 17.092 114.247 16.4947 115.013 16.028C115.797 15.5427 116.637 15.3 117.533 15.3C117.925 15.3 118.251 15.328 118.513 15.384C118.793 15.44 119.045 15.5053 119.269 15.58V18.716C118.914 18.5667 118.55 18.4453 118.177 18.352C117.822 18.2587 117.449 18.212 117.057 18.212C116.347 18.212 115.713 18.408 115.153 18.8C114.611 19.1733 114.182 19.6867 113.865 20.34C113.547 20.9747 113.389 21.6747 113.389 22.44V30H110.365ZM135.346 30.448C133.909 30.448 132.64 30.1213 131.538 29.468C130.437 28.8147 129.569 27.9187 128.934 26.78C128.3 25.6227 127.982 24.316 127.982 22.86C127.982 21.404 128.3 20.1067 128.934 18.968C129.569 17.8107 130.437 16.9053 131.538 16.252C132.64 15.5987 133.909 15.272 135.346 15.272C136.933 15.272 138.268 15.6267 139.35 16.336C140.452 17.0453 141.236 18.0067 141.702 19.22L138.958 20.34C138.305 18.8093 137.082 18.044 135.29 18.044C134.506 18.044 133.788 18.2493 133.134 18.66C132.481 19.052 131.958 19.612 131.566 20.34C131.174 21.0493 130.978 21.8893 130.978 22.86C130.978 23.8307 131.174 24.68 131.566 25.408C131.958 26.136 132.481 26.696 133.134 27.088C133.788 27.48 134.506 27.676 135.29 27.676C136.205 27.676 136.98 27.4707 137.614 27.06C138.249 26.6307 138.744 26.052 139.098 25.324L141.786 26.5C141.282 27.6387 140.48 28.5813 139.378 29.328C138.277 30.0747 136.933 30.448 135.346 30.448ZM151.262 30.448C149.787 30.448 148.49 30.112 147.37 29.44C146.25 28.768 145.373 27.8627 144.738 26.724C144.103 25.5853 143.786 24.2973 143.786 22.86C143.786 21.4413 144.103 20.1627 144.738 19.024C145.373 17.8667 146.25 16.952 147.37 16.28C148.49 15.608 149.787 15.272 151.262 15.272C152.718 15.272 154.006 15.608 155.126 16.28C156.246 16.952 157.123 17.8667 157.758 19.024C158.393 20.1627 158.71 21.4413 158.71 22.86C158.71 24.2973 158.393 25.5853 157.758 26.724C157.123 27.8627 156.246 28.768 155.126 29.44C154.006 30.112 152.718 30.448 151.262 30.448ZM151.262 27.676C152.046 27.676 152.774 27.4893 153.446 27.116C154.118 26.724 154.659 26.1733 155.07 25.464C155.499 24.736 155.714 23.868 155.714 22.86C155.714 21.852 155.499 20.9933 155.07 20.284C154.659 19.556 154.118 19.0053 153.446 18.632C152.774 18.24 152.046 18.044 151.262 18.044C150.478 18.044 149.741 18.24 149.05 18.632C148.378 19.0053 147.827 19.556 147.398 20.284C146.987 20.9933 146.782 21.852 146.782 22.86C146.782 23.868 146.987 24.736 147.398 25.464C147.827 26.1733 148.378 26.724 149.05 27.116C149.741 27.4893 150.478 27.676 151.262 27.676ZM161.522 30V15.72H164.378V17.68H164.546C164.956 16.9893 165.563 16.42 166.366 15.972C167.187 15.5053 168.083 15.272 169.054 15.272C170.808 15.272 172.124 15.7947 173.002 16.84C173.879 17.8853 174.318 19.2667 174.318 20.984V30H171.322V21.376C171.322 20.2187 171.032 19.3787 170.454 18.856C169.875 18.3147 169.119 18.044 168.186 18.044C167.458 18.044 166.823 18.2493 166.282 18.66C165.74 19.052 165.311 19.5747 164.994 20.228C164.695 20.8813 164.546 21.5813 164.546 22.328V30H161.522Z" fill="white"/>
<g id="GPay Logo (Dark)">
<g id="GPay">
<g id="Pay">
<path id="Fill 1" fill-rule="evenodd" clip-rule="evenodd" d="M226.529 9.34665V17.5128H231.565C232.765 17.5128 233.757 17.1096 234.541 16.3032C235.347 15.4988 235.75 14.5394 235.75 13.4288C235.75 12.3406 235.347 11.3924 234.541 10.586C233.757 9.75916 232.765 9.34479 231.565 9.34479H226.529V9.34665ZM226.529 20.3872V29.8599H223.521V6.47218H231.499C233.527 6.47218 235.248 7.14787 236.666 8.49738C238.105 9.84688 238.824 11.4913 238.824 13.4288C238.824 15.411 238.105 17.0667 236.666 18.3938C235.27 19.7227 233.547 20.3854 231.499 20.3854H226.529V20.3872Z" fill="white"/>
<path id="Fill 3" fill-rule="evenodd" clip-rule="evenodd" d="M241.864 24.9602C241.864 25.7442 242.197 26.3975 242.862 26.9201C243.527 27.4427 244.306 27.704 245.2 27.704C246.465 27.704 247.591 27.2354 248.584 26.3004C249.576 25.3634 250.071 24.264 250.071 23.0022C249.133 22.2612 247.825 21.8916 246.147 21.8916C244.925 21.8916 243.907 22.1866 243.09 22.7745C242.273 23.3623 241.864 24.0886 241.864 24.9602ZM245.756 13.3317C247.98 13.3317 249.735 13.9253 251.022 15.1124C252.308 16.2995 252.95 17.9271 252.95 19.9952V29.8599H250.073V27.6387H249.942C248.699 29.4677 247.042 30.3825 244.972 30.3825C243.206 30.3825 241.728 29.8599 240.541 28.8146C239.353 27.7694 238.759 26.4628 238.759 24.8949C238.759 23.2393 239.385 21.9232 240.638 20.9434C241.892 19.9635 243.565 19.4726 245.658 19.4726C247.444 19.4726 248.916 19.7993 250.071 20.4525V19.7657C250.071 18.7204 249.656 17.8338 248.829 17.104C247.999 16.3742 247.031 16.0102 245.919 16.0102C244.239 16.0102 242.911 16.7176 241.93 18.1343L239.28 16.4675C240.741 14.377 242.899 13.3317 245.756 13.3317Z" fill="white"/>
<path id="Fill 5" fill-rule="evenodd" clip-rule="evenodd" d="M269.463 13.8543L259.424 36.9154H256.318L260.046 28.8464L253.44 13.8543H256.71L261.484 25.3522H261.55L266.193 13.8543H269.463Z" fill="white"/>
</g>
<g id="G">
<path id="Fill 8" fill-rule="evenodd" clip-rule="evenodd" d="M214.373 18.3452C214.373 17.3989 214.293 16.4861 214.141 15.6126H201.454V20.7885H208.72C208.408 22.4757 207.465 23.9112 206.033 24.8725V28.2341H210.37C212.91 25.8935 214.373 22.4348 214.373 18.3452Z" fill="#4285F4"/>
<path id="Fill 10" fill-rule="evenodd" clip-rule="evenodd" d="M201.454 31.4782C205.084 31.4782 208.141 30.2873 210.37 28.2341L206.033 24.8725C204.826 25.6844 203.272 26.1585 201.454 26.1585C197.944 26.1585 194.966 23.7955 193.901 20.6112H189.433V24.0736C191.647 28.4637 196.197 31.4782 201.454 31.4782Z" fill="#34A853"/>
<path id="Fill 12" fill-rule="evenodd" clip-rule="evenodd" d="M193.901 20.6111C193.628 19.7992 193.479 18.9331 193.479 18.0391C193.479 17.145 193.628 16.2789 193.901 15.467V12.0045H189.433C188.518 13.8188 188 15.8683 188 18.0391C188 20.2098 188.518 22.2595 189.433 24.0736L193.901 20.6111Z" fill="#FABB05"/>
<path id="Fill 14" fill-rule="evenodd" clip-rule="evenodd" d="M201.454 9.91964C203.436 9.91964 205.213 10.6009 206.615 11.9355V11.9374L210.455 8.10163C208.123 5.93272 205.082 4.60001 201.454 4.60001C196.197 4.60001 191.647 7.61447 189.433 12.0046L193.901 15.467C194.966 12.2827 197.944 9.91964 201.454 9.91964Z" fill="#E94235"/>
</g>
</g>
</g>
</g>
</svg>
