<svg width="154" height="21" viewBox="0 0 154 21" fill="none" xmlns="http://www.w3.org/2000/svg">
<g id="es_book_with_Pay_NBG">
<path id="Left Text" d="M1.81787 15.0006V3.54461H5.83387C6.53787 3.54461 7.16721 3.69394 7.72187 3.99261C8.27654 4.29128 8.71387 4.70194 9.03387 5.22461C9.36454 5.74728 9.52987 6.35528 9.52987 7.04861C9.52987 7.50728 9.43387 7.94461 9.24187 8.36061C9.06054 8.77661 8.79387 9.14994 8.44187 9.48061C8.10054 9.80061 7.68454 10.0513 7.19387 10.2326C7.09787 10.2753 6.99654 10.3073 6.88987 10.3286L10.0579 14.9046V15.0006H8.02587L4.96987 10.5046H3.57787V15.0006H1.81787ZM3.57787 8.88861H5.78587C6.14854 8.88861 6.47387 8.80861 6.76187 8.64861C7.06054 8.48861 7.30054 8.26994 7.48187 7.99261C7.66321 7.70461 7.75387 7.38461 7.75387 7.03261C7.75387 6.72328 7.67921 6.42994 7.52987 6.15261C7.38054 5.86461 7.16187 5.63528 6.87387 5.46461C6.59654 5.28328 6.25521 5.19261 5.84987 5.19261H3.57787V8.88861ZM15.0172 15.2566C14.2172 15.2566 13.5026 15.0699 12.8732 14.6966C12.2439 14.3233 11.7479 13.8113 11.3852 13.1606C11.0332 12.5099 10.8572 11.7686 10.8572 10.9366C10.8572 10.1579 11.0279 9.43794 11.3692 8.77661C11.7106 8.11528 12.1852 7.58728 12.7932 7.19261C13.4119 6.78728 14.1212 6.58461 14.9212 6.58461C15.7639 6.58461 16.4786 6.76594 17.0652 7.12861C17.6626 7.49128 18.1159 7.98728 18.4252 8.61661C18.7346 9.24594 18.8892 9.95528 18.8892 10.7446C18.8892 10.8619 18.8839 10.9686 18.8732 11.0646C18.8732 11.1606 18.8679 11.2353 18.8572 11.2886H12.5532C12.5959 11.7366 12.7079 12.1259 12.8892 12.4566C13.1239 12.8726 13.4332 13.1873 13.8172 13.4006C14.2012 13.6139 14.6172 13.7206 15.0652 13.7206C15.6092 13.7206 16.0626 13.5979 16.4252 13.3526C16.7986 13.0966 17.0919 12.7819 17.3052 12.4086L18.7292 13.0966C18.3772 13.7366 17.8972 14.2593 17.2892 14.6646C16.6812 15.0593 15.9239 15.2566 15.0172 15.2566ZM12.6492 9.99261H17.1772C17.1666 9.78994 17.1132 9.57661 17.0172 9.35261C16.9212 9.11794 16.7826 8.90461 16.6012 8.71261C16.4199 8.52061 16.1906 8.36594 15.9132 8.24861C15.6359 8.12061 15.3106 8.05661 14.9372 8.05661C14.4679 8.05661 14.0519 8.17928 13.6892 8.42461C13.3266 8.65928 13.0439 8.98994 12.8412 9.41661C12.7559 9.59794 12.6919 9.78994 12.6492 9.99261ZM23.6965 15.2566C23.0458 15.2566 22.4805 15.1606 22.0005 14.9686C21.5205 14.7659 21.1258 14.4993 20.8165 14.1686C20.5072 13.8273 20.2778 13.4593 20.1285 13.0646L21.6805 12.3926C21.8725 12.8299 22.1445 13.1659 22.4965 13.4006C22.8592 13.6246 23.2752 13.7366 23.7445 13.7366C24.1712 13.7366 24.5392 13.6619 24.8485 13.5126C25.1578 13.3526 25.3125 13.0966 25.3125 12.7446C25.3125 12.5206 25.2378 12.3393 25.0885 12.2006C24.9498 12.0513 24.7578 11.9286 24.5125 11.8326C24.2778 11.7366 24.0058 11.6513 23.6965 11.5766L22.7205 11.3526C22.3365 11.2566 21.9685 11.1073 21.6165 10.9046C21.2752 10.6913 20.9978 10.4246 20.7845 10.1046C20.5712 9.78461 20.4645 9.40594 20.4645 8.96861C20.4645 8.47794 20.6032 8.05661 20.8805 7.70461C21.1685 7.34194 21.5525 7.06461 22.0325 6.87261C22.5125 6.68061 23.0298 6.58461 23.5845 6.58461C24.0965 6.58461 24.5605 6.65394 24.9765 6.79261C25.4032 6.92061 25.7712 7.11794 26.0805 7.38461C26.4005 7.64061 26.6512 7.96061 26.8325 8.34461L25.3445 9.01661C25.1632 8.65394 24.9178 8.40328 24.6085 8.26461C24.2992 8.11528 23.9632 8.04061 23.6005 8.04061C23.1952 8.04061 22.8538 8.12594 22.5765 8.29661C22.3098 8.45661 22.1765 8.66994 22.1765 8.93661C22.1765 9.21394 22.2938 9.43261 22.5285 9.59261C22.7738 9.75261 23.0725 9.88061 23.4245 9.97661L24.6085 10.2646C25.4192 10.4673 26.0272 10.7766 26.4325 11.1926C26.8378 11.5979 27.0405 12.0939 27.0405 12.6806C27.0405 13.2033 26.8912 13.6619 26.5925 14.0566C26.2938 14.4406 25.8885 14.7393 25.3765 14.9526C24.8752 15.1553 24.3152 15.2566 23.6965 15.2566ZM32.5047 15.2566C31.7047 15.2566 30.9901 15.0699 30.3607 14.6966C29.7314 14.3233 29.2354 13.8113 28.8727 13.1606C28.5207 12.5099 28.3447 11.7686 28.3447 10.9366C28.3447 10.1579 28.5154 9.43794 28.8567 8.77661C29.1981 8.11528 29.6727 7.58728 30.2807 7.19261C30.8994 6.78728 31.6087 6.58461 32.4087 6.58461C33.2514 6.58461 33.9661 6.76594 34.5527 7.12861C35.1501 7.49128 35.6034 7.98728 35.9127 8.61661C36.2221 9.24594 36.3767 9.95528 36.3767 10.7446C36.3767 10.8619 36.3714 10.9686 36.3607 11.0646C36.3607 11.1606 36.3554 11.2353 36.3447 11.2886H30.0407C30.0834 11.7366 30.1954 12.1259 30.3767 12.4566C30.6114 12.8726 30.9207 13.1873 31.3047 13.4006C31.6887 13.6139 32.1047 13.7206 32.5527 13.7206C33.0967 13.7206 33.5501 13.5979 33.9127 13.3526C34.2861 13.0966 34.5794 12.7819 34.7927 12.4086L36.2167 13.0966C35.8647 13.7366 35.3847 14.2593 34.7767 14.6646C34.1687 15.0593 33.4114 15.2566 32.5047 15.2566ZM30.1367 9.99261H34.6647C34.6541 9.78994 34.6007 9.57661 34.5047 9.35261C34.4087 9.11794 34.2701 8.90461 34.0887 8.71261C33.9074 8.52061 33.6781 8.36594 33.4007 8.24861C33.1234 8.12061 32.7981 8.05661 32.4247 8.05661C31.9554 8.05661 31.5394 8.17928 31.1767 8.42461C30.8141 8.65928 30.5314 8.98994 30.3287 9.41661C30.2434 9.59794 30.1794 9.78994 30.1367 9.99261ZM38.1299 15.0006V6.84061H39.7619V8.04061H39.8579C39.9859 7.76328 40.1672 7.51794 40.4019 7.30461C40.6472 7.09128 40.9245 6.92061 41.2339 6.79261C41.5539 6.66461 41.8845 6.60061 42.2259 6.60061C42.4499 6.60061 42.6365 6.61661 42.7859 6.64861C42.9459 6.66994 43.0899 6.70728 43.2179 6.76061V8.55261C43.0152 8.46728 42.8072 8.39794 42.5939 8.34461C42.3912 8.29128 42.1779 8.26461 41.9539 8.26461C41.5485 8.26461 41.1859 8.37661 40.8659 8.60061C40.5565 8.81394 40.3112 9.10194 40.1299 9.46461C39.9485 9.82728 39.8579 10.2326 39.8579 10.6806V15.0006H38.1299ZM47.4474 15.0006L44.0714 6.84061H45.9914L48.2794 12.7766H48.3594L50.6954 6.84061H52.5834L49.1754 15.0006H47.4474ZM56.2555 15.2566C55.6688 15.2566 55.1462 15.1393 54.6875 14.9046C54.2395 14.6699 53.8822 14.3499 53.6155 13.9446C53.3595 13.5286 53.2315 13.0539 53.2315 12.5206C53.2315 11.9339 53.3808 11.4379 53.6795 11.0326C53.9888 10.6273 54.3995 10.3179 54.9115 10.1046C55.4235 9.89128 55.9888 9.78461 56.6075 9.78461C56.9488 9.78461 57.2635 9.81128 57.5515 9.86461C57.8502 9.90728 58.1062 9.96061 58.3195 10.0246C58.5435 10.0886 58.7195 10.1579 58.8475 10.2326V9.80061C58.8475 9.26728 58.6555 8.84061 58.2715 8.52061C57.8875 8.20061 57.3915 8.04061 56.7835 8.04061C56.3675 8.04061 55.9728 8.13661 55.5995 8.32861C55.2262 8.50994 54.9275 8.76061 54.7035 9.08061L53.5195 8.16861C53.7542 7.83794 54.0368 7.55528 54.3675 7.32061C54.7088 7.08594 55.0875 6.90461 55.5035 6.77661C55.9302 6.64861 56.3728 6.58461 56.8315 6.58461C58.0155 6.58461 58.9275 6.87794 59.5675 7.46461C60.2075 8.04061 60.5275 8.85128 60.5275 9.89661V15.0006H58.8475V13.9926H58.7515C58.6128 14.2059 58.4208 14.4086 58.1755 14.6006C57.9408 14.7926 57.6582 14.9473 57.3275 15.0646C57.0075 15.1926 56.6502 15.2566 56.2555 15.2566ZM56.5595 13.8486C57.0075 13.8486 57.4022 13.7419 57.7435 13.5286C58.0955 13.3153 58.3675 13.0379 58.5595 12.6966C58.7515 12.3446 58.8475 11.9659 58.8475 11.5606C58.6128 11.4219 58.3248 11.3099 57.9835 11.2246C57.6528 11.1286 57.3008 11.0806 56.9275 11.0806C56.2235 11.0806 55.7222 11.2193 55.4235 11.4966C55.1248 11.7739 54.9755 12.1206 54.9755 12.5366C54.9755 12.9206 55.1195 13.2353 55.4075 13.4806C55.6955 13.7259 56.0795 13.8486 56.5595 13.8486ZM62.5799 15.0006V6.84061H64.2119V8.04061H64.3079C64.4359 7.76328 64.6172 7.51794 64.8519 7.30461C65.0972 7.09128 65.3745 6.92061 65.6839 6.79261C66.0039 6.66461 66.3345 6.60061 66.6759 6.60061C66.8999 6.60061 67.0865 6.61661 67.2359 6.64861C67.3959 6.66994 67.5399 6.70728 67.6679 6.76061V8.55261C67.4652 8.46728 67.2572 8.39794 67.0439 8.34461C66.8412 8.29128 66.6279 8.26461 66.4039 8.26461C65.9985 8.26461 65.6359 8.37661 65.3159 8.60061C65.0065 8.81394 64.7612 9.10194 64.5799 9.46461C64.3985 9.82728 64.3079 10.2326 64.3079 10.6806V15.0006H62.5799ZM76.8121 15.2566C75.9908 15.2566 75.2601 15.0699 74.6201 14.6966C73.9908 14.3233 73.4948 13.8113 73.1321 13.1606C72.7801 12.4993 72.6041 11.7526 72.6041 10.9206C72.6041 10.0886 72.7801 9.34728 73.1321 8.69661C73.4948 8.04594 73.9908 7.53394 74.6201 7.16061C75.2601 6.77661 75.9908 6.58461 76.8121 6.58461C77.7188 6.58461 78.4815 6.78728 79.1001 7.19261C79.7295 7.59794 80.1775 8.14728 80.4441 8.84061L78.8761 9.48061C78.6841 9.04328 78.4068 8.71794 78.0441 8.50461C77.6921 8.28061 77.2708 8.16861 76.7801 8.16861C76.3321 8.16861 75.9215 8.28594 75.5481 8.52061C75.1748 8.74461 74.8761 9.05928 74.6521 9.46461C74.4281 9.86994 74.3161 10.3553 74.3161 10.9206C74.3161 11.4753 74.4281 11.9606 74.6521 12.3766C74.8761 12.7926 75.1748 13.1126 75.5481 13.3366C75.9215 13.5606 76.3321 13.6726 76.7801 13.6726C77.3028 13.6726 77.7455 13.5553 78.1081 13.3206C78.4708 13.0859 78.7535 12.7553 78.9561 12.3286L80.4921 13.0006C80.1935 13.6513 79.7295 14.1899 79.1001 14.6166C78.4815 15.0433 77.7188 15.2566 76.8121 15.2566ZM85.8855 15.2566C85.0428 15.2566 84.3015 15.0646 83.6615 14.6806C83.0215 14.2966 82.5202 13.7793 82.1575 13.1286C81.7948 12.4673 81.6135 11.7313 81.6135 10.9206C81.6135 10.1099 81.7948 9.37928 82.1575 8.72861C82.5202 8.06728 83.0215 7.54461 83.6615 7.16061C84.3015 6.77661 85.0428 6.58461 85.8855 6.58461C86.7175 6.58461 87.4535 6.78194 88.0935 7.17661C88.7335 7.56061 89.2348 8.07794 89.5975 8.72861C89.9602 9.37928 90.1415 10.1099 90.1415 10.9206C90.1415 11.7313 89.9602 12.4673 89.5975 13.1286C89.2348 13.7793 88.7335 14.2966 88.0935 14.6806C87.4535 15.0646 86.7175 15.2566 85.8855 15.2566ZM85.8855 13.6726C86.3335 13.6726 86.7495 13.5659 87.1335 13.3526C87.5175 13.1286 87.8268 12.8139 88.0615 12.4086C88.3068 11.9926 88.4295 11.4966 88.4295 10.9206C88.4295 10.3446 88.3068 9.85394 88.0615 9.44861C87.8268 9.03261 87.5175 8.71794 87.1335 8.50461C86.7495 8.28061 86.3335 8.16861 85.8855 8.16861C85.4375 8.16861 85.0162 8.28061 84.6215 8.50461C84.2375 8.71794 83.9228 9.03261 83.6775 9.44861C83.4428 9.85394 83.3255 10.3446 83.3255 10.9206C83.3255 11.4966 83.4428 11.9926 83.6775 12.4086C83.9228 12.8139 84.2428 13.1286 84.6375 13.3526C85.0322 13.5659 85.4482 13.6726 85.8855 13.6726ZM91.7268 15.0006V6.84061H93.3588V7.96061H93.4548C93.6894 7.56594 94.0361 7.24061 94.4948 6.98461C94.9641 6.71794 95.4761 6.58461 96.0308 6.58461C97.0334 6.58461 97.7854 6.88328 98.2868 7.48061C98.7881 8.06728 99.0388 8.85661 99.0388 9.84861V15.0006H97.3268V10.0726C97.3268 9.41128 97.1614 8.93128 96.8308 8.63261C96.5001 8.32328 96.0681 8.16861 95.5348 8.16861C95.1188 8.16861 94.7561 8.28594 94.4468 8.52061C94.1374 8.74461 93.8921 9.04328 93.7108 9.41661C93.5401 9.78994 93.4548 10.1899 93.4548 10.6166V15.0006H91.7268Z" fill="white"/>
<g id="GPay (Dark)">
<g id="GPay">
<g id="Pay">
<path id="Fill 1" fill-rule="evenodd" clip-rule="evenodd" d="M128.356 3.42339V8.16175H131.278C131.974 8.16175 132.55 7.92781 133.005 7.45993C133.473 6.99313 133.707 6.43644 133.707 5.79203C133.707 5.16061 133.473 4.61041 133.005 4.14254C132.55 3.66274 131.974 3.4223 131.278 3.4223H128.356V3.42339ZM128.356 9.82966V15.3262H126.611V1.75549H131.24C132.417 1.75549 133.415 2.14756 134.238 2.93061C135.073 3.71365 135.491 4.66782 135.491 5.79203C135.491 6.94224 135.073 7.90291 134.238 8.67296C133.428 9.44409 132.429 9.82858 131.24 9.82858H128.356V9.82966Z" fill="white"/>
<path id="Fill 3" fill-rule="evenodd" clip-rule="evenodd" d="M137.255 12.4831C137.255 12.9379 137.448 13.317 137.834 13.6203C138.22 13.9235 138.672 14.0752 139.19 14.0752C139.924 14.0752 140.578 13.8032 141.153 13.2607C141.729 12.717 142.017 12.0791 142.017 11.3469C141.472 10.917 140.713 10.7025 139.74 10.7025C139.031 10.7025 138.44 10.8736 137.966 11.2148C137.492 11.5559 137.255 11.9773 137.255 12.4831M139.513 5.73566C140.803 5.73566 141.821 6.08007 142.569 6.76889C143.314 7.45771 143.687 8.40213 143.687 9.60216V15.3261H142.018V14.0373H141.942C141.221 15.0985 140.259 15.6294 139.058 15.6294C138.033 15.6294 137.176 15.3261 136.487 14.7196C135.797 14.1131 135.453 13.3549 135.453 12.4452C135.453 11.4845 135.816 10.7208 136.543 10.1523C137.271 9.58375 138.241 9.2989 139.456 9.2989C140.492 9.2989 141.346 9.48844 142.017 9.86751V9.46894C142.017 8.86243 141.776 8.34798 141.296 7.92451C140.814 7.50103 140.252 7.28984 139.607 7.28984C138.633 7.28984 137.862 7.70032 137.293 8.52235L135.755 7.55519C136.603 6.34217 137.855 5.73566 139.513 5.73566" fill="white"/>
<path id="Fill 5" fill-rule="evenodd" clip-rule="evenodd" d="M153.269 6.03894L147.443 19.4201H145.641L147.804 14.738L143.971 6.03894H145.869L148.639 12.7106H148.677L151.371 6.03894H153.269Z" fill="white"/>
</g>
<g id="G">
<path id="Fill 8" fill-rule="evenodd" clip-rule="evenodd" d="M121.303 8.64473C121.303 8.09563 121.256 7.56601 121.168 7.05914H113.806V10.0625H118.023C117.842 11.0414 117.294 11.8744 116.464 12.4322V14.3828H118.98C120.454 13.0246 121.303 11.0177 121.303 8.64473" fill="#4285F4"/>
<path id="Fill 10" fill-rule="evenodd" clip-rule="evenodd" d="M113.806 16.2651C115.913 16.2651 117.687 15.5741 118.98 14.3828L116.464 12.4322C115.763 12.9033 114.861 13.1784 113.806 13.1784C111.77 13.1784 110.042 11.8073 109.424 9.95959H106.832V11.9687C108.116 14.516 110.757 16.2651 113.806 16.2651" fill="#34A853"/>
<path id="Fill 12" fill-rule="evenodd" clip-rule="evenodd" d="M109.424 9.9596C109.266 9.48847 109.179 8.98593 109.179 8.46715C109.179 7.94837 109.266 7.44583 109.424 6.9747V4.96564H106.832C106.3 6.01837 106 7.20756 106 8.46715C106 9.72674 106.3 10.916 106.832 11.9687L109.424 9.9596Z" fill="#FABB05"/>
<path id="Fill 14" fill-rule="evenodd" clip-rule="evenodd" d="M113.806 3.75583C114.957 3.75583 115.988 4.15115 116.801 4.92553V4.92661L119.029 2.70094C117.676 1.44243 115.912 0.669128 113.806 0.669128C110.757 0.669128 108.116 2.41826 106.832 4.9656L109.424 6.97467C110.042 5.12698 111.77 3.75583 113.806 3.75583" fill="#E94235"/>
</g>
</g>
</g>
</g>
</svg>
