<?xml version="1.0" encoding="UTF-8"?>
<svg width="133px" height="16px" viewBox="0 0 133 16" version="1.1" xmlns="http://www.w3.org/2000/svg" xmlns:xlink="http://www.w3.org/1999/xlink">
    <title>buy with + G PAy logoes</title>
    <g id="Buy-with-GPAy" stroke="none" stroke-width="1" fill="none" fill-rule="evenodd">
        <g id="Buy-with-GPay-button---Light-SVGs" transform="translate(-139.000000, -378.000000)">
            <g id="Buy-with-GPay-button-Copy-3" transform="translate(116.000000, 367.000000)">
                <g id="buy-with-+-G-PAy-logo" transform="translate(23.644000, 11.000000)">
                    <g id="Group-4" transform="translate(0.000000, 0.246947)">
                        <g id="label" transform="translate(0.000000, 1.505053)" fill="#3C4043">
                            <path d="M2.576,9.786 C1.77332932,9.32866438 1.14333562,8.69867068 0.686,7.896 C0.22866438,7.09332932 0,6.20667152 0,5.236 C0,4.26532848 0.22866438,3.37867068 0.686,2.576 C1.14333562,1.77332932 1.77332932,1.14333562 2.576,0.686 C3.37867068,0.22866438 4.26532848,0 5.236,0 C5.99200378,0 6.68033023,0.1399986 7.301,0.42 C7.92166977,0.7000014 8.46999762,1.10599734 8.946,1.638 L7.826,2.716 C7.48066494,2.30533128 7.0980021,1.99966767 6.678,1.799 C6.2579979,1.59833233 5.77733604,1.498 5.236,1.498 C4.56399664,1.498 3.95033611,1.65199846 3.395,1.96 C2.83966389,2.26800154 2.3986683,2.70433051 2.072,3.269 C1.7453317,3.83366949 1.582,4.4893296 1.582,5.236 C1.582,5.9826704 1.7453317,6.63833051 2.072,7.203 C2.3986683,7.76766949 2.83966389,8.20399846 3.395,8.512 C3.95033611,8.82000154 4.56399664,8.974 5.236,8.974 C6.3560056,8.974 7.30799608,8.507338 8.092,7.574 L9.226,8.666 C8.74066424,9.23533618 8.15733674,9.67866508 7.476,9.996 C6.79466326,10.3133349 6.04800406,10.472 5.236,10.472 C4.26532848,10.472 3.37867068,10.2433356 2.576,9.786 Z M12.008,9.975 C11.4386638,9.64366501 10.9953349,9.18866956 10.678,8.61 C10.3606651,8.03133044 10.202,7.38733688 10.202,6.678 C10.202,5.96866312 10.3606651,5.32466956 10.678,4.746 C10.9953349,4.16733044 11.4386638,3.71233499 12.008,3.381 C12.5773362,3.04966501 13.2213297,2.884 13.94,2.884 C14.6586703,2.884 15.3026638,3.05199832 15.872,3.388 C16.4413362,3.72400168 16.8846651,4.18133044 17.202,4.76 C17.5193349,5.33866956 17.678,5.9779965 17.678,6.678 C17.678,7.38733688 17.5193349,8.03133044 17.202,8.61 C16.8846651,9.18866956 16.4413362,9.64366501 15.872,9.975 C15.3026638,10.306335 14.6586703,10.472 13.94,10.472 C13.2213297,10.472 12.5773362,10.306335 12.008,9.975 Z M15.032,8.771 C15.3680017,8.57966571 15.6363323,8.30433513 15.837,7.945 C16.0376677,7.58566487 16.138,7.16333576 16.138,6.678 C16.138,6.19266424 16.0376677,5.77266844 15.837,5.418 C15.6363323,5.06333156 15.3680017,4.79033429 15.032,4.599 C14.6959983,4.40766571 14.332002,4.312 13.94,4.312 C13.547998,4.312 13.1840017,4.40766571 12.848,4.599 C12.5119983,4.79033429 12.2436677,5.06333156 12.043,5.418 C11.8423323,5.77266844 11.742,6.19266424 11.742,6.678 C11.742,7.16333576 11.8423323,7.58566487 12.043,7.945 C12.2436677,8.30433513 12.5119983,8.57966571 12.848,8.771 C13.1840017,8.96233429 13.547998,9.058 13.94,9.058 C14.332002,9.058 14.6959983,8.96233429 15.032,8.771 Z M19.102,3.108 L20.572,3.108 L20.572,4.046 L20.642,4.046 C20.8566678,3.70066494 21.1599981,3.42066774 21.552,3.206 C21.944002,2.99133226 22.3639978,2.884 22.812,2.884 C23.3253359,2.884 23.7733314,3.00299881 24.156,3.241 C24.5386686,3.47900119 24.8139992,3.79399804 24.982,4.186 C25.2246679,3.79399804 25.548998,3.47900119 25.955,3.241 C26.361002,3.00299881 26.8393306,2.884 27.39,2.884 C28.2113375,2.884 28.8343312,3.13366417 29.259,3.633 C29.6836688,4.13233583 29.896,4.81132904 29.896,5.67 L29.896,10.248 L28.356,10.248 L28.356,5.936 C28.356,4.85332792 27.8940046,4.312 26.97,4.312 C26.4753309,4.312 26.0693349,4.51266466 25.752,4.914 C25.4346651,5.31533534 25.276,5.80999706 25.276,6.398 L25.276,10.248 L23.736,10.248 L23.736,5.936 C23.736,4.85332792 23.2600048,4.312 22.308,4.312 C21.8226643,4.312 21.4236682,4.51266466 21.111,4.914 C20.7983318,5.31533534 20.642,5.80999706 20.642,6.398 L20.642,10.248 L19.102,10.248 L19.102,3.108 Z M31.74,3.108 L33.21,3.108 L33.21,4.046 L33.28,4.046 C33.4853344,3.7193317 33.7886647,3.44400112 34.19,3.22 C34.5913354,2.99599888 35.0439975,2.884 35.548,2.884 C36.1920032,2.884 36.7753307,3.0473317 37.298,3.374 C37.8206693,3.7006683 38.2336652,4.15099713 38.537,4.725 C38.8403349,5.29900287 38.992,5.94999636 38.992,6.678 C38.992,7.40600364 38.8403349,8.05699713 38.537,8.631 C38.2336652,9.20500287 37.8206693,9.6553317 37.298,9.982 C36.7753307,10.3086683 36.1920032,10.472 35.548,10.472 C35.0439975,10.472 34.5913354,10.3600011 34.19,10.136 C33.7886647,9.91199888 33.4853344,9.64133492 33.28,9.324 L33.21,9.324 L33.28,10.318 L33.28,13.272 L31.74,13.272 L31.74,3.108 Z M36.374,8.764 C36.7006683,8.56799902 36.961999,8.28800182 37.158,7.924 C37.354001,7.55999818 37.452,7.144669 37.452,6.678 C37.452,6.211331 37.354001,5.79833513 37.158,5.439 C36.961999,5.07966487 36.7006683,4.80200098 36.374,4.606 C36.0473317,4.40999902 35.6973352,4.312 35.324,4.312 C34.9506648,4.312 34.6030016,4.40999902 34.281,4.606 C33.9589984,4.80200098 33.700001,5.07966487 33.504,5.439 C33.307999,5.79833513 33.21,6.211331 33.21,6.678 C33.21,7.144669 33.307999,7.55999818 33.504,7.924 C33.700001,8.28800182 33.9589984,8.56799902 34.281,8.764 C34.6030016,8.96000098 34.9506648,9.058 35.324,9.058 C35.6973352,9.058 36.0473317,8.96000098 36.374,8.764 Z M40.472,3.108 L41.942,3.108 L41.942,4.158 L42.012,4.158 C42.1706675,3.79399818 42.4459981,3.49300119 42.838,3.255 C43.230002,3.01699881 43.6453312,2.898 44.084,2.898 C44.4293351,2.898 44.7186655,2.9446662 44.952,3.038 L44.952,4.634 C44.5413313,4.48466592 44.1726683,4.41 43.846,4.41 C43.4913316,4.41 43.1763347,4.5033324 42.901,4.69 C42.6256653,4.8766676 42.4086675,5.12633177 42.25,5.439 C42.0913326,5.75166823 42.012,6.0946648 42.012,6.468 L42.012,10.248 L40.472,10.248 L40.472,3.108 Z M46.894,10.171 C46.4926647,9.97033233 46.1800011,9.68566851 45.956,9.317 C45.7319989,8.94833149 45.62,8.530669 45.62,8.064 C45.62,7.32666298 45.8976639,6.74333548 46.453,6.314 C47.0083361,5.88466452 47.7106624,5.67 48.56,5.67 C48.9800021,5.67 49.3579983,5.70966627 49.694,5.789 C50.0300017,5.86833373 50.295999,5.9546662 50.492,6.048 L50.492,5.684 C50.492,5.24533114 50.3286683,4.88833471 50.002,4.613 C49.6753317,4.33766529 49.2553359,4.2 48.742,4.2 C48.3779982,4.2 48.0350016,4.27933254 47.713,4.438 C47.3909984,4.59666746 47.132001,4.8159986 46.936,5.096 L45.858,4.27 C46.1753349,3.83133114 46.5859975,3.49066788 47.09,3.248 C47.5940025,3.00533212 48.1539969,2.884 48.77,2.884 C49.8060052,2.884 50.6039972,3.13833079 51.164,3.647 C51.7240028,4.15566921 52.004,4.87199538 52.004,5.796 L52.004,10.248 L50.492,10.248 L50.492,9.394 L50.422,9.394 C50.2166657,9.70200154 49.9273352,9.95866564 49.554,10.164 C49.1806648,10.3693344 48.7513358,10.472 48.266,10.472 C47.7526641,10.472 47.2953354,10.3716677 46.894,10.171 Z M49.54,8.932 C49.8386682,8.75466578 50.0719992,8.51666816 50.24,8.218 C50.4080009,7.91933184 50.492,7.59733506 50.492,7.252 C50.2773323,7.13066606 50.0276681,7.03266704 49.743,6.958 C49.4583319,6.88333296 49.1620016,6.846 48.854,6.846 C48.2753305,6.846 47.850668,6.96033219 47.58,7.189 C47.309332,7.41766781 47.174,7.71399818 47.174,8.078 C47.174,8.4046683 47.2999988,8.67299895 47.552,8.883 C47.8040013,9.09300105 48.1306647,9.198 48.532,9.198 C48.9053352,9.198 49.2413319,9.10933422 49.54,8.932 Z M53.834,3.108 L55.304,3.108 L55.304,4.158 L55.374,4.158 C55.5326675,3.79399818 55.8079981,3.49300119 56.2,3.255 C56.592002,3.01699881 57.0073312,2.898 57.446,2.898 C57.7913351,2.898 58.0806655,2.9446662 58.314,3.038 L58.314,4.634 C57.9033313,4.48466592 57.5346683,4.41 57.208,4.41 C56.8533316,4.41 56.5383347,4.5033324 56.263,4.69 C55.9876653,4.8766676 55.7706675,5.12633177 55.612,5.439 C55.4533326,5.75166823 55.374,6.0946648 55.374,6.468 L55.374,10.248 L53.834,10.248 L53.834,3.108 Z M64.459,9.982 C63.8943306,9.6553317 63.4556683,9.20500287 63.143,8.631 C62.8303318,8.05699713 62.674,7.40600364 62.674,6.678 C62.674,5.94999636 62.8303318,5.29900287 63.143,4.725 C63.4556683,4.15099713 63.8943306,3.7006683 64.459,3.374 C65.0236695,3.0473317 65.6606632,2.884 66.37,2.884 C67.154004,2.884 67.8213306,3.06133156 68.372,3.416 C68.9226695,3.77066844 69.3146655,4.2513303 69.548,4.858 L68.134,5.446 C67.8166651,4.68999622 67.2146711,4.312 66.328,4.312 C65.9453315,4.312 65.5930017,4.40999902 65.271,4.606 C64.9489984,4.80200098 64.6923343,5.07966487 64.501,5.439 C64.3096658,5.79833513 64.214,6.211331 64.214,6.678 C64.214,7.144669 64.3096658,7.55999818 64.501,7.924 C64.6923343,8.28800182 64.9489984,8.56799902 65.271,8.764 C65.5930017,8.96000098 65.9453315,9.058 66.328,9.058 C66.7760023,9.058 67.1609984,8.95766767 67.483,8.757 C67.8050017,8.55633233 68.0499992,8.2693352 68.218,7.896 L69.604,8.498 C69.333332,9.1046697 68.9226695,9.58533156 68.372,9.94 C67.8213306,10.2946684 67.154004,10.472 66.37,10.472 C65.6606632,10.472 65.0236695,10.3086683 64.459,9.982 Z M72.4140001,9.975 C71.8446639,9.64366501 71.401335,9.18866956 71.0840001,8.61 C70.7666651,8.03133044 70.6080001,7.38733688 70.6080001,6.678 C70.6080001,5.96866312 70.7666651,5.32466956 71.0840001,4.746 C71.401335,4.16733044 71.8446639,3.71233499 72.4140001,3.381 C72.9833362,3.04966501 73.6273298,2.884 74.3460001,2.884 C75.0646703,2.884 75.7086639,3.05199832 76.2780001,3.388 C76.8473362,3.72400168 77.2906651,4.18133044 77.6080001,4.76 C77.925335,5.33866956 78.0840001,5.9779965 78.0840001,6.678 C78.0840001,7.38733688 77.925335,8.03133044 77.6080001,8.61 C77.2906651,9.18866956 76.8473362,9.64366501 76.2780001,9.975 C75.7086639,10.306335 75.0646703,10.472 74.3460001,10.472 C73.6273298,10.472 72.9833362,10.306335 72.4140001,9.975 Z M75.4380001,8.771 C75.7740017,8.57966571 76.0423324,8.30433513 76.2430001,7.945 C76.4436677,7.58566487 76.5440001,7.16333576 76.5440001,6.678 C76.5440001,6.19266424 76.4436677,5.77266844 76.2430001,5.418 C76.0423324,5.06333156 75.7740017,4.79033429 75.4380001,4.599 C75.1019984,4.40766571 74.738002,4.312 74.3460001,4.312 C73.9539981,4.312 73.5900017,4.40766571 73.2540001,4.599 C72.9179984,4.79033429 72.6496677,5.06333156 72.4490001,5.418 C72.2483324,5.77266844 72.1480001,6.19266424 72.1480001,6.678 C72.1480001,7.16333576 72.2483324,7.58566487 72.4490001,7.945 C72.6496677,8.30433513 72.9179984,8.57966571 73.2540001,8.771 C73.5900017,8.96233429 73.9539981,9.058 74.3460001,9.058 C74.738002,9.058 75.1019984,8.96233429 75.4380001,8.771 Z M79.5080001,3.108 L80.9780001,3.108 L80.9780001,4.046 L81.0480001,4.046 C81.2533344,3.70999832 81.558998,3.43233443 81.9650001,3.213 C82.3710021,2.99366557 82.8026644,2.884 83.2600001,2.884 C84.1280044,2.884 84.7883311,3.13833079 85.2410001,3.647 C85.693669,4.15566921 85.9200001,4.84866228 85.9200001,5.726 L85.9200001,10.248 L84.3800001,10.248 L84.3800001,5.936 C84.3800001,5.3759972 84.2423348,4.96533464 83.9670001,4.704 C83.6916653,4.44266536 83.3113358,4.312 82.8260001,4.312 C82.480665,4.312 82.1726681,4.40766571 81.9020001,4.599 C81.631332,4.79033429 81.4213341,5.04466508 81.2720001,5.362 C81.122666,5.67933492 81.0480001,6.01999818 81.0480001,6.384 L81.0480001,10.248 L79.5080001,10.248 L79.5080001,3.108 Z" id="✏️"></path>
                        </g>
                        <g id="GPay" transform="translate(93.602947, 0.000000)">
                            <g id="Pay" transform="translate(16.636454, 0.779834)" fill="#5F6368">
                                <path d="M1.55777786,1.4616383 L1.55777786,5.31785666 L3.93588221,5.31785666 C4.50237065,5.31785666 4.97082659,5.12746965 5.34142651,4.74669563 C5.72173261,4.36680303 5.91232685,3.91375246 5.91232685,3.38930677 C5.91232685,2.87543813 5.72173261,2.42767609 5.34142651,2.04690207 C4.97082659,1.65643241 4.50237065,1.46075688 3.93588221,1.46075688 L1.55777786,1.46075688 L1.55777786,1.4616383 Z M1.55777786,6.67524552 L1.55777786,11.1484588 L0.137144862,11.1484588 L0.137144862,0.104249437 L3.90491065,0.104249437 C4.862382,0.104249437 5.67505467,0.423323961 6.34469341,1.06059159 C7.02421483,1.69785922 7.36384318,2.47439142 7.36384318,3.38930677 C7.36384318,4.32537623 7.02412659,5.10719696 6.34469341,5.73388753 C5.685555,6.36145952 4.87199995,6.6743641 3.90491065,6.6743641 L1.55777786,6.6743641 L1.55777786,6.67524552 Z" id="Fill-1"></path>
                                <path d="M8.799459,8.83471899 C8.799459,9.20491595 8.95652278,9.51341342 9.27073856,9.76021139 C9.58477787,10.0070094 9.95273064,10.1304084 10.3745969,10.1304084 C10.9718804,10.1304084 11.503956,9.90908346 11.9725002,9.46757951 C12.4411326,9.025106 12.6748752,8.50594883 12.6748752,7.910108 C12.2319201,7.56018373 11.6142536,7.38566231 10.8218757,7.38566231 C10.2448869,7.38566231 9.7639894,7.52492688 9.37838901,7.8025746 C8.99270039,8.08013418 8.799459,8.42309522 8.799459,8.83471899 M10.6374581,3.34346404 C11.6874912,3.34346404 12.5160467,3.62375603 13.1240953,4.18434 C13.7311732,4.74492397 14.034624,5.51352338 14.034624,6.49013822 L14.034624,11.14845 L12.6758459,11.14845 L12.6758459,10.0995586 L12.613991,10.0995586 C12.0272078,10.9632634 11.2445361,11.395248 10.2669464,11.395248 C9.43309662,11.395248 8.73513345,11.14845 8.17473344,10.6548541 C7.61362752,10.1612581 7.33303044,9.54426317 7.33303044,8.80386924 C7.33303044,8.02204851 7.62853975,7.40055833 8.22061723,6.93790027 C8.81269472,6.47515406 9.60251372,6.24334025 10.5907802,6.24334025 C11.4342479,6.24334025 12.1295639,6.39758898 12.6748752,6.70608645 L12.6748752,6.3817234 C12.6748752,5.88812745 12.4789867,5.46945231 12.0881803,5.12481657 C11.696315,4.78018083 11.2392418,4.60830367 10.7142252,4.60830367 C9.92096493,4.60830367 9.29368046,4.94236235 8.83043057,5.61136115 L7.57912643,4.82425189 C8.26914818,3.83705999 9.28829794,3.34346404 10.6374581,3.34346404" id="Fill-3"></path>
                                <g id="Group-7" transform="translate(14.246872, 3.550589)">
                                    <polygon id="Fill-5" points="7.58536844 0.0396727745 2.84442493 10.9296334 1.37781989 10.9296334 3.13825772 7.11924897 0.0189535384 0.0396727745 1.56311985 0.0396727745 3.81760265 5.46922822 3.84848598 5.46922822 6.04120213 0.0396727745"></polygon>
                                </g>
                            </g>
                            <g id="G">
                                <path d="M12.4539307,6.49079556 C12.4539307,6.04391494 12.4159883,5.6128999 12.3445155,5.20039472 L6.3531502,5.20039472 L6.3531502,7.64457609 L9.78472892,7.64457609 C9.63737134,8.44129284 9.19176906,9.11919399 8.51586541,9.57312598 L8.51586541,11.1605658 L10.5638711,11.1605658 C11.7630266,10.0552635 12.4539307,8.42198971 12.4539307,6.49079556" id="Fill-8" fill="#4285F4"></path>
                                <path d="M6.35314138,12.6924673 C8.06760717,12.6924673 9.51118207,12.1301205 10.5638623,11.160557 L8.51585659,9.57311716 C7.94583862,9.95653545 7.21169784,10.1804165 6.35314138,10.1804165 C4.69603033,10.1804165 3.28951542,9.06453705 2.7865584,7.56083225 L0.676786033,7.56083225 L0.676786033,9.19586883 C1.72240722,11.2689718 3.87100434,12.6924673 6.35314138,12.6924673" id="Fill-10" fill="#34A853"></path>
                                <path d="M2.78656722,7.56081462 C2.65773963,7.17739634 2.58714917,6.76841684 2.58714917,6.34621601 C2.58714917,5.92401519 2.65773963,5.51503569 2.78656722,5.13161741 L2.78656722,3.49658082 L0.676794856,3.49658082 C0.244428291,4.35332237 8.82380747e-06,5.321123 8.82380747e-06,6.34621601 C8.82380747e-06,7.37130903 0.244428291,8.3391978 0.676794856,9.1958512 L2.78656722,7.56081462 Z" id="Fill-12" fill="#FABB05"></path>
                                <path d="M6.35314138,2.51205082 C7.28934735,2.51205082 8.12849144,2.83376961 8.790277,3.46398586 L8.790277,3.46486728 L10.6035694,1.65354643 C9.50235826,0.629334836 8.06672479,0 6.35314138,0 C3.87100434,0 1.72240722,1.42349546 0.676786033,3.49659845 L2.7865584,5.13163504 C3.28951542,3.62793023 4.69603033,2.51205082 6.35314138,2.51205082" id="Fill-14" fill="#E94235"></path>
                            </g>
                        </g>
                    </g>
                    <g id="Gpay-logo-18px-h" transform="translate(93.356000, 0.000000)"></g>
                </g>
            </g>
        </g>
    </g>
</svg>