<svg width="160" height="21" viewBox="0 0 160 21" fill="none" xmlns="http://www.w3.org/2000/svg">
<g id="es_buy_with_Pay_NBG">
<path id="Left Text" d="M7.32863 15.2566C6.48596 15.2566 5.70196 15.1073 4.97663 14.8086C4.25129 14.4993 3.61663 14.0779 3.07263 13.5446C2.53929 13.0006 2.11796 12.3659 1.80863 11.6406C1.50996 10.9046 1.36063 10.1153 1.36063 9.27261C1.36063 8.41928 1.50996 7.62994 1.80863 6.90461C2.11796 6.17928 2.53929 5.54994 3.07263 5.01661C3.61663 4.47261 4.25129 4.05128 4.97663 3.75261C5.70196 3.44328 6.48596 3.28861 7.32863 3.28861C7.92596 3.28861 8.48063 3.36328 8.99263 3.51261C9.50463 3.66194 9.97396 3.87528 10.4006 4.15261C10.8273 4.42994 11.2166 4.76594 11.5686 5.16061L10.3366 6.36061C10.0806 6.05128 9.80329 5.79528 9.50463 5.59261C9.20596 5.37928 8.87529 5.21928 8.51263 5.11261C8.16063 5.00594 7.77129 4.95261 7.34463 4.95261C6.57663 4.95261 5.87263 5.13394 5.23263 5.49661C4.59263 5.84861 4.08063 6.34461 3.69663 6.98461C3.32329 7.62461 3.13663 8.38728 3.13663 9.27261C3.13663 10.1473 3.32329 10.9099 3.69663 11.5606C4.08063 12.2006 4.59263 12.7019 5.23263 13.0646C5.87263 13.4166 6.57663 13.5926 7.34463 13.5926C7.81396 13.5926 8.24063 13.5286 8.62463 13.4006C9.01929 13.2726 9.38196 13.0859 9.71263 12.8406C10.0433 12.5953 10.3473 12.3073 10.6246 11.9766L11.8886 13.1926C11.5366 13.6086 11.126 13.9713 10.6566 14.2806C10.1873 14.5899 9.67529 14.8299 9.12063 15.0006C8.56596 15.1713 7.96863 15.2566 7.32863 15.2566ZM17.248 15.2566C16.4053 15.2566 15.664 15.0646 15.024 14.6806C14.384 14.2966 13.8827 13.7793 13.52 13.1286C13.1573 12.4673 12.976 11.7313 12.976 10.9206C12.976 10.1099 13.1573 9.37928 13.52 8.72861C13.8827 8.06728 14.384 7.54461 15.024 7.16061C15.664 6.77661 16.4053 6.58461 17.248 6.58461C18.08 6.58461 18.816 6.78194 19.456 7.17661C20.096 7.56061 20.5973 8.07794 20.96 8.72861C21.3227 9.37928 21.504 10.1099 21.504 10.9206C21.504 11.7313 21.3227 12.4673 20.96 13.1286C20.5973 13.7793 20.096 14.2966 19.456 14.6806C18.816 15.0646 18.08 15.2566 17.248 15.2566ZM17.248 13.6726C17.696 13.6726 18.112 13.5659 18.496 13.3526C18.88 13.1286 19.1893 12.8139 19.424 12.4086C19.6693 11.9926 19.792 11.4966 19.792 10.9206C19.792 10.3446 19.6693 9.85394 19.424 9.44861C19.1893 9.03261 18.88 8.71794 18.496 8.50461C18.112 8.28061 17.696 8.16861 17.248 8.16861C16.8 8.16861 16.3787 8.28061 15.984 8.50461C15.6 8.71794 15.2853 9.03261 15.04 9.44861C14.8053 9.85394 14.688 10.3446 14.688 10.9206C14.688 11.4966 14.8053 11.9926 15.04 12.4086C15.2853 12.8139 15.6053 13.1286 16 13.3526C16.3947 13.5659 16.8107 13.6726 17.248 13.6726ZM23.0892 15.0006V6.84061H24.7212V7.96061H24.8172C24.9772 7.69394 25.1852 7.45928 25.4412 7.25661C25.6972 7.05394 25.9852 6.89394 26.3052 6.77661C26.6359 6.64861 26.9772 6.58461 27.3292 6.58461C27.9372 6.58461 28.4546 6.72861 28.8812 7.01661C29.3079 7.30461 29.6119 7.66728 29.7932 8.10461C30.0599 7.67794 30.4226 7.32061 30.8812 7.03261C31.3399 6.73394 31.8999 6.58461 32.5612 6.58461C33.5213 6.58461 34.2359 6.87794 34.7052 7.46461C35.1746 8.04061 35.4093 8.80861 35.4093 9.76861V15.0006H33.6972V10.0566C33.6972 9.39528 33.5532 8.91528 33.2653 8.61661C32.9879 8.31794 32.5986 8.16861 32.0972 8.16861C31.7026 8.16861 31.3559 8.28061 31.0573 8.50461C30.7586 8.71794 30.5239 9.01128 30.3532 9.38461C30.1932 9.75794 30.1132 10.1739 30.1132 10.6326V15.0006H28.4012V10.0566C28.4012 9.40594 28.2572 8.93128 27.9692 8.63261C27.6812 8.32328 27.2759 8.16861 26.7532 8.16861C26.3799 8.16861 26.0439 8.28061 25.7452 8.50461C25.4572 8.72861 25.2279 9.02728 25.0572 9.40061C24.8972 9.77394 24.8172 10.1899 24.8172 10.6486V15.0006H23.0892ZM37.4889 18.4566V6.84061H39.1049V7.94461H39.2009C39.3502 7.70994 39.5475 7.49128 39.7929 7.28861C40.0489 7.07528 40.3475 6.90461 40.6889 6.77661C41.0302 6.64861 41.4089 6.58461 41.8249 6.58461C42.5715 6.58461 43.2382 6.77128 43.8249 7.14461C44.4115 7.51794 44.8755 8.02994 45.2169 8.68061C45.5689 9.33128 45.7449 10.0779 45.7449 10.9206C45.7449 11.7633 45.5689 12.5099 45.2169 13.1606C44.8755 13.8113 44.4115 14.3233 43.8249 14.6966C43.2382 15.0699 42.5715 15.2566 41.8249 15.2566C41.2062 15.2566 40.6675 15.1179 40.2089 14.8406C39.7502 14.5633 39.4142 14.2539 39.2009 13.9126H39.1049L39.2009 15.0486V18.4566H37.4889ZM41.5689 13.6726C41.9955 13.6726 42.3955 13.5606 42.7689 13.3366C43.1529 13.1126 43.4569 12.7926 43.6809 12.3766C43.9155 11.9606 44.0329 11.4753 44.0329 10.9206C44.0329 10.3553 43.9155 9.86994 43.6809 9.46461C43.4569 9.04861 43.1529 8.72861 42.7689 8.50461C42.3955 8.28061 41.9955 8.16861 41.5689 8.16861C41.1422 8.16861 40.7422 8.28061 40.3689 8.50461C39.9955 8.72861 39.6915 9.04861 39.4569 9.46461C39.2222 9.86994 39.1049 10.3553 39.1049 10.9206C39.1049 11.4859 39.2222 11.9766 39.4569 12.3926C39.6915 12.7979 39.9955 13.1126 40.3689 13.3366C40.7422 13.5606 41.1422 13.6726 41.5689 13.6726ZM47.4049 15.0006V6.84061H49.0369V8.04061H49.1329C49.2609 7.76328 49.4422 7.51794 49.6769 7.30461C49.9222 7.09128 50.1995 6.92061 50.5089 6.79261C50.8289 6.66461 51.1595 6.60061 51.5009 6.60061C51.7249 6.60061 51.9115 6.61661 52.0609 6.64861C52.2209 6.66994 52.3649 6.70728 52.4929 6.76061V8.55261C52.2902 8.46728 52.0822 8.39794 51.8689 8.34461C51.6662 8.29128 51.4529 8.26461 51.2289 8.26461C50.8235 8.26461 50.4609 8.37661 50.1409 8.60061C49.8315 8.81394 49.5862 9.10194 49.4049 9.46461C49.2235 9.82728 49.1329 10.2326 49.1329 10.6806V15.0006H47.4049ZM56.2555 15.2566C55.6688 15.2566 55.1462 15.1393 54.6875 14.9046C54.2395 14.6699 53.8822 14.3499 53.6155 13.9446C53.3595 13.5286 53.2315 13.0539 53.2315 12.5206C53.2315 11.9339 53.3808 11.4379 53.6795 11.0326C53.9888 10.6273 54.3995 10.3179 54.9115 10.1046C55.4235 9.89128 55.9888 9.78461 56.6075 9.78461C56.9488 9.78461 57.2635 9.81128 57.5515 9.86461C57.8502 9.90728 58.1062 9.96061 58.3195 10.0246C58.5435 10.0886 58.7195 10.1579 58.8475 10.2326V9.80061C58.8475 9.26728 58.6555 8.84061 58.2715 8.52061C57.8875 8.20061 57.3915 8.04061 56.7835 8.04061C56.3675 8.04061 55.9728 8.13661 55.5995 8.32861C55.2262 8.50994 54.9275 8.76061 54.7035 9.08061L53.5195 8.16861C53.7542 7.83794 54.0368 7.55528 54.3675 7.32061C54.7088 7.08594 55.0875 6.90461 55.5035 6.77661C55.9302 6.64861 56.3728 6.58461 56.8315 6.58461C58.0155 6.58461 58.9275 6.87794 59.5675 7.46461C60.2075 8.04061 60.5275 8.85128 60.5275 9.89661V15.0006H58.8475V13.9926H58.7515C58.6128 14.2059 58.4208 14.4086 58.1755 14.6006C57.9408 14.7926 57.6582 14.9473 57.3275 15.0646C57.0075 15.1926 56.6502 15.2566 56.2555 15.2566ZM56.5595 13.8486C57.0075 13.8486 57.4022 13.7419 57.7435 13.5286C58.0955 13.3153 58.3675 13.0379 58.5595 12.6966C58.7515 12.3446 58.8475 11.9659 58.8475 11.5606C58.6128 11.4219 58.3248 11.3099 57.9835 11.2246C57.6528 11.1286 57.3008 11.0806 56.9275 11.0806C56.2235 11.0806 55.7222 11.2193 55.4235 11.4966C55.1248 11.7739 54.9755 12.1206 54.9755 12.5366C54.9755 12.9206 55.1195 13.2353 55.4075 13.4806C55.6955 13.7259 56.0795 13.8486 56.5595 13.8486ZM62.5799 15.0006V6.84061H64.2119V8.04061H64.3079C64.4359 7.76328 64.6172 7.51794 64.8519 7.30461C65.0972 7.09128 65.3745 6.92061 65.6839 6.79261C66.0039 6.66461 66.3345 6.60061 66.6759 6.60061C66.8999 6.60061 67.0865 6.61661 67.2359 6.64861C67.3959 6.66994 67.5399 6.70728 67.6679 6.76061V8.55261C67.4652 8.46728 67.2572 8.39794 67.0439 8.34461C66.8412 8.29128 66.6279 8.26461 66.4039 8.26461C65.9985 8.26461 65.6359 8.37661 65.3159 8.60061C65.0065 8.81394 64.7612 9.10194 64.5799 9.46461C64.3985 9.82728 64.3079 10.2326 64.3079 10.6806V15.0006H62.5799ZM76.8121 15.2566C75.9908 15.2566 75.2601 15.0699 74.6201 14.6966C73.9908 14.3233 73.4948 13.8113 73.1321 13.1606C72.7801 12.4993 72.6041 11.7526 72.6041 10.9206C72.6041 10.0886 72.7801 9.34728 73.1321 8.69661C73.4948 8.04594 73.9908 7.53394 74.6201 7.16061C75.2601 6.77661 75.9908 6.58461 76.8121 6.58461C77.7188 6.58461 78.4815 6.78728 79.1001 7.19261C79.7295 7.59794 80.1775 8.14728 80.4441 8.84061L78.8761 9.48061C78.6841 9.04328 78.4068 8.71794 78.0441 8.50461C77.6921 8.28061 77.2708 8.16861 76.7801 8.16861C76.3321 8.16861 75.9215 8.28594 75.5481 8.52061C75.1748 8.74461 74.8761 9.05928 74.6521 9.46461C74.4281 9.86994 74.3161 10.3553 74.3161 10.9206C74.3161 11.4753 74.4281 11.9606 74.6521 12.3766C74.8761 12.7926 75.1748 13.1126 75.5481 13.3366C75.9215 13.5606 76.3321 13.6726 76.7801 13.6726C77.3028 13.6726 77.7455 13.5553 78.1081 13.3206C78.4708 13.0859 78.7535 12.7553 78.9561 12.3286L80.4921 13.0006C80.1935 13.6513 79.7295 14.1899 79.1001 14.6166C78.4815 15.0433 77.7188 15.2566 76.8121 15.2566ZM85.8855 15.2566C85.0428 15.2566 84.3015 15.0646 83.6615 14.6806C83.0215 14.2966 82.5202 13.7793 82.1575 13.1286C81.7948 12.4673 81.6135 11.7313 81.6135 10.9206C81.6135 10.1099 81.7948 9.37928 82.1575 8.72861C82.5202 8.06728 83.0215 7.54461 83.6615 7.16061C84.3015 6.77661 85.0428 6.58461 85.8855 6.58461C86.7175 6.58461 87.4535 6.78194 88.0935 7.17661C88.7335 7.56061 89.2348 8.07794 89.5975 8.72861C89.9602 9.37928 90.1415 10.1099 90.1415 10.9206C90.1415 11.7313 89.9602 12.4673 89.5975 13.1286C89.2348 13.7793 88.7335 14.2966 88.0935 14.6806C87.4535 15.0646 86.7175 15.2566 85.8855 15.2566ZM85.8855 13.6726C86.3335 13.6726 86.7495 13.5659 87.1335 13.3526C87.5175 13.1286 87.8268 12.8139 88.0615 12.4086C88.3068 11.9926 88.4295 11.4966 88.4295 10.9206C88.4295 10.3446 88.3068 9.85394 88.0615 9.44861C87.8268 9.03261 87.5175 8.71794 87.1335 8.50461C86.7495 8.28061 86.3335 8.16861 85.8855 8.16861C85.4375 8.16861 85.0162 8.28061 84.6215 8.50461C84.2375 8.71794 83.9228 9.03261 83.6775 9.44861C83.4428 9.85394 83.3255 10.3446 83.3255 10.9206C83.3255 11.4966 83.4428 11.9926 83.6775 12.4086C83.9228 12.8139 84.2428 13.1286 84.6375 13.3526C85.0322 13.5659 85.4482 13.6726 85.8855 13.6726ZM91.7268 15.0006V6.84061H93.3588V7.96061H93.4548C93.6894 7.56594 94.0361 7.24061 94.4948 6.98461C94.9641 6.71794 95.4761 6.58461 96.0308 6.58461C97.0334 6.58461 97.7854 6.88328 98.2868 7.48061C98.7881 8.06728 99.0388 8.85661 99.0388 9.84861V15.0006H97.3268V10.0726C97.3268 9.41128 97.1614 8.93128 96.8308 8.63261C96.5001 8.32328 96.0681 8.16861 95.5348 8.16861C95.1188 8.16861 94.7561 8.28594 94.4468 8.52061C94.1374 8.74461 93.8921 9.04328 93.7108 9.41661C93.5401 9.78994 93.4548 10.1899 93.4548 10.6166V15.0006H91.7268Z" fill="white"/>
<g id="GPay (Dark)">
<g id="GPay">
<g id="Pay">
<path id="Fill 1" fill-rule="evenodd" clip-rule="evenodd" d="M128.356 3.42339V8.16175H131.278C131.974 8.16175 132.55 7.92781 133.005 7.45993C133.473 6.99313 133.707 6.43644 133.707 5.79203C133.707 5.16061 133.473 4.61041 133.005 4.14254C132.55 3.66274 131.974 3.4223 131.278 3.4223H128.356V3.42339ZM128.356 9.82966V15.3262H126.611V1.75549H131.24C132.417 1.75549 133.415 2.14756 134.238 2.93061C135.073 3.71365 135.491 4.66782 135.491 5.79203C135.491 6.94224 135.073 7.90291 134.238 8.67296C133.428 9.44409 132.429 9.82858 131.24 9.82858H128.356V9.82966Z" fill="white"/>
<path id="Fill 3" fill-rule="evenodd" clip-rule="evenodd" d="M137.255 12.4831C137.255 12.9379 137.448 13.317 137.834 13.6203C138.22 13.9235 138.672 14.0752 139.19 14.0752C139.924 14.0752 140.578 13.8032 141.153 13.2607C141.729 12.717 142.017 12.0791 142.017 11.3469C141.472 10.917 140.713 10.7025 139.74 10.7025C139.031 10.7025 138.44 10.8736 137.966 11.2148C137.492 11.5559 137.255 11.9773 137.255 12.4831M139.513 5.73566C140.803 5.73566 141.821 6.08007 142.569 6.76889C143.314 7.45771 143.687 8.40213 143.687 9.60216V15.3261H142.018V14.0373H141.942C141.221 15.0985 140.259 15.6294 139.058 15.6294C138.033 15.6294 137.176 15.3261 136.487 14.7196C135.797 14.1131 135.453 13.3549 135.453 12.4452C135.453 11.4845 135.816 10.7208 136.543 10.1523C137.271 9.58375 138.241 9.2989 139.456 9.2989C140.492 9.2989 141.346 9.48844 142.017 9.86751V9.46894C142.017 8.86243 141.776 8.34798 141.296 7.92451C140.814 7.50103 140.252 7.28984 139.607 7.28984C138.633 7.28984 137.862 7.70032 137.293 8.52235L135.755 7.55519C136.603 6.34217 137.855 5.73566 139.513 5.73566" fill="white"/>
<path id="Fill 5" fill-rule="evenodd" clip-rule="evenodd" d="M153.269 6.03894L147.443 19.4201H145.641L147.804 14.738L143.971 6.03894H145.869L148.639 12.7106H148.677L151.371 6.03894H153.269Z" fill="white"/>
</g>
<g id="G">
<path id="Fill 8" fill-rule="evenodd" clip-rule="evenodd" d="M121.303 8.64473C121.303 8.09563 121.256 7.56601 121.168 7.05914H113.806V10.0625H118.023C117.842 11.0414 117.294 11.8744 116.464 12.4322V14.3828H118.98C120.454 13.0246 121.303 11.0177 121.303 8.64473" fill="#4285F4"/>
<path id="Fill 10" fill-rule="evenodd" clip-rule="evenodd" d="M113.806 16.2651C115.913 16.2651 117.687 15.5741 118.98 14.3828L116.464 12.4322C115.763 12.9033 114.861 13.1784 113.806 13.1784C111.77 13.1784 110.042 11.8073 109.424 9.95959H106.832V11.9687C108.116 14.516 110.757 16.2651 113.806 16.2651" fill="#34A853"/>
<path id="Fill 12" fill-rule="evenodd" clip-rule="evenodd" d="M109.424 9.9596C109.266 9.48847 109.179 8.98593 109.179 8.46715C109.179 7.94837 109.266 7.44583 109.424 6.9747V4.96564H106.832C106.3 6.01837 106 7.20756 106 8.46715C106 9.72674 106.3 10.916 106.832 11.9687L109.424 9.9596Z" fill="#FABB05"/>
<path id="Fill 14" fill-rule="evenodd" clip-rule="evenodd" d="M113.806 3.75583C114.957 3.75583 115.988 4.15115 116.801 4.92553V4.92661L119.029 2.70094C117.676 1.44243 115.912 0.669128 113.806 0.669128C110.757 0.669128 108.116 2.41826 106.832 4.9656L109.424 6.97467C110.042 5.12698 111.77 3.75583 113.806 3.75583" fill="#E94235"/>
</g>
</g>
</g>
</g>
</svg>
