<svg width="226" height="21" viewBox="0 0 226 21" fill="none" xmlns="http://www.w3.org/2000/svg">
<g id="es_checkout_with_Pay_NBG">
<path id="Left Text" d="M7.5505 15.2566C6.70784 15.2566 5.92384 15.1073 5.1985 14.8086C4.47317 14.4993 3.8385 14.0779 3.2945 13.5446C2.76117 13.0006 2.33984 12.3659 2.0305 11.6406C1.73184 10.9046 1.5825 10.1153 1.5825 9.27261C1.5825 8.41928 1.73184 7.62994 2.0305 6.90461C2.33984 6.17928 2.76117 5.54994 3.2945 5.01661C3.8385 4.47261 4.47317 4.05128 5.1985 3.75261C5.92384 3.44328 6.70784 3.28861 7.5505 3.28861C8.14784 3.28861 8.7025 3.36328 9.2145 3.51261C9.7265 3.66194 10.1958 3.87528 10.6225 4.15261C11.0492 4.42994 11.4385 4.76594 11.7905 5.16061L10.5585 6.36061C10.3025 6.05128 10.0252 5.79528 9.7265 5.59261C9.42784 5.37928 9.09717 5.21928 8.7345 5.11261C8.3825 5.00594 7.99317 4.95261 7.5665 4.95261C6.7985 4.95261 6.0945 5.13394 5.4545 5.49661C4.8145 5.84861 4.3025 6.34461 3.9185 6.98461C3.54517 7.62461 3.3585 8.38728 3.3585 9.27261C3.3585 10.1473 3.54517 10.9099 3.9185 11.5606C4.3025 12.2006 4.8145 12.7019 5.4545 13.0646C6.0945 13.4166 6.7985 13.5926 7.5665 13.5926C8.03584 13.5926 8.4625 13.5286 8.8465 13.4006C9.24117 13.2726 9.60384 13.0859 9.9345 12.8406C10.2652 12.5953 10.5692 12.3073 10.8465 11.9766L12.1105 13.1926C11.7585 13.6086 11.3478 13.9713 10.8785 14.2806C10.4092 14.5899 9.89717 14.8299 9.3425 15.0006C8.78784 15.1713 8.1905 15.2566 7.5505 15.2566ZM17.4699 15.2566C16.6272 15.2566 15.8859 15.0646 15.2459 14.6806C14.6059 14.2966 14.1045 13.7793 13.7419 13.1286C13.3792 12.4673 13.1979 11.7313 13.1979 10.9206C13.1979 10.1099 13.3792 9.37928 13.7419 8.72861C14.1045 8.06728 14.6059 7.54461 15.2459 7.16061C15.8859 6.77661 16.6272 6.58461 17.4699 6.58461C18.3019 6.58461 19.0379 6.78194 19.6779 7.17661C20.3179 7.56061 20.8192 8.07794 21.1819 8.72861C21.5445 9.37928 21.7259 10.1099 21.7259 10.9206C21.7259 11.7313 21.5445 12.4673 21.1819 13.1286C20.8192 13.7793 20.3179 14.2966 19.6779 14.6806C19.0379 15.0646 18.3019 15.2566 17.4699 15.2566ZM17.4699 13.6726C17.9179 13.6726 18.3339 13.5659 18.7179 13.3526C19.1019 13.1286 19.4112 12.8139 19.6459 12.4086C19.8912 11.9926 20.0139 11.4966 20.0139 10.9206C20.0139 10.3446 19.8912 9.85394 19.6459 9.44861C19.4112 9.03261 19.1019 8.71794 18.7179 8.50461C18.3339 8.28061 17.9179 8.16861 17.4699 8.16861C17.0219 8.16861 16.6005 8.28061 16.2059 8.50461C15.8219 8.71794 15.5072 9.03261 15.2619 9.44861C15.0272 9.85394 14.9099 10.3446 14.9099 10.9206C14.9099 11.4966 15.0272 11.9926 15.2619 12.4086C15.5072 12.8139 15.8272 13.1286 16.2219 13.3526C16.6165 13.5659 17.0325 13.6726 17.4699 13.6726ZM23.3111 15.0006V6.84061H24.9431V7.96061H25.0391C25.2738 7.56594 25.6205 7.24061 26.0791 6.98461C26.5485 6.71794 27.0605 6.58461 27.6151 6.58461C28.6178 6.58461 29.3698 6.88328 29.8711 7.48061C30.3725 8.06728 30.6231 8.85661 30.6231 9.84861V15.0006H28.9111V10.0726C28.9111 9.41128 28.7458 8.93128 28.4151 8.63261C28.0845 8.32328 27.6525 8.16861 27.1191 8.16861C26.7031 8.16861 26.3405 8.28594 26.0311 8.52061C25.7218 8.74461 25.4765 9.04328 25.2951 9.41661C25.1245 9.78994 25.0391 10.1899 25.0391 10.6166V15.0006H23.3111ZM32.0261 8.34461V6.84061H33.5141V6.16861C33.5141 5.58194 33.6368 5.08594 33.8821 4.68061C34.1275 4.26461 34.4635 3.94994 34.8901 3.73661C35.3168 3.52328 35.7915 3.41661 36.3141 3.41661C36.5808 3.41661 36.7941 3.43261 36.9541 3.46461C37.1141 3.49661 37.2475 3.52861 37.3541 3.56061V5.22461C37.2475 5.19261 37.1195 5.15528 36.9701 5.11261C36.8208 5.05928 36.6288 5.03261 36.3941 5.03261C36.1915 5.03261 35.9995 5.08061 35.8181 5.17661C35.6368 5.27261 35.4928 5.41661 35.3861 5.60861C35.2795 5.80061 35.2261 6.03528 35.2261 6.31261V6.84061H40.4261V15.0006H38.6981V8.34461H35.2261V15.0006H33.5141V8.34461H32.0261ZM39.5621 5.64061C39.2421 5.64061 38.9648 5.52861 38.7301 5.30461C38.5061 5.06994 38.3941 4.79261 38.3941 4.47261C38.3941 4.14194 38.5061 3.86994 38.7301 3.65661C38.9648 3.43261 39.2421 3.32061 39.5621 3.32061C39.8821 3.32061 40.1541 3.43261 40.3781 3.65661C40.6021 3.86994 40.7141 4.14194 40.7141 4.47261C40.7141 4.79261 40.6021 5.06994 40.3781 5.30461C40.1541 5.52861 39.8821 5.64061 39.5621 5.64061ZM42.7205 15.0006V6.84061H44.3525V8.04061H44.4485C44.5765 7.76328 44.7578 7.51794 44.9925 7.30461C45.2378 7.09128 45.5152 6.92061 45.8245 6.79261C46.1445 6.66461 46.4752 6.60061 46.8165 6.60061C47.0405 6.60061 47.2272 6.61661 47.3765 6.64861C47.5365 6.66994 47.6805 6.70728 47.8085 6.76061V8.55261C47.6058 8.46728 47.3978 8.39794 47.1845 8.34461C46.9818 8.29128 46.7685 8.26461 46.5445 8.26461C46.1392 8.26461 45.7765 8.37661 45.4565 8.60061C45.1472 8.81394 44.9018 9.10194 44.7205 9.46461C44.5392 9.82728 44.4485 10.2326 44.4485 10.6806V15.0006H42.7205ZM49.2924 15.0006V6.84061H50.9244V7.96061H51.0204C51.1804 7.69394 51.3884 7.45928 51.6444 7.25661C51.9004 7.05394 52.1884 6.89394 52.5084 6.77661C52.839 6.64861 53.1804 6.58461 53.5324 6.58461C54.1404 6.58461 54.6577 6.72861 55.0844 7.01661C55.511 7.30461 55.815 7.66728 55.9964 8.10461C56.263 7.67794 56.6257 7.32061 57.0844 7.03261C57.543 6.73394 58.103 6.58461 58.7644 6.58461C59.7244 6.58461 60.439 6.87794 60.9084 7.46461C61.3777 8.04061 61.6124 8.80861 61.6124 9.76861V15.0006H59.9004V10.0566C59.9004 9.39528 59.7564 8.91528 59.4684 8.61661C59.191 8.31794 58.8017 8.16861 58.3004 8.16861C57.9057 8.16861 57.559 8.28061 57.2604 8.50461C56.9617 8.71794 56.727 9.01128 56.5564 9.38461C56.3964 9.75794 56.3164 10.1739 56.3164 10.6326V15.0006H54.6044V10.0566C54.6044 9.40594 54.4604 8.93128 54.1724 8.63261C53.8844 8.32328 53.479 8.16861 52.9564 8.16861C52.583 8.16861 52.247 8.28061 51.9484 8.50461C51.6604 8.72861 51.431 9.02728 51.2604 9.40061C51.1004 9.77394 51.0204 10.1899 51.0204 10.6486V15.0006H49.2924ZM66.1899 15.2566C65.6032 15.2566 65.0805 15.1393 64.6219 14.9046C64.1739 14.6699 63.8165 14.3499 63.5499 13.9446C63.2939 13.5286 63.1659 13.0539 63.1659 12.5206C63.1659 11.9339 63.3152 11.4379 63.6139 11.0326C63.9232 10.6273 64.3339 10.3179 64.8459 10.1046C65.3579 9.89128 65.9232 9.78461 66.5419 9.78461C66.8832 9.78461 67.1979 9.81128 67.4859 9.86461C67.7845 9.90728 68.0405 9.96061 68.2539 10.0246C68.4779 10.0886 68.6539 10.1579 68.7819 10.2326V9.80061C68.7819 9.26728 68.5899 8.84061 68.2059 8.52061C67.8219 8.20061 67.3259 8.04061 66.7179 8.04061C66.3019 8.04061 65.9072 8.13661 65.5339 8.32861C65.1605 8.50994 64.8619 8.76061 64.6379 9.08061L63.4539 8.16861C63.6885 7.83794 63.9712 7.55528 64.3019 7.32061C64.6432 7.08594 65.0219 6.90461 65.4379 6.77661C65.8645 6.64861 66.3072 6.58461 66.7659 6.58461C67.9499 6.58461 68.8619 6.87794 69.5019 7.46461C70.1419 8.04061 70.4619 8.85128 70.4619 9.89661V15.0006H68.7819V13.9926H68.6859C68.5472 14.2059 68.3552 14.4086 68.1099 14.6006C67.8752 14.7926 67.5925 14.9473 67.2619 15.0646C66.9419 15.1926 66.5845 15.2566 66.1899 15.2566ZM66.4939 13.8486C66.9419 13.8486 67.3365 13.7419 67.6779 13.5286C68.0299 13.3153 68.3019 13.0379 68.4939 12.6966C68.6859 12.3446 68.7819 11.9659 68.7819 11.5606C68.5472 11.4219 68.2592 11.3099 67.9179 11.2246C67.5872 11.1286 67.2352 11.0806 66.8619 11.0806C66.1579 11.0806 65.6565 11.2193 65.3579 11.4966C65.0592 11.7739 64.9099 12.1206 64.9099 12.5366C64.9099 12.9206 65.0539 13.2353 65.3419 13.4806C65.6299 13.7259 66.0139 13.8486 66.4939 13.8486ZM72.5143 15.0006V6.84061H74.1463V8.04061H74.2423C74.3703 7.76328 74.5516 7.51794 74.7863 7.30461C75.0316 7.09128 75.3089 6.92061 75.6183 6.79261C75.9383 6.66461 76.2689 6.60061 76.6103 6.60061C76.8343 6.60061 77.0209 6.61661 77.1703 6.64861C77.3303 6.66994 77.4743 6.70728 77.6023 6.76061V8.55261C77.3996 8.46728 77.1916 8.39794 76.9783 8.34461C76.7756 8.29128 76.5623 8.26461 76.3383 8.26461C75.9329 8.26461 75.5703 8.37661 75.2503 8.60061C74.9409 8.81394 74.6956 9.10194 74.5143 9.46461C74.3329 9.82728 74.2423 10.2326 74.2423 10.6806V15.0006H72.5143ZM86.7465 15.2566C85.9252 15.2566 85.1945 15.0699 84.5545 14.6966C83.9252 14.3233 83.4292 13.8113 83.0665 13.1606C82.7145 12.4993 82.5385 11.7526 82.5385 10.9206C82.5385 10.0886 82.7145 9.34728 83.0665 8.69661C83.4292 8.04594 83.9252 7.53394 84.5545 7.16061C85.1945 6.77661 85.9252 6.58461 86.7465 6.58461C87.6532 6.58461 88.4158 6.78728 89.0345 7.19261C89.6638 7.59794 90.1118 8.14728 90.3785 8.84061L88.8105 9.48061C88.6185 9.04328 88.3412 8.71794 87.9785 8.50461C87.6265 8.28061 87.2052 8.16861 86.7145 8.16861C86.2665 8.16861 85.8558 8.28594 85.4825 8.52061C85.1092 8.74461 84.8105 9.05928 84.5865 9.46461C84.3625 9.86994 84.2505 10.3553 84.2505 10.9206C84.2505 11.4753 84.3625 11.9606 84.5865 12.3766C84.8105 12.7926 85.1092 13.1126 85.4825 13.3366C85.8558 13.5606 86.2665 13.6726 86.7145 13.6726C87.2372 13.6726 87.6798 13.5553 88.0425 13.3206C88.4052 13.0859 88.6878 12.7553 88.8905 12.3286L90.4265 13.0006C90.1278 13.6513 89.6638 14.1899 89.0345 14.6166C88.4158 15.0433 87.6532 15.2566 86.7465 15.2566ZM95.8199 15.2566C94.9772 15.2566 94.2359 15.0646 93.5959 14.6806C92.9559 14.2966 92.4545 13.7793 92.0919 13.1286C91.7292 12.4673 91.5479 11.7313 91.5479 10.9206C91.5479 10.1099 91.7292 9.37928 92.0919 8.72861C92.4545 8.06728 92.9559 7.54461 93.5959 7.16061C94.2359 6.77661 94.9772 6.58461 95.8199 6.58461C96.6519 6.58461 97.3879 6.78194 98.0279 7.17661C98.6679 7.56061 99.1692 8.07794 99.5319 8.72861C99.8945 9.37928 100.076 10.1099 100.076 10.9206C100.076 11.7313 99.8945 12.4673 99.5319 13.1286C99.1692 13.7793 98.6679 14.2966 98.0279 14.6806C97.3879 15.0646 96.6519 15.2566 95.8199 15.2566ZM95.8199 13.6726C96.2679 13.6726 96.6839 13.5659 97.0679 13.3526C97.4519 13.1286 97.7612 12.8139 97.9959 12.4086C98.2412 11.9926 98.3639 11.4966 98.3639 10.9206C98.3639 10.3446 98.2412 9.85394 97.9959 9.44861C97.7612 9.03261 97.4519 8.71794 97.0679 8.50461C96.6839 8.28061 96.2679 8.16861 95.8199 8.16861C95.3719 8.16861 94.9505 8.28061 94.5559 8.50461C94.1719 8.71794 93.8572 9.03261 93.6119 9.44861C93.3772 9.85394 93.2599 10.3446 93.2599 10.9206C93.2599 11.4966 93.3772 11.9926 93.6119 12.4086C93.8572 12.8139 94.1772 13.1286 94.5719 13.3526C94.9665 13.5659 95.3825 13.6726 95.8199 13.6726ZM101.661 15.0006V6.84061H103.293V7.96061H103.389C103.549 7.69394 103.757 7.45928 104.013 7.25661C104.269 7.05394 104.557 6.89394 104.877 6.77661C105.208 6.64861 105.549 6.58461 105.901 6.58461C106.509 6.58461 107.026 6.72861 107.453 7.01661C107.88 7.30461 108.184 7.66728 108.365 8.10461C108.632 7.67794 108.994 7.32061 109.453 7.03261C109.912 6.73394 110.472 6.58461 111.133 6.58461C112.093 6.58461 112.808 6.87794 113.277 7.46461C113.746 8.04061 113.981 8.80861 113.981 9.76861V15.0006H112.269V10.0566C112.269 9.39528 112.125 8.91528 111.837 8.61661C111.56 8.31794 111.17 8.16861 110.669 8.16861C110.274 8.16861 109.928 8.28061 109.629 8.50461C109.33 8.71794 109.096 9.01128 108.925 9.38461C108.765 9.75794 108.685 10.1739 108.685 10.6326V15.0006H106.973V10.0566C106.973 9.40594 106.829 8.93128 106.541 8.63261C106.253 8.32328 105.848 8.16861 105.325 8.16861C104.952 8.16861 104.616 8.28061 104.317 8.50461C104.029 8.72861 103.8 9.02728 103.629 9.40061C103.469 9.77394 103.389 10.1899 103.389 10.6486V15.0006H101.661ZM116.061 18.4566V6.84061H117.677V7.94461H117.773C117.922 7.70994 118.119 7.49128 118.365 7.28861C118.621 7.07528 118.919 6.90461 119.261 6.77661C119.602 6.64861 119.981 6.58461 120.397 6.58461C121.143 6.58461 121.81 6.77128 122.397 7.14461C122.983 7.51794 123.447 8.02994 123.789 8.68061C124.141 9.33128 124.317 10.0779 124.317 10.9206C124.317 11.7633 124.141 12.5099 123.789 13.1606C123.447 13.8113 122.983 14.3233 122.397 14.6966C121.81 15.0699 121.143 15.2566 120.397 15.2566C119.778 15.2566 119.239 15.1179 118.781 14.8406C118.322 14.5633 117.986 14.2539 117.773 13.9126H117.677L117.773 15.0486V18.4566H116.061ZM120.141 13.6726C120.567 13.6726 120.967 13.5606 121.341 13.3366C121.725 13.1126 122.029 12.7926 122.253 12.3766C122.487 11.9606 122.605 11.4753 122.605 10.9206C122.605 10.3553 122.487 9.86994 122.253 9.46461C122.029 9.04861 121.725 8.72861 121.341 8.50461C120.967 8.28061 120.567 8.16861 120.141 8.16861C119.714 8.16861 119.314 8.28061 118.941 8.50461C118.567 8.72861 118.263 9.04861 118.029 9.46461C117.794 9.86994 117.677 10.3553 117.677 10.9206C117.677 11.4859 117.794 11.9766 118.029 12.3926C118.263 12.7979 118.567 13.1126 118.941 13.3366C119.314 13.5606 119.714 13.6726 120.141 13.6726ZM125.977 15.0006V6.84061H127.609V8.04061H127.705C127.833 7.76328 128.014 7.51794 128.249 7.30461C128.494 7.09128 128.771 6.92061 129.081 6.79261C129.401 6.66461 129.731 6.60061 130.073 6.60061C130.297 6.60061 130.483 6.61661 130.633 6.64861C130.793 6.66994 130.937 6.70728 131.065 6.76061V8.55261C130.862 8.46728 130.654 8.39794 130.441 8.34461C130.238 8.29128 130.025 8.26461 129.801 8.26461C129.395 8.26461 129.033 8.37661 128.713 8.60061C128.403 8.81394 128.158 9.10194 127.977 9.46461C127.795 9.82728 127.705 10.2326 127.705 10.6806V15.0006H125.977ZM134.827 15.2566C134.241 15.2566 133.718 15.1393 133.259 14.9046C132.811 14.6699 132.454 14.3499 132.187 13.9446C131.931 13.5286 131.803 13.0539 131.803 12.5206C131.803 11.9339 131.953 11.4379 132.251 11.0326C132.561 10.6273 132.971 10.3179 133.483 10.1046C133.995 9.89128 134.561 9.78461 135.179 9.78461C135.521 9.78461 135.835 9.81128 136.123 9.86461C136.422 9.90728 136.678 9.96061 136.891 10.0246C137.115 10.0886 137.291 10.1579 137.419 10.2326V9.80061C137.419 9.26728 137.227 8.84061 136.843 8.52061C136.459 8.20061 135.963 8.04061 135.355 8.04061C134.939 8.04061 134.545 8.13661 134.171 8.32861C133.798 8.50994 133.499 8.76061 133.275 9.08061L132.091 8.16861C132.326 7.83794 132.609 7.55528 132.939 7.32061C133.281 7.08594 133.659 6.90461 134.075 6.77661C134.502 6.64861 134.945 6.58461 135.403 6.58461C136.587 6.58461 137.499 6.87794 138.139 7.46461C138.779 8.04061 139.099 8.85128 139.099 9.89661V15.0006H137.419V13.9926H137.323C137.185 14.2059 136.993 14.4086 136.747 14.6006C136.513 14.7926 136.23 14.9473 135.899 15.0646C135.579 15.1926 135.222 15.2566 134.827 15.2566ZM135.131 13.8486C135.579 13.8486 135.974 13.7419 136.315 13.5286C136.667 13.3153 136.939 13.0379 137.131 12.6966C137.323 12.3446 137.419 11.9659 137.419 11.5606C137.185 11.4219 136.897 11.3099 136.555 11.2246C136.225 11.1286 135.873 11.0806 135.499 11.0806C134.795 11.0806 134.294 11.2193 133.995 11.4966C133.697 11.7739 133.547 12.1206 133.547 12.5366C133.547 12.9206 133.691 13.2353 133.979 13.4806C134.267 13.7259 134.651 13.8486 135.131 13.8486ZM148.812 15.2566C147.991 15.2566 147.26 15.0699 146.62 14.6966C145.991 14.3233 145.495 13.8113 145.132 13.1606C144.78 12.4993 144.604 11.7526 144.604 10.9206C144.604 10.0886 144.78 9.34728 145.132 8.69661C145.495 8.04594 145.991 7.53394 146.62 7.16061C147.26 6.77661 147.991 6.58461 148.812 6.58461C149.719 6.58461 150.481 6.78728 151.1 7.19261C151.729 7.59794 152.177 8.14728 152.444 8.84061L150.876 9.48061C150.684 9.04328 150.407 8.71794 150.044 8.50461C149.692 8.28061 149.271 8.16861 148.78 8.16861C148.332 8.16861 147.921 8.28594 147.548 8.52061C147.175 8.74461 146.876 9.05928 146.652 9.46461C146.428 9.86994 146.316 10.3553 146.316 10.9206C146.316 11.4753 146.428 11.9606 146.652 12.3766C146.876 12.7926 147.175 13.1126 147.548 13.3366C147.921 13.5606 148.332 13.6726 148.78 13.6726C149.303 13.6726 149.745 13.5553 150.108 13.3206C150.471 13.0859 150.753 12.7553 150.956 12.3286L152.492 13.0006C152.193 13.6513 151.729 14.1899 151.1 14.6166C150.481 15.0433 149.719 15.2566 148.812 15.2566ZM157.886 15.2566C157.043 15.2566 156.302 15.0646 155.662 14.6806C155.022 14.2966 154.52 13.7793 154.158 13.1286C153.795 12.4673 153.614 11.7313 153.614 10.9206C153.614 10.1099 153.795 9.37928 154.158 8.72861C154.52 8.06728 155.022 7.54461 155.662 7.16061C156.302 6.77661 157.043 6.58461 157.886 6.58461C158.718 6.58461 159.454 6.78194 160.094 7.17661C160.734 7.56061 161.235 8.07794 161.598 8.72861C161.96 9.37928 162.142 10.1099 162.142 10.9206C162.142 11.7313 161.96 12.4673 161.598 13.1286C161.235 13.7793 160.734 14.2966 160.094 14.6806C159.454 15.0646 158.718 15.2566 157.886 15.2566ZM157.886 13.6726C158.334 13.6726 158.75 13.5659 159.134 13.3526C159.518 13.1286 159.827 12.8139 160.062 12.4086C160.307 11.9926 160.43 11.4966 160.43 10.9206C160.43 10.3446 160.307 9.85394 160.062 9.44861C159.827 9.03261 159.518 8.71794 159.134 8.50461C158.75 8.28061 158.334 8.16861 157.886 8.16861C157.438 8.16861 157.016 8.28061 156.622 8.50461C156.238 8.71794 155.923 9.03261 155.678 9.44861C155.443 9.85394 155.326 10.3446 155.326 10.9206C155.326 11.4966 155.443 11.9926 155.678 12.4086C155.923 12.8139 156.243 13.1286 156.638 13.3526C157.032 13.5659 157.448 13.6726 157.886 13.6726ZM163.727 15.0006V6.84061H165.359V7.96061H165.455C165.689 7.56594 166.036 7.24061 166.495 6.98461C166.964 6.71794 167.476 6.58461 168.031 6.58461C169.033 6.58461 169.785 6.88328 170.287 7.48061C170.788 8.06728 171.039 8.85661 171.039 9.84861V15.0006H169.327V10.0726C169.327 9.41128 169.161 8.93128 168.831 8.63261C168.5 8.32328 168.068 8.16861 167.535 8.16861C167.119 8.16861 166.756 8.28594 166.447 8.52061C166.137 8.74461 165.892 9.04328 165.711 9.41661C165.54 9.78994 165.455 10.1899 165.455 10.6166V15.0006H163.727Z" fill="white"/>
<g id="GPay (Dark)">
<g id="GPay">
<g id="Pay">
<path id="Fill 1" fill-rule="evenodd" clip-rule="evenodd" d="M200.356 3.42339V8.16175H203.278C203.974 8.16175 204.55 7.92781 205.005 7.45993C205.473 6.99313 205.707 6.43644 205.707 5.79203C205.707 5.16061 205.473 4.61041 205.005 4.14254C204.55 3.66274 203.974 3.4223 203.278 3.4223H200.356V3.42339ZM200.356 9.82966V15.3262H198.611V1.75549H203.24C204.417 1.75549 205.415 2.14756 206.238 2.93061C207.073 3.71365 207.491 4.66782 207.491 5.79203C207.491 6.94224 207.073 7.90291 206.238 8.67296C205.428 9.44409 204.429 9.82858 203.24 9.82858H200.356V9.82966Z" fill="white"/>
<path id="Fill 3" fill-rule="evenodd" clip-rule="evenodd" d="M209.255 12.4831C209.255 12.9379 209.448 13.317 209.834 13.6203C210.22 13.9235 210.672 14.0752 211.19 14.0752C211.924 14.0752 212.578 13.8032 213.153 13.2607C213.729 12.717 214.017 12.0791 214.017 11.3469C213.472 10.917 212.713 10.7025 211.74 10.7025C211.031 10.7025 210.44 10.8736 209.966 11.2148C209.492 11.5559 209.255 11.9773 209.255 12.4831M211.513 5.73566C212.803 5.73566 213.821 6.08007 214.569 6.76889C215.314 7.45771 215.687 8.40213 215.687 9.60216V15.3261H214.018V14.0373H213.942C213.221 15.0985 212.259 15.6294 211.058 15.6294C210.033 15.6294 209.176 15.3261 208.487 14.7196C207.797 14.1131 207.453 13.3549 207.453 12.4452C207.453 11.4845 207.816 10.7208 208.543 10.1523C209.271 9.58375 210.241 9.2989 211.456 9.2989C212.492 9.2989 213.346 9.48844 214.017 9.86751V9.46894C214.017 8.86243 213.776 8.34798 213.296 7.92451C212.814 7.50103 212.252 7.28984 211.607 7.28984C210.633 7.28984 209.862 7.70032 209.293 8.52235L207.755 7.55519C208.603 6.34217 209.855 5.73566 211.513 5.73566" fill="white"/>
<path id="Fill 5" fill-rule="evenodd" clip-rule="evenodd" d="M225.269 6.03894L219.443 19.4201H217.641L219.804 14.738L215.971 6.03894H217.869L220.639 12.7106H220.677L223.371 6.03894H225.269Z" fill="white"/>
</g>
<g id="G">
<path id="Fill 8" fill-rule="evenodd" clip-rule="evenodd" d="M193.303 8.64473C193.303 8.09563 193.256 7.56601 193.168 7.05914H185.806V10.0625H190.023C189.842 11.0414 189.294 11.8744 188.464 12.4322V14.3828H190.98C192.454 13.0246 193.303 11.0177 193.303 8.64473" fill="#4285F4"/>
<path id="Fill 10" fill-rule="evenodd" clip-rule="evenodd" d="M185.806 16.2651C187.913 16.2651 189.687 15.5741 190.98 14.3828L188.464 12.4322C187.764 12.9033 186.861 13.1784 185.806 13.1784C183.77 13.1784 182.042 11.8073 181.424 9.95959H178.832V11.9687C180.116 14.516 182.757 16.2651 185.806 16.2651" fill="#34A853"/>
<path id="Fill 12" fill-rule="evenodd" clip-rule="evenodd" d="M181.424 9.9596C181.266 9.48847 181.179 8.98593 181.179 8.46715C181.179 7.94837 181.266 7.44583 181.424 6.9747V4.96564H178.832C178.3 6.01837 178 7.20756 178 8.46715C178 9.72674 178.3 10.916 178.832 11.9687L181.424 9.9596Z" fill="#FABB05"/>
<path id="Fill 14" fill-rule="evenodd" clip-rule="evenodd" d="M185.806 3.75583C186.957 3.75583 187.988 4.15115 188.801 4.92553V4.92661L191.029 2.70094C189.676 1.44243 187.912 0.669128 185.806 0.669128C182.757 0.669128 180.116 2.41826 178.832 4.9656L181.424 6.97467C182.042 5.12698 183.77 3.75583 185.806 3.75583" fill="#E94235"/>
</g>
</g>
</g>
</g>
</svg>
