<svg width="270" height="38" viewBox="0 0 270 38" fill="none" xmlns="http://www.w3.org/2000/svg">
<g id="es_checkout_with_Light">
<path id="Text" d="M13.4501 30.448C11.9754 30.448 10.6034 30.1867 9.33409 29.664C8.06476 29.1227 6.95409 28.376 6.00209 27.424C5.06876 26.472 4.33143 25.3613 3.79009 24.092C3.26743 22.8227 3.00609 21.4507 3.00609 19.976C3.00609 18.5013 3.26743 17.1293 3.79009 15.86C4.33143 14.5907 5.06876 13.48 6.00209 12.528C6.95409 11.576 8.06476 10.8387 9.33409 10.316C10.6034 9.77467 11.9754 9.504 13.4501 9.504C15.0181 9.504 16.4181 9.79333 17.6501 10.372C18.8821 10.932 19.9554 11.7347 20.8701 12.78L18.7141 14.88C18.0421 14.0773 17.2768 13.4707 16.4181 13.06C15.5781 12.6307 14.5981 12.416 13.4781 12.416C12.1341 12.416 10.9021 12.7333 9.78209 13.368C8.66209 13.984 7.76609 14.8613 7.09409 16C6.44076 17.12 6.11409 18.4453 6.11409 19.976C6.11409 21.5067 6.44076 22.8413 7.09409 23.98C7.76609 25.1 8.66209 25.9773 9.78209 26.612C10.9021 27.228 12.1341 27.536 13.4781 27.536C14.6914 27.536 15.7648 27.284 16.6981 26.78C17.6501 26.276 18.4901 25.5853 19.2181 24.708L21.4301 26.836C20.4968 27.9373 19.3488 28.8147 17.9861 29.468C16.6421 30.1213 15.1301 30.448 13.4501 30.448ZM30.8465 30.448C29.3718 30.448 28.0745 30.112 26.9545 29.44C25.8345 28.768 24.9572 27.8627 24.3225 26.724C23.6878 25.5853 23.3705 24.2973 23.3705 22.86C23.3705 21.4413 23.6878 20.1627 24.3225 19.024C24.9572 17.8667 25.8345 16.952 26.9545 16.28C28.0745 15.608 29.3718 15.272 30.8465 15.272C32.3025 15.272 33.5905 15.608 34.7105 16.28C35.8305 16.952 36.7078 17.8667 37.3425 19.024C37.9772 20.1627 38.2945 21.4413 38.2945 22.86C38.2945 24.2973 37.9772 25.5853 37.3425 26.724C36.7078 27.8627 35.8305 28.768 34.7105 29.44C33.5905 30.112 32.3025 30.448 30.8465 30.448ZM30.8465 27.676C31.6305 27.676 32.3585 27.4893 33.0305 27.116C33.7025 26.724 34.2438 26.1733 34.6545 25.464C35.0838 24.736 35.2985 23.868 35.2985 22.86C35.2985 21.852 35.0838 20.9933 34.6545 20.284C34.2438 19.556 33.7025 19.0053 33.0305 18.632C32.3585 18.24 31.6305 18.044 30.8465 18.044C30.0625 18.044 29.3252 18.24 28.6345 18.632C27.9625 19.0053 27.4118 19.556 26.9825 20.284C26.5718 20.9933 26.3665 21.852 26.3665 22.86C26.3665 23.868 26.5718 24.736 26.9825 25.464C27.4118 26.1733 27.9625 26.724 28.6345 27.116C29.3252 27.4893 30.0625 27.676 30.8465 27.676ZM41.1062 30V15.72H43.9622V17.68H44.1302C44.5409 16.9893 45.1382 16.42 45.9222 15.972C46.7062 15.5053 47.5742 15.272 48.5262 15.272C49.5902 15.272 50.4955 15.524 51.2422 16.028C51.9889 16.532 52.5209 17.1667 52.8382 17.932C53.3049 17.1853 53.9395 16.56 54.7422 16.056C55.5449 15.5333 56.5249 15.272 57.6822 15.272C59.3622 15.272 60.6129 15.7853 61.4342 16.812C62.2555 17.82 62.6662 19.164 62.6662 20.844V30H59.6702V21.348C59.6702 20.2093 59.4182 19.3787 58.9142 18.856C58.4289 18.3147 57.7475 18.044 56.8702 18.044C56.1795 18.044 55.5729 18.24 55.0502 18.632C54.5275 19.0053 54.1169 19.5187 53.8182 20.172C53.5382 20.8253 53.3982 21.5533 53.3982 22.356V30H50.4022V21.348C50.4022 20.2093 50.1502 19.3787 49.6462 18.856C49.1422 18.3147 48.4329 18.044 47.5182 18.044C46.8462 18.044 46.2582 18.24 45.7542 18.632C45.2502 19.024 44.8489 19.5467 44.5502 20.2C44.2702 20.8533 44.1302 21.5813 44.1302 22.384V30H41.1062ZM66.343 36.048V15.72H69.171V17.652H69.339C69.7124 17.036 70.291 16.4853 71.075 16C71.8777 15.5147 72.8297 15.272 73.931 15.272C75.2377 15.272 76.4044 15.5987 77.431 16.252C78.4577 16.9053 79.2697 17.8013 79.867 18.94C80.483 20.0787 80.791 21.3853 80.791 22.86C80.791 24.3347 80.483 25.6507 79.867 26.808C79.2697 27.9467 78.4577 28.8427 77.431 29.496C76.4044 30.1307 75.2377 30.448 73.931 30.448C72.8297 30.448 71.8777 30.2147 71.075 29.748C70.291 29.2627 69.7124 28.712 69.339 28.096H69.171L69.339 30.084V36.048H66.343ZM73.483 27.676C74.2297 27.676 74.9297 27.48 75.583 27.088C76.2364 26.696 76.7684 26.1453 77.179 25.436C77.5897 24.708 77.795 23.8493 77.795 22.86C77.795 21.8707 77.5897 21.0213 77.179 20.312C76.7684 19.584 76.2364 19.024 75.583 18.632C74.9297 18.24 74.2297 18.044 73.483 18.044C72.7364 18.044 72.0364 18.24 71.383 18.632C70.7297 19.024 70.1977 19.584 69.787 20.312C69.3764 21.0213 69.171 21.8707 69.171 22.86C69.171 23.8493 69.3764 24.708 69.787 25.436C70.1977 26.1453 70.7297 26.696 71.383 27.088C72.0364 27.48 72.7364 27.676 73.483 27.676ZM83.7335 30V15.72H86.5895V17.82H86.7575C87.0749 17.092 87.6162 16.4947 88.3815 16.028C89.1655 15.5427 90.0055 15.3 90.9015 15.3C91.2935 15.3 91.6202 15.328 91.8815 15.384C92.1615 15.44 92.4135 15.5053 92.6375 15.58V18.716C92.2829 18.5667 91.9189 18.4453 91.5455 18.352C91.1909 18.2587 90.8175 18.212 90.4255 18.212C89.7162 18.212 89.0815 18.408 88.5215 18.8C87.9802 19.1733 87.5509 19.6867 87.2335 20.34C86.9162 20.9747 86.7575 21.6747 86.7575 22.44V30H83.7335ZM99.2596 30.448C98.233 30.448 97.3183 30.252 96.5156 29.86C95.713 29.4493 95.0876 28.88 94.6396 28.152C94.1916 27.424 93.9676 26.5933 93.9676 25.66C93.9676 24.652 94.229 23.7933 94.7516 23.084C95.293 22.356 96.0116 21.8053 96.9076 21.432C97.8036 21.0587 98.793 20.872 99.8756 20.872C100.772 20.872 101.556 20.956 102.228 21.124C102.918 21.292 103.441 21.4693 103.796 21.656V20.9C103.796 19.9667 103.46 19.22 102.788 18.66C102.116 18.1 101.248 17.82 100.184 17.82C99.4556 17.82 98.765 17.988 98.1116 18.324C97.4583 18.6413 96.9356 19.08 96.5436 19.64L94.4716 18.044C95.0876 17.1853 95.8996 16.5133 96.9076 16.028C97.9343 15.524 99.0543 15.272 100.268 15.272C102.34 15.272 103.936 15.7853 105.056 16.812C106.176 17.82 106.736 19.2387 106.736 21.068V30H103.796V28.236H103.628C103.254 28.8147 102.694 29.328 101.948 29.776C101.201 30.224 100.305 30.448 99.2596 30.448ZM99.7916 27.984C100.576 27.984 101.266 27.7973 101.864 27.424C102.461 27.0507 102.928 26.5653 103.264 25.968C103.618 25.352 103.796 24.6893 103.796 23.98C103.366 23.7373 102.862 23.5413 102.284 23.392C101.705 23.224 101.089 23.14 100.436 23.14C99.2036 23.14 98.3263 23.392 97.8036 23.896C97.281 24.3813 97.0196 24.9787 97.0196 25.688C97.0196 26.36 97.2716 26.9107 97.7756 27.34C98.2796 27.7693 98.9516 27.984 99.7916 27.984ZM110.365 30V15.72H113.221V17.82H113.389C113.706 17.092 114.247 16.4947 115.013 16.028C115.797 15.5427 116.637 15.3 117.533 15.3C117.925 15.3 118.251 15.328 118.513 15.384C118.793 15.44 119.045 15.5053 119.269 15.58V18.716C118.914 18.5667 118.55 18.4453 118.177 18.352C117.822 18.2587 117.449 18.212 117.057 18.212C116.347 18.212 115.713 18.408 115.153 18.8C114.611 19.1733 114.182 19.6867 113.865 20.34C113.547 20.9747 113.389 21.6747 113.389 22.44V30H110.365ZM135.346 30.448C133.909 30.448 132.64 30.1213 131.538 29.468C130.437 28.8147 129.569 27.9187 128.934 26.78C128.3 25.6227 127.982 24.316 127.982 22.86C127.982 21.404 128.3 20.1067 128.934 18.968C129.569 17.8107 130.437 16.9053 131.538 16.252C132.64 15.5987 133.909 15.272 135.346 15.272C136.933 15.272 138.268 15.6267 139.35 16.336C140.452 17.0453 141.236 18.0067 141.702 19.22L138.958 20.34C138.305 18.8093 137.082 18.044 135.29 18.044C134.506 18.044 133.788 18.2493 133.134 18.66C132.481 19.052 131.958 19.612 131.566 20.34C131.174 21.0493 130.978 21.8893 130.978 22.86C130.978 23.8307 131.174 24.68 131.566 25.408C131.958 26.136 132.481 26.696 133.134 27.088C133.788 27.48 134.506 27.676 135.29 27.676C136.205 27.676 136.98 27.4707 137.614 27.06C138.249 26.6307 138.744 26.052 139.098 25.324L141.786 26.5C141.282 27.6387 140.48 28.5813 139.378 29.328C138.277 30.0747 136.933 30.448 135.346 30.448ZM151.262 30.448C149.787 30.448 148.49 30.112 147.37 29.44C146.25 28.768 145.373 27.8627 144.738 26.724C144.103 25.5853 143.786 24.2973 143.786 22.86C143.786 21.4413 144.103 20.1627 144.738 19.024C145.373 17.8667 146.25 16.952 147.37 16.28C148.49 15.608 149.787 15.272 151.262 15.272C152.718 15.272 154.006 15.608 155.126 16.28C156.246 16.952 157.123 17.8667 157.758 19.024C158.393 20.1627 158.71 21.4413 158.71 22.86C158.71 24.2973 158.393 25.5853 157.758 26.724C157.123 27.8627 156.246 28.768 155.126 29.44C154.006 30.112 152.718 30.448 151.262 30.448ZM151.262 27.676C152.046 27.676 152.774 27.4893 153.446 27.116C154.118 26.724 154.659 26.1733 155.07 25.464C155.499 24.736 155.714 23.868 155.714 22.86C155.714 21.852 155.499 20.9933 155.07 20.284C154.659 19.556 154.118 19.0053 153.446 18.632C152.774 18.24 152.046 18.044 151.262 18.044C150.478 18.044 149.741 18.24 149.05 18.632C148.378 19.0053 147.827 19.556 147.398 20.284C146.987 20.9933 146.782 21.852 146.782 22.86C146.782 23.868 146.987 24.736 147.398 25.464C147.827 26.1733 148.378 26.724 149.05 27.116C149.741 27.4893 150.478 27.676 151.262 27.676ZM161.522 30V15.72H164.378V17.68H164.546C164.956 16.9893 165.563 16.42 166.366 15.972C167.187 15.5053 168.083 15.272 169.054 15.272C170.808 15.272 172.124 15.7947 173.002 16.84C173.879 17.8853 174.318 19.2667 174.318 20.984V30H171.322V21.376C171.322 20.2187 171.032 19.3787 170.454 18.856C169.875 18.3147 169.119 18.044 168.186 18.044C167.458 18.044 166.823 18.2493 166.282 18.66C165.74 19.052 165.311 19.5747 164.994 20.228C164.695 20.8813 164.546 21.5813 164.546 22.328V30H161.522Z" fill="#3C4043"/>
<g id="GPay Logo (Light)">
<g id="GPay">
<g id="Pay">
<path id="Fill 1" fill-rule="evenodd" clip-rule="evenodd" d="M226.529 9.44664V17.6128H231.565C232.765 17.6128 233.757 17.2096 234.541 16.4032C235.347 15.5988 235.75 14.6394 235.75 13.5288C235.75 12.4406 235.347 11.4924 234.541 10.686C233.757 9.85915 232.765 9.44478 231.565 9.44478H226.529V9.44664ZM226.529 20.4872V29.9599H223.521V6.57217H231.499C233.527 6.57217 235.248 7.24786 236.666 8.59737C238.105 9.94688 238.824 11.5913 238.824 13.5288C238.824 15.511 238.105 17.1667 236.666 18.4938C235.27 19.8227 233.547 20.4854 231.499 20.4854H226.529V20.4872Z" fill="#5F6368"/>
<path id="Fill 3" fill-rule="evenodd" clip-rule="evenodd" d="M241.864 25.0602C241.864 25.8442 242.197 26.4975 242.862 27.0201C243.527 27.5427 244.306 27.804 245.2 27.804C246.465 27.804 247.591 27.3354 248.584 26.4004C249.576 25.4634 250.071 24.364 250.071 23.1022C249.133 22.3612 247.825 21.9916 246.147 21.9916C244.925 21.9916 243.907 22.2865 243.09 22.8745C242.273 23.4623 241.864 24.1886 241.864 25.0602ZM245.756 13.4317C247.98 13.4317 249.735 14.0252 251.022 15.2124C252.308 16.3995 252.95 18.0271 252.95 20.0952V29.9599H250.073V27.7387H249.942C248.699 29.5677 247.042 30.4825 244.972 30.4825C243.206 30.4825 241.728 29.9599 240.541 28.9146C239.353 27.8694 238.759 26.5628 238.759 24.9949C238.759 23.3393 239.385 22.0232 240.638 21.0434C241.892 20.0635 243.565 19.5726 245.658 19.5726C247.444 19.5726 248.916 19.8992 250.071 20.5525V19.8656C250.071 18.8204 249.656 17.9338 248.829 17.204C247.999 16.4741 247.031 16.1102 245.919 16.1102C244.239 16.1102 242.911 16.8176 241.93 18.2343L239.28 16.5675C240.741 14.4769 242.899 13.4317 245.756 13.4317Z" fill="#5F6368"/>
<path id="Fill 5" fill-rule="evenodd" clip-rule="evenodd" d="M269.463 13.9543L259.424 37.0154H256.318L260.046 28.9464L253.44 13.9543H256.71L261.484 25.4522H261.55L266.193 13.9543H269.463Z" fill="#5F6368"/>
</g>
<g id="G">
<path id="Fill 8" fill-rule="evenodd" clip-rule="evenodd" d="M214.373 18.4452C214.373 17.4989 214.293 16.5861 214.141 15.7126H201.454V20.8885H208.72C208.408 22.5757 207.465 24.0112 206.033 24.9725V28.3341H210.37C212.91 25.9935 214.373 22.5348 214.373 18.4452Z" fill="#4285F4"/>
<path id="Fill 10" fill-rule="evenodd" clip-rule="evenodd" d="M201.454 31.5782C205.084 31.5782 208.141 30.3873 210.37 28.3341L206.033 24.9725C204.826 25.7844 203.272 26.2585 201.454 26.2585C197.944 26.2585 194.966 23.8955 193.901 20.7112H189.433V24.1736C191.647 28.5637 196.197 31.5782 201.454 31.5782Z" fill="#34A853"/>
<path id="Fill 12" fill-rule="evenodd" clip-rule="evenodd" d="M193.901 20.7111C193.628 19.8992 193.479 19.0331 193.479 18.139C193.479 17.245 193.628 16.3789 193.901 15.567V12.1045H189.433C188.518 13.9188 188 15.9683 188 18.139C188 20.3098 188.518 22.3595 189.433 24.1736L193.901 20.7111Z" fill="#FABB05"/>
<path id="Fill 14" fill-rule="evenodd" clip-rule="evenodd" d="M201.454 10.0196C203.436 10.0196 205.213 10.7009 206.615 12.0355V12.0374L210.455 8.20162C208.123 6.03271 205.082 4.7 201.454 4.7C196.197 4.7 191.647 7.71446 189.433 12.1046L193.901 15.567C194.966 12.3827 197.944 10.0196 201.454 10.0196Z" fill="#E94235"/>
</g>
</g>
</g>
</g>
</svg>
