<svg width="132" height="21" viewBox="0 0 132 21" fill="none" xmlns="http://www.w3.org/2000/svg">
<g id="es_donate_with_Pay_NBG">
<path id="Left Text" d="M1.51788 15.0006V3.54461H5.18188C6.38721 3.54461 7.42188 3.78994 8.28588 4.28061C9.16055 4.76061 9.83255 5.43261 10.3019 6.29661C10.7819 7.16061 11.0219 8.15261 11.0219 9.27261C11.0219 10.3926 10.7819 11.3846 10.3019 12.2486C9.83255 13.1126 9.16055 13.7899 8.28588 14.2806C7.42188 14.7606 6.38721 15.0006 5.18188 15.0006H1.51788ZM3.27788 13.3366H5.13388C5.99788 13.3366 6.73921 13.1766 7.35788 12.8566C7.97654 12.5259 8.44588 12.0566 8.76588 11.4486C9.08588 10.8406 9.24588 10.1153 9.24588 9.27261C9.24588 8.42994 9.08588 7.70461 8.76588 7.09661C8.44588 6.48861 7.97654 6.02461 7.35788 5.70461C6.73921 5.37394 5.99788 5.20861 5.13388 5.20861H3.27788V13.3366ZM16.5011 15.2566C15.6585 15.2566 14.9171 15.0646 14.2771 14.6806C13.6371 14.2966 13.1358 13.7793 12.7731 13.1286C12.4105 12.4673 12.2291 11.7313 12.2291 10.9206C12.2291 10.1099 12.4105 9.37928 12.7731 8.72861C13.1358 8.06728 13.6371 7.54461 14.2771 7.16061C14.9171 6.77661 15.6585 6.58461 16.5011 6.58461C17.3331 6.58461 18.0691 6.78194 18.7091 7.17661C19.3491 7.56061 19.8505 8.07794 20.2131 8.72861C20.5758 9.37928 20.7571 10.1099 20.7571 10.9206C20.7571 11.7313 20.5758 12.4673 20.2131 13.1286C19.8505 13.7793 19.3491 14.2966 18.7091 14.6806C18.0691 15.0646 17.3331 15.2566 16.5011 15.2566ZM16.5011 13.6726C16.9491 13.6726 17.3651 13.5659 17.7491 13.3526C18.1331 13.1286 18.4425 12.8139 18.6771 12.4086C18.9225 11.9926 19.0451 11.4966 19.0451 10.9206C19.0451 10.3446 18.9225 9.85394 18.6771 9.44861C18.4425 9.03261 18.1331 8.71794 17.7491 8.50461C17.3651 8.28061 16.9491 8.16861 16.5011 8.16861C16.0531 8.16861 15.6318 8.28061 15.2371 8.50461C14.8531 8.71794 14.5385 9.03261 14.2931 9.44861C14.0585 9.85394 13.9411 10.3446 13.9411 10.9206C13.9411 11.4966 14.0585 11.9926 14.2931 12.4086C14.5385 12.8139 14.8585 13.1286 15.2531 13.3526C15.6478 13.5659 16.0638 13.6726 16.5011 13.6726ZM22.3424 15.0006V6.84061H23.9744V7.96061H24.0704C24.305 7.56594 24.6517 7.24061 25.1104 6.98461C25.5797 6.71794 26.0917 6.58461 26.6464 6.58461C27.649 6.58461 28.401 6.88328 28.9024 7.48061C29.4037 8.06728 29.6544 8.85661 29.6544 9.84861V15.0006H27.9424V10.0726C27.9424 9.41128 27.777 8.93128 27.4464 8.63261C27.1157 8.32328 26.6837 8.16861 26.1504 8.16861C25.7344 8.16861 25.3717 8.28594 25.0624 8.52061C24.753 8.74461 24.5077 9.04328 24.3264 9.41661C24.1557 9.78994 24.0704 10.1899 24.0704 10.6166V15.0006H22.3424ZM34.2555 15.2566C33.6688 15.2566 33.1462 15.1393 32.6875 14.9046C32.2395 14.6699 31.8822 14.3499 31.6155 13.9446C31.3595 13.5286 31.2315 13.0539 31.2315 12.5206C31.2315 11.9339 31.3808 11.4379 31.6795 11.0326C31.9888 10.6273 32.3995 10.3179 32.9115 10.1046C33.4235 9.89128 33.9888 9.78461 34.6075 9.78461C34.9488 9.78461 35.2635 9.81128 35.5515 9.86461C35.8502 9.90728 36.1062 9.96061 36.3195 10.0246C36.5435 10.0886 36.7195 10.1579 36.8475 10.2326V9.80061C36.8475 9.26728 36.6555 8.84061 36.2715 8.52061C35.8875 8.20061 35.3915 8.04061 34.7835 8.04061C34.3675 8.04061 33.9728 8.13661 33.5995 8.32861C33.2262 8.50994 32.9275 8.76061 32.7035 9.08061L31.5195 8.16861C31.7542 7.83794 32.0368 7.55528 32.3675 7.32061C32.7088 7.08594 33.0875 6.90461 33.5035 6.77661C33.9302 6.64861 34.3728 6.58461 34.8315 6.58461C36.0155 6.58461 36.9275 6.87794 37.5675 7.46461C38.2075 8.04061 38.5275 8.85128 38.5275 9.89661V15.0006H36.8475V13.9926H36.7515C36.6128 14.2059 36.4208 14.4086 36.1755 14.6006C35.9408 14.7926 35.6582 14.9473 35.3275 15.0646C35.0075 15.1926 34.6502 15.2566 34.2555 15.2566ZM34.5595 13.8486C35.0075 13.8486 35.4022 13.7419 35.7435 13.5286C36.0955 13.3153 36.3675 13.0379 36.5595 12.6966C36.7515 12.3446 36.8475 11.9659 36.8475 11.5606C36.6128 11.4219 36.3248 11.3099 35.9835 11.2246C35.6528 11.1286 35.3008 11.0806 34.9275 11.0806C34.2235 11.0806 33.7222 11.2193 33.4235 11.4966C33.1248 11.7739 32.9755 12.1206 32.9755 12.5366C32.9755 12.9206 33.1195 13.2353 33.4075 13.4806C33.6955 13.7259 34.0795 13.8486 34.5595 13.8486ZM40.5799 15.0006V6.84061H42.2119V8.04061H42.3079C42.4359 7.76328 42.6172 7.51794 42.8519 7.30461C43.0972 7.09128 43.3745 6.92061 43.6839 6.79261C44.0039 6.66461 44.3345 6.60061 44.6759 6.60061C44.8999 6.60061 45.0865 6.61661 45.2359 6.64861C45.3959 6.66994 45.5399 6.70728 45.6679 6.76061V8.55261C45.4652 8.46728 45.2572 8.39794 45.0439 8.34461C44.8412 8.29128 44.6279 8.26461 44.4039 8.26461C43.9985 8.26461 43.6359 8.37661 43.3159 8.60061C43.0065 8.81394 42.7612 9.10194 42.5799 9.46461C42.3985 9.82728 42.3079 10.2326 42.3079 10.6806V15.0006H40.5799ZM54.8121 15.2566C53.9908 15.2566 53.2601 15.0699 52.6201 14.6966C51.9908 14.3233 51.4948 13.8113 51.1321 13.1606C50.7801 12.4993 50.6041 11.7526 50.6041 10.9206C50.6041 10.0886 50.7801 9.34728 51.1321 8.69661C51.4948 8.04594 51.9908 7.53394 52.6201 7.16061C53.2601 6.77661 53.9908 6.58461 54.8121 6.58461C55.7188 6.58461 56.4815 6.78728 57.1001 7.19261C57.7295 7.59794 58.1775 8.14728 58.4441 8.84061L56.8761 9.48061C56.6841 9.04328 56.4068 8.71794 56.0441 8.50461C55.6921 8.28061 55.2708 8.16861 54.7801 8.16861C54.3321 8.16861 53.9215 8.28594 53.5481 8.52061C53.1748 8.74461 52.8761 9.05928 52.6521 9.46461C52.4281 9.86994 52.3161 10.3553 52.3161 10.9206C52.3161 11.4753 52.4281 11.9606 52.6521 12.3766C52.8761 12.7926 53.1748 13.1126 53.5481 13.3366C53.9215 13.5606 54.3321 13.6726 54.7801 13.6726C55.3028 13.6726 55.7455 13.5553 56.1081 13.3206C56.4708 13.0859 56.7535 12.7553 56.9561 12.3286L58.4921 13.0006C58.1935 13.6513 57.7295 14.1899 57.1001 14.6166C56.4815 15.0433 55.7188 15.2566 54.8121 15.2566ZM63.8855 15.2566C63.0428 15.2566 62.3015 15.0646 61.6615 14.6806C61.0215 14.2966 60.5202 13.7793 60.1575 13.1286C59.7948 12.4673 59.6135 11.7313 59.6135 10.9206C59.6135 10.1099 59.7948 9.37928 60.1575 8.72861C60.5202 8.06728 61.0215 7.54461 61.6615 7.16061C62.3015 6.77661 63.0428 6.58461 63.8855 6.58461C64.7175 6.58461 65.4535 6.78194 66.0935 7.17661C66.7335 7.56061 67.2348 8.07794 67.5975 8.72861C67.9602 9.37928 68.1415 10.1099 68.1415 10.9206C68.1415 11.7313 67.9602 12.4673 67.5975 13.1286C67.2348 13.7793 66.7335 14.2966 66.0935 14.6806C65.4535 15.0646 64.7175 15.2566 63.8855 15.2566ZM63.8855 13.6726C64.3335 13.6726 64.7495 13.5659 65.1335 13.3526C65.5175 13.1286 65.8268 12.8139 66.0615 12.4086C66.3068 11.9926 66.4295 11.4966 66.4295 10.9206C66.4295 10.3446 66.3068 9.85394 66.0615 9.44861C65.8268 9.03261 65.5175 8.71794 65.1335 8.50461C64.7495 8.28061 64.3335 8.16861 63.8855 8.16861C63.4375 8.16861 63.0162 8.28061 62.6215 8.50461C62.2375 8.71794 61.9228 9.03261 61.6775 9.44861C61.4428 9.85394 61.3255 10.3446 61.3255 10.9206C61.3255 11.4966 61.4428 11.9926 61.6775 12.4086C61.9228 12.8139 62.2428 13.1286 62.6375 13.3526C63.0322 13.5659 63.4482 13.6726 63.8855 13.6726ZM69.7268 15.0006V6.84061H71.3588V7.96061H71.4548C71.6894 7.56594 72.0361 7.24061 72.4948 6.98461C72.9641 6.71794 73.4761 6.58461 74.0308 6.58461C75.0334 6.58461 75.7854 6.88328 76.2868 7.48061C76.7881 8.06728 77.0388 8.85661 77.0388 9.84861V15.0006H75.3268V10.0726C75.3268 9.41128 75.1614 8.93128 74.8308 8.63261C74.5001 8.32328 74.0681 8.16861 73.5348 8.16861C73.1188 8.16861 72.7561 8.28594 72.4468 8.52061C72.1374 8.74461 71.8921 9.04328 71.7108 9.41661C71.5401 9.78994 71.4548 10.1899 71.4548 10.6166V15.0006H69.7268Z" fill="white"/>
<g id="GPay (Dark)">
<g id="GPay">
<g id="Pay">
<path id="Fill 1" fill-rule="evenodd" clip-rule="evenodd" d="M106.356 3.42339V8.16175H109.278C109.974 8.16175 110.55 7.92781 111.005 7.45993C111.473 6.99313 111.707 6.43644 111.707 5.79203C111.707 5.16061 111.473 4.61041 111.005 4.14254C110.55 3.66274 109.974 3.4223 109.278 3.4223H106.356V3.42339ZM106.356 9.82966V15.3262H104.611V1.75549H109.24C110.417 1.75549 111.415 2.14756 112.238 2.93061C113.073 3.71365 113.491 4.66782 113.491 5.79203C113.491 6.94224 113.073 7.90291 112.238 8.67296C111.428 9.44409 110.429 9.82858 109.24 9.82858H106.356V9.82966Z" fill="white"/>
<path id="Fill 3" fill-rule="evenodd" clip-rule="evenodd" d="M115.255 12.4831C115.255 12.9379 115.448 13.317 115.834 13.6203C116.22 13.9235 116.672 14.0752 117.19 14.0752C117.924 14.0752 118.578 13.8032 119.153 13.2607C119.729 12.717 120.017 12.0791 120.017 11.3469C119.472 10.917 118.713 10.7025 117.74 10.7025C117.031 10.7025 116.44 10.8736 115.966 11.2148C115.492 11.5559 115.255 11.9773 115.255 12.4831M117.513 5.73566C118.803 5.73566 119.821 6.08007 120.569 6.76889C121.314 7.45771 121.687 8.40213 121.687 9.60216V15.3261H120.018V14.0373H119.942C119.221 15.0985 118.259 15.6294 117.058 15.6294C116.033 15.6294 115.176 15.3261 114.487 14.7196C113.797 14.1131 113.453 13.3549 113.453 12.4452C113.453 11.4845 113.816 10.7208 114.543 10.1523C115.271 9.58375 116.241 9.2989 117.456 9.2989C118.492 9.2989 119.346 9.48844 120.017 9.86751V9.46894C120.017 8.86243 119.776 8.34798 119.296 7.92451C118.814 7.50103 118.252 7.28984 117.607 7.28984C116.633 7.28984 115.862 7.70032 115.293 8.52235L113.755 7.55519C114.603 6.34217 115.855 5.73566 117.513 5.73566" fill="white"/>
<path id="Fill 5" fill-rule="evenodd" clip-rule="evenodd" d="M131.269 6.03894L125.443 19.4201H123.641L125.804 14.738L121.971 6.03894H123.869L126.639 12.7106H126.677L129.371 6.03894H131.269Z" fill="white"/>
</g>
<g id="G">
<path id="Fill 8" fill-rule="evenodd" clip-rule="evenodd" d="M99.3029 8.64473C99.3029 8.09563 99.2562 7.56601 99.1684 7.05914H91.8065V10.0625H96.0231C95.842 11.0414 95.2944 11.8744 94.4639 12.4322V14.3828H96.9804C98.4539 13.0246 99.3029 11.0177 99.3029 8.64473" fill="#4285F4"/>
<path id="Fill 10" fill-rule="evenodd" clip-rule="evenodd" d="M91.8065 16.2651C93.9131 16.2651 95.6869 15.5741 96.9804 14.3828L94.4639 12.4322C93.7635 12.9033 92.8614 13.1784 91.8065 13.1784C89.7703 13.1784 88.042 11.8073 87.424 9.95959H84.8316V11.9687C86.1164 14.516 88.7565 16.2651 91.8065 16.2651" fill="#34A853"/>
<path id="Fill 12" fill-rule="evenodd" clip-rule="evenodd" d="M87.424 9.9596C87.2657 9.48847 87.179 8.98593 87.179 8.46715C87.179 7.94837 87.2657 7.44583 87.424 6.9747V4.96564H84.8316C84.3003 6.01837 84 7.20756 84 8.46715C84 9.72674 84.3003 10.916 84.8316 11.9687L87.424 9.9596Z" fill="#FABB05"/>
<path id="Fill 14" fill-rule="evenodd" clip-rule="evenodd" d="M91.8065 3.75583C92.9568 3.75583 93.9879 4.15115 94.8011 4.92553V4.92661L97.0292 2.70094C95.6761 1.44243 93.912 0.669128 91.8065 0.669128C88.7565 0.669128 86.1164 2.41826 84.8316 4.9656L87.424 6.97467C88.042 5.12698 89.7703 3.75583 91.8065 3.75583" fill="#E94235"/>
</g>
</g>
</g>
</g>
</svg>
