<svg width="232" height="38" viewBox="0 0 232 38" fill="none" xmlns="http://www.w3.org/2000/svg">
<g id="es_donate_with_Light">
<path id="Text" d="M3.85629 30V9.952H10.2683C12.3776 9.952 14.1883 10.3813 15.7003 11.24C17.231 12.08 18.407 13.256 19.2283 14.768C20.0683 16.28 20.4883 18.016 20.4883 19.976C20.4883 21.9547 20.0683 23.7 19.2283 25.212C18.407 26.7053 17.231 27.8813 15.7003 28.74C14.1883 29.58 12.3776 30 10.2683 30H3.85629ZM6.93629 27.088H10.1843C12.4616 27.088 14.2256 26.4533 15.4763 25.184C16.7456 23.9147 17.3803 22.1787 17.3803 19.976C17.3803 17.7733 16.7456 16.0373 15.4763 14.768C14.2256 13.4987 12.4616 12.864 10.1843 12.864H6.93629V27.088ZM30.1145 30.448C28.6398 30.448 27.3425 30.112 26.2225 29.44C25.1025 28.768 24.2251 27.8627 23.5905 26.724C22.9558 25.5853 22.6385 24.2973 22.6385 22.86C22.6385 21.4413 22.9558 20.1627 23.5905 19.024C24.2251 17.8667 25.1025 16.952 26.2225 16.28C27.3425 15.608 28.6398 15.272 30.1145 15.272C31.5705 15.272 32.8585 15.608 33.9785 16.28C35.0985 16.952 35.9758 17.8667 36.6105 19.024C37.2451 20.1627 37.5625 21.4413 37.5625 22.86C37.5625 24.2973 37.2451 25.5853 36.6105 26.724C35.9758 27.8627 35.0985 28.768 33.9785 29.44C32.8585 30.112 31.5705 30.448 30.1145 30.448ZM30.1145 27.676C30.8985 27.676 31.6265 27.4893 32.2985 27.116C32.9705 26.724 33.5118 26.1733 33.9225 25.464C34.3518 24.736 34.5665 23.868 34.5665 22.86C34.5665 21.852 34.3518 20.9933 33.9225 20.284C33.5118 19.556 32.9705 19.0053 32.2985 18.632C31.6265 18.24 30.8985 18.044 30.1145 18.044C29.3305 18.044 28.5931 18.24 27.9025 18.632C27.2305 19.0053 26.6798 19.556 26.2505 20.284C25.8398 20.9933 25.6345 21.852 25.6345 22.86C25.6345 23.868 25.8398 24.736 26.2505 25.464C26.6798 26.1733 27.2305 26.724 27.9025 27.116C28.5931 27.4893 29.3305 27.676 30.1145 27.676ZM40.3742 30V15.72H43.2302V17.68H43.3982C43.8088 16.9893 44.4155 16.42 45.2182 15.972C46.0395 15.5053 46.9355 15.272 47.9062 15.272C49.6608 15.272 50.9768 15.7947 51.8542 16.84C52.7315 17.8853 53.1702 19.2667 53.1702 20.984V30H50.1742V21.376C50.1742 20.2187 49.8848 19.3787 49.3062 18.856C48.7275 18.3147 47.9715 18.044 47.0382 18.044C46.3102 18.044 45.6755 18.2493 45.1342 18.66C44.5928 19.052 44.1635 19.5747 43.8462 20.228C43.5475 20.8813 43.3982 21.5813 43.3982 22.328V30H40.3742ZM61.2596 30.448C60.233 30.448 59.3183 30.252 58.5156 29.86C57.713 29.4493 57.0876 28.88 56.6396 28.152C56.1916 27.424 55.9676 26.5933 55.9676 25.66C55.9676 24.652 56.229 23.7933 56.7516 23.084C57.293 22.356 58.0116 21.8053 58.9076 21.432C59.8036 21.0587 60.793 20.872 61.8756 20.872C62.7716 20.872 63.5556 20.956 64.2276 21.124C64.9183 21.292 65.441 21.4693 65.7956 21.656V20.9C65.7956 19.9667 65.4596 19.22 64.7876 18.66C64.1156 18.1 63.2476 17.82 62.1836 17.82C61.4556 17.82 60.765 17.988 60.1116 18.324C59.4583 18.6413 58.9356 19.08 58.5436 19.64L56.4716 18.044C57.0876 17.1853 57.8996 16.5133 58.9076 16.028C59.9343 15.524 61.0543 15.272 62.2676 15.272C64.3396 15.272 65.9356 15.7853 67.0556 16.812C68.1756 17.82 68.7356 19.2387 68.7356 21.068V30H65.7956V28.236H65.6276C65.2543 28.8147 64.6943 29.328 63.9476 29.776C63.201 30.224 62.305 30.448 61.2596 30.448ZM61.7916 27.984C62.5756 27.984 63.2663 27.7973 63.8636 27.424C64.461 27.0507 64.9276 26.5653 65.2636 25.968C65.6183 25.352 65.7956 24.6893 65.7956 23.98C65.3663 23.7373 64.8623 23.5413 64.2836 23.392C63.705 23.224 63.089 23.14 62.4356 23.14C61.2036 23.14 60.3263 23.392 59.8036 23.896C59.281 24.3813 59.0196 24.9787 59.0196 25.688C59.0196 26.36 59.2716 26.9107 59.7756 27.34C60.2796 27.7693 60.9516 27.984 61.7916 27.984ZM72.3648 30V15.72H75.2208V17.82H75.3888C75.7061 17.092 76.2475 16.4947 77.0128 16.028C77.7968 15.5427 78.6368 15.3 79.5328 15.3C79.9248 15.3 80.2515 15.328 80.5128 15.384C80.7928 15.44 81.0448 15.5053 81.2688 15.58V18.716C80.9141 18.5667 80.5501 18.4453 80.1768 18.352C79.8221 18.2587 79.4488 18.212 79.0568 18.212C78.3475 18.212 77.7128 18.408 77.1528 18.8C76.6115 19.1733 76.1821 19.6867 75.8648 20.34C75.5475 20.9747 75.3888 21.6747 75.3888 22.44V30H72.3648ZM97.3462 30.448C95.9089 30.448 94.6396 30.1213 93.5382 29.468C92.4369 28.8147 91.5689 27.9187 90.9342 26.78C90.2996 25.6227 89.9822 24.316 89.9822 22.86C89.9822 21.404 90.2996 20.1067 90.9342 18.968C91.5689 17.8107 92.4369 16.9053 93.5382 16.252C94.6396 15.5987 95.9089 15.272 97.3462 15.272C98.9329 15.272 100.268 15.6267 101.35 16.336C102.452 17.0453 103.236 18.0067 103.702 19.22L100.958 20.34C100.305 18.8093 99.0822 18.044 97.2902 18.044C96.5062 18.044 95.7876 18.2493 95.1342 18.66C94.4809 19.052 93.9582 19.612 93.5662 20.34C93.1742 21.0493 92.9782 21.8893 92.9782 22.86C92.9782 23.8307 93.1742 24.68 93.5662 25.408C93.9582 26.136 94.4809 26.696 95.1342 27.088C95.7876 27.48 96.5062 27.676 97.2902 27.676C98.2049 27.676 98.9796 27.4707 99.6142 27.06C100.249 26.6307 100.744 26.052 101.098 25.324L103.786 26.5C103.282 27.6387 102.48 28.5813 101.378 29.328C100.277 30.0747 98.9329 30.448 97.3462 30.448ZM113.262 30.448C111.787 30.448 110.49 30.112 109.37 29.44C108.25 28.768 107.373 27.8627 106.738 26.724C106.103 25.5853 105.786 24.2973 105.786 22.86C105.786 21.4413 106.103 20.1627 106.738 19.024C107.373 17.8667 108.25 16.952 109.37 16.28C110.49 15.608 111.787 15.272 113.262 15.272C114.718 15.272 116.006 15.608 117.126 16.28C118.246 16.952 119.123 17.8667 119.758 19.024C120.393 20.1627 120.71 21.4413 120.71 22.86C120.71 24.2973 120.393 25.5853 119.758 26.724C119.123 27.8627 118.246 28.768 117.126 29.44C116.006 30.112 114.718 30.448 113.262 30.448ZM113.262 27.676C114.046 27.676 114.774 27.4893 115.446 27.116C116.118 26.724 116.659 26.1733 117.07 25.464C117.499 24.736 117.714 23.868 117.714 22.86C117.714 21.852 117.499 20.9933 117.07 20.284C116.659 19.556 116.118 19.0053 115.446 18.632C114.774 18.24 114.046 18.044 113.262 18.044C112.478 18.044 111.741 18.24 111.05 18.632C110.378 19.0053 109.827 19.556 109.398 20.284C108.987 20.9933 108.782 21.852 108.782 22.86C108.782 23.868 108.987 24.736 109.398 25.464C109.827 26.1733 110.378 26.724 111.05 27.116C111.741 27.4893 112.478 27.676 113.262 27.676ZM123.522 30V15.72H126.378V17.68H126.546C126.956 16.9893 127.563 16.42 128.366 15.972C129.187 15.5053 130.083 15.272 131.054 15.272C132.808 15.272 134.124 15.7947 135.002 16.84C135.879 17.8853 136.318 19.2667 136.318 20.984V30H133.322V21.376C133.322 20.2187 133.032 19.3787 132.454 18.856C131.875 18.3147 131.119 18.044 130.186 18.044C129.458 18.044 128.823 18.2493 128.282 18.66C127.74 19.052 127.311 19.5747 126.994 20.228C126.695 20.8813 126.546 21.5813 126.546 22.328V30H123.522Z" fill="#3C4043"/>
<g id="GPay Logo (Light)">
<g id="GPay">
<g id="Pay">
<path id="Fill 1" fill-rule="evenodd" clip-rule="evenodd" d="M188.529 9.44664V17.6128H193.565C194.765 17.6128 195.757 17.2096 196.541 16.4032C197.347 15.5988 197.75 14.6394 197.75 13.5288C197.75 12.4406 197.347 11.4924 196.541 10.686C195.757 9.85915 194.765 9.44478 193.565 9.44478H188.529V9.44664ZM188.529 20.4872V29.9599H185.521V6.57217H193.499C195.527 6.57217 197.248 7.24786 198.666 8.59737C200.105 9.94688 200.824 11.5913 200.824 13.5288C200.824 15.511 200.105 17.1667 198.666 18.4938C197.27 19.8227 195.547 20.4854 193.499 20.4854H188.529V20.4872Z" fill="#5F6368"/>
<path id="Fill 3" fill-rule="evenodd" clip-rule="evenodd" d="M203.864 25.0602C203.864 25.8442 204.197 26.4975 204.862 27.0201C205.527 27.5427 206.306 27.804 207.2 27.804C208.465 27.804 209.591 27.3354 210.584 26.4004C211.576 25.4634 212.071 24.364 212.071 23.1022C211.133 22.3612 209.825 21.9916 208.147 21.9916C206.925 21.9916 205.907 22.2865 205.09 22.8745C204.273 23.4623 203.864 24.1886 203.864 25.0602ZM207.756 13.4317C209.98 13.4317 211.735 14.0252 213.022 15.2124C214.308 16.3995 214.95 18.0271 214.95 20.0952V29.9599H212.073V27.7387H211.942C210.699 29.5677 209.042 30.4825 206.972 30.4825C205.206 30.4825 203.728 29.9599 202.541 28.9146C201.353 27.8694 200.759 26.5628 200.759 24.9949C200.759 23.3393 201.385 22.0232 202.638 21.0434C203.892 20.0635 205.565 19.5726 207.658 19.5726C209.444 19.5726 210.916 19.8992 212.071 20.5525V19.8656C212.071 18.8204 211.656 17.9338 210.829 17.204C209.999 16.4741 209.031 16.1102 207.919 16.1102C206.239 16.1102 204.911 16.8176 203.93 18.2343L201.28 16.5675C202.741 14.4769 204.899 13.4317 207.756 13.4317Z" fill="#5F6368"/>
<path id="Fill 5" fill-rule="evenodd" clip-rule="evenodd" d="M231.463 13.9543L221.424 37.0154H218.318L222.046 28.9464L215.44 13.9543H218.71L223.484 25.4522H223.55L228.193 13.9543H231.463Z" fill="#5F6368"/>
</g>
<g id="G">
<path id="Fill 8" fill-rule="evenodd" clip-rule="evenodd" d="M176.373 18.4452C176.373 17.4989 176.293 16.5861 176.141 15.7126H163.454V20.8885H170.72C170.408 22.5757 169.465 24.0112 168.033 24.9725V28.3341H172.37C174.91 25.9935 176.373 22.5348 176.373 18.4452Z" fill="#4285F4"/>
<path id="Fill 10" fill-rule="evenodd" clip-rule="evenodd" d="M163.454 31.5782C167.084 31.5782 170.141 30.3873 172.37 28.3341L168.033 24.9725C166.826 25.7844 165.272 26.2585 163.454 26.2585C159.944 26.2585 156.966 23.8955 155.901 20.7112H151.433V24.1736C153.647 28.5637 158.197 31.5782 163.454 31.5782Z" fill="#34A853"/>
<path id="Fill 12" fill-rule="evenodd" clip-rule="evenodd" d="M155.901 20.7111C155.628 19.8992 155.479 19.0331 155.479 18.139C155.479 17.245 155.628 16.3789 155.901 15.567V12.1045H151.433C150.518 13.9188 150 15.9683 150 18.139C150 20.3098 150.518 22.3595 151.433 24.1736L155.901 20.7111Z" fill="#FABB05"/>
<path id="Fill 14" fill-rule="evenodd" clip-rule="evenodd" d="M163.454 10.0196C165.436 10.0196 167.213 10.7009 168.615 12.0355V12.0374L172.455 8.20162C170.123 6.03271 167.082 4.7 163.454 4.7C158.197 4.7 153.647 7.71446 151.433 12.1046L155.901 15.567C156.966 12.3827 159.944 10.0196 163.454 10.0196Z" fill="#E94235"/>
</g>
</g>
</g>
</g>
</svg>
