<svg width="220" height="38" viewBox="0 0 220 38" fill="none" xmlns="http://www.w3.org/2000/svg">
<g id="es_order_with_Light">
<path id="Text" d="M3.5594 30V9.952H10.4474C11.6607 9.952 12.7621 10.2133 13.7514 10.736C14.7407 11.2587 15.5247 11.9773 16.1034 12.892C16.7007 13.8067 16.9994 14.8707 16.9994 16.084C16.9994 17.2973 16.7007 18.3707 16.1034 19.304C15.5247 20.2187 14.7407 20.9373 13.7514 21.46C12.7621 21.964 11.6607 22.216 10.4474 22.216H6.63941V30H3.5594ZM10.5314 12.864H6.63941V19.304H10.5314C11.2594 19.304 11.8754 19.1547 12.3794 18.856C12.8834 18.5387 13.2661 18.1373 13.5274 17.652C13.8074 17.148 13.9474 16.6253 13.9474 16.084C13.9474 15.5427 13.8074 15.0293 13.5274 14.544C13.2661 14.0587 12.8834 13.6573 12.3794 13.34C11.8754 13.0227 11.2594 12.864 10.5314 12.864ZM25.4927 30.448C24.0927 30.448 22.842 30.1213 21.7407 29.468C20.6394 28.8147 19.7714 27.9187 19.1367 26.78C18.5207 25.6413 18.2127 24.344 18.2127 22.888C18.2127 21.5253 18.5114 20.2653 19.1087 19.108C19.706 17.9507 20.5367 17.0267 21.6007 16.336C22.6834 15.6267 23.9247 15.272 25.3247 15.272C26.7994 15.272 28.05 15.5893 29.0767 16.224C30.122 16.8587 30.9154 17.7267 31.4567 18.828C31.998 19.9293 32.2687 21.1707 32.2687 22.552C32.2687 22.7573 32.2594 22.944 32.2407 23.112C32.2407 23.28 32.2314 23.4107 32.2127 23.504H21.1807C21.33 24.9227 21.8247 25.9867 22.6647 26.696C23.5234 27.4053 24.494 27.76 25.5767 27.76C26.5474 27.76 27.35 27.5453 27.9847 27.116C28.6194 26.668 29.1234 26.1173 29.4967 25.464L31.9887 26.668C31.3727 27.788 30.5327 28.7027 29.4687 29.412C28.4047 30.1027 27.0794 30.448 25.4927 30.448ZM25.3527 17.848C24.3447 17.848 23.486 18.156 22.7767 18.772C22.0674 19.388 21.5914 20.2093 21.3487 21.236H29.2727C29.2354 20.7507 29.0767 20.2467 28.7967 19.724C28.5167 19.2013 28.0874 18.7627 27.5087 18.408C26.9487 18.0347 26.23 17.848 25.3527 17.848ZM41.6149 30.448C40.3269 30.448 39.1602 30.1307 38.1149 29.496C37.0882 28.8427 36.2669 27.9467 35.6509 26.808C35.0535 25.6507 34.7549 24.3347 34.7549 22.86C34.7549 21.3853 35.0535 20.0787 35.6509 18.94C36.2669 17.8013 37.0882 16.9053 38.1149 16.252C39.1602 15.5987 40.3269 15.272 41.6149 15.272C42.7162 15.272 43.6589 15.5147 44.4429 16C45.2455 16.4853 45.8335 17.036 46.2069 17.652H46.3749L46.2069 15.664V9.952H49.2029V30H46.3749V28.096H46.2069C45.8335 28.712 45.2455 29.2627 44.4429 29.748C43.6589 30.2147 42.7162 30.448 41.6149 30.448ZM42.0629 27.676C42.8095 27.676 43.5095 27.48 44.1629 27.088C44.8349 26.696 45.3669 26.1453 45.7589 25.436C46.1695 24.708 46.3749 23.8493 46.3749 22.86C46.3749 21.8707 46.1695 21.0213 45.7589 20.312C45.3669 19.584 44.8349 19.024 44.1629 18.632C43.5095 18.24 42.8095 18.044 42.0629 18.044C41.3162 18.044 40.6162 18.24 39.9629 18.632C39.3095 19.024 38.7775 19.584 38.3669 20.312C37.9562 21.0213 37.7509 21.8707 37.7509 22.86C37.7509 23.8493 37.9562 24.708 38.3669 25.436C38.7775 26.1453 39.3095 26.696 39.9629 27.088C40.6162 27.48 41.3162 27.676 42.0629 27.676ZM54.8008 13.62C54.2408 13.62 53.7554 13.424 53.3448 13.032C52.9528 12.6213 52.7568 12.136 52.7568 11.576C52.7568 11.016 52.9528 10.54 53.3448 10.148C53.7554 9.756 54.2408 9.56 54.8008 9.56C55.3608 9.56 55.8368 9.756 56.2288 10.148C56.6394 10.54 56.8448 11.016 56.8448 11.576C56.8448 12.136 56.6394 12.6213 56.2288 13.032C55.8368 13.424 55.3608 13.62 54.8008 13.62ZM53.2888 30V15.72H56.3128V30H53.2888ZM60.3648 30V15.72H63.2208V17.82H63.3888C63.7061 17.092 64.2474 16.4947 65.0128 16.028C65.7968 15.5427 66.6368 15.3 67.5328 15.3C67.9248 15.3 68.2514 15.328 68.5128 15.384C68.7928 15.44 69.0448 15.5053 69.2688 15.58V18.716C68.9141 18.5667 68.5501 18.4453 68.1768 18.352C67.8221 18.2587 67.4488 18.212 67.0568 18.212C66.3474 18.212 65.7128 18.408 65.1528 18.8C64.6114 19.1733 64.1821 19.6867 63.8648 20.34C63.5474 20.9747 63.3888 21.6747 63.3888 22.44V30H60.3648ZM85.3462 30.448C83.9089 30.448 82.6396 30.1213 81.5382 29.468C80.4369 28.8147 79.5689 27.9187 78.9342 26.78C78.2996 25.6227 77.9822 24.316 77.9822 22.86C77.9822 21.404 78.2996 20.1067 78.9342 18.968C79.5689 17.8107 80.4369 16.9053 81.5382 16.252C82.6396 15.5987 83.9089 15.272 85.3462 15.272C86.9329 15.272 88.2676 15.6267 89.3502 16.336C90.4516 17.0453 91.2356 18.0067 91.7022 19.22L88.9582 20.34C88.3049 18.8093 87.0822 18.044 85.2902 18.044C84.5062 18.044 83.7876 18.2493 83.1342 18.66C82.4809 19.052 81.9582 19.612 81.5662 20.34C81.1742 21.0493 80.9782 21.8893 80.9782 22.86C80.9782 23.8307 81.1742 24.68 81.5662 25.408C81.9582 26.136 82.4809 26.696 83.1342 27.088C83.7876 27.48 84.5062 27.676 85.2902 27.676C86.2049 27.676 86.9796 27.4707 87.6142 27.06C88.2489 26.6307 88.7436 26.052 89.0982 25.324L91.7862 26.5C91.2822 27.6387 90.4796 28.5813 89.3782 29.328C88.2769 30.0747 86.9329 30.448 85.3462 30.448ZM101.262 30.448C99.7875 30.448 98.4901 30.112 97.3701 29.44C96.2501 28.768 95.3728 27.8627 94.7381 26.724C94.1035 25.5853 93.7861 24.2973 93.7861 22.86C93.7861 21.4413 94.1035 20.1627 94.7381 19.024C95.3728 17.8667 96.2501 16.952 97.3701 16.28C98.4901 15.608 99.7875 15.272 101.262 15.272C102.718 15.272 104.006 15.608 105.126 16.28C106.246 16.952 107.123 17.8667 107.758 19.024C108.393 20.1627 108.71 21.4413 108.71 22.86C108.71 24.2973 108.393 25.5853 107.758 26.724C107.123 27.8627 106.246 28.768 105.126 29.44C104.006 30.112 102.718 30.448 101.262 30.448ZM101.262 27.676C102.046 27.676 102.774 27.4893 103.446 27.116C104.118 26.724 104.659 26.1733 105.07 25.464C105.499 24.736 105.714 23.868 105.714 22.86C105.714 21.852 105.499 20.9933 105.07 20.284C104.659 19.556 104.118 19.0053 103.446 18.632C102.774 18.24 102.046 18.044 101.262 18.044C100.478 18.044 99.7408 18.24 99.0501 18.632C98.3781 19.0053 97.8275 19.556 97.3981 20.284C96.9875 20.9933 96.7821 21.852 96.7821 22.86C96.7821 23.868 96.9875 24.736 97.3981 25.464C97.8275 26.1733 98.3781 26.724 99.0501 27.116C99.7408 27.4893 100.478 27.676 101.262 27.676ZM111.522 30V15.72H114.378V17.68H114.546C114.956 16.9893 115.563 16.42 116.366 15.972C117.187 15.5053 118.083 15.272 119.054 15.272C120.808 15.272 122.124 15.7947 123.002 16.84C123.879 17.8853 124.318 19.2667 124.318 20.984V30H121.322V21.376C121.322 20.2187 121.032 19.3787 120.454 18.856C119.875 18.3147 119.119 18.044 118.186 18.044C117.458 18.044 116.823 18.2493 116.282 18.66C115.74 19.052 115.311 19.5747 114.994 20.228C114.695 20.8813 114.546 21.5813 114.546 22.328V30H111.522Z" fill="#3C4043"/>
<g id="GPay Logo (Light)">
<g id="GPay">
<g id="Pay">
<path id="Fill 1" fill-rule="evenodd" clip-rule="evenodd" d="M176.529 9.44664V17.6128H181.565C182.765 17.6128 183.757 17.2096 184.541 16.4032C185.347 15.5988 185.75 14.6394 185.75 13.5288C185.75 12.4406 185.347 11.4924 184.541 10.686C183.757 9.85915 182.765 9.44478 181.565 9.44478H176.529V9.44664ZM176.529 20.4872V29.9599H173.521V6.57217H181.499C183.527 6.57217 185.248 7.24786 186.666 8.59737C188.105 9.94688 188.824 11.5913 188.824 13.5288C188.824 15.511 188.105 17.1667 186.666 18.4938C185.27 19.8227 183.547 20.4854 181.499 20.4854H176.529V20.4872Z" fill="#5F6368"/>
<path id="Fill 3" fill-rule="evenodd" clip-rule="evenodd" d="M191.864 25.0602C191.864 25.8442 192.197 26.4975 192.862 27.0201C193.527 27.5427 194.306 27.804 195.2 27.804C196.465 27.804 197.591 27.3354 198.584 26.4004C199.576 25.4634 200.071 24.364 200.071 23.1022C199.133 22.3612 197.825 21.9916 196.147 21.9916C194.925 21.9916 193.907 22.2865 193.09 22.8745C192.273 23.4623 191.864 24.1886 191.864 25.0602ZM195.756 13.4317C197.98 13.4317 199.735 14.0252 201.022 15.2124C202.308 16.3995 202.95 18.0271 202.95 20.0952V29.9599H200.073V27.7387H199.942C198.699 29.5677 197.042 30.4825 194.972 30.4825C193.206 30.4825 191.728 29.9599 190.541 28.9146C189.353 27.8694 188.759 26.5628 188.759 24.9949C188.759 23.3393 189.385 22.0232 190.638 21.0434C191.892 20.0635 193.565 19.5726 195.658 19.5726C197.444 19.5726 198.916 19.8992 200.071 20.5525V19.8656C200.071 18.8204 199.656 17.9338 198.829 17.204C197.999 16.4741 197.031 16.1102 195.919 16.1102C194.239 16.1102 192.911 16.8176 191.93 18.2343L189.28 16.5675C190.741 14.4769 192.899 13.4317 195.756 13.4317Z" fill="#5F6368"/>
<path id="Fill 5" fill-rule="evenodd" clip-rule="evenodd" d="M219.463 13.9543L209.424 37.0154H206.318L210.046 28.9464L203.44 13.9543H206.71L211.484 25.4522H211.55L216.193 13.9543H219.463Z" fill="#5F6368"/>
</g>
<g id="G">
<path id="Fill 8" fill-rule="evenodd" clip-rule="evenodd" d="M164.373 18.4452C164.373 17.4989 164.293 16.5861 164.141 15.7126H151.454V20.8885H158.72C158.408 22.5757 157.465 24.0112 156.033 24.9725V28.3341H160.37C162.91 25.9935 164.373 22.5348 164.373 18.4452Z" fill="#4285F4"/>
<path id="Fill 10" fill-rule="evenodd" clip-rule="evenodd" d="M151.454 31.5782C155.084 31.5782 158.141 30.3873 160.37 28.3341L156.033 24.9725C154.826 25.7844 153.272 26.2585 151.454 26.2585C147.944 26.2585 144.966 23.8955 143.901 20.7112H139.433V24.1736C141.647 28.5637 146.197 31.5782 151.454 31.5782Z" fill="#34A853"/>
<path id="Fill 12" fill-rule="evenodd" clip-rule="evenodd" d="M143.901 20.7111C143.628 19.8992 143.479 19.0331 143.479 18.139C143.479 17.245 143.628 16.3789 143.901 15.567V12.1045H139.433C138.518 13.9188 138 15.9683 138 18.139C138 20.3098 138.518 22.3595 139.433 24.1736L143.901 20.7111Z" fill="#FABB05"/>
<path id="Fill 14" fill-rule="evenodd" clip-rule="evenodd" d="M151.454 10.0196C153.436 10.0196 155.213 10.7009 156.615 12.0355V12.0374L160.455 8.20162C158.123 6.03271 155.082 4.7 151.454 4.7C146.197 4.7 141.647 7.71446 139.433 12.1046L143.901 15.567C144.966 12.3827 147.944 10.0196 151.454 10.0196Z" fill="#E94235"/>
</g>
</g>
</g>
</g>
</svg>
