<svg width="203" height="21" viewBox="0 0 203 21" fill="none" xmlns="http://www.w3.org/2000/svg">
<g id="es_order_with_Pay_NBG">
<path id="Left Text" d="M1.70538 15.0006V3.54461H5.72138C6.42538 3.54461 7.05471 3.69394 7.60938 3.99261C8.16405 4.29128 8.60138 4.70194 8.92138 5.22461C9.25204 5.74728 9.41738 6.35528 9.41738 7.04861C9.41738 7.50728 9.32138 7.94461 9.12938 8.36061C8.94804 8.77661 8.68138 9.14994 8.32938 9.48061C7.98805 9.80061 7.57205 10.0513 7.08138 10.2326C6.98538 10.2753 6.88405 10.3073 6.77738 10.3286L9.94538 14.9046V15.0006H7.91338L4.85738 10.5046H3.46538V15.0006H1.70538ZM3.46538 8.88861H5.67338C6.03604 8.88861 6.36138 8.80861 6.64938 8.64861C6.94804 8.48861 7.18805 8.26994 7.36938 7.99261C7.55071 7.70461 7.64138 7.38461 7.64138 7.03261C7.64138 6.72328 7.56671 6.42994 7.41738 6.15261C7.26805 5.86461 7.04938 5.63528 6.76138 5.46461C6.48405 5.28328 6.14271 5.19261 5.73738 5.19261H3.46538V8.88861ZM14.9048 15.2566C14.1048 15.2566 13.3901 15.0699 12.7608 14.6966C12.1314 14.3233 11.6354 13.8113 11.2728 13.1606C10.9208 12.5099 10.7448 11.7686 10.7448 10.9366C10.7448 10.1579 10.9154 9.43794 11.2568 8.77661C11.5981 8.11528 12.0728 7.58728 12.6808 7.19261C13.2994 6.78728 14.0088 6.58461 14.8088 6.58461C15.6514 6.58461 16.3661 6.76594 16.9528 7.12861C17.5501 7.49128 18.0034 7.98728 18.3128 8.61661C18.6221 9.24594 18.7768 9.95528 18.7768 10.7446C18.7768 10.8619 18.7714 10.9686 18.7608 11.0646C18.7608 11.1606 18.7554 11.2353 18.7448 11.2886H12.4408C12.4834 11.7366 12.5954 12.1259 12.7768 12.4566C13.0114 12.8726 13.3208 13.1873 13.7048 13.4006C14.0888 13.6139 14.5048 13.7206 14.9528 13.7206C15.4968 13.7206 15.9501 13.5979 16.3128 13.3526C16.6861 13.0966 16.9794 12.7819 17.1928 12.4086L18.6168 13.0966C18.2648 13.7366 17.7848 14.2593 17.1768 14.6646C16.5688 15.0593 15.8114 15.2566 14.9048 15.2566ZM12.5368 9.99261H17.0648C17.0541 9.78994 17.0008 9.57661 16.9048 9.35261C16.8088 9.11794 16.6701 8.90461 16.4888 8.71261C16.3074 8.52061 16.0781 8.36594 15.8008 8.24861C15.5234 8.12061 15.1981 8.05661 14.8248 8.05661C14.3554 8.05661 13.9394 8.17928 13.5768 8.42461C13.2141 8.65928 12.9314 8.98994 12.7288 9.41661C12.6434 9.59794 12.5794 9.78994 12.5368 9.99261ZM23.168 15.2566C22.5813 15.2566 22.0587 15.1393 21.6 14.9046C21.152 14.6699 20.7947 14.3499 20.528 13.9446C20.272 13.5286 20.144 13.0539 20.144 12.5206C20.144 11.9339 20.2933 11.4379 20.592 11.0326C20.9013 10.6273 21.312 10.3179 21.824 10.1046C22.336 9.89128 22.9013 9.78461 23.52 9.78461C23.8613 9.78461 24.176 9.81128 24.464 9.86461C24.7627 9.90728 25.0187 9.96061 25.232 10.0246C25.456 10.0886 25.632 10.1579 25.76 10.2326V9.80061C25.76 9.26728 25.568 8.84061 25.184 8.52061C24.8 8.20061 24.304 8.04061 23.696 8.04061C23.28 8.04061 22.8853 8.13661 22.512 8.32861C22.1387 8.50994 21.84 8.76061 21.616 9.08061L20.432 8.16861C20.6667 7.83794 20.9493 7.55528 21.28 7.32061C21.6213 7.08594 22 6.90461 22.416 6.77661C22.8427 6.64861 23.2853 6.58461 23.744 6.58461C24.928 6.58461 25.84 6.87794 26.48 7.46461C27.12 8.04061 27.44 8.85128 27.44 9.89661V15.0006H25.76V13.9926H25.664C25.5253 14.2059 25.3333 14.4086 25.088 14.6006C24.8533 14.7926 24.5707 14.9473 24.24 15.0646C23.92 15.1926 23.5627 15.2566 23.168 15.2566ZM23.472 13.8486C23.92 13.8486 24.3147 13.7419 24.656 13.5286C25.008 13.3153 25.28 13.0379 25.472 12.6966C25.664 12.3446 25.76 11.9659 25.76 11.5606C25.5253 11.4219 25.2373 11.3099 24.896 11.2246C24.5653 11.1286 24.2133 11.0806 23.84 11.0806C23.136 11.0806 22.6347 11.2193 22.336 11.4966C22.0373 11.7739 21.888 12.1206 21.888 12.5366C21.888 12.9206 22.032 13.2353 22.32 13.4806C22.608 13.7259 22.992 13.8486 23.472 13.8486ZM29.5084 15.0006V3.54461H31.2364V15.0006H29.5084ZM33.5516 15.0006V6.84061H35.2796V15.0006H33.5516ZM34.4156 5.64061C34.0956 5.64061 33.8183 5.52861 33.5836 5.30461C33.3596 5.06994 33.2476 4.79261 33.2476 4.47261C33.2476 4.14194 33.3596 3.86994 33.5836 3.65661C33.8183 3.43261 34.0956 3.32061 34.4156 3.32061C34.7463 3.32061 35.0236 3.43261 35.2476 3.65661C35.4716 3.86994 35.5836 4.14194 35.5836 4.47261C35.5836 4.79261 35.4716 5.06994 35.2476 5.30461C35.0236 5.52861 34.7463 5.64061 34.4156 5.64061ZM37.1576 15.0006V13.5606L41.7016 8.34461H37.3016V6.84061H43.8136V8.28061L39.2856 13.4966H43.9416V15.0006H37.1576ZM48.1118 15.2566C47.5251 15.2566 47.0024 15.1393 46.5438 14.9046C46.0958 14.6699 45.7384 14.3499 45.4718 13.9446C45.2158 13.5286 45.0878 13.0539 45.0878 12.5206C45.0878 11.9339 45.2371 11.4379 45.5358 11.0326C45.8451 10.6273 46.2558 10.3179 46.7678 10.1046C47.2798 9.89128 47.8451 9.78461 48.4638 9.78461C48.8051 9.78461 49.1198 9.81128 49.4078 9.86461C49.7064 9.90728 49.9624 9.96061 50.1758 10.0246C50.3998 10.0886 50.5758 10.1579 50.7038 10.2326V9.80061C50.7038 9.26728 50.5118 8.84061 50.1278 8.52061C49.7438 8.20061 49.2478 8.04061 48.6398 8.04061C48.2238 8.04061 47.8291 8.13661 47.4558 8.32861C47.0824 8.50994 46.7838 8.76061 46.5598 9.08061L45.3758 8.16861C45.6104 7.83794 45.8931 7.55528 46.2238 7.32061C46.5651 7.08594 46.9438 6.90461 47.3598 6.77661C47.7864 6.64861 48.2291 6.58461 48.6878 6.58461C49.8718 6.58461 50.7838 6.87794 51.4238 7.46461C52.0638 8.04061 52.3838 8.85128 52.3838 9.89661V15.0006H50.7038V13.9926H50.6078C50.4691 14.2059 50.2771 14.4086 50.0318 14.6006C49.7971 14.7926 49.5144 14.9473 49.1838 15.0646C48.8638 15.1926 48.5064 15.2566 48.1118 15.2566ZM48.4158 13.8486C48.8638 13.8486 49.2584 13.7419 49.5998 13.5286C49.9518 13.3153 50.2238 13.0379 50.4158 12.6966C50.6078 12.3446 50.7038 11.9659 50.7038 11.5606C50.4691 11.4219 50.1811 11.3099 49.8398 11.2246C49.5091 11.1286 49.1571 11.0806 48.7838 11.0806C48.0798 11.0806 47.5784 11.2193 47.2798 11.4966C46.9811 11.7739 46.8318 12.1206 46.8318 12.5366C46.8318 12.9206 46.9758 13.2353 47.2638 13.4806C47.5518 13.7259 47.9358 13.8486 48.4158 13.8486ZM54.4361 15.0006V6.84061H56.0681V8.04061H56.1641C56.2921 7.76328 56.4735 7.51794 56.7081 7.30461C56.9535 7.09128 57.2308 6.92061 57.5401 6.79261C57.8601 6.66461 58.1908 6.60061 58.5321 6.60061C58.7561 6.60061 58.9428 6.61661 59.0921 6.64861C59.2521 6.66994 59.3961 6.70728 59.5241 6.76061V8.55261C59.3215 8.46728 59.1135 8.39794 58.9001 8.34461C58.6975 8.29128 58.4841 8.26461 58.2601 8.26461C57.8548 8.26461 57.4921 8.37661 57.1721 8.60061C56.8628 8.81394 56.6175 9.10194 56.4361 9.46461C56.2548 9.82728 56.1641 10.2326 56.1641 10.6806V15.0006H54.4361ZM64.8764 18.4566V6.84061H66.4924V7.94461H66.5884C66.7377 7.70994 66.935 7.49128 67.1804 7.28861C67.4364 7.07528 67.735 6.90461 68.0764 6.77661C68.4177 6.64861 68.7964 6.58461 69.2124 6.58461C69.959 6.58461 70.6257 6.77128 71.2124 7.14461C71.799 7.51794 72.263 8.02994 72.6044 8.68061C72.9564 9.33128 73.1324 10.0779 73.1324 10.9206C73.1324 11.7633 72.9564 12.5099 72.6044 13.1606C72.263 13.8113 71.799 14.3233 71.2124 14.6966C70.6257 15.0699 69.959 15.2566 69.2124 15.2566C68.5937 15.2566 68.055 15.1179 67.5964 14.8406C67.1377 14.5633 66.8017 14.2539 66.5884 13.9126H66.4924L66.5884 15.0486V18.4566H64.8764ZM68.9564 13.6726C69.383 13.6726 69.783 13.5606 70.1564 13.3366C70.5404 13.1126 70.8444 12.7926 71.0684 12.3766C71.303 11.9606 71.4204 11.4753 71.4204 10.9206C71.4204 10.3553 71.303 9.86994 71.0684 9.46461C70.8444 9.04861 70.5404 8.72861 70.1564 8.50461C69.783 8.28061 69.383 8.16861 68.9564 8.16861C68.5297 8.16861 68.1297 8.28061 67.7564 8.50461C67.383 8.72861 67.079 9.04861 66.8444 9.46461C66.6097 9.86994 66.4924 10.3553 66.4924 10.9206C66.4924 11.4859 66.6097 11.9766 66.8444 12.3926C67.079 12.7979 67.383 13.1126 67.7564 13.3366C68.1297 13.5606 68.5297 13.6726 68.9564 13.6726ZM78.5985 15.2566C77.7985 15.2566 77.0838 15.0699 76.4545 14.6966C75.8252 14.3233 75.3292 13.8113 74.9665 13.1606C74.6145 12.5099 74.4385 11.7686 74.4385 10.9366C74.4385 10.1579 74.6092 9.43794 74.9505 8.77661C75.2918 8.11528 75.7665 7.58728 76.3745 7.19261C76.9932 6.78728 77.7025 6.58461 78.5025 6.58461C79.3452 6.58461 80.0598 6.76594 80.6465 7.12861C81.2438 7.49128 81.6972 7.98728 82.0065 8.61661C82.3158 9.24594 82.4705 9.95528 82.4705 10.7446C82.4705 10.8619 82.4652 10.9686 82.4545 11.0646C82.4545 11.1606 82.4492 11.2353 82.4385 11.2886H76.1345C76.1772 11.7366 76.2892 12.1259 76.4705 12.4566C76.7052 12.8726 77.0145 13.1873 77.3985 13.4006C77.7825 13.6139 78.1985 13.7206 78.6465 13.7206C79.1905 13.7206 79.6438 13.5979 80.0065 13.3526C80.3798 13.0966 80.6732 12.7819 80.8865 12.4086L82.3105 13.0966C81.9585 13.7366 81.4785 14.2593 80.8705 14.6646C80.2625 15.0593 79.5052 15.2566 78.5985 15.2566ZM76.2305 9.99261H80.7585C80.7478 9.78994 80.6945 9.57661 80.5985 9.35261C80.5025 9.11794 80.3638 8.90461 80.1825 8.71261C80.0012 8.52061 79.7718 8.36594 79.4945 8.24861C79.2172 8.12061 78.8918 8.05661 78.5185 8.05661C78.0492 8.05661 77.6332 8.17928 77.2705 8.42461C76.9078 8.65928 76.6252 8.98994 76.4225 9.41661C76.3372 9.59794 76.2732 9.78994 76.2305 9.99261ZM87.7898 15.2566C87.0538 15.2566 86.3871 15.0699 85.7898 14.6966C85.1924 14.3233 84.7231 13.8113 84.3818 13.1606C84.0404 12.5099 83.8698 11.7633 83.8698 10.9206C83.8698 10.0779 84.0404 9.33128 84.3818 8.68061C84.7231 8.02994 85.1924 7.51794 85.7898 7.14461C86.3871 6.77128 87.0538 6.58461 87.7898 6.58461C88.2164 6.58461 88.6004 6.64861 88.9418 6.77661C89.2831 6.90461 89.5764 7.07528 89.8218 7.28861C90.0778 7.49128 90.2751 7.70994 90.4138 7.94461H90.5098L90.4138 6.80861V3.54461H92.1258V15.0006H90.5098V13.9126H90.4138C90.2751 14.1366 90.0778 14.3553 89.8218 14.5686C89.5764 14.7713 89.2831 14.9366 88.9418 15.0646C88.6004 15.1926 88.2164 15.2566 87.7898 15.2566ZM88.0458 13.6726C88.4724 13.6726 88.8724 13.5606 89.2458 13.3366C89.6298 13.1126 89.9338 12.7979 90.1578 12.3926C90.3924 11.9766 90.5098 11.4859 90.5098 10.9206C90.5098 10.3553 90.3924 9.86994 90.1578 9.46461C89.9338 9.04861 89.6298 8.72861 89.2458 8.50461C88.8724 8.28061 88.4724 8.16861 88.0458 8.16861C87.6191 8.16861 87.2191 8.28061 86.8458 8.50461C86.4724 8.72861 86.1684 9.04861 85.9338 9.46461C85.6991 9.86994 85.5818 10.3553 85.5818 10.9206C85.5818 11.4753 85.6991 11.9606 85.9338 12.3766C86.1684 12.7926 86.4724 13.1126 86.8458 13.3366C87.2191 13.5606 87.6191 13.6726 88.0458 13.6726ZM94.4391 15.0006V6.84061H96.1671V15.0006H94.4391ZM95.3031 5.64061C94.9831 5.64061 94.7058 5.52861 94.4711 5.30461C94.2471 5.06994 94.1351 4.79261 94.1351 4.47261C94.1351 4.14194 94.2471 3.86994 94.4711 3.65661C94.7058 3.43261 94.9831 3.32061 95.3031 3.32061C95.6338 3.32061 95.9111 3.43261 96.1351 3.65661C96.3591 3.86994 96.4711 4.14194 96.4711 4.47261C96.4711 4.79261 96.3591 5.06994 96.1351 5.30461C95.9111 5.52861 95.6338 5.64061 95.3031 5.64061ZM101.871 15.2566C101.135 15.2566 100.468 15.0699 99.871 14.6966C99.2737 14.3233 98.8043 13.8113 98.463 13.1606C98.1217 12.5099 97.951 11.7633 97.951 10.9206C97.951 10.0779 98.1217 9.33128 98.463 8.68061C98.8043 8.02994 99.2737 7.51794 99.871 7.14461C100.468 6.77128 101.135 6.58461 101.871 6.58461C102.298 6.58461 102.682 6.64861 103.023 6.77661C103.364 6.90461 103.658 7.07528 103.903 7.28861C104.159 7.49128 104.356 7.70994 104.495 7.94461H104.591L104.495 6.80861V3.54461H106.207V15.0006H104.591V13.9126H104.495C104.356 14.1366 104.159 14.3553 103.903 14.5686C103.658 14.7713 103.364 14.9366 103.023 15.0646C102.682 15.1926 102.298 15.2566 101.871 15.2566ZM102.127 13.6726C102.554 13.6726 102.954 13.5606 103.327 13.3366C103.711 13.1126 104.015 12.7979 104.239 12.3926C104.474 11.9766 104.591 11.4859 104.591 10.9206C104.591 10.3553 104.474 9.86994 104.239 9.46461C104.015 9.04861 103.711 8.72861 103.327 8.50461C102.954 8.28061 102.554 8.16861 102.127 8.16861C101.7 8.16861 101.3 8.28061 100.927 8.50461C100.554 8.72861 100.25 9.04861 100.015 9.46461C99.7803 9.86994 99.663 10.3553 99.663 10.9206C99.663 11.4753 99.7803 11.9606 100.015 12.3766C100.25 12.7926 100.554 13.1126 100.927 13.3366C101.3 13.5606 101.7 13.6726 102.127 13.6726ZM112.154 15.2566C111.312 15.2566 110.57 15.0646 109.93 14.6806C109.29 14.2966 108.789 13.7793 108.426 13.1286C108.064 12.4673 107.882 11.7313 107.882 10.9206C107.882 10.1099 108.064 9.37928 108.426 8.72861C108.789 8.06728 109.29 7.54461 109.93 7.16061C110.57 6.77661 111.312 6.58461 112.154 6.58461C112.986 6.58461 113.722 6.78194 114.362 7.17661C115.002 7.56061 115.504 8.07794 115.866 8.72861C116.229 9.37928 116.41 10.1099 116.41 10.9206C116.41 11.7313 116.229 12.4673 115.866 13.1286C115.504 13.7793 115.002 14.2966 114.362 14.6806C113.722 15.0646 112.986 15.2566 112.154 15.2566ZM112.154 13.6726C112.602 13.6726 113.018 13.5659 113.402 13.3526C113.786 13.1286 114.096 12.8139 114.33 12.4086C114.576 11.9926 114.698 11.4966 114.698 10.9206C114.698 10.3446 114.576 9.85394 114.33 9.44861C114.096 9.03261 113.786 8.71794 113.402 8.50461C113.018 8.28061 112.602 8.16861 112.154 8.16861C111.706 8.16861 111.285 8.28061 110.89 8.50461C110.506 8.71794 110.192 9.03261 109.946 9.44861C109.712 9.85394 109.594 10.3446 109.594 10.9206C109.594 11.4966 109.712 11.9926 109.946 12.4086C110.192 12.8139 110.512 13.1286 110.906 13.3526C111.301 13.5659 111.717 13.6726 112.154 13.6726ZM125.812 15.2566C124.991 15.2566 124.26 15.0699 123.62 14.6966C122.991 14.3233 122.495 13.8113 122.132 13.1606C121.78 12.4993 121.604 11.7526 121.604 10.9206C121.604 10.0886 121.78 9.34728 122.132 8.69661C122.495 8.04594 122.991 7.53394 123.62 7.16061C124.26 6.77661 124.991 6.58461 125.812 6.58461C126.719 6.58461 127.481 6.78728 128.1 7.19261C128.729 7.59794 129.177 8.14728 129.444 8.84061L127.876 9.48061C127.684 9.04328 127.407 8.71794 127.044 8.50461C126.692 8.28061 126.271 8.16861 125.78 8.16861C125.332 8.16861 124.921 8.28594 124.548 8.52061C124.175 8.74461 123.876 9.05928 123.652 9.46461C123.428 9.86994 123.316 10.3553 123.316 10.9206C123.316 11.4753 123.428 11.9606 123.652 12.3766C123.876 12.7926 124.175 13.1126 124.548 13.3366C124.921 13.5606 125.332 13.6726 125.78 13.6726C126.303 13.6726 126.745 13.5553 127.108 13.3206C127.471 13.0859 127.753 12.7553 127.956 12.3286L129.492 13.0006C129.193 13.6513 128.729 14.1899 128.1 14.6166C127.481 15.0433 126.719 15.2566 125.812 15.2566ZM134.886 15.2566C134.043 15.2566 133.302 15.0646 132.662 14.6806C132.022 14.2966 131.52 13.7793 131.158 13.1286C130.795 12.4673 130.614 11.7313 130.614 10.9206C130.614 10.1099 130.795 9.37928 131.158 8.72861C131.52 8.06728 132.022 7.54461 132.662 7.16061C133.302 6.77661 134.043 6.58461 134.886 6.58461C135.718 6.58461 136.454 6.78194 137.094 7.17661C137.734 7.56061 138.235 8.07794 138.598 8.72861C138.96 9.37928 139.142 10.1099 139.142 10.9206C139.142 11.7313 138.96 12.4673 138.598 13.1286C138.235 13.7793 137.734 14.2966 137.094 14.6806C136.454 15.0646 135.718 15.2566 134.886 15.2566ZM134.886 13.6726C135.334 13.6726 135.75 13.5659 136.134 13.3526C136.518 13.1286 136.827 12.8139 137.062 12.4086C137.307 11.9926 137.43 11.4966 137.43 10.9206C137.43 10.3446 137.307 9.85394 137.062 9.44861C136.827 9.03261 136.518 8.71794 136.134 8.50461C135.75 8.28061 135.334 8.16861 134.886 8.16861C134.438 8.16861 134.016 8.28061 133.622 8.50461C133.238 8.71794 132.923 9.03261 132.678 9.44861C132.443 9.85394 132.326 10.3446 132.326 10.9206C132.326 11.4966 132.443 11.9926 132.678 12.4086C132.923 12.8139 133.243 13.1286 133.638 13.3526C134.032 13.5659 134.448 13.6726 134.886 13.6726ZM140.727 15.0006V6.84061H142.359V7.96061H142.455C142.689 7.56594 143.036 7.24061 143.495 6.98461C143.964 6.71794 144.476 6.58461 145.031 6.58461C146.033 6.58461 146.785 6.88328 147.287 7.48061C147.788 8.06728 148.039 8.85661 148.039 9.84861V15.0006H146.327V10.0726C146.327 9.41128 146.161 8.93128 145.831 8.63261C145.5 8.32328 145.068 8.16861 144.535 8.16861C144.119 8.16861 143.756 8.28594 143.447 8.52061C143.137 8.74461 142.892 9.04328 142.711 9.41661C142.54 9.78994 142.455 10.1899 142.455 10.6166V15.0006H140.727Z" fill="white"/>
<g id="GPay (Dark)">
<g id="GPay">
<g id="Pay">
<path id="Fill 1" fill-rule="evenodd" clip-rule="evenodd" d="M177.356 3.42339V8.16175H180.278C180.974 8.16175 181.55 7.92781 182.005 7.45993C182.473 6.99313 182.707 6.43644 182.707 5.79203C182.707 5.16061 182.473 4.61041 182.005 4.14254C181.55 3.66274 180.974 3.4223 180.278 3.4223H177.356V3.42339ZM177.356 9.82966V15.3262H175.611V1.75549H180.24C181.417 1.75549 182.415 2.14756 183.238 2.93061C184.073 3.71365 184.491 4.66782 184.491 5.79203C184.491 6.94224 184.073 7.90291 183.238 8.67296C182.428 9.44409 181.429 9.82858 180.24 9.82858H177.356V9.82966Z" fill="white"/>
<path id="Fill 3" fill-rule="evenodd" clip-rule="evenodd" d="M186.255 12.4831C186.255 12.9379 186.448 13.317 186.834 13.6203C187.22 13.9235 187.672 14.0752 188.19 14.0752C188.924 14.0752 189.578 13.8032 190.153 13.2607C190.729 12.717 191.017 12.0791 191.017 11.3469C190.472 10.917 189.713 10.7025 188.74 10.7025C188.031 10.7025 187.44 10.8736 186.966 11.2148C186.492 11.5559 186.255 11.9773 186.255 12.4831M188.513 5.73566C189.803 5.73566 190.821 6.08007 191.569 6.76889C192.314 7.45771 192.687 8.40213 192.687 9.60216V15.3261H191.018V14.0373H190.942C190.221 15.0985 189.259 15.6294 188.058 15.6294C187.033 15.6294 186.176 15.3261 185.487 14.7196C184.797 14.1131 184.453 13.3549 184.453 12.4452C184.453 11.4845 184.816 10.7208 185.543 10.1523C186.271 9.58375 187.241 9.2989 188.456 9.2989C189.492 9.2989 190.346 9.48844 191.017 9.86751V9.46894C191.017 8.86243 190.776 8.34798 190.296 7.92451C189.814 7.50103 189.252 7.28984 188.607 7.28984C187.633 7.28984 186.862 7.70032 186.293 8.52235L184.755 7.55519C185.603 6.34217 186.855 5.73566 188.513 5.73566" fill="white"/>
<path id="Fill 5" fill-rule="evenodd" clip-rule="evenodd" d="M202.269 6.03894L196.443 19.4201H194.641L196.804 14.738L192.971 6.03894H194.869L197.639 12.7106H197.677L200.371 6.03894H202.269Z" fill="white"/>
</g>
<g id="G">
<path id="Fill 8" fill-rule="evenodd" clip-rule="evenodd" d="M170.303 8.64473C170.303 8.09563 170.256 7.56601 170.168 7.05914H162.806V10.0625H167.023C166.842 11.0414 166.294 11.8744 165.464 12.4322V14.3828H167.98C169.454 13.0246 170.303 11.0177 170.303 8.64473" fill="#4285F4"/>
<path id="Fill 10" fill-rule="evenodd" clip-rule="evenodd" d="M162.806 16.2651C164.913 16.2651 166.687 15.5741 167.98 14.3828L165.464 12.4322C164.764 12.9033 163.861 13.1784 162.806 13.1784C160.77 13.1784 159.042 11.8073 158.424 9.95959H155.832V11.9687C157.116 14.516 159.757 16.2651 162.806 16.2651" fill="#34A853"/>
<path id="Fill 12" fill-rule="evenodd" clip-rule="evenodd" d="M158.424 9.9596C158.266 9.48847 158.179 8.98593 158.179 8.46715C158.179 7.94837 158.266 7.44583 158.424 6.9747V4.96564H155.832C155.3 6.01837 155 7.20756 155 8.46715C155 9.72674 155.3 10.916 155.832 11.9687L158.424 9.9596Z" fill="#FABB05"/>
<path id="Fill 14" fill-rule="evenodd" clip-rule="evenodd" d="M162.806 3.75583C163.957 3.75583 164.988 4.15115 165.801 4.92553V4.92661L168.029 2.70094C166.676 1.44243 164.912 0.669128 162.806 0.669128C159.757 0.669128 157.116 2.41826 155.832 4.9656L158.424 6.97467C159.042 5.12698 160.77 3.75583 162.806 3.75583" fill="#E94235"/>
</g>
</g>
</g>
</g>
</svg>
