<svg width="228" height="38" viewBox="0 0 228 38" fill="none" xmlns="http://www.w3.org/2000/svg">
<g id="es_pay_with_Light">
<path id="Text" d="M4.23129 30V9.952H11.1193C12.3326 9.952 13.434 10.2133 14.4233 10.736C15.4126 11.2587 16.1966 11.9773 16.7753 12.892C17.3726 13.8067 17.6713 14.8707 17.6713 16.084C17.6713 17.2973 17.3726 18.3707 16.7753 19.304C16.1966 20.2187 15.4126 20.9373 14.4233 21.46C13.434 21.964 12.3326 22.216 11.1193 22.216H7.31129V30H4.23129ZM11.2033 12.864H7.31129V19.304H11.2033C11.9313 19.304 12.5473 19.1547 13.0513 18.856C13.5553 18.5387 13.938 18.1373 14.1993 17.652C14.4793 17.148 14.6193 16.6253 14.6193 16.084C14.6193 15.5427 14.4793 15.0293 14.1993 14.544C13.938 14.0587 13.5553 13.6573 13.0513 13.34C12.5473 13.0227 11.9313 12.864 11.2033 12.864ZM24.5581 30.448C23.5314 30.448 22.6167 30.252 21.8141 29.86C21.0114 29.4493 20.3861 28.88 19.9381 28.152C19.4901 27.424 19.2661 26.5933 19.2661 25.66C19.2661 24.652 19.5274 23.7933 20.0501 23.084C20.5914 22.356 21.3101 21.8053 22.2061 21.432C23.1021 21.0587 24.0914 20.872 25.1741 20.872C26.0701 20.872 26.8541 20.956 27.5261 21.124C28.2167 21.292 28.7394 21.4693 29.0941 21.656V20.9C29.0941 19.9667 28.7581 19.22 28.0861 18.66C27.4141 18.1 26.5461 17.82 25.4821 17.82C24.7541 17.82 24.0634 17.988 23.4101 18.324C22.7567 18.6413 22.2341 19.08 21.8421 19.64L19.7701 18.044C20.3861 17.1853 21.1981 16.5133 22.2061 16.028C23.2327 15.524 24.3527 15.272 25.5661 15.272C27.6381 15.272 29.2341 15.7853 30.3541 16.812C31.4741 17.82 32.0341 19.2387 32.0341 21.068V30H29.0941V28.236H28.9261C28.5527 28.8147 27.9927 29.328 27.2461 29.776C26.4994 30.224 25.6034 30.448 24.5581 30.448ZM25.0901 27.984C25.8741 27.984 26.5647 27.7973 27.1621 27.424C27.7594 27.0507 28.2261 26.5653 28.5621 25.968C28.9167 25.352 29.0941 24.6893 29.0941 23.98C28.6647 23.7373 28.1607 23.5413 27.5821 23.392C27.0034 23.224 26.3874 23.14 25.7341 23.14C24.5021 23.14 23.6247 23.392 23.1021 23.896C22.5794 24.3813 22.3181 24.9787 22.3181 25.688C22.3181 26.36 22.5701 26.9107 23.0741 27.34C23.5781 27.7693 24.2501 27.984 25.0901 27.984ZM41.9665 36.496C40.7158 36.496 39.6332 36.2907 38.7185 35.88C37.8225 35.488 37.0945 34.9747 36.5345 34.34C35.9745 33.724 35.5732 33.0893 35.3305 32.436L38.1305 31.26C38.4292 32.0067 38.9052 32.6133 39.5585 33.08C40.2305 33.5653 41.0332 33.808 41.9665 33.808C43.2732 33.808 44.2998 33.416 45.0465 32.632C45.8118 31.848 46.1945 30.7373 46.1945 29.3V27.928H46.0265C45.5785 28.6 44.9532 29.1413 44.1505 29.552C43.3665 29.944 42.4705 30.14 41.4625 30.14C40.2492 30.14 39.1385 29.832 38.1305 29.216C37.1225 28.6 36.3105 27.7413 35.6945 26.64C35.0785 25.52 34.7705 24.2133 34.7705 22.72C34.7705 21.208 35.0785 19.9013 35.6945 18.8C36.3105 17.68 37.1225 16.812 38.1305 16.196C39.1385 15.58 40.2492 15.272 41.4625 15.272C42.4705 15.272 43.3665 15.4773 44.1505 15.888C44.9532 16.2987 45.5785 16.84 46.0265 17.512H46.1945V15.72H49.0785V29.244C49.0785 30.7933 48.7705 32.1093 48.1545 33.192C47.5572 34.2747 46.7265 35.096 45.6625 35.656C44.5985 36.216 43.3665 36.496 41.9665 36.496ZM41.9945 27.396C42.7412 27.396 43.4318 27.2187 44.0665 26.864C44.7012 26.4907 45.2145 25.9587 45.6065 25.268C45.9985 24.5587 46.1945 23.7093 46.1945 22.72C46.1945 21.6933 45.9985 20.8347 45.6065 20.144C45.2145 19.4347 44.7012 18.9027 44.0665 18.548C43.4318 18.1933 42.7412 18.016 41.9945 18.016C41.2478 18.016 40.5478 18.2027 39.8945 18.576C39.2598 18.9307 38.7465 19.4533 38.3545 20.144C37.9625 20.8347 37.7665 21.6933 37.7665 22.72C37.7665 23.728 37.9625 24.5867 38.3545 25.296C38.7465 25.9867 39.2598 26.5093 39.8945 26.864C40.5478 27.2187 41.2478 27.396 41.9945 27.396ZM57.2596 30.448C56.233 30.448 55.3183 30.252 54.5156 29.86C53.713 29.4493 53.0876 28.88 52.6396 28.152C52.1916 27.424 51.9676 26.5933 51.9676 25.66C51.9676 24.652 52.229 23.7933 52.7516 23.084C53.293 22.356 54.0116 21.8053 54.9076 21.432C55.8036 21.0587 56.793 20.872 57.8756 20.872C58.7716 20.872 59.5556 20.956 60.2276 21.124C60.9183 21.292 61.441 21.4693 61.7956 21.656V20.9C61.7956 19.9667 61.4596 19.22 60.7876 18.66C60.1156 18.1 59.2476 17.82 58.1836 17.82C57.4556 17.82 56.765 17.988 56.1116 18.324C55.4583 18.6413 54.9356 19.08 54.5436 19.64L52.4716 18.044C53.0876 17.1853 53.8996 16.5133 54.9076 16.028C55.9343 15.524 57.0543 15.272 58.2676 15.272C60.3396 15.272 61.9356 15.7853 63.0556 16.812C64.1756 17.82 64.7356 19.2387 64.7356 21.068V30H61.7956V28.236H61.6276C61.2543 28.8147 60.6943 29.328 59.9476 29.776C59.201 30.224 58.305 30.448 57.2596 30.448ZM57.7916 27.984C58.5756 27.984 59.2663 27.7973 59.8636 27.424C60.461 27.0507 60.9276 26.5653 61.2636 25.968C61.6183 25.352 61.7956 24.6893 61.7956 23.98C61.3663 23.7373 60.8623 23.5413 60.2836 23.392C59.705 23.224 59.089 23.14 58.4356 23.14C57.2036 23.14 56.3263 23.392 55.8036 23.896C55.281 24.3813 55.0196 24.9787 55.0196 25.688C55.0196 26.36 55.2716 26.9107 55.7756 27.34C56.2796 27.7693 56.9516 27.984 57.7916 27.984ZM68.3648 30V15.72H71.2208V17.82H71.3888C71.7061 17.092 72.2475 16.4947 73.0128 16.028C73.7968 15.5427 74.6368 15.3 75.5328 15.3C75.9248 15.3 76.2515 15.328 76.5128 15.384C76.7928 15.44 77.0448 15.5053 77.2688 15.58V18.716C76.9141 18.5667 76.5501 18.4453 76.1768 18.352C75.8221 18.2587 75.4488 18.212 75.0568 18.212C74.3475 18.212 73.7128 18.408 73.1528 18.8C72.6115 19.1733 72.1821 19.6867 71.8648 20.34C71.5475 20.9747 71.3888 21.6747 71.3888 22.44V30H68.3648ZM93.3462 30.448C91.9089 30.448 90.6396 30.1213 89.5382 29.468C88.4369 28.8147 87.5689 27.9187 86.9342 26.78C86.2996 25.6227 85.9822 24.316 85.9822 22.86C85.9822 21.404 86.2996 20.1067 86.9342 18.968C87.5689 17.8107 88.4369 16.9053 89.5382 16.252C90.6396 15.5987 91.9089 15.272 93.3462 15.272C94.9329 15.272 96.2676 15.6267 97.3502 16.336C98.4516 17.0453 99.2356 18.0067 99.7022 19.22L96.9582 20.34C96.3049 18.8093 95.0822 18.044 93.2902 18.044C92.5062 18.044 91.7876 18.2493 91.1342 18.66C90.4809 19.052 89.9582 19.612 89.5662 20.34C89.1742 21.0493 88.9782 21.8893 88.9782 22.86C88.9782 23.8307 89.1742 24.68 89.5662 25.408C89.9582 26.136 90.4809 26.696 91.1342 27.088C91.7876 27.48 92.5062 27.676 93.2902 27.676C94.2049 27.676 94.9796 27.4707 95.6142 27.06C96.2489 26.6307 96.7436 26.052 97.0982 25.324L99.7862 26.5C99.2822 27.6387 98.4796 28.5813 97.3782 29.328C96.2769 30.0747 94.9329 30.448 93.3462 30.448ZM109.262 30.448C107.787 30.448 106.49 30.112 105.37 29.44C104.25 28.768 103.373 27.8627 102.738 26.724C102.103 25.5853 101.786 24.2973 101.786 22.86C101.786 21.4413 102.103 20.1627 102.738 19.024C103.373 17.8667 104.25 16.952 105.37 16.28C106.49 15.608 107.787 15.272 109.262 15.272C110.718 15.272 112.006 15.608 113.126 16.28C114.246 16.952 115.123 17.8667 115.758 19.024C116.393 20.1627 116.71 21.4413 116.71 22.86C116.71 24.2973 116.393 25.5853 115.758 26.724C115.123 27.8627 114.246 28.768 113.126 29.44C112.006 30.112 110.718 30.448 109.262 30.448ZM109.262 27.676C110.046 27.676 110.774 27.4893 111.446 27.116C112.118 26.724 112.659 26.1733 113.07 25.464C113.499 24.736 113.714 23.868 113.714 22.86C113.714 21.852 113.499 20.9933 113.07 20.284C112.659 19.556 112.118 19.0053 111.446 18.632C110.774 18.24 110.046 18.044 109.262 18.044C108.478 18.044 107.741 18.24 107.05 18.632C106.378 19.0053 105.827 19.556 105.398 20.284C104.987 20.9933 104.782 21.852 104.782 22.86C104.782 23.868 104.987 24.736 105.398 25.464C105.827 26.1733 106.378 26.724 107.05 27.116C107.741 27.4893 108.478 27.676 109.262 27.676ZM119.522 30V15.72H122.378V17.68H122.546C122.956 16.9893 123.563 16.42 124.366 15.972C125.187 15.5053 126.083 15.272 127.054 15.272C128.808 15.272 130.124 15.7947 131.002 16.84C131.879 17.8853 132.318 19.2667 132.318 20.984V30H129.322V21.376C129.322 20.2187 129.032 19.3787 128.454 18.856C127.875 18.3147 127.119 18.044 126.186 18.044C125.458 18.044 124.823 18.2493 124.282 18.66C123.74 19.052 123.311 19.5747 122.994 20.228C122.695 20.8813 122.546 21.5813 122.546 22.328V30H119.522Z" fill="#3C4043"/>
<g id="GPay Logo (Light)">
<g id="GPay">
<g id="Pay">
<path id="Fill 1" fill-rule="evenodd" clip-rule="evenodd" d="M184.529 9.44664V17.6128H189.565C190.765 17.6128 191.757 17.2096 192.541 16.4032C193.347 15.5988 193.75 14.6394 193.75 13.5288C193.75 12.4406 193.347 11.4924 192.541 10.686C191.757 9.85915 190.765 9.44478 189.565 9.44478H184.529V9.44664ZM184.529 20.4872V29.9599H181.521V6.57217H189.499C191.527 6.57217 193.248 7.24786 194.666 8.59737C196.105 9.94688 196.824 11.5913 196.824 13.5288C196.824 15.511 196.105 17.1667 194.666 18.4938C193.27 19.8227 191.547 20.4854 189.499 20.4854H184.529V20.4872Z" fill="#5F6368"/>
<path id="Fill 3" fill-rule="evenodd" clip-rule="evenodd" d="M199.864 25.0602C199.864 25.8442 200.197 26.4975 200.862 27.0201C201.527 27.5427 202.306 27.804 203.2 27.804C204.465 27.804 205.591 27.3354 206.584 26.4004C207.576 25.4634 208.071 24.364 208.071 23.1022C207.133 22.3612 205.825 21.9916 204.147 21.9916C202.925 21.9916 201.907 22.2865 201.09 22.8745C200.273 23.4623 199.864 24.1886 199.864 25.0602ZM203.756 13.4317C205.98 13.4317 207.735 14.0252 209.022 15.2124C210.308 16.3995 210.95 18.0271 210.95 20.0952V29.9599H208.073V27.7387H207.942C206.699 29.5677 205.042 30.4825 202.972 30.4825C201.206 30.4825 199.728 29.9599 198.541 28.9146C197.353 27.8694 196.759 26.5628 196.759 24.9949C196.759 23.3393 197.385 22.0232 198.638 21.0434C199.892 20.0635 201.565 19.5726 203.658 19.5726C205.444 19.5726 206.916 19.8992 208.071 20.5525V19.8656C208.071 18.8204 207.656 17.9338 206.829 17.204C205.999 16.4741 205.031 16.1102 203.919 16.1102C202.239 16.1102 200.911 16.8176 199.93 18.2343L197.28 16.5675C198.741 14.4769 200.899 13.4317 203.756 13.4317Z" fill="#5F6368"/>
<path id="Fill 5" fill-rule="evenodd" clip-rule="evenodd" d="M227.463 13.9543L217.424 37.0154H214.318L218.046 28.9464L211.44 13.9543H214.71L219.484 25.4522H219.55L224.193 13.9543H227.463Z" fill="#5F6368"/>
</g>
<g id="G">
<path id="Fill 8" fill-rule="evenodd" clip-rule="evenodd" d="M172.373 18.4452C172.373 17.4989 172.293 16.5861 172.141 15.7126H159.454V20.8885H166.72C166.408 22.5757 165.465 24.0112 164.033 24.9725V28.3341H168.37C170.91 25.9935 172.373 22.5348 172.373 18.4452Z" fill="#4285F4"/>
<path id="Fill 10" fill-rule="evenodd" clip-rule="evenodd" d="M159.454 31.5782C163.084 31.5782 166.141 30.3873 168.37 28.3341L164.033 24.9725C162.826 25.7844 161.272 26.2585 159.454 26.2585C155.944 26.2585 152.966 23.8955 151.901 20.7112H147.433V24.1736C149.647 28.5637 154.197 31.5782 159.454 31.5782Z" fill="#34A853"/>
<path id="Fill 12" fill-rule="evenodd" clip-rule="evenodd" d="M151.901 20.7111C151.628 19.8992 151.479 19.0331 151.479 18.139C151.479 17.245 151.628 16.3789 151.901 15.567V12.1045H147.433C146.518 13.9188 146 15.9683 146 18.139C146 20.3098 146.518 22.3595 147.433 24.1736L151.901 20.7111Z" fill="#FABB05"/>
<path id="Fill 14" fill-rule="evenodd" clip-rule="evenodd" d="M159.454 10.0196C161.436 10.0196 163.213 10.7009 164.615 12.0355V12.0374L168.455 8.20162C166.123 6.03271 163.082 4.7 159.454 4.7C154.197 4.7 149.647 7.71446 147.433 12.1046L151.901 15.567C152.966 12.3827 155.944 10.0196 159.454 10.0196Z" fill="#E94235"/>
</g>
</g>
</g>
</g>
</svg>
