<svg width="130" height="21" viewBox="0 0 130 21" fill="none" xmlns="http://www.w3.org/2000/svg">
<g id="es_pay_with_Pay_NBG">
<path id="Left Text" d="M2.01788 15.0006V3.54461H5.95388C6.64721 3.54461 7.27655 3.69394 7.84188 3.99261C8.40721 4.28061 8.85521 4.69128 9.18588 5.22461C9.52721 5.74728 9.69788 6.35528 9.69788 7.04861C9.69788 7.73128 9.52721 8.33928 9.18588 8.87261C8.85521 9.40594 8.40721 9.82194 7.84188 10.1206C7.27655 10.4086 6.64721 10.5526 5.95388 10.5526H3.77788V15.0006H2.01788ZM3.77788 8.88861H6.00188C6.41788 8.88861 6.76988 8.80328 7.05788 8.63261C7.34588 8.45128 7.56454 8.22194 7.71388 7.94461C7.87388 7.65661 7.95388 7.35794 7.95388 7.04861C7.95388 6.73928 7.87388 6.44594 7.71388 6.16861C7.56454 5.89128 7.34588 5.66194 7.05788 5.48061C6.76988 5.29928 6.41788 5.20861 6.00188 5.20861H3.77788V8.88861ZM13.6118 15.2566C13.0251 15.2566 12.5024 15.1393 12.0438 14.9046C11.5958 14.6699 11.2384 14.3499 10.9718 13.9446C10.7158 13.5286 10.5878 13.0539 10.5878 12.5206C10.5878 11.9339 10.7371 11.4379 11.0358 11.0326C11.3451 10.6273 11.7558 10.3179 12.2678 10.1046C12.7798 9.89128 13.3451 9.78461 13.9638 9.78461C14.3051 9.78461 14.6198 9.81128 14.9078 9.86461C15.2064 9.90728 15.4624 9.96061 15.6758 10.0246C15.8998 10.0886 16.0758 10.1579 16.2038 10.2326V9.80061C16.2038 9.26728 16.0118 8.84061 15.6278 8.52061C15.2438 8.20061 14.7478 8.04061 14.1398 8.04061C13.7238 8.04061 13.3291 8.13661 12.9558 8.32861C12.5824 8.50994 12.2838 8.76061 12.0598 9.08061L10.8758 8.16861C11.1104 7.83794 11.3931 7.55528 11.7238 7.32061C12.0651 7.08594 12.4438 6.90461 12.8598 6.77661C13.2864 6.64861 13.7291 6.58461 14.1878 6.58461C15.3718 6.58461 16.2838 6.87794 16.9238 7.46461C17.5638 8.04061 17.8838 8.85128 17.8838 9.89661V15.0006H16.2038V13.9926H16.1078C15.9691 14.2059 15.7771 14.4086 15.5318 14.6006C15.2971 14.7926 15.0144 14.9473 14.6838 15.0646C14.3638 15.1926 14.0064 15.2566 13.6118 15.2566ZM13.9158 13.8486C14.3638 13.8486 14.7584 13.7419 15.0998 13.5286C15.4518 13.3153 15.7238 13.0379 15.9158 12.6966C16.1078 12.3446 16.2038 11.9659 16.2038 11.5606C15.9691 11.4219 15.6811 11.3099 15.3398 11.2246C15.0091 11.1286 14.6571 11.0806 14.2838 11.0806C13.5798 11.0806 13.0784 11.2193 12.7798 11.4966C12.4811 11.7739 12.3318 12.1206 12.3318 12.5366C12.3318 12.9206 12.4758 13.2353 12.7638 13.4806C13.0518 13.7259 13.4358 13.8486 13.9158 13.8486ZM23.538 18.7126C22.8233 18.7126 22.2047 18.5953 21.682 18.3606C21.17 18.1366 20.754 17.8433 20.434 17.4806C20.114 17.1286 19.8847 16.7659 19.746 16.3926L21.346 15.7206C21.5167 16.1473 21.7887 16.4939 22.162 16.7606C22.546 17.0379 23.0047 17.1766 23.538 17.1766C24.2953 17.1766 24.8873 16.9526 25.314 16.5046C25.7407 16.0566 25.954 15.4219 25.954 14.6006V13.8166H25.858C25.602 14.1899 25.25 14.4939 24.802 14.7286C24.354 14.9633 23.8367 15.0806 23.25 15.0806C22.5567 15.0806 21.9167 14.9046 21.33 14.5526C20.754 14.2006 20.29 13.7099 19.938 13.0806C19.5967 12.4406 19.426 11.6939 19.426 10.8406C19.426 9.97661 19.5967 9.22994 19.938 8.60061C20.29 7.96061 20.754 7.46461 21.33 7.11261C21.9167 6.76061 22.5567 6.58461 23.25 6.58461C23.8367 6.58461 24.354 6.70194 24.802 6.93661C25.25 7.16061 25.602 7.46994 25.858 7.86461H25.954V6.84061H27.602V14.5686C27.602 15.4539 27.426 16.2059 27.074 16.8246C26.7327 17.4433 26.258 17.9126 25.65 18.2326C25.042 18.5526 24.338 18.7126 23.538 18.7126ZM23.554 13.5126C23.9807 13.5126 24.3753 13.4113 24.738 13.2086C25.1113 12.9953 25.4047 12.6913 25.618 12.2966C25.842 11.8913 25.954 11.4059 25.954 10.8406C25.954 10.2433 25.842 9.74728 25.618 9.35261C25.4047 8.95794 25.1113 8.65928 24.738 8.45661C24.3753 8.25394 23.9807 8.15261 23.554 8.15261C23.1273 8.15261 22.7273 8.25394 22.354 8.45661C21.9913 8.65928 21.698 8.96328 21.474 9.36861C21.25 9.76328 21.138 10.2539 21.138 10.8406C21.138 11.4166 21.25 11.9073 21.474 12.3126C21.698 12.7073 21.9913 13.0059 22.354 13.2086C22.7273 13.4113 23.1273 13.5126 23.554 13.5126ZM32.2555 15.2566C31.6688 15.2566 31.1462 15.1393 30.6875 14.9046C30.2395 14.6699 29.8822 14.3499 29.6155 13.9446C29.3595 13.5286 29.2315 13.0539 29.2315 12.5206C29.2315 11.9339 29.3808 11.4379 29.6795 11.0326C29.9888 10.6273 30.3995 10.3179 30.9115 10.1046C31.4235 9.89128 31.9888 9.78461 32.6075 9.78461C32.9488 9.78461 33.2635 9.81128 33.5515 9.86461C33.8502 9.90728 34.1062 9.96061 34.3195 10.0246C34.5435 10.0886 34.7195 10.1579 34.8475 10.2326V9.80061C34.8475 9.26728 34.6555 8.84061 34.2715 8.52061C33.8875 8.20061 33.3915 8.04061 32.7835 8.04061C32.3675 8.04061 31.9728 8.13661 31.5995 8.32861C31.2262 8.50994 30.9275 8.76061 30.7035 9.08061L29.5195 8.16861C29.7542 7.83794 30.0368 7.55528 30.3675 7.32061C30.7088 7.08594 31.0875 6.90461 31.5035 6.77661C31.9302 6.64861 32.3728 6.58461 32.8315 6.58461C34.0155 6.58461 34.9275 6.87794 35.5675 7.46461C36.2075 8.04061 36.5275 8.85128 36.5275 9.89661V15.0006H34.8475V13.9926H34.7515C34.6128 14.2059 34.4208 14.4086 34.1755 14.6006C33.9408 14.7926 33.6582 14.9473 33.3275 15.0646C33.0075 15.1926 32.6502 15.2566 32.2555 15.2566ZM32.5595 13.8486C33.0075 13.8486 33.4022 13.7419 33.7435 13.5286C34.0955 13.3153 34.3675 13.0379 34.5595 12.6966C34.7515 12.3446 34.8475 11.9659 34.8475 11.5606C34.6128 11.4219 34.3248 11.3099 33.9835 11.2246C33.6528 11.1286 33.3008 11.0806 32.9275 11.0806C32.2235 11.0806 31.7222 11.2193 31.4235 11.4966C31.1248 11.7739 30.9755 12.1206 30.9755 12.5366C30.9755 12.9206 31.1195 13.2353 31.4075 13.4806C31.6955 13.7259 32.0795 13.8486 32.5595 13.8486ZM38.5799 15.0006V6.84061H40.2119V8.04061H40.3079C40.4359 7.76328 40.6172 7.51794 40.8519 7.30461C41.0972 7.09128 41.3745 6.92061 41.6839 6.79261C42.0039 6.66461 42.3345 6.60061 42.6759 6.60061C42.8999 6.60061 43.0865 6.61661 43.2359 6.64861C43.3959 6.66994 43.5399 6.70728 43.6679 6.76061V8.55261C43.4652 8.46728 43.2572 8.39794 43.0439 8.34461C42.8412 8.29128 42.6279 8.26461 42.4039 8.26461C41.9985 8.26461 41.6359 8.37661 41.3159 8.60061C41.0065 8.81394 40.7612 9.10194 40.5799 9.46461C40.3985 9.82728 40.3079 10.2326 40.3079 10.6806V15.0006H38.5799ZM52.8121 15.2566C51.9908 15.2566 51.2601 15.0699 50.6201 14.6966C49.9908 14.3233 49.4948 13.8113 49.1321 13.1606C48.7801 12.4993 48.6041 11.7526 48.6041 10.9206C48.6041 10.0886 48.7801 9.34728 49.1321 8.69661C49.4948 8.04594 49.9908 7.53394 50.6201 7.16061C51.2601 6.77661 51.9908 6.58461 52.8121 6.58461C53.7188 6.58461 54.4815 6.78728 55.1001 7.19261C55.7295 7.59794 56.1775 8.14728 56.4441 8.84061L54.8761 9.48061C54.6841 9.04328 54.4068 8.71794 54.0441 8.50461C53.6921 8.28061 53.2708 8.16861 52.7801 8.16861C52.3321 8.16861 51.9215 8.28594 51.5481 8.52061C51.1748 8.74461 50.8761 9.05928 50.6521 9.46461C50.4281 9.86994 50.3161 10.3553 50.3161 10.9206C50.3161 11.4753 50.4281 11.9606 50.6521 12.3766C50.8761 12.7926 51.1748 13.1126 51.5481 13.3366C51.9215 13.5606 52.3321 13.6726 52.7801 13.6726C53.3028 13.6726 53.7455 13.5553 54.1081 13.3206C54.4708 13.0859 54.7535 12.7553 54.9561 12.3286L56.4921 13.0006C56.1935 13.6513 55.7295 14.1899 55.1001 14.6166C54.4815 15.0433 53.7188 15.2566 52.8121 15.2566ZM61.8855 15.2566C61.0428 15.2566 60.3015 15.0646 59.6615 14.6806C59.0215 14.2966 58.5202 13.7793 58.1575 13.1286C57.7948 12.4673 57.6135 11.7313 57.6135 10.9206C57.6135 10.1099 57.7948 9.37928 58.1575 8.72861C58.5202 8.06728 59.0215 7.54461 59.6615 7.16061C60.3015 6.77661 61.0428 6.58461 61.8855 6.58461C62.7175 6.58461 63.4535 6.78194 64.0935 7.17661C64.7335 7.56061 65.2348 8.07794 65.5975 8.72861C65.9602 9.37928 66.1415 10.1099 66.1415 10.9206C66.1415 11.7313 65.9602 12.4673 65.5975 13.1286C65.2348 13.7793 64.7335 14.2966 64.0935 14.6806C63.4535 15.0646 62.7175 15.2566 61.8855 15.2566ZM61.8855 13.6726C62.3335 13.6726 62.7495 13.5659 63.1335 13.3526C63.5175 13.1286 63.8268 12.8139 64.0615 12.4086C64.3068 11.9926 64.4295 11.4966 64.4295 10.9206C64.4295 10.3446 64.3068 9.85394 64.0615 9.44861C63.8268 9.03261 63.5175 8.71794 63.1335 8.50461C62.7495 8.28061 62.3335 8.16861 61.8855 8.16861C61.4375 8.16861 61.0162 8.28061 60.6215 8.50461C60.2375 8.71794 59.9228 9.03261 59.6775 9.44861C59.4428 9.85394 59.3255 10.3446 59.3255 10.9206C59.3255 11.4966 59.4428 11.9926 59.6775 12.4086C59.9228 12.8139 60.2428 13.1286 60.6375 13.3526C61.0322 13.5659 61.4482 13.6726 61.8855 13.6726ZM67.7268 15.0006V6.84061H69.3588V7.96061H69.4548C69.6894 7.56594 70.0361 7.24061 70.4948 6.98461C70.9641 6.71794 71.4761 6.58461 72.0308 6.58461C73.0334 6.58461 73.7854 6.88328 74.2868 7.48061C74.7881 8.06728 75.0388 8.85661 75.0388 9.84861V15.0006H73.3268V10.0726C73.3268 9.41128 73.1614 8.93128 72.8308 8.63261C72.5001 8.32328 72.0681 8.16861 71.5348 8.16861C71.1188 8.16861 70.7561 8.28594 70.4468 8.52061C70.1374 8.74461 69.8921 9.04328 69.7108 9.41661C69.5401 9.78994 69.4548 10.1899 69.4548 10.6166V15.0006H67.7268Z" fill="white"/>
<g id="GPay (Dark)">
<g id="GPay">
<g id="Pay">
<path id="Fill 1" fill-rule="evenodd" clip-rule="evenodd" d="M104.356 3.42339V8.16175H107.278C107.974 8.16175 108.55 7.92781 109.005 7.45993C109.473 6.99313 109.707 6.43644 109.707 5.79203C109.707 5.16061 109.473 4.61041 109.005 4.14254C108.55 3.66274 107.974 3.4223 107.278 3.4223H104.356V3.42339ZM104.356 9.82966V15.3262H102.611V1.75549H107.24C108.417 1.75549 109.415 2.14756 110.238 2.93061C111.073 3.71365 111.491 4.66782 111.491 5.79203C111.491 6.94224 111.073 7.90291 110.238 8.67296C109.428 9.44409 108.429 9.82858 107.24 9.82858H104.356V9.82966Z" fill="white"/>
<path id="Fill 3" fill-rule="evenodd" clip-rule="evenodd" d="M113.255 12.4831C113.255 12.9379 113.448 13.317 113.834 13.6203C114.22 13.9235 114.672 14.0752 115.19 14.0752C115.924 14.0752 116.578 13.8032 117.153 13.2607C117.729 12.717 118.017 12.0791 118.017 11.3469C117.472 10.917 116.713 10.7025 115.74 10.7025C115.031 10.7025 114.44 10.8736 113.966 11.2148C113.492 11.5559 113.255 11.9773 113.255 12.4831M115.513 5.73566C116.803 5.73566 117.821 6.08007 118.569 6.76889C119.314 7.45771 119.687 8.40213 119.687 9.60216V15.3261H118.018V14.0373H117.942C117.221 15.0985 116.259 15.6294 115.058 15.6294C114.033 15.6294 113.176 15.3261 112.487 14.7196C111.797 14.1131 111.453 13.3549 111.453 12.4452C111.453 11.4845 111.816 10.7208 112.543 10.1523C113.271 9.58375 114.241 9.2989 115.456 9.2989C116.492 9.2989 117.346 9.48844 118.017 9.86751V9.46894C118.017 8.86243 117.776 8.34798 117.296 7.92451C116.814 7.50103 116.252 7.28984 115.607 7.28984C114.633 7.28984 113.862 7.70032 113.293 8.52235L111.755 7.55519C112.603 6.34217 113.855 5.73566 115.513 5.73566" fill="white"/>
<path id="Fill 5" fill-rule="evenodd" clip-rule="evenodd" d="M129.269 6.03894L123.443 19.4201H121.641L123.804 14.738L119.971 6.03894H121.869L124.639 12.7106H124.677L127.371 6.03894H129.269Z" fill="white"/>
</g>
<g id="G">
<path id="Fill 8" fill-rule="evenodd" clip-rule="evenodd" d="M97.3029 8.64473C97.3029 8.09563 97.2562 7.56601 97.1684 7.05914H89.8065V10.0625H94.0231C93.842 11.0414 93.2944 11.8744 92.4639 12.4322V14.3828H94.9804C96.4539 13.0246 97.3029 11.0177 97.3029 8.64473" fill="#4285F4"/>
<path id="Fill 10" fill-rule="evenodd" clip-rule="evenodd" d="M89.8065 16.2651C91.9131 16.2651 93.6869 15.5741 94.9804 14.3828L92.4639 12.4322C91.7635 12.9033 90.8614 13.1784 89.8065 13.1784C87.7703 13.1784 86.042 11.8073 85.424 9.95959H82.8316V11.9687C84.1164 14.516 86.7565 16.2651 89.8065 16.2651" fill="#34A853"/>
<path id="Fill 12" fill-rule="evenodd" clip-rule="evenodd" d="M85.424 9.9596C85.2657 9.48847 85.179 8.98593 85.179 8.46715C85.179 7.94837 85.2657 7.44583 85.424 6.9747V4.96564H82.8316C82.3003 6.01837 82 7.20756 82 8.46715C82 9.72674 82.3003 10.916 82.8316 11.9687L85.424 9.9596Z" fill="#FABB05"/>
<path id="Fill 14" fill-rule="evenodd" clip-rule="evenodd" d="M89.8065 3.75583C90.9568 3.75583 91.9879 4.15115 92.8011 4.92553V4.92661L95.0292 2.70094C93.6761 1.44243 91.912 0.669128 89.8065 0.669128C86.7565 0.669128 84.1164 2.41826 82.8316 4.9656L85.424 6.97467C86.042 5.12698 87.7703 3.75583 89.8065 3.75583" fill="#E94235"/>
</g>
</g>
</g>
</g>
</svg>
