<svg width="298" height="38" viewBox="0 0 298 38" fill="none" xmlns="http://www.w3.org/2000/svg">
<g id="es_subscribe_with_Light">
<path id="Text" d="M8.80216 30.448C7.73816 30.448 6.72083 30.2427 5.75016 29.832C4.77949 29.4027 3.92083 28.7773 3.17416 27.956C2.44616 27.1347 1.90483 26.1173 1.55016 24.904L4.46216 23.728C4.76083 24.8107 5.28349 25.716 6.03016 26.444C6.77683 27.172 7.71016 27.536 8.83016 27.536C9.46483 27.536 10.0528 27.424 10.5942 27.2C11.1542 26.976 11.6022 26.6493 11.9382 26.22C12.2742 25.772 12.4422 25.2307 12.4422 24.596C12.4422 23.7187 12.1155 23.0187 11.4622 22.496C10.8088 21.9547 9.76349 21.4227 8.32616 20.9L7.06616 20.452C6.33816 20.1907 5.60083 19.836 4.85416 19.388C4.12616 18.9213 3.51949 18.3333 3.03416 17.624C2.54883 16.896 2.30616 16.0093 2.30616 14.964C2.30616 13.9747 2.56749 13.0693 3.09016 12.248C3.63149 11.408 4.36883 10.7453 5.30216 10.26C6.25416 9.756 7.35549 9.504 8.60616 9.504C9.89416 9.504 10.9675 9.73733 11.8262 10.204C12.7035 10.652 13.3848 11.2027 13.8702 11.856C14.3742 12.4907 14.7195 13.088 14.9062 13.648L12.1342 14.824C12.0222 14.4507 11.8168 14.0773 11.5182 13.704C11.2382 13.312 10.8555 12.9947 10.3702 12.752C9.90349 12.4907 9.32483 12.36 8.63416 12.36C7.73816 12.36 6.96349 12.6027 6.31016 13.088C5.67549 13.5547 5.35816 14.1707 5.35816 14.936C5.35816 15.664 5.65683 16.252 6.25416 16.7C6.85149 17.148 7.71949 17.568 8.85816 17.96L10.1462 18.408C11.0048 18.688 11.8448 19.0707 12.6662 19.556C13.5062 20.0413 14.1875 20.6853 14.7102 21.488C15.2515 22.272 15.5222 23.2893 15.5222 24.54C15.5222 25.5667 15.3168 26.4533 14.9062 27.2C14.5142 27.9467 13.9822 28.5627 13.3102 29.048C12.6568 29.5147 11.9288 29.86 11.1262 30.084C10.3422 30.3267 9.56749 30.448 8.80216 30.448ZM23.6495 30.448C21.8948 30.448 20.5695 29.9253 19.6735 28.88C18.7961 27.816 18.3575 26.3787 18.3575 24.568V15.72H21.3815V24.148C21.3815 25.3613 21.6615 26.2573 22.2215 26.836C22.8001 27.396 23.5188 27.676 24.3775 27.676C25.1428 27.676 25.8055 27.48 26.3655 27.088C26.9441 26.6773 27.3828 26.1547 27.6815 25.52C27.9988 24.8667 28.1575 24.1573 28.1575 23.392V15.72H31.1535V30H28.3255V28.068H28.1575C27.7468 28.74 27.1308 29.3093 26.3095 29.776C25.5068 30.224 24.6201 30.448 23.6495 30.448ZM40.0829 30.448C38.3656 30.448 36.9936 30.0747 35.9669 29.328C34.9403 28.5627 34.2309 27.6573 33.8389 26.612L36.5549 25.436C36.8909 26.2013 37.3763 26.7893 38.0109 27.2C38.6456 27.592 39.3643 27.788 40.1669 27.788C40.9136 27.788 41.5576 27.6573 42.0989 27.396C42.6403 27.116 42.9109 26.668 42.9109 26.052C42.9109 25.4547 42.6403 25.016 42.0989 24.736C41.5576 24.456 40.8856 24.2133 40.0829 24.008L38.3749 23.616C37.6843 23.448 37.0403 23.1867 36.4429 22.832C35.8456 22.4773 35.3603 22.02 34.9869 21.46C34.6136 20.8813 34.4269 20.2093 34.4269 19.444C34.4269 18.604 34.6789 17.876 35.1829 17.26C35.6869 16.6253 36.3496 16.14 37.1709 15.804C38.0109 15.4493 38.9163 15.272 39.8869 15.272C41.2123 15.272 42.3696 15.5333 43.3589 16.056C44.3669 16.56 45.1043 17.3253 45.5709 18.352L42.9669 19.528C42.6309 18.8933 42.1923 18.4547 41.6509 18.212C41.1283 17.9507 40.5496 17.82 39.9149 17.82C39.2056 17.82 38.6083 17.9693 38.1229 18.268C37.6563 18.5667 37.4229 18.94 37.4229 19.388C37.4229 19.8733 37.6283 20.256 38.0389 20.536C38.4683 20.816 38.9909 21.04 39.6069 21.208L41.6789 21.712C43.0976 22.0667 44.1616 22.608 44.8709 23.336C45.5803 24.0453 45.9349 24.9133 45.9349 25.94C45.9349 26.8547 45.6736 27.6573 45.1509 28.348C44.6283 29.02 43.9189 29.5427 43.0229 29.916C42.1456 30.2707 41.1656 30.448 40.0829 30.448ZM55.6189 30.448C54.1815 30.448 52.9122 30.1213 51.8109 29.468C50.7095 28.8147 49.8415 27.9187 49.2069 26.78C48.5722 25.6227 48.2549 24.316 48.2549 22.86C48.2549 21.404 48.5722 20.1067 49.2069 18.968C49.8415 17.8107 50.7095 16.9053 51.8109 16.252C52.9122 15.5987 54.1815 15.272 55.6189 15.272C57.2055 15.272 58.5402 15.6267 59.6229 16.336C60.7242 17.0453 61.5082 18.0067 61.9749 19.22L59.2309 20.34C58.5775 18.8093 57.3549 18.044 55.5629 18.044C54.7789 18.044 54.0602 18.2493 53.4069 18.66C52.7535 19.052 52.2309 19.612 51.8389 20.34C51.4469 21.0493 51.2509 21.8893 51.2509 22.86C51.2509 23.8307 51.4469 24.68 51.8389 25.408C52.2309 26.136 52.7535 26.696 53.4069 27.088C54.0602 27.48 54.7789 27.676 55.5629 27.676C56.4775 27.676 57.2522 27.4707 57.8869 27.06C58.5215 26.6307 59.0162 26.052 59.3709 25.324L62.0589 26.5C61.5549 27.6387 60.7522 28.5813 59.6509 29.328C58.5495 30.0747 57.2055 30.448 55.6189 30.448ZM64.8148 30V15.72H67.6708V17.82H67.8388C68.1561 17.092 68.6975 16.4947 69.4628 16.028C70.2468 15.5427 71.0868 15.3 71.9828 15.3C72.3748 15.3 72.7015 15.328 72.9628 15.384C73.2428 15.44 73.4948 15.5053 73.7188 15.58V18.716C73.3641 18.5667 73.0001 18.4453 72.6268 18.352C72.2721 18.2587 71.8988 18.212 71.5068 18.212C70.7975 18.212 70.1628 18.408 69.6028 18.8C69.0615 19.1733 68.6321 19.6867 68.3148 20.34C67.9975 20.9747 67.8388 21.6747 67.8388 22.44V30H64.8148ZM78.0891 13.62C77.5291 13.62 77.0437 13.424 76.6331 13.032C76.2411 12.6213 76.0451 12.136 76.0451 11.576C76.0451 11.016 76.2411 10.54 76.6331 10.148C77.0437 9.756 77.5291 9.56 78.0891 9.56C78.6491 9.56 79.1251 9.756 79.5171 10.148C79.9277 10.54 80.1331 11.016 80.1331 11.576C80.1331 12.136 79.9277 12.6213 79.5171 13.032C79.1251 13.424 78.6491 13.62 78.0891 13.62ZM76.5771 30V15.72H79.6011V30H76.5771ZM91.2691 30.448C90.1677 30.448 89.2157 30.2147 88.4131 29.748C87.6291 29.2627 87.0504 28.712 86.6771 28.096H86.5091V30H83.6531V9.952H86.6771V15.664L86.5091 17.652H86.6771C87.0504 17.036 87.6291 16.4853 88.4131 16C89.2157 15.5147 90.1677 15.272 91.2691 15.272C92.5757 15.272 93.7424 15.5987 94.7691 16.252C95.7957 16.9053 96.6077 17.8013 97.2051 18.94C97.8211 20.0787 98.1291 21.3853 98.1291 22.86C98.1291 24.3347 97.8211 25.6507 97.2051 26.808C96.6077 27.9467 95.7957 28.8427 94.7691 29.496C93.7424 30.1307 92.5757 30.448 91.2691 30.448ZM90.8211 27.676C91.5677 27.676 92.2677 27.48 92.9211 27.088C93.5744 26.696 94.1064 26.1453 94.5171 25.436C94.9277 24.708 95.1331 23.8493 95.1331 22.86C95.1331 21.8707 94.9277 21.0213 94.5171 20.312C94.1064 19.584 93.5744 19.024 92.9211 18.632C92.2677 18.24 91.5677 18.044 90.8211 18.044C90.0744 18.044 89.3744 18.24 88.7211 18.632C88.0677 19.024 87.5357 19.584 87.1251 20.312C86.7144 21.0213 86.5091 21.8707 86.5091 22.86C86.5091 23.8493 86.7144 24.708 87.1251 25.436C87.5357 26.1453 88.0677 26.696 88.7211 27.088C89.3744 27.48 90.0744 27.676 90.8211 27.676ZM102.806 13.62C102.246 13.62 101.761 13.424 101.35 13.032C100.958 12.6213 100.762 12.136 100.762 11.576C100.762 11.016 100.958 10.54 101.35 10.148C101.761 9.756 102.246 9.56 102.806 9.56C103.366 9.56 103.842 9.756 104.234 10.148C104.645 10.54 104.85 11.016 104.85 11.576C104.85 12.136 104.645 12.6213 104.234 13.032C103.842 13.424 103.366 13.62 102.806 13.62ZM101.294 30V15.72H104.318V30H101.294ZM108.37 30V15.72H111.226V17.82H111.394C111.712 17.092 112.253 16.4947 113.018 16.028C113.802 15.5427 114.642 15.3 115.538 15.3C115.93 15.3 116.257 15.328 116.518 15.384C116.798 15.44 117.05 15.5053 117.274 15.58V18.716C116.92 18.5667 116.556 18.4453 116.182 18.352C115.828 18.2587 115.454 18.212 115.062 18.212C114.353 18.212 113.718 18.408 113.158 18.8C112.617 19.1733 112.188 19.6867 111.87 20.34C111.553 20.9747 111.394 21.6747 111.394 22.44V30H108.37ZM124.57 30.448C122.852 30.448 121.48 30.0747 120.454 29.328C119.427 28.5627 118.718 27.6573 118.326 26.612L121.042 25.436C121.378 26.2013 121.863 26.7893 122.498 27.2C123.132 27.592 123.851 27.788 124.654 27.788C125.4 27.788 126.044 27.6573 126.586 27.396C127.127 27.116 127.398 26.668 127.398 26.052C127.398 25.4547 127.127 25.016 126.586 24.736C126.044 24.456 125.372 24.2133 124.57 24.008L122.862 23.616C122.171 23.448 121.527 23.1867 120.93 22.832C120.332 22.4773 119.847 22.02 119.474 21.46C119.1 20.8813 118.914 20.2093 118.914 19.444C118.914 18.604 119.166 17.876 119.67 17.26C120.174 16.6253 120.836 16.14 121.658 15.804C122.498 15.4493 123.403 15.272 124.374 15.272C125.699 15.272 126.856 15.5333 127.846 16.056C128.854 16.56 129.591 17.3253 130.058 18.352L127.454 19.528C127.118 18.8933 126.679 18.4547 126.138 18.212C125.615 17.9507 125.036 17.82 124.402 17.82C123.692 17.82 123.095 17.9693 122.61 18.268C122.143 18.5667 121.91 18.94 121.91 19.388C121.91 19.8733 122.115 20.256 122.526 20.536C122.955 20.816 123.478 21.04 124.094 21.208L126.166 21.712C127.584 22.0667 128.648 22.608 129.358 23.336C130.067 24.0453 130.422 24.9133 130.422 25.94C130.422 26.8547 130.16 27.6573 129.638 28.348C129.115 29.02 128.406 29.5427 127.51 29.916C126.632 30.2707 125.652 30.448 124.57 30.448ZM140.022 30.448C138.622 30.448 137.371 30.1213 136.27 29.468C135.168 28.8147 134.3 27.9187 133.666 26.78C133.05 25.6413 132.742 24.344 132.742 22.888C132.742 21.5253 133.04 20.2653 133.638 19.108C134.235 17.9507 135.066 17.0267 136.13 16.336C137.212 15.6267 138.454 15.272 139.854 15.272C141.328 15.272 142.579 15.5893 143.606 16.224C144.651 16.8587 145.444 17.7267 145.986 18.828C146.527 19.9293 146.798 21.1707 146.798 22.552C146.798 22.7573 146.788 22.944 146.77 23.112C146.77 23.28 146.76 23.4107 146.742 23.504H135.71C135.859 24.9227 136.354 25.9867 137.194 26.696C138.052 27.4053 139.023 27.76 140.106 27.76C141.076 27.76 141.879 27.5453 142.514 27.116C143.148 26.668 143.652 26.1173 144.026 25.464L146.518 26.668C145.902 27.788 145.062 28.7027 143.998 29.412C142.934 30.1027 141.608 30.448 140.022 30.448ZM139.882 17.848C138.874 17.848 138.015 18.156 137.306 18.772C136.596 19.388 136.12 20.2093 135.878 21.236H143.802C143.764 20.7507 143.606 20.2467 143.326 19.724C143.046 19.2013 142.616 18.7627 142.038 18.408C141.478 18.0347 140.759 17.848 139.882 17.848ZM163.346 30.448C161.909 30.448 160.64 30.1213 159.538 29.468C158.437 28.8147 157.569 27.9187 156.934 26.78C156.3 25.6227 155.982 24.316 155.982 22.86C155.982 21.404 156.3 20.1067 156.934 18.968C157.569 17.8107 158.437 16.9053 159.538 16.252C160.64 15.5987 161.909 15.272 163.346 15.272C164.933 15.272 166.268 15.6267 167.35 16.336C168.452 17.0453 169.236 18.0067 169.702 19.22L166.958 20.34C166.305 18.8093 165.082 18.044 163.29 18.044C162.506 18.044 161.788 18.2493 161.134 18.66C160.481 19.052 159.958 19.612 159.566 20.34C159.174 21.0493 158.978 21.8893 158.978 22.86C158.978 23.8307 159.174 24.68 159.566 25.408C159.958 26.136 160.481 26.696 161.134 27.088C161.788 27.48 162.506 27.676 163.29 27.676C164.205 27.676 164.98 27.4707 165.614 27.06C166.249 26.6307 166.744 26.052 167.098 25.324L169.786 26.5C169.282 27.6387 168.48 28.5813 167.378 29.328C166.277 30.0747 164.933 30.448 163.346 30.448ZM179.262 30.448C177.787 30.448 176.49 30.112 175.37 29.44C174.25 28.768 173.373 27.8627 172.738 26.724C172.103 25.5853 171.786 24.2973 171.786 22.86C171.786 21.4413 172.103 20.1627 172.738 19.024C173.373 17.8667 174.25 16.952 175.37 16.28C176.49 15.608 177.787 15.272 179.262 15.272C180.718 15.272 182.006 15.608 183.126 16.28C184.246 16.952 185.123 17.8667 185.758 19.024C186.393 20.1627 186.71 21.4413 186.71 22.86C186.71 24.2973 186.393 25.5853 185.758 26.724C185.123 27.8627 184.246 28.768 183.126 29.44C182.006 30.112 180.718 30.448 179.262 30.448ZM179.262 27.676C180.046 27.676 180.774 27.4893 181.446 27.116C182.118 26.724 182.659 26.1733 183.07 25.464C183.499 24.736 183.714 23.868 183.714 22.86C183.714 21.852 183.499 20.9933 183.07 20.284C182.659 19.556 182.118 19.0053 181.446 18.632C180.774 18.24 180.046 18.044 179.262 18.044C178.478 18.044 177.741 18.24 177.05 18.632C176.378 19.0053 175.827 19.556 175.398 20.284C174.987 20.9933 174.782 21.852 174.782 22.86C174.782 23.868 174.987 24.736 175.398 25.464C175.827 26.1733 176.378 26.724 177.05 27.116C177.741 27.4893 178.478 27.676 179.262 27.676ZM189.522 30V15.72H192.378V17.68H192.546C192.956 16.9893 193.563 16.42 194.366 15.972C195.187 15.5053 196.083 15.272 197.054 15.272C198.808 15.272 200.124 15.7947 201.002 16.84C201.879 17.8853 202.318 19.2667 202.318 20.984V30H199.322V21.376C199.322 20.2187 199.032 19.3787 198.454 18.856C197.875 18.3147 197.119 18.044 196.186 18.044C195.458 18.044 194.823 18.2493 194.282 18.66C193.74 19.052 193.311 19.5747 192.994 20.228C192.695 20.8813 192.546 21.5813 192.546 22.328V30H189.522Z" fill="#3C4043"/>
<g id="GPay Logo (Light)">
<g id="GPay">
<g id="Pay">
<path id="Fill 1" fill-rule="evenodd" clip-rule="evenodd" d="M254.529 9.44664V17.6128H259.565C260.765 17.6128 261.757 17.2096 262.541 16.4032C263.347 15.5988 263.75 14.6394 263.75 13.5288C263.75 12.4406 263.347 11.4924 262.541 10.686C261.757 9.85915 260.765 9.44478 259.565 9.44478H254.529V9.44664ZM254.529 20.4872V29.9599H251.521V6.57217H259.499C261.527 6.57217 263.248 7.24786 264.666 8.59737C266.105 9.94688 266.824 11.5913 266.824 13.5288C266.824 15.511 266.105 17.1667 264.666 18.4938C263.27 19.8227 261.547 20.4854 259.499 20.4854H254.529V20.4872Z" fill="#5F6368"/>
<path id="Fill 3" fill-rule="evenodd" clip-rule="evenodd" d="M269.864 25.0602C269.864 25.8442 270.197 26.4975 270.862 27.0201C271.527 27.5427 272.306 27.804 273.2 27.804C274.465 27.804 275.591 27.3354 276.584 26.4004C277.576 25.4634 278.071 24.364 278.071 23.1022C277.133 22.3612 275.825 21.9916 274.147 21.9916C272.925 21.9916 271.907 22.2865 271.09 22.8745C270.273 23.4623 269.864 24.1886 269.864 25.0602ZM273.756 13.4317C275.98 13.4317 277.735 14.0252 279.022 15.2124C280.308 16.3995 280.95 18.0271 280.95 20.0952V29.9599H278.073V27.7387H277.942C276.699 29.5677 275.042 30.4825 272.972 30.4825C271.206 30.4825 269.728 29.9599 268.541 28.9146C267.353 27.8694 266.759 26.5628 266.759 24.9949C266.759 23.3393 267.385 22.0232 268.638 21.0434C269.892 20.0635 271.565 19.5726 273.658 19.5726C275.444 19.5726 276.916 19.8992 278.071 20.5525V19.8656C278.071 18.8204 277.656 17.9338 276.829 17.204C275.999 16.4741 275.031 16.1102 273.919 16.1102C272.239 16.1102 270.911 16.8176 269.93 18.2343L267.28 16.5675C268.741 14.4769 270.899 13.4317 273.756 13.4317Z" fill="#5F6368"/>
<path id="Fill 5" fill-rule="evenodd" clip-rule="evenodd" d="M297.463 13.9543L287.424 37.0154H284.318L288.046 28.9464L281.44 13.9543H284.71L289.484 25.4522H289.55L294.193 13.9543H297.463Z" fill="#5F6368"/>
</g>
<g id="G">
<path id="Fill 8" fill-rule="evenodd" clip-rule="evenodd" d="M242.373 18.4452C242.373 17.4989 242.293 16.5861 242.141 15.7126H229.454V20.8885H236.72C236.408 22.5757 235.465 24.0112 234.033 24.9725V28.3341H238.37C240.91 25.9935 242.373 22.5348 242.373 18.4452Z" fill="#4285F4"/>
<path id="Fill 10" fill-rule="evenodd" clip-rule="evenodd" d="M229.454 31.5782C233.084 31.5782 236.141 30.3873 238.37 28.3341L234.033 24.9725C232.826 25.7844 231.272 26.2585 229.454 26.2585C225.944 26.2585 222.966 23.8955 221.901 20.7112H217.433V24.1736C219.647 28.5637 224.197 31.5782 229.454 31.5782Z" fill="#34A853"/>
<path id="Fill 12" fill-rule="evenodd" clip-rule="evenodd" d="M221.901 20.7111C221.628 19.8992 221.479 19.0331 221.479 18.139C221.479 17.245 221.628 16.3789 221.901 15.567V12.1045H217.433C216.518 13.9188 216 15.9683 216 18.139C216 20.3098 216.518 22.3595 217.433 24.1736L221.901 20.7111Z" fill="#FABB05"/>
<path id="Fill 14" fill-rule="evenodd" clip-rule="evenodd" d="M229.454 10.0196C231.436 10.0196 233.213 10.7009 234.615 12.0355V12.0374L238.455 8.20162C236.123 6.03271 233.082 4.7 229.454 4.7C224.197 4.7 219.647 7.71446 217.433 12.1046L221.901 15.567C222.966 12.3827 225.944 10.0196 229.454 10.0196Z" fill="#E94235"/>
</g>
</g>
</g>
</g>
</svg>
