<svg width="170" height="21" viewBox="0 0 170 21" fill="none" xmlns="http://www.w3.org/2000/svg">
<g id="es_subscribe_with_Pay_NBG">
<path id="Left Text" d="M4.75838 15.2566C4.15038 15.2566 3.56904 15.1393 3.01438 14.9046C2.45971 14.6593 1.96904 14.3019 1.54238 13.8326C1.12638 13.3633 0.817043 12.7819 0.614377 12.0886L2.27838 11.4166C2.44904 12.0353 2.74771 12.5526 3.17438 12.9686C3.60104 13.3846 4.13438 13.5926 4.77438 13.5926C5.13704 13.5926 5.47304 13.5286 5.78238 13.4006C6.10238 13.2726 6.35838 13.0859 6.55038 12.8406C6.74238 12.5846 6.83838 12.2753 6.83838 11.9126C6.83838 11.5713 6.75838 11.2833 6.59838 11.0486C6.43838 10.8033 6.18238 10.5846 5.83038 10.3926C5.47838 10.1899 5.03038 9.99261 4.48638 9.80061L3.76638 9.54461C3.45704 9.42728 3.14238 9.28328 2.82238 9.11261C2.50238 8.94194 2.20371 8.73394 1.92638 8.48861C1.65971 8.23261 1.44638 7.93394 1.28638 7.59261C1.12638 7.25128 1.04638 6.85661 1.04638 6.40861C1.04638 5.83261 1.19571 5.30994 1.49438 4.84061C1.80371 4.37128 2.22504 3.99794 2.75838 3.72061C3.30238 3.43261 3.93171 3.28861 4.64638 3.28861C5.38238 3.28861 5.99571 3.42194 6.48638 3.68861C6.98771 3.94461 7.37704 4.25394 7.65438 4.61661C7.94238 4.97928 8.13971 5.32594 8.24638 5.65661L6.66238 6.32861C6.59838 6.10461 6.48104 5.88594 6.31038 5.67261C6.15038 5.45928 5.93171 5.28328 5.65438 5.14461C5.38771 4.99528 5.05704 4.92061 4.66238 4.92061C4.32104 4.92061 4.00638 4.98461 3.71838 5.11261C3.44104 5.24061 3.21704 5.41661 3.04638 5.64061C2.87571 5.85394 2.79038 6.10461 2.79038 6.39261C2.79038 6.80861 2.96104 7.14994 3.30238 7.41661C3.64371 7.67261 4.13971 7.90728 4.79038 8.12061L5.52638 8.37661C5.89971 8.50461 6.26771 8.65928 6.63038 8.84061C6.99304 9.01128 7.32371 9.23528 7.62238 9.51261C7.92104 9.77928 8.15571 10.1099 8.32638 10.5046C8.50771 10.8886 8.59838 11.3473 8.59838 11.8806C8.59838 12.4673 8.48104 12.9793 8.24638 13.4166C8.02238 13.8433 7.71838 14.1953 7.33438 14.4726C6.96104 14.7393 6.54504 14.9366 6.08638 15.0646C5.63838 15.1926 5.19571 15.2566 4.75838 15.2566ZM13.2211 15.2566C12.2185 15.2566 11.4611 14.9579 10.9491 14.3606C10.4478 13.7526 10.1971 12.9313 10.1971 11.8966V6.84061H11.9251V11.6566C11.9251 12.3393 12.0851 12.8459 12.4051 13.1766C12.7358 13.5073 13.1465 13.6726 13.6371 13.6726C14.0851 13.6726 14.4691 13.5606 14.7891 13.3366C15.1091 13.1019 15.3545 12.7979 15.5251 12.4246C15.7065 12.0513 15.7971 11.6513 15.7971 11.2246V6.84061H17.5091V15.0006H15.8931V13.8966H15.7971C15.6478 14.1526 15.4398 14.3819 15.1731 14.5846C14.9065 14.7873 14.6078 14.9473 14.2771 15.0646C13.9465 15.1926 13.5945 15.2566 13.2211 15.2566ZM22.5903 15.2566C21.9396 15.2566 21.3743 15.1606 20.8943 14.9686C20.4143 14.7659 20.0196 14.4993 19.7103 14.1686C19.4009 13.8273 19.1716 13.4593 19.0223 13.0646L20.5743 12.3926C20.7663 12.8299 21.0383 13.1659 21.3903 13.4006C21.7529 13.6246 22.1689 13.7366 22.6383 13.7366C23.0649 13.7366 23.4329 13.6619 23.7423 13.5126C24.0516 13.3526 24.2063 13.0966 24.2063 12.7446C24.2063 12.5206 24.1316 12.3393 23.9823 12.2006C23.8436 12.0513 23.6516 11.9286 23.4063 11.8326C23.1716 11.7366 22.8996 11.6513 22.5903 11.5766L21.6143 11.3526C21.2303 11.2566 20.8623 11.1073 20.5103 10.9046C20.1689 10.6913 19.8916 10.4246 19.6783 10.1046C19.4649 9.78461 19.3583 9.40594 19.3583 8.96861C19.3583 8.47794 19.4969 8.05661 19.7743 7.70461C20.0623 7.34194 20.4463 7.06461 20.9263 6.87261C21.4063 6.68061 21.9236 6.58461 22.4783 6.58461C22.9903 6.58461 23.4543 6.65394 23.8703 6.79261C24.2969 6.92061 24.6649 7.11794 24.9743 7.38461C25.2943 7.64061 25.5449 7.96061 25.7263 8.34461L24.2383 9.01661C24.0569 8.65394 23.8116 8.40328 23.5023 8.26461C23.1929 8.11528 22.8569 8.04061 22.4943 8.04061C22.0889 8.04061 21.7476 8.12594 21.4703 8.29661C21.2036 8.45661 21.0703 8.66994 21.0703 8.93661C21.0703 9.21394 21.1876 9.43261 21.4223 9.59261C21.6676 9.75261 21.9663 9.88061 22.3183 9.97661L23.5023 10.2646C24.3129 10.4673 24.9209 10.7766 25.3263 11.1926C25.7316 11.5979 25.9343 12.0939 25.9343 12.6806C25.9343 13.2033 25.7849 13.6619 25.4863 14.0566C25.1876 14.4406 24.7823 14.7393 24.2703 14.9526C23.7689 15.1553 23.2089 15.2566 22.5903 15.2566ZM31.4465 15.2566C30.6252 15.2566 29.8945 15.0699 29.2545 14.6966C28.6252 14.3233 28.1292 13.8113 27.7665 13.1606C27.4145 12.4993 27.2385 11.7526 27.2385 10.9206C27.2385 10.0886 27.4145 9.34728 27.7665 8.69661C28.1292 8.04594 28.6252 7.53394 29.2545 7.16061C29.8945 6.77661 30.6252 6.58461 31.4465 6.58461C32.3532 6.58461 33.1158 6.78728 33.7345 7.19261C34.3638 7.59794 34.8118 8.14728 35.0785 8.84061L33.5105 9.48061C33.3185 9.04328 33.0412 8.71794 32.6785 8.50461C32.3265 8.28061 31.9052 8.16861 31.4145 8.16861C30.9665 8.16861 30.5558 8.28594 30.1825 8.52061C29.8092 8.74461 29.5105 9.05928 29.2865 9.46461C29.0625 9.86994 28.9505 10.3553 28.9505 10.9206C28.9505 11.4753 29.0625 11.9606 29.2865 12.3766C29.5105 12.7926 29.8092 13.1126 30.1825 13.3366C30.5558 13.5606 30.9665 13.6726 31.4145 13.6726C31.9372 13.6726 32.3798 13.5553 32.7425 13.3206C33.1052 13.0859 33.3878 12.7553 33.5905 12.3286L35.1265 13.0006C34.8278 13.6513 34.3638 14.1899 33.7345 14.6166C33.1158 15.0433 32.3532 15.2566 31.4465 15.2566ZM36.6799 15.0006V6.84061H38.3119V8.04061H38.4079C38.5359 7.76328 38.7172 7.51794 38.9519 7.30461C39.1972 7.09128 39.4745 6.92061 39.7839 6.79261C40.1039 6.66461 40.4345 6.60061 40.7759 6.60061C40.9999 6.60061 41.1865 6.61661 41.3359 6.64861C41.4959 6.66994 41.6399 6.70728 41.7679 6.76061V8.55261C41.5652 8.46728 41.3572 8.39794 41.1439 8.34461C40.9412 8.29128 40.7279 8.26461 40.5039 8.26461C40.0985 8.26461 39.7359 8.37661 39.4159 8.60061C39.1065 8.81394 38.8612 9.10194 38.6799 9.46461C38.4985 9.82728 38.4079 10.2326 38.4079 10.6806V15.0006H36.6799ZM43.3798 15.0006V6.84061H45.1078V15.0006H43.3798ZM44.2438 5.64061C43.9238 5.64061 43.6464 5.52861 43.4118 5.30461C43.1878 5.06994 43.0758 4.79261 43.0758 4.47261C43.0758 4.14194 43.1878 3.86994 43.4118 3.65661C43.6464 3.43261 43.9238 3.32061 44.2438 3.32061C44.5744 3.32061 44.8518 3.43261 45.0758 3.65661C45.2998 3.86994 45.4118 4.14194 45.4118 4.47261C45.4118 4.79261 45.2998 5.06994 45.0758 5.30461C44.8518 5.52861 44.5744 5.64061 44.2438 5.64061ZM51.7538 15.2566C51.3378 15.2566 50.9591 15.1926 50.6178 15.0646C50.2764 14.9366 49.9778 14.7713 49.7218 14.5686C49.4764 14.3553 49.2791 14.1366 49.1298 13.9126H49.0338V15.0006H47.4018V3.54461H49.1298V6.80861L49.0338 7.94461H49.1298C49.2791 7.70994 49.4764 7.49128 49.7218 7.28861C49.9778 7.07528 50.2764 6.90461 50.6178 6.77661C50.9591 6.64861 51.3378 6.58461 51.7538 6.58461C52.5004 6.58461 53.1671 6.77128 53.7538 7.14461C54.3404 7.51794 54.8044 8.02994 55.1458 8.68061C55.4978 9.33128 55.6738 10.0779 55.6738 10.9206C55.6738 11.7633 55.4978 12.5099 55.1458 13.1606C54.8044 13.8113 54.3404 14.3233 53.7538 14.6966C53.1671 15.0699 52.5004 15.2566 51.7538 15.2566ZM51.4978 13.6726C51.9244 13.6726 52.3244 13.5606 52.6978 13.3366C53.0818 13.1126 53.3858 12.7926 53.6098 12.3766C53.8444 11.9606 53.9618 11.4753 53.9618 10.9206C53.9618 10.3553 53.8444 9.86994 53.6098 9.46461C53.3858 9.04861 53.0818 8.72861 52.6978 8.50461C52.3244 8.28061 51.9244 8.16861 51.4978 8.16861C51.0711 8.16861 50.6711 8.28061 50.2978 8.50461C49.9244 8.72861 49.6204 9.04861 49.3858 9.46461C49.1511 9.86994 49.0338 10.3553 49.0338 10.9206C49.0338 11.4859 49.1511 11.9766 49.3858 12.3926C49.6204 12.7979 49.9244 13.1126 50.2978 13.3366C50.6711 13.5606 51.0711 13.6726 51.4978 13.6726ZM57.461 15.0006V6.84061H59.189V15.0006H57.461ZM58.325 5.64061C58.005 5.64061 57.7277 5.52861 57.493 5.30461C57.269 5.06994 57.157 4.79261 57.157 4.47261C57.157 4.14194 57.269 3.86994 57.493 3.65661C57.7277 3.43261 58.005 3.32061 58.325 3.32061C58.6557 3.32061 58.933 3.43261 59.157 3.65661C59.381 3.86994 59.493 4.14194 59.493 4.47261C59.493 4.79261 59.381 5.06994 59.157 5.30461C58.933 5.52861 58.6557 5.64061 58.325 5.64061ZM61.483 15.0006V6.84061H63.115V8.04061H63.211C63.339 7.76328 63.5203 7.51794 63.755 7.30461C64.0003 7.09128 64.2777 6.92061 64.587 6.79261C64.907 6.66461 65.2377 6.60061 65.579 6.60061C65.803 6.60061 65.9897 6.61661 66.139 6.64861C66.299 6.66994 66.443 6.70728 66.571 6.76061V8.55261C66.3683 8.46728 66.1603 8.39794 65.947 8.34461C65.7443 8.29128 65.531 8.26461 65.307 8.26461C64.9017 8.26461 64.539 8.37661 64.219 8.60061C63.9097 8.81394 63.6643 9.10194 63.483 9.46461C63.3017 9.82728 63.211 10.2326 63.211 10.6806V15.0006H61.483ZM70.7184 15.2566C70.0677 15.2566 69.5024 15.1606 69.0224 14.9686C68.5424 14.7659 68.1477 14.4993 67.8384 14.1686C67.529 13.8273 67.2997 13.4593 67.1504 13.0646L68.7024 12.3926C68.8944 12.8299 69.1664 13.1659 69.5184 13.4006C69.881 13.6246 70.297 13.7366 70.7664 13.7366C71.193 13.7366 71.561 13.6619 71.8704 13.5126C72.1797 13.3526 72.3344 13.0966 72.3344 12.7446C72.3344 12.5206 72.2597 12.3393 72.1104 12.2006C71.9717 12.0513 71.7797 11.9286 71.5344 11.8326C71.2997 11.7366 71.0277 11.6513 70.7184 11.5766L69.7424 11.3526C69.3584 11.2566 68.9904 11.1073 68.6384 10.9046C68.297 10.6913 68.0197 10.4246 67.8064 10.1046C67.593 9.78461 67.4864 9.40594 67.4864 8.96861C67.4864 8.47794 67.625 8.05661 67.9024 7.70461C68.1904 7.34194 68.5744 7.06461 69.0544 6.87261C69.5344 6.68061 70.0517 6.58461 70.6064 6.58461C71.1184 6.58461 71.5824 6.65394 71.9984 6.79261C72.425 6.92061 72.793 7.11794 73.1024 7.38461C73.4224 7.64061 73.673 7.96061 73.8544 8.34461L72.3664 9.01661C72.185 8.65394 71.9397 8.40328 71.6304 8.26461C71.321 8.11528 70.985 8.04061 70.6224 8.04061C70.217 8.04061 69.8757 8.12594 69.5984 8.29661C69.3317 8.45661 69.1984 8.66994 69.1984 8.93661C69.1984 9.21394 69.3157 9.43261 69.5504 9.59261C69.7957 9.75261 70.0944 9.88061 70.4464 9.97661L71.6304 10.2646C72.441 10.4673 73.049 10.7766 73.4544 11.1926C73.8597 11.5979 74.0624 12.0939 74.0624 12.6806C74.0624 13.2033 73.913 13.6619 73.6144 14.0566C73.3157 14.4406 72.9104 14.7393 72.3984 14.9526C71.897 15.1553 71.337 15.2566 70.7184 15.2566ZM79.5266 15.2566C78.7266 15.2566 78.012 15.0699 77.3826 14.6966C76.7533 14.3233 76.2573 13.8113 75.8946 13.1606C75.5426 12.5099 75.3666 11.7686 75.3666 10.9366C75.3666 10.1579 75.5373 9.43794 75.8786 8.77661C76.22 8.11528 76.6946 7.58728 77.3026 7.19261C77.9213 6.78728 78.6306 6.58461 79.4306 6.58461C80.2733 6.58461 80.988 6.76594 81.5746 7.12861C82.172 7.49128 82.6253 7.98728 82.9346 8.61661C83.244 9.24594 83.3986 9.95528 83.3986 10.7446C83.3986 10.8619 83.3933 10.9686 83.3826 11.0646C83.3826 11.1606 83.3773 11.2353 83.3666 11.2886H77.0626C77.1053 11.7366 77.2173 12.1259 77.3986 12.4566C77.6333 12.8726 77.9426 13.1873 78.3266 13.4006C78.7106 13.6139 79.1266 13.7206 79.5746 13.7206C80.1186 13.7206 80.572 13.5979 80.9346 13.3526C81.308 13.0966 81.6013 12.7819 81.8146 12.4086L83.2386 13.0966C82.8866 13.7366 82.4066 14.2593 81.7986 14.6646C81.1906 15.0593 80.4333 15.2566 79.5266 15.2566ZM77.1586 9.99261H81.6866C81.676 9.78994 81.6226 9.57661 81.5266 9.35261C81.4306 9.11794 81.292 8.90461 81.1106 8.71261C80.9293 8.52061 80.7 8.36594 80.4226 8.24861C80.1453 8.12061 79.82 8.05661 79.4466 8.05661C78.9773 8.05661 78.5613 8.17928 78.1986 8.42461C77.836 8.65928 77.5533 8.98994 77.3506 9.41661C77.2653 9.59794 77.2013 9.78994 77.1586 9.99261ZM92.8121 15.2566C91.9908 15.2566 91.2601 15.0699 90.6201 14.6966C89.9908 14.3233 89.4948 13.8113 89.1321 13.1606C88.7801 12.4993 88.6041 11.7526 88.6041 10.9206C88.6041 10.0886 88.7801 9.34728 89.1321 8.69661C89.4948 8.04594 89.9908 7.53394 90.6201 7.16061C91.2601 6.77661 91.9908 6.58461 92.8121 6.58461C93.7188 6.58461 94.4815 6.78728 95.1001 7.19261C95.7295 7.59794 96.1775 8.14728 96.4441 8.84061L94.8761 9.48061C94.6841 9.04328 94.4068 8.71794 94.0441 8.50461C93.6921 8.28061 93.2708 8.16861 92.7801 8.16861C92.3321 8.16861 91.9215 8.28594 91.5481 8.52061C91.1748 8.74461 90.8761 9.05928 90.6521 9.46461C90.4281 9.86994 90.3161 10.3553 90.3161 10.9206C90.3161 11.4753 90.4281 11.9606 90.6521 12.3766C90.8761 12.7926 91.1748 13.1126 91.5481 13.3366C91.9215 13.5606 92.3321 13.6726 92.7801 13.6726C93.3028 13.6726 93.7455 13.5553 94.1081 13.3206C94.4708 13.0859 94.7535 12.7553 94.9561 12.3286L96.4921 13.0006C96.1935 13.6513 95.7295 14.1899 95.1001 14.6166C94.4815 15.0433 93.7188 15.2566 92.8121 15.2566ZM101.885 15.2566C101.043 15.2566 100.301 15.0646 99.6615 14.6806C99.0215 14.2966 98.5202 13.7793 98.1575 13.1286C97.7948 12.4673 97.6135 11.7313 97.6135 10.9206C97.6135 10.1099 97.7948 9.37928 98.1575 8.72861C98.5202 8.06728 99.0215 7.54461 99.6615 7.16061C100.301 6.77661 101.043 6.58461 101.885 6.58461C102.717 6.58461 103.453 6.78194 104.093 7.17661C104.733 7.56061 105.235 8.07794 105.597 8.72861C105.96 9.37928 106.141 10.1099 106.141 10.9206C106.141 11.7313 105.96 12.4673 105.597 13.1286C105.235 13.7793 104.733 14.2966 104.093 14.6806C103.453 15.0646 102.717 15.2566 101.885 15.2566ZM101.885 13.6726C102.333 13.6726 102.749 13.5659 103.133 13.3526C103.517 13.1286 103.827 12.8139 104.061 12.4086C104.307 11.9926 104.429 11.4966 104.429 10.9206C104.429 10.3446 104.307 9.85394 104.061 9.44861C103.827 9.03261 103.517 8.71794 103.133 8.50461C102.749 8.28061 102.333 8.16861 101.885 8.16861C101.437 8.16861 101.016 8.28061 100.621 8.50461C100.237 8.71794 99.9228 9.03261 99.6775 9.44861C99.4428 9.85394 99.3255 10.3446 99.3255 10.9206C99.3255 11.4966 99.4428 11.9926 99.6775 12.4086C99.9228 12.8139 100.243 13.1286 100.637 13.3526C101.032 13.5659 101.448 13.6726 101.885 13.6726ZM107.727 15.0006V6.84061H109.359V7.96061H109.455C109.689 7.56594 110.036 7.24061 110.495 6.98461C110.964 6.71794 111.476 6.58461 112.031 6.58461C113.033 6.58461 113.785 6.88328 114.287 7.48061C114.788 8.06728 115.039 8.85661 115.039 9.84861V15.0006H113.327V10.0726C113.327 9.41128 113.161 8.93128 112.831 8.63261C112.5 8.32328 112.068 8.16861 111.535 8.16861C111.119 8.16861 110.756 8.28594 110.447 8.52061C110.137 8.74461 109.892 9.04328 109.711 9.41661C109.54 9.78994 109.455 10.1899 109.455 10.6166V15.0006H107.727Z" fill="white"/>
<g id="GPay (Dark)">
<g id="GPay">
<g id="Pay">
<path id="Fill 1" fill-rule="evenodd" clip-rule="evenodd" d="M144.356 3.42339V8.16175H147.278C147.974 8.16175 148.55 7.92781 149.005 7.45993C149.473 6.99313 149.707 6.43644 149.707 5.79203C149.707 5.16061 149.473 4.61041 149.005 4.14254C148.55 3.66274 147.974 3.4223 147.278 3.4223H144.356V3.42339ZM144.356 9.82966V15.3262H142.611V1.75549H147.24C148.417 1.75549 149.415 2.14756 150.238 2.93061C151.073 3.71365 151.491 4.66782 151.491 5.79203C151.491 6.94224 151.073 7.90291 150.238 8.67296C149.428 9.44409 148.429 9.82858 147.24 9.82858H144.356V9.82966Z" fill="white"/>
<path id="Fill 3" fill-rule="evenodd" clip-rule="evenodd" d="M153.255 12.4831C153.255 12.9379 153.448 13.317 153.834 13.6203C154.22 13.9235 154.672 14.0752 155.19 14.0752C155.924 14.0752 156.578 13.8032 157.153 13.2607C157.729 12.717 158.017 12.0791 158.017 11.3469C157.472 10.917 156.713 10.7025 155.74 10.7025C155.031 10.7025 154.44 10.8736 153.966 11.2148C153.492 11.5559 153.255 11.9773 153.255 12.4831M155.513 5.73566C156.803 5.73566 157.821 6.08007 158.569 6.76889C159.314 7.45771 159.687 8.40213 159.687 9.60216V15.3261H158.018V14.0373H157.942C157.221 15.0985 156.259 15.6294 155.058 15.6294C154.033 15.6294 153.176 15.3261 152.487 14.7196C151.797 14.1131 151.453 13.3549 151.453 12.4452C151.453 11.4845 151.816 10.7208 152.543 10.1523C153.271 9.58375 154.241 9.2989 155.456 9.2989C156.492 9.2989 157.346 9.48844 158.017 9.86751V9.46894C158.017 8.86243 157.776 8.34798 157.296 7.92451C156.814 7.50103 156.252 7.28984 155.607 7.28984C154.633 7.28984 153.862 7.70032 153.293 8.52235L151.755 7.55519C152.603 6.34217 153.855 5.73566 155.513 5.73566" fill="white"/>
<path id="Fill 5" fill-rule="evenodd" clip-rule="evenodd" d="M169.269 6.03894L163.443 19.4201H161.641L163.804 14.738L159.971 6.03894H161.869L164.639 12.7106H164.677L167.371 6.03894H169.269Z" fill="white"/>
</g>
<g id="G">
<path id="Fill 8" fill-rule="evenodd" clip-rule="evenodd" d="M137.303 8.64473C137.303 8.09563 137.256 7.56601 137.168 7.05914H129.806V10.0625H134.023C133.842 11.0414 133.294 11.8744 132.464 12.4322V14.3828H134.98C136.454 13.0246 137.303 11.0177 137.303 8.64473" fill="#4285F4"/>
<path id="Fill 10" fill-rule="evenodd" clip-rule="evenodd" d="M129.806 16.2651C131.913 16.2651 133.687 15.5741 134.98 14.3828L132.464 12.4322C131.763 12.9033 130.861 13.1784 129.806 13.1784C127.77 13.1784 126.042 11.8073 125.424 9.95959H122.832V11.9687C124.116 14.516 126.757 16.2651 129.806 16.2651" fill="#34A853"/>
<path id="Fill 12" fill-rule="evenodd" clip-rule="evenodd" d="M125.424 9.9596C125.266 9.48847 125.179 8.98593 125.179 8.46715C125.179 7.94837 125.266 7.44583 125.424 6.9747V4.96564H122.832C122.3 6.01837 122 7.20756 122 8.46715C122 9.72674 122.3 10.916 122.832 11.9687L125.424 9.9596Z" fill="#FABB05"/>
<path id="Fill 14" fill-rule="evenodd" clip-rule="evenodd" d="M129.806 3.75583C130.957 3.75583 131.988 4.15115 132.801 4.92553V4.92661L135.029 2.70094C133.676 1.44243 131.912 0.669128 129.806 0.669128C126.757 0.669128 124.116 2.41826 122.832 4.9656L125.424 6.97467C126.042 5.12698 127.77 3.75583 129.806 3.75583" fill="#E94235"/>
</g>
</g>
</g>
</g>
</svg>
