<svg width="180" height="38" viewBox="0 0 180 38" fill="none" xmlns="http://www.w3.org/2000/svg">
<g id="es_view_in_Dark">
<path id="Text" d="M9.04306 30L1.93106 9.952H5.29106L9.82706 23.28L10.5271 25.548H10.6951L11.4511 23.28L16.1831 9.952H19.5431L12.2351 30H9.04306ZM26.8614 30.448C25.4614 30.448 24.2108 30.1213 23.1094 29.468C22.0081 28.8147 21.1401 27.9187 20.5054 26.78C19.8894 25.6413 19.5814 24.344 19.5814 22.888C19.5814 21.5253 19.8801 20.2653 20.4774 19.108C21.0748 17.9507 21.9054 17.0267 22.9694 16.336C24.0521 15.6267 25.2934 15.272 26.6934 15.272C28.1681 15.272 29.4188 15.5893 30.4454 16.224C31.4908 16.8587 32.2841 17.7267 32.8254 18.828C33.3668 19.9293 33.6374 21.1707 33.6374 22.552C33.6374 22.7573 33.6281 22.944 33.6094 23.112C33.6094 23.28 33.6001 23.4107 33.5814 23.504H22.5494C22.6988 24.9227 23.1934 25.9867 24.0334 26.696C24.8921 27.4053 25.8628 27.76 26.9454 27.76C27.9161 27.76 28.7188 27.5453 29.3534 27.116C29.9881 26.668 30.4921 26.1173 30.8654 25.464L33.3574 26.668C32.7414 27.788 31.9014 28.7027 30.8374 29.412C29.7734 30.1027 28.4481 30.448 26.8614 30.448ZM26.7214 17.848C25.7134 17.848 24.8548 18.156 24.1454 18.772C23.4361 19.388 22.9601 20.2093 22.7174 21.236H30.6414C30.6041 20.7507 30.4454 20.2467 30.1654 19.724C29.8854 19.2013 29.4561 18.7627 28.8774 18.408C28.3174 18.0347 27.5988 17.848 26.7214 17.848ZM36.7429 30V15.72H39.5989V17.82H39.7669C40.0842 17.092 40.6256 16.4947 41.3909 16.028C42.1749 15.5427 43.0149 15.3 43.9109 15.3C44.3029 15.3 44.6296 15.328 44.8909 15.384C45.1709 15.44 45.4229 15.5053 45.6469 15.58V18.716C45.2922 18.5667 44.9282 18.4453 44.5549 18.352C44.2002 18.2587 43.8269 18.212 43.4349 18.212C42.7256 18.212 42.0909 18.408 41.5309 18.8C40.9896 19.1733 40.5602 19.6867 40.2429 20.34C39.9256 20.9747 39.7669 21.6747 39.7669 22.44V30H36.7429ZM61.6403 30.448C60.2403 30.448 58.9897 30.1213 57.8883 29.468C56.787 28.8147 55.919 27.9187 55.2843 26.78C54.6683 25.6413 54.3603 24.344 54.3603 22.888C54.3603 21.5253 54.659 20.2653 55.2563 19.108C55.8537 17.9507 56.6843 17.0267 57.7483 16.336C58.831 15.6267 60.0723 15.272 61.4723 15.272C62.947 15.272 64.1977 15.5893 65.2243 16.224C66.2697 16.8587 67.063 17.7267 67.6043 18.828C68.1457 19.9293 68.4163 21.1707 68.4163 22.552C68.4163 22.7573 68.407 22.944 68.3883 23.112C68.3883 23.28 68.379 23.4107 68.3603 23.504H57.3283C57.4777 24.9227 57.9723 25.9867 58.8123 26.696C59.671 27.4053 60.6417 27.76 61.7243 27.76C62.695 27.76 63.4977 27.5453 64.1323 27.116C64.767 26.668 65.271 26.1173 65.6443 25.464L68.1363 26.668C67.5203 27.788 66.6803 28.7027 65.6163 29.412C64.5523 30.1027 63.227 30.448 61.6403 30.448ZM61.5003 17.848C60.4923 17.848 59.6337 18.156 58.9243 18.772C58.215 19.388 57.739 20.2093 57.4963 21.236H65.4203C65.383 20.7507 65.2243 20.2467 64.9443 19.724C64.6643 19.2013 64.235 18.7627 63.6563 18.408C63.0963 18.0347 62.3777 17.848 61.5003 17.848ZM71.5218 30V15.72H74.3778V17.68H74.5458C74.9565 16.9893 75.5631 16.42 76.3658 15.972C77.1871 15.5053 78.0831 15.272 79.0538 15.272C80.8085 15.272 82.1245 15.7947 83.0018 16.84C83.8791 17.8853 84.3178 19.2667 84.3178 20.984V30H81.3218V21.376C81.3218 20.2187 81.0325 19.3787 80.4538 18.856C79.8751 18.3147 79.1191 18.044 78.1858 18.044C77.4578 18.044 76.8231 18.2493 76.2818 18.66C75.7405 19.052 75.3111 19.5747 74.9938 20.228C74.6951 20.8813 74.5458 21.5813 74.5458 22.328V30H71.5218Z" fill="white"/>
<g id="GPay Logo (Dark)">
<g id="GPay">
<g id="Pay">
<path id="Fill 1" fill-rule="evenodd" clip-rule="evenodd" d="M136.529 9.34665V17.5128H141.565C142.765 17.5128 143.757 17.1096 144.541 16.3032C145.347 15.4988 145.75 14.5394 145.75 13.4288C145.75 12.3406 145.347 11.3924 144.541 10.586C143.757 9.75916 142.765 9.34479 141.565 9.34479H136.529V9.34665ZM136.529 20.3872V29.8599H133.521V6.47218H141.499C143.527 6.47218 145.248 7.14787 146.666 8.49738C148.105 9.84688 148.824 11.4913 148.824 13.4288C148.824 15.411 148.105 17.0667 146.666 18.3938C145.27 19.7227 143.547 20.3854 141.499 20.3854H136.529V20.3872Z" fill="white"/>
<path id="Fill 3" fill-rule="evenodd" clip-rule="evenodd" d="M151.864 24.9602C151.864 25.7442 152.197 26.3975 152.862 26.9201C153.527 27.4427 154.306 27.704 155.2 27.704C156.465 27.704 157.591 27.2354 158.584 26.3004C159.576 25.3634 160.071 24.264 160.071 23.0022C159.133 22.2612 157.825 21.8916 156.147 21.8916C154.925 21.8916 153.907 22.1866 153.09 22.7745C152.273 23.3623 151.864 24.0886 151.864 24.9602ZM155.756 13.3317C157.98 13.3317 159.735 13.9253 161.022 15.1124C162.308 16.2995 162.95 17.9271 162.95 19.9952V29.8599H160.073V27.6387H159.942C158.699 29.4677 157.042 30.3825 154.972 30.3825C153.206 30.3825 151.728 29.8599 150.541 28.8146C149.353 27.7694 148.759 26.4628 148.759 24.8949C148.759 23.2393 149.385 21.9232 150.638 20.9434C151.892 19.9635 153.565 19.4726 155.658 19.4726C157.444 19.4726 158.916 19.7993 160.071 20.4525V19.7657C160.071 18.7204 159.656 17.8338 158.829 17.104C157.999 16.3742 157.031 16.0102 155.919 16.0102C154.239 16.0102 152.911 16.7176 151.93 18.1343L149.28 16.4675C150.741 14.377 152.899 13.3317 155.756 13.3317Z" fill="white"/>
<path id="Fill 5" fill-rule="evenodd" clip-rule="evenodd" d="M179.463 13.8543L169.424 36.9154H166.318L170.046 28.8464L163.44 13.8543H166.71L171.484 25.3522H171.55L176.193 13.8543H179.463Z" fill="white"/>
</g>
<g id="G">
<path id="Fill 8" fill-rule="evenodd" clip-rule="evenodd" d="M124.373 18.3452C124.373 17.3989 124.293 16.4861 124.141 15.6126H111.454V20.7885H118.72C118.408 22.4757 117.465 23.9112 116.033 24.8725V28.2341H120.37C122.91 25.8935 124.373 22.4348 124.373 18.3452Z" fill="#4285F4"/>
<path id="Fill 10" fill-rule="evenodd" clip-rule="evenodd" d="M111.454 31.4782C115.084 31.4782 118.141 30.2873 120.37 28.2341L116.033 24.8725C114.826 25.6844 113.272 26.1585 111.454 26.1585C107.944 26.1585 104.966 23.7955 103.901 20.6112H99.4331V24.0736C101.647 28.4637 106.197 31.4782 111.454 31.4782Z" fill="#34A853"/>
<path id="Fill 12" fill-rule="evenodd" clip-rule="evenodd" d="M103.901 20.6111C103.628 19.7992 103.479 18.9331 103.479 18.0391C103.479 17.145 103.628 16.2789 103.901 15.467V12.0045H99.4332C98.5176 13.8188 98 15.8683 98 18.0391C98 20.2098 98.5176 22.2595 99.4332 24.0736L103.901 20.6111Z" fill="#FABB05"/>
<path id="Fill 14" fill-rule="evenodd" clip-rule="evenodd" d="M111.454 9.91964C113.436 9.91964 115.213 10.6009 116.615 11.9355V11.9374L120.455 8.10163C118.123 5.93272 115.082 4.60001 111.454 4.60001C106.197 4.60001 101.647 7.61447 99.4331 12.0046L103.901 15.467C104.966 12.2827 107.944 9.91964 111.454 9.91964Z" fill="#E94235"/>
</g>
</g>
</g>
</g>
</svg>
