<svg width="112" height="21" viewBox="0 0 112 21" fill="none" xmlns="http://www.w3.org/2000/svg">
<g id="hr_add_to_Pay_NBG">
<path id="Left Text" d="M1.896 15.0006V3.54461H5.56C6.76533 3.54461 7.8 3.78994 8.664 4.28061C9.53867 4.76061 10.2107 5.43261 10.68 6.29661C11.16 7.16061 11.4 8.15261 11.4 9.27261C11.4 10.3926 11.16 11.3846 10.68 12.2486C10.2107 13.1126 9.53867 13.7899 8.664 14.2806C7.8 14.7606 6.76533 15.0006 5.56 15.0006H1.896ZM3.656 13.3366H5.512C6.376 13.3366 7.11733 13.1766 7.736 12.8566C8.35467 12.5259 8.824 12.0566 9.144 11.4486C9.464 10.8406 9.624 10.1153 9.624 9.27261C9.624 8.42994 9.464 7.70461 9.144 7.09661C8.824 6.48861 8.35467 6.02461 7.736 5.70461C7.11733 5.37394 6.376 5.20861 5.512 5.20861H3.656V13.3366ZM16.8792 15.2566C16.0366 15.2566 15.2952 15.0646 14.6552 14.6806C14.0152 14.2966 13.5139 13.7793 13.1512 13.1286C12.7886 12.4673 12.6072 11.7313 12.6072 10.9206C12.6072 10.1099 12.7886 9.37928 13.1512 8.72861C13.5139 8.06728 14.0152 7.54461 14.6552 7.16061C15.2952 6.77661 16.0366 6.58461 16.8792 6.58461C17.7112 6.58461 18.4472 6.78194 19.0872 7.17661C19.7272 7.56061 20.2286 8.07794 20.5912 8.72861C20.9539 9.37928 21.1352 10.1099 21.1352 10.9206C21.1352 11.7313 20.9539 12.4673 20.5912 13.1286C20.2286 13.7793 19.7272 14.2966 19.0872 14.6806C18.4472 15.0646 17.7112 15.2566 16.8792 15.2566ZM16.8792 13.6726C17.3272 13.6726 17.7432 13.5659 18.1272 13.3526C18.5112 13.1286 18.8206 12.8139 19.0552 12.4086C19.3006 11.9926 19.4232 11.4966 19.4232 10.9206C19.4232 10.3446 19.3006 9.85394 19.0552 9.44861C18.8206 9.03261 18.5112 8.71794 18.1272 8.50461C17.7432 8.28061 17.3272 8.16861 16.8792 8.16861C16.4312 8.16861 16.0099 8.28061 15.6152 8.50461C15.2312 8.71794 14.9166 9.03261 14.6712 9.44861C14.4366 9.85394 14.3192 10.3446 14.3192 10.9206C14.3192 11.4966 14.4366 11.9926 14.6712 12.4086C14.9166 12.8139 15.2366 13.1286 15.6312 13.3526C16.0259 13.5659 16.4419 13.6726 16.8792 13.6726ZM26.3647 15.2566C25.6287 15.2566 24.9621 15.0699 24.3647 14.6966C23.7674 14.3233 23.2981 13.8113 22.9567 13.1606C22.6154 12.5099 22.4447 11.7633 22.4447 10.9206C22.4447 10.0779 22.6154 9.33128 22.9567 8.68061C23.2981 8.02994 23.7674 7.51794 24.3647 7.14461C24.9621 6.77128 25.6287 6.58461 26.3647 6.58461C26.7914 6.58461 27.1754 6.64861 27.5167 6.77661C27.8581 6.90461 28.1514 7.07528 28.3967 7.28861C28.6527 7.49128 28.8501 7.70994 28.9887 7.94461H29.0847L28.9887 6.80861V3.54461H30.7007V15.0006H29.0847V13.9126H28.9887C28.8501 14.1366 28.6527 14.3553 28.3967 14.5686C28.1514 14.7713 27.8581 14.9366 27.5167 15.0646C27.1754 15.1926 26.7914 15.2566 26.3647 15.2566ZM26.6207 13.6726C27.0474 13.6726 27.4474 13.5606 27.8207 13.3366C28.2047 13.1126 28.5087 12.7979 28.7327 12.3926C28.9674 11.9766 29.0847 11.4859 29.0847 10.9206C29.0847 10.3553 28.9674 9.86994 28.7327 9.46461C28.5087 9.04861 28.2047 8.72861 27.8207 8.50461C27.4474 8.28061 27.0474 8.16861 26.6207 8.16861C26.1941 8.16861 25.7941 8.28061 25.4207 8.50461C25.0474 8.72861 24.7434 9.04861 24.5087 9.46461C24.2741 9.86994 24.1567 10.3553 24.1567 10.9206C24.1567 11.4753 24.2741 11.9606 24.5087 12.3766C24.7434 12.7926 25.0474 13.1126 25.4207 13.3366C25.7941 13.5606 26.1941 13.6726 26.6207 13.6726ZM35.368 15.2566C34.7813 15.2566 34.2587 15.1393 33.8 14.9046C33.352 14.6699 32.9947 14.3499 32.728 13.9446C32.472 13.5286 32.344 13.0539 32.344 12.5206C32.344 11.9339 32.4933 11.4379 32.792 11.0326C33.1013 10.6273 33.512 10.3179 34.024 10.1046C34.536 9.89128 35.1013 9.78461 35.72 9.78461C36.0613 9.78461 36.376 9.81128 36.664 9.86461C36.9627 9.90728 37.2187 9.96061 37.432 10.0246C37.656 10.0886 37.832 10.1579 37.96 10.2326V9.80061C37.96 9.26728 37.768 8.84061 37.384 8.52061C37 8.20061 36.504 8.04061 35.896 8.04061C35.48 8.04061 35.0853 8.13661 34.712 8.32861C34.3387 8.50994 34.04 8.76061 33.816 9.08061L32.632 8.16861C32.8667 7.83794 33.1493 7.55528 33.48 7.32061C33.8213 7.08594 34.2 6.90461 34.616 6.77661C35.0427 6.64861 35.4853 6.58461 35.944 6.58461C37.128 6.58461 38.04 6.87794 38.68 7.46461C39.32 8.04061 39.64 8.85128 39.64 9.89661V15.0006H37.96V13.9926H37.864C37.7253 14.2059 37.5333 14.4086 37.288 14.6006C37.0533 14.7926 36.7707 14.9473 36.44 15.0646C36.12 15.1926 35.7627 15.2566 35.368 15.2566ZM35.672 13.8486C36.12 13.8486 36.5147 13.7419 36.856 13.5286C37.208 13.3153 37.48 13.0379 37.672 12.6966C37.864 12.3446 37.96 11.9659 37.96 11.5606C37.7253 11.4219 37.4373 11.3099 37.096 11.2246C36.7653 11.1286 36.4133 11.0806 36.04 11.0806C35.336 11.0806 34.8347 11.2193 34.536 11.4966C34.2373 11.7739 34.088 12.1206 34.088 12.5366C34.088 12.9206 34.232 13.2353 34.52 13.4806C34.808 13.7259 35.192 13.8486 35.672 13.8486ZM41.1324 18.6166C40.9617 18.6166 40.807 18.6059 40.6684 18.5846C40.519 18.5633 40.375 18.5366 40.2364 18.5046V16.8406C40.3324 16.8939 40.4497 16.9419 40.5884 16.9846C40.727 17.0273 40.8604 17.0486 40.9884 17.0486C41.287 17.0486 41.5004 16.9526 41.6284 16.7606C41.7564 16.5793 41.8204 16.3126 41.8204 15.9606V6.84061H43.5484V15.9766C43.5484 16.6059 43.4417 17.1126 43.2284 17.4966C43.0257 17.8806 42.743 18.1633 42.3804 18.3446C42.0177 18.5259 41.6017 18.6166 41.1324 18.6166ZM42.6844 5.64061C42.3644 5.64061 42.087 5.52861 41.8524 5.30461C41.6284 5.06994 41.5164 4.79261 41.5164 4.47261C41.5164 4.14194 41.6284 3.86994 41.8524 3.65661C42.087 3.43261 42.3644 3.32061 42.6844 3.32061C43.015 3.32061 43.2924 3.43261 43.5164 3.65661C43.7404 3.86994 43.8524 4.14194 43.8524 4.47261C43.8524 4.79261 43.7404 5.06994 43.5164 5.30461C43.2924 5.52861 43.015 5.64061 42.6844 5.64061ZM52.6868 15.2566C51.6841 15.2566 50.9268 14.9579 50.4148 14.3606C49.9134 13.7526 49.6628 12.9313 49.6628 11.8966V6.84061H51.3908V11.6566C51.3908 12.3393 51.5508 12.8459 51.8708 13.1766C52.2014 13.5073 52.6121 13.6726 53.1028 13.6726C53.5508 13.6726 53.9348 13.5606 54.2548 13.3366C54.5748 13.1019 54.8201 12.7979 54.9908 12.4246C55.1721 12.0513 55.2628 11.6513 55.2628 11.2246V6.84061H56.9748V15.0006H55.3588V13.8966H55.2628C55.1134 14.1526 54.9054 14.3819 54.6388 14.5846C54.3721 14.7873 54.0734 14.9473 53.7428 15.0646C53.4121 15.1926 53.0601 15.2566 52.6868 15.2566Z" fill="white"/>
<g id="GPay (Dark)">
<g id="GPay">
<g id="Pay">
<path id="Fill 1" fill-rule="evenodd" clip-rule="evenodd" d="M86.3563 3.42339V8.16175H89.2784C89.9745 8.16175 90.5501 7.92781 91.0055 7.45993C91.4728 6.99313 91.707 6.43644 91.707 5.79203C91.707 5.16061 91.4728 4.61041 91.0055 4.14254C90.5501 3.66274 89.9745 3.4223 89.2784 3.4223H86.3563V3.42339ZM86.3563 9.82966V15.3262H84.6107V1.75549H89.2404C90.4169 1.75549 91.4154 2.14756 92.2383 2.93061C93.0732 3.71365 93.4906 4.66782 93.4906 5.79203C93.4906 6.94224 93.0731 7.90291 92.2383 8.67296C91.4283 9.44409 90.4287 9.82858 89.2404 9.82858H86.3563V9.82966Z" fill="white"/>
<path id="Fill 3" fill-rule="evenodd" clip-rule="evenodd" d="M95.2546 12.4831C95.2546 12.9379 95.4476 13.317 95.8337 13.6203C96.2195 13.9235 96.6717 14.0752 97.19 14.0752C97.9239 14.0752 98.5777 13.8032 99.1535 13.2607C99.7293 12.717 100.017 12.0791 100.017 11.3469C99.4722 10.917 98.7133 10.7025 97.7396 10.7025C97.0306 10.7025 96.4397 10.8736 95.9659 11.2148C95.492 11.5559 95.2546 11.9773 95.2546 12.4831M97.513 5.73566C98.8033 5.73566 99.8214 6.08007 100.569 6.76889C101.314 7.45771 101.687 8.40213 101.687 9.60216V15.3261H100.018V14.0373H99.9417C99.2207 15.0985 98.259 15.6294 97.0578 15.6294C96.0332 15.6294 95.1755 15.3261 94.4869 14.7196C93.7975 14.1131 93.4527 13.3549 93.4527 12.4452C93.4527 11.4845 93.8158 10.7208 94.5433 10.1523C95.2708 9.58375 96.2413 9.2989 97.4557 9.2989C98.4921 9.2989 99.3465 9.48844 100.017 9.86751V9.46894C100.017 8.86243 99.7758 8.34798 99.2956 7.92451C98.8141 7.50103 98.2525 7.28984 97.6074 7.28984C96.6326 7.28984 95.8618 7.70032 95.2926 8.52235L93.7551 7.55519C94.6029 6.34217 95.8552 5.73566 97.513 5.73566" fill="white"/>
<path id="Fill 5" fill-rule="evenodd" clip-rule="evenodd" d="M111.269 6.03894L105.443 19.4201H103.641L105.804 14.738L101.971 6.03894H103.869L106.639 12.7106H106.677L109.371 6.03894H111.269Z" fill="white"/>
</g>
<g id="G">
<path id="Fill 8" fill-rule="evenodd" clip-rule="evenodd" d="M79.3029 8.64473C79.3029 8.09563 79.2562 7.56601 79.1684 7.05914H71.8065V10.0625H76.0231C75.842 11.0414 75.2944 11.8744 74.4639 12.4322V14.3828H76.9804C78.4539 13.0246 79.3029 11.0177 79.3029 8.64473" fill="#4285F4"/>
<path id="Fill 10" fill-rule="evenodd" clip-rule="evenodd" d="M71.8065 16.2651C73.9131 16.2651 75.6869 15.5741 76.9804 14.3828L74.4639 12.4322C73.7635 12.9033 72.8614 13.1784 71.8065 13.1784C69.7703 13.1784 68.042 11.8073 67.424 9.95959H64.8316V11.9687C66.1164 14.516 68.7565 16.2651 71.8065 16.2651" fill="#34A853"/>
<path id="Fill 12" fill-rule="evenodd" clip-rule="evenodd" d="M67.424 9.9596C67.2657 9.48847 67.179 8.98593 67.179 8.46715C67.179 7.94837 67.2657 7.44583 67.424 6.9747V4.96564H64.8316C64.3003 6.01837 64 7.20756 64 8.46715C64 9.72674 64.3003 10.916 64.8316 11.9687L67.424 9.9596Z" fill="#FABB05"/>
<path id="Fill 14" fill-rule="evenodd" clip-rule="evenodd" d="M71.8065 3.75583C72.9568 3.75583 73.9879 4.15115 74.8011 4.92553V4.92661L77.0292 2.70094C75.6761 1.44243 73.912 0.669128 71.8065 0.669128C68.7565 0.669128 66.1164 2.41826 64.8316 4.9656L67.424 6.97467C68.042 5.12698 69.7703 3.75583 71.8065 3.75583" fill="#E94235"/>
</g>
</g>
</g>
</g>
</svg>
