<svg width="163" height="21" viewBox="0 0 163 21" fill="none" xmlns="http://www.w3.org/2000/svg">
<g id="hr_book_with_Pay_NBG">
<path id="Left Text" d="M1.83038 15.0006V3.54461H5.84638C6.55038 3.54461 7.17971 3.69394 7.73438 3.99261C8.28905 4.29128 8.72638 4.70194 9.04638 5.22461C9.37704 5.74728 9.54238 6.35528 9.54238 7.04861C9.54238 7.50728 9.44638 7.94461 9.25438 8.36061C9.07304 8.77661 8.80638 9.14994 8.45438 9.48061C8.11305 9.80061 7.69705 10.0513 7.20638 10.2326C7.11038 10.2753 7.00905 10.3073 6.90238 10.3286L10.0704 14.9046V15.0006H8.03838L4.98238 10.5046H3.59038V15.0006H1.83038ZM3.59038 8.88861H5.79838C6.16104 8.88861 6.48638 8.80861 6.77438 8.64861C7.07304 8.48861 7.31305 8.26994 7.49438 7.99261C7.67571 7.70461 7.76638 7.38461 7.76638 7.03261C7.76638 6.72328 7.69171 6.42994 7.54238 6.15261C7.39305 5.86461 7.17438 5.63528 6.88638 5.46461C6.60905 5.28328 6.26771 5.19261 5.86238 5.19261H3.59038V8.88861ZM15.0298 15.2566C14.2298 15.2566 13.5151 15.0699 12.8858 14.6966C12.2564 14.3233 11.7604 13.8113 11.3978 13.1606C11.0458 12.5099 10.8698 11.7686 10.8698 10.9366C10.8698 10.1579 11.0404 9.43794 11.3818 8.77661C11.7231 8.11528 12.1978 7.58728 12.8058 7.19261C13.4244 6.78728 14.1338 6.58461 14.9338 6.58461C15.7764 6.58461 16.4911 6.76594 17.0778 7.12861C17.6751 7.49128 18.1284 7.98728 18.4378 8.61661C18.7471 9.24594 18.9018 9.95528 18.9018 10.7446C18.9018 10.8619 18.8964 10.9686 18.8858 11.0646C18.8858 11.1606 18.8804 11.2353 18.8698 11.2886H12.5658C12.6084 11.7366 12.7204 12.1259 12.9018 12.4566C13.1364 12.8726 13.4458 13.1873 13.8298 13.4006C14.2138 13.6139 14.6298 13.7206 15.0778 13.7206C15.6218 13.7206 16.0751 13.5979 16.4378 13.3526C16.8111 13.0966 17.1044 12.7819 17.3178 12.4086L18.7418 13.0966C18.3898 13.7366 17.9098 14.2593 17.3018 14.6646C16.6938 15.0593 15.9364 15.2566 15.0298 15.2566ZM12.6618 9.99261H17.1898C17.1791 9.78994 17.1258 9.57661 17.0298 9.35261C16.9338 9.11794 16.7951 8.90461 16.6138 8.71261C16.4324 8.52061 16.2031 8.36594 15.9258 8.24861C15.6484 8.12061 15.3231 8.05661 14.9498 8.05661C14.4804 8.05661 14.0644 8.17928 13.7018 8.42461C13.3391 8.65928 13.0564 8.98994 12.8538 9.41661C12.7684 9.59794 12.7044 9.78994 12.6618 9.99261ZM20.1608 15.0006V13.5606L24.7048 8.34461H20.3048V6.84061H26.8168V8.28061L22.2888 13.4966H26.9448V15.0006H20.1608ZM32.2829 15.2566C31.4829 15.2566 30.7682 15.0699 30.1389 14.6966C29.5095 14.3233 29.0135 13.8113 28.6509 13.1606C28.2989 12.5099 28.1229 11.7686 28.1229 10.9366C28.1229 10.1579 28.2935 9.43794 28.6349 8.77661C28.9762 8.11528 29.4509 7.58728 30.0589 7.19261C30.6775 6.78728 31.3869 6.58461 32.1869 6.58461C33.0295 6.58461 33.7442 6.76594 34.3309 7.12861C34.9282 7.49128 35.3815 7.98728 35.6909 8.61661C36.0002 9.24594 36.1549 9.95528 36.1549 10.7446C36.1549 10.8619 36.1495 10.9686 36.1389 11.0646C36.1389 11.1606 36.1335 11.2353 36.1229 11.2886H29.8189C29.8615 11.7366 29.9735 12.1259 30.1549 12.4566C30.3895 12.8726 30.6989 13.1873 31.0829 13.4006C31.4669 13.6139 31.8829 13.7206 32.3309 13.7206C32.8749 13.7206 33.3282 13.5979 33.6909 13.3526C34.0642 13.0966 34.3575 12.7819 34.5709 12.4086L35.9949 13.0966C35.6429 13.7366 35.1629 14.2593 34.5549 14.6646C33.9469 15.0593 33.1895 15.2566 32.2829 15.2566ZM29.9149 9.99261H34.4429C34.4322 9.78994 34.3789 9.57661 34.2829 9.35261C34.1869 9.11794 34.0482 8.90461 33.8669 8.71261C33.6855 8.52061 33.4562 8.36594 33.1789 8.24861C32.9015 8.12061 32.5762 8.05661 32.2029 8.05661C31.7335 8.05661 31.3175 8.17928 30.9549 8.42461C30.5922 8.65928 30.3095 8.98994 30.1069 9.41661C30.0215 9.59794 29.9575 9.78994 29.9149 9.99261ZM37.908 15.0006V6.84061H39.54V8.04061H39.636C39.764 7.76328 39.9453 7.51794 40.18 7.30461C40.4253 7.09128 40.7027 6.92061 41.012 6.79261C41.332 6.66461 41.6627 6.60061 42.004 6.60061C42.228 6.60061 42.4147 6.61661 42.564 6.64861C42.724 6.66994 42.868 6.70728 42.996 6.76061V8.55261C42.7933 8.46728 42.5853 8.39794 42.372 8.34461C42.1693 8.29128 41.956 8.26461 41.732 8.26461C41.3267 8.26461 40.964 8.37661 40.644 8.60061C40.3347 8.81394 40.0893 9.10194 39.908 9.46461C39.7267 9.82728 39.636 10.2326 39.636 10.6806V15.0006H37.908ZM47.2255 15.0006L43.8495 6.84061H45.7695L48.0575 12.7766H48.1375L50.4735 6.84061H52.3615L48.9535 15.0006H47.2255ZM56.0336 15.2566C55.447 15.2566 54.9243 15.1393 54.4656 14.9046C54.0176 14.6699 53.6603 14.3499 53.3936 13.9446C53.1376 13.5286 53.0096 13.0539 53.0096 12.5206C53.0096 11.9339 53.159 11.4379 53.4576 11.0326C53.767 10.6273 54.1776 10.3179 54.6896 10.1046C55.2016 9.89128 55.767 9.78461 56.3856 9.78461C56.727 9.78461 57.0416 9.81128 57.3296 9.86461C57.6283 9.90728 57.8843 9.96061 58.0976 10.0246C58.3216 10.0886 58.4976 10.1579 58.6256 10.2326V9.80061C58.6256 9.26728 58.4336 8.84061 58.0496 8.52061C57.6656 8.20061 57.1696 8.04061 56.5616 8.04061C56.1456 8.04061 55.751 8.13661 55.3776 8.32861C55.0043 8.50994 54.7056 8.76061 54.4816 9.08061L53.2976 8.16861C53.5323 7.83794 53.815 7.55528 54.1456 7.32061C54.487 7.08594 54.8656 6.90461 55.2816 6.77661C55.7083 6.64861 56.151 6.58461 56.6096 6.58461C57.7936 6.58461 58.7056 6.87794 59.3456 7.46461C59.9856 8.04061 60.3056 8.85128 60.3056 9.89661V15.0006H58.6256V13.9926H58.5296C58.391 14.2059 58.199 14.4086 57.9536 14.6006C57.719 14.7926 57.4363 14.9473 57.1056 15.0646C56.7856 15.1926 56.4283 15.2566 56.0336 15.2566ZM56.3376 13.8486C56.7856 13.8486 57.1803 13.7419 57.5216 13.5286C57.8736 13.3153 58.1456 13.0379 58.3376 12.6966C58.5296 12.3446 58.6256 11.9659 58.6256 11.5606C58.391 11.4219 58.103 11.3099 57.7616 11.2246C57.431 11.1286 57.079 11.0806 56.7056 11.0806C56.0016 11.0806 55.5003 11.2193 55.2016 11.4966C54.903 11.7739 54.7536 12.1206 54.7536 12.5366C54.7536 12.9206 54.8976 13.2353 55.1856 13.4806C55.4736 13.7259 55.8576 13.8486 56.3376 13.8486ZM66.0559 15.2566C65.2345 15.2566 64.5039 15.0699 63.8639 14.6966C63.2345 14.3233 62.7385 13.8113 62.3759 13.1606C62.0239 12.4993 61.8479 11.7526 61.8479 10.9206C61.8479 10.0886 62.0239 9.34728 62.3759 8.69661C62.7385 8.04594 63.2345 7.53394 63.8639 7.16061C64.5039 6.77661 65.2345 6.58461 66.0559 6.58461C66.9625 6.58461 67.7252 6.78728 68.3439 7.19261C68.9732 7.59794 69.4212 8.14728 69.6879 8.84061L68.1199 9.48061C67.9279 9.04328 67.6505 8.71794 67.2879 8.50461C66.9359 8.28061 66.5145 8.16861 66.0239 8.16861C65.5759 8.16861 65.1652 8.28594 64.7919 8.52061C64.4185 8.74461 64.1199 9.05928 63.8959 9.46461C63.6719 9.86994 63.5599 10.3553 63.5599 10.9206C63.5599 11.4753 63.6719 11.9606 63.8959 12.3766C64.1199 12.7926 64.4185 13.1126 64.7919 13.3366C65.1652 13.5606 65.5759 13.6726 66.0239 13.6726C66.5465 13.6726 66.9892 13.5553 67.3519 13.3206C67.7145 13.0859 67.9972 12.7553 68.1999 12.3286L69.7359 13.0006C69.4372 13.6513 68.9732 14.1899 68.3439 14.6166C67.7252 15.0433 66.9625 15.2566 66.0559 15.2566ZM71.4954 15.0006V6.84061H73.2234V15.0006H71.4954ZM72.3594 5.64061C72.0394 5.64061 71.762 5.52861 71.5274 5.30461C71.3034 5.06994 71.1914 4.79261 71.1914 4.47261C71.1914 4.14194 71.3034 3.86994 71.5274 3.65661C71.762 3.43261 72.0394 3.32061 72.3594 3.32061C72.69 3.32061 72.9674 3.43261 73.1914 3.65661C73.4154 3.86994 73.5274 4.14194 73.5274 4.47261C73.5274 4.79261 73.4154 5.06994 73.1914 5.30461C72.9674 5.52861 72.69 5.64061 72.3594 5.64061ZM74.9574 18.6166C74.7867 18.6166 74.632 18.6059 74.4934 18.5846C74.344 18.5633 74.2 18.5366 74.0614 18.5046V16.8406C74.1574 16.8939 74.2747 16.9419 74.4134 16.9846C74.552 17.0273 74.6854 17.0486 74.8134 17.0486C75.112 17.0486 75.3254 16.9526 75.4534 16.7606C75.5814 16.5793 75.6454 16.3126 75.6454 15.9606V6.84061H77.3734V15.9766C77.3734 16.6059 77.2667 17.1126 77.0534 17.4966C76.8507 17.8806 76.568 18.1633 76.2054 18.3446C75.8427 18.5259 75.4267 18.6166 74.9574 18.6166ZM76.5094 5.64061C76.1894 5.64061 75.912 5.52861 75.6774 5.30461C75.4534 5.06994 75.3414 4.79261 75.3414 4.47261C75.3414 4.14194 75.4534 3.86994 75.6774 3.65661C75.912 3.43261 76.1894 3.32061 76.5094 3.32061C76.84 3.32061 77.1174 3.43261 77.3414 3.65661C77.5654 3.86994 77.6774 4.14194 77.6774 4.47261C77.6774 4.79261 77.5654 5.06994 77.3414 5.30461C77.1174 5.52861 76.84 5.64061 76.5094 5.64061ZM82.1493 15.2566C81.5626 15.2566 81.0399 15.1393 80.5813 14.9046C80.1333 14.6699 79.7759 14.3499 79.5093 13.9446C79.2533 13.5286 79.1253 13.0539 79.1253 12.5206C79.1253 11.9339 79.2746 11.4379 79.5733 11.0326C79.8826 10.6273 80.2933 10.3179 80.8053 10.1046C81.3173 9.89128 81.8826 9.78461 82.5013 9.78461C82.8426 9.78461 83.1573 9.81128 83.4453 9.86461C83.7439 9.90728 83.9999 9.96061 84.2133 10.0246C84.4373 10.0886 84.6133 10.1579 84.7413 10.2326V9.80061C84.7413 9.26728 84.5493 8.84061 84.1653 8.52061C83.7813 8.20061 83.2853 8.04061 82.6773 8.04061C82.2613 8.04061 81.8666 8.13661 81.4933 8.32861C81.1199 8.50994 80.8213 8.76061 80.5973 9.08061L79.4133 8.16861C79.6479 7.83794 79.9306 7.55528 80.2613 7.32061C80.6026 7.08594 80.9813 6.90461 81.3973 6.77661C81.8239 6.64861 82.2666 6.58461 82.7253 6.58461C83.9093 6.58461 84.8213 6.87794 85.4613 7.46461C86.1013 8.04061 86.4213 8.85128 86.4213 9.89661V15.0006H84.7413V13.9926H84.6453C84.5066 14.2059 84.3146 14.4086 84.0693 14.6006C83.8346 14.7926 83.5519 14.9473 83.2213 15.0646C82.9013 15.1926 82.5439 15.2566 82.1493 15.2566ZM82.4533 13.8486C82.9013 13.8486 83.2959 13.7419 83.6373 13.5286C83.9893 13.3153 84.2613 13.0379 84.4533 12.6966C84.6453 12.3446 84.7413 11.9659 84.7413 11.5606C84.5066 11.4219 84.2186 11.3099 83.8773 11.2246C83.5466 11.1286 83.1946 11.0806 82.8213 11.0806C82.1173 11.0806 81.6159 11.2193 81.3173 11.4966C81.0186 11.7739 80.8693 12.1206 80.8693 12.5366C80.8693 12.9206 81.0133 13.2353 81.3013 13.4806C81.5893 13.7259 81.9733 13.8486 82.4533 13.8486ZM95.318 15.2566C94.3153 15.2566 93.558 14.9579 93.046 14.3606C92.5447 13.7526 92.294 12.9313 92.294 11.8966V6.84061H94.022V11.6566C94.022 12.3393 94.182 12.8459 94.502 13.1766C94.8327 13.5073 95.2433 13.6726 95.734 13.6726C96.182 13.6726 96.566 13.5606 96.886 13.3366C97.206 13.1019 97.4513 12.7979 97.622 12.4246C97.8033 12.0513 97.894 11.6513 97.894 11.2246V6.84061H99.606V15.0006H97.99V13.8966H97.894C97.7447 14.1526 97.5367 14.3819 97.27 14.5846C97.0033 14.7873 96.7047 14.9473 96.374 15.0646C96.0433 15.1926 95.6913 15.2566 95.318 15.2566ZM101.608 15.0006V13.5606L106.152 8.34461H101.752V6.84061H108.264V8.28061L103.736 13.4966H108.392V15.0006H101.608Z" fill="white"/>
<g id="GPay (Dark)">
<g id="GPay">
<g id="Pay">
<path id="Fill 1" fill-rule="evenodd" clip-rule="evenodd" d="M137.356 3.42339V8.16175H140.278C140.974 8.16175 141.55 7.92781 142.005 7.45993C142.473 6.99313 142.707 6.43644 142.707 5.79203C142.707 5.16061 142.473 4.61041 142.005 4.14254C141.55 3.66274 140.974 3.4223 140.278 3.4223H137.356V3.42339ZM137.356 9.82966V15.3262H135.611V1.75549H140.24C141.417 1.75549 142.415 2.14756 143.238 2.93061C144.073 3.71365 144.491 4.66782 144.491 5.79203C144.491 6.94224 144.073 7.90291 143.238 8.67296C142.428 9.44409 141.429 9.82858 140.24 9.82858H137.356V9.82966Z" fill="white"/>
<path id="Fill 3" fill-rule="evenodd" clip-rule="evenodd" d="M146.255 12.4831C146.255 12.9379 146.448 13.317 146.834 13.6203C147.22 13.9235 147.672 14.0752 148.19 14.0752C148.924 14.0752 149.578 13.8032 150.153 13.2607C150.729 12.717 151.017 12.0791 151.017 11.3469C150.472 10.917 149.713 10.7025 148.74 10.7025C148.031 10.7025 147.44 10.8736 146.966 11.2148C146.492 11.5559 146.255 11.9773 146.255 12.4831M148.513 5.73566C149.803 5.73566 150.821 6.08007 151.569 6.76889C152.314 7.45771 152.687 8.40213 152.687 9.60216V15.3261H151.018V14.0373H150.942C150.221 15.0985 149.259 15.6294 148.058 15.6294C147.033 15.6294 146.176 15.3261 145.487 14.7196C144.797 14.1131 144.453 13.3549 144.453 12.4452C144.453 11.4845 144.816 10.7208 145.543 10.1523C146.271 9.58375 147.241 9.2989 148.456 9.2989C149.492 9.2989 150.346 9.48844 151.017 9.86751V9.46894C151.017 8.86243 150.776 8.34798 150.296 7.92451C149.814 7.50103 149.252 7.28984 148.607 7.28984C147.633 7.28984 146.862 7.70032 146.293 8.52235L144.755 7.55519C145.603 6.34217 146.855 5.73566 148.513 5.73566" fill="white"/>
<path id="Fill 5" fill-rule="evenodd" clip-rule="evenodd" d="M162.269 6.03894L156.443 19.4201H154.641L156.804 14.738L152.971 6.03894H154.869L157.639 12.7106H157.677L160.371 6.03894H162.269Z" fill="white"/>
</g>
<g id="G">
<path id="Fill 8" fill-rule="evenodd" clip-rule="evenodd" d="M130.303 8.64473C130.303 8.09563 130.256 7.56601 130.168 7.05914H122.806V10.0625H127.023C126.842 11.0414 126.294 11.8744 125.464 12.4322V14.3828H127.98C129.454 13.0246 130.303 11.0177 130.303 8.64473" fill="#4285F4"/>
<path id="Fill 10" fill-rule="evenodd" clip-rule="evenodd" d="M122.806 16.2651C124.913 16.2651 126.687 15.5741 127.98 14.3828L125.464 12.4322C124.763 12.9033 123.861 13.1784 122.806 13.1784C120.77 13.1784 119.042 11.8073 118.424 9.95959H115.832V11.9687C117.116 14.516 119.757 16.2651 122.806 16.2651" fill="#34A853"/>
<path id="Fill 12" fill-rule="evenodd" clip-rule="evenodd" d="M118.424 9.9596C118.266 9.48847 118.179 8.98593 118.179 8.46715C118.179 7.94837 118.266 7.44583 118.424 6.9747V4.96564H115.832C115.3 6.01837 115 7.20756 115 8.46715C115 9.72674 115.3 10.916 115.832 11.9687L118.424 9.9596Z" fill="#FABB05"/>
<path id="Fill 14" fill-rule="evenodd" clip-rule="evenodd" d="M122.806 3.75583C123.957 3.75583 124.988 4.15115 125.801 4.92553V4.92661L128.029 2.70094C126.676 1.44243 124.912 0.669128 122.806 0.669128C119.757 0.669128 117.116 2.41826 115.832 4.9656L118.424 6.97467C119.042 5.12698 120.77 3.75583 122.806 3.75583" fill="#E94235"/>
</g>
</g>
</g>
</g>
</svg>
