<svg width="286" height="38" viewBox="0 0 286 38" fill="none" xmlns="http://www.w3.org/2000/svg">
<g id="hr_book_with_Dark">
<path id="Text" d="M3.96566 30V9.952H10.9937C12.2257 9.952 13.327 10.2133 14.2977 10.736C15.2683 11.2587 16.0337 11.9867 16.5937 12.92C17.1723 13.8347 17.4617 14.8893 17.4617 16.084C17.4617 17.3907 17.051 18.576 16.2297 19.64C15.427 20.6853 14.2883 21.4133 12.8137 21.824L18.3857 29.832V30H14.8297L9.48166 22.132H7.04566V30H3.96566ZM11.0217 12.836H7.04566V19.304H10.9097C11.8617 19.304 12.6737 19.0053 13.3457 18.408C14.0177 17.792 14.3537 17.008 14.3537 16.056C14.3537 15.5147 14.223 15.0013 13.9617 14.516C13.7003 14.012 13.3177 13.6107 12.8137 13.312C12.3283 12.9947 11.731 12.836 11.0217 12.836ZM27.1021 30.448C25.7021 30.448 24.4514 30.1213 23.3501 29.468C22.2487 28.8147 21.3807 27.9187 20.7461 26.78C20.1301 25.6413 19.8221 24.344 19.8221 22.888C19.8221 21.5253 20.1207 20.2653 20.7181 19.108C21.3154 17.9507 22.1461 17.0267 23.2101 16.336C24.2927 15.6267 25.5341 15.272 26.9341 15.272C28.4087 15.272 29.6594 15.5893 30.6861 16.224C31.7314 16.8587 32.5247 17.7267 33.0661 18.828C33.6074 19.9293 33.8781 21.1707 33.8781 22.552C33.8781 22.7573 33.8687 22.944 33.8501 23.112C33.8501 23.28 33.8407 23.4107 33.8221 23.504H22.7901C22.9394 24.9227 23.4341 25.9867 24.2741 26.696C25.1327 27.4053 26.1034 27.76 27.1861 27.76C28.1567 27.76 28.9594 27.5453 29.5941 27.116C30.2287 26.668 30.7327 26.1173 31.1061 25.464L33.5981 26.668C32.9821 27.788 32.1421 28.7027 31.0781 29.412C30.0141 30.1027 28.6887 30.448 27.1021 30.448ZM26.9621 17.848C25.9541 17.848 25.0954 18.156 24.3861 18.772C23.6767 19.388 23.2007 20.2093 22.9581 21.236H30.8821C30.8447 20.7507 30.6861 20.2467 30.4061 19.724C30.1261 19.2013 29.6967 18.7627 29.1181 18.408C28.5581 18.0347 27.8394 17.848 26.9621 17.848ZM36.1188 30V27.48L44.0708 18.352H36.3708V15.72H47.7668V18.24L39.8428 27.368H47.9908V30H36.1188ZM57.37 30.448C55.97 30.448 54.7194 30.1213 53.618 29.468C52.5167 28.8147 51.6487 27.9187 51.014 26.78C50.398 25.6413 50.09 24.344 50.09 22.888C50.09 21.5253 50.3887 20.2653 50.986 19.108C51.5834 17.9507 52.414 17.0267 53.478 16.336C54.5607 15.6267 55.802 15.272 57.202 15.272C58.6767 15.272 59.9274 15.5893 60.954 16.224C61.9994 16.8587 62.7927 17.7267 63.334 18.828C63.8754 19.9293 64.146 21.1707 64.146 22.552C64.146 22.7573 64.1367 22.944 64.118 23.112C64.118 23.28 64.1087 23.4107 64.09 23.504H53.058C53.2074 24.9227 53.702 25.9867 54.542 26.696C55.4007 27.4053 56.3714 27.76 57.454 27.76C58.4247 27.76 59.2274 27.5453 59.862 27.116C60.4967 26.668 61.0007 26.1173 61.374 25.464L63.866 26.668C63.25 27.788 62.41 28.7027 61.346 29.412C60.282 30.1027 58.9567 30.448 57.37 30.448ZM57.23 17.848C56.222 17.848 55.3634 18.156 54.654 18.772C53.9447 19.388 53.4687 20.2093 53.226 21.236H61.15C61.1127 20.7507 60.954 20.2467 60.674 19.724C60.394 19.2013 59.9647 18.7627 59.386 18.408C58.826 18.0347 58.1074 17.848 57.23 17.848ZM67.2515 30V15.72H70.1075V17.82H70.2755C70.5928 17.092 71.1342 16.4947 71.8995 16.028C72.6835 15.5427 73.5235 15.3 74.4195 15.3C74.8115 15.3 75.1382 15.328 75.3995 15.384C75.6795 15.44 75.9315 15.5053 76.1555 15.58V18.716C75.8008 18.5667 75.4368 18.4453 75.0635 18.352C74.7088 18.2587 74.3355 18.212 73.9435 18.212C73.2342 18.212 72.5995 18.408 72.0395 18.8C71.4982 19.1733 71.0688 19.6867 70.7515 20.34C70.4342 20.9747 70.2755 21.6747 70.2755 22.44V30H67.2515ZM83.5946 30L77.6866 15.72H81.0466L85.0506 26.108H85.1906L89.2786 15.72H92.5826L86.6186 30H83.5946ZM99.0464 30.448C98.0197 30.448 97.105 30.252 96.3024 29.86C95.4997 29.4493 94.8744 28.88 94.4264 28.152C93.9784 27.424 93.7544 26.5933 93.7544 25.66C93.7544 24.652 94.0157 23.7933 94.5384 23.084C95.0797 22.356 95.7984 21.8053 96.6944 21.432C97.5904 21.0587 98.5797 20.872 99.6624 20.872C100.558 20.872 101.342 20.956 102.014 21.124C102.705 21.292 103.228 21.4693 103.582 21.656V20.9C103.582 19.9667 103.246 19.22 102.574 18.66C101.902 18.1 101.034 17.82 99.9704 17.82C99.2424 17.82 98.5517 17.988 97.8984 18.324C97.245 18.6413 96.7224 19.08 96.3304 19.64L94.2584 18.044C94.8744 17.1853 95.6864 16.5133 96.6944 16.028C97.721 15.524 98.841 15.272 100.054 15.272C102.126 15.272 103.722 15.7853 104.842 16.812C105.962 17.82 106.522 19.2387 106.522 21.068V30H103.582V28.236H103.414C103.041 28.8147 102.481 29.328 101.734 29.776C100.988 30.224 100.092 30.448 99.0464 30.448ZM99.5784 27.984C100.362 27.984 101.053 27.7973 101.65 27.424C102.248 27.0507 102.714 26.5653 103.05 25.968C103.405 25.352 103.582 24.6893 103.582 23.98C103.153 23.7373 102.649 23.5413 102.07 23.392C101.492 23.224 100.876 23.14 100.222 23.14C98.9904 23.14 98.113 23.392 97.5904 23.896C97.0677 24.3813 96.8064 24.9787 96.8064 25.688C96.8064 26.36 97.0584 26.9107 97.5624 27.34C98.0664 27.7693 98.7384 27.984 99.5784 27.984ZM116.623 30.448C115.185 30.448 113.916 30.1213 112.815 29.468C111.713 28.8147 110.845 27.9187 110.211 26.78C109.576 25.6227 109.259 24.316 109.259 22.86C109.259 21.404 109.576 20.1067 110.211 18.968C110.845 17.8107 111.713 16.9053 112.815 16.252C113.916 15.5987 115.185 15.272 116.623 15.272C118.209 15.272 119.544 15.6267 120.627 16.336C121.728 17.0453 122.512 18.0067 122.979 19.22L120.235 20.34C119.581 18.8093 118.359 18.044 116.567 18.044C115.783 18.044 115.064 18.2493 114.411 18.66C113.757 19.052 113.235 19.612 112.843 20.34C112.451 21.0493 112.255 21.8893 112.255 22.86C112.255 23.8307 112.451 24.68 112.843 25.408C113.235 26.136 113.757 26.696 114.411 27.088C115.064 27.48 115.783 27.676 116.567 27.676C117.481 27.676 118.256 27.4707 118.891 27.06C119.525 26.6307 120.02 26.052 120.375 25.324L123.063 26.5C122.559 27.6387 121.756 28.5813 120.655 29.328C119.553 30.0747 118.209 30.448 116.623 30.448ZM127.691 13.62C127.131 13.62 126.646 13.424 126.235 13.032C125.843 12.6213 125.647 12.136 125.647 11.576C125.647 11.016 125.843 10.54 126.235 10.148C126.646 9.756 127.131 9.56 127.691 9.56C128.251 9.56 128.727 9.756 129.119 10.148C129.53 10.54 129.735 11.016 129.735 11.576C129.735 12.136 129.53 12.6213 129.119 13.032C128.727 13.424 128.251 13.62 127.691 13.62ZM126.179 30V15.72H129.203V30H126.179ZM134.991 13.62C134.431 13.62 133.946 13.424 133.535 13.032C133.143 12.6213 132.947 12.136 132.947 11.576C132.947 11.016 133.143 10.54 133.535 10.148C133.946 9.756 134.431 9.56 134.991 9.56C135.551 9.56 136.027 9.756 136.419 10.148C136.83 10.54 137.035 11.016 137.035 11.576C137.035 12.136 136.83 12.6213 136.419 13.032C136.027 13.424 135.551 13.62 134.991 13.62ZM132.275 36.328C131.697 36.328 131.174 36.2627 130.707 36.132V33.22C130.894 33.332 131.109 33.416 131.351 33.472C131.575 33.5467 131.799 33.584 132.023 33.584C132.565 33.584 132.938 33.416 133.143 33.08C133.367 32.7627 133.479 32.296 133.479 31.68V15.72H136.503V31.708C136.503 33.3507 136.102 34.5267 135.299 35.236C134.497 35.964 133.489 36.328 132.275 36.328ZM144.899 30.448C143.872 30.448 142.957 30.252 142.155 29.86C141.352 29.4493 140.727 28.88 140.279 28.152C139.831 27.424 139.607 26.5933 139.607 25.66C139.607 24.652 139.868 23.7933 140.391 23.084C140.932 22.356 141.651 21.8053 142.547 21.432C143.443 21.0587 144.432 20.872 145.515 20.872C146.411 20.872 147.195 20.956 147.867 21.124C148.557 21.292 149.08 21.4693 149.435 21.656V20.9C149.435 19.9667 149.099 19.22 148.427 18.66C147.755 18.1 146.887 17.82 145.823 17.82C145.095 17.82 144.404 17.988 143.751 18.324C143.097 18.6413 142.575 19.08 142.183 19.64L140.111 18.044C140.727 17.1853 141.539 16.5133 142.547 16.028C143.573 15.524 144.693 15.272 145.907 15.272C147.979 15.272 149.575 15.7853 150.695 16.812C151.815 17.82 152.375 19.2387 152.375 21.068V30H149.435V28.236H149.267C148.893 28.8147 148.333 29.328 147.587 29.776C146.84 30.224 145.944 30.448 144.899 30.448ZM145.431 27.984C146.215 27.984 146.905 27.7973 147.503 27.424C148.1 27.0507 148.567 26.5653 148.903 25.968C149.257 25.352 149.435 24.6893 149.435 23.98C149.005 23.7373 148.501 23.5413 147.923 23.392C147.344 23.224 146.728 23.14 146.075 23.14C144.843 23.14 143.965 23.392 143.443 23.896C142.92 24.3813 142.659 24.9787 142.659 25.688C142.659 26.36 142.911 26.9107 143.415 27.34C143.919 27.7693 144.591 27.984 145.431 27.984ZM168.019 30.448C166.264 30.448 164.939 29.9253 164.043 28.88C163.166 27.816 162.727 26.3787 162.727 24.568V15.72H165.751V24.148C165.751 25.3613 166.031 26.2573 166.591 26.836C167.17 27.396 167.888 27.676 168.747 27.676C169.512 27.676 170.175 27.48 170.735 27.088C171.314 26.6773 171.752 26.1547 172.051 25.52C172.368 24.8667 172.527 24.1573 172.527 23.392V15.72H175.523V30H172.695V28.068H172.527C172.116 28.74 171.5 29.3093 170.679 29.776C169.876 30.224 168.99 30.448 168.019 30.448ZM179.063 30V27.48L187.015 18.352H179.315V15.72H190.711V18.24L182.787 27.368H190.935V30H179.063Z" fill="white"/>
<g id="GPay Logo (Dark)">
<g id="GPay">
<g id="Pay">
<path id="Fill 1" fill-rule="evenodd" clip-rule="evenodd" d="M242.529 9.34665V17.5128H247.565C248.765 17.5128 249.757 17.1096 250.541 16.3032C251.347 15.4988 251.75 14.5394 251.75 13.4288C251.75 12.3406 251.347 11.3924 250.541 10.586C249.757 9.75916 248.765 9.34479 247.565 9.34479H242.529V9.34665ZM242.529 20.3872V29.8599H239.521V6.47218H247.499C249.527 6.47218 251.248 7.14787 252.666 8.49738C254.105 9.84688 254.824 11.4913 254.824 13.4288C254.824 15.411 254.105 17.0667 252.666 18.3938C251.27 19.7227 249.547 20.3854 247.499 20.3854H242.529V20.3872Z" fill="white"/>
<path id="Fill 3" fill-rule="evenodd" clip-rule="evenodd" d="M257.864 24.9602C257.864 25.7442 258.197 26.3975 258.862 26.9201C259.527 27.4427 260.306 27.704 261.2 27.704C262.465 27.704 263.591 27.2354 264.584 26.3004C265.576 25.3634 266.071 24.264 266.071 23.0022C265.133 22.2612 263.825 21.8916 262.147 21.8916C260.925 21.8916 259.907 22.1866 259.09 22.7745C258.273 23.3623 257.864 24.0886 257.864 24.9602ZM261.756 13.3317C263.98 13.3317 265.735 13.9253 267.022 15.1124C268.308 16.2995 268.95 17.9271 268.95 19.9952V29.8599H266.073V27.6387H265.942C264.699 29.4677 263.042 30.3825 260.972 30.3825C259.206 30.3825 257.728 29.8599 256.541 28.8146C255.353 27.7694 254.759 26.4628 254.759 24.8949C254.759 23.2393 255.385 21.9232 256.638 20.9434C257.892 19.9635 259.565 19.4726 261.658 19.4726C263.444 19.4726 264.916 19.7993 266.071 20.4525V19.7657C266.071 18.7204 265.656 17.8338 264.829 17.104C263.999 16.3742 263.031 16.0102 261.919 16.0102C260.239 16.0102 258.911 16.7176 257.93 18.1343L255.28 16.4675C256.741 14.377 258.899 13.3317 261.756 13.3317Z" fill="white"/>
<path id="Fill 5" fill-rule="evenodd" clip-rule="evenodd" d="M285.463 13.8543L275.424 36.9154H272.318L276.046 28.8464L269.44 13.8543H272.71L277.484 25.3522H277.55L282.193 13.8543H285.463Z" fill="white"/>
</g>
<g id="G">
<path id="Fill 8" fill-rule="evenodd" clip-rule="evenodd" d="M230.373 18.3452C230.373 17.3989 230.293 16.4861 230.141 15.6126H217.454V20.7885H224.72C224.408 22.4757 223.465 23.9112 222.033 24.8725V28.2341H226.37C228.91 25.8935 230.373 22.4348 230.373 18.3452Z" fill="#4285F4"/>
<path id="Fill 10" fill-rule="evenodd" clip-rule="evenodd" d="M217.454 31.4782C221.084 31.4782 224.141 30.2873 226.37 28.2341L222.033 24.8725C220.826 25.6844 219.272 26.1585 217.454 26.1585C213.944 26.1585 210.966 23.7955 209.901 20.6112H205.433V24.0736C207.647 28.4637 212.197 31.4782 217.454 31.4782Z" fill="#34A853"/>
<path id="Fill 12" fill-rule="evenodd" clip-rule="evenodd" d="M209.901 20.6111C209.628 19.7992 209.479 18.9331 209.479 18.0391C209.479 17.145 209.628 16.2789 209.901 15.467V12.0045H205.433C204.518 13.8188 204 15.8683 204 18.0391C204 20.2098 204.518 22.2595 205.433 24.0736L209.901 20.6111Z" fill="#FABB05"/>
<path id="Fill 14" fill-rule="evenodd" clip-rule="evenodd" d="M217.454 9.91964C219.436 9.91964 221.213 10.6009 222.615 11.9355V11.9374L226.455 8.10163C224.123 5.93272 221.082 4.60001 217.454 4.60001C212.197 4.60001 207.647 7.61447 205.433 12.0046L209.901 15.467C210.966 12.2827 213.944 9.91964 217.454 9.91964Z" fill="#E94235"/>
</g>
</g>
</g>
</g>
</svg>
