<svg width="128" height="21" viewBox="0 0 128 21" fill="none" xmlns="http://www.w3.org/2000/svg">
<g id="hr_buy_with_Pay_NBG">
<path id="Left Text" d="M1.67413 15.0006V3.54461H3.43413V9.17661L8.20213 3.54461H10.3781V3.64061L6.18613 8.47261L10.7461 14.9046V15.0006H8.60213L5.00213 9.84861L3.43413 11.6726V15.0006H1.67413ZM14.7149 15.2566C13.7122 15.2566 12.9549 14.9579 12.4429 14.3606C11.9415 13.7526 11.6909 12.9313 11.6909 11.8966V6.84061H13.4189V11.6566C13.4189 12.3393 13.5789 12.8459 13.8989 13.1766C14.2295 13.5073 14.6402 13.6726 15.1309 13.6726C15.5789 13.6726 15.9629 13.5606 16.2829 13.3366C16.6029 13.1019 16.8482 12.7979 17.0189 12.4246C17.2002 12.0513 17.2909 11.6513 17.2909 11.2246V6.84061H19.0029V15.0006H17.3869V13.8966H17.2909C17.1415 14.1526 16.9335 14.3819 16.6669 14.5846C16.4002 14.7873 16.1015 14.9473 15.7709 15.0646C15.4402 15.1926 15.0882 15.2566 14.7149 15.2566ZM21.1701 18.4566V6.84061H22.7861V7.94461H22.8821C23.0315 7.70994 23.2288 7.49128 23.4741 7.28861C23.7301 7.07528 24.0288 6.90461 24.3701 6.77661C24.7115 6.64861 25.0901 6.58461 25.5061 6.58461C26.2528 6.58461 26.9195 6.77128 27.5061 7.14461C28.0928 7.51794 28.5568 8.02994 28.8981 8.68061C29.2501 9.33128 29.4261 10.0779 29.4261 10.9206C29.4261 11.7633 29.2501 12.5099 28.8981 13.1606C28.5568 13.8113 28.0928 14.3233 27.5061 14.6966C26.9195 15.0699 26.2528 15.2566 25.5061 15.2566C24.8875 15.2566 24.3488 15.1179 23.8901 14.8406C23.4315 14.5633 23.0955 14.2539 22.8821 13.9126H22.7861L22.8821 15.0486V18.4566H21.1701ZM25.2501 13.6726C25.6768 13.6726 26.0768 13.5606 26.4501 13.3366C26.8341 13.1126 27.1381 12.7926 27.3621 12.3766C27.5968 11.9606 27.7141 11.4753 27.7141 10.9206C27.7141 10.3553 27.5968 9.86994 27.3621 9.46461C27.1381 9.04861 26.8341 8.72861 26.4501 8.50461C26.0768 8.28061 25.6768 8.16861 25.2501 8.16861C24.8235 8.16861 24.4235 8.28061 24.0501 8.50461C23.6768 8.72861 23.3728 9.04861 23.1381 9.46461C22.9035 9.86994 22.7861 10.3553 22.7861 10.9206C22.7861 11.4859 22.9035 11.9766 23.1381 12.3926C23.3728 12.7979 23.6768 13.1126 24.0501 13.3366C24.4235 13.5606 24.8235 13.6726 25.2501 13.6726ZM31.0861 15.0006V6.84061H32.7181V7.96061H32.8141C33.0488 7.56594 33.3955 7.24061 33.8541 6.98461C34.3235 6.71794 34.8355 6.58461 35.3901 6.58461C36.3928 6.58461 37.1448 6.88328 37.6461 7.48061C38.1475 8.06728 38.3981 8.85661 38.3981 9.84861V15.0006H36.6861V10.0726C36.6861 9.41128 36.5208 8.93128 36.1901 8.63261C35.8595 8.32328 35.4275 8.16861 34.8941 8.16861C34.4781 8.16861 34.1155 8.28594 33.8061 8.52061C33.4968 8.74461 33.2515 9.04328 33.0701 9.41661C32.8995 9.78994 32.8141 10.1899 32.8141 10.6166V15.0006H31.0861ZM39.9574 18.6166C39.7867 18.6166 39.632 18.6059 39.4934 18.5846C39.344 18.5633 39.2 18.5366 39.0614 18.5046V16.8406C39.1574 16.8939 39.2747 16.9419 39.4134 16.9846C39.552 17.0273 39.6854 17.0486 39.8134 17.0486C40.112 17.0486 40.3254 16.9526 40.4534 16.7606C40.5814 16.5793 40.6454 16.3126 40.6454 15.9606V6.84061H42.3734V15.9766C42.3734 16.6059 42.2667 17.1126 42.0534 17.4966C41.8507 17.8806 41.568 18.1633 41.2054 18.3446C40.8427 18.5259 40.4267 18.6166 39.9574 18.6166ZM41.5094 5.64061C41.1894 5.64061 40.912 5.52861 40.6774 5.30461C40.4534 5.06994 40.3414 4.79261 40.3414 4.47261C40.3414 4.14194 40.4534 3.86994 40.6774 3.65661C40.912 3.43261 41.1894 3.32061 41.5094 3.32061C41.84 3.32061 42.1174 3.43261 42.3414 3.65661C42.5654 3.86994 42.6774 4.14194 42.6774 4.47261C42.6774 4.79261 42.5654 5.06994 42.3414 5.30461C42.1174 5.52861 41.84 5.64061 41.5094 5.64061ZM47.1493 15.2566C46.5626 15.2566 46.0399 15.1393 45.5813 14.9046C45.1333 14.6699 44.7759 14.3499 44.5093 13.9446C44.2533 13.5286 44.1253 13.0539 44.1253 12.5206C44.1253 11.9339 44.2746 11.4379 44.5733 11.0326C44.8826 10.6273 45.2933 10.3179 45.8053 10.1046C46.3173 9.89128 46.8826 9.78461 47.5013 9.78461C47.8426 9.78461 48.1573 9.81128 48.4453 9.86461C48.7439 9.90728 48.9999 9.96061 49.2133 10.0246C49.4373 10.0886 49.6133 10.1579 49.7413 10.2326V9.80061C49.7413 9.26728 49.5493 8.84061 49.1653 8.52061C48.7813 8.20061 48.2853 8.04061 47.6773 8.04061C47.2613 8.04061 46.8666 8.13661 46.4933 8.32861C46.1199 8.50994 45.8213 8.76061 45.5973 9.08061L44.4133 8.16861C44.6479 7.83794 44.9306 7.55528 45.2613 7.32061C45.6026 7.08594 45.9813 6.90461 46.3973 6.77661C46.8239 6.64861 47.2666 6.58461 47.7253 6.58461C48.9093 6.58461 49.8213 6.87794 50.4613 7.46461C51.1013 8.04061 51.4213 8.85128 51.4213 9.89661V15.0006H49.7413V13.9926H49.6453C49.5066 14.2059 49.3146 14.4086 49.0693 14.6006C48.8346 14.7926 48.5519 14.9473 48.2213 15.0646C47.9013 15.1926 47.5439 15.2566 47.1493 15.2566ZM47.4533 13.8486C47.9013 13.8486 48.2959 13.7419 48.6373 13.5286C48.9893 13.3153 49.2613 13.0379 49.4533 12.6966C49.6453 12.3446 49.7413 11.9659 49.7413 11.5606C49.5066 11.4219 49.2186 11.3099 48.8773 11.2246C48.5466 11.1286 48.1946 11.0806 47.8213 11.0806C47.1173 11.0806 46.6159 11.2193 46.3173 11.4966C46.0186 11.7739 45.8693 12.1206 45.8693 12.5366C45.8693 12.9206 46.0133 13.2353 46.3013 13.4806C46.5893 13.7259 46.9733 13.8486 47.4533 13.8486ZM60.318 15.2566C59.3153 15.2566 58.558 14.9579 58.046 14.3606C57.5447 13.7526 57.294 12.9313 57.294 11.8966V6.84061H59.022V11.6566C59.022 12.3393 59.182 12.8459 59.502 13.1766C59.8327 13.5073 60.2433 13.6726 60.734 13.6726C61.182 13.6726 61.566 13.5606 61.886 13.3366C62.206 13.1019 62.4513 12.7979 62.622 12.4246C62.8033 12.0513 62.894 11.6513 62.894 11.2246V6.84061H64.606V15.0006H62.99V13.8966H62.894C62.7447 14.1526 62.5367 14.3819 62.27 14.5846C62.0033 14.7873 61.7047 14.9473 61.374 15.0646C61.0433 15.1926 60.6913 15.2566 60.318 15.2566ZM66.6076 15.0006V13.5606L71.1516 8.34461H66.7516V6.84061H73.2636V8.28061L68.7356 13.4966H73.3916V15.0006H66.6076Z" fill="white"/>
<g id="GPay (Dark)">
<g id="GPay">
<g id="Pay">
<path id="Fill 1" fill-rule="evenodd" clip-rule="evenodd" d="M102.356 3.42339V8.16175H105.278C105.974 8.16175 106.55 7.92781 107.005 7.45993C107.473 6.99313 107.707 6.43644 107.707 5.79203C107.707 5.16061 107.473 4.61041 107.005 4.14254C106.55 3.66274 105.974 3.4223 105.278 3.4223H102.356V3.42339ZM102.356 9.82966V15.3262H100.611V1.75549H105.24C106.417 1.75549 107.415 2.14756 108.238 2.93061C109.073 3.71365 109.491 4.66782 109.491 5.79203C109.491 6.94224 109.073 7.90291 108.238 8.67296C107.428 9.44409 106.429 9.82858 105.24 9.82858H102.356V9.82966Z" fill="white"/>
<path id="Fill 3" fill-rule="evenodd" clip-rule="evenodd" d="M111.255 12.4831C111.255 12.9379 111.448 13.317 111.834 13.6203C112.22 13.9235 112.672 14.0752 113.19 14.0752C113.924 14.0752 114.578 13.8032 115.153 13.2607C115.729 12.717 116.017 12.0791 116.017 11.3469C115.472 10.917 114.713 10.7025 113.74 10.7025C113.031 10.7025 112.44 10.8736 111.966 11.2148C111.492 11.5559 111.255 11.9773 111.255 12.4831M113.513 5.73566C114.803 5.73566 115.821 6.08007 116.569 6.76889C117.314 7.45771 117.687 8.40213 117.687 9.60216V15.3261H116.018V14.0373H115.942C115.221 15.0985 114.259 15.6294 113.058 15.6294C112.033 15.6294 111.176 15.3261 110.487 14.7196C109.797 14.1131 109.453 13.3549 109.453 12.4452C109.453 11.4845 109.816 10.7208 110.543 10.1523C111.271 9.58375 112.241 9.2989 113.456 9.2989C114.492 9.2989 115.346 9.48844 116.017 9.86751V9.46894C116.017 8.86243 115.776 8.34798 115.296 7.92451C114.814 7.50103 114.252 7.28984 113.607 7.28984C112.633 7.28984 111.862 7.70032 111.293 8.52235L109.755 7.55519C110.603 6.34217 111.855 5.73566 113.513 5.73566" fill="white"/>
<path id="Fill 5" fill-rule="evenodd" clip-rule="evenodd" d="M127.269 6.03894L121.443 19.4201H119.641L121.804 14.738L117.971 6.03894H119.869L122.639 12.7106H122.677L125.371 6.03894H127.269Z" fill="white"/>
</g>
<g id="G">
<path id="Fill 8" fill-rule="evenodd" clip-rule="evenodd" d="M95.3029 8.64473C95.3029 8.09563 95.2562 7.56601 95.1684 7.05914H87.8065V10.0625H92.0231C91.842 11.0414 91.2944 11.8744 90.4639 12.4322V14.3828H92.9804C94.4539 13.0246 95.3029 11.0177 95.3029 8.64473" fill="#4285F4"/>
<path id="Fill 10" fill-rule="evenodd" clip-rule="evenodd" d="M87.8065 16.2651C89.9131 16.2651 91.6869 15.5741 92.9804 14.3828L90.4639 12.4322C89.7635 12.9033 88.8614 13.1784 87.8065 13.1784C85.7703 13.1784 84.042 11.8073 83.424 9.95959H80.8316V11.9687C82.1164 14.516 84.7565 16.2651 87.8065 16.2651" fill="#34A853"/>
<path id="Fill 12" fill-rule="evenodd" clip-rule="evenodd" d="M83.424 9.9596C83.2657 9.48847 83.179 8.98593 83.179 8.46715C83.179 7.94837 83.2657 7.44583 83.424 6.9747V4.96564H80.8316C80.3003 6.01837 80 7.20756 80 8.46715C80 9.72674 80.3003 10.916 80.8316 11.9687L83.424 9.9596Z" fill="#FABB05"/>
<path id="Fill 14" fill-rule="evenodd" clip-rule="evenodd" d="M87.8065 3.75583C88.9568 3.75583 89.9879 4.15115 90.8011 4.92553V4.92661L93.0292 2.70094C91.6761 1.44243 89.912 0.669128 87.8065 0.669128C84.7565 0.669128 82.1164 2.41826 80.8316 4.9656L83.424 6.97467C84.042 5.12698 85.7703 3.75583 87.8065 3.75583" fill="#E94235"/>
</g>
</g>
</g>
</g>
</svg>
