<svg width="234" height="38" viewBox="0 0 234 38" fill="none" xmlns="http://www.w3.org/2000/svg">
<g id="hr_checkout_with_Light">
<path id="Text" d="M2.8766 30V9.952H6.5166L15.5886 24.68H15.7566L15.5886 20.816V9.952H18.6406V30H15.4486L5.9286 14.516H5.7606L5.9286 18.38V30H2.8766ZM27.0315 30.448C26.0048 30.448 25.0902 30.252 24.2875 29.86C23.4848 29.4493 22.8595 28.88 22.4115 28.152C21.9635 27.424 21.7395 26.5933 21.7395 25.66C21.7395 24.652 22.0008 23.7933 22.5235 23.084C23.0648 22.356 23.7835 21.8053 24.6795 21.432C25.5755 21.0587 26.5648 20.872 27.6475 20.872C28.5435 20.872 29.3275 20.956 29.9995 21.124C30.6902 21.292 31.2128 21.4693 31.5675 21.656V20.9C31.5675 19.9667 31.2315 19.22 30.5595 18.66C29.8875 18.1 29.0195 17.82 27.9555 17.82C27.2275 17.82 26.5368 17.988 25.8835 18.324C25.2302 18.6413 24.7075 19.08 24.3155 19.64L22.2435 18.044C22.8595 17.1853 23.6715 16.5133 24.6795 16.028C25.7062 15.524 26.8262 15.272 28.0395 15.272C30.1115 15.272 31.7075 15.7853 32.8275 16.812C33.9475 17.82 34.5075 19.2387 34.5075 21.068V30H31.5675V28.236H31.3995C31.0262 28.8147 30.4662 29.328 29.7195 29.776C28.9728 30.224 28.0768 30.448 27.0315 30.448ZM27.5635 27.984C28.3475 27.984 29.0382 27.7973 29.6355 27.424C30.2328 27.0507 30.6995 26.5653 31.0355 25.968C31.3902 25.352 31.5675 24.6893 31.5675 23.98C31.1382 23.7373 30.6342 23.5413 30.0555 23.392C29.4768 23.224 28.8608 23.14 28.2075 23.14C26.9755 23.14 26.0982 23.392 25.5755 23.896C25.0528 24.3813 24.7915 24.9787 24.7915 25.688C24.7915 26.36 25.0435 26.9107 25.5475 27.34C26.0515 27.7693 26.7235 27.984 27.5635 27.984ZM38.1087 36.048V15.72H40.9367V17.652H41.1047C41.478 17.036 42.0567 16.4853 42.8407 16C43.6433 15.5147 44.5953 15.272 45.6967 15.272C47.0033 15.272 48.17 15.5987 49.1967 16.252C50.2233 16.9053 51.0353 17.8013 51.6327 18.94C52.2487 20.0787 52.5567 21.3853 52.5567 22.86C52.5567 24.3347 52.2487 25.6507 51.6327 26.808C51.0353 27.9467 50.2233 28.8427 49.1967 29.496C48.17 30.1307 47.0033 30.448 45.6967 30.448C44.5953 30.448 43.6433 30.2147 42.8407 29.748C42.0567 29.2627 41.478 28.712 41.1047 28.096H40.9367L41.1047 30.084V36.048H38.1087ZM45.2487 27.676C45.9953 27.676 46.6953 27.48 47.3487 27.088C48.002 26.696 48.534 26.1453 48.9447 25.436C49.3553 24.708 49.5607 23.8493 49.5607 22.86C49.5607 21.8707 49.3553 21.0213 48.9447 20.312C48.534 19.584 48.002 19.024 47.3487 18.632C46.6953 18.24 45.9953 18.044 45.2487 18.044C44.502 18.044 43.802 18.24 43.1487 18.632C42.4953 19.024 41.9633 19.584 41.5527 20.312C41.142 21.0213 40.9367 21.8707 40.9367 22.86C40.9367 23.8493 41.142 24.708 41.5527 25.436C41.9633 26.1453 42.4953 26.696 43.1487 27.088C43.802 27.48 44.502 27.676 45.2487 27.676ZM55.3904 30V9.952H58.4144V30H55.3904ZM66.6229 30.448C65.5962 30.448 64.6816 30.252 63.8789 29.86C63.0762 29.4493 62.4509 28.88 62.0029 28.152C61.5549 27.424 61.3309 26.5933 61.3309 25.66C61.3309 24.652 61.5922 23.7933 62.1149 23.084C62.6562 22.356 63.3749 21.8053 64.2709 21.432C65.1669 21.0587 66.1562 20.872 67.2389 20.872C68.1349 20.872 68.9189 20.956 69.5909 21.124C70.2816 21.292 70.8042 21.4693 71.1589 21.656V20.9C71.1589 19.9667 70.8229 19.22 70.1509 18.66C69.4789 18.1 68.6109 17.82 67.5469 17.82C66.8189 17.82 66.1282 17.988 65.4749 18.324C64.8216 18.6413 64.2989 19.08 63.9069 19.64L61.8349 18.044C62.4509 17.1853 63.2629 16.5133 64.2709 16.028C65.2976 15.524 66.4176 15.272 67.6309 15.272C69.7029 15.272 71.2989 15.7853 72.4189 16.812C73.5389 17.82 74.0989 19.2387 74.0989 21.068V30H71.1589V28.236H70.9909C70.6176 28.8147 70.0576 29.328 69.3109 29.776C68.5642 30.224 67.6682 30.448 66.6229 30.448ZM67.1549 27.984C67.9389 27.984 68.6296 27.7973 69.2269 27.424C69.8242 27.0507 70.2909 26.5653 70.6269 25.968C70.9816 25.352 71.1589 24.6893 71.1589 23.98C70.7296 23.7373 70.2256 23.5413 69.6469 23.392C69.0682 23.224 68.4522 23.14 67.7989 23.14C66.5669 23.14 65.6896 23.392 65.1669 23.896C64.6442 24.3813 64.3829 24.9787 64.3829 25.688C64.3829 26.36 64.6349 26.9107 65.1389 27.34C65.6429 27.7693 66.3149 27.984 67.1549 27.984ZM78.9666 25.856V18.352H76.4746V15.72H78.9666V11.688H81.9906V15.72H85.4906V18.352H81.9906V25.212C81.9906 25.9213 82.1306 26.4627 82.4106 26.836C82.7093 27.2093 83.204 27.396 83.8946 27.396C84.2493 27.396 84.548 27.3493 84.7906 27.256C85.052 27.1627 85.3133 27.032 85.5746 26.864V29.804C85.2573 29.9347 84.9213 30.0373 84.5666 30.112C84.212 30.1867 83.792 30.224 83.3066 30.224C81.9813 30.224 80.9266 29.8413 80.1426 29.076C79.3586 28.292 78.9666 27.2187 78.9666 25.856ZM92.8987 30.448C91.872 30.448 90.9574 30.252 90.1547 29.86C89.352 29.4493 88.7267 28.88 88.2787 28.152C87.8307 27.424 87.6067 26.5933 87.6067 25.66C87.6067 24.652 87.868 23.7933 88.3907 23.084C88.932 22.356 89.6507 21.8053 90.5467 21.432C91.4427 21.0587 92.432 20.872 93.5147 20.872C94.4107 20.872 95.1947 20.956 95.8667 21.124C96.5574 21.292 97.08 21.4693 97.4347 21.656V20.9C97.4347 19.9667 97.0987 19.22 96.4267 18.66C95.7547 18.1 94.8867 17.82 93.8227 17.82C93.0947 17.82 92.404 17.988 91.7507 18.324C91.0974 18.6413 90.5747 19.08 90.1827 19.64L88.1107 18.044C88.7267 17.1853 89.5387 16.5133 90.5467 16.028C91.5734 15.524 92.6934 15.272 93.9067 15.272C95.9787 15.272 97.5747 15.7853 98.6947 16.812C99.8147 17.82 100.375 19.2387 100.375 21.068V30H97.4347V28.236H97.2667C96.8934 28.8147 96.3334 29.328 95.5867 29.776C94.84 30.224 93.944 30.448 92.8987 30.448ZM93.4307 27.984C94.2147 27.984 94.9054 27.7973 95.5027 27.424C96.1 27.0507 96.5667 26.5653 96.9027 25.968C97.2574 25.352 97.4347 24.6893 97.4347 23.98C97.0054 23.7373 96.5014 23.5413 95.9227 23.392C95.344 23.224 94.728 23.14 94.0747 23.14C92.8427 23.14 91.9654 23.392 91.4427 23.896C90.92 24.3813 90.6587 24.9787 90.6587 25.688C90.6587 26.36 90.9107 26.9107 91.4147 27.34C91.9187 27.7693 92.5907 27.984 93.4307 27.984ZM116.019 30.448C114.264 30.448 112.939 29.9253 112.043 28.88C111.166 27.816 110.727 26.3787 110.727 24.568V15.72H113.751V24.148C113.751 25.3613 114.031 26.2573 114.591 26.836C115.17 27.396 115.888 27.676 116.747 27.676C117.512 27.676 118.175 27.48 118.735 27.088C119.314 26.6773 119.752 26.1547 120.051 25.52C120.368 24.8667 120.527 24.1573 120.527 23.392V15.72H123.523V30H120.695V28.068H120.527C120.116 28.74 119.5 29.3093 118.679 29.776C117.876 30.224 116.99 30.448 116.019 30.448ZM127.063 30V27.48L135.015 18.352H127.315V15.72H138.711V18.24L130.787 27.368H138.935V30H127.063Z" fill="#3C4043"/>
<g id="GPay Logo (Light)">
<g id="GPay">
<g id="Pay">
<path id="Fill 1" fill-rule="evenodd" clip-rule="evenodd" d="M190.529 9.44664V17.6128H195.565C196.765 17.6128 197.757 17.2096 198.541 16.4032C199.347 15.5988 199.75 14.6394 199.75 13.5288C199.75 12.4406 199.347 11.4924 198.541 10.686C197.757 9.85915 196.765 9.44478 195.565 9.44478H190.529V9.44664ZM190.529 20.4872V29.9599H187.521V6.57217H195.499C197.527 6.57217 199.248 7.24786 200.666 8.59737C202.105 9.94688 202.824 11.5913 202.824 13.5288C202.824 15.511 202.105 17.1667 200.666 18.4938C199.27 19.8227 197.547 20.4854 195.499 20.4854H190.529V20.4872Z" fill="#5F6368"/>
<path id="Fill 3" fill-rule="evenodd" clip-rule="evenodd" d="M205.864 25.0602C205.864 25.8442 206.197 26.4975 206.862 27.0201C207.527 27.5427 208.306 27.804 209.2 27.804C210.465 27.804 211.591 27.3354 212.584 26.4004C213.576 25.4634 214.071 24.364 214.071 23.1022C213.133 22.3612 211.825 21.9916 210.147 21.9916C208.925 21.9916 207.907 22.2865 207.09 22.8745C206.273 23.4623 205.864 24.1886 205.864 25.0602ZM209.756 13.4317C211.98 13.4317 213.735 14.0252 215.022 15.2124C216.308 16.3995 216.95 18.0271 216.95 20.0952V29.9599H214.073V27.7387H213.942C212.699 29.5677 211.042 30.4825 208.972 30.4825C207.206 30.4825 205.728 29.9599 204.541 28.9146C203.353 27.8694 202.759 26.5628 202.759 24.9949C202.759 23.3393 203.385 22.0232 204.638 21.0434C205.892 20.0635 207.565 19.5726 209.658 19.5726C211.444 19.5726 212.916 19.8992 214.071 20.5525V19.8656C214.071 18.8204 213.656 17.9338 212.829 17.204C211.999 16.4741 211.031 16.1102 209.919 16.1102C208.239 16.1102 206.911 16.8176 205.93 18.2343L203.28 16.5675C204.741 14.4769 206.899 13.4317 209.756 13.4317Z" fill="#5F6368"/>
<path id="Fill 5" fill-rule="evenodd" clip-rule="evenodd" d="M233.463 13.9543L223.424 37.0154H220.318L224.046 28.9464L217.44 13.9543H220.71L225.484 25.4522H225.55L230.193 13.9543H233.463Z" fill="#5F6368"/>
</g>
<g id="G">
<path id="Fill 8" fill-rule="evenodd" clip-rule="evenodd" d="M178.373 18.4452C178.373 17.4989 178.293 16.5861 178.141 15.7126H165.454V20.8885H172.72C172.408 22.5757 171.465 24.0112 170.033 24.9725V28.3341H174.37C176.91 25.9935 178.373 22.5348 178.373 18.4452Z" fill="#4285F4"/>
<path id="Fill 10" fill-rule="evenodd" clip-rule="evenodd" d="M165.454 31.5782C169.084 31.5782 172.141 30.3873 174.37 28.3341L170.033 24.9725C168.826 25.7844 167.272 26.2585 165.454 26.2585C161.944 26.2585 158.966 23.8955 157.901 20.7112H153.433V24.1736C155.647 28.5637 160.197 31.5782 165.454 31.5782Z" fill="#34A853"/>
<path id="Fill 12" fill-rule="evenodd" clip-rule="evenodd" d="M157.901 20.7111C157.628 19.8992 157.479 19.0331 157.479 18.139C157.479 17.245 157.628 16.3789 157.901 15.567V12.1045H153.433C152.518 13.9188 152 15.9683 152 18.139C152 20.3098 152.518 22.3595 153.433 24.1736L157.901 20.7111Z" fill="#FABB05"/>
<path id="Fill 14" fill-rule="evenodd" clip-rule="evenodd" d="M165.454 10.0196C167.436 10.0196 169.213 10.7009 170.615 12.0355V12.0374L174.455 8.20162C172.123 6.03271 169.082 4.7 165.454 4.7C160.197 4.7 155.647 7.71446 153.433 12.1046L157.901 15.567C158.966 12.3827 161.944 10.0196 165.454 10.0196Z" fill="#E94235"/>
</g>
</g>
</g>
</g>
</svg>
