<svg width="134" height="21" viewBox="0 0 134 21" fill="none" xmlns="http://www.w3.org/2000/svg">
<g id="hr_checkout_with_Pay_NBG">
<path id="Left Text" d="M1.83663 15.0006V3.54461H3.91663L9.10063 11.9606H9.19663L9.10063 9.75261V3.54461H10.8446V15.0006H9.02063L3.58063 6.15261H3.48463L3.58063 8.36061V15.0006H1.83663ZM15.618 15.2566C15.0313 15.2566 14.5087 15.1393 14.05 14.9046C13.602 14.6699 13.2447 14.3499 12.978 13.9446C12.722 13.5286 12.594 13.0539 12.594 12.5206C12.594 11.9339 12.7433 11.4379 13.042 11.0326C13.3513 10.6273 13.762 10.3179 14.274 10.1046C14.786 9.89128 15.3513 9.78461 15.97 9.78461C16.3113 9.78461 16.626 9.81128 16.914 9.86461C17.2127 9.90728 17.4687 9.96061 17.682 10.0246C17.906 10.0886 18.082 10.1579 18.21 10.2326V9.80061C18.21 9.26728 18.018 8.84061 17.634 8.52061C17.25 8.20061 16.754 8.04061 16.146 8.04061C15.73 8.04061 15.3353 8.13661 14.962 8.32861C14.5887 8.50994 14.29 8.76061 14.066 9.08061L12.882 8.16861C13.1167 7.83794 13.3993 7.55528 13.73 7.32061C14.0713 7.08594 14.45 6.90461 14.866 6.77661C15.2927 6.64861 15.7353 6.58461 16.194 6.58461C17.378 6.58461 18.29 6.87794 18.93 7.46461C19.57 8.04061 19.89 8.85128 19.89 9.89661V15.0006H18.21V13.9926H18.114C17.9753 14.2059 17.7833 14.4086 17.538 14.6006C17.3033 14.7926 17.0207 14.9473 16.69 15.0646C16.37 15.1926 16.0127 15.2566 15.618 15.2566ZM15.922 13.8486C16.37 13.8486 16.7647 13.7419 17.106 13.5286C17.458 13.3153 17.73 13.0379 17.922 12.6966C18.114 12.3446 18.21 11.9659 18.21 11.5606C17.9753 11.4219 17.6873 11.3099 17.346 11.2246C17.0153 11.1286 16.6633 11.0806 16.29 11.0806C15.586 11.0806 15.0847 11.2193 14.786 11.4966C14.4873 11.7739 14.338 12.1206 14.338 12.5366C14.338 12.9206 14.482 13.2353 14.77 13.4806C15.058 13.7259 15.442 13.8486 15.922 13.8486ZM21.9264 18.4566V6.84061H23.5424V7.94461H23.6384C23.7877 7.70994 23.985 7.49128 24.2304 7.28861C24.4864 7.07528 24.785 6.90461 25.1264 6.77661C25.4677 6.64861 25.8464 6.58461 26.2624 6.58461C27.009 6.58461 27.6757 6.77128 28.2624 7.14461C28.849 7.51794 29.313 8.02994 29.6544 8.68061C30.0064 9.33128 30.1824 10.0779 30.1824 10.9206C30.1824 11.7633 30.0064 12.5099 29.6544 13.1606C29.313 13.8113 28.849 14.3233 28.2624 14.6966C27.6757 15.0699 27.009 15.2566 26.2624 15.2566C25.6437 15.2566 25.105 15.1179 24.6464 14.8406C24.1877 14.5633 23.8517 14.2539 23.6384 13.9126H23.5424L23.6384 15.0486V18.4566H21.9264ZM26.0064 13.6726C26.433 13.6726 26.833 13.5606 27.2064 13.3366C27.5904 13.1126 27.8944 12.7926 28.1184 12.3766C28.353 11.9606 28.4704 11.4753 28.4704 10.9206C28.4704 10.3553 28.353 9.86994 28.1184 9.46461C27.8944 9.04861 27.5904 8.72861 27.2064 8.50461C26.833 8.28061 26.433 8.16861 26.0064 8.16861C25.5797 8.16861 25.1797 8.28061 24.8064 8.50461C24.433 8.72861 24.129 9.04861 23.8944 9.46461C23.6597 9.86994 23.5424 10.3553 23.5424 10.9206C23.5424 11.4859 23.6597 11.9766 23.8944 12.3926C24.129 12.7979 24.433 13.1126 24.8064 13.3366C25.1797 13.5606 25.5797 13.6726 26.0064 13.6726ZM31.7803 15.0006V3.54461H33.5083V15.0006H31.7803ZM38.1774 15.2566C37.5907 15.2566 37.068 15.1393 36.6094 14.9046C36.1614 14.6699 35.804 14.3499 35.5374 13.9446C35.2814 13.5286 35.1534 13.0539 35.1534 12.5206C35.1534 11.9339 35.3027 11.4379 35.6014 11.0326C35.9107 10.6273 36.3214 10.3179 36.8334 10.1046C37.3454 9.89128 37.9107 9.78461 38.5294 9.78461C38.8707 9.78461 39.1854 9.81128 39.4734 9.86461C39.772 9.90728 40.028 9.96061 40.2414 10.0246C40.4654 10.0886 40.6414 10.1579 40.7694 10.2326V9.80061C40.7694 9.26728 40.5774 8.84061 40.1934 8.52061C39.8094 8.20061 39.3134 8.04061 38.7054 8.04061C38.2894 8.04061 37.8947 8.13661 37.5214 8.32861C37.148 8.50994 36.8494 8.76061 36.6254 9.08061L35.4414 8.16861C35.676 7.83794 35.9587 7.55528 36.2894 7.32061C36.6307 7.08594 37.0094 6.90461 37.4254 6.77661C37.852 6.64861 38.2947 6.58461 38.7534 6.58461C39.9374 6.58461 40.8494 6.87794 41.4894 7.46461C42.1294 8.04061 42.4494 8.85128 42.4494 9.89661V15.0006H40.7694V13.9926H40.6734C40.5347 14.2059 40.3427 14.4086 40.0974 14.6006C39.8627 14.7926 39.58 14.9473 39.2494 15.0646C38.9294 15.1926 38.572 15.2566 38.1774 15.2566ZM38.4814 13.8486C38.9294 13.8486 39.324 13.7419 39.6654 13.5286C40.0174 13.3153 40.2894 13.0379 40.4814 12.6966C40.6734 12.3446 40.7694 11.9659 40.7694 11.5606C40.5347 11.4219 40.2467 11.3099 39.9054 11.2246C39.5747 11.1286 39.2227 11.0806 38.8494 11.0806C38.1454 11.0806 37.644 11.2193 37.3454 11.4966C37.0467 11.7739 36.8974 12.1206 36.8974 12.5366C36.8974 12.9206 37.0414 13.2353 37.3294 13.4806C37.6174 13.7259 38.0014 13.8486 38.4814 13.8486ZM43.7855 6.84061H45.2095V4.53661H46.9375V6.84061H48.9375V8.34461H46.9375V12.2646C46.9375 12.6699 47.0175 12.9793 47.1775 13.1926C47.3482 13.4059 47.6308 13.5126 48.0255 13.5126C48.2175 13.5126 48.3882 13.4859 48.5375 13.4326C48.6868 13.3686 48.8362 13.2939 48.9855 13.2086V14.8886C48.8042 14.9633 48.6122 15.0219 48.4095 15.0646C48.2068 15.1073 47.9668 15.1286 47.6895 15.1286C46.9322 15.1286 46.3295 14.9099 45.8815 14.4726C45.4335 14.0246 45.2095 13.4113 45.2095 12.6326V8.34461H43.7855V6.84061ZM53.1493 15.2566C52.5626 15.2566 52.0399 15.1393 51.5813 14.9046C51.1333 14.6699 50.7759 14.3499 50.5093 13.9446C50.2533 13.5286 50.1253 13.0539 50.1253 12.5206C50.1253 11.9339 50.2746 11.4379 50.5733 11.0326C50.8826 10.6273 51.2933 10.3179 51.8053 10.1046C52.3173 9.89128 52.8826 9.78461 53.5013 9.78461C53.8426 9.78461 54.1573 9.81128 54.4453 9.86461C54.7439 9.90728 54.9999 9.96061 55.2133 10.0246C55.4373 10.0886 55.6133 10.1579 55.7413 10.2326V9.80061C55.7413 9.26728 55.5493 8.84061 55.1653 8.52061C54.7813 8.20061 54.2853 8.04061 53.6773 8.04061C53.2613 8.04061 52.8666 8.13661 52.4933 8.32861C52.1199 8.50994 51.8213 8.76061 51.5973 9.08061L50.4133 8.16861C50.6479 7.83794 50.9306 7.55528 51.2613 7.32061C51.6026 7.08594 51.9813 6.90461 52.3973 6.77661C52.8239 6.64861 53.2666 6.58461 53.7253 6.58461C54.9093 6.58461 55.8213 6.87794 56.4613 7.46461C57.1013 8.04061 57.4213 8.85128 57.4213 9.89661V15.0006H55.7413V13.9926H55.6453C55.5066 14.2059 55.3146 14.4086 55.0693 14.6006C54.8346 14.7926 54.5519 14.9473 54.2213 15.0646C53.9013 15.1926 53.5439 15.2566 53.1493 15.2566ZM53.4533 13.8486C53.9013 13.8486 54.2959 13.7419 54.6373 13.5286C54.9893 13.3153 55.2613 13.0379 55.4533 12.6966C55.6453 12.3446 55.7413 11.9659 55.7413 11.5606C55.5066 11.4219 55.2186 11.3099 54.8773 11.2246C54.5466 11.1286 54.1946 11.0806 53.8213 11.0806C53.1173 11.0806 52.6159 11.2193 52.3173 11.4966C52.0186 11.7739 51.8693 12.1206 51.8693 12.5366C51.8693 12.9206 52.0133 13.2353 52.3013 13.4806C52.5893 13.7259 52.9733 13.8486 53.4533 13.8486ZM66.318 15.2566C65.3153 15.2566 64.558 14.9579 64.046 14.3606C63.5447 13.7526 63.294 12.9313 63.294 11.8966V6.84061H65.022V11.6566C65.022 12.3393 65.182 12.8459 65.502 13.1766C65.8327 13.5073 66.2433 13.6726 66.734 13.6726C67.182 13.6726 67.566 13.5606 67.886 13.3366C68.206 13.1019 68.4513 12.7979 68.622 12.4246C68.8033 12.0513 68.894 11.6513 68.894 11.2246V6.84061H70.606V15.0006H68.99V13.8966H68.894C68.7447 14.1526 68.5367 14.3819 68.27 14.5846C68.0033 14.7873 67.7047 14.9473 67.374 15.0646C67.0433 15.1926 66.6913 15.2566 66.318 15.2566ZM72.6076 15.0006V13.5606L77.1516 8.34461H72.7516V6.84061H79.2636V8.28061L74.7356 13.4966H79.3916V15.0006H72.6076Z" fill="white"/>
<g id="GPay (Dark)">
<g id="GPay">
<g id="Pay">
<path id="Fill 1" fill-rule="evenodd" clip-rule="evenodd" d="M108.356 3.42339V8.16175H111.278C111.974 8.16175 112.55 7.92781 113.005 7.45993C113.473 6.99313 113.707 6.43644 113.707 5.79203C113.707 5.16061 113.473 4.61041 113.005 4.14254C112.55 3.66274 111.974 3.4223 111.278 3.4223H108.356V3.42339ZM108.356 9.82966V15.3262H106.611V1.75549H111.24C112.417 1.75549 113.415 2.14756 114.238 2.93061C115.073 3.71365 115.491 4.66782 115.491 5.79203C115.491 6.94224 115.073 7.90291 114.238 8.67296C113.428 9.44409 112.429 9.82858 111.24 9.82858H108.356V9.82966Z" fill="white"/>
<path id="Fill 3" fill-rule="evenodd" clip-rule="evenodd" d="M117.255 12.4831C117.255 12.9379 117.448 13.317 117.834 13.6203C118.22 13.9235 118.672 14.0752 119.19 14.0752C119.924 14.0752 120.578 13.8032 121.153 13.2607C121.729 12.717 122.017 12.0791 122.017 11.3469C121.472 10.917 120.713 10.7025 119.74 10.7025C119.031 10.7025 118.44 10.8736 117.966 11.2148C117.492 11.5559 117.255 11.9773 117.255 12.4831M119.513 5.73566C120.803 5.73566 121.821 6.08007 122.569 6.76889C123.314 7.45771 123.687 8.40213 123.687 9.60216V15.3261H122.018V14.0373H121.942C121.221 15.0985 120.259 15.6294 119.058 15.6294C118.033 15.6294 117.176 15.3261 116.487 14.7196C115.797 14.1131 115.453 13.3549 115.453 12.4452C115.453 11.4845 115.816 10.7208 116.543 10.1523C117.271 9.58375 118.241 9.2989 119.456 9.2989C120.492 9.2989 121.346 9.48844 122.017 9.86751V9.46894C122.017 8.86243 121.776 8.34798 121.296 7.92451C120.814 7.50103 120.252 7.28984 119.607 7.28984C118.633 7.28984 117.862 7.70032 117.293 8.52235L115.755 7.55519C116.603 6.34217 117.855 5.73566 119.513 5.73566" fill="white"/>
<path id="Fill 5" fill-rule="evenodd" clip-rule="evenodd" d="M133.269 6.03894L127.443 19.4201H125.641L127.804 14.738L123.971 6.03894H125.869L128.639 12.7106H128.677L131.371 6.03894H133.269Z" fill="white"/>
</g>
<g id="G">
<path id="Fill 8" fill-rule="evenodd" clip-rule="evenodd" d="M101.303 8.64473C101.303 8.09563 101.256 7.56601 101.168 7.05914H93.8065V10.0625H98.0231C97.842 11.0414 97.2944 11.8744 96.4639 12.4322V14.3828H98.9804C100.454 13.0246 101.303 11.0177 101.303 8.64473" fill="#4285F4"/>
<path id="Fill 10" fill-rule="evenodd" clip-rule="evenodd" d="M93.8065 16.2651C95.9131 16.2651 97.6869 15.5741 98.9804 14.3828L96.4639 12.4322C95.7635 12.9033 94.8614 13.1784 93.8065 13.1784C91.7703 13.1784 90.042 11.8073 89.424 9.95959H86.8316V11.9687C88.1164 14.516 90.7565 16.2651 93.8065 16.2651" fill="#34A853"/>
<path id="Fill 12" fill-rule="evenodd" clip-rule="evenodd" d="M89.424 9.9596C89.2657 9.48847 89.179 8.98593 89.179 8.46715C89.179 7.94837 89.2657 7.44583 89.424 6.9747V4.96564H86.8316C86.3003 6.01837 86 7.20756 86 8.46715C86 9.72674 86.3003 10.916 86.8316 11.9687L89.424 9.9596Z" fill="#FABB05"/>
<path id="Fill 14" fill-rule="evenodd" clip-rule="evenodd" d="M93.8065 3.75583C94.9568 3.75583 95.9879 4.15115 96.8011 4.92553V4.92661L99.0292 2.70094C97.6761 1.44243 95.912 0.669128 93.8065 0.669128C90.7565 0.669128 88.1164 2.41826 86.8316 4.9656L89.424 6.97467C90.042 5.12698 91.7703 3.75583 93.8065 3.75583" fill="#E94235"/>
</g>
</g>
</g>
</g>
</svg>
