<svg width="260" height="38" viewBox="0 0 260 38" fill="none" xmlns="http://www.w3.org/2000/svg">
<g id="hr_donate_with_Dark">
<path id="Text" d="M2.90159 30V9.952H9.31359C11.4229 9.952 13.2336 10.3813 14.7456 11.24C16.2763 12.08 17.4523 13.256 18.2736 14.768C19.1136 16.28 19.5336 18.016 19.5336 19.976C19.5336 21.9547 19.1136 23.7 18.2736 25.212C17.4523 26.7053 16.2763 27.8813 14.7456 28.74C13.2336 29.58 11.4229 30 9.31359 30H2.90159ZM5.98159 27.088H9.22959C11.5069 27.088 13.2709 26.4533 14.5216 25.184C15.7909 23.9147 16.4256 22.1787 16.4256 19.976C16.4256 17.7733 15.7909 16.0373 14.5216 14.768C13.2709 13.4987 11.5069 12.864 9.22959 12.864H5.98159V27.088ZM29.1598 30.448C27.6851 30.448 26.3878 30.112 25.2678 29.44C24.1478 28.768 23.2704 27.8627 22.6358 26.724C22.0011 25.5853 21.6838 24.2973 21.6838 22.86C21.6838 21.4413 22.0011 20.1627 22.6358 19.024C23.2704 17.8667 24.1478 16.952 25.2678 16.28C26.3878 15.608 27.6851 15.272 29.1598 15.272C30.6158 15.272 31.9038 15.608 33.0238 16.28C34.1438 16.952 35.0211 17.8667 35.6558 19.024C36.2904 20.1627 36.6078 21.4413 36.6078 22.86C36.6078 24.2973 36.2904 25.5853 35.6558 26.724C35.0211 27.8627 34.1438 28.768 33.0238 29.44C31.9038 30.112 30.6158 30.448 29.1598 30.448ZM29.1598 27.676C29.9438 27.676 30.6718 27.4893 31.3438 27.116C32.0158 26.724 32.5571 26.1733 32.9678 25.464C33.3971 24.736 33.6118 23.868 33.6118 22.86C33.6118 21.852 33.3971 20.9933 32.9678 20.284C32.5571 19.556 32.0158 19.0053 31.3438 18.632C30.6718 18.24 29.9438 18.044 29.1598 18.044C28.3758 18.044 27.6384 18.24 26.9478 18.632C26.2758 19.0053 25.7251 19.556 25.2958 20.284C24.8851 20.9933 24.6798 21.852 24.6798 22.86C24.6798 23.868 24.8851 24.736 25.2958 25.464C25.7251 26.1733 26.2758 26.724 26.9478 27.116C27.6384 27.4893 28.3758 27.676 29.1598 27.676ZM39.4195 30V15.72H42.2755V17.68H42.4435C42.8541 16.9893 43.4608 16.42 44.2635 15.972C45.0848 15.5053 45.9808 15.272 46.9515 15.272C48.7061 15.272 50.0221 15.7947 50.8995 16.84C51.7768 17.8853 52.2155 19.2667 52.2155 20.984V30H49.2195V21.376C49.2195 20.2187 48.9301 19.3787 48.3515 18.856C47.7728 18.3147 47.0168 18.044 46.0835 18.044C45.3555 18.044 44.7208 18.2493 44.1795 18.66C43.6381 19.052 43.2088 19.5747 42.8915 20.228C42.5928 20.8813 42.4435 21.5813 42.4435 22.328V30H39.4195ZM57.6977 13.62C57.1377 13.62 56.6523 13.424 56.2417 13.032C55.8497 12.6213 55.6537 12.136 55.6537 11.576C55.6537 11.016 55.8497 10.54 56.2417 10.148C56.6523 9.756 57.1377 9.56 57.6977 9.56C58.2577 9.56 58.7337 9.756 59.1257 10.148C59.5363 10.54 59.7417 11.016 59.7417 11.576C59.7417 12.136 59.5363 12.6213 59.1257 13.032C58.7337 13.424 58.2577 13.62 57.6977 13.62ZM56.1857 30V15.72H59.2097V30H56.1857ZM63.2617 30V15.72H66.1177V17.82H66.2857C66.603 17.092 67.1443 16.4947 67.9097 16.028C68.6937 15.5427 69.5337 15.3 70.4297 15.3C70.8217 15.3 71.1483 15.328 71.4097 15.384C71.6897 15.44 71.9417 15.5053 72.1657 15.58V18.716C71.811 18.5667 71.447 18.4453 71.0737 18.352C70.719 18.2587 70.3457 18.212 69.9537 18.212C69.2443 18.212 68.6097 18.408 68.0497 18.8C67.5083 19.1733 67.079 19.6867 66.7617 20.34C66.4443 20.9747 66.2857 21.6747 66.2857 22.44V30H63.2617ZM78.7877 30.448C77.7611 30.448 76.8464 30.252 76.0437 29.86C75.2411 29.4493 74.6157 28.88 74.1677 28.152C73.7197 27.424 73.4957 26.5933 73.4957 25.66C73.4957 24.652 73.7571 23.7933 74.2797 23.084C74.8211 22.356 75.5397 21.8053 76.4357 21.432C77.3317 21.0587 78.3211 20.872 79.4037 20.872C80.2997 20.872 81.0837 20.956 81.7557 21.124C82.4464 21.292 82.9691 21.4693 83.3237 21.656V20.9C83.3237 19.9667 82.9877 19.22 82.3157 18.66C81.6437 18.1 80.7757 17.82 79.7117 17.82C78.9837 17.82 78.2931 17.988 77.6397 18.324C76.9864 18.6413 76.4637 19.08 76.0717 19.64L73.9997 18.044C74.6157 17.1853 75.4277 16.5133 76.4357 16.028C77.4624 15.524 78.5824 15.272 79.7957 15.272C81.8677 15.272 83.4637 15.7853 84.5837 16.812C85.7037 17.82 86.2637 19.2387 86.2637 21.068V30H83.3237V28.236H83.1557C82.7824 28.8147 82.2224 29.328 81.4757 29.776C80.7291 30.224 79.8331 30.448 78.7877 30.448ZM79.3197 27.984C80.1037 27.984 80.7944 27.7973 81.3917 27.424C81.9891 27.0507 82.4557 26.5653 82.7917 25.968C83.1464 25.352 83.3237 24.6893 83.3237 23.98C82.8944 23.7373 82.3904 23.5413 81.8117 23.392C81.2331 23.224 80.6171 23.14 79.9637 23.14C78.7317 23.14 77.8544 23.392 77.3317 23.896C76.8091 24.3813 76.5477 24.9787 76.5477 25.688C76.5477 26.36 76.7997 26.9107 77.3037 27.34C77.8077 27.7693 78.4797 27.984 79.3197 27.984ZM89.8929 30V15.72H92.7489V17.68H92.9169C93.3276 16.9893 93.9342 16.42 94.7369 15.972C95.5582 15.5053 96.4542 15.272 97.4249 15.272C99.1796 15.272 100.496 15.7947 101.373 16.84C102.25 17.8853 102.689 19.2667 102.689 20.984V30H99.6929V21.376C99.6929 20.2187 99.4036 19.3787 98.8249 18.856C98.2462 18.3147 97.4902 18.044 96.5569 18.044C95.8289 18.044 95.1942 18.2493 94.6529 18.66C94.1116 19.052 93.6822 19.5747 93.3649 20.228C93.0662 20.8813 92.9169 21.5813 92.9169 22.328V30H89.8929ZM108.171 13.62C107.611 13.62 107.126 13.424 106.715 13.032C106.323 12.6213 106.127 12.136 106.127 11.576C106.127 11.016 106.323 10.54 106.715 10.148C107.126 9.756 107.611 9.56 108.171 9.56C108.731 9.56 109.207 9.756 109.599 10.148C110.01 10.54 110.215 11.016 110.215 11.576C110.215 12.136 110.01 12.6213 109.599 13.032C109.207 13.424 108.731 13.62 108.171 13.62ZM105.455 36.328C104.876 36.328 104.354 36.2627 103.887 36.132V33.22C104.074 33.332 104.288 33.416 104.531 33.472C104.755 33.5467 104.979 33.584 105.203 33.584C105.744 33.584 106.118 33.416 106.323 33.08C106.547 32.7627 106.659 32.296 106.659 31.68V15.72H109.683V31.708C109.683 33.3507 109.282 34.5267 108.479 35.236C107.676 35.964 106.668 36.328 105.455 36.328ZM120.122 30.448C118.722 30.448 117.472 30.1213 116.37 29.468C115.269 28.8147 114.401 27.9187 113.766 26.78C113.15 25.6413 112.842 24.344 112.842 22.888C112.842 21.5253 113.141 20.2653 113.738 19.108C114.336 17.9507 115.166 17.0267 116.23 16.336C117.313 15.6267 118.554 15.272 119.954 15.272C121.429 15.272 122.68 15.5893 123.706 16.224C124.752 16.8587 125.545 17.7267 126.086 18.828C126.628 19.9293 126.898 21.1707 126.898 22.552C126.898 22.7573 126.889 22.944 126.87 23.112C126.87 23.28 126.861 23.4107 126.842 23.504H115.81C115.96 24.9227 116.454 25.9867 117.294 26.696C118.153 27.4053 119.124 27.76 120.206 27.76C121.177 27.76 121.98 27.5453 122.614 27.116C123.249 26.668 123.753 26.1173 124.126 25.464L126.618 26.668C126.002 27.788 125.162 28.7027 124.098 29.412C123.034 30.1027 121.709 30.448 120.122 30.448ZM119.982 17.848C118.974 17.848 118.116 18.156 117.406 18.772C116.697 19.388 116.221 20.2093 115.978 21.236H123.902C123.865 20.7507 123.706 20.2467 123.426 19.724C123.146 19.2013 122.717 18.7627 122.138 18.408C121.578 18.0347 120.86 17.848 119.982 17.848ZM142.019 30.448C140.264 30.448 138.939 29.9253 138.043 28.88C137.166 27.816 136.727 26.3787 136.727 24.568V15.72H139.751V24.148C139.751 25.3613 140.031 26.2573 140.591 26.836C141.17 27.396 141.888 27.676 142.747 27.676C143.512 27.676 144.175 27.48 144.735 27.088C145.314 26.6773 145.752 26.1547 146.051 25.52C146.368 24.8667 146.527 24.1573 146.527 23.392V15.72H149.523V30H146.695V28.068H146.527C146.116 28.74 145.5 29.3093 144.679 29.776C143.876 30.224 142.99 30.448 142.019 30.448ZM153.063 30V27.48L161.015 18.352H153.315V15.72H164.711V18.24L156.787 27.368H164.935V30H153.063Z" fill="white"/>
<g id="GPay Logo (Dark)">
<g id="GPay">
<g id="Pay">
<path id="Fill 1" fill-rule="evenodd" clip-rule="evenodd" d="M216.529 9.34665V17.5128H221.565C222.765 17.5128 223.757 17.1096 224.541 16.3032C225.347 15.4988 225.75 14.5394 225.75 13.4288C225.75 12.3406 225.347 11.3924 224.541 10.586C223.757 9.75916 222.765 9.34479 221.565 9.34479H216.529V9.34665ZM216.529 20.3872V29.8599H213.521V6.47218H221.499C223.527 6.47218 225.248 7.14787 226.666 8.49738C228.105 9.84688 228.824 11.4913 228.824 13.4288C228.824 15.411 228.105 17.0667 226.666 18.3938C225.27 19.7227 223.547 20.3854 221.499 20.3854H216.529V20.3872Z" fill="white"/>
<path id="Fill 3" fill-rule="evenodd" clip-rule="evenodd" d="M231.864 24.9602C231.864 25.7442 232.197 26.3975 232.862 26.9201C233.527 27.4427 234.306 27.704 235.2 27.704C236.465 27.704 237.591 27.2354 238.584 26.3004C239.576 25.3634 240.071 24.264 240.071 23.0022C239.133 22.2612 237.825 21.8916 236.147 21.8916C234.925 21.8916 233.907 22.1866 233.09 22.7745C232.273 23.3623 231.864 24.0886 231.864 24.9602ZM235.756 13.3317C237.98 13.3317 239.735 13.9253 241.022 15.1124C242.308 16.2995 242.95 17.9271 242.95 19.9952V29.8599H240.073V27.6387H239.942C238.699 29.4677 237.042 30.3825 234.972 30.3825C233.206 30.3825 231.728 29.8599 230.541 28.8146C229.353 27.7694 228.759 26.4628 228.759 24.8949C228.759 23.2393 229.385 21.9232 230.638 20.9434C231.892 19.9635 233.565 19.4726 235.658 19.4726C237.444 19.4726 238.916 19.7993 240.071 20.4525V19.7657C240.071 18.7204 239.656 17.8338 238.829 17.104C237.999 16.3742 237.031 16.0102 235.919 16.0102C234.239 16.0102 232.911 16.7176 231.93 18.1343L229.28 16.4675C230.741 14.377 232.899 13.3317 235.756 13.3317Z" fill="white"/>
<path id="Fill 5" fill-rule="evenodd" clip-rule="evenodd" d="M259.463 13.8543L249.424 36.9154H246.318L250.046 28.8464L243.44 13.8543H246.71L251.484 25.3522H251.55L256.193 13.8543H259.463Z" fill="white"/>
</g>
<g id="G">
<path id="Fill 8" fill-rule="evenodd" clip-rule="evenodd" d="M204.373 18.3452C204.373 17.3989 204.293 16.4861 204.141 15.6126H191.454V20.7885H198.72C198.408 22.4757 197.465 23.9112 196.033 24.8725V28.2341H200.37C202.91 25.8935 204.373 22.4348 204.373 18.3452Z" fill="#4285F4"/>
<path id="Fill 10" fill-rule="evenodd" clip-rule="evenodd" d="M191.454 31.4782C195.084 31.4782 198.141 30.2873 200.37 28.2341L196.033 24.8725C194.826 25.6844 193.272 26.1585 191.454 26.1585C187.944 26.1585 184.966 23.7955 183.901 20.6112H179.433V24.0736C181.647 28.4637 186.197 31.4782 191.454 31.4782Z" fill="#34A853"/>
<path id="Fill 12" fill-rule="evenodd" clip-rule="evenodd" d="M183.901 20.6111C183.628 19.7992 183.479 18.9331 183.479 18.0391C183.479 17.145 183.628 16.2789 183.901 15.467V12.0045H179.433C178.518 13.8188 178 15.8683 178 18.0391C178 20.2098 178.518 22.2595 179.433 24.0736L183.901 20.6111Z" fill="#FABB05"/>
<path id="Fill 14" fill-rule="evenodd" clip-rule="evenodd" d="M191.454 9.91964C193.436 9.91964 195.213 10.6009 196.615 11.9355V11.9374L200.455 8.10163C198.123 5.93272 195.082 4.60001 191.454 4.60001C186.197 4.60001 181.647 7.61447 179.433 12.0046L183.901 15.467C184.966 12.2827 187.944 9.91964 191.454 9.91964Z" fill="#E94235"/>
</g>
</g>
</g>
</g>
</svg>
