<svg width="141" height="21" viewBox="0 0 141 21" fill="none" xmlns="http://www.w3.org/2000/svg">
<g id="hr_donate_with_Pay_NBG">
<path id="Left Text" d="M1.296 15.0006V3.54461H4.96C6.16533 3.54461 7.2 3.78994 8.064 4.28061C8.93867 4.76061 9.61067 5.43261 10.08 6.29661C10.56 7.16061 10.8 8.15261 10.8 9.27261C10.8 10.3926 10.56 11.3846 10.08 12.2486C9.61067 13.1126 8.93867 13.7899 8.064 14.2806C7.2 14.7606 6.16533 15.0006 4.96 15.0006H1.296ZM3.056 13.3366H4.912C5.776 13.3366 6.51733 13.1766 7.136 12.8566C7.75467 12.5259 8.224 12.0566 8.544 11.4486C8.864 10.8406 9.024 10.1153 9.024 9.27261C9.024 8.42994 8.864 7.70461 8.544 7.09661C8.224 6.48861 7.75467 6.02461 7.136 5.70461C6.51733 5.37394 5.776 5.20861 4.912 5.20861H3.056V13.3366ZM16.2792 15.2566C15.4366 15.2566 14.6952 15.0646 14.0552 14.6806C13.4152 14.2966 12.9139 13.7793 12.5512 13.1286C12.1886 12.4673 12.0072 11.7313 12.0072 10.9206C12.0072 10.1099 12.1886 9.37928 12.5512 8.72861C12.9139 8.06728 13.4152 7.54461 14.0552 7.16061C14.6952 6.77661 15.4366 6.58461 16.2792 6.58461C17.1112 6.58461 17.8472 6.78194 18.4872 7.17661C19.1273 7.56061 19.6286 8.07794 19.9913 8.72861C20.3539 9.37928 20.5352 10.1099 20.5352 10.9206C20.5352 11.7313 20.3539 12.4673 19.9913 13.1286C19.6286 13.7793 19.1273 14.2966 18.4872 14.6806C17.8472 15.0646 17.1112 15.2566 16.2792 15.2566ZM16.2792 13.6726C16.7272 13.6726 17.1432 13.5659 17.5272 13.3526C17.9112 13.1286 18.2206 12.8139 18.4552 12.4086C18.7006 11.9926 18.8232 11.4966 18.8232 10.9206C18.8232 10.3446 18.7006 9.85394 18.4552 9.44861C18.2206 9.03261 17.9112 8.71794 17.5272 8.50461C17.1432 8.28061 16.7272 8.16861 16.2792 8.16861C15.8312 8.16861 15.4099 8.28061 15.0152 8.50461C14.6312 8.71794 14.3166 9.03261 14.0712 9.44861C13.8366 9.85394 13.7192 10.3446 13.7192 10.9206C13.7192 11.4966 13.8366 11.9926 14.0712 12.4086C14.3166 12.8139 14.6366 13.1286 15.0312 13.3526C15.4259 13.5659 15.8419 13.6726 16.2792 13.6726ZM22.1205 15.0006V6.84061H23.7525V7.96061H23.8485C24.0832 7.56594 24.4298 7.24061 24.8885 6.98461C25.3578 6.71794 25.8698 6.58461 26.4245 6.58461C27.4272 6.58461 28.1792 6.88328 28.6805 7.48061C29.1818 8.06728 29.4325 8.85661 29.4325 9.84861V15.0006H27.7205V10.0726C27.7205 9.41128 27.5552 8.93128 27.2245 8.63261C26.8938 8.32328 26.4618 8.16861 25.9285 8.16861C25.5125 8.16861 25.1498 8.28594 24.8405 8.52061C24.5312 8.74461 24.2858 9.04328 24.1045 9.41661C23.9338 9.78994 23.8485 10.1899 23.8485 10.6166V15.0006H22.1205ZM34.0336 15.2566C33.447 15.2566 32.9243 15.1393 32.4656 14.9046C32.0176 14.6699 31.6603 14.3499 31.3936 13.9446C31.1376 13.5286 31.0096 13.0539 31.0096 12.5206C31.0096 11.9339 31.159 11.4379 31.4576 11.0326C31.767 10.6273 32.1776 10.3179 32.6896 10.1046C33.2016 9.89128 33.767 9.78461 34.3856 9.78461C34.727 9.78461 35.0416 9.81128 35.3296 9.86461C35.6283 9.90728 35.8843 9.96061 36.0976 10.0246C36.3216 10.0886 36.4976 10.1579 36.6256 10.2326V9.80061C36.6256 9.26728 36.4336 8.84061 36.0496 8.52061C35.6656 8.20061 35.1696 8.04061 34.5616 8.04061C34.1456 8.04061 33.751 8.13661 33.3776 8.32861C33.0043 8.50994 32.7056 8.76061 32.4816 9.08061L31.2976 8.16861C31.5323 7.83794 31.815 7.55528 32.1456 7.32061C32.487 7.08594 32.8656 6.90461 33.2816 6.77661C33.7083 6.64861 34.151 6.58461 34.6096 6.58461C35.7936 6.58461 36.7056 6.87794 37.3456 7.46461C37.9856 8.04061 38.3056 8.85128 38.3056 9.89661V15.0006H36.6256V13.9926H36.5296C36.391 14.2059 36.199 14.4086 35.9536 14.6006C35.719 14.7926 35.4363 14.9473 35.1056 15.0646C34.7856 15.1926 34.4283 15.2566 34.0336 15.2566ZM34.3376 13.8486C34.7856 13.8486 35.1803 13.7419 35.5216 13.5286C35.8736 13.3153 36.1456 13.0379 36.3376 12.6966C36.5296 12.3446 36.6256 11.9659 36.6256 11.5606C36.391 11.4219 36.103 11.3099 35.7616 11.2246C35.431 11.1286 35.079 11.0806 34.7056 11.0806C34.0016 11.0806 33.5003 11.2193 33.2016 11.4966C32.903 11.7739 32.7536 12.1206 32.7536 12.5366C32.7536 12.9206 32.8976 13.2353 33.1856 13.4806C33.4736 13.7259 33.8576 13.8486 34.3376 13.8486ZM44.0559 15.2566C43.2345 15.2566 42.5039 15.0699 41.8639 14.6966C41.2345 14.3233 40.7385 13.8113 40.3759 13.1606C40.0239 12.4993 39.8479 11.7526 39.8479 10.9206C39.8479 10.0886 40.0239 9.34728 40.3759 8.69661C40.7385 8.04594 41.2345 7.53394 41.8639 7.16061C42.5039 6.77661 43.2345 6.58461 44.0559 6.58461C44.9625 6.58461 45.7252 6.78728 46.3439 7.19261C46.9732 7.59794 47.4212 8.14728 47.6879 8.84061L46.1199 9.48061C45.9279 9.04328 45.6505 8.71794 45.2879 8.50461C44.9359 8.28061 44.5145 8.16861 44.0239 8.16861C43.5759 8.16861 43.1652 8.28594 42.7919 8.52061C42.4185 8.74461 42.1199 9.05928 41.8959 9.46461C41.6719 9.86994 41.5599 10.3553 41.5599 10.9206C41.5599 11.4753 41.6719 11.9606 41.8959 12.3766C42.1199 12.7926 42.4185 13.1126 42.7919 13.3366C43.1652 13.5606 43.5759 13.6726 44.0239 13.6726C44.5465 13.6726 44.9892 13.5553 45.3519 13.3206C45.7145 13.0859 45.9972 12.7553 46.1999 12.3286L47.7359 13.0006C47.4372 13.6513 46.9732 14.1899 46.3439 14.6166C45.7252 15.0433 44.9625 15.2566 44.0559 15.2566ZM49.4954 15.0006V6.84061H51.2234V15.0006H49.4954ZM50.3594 5.64061C50.0394 5.64061 49.762 5.52861 49.5274 5.30461C49.3034 5.06994 49.1914 4.79261 49.1914 4.47261C49.1914 4.14194 49.3034 3.86994 49.5274 3.65661C49.762 3.43261 50.0394 3.32061 50.3594 3.32061C50.69 3.32061 50.9674 3.43261 51.1914 3.65661C51.4154 3.86994 51.5274 4.14194 51.5274 4.47261C51.5274 4.79261 51.4154 5.06994 51.1914 5.30461C50.9674 5.52861 50.69 5.64061 50.3594 5.64061ZM52.9574 18.6166C52.7867 18.6166 52.632 18.6059 52.4934 18.5846C52.344 18.5633 52.2 18.5366 52.0614 18.5046V16.8406C52.1574 16.8939 52.2747 16.9419 52.4134 16.9846C52.552 17.0273 52.6854 17.0486 52.8134 17.0486C53.112 17.0486 53.3254 16.9526 53.4534 16.7606C53.5814 16.5793 53.6454 16.3126 53.6454 15.9606V6.84061H55.3734V15.9766C55.3734 16.6059 55.2667 17.1126 55.0534 17.4966C54.8507 17.8806 54.568 18.1633 54.2054 18.3446C53.8427 18.5259 53.4267 18.6166 52.9574 18.6166ZM54.5094 5.64061C54.1894 5.64061 53.912 5.52861 53.6774 5.30461C53.4534 5.06994 53.3414 4.79261 53.3414 4.47261C53.3414 4.14194 53.4534 3.86994 53.6774 3.65661C53.912 3.43261 54.1894 3.32061 54.5094 3.32061C54.84 3.32061 55.1174 3.43261 55.3414 3.65661C55.5654 3.86994 55.6774 4.14194 55.6774 4.47261C55.6774 4.79261 55.5654 5.06994 55.3414 5.30461C55.1174 5.52861 54.84 5.64061 54.5094 5.64061ZM60.1492 15.2566C59.5626 15.2566 59.0399 15.1393 58.5812 14.9046C58.1332 14.6699 57.7759 14.3499 57.5092 13.9446C57.2532 13.5286 57.1252 13.0539 57.1252 12.5206C57.1252 11.9339 57.2746 11.4379 57.5732 11.0326C57.8826 10.6273 58.2932 10.3179 58.8052 10.1046C59.3172 9.89128 59.8826 9.78461 60.5012 9.78461C60.8426 9.78461 61.1572 9.81128 61.4452 9.86461C61.7439 9.90728 61.9999 9.96061 62.2132 10.0246C62.4372 10.0886 62.6132 10.1579 62.7412 10.2326V9.80061C62.7412 9.26728 62.5492 8.84061 62.1652 8.52061C61.7812 8.20061 61.2852 8.04061 60.6772 8.04061C60.2612 8.04061 59.8666 8.13661 59.4932 8.32861C59.1199 8.50994 58.8212 8.76061 58.5972 9.08061L57.4132 8.16861C57.6479 7.83794 57.9306 7.55528 58.2612 7.32061C58.6026 7.08594 58.9812 6.90461 59.3972 6.77661C59.8239 6.64861 60.2666 6.58461 60.7252 6.58461C61.9092 6.58461 62.8212 6.87794 63.4612 7.46461C64.1012 8.04061 64.4212 8.85128 64.4212 9.89661V15.0006H62.7412V13.9926H62.6452C62.5066 14.2059 62.3146 14.4086 62.0692 14.6006C61.8346 14.7926 61.5519 14.9473 61.2212 15.0646C60.9012 15.1926 60.5439 15.2566 60.1492 15.2566ZM60.4532 13.8486C60.9012 13.8486 61.2959 13.7419 61.6372 13.5286C61.9892 13.3153 62.2612 13.0379 62.4532 12.6966C62.6452 12.3446 62.7412 11.9659 62.7412 11.5606C62.5066 11.4219 62.2186 11.3099 61.8772 11.2246C61.5466 11.1286 61.1946 11.0806 60.8212 11.0806C60.1172 11.0806 59.6159 11.2193 59.3172 11.4966C59.0186 11.7739 58.8692 12.1206 58.8692 12.5366C58.8692 12.9206 59.0132 13.2353 59.3012 13.4806C59.5892 13.7259 59.9732 13.8486 60.4532 13.8486ZM73.318 15.2566C72.3153 15.2566 71.558 14.9579 71.046 14.3606C70.5447 13.7526 70.294 12.9313 70.294 11.8966V6.84061H72.022V11.6566C72.022 12.3393 72.182 12.8459 72.502 13.1766C72.8327 13.5073 73.2433 13.6726 73.734 13.6726C74.182 13.6726 74.566 13.5606 74.886 13.3366C75.206 13.1019 75.4513 12.7979 75.622 12.4246C75.8033 12.0513 75.894 11.6513 75.894 11.2246V6.84061H77.606V15.0006H75.99V13.8966H75.894C75.7447 14.1526 75.5367 14.3819 75.27 14.5846C75.0033 14.7873 74.7047 14.9473 74.374 15.0646C74.0433 15.1926 73.6913 15.2566 73.318 15.2566ZM79.6076 15.0006V13.5606L84.1516 8.34461H79.7516V6.84061H86.2636V8.28061L81.7356 13.4966H86.3916V15.0006H79.6076Z" fill="white"/>
<g id="GPay (Dark)">
<g id="GPay">
<g id="Pay">
<path id="Fill 1" fill-rule="evenodd" clip-rule="evenodd" d="M115.356 3.42339V8.16175H118.278C118.974 8.16175 119.55 7.92781 120.005 7.45993C120.473 6.99313 120.707 6.43644 120.707 5.79203C120.707 5.16061 120.473 4.61041 120.005 4.14254C119.55 3.66274 118.974 3.4223 118.278 3.4223H115.356V3.42339ZM115.356 9.82966V15.3262H113.611V1.75549H118.24C119.417 1.75549 120.415 2.14756 121.238 2.93061C122.073 3.71365 122.491 4.66782 122.491 5.79203C122.491 6.94224 122.073 7.90291 121.238 8.67296C120.428 9.44409 119.429 9.82858 118.24 9.82858H115.356V9.82966Z" fill="white"/>
<path id="Fill 3" fill-rule="evenodd" clip-rule="evenodd" d="M124.255 12.4831C124.255 12.9379 124.448 13.317 124.834 13.6203C125.22 13.9235 125.672 14.0752 126.19 14.0752C126.924 14.0752 127.578 13.8032 128.153 13.2607C128.729 12.717 129.017 12.0791 129.017 11.3469C128.472 10.917 127.713 10.7025 126.74 10.7025C126.031 10.7025 125.44 10.8736 124.966 11.2148C124.492 11.5559 124.255 11.9773 124.255 12.4831M126.513 5.73566C127.803 5.73566 128.821 6.08007 129.569 6.76889C130.314 7.45771 130.687 8.40213 130.687 9.60216V15.3261H129.018V14.0373H128.942C128.221 15.0985 127.259 15.6294 126.058 15.6294C125.033 15.6294 124.176 15.3261 123.487 14.7196C122.797 14.1131 122.453 13.3549 122.453 12.4452C122.453 11.4845 122.816 10.7208 123.543 10.1523C124.271 9.58375 125.241 9.2989 126.456 9.2989C127.492 9.2989 128.346 9.48844 129.017 9.86751V9.46894C129.017 8.86243 128.776 8.34798 128.296 7.92451C127.814 7.50103 127.252 7.28984 126.607 7.28984C125.633 7.28984 124.862 7.70032 124.293 8.52235L122.755 7.55519C123.603 6.34217 124.855 5.73566 126.513 5.73566" fill="white"/>
<path id="Fill 5" fill-rule="evenodd" clip-rule="evenodd" d="M140.269 6.03894L134.443 19.4201H132.641L134.804 14.738L130.971 6.03894H132.869L135.639 12.7106H135.677L138.371 6.03894H140.269Z" fill="white"/>
</g>
<g id="G">
<path id="Fill 8" fill-rule="evenodd" clip-rule="evenodd" d="M108.303 8.64473C108.303 8.09563 108.256 7.56601 108.168 7.05914H100.806V10.0625H105.023C104.842 11.0414 104.294 11.8744 103.464 12.4322V14.3828H105.98C107.454 13.0246 108.303 11.0177 108.303 8.64473" fill="#4285F4"/>
<path id="Fill 10" fill-rule="evenodd" clip-rule="evenodd" d="M100.806 16.2651C102.913 16.2651 104.687 15.5741 105.98 14.3828L103.464 12.4322C102.763 12.9033 101.861 13.1784 100.806 13.1784C98.7703 13.1784 97.042 11.8073 96.424 9.95959H93.8316V11.9687C95.1164 14.516 97.7565 16.2651 100.806 16.2651" fill="#34A853"/>
<path id="Fill 12" fill-rule="evenodd" clip-rule="evenodd" d="M96.424 9.9596C96.2657 9.48847 96.179 8.98593 96.179 8.46715C96.179 7.94837 96.2657 7.44583 96.424 6.9747V4.96564H93.8316C93.3003 6.01837 93 7.20756 93 8.46715C93 9.72674 93.3003 10.916 93.8316 11.9687L96.424 9.9596Z" fill="#FABB05"/>
<path id="Fill 14" fill-rule="evenodd" clip-rule="evenodd" d="M100.806 3.75583C101.957 3.75583 102.988 4.15115 103.801 4.92553V4.92661L106.029 2.70094C104.676 1.44243 102.912 0.669128 100.806 0.669128C97.7565 0.669128 95.1164 2.41826 93.8316 4.9656L96.424 6.97467C97.042 5.12698 98.7703 3.75583 100.806 3.75583" fill="#E94235"/>
</g>
</g>
</g>
</g>
</svg>
