<svg width="290" height="38" viewBox="0 0 290 38" fill="none" xmlns="http://www.w3.org/2000/svg">
<g id="hr_order_with_Light">
<path id="Text" d="M2.5516 30V9.952H6.1916L15.2636 24.68H15.4316L15.2636 20.816V9.952H18.3156V30H15.1236L5.6036 14.516H5.4356L5.6036 18.38V30H2.5516ZM26.7065 30.448C25.6798 30.448 24.7652 30.252 23.9625 29.86C23.1598 29.4493 22.5345 28.88 22.0865 28.152C21.6385 27.424 21.4145 26.5933 21.4145 25.66C21.4145 24.652 21.6758 23.7933 22.1985 23.084C22.7398 22.356 23.4585 21.8053 24.3545 21.432C25.2505 21.0587 26.2398 20.872 27.3225 20.872C28.2185 20.872 29.0025 20.956 29.6745 21.124C30.3652 21.292 30.8878 21.4693 31.2425 21.656V20.9C31.2425 19.9667 30.9065 19.22 30.2345 18.66C29.5625 18.1 28.6945 17.82 27.6305 17.82C26.9025 17.82 26.2118 17.988 25.5585 18.324C24.9052 18.6413 24.3825 19.08 23.9905 19.64L21.9185 18.044C22.5345 17.1853 23.3465 16.5133 24.3545 16.028C25.3812 15.524 26.5012 15.272 27.7145 15.272C29.7865 15.272 31.3825 15.7853 32.5025 16.812C33.6225 17.82 34.1825 19.2387 34.1825 21.068V30H31.2425V28.236H31.0745C30.7012 28.8147 30.1412 29.328 29.3945 29.776C28.6478 30.224 27.7518 30.448 26.7065 30.448ZM27.2385 27.984C28.0225 27.984 28.7132 27.7973 29.3105 27.424C29.9078 27.0507 30.3745 26.5653 30.7105 25.968C31.0652 25.352 31.2425 24.6893 31.2425 23.98C30.8132 23.7373 30.3092 23.5413 29.7305 23.392C29.1518 23.224 28.5358 23.14 27.8825 23.14C26.6505 23.14 25.7732 23.392 25.2505 23.896C24.7278 24.3813 24.4665 24.9787 24.4665 25.688C24.4665 26.36 24.7185 26.9107 25.2225 27.34C25.7265 27.7693 26.3985 27.984 27.2385 27.984ZM37.8117 30V15.72H40.6677V17.82H40.8357C41.153 17.092 41.6943 16.4947 42.4597 16.028C43.2437 15.5427 44.0837 15.3 44.9797 15.3C45.3717 15.3 45.6983 15.328 45.9597 15.384C46.2397 15.44 46.4917 15.5053 46.7157 15.58V18.716C46.361 18.5667 45.997 18.4453 45.6237 18.352C45.269 18.2587 44.8957 18.212 44.5037 18.212C43.7943 18.212 43.1597 18.408 42.5997 18.8C42.0583 19.1733 41.629 19.6867 41.3117 20.34C40.9943 20.9747 40.8357 21.6747 40.8357 22.44V30H37.8117ZM54.5299 30.448C52.7753 30.448 51.4499 29.9253 50.5539 28.88C49.6766 27.816 49.2379 26.3787 49.2379 24.568V15.72H52.2619V24.148C52.2619 25.3613 52.5419 26.2573 53.1019 26.836C53.6806 27.396 54.3993 27.676 55.2579 27.676C56.0233 27.676 56.6859 27.48 57.2459 27.088C57.8246 26.6773 58.2633 26.1547 58.5619 25.52C58.8793 24.8667 59.0379 24.1573 59.0379 23.392V15.72H62.0339V30H59.2059V28.068H59.0379C58.6273 28.74 58.0113 29.3093 57.1899 29.776C56.3873 30.224 55.5006 30.448 54.5299 30.448ZM72.3634 30.448C70.9261 30.448 69.6567 30.1213 68.5554 29.468C67.4541 28.8147 66.5861 27.9187 65.9514 26.78C65.3167 25.6227 64.9994 24.316 64.9994 22.86C64.9994 21.404 65.3167 20.1067 65.9514 18.968C66.5861 17.8107 67.4541 16.9053 68.5554 16.252C69.6567 15.5987 70.9261 15.272 72.3634 15.272C73.9501 15.272 75.2847 15.6267 76.3674 16.336C77.4687 17.0453 78.2527 18.0067 78.7194 19.22L75.9754 20.34C75.3221 18.8093 74.0994 18.044 72.3074 18.044C71.5234 18.044 70.8047 18.2493 70.1514 18.66C69.4981 19.052 68.9754 19.612 68.5834 20.34C68.1914 21.0493 67.9954 21.8893 67.9954 22.86C67.9954 23.8307 68.1914 24.68 68.5834 25.408C68.9754 26.136 69.4981 26.696 70.1514 27.088C70.8047 27.48 71.5234 27.676 72.3074 27.676C73.2221 27.676 73.9967 27.4707 74.6314 27.06C75.2661 26.6307 75.7607 26.052 76.1154 25.324L78.8034 26.5C78.2994 27.6387 77.4967 28.5813 76.3954 29.328C75.2941 30.0747 73.9501 30.448 72.3634 30.448ZM71.0474 12.976L68.0514 9.588V9.392H70.9354L72.2234 11.128H72.5034L73.8194 9.392H76.7314V9.588L73.7074 12.976H71.0474ZM83.432 13.62C82.872 13.62 82.3867 13.424 81.976 13.032C81.584 12.6213 81.388 12.136 81.388 11.576C81.388 11.016 81.584 10.54 81.976 10.148C82.3867 9.756 82.872 9.56 83.432 9.56C83.992 9.56 84.468 9.756 84.86 10.148C85.2707 10.54 85.476 11.016 85.476 11.576C85.476 12.136 85.2707 12.6213 84.86 13.032C84.468 13.424 83.992 13.62 83.432 13.62ZM81.92 30V15.72H84.944V30H81.92ZM93.336 30L87.428 15.72H90.788L94.792 26.108H94.932L99.02 15.72H102.324L96.36 30H93.336ZM108.788 30.448C107.761 30.448 106.846 30.252 106.044 29.86C105.241 29.4493 104.616 28.88 104.168 28.152C103.72 27.424 103.496 26.5933 103.496 25.66C103.496 24.652 103.757 23.7933 104.28 23.084C104.821 22.356 105.54 21.8053 106.436 21.432C107.332 21.0587 108.321 20.872 109.404 20.872C110.3 20.872 111.084 20.956 111.756 21.124C112.446 21.292 112.969 21.4693 113.324 21.656V20.9C113.324 19.9667 112.988 19.22 112.316 18.66C111.644 18.1 110.776 17.82 109.712 17.82C108.984 17.82 108.293 17.988 107.64 18.324C106.986 18.6413 106.464 19.08 106.072 19.64L104 18.044C104.616 17.1853 105.428 16.5133 106.436 16.028C107.462 15.524 108.582 15.272 109.796 15.272C111.868 15.272 113.464 15.7853 114.584 16.812C115.704 17.82 116.264 19.2387 116.264 21.068V30H113.324V28.236H113.156C112.782 28.8147 112.222 29.328 111.476 29.776C110.729 30.224 109.833 30.448 108.788 30.448ZM109.32 27.984C110.104 27.984 110.794 27.7973 111.392 27.424C111.989 27.0507 112.456 26.5653 112.792 25.968C113.146 25.352 113.324 24.6893 113.324 23.98C112.894 23.7373 112.39 23.5413 111.812 23.392C111.233 23.224 110.617 23.14 109.964 23.14C108.732 23.14 107.854 23.392 107.332 23.896C106.809 24.3813 106.548 24.9787 106.548 25.688C106.548 26.36 106.8 26.9107 107.304 27.34C107.808 27.7693 108.48 27.984 109.32 27.984ZM119.893 30V15.72H122.749V17.68H122.917C123.328 16.9893 123.934 16.42 124.737 15.972C125.558 15.5053 126.454 15.272 127.425 15.272C129.18 15.272 130.496 15.7947 131.373 16.84C132.25 17.8853 132.689 19.2667 132.689 20.984V30H129.693V21.376C129.693 20.2187 129.404 19.3787 128.825 18.856C128.246 18.3147 127.49 18.044 126.557 18.044C125.829 18.044 125.194 18.2493 124.653 18.66C124.112 19.052 123.682 19.5747 123.365 20.228C123.066 20.8813 122.917 21.5813 122.917 22.328V30H119.893ZM138.171 13.62C137.611 13.62 137.126 13.424 136.715 13.032C136.323 12.6213 136.127 12.136 136.127 11.576C136.127 11.016 136.323 10.54 136.715 10.148C137.126 9.756 137.611 9.56 138.171 9.56C138.731 9.56 139.207 9.756 139.599 10.148C140.01 10.54 140.215 11.016 140.215 11.576C140.215 12.136 140.01 12.6213 139.599 13.032C139.207 13.424 138.731 13.62 138.171 13.62ZM135.455 36.328C134.876 36.328 134.354 36.2627 133.887 36.132V33.22C134.074 33.332 134.288 33.416 134.531 33.472C134.755 33.5467 134.979 33.584 135.203 33.584C135.744 33.584 136.118 33.416 136.323 33.08C136.547 32.7627 136.659 32.296 136.659 31.68V15.72H139.683V31.708C139.683 33.3507 139.282 34.5267 138.479 35.236C137.676 35.964 136.668 36.328 135.455 36.328ZM150.122 30.448C148.722 30.448 147.472 30.1213 146.37 29.468C145.269 28.8147 144.401 27.9187 143.766 26.78C143.15 25.6413 142.842 24.344 142.842 22.888C142.842 21.5253 143.141 20.2653 143.738 19.108C144.336 17.9507 145.166 17.0267 146.23 16.336C147.313 15.6267 148.554 15.272 149.954 15.272C151.429 15.272 152.68 15.5893 153.706 16.224C154.752 16.8587 155.545 17.7267 156.086 18.828C156.628 19.9293 156.898 21.1707 156.898 22.552C156.898 22.7573 156.889 22.944 156.87 23.112C156.87 23.28 156.861 23.4107 156.842 23.504H145.81C145.96 24.9227 146.454 25.9867 147.294 26.696C148.153 27.4053 149.124 27.76 150.206 27.76C151.177 27.76 151.98 27.5453 152.614 27.116C153.249 26.668 153.753 26.1173 154.126 25.464L156.618 26.668C156.002 27.788 155.162 28.7027 154.098 29.412C153.034 30.1027 151.709 30.448 150.122 30.448ZM149.982 17.848C148.974 17.848 148.116 18.156 147.406 18.772C146.697 19.388 146.221 20.2093 145.978 21.236H153.902C153.865 20.7507 153.706 20.2467 153.426 19.724C153.146 19.2013 152.717 18.7627 152.138 18.408C151.578 18.0347 150.86 17.848 149.982 17.848ZM172.019 30.448C170.264 30.448 168.939 29.9253 168.043 28.88C167.166 27.816 166.727 26.3787 166.727 24.568V15.72H169.751V24.148C169.751 25.3613 170.031 26.2573 170.591 26.836C171.17 27.396 171.888 27.676 172.747 27.676C173.512 27.676 174.175 27.48 174.735 27.088C175.314 26.6773 175.752 26.1547 176.051 25.52C176.368 24.8667 176.527 24.1573 176.527 23.392V15.72H179.523V30H176.695V28.068H176.527C176.116 28.74 175.5 29.3093 174.679 29.776C173.876 30.224 172.99 30.448 172.019 30.448ZM183.063 30V27.48L191.015 18.352H183.315V15.72H194.711V18.24L186.787 27.368H194.935V30H183.063Z" fill="#3C4043"/>
<g id="GPay Logo (Light)">
<g id="GPay">
<g id="Pay">
<path id="Fill 1" fill-rule="evenodd" clip-rule="evenodd" d="M246.529 9.44664V17.6128H251.565C252.765 17.6128 253.757 17.2096 254.541 16.4032C255.347 15.5988 255.75 14.6394 255.75 13.5288C255.75 12.4406 255.347 11.4924 254.541 10.686C253.757 9.85915 252.765 9.44478 251.565 9.44478H246.529V9.44664ZM246.529 20.4872V29.9599H243.521V6.57217H251.499C253.527 6.57217 255.248 7.24786 256.666 8.59737C258.105 9.94688 258.824 11.5913 258.824 13.5288C258.824 15.511 258.105 17.1667 256.666 18.4938C255.27 19.8227 253.547 20.4854 251.499 20.4854H246.529V20.4872Z" fill="#5F6368"/>
<path id="Fill 3" fill-rule="evenodd" clip-rule="evenodd" d="M261.864 25.0602C261.864 25.8442 262.197 26.4975 262.862 27.0201C263.527 27.5427 264.306 27.804 265.2 27.804C266.465 27.804 267.591 27.3354 268.584 26.4004C269.576 25.4634 270.071 24.364 270.071 23.1022C269.133 22.3612 267.825 21.9916 266.147 21.9916C264.925 21.9916 263.907 22.2865 263.09 22.8745C262.273 23.4623 261.864 24.1886 261.864 25.0602ZM265.756 13.4317C267.98 13.4317 269.735 14.0252 271.022 15.2124C272.308 16.3995 272.95 18.0271 272.95 20.0952V29.9599H270.073V27.7387H269.942C268.699 29.5677 267.042 30.4825 264.972 30.4825C263.206 30.4825 261.728 29.9599 260.541 28.9146C259.353 27.8694 258.759 26.5628 258.759 24.9949C258.759 23.3393 259.385 22.0232 260.638 21.0434C261.892 20.0635 263.565 19.5726 265.658 19.5726C267.444 19.5726 268.916 19.8992 270.071 20.5525V19.8656C270.071 18.8204 269.656 17.9338 268.829 17.204C267.999 16.4741 267.031 16.1102 265.919 16.1102C264.239 16.1102 262.911 16.8176 261.93 18.2343L259.28 16.5675C260.741 14.4769 262.899 13.4317 265.756 13.4317Z" fill="#5F6368"/>
<path id="Fill 5" fill-rule="evenodd" clip-rule="evenodd" d="M289.463 13.9543L279.424 37.0154H276.318L280.046 28.9464L273.44 13.9543H276.71L281.484 25.4522H281.55L286.193 13.9543H289.463Z" fill="#5F6368"/>
</g>
<g id="G">
<path id="Fill 8" fill-rule="evenodd" clip-rule="evenodd" d="M234.373 18.4452C234.373 17.4989 234.293 16.5861 234.141 15.7126H221.454V20.8885H228.72C228.408 22.5757 227.465 24.0112 226.033 24.9725V28.3341H230.37C232.91 25.9935 234.373 22.5348 234.373 18.4452Z" fill="#4285F4"/>
<path id="Fill 10" fill-rule="evenodd" clip-rule="evenodd" d="M221.454 31.5782C225.084 31.5782 228.141 30.3873 230.37 28.3341L226.033 24.9725C224.826 25.7844 223.272 26.2585 221.454 26.2585C217.944 26.2585 214.966 23.8955 213.901 20.7112H209.433V24.1736C211.647 28.5637 216.197 31.5782 221.454 31.5782Z" fill="#34A853"/>
<path id="Fill 12" fill-rule="evenodd" clip-rule="evenodd" d="M213.901 20.7111C213.628 19.8992 213.479 19.0331 213.479 18.139C213.479 17.245 213.628 16.3789 213.901 15.567V12.1045H209.433C208.518 13.9188 208 15.9683 208 18.139C208 20.3098 208.518 22.3595 209.433 24.1736L213.901 20.7111Z" fill="#FABB05"/>
<path id="Fill 14" fill-rule="evenodd" clip-rule="evenodd" d="M221.454 10.0196C223.436 10.0196 225.213 10.7009 226.615 12.0355V12.0374L230.455 8.20162C228.123 6.03271 225.082 4.7 221.454 4.7C216.197 4.7 211.647 7.71446 209.433 12.1046L213.901 15.567C214.966 12.3827 217.944 10.0196 221.454 10.0196Z" fill="#E94235"/>
</g>
</g>
</g>
</g>
</svg>
