<svg width="150" height="21" viewBox="0 0 150 21" fill="none" xmlns="http://www.w3.org/2000/svg">
<g id="hr_order_with_Pay_NBG">
<path id="Left Text" d="M2.01475 15.0006V3.54461H4.09475L9.27875 11.9606H9.37475L9.27875 9.75261V3.54461H11.0228V15.0006H9.19875L3.75875 6.15261H3.66275L3.75875 8.36061V15.0006H2.01475ZM15.7961 15.2566C15.2095 15.2566 14.6868 15.1393 14.2281 14.9046C13.7801 14.6699 13.4228 14.3499 13.1561 13.9446C12.9001 13.5286 12.7721 13.0539 12.7721 12.5206C12.7721 11.9339 12.9215 11.4379 13.2201 11.0326C13.5295 10.6273 13.9401 10.3179 14.4521 10.1046C14.9641 9.89128 15.5295 9.78461 16.1481 9.78461C16.4895 9.78461 16.8041 9.81128 17.0921 9.86461C17.3908 9.90728 17.6468 9.96061 17.8601 10.0246C18.0841 10.0886 18.2601 10.1579 18.3881 10.2326V9.80061C18.3881 9.26728 18.1961 8.84061 17.8121 8.52061C17.4281 8.20061 16.9321 8.04061 16.3241 8.04061C15.9081 8.04061 15.5135 8.13661 15.1401 8.32861C14.7668 8.50994 14.4681 8.76061 14.2441 9.08061L13.0601 8.16861C13.2948 7.83794 13.5775 7.55528 13.9081 7.32061C14.2495 7.08594 14.6281 6.90461 15.0441 6.77661C15.4708 6.64861 15.9135 6.58461 16.3721 6.58461C17.5561 6.58461 18.4681 6.87794 19.1081 7.46461C19.7481 8.04061 20.0681 8.85128 20.0681 9.89661V15.0006H18.3881V13.9926H18.2921C18.1535 14.2059 17.9615 14.4086 17.7161 14.6006C17.4815 14.7926 17.1988 14.9473 16.8681 15.0646C16.5481 15.1926 16.1908 15.2566 15.7961 15.2566ZM16.1001 13.8486C16.5481 13.8486 16.9428 13.7419 17.2841 13.5286C17.6361 13.3153 17.9081 13.0379 18.1001 12.6966C18.2921 12.3446 18.3881 11.9659 18.3881 11.5606C18.1535 11.4219 17.8655 11.3099 17.5241 11.2246C17.1935 11.1286 16.8415 11.0806 16.4681 11.0806C15.7641 11.0806 15.2628 11.2193 14.9641 11.4966C14.6655 11.7739 14.5161 12.1206 14.5161 12.5366C14.5161 12.9206 14.6601 13.2353 14.9481 13.4806C15.2361 13.7259 15.6201 13.8486 16.1001 13.8486ZM22.1205 15.0006V6.84061H23.7525V8.04061H23.8485C23.9765 7.76328 24.1578 7.51794 24.3925 7.30461C24.6378 7.09128 24.9152 6.92061 25.2245 6.79261C25.5445 6.66461 25.8752 6.60061 26.2165 6.60061C26.4405 6.60061 26.6272 6.61661 26.7765 6.64861C26.9365 6.66994 27.0805 6.70728 27.2085 6.76061V8.55261C27.0058 8.46728 26.7978 8.39794 26.5845 8.34461C26.3818 8.29128 26.1685 8.26461 25.9445 8.26461C25.5392 8.26461 25.1765 8.37661 24.8565 8.60061C24.5472 8.81394 24.3018 9.10194 24.1205 9.46461C23.9392 9.82728 23.8485 10.2326 23.8485 10.6806V15.0006H22.1205ZM31.6524 15.2566C30.6497 15.2566 29.8924 14.9579 29.3804 14.3606C28.879 13.7526 28.6284 12.9313 28.6284 11.8966V6.84061H30.3564V11.6566C30.3564 12.3393 30.5164 12.8459 30.8364 13.1766C31.167 13.5073 31.5777 13.6726 32.0684 13.6726C32.5164 13.6726 32.9004 13.5606 33.2204 13.3366C33.5404 13.1019 33.7857 12.7979 33.9564 12.4246C34.1377 12.0513 34.2284 11.6513 34.2284 11.2246V6.84061H35.9404V15.0006H34.3244V13.8966H34.2284C34.079 14.1526 33.871 14.3819 33.6044 14.5846C33.3377 14.7873 33.039 14.9473 32.7084 15.0646C32.3777 15.1926 32.0257 15.2566 31.6524 15.2566ZM41.5335 15.2566C40.7975 15.2566 40.1308 15.0699 39.5335 14.6966C38.9362 14.3233 38.4668 13.8113 38.1255 13.1606C37.7842 12.5099 37.6135 11.7633 37.6135 10.9206C37.6135 10.0779 37.7842 9.33128 38.1255 8.68061C38.4668 8.02994 38.9362 7.51794 39.5335 7.14461C40.1308 6.77128 40.7975 6.58461 41.5335 6.58461C41.9602 6.58461 42.3442 6.64861 42.6855 6.77661C43.0268 6.90461 43.3202 7.07528 43.5655 7.28861C43.8215 7.49128 44.0188 7.70994 44.1575 7.94461H44.2535L44.1575 6.80861V3.54461H45.8695V15.0006H44.2535V13.9126H44.1575C44.0188 14.1366 43.8215 14.3553 43.5655 14.5686C43.3202 14.7713 43.0268 14.9366 42.6855 15.0646C42.3442 15.1926 41.9602 15.2566 41.5335 15.2566ZM41.7895 13.6726C42.2162 13.6726 42.6162 13.5606 42.9895 13.3366C43.3735 13.1126 43.6775 12.7979 43.9015 12.3926C44.1362 11.9766 44.2535 11.4859 44.2535 10.9206C44.2535 10.3553 44.1362 9.86994 43.9015 9.46461C43.6775 9.04861 43.3735 8.72861 42.9895 8.50461C42.6162 8.28061 42.2162 8.16861 41.7895 8.16861C41.3628 8.16861 40.9628 8.28061 40.5895 8.50461C40.2162 8.72861 39.9122 9.04861 39.6775 9.46461C39.4428 9.86994 39.3255 10.3553 39.3255 10.9206C39.3255 11.4753 39.4428 11.9606 39.6775 12.3766C39.9122 12.7926 40.2162 13.1126 40.5895 13.3366C40.9628 13.5606 41.3628 13.6726 41.7895 13.6726ZM47.8733 15.0006V13.5606L52.4173 8.34461H48.0173V6.84061H54.5293V8.28061L50.0013 13.4966H54.6573V15.0006H47.8733ZM50.5293 5.27261L48.8173 3.33661V3.22461H50.4653L51.2013 4.21661H51.3613L52.1133 3.22461H53.7773V3.33661L52.0493 5.27261H50.5293ZM60.9319 15.2566C60.5159 15.2566 60.1372 15.1926 59.7959 15.0646C59.4545 14.9366 59.1559 14.7713 58.8999 14.5686C58.6545 14.3553 58.4572 14.1366 58.3079 13.9126H58.2119V15.0006H56.5799V3.54461H58.3079V6.80861L58.2119 7.94461H58.3079C58.4572 7.70994 58.6545 7.49128 58.8999 7.28861C59.1559 7.07528 59.4545 6.90461 59.7959 6.77661C60.1372 6.64861 60.5159 6.58461 60.9319 6.58461C61.6785 6.58461 62.3452 6.77128 62.9319 7.14461C63.5185 7.51794 63.9825 8.02994 64.3239 8.68061C64.6759 9.33128 64.8519 10.0779 64.8519 10.9206C64.8519 11.7633 64.6759 12.5099 64.3239 13.1606C63.9825 13.8113 63.5185 14.3233 62.9319 14.6966C62.3452 15.0699 61.6785 15.2566 60.9319 15.2566ZM60.6759 13.6726C61.1025 13.6726 61.5025 13.5606 61.8759 13.3366C62.2599 13.1126 62.5639 12.7926 62.7879 12.3766C63.0225 11.9606 63.1399 11.4753 63.1399 10.9206C63.1399 10.3553 63.0225 9.86994 62.7879 9.46461C62.5639 9.04861 62.2599 8.72861 61.8759 8.50461C61.5025 8.28061 61.1025 8.16861 60.6759 8.16861C60.2492 8.16861 59.8492 8.28061 59.4759 8.50461C59.1025 8.72861 58.7985 9.04861 58.5639 9.46461C58.3292 9.86994 58.2119 10.3553 58.2119 10.9206C58.2119 11.4859 58.3292 11.9766 58.5639 12.3926C58.7985 12.7979 59.1025 13.1126 59.4759 13.3366C59.8492 13.5606 60.2492 13.6726 60.6759 13.6726ZM69.1493 15.2566C68.5626 15.2566 68.0399 15.1393 67.5813 14.9046C67.1333 14.6699 66.7759 14.3499 66.5093 13.9446C66.2533 13.5286 66.1253 13.0539 66.1253 12.5206C66.1253 11.9339 66.2746 11.4379 66.5733 11.0326C66.8826 10.6273 67.2933 10.3179 67.8053 10.1046C68.3173 9.89128 68.8826 9.78461 69.5013 9.78461C69.8426 9.78461 70.1573 9.81128 70.4453 9.86461C70.7439 9.90728 70.9999 9.96061 71.2133 10.0246C71.4373 10.0886 71.6133 10.1579 71.7413 10.2326V9.80061C71.7413 9.26728 71.5493 8.84061 71.1653 8.52061C70.7813 8.20061 70.2853 8.04061 69.6773 8.04061C69.2613 8.04061 68.8666 8.13661 68.4933 8.32861C68.1199 8.50994 67.8213 8.76061 67.5973 9.08061L66.4133 8.16861C66.6479 7.83794 66.9306 7.55528 67.2613 7.32061C67.6026 7.08594 67.9813 6.90461 68.3973 6.77661C68.8239 6.64861 69.2666 6.58461 69.7253 6.58461C70.9093 6.58461 71.8213 6.87794 72.4613 7.46461C73.1013 8.04061 73.4213 8.85128 73.4213 9.89661V15.0006H71.7413V13.9926H71.6453C71.5066 14.2059 71.3146 14.4086 71.0693 14.6006C70.8346 14.7926 70.5519 14.9473 70.2213 15.0646C69.9013 15.1926 69.5439 15.2566 69.1493 15.2566ZM69.4533 13.8486C69.9013 13.8486 70.2959 13.7419 70.6373 13.5286C70.9893 13.3153 71.2613 13.0379 71.4533 12.6966C71.6453 12.3446 71.7413 11.9659 71.7413 11.5606C71.5066 11.4219 71.2186 11.3099 70.8773 11.2246C70.5466 11.1286 70.1946 11.0806 69.8213 11.0806C69.1173 11.0806 68.6159 11.2193 68.3173 11.4966C68.0186 11.7739 67.8693 12.1206 67.8693 12.5366C67.8693 12.9206 68.0133 13.2353 68.3013 13.4806C68.5893 13.7259 68.9733 13.8486 69.4533 13.8486ZM82.318 15.2566C81.3153 15.2566 80.558 14.9579 80.046 14.3606C79.5447 13.7526 79.294 12.9313 79.294 11.8966V6.84061H81.022V11.6566C81.022 12.3393 81.182 12.8459 81.502 13.1766C81.8327 13.5073 82.2433 13.6726 82.734 13.6726C83.182 13.6726 83.566 13.5606 83.886 13.3366C84.206 13.1019 84.4513 12.7979 84.622 12.4246C84.8033 12.0513 84.894 11.6513 84.894 11.2246V6.84061H86.606V15.0006H84.99V13.8966H84.894C84.7447 14.1526 84.5367 14.3819 84.27 14.5846C84.0033 14.7873 83.7047 14.9473 83.374 15.0646C83.0433 15.1926 82.6913 15.2566 82.318 15.2566ZM88.6076 15.0006V13.5606L93.1516 8.34461H88.7516V6.84061H95.2636V8.28061L90.7356 13.4966H95.3916V15.0006H88.6076Z" fill="white"/>
<g id="GPay (Dark)">
<g id="GPay">
<g id="Pay">
<path id="Fill 1" fill-rule="evenodd" clip-rule="evenodd" d="M124.356 3.42339V8.16175H127.278C127.974 8.16175 128.55 7.92781 129.005 7.45993C129.473 6.99313 129.707 6.43644 129.707 5.79203C129.707 5.16061 129.473 4.61041 129.005 4.14254C128.55 3.66274 127.974 3.4223 127.278 3.4223H124.356V3.42339ZM124.356 9.82966V15.3262H122.611V1.75549H127.24C128.417 1.75549 129.415 2.14756 130.238 2.93061C131.073 3.71365 131.491 4.66782 131.491 5.79203C131.491 6.94224 131.073 7.90291 130.238 8.67296C129.428 9.44409 128.429 9.82858 127.24 9.82858H124.356V9.82966Z" fill="white"/>
<path id="Fill 3" fill-rule="evenodd" clip-rule="evenodd" d="M133.255 12.4831C133.255 12.9379 133.448 13.317 133.834 13.6203C134.22 13.9235 134.672 14.0752 135.19 14.0752C135.924 14.0752 136.578 13.8032 137.153 13.2607C137.729 12.717 138.017 12.0791 138.017 11.3469C137.472 10.917 136.713 10.7025 135.74 10.7025C135.031 10.7025 134.44 10.8736 133.966 11.2148C133.492 11.5559 133.255 11.9773 133.255 12.4831M135.513 5.73566C136.803 5.73566 137.821 6.08007 138.569 6.76889C139.314 7.45771 139.687 8.40213 139.687 9.60216V15.3261H138.018V14.0373H137.942C137.221 15.0985 136.259 15.6294 135.058 15.6294C134.033 15.6294 133.176 15.3261 132.487 14.7196C131.797 14.1131 131.453 13.3549 131.453 12.4452C131.453 11.4845 131.816 10.7208 132.543 10.1523C133.271 9.58375 134.241 9.2989 135.456 9.2989C136.492 9.2989 137.346 9.48844 138.017 9.86751V9.46894C138.017 8.86243 137.776 8.34798 137.296 7.92451C136.814 7.50103 136.252 7.28984 135.607 7.28984C134.633 7.28984 133.862 7.70032 133.293 8.52235L131.755 7.55519C132.603 6.34217 133.855 5.73566 135.513 5.73566" fill="white"/>
<path id="Fill 5" fill-rule="evenodd" clip-rule="evenodd" d="M149.269 6.03894L143.443 19.4201H141.641L143.804 14.738L139.971 6.03894H141.869L144.639 12.7106H144.677L147.371 6.03894H149.269Z" fill="white"/>
</g>
<g id="G">
<path id="Fill 8" fill-rule="evenodd" clip-rule="evenodd" d="M117.303 8.64473C117.303 8.09563 117.256 7.56601 117.168 7.05914H109.806V10.0625H114.023C113.842 11.0414 113.294 11.8744 112.464 12.4322V14.3828H114.98C116.454 13.0246 117.303 11.0177 117.303 8.64473" fill="#4285F4"/>
<path id="Fill 10" fill-rule="evenodd" clip-rule="evenodd" d="M109.806 16.2651C111.913 16.2651 113.687 15.5741 114.98 14.3828L112.464 12.4322C111.763 12.9033 110.861 13.1784 109.806 13.1784C107.77 13.1784 106.042 11.8073 105.424 9.95959H102.832V11.9687C104.116 14.516 106.757 16.2651 109.806 16.2651" fill="#34A853"/>
<path id="Fill 12" fill-rule="evenodd" clip-rule="evenodd" d="M105.424 9.9596C105.266 9.48847 105.179 8.98593 105.179 8.46715C105.179 7.94837 105.266 7.44583 105.424 6.9747V4.96564H102.832C102.3 6.01837 102 7.20756 102 8.46715C102 9.72674 102.3 10.916 102.832 11.9687L105.424 9.9596Z" fill="#FABB05"/>
<path id="Fill 14" fill-rule="evenodd" clip-rule="evenodd" d="M109.806 3.75583C110.957 3.75583 111.988 4.15115 112.801 4.92553V4.92661L115.029 2.70094C113.676 1.44243 111.912 0.669128 109.806 0.669128C106.757 0.669128 104.116 2.41826 102.832 4.9656L105.424 6.97467C106.042 5.12698 107.77 3.75583 109.806 3.75583" fill="#E94235"/>
</g>
</g>
</g>
</g>
</svg>
