<svg width="139" height="21" viewBox="0 0 139 21" fill="none" xmlns="http://www.w3.org/2000/svg">
<g id="hr_pay_with_Pay_NBG">
<path id="Left Text" d="M1.63975 15.0006V3.54461H5.57575C6.26908 3.54461 6.89842 3.69394 7.46375 3.99261C8.02908 4.28061 8.47708 4.69128 8.80775 5.22461C9.14908 5.74728 9.31975 6.35528 9.31975 7.04861C9.31975 7.73128 9.14908 8.33928 8.80775 8.87261C8.47708 9.40594 8.02908 9.82194 7.46375 10.1206C6.89842 10.4086 6.26908 10.5526 5.57575 10.5526H3.39975V15.0006H1.63975ZM3.39975 8.88861H5.62375C6.03975 8.88861 6.39175 8.80328 6.67975 8.63261C6.96775 8.45128 7.18642 8.22194 7.33575 7.94461C7.49575 7.65661 7.57575 7.35794 7.57575 7.04861C7.57575 6.73928 7.49575 6.44594 7.33575 6.16861C7.18642 5.89128 6.96775 5.66194 6.67975 5.48061C6.39175 5.29928 6.03975 5.20861 5.62375 5.20861H3.39975V8.88861ZM11.0802 15.0006V3.54461H12.8082V15.0006H11.0802ZM17.4774 15.2566C16.8907 15.2566 16.368 15.1393 15.9094 14.9046C15.4614 14.6699 15.104 14.3499 14.8374 13.9446C14.5814 13.5286 14.4534 13.0539 14.4534 12.5206C14.4534 11.9339 14.6027 11.4379 14.9014 11.0326C15.2107 10.6273 15.6214 10.3179 16.1334 10.1046C16.6454 9.89128 17.2107 9.78461 17.8294 9.78461C18.1707 9.78461 18.4854 9.81128 18.7734 9.86461C19.072 9.90728 19.328 9.96061 19.5414 10.0246C19.7654 10.0886 19.9414 10.1579 20.0694 10.2326V9.80061C20.0694 9.26728 19.8774 8.84061 19.4934 8.52061C19.1094 8.20061 18.6134 8.04061 18.0054 8.04061C17.5894 8.04061 17.1947 8.13661 16.8214 8.32861C16.448 8.50994 16.1494 8.76061 15.9254 9.08061L14.7414 8.16861C14.976 7.83794 15.2587 7.55528 15.5894 7.32061C15.9307 7.08594 16.3094 6.90461 16.7254 6.77661C17.152 6.64861 17.5947 6.58461 18.0534 6.58461C19.2374 6.58461 20.1494 6.87794 20.7894 7.46461C21.4294 8.04061 21.7494 8.85128 21.7494 9.89661V15.0006H20.0694V13.9926H19.9734C19.8347 14.2059 19.6427 14.4086 19.3974 14.6006C19.1627 14.7926 18.88 14.9473 18.5494 15.0646C18.2294 15.1926 17.872 15.2566 17.4774 15.2566ZM17.7814 13.8486C18.2294 13.8486 18.624 13.7419 18.9654 13.5286C19.3174 13.3153 19.5894 13.0379 19.7814 12.6966C19.9734 12.3446 20.0694 11.9659 20.0694 11.5606C19.8347 11.4219 19.5467 11.3099 19.2054 11.2246C18.8747 11.1286 18.5227 11.0806 18.1494 11.0806C17.4454 11.0806 16.944 11.2193 16.6454 11.4966C16.3467 11.7739 16.1974 12.1206 16.1974 12.5366C16.1974 12.9206 16.3414 13.2353 16.6294 13.4806C16.9174 13.7259 17.3014 13.8486 17.7814 13.8486ZM27.4996 15.2566C26.6783 15.2566 25.9476 15.0699 25.3076 14.6966C24.6783 14.3233 24.1823 13.8113 23.8196 13.1606C23.4676 12.4993 23.2916 11.7526 23.2916 10.9206C23.2916 10.0886 23.4676 9.34728 23.8196 8.69661C24.1823 8.04594 24.6783 7.53394 25.3076 7.16061C25.9476 6.77661 26.6783 6.58461 27.4996 6.58461C28.4063 6.58461 29.169 6.78728 29.7876 7.19261C30.417 7.59794 30.865 8.14728 31.1316 8.84061L29.5636 9.48061C29.3716 9.04328 29.0943 8.71794 28.7316 8.50461C28.3796 8.28061 27.9583 8.16861 27.4676 8.16861C27.0196 8.16861 26.609 8.28594 26.2356 8.52061C25.8623 8.74461 25.5636 9.05928 25.3396 9.46461C25.1156 9.86994 25.0036 10.3553 25.0036 10.9206C25.0036 11.4753 25.1156 11.9606 25.3396 12.3766C25.5636 12.7926 25.8623 13.1126 26.2356 13.3366C26.609 13.5606 27.0196 13.6726 27.4676 13.6726C27.9903 13.6726 28.433 13.5553 28.7956 13.3206C29.1583 13.0859 29.441 12.7553 29.6436 12.3286L31.1796 13.0006C30.881 13.6513 30.417 14.1899 29.7876 14.6166C29.169 15.0433 28.4063 15.2566 27.4996 15.2566ZM26.7796 5.27261L27.5316 3.22461H29.4836L28.2036 5.27261H26.7796ZM35.293 15.2566C34.7063 15.2566 34.1837 15.1393 33.725 14.9046C33.277 14.6699 32.9197 14.3499 32.653 13.9446C32.397 13.5286 32.269 13.0539 32.269 12.5206C32.269 11.9339 32.4183 11.4379 32.717 11.0326C33.0263 10.6273 33.437 10.3179 33.949 10.1046C34.461 9.89128 35.0263 9.78461 35.645 9.78461C35.9863 9.78461 36.301 9.81128 36.589 9.86461C36.8877 9.90728 37.1437 9.96061 37.357 10.0246C37.581 10.0886 37.757 10.1579 37.885 10.2326V9.80061C37.885 9.26728 37.693 8.84061 37.309 8.52061C36.925 8.20061 36.429 8.04061 35.821 8.04061C35.405 8.04061 35.0103 8.13661 34.637 8.32861C34.2637 8.50994 33.965 8.76061 33.741 9.08061L32.557 8.16861C32.7917 7.83794 33.0743 7.55528 33.405 7.32061C33.7463 7.08594 34.125 6.90461 34.541 6.77661C34.9677 6.64861 35.4103 6.58461 35.869 6.58461C37.053 6.58461 37.965 6.87794 38.605 7.46461C39.245 8.04061 39.565 8.85128 39.565 9.89661V15.0006H37.885V13.9926H37.789C37.6503 14.2059 37.4583 14.4086 37.213 14.6006C36.9783 14.7926 36.6957 14.9473 36.365 15.0646C36.045 15.1926 35.6877 15.2566 35.293 15.2566ZM35.597 13.8486C36.045 13.8486 36.4397 13.7419 36.781 13.5286C37.133 13.3153 37.405 13.0379 37.597 12.6966C37.789 12.3446 37.885 11.9659 37.885 11.5606C37.6503 11.4219 37.3623 11.3099 37.021 11.2246C36.6903 11.1286 36.3383 11.0806 35.965 11.0806C35.261 11.0806 34.7597 11.2193 34.461 11.4966C34.1623 11.7739 34.013 12.1206 34.013 12.5366C34.013 12.9206 34.157 13.2353 34.445 13.4806C34.733 13.7259 35.117 13.8486 35.597 13.8486ZM41.6174 15.0006V6.84061H43.2494V7.96061H43.3454C43.58 7.56594 43.9267 7.24061 44.3854 6.98461C44.8547 6.71794 45.3667 6.58461 45.9214 6.58461C46.924 6.58461 47.676 6.88328 48.1774 7.48061C48.6787 8.06728 48.9294 8.85661 48.9294 9.84861V15.0006H47.2174V10.0726C47.2174 9.41128 47.052 8.93128 46.7214 8.63261C46.3907 8.32328 45.9587 8.16861 45.4254 8.16861C45.0094 8.16861 44.6467 8.28594 44.3374 8.52061C44.028 8.74461 43.7827 9.04328 43.6014 9.41661C43.4307 9.78994 43.3454 10.1899 43.3454 10.6166V15.0006H41.6174ZM50.4886 18.6166C50.318 18.6166 50.1633 18.6059 50.0246 18.5846C49.8753 18.5633 49.7313 18.5366 49.5926 18.5046V16.8406C49.6886 16.8939 49.806 16.9419 49.9446 16.9846C50.0833 17.0273 50.2166 17.0486 50.3446 17.0486C50.6433 17.0486 50.8566 16.9526 50.9846 16.7606C51.1126 16.5793 51.1766 16.3126 51.1766 15.9606V6.84061H52.9046V15.9766C52.9046 16.6059 52.798 17.1126 52.5846 17.4966C52.382 17.8806 52.0993 18.1633 51.7366 18.3446C51.374 18.5259 50.958 18.6166 50.4886 18.6166ZM52.0406 5.64061C51.7206 5.64061 51.4433 5.52861 51.2086 5.30461C50.9846 5.06994 50.8726 4.79261 50.8726 4.47261C50.8726 4.14194 50.9846 3.86994 51.2086 3.65661C51.4433 3.43261 51.7206 3.32061 52.0406 3.32061C52.3713 3.32061 52.6486 3.43261 52.8726 3.65661C53.0966 3.86994 53.2086 4.14194 53.2086 4.47261C53.2086 4.79261 53.0966 5.06994 52.8726 5.30461C52.6486 5.52861 52.3713 5.64061 52.0406 5.64061ZM58.8485 15.2566C58.0485 15.2566 57.3338 15.0699 56.7045 14.6966C56.0752 14.3233 55.5792 13.8113 55.2165 13.1606C54.8645 12.5099 54.6885 11.7686 54.6885 10.9366C54.6885 10.1579 54.8592 9.43794 55.2005 8.77661C55.5418 8.11528 56.0165 7.58728 56.6245 7.19261C57.2432 6.78728 57.9525 6.58461 58.7525 6.58461C59.5952 6.58461 60.3098 6.76594 60.8965 7.12861C61.4938 7.49128 61.9472 7.98728 62.2565 8.61661C62.5658 9.24594 62.7205 9.95528 62.7205 10.7446C62.7205 10.8619 62.7152 10.9686 62.7045 11.0646C62.7045 11.1606 62.6992 11.2353 62.6885 11.2886H56.3845C56.4272 11.7366 56.5392 12.1259 56.7205 12.4566C56.9552 12.8726 57.2645 13.1873 57.6485 13.4006C58.0325 13.6139 58.4485 13.7206 58.8965 13.7206C59.4405 13.7206 59.8938 13.5979 60.2565 13.3526C60.6298 13.0966 60.9232 12.7819 61.1365 12.4086L62.5605 13.0966C62.2085 13.7366 61.7285 14.2593 61.1205 14.6646C60.5125 15.0593 59.7552 15.2566 58.8485 15.2566ZM56.4805 9.99261H61.0085C60.9978 9.78994 60.9445 9.57661 60.8485 9.35261C60.7525 9.11794 60.6138 8.90461 60.4325 8.71261C60.2512 8.52061 60.0218 8.36594 59.7445 8.24861C59.4672 8.12061 59.1418 8.05661 58.7685 8.05661C58.2992 8.05661 57.8832 8.17928 57.5205 8.42461C57.1578 8.65928 56.8752 8.98994 56.6725 9.41661C56.5872 9.59794 56.5232 9.78994 56.4805 9.99261ZM71.318 15.2566C70.3153 15.2566 69.558 14.9579 69.046 14.3606C68.5447 13.7526 68.294 12.9313 68.294 11.8966V6.84061H70.022V11.6566C70.022 12.3393 70.182 12.8459 70.502 13.1766C70.8327 13.5073 71.2433 13.6726 71.734 13.6726C72.182 13.6726 72.566 13.5606 72.886 13.3366C73.206 13.1019 73.4513 12.7979 73.622 12.4246C73.8033 12.0513 73.894 11.6513 73.894 11.2246V6.84061H75.606V15.0006H73.99V13.8966H73.894C73.7447 14.1526 73.5367 14.3819 73.27 14.5846C73.0033 14.7873 72.7047 14.9473 72.374 15.0646C72.0433 15.1926 71.6913 15.2566 71.318 15.2566ZM77.6076 15.0006V13.5606L82.1516 8.34461H77.7516V6.84061H84.2636V8.28061L79.7356 13.4966H84.3916V15.0006H77.6076Z" fill="white"/>
<g id="GPay (Dark)">
<g id="GPay">
<g id="Pay">
<path id="Fill 1" fill-rule="evenodd" clip-rule="evenodd" d="M113.356 3.42339V8.16175H116.278C116.974 8.16175 117.55 7.92781 118.005 7.45993C118.473 6.99313 118.707 6.43644 118.707 5.79203C118.707 5.16061 118.473 4.61041 118.005 4.14254C117.55 3.66274 116.974 3.4223 116.278 3.4223H113.356V3.42339ZM113.356 9.82966V15.3262H111.611V1.75549H116.24C117.417 1.75549 118.415 2.14756 119.238 2.93061C120.073 3.71365 120.491 4.66782 120.491 5.79203C120.491 6.94224 120.073 7.90291 119.238 8.67296C118.428 9.44409 117.429 9.82858 116.24 9.82858H113.356V9.82966Z" fill="white"/>
<path id="Fill 3" fill-rule="evenodd" clip-rule="evenodd" d="M122.255 12.4831C122.255 12.9379 122.448 13.317 122.834 13.6203C123.22 13.9235 123.672 14.0752 124.19 14.0752C124.924 14.0752 125.578 13.8032 126.153 13.2607C126.729 12.717 127.017 12.0791 127.017 11.3469C126.472 10.917 125.713 10.7025 124.74 10.7025C124.031 10.7025 123.44 10.8736 122.966 11.2148C122.492 11.5559 122.255 11.9773 122.255 12.4831M124.513 5.73566C125.803 5.73566 126.821 6.08007 127.569 6.76889C128.314 7.45771 128.687 8.40213 128.687 9.60216V15.3261H127.018V14.0373H126.942C126.221 15.0985 125.259 15.6294 124.058 15.6294C123.033 15.6294 122.176 15.3261 121.487 14.7196C120.797 14.1131 120.453 13.3549 120.453 12.4452C120.453 11.4845 120.816 10.7208 121.543 10.1523C122.271 9.58375 123.241 9.2989 124.456 9.2989C125.492 9.2989 126.346 9.48844 127.017 9.86751V9.46894C127.017 8.86243 126.776 8.34798 126.296 7.92451C125.814 7.50103 125.252 7.28984 124.607 7.28984C123.633 7.28984 122.862 7.70032 122.293 8.52235L120.755 7.55519C121.603 6.34217 122.855 5.73566 124.513 5.73566" fill="white"/>
<path id="Fill 5" fill-rule="evenodd" clip-rule="evenodd" d="M138.269 6.03894L132.443 19.4201H130.641L132.804 14.738L128.971 6.03894H130.869L133.639 12.7106H133.677L136.371 6.03894H138.269Z" fill="white"/>
</g>
<g id="G">
<path id="Fill 8" fill-rule="evenodd" clip-rule="evenodd" d="M106.303 8.64473C106.303 8.09563 106.256 7.56601 106.168 7.05914H98.8065V10.0625H103.023C102.842 11.0414 102.294 11.8744 101.464 12.4322V14.3828H103.98C105.454 13.0246 106.303 11.0177 106.303 8.64473" fill="#4285F4"/>
<path id="Fill 10" fill-rule="evenodd" clip-rule="evenodd" d="M98.8065 16.2651C100.913 16.2651 102.687 15.5741 103.98 14.3828L101.464 12.4322C100.763 12.9033 99.8614 13.1784 98.8065 13.1784C96.7703 13.1784 95.042 11.8073 94.424 9.95959H91.8316V11.9687C93.1164 14.516 95.7565 16.2651 98.8065 16.2651" fill="#34A853"/>
<path id="Fill 12" fill-rule="evenodd" clip-rule="evenodd" d="M94.424 9.9596C94.2657 9.48847 94.179 8.98593 94.179 8.46715C94.179 7.94837 94.2657 7.44583 94.424 6.9747V4.96564H91.8316C91.3003 6.01837 91 7.20756 91 8.46715C91 9.72674 91.3003 10.916 91.8316 11.9687L94.424 9.9596Z" fill="#FABB05"/>
<path id="Fill 14" fill-rule="evenodd" clip-rule="evenodd" d="M98.8065 3.75583C99.9568 3.75583 100.988 4.15115 101.801 4.92553V4.92661L104.029 2.70094C102.676 1.44243 100.912 0.669128 98.8065 0.669128C95.7565 0.669128 93.1164 2.41826 91.8316 4.9656L94.424 6.97467C95.042 5.12698 96.7703 3.75583 98.8065 3.75583" fill="#E94235"/>
</g>
</g>
</g>
</g>
</svg>
