<svg width="244" height="38" viewBox="0 0 244 38" fill="none" xmlns="http://www.w3.org/2000/svg">
<g id="hr_pay_with_Dark">
<path id="Text" d="M3.74456 30V9.952H10.6326C11.8459 9.952 12.9472 10.2133 13.9366 10.736C14.9259 11.2587 15.7099 11.9773 16.2886 12.892C16.8859 13.8067 17.1846 14.8707 17.1846 16.084C17.1846 17.2973 16.8859 18.3707 16.2886 19.304C15.7099 20.2187 14.9259 20.9373 13.9366 21.46C12.9472 21.964 11.8459 22.216 10.6326 22.216H6.82456V30H3.74456ZM10.7166 12.864H6.82456V19.304H10.7166C11.4446 19.304 12.0606 19.1547 12.5646 18.856C13.0686 18.5387 13.4512 18.1373 13.7126 17.652C13.9926 17.148 14.1326 16.6253 14.1326 16.084C14.1326 15.5427 13.9926 15.0293 13.7126 14.544C13.4512 14.0587 13.0686 13.6573 12.5646 13.34C12.0606 13.0227 11.4446 12.864 10.7166 12.864ZM20.3029 30V9.952H23.3269V30H20.3029ZM31.5354 30.448C30.5087 30.448 29.5941 30.252 28.7914 29.86C27.9887 29.4493 27.3634 28.88 26.9154 28.152C26.4674 27.424 26.2434 26.5933 26.2434 25.66C26.2434 24.652 26.5047 23.7933 27.0274 23.084C27.5687 22.356 28.2874 21.8053 29.1834 21.432C30.0794 21.0587 31.0687 20.872 32.1514 20.872C33.0474 20.872 33.8314 20.956 34.5034 21.124C35.1941 21.292 35.7167 21.4693 36.0714 21.656V20.9C36.0714 19.9667 35.7354 19.22 35.0634 18.66C34.3914 18.1 33.5234 17.82 32.4594 17.82C31.7314 17.82 31.0407 17.988 30.3874 18.324C29.7341 18.6413 29.2114 19.08 28.8194 19.64L26.7474 18.044C27.3634 17.1853 28.1754 16.5133 29.1834 16.028C30.2101 15.524 31.3301 15.272 32.5434 15.272C34.6154 15.272 36.2114 15.7853 37.3314 16.812C38.4514 17.82 39.0114 19.2387 39.0114 21.068V30H36.0714V28.236H35.9034C35.5301 28.8147 34.9701 29.328 34.2234 29.776C33.4767 30.224 32.5807 30.448 31.5354 30.448ZM32.0674 27.984C32.8514 27.984 33.5421 27.7973 34.1394 27.424C34.7367 27.0507 35.2034 26.5653 35.5394 25.968C35.8941 25.352 36.0714 24.6893 36.0714 23.98C35.6421 23.7373 35.1381 23.5413 34.5594 23.392C33.9807 23.224 33.3647 23.14 32.7114 23.14C31.4794 23.14 30.6021 23.392 30.0794 23.896C29.5567 24.3813 29.2954 24.9787 29.2954 25.688C29.2954 26.36 29.5474 26.9107 30.0514 27.34C30.5554 27.7693 31.2274 27.984 32.0674 27.984ZM49.1118 30.448C47.6745 30.448 46.4052 30.1213 45.3038 29.468C44.2025 28.8147 43.3345 27.9187 42.6998 26.78C42.0652 25.6227 41.7478 24.316 41.7478 22.86C41.7478 21.404 42.0652 20.1067 42.6998 18.968C43.3345 17.8107 44.2025 16.9053 45.3038 16.252C46.4052 15.5987 47.6745 15.272 49.1118 15.272C50.6985 15.272 52.0332 15.6267 53.1158 16.336C54.2172 17.0453 55.0012 18.0067 55.4678 19.22L52.7238 20.34C52.0705 18.8093 50.8478 18.044 49.0558 18.044C48.2718 18.044 47.5532 18.2493 46.8998 18.66C46.2465 19.052 45.7238 19.612 45.3318 20.34C44.9398 21.0493 44.7438 21.8893 44.7438 22.86C44.7438 23.8307 44.9398 24.68 45.3318 25.408C45.7238 26.136 46.2465 26.696 46.8998 27.088C47.5532 27.48 48.2718 27.676 49.0558 27.676C49.9705 27.676 50.7452 27.4707 51.3798 27.06C52.0145 26.6307 52.5092 26.052 52.8638 25.324L55.5518 26.5C55.0478 27.6387 54.2452 28.5813 53.1438 29.328C52.0425 30.0747 50.6985 30.448 49.1118 30.448ZM47.8518 12.976L49.1678 9.392H52.5838L50.3438 12.976H47.8518ZM62.7878 30.448C61.7611 30.448 60.8464 30.252 60.0438 29.86C59.2411 29.4493 58.6158 28.88 58.1678 28.152C57.7198 27.424 57.4958 26.5933 57.4958 25.66C57.4958 24.652 57.7571 23.7933 58.2798 23.084C58.8211 22.356 59.5398 21.8053 60.4358 21.432C61.3318 21.0587 62.3211 20.872 63.4038 20.872C64.2998 20.872 65.0838 20.956 65.7558 21.124C66.4464 21.292 66.9691 21.4693 67.3238 21.656V20.9C67.3238 19.9667 66.9878 19.22 66.3158 18.66C65.6438 18.1 64.7758 17.82 63.7118 17.82C62.9838 17.82 62.2931 17.988 61.6398 18.324C60.9864 18.6413 60.4638 19.08 60.0718 19.64L57.9998 18.044C58.6158 17.1853 59.4278 16.5133 60.4358 16.028C61.4624 15.524 62.5824 15.272 63.7958 15.272C65.8678 15.272 67.4638 15.7853 68.5838 16.812C69.7038 17.82 70.2638 19.2387 70.2638 21.068V30H67.3238V28.236H67.1558C66.7824 28.8147 66.2224 29.328 65.4758 29.776C64.7291 30.224 63.8331 30.448 62.7878 30.448ZM63.3198 27.984C64.1038 27.984 64.7944 27.7973 65.3918 27.424C65.9891 27.0507 66.4558 26.5653 66.7918 25.968C67.1464 25.352 67.3238 24.6893 67.3238 23.98C66.8944 23.7373 66.3904 23.5413 65.8118 23.392C65.2331 23.224 64.6171 23.14 63.9638 23.14C62.7318 23.14 61.8544 23.392 61.3318 23.896C60.8091 24.3813 60.5478 24.9787 60.5478 25.688C60.5478 26.36 60.7998 26.9107 61.3038 27.34C61.8078 27.7693 62.4798 27.984 63.3198 27.984ZM73.8929 30V15.72H76.7489V17.68H76.9169C77.3276 16.9893 77.9342 16.42 78.7369 15.972C79.5582 15.5053 80.4542 15.272 81.4249 15.272C83.1796 15.272 84.4956 15.7947 85.3729 16.84C86.2502 17.8853 86.6889 19.2667 86.6889 20.984V30H83.6929V21.376C83.6929 20.2187 83.4036 19.3787 82.8249 18.856C82.2462 18.3147 81.4902 18.044 80.5569 18.044C79.8289 18.044 79.1942 18.2493 78.6529 18.66C78.1116 19.052 77.6822 19.5747 77.3649 20.228C77.0662 20.8813 76.9169 21.5813 76.9169 22.328V30H73.8929ZM92.1711 13.62C91.6111 13.62 91.1258 13.424 90.7151 13.032C90.3231 12.6213 90.1271 12.136 90.1271 11.576C90.1271 11.016 90.3231 10.54 90.7151 10.148C91.1258 9.756 91.6111 9.56 92.1711 9.56C92.7311 9.56 93.2071 9.756 93.5991 10.148C94.0098 10.54 94.2151 11.016 94.2151 11.576C94.2151 12.136 94.0098 12.6213 93.5991 13.032C93.2071 13.424 92.7311 13.62 92.1711 13.62ZM89.4551 36.328C88.8764 36.328 88.3538 36.2627 87.8871 36.132V33.22C88.0738 33.332 88.2884 33.416 88.5311 33.472C88.7551 33.5467 88.9791 33.584 89.2031 33.584C89.7444 33.584 90.1178 33.416 90.3231 33.08C90.5471 32.7627 90.6591 32.296 90.6591 31.68V15.72H93.6831V31.708C93.6831 33.3507 93.2818 34.5267 92.4791 35.236C91.6764 35.964 90.6684 36.328 89.4551 36.328ZM104.122 30.448C102.722 30.448 101.472 30.1213 100.37 29.468C99.269 28.8147 98.401 27.9187 97.7664 26.78C97.1504 25.6413 96.8424 24.344 96.8424 22.888C96.8424 21.5253 97.141 20.2653 97.7384 19.108C98.3357 17.9507 99.1664 17.0267 100.23 16.336C101.313 15.6267 102.554 15.272 103.954 15.272C105.429 15.272 106.68 15.5893 107.706 16.224C108.752 16.8587 109.545 17.7267 110.086 18.828C110.628 19.9293 110.898 21.1707 110.898 22.552C110.898 22.7573 110.889 22.944 110.87 23.112C110.87 23.28 110.861 23.4107 110.842 23.504H99.8104C99.9597 24.9227 100.454 25.9867 101.294 26.696C102.153 27.4053 103.124 27.76 104.206 27.76C105.177 27.76 105.98 27.5453 106.614 27.116C107.249 26.668 107.753 26.1173 108.126 25.464L110.618 26.668C110.002 27.788 109.162 28.7027 108.098 29.412C107.034 30.1027 105.709 30.448 104.122 30.448ZM103.982 17.848C102.974 17.848 102.116 18.156 101.406 18.772C100.697 19.388 100.221 20.2093 99.9784 21.236H107.902C107.865 20.7507 107.706 20.2467 107.426 19.724C107.146 19.2013 106.717 18.7627 106.138 18.408C105.578 18.0347 104.86 17.848 103.982 17.848ZM126.019 30.448C124.264 30.448 122.939 29.9253 122.043 28.88C121.166 27.816 120.727 26.3787 120.727 24.568V15.72H123.751V24.148C123.751 25.3613 124.031 26.2573 124.591 26.836C125.17 27.396 125.888 27.676 126.747 27.676C127.512 27.676 128.175 27.48 128.735 27.088C129.314 26.6773 129.752 26.1547 130.051 25.52C130.368 24.8667 130.527 24.1573 130.527 23.392V15.72H133.523V30H130.695V28.068H130.527C130.116 28.74 129.5 29.3093 128.679 29.776C127.876 30.224 126.99 30.448 126.019 30.448ZM137.063 30V27.48L145.015 18.352H137.315V15.72H148.711V18.24L140.787 27.368H148.935V30H137.063Z" fill="white"/>
<g id="GPay Logo (Dark)">
<g id="GPay">
<g id="Pay">
<path id="Fill 1" fill-rule="evenodd" clip-rule="evenodd" d="M200.529 9.34665V17.5128H205.565C206.765 17.5128 207.757 17.1096 208.541 16.3032C209.347 15.4988 209.75 14.5394 209.75 13.4288C209.75 12.3406 209.347 11.3924 208.541 10.586C207.757 9.75916 206.765 9.34479 205.565 9.34479H200.529V9.34665ZM200.529 20.3872V29.8599H197.521V6.47218H205.499C207.527 6.47218 209.248 7.14787 210.666 8.49738C212.105 9.84688 212.824 11.4913 212.824 13.4288C212.824 15.411 212.105 17.0667 210.666 18.3938C209.27 19.7227 207.547 20.3854 205.499 20.3854H200.529V20.3872Z" fill="white"/>
<path id="Fill 3" fill-rule="evenodd" clip-rule="evenodd" d="M215.864 24.9602C215.864 25.7442 216.197 26.3975 216.862 26.9201C217.527 27.4427 218.306 27.704 219.2 27.704C220.465 27.704 221.591 27.2354 222.584 26.3004C223.576 25.3634 224.071 24.264 224.071 23.0022C223.133 22.2612 221.825 21.8916 220.147 21.8916C218.925 21.8916 217.907 22.1866 217.09 22.7745C216.273 23.3623 215.864 24.0886 215.864 24.9602ZM219.756 13.3317C221.98 13.3317 223.735 13.9253 225.022 15.1124C226.308 16.2995 226.95 17.9271 226.95 19.9952V29.8599H224.073V27.6387H223.942C222.699 29.4677 221.042 30.3825 218.972 30.3825C217.206 30.3825 215.728 29.8599 214.541 28.8146C213.353 27.7694 212.759 26.4628 212.759 24.8949C212.759 23.2393 213.385 21.9232 214.638 20.9434C215.892 19.9635 217.565 19.4726 219.658 19.4726C221.444 19.4726 222.916 19.7993 224.071 20.4525V19.7657C224.071 18.7204 223.656 17.8338 222.829 17.104C221.999 16.3742 221.031 16.0102 219.919 16.0102C218.239 16.0102 216.911 16.7176 215.93 18.1343L213.28 16.4675C214.741 14.377 216.899 13.3317 219.756 13.3317Z" fill="white"/>
<path id="Fill 5" fill-rule="evenodd" clip-rule="evenodd" d="M243.463 13.8543L233.424 36.9154H230.318L234.046 28.8464L227.44 13.8543H230.71L235.484 25.3522H235.55L240.193 13.8543H243.463Z" fill="white"/>
</g>
<g id="G">
<path id="Fill 8" fill-rule="evenodd" clip-rule="evenodd" d="M188.373 18.3452C188.373 17.3989 188.293 16.4861 188.141 15.6126H175.454V20.7885H182.72C182.408 22.4757 181.465 23.9112 180.033 24.8725V28.2341H184.37C186.91 25.8935 188.373 22.4348 188.373 18.3452Z" fill="#4285F4"/>
<path id="Fill 10" fill-rule="evenodd" clip-rule="evenodd" d="M175.454 31.4782C179.084 31.4782 182.141 30.2873 184.37 28.2341L180.033 24.8725C178.826 25.6844 177.272 26.1585 175.454 26.1585C171.944 26.1585 168.966 23.7955 167.901 20.6112H163.433V24.0736C165.647 28.4637 170.197 31.4782 175.454 31.4782Z" fill="#34A853"/>
<path id="Fill 12" fill-rule="evenodd" clip-rule="evenodd" d="M167.901 20.6111C167.628 19.7992 167.479 18.9331 167.479 18.0391C167.479 17.145 167.628 16.2789 167.901 15.467V12.0045H163.433C162.518 13.8188 162 15.8683 162 18.0391C162 20.2098 162.518 22.2595 163.433 24.0736L167.901 20.6111Z" fill="#FABB05"/>
<path id="Fill 14" fill-rule="evenodd" clip-rule="evenodd" d="M175.454 9.91964C177.436 9.91964 179.213 10.6009 180.615 11.9355V11.9374L184.455 8.10163C182.123 5.93272 179.082 4.60001 175.454 4.60001C170.197 4.60001 165.647 7.61447 163.433 12.0046L167.901 15.467C168.966 12.2827 171.944 9.91964 175.454 9.91964Z" fill="#E94235"/>
</g>
</g>
</g>
</g>
</svg>
