<svg width="145" height="21" viewBox="0 0 145 21" fill="none" xmlns="http://www.w3.org/2000/svg">
<g id="hr_subscribe_with_Pay_NBG">
<path id="Left Text" d="M1.91162 15.0006V3.54461H5.84762C6.54096 3.54461 7.17029 3.69394 7.73562 3.99261C8.30096 4.28061 8.74896 4.69128 9.07962 5.22461C9.42096 5.74728 9.59162 6.35528 9.59162 7.04861C9.59162 7.73128 9.42096 8.33928 9.07962 8.87261C8.74896 9.40594 8.30096 9.82194 7.73562 10.1206C7.17029 10.4086 6.54096 10.5526 5.84762 10.5526H3.67162V15.0006H1.91162ZM3.67162 8.88861H5.89562C6.31162 8.88861 6.66362 8.80328 6.95162 8.63261C7.23962 8.45128 7.45829 8.22194 7.60762 7.94461C7.76762 7.65661 7.84762 7.35794 7.84762 7.04861C7.84762 6.73928 7.76762 6.44594 7.60762 6.16861C7.45829 5.89128 7.23962 5.66194 6.95162 5.48061C6.66362 5.29928 6.31162 5.20861 5.89562 5.20861H3.67162V8.88861ZM11.258 15.0006V6.84061H12.89V8.04061H12.986C13.114 7.76328 13.2953 7.51794 13.53 7.30461C13.7753 7.09128 14.0527 6.92061 14.362 6.79261C14.682 6.66461 15.0127 6.60061 15.354 6.60061C15.578 6.60061 15.7647 6.61661 15.914 6.64861C16.074 6.66994 16.218 6.70728 16.346 6.76061V8.55261C16.1433 8.46728 15.9353 8.39794 15.722 8.34461C15.5193 8.29128 15.306 8.26461 15.082 8.26461C14.6767 8.26461 14.314 8.37661 13.994 8.60061C13.6847 8.81394 13.4393 9.10194 13.258 9.46461C13.0767 9.82728 12.986 10.2326 12.986 10.6806V15.0006H11.258ZM21.0735 15.2566C20.2735 15.2566 19.5588 15.0699 18.9295 14.6966C18.3002 14.3233 17.8042 13.8113 17.4415 13.1606C17.0895 12.5099 16.9135 11.7686 16.9135 10.9366C16.9135 10.1579 17.0842 9.43794 17.4255 8.77661C17.7668 8.11528 18.2415 7.58728 18.8495 7.19261C19.4682 6.78728 20.1775 6.58461 20.9775 6.58461C21.8202 6.58461 22.5348 6.76594 23.1215 7.12861C23.7188 7.49128 24.1722 7.98728 24.4815 8.61661C24.7908 9.24594 24.9455 9.95528 24.9455 10.7446C24.9455 10.8619 24.9402 10.9686 24.9295 11.0646C24.9295 11.1606 24.9242 11.2353 24.9135 11.2886H18.6095C18.6522 11.7366 18.7642 12.1259 18.9455 12.4566C19.1802 12.8726 19.4895 13.1873 19.8735 13.4006C20.2575 13.6139 20.6735 13.7206 21.1215 13.7206C21.6655 13.7206 22.1188 13.5979 22.4815 13.3526C22.8548 13.0966 23.1482 12.7819 23.3615 12.4086L24.7855 13.0966C24.4335 13.7366 23.9535 14.2593 23.3455 14.6646C22.7375 15.0593 21.9802 15.2566 21.0735 15.2566ZM18.7055 9.99261H23.2335C23.2228 9.78994 23.1695 9.57661 23.0735 9.35261C22.9775 9.11794 22.8388 8.90461 22.6575 8.71261C22.4762 8.52061 22.2468 8.36594 21.9695 8.24861C21.6922 8.12061 21.3668 8.05661 20.9935 8.05661C20.5242 8.05661 20.1082 8.17928 19.7455 8.42461C19.3828 8.65928 19.1002 8.98994 18.8975 9.41661C18.8122 9.59794 18.7482 9.78994 18.7055 9.99261ZM25.9042 6.84061H27.3282V4.53661H29.0562V6.84061H31.0562V8.34461H29.0562V12.2646C29.0562 12.6699 29.1362 12.9793 29.2962 13.1926C29.4669 13.4059 29.7496 13.5126 30.1442 13.5126C30.3362 13.5126 30.5069 13.4859 30.6562 13.4326C30.8056 13.3686 30.9549 13.2939 31.1042 13.2086V14.8886C30.9229 14.9633 30.7309 15.0219 30.5282 15.0646C30.3256 15.1073 30.0856 15.1286 29.8082 15.1286C29.0509 15.1286 28.4482 14.9099 28.0002 14.4726C27.5522 14.0246 27.3282 13.4113 27.3282 12.6326V8.34461H25.9042V6.84061ZM32.9264 18.4566V6.84061H34.5424V7.94461H34.6384C34.7877 7.70994 34.985 7.49128 35.2304 7.28861C35.4864 7.07528 35.785 6.90461 36.1264 6.77661C36.4677 6.64861 36.8464 6.58461 37.2624 6.58461C38.009 6.58461 38.6757 6.77128 39.2624 7.14461C39.849 7.51794 40.313 8.02994 40.6544 8.68061C41.0064 9.33128 41.1824 10.0779 41.1824 10.9206C41.1824 11.7633 41.0064 12.5099 40.6544 13.1606C40.313 13.8113 39.849 14.3233 39.2624 14.6966C38.6757 15.0699 38.009 15.2566 37.2624 15.2566C36.6437 15.2566 36.105 15.1179 35.6464 14.8406C35.1877 14.5633 34.8517 14.2539 34.6384 13.9126H34.5424L34.6384 15.0486V18.4566H32.9264ZM37.0064 13.6726C37.433 13.6726 37.833 13.5606 38.2064 13.3366C38.5904 13.1126 38.8944 12.7926 39.1184 12.3766C39.353 11.9606 39.4704 11.4753 39.4704 10.9206C39.4704 10.3553 39.353 9.86994 39.1184 9.46461C38.8944 9.04861 38.5904 8.72861 38.2064 8.50461C37.833 8.28061 37.433 8.16861 37.0064 8.16861C36.5797 8.16861 36.1797 8.28061 35.8064 8.50461C35.433 8.72861 35.129 9.04861 34.8944 9.46461C34.6597 9.86994 34.5424 10.3553 34.5424 10.9206C34.5424 11.4859 34.6597 11.9766 34.8944 12.3926C35.129 12.7979 35.433 13.1126 35.8064 13.3366C36.1797 13.5606 36.5797 13.6726 37.0064 13.6726ZM42.7802 15.0006V3.54461H44.5082V15.0006H42.7802ZM49.1774 15.2566C48.5907 15.2566 48.068 15.1393 47.6094 14.9046C47.1614 14.6699 46.804 14.3499 46.5374 13.9446C46.2814 13.5286 46.1534 13.0539 46.1534 12.5206C46.1534 11.9339 46.3027 11.4379 46.6014 11.0326C46.9107 10.6273 47.3214 10.3179 47.8334 10.1046C48.3454 9.89128 48.9107 9.78461 49.5294 9.78461C49.8707 9.78461 50.1854 9.81128 50.4734 9.86461C50.772 9.90728 51.028 9.96061 51.2414 10.0246C51.4654 10.0886 51.6414 10.1579 51.7694 10.2326V9.80061C51.7694 9.26728 51.5774 8.84061 51.1934 8.52061C50.8094 8.20061 50.3134 8.04061 49.7054 8.04061C49.2894 8.04061 48.8947 8.13661 48.5214 8.32861C48.148 8.50994 47.8494 8.76061 47.6254 9.08061L46.4414 8.16861C46.676 7.83794 46.9587 7.55528 47.2894 7.32061C47.6307 7.08594 48.0094 6.90461 48.4254 6.77661C48.852 6.64861 49.2947 6.58461 49.7534 6.58461C50.9374 6.58461 51.8494 6.87794 52.4894 7.46461C53.1294 8.04061 53.4494 8.85128 53.4494 9.89661V15.0006H51.7694V13.9926H51.6734C51.5347 14.2059 51.3427 14.4086 51.0974 14.6006C50.8627 14.7926 50.58 14.9473 50.2494 15.0646C49.9294 15.1926 49.572 15.2566 49.1774 15.2566ZM49.4814 13.8486C49.9294 13.8486 50.324 13.7419 50.6654 13.5286C51.0174 13.3153 51.2894 13.0379 51.4814 12.6966C51.6734 12.3446 51.7694 11.9659 51.7694 11.5606C51.5347 11.4219 51.2467 11.3099 50.9054 11.2246C50.5747 11.1286 50.2227 11.0806 49.8494 11.0806C49.1454 11.0806 48.644 11.2193 48.3454 11.4966C48.0467 11.7739 47.8974 12.1206 47.8974 12.5366C47.8974 12.9206 48.0414 13.2353 48.3294 13.4806C48.6174 13.7259 49.0014 13.8486 49.4814 13.8486ZM54.7855 6.84061H56.2095V4.53661H57.9375V6.84061H59.9375V8.34461H57.9375V12.2646C57.9375 12.6699 58.0175 12.9793 58.1775 13.1926C58.3482 13.4059 58.6308 13.5126 59.0255 13.5126C59.2175 13.5126 59.3882 13.4859 59.5375 13.4326C59.6868 13.3686 59.8362 13.2939 59.9855 13.2086V14.8886C59.8042 14.9633 59.6122 15.0219 59.4095 15.0646C59.2068 15.1073 58.9668 15.1286 58.6895 15.1286C57.9322 15.1286 57.3295 14.9099 56.8815 14.4726C56.4335 14.0246 56.2095 13.4113 56.2095 12.6326V8.34461H54.7855V6.84061ZM64.1492 15.2566C63.5626 15.2566 63.0399 15.1393 62.5812 14.9046C62.1332 14.6699 61.7759 14.3499 61.5092 13.9446C61.2532 13.5286 61.1252 13.0539 61.1252 12.5206C61.1252 11.9339 61.2746 11.4379 61.5732 11.0326C61.8826 10.6273 62.2932 10.3179 62.8052 10.1046C63.3172 9.89128 63.8826 9.78461 64.5012 9.78461C64.8426 9.78461 65.1572 9.81128 65.4452 9.86461C65.7439 9.90728 65.9999 9.96061 66.2132 10.0246C66.4372 10.0886 66.6132 10.1579 66.7412 10.2326V9.80061C66.7412 9.26728 66.5492 8.84061 66.1652 8.52061C65.7812 8.20061 65.2852 8.04061 64.6772 8.04061C64.2612 8.04061 63.8666 8.13661 63.4932 8.32861C63.1199 8.50994 62.8212 8.76061 62.5972 9.08061L61.4132 8.16861C61.6479 7.83794 61.9306 7.55528 62.2612 7.32061C62.6026 7.08594 62.9812 6.90461 63.3972 6.77661C63.8239 6.64861 64.2666 6.58461 64.7252 6.58461C65.9092 6.58461 66.8212 6.87794 67.4612 7.46461C68.1012 8.04061 68.4212 8.85128 68.4212 9.89661V15.0006H66.7412V13.9926H66.6452C66.5066 14.2059 66.3146 14.4086 66.0692 14.6006C65.8346 14.7926 65.5519 14.9473 65.2212 15.0646C64.9012 15.1926 64.5439 15.2566 64.1492 15.2566ZM64.4532 13.8486C64.9012 13.8486 65.2959 13.7419 65.6372 13.5286C65.9892 13.3153 66.2612 13.0379 66.4532 12.6966C66.6452 12.3446 66.7412 11.9659 66.7412 11.5606C66.5066 11.4219 66.2186 11.3099 65.8772 11.2246C65.5466 11.1286 65.1946 11.0806 64.8212 11.0806C64.1172 11.0806 63.6159 11.2193 63.3172 11.4966C63.0186 11.7739 62.8692 12.1206 62.8692 12.5366C62.8692 12.9206 63.0132 13.2353 63.3012 13.4806C63.5892 13.7259 63.9732 13.8486 64.4532 13.8486ZM77.318 15.2566C76.3153 15.2566 75.558 14.9579 75.046 14.3606C74.5447 13.7526 74.294 12.9313 74.294 11.8966V6.84061H76.022V11.6566C76.022 12.3393 76.182 12.8459 76.502 13.1766C76.8327 13.5073 77.2433 13.6726 77.734 13.6726C78.182 13.6726 78.566 13.5606 78.886 13.3366C79.206 13.1019 79.4513 12.7979 79.622 12.4246C79.8033 12.0513 79.894 11.6513 79.894 11.2246V6.84061H81.606V15.0006H79.99V13.8966H79.894C79.7447 14.1526 79.5367 14.3819 79.27 14.5846C79.0033 14.7873 78.7047 14.9473 78.374 15.0646C78.0433 15.1926 77.6913 15.2566 77.318 15.2566ZM83.6076 15.0006V13.5606L88.1516 8.34461H83.7516V6.84061H90.2636V8.28061L85.7356 13.4966H90.3916V15.0006H83.6076Z" fill="white"/>
<g id="GPay (Dark)">
<g id="GPay">
<g id="Pay">
<path id="Fill 1" fill-rule="evenodd" clip-rule="evenodd" d="M119.356 3.42339V8.16175H122.278C122.974 8.16175 123.55 7.92781 124.005 7.45993C124.473 6.99313 124.707 6.43644 124.707 5.79203C124.707 5.16061 124.473 4.61041 124.005 4.14254C123.55 3.66274 122.974 3.4223 122.278 3.4223H119.356V3.42339ZM119.356 9.82966V15.3262H117.611V1.75549H122.24C123.417 1.75549 124.415 2.14756 125.238 2.93061C126.073 3.71365 126.491 4.66782 126.491 5.79203C126.491 6.94224 126.073 7.90291 125.238 8.67296C124.428 9.44409 123.429 9.82858 122.24 9.82858H119.356V9.82966Z" fill="white"/>
<path id="Fill 3" fill-rule="evenodd" clip-rule="evenodd" d="M128.255 12.4831C128.255 12.9379 128.448 13.317 128.834 13.6203C129.22 13.9235 129.672 14.0752 130.19 14.0752C130.924 14.0752 131.578 13.8032 132.153 13.2607C132.729 12.717 133.017 12.0791 133.017 11.3469C132.472 10.917 131.713 10.7025 130.74 10.7025C130.031 10.7025 129.44 10.8736 128.966 11.2148C128.492 11.5559 128.255 11.9773 128.255 12.4831M130.513 5.73566C131.803 5.73566 132.821 6.08007 133.569 6.76889C134.314 7.45771 134.687 8.40213 134.687 9.60216V15.3261H133.018V14.0373H132.942C132.221 15.0985 131.259 15.6294 130.058 15.6294C129.033 15.6294 128.176 15.3261 127.487 14.7196C126.797 14.1131 126.453 13.3549 126.453 12.4452C126.453 11.4845 126.816 10.7208 127.543 10.1523C128.271 9.58375 129.241 9.2989 130.456 9.2989C131.492 9.2989 132.346 9.48844 133.017 9.86751V9.46894C133.017 8.86243 132.776 8.34798 132.296 7.92451C131.814 7.50103 131.252 7.28984 130.607 7.28984C129.633 7.28984 128.862 7.70032 128.293 8.52235L126.755 7.55519C127.603 6.34217 128.855 5.73566 130.513 5.73566" fill="white"/>
<path id="Fill 5" fill-rule="evenodd" clip-rule="evenodd" d="M144.269 6.03894L138.443 19.4201H136.641L138.804 14.738L134.971 6.03894H136.869L139.639 12.7106H139.677L142.371 6.03894H144.269Z" fill="white"/>
</g>
<g id="G">
<path id="Fill 8" fill-rule="evenodd" clip-rule="evenodd" d="M112.303 8.64473C112.303 8.09563 112.256 7.56601 112.168 7.05914H104.806V10.0625H109.023C108.842 11.0414 108.294 11.8744 107.464 12.4322V14.3828H109.98C111.454 13.0246 112.303 11.0177 112.303 8.64473" fill="#4285F4"/>
<path id="Fill 10" fill-rule="evenodd" clip-rule="evenodd" d="M104.806 16.2651C106.913 16.2651 108.687 15.5741 109.98 14.3828L107.464 12.4322C106.763 12.9033 105.861 13.1784 104.806 13.1784C102.77 13.1784 101.042 11.8073 100.424 9.95959H97.8316V11.9687C99.1164 14.516 101.757 16.2651 104.806 16.2651" fill="#34A853"/>
<path id="Fill 12" fill-rule="evenodd" clip-rule="evenodd" d="M100.424 9.9596C100.266 9.48847 100.179 8.98593 100.179 8.46715C100.179 7.94837 100.266 7.44583 100.424 6.9747V4.96564H97.8316C97.3003 6.01837 97 7.20756 97 8.46715C97 9.72674 97.3003 10.916 97.8316 11.9687L100.424 9.9596Z" fill="#FABB05"/>
<path id="Fill 14" fill-rule="evenodd" clip-rule="evenodd" d="M104.806 3.75583C105.957 3.75583 106.988 4.15115 107.801 4.92553V4.92661L110.029 2.70094C108.676 1.44243 106.912 0.669128 104.806 0.669128C101.757 0.669128 99.1164 2.41826 97.8316 4.9656L100.424 6.97467C101.042 5.12698 102.77 3.75583 104.806 3.75583" fill="#E94235"/>
</g>
</g>
</g>
</g>
</svg>
