<svg width="254" height="38" viewBox="0 0 254 38" fill="none" xmlns="http://www.w3.org/2000/svg">
<g id="hr_subscribe_with_Dark">
<path id="Text" d="M3.68284 30V9.952H10.5708C11.7842 9.952 12.8855 10.2133 13.8748 10.736C14.8642 11.2587 15.6482 11.9773 16.2268 12.892C16.8242 13.8067 17.1228 14.8707 17.1228 16.084C17.1228 17.2973 16.8242 18.3707 16.2268 19.304C15.6482 20.2187 14.8642 20.9373 13.8748 21.46C12.8855 21.964 11.7842 22.216 10.5708 22.216H6.76284V30H3.68284ZM10.6548 12.864H6.76284V19.304H10.6548C11.3828 19.304 11.9988 19.1547 12.5028 18.856C13.0068 18.5387 13.3895 18.1373 13.6508 17.652C13.9308 17.148 14.0708 16.6253 14.0708 16.084C14.0708 15.5427 13.9308 15.0293 13.6508 14.544C13.3895 14.0587 13.0068 13.6573 12.5028 13.34C11.9988 13.0227 11.3828 12.864 10.6548 12.864ZM20.0765 30V15.72H22.9325V17.82H23.1005C23.4178 17.092 23.9592 16.4947 24.7245 16.028C25.5085 15.5427 26.3485 15.3 27.2445 15.3C27.6365 15.3 27.9632 15.328 28.2245 15.384C28.5045 15.44 28.7565 15.5053 28.9805 15.58V18.716C28.6258 18.5667 28.2618 18.4453 27.8885 18.352C27.5338 18.2587 27.1605 18.212 26.7685 18.212C26.0592 18.212 25.4245 18.408 24.8645 18.8C24.3232 19.1733 23.8938 19.6867 23.5765 20.34C23.2592 20.9747 23.1005 21.6747 23.1005 22.44V30H20.0765ZM37.2911 30.448C35.8911 30.448 34.6405 30.1213 33.5391 29.468C32.4378 28.8147 31.5698 27.9187 30.9351 26.78C30.3191 25.6413 30.0111 24.344 30.0111 22.888C30.0111 21.5253 30.3098 20.2653 30.9071 19.108C31.5045 17.9507 32.3351 17.0267 33.3991 16.336C34.4818 15.6267 35.7231 15.272 37.1231 15.272C38.5978 15.272 39.8485 15.5893 40.8751 16.224C41.9205 16.8587 42.7138 17.7267 43.2551 18.828C43.7965 19.9293 44.0671 21.1707 44.0671 22.552C44.0671 22.7573 44.0578 22.944 44.0391 23.112C44.0391 23.28 44.0298 23.4107 44.0111 23.504H32.9791C33.1285 24.9227 33.6231 25.9867 34.4631 26.696C35.3218 27.4053 36.2925 27.76 37.3751 27.76C38.3458 27.76 39.1485 27.5453 39.7831 27.116C40.4178 26.668 40.9218 26.1173 41.2951 25.464L43.7871 26.668C43.1711 27.788 42.3311 28.7027 41.2671 29.412C40.2031 30.1027 38.8778 30.448 37.2911 30.448ZM37.1511 17.848C36.1431 17.848 35.2845 18.156 34.5751 18.772C33.8658 19.388 33.3898 20.2093 33.1471 21.236H41.0711C41.0338 20.7507 40.8751 20.2467 40.5951 19.724C40.3151 19.2013 39.8858 18.7627 39.3071 18.408C38.7471 18.0347 38.0285 17.848 37.1511 17.848ZM48.2744 25.856V18.352H45.7824V15.72H48.2744V11.688H51.2984V15.72H54.7984V18.352H51.2984V25.212C51.2984 25.9213 51.4384 26.4627 51.7184 26.836C52.0171 27.2093 52.5118 27.396 53.2024 27.396C53.5571 27.396 53.8558 27.3493 54.0984 27.256C54.3598 27.1627 54.6211 27.032 54.8824 26.864V29.804C54.5651 29.9347 54.2291 30.0373 53.8744 30.112C53.5198 30.1867 53.0998 30.224 52.6144 30.224C51.2891 30.224 50.2344 29.8413 49.4504 29.076C48.6664 28.292 48.2744 27.2187 48.2744 25.856ZM58.1087 36.048V15.72H60.9367V17.652H61.1047C61.478 17.036 62.0567 16.4853 62.8407 16C63.6433 15.5147 64.5953 15.272 65.6967 15.272C67.0033 15.272 68.17 15.5987 69.1967 16.252C70.2233 16.9053 71.0353 17.8013 71.6327 18.94C72.2487 20.0787 72.5567 21.3853 72.5567 22.86C72.5567 24.3347 72.2487 25.6507 71.6327 26.808C71.0353 27.9467 70.2233 28.8427 69.1967 29.496C68.17 30.1307 67.0033 30.448 65.6967 30.448C64.5953 30.448 63.6433 30.2147 62.8407 29.748C62.0567 29.2627 61.478 28.712 61.1047 28.096H60.9367L61.1047 30.084V36.048H58.1087ZM65.2487 27.676C65.9953 27.676 66.6953 27.48 67.3487 27.088C68.002 26.696 68.534 26.1453 68.9447 25.436C69.3553 24.708 69.5607 23.8493 69.5607 22.86C69.5607 21.8707 69.3553 21.0213 68.9447 20.312C68.534 19.584 68.002 19.024 67.3487 18.632C66.6953 18.24 65.9953 18.044 65.2487 18.044C64.502 18.044 63.802 18.24 63.1487 18.632C62.4953 19.024 61.9633 19.584 61.5527 20.312C61.142 21.0213 60.9367 21.8707 60.9367 22.86C60.9367 23.8493 61.142 24.708 61.5527 25.436C61.9633 26.1453 62.4953 26.696 63.1487 27.088C63.802 27.48 64.502 27.676 65.2487 27.676ZM75.3904 30V9.952H78.4144V30H75.3904ZM86.6229 30.448C85.5962 30.448 84.6816 30.252 83.8789 29.86C83.0762 29.4493 82.4509 28.88 82.0029 28.152C81.5549 27.424 81.3309 26.5933 81.3309 25.66C81.3309 24.652 81.5922 23.7933 82.1149 23.084C82.6562 22.356 83.3749 21.8053 84.2709 21.432C85.1669 21.0587 86.1562 20.872 87.2389 20.872C88.1349 20.872 88.9189 20.956 89.5909 21.124C90.2816 21.292 90.8042 21.4693 91.1589 21.656V20.9C91.1589 19.9667 90.8229 19.22 90.1509 18.66C89.4789 18.1 88.6109 17.82 87.5469 17.82C86.8189 17.82 86.1282 17.988 85.4749 18.324C84.8216 18.6413 84.2989 19.08 83.9069 19.64L81.8349 18.044C82.4509 17.1853 83.2629 16.5133 84.2709 16.028C85.2976 15.524 86.4176 15.272 87.6309 15.272C89.7029 15.272 91.2989 15.7853 92.4189 16.812C93.5389 17.82 94.0989 19.2387 94.0989 21.068V30H91.1589V28.236H90.9909C90.6176 28.8147 90.0576 29.328 89.3109 29.776C88.5642 30.224 87.6682 30.448 86.6229 30.448ZM87.1549 27.984C87.9389 27.984 88.6296 27.7973 89.2269 27.424C89.8242 27.0507 90.2909 26.5653 90.6269 25.968C90.9816 25.352 91.1589 24.6893 91.1589 23.98C90.7296 23.7373 90.2256 23.5413 89.6469 23.392C89.0682 23.224 88.4522 23.14 87.7989 23.14C86.5669 23.14 85.6896 23.392 85.1669 23.896C84.6442 24.3813 84.3829 24.9787 84.3829 25.688C84.3829 26.36 84.6349 26.9107 85.1389 27.34C85.6429 27.7693 86.3149 27.984 87.1549 27.984ZM98.9666 25.856V18.352H96.4746V15.72H98.9666V11.688H101.991V15.72H105.491V18.352H101.991V25.212C101.991 25.9213 102.131 26.4627 102.411 26.836C102.709 27.2093 103.204 27.396 103.895 27.396C104.249 27.396 104.548 27.3493 104.791 27.256C105.052 27.1627 105.313 27.032 105.575 26.864V29.804C105.257 29.9347 104.921 30.0373 104.567 30.112C104.212 30.1867 103.792 30.224 103.307 30.224C101.981 30.224 100.927 29.8413 100.143 29.076C99.3586 28.292 98.9666 27.2187 98.9666 25.856ZM112.899 30.448C111.872 30.448 110.957 30.252 110.155 29.86C109.352 29.4493 108.727 28.88 108.279 28.152C107.831 27.424 107.607 26.5933 107.607 25.66C107.607 24.652 107.868 23.7933 108.391 23.084C108.932 22.356 109.651 21.8053 110.547 21.432C111.443 21.0587 112.432 20.872 113.515 20.872C114.411 20.872 115.195 20.956 115.867 21.124C116.557 21.292 117.08 21.4693 117.435 21.656V20.9C117.435 19.9667 117.099 19.22 116.427 18.66C115.755 18.1 114.887 17.82 113.823 17.82C113.095 17.82 112.404 17.988 111.751 18.324C111.097 18.6413 110.575 19.08 110.183 19.64L108.111 18.044C108.727 17.1853 109.539 16.5133 110.547 16.028C111.573 15.524 112.693 15.272 113.907 15.272C115.979 15.272 117.575 15.7853 118.695 16.812C119.815 17.82 120.375 19.2387 120.375 21.068V30H117.435V28.236H117.267C116.893 28.8147 116.333 29.328 115.587 29.776C114.84 30.224 113.944 30.448 112.899 30.448ZM113.431 27.984C114.215 27.984 114.905 27.7973 115.503 27.424C116.1 27.0507 116.567 26.5653 116.903 25.968C117.257 25.352 117.435 24.6893 117.435 23.98C117.005 23.7373 116.501 23.5413 115.923 23.392C115.344 23.224 114.728 23.14 114.075 23.14C112.843 23.14 111.965 23.392 111.443 23.896C110.92 24.3813 110.659 24.9787 110.659 25.688C110.659 26.36 110.911 26.9107 111.415 27.34C111.919 27.7693 112.591 27.984 113.431 27.984ZM136.019 30.448C134.264 30.448 132.939 29.9253 132.043 28.88C131.166 27.816 130.727 26.3787 130.727 24.568V15.72H133.751V24.148C133.751 25.3613 134.031 26.2573 134.591 26.836C135.17 27.396 135.888 27.676 136.747 27.676C137.512 27.676 138.175 27.48 138.735 27.088C139.314 26.6773 139.752 26.1547 140.051 25.52C140.368 24.8667 140.527 24.1573 140.527 23.392V15.72H143.523V30H140.695V28.068H140.527C140.116 28.74 139.5 29.3093 138.679 29.776C137.876 30.224 136.99 30.448 136.019 30.448ZM147.063 30V27.48L155.015 18.352H147.315V15.72H158.711V18.24L150.787 27.368H158.935V30H147.063Z" fill="white"/>
<g id="GPay Logo (Dark)">
<g id="GPay">
<g id="Pay">
<path id="Fill 1" fill-rule="evenodd" clip-rule="evenodd" d="M210.529 9.34665V17.5128H215.565C216.765 17.5128 217.757 17.1096 218.541 16.3032C219.347 15.4988 219.75 14.5394 219.75 13.4288C219.75 12.3406 219.347 11.3924 218.541 10.586C217.757 9.75916 216.765 9.34479 215.565 9.34479H210.529V9.34665ZM210.529 20.3872V29.8599H207.521V6.47218H215.499C217.527 6.47218 219.248 7.14787 220.666 8.49738C222.105 9.84688 222.824 11.4913 222.824 13.4288C222.824 15.411 222.105 17.0667 220.666 18.3938C219.27 19.7227 217.547 20.3854 215.499 20.3854H210.529V20.3872Z" fill="white"/>
<path id="Fill 3" fill-rule="evenodd" clip-rule="evenodd" d="M225.864 24.9602C225.864 25.7442 226.197 26.3975 226.862 26.9201C227.527 27.4427 228.306 27.704 229.2 27.704C230.465 27.704 231.591 27.2354 232.584 26.3004C233.576 25.3634 234.071 24.264 234.071 23.0022C233.133 22.2612 231.825 21.8916 230.147 21.8916C228.925 21.8916 227.907 22.1866 227.09 22.7745C226.273 23.3623 225.864 24.0886 225.864 24.9602ZM229.756 13.3317C231.98 13.3317 233.735 13.9253 235.022 15.1124C236.308 16.2995 236.95 17.9271 236.95 19.9952V29.8599H234.073V27.6387H233.942C232.699 29.4677 231.042 30.3825 228.972 30.3825C227.206 30.3825 225.728 29.8599 224.541 28.8146C223.353 27.7694 222.759 26.4628 222.759 24.8949C222.759 23.2393 223.385 21.9232 224.638 20.9434C225.892 19.9635 227.565 19.4726 229.658 19.4726C231.444 19.4726 232.916 19.7993 234.071 20.4525V19.7657C234.071 18.7204 233.656 17.8338 232.829 17.104C231.999 16.3742 231.031 16.0102 229.919 16.0102C228.239 16.0102 226.911 16.7176 225.93 18.1343L223.28 16.4675C224.741 14.377 226.899 13.3317 229.756 13.3317Z" fill="white"/>
<path id="Fill 5" fill-rule="evenodd" clip-rule="evenodd" d="M253.463 13.8543L243.424 36.9154H240.318L244.046 28.8464L237.44 13.8543H240.71L245.484 25.3522H245.55L250.193 13.8543H253.463Z" fill="white"/>
</g>
<g id="G">
<path id="Fill 8" fill-rule="evenodd" clip-rule="evenodd" d="M198.373 18.3452C198.373 17.3989 198.293 16.4861 198.141 15.6126H185.454V20.7885H192.72C192.408 22.4757 191.465 23.9112 190.033 24.8725V28.2341H194.37C196.91 25.8935 198.373 22.4348 198.373 18.3452Z" fill="#4285F4"/>
<path id="Fill 10" fill-rule="evenodd" clip-rule="evenodd" d="M185.454 31.4782C189.084 31.4782 192.141 30.2873 194.37 28.2341L190.033 24.8725C188.826 25.6844 187.272 26.1585 185.454 26.1585C181.944 26.1585 178.966 23.7955 177.901 20.6112H173.433V24.0736C175.647 28.4637 180.197 31.4782 185.454 31.4782Z" fill="#34A853"/>
<path id="Fill 12" fill-rule="evenodd" clip-rule="evenodd" d="M177.901 20.6111C177.628 19.7992 177.479 18.9331 177.479 18.0391C177.479 17.145 177.628 16.2789 177.901 15.467V12.0045H173.433C172.518 13.8188 172 15.8683 172 18.0391C172 20.2098 172.518 22.2595 173.433 24.0736L177.901 20.6111Z" fill="#FABB05"/>
<path id="Fill 14" fill-rule="evenodd" clip-rule="evenodd" d="M185.454 9.91964C187.436 9.91964 189.213 10.6009 190.615 11.9355V11.9374L194.455 8.10163C192.123 5.93272 189.082 4.60001 185.454 4.60001C180.197 4.60001 175.647 7.61447 173.433 12.0046L177.901 15.467C178.966 12.2827 181.944 9.91964 185.454 9.91964Z" fill="#E94235"/>
</g>
</g>
</g>
</g>
</svg>
