<svg width="236" height="38" viewBox="0 0 236 38" fill="none" xmlns="http://www.w3.org/2000/svg">
<g id="hr_view_in_Light">
<path id="Text" d="M4.11097 30V9.952H10.999C12.2123 9.952 13.3136 10.2133 14.303 10.736C15.2923 11.2587 16.0763 11.9773 16.655 12.892C17.2523 13.8067 17.551 14.8707 17.551 16.084C17.551 17.2973 17.2523 18.3707 16.655 19.304C16.0763 20.2187 15.2923 20.9373 14.303 21.46C13.3136 21.964 12.2123 22.216 10.999 22.216H7.19097V30H4.11097ZM11.083 12.864H7.19097V19.304H11.083C11.811 19.304 12.427 19.1547 12.931 18.856C13.435 18.5387 13.8176 18.1373 14.079 17.652C14.359 17.148 14.499 16.6253 14.499 16.084C14.499 15.5427 14.359 15.0293 14.079 14.544C13.8176 14.0587 13.435 13.6573 12.931 13.34C12.427 13.0227 11.811 12.864 11.083 12.864ZM20.5046 30V15.72H23.3606V17.82H23.5286C23.846 17.092 24.3873 16.4947 25.1526 16.028C25.9366 15.5427 26.7766 15.3 27.6726 15.3C28.0646 15.3 28.3913 15.328 28.6526 15.384C28.9326 15.44 29.1846 15.5053 29.4086 15.58V18.716C29.054 18.5667 28.69 18.4453 28.3166 18.352C27.962 18.2587 27.5886 18.212 27.1966 18.212C26.4873 18.212 25.8526 18.408 25.2926 18.8C24.7513 19.1733 24.322 19.6867 24.0046 20.34C23.6873 20.9747 23.5286 21.6747 23.5286 22.44V30H20.5046ZM37.7193 30.448C36.3193 30.448 35.0686 30.1213 33.9673 29.468C32.8659 28.8147 31.9979 27.9187 31.3633 26.78C30.7473 25.6413 30.4393 24.344 30.4393 22.888C30.4393 21.5253 30.7379 20.2653 31.3353 19.108C31.9326 17.9507 32.7633 17.0267 33.8273 16.336C34.9099 15.6267 36.1513 15.272 37.5513 15.272C39.0259 15.272 40.2766 15.5893 41.3033 16.224C42.3486 16.8587 43.1419 17.7267 43.6833 18.828C44.2246 19.9293 44.4953 21.1707 44.4953 22.552C44.4953 22.7573 44.4859 22.944 44.4673 23.112C44.4673 23.28 44.4579 23.4107 44.4393 23.504H33.4073C33.5566 24.9227 34.0513 25.9867 34.8913 26.696C35.7499 27.4053 36.7206 27.76 37.8033 27.76C38.7739 27.76 39.5766 27.5453 40.2113 27.116C40.8459 26.668 41.3499 26.1173 41.7233 25.464L44.2153 26.668C43.5993 27.788 42.7593 28.7027 41.6953 29.412C40.6313 30.1027 39.3059 30.448 37.7193 30.448ZM37.5793 17.848C36.5713 17.848 35.7126 18.156 35.0033 18.772C34.2939 19.388 33.8179 20.2093 33.5753 21.236H41.4993C41.4619 20.7507 41.3033 20.2467 41.0233 19.724C40.7433 19.2013 40.3139 18.7627 39.7353 18.408C39.1753 18.0347 38.4566 17.848 37.5793 17.848ZM54.1774 36.496C52.9268 36.496 51.8441 36.2907 50.9294 35.88C50.0334 35.488 49.3054 34.9747 48.7454 34.34C48.1854 33.724 47.7841 33.0893 47.5414 32.436L50.3414 31.26C50.6401 32.0067 51.1161 32.6133 51.7694 33.08C52.4414 33.5653 53.2441 33.808 54.1774 33.808C55.4841 33.808 56.5108 33.416 57.2574 32.632C58.0228 31.848 58.4054 30.7373 58.4054 29.3V27.928H58.2374C57.7894 28.6 57.1641 29.1413 56.3614 29.552C55.5774 29.944 54.6814 30.14 53.6734 30.14C52.4601 30.14 51.3494 29.832 50.3414 29.216C49.3334 28.6 48.5214 27.7413 47.9054 26.64C47.2894 25.52 46.9814 24.2133 46.9814 22.72C46.9814 21.208 47.2894 19.9013 47.9054 18.8C48.5214 17.68 49.3334 16.812 50.3414 16.196C51.3494 15.58 52.4601 15.272 53.6734 15.272C54.6814 15.272 55.5774 15.4773 56.3614 15.888C57.1641 16.2987 57.7894 16.84 58.2374 17.512H58.4054V15.72H61.2894V29.244C61.2894 30.7933 60.9814 32.1093 60.3654 33.192C59.7681 34.2747 58.9374 35.096 57.8734 35.656C56.8094 36.216 55.5774 36.496 54.1774 36.496ZM54.2054 27.396C54.9521 27.396 55.6428 27.2187 56.2774 26.864C56.9121 26.4907 57.4254 25.9587 57.8174 25.268C58.2094 24.5587 58.4054 23.7093 58.4054 22.72C58.4054 21.6933 58.2094 20.8347 57.8174 20.144C57.4254 19.4347 56.9121 18.9027 56.2774 18.548C55.6428 18.1933 54.9521 18.016 54.2054 18.016C53.4588 18.016 52.7588 18.2027 52.1054 18.576C51.4708 18.9307 50.9574 19.4533 50.5654 20.144C50.1734 20.8347 49.9774 21.6933 49.9774 22.72C49.9774 23.728 50.1734 24.5867 50.5654 25.296C50.9574 25.9867 51.4708 26.5093 52.1054 26.864C52.7588 27.2187 53.4588 27.396 54.2054 27.396ZM65.1553 30V9.952H68.1793V30H65.1553ZM78.4318 30.448C77.0318 30.448 75.7811 30.1213 74.6798 29.468C73.5784 28.8147 72.7104 27.9187 72.0758 26.78C71.4598 25.6413 71.1518 24.344 71.1518 22.888C71.1518 21.5253 71.4504 20.2653 72.0478 19.108C72.6451 17.9507 73.4758 17.0267 74.5398 16.336C75.6224 15.6267 76.8638 15.272 78.2638 15.272C79.7384 15.272 80.9891 15.5893 82.0158 16.224C83.0611 16.8587 83.8544 17.7267 84.3958 18.828C84.9371 19.9293 85.2078 21.1707 85.2078 22.552C85.2078 22.7573 85.1984 22.944 85.1798 23.112C85.1798 23.28 85.1704 23.4107 85.1518 23.504H74.1198C74.2691 24.9227 74.7638 25.9867 75.6038 26.696C76.4624 27.4053 77.4331 27.76 78.5158 27.76C79.4864 27.76 80.2891 27.5453 80.9238 27.116C81.5584 26.668 82.0624 26.1173 82.4358 25.464L84.9278 26.668C84.3118 27.788 83.4718 28.7027 82.4078 29.412C81.3438 30.1027 80.0184 30.448 78.4318 30.448ZM78.2918 17.848C77.2838 17.848 76.4251 18.156 75.7158 18.772C75.0064 19.388 74.5304 20.2093 74.2878 21.236H82.2118C82.1744 20.7507 82.0158 20.2467 81.7358 19.724C81.4558 19.2013 81.0264 18.7627 80.4478 18.408C79.8878 18.0347 79.1691 17.848 78.2918 17.848ZM94.5539 30.448C93.2659 30.448 92.0993 30.1307 91.0539 29.496C90.0273 28.8427 89.2059 27.9467 88.5899 26.808C87.9926 25.6507 87.6939 24.3347 87.6939 22.86C87.6939 21.3853 87.9926 20.0787 88.5899 18.94C89.2059 17.8013 90.0273 16.9053 91.0539 16.252C92.0993 15.5987 93.2659 15.272 94.5539 15.272C95.6553 15.272 96.5979 15.5147 97.3819 16C98.1846 16.4853 98.7726 17.036 99.1459 17.652H99.3139L99.1459 15.664V9.952H102.142V30H99.3139V28.096H99.1459C98.7726 28.712 98.1846 29.2627 97.3819 29.748C96.5979 30.2147 95.6553 30.448 94.5539 30.448ZM95.0019 27.676C95.7486 27.676 96.4486 27.48 97.1019 27.088C97.7739 26.696 98.3059 26.1453 98.6979 25.436C99.1086 24.708 99.3139 23.8493 99.3139 22.86C99.3139 21.8707 99.1086 21.0213 98.6979 20.312C98.3059 19.584 97.7739 19.024 97.1019 18.632C96.4486 18.24 95.7486 18.044 95.0019 18.044C94.2553 18.044 93.5553 18.24 92.9019 18.632C92.2486 19.024 91.7166 19.584 91.3059 20.312C90.8953 21.0213 90.6899 21.8707 90.6899 22.86C90.6899 23.8493 90.8953 24.708 91.3059 25.436C91.7166 26.1453 92.2486 26.696 92.9019 27.088C93.5553 27.48 94.2553 27.676 95.0019 27.676ZM118.019 30.448C116.264 30.448 114.939 29.9253 114.043 28.88C113.166 27.816 112.727 26.3787 112.727 24.568V15.72H115.751V24.148C115.751 25.3613 116.031 26.2573 116.591 26.836C117.17 27.396 117.888 27.676 118.747 27.676C119.512 27.676 120.175 27.48 120.735 27.088C121.314 26.6773 121.752 26.1547 122.051 25.52C122.368 24.8667 122.527 24.1573 122.527 23.392V15.72H125.523V30H122.695V28.068H122.527C122.116 28.74 121.5 29.3093 120.679 29.776C119.876 30.224 118.99 30.448 118.019 30.448ZM129.063 30V27.48L137.015 18.352H129.315V15.72H140.711V18.24L132.787 27.368H140.935V30H129.063Z" fill="#3C4043"/>
<g id="GPay Logo (Light)">
<g id="GPay">
<g id="Pay">
<path id="Fill 1" fill-rule="evenodd" clip-rule="evenodd" d="M192.529 9.44664V17.6128H197.565C198.765 17.6128 199.757 17.2096 200.541 16.4032C201.347 15.5988 201.75 14.6394 201.75 13.5288C201.75 12.4406 201.347 11.4924 200.541 10.686C199.757 9.85915 198.765 9.44478 197.565 9.44478H192.529V9.44664ZM192.529 20.4872V29.9599H189.521V6.57217H197.499C199.527 6.57217 201.248 7.24786 202.666 8.59737C204.105 9.94688 204.824 11.5913 204.824 13.5288C204.824 15.511 204.105 17.1667 202.666 18.4938C201.27 19.8227 199.547 20.4854 197.499 20.4854H192.529V20.4872Z" fill="#5F6368"/>
<path id="Fill 3" fill-rule="evenodd" clip-rule="evenodd" d="M207.864 25.0602C207.864 25.8442 208.197 26.4975 208.862 27.0201C209.527 27.5427 210.306 27.804 211.2 27.804C212.465 27.804 213.591 27.3354 214.584 26.4004C215.576 25.4634 216.071 24.364 216.071 23.1022C215.133 22.3612 213.825 21.9916 212.147 21.9916C210.925 21.9916 209.907 22.2865 209.09 22.8745C208.273 23.4623 207.864 24.1886 207.864 25.0602ZM211.756 13.4317C213.98 13.4317 215.735 14.0252 217.022 15.2124C218.308 16.3995 218.95 18.0271 218.95 20.0952V29.9599H216.073V27.7387H215.942C214.699 29.5677 213.042 30.4825 210.972 30.4825C209.206 30.4825 207.728 29.9599 206.541 28.9146C205.353 27.8694 204.759 26.5628 204.759 24.9949C204.759 23.3393 205.385 22.0232 206.638 21.0434C207.892 20.0635 209.565 19.5726 211.658 19.5726C213.444 19.5726 214.916 19.8992 216.071 20.5525V19.8656C216.071 18.8204 215.656 17.9338 214.829 17.204C213.999 16.4741 213.031 16.1102 211.919 16.1102C210.239 16.1102 208.911 16.8176 207.93 18.2343L205.28 16.5675C206.741 14.4769 208.899 13.4317 211.756 13.4317Z" fill="#5F6368"/>
<path id="Fill 5" fill-rule="evenodd" clip-rule="evenodd" d="M235.463 13.9543L225.424 37.0154H222.318L226.046 28.9464L219.44 13.9543H222.71L227.484 25.4522H227.55L232.193 13.9543H235.463Z" fill="#5F6368"/>
</g>
<g id="G">
<path id="Fill 8" fill-rule="evenodd" clip-rule="evenodd" d="M180.373 18.4452C180.373 17.4989 180.293 16.5861 180.141 15.7126H167.454V20.8885H174.72C174.408 22.5757 173.465 24.0112 172.033 24.9725V28.3341H176.37C178.91 25.9935 180.373 22.5348 180.373 18.4452Z" fill="#4285F4"/>
<path id="Fill 10" fill-rule="evenodd" clip-rule="evenodd" d="M167.454 31.5782C171.084 31.5782 174.141 30.3873 176.37 28.3341L172.033 24.9725C170.826 25.7844 169.272 26.2585 167.454 26.2585C163.944 26.2585 160.966 23.8955 159.901 20.7112H155.433V24.1736C157.647 28.5637 162.197 31.5782 167.454 31.5782Z" fill="#34A853"/>
<path id="Fill 12" fill-rule="evenodd" clip-rule="evenodd" d="M159.901 20.7111C159.628 19.8992 159.479 19.0331 159.479 18.139C159.479 17.245 159.628 16.3789 159.901 15.567V12.1045H155.433C154.518 13.9188 154 15.9683 154 18.139C154 20.3098 154.518 22.3595 155.433 24.1736L159.901 20.7111Z" fill="#FABB05"/>
<path id="Fill 14" fill-rule="evenodd" clip-rule="evenodd" d="M167.454 10.0196C169.436 10.0196 171.213 10.7009 172.615 12.0355V12.0374L176.455 8.20162C174.123 6.03271 171.082 4.7 167.454 4.7C162.197 4.7 157.647 7.71446 155.433 12.1046L159.901 15.567C160.966 12.3827 163.944 10.0196 167.454 10.0196Z" fill="#E94235"/>
</g>
</g>
</g>
</g>
</svg>
