<svg width="115" height="21" viewBox="0 0 115 21" fill="none" xmlns="http://www.w3.org/2000/svg">
<g id="th_add_to_Pay_NBG">
<path id="Left Text" d="M3.908 15.1926C3.364 15.1926 2.92667 15.0273 2.596 14.6966C2.276 14.3659 2.116 13.9286 2.116 13.3846V6.36061H3.796V11.8646C3.88134 11.8433 3.972 11.8326 4.068 11.8326C4.548 11.8326 4.94267 11.9926 5.252 12.3126C5.56134 12.6219 5.716 13.0166 5.716 13.4966C5.716 13.9979 5.54534 14.4086 5.204 14.7286C4.87334 15.0379 4.44133 15.1926 3.908 15.1926ZM3.924 14.1526C4.12667 14.1526 4.28667 14.0939 4.404 13.9766C4.532 13.8486 4.596 13.6886 4.596 13.4966C4.596 13.2939 4.532 13.1339 4.404 13.0166C4.28667 12.8886 4.12667 12.8246 3.924 12.8246C3.74267 12.8246 3.588 12.8886 3.46 13.0166C3.332 13.1339 3.268 13.2939 3.268 13.4966C3.268 13.6886 3.332 13.8486 3.46 13.9766C3.588 14.0939 3.74267 14.1526 3.924 14.1526ZM7.9745 15.0006V9.52861C7.89983 9.53928 7.81983 9.54461 7.7345 9.54461C7.24384 9.54461 6.8385 9.38994 6.5185 9.08061C6.1985 8.76061 6.0385 8.36061 6.0385 7.88061C6.0385 7.38994 6.20383 6.98461 6.5345 6.66461C6.87583 6.34461 7.30783 6.18461 7.8305 6.18461C8.36384 6.18461 8.7905 6.34994 9.1105 6.68061C9.44117 7.00061 9.6065 7.43261 9.6065 7.97661V10.6326L9.5585 12.3446L10.0225 11.0646L11.4305 7.59261H12.3105L13.7185 11.0646L14.1665 12.2966L14.1345 10.6326V6.36061H15.7665V15.0006H13.9905L12.2465 10.7286L11.8785 9.72061L11.5105 10.7286L9.7665 15.0006H7.9745ZM7.7985 8.55261C8.00117 8.55261 8.16117 8.48861 8.2785 8.36061C8.39584 8.23261 8.4545 8.07261 8.4545 7.88061C8.4545 7.68861 8.39584 7.53394 8.2785 7.41661C8.16117 7.28861 8.00117 7.22461 7.7985 7.22461C7.6065 7.22461 7.4465 7.28861 7.3185 7.41661C7.20117 7.53394 7.1425 7.68861 7.1425 7.88061C7.1425 8.07261 7.20117 8.23261 7.3185 8.36061C7.4465 8.48861 7.6065 8.55261 7.7985 8.55261ZM8.56488 5.27261V5.16061C8.67154 4.59528 8.89021 4.10461 9.22088 3.68861C9.55154 3.26194 9.97821 2.93661 10.5009 2.71261C11.0235 2.47794 11.5995 2.36061 12.2289 2.36061C12.8795 2.36061 13.4662 2.47794 13.9889 2.71261C14.5009 2.93661 14.9275 3.26194 15.2689 3.68861C15.5995 4.10461 15.8129 4.59528 15.9089 5.16061V5.27261H8.56488ZM10.3249 4.34461H14.1489C14.0422 4.04594 13.8182 3.80594 13.4769 3.62461C13.1249 3.44328 12.7089 3.35261 12.2289 3.35261C11.7595 3.35261 11.3542 3.44328 11.0129 3.62461C10.6609 3.80594 10.4315 4.04594 10.3249 4.34461ZM14.4745 2.22461L14.3145 -0.143391H15.9625L15.8025 2.22461H14.4745ZM24.4969 15.0006L21.7769 13.4326C21.7662 13.9339 21.5902 14.3499 21.2489 14.6806C20.8969 15.0113 20.4489 15.1766 19.9049 15.1766C19.3609 15.1766 18.9129 15.0059 18.5609 14.6646C18.2089 14.3233 18.0329 13.8806 18.0329 13.3366C18.0329 12.8033 18.2035 12.3659 18.5449 12.0246C18.8969 11.6833 19.3395 11.5126 19.8729 11.5126C19.8942 11.5126 19.9209 11.5126 19.9529 11.5126V9.52861C19.8675 9.53928 19.7822 9.54461 19.6969 9.54461C19.2062 9.54461 18.8009 9.38994 18.4809 9.08061C18.1609 8.76061 18.0009 8.36061 18.0009 7.88061C18.0009 7.38994 18.1715 6.98461 18.5129 6.66461C18.8542 6.34461 19.2862 6.18461 19.8089 6.18461C20.3529 6.18461 20.7849 6.34994 21.1049 6.68061C21.4249 7.01128 21.5849 7.44861 21.5849 7.99261V11.8006L24.3689 13.4006V6.36061H26.0489V15.0006H24.4969ZM19.9049 14.0886C20.1182 14.0886 20.2889 14.0193 20.4169 13.8806C20.5555 13.7419 20.6249 13.5606 20.6249 13.3366C20.6249 13.1126 20.5555 12.9313 20.4169 12.7926C20.2889 12.6539 20.1182 12.5846 19.9049 12.5846C19.6915 12.5846 19.5155 12.6539 19.3769 12.7926C19.2489 12.9313 19.1849 13.1126 19.1849 13.3366C19.1849 13.5606 19.2489 13.7419 19.3769 13.8806C19.5155 14.0193 19.6915 14.0886 19.9049 14.0886ZM19.7769 8.55261C19.9795 8.55261 20.1395 8.49394 20.2569 8.37661C20.3742 8.24861 20.4329 8.08861 20.4329 7.89661C20.4329 7.69394 20.3742 7.53394 20.2569 7.41661C20.1395 7.28861 19.9795 7.22461 19.7769 7.22461C19.5849 7.22461 19.4249 7.28861 19.2969 7.41661C19.1795 7.53394 19.1209 7.69394 19.1209 7.89661C19.1209 8.08861 19.1795 8.24861 19.2969 8.37661C19.4249 8.49394 19.5849 8.55261 19.7769 8.55261ZM31.0186 15.1926C30.4746 15.1926 30.0373 15.0273 29.7066 14.6966C29.376 14.3659 29.2106 13.9286 29.2106 13.3846V7.06461C29.2106 6.61661 29.28 6.20594 29.4186 5.83261C29.568 5.44861 29.7493 5.09128 29.9626 4.76061C30.176 4.41928 30.3893 4.10461 30.6026 3.81661C30.816 3.51794 30.992 3.23528 31.1306 2.96861C31.28 2.69128 31.3546 2.41928 31.3546 2.15261C31.3546 1.91794 31.296 1.73661 31.1786 1.60861C31.072 1.46994 30.9386 1.40061 30.7786 1.40061L29.2106 3.41661H28.0746L26.3946 0.28061V0.120609H27.9466L28.8106 1.92861L30.1386 0.120609H30.7306C31.4026 0.120609 31.9146 0.317943 32.2666 0.712609C32.6293 1.09661 32.8106 1.57661 32.8106 2.15261C32.8106 2.62194 32.7146 3.05394 32.5226 3.44861C32.3306 3.83261 32.1066 4.21128 31.8506 4.58461C31.5946 4.95794 31.3706 5.34728 31.1786 5.75261C30.9866 6.14728 30.8906 6.58994 30.8906 7.08061V11.8646C30.9866 11.8433 31.0826 11.8326 31.1786 11.8326C31.648 11.8326 32.0373 11.9926 32.3466 12.3126C32.656 12.6219 32.8106 13.0166 32.8106 13.4966C32.8106 13.9979 32.64 14.4086 32.2986 14.7286C31.968 15.0379 31.5413 15.1926 31.0186 15.1926ZM31.0346 14.1526C31.2373 14.1526 31.3973 14.0939 31.5146 13.9766C31.6426 13.8486 31.7066 13.6886 31.7066 13.4966C31.7066 13.2939 31.6426 13.1339 31.5146 13.0166C31.3973 12.8886 31.2373 12.8246 31.0346 12.8246C30.8533 12.8246 30.6986 12.8886 30.5706 13.0166C30.4426 13.1339 30.3786 13.2939 30.3786 13.4966C30.3786 13.6886 30.4426 13.8486 30.5706 13.9766C30.6986 14.0939 30.8533 14.1526 31.0346 14.1526ZM35.0835 15.0006V9.52861C35.0088 9.53928 34.9342 9.54461 34.8595 9.54461C34.3688 9.54461 33.9635 9.38994 33.6435 9.08061C33.3235 8.76061 33.1635 8.36061 33.1635 7.88061C33.1635 7.38994 33.3342 6.98461 33.6755 6.66461C34.0168 6.34461 34.4488 6.18461 34.9715 6.18461C35.5155 6.18461 35.9475 6.34994 36.2675 6.68061C36.5875 7.01128 36.7475 7.44861 36.7475 7.99261V13.5926H40.2835V3.48061H41.9635V15.0006H35.0835ZM34.9395 8.55261C35.1422 8.55261 35.3022 8.49394 35.4195 8.37661C35.5368 8.24861 35.5955 8.08861 35.5955 7.89661C35.5955 7.69394 35.5368 7.53394 35.4195 7.41661C35.3022 7.28861 35.1422 7.22461 34.9395 7.22461C34.7475 7.22461 34.5875 7.28861 34.4595 7.41661C34.3422 7.53394 34.2835 7.69394 34.2835 7.89661C34.2835 8.08861 34.3422 8.24861 34.4595 8.37661C34.5875 8.49394 34.7475 8.55261 34.9395 8.55261ZM44.528 15.0006V12.5366C44.528 12.1419 44.608 11.8166 44.768 11.5606C44.9387 11.2939 45.1893 11.1073 45.52 11.0006V10.9366C45.072 10.7873 44.704 10.4779 44.416 10.0086C44.128 9.52861 43.984 9.01128 43.984 8.45661C43.984 7.78461 44.1813 7.24061 44.576 6.82461C44.9813 6.40861 45.4987 6.20061 46.128 6.20061C46.672 6.20061 47.1093 6.35528 47.44 6.66461C47.7813 6.96328 47.952 7.35794 47.952 7.84861C47.952 8.30728 47.8027 8.68594 47.504 8.98461C47.216 9.27261 46.8427 9.41661 46.384 9.41661C46.096 9.41661 45.8507 9.34728 45.648 9.20861C45.744 9.51794 45.8933 9.74728 46.096 9.89661C46.3413 10.0673 46.704 10.1526 47.184 10.1526H48.368V11.3846H47.44C46.608 11.3846 46.192 11.7953 46.192 12.6166V13.5926H49.952V6.36061H51.632V15.0006H44.528ZM46.176 8.52061C46.3787 8.52061 46.5387 8.46194 46.656 8.34461C46.7733 8.21661 46.832 8.05661 46.832 7.86461C46.832 7.66194 46.7733 7.50194 46.656 7.38461C46.5387 7.25661 46.3787 7.19261 46.176 7.19261C45.984 7.19261 45.824 7.25661 45.696 7.38461C45.5787 7.50194 45.52 7.66194 45.52 7.86461C45.52 8.05661 45.5787 8.21661 45.696 8.34461C45.824 8.46194 45.984 8.52061 46.176 8.52061ZM50.3216 5.38461C49.4576 5.38461 48.7643 5.21394 48.2416 4.87261C47.719 4.52061 47.4576 4.06194 47.4576 3.49661C47.4576 3.08061 47.5963 2.73928 47.8736 2.47261C48.151 2.19528 48.5083 2.05661 48.9456 2.05661C49.3723 2.05661 49.7243 2.17928 50.0016 2.42461C50.279 2.66994 50.4176 2.98994 50.4176 3.38461C50.4176 3.68328 50.327 3.93394 50.1456 4.13661C50.1243 4.16861 50.0976 4.19528 50.0656 4.21661C50.1403 4.22728 50.2203 4.23261 50.3056 4.23261C50.8603 4.23261 51.335 4.07794 51.7296 3.76861C52.1136 3.44861 52.4123 2.97394 52.6256 2.34461L54.0176 2.90461C53.7296 3.70461 53.2763 4.31794 52.6576 4.74461C52.0283 5.17128 51.2496 5.38461 50.3216 5.38461ZM48.9456 4.00861C49.095 4.00861 49.223 3.95528 49.3296 3.84861C49.4363 3.74194 49.4896 3.61394 49.4896 3.46461C49.4896 3.30461 49.4363 3.17128 49.3296 3.06461C49.223 2.95794 49.095 2.90461 48.9456 2.90461C48.7856 2.90461 48.6523 2.95794 48.5456 3.06461C48.439 3.17128 48.3856 3.30461 48.3856 3.46461C48.3856 3.61394 48.439 3.74194 48.5456 3.84861C48.6523 3.95528 48.7856 4.00861 48.9456 4.00861ZM55.768 15.0006L53.272 9.43261L54.84 8.82461L56.888 13.5926H58.264V9.52861C58.1893 9.53928 58.1147 9.54461 58.04 9.54461C57.5387 9.54461 57.128 9.38994 56.808 9.08061C56.488 8.76061 56.328 8.36594 56.328 7.89661C56.328 7.39528 56.4987 6.98461 56.84 6.66461C57.1813 6.34461 57.6133 6.18461 58.136 6.18461C58.68 6.18461 59.112 6.34994 59.432 6.68061C59.752 7.00061 59.912 7.43261 59.912 7.97661V15.0006H55.768ZM58.104 8.55261C58.3067 8.55261 58.4667 8.49394 58.584 8.37661C58.7013 8.24861 58.76 8.08861 58.76 7.89661C58.76 7.69394 58.7013 7.53394 58.584 7.41661C58.4667 7.28861 58.3067 7.22461 58.104 7.22461C57.912 7.22461 57.752 7.28861 57.624 7.41661C57.5067 7.53394 57.448 7.69394 57.448 7.89661C57.448 8.08861 57.5067 8.24861 57.624 8.37661C57.752 8.49394 57.912 8.55261 58.104 8.55261Z" fill="white"/>
<g id="GPay (Dark)">
<g id="GPay">
<g id="Pay">
<path id="Fill 1" fill-rule="evenodd" clip-rule="evenodd" d="M89.3563 3.42339V8.16175H92.2784C92.9745 8.16175 93.5501 7.92781 94.0055 7.45993C94.4728 6.99313 94.707 6.43644 94.707 5.79203C94.707 5.16061 94.4728 4.61041 94.0055 4.14254C93.5501 3.66274 92.9745 3.4223 92.2784 3.4223H89.3563V3.42339ZM89.3563 9.82966V15.3262H87.6107V1.75549H92.2404C93.4169 1.75549 94.4154 2.14756 95.2383 2.93061C96.0732 3.71365 96.4906 4.66782 96.4906 5.79203C96.4906 6.94224 96.0731 7.90291 95.2383 8.67296C94.4283 9.44409 93.4287 9.82858 92.2404 9.82858H89.3563V9.82966Z" fill="white"/>
<path id="Fill 3" fill-rule="evenodd" clip-rule="evenodd" d="M98.2546 12.4831C98.2546 12.9379 98.4476 13.317 98.8337 13.6203C99.2195 13.9235 99.6717 14.0752 100.19 14.0752C100.924 14.0752 101.578 13.8032 102.153 13.2607C102.729 12.717 103.017 12.0791 103.017 11.3469C102.472 10.917 101.713 10.7025 100.74 10.7025C100.031 10.7025 99.4397 10.8736 98.9659 11.2148C98.492 11.5559 98.2546 11.9773 98.2546 12.4831M100.513 5.73566C101.803 5.73566 102.821 6.08007 103.569 6.76889C104.314 7.45771 104.687 8.40213 104.687 9.60216V15.3261H103.018V14.0373H102.942C102.221 15.0985 101.259 15.6294 100.058 15.6294C99.0332 15.6294 98.1755 15.3261 97.4869 14.7196C96.7975 14.1131 96.4527 13.3549 96.4527 12.4452C96.4527 11.4845 96.8158 10.7208 97.5433 10.1523C98.2708 9.58375 99.2413 9.2989 100.456 9.2989C101.492 9.2989 102.346 9.48844 103.017 9.86751V9.46894C103.017 8.86243 102.776 8.34798 102.296 7.92451C101.814 7.50103 101.252 7.28984 100.607 7.28984C99.6326 7.28984 98.8618 7.70032 98.2926 8.52235L96.7551 7.55519C97.6029 6.34217 98.8552 5.73566 100.513 5.73566" fill="white"/>
<path id="Fill 5" fill-rule="evenodd" clip-rule="evenodd" d="M114.269 6.03894L108.443 19.4201H106.641L108.804 14.738L104.971 6.03894H106.869L109.639 12.7106H109.677L112.371 6.03894H114.269Z" fill="white"/>
</g>
<g id="G">
<path id="Fill 8" fill-rule="evenodd" clip-rule="evenodd" d="M82.3029 8.64473C82.3029 8.09563 82.2562 7.56601 82.1684 7.05914H74.8065V10.0625H79.0231C78.842 11.0414 78.2944 11.8744 77.4639 12.4322V14.3828H79.9804C81.4539 13.0246 82.3029 11.0177 82.3029 8.64473" fill="#4285F4"/>
<path id="Fill 10" fill-rule="evenodd" clip-rule="evenodd" d="M74.8065 16.2651C76.9131 16.2651 78.6869 15.5741 79.9804 14.3828L77.4639 12.4322C76.7635 12.9033 75.8614 13.1784 74.8065 13.1784C72.7703 13.1784 71.042 11.8073 70.424 9.95959H67.8316V11.9687C69.1164 14.516 71.7565 16.2651 74.8065 16.2651" fill="#34A853"/>
<path id="Fill 12" fill-rule="evenodd" clip-rule="evenodd" d="M70.424 9.9596C70.2657 9.48847 70.179 8.98593 70.179 8.46715C70.179 7.94837 70.2657 7.44583 70.424 6.9747V4.96564H67.8316C67.3003 6.01837 67 7.20756 67 8.46715C67 9.72674 67.3003 10.916 67.8316 11.9687L70.424 9.9596Z" fill="#FABB05"/>
<path id="Fill 14" fill-rule="evenodd" clip-rule="evenodd" d="M74.8065 3.75583C75.9568 3.75583 76.9879 4.15115 77.8011 4.92553V4.92661L80.0292 2.70094C78.6761 1.44243 76.912 0.669128 74.8065 0.669128C71.7565 0.669128 69.1164 2.41826 67.8316 4.9656L70.424 6.97467C71.042 5.12698 72.7703 3.75583 74.8065 3.75583" fill="#E94235"/>
</g>
</g>
</g>
</g>
</svg>
