<svg width="114" height="21" viewBox="0 0 114 21" fill="none" xmlns="http://www.w3.org/2000/svg">
<g id="th_book_with_Pay_NBG">
<path id="Left Text" d="M3.24412 15.0006V12.5686C3.19079 12.5793 3.13212 12.5846 3.06812 12.5846C2.60946 12.5846 2.22012 12.4353 1.90012 12.1366C1.59079 11.8273 1.43612 11.4433 1.43612 10.9846C1.43612 10.5046 1.59612 10.1153 1.91612 9.81661C2.24679 9.51794 2.66812 9.36861 3.18012 9.36861C3.69212 9.36861 4.09746 9.52328 4.39612 9.83261C4.70546 10.1313 4.86012 10.5366 4.86012 11.0486V13.6086C5.25479 13.6086 5.60146 13.4859 5.90012 13.2406C6.20946 12.9846 6.44946 12.6326 6.62012 12.1846C6.80146 11.7259 6.89212 11.2033 6.89212 10.6166C6.89212 9.66728 6.65746 8.92061 6.18812 8.37661C5.72946 7.82194 5.08946 7.54461 4.26812 7.54461C3.77746 7.54461 3.31346 7.64594 2.87612 7.84861C2.43879 8.05128 2.09212 8.33394 1.83612 8.69661L0.684123 7.75261C1.06812 7.22994 1.57479 6.82461 2.20412 6.53661C2.84412 6.24861 3.54279 6.10461 4.30012 6.10461C5.17479 6.10461 5.92679 6.28594 6.55612 6.64861C7.19612 7.01128 7.69212 7.52861 8.04412 8.20061C8.39612 8.86194 8.57212 9.64594 8.57212 10.5526C8.57212 11.4486 8.40679 12.2326 8.07612 12.9046C7.74546 13.5659 7.28146 14.0833 6.68412 14.4566C6.09746 14.8193 5.40412 15.0006 4.60412 15.0006H3.24412ZM3.14812 11.6246C3.34012 11.6246 3.49479 11.5659 3.61212 11.4486C3.72946 11.3313 3.78812 11.1766 3.78812 10.9846C3.78812 10.7926 3.72946 10.6379 3.61212 10.5206C3.50546 10.4033 3.35079 10.3446 3.14812 10.3446C2.95612 10.3446 2.80146 10.4033 2.68412 10.5206C2.56679 10.6379 2.50812 10.7926 2.50812 10.9846C2.50812 11.1766 2.56679 11.3313 2.68412 11.4486C2.80146 11.5659 2.95612 11.6246 3.14812 11.6246ZM10.6222 15.0006V10.9846C10.6222 10.4833 10.7769 10.0779 11.0862 9.76861C11.3956 9.45928 11.8009 9.30461 12.3022 9.30461C12.8036 9.30461 13.2142 9.45394 13.5342 9.75261C13.8542 10.0406 14.0142 10.4139 14.0142 10.8726C14.0142 11.3206 13.8649 11.6939 13.5662 11.9926C13.2676 12.2806 12.8889 12.4246 12.4302 12.4246C12.3769 12.4246 12.3236 12.4246 12.2702 12.4246V13.5926H15.9342V9.72061C15.9342 9.05928 15.7209 8.53128 15.2942 8.13661C14.8782 7.74194 14.3182 7.54461 13.6142 7.54461C13.1236 7.54461 12.6756 7.64594 12.2702 7.84861C11.8756 8.05128 11.5556 8.33928 11.3102 8.71261L10.1102 7.83261C10.4836 7.27794 10.9849 6.85128 11.6142 6.55261C12.2436 6.25394 12.9582 6.10461 13.7582 6.10461C14.9529 6.10461 15.8916 6.43528 16.5742 7.09661C17.2676 7.74728 17.6142 8.63794 17.6142 9.76861V15.0006H10.6222ZM12.3342 11.5606C12.5262 11.5606 12.6809 11.4966 12.7982 11.3686C12.9156 11.2406 12.9742 11.0859 12.9742 10.9046C12.9742 10.7019 12.9156 10.5419 12.7982 10.4246C12.6809 10.3073 12.5262 10.2486 12.3342 10.2486C12.1422 10.2486 11.9822 10.3126 11.8542 10.4406C11.7369 10.5579 11.6782 10.7126 11.6782 10.9046C11.6782 11.0859 11.7422 11.2406 11.8702 11.3686C11.9982 11.4966 12.1529 11.5606 12.3342 11.5606ZM21.543 15.0006L19.047 9.43261L20.615 8.82461L22.663 13.5926H24.039V9.52861C23.9643 9.53928 23.8897 9.54461 23.815 9.54461C23.3137 9.54461 22.903 9.38994 22.583 9.08061C22.263 8.76061 22.103 8.36594 22.103 7.89661C22.103 7.39528 22.2737 6.98461 22.615 6.66461C22.9563 6.34461 23.3883 6.18461 23.911 6.18461C24.455 6.18461 24.887 6.34994 25.207 6.68061C25.527 7.00061 25.687 7.43261 25.687 7.97661V15.0006H21.543ZM23.879 8.55261C24.0817 8.55261 24.2417 8.49394 24.359 8.37661C24.4763 8.24861 24.535 8.08861 24.535 7.89661C24.535 7.69394 24.4763 7.53394 24.359 7.41661C24.2417 7.28861 24.0817 7.22461 23.879 7.22461C23.687 7.22461 23.527 7.28861 23.399 7.41661C23.2817 7.53394 23.223 7.69394 23.223 7.89661C23.223 8.08861 23.2817 8.24861 23.399 8.37661C23.527 8.49394 23.687 8.55261 23.879 8.55261ZM27.933 15.0006V9.89661C27.933 9.11794 28.093 8.44594 28.413 7.88061C28.733 7.31528 29.1863 6.87794 29.773 6.56861C30.3597 6.25928 31.053 6.10461 31.853 6.10461C32.653 6.10461 33.3463 6.25928 33.933 6.56861C34.5303 6.87794 34.989 7.32061 35.309 7.89661C35.629 8.46194 35.789 9.13394 35.789 9.91261V15.0006H34.125V9.83261C34.125 9.10728 33.9223 8.54194 33.517 8.13661C33.1223 7.73128 32.5677 7.52861 31.853 7.52861C31.1277 7.52861 30.5623 7.73128 30.157 8.13661C29.7517 8.54194 29.549 9.10728 29.549 9.83261V13.3846L31.133 12.0246C30.9303 11.9606 30.7543 11.8539 30.605 11.7046C30.3383 11.4486 30.205 11.1126 30.205 10.6966C30.205 10.2593 30.3543 9.90194 30.653 9.62461C30.9623 9.33661 31.3517 9.19261 31.821 9.19261C32.2903 9.19261 32.669 9.33661 32.957 9.62461C33.245 9.90194 33.389 10.2699 33.389 10.7286C33.389 11.0593 33.2877 11.3846 33.085 11.7046C32.893 12.0139 32.557 12.3819 32.077 12.8086L29.533 15.0006H27.933ZM31.789 11.3526C31.9703 11.3526 32.1197 11.2939 32.237 11.1766C32.365 11.0486 32.429 10.8939 32.429 10.7126C32.429 10.5206 32.3703 10.3659 32.253 10.2486C32.1357 10.1313 31.981 10.0726 31.789 10.0726C31.597 10.0726 31.4423 10.1313 31.325 10.2486C31.2077 10.3659 31.149 10.5206 31.149 10.7126C31.149 10.8939 31.2077 11.0486 31.325 11.1766C31.4423 11.2939 31.597 11.3526 31.789 11.3526ZM31.7039 5.27261V4.60061C31.9279 4.55794 32.1359 4.48861 32.3279 4.39261C32.5092 4.28594 32.6585 4.16328 32.7759 4.02461C32.7332 4.03528 32.6585 4.04061 32.5519 4.04061C32.2639 4.04061 32.0292 3.94994 31.8479 3.76861C31.6559 3.57661 31.5599 3.33661 31.5599 3.04861C31.5599 2.72861 31.6879 2.46728 31.9439 2.26461C32.1999 2.05128 32.5199 1.94461 32.9039 1.94461C33.3092 1.94461 33.6399 2.05128 33.8959 2.26461C34.1412 2.47794 34.2639 2.74994 34.2639 3.08061C34.2639 3.29394 34.2105 3.50728 34.1039 3.72061C33.9972 3.93394 33.8532 4.10994 33.6719 4.24861L33.6879 4.28061H33.9119C34.4452 4.28061 34.9039 4.10994 35.2879 3.76861C35.6612 3.41661 35.9545 2.89928 36.1679 2.21661L37.5599 2.77661C37.2719 3.57661 36.8185 4.19528 36.1999 4.63261C35.5812 5.05928 34.8292 5.27261 33.9439 5.27261H31.7039ZM32.8879 3.44861C33.0159 3.44861 33.1172 3.41128 33.1919 3.33661C33.2559 3.26194 33.2879 3.16594 33.2879 3.04861C33.2879 2.93128 33.2559 2.83528 33.1919 2.76061C33.1172 2.68594 33.0159 2.64861 32.8879 2.64861C32.7599 2.64861 32.6585 2.68594 32.5839 2.76061C32.5092 2.83528 32.4719 2.93128 32.4719 3.04861C32.4719 3.16594 32.5092 3.26194 32.5839 3.33661C32.6585 3.41128 32.7599 3.44861 32.8879 3.44861ZM41.532 15.1766C41.0093 15.1766 40.5827 15.0219 40.252 14.7126C39.9213 14.4033 39.756 14.0033 39.756 13.5126C39.756 13.0219 39.9213 12.6166 40.252 12.2966C40.5827 11.9766 40.9933 11.8166 41.484 11.8166C41.548 11.8166 41.6067 11.8219 41.66 11.8326V9.08061C41.66 8.57928 41.5053 8.20061 41.196 7.94461C40.8867 7.67794 40.4387 7.54461 39.852 7.54461C39.468 7.54461 39.0787 7.60328 38.684 7.72061C38.2893 7.82728 37.9267 7.98194 37.596 8.18461V6.71261C37.9693 6.50994 38.3747 6.36061 38.812 6.26461C39.26 6.15794 39.7133 6.10461 40.172 6.10461C41.1853 6.10461 41.964 6.36061 42.508 6.87261C43.0627 7.37394 43.34 8.08328 43.34 9.00061V13.3686C43.34 13.9126 43.1747 14.3499 42.844 14.6806C42.5133 15.0113 42.076 15.1766 41.532 15.1766ZM41.532 14.1366C41.7347 14.1366 41.8947 14.0779 42.012 13.9606C42.14 13.8326 42.204 13.6726 42.204 13.4806C42.204 13.2779 42.14 13.1179 42.012 13.0006C41.8947 12.8726 41.7347 12.8086 41.532 12.8086C41.3507 12.8086 41.196 12.8726 41.068 13.0006C40.94 13.1179 40.876 13.2779 40.876 13.4806C40.876 13.6726 40.9347 13.8326 41.052 13.9606C41.18 14.0779 41.34 14.1366 41.532 14.1366ZM45.828 15.0006V12.5366C45.828 12.1419 45.908 11.8166 46.068 11.5606C46.2387 11.2939 46.4893 11.1073 46.82 11.0006V10.9366C46.372 10.7873 46.004 10.4779 45.716 10.0086C45.428 9.52861 45.284 9.01128 45.284 8.45661C45.284 7.78461 45.4813 7.24061 45.876 6.82461C46.2813 6.40861 46.7987 6.20061 47.428 6.20061C47.972 6.20061 48.4093 6.35528 48.74 6.66461C49.0813 6.96328 49.252 7.35794 49.252 7.84861C49.252 8.30728 49.1027 8.68594 48.804 8.98461C48.516 9.27261 48.1427 9.41661 47.684 9.41661C47.396 9.41661 47.1507 9.34728 46.948 9.20861C47.044 9.51794 47.1933 9.74728 47.396 9.89661C47.6413 10.0673 48.004 10.1526 48.484 10.1526H49.668V11.3846H48.74C47.908 11.3846 47.492 11.7953 47.492 12.6166V13.5926H51.252V6.36061H52.932V15.0006H45.828ZM47.476 8.52061C47.6787 8.52061 47.8387 8.46194 47.956 8.34461C48.0733 8.21661 48.132 8.05661 48.132 7.86461C48.132 7.66194 48.0733 7.50194 47.956 7.38461C47.8387 7.25661 47.6787 7.19261 47.476 7.19261C47.284 7.19261 47.124 7.25661 46.996 7.38461C46.8787 7.50194 46.82 7.66194 46.82 7.86461C46.82 8.05661 46.8787 8.21661 46.996 8.34461C47.124 8.46194 47.284 8.52061 47.476 8.52061Z" fill="white"/>
<g id="GPay (Dark)">
<g id="GPay">
<g id="Pay">
<path id="Fill 1" fill-rule="evenodd" clip-rule="evenodd" d="M82.3563 3.42339V8.16175H85.2784C85.9745 8.16175 86.5501 7.92781 87.0055 7.45993C87.4728 6.99313 87.707 6.43644 87.707 5.79203C87.707 5.16061 87.4728 4.61041 87.0055 4.14254C86.5501 3.66274 85.9745 3.4223 85.2784 3.4223H82.3563V3.42339ZM82.3563 9.82966V15.3262H80.6107V1.75549H85.2404C86.4169 1.75549 87.4154 2.14756 88.2383 2.93061C89.0732 3.71365 89.4906 4.66782 89.4906 5.79203C89.4906 6.94224 89.0731 7.90291 88.2383 8.67296C87.4283 9.44409 86.4287 9.82858 85.2404 9.82858H82.3563V9.82966Z" fill="white"/>
<path id="Fill 3" fill-rule="evenodd" clip-rule="evenodd" d="M91.2546 12.4831C91.2546 12.9379 91.4476 13.317 91.8337 13.6203C92.2195 13.9235 92.6717 14.0752 93.19 14.0752C93.9239 14.0752 94.5777 13.8032 95.1535 13.2607C95.7293 12.717 96.0165 12.0791 96.0165 11.3469C95.4722 10.917 94.7133 10.7025 93.7396 10.7025C93.0306 10.7025 92.4397 10.8736 91.9659 11.2148C91.492 11.5559 91.2546 11.9773 91.2546 12.4831M93.513 5.73566C94.8033 5.73566 95.8214 6.08007 96.5685 6.76889C97.3145 7.45771 97.6873 8.40213 97.6873 9.60216V15.3261H96.0177V14.0373H95.9417C95.2207 15.0985 94.259 15.6294 93.0578 15.6294C92.0332 15.6294 91.1755 15.3261 90.4869 14.7196C89.7975 14.1131 89.4527 13.3549 89.4527 12.4452C89.4527 11.4845 89.8158 10.7208 90.5433 10.1523C91.2708 9.58375 92.2413 9.2989 93.4557 9.2989C94.4921 9.2989 95.3465 9.48844 96.0165 9.86751V9.46894C96.0165 8.86243 95.7758 8.34798 95.2956 7.92451C94.8141 7.50103 94.2525 7.28984 93.6074 7.28984C92.6326 7.28984 91.8618 7.70032 91.2926 8.52235L89.7551 7.55519C90.6029 6.34217 91.8552 5.73566 93.513 5.73566" fill="white"/>
<path id="Fill 5" fill-rule="evenodd" clip-rule="evenodd" d="M107.269 6.03894L101.443 19.4201H99.6411L101.804 14.738L97.9714 6.03894H99.8688L102.639 12.7106H102.677L105.371 6.03894H107.269Z" fill="white"/>
</g>
<g id="G">
<path id="Fill 8" fill-rule="evenodd" clip-rule="evenodd" d="M75.3029 8.64473C75.3029 8.09563 75.2562 7.56601 75.1684 7.05914H67.8065V10.0625H72.0231C71.842 11.0414 71.2944 11.8744 70.4639 12.4322V14.3828H72.9804C74.4539 13.0246 75.3029 11.0177 75.3029 8.64473" fill="#4285F4"/>
<path id="Fill 10" fill-rule="evenodd" clip-rule="evenodd" d="M67.8065 16.2651C69.9131 16.2651 71.6869 15.5741 72.9804 14.3828L70.4639 12.4322C69.7635 12.9033 68.8614 13.1784 67.8065 13.1784C65.7703 13.1784 64.042 11.8073 63.424 9.95959H60.8316V11.9687C62.1164 14.516 64.7565 16.2651 67.8065 16.2651" fill="#34A853"/>
<path id="Fill 12" fill-rule="evenodd" clip-rule="evenodd" d="M63.424 9.9596C63.2657 9.48847 63.179 8.98593 63.179 8.46715C63.179 7.94837 63.2657 7.44583 63.424 6.9747V4.96564H60.8316C60.3003 6.01837 60 7.20756 60 8.46715C60 9.72674 60.3003 10.916 60.8316 11.9687L63.424 9.9596Z" fill="#FABB05"/>
<path id="Fill 14" fill-rule="evenodd" clip-rule="evenodd" d="M67.8065 3.75583C68.9568 3.75583 69.9879 4.15115 70.8011 4.92553V4.92661L73.0292 2.70094C71.6761 1.44243 69.912 0.669128 67.8065 0.669128C64.7565 0.669128 62.1164 2.41826 60.8316 4.9656L63.424 6.97467C64.042 5.12698 65.7703 3.75583 67.8065 3.75583" fill="#E94235"/>
</g>
</g>
</g>
</g>
</svg>
