<svg width="192" height="38" viewBox="0 0 192 38" fill="none" xmlns="http://www.w3.org/2000/svg">
<g id="th_book_with_Light">
<path id="Text" d="M5.20853 28V21.28H3.22053V19.152H7.98053V25.648H8.31653C9.4552 25.648 10.3232 25.228 10.9205 24.388C11.5179 23.548 11.8165 22.176 11.8165 20.272C11.8165 18.2933 11.4619 16.884 10.7525 16.044C10.0432 15.204 8.87653 14.784 7.25253 14.784C6.33786 14.784 5.47919 14.9053 4.67653 15.148C3.87386 15.3907 3.11786 15.7453 2.40853 16.212V13.524C2.98719 13.2067 3.73386 12.936 4.64853 12.712C5.58186 12.4693 6.5992 12.348 7.70053 12.348C10.2952 12.348 12.1339 13.0293 13.2165 14.392C14.3179 15.7547 14.8685 17.7147 14.8685 20.272C14.8685 22.736 14.3365 24.64 13.2725 25.984C12.2272 27.328 10.4352 28 7.89653 28H5.20853ZM24.5776 28.308C22.4683 28.308 20.9003 27.776 19.8736 26.712C18.847 25.648 18.3336 23.9867 18.3336 21.728C18.3336 21.3547 18.343 20.9347 18.3616 20.468C18.399 20.0013 18.4456 19.5627 18.5016 19.152H24.6336V21.308H21.3296V21.812C21.3296 23.3987 21.591 24.4907 22.1136 25.088C22.655 25.6667 23.4576 25.956 24.5216 25.956C25.287 25.956 25.9496 25.8067 26.5096 25.508C27.0883 25.1907 27.527 24.64 27.8256 23.856C28.143 23.072 28.3016 21.952 28.3016 20.496C28.3016 18.5547 27.9656 17.1267 27.2936 16.212C26.6403 15.2787 25.483 14.812 23.8216 14.812C22.9443 14.812 22.0763 14.9333 21.2176 15.176C20.3776 15.4 19.6123 15.7173 18.9216 16.128V13.44C19.5003 13.1413 20.2656 12.8893 21.2176 12.684C22.1696 12.46 23.187 12.348 24.2696 12.348C25.9496 12.348 27.3123 12.684 28.3576 13.356C29.403 14.0093 30.1683 14.9427 30.6536 16.156C31.139 17.3693 31.3816 18.7973 31.3816 20.44C31.3816 22.9413 30.859 24.8827 29.8136 26.264C28.787 27.6267 27.0416 28.308 24.5776 28.308ZM38.0398 28L33.3358 12.656H36.3598L40.3078 25.48H40.5878C40.9798 25.48 41.3625 25.3773 41.7358 25.172C42.1278 24.9667 42.4545 24.7053 42.7158 24.388C43.2198 23.8093 43.5931 23.0813 43.8358 22.204C44.0785 21.3267 44.1998 20.4587 44.1998 19.6C44.1998 18.144 43.8825 17.0053 43.2478 16.184C42.6131 15.3627 41.7358 14.952 40.6158 14.952C40.1305 14.952 39.7478 15.008 39.4678 15.12L38.7958 12.768C39.2065 12.656 39.5891 12.5813 39.9438 12.544C40.2985 12.5067 40.6065 12.488 40.8678 12.488C41.8198 12.488 42.6598 12.628 43.3878 12.908C44.1345 13.1693 44.7691 13.5613 45.2918 14.084C45.9265 14.7373 46.4025 15.54 46.7198 16.492C47.0558 17.444 47.2238 18.4893 47.2238 19.628C47.2238 21.1027 46.9905 22.4093 46.5238 23.548C46.0758 24.668 45.5158 25.564 44.8438 26.236C44.2838 26.7773 43.6025 27.2067 42.7998 27.524C41.9971 27.8413 40.9518 28 39.6638 28H38.0398ZM56.4243 28.28C54.9123 28.28 53.7176 27.9347 52.8403 27.244C51.9816 26.5533 51.375 25.62 51.0203 24.444C50.6656 23.268 50.4883 21.9427 50.4883 20.468C50.4883 18.34 50.787 16.688 51.3843 15.512C51.9816 14.336 52.8123 13.5147 53.8763 13.048C54.9403 12.5813 56.1723 12.348 57.5723 12.348C59.9056 12.348 61.5856 12.8427 62.6123 13.832C63.639 14.8213 64.1523 16.156 64.1523 17.836V28H61.1563V18.116C61.1563 17.0333 60.8856 16.212 60.3443 15.652C59.8216 15.092 58.9163 14.812 57.6283 14.812C56.8256 14.812 56.1163 14.9613 55.5003 15.26C54.8843 15.5587 54.399 16.1187 54.0443 16.94C53.6896 17.7427 53.5123 18.9187 53.5123 20.468C53.5123 21.4947 53.615 22.4093 53.8203 23.212C54.0256 24.0147 54.371 24.6493 54.8563 25.116C55.3603 25.5827 56.051 25.816 56.9283 25.816C57.451 25.816 57.9083 25.7507 58.3003 25.62L58.5803 27.916C58.2816 28.0467 57.9363 28.14 57.5443 28.196C57.1523 28.252 56.779 28.28 56.4243 28.28ZM56.1129 10.332V9.044C56.4489 8.96933 56.8036 8.86667 57.1769 8.736C57.5502 8.58667 57.8676 8.4 58.1289 8.176C58.3716 7.952 58.4929 7.66267 58.4929 7.308C58.4929 7.06533 58.4276 6.86933 58.2969 6.72C58.1476 6.57067 57.9329 6.496 57.6529 6.496C57.4662 6.496 57.2889 6.53333 57.1209 6.608C56.9342 6.664 56.7662 6.72 56.6169 6.776L56.0569 5.152C56.4302 4.85333 56.8596 4.65733 57.3449 4.564C57.8302 4.452 58.2316 4.396 58.5489 4.396C59.3142 4.396 59.9209 4.60133 60.3689 5.012C60.7982 5.42267 61.0129 5.964 61.0129 6.636C61.0129 7.196 60.8262 7.7 60.4529 8.148H64.9329V10.332H56.1129ZM72.4549 28.308C71.6709 28.308 70.9149 28.224 70.1869 28.056C69.4589 27.888 68.7123 27.5987 67.9469 27.188L68.8429 24.948C69.2536 25.1907 69.7296 25.4053 70.2709 25.592C70.8123 25.76 71.4096 25.844 72.0629 25.844C73.3323 25.844 74.3309 25.3773 75.0589 24.444C75.7869 23.492 76.1509 22.1013 76.1509 20.272C76.1509 18.4987 75.7776 17.1453 75.0309 16.212C74.2843 15.2787 73.1456 14.812 71.6149 14.812C71.0176 14.812 70.4016 14.8867 69.7669 15.036C69.1509 15.1667 68.6096 15.3627 68.1429 15.624V13.132C68.6843 12.852 69.2909 12.656 69.9629 12.544C70.6536 12.4133 71.3443 12.348 72.0349 12.348C73.7336 12.348 75.1056 12.6747 76.1509 13.328C77.2149 13.9813 77.9896 14.9053 78.4749 16.1C78.9789 17.276 79.2309 18.6667 79.2309 20.272C79.2309 22.792 78.6523 24.7613 77.4949 26.18C76.3563 27.5987 74.6763 28.308 72.4549 28.308ZM89.4163 28.28C87.0829 28.28 85.4309 27.8507 84.4603 26.992C83.4896 26.1147 83.0042 24.9573 83.0042 23.52C83.0042 22.6613 83.1256 21.98 83.3683 21.476C83.6296 20.972 83.9563 20.5893 84.3483 20.328C84.7403 20.0667 85.1416 19.8987 85.5523 19.824V19.712C85.1603 19.6 84.7589 19.4133 84.3483 19.152C83.9563 18.8907 83.6203 18.5267 83.3403 18.06C83.0789 17.5933 82.9483 17.0053 82.9483 16.296C82.9483 15.6427 83.0976 15.0267 83.3963 14.448C83.7136 13.8507 84.2083 13.3653 84.8803 12.992C85.5709 12.6187 86.4856 12.432 87.6243 12.432C88.1096 12.432 88.6043 12.4693 89.1083 12.544C89.6123 12.6187 90.0043 12.7307 90.2843 12.88L89.7803 15.064C89.5936 15.008 89.3416 14.952 89.0243 14.896C88.7069 14.84 88.3896 14.812 88.0723 14.812C87.3629 14.812 86.8309 14.98 86.4763 15.316C86.1403 15.652 85.9723 16.0907 85.9723 16.632C85.9723 17.2293 86.1216 17.6867 86.4203 18.004C86.7189 18.3027 87.1016 18.508 87.5683 18.62C88.0536 18.732 88.5483 18.788 89.0523 18.788H89.6123V20.832H89.0523C88.0256 20.832 87.2696 21.0187 86.7843 21.392C86.2989 21.7653 86.0563 22.372 86.0563 23.212C86.0563 23.6787 86.1496 24.1173 86.3363 24.528C86.5416 24.9387 86.8869 25.2747 87.3723 25.536C87.8576 25.7787 88.5483 25.9 89.4443 25.9C90.7509 25.9 91.6469 25.6293 92.1323 25.088C92.6176 24.5467 92.8603 23.8187 92.8603 22.904V12.656H95.8563V22.736C95.8563 24.6773 95.3336 26.0867 94.2883 26.964C93.2616 27.8413 91.6376 28.28 89.4163 28.28Z" fill="#3C4043"/>
<g id="GPay Logo (Light)">
<g id="GPay">
<g id="Pay">
<path id="Fill 1" fill-rule="evenodd" clip-rule="evenodd" d="M148.529 9.44664V17.6128H153.565C154.765 17.6128 155.757 17.2096 156.541 16.4032C157.347 15.5988 157.75 14.6394 157.75 13.5288C157.75 12.4406 157.347 11.4924 156.541 10.686C155.757 9.85915 154.765 9.44478 153.565 9.44478H148.529V9.44664ZM148.529 20.4872V29.9599H145.521V6.57217H153.499C155.527 6.57217 157.248 7.24786 158.666 8.59737C160.105 9.94688 160.824 11.5913 160.824 13.5288C160.824 15.511 160.105 17.1667 158.666 18.4938C157.27 19.8227 155.547 20.4854 153.499 20.4854H148.529V20.4872Z" fill="#5F6368"/>
<path id="Fill 3" fill-rule="evenodd" clip-rule="evenodd" d="M163.864 25.0602C163.864 25.8442 164.197 26.4975 164.862 27.0201C165.527 27.5427 166.306 27.804 167.2 27.804C168.465 27.804 169.591 27.3354 170.584 26.4004C171.576 25.4634 172.071 24.364 172.071 23.1022C171.133 22.3612 169.825 21.9916 168.147 21.9916C166.925 21.9916 165.907 22.2865 165.09 22.8745C164.273 23.4623 163.864 24.1886 163.864 25.0602ZM167.756 13.4317C169.98 13.4317 171.735 14.0252 173.022 15.2124C174.308 16.3995 174.95 18.0271 174.95 20.0952V29.9599H172.073V27.7387H171.942C170.699 29.5677 169.042 30.4825 166.972 30.4825C165.206 30.4825 163.728 29.9599 162.541 28.9146C161.353 27.8694 160.759 26.5628 160.759 24.9949C160.759 23.3393 161.385 22.0232 162.638 21.0434C163.892 20.0635 165.565 19.5726 167.658 19.5726C169.444 19.5726 170.916 19.8992 172.071 20.5525V19.8656C172.071 18.8204 171.656 17.9338 170.829 17.204C169.999 16.4741 169.031 16.1102 167.919 16.1102C166.239 16.1102 164.911 16.8176 163.93 18.2343L161.28 16.5675C162.741 14.4769 164.899 13.4317 167.756 13.4317Z" fill="#5F6368"/>
<path id="Fill 5" fill-rule="evenodd" clip-rule="evenodd" d="M191.463 13.9543L181.424 37.0154H178.318L182.046 28.9464L175.44 13.9543H178.71L183.484 25.4522H183.55L188.193 13.9543H191.463Z" fill="#5F6368"/>
</g>
<g id="G">
<path id="Fill 8" fill-rule="evenodd" clip-rule="evenodd" d="M136.373 18.4452C136.373 17.4989 136.293 16.5861 136.141 15.7126H123.454V20.8885H130.72C130.408 22.5757 129.465 24.0112 128.033 24.9725V28.3341H132.37C134.91 25.9935 136.373 22.5348 136.373 18.4452Z" fill="#4285F4"/>
<path id="Fill 10" fill-rule="evenodd" clip-rule="evenodd" d="M123.454 31.5782C127.084 31.5782 130.141 30.3873 132.37 28.3341L128.033 24.9725C126.826 25.7844 125.272 26.2585 123.454 26.2585C119.944 26.2585 116.966 23.8955 115.901 20.7112H111.433V24.1736C113.647 28.5637 118.197 31.5782 123.454 31.5782Z" fill="#34A853"/>
<path id="Fill 12" fill-rule="evenodd" clip-rule="evenodd" d="M115.901 20.7111C115.628 19.8992 115.479 19.0331 115.479 18.139C115.479 17.245 115.628 16.3789 115.901 15.567V12.1045H111.433C110.518 13.9188 110 15.9683 110 18.139C110 20.3098 110.518 22.3595 111.433 24.1736L115.901 20.7111Z" fill="#FABB05"/>
<path id="Fill 14" fill-rule="evenodd" clip-rule="evenodd" d="M123.454 10.0196C125.436 10.0196 127.213 10.7009 128.615 12.0355V12.0374L132.455 8.20162C130.123 6.03271 127.082 4.7 123.454 4.7C118.197 4.7 113.647 7.71446 111.433 12.1046L115.901 15.567C116.966 12.3827 119.944 10.0196 123.454 10.0196Z" fill="#E94235"/>
</g>
</g>
</g>
</g>
</svg>
