<svg width="100" height="21" viewBox="0 0 100 21" fill="none" xmlns="http://www.w3.org/2000/svg">
<g id="th_buy_with_Pay_NBG">
<path id="Left Text" d="M4.91925 15.2566C4.26858 15.2566 3.70325 15.1339 3.22325 14.8886C2.74325 14.6433 2.36992 14.2913 2.10325 13.8326C1.84725 13.3633 1.71925 12.8193 1.71925 12.2006V11.8166C1.71925 11.3473 1.79392 10.9473 1.94325 10.6166C2.09258 10.2753 2.30592 9.94994 2.58325 9.64061C2.71125 9.49128 2.82858 9.35794 2.93525 9.24061C3.05258 9.11261 3.15925 8.97928 3.25525 8.84061C3.36192 8.70194 3.46858 8.55261 3.57525 8.39261H3.47925C3.31925 8.63794 3.11658 8.85661 2.87125 9.04861C2.62592 9.22994 2.31658 9.32061 1.94325 9.32061C1.50592 9.32061 1.14325 9.17661 0.855251 8.88861C0.567251 8.60061 0.423251 8.23261 0.423251 7.78461C0.423251 7.31528 0.577917 6.93128 0.887251 6.63261C1.19658 6.33394 1.59125 6.18461 2.07125 6.18461C2.54058 6.18461 2.91925 6.32861 3.20725 6.61661C3.50592 6.89394 3.65525 7.27794 3.65525 7.76861H3.76725C3.87392 7.59794 3.95392 7.38994 4.00725 7.14461C4.06058 6.89928 4.08725 6.63794 4.08725 6.36061H5.15925V6.74461C5.15925 7.25661 5.10058 7.68861 4.98325 8.04061C4.86592 8.38194 4.71658 8.68594 4.53525 8.95261C4.36458 9.21928 4.18858 9.48061 4.00725 9.73661C3.82592 9.98194 3.67658 10.2646 3.55925 10.5846C3.44192 10.8939 3.38325 11.2779 3.38325 11.7366V12.2486C3.38325 12.7393 3.51658 13.1233 3.78325 13.4006C4.06058 13.6779 4.43925 13.8166 4.91925 13.8166C5.39925 13.8166 5.77258 13.6779 6.03925 13.4006C6.31658 13.1233 6.45525 12.7393 6.45525 12.2486V10.6166C6.45525 10.2539 6.38058 9.98194 6.23125 9.80061C6.08192 9.60861 5.86325 9.51261 5.57525 9.51261H5.39925V8.84061L7.30325 6.13661L8.53525 6.93661L7.12725 8.80861V8.84061C7.44725 8.93661 7.69258 9.13394 7.86325 9.43261C8.04458 9.72061 8.13525 10.0726 8.13525 10.4886V12.2006C8.13525 13.1286 7.84192 13.8699 7.25525 14.4246C6.67925 14.9793 5.90058 15.2566 4.91925 15.2566ZM2.05525 8.42461C2.25792 8.42461 2.41792 8.36594 2.53525 8.24861C2.66325 8.12061 2.72725 7.96061 2.72725 7.76861C2.72725 7.56594 2.66325 7.40594 2.53525 7.28861C2.41792 7.16061 2.25792 7.09661 2.05525 7.09661C1.86325 7.09661 1.70325 7.16061 1.57525 7.28861C1.45792 7.40594 1.39925 7.56594 1.39925 7.76861C1.39925 7.96061 1.45792 8.12061 1.57525 8.24861C1.70325 8.36594 1.86325 8.42461 2.05525 8.42461ZM0.933625 5.27261V5.16061C1.02963 4.60594 1.24296 4.12061 1.57363 3.70461C1.89363 3.27794 2.30429 2.94728 2.80562 2.71261C3.30696 2.47794 3.86163 2.36061 4.46962 2.36061C4.83229 2.36061 5.17896 2.40861 5.50963 2.50461V1.97661H6.51763V2.98461C6.56029 3.01661 6.60829 3.04861 6.66163 3.08061C6.81096 3.20861 6.94429 3.34194 7.06163 3.48061V1.97661H8.11763V4.69661C8.19229 4.82461 8.24563 4.97928 8.27763 5.16061V5.27261H0.933625ZM2.69362 4.34461H6.51763C6.41096 4.04594 6.18696 3.80594 5.84563 3.62461C5.49363 3.44328 5.07763 3.35261 4.59763 3.35261C4.13896 3.35261 3.73363 3.44328 3.38163 3.62461C3.02963 3.80594 2.80029 4.04594 2.69362 4.34461ZM5.29125 1.22461V0.66461C5.66458 0.600609 5.96325 0.435276 6.18725 0.16861C6.12325 0.179276 6.08058 0.184609 6.05925 0.184609C5.79258 0.184609 5.57925 0.109943 5.41925 -0.0393906C5.24858 -0.188724 5.16325 -0.386057 5.16325 -0.631391C5.16325 -0.919391 5.27525 -1.14872 5.49925 -1.31939C5.71258 -1.50072 5.98458 -1.59139 6.31525 -1.59139C6.66725 -1.59139 6.94992 -1.50072 7.16325 -1.31939C7.37658 -1.14872 7.48325 -0.924724 7.48325 -0.64739C7.48325 -0.466057 7.44058 -0.284724 7.35525 -0.103391C7.25925 0.0672763 7.13658 0.21661 6.98725 0.344609V0.37661H7.25925C7.66458 0.37661 8.02192 0.227276 8.33125 -0.0713902C8.62992 -0.380724 8.86458 -0.812724 9.03525 -1.36739L10.2193 -0.90339C9.98458 -0.220724 9.61125 0.307276 9.09925 0.68061C8.58725 1.04328 7.97925 1.22461 7.27525 1.22461H5.29125ZM6.31525 -0.327391C6.42192 -0.327391 6.50725 -0.354057 6.57125 -0.407391C6.62458 -0.47139 6.65125 -0.556724 6.65125 -0.66339C6.65125 -0.75939 6.62458 -0.834057 6.57125 -0.88739C6.50725 -0.951391 6.42192 -0.983391 6.31525 -0.983391C6.20858 -0.983391 6.12325 -0.951391 6.05925 -0.88739C5.99525 -0.834057 5.96325 -0.75939 5.96325 -0.66339C5.96325 -0.556724 5.99525 -0.47139 6.05925 -0.407391C6.12325 -0.354057 6.20858 -0.327391 6.31525 -0.327391ZM10.7723 15.0006V10.9846C10.7723 10.4833 10.9269 10.0779 11.2363 9.76861C11.5456 9.45928 11.9509 9.30461 12.4523 9.30461C12.9536 9.30461 13.3643 9.45394 13.6843 9.75261C14.0043 10.0406 14.1643 10.4139 14.1643 10.8726C14.1643 11.3206 14.0149 11.6939 13.7163 11.9926C13.4176 12.2806 13.0389 12.4246 12.5803 12.4246C12.5269 12.4246 12.4736 12.4246 12.4203 12.4246V13.5926H16.0843V9.72061C16.0843 9.05928 15.8709 8.53128 15.4443 8.13661C15.0283 7.74194 14.4683 7.54461 13.7643 7.54461C13.2736 7.54461 12.8256 7.64594 12.4203 7.84861C12.0256 8.05128 11.7056 8.33928 11.4603 8.71261L10.2603 7.83261C10.6336 7.27794 11.1349 6.85128 11.7643 6.55261C12.3936 6.25394 13.1083 6.10461 13.9083 6.10461C15.1029 6.10461 16.0416 6.43528 16.7243 7.09661C17.4176 7.74728 17.7643 8.63794 17.7643 9.76861V15.0006H10.7723ZM12.4843 11.5606C12.6763 11.5606 12.8309 11.4966 12.9483 11.3686C13.0656 11.2406 13.1243 11.0859 13.1243 10.9046C13.1243 10.7019 13.0656 10.5419 12.9483 10.4246C12.8309 10.3073 12.6763 10.2486 12.4843 10.2486C12.2923 10.2486 12.1323 10.3126 12.0043 10.4406C11.8869 10.5579 11.8283 10.7126 11.8283 10.9046C11.8283 11.0859 11.8923 11.2406 12.0203 11.3686C12.1483 11.4966 12.3029 11.5606 12.4843 11.5606ZM19.933 15.0006V9.89661C19.933 9.11794 20.093 8.44594 20.413 7.88061C20.733 7.31528 21.1863 6.87794 21.773 6.56861C22.3597 6.25928 23.053 6.10461 23.853 6.10461C24.653 6.10461 25.3463 6.25928 25.933 6.56861C26.5303 6.87794 26.989 7.32061 27.309 7.89661C27.629 8.46194 27.789 9.13394 27.789 9.91261V15.0006H26.125V9.83261C26.125 9.10728 25.9223 8.54194 25.517 8.13661C25.1223 7.73128 24.5677 7.52861 23.853 7.52861C23.1277 7.52861 22.5623 7.73128 22.157 8.13661C21.7517 8.54194 21.549 9.10728 21.549 9.83261V13.3846L23.133 12.0246C22.9303 11.9606 22.7543 11.8539 22.605 11.7046C22.3383 11.4486 22.205 11.1126 22.205 10.6966C22.205 10.2593 22.3543 9.90194 22.653 9.62461C22.9623 9.33661 23.3517 9.19261 23.821 9.19261C24.2903 9.19261 24.669 9.33661 24.957 9.62461C25.245 9.90194 25.389 10.2699 25.389 10.7286C25.389 11.0593 25.2877 11.3846 25.085 11.7046C24.893 12.0139 24.557 12.3819 24.077 12.8086L21.533 15.0006H19.933ZM23.789 11.3526C23.9703 11.3526 24.1197 11.2939 24.237 11.1766C24.365 11.0486 24.429 10.8939 24.429 10.7126C24.429 10.5206 24.3703 10.3659 24.253 10.2486C24.1357 10.1313 23.981 10.0726 23.789 10.0726C23.597 10.0726 23.4423 10.1313 23.325 10.2486C23.2077 10.3659 23.149 10.5206 23.149 10.7126C23.149 10.8939 23.2077 11.0486 23.325 11.1766C23.4423 11.2939 23.597 11.3526 23.789 11.3526ZM23.7039 5.27261V4.60061C23.9279 4.55794 24.1359 4.48861 24.3279 4.39261C24.5092 4.28594 24.6585 4.16328 24.7759 4.02461C24.7332 4.03528 24.6585 4.04061 24.5519 4.04061C24.2639 4.04061 24.0292 3.94994 23.8479 3.76861C23.6559 3.57661 23.5599 3.33661 23.5599 3.04861C23.5599 2.72861 23.6879 2.46728 23.9439 2.26461C24.1999 2.05128 24.5199 1.94461 24.9039 1.94461C25.3092 1.94461 25.6399 2.05128 25.8959 2.26461C26.1412 2.47794 26.2639 2.74994 26.2639 3.08061C26.2639 3.29394 26.2105 3.50728 26.1039 3.72061C25.9972 3.93394 25.8532 4.10994 25.6719 4.24861L25.6879 4.28061H25.9119C26.4452 4.28061 26.9039 4.10994 27.2879 3.76861C27.6612 3.41661 27.9545 2.89928 28.1679 2.21661L29.5599 2.77661C29.2719 3.57661 28.8185 4.19528 28.1999 4.63261C27.5812 5.05928 26.8292 5.27261 25.9439 5.27261H23.7039ZM24.8879 3.44861C25.0159 3.44861 25.1172 3.41128 25.1919 3.33661C25.2559 3.26194 25.2879 3.16594 25.2879 3.04861C25.2879 2.93128 25.2559 2.83528 25.1919 2.76061C25.1172 2.68594 25.0159 2.64861 24.8879 2.64861C24.7599 2.64861 24.6585 2.68594 24.5839 2.76061C24.5092 2.83528 24.4719 2.93128 24.4719 3.04861C24.4719 3.16594 24.5092 3.26194 24.5839 3.33661C24.6585 3.41128 24.7599 3.44861 24.8879 3.44861ZM33.532 15.1766C33.0093 15.1766 32.5827 15.0219 32.252 14.7126C31.9213 14.4033 31.756 14.0033 31.756 13.5126C31.756 13.0219 31.9213 12.6166 32.252 12.2966C32.5827 11.9766 32.9933 11.8166 33.484 11.8166C33.548 11.8166 33.6067 11.8219 33.66 11.8326V9.08061C33.66 8.57928 33.5053 8.20061 33.196 7.94461C32.8867 7.67794 32.4387 7.54461 31.852 7.54461C31.468 7.54461 31.0787 7.60328 30.684 7.72061C30.2893 7.82728 29.9267 7.98194 29.596 8.18461V6.71261C29.9693 6.50994 30.3747 6.36061 30.812 6.26461C31.26 6.15794 31.7133 6.10461 32.172 6.10461C33.1853 6.10461 33.964 6.36061 34.508 6.87261C35.0627 7.37394 35.34 8.08328 35.34 9.00061V13.3686C35.34 13.9126 35.1747 14.3499 34.844 14.6806C34.5133 15.0113 34.076 15.1766 33.532 15.1766ZM33.532 14.1366C33.7347 14.1366 33.8947 14.0779 34.012 13.9606C34.14 13.8326 34.204 13.6726 34.204 13.4806C34.204 13.2779 34.14 13.1179 34.012 13.0006C33.8947 12.8726 33.7347 12.8086 33.532 12.8086C33.3507 12.8086 33.196 12.8726 33.068 13.0006C32.94 13.1179 32.876 13.2779 32.876 13.4806C32.876 13.6726 32.9347 13.8326 33.052 13.9606C33.18 14.0779 33.34 14.1366 33.532 14.1366ZM37.828 15.0006V12.5366C37.828 12.1419 37.908 11.8166 38.068 11.5606C38.2387 11.2939 38.4893 11.1073 38.82 11.0006V10.9366C38.372 10.7873 38.004 10.4779 37.716 10.0086C37.428 9.52861 37.284 9.01128 37.284 8.45661C37.284 7.78461 37.4813 7.24061 37.876 6.82461C38.2813 6.40861 38.7987 6.20061 39.428 6.20061C39.972 6.20061 40.4093 6.35528 40.74 6.66461C41.0813 6.96328 41.252 7.35794 41.252 7.84861C41.252 8.30728 41.1027 8.68594 40.804 8.98461C40.516 9.27261 40.1427 9.41661 39.684 9.41661C39.396 9.41661 39.1507 9.34728 38.948 9.20861C39.044 9.51794 39.1933 9.74728 39.396 9.89661C39.6413 10.0673 40.004 10.1526 40.484 10.1526H41.668V11.3846H40.74C39.908 11.3846 39.492 11.7953 39.492 12.6166V13.5926H43.252V6.36061H44.932V15.0006H37.828ZM39.476 8.52061C39.6787 8.52061 39.8387 8.46194 39.956 8.34461C40.0733 8.21661 40.132 8.05661 40.132 7.86461C40.132 7.66194 40.0733 7.50194 39.956 7.38461C39.8387 7.25661 39.6787 7.19261 39.476 7.19261C39.284 7.19261 39.124 7.25661 38.996 7.38461C38.8787 7.50194 38.82 7.66194 38.82 7.86461C38.82 8.05661 38.8787 8.21661 38.996 8.34461C39.124 8.46194 39.284 8.52061 39.476 8.52061Z" fill="white"/>
<g id="GPay (Dark)">
<g id="GPay">
<g id="Pay">
<path id="Fill 1" fill-rule="evenodd" clip-rule="evenodd" d="M74.3563 3.42339V8.16175H77.2784C77.9745 8.16175 78.5501 7.92781 79.0055 7.45993C79.4728 6.99313 79.707 6.43644 79.707 5.79203C79.707 5.16061 79.4728 4.61041 79.0055 4.14254C78.5501 3.66274 77.9745 3.4223 77.2784 3.4223H74.3563V3.42339ZM74.3563 9.82966V15.3262H72.6107V1.75549H77.2404C78.4169 1.75549 79.4154 2.14756 80.2383 2.93061C81.0732 3.71365 81.4906 4.66782 81.4906 5.79203C81.4906 6.94224 81.0731 7.90291 80.2383 8.67296C79.4283 9.44409 78.4287 9.82858 77.2404 9.82858H74.3563V9.82966Z" fill="white"/>
<path id="Fill 3" fill-rule="evenodd" clip-rule="evenodd" d="M83.2546 12.4831C83.2546 12.9379 83.4476 13.317 83.8337 13.6203C84.2195 13.9235 84.6717 14.0752 85.19 14.0752C85.9239 14.0752 86.5777 13.8032 87.1535 13.2607C87.7293 12.717 88.0165 12.0791 88.0165 11.3469C87.4722 10.917 86.7133 10.7025 85.7396 10.7025C85.0306 10.7025 84.4397 10.8736 83.9659 11.2148C83.492 11.5559 83.2546 11.9773 83.2546 12.4831M85.513 5.73566C86.8033 5.73566 87.8214 6.08007 88.5685 6.76889C89.3145 7.45771 89.6873 8.40213 89.6873 9.60216V15.3261H88.0177V14.0373H87.9417C87.2207 15.0985 86.259 15.6294 85.0578 15.6294C84.0332 15.6294 83.1755 15.3261 82.4869 14.7196C81.7975 14.1131 81.4527 13.3549 81.4527 12.4452C81.4527 11.4845 81.8158 10.7208 82.5433 10.1523C83.2708 9.58375 84.2413 9.2989 85.4557 9.2989C86.4921 9.2989 87.3465 9.48844 88.0165 9.86751V9.46894C88.0165 8.86243 87.7758 8.34798 87.2956 7.92451C86.8141 7.50103 86.2525 7.28984 85.6074 7.28984C84.6326 7.28984 83.8618 7.70032 83.2926 8.52235L81.7551 7.55519C82.6029 6.34217 83.8552 5.73566 85.513 5.73566" fill="white"/>
<path id="Fill 5" fill-rule="evenodd" clip-rule="evenodd" d="M99.2687 6.03894L93.4432 19.4201H91.6411L93.8043 14.738L89.9714 6.03894H91.8688L94.639 12.7106H94.677L97.3713 6.03894H99.2687Z" fill="white"/>
</g>
<g id="G">
<path id="Fill 8" fill-rule="evenodd" clip-rule="evenodd" d="M67.3029 8.64473C67.3029 8.09563 67.2562 7.56601 67.1684 7.05914H59.8065V10.0625H64.0231C63.842 11.0414 63.2944 11.8744 62.4639 12.4322V14.3828H64.9804C66.4539 13.0246 67.3029 11.0177 67.3029 8.64473" fill="#4285F4"/>
<path id="Fill 10" fill-rule="evenodd" clip-rule="evenodd" d="M59.8065 16.2651C61.9131 16.2651 63.6869 15.5741 64.9804 14.3828L62.4639 12.4322C61.7635 12.9033 60.8614 13.1784 59.8065 13.1784C57.7703 13.1784 56.042 11.8073 55.424 9.95959H52.8316V11.9687C54.1164 14.516 56.7565 16.2651 59.8065 16.2651" fill="#34A853"/>
<path id="Fill 12" fill-rule="evenodd" clip-rule="evenodd" d="M55.424 9.9596C55.2657 9.48847 55.179 8.98593 55.179 8.46715C55.179 7.94837 55.2657 7.44583 55.424 6.9747V4.96564H52.8316C52.3003 6.01837 52 7.20756 52 8.46715C52 9.72674 52.3003 10.916 52.8316 11.9687L55.424 9.9596Z" fill="#FABB05"/>
<path id="Fill 14" fill-rule="evenodd" clip-rule="evenodd" d="M59.8065 3.75583C60.9568 3.75583 61.9879 4.15115 62.8011 4.92553V4.92661L65.0292 2.70094C63.6761 1.44243 61.912 0.669128 59.8065 0.669128C56.7565 0.669128 54.1164 2.41826 52.8316 4.9656L55.424 6.97467C56.042 5.12698 57.7703 3.75583 59.8065 3.75583" fill="#E94235"/>
</g>
</g>
</g>
</g>
</svg>
