<svg width="196" height="38" viewBox="0 0 196 38" fill="none" xmlns="http://www.w3.org/2000/svg">
<g id="th_checkout_with_Dark">
<path id="Text" d="M8.37556 28.308C6.49023 28.308 5.05289 27.8693 4.06356 26.992C3.07423 26.1147 2.57956 24.8173 2.57956 23.1V21.56C2.57956 20.7013 2.69156 20.0013 2.91556 19.46C3.15823 18.9187 3.42889 18.452 3.72756 18.06C4.04489 17.6307 4.30623 17.2573 4.51156 16.94C4.73556 16.6227 4.84756 16.2493 4.84756 15.82C4.84756 15.4467 4.75423 15.1853 4.56756 15.036C4.38089 14.868 4.14756 14.784 3.86756 14.784C3.47556 14.784 3.01823 14.9053 2.49556 15.148L1.87956 13.132C2.27156 12.8893 2.72889 12.7213 3.25156 12.628C3.79289 12.516 4.25956 12.46 4.65156 12.46C5.73423 12.46 6.50889 12.74 6.97556 13.3C7.44223 13.8413 7.67556 14.5507 7.67556 15.428C7.67556 16.0813 7.56356 16.632 7.33956 17.08C7.13423 17.528 6.88223 17.9667 6.58356 18.396C6.26623 18.8627 6.01423 19.3013 5.82756 19.712C5.64089 20.1227 5.54756 20.6733 5.54756 21.364V22.848C5.54756 24.0427 5.81823 24.8547 6.35956 25.284C6.91956 25.6947 7.59156 25.9 8.37556 25.9C10.1676 25.9 11.0636 25.032 11.0636 23.296V19.712C11.0636 19.0773 10.9142 18.5827 10.6156 18.228C10.3169 17.8547 9.83156 17.668 9.15956 17.668H9.01956V15.904H9.18756C9.89689 15.904 10.4009 15.736 10.6996 15.4C11.0169 15.0453 11.2036 14.616 11.2596 14.112C11.3342 13.608 11.3716 13.1227 11.3716 12.656H14.3676C14.3676 13.7013 14.2276 14.5787 13.9476 15.288C13.6862 15.9787 13.1542 16.4733 12.3516 16.772V16.884C13.0796 17.0893 13.5369 17.472 13.7236 18.032C13.9289 18.5733 14.0316 19.124 14.0316 19.684V23.408C14.0316 24.976 13.5556 26.1893 12.6036 27.048C11.6516 27.888 10.2422 28.308 8.37556 28.308ZM12.4278 10.976C11.4571 10.976 10.6918 10.752 10.1318 10.304C9.55311 9.83733 9.26378 9.19333 9.26378 8.372C9.26378 7.55067 9.55311 6.916 10.1318 6.468C10.6918 6.00133 11.4571 5.768 12.4278 5.768C13.3984 5.768 14.1824 6.00133 14.7798 6.468C15.3584 6.916 15.6478 7.55067 15.6478 8.372C15.6478 9.19333 15.3584 9.83733 14.7798 10.304C14.1824 10.752 13.3984 10.976 12.4278 10.976ZM12.4278 9.548C13.3238 9.548 13.7718 9.156 13.7718 8.372C13.7718 7.588 13.3238 7.196 12.4278 7.196C11.5504 7.196 11.1118 7.588 11.1118 8.372C11.1118 9.156 11.5504 9.548 12.4278 9.548ZM23.2962 28V17.332C23.2962 16.4547 23.0909 15.8107 22.6802 15.4C22.2696 14.9893 21.5976 14.784 20.6642 14.784C20.0109 14.784 19.4042 14.8773 18.8442 15.064C18.2842 15.232 17.7429 15.4653 17.2202 15.764V13.188C17.6122 13.0013 18.1536 12.8147 18.8442 12.628C19.5536 12.4413 20.3936 12.348 21.3642 12.348C22.8389 12.348 24.0242 12.684 24.9202 13.356C25.8349 14.028 26.2922 15.1947 26.2922 16.856V28H23.2962ZM35.5533 28.308C34.452 28.308 33.3973 28.196 32.3893 27.972C31.4 27.748 30.5507 27.468 29.8413 27.132L30.7093 24.724C31.288 24.9667 31.9973 25.2187 32.8373 25.48C33.696 25.7413 34.592 25.872 35.5253 25.872C36.44 25.872 37.1867 25.7133 37.7653 25.396C38.344 25.06 38.6333 24.5747 38.6333 23.94C38.6333 23.3613 38.3627 22.8853 37.8213 22.512C37.28 22.1387 36.4587 21.7747 35.3573 21.42C33.6587 20.8787 32.352 20.2627 31.4373 19.572C30.5413 18.8627 30.0933 17.8453 30.0933 16.52C30.0933 15.2507 30.5973 14.2427 31.6053 13.496C32.632 12.7307 34.1627 12.348 36.1973 12.348C37.1307 12.348 37.9987 12.432 38.8013 12.6C39.6227 12.768 40.2573 12.9827 40.7053 13.244V15.708C40.22 15.484 39.5573 15.2693 38.7173 15.064C37.896 14.8587 37.056 14.756 36.1973 14.756C35.0773 14.756 34.2747 14.924 33.7893 15.26C33.3227 15.5773 33.0893 15.96 33.0893 16.408C33.0893 16.9867 33.3693 17.4347 33.9293 17.752C34.508 18.0693 35.4787 18.4613 36.8413 18.928C37.7747 19.2453 38.596 19.6 39.3053 19.992C40.0333 20.384 40.6027 20.8787 41.0133 21.476C41.424 22.0547 41.6293 22.8013 41.6293 23.716C41.6293 24.5187 41.4333 25.2747 41.0413 25.984C40.668 26.6747 40.0333 27.2347 39.1373 27.664C38.26 28.0933 37.0653 28.308 35.5533 28.308ZM47.3633 18.536C46.1686 18.536 45.3193 18.2747 44.8153 17.752C44.33 17.2293 44.0873 16.6507 44.0873 16.016C44.0873 15.4 44.246 14.8213 44.5633 14.28L46.9713 14.616C46.934 14.728 46.8873 14.868 46.8313 15.036C46.794 15.1853 46.7753 15.344 46.7753 15.512C46.7753 15.7733 46.8406 15.9787 46.9713 16.128C47.1206 16.2773 47.3726 16.352 47.7273 16.352H51.4793V18.536H47.3633ZM47.3633 26.376C46.1686 26.376 45.3193 26.1147 44.8153 25.592C44.33 25.0693 44.0873 24.4907 44.0873 23.856C44.0873 23.24 44.246 22.6613 44.5633 22.12L46.9713 22.456C46.934 22.568 46.8873 22.708 46.8313 22.876C46.794 23.0253 46.7753 23.184 46.7753 23.352C46.7753 23.6133 46.8406 23.8187 46.9713 23.968C47.1206 24.1173 47.3726 24.192 47.7273 24.192H51.4793V26.376H47.3633ZM60.4243 28.28C58.9123 28.28 57.7176 27.9347 56.8403 27.244C55.9816 26.5533 55.375 25.62 55.0203 24.444C54.6656 23.268 54.4883 21.9427 54.4883 20.468C54.4883 18.34 54.787 16.688 55.3843 15.512C55.9816 14.336 56.8123 13.5147 57.8763 13.048C58.9403 12.5813 60.1723 12.348 61.5723 12.348C63.9056 12.348 65.5856 12.8427 66.6123 13.832C67.639 14.8213 68.1523 16.156 68.1523 17.836V28H65.1563V18.116C65.1563 17.0333 64.8856 16.212 64.3443 15.652C63.8216 15.092 62.9163 14.812 61.6283 14.812C60.8256 14.812 60.1163 14.9613 59.5003 15.26C58.8843 15.5587 58.399 16.1187 58.0443 16.94C57.6896 17.7427 57.5123 18.9187 57.5123 20.468C57.5123 21.4947 57.615 22.4093 57.8203 23.212C58.0256 24.0147 58.371 24.6493 58.8563 25.116C59.3603 25.5827 60.051 25.816 60.9283 25.816C61.451 25.816 61.9083 25.7507 62.3003 25.62L62.5803 27.916C62.2816 28.0467 61.9363 28.14 61.5443 28.196C61.1523 28.252 60.779 28.28 60.4243 28.28ZM60.1129 10.332V9.044C60.4489 8.96933 60.8036 8.86667 61.1769 8.736C61.5502 8.58667 61.8676 8.4 62.1289 8.176C62.3716 7.952 62.4929 7.66267 62.4929 7.308C62.4929 7.06533 62.4276 6.86933 62.2969 6.72C62.1476 6.57067 61.9329 6.496 61.6529 6.496C61.4662 6.496 61.2889 6.53333 61.1209 6.608C60.9342 6.664 60.7662 6.72 60.6169 6.776L60.0569 5.152C60.4302 4.85333 60.8596 4.65733 61.3449 4.564C61.8302 4.452 62.2316 4.396 62.5489 4.396C63.3142 4.396 63.9209 4.60133 64.3689 5.012C64.7982 5.42267 65.0129 5.964 65.0129 6.636C65.0129 7.196 64.8262 7.7 64.4529 8.148H68.9329V10.332H60.1129ZM76.4549 28.308C75.6709 28.308 74.9149 28.224 74.1869 28.056C73.4589 27.888 72.7123 27.5987 71.9469 27.188L72.8429 24.948C73.2536 25.1907 73.7296 25.4053 74.2709 25.592C74.8123 25.76 75.4096 25.844 76.0629 25.844C77.3323 25.844 78.3309 25.3773 79.0589 24.444C79.7869 23.492 80.1509 22.1013 80.1509 20.272C80.1509 18.4987 79.7776 17.1453 79.0309 16.212C78.2843 15.2787 77.1456 14.812 75.6149 14.812C75.0176 14.812 74.4016 14.8867 73.7669 15.036C73.1509 15.1667 72.6096 15.3627 72.1429 15.624V13.132C72.6843 12.852 73.2909 12.656 73.9629 12.544C74.6536 12.4133 75.3443 12.348 76.0349 12.348C77.7336 12.348 79.1056 12.6747 80.1509 13.328C81.2149 13.9813 81.9896 14.9053 82.4749 16.1C82.9789 17.276 83.2309 18.6667 83.2309 20.272C83.2309 22.792 82.6523 24.7613 81.4949 26.18C80.3563 27.5987 78.6763 28.308 76.4549 28.308ZM93.4163 28.28C91.0829 28.28 89.4309 27.8507 88.4603 26.992C87.4896 26.1147 87.0042 24.9573 87.0042 23.52C87.0042 22.6613 87.1256 21.98 87.3683 21.476C87.6296 20.972 87.9563 20.5893 88.3483 20.328C88.7403 20.0667 89.1416 19.8987 89.5523 19.824V19.712C89.1603 19.6 88.7589 19.4133 88.3483 19.152C87.9563 18.8907 87.6203 18.5267 87.3403 18.06C87.0789 17.5933 86.9483 17.0053 86.9483 16.296C86.9483 15.6427 87.0976 15.0267 87.3963 14.448C87.7136 13.8507 88.2083 13.3653 88.8803 12.992C89.5709 12.6187 90.4856 12.432 91.6243 12.432C92.1096 12.432 92.6043 12.4693 93.1083 12.544C93.6123 12.6187 94.0043 12.7307 94.2843 12.88L93.7803 15.064C93.5936 15.008 93.3416 14.952 93.0243 14.896C92.7069 14.84 92.3896 14.812 92.0723 14.812C91.3629 14.812 90.8309 14.98 90.4763 15.316C90.1403 15.652 89.9723 16.0907 89.9723 16.632C89.9723 17.2293 90.1216 17.6867 90.4203 18.004C90.7189 18.3027 91.1016 18.508 91.5683 18.62C92.0536 18.732 92.5483 18.788 93.0523 18.788H93.6123V20.832H93.0523C92.0256 20.832 91.2696 21.0187 90.7843 21.392C90.2989 21.7653 90.0563 22.372 90.0563 23.212C90.0563 23.6787 90.1496 24.1173 90.3363 24.528C90.5416 24.9387 90.8869 25.2747 91.3723 25.536C91.8576 25.7787 92.5483 25.9 93.4443 25.9C94.7509 25.9 95.6469 25.6293 96.1323 25.088C96.6176 24.5467 96.8603 23.8187 96.8603 22.904V12.656H99.8563V22.736C99.8563 24.6773 99.3336 26.0867 98.2883 26.964C97.2616 27.8413 95.6376 28.28 93.4163 28.28Z" fill="white"/>
<g id="GPay Logo (Dark)">
<g id="GPay">
<g id="Pay">
<path id="Fill 1" fill-rule="evenodd" clip-rule="evenodd" d="M152.529 9.34665V17.5128H157.565C158.765 17.5128 159.757 17.1096 160.541 16.3032C161.347 15.4988 161.75 14.5394 161.75 13.4288C161.75 12.3406 161.347 11.3924 160.541 10.586C159.757 9.75916 158.765 9.34479 157.565 9.34479H152.529V9.34665ZM152.529 20.3872V29.8599H149.521V6.47218H157.499C159.527 6.47218 161.248 7.14787 162.666 8.49738C164.105 9.84688 164.824 11.4913 164.824 13.4288C164.824 15.411 164.105 17.0667 162.666 18.3938C161.27 19.7227 159.547 20.3854 157.499 20.3854H152.529V20.3872Z" fill="white"/>
<path id="Fill 3" fill-rule="evenodd" clip-rule="evenodd" d="M167.864 24.9602C167.864 25.7442 168.197 26.3975 168.862 26.9201C169.527 27.4427 170.306 27.704 171.2 27.704C172.465 27.704 173.591 27.2354 174.584 26.3004C175.576 25.3634 176.071 24.264 176.071 23.0022C175.133 22.2612 173.825 21.8916 172.147 21.8916C170.925 21.8916 169.907 22.1866 169.09 22.7745C168.273 23.3623 167.864 24.0886 167.864 24.9602ZM171.756 13.3317C173.98 13.3317 175.735 13.9253 177.022 15.1124C178.308 16.2995 178.95 17.9271 178.95 19.9952V29.8599H176.073V27.6387H175.942C174.699 29.4677 173.042 30.3825 170.972 30.3825C169.206 30.3825 167.728 29.8599 166.541 28.8146C165.353 27.7694 164.759 26.4628 164.759 24.8949C164.759 23.2393 165.385 21.9232 166.638 20.9434C167.892 19.9635 169.565 19.4726 171.658 19.4726C173.444 19.4726 174.916 19.7993 176.071 20.4525V19.7657C176.071 18.7204 175.656 17.8338 174.829 17.104C173.999 16.3742 173.031 16.0102 171.919 16.0102C170.239 16.0102 168.911 16.7176 167.93 18.1343L165.28 16.4675C166.741 14.377 168.899 13.3317 171.756 13.3317Z" fill="white"/>
<path id="Fill 5" fill-rule="evenodd" clip-rule="evenodd" d="M195.463 13.8543L185.424 36.9154H182.318L186.046 28.8464L179.44 13.8543H182.71L187.484 25.3522H187.55L192.193 13.8543H195.463Z" fill="white"/>
</g>
<g id="G">
<path id="Fill 8" fill-rule="evenodd" clip-rule="evenodd" d="M140.373 18.3452C140.373 17.3989 140.293 16.4861 140.141 15.6126H127.454V20.7885H134.72C134.408 22.4757 133.465 23.9112 132.033 24.8725V28.2341H136.37C138.91 25.8935 140.373 22.4348 140.373 18.3452Z" fill="#4285F4"/>
<path id="Fill 10" fill-rule="evenodd" clip-rule="evenodd" d="M127.454 31.4782C131.084 31.4782 134.141 30.2873 136.37 28.2341L132.033 24.8725C130.826 25.6844 129.272 26.1585 127.454 26.1585C123.944 26.1585 120.966 23.7955 119.901 20.6112H115.433V24.0736C117.647 28.4637 122.197 31.4782 127.454 31.4782Z" fill="#34A853"/>
<path id="Fill 12" fill-rule="evenodd" clip-rule="evenodd" d="M119.901 20.6111C119.628 19.7992 119.479 18.9331 119.479 18.0391C119.479 17.145 119.628 16.2789 119.901 15.467V12.0045H115.433C114.518 13.8188 114 15.8683 114 18.0391C114 20.2098 114.518 22.2595 115.433 24.0736L119.901 20.6111Z" fill="#FABB05"/>
<path id="Fill 14" fill-rule="evenodd" clip-rule="evenodd" d="M127.454 9.91964C129.436 9.91964 131.213 10.6009 132.615 11.9355V11.9374L136.455 8.10163C134.123 5.93272 131.082 4.60001 127.454 4.60001C122.197 4.60001 117.647 7.61447 115.433 12.0046L119.901 15.467C120.966 12.2827 123.944 9.91964 127.454 9.91964Z" fill="#E94235"/>
</g>
</g>
</g>
</g>
</svg>
