<svg width="222" height="38" viewBox="0 0 222 38" fill="none" xmlns="http://www.w3.org/2000/svg">
<g id="th_donate_with_Light">
<path id="Text" d="M10.411 28.308C8.13364 28.308 6.50031 27.7853 5.51097 26.74C4.52164 25.6947 4.02697 24.2013 4.02697 22.26V12.656H7.02297V22.344C7.02297 23.5013 7.29364 24.3787 7.83497 24.976C8.39497 25.5547 9.25364 25.844 10.411 25.844C11.587 25.844 12.4456 25.5547 12.987 24.976C13.547 24.3787 13.827 23.5013 13.827 22.344V12.656H16.823V22.26C16.823 24.2013 16.319 25.6947 15.311 26.74C14.3216 27.7853 12.6883 28.308 10.411 28.308ZM26.0908 28.308C24.9895 28.308 23.9348 28.196 22.9268 27.972C21.9375 27.748 21.0882 27.468 20.3788 27.132L21.2468 24.724C21.8255 24.9667 22.5348 25.2187 23.3748 25.48C24.2335 25.7413 25.1295 25.872 26.0628 25.872C26.9775 25.872 27.7242 25.7133 28.3028 25.396C28.8815 25.06 29.1708 24.5747 29.1708 23.94C29.1708 23.3613 28.9002 22.8853 28.3588 22.512C27.8175 22.1387 26.9962 21.7747 25.8948 21.42C24.1962 20.8787 22.8895 20.2627 21.9748 19.572C21.0788 18.8627 20.6308 17.8453 20.6308 16.52C20.6308 15.2507 21.1348 14.2427 22.1428 13.496C23.1695 12.7307 24.7002 12.348 26.7348 12.348C27.6682 12.348 28.5362 12.432 29.3388 12.6C30.1602 12.768 30.7948 12.9827 31.2428 13.244V15.708C30.7575 15.484 30.0948 15.2693 29.2548 15.064C28.4335 14.8587 27.5935 14.756 26.7348 14.756C25.6148 14.756 24.8122 14.924 24.3268 15.26C23.8602 15.5773 23.6268 15.96 23.6268 16.408C23.6268 16.9867 23.9068 17.4347 24.4668 17.752C25.0455 18.0693 26.0162 18.4613 27.3788 18.928C28.3122 19.2453 29.1335 19.6 29.8428 19.992C30.5708 20.384 31.1402 20.8787 31.5508 21.476C31.9615 22.0547 32.1668 22.8013 32.1668 23.716C32.1668 24.5187 31.9708 25.2747 31.5788 25.984C31.2055 26.6747 30.5708 27.2347 29.6748 27.664C28.7975 28.0933 27.6028 28.308 26.0908 28.308ZM20.0112 10.304V9.016L22.2792 8.036H32.1912V10.304H20.0112ZM37.6968 28V21.28H35.7088V19.152H40.4688V25.648H40.8048C41.9435 25.648 42.8115 25.228 43.4088 24.388C44.0062 23.548 44.3048 22.176 44.3048 20.272C44.3048 18.2933 43.9502 16.884 43.2408 16.044C42.5315 15.204 41.3648 14.784 39.7408 14.784C38.8262 14.784 37.9675 14.9053 37.1648 15.148C36.3622 15.3907 35.6062 15.7453 34.8968 16.212V13.524C35.4755 13.2067 36.2222 12.936 37.1368 12.712C38.0702 12.4693 39.0875 12.348 40.1888 12.348C42.7835 12.348 44.6222 13.0293 45.7048 14.392C46.8062 15.7547 47.3568 17.7147 47.3568 20.272C47.3568 22.736 46.8248 24.64 45.7608 25.984C44.7155 27.328 42.9235 28 40.3848 28H37.6968ZM55.6939 28V17.332C55.6939 16.4547 55.4886 15.8107 55.0779 15.4C54.6672 14.9893 53.9952 14.784 53.0619 14.784C52.4086 14.784 51.8019 14.8773 51.2419 15.064C50.6819 15.232 50.1406 15.4653 49.6179 15.764V13.188C50.0099 13.0013 50.5512 12.8147 51.2419 12.628C51.9512 12.4413 52.7912 12.348 53.7619 12.348C55.2366 12.348 56.4219 12.684 57.3179 13.356C58.2326 14.028 58.6899 15.1947 58.6899 16.856V28H55.6939ZM63.359 28V18.396C63.359 16.4547 63.8817 14.9613 64.927 13.916C65.9723 12.8707 67.6337 12.348 69.911 12.348C72.207 12.348 73.8683 12.8707 74.895 13.916C75.9403 14.9613 76.463 16.4547 76.463 18.396V28H73.467V18.396C73.467 16.0067 72.2723 14.812 69.883 14.812C67.5123 14.812 66.327 16.0067 66.327 18.396V21.308L66.411 21.336C66.803 20.608 67.279 20.132 67.839 19.908C68.4177 19.6653 69.211 19.544 70.219 19.544H71.087V21.896H70.219C69.155 21.896 68.343 22.0547 67.783 22.372C67.223 22.6893 66.8403 23.1093 66.635 23.632C66.4297 24.1547 66.327 24.724 66.327 25.34V28H63.359ZM86.4243 28.28C84.9123 28.28 83.7177 27.9347 82.8403 27.244C81.9817 26.5533 81.375 25.62 81.0203 24.444C80.6657 23.268 80.4883 21.9427 80.4883 20.468C80.4883 18.34 80.787 16.688 81.3843 15.512C81.9817 14.336 82.8123 13.5147 83.8763 13.048C84.9403 12.5813 86.1723 12.348 87.5723 12.348C89.9057 12.348 91.5857 12.8427 92.6123 13.832C93.639 14.8213 94.1523 16.156 94.1523 17.836V28H91.1563V18.116C91.1563 17.0333 90.8857 16.212 90.3443 15.652C89.8217 15.092 88.9163 14.812 87.6283 14.812C86.8257 14.812 86.1163 14.9613 85.5003 15.26C84.8843 15.5587 84.399 16.1187 84.0443 16.94C83.6897 17.7427 83.5123 18.9187 83.5123 20.468C83.5123 21.4947 83.615 22.4093 83.8203 23.212C84.0257 24.0147 84.371 24.6493 84.8563 25.116C85.3603 25.5827 86.051 25.816 86.9283 25.816C87.451 25.816 87.9083 25.7507 88.3003 25.62L88.5803 27.916C88.2817 28.0467 87.9363 28.14 87.5443 28.196C87.1523 28.252 86.779 28.28 86.4243 28.28ZM86.1129 10.332V9.044C86.4489 8.96933 86.8036 8.86667 87.1769 8.736C87.5502 8.58667 87.8676 8.4 88.1289 8.176C88.3716 7.952 88.4929 7.66267 88.4929 7.308C88.4929 7.06533 88.4276 6.86933 88.2969 6.72C88.1476 6.57067 87.9329 6.496 87.6529 6.496C87.4662 6.496 87.2889 6.53333 87.1209 6.608C86.9342 6.664 86.7662 6.72 86.6169 6.776L86.0569 5.152C86.4302 4.85333 86.8596 4.65733 87.3449 4.564C87.8302 4.452 88.2316 4.396 88.5489 4.396C89.3142 4.396 89.9209 4.60133 90.3689 5.012C90.7982 5.42267 91.0129 5.964 91.0129 6.636C91.0129 7.196 90.8262 7.7 90.4529 8.148H94.9329V10.332H86.1129ZM102.455 28.308C101.671 28.308 100.915 28.224 100.187 28.056C99.4589 27.888 98.7123 27.5987 97.9469 27.188L98.8429 24.948C99.2536 25.1907 99.7296 25.4053 100.271 25.592C100.812 25.76 101.41 25.844 102.063 25.844C103.332 25.844 104.331 25.3773 105.059 24.444C105.787 23.492 106.151 22.1013 106.151 20.272C106.151 18.4987 105.778 17.1453 105.031 16.212C104.284 15.2787 103.146 14.812 101.615 14.812C101.018 14.812 100.402 14.8867 99.7669 15.036C99.1509 15.1667 98.6096 15.3627 98.1429 15.624V13.132C98.6843 12.852 99.2909 12.656 99.9629 12.544C100.654 12.4133 101.344 12.348 102.035 12.348C103.734 12.348 105.106 12.6747 106.151 13.328C107.215 13.9813 107.99 14.9053 108.475 16.1C108.979 17.276 109.231 18.6667 109.231 20.272C109.231 22.792 108.652 24.7613 107.495 26.18C106.356 27.5987 104.676 28.308 102.455 28.308ZM119.416 28.28C117.083 28.28 115.431 27.8507 114.46 26.992C113.49 26.1147 113.004 24.9573 113.004 23.52C113.004 22.6613 113.126 21.98 113.368 21.476C113.63 20.972 113.956 20.5893 114.348 20.328C114.74 20.0667 115.142 19.8987 115.552 19.824V19.712C115.16 19.6 114.759 19.4133 114.348 19.152C113.956 18.8907 113.62 18.5267 113.34 18.06C113.079 17.5933 112.948 17.0053 112.948 16.296C112.948 15.6427 113.098 15.0267 113.396 14.448C113.714 13.8507 114.208 13.3653 114.88 12.992C115.571 12.6187 116.486 12.432 117.624 12.432C118.11 12.432 118.604 12.4693 119.108 12.544C119.612 12.6187 120.004 12.7307 120.284 12.88L119.78 15.064C119.594 15.008 119.342 14.952 119.024 14.896C118.707 14.84 118.39 14.812 118.072 14.812C117.363 14.812 116.831 14.98 116.476 15.316C116.14 15.652 115.972 16.0907 115.972 16.632C115.972 17.2293 116.122 17.6867 116.42 18.004C116.719 18.3027 117.102 18.508 117.568 18.62C118.054 18.732 118.548 18.788 119.052 18.788H119.612V20.832H119.052C118.026 20.832 117.27 21.0187 116.784 21.392C116.299 21.7653 116.056 22.372 116.056 23.212C116.056 23.6787 116.15 24.1173 116.336 24.528C116.542 24.9387 116.887 25.2747 117.372 25.536C117.858 25.7787 118.548 25.9 119.444 25.9C120.751 25.9 121.647 25.6293 122.132 25.088C122.618 24.5467 122.86 23.8187 122.86 22.904V12.656H125.856V22.736C125.856 24.6773 125.334 26.0867 124.288 26.964C123.262 27.8413 121.638 28.28 119.416 28.28Z" fill="#3C4043"/>
<g id="GPay Logo (Light)">
<g id="GPay">
<g id="Pay">
<path id="Fill 1" fill-rule="evenodd" clip-rule="evenodd" d="M178.529 9.44664V17.6128H183.565C184.765 17.6128 185.757 17.2096 186.541 16.4032C187.347 15.5988 187.75 14.6394 187.75 13.5288C187.75 12.4406 187.347 11.4924 186.541 10.686C185.757 9.85915 184.765 9.44478 183.565 9.44478H178.529V9.44664ZM178.529 20.4872V29.9599H175.521V6.57217H183.499C185.527 6.57217 187.248 7.24786 188.666 8.59737C190.105 9.94688 190.824 11.5913 190.824 13.5288C190.824 15.511 190.105 17.1667 188.666 18.4938C187.27 19.8227 185.547 20.4854 183.499 20.4854H178.529V20.4872Z" fill="#5F6368"/>
<path id="Fill 3" fill-rule="evenodd" clip-rule="evenodd" d="M193.864 25.0602C193.864 25.8442 194.197 26.4975 194.862 27.0201C195.527 27.5427 196.306 27.804 197.2 27.804C198.465 27.804 199.591 27.3354 200.584 26.4004C201.576 25.4634 202.071 24.364 202.071 23.1022C201.133 22.3612 199.825 21.9916 198.147 21.9916C196.925 21.9916 195.907 22.2865 195.09 22.8745C194.273 23.4623 193.864 24.1886 193.864 25.0602ZM197.756 13.4317C199.98 13.4317 201.735 14.0252 203.022 15.2124C204.308 16.3995 204.95 18.0271 204.95 20.0952V29.9599H202.073V27.7387H201.942C200.699 29.5677 199.042 30.4825 196.972 30.4825C195.206 30.4825 193.728 29.9599 192.541 28.9146C191.353 27.8694 190.759 26.5628 190.759 24.9949C190.759 23.3393 191.385 22.0232 192.638 21.0434C193.892 20.0635 195.565 19.5726 197.658 19.5726C199.444 19.5726 200.916 19.8992 202.071 20.5525V19.8656C202.071 18.8204 201.656 17.9338 200.829 17.204C199.999 16.4741 199.031 16.1102 197.919 16.1102C196.239 16.1102 194.911 16.8176 193.93 18.2343L191.28 16.5675C192.741 14.4769 194.899 13.4317 197.756 13.4317Z" fill="#5F6368"/>
<path id="Fill 5" fill-rule="evenodd" clip-rule="evenodd" d="M221.463 13.9543L211.424 37.0154H208.318L212.046 28.9464L205.44 13.9543H208.71L213.484 25.4522H213.55L218.193 13.9543H221.463Z" fill="#5F6368"/>
</g>
<g id="G">
<path id="Fill 8" fill-rule="evenodd" clip-rule="evenodd" d="M166.373 18.4452C166.373 17.4989 166.293 16.5861 166.141 15.7126H153.454V20.8885H160.72C160.408 22.5757 159.465 24.0112 158.033 24.9725V28.3341H162.37C164.91 25.9935 166.373 22.5348 166.373 18.4452Z" fill="#4285F4"/>
<path id="Fill 10" fill-rule="evenodd" clip-rule="evenodd" d="M153.454 31.5782C157.084 31.5782 160.141 30.3873 162.37 28.3341L158.033 24.9725C156.826 25.7844 155.272 26.2585 153.454 26.2585C149.944 26.2585 146.966 23.8955 145.901 20.7112H141.433V24.1736C143.647 28.5637 148.197 31.5782 153.454 31.5782Z" fill="#34A853"/>
<path id="Fill 12" fill-rule="evenodd" clip-rule="evenodd" d="M145.901 20.7111C145.628 19.8992 145.479 19.0331 145.479 18.139C145.479 17.245 145.628 16.3789 145.901 15.567V12.1045H141.433C140.518 13.9188 140 15.9683 140 18.139C140 20.3098 140.518 22.3595 141.433 24.1736L145.901 20.7111Z" fill="#FABB05"/>
<path id="Fill 14" fill-rule="evenodd" clip-rule="evenodd" d="M153.454 10.0196C155.436 10.0196 157.213 10.7009 158.615 12.0355V12.0374L162.455 8.20162C160.123 6.03271 157.082 4.7 153.454 4.7C148.197 4.7 143.647 7.71446 141.433 12.1046L145.901 15.567C146.966 12.3827 149.944 10.0196 153.454 10.0196Z" fill="#E94235"/>
</g>
</g>
</g>
</g>
</svg>
