<svg width="131" height="21" viewBox="0 0 131 21" fill="none" xmlns="http://www.w3.org/2000/svg">
<g id="th_donate_with_Pay_NBG">
<path id="Left Text" d="M2.82413 15.0006V9.52861C2.74946 9.53928 2.67479 9.54461 2.60013 9.54461C2.10946 9.54461 1.70413 9.38994 1.38413 9.08061C1.06413 8.76061 0.904127 8.36061 0.904127 7.88061C0.904127 7.38994 1.07479 6.98461 1.41613 6.66461C1.75746 6.34461 2.18946 6.18461 2.71213 6.18461C3.25613 6.18461 3.68813 6.34994 4.00813 6.68061C4.32813 7.01128 4.48813 7.44861 4.48813 7.99261V13.5926H8.02413V6.36061H9.70413V15.0006H2.82413ZM2.68013 8.55261C2.88279 8.55261 3.04279 8.49394 3.16013 8.37661C3.27746 8.24861 3.33613 8.08861 3.33613 7.89661C3.33613 7.69394 3.27746 7.53394 3.16013 7.41661C3.04279 7.28861 2.88279 7.22461 2.68013 7.22461C2.48813 7.22461 2.32813 7.28861 2.20013 7.41661C2.08279 7.53394 2.02413 7.69394 2.02413 7.89661C2.02413 8.08861 2.08279 8.24861 2.20013 8.37661C2.32813 8.49394 2.48813 8.55261 2.68013 8.55261ZM15.3246 15.1766C14.802 15.1766 14.3753 15.0219 14.0446 14.7126C13.714 14.4033 13.5486 14.0033 13.5486 13.5126C13.5486 13.0219 13.7086 12.6166 14.0286 12.2966C14.3593 11.9766 14.77 11.8166 15.2606 11.8166C15.3246 11.8166 15.3886 11.8219 15.4526 11.8326V11.2086C15.4526 10.5153 15.0793 10.1686 14.3326 10.1686H11.4846V9.00061C11.4846 8.06194 11.7726 7.34728 12.3486 6.85661C12.9353 6.35528 13.7833 6.10461 14.8926 6.10461C15.3406 6.10461 15.794 6.14728 16.2526 6.23261C16.722 6.30728 17.1273 6.41394 17.4686 6.55261V7.97661C17.106 7.83794 16.69 7.72594 16.2206 7.64061C15.7513 7.54461 15.3193 7.49661 14.9246 7.49661C13.73 7.49661 13.1326 7.93394 13.1326 8.80861V8.96861H14.8926C16.386 8.96861 17.1326 9.65661 17.1326 11.0326V13.3686C17.1326 13.9126 16.962 14.3499 16.6206 14.6806C16.29 15.0113 15.858 15.1766 15.3246 15.1766ZM15.3246 14.1366C15.5273 14.1366 15.6873 14.0779 15.8046 13.9606C15.922 13.8326 15.9806 13.6726 15.9806 13.4806C15.9806 13.2779 15.922 13.1179 15.8046 13.0006C15.6873 12.8726 15.5273 12.8086 15.3246 12.8086C15.1326 12.8086 14.9726 12.8726 14.8446 13.0006C14.7166 13.1179 14.6526 13.2779 14.6526 13.4806C14.6526 13.6726 14.7166 13.8326 14.8446 13.9606C14.9726 14.0779 15.1326 14.1366 15.3246 14.1366ZM11.0959 5.27261V5.16061C11.1919 4.59528 11.3892 4.10461 11.6879 3.68861C11.9865 3.26194 12.3705 2.93661 12.8399 2.71261C13.3092 2.47794 13.8319 2.36061 14.4079 2.36061C14.9839 2.36061 15.5065 2.47794 15.9759 2.71261C16.4345 2.93661 16.8185 3.26194 17.1279 3.68861C17.4265 4.10461 17.6239 4.59528 17.7199 5.16061V5.27261H11.0959ZM12.7919 4.34461H16.0079C15.9225 4.04594 15.7359 3.80594 15.4479 3.62461C15.1492 3.44328 14.8025 3.35261 14.4079 3.35261C14.0025 3.35261 13.6559 3.44328 13.3679 3.62461C13.0799 3.80594 12.8879 4.04594 12.7919 4.34461ZM21.416 15.0006V12.5686C21.3627 12.5793 21.304 12.5846 21.24 12.5846C20.7813 12.5846 20.392 12.4353 20.072 12.1366C19.7627 11.8273 19.608 11.4433 19.608 10.9846C19.608 10.5046 19.768 10.1153 20.088 9.81661C20.4187 9.51794 20.84 9.36861 21.352 9.36861C21.864 9.36861 22.2693 9.52328 22.568 9.83261C22.8773 10.1313 23.032 10.5366 23.032 11.0486V13.6086C23.4267 13.6086 23.7733 13.4859 24.072 13.2406C24.3813 12.9846 24.6213 12.6326 24.792 12.1846C24.9733 11.7259 25.064 11.2033 25.064 10.6166C25.064 9.66728 24.8293 8.92061 24.36 8.37661C23.9013 7.82194 23.2613 7.54461 22.44 7.54461C21.9493 7.54461 21.4853 7.64594 21.048 7.84861C20.6107 8.05128 20.264 8.33394 20.008 8.69661L18.856 7.75261C19.24 7.22994 19.7467 6.82461 20.376 6.53661C21.016 6.24861 21.7147 6.10461 22.472 6.10461C23.3467 6.10461 24.0987 6.28594 24.728 6.64861C25.368 7.01128 25.864 7.52861 26.216 8.20061C26.568 8.86194 26.744 9.64594 26.744 10.5526C26.744 11.4486 26.5787 12.2326 26.248 12.9046C25.9173 13.5659 25.4533 14.0833 24.856 14.4566C24.2693 14.8193 23.576 15.0006 22.776 15.0006H21.416ZM21.32 11.6246C21.512 11.6246 21.6667 11.5659 21.784 11.4486C21.9013 11.3313 21.96 11.1766 21.96 10.9846C21.96 10.7926 21.9013 10.6379 21.784 10.5206C21.6773 10.4033 21.5227 10.3446 21.32 10.3446C21.128 10.3446 20.9733 10.4033 20.856 10.5206C20.7387 10.6379 20.68 10.7926 20.68 10.9846C20.68 11.1766 20.7387 11.3313 20.856 11.4486C20.9733 11.5659 21.128 11.6246 21.32 11.6246ZM31.1621 15.0006V9.17661C31.1621 8.66461 31.0288 8.26461 30.7621 7.97661C30.4955 7.68861 30.1221 7.54461 29.6421 7.54461C29.3541 7.54461 29.0341 7.59261 28.6821 7.68861C28.3408 7.77394 28.0368 7.88594 27.7701 8.02461V6.58461C28.0368 6.43528 28.3781 6.31794 28.7941 6.23261C29.2101 6.14728 29.5995 6.10461 29.9621 6.10461C30.8581 6.10461 31.5621 6.37128 32.0741 6.90461C32.5861 7.42728 32.8421 8.15794 32.8421 9.09661V15.0006H31.1621ZM34.9861 15.0006V9.89661C34.9861 9.11794 35.1408 8.44594 35.4501 7.88061C35.7701 7.31528 36.2181 6.87794 36.7941 6.56861C37.3808 6.25928 38.0688 6.10461 38.8581 6.10461C39.6581 6.10461 40.3515 6.25928 40.9381 6.56861C41.5248 6.87794 41.9781 7.31528 42.2981 7.88061C42.6181 8.44594 42.7781 9.11794 42.7781 9.89661V15.0006H41.1141V9.84861C41.1141 9.12328 40.9168 8.55794 40.5221 8.15261C40.1275 7.73661 39.5728 7.52861 38.8581 7.52861C38.1648 7.52861 37.6155 7.73661 37.2101 8.15261C36.8155 8.55794 36.6181 9.12328 36.6181 9.84861V11.2726C36.7035 11.0379 36.8101 10.8139 36.9381 10.6006C37.0768 10.3446 37.2368 10.1313 37.4181 9.96061C37.8448 9.55528 38.3408 9.35261 38.9061 9.35261C39.3755 9.35261 39.7595 9.49661 40.0581 9.78461C40.3675 10.0726 40.5221 10.4353 40.5221 10.8726C40.5221 11.2993 40.3675 11.6619 40.0581 11.9606C39.7488 12.2486 39.3701 12.3926 38.9221 12.3926C38.5488 12.3926 38.2288 12.2966 37.9621 12.1046C37.7701 11.9553 37.6368 11.7793 37.5621 11.5766C37.3061 11.7793 37.1035 12.0353 36.9541 12.3446C36.7408 12.7819 36.6341 13.3046 36.6341 13.9126V15.0006H34.9861ZM38.8901 11.5286C39.0821 11.5286 39.2368 11.4699 39.3541 11.3526C39.4821 11.2246 39.5461 11.0699 39.5461 10.8886C39.5461 10.6966 39.4821 10.5419 39.3541 10.4246C39.2368 10.2966 39.0821 10.2326 38.8901 10.2326C38.7088 10.2326 38.5541 10.2966 38.4261 10.4246C38.3088 10.5419 38.2501 10.6966 38.2501 10.8886C38.2501 11.0699 38.3088 11.2246 38.4261 11.3526C38.5541 11.4699 38.7088 11.5286 38.8901 11.5286ZM44.933 15.0006V9.89661C44.933 9.11794 45.093 8.44594 45.413 7.88061C45.733 7.31528 46.1863 6.87794 46.773 6.56861C47.3597 6.25928 48.053 6.10461 48.853 6.10461C49.653 6.10461 50.3463 6.25928 50.933 6.56861C51.5303 6.87794 51.989 7.32061 52.309 7.89661C52.629 8.46194 52.789 9.13394 52.789 9.91261V15.0006H51.125V9.83261C51.125 9.10728 50.9223 8.54194 50.517 8.13661C50.1223 7.73128 49.5677 7.52861 48.853 7.52861C48.1277 7.52861 47.5623 7.73128 47.157 8.13661C46.7517 8.54194 46.549 9.10728 46.549 9.83261V13.3846L48.133 12.0246C47.9303 11.9606 47.7543 11.8539 47.605 11.7046C47.3383 11.4486 47.205 11.1126 47.205 10.6966C47.205 10.2593 47.3543 9.90194 47.653 9.62461C47.9623 9.33661 48.3517 9.19261 48.821 9.19261C49.2903 9.19261 49.669 9.33661 49.957 9.62461C50.245 9.90194 50.389 10.2699 50.389 10.7286C50.389 11.0593 50.2877 11.3846 50.085 11.7046C49.893 12.0139 49.557 12.3819 49.077 12.8086L46.533 15.0006H44.933ZM48.789 11.3526C48.9703 11.3526 49.1197 11.2939 49.237 11.1766C49.365 11.0486 49.429 10.8939 49.429 10.7126C49.429 10.5206 49.3703 10.3659 49.253 10.2486C49.1357 10.1313 48.981 10.0726 48.789 10.0726C48.597 10.0726 48.4423 10.1313 48.325 10.2486C48.2077 10.3659 48.149 10.5206 48.149 10.7126C48.149 10.8939 48.2077 11.0486 48.325 11.1766C48.4423 11.2939 48.597 11.3526 48.789 11.3526ZM48.7039 5.27261V4.60061C48.9279 4.55794 49.1359 4.48861 49.3279 4.39261C49.5092 4.28594 49.6585 4.16328 49.7759 4.02461C49.7332 4.03528 49.6585 4.04061 49.5519 4.04061C49.2639 4.04061 49.0292 3.94994 48.8479 3.76861C48.6559 3.57661 48.5599 3.33661 48.5599 3.04861C48.5599 2.72861 48.6879 2.46728 48.9439 2.26461C49.1999 2.05128 49.5199 1.94461 49.9039 1.94461C50.3092 1.94461 50.6399 2.05128 50.8959 2.26461C51.1412 2.47794 51.2639 2.74994 51.2639 3.08061C51.2639 3.29394 51.2105 3.50728 51.1039 3.72061C50.9972 3.93394 50.8532 4.10994 50.6719 4.24861L50.6879 4.28061H50.9119C51.4452 4.28061 51.9039 4.10994 52.2879 3.76861C52.6612 3.41661 52.9545 2.89928 53.1679 2.21661L54.5599 2.77661C54.2719 3.57661 53.8185 4.19528 53.1999 4.63261C52.5812 5.05928 51.8292 5.27261 50.9439 5.27261H48.7039ZM49.8879 3.44861C50.0159 3.44861 50.1172 3.41128 50.1919 3.33661C50.2559 3.26194 50.2879 3.16594 50.2879 3.04861C50.2879 2.93128 50.2559 2.83528 50.1919 2.76061C50.1172 2.68594 50.0159 2.64861 49.8879 2.64861C49.7599 2.64861 49.6585 2.68594 49.5839 2.76061C49.5092 2.83528 49.4719 2.93128 49.4719 3.04861C49.4719 3.16594 49.5092 3.26194 49.5839 3.33661C49.6585 3.41128 49.7599 3.44861 49.8879 3.44861ZM58.532 15.1766C58.0093 15.1766 57.5827 15.0219 57.252 14.7126C56.9213 14.4033 56.756 14.0033 56.756 13.5126C56.756 13.0219 56.9213 12.6166 57.252 12.2966C57.5827 11.9766 57.9933 11.8166 58.484 11.8166C58.548 11.8166 58.6067 11.8219 58.66 11.8326V9.08061C58.66 8.57928 58.5053 8.20061 58.196 7.94461C57.8867 7.67794 57.4387 7.54461 56.852 7.54461C56.468 7.54461 56.0787 7.60328 55.684 7.72061C55.2893 7.82728 54.9267 7.98194 54.596 8.18461V6.71261C54.9693 6.50994 55.3747 6.36061 55.812 6.26461C56.26 6.15794 56.7133 6.10461 57.172 6.10461C58.1853 6.10461 58.964 6.36061 59.508 6.87261C60.0627 7.37394 60.34 8.08328 60.34 9.00061V13.3686C60.34 13.9126 60.1747 14.3499 59.844 14.6806C59.5133 15.0113 59.076 15.1766 58.532 15.1766ZM58.532 14.1366C58.7347 14.1366 58.8947 14.0779 59.012 13.9606C59.14 13.8326 59.204 13.6726 59.204 13.4806C59.204 13.2779 59.14 13.1179 59.012 13.0006C58.8947 12.8726 58.7347 12.8086 58.532 12.8086C58.3507 12.8086 58.196 12.8726 58.068 13.0006C57.94 13.1179 57.876 13.2779 57.876 13.4806C57.876 13.6726 57.9347 13.8326 58.052 13.9606C58.18 14.0779 58.34 14.1366 58.532 14.1366ZM62.828 15.0006V12.5366C62.828 12.1419 62.908 11.8166 63.068 11.5606C63.2387 11.2939 63.4893 11.1073 63.82 11.0006V10.9366C63.372 10.7873 63.004 10.4779 62.716 10.0086C62.428 9.52861 62.284 9.01128 62.284 8.45661C62.284 7.78461 62.4813 7.24061 62.876 6.82461C63.2813 6.40861 63.7987 6.20061 64.428 6.20061C64.972 6.20061 65.4093 6.35528 65.74 6.66461C66.0813 6.96328 66.252 7.35794 66.252 7.84861C66.252 8.30728 66.1027 8.68594 65.804 8.98461C65.516 9.27261 65.1427 9.41661 64.684 9.41661C64.396 9.41661 64.1507 9.34728 63.948 9.20861C64.044 9.51794 64.1933 9.74728 64.396 9.89661C64.6413 10.0673 65.004 10.1526 65.484 10.1526H66.668V11.3846H65.74C64.908 11.3846 64.492 11.7953 64.492 12.6166V13.5926H68.252V6.36061H69.932V15.0006H62.828ZM64.476 8.52061C64.6787 8.52061 64.8387 8.46194 64.956 8.34461C65.0733 8.21661 65.132 8.05661 65.132 7.86461C65.132 7.66194 65.0733 7.50194 64.956 7.38461C64.8387 7.25661 64.6787 7.19261 64.476 7.19261C64.284 7.19261 64.124 7.25661 63.996 7.38461C63.8787 7.50194 63.82 7.66194 63.82 7.86461C63.82 8.05661 63.8787 8.21661 63.996 8.34461C64.124 8.46194 64.284 8.52061 64.476 8.52061Z" fill="white"/>
<g id="GPay (Dark)">
<g id="GPay">
<g id="Pay">
<path id="Fill 1" fill-rule="evenodd" clip-rule="evenodd" d="M99.3563 3.42339V8.16175H102.278C102.974 8.16175 103.55 7.92781 104.005 7.45993C104.473 6.99313 104.707 6.43644 104.707 5.79203C104.707 5.16061 104.473 4.61041 104.005 4.14254C103.55 3.66274 102.974 3.4223 102.278 3.4223H99.3563V3.42339ZM99.3563 9.82966V15.3262H97.6107V1.75549H102.24C103.417 1.75549 104.415 2.14756 105.238 2.93061C106.073 3.71365 106.491 4.66782 106.491 5.79203C106.491 6.94224 106.073 7.90291 105.238 8.67296C104.428 9.44409 103.429 9.82858 102.24 9.82858H99.3563V9.82966Z" fill="white"/>
<path id="Fill 3" fill-rule="evenodd" clip-rule="evenodd" d="M108.255 12.4831C108.255 12.9379 108.448 13.317 108.834 13.6203C109.22 13.9235 109.672 14.0752 110.19 14.0752C110.924 14.0752 111.578 13.8032 112.153 13.2607C112.729 12.717 113.017 12.0791 113.017 11.3469C112.472 10.917 111.713 10.7025 110.74 10.7025C110.031 10.7025 109.44 10.8736 108.966 11.2148C108.492 11.5559 108.255 11.9773 108.255 12.4831M110.513 5.73566C111.803 5.73566 112.821 6.08007 113.569 6.76889C114.314 7.45771 114.687 8.40213 114.687 9.60216V15.3261H113.018V14.0373H112.942C112.221 15.0985 111.259 15.6294 110.058 15.6294C109.033 15.6294 108.176 15.3261 107.487 14.7196C106.797 14.1131 106.453 13.3549 106.453 12.4452C106.453 11.4845 106.816 10.7208 107.543 10.1523C108.271 9.58375 109.241 9.2989 110.456 9.2989C111.492 9.2989 112.346 9.48844 113.017 9.86751V9.46894C113.017 8.86243 112.776 8.34798 112.296 7.92451C111.814 7.50103 111.252 7.28984 110.607 7.28984C109.633 7.28984 108.862 7.70032 108.293 8.52235L106.755 7.55519C107.603 6.34217 108.855 5.73566 110.513 5.73566" fill="white"/>
<path id="Fill 5" fill-rule="evenodd" clip-rule="evenodd" d="M124.269 6.03894L118.443 19.4201H116.641L118.804 14.738L114.971 6.03894H116.869L119.639 12.7106H119.677L122.371 6.03894H124.269Z" fill="white"/>
</g>
<g id="G">
<path id="Fill 8" fill-rule="evenodd" clip-rule="evenodd" d="M92.3029 8.64473C92.3029 8.09563 92.2562 7.56601 92.1684 7.05914H84.8065V10.0625H89.0231C88.842 11.0414 88.2944 11.8744 87.4639 12.4322V14.3828H89.9804C91.4539 13.0246 92.3029 11.0177 92.3029 8.64473" fill="#4285F4"/>
<path id="Fill 10" fill-rule="evenodd" clip-rule="evenodd" d="M84.8065 16.2651C86.9131 16.2651 88.6869 15.5741 89.9804 14.3828L87.4639 12.4322C86.7635 12.9033 85.8614 13.1784 84.8065 13.1784C82.7703 13.1784 81.042 11.8073 80.424 9.95959H77.8316V11.9687C79.1164 14.516 81.7565 16.2651 84.8065 16.2651" fill="#34A853"/>
<path id="Fill 12" fill-rule="evenodd" clip-rule="evenodd" d="M80.424 9.9596C80.2657 9.48847 80.179 8.98593 80.179 8.46715C80.179 7.94837 80.2657 7.44583 80.424 6.9747V4.96564H77.8316C77.3003 6.01837 77 7.20756 77 8.46715C77 9.72674 77.3003 10.916 77.8316 11.9687L80.424 9.9596Z" fill="#FABB05"/>
<path id="Fill 14" fill-rule="evenodd" clip-rule="evenodd" d="M84.8065 3.75583C85.9568 3.75583 86.9879 4.15115 87.8011 4.92553V4.92661L90.0292 2.70094C88.6761 1.44243 86.912 0.669128 84.8065 0.669128C81.7565 0.669128 79.1164 2.41826 77.8316 4.9656L80.424 6.97467C81.042 5.12698 82.7703 3.75583 84.8065 3.75583" fill="#E94235"/>
</g>
</g>
</g>
</g>
</svg>
