<svg width="118" height="21" viewBox="0 0 118 21" fill="none" xmlns="http://www.w3.org/2000/svg">
<g id="th_order_with_Pay_NBG">
<path id="Left Text" d="M3.07075 15.1766C2.53742 15.1766 2.10542 15.0166 1.77475 14.6966C1.45475 14.3766 1.29475 13.9499 1.29475 13.4166V12.2806C1.29475 11.6939 1.42808 11.1873 1.69475 10.7606C1.97208 10.3233 2.35608 9.98728 2.84675 9.75261C3.34808 9.50728 3.92942 9.38461 4.59075 9.38461C4.93208 9.38461 5.27342 9.41661 5.61475 9.48061C5.95608 9.54461 6.26542 9.62994 6.54275 9.73661C6.66008 9.78994 6.76675 9.84328 6.86275 9.89661V9.57661C6.86275 8.94728 6.66542 8.44594 6.27075 8.07261C5.87608 7.69928 5.34275 7.51261 4.67075 7.51261C4.19075 7.51261 3.73208 7.61928 3.29475 7.83261C2.86808 8.03528 2.51608 8.31794 2.23875 8.68061L1.02275 7.83261C1.42808 7.26728 1.95608 6.84061 2.60675 6.55261C3.25742 6.25394 3.98808 6.10461 4.79875 6.10461C5.74808 6.10461 6.54275 6.33394 7.18275 6.79261L8.68675 5.56061L9.64675 6.69661L8.12675 7.86461C8.40408 8.36594 8.54275 8.93128 8.54275 9.56061V15.0006H6.86275V11.2246C6.61742 11.0646 6.31342 10.9366 5.95075 10.8406C5.58808 10.7446 5.23075 10.6966 4.87875 10.6966C4.27075 10.6966 3.79608 10.8299 3.45475 11.0966C3.15608 11.3206 2.98542 11.6193 2.94275 11.9926C3.02808 11.9819 3.11342 11.9766 3.19875 11.9766C3.67875 11.9766 4.06808 12.1259 4.36675 12.4246C4.67608 12.7126 4.83075 13.0859 4.83075 13.5446C4.83075 14.0246 4.66542 14.4193 4.33475 14.7286C4.00408 15.0273 3.58275 15.1766 3.07075 15.1766ZM3.08675 14.2006C3.28942 14.2006 3.44942 14.1366 3.56675 14.0086C3.69475 13.8806 3.75875 13.7259 3.75875 13.5446C3.75875 13.3419 3.69475 13.1819 3.56675 13.0646C3.44942 12.9473 3.28942 12.8886 3.08675 12.8886C2.90542 12.8886 2.75075 12.9473 2.62275 13.0646C2.49475 13.1819 2.43075 13.3419 2.43075 13.5446C2.43075 13.7259 2.49475 13.8806 2.62275 14.0086C2.75075 14.1366 2.90542 14.2006 3.08675 14.2006ZM7.081 5.38461C6.217 5.38461 5.52366 5.21394 5.001 4.87261C4.47833 4.52061 4.217 4.06194 4.217 3.49661C4.217 3.08061 4.35566 2.73928 4.633 2.47261C4.91033 2.19528 5.26766 2.05661 5.705 2.05661C6.13166 2.05661 6.48366 2.17928 6.761 2.42461C7.03833 2.66994 7.177 2.98994 7.177 3.38461C7.177 3.68328 7.08633 3.93394 6.905 4.13661C6.88366 4.16861 6.857 4.19528 6.825 4.21661C6.89966 4.22728 6.97966 4.23261 7.065 4.23261C7.61966 4.23261 8.09433 4.07794 8.489 3.76861C8.873 3.44861 9.17166 2.97394 9.385 2.34461L10.777 2.90461C10.489 3.70461 10.0357 4.31794 9.417 4.74461C8.78766 5.17128 8.009 5.38461 7.081 5.38461ZM5.705 4.00861C5.85433 4.00861 5.98233 3.95528 6.089 3.84861C6.19566 3.74194 6.249 3.61394 6.249 3.46461C6.249 3.30461 6.19566 3.17128 6.089 3.06461C5.98233 2.95794 5.85433 2.90461 5.705 2.90461C5.545 2.90461 5.41166 2.95794 5.305 3.06461C5.19833 3.17128 5.145 3.30461 5.145 3.46461C5.145 3.61394 5.19833 3.74194 5.305 3.84861C5.41166 3.95528 5.545 4.00861 5.705 4.00861ZM7.18075 2.22461L7.02075 -0.143391H8.66875L8.50875 2.22461H7.18075ZM12.8492 15.0006L10.3532 9.43261L11.9212 8.82461L13.9692 13.5926H15.3452V9.52861C15.2706 9.53928 15.1959 9.54461 15.1212 9.54461C14.6199 9.54461 14.2092 9.38994 13.8892 9.08061C13.5692 8.76061 13.4092 8.36594 13.4092 7.89661C13.4092 7.39528 13.5799 6.98461 13.9212 6.66461C14.2626 6.34461 14.6946 6.18461 15.2172 6.18461C15.7612 6.18461 16.1932 6.34994 16.5132 6.68061C16.8332 7.00061 16.9932 7.43261 16.9932 7.97661V15.0006H12.8492ZM15.1852 8.55261C15.3879 8.55261 15.5479 8.49394 15.6652 8.37661C15.7826 8.24861 15.8412 8.08861 15.8412 7.89661C15.8412 7.69394 15.7826 7.53394 15.6652 7.41661C15.5479 7.28861 15.3879 7.22461 15.1852 7.22461C14.9932 7.22461 14.8332 7.28861 14.7052 7.41661C14.5879 7.53394 14.5292 7.69394 14.5292 7.89661C14.5292 8.08861 14.5879 8.24861 14.7052 8.37661C14.8332 8.49394 14.9932 8.55261 15.1852 8.55261ZM22.9192 15.2566C22.2686 15.2566 21.7032 15.1339 21.2232 14.8886C20.7432 14.6433 20.3699 14.2913 20.1032 13.8326C19.8472 13.3633 19.7192 12.8193 19.7192 12.2006V11.8166C19.7192 11.3473 19.7939 10.9473 19.9432 10.6166C20.0926 10.2753 20.3059 9.94994 20.5832 9.64061C20.7112 9.49128 20.8286 9.35794 20.9352 9.24061C21.0526 9.11261 21.1592 8.97928 21.2552 8.84061C21.3619 8.70194 21.4686 8.55261 21.5752 8.39261H21.4792C21.3192 8.63794 21.1166 8.85661 20.8712 9.04861C20.6259 9.22994 20.3166 9.32061 19.9432 9.32061C19.5059 9.32061 19.1432 9.17661 18.8552 8.88861C18.5672 8.60061 18.4232 8.23261 18.4232 7.78461C18.4232 7.31528 18.5779 6.93128 18.8872 6.63261C19.1966 6.33394 19.5912 6.18461 20.0712 6.18461C20.5406 6.18461 20.9192 6.32861 21.2072 6.61661C21.5059 6.89394 21.6552 7.27794 21.6552 7.76861H21.7672C21.8739 7.59794 21.9539 7.38994 22.0072 7.14461C22.0606 6.89928 22.0872 6.63794 22.0872 6.36061H23.1592V6.74461C23.1592 7.25661 23.1006 7.68861 22.9832 8.04061C22.8659 8.38194 22.7166 8.68594 22.5352 8.95261C22.3646 9.21928 22.1886 9.48061 22.0072 9.73661C21.8259 9.98194 21.6766 10.2646 21.5592 10.5846C21.4419 10.8939 21.3832 11.2779 21.3832 11.7366V12.2486C21.3832 12.7393 21.5166 13.1233 21.7832 13.4006C22.0606 13.6779 22.4392 13.8166 22.9192 13.8166C23.3992 13.8166 23.7726 13.6779 24.0392 13.4006C24.3166 13.1233 24.4552 12.7393 24.4552 12.2486V10.6166C24.4552 10.2539 24.3806 9.98194 24.2312 9.80061C24.0819 9.60861 23.8632 9.51261 23.5752 9.51261H23.3992V8.84061L25.3032 6.13661L26.5352 6.93661L25.1272 8.80861V8.84061C25.4472 8.93661 25.6926 9.13394 25.8632 9.43261C26.0446 9.72061 26.1352 10.0726 26.1352 10.4886V12.2006C26.1352 13.1286 25.8419 13.8699 25.2552 14.4246C24.6792 14.9793 23.9006 15.2566 22.9192 15.2566ZM20.0552 8.42461C20.2579 8.42461 20.4179 8.36594 20.5352 8.24861C20.6632 8.12061 20.7272 7.96061 20.7272 7.76861C20.7272 7.56594 20.6632 7.40594 20.5352 7.28861C20.4179 7.16061 20.2579 7.09661 20.0552 7.09661C19.8632 7.09661 19.7032 7.16061 19.5752 7.28861C19.4579 7.40594 19.3992 7.56594 19.3992 7.76861C19.3992 7.96061 19.4579 8.12061 19.5752 8.24861C19.7032 8.36594 19.8632 8.42461 20.0552 8.42461ZM18.9336 5.27261V5.16061C19.0296 4.60594 19.243 4.12061 19.5736 3.70461C19.8936 3.27794 20.3043 2.94728 20.8056 2.71261C21.307 2.47794 21.8616 2.36061 22.4696 2.36061C22.8323 2.36061 23.179 2.40861 23.5096 2.50461V1.97661H24.5176V2.98461C24.5603 3.01661 24.6083 3.04861 24.6616 3.08061C24.811 3.20861 24.9443 3.34194 25.0616 3.48061V1.97661H26.1176V4.69661C26.1923 4.82461 26.2456 4.97928 26.2776 5.16061V5.27261H18.9336ZM20.6936 4.34461H24.5176C24.411 4.04594 24.187 3.80594 23.8456 3.62461C23.4936 3.44328 23.0776 3.35261 22.5976 3.35261C22.139 3.35261 21.7336 3.44328 21.3816 3.62461C21.0296 3.80594 20.8003 4.04594 20.6936 4.34461ZM23.2912 1.22461V0.66461C23.6646 0.600609 23.9632 0.435276 24.1872 0.16861C24.1232 0.179276 24.0806 0.184609 24.0592 0.184609C23.7926 0.184609 23.5792 0.109943 23.4192 -0.0393906C23.2486 -0.188724 23.1632 -0.386057 23.1632 -0.631391C23.1632 -0.919391 23.2752 -1.14872 23.4992 -1.31939C23.7126 -1.50072 23.9846 -1.59139 24.3152 -1.59139C24.6672 -1.59139 24.9499 -1.50072 25.1632 -1.31939C25.3766 -1.14872 25.4832 -0.924724 25.4832 -0.64739C25.4832 -0.466057 25.4406 -0.284724 25.3552 -0.103391C25.2592 0.0672763 25.1366 0.21661 24.9872 0.344609V0.37661H25.2592C25.6646 0.37661 26.0219 0.227276 26.3312 -0.0713902C26.6299 -0.380724 26.8646 -0.812724 27.0352 -1.36739L28.2192 -0.90339C27.9846 -0.220724 27.6112 0.307276 27.0992 0.68061C26.5872 1.04328 25.9792 1.22461 25.2752 1.22461H23.2912ZM24.3152 -0.327391C24.4219 -0.327391 24.5072 -0.354057 24.5712 -0.407391C24.6246 -0.47139 24.6512 -0.556724 24.6512 -0.66339C24.6512 -0.75939 24.6246 -0.834057 24.5712 -0.88739C24.5072 -0.951391 24.4219 -0.983391 24.3152 -0.983391C24.2086 -0.983391 24.1232 -0.951391 24.0592 -0.88739C23.9952 -0.834057 23.9632 -0.75939 23.9632 -0.66339C23.9632 -0.556724 23.9952 -0.47139 24.0592 -0.407391C24.1232 -0.354057 24.2086 -0.327391 24.3152 -0.327391ZM28.7722 15.0006V10.9846C28.7722 10.4833 28.9269 10.0779 29.2362 9.76861C29.5456 9.45928 29.9509 9.30461 30.4522 9.30461C30.9536 9.30461 31.3642 9.45394 31.6842 9.75261C32.0042 10.0406 32.1642 10.4139 32.1642 10.8726C32.1642 11.3206 32.0149 11.6939 31.7162 11.9926C31.4176 12.2806 31.0389 12.4246 30.5802 12.4246C30.5269 12.4246 30.4736 12.4246 30.4202 12.4246V13.5926H34.0842V9.72061C34.0842 9.05928 33.8709 8.53128 33.4442 8.13661C33.0282 7.74194 32.4682 7.54461 31.7642 7.54461C31.2736 7.54461 30.8256 7.64594 30.4202 7.84861C30.0256 8.05128 29.7056 8.33928 29.4602 8.71261L28.2602 7.83261C28.6336 7.27794 29.1349 6.85128 29.7642 6.55261C30.3936 6.25394 31.1082 6.10461 31.9082 6.10461C33.1029 6.10461 34.0416 6.43528 34.7242 7.09661C35.4176 7.74728 35.7642 8.63794 35.7642 9.76861V15.0006H28.7722ZM30.4842 11.5606C30.6762 11.5606 30.8309 11.4966 30.9482 11.3686C31.0656 11.2406 31.1242 11.0859 31.1242 10.9046C31.1242 10.7019 31.0656 10.5419 30.9482 10.4246C30.8309 10.3073 30.6762 10.2486 30.4842 10.2486C30.2922 10.2486 30.1322 10.3126 30.0042 10.4406C29.8869 10.5579 29.8282 10.7126 29.8282 10.9046C29.8282 11.0859 29.8922 11.2406 30.0202 11.3686C30.1482 11.4966 30.3029 11.5606 30.4842 11.5606ZM37.933 15.0006V9.89661C37.933 9.11794 38.093 8.44594 38.413 7.88061C38.733 7.31528 39.1863 6.87794 39.773 6.56861C40.3597 6.25928 41.053 6.10461 41.853 6.10461C42.653 6.10461 43.3463 6.25928 43.933 6.56861C44.5303 6.87794 44.989 7.32061 45.309 7.89661C45.629 8.46194 45.789 9.13394 45.789 9.91261V15.0006H44.125V9.83261C44.125 9.10728 43.9223 8.54194 43.517 8.13661C43.1223 7.73128 42.5677 7.52861 41.853 7.52861C41.1277 7.52861 40.5623 7.73128 40.157 8.13661C39.7517 8.54194 39.549 9.10728 39.549 9.83261V13.3846L41.133 12.0246C40.9303 11.9606 40.7543 11.8539 40.605 11.7046C40.3383 11.4486 40.205 11.1126 40.205 10.6966C40.205 10.2593 40.3543 9.90194 40.653 9.62461C40.9623 9.33661 41.3517 9.19261 41.821 9.19261C42.2903 9.19261 42.669 9.33661 42.957 9.62461C43.245 9.90194 43.389 10.2699 43.389 10.7286C43.389 11.0593 43.2877 11.3846 43.085 11.7046C42.893 12.0139 42.557 12.3819 42.077 12.8086L39.533 15.0006H37.933ZM41.789 11.3526C41.9703 11.3526 42.1197 11.2939 42.237 11.1766C42.365 11.0486 42.429 10.8939 42.429 10.7126C42.429 10.5206 42.3703 10.3659 42.253 10.2486C42.1357 10.1313 41.981 10.0726 41.789 10.0726C41.597 10.0726 41.4423 10.1313 41.325 10.2486C41.2077 10.3659 41.149 10.5206 41.149 10.7126C41.149 10.8939 41.2077 11.0486 41.325 11.1766C41.4423 11.2939 41.597 11.3526 41.789 11.3526ZM41.7039 5.27261V4.60061C41.9279 4.55794 42.1359 4.48861 42.3279 4.39261C42.5092 4.28594 42.6585 4.16328 42.7759 4.02461C42.7332 4.03528 42.6585 4.04061 42.5519 4.04061C42.2639 4.04061 42.0292 3.94994 41.8479 3.76861C41.6559 3.57661 41.5599 3.33661 41.5599 3.04861C41.5599 2.72861 41.6879 2.46728 41.9439 2.26461C42.1999 2.05128 42.5199 1.94461 42.9039 1.94461C43.3092 1.94461 43.6399 2.05128 43.8959 2.26461C44.1412 2.47794 44.2639 2.74994 44.2639 3.08061C44.2639 3.29394 44.2105 3.50728 44.1039 3.72061C43.9972 3.93394 43.8532 4.10994 43.6719 4.24861L43.6879 4.28061H43.9119C44.4452 4.28061 44.9039 4.10994 45.2879 3.76861C45.6612 3.41661 45.9545 2.89928 46.1679 2.21661L47.5599 2.77661C47.2719 3.57661 46.8185 4.19528 46.1999 4.63261C45.5812 5.05928 44.8292 5.27261 43.9439 5.27261H41.7039ZM42.8879 3.44861C43.0159 3.44861 43.1172 3.41128 43.1919 3.33661C43.2559 3.26194 43.2879 3.16594 43.2879 3.04861C43.2879 2.93128 43.2559 2.83528 43.1919 2.76061C43.1172 2.68594 43.0159 2.64861 42.8879 2.64861C42.7599 2.64861 42.6585 2.68594 42.5839 2.76061C42.5092 2.83528 42.4719 2.93128 42.4719 3.04861C42.4719 3.16594 42.5092 3.26194 42.5839 3.33661C42.6585 3.41128 42.7599 3.44861 42.8879 3.44861ZM51.532 15.1766C51.0093 15.1766 50.5827 15.0219 50.252 14.7126C49.9213 14.4033 49.756 14.0033 49.756 13.5126C49.756 13.0219 49.9213 12.6166 50.252 12.2966C50.5827 11.9766 50.9933 11.8166 51.484 11.8166C51.548 11.8166 51.6067 11.8219 51.66 11.8326V9.08061C51.66 8.57928 51.5053 8.20061 51.196 7.94461C50.8867 7.67794 50.4387 7.54461 49.852 7.54461C49.468 7.54461 49.0787 7.60328 48.684 7.72061C48.2893 7.82728 47.9267 7.98194 47.596 8.18461V6.71261C47.9693 6.50994 48.3747 6.36061 48.812 6.26461C49.26 6.15794 49.7133 6.10461 50.172 6.10461C51.1853 6.10461 51.964 6.36061 52.508 6.87261C53.0627 7.37394 53.34 8.08328 53.34 9.00061V13.3686C53.34 13.9126 53.1747 14.3499 52.844 14.6806C52.5133 15.0113 52.076 15.1766 51.532 15.1766ZM51.532 14.1366C51.7347 14.1366 51.8947 14.0779 52.012 13.9606C52.14 13.8326 52.204 13.6726 52.204 13.4806C52.204 13.2779 52.14 13.1179 52.012 13.0006C51.8947 12.8726 51.7347 12.8086 51.532 12.8086C51.3507 12.8086 51.196 12.8726 51.068 13.0006C50.94 13.1179 50.876 13.2779 50.876 13.4806C50.876 13.6726 50.9347 13.8326 51.052 13.9606C51.18 14.0779 51.34 14.1366 51.532 14.1366ZM55.828 15.0006V12.5366C55.828 12.1419 55.908 11.8166 56.068 11.5606C56.2387 11.2939 56.4893 11.1073 56.82 11.0006V10.9366C56.372 10.7873 56.004 10.4779 55.716 10.0086C55.428 9.52861 55.284 9.01128 55.284 8.45661C55.284 7.78461 55.4813 7.24061 55.876 6.82461C56.2813 6.40861 56.7987 6.20061 57.428 6.20061C57.972 6.20061 58.4093 6.35528 58.74 6.66461C59.0813 6.96328 59.252 7.35794 59.252 7.84861C59.252 8.30728 59.1027 8.68594 58.804 8.98461C58.516 9.27261 58.1427 9.41661 57.684 9.41661C57.396 9.41661 57.1507 9.34728 56.948 9.20861C57.044 9.51794 57.1933 9.74728 57.396 9.89661C57.6413 10.0673 58.004 10.1526 58.484 10.1526H59.668V11.3846H58.74C57.908 11.3846 57.492 11.7953 57.492 12.6166V13.5926H61.252V6.36061H62.932V15.0006H55.828ZM57.476 8.52061C57.6787 8.52061 57.8387 8.46194 57.956 8.34461C58.0733 8.21661 58.132 8.05661 58.132 7.86461C58.132 7.66194 58.0733 7.50194 57.956 7.38461C57.8387 7.25661 57.6787 7.19261 57.476 7.19261C57.284 7.19261 57.124 7.25661 56.996 7.38461C56.8787 7.50194 56.82 7.66194 56.82 7.86461C56.82 8.05661 56.8787 8.21661 56.996 8.34461C57.124 8.46194 57.284 8.52061 57.476 8.52061Z" fill="white"/>
<g id="GPay (Dark)">
<g id="GPay">
<g id="Pay">
<path id="Fill 1" fill-rule="evenodd" clip-rule="evenodd" d="M92.3563 3.42339V8.16175H95.2784C95.9745 8.16175 96.5501 7.92781 97.0055 7.45993C97.4728 6.99313 97.707 6.43644 97.707 5.79203C97.707 5.16061 97.4728 4.61041 97.0055 4.14254C96.5501 3.66274 95.9745 3.4223 95.2784 3.4223H92.3563V3.42339ZM92.3563 9.82966V15.3262H90.6107V1.75549H95.2404C96.4169 1.75549 97.4154 2.14756 98.2383 2.93061C99.0732 3.71365 99.4906 4.66782 99.4906 5.79203C99.4906 6.94224 99.0731 7.90291 98.2383 8.67296C97.4283 9.44409 96.4287 9.82858 95.2404 9.82858H92.3563V9.82966Z" fill="white"/>
<path id="Fill 3" fill-rule="evenodd" clip-rule="evenodd" d="M101.255 12.4831C101.255 12.9379 101.448 13.317 101.834 13.6203C102.22 13.9235 102.672 14.0752 103.19 14.0752C103.924 14.0752 104.578 13.8032 105.153 13.2607C105.729 12.717 106.017 12.0791 106.017 11.3469C105.472 10.917 104.713 10.7025 103.74 10.7025C103.031 10.7025 102.44 10.8736 101.966 11.2148C101.492 11.5559 101.255 11.9773 101.255 12.4831M103.513 5.73566C104.803 5.73566 105.821 6.08007 106.569 6.76889C107.314 7.45771 107.687 8.40213 107.687 9.60216V15.3261H106.018V14.0373H105.942C105.221 15.0985 104.259 15.6294 103.058 15.6294C102.033 15.6294 101.176 15.3261 100.487 14.7196C99.7975 14.1131 99.4527 13.3549 99.4527 12.4452C99.4527 11.4845 99.8158 10.7208 100.543 10.1523C101.271 9.58375 102.241 9.2989 103.456 9.2989C104.492 9.2989 105.346 9.48844 106.017 9.86751V9.46894C106.017 8.86243 105.776 8.34798 105.296 7.92451C104.814 7.50103 104.252 7.28984 103.607 7.28984C102.633 7.28984 101.862 7.70032 101.293 8.52235L99.7551 7.55519C100.603 6.34217 101.855 5.73566 103.513 5.73566" fill="white"/>
<path id="Fill 5" fill-rule="evenodd" clip-rule="evenodd" d="M117.269 6.03894L111.443 19.4201H109.641L111.804 14.738L107.971 6.03894H109.869L112.639 12.7106H112.677L115.371 6.03894H117.269Z" fill="white"/>
</g>
<g id="G">
<path id="Fill 8" fill-rule="evenodd" clip-rule="evenodd" d="M85.3029 8.64473C85.3029 8.09563 85.2562 7.56601 85.1684 7.05914H77.8065V10.0625H82.0231C81.842 11.0414 81.2944 11.8744 80.4639 12.4322V14.3828H82.9804C84.4539 13.0246 85.3029 11.0177 85.3029 8.64473" fill="#4285F4"/>
<path id="Fill 10" fill-rule="evenodd" clip-rule="evenodd" d="M77.8065 16.2651C79.9131 16.2651 81.6869 15.5741 82.9804 14.3828L80.4639 12.4322C79.7635 12.9033 78.8614 13.1784 77.8065 13.1784C75.7703 13.1784 74.042 11.8073 73.424 9.95959H70.8316V11.9687C72.1164 14.516 74.7565 16.2651 77.8065 16.2651" fill="#34A853"/>
<path id="Fill 12" fill-rule="evenodd" clip-rule="evenodd" d="M73.424 9.9596C73.2657 9.48847 73.179 8.98593 73.179 8.46715C73.179 7.94837 73.2657 7.44583 73.424 6.9747V4.96564H70.8316C70.3003 6.01837 70 7.20756 70 8.46715C70 9.72674 70.3003 10.916 70.8316 11.9687L73.424 9.9596Z" fill="#FABB05"/>
<path id="Fill 14" fill-rule="evenodd" clip-rule="evenodd" d="M77.8065 3.75583C78.9568 3.75583 79.9879 4.15115 80.8011 4.92553V4.92661L83.0292 2.70094C81.6761 1.44243 79.912 0.669128 77.8065 0.669128C74.7565 0.669128 72.1164 2.41826 70.8316 4.9656L73.424 6.97467C74.042 5.12698 75.7703 3.75583 77.8065 3.75583" fill="#E94235"/>
</g>
</g>
</g>
</g>
</svg>
