<svg width="210" height="40" viewBox="0 0 210 40" fill="none" xmlns="http://www.w3.org/2000/svg">
<g id="th_order_with_Light">
<path id="Text" d="M7.05534 30.28C5.43134 30.28 4.18067 29.9067 3.30334 29.16C2.44467 28.3947 2.01534 27.3027 2.01534 25.884C2.01534 24.3533 2.56601 23.1587 3.66734 22.3C4.76867 21.4413 6.57001 20.9373 9.07134 20.788L11.8153 20.592V19.864C11.8153 18.744 11.554 17.9507 11.0313 17.484C10.5087 16.9987 9.64067 16.756 8.42734 16.756C7.47534 16.756 6.56067 16.8867 5.68334 17.148C4.80601 17.4093 4.00334 17.7547 3.27534 18.184V15.524C3.81667 15.244 4.55401 14.9827 5.48734 14.74C6.43934 14.4787 7.51267 14.348 8.70734 14.348C9.45401 14.348 10.126 14.4133 10.7233 14.544C11.3207 14.656 11.8153 14.8707 12.2073 15.188C12.4873 15.02 12.7207 14.8147 12.9073 14.572C13.094 14.3107 13.1873 14.0027 13.1873 13.648H15.9873C15.9873 14.3387 15.8007 14.9453 15.4273 15.468C15.054 15.9907 14.55 16.4013 13.9153 16.7C14.214 17.0547 14.4287 17.4933 14.5593 18.016C14.7087 18.5387 14.7833 19.136 14.7833 19.808V30H11.8153V22.972L9.43534 23.14C7.77401 23.2707 6.61667 23.5507 5.96334 23.98C5.32867 24.3907 5.01134 24.9973 5.01134 25.8C5.01134 26.5653 5.25401 27.1253 5.73934 27.48C6.22467 27.8347 6.88734 28.012 7.72734 28.012C8.26867 28.012 8.78201 27.9373 9.26734 27.788L9.63134 29.888C8.90334 30.1493 8.04467 30.28 7.05534 30.28ZM11.3563 12.304C10.1429 12.304 9.29361 12.0613 8.80828 11.576C8.32294 11.072 8.08028 10.512 8.08028 9.896C8.08028 9.59733 8.12694 9.28 8.22028 8.944C8.29494 8.608 8.40694 8.31867 8.55628 8.076L10.9363 8.44C10.8989 8.53333 10.8616 8.664 10.8243 8.832C10.7869 9 10.7683 9.15867 10.7683 9.308C10.7683 9.55067 10.8429 9.756 10.9923 9.924C11.1416 10.092 11.4029 10.176 11.7763 10.176H18.5523V12.304H11.3563ZM13.3752 6.284V1.524H16.1192V6.284H13.3752ZM22.6289 30L17.9249 14.656H20.9489L24.8969 27.48H25.1769C25.5689 27.48 25.9515 27.3773 26.3249 27.172C26.7169 26.9667 27.0435 26.7053 27.3049 26.388C27.8089 25.8093 28.1822 25.0813 28.4249 24.204C28.6675 23.3267 28.7889 22.4587 28.7889 21.6C28.7889 20.144 28.4715 19.0053 27.8369 18.184C27.2022 17.3627 26.3249 16.952 25.2049 16.952C24.7195 16.952 24.3369 17.008 24.0569 17.12L23.3849 14.768C23.7955 14.656 24.1782 14.5813 24.5329 14.544C24.8875 14.5067 25.1955 14.488 25.4569 14.488C26.4089 14.488 27.2489 14.628 27.9769 14.908C28.7235 15.1693 29.3582 15.5613 29.8809 16.084C30.5155 16.7373 30.9915 17.54 31.3089 18.492C31.6449 19.444 31.8129 20.4893 31.8129 21.628C31.8129 23.1027 31.5795 24.4093 31.1129 25.548C30.6649 26.668 30.1049 27.564 29.4329 28.236C28.8729 28.7773 28.1915 29.2067 27.3889 29.524C26.5862 29.8413 25.5409 30 24.2529 30H22.6289ZM41.4614 30.308C39.5947 30.308 38.1667 29.8693 37.1774 28.992C36.2067 28.096 35.7214 26.78 35.7214 25.044V23.532C35.7214 22.5053 35.8894 21.684 36.2254 21.068C36.58 20.452 37.0094 19.8547 37.5134 19.276C37.756 18.996 37.9894 18.7253 38.2134 18.464C38.4374 18.2027 38.568 17.932 38.6054 17.652L38.5214 17.596C38.316 17.7267 38.092 17.8387 37.8494 17.932C37.6067 18.0253 37.3267 18.072 37.0094 18.072C36.3374 18.072 35.7867 17.8387 35.3574 17.372C34.928 16.9053 34.7134 16.2333 34.7134 15.356V14.656H37.1214C37.1214 15.7013 37.4107 16.224 37.9894 16.224C38.176 16.224 38.372 16.1867 38.5774 16.112C38.8014 16.0373 39.0067 15.9253 39.1934 15.776L39.6974 14.656H41.2654V16.084C41.2654 16.6627 41.2467 17.148 41.2094 17.54C41.172 17.932 41.0694 18.3147 40.9014 18.688C40.752 19.0613 40.5 19.4813 40.1454 19.948C39.8654 20.3027 39.6134 20.6293 39.3894 20.928C39.184 21.208 39.016 21.5253 38.8854 21.88C38.7734 22.216 38.7174 22.664 38.7174 23.224V24.848C38.7174 25.6693 38.8387 26.304 39.0814 26.752C39.324 27.1813 39.6507 27.48 40.0614 27.648C40.4907 27.816 40.9574 27.9 41.4614 27.9C43.3467 27.9 44.2894 27.032 44.2894 25.296V21.712C44.2894 21.0773 44.1307 20.5827 43.8134 20.228C43.5147 19.8547 43.0387 19.668 42.3854 19.668H42.3014V17.904H42.4134C43.1227 17.904 43.6267 17.736 43.9254 17.4C44.224 17.0453 44.4107 16.616 44.4854 16.112C44.56 15.608 44.5974 15.1227 44.5974 14.656H47.5654C47.5654 15.7013 47.4347 16.5693 47.1734 17.26C46.912 17.9507 46.3707 18.4453 45.5494 18.744V18.856C46.24 19.0427 46.6974 19.4067 46.9214 19.948C47.164 20.4707 47.2854 21.124 47.2854 21.908V25.408C47.2854 26.976 46.7814 28.1893 45.7734 29.048C44.784 29.888 43.3467 30.308 41.4614 30.308ZM35.9291 12.304V11.016L38.1971 10.036H41.7251V7.88H43.9651V10.036H45.8691V7.88H48.0811V12.304H35.9291ZM41.8131 6.284V5.248C42.0558 5.192 42.3171 5.108 42.5971 4.996C42.8584 4.884 43.0918 4.744 43.2971 4.576C43.5024 4.38933 43.6051 4.14667 43.6051 3.848C43.6051 3.41867 43.3904 3.204 42.9611 3.204C42.6438 3.204 42.3451 3.29733 42.0651 3.484L41.5611 2.112C41.8971 1.86933 42.2891 1.71067 42.7371 1.636C43.1664 1.56133 43.5211 1.524 43.8011 1.524C44.3611 1.524 44.8464 1.664 45.2571 1.944C45.6491 2.20533 45.8451 2.63467 45.8451 3.232C45.8451 3.38133 45.8264 3.54933 45.7891 3.736C45.7518 3.92267 45.6864 4.1 45.5931 4.268H49.0651V6.284H41.8131ZM58.1901 30.308C56.0808 30.308 54.5128 29.776 53.4861 28.712C52.4595 27.648 51.9461 25.9867 51.9461 23.728C51.9461 23.3547 51.9555 22.9347 51.9741 22.468C52.0115 22.0013 52.0581 21.5627 52.1141 21.152H58.2461V23.308H54.9421V23.812C54.9421 25.3987 55.2035 26.4907 55.7261 27.088C56.2675 27.6667 57.0701 27.956 58.1341 27.956C58.8995 27.956 59.5621 27.8067 60.1221 27.508C60.7008 27.1907 61.1395 26.64 61.4381 25.856C61.7555 25.072 61.9141 23.952 61.9141 22.496C61.9141 20.5547 61.5781 19.1267 60.9061 18.212C60.2528 17.2787 59.0955 16.812 57.4341 16.812C56.5568 16.812 55.6888 16.9333 54.8301 17.176C53.9901 17.4 53.2248 17.7173 52.5341 18.128V15.44C53.1128 15.1413 53.8781 14.8893 54.8301 14.684C55.7821 14.46 56.7995 14.348 57.8821 14.348C59.5621 14.348 60.9248 14.684 61.9701 15.356C63.0155 16.0093 63.7808 16.9427 64.2661 18.156C64.7515 19.3693 64.9941 20.7973 64.9941 22.44C64.9941 24.9413 64.4715 26.8827 63.4261 28.264C62.3995 29.6267 60.6541 30.308 58.1901 30.308ZM74.4243 30.28C72.9123 30.28 71.7176 29.9347 70.8403 29.244C69.9816 28.5533 69.375 27.62 69.0203 26.444C68.6656 25.268 68.4883 23.9427 68.4883 22.468C68.4883 20.34 68.787 18.688 69.3843 17.512C69.9816 16.336 70.8123 15.5147 71.8763 15.048C72.9403 14.5813 74.1723 14.348 75.5723 14.348C77.9056 14.348 79.5856 14.8427 80.6123 15.832C81.639 16.8213 82.1523 18.156 82.1523 19.836V30H79.1563V20.116C79.1563 19.0333 78.8856 18.212 78.3443 17.652C77.8216 17.092 76.9163 16.812 75.6283 16.812C74.8256 16.812 74.1163 16.9613 73.5003 17.26C72.8843 17.5587 72.399 18.1187 72.0443 18.94C71.6896 19.7427 71.5123 20.9187 71.5123 22.468C71.5123 23.4947 71.615 24.4093 71.8203 25.212C72.0256 26.0147 72.371 26.6493 72.8563 27.116C73.3603 27.5827 74.051 27.816 74.9283 27.816C75.451 27.816 75.9083 27.7507 76.3003 27.62L76.5803 29.916C76.2816 30.0467 75.9363 30.14 75.5443 30.196C75.1523 30.252 74.779 30.28 74.4243 30.28ZM74.1129 12.332V11.044C74.4489 10.9693 74.8036 10.8667 75.1769 10.736C75.5502 10.5867 75.8676 10.4 76.1289 10.176C76.3716 9.952 76.4929 9.66267 76.4929 9.308C76.4929 9.06533 76.4276 8.86933 76.2969 8.72C76.1476 8.57067 75.9329 8.496 75.6529 8.496C75.4662 8.496 75.2889 8.53333 75.1209 8.608C74.9342 8.664 74.7662 8.72 74.6169 8.776L74.0569 7.152C74.4302 6.85333 74.8596 6.65733 75.3449 6.564C75.8302 6.452 76.2316 6.396 76.5489 6.396C77.3142 6.396 77.9209 6.60133 78.3689 7.012C78.7982 7.42267 79.0129 7.964 79.0129 8.636C79.0129 9.196 78.8262 9.7 78.4529 10.148H82.9329V12.332H74.1129ZM90.4549 30.308C89.6709 30.308 88.9149 30.224 88.1869 30.056C87.4589 29.888 86.7123 29.5987 85.9469 29.188L86.8429 26.948C87.2536 27.1907 87.7296 27.4053 88.2709 27.592C88.8123 27.76 89.4096 27.844 90.0629 27.844C91.3323 27.844 92.3309 27.3773 93.0589 26.444C93.7869 25.492 94.1509 24.1013 94.1509 22.272C94.1509 20.4987 93.7776 19.1453 93.0309 18.212C92.2843 17.2787 91.1456 16.812 89.6149 16.812C89.0176 16.812 88.4016 16.8867 87.7669 17.036C87.1509 17.1667 86.6096 17.3627 86.1429 17.624V15.132C86.6843 14.852 87.2909 14.656 87.9629 14.544C88.6536 14.4133 89.3443 14.348 90.0349 14.348C91.7336 14.348 93.1056 14.6747 94.1509 15.328C95.2149 15.9813 95.9896 16.9053 96.4749 18.1C96.9789 19.276 97.2309 20.6667 97.2309 22.272C97.2309 24.792 96.6523 26.7613 95.4949 28.18C94.3563 29.5987 92.6763 30.308 90.4549 30.308ZM107.416 30.28C105.083 30.28 103.431 29.8507 102.46 28.992C101.49 28.1147 101.004 26.9573 101.004 25.52C101.004 24.6613 101.126 23.98 101.368 23.476C101.63 22.972 101.956 22.5893 102.348 22.328C102.74 22.0667 103.142 21.8987 103.552 21.824V21.712C103.16 21.6 102.759 21.4133 102.348 21.152C101.956 20.8907 101.62 20.5267 101.34 20.06C101.079 19.5933 100.948 19.0053 100.948 18.296C100.948 17.6427 101.098 17.0267 101.396 16.448C101.714 15.8507 102.208 15.3653 102.88 14.992C103.571 14.6187 104.486 14.432 105.624 14.432C106.11 14.432 106.604 14.4693 107.108 14.544C107.612 14.6187 108.004 14.7307 108.284 14.88L107.78 17.064C107.594 17.008 107.342 16.952 107.024 16.896C106.707 16.84 106.39 16.812 106.072 16.812C105.363 16.812 104.831 16.98 104.476 17.316C104.14 17.652 103.972 18.0907 103.972 18.632C103.972 19.2293 104.122 19.6867 104.42 20.004C104.719 20.3027 105.102 20.508 105.568 20.62C106.054 20.732 106.548 20.788 107.052 20.788H107.612V22.832H107.052C106.026 22.832 105.27 23.0187 104.784 23.392C104.299 23.7653 104.056 24.372 104.056 25.212C104.056 25.6787 104.15 26.1173 104.336 26.528C104.542 26.9387 104.887 27.2747 105.372 27.536C105.858 27.7787 106.548 27.9 107.444 27.9C108.751 27.9 109.647 27.6293 110.132 27.088C110.618 26.5467 110.86 25.8187 110.86 24.904V14.656H113.856V24.736C113.856 26.6773 113.334 28.0867 112.288 28.964C111.262 29.8413 109.638 30.28 107.416 30.28Z" fill="#3C4043"/>
<g id="GPay Logo (Light)">
<g id="GPay">
<g id="Pay">
<path id="Fill 1" fill-rule="evenodd" clip-rule="evenodd" d="M166.529 11.4466V19.6128H171.565C172.765 19.6128 173.757 19.2096 174.541 18.4032C175.347 17.5988 175.75 16.6394 175.75 15.5288C175.75 14.4406 175.347 13.4924 174.541 12.686C173.757 11.8591 172.765 11.4448 171.565 11.4448H166.529V11.4466ZM166.529 22.4872V31.9599H163.521V8.57217H171.499C173.527 8.57217 175.248 9.24786 176.666 10.5974C178.105 11.9469 178.824 13.5913 178.824 15.5288C178.824 17.511 178.105 19.1667 176.666 20.4938C175.27 21.8227 173.547 22.4854 171.499 22.4854H166.529V22.4872Z" fill="#5F6368"/>
<path id="Fill 3" fill-rule="evenodd" clip-rule="evenodd" d="M181.864 27.0602C181.864 27.8442 182.197 28.4975 182.862 29.0201C183.527 29.5427 184.306 29.804 185.2 29.804C186.465 29.804 187.591 29.3354 188.584 28.4004C189.576 27.4634 190.071 26.364 190.071 25.1022C189.133 24.3612 187.825 23.9916 186.147 23.9916C184.925 23.9916 183.907 24.2865 183.09 24.8745C182.273 25.4623 181.864 26.1886 181.864 27.0602ZM185.756 15.4317C187.98 15.4317 189.735 16.0252 191.022 17.2124C192.308 18.3995 192.95 20.0271 192.95 22.0952V31.9599H190.073V29.7387H189.942C188.699 31.5677 187.042 32.4825 184.972 32.4825C183.206 32.4825 181.728 31.9599 180.541 30.9146C179.353 29.8694 178.759 28.5628 178.759 26.9949C178.759 25.3393 179.385 24.0232 180.638 23.0434C181.892 22.0635 183.565 21.5726 185.658 21.5726C187.444 21.5726 188.916 21.8992 190.071 22.5525V21.8656C190.071 20.8204 189.656 19.9338 188.829 19.204C187.999 18.4741 187.031 18.1102 185.919 18.1102C184.239 18.1102 182.911 18.8176 181.93 20.2343L179.28 18.5675C180.741 16.4769 182.899 15.4317 185.756 15.4317Z" fill="#5F6368"/>
<path id="Fill 5" fill-rule="evenodd" clip-rule="evenodd" d="M209.463 15.9543L199.424 39.0154H196.318L200.046 30.9464L193.44 15.9543H196.71L201.484 27.4522H201.55L206.193 15.9543H209.463Z" fill="#5F6368"/>
</g>
<g id="G">
<path id="Fill 8" fill-rule="evenodd" clip-rule="evenodd" d="M154.373 20.4452C154.373 19.4989 154.293 18.5861 154.141 17.7126H141.454V22.8885H148.72C148.408 24.5757 147.465 26.0112 146.033 26.9725V30.3341H150.37C152.91 27.9935 154.373 24.5348 154.373 20.4452Z" fill="#4285F4"/>
<path id="Fill 10" fill-rule="evenodd" clip-rule="evenodd" d="M141.454 33.5782C145.084 33.5782 148.141 32.3873 150.37 30.3341L146.033 26.9725C144.826 27.7844 143.272 28.2585 141.454 28.2585C137.944 28.2585 134.966 25.8955 133.901 22.7112H129.433V26.1736C131.647 30.5637 136.197 33.5782 141.454 33.5782Z" fill="#34A853"/>
<path id="Fill 12" fill-rule="evenodd" clip-rule="evenodd" d="M133.901 22.7111C133.628 21.8992 133.479 21.0331 133.479 20.139C133.479 19.245 133.628 18.3789 133.901 17.567V14.1045H129.433C128.518 15.9188 128 17.9683 128 20.139C128 22.3098 128.518 24.3595 129.433 26.1736L133.901 22.7111Z" fill="#FABB05"/>
<path id="Fill 14" fill-rule="evenodd" clip-rule="evenodd" d="M141.454 12.0196C143.436 12.0196 145.213 12.7009 146.615 14.0355V14.0374L150.455 10.2016C148.123 8.03271 145.082 6.7 141.454 6.7C136.197 6.7 131.647 9.71446 129.433 14.1046L133.901 17.567C134.966 14.3827 137.944 12.0196 141.454 12.0196Z" fill="#E94235"/>
</g>
</g>
</g>
</g>
</svg>
