<svg width="135" height="21" viewBox="0 0 135 21" fill="none" xmlns="http://www.w3.org/2000/svg">
<g id="th_pay_with_Pay_NBG">
<path id="Left Text" d="M4.83662 15.2566C3.86596 15.2566 3.08729 14.9846 2.50062 14.4406C1.92462 13.8859 1.63662 13.1393 1.63662 12.2006V11.5446C1.63662 11.1713 1.71129 10.8246 1.86062 10.5046C2.02062 10.1739 2.21796 9.86994 2.45262 9.59261C2.48462 9.56061 2.51129 9.52861 2.53262 9.49661C2.05262 9.49661 1.64729 9.34728 1.31662 9.04861C0.975289 8.74994 0.804622 8.35528 0.804622 7.86461C0.804622 7.37394 0.969955 6.97394 1.30062 6.66461C1.64196 6.34461 2.07929 6.18461 2.61262 6.18461C3.13529 6.18461 3.56196 6.33928 3.89262 6.64861C4.23396 6.95794 4.40462 7.40061 4.40462 7.97661C4.40462 8.31794 4.34596 8.62194 4.22862 8.88861C4.12196 9.14461 3.99396 9.39528 3.84462 9.64061C3.69529 9.87528 3.56729 10.1419 3.46062 10.4406C3.35396 10.7393 3.30062 11.1019 3.30062 11.5286V12.2486C3.30062 12.7393 3.43396 13.1233 3.70062 13.4006C3.97796 13.6779 4.35662 13.8166 4.83662 13.8166C5.32729 13.8166 5.70596 13.6779 5.97262 13.4006C6.24996 13.1233 6.38862 12.7393 6.38862 12.2486V10.6966C6.38862 10.3233 6.30862 10.0353 6.14862 9.83261C5.98862 9.61928 5.76462 9.51261 5.47662 9.51261H5.20462V8.84061L7.09262 6.13661L8.30862 6.93661L6.91662 8.79261V8.82461C7.27929 8.93128 7.56196 9.14461 7.76462 9.46461C7.96729 9.77394 8.06862 10.1473 8.06862 10.5846V12.2006C8.06862 13.1393 7.77529 13.8859 7.18862 14.4406C6.61262 14.9846 5.82862 15.2566 4.83662 15.2566ZM2.58062 8.55261C2.77262 8.55261 2.92729 8.48861 3.04462 8.36061C3.17262 8.23261 3.23662 8.07261 3.23662 7.88061C3.23662 7.68861 3.17262 7.53394 3.04462 7.41661C2.92729 7.28861 2.77262 7.22461 2.58062 7.22461C2.38862 7.22461 2.22862 7.28861 2.10062 7.41661C1.97262 7.53394 1.90862 7.68861 1.90862 7.88061C1.90862 8.07261 1.97262 8.23261 2.10062 8.36061C2.22862 8.48861 2.38862 8.55261 2.58062 8.55261ZM7.38312 5.43261C6.90312 5.43261 6.50845 5.28328 6.19912 4.98461C5.87912 4.67528 5.71912 4.28594 5.71912 3.81661C5.71912 3.34728 5.87379 2.96328 6.18312 2.66461C6.49245 2.35528 6.88712 2.20061 7.36712 2.20061C7.85779 2.20061 8.26312 2.35528 8.58312 2.66461C8.89245 2.96328 9.04712 3.34728 9.04712 3.81661C9.04712 4.28594 8.89245 4.67528 8.58312 4.98461C8.26312 5.28328 7.86312 5.43261 7.38312 5.43261ZM7.38312 4.47261C7.57512 4.47261 7.73512 4.41394 7.86312 4.29661C7.98045 4.16861 8.03912 4.00861 8.03912 3.81661C8.03912 3.62461 7.97512 3.46994 7.84712 3.35261C7.71912 3.22461 7.55912 3.16061 7.36712 3.16061C7.18579 3.16061 7.03645 3.22461 6.91912 3.35261C6.79112 3.46994 6.72712 3.62461 6.72712 3.81661C6.72712 4.00861 6.79112 4.16861 6.91912 4.29661C7.03645 4.41394 7.19112 4.47261 7.38312 4.47261ZM12.9277 15.0006V9.17661C12.9277 8.66461 12.7944 8.26461 12.5277 7.97661C12.2611 7.68861 11.8877 7.54461 11.4077 7.54461C11.1197 7.54461 10.7997 7.59261 10.4477 7.68861C10.1064 7.77394 9.80241 7.88594 9.53575 8.02461V6.58461C9.80241 6.43528 10.1437 6.31794 10.5597 6.23261C10.9757 6.14728 11.3651 6.10461 11.7277 6.10461C12.6237 6.10461 13.3277 6.37128 13.8397 6.90461C14.3517 7.42728 14.6077 8.15794 14.6077 9.09661V15.0006H12.9277ZM20.1277 15.1766C19.6051 15.1766 19.1784 15.0219 18.8477 14.7126C18.5171 14.4033 18.3517 14.0033 18.3517 13.5126C18.3517 13.0219 18.5117 12.6166 18.8317 12.2966C19.1624 11.9766 19.5731 11.8166 20.0637 11.8166C20.1277 11.8166 20.1917 11.8219 20.2557 11.8326V11.2086C20.2557 10.5153 19.8824 10.1686 19.1357 10.1686H16.2877V9.00061C16.2877 8.06194 16.5757 7.34728 17.1517 6.85661C17.7384 6.35528 18.5864 6.10461 19.6957 6.10461C20.1437 6.10461 20.5971 6.14728 21.0557 6.23261C21.5251 6.30728 21.9304 6.41394 22.2717 6.55261V7.97661C21.9091 7.83794 21.4931 7.72594 21.0237 7.64061C20.5544 7.54461 20.1224 7.49661 19.7277 7.49661C18.5331 7.49661 17.9357 7.93394 17.9357 8.80861V8.96861H19.6957C21.1891 8.96861 21.9357 9.65661 21.9357 11.0326V13.3686C21.9357 13.9126 21.7651 14.3499 21.4237 14.6806C21.0931 15.0113 20.6611 15.1766 20.1277 15.1766ZM20.1277 14.1366C20.3304 14.1366 20.4904 14.0779 20.6077 13.9606C20.7251 13.8326 20.7837 13.6726 20.7837 13.4806C20.7837 13.2779 20.7251 13.1179 20.6077 13.0006C20.4904 12.8726 20.3304 12.8086 20.1277 12.8086C19.9357 12.8086 19.7757 12.8726 19.6477 13.0006C19.5197 13.1179 19.4557 13.2779 19.4557 13.4806C19.4557 13.6726 19.5197 13.8326 19.6477 13.9606C19.7757 14.0779 19.9357 14.1366 20.1277 14.1366ZM26.4051 9.83261C25.8931 9.83261 25.4398 9.75261 25.0451 9.59261C24.6505 9.42194 24.3411 9.19261 24.1171 8.90461C23.8931 8.60594 23.7811 8.26994 23.7811 7.89661C23.7811 7.46994 23.9198 7.12328 24.1971 6.85661C24.4745 6.58994 24.8265 6.45661 25.2531 6.45661C25.6798 6.45661 26.0265 6.57928 26.2931 6.82461C26.5598 7.06994 26.6931 7.38994 26.6931 7.78461C26.6931 8.07261 26.6131 8.31794 26.4531 8.52061C26.3998 8.59528 26.3358 8.65928 26.2611 8.71261C26.3571 8.73394 26.4425 8.74461 26.5171 8.74461C26.9011 8.74461 27.2425 8.58994 27.5411 8.28061C27.8398 7.97128 28.0905 7.50194 28.2931 6.87261L29.6211 7.40061C29.3651 8.20061 28.9651 8.80861 28.4211 9.22461C27.8771 9.62994 27.2051 9.83261 26.4051 9.83261ZM26.4051 14.7126C25.8931 14.7126 25.4398 14.6326 25.0451 14.4726C24.6505 14.3019 24.3411 14.0726 24.1171 13.7846C23.8931 13.4859 23.7811 13.1499 23.7811 12.7766C23.7811 12.3606 23.9198 12.0193 24.1971 11.7526C24.4745 11.4753 24.8265 11.3366 25.2531 11.3366C25.6798 11.3366 26.0265 11.4646 26.2931 11.7206C26.5598 11.9659 26.6931 12.2859 26.6931 12.6806C26.6931 12.9579 26.6131 13.1979 26.4531 13.4006C26.3998 13.4753 26.3358 13.5393 26.2611 13.5926C26.3571 13.6139 26.4425 13.6246 26.5171 13.6246C26.9011 13.6246 27.2425 13.4699 27.5411 13.1606C27.8398 12.8513 28.0905 12.3819 28.2931 11.7526L29.6211 12.2806C29.3651 13.0913 28.9651 13.6993 28.4211 14.1046C27.8771 14.5099 27.2051 14.7126 26.4051 14.7126ZM25.2371 8.39261C25.3971 8.39261 25.5305 8.33928 25.6371 8.23261C25.7438 8.12594 25.7971 7.99794 25.7971 7.84861C25.7971 7.68861 25.7438 7.55528 25.6371 7.44861C25.5305 7.34194 25.3971 7.28861 25.2371 7.28861C25.0878 7.28861 24.9598 7.34194 24.8531 7.44861C24.7465 7.55528 24.6931 7.68861 24.6931 7.84861C24.6931 7.99794 24.7465 8.12594 24.8531 8.23261C24.9598 8.33928 25.0878 8.39261 25.2371 8.39261ZM25.2371 13.2886C25.3971 13.2886 25.5305 13.2353 25.6371 13.1286C25.7438 13.0219 25.7971 12.8939 25.7971 12.7446C25.7971 12.5846 25.7438 12.4513 25.6371 12.3446C25.5305 12.2379 25.3971 12.1846 25.2371 12.1846C25.0878 12.1846 24.9598 12.2379 24.8531 12.3446C24.7465 12.4513 24.6931 12.5846 24.6931 12.7446C24.6931 12.8939 24.7465 13.0219 24.8531 13.1286C24.9598 13.2353 25.0878 13.2886 25.2371 13.2886ZM33.4424 15.1926C32.8984 15.1926 32.461 15.0273 32.1304 14.6966C31.8104 14.3659 31.6504 13.9286 31.6504 13.3846V6.36061H33.3304V11.8646C33.4157 11.8433 33.5064 11.8326 33.6024 11.8326C34.0824 11.8326 34.477 11.9926 34.7864 12.3126C35.0957 12.6219 35.2504 13.0166 35.2504 13.4966C35.2504 13.9979 35.0797 14.4086 34.7384 14.7286C34.4077 15.0379 33.9757 15.1926 33.4424 15.1926ZM33.4584 14.1526C33.661 14.1526 33.821 14.0939 33.9384 13.9766C34.0664 13.8486 34.1304 13.6886 34.1304 13.4966C34.1304 13.2939 34.0664 13.1339 33.9384 13.0166C33.821 12.8886 33.661 12.8246 33.4584 12.8246C33.277 12.8246 33.1224 12.8886 32.9944 13.0166C32.8664 13.1339 32.8024 13.2939 32.8024 13.4966C32.8024 13.6886 32.8664 13.8486 32.9944 13.9766C33.1224 14.0939 33.277 14.1526 33.4584 14.1526ZM38.3211 15.0006L35.8251 9.43261L37.3931 8.82461L39.4411 13.5926H40.8171V9.52861C40.7425 9.53928 40.6678 9.54461 40.5931 9.54461C40.0918 9.54461 39.6811 9.38994 39.3611 9.08061C39.0411 8.76061 38.8811 8.36594 38.8811 7.89661C38.8811 7.39528 39.0518 6.98461 39.3931 6.66461C39.7345 6.34461 40.1665 6.18461 40.6891 6.18461C41.2331 6.18461 41.6651 6.34994 41.9851 6.68061C42.3051 7.00061 42.4651 7.43261 42.4651 7.97661V15.0006H38.3211ZM40.6571 8.55261C40.8598 8.55261 41.0198 8.49394 41.1371 8.37661C41.2545 8.24861 41.3131 8.08861 41.3131 7.89661C41.3131 7.69394 41.2545 7.53394 41.1371 7.41661C41.0198 7.28861 40.8598 7.22461 40.6571 7.22461C40.4651 7.22461 40.3051 7.28861 40.1771 7.41661C40.0598 7.53394 40.0011 7.69394 40.0011 7.89661C40.0011 8.08861 40.0598 8.24861 40.1771 8.37661C40.3051 8.49394 40.4651 8.55261 40.6571 8.55261ZM36.0677 5.27261V5.16061C36.1637 4.59528 36.3611 4.10461 36.6597 3.68861C36.9584 3.26194 37.3424 2.93661 37.8117 2.71261C38.2811 2.47794 38.8037 2.36061 39.3797 2.36061C39.9557 2.36061 40.4784 2.47794 40.9477 2.71261C41.4064 2.93661 41.7904 3.26194 42.0997 3.68861C42.3984 4.10461 42.5957 4.59528 42.6917 5.16061V5.27261H36.0677ZM37.7637 4.34461H40.9797C40.8944 4.04594 40.7077 3.80594 40.4197 3.62461C40.1211 3.44328 39.7744 3.35261 39.3797 3.35261C38.9744 3.35261 38.6277 3.44328 38.3397 3.62461C38.0517 3.80594 37.8597 4.04594 37.7637 4.34461ZM45.9491 15.0006V9.52861C45.8745 9.53928 45.7998 9.54461 45.7251 9.54461C45.2345 9.54461 44.8291 9.38994 44.5091 9.08061C44.1891 8.76061 44.0291 8.36061 44.0291 7.88061C44.0291 7.38994 44.1998 6.98461 44.5411 6.66461C44.8825 6.34461 45.3145 6.18461 45.8371 6.18461C46.3811 6.18461 46.8131 6.34994 47.1331 6.68061C47.4531 7.01128 47.6131 7.44861 47.6131 7.99261V13.3686L50.2051 11.5926C50.4398 11.4219 50.5945 11.2726 50.6691 11.1446C50.7545 11.0059 50.7971 10.8299 50.7971 10.6166V6.36061H52.4771V10.7926C52.4771 11.1126 52.4131 11.3793 52.2851 11.5926C52.2531 11.6459 52.2158 11.6993 52.1731 11.7526C52.4078 11.8379 52.6105 11.9659 52.7811 12.1366C53.1331 12.4673 53.3091 12.8886 53.3091 13.4006C53.3091 13.9126 53.1331 14.3393 52.7811 14.6806C52.4398 15.0113 52.0025 15.1766 51.4691 15.1766C50.9251 15.1766 50.4771 15.0059 50.1251 14.6646C49.8158 14.3766 49.6398 14.0193 49.5971 13.5926L47.5491 15.0006H45.9491ZM51.4531 14.1046C51.6665 14.1046 51.8371 14.0406 51.9651 13.9126C52.1038 13.7739 52.1731 13.6033 52.1731 13.4006C52.1731 13.1873 52.1038 13.0113 51.9651 12.8726C51.8265 12.7339 51.6558 12.6646 51.4531 12.6646C51.2505 12.6646 51.0798 12.7339 50.9411 12.8726C50.8131 13.0006 50.7491 13.1713 50.7491 13.3846C50.7491 13.5979 50.8131 13.7739 50.9411 13.9126C51.0798 14.0406 51.2505 14.1046 51.4531 14.1046ZM45.8051 8.55261C46.0078 8.55261 46.1678 8.49394 46.2851 8.37661C46.4025 8.24861 46.4611 8.08861 46.4611 7.89661C46.4611 7.69394 46.4025 7.53394 46.2851 7.41661C46.1678 7.28861 46.0078 7.22461 45.8051 7.22461C45.6131 7.22461 45.4531 7.28861 45.3251 7.41661C45.2078 7.53394 45.1491 7.69394 45.1491 7.89661C45.1491 8.08861 45.2078 8.24861 45.3251 8.37661C45.4531 8.49394 45.6131 8.55261 45.8051 8.55261ZM54.933 15.0006V9.89661C54.933 9.11794 55.093 8.44594 55.413 7.88061C55.733 7.31528 56.1863 6.87794 56.773 6.56861C57.3597 6.25928 58.053 6.10461 58.853 6.10461C59.653 6.10461 60.3463 6.25928 60.933 6.56861C61.5303 6.87794 61.989 7.32061 62.309 7.89661C62.629 8.46194 62.789 9.13394 62.789 9.91261V15.0006H61.125V9.83261C61.125 9.10728 60.9223 8.54194 60.517 8.13661C60.1223 7.73128 59.5677 7.52861 58.853 7.52861C58.1277 7.52861 57.5623 7.73128 57.157 8.13661C56.7517 8.54194 56.549 9.10728 56.549 9.83261V13.3846L58.133 12.0246C57.9303 11.9606 57.7543 11.8539 57.605 11.7046C57.3383 11.4486 57.205 11.1126 57.205 10.6966C57.205 10.2593 57.3543 9.90194 57.653 9.62461C57.9623 9.33661 58.3517 9.19261 58.821 9.19261C59.2903 9.19261 59.669 9.33661 59.957 9.62461C60.245 9.90194 60.389 10.2699 60.389 10.7286C60.389 11.0593 60.2877 11.3846 60.085 11.7046C59.893 12.0139 59.557 12.3819 59.077 12.8086L56.533 15.0006H54.933ZM58.789 11.3526C58.9703 11.3526 59.1197 11.2939 59.237 11.1766C59.365 11.0486 59.429 10.8939 59.429 10.7126C59.429 10.5206 59.3703 10.3659 59.253 10.2486C59.1357 10.1313 58.981 10.0726 58.789 10.0726C58.597 10.0726 58.4423 10.1313 58.325 10.2486C58.2077 10.3659 58.149 10.5206 58.149 10.7126C58.149 10.8939 58.2077 11.0486 58.325 11.1766C58.4423 11.2939 58.597 11.3526 58.789 11.3526ZM58.7039 5.27261V4.60061C58.9279 4.55794 59.1359 4.48861 59.3279 4.39261C59.5092 4.28594 59.6585 4.16328 59.7759 4.02461C59.7332 4.03528 59.6585 4.04061 59.5519 4.04061C59.2639 4.04061 59.0292 3.94994 58.8479 3.76861C58.6559 3.57661 58.5599 3.33661 58.5599 3.04861C58.5599 2.72861 58.6879 2.46728 58.9439 2.26461C59.1999 2.05128 59.5199 1.94461 59.9039 1.94461C60.3092 1.94461 60.6399 2.05128 60.8959 2.26461C61.1412 2.47794 61.2639 2.74994 61.2639 3.08061C61.2639 3.29394 61.2105 3.50728 61.1039 3.72061C60.9972 3.93394 60.8532 4.10994 60.6719 4.24861L60.6879 4.28061H60.9119C61.4452 4.28061 61.9039 4.10994 62.2879 3.76861C62.6612 3.41661 62.9545 2.89928 63.1679 2.21661L64.5599 2.77661C64.2719 3.57661 63.8185 4.19528 63.1999 4.63261C62.5812 5.05928 61.8292 5.27261 60.9439 5.27261H58.7039ZM59.8879 3.44861C60.0159 3.44861 60.1172 3.41128 60.1919 3.33661C60.2559 3.26194 60.2879 3.16594 60.2879 3.04861C60.2879 2.93128 60.2559 2.83528 60.1919 2.76061C60.1172 2.68594 60.0159 2.64861 59.8879 2.64861C59.7599 2.64861 59.6585 2.68594 59.5839 2.76061C59.5092 2.83528 59.4719 2.93128 59.4719 3.04861C59.4719 3.16594 59.5092 3.26194 59.5839 3.33661C59.6585 3.41128 59.7599 3.44861 59.8879 3.44861ZM68.532 15.1766C68.0093 15.1766 67.5827 15.0219 67.252 14.7126C66.9213 14.4033 66.756 14.0033 66.756 13.5126C66.756 13.0219 66.9213 12.6166 67.252 12.2966C67.5827 11.9766 67.9933 11.8166 68.484 11.8166C68.548 11.8166 68.6067 11.8219 68.66 11.8326V9.08061C68.66 8.57928 68.5053 8.20061 68.196 7.94461C67.8867 7.67794 67.4387 7.54461 66.852 7.54461C66.468 7.54461 66.0787 7.60328 65.684 7.72061C65.2893 7.82728 64.9267 7.98194 64.596 8.18461V6.71261C64.9693 6.50994 65.3747 6.36061 65.812 6.26461C66.26 6.15794 66.7133 6.10461 67.172 6.10461C68.1853 6.10461 68.964 6.36061 69.508 6.87261C70.0627 7.37394 70.34 8.08328 70.34 9.00061V13.3686C70.34 13.9126 70.1747 14.3499 69.844 14.6806C69.5133 15.0113 69.076 15.1766 68.532 15.1766ZM68.532 14.1366C68.7347 14.1366 68.8947 14.0779 69.012 13.9606C69.14 13.8326 69.204 13.6726 69.204 13.4806C69.204 13.2779 69.14 13.1179 69.012 13.0006C68.8947 12.8726 68.7347 12.8086 68.532 12.8086C68.3507 12.8086 68.196 12.8726 68.068 13.0006C67.94 13.1179 67.876 13.2779 67.876 13.4806C67.876 13.6726 67.9347 13.8326 68.052 13.9606C68.18 14.0779 68.34 14.1366 68.532 14.1366ZM72.828 15.0006V12.5366C72.828 12.1419 72.908 11.8166 73.068 11.5606C73.2387 11.2939 73.4893 11.1073 73.82 11.0006V10.9366C73.372 10.7873 73.004 10.4779 72.716 10.0086C72.428 9.52861 72.284 9.01128 72.284 8.45661C72.284 7.78461 72.4813 7.24061 72.876 6.82461C73.2813 6.40861 73.7987 6.20061 74.428 6.20061C74.972 6.20061 75.4093 6.35528 75.74 6.66461C76.0813 6.96328 76.252 7.35794 76.252 7.84861C76.252 8.30728 76.1027 8.68594 75.804 8.98461C75.516 9.27261 75.1427 9.41661 74.684 9.41661C74.396 9.41661 74.1507 9.34728 73.948 9.20861C74.044 9.51794 74.1933 9.74728 74.396 9.89661C74.6413 10.0673 75.004 10.1526 75.484 10.1526H76.668V11.3846H75.74C74.908 11.3846 74.492 11.7953 74.492 12.6166V13.5926H78.252V6.36061H79.932V15.0006H72.828ZM74.476 8.52061C74.6787 8.52061 74.8387 8.46194 74.956 8.34461C75.0733 8.21661 75.132 8.05661 75.132 7.86461C75.132 7.66194 75.0733 7.50194 74.956 7.38461C74.8387 7.25661 74.6787 7.19261 74.476 7.19261C74.284 7.19261 74.124 7.25661 73.996 7.38461C73.8787 7.50194 73.82 7.66194 73.82 7.86461C73.82 8.05661 73.8787 8.21661 73.996 8.34461C74.124 8.46194 74.284 8.52061 74.476 8.52061Z" fill="white"/>
<g id="GPay (Dark)">
<g id="GPay">
<g id="Pay">
<path id="Fill 1" fill-rule="evenodd" clip-rule="evenodd" d="M109.356 3.42339V8.16175H112.278C112.974 8.16175 113.55 7.92781 114.005 7.45993C114.473 6.99313 114.707 6.43644 114.707 5.79203C114.707 5.16061 114.473 4.61041 114.005 4.14254C113.55 3.66274 112.974 3.4223 112.278 3.4223H109.356V3.42339ZM109.356 9.82966V15.3262H107.611V1.75549H112.24C113.417 1.75549 114.415 2.14756 115.238 2.93061C116.073 3.71365 116.491 4.66782 116.491 5.79203C116.491 6.94224 116.073 7.90291 115.238 8.67296C114.428 9.44409 113.429 9.82858 112.24 9.82858H109.356V9.82966Z" fill="white"/>
<path id="Fill 3" fill-rule="evenodd" clip-rule="evenodd" d="M118.255 12.4831C118.255 12.9379 118.448 13.317 118.834 13.6203C119.22 13.9235 119.672 14.0752 120.19 14.0752C120.924 14.0752 121.578 13.8032 122.153 13.2607C122.729 12.717 123.017 12.0791 123.017 11.3469C122.472 10.917 121.713 10.7025 120.74 10.7025C120.031 10.7025 119.44 10.8736 118.966 11.2148C118.492 11.5559 118.255 11.9773 118.255 12.4831M120.513 5.73566C121.803 5.73566 122.821 6.08007 123.569 6.76889C124.314 7.45771 124.687 8.40213 124.687 9.60216V15.3261H123.018V14.0373H122.942C122.221 15.0985 121.259 15.6294 120.058 15.6294C119.033 15.6294 118.176 15.3261 117.487 14.7196C116.797 14.1131 116.453 13.3549 116.453 12.4452C116.453 11.4845 116.816 10.7208 117.543 10.1523C118.271 9.58375 119.241 9.2989 120.456 9.2989C121.492 9.2989 122.346 9.48844 123.017 9.86751V9.46894C123.017 8.86243 122.776 8.34798 122.296 7.92451C121.814 7.50103 121.252 7.28984 120.607 7.28984C119.633 7.28984 118.862 7.70032 118.293 8.52235L116.755 7.55519C117.603 6.34217 118.855 5.73566 120.513 5.73566" fill="white"/>
<path id="Fill 5" fill-rule="evenodd" clip-rule="evenodd" d="M134.269 6.03894L128.443 19.4201H126.641L128.804 14.738L124.971 6.03894H126.869L129.639 12.7106H129.677L132.371 6.03894H134.269Z" fill="white"/>
</g>
<g id="G">
<path id="Fill 8" fill-rule="evenodd" clip-rule="evenodd" d="M102.303 8.64473C102.303 8.09563 102.256 7.56601 102.168 7.05914H94.8065V10.0625H99.0231C98.842 11.0414 98.2944 11.8744 97.4639 12.4322V14.3828H99.9804C101.454 13.0246 102.303 11.0177 102.303 8.64473" fill="#4285F4"/>
<path id="Fill 10" fill-rule="evenodd" clip-rule="evenodd" d="M94.8065 16.2651C96.9131 16.2651 98.6869 15.5741 99.9804 14.3828L97.4639 12.4322C96.7635 12.9033 95.8614 13.1784 94.8065 13.1784C92.7703 13.1784 91.042 11.8073 90.424 9.95959H87.8316V11.9687C89.1164 14.516 91.7565 16.2651 94.8065 16.2651" fill="#34A853"/>
<path id="Fill 12" fill-rule="evenodd" clip-rule="evenodd" d="M90.424 9.9596C90.2657 9.48847 90.179 8.98593 90.179 8.46715C90.179 7.94837 90.2657 7.44583 90.424 6.9747V4.96564H87.8316C87.3003 6.01837 87 7.20756 87 8.46715C87 9.72674 87.3003 10.916 87.8316 11.9687L90.424 9.9596Z" fill="#FABB05"/>
<path id="Fill 14" fill-rule="evenodd" clip-rule="evenodd" d="M94.8065 3.75583C95.9568 3.75583 96.9879 4.15115 97.8011 4.92553V4.92661L100.029 2.70094C98.6761 1.44243 96.912 0.669128 94.8065 0.669128C91.7565 0.669128 89.1164 2.41826 87.8316 4.9656L90.424 6.97467C91.042 5.12698 92.7703 3.75583 94.8065 3.75583" fill="#E94235"/>
</g>
</g>
</g>
</g>
</svg>
