<svg width="175" height="21" viewBox="0 0 175 21" fill="none" xmlns="http://www.w3.org/2000/svg">
<g id="th_subscribe_with_Pay_NBG">
<path id="Left Text" d="M3.29575 15.1766C2.76241 15.1766 2.33041 15.0166 1.99975 14.6966C1.67975 14.3766 1.51975 13.9499 1.51975 13.4166V12.2806C1.51975 11.6939 1.65308 11.1873 1.91975 10.7606C2.19708 10.3233 2.58108 9.98728 3.07175 9.75261C3.57308 9.50728 4.15441 9.38461 4.81575 9.38461C5.15708 9.38461 5.49841 9.41661 5.83975 9.48061C6.18108 9.54461 6.49041 9.62994 6.76775 9.73661C6.88508 9.78994 6.99175 9.84328 7.08775 9.89661V9.57661C7.08775 8.94728 6.89041 8.44594 6.49575 8.07261C6.10108 7.69928 5.56775 7.51261 4.89575 7.51261C4.41575 7.51261 3.95708 7.61928 3.51975 7.83261C3.09308 8.03528 2.74108 8.31794 2.46375 8.68061L1.24775 7.83261C1.65308 7.26728 2.18108 6.84061 2.83175 6.55261C3.48241 6.25394 4.21308 6.10461 5.02375 6.10461C5.97308 6.10461 6.76775 6.33394 7.40775 6.79261L8.91175 5.56061L9.87175 6.69661L8.35175 7.86461C8.62908 8.36594 8.76775 8.93128 8.76775 9.56061V15.0006H7.08775V11.2246C6.84241 11.0646 6.53841 10.9366 6.17575 10.8406C5.81308 10.7446 5.45575 10.6966 5.10375 10.6966C4.49575 10.6966 4.02108 10.8299 3.67975 11.0966C3.38108 11.3206 3.21041 11.6193 3.16775 11.9926C3.25308 11.9819 3.33841 11.9766 3.42375 11.9766C3.90375 11.9766 4.29308 12.1259 4.59175 12.4246C4.90108 12.7126 5.05575 13.0859 5.05575 13.5446C5.05575 14.0246 4.89041 14.4193 4.55975 14.7286C4.22908 15.0273 3.80775 15.1766 3.29575 15.1766ZM3.31175 14.2006C3.51441 14.2006 3.67441 14.1366 3.79175 14.0086C3.91975 13.8806 3.98375 13.7259 3.98375 13.5446C3.98375 13.3419 3.91975 13.1819 3.79175 13.0646C3.67441 12.9473 3.51441 12.8886 3.31175 12.8886C3.13041 12.8886 2.97575 12.9473 2.84775 13.0646C2.71975 13.1819 2.65575 13.3419 2.65575 13.5446C2.65575 13.7259 2.71975 13.8806 2.84775 14.0086C2.97575 14.1366 3.13041 14.2006 3.31175 14.2006ZM17.2062 15.0006L14.4862 13.4326C14.4756 13.9339 14.2996 14.3499 13.9582 14.6806C13.6062 15.0113 13.1582 15.1766 12.6142 15.1766C12.0702 15.1766 11.6222 15.0059 11.2702 14.6646C10.9182 14.3233 10.7422 13.8806 10.7422 13.3366C10.7422 12.8033 10.9129 12.3659 11.2542 12.0246C11.6062 11.6833 12.0489 11.5126 12.5822 11.5126C12.6036 11.5126 12.6302 11.5126 12.6622 11.5126V9.52861C12.5769 9.53928 12.4916 9.54461 12.4062 9.54461C11.9156 9.54461 11.5102 9.38994 11.1902 9.08061C10.8702 8.76061 10.7102 8.36061 10.7102 7.88061C10.7102 7.38994 10.8809 6.98461 11.2222 6.66461C11.5636 6.34461 11.9956 6.18461 12.5182 6.18461C13.0622 6.18461 13.4942 6.34994 13.8142 6.68061C14.1342 7.01128 14.2942 7.44861 14.2942 7.99261V11.8006L17.0782 13.4006V6.36061H18.7582V15.0006H17.2062ZM12.6142 14.0886C12.8276 14.0886 12.9982 14.0193 13.1262 13.8806C13.2649 13.7419 13.3342 13.5606 13.3342 13.3366C13.3342 13.1126 13.2649 12.9313 13.1262 12.7926C12.9982 12.6539 12.8276 12.5846 12.6142 12.5846C12.4009 12.5846 12.2249 12.6539 12.0862 12.7926C11.9582 12.9313 11.8942 13.1126 11.8942 13.3366C11.8942 13.5606 11.9582 13.7419 12.0862 13.8806C12.2249 14.0193 12.4009 14.0886 12.6142 14.0886ZM12.4862 8.55261C12.6889 8.55261 12.8489 8.49394 12.9662 8.37661C13.0836 8.24861 13.1422 8.08861 13.1422 7.89661C13.1422 7.69394 13.0836 7.53394 12.9662 7.41661C12.8489 7.28861 12.6889 7.22461 12.4862 7.22461C12.2942 7.22461 12.1342 7.28861 12.0062 7.41661C11.8889 7.53394 11.8302 7.69394 11.8302 7.89661C11.8302 8.08861 11.8889 8.24861 12.0062 8.37661C12.1342 8.49394 12.2942 8.55261 12.4862 8.55261ZM17.456 5.38461C16.592 5.38461 15.8987 5.21394 15.376 4.87261C14.8533 4.52061 14.592 4.06194 14.592 3.49661C14.592 3.08061 14.7307 2.73928 15.008 2.47261C15.2853 2.19528 15.6427 2.05661 16.08 2.05661C16.5067 2.05661 16.8587 2.17928 17.136 2.42461C17.4133 2.66994 17.552 2.98994 17.552 3.38461C17.552 3.68328 17.4613 3.93394 17.28 4.13661C17.2587 4.16861 17.232 4.19528 17.2 4.21661C17.2747 4.22728 17.3547 4.23261 17.44 4.23261C17.9947 4.23261 18.4693 4.07794 18.864 3.76861C19.248 3.44861 19.5467 2.97394 19.76 2.34461L21.152 2.90461C20.864 3.70461 20.4107 4.31794 19.792 4.74461C19.1627 5.17128 18.384 5.38461 17.456 5.38461ZM16.08 4.00861C16.2293 4.00861 16.3573 3.95528 16.464 3.84861C16.5707 3.74194 16.624 3.61394 16.624 3.46461C16.624 3.30461 16.5707 3.17128 16.464 3.06461C16.3573 2.95794 16.2293 2.90461 16.08 2.90461C15.92 2.90461 15.7867 2.95794 15.68 3.06461C15.5733 3.17128 15.52 3.30461 15.52 3.46461C15.52 3.61394 15.5733 3.74194 15.68 3.84861C15.7867 3.95528 15.92 4.00861 16.08 4.00861ZM21.158 15.0006V9.89661C21.158 9.11794 21.3127 8.44594 21.622 7.88061C21.942 7.31528 22.39 6.87794 22.966 6.56861C23.5527 6.25928 24.2407 6.10461 25.03 6.10461C25.83 6.10461 26.5233 6.25928 27.11 6.56861C27.6967 6.87794 28.15 7.31528 28.47 7.88061C28.79 8.44594 28.95 9.11794 28.95 9.89661V15.0006H27.286V9.84861C27.286 9.12328 27.0887 8.55794 26.694 8.15261C26.2993 7.73661 25.7447 7.52861 25.03 7.52861C24.3367 7.52861 23.7873 7.73661 23.382 8.15261C22.9873 8.55794 22.79 9.12328 22.79 9.84861V11.2726C22.8753 11.0379 22.982 10.8139 23.11 10.6006C23.2487 10.3446 23.4087 10.1313 23.59 9.96061C24.0167 9.55528 24.5127 9.35261 25.078 9.35261C25.5473 9.35261 25.9313 9.49661 26.23 9.78461C26.5393 10.0726 26.694 10.4353 26.694 10.8726C26.694 11.2993 26.5393 11.6619 26.23 11.9606C25.9207 12.2486 25.542 12.3926 25.094 12.3926C24.7207 12.3926 24.4007 12.2966 24.134 12.1046C23.942 11.9553 23.8087 11.7793 23.734 11.5766C23.478 11.7793 23.2753 12.0353 23.126 12.3446C22.9127 12.7819 22.806 13.3046 22.806 13.9126V15.0006H21.158ZM25.062 11.5286C25.254 11.5286 25.4087 11.4699 25.526 11.3526C25.654 11.2246 25.718 11.0699 25.718 10.8886C25.718 10.6966 25.654 10.5419 25.526 10.4246C25.4087 10.2966 25.254 10.2326 25.062 10.2326C24.8807 10.2326 24.726 10.2966 24.598 10.4246C24.4807 10.5419 24.422 10.6966 24.422 10.8886C24.422 11.0699 24.4807 11.2246 24.598 11.3526C24.726 11.4699 24.8807 11.5286 25.062 11.5286ZM34.4809 15.1766C33.9582 15.1766 33.5315 15.0219 33.2009 14.7126C32.8702 14.4033 32.7049 14.0033 32.7049 13.5126C32.7049 13.0219 32.8649 12.6166 33.1849 12.2966C33.5155 11.9766 33.9262 11.8166 34.4169 11.8166C34.4809 11.8166 34.5449 11.8219 34.6089 11.8326V11.2086C34.6089 10.5153 34.2355 10.1686 33.4889 10.1686H30.6409V9.00061C30.6409 8.06194 30.9289 7.34728 31.5049 6.85661C32.0915 6.35528 32.9395 6.10461 34.0489 6.10461C34.4969 6.10461 34.9502 6.14728 35.4089 6.23261C35.8782 6.30728 36.2835 6.41394 36.6249 6.55261V7.97661C36.2622 7.83794 35.8462 7.72594 35.3769 7.64061C34.9075 7.54461 34.4755 7.49661 34.0809 7.49661C32.8862 7.49661 32.2889 7.93394 32.2889 8.80861V8.96861H34.0489C35.5422 8.96861 36.2889 9.65661 36.2889 11.0326V13.3686C36.2889 13.9126 36.1182 14.3499 35.7769 14.6806C35.4462 15.0113 35.0142 15.1766 34.4809 15.1766ZM34.4809 14.1366C34.6835 14.1366 34.8435 14.0779 34.9609 13.9606C35.0782 13.8326 35.1369 13.6726 35.1369 13.4806C35.1369 13.2779 35.0782 13.1179 34.9609 13.0006C34.8435 12.8726 34.6835 12.8086 34.4809 12.8086C34.2889 12.8086 34.1289 12.8726 34.0009 13.0006C33.8729 13.1179 33.8089 13.2779 33.8089 13.4806C33.8089 13.6726 33.8729 13.8326 34.0009 13.9606C34.1289 14.0779 34.2889 14.1366 34.4809 14.1366ZM41.3342 15.1926C40.7902 15.1926 40.3529 15.0273 40.0222 14.6966C39.6916 14.3659 39.5262 13.9286 39.5262 13.3846V7.06461C39.5262 6.65928 39.5902 6.29661 39.7182 5.97661C39.8569 5.64594 40.0222 5.34194 40.2142 5.06461C40.4062 4.78728 40.5982 4.52061 40.7902 4.26461C40.9929 3.99794 41.1582 3.73128 41.2862 3.46461C41.4249 3.19794 41.4942 2.91528 41.4942 2.61661C41.4942 2.20061 41.3609 1.85394 41.0942 1.57661C40.8276 1.29928 40.4702 1.16061 40.0222 1.16061C39.8622 1.16061 39.7022 1.17661 39.5422 1.20861C39.3929 1.24061 39.2756 1.28328 39.1902 1.33661V1.36861C39.6276 1.42194 39.9636 1.57661 40.1982 1.83261C40.4329 2.07794 40.5502 2.39261 40.5502 2.77661C40.5502 3.24594 40.3796 3.64061 40.0382 3.96061C39.7076 4.28061 39.2809 4.44061 38.7582 4.44061C38.2569 4.44061 37.8302 4.28061 37.4782 3.96061C37.1262 3.62994 36.9502 3.16594 36.9502 2.56861C36.9502 2.06728 37.0782 1.62461 37.3342 1.24061C37.5796 0.845943 37.9316 0.53661 38.3902 0.31261C38.8489 0.0779428 39.3822 -0.0393906 39.9902 -0.0393906C40.6409 -0.0393906 41.1849 0.0832761 41.6222 0.328609C42.0596 0.573943 42.3902 0.899276 42.6142 1.30461C42.8382 1.69928 42.9502 2.13661 42.9502 2.61661C42.9502 3.08594 42.8596 3.50728 42.6782 3.88061C42.5076 4.24328 42.3049 4.58994 42.0702 4.92061C41.8462 5.25128 41.6436 5.59261 41.4622 5.94461C41.2916 6.28594 41.2062 6.67528 41.2062 7.11261V11.8646C41.3022 11.8433 41.3982 11.8326 41.4942 11.8326C41.9636 11.8326 42.3529 11.9926 42.6622 12.3126C42.9716 12.6219 43.1262 13.0166 43.1262 13.4966C43.1262 13.9979 42.9556 14.4086 42.6142 14.7286C42.2836 15.0379 41.8569 15.1926 41.3342 15.1926ZM38.7902 3.48061C39.0036 3.48061 39.1796 3.41128 39.3182 3.27261C39.4569 3.12328 39.5262 2.94728 39.5262 2.74461C39.5262 2.53128 39.4569 2.35528 39.3182 2.21661C39.1796 2.07794 39.0036 2.00861 38.7902 2.00861C38.5876 2.00861 38.4116 2.07794 38.2622 2.21661C38.1236 2.35528 38.0542 2.53128 38.0542 2.74461C38.0542 2.94728 38.1236 3.12328 38.2622 3.27261C38.4116 3.41128 38.5876 3.48061 38.7902 3.48061ZM41.3502 14.1526C41.5529 14.1526 41.7129 14.0939 41.8302 13.9766C41.9582 13.8486 42.0222 13.6886 42.0222 13.4966C42.0222 13.2939 41.9582 13.1339 41.8302 13.0166C41.7129 12.8886 41.5529 12.8246 41.3502 12.8246C41.1689 12.8246 41.0142 12.8886 40.8862 13.0166C40.7582 13.1339 40.6942 13.2939 40.6942 13.4966C40.6942 13.6886 40.7582 13.8486 40.8862 13.9766C41.0142 14.0939 41.1689 14.1526 41.3502 14.1526ZM47.9554 15.2566C46.9847 15.2566 46.206 14.9846 45.6194 14.4406C45.0434 13.8859 44.7554 13.1393 44.7554 12.2006V11.5446C44.7554 11.1713 44.83 10.8246 44.9794 10.5046C45.1394 10.1739 45.3367 9.86994 45.5714 9.59261C45.6034 9.56061 45.63 9.52861 45.6514 9.49661C45.1714 9.49661 44.766 9.34728 44.4354 9.04861C44.094 8.74994 43.9234 8.35528 43.9234 7.86461C43.9234 7.37394 44.0887 6.97394 44.4194 6.66461C44.7607 6.34461 45.198 6.18461 45.7314 6.18461C46.254 6.18461 46.6807 6.33928 47.0114 6.64861C47.3527 6.95794 47.5234 7.40061 47.5234 7.97661C47.5234 8.31794 47.4647 8.62194 47.3474 8.88861C47.2407 9.14461 47.1127 9.39528 46.9634 9.64061C46.814 9.87528 46.686 10.1419 46.5794 10.4406C46.4727 10.7393 46.4194 11.1019 46.4194 11.5286V12.2486C46.4194 12.7393 46.5527 13.1233 46.8194 13.4006C47.0967 13.6779 47.4754 13.8166 47.9554 13.8166C48.446 13.8166 48.8247 13.6779 49.0914 13.4006C49.3687 13.1233 49.5074 12.7393 49.5074 12.2486V10.6966C49.5074 10.3233 49.4274 10.0353 49.2674 9.83261C49.1074 9.61928 48.8834 9.51261 48.5954 9.51261H48.3234V8.84061L50.2114 6.13661L51.4274 6.93661L50.0354 8.79261V8.82461C50.398 8.93128 50.6807 9.14461 50.8834 9.46461C51.086 9.77394 51.1874 10.1473 51.1874 10.5846V12.2006C51.1874 13.1393 50.894 13.8859 50.3074 14.4406C49.7314 14.9846 48.9474 15.2566 47.9554 15.2566ZM45.6994 8.55261C45.8914 8.55261 46.046 8.48861 46.1634 8.36061C46.2914 8.23261 46.3554 8.07261 46.3554 7.88061C46.3554 7.68861 46.2914 7.53394 46.1634 7.41661C46.046 7.28861 45.8914 7.22461 45.6994 7.22461C45.5074 7.22461 45.3474 7.28861 45.2194 7.41661C45.0914 7.53394 45.0274 7.68861 45.0274 7.88061C45.0274 8.07261 45.0914 8.23261 45.2194 8.36061C45.3474 8.48861 45.5074 8.55261 45.6994 8.55261ZM47.2539 5.27261V4.60061C47.4779 4.55794 47.6859 4.48861 47.8779 4.39261C48.0592 4.28594 48.2085 4.16328 48.3259 4.02461C48.2832 4.03528 48.2085 4.04061 48.1019 4.04061C47.8139 4.04061 47.5792 3.94994 47.3979 3.76861C47.2059 3.57661 47.1099 3.33661 47.1099 3.04861C47.1099 2.72861 47.2379 2.46728 47.4939 2.26461C47.7499 2.05128 48.0699 1.94461 48.4539 1.94461C48.8592 1.94461 49.1899 2.05128 49.4459 2.26461C49.6912 2.47794 49.8139 2.74994 49.8139 3.08061C49.8139 3.29394 49.7605 3.50728 49.6539 3.72061C49.5472 3.93394 49.4032 4.10994 49.2219 4.24861L49.2379 4.28061H49.4619C49.9952 4.28061 50.4539 4.10994 50.8379 3.76861C51.2112 3.41661 51.5045 2.89928 51.7179 2.21661L53.1099 2.77661C52.8219 3.57661 52.3685 4.19528 51.7499 4.63261C51.1312 5.05928 50.3792 5.27261 49.4939 5.27261H47.2539ZM48.4379 3.44861C48.5659 3.44861 48.6672 3.41128 48.7419 3.33661C48.8059 3.26194 48.8379 3.16594 48.8379 3.04861C48.8379 2.93128 48.8059 2.83528 48.7419 2.76061C48.6672 2.68594 48.5659 2.64861 48.4379 2.64861C48.3099 2.64861 48.2085 2.68594 48.1339 2.76061C48.0592 2.83528 48.0219 2.93128 48.0219 3.04861C48.0219 3.16594 48.0592 3.26194 48.1339 3.33661C48.2085 3.41128 48.3099 3.44861 48.4379 3.44861ZM54.5585 15.0006V9.52861C54.4838 9.53928 54.4092 9.54461 54.3345 9.54461C53.8438 9.54461 53.4385 9.38994 53.1185 9.08061C52.7985 8.76061 52.6385 8.36061 52.6385 7.88061C52.6385 7.38994 52.8092 6.98461 53.1505 6.66461C53.4918 6.34461 53.9238 6.18461 54.4465 6.18461C54.9905 6.18461 55.4225 6.34994 55.7425 6.68061C56.0625 7.01128 56.2225 7.44861 56.2225 7.99261V13.5926H59.7585V6.36061H61.4385V15.0006H54.5585ZM54.4145 8.55261C54.6172 8.55261 54.7772 8.49394 54.8945 8.37661C55.0118 8.24861 55.0705 8.08861 55.0705 7.89661C55.0705 7.69394 55.0118 7.53394 54.8945 7.41661C54.7772 7.28861 54.6172 7.22461 54.4145 7.22461C54.2225 7.22461 54.0625 7.28861 53.9345 7.41661C53.8172 7.53394 53.7585 7.69394 53.7585 7.89661C53.7585 8.08861 53.8172 8.24861 53.9345 8.37661C54.0625 8.49394 54.2225 8.55261 54.4145 8.55261ZM67.059 15.1766C66.5363 15.1766 66.1097 15.0219 65.779 14.7126C65.4483 14.4033 65.283 14.0033 65.283 13.5126C65.283 13.0219 65.443 12.6166 65.763 12.2966C66.0937 11.9766 66.5043 11.8166 66.995 11.8166C67.059 11.8166 67.123 11.8219 67.187 11.8326V11.2086C67.187 10.5153 66.8137 10.1686 66.067 10.1686H63.219V9.00061C63.219 8.06194 63.507 7.34728 64.083 6.85661C64.6697 6.35528 65.5177 6.10461 66.627 6.10461C67.075 6.10461 67.5283 6.14728 67.987 6.23261C68.4563 6.30728 68.8617 6.41394 69.203 6.55261V7.97661C68.8403 7.83794 68.4243 7.72594 67.955 7.64061C67.4857 7.54461 67.0537 7.49661 66.659 7.49661C65.4643 7.49661 64.867 7.93394 64.867 8.80861V8.96861H66.627C68.1203 8.96861 68.867 9.65661 68.867 11.0326V13.3686C68.867 13.9126 68.6963 14.3499 68.355 14.6806C68.0243 15.0113 67.5923 15.1766 67.059 15.1766ZM67.059 14.1366C67.2617 14.1366 67.4217 14.0779 67.539 13.9606C67.6563 13.8326 67.715 13.6726 67.715 13.4806C67.715 13.2779 67.6563 13.1179 67.539 13.0006C67.4217 12.8726 67.2617 12.8086 67.059 12.8086C66.867 12.8086 66.707 12.8726 66.579 13.0006C66.451 13.1179 66.387 13.2779 66.387 13.4806C66.387 13.6726 66.451 13.8326 66.579 13.9606C66.707 14.0779 66.867 14.1366 67.059 14.1366ZM62.8302 5.27261V5.16061C62.9262 4.59528 63.1236 4.10461 63.4222 3.68861C63.7209 3.26194 64.1049 2.93661 64.5742 2.71261C65.0436 2.47794 65.5662 2.36061 66.1422 2.36061C66.7182 2.36061 67.2409 2.47794 67.7102 2.71261C68.1689 2.93661 68.5529 3.26194 68.8622 3.68861C69.1609 4.10461 69.3582 4.59528 69.4542 5.16061V5.27261H62.8302ZM64.5262 4.34461H67.7422C67.6569 4.04594 67.4702 3.80594 67.1822 3.62461C66.8836 3.44328 66.5369 3.35261 66.1422 3.35261C65.7369 3.35261 65.3902 3.44328 65.1022 3.62461C64.8142 3.80594 64.6222 4.04594 64.5262 4.34461ZM71.8544 15.0006V10.5526L70.7664 8.96861V8.80861C71.193 7.93394 71.7744 7.26728 72.5104 6.80861C73.2464 6.33928 74.0837 6.10461 75.0224 6.10461C75.801 6.10461 76.4784 6.25394 77.0544 6.55261C77.6304 6.85128 78.073 7.27261 78.3824 7.81661C78.7024 8.36061 78.8624 9.00061 78.8624 9.73661V15.0006H77.1824V9.72061C77.1824 9.06994 76.9797 8.54728 76.5744 8.15261C76.169 7.74728 75.6304 7.54461 74.9584 7.54461C74.4464 7.54461 73.9664 7.66728 73.5184 7.91261C73.081 8.15794 72.7557 8.48861 72.5424 8.90461V8.95261L73.5344 10.4086V15.0006H71.8544ZM83.5996 15.0006V9.17661C83.5996 8.66461 83.4663 8.26461 83.1996 7.97661C82.933 7.68861 82.5596 7.54461 82.0796 7.54461C81.7916 7.54461 81.4716 7.59261 81.1196 7.68861C80.7783 7.77394 80.4743 7.88594 80.2076 8.02461V6.58461C80.4743 6.43528 80.8156 6.31794 81.2316 6.23261C81.6476 6.14728 82.037 6.10461 82.3996 6.10461C83.2956 6.10461 83.9996 6.37128 84.5116 6.90461C85.0236 7.42728 85.2796 8.15794 85.2796 9.09661V15.0006H83.5996ZM90.7996 15.1766C90.277 15.1766 89.8503 15.0219 89.5196 14.7126C89.189 14.4033 89.0236 14.0033 89.0236 13.5126C89.0236 13.0219 89.1836 12.6166 89.5036 12.2966C89.8343 11.9766 90.245 11.8166 90.7356 11.8166C90.7996 11.8166 90.8636 11.8219 90.9276 11.8326V11.2086C90.9276 10.5153 90.5543 10.1686 89.8076 10.1686H86.9596V9.00061C86.9596 8.06194 87.2476 7.34728 87.8236 6.85661C88.4103 6.35528 89.2583 6.10461 90.3676 6.10461C90.8156 6.10461 91.269 6.14728 91.7276 6.23261C92.197 6.30728 92.6023 6.41394 92.9436 6.55261V7.97661C92.581 7.83794 92.165 7.72594 91.6956 7.64061C91.2263 7.54461 90.7943 7.49661 90.3996 7.49661C89.205 7.49661 88.6076 7.93394 88.6076 8.80861V8.96861H90.3676C91.861 8.96861 92.6076 9.65661 92.6076 11.0326V13.3686C92.6076 13.9126 92.437 14.3499 92.0956 14.6806C91.765 15.0113 91.333 15.1766 90.7996 15.1766ZM90.7996 14.1366C91.0023 14.1366 91.1623 14.0779 91.2796 13.9606C91.397 13.8326 91.4556 13.6726 91.4556 13.4806C91.4556 13.2779 91.397 13.1179 91.2796 13.0006C91.1623 12.8726 91.0023 12.8086 90.7996 12.8086C90.6076 12.8086 90.4476 12.8726 90.3196 13.0006C90.1916 13.1179 90.1276 13.2779 90.1276 13.4806C90.1276 13.6726 90.1916 13.8326 90.3196 13.9606C90.4476 14.0779 90.6076 14.1366 90.7996 14.1366ZM94.933 15.0006V9.89661C94.933 9.11794 95.093 8.44594 95.413 7.88061C95.733 7.31528 96.1863 6.87794 96.773 6.56861C97.3597 6.25928 98.053 6.10461 98.853 6.10461C99.653 6.10461 100.346 6.25928 100.933 6.56861C101.53 6.87794 101.989 7.32061 102.309 7.89661C102.629 8.46194 102.789 9.13394 102.789 9.91261V15.0006H101.125V9.83261C101.125 9.10728 100.922 8.54194 100.517 8.13661C100.122 7.73128 99.5677 7.52861 98.853 7.52861C98.1277 7.52861 97.5623 7.73128 97.157 8.13661C96.7517 8.54194 96.549 9.10728 96.549 9.83261V13.3846L98.133 12.0246C97.9303 11.9606 97.7543 11.8539 97.605 11.7046C97.3383 11.4486 97.205 11.1126 97.205 10.6966C97.205 10.2593 97.3543 9.90194 97.653 9.62461C97.9623 9.33661 98.3517 9.19261 98.821 9.19261C99.2903 9.19261 99.669 9.33661 99.957 9.62461C100.245 9.90194 100.389 10.2699 100.389 10.7286C100.389 11.0593 100.288 11.3846 100.085 11.7046C99.893 12.0139 99.557 12.3819 99.077 12.8086L96.533 15.0006H94.933ZM98.789 11.3526C98.9703 11.3526 99.1197 11.2939 99.237 11.1766C99.365 11.0486 99.429 10.8939 99.429 10.7126C99.429 10.5206 99.3703 10.3659 99.253 10.2486C99.1357 10.1313 98.981 10.0726 98.789 10.0726C98.597 10.0726 98.4423 10.1313 98.325 10.2486C98.2077 10.3659 98.149 10.5206 98.149 10.7126C98.149 10.8939 98.2077 11.0486 98.325 11.1766C98.4423 11.2939 98.597 11.3526 98.789 11.3526ZM98.7039 5.27261V4.60061C98.9279 4.55794 99.1359 4.48861 99.3279 4.39261C99.5092 4.28594 99.6585 4.16328 99.7759 4.02461C99.7332 4.03528 99.6585 4.04061 99.5519 4.04061C99.2639 4.04061 99.0292 3.94994 98.8479 3.76861C98.6559 3.57661 98.5599 3.33661 98.5599 3.04861C98.5599 2.72861 98.6879 2.46728 98.9439 2.26461C99.1999 2.05128 99.5199 1.94461 99.9039 1.94461C100.309 1.94461 100.64 2.05128 100.896 2.26461C101.141 2.47794 101.264 2.74994 101.264 3.08061C101.264 3.29394 101.211 3.50728 101.104 3.72061C100.997 3.93394 100.853 4.10994 100.672 4.24861L100.688 4.28061H100.912C101.445 4.28061 101.904 4.10994 102.288 3.76861C102.661 3.41661 102.955 2.89928 103.168 2.21661L104.56 2.77661C104.272 3.57661 103.819 4.19528 103.2 4.63261C102.581 5.05928 101.829 5.27261 100.944 5.27261H98.7039ZM99.8879 3.44861C100.016 3.44861 100.117 3.41128 100.192 3.33661C100.256 3.26194 100.288 3.16594 100.288 3.04861C100.288 2.93128 100.256 2.83528 100.192 2.76061C100.117 2.68594 100.016 2.64861 99.8879 2.64861C99.7599 2.64861 99.6585 2.68594 99.5839 2.76061C99.5092 2.83528 99.4719 2.93128 99.4719 3.04861C99.4719 3.16594 99.5092 3.26194 99.5839 3.33661C99.6585 3.41128 99.7599 3.44861 99.8879 3.44861ZM108.532 15.1766C108.009 15.1766 107.583 15.0219 107.252 14.7126C106.921 14.4033 106.756 14.0033 106.756 13.5126C106.756 13.0219 106.921 12.6166 107.252 12.2966C107.583 11.9766 107.993 11.8166 108.484 11.8166C108.548 11.8166 108.607 11.8219 108.66 11.8326V9.08061C108.66 8.57928 108.505 8.20061 108.196 7.94461C107.887 7.67794 107.439 7.54461 106.852 7.54461C106.468 7.54461 106.079 7.60328 105.684 7.72061C105.289 7.82728 104.927 7.98194 104.596 8.18461V6.71261C104.969 6.50994 105.375 6.36061 105.812 6.26461C106.26 6.15794 106.713 6.10461 107.172 6.10461C108.185 6.10461 108.964 6.36061 109.508 6.87261C110.063 7.37394 110.34 8.08328 110.34 9.00061V13.3686C110.34 13.9126 110.175 14.3499 109.844 14.6806C109.513 15.0113 109.076 15.1766 108.532 15.1766ZM108.532 14.1366C108.735 14.1366 108.895 14.0779 109.012 13.9606C109.14 13.8326 109.204 13.6726 109.204 13.4806C109.204 13.2779 109.14 13.1179 109.012 13.0006C108.895 12.8726 108.735 12.8086 108.532 12.8086C108.351 12.8086 108.196 12.8726 108.068 13.0006C107.94 13.1179 107.876 13.2779 107.876 13.4806C107.876 13.6726 107.935 13.8326 108.052 13.9606C108.18 14.0779 108.34 14.1366 108.532 14.1366ZM112.828 15.0006V12.5366C112.828 12.1419 112.908 11.8166 113.068 11.5606C113.239 11.2939 113.489 11.1073 113.82 11.0006V10.9366C113.372 10.7873 113.004 10.4779 112.716 10.0086C112.428 9.52861 112.284 9.01128 112.284 8.45661C112.284 7.78461 112.481 7.24061 112.876 6.82461C113.281 6.40861 113.799 6.20061 114.428 6.20061C114.972 6.20061 115.409 6.35528 115.74 6.66461C116.081 6.96328 116.252 7.35794 116.252 7.84861C116.252 8.30728 116.103 8.68594 115.804 8.98461C115.516 9.27261 115.143 9.41661 114.684 9.41661C114.396 9.41661 114.151 9.34728 113.948 9.20861C114.044 9.51794 114.193 9.74728 114.396 9.89661C114.641 10.0673 115.004 10.1526 115.484 10.1526H116.668V11.3846H115.74C114.908 11.3846 114.492 11.7953 114.492 12.6166V13.5926H118.252V6.36061H119.932V15.0006H112.828ZM114.476 8.52061C114.679 8.52061 114.839 8.46194 114.956 8.34461C115.073 8.21661 115.132 8.05661 115.132 7.86461C115.132 7.66194 115.073 7.50194 114.956 7.38461C114.839 7.25661 114.679 7.19261 114.476 7.19261C114.284 7.19261 114.124 7.25661 113.996 7.38461C113.879 7.50194 113.82 7.66194 113.82 7.86461C113.82 8.05661 113.879 8.21661 113.996 8.34461C114.124 8.46194 114.284 8.52061 114.476 8.52061Z" fill="white"/>
<g id="GPay (Dark)">
<g id="GPay">
<g id="Pay">
<path id="Fill 1" fill-rule="evenodd" clip-rule="evenodd" d="M149.356 3.42339V8.16175H152.278C152.974 8.16175 153.55 7.92781 154.005 7.45993C154.473 6.99313 154.707 6.43644 154.707 5.79203C154.707 5.16061 154.473 4.61041 154.005 4.14254C153.55 3.66274 152.974 3.4223 152.278 3.4223H149.356V3.42339ZM149.356 9.82966V15.3262H147.611V1.75549H152.24C153.417 1.75549 154.415 2.14756 155.238 2.93061C156.073 3.71365 156.491 4.66782 156.491 5.79203C156.491 6.94224 156.073 7.90291 155.238 8.67296C154.428 9.44409 153.429 9.82858 152.24 9.82858H149.356V9.82966Z" fill="white"/>
<path id="Fill 3" fill-rule="evenodd" clip-rule="evenodd" d="M158.255 12.4831C158.255 12.9379 158.448 13.317 158.834 13.6203C159.22 13.9235 159.672 14.0752 160.19 14.0752C160.924 14.0752 161.578 13.8032 162.153 13.2607C162.729 12.717 163.017 12.0791 163.017 11.3469C162.472 10.917 161.713 10.7025 160.74 10.7025C160.031 10.7025 159.44 10.8736 158.966 11.2148C158.492 11.5559 158.255 11.9773 158.255 12.4831M160.513 5.73566C161.803 5.73566 162.821 6.08007 163.569 6.76889C164.314 7.45771 164.687 8.40213 164.687 9.60216V15.3261H163.018V14.0373H162.942C162.221 15.0985 161.259 15.6294 160.058 15.6294C159.033 15.6294 158.176 15.3261 157.487 14.7196C156.797 14.1131 156.453 13.3549 156.453 12.4452C156.453 11.4845 156.816 10.7208 157.543 10.1523C158.271 9.58375 159.241 9.2989 160.456 9.2989C161.492 9.2989 162.346 9.48844 163.017 9.86751V9.46894C163.017 8.86243 162.776 8.34798 162.296 7.92451C161.814 7.50103 161.252 7.28984 160.607 7.28984C159.633 7.28984 158.862 7.70032 158.293 8.52235L156.755 7.55519C157.603 6.34217 158.855 5.73566 160.513 5.73566" fill="white"/>
<path id="Fill 5" fill-rule="evenodd" clip-rule="evenodd" d="M174.269 6.03894L168.443 19.4201H166.641L168.804 14.738L164.971 6.03894H166.869L169.639 12.7106H169.677L172.371 6.03894H174.269Z" fill="white"/>
</g>
<g id="G">
<path id="Fill 8" fill-rule="evenodd" clip-rule="evenodd" d="M142.303 8.64473C142.303 8.09563 142.256 7.56601 142.168 7.05914H134.806V10.0625H139.023C138.842 11.0414 138.294 11.8744 137.464 12.4322V14.3828H139.98C141.454 13.0246 142.303 11.0177 142.303 8.64473" fill="#4285F4"/>
<path id="Fill 10" fill-rule="evenodd" clip-rule="evenodd" d="M134.806 16.2651C136.913 16.2651 138.687 15.5741 139.98 14.3828L137.464 12.4322C136.763 12.9033 135.861 13.1784 134.806 13.1784C132.77 13.1784 131.042 11.8073 130.424 9.95959H127.832V11.9687C129.116 14.516 131.757 16.2651 134.806 16.2651" fill="#34A853"/>
<path id="Fill 12" fill-rule="evenodd" clip-rule="evenodd" d="M130.424 9.9596C130.266 9.48847 130.179 8.98593 130.179 8.46715C130.179 7.94837 130.266 7.44583 130.424 6.9747V4.96564H127.832C127.3 6.01837 127 7.20756 127 8.46715C127 9.72674 127.3 10.916 127.832 11.9687L130.424 9.9596Z" fill="#FABB05"/>
<path id="Fill 14" fill-rule="evenodd" clip-rule="evenodd" d="M134.806 3.75583C135.957 3.75583 136.988 4.15115 137.801 4.92553V4.92661L140.029 2.70094C138.676 1.44243 136.912 0.669128 134.806 0.669128C131.757 0.669128 129.116 2.41826 127.832 4.9656L130.424 6.97467C131.042 5.12698 132.77 3.75583 134.806 3.75583" fill="#E94235"/>
</g>
</g>
</g>
</g>
</svg>
