<svg width="210" height="38" viewBox="0 0 210 38" fill="none" xmlns="http://www.w3.org/2000/svg">
<g id="th_subscribe_with_Dark">
<path id="Text" d="M6.67019 28.28C5.04619 28.28 3.79552 27.9067 2.91819 27.16C2.05952 26.3947 1.63019 25.3027 1.63019 23.884C1.63019 22.3533 2.18085 21.1587 3.28219 20.3C4.38352 19.4413 6.18485 18.9373 8.68619 18.788L11.4302 18.592V17.864C11.4302 16.744 11.1689 15.9507 10.6462 15.484C10.1235 14.9987 9.25552 14.756 8.04219 14.756C7.09019 14.756 6.17552 14.8867 5.29819 15.148C4.42085 15.4093 3.61819 15.7547 2.89019 16.184V13.524C3.43152 13.244 4.16885 12.9827 5.10219 12.74C6.05419 12.4787 7.12752 12.348 8.32219 12.348C9.06885 12.348 9.74085 12.4133 10.3382 12.544C10.9355 12.656 11.4302 12.8707 11.8222 13.188C12.1022 13.02 12.3355 12.8147 12.5222 12.572C12.7089 12.3107 12.8022 12.0027 12.8022 11.648H15.6022C15.6022 12.3387 15.4155 12.9453 15.0422 13.468C14.6689 13.9907 14.1649 14.4013 13.5302 14.7C13.8289 15.0547 14.0435 15.4933 14.1742 16.016C14.3235 16.5387 14.3982 17.136 14.3982 17.808V28H11.4302V20.972L9.05019 21.14C7.38885 21.2707 6.23152 21.5507 5.57819 21.98C4.94352 22.3907 4.62619 22.9973 4.62619 23.8C4.62619 24.5653 4.86885 25.1253 5.35419 25.48C5.83952 25.8347 6.50219 26.012 7.34219 26.012C7.88352 26.012 8.39685 25.9373 8.88219 25.788L9.24619 27.888C8.51819 28.1493 7.65952 28.28 6.67019 28.28ZM26.9637 28.28C25.7317 28.28 24.6864 28.0373 23.8277 27.552C22.9877 27.0667 22.409 26.404 22.0917 25.564H21.9237L21.6997 28H19.3197V12.656H22.3157V21.084C22.3157 22.5587 22.6517 23.7067 23.3237 24.528C23.9957 25.3307 24.9477 25.732 26.1797 25.732C28.1957 25.732 29.2037 24.64 29.2037 22.456V12.656H32.1997V22.848C32.1997 24.6773 31.7424 26.04 30.8277 26.936C29.9131 27.832 28.6251 28.28 26.9637 28.28ZM28.7985 10.304C27.5851 10.304 26.7358 10.0613 26.2505 9.576C25.7651 9.072 25.5225 8.512 25.5225 7.896C25.5225 7.59733 25.5691 7.28 25.6625 6.944C25.7371 6.608 25.8491 6.31867 25.9985 6.076L28.3785 6.44C28.3411 6.53333 28.3038 6.664 28.2665 6.832C28.2291 7 28.2105 7.15867 28.2105 7.308C28.2105 7.55067 28.2851 7.756 28.4345 7.924C28.5838 8.092 28.8451 8.176 29.2185 8.176H35.9945V10.304H28.7985ZM37.141 28V18.396C37.141 16.4547 37.6637 14.9613 38.709 13.916C39.7544 12.8707 41.4157 12.348 43.693 12.348C45.989 12.348 47.6504 12.8707 48.677 13.916C49.7224 14.9613 50.245 16.4547 50.245 18.396V28H47.249V18.396C47.249 16.0067 46.0544 14.812 43.665 14.812C41.2944 14.812 40.109 16.0067 40.109 18.396V21.308L40.193 21.336C40.585 20.608 41.061 20.132 41.621 19.908C42.1997 19.6653 42.993 19.544 44.001 19.544H44.869V21.896H44.001C42.937 21.896 42.125 22.0547 41.565 22.372C41.005 22.6893 40.6224 23.1093 40.417 23.632C40.2117 24.1547 40.109 24.724 40.109 25.34V28H37.141ZM59.4783 28.308C58.377 28.308 57.3223 28.196 56.3143 27.972C55.325 27.748 54.4757 27.468 53.7663 27.132L54.6343 24.724C55.213 24.9667 55.9223 25.2187 56.7623 25.48C57.621 25.7413 58.517 25.872 59.4503 25.872C60.365 25.872 61.1117 25.7133 61.6903 25.396C62.269 25.06 62.5583 24.5747 62.5583 23.94C62.5583 23.3613 62.2877 22.8853 61.7463 22.512C61.205 22.1387 60.3837 21.7747 59.2823 21.42C57.5837 20.8787 56.277 20.2627 55.3623 19.572C54.4663 18.8627 54.0183 17.8453 54.0183 16.52C54.0183 15.2507 54.5223 14.2427 55.5303 13.496C56.557 12.7307 58.0877 12.348 60.1223 12.348C61.0557 12.348 61.9237 12.432 62.7263 12.6C63.5477 12.768 64.1823 12.9827 64.6303 13.244V15.708C64.145 15.484 63.4823 15.2693 62.6423 15.064C61.821 14.8587 60.981 14.756 60.1223 14.756C59.0023 14.756 58.1997 14.924 57.7143 15.26C57.2477 15.5773 57.0143 15.96 57.0143 16.408C57.0143 16.9867 57.2943 17.4347 57.8543 17.752C58.433 18.0693 59.4037 18.4613 60.7663 18.928C61.6997 19.2453 62.521 19.6 63.2303 19.992C63.9583 20.384 64.5277 20.8787 64.9383 21.476C65.349 22.0547 65.5543 22.8013 65.5543 23.716C65.5543 24.5187 65.3583 25.2747 64.9663 25.984C64.593 26.6747 63.9583 27.2347 63.0623 27.664C62.185 28.0933 60.9903 28.308 59.4783 28.308ZM74.4243 28.28C72.9123 28.28 71.7176 27.9347 70.8403 27.244C69.9816 26.5533 69.375 25.62 69.0203 24.444C68.6656 23.268 68.4883 21.9427 68.4883 20.468C68.4883 18.34 68.787 16.688 69.3843 15.512C69.9816 14.336 70.8123 13.5147 71.8763 13.048C72.9403 12.5813 74.1723 12.348 75.5723 12.348C77.9056 12.348 79.5856 12.8427 80.6123 13.832C81.639 14.8213 82.1523 16.156 82.1523 17.836V28H79.1563V18.116C79.1563 17.0333 78.8856 16.212 78.3443 15.652C77.8216 15.092 76.9163 14.812 75.6283 14.812C74.8256 14.812 74.1163 14.9613 73.5003 15.26C72.8843 15.5587 72.399 16.1187 72.0443 16.94C71.6896 17.7427 71.5123 18.9187 71.5123 20.468C71.5123 21.4947 71.615 22.4093 71.8203 23.212C72.0256 24.0147 72.371 24.6493 72.8563 25.116C73.3603 25.5827 74.051 25.816 74.9283 25.816C75.451 25.816 75.9083 25.7507 76.3003 25.62L76.5803 27.916C76.2816 28.0467 75.9363 28.14 75.5443 28.196C75.1523 28.252 74.779 28.28 74.4243 28.28ZM74.1129 10.332V9.044C74.4489 8.96933 74.8036 8.86667 75.1769 8.736C75.5502 8.58667 75.8676 8.4 76.1289 8.176C76.3716 7.952 76.4929 7.66267 76.4929 7.308C76.4929 7.06533 76.4276 6.86933 76.2969 6.72C76.1476 6.57067 75.9329 6.496 75.6529 6.496C75.4662 6.496 75.2889 6.53333 75.1209 6.608C74.9342 6.664 74.7662 6.72 74.6169 6.776L74.0569 5.152C74.4302 4.85333 74.8596 4.65733 75.3449 4.564C75.8302 4.452 76.2316 4.396 76.5489 4.396C77.3142 4.396 77.9209 4.60133 78.3689 5.012C78.7982 5.42267 79.0129 5.964 79.0129 6.636C79.0129 7.196 78.8262 7.7 78.4529 8.148H82.9329V10.332H74.1129ZM90.4549 28.308C89.6709 28.308 88.9149 28.224 88.1869 28.056C87.4589 27.888 86.7123 27.5987 85.9469 27.188L86.8429 24.948C87.2536 25.1907 87.7296 25.4053 88.2709 25.592C88.8123 25.76 89.4096 25.844 90.0629 25.844C91.3323 25.844 92.3309 25.3773 93.0589 24.444C93.7869 23.492 94.1509 22.1013 94.1509 20.272C94.1509 18.4987 93.7776 17.1453 93.0309 16.212C92.2843 15.2787 91.1456 14.812 89.6149 14.812C89.0176 14.812 88.4016 14.8867 87.7669 15.036C87.1509 15.1667 86.6096 15.3627 86.1429 15.624V13.132C86.6843 12.852 87.2909 12.656 87.9629 12.544C88.6536 12.4133 89.3443 12.348 90.0349 12.348C91.7336 12.348 93.1056 12.6747 94.1509 13.328C95.2149 13.9813 95.9896 14.9053 96.4749 16.1C96.9789 17.276 97.2309 18.6667 97.2309 20.272C97.2309 22.792 96.6523 24.7613 95.4949 26.18C94.3563 27.5987 92.6763 28.308 90.4549 28.308ZM107.416 28.28C105.083 28.28 103.431 27.8507 102.46 26.992C101.49 26.1147 101.004 24.9573 101.004 23.52C101.004 22.6613 101.126 21.98 101.368 21.476C101.63 20.972 101.956 20.5893 102.348 20.328C102.74 20.0667 103.142 19.8987 103.552 19.824V19.712C103.16 19.6 102.759 19.4133 102.348 19.152C101.956 18.8907 101.62 18.5267 101.34 18.06C101.079 17.5933 100.948 17.0053 100.948 16.296C100.948 15.6427 101.098 15.0267 101.396 14.448C101.714 13.8507 102.208 13.3653 102.88 12.992C103.571 12.6187 104.486 12.432 105.624 12.432C106.11 12.432 106.604 12.4693 107.108 12.544C107.612 12.6187 108.004 12.7307 108.284 12.88L107.78 15.064C107.594 15.008 107.342 14.952 107.024 14.896C106.707 14.84 106.39 14.812 106.072 14.812C105.363 14.812 104.831 14.98 104.476 15.316C104.14 15.652 103.972 16.0907 103.972 16.632C103.972 17.2293 104.122 17.6867 104.42 18.004C104.719 18.3027 105.102 18.508 105.568 18.62C106.054 18.732 106.548 18.788 107.052 18.788H107.612V20.832H107.052C106.026 20.832 105.27 21.0187 104.784 21.392C104.299 21.7653 104.056 22.372 104.056 23.212C104.056 23.6787 104.15 24.1173 104.336 24.528C104.542 24.9387 104.887 25.2747 105.372 25.536C105.858 25.7787 106.548 25.9 107.444 25.9C108.751 25.9 109.647 25.6293 110.132 25.088C110.618 24.5467 110.86 23.8187 110.86 22.904V12.656H113.856V22.736C113.856 24.6773 113.334 26.0867 112.288 26.964C111.262 27.8413 109.638 28.28 107.416 28.28Z" fill="white"/>
<g id="GPay Logo (Dark)">
<g id="GPay">
<g id="Pay">
<path id="Fill 1" fill-rule="evenodd" clip-rule="evenodd" d="M166.529 9.34665V17.5128H171.565C172.765 17.5128 173.757 17.1096 174.541 16.3032C175.347 15.4988 175.75 14.5394 175.75 13.4288C175.75 12.3406 175.347 11.3924 174.541 10.586C173.757 9.75916 172.765 9.34479 171.565 9.34479H166.529V9.34665ZM166.529 20.3872V29.8599H163.521V6.47218H171.499C173.527 6.47218 175.248 7.14787 176.666 8.49738C178.105 9.84688 178.824 11.4913 178.824 13.4288C178.824 15.411 178.105 17.0667 176.666 18.3938C175.27 19.7227 173.547 20.3854 171.499 20.3854H166.529V20.3872Z" fill="white"/>
<path id="Fill 3" fill-rule="evenodd" clip-rule="evenodd" d="M181.864 24.9602C181.864 25.7442 182.197 26.3975 182.862 26.9201C183.527 27.4427 184.306 27.704 185.2 27.704C186.465 27.704 187.591 27.2354 188.584 26.3004C189.576 25.3634 190.071 24.264 190.071 23.0022C189.133 22.2612 187.825 21.8916 186.147 21.8916C184.925 21.8916 183.907 22.1866 183.09 22.7745C182.273 23.3623 181.864 24.0886 181.864 24.9602ZM185.756 13.3317C187.98 13.3317 189.735 13.9253 191.022 15.1124C192.308 16.2995 192.95 17.9271 192.95 19.9952V29.8599H190.073V27.6387H189.942C188.699 29.4677 187.042 30.3825 184.972 30.3825C183.206 30.3825 181.728 29.8599 180.541 28.8146C179.353 27.7694 178.759 26.4628 178.759 24.8949C178.759 23.2393 179.385 21.9232 180.638 20.9434C181.892 19.9635 183.565 19.4726 185.658 19.4726C187.444 19.4726 188.916 19.7993 190.071 20.4525V19.7657C190.071 18.7204 189.656 17.8338 188.829 17.104C187.999 16.3742 187.031 16.0102 185.919 16.0102C184.239 16.0102 182.911 16.7176 181.93 18.1343L179.28 16.4675C180.741 14.377 182.899 13.3317 185.756 13.3317Z" fill="white"/>
<path id="Fill 5" fill-rule="evenodd" clip-rule="evenodd" d="M209.463 13.8543L199.424 36.9154H196.318L200.046 28.8464L193.44 13.8543H196.71L201.484 25.3522H201.55L206.193 13.8543H209.463Z" fill="white"/>
</g>
<g id="G">
<path id="Fill 8" fill-rule="evenodd" clip-rule="evenodd" d="M154.373 18.3452C154.373 17.3989 154.293 16.4861 154.141 15.6126H141.454V20.7885H148.72C148.408 22.4757 147.465 23.9112 146.033 24.8725V28.2341H150.37C152.91 25.8935 154.373 22.4348 154.373 18.3452Z" fill="#4285F4"/>
<path id="Fill 10" fill-rule="evenodd" clip-rule="evenodd" d="M141.454 31.4782C145.084 31.4782 148.141 30.2873 150.37 28.2341L146.033 24.8725C144.826 25.6844 143.272 26.1585 141.454 26.1585C137.944 26.1585 134.966 23.7955 133.901 20.6112H129.433V24.0736C131.647 28.4637 136.197 31.4782 141.454 31.4782Z" fill="#34A853"/>
<path id="Fill 12" fill-rule="evenodd" clip-rule="evenodd" d="M133.901 20.6111C133.628 19.7992 133.479 18.9331 133.479 18.0391C133.479 17.145 133.628 16.2789 133.901 15.467V12.0045H129.433C128.518 13.8188 128 15.8683 128 18.0391C128 20.2098 128.518 22.2595 129.433 24.0736L133.901 20.6111Z" fill="#FABB05"/>
<path id="Fill 14" fill-rule="evenodd" clip-rule="evenodd" d="M141.454 9.91964C143.436 9.91964 145.213 10.6009 146.615 11.9355V11.9374L150.455 8.10163C148.123 5.93272 145.082 4.60001 141.454 4.60001C136.197 4.60001 131.647 7.61447 129.433 12.0046L133.901 15.467C134.966 12.2827 137.944 9.91964 141.454 9.91964Z" fill="#E94235"/>
</g>
</g>
</g>
</g>
</svg>
