<svg width="140" height="38" viewBox="0 0 140 38" fill="none" xmlns="http://www.w3.org/2000/svg">
<g id="th_view_in_Light">
<path id="Text" d="M9.45556 28.28C7.94356 28.28 6.74889 27.9347 5.87156 27.244C5.01289 26.5533 4.40623 25.62 4.05156 24.444C3.69689 23.268 3.51956 21.9427 3.51956 20.468C3.51956 18.34 3.81823 16.688 4.41556 15.512C5.01289 14.336 5.84356 13.5147 6.90756 13.048C7.97156 12.5813 9.20356 12.348 10.6036 12.348C12.9369 12.348 14.6169 12.8427 15.6436 13.832C16.6702 14.8213 17.1836 16.156 17.1836 17.836V28H14.1876V18.116C14.1876 17.0333 13.9169 16.212 13.3756 15.652C12.8529 15.092 11.9476 14.812 10.6596 14.812C9.85689 14.812 9.14756 14.9613 8.53156 15.26C7.91556 15.5587 7.43023 16.1187 7.07556 16.94C6.72089 17.7427 6.54356 18.9187 6.54356 20.468C6.54356 21.4947 6.64623 22.4093 6.85156 23.212C7.05689 24.0147 7.40223 24.6493 7.88756 25.116C8.39156 25.5827 9.08223 25.816 9.95956 25.816C10.4822 25.816 10.9396 25.7507 11.3316 25.62L11.6116 27.916C11.3129 28.0467 10.9676 28.14 10.5756 28.196C10.1836 28.252 9.81023 28.28 9.45556 28.28ZM13.6443 35.42C12.3563 35.42 11.3949 35.1867 10.7603 34.72C10.1069 34.2533 9.78028 33.6 9.78028 32.76V32.284C9.78028 31.9667 9.70561 31.7707 9.55628 31.696C9.38828 31.64 9.16428 31.6493 8.88428 31.724L8.68828 29.988C8.94961 29.8947 9.23895 29.8387 9.55628 29.82C9.85495 29.8013 10.0883 29.792 10.2563 29.792C10.9656 29.792 11.4789 29.9413 11.7963 30.24C12.0949 30.5387 12.2443 30.9587 12.2443 31.5V32.368C12.2443 32.7227 12.3469 33.0027 12.5523 33.208C12.7576 33.432 13.1029 33.544 13.5883 33.544C14.0923 33.544 14.4469 33.432 14.6523 33.208C14.8389 33.0027 14.9323 32.7227 14.9323 32.368V29.876H17.4803V32.592C17.4803 34.4773 16.2016 35.42 13.6443 35.42ZM25.6542 28.28C24.7209 28.28 23.9369 28.056 23.3022 27.608C22.6675 27.1413 22.3502 26.32 22.3502 25.144V14.364C22.3502 13.86 22.3875 13.4493 22.4622 13.132C22.5555 12.796 22.7049 12.4787 22.9102 12.18C23.1155 11.8627 23.4049 11.4707 23.7782 11.004C24.2075 10.4813 24.5342 10.0427 24.7582 9.688C25.0009 9.31467 25.1222 8.91333 25.1222 8.484C25.1222 7.43867 24.4689 6.916 23.1622 6.916C22.6022 6.916 22.0889 7 21.6222 7.168C21.1742 7.31733 20.8009 7.48533 20.5022 7.672V5.264C20.7635 5.11467 21.1835 4.96533 21.7622 4.816C22.3409 4.648 23.0315 4.564 23.8342 4.564C25.1409 4.564 26.1862 4.85333 26.9702 5.432C27.7542 5.992 28.1462 6.85067 28.1462 8.008C28.1462 8.75467 27.9969 9.408 27.6982 9.968C27.4182 10.528 27.1009 11.032 26.7462 11.48C26.4289 11.8907 26.1675 12.236 25.9622 12.516C25.7569 12.7773 25.5982 13.0573 25.4862 13.356C25.3929 13.636 25.3462 14 25.3462 14.448V24.78C25.3462 25.5453 25.7102 25.928 26.4382 25.928C26.6249 25.928 26.8022 25.9093 26.9702 25.872C27.1569 25.8347 27.3249 25.788 27.4742 25.732L27.8382 27.832C27.4835 28 27.1195 28.112 26.7462 28.168C26.3915 28.2427 26.0275 28.28 25.6542 28.28ZM36.0027 28.28C34.3414 28.28 33.044 27.832 32.1107 26.936C31.196 26.04 30.7387 24.6493 30.7387 22.764V12.656H33.7347V22.456C33.7347 24.64 34.752 25.732 36.7867 25.732C38 25.732 38.9334 25.3307 39.5867 24.528C40.2587 23.7067 40.5947 22.5587 40.5947 21.084V12.656H43.5907V28H41.2107L40.9867 25.704H40.8187C40.4827 26.4507 39.9134 27.0667 39.1107 27.552C38.308 28.0373 37.272 28.28 36.0027 28.28Z" fill="#3C4043"/>
<g id="GPay Logo (Light)">
<g id="GPay">
<g id="Pay">
<path id="Fill 1" fill-rule="evenodd" clip-rule="evenodd" d="M96.5289 9.44664V17.6128H101.565C102.765 17.6128 103.757 17.2096 104.541 16.4032C105.347 15.5988 105.75 14.6394 105.75 13.5288C105.75 12.4406 105.347 11.4924 104.541 10.686C103.757 9.85915 102.765 9.44478 101.565 9.44478H96.5289V9.44664ZM96.5289 20.4872V29.9599H93.5205V6.57217H101.499C103.527 6.57217 105.248 7.24786 106.666 8.59737C108.105 9.94688 108.824 11.5913 108.824 13.5288C108.824 15.511 108.105 17.1667 106.666 18.4938C105.27 19.8227 103.547 20.4854 101.499 20.4854H96.5289V20.4872Z" fill="#5F6368"/>
<path id="Fill 3" fill-rule="evenodd" clip-rule="evenodd" d="M111.864 25.0602C111.864 25.8442 112.197 26.4975 112.862 27.0201C113.527 27.5427 114.306 27.804 115.2 27.804C116.465 27.804 117.591 27.3354 118.584 26.4004C119.576 25.4634 120.071 24.364 120.071 23.1022C119.133 22.3612 117.825 21.9916 116.147 21.9916C114.925 21.9916 113.907 22.2865 113.09 22.8745C112.273 23.4623 111.864 24.1886 111.864 25.0602ZM115.756 13.4317C117.98 13.4317 119.735 14.0252 121.022 15.2124C122.308 16.3995 122.95 18.0271 122.95 20.0952V29.9599H120.073V27.7387H119.942C118.699 29.5677 117.042 30.4825 114.972 30.4825C113.206 30.4825 111.728 29.9599 110.541 28.9146C109.353 27.8694 108.759 26.5628 108.759 24.9949C108.759 23.3393 109.385 22.0232 110.638 21.0434C111.892 20.0635 113.565 19.5726 115.658 19.5726C117.444 19.5726 118.916 19.8992 120.071 20.5525V19.8656C120.071 18.8204 119.656 17.9338 118.829 17.204C117.999 16.4741 117.031 16.1102 115.919 16.1102C114.239 16.1102 112.911 16.8176 111.93 18.2343L109.28 16.5675C110.741 14.4769 112.899 13.4317 115.756 13.4317Z" fill="#5F6368"/>
<path id="Fill 5" fill-rule="evenodd" clip-rule="evenodd" d="M139.463 13.9543L129.424 37.0154H126.318L130.046 28.9464L123.44 13.9543H126.71L131.484 25.4522H131.55L136.193 13.9543H139.463Z" fill="#5F6368"/>
</g>
<g id="G">
<path id="Fill 8" fill-rule="evenodd" clip-rule="evenodd" d="M84.3729 18.4452C84.3729 17.4989 84.2926 16.5861 84.1412 15.7126H71.4536V20.8885H78.7205C78.4084 22.5757 77.4648 24.0112 76.0335 24.9725V28.3341H80.3704C82.9098 25.9935 84.3729 22.5348 84.3729 18.4452Z" fill="#4285F4"/>
<path id="Fill 10" fill-rule="evenodd" clip-rule="evenodd" d="M71.4536 31.5782C75.0843 31.5782 78.1412 30.3873 80.3704 28.3341L76.0335 24.9725C74.8264 25.7844 73.2717 26.2585 71.4536 26.2585C67.9444 26.2585 64.9659 23.8955 63.9009 20.7112H59.4331V24.1736C61.6474 28.5637 66.1973 31.5782 71.4536 31.5782Z" fill="#34A853"/>
<path id="Fill 12" fill-rule="evenodd" clip-rule="evenodd" d="M63.9009 20.7111C63.6281 19.8992 63.4787 19.0331 63.4787 18.139C63.4787 17.245 63.6281 16.3789 63.9009 15.567V12.1045H59.4332C58.5176 13.9188 58 15.9683 58 18.139C58 20.3098 58.5176 22.3595 59.4332 24.1736L63.9009 20.7111Z" fill="#FABB05"/>
<path id="Fill 14" fill-rule="evenodd" clip-rule="evenodd" d="M71.4536 10.0196C73.4362 10.0196 75.2132 10.7009 76.6146 12.0355V12.0374L80.4545 8.20162C78.1226 6.03271 75.0824 4.7 71.4536 4.7C66.1973 4.7 61.6474 7.71446 59.4331 12.1046L63.9009 15.567C64.9659 12.3827 67.9444 10.0196 71.4536 10.0196Z" fill="#E94235"/>
</g>
</g>
</g>
</g>
</svg>
