<svg width="170" height="21" viewBox="0 0 170 21" fill="none" xmlns="http://www.w3.org/2000/svg">
<g id="fi_add_to_Pay_NBG">
<path id="Left Text" d="M2.0085 15.0006V3.54461H3.7685V13.3366H8.6965V15.0006H2.0085ZM10.4829 15.0006V6.84061H12.2109V15.0006H10.4829ZM11.3469 5.64061C11.0269 5.64061 10.7495 5.52861 10.5149 5.30461C10.2909 5.06994 10.1789 4.79261 10.1789 4.47261C10.1789 4.14194 10.2909 3.86994 10.5149 3.65661C10.7495 3.43261 11.0269 3.32061 11.3469 3.32061C11.6775 3.32061 11.9549 3.43261 12.1789 3.65661C12.4029 3.86994 12.5149 4.14194 12.5149 4.47261C12.5149 4.79261 12.4029 5.06994 12.1789 5.30461C11.9549 5.52861 11.6775 5.64061 11.3469 5.64061ZM17.4809 15.2566C16.8302 15.2566 16.2649 15.1606 15.7849 14.9686C15.3049 14.7659 14.9102 14.4993 14.6009 14.1686C14.2915 13.8273 14.0622 13.4593 13.9129 13.0646L15.4649 12.3926C15.6569 12.8299 15.9289 13.1659 16.2809 13.4006C16.6435 13.6246 17.0595 13.7366 17.5289 13.7366C17.9555 13.7366 18.3235 13.6619 18.6329 13.5126C18.9422 13.3526 19.0969 13.0966 19.0969 12.7446C19.0969 12.5206 19.0222 12.3393 18.8729 12.2006C18.7342 12.0513 18.5422 11.9286 18.2969 11.8326C18.0622 11.7366 17.7902 11.6513 17.4809 11.5766L16.5049 11.3526C16.1209 11.2566 15.7529 11.1073 15.4009 10.9046C15.0595 10.6913 14.7822 10.4246 14.5689 10.1046C14.3555 9.78461 14.2489 9.40594 14.2489 8.96861C14.2489 8.47794 14.3875 8.05661 14.6649 7.70461C14.9529 7.34194 15.3369 7.06461 15.8169 6.87261C16.2969 6.68061 16.8142 6.58461 17.3689 6.58461C17.8809 6.58461 18.3449 6.65394 18.7609 6.79261C19.1875 6.92061 19.5555 7.11794 19.8649 7.38461C20.1849 7.64061 20.4355 7.96061 20.6169 8.34461L19.1289 9.01661C18.9475 8.65394 18.7022 8.40328 18.3929 8.26461C18.0835 8.11528 17.7475 8.04061 17.3849 8.04061C16.9795 8.04061 16.6382 8.12594 16.3609 8.29661C16.0942 8.45661 15.9609 8.66994 15.9609 8.93661C15.9609 9.21394 16.0782 9.43261 16.3129 9.59261C16.5582 9.75261 16.8569 9.88061 17.2089 9.97661L18.3929 10.2646C19.2035 10.4673 19.8115 10.7766 20.2169 11.1926C20.6222 11.5979 20.8249 12.0939 20.8249 12.6806C20.8249 13.2033 20.6755 13.6619 20.3769 14.0566C20.0782 14.4406 19.6729 14.7393 19.1609 14.9526C18.6595 15.1553 18.0995 15.2566 17.4809 15.2566ZM25.1211 15.2566C24.5345 15.2566 24.0118 15.1393 23.5531 14.9046C23.1051 14.6699 22.7478 14.3499 22.4811 13.9446C22.2251 13.5286 22.0971 13.0539 22.0971 12.5206C22.0971 11.9339 22.2465 11.4379 22.5451 11.0326C22.8545 10.6273 23.2651 10.3179 23.7771 10.1046C24.2891 9.89128 24.8545 9.78461 25.4731 9.78461C25.8145 9.78461 26.1291 9.81128 26.4171 9.86461C26.7158 9.90728 26.9718 9.96061 27.1851 10.0246C27.4091 10.0886 27.5851 10.1579 27.7131 10.2326V9.80061C27.7131 9.26728 27.5211 8.84061 27.1371 8.52061C26.7531 8.20061 26.2571 8.04061 25.6491 8.04061C25.2331 8.04061 24.8385 8.13661 24.4651 8.32861C24.0918 8.50994 23.7931 8.76061 23.5691 9.08061L22.3851 8.16861C22.6198 7.83794 22.9025 7.55528 23.2331 7.32061C23.5745 7.08594 23.9531 6.90461 24.3691 6.77661C24.7958 6.64861 25.2385 6.58461 25.6971 6.58461C26.8811 6.58461 27.7931 6.87794 28.4331 7.46461C29.0731 8.04061 29.3931 8.85128 29.3931 9.89661V15.0006H27.7131V13.9926H27.6171C27.4785 14.2059 27.2865 14.4086 27.0411 14.6006C26.8065 14.7926 26.5238 14.9473 26.1931 15.0646C25.8731 15.1926 25.5158 15.2566 25.1211 15.2566ZM25.4251 13.8486C25.8731 13.8486 26.2678 13.7419 26.6091 13.5286C26.9611 13.3153 27.2331 13.0379 27.4251 12.6966C27.6171 12.3446 27.7131 11.9659 27.7131 11.5606C27.4785 11.4219 27.1905 11.3099 26.8491 11.2246C26.5185 11.1286 26.1665 11.0806 25.7931 11.0806C25.0891 11.0806 24.5878 11.2193 24.2891 11.4966C23.9905 11.7739 23.8411 12.1206 23.8411 12.5366C23.8411 12.9206 23.9851 13.2353 24.2731 13.4806C24.5611 13.7259 24.9451 13.8486 25.4251 13.8486ZM27.1851 5.17661C26.9185 5.17661 26.6838 5.08061 26.4811 4.88861C26.2891 4.68594 26.1931 4.45128 26.1931 4.18461C26.1931 3.89661 26.2891 3.66194 26.4811 3.48061C26.6838 3.28861 26.9185 3.19261 27.1851 3.19261C27.4731 3.19261 27.7131 3.28861 27.9051 3.48061C28.0971 3.66194 28.1931 3.89661 28.1931 4.18461C28.1931 4.45128 28.0971 4.68594 27.9051 4.88861C27.7131 5.08061 27.4731 5.17661 27.1851 5.17661ZM24.3531 5.17661C24.0865 5.17661 23.8518 5.08061 23.6491 4.88861C23.4571 4.68594 23.3611 4.45128 23.3611 4.18461C23.3611 3.89661 23.4571 3.66194 23.6491 3.48061C23.8518 3.28861 24.0865 3.19261 24.3531 3.19261C24.6411 3.19261 24.8758 3.28861 25.0571 3.48061C25.2491 3.66194 25.3451 3.89661 25.3451 4.18461C25.3451 4.45128 25.2491 4.68594 25.0571 4.88861C24.8758 5.08061 24.6411 5.17661 24.3531 5.17661ZM33.9274 15.2566C33.3407 15.2566 32.818 15.1393 32.3594 14.9046C31.9114 14.6699 31.554 14.3499 31.2874 13.9446C31.0314 13.5286 30.9034 13.0539 30.9034 12.5206C30.9034 11.9339 31.0527 11.4379 31.3514 11.0326C31.6607 10.6273 32.0714 10.3179 32.5834 10.1046C33.0954 9.89128 33.6607 9.78461 34.2794 9.78461C34.6207 9.78461 34.9354 9.81128 35.2234 9.86461C35.522 9.90728 35.778 9.96061 35.9914 10.0246C36.2154 10.0886 36.3914 10.1579 36.5194 10.2326V9.80061C36.5194 9.26728 36.3274 8.84061 35.9434 8.52061C35.5594 8.20061 35.0634 8.04061 34.4554 8.04061C34.0394 8.04061 33.6447 8.13661 33.2714 8.32861C32.898 8.50994 32.5994 8.76061 32.3754 9.08061L31.1914 8.16861C31.426 7.83794 31.7087 7.55528 32.0394 7.32061C32.3807 7.08594 32.7594 6.90461 33.1754 6.77661C33.602 6.64861 34.0447 6.58461 34.5034 6.58461C35.6874 6.58461 36.5994 6.87794 37.2394 7.46461C37.8794 8.04061 38.1994 8.85128 38.1994 9.89661V15.0006H36.5194V13.9926H36.4234C36.2847 14.2059 36.0927 14.4086 35.8474 14.6006C35.6127 14.7926 35.33 14.9473 34.9994 15.0646C34.6794 15.1926 34.322 15.2566 33.9274 15.2566ZM34.2314 13.8486C34.6794 13.8486 35.074 13.7419 35.4154 13.5286C35.7674 13.3153 36.0394 13.0379 36.2314 12.6966C36.4234 12.3446 36.5194 11.9659 36.5194 11.5606C36.2847 11.4219 35.9967 11.3099 35.6554 11.2246C35.3247 11.1286 34.9727 11.0806 34.5994 11.0806C33.8954 11.0806 33.394 11.2193 33.0954 11.4966C32.7967 11.7739 32.6474 12.1206 32.6474 12.5366C32.6474 12.9206 32.7914 13.2353 33.0794 13.4806C33.3674 13.7259 33.7514 13.8486 34.2314 13.8486ZM35.9914 5.17661C35.7247 5.17661 35.49 5.08061 35.2874 4.88861C35.0954 4.68594 34.9994 4.45128 34.9994 4.18461C34.9994 3.89661 35.0954 3.66194 35.2874 3.48061C35.49 3.28861 35.7247 3.19261 35.9914 3.19261C36.2794 3.19261 36.5194 3.28861 36.7114 3.48061C36.9034 3.66194 36.9994 3.89661 36.9994 4.18461C36.9994 4.45128 36.9034 4.68594 36.7114 4.88861C36.5194 5.08061 36.2794 5.17661 35.9914 5.17661ZM33.1594 5.17661C32.8927 5.17661 32.658 5.08061 32.4554 4.88861C32.2634 4.68594 32.1674 4.45128 32.1674 4.18461C32.1674 3.89661 32.2634 3.66194 32.4554 3.48061C32.658 3.28861 32.8927 3.19261 33.1594 3.19261C33.4474 3.19261 33.682 3.28861 33.8634 3.48061C34.0554 3.66194 34.1514 3.89661 34.1514 4.18461C34.1514 4.45128 34.0554 4.68594 33.8634 4.88861C33.682 5.08061 33.4474 5.17661 33.1594 5.17661ZM44.1201 18.4566V6.84061H45.7361V7.94461H45.8321C45.9815 7.70994 46.1788 7.49128 46.4241 7.28861C46.6801 7.07528 46.9788 6.90461 47.3201 6.77661C47.6615 6.64861 48.0401 6.58461 48.4561 6.58461C49.2028 6.58461 49.8695 6.77128 50.4561 7.14461C51.0428 7.51794 51.5068 8.02994 51.8481 8.68061C52.2001 9.33128 52.3761 10.0779 52.3761 10.9206C52.3761 11.7633 52.2001 12.5099 51.8481 13.1606C51.5068 13.8113 51.0428 14.3233 50.4561 14.6966C49.8695 15.0699 49.2028 15.2566 48.4561 15.2566C47.8375 15.2566 47.2988 15.1179 46.8401 14.8406C46.3815 14.5633 46.0455 14.2539 45.8321 13.9126H45.7361L45.8321 15.0486V18.4566H44.1201ZM48.2001 13.6726C48.6268 13.6726 49.0268 13.5606 49.4001 13.3366C49.7841 13.1126 50.0881 12.7926 50.3121 12.3766C50.5468 11.9606 50.6641 11.4753 50.6641 10.9206C50.6641 10.3553 50.5468 9.86994 50.3121 9.46461C50.0881 9.04861 49.7841 8.72861 49.4001 8.50461C49.0268 8.28061 48.6268 8.16861 48.2001 8.16861C47.7735 8.16861 47.3735 8.28061 47.0001 8.50461C46.6268 8.72861 46.3228 9.04861 46.0881 9.46461C45.8535 9.86994 45.7361 10.3553 45.7361 10.9206C45.7361 11.4859 45.8535 11.9766 46.0881 12.3926C46.3228 12.7979 46.6268 13.1126 47.0001 13.3366C47.3735 13.5606 47.7735 13.6726 48.2001 13.6726ZM56.6743 15.2566C56.0876 15.2566 55.5649 15.1393 55.1063 14.9046C54.6583 14.6699 54.3009 14.3499 54.0343 13.9446C53.7783 13.5286 53.6503 13.0539 53.6503 12.5206C53.6503 11.9339 53.7996 11.4379 54.0983 11.0326C54.4076 10.6273 54.8183 10.3179 55.3303 10.1046C55.8423 9.89128 56.4076 9.78461 57.0263 9.78461C57.3676 9.78461 57.6823 9.81128 57.9703 9.86461C58.2689 9.90728 58.5249 9.96061 58.7383 10.0246C58.9623 10.0886 59.1383 10.1579 59.2663 10.2326V9.80061C59.2663 9.26728 59.0743 8.84061 58.6903 8.52061C58.3063 8.20061 57.8103 8.04061 57.2023 8.04061C56.7863 8.04061 56.3916 8.13661 56.0183 8.32861C55.6449 8.50994 55.3463 8.76061 55.1223 9.08061L53.9383 8.16861C54.1729 7.83794 54.4556 7.55528 54.7863 7.32061C55.1276 7.08594 55.5063 6.90461 55.9223 6.77661C56.3489 6.64861 56.7916 6.58461 57.2503 6.58461C58.4343 6.58461 59.3463 6.87794 59.9863 7.46461C60.6263 8.04061 60.9463 8.85128 60.9463 9.89661V15.0006H59.2663V13.9926H59.1703C59.0316 14.2059 58.8396 14.4086 58.5943 14.6006C58.3596 14.7926 58.0769 14.9473 57.7463 15.0646C57.4263 15.1926 57.0689 15.2566 56.6743 15.2566ZM56.9783 13.8486C57.4263 13.8486 57.8209 13.7419 58.1623 13.5286C58.5143 13.3153 58.7863 13.0379 58.9783 12.6966C59.1703 12.3446 59.2663 11.9659 59.2663 11.5606C59.0316 11.4219 58.7436 11.3099 58.4023 11.2246C58.0716 11.1286 57.7196 11.0806 57.3463 11.0806C56.6423 11.0806 56.1409 11.2193 55.8423 11.4966C55.5436 11.7739 55.3943 12.1206 55.3943 12.5366C55.3943 12.9206 55.5383 13.2353 55.8263 13.4806C56.1143 13.7259 56.4983 13.8486 56.9783 13.8486ZM63.0146 15.0006V3.54461H64.7426V15.0006H63.0146ZM69.4099 15.0006L66.0339 6.84061H67.9539L70.2419 12.7766H70.3219L72.6579 6.84061H74.5459L71.1379 15.0006H69.4099ZM79.3079 15.2566C78.5079 15.2566 77.7932 15.0699 77.1639 14.6966C76.5345 14.3233 76.0385 13.8113 75.6759 13.1606C75.3239 12.5099 75.1479 11.7686 75.1479 10.9366C75.1479 10.1579 75.3185 9.43794 75.6599 8.77661C76.0012 8.11528 76.4759 7.58728 77.0839 7.19261C77.7025 6.78728 78.4119 6.58461 79.2119 6.58461C80.0545 6.58461 80.7692 6.76594 81.3559 7.12861C81.9532 7.49128 82.4065 7.98728 82.7159 8.61661C83.0252 9.24594 83.1799 9.95528 83.1799 10.7446C83.1799 10.8619 83.1745 10.9686 83.1639 11.0646C83.1639 11.1606 83.1585 11.2353 83.1479 11.2886H76.8439C76.8865 11.7366 76.9985 12.1259 77.1799 12.4566C77.4145 12.8726 77.7239 13.1873 78.1079 13.4006C78.4919 13.6139 78.9079 13.7206 79.3559 13.7206C79.8999 13.7206 80.3532 13.5979 80.7159 13.3526C81.0892 13.0966 81.3825 12.7819 81.5959 12.4086L83.0199 13.0966C82.6679 13.7366 82.1879 14.2593 81.5799 14.6646C80.9719 15.0593 80.2145 15.2566 79.3079 15.2566ZM76.9399 9.99261H81.4679C81.4572 9.78994 81.4039 9.57661 81.3079 9.35261C81.2119 9.11794 81.0732 8.90461 80.8919 8.71261C80.7105 8.52061 80.4812 8.36594 80.2039 8.24861C79.9265 8.12061 79.6012 8.05661 79.2279 8.05661C78.7585 8.05661 78.3425 8.17928 77.9799 8.42461C77.6172 8.65928 77.3345 8.98994 77.1319 9.41661C77.0465 9.59794 76.9825 9.78994 76.9399 9.99261ZM84.949 15.0006V3.54461H86.677V15.0006H84.949ZM91.8243 15.2566C90.8216 15.2566 90.0643 14.9579 89.5523 14.3606C89.0509 13.7526 88.8003 12.9313 88.8003 11.8966V6.84061H90.5283V11.6566C90.5283 12.3393 90.6883 12.8459 91.0083 13.1766C91.3389 13.5073 91.7496 13.6726 92.2403 13.6726C92.6883 13.6726 93.0723 13.5606 93.3923 13.3366C93.7123 13.1019 93.9576 12.7979 94.1283 12.4246C94.3096 12.0513 94.4003 11.6513 94.4003 11.2246V6.84061H96.1123V15.0006H94.4963V13.8966H94.4003C94.2509 14.1526 94.0429 14.3819 93.7763 14.5846C93.5096 14.7873 93.2109 14.9473 92.8803 15.0646C92.5496 15.1926 92.1976 15.2566 91.8243 15.2566ZM101.255 15.2566C100.253 15.2566 99.4955 14.9579 98.9835 14.3606C98.4822 13.7526 98.2315 12.9313 98.2315 11.8966V6.84061H99.9595V11.6566C99.9595 12.3393 100.119 12.8459 100.439 13.1766C100.77 13.5073 101.181 13.6726 101.671 13.6726C102.119 13.6726 102.503 13.5606 102.823 13.3366C103.143 13.1019 103.389 12.7979 103.559 12.4246C103.741 12.0513 103.831 11.6513 103.831 11.2246V6.84061H105.543V15.0006H103.927V13.8966H103.831C103.682 14.1526 103.474 14.3819 103.207 14.5846C102.941 14.7873 102.642 14.9473 102.311 15.0646C101.981 15.1926 101.629 15.2566 101.255 15.2566ZM107.727 15.0006V6.84061H109.359V7.96061H109.455C109.689 7.56594 110.036 7.24061 110.495 6.98461C110.964 6.71794 111.476 6.58461 112.031 6.58461C113.033 6.58461 113.785 6.88328 114.287 7.48061C114.788 8.06728 115.039 8.85661 115.039 9.84861V15.0006H113.327V10.0726C113.327 9.41128 113.161 8.93128 112.831 8.63261C112.5 8.32328 112.068 8.16861 111.535 8.16861C111.119 8.16861 110.756 8.28594 110.447 8.52061C110.137 8.74461 109.892 9.04328 109.711 9.41661C109.54 9.78994 109.455 10.1899 109.455 10.6166V15.0006H107.727Z" fill="white"/>
<g id="GPay (Dark)">
<g id="GPay">
<g id="Pay">
<path id="Fill 1" fill-rule="evenodd" clip-rule="evenodd" d="M144.356 3.42339V8.16175H147.278C147.974 8.16175 148.55 7.92781 149.005 7.45993C149.473 6.99313 149.707 6.43644 149.707 5.79203C149.707 5.16061 149.473 4.61041 149.005 4.14254C148.55 3.66274 147.974 3.4223 147.278 3.4223H144.356V3.42339ZM144.356 9.82966V15.3262H142.611V1.75549H147.24C148.417 1.75549 149.415 2.14756 150.238 2.93061C151.073 3.71365 151.491 4.66782 151.491 5.79203C151.491 6.94224 151.073 7.90291 150.238 8.67296C149.428 9.44409 148.429 9.82858 147.24 9.82858H144.356V9.82966Z" fill="white"/>
<path id="Fill 3" fill-rule="evenodd" clip-rule="evenodd" d="M153.255 12.4831C153.255 12.9379 153.448 13.317 153.834 13.6203C154.22 13.9235 154.672 14.0752 155.19 14.0752C155.924 14.0752 156.578 13.8032 157.153 13.2607C157.729 12.717 158.017 12.0791 158.017 11.3469C157.472 10.917 156.713 10.7025 155.74 10.7025C155.031 10.7025 154.44 10.8736 153.966 11.2148C153.492 11.5559 153.255 11.9773 153.255 12.4831M155.513 5.73566C156.803 5.73566 157.821 6.08007 158.569 6.76889C159.314 7.45771 159.687 8.40213 159.687 9.60216V15.3261H158.018V14.0373H157.942C157.221 15.0985 156.259 15.6294 155.058 15.6294C154.033 15.6294 153.176 15.3261 152.487 14.7196C151.797 14.1131 151.453 13.3549 151.453 12.4452C151.453 11.4845 151.816 10.7208 152.543 10.1523C153.271 9.58375 154.241 9.2989 155.456 9.2989C156.492 9.2989 157.346 9.48844 158.017 9.86751V9.46894C158.017 8.86243 157.776 8.34798 157.296 7.92451C156.814 7.50103 156.252 7.28984 155.607 7.28984C154.633 7.28984 153.862 7.70032 153.293 8.52235L151.755 7.55519C152.603 6.34217 153.855 5.73566 155.513 5.73566" fill="white"/>
<path id="Fill 5" fill-rule="evenodd" clip-rule="evenodd" d="M169.269 6.03894L163.443 19.4201H161.641L163.804 14.738L159.971 6.03894H161.869L164.639 12.7106H164.677L167.371 6.03894H169.269Z" fill="white"/>
</g>
<g id="G">
<path id="Fill 8" fill-rule="evenodd" clip-rule="evenodd" d="M137.303 8.64473C137.303 8.09563 137.256 7.56601 137.168 7.05914H129.806V10.0625H134.023C133.842 11.0414 133.294 11.8744 132.464 12.4322V14.3828H134.98C136.454 13.0246 137.303 11.0177 137.303 8.64473" fill="#4285F4"/>
<path id="Fill 10" fill-rule="evenodd" clip-rule="evenodd" d="M129.806 16.2651C131.913 16.2651 133.687 15.5741 134.98 14.3828L132.464 12.4322C131.763 12.9033 130.861 13.1784 129.806 13.1784C127.77 13.1784 126.042 11.8073 125.424 9.95959H122.832V11.9687C124.116 14.516 126.757 16.2651 129.806 16.2651" fill="#34A853"/>
<path id="Fill 12" fill-rule="evenodd" clip-rule="evenodd" d="M125.424 9.9596C125.266 9.48847 125.179 8.98593 125.179 8.46715C125.179 7.94837 125.266 7.44583 125.424 6.9747V4.96564H122.832C122.3 6.01837 122 7.20756 122 8.46715C122 9.72674 122.3 10.916 122.832 11.9687L125.424 9.9596Z" fill="#FABB05"/>
<path id="Fill 14" fill-rule="evenodd" clip-rule="evenodd" d="M129.806 3.75583C130.957 3.75583 131.988 4.15115 132.801 4.92553V4.92661L135.029 2.70094C133.676 1.44243 131.912 0.669128 129.806 0.669128C126.757 0.669128 124.116 2.41826 122.832 4.9656L125.424 6.97467C126.042 5.12698 127.77 3.75583 129.806 3.75583" fill="#E94235"/>
</g>
</g>
</g>
</g>
</svg>
