<svg width="212" height="38" viewBox="0 0 212 38" fill="none" xmlns="http://www.w3.org/2000/svg">
<g id="fi_book_with_Dark">
<path id="Left Text" d="M8.83135 30L1.71935 9.952H5.07935L9.61535 23.28L10.3153 25.548H10.4833L11.2393 23.28L15.9713 9.952H19.3313L12.0233 30H8.83135ZM24.8792 30.448C23.8525 30.448 22.9378 30.252 22.1352 29.86C21.3325 29.4493 20.7072 28.88 20.2592 28.152C19.8112 27.424 19.5872 26.5933 19.5872 25.66C19.5872 24.652 19.8485 23.7933 20.3712 23.084C20.9125 22.356 21.6312 21.8053 22.5272 21.432C23.4232 21.0587 24.4125 20.872 25.4952 20.872C26.3912 20.872 27.1752 20.956 27.8472 21.124C28.5378 21.292 29.0605 21.4693 29.4152 21.656V20.9C29.4152 19.9667 29.0792 19.22 28.4072 18.66C27.7352 18.1 26.8672 17.82 25.8032 17.82C25.0752 17.82 24.3845 17.988 23.7312 18.324C23.0778 18.6413 22.5552 19.08 22.1632 19.64L20.0912 18.044C20.7072 17.1853 21.5192 16.5133 22.5272 16.028C23.5538 15.524 24.6738 15.272 25.8872 15.272C27.9592 15.272 29.5552 15.7853 30.6752 16.812C31.7952 17.82 32.3552 19.2387 32.3552 21.068V30H29.4152V28.236H29.2472C28.8738 28.8147 28.3138 29.328 27.5672 29.776C26.8205 30.224 25.9245 30.448 24.8792 30.448ZM25.4112 27.984C26.1952 27.984 26.8858 27.7973 27.4832 27.424C28.0805 27.0507 28.5472 26.5653 28.8832 25.968C29.2378 25.352 29.4152 24.6893 29.4152 23.98C28.9858 23.7373 28.4818 23.5413 27.9032 23.392C27.3245 23.224 26.7085 23.14 26.0552 23.14C24.8232 23.14 23.9458 23.392 23.4232 23.896C22.9005 24.3813 22.6392 24.9787 22.6392 25.688C22.6392 26.36 22.8912 26.9107 23.3952 27.34C23.8992 27.7693 24.5712 27.984 25.4112 27.984ZM35.9843 30V15.72H38.8403V17.82H39.0083C39.3256 17.092 39.867 16.4947 40.6323 16.028C41.4163 15.5427 42.2563 15.3 43.1523 15.3C43.5443 15.3 43.871 15.328 44.1323 15.384C44.4123 15.44 44.6643 15.5053 44.8883 15.58V18.716C44.5336 18.5667 44.1696 18.4453 43.7963 18.352C43.4416 18.2587 43.0683 18.212 42.6763 18.212C41.967 18.212 41.3323 18.408 40.7723 18.8C40.231 19.1733 39.8016 19.6867 39.4843 20.34C39.167 20.9747 39.0083 21.6747 39.0083 22.44V30H35.9843ZM51.5104 30.448C50.4837 30.448 49.5691 30.252 48.7664 29.86C47.9637 29.4493 47.3384 28.88 46.8904 28.152C46.4424 27.424 46.2184 26.5933 46.2184 25.66C46.2184 24.652 46.4797 23.7933 47.0024 23.084C47.5437 22.356 48.2624 21.8053 49.1584 21.432C50.0544 21.0587 51.0437 20.872 52.1264 20.872C53.0224 20.872 53.8064 20.956 54.4784 21.124C55.1691 21.292 55.6917 21.4693 56.0464 21.656V20.9C56.0464 19.9667 55.7104 19.22 55.0384 18.66C54.3664 18.1 53.4984 17.82 52.4344 17.82C51.7064 17.82 51.0157 17.988 50.3624 18.324C49.7091 18.6413 49.1864 19.08 48.7944 19.64L46.7224 18.044C47.3384 17.1853 48.1504 16.5133 49.1584 16.028C50.1851 15.524 51.3051 15.272 52.5184 15.272C54.5904 15.272 56.1864 15.7853 57.3064 16.812C58.4264 17.82 58.9864 19.2387 58.9864 21.068V30H56.0464V28.236H55.8784C55.5051 28.8147 54.9451 29.328 54.1984 29.776C53.4517 30.224 52.5557 30.448 51.5104 30.448ZM52.0424 27.984C52.8264 27.984 53.5171 27.7973 54.1144 27.424C54.7117 27.0507 55.1784 26.5653 55.5144 25.968C55.8691 25.352 56.0464 24.6893 56.0464 23.98C55.6171 23.7373 55.1131 23.5413 54.5344 23.392C53.9557 23.224 53.3397 23.14 52.6864 23.14C51.4544 23.14 50.5771 23.392 50.0544 23.896C49.5317 24.3813 49.2704 24.9787 49.2704 25.688C49.2704 26.36 49.5224 26.9107 50.0264 27.34C50.5304 27.7693 51.2024 27.984 52.0424 27.984ZM66.9588 30.448C65.9322 30.448 65.0175 30.252 64.2148 29.86C63.4122 29.4493 62.7868 28.88 62.3388 28.152C61.8908 27.424 61.6668 26.5933 61.6668 25.66C61.6668 24.652 61.9282 23.7933 62.4508 23.084C62.9922 22.356 63.7108 21.8053 64.6068 21.432C65.5028 21.0587 66.4922 20.872 67.5748 20.872C68.4708 20.872 69.2548 20.956 69.9268 21.124C70.6175 21.292 71.1402 21.4693 71.4948 21.656V20.9C71.4948 19.9667 71.1588 19.22 70.4868 18.66C69.8148 18.1 68.9468 17.82 67.8828 17.82C67.1548 17.82 66.4642 17.988 65.8108 18.324C65.1575 18.6413 64.6348 19.08 64.2428 19.64L62.1708 18.044C62.7868 17.1853 63.5988 16.5133 64.6068 16.028C65.6335 15.524 66.7535 15.272 67.9668 15.272C70.0388 15.272 71.6348 15.7853 72.7548 16.812C73.8748 17.82 74.4348 19.2387 74.4348 21.068V30H71.4948V28.236H71.3268C70.9535 28.8147 70.3935 29.328 69.6468 29.776C68.9002 30.224 68.0042 30.448 66.9588 30.448ZM67.4908 27.984C68.2748 27.984 68.9655 27.7973 69.5628 27.424C70.1602 27.0507 70.6268 26.5653 70.9628 25.968C71.3175 25.352 71.4948 24.6893 71.4948 23.98C71.0655 23.7373 70.5615 23.5413 69.9828 23.392C69.4042 23.224 68.7882 23.14 68.1348 23.14C66.9028 23.14 66.0255 23.392 65.5028 23.896C64.9802 24.3813 64.7188 24.9787 64.7188 25.688C64.7188 26.36 64.9708 26.9107 65.4748 27.34C65.9788 27.7693 66.6508 27.984 67.4908 27.984Z" fill="white"/>
<g id="GPay Logo (Dark)">
<g id="GPay">
<g id="Pay">
<path id="Fill 1" fill-rule="evenodd" clip-rule="evenodd" d="M126.529 9.34665V17.5128H131.565C132.765 17.5128 133.757 17.1096 134.541 16.3032C135.347 15.4988 135.75 14.5394 135.75 13.4288C135.75 12.3406 135.347 11.3924 134.541 10.586C133.757 9.75916 132.765 9.34479 131.565 9.34479H126.529V9.34665ZM126.529 20.3872V29.8599H123.521V6.47218H131.499C133.527 6.47218 135.248 7.14787 136.666 8.49738C138.105 9.84688 138.824 11.4913 138.824 13.4288C138.824 15.411 138.105 17.0667 136.666 18.3938C135.27 19.7227 133.547 20.3854 131.499 20.3854H126.529V20.3872Z" fill="white"/>
<path id="Fill 3" fill-rule="evenodd" clip-rule="evenodd" d="M141.864 24.9602C141.864 25.7442 142.197 26.3975 142.862 26.9201C143.527 27.4427 144.306 27.704 145.2 27.704C146.465 27.704 147.591 27.2354 148.584 26.3004C149.576 25.3634 150.071 24.264 150.071 23.0022C149.133 22.2612 147.825 21.8916 146.147 21.8916C144.925 21.8916 143.907 22.1866 143.09 22.7745C142.273 23.3623 141.864 24.0886 141.864 24.9602ZM145.756 13.3317C147.98 13.3317 149.735 13.9253 151.022 15.1124C152.308 16.2995 152.95 17.9271 152.95 19.9952V29.8599H150.073V27.6387H149.942C148.699 29.4677 147.042 30.3825 144.972 30.3825C143.206 30.3825 141.728 29.8599 140.541 28.8146C139.353 27.7694 138.759 26.4628 138.759 24.8949C138.759 23.2393 139.385 21.9232 140.638 20.9434C141.892 19.9635 143.565 19.4726 145.658 19.4726C147.444 19.4726 148.916 19.7993 150.071 20.4525V19.7657C150.071 18.7204 149.656 17.8338 148.829 17.104C147.999 16.3742 147.031 16.0102 145.919 16.0102C144.239 16.0102 142.911 16.7176 141.93 18.1343L139.28 16.4675C140.741 14.377 142.899 13.3317 145.756 13.3317Z" fill="white"/>
<path id="Fill 5" fill-rule="evenodd" clip-rule="evenodd" d="M169.463 13.8543L159.423 36.9154H156.318L160.046 28.8464L153.44 13.8543H156.71L161.484 25.3522H161.55L166.193 13.8543H169.463Z" fill="white"/>
</g>
<g id="G">
<path id="Fill 8" fill-rule="evenodd" clip-rule="evenodd" d="M114.373 18.3452C114.373 17.3989 114.293 16.4861 114.141 15.6126H101.454V20.7885H108.72C108.408 22.4757 107.465 23.9112 106.033 24.8725V28.2341H110.37C112.91 25.8935 114.373 22.4348 114.373 18.3452Z" fill="#4285F4"/>
<path id="Fill 10" fill-rule="evenodd" clip-rule="evenodd" d="M101.454 31.4782C105.084 31.4782 108.141 30.2873 110.37 28.2341L106.033 24.8725C104.826 25.6844 103.272 26.1585 101.454 26.1585C97.9444 26.1585 94.9659 23.7955 93.9009 20.6112H89.4331V24.0736C91.6474 28.4637 96.1973 31.4782 101.454 31.4782Z" fill="#34A853"/>
<path id="Fill 12" fill-rule="evenodd" clip-rule="evenodd" d="M93.9009 20.6111C93.6281 19.7992 93.4787 18.9331 93.4787 18.0391C93.4787 17.145 93.6281 16.2789 93.9009 15.467V12.0045H89.4332C88.5176 13.8188 88 15.8683 88 18.0391C88 20.2098 88.5176 22.2595 89.4332 24.0736L93.9009 20.6111Z" fill="#FABB05"/>
<path id="Fill 14" fill-rule="evenodd" clip-rule="evenodd" d="M101.454 9.91964C103.436 9.91964 105.213 10.6009 106.615 11.9355V11.9374L110.455 8.10163C108.123 5.93272 105.082 4.60001 101.454 4.60001C96.1973 4.60001 91.6474 7.61447 89.4331 12.0046L93.9009 15.467C94.9659 12.2827 97.9444 9.91964 101.454 9.91964Z" fill="#E94235"/>
</g>
</g>
</g>
<path id="Right Text" d="M182.792 30V9.952H185.816V30H182.792ZM189.709 30V9.952H192.733V30H189.709ZM200.942 30.448C199.915 30.448 199 30.252 198.198 29.86C197.395 29.4493 196.77 28.88 196.322 28.152C195.874 27.424 195.65 26.5933 195.65 25.66C195.65 24.652 195.911 23.7933 196.434 23.084C196.975 22.356 197.694 21.8053 198.59 21.432C199.486 21.0587 200.475 20.872 201.558 20.872C202.454 20.872 203.238 20.956 203.91 21.124C204.6 21.292 205.123 21.4693 205.478 21.656V20.9C205.478 19.9667 205.142 19.22 204.47 18.66C203.798 18.1 202.93 17.82 201.866 17.82C201.138 17.82 200.447 17.988 199.794 18.324C199.14 18.6413 198.618 19.08 198.226 19.64L196.154 18.044C196.77 17.1853 197.582 16.5133 198.59 16.028C199.616 15.524 200.736 15.272 201.95 15.272C204.022 15.272 205.618 15.7853 206.738 16.812C207.858 17.82 208.418 19.2387 208.418 21.068V30H205.478V28.236H205.31C204.936 28.8147 204.376 29.328 203.63 29.776C202.883 30.224 201.987 30.448 200.942 30.448ZM201.474 27.984C202.258 27.984 202.948 27.7973 203.546 27.424C204.143 27.0507 204.61 26.5653 204.946 25.968C205.3 25.352 205.478 24.6893 205.478 23.98C205.048 23.7373 204.544 23.5413 203.966 23.392C203.387 23.224 202.771 23.14 202.118 23.14C200.886 23.14 200.008 23.392 199.486 23.896C198.963 24.3813 198.702 24.9787 198.702 25.688C198.702 26.36 198.954 26.9107 199.458 27.34C199.962 27.7693 200.634 27.984 201.474 27.984Z" fill="white"/>
</g>
</svg>
