<svg width="114" height="21" viewBox="0 0 114 21" fill="none" xmlns="http://www.w3.org/2000/svg">
<g id="fi_book_with_Pay_NBG">
<path id="Left Text" d="M4.70363 15.0006L0.639627 3.54461H2.55963L5.15163 11.1606L5.55163 12.4566H5.64763L6.07963 11.1606L8.78363 3.54461H10.7036L6.52763 15.0006H4.70363ZM13.8524 15.2566C13.2657 15.2566 12.743 15.1393 12.2844 14.9046C11.8364 14.6699 11.479 14.3499 11.2124 13.9446C10.9564 13.5286 10.8284 13.0539 10.8284 12.5206C10.8284 11.9339 10.9777 11.4379 11.2764 11.0326C11.5857 10.6273 11.9964 10.3179 12.5084 10.1046C13.0204 9.89128 13.5857 9.78461 14.2044 9.78461C14.5457 9.78461 14.8604 9.81128 15.1484 9.86461C15.447 9.90728 15.703 9.96061 15.9164 10.0246C16.1404 10.0886 16.3164 10.1579 16.4444 10.2326V9.80061C16.4444 9.26728 16.2524 8.84061 15.8684 8.52061C15.4844 8.20061 14.9884 8.04061 14.3804 8.04061C13.9644 8.04061 13.5697 8.13661 13.1964 8.32861C12.823 8.50994 12.5244 8.76061 12.3004 9.08061L11.1164 8.16861C11.351 7.83794 11.6337 7.55528 11.9644 7.32061C12.3057 7.08594 12.6844 6.90461 13.1004 6.77661C13.527 6.64861 13.9697 6.58461 14.4284 6.58461C15.6124 6.58461 16.5244 6.87794 17.1644 7.46461C17.8044 8.04061 18.1244 8.85128 18.1244 9.89661V15.0006H16.4444V13.9926H16.3484C16.2097 14.2059 16.0177 14.4086 15.7724 14.6006C15.5377 14.7926 15.255 14.9473 14.9244 15.0646C14.6044 15.1926 14.247 15.2566 13.8524 15.2566ZM14.1564 13.8486C14.6044 13.8486 14.999 13.7419 15.3404 13.5286C15.6924 13.3153 15.9644 13.0379 16.1564 12.6966C16.3484 12.3446 16.4444 11.9659 16.4444 11.5606C16.2097 11.4219 15.9217 11.3099 15.5804 11.2246C15.2497 11.1286 14.8977 11.0806 14.5244 11.0806C13.8204 11.0806 13.319 11.2193 13.0204 11.4966C12.7217 11.7739 12.5724 12.1206 12.5724 12.5366C12.5724 12.9206 12.7164 13.2353 13.0044 13.4806C13.2924 13.7259 13.6764 13.8486 14.1564 13.8486ZM20.1768 15.0006V6.84061H21.8088V8.04061H21.9048C22.0328 7.76328 22.2141 7.51794 22.4488 7.30461C22.6941 7.09128 22.9714 6.92061 23.2808 6.79261C23.6008 6.66461 23.9314 6.60061 24.2728 6.60061C24.4968 6.60061 24.6834 6.61661 24.8328 6.64861C24.9928 6.66994 25.1368 6.70728 25.2648 6.76061V8.55261C25.0621 8.46728 24.8541 8.39794 24.6408 8.34461C24.4381 8.29128 24.2248 8.26461 24.0008 8.26461C23.5954 8.26461 23.2328 8.37661 22.9128 8.60061C22.6034 8.81394 22.3581 9.10194 22.1768 9.46461C21.9954 9.82728 21.9048 10.2326 21.9048 10.6806V15.0006H20.1768ZM29.0274 15.2566C28.4407 15.2566 27.918 15.1393 27.4594 14.9046C27.0114 14.6699 26.654 14.3499 26.3874 13.9446C26.1314 13.5286 26.0034 13.0539 26.0034 12.5206C26.0034 11.9339 26.1527 11.4379 26.4514 11.0326C26.7607 10.6273 27.1714 10.3179 27.6834 10.1046C28.1954 9.89128 28.7607 9.78461 29.3794 9.78461C29.7207 9.78461 30.0354 9.81128 30.3234 9.86461C30.622 9.90728 30.878 9.96061 31.0914 10.0246C31.3154 10.0886 31.4914 10.1579 31.6194 10.2326V9.80061C31.6194 9.26728 31.4274 8.84061 31.0434 8.52061C30.6594 8.20061 30.1634 8.04061 29.5554 8.04061C29.1394 8.04061 28.7447 8.13661 28.3714 8.32861C27.998 8.50994 27.6994 8.76061 27.4754 9.08061L26.2914 8.16861C26.526 7.83794 26.8087 7.55528 27.1394 7.32061C27.4807 7.08594 27.8594 6.90461 28.2754 6.77661C28.702 6.64861 29.1447 6.58461 29.6034 6.58461C30.7874 6.58461 31.6994 6.87794 32.3394 7.46461C32.9794 8.04061 33.2994 8.85128 33.2994 9.89661V15.0006H31.6194V13.9926H31.5234C31.3847 14.2059 31.1927 14.4086 30.9474 14.6006C30.7127 14.7926 30.43 14.9473 30.0994 15.0646C29.7794 15.1926 29.422 15.2566 29.0274 15.2566ZM29.3314 13.8486C29.7794 13.8486 30.174 13.7419 30.5154 13.5286C30.8674 13.3153 31.1394 13.0379 31.3314 12.6966C31.5234 12.3446 31.6194 11.9659 31.6194 11.5606C31.3847 11.4219 31.0967 11.3099 30.7554 11.2246C30.4247 11.1286 30.0727 11.0806 29.6994 11.0806C28.9954 11.0806 28.494 11.2193 28.1954 11.4966C27.8967 11.7739 27.7474 12.1206 27.7474 12.5366C27.7474 12.9206 27.8914 13.2353 28.1794 13.4806C28.4674 13.7259 28.8514 13.8486 29.3314 13.8486ZM37.8336 15.2566C37.247 15.2566 36.7243 15.1393 36.2656 14.9046C35.8176 14.6699 35.4603 14.3499 35.1936 13.9446C34.9376 13.5286 34.8096 13.0539 34.8096 12.5206C34.8096 11.9339 34.959 11.4379 35.2576 11.0326C35.567 10.6273 35.9776 10.3179 36.4896 10.1046C37.0016 9.89128 37.567 9.78461 38.1856 9.78461C38.527 9.78461 38.8416 9.81128 39.1296 9.86461C39.4283 9.90728 39.6843 9.96061 39.8976 10.0246C40.1216 10.0886 40.2976 10.1579 40.4256 10.2326V9.80061C40.4256 9.26728 40.2336 8.84061 39.8496 8.52061C39.4656 8.20061 38.9696 8.04061 38.3616 8.04061C37.9456 8.04061 37.551 8.13661 37.1776 8.32861C36.8043 8.50994 36.5056 8.76061 36.2816 9.08061L35.0976 8.16861C35.3323 7.83794 35.615 7.55528 35.9456 7.32061C36.287 7.08594 36.6656 6.90461 37.0816 6.77661C37.5083 6.64861 37.951 6.58461 38.4096 6.58461C39.5936 6.58461 40.5056 6.87794 41.1456 7.46461C41.7856 8.04061 42.1056 8.85128 42.1056 9.89661V15.0006H40.4256V13.9926H40.3296C40.191 14.2059 39.999 14.4086 39.7536 14.6006C39.519 14.7926 39.2363 14.9473 38.9056 15.0646C38.5856 15.1926 38.2283 15.2566 37.8336 15.2566ZM38.1376 13.8486C38.5856 13.8486 38.9803 13.7419 39.3216 13.5286C39.6736 13.3153 39.9456 13.0379 40.1376 12.6966C40.3296 12.3446 40.4256 11.9659 40.4256 11.5606C40.191 11.4219 39.903 11.3099 39.5616 11.2246C39.231 11.1286 38.879 11.0806 38.5056 11.0806C37.8016 11.0806 37.3003 11.2193 37.0016 11.4966C36.703 11.7739 36.5536 12.1206 36.5536 12.5366C36.5536 12.9206 36.6976 13.2353 36.9856 13.4806C37.2736 13.7259 37.6576 13.8486 38.1376 13.8486Z" fill="white"/>
<g id="GPay (Dark)">
<g id="GPay">
<g id="Pay">
<path id="Fill 1" fill-rule="evenodd" clip-rule="evenodd" d="M71.3563 3.42339V8.16175H74.2784C74.9745 8.16175 75.5501 7.92781 76.0055 7.45993C76.4728 6.99313 76.707 6.43644 76.707 5.79203C76.707 5.16061 76.4728 4.61041 76.0055 4.14254C75.5501 3.66274 74.9745 3.4223 74.2784 3.4223H71.3563V3.42339ZM71.3563 9.82966V15.3262H69.6107V1.75549H74.2404C75.4169 1.75549 76.4154 2.14756 77.2383 2.93061C78.0732 3.71365 78.4906 4.66782 78.4906 5.79203C78.4906 6.94224 78.0731 7.90291 77.2383 8.67296C76.4283 9.44409 75.4287 9.82858 74.2404 9.82858H71.3563V9.82966Z" fill="white"/>
<path id="Fill 3" fill-rule="evenodd" clip-rule="evenodd" d="M80.2546 12.4831C80.2546 12.9379 80.4476 13.317 80.8337 13.6203C81.2195 13.9235 81.6717 14.0752 82.19 14.0752C82.9239 14.0752 83.5777 13.8032 84.1535 13.2607C84.7293 12.717 85.0165 12.0791 85.0165 11.3469C84.4722 10.917 83.7133 10.7025 82.7396 10.7025C82.0306 10.7025 81.4397 10.8736 80.9659 11.2148C80.492 11.5559 80.2546 11.9773 80.2546 12.4831M82.513 5.73566C83.8033 5.73566 84.8214 6.08007 85.5685 6.76889C86.3145 7.45771 86.6873 8.40213 86.6873 9.60216V15.3261H85.0177V14.0373H84.9417C84.2207 15.0985 83.259 15.6294 82.0578 15.6294C81.0332 15.6294 80.1755 15.3261 79.4869 14.7196C78.7975 14.1131 78.4527 13.3549 78.4527 12.4452C78.4527 11.4845 78.8158 10.7208 79.5433 10.1523C80.2708 9.58375 81.2413 9.2989 82.4557 9.2989C83.4921 9.2989 84.3465 9.48844 85.0165 9.86751V9.46894C85.0165 8.86243 84.7758 8.34798 84.2956 7.92451C83.8141 7.50103 83.2525 7.28984 82.6074 7.28984C81.6326 7.28984 80.8618 7.70032 80.2926 8.52235L78.7551 7.55519C79.6029 6.34217 80.8552 5.73566 82.513 5.73566" fill="white"/>
<path id="Fill 5" fill-rule="evenodd" clip-rule="evenodd" d="M96.2687 6.03894L90.4432 19.4201H88.6411L90.8043 14.738L86.9714 6.03894H88.8688L91.639 12.7106H91.677L94.3713 6.03894H96.2687Z" fill="white"/>
</g>
<g id="G">
<path id="Fill 8" fill-rule="evenodd" clip-rule="evenodd" d="M64.3029 8.64473C64.3029 8.09563 64.2562 7.56601 64.1684 7.05914H56.8065V10.0625H61.0231C60.842 11.0414 60.2944 11.8744 59.4639 12.4322V14.3828H61.9804C63.4539 13.0246 64.3029 11.0177 64.3029 8.64473" fill="#4285F4"/>
<path id="Fill 10" fill-rule="evenodd" clip-rule="evenodd" d="M56.8065 16.2651C58.9131 16.2651 60.6869 15.5741 61.9804 14.3828L59.4639 12.4322C58.7635 12.9033 57.8614 13.1784 56.8065 13.1784C54.7703 13.1784 53.042 11.8073 52.424 9.95959H49.8316V11.9687C51.1164 14.516 53.7565 16.2651 56.8065 16.2651" fill="#34A853"/>
<path id="Fill 12" fill-rule="evenodd" clip-rule="evenodd" d="M52.424 9.9596C52.2657 9.48847 52.179 8.98593 52.179 8.46715C52.179 7.94837 52.2657 7.44583 52.424 6.9747V4.96564H49.8316C49.3003 6.01837 49 7.20756 49 8.46715C49 9.72674 49.3003 10.916 49.8316 11.9687L52.424 9.9596Z" fill="#FABB05"/>
<path id="Fill 14" fill-rule="evenodd" clip-rule="evenodd" d="M56.8065 3.75583C57.9568 3.75583 58.9879 4.15115 59.8011 4.92553V4.92661L62.0292 2.70094C60.6761 1.44243 58.912 0.669128 56.8065 0.669128C53.7565 0.669128 51.1164 2.41826 49.8316 4.9656L52.424 6.97467C53.042 5.12698 54.7703 3.75583 56.8065 3.75583" fill="#E94235"/>
</g>
</g>
</g>
<path id="Right Text" d="M97.674 15.0006V3.54461H99.402V15.0006H97.674ZM101.605 15.0006V3.54461H103.333V15.0006H101.605ZM108.002 15.2566C107.416 15.2566 106.893 15.1393 106.434 14.9046C105.986 14.6699 105.629 14.3499 105.362 13.9446C105.106 13.5286 104.978 13.0539 104.978 12.5206C104.978 11.9339 105.128 11.4379 105.426 11.0326C105.736 10.6273 106.146 10.3179 106.658 10.1046C107.17 9.89128 107.736 9.78461 108.354 9.78461C108.696 9.78461 109.01 9.81128 109.298 9.86461C109.597 9.90728 109.853 9.96061 110.066 10.0246C110.29 10.0886 110.466 10.1579 110.594 10.2326V9.80061C110.594 9.26728 110.402 8.84061 110.018 8.52061C109.634 8.20061 109.138 8.04061 108.53 8.04061C108.114 8.04061 107.72 8.13661 107.346 8.32861C106.973 8.50994 106.674 8.76061 106.45 9.08061L105.266 8.16861C105.501 7.83794 105.784 7.55528 106.114 7.32061C106.456 7.08594 106.834 6.90461 107.25 6.77661C107.677 6.64861 108.12 6.58461 108.578 6.58461C109.762 6.58461 110.674 6.87794 111.314 7.46461C111.954 8.04061 112.274 8.85128 112.274 9.89661V15.0006H110.594V13.9926H110.498C110.36 14.2059 110.168 14.4086 109.922 14.6006C109.688 14.7926 109.405 14.9473 109.074 15.0646C108.754 15.1926 108.397 15.2566 108.002 15.2566ZM108.306 13.8486C108.754 13.8486 109.149 13.7419 109.49 13.5286C109.842 13.3153 110.114 13.0379 110.306 12.6966C110.498 12.3446 110.594 11.9659 110.594 11.5606C110.36 11.4219 110.072 11.3099 109.73 11.2246C109.4 11.1286 109.048 11.0806 108.674 11.0806C107.97 11.0806 107.469 11.2193 107.17 11.4966C106.872 11.7739 106.722 12.1206 106.722 12.5366C106.722 12.9206 106.866 13.2353 107.154 13.4806C107.442 13.7259 107.826 13.8486 108.306 13.8486Z" fill="white"/>
</g>
</svg>
