<svg width="108" height="21" viewBox="0 0 108 21" fill="none" xmlns="http://www.w3.org/2000/svg">
<g id="fi_buy_with_Pay_NBG">
<path id="Left Text" d="M7.31537 15.2566C6.46204 15.2566 5.67271 15.1019 4.94737 14.7926C4.23271 14.4833 3.60871 14.0566 3.07537 13.5126C2.54204 12.9579 2.12604 12.3233 1.82737 11.6086C1.52871 10.8833 1.37937 10.1046 1.37937 9.27261C1.37937 8.44061 1.52871 7.66728 1.82737 6.95261C2.12604 6.22728 2.54204 5.59261 3.07537 5.04861C3.60871 4.49394 4.23271 4.06194 4.94737 3.75261C5.67271 3.44328 6.46204 3.28861 7.31537 3.28861C8.16871 3.28861 8.95271 3.44328 9.66737 3.75261C10.382 4.06194 11.006 4.49394 11.5394 5.04861C12.0834 5.59261 12.4994 6.22728 12.7874 6.95261C13.086 7.66728 13.2354 8.44061 13.2354 9.27261C13.2354 10.1046 13.086 10.8833 12.7874 11.6086C12.4994 12.3233 12.0834 12.9579 11.5394 13.5126C11.006 14.0566 10.382 14.4833 9.66737 14.7926C8.95271 15.1019 8.16871 15.2566 7.31537 15.2566ZM7.31537 13.5926C8.09404 13.5926 8.79271 13.4113 9.41138 13.0486C10.0407 12.6859 10.542 12.1793 10.9154 11.5286C11.2887 10.8779 11.4754 10.1259 11.4754 9.27261C11.4754 8.40861 11.2887 7.65661 10.9154 7.01661C10.542 6.36594 10.0407 5.85928 9.41138 5.49661C8.79271 5.13394 8.09404 4.95261 7.31537 4.95261C6.54737 4.95261 5.84871 5.13394 5.21937 5.49661C4.59004 5.85928 4.08871 6.36594 3.71537 7.01661C3.34204 7.65661 3.15537 8.40861 3.15537 9.27261C3.15537 10.1259 3.34204 10.8779 3.71537 11.5286C4.08871 12.1793 4.59004 12.6859 5.21937 13.0486C5.84871 13.4113 6.54737 13.5926 7.31537 13.5926ZM18.1059 15.2566C17.4552 15.2566 16.8899 15.1606 16.4099 14.9686C15.9299 14.7659 15.5352 14.4993 15.2259 14.1686C14.9165 13.8273 14.6872 13.4593 14.5379 13.0646L16.0899 12.3926C16.2819 12.8299 16.5539 13.1659 16.9059 13.4006C17.2685 13.6246 17.6845 13.7366 18.1539 13.7366C18.5805 13.7366 18.9485 13.6619 19.2579 13.5126C19.5672 13.3526 19.7219 13.0966 19.7219 12.7446C19.7219 12.5206 19.6472 12.3393 19.4979 12.2006C19.3592 12.0513 19.1672 11.9286 18.9219 11.8326C18.6872 11.7366 18.4152 11.6513 18.1059 11.5766L17.1299 11.3526C16.7459 11.2566 16.3779 11.1073 16.0259 10.9046C15.6845 10.6913 15.4072 10.4246 15.1939 10.1046C14.9805 9.78461 14.8739 9.40594 14.8739 8.96861C14.8739 8.47794 15.0125 8.05661 15.2899 7.70461C15.5779 7.34194 15.9619 7.06461 16.4419 6.87261C16.9219 6.68061 17.4392 6.58461 17.9939 6.58461C18.5059 6.58461 18.9699 6.65394 19.3859 6.79261C19.8125 6.92061 20.1805 7.11794 20.4899 7.38461C20.8099 7.64061 21.0605 7.96061 21.2419 8.34461L19.7539 9.01661C19.5725 8.65394 19.3272 8.40328 19.0179 8.26461C18.7085 8.11528 18.3725 8.04061 18.0099 8.04061C17.6045 8.04061 17.2632 8.12594 16.9859 8.29661C16.7192 8.45661 16.5859 8.66994 16.5859 8.93661C16.5859 9.21394 16.7032 9.43261 16.9379 9.59261C17.1832 9.75261 17.4819 9.88061 17.8339 9.97661L19.0179 10.2646C19.8285 10.4673 20.4365 10.7766 20.8419 11.1926C21.2472 11.5979 21.4499 12.0939 21.4499 12.6806C21.4499 13.2033 21.3005 13.6619 21.0019 14.0566C20.7032 14.4406 20.2979 14.7393 19.7859 14.9526C19.2845 15.1553 18.7245 15.2566 18.1059 15.2566ZM22.4699 6.84061H23.8939V4.53661H25.6219V6.84061H27.6219V8.34461H25.6219V12.2646C25.6219 12.6699 25.7019 12.9793 25.8619 13.1926C26.0325 13.4059 26.3152 13.5126 26.7099 13.5126C26.9019 13.5126 27.0725 13.4859 27.2219 13.4326C27.3712 13.3686 27.5205 13.2939 27.6699 13.2086V14.8886C27.4885 14.9633 27.2965 15.0219 27.0939 15.0646C26.8912 15.1073 26.6512 15.1286 26.3739 15.1286C25.6165 15.1286 25.0139 14.9099 24.5659 14.4726C24.1179 14.0246 23.8939 13.4113 23.8939 12.6326V8.34461H22.4699V6.84061ZM31.8336 15.2566C31.247 15.2566 30.7243 15.1393 30.2656 14.9046C29.8176 14.6699 29.4603 14.3499 29.1936 13.9446C28.9376 13.5286 28.8096 13.0539 28.8096 12.5206C28.8096 11.9339 28.959 11.4379 29.2576 11.0326C29.567 10.6273 29.9776 10.3179 30.4896 10.1046C31.0016 9.89128 31.567 9.78461 32.1856 9.78461C32.527 9.78461 32.8416 9.81128 33.1296 9.86461C33.4283 9.90728 33.6843 9.96061 33.8976 10.0246C34.1216 10.0886 34.2976 10.1579 34.4256 10.2326V9.80061C34.4256 9.26728 34.2336 8.84061 33.8496 8.52061C33.4656 8.20061 32.9696 8.04061 32.3616 8.04061C31.9456 8.04061 31.551 8.13661 31.1776 8.32861C30.8043 8.50994 30.5056 8.76061 30.2816 9.08061L29.0976 8.16861C29.3323 7.83794 29.615 7.55528 29.9456 7.32061C30.287 7.08594 30.6656 6.90461 31.0816 6.77661C31.5083 6.64861 31.951 6.58461 32.4096 6.58461C33.5936 6.58461 34.5056 6.87794 35.1456 7.46461C35.7856 8.04061 36.1056 8.85128 36.1056 9.89661V15.0006H34.4256V13.9926H34.3296C34.191 14.2059 33.999 14.4086 33.7536 14.6006C33.519 14.7926 33.2363 14.9473 32.9056 15.0646C32.5856 15.1926 32.2283 15.2566 31.8336 15.2566ZM32.1376 13.8486C32.5856 13.8486 32.9803 13.7419 33.3216 13.5286C33.6736 13.3153 33.9456 13.0379 34.1376 12.6966C34.3296 12.3446 34.4256 11.9659 34.4256 11.5606C34.191 11.4219 33.903 11.3099 33.5616 11.2246C33.231 11.1286 32.879 11.0806 32.5056 11.0806C31.8016 11.0806 31.3003 11.2193 31.0016 11.4966C30.703 11.7739 30.5536 12.1206 30.5536 12.5366C30.5536 12.9206 30.6976 13.2353 30.9856 13.4806C31.2736 13.7259 31.6576 13.8486 32.1376 13.8486Z" fill="white"/>
<g id="GPay (Dark)">
<g id="GPay">
<g id="Pay">
<path id="Fill 1" fill-rule="evenodd" clip-rule="evenodd" d="M65.3563 3.42339V8.16175H68.2784C68.9745 8.16175 69.5501 7.92781 70.0055 7.45993C70.4728 6.99313 70.707 6.43644 70.707 5.79203C70.707 5.16061 70.4728 4.61041 70.0055 4.14254C69.5501 3.66274 68.9745 3.4223 68.2784 3.4223H65.3563V3.42339ZM65.3563 9.82966V15.3262H63.6107V1.75549H68.2404C69.4169 1.75549 70.4154 2.14756 71.2383 2.93061C72.0732 3.71365 72.4906 4.66782 72.4906 5.79203C72.4906 6.94224 72.0731 7.90291 71.2383 8.67296C70.4283 9.44409 69.4287 9.82858 68.2404 9.82858H65.3563V9.82966Z" fill="white"/>
<path id="Fill 3" fill-rule="evenodd" clip-rule="evenodd" d="M74.2546 12.4831C74.2546 12.9379 74.4476 13.317 74.8337 13.6203C75.2195 13.9235 75.6717 14.0752 76.19 14.0752C76.9239 14.0752 77.5777 13.8032 78.1535 13.2607C78.7293 12.717 79.0165 12.0791 79.0165 11.3469C78.4722 10.917 77.7133 10.7025 76.7396 10.7025C76.0306 10.7025 75.4397 10.8736 74.9659 11.2148C74.492 11.5559 74.2546 11.9773 74.2546 12.4831M76.513 5.73566C77.8033 5.73566 78.8214 6.08007 79.5685 6.76889C80.3145 7.45771 80.6873 8.40213 80.6873 9.60216V15.3261H79.0177V14.0373H78.9417C78.2207 15.0985 77.259 15.6294 76.0578 15.6294C75.0332 15.6294 74.1755 15.3261 73.4869 14.7196C72.7975 14.1131 72.4527 13.3549 72.4527 12.4452C72.4527 11.4845 72.8158 10.7208 73.5433 10.1523C74.2708 9.58375 75.2413 9.2989 76.4557 9.2989C77.4921 9.2989 78.3465 9.48844 79.0165 9.86751V9.46894C79.0165 8.86243 78.7758 8.34798 78.2956 7.92451C77.8141 7.50103 77.2525 7.28984 76.6074 7.28984C75.6326 7.28984 74.8618 7.70032 74.2926 8.52235L72.7551 7.55519C73.6029 6.34217 74.8552 5.73566 76.513 5.73566" fill="white"/>
<path id="Fill 5" fill-rule="evenodd" clip-rule="evenodd" d="M90.2687 6.03894L84.4432 19.4201H82.6411L84.8043 14.738L80.9714 6.03894H82.8688L85.639 12.7106H85.677L88.3713 6.03894H90.2687Z" fill="white"/>
</g>
<g id="G">
<path id="Fill 8" fill-rule="evenodd" clip-rule="evenodd" d="M58.3029 8.64473C58.3029 8.09563 58.2562 7.56601 58.1684 7.05914H50.8065V10.0625H55.0231C54.842 11.0414 54.2944 11.8744 53.4639 12.4322V14.3828H55.9804C57.4539 13.0246 58.3029 11.0177 58.3029 8.64473" fill="#4285F4"/>
<path id="Fill 10" fill-rule="evenodd" clip-rule="evenodd" d="M50.8065 16.2651C52.9131 16.2651 54.6869 15.5741 55.9804 14.3828L53.4639 12.4322C52.7635 12.9033 51.8614 13.1784 50.8065 13.1784C48.7703 13.1784 47.042 11.8073 46.424 9.95959H43.8316V11.9687C45.1164 14.516 47.7565 16.2651 50.8065 16.2651" fill="#34A853"/>
<path id="Fill 12" fill-rule="evenodd" clip-rule="evenodd" d="M46.424 9.9596C46.2657 9.48847 46.179 8.98593 46.179 8.46715C46.179 7.94837 46.2657 7.44583 46.424 6.9747V4.96564H43.8316C43.3003 6.01837 43 7.20756 43 8.46715C43 9.72674 43.3003 10.916 43.8316 11.9687L46.424 9.9596Z" fill="#FABB05"/>
<path id="Fill 14" fill-rule="evenodd" clip-rule="evenodd" d="M50.8065 3.75583C51.9568 3.75583 52.9879 4.15115 53.8011 4.92553V4.92661L56.0292 2.70094C54.6761 1.44243 52.912 0.669128 50.8065 0.669128C47.7565 0.669128 45.1164 2.41826 43.8316 4.9656L46.424 6.97467C47.042 5.12698 48.7703 3.75583 50.8065 3.75583" fill="#E94235"/>
</g>
</g>
</g>
<path id="Right Text" d="M91.674 15.0006V3.54461H93.402V15.0006H91.674ZM95.6052 15.0006V3.54461H97.3332V15.0006H95.6052ZM102.002 15.2566C101.416 15.2566 100.893 15.1393 100.434 14.9046C99.9864 14.6699 99.629 14.3499 99.3624 13.9446C99.1064 13.5286 98.9784 13.0539 98.9784 12.5206C98.9784 11.9339 99.1277 11.4379 99.4264 11.0326C99.7357 10.6273 100.146 10.3179 100.658 10.1046C101.17 9.89128 101.736 9.78461 102.354 9.78461C102.696 9.78461 103.01 9.81128 103.298 9.86461C103.597 9.90728 103.853 9.96061 104.066 10.0246C104.29 10.0886 104.466 10.1579 104.594 10.2326V9.80061C104.594 9.26728 104.402 8.84061 104.018 8.52061C103.634 8.20061 103.138 8.04061 102.53 8.04061C102.114 8.04061 101.72 8.13661 101.346 8.32861C100.973 8.50994 100.674 8.76061 100.45 9.08061L99.2664 8.16861C99.501 7.83794 99.7837 7.55528 100.114 7.32061C100.456 7.08594 100.834 6.90461 101.25 6.77661C101.677 6.64861 102.12 6.58461 102.578 6.58461C103.762 6.58461 104.674 6.87794 105.314 7.46461C105.954 8.04061 106.274 8.85128 106.274 9.89661V15.0006H104.594V13.9926H104.498C104.36 14.2059 104.168 14.4086 103.922 14.6006C103.688 14.7926 103.405 14.9473 103.074 15.0646C102.754 15.1926 102.397 15.2566 102.002 15.2566ZM102.306 13.8486C102.754 13.8486 103.149 13.7419 103.49 13.5286C103.842 13.3153 104.114 13.0379 104.306 12.6966C104.498 12.3446 104.594 11.9659 104.594 11.5606C104.36 11.4219 104.072 11.3099 103.73 11.2246C103.4 11.1286 103.048 11.0806 102.674 11.0806C101.97 11.0806 101.469 11.2193 101.17 11.4966C100.872 11.7739 100.722 12.1206 100.722 12.5366C100.722 12.9206 100.866 13.2353 101.154 13.4806C101.442 13.7259 101.826 13.8486 102.306 13.8486Z" fill="white"/>
</g>
</svg>
