<svg width="242" height="38" viewBox="0 0 242 38" fill="none" xmlns="http://www.w3.org/2000/svg">
<g id="fi_donate_with_Light">
<path id="Left Text" d="M3.3555 30V9.952H6.4355V27.088H15.0595V30H3.3555ZM22.4792 30.448C21.4525 30.448 20.5378 30.252 19.7352 29.86C18.9325 29.4493 18.3072 28.88 17.8592 28.152C17.4112 27.424 17.1872 26.5933 17.1872 25.66C17.1872 24.652 17.4485 23.7933 17.9712 23.084C18.5125 22.356 19.2312 21.8053 20.1272 21.432C21.0232 21.0587 22.0125 20.872 23.0952 20.872C23.9912 20.872 24.7752 20.956 25.4472 21.124C26.1378 21.292 26.6605 21.4693 27.0152 21.656V20.9C27.0152 19.9667 26.6792 19.22 26.0072 18.66C25.3352 18.1 24.4672 17.82 23.4032 17.82C22.6752 17.82 21.9845 17.988 21.3312 18.324C20.6778 18.6413 20.1552 19.08 19.7632 19.64L17.6912 18.044C18.3072 17.1853 19.1192 16.5133 20.1272 16.028C21.1538 15.524 22.2738 15.272 23.4872 15.272C25.5592 15.272 27.1552 15.7853 28.2752 16.812C29.3952 17.82 29.9552 19.2387 29.9552 21.068V30H27.0152V28.236H26.8472C26.4738 28.8147 25.9138 29.328 25.1672 29.776C24.4205 30.224 23.5245 30.448 22.4792 30.448ZM23.0112 27.984C23.7952 27.984 24.4858 27.7973 25.0832 27.424C25.6805 27.0507 26.1472 26.5653 26.4832 25.968C26.8378 25.352 27.0152 24.6893 27.0152 23.98C26.5858 23.7373 26.0818 23.5413 25.5032 23.392C24.9245 23.224 24.3085 23.14 23.6552 23.14C22.4232 23.14 21.5458 23.392 21.0232 23.896C20.5005 24.3813 20.2392 24.9787 20.2392 25.688C20.2392 26.36 20.4912 26.9107 20.9952 27.34C21.4992 27.7693 22.1712 27.984 23.0112 27.984ZM33.5843 30V9.952H36.6083V15.44L36.4403 17.68H36.6083C37.0003 16.9893 37.5976 16.42 38.4003 15.972C39.2216 15.5053 40.127 15.272 41.1163 15.272C42.8896 15.272 44.2243 15.804 45.1203 16.868C46.0163 17.9133 46.4643 19.2853 46.4643 20.984V30H43.4683V21.376C43.4683 20.2187 43.1603 19.3787 42.5443 18.856C41.947 18.3147 41.2096 18.044 40.3323 18.044C39.6043 18.044 38.9603 18.2493 38.4003 18.66C37.8403 19.0707 37.4016 19.612 37.0843 20.284C36.767 20.9373 36.6083 21.6373 36.6083 22.384V30H33.5843ZM51.9445 13.62C51.3845 13.62 50.8992 13.424 50.4885 13.032C50.0965 12.6213 49.9005 12.136 49.9005 11.576C49.9005 11.016 50.0965 10.54 50.4885 10.148C50.8992 9.756 51.3845 9.56 51.9445 9.56C52.5045 9.56 52.9805 9.756 53.3725 10.148C53.7832 10.54 53.9885 11.016 53.9885 11.576C53.9885 12.136 53.7832 12.6213 53.3725 13.032C52.9805 13.424 52.5045 13.62 51.9445 13.62ZM49.2285 36.328C48.6499 36.328 48.1272 36.2627 47.6605 36.132V33.22C47.8472 33.332 48.0619 33.416 48.3045 33.472C48.5285 33.5467 48.7525 33.584 48.9765 33.584C49.5179 33.584 49.8912 33.416 50.0965 33.08C50.3205 32.7627 50.4325 32.296 50.4325 31.68V15.72H53.4565V31.708C53.4565 33.3507 53.0552 34.5267 52.2525 35.236C51.4499 35.964 50.4419 36.328 49.2285 36.328ZM64.0918 30.448C62.6171 30.448 61.3198 30.112 60.1998 29.44C59.0798 28.768 58.2025 27.8627 57.5678 26.724C56.9331 25.5853 56.6158 24.2973 56.6158 22.86C56.6158 21.4413 56.9331 20.1627 57.5678 19.024C58.2025 17.8667 59.0798 16.952 60.1998 16.28C61.3198 15.608 62.6171 15.272 64.0918 15.272C65.5478 15.272 66.8358 15.608 67.9558 16.28C69.0758 16.952 69.9531 17.8667 70.5878 19.024C71.2225 20.1627 71.5398 21.4413 71.5398 22.86C71.5398 24.2973 71.2225 25.5853 70.5878 26.724C69.9531 27.8627 69.0758 28.768 67.9558 29.44C66.8358 30.112 65.5478 30.448 64.0918 30.448ZM64.0918 27.676C64.8758 27.676 65.6038 27.4893 66.2758 27.116C66.9478 26.724 67.4891 26.1733 67.8998 25.464C68.3291 24.736 68.5438 23.868 68.5438 22.86C68.5438 21.852 68.3291 20.9933 67.8998 20.284C67.4891 19.556 66.9478 19.0053 66.2758 18.632C65.6038 18.24 64.8758 18.044 64.0918 18.044C63.3078 18.044 62.5705 18.24 61.8798 18.632C61.2078 19.0053 60.6571 19.556 60.2278 20.284C59.8171 20.9933 59.6118 21.852 59.6118 22.86C59.6118 23.868 59.8171 24.736 60.2278 25.464C60.6571 26.1733 61.2078 26.724 61.8798 27.116C62.5705 27.4893 63.3078 27.676 64.0918 27.676ZM76.0875 13.62C75.5275 13.62 75.0422 13.424 74.6315 13.032C74.2395 12.6213 74.0435 12.136 74.0435 11.576C74.0435 11.016 74.2395 10.54 74.6315 10.148C75.0422 9.756 75.5275 9.56 76.0875 9.56C76.6475 9.56 77.1235 9.756 77.5155 10.148C77.9262 10.54 78.1315 11.016 78.1315 11.576C78.1315 12.136 77.9262 12.6213 77.5155 13.032C77.1235 13.424 76.6475 13.62 76.0875 13.62ZM74.5755 30V15.72H77.5995V30H74.5755ZM83.0268 25.856V18.352H80.5348V15.72H83.0268V11.688H86.0508V15.72H89.5508V18.352H86.0508V25.212C86.0508 25.9213 86.1908 26.4627 86.4708 26.836C86.7695 27.2093 87.2641 27.396 87.9548 27.396C88.3095 27.396 88.6081 27.3493 88.8508 27.256C89.1121 27.1627 89.3735 27.032 89.6348 26.864V29.804C89.3175 29.9347 88.9815 30.0373 88.6268 30.112C88.2721 30.1867 87.8521 30.224 87.3668 30.224C86.0415 30.224 84.9868 29.8413 84.2028 29.076C83.4188 28.292 83.0268 27.2187 83.0268 25.856ZM96.9588 30.448C95.9322 30.448 95.0175 30.252 94.2148 29.86C93.4122 29.4493 92.7868 28.88 92.3388 28.152C91.8908 27.424 91.6668 26.5933 91.6668 25.66C91.6668 24.652 91.9282 23.7933 92.4508 23.084C92.9922 22.356 93.7108 21.8053 94.6068 21.432C95.5028 21.0587 96.4922 20.872 97.5748 20.872C98.4708 20.872 99.2548 20.956 99.9268 21.124C100.618 21.292 101.14 21.4693 101.495 21.656V20.9C101.495 19.9667 101.159 19.22 100.487 18.66C99.8148 18.1 98.9468 17.82 97.8828 17.82C97.1548 17.82 96.4642 17.988 95.8108 18.324C95.1575 18.6413 94.6348 19.08 94.2428 19.64L92.1708 18.044C92.7868 17.1853 93.5988 16.5133 94.6068 16.028C95.6335 15.524 96.7535 15.272 97.9668 15.272C100.039 15.272 101.635 15.7853 102.755 16.812C103.875 17.82 104.435 19.2387 104.435 21.068V30H101.495V28.236H101.327C100.954 28.8147 100.394 29.328 99.6468 29.776C98.9002 30.224 98.0042 30.448 96.9588 30.448ZM97.4908 27.984C98.2748 27.984 98.9655 27.7973 99.5628 27.424C100.16 27.0507 100.627 26.5653 100.963 25.968C101.318 25.352 101.495 24.6893 101.495 23.98C101.066 23.7373 100.562 23.5413 99.9828 23.392C99.4042 23.224 98.7882 23.14 98.1348 23.14C96.9028 23.14 96.0255 23.392 95.5028 23.896C94.9802 24.3813 94.7188 24.9787 94.7188 25.688C94.7188 26.36 94.9708 26.9107 95.4748 27.34C95.9788 27.7693 96.6508 27.984 97.4908 27.984Z" fill="#3C4043"/>
<g id="GPay Logo (Light)">
<g id="GPay">
<g id="Pay">
<path id="Fill 1" fill-rule="evenodd" clip-rule="evenodd" d="M156.529 9.44664V17.6128H161.565C162.765 17.6128 163.757 17.2096 164.541 16.4032C165.347 15.5988 165.75 14.6394 165.75 13.5288C165.75 12.4406 165.347 11.4924 164.541 10.686C163.757 9.85915 162.765 9.44478 161.565 9.44478H156.529V9.44664ZM156.529 20.4872V29.9599H153.521V6.57217H161.499C163.527 6.57217 165.248 7.24786 166.666 8.59737C168.105 9.94688 168.824 11.5913 168.824 13.5288C168.824 15.511 168.105 17.1667 166.666 18.4938C165.27 19.8227 163.547 20.4854 161.499 20.4854H156.529V20.4872Z" fill="#5F6368"/>
<path id="Fill 3" fill-rule="evenodd" clip-rule="evenodd" d="M171.864 25.0602C171.864 25.8442 172.197 26.4975 172.862 27.0201C173.527 27.5427 174.306 27.804 175.2 27.804C176.465 27.804 177.591 27.3354 178.584 26.4004C179.576 25.4634 180.071 24.364 180.071 23.1022C179.133 22.3612 177.825 21.9916 176.147 21.9916C174.925 21.9916 173.907 22.2865 173.09 22.8745C172.273 23.4623 171.864 24.1886 171.864 25.0602ZM175.756 13.4317C177.98 13.4317 179.735 14.0252 181.022 15.2124C182.308 16.3995 182.95 18.0271 182.95 20.0952V29.9599H180.073V27.7387H179.942C178.699 29.5677 177.042 30.4825 174.972 30.4825C173.206 30.4825 171.728 29.9599 170.541 28.9146C169.353 27.8694 168.759 26.5628 168.759 24.9949C168.759 23.3393 169.385 22.0232 170.638 21.0434C171.892 20.0635 173.565 19.5726 175.658 19.5726C177.444 19.5726 178.916 19.8992 180.071 20.5525V19.8656C180.071 18.8204 179.656 17.9338 178.829 17.204C177.999 16.4741 177.031 16.1102 175.919 16.1102C174.239 16.1102 172.911 16.8176 171.93 18.2343L169.28 16.5675C170.741 14.4769 172.899 13.4317 175.756 13.4317Z" fill="#5F6368"/>
<path id="Fill 5" fill-rule="evenodd" clip-rule="evenodd" d="M199.463 13.9543L189.423 37.0154H186.318L190.046 28.9464L183.44 13.9543H186.71L191.484 25.4522H191.55L196.193 13.9543H199.463Z" fill="#5F6368"/>
</g>
<g id="G">
<path id="Fill 8" fill-rule="evenodd" clip-rule="evenodd" d="M144.373 18.4452C144.373 17.4989 144.293 16.5861 144.141 15.7126H131.454V20.8885H138.72C138.408 22.5757 137.465 24.0112 136.033 24.9725V28.3341H140.37C142.91 25.9935 144.373 22.5348 144.373 18.4452Z" fill="#4285F4"/>
<path id="Fill 10" fill-rule="evenodd" clip-rule="evenodd" d="M131.454 31.5782C135.084 31.5782 138.141 30.3873 140.37 28.3341L136.033 24.9725C134.826 25.7844 133.272 26.2585 131.454 26.2585C127.944 26.2585 124.966 23.8955 123.901 20.7112H119.433V24.1736C121.647 28.5637 126.197 31.5782 131.454 31.5782Z" fill="#34A853"/>
<path id="Fill 12" fill-rule="evenodd" clip-rule="evenodd" d="M123.901 20.7111C123.628 19.8992 123.479 19.0331 123.479 18.139C123.479 17.245 123.628 16.3789 123.901 15.567V12.1045H119.433C118.518 13.9188 118 15.9683 118 18.139C118 20.3098 118.518 22.3595 119.433 24.1736L123.901 20.7111Z" fill="#FABB05"/>
<path id="Fill 14" fill-rule="evenodd" clip-rule="evenodd" d="M131.454 10.0196C133.436 10.0196 135.213 10.7009 136.615 12.0355V12.0374L140.455 8.20162C138.123 6.03271 135.082 4.7 131.454 4.7C126.197 4.7 121.647 7.71446 119.433 12.1046L123.901 15.567C124.966 12.3827 127.944 10.0196 131.454 10.0196Z" fill="#E94235"/>
</g>
</g>
</g>
<path id="Right Text" d="M212.792 30V9.952H215.816V30H212.792ZM219.709 30V9.952H222.733V30H219.709ZM230.942 30.448C229.915 30.448 229 30.252 228.198 29.86C227.395 29.4493 226.77 28.88 226.322 28.152C225.874 27.424 225.65 26.5933 225.65 25.66C225.65 24.652 225.911 23.7933 226.434 23.084C226.975 22.356 227.694 21.8053 228.59 21.432C229.486 21.0587 230.475 20.872 231.558 20.872C232.454 20.872 233.238 20.956 233.91 21.124C234.6 21.292 235.123 21.4693 235.478 21.656V20.9C235.478 19.9667 235.142 19.22 234.47 18.66C233.798 18.1 232.93 17.82 231.866 17.82C231.138 17.82 230.447 17.988 229.794 18.324C229.14 18.6413 228.618 19.08 228.226 19.64L226.154 18.044C226.77 17.1853 227.582 16.5133 228.59 16.028C229.616 15.524 230.736 15.272 231.95 15.272C234.022 15.272 235.618 15.7853 236.738 16.812C237.858 17.82 238.418 19.2387 238.418 21.068V30H235.478V28.236H235.31C234.936 28.8147 234.376 29.328 233.63 29.776C232.883 30.224 231.987 30.448 230.942 30.448ZM231.474 27.984C232.258 27.984 232.948 27.7973 233.546 27.424C234.143 27.0507 234.61 26.5653 234.946 25.968C235.3 25.352 235.478 24.6893 235.478 23.98C235.048 23.7373 234.544 23.5413 233.966 23.392C233.387 23.224 232.771 23.14 232.118 23.14C230.886 23.14 230.008 23.392 229.486 23.896C228.963 24.3813 228.702 24.9787 228.702 25.688C228.702 26.36 228.954 26.9107 229.458 27.34C229.962 27.7693 230.634 27.984 231.474 27.984Z" fill="#3C4043"/>
</g>
</svg>
