<svg width="131" height="21" viewBox="0 0 131 21" fill="none" xmlns="http://www.w3.org/2000/svg">
<g id="fi_donate_with_Pay_NBG">
<path id="Left Text" d="M1.496 15.0006V3.54461H3.256V13.3366H8.184V15.0006H1.496ZM12.4024 15.2566C11.8157 15.2566 11.293 15.1393 10.8344 14.9046C10.3864 14.6699 10.029 14.3499 9.76238 13.9446C9.50638 13.5286 9.37838 13.0539 9.37838 12.5206C9.37838 11.9339 9.52771 11.4379 9.82638 11.0326C10.1357 10.6273 10.5464 10.3179 11.0584 10.1046C11.5704 9.89128 12.1357 9.78461 12.7544 9.78461C13.0957 9.78461 13.4104 9.81128 13.6984 9.86461C13.997 9.90728 14.253 9.96061 14.4664 10.0246C14.6904 10.0886 14.8664 10.1579 14.9944 10.2326V9.80061C14.9944 9.26728 14.8024 8.84061 14.4184 8.52061C14.0344 8.20061 13.5384 8.04061 12.9304 8.04061C12.5144 8.04061 12.1197 8.13661 11.7464 8.32861C11.373 8.50994 11.0744 8.76061 10.8504 9.08061L9.66638 8.16861C9.90104 7.83794 10.1837 7.55528 10.5144 7.32061C10.8557 7.08594 11.2344 6.90461 11.6504 6.77661C12.077 6.64861 12.5197 6.58461 12.9784 6.58461C14.1624 6.58461 15.0744 6.87794 15.7144 7.46461C16.3544 8.04061 16.6744 8.85128 16.6744 9.89661V15.0006H14.9944V13.9926H14.8984C14.7597 14.2059 14.5677 14.4086 14.3224 14.6006C14.0877 14.7926 13.805 14.9473 13.4744 15.0646C13.1544 15.1926 12.797 15.2566 12.4024 15.2566ZM12.7064 13.8486C13.1544 13.8486 13.549 13.7419 13.8904 13.5286C14.2424 13.3153 14.5144 13.0379 14.7064 12.6966C14.8984 12.3446 14.9944 11.9659 14.9944 11.5606C14.7597 11.4219 14.4717 11.3099 14.1304 11.2246C13.7997 11.1286 13.4477 11.0806 13.0744 11.0806C12.3704 11.0806 11.869 11.2193 11.5704 11.4966C11.2717 11.7739 11.1224 12.1206 11.1224 12.5366C11.1224 12.9206 11.2664 13.2353 11.5544 13.4806C11.8424 13.7259 12.2264 13.8486 12.7064 13.8486ZM18.7268 15.0006V3.54461H20.4548V6.68061L20.3588 7.96061H20.4548C20.6788 7.56594 21.0201 7.24061 21.4788 6.98461C21.9481 6.71794 22.4654 6.58461 23.0308 6.58461C23.7134 6.58461 24.2788 6.72328 24.7268 7.00061C25.1854 7.27794 25.5268 7.66194 25.7508 8.15261C25.9748 8.63261 26.0868 9.19794 26.0868 9.84861V15.0006H24.3748V10.0726C24.3748 9.63528 24.2894 9.27794 24.1188 9.00061C23.9588 8.72328 23.7454 8.51528 23.4788 8.37661C23.2121 8.23794 22.9134 8.16861 22.5828 8.16861C22.1668 8.16861 21.7988 8.28594 21.4788 8.52061C21.1588 8.75528 20.9081 9.06461 20.7268 9.44861C20.5454 9.82194 20.4548 10.2219 20.4548 10.6486V15.0006H18.7268ZM27.6449 18.6166C27.4742 18.6166 27.3195 18.6059 27.1809 18.5846C27.0315 18.5633 26.8875 18.5366 26.7489 18.5046V16.8406C26.8449 16.8939 26.9622 16.9419 27.1009 16.9846C27.2395 17.0273 27.3729 17.0486 27.5009 17.0486C27.7995 17.0486 28.0129 16.9526 28.1409 16.7606C28.2689 16.5793 28.3329 16.3126 28.3329 15.9606V6.84061H30.0609V15.9766C30.0609 16.6059 29.9542 17.1126 29.7409 17.4966C29.5382 17.8806 29.2555 18.1633 28.8929 18.3446C28.5302 18.5259 28.1142 18.6166 27.6449 18.6166ZM29.1969 5.64061C28.8769 5.64061 28.5995 5.52861 28.3649 5.30461C28.1409 5.06994 28.0289 4.79261 28.0289 4.47261C28.0289 4.14194 28.1409 3.86994 28.3649 3.65661C28.5995 3.43261 28.8769 3.32061 29.1969 3.32061C29.5275 3.32061 29.8049 3.43261 30.0289 3.65661C30.2529 3.86994 30.3649 4.14194 30.3649 4.47261C30.3649 4.79261 30.2529 5.06994 30.0289 5.30461C29.8049 5.52861 29.5275 5.64061 29.1969 5.64061ZM36.1168 15.2566C35.2741 15.2566 34.5328 15.0646 33.8928 14.6806C33.2528 14.2966 32.7514 13.7793 32.3888 13.1286C32.0261 12.4673 31.8448 11.7313 31.8448 10.9206C31.8448 10.1099 32.0261 9.37928 32.3888 8.72861C32.7514 8.06728 33.2528 7.54461 33.8928 7.16061C34.5328 6.77661 35.2741 6.58461 36.1168 6.58461C36.9488 6.58461 37.6848 6.78194 38.3248 7.17661C38.9648 7.56061 39.4661 8.07794 39.8288 8.72861C40.1914 9.37928 40.3728 10.1099 40.3728 10.9206C40.3728 11.7313 40.1914 12.4673 39.8288 13.1286C39.4661 13.7793 38.9648 14.2966 38.3248 14.6806C37.6848 15.0646 36.9488 15.2566 36.1168 15.2566ZM36.1168 13.6726C36.5648 13.6726 36.9808 13.5659 37.3648 13.3526C37.7488 13.1286 38.0581 12.8139 38.2928 12.4086C38.5381 11.9926 38.6608 11.4966 38.6608 10.9206C38.6608 10.3446 38.5381 9.85394 38.2928 9.44861C38.0581 9.03261 37.7488 8.71794 37.3648 8.50461C36.9808 8.28061 36.5648 8.16861 36.1168 8.16861C35.6688 8.16861 35.2474 8.28061 34.8528 8.50461C34.4688 8.71794 34.1541 9.03261 33.9088 9.44861C33.6741 9.85394 33.5568 10.3446 33.5568 10.9206C33.5568 11.4966 33.6741 11.9926 33.9088 12.4086C34.1541 12.8139 34.4741 13.1286 34.8688 13.3526C35.2634 13.5659 35.6794 13.6726 36.1168 13.6726ZM42.086 15.0006V6.84061H43.814V15.0006H42.086ZM42.95 5.64061C42.63 5.64061 42.3527 5.52861 42.118 5.30461C41.894 5.06994 41.782 4.79261 41.782 4.47261C41.782 4.14194 41.894 3.86994 42.118 3.65661C42.3527 3.43261 42.63 3.32061 42.95 3.32061C43.2807 3.32061 43.558 3.43261 43.782 3.65661C44.006 3.86994 44.118 4.14194 44.118 4.47261C44.118 4.79261 44.006 5.06994 43.782 5.30461C43.558 5.52861 43.2807 5.64061 42.95 5.64061ZM45.4699 6.84061H46.8939V4.53661H48.6219V6.84061H50.6219V8.34461H48.6219V12.2646C48.6219 12.6699 48.7019 12.9793 48.8619 13.1926C49.0325 13.4059 49.3152 13.5126 49.7099 13.5126C49.9019 13.5126 50.0725 13.4859 50.2219 13.4326C50.3712 13.3686 50.5205 13.2939 50.6699 13.2086V14.8886C50.4885 14.9633 50.2965 15.0219 50.0939 15.0646C49.8912 15.1073 49.6512 15.1286 49.3739 15.1286C48.6165 15.1286 48.0139 14.9099 47.5659 14.4726C47.1179 14.0246 46.8939 13.4113 46.8939 12.6326V8.34461H45.4699V6.84061ZM54.8336 15.2566C54.247 15.2566 53.7243 15.1393 53.2656 14.9046C52.8176 14.6699 52.4603 14.3499 52.1936 13.9446C51.9376 13.5286 51.8096 13.0539 51.8096 12.5206C51.8096 11.9339 51.959 11.4379 52.2576 11.0326C52.567 10.6273 52.9776 10.3179 53.4896 10.1046C54.0016 9.89128 54.567 9.78461 55.1856 9.78461C55.527 9.78461 55.8416 9.81128 56.1296 9.86461C56.4283 9.90728 56.6843 9.96061 56.8976 10.0246C57.1216 10.0886 57.2976 10.1579 57.4256 10.2326V9.80061C57.4256 9.26728 57.2336 8.84061 56.8496 8.52061C56.4656 8.20061 55.9696 8.04061 55.3616 8.04061C54.9456 8.04061 54.551 8.13661 54.1776 8.32861C53.8043 8.50994 53.5056 8.76061 53.2816 9.08061L52.0976 8.16861C52.3323 7.83794 52.615 7.55528 52.9456 7.32061C53.287 7.08594 53.6656 6.90461 54.0816 6.77661C54.5083 6.64861 54.951 6.58461 55.4096 6.58461C56.5936 6.58461 57.5056 6.87794 58.1456 7.46461C58.7856 8.04061 59.1056 8.85128 59.1056 9.89661V15.0006H57.4256V13.9926H57.3296C57.191 14.2059 56.999 14.4086 56.7536 14.6006C56.519 14.7926 56.2363 14.9473 55.9056 15.0646C55.5856 15.1926 55.2283 15.2566 54.8336 15.2566ZM55.1376 13.8486C55.5856 13.8486 55.9803 13.7419 56.3216 13.5286C56.6736 13.3153 56.9456 13.0379 57.1376 12.6966C57.3296 12.3446 57.4256 11.9659 57.4256 11.5606C57.191 11.4219 56.903 11.3099 56.5616 11.2246C56.231 11.1286 55.879 11.0806 55.5056 11.0806C54.8016 11.0806 54.3003 11.2193 54.0016 11.4966C53.703 11.7739 53.5536 12.1206 53.5536 12.5366C53.5536 12.9206 53.6976 13.2353 53.9856 13.4806C54.2736 13.7259 54.6576 13.8486 55.1376 13.8486Z" fill="white"/>
<g id="GPay (Dark)">
<g id="GPay">
<g id="Pay">
<path id="Fill 1" fill-rule="evenodd" clip-rule="evenodd" d="M88.3563 3.42339V8.16175H91.2784C91.9745 8.16175 92.5501 7.92781 93.0055 7.45993C93.4728 6.99313 93.707 6.43644 93.707 5.79203C93.707 5.16061 93.4728 4.61041 93.0055 4.14254C92.5501 3.66274 91.9745 3.4223 91.2784 3.4223H88.3563V3.42339ZM88.3563 9.82966V15.3262H86.6107V1.75549H91.2404C92.4169 1.75549 93.4154 2.14756 94.2383 2.93061C95.0732 3.71365 95.4906 4.66782 95.4906 5.79203C95.4906 6.94224 95.0731 7.90291 94.2383 8.67296C93.4283 9.44409 92.4287 9.82858 91.2404 9.82858H88.3563V9.82966Z" fill="white"/>
<path id="Fill 3" fill-rule="evenodd" clip-rule="evenodd" d="M97.2546 12.4831C97.2546 12.9379 97.4476 13.317 97.8337 13.6203C98.2195 13.9235 98.6717 14.0752 99.19 14.0752C99.9239 14.0752 100.578 13.8032 101.153 13.2607C101.729 12.717 102.017 12.0791 102.017 11.3469C101.472 10.917 100.713 10.7025 99.7396 10.7025C99.0306 10.7025 98.4397 10.8736 97.9659 11.2148C97.492 11.5559 97.2546 11.9773 97.2546 12.4831M99.513 5.73566C100.803 5.73566 101.821 6.08007 102.569 6.76889C103.314 7.45771 103.687 8.40213 103.687 9.60216V15.3261H102.018V14.0373H101.942C101.221 15.0985 100.259 15.6294 99.0578 15.6294C98.0332 15.6294 97.1755 15.3261 96.4869 14.7196C95.7975 14.1131 95.4527 13.3549 95.4527 12.4452C95.4527 11.4845 95.8158 10.7208 96.5433 10.1523C97.2708 9.58375 98.2413 9.2989 99.4557 9.2989C100.492 9.2989 101.346 9.48844 102.017 9.86751V9.46894C102.017 8.86243 101.776 8.34798 101.296 7.92451C100.814 7.50103 100.252 7.28984 99.6074 7.28984C98.6326 7.28984 97.8618 7.70032 97.2926 8.52235L95.7551 7.55519C96.6029 6.34217 97.8552 5.73566 99.513 5.73566" fill="white"/>
<path id="Fill 5" fill-rule="evenodd" clip-rule="evenodd" d="M113.269 6.03894L107.443 19.4201H105.641L107.804 14.738L103.971 6.03894H105.869L108.639 12.7106H108.677L111.371 6.03894H113.269Z" fill="white"/>
</g>
<g id="G">
<path id="Fill 8" fill-rule="evenodd" clip-rule="evenodd" d="M81.3029 8.64473C81.3029 8.09563 81.2562 7.56601 81.1684 7.05914H73.8065V10.0625H78.0231C77.842 11.0414 77.2944 11.8744 76.4639 12.4322V14.3828H78.9804C80.4539 13.0246 81.3029 11.0177 81.3029 8.64473" fill="#4285F4"/>
<path id="Fill 10" fill-rule="evenodd" clip-rule="evenodd" d="M73.8065 16.2651C75.9131 16.2651 77.6869 15.5741 78.9804 14.3828L76.4639 12.4322C75.7635 12.9033 74.8614 13.1784 73.8065 13.1784C71.7703 13.1784 70.042 11.8073 69.424 9.95959H66.8316V11.9687C68.1164 14.516 70.7565 16.2651 73.8065 16.2651" fill="#34A853"/>
<path id="Fill 12" fill-rule="evenodd" clip-rule="evenodd" d="M69.424 9.9596C69.2657 9.48847 69.179 8.98593 69.179 8.46715C69.179 7.94837 69.2657 7.44583 69.424 6.9747V4.96564H66.8316C66.3003 6.01837 66 7.20756 66 8.46715C66 9.72674 66.3003 10.916 66.8316 11.9687L69.424 9.9596Z" fill="#FABB05"/>
<path id="Fill 14" fill-rule="evenodd" clip-rule="evenodd" d="M73.8065 3.75583C74.9568 3.75583 75.9879 4.15115 76.8011 4.92553V4.92661L79.0292 2.70094C77.6761 1.44243 75.912 0.669128 73.8065 0.669128C70.7565 0.669128 68.1164 2.41826 66.8316 4.9656L69.424 6.97467C70.042 5.12698 71.7703 3.75583 73.8065 3.75583" fill="#E94235"/>
</g>
</g>
</g>
<path id="Right Text" d="M114.674 15.0006V3.54461H116.402V15.0006H114.674ZM118.605 15.0006V3.54461H120.333V15.0006H118.605ZM125.002 15.2566C124.416 15.2566 123.893 15.1393 123.434 14.9046C122.986 14.6699 122.629 14.3499 122.362 13.9446C122.106 13.5286 121.978 13.0539 121.978 12.5206C121.978 11.9339 122.128 11.4379 122.426 11.0326C122.736 10.6273 123.146 10.3179 123.658 10.1046C124.17 9.89128 124.736 9.78461 125.354 9.78461C125.696 9.78461 126.01 9.81128 126.298 9.86461C126.597 9.90728 126.853 9.96061 127.066 10.0246C127.29 10.0886 127.466 10.1579 127.594 10.2326V9.80061C127.594 9.26728 127.402 8.84061 127.018 8.52061C126.634 8.20061 126.138 8.04061 125.53 8.04061C125.114 8.04061 124.72 8.13661 124.346 8.32861C123.973 8.50994 123.674 8.76061 123.45 9.08061L122.266 8.16861C122.501 7.83794 122.784 7.55528 123.114 7.32061C123.456 7.08594 123.834 6.90461 124.25 6.77661C124.677 6.64861 125.12 6.58461 125.578 6.58461C126.762 6.58461 127.674 6.87794 128.314 7.46461C128.954 8.04061 129.274 8.85128 129.274 9.89661V15.0006H127.594V13.9926H127.498C127.36 14.2059 127.168 14.4086 126.922 14.6006C126.688 14.7926 126.405 14.9473 126.074 15.0646C125.754 15.1926 125.397 15.2566 125.002 15.2566ZM125.306 13.8486C125.754 13.8486 126.149 13.7419 126.49 13.5286C126.842 13.3153 127.114 13.0379 127.306 12.6966C127.498 12.3446 127.594 11.9659 127.594 11.5606C127.36 11.4219 127.072 11.3099 126.73 11.2246C126.4 11.1286 126.048 11.0806 125.674 11.0806C124.97 11.0806 124.469 11.2193 124.17 11.4966C123.872 11.7739 123.722 12.1206 123.722 12.5366C123.722 12.9206 123.866 13.2353 124.154 13.4806C124.442 13.7259 124.826 13.8486 125.306 13.8486Z" fill="white"/>
</g>
</svg>
