<svg width="143" height="21" viewBox="0 0 143 21" fill="none" xmlns="http://www.w3.org/2000/svg">
<g id="fi_order_with_Pay_NBG">
<path id="Left Text" d="M4.56325 15.0006V5.20861H1.34725V3.54461H9.50725V5.20861H6.30725V15.0006H4.56325ZM13.5204 15.2566C12.7204 15.2566 12.0057 15.0699 11.3764 14.6966C10.747 14.3233 10.251 13.8113 9.88838 13.1606C9.53638 12.5099 9.36038 11.7686 9.36038 10.9366C9.36038 10.1579 9.53104 9.43794 9.87238 8.77661C10.2137 8.11528 10.6884 7.58728 11.2964 7.19261C11.915 6.78728 12.6244 6.58461 13.4244 6.58461C14.267 6.58461 14.9817 6.76594 15.5684 7.12861C16.1657 7.49128 16.619 7.98728 16.9284 8.61661C17.2377 9.24594 17.3924 9.95528 17.3924 10.7446C17.3924 10.8619 17.387 10.9686 17.3764 11.0646C17.3764 11.1606 17.371 11.2353 17.3604 11.2886H11.0564C11.099 11.7366 11.211 12.1259 11.3924 12.4566C11.627 12.8726 11.9364 13.1873 12.3204 13.4006C12.7044 13.6139 13.1204 13.7206 13.5684 13.7206C14.1124 13.7206 14.5657 13.5979 14.9284 13.3526C15.3017 13.0966 15.595 12.7819 15.8084 12.4086L17.2324 13.0966C16.8804 13.7366 16.4004 14.2593 15.7924 14.6646C15.1844 15.0593 14.427 15.2566 13.5204 15.2566ZM11.1524 9.99261H15.6804C15.6697 9.78994 15.6164 9.57661 15.5204 9.35261C15.4244 9.11794 15.2857 8.90461 15.1044 8.71261C14.923 8.52061 14.6937 8.36594 14.4164 8.24861C14.139 8.12061 13.8137 8.05661 13.4404 8.05661C12.971 8.05661 12.555 8.17928 12.1924 8.42461C11.8297 8.65928 11.547 8.98994 11.3444 9.41661C11.259 9.59794 11.195 9.78994 11.1524 9.99261ZM22.9516 15.2566C22.1516 15.2566 21.437 15.0699 20.8076 14.6966C20.1783 14.3233 19.6823 13.8113 19.3196 13.1606C18.9676 12.5099 18.7916 11.7686 18.7916 10.9366C18.7916 10.1579 18.9623 9.43794 19.3036 8.77661C19.645 8.11528 20.1196 7.58728 20.7276 7.19261C21.3463 6.78728 22.0556 6.58461 22.8556 6.58461C23.6983 6.58461 24.413 6.76594 24.9996 7.12861C25.597 7.49128 26.0503 7.98728 26.3596 8.61661C26.669 9.24594 26.8236 9.95528 26.8236 10.7446C26.8236 10.8619 26.8183 10.9686 26.8076 11.0646C26.8076 11.1606 26.8023 11.2353 26.7916 11.2886H20.4876C20.5303 11.7366 20.6423 12.1259 20.8236 12.4566C21.0583 12.8726 21.3676 13.1873 21.7516 13.4006C22.1356 13.6139 22.5516 13.7206 22.9996 13.7206C23.5436 13.7206 23.997 13.5979 24.3596 13.3526C24.733 13.0966 25.0263 12.7819 25.2396 12.4086L26.6636 13.0966C26.3116 13.7366 25.8316 14.2593 25.2236 14.6646C24.6156 15.0593 23.8583 15.2566 22.9516 15.2566ZM20.5836 9.99261H25.1116C25.101 9.78994 25.0476 9.57661 24.9516 9.35261C24.8556 9.11794 24.717 8.90461 24.5356 8.71261C24.3543 8.52061 24.125 8.36594 23.8476 8.24861C23.5703 8.12061 23.245 8.05661 22.8716 8.05661C22.4023 8.05661 21.9863 8.17928 21.6236 8.42461C21.261 8.65928 20.9783 8.98994 20.7756 9.41661C20.6903 9.59794 20.6263 9.78994 20.5836 9.99261ZM31.9011 6.84061H33.3251V4.53661H35.0531V6.84061H37.0531V8.34461H35.0531V12.2646C35.0531 12.6699 35.1331 12.9793 35.2931 13.1926C35.4638 13.4059 35.7465 13.5126 36.1411 13.5126C36.3331 13.5126 36.5038 13.4859 36.6531 13.4326C36.8025 13.3686 36.9518 13.2939 37.1011 13.2086V14.8886C36.9198 14.9633 36.7278 15.0219 36.5251 15.0646C36.3225 15.1073 36.0825 15.1286 35.8051 15.1286C35.0478 15.1286 34.4451 14.9099 33.9971 14.4726C33.5491 14.0246 33.3251 13.4113 33.3251 12.6326V8.34461H31.9011V6.84061ZM39.0673 15.0006V6.84061H40.7953V15.0006H39.0673ZM39.9313 5.64061C39.6113 5.64061 39.3339 5.52861 39.0993 5.30461C38.8753 5.06994 38.7633 4.79261 38.7633 4.47261C38.7633 4.14194 38.8753 3.86994 39.0993 3.65661C39.3339 3.43261 39.6113 3.32061 39.9313 3.32061C40.2619 3.32061 40.5393 3.43261 40.7633 3.65661C40.9873 3.86994 41.0993 4.14194 41.0993 4.47261C41.0993 4.79261 40.9873 5.06994 40.7633 5.30461C40.5393 5.52861 40.2619 5.64061 39.9313 5.64061ZM43.1053 15.0006V3.54461H44.8333V15.0006H43.1053ZM49.5024 15.2566C48.9157 15.2566 48.393 15.1393 47.9344 14.9046C47.4864 14.6699 47.129 14.3499 46.8624 13.9446C46.6064 13.5286 46.4784 13.0539 46.4784 12.5206C46.4784 11.9339 46.6277 11.4379 46.9264 11.0326C47.2357 10.6273 47.6464 10.3179 48.1584 10.1046C48.6704 9.89128 49.2357 9.78461 49.8544 9.78461C50.1957 9.78461 50.5104 9.81128 50.7984 9.86461C51.097 9.90728 51.353 9.96061 51.5664 10.0246C51.7904 10.0886 51.9664 10.1579 52.0944 10.2326V9.80061C52.0944 9.26728 51.9024 8.84061 51.5184 8.52061C51.1344 8.20061 50.6384 8.04061 50.0304 8.04061C49.6144 8.04061 49.2197 8.13661 48.8464 8.32861C48.473 8.50994 48.1744 8.76061 47.9504 9.08061L46.7664 8.16861C47.001 7.83794 47.2837 7.55528 47.6144 7.32061C47.9557 7.08594 48.3344 6.90461 48.7504 6.77661C49.177 6.64861 49.6197 6.58461 50.0784 6.58461C51.2624 6.58461 52.1744 6.87794 52.8144 7.46461C53.4544 8.04061 53.7744 8.85128 53.7744 9.89661V15.0006H52.0944V13.9926H51.9984C51.8597 14.2059 51.6677 14.4086 51.4224 14.6006C51.1877 14.7926 50.905 14.9473 50.5744 15.0646C50.2544 15.1926 49.897 15.2566 49.5024 15.2566ZM49.8064 13.8486C50.2544 13.8486 50.649 13.7419 50.9904 13.5286C51.3424 13.3153 51.6144 13.0379 51.8064 12.6966C51.9984 12.3446 52.0944 11.9659 52.0944 11.5606C51.8597 11.4219 51.5717 11.3099 51.2304 11.2246C50.8997 11.1286 50.5477 11.0806 50.1744 11.0806C49.4704 11.0806 48.969 11.2193 48.6704 11.4966C48.3717 11.7739 48.2224 12.1206 48.2224 12.5366C48.2224 12.9206 48.3664 13.2353 48.6544 13.4806C48.9424 13.7259 49.3264 13.8486 49.8064 13.8486ZM58.7868 15.2566C57.7841 15.2566 57.0268 14.9579 56.5148 14.3606C56.0134 13.7526 55.7628 12.9313 55.7628 11.8966V6.84061H57.4908V11.6566C57.4908 12.3393 57.6508 12.8459 57.9708 13.1766C58.3014 13.5073 58.7121 13.6726 59.2028 13.6726C59.6508 13.6726 60.0348 13.5606 60.3548 13.3366C60.6748 13.1019 60.9201 12.7979 61.0908 12.4246C61.2721 12.0513 61.3628 11.6513 61.3628 11.2246V6.84061H63.0748V15.0006H61.4588V13.8966H61.3628C61.2134 14.1526 61.0054 14.3819 60.7388 14.5846C60.4721 14.7873 60.1734 14.9473 59.8428 15.0646C59.5121 15.1926 59.1601 15.2566 58.7868 15.2566ZM68.1559 15.2566C67.5052 15.2566 66.9399 15.1606 66.4599 14.9686C65.9799 14.7659 65.5852 14.4993 65.2759 14.1686C64.9665 13.8273 64.7372 13.4593 64.5879 13.0646L66.1399 12.3926C66.3319 12.8299 66.6039 13.1659 66.9559 13.4006C67.3185 13.6246 67.7345 13.7366 68.2039 13.7366C68.6305 13.7366 68.9985 13.6619 69.3079 13.5126C69.6172 13.3526 69.7719 13.0966 69.7719 12.7446C69.7719 12.5206 69.6972 12.3393 69.5479 12.2006C69.4092 12.0513 69.2172 11.9286 68.9719 11.8326C68.7372 11.7366 68.4652 11.6513 68.1559 11.5766L67.1799 11.3526C66.7959 11.2566 66.4279 11.1073 66.0759 10.9046C65.7345 10.6913 65.4572 10.4246 65.2439 10.1046C65.0305 9.78461 64.9239 9.40594 64.9239 8.96861C64.9239 8.47794 65.0625 8.05661 65.3399 7.70461C65.6279 7.34194 66.0119 7.06461 66.4919 6.87261C66.9719 6.68061 67.4892 6.58461 68.0439 6.58461C68.5559 6.58461 69.0199 6.65394 69.4359 6.79261C69.8625 6.92061 70.2305 7.11794 70.5399 7.38461C70.8599 7.64061 71.1105 7.96061 71.2919 8.34461L69.8039 9.01661C69.6225 8.65394 69.3772 8.40328 69.0679 8.26461C68.7585 8.11528 68.4225 8.04061 68.0599 8.04061C67.6545 8.04061 67.3132 8.12594 67.0359 8.29661C66.7692 8.45661 66.6359 8.66994 66.6359 8.93661C66.6359 9.21394 66.7532 9.43261 66.9879 9.59261C67.2332 9.75261 67.5319 9.88061 67.8839 9.97661L69.0679 10.2646C69.8785 10.4673 70.4865 10.7766 70.8919 11.1926C71.2972 11.5979 71.4999 12.0939 71.4999 12.6806C71.4999 13.2033 71.3505 13.6619 71.0519 14.0566C70.7532 14.4406 70.3479 14.7393 69.8359 14.9526C69.3345 15.1553 68.7745 15.2566 68.1559 15.2566Z" fill="white"/>
<g id="GPay (Dark)">
<g id="GPay">
<g id="Pay">
<path id="Fill 1" fill-rule="evenodd" clip-rule="evenodd" d="M100.356 3.42339V8.16175H103.278C103.974 8.16175 104.55 7.92781 105.005 7.45993C105.473 6.99313 105.707 6.43644 105.707 5.79203C105.707 5.16061 105.473 4.61041 105.005 4.14254C104.55 3.66274 103.974 3.4223 103.278 3.4223H100.356V3.42339ZM100.356 9.82966V15.3262H98.6107V1.75549H103.24C104.417 1.75549 105.415 2.14756 106.238 2.93061C107.073 3.71365 107.491 4.66782 107.491 5.79203C107.491 6.94224 107.073 7.90291 106.238 8.67296C105.428 9.44409 104.429 9.82858 103.24 9.82858H100.356V9.82966Z" fill="white"/>
<path id="Fill 3" fill-rule="evenodd" clip-rule="evenodd" d="M109.255 12.4831C109.255 12.9379 109.448 13.317 109.834 13.6203C110.22 13.9235 110.672 14.0752 111.19 14.0752C111.924 14.0752 112.578 13.8032 113.153 13.2607C113.729 12.717 114.017 12.0791 114.017 11.3469C113.472 10.917 112.713 10.7025 111.74 10.7025C111.031 10.7025 110.44 10.8736 109.966 11.2148C109.492 11.5559 109.255 11.9773 109.255 12.4831M111.513 5.73566C112.803 5.73566 113.821 6.08007 114.569 6.76889C115.314 7.45771 115.687 8.40213 115.687 9.60216V15.3261H114.018V14.0373H113.942C113.221 15.0985 112.259 15.6294 111.058 15.6294C110.033 15.6294 109.176 15.3261 108.487 14.7196C107.797 14.1131 107.453 13.3549 107.453 12.4452C107.453 11.4845 107.816 10.7208 108.543 10.1523C109.271 9.58375 110.241 9.2989 111.456 9.2989C112.492 9.2989 113.346 9.48844 114.017 9.86751V9.46894C114.017 8.86243 113.776 8.34798 113.296 7.92451C112.814 7.50103 112.252 7.28984 111.607 7.28984C110.633 7.28984 109.862 7.70032 109.293 8.52235L107.755 7.55519C108.603 6.34217 109.855 5.73566 111.513 5.73566" fill="white"/>
<path id="Fill 5" fill-rule="evenodd" clip-rule="evenodd" d="M125.269 6.03894L119.443 19.4201H117.641L119.804 14.738L115.971 6.03894H117.869L120.639 12.7106H120.677L123.371 6.03894H125.269Z" fill="white"/>
</g>
<g id="G">
<path id="Fill 8" fill-rule="evenodd" clip-rule="evenodd" d="M93.3029 8.64473C93.3029 8.09563 93.2562 7.56601 93.1684 7.05914H85.8065V10.0625H90.0231C89.842 11.0414 89.2944 11.8744 88.4639 12.4322V14.3828H90.9804C92.4539 13.0246 93.3029 11.0177 93.3029 8.64473" fill="#4285F4"/>
<path id="Fill 10" fill-rule="evenodd" clip-rule="evenodd" d="M85.8065 16.2651C87.9131 16.2651 89.6869 15.5741 90.9804 14.3828L88.4639 12.4322C87.7635 12.9033 86.8614 13.1784 85.8065 13.1784C83.7703 13.1784 82.042 11.8073 81.424 9.95959H78.8316V11.9687C80.1164 14.516 82.7565 16.2651 85.8065 16.2651" fill="#34A853"/>
<path id="Fill 12" fill-rule="evenodd" clip-rule="evenodd" d="M81.424 9.9596C81.2657 9.48847 81.179 8.98593 81.179 8.46715C81.179 7.94837 81.2657 7.44583 81.424 6.9747V4.96564H78.8316C78.3003 6.01837 78 7.20756 78 8.46715C78 9.72674 78.3003 10.916 78.8316 11.9687L81.424 9.9596Z" fill="#FABB05"/>
<path id="Fill 14" fill-rule="evenodd" clip-rule="evenodd" d="M85.8065 3.75583C86.9568 3.75583 87.9879 4.15115 88.8011 4.92553V4.92661L91.0292 2.70094C89.6761 1.44243 87.912 0.669128 85.8065 0.669128C82.7565 0.669128 80.1164 2.41826 78.8316 4.9656L81.424 6.97467C82.042 5.12698 83.7703 3.75583 85.8065 3.75583" fill="#E94235"/>
</g>
</g>
</g>
<path id="Right Text" d="M126.674 15.0006V3.54461H128.402V15.0006H126.674ZM130.605 15.0006V3.54461H132.333V15.0006H130.605ZM137.002 15.2566C136.416 15.2566 135.893 15.1393 135.434 14.9046C134.986 14.6699 134.629 14.3499 134.362 13.9446C134.106 13.5286 133.978 13.0539 133.978 12.5206C133.978 11.9339 134.128 11.4379 134.426 11.0326C134.736 10.6273 135.146 10.3179 135.658 10.1046C136.17 9.89128 136.736 9.78461 137.354 9.78461C137.696 9.78461 138.01 9.81128 138.298 9.86461C138.597 9.90728 138.853 9.96061 139.066 10.0246C139.29 10.0886 139.466 10.1579 139.594 10.2326V9.80061C139.594 9.26728 139.402 8.84061 139.018 8.52061C138.634 8.20061 138.138 8.04061 137.53 8.04061C137.114 8.04061 136.72 8.13661 136.346 8.32861C135.973 8.50994 135.674 8.76061 135.45 9.08061L134.266 8.16861C134.501 7.83794 134.784 7.55528 135.114 7.32061C135.456 7.08594 135.834 6.90461 136.25 6.77661C136.677 6.64861 137.12 6.58461 137.578 6.58461C138.762 6.58461 139.674 6.87794 140.314 7.46461C140.954 8.04061 141.274 8.85128 141.274 9.89661V15.0006H139.594V13.9926H139.498C139.36 14.2059 139.168 14.4086 138.922 14.6006C138.688 14.7926 138.405 14.9473 138.074 15.0646C137.754 15.1926 137.397 15.2566 137.002 15.2566ZM137.306 13.8486C137.754 13.8486 138.149 13.7419 138.49 13.5286C138.842 13.3153 139.114 13.0379 139.306 12.6966C139.498 12.3446 139.594 11.9659 139.594 11.5606C139.36 11.4219 139.072 11.3099 138.73 11.2246C138.4 11.1286 138.048 11.0806 137.674 11.0806C136.97 11.0806 136.469 11.2193 136.17 11.4966C135.872 11.7739 135.722 12.1206 135.722 12.5366C135.722 12.9206 135.866 13.2353 136.154 13.4806C136.442 13.7259 136.826 13.8486 137.306 13.8486Z" fill="white"/>
</g>
</svg>
