<svg width="222" height="38" viewBox="0 0 222 38" fill="none" xmlns="http://www.w3.org/2000/svg">
<g id="fi_pay_with_Dark">
<path id="Left Text" d="M3.72425 30V9.952H7.86825L13.7203 25.212H13.8883L19.7683 9.952H23.9123V30H20.8883V18.66L21.0563 15.104H20.8883L15.0363 30H12.6003L6.74825 15.104H6.58025L6.74825 18.66V30H3.72425ZM32.3088 30.448C31.2822 30.448 30.3675 30.252 29.5648 29.86C28.7622 29.4493 28.1368 28.88 27.6888 28.152C27.2408 27.424 27.0168 26.5933 27.0168 25.66C27.0168 24.652 27.2782 23.7933 27.8008 23.084C28.3422 22.356 29.0608 21.8053 29.9568 21.432C30.8528 21.0587 31.8422 20.872 32.9248 20.872C33.8208 20.872 34.6048 20.956 35.2768 21.124C35.9675 21.292 36.4902 21.4693 36.8448 21.656V20.9C36.8448 19.9667 36.5088 19.22 35.8368 18.66C35.1648 18.1 34.2968 17.82 33.2328 17.82C32.5048 17.82 31.8142 17.988 31.1608 18.324C30.5075 18.6413 29.9848 19.08 29.5928 19.64L27.5208 18.044C28.1368 17.1853 28.9488 16.5133 29.9568 16.028C30.9835 15.524 32.1035 15.272 33.3168 15.272C35.3888 15.272 36.9848 15.7853 38.1048 16.812C39.2248 17.82 39.7848 19.2387 39.7848 21.068V30H36.8448V28.236H36.6768C36.3035 28.8147 35.7435 29.328 34.9968 29.776C34.2502 30.224 33.3542 30.448 32.3088 30.448ZM32.8408 27.984C33.6248 27.984 34.3155 27.7973 34.9128 27.424C35.5102 27.0507 35.9768 26.5653 36.3128 25.968C36.6675 25.352 36.8448 24.6893 36.8448 23.98C36.4155 23.7373 35.9115 23.5413 35.3328 23.392C34.7542 23.224 34.1382 23.14 33.4848 23.14C32.2528 23.14 31.3755 23.392 30.8528 23.896C30.3302 24.3813 30.0688 24.9787 30.0688 25.688C30.0688 26.36 30.3208 26.9107 30.8248 27.34C31.3288 27.7693 32.0008 27.984 32.8408 27.984ZM43.414 30V9.952H46.438V21.768L52.486 15.72H56.238V15.888L50.722 21.348L56.434 29.832V30H52.85L48.594 23.448L46.438 25.576V30H43.414ZM63.5509 30.448C61.8336 30.448 60.4616 30.0747 59.4349 29.328C58.4082 28.5627 57.6989 27.6573 57.3069 26.612L60.0229 25.436C60.3589 26.2013 60.8442 26.7893 61.4789 27.2C62.1136 27.592 62.8322 27.788 63.6349 27.788C64.3816 27.788 65.0256 27.6573 65.5669 27.396C66.1082 27.116 66.3789 26.668 66.3789 26.052C66.3789 25.4547 66.1082 25.016 65.5669 24.736C65.0256 24.456 64.3536 24.2133 63.5509 24.008L61.8429 23.616C61.1522 23.448 60.5082 23.1867 59.9109 22.832C59.3136 22.4773 58.8282 22.02 58.4549 21.46C58.0816 20.8813 57.8949 20.2093 57.8949 19.444C57.8949 18.604 58.1469 17.876 58.6509 17.26C59.1549 16.6253 59.8176 16.14 60.6389 15.804C61.4789 15.4493 62.3842 15.272 63.3549 15.272C64.6802 15.272 65.8376 15.5333 66.8269 16.056C67.8349 16.56 68.5722 17.3253 69.0389 18.352L66.4349 19.528C66.0989 18.8933 65.6602 18.4547 65.1189 18.212C64.5962 17.9507 64.0176 17.82 63.3829 17.82C62.6736 17.82 62.0762 17.9693 61.5909 18.268C61.1242 18.5667 60.8909 18.94 60.8909 19.388C60.8909 19.8733 61.0962 20.256 61.5069 20.536C61.9362 20.816 62.4589 21.04 63.0749 21.208L65.1469 21.712C66.5656 22.0667 67.6296 22.608 68.3389 23.336C69.0482 24.0453 69.4029 24.9133 69.4029 25.94C69.4029 26.8547 69.1416 27.6573 68.6189 28.348C68.0962 29.02 67.3869 29.5427 66.4909 29.916C65.6136 30.2707 64.6336 30.448 63.5509 30.448ZM76.9588 30.448C75.9322 30.448 75.0175 30.252 74.2148 29.86C73.4122 29.4493 72.7868 28.88 72.3388 28.152C71.8908 27.424 71.6668 26.5933 71.6668 25.66C71.6668 24.652 71.9282 23.7933 72.4508 23.084C72.9922 22.356 73.7108 21.8053 74.6068 21.432C75.5028 21.0587 76.4922 20.872 77.5748 20.872C78.4708 20.872 79.2548 20.956 79.9268 21.124C80.6175 21.292 81.1402 21.4693 81.4948 21.656V20.9C81.4948 19.9667 81.1588 19.22 80.4868 18.66C79.8148 18.1 78.9468 17.82 77.8828 17.82C77.1548 17.82 76.4642 17.988 75.8108 18.324C75.1575 18.6413 74.6348 19.08 74.2428 19.64L72.1708 18.044C72.7868 17.1853 73.5988 16.5133 74.6068 16.028C75.6335 15.524 76.7535 15.272 77.9668 15.272C80.0388 15.272 81.6348 15.7853 82.7548 16.812C83.8748 17.82 84.4348 19.2387 84.4348 21.068V30H81.4948V28.236H81.3268C80.9535 28.8147 80.3935 29.328 79.6468 29.776C78.9002 30.224 78.0042 30.448 76.9588 30.448ZM77.4908 27.984C78.2748 27.984 78.9655 27.7973 79.5628 27.424C80.1602 27.0507 80.6268 26.5653 80.9628 25.968C81.3175 25.352 81.4948 24.6893 81.4948 23.98C81.0655 23.7373 80.5615 23.5413 79.9828 23.392C79.4042 23.224 78.7882 23.14 78.1348 23.14C76.9028 23.14 76.0255 23.392 75.5028 23.896C74.9802 24.3813 74.7188 24.9787 74.7188 25.688C74.7188 26.36 74.9708 26.9107 75.4748 27.34C75.9788 27.7693 76.6508 27.984 77.4908 27.984Z" fill="white"/>
<g id="GPay Logo (Dark)">
<g id="GPay">
<g id="Pay">
<path id="Fill 1" fill-rule="evenodd" clip-rule="evenodd" d="M136.529 9.34665V17.5128H141.565C142.765 17.5128 143.757 17.1096 144.541 16.3032C145.347 15.4988 145.75 14.5394 145.75 13.4288C145.75 12.3406 145.347 11.3924 144.541 10.586C143.757 9.75916 142.765 9.34479 141.565 9.34479H136.529V9.34665ZM136.529 20.3872V29.8599H133.521V6.47218H141.499C143.527 6.47218 145.248 7.14787 146.666 8.49738C148.105 9.84688 148.824 11.4913 148.824 13.4288C148.824 15.411 148.105 17.0667 146.666 18.3938C145.27 19.7227 143.547 20.3854 141.499 20.3854H136.529V20.3872Z" fill="white"/>
<path id="Fill 3" fill-rule="evenodd" clip-rule="evenodd" d="M151.864 24.9602C151.864 25.7442 152.197 26.3975 152.862 26.9201C153.527 27.4427 154.306 27.704 155.2 27.704C156.465 27.704 157.591 27.2354 158.584 26.3004C159.576 25.3634 160.071 24.264 160.071 23.0022C159.133 22.2612 157.825 21.8916 156.147 21.8916C154.925 21.8916 153.907 22.1866 153.09 22.7745C152.273 23.3623 151.864 24.0886 151.864 24.9602ZM155.756 13.3317C157.98 13.3317 159.735 13.9253 161.022 15.1124C162.308 16.2995 162.95 17.9271 162.95 19.9952V29.8599H160.073V27.6387H159.942C158.699 29.4677 157.042 30.3825 154.972 30.3825C153.206 30.3825 151.728 29.8599 150.541 28.8146C149.353 27.7694 148.759 26.4628 148.759 24.8949C148.759 23.2393 149.385 21.9232 150.638 20.9434C151.892 19.9635 153.565 19.4726 155.658 19.4726C157.444 19.4726 158.916 19.7993 160.071 20.4525V19.7657C160.071 18.7204 159.656 17.8338 158.829 17.104C157.999 16.3742 157.031 16.0102 155.919 16.0102C154.239 16.0102 152.911 16.7176 151.93 18.1343L149.28 16.4675C150.741 14.377 152.899 13.3317 155.756 13.3317Z" fill="white"/>
<path id="Fill 5" fill-rule="evenodd" clip-rule="evenodd" d="M179.463 13.8543L169.423 36.9154H166.318L170.046 28.8464L163.44 13.8543H166.71L171.484 25.3522H171.55L176.193 13.8543H179.463Z" fill="white"/>
</g>
<g id="G">
<path id="Fill 8" fill-rule="evenodd" clip-rule="evenodd" d="M124.373 18.3452C124.373 17.3989 124.293 16.4861 124.141 15.6126H111.454V20.7885H118.72C118.408 22.4757 117.465 23.9112 116.033 24.8725V28.2341H120.37C122.91 25.8935 124.373 22.4348 124.373 18.3452Z" fill="#4285F4"/>
<path id="Fill 10" fill-rule="evenodd" clip-rule="evenodd" d="M111.454 31.4782C115.084 31.4782 118.141 30.2873 120.37 28.2341L116.033 24.8725C114.826 25.6844 113.272 26.1585 111.454 26.1585C107.944 26.1585 104.966 23.7955 103.901 20.6112H99.4331V24.0736C101.647 28.4637 106.197 31.4782 111.454 31.4782Z" fill="#34A853"/>
<path id="Fill 12" fill-rule="evenodd" clip-rule="evenodd" d="M103.901 20.6111C103.628 19.7992 103.479 18.9331 103.479 18.0391C103.479 17.145 103.628 16.2789 103.901 15.467V12.0045H99.4332C98.5176 13.8188 98 15.8683 98 18.0391C98 20.2098 98.5176 22.2595 99.4332 24.0736L103.901 20.6111Z" fill="#FABB05"/>
<path id="Fill 14" fill-rule="evenodd" clip-rule="evenodd" d="M111.454 9.91964C113.436 9.91964 115.213 10.6009 116.615 11.9355V11.9374L120.455 8.10163C118.123 5.93272 115.082 4.60001 111.454 4.60001C106.197 4.60001 101.647 7.61447 99.4331 12.0046L103.901 15.467C104.966 12.2827 107.944 9.91964 111.454 9.91964Z" fill="#E94235"/>
</g>
</g>
</g>
<path id="Right Text" d="M192.792 30V9.952H195.816V30H192.792ZM199.709 30V9.952H202.733V30H199.709ZM210.942 30.448C209.915 30.448 209 30.252 208.198 29.86C207.395 29.4493 206.77 28.88 206.322 28.152C205.874 27.424 205.65 26.5933 205.65 25.66C205.65 24.652 205.911 23.7933 206.434 23.084C206.975 22.356 207.694 21.8053 208.59 21.432C209.486 21.0587 210.475 20.872 211.558 20.872C212.454 20.872 213.238 20.956 213.91 21.124C214.6 21.292 215.123 21.4693 215.478 21.656V20.9C215.478 19.9667 215.142 19.22 214.47 18.66C213.798 18.1 212.93 17.82 211.866 17.82C211.138 17.82 210.447 17.988 209.794 18.324C209.14 18.6413 208.618 19.08 208.226 19.64L206.154 18.044C206.77 17.1853 207.582 16.5133 208.59 16.028C209.616 15.524 210.736 15.272 211.95 15.272C214.022 15.272 215.618 15.7853 216.738 16.812C217.858 17.82 218.418 19.2387 218.418 21.068V30H215.478V28.236H215.31C214.936 28.8147 214.376 29.328 213.63 29.776C212.883 30.224 211.987 30.448 210.942 30.448ZM211.474 27.984C212.258 27.984 212.948 27.7973 213.546 27.424C214.143 27.0507 214.61 26.5653 214.946 25.968C215.3 25.352 215.478 24.6893 215.478 23.98C215.048 23.7373 214.544 23.5413 213.966 23.392C213.387 23.224 212.771 23.14 212.118 23.14C210.886 23.14 210.008 23.392 209.486 23.896C208.963 24.3813 208.702 24.9787 208.702 25.688C208.702 26.36 208.954 26.9107 209.458 27.34C209.962 27.7693 210.634 27.984 211.474 27.984Z" fill="white"/>
</g>
</svg>
