<svg width="106" height="21" viewBox="0 0 106 21" fill="none" xmlns="http://www.w3.org/2000/svg">
<g id="fi_subscribe_with_Pay_NBG">
<path id="Left Text" d="M4.20388 15.0006V5.20861H0.987877V3.54461H9.14788V5.20861H5.94788V15.0006H4.20388ZM10.5923 15.0006V6.84061H12.3203V15.0006H10.5923ZM11.4563 5.64061C11.1363 5.64061 10.8589 5.52861 10.6243 5.30461C10.4003 5.06994 10.2883 4.79261 10.2883 4.47261C10.2883 4.14194 10.4003 3.86994 10.6243 3.65661C10.8589 3.43261 11.1363 3.32061 11.4563 3.32061C11.7869 3.32061 12.0643 3.43261 12.2883 3.65661C12.5123 3.86994 12.6243 4.14194 12.6243 4.47261C12.6243 4.79261 12.5123 5.06994 12.2883 5.30461C12.0643 5.52861 11.7869 5.64061 11.4563 5.64061ZM14.6303 15.0006V3.54461H16.3583V15.0006H14.6303ZM21.0274 15.2566C20.4407 15.2566 19.918 15.1393 19.4594 14.9046C19.0114 14.6699 18.654 14.3499 18.3874 13.9446C18.1314 13.5286 18.0034 13.0539 18.0034 12.5206C18.0034 11.9339 18.1527 11.4379 18.4514 11.0326C18.7607 10.6273 19.1714 10.3179 19.6834 10.1046C20.1954 9.89128 20.7607 9.78461 21.3794 9.78461C21.7207 9.78461 22.0354 9.81128 22.3234 9.86461C22.622 9.90728 22.878 9.96061 23.0914 10.0246C23.3154 10.0886 23.4914 10.1579 23.6194 10.2326V9.80061C23.6194 9.26728 23.4274 8.84061 23.0434 8.52061C22.6594 8.20061 22.1634 8.04061 21.5554 8.04061C21.1394 8.04061 20.7447 8.13661 20.3714 8.32861C19.998 8.50994 19.6994 8.76061 19.4754 9.08061L18.2914 8.16861C18.526 7.83794 18.8087 7.55528 19.1394 7.32061C19.4807 7.08594 19.8594 6.90461 20.2754 6.77661C20.702 6.64861 21.1447 6.58461 21.6034 6.58461C22.7874 6.58461 23.6994 6.87794 24.3394 7.46461C24.9794 8.04061 25.2994 8.85128 25.2994 9.89661V15.0006H23.6194V13.9926H23.5234C23.3847 14.2059 23.1927 14.4086 22.9474 14.6006C22.7127 14.7926 22.43 14.9473 22.0994 15.0646C21.7794 15.1926 21.422 15.2566 21.0274 15.2566ZM21.3314 13.8486C21.7794 13.8486 22.174 13.7419 22.5154 13.5286C22.8674 13.3153 23.1394 13.0379 23.3314 12.6966C23.5234 12.3446 23.6194 11.9659 23.6194 11.5606C23.3847 11.4219 23.0967 11.3099 22.7554 11.2246C22.4247 11.1286 22.0727 11.0806 21.6994 11.0806C20.9954 11.0806 20.494 11.2193 20.1954 11.4966C19.8967 11.7739 19.7474 12.1206 19.7474 12.5366C19.7474 12.9206 19.8914 13.2353 20.1794 13.4806C20.4674 13.7259 20.8514 13.8486 21.3314 13.8486ZM29.8336 15.2566C29.247 15.2566 28.7243 15.1393 28.2656 14.9046C27.8176 14.6699 27.4603 14.3499 27.1936 13.9446C26.9376 13.5286 26.8096 13.0539 26.8096 12.5206C26.8096 11.9339 26.959 11.4379 27.2576 11.0326C27.567 10.6273 27.9776 10.3179 28.4896 10.1046C29.0016 9.89128 29.567 9.78461 30.1856 9.78461C30.527 9.78461 30.8416 9.81128 31.1296 9.86461C31.4283 9.90728 31.6843 9.96061 31.8976 10.0246C32.1216 10.0886 32.2976 10.1579 32.4256 10.2326V9.80061C32.4256 9.26728 32.2336 8.84061 31.8496 8.52061C31.4656 8.20061 30.9696 8.04061 30.3616 8.04061C29.9456 8.04061 29.551 8.13661 29.1776 8.32861C28.8043 8.50994 28.5056 8.76061 28.2816 9.08061L27.0976 8.16861C27.3323 7.83794 27.615 7.55528 27.9456 7.32061C28.287 7.08594 28.6656 6.90461 29.0816 6.77661C29.5083 6.64861 29.951 6.58461 30.4096 6.58461C31.5936 6.58461 32.5056 6.87794 33.1456 7.46461C33.7856 8.04061 34.1056 8.85128 34.1056 9.89661V15.0006H32.4256V13.9926H32.3296C32.191 14.2059 31.999 14.4086 31.7536 14.6006C31.519 14.7926 31.2363 14.9473 30.9056 15.0646C30.5856 15.1926 30.2283 15.2566 29.8336 15.2566ZM30.1376 13.8486C30.5856 13.8486 30.9803 13.7419 31.3216 13.5286C31.6736 13.3153 31.9456 13.0379 32.1376 12.6966C32.3296 12.3446 32.4256 11.9659 32.4256 11.5606C32.191 11.4219 31.903 11.3099 31.5616 11.2246C31.231 11.1286 30.879 11.0806 30.5056 11.0806C29.8016 11.0806 29.3003 11.2193 29.0016 11.4966C28.703 11.7739 28.5536 12.1206 28.5536 12.5366C28.5536 12.9206 28.6976 13.2353 28.9856 13.4806C29.2736 13.7259 29.6576 13.8486 30.1376 13.8486Z" fill="white"/>
<g id="GPay (Dark)">
<g id="GPay">
<g id="Pay">
<path id="Fill 1" fill-rule="evenodd" clip-rule="evenodd" d="M63.3563 3.42339V8.16175H66.2784C66.9745 8.16175 67.5501 7.92781 68.0055 7.45993C68.4728 6.99313 68.707 6.43644 68.707 5.79203C68.707 5.16061 68.4728 4.61041 68.0055 4.14254C67.5501 3.66274 66.9745 3.4223 66.2784 3.4223H63.3563V3.42339ZM63.3563 9.82966V15.3262H61.6107V1.75549H66.2404C67.4169 1.75549 68.4154 2.14756 69.2383 2.93061C70.0732 3.71365 70.4906 4.66782 70.4906 5.79203C70.4906 6.94224 70.0731 7.90291 69.2383 8.67296C68.4283 9.44409 67.4287 9.82858 66.2404 9.82858H63.3563V9.82966Z" fill="white"/>
<path id="Fill 3" fill-rule="evenodd" clip-rule="evenodd" d="M72.2546 12.4831C72.2546 12.9379 72.4476 13.317 72.8337 13.6203C73.2195 13.9235 73.6717 14.0752 74.19 14.0752C74.9239 14.0752 75.5777 13.8032 76.1535 13.2607C76.7293 12.717 77.0165 12.0791 77.0165 11.3469C76.4722 10.917 75.7133 10.7025 74.7396 10.7025C74.0306 10.7025 73.4397 10.8736 72.9659 11.2148C72.492 11.5559 72.2546 11.9773 72.2546 12.4831M74.513 5.73566C75.8033 5.73566 76.8214 6.08007 77.5685 6.76889C78.3145 7.45771 78.6873 8.40213 78.6873 9.60216V15.3261H77.0177V14.0373H76.9417C76.2207 15.0985 75.259 15.6294 74.0578 15.6294C73.0332 15.6294 72.1755 15.3261 71.4869 14.7196C70.7975 14.1131 70.4527 13.3549 70.4527 12.4452C70.4527 11.4845 70.8158 10.7208 71.5433 10.1523C72.2708 9.58375 73.2413 9.2989 74.4557 9.2989C75.4921 9.2989 76.3465 9.48844 77.0165 9.86751V9.46894C77.0165 8.86243 76.7758 8.34798 76.2956 7.92451C75.8141 7.50103 75.2525 7.28984 74.6074 7.28984C73.6326 7.28984 72.8618 7.70032 72.2926 8.52235L70.7551 7.55519C71.6029 6.34217 72.8552 5.73566 74.513 5.73566" fill="white"/>
<path id="Fill 5" fill-rule="evenodd" clip-rule="evenodd" d="M88.2687 6.03894L82.4432 19.4201H80.6411L82.8043 14.738L78.9714 6.03894H80.8688L83.639 12.7106H83.677L86.3713 6.03894H88.2687Z" fill="white"/>
</g>
<g id="G">
<path id="Fill 8" fill-rule="evenodd" clip-rule="evenodd" d="M56.3029 8.64473C56.3029 8.09563 56.2562 7.56601 56.1684 7.05914H48.8065V10.0625H53.0231C52.842 11.0414 52.2944 11.8744 51.4639 12.4322V14.3828H53.9804C55.4539 13.0246 56.3029 11.0177 56.3029 8.64473" fill="#4285F4"/>
<path id="Fill 10" fill-rule="evenodd" clip-rule="evenodd" d="M48.8065 16.2651C50.9131 16.2651 52.6869 15.5741 53.9804 14.3828L51.4639 12.4322C50.7635 12.9033 49.8614 13.1784 48.8065 13.1784C46.7703 13.1784 45.042 11.8073 44.424 9.95959H41.8316V11.9687C43.1164 14.516 45.7565 16.2651 48.8065 16.2651" fill="#34A853"/>
<path id="Fill 12" fill-rule="evenodd" clip-rule="evenodd" d="M44.424 9.9596C44.2657 9.48847 44.179 8.98593 44.179 8.46715C44.179 7.94837 44.2657 7.44583 44.424 6.9747V4.96564H41.8316C41.3003 6.01837 41 7.20756 41 8.46715C41 9.72674 41.3003 10.916 41.8316 11.9687L44.424 9.9596Z" fill="#FABB05"/>
<path id="Fill 14" fill-rule="evenodd" clip-rule="evenodd" d="M48.8065 3.75583C49.9568 3.75583 50.9879 4.15115 51.8011 4.92553V4.92661L54.0292 2.70094C52.6761 1.44243 50.912 0.669128 48.8065 0.669128C45.7565 0.669128 43.1164 2.41826 41.8316 4.9656L44.424 6.97467C45.042 5.12698 46.7703 3.75583 48.8065 3.75583" fill="#E94235"/>
</g>
</g>
</g>
<path id="Right Text" d="M89.674 15.0006V3.54461H91.402V15.0006H89.674ZM93.6052 15.0006V3.54461H95.3332V15.0006H93.6052ZM100.002 15.2566C99.4157 15.2566 98.893 15.1393 98.4344 14.9046C97.9864 14.6699 97.629 14.3499 97.3624 13.9446C97.1064 13.5286 96.9784 13.0539 96.9784 12.5206C96.9784 11.9339 97.1277 11.4379 97.4264 11.0326C97.7357 10.6273 98.1464 10.3179 98.6584 10.1046C99.1704 9.89128 99.7357 9.78461 100.354 9.78461C100.696 9.78461 101.01 9.81128 101.298 9.86461C101.597 9.90728 101.853 9.96061 102.066 10.0246C102.29 10.0886 102.466 10.1579 102.594 10.2326V9.80061C102.594 9.26728 102.402 8.84061 102.018 8.52061C101.634 8.20061 101.138 8.04061 100.53 8.04061C100.114 8.04061 99.7197 8.13661 99.3464 8.32861C98.973 8.50994 98.6744 8.76061 98.4504 9.08061L97.2664 8.16861C97.501 7.83794 97.7837 7.55528 98.1144 7.32061C98.4557 7.08594 98.8344 6.90461 99.2504 6.77661C99.677 6.64861 100.12 6.58461 100.578 6.58461C101.762 6.58461 102.674 6.87794 103.314 7.46461C103.954 8.04061 104.274 8.85128 104.274 9.89661V15.0006H102.594V13.9926H102.498C102.36 14.2059 102.168 14.4086 101.922 14.6006C101.688 14.7926 101.405 14.9473 101.074 15.0646C100.754 15.1926 100.397 15.2566 100.002 15.2566ZM100.306 13.8486C100.754 13.8486 101.149 13.7419 101.49 13.5286C101.842 13.3153 102.114 13.0379 102.306 12.6966C102.498 12.3446 102.594 11.9659 102.594 11.5606C102.36 11.4219 102.072 11.3099 101.73 11.2246C101.4 11.1286 101.048 11.0806 100.674 11.0806C99.9704 11.0806 99.469 11.2193 99.1704 11.4966C98.8717 11.7739 98.7224 12.1206 98.7224 12.5366C98.7224 12.9206 98.8664 13.2353 99.1544 13.4806C99.4424 13.7259 99.8264 13.8486 100.306 13.8486Z" fill="white"/>
</g>
</svg>
