<svg width="198" height="38" viewBox="0 0 198 38" fill="none" xmlns="http://www.w3.org/2000/svg">
<g id="fi_subscribe_with_Light">
<path id="Left Text" d="M7.95678 30V12.864H2.32878V9.952H16.6088V12.864H11.0088V30H7.95678ZM20.6859 13.62C20.1259 13.62 19.6406 13.424 19.2299 13.032C18.8379 12.6213 18.6419 12.136 18.6419 11.576C18.6419 11.016 18.8379 10.54 19.2299 10.148C19.6406 9.756 20.1259 9.56 20.6859 9.56C21.2459 9.56 21.7219 9.756 22.1139 10.148C22.5246 10.54 22.7299 11.016 22.7299 11.576C22.7299 12.136 22.5246 12.6213 22.1139 13.032C21.7219 13.424 21.2459 13.62 20.6859 13.62ZM19.1739 30V15.72H22.1979V30H19.1739ZM26.2779 30V9.952H29.3019V30H26.2779ZM37.5104 30.448C36.4837 30.448 35.5691 30.252 34.7664 29.86C33.9637 29.4493 33.3384 28.88 32.8904 28.152C32.4424 27.424 32.2184 26.5933 32.2184 25.66C32.2184 24.652 32.4797 23.7933 33.0024 23.084C33.5437 22.356 34.2624 21.8053 35.1584 21.432C36.0544 21.0587 37.0437 20.872 38.1264 20.872C39.0224 20.872 39.8064 20.956 40.4784 21.124C41.1691 21.292 41.6917 21.4693 42.0464 21.656V20.9C42.0464 19.9667 41.7104 19.22 41.0384 18.66C40.3664 18.1 39.4984 17.82 38.4344 17.82C37.7064 17.82 37.0157 17.988 36.3624 18.324C35.7091 18.6413 35.1864 19.08 34.7944 19.64L32.7224 18.044C33.3384 17.1853 34.1504 16.5133 35.1584 16.028C36.1851 15.524 37.3051 15.272 38.5184 15.272C40.5904 15.272 42.1864 15.7853 43.3064 16.812C44.4264 17.82 44.9864 19.2387 44.9864 21.068V30H42.0464V28.236H41.8784C41.5051 28.8147 40.9451 29.328 40.1984 29.776C39.4517 30.224 38.5557 30.448 37.5104 30.448ZM38.0424 27.984C38.8264 27.984 39.5171 27.7973 40.1144 27.424C40.7117 27.0507 41.1784 26.5653 41.5144 25.968C41.8691 25.352 42.0464 24.6893 42.0464 23.98C41.6171 23.7373 41.1131 23.5413 40.5344 23.392C39.9557 23.224 39.3397 23.14 38.6864 23.14C37.4544 23.14 36.5771 23.392 36.0544 23.896C35.5317 24.3813 35.2704 24.9787 35.2704 25.688C35.2704 26.36 35.5224 26.9107 36.0264 27.34C36.5304 27.7693 37.2024 27.984 38.0424 27.984ZM52.9588 30.448C51.9322 30.448 51.0175 30.252 50.2148 29.86C49.4122 29.4493 48.7868 28.88 48.3388 28.152C47.8908 27.424 47.6668 26.5933 47.6668 25.66C47.6668 24.652 47.9282 23.7933 48.4508 23.084C48.9922 22.356 49.7108 21.8053 50.6068 21.432C51.5028 21.0587 52.4922 20.872 53.5748 20.872C54.4708 20.872 55.2548 20.956 55.9268 21.124C56.6175 21.292 57.1402 21.4693 57.4948 21.656V20.9C57.4948 19.9667 57.1588 19.22 56.4868 18.66C55.8148 18.1 54.9468 17.82 53.8828 17.82C53.1548 17.82 52.4642 17.988 51.8108 18.324C51.1575 18.6413 50.6348 19.08 50.2428 19.64L48.1708 18.044C48.7868 17.1853 49.5988 16.5133 50.6068 16.028C51.6335 15.524 52.7535 15.272 53.9668 15.272C56.0388 15.272 57.6348 15.7853 58.7548 16.812C59.8748 17.82 60.4348 19.2387 60.4348 21.068V30H57.4948V28.236H57.3268C56.9535 28.8147 56.3935 29.328 55.6468 29.776C54.9002 30.224 54.0042 30.448 52.9588 30.448ZM53.4908 27.984C54.2748 27.984 54.9655 27.7973 55.5628 27.424C56.1602 27.0507 56.6268 26.5653 56.9628 25.968C57.3175 25.352 57.4948 24.6893 57.4948 23.98C57.0655 23.7373 56.5615 23.5413 55.9828 23.392C55.4042 23.224 54.7882 23.14 54.1348 23.14C52.9028 23.14 52.0255 23.392 51.5028 23.896C50.9802 24.3813 50.7188 24.9787 50.7188 25.688C50.7188 26.36 50.9708 26.9107 51.4748 27.34C51.9788 27.7693 52.6508 27.984 53.4908 27.984Z" fill="#3C4043"/>
<g id="GPay Logo (Light)">
<g id="GPay">
<g id="Pay">
<path id="Fill 1" fill-rule="evenodd" clip-rule="evenodd" d="M112.529 9.44664V17.6128H117.565C118.765 17.6128 119.757 17.2096 120.541 16.4032C121.347 15.5988 121.75 14.6394 121.75 13.5288C121.75 12.4406 121.347 11.4924 120.541 10.686C119.757 9.85915 118.765 9.44478 117.565 9.44478H112.529V9.44664ZM112.529 20.4872V29.9599H109.521V6.57217H117.499C119.527 6.57217 121.248 7.24786 122.666 8.59737C124.105 9.94688 124.824 11.5913 124.824 13.5288C124.824 15.511 124.105 17.1667 122.666 18.4938C121.27 19.8227 119.547 20.4854 117.499 20.4854H112.529V20.4872Z" fill="#5F6368"/>
<path id="Fill 3" fill-rule="evenodd" clip-rule="evenodd" d="M127.864 25.0602C127.864 25.8442 128.197 26.4975 128.862 27.0201C129.527 27.5427 130.306 27.804 131.2 27.804C132.465 27.804 133.591 27.3354 134.584 26.4004C135.576 25.4634 136.071 24.364 136.071 23.1022C135.133 22.3612 133.825 21.9916 132.147 21.9916C130.925 21.9916 129.907 22.2865 129.09 22.8745C128.273 23.4623 127.864 24.1886 127.864 25.0602ZM131.756 13.4317C133.98 13.4317 135.735 14.0252 137.022 15.2124C138.308 16.3995 138.95 18.0271 138.95 20.0952V29.9599H136.073V27.7387H135.942C134.699 29.5677 133.042 30.4825 130.972 30.4825C129.206 30.4825 127.728 29.9599 126.541 28.9146C125.353 27.8694 124.759 26.5628 124.759 24.9949C124.759 23.3393 125.385 22.0232 126.638 21.0434C127.892 20.0635 129.565 19.5726 131.658 19.5726C133.444 19.5726 134.916 19.8992 136.071 20.5525V19.8656C136.071 18.8204 135.656 17.9338 134.829 17.204C133.999 16.4741 133.031 16.1102 131.919 16.1102C130.239 16.1102 128.911 16.8176 127.93 18.2343L125.28 16.5675C126.741 14.4769 128.899 13.4317 131.756 13.4317Z" fill="#5F6368"/>
<path id="Fill 5" fill-rule="evenodd" clip-rule="evenodd" d="M155.463 13.9543L145.423 37.0154H142.318L146.046 28.9464L139.44 13.9543H142.71L147.484 25.4522H147.55L152.193 13.9543H155.463Z" fill="#5F6368"/>
</g>
<g id="G">
<path id="Fill 8" fill-rule="evenodd" clip-rule="evenodd" d="M100.373 18.4452C100.373 17.4989 100.293 16.5861 100.141 15.7126H87.4536V20.8885H94.7205C94.4084 22.5757 93.4648 24.0112 92.0335 24.9725V28.3341H96.3704C98.9098 25.9935 100.373 22.5348 100.373 18.4452Z" fill="#4285F4"/>
<path id="Fill 10" fill-rule="evenodd" clip-rule="evenodd" d="M87.4536 31.5782C91.0843 31.5782 94.1412 30.3873 96.3704 28.3341L92.0335 24.9725C90.8264 25.7844 89.2717 26.2585 87.4536 26.2585C83.9444 26.2585 80.9659 23.8955 79.9009 20.7112H75.4331V24.1736C77.6474 28.5637 82.1973 31.5782 87.4536 31.5782Z" fill="#34A853"/>
<path id="Fill 12" fill-rule="evenodd" clip-rule="evenodd" d="M79.9009 20.7111C79.6281 19.8992 79.4787 19.0331 79.4787 18.139C79.4787 17.245 79.6281 16.3789 79.9009 15.567V12.1045H75.4332C74.5176 13.9188 74 15.9683 74 18.139C74 20.3098 74.5176 22.3595 75.4332 24.1736L79.9009 20.7111Z" fill="#FABB05"/>
<path id="Fill 14" fill-rule="evenodd" clip-rule="evenodd" d="M87.4536 10.0196C89.4362 10.0196 91.2132 10.7009 92.6146 12.0355V12.0374L96.4545 8.20162C94.1226 6.03271 91.0824 4.7 87.4536 4.7C82.1973 4.7 77.6474 7.71446 75.4331 12.1046L79.9009 15.567C80.9659 12.3827 83.9444 10.0196 87.4536 10.0196Z" fill="#E94235"/>
</g>
</g>
</g>
<path id="Right Text" d="M168.792 30V9.952H171.816V30H168.792ZM175.709 30V9.952H178.733V30H175.709ZM186.942 30.448C185.915 30.448 185 30.252 184.198 29.86C183.395 29.4493 182.77 28.88 182.322 28.152C181.874 27.424 181.65 26.5933 181.65 25.66C181.65 24.652 181.911 23.7933 182.434 23.084C182.975 22.356 183.694 21.8053 184.59 21.432C185.486 21.0587 186.475 20.872 187.558 20.872C188.454 20.872 189.238 20.956 189.91 21.124C190.6 21.292 191.123 21.4693 191.478 21.656V20.9C191.478 19.9667 191.142 19.22 190.47 18.66C189.798 18.1 188.93 17.82 187.866 17.82C187.138 17.82 186.447 17.988 185.794 18.324C185.14 18.6413 184.618 19.08 184.226 19.64L182.154 18.044C182.77 17.1853 183.582 16.5133 184.59 16.028C185.616 15.524 186.736 15.272 187.95 15.272C190.022 15.272 191.618 15.7853 192.738 16.812C193.858 17.82 194.418 19.2387 194.418 21.068V30H191.478V28.236H191.31C190.936 28.8147 190.376 29.328 189.63 29.776C188.883 30.224 187.987 30.448 186.942 30.448ZM187.474 27.984C188.258 27.984 188.948 27.7973 189.546 27.424C190.143 27.0507 190.61 26.5653 190.946 25.968C191.3 25.352 191.478 24.6893 191.478 23.98C191.048 23.7373 190.544 23.5413 189.966 23.392C189.387 23.224 188.771 23.14 188.118 23.14C186.886 23.14 186.008 23.392 185.486 23.896C184.963 24.3813 184.702 24.9787 184.702 25.688C184.702 26.36 184.954 26.9107 185.458 27.34C185.962 27.7693 186.634 27.984 187.474 27.984Z" fill="#3C4043"/>
</g>
</svg>
