<svg width="228" height="38" viewBox="0 0 228 38" fill="none" xmlns="http://www.w3.org/2000/svg">
<g id="fi_view_in_Light">
<path id="Left Text" d="M2.83363 30V9.952H6.47363L15.5456 24.68H15.7136L15.5456 20.816V9.952H18.5976V30H15.4056L5.88563 14.516H5.71763L5.88563 18.38V30H2.83363ZM26.9885 30.448C25.9619 30.448 25.0472 30.252 24.2445 29.86C23.4419 29.4493 22.8165 28.88 22.3685 28.152C21.9205 27.424 21.6965 26.5933 21.6965 25.66C21.6965 24.652 21.9579 23.7933 22.4805 23.084C23.0219 22.356 23.7405 21.8053 24.6365 21.432C25.5325 21.0587 26.5219 20.872 27.6045 20.872C28.5005 20.872 29.2845 20.956 29.9565 21.124C30.6472 21.292 31.1699 21.4693 31.5245 21.656V20.9C31.5245 19.9667 31.1885 19.22 30.5165 18.66C29.8445 18.1 28.9765 17.82 27.9125 17.82C27.1845 17.82 26.4939 17.988 25.8405 18.324C25.1872 18.6413 24.6645 19.08 24.2725 19.64L22.2005 18.044C22.8165 17.1853 23.6285 16.5133 24.6365 16.028C25.6632 15.524 26.7832 15.272 27.9965 15.272C30.0685 15.272 31.6645 15.7853 32.7845 16.812C33.9045 17.82 34.4645 19.2387 34.4645 21.068V30H31.5245V28.236H31.3565C30.9832 28.8147 30.4232 29.328 29.6765 29.776C28.9299 30.224 28.0339 30.448 26.9885 30.448ZM27.5205 27.984C28.3045 27.984 28.9952 27.7973 29.5925 27.424C30.1899 27.0507 30.6565 26.5653 30.9925 25.968C31.3472 25.352 31.5245 24.6893 31.5245 23.98C31.0952 23.7373 30.5912 23.5413 30.0125 23.392C29.4339 23.224 28.8179 23.14 28.1645 23.14C26.9325 23.14 26.0552 23.392 25.5325 23.896C25.0099 24.3813 24.7485 24.9787 24.7485 25.688C24.7485 26.36 25.0005 26.9107 25.5045 27.34C26.0085 27.7693 26.6805 27.984 27.5205 27.984ZM30.6005 12.808C30.1339 12.808 29.7232 12.64 29.3685 12.304C29.0325 11.9493 28.8645 11.5293 28.8645 11.044C28.8645 10.5587 29.0325 10.1573 29.3685 9.84C29.7232 9.504 30.1339 9.336 30.6005 9.336C31.1045 9.336 31.5245 9.504 31.8605 9.84C32.1965 10.1573 32.3645 10.5587 32.3645 11.044C32.3645 11.5293 32.1965 11.9493 31.8605 12.304C31.5245 12.64 31.1045 12.808 30.6005 12.808ZM25.6445 12.808C25.1779 12.808 24.7672 12.64 24.4125 12.304C24.0765 11.9493 23.9085 11.5293 23.9085 11.044C23.9085 10.5587 24.0765 10.1573 24.4125 9.84C24.7672 9.504 25.1779 9.336 25.6445 9.336C26.1485 9.336 26.5592 9.504 26.8765 9.84C27.2125 10.1573 27.3805 10.5587 27.3805 11.044C27.3805 11.5293 27.2125 11.9493 26.8765 12.304C26.5592 12.64 26.1485 12.808 25.6445 12.808ZM42.6923 35.348C42.6363 35.4973 42.5709 35.6373 42.4963 35.768C42.4403 35.8987 42.4029 35.992 42.3843 36.048H39.1643C39.2576 35.8427 39.3883 35.544 39.5563 35.152C39.7429 34.7787 39.9203 34.4147 40.0883 34.06C40.2563 33.7053 40.4336 33.304 40.6203 32.856C40.8256 32.408 41.0309 31.9693 41.2363 31.54L42.3003 29.216L36.3363 15.72H39.6963L43.7843 25.464H43.9243L47.8723 15.72H51.2043L43.8123 32.744C43.6069 33.2293 43.3829 33.7333 43.1403 34.256C42.9163 34.7973 42.7669 35.1613 42.6923 35.348ZM55.0268 25.856V18.352H52.5348V15.72H55.0268V11.688H58.0508V15.72H61.5508V18.352H58.0508V25.212C58.0508 25.9213 58.1908 26.4627 58.4708 26.836C58.7695 27.2093 59.2641 27.396 59.9548 27.396C60.3095 27.396 60.6081 27.3493 60.8508 27.256C61.1121 27.1627 61.3735 27.032 61.6348 26.864V29.804C61.3175 29.9347 60.9815 30.0373 60.6268 30.112C60.2721 30.1867 59.8521 30.224 59.3668 30.224C58.0415 30.224 56.9868 29.8413 56.2028 29.076C55.4188 28.292 55.0268 27.2187 55.0268 25.856ZM68.9588 30.448C67.9322 30.448 67.0175 30.252 66.2148 29.86C65.4122 29.4493 64.7868 28.88 64.3388 28.152C63.8908 27.424 63.6668 26.5933 63.6668 25.66C63.6668 24.652 63.9282 23.7933 64.4508 23.084C64.9922 22.356 65.7108 21.8053 66.6068 21.432C67.5028 21.0587 68.4922 20.872 69.5748 20.872C70.4708 20.872 71.2548 20.956 71.9268 21.124C72.6175 21.292 73.1402 21.4693 73.4948 21.656V20.9C73.4948 19.9667 73.1588 19.22 72.4868 18.66C71.8148 18.1 70.9468 17.82 69.8828 17.82C69.1548 17.82 68.4642 17.988 67.8108 18.324C67.1575 18.6413 66.6348 19.08 66.2428 19.64L64.1708 18.044C64.7868 17.1853 65.5988 16.5133 66.6068 16.028C67.6335 15.524 68.7535 15.272 69.9668 15.272C72.0388 15.272 73.6348 15.7853 74.7548 16.812C75.8748 17.82 76.4348 19.2387 76.4348 21.068V30H73.4948V28.236H73.3268C72.9535 28.8147 72.3935 29.328 71.6468 29.776C70.9002 30.224 70.0042 30.448 68.9588 30.448ZM69.4908 27.984C70.2748 27.984 70.9655 27.7973 71.5628 27.424C72.1602 27.0507 72.6268 26.5653 72.9628 25.968C73.3175 25.352 73.4948 24.6893 73.4948 23.98C73.0655 23.7373 72.5615 23.5413 71.9828 23.392C71.4042 23.224 70.7882 23.14 70.1348 23.14C68.9028 23.14 68.0255 23.392 67.5028 23.896C66.9802 24.3813 66.7188 24.9787 66.7188 25.688C66.7188 26.36 66.9708 26.9107 67.4748 27.34C67.9788 27.7693 68.6508 27.984 69.4908 27.984ZM72.5708 12.808C72.1042 12.808 71.6935 12.64 71.3388 12.304C71.0028 11.9493 70.8348 11.5293 70.8348 11.044C70.8348 10.5587 71.0028 10.1573 71.3388 9.84C71.6935 9.504 72.1042 9.336 72.5708 9.336C73.0748 9.336 73.4948 9.504 73.8308 9.84C74.1668 10.1573 74.3348 10.5587 74.3348 11.044C74.3348 11.5293 74.1668 11.9493 73.8308 12.304C73.4948 12.64 73.0748 12.808 72.5708 12.808ZM67.6148 12.808C67.1482 12.808 66.7375 12.64 66.3828 12.304C66.0468 11.9493 65.8788 11.5293 65.8788 11.044C65.8788 10.5587 66.0468 10.1573 66.3828 9.84C66.7375 9.504 67.1482 9.336 67.6148 9.336C68.1188 9.336 68.5295 9.504 68.8468 9.84C69.1828 10.1573 69.3508 10.5587 69.3508 11.044C69.3508 11.5293 69.1828 11.9493 68.8468 12.304C68.5295 12.64 68.1188 12.808 67.6148 12.808Z" fill="#3C4043"/>
<g id="GPay Logo (Light)">
<g id="GPay">
<g id="Pay">
<path id="Fill 1" fill-rule="evenodd" clip-rule="evenodd" d="M128.529 9.44664V17.6128H133.565C134.765 17.6128 135.757 17.2096 136.541 16.4032C137.347 15.5988 137.75 14.6394 137.75 13.5288C137.75 12.4406 137.347 11.4924 136.541 10.686C135.757 9.85915 134.765 9.44478 133.565 9.44478H128.529V9.44664ZM128.529 20.4872V29.9599H125.521V6.57217H133.499C135.527 6.57217 137.248 7.24786 138.666 8.59737C140.105 9.94688 140.824 11.5913 140.824 13.5288C140.824 15.511 140.105 17.1667 138.666 18.4938C137.27 19.8227 135.547 20.4854 133.499 20.4854H128.529V20.4872Z" fill="#5F6368"/>
<path id="Fill 3" fill-rule="evenodd" clip-rule="evenodd" d="M143.864 25.0602C143.864 25.8442 144.197 26.4975 144.862 27.0201C145.527 27.5427 146.306 27.804 147.2 27.804C148.465 27.804 149.591 27.3354 150.584 26.4004C151.576 25.4634 152.071 24.364 152.071 23.1022C151.133 22.3612 149.825 21.9916 148.147 21.9916C146.925 21.9916 145.907 22.2865 145.09 22.8745C144.273 23.4623 143.864 24.1886 143.864 25.0602ZM147.756 13.4317C149.98 13.4317 151.735 14.0252 153.022 15.2124C154.308 16.3995 154.95 18.0271 154.95 20.0952V29.9599H152.073V27.7387H151.942C150.699 29.5677 149.042 30.4825 146.972 30.4825C145.206 30.4825 143.728 29.9599 142.541 28.9146C141.353 27.8694 140.759 26.5628 140.759 24.9949C140.759 23.3393 141.385 22.0232 142.638 21.0434C143.892 20.0635 145.565 19.5726 147.658 19.5726C149.444 19.5726 150.916 19.8992 152.071 20.5525V19.8656C152.071 18.8204 151.656 17.9338 150.829 17.204C149.999 16.4741 149.031 16.1102 147.919 16.1102C146.239 16.1102 144.911 16.8176 143.93 18.2343L141.28 16.5675C142.741 14.4769 144.899 13.4317 147.756 13.4317Z" fill="#5F6368"/>
<path id="Fill 5" fill-rule="evenodd" clip-rule="evenodd" d="M171.463 13.9543L161.423 37.0154H158.318L162.046 28.9464L155.44 13.9543H158.71L163.484 25.4522H163.55L168.193 13.9543H171.463Z" fill="#5F6368"/>
</g>
<g id="G">
<path id="Fill 8" fill-rule="evenodd" clip-rule="evenodd" d="M116.373 18.4452C116.373 17.4989 116.293 16.5861 116.141 15.7126H103.454V20.8885H110.72C110.408 22.5757 109.465 24.0112 108.033 24.9725V28.3341H112.37C114.91 25.9935 116.373 22.5348 116.373 18.4452Z" fill="#4285F4"/>
<path id="Fill 10" fill-rule="evenodd" clip-rule="evenodd" d="M103.454 31.5782C107.084 31.5782 110.141 30.3873 112.37 28.3341L108.033 24.9725C106.826 25.7844 105.272 26.2585 103.454 26.2585C99.9444 26.2585 96.9659 23.8955 95.9009 20.7112H91.4331V24.1736C93.6474 28.5637 98.1973 31.5782 103.454 31.5782Z" fill="#34A853"/>
<path id="Fill 12" fill-rule="evenodd" clip-rule="evenodd" d="M95.9009 20.7111C95.6281 19.8992 95.4787 19.0331 95.4787 18.139C95.4787 17.245 95.6281 16.3789 95.9009 15.567V12.1045H91.4332C90.5176 13.9188 90 15.9683 90 18.139C90 20.3098 90.5176 22.3595 91.4332 24.1736L95.9009 20.7111Z" fill="#FABB05"/>
<path id="Fill 14" fill-rule="evenodd" clip-rule="evenodd" d="M103.454 10.0196C105.436 10.0196 107.213 10.7009 108.615 12.0355V12.0374L112.455 8.20162C110.123 6.03271 107.082 4.7 103.454 4.7C98.1973 4.7 93.6474 7.71446 91.4331 12.1046L95.9009 15.567C96.9659 12.3827 99.9444 10.0196 103.454 10.0196Z" fill="#E94235"/>
</g>
</g>
</g>
<path id="Right Text" d="M189.972 30.448C188.255 30.448 186.883 30.0747 185.856 29.328C184.829 28.5627 184.12 27.6573 183.728 26.612L186.444 25.436C186.78 26.2013 187.265 26.7893 187.9 27.2C188.535 27.592 189.253 27.788 190.056 27.788C190.803 27.788 191.447 27.6573 191.988 27.396C192.529 27.116 192.8 26.668 192.8 26.052C192.8 25.4547 192.529 25.016 191.988 24.736C191.447 24.456 190.775 24.2133 189.972 24.008L188.264 23.616C187.573 23.448 186.929 23.1867 186.332 22.832C185.735 22.4773 185.249 22.02 184.876 21.46C184.503 20.8813 184.316 20.2093 184.316 19.444C184.316 18.604 184.568 17.876 185.072 17.26C185.576 16.6253 186.239 16.14 187.06 15.804C187.9 15.4493 188.805 15.272 189.776 15.272C191.101 15.272 192.259 15.5333 193.248 16.056C194.256 16.56 194.993 17.3253 195.46 18.352L192.856 19.528C192.52 18.8933 192.081 18.4547 191.54 18.212C191.017 17.9507 190.439 17.82 189.804 17.82C189.095 17.82 188.497 17.9693 188.012 18.268C187.545 18.5667 187.312 18.94 187.312 19.388C187.312 19.8733 187.517 20.256 187.928 20.536C188.357 20.816 188.88 21.04 189.496 21.208L191.568 21.712C192.987 22.0667 194.051 22.608 194.76 23.336C195.469 24.0453 195.824 24.9133 195.824 25.94C195.824 26.8547 195.563 27.6573 195.04 28.348C194.517 29.02 193.808 29.5427 192.912 29.916C192.035 30.2707 191.055 30.448 189.972 30.448ZM203.971 30.448C202.254 30.448 200.882 30.0747 199.855 29.328C198.829 28.5627 198.119 27.6573 197.727 26.612L200.443 25.436C200.779 26.2013 201.265 26.7893 201.899 27.2C202.534 27.592 203.253 27.788 204.055 27.788C204.802 27.788 205.446 27.6573 205.987 27.396C206.529 27.116 206.799 26.668 206.799 26.052C206.799 25.4547 206.529 25.016 205.987 24.736C205.446 24.456 204.774 24.2133 203.971 24.008L202.263 23.616C201.573 23.448 200.929 23.1867 200.331 22.832C199.734 22.4773 199.249 22.02 198.875 21.46C198.502 20.8813 198.315 20.2093 198.315 19.444C198.315 18.604 198.567 17.876 199.071 17.26C199.575 16.6253 200.238 16.14 201.059 15.804C201.899 15.4493 202.805 15.272 203.775 15.272C205.101 15.272 206.258 15.5333 207.247 16.056C208.255 16.56 208.993 17.3253 209.459 18.352L206.855 19.528C206.519 18.8933 206.081 18.4547 205.539 18.212C205.017 17.9507 204.438 17.82 203.803 17.82C203.094 17.82 202.497 17.9693 202.011 18.268C201.545 18.5667 201.311 18.94 201.311 19.388C201.311 19.8733 201.517 20.256 201.927 20.536C202.357 20.816 202.879 21.04 203.495 21.208L205.567 21.712C206.986 22.0667 208.05 22.608 208.759 23.336C209.469 24.0453 209.823 24.9133 209.823 25.94C209.823 26.8547 209.562 27.6573 209.039 28.348C208.517 29.02 207.807 29.5427 206.911 29.916C206.034 30.2707 205.054 30.448 203.971 30.448ZM217.379 30.448C216.352 30.448 215.438 30.252 214.635 29.86C213.832 29.4493 213.207 28.88 212.759 28.152C212.311 27.424 212.087 26.5933 212.087 25.66C212.087 24.652 212.348 23.7933 212.871 23.084C213.412 22.356 214.131 21.8053 215.027 21.432C215.923 21.0587 216.912 20.872 217.995 20.872C218.891 20.872 219.675 20.956 220.347 21.124C221.038 21.292 221.56 21.4693 221.915 21.656V20.9C221.915 19.9667 221.579 19.22 220.907 18.66C220.235 18.1 219.367 17.82 218.303 17.82C217.575 17.82 216.884 17.988 216.231 18.324C215.578 18.6413 215.055 19.08 214.663 19.64L212.591 18.044C213.207 17.1853 214.019 16.5133 215.027 16.028C216.054 15.524 217.174 15.272 218.387 15.272C220.459 15.272 222.055 15.7853 223.175 16.812C224.295 17.82 224.855 19.2387 224.855 21.068V30H221.915V28.236H221.747C221.374 28.8147 220.814 29.328 220.067 29.776C219.32 30.224 218.424 30.448 217.379 30.448ZM217.911 27.984C218.695 27.984 219.386 27.7973 219.983 27.424C220.58 27.0507 221.047 26.5653 221.383 25.968C221.738 25.352 221.915 24.6893 221.915 23.98C221.486 23.7373 220.982 23.5413 220.403 23.392C219.824 23.224 219.208 23.14 218.555 23.14C217.323 23.14 216.446 23.392 215.923 23.896C215.4 24.3813 215.139 24.9787 215.139 25.688C215.139 26.36 215.391 26.9107 215.895 27.34C216.399 27.7693 217.071 27.984 217.911 27.984Z" fill="#3C4043"/>
</g>
</svg>
