<svg width="174" height="21" viewBox="0 0 174 21" fill="none" xmlns="http://www.w3.org/2000/svg">
<g id="et_add_to_Pay_NBG">
<path id="Left Text" d="M1.30538 15.0006V3.54461H3.06538V13.3366H7.99338V15.0006H1.30538ZM9.77975 15.0006V6.84061H11.5078V15.0006H9.77975ZM10.6438 5.64061C10.3238 5.64061 10.0464 5.52861 9.81175 5.30461C9.58775 5.06994 9.47575 4.79261 9.47575 4.47261C9.47575 4.14194 9.58775 3.86994 9.81175 3.65661C10.0464 3.43261 10.3238 3.32061 10.6438 3.32061C10.9744 3.32061 11.2518 3.43261 11.4758 3.65661C11.6998 3.86994 11.8118 4.14194 11.8118 4.47261C11.8118 4.79261 11.6998 5.06994 11.4758 5.30461C11.2518 5.52861 10.9744 5.64061 10.6438 5.64061ZM16.7778 15.2566C16.1271 15.2566 15.5618 15.1606 15.0818 14.9686C14.6018 14.7659 14.2071 14.4993 13.8978 14.1686C13.5884 13.8273 13.3591 13.4593 13.2098 13.0646L14.7618 12.3926C14.9538 12.8299 15.2258 13.1659 15.5778 13.4006C15.9404 13.6246 16.3564 13.7366 16.8258 13.7366C17.2524 13.7366 17.6204 13.6619 17.9298 13.5126C18.2391 13.3526 18.3938 13.0966 18.3938 12.7446C18.3938 12.5206 18.3191 12.3393 18.1698 12.2006C18.0311 12.0513 17.8391 11.9286 17.5938 11.8326C17.3591 11.7366 17.0871 11.6513 16.7778 11.5766L15.8018 11.3526C15.4178 11.2566 15.0498 11.1073 14.6978 10.9046C14.3564 10.6913 14.0791 10.4246 13.8658 10.1046C13.6524 9.78461 13.5458 9.40594 13.5458 8.96861C13.5458 8.47794 13.6844 8.05661 13.9618 7.70461C14.2498 7.34194 14.6338 7.06461 15.1138 6.87261C15.5938 6.68061 16.1111 6.58461 16.6658 6.58461C17.1778 6.58461 17.6418 6.65394 18.0578 6.79261C18.4844 6.92061 18.8524 7.11794 19.1618 7.38461C19.4818 7.64061 19.7324 7.96061 19.9138 8.34461L18.4258 9.01661C18.2444 8.65394 17.9991 8.40328 17.6898 8.26461C17.3804 8.11528 17.0444 8.04061 16.6818 8.04061C16.2764 8.04061 15.9351 8.12594 15.6578 8.29661C15.3911 8.45661 15.2578 8.66994 15.2578 8.93661C15.2578 9.21394 15.3751 9.43261 15.6098 9.59261C15.8551 9.75261 16.1538 9.88061 16.5058 9.97661L17.6898 10.2646C18.5004 10.4673 19.1084 10.7766 19.5138 11.1926C19.9191 11.5979 20.1218 12.0939 20.1218 12.6806C20.1218 13.2033 19.9724 13.6619 19.6738 14.0566C19.3751 14.4406 18.9698 14.7393 18.4578 14.9526C17.9564 15.1553 17.3964 15.2566 16.7778 15.2566ZM24.418 15.2566C23.8313 15.2566 23.3087 15.1393 22.85 14.9046C22.402 14.6699 22.0447 14.3499 21.778 13.9446C21.522 13.5286 21.394 13.0539 21.394 12.5206C21.394 11.9339 21.5433 11.4379 21.842 11.0326C22.1513 10.6273 22.562 10.3179 23.074 10.1046C23.586 9.89128 24.1513 9.78461 24.77 9.78461C25.1113 9.78461 25.426 9.81128 25.714 9.86461C26.0127 9.90728 26.2687 9.96061 26.482 10.0246C26.706 10.0886 26.882 10.1579 27.01 10.2326V9.80061C27.01 9.26728 26.818 8.84061 26.434 8.52061C26.05 8.20061 25.554 8.04061 24.946 8.04061C24.53 8.04061 24.1353 8.13661 23.762 8.32861C23.3887 8.50994 23.09 8.76061 22.866 9.08061L21.682 8.16861C21.9167 7.83794 22.1993 7.55528 22.53 7.32061C22.8713 7.08594 23.25 6.90461 23.666 6.77661C24.0927 6.64861 24.5353 6.58461 24.994 6.58461C26.178 6.58461 27.09 6.87794 27.73 7.46461C28.37 8.04061 28.69 8.85128 28.69 9.89661V15.0006H27.01V13.9926H26.914C26.7753 14.2059 26.5833 14.4086 26.338 14.6006C26.1033 14.7926 25.8207 14.9473 25.49 15.0646C25.17 15.1926 24.8127 15.2566 24.418 15.2566ZM24.722 13.8486C25.17 13.8486 25.5647 13.7419 25.906 13.5286C26.258 13.3153 26.53 13.0379 26.722 12.6966C26.914 12.3446 27.01 11.9659 27.01 11.5606C26.7753 11.4219 26.4873 11.3099 26.146 11.2246C25.8153 11.1286 25.4633 11.0806 25.09 11.0806C24.386 11.0806 23.8847 11.2193 23.586 11.4966C23.2873 11.7739 23.138 12.1206 23.138 12.5366C23.138 12.9206 23.282 13.2353 23.57 13.4806C23.858 13.7259 24.242 13.8486 24.722 13.8486ZM34.0668 6.84061H35.4908V4.53661H37.2188V6.84061H39.2188V8.34461H37.2188V12.2646C37.2188 12.6699 37.2988 12.9793 37.4588 13.1926C37.6294 13.4059 37.9121 13.5126 38.3068 13.5126C38.4988 13.5126 38.6694 13.4859 38.8188 13.4326C38.9681 13.3686 39.1174 13.2939 39.2668 13.2086V14.8886C39.0854 14.9633 38.8934 15.0219 38.6908 15.0646C38.4881 15.1073 38.2481 15.1286 37.9708 15.1286C37.2134 15.1286 36.6108 14.9099 36.1628 14.4726C35.7148 14.0246 35.4908 13.4113 35.4908 12.6326V8.34461H34.0668V6.84061ZM44.4423 15.2566C43.6423 15.2566 42.9276 15.0699 42.2983 14.6966C41.6689 14.3233 41.1729 13.8113 40.8103 13.1606C40.4583 12.5099 40.2823 11.7686 40.2823 10.9366C40.2823 10.1579 40.4529 9.43794 40.7943 8.77661C41.1356 8.11528 41.6103 7.58728 42.2183 7.19261C42.8369 6.78728 43.5463 6.58461 44.3463 6.58461C45.1889 6.58461 45.9036 6.76594 46.4903 7.12861C47.0876 7.49128 47.5409 7.98728 47.8503 8.61661C48.1596 9.24594 48.3143 9.95528 48.3143 10.7446C48.3143 10.8619 48.3089 10.9686 48.2983 11.0646C48.2983 11.1606 48.2929 11.2353 48.2823 11.2886H41.9783C42.0209 11.7366 42.1329 12.1259 42.3143 12.4566C42.5489 12.8726 42.8583 13.1873 43.2423 13.4006C43.6263 13.6139 44.0423 13.7206 44.4903 13.7206C45.0343 13.7206 45.4876 13.5979 45.8503 13.3526C46.2236 13.0966 46.5169 12.7819 46.7303 12.4086L48.1543 13.0966C47.8023 13.7366 47.3223 14.2593 46.7143 14.6646C46.1063 15.0593 45.3489 15.2566 44.4423 15.2566ZM42.0743 9.99261H46.6023C46.5916 9.78994 46.5383 9.57661 46.4423 9.35261C46.3463 9.11794 46.2076 8.90461 46.0263 8.71261C45.8449 8.52061 45.6156 8.36594 45.3383 8.24861C45.0609 8.12061 44.7356 8.05661 44.3623 8.05661C43.8929 8.05661 43.4769 8.17928 43.1143 8.42461C42.7516 8.65928 42.4689 8.98994 42.2663 9.41661C42.1809 9.59794 42.1169 9.78994 42.0743 9.99261ZM53.8735 15.2566C53.0735 15.2566 52.3588 15.0699 51.7295 14.6966C51.1002 14.3233 50.6042 13.8113 50.2415 13.1606C49.8895 12.5099 49.7135 11.7686 49.7135 10.9366C49.7135 10.1579 49.8842 9.43794 50.2255 8.77661C50.5668 8.11528 51.0415 7.58728 51.6495 7.19261C52.2682 6.78728 52.9775 6.58461 53.7775 6.58461C54.6202 6.58461 55.3348 6.76594 55.9215 7.12861C56.5188 7.49128 56.9722 7.98728 57.2815 8.61661C57.5908 9.24594 57.7455 9.95528 57.7455 10.7446C57.7455 10.8619 57.7402 10.9686 57.7295 11.0646C57.7295 11.1606 57.7242 11.2353 57.7135 11.2886H51.4095C51.4522 11.7366 51.5642 12.1259 51.7455 12.4566C51.9802 12.8726 52.2895 13.1873 52.6735 13.4006C53.0575 13.6139 53.4735 13.7206 53.9215 13.7206C54.4655 13.7206 54.9188 13.5979 55.2815 13.3526C55.6548 13.0966 55.9482 12.7819 56.1615 12.4086L57.5855 13.0966C57.2335 13.7366 56.7535 14.2593 56.1455 14.6646C55.5375 15.0593 54.7802 15.2566 53.8735 15.2566ZM51.5055 9.99261H56.0335C56.0228 9.78994 55.9695 9.57661 55.8735 9.35261C55.7775 9.11794 55.6388 8.90461 55.4575 8.71261C55.2762 8.52061 55.0468 8.36594 54.7695 8.24861C54.4922 8.12061 54.1668 8.05661 53.7935 8.05661C53.3242 8.05661 52.9082 8.17928 52.5455 8.42461C52.1828 8.65928 51.9002 8.98994 51.6975 9.41661C51.6122 9.59794 51.5482 9.78994 51.5055 9.99261ZM59.4986 15.0006V6.84061H61.1306V7.96061H61.2266C61.4613 7.56594 61.808 7.24061 62.2666 6.98461C62.736 6.71794 63.248 6.58461 63.8026 6.58461C64.8053 6.58461 65.5573 6.88328 66.0586 7.48061C66.56 8.06728 66.8106 8.85661 66.8106 9.84861V15.0006H65.0986V10.0726C65.0986 9.41128 64.9333 8.93128 64.6026 8.63261C64.272 8.32328 63.84 8.16861 63.3066 8.16861C62.8906 8.16861 62.528 8.28594 62.2186 8.52061C61.9093 8.74461 61.664 9.04328 61.4826 9.41661C61.312 9.78994 61.2266 10.1899 61.2266 10.6166V15.0006H59.4986ZM71.8899 15.2566C70.8872 15.2566 70.1299 14.9579 69.6179 14.3606C69.1165 13.7526 68.8659 12.9313 68.8659 11.8966V6.84061H70.5939V11.6566C70.5939 12.3393 70.7539 12.8459 71.0739 13.1766C71.4045 13.5073 71.8152 13.6726 72.3059 13.6726C72.7539 13.6726 73.1379 13.5606 73.4579 13.3366C73.7779 13.1019 74.0232 12.7979 74.1939 12.4246C74.3752 12.0513 74.4659 11.6513 74.4659 11.2246V6.84061H76.1779V15.0006H74.5619V13.8966H74.4659C74.3165 14.1526 74.1085 14.3819 73.8419 14.5846C73.5752 14.7873 73.2765 14.9473 72.9459 15.0646C72.6152 15.1926 72.2632 15.2566 71.8899 15.2566ZM81.259 15.2566C80.6083 15.2566 80.043 15.1606 79.563 14.9686C79.083 14.7659 78.6883 14.4993 78.379 14.1686C78.0697 13.8273 77.8403 13.4593 77.691 13.0646L79.243 12.3926C79.435 12.8299 79.707 13.1659 80.059 13.4006C80.4217 13.6246 80.8377 13.7366 81.307 13.7366C81.7337 13.7366 82.1017 13.6619 82.411 13.5126C82.7203 13.3526 82.875 13.0966 82.875 12.7446C82.875 12.5206 82.8003 12.3393 82.651 12.2006C82.5123 12.0513 82.3203 11.9286 82.075 11.8326C81.8403 11.7366 81.5683 11.6513 81.259 11.5766L80.283 11.3526C79.899 11.2566 79.531 11.1073 79.179 10.9046C78.8377 10.6913 78.5603 10.4246 78.347 10.1046C78.1337 9.78461 78.027 9.40594 78.027 8.96861C78.027 8.47794 78.1657 8.05661 78.443 7.70461C78.731 7.34194 79.115 7.06461 79.595 6.87261C80.075 6.68061 80.5923 6.58461 81.147 6.58461C81.659 6.58461 82.123 6.65394 82.539 6.79261C82.9657 6.92061 83.3337 7.11794 83.643 7.38461C83.963 7.64061 84.2137 7.96061 84.395 8.34461L82.907 9.01661C82.7257 8.65394 82.4803 8.40328 82.171 8.26461C81.8617 8.11528 81.5257 8.04061 81.163 8.04061C80.7577 8.04061 80.4163 8.12594 80.139 8.29661C79.8723 8.45661 79.739 8.66994 79.739 8.93661C79.739 9.21394 79.8563 9.43261 80.091 9.59261C80.3363 9.75261 80.635 9.88061 80.987 9.97661L82.171 10.2646C82.9817 10.4673 83.5897 10.7766 83.995 11.1926C84.4003 11.5979 84.603 12.0939 84.603 12.6806C84.603 13.2033 84.4537 13.6619 84.155 14.0566C83.8563 14.4406 83.451 14.7393 82.939 14.9526C82.4377 15.1553 81.8777 15.2566 81.259 15.2566ZM90.0673 15.2566C89.2673 15.2566 88.5526 15.0699 87.9233 14.6966C87.2939 14.3233 86.7979 13.8113 86.4353 13.1606C86.0833 12.5099 85.9073 11.7686 85.9073 10.9366C85.9073 10.1579 86.0779 9.43794 86.4193 8.77661C86.7606 8.11528 87.2353 7.58728 87.8433 7.19261C88.4619 6.78728 89.1713 6.58461 89.9713 6.58461C90.8139 6.58461 91.5286 6.76594 92.1153 7.12861C92.7126 7.49128 93.1659 7.98728 93.4753 8.61661C93.7846 9.24594 93.9393 9.95528 93.9393 10.7446C93.9393 10.8619 93.9339 10.9686 93.9233 11.0646C93.9233 11.1606 93.9179 11.2353 93.9073 11.2886H87.6033C87.6459 11.7366 87.7579 12.1259 87.9393 12.4566C88.1739 12.8726 88.4833 13.1873 88.8673 13.4006C89.2513 13.6139 89.6673 13.7206 90.1153 13.7206C90.6593 13.7206 91.1126 13.5979 91.4753 13.3526C91.8486 13.0966 92.1419 12.7819 92.3553 12.4086L93.7793 13.0966C93.4273 13.7366 92.9473 14.2593 92.3393 14.6646C91.7313 15.0593 90.9739 15.2566 90.0673 15.2566ZM87.6993 9.99261H92.2273C92.2166 9.78994 92.1633 9.57661 92.0673 9.35261C91.9713 9.11794 91.8326 8.90461 91.6513 8.71261C91.4699 8.52061 91.2406 8.36594 90.9633 8.24861C90.6859 8.12061 90.3606 8.05661 89.9873 8.05661C89.5179 8.05661 89.1019 8.17928 88.7393 8.42461C88.3766 8.65928 88.0939 8.98994 87.8913 9.41661C87.8059 9.59794 87.7419 9.78994 87.6993 9.99261ZM98.7465 15.2566C98.0958 15.2566 97.5305 15.1606 97.0505 14.9686C96.5705 14.7659 96.1758 14.4993 95.8665 14.1686C95.5572 13.8273 95.3278 13.4593 95.1785 13.0646L96.7305 12.3926C96.9225 12.8299 97.1945 13.1659 97.5465 13.4006C97.9092 13.6246 98.3252 13.7366 98.7945 13.7366C99.2212 13.7366 99.5892 13.6619 99.8985 13.5126C100.208 13.3526 100.363 13.0966 100.363 12.7446C100.363 12.5206 100.288 12.3393 100.139 12.2006C99.9998 12.0513 99.8078 11.9286 99.5625 11.8326C99.3278 11.7366 99.0558 11.6513 98.7465 11.5766L97.7705 11.3526C97.3865 11.2566 97.0185 11.1073 96.6665 10.9046C96.3252 10.6913 96.0478 10.4246 95.8345 10.1046C95.6212 9.78461 95.5145 9.40594 95.5145 8.96861C95.5145 8.47794 95.6532 8.05661 95.9305 7.70461C96.2185 7.34194 96.6025 7.06461 97.0825 6.87261C97.5625 6.68061 98.0798 6.58461 98.6345 6.58461C99.1465 6.58461 99.6105 6.65394 100.027 6.79261C100.453 6.92061 100.821 7.11794 101.131 7.38461C101.451 7.64061 101.701 7.96061 101.883 8.34461L100.395 9.01661C100.213 8.65394 99.9678 8.40328 99.6585 8.26461C99.3492 8.11528 99.0132 8.04061 98.6505 8.04061C98.2452 8.04061 97.9038 8.12594 97.6265 8.29661C97.3598 8.45661 97.2265 8.66994 97.2265 8.93661C97.2265 9.21394 97.3438 9.43261 97.5785 9.59261C97.8238 9.75261 98.1225 9.88061 98.4745 9.97661L99.6585 10.2646C100.469 10.4673 101.077 10.7766 101.483 11.1926C101.888 11.5979 102.091 12.0939 102.091 12.6806C102.091 13.2033 101.941 13.6619 101.643 14.0566C101.344 14.4406 100.939 14.7393 100.427 14.9526C99.9252 15.1553 99.3652 15.2566 98.7465 15.2566ZM106.725 15.2566C106.074 15.2566 105.509 15.1606 105.029 14.9686C104.549 14.7659 104.154 14.4993 103.845 14.1686C103.535 13.8273 103.306 13.4593 103.157 13.0646L104.709 12.3926C104.901 12.8299 105.173 13.1659 105.525 13.4006C105.887 13.6246 106.303 13.7366 106.773 13.7366C107.199 13.7366 107.567 13.6619 107.877 13.5126C108.186 13.3526 108.341 13.0966 108.341 12.7446C108.341 12.5206 108.266 12.3393 108.117 12.2006C107.978 12.0513 107.786 11.9286 107.541 11.8326C107.306 11.7366 107.034 11.6513 106.725 11.5766L105.749 11.3526C105.365 11.2566 104.997 11.1073 104.645 10.9046C104.303 10.6913 104.026 10.4246 103.813 10.1046C103.599 9.78461 103.493 9.40594 103.493 8.96861C103.493 8.47794 103.631 8.05661 103.909 7.70461C104.197 7.34194 104.581 7.06461 105.061 6.87261C105.541 6.68061 106.058 6.58461 106.613 6.58461C107.125 6.58461 107.589 6.65394 108.005 6.79261C108.431 6.92061 108.799 7.11794 109.109 7.38461C109.429 7.64061 109.679 7.96061 109.861 8.34461L108.373 9.01661C108.191 8.65394 107.946 8.40328 107.637 8.26461C107.327 8.11528 106.991 8.04061 106.629 8.04061C106.223 8.04061 105.882 8.12594 105.605 8.29661C105.338 8.45661 105.205 8.66994 105.205 8.93661C105.205 9.21394 105.322 9.43261 105.557 9.59261C105.802 9.75261 106.101 9.88061 106.453 9.97661L107.637 10.2646C108.447 10.4673 109.055 10.7766 109.461 11.1926C109.866 11.5979 110.069 12.0939 110.069 12.6806C110.069 13.2033 109.919 13.6619 109.621 14.0566C109.322 14.4406 108.917 14.7393 108.405 14.9526C107.903 15.1553 107.343 15.2566 106.725 15.2566ZM115.533 15.2566C114.733 15.2566 114.018 15.0699 113.389 14.6966C112.76 14.3233 112.264 13.8113 111.901 13.1606C111.549 12.5099 111.373 11.7686 111.373 10.9366C111.373 10.1579 111.544 9.43794 111.885 8.77661C112.226 8.11528 112.701 7.58728 113.309 7.19261C113.928 6.78728 114.637 6.58461 115.437 6.58461C116.28 6.58461 116.994 6.76594 117.581 7.12861C118.178 7.49128 118.632 7.98728 118.941 8.61661C119.25 9.24594 119.405 9.95528 119.405 10.7446C119.405 10.8619 119.4 10.9686 119.389 11.0646C119.389 11.1606 119.384 11.2353 119.373 11.2886H113.069C113.112 11.7366 113.224 12.1259 113.405 12.4566C113.64 12.8726 113.949 13.1873 114.333 13.4006C114.717 13.6139 115.133 13.7206 115.581 13.7206C116.125 13.7206 116.578 13.5979 116.941 13.3526C117.314 13.0966 117.608 12.7819 117.821 12.4086L119.245 13.0966C118.893 13.7366 118.413 14.2593 117.805 14.6646C117.197 15.0593 116.44 15.2566 115.533 15.2566ZM113.165 9.99261H117.693C117.682 9.78994 117.629 9.57661 117.533 9.35261C117.437 9.11794 117.298 8.90461 117.117 8.71261C116.936 8.52061 116.706 8.36594 116.429 8.24861C116.152 8.12061 115.826 8.05661 115.453 8.05661C114.984 8.05661 114.568 8.17928 114.205 8.42461C113.842 8.65928 113.56 8.98994 113.357 9.41661C113.272 9.59794 113.208 9.78994 113.165 9.99261Z" fill="white"/>
<g id="GPay (Dark)">
<g id="GPay">
<g id="Pay">
<path id="Fill 1" fill-rule="evenodd" clip-rule="evenodd" d="M148.356 3.42339V8.16175H151.278C151.974 8.16175 152.55 7.92781 153.005 7.45993C153.473 6.99313 153.707 6.43644 153.707 5.79203C153.707 5.16061 153.473 4.61041 153.005 4.14254C152.55 3.66274 151.974 3.4223 151.278 3.4223H148.356V3.42339ZM148.356 9.82966V15.3262H146.611V1.75549H151.24C152.417 1.75549 153.415 2.14756 154.238 2.93061C155.073 3.71365 155.491 4.66782 155.491 5.79203C155.491 6.94224 155.073 7.90291 154.238 8.67296C153.428 9.44409 152.429 9.82858 151.24 9.82858H148.356V9.82966Z" fill="white"/>
<path id="Fill 3" fill-rule="evenodd" clip-rule="evenodd" d="M157.255 12.4831C157.255 12.9379 157.448 13.317 157.834 13.6203C158.22 13.9235 158.672 14.0752 159.19 14.0752C159.924 14.0752 160.578 13.8032 161.153 13.2607C161.729 12.717 162.017 12.0791 162.017 11.3469C161.472 10.917 160.713 10.7025 159.74 10.7025C159.031 10.7025 158.44 10.8736 157.966 11.2148C157.492 11.5559 157.255 11.9773 157.255 12.4831M159.513 5.73566C160.803 5.73566 161.821 6.08007 162.569 6.76889C163.314 7.45771 163.687 8.40213 163.687 9.60216V15.3261H162.018V14.0373H161.942C161.221 15.0985 160.259 15.6294 159.058 15.6294C158.033 15.6294 157.176 15.3261 156.487 14.7196C155.797 14.1131 155.453 13.3549 155.453 12.4452C155.453 11.4845 155.816 10.7208 156.543 10.1523C157.271 9.58375 158.241 9.2989 159.456 9.2989C160.492 9.2989 161.346 9.48844 162.017 9.86751V9.46894C162.017 8.86243 161.776 8.34798 161.296 7.92451C160.814 7.50103 160.252 7.28984 159.607 7.28984C158.633 7.28984 157.862 7.70032 157.293 8.52235L155.755 7.55519C156.603 6.34217 157.855 5.73566 159.513 5.73566" fill="white"/>
<path id="Fill 5" fill-rule="evenodd" clip-rule="evenodd" d="M173.269 6.03894L167.443 19.4201H165.641L167.804 14.738L163.971 6.03894H165.869L168.639 12.7106H168.677L171.371 6.03894H173.269Z" fill="white"/>
</g>
<g id="G">
<path id="Fill 8" fill-rule="evenodd" clip-rule="evenodd" d="M141.303 8.64473C141.303 8.09563 141.256 7.56601 141.168 7.05914H133.806V10.0625H138.023C137.842 11.0414 137.294 11.8744 136.464 12.4322V14.3828H138.98C140.454 13.0246 141.303 11.0177 141.303 8.64473" fill="#4285F4"/>
<path id="Fill 10" fill-rule="evenodd" clip-rule="evenodd" d="M133.806 16.2651C135.913 16.2651 137.687 15.5741 138.98 14.3828L136.464 12.4322C135.763 12.9033 134.861 13.1784 133.806 13.1784C131.77 13.1784 130.042 11.8073 129.424 9.95959H126.832V11.9687C128.116 14.516 130.757 16.2651 133.806 16.2651" fill="#34A853"/>
<path id="Fill 12" fill-rule="evenodd" clip-rule="evenodd" d="M129.424 9.9596C129.266 9.48847 129.179 8.98593 129.179 8.46715C129.179 7.94837 129.266 7.44583 129.424 6.9747V4.96564H126.832C126.3 6.01837 126 7.20756 126 8.46715C126 9.72674 126.3 10.916 126.832 11.9687L129.424 9.9596Z" fill="#FABB05"/>
<path id="Fill 14" fill-rule="evenodd" clip-rule="evenodd" d="M133.806 3.75583C134.957 3.75583 135.988 4.15115 136.801 4.92553V4.92661L139.029 2.70094C137.676 1.44243 135.912 0.669128 133.806 0.669128C130.757 0.669128 128.116 2.41826 126.832 4.9656L129.424 6.97467C130.042 5.12698 131.77 3.75583 133.806 3.75583" fill="#E94235"/>
</g>
</g>
</g>
</g>
</svg>
