<svg width="138" height="21" viewBox="0 0 138 21" fill="none" xmlns="http://www.w3.org/2000/svg">
<g id="et_book_with_Pay_NBG">
<path id="Left Text" d="M1.57412 15.0006V3.54461H5.86212C6.49146 3.54461 7.06212 3.67794 7.57412 3.94461C8.08612 4.21128 8.49146 4.57394 8.79012 5.03261C9.09946 5.49128 9.25412 6.00861 9.25412 6.58461C9.25412 7.17128 9.11012 7.67261 8.82212 8.08861C8.53412 8.50461 8.16079 8.81928 7.70212 9.03261V9.11261C8.27812 9.30461 8.74746 9.63528 9.11012 10.1046C9.47279 10.5739 9.65412 11.1339 9.65412 11.7846C9.65412 12.4246 9.48879 12.9846 9.15812 13.4646C8.83812 13.9446 8.40079 14.3233 7.84612 14.6006C7.30212 14.8673 6.70479 15.0006 6.05412 15.0006H1.57412ZM3.33412 9.92861V13.3686H6.05412C6.43812 13.3686 6.76879 13.2886 7.04612 13.1286C7.32346 12.9686 7.53146 12.7553 7.67012 12.4886C7.81946 12.2219 7.89412 11.9446 7.89412 11.6566C7.89412 11.3473 7.81946 11.0646 7.67012 10.8086C7.52079 10.5419 7.30212 10.3286 7.01412 10.1686C6.73679 10.0086 6.39546 9.92861 5.99012 9.92861H3.33412ZM3.33412 8.36061H5.78212C6.15546 8.36061 6.47012 8.28594 6.72612 8.13661C6.99279 7.97661 7.19546 7.77394 7.33412 7.52861C7.47279 7.27261 7.54212 7.01128 7.54212 6.74461C7.54212 6.47794 7.47279 6.22728 7.33412 5.99261C7.20612 5.74728 7.01412 5.54994 6.75812 5.40061C6.50212 5.24061 6.19812 5.16061 5.84612 5.16061H3.33412V8.36061ZM11.4517 15.0006V6.84061H13.0837V8.04061H13.1797C13.3077 7.76328 13.4891 7.51794 13.7237 7.30461C13.9691 7.09128 14.2464 6.92061 14.5557 6.79261C14.8757 6.66461 15.2064 6.60061 15.5477 6.60061C15.7717 6.60061 15.9584 6.61661 16.1077 6.64861C16.2677 6.66994 16.4117 6.70728 16.5397 6.76061V8.55261C16.3371 8.46728 16.1291 8.39794 15.9157 8.34461C15.7131 8.29128 15.4997 8.26461 15.2757 8.26461C14.8704 8.26461 14.5077 8.37661 14.1877 8.60061C13.8784 8.81394 13.6331 9.10194 13.4517 9.46461C13.2704 9.82728 13.1797 10.2326 13.1797 10.6806V15.0006H11.4517ZM21.3792 15.2566C20.5366 15.2566 19.7952 15.0646 19.1552 14.6806C18.5152 14.2966 18.0139 13.7793 17.6512 13.1286C17.2886 12.4673 17.1072 11.7313 17.1072 10.9206C17.1072 10.1099 17.2886 9.37928 17.6512 8.72861C18.0139 8.06728 18.5152 7.54461 19.1552 7.16061C19.7952 6.77661 20.5366 6.58461 21.3792 6.58461C22.2112 6.58461 22.9472 6.78194 23.5872 7.17661C24.2272 7.56061 24.7286 8.07794 25.0912 8.72861C25.4539 9.37928 25.6352 10.1099 25.6352 10.9206C25.6352 11.7313 25.4539 12.4673 25.0912 13.1286C24.7286 13.7793 24.2272 14.2966 23.5872 14.6806C22.9472 15.0646 22.2112 15.2566 21.3792 15.2566ZM21.3792 13.6726C21.8272 13.6726 22.2432 13.5659 22.6272 13.3526C23.0112 13.1286 23.3206 12.8139 23.5552 12.4086C23.8006 11.9926 23.9232 11.4966 23.9232 10.9206C23.9232 10.3446 23.8006 9.85394 23.5552 9.44861C23.3206 9.03261 23.0112 8.71794 22.6272 8.50461C22.2432 8.28061 21.8272 8.16861 21.3792 8.16861C20.9312 8.16861 20.5099 8.28061 20.1152 8.50461C19.7312 8.71794 19.4166 9.03261 19.1712 9.44861C18.9366 9.85394 18.8192 10.3446 18.8192 10.9206C18.8192 11.4966 18.9366 11.9926 19.1712 12.4086C19.4166 12.8139 19.7366 13.1286 20.1312 13.3526C20.5259 13.5659 20.9419 13.6726 21.3792 13.6726ZM27.2205 15.0006V6.84061H28.8525V7.96061H28.9485C29.1832 7.56594 29.5298 7.24061 29.9885 6.98461C30.4578 6.71794 30.9698 6.58461 31.5245 6.58461C32.5272 6.58461 33.2792 6.88328 33.7805 7.48061C34.2818 8.06728 34.5325 8.85661 34.5325 9.84861V15.0006H32.8205V10.0726C32.8205 9.41128 32.6552 8.93128 32.3245 8.63261C31.9938 8.32328 31.5618 8.16861 31.0285 8.16861C30.6125 8.16861 30.2498 8.28594 29.9405 8.52061C29.6312 8.74461 29.3858 9.04328 29.2045 9.41661C29.0338 9.78994 28.9485 10.1899 28.9485 10.6166V15.0006H27.2205ZM40.3797 15.2566C39.5797 15.2566 38.8651 15.0699 38.2357 14.6966C37.6064 14.3233 37.1104 13.8113 36.7477 13.1606C36.3957 12.5099 36.2197 11.7686 36.2197 10.9366C36.2197 10.1579 36.3904 9.43794 36.7317 8.77661C37.0731 8.11528 37.5477 7.58728 38.1557 7.19261C38.7744 6.78728 39.4837 6.58461 40.2837 6.58461C41.1264 6.58461 41.8411 6.76594 42.4277 7.12861C43.0251 7.49128 43.4784 7.98728 43.7877 8.61661C44.0971 9.24594 44.2517 9.95528 44.2517 10.7446C44.2517 10.8619 44.2464 10.9686 44.2357 11.0646C44.2357 11.1606 44.2304 11.2353 44.2197 11.2886H37.9157C37.9584 11.7366 38.0704 12.1259 38.2517 12.4566C38.4864 12.8726 38.7957 13.1873 39.1797 13.4006C39.5637 13.6139 39.9797 13.7206 40.4277 13.7206C40.9717 13.7206 41.4251 13.5979 41.7877 13.3526C42.1611 13.0966 42.4544 12.7819 42.6677 12.4086L44.0917 13.0966C43.7397 13.7366 43.2597 14.2593 42.6517 14.6646C42.0437 15.0593 41.2864 15.2566 40.3797 15.2566ZM38.0117 9.99261H42.5397C42.5291 9.78994 42.4757 9.57661 42.3797 9.35261C42.2837 9.11794 42.1451 8.90461 41.9637 8.71261C41.7824 8.52061 41.5531 8.36594 41.2757 8.24861C40.9984 8.12061 40.6731 8.05661 40.2997 8.05661C39.8304 8.05661 39.4144 8.17928 39.0517 8.42461C38.6891 8.65928 38.4064 8.98994 38.2037 9.41661C38.1184 9.59794 38.0544 9.78994 38.0117 9.99261ZM49.811 15.2566C49.011 15.2566 48.2963 15.0699 47.667 14.6966C47.0377 14.3233 46.5417 13.8113 46.179 13.1606C45.827 12.5099 45.651 11.7686 45.651 10.9366C45.651 10.1579 45.8217 9.43794 46.163 8.77661C46.5043 8.11528 46.979 7.58728 47.587 7.19261C48.2057 6.78728 48.915 6.58461 49.715 6.58461C50.5577 6.58461 51.2723 6.76594 51.859 7.12861C52.4563 7.49128 52.9097 7.98728 53.219 8.61661C53.5283 9.24594 53.683 9.95528 53.683 10.7446C53.683 10.8619 53.6777 10.9686 53.667 11.0646C53.667 11.1606 53.6617 11.2353 53.651 11.2886H47.347C47.3897 11.7366 47.5017 12.1259 47.683 12.4566C47.9177 12.8726 48.227 13.1873 48.611 13.4006C48.995 13.6139 49.411 13.7206 49.859 13.7206C50.403 13.7206 50.8563 13.5979 51.219 13.3526C51.5923 13.0966 51.8857 12.7819 52.099 12.4086L53.523 13.0966C53.171 13.7366 52.691 14.2593 52.083 14.6646C51.475 15.0593 50.7177 15.2566 49.811 15.2566ZM47.443 9.99261H51.971C51.9603 9.78994 51.907 9.57661 51.811 9.35261C51.715 9.11794 51.5763 8.90461 51.395 8.71261C51.2137 8.52061 50.9843 8.36594 50.707 8.24861C50.4297 8.12061 50.1043 8.05661 49.731 8.05661C49.2617 8.05661 48.8457 8.17928 48.483 8.42461C48.1203 8.65928 47.8377 8.98994 47.635 9.41661C47.5497 9.59794 47.4857 9.78994 47.443 9.99261ZM55.4361 15.0006V6.84061H57.0681V8.04061H57.1641C57.2921 7.76328 57.4735 7.51794 57.7081 7.30461C57.9535 7.09128 58.2308 6.92061 58.5401 6.79261C58.8601 6.66461 59.1908 6.60061 59.5321 6.60061C59.7561 6.60061 59.9428 6.61661 60.0921 6.64861C60.2521 6.66994 60.3961 6.70728 60.5241 6.76061V8.55261C60.3215 8.46728 60.1135 8.39794 59.9001 8.34461C59.6975 8.29128 59.4841 8.26461 59.2601 8.26461C58.8548 8.26461 58.4921 8.37661 58.1721 8.60061C57.8628 8.81394 57.6175 9.10194 57.4361 9.46461C57.2548 9.82728 57.1641 10.2326 57.1641 10.6806V15.0006H55.4361ZM62.136 15.0006V6.84061H63.864V15.0006H62.136ZM63 5.64061C62.68 5.64061 62.4027 5.52861 62.168 5.30461C61.944 5.06994 61.832 4.79261 61.832 4.47261C61.832 4.14194 61.944 3.86994 62.168 3.65661C62.4027 3.43261 62.68 3.32061 63 3.32061C63.3307 3.32061 63.608 3.43261 63.832 3.65661C64.056 3.86994 64.168 4.14194 64.168 4.47261C64.168 4.79261 64.056 5.06994 63.832 5.30461C63.608 5.52861 63.3307 5.64061 63 5.64061Z" fill="white"/>
<g id="GPay (Dark)">
<g id="GPay">
<g id="Pay">
<path id="Fill 1" fill-rule="evenodd" clip-rule="evenodd" d="M93.3563 3.42339V8.16175H96.2784C96.9745 8.16175 97.5501 7.92781 98.0055 7.45993C98.4728 6.99313 98.707 6.43644 98.707 5.79203C98.707 5.16061 98.4728 4.61041 98.0055 4.14254C97.5501 3.66274 96.9745 3.4223 96.2784 3.4223H93.3563V3.42339ZM93.3563 9.82966V15.3262H91.6107V1.75549H96.2404C97.4169 1.75549 98.4154 2.14756 99.2383 2.93061C100.073 3.71365 100.491 4.66782 100.491 5.79203C100.491 6.94224 100.073 7.90291 99.2383 8.67296C98.4283 9.44409 97.4287 9.82858 96.2404 9.82858H93.3563V9.82966Z" fill="white"/>
<path id="Fill 3" fill-rule="evenodd" clip-rule="evenodd" d="M102.255 12.4831C102.255 12.9379 102.448 13.317 102.834 13.6203C103.22 13.9235 103.672 14.0752 104.19 14.0752C104.924 14.0752 105.578 13.8032 106.153 13.2607C106.729 12.717 107.017 12.0791 107.017 11.3469C106.472 10.917 105.713 10.7025 104.74 10.7025C104.031 10.7025 103.44 10.8736 102.966 11.2148C102.492 11.5559 102.255 11.9773 102.255 12.4831M104.513 5.73566C105.803 5.73566 106.821 6.08007 107.569 6.76889C108.314 7.45771 108.687 8.40213 108.687 9.60216V15.3261H107.018V14.0373H106.942C106.221 15.0985 105.259 15.6294 104.058 15.6294C103.033 15.6294 102.176 15.3261 101.487 14.7196C100.797 14.1131 100.453 13.3549 100.453 12.4452C100.453 11.4845 100.816 10.7208 101.543 10.1523C102.271 9.58375 103.241 9.2989 104.456 9.2989C105.492 9.2989 106.346 9.48844 107.017 9.86751V9.46894C107.017 8.86243 106.776 8.34798 106.296 7.92451C105.814 7.50103 105.252 7.28984 104.607 7.28984C103.633 7.28984 102.862 7.70032 102.293 8.52235L100.755 7.55519C101.603 6.34217 102.855 5.73566 104.513 5.73566" fill="white"/>
<path id="Fill 5" fill-rule="evenodd" clip-rule="evenodd" d="M118.269 6.03894L112.443 19.4201H110.641L112.804 14.738L108.971 6.03894H110.869L113.639 12.7106H113.677L116.371 6.03894H118.269Z" fill="white"/>
</g>
<g id="G">
<path id="Fill 8" fill-rule="evenodd" clip-rule="evenodd" d="M86.3029 8.64473C86.3029 8.09563 86.2562 7.56601 86.1684 7.05914H78.8065V10.0625H83.0231C82.842 11.0414 82.2944 11.8744 81.4639 12.4322V14.3828H83.9804C85.4539 13.0246 86.3029 11.0177 86.3029 8.64473" fill="#4285F4"/>
<path id="Fill 10" fill-rule="evenodd" clip-rule="evenodd" d="M78.8065 16.2651C80.9131 16.2651 82.6869 15.5741 83.9804 14.3828L81.4639 12.4322C80.7635 12.9033 79.8614 13.1784 78.8065 13.1784C76.7703 13.1784 75.042 11.8073 74.424 9.95959H71.8316V11.9687C73.1164 14.516 75.7565 16.2651 78.8065 16.2651" fill="#34A853"/>
<path id="Fill 12" fill-rule="evenodd" clip-rule="evenodd" d="M74.424 9.9596C74.2657 9.48847 74.179 8.98593 74.179 8.46715C74.179 7.94837 74.2657 7.44583 74.424 6.9747V4.96564H71.8316C71.3003 6.01837 71 7.20756 71 8.46715C71 9.72674 71.3003 10.916 71.8316 11.9687L74.424 9.9596Z" fill="#FABB05"/>
<path id="Fill 14" fill-rule="evenodd" clip-rule="evenodd" d="M78.8065 3.75583C79.9568 3.75583 80.9879 4.15115 81.8011 4.92553V4.92661L84.0292 2.70094C82.6761 1.44243 80.912 0.669128 78.8065 0.669128C75.7565 0.669128 73.1164 2.41826 71.8316 4.9656L74.424 6.97467C75.042 5.12698 76.7703 3.75583 78.8065 3.75583" fill="#E94235"/>
</g>
</g>
</g>
<path id="Right Text" d="M123.338 18.7126C122.623 18.7126 122.005 18.5953 121.482 18.3606C120.97 18.1366 120.554 17.8433 120.234 17.4806C119.914 17.1286 119.685 16.7659 119.546 16.3926L121.146 15.7206C121.317 16.1473 121.589 16.4939 121.962 16.7606C122.346 17.0379 122.805 17.1766 123.338 17.1766C124.095 17.1766 124.687 16.9526 125.114 16.5046C125.541 16.0566 125.754 15.4219 125.754 14.6006V13.8166H125.658C125.402 14.1899 125.05 14.4939 124.602 14.7286C124.154 14.9633 123.637 15.0806 123.05 15.0806C122.357 15.0806 121.717 14.9046 121.13 14.5526C120.554 14.2006 120.09 13.7099 119.738 13.0806C119.397 12.4406 119.226 11.6939 119.226 10.8406C119.226 9.97661 119.397 9.22994 119.738 8.60061C120.09 7.96061 120.554 7.46461 121.13 7.11261C121.717 6.76061 122.357 6.58461 123.05 6.58461C123.637 6.58461 124.154 6.70194 124.602 6.93661C125.05 7.16061 125.402 7.46994 125.658 7.86461H125.754V6.84061H127.402V14.5686C127.402 15.4539 127.226 16.2059 126.874 16.8246C126.533 17.4433 126.058 17.9126 125.45 18.2326C124.842 18.5526 124.138 18.7126 123.338 18.7126ZM123.354 13.5126C123.781 13.5126 124.175 13.4113 124.538 13.2086C124.911 12.9953 125.205 12.6913 125.418 12.2966C125.642 11.8913 125.754 11.4059 125.754 10.8406C125.754 10.2433 125.642 9.74728 125.418 9.35261C125.205 8.95794 124.911 8.65928 124.538 8.45661C124.175 8.25394 123.781 8.15261 123.354 8.15261C122.927 8.15261 122.527 8.25394 122.154 8.45661C121.791 8.65928 121.498 8.96328 121.274 9.36861C121.05 9.76328 120.938 10.2539 120.938 10.8406C120.938 11.4166 121.05 11.9073 121.274 12.3126C121.498 12.7073 121.791 13.0059 122.154 13.2086C122.527 13.4113 122.927 13.5126 123.354 13.5126ZM132.055 15.2566C131.469 15.2566 130.946 15.1393 130.487 14.9046C130.039 14.6699 129.682 14.3499 129.415 13.9446C129.159 13.5286 129.031 13.0539 129.031 12.5206C129.031 11.9339 129.181 11.4379 129.479 11.0326C129.789 10.6273 130.199 10.3179 130.711 10.1046C131.223 9.89128 131.789 9.78461 132.407 9.78461C132.749 9.78461 133.063 9.81128 133.351 9.86461C133.65 9.90728 133.906 9.96061 134.119 10.0246C134.343 10.0886 134.519 10.1579 134.647 10.2326V9.80061C134.647 9.26728 134.455 8.84061 134.071 8.52061C133.687 8.20061 133.191 8.04061 132.583 8.04061C132.167 8.04061 131.773 8.13661 131.399 8.32861C131.026 8.50994 130.727 8.76061 130.503 9.08061L129.319 8.16861C129.554 7.83794 129.837 7.55528 130.167 7.32061C130.509 7.08594 130.887 6.90461 131.303 6.77661C131.73 6.64861 132.173 6.58461 132.631 6.58461C133.815 6.58461 134.727 6.87794 135.367 7.46461C136.007 8.04061 136.327 8.85128 136.327 9.89661V15.0006H134.647V13.9926H134.551C134.413 14.2059 134.221 14.4086 133.975 14.6006C133.741 14.7926 133.458 14.9473 133.127 15.0646C132.807 15.1926 132.45 15.2566 132.055 15.2566ZM132.359 13.8486C132.807 13.8486 133.202 13.7419 133.543 13.5286C133.895 13.3153 134.167 13.0379 134.359 12.6966C134.551 12.3446 134.647 11.9659 134.647 11.5606C134.413 11.4219 134.125 11.3099 133.783 11.2246C133.453 11.1286 133.101 11.0806 132.727 11.0806C132.023 11.0806 131.522 11.2193 131.223 11.4966C130.925 11.7739 130.775 12.1206 130.775 12.5366C130.775 12.9206 130.919 13.2353 131.207 13.4806C131.495 13.7259 131.879 13.8486 132.359 13.8486Z" fill="white"/>
</g>
</svg>
