<svg width="266" height="38" viewBox="0 0 266 38" fill="none" xmlns="http://www.w3.org/2000/svg">
<g id="et_book_with_Light">
<path id="Text" d="M2.94065 30V9.952H10.4447C11.5273 9.952 12.5167 10.1853 13.4127 10.652C14.3273 11.1187 15.046 11.7533 15.5687 12.556C16.11 13.3587 16.3807 14.264 16.3807 15.272C16.3807 16.2987 16.1193 17.176 15.5967 17.904C15.0927 18.632 14.4487 19.1827 13.6647 19.556V19.696C14.6727 20.0507 15.494 20.6387 16.1287 21.46C16.7633 22.2627 17.0807 23.2333 17.0807 24.372C17.0807 25.492 16.7913 26.4813 16.2127 27.34C15.6527 28.18 14.8873 28.8333 13.9167 29.3C12.9647 29.7667 11.9193 30 10.7807 30H2.94065ZM10.4167 12.78H6.02065V18.38H10.3047C11.2753 18.38 12.0313 18.0907 12.5727 17.512C13.114 16.9147 13.3847 16.2613 13.3847 15.552C13.3847 14.8613 13.1233 14.2267 12.6007 13.648C12.078 13.0693 11.35 12.78 10.4167 12.78ZM6.02065 27.144H10.7807C11.7887 27.144 12.5727 26.8453 13.1327 26.248C13.7113 25.632 14.0007 24.932 14.0007 24.148C14.0007 23.364 13.7113 22.664 13.1327 22.048C12.554 21.432 11.7327 21.124 10.6687 21.124H6.02065V27.144ZM20.264 30V15.72H23.12V17.82H23.288C23.6053 17.092 24.1467 16.4947 24.912 16.028C25.696 15.5427 26.536 15.3 27.432 15.3C27.824 15.3 28.1507 15.328 28.412 15.384C28.692 15.44 28.944 15.5053 29.168 15.58V18.716C28.8133 18.5667 28.4493 18.4453 28.076 18.352C27.7213 18.2587 27.348 18.212 26.956 18.212C26.2467 18.212 25.612 18.408 25.052 18.8C24.5107 19.1733 24.0813 19.6867 23.764 20.34C23.4467 20.9747 23.288 21.6747 23.288 22.44V30H20.264ZM37.6746 30.448C36.2 30.448 34.9026 30.112 33.7826 29.44C32.6626 28.768 31.7853 27.8627 31.1506 26.724C30.516 25.5853 30.1986 24.2973 30.1986 22.86C30.1986 21.4413 30.516 20.1627 31.1506 19.024C31.7853 17.8667 32.6626 16.952 33.7826 16.28C34.9026 15.608 36.2 15.272 37.6746 15.272C39.1306 15.272 40.4186 15.608 41.5386 16.28C42.6586 16.952 43.536 17.8667 44.1706 19.024C44.8053 20.1627 45.1226 21.4413 45.1226 22.86C45.1226 24.2973 44.8053 25.5853 44.1706 26.724C43.536 27.8627 42.6586 28.768 41.5386 29.44C40.4186 30.112 39.1306 30.448 37.6746 30.448ZM37.6746 27.676C38.4586 27.676 39.1866 27.4893 39.8586 27.116C40.5306 26.724 41.072 26.1733 41.4826 25.464C41.912 24.736 42.1266 23.868 42.1266 22.86C42.1266 21.852 41.912 20.9933 41.4826 20.284C41.072 19.556 40.5306 19.0053 39.8586 18.632C39.1866 18.24 38.4586 18.044 37.6746 18.044C36.8906 18.044 36.1533 18.24 35.4626 18.632C34.7906 19.0053 34.24 19.556 33.8106 20.284C33.4 20.9933 33.1946 21.852 33.1946 22.86C33.1946 23.868 33.4 24.736 33.8106 25.464C34.24 26.1733 34.7906 26.724 35.4626 27.116C36.1533 27.4893 36.8906 27.676 37.6746 27.676ZM47.9343 30V15.72H50.7903V17.68H50.9583C51.369 16.9893 51.9756 16.42 52.7783 15.972C53.5996 15.5053 54.4956 15.272 55.4663 15.272C57.221 15.272 58.537 15.7947 59.4143 16.84C60.2916 17.8853 60.7303 19.2667 60.7303 20.984V30H57.7343V21.376C57.7343 20.2187 57.445 19.3787 56.8663 18.856C56.2876 18.3147 55.5316 18.044 54.5983 18.044C53.8703 18.044 53.2356 18.2493 52.6943 18.66C52.153 19.052 51.7236 19.5747 51.4063 20.228C51.1076 20.8813 50.9583 21.5813 50.9583 22.328V30H47.9343ZM71.0005 30.448C69.6005 30.448 68.3498 30.1213 67.2485 29.468C66.1472 28.8147 65.2792 27.9187 64.6445 26.78C64.0285 25.6413 63.7205 24.344 63.7205 22.888C63.7205 21.5253 64.0192 20.2653 64.6165 19.108C65.2138 17.9507 66.0445 17.0267 67.1085 16.336C68.1912 15.6267 69.4325 15.272 70.8325 15.272C72.3072 15.272 73.5578 15.5893 74.5845 16.224C75.6298 16.8587 76.4232 17.7267 76.9645 18.828C77.5058 19.9293 77.7765 21.1707 77.7765 22.552C77.7765 22.7573 77.7672 22.944 77.7485 23.112C77.7485 23.28 77.7392 23.4107 77.7205 23.504H66.6885C66.8378 24.9227 67.3325 25.9867 68.1725 26.696C69.0312 27.4053 70.0018 27.76 71.0845 27.76C72.0552 27.76 72.8578 27.5453 73.4925 27.116C74.1272 26.668 74.6312 26.1173 75.0045 25.464L77.4965 26.668C76.8805 27.788 76.0405 28.7027 74.9765 29.412C73.9125 30.1027 72.5872 30.448 71.0005 30.448ZM70.8605 17.848C69.8525 17.848 68.9938 18.156 68.2845 18.772C67.5752 19.388 67.0992 20.2093 66.8565 21.236H74.7805C74.7432 20.7507 74.5845 20.2467 74.3045 19.724C74.0245 19.2013 73.5952 18.7627 73.0165 18.408C72.4565 18.0347 71.7378 17.848 70.8605 17.848ZM87.5427 30.448C86.1427 30.448 84.892 30.1213 83.7907 29.468C82.6894 28.8147 81.8214 27.9187 81.1867 26.78C80.5707 25.6413 80.2627 24.344 80.2627 22.888C80.2627 21.5253 80.5614 20.2653 81.1587 19.108C81.756 17.9507 82.5867 17.0267 83.6507 16.336C84.7334 15.6267 85.9747 15.272 87.3747 15.272C88.8494 15.272 90.1 15.5893 91.1267 16.224C92.172 16.8587 92.9654 17.7267 93.5067 18.828C94.048 19.9293 94.3187 21.1707 94.3187 22.552C94.3187 22.7573 94.3094 22.944 94.2907 23.112C94.2907 23.28 94.2814 23.4107 94.2627 23.504H83.2307C83.38 24.9227 83.8747 25.9867 84.7147 26.696C85.5734 27.4053 86.544 27.76 87.6267 27.76C88.5974 27.76 89.4 27.5453 90.0347 27.116C90.6694 26.668 91.1734 26.1173 91.5467 25.464L94.0387 26.668C93.4227 27.788 92.5827 28.7027 91.5187 29.412C90.4547 30.1027 89.1294 30.448 87.5427 30.448ZM87.4027 17.848C86.3947 17.848 85.536 18.156 84.8267 18.772C84.1174 19.388 83.6414 20.2093 83.3987 21.236H91.3227C91.2854 20.7507 91.1267 20.2467 90.8467 19.724C90.5667 19.2013 90.1374 18.7627 89.5587 18.408C88.9987 18.0347 88.28 17.848 87.4027 17.848ZM97.4242 30V15.72H100.28V17.82H100.448C100.765 17.092 101.307 16.4947 102.072 16.028C102.856 15.5427 103.696 15.3 104.592 15.3C104.984 15.3 105.311 15.328 105.572 15.384C105.852 15.44 106.104 15.5053 106.328 15.58V18.716C105.973 18.5667 105.609 18.4453 105.236 18.352C104.881 18.2587 104.508 18.212 104.116 18.212C103.407 18.212 102.772 18.408 102.212 18.8C101.671 19.1733 101.241 19.6867 100.924 20.34C100.607 20.9747 100.448 21.6747 100.448 22.44V30H97.4242ZM110.698 13.62C110.138 13.62 109.653 13.424 109.242 13.032C108.85 12.6213 108.654 12.136 108.654 11.576C108.654 11.016 108.85 10.54 109.242 10.148C109.653 9.756 110.138 9.56 110.698 9.56C111.258 9.56 111.734 9.756 112.126 10.148C112.537 10.54 112.742 11.016 112.742 11.576C112.742 12.136 112.537 12.6213 112.126 13.032C111.734 13.424 111.258 13.62 110.698 13.62ZM109.186 30V15.72H112.21V30H109.186ZM122.566 36.496C121.315 36.496 120.232 36.2907 119.318 35.88C118.422 35.488 117.694 34.9747 117.134 34.34C116.574 33.724 116.172 33.0893 115.93 32.436L118.73 31.26C119.028 32.0067 119.504 32.6133 120.158 33.08C120.83 33.5653 121.632 33.808 122.566 33.808C123.872 33.808 124.899 33.416 125.646 32.632C126.411 31.848 126.794 30.7373 126.794 29.3V27.928H126.626C126.178 28.6 125.552 29.1413 124.75 29.552C123.966 29.944 123.07 30.14 122.062 30.14C120.848 30.14 119.738 29.832 118.73 29.216C117.722 28.6 116.91 27.7413 116.294 26.64C115.678 25.52 115.37 24.2133 115.37 22.72C115.37 21.208 115.678 19.9013 116.294 18.8C116.91 17.68 117.722 16.812 118.73 16.196C119.738 15.58 120.848 15.272 122.062 15.272C123.07 15.272 123.966 15.4773 124.75 15.888C125.552 16.2987 126.178 16.84 126.626 17.512H126.794V15.72H129.678V29.244C129.678 30.7933 129.37 32.1093 128.754 33.192C128.156 34.2747 127.326 35.096 126.262 35.656C125.198 36.216 123.966 36.496 122.566 36.496ZM122.594 27.396C123.34 27.396 124.031 27.2187 124.666 26.864C125.3 26.4907 125.814 25.9587 126.206 25.268C126.598 24.5587 126.794 23.7093 126.794 22.72C126.794 21.6933 126.598 20.8347 126.206 20.144C125.814 19.4347 125.3 18.9027 124.666 18.548C124.031 18.1933 123.34 18.016 122.594 18.016C121.847 18.016 121.147 18.2027 120.494 18.576C119.859 18.9307 119.346 19.4533 118.954 20.144C118.562 20.8347 118.366 21.6933 118.366 22.72C118.366 23.728 118.562 24.5867 118.954 25.296C119.346 25.9867 119.859 26.5093 120.494 26.864C121.147 27.2187 121.847 27.396 122.594 27.396ZM139.903 30.448C138.503 30.448 137.252 30.1213 136.151 29.468C135.05 28.8147 134.182 27.9187 133.547 26.78C132.931 25.6413 132.623 24.344 132.623 22.888C132.623 21.5253 132.922 20.2653 133.519 19.108C134.116 17.9507 134.947 17.0267 136.011 16.336C137.094 15.6267 138.335 15.272 139.735 15.272C141.21 15.272 142.46 15.5893 143.487 16.224C144.532 16.8587 145.326 17.7267 145.867 18.828C146.408 19.9293 146.679 21.1707 146.679 22.552C146.679 22.7573 146.67 22.944 146.651 23.112C146.651 23.28 146.642 23.4107 146.623 23.504H135.591C135.74 24.9227 136.235 25.9867 137.075 26.696C137.934 27.4053 138.904 27.76 139.987 27.76C140.958 27.76 141.76 27.5453 142.395 27.116C143.03 26.668 143.534 26.1173 143.907 25.464L146.399 26.668C145.783 27.788 144.943 28.7027 143.879 29.412C142.815 30.1027 141.49 30.448 139.903 30.448ZM139.763 17.848C138.755 17.848 137.896 18.156 137.187 18.772C136.478 19.388 136.002 20.2093 135.759 21.236H143.683C143.646 20.7507 143.487 20.2467 143.207 19.724C142.927 19.2013 142.498 18.7627 141.919 18.408C141.359 18.0347 140.64 17.848 139.763 17.848ZM156.591 22.608V20.032H170.255V22.608H156.591Z" fill="#3C4043"/>
<g id="GPay Logo (Light)">
<g id="GPay">
<g id="Pay">
<path id="Fill 1" fill-rule="evenodd" clip-rule="evenodd" d="M222.529 9.44664V17.6128H227.565C228.765 17.6128 229.757 17.2096 230.541 16.4032C231.347 15.5988 231.75 14.6394 231.75 13.5288C231.75 12.4406 231.347 11.4924 230.541 10.686C229.757 9.85915 228.765 9.44478 227.565 9.44478H222.529V9.44664ZM222.529 20.4872V29.9599H219.521V6.57217H227.499C229.527 6.57217 231.248 7.24786 232.666 8.59737C234.105 9.94688 234.824 11.5913 234.824 13.5288C234.824 15.511 234.105 17.1667 232.666 18.4938C231.27 19.8227 229.547 20.4854 227.499 20.4854H222.529V20.4872Z" fill="#5F6368"/>
<path id="Fill 3" fill-rule="evenodd" clip-rule="evenodd" d="M237.864 25.0602C237.864 25.8442 238.197 26.4975 238.862 27.0201C239.527 27.5427 240.306 27.804 241.2 27.804C242.465 27.804 243.591 27.3354 244.584 26.4004C245.576 25.4634 246.071 24.364 246.071 23.1022C245.133 22.3612 243.825 21.9916 242.147 21.9916C240.925 21.9916 239.907 22.2865 239.09 22.8745C238.273 23.4623 237.864 24.1886 237.864 25.0602ZM241.756 13.4317C243.98 13.4317 245.735 14.0252 247.022 15.2124C248.308 16.3995 248.95 18.0271 248.95 20.0952V29.9599H246.073V27.7387H245.942C244.699 29.5677 243.042 30.4825 240.972 30.4825C239.206 30.4825 237.728 29.9599 236.541 28.9146C235.353 27.8694 234.759 26.5628 234.759 24.9949C234.759 23.3393 235.385 22.0232 236.638 21.0434C237.892 20.0635 239.565 19.5726 241.658 19.5726C243.444 19.5726 244.916 19.8992 246.071 20.5525V19.8656C246.071 18.8204 245.656 17.9338 244.829 17.204C243.999 16.4741 243.031 16.1102 241.919 16.1102C240.239 16.1102 238.911 16.8176 237.93 18.2343L235.28 16.5675C236.741 14.4769 238.899 13.4317 241.756 13.4317Z" fill="#5F6368"/>
<path id="Fill 5" fill-rule="evenodd" clip-rule="evenodd" d="M265.463 13.9543L255.424 37.0154H252.318L256.046 28.9464L249.44 13.9543H252.71L257.484 25.4522H257.55L262.193 13.9543H265.463Z" fill="#5F6368"/>
</g>
<g id="G">
<path id="Fill 8" fill-rule="evenodd" clip-rule="evenodd" d="M210.373 18.4452C210.373 17.4989 210.293 16.5861 210.141 15.7126H197.454V20.8885H204.72C204.408 22.5757 203.465 24.0112 202.033 24.9725V28.3341H206.37C208.91 25.9935 210.373 22.5348 210.373 18.4452Z" fill="#4285F4"/>
<path id="Fill 10" fill-rule="evenodd" clip-rule="evenodd" d="M197.454 31.5782C201.084 31.5782 204.141 30.3873 206.37 28.3341L202.033 24.9725C200.826 25.7844 199.272 26.2585 197.454 26.2585C193.944 26.2585 190.966 23.8955 189.901 20.7112H185.433V24.1736C187.647 28.5637 192.197 31.5782 197.454 31.5782Z" fill="#34A853"/>
<path id="Fill 12" fill-rule="evenodd" clip-rule="evenodd" d="M189.901 20.7111C189.628 19.8992 189.479 19.0331 189.479 18.139C189.479 17.245 189.628 16.3789 189.901 15.567V12.1045H185.433C184.518 13.9188 184 15.9683 184 18.139C184 20.3098 184.518 22.3595 185.433 24.1736L189.901 20.7111Z" fill="#FABB05"/>
<path id="Fill 14" fill-rule="evenodd" clip-rule="evenodd" d="M197.454 10.0196C199.436 10.0196 201.213 10.7009 202.615 12.0355V12.0374L206.455 8.20162C204.123 6.03271 201.082 4.7 197.454 4.7C192.197 4.7 187.647 7.71446 185.433 12.1046L189.901 15.567C190.966 12.3827 193.944 10.0196 197.454 10.0196Z" fill="#E94235"/>
</g>
</g>
</g>
</g>
</svg>
