<svg width="107" height="21" viewBox="0 0 107 21" fill="none" xmlns="http://www.w3.org/2000/svg">
<g id="et_checkout_with_Pay_NBG">
<path id="Left Text" d="M3.63512 15.0006V5.20861H0.419124V3.54461H8.57912V5.20861H5.37912V15.0006H3.63512ZM11.5024 15.2566C10.9157 15.2566 10.393 15.1393 9.93437 14.9046C9.48637 14.6699 9.12904 14.3499 8.86237 13.9446C8.60637 13.5286 8.47837 13.0539 8.47837 12.5206C8.47837 11.9339 8.62771 11.4379 8.92637 11.0326C9.23571 10.6273 9.64637 10.3179 10.1584 10.1046C10.6704 9.89128 11.2357 9.78461 11.8544 9.78461C12.1957 9.78461 12.5104 9.81128 12.7984 9.86461C13.097 9.90728 13.353 9.96061 13.5664 10.0246C13.7904 10.0886 13.9664 10.1579 14.0944 10.2326V9.80061C14.0944 9.26728 13.9024 8.84061 13.5184 8.52061C13.1344 8.20061 12.6384 8.04061 12.0304 8.04061C11.6144 8.04061 11.2197 8.13661 10.8464 8.32861C10.473 8.50994 10.1744 8.76061 9.95037 9.08061L8.76637 8.16861C9.00104 7.83794 9.28371 7.55528 9.61437 7.32061C9.95571 7.08594 10.3344 6.90461 10.7504 6.77661C11.177 6.64861 11.6197 6.58461 12.0784 6.58461C13.2624 6.58461 14.1744 6.87794 14.8144 7.46461C15.4544 8.04061 15.7744 8.85128 15.7744 9.89661V15.0006H14.0944V13.9926H13.9984C13.8597 14.2059 13.6677 14.4086 13.4224 14.6006C13.1877 14.7926 12.905 14.9473 12.5744 15.0646C12.2544 15.1926 11.897 15.2566 11.5024 15.2566ZM11.8064 13.8486C12.2544 13.8486 12.649 13.7419 12.9904 13.5286C13.3424 13.3153 13.6144 13.0379 13.8064 12.6966C13.9984 12.3446 14.0944 11.9659 14.0944 11.5606C13.8597 11.4219 13.5717 11.3099 13.2304 11.2246C12.8997 11.1286 12.5477 11.0806 12.1744 11.0806C11.4704 11.0806 10.969 11.2193 10.6704 11.4966C10.3717 11.7739 10.2224 12.1206 10.2224 12.5366C10.2224 12.9206 10.3664 13.2353 10.6544 13.4806C10.9424 13.7259 11.3264 13.8486 11.8064 13.8486ZM20.7246 15.2566C20.074 15.2566 19.5086 15.1606 19.0286 14.9686C18.5486 14.7659 18.154 14.4993 17.8446 14.1686C17.5353 13.8273 17.306 13.4593 17.1566 13.0646L18.7086 12.3926C18.9006 12.8299 19.1726 13.1659 19.5246 13.4006C19.8873 13.6246 20.3033 13.7366 20.7726 13.7366C21.1993 13.7366 21.5673 13.6619 21.8766 13.5126C22.186 13.3526 22.3406 13.0966 22.3406 12.7446C22.3406 12.5206 22.266 12.3393 22.1166 12.2006C21.978 12.0513 21.786 11.9286 21.5406 11.8326C21.306 11.7366 21.034 11.6513 20.7246 11.5766L19.7486 11.3526C19.3646 11.2566 18.9966 11.1073 18.6446 10.9046C18.3033 10.6913 18.026 10.4246 17.8126 10.1046C17.5993 9.78461 17.4926 9.40594 17.4926 8.96861C17.4926 8.47794 17.6313 8.05661 17.9086 7.70461C18.1966 7.34194 18.5806 7.06461 19.0606 6.87261C19.5406 6.68061 20.058 6.58461 20.6126 6.58461C21.1246 6.58461 21.5886 6.65394 22.0046 6.79261C22.4313 6.92061 22.7993 7.11794 23.1086 7.38461C23.4286 7.64061 23.6793 7.96061 23.8606 8.34461L22.3726 9.01661C22.1913 8.65394 21.946 8.40328 21.6366 8.26461C21.3273 8.11528 20.9913 8.04061 20.6286 8.04061C20.2233 8.04061 19.882 8.12594 19.6046 8.29661C19.338 8.45661 19.2046 8.66994 19.2046 8.93661C19.2046 9.21394 19.322 9.43261 19.5566 9.59261C19.802 9.75261 20.1006 9.88061 20.4526 9.97661L21.6366 10.2646C22.4473 10.4673 23.0553 10.7766 23.4606 11.1926C23.866 11.5979 24.0686 12.0939 24.0686 12.6806C24.0686 13.2033 23.9193 13.6619 23.6206 14.0566C23.322 14.4406 22.9166 14.7393 22.4046 14.9526C21.9033 15.1553 21.3433 15.2566 20.7246 15.2566ZM28.6868 15.2566C27.6841 15.2566 26.9268 14.9579 26.4148 14.3606C25.9134 13.7526 25.6628 12.9313 25.6628 11.8966V6.84061H27.3908V11.6566C27.3908 12.3393 27.5508 12.8459 27.8708 13.1766C28.2014 13.5073 28.6121 13.6726 29.1028 13.6726C29.5508 13.6726 29.9348 13.5606 30.2548 13.3366C30.5748 13.1019 30.8201 12.7979 30.9908 12.4246C31.1721 12.0513 31.2628 11.6513 31.2628 11.2246V6.84061H32.9748V15.0006H31.3588V13.8966H31.2628C31.1134 14.1526 30.9054 14.3819 30.6388 14.5846C30.3721 14.7873 30.0734 14.9473 29.7428 15.0646C29.4121 15.1926 29.0601 15.2566 28.6868 15.2566Z" fill="white"/>
<g id="GPay (Dark)">
<g id="GPay">
<g id="Pay">
<path id="Fill 1" fill-rule="evenodd" clip-rule="evenodd" d="M62.3563 3.42339V8.16175H65.2784C65.9745 8.16175 66.5501 7.92781 67.0055 7.45993C67.4728 6.99313 67.707 6.43644 67.707 5.79203C67.707 5.16061 67.4728 4.61041 67.0055 4.14254C66.5501 3.66274 65.9745 3.4223 65.2784 3.4223H62.3563V3.42339ZM62.3563 9.82966V15.3262H60.6107V1.75549H65.2404C66.4169 1.75549 67.4154 2.14756 68.2383 2.93061C69.0732 3.71365 69.4906 4.66782 69.4906 5.79203C69.4906 6.94224 69.0731 7.90291 68.2383 8.67296C67.4283 9.44409 66.4287 9.82858 65.2404 9.82858H62.3563V9.82966Z" fill="white"/>
<path id="Fill 3" fill-rule="evenodd" clip-rule="evenodd" d="M71.2546 12.4831C71.2546 12.9379 71.4476 13.317 71.8337 13.6203C72.2195 13.9235 72.6717 14.0752 73.19 14.0752C73.9239 14.0752 74.5777 13.8032 75.1535 13.2607C75.7293 12.717 76.0165 12.0791 76.0165 11.3469C75.4722 10.917 74.7133 10.7025 73.7396 10.7025C73.0306 10.7025 72.4397 10.8736 71.9659 11.2148C71.492 11.5559 71.2546 11.9773 71.2546 12.4831M73.513 5.73566C74.8033 5.73566 75.8214 6.08007 76.5685 6.76889C77.3145 7.45771 77.6873 8.40213 77.6873 9.60216V15.3261H76.0177V14.0373H75.9417C75.2207 15.0985 74.259 15.6294 73.0578 15.6294C72.0332 15.6294 71.1755 15.3261 70.4869 14.7196C69.7975 14.1131 69.4527 13.3549 69.4527 12.4452C69.4527 11.4845 69.8158 10.7208 70.5433 10.1523C71.2708 9.58375 72.2413 9.2989 73.4557 9.2989C74.4921 9.2989 75.3465 9.48844 76.0165 9.86751V9.46894C76.0165 8.86243 75.7758 8.34798 75.2956 7.92451C74.8141 7.50103 74.2525 7.28984 73.6074 7.28984C72.6326 7.28984 71.8618 7.70032 71.2926 8.52235L69.7551 7.55519C70.6029 6.34217 71.8552 5.73566 73.513 5.73566" fill="white"/>
<path id="Fill 5" fill-rule="evenodd" clip-rule="evenodd" d="M87.2687 6.03894L81.4432 19.4201H79.6411L81.8043 14.738L77.9714 6.03894H79.8688L82.639 12.7106H82.677L85.3713 6.03894H87.2687Z" fill="white"/>
</g>
<g id="G">
<path id="Fill 8" fill-rule="evenodd" clip-rule="evenodd" d="M55.3029 8.64473C55.3029 8.09563 55.2562 7.56601 55.1684 7.05914H47.8065V10.0625H52.0231C51.842 11.0414 51.2944 11.8744 50.4639 12.4322V14.3828H52.9804C54.4539 13.0246 55.3029 11.0177 55.3029 8.64473" fill="#4285F4"/>
<path id="Fill 10" fill-rule="evenodd" clip-rule="evenodd" d="M47.8065 16.2651C49.9131 16.2651 51.6869 15.5741 52.9804 14.3828L50.4639 12.4322C49.7635 12.9033 48.8614 13.1784 47.8065 13.1784C45.7703 13.1784 44.042 11.8073 43.424 9.95959H40.8316V11.9687C42.1164 14.516 44.7565 16.2651 47.8065 16.2651" fill="#34A853"/>
<path id="Fill 12" fill-rule="evenodd" clip-rule="evenodd" d="M43.424 9.9596C43.2657 9.48847 43.179 8.98593 43.179 8.46715C43.179 7.94837 43.2657 7.44583 43.424 6.9747V4.96564H40.8316C40.3003 6.01837 40 7.20756 40 8.46715C40 9.72674 40.3003 10.916 40.8316 11.9687L43.424 9.9596Z" fill="#FABB05"/>
<path id="Fill 14" fill-rule="evenodd" clip-rule="evenodd" d="M47.8065 3.75583C48.9568 3.75583 49.9879 4.15115 50.8011 4.92553V4.92661L53.0292 2.70094C51.6761 1.44243 49.912 0.669128 47.8065 0.669128C44.7565 0.669128 42.1164 2.41826 40.8316 4.9656L43.424 6.97467C44.042 5.12698 45.7703 3.75583 47.8065 3.75583" fill="#E94235"/>
</g>
</g>
</g>
<path id="Right Text" d="M92.338 18.7126C91.6233 18.7126 91.0047 18.5953 90.482 18.3606C89.97 18.1366 89.554 17.8433 89.234 17.4806C88.914 17.1286 88.6847 16.7659 88.546 16.3926L90.146 15.7206C90.3167 16.1473 90.5887 16.4939 90.962 16.7606C91.346 17.0379 91.8047 17.1766 92.338 17.1766C93.0953 17.1766 93.6873 16.9526 94.114 16.5046C94.5407 16.0566 94.754 15.4219 94.754 14.6006V13.8166H94.658C94.402 14.1899 94.05 14.4939 93.602 14.7286C93.154 14.9633 92.6367 15.0806 92.05 15.0806C91.3567 15.0806 90.7167 14.9046 90.13 14.5526C89.554 14.2006 89.09 13.7099 88.738 13.0806C88.3967 12.4406 88.226 11.6939 88.226 10.8406C88.226 9.97661 88.3967 9.22994 88.738 8.60061C89.09 7.96061 89.554 7.46461 90.13 7.11261C90.7167 6.76061 91.3567 6.58461 92.05 6.58461C92.6367 6.58461 93.154 6.70194 93.602 6.93661C94.05 7.16061 94.402 7.46994 94.658 7.86461H94.754V6.84061H96.402V14.5686C96.402 15.4539 96.226 16.2059 95.874 16.8246C95.5327 17.4433 95.058 17.9126 94.45 18.2326C93.842 18.5526 93.138 18.7126 92.338 18.7126ZM92.354 13.5126C92.7807 13.5126 93.1753 13.4113 93.538 13.2086C93.9113 12.9953 94.2047 12.6913 94.418 12.2966C94.642 11.8913 94.754 11.4059 94.754 10.8406C94.754 10.2433 94.642 9.74728 94.418 9.35261C94.2047 8.95794 93.9113 8.65928 93.538 8.45661C93.1753 8.25394 92.7807 8.15261 92.354 8.15261C91.9273 8.15261 91.5273 8.25394 91.154 8.45661C90.7913 8.65928 90.498 8.96328 90.274 9.36861C90.05 9.76328 89.938 10.2539 89.938 10.8406C89.938 11.4166 90.05 11.9073 90.274 12.3126C90.498 12.7073 90.7913 13.0059 91.154 13.2086C91.5273 13.4113 91.9273 13.5126 92.354 13.5126ZM101.055 15.2566C100.469 15.2566 99.9462 15.1393 99.4875 14.9046C99.0395 14.6699 98.6822 14.3499 98.4155 13.9446C98.1595 13.5286 98.0315 13.0539 98.0315 12.5206C98.0315 11.9339 98.1808 11.4379 98.4795 11.0326C98.7888 10.6273 99.1995 10.3179 99.7115 10.1046C100.223 9.89128 100.789 9.78461 101.407 9.78461C101.749 9.78461 102.063 9.81128 102.351 9.86461C102.65 9.90728 102.906 9.96061 103.119 10.0246C103.343 10.0886 103.519 10.1579 103.647 10.2326V9.80061C103.647 9.26728 103.455 8.84061 103.071 8.52061C102.687 8.20061 102.191 8.04061 101.583 8.04061C101.167 8.04061 100.773 8.13661 100.399 8.32861C100.026 8.50994 99.7275 8.76061 99.5035 9.08061L98.3195 8.16861C98.5542 7.83794 98.8368 7.55528 99.1675 7.32061C99.5088 7.08594 99.8875 6.90461 100.303 6.77661C100.73 6.64861 101.173 6.58461 101.631 6.58461C102.815 6.58461 103.727 6.87794 104.367 7.46461C105.007 8.04061 105.327 8.85128 105.327 9.89661V15.0006H103.647V13.9926H103.551C103.413 14.2059 103.221 14.4086 102.975 14.6006C102.741 14.7926 102.458 14.9473 102.127 15.0646C101.807 15.1926 101.45 15.2566 101.055 15.2566ZM101.359 13.8486C101.807 13.8486 102.202 13.7419 102.543 13.5286C102.895 13.3153 103.167 13.0379 103.359 12.6966C103.551 12.3446 103.647 11.9659 103.647 11.5606C103.413 11.4219 103.125 11.3099 102.783 11.2246C102.453 11.1286 102.101 11.0806 101.727 11.0806C101.023 11.0806 100.522 11.2193 100.223 11.4966C99.9248 11.7739 99.7755 12.1206 99.7755 12.5366C99.7755 12.9206 99.9195 13.2353 100.207 13.4806C100.495 13.7259 100.879 13.8486 101.359 13.8486Z" fill="white"/>
</g>
</svg>
