<svg width="242" height="38" viewBox="0 0 242 38" fill="none" xmlns="http://www.w3.org/2000/svg">
<g id="et_checkout_with_Light">
<path id="Text" d="M4.25941 30V9.952H7.33941V19.808L15.6834 9.952H19.4914V10.12L12.1554 18.576L20.1354 29.832V30H16.3834L10.0834 20.984L7.33941 24.176V30H4.25941ZM26.6917 30.448C25.665 30.448 24.7503 30.252 23.9477 29.86C23.145 29.4493 22.5197 28.88 22.0717 28.152C21.6237 27.424 21.3997 26.5933 21.3997 25.66C21.3997 24.652 21.661 23.7933 22.1837 23.084C22.725 22.356 23.4437 21.8053 24.3397 21.432C25.2357 21.0587 26.225 20.872 27.3077 20.872C28.2037 20.872 28.9877 20.956 29.6597 21.124C30.3503 21.292 30.873 21.4693 31.2277 21.656V20.9C31.2277 19.9667 30.8917 19.22 30.2197 18.66C29.5477 18.1 28.6797 17.82 27.6157 17.82C26.8877 17.82 26.197 17.988 25.5437 18.324C24.8903 18.6413 24.3677 19.08 23.9757 19.64L21.9037 18.044C22.5197 17.1853 23.3317 16.5133 24.3397 16.028C25.3663 15.524 26.4863 15.272 27.6997 15.272C29.7717 15.272 31.3677 15.7853 32.4877 16.812C33.6077 17.82 34.1677 19.2387 34.1677 21.068V30H31.2277V28.236H31.0597C30.6863 28.8147 30.1263 29.328 29.3797 29.776C28.633 30.224 27.737 30.448 26.6917 30.448ZM27.2237 27.984C28.0077 27.984 28.6983 27.7973 29.2957 27.424C29.893 27.0507 30.3597 26.5653 30.6957 25.968C31.0503 25.352 31.2277 24.6893 31.2277 23.98C30.7983 23.7373 30.2943 23.5413 29.7157 23.392C29.137 23.224 28.521 23.14 27.8677 23.14C26.6357 23.14 25.7583 23.392 25.2357 23.896C24.713 24.3813 24.4517 24.9787 24.4517 25.688C24.4517 26.36 24.7037 26.9107 25.2077 27.34C25.7117 27.7693 26.3837 27.984 27.2237 27.984ZM42.8681 30.448C41.1508 30.448 39.7788 30.0747 38.7521 29.328C37.7254 28.5627 37.0161 27.6573 36.6241 26.612L39.3401 25.436C39.6761 26.2013 40.1614 26.7893 40.7961 27.2C41.4308 27.592 42.1494 27.788 42.9521 27.788C43.6988 27.788 44.3428 27.6573 44.8841 27.396C45.4254 27.116 45.6961 26.668 45.6961 26.052C45.6961 25.4547 45.4254 25.016 44.8841 24.736C44.3428 24.456 43.6708 24.2133 42.8681 24.008L41.1601 23.616C40.4694 23.448 39.8254 23.1867 39.2281 22.832C38.6308 22.4773 38.1454 22.02 37.7721 21.46C37.3988 20.8813 37.2121 20.2093 37.2121 19.444C37.2121 18.604 37.4641 17.876 37.9681 17.26C38.4721 16.6253 39.1348 16.14 39.9561 15.804C40.7961 15.4493 41.7014 15.272 42.6721 15.272C43.9974 15.272 45.1548 15.5333 46.1441 16.056C47.1521 16.56 47.8894 17.3253 48.3561 18.352L45.7521 19.528C45.4161 18.8933 44.9774 18.4547 44.4361 18.212C43.9134 17.9507 43.3348 17.82 42.7001 17.82C41.9908 17.82 41.3934 17.9693 40.9081 18.268C40.4414 18.5667 40.2081 18.94 40.2081 19.388C40.2081 19.8733 40.4134 20.256 40.8241 20.536C41.2534 20.816 41.7761 21.04 42.3921 21.208L44.4641 21.712C45.8828 22.0667 46.9468 22.608 47.6561 23.336C48.3654 24.0453 48.7201 24.9133 48.7201 25.94C48.7201 26.8547 48.4588 27.6573 47.9361 28.348C47.4134 29.02 46.7041 29.5427 45.8081 29.916C44.9308 30.2707 43.9508 30.448 42.8681 30.448ZM56.8673 30.448C55.15 30.448 53.778 30.0747 52.7513 29.328C51.7247 28.5627 51.0153 27.6573 50.6233 26.612L53.3393 25.436C53.6753 26.2013 54.1607 26.7893 54.7953 27.2C55.43 27.592 56.1487 27.788 56.9513 27.788C57.698 27.788 58.342 27.6573 58.8833 27.396C59.4247 27.116 59.6953 26.668 59.6953 26.052C59.6953 25.4547 59.4247 25.016 58.8833 24.736C58.342 24.456 57.67 24.2133 56.8673 24.008L55.1593 23.616C54.4687 23.448 53.8247 23.1867 53.2273 22.832C52.63 22.4773 52.1447 22.02 51.7713 21.46C51.398 20.8813 51.2113 20.2093 51.2113 19.444C51.2113 18.604 51.4633 17.876 51.9673 17.26C52.4713 16.6253 53.134 16.14 53.9553 15.804C54.7953 15.4493 55.7007 15.272 56.6713 15.272C57.9967 15.272 59.154 15.5333 60.1433 16.056C61.1513 16.56 61.8887 17.3253 62.3553 18.352L59.7513 19.528C59.4153 18.8933 58.9767 18.4547 58.4353 18.212C57.9127 17.9507 57.334 17.82 56.6993 17.82C55.99 17.82 55.3927 17.9693 54.9073 18.268C54.4407 18.5667 54.2073 18.94 54.2073 19.388C54.2073 19.8733 54.4127 20.256 54.8233 20.536C55.2527 20.816 55.7753 21.04 56.3913 21.208L58.4633 21.712C59.882 22.0667 60.946 22.608 61.6553 23.336C62.3647 24.0453 62.7193 24.9133 62.7193 25.94C62.7193 26.8547 62.458 27.6573 61.9353 28.348C61.4127 29.02 60.7033 29.5427 59.8073 29.916C58.93 30.2707 57.95 30.448 56.8673 30.448ZM70.2753 30.448C69.2486 30.448 68.3339 30.252 67.5312 29.86C66.7286 29.4493 66.1033 28.88 65.6553 28.152C65.2073 27.424 64.9833 26.5933 64.9833 25.66C64.9833 24.652 65.2446 23.7933 65.7673 23.084C66.3086 22.356 67.0273 21.8053 67.9233 21.432C68.8193 21.0587 69.8086 20.872 70.8913 20.872C71.7873 20.872 72.5713 20.956 73.2433 21.124C73.9339 21.292 74.4566 21.4693 74.8113 21.656V20.9C74.8113 19.9667 74.4753 19.22 73.8033 18.66C73.1313 18.1 72.2633 17.82 71.1993 17.82C70.4713 17.82 69.7806 17.988 69.1273 18.324C68.4739 18.6413 67.9513 19.08 67.5593 19.64L65.4873 18.044C66.1033 17.1853 66.9153 16.5133 67.9233 16.028C68.9499 15.524 70.0699 15.272 71.2833 15.272C73.3553 15.272 74.9513 15.7853 76.0713 16.812C77.1913 17.82 77.7513 19.2387 77.7513 21.068V30H74.8113V28.236H74.6433C74.2699 28.8147 73.7099 29.328 72.9633 29.776C72.2166 30.224 71.3206 30.448 70.2753 30.448ZM70.8073 27.984C71.5913 27.984 72.2819 27.7973 72.8793 27.424C73.4766 27.0507 73.9433 26.5653 74.2793 25.968C74.6339 25.352 74.8113 24.6893 74.8113 23.98C74.3819 23.7373 73.8779 23.5413 73.2993 23.392C72.7206 23.224 72.1046 23.14 71.4513 23.14C70.2193 23.14 69.3419 23.392 68.8193 23.896C68.2966 24.3813 68.0353 24.9787 68.0353 25.688C68.0353 26.36 68.2873 26.9107 68.7913 27.34C69.2953 27.7693 69.9673 27.984 70.8073 27.984ZM86.4517 30.448C84.7344 30.448 83.3624 30.0747 82.3357 29.328C81.309 28.5627 80.5997 27.6573 80.2077 26.612L82.9237 25.436C83.2597 26.2013 83.745 26.7893 84.3797 27.2C85.0144 27.592 85.733 27.788 86.5357 27.788C87.2824 27.788 87.9264 27.6573 88.4677 27.396C89.009 27.116 89.2797 26.668 89.2797 26.052C89.2797 25.4547 89.009 25.016 88.4677 24.736C87.9264 24.456 87.2544 24.2133 86.4517 24.008L84.7437 23.616C84.053 23.448 83.409 23.1867 82.8117 22.832C82.2144 22.4773 81.729 22.02 81.3557 21.46C80.9824 20.8813 80.7957 20.2093 80.7957 19.444C80.7957 18.604 81.0477 17.876 81.5517 17.26C82.0557 16.6253 82.7184 16.14 83.5397 15.804C84.3797 15.4493 85.285 15.272 86.2557 15.272C87.581 15.272 88.7384 15.5333 89.7277 16.056C90.7357 16.56 91.473 17.3253 91.9397 18.352L89.3357 19.528C88.9997 18.8933 88.561 18.4547 88.0197 18.212C87.497 17.9507 86.9184 17.82 86.2837 17.82C85.5744 17.82 84.977 17.9693 84.4917 18.268C84.025 18.5667 83.7917 18.94 83.7917 19.388C83.7917 19.8733 83.997 20.256 84.4077 20.536C84.837 20.816 85.3597 21.04 85.9757 21.208L88.0477 21.712C89.4664 22.0667 90.5304 22.608 91.2397 23.336C91.949 24.0453 92.3037 24.9133 92.3037 25.94C92.3037 26.8547 92.0424 27.6573 91.5197 28.348C90.997 29.02 90.2877 29.5427 89.3917 29.916C88.5144 30.2707 87.5344 30.448 86.4517 30.448ZM100.451 30.448C98.7336 30.448 97.3616 30.0747 96.3349 29.328C95.3082 28.5627 94.5989 27.6573 94.2069 26.612L96.9229 25.436C97.2589 26.2013 97.7442 26.7893 98.3789 27.2C99.0136 27.592 99.7322 27.788 100.535 27.788C101.282 27.788 101.926 27.6573 102.467 27.396C103.008 27.116 103.279 26.668 103.279 26.052C103.279 25.4547 103.008 25.016 102.467 24.736C101.926 24.456 101.254 24.2133 100.451 24.008L98.7429 23.616C98.0522 23.448 97.4082 23.1867 96.8109 22.832C96.2136 22.4773 95.7282 22.02 95.3549 21.46C94.9816 20.8813 94.7949 20.2093 94.7949 19.444C94.7949 18.604 95.0469 17.876 95.5509 17.26C96.0549 16.6253 96.7176 16.14 97.5389 15.804C98.3789 15.4493 99.2842 15.272 100.255 15.272C101.58 15.272 102.738 15.5333 103.727 16.056C104.735 16.56 105.472 17.3253 105.939 18.352L103.335 19.528C102.999 18.8933 102.56 18.4547 102.019 18.212C101.496 17.9507 100.918 17.82 100.283 17.82C99.5736 17.82 98.9762 17.9693 98.4909 18.268C98.0242 18.5667 97.7909 18.94 97.7909 19.388C97.7909 19.8733 97.9962 20.256 98.4069 20.536C98.8362 20.816 99.3589 21.04 99.9749 21.208L102.047 21.712C103.466 22.0667 104.53 22.608 105.239 23.336C105.948 24.0453 106.303 24.9133 106.303 25.94C106.303 26.8547 106.042 27.6573 105.519 28.348C104.996 29.02 104.287 29.5427 103.391 29.916C102.514 30.2707 101.534 30.448 100.451 30.448ZM115.903 30.448C114.503 30.448 113.252 30.1213 112.151 29.468C111.05 28.8147 110.182 27.9187 109.547 26.78C108.931 25.6413 108.623 24.344 108.623 22.888C108.623 21.5253 108.922 20.2653 109.519 19.108C110.116 17.9507 110.947 17.0267 112.011 16.336C113.094 15.6267 114.335 15.272 115.735 15.272C117.21 15.272 118.46 15.5893 119.487 16.224C120.532 16.8587 121.326 17.7267 121.867 18.828C122.408 19.9293 122.679 21.1707 122.679 22.552C122.679 22.7573 122.67 22.944 122.651 23.112C122.651 23.28 122.642 23.4107 122.623 23.504H111.591C111.74 24.9227 112.235 25.9867 113.075 26.696C113.934 27.4053 114.904 27.76 115.987 27.76C116.958 27.76 117.76 27.5453 118.395 27.116C119.03 26.668 119.534 26.1173 119.907 25.464L122.399 26.668C121.783 27.788 120.943 28.7027 119.879 29.412C118.815 30.1027 117.49 30.448 115.903 30.448ZM115.763 17.848C114.755 17.848 113.896 18.156 113.187 18.772C112.478 19.388 112.002 20.2093 111.759 21.236H119.683C119.646 20.7507 119.487 20.2467 119.207 19.724C118.927 19.2013 118.498 18.7627 117.919 18.408C117.359 18.0347 116.64 17.848 115.763 17.848ZM132.591 22.608V20.032H146.255V22.608H132.591Z" fill="#3C4043"/>
<g id="GPay Logo (Light)">
<g id="GPay">
<g id="Pay">
<path id="Fill 1" fill-rule="evenodd" clip-rule="evenodd" d="M198.529 9.44664V17.6128H203.565C204.765 17.6128 205.757 17.2096 206.541 16.4032C207.347 15.5988 207.75 14.6394 207.75 13.5288C207.75 12.4406 207.347 11.4924 206.541 10.686C205.757 9.85915 204.765 9.44478 203.565 9.44478H198.529V9.44664ZM198.529 20.4872V29.9599H195.521V6.57217H203.499C205.527 6.57217 207.248 7.24786 208.666 8.59737C210.105 9.94688 210.824 11.5913 210.824 13.5288C210.824 15.511 210.105 17.1667 208.666 18.4938C207.27 19.8227 205.547 20.4854 203.499 20.4854H198.529V20.4872Z" fill="#5F6368"/>
<path id="Fill 3" fill-rule="evenodd" clip-rule="evenodd" d="M213.864 25.0602C213.864 25.8442 214.197 26.4975 214.862 27.0201C215.527 27.5427 216.306 27.804 217.2 27.804C218.465 27.804 219.591 27.3354 220.584 26.4004C221.576 25.4634 222.071 24.364 222.071 23.1022C221.133 22.3612 219.825 21.9916 218.147 21.9916C216.925 21.9916 215.907 22.2865 215.09 22.8745C214.273 23.4623 213.864 24.1886 213.864 25.0602ZM217.756 13.4317C219.98 13.4317 221.735 14.0252 223.022 15.2124C224.308 16.3995 224.95 18.0271 224.95 20.0952V29.9599H222.073V27.7387H221.942C220.699 29.5677 219.042 30.4825 216.972 30.4825C215.206 30.4825 213.728 29.9599 212.541 28.9146C211.353 27.8694 210.759 26.5628 210.759 24.9949C210.759 23.3393 211.385 22.0232 212.638 21.0434C213.892 20.0635 215.565 19.5726 217.658 19.5726C219.444 19.5726 220.916 19.8992 222.071 20.5525V19.8656C222.071 18.8204 221.656 17.9338 220.829 17.204C219.999 16.4741 219.031 16.1102 217.919 16.1102C216.239 16.1102 214.911 16.8176 213.93 18.2343L211.28 16.5675C212.741 14.4769 214.899 13.4317 217.756 13.4317Z" fill="#5F6368"/>
<path id="Fill 5" fill-rule="evenodd" clip-rule="evenodd" d="M241.463 13.9543L231.424 37.0154H228.318L232.046 28.9464L225.44 13.9543H228.71L233.484 25.4522H233.55L238.193 13.9543H241.463Z" fill="#5F6368"/>
</g>
<g id="G">
<path id="Fill 8" fill-rule="evenodd" clip-rule="evenodd" d="M186.373 18.4452C186.373 17.4989 186.293 16.5861 186.141 15.7126H173.454V20.8885H180.72C180.408 22.5757 179.465 24.0112 178.033 24.9725V28.3341H182.37C184.91 25.9935 186.373 22.5348 186.373 18.4452Z" fill="#4285F4"/>
<path id="Fill 10" fill-rule="evenodd" clip-rule="evenodd" d="M173.454 31.5782C177.084 31.5782 180.141 30.3873 182.37 28.3341L178.033 24.9725C176.826 25.7844 175.272 26.2585 173.454 26.2585C169.944 26.2585 166.966 23.8955 165.901 20.7112H161.433V24.1736C163.647 28.5637 168.197 31.5782 173.454 31.5782Z" fill="#34A853"/>
<path id="Fill 12" fill-rule="evenodd" clip-rule="evenodd" d="M165.901 20.7111C165.628 19.8992 165.479 19.0331 165.479 18.139C165.479 17.245 165.628 16.3789 165.901 15.567V12.1045H161.433C160.518 13.9188 160 15.9683 160 18.139C160 20.3098 160.518 22.3595 161.433 24.1736L165.901 20.7111Z" fill="#FABB05"/>
<path id="Fill 14" fill-rule="evenodd" clip-rule="evenodd" d="M173.454 10.0196C175.436 10.0196 177.213 10.7009 178.615 12.0355V12.0374L182.455 8.20162C180.123 6.03271 177.082 4.7 173.454 4.7C168.197 4.7 163.647 7.71446 161.433 12.1046L165.901 15.567C166.966 12.3827 169.944 10.0196 173.454 10.0196Z" fill="#E94235"/>
</g>
</g>
</g>
</g>
</svg>
