<svg width="248" height="38" viewBox="0 0 248 38" fill="none" xmlns="http://www.w3.org/2000/svg">
<g id="et_donate_with_Light">
<path id="Text" d="M1.49344 30L9.05344 9.952H12.5534L20.1414 30H16.7534L14.9054 24.848H6.72944L4.88144 30H1.49344ZM9.97744 15.86L7.76544 21.992H13.8694L11.6574 15.86L10.9014 13.564H10.7334L9.97744 15.86ZM22.6335 30V15.72H25.4895V17.68H25.6575C26.0682 16.9893 26.6749 16.42 27.4775 15.972C28.2989 15.5053 29.1949 15.272 30.1655 15.272C31.9202 15.272 33.2362 15.7947 34.1135 16.84C34.9909 17.8853 35.4295 19.2667 35.4295 20.984V30H32.4335V21.376C32.4335 20.2187 32.1442 19.3787 31.5655 18.856C30.9869 18.3147 30.2309 18.044 29.2975 18.044C28.5695 18.044 27.9349 18.2493 27.3935 18.66C26.8522 19.052 26.4229 19.5747 26.1055 20.228C25.8069 20.8813 25.6575 21.5813 25.6575 22.328V30H22.6335ZM39.1757 30V15.72H42.0317V17.68H42.1997C42.6104 16.9893 43.2171 16.42 44.0197 15.972C44.8411 15.5053 45.7371 15.272 46.7077 15.272C48.4624 15.272 49.7784 15.7947 50.6557 16.84C51.5331 17.8853 51.9717 19.2667 51.9717 20.984V30H48.9757V21.376C48.9757 20.2187 48.6864 19.3787 48.1077 18.856C47.5291 18.3147 46.7731 18.044 45.8397 18.044C45.1117 18.044 44.4771 18.2493 43.9357 18.66C43.3944 19.052 42.9651 19.5747 42.6477 20.228C42.3491 20.8813 42.1997 21.5813 42.1997 22.328V30H39.1757ZM62.2419 30.448C60.8419 30.448 59.5912 30.1213 58.4899 29.468C57.3886 28.8147 56.5206 27.9187 55.8859 26.78C55.2699 25.6413 54.9619 24.344 54.9619 22.888C54.9619 21.5253 55.2606 20.2653 55.8579 19.108C56.4552 17.9507 57.2859 17.0267 58.3499 16.336C59.4326 15.6267 60.6739 15.272 62.0739 15.272C63.5486 15.272 64.7992 15.5893 65.8259 16.224C66.8712 16.8587 67.6646 17.7267 68.2059 18.828C68.7472 19.9293 69.0179 21.1707 69.0179 22.552C69.0179 22.7573 69.0086 22.944 68.9899 23.112C68.9899 23.28 68.9806 23.4107 68.9619 23.504H57.9299C58.0792 24.9227 58.5739 25.9867 59.4139 26.696C60.2726 27.4053 61.2432 27.76 62.3259 27.76C63.2966 27.76 64.0992 27.5453 64.7339 27.116C65.3686 26.668 65.8726 26.1173 66.2459 25.464L68.7379 26.668C68.1219 27.788 67.2819 28.7027 66.2179 29.412C65.1539 30.1027 63.8286 30.448 62.2419 30.448ZM62.1019 17.848C61.0939 17.848 60.2352 18.156 59.5259 18.772C58.8166 19.388 58.3406 20.2093 58.0979 21.236H66.0219C65.9846 20.7507 65.8259 20.2467 65.5459 19.724C65.2659 19.2013 64.8366 18.7627 64.2579 18.408C63.6979 18.0347 62.9792 17.848 62.1019 17.848ZM73.2252 25.856V18.352H70.7332V15.72H73.2252V11.688H76.2492V15.72H79.7492V18.352H76.2492V25.212C76.2492 25.9213 76.3892 26.4627 76.6692 26.836C76.9679 27.2093 77.4626 27.396 78.1532 27.396C78.5079 27.396 78.8066 27.3493 79.0492 27.256C79.3106 27.1627 79.5719 27.032 79.8332 26.864V29.804C79.5159 29.9347 79.1799 30.0373 78.8252 30.112C78.4706 30.1867 78.0506 30.224 77.5652 30.224C76.2399 30.224 75.1852 29.8413 74.4012 29.076C73.6172 28.292 73.2252 27.2187 73.2252 25.856ZM87.1573 30.448C86.1306 30.448 85.216 30.252 84.4133 29.86C83.6106 29.4493 82.9853 28.88 82.5373 28.152C82.0893 27.424 81.8653 26.5933 81.8653 25.66C81.8653 24.652 82.1266 23.7933 82.6493 23.084C83.1906 22.356 83.9093 21.8053 84.8053 21.432C85.7013 21.0587 86.6906 20.872 87.7733 20.872C88.6693 20.872 89.4533 20.956 90.1253 21.124C90.816 21.292 91.3386 21.4693 91.6933 21.656V20.9C91.6933 19.9667 91.3573 19.22 90.6853 18.66C90.0133 18.1 89.1453 17.82 88.0813 17.82C87.3533 17.82 86.6626 17.988 86.0093 18.324C85.356 18.6413 84.8333 19.08 84.4413 19.64L82.3693 18.044C82.9853 17.1853 83.7973 16.5133 84.8053 16.028C85.832 15.524 86.952 15.272 88.1653 15.272C90.2373 15.272 91.8333 15.7853 92.9533 16.812C94.0733 17.82 94.6333 19.2387 94.6333 21.068V30H91.6933V28.236H91.5253C91.152 28.8147 90.592 29.328 89.8453 29.776C89.0986 30.224 88.2026 30.448 87.1573 30.448ZM87.6893 27.984C88.4733 27.984 89.164 27.7973 89.7613 27.424C90.3586 27.0507 90.8253 26.5653 91.1613 25.968C91.516 25.352 91.6933 24.6893 91.6933 23.98C91.264 23.7373 90.76 23.5413 90.1813 23.392C89.6026 23.224 88.9866 23.14 88.3333 23.14C87.1013 23.14 86.224 23.392 85.7013 23.896C85.1786 24.3813 84.9173 24.9787 84.9173 25.688C84.9173 26.36 85.1693 26.9107 85.6733 27.34C86.1773 27.7693 86.8493 27.984 87.6893 27.984ZM104.566 36.496C103.315 36.496 102.232 36.2907 101.318 35.88C100.422 35.488 99.6937 34.9747 99.1337 34.34C98.5737 33.724 98.1724 33.0893 97.9297 32.436L100.73 31.26C101.028 32.0067 101.504 32.6133 102.158 33.08C102.83 33.5653 103.632 33.808 104.566 33.808C105.872 33.808 106.899 33.416 107.646 32.632C108.411 31.848 108.794 30.7373 108.794 29.3V27.928H108.626C108.178 28.6 107.552 29.1413 106.75 29.552C105.966 29.944 105.07 30.14 104.062 30.14C102.848 30.14 101.738 29.832 100.73 29.216C99.7217 28.6 98.9097 27.7413 98.2937 26.64C97.6777 25.52 97.3697 24.2133 97.3697 22.72C97.3697 21.208 97.6777 19.9013 98.2937 18.8C98.9097 17.68 99.7217 16.812 100.73 16.196C101.738 15.58 102.848 15.272 104.062 15.272C105.07 15.272 105.966 15.4773 106.75 15.888C107.552 16.2987 108.178 16.84 108.626 17.512H108.794V15.72H111.678V29.244C111.678 30.7933 111.37 32.1093 110.754 33.192C110.156 34.2747 109.326 35.096 108.262 35.656C107.198 36.216 105.966 36.496 104.566 36.496ZM104.594 27.396C105.34 27.396 106.031 27.2187 106.666 26.864C107.3 26.4907 107.814 25.9587 108.206 25.268C108.598 24.5587 108.794 23.7093 108.794 22.72C108.794 21.6933 108.598 20.8347 108.206 20.144C107.814 19.4347 107.3 18.9027 106.666 18.548C106.031 18.1933 105.34 18.016 104.594 18.016C103.847 18.016 103.147 18.2027 102.494 18.576C101.859 18.9307 101.346 19.4533 100.954 20.144C100.562 20.8347 100.366 21.6933 100.366 22.72C100.366 23.728 100.562 24.5867 100.954 25.296C101.346 25.9867 101.859 26.5093 102.494 26.864C103.147 27.2187 103.847 27.396 104.594 27.396ZM121.903 30.448C120.503 30.448 119.252 30.1213 118.151 29.468C117.05 28.8147 116.182 27.9187 115.547 26.78C114.931 25.6413 114.623 24.344 114.623 22.888C114.623 21.5253 114.922 20.2653 115.519 19.108C116.116 17.9507 116.947 17.0267 118.011 16.336C119.094 15.6267 120.335 15.272 121.735 15.272C123.21 15.272 124.46 15.5893 125.487 16.224C126.532 16.8587 127.326 17.7267 127.867 18.828C128.408 19.9293 128.679 21.1707 128.679 22.552C128.679 22.7573 128.67 22.944 128.651 23.112C128.651 23.28 128.642 23.4107 128.623 23.504H117.591C117.74 24.9227 118.235 25.9867 119.075 26.696C119.934 27.4053 120.904 27.76 121.987 27.76C122.958 27.76 123.76 27.5453 124.395 27.116C125.03 26.668 125.534 26.1173 125.907 25.464L128.399 26.668C127.783 27.788 126.943 28.7027 125.879 29.412C124.815 30.1027 123.49 30.448 121.903 30.448ZM121.763 17.848C120.755 17.848 119.896 18.156 119.187 18.772C118.478 19.388 118.002 20.2093 117.759 21.236H125.683C125.646 20.7507 125.487 20.2467 125.207 19.724C124.927 19.2013 124.498 18.7627 123.919 18.408C123.359 18.0347 122.64 17.848 121.763 17.848ZM138.591 22.608V20.032H152.255V22.608H138.591Z" fill="#3C4043"/>
<g id="GPay Logo (Light)">
<g id="GPay">
<g id="Pay">
<path id="Fill 1" fill-rule="evenodd" clip-rule="evenodd" d="M204.529 9.44664V17.6128H209.565C210.765 17.6128 211.757 17.2096 212.541 16.4032C213.347 15.5988 213.75 14.6394 213.75 13.5288C213.75 12.4406 213.347 11.4924 212.541 10.686C211.757 9.85915 210.765 9.44478 209.565 9.44478H204.529V9.44664ZM204.529 20.4872V29.9599H201.521V6.57217H209.499C211.527 6.57217 213.248 7.24786 214.666 8.59737C216.105 9.94688 216.824 11.5913 216.824 13.5288C216.824 15.511 216.105 17.1667 214.666 18.4938C213.27 19.8227 211.547 20.4854 209.499 20.4854H204.529V20.4872Z" fill="#5F6368"/>
<path id="Fill 3" fill-rule="evenodd" clip-rule="evenodd" d="M219.864 25.0602C219.864 25.8442 220.197 26.4975 220.862 27.0201C221.527 27.5427 222.306 27.804 223.2 27.804C224.465 27.804 225.591 27.3354 226.584 26.4004C227.576 25.4634 228.071 24.364 228.071 23.1022C227.133 22.3612 225.825 21.9916 224.147 21.9916C222.925 21.9916 221.907 22.2865 221.09 22.8745C220.273 23.4623 219.864 24.1886 219.864 25.0602ZM223.756 13.4317C225.98 13.4317 227.735 14.0252 229.022 15.2124C230.308 16.3995 230.95 18.0271 230.95 20.0952V29.9599H228.073V27.7387H227.942C226.699 29.5677 225.042 30.4825 222.972 30.4825C221.206 30.4825 219.728 29.9599 218.541 28.9146C217.353 27.8694 216.759 26.5628 216.759 24.9949C216.759 23.3393 217.385 22.0232 218.638 21.0434C219.892 20.0635 221.565 19.5726 223.658 19.5726C225.444 19.5726 226.916 19.8992 228.071 20.5525V19.8656C228.071 18.8204 227.656 17.9338 226.829 17.204C225.999 16.4741 225.031 16.1102 223.919 16.1102C222.239 16.1102 220.911 16.8176 219.93 18.2343L217.28 16.5675C218.741 14.4769 220.899 13.4317 223.756 13.4317Z" fill="#5F6368"/>
<path id="Fill 5" fill-rule="evenodd" clip-rule="evenodd" d="M247.463 13.9543L237.424 37.0154H234.318L238.046 28.9464L231.44 13.9543H234.71L239.484 25.4522H239.55L244.193 13.9543H247.463Z" fill="#5F6368"/>
</g>
<g id="G">
<path id="Fill 8" fill-rule="evenodd" clip-rule="evenodd" d="M192.373 18.4452C192.373 17.4989 192.293 16.5861 192.141 15.7126H179.454V20.8885H186.72C186.408 22.5757 185.465 24.0112 184.033 24.9725V28.3341H188.37C190.91 25.9935 192.373 22.5348 192.373 18.4452Z" fill="#4285F4"/>
<path id="Fill 10" fill-rule="evenodd" clip-rule="evenodd" d="M179.454 31.5782C183.084 31.5782 186.141 30.3873 188.37 28.3341L184.033 24.9725C182.826 25.7844 181.272 26.2585 179.454 26.2585C175.944 26.2585 172.966 23.8955 171.901 20.7112H167.433V24.1736C169.647 28.5637 174.197 31.5782 179.454 31.5782Z" fill="#34A853"/>
<path id="Fill 12" fill-rule="evenodd" clip-rule="evenodd" d="M171.901 20.7111C171.628 19.8992 171.479 19.0331 171.479 18.139C171.479 17.245 171.628 16.3789 171.901 15.567V12.1045H167.433C166.518 13.9188 166 15.9683 166 18.139C166 20.3098 166.518 22.3595 167.433 24.1736L171.901 20.7111Z" fill="#FABB05"/>
<path id="Fill 14" fill-rule="evenodd" clip-rule="evenodd" d="M179.454 10.0196C181.436 10.0196 183.213 10.7009 184.615 12.0355V12.0374L188.455 8.20162C186.123 6.03271 183.082 4.7 179.454 4.7C174.197 4.7 169.647 7.71446 167.433 12.1046L171.901 15.567C172.966 12.3827 175.944 10.0196 179.454 10.0196Z" fill="#E94235"/>
</g>
</g>
</g>
</g>
</svg>
