<svg width="128" height="21" viewBox="0 0 128 21" fill="none" xmlns="http://www.w3.org/2000/svg">
<g id="et_donate_with_Pay_NBG">
<path id="Left Text" d="M0.99 15.0006L5.31 3.54461H7.31L11.646 15.0006H9.71L8.654 12.0566H3.982L2.926 15.0006H0.99ZM8.062 10.4246L6.798 6.92061L6.366 5.60861H6.27L5.838 6.92061L4.574 10.4246H8.062ZM13.0486 15.0006V6.84061H14.6806V7.96061H14.7766C15.0113 7.56594 15.358 7.24061 15.8166 6.98461C16.286 6.71794 16.798 6.58461 17.3526 6.58461C18.3553 6.58461 19.1073 6.88328 19.6086 7.48061C20.11 8.06728 20.3606 8.85661 20.3606 9.84861V15.0006H18.6486V10.0726C18.6486 9.41128 18.4833 8.93128 18.1526 8.63261C17.822 8.32328 17.39 8.16861 16.8566 8.16861C16.4406 8.16861 16.078 8.28594 15.7686 8.52061C15.4593 8.74461 15.214 9.04328 15.0326 9.41661C14.862 9.78994 14.7766 10.1899 14.7766 10.6166V15.0006H13.0486ZM22.4799 15.0006V6.84061H24.1119V7.96061H24.2079C24.4425 7.56594 24.7892 7.24061 25.2479 6.98461C25.7172 6.71794 26.2292 6.58461 26.7839 6.58461C27.7865 6.58461 28.5385 6.88328 29.0399 7.48061C29.5412 8.06728 29.7919 8.85661 29.7919 9.84861V15.0006H28.0799V10.0726C28.0799 9.41128 27.9145 8.93128 27.5839 8.63261C27.2532 8.32328 26.8212 8.16861 26.2879 8.16861C25.8719 8.16861 25.5092 8.28594 25.1999 8.52061C24.8905 8.74461 24.6452 9.04328 24.4639 9.41661C24.2932 9.78994 24.2079 10.1899 24.2079 10.6166V15.0006H22.4799ZM35.6391 15.2566C34.8391 15.2566 34.1245 15.0699 33.4951 14.6966C32.8658 14.3233 32.3698 13.8113 32.0071 13.1606C31.6551 12.5099 31.4791 11.7686 31.4791 10.9366C31.4791 10.1579 31.6498 9.43794 31.9911 8.77661C32.3325 8.11528 32.8071 7.58728 33.4151 7.19261C34.0338 6.78728 34.7431 6.58461 35.5431 6.58461C36.3858 6.58461 37.1005 6.76594 37.6871 7.12861C38.2845 7.49128 38.7378 7.98728 39.0471 8.61661C39.3565 9.24594 39.5111 9.95528 39.5111 10.7446C39.5111 10.8619 39.5058 10.9686 39.4951 11.0646C39.4951 11.1606 39.4898 11.2353 39.4791 11.2886H33.1751C33.2178 11.7366 33.3298 12.1259 33.5111 12.4566C33.7458 12.8726 34.0551 13.1873 34.4391 13.4006C34.8231 13.6139 35.2391 13.7206 35.6871 13.7206C36.2311 13.7206 36.6845 13.5979 37.0471 13.3526C37.4205 13.0966 37.7138 12.7819 37.9271 12.4086L39.3511 13.0966C38.9991 13.7366 38.5191 14.2593 37.9111 14.6646C37.3031 15.0593 36.5458 15.2566 35.6391 15.2566ZM33.2711 9.99261H37.7991C37.7885 9.78994 37.7351 9.57661 37.6391 9.35261C37.5431 9.11794 37.4045 8.90461 37.2231 8.71261C37.0418 8.52061 36.8125 8.36594 36.5351 8.24861C36.2578 8.12061 35.9325 8.05661 35.5591 8.05661C35.0898 8.05661 34.6738 8.17928 34.3111 8.42461C33.9485 8.65928 33.6658 8.98994 33.4631 9.41661C33.3778 9.59794 33.3138 9.78994 33.2711 9.99261ZM40.4699 6.84061H41.8939V4.53661H43.6219V6.84061H45.6219V8.34461H43.6219V12.2646C43.6219 12.6699 43.7019 12.9793 43.8619 13.1926C44.0325 13.4059 44.3152 13.5126 44.7099 13.5126C44.9019 13.5126 45.0725 13.4859 45.2219 13.4326C45.3712 13.3686 45.5205 13.2939 45.6699 13.2086V14.8886C45.4885 14.9633 45.2965 15.0219 45.0939 15.0646C44.8912 15.1073 44.6512 15.1286 44.3739 15.1286C43.6165 15.1286 43.0139 14.9099 42.5659 14.4726C42.1179 14.0246 41.8939 13.4113 41.8939 12.6326V8.34461H40.4699V6.84061ZM49.8336 15.2566C49.247 15.2566 48.7243 15.1393 48.2656 14.9046C47.8176 14.6699 47.4603 14.3499 47.1936 13.9446C46.9376 13.5286 46.8096 13.0539 46.8096 12.5206C46.8096 11.9339 46.959 11.4379 47.2576 11.0326C47.567 10.6273 47.9776 10.3179 48.4896 10.1046C49.0016 9.89128 49.567 9.78461 50.1856 9.78461C50.527 9.78461 50.8416 9.81128 51.1296 9.86461C51.4283 9.90728 51.6843 9.96061 51.8976 10.0246C52.1216 10.0886 52.2976 10.1579 52.4256 10.2326V9.80061C52.4256 9.26728 52.2336 8.84061 51.8496 8.52061C51.4656 8.20061 50.9696 8.04061 50.3616 8.04061C49.9456 8.04061 49.551 8.13661 49.1776 8.32861C48.8043 8.50994 48.5056 8.76061 48.2816 9.08061L47.0976 8.16861C47.3323 7.83794 47.615 7.55528 47.9456 7.32061C48.287 7.08594 48.6656 6.90461 49.0816 6.77661C49.5083 6.64861 49.951 6.58461 50.4096 6.58461C51.5936 6.58461 52.5056 6.87794 53.1456 7.46461C53.7856 8.04061 54.1056 8.85128 54.1056 9.89661V15.0006H52.4256V13.9926H52.3296C52.191 14.2059 51.999 14.4086 51.7536 14.6006C51.519 14.7926 51.2363 14.9473 50.9056 15.0646C50.5856 15.1926 50.2283 15.2566 49.8336 15.2566ZM50.1376 13.8486C50.5856 13.8486 50.9803 13.7419 51.3216 13.5286C51.6736 13.3153 51.9456 13.0379 52.1376 12.6966C52.3296 12.3446 52.4256 11.9659 52.4256 11.5606C52.191 11.4219 51.903 11.3099 51.5616 11.2246C51.231 11.1286 50.879 11.0806 50.5056 11.0806C49.8016 11.0806 49.3003 11.2193 49.0016 11.4966C48.703 11.7739 48.5536 12.1206 48.5536 12.5366C48.5536 12.9206 48.6976 13.2353 48.9856 13.4806C49.2736 13.7259 49.6576 13.8486 50.1376 13.8486Z" fill="white"/>
<g id="GPay (Dark)">
<g id="GPay">
<g id="Pay">
<path id="Fill 1" fill-rule="evenodd" clip-rule="evenodd" d="M83.3563 3.42339V8.16175H86.2784C86.9745 8.16175 87.5501 7.92781 88.0055 7.45993C88.4728 6.99313 88.707 6.43644 88.707 5.79203C88.707 5.16061 88.4728 4.61041 88.0055 4.14254C87.5501 3.66274 86.9745 3.4223 86.2784 3.4223H83.3563V3.42339ZM83.3563 9.82966V15.3262H81.6107V1.75549H86.2404C87.4169 1.75549 88.4154 2.14756 89.2383 2.93061C90.0732 3.71365 90.4906 4.66782 90.4906 5.79203C90.4906 6.94224 90.0731 7.90291 89.2383 8.67296C88.4283 9.44409 87.4287 9.82858 86.2404 9.82858H83.3563V9.82966Z" fill="white"/>
<path id="Fill 3" fill-rule="evenodd" clip-rule="evenodd" d="M92.2546 12.4831C92.2546 12.9379 92.4476 13.317 92.8337 13.6203C93.2195 13.9235 93.6717 14.0752 94.19 14.0752C94.9239 14.0752 95.5777 13.8032 96.1535 13.2607C96.7293 12.717 97.0165 12.0791 97.0165 11.3469C96.4722 10.917 95.7133 10.7025 94.7396 10.7025C94.0306 10.7025 93.4397 10.8736 92.9659 11.2148C92.492 11.5559 92.2546 11.9773 92.2546 12.4831M94.513 5.73566C95.8033 5.73566 96.8214 6.08007 97.5685 6.76889C98.3145 7.45771 98.6873 8.40213 98.6873 9.60216V15.3261H97.0177V14.0373H96.9417C96.2207 15.0985 95.259 15.6294 94.0578 15.6294C93.0332 15.6294 92.1755 15.3261 91.4869 14.7196C90.7975 14.1131 90.4527 13.3549 90.4527 12.4452C90.4527 11.4845 90.8158 10.7208 91.5433 10.1523C92.2708 9.58375 93.2413 9.2989 94.4557 9.2989C95.4921 9.2989 96.3465 9.48844 97.0165 9.86751V9.46894C97.0165 8.86243 96.7758 8.34798 96.2956 7.92451C95.8141 7.50103 95.2525 7.28984 94.6074 7.28984C93.6326 7.28984 92.8618 7.70032 92.2926 8.52235L90.7551 7.55519C91.6029 6.34217 92.8552 5.73566 94.513 5.73566" fill="white"/>
<path id="Fill 5" fill-rule="evenodd" clip-rule="evenodd" d="M108.269 6.03894L102.443 19.4201H100.641L102.804 14.738L98.9714 6.03894H100.869L103.639 12.7106H103.677L106.371 6.03894H108.269Z" fill="white"/>
</g>
<g id="G">
<path id="Fill 8" fill-rule="evenodd" clip-rule="evenodd" d="M76.3029 8.64473C76.3029 8.09563 76.2562 7.56601 76.1684 7.05914H68.8065V10.0625H73.0231C72.842 11.0414 72.2944 11.8744 71.4639 12.4322V14.3828H73.9804C75.4539 13.0246 76.3029 11.0177 76.3029 8.64473" fill="#4285F4"/>
<path id="Fill 10" fill-rule="evenodd" clip-rule="evenodd" d="M68.8065 16.2651C70.9131 16.2651 72.6869 15.5741 73.9804 14.3828L71.4639 12.4322C70.7635 12.9033 69.8614 13.1784 68.8065 13.1784C66.7703 13.1784 65.042 11.8073 64.424 9.95959H61.8316V11.9687C63.1164 14.516 65.7565 16.2651 68.8065 16.2651" fill="#34A853"/>
<path id="Fill 12" fill-rule="evenodd" clip-rule="evenodd" d="M64.424 9.9596C64.2657 9.48847 64.179 8.98593 64.179 8.46715C64.179 7.94837 64.2657 7.44583 64.424 6.9747V4.96564H61.8316C61.3003 6.01837 61 7.20756 61 8.46715C61 9.72674 61.3003 10.916 61.8316 11.9687L64.424 9.9596Z" fill="#FABB05"/>
<path id="Fill 14" fill-rule="evenodd" clip-rule="evenodd" d="M68.8065 3.75583C69.9568 3.75583 70.9879 4.15115 71.8011 4.92553V4.92661L74.0292 2.70094C72.6761 1.44243 70.912 0.669128 68.8065 0.669128C65.7565 0.669128 63.1164 2.41826 61.8316 4.9656L64.424 6.97467C65.042 5.12698 66.7703 3.75583 68.8065 3.75583" fill="#E94235"/>
</g>
</g>
</g>
<path id="Right Text" d="M113.338 18.7126C112.623 18.7126 112.005 18.5953 111.482 18.3606C110.97 18.1366 110.554 17.8433 110.234 17.4806C109.914 17.1286 109.685 16.7659 109.546 16.3926L111.146 15.7206C111.317 16.1473 111.589 16.4939 111.962 16.7606C112.346 17.0379 112.805 17.1766 113.338 17.1766C114.095 17.1766 114.687 16.9526 115.114 16.5046C115.541 16.0566 115.754 15.4219 115.754 14.6006V13.8166H115.658C115.402 14.1899 115.05 14.4939 114.602 14.7286C114.154 14.9633 113.637 15.0806 113.05 15.0806C112.357 15.0806 111.717 14.9046 111.13 14.5526C110.554 14.2006 110.09 13.7099 109.738 13.0806C109.397 12.4406 109.226 11.6939 109.226 10.8406C109.226 9.97661 109.397 9.22994 109.738 8.60061C110.09 7.96061 110.554 7.46461 111.13 7.11261C111.717 6.76061 112.357 6.58461 113.05 6.58461C113.637 6.58461 114.154 6.70194 114.602 6.93661C115.05 7.16061 115.402 7.46994 115.658 7.86461H115.754V6.84061H117.402V14.5686C117.402 15.4539 117.226 16.2059 116.874 16.8246C116.533 17.4433 116.058 17.9126 115.45 18.2326C114.842 18.5526 114.138 18.7126 113.338 18.7126ZM113.354 13.5126C113.781 13.5126 114.175 13.4113 114.538 13.2086C114.911 12.9953 115.205 12.6913 115.418 12.2966C115.642 11.8913 115.754 11.4059 115.754 10.8406C115.754 10.2433 115.642 9.74728 115.418 9.35261C115.205 8.95794 114.911 8.65928 114.538 8.45661C114.175 8.25394 113.781 8.15261 113.354 8.15261C112.927 8.15261 112.527 8.25394 112.154 8.45661C111.791 8.65928 111.498 8.96328 111.274 9.36861C111.05 9.76328 110.938 10.2539 110.938 10.8406C110.938 11.4166 111.05 11.9073 111.274 12.3126C111.498 12.7073 111.791 13.0059 112.154 13.2086C112.527 13.4113 112.927 13.5126 113.354 13.5126ZM122.055 15.2566C121.469 15.2566 120.946 15.1393 120.487 14.9046C120.039 14.6699 119.682 14.3499 119.415 13.9446C119.159 13.5286 119.031 13.0539 119.031 12.5206C119.031 11.9339 119.181 11.4379 119.479 11.0326C119.789 10.6273 120.199 10.3179 120.711 10.1046C121.223 9.89128 121.789 9.78461 122.407 9.78461C122.749 9.78461 123.063 9.81128 123.351 9.86461C123.65 9.90728 123.906 9.96061 124.119 10.0246C124.343 10.0886 124.519 10.1579 124.647 10.2326V9.80061C124.647 9.26728 124.455 8.84061 124.071 8.52061C123.687 8.20061 123.191 8.04061 122.583 8.04061C122.167 8.04061 121.773 8.13661 121.399 8.32861C121.026 8.50994 120.727 8.76061 120.503 9.08061L119.319 8.16861C119.554 7.83794 119.837 7.55528 120.167 7.32061C120.509 7.08594 120.887 6.90461 121.303 6.77661C121.73 6.64861 122.173 6.58461 122.631 6.58461C123.815 6.58461 124.727 6.87794 125.367 7.46461C126.007 8.04061 126.327 8.85128 126.327 9.89661V15.0006H124.647V13.9926H124.551C124.413 14.2059 124.221 14.4086 123.975 14.6006C123.741 14.7926 123.458 14.9473 123.127 15.0646C122.807 15.1926 122.45 15.2566 122.055 15.2566ZM122.359 13.8486C122.807 13.8486 123.202 13.7419 123.543 13.5286C123.895 13.3153 124.167 13.0379 124.359 12.6966C124.551 12.3446 124.647 11.9659 124.647 11.5606C124.413 11.4219 124.125 11.3099 123.783 11.2246C123.453 11.1286 123.101 11.0806 122.727 11.0806C122.023 11.0806 121.522 11.2193 121.223 11.4966C120.925 11.7739 120.775 12.1206 120.775 12.5366C120.775 12.9206 120.919 13.2353 121.207 13.4806C121.495 13.7259 121.879 13.8486 122.359 13.8486Z" fill="white"/>
</g>
</svg>
