<svg width="103" height="21" viewBox="0 0 103 21" fill="none" xmlns="http://www.w3.org/2000/svg">
<g id="et_order_with_Pay_NBG">
<path id="Left Text" d="M4.56325 15.0006V5.20861H1.34725V3.54461H9.50725V5.20861H6.30725V15.0006H4.56325ZM13.5204 15.2566C12.7204 15.2566 12.0057 15.0699 11.3764 14.6966C10.747 14.3233 10.251 13.8113 9.88837 13.1606C9.53637 12.5099 9.36037 11.7686 9.36037 10.9366C9.36037 10.1579 9.53104 9.43794 9.87237 8.77661C10.2137 8.11528 10.6884 7.58728 11.2964 7.19261C11.915 6.78728 12.6244 6.58461 13.4244 6.58461C14.267 6.58461 14.9817 6.76594 15.5684 7.12861C16.1657 7.49128 16.619 7.98728 16.9284 8.61661C17.2377 9.24594 17.3924 9.95528 17.3924 10.7446C17.3924 10.8619 17.387 10.9686 17.3764 11.0646C17.3764 11.1606 17.371 11.2353 17.3604 11.2886H11.0564C11.099 11.7366 11.211 12.1259 11.3924 12.4566C11.627 12.8726 11.9364 13.1873 12.3204 13.4006C12.7044 13.6139 13.1204 13.7206 13.5684 13.7206C14.1124 13.7206 14.5657 13.5979 14.9284 13.3526C15.3017 13.0966 15.595 12.7819 15.8084 12.4086L17.2324 13.0966C16.8804 13.7366 16.4004 14.2593 15.7924 14.6646C15.1844 15.0593 14.427 15.2566 13.5204 15.2566ZM11.1524 9.99261H15.6804C15.6697 9.78994 15.6164 9.57661 15.5204 9.35261C15.4244 9.11794 15.2857 8.90461 15.1044 8.71261C14.923 8.52061 14.6937 8.36594 14.4164 8.24861C14.139 8.12061 13.8137 8.05661 13.4404 8.05661C12.971 8.05661 12.555 8.17928 12.1924 8.42461C11.8297 8.65928 11.547 8.98994 11.3444 9.41661C11.259 9.59794 11.195 9.78994 11.1524 9.99261ZM19.1615 15.0006V3.54461H20.8895V15.0006H19.1615ZM23.0928 15.0006V3.54461H24.8208V15.0006H23.0928ZM27.136 15.0006V6.84061H28.864V15.0006H27.136ZM28 5.64061C27.68 5.64061 27.4027 5.52861 27.168 5.30461C26.944 5.06994 26.832 4.79261 26.832 4.47261C26.832 4.14194 26.944 3.86994 27.168 3.65661C27.4027 3.43261 27.68 3.32061 28 3.32061C28.3307 3.32061 28.608 3.43261 28.832 3.65661C29.056 3.86994 29.168 4.14194 29.168 4.47261C29.168 4.79261 29.056 5.06994 28.832 5.30461C28.608 5.52861 28.3307 5.64061 28 5.64061Z" fill="white"/>
<g id="GPay (Dark)">
<g id="GPay">
<g id="Pay">
<path id="Fill 1" fill-rule="evenodd" clip-rule="evenodd" d="M58.3563 3.42339V8.16175H61.2784C61.9745 8.16175 62.5501 7.92781 63.0055 7.45993C63.4728 6.99313 63.707 6.43644 63.707 5.79203C63.707 5.16061 63.4728 4.61041 63.0055 4.14254C62.5501 3.66274 61.9745 3.4223 61.2784 3.4223H58.3563V3.42339ZM58.3563 9.82966V15.3262H56.6107V1.75549H61.2404C62.4169 1.75549 63.4154 2.14756 64.2383 2.93061C65.0732 3.71365 65.4906 4.66782 65.4906 5.79203C65.4906 6.94224 65.0731 7.90291 64.2383 8.67296C63.4283 9.44409 62.4287 9.82858 61.2404 9.82858H58.3563V9.82966Z" fill="white"/>
<path id="Fill 3" fill-rule="evenodd" clip-rule="evenodd" d="M67.2546 12.4831C67.2546 12.9379 67.4476 13.317 67.8337 13.6203C68.2195 13.9235 68.6717 14.0752 69.19 14.0752C69.9239 14.0752 70.5777 13.8032 71.1535 13.2607C71.7293 12.717 72.0165 12.0791 72.0165 11.3469C71.4722 10.917 70.7133 10.7025 69.7396 10.7025C69.0306 10.7025 68.4397 10.8736 67.9659 11.2148C67.492 11.5559 67.2546 11.9773 67.2546 12.4831M69.513 5.73566C70.8033 5.73566 71.8214 6.08007 72.5685 6.76889C73.3145 7.45771 73.6873 8.40213 73.6873 9.60216V15.3261H72.0177V14.0373H71.9417C71.2207 15.0985 70.259 15.6294 69.0578 15.6294C68.0332 15.6294 67.1755 15.3261 66.4869 14.7196C65.7975 14.1131 65.4527 13.3549 65.4527 12.4452C65.4527 11.4845 65.8158 10.7208 66.5433 10.1523C67.2708 9.58375 68.2413 9.2989 69.4557 9.2989C70.4921 9.2989 71.3465 9.48844 72.0165 9.86751V9.46894C72.0165 8.86243 71.7758 8.34798 71.2956 7.92451C70.8141 7.50103 70.2525 7.28984 69.6074 7.28984C68.6326 7.28984 67.8618 7.70032 67.2926 8.52235L65.7551 7.55519C66.6029 6.34217 67.8552 5.73566 69.513 5.73566" fill="white"/>
<path id="Fill 5" fill-rule="evenodd" clip-rule="evenodd" d="M83.2687 6.03894L77.4432 19.4201H75.6411L77.8043 14.738L73.9714 6.03894H75.8688L78.639 12.7106H78.677L81.3713 6.03894H83.2687Z" fill="white"/>
</g>
<g id="G">
<path id="Fill 8" fill-rule="evenodd" clip-rule="evenodd" d="M51.3029 8.64473C51.3029 8.09563 51.2562 7.56601 51.1684 7.05914H43.8065V10.0625H48.0231C47.842 11.0414 47.2944 11.8744 46.4639 12.4322V14.3828H48.9804C50.4539 13.0246 51.3029 11.0177 51.3029 8.64473" fill="#4285F4"/>
<path id="Fill 10" fill-rule="evenodd" clip-rule="evenodd" d="M43.8065 16.2651C45.9131 16.2651 47.6869 15.5741 48.9804 14.3828L46.4639 12.4322C45.7635 12.9033 44.8614 13.1784 43.8065 13.1784C41.7703 13.1784 40.042 11.8073 39.424 9.95959H36.8316V11.9687C38.1164 14.516 40.7565 16.2651 43.8065 16.2651" fill="#34A853"/>
<path id="Fill 12" fill-rule="evenodd" clip-rule="evenodd" d="M39.424 9.9596C39.2657 9.48847 39.179 8.98593 39.179 8.46715C39.179 7.94837 39.2657 7.44583 39.424 6.9747V4.96564H36.8316C36.3003 6.01837 36 7.20756 36 8.46715C36 9.72674 36.3003 10.916 36.8316 11.9687L39.424 9.9596Z" fill="#FABB05"/>
<path id="Fill 14" fill-rule="evenodd" clip-rule="evenodd" d="M43.8065 3.75583C44.9568 3.75583 45.9879 4.15115 46.8011 4.92553V4.92661L49.0292 2.70094C47.6761 1.44243 45.912 0.669128 43.8065 0.669128C40.7565 0.669128 38.1164 2.41826 36.8316 4.9656L39.424 6.97467C40.042 5.12698 41.7703 3.75583 43.8065 3.75583" fill="#E94235"/>
</g>
</g>
</g>
<path id="Right Text" d="M88.338 18.7126C87.6233 18.7126 87.0047 18.5953 86.482 18.3606C85.97 18.1366 85.554 17.8433 85.234 17.4806C84.914 17.1286 84.6847 16.7659 84.546 16.3926L86.146 15.7206C86.3167 16.1473 86.5887 16.4939 86.962 16.7606C87.346 17.0379 87.8047 17.1766 88.338 17.1766C89.0953 17.1766 89.6873 16.9526 90.114 16.5046C90.5407 16.0566 90.754 15.4219 90.754 14.6006V13.8166H90.658C90.402 14.1899 90.05 14.4939 89.602 14.7286C89.154 14.9633 88.6367 15.0806 88.05 15.0806C87.3567 15.0806 86.7167 14.9046 86.13 14.5526C85.554 14.2006 85.09 13.7099 84.738 13.0806C84.3967 12.4406 84.226 11.6939 84.226 10.8406C84.226 9.97661 84.3967 9.22994 84.738 8.60061C85.09 7.96061 85.554 7.46461 86.13 7.11261C86.7167 6.76061 87.3567 6.58461 88.05 6.58461C88.6367 6.58461 89.154 6.70194 89.602 6.93661C90.05 7.16061 90.402 7.46994 90.658 7.86461H90.754V6.84061H92.402V14.5686C92.402 15.4539 92.226 16.2059 91.874 16.8246C91.5327 17.4433 91.058 17.9126 90.45 18.2326C89.842 18.5526 89.138 18.7126 88.338 18.7126ZM88.354 13.5126C88.7807 13.5126 89.1753 13.4113 89.538 13.2086C89.9113 12.9953 90.2047 12.6913 90.418 12.2966C90.642 11.8913 90.754 11.4059 90.754 10.8406C90.754 10.2433 90.642 9.74728 90.418 9.35261C90.2047 8.95794 89.9113 8.65928 89.538 8.45661C89.1753 8.25394 88.7807 8.15261 88.354 8.15261C87.9273 8.15261 87.5273 8.25394 87.154 8.45661C86.7913 8.65928 86.498 8.96328 86.274 9.36861C86.05 9.76328 85.938 10.2539 85.938 10.8406C85.938 11.4166 86.05 11.9073 86.274 12.3126C86.498 12.7073 86.7913 13.0059 87.154 13.2086C87.5273 13.4113 87.9273 13.5126 88.354 13.5126ZM97.0555 15.2566C96.4688 15.2566 95.9462 15.1393 95.4875 14.9046C95.0395 14.6699 94.6822 14.3499 94.4155 13.9446C94.1595 13.5286 94.0315 13.0539 94.0315 12.5206C94.0315 11.9339 94.1808 11.4379 94.4795 11.0326C94.7888 10.6273 95.1995 10.3179 95.7115 10.1046C96.2235 9.89128 96.7888 9.78461 97.4075 9.78461C97.7488 9.78461 98.0635 9.81128 98.3515 9.86461C98.6502 9.90728 98.9062 9.96061 99.1195 10.0246C99.3435 10.0886 99.5195 10.1579 99.6475 10.2326V9.80061C99.6475 9.26728 99.4555 8.84061 99.0715 8.52061C98.6875 8.20061 98.1915 8.04061 97.5835 8.04061C97.1675 8.04061 96.7728 8.13661 96.3995 8.32861C96.0262 8.50994 95.7275 8.76061 95.5035 9.08061L94.3195 8.16861C94.5542 7.83794 94.8368 7.55528 95.1675 7.32061C95.5088 7.08594 95.8875 6.90461 96.3035 6.77661C96.7302 6.64861 97.1728 6.58461 97.6315 6.58461C98.8155 6.58461 99.7275 6.87794 100.367 7.46461C101.007 8.04061 101.327 8.85128 101.327 9.89661V15.0006H99.6475V13.9926H99.5515C99.4128 14.2059 99.2208 14.4086 98.9755 14.6006C98.7408 14.7926 98.4582 14.9473 98.1275 15.0646C97.8075 15.1926 97.4502 15.2566 97.0555 15.2566ZM97.3595 13.8486C97.8075 13.8486 98.2022 13.7419 98.5435 13.5286C98.8955 13.3153 99.1675 13.0379 99.3595 12.6966C99.5515 12.3446 99.6475 11.9659 99.6475 11.5606C99.4128 11.4219 99.1248 11.3099 98.7835 11.2246C98.4528 11.1286 98.1008 11.0806 97.7275 11.0806C97.0235 11.0806 96.5222 11.2193 96.2235 11.4966C95.9248 11.7739 95.7755 12.1206 95.7755 12.5366C95.7755 12.9206 95.9195 13.2353 96.2075 13.4806C96.4955 13.7259 96.8795 13.8486 97.3595 13.8486Z" fill="white"/>
</g>
</svg>
