<svg width="204" height="38" viewBox="0 0 204 38" fill="none" xmlns="http://www.w3.org/2000/svg">
<g id="et_order_with_Light">
<path id="Text" d="M7.53412 30V12.864H1.90612V9.952H16.1861V12.864H10.5861V30H7.53412ZM23.2466 30.448C21.8466 30.448 20.5959 30.1213 19.4946 29.468C18.3933 28.8147 17.5253 27.9187 16.8906 26.78C16.2746 25.6413 15.9666 24.344 15.9666 22.888C15.9666 21.5253 16.2653 20.2653 16.8626 19.108C17.4599 17.9507 18.2906 17.0267 19.3546 16.336C20.4373 15.6267 21.6786 15.272 23.0786 15.272C24.5533 15.272 25.8039 15.5893 26.8306 16.224C27.8759 16.8587 28.6693 17.7267 29.2106 18.828C29.7519 19.9293 30.0226 21.1707 30.0226 22.552C30.0226 22.7573 30.0133 22.944 29.9946 23.112C29.9946 23.28 29.9853 23.4107 29.9666 23.504H18.9346C19.0839 24.9227 19.5786 25.9867 20.4186 26.696C21.2773 27.4053 22.2479 27.76 23.3306 27.76C24.3013 27.76 25.1039 27.5453 25.7386 27.116C26.3733 26.668 26.8773 26.1173 27.2506 25.464L29.7426 26.668C29.1266 27.788 28.2866 28.7027 27.2226 29.412C26.1586 30.1027 24.8333 30.448 23.2466 30.448ZM23.1066 17.848C22.0986 17.848 21.2399 18.156 20.5306 18.772C19.8213 19.388 19.3453 20.2093 19.1026 21.236H27.0266C26.9893 20.7507 26.8306 20.2467 26.5506 19.724C26.2706 19.2013 25.8413 18.7627 25.2626 18.408C24.7026 18.0347 23.9839 17.848 23.1066 17.848ZM33.1561 30V9.952H36.1801V30H33.1561ZM40.0733 30V9.952H43.0973V30H40.0733ZM48.6984 13.62C48.1384 13.62 47.6531 13.424 47.2424 13.032C46.8504 12.6213 46.6544 12.136 46.6544 11.576C46.6544 11.016 46.8504 10.54 47.2424 10.148C47.6531 9.756 48.1384 9.56 48.6984 9.56C49.2584 9.56 49.7344 9.756 50.1264 10.148C50.5371 10.54 50.7424 11.016 50.7424 11.576C50.7424 12.136 50.5371 12.6213 50.1264 13.032C49.7344 13.424 49.2584 13.62 48.6984 13.62ZM47.1864 30V15.72H50.2104V30H47.1864ZM60.5657 36.496C59.3151 36.496 58.2324 36.2907 57.3177 35.88C56.4217 35.488 55.6937 34.9747 55.1337 34.34C54.5737 33.724 54.1724 33.0893 53.9297 32.436L56.7297 31.26C57.0284 32.0067 57.5044 32.6133 58.1577 33.08C58.8297 33.5653 59.6324 33.808 60.5657 33.808C61.8724 33.808 62.8991 33.416 63.6457 32.632C64.4111 31.848 64.7937 30.7373 64.7937 29.3V27.928H64.6257C64.1777 28.6 63.5524 29.1413 62.7497 29.552C61.9657 29.944 61.0697 30.14 60.0617 30.14C58.8484 30.14 57.7377 29.832 56.7297 29.216C55.7217 28.6 54.9097 27.7413 54.2937 26.64C53.6777 25.52 53.3697 24.2133 53.3697 22.72C53.3697 21.208 53.6777 19.9013 54.2937 18.8C54.9097 17.68 55.7217 16.812 56.7297 16.196C57.7377 15.58 58.8484 15.272 60.0617 15.272C61.0697 15.272 61.9657 15.4773 62.7497 15.888C63.5524 16.2987 64.1777 16.84 64.6257 17.512H64.7937V15.72H67.6777V29.244C67.6777 30.7933 67.3697 32.1093 66.7537 33.192C66.1564 34.2747 65.3257 35.096 64.2617 35.656C63.1977 36.216 61.9657 36.496 60.5657 36.496ZM60.5937 27.396C61.3404 27.396 62.0311 27.2187 62.6657 26.864C63.3004 26.4907 63.8137 25.9587 64.2057 25.268C64.5977 24.5587 64.7937 23.7093 64.7937 22.72C64.7937 21.6933 64.5977 20.8347 64.2057 20.144C63.8137 19.4347 63.3004 18.9027 62.6657 18.548C62.0311 18.1933 61.3404 18.016 60.5937 18.016C59.8471 18.016 59.1471 18.2027 58.4937 18.576C57.8591 18.9307 57.3457 19.4533 56.9537 20.144C56.5617 20.8347 56.3657 21.6933 56.3657 22.72C56.3657 23.728 56.5617 24.5867 56.9537 25.296C57.3457 25.9867 57.8591 26.5093 58.4937 26.864C59.1471 27.2187 59.8471 27.396 60.5937 27.396ZM77.9028 30.448C76.5028 30.448 75.2522 30.1213 74.1508 29.468C73.0495 28.8147 72.1815 27.9187 71.5468 26.78C70.9308 25.6413 70.6228 24.344 70.6228 22.888C70.6228 21.5253 70.9215 20.2653 71.5188 19.108C72.1162 17.9507 72.9468 17.0267 74.0108 16.336C75.0935 15.6267 76.3348 15.272 77.7348 15.272C79.2095 15.272 80.4602 15.5893 81.4868 16.224C82.5322 16.8587 83.3255 17.7267 83.8668 18.828C84.4082 19.9293 84.6788 21.1707 84.6788 22.552C84.6788 22.7573 84.6695 22.944 84.6508 23.112C84.6508 23.28 84.6415 23.4107 84.6228 23.504H73.5908C73.7402 24.9227 74.2348 25.9867 75.0748 26.696C75.9335 27.4053 76.9042 27.76 77.9868 27.76C78.9575 27.76 79.7602 27.5453 80.3948 27.116C81.0295 26.668 81.5335 26.1173 81.9068 25.464L84.3988 26.668C83.7828 27.788 82.9428 28.7027 81.8788 29.412C80.8148 30.1027 79.4895 30.448 77.9028 30.448ZM77.7628 17.848C76.7548 17.848 75.8962 18.156 75.1868 18.772C74.4775 19.388 74.0015 20.2093 73.7588 21.236H81.6828C81.6455 20.7507 81.4868 20.2467 81.2068 19.724C80.9268 19.2013 80.4975 18.7627 79.9188 18.408C79.3588 18.0347 78.6402 17.848 77.7628 17.848ZM94.5915 22.608V20.032H108.255V22.608H94.5915Z" fill="#3C4043"/>
<g id="GPay Logo (Light)">
<g id="GPay">
<g id="Pay">
<path id="Fill 1" fill-rule="evenodd" clip-rule="evenodd" d="M160.529 9.44664V17.6128H165.565C166.765 17.6128 167.757 17.2096 168.541 16.4032C169.347 15.5988 169.75 14.6394 169.75 13.5288C169.75 12.4406 169.347 11.4924 168.541 10.686C167.757 9.85915 166.765 9.44478 165.565 9.44478H160.529V9.44664ZM160.529 20.4872V29.9599H157.521V6.57217H165.499C167.527 6.57217 169.248 7.24786 170.666 8.59737C172.105 9.94688 172.824 11.5913 172.824 13.5288C172.824 15.511 172.105 17.1667 170.666 18.4938C169.27 19.8227 167.547 20.4854 165.499 20.4854H160.529V20.4872Z" fill="#5F6368"/>
<path id="Fill 3" fill-rule="evenodd" clip-rule="evenodd" d="M175.864 25.0602C175.864 25.8442 176.197 26.4975 176.862 27.0201C177.527 27.5427 178.306 27.804 179.2 27.804C180.465 27.804 181.591 27.3354 182.584 26.4004C183.576 25.4634 184.071 24.364 184.071 23.1022C183.133 22.3612 181.825 21.9916 180.147 21.9916C178.925 21.9916 177.907 22.2865 177.09 22.8745C176.273 23.4623 175.864 24.1886 175.864 25.0602ZM179.756 13.4317C181.98 13.4317 183.735 14.0252 185.022 15.2124C186.308 16.3995 186.95 18.0271 186.95 20.0952V29.9599H184.073V27.7387H183.942C182.699 29.5677 181.042 30.4825 178.972 30.4825C177.206 30.4825 175.728 29.9599 174.541 28.9146C173.353 27.8694 172.759 26.5628 172.759 24.9949C172.759 23.3393 173.385 22.0232 174.638 21.0434C175.892 20.0635 177.565 19.5726 179.658 19.5726C181.444 19.5726 182.916 19.8992 184.071 20.5525V19.8656C184.071 18.8204 183.656 17.9338 182.829 17.204C181.999 16.4741 181.031 16.1102 179.919 16.1102C178.239 16.1102 176.911 16.8176 175.93 18.2343L173.28 16.5675C174.741 14.4769 176.899 13.4317 179.756 13.4317Z" fill="#5F6368"/>
<path id="Fill 5" fill-rule="evenodd" clip-rule="evenodd" d="M203.463 13.9543L193.424 37.0154H190.318L194.046 28.9464L187.44 13.9543H190.71L195.484 25.4522H195.55L200.193 13.9543H203.463Z" fill="#5F6368"/>
</g>
<g id="G">
<path id="Fill 8" fill-rule="evenodd" clip-rule="evenodd" d="M148.373 18.4452C148.373 17.4989 148.293 16.5861 148.141 15.7126H135.454V20.8885H142.72C142.408 22.5757 141.465 24.0112 140.033 24.9725V28.3341H144.37C146.91 25.9935 148.373 22.5348 148.373 18.4452Z" fill="#4285F4"/>
<path id="Fill 10" fill-rule="evenodd" clip-rule="evenodd" d="M135.454 31.5782C139.084 31.5782 142.141 30.3873 144.37 28.3341L140.033 24.9725C138.826 25.7844 137.272 26.2585 135.454 26.2585C131.944 26.2585 128.966 23.8955 127.901 20.7112H123.433V24.1736C125.647 28.5637 130.197 31.5782 135.454 31.5782Z" fill="#34A853"/>
<path id="Fill 12" fill-rule="evenodd" clip-rule="evenodd" d="M127.901 20.7111C127.628 19.8992 127.479 19.0331 127.479 18.139C127.479 17.245 127.628 16.3789 127.901 15.567V12.1045H123.433C122.518 13.9188 122 15.9683 122 18.139C122 20.3098 122.518 22.3595 123.433 24.1736L127.901 20.7111Z" fill="#FABB05"/>
<path id="Fill 14" fill-rule="evenodd" clip-rule="evenodd" d="M135.454 10.0196C137.436 10.0196 139.213 10.7009 140.615 12.0355V12.0374L144.455 8.20162C142.123 6.03271 139.082 4.7 135.454 4.7C130.197 4.7 125.647 7.71446 123.433 12.1046L127.901 15.567C128.966 12.3827 131.944 10.0196 135.454 10.0196Z" fill="#E94235"/>
</g>
</g>
</g>
</g>
</svg>
