<svg width="122" height="21" viewBox="0 0 122 21" fill="none" xmlns="http://www.w3.org/2000/svg">
<g id="et_pay_with_Pay_NBG">
<path id="Left Text" d="M2.071 15.0006V3.54461H4.439L7.783 12.2646H7.879L11.239 3.54461H13.607V15.0006H11.879V8.52061L11.975 6.48861H11.879L8.535 15.0006H7.143L3.799 6.48861H3.703L3.799 8.52061V15.0006H2.071ZM18.3836 15.2566C17.797 15.2566 17.2743 15.1393 16.8156 14.9046C16.3676 14.6699 16.0103 14.3499 15.7436 13.9446C15.4876 13.5286 15.3596 13.0539 15.3596 12.5206C15.3596 11.9339 15.509 11.4379 15.8076 11.0326C16.117 10.6273 16.5276 10.3179 17.0396 10.1046C17.5516 9.89128 18.117 9.78461 18.7356 9.78461C19.077 9.78461 19.3916 9.81128 19.6796 9.86461C19.9783 9.90728 20.2343 9.96061 20.4476 10.0246C20.6716 10.0886 20.8476 10.1579 20.9756 10.2326V9.80061C20.9756 9.26728 20.7836 8.84061 20.3996 8.52061C20.0156 8.20061 19.5196 8.04061 18.9116 8.04061C18.4956 8.04061 18.101 8.13661 17.7276 8.32861C17.3543 8.50994 17.0556 8.76061 16.8316 9.08061L15.6476 8.16861C15.8823 7.83794 16.165 7.55528 16.4956 7.32061C16.837 7.08594 17.2156 6.90461 17.6316 6.77661C18.0583 6.64861 18.501 6.58461 18.9596 6.58461C20.1436 6.58461 21.0556 6.87794 21.6956 7.46461C22.3356 8.04061 22.6556 8.85128 22.6556 9.89661V15.0006H20.9756V13.9926H20.8796C20.741 14.2059 20.549 14.4086 20.3036 14.6006C20.069 14.7926 19.7863 14.9473 19.4556 15.0646C19.1356 15.1926 18.7783 15.2566 18.3836 15.2566ZM18.6876 13.8486C19.1356 13.8486 19.5303 13.7419 19.8716 13.5286C20.2236 13.3153 20.4956 13.0379 20.6876 12.6966C20.8796 12.3446 20.9756 11.9659 20.9756 11.5606C20.741 11.4219 20.453 11.3099 20.1116 11.2246C19.781 11.1286 19.429 11.0806 19.0556 11.0806C18.3516 11.0806 17.8503 11.2193 17.5516 11.4966C17.253 11.7739 17.1036 12.1206 17.1036 12.5366C17.1036 12.9206 17.2476 13.2353 17.5356 13.4806C17.8236 13.7259 18.2076 13.8486 18.6876 13.8486ZM24.708 15.0006V3.54461H26.436V10.2966L29.892 6.84061H32.036V6.93661L28.884 10.0566L32.148 14.9046V15.0006H30.1L27.668 11.2566L26.436 12.4726V15.0006H24.708ZM36.1934 15.2566C35.5427 15.2566 34.9774 15.1606 34.4974 14.9686C34.0174 14.7659 33.6227 14.4993 33.3134 14.1686C33.004 13.8273 32.7747 13.4593 32.6254 13.0646L34.1774 12.3926C34.3694 12.8299 34.6414 13.1659 34.9934 13.4006C35.356 13.6246 35.772 13.7366 36.2414 13.7366C36.668 13.7366 37.036 13.6619 37.3454 13.5126C37.6547 13.3526 37.8094 13.0966 37.8094 12.7446C37.8094 12.5206 37.7347 12.3393 37.5854 12.2006C37.4467 12.0513 37.2547 11.9286 37.0094 11.8326C36.7747 11.7366 36.5027 11.6513 36.1934 11.5766L35.2174 11.3526C34.8334 11.2566 34.4654 11.1073 34.1134 10.9046C33.772 10.6913 33.4947 10.4246 33.2814 10.1046C33.068 9.78461 32.9614 9.40594 32.9614 8.96861C32.9614 8.47794 33.1 8.05661 33.3774 7.70461C33.6654 7.34194 34.0494 7.06461 34.5294 6.87261C35.0094 6.68061 35.5267 6.58461 36.0814 6.58461C36.5934 6.58461 37.0574 6.65394 37.4734 6.79261C37.9 6.92061 38.268 7.11794 38.5774 7.38461C38.8974 7.64061 39.148 7.96061 39.3294 8.34461L37.8414 9.01661C37.66 8.65394 37.4147 8.40328 37.1054 8.26461C36.796 8.11528 36.46 8.04061 36.0974 8.04061C35.692 8.04061 35.3507 8.12594 35.0734 8.29661C34.8067 8.45661 34.6734 8.66994 34.6734 8.93661C34.6734 9.21394 34.7907 9.43261 35.0254 9.59261C35.2707 9.75261 35.5694 9.88061 35.9214 9.97661L37.1054 10.2646C37.916 10.4673 38.524 10.7766 38.9294 11.1926C39.3347 11.5979 39.5374 12.0939 39.5374 12.6806C39.5374 13.2033 39.388 13.6619 39.0894 14.0566C38.7907 14.4406 38.3854 14.7393 37.8734 14.9526C37.372 15.1553 36.812 15.2566 36.1934 15.2566ZM43.8336 15.2566C43.247 15.2566 42.7243 15.1393 42.2656 14.9046C41.8176 14.6699 41.4603 14.3499 41.1936 13.9446C40.9376 13.5286 40.8096 13.0539 40.8096 12.5206C40.8096 11.9339 40.959 11.4379 41.2576 11.0326C41.567 10.6273 41.9776 10.3179 42.4896 10.1046C43.0016 9.89128 43.567 9.78461 44.1856 9.78461C44.527 9.78461 44.8416 9.81128 45.1296 9.86461C45.4283 9.90728 45.6843 9.96061 45.8976 10.0246C46.1216 10.0886 46.2976 10.1579 46.4256 10.2326V9.80061C46.4256 9.26728 46.2336 8.84061 45.8496 8.52061C45.4656 8.20061 44.9696 8.04061 44.3616 8.04061C43.9456 8.04061 43.551 8.13661 43.1776 8.32861C42.8043 8.50994 42.5056 8.76061 42.2816 9.08061L41.0976 8.16861C41.3323 7.83794 41.615 7.55528 41.9456 7.32061C42.287 7.08594 42.6656 6.90461 43.0816 6.77661C43.5083 6.64861 43.951 6.58461 44.4096 6.58461C45.5936 6.58461 46.5056 6.87794 47.1456 7.46461C47.7856 8.04061 48.1056 8.85128 48.1056 9.89661V15.0006H46.4256V13.9926H46.3296C46.191 14.2059 45.999 14.4086 45.7536 14.6006C45.519 14.7926 45.2363 14.9473 44.9056 15.0646C44.5856 15.1926 44.2283 15.2566 43.8336 15.2566ZM44.1376 13.8486C44.5856 13.8486 44.9803 13.7419 45.3216 13.5286C45.6736 13.3153 45.9456 13.0379 46.1376 12.6966C46.3296 12.3446 46.4256 11.9659 46.4256 11.5606C46.191 11.4219 45.903 11.3099 45.5616 11.2246C45.231 11.1286 44.879 11.0806 44.5056 11.0806C43.8016 11.0806 43.3003 11.2193 43.0016 11.4966C42.703 11.7739 42.5536 12.1206 42.5536 12.5366C42.5536 12.9206 42.6976 13.2353 42.9856 13.4806C43.2736 13.7259 43.6576 13.8486 44.1376 13.8486Z" fill="white"/>
<g id="GPay (Dark)">
<g id="GPay">
<g id="Pay">
<path id="Fill 1" fill-rule="evenodd" clip-rule="evenodd" d="M77.3563 3.42339V8.16175H80.2784C80.9745 8.16175 81.5501 7.92781 82.0055 7.45993C82.4728 6.99313 82.707 6.43644 82.707 5.79203C82.707 5.16061 82.4728 4.61041 82.0055 4.14254C81.5501 3.66274 80.9745 3.4223 80.2784 3.4223H77.3563V3.42339ZM77.3563 9.82966V15.3262H75.6107V1.75549H80.2404C81.4169 1.75549 82.4154 2.14756 83.2383 2.93061C84.0732 3.71365 84.4906 4.66782 84.4906 5.79203C84.4906 6.94224 84.0731 7.90291 83.2383 8.67296C82.4283 9.44409 81.4287 9.82858 80.2404 9.82858H77.3563V9.82966Z" fill="white"/>
<path id="Fill 3" fill-rule="evenodd" clip-rule="evenodd" d="M86.2546 12.4831C86.2546 12.9379 86.4476 13.317 86.8337 13.6203C87.2195 13.9235 87.6717 14.0752 88.19 14.0752C88.9239 14.0752 89.5777 13.8032 90.1535 13.2607C90.7293 12.717 91.0165 12.0791 91.0165 11.3469C90.4722 10.917 89.7133 10.7025 88.7396 10.7025C88.0306 10.7025 87.4397 10.8736 86.9659 11.2148C86.492 11.5559 86.2546 11.9773 86.2546 12.4831M88.513 5.73566C89.8033 5.73566 90.8214 6.08007 91.5685 6.76889C92.3145 7.45771 92.6873 8.40213 92.6873 9.60216V15.3261H91.0177V14.0373H90.9417C90.2207 15.0985 89.259 15.6294 88.0578 15.6294C87.0332 15.6294 86.1755 15.3261 85.4869 14.7196C84.7975 14.1131 84.4527 13.3549 84.4527 12.4452C84.4527 11.4845 84.8158 10.7208 85.5433 10.1523C86.2708 9.58375 87.2413 9.2989 88.4557 9.2989C89.4921 9.2989 90.3465 9.48844 91.0165 9.86751V9.46894C91.0165 8.86243 90.7758 8.34798 90.2956 7.92451C89.8141 7.50103 89.2525 7.28984 88.6074 7.28984C87.6326 7.28984 86.8618 7.70032 86.2926 8.52235L84.7551 7.55519C85.6029 6.34217 86.8552 5.73566 88.513 5.73566" fill="white"/>
<path id="Fill 5" fill-rule="evenodd" clip-rule="evenodd" d="M102.269 6.03894L96.4432 19.4201H94.6411L96.8043 14.738L92.9714 6.03894H94.8688L97.639 12.7106H97.677L100.371 6.03894H102.269Z" fill="white"/>
</g>
<g id="G">
<path id="Fill 8" fill-rule="evenodd" clip-rule="evenodd" d="M70.3029 8.64473C70.3029 8.09563 70.2562 7.56601 70.1684 7.05914H62.8065V10.0625H67.0231C66.842 11.0414 66.2944 11.8744 65.4639 12.4322V14.3828H67.9804C69.4539 13.0246 70.3029 11.0177 70.3029 8.64473" fill="#4285F4"/>
<path id="Fill 10" fill-rule="evenodd" clip-rule="evenodd" d="M62.8065 16.2651C64.9131 16.2651 66.6869 15.5741 67.9804 14.3828L65.4639 12.4322C64.7635 12.9033 63.8614 13.1784 62.8065 13.1784C60.7703 13.1784 59.042 11.8073 58.424 9.95959H55.8316V11.9687C57.1164 14.516 59.7565 16.2651 62.8065 16.2651" fill="#34A853"/>
<path id="Fill 12" fill-rule="evenodd" clip-rule="evenodd" d="M58.424 9.9596C58.2657 9.48847 58.179 8.98593 58.179 8.46715C58.179 7.94837 58.2657 7.44583 58.424 6.9747V4.96564H55.8316C55.3003 6.01837 55 7.20756 55 8.46715C55 9.72674 55.3003 10.916 55.8316 11.9687L58.424 9.9596Z" fill="#FABB05"/>
<path id="Fill 14" fill-rule="evenodd" clip-rule="evenodd" d="M62.8065 3.75583C63.9568 3.75583 64.9879 4.15115 65.8011 4.92553V4.92661L68.0292 2.70094C66.6761 1.44243 64.912 0.669128 62.8065 0.669128C59.7565 0.669128 57.1164 2.41826 55.8316 4.9656L58.424 6.97467C59.042 5.12698 60.7703 3.75583 62.8065 3.75583" fill="#E94235"/>
</g>
</g>
</g>
<path id="Right Text" d="M107.338 18.7126C106.623 18.7126 106.005 18.5953 105.482 18.3606C104.97 18.1366 104.554 17.8433 104.234 17.4806C103.914 17.1286 103.685 16.7659 103.546 16.3926L105.146 15.7206C105.317 16.1473 105.589 16.4939 105.962 16.7606C106.346 17.0379 106.805 17.1766 107.338 17.1766C108.095 17.1766 108.687 16.9526 109.114 16.5046C109.541 16.0566 109.754 15.4219 109.754 14.6006V13.8166H109.658C109.402 14.1899 109.05 14.4939 108.602 14.7286C108.154 14.9633 107.637 15.0806 107.05 15.0806C106.357 15.0806 105.717 14.9046 105.13 14.5526C104.554 14.2006 104.09 13.7099 103.738 13.0806C103.397 12.4406 103.226 11.6939 103.226 10.8406C103.226 9.97661 103.397 9.22994 103.738 8.60061C104.09 7.96061 104.554 7.46461 105.13 7.11261C105.717 6.76061 106.357 6.58461 107.05 6.58461C107.637 6.58461 108.154 6.70194 108.602 6.93661C109.05 7.16061 109.402 7.46994 109.658 7.86461H109.754V6.84061H111.402V14.5686C111.402 15.4539 111.226 16.2059 110.874 16.8246C110.533 17.4433 110.058 17.9126 109.45 18.2326C108.842 18.5526 108.138 18.7126 107.338 18.7126ZM107.354 13.5126C107.781 13.5126 108.175 13.4113 108.538 13.2086C108.911 12.9953 109.205 12.6913 109.418 12.2966C109.642 11.8913 109.754 11.4059 109.754 10.8406C109.754 10.2433 109.642 9.74728 109.418 9.35261C109.205 8.95794 108.911 8.65928 108.538 8.45661C108.175 8.25394 107.781 8.15261 107.354 8.15261C106.927 8.15261 106.527 8.25394 106.154 8.45661C105.791 8.65928 105.498 8.96328 105.274 9.36861C105.05 9.76328 104.938 10.2539 104.938 10.8406C104.938 11.4166 105.05 11.9073 105.274 12.3126C105.498 12.7073 105.791 13.0059 106.154 13.2086C106.527 13.4113 106.927 13.5126 107.354 13.5126ZM116.055 15.2566C115.469 15.2566 114.946 15.1393 114.487 14.9046C114.039 14.6699 113.682 14.3499 113.415 13.9446C113.159 13.5286 113.031 13.0539 113.031 12.5206C113.031 11.9339 113.181 11.4379 113.479 11.0326C113.789 10.6273 114.199 10.3179 114.711 10.1046C115.223 9.89128 115.789 9.78461 116.407 9.78461C116.749 9.78461 117.063 9.81128 117.351 9.86461C117.65 9.90728 117.906 9.96061 118.119 10.0246C118.343 10.0886 118.519 10.1579 118.647 10.2326V9.80061C118.647 9.26728 118.455 8.84061 118.071 8.52061C117.687 8.20061 117.191 8.04061 116.583 8.04061C116.167 8.04061 115.773 8.13661 115.399 8.32861C115.026 8.50994 114.727 8.76061 114.503 9.08061L113.319 8.16861C113.554 7.83794 113.837 7.55528 114.167 7.32061C114.509 7.08594 114.887 6.90461 115.303 6.77661C115.73 6.64861 116.173 6.58461 116.631 6.58461C117.815 6.58461 118.727 6.87794 119.367 7.46461C120.007 8.04061 120.327 8.85128 120.327 9.89661V15.0006H118.647V13.9926H118.551C118.413 14.2059 118.221 14.4086 117.975 14.6006C117.741 14.7926 117.458 14.9473 117.127 15.0646C116.807 15.1926 116.45 15.2566 116.055 15.2566ZM116.359 13.8486C116.807 13.8486 117.202 13.7419 117.543 13.5286C117.895 13.3153 118.167 13.0379 118.359 12.6966C118.551 12.3446 118.647 11.9659 118.647 11.5606C118.413 11.4219 118.125 11.3099 117.783 11.2246C117.453 11.1286 117.101 11.0806 116.727 11.0806C116.023 11.0806 115.522 11.2193 115.223 11.4966C114.925 11.7739 114.775 12.1206 114.775 12.5366C114.775 12.9206 114.919 13.2353 115.207 13.4806C115.495 13.7259 115.879 13.8486 116.359 13.8486Z" fill="white"/>
</g>
</svg>
