<svg width="220" height="38" viewBox="0 0 220 38" fill="none" xmlns="http://www.w3.org/2000/svg">
<g id="et_pay_with_Light">
<path id="Text" d="M3.96878 30V9.952H8.11278L13.9648 25.212H14.1328L20.0128 9.952H24.1568V30H21.1328V18.66L21.3008 15.104H21.1328L15.2808 30H12.8448L6.99278 15.104H6.82478L6.99278 18.66V30H3.96878ZM32.5534 30.448C31.5267 30.448 30.612 30.252 29.8094 29.86C29.0067 29.4493 28.3814 28.88 27.9334 28.152C27.4854 27.424 27.2614 26.5933 27.2614 25.66C27.2614 24.652 27.5227 23.7933 28.0454 23.084C28.5867 22.356 29.3054 21.8053 30.2014 21.432C31.0974 21.0587 32.0867 20.872 33.1694 20.872C34.0654 20.872 34.8494 20.956 35.5214 21.124C36.212 21.292 36.7347 21.4693 37.0894 21.656V20.9C37.0894 19.9667 36.7534 19.22 36.0814 18.66C35.4094 18.1 34.5414 17.82 33.4774 17.82C32.7494 17.82 32.0587 17.988 31.4054 18.324C30.752 18.6413 30.2294 19.08 29.8374 19.64L27.7654 18.044C28.3814 17.1853 29.1934 16.5133 30.2014 16.028C31.228 15.524 32.348 15.272 33.5614 15.272C35.6334 15.272 37.2294 15.7853 38.3494 16.812C39.4694 17.82 40.0294 19.2387 40.0294 21.068V30H37.0894V28.236H36.9214C36.548 28.8147 35.988 29.328 35.2414 29.776C34.4947 30.224 33.5987 30.448 32.5534 30.448ZM33.0854 27.984C33.8694 27.984 34.56 27.7973 35.1574 27.424C35.7547 27.0507 36.2214 26.5653 36.5574 25.968C36.912 25.352 37.0894 24.6893 37.0894 23.98C36.66 23.7373 36.156 23.5413 35.5774 23.392C34.9987 23.224 34.3827 23.14 33.7294 23.14C32.4974 23.14 31.62 23.392 31.0974 23.896C30.5747 24.3813 30.3134 24.9787 30.3134 25.688C30.3134 26.36 30.5654 26.9107 31.0694 27.34C31.5734 27.7693 32.2454 27.984 33.0854 27.984ZM43.6585 30V9.952H46.6825V21.768L52.7305 15.72H56.4825V15.888L50.9665 21.348L56.6785 29.832V30H53.0945L48.8385 23.448L46.6825 25.576V30H43.6585ZM63.7954 30.448C62.0781 30.448 60.7061 30.0747 59.6794 29.328C58.6528 28.5627 57.9434 27.6573 57.5514 26.612L60.2674 25.436C60.6034 26.2013 61.0888 26.7893 61.7234 27.2C62.3581 27.592 63.0768 27.788 63.8794 27.788C64.6261 27.788 65.2701 27.6573 65.8114 27.396C66.3528 27.116 66.6234 26.668 66.6234 26.052C66.6234 25.4547 66.3528 25.016 65.8114 24.736C65.2701 24.456 64.5981 24.2133 63.7954 24.008L62.0874 23.616C61.3968 23.448 60.7528 23.1867 60.1554 22.832C59.5581 22.4773 59.0728 22.02 58.6994 21.46C58.3261 20.8813 58.1394 20.2093 58.1394 19.444C58.1394 18.604 58.3914 17.876 58.8954 17.26C59.3994 16.6253 60.0621 16.14 60.8834 15.804C61.7234 15.4493 62.6288 15.272 63.5994 15.272C64.9248 15.272 66.0821 15.5333 67.0714 16.056C68.0794 16.56 68.8168 17.3253 69.2834 18.352L66.6794 19.528C66.3434 18.8933 65.9048 18.4547 65.3634 18.212C64.8408 17.9507 64.2621 17.82 63.6274 17.82C62.9181 17.82 62.3208 17.9693 61.8354 18.268C61.3688 18.5667 61.1354 18.94 61.1354 19.388C61.1354 19.8733 61.3408 20.256 61.7514 20.536C62.1808 20.816 62.7034 21.04 63.3194 21.208L65.3914 21.712C66.8101 22.0667 67.8741 22.608 68.5834 23.336C69.2928 24.0453 69.6474 24.9133 69.6474 25.94C69.6474 26.8547 69.3861 27.6573 68.8634 28.348C68.3408 29.02 67.6314 29.5427 66.7354 29.916C65.8581 30.2707 64.8781 30.448 63.7954 30.448ZM72.5867 30V9.952H75.6107V21.768L81.6587 15.72H85.4107V15.888L79.8947 21.348L85.6067 29.832V30H82.0227L77.7667 23.448L75.6107 25.576V30H72.5867ZM93.9028 30.448C92.5028 30.448 91.2522 30.1213 90.1508 29.468C89.0495 28.8147 88.1815 27.9187 87.5468 26.78C86.9308 25.6413 86.6228 24.344 86.6228 22.888C86.6228 21.5253 86.9215 20.2653 87.5188 19.108C88.1162 17.9507 88.9468 17.0267 90.0108 16.336C91.0935 15.6267 92.3348 15.272 93.7348 15.272C95.2095 15.272 96.4602 15.5893 97.4868 16.224C98.5322 16.8587 99.3255 17.7267 99.8668 18.828C100.408 19.9293 100.679 21.1707 100.679 22.552C100.679 22.7573 100.67 22.944 100.651 23.112C100.651 23.28 100.642 23.4107 100.623 23.504H89.5908C89.7402 24.9227 90.2348 25.9867 91.0748 26.696C91.9335 27.4053 92.9042 27.76 93.9868 27.76C94.9575 27.76 95.7602 27.5453 96.3948 27.116C97.0295 26.668 97.5335 26.1173 97.9068 25.464L100.399 26.668C99.7828 27.788 98.9428 28.7027 97.8788 29.412C96.8148 30.1027 95.4895 30.448 93.9028 30.448ZM93.7628 17.848C92.7548 17.848 91.8962 18.156 91.1868 18.772C90.4775 19.388 90.0015 20.2093 89.7588 21.236H97.6828C97.6455 20.7507 97.4868 20.2467 97.2068 19.724C96.9268 19.2013 96.4975 18.7627 95.9188 18.408C95.3588 18.0347 94.6402 17.848 93.7628 17.848ZM110.591 22.608V20.032H124.255V22.608H110.591Z" fill="#3C4043"/>
<g id="GPay Logo (Light)">
<g id="GPay">
<g id="Pay">
<path id="Fill 1" fill-rule="evenodd" clip-rule="evenodd" d="M176.529 9.44664V17.6128H181.565C182.765 17.6128 183.757 17.2096 184.541 16.4032C185.347 15.5988 185.75 14.6394 185.75 13.5288C185.75 12.4406 185.347 11.4924 184.541 10.686C183.757 9.85915 182.765 9.44478 181.565 9.44478H176.529V9.44664ZM176.529 20.4872V29.9599H173.521V6.57217H181.499C183.527 6.57217 185.248 7.24786 186.666 8.59737C188.105 9.94688 188.824 11.5913 188.824 13.5288C188.824 15.511 188.105 17.1667 186.666 18.4938C185.27 19.8227 183.547 20.4854 181.499 20.4854H176.529V20.4872Z" fill="#5F6368"/>
<path id="Fill 3" fill-rule="evenodd" clip-rule="evenodd" d="M191.864 25.0602C191.864 25.8442 192.197 26.4975 192.862 27.0201C193.527 27.5427 194.306 27.804 195.2 27.804C196.465 27.804 197.591 27.3354 198.584 26.4004C199.576 25.4634 200.071 24.364 200.071 23.1022C199.133 22.3612 197.825 21.9916 196.147 21.9916C194.925 21.9916 193.907 22.2865 193.09 22.8745C192.273 23.4623 191.864 24.1886 191.864 25.0602ZM195.756 13.4317C197.98 13.4317 199.735 14.0252 201.022 15.2124C202.308 16.3995 202.95 18.0271 202.95 20.0952V29.9599H200.073V27.7387H199.942C198.699 29.5677 197.042 30.4825 194.972 30.4825C193.206 30.4825 191.728 29.9599 190.541 28.9146C189.353 27.8694 188.759 26.5628 188.759 24.9949C188.759 23.3393 189.385 22.0232 190.638 21.0434C191.892 20.0635 193.565 19.5726 195.658 19.5726C197.444 19.5726 198.916 19.8992 200.071 20.5525V19.8656C200.071 18.8204 199.656 17.9338 198.829 17.204C197.999 16.4741 197.031 16.1102 195.919 16.1102C194.239 16.1102 192.911 16.8176 191.93 18.2343L189.28 16.5675C190.741 14.4769 192.899 13.4317 195.756 13.4317Z" fill="#5F6368"/>
<path id="Fill 5" fill-rule="evenodd" clip-rule="evenodd" d="M219.463 13.9543L209.424 37.0154H206.318L210.046 28.9464L203.44 13.9543H206.71L211.484 25.4522H211.55L216.193 13.9543H219.463Z" fill="#5F6368"/>
</g>
<g id="G">
<path id="Fill 8" fill-rule="evenodd" clip-rule="evenodd" d="M164.373 18.4452C164.373 17.4989 164.293 16.5861 164.141 15.7126H151.454V20.8885H158.72C158.408 22.5757 157.465 24.0112 156.033 24.9725V28.3341H160.37C162.91 25.9935 164.373 22.5348 164.373 18.4452Z" fill="#4285F4"/>
<path id="Fill 10" fill-rule="evenodd" clip-rule="evenodd" d="M151.454 31.5782C155.084 31.5782 158.141 30.3873 160.37 28.3341L156.033 24.9725C154.826 25.7844 153.272 26.2585 151.454 26.2585C147.944 26.2585 144.966 23.8955 143.901 20.7112H139.433V24.1736C141.647 28.5637 146.197 31.5782 151.454 31.5782Z" fill="#34A853"/>
<path id="Fill 12" fill-rule="evenodd" clip-rule="evenodd" d="M143.901 20.7111C143.628 19.8992 143.479 19.0331 143.479 18.139C143.479 17.245 143.628 16.3789 143.901 15.567V12.1045H139.433C138.518 13.9188 138 15.9683 138 18.139C138 20.3098 138.518 22.3595 139.433 24.1736L143.901 20.7111Z" fill="#FABB05"/>
<path id="Fill 14" fill-rule="evenodd" clip-rule="evenodd" d="M151.454 10.0196C153.436 10.0196 155.213 10.7009 156.615 12.0355V12.0374L160.455 8.20162C158.123 6.03271 155.082 4.7 151.454 4.7C146.197 4.7 141.647 7.71446 139.433 12.1046L143.901 15.567C144.966 12.3827 147.944 10.0196 151.454 10.0196Z" fill="#E94235"/>
</g>
</g>
</g>
</g>
</svg>
