<svg width="232" height="38" viewBox="0 0 232 38" fill="none" xmlns="http://www.w3.org/2000/svg">
<g id="et_view_in_Dark">
<path id="Text" d="M9.11963 30L2.00763 9.952H5.36763L9.90363 23.28L10.6036 25.548H10.7716L11.5276 23.28L16.2596 9.952H19.6196L12.3116 30H9.11963ZM25.1674 30.448C24.1408 30.448 23.2261 30.252 22.4234 29.86C21.6208 29.4493 20.9954 28.88 20.5474 28.152C20.0994 27.424 19.8754 26.5933 19.8754 25.66C19.8754 24.652 20.1368 23.7933 20.6594 23.084C21.2008 22.356 21.9194 21.8053 22.8154 21.432C23.7114 21.0587 24.7008 20.872 25.7834 20.872C26.6794 20.872 27.4634 20.956 28.1354 21.124C28.8261 21.292 29.3488 21.4693 29.7034 21.656V20.9C29.7034 19.9667 29.3674 19.22 28.6954 18.66C28.0234 18.1 27.1554 17.82 26.0914 17.82C25.3634 17.82 24.6728 17.988 24.0194 18.324C23.3661 18.6413 22.8434 19.08 22.4514 19.64L20.3794 18.044C20.9954 17.1853 21.8074 16.5133 22.8154 16.028C23.8421 15.524 24.9621 15.272 26.1754 15.272C28.2474 15.272 29.8434 15.7853 30.9634 16.812C32.0834 17.82 32.6434 19.2387 32.6434 21.068V30H29.7034V28.236H29.5354C29.1621 28.8147 28.6021 29.328 27.8554 29.776C27.1088 30.224 26.2128 30.448 25.1674 30.448ZM25.6994 27.984C26.4834 27.984 27.1741 27.7973 27.7714 27.424C28.3688 27.0507 28.8354 26.5653 29.1714 25.968C29.5261 25.352 29.7034 24.6893 29.7034 23.98C29.2741 23.7373 28.7701 23.5413 28.1914 23.392C27.6128 23.224 26.9968 23.14 26.3434 23.14C25.1114 23.14 24.2341 23.392 23.7114 23.896C23.1888 24.3813 22.9274 24.9787 22.9274 25.688C22.9274 26.36 23.1794 26.9107 23.6834 27.34C24.1874 27.7693 24.8594 27.984 25.6994 27.984ZM40.6159 30.448C39.5892 30.448 38.6745 30.252 37.8719 29.86C37.0692 29.4493 36.4439 28.88 35.9959 28.152C35.5479 27.424 35.3239 26.5933 35.3239 25.66C35.3239 24.652 35.5852 23.7933 36.1079 23.084C36.6492 22.356 37.3679 21.8053 38.2639 21.432C39.1599 21.0587 40.1492 20.872 41.2319 20.872C42.1279 20.872 42.9119 20.956 43.5839 21.124C44.2745 21.292 44.7972 21.4693 45.1519 21.656V20.9C45.1519 19.9667 44.8159 19.22 44.1439 18.66C43.4719 18.1 42.6039 17.82 41.5399 17.82C40.8119 17.82 40.1212 17.988 39.4679 18.324C38.8145 18.6413 38.2919 19.08 37.8999 19.64L35.8279 18.044C36.4439 17.1853 37.2559 16.5133 38.2639 16.028C39.2905 15.524 40.4105 15.272 41.6239 15.272C43.6959 15.272 45.2919 15.7853 46.4119 16.812C47.5319 17.82 48.0919 19.2387 48.0919 21.068V30H45.1519V28.236H44.9839C44.6105 28.8147 44.0505 29.328 43.3039 29.776C42.5572 30.224 41.6612 30.448 40.6159 30.448ZM41.1479 27.984C41.9319 27.984 42.6225 27.7973 43.2199 27.424C43.8172 27.0507 44.2839 26.5653 44.6199 25.968C44.9745 25.352 45.1519 24.6893 45.1519 23.98C44.7225 23.7373 44.2185 23.5413 43.6399 23.392C43.0612 23.224 42.4452 23.14 41.7919 23.14C40.5599 23.14 39.6825 23.392 39.1599 23.896C38.6372 24.3813 38.3759 24.9787 38.3759 25.688C38.3759 26.36 38.6279 26.9107 39.1319 27.34C39.6359 27.7693 40.3079 27.984 41.1479 27.984ZM57.6883 30.448C56.4003 30.448 55.2337 30.1307 54.1883 29.496C53.1617 28.8427 52.3403 27.9467 51.7243 26.808C51.127 25.6507 50.8283 24.3347 50.8283 22.86C50.8283 21.3853 51.127 20.0787 51.7243 18.94C52.3403 17.8013 53.1617 16.9053 54.1883 16.252C55.2337 15.5987 56.4003 15.272 57.6883 15.272C58.7897 15.272 59.7323 15.5147 60.5163 16C61.319 16.4853 61.907 17.036 62.2803 17.652H62.4483L62.2803 15.664V9.952H65.2763V30H62.4483V28.096H62.2803C61.907 28.712 61.319 29.2627 60.5163 29.748C59.7323 30.2147 58.7897 30.448 57.6883 30.448ZM58.1363 27.676C58.883 27.676 59.583 27.48 60.2363 27.088C60.9083 26.696 61.4403 26.1453 61.8323 25.436C62.243 24.708 62.4483 23.8493 62.4483 22.86C62.4483 21.8707 62.243 21.0213 61.8323 20.312C61.4403 19.584 60.9083 19.024 60.2363 18.632C59.583 18.24 58.883 18.044 58.1363 18.044C57.3897 18.044 56.6897 18.24 56.0363 18.632C55.383 19.024 54.851 19.584 54.4403 20.312C54.0297 21.0213 53.8243 21.8707 53.8243 22.86C53.8243 23.8493 54.0297 24.708 54.4403 25.436C54.851 26.1453 55.383 26.696 56.0363 27.088C56.6897 27.48 57.3897 27.676 58.1363 27.676ZM73.4815 30.448C72.4548 30.448 71.5402 30.252 70.7375 29.86C69.9348 29.4493 69.3095 28.88 68.8615 28.152C68.4135 27.424 68.1895 26.5933 68.1895 25.66C68.1895 24.652 68.4508 23.7933 68.9735 23.084C69.5148 22.356 70.2335 21.8053 71.1295 21.432C72.0255 21.0587 73.0148 20.872 74.0975 20.872C74.9935 20.872 75.7775 20.956 76.4495 21.124C77.1402 21.292 77.6628 21.4693 78.0175 21.656V20.9C78.0175 19.9667 77.6815 19.22 77.0095 18.66C76.3375 18.1 75.4695 17.82 74.4055 17.82C73.6775 17.82 72.9868 17.988 72.3335 18.324C71.6802 18.6413 71.1575 19.08 70.7655 19.64L68.6935 18.044C69.3095 17.1853 70.1215 16.5133 71.1295 16.028C72.1562 15.524 73.2762 15.272 74.4895 15.272C76.5615 15.272 78.1575 15.7853 79.2775 16.812C80.3975 17.82 80.9575 19.2387 80.9575 21.068V30H78.0175V28.236H77.8495C77.4762 28.8147 76.9162 29.328 76.1695 29.776C75.4228 30.224 74.5268 30.448 73.4815 30.448ZM74.0135 27.984C74.7975 27.984 75.4882 27.7973 76.0855 27.424C76.6828 27.0507 77.1495 26.5653 77.4855 25.968C77.8402 25.352 78.0175 24.6893 78.0175 23.98C77.5882 23.7373 77.0842 23.5413 76.5055 23.392C75.9268 23.224 75.3108 23.14 74.6575 23.14C73.4255 23.14 72.5482 23.392 72.0255 23.896C71.5028 24.3813 71.2415 24.9787 71.2415 25.688C71.2415 26.36 71.4935 26.9107 71.9975 27.34C72.5015 27.7693 73.1735 27.984 74.0135 27.984ZM84.5867 30V9.952H87.6107V21.768L93.6587 15.72H97.4107V15.888L91.8947 21.348L97.6067 29.832V30H94.0227L89.7667 23.448L87.6107 25.576V30H84.5867ZM105.903 30.448C104.503 30.448 103.252 30.1213 102.151 29.468C101.05 28.8147 100.182 27.9187 99.5469 26.78C98.9309 25.6413 98.6229 24.344 98.6229 22.888C98.6229 21.5253 98.9215 20.2653 99.5189 19.108C100.116 17.9507 100.947 17.0267 102.011 16.336C103.094 15.6267 104.335 15.272 105.735 15.272C107.21 15.272 108.46 15.5893 109.487 16.224C110.532 16.8587 111.326 17.7267 111.867 18.828C112.408 19.9293 112.679 21.1707 112.679 22.552C112.679 22.7573 112.67 22.944 112.651 23.112C112.651 23.28 112.642 23.4107 112.623 23.504H101.591C101.74 24.9227 102.235 25.9867 103.075 26.696C103.934 27.4053 104.904 27.76 105.987 27.76C106.958 27.76 107.76 27.5453 108.395 27.116C109.03 26.668 109.534 26.1173 109.907 25.464L112.399 26.668C111.783 27.788 110.943 28.7027 109.879 29.412C108.815 30.1027 107.49 30.448 105.903 30.448ZM105.763 17.848C104.755 17.848 103.896 18.156 103.187 18.772C102.478 19.388 102.002 20.2093 101.759 21.236H109.683C109.646 20.7507 109.487 20.2467 109.207 19.724C108.927 19.2013 108.498 18.7627 107.919 18.408C107.359 18.0347 106.64 17.848 105.763 17.848ZM122.591 22.608V20.032H136.255V22.608H122.591Z" fill="white"/>
<g id="GPay Logo (Dark)">
<g id="GPay">
<g id="Pay">
<path id="Fill 1" fill-rule="evenodd" clip-rule="evenodd" d="M188.529 9.34665V17.5128H193.565C194.765 17.5128 195.757 17.1096 196.541 16.3032C197.347 15.4988 197.75 14.5394 197.75 13.4288C197.75 12.3406 197.347 11.3924 196.541 10.586C195.757 9.75916 194.765 9.34479 193.565 9.34479H188.529V9.34665ZM188.529 20.3872V29.8599H185.521V6.47218H193.499C195.527 6.47218 197.248 7.14787 198.666 8.49738C200.105 9.84688 200.824 11.4913 200.824 13.4288C200.824 15.411 200.105 17.0667 198.666 18.3938C197.27 19.7227 195.547 20.3854 193.499 20.3854H188.529V20.3872Z" fill="white"/>
<path id="Fill 3" fill-rule="evenodd" clip-rule="evenodd" d="M203.864 24.9602C203.864 25.7442 204.197 26.3975 204.862 26.9201C205.527 27.4427 206.306 27.704 207.2 27.704C208.465 27.704 209.591 27.2354 210.584 26.3004C211.576 25.3634 212.071 24.264 212.071 23.0022C211.133 22.2612 209.825 21.8916 208.147 21.8916C206.925 21.8916 205.907 22.1866 205.09 22.7745C204.273 23.3623 203.864 24.0886 203.864 24.9602ZM207.756 13.3317C209.98 13.3317 211.735 13.9253 213.022 15.1124C214.308 16.2995 214.95 17.9271 214.95 19.9952V29.8599H212.073V27.6387H211.942C210.699 29.4677 209.042 30.3825 206.972 30.3825C205.206 30.3825 203.728 29.8599 202.541 28.8146C201.353 27.7694 200.759 26.4628 200.759 24.8949C200.759 23.2393 201.385 21.9232 202.638 20.9434C203.892 19.9635 205.565 19.4726 207.658 19.4726C209.444 19.4726 210.916 19.7993 212.071 20.4525V19.7657C212.071 18.7204 211.656 17.8338 210.829 17.104C209.999 16.3742 209.031 16.0102 207.919 16.0102C206.239 16.0102 204.911 16.7176 203.93 18.1343L201.28 16.4675C202.741 14.377 204.899 13.3317 207.756 13.3317Z" fill="white"/>
<path id="Fill 5" fill-rule="evenodd" clip-rule="evenodd" d="M231.463 13.8543L221.424 36.9154H218.318L222.046 28.8464L215.44 13.8543H218.71L223.484 25.3522H223.55L228.193 13.8543H231.463Z" fill="white"/>
</g>
<g id="G">
<path id="Fill 8" fill-rule="evenodd" clip-rule="evenodd" d="M176.373 18.3452C176.373 17.3989 176.293 16.4861 176.141 15.6126H163.454V20.7885H170.72C170.408 22.4757 169.465 23.9112 168.033 24.8725V28.2341H172.37C174.91 25.8935 176.373 22.4348 176.373 18.3452Z" fill="#4285F4"/>
<path id="Fill 10" fill-rule="evenodd" clip-rule="evenodd" d="M163.454 31.4782C167.084 31.4782 170.141 30.2873 172.37 28.2341L168.033 24.8725C166.826 25.6844 165.272 26.1585 163.454 26.1585C159.944 26.1585 156.966 23.7955 155.901 20.6112H151.433V24.0736C153.647 28.4637 158.197 31.4782 163.454 31.4782Z" fill="#34A853"/>
<path id="Fill 12" fill-rule="evenodd" clip-rule="evenodd" d="M155.901 20.6111C155.628 19.7992 155.479 18.9331 155.479 18.0391C155.479 17.145 155.628 16.2789 155.901 15.467V12.0045H151.433C150.518 13.8188 150 15.8683 150 18.0391C150 20.2098 150.518 22.2595 151.433 24.0736L155.901 20.6111Z" fill="#FABB05"/>
<path id="Fill 14" fill-rule="evenodd" clip-rule="evenodd" d="M163.454 9.91964C165.436 9.91964 167.213 10.6009 168.615 11.9355V11.9374L172.455 8.10163C170.123 5.93272 167.082 4.60001 163.454 4.60001C158.197 4.60001 153.647 7.61447 151.433 12.0046L155.901 15.467C156.966 12.2827 159.944 9.91964 163.454 9.91964Z" fill="#E94235"/>
</g>
</g>
</g>
</g>
</svg>
