<svg width="164" height="21" viewBox="0 0 164 21" fill="none" xmlns="http://www.w3.org/2000/svg">
<g id="bg_add_to_Pay_NBG">
<path id="Left Text" d="M1.41075 17.4326V13.3366H2.41875C2.60008 13.0379 2.75475 12.6646 2.88275 12.2166C3.02142 11.7686 3.12808 11.2779 3.20275 10.7446C3.28808 10.2006 3.35208 9.63528 3.39475 9.04861C3.43742 8.45128 3.45875 7.85928 3.45875 7.27261V3.54461H10.8027V13.3366H12.1467V17.4326H10.4347V15.0006H3.12275V17.4326H1.41075ZM4.33875 13.3366H9.04275V5.20861H5.17075V7.52861C5.17075 8.30728 5.13875 9.04328 5.07475 9.73661C5.01075 10.4299 4.91475 11.0753 4.78675 11.6726C4.66942 12.2593 4.52008 12.7819 4.33875 13.2406V13.3366ZM17.5667 15.2566C16.7241 15.2566 15.9827 15.0646 15.3427 14.6806C14.7027 14.2966 14.2014 13.7793 13.8387 13.1286C13.4761 12.4673 13.2947 11.7313 13.2947 10.9206C13.2947 10.1099 13.4761 9.37928 13.8387 8.72861C14.2014 8.06728 14.7027 7.54461 15.3427 7.16061C15.9827 6.77661 16.7241 6.58461 17.5667 6.58461C18.3987 6.58461 19.1347 6.78194 19.7747 7.17661C20.4147 7.56061 20.9161 8.07794 21.2787 8.72861C21.6414 9.37928 21.8227 10.1099 21.8227 10.9206C21.8227 11.7313 21.6414 12.4673 21.2787 13.1286C20.9161 13.7793 20.4147 14.2966 19.7747 14.6806C19.1347 15.0646 18.3987 15.2566 17.5667 15.2566ZM17.5667 13.6726C18.0147 13.6726 18.4307 13.5659 18.8147 13.3526C19.1987 13.1286 19.5081 12.8139 19.7427 12.4086C19.9881 11.9926 20.1107 11.4966 20.1107 10.9206C20.1107 10.3446 19.9881 9.85394 19.7427 9.44861C19.5081 9.03261 19.1987 8.71794 18.8147 8.50461C18.4307 8.28061 18.0147 8.16861 17.5667 8.16861C17.1187 8.16861 16.6974 8.28061 16.3027 8.50461C15.9187 8.71794 15.6041 9.03261 15.3587 9.44861C15.1241 9.85394 15.0067 10.3446 15.0067 10.9206C15.0067 11.4966 15.1241 11.9926 15.3587 12.4086C15.6041 12.8139 15.9241 13.1286 16.3187 13.3526C16.7134 13.5659 17.1294 13.6726 17.5667 13.6726ZM27.4362 15.2566C26.6362 15.2566 25.9269 15.0699 25.3082 14.6966C24.7002 14.3233 24.2202 13.7633 23.8682 13.0166C23.5162 12.2699 23.3402 11.3259 23.3402 10.1846C23.3402 9.40594 23.3882 8.71794 23.4842 8.12061C23.5909 7.52328 23.7562 7.00594 23.9802 6.56861C24.2042 6.13128 24.4976 5.75794 24.8602 5.44861C25.2016 5.16061 25.6229 4.92061 26.1242 4.72861C26.6362 4.53661 27.2709 4.38194 28.0282 4.26461C28.4336 4.20061 28.7216 4.13661 28.8922 4.07261C29.0736 4.00861 29.1856 3.93394 29.2282 3.84861C29.2816 3.76328 29.3082 3.66194 29.3082 3.54461H30.8762C30.8762 4.02461 30.8016 4.40861 30.6522 4.69661C30.5136 4.97394 30.2576 5.18728 29.8842 5.33661C29.5216 5.47528 29.0042 5.59794 28.3322 5.70461C27.8629 5.77928 27.4682 5.85928 27.1482 5.94461C26.8389 6.02994 26.5776 6.13128 26.3642 6.24861C26.1616 6.35528 25.9802 6.47261 25.8202 6.60061C25.5429 6.82461 25.3296 7.08061 25.1802 7.36861C25.0309 7.65661 24.9242 8.00861 24.8602 8.42461H24.9562C25.1162 8.16861 25.3296 7.94461 25.5962 7.75261C25.8736 7.54994 26.1936 7.39528 26.5562 7.28861C26.9189 7.17128 27.3136 7.11261 27.7402 7.11261C28.4976 7.11261 29.1642 7.28861 29.7402 7.64061C30.3162 7.98194 30.7642 8.45128 31.0842 9.04861C31.4149 9.63528 31.5802 10.3126 31.5802 11.0806C31.5802 11.8699 31.4042 12.5846 31.0522 13.2246C30.7002 13.8539 30.2149 14.3499 29.5962 14.7126C28.9776 15.0753 28.2576 15.2566 27.4362 15.2566ZM27.4522 13.7046C28.1456 13.7046 28.7162 13.4699 29.1642 13.0006C29.6229 12.5313 29.8522 11.8806 29.8522 11.0486C29.8522 10.2913 29.6229 9.69928 29.1642 9.27261C28.7162 8.84594 28.1456 8.63261 27.4522 8.63261C27.0149 8.63261 26.6149 8.72861 26.2522 8.92061C25.8896 9.11261 25.6016 9.38994 25.3882 9.75261C25.1749 10.1046 25.0682 10.5366 25.0682 11.0486C25.0682 11.8806 25.2922 12.5313 25.7402 13.0006C26.1989 13.4699 26.7696 13.7046 27.4522 13.7046ZM35.868 15.2566C35.2813 15.2566 34.7587 15.1393 34.3 14.9046C33.852 14.6699 33.4947 14.3499 33.228 13.9446C32.972 13.5286 32.844 13.0539 32.844 12.5206C32.844 11.9339 32.9933 11.4379 33.292 11.0326C33.6013 10.6273 34.012 10.3179 34.524 10.1046C35.036 9.89128 35.6013 9.78461 36.22 9.78461C36.5613 9.78461 36.876 9.81128 37.164 9.86461C37.4627 9.90728 37.7187 9.96061 37.932 10.0246C38.156 10.0886 38.332 10.1579 38.46 10.2326V9.80061C38.46 9.26728 38.268 8.84061 37.884 8.52061C37.5 8.20061 37.004 8.04061 36.396 8.04061C35.98 8.04061 35.5853 8.13661 35.212 8.32861C34.8387 8.50994 34.54 8.76061 34.316 9.08061L33.132 8.16861C33.3667 7.83794 33.6493 7.55528 33.98 7.32061C34.3213 7.08594 34.7 6.90461 35.116 6.77661C35.5427 6.64861 35.9853 6.58461 36.444 6.58461C37.628 6.58461 38.54 6.87794 39.18 7.46461C39.82 8.04061 40.14 8.85128 40.14 9.89661V15.0006H38.46V13.9926H38.364C38.2253 14.2059 38.0333 14.4086 37.788 14.6006C37.5533 14.7926 37.2707 14.9473 36.94 15.0646C36.62 15.1926 36.2627 15.2566 35.868 15.2566ZM36.172 13.8486C36.62 13.8486 37.0147 13.7419 37.356 13.5286C37.708 13.3153 37.98 13.0379 38.172 12.6966C38.364 12.3446 38.46 11.9659 38.46 11.5606C38.2253 11.4219 37.9373 11.3099 37.596 11.2246C37.2653 11.1286 36.9133 11.0806 36.54 11.0806C35.836 11.0806 35.3347 11.2193 35.036 11.4966C34.7373 11.7739 34.588 12.1206 34.588 12.5366C34.588 12.9206 34.732 13.2353 35.02 13.4806C35.308 13.7259 35.692 13.8486 36.172 13.8486ZM42.1924 15.0006V6.84061H46.2404C46.7204 6.84061 47.147 6.93661 47.5204 7.12861C47.9044 7.30994 48.203 7.56061 48.4164 7.88061C48.6404 8.20061 48.7524 8.55794 48.7524 8.95261C48.7524 9.37928 48.6564 9.74728 48.4644 10.0566C48.283 10.3659 48.043 10.5953 47.7444 10.7446V10.8406C48.1497 11.0006 48.4697 11.2406 48.7044 11.5606C48.9497 11.8806 49.0724 12.2486 49.0724 12.6646C49.0724 13.1446 48.9444 13.5606 48.6884 13.9126C48.443 14.2646 48.123 14.5366 47.7284 14.7286C47.3337 14.9099 46.9124 15.0006 46.4644 15.0006H42.1924ZM43.9204 11.4486V13.5606H46.2884C46.5977 13.5606 46.8537 13.4646 47.0564 13.2726C47.2697 13.0699 47.3764 12.8139 47.3764 12.5046C47.3764 12.2059 47.2697 11.9553 47.0564 11.7526C46.8537 11.5499 46.5977 11.4486 46.2884 11.4486H43.9204ZM43.9204 8.24861V10.1686H46.0324C46.3204 10.1686 46.5604 10.0779 46.7524 9.89661C46.9444 9.71528 47.0404 9.48594 47.0404 9.20861C47.0404 8.92061 46.9444 8.69128 46.7524 8.52061C46.5604 8.33928 46.3204 8.24861 46.0324 8.24861H43.9204ZM55.3719 15.0006V12.2326H54.2359L52.1879 15.0006H50.2519V14.9046L52.4279 12.0726L52.3959 11.9766C52.3212 11.9553 52.2519 11.9286 52.1879 11.8966C51.7185 11.6619 51.3452 11.3419 51.0679 10.9366C50.8012 10.5313 50.6679 10.0726 50.6679 9.56061C50.6679 9.03794 50.7959 8.57394 51.0519 8.16861C51.3079 7.75261 51.6545 7.42728 52.0919 7.19261C52.5399 6.95794 53.0412 6.84061 53.5959 6.84061H57.0999V15.0006H55.3719ZM55.3719 10.8566V8.28061H53.7239C53.3505 8.28061 53.0305 8.40328 52.7639 8.64861C52.5079 8.88328 52.3799 9.18728 52.3799 9.56061C52.3799 9.93394 52.5079 10.2433 52.7639 10.4886C53.0305 10.7339 53.3505 10.8566 53.7239 10.8566H55.3719ZM59.2736 15.0006V6.84061H61.0016V10.1206H64.8736V6.84061H66.6016V15.0006H64.8736V11.6246H61.0016V15.0006H59.2736ZM72.4173 15.2566C71.6173 15.2566 70.9026 15.0699 70.2733 14.6966C69.6439 14.3233 69.1479 13.8113 68.7853 13.1606C68.4333 12.5099 68.2573 11.7686 68.2573 10.9366C68.2573 10.1579 68.4279 9.43794 68.7693 8.77661C69.1106 8.11528 69.5853 7.58728 70.1933 7.19261C70.8119 6.78728 71.5213 6.58461 72.3213 6.58461C73.1639 6.58461 73.8786 6.76594 74.4653 7.12861C75.0626 7.49128 75.5159 7.98728 75.8253 8.61661C76.1346 9.24594 76.2893 9.95528 76.2893 10.7446C76.2893 10.8619 76.2839 10.9686 76.2733 11.0646C76.2733 11.1606 76.2679 11.2353 76.2573 11.2886H69.9533C69.9959 11.7366 70.1079 12.1259 70.2893 12.4566C70.5239 12.8726 70.8333 13.1873 71.2173 13.4006C71.6013 13.6139 72.0173 13.7206 72.4653 13.7206C73.0093 13.7206 73.4626 13.5979 73.8253 13.3526C74.1986 13.0966 74.4919 12.7819 74.7053 12.4086L76.1293 13.0966C75.7773 13.7366 75.2973 14.2593 74.6893 14.6646C74.0813 15.0593 73.3239 15.2566 72.4173 15.2566ZM70.0493 9.99261H74.5773C74.5666 9.78994 74.5133 9.57661 74.4173 9.35261C74.3213 9.11794 74.1826 8.90461 74.0013 8.71261C73.8199 8.52061 73.5906 8.36594 73.3133 8.24861C73.0359 8.12061 72.7106 8.05661 72.3373 8.05661C71.8679 8.05661 71.4519 8.17928 71.0893 8.42461C70.7266 8.65928 70.4439 8.98994 70.2413 9.41661C70.1559 9.59794 70.0919 9.78994 70.0493 9.99261ZM81.9267 15.0006V6.84061H83.6547V10.4566H83.7507L86.9507 6.84061H88.9347V6.93661L85.5267 10.6646L89.0627 14.9046V15.0006H87.0147L83.7507 10.9846H83.6547V15.0006H81.9267ZM93.5919 6.84061V9.56061H95.3199C95.8852 9.56061 96.3812 9.67794 96.8079 9.91261C97.2452 10.1473 97.5919 10.4726 97.8479 10.8886C98.1039 11.2939 98.2319 11.7579 98.2319 12.2806C98.2319 12.7926 98.1039 13.2566 97.8479 13.6726C97.5919 14.0886 97.2452 14.4139 96.8079 14.6486C96.3812 14.8833 95.8852 15.0006 95.3199 15.0006H91.8799V8.34461H89.6719V6.84061H93.5919ZM93.5919 10.9846V13.5606H95.1919C95.4372 13.5606 95.6612 13.5073 95.8639 13.4006C96.0665 13.2833 96.2265 13.1286 96.3439 12.9366C96.4612 12.7446 96.5199 12.5259 96.5199 12.2806C96.5199 11.9179 96.3919 11.6139 96.1359 11.3686C95.8799 11.1126 95.5599 10.9846 95.1759 10.9846H93.5919ZM99.8205 15.0006V6.84061H101.869L104.381 11.8326H104.461L106.989 6.84061H108.989V15.0006H107.341V11.0326L107.421 9.46461H107.325L104.973 13.9606H103.837L101.485 9.46461H101.389L101.469 11.0326V15.0006H99.8205Z" fill="white"/>
<g id="GPay (Dark)">
<g id="GPay">
<g id="Pay">
<path id="Fill 1" fill-rule="evenodd" clip-rule="evenodd" d="M138.356 3.42339V8.16175H141.278C141.974 8.16175 142.55 7.92781 143.005 7.45993C143.473 6.99313 143.707 6.43644 143.707 5.79203C143.707 5.16061 143.473 4.61041 143.005 4.14254C142.55 3.66274 141.974 3.4223 141.278 3.4223H138.356V3.42339ZM138.356 9.82966V15.3262H136.611V1.75549H141.24C142.417 1.75549 143.415 2.14756 144.238 2.93061C145.073 3.71365 145.491 4.66782 145.491 5.79203C145.491 6.94224 145.073 7.90291 144.238 8.67296C143.428 9.44409 142.429 9.82858 141.24 9.82858H138.356V9.82966Z" fill="white"/>
<path id="Fill 3" fill-rule="evenodd" clip-rule="evenodd" d="M147.255 12.4831C147.255 12.9379 147.448 13.317 147.834 13.6203C148.22 13.9235 148.672 14.0752 149.19 14.0752C149.924 14.0752 150.578 13.8032 151.153 13.2607C151.729 12.717 152.017 12.0791 152.017 11.3469C151.472 10.917 150.713 10.7025 149.74 10.7025C149.031 10.7025 148.44 10.8736 147.966 11.2148C147.492 11.5559 147.255 11.9773 147.255 12.4831M149.513 5.73566C150.803 5.73566 151.821 6.08007 152.569 6.76889C153.314 7.45771 153.687 8.40213 153.687 9.60216V15.3261H152.018V14.0373H151.942C151.221 15.0985 150.259 15.6294 149.058 15.6294C148.033 15.6294 147.176 15.3261 146.487 14.7196C145.797 14.1131 145.453 13.3549 145.453 12.4452C145.453 11.4845 145.816 10.7208 146.543 10.1523C147.271 9.58375 148.241 9.2989 149.456 9.2989C150.492 9.2989 151.346 9.48844 152.017 9.86751V9.46894C152.017 8.86243 151.776 8.34798 151.296 7.92451C150.814 7.50103 150.252 7.28984 149.607 7.28984C148.633 7.28984 147.862 7.70032 147.293 8.52235L145.755 7.55519C146.603 6.34217 147.855 5.73566 149.513 5.73566" fill="white"/>
<path id="Fill 5" fill-rule="evenodd" clip-rule="evenodd" d="M163.269 6.03894L157.443 19.4201H155.641L157.804 14.738L153.971 6.03894H155.869L158.639 12.7106H158.677L161.371 6.03894H163.269Z" fill="white"/>
</g>
<g id="G">
<path id="Fill 8" fill-rule="evenodd" clip-rule="evenodd" d="M131.303 8.64473C131.303 8.09563 131.256 7.56601 131.168 7.05914H123.806V10.0625H128.023C127.842 11.0414 127.294 11.8744 126.464 12.4322V14.3828H128.98C130.454 13.0246 131.303 11.0177 131.303 8.64473" fill="#4285F4"/>
<path id="Fill 10" fill-rule="evenodd" clip-rule="evenodd" d="M123.806 16.2651C125.913 16.2651 127.687 15.5741 128.98 14.3828L126.464 12.4322C125.763 12.9033 124.861 13.1784 123.806 13.1784C121.77 13.1784 120.042 11.8073 119.424 9.95959H116.832V11.9687C118.116 14.516 120.757 16.2651 123.806 16.2651" fill="#34A853"/>
<path id="Fill 12" fill-rule="evenodd" clip-rule="evenodd" d="M119.424 9.9596C119.266 9.48847 119.179 8.98593 119.179 8.46715C119.179 7.94837 119.266 7.44583 119.424 6.9747V4.96564H116.832C116.3 6.01837 116 7.20756 116 8.46715C116 9.72674 116.3 10.916 116.832 11.9687L119.424 9.9596Z" fill="#FABB05"/>
<path id="Fill 14" fill-rule="evenodd" clip-rule="evenodd" d="M123.806 3.75583C124.957 3.75583 125.988 4.15115 126.801 4.92553V4.92661L129.029 2.70094C127.676 1.44243 125.912 0.669128 123.806 0.669128C120.757 0.669128 118.116 2.41826 116.832 4.9656L119.424 6.97467C120.042 5.12698 121.77 3.75583 123.806 3.75583" fill="#E94235"/>
</g>
</g>
</g>
</g>
</svg>
