<svg width="195" height="21" viewBox="0 0 195 21" fill="none" xmlns="http://www.w3.org/2000/svg">
<g id="bg_book_with_Pay_NBG">
<path id="Left Text" d="M1.82725 15.0006V3.54461H5.76325C6.45658 3.54461 7.08592 3.69394 7.65125 3.99261C8.21658 4.28061 8.66458 4.69128 8.99525 5.22461C9.33658 5.74728 9.50725 6.35528 9.50725 7.04861C9.50725 7.73128 9.33658 8.33928 8.99525 8.87261C8.66458 9.40594 8.21658 9.82194 7.65125 10.1206C7.08592 10.4086 6.45658 10.5526 5.76325 10.5526H3.58725V15.0006H1.82725ZM3.58725 8.88861H5.81125C6.22725 8.88861 6.57925 8.80328 6.86725 8.63261C7.15525 8.45128 7.37392 8.22194 7.52325 7.94461C7.68325 7.65661 7.76325 7.35794 7.76325 7.04861C7.76325 6.73928 7.68325 6.44594 7.52325 6.16861C7.37392 5.89128 7.15525 5.66194 6.86725 5.48061C6.57925 5.29928 6.22725 5.20861 5.81125 5.20861H3.58725V8.88861ZM14.3391 15.2566C13.5391 15.2566 12.8245 15.0699 12.1951 14.6966C11.5658 14.3233 11.0698 13.8113 10.7071 13.1606C10.3551 12.5099 10.1791 11.7686 10.1791 10.9366C10.1791 10.1579 10.3498 9.43794 10.6911 8.77661C11.0325 8.11528 11.5071 7.58728 12.1151 7.19261C12.7338 6.78728 13.4431 6.58461 14.2431 6.58461C15.0858 6.58461 15.8005 6.76594 16.3871 7.12861C16.9845 7.49128 17.4378 7.98728 17.7471 8.61661C18.0565 9.24594 18.2111 9.95528 18.2111 10.7446C18.2111 10.8619 18.2058 10.9686 18.1951 11.0646C18.1951 11.1606 18.1898 11.2353 18.1791 11.2886H11.8751C11.9178 11.7366 12.0298 12.1259 12.2111 12.4566C12.4458 12.8726 12.7551 13.1873 13.1391 13.4006C13.5231 13.6139 13.9391 13.7206 14.3871 13.7206C14.9311 13.7206 15.3845 13.5979 15.7471 13.3526C16.1205 13.0966 16.4138 12.7819 16.6271 12.4086L18.0511 13.0966C17.6991 13.7366 17.2191 14.2593 16.6111 14.6646C16.0031 15.0593 15.2458 15.2566 14.3391 15.2566ZM11.9711 9.99261H16.4991C16.4885 9.78994 16.4351 9.57661 16.3391 9.35261C16.2431 9.11794 16.1045 8.90461 15.9231 8.71261C15.7418 8.52061 15.5125 8.36594 15.2351 8.24861C14.9578 8.12061 14.6325 8.05661 14.2591 8.05661C13.7898 8.05661 13.3738 8.17928 13.0111 8.42461C12.6485 8.65928 12.3658 8.98994 12.1631 9.41661C12.0778 9.59794 12.0138 9.78994 11.9711 9.99261ZM22.5637 15.2566C22.1264 15.2566 21.6784 15.2033 21.2197 15.0966C20.7717 14.9899 20.3557 14.8086 19.9717 14.5526C19.5877 14.2859 19.2624 13.9179 18.9957 13.4486L20.3717 12.6486C20.6704 13.0646 21.0117 13.3526 21.3957 13.5126C21.7904 13.6619 22.1797 13.7366 22.5637 13.7366C23.1184 13.7366 23.5397 13.6299 23.8277 13.4166C24.1157 13.2033 24.2597 12.9259 24.2597 12.5846C24.2597 12.2859 24.1264 12.0459 23.8597 11.8646C23.6037 11.6726 23.2411 11.5766 22.7717 11.5766H21.4437V10.2166H22.7717C23.1771 10.2166 23.4864 10.1206 23.6997 9.92861C23.9237 9.73661 24.0357 9.49128 24.0357 9.19261C24.0357 8.84061 23.8864 8.56328 23.5877 8.36061C23.2891 8.14728 22.9104 8.04061 22.4517 8.04061C22.0464 8.04061 21.6571 8.12594 21.2837 8.29661C20.9104 8.45661 20.6277 8.67528 20.4357 8.95261L19.1557 8.10461C19.4011 7.78461 19.6944 7.51261 20.0357 7.28861C20.3771 7.06461 20.7504 6.89394 21.1557 6.77661C21.5717 6.64861 22.0091 6.58461 22.4677 6.58461C23.0757 6.58461 23.6197 6.68594 24.0997 6.88861C24.5797 7.09128 24.9584 7.37394 25.2357 7.73661C25.5237 8.08861 25.6677 8.49928 25.6677 8.96861C25.6677 9.37394 25.5664 9.73661 25.3637 10.0566C25.1611 10.3766 24.8944 10.6113 24.5637 10.7606V10.8566C24.9797 11.0273 25.3157 11.2833 25.5717 11.6246C25.8277 11.9659 25.9557 12.3553 25.9557 12.7926C25.9557 13.2726 25.8117 13.6993 25.5237 14.0726C25.2464 14.4459 24.8517 14.7393 24.3397 14.9526C23.8384 15.1553 23.2464 15.2566 22.5637 15.2566ZM31.3266 15.2566C30.5266 15.2566 29.812 15.0699 29.1826 14.6966C28.5533 14.3233 28.0573 13.8113 27.6946 13.1606C27.3426 12.5099 27.1666 11.7686 27.1666 10.9366C27.1666 10.1579 27.3373 9.43794 27.6786 8.77661C28.02 8.11528 28.4946 7.58728 29.1026 7.19261C29.7213 6.78728 30.4306 6.58461 31.2306 6.58461C32.0733 6.58461 32.788 6.76594 33.3746 7.12861C33.972 7.49128 34.4253 7.98728 34.7346 8.61661C35.044 9.24594 35.1986 9.95528 35.1986 10.7446C35.1986 10.8619 35.1933 10.9686 35.1826 11.0646C35.1826 11.1606 35.1773 11.2353 35.1666 11.2886H28.8626C28.9053 11.7366 29.0173 12.1259 29.1986 12.4566C29.4333 12.8726 29.7426 13.1873 30.1266 13.4006C30.5106 13.6139 30.9266 13.7206 31.3746 13.7206C31.9186 13.7206 32.372 13.5979 32.7346 13.3526C33.108 13.0966 33.4013 12.7819 33.6146 12.4086L35.0386 13.0966C34.6866 13.7366 34.2066 14.2593 33.5986 14.6646C32.9906 15.0593 32.2333 15.2566 31.3266 15.2566ZM28.9586 9.99261H33.4866C33.476 9.78994 33.4226 9.57661 33.3266 9.35261C33.2306 9.11794 33.092 8.90461 32.9106 8.71261C32.7293 8.52061 32.5 8.36594 32.2226 8.24861C31.9453 8.12061 31.62 8.05661 31.2466 8.05661C30.7773 8.05661 30.3613 8.17928 29.9986 8.42461C29.636 8.65928 29.3533 8.98994 29.1506 9.41661C29.0653 9.59794 29.0013 9.78994 28.9586 9.99261ZM36.9357 18.4566V6.84061H38.5517V7.94461H38.6477C38.7971 7.70994 38.9944 7.49128 39.2397 7.28861C39.4957 7.07528 39.7944 6.90461 40.1357 6.77661C40.4771 6.64861 40.8557 6.58461 41.2717 6.58461C42.0184 6.58461 42.6851 6.77128 43.2717 7.14461C43.8584 7.51794 44.3224 8.02994 44.6637 8.68061C45.0157 9.33128 45.1917 10.0779 45.1917 10.9206C45.1917 11.7633 45.0157 12.5099 44.6637 13.1606C44.3224 13.8113 43.8584 14.3233 43.2717 14.6966C42.6851 15.0699 42.0184 15.2566 41.2717 15.2566C40.6531 15.2566 40.1144 15.1179 39.6557 14.8406C39.1971 14.5633 38.8611 14.2539 38.6477 13.9126H38.5517L38.6477 15.0486V18.4566H36.9357ZM41.0157 13.6726C41.4424 13.6726 41.8424 13.5606 42.2157 13.3366C42.5997 13.1126 42.9037 12.7926 43.1277 12.3766C43.3624 11.9606 43.4797 11.4753 43.4797 10.9206C43.4797 10.3553 43.3624 9.86994 43.1277 9.46461C42.9037 9.04861 42.5997 8.72861 42.2157 8.50461C41.8424 8.28061 41.4424 8.16861 41.0157 8.16861C40.5891 8.16861 40.1891 8.28061 39.8157 8.50461C39.4424 8.72861 39.1384 9.04861 38.9037 9.46461C38.6691 9.86994 38.5517 10.3553 38.5517 10.9206C38.5517 11.4859 38.6691 11.9766 38.9037 12.3926C39.1384 12.7979 39.4424 13.1126 39.8157 13.3366C40.1891 13.5606 40.5891 13.6726 41.0157 13.6726ZM46.8205 15.0006V6.84061H50.8685C51.3485 6.84061 51.7752 6.93661 52.1485 7.12861C52.5325 7.30994 52.8312 7.56061 53.0445 7.88061C53.2685 8.20061 53.3805 8.55794 53.3805 8.95261C53.3805 9.37928 53.2845 9.74728 53.0925 10.0566C52.9112 10.3659 52.6712 10.5953 52.3725 10.7446V10.8406C52.7778 11.0006 53.0978 11.2406 53.3325 11.5606C53.5778 11.8806 53.7005 12.2486 53.7005 12.6646C53.7005 13.1446 53.5725 13.5606 53.3165 13.9126C53.0712 14.2646 52.7512 14.5366 52.3565 14.7286C51.9618 14.9099 51.5405 15.0006 51.0925 15.0006H46.8205ZM48.5485 11.4486V13.5606H50.9165C51.2258 13.5606 51.4818 13.4646 51.6845 13.2726C51.8978 13.0699 52.0045 12.8139 52.0045 12.5046C52.0045 12.2059 51.8978 11.9553 51.6845 11.7526C51.4818 11.5499 51.2258 11.4486 50.9165 11.4486H48.5485ZM48.5485 8.24861V10.1686H50.6605C50.9485 10.1686 51.1885 10.0779 51.3805 9.89661C51.5725 9.71528 51.6685 9.48594 51.6685 9.20861C51.6685 8.92061 51.5725 8.69128 51.3805 8.52061C51.1885 8.33928 50.9485 8.24861 50.6605 8.24861H48.5485ZM55.4549 15.0006V6.84061H57.1829V11.0166L57.0869 12.5526H57.1829L61.2629 6.84061H62.9749V15.0006H61.2629V10.8406L61.3589 9.30461H61.2629L57.1829 15.0006H55.4549ZM65.1358 18.4566V6.84061H66.7518V7.94461H66.8478C66.9971 7.70994 67.1944 7.49128 67.4398 7.28861C67.6958 7.07528 67.9944 6.90461 68.3358 6.77661C68.6771 6.64861 69.0558 6.58461 69.4718 6.58461C70.2184 6.58461 70.8851 6.77128 71.4718 7.14461C72.0584 7.51794 72.5224 8.02994 72.8638 8.68061C73.2158 9.33128 73.3918 10.0779 73.3918 10.9206C73.3918 11.7633 73.2158 12.5099 72.8638 13.1606C72.5224 13.8113 72.0584 14.3233 71.4718 14.6966C70.8851 15.0699 70.2184 15.2566 69.4718 15.2566C68.8531 15.2566 68.3144 15.1179 67.8558 14.8406C67.3971 14.5633 67.0611 14.2539 66.8478 13.9126H66.7518L66.8478 15.0486V18.4566H65.1358ZM69.2158 13.6726C69.6424 13.6726 70.0424 13.5606 70.4158 13.3366C70.7998 13.1126 71.1038 12.7926 71.3278 12.3766C71.5624 11.9606 71.6798 11.4753 71.6798 10.9206C71.6798 10.3553 71.5624 9.86994 71.3278 9.46461C71.1038 9.04861 70.7998 8.72861 70.4158 8.50461C70.0424 8.28061 69.6424 8.16861 69.2158 8.16861C68.7891 8.16861 68.3891 8.28061 68.0158 8.50461C67.6424 8.72861 67.3384 9.04861 67.1038 9.46461C66.8691 9.86994 66.7518 10.3553 66.7518 10.9206C66.7518 11.4859 66.8691 11.9766 67.1038 12.3926C67.3384 12.7979 67.6424 13.1126 68.0158 13.3366C68.3891 13.5606 68.7891 13.6726 69.2158 13.6726ZM77.6586 15.2566C77.072 15.2566 76.5493 15.1393 76.0906 14.9046C75.6426 14.6699 75.2853 14.3499 75.0186 13.9446C74.7626 13.5286 74.6346 13.0539 74.6346 12.5206C74.6346 11.9339 74.784 11.4379 75.0826 11.0326C75.392 10.6273 75.8026 10.3179 76.3146 10.1046C76.8266 9.89128 77.392 9.78461 78.0106 9.78461C78.352 9.78461 78.6666 9.81128 78.9546 9.86461C79.2533 9.90728 79.5093 9.96061 79.7226 10.0246C79.9466 10.0886 80.1226 10.1579 80.2506 10.2326V9.80061C80.2506 9.26728 80.0586 8.84061 79.6746 8.52061C79.2906 8.20061 78.7946 8.04061 78.1866 8.04061C77.7706 8.04061 77.376 8.13661 77.0026 8.32861C76.6293 8.50994 76.3306 8.76061 76.1066 9.08061L74.9226 8.16861C75.1573 7.83794 75.44 7.55528 75.7706 7.32061C76.112 7.08594 76.4906 6.90461 76.9066 6.77661C77.3333 6.64861 77.776 6.58461 78.2346 6.58461C79.4186 6.58461 80.3306 6.87794 80.9706 7.46461C81.6106 8.04061 81.9306 8.85128 81.9306 9.89661V15.0006H80.2506V13.9926H80.1546C80.016 14.2059 79.824 14.4086 79.5786 14.6006C79.344 14.7926 79.0613 14.9473 78.7306 15.0646C78.4106 15.1926 78.0533 15.2566 77.6586 15.2566ZM77.9626 13.8486C78.4106 13.8486 78.8053 13.7419 79.1466 13.5286C79.4986 13.3153 79.7706 13.0379 79.9626 12.6966C80.1546 12.3446 80.2506 11.9659 80.2506 11.5606C80.016 11.4219 79.728 11.3099 79.3866 11.2246C79.056 11.1286 78.704 11.0806 78.3306 11.0806C77.6266 11.0806 77.1253 11.2193 76.8266 11.4966C76.528 11.7739 76.3786 12.1206 76.3786 12.5366C76.3786 12.9206 76.5226 13.2353 76.8106 13.4806C77.0986 13.7259 77.4826 13.8486 77.9626 13.8486ZM83.983 15.0006V6.84061H85.711V10.1206H89.583V6.84061H91.311V15.0006H89.583V11.6246H85.711V15.0006H83.983ZM97.1266 15.2566C96.3266 15.2566 95.612 15.0699 94.9826 14.6966C94.3533 14.3233 93.8573 13.8113 93.4946 13.1606C93.1426 12.5099 92.9666 11.7686 92.9666 10.9366C92.9666 10.1579 93.1373 9.43794 93.4786 8.77661C93.82 8.11528 94.2946 7.58728 94.9026 7.19261C95.5213 6.78728 96.2306 6.58461 97.0306 6.58461C97.8733 6.58461 98.588 6.76594 99.1746 7.12861C99.772 7.49128 100.225 7.98728 100.535 8.61661C100.844 9.24594 100.999 9.95528 100.999 10.7446C100.999 10.8619 100.993 10.9686 100.983 11.0646C100.983 11.1606 100.977 11.2353 100.967 11.2886H94.6626C94.7053 11.7366 94.8173 12.1259 94.9986 12.4566C95.2333 12.8726 95.5426 13.1873 95.9266 13.4006C96.3106 13.6139 96.7266 13.7206 97.1746 13.7206C97.7186 13.7206 98.172 13.5979 98.5346 13.3526C98.908 13.0966 99.2013 12.7819 99.4146 12.4086L100.839 13.0966C100.487 13.7366 100.007 14.2593 99.3986 14.6646C98.7906 15.0593 98.0333 15.2566 97.1266 15.2566ZM94.7586 9.99261H99.2866C99.276 9.78994 99.2226 9.57661 99.1266 9.35261C99.0306 9.11794 98.892 8.90461 98.7106 8.71261C98.5293 8.52061 98.3 8.36594 98.0226 8.24861C97.7453 8.12061 97.42 8.05661 97.0466 8.05661C96.5773 8.05661 96.1613 8.17928 95.7986 8.42461C95.436 8.65928 95.1533 8.98994 94.9506 9.41661C94.8653 9.59794 94.8013 9.78994 94.7586 9.99261ZM111.324 15.0006V12.0566C111.1 12.2166 110.817 12.3446 110.476 12.4406C110.135 12.5259 109.761 12.5686 109.356 12.5686C108.417 12.5686 107.665 12.2966 107.1 11.7526C106.545 11.2086 106.268 10.4726 106.268 9.54461V6.84061H107.996V9.36861C107.996 9.88061 108.14 10.2859 108.428 10.5846C108.727 10.8726 109.143 11.0166 109.676 11.0166C109.996 11.0166 110.305 10.9686 110.604 10.8726C110.913 10.7659 111.153 10.6273 111.324 10.4566V6.84061H113.036V15.0006H111.324ZM115.208 18.4566V6.84061H116.824V7.94461H116.92C117.069 7.70994 117.266 7.49128 117.512 7.28861C117.768 7.07528 118.066 6.90461 118.408 6.77661C118.749 6.64861 119.128 6.58461 119.544 6.58461C120.29 6.58461 120.957 6.77128 121.544 7.14461C122.13 7.51794 122.594 8.02994 122.936 8.68061C123.288 9.33128 123.464 10.0779 123.464 10.9206C123.464 11.7633 123.288 12.5099 122.936 13.1606C122.594 13.8113 122.13 14.3233 121.544 14.6966C120.957 15.0699 120.29 15.2566 119.544 15.2566C118.925 15.2566 118.386 15.1179 117.928 14.8406C117.469 14.5633 117.133 14.2539 116.92 13.9126H116.824L116.92 15.0486V18.4566H115.208ZM119.288 13.6726C119.714 13.6726 120.114 13.5606 120.488 13.3366C120.872 13.1126 121.176 12.7926 121.4 12.3766C121.634 11.9606 121.752 11.4753 121.752 10.9206C121.752 10.3553 121.634 9.86994 121.4 9.46461C121.176 9.04861 120.872 8.72861 120.488 8.50461C120.114 8.28061 119.714 8.16861 119.288 8.16861C118.861 8.16861 118.461 8.28061 118.088 8.50461C117.714 8.72861 117.41 9.04861 117.176 9.46461C116.941 9.86994 116.824 10.3553 116.824 10.9206C116.824 11.4859 116.941 11.9766 117.176 12.3926C117.41 12.7979 117.714 13.1126 118.088 13.3366C118.461 13.5606 118.861 13.6726 119.288 13.6726ZM128.898 15.2566C128.098 15.2566 127.384 15.0699 126.754 14.6966C126.125 14.3233 125.629 13.8113 125.266 13.1606C124.914 12.5099 124.738 11.7686 124.738 10.9366C124.738 10.1579 124.909 9.43794 125.25 8.77661C125.592 8.11528 126.066 7.58728 126.674 7.19261C127.293 6.78728 128.002 6.58461 128.802 6.58461C129.645 6.58461 130.36 6.76594 130.946 7.12861C131.544 7.49128 131.997 7.98728 132.306 8.61661C132.616 9.24594 132.77 9.95528 132.77 10.7446C132.77 10.8619 132.765 10.9686 132.754 11.0646C132.754 11.1606 132.749 11.2353 132.738 11.2886H126.434C126.477 11.7366 126.589 12.1259 126.77 12.4566C127.005 12.8726 127.314 13.1873 127.698 13.4006C128.082 13.6139 128.498 13.7206 128.946 13.7206C129.49 13.7206 129.944 13.5979 130.306 13.3526C130.68 13.0966 130.973 12.7819 131.186 12.4086L132.61 13.0966C132.258 13.7366 131.778 14.2593 131.17 14.6646C130.562 15.0593 129.805 15.2566 128.898 15.2566ZM126.53 9.99261H131.058C131.048 9.78994 130.994 9.57661 130.898 9.35261C130.802 9.11794 130.664 8.90461 130.482 8.71261C130.301 8.52061 130.072 8.36594 129.794 8.24861C129.517 8.12061 129.192 8.05661 128.818 8.05661C128.349 8.05661 127.933 8.17928 127.57 8.42461C127.208 8.65928 126.925 8.98994 126.722 9.41661C126.637 9.59794 126.573 9.78994 126.53 9.99261ZM137.123 15.2566C136.686 15.2566 136.238 15.2033 135.779 15.0966C135.331 14.9899 134.915 14.8086 134.531 14.5526C134.147 14.2859 133.822 13.9179 133.555 13.4486L134.931 12.6486C135.23 13.0646 135.571 13.3526 135.955 13.5126C136.35 13.6619 136.739 13.7366 137.123 13.7366C137.678 13.7366 138.099 13.6299 138.387 13.4166C138.675 13.2033 138.819 12.9259 138.819 12.5846C138.819 12.2859 138.686 12.0459 138.419 11.8646C138.163 11.6726 137.8 11.5766 137.331 11.5766H136.003V10.2166H137.331C137.736 10.2166 138.046 10.1206 138.259 9.92861C138.483 9.73661 138.595 9.49128 138.595 9.19261C138.595 8.84061 138.446 8.56328 138.147 8.36061C137.848 8.14728 137.47 8.04061 137.011 8.04061C136.606 8.04061 136.216 8.12594 135.843 8.29661C135.47 8.45661 135.187 8.67528 134.995 8.95261L133.715 8.10461C133.96 7.78461 134.254 7.51261 134.595 7.28861C134.936 7.06461 135.31 6.89394 135.715 6.77661C136.131 6.64861 136.568 6.58461 137.027 6.58461C137.635 6.58461 138.179 6.68594 138.659 6.88861C139.139 7.09128 139.518 7.37394 139.795 7.73661C140.083 8.08861 140.227 8.49928 140.227 8.96861C140.227 9.37394 140.126 9.73661 139.923 10.0566C139.72 10.3766 139.454 10.6113 139.123 10.7606V10.8566C139.539 11.0273 139.875 11.2833 140.131 11.6246C140.387 11.9659 140.515 12.3553 140.515 12.7926C140.515 13.2726 140.371 13.6993 140.083 14.0726C139.806 14.4459 139.411 14.7393 138.899 14.9526C138.398 15.1553 137.806 15.2566 137.123 15.2566Z" fill="white"/>
<g id="GPay (Dark)">
<g id="GPay">
<g id="Pay">
<path id="Fill 1" fill-rule="evenodd" clip-rule="evenodd" d="M169.356 3.42339V8.16175H172.278C172.974 8.16175 173.55 7.92781 174.005 7.45993C174.473 6.99313 174.707 6.43644 174.707 5.79203C174.707 5.16061 174.473 4.61041 174.005 4.14254C173.55 3.66274 172.974 3.4223 172.278 3.4223H169.356V3.42339ZM169.356 9.82966V15.3262H167.611V1.75549H172.24C173.417 1.75549 174.415 2.14756 175.238 2.93061C176.073 3.71365 176.491 4.66782 176.491 5.79203C176.491 6.94224 176.073 7.90291 175.238 8.67296C174.428 9.44409 173.429 9.82858 172.24 9.82858H169.356V9.82966Z" fill="white"/>
<path id="Fill 3" fill-rule="evenodd" clip-rule="evenodd" d="M178.255 12.4831C178.255 12.9379 178.448 13.317 178.834 13.6203C179.22 13.9235 179.672 14.0752 180.19 14.0752C180.924 14.0752 181.578 13.8032 182.153 13.2607C182.729 12.717 183.017 12.0791 183.017 11.3469C182.472 10.917 181.713 10.7025 180.74 10.7025C180.031 10.7025 179.44 10.8736 178.966 11.2148C178.492 11.5559 178.255 11.9773 178.255 12.4831M180.513 5.73566C181.803 5.73566 182.821 6.08007 183.569 6.76889C184.314 7.45771 184.687 8.40213 184.687 9.60216V15.3261H183.018V14.0373H182.942C182.221 15.0985 181.259 15.6294 180.058 15.6294C179.033 15.6294 178.176 15.3261 177.487 14.7196C176.797 14.1131 176.453 13.3549 176.453 12.4452C176.453 11.4845 176.816 10.7208 177.543 10.1523C178.271 9.58375 179.241 9.2989 180.456 9.2989C181.492 9.2989 182.346 9.48844 183.017 9.86751V9.46894C183.017 8.86243 182.776 8.34798 182.296 7.92451C181.814 7.50103 181.252 7.28984 180.607 7.28984C179.633 7.28984 178.862 7.70032 178.293 8.52235L176.755 7.55519C177.603 6.34217 178.855 5.73566 180.513 5.73566" fill="white"/>
<path id="Fill 5" fill-rule="evenodd" clip-rule="evenodd" d="M194.269 6.03894L188.443 19.4201H186.641L188.804 14.738L184.971 6.03894H186.869L189.639 12.7106H189.677L192.371 6.03894H194.269Z" fill="white"/>
</g>
<g id="G">
<path id="Fill 8" fill-rule="evenodd" clip-rule="evenodd" d="M162.303 8.64473C162.303 8.09563 162.256 7.56601 162.168 7.05914H154.806V10.0625H159.023C158.842 11.0414 158.294 11.8744 157.464 12.4322V14.3828H159.98C161.454 13.0246 162.303 11.0177 162.303 8.64473" fill="#4285F4"/>
<path id="Fill 10" fill-rule="evenodd" clip-rule="evenodd" d="M154.806 16.2651C156.913 16.2651 158.687 15.5741 159.98 14.3828L157.464 12.4322C156.763 12.9033 155.861 13.1784 154.806 13.1784C152.77 13.1784 151.042 11.8073 150.424 9.95959H147.832V11.9687C149.116 14.516 151.757 16.2651 154.806 16.2651" fill="#34A853"/>
<path id="Fill 12" fill-rule="evenodd" clip-rule="evenodd" d="M150.424 9.9596C150.266 9.48847 150.179 8.98593 150.179 8.46715C150.179 7.94837 150.266 7.44583 150.424 6.9747V4.96564H147.832C147.3 6.01837 147 7.20756 147 8.46715C147 9.72674 147.3 10.916 147.832 11.9687L150.424 9.9596Z" fill="#FABB05"/>
<path id="Fill 14" fill-rule="evenodd" clip-rule="evenodd" d="M154.806 3.75583C155.957 3.75583 156.988 4.15115 157.801 4.92553V4.92661L160.029 2.70094C158.676 1.44243 156.912 0.669128 154.806 0.669128C151.757 0.669128 149.116 2.41826 147.832 4.9656L150.424 6.97467C151.042 5.12698 152.77 3.75583 154.806 3.75583" fill="#E94235"/>
</g>
</g>
</g>
</g>
</svg>
