<svg width="342" height="38" viewBox="0 0 342 38" fill="none" xmlns="http://www.w3.org/2000/svg">
<g id="bg_book_with_Light">
<path id="Text" d="M3.88519 30V9.952H10.7732C11.9865 9.952 13.0879 10.2133 14.0772 10.736C15.0665 11.2587 15.8505 11.9773 16.4292 12.892C17.0265 13.8067 17.3252 14.8707 17.3252 16.084C17.3252 17.2973 17.0265 18.3707 16.4292 19.304C15.8505 20.2187 15.0665 20.9373 14.0772 21.46C13.0879 21.964 11.9865 22.216 10.7732 22.216H6.96519V30H3.88519ZM10.8572 12.864H6.96519V19.304H10.8572C11.5852 19.304 12.2012 19.1547 12.7052 18.856C13.2092 18.5387 13.5919 18.1373 13.8532 17.652C14.1332 17.148 14.2732 16.6253 14.2732 16.084C14.2732 15.5427 14.1332 15.0293 13.8532 14.544C13.5919 14.0587 13.2092 13.6573 12.7052 13.34C12.2012 13.0227 11.5852 12.864 10.8572 12.864ZM25.8185 30.448C24.4185 30.448 23.1678 30.1213 22.0665 29.468C20.9651 28.8147 20.0971 27.9187 19.4625 26.78C18.8465 25.6413 18.5385 24.344 18.5385 22.888C18.5385 21.5253 18.8371 20.2653 19.4345 19.108C20.0318 17.9507 20.8625 17.0267 21.9265 16.336C23.0091 15.6267 24.2505 15.272 25.6505 15.272C27.1251 15.272 28.3758 15.5893 29.4025 16.224C30.4478 16.8587 31.2411 17.7267 31.7825 18.828C32.3238 19.9293 32.5945 21.1707 32.5945 22.552C32.5945 22.7573 32.5851 22.944 32.5665 23.112C32.5665 23.28 32.5571 23.4107 32.5385 23.504H21.5065C21.6558 24.9227 22.1505 25.9867 22.9905 26.696C23.8491 27.4053 24.8198 27.76 25.9025 27.76C26.8731 27.76 27.6758 27.5453 28.3105 27.116C28.9451 26.668 29.4491 26.1173 29.8225 25.464L32.3145 26.668C31.6985 27.788 30.8585 28.7027 29.7945 29.412C28.7305 30.1027 27.4051 30.448 25.8185 30.448ZM25.6785 17.848C24.6705 17.848 23.8118 18.156 23.1025 18.772C22.3931 19.388 21.9171 20.2093 21.6745 21.236H29.5985C29.5611 20.7507 29.4025 20.2467 29.1225 19.724C28.8425 19.2013 28.4131 18.7627 27.8345 18.408C27.2745 18.0347 26.5558 17.848 25.6785 17.848ZM40.2491 30.448C39.4651 30.448 38.6811 30.3547 37.8971 30.168C37.1131 29.9813 36.3757 29.664 35.6851 29.216C35.0131 28.7493 34.4531 28.1053 34.0051 27.284L36.4131 25.884C36.9357 26.612 37.5331 27.116 38.2051 27.396C38.8957 27.6573 39.5771 27.788 40.2491 27.788C41.2197 27.788 41.9571 27.6013 42.4611 27.228C42.9651 26.8547 43.2171 26.3693 43.2171 25.772C43.2171 25.2493 42.9837 24.8293 42.5171 24.512C42.0691 24.176 41.4344 24.008 40.6131 24.008H38.2891V21.628H40.6131C41.3224 21.628 41.8637 21.46 42.2371 21.124C42.6291 20.788 42.8251 20.3587 42.8251 19.836C42.8251 19.22 42.5637 18.7347 42.0411 18.38C41.5184 18.0067 40.8557 17.82 40.0531 17.82C39.3437 17.82 38.6624 17.9693 38.0091 18.268C37.3557 18.548 36.8611 18.9307 36.5251 19.416L34.2851 17.932C34.9384 17.1107 35.7597 16.4667 36.7491 16C37.7571 15.5147 38.8677 15.272 40.0811 15.272C41.1264 15.272 42.0691 15.4493 42.9091 15.804C43.7677 16.1587 44.4397 16.6533 44.9251 17.288C45.4291 17.904 45.6811 18.6227 45.6811 19.444C45.6811 20.1533 45.5037 20.788 45.1491 21.348C44.7944 21.8893 44.3277 22.3 43.7491 22.58V22.748C44.4771 23.0467 45.0651 23.4947 45.5131 24.092C45.9611 24.6893 46.1851 25.3707 46.1851 26.136C46.1851 26.976 45.9424 27.7227 45.4571 28.376C44.9717 29.0107 44.2811 29.5147 43.3851 29.888C42.4891 30.2613 41.4437 30.448 40.2491 30.448ZM55.6216 30.448C54.2216 30.448 52.9709 30.1213 51.8696 29.468C50.7683 28.8147 49.9003 27.9187 49.2656 26.78C48.6496 25.6413 48.3416 24.344 48.3416 22.888C48.3416 21.5253 48.6403 20.2653 49.2376 19.108C49.8349 17.9507 50.6656 17.0267 51.7296 16.336C52.8123 15.6267 54.0536 15.272 55.4536 15.272C56.9283 15.272 58.1789 15.5893 59.2056 16.224C60.2509 16.8587 61.0443 17.7267 61.5856 18.828C62.1269 19.9293 62.3976 21.1707 62.3976 22.552C62.3976 22.7573 62.3883 22.944 62.3696 23.112C62.3696 23.28 62.3603 23.4107 62.3416 23.504H51.3096C51.4589 24.9227 51.9536 25.9867 52.7936 26.696C53.6523 27.4053 54.6229 27.76 55.7056 27.76C56.6763 27.76 57.4789 27.5453 58.1136 27.116C58.7483 26.668 59.2523 26.1173 59.6256 25.464L62.1176 26.668C61.5016 27.788 60.6616 28.7027 59.5976 29.412C58.5336 30.1027 57.2083 30.448 55.6216 30.448ZM55.4816 17.848C54.4736 17.848 53.6149 18.156 52.9056 18.772C52.1963 19.388 51.7203 20.2093 51.4776 21.236H59.4016C59.3643 20.7507 59.2056 20.2467 58.9256 19.724C58.6456 19.2013 58.2163 18.7627 57.6376 18.408C57.0776 18.0347 56.3589 17.848 55.4816 17.848ZM65.4751 36.048V15.72H68.3031V17.652H68.4711C68.8444 17.036 69.4231 16.4853 70.2071 16C71.0097 15.5147 71.9617 15.272 73.0631 15.272C74.3697 15.272 75.5364 15.5987 76.5631 16.252C77.5897 16.9053 78.4017 17.8013 78.9991 18.94C79.6151 20.0787 79.9231 21.3853 79.9231 22.86C79.9231 24.3347 79.6151 25.6507 78.9991 26.808C78.4017 27.9467 77.5897 28.8427 76.5631 29.496C75.5364 30.1307 74.3697 30.448 73.0631 30.448C71.9617 30.448 71.0097 30.2147 70.2071 29.748C69.4231 29.2627 68.8444 28.712 68.4711 28.096H68.3031L68.4711 30.084V36.048H65.4751ZM72.6151 27.676C73.3617 27.676 74.0617 27.48 74.7151 27.088C75.3684 26.696 75.9004 26.1453 76.3111 25.436C76.7217 24.708 76.9271 23.8493 76.9271 22.86C76.9271 21.8707 76.7217 21.0213 76.3111 20.312C75.9004 19.584 75.3684 19.024 74.7151 18.632C74.0617 18.24 73.3617 18.044 72.6151 18.044C71.8684 18.044 71.1684 18.24 70.5151 18.632C69.8617 19.024 69.3297 19.584 68.9191 20.312C68.5084 21.0213 68.3031 21.8707 68.3031 22.86C68.3031 23.8493 68.5084 24.708 68.9191 25.436C69.3297 26.1453 69.8617 26.696 70.5151 27.088C71.1684 27.48 71.8684 27.676 72.6151 27.676ZM82.8109 30V15.72H89.8949C90.7349 15.72 91.4815 15.888 92.1349 16.224C92.8069 16.5413 93.3295 16.98 93.7029 17.54C94.0949 18.1 94.2909 18.7253 94.2909 19.416C94.2909 20.1627 94.1229 20.8067 93.7869 21.348C93.4695 21.8893 93.0495 22.2907 92.5269 22.552V22.72C93.2362 23 93.7962 23.42 94.2069 23.98C94.6362 24.54 94.8509 25.184 94.8509 25.912C94.8509 26.752 94.6269 27.48 94.1789 28.096C93.7495 28.712 93.1895 29.188 92.4989 29.524C91.8082 29.8413 91.0709 30 90.2869 30H82.8109ZM85.8349 18.184V21.544H89.5309C90.0349 21.544 90.4549 21.3853 90.7909 21.068C91.1269 20.7507 91.2949 20.3493 91.2949 19.864C91.2949 19.36 91.1269 18.9587 90.7909 18.66C90.4549 18.3427 90.0349 18.184 89.5309 18.184H85.8349ZM85.8349 27.48H89.9789C90.5202 27.48 90.9682 27.312 91.3229 26.976C91.6962 26.6213 91.8829 26.1733 91.8829 25.632C91.8829 25.1093 91.6962 24.6707 91.3229 24.316C90.9682 23.9613 90.5202 23.784 89.9789 23.784H85.8349V27.48ZM97.9585 30V15.72H100.983V23.028L100.815 25.716H100.983L108.123 15.72H111.119V30H108.123V22.72L108.291 20.032H108.123L100.983 30H97.9585ZM114.938 36.048V15.72H117.766V17.652H117.934C118.307 17.036 118.886 16.4853 119.67 16C120.472 15.5147 121.424 15.272 122.526 15.272C123.832 15.272 124.999 15.5987 126.026 16.252C127.052 16.9053 127.864 17.8013 128.462 18.94C129.078 20.0787 129.386 21.3853 129.386 22.86C129.386 24.3347 129.078 25.6507 128.462 26.808C127.864 27.9467 127.052 28.8427 126.026 29.496C124.999 30.1307 123.832 30.448 122.526 30.448C121.424 30.448 120.472 30.2147 119.67 29.748C118.886 29.2627 118.307 28.712 117.934 28.096H117.766L117.934 30.084V36.048H114.938ZM122.078 27.676C122.824 27.676 123.524 27.48 124.178 27.088C124.831 26.696 125.363 26.1453 125.774 25.436C126.184 24.708 126.39 23.8493 126.39 22.86C126.39 21.8707 126.184 21.0213 125.774 20.312C125.363 19.584 124.831 19.024 124.178 18.632C123.524 18.24 122.824 18.044 122.078 18.044C121.331 18.044 120.631 18.24 119.978 18.632C119.324 19.024 118.792 19.584 118.382 20.312C117.971 21.0213 117.766 21.8707 117.766 22.86C117.766 23.8493 117.971 24.708 118.382 25.436C118.792 26.1453 119.324 26.696 119.978 27.088C120.631 27.48 121.331 27.676 122.078 27.676ZM136.89 30.448C135.863 30.448 134.949 30.252 134.146 29.86C133.343 29.4493 132.718 28.88 132.27 28.152C131.822 27.424 131.598 26.5933 131.598 25.66C131.598 24.652 131.859 23.7933 132.382 23.084C132.923 22.356 133.642 21.8053 134.538 21.432C135.434 21.0587 136.423 20.872 137.506 20.872C138.402 20.872 139.186 20.956 139.858 21.124C140.549 21.292 141.071 21.4693 141.426 21.656V20.9C141.426 19.9667 141.09 19.22 140.418 18.66C139.746 18.1 138.878 17.82 137.814 17.82C137.086 17.82 136.395 17.988 135.742 18.324C135.089 18.6413 134.566 19.08 134.174 19.64L132.102 18.044C132.718 17.1853 133.53 16.5133 134.538 16.028C135.565 15.524 136.685 15.272 137.898 15.272C139.97 15.272 141.566 15.7853 142.686 16.812C143.806 17.82 144.366 19.2387 144.366 21.068V30H141.426V28.236H141.258C140.885 28.8147 140.325 29.328 139.578 29.776C138.831 30.224 137.935 30.448 136.89 30.448ZM137.422 27.984C138.206 27.984 138.897 27.7973 139.494 27.424C140.091 27.0507 140.558 26.5653 140.894 25.968C141.249 25.352 141.426 24.6893 141.426 23.98C140.997 23.7373 140.493 23.5413 139.914 23.392C139.335 23.224 138.719 23.14 138.066 23.14C136.834 23.14 135.957 23.392 135.434 23.896C134.911 24.3813 134.65 24.9787 134.65 25.688C134.65 26.36 134.902 26.9107 135.406 27.34C135.91 27.7693 136.582 27.984 137.422 27.984ZM147.995 30V15.72H151.019V21.46H157.795V15.72H160.819V30H157.795V24.092H151.019V30H147.995ZM171.034 30.448C169.634 30.448 168.383 30.1213 167.282 29.468C166.181 28.8147 165.313 27.9187 164.678 26.78C164.062 25.6413 163.754 24.344 163.754 22.888C163.754 21.5253 164.053 20.2653 164.65 19.108C165.247 17.9507 166.078 17.0267 167.142 16.336C168.225 15.6267 169.466 15.272 170.866 15.272C172.341 15.272 173.591 15.5893 174.618 16.224C175.663 16.8587 176.457 17.7267 176.998 18.828C177.539 19.9293 177.81 21.1707 177.81 22.552C177.81 22.7573 177.801 22.944 177.782 23.112C177.782 23.28 177.773 23.4107 177.754 23.504H166.722C166.871 24.9227 167.366 25.9867 168.206 26.696C169.065 27.4053 170.035 27.76 171.118 27.76C172.089 27.76 172.891 27.5453 173.526 27.116C174.161 26.668 174.665 26.1173 175.038 25.464L177.53 26.668C176.914 27.788 176.074 28.7027 175.01 29.412C173.946 30.1027 172.621 30.448 171.034 30.448ZM170.894 17.848C169.886 17.848 169.027 18.156 168.318 18.772C167.609 19.388 167.133 20.2093 166.89 21.236H174.814C174.777 20.7507 174.618 20.2467 174.338 19.724C174.058 19.2013 173.629 18.7627 173.05 18.408C172.49 18.0347 171.771 17.848 170.894 17.848ZM195.955 30V24.848C195.563 25.128 195.068 25.352 194.471 25.52C193.873 25.6693 193.22 25.744 192.511 25.744C190.868 25.744 189.552 25.268 188.563 24.316C187.592 23.364 187.107 22.076 187.107 20.452V15.72H190.131V20.144C190.131 21.04 190.383 21.7493 190.887 22.272C191.409 22.776 192.137 23.028 193.071 23.028C193.649 23.028 194.191 22.944 194.695 22.776C195.217 22.5893 195.637 22.3467 195.955 22.048V15.72H198.951V30H195.955ZM202.788 36.048V15.72H205.616V17.652H205.784C206.158 17.036 206.736 16.4853 207.52 16C208.323 15.5147 209.275 15.272 210.376 15.272C211.683 15.272 212.85 15.5987 213.876 16.252C214.903 16.9053 215.715 17.8013 216.312 18.94C216.928 20.0787 217.236 21.3853 217.236 22.86C217.236 24.3347 216.928 25.6507 216.312 26.808C215.715 27.9467 214.903 28.8427 213.876 29.496C212.85 30.1307 211.683 30.448 210.376 30.448C209.275 30.448 208.323 30.2147 207.52 29.748C206.736 29.2627 206.158 28.712 205.784 28.096H205.616L205.784 30.084V36.048H202.788ZM209.928 27.676C210.675 27.676 211.375 27.48 212.028 27.088C212.682 26.696 213.214 26.1453 213.624 25.436C214.035 24.708 214.24 23.8493 214.24 22.86C214.24 21.8707 214.035 21.0213 213.624 20.312C213.214 19.584 212.682 19.024 212.028 18.632C211.375 18.24 210.675 18.044 209.928 18.044C209.182 18.044 208.482 18.24 207.828 18.632C207.175 19.024 206.643 19.584 206.232 20.312C205.822 21.0213 205.616 21.8707 205.616 22.86C205.616 23.8493 205.822 24.708 206.232 25.436C206.643 26.1453 207.175 26.696 207.828 27.088C208.482 27.48 209.182 27.676 209.928 27.676ZM226.785 30.448C225.385 30.448 224.134 30.1213 223.033 29.468C221.932 28.8147 221.064 27.9187 220.429 26.78C219.813 25.6413 219.505 24.344 219.505 22.888C219.505 21.5253 219.804 20.2653 220.401 19.108C220.998 17.9507 221.829 17.0267 222.893 16.336C223.976 15.6267 225.217 15.272 226.617 15.272C228.092 15.272 229.342 15.5893 230.369 16.224C231.414 16.8587 232.208 17.7267 232.749 18.828C233.29 19.9293 233.561 21.1707 233.561 22.552C233.561 22.7573 233.552 22.944 233.533 23.112C233.533 23.28 233.524 23.4107 233.505 23.504H222.473C222.622 24.9227 223.117 25.9867 223.957 26.696C224.816 27.4053 225.786 27.76 226.869 27.76C227.84 27.76 228.642 27.5453 229.277 27.116C229.912 26.668 230.416 26.1173 230.789 25.464L233.281 26.668C232.665 27.788 231.825 28.7027 230.761 29.412C229.697 30.1027 228.372 30.448 226.785 30.448ZM226.645 17.848C225.637 17.848 224.778 18.156 224.069 18.772C223.36 19.388 222.884 20.2093 222.641 21.236H230.565C230.528 20.7507 230.369 20.2467 230.089 19.724C229.809 19.2013 229.38 18.7627 228.801 18.408C228.241 18.0347 227.522 17.848 226.645 17.848ZM241.215 30.448C240.431 30.448 239.647 30.3547 238.863 30.168C238.079 29.9813 237.342 29.664 236.651 29.216C235.979 28.7493 235.419 28.1053 234.971 27.284L237.379 25.884C237.902 26.612 238.499 27.116 239.171 27.396C239.862 27.6573 240.543 27.788 241.215 27.788C242.186 27.788 242.923 27.6013 243.427 27.228C243.931 26.8547 244.183 26.3693 244.183 25.772C244.183 25.2493 243.95 24.8293 243.483 24.512C243.035 24.176 242.401 24.008 241.579 24.008H239.255V21.628H241.579C242.289 21.628 242.83 21.46 243.203 21.124C243.595 20.788 243.791 20.3587 243.791 19.836C243.791 19.22 243.53 18.7347 243.007 18.38C242.485 18.0067 241.822 17.82 241.019 17.82C240.31 17.82 239.629 17.9693 238.975 18.268C238.322 18.548 237.827 18.9307 237.491 19.416L235.251 17.932C235.905 17.1107 236.726 16.4667 237.715 16C238.723 15.5147 239.834 15.272 241.047 15.272C242.093 15.272 243.035 15.4493 243.875 15.804C244.734 16.1587 245.406 16.6533 245.891 17.288C246.395 17.904 246.647 18.6227 246.647 19.444C246.647 20.1533 246.47 20.788 246.115 21.348C245.761 21.8893 245.294 22.3 244.715 22.58V22.748C245.443 23.0467 246.031 23.4947 246.479 24.092C246.927 24.6893 247.151 25.3707 247.151 26.136C247.151 26.976 246.909 27.7227 246.423 28.376C245.938 29.0107 245.247 29.5147 244.351 29.888C243.455 30.2613 242.41 30.448 241.215 30.448Z" fill="#3C4043"/>
<g id="GPay Logo (Light)">
<g id="GPay">
<g id="Pay">
<path id="Fill 1" fill-rule="evenodd" clip-rule="evenodd" d="M298.529 9.44664V17.6128H303.565C304.765 17.6128 305.757 17.2096 306.541 16.4032C307.347 15.5988 307.75 14.6394 307.75 13.5288C307.75 12.4406 307.347 11.4924 306.541 10.686C305.757 9.85915 304.765 9.44478 303.565 9.44478H298.529V9.44664ZM298.529 20.4872V29.9599H295.521V6.57217H303.499C305.527 6.57217 307.248 7.24786 308.666 8.59737C310.105 9.94688 310.824 11.5913 310.824 13.5288C310.824 15.511 310.105 17.1667 308.666 18.4938C307.27 19.8227 305.547 20.4854 303.499 20.4854H298.529V20.4872Z" fill="#5F6368"/>
<path id="Fill 3" fill-rule="evenodd" clip-rule="evenodd" d="M313.864 25.0602C313.864 25.8442 314.197 26.4975 314.862 27.0201C315.527 27.5427 316.306 27.804 317.2 27.804C318.465 27.804 319.591 27.3354 320.584 26.4004C321.576 25.4634 322.071 24.364 322.071 23.1022C321.133 22.3612 319.825 21.9916 318.147 21.9916C316.925 21.9916 315.907 22.2865 315.09 22.8745C314.273 23.4623 313.864 24.1886 313.864 25.0602ZM317.756 13.4317C319.98 13.4317 321.735 14.0252 323.022 15.2124C324.308 16.3995 324.95 18.0271 324.95 20.0952V29.9599H322.073V27.7387H321.942C320.699 29.5677 319.042 30.4825 316.972 30.4825C315.206 30.4825 313.728 29.9599 312.541 28.9146C311.353 27.8694 310.759 26.5628 310.759 24.9949C310.759 23.3393 311.385 22.0232 312.638 21.0434C313.892 20.0635 315.565 19.5726 317.658 19.5726C319.444 19.5726 320.916 19.8992 322.071 20.5525V19.8656C322.071 18.8204 321.656 17.9338 320.829 17.204C319.999 16.4741 319.031 16.1102 317.919 16.1102C316.239 16.1102 314.911 16.8176 313.93 18.2343L311.28 16.5675C312.741 14.4769 314.899 13.4317 317.756 13.4317Z" fill="#5F6368"/>
<path id="Fill 5" fill-rule="evenodd" clip-rule="evenodd" d="M341.463 13.9543L331.424 37.0154H328.318L332.046 28.9464L325.44 13.9543H328.71L333.484 25.4522H333.55L338.193 13.9543H341.463Z" fill="#5F6368"/>
</g>
<g id="G">
<path id="Fill 8" fill-rule="evenodd" clip-rule="evenodd" d="M286.373 18.4452C286.373 17.4989 286.293 16.5861 286.141 15.7126H273.454V20.8885H280.72C280.408 22.5757 279.465 24.0112 278.033 24.9725V28.3341H282.37C284.91 25.9935 286.373 22.5348 286.373 18.4452Z" fill="#4285F4"/>
<path id="Fill 10" fill-rule="evenodd" clip-rule="evenodd" d="M273.454 31.5782C277.084 31.5782 280.141 30.3873 282.37 28.3341L278.033 24.9725C276.826 25.7844 275.272 26.2585 273.454 26.2585C269.944 26.2585 266.966 23.8955 265.901 20.7112H261.433V24.1736C263.647 28.5637 268.197 31.5782 273.454 31.5782Z" fill="#34A853"/>
<path id="Fill 12" fill-rule="evenodd" clip-rule="evenodd" d="M265.901 20.7111C265.628 19.8992 265.479 19.0331 265.479 18.139C265.479 17.245 265.628 16.3789 265.901 15.567V12.1045H261.433C260.518 13.9188 260 15.9683 260 18.139C260 20.3098 260.518 22.3595 261.433 24.1736L265.901 20.7111Z" fill="#FABB05"/>
<path id="Fill 14" fill-rule="evenodd" clip-rule="evenodd" d="M273.454 10.0196C275.436 10.0196 277.213 10.7009 278.615 12.0355V12.0374L282.455 8.20162C280.123 6.03271 277.082 4.7 273.454 4.7C268.197 4.7 263.647 7.71446 261.433 12.1046L265.901 15.567C266.966 12.3827 269.944 10.0196 273.454 10.0196Z" fill="#E94235"/>
</g>
</g>
</g>
</g>
</svg>
