<svg width="167" height="21" viewBox="0 0 167 21" fill="none" xmlns="http://www.w3.org/2000/svg">
<g id="bg_buy_with_Pay_NBG">
<path id="Left Text" d="M1.46475 15.0006V3.54461H3.22475V9.09661H3.32075L7.88075 3.54461H10.0887V3.64061L5.25675 9.36861L10.3447 14.9046V15.0006H8.04075L3.32075 9.75261H3.22475V15.0006H1.46475ZM13.8295 18.0566C13.7975 18.1313 13.7602 18.2059 13.7175 18.2806C13.6855 18.3659 13.6642 18.4246 13.6535 18.4566H11.8135C11.8668 18.3393 11.9415 18.1739 12.0375 17.9606C12.1442 17.7473 12.2455 17.5339 12.3415 17.3206C12.4055 17.1819 12.4695 17.0326 12.5335 16.8726C12.6082 16.7126 12.6828 16.5473 12.7575 16.3766C12.8428 16.2059 12.9228 16.0406 12.9975 15.8806L13.6055 14.5526L10.1975 6.84061H12.1175L14.4535 12.4086H14.5335L16.7895 6.84061H18.6935L14.4695 16.5686C14.3948 16.7499 14.3095 16.9419 14.2135 17.1446C14.1282 17.3473 14.0482 17.5286 13.9735 17.6886C13.9095 17.8593 13.8615 17.9819 13.8295 18.0566ZM20.0861 15.0006V6.84061H27.2541V15.0006H25.5261V8.34461H21.8141V15.0006H20.0861ZM32.2076 18.0566C32.1756 18.1313 32.1383 18.2059 32.0956 18.2806C32.0636 18.3659 32.0423 18.4246 32.0316 18.4566H30.1916C30.245 18.3393 30.3196 18.1739 30.4156 17.9606C30.5223 17.7473 30.6236 17.5339 30.7196 17.3206C30.7836 17.1819 30.8476 17.0326 30.9116 16.8726C30.9863 16.7126 31.061 16.5473 31.1356 16.3766C31.221 16.2059 31.301 16.0406 31.3756 15.8806L31.9836 14.5526L28.5756 6.84061H30.4956L32.8316 12.4086H32.9116L35.1676 6.84061H37.0716L32.8476 16.5686C32.773 16.7499 32.6876 16.9419 32.5916 17.1446C32.5063 17.3473 32.4263 17.5286 32.3516 17.6886C32.2876 17.8593 32.2396 17.9819 32.2076 18.0566ZM38.4642 15.0006V6.84061H42.5122C42.9922 6.84061 43.4189 6.93661 43.7922 7.12861C44.1762 7.30994 44.4749 7.56061 44.6882 7.88061C44.9122 8.20061 45.0242 8.55794 45.0242 8.95261C45.0242 9.37928 44.9282 9.74728 44.7362 10.0566C44.5549 10.3659 44.3149 10.5953 44.0162 10.7446V10.8406C44.4216 11.0006 44.7416 11.2406 44.9762 11.5606C45.2216 11.8806 45.3442 12.2486 45.3442 12.6646C45.3442 13.1446 45.2162 13.5606 44.9602 13.9126C44.7149 14.2646 44.3949 14.5366 44.0002 14.7286C43.6056 14.9099 43.1842 15.0006 42.7362 15.0006H38.4642ZM40.1922 11.4486V13.5606H42.5602C42.8696 13.5606 43.1256 13.4646 43.3282 13.2726C43.5416 13.0699 43.6482 12.8139 43.6482 12.5046C43.6482 12.2059 43.5416 11.9553 43.3282 11.7526C43.1256 11.5499 42.8696 11.4486 42.5602 11.4486H40.1922ZM40.1922 8.24861V10.1686H42.3042C42.5922 10.1686 42.8322 10.0779 43.0242 9.89661C43.2162 9.71528 43.3122 9.48594 43.3122 9.20861C43.3122 8.92061 43.2162 8.69128 43.0242 8.52061C42.8322 8.33928 42.5922 8.24861 42.3042 8.24861H40.1922ZM49.6586 15.2566C49.072 15.2566 48.5493 15.1393 48.0906 14.9046C47.6426 14.6699 47.2853 14.3499 47.0186 13.9446C46.7626 13.5286 46.6346 13.0539 46.6346 12.5206C46.6346 11.9339 46.784 11.4379 47.0826 11.0326C47.392 10.6273 47.8026 10.3179 48.3146 10.1046C48.8266 9.89128 49.392 9.78461 50.0106 9.78461C50.352 9.78461 50.6666 9.81128 50.9546 9.86461C51.2533 9.90728 51.5093 9.96061 51.7226 10.0246C51.9466 10.0886 52.1226 10.1579 52.2506 10.2326V9.80061C52.2506 9.26728 52.0586 8.84061 51.6746 8.52061C51.2906 8.20061 50.7946 8.04061 50.1866 8.04061C49.7706 8.04061 49.376 8.13661 49.0026 8.32861C48.6293 8.50994 48.3306 8.76061 48.1066 9.08061L46.9226 8.16861C47.1573 7.83794 47.44 7.55528 47.7706 7.32061C48.112 7.08594 48.4906 6.90461 48.9066 6.77661C49.3333 6.64861 49.776 6.58461 50.2346 6.58461C51.4186 6.58461 52.3306 6.87794 52.9706 7.46461C53.6106 8.04061 53.9306 8.85128 53.9306 9.89661V15.0006H52.2506V13.9926H52.1546C52.016 14.2059 51.824 14.4086 51.5786 14.6006C51.344 14.7926 51.0613 14.9473 50.7306 15.0646C50.4106 15.1926 50.0533 15.2566 49.6586 15.2566ZM49.9626 13.8486C50.4106 13.8486 50.8053 13.7419 51.1466 13.5286C51.4986 13.3153 51.7706 13.0379 51.9626 12.6966C52.1546 12.3446 52.2506 11.9659 52.2506 11.5606C52.016 11.4219 51.728 11.3099 51.3866 11.2246C51.056 11.1286 50.704 11.0806 50.3306 11.0806C49.6266 11.0806 49.1253 11.2193 48.8266 11.4966C48.528 11.7739 48.3786 12.1206 48.3786 12.5366C48.3786 12.9206 48.5226 13.2353 48.8106 13.4806C49.0986 13.7259 49.4826 13.8486 49.9626 13.8486ZM55.983 15.0006V6.84061H57.711V10.1206H61.583V6.84061H63.311V15.0006H61.583V11.6246H57.711V15.0006H55.983ZM69.1266 15.2566C68.3266 15.2566 67.612 15.0699 66.9826 14.6966C66.3533 14.3233 65.8573 13.8113 65.4946 13.1606C65.1426 12.5099 64.9666 11.7686 64.9666 10.9366C64.9666 10.1579 65.1373 9.43794 65.4786 8.77661C65.82 8.11528 66.2946 7.58728 66.9026 7.19261C67.5213 6.78728 68.2306 6.58461 69.0306 6.58461C69.8733 6.58461 70.588 6.76594 71.1746 7.12861C71.772 7.49128 72.2253 7.98728 72.5346 8.61661C72.844 9.24594 72.9986 9.95528 72.9986 10.7446C72.9986 10.8619 72.9933 10.9686 72.9826 11.0646C72.9826 11.1606 72.9773 11.2353 72.9666 11.2886H66.6626C66.7053 11.7366 66.8173 12.1259 66.9986 12.4566C67.2333 12.8726 67.5426 13.1873 67.9266 13.4006C68.3106 13.6139 68.7266 13.7206 69.1746 13.7206C69.7186 13.7206 70.172 13.5979 70.5346 13.3526C70.908 13.0966 71.2013 12.7819 71.4146 12.4086L72.8386 13.0966C72.4866 13.7366 72.0066 14.2593 71.3986 14.6646C70.7906 15.0593 70.0333 15.2566 69.1266 15.2566ZM66.7586 9.99261H71.2866C71.276 9.78994 71.2226 9.57661 71.1266 9.35261C71.0306 9.11794 70.892 8.90461 70.7106 8.71261C70.5293 8.52061 70.3 8.36594 70.0226 8.24861C69.7453 8.12061 69.42 8.05661 69.0466 8.05661C68.5773 8.05661 68.1613 8.17928 67.7986 8.42461C67.436 8.65928 67.1533 8.98994 66.9506 9.41661C66.8653 9.59794 66.8013 9.78994 66.7586 9.99261ZM83.3241 15.0006V12.0566C83.1001 12.2166 82.8175 12.3446 82.4761 12.4406C82.1348 12.5259 81.7615 12.5686 81.3561 12.5686C80.4175 12.5686 79.6655 12.2966 79.1001 11.7526C78.5455 11.2086 78.2681 10.4726 78.2681 9.54461V6.84061H79.9961V9.36861C79.9961 9.88061 80.1401 10.2859 80.4281 10.5846C80.7268 10.8726 81.1428 11.0166 81.6761 11.0166C81.9961 11.0166 82.3055 10.9686 82.6041 10.8726C82.9135 10.7659 83.1535 10.6273 83.3241 10.4566V6.84061H85.0361V15.0006H83.3241ZM87.2076 18.4566V6.84061H88.8236V7.94461H88.9196C89.069 7.70994 89.2663 7.49128 89.5116 7.28861C89.7676 7.07528 90.0663 6.90461 90.4076 6.77661C90.749 6.64861 91.1276 6.58461 91.5436 6.58461C92.2903 6.58461 92.957 6.77128 93.5436 7.14461C94.1303 7.51794 94.5943 8.02994 94.9356 8.68061C95.2876 9.33128 95.4636 10.0779 95.4636 10.9206C95.4636 11.7633 95.2876 12.5099 94.9356 13.1606C94.5943 13.8113 94.1303 14.3233 93.5436 14.6966C92.957 15.0699 92.2903 15.2566 91.5436 15.2566C90.925 15.2566 90.3863 15.1179 89.9276 14.8406C89.469 14.5633 89.133 14.2539 88.9196 13.9126H88.8236L88.9196 15.0486V18.4566H87.2076ZM91.2876 13.6726C91.7143 13.6726 92.1143 13.5606 92.4876 13.3366C92.8716 13.1126 93.1756 12.7926 93.3996 12.3766C93.6343 11.9606 93.7516 11.4753 93.7516 10.9206C93.7516 10.3553 93.6343 9.86994 93.3996 9.46461C93.1756 9.04861 92.8716 8.72861 92.4876 8.50461C92.1143 8.28061 91.7143 8.16861 91.2876 8.16861C90.861 8.16861 90.461 8.28061 90.0876 8.50461C89.7143 8.72861 89.4103 9.04861 89.1756 9.46461C88.941 9.86994 88.8236 10.3553 88.8236 10.9206C88.8236 11.4859 88.941 11.9766 89.1756 12.3926C89.4103 12.7979 89.7143 13.1126 90.0876 13.3366C90.461 13.5606 90.861 13.6726 91.2876 13.6726ZM100.898 15.2566C100.098 15.2566 99.3838 15.0699 98.7545 14.6966C98.1252 14.3233 97.6292 13.8113 97.2665 13.1606C96.9145 12.5099 96.7385 11.7686 96.7385 10.9366C96.7385 10.1579 96.9092 9.43794 97.2505 8.77661C97.5918 8.11528 98.0665 7.58728 98.6745 7.19261C99.2932 6.78728 100.002 6.58461 100.802 6.58461C101.645 6.58461 102.36 6.76594 102.946 7.12861C103.544 7.49128 103.997 7.98728 104.306 8.61661C104.616 9.24594 104.77 9.95528 104.77 10.7446C104.77 10.8619 104.765 10.9686 104.754 11.0646C104.754 11.1606 104.749 11.2353 104.738 11.2886H98.4345C98.4772 11.7366 98.5892 12.1259 98.7705 12.4566C99.0052 12.8726 99.3145 13.1873 99.6985 13.4006C100.082 13.6139 100.498 13.7206 100.946 13.7206C101.49 13.7206 101.944 13.5979 102.306 13.3526C102.68 13.0966 102.973 12.7819 103.186 12.4086L104.61 13.0966C104.258 13.7366 103.778 14.2593 103.17 14.6646C102.562 15.0593 101.805 15.2566 100.898 15.2566ZM98.5305 9.99261H103.058C103.048 9.78994 102.994 9.57661 102.898 9.35261C102.802 9.11794 102.664 8.90461 102.482 8.71261C102.301 8.52061 102.072 8.36594 101.794 8.24861C101.517 8.12061 101.192 8.05661 100.818 8.05661C100.349 8.05661 99.9332 8.17928 99.5705 8.42461C99.2078 8.65928 98.9252 8.98994 98.7225 9.41661C98.6372 9.59794 98.5732 9.78994 98.5305 9.99261ZM109.123 15.2566C108.686 15.2566 108.238 15.2033 107.779 15.0966C107.331 14.9899 106.915 14.8086 106.531 14.5526C106.147 14.2859 105.822 13.9179 105.555 13.4486L106.931 12.6486C107.23 13.0646 107.571 13.3526 107.955 13.5126C108.35 13.6619 108.739 13.7366 109.123 13.7366C109.678 13.7366 110.099 13.6299 110.387 13.4166C110.675 13.2033 110.819 12.9259 110.819 12.5846C110.819 12.2859 110.686 12.0459 110.419 11.8646C110.163 11.6726 109.8 11.5766 109.331 11.5766H108.003V10.2166H109.331C109.736 10.2166 110.046 10.1206 110.259 9.92861C110.483 9.73661 110.595 9.49128 110.595 9.19261C110.595 8.84061 110.446 8.56328 110.147 8.36061C109.848 8.14728 109.47 8.04061 109.011 8.04061C108.606 8.04061 108.216 8.12594 107.843 8.29661C107.47 8.45661 107.187 8.67528 106.995 8.95261L105.715 8.10461C105.96 7.78461 106.254 7.51261 106.595 7.28861C106.936 7.06461 107.31 6.89394 107.715 6.77661C108.131 6.64861 108.568 6.58461 109.027 6.58461C109.635 6.58461 110.179 6.68594 110.659 6.88861C111.139 7.09128 111.518 7.37394 111.795 7.73661C112.083 8.08861 112.227 8.49928 112.227 8.96861C112.227 9.37394 112.126 9.73661 111.923 10.0566C111.72 10.3766 111.454 10.6113 111.123 10.7606V10.8566C111.539 11.0273 111.875 11.2833 112.131 11.6246C112.387 11.9659 112.515 12.3553 112.515 12.7926C112.515 13.2726 112.371 13.6993 112.083 14.0726C111.806 14.4459 111.411 14.7393 110.899 14.9526C110.398 15.1553 109.806 15.2566 109.123 15.2566Z" fill="white"/>
<g id="GPay (Dark)">
<g id="GPay">
<g id="Pay">
<path id="Fill 1" fill-rule="evenodd" clip-rule="evenodd" d="M141.356 3.42339V8.16175H144.278C144.974 8.16175 145.55 7.92781 146.005 7.45993C146.473 6.99313 146.707 6.43644 146.707 5.79203C146.707 5.16061 146.473 4.61041 146.005 4.14254C145.55 3.66274 144.974 3.4223 144.278 3.4223H141.356V3.42339ZM141.356 9.82966V15.3262H139.611V1.75549H144.24C145.417 1.75549 146.415 2.14756 147.238 2.93061C148.073 3.71365 148.491 4.66782 148.491 5.79203C148.491 6.94224 148.073 7.90291 147.238 8.67296C146.428 9.44409 145.429 9.82858 144.24 9.82858H141.356V9.82966Z" fill="white"/>
<path id="Fill 3" fill-rule="evenodd" clip-rule="evenodd" d="M150.255 12.4831C150.255 12.9379 150.448 13.317 150.834 13.6203C151.22 13.9235 151.672 14.0752 152.19 14.0752C152.924 14.0752 153.578 13.8032 154.153 13.2607C154.729 12.717 155.017 12.0791 155.017 11.3469C154.472 10.917 153.713 10.7025 152.74 10.7025C152.031 10.7025 151.44 10.8736 150.966 11.2148C150.492 11.5559 150.255 11.9773 150.255 12.4831M152.513 5.73566C153.803 5.73566 154.821 6.08007 155.569 6.76889C156.314 7.45771 156.687 8.40213 156.687 9.60216V15.3261H155.018V14.0373H154.942C154.221 15.0985 153.259 15.6294 152.058 15.6294C151.033 15.6294 150.176 15.3261 149.487 14.7196C148.797 14.1131 148.453 13.3549 148.453 12.4452C148.453 11.4845 148.816 10.7208 149.543 10.1523C150.271 9.58375 151.241 9.2989 152.456 9.2989C153.492 9.2989 154.346 9.48844 155.017 9.86751V9.46894C155.017 8.86243 154.776 8.34798 154.296 7.92451C153.814 7.50103 153.252 7.28984 152.607 7.28984C151.633 7.28984 150.862 7.70032 150.293 8.52235L148.755 7.55519C149.603 6.34217 150.855 5.73566 152.513 5.73566" fill="white"/>
<path id="Fill 5" fill-rule="evenodd" clip-rule="evenodd" d="M166.269 6.03894L160.443 19.4201H158.641L160.804 14.738L156.971 6.03894H158.869L161.639 12.7106H161.677L164.371 6.03894H166.269Z" fill="white"/>
</g>
<g id="G">
<path id="Fill 8" fill-rule="evenodd" clip-rule="evenodd" d="M134.303 8.64473C134.303 8.09563 134.256 7.56601 134.168 7.05914H126.806V10.0625H131.023C130.842 11.0414 130.294 11.8744 129.464 12.4322V14.3828H131.98C133.454 13.0246 134.303 11.0177 134.303 8.64473" fill="#4285F4"/>
<path id="Fill 10" fill-rule="evenodd" clip-rule="evenodd" d="M126.806 16.2651C128.913 16.2651 130.687 15.5741 131.98 14.3828L129.464 12.4322C128.763 12.9033 127.861 13.1784 126.806 13.1784C124.77 13.1784 123.042 11.8073 122.424 9.95959H119.832V11.9687C121.116 14.516 123.757 16.2651 126.806 16.2651" fill="#34A853"/>
<path id="Fill 12" fill-rule="evenodd" clip-rule="evenodd" d="M122.424 9.9596C122.266 9.48847 122.179 8.98593 122.179 8.46715C122.179 7.94837 122.266 7.44583 122.424 6.9747V4.96564H119.832C119.3 6.01837 119 7.20756 119 8.46715C119 9.72674 119.3 10.916 119.832 11.9687L122.424 9.9596Z" fill="#FABB05"/>
<path id="Fill 14" fill-rule="evenodd" clip-rule="evenodd" d="M126.806 3.75583C127.957 3.75583 128.988 4.15115 129.801 4.92553V4.92661L132.029 2.70094C130.676 1.44243 128.912 0.669128 126.806 0.669128C123.757 0.669128 121.116 2.41826 119.832 4.9656L122.424 6.97467C123.042 5.12698 124.77 3.75583 126.806 3.75583" fill="#E94235"/>
</g>
</g>
</g>
</g>
</svg>
