<svg width="164" height="21" viewBox="0 0 164 21" fill="none" xmlns="http://www.w3.org/2000/svg">
<g id="bg_checkout_with_Pay_NBG">
<path id="Left Text" d="M1.38037 15.0006V3.54461H10.0204V15.0006H8.26037V5.20861H3.14037V15.0006H1.38037ZM12.6047 15.1286C12.4874 15.1286 12.3647 15.1179 12.2367 15.0966C12.1194 15.0859 12.0074 15.0699 11.9007 15.0486V13.4486C11.9754 13.4806 12.0607 13.5073 12.1567 13.5286C12.2527 13.5499 12.3327 13.5606 12.3967 13.5606C12.7594 13.5606 13.0154 13.4219 13.1647 13.1446C13.3141 12.8566 13.4047 12.4939 13.4367 12.0566C13.4687 11.6193 13.4847 11.1659 13.4847 10.6966V6.84061H19.7247V15.0006H18.0127V8.34461H15.1167V10.9686C15.1167 11.5126 15.0794 12.0353 15.0047 12.5366C14.9301 13.0379 14.8021 13.4859 14.6207 13.8806C14.4501 14.2646 14.1994 14.5686 13.8687 14.7926C13.5487 15.0166 13.1274 15.1286 12.6047 15.1286ZM24.3899 15.2566C23.8032 15.2566 23.2805 15.1393 22.8219 14.9046C22.3739 14.6699 22.0165 14.3499 21.7499 13.9446C21.4939 13.5286 21.3659 13.0539 21.3659 12.5206C21.3659 11.9339 21.5152 11.4379 21.8139 11.0326C22.1232 10.6273 22.5339 10.3179 23.0459 10.1046C23.5579 9.89128 24.1232 9.78461 24.7419 9.78461C25.0832 9.78461 25.3979 9.81128 25.6859 9.86461C25.9845 9.90728 26.2405 9.96061 26.4539 10.0246C26.6779 10.0886 26.8539 10.1579 26.9819 10.2326V9.80061C26.9819 9.26728 26.7899 8.84061 26.4059 8.52061C26.0219 8.20061 25.5259 8.04061 24.9179 8.04061C24.5019 8.04061 24.1072 8.13661 23.7339 8.32861C23.3605 8.50994 23.0619 8.76061 22.8379 9.08061L21.6539 8.16861C21.8885 7.83794 22.1712 7.55528 22.5019 7.32061C22.8432 7.08594 23.2219 6.90461 23.6379 6.77661C24.0645 6.64861 24.5072 6.58461 24.9659 6.58461C26.1499 6.58461 27.0619 6.87794 27.7019 7.46461C28.3419 8.04061 28.6619 8.85128 28.6619 9.89661V15.0006H26.9819V13.9926H26.8859C26.7472 14.2059 26.5552 14.4086 26.3099 14.6006C26.0752 14.7926 25.7925 14.9473 25.4619 15.0646C25.1419 15.1926 24.7845 15.2566 24.3899 15.2566ZM24.6939 13.8486C25.1419 13.8486 25.5365 13.7419 25.8779 13.5286C26.2299 13.3153 26.5019 13.0379 26.6939 12.6966C26.8859 12.3446 26.9819 11.9659 26.9819 11.5606C26.7472 11.4219 26.4592 11.3099 26.1179 11.2246C25.7872 11.1286 25.4352 11.0806 25.0619 11.0806C24.3579 11.0806 23.8565 11.2193 23.5579 11.4966C23.2592 11.7739 23.1099 12.1206 23.1099 12.5366C23.1099 12.9206 23.2539 13.2353 23.5419 13.4806C23.8299 13.7259 24.2139 13.8486 24.6939 13.8486ZM30.7142 15.0006V6.84061H32.4262V13.4966H35.1142V6.84061H36.8262V13.4966H39.5142V6.84061H41.2262V13.4486H42.4102V17.4326H40.8263V15.0006H30.7142ZM46.6586 15.2566C46.072 15.2566 45.5493 15.1393 45.0906 14.9046C44.6426 14.6699 44.2853 14.3499 44.0186 13.9446C43.7626 13.5286 43.6346 13.0539 43.6346 12.5206C43.6346 11.9339 43.784 11.4379 44.0826 11.0326C44.392 10.6273 44.8026 10.3179 45.3146 10.1046C45.8266 9.89128 46.392 9.78461 47.0106 9.78461C47.352 9.78461 47.6666 9.81128 47.9546 9.86461C48.2533 9.90728 48.5093 9.96061 48.7226 10.0246C48.9466 10.0886 49.1226 10.1579 49.2506 10.2326V9.80061C49.2506 9.26728 49.0586 8.84061 48.6746 8.52061C48.2906 8.20061 47.7946 8.04061 47.1866 8.04061C46.7706 8.04061 46.376 8.13661 46.0026 8.32861C45.6293 8.50994 45.3306 8.76061 45.1066 9.08061L43.9226 8.16861C44.1573 7.83794 44.44 7.55528 44.7706 7.32061C45.112 7.08594 45.4906 6.90461 45.9066 6.77661C46.3333 6.64861 46.776 6.58461 47.2346 6.58461C48.4186 6.58461 49.3306 6.87794 49.9706 7.46461C50.6106 8.04061 50.9306 8.85128 50.9306 9.89661V15.0006H49.2506V13.9926H49.1546C49.016 14.2059 48.824 14.4086 48.5786 14.6006C48.344 14.7926 48.0613 14.9473 47.7306 15.0646C47.4106 15.1926 47.0533 15.2566 46.6586 15.2566ZM46.9626 13.8486C47.4106 13.8486 47.8053 13.7419 48.1466 13.5286C48.4986 13.3153 48.7706 13.0379 48.9626 12.6966C49.1546 12.3446 49.2506 11.9659 49.2506 11.5606C49.016 11.4219 48.728 11.3099 48.3866 11.2246C48.056 11.1286 47.704 11.0806 47.3306 11.0806C46.6266 11.0806 46.1253 11.2193 45.8266 11.4966C45.528 11.7739 45.3786 12.1206 45.3786 12.5366C45.3786 12.9206 45.5226 13.2353 45.8106 13.4806C46.0986 13.7259 46.4826 13.8486 46.9626 13.8486ZM52.983 15.0006V6.84061H54.711V10.1206H58.583V6.84061H60.311V15.0006H58.583V11.6246H54.711V15.0006H52.983ZM66.1266 15.2566C65.3266 15.2566 64.612 15.0699 63.9826 14.6966C63.3533 14.3233 62.8573 13.8113 62.4946 13.1606C62.1426 12.5099 61.9666 11.7686 61.9666 10.9366C61.9666 10.1579 62.1373 9.43794 62.4786 8.77661C62.82 8.11528 63.2946 7.58728 63.9026 7.19261C64.5213 6.78728 65.2306 6.58461 66.0306 6.58461C66.8733 6.58461 67.588 6.76594 68.1746 7.12861C68.772 7.49128 69.2253 7.98728 69.5346 8.61661C69.844 9.24594 69.9986 9.95528 69.9986 10.7446C69.9986 10.8619 69.9933 10.9686 69.9826 11.0646C69.9826 11.1606 69.9773 11.2353 69.9666 11.2886H63.6626C63.7053 11.7366 63.8173 12.1259 63.9986 12.4566C64.2333 12.8726 64.5426 13.1873 64.9266 13.4006C65.3106 13.6139 65.7266 13.7206 66.1746 13.7206C66.7186 13.7206 67.172 13.5979 67.5346 13.3526C67.908 13.0966 68.2013 12.7819 68.4146 12.4086L69.8386 13.0966C69.4866 13.7366 69.0066 14.2593 68.3986 14.6646C67.7906 15.0593 67.0333 15.2566 66.1266 15.2566ZM63.7586 9.99261H68.2866C68.276 9.78994 68.2226 9.57661 68.1266 9.35261C68.0306 9.11794 67.892 8.90461 67.7106 8.71261C67.5293 8.52061 67.3 8.36594 67.0226 8.24861C66.7453 8.12061 66.42 8.05661 66.0466 8.05661C65.5773 8.05661 65.1613 8.17928 64.7986 8.42461C64.436 8.65928 64.1533 8.98994 63.9506 9.41661C63.8653 9.59794 63.8013 9.78994 63.7586 9.99261ZM80.3241 15.0006V12.0566C80.1001 12.2166 79.8175 12.3446 79.4761 12.4406C79.1348 12.5259 78.7615 12.5686 78.3561 12.5686C77.4175 12.5686 76.6655 12.2966 76.1001 11.7526C75.5455 11.2086 75.2681 10.4726 75.2681 9.54461V6.84061H76.9961V9.36861C76.9961 9.88061 77.1401 10.2859 77.4281 10.5846C77.7268 10.8726 78.1428 11.0166 78.6761 11.0166C78.9961 11.0166 79.3055 10.9686 79.6041 10.8726C79.9135 10.7659 80.1535 10.6273 80.3241 10.4566V6.84061H82.0361V15.0006H80.3241ZM84.2076 18.4566V6.84061H85.8236V7.94461H85.9196C86.069 7.70994 86.2663 7.49128 86.5116 7.28861C86.7676 7.07528 87.0663 6.90461 87.4076 6.77661C87.749 6.64861 88.1276 6.58461 88.5436 6.58461C89.2903 6.58461 89.957 6.77128 90.5436 7.14461C91.1303 7.51794 91.5943 8.02994 91.9356 8.68061C92.2876 9.33128 92.4636 10.0779 92.4636 10.9206C92.4636 11.7633 92.2876 12.5099 91.9356 13.1606C91.5943 13.8113 91.1303 14.3233 90.5436 14.6966C89.957 15.0699 89.2903 15.2566 88.5436 15.2566C87.925 15.2566 87.3863 15.1179 86.9276 14.8406C86.469 14.5633 86.133 14.2539 85.9196 13.9126H85.8236L85.9196 15.0486V18.4566H84.2076ZM88.2876 13.6726C88.7143 13.6726 89.1143 13.5606 89.4876 13.3366C89.8716 13.1126 90.1756 12.7926 90.3996 12.3766C90.6343 11.9606 90.7516 11.4753 90.7516 10.9206C90.7516 10.3553 90.6343 9.86994 90.3996 9.46461C90.1756 9.04861 89.8716 8.72861 89.4876 8.50461C89.1143 8.28061 88.7143 8.16861 88.2876 8.16861C87.861 8.16861 87.461 8.28061 87.0876 8.50461C86.7143 8.72861 86.4103 9.04861 86.1756 9.46461C85.941 9.86994 85.8236 10.3553 85.8236 10.9206C85.8236 11.4859 85.941 11.9766 86.1756 12.3926C86.4103 12.7979 86.7143 13.1126 87.0876 13.3366C87.461 13.5606 87.861 13.6726 88.2876 13.6726ZM97.8985 15.2566C97.0985 15.2566 96.3838 15.0699 95.7545 14.6966C95.1252 14.3233 94.6292 13.8113 94.2665 13.1606C93.9145 12.5099 93.7385 11.7686 93.7385 10.9366C93.7385 10.1579 93.9092 9.43794 94.2505 8.77661C94.5918 8.11528 95.0665 7.58728 95.6745 7.19261C96.2932 6.78728 97.0025 6.58461 97.8025 6.58461C98.6452 6.58461 99.3598 6.76594 99.9465 7.12861C100.544 7.49128 100.997 7.98728 101.306 8.61661C101.616 9.24594 101.77 9.95528 101.77 10.7446C101.77 10.8619 101.765 10.9686 101.754 11.0646C101.754 11.1606 101.749 11.2353 101.738 11.2886H95.4345C95.4772 11.7366 95.5892 12.1259 95.7705 12.4566C96.0052 12.8726 96.3145 13.1873 96.6985 13.4006C97.0825 13.6139 97.4985 13.7206 97.9465 13.7206C98.4905 13.7206 98.9438 13.5979 99.3065 13.3526C99.6798 13.0966 99.9732 12.7819 100.186 12.4086L101.61 13.0966C101.258 13.7366 100.778 14.2593 100.17 14.6646C99.5625 15.0593 98.8052 15.2566 97.8985 15.2566ZM95.5305 9.99261H100.058C100.048 9.78994 99.9945 9.57661 99.8985 9.35261C99.8025 9.11794 99.6638 8.90461 99.4825 8.71261C99.3012 8.52061 99.0718 8.36594 98.7945 8.24861C98.5172 8.12061 98.1918 8.05661 97.8185 8.05661C97.3492 8.05661 96.9332 8.17928 96.5705 8.42461C96.2078 8.65928 95.9252 8.98994 95.7225 9.41661C95.6372 9.59794 95.5732 9.78994 95.5305 9.99261ZM106.123 15.2566C105.686 15.2566 105.238 15.2033 104.779 15.0966C104.331 14.9899 103.915 14.8086 103.531 14.5526C103.147 14.2859 102.822 13.9179 102.555 13.4486L103.931 12.6486C104.23 13.0646 104.571 13.3526 104.955 13.5126C105.35 13.6619 105.739 13.7366 106.123 13.7366C106.678 13.7366 107.099 13.6299 107.387 13.4166C107.675 13.2033 107.819 12.9259 107.819 12.5846C107.819 12.2859 107.686 12.0459 107.419 11.8646C107.163 11.6726 106.8 11.5766 106.331 11.5766H105.003V10.2166H106.331C106.736 10.2166 107.046 10.1206 107.259 9.92861C107.483 9.73661 107.595 9.49128 107.595 9.19261C107.595 8.84061 107.446 8.56328 107.147 8.36061C106.848 8.14728 106.47 8.04061 106.011 8.04061C105.606 8.04061 105.216 8.12594 104.843 8.29661C104.47 8.45661 104.187 8.67528 103.995 8.95261L102.715 8.10461C102.96 7.78461 103.254 7.51261 103.595 7.28861C103.936 7.06461 104.31 6.89394 104.715 6.77661C105.131 6.64861 105.568 6.58461 106.027 6.58461C106.635 6.58461 107.179 6.68594 107.659 6.88861C108.139 7.09128 108.518 7.37394 108.795 7.73661C109.083 8.08861 109.227 8.49928 109.227 8.96861C109.227 9.37394 109.126 9.73661 108.923 10.0566C108.72 10.3766 108.454 10.6113 108.123 10.7606V10.8566C108.539 11.0273 108.875 11.2833 109.131 11.6246C109.387 11.9659 109.515 12.3553 109.515 12.7926C109.515 13.2726 109.371 13.6993 109.083 14.0726C108.806 14.4459 108.411 14.7393 107.899 14.9526C107.398 15.1553 106.806 15.2566 106.123 15.2566Z" fill="white"/>
<g id="GPay (Dark)">
<g id="GPay">
<g id="Pay">
<path id="Fill 1" fill-rule="evenodd" clip-rule="evenodd" d="M138.356 3.42339V8.16175H141.278C141.974 8.16175 142.55 7.92781 143.005 7.45993C143.473 6.99313 143.707 6.43644 143.707 5.79203C143.707 5.16061 143.473 4.61041 143.005 4.14254C142.55 3.66274 141.974 3.4223 141.278 3.4223H138.356V3.42339ZM138.356 9.82966V15.3262H136.611V1.75549H141.24C142.417 1.75549 143.415 2.14756 144.238 2.93061C145.073 3.71365 145.491 4.66782 145.491 5.79203C145.491 6.94224 145.073 7.90291 144.238 8.67296C143.428 9.44409 142.429 9.82858 141.24 9.82858H138.356V9.82966Z" fill="white"/>
<path id="Fill 3" fill-rule="evenodd" clip-rule="evenodd" d="M147.255 12.4831C147.255 12.9379 147.448 13.317 147.834 13.6203C148.22 13.9235 148.672 14.0752 149.19 14.0752C149.924 14.0752 150.578 13.8032 151.153 13.2607C151.729 12.717 152.017 12.0791 152.017 11.3469C151.472 10.917 150.713 10.7025 149.74 10.7025C149.031 10.7025 148.44 10.8736 147.966 11.2148C147.492 11.5559 147.255 11.9773 147.255 12.4831M149.513 5.73566C150.803 5.73566 151.821 6.08007 152.569 6.76889C153.314 7.45771 153.687 8.40213 153.687 9.60216V15.3261H152.018V14.0373H151.942C151.221 15.0985 150.259 15.6294 149.058 15.6294C148.033 15.6294 147.176 15.3261 146.487 14.7196C145.797 14.1131 145.453 13.3549 145.453 12.4452C145.453 11.4845 145.816 10.7208 146.543 10.1523C147.271 9.58375 148.241 9.2989 149.456 9.2989C150.492 9.2989 151.346 9.48844 152.017 9.86751V9.46894C152.017 8.86243 151.776 8.34798 151.296 7.92451C150.814 7.50103 150.252 7.28984 149.607 7.28984C148.633 7.28984 147.862 7.70032 147.293 8.52235L145.755 7.55519C146.603 6.34217 147.855 5.73566 149.513 5.73566" fill="white"/>
<path id="Fill 5" fill-rule="evenodd" clip-rule="evenodd" d="M163.269 6.03894L157.443 19.4201H155.641L157.804 14.738L153.971 6.03894H155.869L158.639 12.7106H158.677L161.371 6.03894H163.269Z" fill="white"/>
</g>
<g id="G">
<path id="Fill 8" fill-rule="evenodd" clip-rule="evenodd" d="M131.303 8.64473C131.303 8.09563 131.256 7.56601 131.168 7.05914H123.806V10.0625H128.023C127.842 11.0414 127.294 11.8744 126.464 12.4322V14.3828H128.98C130.454 13.0246 131.303 11.0177 131.303 8.64473" fill="#4285F4"/>
<path id="Fill 10" fill-rule="evenodd" clip-rule="evenodd" d="M123.806 16.2651C125.913 16.2651 127.687 15.5741 128.98 14.3828L126.464 12.4322C125.763 12.9033 124.861 13.1784 123.806 13.1784C121.77 13.1784 120.042 11.8073 119.424 9.95959H116.832V11.9687C118.116 14.516 120.757 16.2651 123.806 16.2651" fill="#34A853"/>
<path id="Fill 12" fill-rule="evenodd" clip-rule="evenodd" d="M119.424 9.9596C119.266 9.48847 119.179 8.98593 119.179 8.46715C119.179 7.94837 119.266 7.44583 119.424 6.9747V4.96564H116.832C116.3 6.01837 116 7.20756 116 8.46715C116 9.72674 116.3 10.916 116.832 11.9687L119.424 9.9596Z" fill="#FABB05"/>
<path id="Fill 14" fill-rule="evenodd" clip-rule="evenodd" d="M123.806 3.75583C124.957 3.75583 125.988 4.15115 126.801 4.92553V4.92661L129.029 2.70094C127.676 1.44243 125.912 0.669128 123.806 0.669128C120.757 0.669128 118.116 2.41826 116.832 4.9656L119.424 6.97467C120.042 5.12698 121.77 3.75583 123.806 3.75583" fill="#E94235"/>
</g>
</g>
</g>
</g>
</svg>
