<svg width="169" height="21" viewBox="0 0 169 21" fill="none" xmlns="http://www.w3.org/2000/svg">
<g id="bg_donate_with_Pay_NBG">
<path id="Left Text" d="M0.776372 17.4326V13.3366H1.78437C1.96571 13.0379 2.12037 12.6646 2.24837 12.2166C2.38704 11.7686 2.49371 11.2779 2.56837 10.7446C2.65371 10.2006 2.71771 9.63528 2.76037 9.04861C2.80304 8.45128 2.82437 7.85928 2.82437 7.27261V3.54461H10.1684V13.3366H11.5124V17.4326H9.80037V15.0006H2.48837V17.4326H0.776372ZM3.70437 13.3366H8.40837V5.20861H4.53637V7.52861C4.53637 8.30728 4.50437 9.04328 4.44037 9.73661C4.37637 10.4299 4.28037 11.0753 4.15237 11.6726C4.03504 12.2593 3.88571 12.7819 3.70437 13.2406V13.3366ZM15.8086 15.2566C15.222 15.2566 14.6993 15.1393 14.2406 14.9046C13.7926 14.6699 13.4353 14.3499 13.1686 13.9446C12.9126 13.5286 12.7846 13.0539 12.7846 12.5206C12.7846 11.9339 12.934 11.4379 13.2326 11.0326C13.542 10.6273 13.9526 10.3179 14.4646 10.1046C14.9766 9.89128 15.542 9.78461 16.1606 9.78461C16.502 9.78461 16.8166 9.81128 17.1046 9.86461C17.4033 9.90728 17.6593 9.96061 17.8726 10.0246C18.0966 10.0886 18.2726 10.1579 18.4006 10.2326V9.80061C18.4006 9.26728 18.2086 8.84061 17.8246 8.52061C17.4406 8.20061 16.9446 8.04061 16.3366 8.04061C15.9206 8.04061 15.526 8.13661 15.1526 8.32861C14.7793 8.50994 14.4806 8.76061 14.2566 9.08061L13.0726 8.16861C13.3073 7.83794 13.59 7.55528 13.9206 7.32061C14.262 7.08594 14.6406 6.90461 15.0566 6.77661C15.4833 6.64861 15.926 6.58461 16.3846 6.58461C17.5686 6.58461 18.4806 6.87794 19.1206 7.46461C19.7606 8.04061 20.0806 8.85128 20.0806 9.89661V15.0006H18.4006V13.9926H18.3046C18.166 14.2059 17.974 14.4086 17.7286 14.6006C17.494 14.7926 17.2113 14.9473 16.8806 15.0646C16.5606 15.1926 16.2033 15.2566 15.8086 15.2566ZM16.1126 13.8486C16.5606 13.8486 16.9553 13.7419 17.2966 13.5286C17.6486 13.3153 17.9206 13.0379 18.1126 12.6966C18.3046 12.3446 18.4006 11.9659 18.4006 11.5606C18.166 11.4219 17.878 11.3099 17.5366 11.2246C17.206 11.1286 16.854 11.0806 16.4806 11.0806C15.7766 11.0806 15.2753 11.2193 14.9766 11.4966C14.678 11.7739 14.5286 12.1206 14.5286 12.5366C14.5286 12.9206 14.6726 13.2353 14.9606 13.4806C15.2486 13.7259 15.6326 13.8486 16.1126 13.8486ZM22.117 18.4566V6.84061H23.733V7.94461H23.829C23.9783 7.70994 24.1757 7.49128 24.421 7.28861C24.677 7.07528 24.9757 6.90461 25.317 6.77661C25.6583 6.64861 26.037 6.58461 26.453 6.58461C27.1997 6.58461 27.8663 6.77128 28.453 7.14461C29.0397 7.51794 29.5037 8.02994 29.845 8.68061C30.197 9.33128 30.373 10.0779 30.373 10.9206C30.373 11.7633 30.197 12.5099 29.845 13.1606C29.5037 13.8113 29.0397 14.3233 28.453 14.6966C27.8663 15.0699 27.1997 15.2566 26.453 15.2566C25.8343 15.2566 25.2957 15.1179 24.837 14.8406C24.3783 14.5633 24.0423 14.2539 23.829 13.9126H23.733L23.829 15.0486V18.4566H22.117ZM26.197 13.6726C26.6237 13.6726 27.0237 13.5606 27.397 13.3366C27.781 13.1126 28.085 12.7926 28.309 12.3766C28.5437 11.9606 28.661 11.4753 28.661 10.9206C28.661 10.3553 28.5437 9.86994 28.309 9.46461C28.085 9.04861 27.781 8.72861 27.397 8.50461C27.0237 8.28061 26.6237 8.16861 26.197 8.16861C25.7703 8.16861 25.3703 8.28061 24.997 8.50461C24.6237 8.72861 24.3197 9.04861 24.085 9.46461C23.8503 9.86994 23.733 10.3553 23.733 10.9206C23.733 11.4859 23.8503 11.9766 24.085 12.3926C24.3197 12.7979 24.6237 13.1126 24.997 13.3366C25.3703 13.5606 25.7703 13.6726 26.197 13.6726ZM36.5625 15.0006V12.2326H35.4265L33.3785 15.0006H31.4425V14.9046L33.6185 12.0726L33.5865 11.9766C33.5118 11.9553 33.4425 11.9286 33.3785 11.8966C32.9092 11.6619 32.5358 11.3419 32.2585 10.9366C31.9918 10.5313 31.8585 10.0726 31.8585 9.56061C31.8585 9.03794 31.9865 8.57394 32.2425 8.16861C32.4985 7.75261 32.8452 7.42728 33.2825 7.19261C33.7305 6.95794 34.2318 6.84061 34.7865 6.84061H38.2905V15.0006H36.5625ZM36.5625 10.8566V8.28061H34.9145C34.5412 8.28061 34.2212 8.40328 33.9545 8.64861C33.6985 8.88328 33.5705 9.18728 33.5705 9.56061C33.5705 9.93394 33.6985 10.2433 33.9545 10.4886C34.2212 10.7339 34.5412 10.8566 34.9145 10.8566H36.5625ZM40.4642 15.0006V6.84061H44.5122C44.9922 6.84061 45.4189 6.93661 45.7922 7.12861C46.1762 7.30994 46.4749 7.56061 46.6882 7.88061C46.9122 8.20061 47.0242 8.55794 47.0242 8.95261C47.0242 9.37928 46.9282 9.74728 46.7362 10.0566C46.5549 10.3659 46.3149 10.5953 46.0162 10.7446V10.8406C46.4216 11.0006 46.7416 11.2406 46.9762 11.5606C47.2216 11.8806 47.3442 12.2486 47.3442 12.6646C47.3442 13.1446 47.2162 13.5606 46.9602 13.9126C46.7149 14.2646 46.3949 14.5366 46.0002 14.7286C45.6056 14.9099 45.1842 15.0006 44.7362 15.0006H40.4642ZM42.1922 11.4486V13.5606H44.5602C44.8696 13.5606 45.1256 13.4646 45.3282 13.2726C45.5416 13.0699 45.6482 12.8139 45.6482 12.5046C45.6482 12.2059 45.5416 11.9553 45.3282 11.7526C45.1256 11.5499 44.8696 11.4486 44.5602 11.4486H42.1922ZM42.1922 8.24861V10.1686H44.3042C44.5922 10.1686 44.8322 10.0779 45.0242 9.89661C45.2162 9.71528 45.3122 9.48594 45.3122 9.20861C45.3122 8.92061 45.2162 8.69128 45.0242 8.52061C44.8322 8.33928 44.5922 8.24861 44.3042 8.24861H42.1922ZM51.6586 15.2566C51.072 15.2566 50.5493 15.1393 50.0906 14.9046C49.6426 14.6699 49.2853 14.3499 49.0186 13.9446C48.7626 13.5286 48.6346 13.0539 48.6346 12.5206C48.6346 11.9339 48.784 11.4379 49.0826 11.0326C49.392 10.6273 49.8026 10.3179 50.3146 10.1046C50.8266 9.89128 51.392 9.78461 52.0106 9.78461C52.352 9.78461 52.6666 9.81128 52.9546 9.86461C53.2533 9.90728 53.5093 9.96061 53.7226 10.0246C53.9466 10.0886 54.1226 10.1579 54.2506 10.2326V9.80061C54.2506 9.26728 54.0586 8.84061 53.6746 8.52061C53.2906 8.20061 52.7946 8.04061 52.1866 8.04061C51.7706 8.04061 51.376 8.13661 51.0026 8.32861C50.6293 8.50994 50.3306 8.76061 50.1066 9.08061L48.9226 8.16861C49.1573 7.83794 49.44 7.55528 49.7706 7.32061C50.112 7.08594 50.4906 6.90461 50.9066 6.77661C51.3333 6.64861 51.776 6.58461 52.2346 6.58461C53.4186 6.58461 54.3306 6.87794 54.9706 7.46461C55.6106 8.04061 55.9306 8.85128 55.9306 9.89661V15.0006H54.2506V13.9926H54.1546C54.016 14.2059 53.824 14.4086 53.5786 14.6006C53.344 14.7926 53.0613 14.9473 52.7306 15.0646C52.4106 15.1926 52.0533 15.2566 51.6586 15.2566ZM51.9626 13.8486C52.4106 13.8486 52.8053 13.7419 53.1466 13.5286C53.4986 13.3153 53.7706 13.0379 53.9626 12.6966C54.1546 12.3446 54.2506 11.9659 54.2506 11.5606C54.016 11.4219 53.728 11.3099 53.3866 11.2246C53.056 11.1286 52.704 11.0806 52.3306 11.0806C51.6266 11.0806 51.1253 11.2193 50.8266 11.4966C50.528 11.7739 50.3786 12.1206 50.3786 12.5366C50.3786 12.9206 50.5226 13.2353 50.8106 13.4806C51.0986 13.7259 51.4826 13.8486 51.9626 13.8486ZM57.983 15.0006V6.84061H59.711V10.1206H63.583V6.84061H65.311V15.0006H63.583V11.6246H59.711V15.0006H57.983ZM71.1266 15.2566C70.3266 15.2566 69.612 15.0699 68.9826 14.6966C68.3533 14.3233 67.8573 13.8113 67.4946 13.1606C67.1426 12.5099 66.9666 11.7686 66.9666 10.9366C66.9666 10.1579 67.1373 9.43794 67.4786 8.77661C67.82 8.11528 68.2946 7.58728 68.9026 7.19261C69.5213 6.78728 70.2306 6.58461 71.0306 6.58461C71.8733 6.58461 72.588 6.76594 73.1746 7.12861C73.772 7.49128 74.2253 7.98728 74.5346 8.61661C74.844 9.24594 74.9986 9.95528 74.9986 10.7446C74.9986 10.8619 74.9933 10.9686 74.9826 11.0646C74.9826 11.1606 74.9773 11.2353 74.9666 11.2886H68.6626C68.7053 11.7366 68.8173 12.1259 68.9986 12.4566C69.2333 12.8726 69.5426 13.1873 69.9266 13.4006C70.3106 13.6139 70.7266 13.7206 71.1746 13.7206C71.7186 13.7206 72.172 13.5979 72.5346 13.3526C72.908 13.0966 73.2013 12.7819 73.4146 12.4086L74.8386 13.0966C74.4866 13.7366 74.0066 14.2593 73.3986 14.6646C72.7906 15.0593 72.0333 15.2566 71.1266 15.2566ZM68.7586 9.99261H73.2866C73.276 9.78994 73.2226 9.57661 73.1266 9.35261C73.0306 9.11794 72.892 8.90461 72.7106 8.71261C72.5293 8.52061 72.3 8.36594 72.0226 8.24861C71.7453 8.12061 71.42 8.05661 71.0466 8.05661C70.5773 8.05661 70.1613 8.17928 69.7986 8.42461C69.436 8.65928 69.1533 8.98994 68.9506 9.41661C68.8653 9.59794 68.8013 9.78994 68.7586 9.99261ZM85.3241 15.0006V12.0566C85.1001 12.2166 84.8175 12.3446 84.4761 12.4406C84.1348 12.5259 83.7615 12.5686 83.3561 12.5686C82.4175 12.5686 81.6655 12.2966 81.1001 11.7526C80.5455 11.2086 80.2681 10.4726 80.2681 9.54461V6.84061H81.9961V9.36861C81.9961 9.88061 82.1401 10.2859 82.4281 10.5846C82.7268 10.8726 83.1428 11.0166 83.6761 11.0166C83.9961 11.0166 84.3055 10.9686 84.6041 10.8726C84.9135 10.7659 85.1535 10.6273 85.3241 10.4566V6.84061H87.0361V15.0006H85.3241ZM89.2076 18.4566V6.84061H90.8236V7.94461H90.9196C91.069 7.70994 91.2663 7.49128 91.5116 7.28861C91.7676 7.07528 92.0663 6.90461 92.4076 6.77661C92.749 6.64861 93.1276 6.58461 93.5436 6.58461C94.2903 6.58461 94.957 6.77128 95.5436 7.14461C96.1303 7.51794 96.5943 8.02994 96.9356 8.68061C97.2876 9.33128 97.4636 10.0779 97.4636 10.9206C97.4636 11.7633 97.2876 12.5099 96.9356 13.1606C96.5943 13.8113 96.1303 14.3233 95.5436 14.6966C94.957 15.0699 94.2903 15.2566 93.5436 15.2566C92.925 15.2566 92.3863 15.1179 91.9276 14.8406C91.469 14.5633 91.133 14.2539 90.9196 13.9126H90.8236L90.9196 15.0486V18.4566H89.2076ZM93.2876 13.6726C93.7143 13.6726 94.1143 13.5606 94.4876 13.3366C94.8716 13.1126 95.1756 12.7926 95.3996 12.3766C95.6343 11.9606 95.7516 11.4753 95.7516 10.9206C95.7516 10.3553 95.6343 9.86994 95.3996 9.46461C95.1756 9.04861 94.8716 8.72861 94.4876 8.50461C94.1143 8.28061 93.7143 8.16861 93.2876 8.16861C92.861 8.16861 92.461 8.28061 92.0876 8.50461C91.7143 8.72861 91.4103 9.04861 91.1756 9.46461C90.941 9.86994 90.8236 10.3553 90.8236 10.9206C90.8236 11.4859 90.941 11.9766 91.1756 12.3926C91.4103 12.7979 91.7143 13.1126 92.0876 13.3366C92.461 13.5606 92.861 13.6726 93.2876 13.6726ZM102.898 15.2566C102.098 15.2566 101.384 15.0699 100.754 14.6966C100.125 14.3233 99.6292 13.8113 99.2665 13.1606C98.9145 12.5099 98.7385 11.7686 98.7385 10.9366C98.7385 10.1579 98.9092 9.43794 99.2505 8.77661C99.5918 8.11528 100.066 7.58728 100.674 7.19261C101.293 6.78728 102.002 6.58461 102.802 6.58461C103.645 6.58461 104.36 6.76594 104.946 7.12861C105.544 7.49128 105.997 7.98728 106.306 8.61661C106.616 9.24594 106.77 9.95528 106.77 10.7446C106.77 10.8619 106.765 10.9686 106.754 11.0646C106.754 11.1606 106.749 11.2353 106.738 11.2886H100.434C100.477 11.7366 100.589 12.1259 100.77 12.4566C101.005 12.8726 101.314 13.1873 101.698 13.4006C102.082 13.6139 102.498 13.7206 102.946 13.7206C103.49 13.7206 103.944 13.5979 104.306 13.3526C104.68 13.0966 104.973 12.7819 105.186 12.4086L106.61 13.0966C106.258 13.7366 105.778 14.2593 105.17 14.6646C104.562 15.0593 103.805 15.2566 102.898 15.2566ZM100.53 9.99261H105.058C105.048 9.78994 104.994 9.57661 104.898 9.35261C104.802 9.11794 104.664 8.90461 104.482 8.71261C104.301 8.52061 104.072 8.36594 103.794 8.24861C103.517 8.12061 103.192 8.05661 102.818 8.05661C102.349 8.05661 101.933 8.17928 101.57 8.42461C101.208 8.65928 100.925 8.98994 100.722 9.41661C100.637 9.59794 100.573 9.78994 100.53 9.99261ZM111.123 15.2566C110.686 15.2566 110.238 15.2033 109.779 15.0966C109.331 14.9899 108.915 14.8086 108.531 14.5526C108.147 14.2859 107.822 13.9179 107.555 13.4486L108.931 12.6486C109.23 13.0646 109.571 13.3526 109.955 13.5126C110.35 13.6619 110.739 13.7366 111.123 13.7366C111.678 13.7366 112.099 13.6299 112.387 13.4166C112.675 13.2033 112.819 12.9259 112.819 12.5846C112.819 12.2859 112.686 12.0459 112.419 11.8646C112.163 11.6726 111.8 11.5766 111.331 11.5766H110.003V10.2166H111.331C111.736 10.2166 112.046 10.1206 112.259 9.92861C112.483 9.73661 112.595 9.49128 112.595 9.19261C112.595 8.84061 112.446 8.56328 112.147 8.36061C111.848 8.14728 111.47 8.04061 111.011 8.04061C110.606 8.04061 110.216 8.12594 109.843 8.29661C109.47 8.45661 109.187 8.67528 108.995 8.95261L107.715 8.10461C107.96 7.78461 108.254 7.51261 108.595 7.28861C108.936 7.06461 109.31 6.89394 109.715 6.77661C110.131 6.64861 110.568 6.58461 111.027 6.58461C111.635 6.58461 112.179 6.68594 112.659 6.88861C113.139 7.09128 113.518 7.37394 113.795 7.73661C114.083 8.08861 114.227 8.49928 114.227 8.96861C114.227 9.37394 114.126 9.73661 113.923 10.0566C113.72 10.3766 113.454 10.6113 113.123 10.7606V10.8566C113.539 11.0273 113.875 11.2833 114.131 11.6246C114.387 11.9659 114.515 12.3553 114.515 12.7926C114.515 13.2726 114.371 13.6993 114.083 14.0726C113.806 14.4459 113.411 14.7393 112.899 14.9526C112.398 15.1553 111.806 15.2566 111.123 15.2566Z" fill="white"/>
<g id="GPay (Dark)">
<g id="GPay">
<g id="Pay">
<path id="Fill 1" fill-rule="evenodd" clip-rule="evenodd" d="M143.356 3.42339V8.16175H146.278C146.974 8.16175 147.55 7.92781 148.005 7.45993C148.473 6.99313 148.707 6.43644 148.707 5.79203C148.707 5.16061 148.473 4.61041 148.005 4.14254C147.55 3.66274 146.974 3.4223 146.278 3.4223H143.356V3.42339ZM143.356 9.82966V15.3262H141.611V1.75549H146.24C147.417 1.75549 148.415 2.14756 149.238 2.93061C150.073 3.71365 150.491 4.66782 150.491 5.79203C150.491 6.94224 150.073 7.90291 149.238 8.67296C148.428 9.44409 147.429 9.82858 146.24 9.82858H143.356V9.82966Z" fill="white"/>
<path id="Fill 3" fill-rule="evenodd" clip-rule="evenodd" d="M152.255 12.4831C152.255 12.9379 152.448 13.317 152.834 13.6203C153.22 13.9235 153.672 14.0752 154.19 14.0752C154.924 14.0752 155.578 13.8032 156.153 13.2607C156.729 12.717 157.017 12.0791 157.017 11.3469C156.472 10.917 155.713 10.7025 154.74 10.7025C154.031 10.7025 153.44 10.8736 152.966 11.2148C152.492 11.5559 152.255 11.9773 152.255 12.4831M154.513 5.73566C155.803 5.73566 156.821 6.08007 157.569 6.76889C158.314 7.45771 158.687 8.40213 158.687 9.60216V15.3261H157.018V14.0373H156.942C156.221 15.0985 155.259 15.6294 154.058 15.6294C153.033 15.6294 152.176 15.3261 151.487 14.7196C150.797 14.1131 150.453 13.3549 150.453 12.4452C150.453 11.4845 150.816 10.7208 151.543 10.1523C152.271 9.58375 153.241 9.2989 154.456 9.2989C155.492 9.2989 156.346 9.48844 157.017 9.86751V9.46894C157.017 8.86243 156.776 8.34798 156.296 7.92451C155.814 7.50103 155.252 7.28984 154.607 7.28984C153.633 7.28984 152.862 7.70032 152.293 8.52235L150.755 7.55519C151.603 6.34217 152.855 5.73566 154.513 5.73566" fill="white"/>
<path id="Fill 5" fill-rule="evenodd" clip-rule="evenodd" d="M168.269 6.03894L162.443 19.4201H160.641L162.804 14.738L158.971 6.03894H160.869L163.639 12.7106H163.677L166.371 6.03894H168.269Z" fill="white"/>
</g>
<g id="G">
<path id="Fill 8" fill-rule="evenodd" clip-rule="evenodd" d="M136.303 8.64473C136.303 8.09563 136.256 7.56601 136.168 7.05914H128.806V10.0625H133.023C132.842 11.0414 132.294 11.8744 131.464 12.4322V14.3828H133.98C135.454 13.0246 136.303 11.0177 136.303 8.64473" fill="#4285F4"/>
<path id="Fill 10" fill-rule="evenodd" clip-rule="evenodd" d="M128.806 16.2651C130.913 16.2651 132.687 15.5741 133.98 14.3828L131.464 12.4322C130.763 12.9033 129.861 13.1784 128.806 13.1784C126.77 13.1784 125.042 11.8073 124.424 9.95959H121.832V11.9687C123.116 14.516 125.757 16.2651 128.806 16.2651" fill="#34A853"/>
<path id="Fill 12" fill-rule="evenodd" clip-rule="evenodd" d="M124.424 9.9596C124.266 9.48847 124.179 8.98593 124.179 8.46715C124.179 7.94837 124.266 7.44583 124.424 6.9747V4.96564H121.832C121.3 6.01837 121 7.20756 121 8.46715C121 9.72674 121.3 10.916 121.832 11.9687L124.424 9.9596Z" fill="#FABB05"/>
<path id="Fill 14" fill-rule="evenodd" clip-rule="evenodd" d="M128.806 3.75583C129.957 3.75583 130.988 4.15115 131.801 4.92553V4.92661L134.029 2.70094C132.676 1.44243 130.912 0.669128 128.806 0.669128C125.757 0.669128 123.116 2.41826 121.832 4.9656L124.424 6.97467C125.042 5.12698 126.77 3.75583 128.806 3.75583" fill="#E94235"/>
</g>
</g>
</g>
</g>
</svg>
