<svg width="296" height="38" viewBox="0 0 296 38" fill="none" xmlns="http://www.w3.org/2000/svg">
<g id="bg_donate_with_Dark">
<path id="Text" d="M1.65865 34.256V27.088H3.42265C3.85198 26.3787 4.19732 25.464 4.45865 24.344C4.73865 23.2053 4.93465 21.9547 5.04665 20.592C5.17732 19.2293 5.24265 17.8573 5.24265 16.476V9.952H18.0947V27.088H20.4467V34.256H17.4507V30H4.65465V34.256H1.65865ZM6.78265 27.088H15.0147V12.864H8.23865V16.924C8.23865 18.9587 8.10798 20.8347 7.84665 22.552C7.60398 24.2693 7.24932 25.7253 6.78265 26.92V27.088ZM28.0026 30.448C26.9759 30.448 26.0613 30.252 25.2586 29.86C24.4559 29.4493 23.8306 28.88 23.3826 28.152C22.9346 27.424 22.7106 26.5933 22.7106 25.66C22.7106 24.652 22.9719 23.7933 23.4946 23.084C24.0359 22.356 24.7546 21.8053 25.6506 21.432C26.5466 21.0587 27.5359 20.872 28.6186 20.872C29.5146 20.872 30.2986 20.956 30.9706 21.124C31.6613 21.292 32.1839 21.4693 32.5386 21.656V20.9C32.5386 19.9667 32.2026 19.22 31.5306 18.66C30.8586 18.1 29.9906 17.82 28.9266 17.82C28.1986 17.82 27.5079 17.988 26.8546 18.324C26.2013 18.6413 25.6786 19.08 25.2866 19.64L23.2146 18.044C23.8306 17.1853 24.6426 16.5133 25.6506 16.028C26.6773 15.524 27.7973 15.272 29.0106 15.272C31.0826 15.272 32.6786 15.7853 33.7986 16.812C34.9186 17.82 35.4786 19.2387 35.4786 21.068V30H32.5386V28.236H32.3706C31.9973 28.8147 31.4373 29.328 30.6906 29.776C29.9439 30.224 29.0479 30.448 28.0026 30.448ZM28.5346 27.984C29.3186 27.984 30.0093 27.7973 30.6066 27.424C31.2039 27.0507 31.6706 26.5653 32.0066 25.968C32.3613 25.352 32.5386 24.6893 32.5386 23.98C32.1093 23.7373 31.6053 23.5413 31.0266 23.392C30.4479 23.224 29.8319 23.14 29.1786 23.14C27.9466 23.14 27.0693 23.392 26.5466 23.896C26.0239 24.3813 25.7626 24.9787 25.7626 25.688C25.7626 26.36 26.0146 26.9107 26.5186 27.34C27.0226 27.7693 27.6946 27.984 28.5346 27.984ZM39.0797 36.048V15.72H41.9077V17.652H42.0757C42.4491 17.036 43.0277 16.4853 43.8117 16C44.6144 15.5147 45.5664 15.272 46.6677 15.272C47.9744 15.272 49.1411 15.5987 50.1677 16.252C51.1944 16.9053 52.0064 17.8013 52.6037 18.94C53.2197 20.0787 53.5277 21.3853 53.5277 22.86C53.5277 24.3347 53.2197 25.6507 52.6037 26.808C52.0064 27.9467 51.1944 28.8427 50.1677 29.496C49.1411 30.1307 47.9744 30.448 46.6677 30.448C45.5664 30.448 44.6144 30.2147 43.8117 29.748C43.0277 29.2627 42.4491 28.712 42.0757 28.096H41.9077L42.0757 30.084V36.048H39.0797ZM46.2197 27.676C46.9664 27.676 47.6664 27.48 48.3197 27.088C48.9731 26.696 49.5051 26.1453 49.9157 25.436C50.3264 24.708 50.5317 23.8493 50.5317 22.86C50.5317 21.8707 50.3264 21.0213 49.9157 20.312C49.5051 19.584 48.9731 19.024 48.3197 18.632C47.6664 18.24 46.9664 18.044 46.2197 18.044C45.4731 18.044 44.7731 18.24 44.1197 18.632C43.4664 19.024 42.9344 19.584 42.5237 20.312C42.1131 21.0213 41.9077 21.8707 41.9077 22.86C41.9077 23.8493 42.1131 24.708 42.5237 25.436C42.9344 26.1453 43.4664 26.696 44.1197 27.088C44.7731 27.48 45.4731 27.676 46.2197 27.676ZM55.4369 30V29.832L59.2449 24.876L59.1889 24.708C58.2929 24.3533 57.5649 23.8027 57.0049 23.056C56.4449 22.3093 56.1649 21.4507 56.1649 20.48C56.1649 19.5653 56.3889 18.7533 56.8369 18.044C57.2849 17.3347 57.8915 16.7747 58.6569 16.364C59.4409 15.9347 60.3182 15.72 61.2889 15.72H67.4209V30H64.3969V25.156H62.4089L58.8249 30H55.4369ZM61.5129 22.748H64.3969V18.24H61.5129C60.8595 18.24 60.2995 18.4547 59.8329 18.884C59.3849 19.3133 59.1609 19.8453 59.1609 20.48C59.1609 21.1333 59.3849 21.6747 59.8329 22.104C60.2995 22.5333 60.8595 22.748 61.5129 22.748ZM71.2624 30V15.72H78.3464C79.1864 15.72 79.9331 15.888 80.5864 16.224C81.2584 16.5413 81.7811 16.98 82.1544 17.54C82.5464 18.1 82.7424 18.7253 82.7424 19.416C82.7424 20.1627 82.5744 20.8067 82.2384 21.348C81.9211 21.8893 81.5011 22.2907 80.9784 22.552V22.72C81.6878 23 82.2478 23.42 82.6584 23.98C83.0878 24.54 83.3024 25.184 83.3024 25.912C83.3024 26.752 83.0784 27.48 82.6304 28.096C82.2011 28.712 81.6411 29.188 80.9504 29.524C80.2598 29.8413 79.5224 30 78.7384 30H71.2624ZM74.2864 18.184V21.544H77.9824C78.4864 21.544 78.9064 21.3853 79.2424 21.068C79.5784 20.7507 79.7464 20.3493 79.7464 19.864C79.7464 19.36 79.5784 18.9587 79.2424 18.66C78.9064 18.3427 78.4864 18.184 77.9824 18.184H74.2864ZM74.2864 27.48H78.4304C78.9718 27.48 79.4198 27.312 79.7744 26.976C80.1478 26.6213 80.3344 26.1733 80.3344 25.632C80.3344 25.1093 80.1478 24.6707 79.7744 24.316C79.4198 23.9613 78.9718 23.784 78.4304 23.784H74.2864V27.48ZM90.8901 30.448C89.8634 30.448 88.9488 30.252 88.1461 29.86C87.3434 29.4493 86.7181 28.88 86.2701 28.152C85.8221 27.424 85.5981 26.5933 85.5981 25.66C85.5981 24.652 85.8594 23.7933 86.3821 23.084C86.9234 22.356 87.6421 21.8053 88.5381 21.432C89.4341 21.0587 90.4234 20.872 91.5061 20.872C92.4021 20.872 93.1861 20.956 93.8581 21.124C94.5488 21.292 95.0714 21.4693 95.4261 21.656V20.9C95.4261 19.9667 95.0901 19.22 94.4181 18.66C93.7461 18.1 92.8781 17.82 91.8141 17.82C91.0861 17.82 90.3954 17.988 89.7421 18.324C89.0888 18.6413 88.5661 19.08 88.1741 19.64L86.1021 18.044C86.7181 17.1853 87.5301 16.5133 88.5381 16.028C89.5648 15.524 90.6848 15.272 91.8981 15.272C93.9701 15.272 95.5661 15.7853 96.6861 16.812C97.8061 17.82 98.3661 19.2387 98.3661 21.068V30H95.4261V28.236H95.2581C94.8848 28.8147 94.3248 29.328 93.5781 29.776C92.8314 30.224 91.9354 30.448 90.8901 30.448ZM91.4221 27.984C92.2061 27.984 92.8968 27.7973 93.4941 27.424C94.0914 27.0507 94.5581 26.5653 94.8941 25.968C95.2488 25.352 95.4261 24.6893 95.4261 23.98C94.9968 23.7373 94.4928 23.5413 93.9141 23.392C93.3354 23.224 92.7194 23.14 92.0661 23.14C90.8341 23.14 89.9568 23.392 89.4341 23.896C88.9114 24.3813 88.6501 24.9787 88.6501 25.688C88.6501 26.36 88.9021 26.9107 89.4061 27.34C89.9101 27.7693 90.5821 27.984 91.4221 27.984ZM101.995 30V15.72H105.019V21.46H111.795V15.72H114.819V30H111.795V24.092H105.019V30H101.995ZM125.034 30.448C123.634 30.448 122.383 30.1213 121.282 29.468C120.181 28.8147 119.313 27.9187 118.678 26.78C118.062 25.6413 117.754 24.344 117.754 22.888C117.754 21.5253 118.053 20.2653 118.65 19.108C119.247 17.9507 120.078 17.0267 121.142 16.336C122.225 15.6267 123.466 15.272 124.866 15.272C126.341 15.272 127.591 15.5893 128.618 16.224C129.663 16.8587 130.457 17.7267 130.998 18.828C131.539 19.9293 131.81 21.1707 131.81 22.552C131.81 22.7573 131.801 22.944 131.782 23.112C131.782 23.28 131.773 23.4107 131.754 23.504H120.722C120.871 24.9227 121.366 25.9867 122.206 26.696C123.065 27.4053 124.035 27.76 125.118 27.76C126.089 27.76 126.891 27.5453 127.526 27.116C128.161 26.668 128.665 26.1173 129.038 25.464L131.53 26.668C130.914 27.788 130.074 28.7027 129.01 29.412C127.946 30.1027 126.621 30.448 125.034 30.448ZM124.894 17.848C123.886 17.848 123.027 18.156 122.318 18.772C121.609 19.388 121.133 20.2093 120.89 21.236H128.814C128.777 20.7507 128.618 20.2467 128.338 19.724C128.058 19.2013 127.629 18.7627 127.05 18.408C126.49 18.0347 125.771 17.848 124.894 17.848ZM149.955 30V24.848C149.563 25.128 149.068 25.352 148.471 25.52C147.873 25.6693 147.22 25.744 146.511 25.744C144.868 25.744 143.552 25.268 142.563 24.316C141.592 23.364 141.107 22.076 141.107 20.452V15.72H144.131V20.144C144.131 21.04 144.383 21.7493 144.887 22.272C145.409 22.776 146.137 23.028 147.071 23.028C147.649 23.028 148.191 22.944 148.695 22.776C149.217 22.5893 149.637 22.3467 149.955 22.048V15.72H152.951V30H149.955ZM156.788 36.048V15.72H159.616V17.652H159.784C160.158 17.036 160.736 16.4853 161.52 16C162.323 15.5147 163.275 15.272 164.376 15.272C165.683 15.272 166.85 15.5987 167.876 16.252C168.903 16.9053 169.715 17.8013 170.312 18.94C170.928 20.0787 171.236 21.3853 171.236 22.86C171.236 24.3347 170.928 25.6507 170.312 26.808C169.715 27.9467 168.903 28.8427 167.876 29.496C166.85 30.1307 165.683 30.448 164.376 30.448C163.275 30.448 162.323 30.2147 161.52 29.748C160.736 29.2627 160.158 28.712 159.784 28.096H159.616L159.784 30.084V36.048H156.788ZM163.928 27.676C164.675 27.676 165.375 27.48 166.028 27.088C166.682 26.696 167.214 26.1453 167.624 25.436C168.035 24.708 168.24 23.8493 168.24 22.86C168.24 21.8707 168.035 21.0213 167.624 20.312C167.214 19.584 166.682 19.024 166.028 18.632C165.375 18.24 164.675 18.044 163.928 18.044C163.182 18.044 162.482 18.24 161.828 18.632C161.175 19.024 160.643 19.584 160.232 20.312C159.822 21.0213 159.616 21.8707 159.616 22.86C159.616 23.8493 159.822 24.708 160.232 25.436C160.643 26.1453 161.175 26.696 161.828 27.088C162.482 27.48 163.182 27.676 163.928 27.676ZM180.785 30.448C179.385 30.448 178.134 30.1213 177.033 29.468C175.932 28.8147 175.064 27.9187 174.429 26.78C173.813 25.6413 173.505 24.344 173.505 22.888C173.505 21.5253 173.804 20.2653 174.401 19.108C174.998 17.9507 175.829 17.0267 176.893 16.336C177.976 15.6267 179.217 15.272 180.617 15.272C182.092 15.272 183.342 15.5893 184.369 16.224C185.414 16.8587 186.208 17.7267 186.749 18.828C187.29 19.9293 187.561 21.1707 187.561 22.552C187.561 22.7573 187.552 22.944 187.533 23.112C187.533 23.28 187.524 23.4107 187.505 23.504H176.473C176.622 24.9227 177.117 25.9867 177.957 26.696C178.816 27.4053 179.786 27.76 180.869 27.76C181.84 27.76 182.642 27.5453 183.277 27.116C183.912 26.668 184.416 26.1173 184.789 25.464L187.281 26.668C186.665 27.788 185.825 28.7027 184.761 29.412C183.697 30.1027 182.372 30.448 180.785 30.448ZM180.645 17.848C179.637 17.848 178.778 18.156 178.069 18.772C177.36 19.388 176.884 20.2093 176.641 21.236H184.565C184.528 20.7507 184.369 20.2467 184.089 19.724C183.809 19.2013 183.38 18.7627 182.801 18.408C182.241 18.0347 181.522 17.848 180.645 17.848ZM195.215 30.448C194.431 30.448 193.647 30.3547 192.863 30.168C192.079 29.9813 191.342 29.664 190.651 29.216C189.979 28.7493 189.419 28.1053 188.971 27.284L191.379 25.884C191.902 26.612 192.499 27.116 193.171 27.396C193.862 27.6573 194.543 27.788 195.215 27.788C196.186 27.788 196.923 27.6013 197.427 27.228C197.931 26.8547 198.183 26.3693 198.183 25.772C198.183 25.2493 197.95 24.8293 197.483 24.512C197.035 24.176 196.401 24.008 195.579 24.008H193.255V21.628H195.579C196.289 21.628 196.83 21.46 197.203 21.124C197.595 20.788 197.791 20.3587 197.791 19.836C197.791 19.22 197.53 18.7347 197.007 18.38C196.485 18.0067 195.822 17.82 195.019 17.82C194.31 17.82 193.629 17.9693 192.975 18.268C192.322 18.548 191.827 18.9307 191.491 19.416L189.251 17.932C189.905 17.1107 190.726 16.4667 191.715 16C192.723 15.5147 193.834 15.272 195.047 15.272C196.093 15.272 197.035 15.4493 197.875 15.804C198.734 16.1587 199.406 16.6533 199.891 17.288C200.395 17.904 200.647 18.6227 200.647 19.444C200.647 20.1533 200.47 20.788 200.115 21.348C199.761 21.8893 199.294 22.3 198.715 22.58V22.748C199.443 23.0467 200.031 23.4947 200.479 24.092C200.927 24.6893 201.151 25.3707 201.151 26.136C201.151 26.976 200.909 27.7227 200.423 28.376C199.938 29.0107 199.247 29.5147 198.351 29.888C197.455 30.2613 196.41 30.448 195.215 30.448Z" fill="white"/>
<g id="GPay Logo (Dark)">
<g id="GPay">
<g id="Pay">
<path id="Fill 1" fill-rule="evenodd" clip-rule="evenodd" d="M252.529 9.34665V17.5128H257.565C258.765 17.5128 259.757 17.1096 260.541 16.3032C261.347 15.4988 261.75 14.5394 261.75 13.4288C261.75 12.3406 261.347 11.3924 260.541 10.586C259.757 9.75916 258.765 9.34479 257.565 9.34479H252.529V9.34665ZM252.529 20.3872V29.8599H249.521V6.47218H257.499C259.527 6.47218 261.248 7.14787 262.666 8.49738C264.105 9.84688 264.824 11.4913 264.824 13.4288C264.824 15.411 264.105 17.0667 262.666 18.3938C261.27 19.7227 259.547 20.3854 257.499 20.3854H252.529V20.3872Z" fill="white"/>
<path id="Fill 3" fill-rule="evenodd" clip-rule="evenodd" d="M267.864 24.9602C267.864 25.7442 268.197 26.3975 268.862 26.9201C269.527 27.4427 270.306 27.704 271.2 27.704C272.465 27.704 273.591 27.2354 274.584 26.3004C275.576 25.3634 276.071 24.264 276.071 23.0022C275.133 22.2612 273.825 21.8916 272.147 21.8916C270.925 21.8916 269.907 22.1866 269.09 22.7745C268.273 23.3623 267.864 24.0886 267.864 24.9602ZM271.756 13.3317C273.98 13.3317 275.735 13.9253 277.022 15.1124C278.308 16.2995 278.95 17.9271 278.95 19.9952V29.8599H276.073V27.6387H275.942C274.699 29.4677 273.042 30.3825 270.972 30.3825C269.206 30.3825 267.728 29.8599 266.541 28.8146C265.353 27.7694 264.759 26.4628 264.759 24.8949C264.759 23.2393 265.385 21.9232 266.638 20.9434C267.892 19.9635 269.565 19.4726 271.658 19.4726C273.444 19.4726 274.916 19.7993 276.071 20.4525V19.7657C276.071 18.7204 275.656 17.8338 274.829 17.104C273.999 16.3742 273.031 16.0102 271.919 16.0102C270.239 16.0102 268.911 16.7176 267.93 18.1343L265.28 16.4675C266.741 14.377 268.899 13.3317 271.756 13.3317Z" fill="white"/>
<path id="Fill 5" fill-rule="evenodd" clip-rule="evenodd" d="M295.463 13.8543L285.424 36.9154H282.318L286.046 28.8464L279.44 13.8543H282.71L287.484 25.3522H287.55L292.193 13.8543H295.463Z" fill="white"/>
</g>
<g id="G">
<path id="Fill 8" fill-rule="evenodd" clip-rule="evenodd" d="M240.373 18.3452C240.373 17.3989 240.293 16.4861 240.141 15.6126H227.454V20.7885H234.72C234.408 22.4757 233.465 23.9112 232.033 24.8725V28.2341H236.37C238.91 25.8935 240.373 22.4348 240.373 18.3452Z" fill="#4285F4"/>
<path id="Fill 10" fill-rule="evenodd" clip-rule="evenodd" d="M227.454 31.4782C231.084 31.4782 234.141 30.2873 236.37 28.2341L232.033 24.8725C230.826 25.6844 229.272 26.1585 227.454 26.1585C223.944 26.1585 220.966 23.7955 219.901 20.6112H215.433V24.0736C217.647 28.4637 222.197 31.4782 227.454 31.4782Z" fill="#34A853"/>
<path id="Fill 12" fill-rule="evenodd" clip-rule="evenodd" d="M219.901 20.6111C219.628 19.7992 219.479 18.9331 219.479 18.0391C219.479 17.145 219.628 16.2789 219.901 15.467V12.0045H215.433C214.518 13.8188 214 15.8683 214 18.0391C214 20.2098 214.518 22.2595 215.433 24.0736L219.901 20.6111Z" fill="#FABB05"/>
<path id="Fill 14" fill-rule="evenodd" clip-rule="evenodd" d="M227.454 9.91964C229.436 9.91964 231.213 10.6009 232.615 11.9355V11.9374L236.455 8.10163C234.123 5.93272 231.082 4.60001 227.454 4.60001C222.197 4.60001 217.647 7.61447 215.433 12.0046L219.901 15.467C220.966 12.2827 223.944 9.91964 227.454 9.91964Z" fill="#E94235"/>
</g>
</g>
</g>
</g>
</svg>
