<svg width="280" height="38" viewBox="0 0 280 38" fill="none" xmlns="http://www.w3.org/2000/svg">
<g id="bg_order_with_Dark">
<path id="Text" d="M3.54222 30V9.952H18.6622V30H15.5822V12.864H6.62222V30H3.54222ZM29.7184 30.448C28.2437 30.448 26.9464 30.112 25.8264 29.44C24.7064 28.768 23.829 27.8627 23.1944 26.724C22.5597 25.5853 22.2424 24.2973 22.2424 22.86C22.2424 21.4413 22.5597 20.1627 23.1944 19.024C23.829 17.8667 24.7064 16.952 25.8264 16.28C26.9464 15.608 28.2437 15.272 29.7184 15.272C31.1744 15.272 32.4624 15.608 33.5824 16.28C34.7024 16.952 35.5797 17.8667 36.2144 19.024C36.849 20.1627 37.1664 21.4413 37.1664 22.86C37.1664 24.2973 36.849 25.5853 36.2144 26.724C35.5797 27.8627 34.7024 28.768 33.5824 29.44C32.4624 30.112 31.1744 30.448 29.7184 30.448ZM29.7184 27.676C30.5024 27.676 31.2304 27.4893 31.9024 27.116C32.5744 26.724 33.1157 26.1733 33.5264 25.464C33.9557 24.736 34.1704 23.868 34.1704 22.86C34.1704 21.852 33.9557 20.9933 33.5264 20.284C33.1157 19.556 32.5744 19.0053 31.9024 18.632C31.2304 18.24 30.5024 18.044 29.7184 18.044C28.9344 18.044 28.197 18.24 27.5064 18.632C26.8344 19.0053 26.2837 19.556 25.8544 20.284C25.4437 20.9933 25.2384 21.852 25.2384 22.86C25.2384 23.868 25.4437 24.736 25.8544 25.464C26.2837 26.1733 26.8344 26.724 27.5064 27.116C28.197 27.4893 28.9344 27.676 29.7184 27.676ZM40.0868 36.048V15.72H42.9148V17.652H43.0828C43.4561 17.036 44.0348 16.4853 44.8188 16C45.6214 15.5147 46.5734 15.272 47.6748 15.272C48.9814 15.272 50.1481 15.5987 51.1748 16.252C52.2014 16.9053 53.0134 17.8013 53.6108 18.94C54.2268 20.0787 54.5348 21.3853 54.5348 22.86C54.5348 24.3347 54.2268 25.6507 53.6108 26.808C53.0134 27.9467 52.2014 28.8427 51.1748 29.496C50.1481 30.1307 48.9814 30.448 47.6748 30.448C46.5734 30.448 45.6214 30.2147 44.8188 29.748C44.0348 29.2627 43.4561 28.712 43.0828 28.096H42.9148L43.0828 30.084V36.048H40.0868ZM47.2268 27.676C47.9734 27.676 48.6734 27.48 49.3268 27.088C49.9801 26.696 50.5121 26.1453 50.9228 25.436C51.3334 24.708 51.5388 23.8493 51.5388 22.86C51.5388 21.8707 51.3334 21.0213 50.9228 20.312C50.5121 19.584 49.9801 19.024 49.3268 18.632C48.6734 18.24 47.9734 18.044 47.2268 18.044C46.4801 18.044 45.7801 18.24 45.1268 18.632C44.4734 19.024 43.9414 19.584 43.5308 20.312C43.1201 21.0213 42.9148 21.8707 42.9148 22.86C42.9148 23.8493 43.1201 24.708 43.5308 25.436C43.9414 26.1453 44.4734 26.696 45.1268 27.088C45.7801 27.48 46.4801 27.676 47.2268 27.676ZM63.2186 15.72V20.48H66.2426C67.2133 20.48 68.0813 20.6853 68.8466 21.096C69.6119 21.5067 70.2186 22.076 70.6666 22.804C71.1146 23.5133 71.3386 24.3253 71.3386 25.24C71.3386 26.1547 71.1146 26.9667 70.6666 27.676C70.2186 28.3853 69.6119 28.9547 68.8466 29.384C68.0813 29.7947 67.2133 30 66.2426 30H60.2226V18.352H56.3586V15.72H63.2186ZM63.2186 27.48H65.9906C66.6626 27.48 67.2226 27.2653 67.6706 26.836C68.1186 26.4067 68.3426 25.8747 68.3426 25.24C68.3426 24.6053 68.1186 24.0733 67.6706 23.644C67.2226 23.196 66.6626 22.972 65.9906 22.972H63.2186V27.48ZM82.0867 30V24.848C81.6947 25.128 81.2001 25.352 80.6027 25.52C80.0054 25.6693 79.3521 25.744 78.6427 25.744C77.0001 25.744 75.6841 25.268 74.6947 24.316C73.7241 23.364 73.2387 22.076 73.2387 20.452V15.72H76.2627V20.144C76.2627 21.04 76.5147 21.7493 77.0187 22.272C77.5414 22.776 78.2694 23.028 79.2027 23.028C79.7814 23.028 80.3227 22.944 80.8267 22.776C81.3494 22.5893 81.7694 22.3467 82.0867 22.048V15.72H85.0827V30H82.0867ZM88.9484 30V15.72H91.9724V22.048H92.1404L97.7404 15.72H101.212V15.888L95.2484 22.412L101.436 29.832V30H97.8524L92.1404 22.972H91.9724V30H88.9484ZM107.81 30.448C106.784 30.448 105.869 30.252 105.066 29.86C104.264 29.4493 103.638 28.88 103.19 28.152C102.742 27.424 102.518 26.5933 102.518 25.66C102.518 24.652 102.78 23.7933 103.302 23.084C103.844 22.356 104.562 21.8053 105.458 21.432C106.354 21.0587 107.344 20.872 108.426 20.872C109.322 20.872 110.106 20.956 110.778 21.124C111.469 21.292 111.992 21.4693 112.346 21.656V20.9C112.346 19.9667 112.01 19.22 111.338 18.66C110.666 18.1 109.798 17.82 108.734 17.82C108.006 17.82 107.316 17.988 106.662 18.324C106.009 18.6413 105.486 19.08 105.094 19.64L103.022 18.044C103.638 17.1853 104.45 16.5133 105.458 16.028C106.485 15.524 107.605 15.272 108.818 15.272C110.89 15.272 112.486 15.7853 113.606 16.812C114.726 17.82 115.286 19.2387 115.286 21.068V30H112.346V28.236H112.178C111.805 28.8147 111.245 29.328 110.498 29.776C109.752 30.224 108.856 30.448 107.81 30.448ZM108.342 27.984C109.126 27.984 109.817 27.7973 110.414 27.424C111.012 27.0507 111.478 26.5653 111.814 25.968C112.169 25.352 112.346 24.6893 112.346 23.98C111.917 23.7373 111.413 23.5413 110.834 23.392C110.256 23.224 109.64 23.14 108.986 23.14C107.754 23.14 106.877 23.392 106.354 23.896C105.832 24.3813 105.57 24.9787 105.57 25.688C105.57 26.36 105.822 26.9107 106.326 27.34C106.83 27.7693 107.502 27.984 108.342 27.984ZM133.955 30V24.848C133.563 25.128 133.068 25.352 132.471 25.52C131.873 25.6693 131.22 25.744 130.511 25.744C128.868 25.744 127.552 25.268 126.563 24.316C125.592 23.364 125.107 22.076 125.107 20.452V15.72H128.131V20.144C128.131 21.04 128.383 21.7493 128.887 22.272C129.409 22.776 130.137 23.028 131.071 23.028C131.649 23.028 132.191 22.944 132.695 22.776C133.217 22.5893 133.637 22.3467 133.955 22.048V15.72H136.951V30H133.955ZM140.788 36.048V15.72H143.616V17.652H143.784C144.158 17.036 144.736 16.4853 145.52 16C146.323 15.5147 147.275 15.272 148.376 15.272C149.683 15.272 150.85 15.5987 151.876 16.252C152.903 16.9053 153.715 17.8013 154.312 18.94C154.928 20.0787 155.236 21.3853 155.236 22.86C155.236 24.3347 154.928 25.6507 154.312 26.808C153.715 27.9467 152.903 28.8427 151.876 29.496C150.85 30.1307 149.683 30.448 148.376 30.448C147.275 30.448 146.323 30.2147 145.52 29.748C144.736 29.2627 144.158 28.712 143.784 28.096H143.616L143.784 30.084V36.048H140.788ZM147.928 27.676C148.675 27.676 149.375 27.48 150.028 27.088C150.682 26.696 151.214 26.1453 151.624 25.436C152.035 24.708 152.24 23.8493 152.24 22.86C152.24 21.8707 152.035 21.0213 151.624 20.312C151.214 19.584 150.682 19.024 150.028 18.632C149.375 18.24 148.675 18.044 147.928 18.044C147.182 18.044 146.482 18.24 145.828 18.632C145.175 19.024 144.643 19.584 144.232 20.312C143.822 21.0213 143.616 21.8707 143.616 22.86C143.616 23.8493 143.822 24.708 144.232 25.436C144.643 26.1453 145.175 26.696 145.828 27.088C146.482 27.48 147.182 27.676 147.928 27.676ZM164.785 30.448C163.385 30.448 162.134 30.1213 161.033 29.468C159.932 28.8147 159.064 27.9187 158.429 26.78C157.813 25.6413 157.505 24.344 157.505 22.888C157.505 21.5253 157.804 20.2653 158.401 19.108C158.998 17.9507 159.829 17.0267 160.893 16.336C161.976 15.6267 163.217 15.272 164.617 15.272C166.092 15.272 167.342 15.5893 168.369 16.224C169.414 16.8587 170.208 17.7267 170.749 18.828C171.29 19.9293 171.561 21.1707 171.561 22.552C171.561 22.7573 171.552 22.944 171.533 23.112C171.533 23.28 171.524 23.4107 171.505 23.504H160.473C160.622 24.9227 161.117 25.9867 161.957 26.696C162.816 27.4053 163.786 27.76 164.869 27.76C165.84 27.76 166.642 27.5453 167.277 27.116C167.912 26.668 168.416 26.1173 168.789 25.464L171.281 26.668C170.665 27.788 169.825 28.7027 168.761 29.412C167.697 30.1027 166.372 30.448 164.785 30.448ZM164.645 17.848C163.637 17.848 162.778 18.156 162.069 18.772C161.36 19.388 160.884 20.2093 160.641 21.236H168.565C168.528 20.7507 168.369 20.2467 168.089 19.724C167.809 19.2013 167.38 18.7627 166.801 18.408C166.241 18.0347 165.522 17.848 164.645 17.848ZM179.215 30.448C178.431 30.448 177.647 30.3547 176.863 30.168C176.079 29.9813 175.342 29.664 174.651 29.216C173.979 28.7493 173.419 28.1053 172.971 27.284L175.379 25.884C175.902 26.612 176.499 27.116 177.171 27.396C177.862 27.6573 178.543 27.788 179.215 27.788C180.186 27.788 180.923 27.6013 181.427 27.228C181.931 26.8547 182.183 26.3693 182.183 25.772C182.183 25.2493 181.95 24.8293 181.483 24.512C181.035 24.176 180.401 24.008 179.579 24.008H177.255V21.628H179.579C180.289 21.628 180.83 21.46 181.203 21.124C181.595 20.788 181.791 20.3587 181.791 19.836C181.791 19.22 181.53 18.7347 181.007 18.38C180.485 18.0067 179.822 17.82 179.019 17.82C178.31 17.82 177.629 17.9693 176.975 18.268C176.322 18.548 175.827 18.9307 175.491 19.416L173.251 17.932C173.905 17.1107 174.726 16.4667 175.715 16C176.723 15.5147 177.834 15.272 179.047 15.272C180.093 15.272 181.035 15.4493 181.875 15.804C182.734 16.1587 183.406 16.6533 183.891 17.288C184.395 17.904 184.647 18.6227 184.647 19.444C184.647 20.1533 184.47 20.788 184.115 21.348C183.761 21.8893 183.294 22.3 182.715 22.58V22.748C183.443 23.0467 184.031 23.4947 184.479 24.092C184.927 24.6893 185.151 25.3707 185.151 26.136C185.151 26.976 184.909 27.7227 184.423 28.376C183.938 29.0107 183.247 29.5147 182.351 29.888C181.455 30.2613 180.41 30.448 179.215 30.448Z" fill="white"/>
<g id="GPay Logo (Dark)">
<g id="GPay">
<g id="Pay">
<path id="Fill 1" fill-rule="evenodd" clip-rule="evenodd" d="M236.529 9.34665V17.5128H241.565C242.765 17.5128 243.757 17.1096 244.541 16.3032C245.347 15.4988 245.75 14.5394 245.75 13.4288C245.75 12.3406 245.347 11.3924 244.541 10.586C243.757 9.75916 242.765 9.34479 241.565 9.34479H236.529V9.34665ZM236.529 20.3872V29.8599H233.521V6.47218H241.499C243.527 6.47218 245.248 7.14787 246.666 8.49738C248.105 9.84688 248.824 11.4913 248.824 13.4288C248.824 15.411 248.105 17.0667 246.666 18.3938C245.27 19.7227 243.547 20.3854 241.499 20.3854H236.529V20.3872Z" fill="white"/>
<path id="Fill 3" fill-rule="evenodd" clip-rule="evenodd" d="M251.864 24.9602C251.864 25.7442 252.197 26.3975 252.862 26.9201C253.527 27.4427 254.306 27.704 255.2 27.704C256.465 27.704 257.591 27.2354 258.584 26.3004C259.576 25.3634 260.071 24.264 260.071 23.0022C259.133 22.2612 257.825 21.8916 256.147 21.8916C254.925 21.8916 253.907 22.1866 253.09 22.7745C252.273 23.3623 251.864 24.0886 251.864 24.9602ZM255.756 13.3317C257.98 13.3317 259.735 13.9253 261.022 15.1124C262.308 16.2995 262.95 17.9271 262.95 19.9952V29.8599H260.073V27.6387H259.942C258.699 29.4677 257.042 30.3825 254.972 30.3825C253.206 30.3825 251.728 29.8599 250.541 28.8146C249.353 27.7694 248.759 26.4628 248.759 24.8949C248.759 23.2393 249.385 21.9232 250.638 20.9434C251.892 19.9635 253.565 19.4726 255.658 19.4726C257.444 19.4726 258.916 19.7993 260.071 20.4525V19.7657C260.071 18.7204 259.656 17.8338 258.829 17.104C257.999 16.3742 257.031 16.0102 255.919 16.0102C254.239 16.0102 252.911 16.7176 251.93 18.1343L249.28 16.4675C250.741 14.377 252.899 13.3317 255.756 13.3317Z" fill="white"/>
<path id="Fill 5" fill-rule="evenodd" clip-rule="evenodd" d="M279.463 13.8543L269.424 36.9154H266.318L270.046 28.8464L263.44 13.8543H266.71L271.484 25.3522H271.55L276.193 13.8543H279.463Z" fill="white"/>
</g>
<g id="G">
<path id="Fill 8" fill-rule="evenodd" clip-rule="evenodd" d="M224.373 18.3452C224.373 17.3989 224.293 16.4861 224.141 15.6126H211.454V20.7885H218.72C218.408 22.4757 217.465 23.9112 216.033 24.8725V28.2341H220.37C222.91 25.8935 224.373 22.4348 224.373 18.3452Z" fill="#4285F4"/>
<path id="Fill 10" fill-rule="evenodd" clip-rule="evenodd" d="M211.454 31.4782C215.084 31.4782 218.141 30.2873 220.37 28.2341L216.033 24.8725C214.826 25.6844 213.272 26.1585 211.454 26.1585C207.944 26.1585 204.966 23.7955 203.901 20.6112H199.433V24.0736C201.647 28.4637 206.197 31.4782 211.454 31.4782Z" fill="#34A853"/>
<path id="Fill 12" fill-rule="evenodd" clip-rule="evenodd" d="M203.901 20.6111C203.628 19.7992 203.479 18.9331 203.479 18.0391C203.479 17.145 203.628 16.2789 203.901 15.467V12.0045H199.433C198.518 13.8188 198 15.8683 198 18.0391C198 20.2098 198.518 22.2595 199.433 24.0736L203.901 20.6111Z" fill="#FABB05"/>
<path id="Fill 14" fill-rule="evenodd" clip-rule="evenodd" d="M211.454 9.91964C213.436 9.91964 215.213 10.6009 216.615 11.9355V11.9374L220.455 8.10163C218.123 5.93272 215.082 4.60001 211.454 4.60001C206.197 4.60001 201.647 7.61447 199.433 12.0046L203.901 15.467C204.966 12.2827 207.944 9.91964 211.454 9.91964Z" fill="#E94235"/>
</g>
</g>
</g>
</g>
</svg>
