<svg width="179" height="21" viewBox="0 0 179 21" fill="none" xmlns="http://www.w3.org/2000/svg">
<g id="bg_order_with_Pay_NBG">
<path id="Left Text" d="M1.76788 15.0006V3.54461H10.4079V15.0006H8.64788V5.20861H3.52788V15.0006H1.76788ZM16.7043 15.2566C15.8616 15.2566 15.1203 15.0646 14.4803 14.6806C13.8403 14.2966 13.3389 13.7793 12.9763 13.1286C12.6136 12.4673 12.4323 11.7313 12.4323 10.9206C12.4323 10.1099 12.6136 9.37928 12.9763 8.72861C13.3389 8.06728 13.8403 7.54461 14.4803 7.16061C15.1203 6.77661 15.8616 6.58461 16.7043 6.58461C17.5363 6.58461 18.2723 6.78194 18.9123 7.17661C19.5523 7.56061 20.0536 8.07794 20.4163 8.72861C20.7789 9.37928 20.9603 10.1099 20.9603 10.9206C20.9603 11.7313 20.7789 12.4673 20.4163 13.1286C20.0536 13.7793 19.5523 14.2966 18.9123 14.6806C18.2723 15.0646 17.5363 15.2566 16.7043 15.2566ZM16.7043 13.6726C17.1523 13.6726 17.5683 13.5659 17.9523 13.3526C18.3363 13.1286 18.6456 12.8139 18.8803 12.4086C19.1256 11.9926 19.2483 11.4966 19.2483 10.9206C19.2483 10.3446 19.1256 9.85394 18.8803 9.44861C18.6456 9.03261 18.3363 8.71794 17.9523 8.50461C17.5683 8.28061 17.1523 8.16861 16.7043 8.16861C16.2563 8.16861 15.8349 8.28061 15.4403 8.50461C15.0563 8.71794 14.7416 9.03261 14.4963 9.44861C14.2616 9.85394 14.1443 10.3446 14.1443 10.9206C14.1443 11.4966 14.2616 11.9926 14.4963 12.4086C14.7416 12.8139 15.0616 13.1286 15.4563 13.3526C15.8509 13.5659 16.2669 13.6726 16.7043 13.6726ZM22.6076 18.4566V6.84061H24.2236V7.94461H24.3196C24.469 7.70994 24.6663 7.49128 24.9116 7.28861C25.1676 7.07528 25.4663 6.90461 25.8076 6.77661C26.149 6.64861 26.5276 6.58461 26.9436 6.58461C27.6903 6.58461 28.357 6.77128 28.9436 7.14461C29.5303 7.51794 29.9943 8.02994 30.3356 8.68061C30.6876 9.33128 30.8636 10.0779 30.8636 10.9206C30.8636 11.7633 30.6876 12.5099 30.3356 13.1606C29.9943 13.8113 29.5303 14.3233 28.9436 14.6966C28.357 15.0699 27.6903 15.2566 26.9436 15.2566C26.325 15.2566 25.7863 15.1179 25.3276 14.8406C24.869 14.5633 24.533 14.2539 24.3196 13.9126H24.2236L24.3196 15.0486V18.4566H22.6076ZM26.6876 13.6726C27.1143 13.6726 27.5143 13.5606 27.8876 13.3366C28.2716 13.1126 28.5756 12.7926 28.7996 12.3766C29.0343 11.9606 29.1516 11.4753 29.1516 10.9206C29.1516 10.3553 29.0343 9.86994 28.7996 9.46461C28.5756 9.04861 28.2716 8.72861 27.8876 8.50461C27.5143 8.28061 27.1143 8.16861 26.6876 8.16861C26.261 8.16861 25.861 8.28061 25.4876 8.50461C25.1143 8.72861 24.8103 9.04861 24.5756 9.46461C24.341 9.86994 24.2236 10.3553 24.2236 10.9206C24.2236 11.4859 24.341 11.9766 24.5756 12.3926C24.8103 12.7979 25.1143 13.1126 25.4876 13.3366C25.861 13.5606 26.261 13.6726 26.6876 13.6726ZM35.8044 6.84061V9.56061H37.5324C38.0977 9.56061 38.5937 9.67794 39.0204 9.91261C39.4577 10.1473 39.8044 10.4726 40.0604 10.8886C40.3164 11.2939 40.4444 11.7579 40.4444 12.2806C40.4444 12.7926 40.3164 13.2566 40.0604 13.6726C39.8044 14.0886 39.4577 14.4139 39.0204 14.6486C38.5937 14.8833 38.0977 15.0006 37.5324 15.0006H34.0924V8.34461H31.8844V6.84061H35.8044ZM35.8044 10.9846V13.5606H37.4044C37.6497 13.5606 37.8737 13.5073 38.0764 13.4006C38.279 13.2833 38.439 13.1286 38.5564 12.9366C38.6737 12.7446 38.7324 12.5259 38.7324 12.2806C38.7324 11.9179 38.6044 11.6139 38.3484 11.3686C38.0924 11.1126 37.7724 10.9846 37.3884 10.9846H35.8044ZM46.5648 15.0006V12.0566C46.3408 12.2166 46.0581 12.3446 45.7168 12.4406C45.3754 12.5259 45.0021 12.5686 44.5968 12.5686C43.6581 12.5686 42.9061 12.2966 42.3408 11.7526C41.7861 11.2086 41.5088 10.4726 41.5088 9.54461V6.84061H43.2368V9.36861C43.2368 9.88061 43.3808 10.2859 43.6688 10.5846C43.9674 10.8726 44.3834 11.0166 44.9168 11.0166C45.2368 11.0166 45.5461 10.9686 45.8448 10.8726C46.1541 10.7659 46.3941 10.6273 46.5648 10.4566V6.84061H48.2768V15.0006H46.5648ZM50.4643 15.0006V6.84061H54.5123C54.9923 6.84061 55.4189 6.93661 55.7923 7.12861C56.1763 7.30994 56.4749 7.56061 56.6883 7.88061C56.9123 8.20061 57.0243 8.55794 57.0243 8.95261C57.0243 9.37928 56.9283 9.74728 56.7363 10.0566C56.5549 10.3659 56.3149 10.5953 56.0163 10.7446V10.8406C56.4216 11.0006 56.7416 11.2406 56.9763 11.5606C57.2216 11.8806 57.3443 12.2486 57.3443 12.6646C57.3443 13.1446 57.2163 13.5606 56.9603 13.9126C56.7149 14.2646 56.3949 14.5366 56.0003 14.7286C55.6056 14.9099 55.1843 15.0006 54.7363 15.0006H50.4643ZM52.1923 11.4486V13.5606H54.5603C54.8696 13.5606 55.1256 13.4646 55.3283 13.2726C55.5416 13.0699 55.6483 12.8139 55.6483 12.5046C55.6483 12.2059 55.5416 11.9553 55.3283 11.7526C55.1256 11.5499 54.8696 11.4486 54.5603 11.4486H52.1923ZM52.1923 8.24861V10.1686H54.3043C54.5923 10.1686 54.8323 10.0779 55.0243 9.89661C55.2163 9.71528 55.3123 9.48594 55.3123 9.20861C55.3123 8.92061 55.2163 8.69128 55.0243 8.52061C54.8323 8.33928 54.5923 8.24861 54.3043 8.24861H52.1923ZM61.6586 15.2566C61.072 15.2566 60.5493 15.1393 60.0906 14.9046C59.6426 14.6699 59.2853 14.3499 59.0186 13.9446C58.7626 13.5286 58.6346 13.0539 58.6346 12.5206C58.6346 11.9339 58.784 11.4379 59.0826 11.0326C59.392 10.6273 59.8026 10.3179 60.3146 10.1046C60.8266 9.89128 61.392 9.78461 62.0106 9.78461C62.352 9.78461 62.6666 9.81128 62.9546 9.86461C63.2533 9.90728 63.5093 9.96061 63.7226 10.0246C63.9466 10.0886 64.1226 10.1579 64.2506 10.2326V9.80061C64.2506 9.26728 64.0586 8.84061 63.6746 8.52061C63.2906 8.20061 62.7946 8.04061 62.1866 8.04061C61.7706 8.04061 61.376 8.13661 61.0026 8.32861C60.6293 8.50994 60.3306 8.76061 60.1066 9.08061L58.9226 8.16861C59.1573 7.83794 59.44 7.55528 59.7706 7.32061C60.112 7.08594 60.4906 6.90461 60.9066 6.77661C61.3333 6.64861 61.776 6.58461 62.2346 6.58461C63.4186 6.58461 64.3306 6.87794 64.9706 7.46461C65.6106 8.04061 65.9306 8.85128 65.9306 9.89661V15.0006H64.2506V13.9926H64.1546C64.016 14.2059 63.824 14.4086 63.5786 14.6006C63.344 14.7926 63.0613 14.9473 62.7306 15.0646C62.4106 15.1926 62.0533 15.2566 61.6586 15.2566ZM61.9626 13.8486C62.4106 13.8486 62.8053 13.7419 63.1466 13.5286C63.4986 13.3153 63.7706 13.0379 63.9626 12.6966C64.1546 12.3446 64.2506 11.9659 64.2506 11.5606C64.016 11.4219 63.728 11.3099 63.3866 11.2246C63.056 11.1286 62.704 11.0806 62.3306 11.0806C61.6266 11.0806 61.1253 11.2193 60.8266 11.4966C60.528 11.7739 60.3786 12.1206 60.3786 12.5366C60.3786 12.9206 60.5226 13.2353 60.8106 13.4806C61.0986 13.7259 61.4826 13.8486 61.9626 13.8486ZM67.983 15.0006V6.84061H69.711V10.1206H73.583V6.84061H75.311V15.0006H73.583V11.6246H69.711V15.0006H67.983ZM81.1266 15.2566C80.3266 15.2566 79.612 15.0699 78.9826 14.6966C78.3533 14.3233 77.8573 13.8113 77.4946 13.1606C77.1426 12.5099 76.9666 11.7686 76.9666 10.9366C76.9666 10.1579 77.1373 9.43794 77.4786 8.77661C77.82 8.11528 78.2946 7.58728 78.9026 7.19261C79.5213 6.78728 80.2306 6.58461 81.0306 6.58461C81.8733 6.58461 82.588 6.76594 83.1746 7.12861C83.772 7.49128 84.2253 7.98728 84.5346 8.61661C84.844 9.24594 84.9986 9.95528 84.9986 10.7446C84.9986 10.8619 84.9933 10.9686 84.9826 11.0646C84.9826 11.1606 84.9773 11.2353 84.9666 11.2886H78.6626C78.7053 11.7366 78.8173 12.1259 78.9986 12.4566C79.2333 12.8726 79.5426 13.1873 79.9266 13.4006C80.3106 13.6139 80.7266 13.7206 81.1746 13.7206C81.7186 13.7206 82.172 13.5979 82.5346 13.3526C82.908 13.0966 83.2013 12.7819 83.4146 12.4086L84.8386 13.0966C84.4866 13.7366 84.0066 14.2593 83.3986 14.6646C82.7906 15.0593 82.0333 15.2566 81.1266 15.2566ZM78.7586 9.99261H83.2866C83.276 9.78994 83.2226 9.57661 83.1266 9.35261C83.0306 9.11794 82.892 8.90461 82.7106 8.71261C82.5293 8.52061 82.3 8.36594 82.0226 8.24861C81.7453 8.12061 81.42 8.05661 81.0466 8.05661C80.5773 8.05661 80.1613 8.17928 79.7986 8.42461C79.436 8.65928 79.1533 8.98994 78.9506 9.41661C78.8653 9.59794 78.8013 9.78994 78.7586 9.99261ZM95.3241 15.0006V12.0566C95.1001 12.2166 94.8175 12.3446 94.4761 12.4406C94.1348 12.5259 93.7615 12.5686 93.3561 12.5686C92.4175 12.5686 91.6655 12.2966 91.1001 11.7526C90.5455 11.2086 90.2681 10.4726 90.2681 9.54461V6.84061H91.9961V9.36861C91.9961 9.88061 92.1401 10.2859 92.4281 10.5846C92.7268 10.8726 93.1428 11.0166 93.6761 11.0166C93.9961 11.0166 94.3055 10.9686 94.6041 10.8726C94.9135 10.7659 95.1535 10.6273 95.3241 10.4566V6.84061H97.0361V15.0006H95.3241ZM99.2076 18.4566V6.84061H100.824V7.94461H100.92C101.069 7.70994 101.266 7.49128 101.512 7.28861C101.768 7.07528 102.066 6.90461 102.408 6.77661C102.749 6.64861 103.128 6.58461 103.544 6.58461C104.29 6.58461 104.957 6.77128 105.544 7.14461C106.13 7.51794 106.594 8.02994 106.936 8.68061C107.288 9.33128 107.464 10.0779 107.464 10.9206C107.464 11.7633 107.288 12.5099 106.936 13.1606C106.594 13.8113 106.13 14.3233 105.544 14.6966C104.957 15.0699 104.29 15.2566 103.544 15.2566C102.925 15.2566 102.386 15.1179 101.928 14.8406C101.469 14.5633 101.133 14.2539 100.92 13.9126H100.824L100.92 15.0486V18.4566H99.2076ZM103.288 13.6726C103.714 13.6726 104.114 13.5606 104.488 13.3366C104.872 13.1126 105.176 12.7926 105.4 12.3766C105.634 11.9606 105.752 11.4753 105.752 10.9206C105.752 10.3553 105.634 9.86994 105.4 9.46461C105.176 9.04861 104.872 8.72861 104.488 8.50461C104.114 8.28061 103.714 8.16861 103.288 8.16861C102.861 8.16861 102.461 8.28061 102.088 8.50461C101.714 8.72861 101.41 9.04861 101.176 9.46461C100.941 9.86994 100.824 10.3553 100.824 10.9206C100.824 11.4859 100.941 11.9766 101.176 12.3926C101.41 12.7979 101.714 13.1126 102.088 13.3366C102.461 13.5606 102.861 13.6726 103.288 13.6726ZM112.899 15.2566C112.099 15.2566 111.384 15.0699 110.755 14.6966C110.125 14.3233 109.629 13.8113 109.267 13.1606C108.915 12.5099 108.739 11.7686 108.739 10.9366C108.739 10.1579 108.909 9.43794 109.251 8.77661C109.592 8.11528 110.067 7.58728 110.675 7.19261C111.293 6.78728 112.003 6.58461 112.803 6.58461C113.645 6.58461 114.36 6.76594 114.947 7.12861C115.544 7.49128 115.997 7.98728 116.307 8.61661C116.616 9.24594 116.771 9.95528 116.771 10.7446C116.771 10.8619 116.765 10.9686 116.755 11.0646C116.755 11.1606 116.749 11.2353 116.739 11.2886H110.435C110.477 11.7366 110.589 12.1259 110.771 12.4566C111.005 12.8726 111.315 13.1873 111.699 13.4006C112.083 13.6139 112.499 13.7206 112.947 13.7206C113.491 13.7206 113.944 13.5979 114.307 13.3526C114.68 13.0966 114.973 12.7819 115.187 12.4086L116.611 13.0966C116.259 13.7366 115.779 14.2593 115.171 14.6646C114.563 15.0593 113.805 15.2566 112.899 15.2566ZM110.531 9.99261H115.059C115.048 9.78994 114.995 9.57661 114.899 9.35261C114.803 9.11794 114.664 8.90461 114.483 8.71261C114.301 8.52061 114.072 8.36594 113.795 8.24861C113.517 8.12061 113.192 8.05661 112.819 8.05661C112.349 8.05661 111.933 8.17928 111.571 8.42461C111.208 8.65928 110.925 8.98994 110.723 9.41661C110.637 9.59794 110.573 9.78994 110.531 9.99261ZM121.123 15.2566C120.686 15.2566 120.238 15.2033 119.779 15.0966C119.331 14.9899 118.915 14.8086 118.531 14.5526C118.147 14.2859 117.822 13.9179 117.555 13.4486L118.931 12.6486C119.23 13.0646 119.571 13.3526 119.955 13.5126C120.35 13.6619 120.739 13.7366 121.123 13.7366C121.678 13.7366 122.099 13.6299 122.387 13.4166C122.675 13.2033 122.819 12.9259 122.819 12.5846C122.819 12.2859 122.686 12.0459 122.419 11.8646C122.163 11.6726 121.8 11.5766 121.331 11.5766H120.003V10.2166H121.331C121.736 10.2166 122.046 10.1206 122.259 9.92861C122.483 9.73661 122.595 9.49128 122.595 9.19261C122.595 8.84061 122.446 8.56328 122.147 8.36061C121.848 8.14728 121.47 8.04061 121.011 8.04061C120.606 8.04061 120.216 8.12594 119.843 8.29661C119.47 8.45661 119.187 8.67528 118.995 8.95261L117.715 8.10461C117.96 7.78461 118.254 7.51261 118.595 7.28861C118.936 7.06461 119.31 6.89394 119.715 6.77661C120.131 6.64861 120.568 6.58461 121.027 6.58461C121.635 6.58461 122.179 6.68594 122.659 6.88861C123.139 7.09128 123.518 7.37394 123.795 7.73661C124.083 8.08861 124.227 8.49928 124.227 8.96861C124.227 9.37394 124.126 9.73661 123.923 10.0566C123.72 10.3766 123.454 10.6113 123.123 10.7606V10.8566C123.539 11.0273 123.875 11.2833 124.131 11.6246C124.387 11.9659 124.515 12.3553 124.515 12.7926C124.515 13.2726 124.371 13.6993 124.083 14.0726C123.806 14.4459 123.411 14.7393 122.899 14.9526C122.398 15.1553 121.806 15.2566 121.123 15.2566Z" fill="white"/>
<g id="GPay (Dark)">
<g id="GPay">
<g id="Pay">
<path id="Fill 1" fill-rule="evenodd" clip-rule="evenodd" d="M153.356 3.42339V8.16175H156.278C156.974 8.16175 157.55 7.92781 158.005 7.45993C158.473 6.99313 158.707 6.43644 158.707 5.79203C158.707 5.16061 158.473 4.61041 158.005 4.14254C157.55 3.66274 156.974 3.4223 156.278 3.4223H153.356V3.42339ZM153.356 9.82966V15.3262H151.611V1.75549H156.24C157.417 1.75549 158.415 2.14756 159.238 2.93061C160.073 3.71365 160.491 4.66782 160.491 5.79203C160.491 6.94224 160.073 7.90291 159.238 8.67296C158.428 9.44409 157.429 9.82858 156.24 9.82858H153.356V9.82966Z" fill="white"/>
<path id="Fill 3" fill-rule="evenodd" clip-rule="evenodd" d="M162.255 12.4831C162.255 12.9379 162.448 13.317 162.834 13.6203C163.22 13.9235 163.672 14.0752 164.19 14.0752C164.924 14.0752 165.578 13.8032 166.153 13.2607C166.729 12.717 167.017 12.0791 167.017 11.3469C166.472 10.917 165.713 10.7025 164.74 10.7025C164.031 10.7025 163.44 10.8736 162.966 11.2148C162.492 11.5559 162.255 11.9773 162.255 12.4831M164.513 5.73566C165.803 5.73566 166.821 6.08007 167.569 6.76889C168.314 7.45771 168.687 8.40213 168.687 9.60216V15.3261H167.018V14.0373H166.942C166.221 15.0985 165.259 15.6294 164.058 15.6294C163.033 15.6294 162.176 15.3261 161.487 14.7196C160.797 14.1131 160.453 13.3549 160.453 12.4452C160.453 11.4845 160.816 10.7208 161.543 10.1523C162.271 9.58375 163.241 9.2989 164.456 9.2989C165.492 9.2989 166.346 9.48844 167.017 9.86751V9.46894C167.017 8.86243 166.776 8.34798 166.296 7.92451C165.814 7.50103 165.252 7.28984 164.607 7.28984C163.633 7.28984 162.862 7.70032 162.293 8.52235L160.755 7.55519C161.603 6.34217 162.855 5.73566 164.513 5.73566" fill="white"/>
<path id="Fill 5" fill-rule="evenodd" clip-rule="evenodd" d="M178.269 6.03894L172.443 19.4201H170.641L172.804 14.738L168.971 6.03894H170.869L173.639 12.7106H173.677L176.371 6.03894H178.269Z" fill="white"/>
</g>
<g id="G">
<path id="Fill 8" fill-rule="evenodd" clip-rule="evenodd" d="M146.303 8.64473C146.303 8.09563 146.256 7.56601 146.168 7.05914H138.806V10.0625H143.023C142.842 11.0414 142.294 11.8744 141.464 12.4322V14.3828H143.98C145.454 13.0246 146.303 11.0177 146.303 8.64473" fill="#4285F4"/>
<path id="Fill 10" fill-rule="evenodd" clip-rule="evenodd" d="M138.806 16.2651C140.913 16.2651 142.687 15.5741 143.98 14.3828L141.464 12.4322C140.763 12.9033 139.861 13.1784 138.806 13.1784C136.77 13.1784 135.042 11.8073 134.424 9.95959H131.832V11.9687C133.116 14.516 135.757 16.2651 138.806 16.2651" fill="#34A853"/>
<path id="Fill 12" fill-rule="evenodd" clip-rule="evenodd" d="M134.424 9.9596C134.266 9.48847 134.179 8.98593 134.179 8.46715C134.179 7.94837 134.266 7.44583 134.424 6.9747V4.96564H131.832C131.3 6.01837 131 7.20756 131 8.46715C131 9.72674 131.3 10.916 131.832 11.9687L134.424 9.9596Z" fill="#FABB05"/>
<path id="Fill 14" fill-rule="evenodd" clip-rule="evenodd" d="M138.806 3.75583C139.957 3.75583 140.988 4.15115 141.801 4.92553V4.92661L144.029 2.70094C142.676 1.44243 140.912 0.669128 138.806 0.669128C135.757 0.669128 133.116 2.41826 131.832 4.9656L134.424 6.97467C135.042 5.12698 136.77 3.75583 138.806 3.75583" fill="#E94235"/>
</g>
</g>
</g>
</g>
</svg>
