<svg width="288" height="38" viewBox="0 0 288 38" fill="none" xmlns="http://www.w3.org/2000/svg">
<g id="bg_pay_with_Light">
<path id="Text" d="M3.50315 30V9.952H18.6232V30H15.5432V12.864H6.58315V30H3.50315ZM23.1833 30.224C22.754 30.224 22.3433 30.1773 21.9513 30.084V27.284C22.2126 27.4147 22.502 27.48 22.8193 27.48C23.454 27.48 23.902 27.2373 24.1633 26.752C24.4246 26.248 24.5833 25.6133 24.6393 24.848C24.6953 24.0827 24.7233 23.2893 24.7233 22.468V15.72H35.6433V30H32.6473V18.352H27.5793V22.944C27.5793 23.9147 27.514 24.8387 27.3833 25.716C27.2713 26.5747 27.0566 27.3493 26.7393 28.04C26.422 28.712 25.974 29.244 25.3953 29.636C24.8353 30.028 24.098 30.224 23.1833 30.224ZM43.8448 30.448C42.8181 30.448 41.9034 30.252 41.1008 29.86C40.2981 29.4493 39.6728 28.88 39.2248 28.152C38.7768 27.424 38.5528 26.5933 38.5528 25.66C38.5528 24.652 38.8141 23.7933 39.3368 23.084C39.8781 22.356 40.5968 21.8053 41.4928 21.432C42.3888 21.0587 43.3781 20.872 44.4608 20.872C45.3568 20.872 46.1408 20.956 46.8128 21.124C47.5034 21.292 48.0261 21.4693 48.3808 21.656V20.9C48.3808 19.9667 48.0448 19.22 47.3728 18.66C46.7008 18.1 45.8328 17.82 44.7688 17.82C44.0408 17.82 43.3501 17.988 42.6968 18.324C42.0434 18.6413 41.5208 19.08 41.1288 19.64L39.0568 18.044C39.6728 17.1853 40.4848 16.5133 41.4928 16.028C42.5194 15.524 43.6394 15.272 44.8528 15.272C46.9248 15.272 48.5208 15.7853 49.6408 16.812C50.7608 17.82 51.3208 19.2387 51.3208 21.068V30H48.3808V28.236H48.2128C47.8394 28.8147 47.2794 29.328 46.5328 29.776C45.7861 30.224 44.8901 30.448 43.8448 30.448ZM44.3768 27.984C45.1608 27.984 45.8514 27.7973 46.4488 27.424C47.0461 27.0507 47.5128 26.5653 47.8488 25.968C48.2034 25.352 48.3808 24.6893 48.3808 23.98C47.9514 23.7373 47.4474 23.5413 46.8688 23.392C46.2901 23.224 45.6741 23.14 45.0208 23.14C43.7888 23.14 42.9114 23.392 42.3888 23.896C41.8661 24.3813 41.6048 24.9787 41.6048 25.688C41.6048 26.36 41.8568 26.9107 42.3608 27.34C42.8648 27.7693 43.5368 27.984 44.3768 27.984ZM54.9499 30V15.72H57.9459V27.368H62.6499V15.72H65.6459V27.368H70.3499V15.72H73.3459V30H54.9499ZM72.6179 34.256V30H71.6659V27.284H75.4179V34.256H72.6179ZM82.8901 30.448C81.8634 30.448 80.9488 30.252 80.1461 29.86C79.3434 29.4493 78.7181 28.88 78.2701 28.152C77.8221 27.424 77.5981 26.5933 77.5981 25.66C77.5981 24.652 77.8594 23.7933 78.3821 23.084C78.9234 22.356 79.6421 21.8053 80.5381 21.432C81.4341 21.0587 82.4234 20.872 83.5061 20.872C84.4021 20.872 85.1861 20.956 85.8581 21.124C86.5488 21.292 87.0714 21.4693 87.4261 21.656V20.9C87.4261 19.9667 87.0901 19.22 86.4181 18.66C85.7461 18.1 84.8781 17.82 83.8141 17.82C83.0861 17.82 82.3954 17.988 81.7421 18.324C81.0888 18.6413 80.5661 19.08 80.1741 19.64L78.1021 18.044C78.7181 17.1853 79.5301 16.5133 80.5381 16.028C81.5648 15.524 82.6848 15.272 83.8981 15.272C85.9701 15.272 87.5661 15.7853 88.6861 16.812C89.8061 17.82 90.3661 19.2387 90.3661 21.068V30H87.4261V28.236H87.2581C86.8848 28.8147 86.3248 29.328 85.5781 29.776C84.8314 30.224 83.9354 30.448 82.8901 30.448ZM83.4221 27.984C84.2061 27.984 84.8968 27.7973 85.4941 27.424C86.0914 27.0507 86.5581 26.5653 86.8941 25.968C87.2488 25.352 87.4261 24.6893 87.4261 23.98C86.9968 23.7373 86.4928 23.5413 85.9141 23.392C85.3354 23.224 84.7194 23.14 84.0661 23.14C82.8341 23.14 81.9568 23.392 81.4341 23.896C80.9114 24.3813 80.6501 24.9787 80.6501 25.688C80.6501 26.36 80.9021 26.9107 81.4061 27.34C81.9101 27.7693 82.5821 27.984 83.4221 27.984ZM93.9952 30V15.72H97.0192V21.46H103.795V15.72H106.819V30H103.795V24.092H97.0192V30H93.9952ZM117.034 30.448C115.634 30.448 114.383 30.1213 113.282 29.468C112.181 28.8147 111.313 27.9187 110.678 26.78C110.062 25.6413 109.754 24.344 109.754 22.888C109.754 21.5253 110.053 20.2653 110.65 19.108C111.247 17.9507 112.078 17.0267 113.142 16.336C114.225 15.6267 115.466 15.272 116.866 15.272C118.341 15.272 119.591 15.5893 120.618 16.224C121.663 16.8587 122.457 17.7267 122.998 18.828C123.539 19.9293 123.81 21.1707 123.81 22.552C123.81 22.7573 123.801 22.944 123.782 23.112C123.782 23.28 123.773 23.4107 123.754 23.504H112.722C112.871 24.9227 113.366 25.9867 114.206 26.696C115.065 27.4053 116.035 27.76 117.118 27.76C118.089 27.76 118.891 27.5453 119.526 27.116C120.161 26.668 120.665 26.1173 121.038 25.464L123.53 26.668C122.914 27.788 122.074 28.7027 121.01 29.412C119.946 30.1027 118.621 30.448 117.034 30.448ZM116.894 17.848C115.886 17.848 115.027 18.156 114.318 18.772C113.609 19.388 113.133 20.2093 112.89 21.236H120.814C120.777 20.7507 120.618 20.2467 120.338 19.724C120.058 19.2013 119.629 18.7627 119.05 18.408C118.49 18.0347 117.771 17.848 116.894 17.848ZM141.955 30V24.848C141.563 25.128 141.068 25.352 140.471 25.52C139.873 25.6693 139.22 25.744 138.511 25.744C136.868 25.744 135.552 25.268 134.563 24.316C133.592 23.364 133.107 22.076 133.107 20.452V15.72H136.131V20.144C136.131 21.04 136.383 21.7493 136.887 22.272C137.409 22.776 138.137 23.028 139.071 23.028C139.649 23.028 140.191 22.944 140.695 22.776C141.217 22.5893 141.637 22.3467 141.955 22.048V15.72H144.951V30H141.955ZM148.788 36.048V15.72H151.616V17.652H151.784C152.158 17.036 152.736 16.4853 153.52 16C154.323 15.5147 155.275 15.272 156.376 15.272C157.683 15.272 158.85 15.5987 159.876 16.252C160.903 16.9053 161.715 17.8013 162.312 18.94C162.928 20.0787 163.236 21.3853 163.236 22.86C163.236 24.3347 162.928 25.6507 162.312 26.808C161.715 27.9467 160.903 28.8427 159.876 29.496C158.85 30.1307 157.683 30.448 156.376 30.448C155.275 30.448 154.323 30.2147 153.52 29.748C152.736 29.2627 152.158 28.712 151.784 28.096H151.616L151.784 30.084V36.048H148.788ZM155.928 27.676C156.675 27.676 157.375 27.48 158.028 27.088C158.682 26.696 159.214 26.1453 159.624 25.436C160.035 24.708 160.24 23.8493 160.24 22.86C160.24 21.8707 160.035 21.0213 159.624 20.312C159.214 19.584 158.682 19.024 158.028 18.632C157.375 18.24 156.675 18.044 155.928 18.044C155.182 18.044 154.482 18.24 153.828 18.632C153.175 19.024 152.643 19.584 152.232 20.312C151.822 21.0213 151.616 21.8707 151.616 22.86C151.616 23.8493 151.822 24.708 152.232 25.436C152.643 26.1453 153.175 26.696 153.828 27.088C154.482 27.48 155.182 27.676 155.928 27.676ZM172.785 30.448C171.385 30.448 170.134 30.1213 169.033 29.468C167.932 28.8147 167.064 27.9187 166.429 26.78C165.813 25.6413 165.505 24.344 165.505 22.888C165.505 21.5253 165.804 20.2653 166.401 19.108C166.998 17.9507 167.829 17.0267 168.893 16.336C169.976 15.6267 171.217 15.272 172.617 15.272C174.092 15.272 175.342 15.5893 176.369 16.224C177.414 16.8587 178.208 17.7267 178.749 18.828C179.29 19.9293 179.561 21.1707 179.561 22.552C179.561 22.7573 179.552 22.944 179.533 23.112C179.533 23.28 179.524 23.4107 179.505 23.504H168.473C168.622 24.9227 169.117 25.9867 169.957 26.696C170.816 27.4053 171.786 27.76 172.869 27.76C173.84 27.76 174.642 27.5453 175.277 27.116C175.912 26.668 176.416 26.1173 176.789 25.464L179.281 26.668C178.665 27.788 177.825 28.7027 176.761 29.412C175.697 30.1027 174.372 30.448 172.785 30.448ZM172.645 17.848C171.637 17.848 170.778 18.156 170.069 18.772C169.36 19.388 168.884 20.2093 168.641 21.236H176.565C176.528 20.7507 176.369 20.2467 176.089 19.724C175.809 19.2013 175.38 18.7627 174.801 18.408C174.241 18.0347 173.522 17.848 172.645 17.848ZM187.215 30.448C186.431 30.448 185.647 30.3547 184.863 30.168C184.079 29.9813 183.342 29.664 182.651 29.216C181.979 28.7493 181.419 28.1053 180.971 27.284L183.379 25.884C183.902 26.612 184.499 27.116 185.171 27.396C185.862 27.6573 186.543 27.788 187.215 27.788C188.186 27.788 188.923 27.6013 189.427 27.228C189.931 26.8547 190.183 26.3693 190.183 25.772C190.183 25.2493 189.95 24.8293 189.483 24.512C189.035 24.176 188.401 24.008 187.579 24.008H185.255V21.628H187.579C188.289 21.628 188.83 21.46 189.203 21.124C189.595 20.788 189.791 20.3587 189.791 19.836C189.791 19.22 189.53 18.7347 189.007 18.38C188.485 18.0067 187.822 17.82 187.019 17.82C186.31 17.82 185.629 17.9693 184.975 18.268C184.322 18.548 183.827 18.9307 183.491 19.416L181.251 17.932C181.905 17.1107 182.726 16.4667 183.715 16C184.723 15.5147 185.834 15.272 187.047 15.272C188.093 15.272 189.035 15.4493 189.875 15.804C190.734 16.1587 191.406 16.6533 191.891 17.288C192.395 17.904 192.647 18.6227 192.647 19.444C192.647 20.1533 192.47 20.788 192.115 21.348C191.761 21.8893 191.294 22.3 190.715 22.58V22.748C191.443 23.0467 192.031 23.4947 192.479 24.092C192.927 24.6893 193.151 25.3707 193.151 26.136C193.151 26.976 192.909 27.7227 192.423 28.376C191.938 29.0107 191.247 29.5147 190.351 29.888C189.455 30.2613 188.41 30.448 187.215 30.448Z" fill="#3C4043"/>
<g id="GPay Logo (Light)">
<g id="GPay">
<g id="Pay">
<path id="Fill 1" fill-rule="evenodd" clip-rule="evenodd" d="M244.529 9.44664V17.6128H249.565C250.765 17.6128 251.757 17.2096 252.541 16.4032C253.347 15.5988 253.75 14.6394 253.75 13.5288C253.75 12.4406 253.347 11.4924 252.541 10.686C251.757 9.85915 250.765 9.44478 249.565 9.44478H244.529V9.44664ZM244.529 20.4872V29.9599H241.521V6.57217H249.499C251.527 6.57217 253.248 7.24786 254.666 8.59737C256.105 9.94688 256.824 11.5913 256.824 13.5288C256.824 15.511 256.105 17.1667 254.666 18.4938C253.27 19.8227 251.547 20.4854 249.499 20.4854H244.529V20.4872Z" fill="#5F6368"/>
<path id="Fill 3" fill-rule="evenodd" clip-rule="evenodd" d="M259.864 25.0602C259.864 25.8442 260.197 26.4975 260.862 27.0201C261.527 27.5427 262.306 27.804 263.2 27.804C264.465 27.804 265.591 27.3354 266.584 26.4004C267.576 25.4634 268.071 24.364 268.071 23.1022C267.133 22.3612 265.825 21.9916 264.147 21.9916C262.925 21.9916 261.907 22.2865 261.09 22.8745C260.273 23.4623 259.864 24.1886 259.864 25.0602ZM263.756 13.4317C265.98 13.4317 267.735 14.0252 269.022 15.2124C270.308 16.3995 270.95 18.0271 270.95 20.0952V29.9599H268.073V27.7387H267.942C266.699 29.5677 265.042 30.4825 262.972 30.4825C261.206 30.4825 259.728 29.9599 258.541 28.9146C257.353 27.8694 256.759 26.5628 256.759 24.9949C256.759 23.3393 257.385 22.0232 258.638 21.0434C259.892 20.0635 261.565 19.5726 263.658 19.5726C265.444 19.5726 266.916 19.8992 268.071 20.5525V19.8656C268.071 18.8204 267.656 17.9338 266.829 17.204C265.999 16.4741 265.031 16.1102 263.919 16.1102C262.239 16.1102 260.911 16.8176 259.93 18.2343L257.28 16.5675C258.741 14.4769 260.899 13.4317 263.756 13.4317Z" fill="#5F6368"/>
<path id="Fill 5" fill-rule="evenodd" clip-rule="evenodd" d="M287.463 13.9543L277.424 37.0154H274.318L278.046 28.9464L271.44 13.9543H274.71L279.484 25.4522H279.55L284.193 13.9543H287.463Z" fill="#5F6368"/>
</g>
<g id="G">
<path id="Fill 8" fill-rule="evenodd" clip-rule="evenodd" d="M232.373 18.4452C232.373 17.4989 232.293 16.5861 232.141 15.7126H219.454V20.8885H226.72C226.408 22.5757 225.465 24.0112 224.033 24.9725V28.3341H228.37C230.91 25.9935 232.373 22.5348 232.373 18.4452Z" fill="#4285F4"/>
<path id="Fill 10" fill-rule="evenodd" clip-rule="evenodd" d="M219.454 31.5782C223.084 31.5782 226.141 30.3873 228.37 28.3341L224.033 24.9725C222.826 25.7844 221.272 26.2585 219.454 26.2585C215.944 26.2585 212.966 23.8955 211.901 20.7112H207.433V24.1736C209.647 28.5637 214.197 31.5782 219.454 31.5782Z" fill="#34A853"/>
<path id="Fill 12" fill-rule="evenodd" clip-rule="evenodd" d="M211.901 20.7111C211.628 19.8992 211.479 19.0331 211.479 18.139C211.479 17.245 211.628 16.3789 211.901 15.567V12.1045H207.433C206.518 13.9188 206 15.9683 206 18.139C206 20.3098 206.518 22.3595 207.433 24.1736L211.901 20.7111Z" fill="#FABB05"/>
<path id="Fill 14" fill-rule="evenodd" clip-rule="evenodd" d="M219.454 10.0196C221.436 10.0196 223.213 10.7009 224.615 12.0355V12.0374L228.455 8.20162C226.123 6.03271 223.082 4.7 219.454 4.7C214.197 4.7 209.647 7.71446 207.433 12.1046L211.901 15.567C212.966 12.3827 215.944 10.0196 219.454 10.0196Z" fill="#E94235"/>
</g>
</g>
</g>
</g>
</svg>
