<svg width="181" height="21" viewBox="0 0 181 21" fill="none" xmlns="http://www.w3.org/2000/svg">
<g id="bg_subscribe_with_Pay_NBG">
<path id="Left Text" d="M0.915003 15.0006L5.235 3.54461H7.235L11.571 15.0006H9.635L8.579 12.0566H3.907L2.851 15.0006H0.915003ZM7.987 10.4246L6.723 6.92061L6.291 5.60861H6.195L5.763 6.92061L4.499 10.4246H7.987ZM16.4081 15.2566C15.6081 15.2566 14.8988 15.0699 14.2801 14.6966C13.6721 14.3233 13.1921 13.7633 12.8401 13.0166C12.4881 12.2699 12.3121 11.3259 12.3121 10.1846C12.3121 9.40594 12.3601 8.71794 12.4561 8.12061C12.5628 7.52328 12.7281 7.00594 12.9521 6.56861C13.1761 6.13128 13.4695 5.75794 13.8321 5.44861C14.1735 5.16061 14.5948 4.92061 15.0961 4.72861C15.6081 4.53661 16.2428 4.38194 17.0001 4.26461C17.4055 4.20061 17.6935 4.13661 17.8641 4.07261C18.0455 4.00861 18.1575 3.93394 18.2001 3.84861C18.2535 3.76328 18.2801 3.66194 18.2801 3.54461H19.8481C19.8481 4.02461 19.7735 4.40861 19.6241 4.69661C19.4855 4.97394 19.2295 5.18728 18.8561 5.33661C18.4935 5.47528 17.9761 5.59794 17.3041 5.70461C16.8348 5.77928 16.4401 5.85928 16.1201 5.94461C15.8108 6.02994 15.5495 6.13128 15.3361 6.24861C15.1335 6.35528 14.9521 6.47261 14.7921 6.60061C14.5148 6.82461 14.3015 7.08061 14.1521 7.36861C14.0028 7.65661 13.8961 8.00861 13.8321 8.42461H13.9281C14.0881 8.16861 14.3015 7.94461 14.5681 7.75261C14.8455 7.54994 15.1655 7.39528 15.5281 7.28861C15.8908 7.17128 16.2855 7.11261 16.7121 7.11261C17.4695 7.11261 18.1361 7.28861 18.7121 7.64061C19.2881 7.98194 19.7361 8.45128 20.0561 9.04861C20.3868 9.63528 20.5521 10.3126 20.5521 11.0806C20.5521 11.8699 20.3761 12.5846 20.0241 13.2246C19.6721 13.8539 19.1868 14.3499 18.5681 14.7126C17.9495 15.0753 17.2295 15.2566 16.4081 15.2566ZM16.4241 13.7046C17.1175 13.7046 17.6881 13.4699 18.1361 13.0006C18.5948 12.5313 18.8241 11.8806 18.8241 11.0486C18.8241 10.2913 18.5948 9.69928 18.1361 9.27261C17.6881 8.84594 17.1175 8.63261 16.4241 8.63261C15.9868 8.63261 15.5868 8.72861 15.2241 8.92061C14.8615 9.11261 14.5735 9.38994 14.3601 9.75261C14.1468 10.1046 14.0401 10.5366 14.0401 11.0486C14.0401 11.8806 14.2641 12.5313 14.7121 13.0006C15.1708 13.4699 15.7415 13.7046 16.4241 13.7046ZM26.1199 15.2566C25.2772 15.2566 24.5359 15.0646 23.8959 14.6806C23.2559 14.2966 22.7545 13.7793 22.3919 13.1286C22.0292 12.4673 21.8479 11.7313 21.8479 10.9206C21.8479 10.1099 22.0292 9.37928 22.3919 8.72861C22.7545 8.06728 23.2559 7.54461 23.8959 7.16061C24.5359 6.77661 25.2772 6.58461 26.1199 6.58461C26.9519 6.58461 27.6879 6.78194 28.3279 7.17661C28.9679 7.56061 29.4692 8.07794 29.8319 8.72861C30.1945 9.37928 30.3759 10.1099 30.3759 10.9206C30.3759 11.7313 30.1945 12.4673 29.8319 13.1286C29.4692 13.7793 28.9679 14.2966 28.3279 14.6806C27.6879 15.0646 26.9519 15.2566 26.1199 15.2566ZM26.1199 13.6726C26.5679 13.6726 26.9839 13.5659 27.3679 13.3526C27.7519 13.1286 28.0612 12.8139 28.2959 12.4086C28.5412 11.9926 28.6639 11.4966 28.6639 10.9206C28.6639 10.3446 28.5412 9.85394 28.2959 9.44861C28.0612 9.03261 27.7519 8.71794 27.3679 8.50461C26.9839 8.28061 26.5679 8.16861 26.1199 8.16861C25.6719 8.16861 25.2505 8.28061 24.8559 8.50461C24.4719 8.71794 24.1572 9.03261 23.9119 9.44861C23.6772 9.85394 23.5599 10.3446 23.5599 10.9206C23.5599 11.4966 23.6772 11.9926 23.9119 12.4086C24.1572 12.8139 24.4772 13.1286 24.8719 13.3526C25.2665 13.5659 25.6825 13.6726 26.1199 13.6726ZM31.9611 15.0006V6.84061H33.6891V10.1206H37.5611V6.84061H39.2891V15.0006H37.5611V11.6246H33.6891V15.0006H31.9611ZM41.4549 15.0006V6.84061H43.1829V11.0166L43.0869 12.5526H43.1829L47.2629 6.84061H48.9749V15.0006H47.2629V10.8406L47.3589 9.30461H47.2629L43.1829 15.0006H41.4549ZM51.1358 18.4566V6.84061H52.7518V7.94461H52.8478C52.9971 7.70994 53.1944 7.49128 53.4398 7.28861C53.6958 7.07528 53.9944 6.90461 54.3358 6.77661C54.6771 6.64861 55.0558 6.58461 55.4718 6.58461C56.2184 6.58461 56.8851 6.77128 57.4718 7.14461C58.0584 7.51794 58.5224 8.02994 58.8638 8.68061C59.2158 9.33128 59.3918 10.0779 59.3918 10.9206C59.3918 11.7633 59.2158 12.5099 58.8638 13.1606C58.5224 13.8113 58.0584 14.3233 57.4718 14.6966C56.8851 15.0699 56.2184 15.2566 55.4718 15.2566C54.8531 15.2566 54.3144 15.1179 53.8558 14.8406C53.3971 14.5633 53.0611 14.2539 52.8478 13.9126H52.7518L52.8478 15.0486V18.4566H51.1358ZM55.2158 13.6726C55.6424 13.6726 56.0424 13.5606 56.4158 13.3366C56.7998 13.1126 57.1038 12.7926 57.3278 12.3766C57.5624 11.9606 57.6798 11.4753 57.6798 10.9206C57.6798 10.3553 57.5624 9.86994 57.3278 9.46461C57.1038 9.04861 56.7998 8.72861 56.4158 8.50461C56.0424 8.28061 55.6424 8.16861 55.2158 8.16861C54.7891 8.16861 54.3891 8.28061 54.0158 8.50461C53.6424 8.72861 53.3384 9.04861 53.1038 9.46461C52.8691 9.86994 52.7518 10.3553 52.7518 10.9206C52.7518 11.4859 52.8691 11.9766 53.1038 12.3926C53.3384 12.7979 53.6424 13.1126 54.0158 13.3366C54.3891 13.5606 54.7891 13.6726 55.2158 13.6726ZM63.6586 15.2566C63.072 15.2566 62.5493 15.1393 62.0906 14.9046C61.6426 14.6699 61.2853 14.3499 61.0186 13.9446C60.7626 13.5286 60.6346 13.0539 60.6346 12.5206C60.6346 11.9339 60.784 11.4379 61.0826 11.0326C61.392 10.6273 61.8026 10.3179 62.3146 10.1046C62.8266 9.89128 63.392 9.78461 64.0106 9.78461C64.352 9.78461 64.6666 9.81128 64.9546 9.86461C65.2533 9.90728 65.5093 9.96061 65.7226 10.0246C65.9466 10.0886 66.1226 10.1579 66.2506 10.2326V9.80061C66.2506 9.26728 66.0586 8.84061 65.6746 8.52061C65.2906 8.20061 64.7946 8.04061 64.1866 8.04061C63.7706 8.04061 63.376 8.13661 63.0026 8.32861C62.6293 8.50994 62.3306 8.76061 62.1066 9.08061L60.9226 8.16861C61.1573 7.83794 61.44 7.55528 61.7706 7.32061C62.112 7.08594 62.4906 6.90461 62.9066 6.77661C63.3333 6.64861 63.776 6.58461 64.2346 6.58461C65.4186 6.58461 66.3306 6.87794 66.9706 7.46461C67.6106 8.04061 67.9306 8.85128 67.9306 9.89661V15.0006H66.2506V13.9926H66.1546C66.016 14.2059 65.824 14.4086 65.5786 14.6006C65.344 14.7926 65.0613 14.9473 64.7306 15.0646C64.4106 15.1926 64.0533 15.2566 63.6586 15.2566ZM63.9626 13.8486C64.4106 13.8486 64.8053 13.7419 65.1466 13.5286C65.4986 13.3153 65.7706 13.0379 65.9626 12.6966C66.1546 12.3446 66.2506 11.9659 66.2506 11.5606C66.016 11.4219 65.728 11.3099 65.3866 11.2246C65.056 11.1286 64.704 11.0806 64.3306 11.0806C63.6266 11.0806 63.1253 11.2193 62.8266 11.4966C62.528 11.7739 62.3786 12.1206 62.3786 12.5366C62.3786 12.9206 62.5226 13.2353 62.8106 13.4806C63.0986 13.7259 63.4826 13.8486 63.9626 13.8486ZM69.983 15.0006V6.84061H71.711V10.1206H75.583V6.84061H77.311V15.0006H75.583V11.6246H71.711V15.0006H69.983ZM83.1266 15.2566C82.3266 15.2566 81.612 15.0699 80.9826 14.6966C80.3533 14.3233 79.8573 13.8113 79.4946 13.1606C79.1426 12.5099 78.9666 11.7686 78.9666 10.9366C78.9666 10.1579 79.1373 9.43794 79.4786 8.77661C79.82 8.11528 80.2946 7.58728 80.9026 7.19261C81.5213 6.78728 82.2306 6.58461 83.0306 6.58461C83.8733 6.58461 84.588 6.76594 85.1746 7.12861C85.772 7.49128 86.2253 7.98728 86.5346 8.61661C86.844 9.24594 86.9986 9.95528 86.9986 10.7446C86.9986 10.8619 86.9933 10.9686 86.9826 11.0646C86.9826 11.1606 86.9773 11.2353 86.9666 11.2886H80.6626C80.7053 11.7366 80.8173 12.1259 80.9986 12.4566C81.2333 12.8726 81.5426 13.1873 81.9266 13.4006C82.3106 13.6139 82.7266 13.7206 83.1746 13.7206C83.7186 13.7206 84.172 13.5979 84.5346 13.3526C84.908 13.0966 85.2013 12.7819 85.4146 12.4086L86.8386 13.0966C86.4866 13.7366 86.0066 14.2593 85.3986 14.6646C84.7906 15.0593 84.0333 15.2566 83.1266 15.2566ZM80.7586 9.99261H85.2866C85.276 9.78994 85.2226 9.57661 85.1266 9.35261C85.0306 9.11794 84.892 8.90461 84.7106 8.71261C84.5293 8.52061 84.3 8.36594 84.0226 8.24861C83.7453 8.12061 83.42 8.05661 83.0466 8.05661C82.5773 8.05661 82.1613 8.17928 81.7986 8.42461C81.436 8.65928 81.1533 8.98994 80.9506 9.41661C80.8653 9.59794 80.8013 9.78994 80.7586 9.99261ZM97.3241 15.0006V12.0566C97.1001 12.2166 96.8175 12.3446 96.4761 12.4406C96.1348 12.5259 95.7615 12.5686 95.3561 12.5686C94.4175 12.5686 93.6655 12.2966 93.1001 11.7526C92.5455 11.2086 92.2681 10.4726 92.2681 9.54461V6.84061H93.9961V9.36861C93.9961 9.88061 94.1401 10.2859 94.4281 10.5846C94.7268 10.8726 95.1428 11.0166 95.6761 11.0166C95.9961 11.0166 96.3055 10.9686 96.6041 10.8726C96.9135 10.7659 97.1535 10.6273 97.3241 10.4566V6.84061H99.0361V15.0006H97.3241ZM101.208 18.4566V6.84061H102.824V7.94461H102.92C103.069 7.70994 103.266 7.49128 103.512 7.28861C103.768 7.07528 104.066 6.90461 104.408 6.77661C104.749 6.64861 105.128 6.58461 105.544 6.58461C106.29 6.58461 106.957 6.77128 107.544 7.14461C108.13 7.51794 108.594 8.02994 108.936 8.68061C109.288 9.33128 109.464 10.0779 109.464 10.9206C109.464 11.7633 109.288 12.5099 108.936 13.1606C108.594 13.8113 108.13 14.3233 107.544 14.6966C106.957 15.0699 106.29 15.2566 105.544 15.2566C104.925 15.2566 104.386 15.1179 103.928 14.8406C103.469 14.5633 103.133 14.2539 102.92 13.9126H102.824L102.92 15.0486V18.4566H101.208ZM105.288 13.6726C105.714 13.6726 106.114 13.5606 106.488 13.3366C106.872 13.1126 107.176 12.7926 107.4 12.3766C107.634 11.9606 107.752 11.4753 107.752 10.9206C107.752 10.3553 107.634 9.86994 107.4 9.46461C107.176 9.04861 106.872 8.72861 106.488 8.50461C106.114 8.28061 105.714 8.16861 105.288 8.16861C104.861 8.16861 104.461 8.28061 104.088 8.50461C103.714 8.72861 103.41 9.04861 103.176 9.46461C102.941 9.86994 102.824 10.3553 102.824 10.9206C102.824 11.4859 102.941 11.9766 103.176 12.3926C103.41 12.7979 103.714 13.1126 104.088 13.3366C104.461 13.5606 104.861 13.6726 105.288 13.6726ZM114.899 15.2566C114.099 15.2566 113.384 15.0699 112.755 14.6966C112.125 14.3233 111.629 13.8113 111.267 13.1606C110.915 12.5099 110.739 11.7686 110.739 10.9366C110.739 10.1579 110.909 9.43794 111.251 8.77661C111.592 8.11528 112.067 7.58728 112.675 7.19261C113.293 6.78728 114.003 6.58461 114.803 6.58461C115.645 6.58461 116.36 6.76594 116.947 7.12861C117.544 7.49128 117.997 7.98728 118.307 8.61661C118.616 9.24594 118.771 9.95528 118.771 10.7446C118.771 10.8619 118.765 10.9686 118.755 11.0646C118.755 11.1606 118.749 11.2353 118.739 11.2886H112.435C112.477 11.7366 112.589 12.1259 112.771 12.4566C113.005 12.8726 113.315 13.1873 113.699 13.4006C114.083 13.6139 114.499 13.7206 114.947 13.7206C115.491 13.7206 115.944 13.5979 116.307 13.3526C116.68 13.0966 116.973 12.7819 117.187 12.4086L118.611 13.0966C118.259 13.7366 117.779 14.2593 117.171 14.6646C116.563 15.0593 115.805 15.2566 114.899 15.2566ZM112.531 9.99261H117.059C117.048 9.78994 116.995 9.57661 116.899 9.35261C116.803 9.11794 116.664 8.90461 116.483 8.71261C116.301 8.52061 116.072 8.36594 115.795 8.24861C115.517 8.12061 115.192 8.05661 114.819 8.05661C114.349 8.05661 113.933 8.17928 113.571 8.42461C113.208 8.65928 112.925 8.98994 112.723 9.41661C112.637 9.59794 112.573 9.78994 112.531 9.99261ZM123.123 15.2566C122.686 15.2566 122.238 15.2033 121.779 15.0966C121.331 14.9899 120.915 14.8086 120.531 14.5526C120.147 14.2859 119.822 13.9179 119.555 13.4486L120.931 12.6486C121.23 13.0646 121.571 13.3526 121.955 13.5126C122.35 13.6619 122.739 13.7366 123.123 13.7366C123.678 13.7366 124.099 13.6299 124.387 13.4166C124.675 13.2033 124.819 12.9259 124.819 12.5846C124.819 12.2859 124.686 12.0459 124.419 11.8646C124.163 11.6726 123.8 11.5766 123.331 11.5766H122.003V10.2166H123.331C123.736 10.2166 124.046 10.1206 124.259 9.92861C124.483 9.73661 124.595 9.49128 124.595 9.19261C124.595 8.84061 124.446 8.56328 124.147 8.36061C123.848 8.14728 123.47 8.04061 123.011 8.04061C122.606 8.04061 122.216 8.12594 121.843 8.29661C121.47 8.45661 121.187 8.67528 120.995 8.95261L119.715 8.10461C119.96 7.78461 120.254 7.51261 120.595 7.28861C120.936 7.06461 121.31 6.89394 121.715 6.77661C122.131 6.64861 122.568 6.58461 123.027 6.58461C123.635 6.58461 124.179 6.68594 124.659 6.88861C125.139 7.09128 125.518 7.37394 125.795 7.73661C126.083 8.08861 126.227 8.49928 126.227 8.96861C126.227 9.37394 126.126 9.73661 125.923 10.0566C125.72 10.3766 125.454 10.6113 125.123 10.7606V10.8566C125.539 11.0273 125.875 11.2833 126.131 11.6246C126.387 11.9659 126.515 12.3553 126.515 12.7926C126.515 13.2726 126.371 13.6993 126.083 14.0726C125.806 14.4459 125.411 14.7393 124.899 14.9526C124.398 15.1553 123.806 15.2566 123.123 15.2566Z" fill="white"/>
<g id="GPay (Dark)">
<g id="GPay">
<g id="Pay">
<path id="Fill 1" fill-rule="evenodd" clip-rule="evenodd" d="M155.356 3.42339V8.16175H158.278C158.974 8.16175 159.55 7.92781 160.005 7.45993C160.473 6.99313 160.707 6.43644 160.707 5.79203C160.707 5.16061 160.473 4.61041 160.005 4.14254C159.55 3.66274 158.974 3.4223 158.278 3.4223H155.356V3.42339ZM155.356 9.82966V15.3262H153.611V1.75549H158.24C159.417 1.75549 160.415 2.14756 161.238 2.93061C162.073 3.71365 162.491 4.66782 162.491 5.79203C162.491 6.94224 162.073 7.90291 161.238 8.67296C160.428 9.44409 159.429 9.82858 158.24 9.82858H155.356V9.82966Z" fill="white"/>
<path id="Fill 3" fill-rule="evenodd" clip-rule="evenodd" d="M164.255 12.4831C164.255 12.9379 164.448 13.317 164.834 13.6203C165.22 13.9235 165.672 14.0752 166.19 14.0752C166.924 14.0752 167.578 13.8032 168.153 13.2607C168.729 12.717 169.017 12.0791 169.017 11.3469C168.472 10.917 167.713 10.7025 166.74 10.7025C166.031 10.7025 165.44 10.8736 164.966 11.2148C164.492 11.5559 164.255 11.9773 164.255 12.4831M166.513 5.73566C167.803 5.73566 168.821 6.08007 169.569 6.76889C170.314 7.45771 170.687 8.40213 170.687 9.60216V15.3261H169.018V14.0373H168.942C168.221 15.0985 167.259 15.6294 166.058 15.6294C165.033 15.6294 164.176 15.3261 163.487 14.7196C162.797 14.1131 162.453 13.3549 162.453 12.4452C162.453 11.4845 162.816 10.7208 163.543 10.1523C164.271 9.58375 165.241 9.2989 166.456 9.2989C167.492 9.2989 168.346 9.48844 169.017 9.86751V9.46894C169.017 8.86243 168.776 8.34798 168.296 7.92451C167.814 7.50103 167.252 7.28984 166.607 7.28984C165.633 7.28984 164.862 7.70032 164.293 8.52235L162.755 7.55519C163.603 6.34217 164.855 5.73566 166.513 5.73566" fill="white"/>
<path id="Fill 5" fill-rule="evenodd" clip-rule="evenodd" d="M180.269 6.03894L174.443 19.4201H172.641L174.804 14.738L170.971 6.03894H172.869L175.639 12.7106H175.677L178.371 6.03894H180.269Z" fill="white"/>
</g>
<g id="G">
<path id="Fill 8" fill-rule="evenodd" clip-rule="evenodd" d="M148.303 8.64473C148.303 8.09563 148.256 7.56601 148.168 7.05914H140.806V10.0625H145.023C144.842 11.0414 144.294 11.8744 143.464 12.4322V14.3828H145.98C147.454 13.0246 148.303 11.0177 148.303 8.64473" fill="#4285F4"/>
<path id="Fill 10" fill-rule="evenodd" clip-rule="evenodd" d="M140.806 16.2651C142.913 16.2651 144.687 15.5741 145.98 14.3828L143.464 12.4322C142.763 12.9033 141.861 13.1784 140.806 13.1784C138.77 13.1784 137.042 11.8073 136.424 9.95959H133.832V11.9687C135.116 14.516 137.757 16.2651 140.806 16.2651" fill="#34A853"/>
<path id="Fill 12" fill-rule="evenodd" clip-rule="evenodd" d="M136.424 9.9596C136.266 9.48847 136.179 8.98593 136.179 8.46715C136.179 7.94837 136.266 7.44583 136.424 6.9747V4.96564H133.832C133.3 6.01837 133 7.20756 133 8.46715C133 9.72674 133.3 10.916 133.832 11.9687L136.424 9.9596Z" fill="#FABB05"/>
<path id="Fill 14" fill-rule="evenodd" clip-rule="evenodd" d="M140.806 3.75583C141.957 3.75583 142.988 4.15115 143.801 4.92553V4.92661L146.029 2.70094C144.676 1.44243 142.912 0.669128 140.806 0.669128C137.757 0.669128 135.116 2.41826 133.832 4.9656L136.424 6.97467C137.042 5.12698 138.77 3.75583 140.806 3.75583" fill="#E94235"/>
</g>
</g>
</g>
</g>
</svg>
