<svg width="316" height="38" viewBox="0 0 316 38" fill="none" xmlns="http://www.w3.org/2000/svg">
<g id="bg_subscribe_with_Dark">
<path id="Text" d="M0.863756 30L8.42376 9.952H11.9238L19.5118 30H16.1238L14.2758 24.848H6.09976L4.25176 30H0.863756ZM9.34776 15.86L7.13576 21.992H13.2398L11.0278 15.86L10.2718 13.564H10.1038L9.34776 15.86ZM28.0142 30.448C26.6142 30.448 25.3729 30.1307 24.2902 29.496C23.2262 28.8427 22.3862 27.8627 21.7702 26.556C21.1542 25.2307 20.8462 23.5693 20.8462 21.572C20.8462 19.5373 21.0516 17.8573 21.4622 16.532C21.8729 15.188 22.5542 14.1053 23.5062 13.284C24.1036 12.78 24.8409 12.36 25.7182 12.024C26.6142 11.688 27.7249 11.4173 29.0502 11.212C29.7409 11.1 30.2449 10.988 30.5622 10.876C30.8796 10.764 31.0756 10.6333 31.1502 10.484C31.2436 10.3347 31.2902 10.1573 31.2902 9.952H34.0342C34.0342 10.792 33.9036 11.464 33.6422 11.968C33.3996 12.4533 32.9516 12.8267 32.2982 13.088C31.6636 13.3493 30.7582 13.564 29.5822 13.732C28.3502 13.9187 27.4076 14.1427 26.7542 14.404C26.1196 14.6653 25.5969 14.964 25.1862 15.3C24.2716 16.0467 23.7116 17.1107 23.5062 18.492H23.6742C24.1036 17.8387 24.7382 17.2973 25.5782 16.868C26.4369 16.42 27.4262 16.196 28.5462 16.196C29.8716 16.196 31.0382 16.504 32.0462 17.12C33.0542 17.7173 33.8382 18.5387 34.3982 19.584C34.9769 20.6293 35.2662 21.8147 35.2662 23.14C35.2662 24.5213 34.9582 25.772 34.3422 26.892C33.7449 27.9933 32.8956 28.8613 31.7942 29.496C30.7116 30.1307 29.4516 30.448 28.0142 30.448ZM28.0422 27.732C29.2369 27.732 30.2356 27.3213 31.0382 26.5C31.8409 25.6787 32.2422 24.54 32.2422 23.084C32.2422 21.7587 31.8409 20.7227 31.0382 19.976C30.2356 19.2293 29.2369 18.856 28.0422 18.856C26.8849 18.856 25.8956 19.2293 25.0742 19.976C24.2716 20.7227 23.8702 21.7587 23.8702 23.084C23.8702 24.54 24.2622 25.6787 25.0462 26.5C25.8489 27.3213 26.8476 27.732 28.0422 27.732ZM45.0473 30.448C43.5726 30.448 42.2753 30.112 41.1553 29.44C40.0353 28.768 39.158 27.8627 38.5233 26.724C37.8886 25.5853 37.5713 24.2973 37.5713 22.86C37.5713 21.4413 37.8886 20.1627 38.5233 19.024C39.158 17.8667 40.0353 16.952 41.1553 16.28C42.2753 15.608 43.5726 15.272 45.0473 15.272C46.5033 15.272 47.7913 15.608 48.9113 16.28C50.0313 16.952 50.9086 17.8667 51.5433 19.024C52.178 20.1627 52.4953 21.4413 52.4953 22.86C52.4953 24.2973 52.178 25.5853 51.5433 26.724C50.9086 27.8627 50.0313 28.768 48.9113 29.44C47.7913 30.112 46.5033 30.448 45.0473 30.448ZM45.0473 27.676C45.8313 27.676 46.5593 27.4893 47.2313 27.116C47.9033 26.724 48.4446 26.1733 48.8553 25.464C49.2846 24.736 49.4993 23.868 49.4993 22.86C49.4993 21.852 49.2846 20.9933 48.8553 20.284C48.4446 19.556 47.9033 19.0053 47.2313 18.632C46.5593 18.24 45.8313 18.044 45.0473 18.044C44.2633 18.044 43.526 18.24 42.8353 18.632C42.1633 19.0053 41.6126 19.556 41.1833 20.284C40.7726 20.9933 40.5673 21.852 40.5673 22.86C40.5673 23.868 40.7726 24.736 41.1833 25.464C41.6126 26.1733 42.1633 26.724 42.8353 27.116C43.526 27.4893 44.2633 27.676 45.0473 27.676ZM55.307 30V15.72H58.331V21.46H65.107V15.72H68.131V30H65.107V24.092H58.331V30H55.307ZM71.9585 30V15.72H74.9825V23.028L74.8145 25.716H74.9825L82.1225 15.72H85.1185V30H82.1225V22.72L82.2905 20.032H82.1225L74.9825 30H71.9585ZM88.9376 36.048V15.72H91.7656V17.652H91.9336C92.3069 17.036 92.8856 16.4853 93.6696 16C94.4722 15.5147 95.4242 15.272 96.5256 15.272C97.8322 15.272 98.9989 15.5987 100.026 16.252C101.052 16.9053 101.864 17.8013 102.462 18.94C103.078 20.0787 103.386 21.3853 103.386 22.86C103.386 24.3347 103.078 25.6507 102.462 26.808C101.864 27.9467 101.052 28.8427 100.026 29.496C98.9989 30.1307 97.8322 30.448 96.5256 30.448C95.4242 30.448 94.4722 30.2147 93.6696 29.748C92.8856 29.2627 92.3069 28.712 91.9336 28.096H91.7656L91.9336 30.084V36.048H88.9376ZM96.0776 27.676C96.8242 27.676 97.5242 27.48 98.1776 27.088C98.8309 26.696 99.3629 26.1453 99.7736 25.436C100.184 24.708 100.39 23.8493 100.39 22.86C100.39 21.8707 100.184 21.0213 99.7736 20.312C99.3629 19.584 98.8309 19.024 98.1776 18.632C97.5242 18.24 96.8242 18.044 96.0776 18.044C95.3309 18.044 94.6309 18.24 93.9776 18.632C93.3242 19.024 92.7922 19.584 92.3816 20.312C91.9709 21.0213 91.7656 21.8707 91.7656 22.86C91.7656 23.8493 91.9709 24.708 92.3816 25.436C92.7922 26.1453 93.3242 26.696 93.9776 27.088C94.6309 27.48 95.3309 27.676 96.0776 27.676ZM110.89 30.448C109.863 30.448 108.949 30.252 108.146 29.86C107.343 29.4493 106.718 28.88 106.27 28.152C105.822 27.424 105.598 26.5933 105.598 25.66C105.598 24.652 105.859 23.7933 106.382 23.084C106.923 22.356 107.642 21.8053 108.538 21.432C109.434 21.0587 110.423 20.872 111.506 20.872C112.402 20.872 113.186 20.956 113.858 21.124C114.549 21.292 115.071 21.4693 115.426 21.656V20.9C115.426 19.9667 115.09 19.22 114.418 18.66C113.746 18.1 112.878 17.82 111.814 17.82C111.086 17.82 110.395 17.988 109.742 18.324C109.089 18.6413 108.566 19.08 108.174 19.64L106.102 18.044C106.718 17.1853 107.53 16.5133 108.538 16.028C109.565 15.524 110.685 15.272 111.898 15.272C113.97 15.272 115.566 15.7853 116.686 16.812C117.806 17.82 118.366 19.2387 118.366 21.068V30H115.426V28.236H115.258C114.885 28.8147 114.325 29.328 113.578 29.776C112.831 30.224 111.935 30.448 110.89 30.448ZM111.422 27.984C112.206 27.984 112.897 27.7973 113.494 27.424C114.091 27.0507 114.558 26.5653 114.894 25.968C115.249 25.352 115.426 24.6893 115.426 23.98C114.997 23.7373 114.493 23.5413 113.914 23.392C113.335 23.224 112.719 23.14 112.066 23.14C110.834 23.14 109.957 23.392 109.434 23.896C108.911 24.3813 108.65 24.9787 108.65 25.688C108.65 26.36 108.902 26.9107 109.406 27.34C109.91 27.7693 110.582 27.984 111.422 27.984ZM121.995 30V15.72H125.019V21.46H131.795V15.72H134.819V30H131.795V24.092H125.019V30H121.995ZM145.034 30.448C143.634 30.448 142.383 30.1213 141.282 29.468C140.181 28.8147 139.313 27.9187 138.678 26.78C138.062 25.6413 137.754 24.344 137.754 22.888C137.754 21.5253 138.053 20.2653 138.65 19.108C139.247 17.9507 140.078 17.0267 141.142 16.336C142.225 15.6267 143.466 15.272 144.866 15.272C146.341 15.272 147.591 15.5893 148.618 16.224C149.663 16.8587 150.457 17.7267 150.998 18.828C151.539 19.9293 151.81 21.1707 151.81 22.552C151.81 22.7573 151.801 22.944 151.782 23.112C151.782 23.28 151.773 23.4107 151.754 23.504H140.722C140.871 24.9227 141.366 25.9867 142.206 26.696C143.065 27.4053 144.035 27.76 145.118 27.76C146.089 27.76 146.891 27.5453 147.526 27.116C148.161 26.668 148.665 26.1173 149.038 25.464L151.53 26.668C150.914 27.788 150.074 28.7027 149.01 29.412C147.946 30.1027 146.621 30.448 145.034 30.448ZM144.894 17.848C143.886 17.848 143.027 18.156 142.318 18.772C141.609 19.388 141.133 20.2093 140.89 21.236H148.814C148.777 20.7507 148.618 20.2467 148.338 19.724C148.058 19.2013 147.629 18.7627 147.05 18.408C146.49 18.0347 145.771 17.848 144.894 17.848ZM169.955 30V24.848C169.563 25.128 169.068 25.352 168.471 25.52C167.873 25.6693 167.22 25.744 166.511 25.744C164.868 25.744 163.552 25.268 162.563 24.316C161.592 23.364 161.107 22.076 161.107 20.452V15.72H164.131V20.144C164.131 21.04 164.383 21.7493 164.887 22.272C165.409 22.776 166.137 23.028 167.071 23.028C167.649 23.028 168.191 22.944 168.695 22.776C169.217 22.5893 169.637 22.3467 169.955 22.048V15.72H172.951V30H169.955ZM176.788 36.048V15.72H179.616V17.652H179.784C180.158 17.036 180.736 16.4853 181.52 16C182.323 15.5147 183.275 15.272 184.376 15.272C185.683 15.272 186.85 15.5987 187.876 16.252C188.903 16.9053 189.715 17.8013 190.312 18.94C190.928 20.0787 191.236 21.3853 191.236 22.86C191.236 24.3347 190.928 25.6507 190.312 26.808C189.715 27.9467 188.903 28.8427 187.876 29.496C186.85 30.1307 185.683 30.448 184.376 30.448C183.275 30.448 182.323 30.2147 181.52 29.748C180.736 29.2627 180.158 28.712 179.784 28.096H179.616L179.784 30.084V36.048H176.788ZM183.928 27.676C184.675 27.676 185.375 27.48 186.028 27.088C186.682 26.696 187.214 26.1453 187.624 25.436C188.035 24.708 188.24 23.8493 188.24 22.86C188.24 21.8707 188.035 21.0213 187.624 20.312C187.214 19.584 186.682 19.024 186.028 18.632C185.375 18.24 184.675 18.044 183.928 18.044C183.182 18.044 182.482 18.24 181.828 18.632C181.175 19.024 180.643 19.584 180.232 20.312C179.822 21.0213 179.616 21.8707 179.616 22.86C179.616 23.8493 179.822 24.708 180.232 25.436C180.643 26.1453 181.175 26.696 181.828 27.088C182.482 27.48 183.182 27.676 183.928 27.676ZM200.785 30.448C199.385 30.448 198.134 30.1213 197.033 29.468C195.932 28.8147 195.064 27.9187 194.429 26.78C193.813 25.6413 193.505 24.344 193.505 22.888C193.505 21.5253 193.804 20.2653 194.401 19.108C194.998 17.9507 195.829 17.0267 196.893 16.336C197.976 15.6267 199.217 15.272 200.617 15.272C202.092 15.272 203.342 15.5893 204.369 16.224C205.414 16.8587 206.208 17.7267 206.749 18.828C207.29 19.9293 207.561 21.1707 207.561 22.552C207.561 22.7573 207.552 22.944 207.533 23.112C207.533 23.28 207.524 23.4107 207.505 23.504H196.473C196.622 24.9227 197.117 25.9867 197.957 26.696C198.816 27.4053 199.786 27.76 200.869 27.76C201.84 27.76 202.642 27.5453 203.277 27.116C203.912 26.668 204.416 26.1173 204.789 25.464L207.281 26.668C206.665 27.788 205.825 28.7027 204.761 29.412C203.697 30.1027 202.372 30.448 200.785 30.448ZM200.645 17.848C199.637 17.848 198.778 18.156 198.069 18.772C197.36 19.388 196.884 20.2093 196.641 21.236H204.565C204.528 20.7507 204.369 20.2467 204.089 19.724C203.809 19.2013 203.38 18.7627 202.801 18.408C202.241 18.0347 201.522 17.848 200.645 17.848ZM215.215 30.448C214.431 30.448 213.647 30.3547 212.863 30.168C212.079 29.9813 211.342 29.664 210.651 29.216C209.979 28.7493 209.419 28.1053 208.971 27.284L211.379 25.884C211.902 26.612 212.499 27.116 213.171 27.396C213.862 27.6573 214.543 27.788 215.215 27.788C216.186 27.788 216.923 27.6013 217.427 27.228C217.931 26.8547 218.183 26.3693 218.183 25.772C218.183 25.2493 217.95 24.8293 217.483 24.512C217.035 24.176 216.401 24.008 215.579 24.008H213.255V21.628H215.579C216.289 21.628 216.83 21.46 217.203 21.124C217.595 20.788 217.791 20.3587 217.791 19.836C217.791 19.22 217.53 18.7347 217.007 18.38C216.485 18.0067 215.822 17.82 215.019 17.82C214.31 17.82 213.629 17.9693 212.975 18.268C212.322 18.548 211.827 18.9307 211.491 19.416L209.251 17.932C209.905 17.1107 210.726 16.4667 211.715 16C212.723 15.5147 213.834 15.272 215.047 15.272C216.093 15.272 217.035 15.4493 217.875 15.804C218.734 16.1587 219.406 16.6533 219.891 17.288C220.395 17.904 220.647 18.6227 220.647 19.444C220.647 20.1533 220.47 20.788 220.115 21.348C219.761 21.8893 219.294 22.3 218.715 22.58V22.748C219.443 23.0467 220.031 23.4947 220.479 24.092C220.927 24.6893 221.151 25.3707 221.151 26.136C221.151 26.976 220.909 27.7227 220.423 28.376C219.938 29.0107 219.247 29.5147 218.351 29.888C217.455 30.2613 216.41 30.448 215.215 30.448Z" fill="white"/>
<g id="GPay Logo (Dark)">
<g id="GPay">
<g id="Pay">
<path id="Fill 1" fill-rule="evenodd" clip-rule="evenodd" d="M272.529 9.34665V17.5128H277.565C278.765 17.5128 279.757 17.1096 280.541 16.3032C281.347 15.4988 281.75 14.5394 281.75 13.4288C281.75 12.3406 281.347 11.3924 280.541 10.586C279.757 9.75916 278.765 9.34479 277.565 9.34479H272.529V9.34665ZM272.529 20.3872V29.8599H269.521V6.47218H277.499C279.527 6.47218 281.248 7.14787 282.666 8.49738C284.105 9.84688 284.824 11.4913 284.824 13.4288C284.824 15.411 284.105 17.0667 282.666 18.3938C281.27 19.7227 279.547 20.3854 277.499 20.3854H272.529V20.3872Z" fill="white"/>
<path id="Fill 3" fill-rule="evenodd" clip-rule="evenodd" d="M287.864 24.9602C287.864 25.7442 288.197 26.3975 288.862 26.9201C289.527 27.4427 290.306 27.704 291.2 27.704C292.465 27.704 293.591 27.2354 294.584 26.3004C295.576 25.3634 296.071 24.264 296.071 23.0022C295.133 22.2612 293.825 21.8916 292.147 21.8916C290.925 21.8916 289.907 22.1866 289.09 22.7745C288.273 23.3623 287.864 24.0886 287.864 24.9602ZM291.756 13.3317C293.98 13.3317 295.735 13.9253 297.022 15.1124C298.308 16.2995 298.95 17.9271 298.95 19.9952V29.8599H296.073V27.6387H295.942C294.699 29.4677 293.042 30.3825 290.972 30.3825C289.206 30.3825 287.728 29.8599 286.541 28.8146C285.353 27.7694 284.759 26.4628 284.759 24.8949C284.759 23.2393 285.385 21.9232 286.638 20.9434C287.892 19.9635 289.565 19.4726 291.658 19.4726C293.444 19.4726 294.916 19.7993 296.071 20.4525V19.7657C296.071 18.7204 295.656 17.8338 294.829 17.104C293.999 16.3742 293.031 16.0102 291.919 16.0102C290.239 16.0102 288.911 16.7176 287.93 18.1343L285.28 16.4675C286.741 14.377 288.899 13.3317 291.756 13.3317Z" fill="white"/>
<path id="Fill 5" fill-rule="evenodd" clip-rule="evenodd" d="M315.463 13.8543L305.424 36.9154H302.318L306.046 28.8464L299.44 13.8543H302.71L307.484 25.3522H307.55L312.193 13.8543H315.463Z" fill="white"/>
</g>
<g id="G">
<path id="Fill 8" fill-rule="evenodd" clip-rule="evenodd" d="M260.373 18.3452C260.373 17.3989 260.293 16.4861 260.141 15.6126H247.454V20.7885H254.72C254.408 22.4757 253.465 23.9112 252.033 24.8725V28.2341H256.37C258.91 25.8935 260.373 22.4348 260.373 18.3452Z" fill="#4285F4"/>
<path id="Fill 10" fill-rule="evenodd" clip-rule="evenodd" d="M247.454 31.4782C251.084 31.4782 254.141 30.2873 256.37 28.2341L252.033 24.8725C250.826 25.6844 249.272 26.1585 247.454 26.1585C243.944 26.1585 240.966 23.7955 239.901 20.6112H235.433V24.0736C237.647 28.4637 242.197 31.4782 247.454 31.4782Z" fill="#34A853"/>
<path id="Fill 12" fill-rule="evenodd" clip-rule="evenodd" d="M239.901 20.6111C239.628 19.7992 239.479 18.9331 239.479 18.0391C239.479 17.145 239.628 16.2789 239.901 15.467V12.0045H235.433C234.518 13.8188 234 15.8683 234 18.0391C234 20.2098 234.518 22.2595 235.433 24.0736L239.901 20.6111Z" fill="#FABB05"/>
<path id="Fill 14" fill-rule="evenodd" clip-rule="evenodd" d="M247.454 9.91964C249.436 9.91964 251.213 10.6009 252.615 11.9355V11.9374L256.455 8.10163C254.123 5.93272 251.082 4.60001 247.454 4.60001C242.197 4.60001 237.647 7.61447 235.433 12.0046L239.901 15.467C240.966 12.2827 243.944 9.91964 247.454 9.91964Z" fill="#E94235"/>
</g>
</g>
</g>
</g>
</svg>
