<svg width="232" height="38" viewBox="0 0 232 38" fill="none" xmlns="http://www.w3.org/2000/svg">
<g id="bg_view_in_Light">
<path id="Text" d="M3.22738 30V9.952H18.3474V30H15.2674V12.864H6.30738V30H3.22738ZM22.6555 36.048V15.72H25.4835V17.652H25.6515C26.0249 17.036 26.6035 16.4853 27.3875 16C28.1902 15.5147 29.1422 15.272 30.2435 15.272C31.5502 15.272 32.7169 15.5987 33.7435 16.252C34.7702 16.9053 35.5822 17.8013 36.1795 18.94C36.7955 20.0787 37.1035 21.3853 37.1035 22.86C37.1035 24.3347 36.7955 25.6507 36.1795 26.808C35.5822 27.9467 34.7702 28.8427 33.7435 29.496C32.7169 30.1307 31.5502 30.448 30.2435 30.448C29.1422 30.448 28.1902 30.2147 27.3875 29.748C26.6035 29.2627 26.0249 28.712 25.6515 28.096H25.4835L25.6515 30.084V36.048H22.6555ZM29.7955 27.676C30.5422 27.676 31.2422 27.48 31.8955 27.088C32.5489 26.696 33.0809 26.1453 33.4915 25.436C33.9022 24.708 34.1075 23.8493 34.1075 22.86C34.1075 21.8707 33.9022 21.0213 33.4915 20.312C33.0809 19.584 32.5489 19.024 31.8955 18.632C31.2422 18.24 30.5422 18.044 29.7955 18.044C29.0489 18.044 28.3489 18.24 27.6955 18.632C27.0422 19.024 26.5102 19.584 26.0995 20.312C25.6889 21.0213 25.4835 21.8707 25.4835 22.86C25.4835 23.8493 25.6889 24.708 26.0995 25.436C26.5102 26.1453 27.0422 26.696 27.6955 27.088C28.3489 27.48 29.0489 27.676 29.7955 27.676ZM46.6521 30.448C45.2521 30.448 44.0014 30.1213 42.9001 29.468C41.7987 28.8147 40.9307 27.9187 40.2961 26.78C39.6801 25.6413 39.3721 24.344 39.3721 22.888C39.3721 21.5253 39.6707 20.2653 40.2681 19.108C40.8654 17.9507 41.6961 17.0267 42.7601 16.336C43.8427 15.6267 45.0841 15.272 46.4841 15.272C47.9587 15.272 49.2094 15.5893 50.2361 16.224C51.2814 16.8587 52.0747 17.7267 52.6161 18.828C53.1574 19.9293 53.4281 21.1707 53.4281 22.552C53.4281 22.7573 53.4187 22.944 53.4001 23.112C53.4001 23.28 53.3907 23.4107 53.3721 23.504H42.3401C42.4894 24.9227 42.9841 25.9867 43.8241 26.696C44.6827 27.4053 45.6534 27.76 46.7361 27.76C47.7067 27.76 48.5094 27.5453 49.1441 27.116C49.7787 26.668 50.2827 26.1173 50.6561 25.464L53.1481 26.668C52.5321 27.788 51.6921 28.7027 50.6281 29.412C49.5641 30.1027 48.2387 30.448 46.6521 30.448ZM46.5121 17.848C45.5041 17.848 44.6454 18.156 43.9361 18.772C43.2267 19.388 42.7507 20.2093 42.5081 21.236H50.4321C50.3947 20.7507 50.2361 20.2467 49.9561 19.724C49.6761 19.2013 49.2467 18.7627 48.6681 18.408C48.1081 18.0347 47.3894 17.848 46.5121 17.848ZM56.5335 30V15.72H65.8855V18.352H59.5575V30H56.5335ZM68.1044 30.224C67.6751 30.224 67.2644 30.1773 66.8724 30.084V27.284C67.1337 27.4147 67.4231 27.48 67.7404 27.48C68.3751 27.48 68.8231 27.2373 69.0844 26.752C69.3457 26.248 69.5044 25.6133 69.5604 24.848C69.6164 24.0827 69.6444 23.2893 69.6444 22.468V15.72H80.5644V30H77.5684V18.352H72.5004V22.944C72.5004 23.9147 72.4351 24.8387 72.3044 25.716C72.1924 26.5747 71.9777 27.3493 71.6604 28.04C71.3431 28.712 70.8951 29.244 70.3164 29.636C69.7564 30.028 69.0191 30.224 68.1044 30.224ZM90.8099 30.448C89.4099 30.448 88.1592 30.1213 87.0579 29.468C85.9565 28.8147 85.0885 27.9187 84.4539 26.78C83.8379 25.6413 83.5299 24.344 83.5299 22.888C83.5299 21.5253 83.8285 20.2653 84.4259 19.108C85.0232 17.9507 85.8539 17.0267 86.9179 16.336C88.0005 15.6267 89.2419 15.272 90.6419 15.272C92.1165 15.272 93.3672 15.5893 94.3939 16.224C95.4392 16.8587 96.2325 17.7267 96.7739 18.828C97.3152 19.9293 97.5859 21.1707 97.5859 22.552C97.5859 22.7573 97.5765 22.944 97.5579 23.112C97.5579 23.28 97.5485 23.4107 97.5299 23.504H86.4979C86.6472 24.9227 87.1419 25.9867 87.9819 26.696C88.8405 27.4053 89.8112 27.76 90.8939 27.76C91.8645 27.76 92.6672 27.5453 93.3019 27.116C93.9365 26.668 94.4405 26.1173 94.8139 25.464L97.3059 26.668C96.6899 27.788 95.8499 28.7027 94.7859 29.412C93.7219 30.1027 92.3965 30.448 90.8099 30.448ZM90.6699 17.848C89.6619 17.848 88.8032 18.156 88.0939 18.772C87.3845 19.388 86.9085 20.2093 86.6659 21.236H94.5899C94.5525 20.7507 94.3939 20.2467 94.1139 19.724C93.8339 19.2013 93.4045 18.7627 92.8259 18.408C92.2659 18.0347 91.5472 17.848 90.6699 17.848ZM99.1892 34.256V27.368H100.757C101.056 27.0133 101.317 26.5093 101.541 25.856C101.784 25.184 101.971 24.428 102.101 23.588C102.251 22.748 102.325 21.8987 102.325 21.04V15.72H113.021V27.368H115.093V34.256H112.321V30H101.989V34.256H99.1892ZM104.005 27.368H110.025V18.352H105.181V21.292C105.181 22.5987 105.088 23.728 104.901 24.68C104.715 25.6133 104.416 26.4533 104.005 27.2V27.368ZM124.916 30V15.72H132C132.84 15.72 133.587 15.888 134.24 16.224C134.912 16.5413 135.435 16.98 135.808 17.54C136.2 18.1 136.396 18.7253 136.396 19.416C136.396 20.1627 136.228 20.8067 135.892 21.348C135.575 21.8893 135.155 22.2907 134.632 22.552V22.72C135.342 23 135.902 23.42 136.312 23.98C136.742 24.54 136.956 25.184 136.956 25.912C136.956 26.752 136.732 27.48 136.284 28.096C135.855 28.712 135.295 29.188 134.604 29.524C133.914 29.8413 133.176 30 132.392 30H124.916ZM127.94 18.184V21.544H131.636C132.14 21.544 132.56 21.3853 132.896 21.068C133.232 20.7507 133.4 20.3493 133.4 19.864C133.4 19.36 133.232 18.9587 132.896 18.66C132.56 18.3427 132.14 18.184 131.636 18.184H127.94ZM127.94 27.48H132.084C132.626 27.48 133.074 27.312 133.428 26.976C133.802 26.6213 133.988 26.1733 133.988 25.632C133.988 25.1093 133.802 24.6707 133.428 24.316C133.074 23.9613 132.626 23.784 132.084 23.784H127.94V27.48Z" fill="#3C4043"/>
<g id="GPay Logo (Light)">
<g id="GPay">
<g id="Pay">
<path id="Fill 1" fill-rule="evenodd" clip-rule="evenodd" d="M188.529 9.44664V17.6128H193.565C194.765 17.6128 195.757 17.2096 196.541 16.4032C197.347 15.5988 197.75 14.6394 197.75 13.5288C197.75 12.4406 197.347 11.4924 196.541 10.686C195.757 9.85915 194.765 9.44478 193.565 9.44478H188.529V9.44664ZM188.529 20.4872V29.9599H185.521V6.57217H193.499C195.527 6.57217 197.248 7.24786 198.666 8.59737C200.105 9.94688 200.824 11.5913 200.824 13.5288C200.824 15.511 200.105 17.1667 198.666 18.4938C197.27 19.8227 195.547 20.4854 193.499 20.4854H188.529V20.4872Z" fill="#5F6368"/>
<path id="Fill 3" fill-rule="evenodd" clip-rule="evenodd" d="M203.864 25.0602C203.864 25.8442 204.197 26.4975 204.862 27.0201C205.527 27.5427 206.306 27.804 207.2 27.804C208.465 27.804 209.591 27.3354 210.584 26.4004C211.576 25.4634 212.071 24.364 212.071 23.1022C211.133 22.3612 209.825 21.9916 208.147 21.9916C206.925 21.9916 205.907 22.2865 205.09 22.8745C204.273 23.4623 203.864 24.1886 203.864 25.0602ZM207.756 13.4317C209.98 13.4317 211.735 14.0252 213.022 15.2124C214.308 16.3995 214.95 18.0271 214.95 20.0952V29.9599H212.073V27.7387H211.942C210.699 29.5677 209.042 30.4825 206.972 30.4825C205.206 30.4825 203.728 29.9599 202.541 28.9146C201.353 27.8694 200.759 26.5628 200.759 24.9949C200.759 23.3393 201.385 22.0232 202.638 21.0434C203.892 20.0635 205.565 19.5726 207.658 19.5726C209.444 19.5726 210.916 19.8992 212.071 20.5525V19.8656C212.071 18.8204 211.656 17.9338 210.829 17.204C209.999 16.4741 209.031 16.1102 207.919 16.1102C206.239 16.1102 204.911 16.8176 203.93 18.2343L201.28 16.5675C202.741 14.4769 204.899 13.4317 207.756 13.4317Z" fill="#5F6368"/>
<path id="Fill 5" fill-rule="evenodd" clip-rule="evenodd" d="M231.463 13.9543L221.424 37.0154H218.318L222.046 28.9464L215.44 13.9543H218.71L223.484 25.4522H223.55L228.193 13.9543H231.463Z" fill="#5F6368"/>
</g>
<g id="G">
<path id="Fill 8" fill-rule="evenodd" clip-rule="evenodd" d="M176.373 18.4452C176.373 17.4989 176.293 16.5861 176.141 15.7126H163.454V20.8885H170.72C170.408 22.5757 169.465 24.0112 168.033 24.9725V28.3341H172.37C174.91 25.9935 176.373 22.5348 176.373 18.4452Z" fill="#4285F4"/>
<path id="Fill 10" fill-rule="evenodd" clip-rule="evenodd" d="M163.454 31.5782C167.084 31.5782 170.141 30.3873 172.37 28.3341L168.033 24.9725C166.826 25.7844 165.272 26.2585 163.454 26.2585C159.944 26.2585 156.966 23.8955 155.901 20.7112H151.433V24.1736C153.647 28.5637 158.197 31.5782 163.454 31.5782Z" fill="#34A853"/>
<path id="Fill 12" fill-rule="evenodd" clip-rule="evenodd" d="M155.901 20.7111C155.628 19.8992 155.479 19.0331 155.479 18.139C155.479 17.245 155.628 16.3789 155.901 15.567V12.1045H151.433C150.518 13.9188 150 15.9683 150 18.139C150 20.3098 150.518 22.3595 151.433 24.1736L155.901 20.7111Z" fill="#FABB05"/>
<path id="Fill 14" fill-rule="evenodd" clip-rule="evenodd" d="M163.454 10.0196C165.436 10.0196 167.213 10.7009 168.615 12.0355V12.0374L172.455 8.20162C170.123 6.03271 167.082 4.7 163.454 4.7C158.197 4.7 153.647 7.71446 151.433 12.1046L155.901 15.567C156.966 12.3827 159.944 10.0196 163.454 10.0196Z" fill="#E94235"/>
</g>
</g>
</g>
</g>
</svg>
