<svg width="105" height="21" viewBox="0 0 105 21" fill="none" xmlns="http://www.w3.org/2000/svg">
<g id="en_add_to_Pay_NBG">
<path id="Left Text" d="M0.58375 15.0006L4.90375 3.54461H6.90375L11.2398 15.0006H9.30375L8.24775 12.0566H3.57575L2.51975 15.0006H0.58375ZM7.65575 10.4246L6.39175 6.92061L5.95975 5.60861H5.86375L5.43175 6.92061L4.16775 10.4246H7.65575ZM15.896 15.2566C15.16 15.2566 14.4933 15.0699 13.896 14.6966C13.2987 14.3233 12.8293 13.8113 12.488 13.1606C12.1467 12.5099 11.976 11.7633 11.976 10.9206C11.976 10.0779 12.1467 9.33128 12.488 8.68061C12.8293 8.02994 13.2987 7.51794 13.896 7.14461C14.4933 6.77128 15.16 6.58461 15.896 6.58461C16.3227 6.58461 16.7067 6.64861 17.048 6.77661C17.3893 6.90461 17.6827 7.07528 17.928 7.28861C18.184 7.49128 18.3813 7.70994 18.52 7.94461H18.616L18.52 6.80861V3.54461H20.232V15.0006H18.616V13.9126H18.52C18.3813 14.1366 18.184 14.3553 17.928 14.5686C17.6827 14.7713 17.3893 14.9366 17.048 15.0646C16.7067 15.1926 16.3227 15.2566 15.896 15.2566ZM16.152 13.6726C16.5787 13.6726 16.9787 13.5606 17.352 13.3366C17.736 13.1126 18.04 12.7979 18.264 12.3926C18.4987 11.9766 18.616 11.4859 18.616 10.9206C18.616 10.3553 18.4987 9.86994 18.264 9.46461C18.04 9.04861 17.736 8.72861 17.352 8.50461C16.9787 8.28061 16.5787 8.16861 16.152 8.16861C15.7253 8.16861 15.3253 8.28061 14.952 8.50461C14.5787 8.72861 14.2747 9.04861 14.04 9.46461C13.8053 9.86994 13.688 10.3553 13.688 10.9206C13.688 11.4753 13.8053 11.9606 14.04 12.3766C14.2747 12.7926 14.5787 13.1126 14.952 13.3366C15.3253 13.5606 15.7253 13.6726 16.152 13.6726ZM25.8272 15.2566C25.0912 15.2566 24.4246 15.0699 23.8272 14.6966C23.2299 14.3233 22.7606 13.8113 22.4192 13.1606C22.0779 12.5099 21.9072 11.7633 21.9072 10.9206C21.9072 10.0779 22.0779 9.33128 22.4192 8.68061C22.7606 8.02994 23.2299 7.51794 23.8272 7.14461C24.4246 6.77128 25.0912 6.58461 25.8272 6.58461C26.2539 6.58461 26.6379 6.64861 26.9792 6.77661C27.3206 6.90461 27.6139 7.07528 27.8592 7.28861C28.1152 7.49128 28.3126 7.70994 28.4512 7.94461H28.5472L28.4512 6.80861V3.54461H30.1632V15.0006H28.5472V13.9126H28.4512C28.3126 14.1366 28.1152 14.3553 27.8592 14.5686C27.6139 14.7713 27.3206 14.9366 26.9792 15.0646C26.6379 15.1926 26.2539 15.2566 25.8272 15.2566ZM26.0832 13.6726C26.5099 13.6726 26.9099 13.5606 27.2832 13.3366C27.6672 13.1126 27.9712 12.7979 28.1952 12.3926C28.4299 11.9766 28.5472 11.4859 28.5472 10.9206C28.5472 10.3553 28.4299 9.86994 28.1952 9.46461C27.9712 9.04861 27.6672 8.72861 27.2832 8.50461C26.9099 8.28061 26.5099 8.16861 26.0832 8.16861C25.6566 8.16861 25.2566 8.28061 24.8832 8.50461C24.5099 8.72861 24.2059 9.04861 23.9712 9.46461C23.7366 9.86994 23.6192 10.3553 23.6192 10.9206C23.6192 11.4753 23.7366 11.9606 23.9712 12.3766C24.2059 12.7926 24.5099 13.1126 24.8832 13.3366C25.2566 13.5606 25.6566 13.6726 26.0832 13.6726ZM35.673 6.84061H37.097V4.53661H38.825V6.84061H40.825V8.34461H38.825V12.2646C38.825 12.6699 38.905 12.9793 39.065 13.1926C39.2357 13.4059 39.5183 13.5126 39.913 13.5126C40.105 13.5126 40.2757 13.4859 40.425 13.4326C40.5743 13.3686 40.7237 13.2939 40.873 13.2086V14.8886C40.6917 14.9633 40.4997 15.0219 40.297 15.0646C40.0943 15.1073 39.8543 15.1286 39.577 15.1286C38.8197 15.1286 38.217 14.9099 37.769 14.4726C37.321 14.0246 37.097 13.4113 37.097 12.6326V8.34461H35.673V6.84061ZM46.1605 15.2566C45.3178 15.2566 44.5765 15.0646 43.9365 14.6806C43.2965 14.2966 42.7952 13.7793 42.4325 13.1286C42.0698 12.4673 41.8885 11.7313 41.8885 10.9206C41.8885 10.1099 42.0698 9.37928 42.4325 8.72861C42.7952 8.06728 43.2965 7.54461 43.9365 7.16061C44.5765 6.77661 45.3178 6.58461 46.1605 6.58461C46.9925 6.58461 47.7285 6.78194 48.3685 7.17661C49.0085 7.56061 49.5098 8.07794 49.8725 8.72861C50.2352 9.37928 50.4165 10.1099 50.4165 10.9206C50.4165 11.7313 50.2352 12.4673 49.8725 13.1286C49.5098 13.7793 49.0085 14.2966 48.3685 14.6806C47.7285 15.0646 46.9925 15.2566 46.1605 15.2566ZM46.1605 13.6726C46.6085 13.6726 47.0245 13.5659 47.4085 13.3526C47.7925 13.1286 48.1018 12.8139 48.3365 12.4086C48.5818 11.9926 48.7045 11.4966 48.7045 10.9206C48.7045 10.3446 48.5818 9.85394 48.3365 9.44861C48.1018 9.03261 47.7925 8.71794 47.4085 8.50461C47.0245 8.28061 46.6085 8.16861 46.1605 8.16861C45.7125 8.16861 45.2912 8.28061 44.8965 8.50461C44.5125 8.71794 44.1978 9.03261 43.9525 9.44861C43.7178 9.85394 43.6005 10.3446 43.6005 10.9206C43.6005 11.4966 43.7178 11.9926 43.9525 12.4086C44.1978 12.8139 44.5178 13.1286 44.9125 13.3526C45.3072 13.5659 45.7232 13.6726 46.1605 13.6726Z" fill="white"/>
<g id="GPay (Dark)">
<g id="GPay">
<g id="Pay">
<path id="Fill 1" fill-rule="evenodd" clip-rule="evenodd" d="M79.3563 3.42339V8.16175H82.2784C82.9745 8.16175 83.5501 7.92781 84.0055 7.45993C84.4728 6.99313 84.707 6.43644 84.707 5.79203C84.707 5.16061 84.4728 4.61041 84.0055 4.14254C83.5501 3.66274 82.9745 3.4223 82.2784 3.4223H79.3563V3.42339ZM79.3563 9.82966V15.3262H77.6107V1.75549H82.2404C83.4169 1.75549 84.4154 2.14756 85.2383 2.93061C86.0732 3.71365 86.4906 4.66782 86.4906 5.79203C86.4906 6.94224 86.0731 7.90291 85.2383 8.67296C84.4283 9.44409 83.4287 9.82858 82.2404 9.82858H79.3563V9.82966Z" fill="white"/>
<path id="Fill 3" fill-rule="evenodd" clip-rule="evenodd" d="M88.2546 12.4831C88.2546 12.9379 88.4476 13.317 88.8337 13.6203C89.2195 13.9235 89.6717 14.0752 90.19 14.0752C90.9239 14.0752 91.5777 13.8032 92.1535 13.2607C92.7293 12.717 93.0165 12.0791 93.0165 11.3469C92.4722 10.917 91.7133 10.7025 90.7396 10.7025C90.0306 10.7025 89.4397 10.8736 88.9659 11.2148C88.492 11.5559 88.2546 11.9773 88.2546 12.4831M90.513 5.73566C91.8033 5.73566 92.8214 6.08007 93.5685 6.76889C94.3145 7.45771 94.6873 8.40213 94.6873 9.60216V15.3261H93.0177V14.0373H92.9417C92.2207 15.0985 91.259 15.6294 90.0578 15.6294C89.0332 15.6294 88.1755 15.3261 87.4869 14.7196C86.7975 14.1131 86.4527 13.3549 86.4527 12.4452C86.4527 11.4845 86.8158 10.7208 87.5433 10.1523C88.2708 9.58375 89.2413 9.2989 90.4557 9.2989C91.4921 9.2989 92.3465 9.48844 93.0165 9.86751V9.46894C93.0165 8.86243 92.7758 8.34798 92.2956 7.92451C91.8141 7.50103 91.2525 7.28984 90.6074 7.28984C89.6326 7.28984 88.8618 7.70032 88.2926 8.52235L86.7551 7.55519C87.6029 6.34217 88.8552 5.73566 90.513 5.73566" fill="white"/>
<path id="Fill 5" fill-rule="evenodd" clip-rule="evenodd" d="M104.269 6.03894L98.4432 19.4201H96.6411L98.8043 14.738L94.9714 6.03894H96.8688L99.639 12.7106H99.677L102.371 6.03894H104.269Z" fill="white"/>
</g>
<g id="G">
<path id="Fill 8" fill-rule="evenodd" clip-rule="evenodd" d="M72.3029 8.64473C72.3029 8.09563 72.2562 7.56601 72.1684 7.05914H64.8065V10.0625H69.0231C68.842 11.0414 68.2944 11.8744 67.4639 12.4322V14.3828H69.9804C71.4539 13.0246 72.3029 11.0177 72.3029 8.64473" fill="#4285F4"/>
<path id="Fill 10" fill-rule="evenodd" clip-rule="evenodd" d="M64.8065 16.2651C66.9131 16.2651 68.6869 15.5741 69.9804 14.3828L67.4639 12.4322C66.7635 12.9033 65.8614 13.1784 64.8065 13.1784C62.7703 13.1784 61.042 11.8073 60.424 9.95959H57.8316V11.9687C59.1164 14.516 61.7565 16.2651 64.8065 16.2651" fill="#34A853"/>
<path id="Fill 12" fill-rule="evenodd" clip-rule="evenodd" d="M60.424 9.9596C60.2657 9.48847 60.179 8.98593 60.179 8.46715C60.179 7.94837 60.2657 7.44583 60.424 6.9747V4.96564H57.8316C57.3003 6.01837 57 7.20756 57 8.46715C57 9.72674 57.3003 10.916 57.8316 11.9687L60.424 9.9596Z" fill="#FABB05"/>
<path id="Fill 14" fill-rule="evenodd" clip-rule="evenodd" d="M64.8065 3.75583C65.9568 3.75583 66.9879 4.15115 67.8011 4.92553V4.92661L70.0292 2.70094C68.6761 1.44243 66.912 0.669128 64.8065 0.669128C61.7565 0.669128 59.1164 2.41826 57.8316 4.9656L60.424 6.97467C61.042 5.12698 62.7703 3.75583 64.8065 3.75583" fill="#E94235"/>
</g>
</g>
</g>
</g>
</svg>
