<svg width="130" height="21" viewBox="0 0 130 21" fill="none" xmlns="http://www.w3.org/2000/svg">
<g id="en_book_with_Pay_NBG">
<path id="Left Text" d="M2.08038 15.0006V3.54461H6.36838C6.99771 3.54461 7.56838 3.67794 8.08038 3.94461C8.59238 4.21128 8.99771 4.57394 9.29638 5.03261C9.60571 5.49128 9.76038 6.00861 9.76038 6.58461C9.76038 7.17128 9.61638 7.67261 9.32838 8.08861C9.04038 8.50461 8.66705 8.81928 8.20838 9.03261V9.11261C8.78438 9.30461 9.25371 9.63528 9.61638 10.1046C9.97905 10.5739 10.1604 11.1339 10.1604 11.7846C10.1604 12.4246 9.99505 12.9846 9.66438 13.4646C9.34438 13.9446 8.90705 14.3233 8.35238 14.6006C7.80838 14.8673 7.21105 15.0006 6.56038 15.0006H2.08038ZM3.84038 9.92861V13.3686H6.56038C6.94438 13.3686 7.27504 13.2886 7.55238 13.1286C7.82971 12.9686 8.03771 12.7553 8.17638 12.4886C8.32571 12.2219 8.40038 11.9446 8.40038 11.6566C8.40038 11.3473 8.32571 11.0646 8.17638 10.8086C8.02704 10.5419 7.80838 10.3286 7.52038 10.1686C7.24305 10.0086 6.90171 9.92861 6.49638 9.92861H3.84038ZM3.84038 8.36061H6.28838C6.66171 8.36061 6.97638 8.28594 7.23238 8.13661C7.49905 7.97661 7.70171 7.77394 7.84038 7.52861C7.97905 7.27261 8.04838 7.01128 8.04838 6.74461C8.04838 6.47794 7.97905 6.22728 7.84038 5.99261C7.71238 5.74728 7.52038 5.54994 7.26438 5.40061C7.00838 5.24061 6.70438 5.16061 6.35238 5.16061H3.84038V8.36061ZM15.798 15.2566C14.9553 15.2566 14.214 15.0646 13.574 14.6806C12.934 14.2966 12.4327 13.7793 12.07 13.1286C11.7073 12.4673 11.526 11.7313 11.526 10.9206C11.526 10.1099 11.7073 9.37928 12.07 8.72861C12.4327 8.06728 12.934 7.54461 13.574 7.16061C14.214 6.77661 14.9553 6.58461 15.798 6.58461C16.63 6.58461 17.366 6.78194 18.006 7.17661C18.646 7.56061 19.1473 8.07794 19.51 8.72861C19.8727 9.37928 20.054 10.1099 20.054 10.9206C20.054 11.7313 19.8727 12.4673 19.51 13.1286C19.1473 13.7793 18.646 14.2966 18.006 14.6806C17.366 15.0646 16.63 15.2566 15.798 15.2566ZM15.798 13.6726C16.246 13.6726 16.662 13.5659 17.046 13.3526C17.43 13.1286 17.7393 12.8139 17.974 12.4086C18.2193 11.9926 18.342 11.4966 18.342 10.9206C18.342 10.3446 18.2193 9.85394 17.974 9.44861C17.7393 9.03261 17.43 8.71794 17.046 8.50461C16.662 8.28061 16.246 8.16861 15.798 8.16861C15.35 8.16861 14.9287 8.28061 14.534 8.50461C14.15 8.71794 13.8353 9.03261 13.59 9.44861C13.3553 9.85394 13.238 10.3446 13.238 10.9206C13.238 11.4966 13.3553 11.9926 13.59 12.4086C13.8353 12.8139 14.1553 13.1286 14.55 13.3526C14.9447 13.5659 15.3607 13.6726 15.798 13.6726ZM25.6355 15.2566C24.7928 15.2566 24.0515 15.0646 23.4115 14.6806C22.7715 14.2966 22.2702 13.7793 21.9075 13.1286C21.5448 12.4673 21.3635 11.7313 21.3635 10.9206C21.3635 10.1099 21.5448 9.37928 21.9075 8.72861C22.2702 8.06728 22.7715 7.54461 23.4115 7.16061C24.0515 6.77661 24.7928 6.58461 25.6355 6.58461C26.4675 6.58461 27.2035 6.78194 27.8435 7.17661C28.4835 7.56061 28.9848 8.07794 29.3475 8.72861C29.7102 9.37928 29.8915 10.1099 29.8915 10.9206C29.8915 11.7313 29.7102 12.4673 29.3475 13.1286C28.9848 13.7793 28.4835 14.2966 27.8435 14.6806C27.2035 15.0646 26.4675 15.2566 25.6355 15.2566ZM25.6355 13.6726C26.0835 13.6726 26.4995 13.5659 26.8835 13.3526C27.2675 13.1286 27.5768 12.8139 27.8115 12.4086C28.0568 11.9926 28.1795 11.4966 28.1795 10.9206C28.1795 10.3446 28.0568 9.85394 27.8115 9.44861C27.5768 9.03261 27.2675 8.71794 26.8835 8.50461C26.4995 8.28061 26.0835 8.16861 25.6355 8.16861C25.1875 8.16861 24.7662 8.28061 24.3715 8.50461C23.9875 8.71794 23.6728 9.03261 23.4275 9.44861C23.1928 9.85394 23.0755 10.3446 23.0755 10.9206C23.0755 11.4966 23.1928 11.9926 23.4275 12.4086C23.6728 12.8139 23.9928 13.1286 24.3875 13.3526C24.7822 13.5659 25.1982 13.6726 25.6355 13.6726ZM31.5549 15.0006V3.54461H33.2829V10.2966L36.7389 6.84061H38.8829V6.93661L35.7309 10.0566L38.9949 14.9046V15.0006H36.9469L34.5149 11.2566L33.2829 12.4726V15.0006H31.5549ZM45.8169 15.0006L43.2089 6.84061H45.0809L46.7609 12.7126H46.8249L48.6649 6.84061H50.4409L52.2809 12.7126H52.3449L54.0249 6.84061H55.8649L53.2409 15.0006H51.4329L49.5449 9.09661H49.4809L47.6089 15.0006H45.8169ZM57.2579 15.0006V6.84061H58.9859V15.0006H57.2579ZM58.1219 5.64061C57.8019 5.64061 57.5245 5.52861 57.2899 5.30461C57.0659 5.06994 56.9539 4.79261 56.9539 4.47261C56.9539 4.14194 57.0659 3.86994 57.2899 3.65661C57.5245 3.43261 57.8019 3.32061 58.1219 3.32061C58.4525 3.32061 58.7299 3.43261 58.9539 3.65661C59.1779 3.86994 59.2899 4.14194 59.2899 4.47261C59.2899 4.79261 59.1779 5.06994 58.9539 5.30461C58.7299 5.52861 58.4525 5.64061 58.1219 5.64061ZM60.6418 6.84061H62.0658V4.53661H63.7938V6.84061H65.7938V8.34461H63.7938V12.2646C63.7938 12.6699 63.8738 12.9793 64.0338 13.1926C64.2044 13.4059 64.4871 13.5126 64.8818 13.5126C65.0738 13.5126 65.2444 13.4859 65.3938 13.4326C65.5431 13.3686 65.6924 13.2939 65.8418 13.2086V14.8886C65.6604 14.9633 65.4684 15.0219 65.2658 15.0646C65.0631 15.1073 64.8231 15.1286 64.5458 15.1286C63.7884 15.1286 63.1858 14.9099 62.7378 14.4726C62.2898 14.0246 62.0658 13.4113 62.0658 12.6326V8.34461H60.6418V6.84061ZM67.6799 15.0006V3.54461H69.4079V6.68061L69.3119 7.96061H69.4079C69.6319 7.56594 69.9732 7.24061 70.4319 6.98461C70.9012 6.71794 71.4185 6.58461 71.9839 6.58461C72.6665 6.58461 73.2319 6.72328 73.6799 7.00061C74.1385 7.27794 74.4799 7.66194 74.7039 8.15261C74.9279 8.63261 75.0399 9.19794 75.0399 9.84861V15.0006H73.3279V10.0726C73.3279 9.63528 73.2425 9.27794 73.0719 9.00061C72.9119 8.72328 72.6985 8.51528 72.4319 8.37661C72.1652 8.23794 71.8665 8.16861 71.5359 8.16861C71.1199 8.16861 70.7519 8.28594 70.4319 8.52061C70.1119 8.75528 69.8612 9.06461 69.6799 9.44861C69.4985 9.82194 69.4079 10.2219 69.4079 10.6486V15.0006H67.6799Z" fill="white"/>
<g id="GPay (Dark)">
<g id="GPay">
<g id="Pay">
<path id="Fill 1" fill-rule="evenodd" clip-rule="evenodd" d="M104.356 3.42339V8.16175H107.278C107.974 8.16175 108.55 7.92781 109.005 7.45993C109.473 6.99313 109.707 6.43644 109.707 5.79203C109.707 5.16061 109.473 4.61041 109.005 4.14254C108.55 3.66274 107.974 3.4223 107.278 3.4223H104.356V3.42339ZM104.356 9.82966V15.3262H102.611V1.75549H107.24C108.417 1.75549 109.415 2.14756 110.238 2.93061C111.073 3.71365 111.491 4.66782 111.491 5.79203C111.491 6.94224 111.073 7.90291 110.238 8.67296C109.428 9.44409 108.429 9.82858 107.24 9.82858H104.356V9.82966Z" fill="white"/>
<path id="Fill 3" fill-rule="evenodd" clip-rule="evenodd" d="M113.255 12.4831C113.255 12.9379 113.448 13.317 113.834 13.6203C114.22 13.9235 114.672 14.0752 115.19 14.0752C115.924 14.0752 116.578 13.8032 117.153 13.2607C117.729 12.717 118.017 12.0791 118.017 11.3469C117.472 10.917 116.713 10.7025 115.74 10.7025C115.031 10.7025 114.44 10.8736 113.966 11.2148C113.492 11.5559 113.255 11.9773 113.255 12.4831M115.513 5.73566C116.803 5.73566 117.821 6.08007 118.569 6.76889C119.314 7.45771 119.687 8.40213 119.687 9.60216V15.3261H118.018V14.0373H117.942C117.221 15.0985 116.259 15.6294 115.058 15.6294C114.033 15.6294 113.176 15.3261 112.487 14.7196C111.797 14.1131 111.453 13.3549 111.453 12.4452C111.453 11.4845 111.816 10.7208 112.543 10.1523C113.271 9.58375 114.241 9.2989 115.456 9.2989C116.492 9.2989 117.346 9.48844 118.017 9.86751V9.46894C118.017 8.86243 117.776 8.34798 117.296 7.92451C116.814 7.50103 116.252 7.28984 115.607 7.28984C114.633 7.28984 113.862 7.70032 113.293 8.52235L111.755 7.55519C112.603 6.34217 113.855 5.73566 115.513 5.73566" fill="white"/>
<path id="Fill 5" fill-rule="evenodd" clip-rule="evenodd" d="M129.269 6.03894L123.443 19.4201H121.641L123.804 14.738L119.971 6.03894H121.869L124.639 12.7106H124.677L127.371 6.03894H129.269Z" fill="white"/>
</g>
<g id="G">
<path id="Fill 8" fill-rule="evenodd" clip-rule="evenodd" d="M97.3029 8.64473C97.3029 8.09563 97.2562 7.56601 97.1684 7.05914H89.8065V10.0625H94.0231C93.842 11.0414 93.2944 11.8744 92.4639 12.4322V14.3828H94.9804C96.4539 13.0246 97.3029 11.0177 97.3029 8.64473" fill="#4285F4"/>
<path id="Fill 10" fill-rule="evenodd" clip-rule="evenodd" d="M89.8065 16.2651C91.9131 16.2651 93.6869 15.5741 94.9804 14.3828L92.4639 12.4322C91.7635 12.9033 90.8614 13.1784 89.8065 13.1784C87.7703 13.1784 86.042 11.8073 85.424 9.95959H82.8316V11.9687C84.1164 14.516 86.7565 16.2651 89.8065 16.2651" fill="#34A853"/>
<path id="Fill 12" fill-rule="evenodd" clip-rule="evenodd" d="M85.424 9.9596C85.2657 9.48847 85.179 8.98593 85.179 8.46715C85.179 7.94837 85.2657 7.44583 85.424 6.9747V4.96564H82.8316C82.3003 6.01837 82 7.20756 82 8.46715C82 9.72674 82.3003 10.916 82.8316 11.9687L85.424 9.9596Z" fill="#FABB05"/>
<path id="Fill 14" fill-rule="evenodd" clip-rule="evenodd" d="M89.8065 3.75583C90.9568 3.75583 91.9879 4.15115 92.8011 4.92553V4.92661L95.0292 2.70094C93.6761 1.44243 91.912 0.669128 89.8065 0.669128C86.7565 0.669128 84.1164 2.41826 82.8316 4.9656L85.424 6.97467C86.042 5.12698 87.7703 3.75583 89.8065 3.75583" fill="#E94235"/>
</g>
</g>
</g>
</g>
</svg>
