<svg width="226" height="38" viewBox="0 0 226 38" fill="none" xmlns="http://www.w3.org/2000/svg">
<g id="en_book_with_Dark">
<path id="Text" d="M2.34066 30V9.952H9.84466C10.9273 9.952 11.9167 10.1853 12.8127 10.652C13.7273 11.1187 14.446 11.7533 14.9687 12.556C15.51 13.3587 15.7807 14.264 15.7807 15.272C15.7807 16.2987 15.5193 17.176 14.9967 17.904C14.4927 18.632 13.8487 19.1827 13.0647 19.556V19.696C14.0727 20.0507 14.894 20.6387 15.5287 21.46C16.1633 22.2627 16.4807 23.2333 16.4807 24.372C16.4807 25.492 16.1913 26.4813 15.6127 27.34C15.0527 28.18 14.2873 28.8333 13.3167 29.3C12.3647 29.7667 11.3193 30 10.1807 30H2.34066ZM9.81666 12.78H5.42066V18.38H9.70466C10.6753 18.38 11.4313 18.0907 11.9727 17.512C12.514 16.9147 12.7847 16.2613 12.7847 15.552C12.7847 14.8613 12.5233 14.2267 12.0007 13.648C11.478 13.0693 10.75 12.78 9.81666 12.78ZM5.42066 27.144H10.1807C11.1887 27.144 11.9727 26.8453 12.5327 26.248C13.1113 25.632 13.4007 24.932 13.4007 24.148C13.4007 23.364 13.1113 22.664 12.5327 22.048C11.954 21.432 11.1327 21.124 10.0687 21.124H5.42066V27.144ZM26.384 30.448C24.9093 30.448 23.612 30.112 22.492 29.44C21.372 28.768 20.4947 27.8627 19.86 26.724C19.2253 25.5853 18.908 24.2973 18.908 22.86C18.908 21.4413 19.2253 20.1627 19.86 19.024C20.4947 17.8667 21.372 16.952 22.492 16.28C23.612 15.608 24.9093 15.272 26.384 15.272C27.84 15.272 29.128 15.608 30.248 16.28C31.368 16.952 32.2453 17.8667 32.88 19.024C33.5147 20.1627 33.832 21.4413 33.832 22.86C33.832 24.2973 33.5147 25.5853 32.88 26.724C32.2453 27.8627 31.368 28.768 30.248 29.44C29.128 30.112 27.84 30.448 26.384 30.448ZM26.384 27.676C27.168 27.676 27.896 27.4893 28.568 27.116C29.24 26.724 29.7813 26.1733 30.192 25.464C30.6213 24.736 30.836 23.868 30.836 22.86C30.836 21.852 30.6213 20.9933 30.192 20.284C29.7813 19.556 29.24 19.0053 28.568 18.632C27.896 18.24 27.168 18.044 26.384 18.044C25.6 18.044 24.8627 18.24 24.172 18.632C23.5 19.0053 22.9493 19.556 22.52 20.284C22.1093 20.9933 21.904 21.852 21.904 22.86C21.904 23.868 22.1093 24.736 22.52 25.464C22.9493 26.1733 23.5 26.724 24.172 27.116C24.8627 27.4893 25.6 27.676 26.384 27.676ZM43.6371 30.448C42.1625 30.448 40.8651 30.112 39.7451 29.44C38.6251 28.768 37.7478 27.8627 37.1131 26.724C36.4785 25.5853 36.1611 24.2973 36.1611 22.86C36.1611 21.4413 36.4785 20.1627 37.1131 19.024C37.7478 17.8667 38.6251 16.952 39.7451 16.28C40.8651 15.608 42.1625 15.272 43.6371 15.272C45.0931 15.272 46.3811 15.608 47.5011 16.28C48.6211 16.952 49.4985 17.8667 50.1331 19.024C50.7678 20.1627 51.0851 21.4413 51.0851 22.86C51.0851 24.2973 50.7678 25.5853 50.1331 26.724C49.4985 27.8627 48.6211 28.768 47.5011 29.44C46.3811 30.112 45.0931 30.448 43.6371 30.448ZM43.6371 27.676C44.4211 27.676 45.1491 27.4893 45.8211 27.116C46.4931 26.724 47.0345 26.1733 47.4451 25.464C47.8745 24.736 48.0891 23.868 48.0891 22.86C48.0891 21.852 47.8745 20.9933 47.4451 20.284C47.0345 19.556 46.4931 19.0053 45.8211 18.632C45.1491 18.24 44.4211 18.044 43.6371 18.044C42.8531 18.044 42.1158 18.24 41.4251 18.632C40.7531 19.0053 40.2025 19.556 39.7731 20.284C39.3625 20.9933 39.1571 21.852 39.1571 22.86C39.1571 23.868 39.3625 24.736 39.7731 25.464C40.2025 26.1733 40.7531 26.724 41.4251 27.116C42.1158 27.4893 42.8531 27.676 43.6371 27.676ZM54.0335 30V9.952H57.0575V21.768L63.1055 15.72H66.8575V15.888L61.3415 21.348L67.0535 29.832V30H63.4695L59.2135 23.448L57.0575 25.576V30H54.0335ZM79.067 30L74.503 15.72H77.779L80.719 25.996H80.831L84.051 15.72H87.159L90.379 25.996H90.491L93.431 15.72H96.651L92.059 30H88.895L85.591 19.668H85.479L82.203 30H79.067ZM100.638 13.62C100.078 13.62 99.593 13.424 99.1823 13.032C98.7903 12.6213 98.5943 12.136 98.5943 11.576C98.5943 11.016 98.7903 10.54 99.1823 10.148C99.593 9.756 100.078 9.56 100.638 9.56C101.198 9.56 101.674 9.756 102.066 10.148C102.477 10.54 102.682 11.016 102.682 11.576C102.682 12.136 102.477 12.6213 102.066 13.032C101.674 13.424 101.198 13.62 100.638 13.62ZM99.1263 30V15.72H102.15V30H99.1263ZM107.578 25.856V18.352H105.086V15.72H107.578V11.688H110.602V15.72H114.102V18.352H110.602V25.212C110.602 25.9213 110.742 26.4627 111.022 26.836C111.32 27.2093 111.815 27.396 112.506 27.396C112.86 27.396 113.159 27.3493 113.402 27.256C113.663 27.1627 113.924 27.032 114.186 26.864V29.804C113.868 29.9347 113.532 30.0373 113.178 30.112C112.823 30.1867 112.403 30.224 111.918 30.224C110.592 30.224 109.538 29.8413 108.754 29.076C107.97 28.292 107.578 27.2187 107.578 25.856ZM117.44 30V9.952H120.464V15.44L120.296 17.68H120.464C120.856 16.9893 121.453 16.42 122.256 15.972C123.077 15.5053 123.982 15.272 124.972 15.272C126.745 15.272 128.08 15.804 128.976 16.868C129.872 17.9133 130.32 19.2853 130.32 20.984V30H127.324V21.376C127.324 20.2187 127.016 19.3787 126.4 18.856C125.802 18.3147 125.065 18.044 124.188 18.044C123.46 18.044 122.816 18.2493 122.256 18.66C121.696 19.0707 121.257 19.612 120.94 20.284C120.622 20.9373 120.464 21.6373 120.464 22.384V30H117.44Z" fill="white"/>
<g id="GPay Logo (Dark)">
<g id="GPay">
<g id="Pay">
<path id="Fill 1" fill-rule="evenodd" clip-rule="evenodd" d="M182.529 9.34665V17.5128H187.565C188.765 17.5128 189.757 17.1096 190.541 16.3032C191.347 15.4988 191.75 14.5394 191.75 13.4288C191.75 12.3406 191.347 11.3924 190.541 10.586C189.757 9.75916 188.765 9.34479 187.565 9.34479H182.529V9.34665ZM182.529 20.3872V29.8599H179.521V6.47218H187.499C189.527 6.47218 191.248 7.14787 192.666 8.49738C194.105 9.84688 194.824 11.4913 194.824 13.4288C194.824 15.411 194.105 17.0667 192.666 18.3938C191.27 19.7227 189.547 20.3854 187.499 20.3854H182.529V20.3872Z" fill="white"/>
<path id="Fill 3" fill-rule="evenodd" clip-rule="evenodd" d="M197.864 24.9602C197.864 25.7442 198.197 26.3975 198.862 26.9201C199.527 27.4427 200.306 27.704 201.2 27.704C202.465 27.704 203.591 27.2354 204.584 26.3004C205.576 25.3634 206.071 24.264 206.071 23.0022C205.133 22.2612 203.825 21.8916 202.147 21.8916C200.925 21.8916 199.907 22.1866 199.09 22.7745C198.273 23.3623 197.864 24.0886 197.864 24.9602ZM201.756 13.3317C203.98 13.3317 205.735 13.9253 207.022 15.1124C208.308 16.2995 208.95 17.9271 208.95 19.9952V29.8599H206.073V27.6387H205.942C204.699 29.4677 203.042 30.3825 200.972 30.3825C199.206 30.3825 197.728 29.8599 196.541 28.8146C195.353 27.7694 194.759 26.4628 194.759 24.8949C194.759 23.2393 195.385 21.9232 196.638 20.9434C197.892 19.9635 199.565 19.4726 201.658 19.4726C203.444 19.4726 204.916 19.7993 206.071 20.4525V19.7657C206.071 18.7204 205.656 17.8338 204.829 17.104C203.999 16.3742 203.031 16.0102 201.919 16.0102C200.239 16.0102 198.911 16.7176 197.93 18.1343L195.28 16.4675C196.741 14.377 198.899 13.3317 201.756 13.3317Z" fill="white"/>
<path id="Fill 5" fill-rule="evenodd" clip-rule="evenodd" d="M225.463 13.8543L215.424 36.9154H212.318L216.046 28.8464L209.44 13.8543H212.71L217.484 25.3522H217.55L222.193 13.8543H225.463Z" fill="white"/>
</g>
<g id="G">
<path id="Fill 8" fill-rule="evenodd" clip-rule="evenodd" d="M170.373 18.3452C170.373 17.3989 170.293 16.4861 170.141 15.6126H157.454V20.7885H164.72C164.408 22.4757 163.465 23.9112 162.033 24.8725V28.2341H166.37C168.91 25.8935 170.373 22.4348 170.373 18.3452Z" fill="#4285F4"/>
<path id="Fill 10" fill-rule="evenodd" clip-rule="evenodd" d="M157.454 31.4782C161.084 31.4782 164.141 30.2873 166.37 28.2341L162.033 24.8725C160.826 25.6844 159.272 26.1585 157.454 26.1585C153.944 26.1585 150.966 23.7955 149.901 20.6112H145.433V24.0736C147.647 28.4637 152.197 31.4782 157.454 31.4782Z" fill="#34A853"/>
<path id="Fill 12" fill-rule="evenodd" clip-rule="evenodd" d="M149.901 20.6111C149.628 19.7992 149.479 18.9331 149.479 18.0391C149.479 17.145 149.628 16.2789 149.901 15.467V12.0045H145.433C144.518 13.8188 144 15.8683 144 18.0391C144 20.2098 144.518 22.2595 145.433 24.0736L149.901 20.6111Z" fill="#FABB05"/>
<path id="Fill 14" fill-rule="evenodd" clip-rule="evenodd" d="M157.454 9.91964C159.436 9.91964 161.213 10.6009 162.615 11.9355V11.9374L166.455 8.10163C164.123 5.93272 161.082 4.60001 157.454 4.60001C152.197 4.60001 147.647 7.61447 145.433 12.0046L149.901 15.467C150.966 12.2827 153.944 9.91964 157.454 9.91964Z" fill="#E94235"/>
</g>
</g>
</g>
</g>
</svg>
