<svg width="120" height="21" viewBox="0 0 120 21" fill="none" xmlns="http://www.w3.org/2000/svg">
<g id="en_buy_with_Pay_NBG">
<path id="Left Text" d="M1.96475 15.0006V3.54461H6.25275C6.88208 3.54461 7.45275 3.67794 7.96475 3.94461C8.47675 4.21128 8.88208 4.57394 9.18075 5.03261C9.49008 5.49128 9.64475 6.00861 9.64475 6.58461C9.64475 7.17128 9.50075 7.67261 9.21275 8.08861C8.92475 8.50461 8.55141 8.81928 8.09275 9.03261V9.11261C8.66875 9.30461 9.13808 9.63528 9.50075 10.1046C9.86341 10.5739 10.0447 11.1339 10.0447 11.7846C10.0447 12.4246 9.87941 12.9846 9.54875 13.4646C9.22875 13.9446 8.79141 14.3233 8.23675 14.6006C7.69275 14.8673 7.09541 15.0006 6.44475 15.0006H1.96475ZM3.72475 9.92861V13.3686H6.44475C6.82875 13.3686 7.15941 13.2886 7.43675 13.1286C7.71408 12.9686 7.92208 12.7553 8.06075 12.4886C8.21008 12.2219 8.28475 11.9446 8.28475 11.6566C8.28475 11.3473 8.21008 11.0646 8.06075 10.8086C7.91141 10.5419 7.69275 10.3286 7.40475 10.1686C7.12741 10.0086 6.78608 9.92861 6.38075 9.92861H3.72475ZM3.72475 8.36061H6.17275C6.54608 8.36061 6.86075 8.28594 7.11675 8.13661C7.38341 7.97661 7.58608 7.77394 7.72475 7.52861C7.86341 7.27261 7.93275 7.01128 7.93275 6.74461C7.93275 6.47794 7.86341 6.22728 7.72475 5.99261C7.59675 5.74728 7.40475 5.54994 7.14875 5.40061C6.89275 5.24061 6.58875 5.16061 6.23675 5.16061H3.72475V8.36061ZM14.8024 15.2566C13.7997 15.2566 13.0424 14.9579 12.5304 14.3606C12.029 13.7526 11.7784 12.9313 11.7784 11.8966V6.84061H13.5064V11.6566C13.5064 12.3393 13.6664 12.8459 13.9864 13.1766C14.317 13.5073 14.7277 13.6726 15.2184 13.6726C15.6664 13.6726 16.0504 13.5606 16.3704 13.3366C16.6904 13.1019 16.9357 12.7979 17.1064 12.4246C17.2877 12.0513 17.3784 11.6513 17.3784 11.2246V6.84061H19.0904V15.0006H17.4744V13.8966H17.3784C17.229 14.1526 17.021 14.3819 16.7544 14.5846C16.4877 14.7873 16.189 14.9473 15.8584 15.0646C15.5277 15.1926 15.1757 15.2566 14.8024 15.2566ZM24.0576 18.0566C24.0256 18.1313 23.9883 18.2059 23.9456 18.2806C23.9136 18.3659 23.8923 18.4246 23.8816 18.4566H22.0416C22.095 18.3393 22.1696 18.1739 22.2656 17.9606C22.3723 17.7473 22.4736 17.5339 22.5696 17.3206C22.6336 17.1819 22.6976 17.0326 22.7616 16.8726C22.8363 16.7126 22.911 16.5473 22.9856 16.3766C23.071 16.2059 23.151 16.0406 23.2256 15.8806L23.8336 14.5526L20.4256 6.84061H22.3456L24.6816 12.4086H24.7616L27.0176 6.84061H28.9216L24.6976 16.5686C24.623 16.7499 24.5376 16.9419 24.4416 17.1446C24.3563 17.3473 24.2763 17.5286 24.2016 17.6886C24.1376 17.8593 24.0896 17.9819 24.0576 18.0566ZM35.8169 15.0006L33.2089 6.84061H35.0809L36.7609 12.7126H36.8249L38.6649 6.84061H40.4409L42.2809 12.7126H42.3449L44.0249 6.84061H45.8649L43.2409 15.0006H41.4329L39.5449 9.09661H39.4809L37.6089 15.0006H35.8169ZM47.2579 15.0006V6.84061H48.9859V15.0006H47.2579ZM48.1219 5.64061C47.8019 5.64061 47.5245 5.52861 47.2899 5.30461C47.0659 5.06994 46.9539 4.79261 46.9539 4.47261C46.9539 4.14194 47.0659 3.86994 47.2899 3.65661C47.5245 3.43261 47.8019 3.32061 48.1219 3.32061C48.4525 3.32061 48.7299 3.43261 48.9539 3.65661C49.1779 3.86994 49.2899 4.14194 49.2899 4.47261C49.2899 4.79261 49.1779 5.06994 48.9539 5.30461C48.7299 5.52861 48.4525 5.64061 48.1219 5.64061ZM50.6417 6.84061H52.0657V4.53661H53.7937V6.84061H55.7937V8.34461H53.7937V12.2646C53.7937 12.6699 53.8737 12.9793 54.0337 13.1926C54.2044 13.4059 54.4871 13.5126 54.8817 13.5126C55.0737 13.5126 55.2444 13.4859 55.3937 13.4326C55.5431 13.3686 55.6924 13.2939 55.8417 13.2086V14.8886C55.6604 14.9633 55.4684 15.0219 55.2657 15.0646C55.0631 15.1073 54.8231 15.1286 54.5457 15.1286C53.7884 15.1286 53.1857 14.9099 52.7377 14.4726C52.2897 14.0246 52.0657 13.4113 52.0657 12.6326V8.34461H50.6417V6.84061ZM57.6799 15.0006V3.54461H59.4079V6.68061L59.3119 7.96061H59.4079C59.6319 7.56594 59.9732 7.24061 60.4319 6.98461C60.9012 6.71794 61.4185 6.58461 61.9839 6.58461C62.6665 6.58461 63.2319 6.72328 63.6799 7.00061C64.1385 7.27794 64.4799 7.66194 64.7039 8.15261C64.9279 8.63261 65.0399 9.19794 65.0399 9.84861V15.0006H63.3279V10.0726C63.3279 9.63528 63.2425 9.27794 63.0719 9.00061C62.9119 8.72328 62.6985 8.51528 62.4319 8.37661C62.1652 8.23794 61.8665 8.16861 61.5359 8.16861C61.1199 8.16861 60.7519 8.28594 60.4319 8.52061C60.1119 8.75528 59.8612 9.06461 59.6799 9.44861C59.4985 9.82194 59.4079 10.2219 59.4079 10.6486V15.0006H57.6799Z" fill="white"/>
<g id="GPay (Dark)">
<g id="GPay">
<g id="Pay">
<path id="Fill 1" fill-rule="evenodd" clip-rule="evenodd" d="M94.3563 3.42339V8.16175H97.2784C97.9745 8.16175 98.5501 7.92781 99.0055 7.45993C99.4728 6.99313 99.707 6.43644 99.707 5.79203C99.707 5.16061 99.4728 4.61041 99.0055 4.14254C98.5501 3.66274 97.9745 3.4223 97.2784 3.4223H94.3563V3.42339ZM94.3563 9.82966V15.3262H92.6107V1.75549H97.2404C98.4169 1.75549 99.4154 2.14756 100.238 2.93061C101.073 3.71365 101.491 4.66782 101.491 5.79203C101.491 6.94224 101.073 7.90291 100.238 8.67296C99.4283 9.44409 98.4287 9.82858 97.2404 9.82858H94.3563V9.82966Z" fill="white"/>
<path id="Fill 3" fill-rule="evenodd" clip-rule="evenodd" d="M103.255 12.4831C103.255 12.9379 103.448 13.317 103.834 13.6203C104.22 13.9235 104.672 14.0752 105.19 14.0752C105.924 14.0752 106.578 13.8032 107.153 13.2607C107.729 12.717 108.017 12.0791 108.017 11.3469C107.472 10.917 106.713 10.7025 105.74 10.7025C105.031 10.7025 104.44 10.8736 103.966 11.2148C103.492 11.5559 103.255 11.9773 103.255 12.4831M105.513 5.73566C106.803 5.73566 107.821 6.08007 108.569 6.76889C109.314 7.45771 109.687 8.40213 109.687 9.60216V15.3261H108.018V14.0373H107.942C107.221 15.0985 106.259 15.6294 105.058 15.6294C104.033 15.6294 103.176 15.3261 102.487 14.7196C101.797 14.1131 101.453 13.3549 101.453 12.4452C101.453 11.4845 101.816 10.7208 102.543 10.1523C103.271 9.58375 104.241 9.2989 105.456 9.2989C106.492 9.2989 107.346 9.48844 108.017 9.86751V9.46894C108.017 8.86243 107.776 8.34798 107.296 7.92451C106.814 7.50103 106.252 7.28984 105.607 7.28984C104.633 7.28984 103.862 7.70032 103.293 8.52235L101.755 7.55519C102.603 6.34217 103.855 5.73566 105.513 5.73566" fill="white"/>
<path id="Fill 5" fill-rule="evenodd" clip-rule="evenodd" d="M119.269 6.03894L113.443 19.4201H111.641L113.804 14.738L109.971 6.03894H111.869L114.639 12.7106H114.677L117.371 6.03894H119.269Z" fill="white"/>
</g>
<g id="G">
<path id="Fill 8" fill-rule="evenodd" clip-rule="evenodd" d="M87.3029 8.64473C87.3029 8.09563 87.2562 7.56601 87.1684 7.05914H79.8065V10.0625H84.0231C83.842 11.0414 83.2944 11.8744 82.4639 12.4322V14.3828H84.9804C86.4539 13.0246 87.3029 11.0177 87.3029 8.64473" fill="#4285F4"/>
<path id="Fill 10" fill-rule="evenodd" clip-rule="evenodd" d="M79.8065 16.2651C81.9131 16.2651 83.6869 15.5741 84.9804 14.3828L82.4639 12.4322C81.7635 12.9033 80.8614 13.1784 79.8065 13.1784C77.7703 13.1784 76.042 11.8073 75.424 9.95959H72.8316V11.9687C74.1164 14.516 76.7565 16.2651 79.8065 16.2651" fill="#34A853"/>
<path id="Fill 12" fill-rule="evenodd" clip-rule="evenodd" d="M75.424 9.9596C75.2657 9.48847 75.179 8.98593 75.179 8.46715C75.179 7.94837 75.2657 7.44583 75.424 6.9747V4.96564H72.8316C72.3003 6.01837 72 7.20756 72 8.46715C72 9.72674 72.3003 10.916 72.8316 11.9687L75.424 9.9596Z" fill="#FABB05"/>
<path id="Fill 14" fill-rule="evenodd" clip-rule="evenodd" d="M79.8065 3.75583C80.9568 3.75583 81.9879 4.15115 82.8011 4.92553V4.92661L85.0292 2.70094C83.6761 1.44243 81.912 0.669128 79.8065 0.669128C76.7565 0.669128 74.1164 2.41826 72.8316 4.9656L75.424 6.97467C76.042 5.12698 77.7703 3.75583 79.8065 3.75583" fill="#E94235"/>
</g>
</g>
</g>
</g>
</svg>
