<svg width="290" height="38" viewBox="0 0 290 38" fill="none" xmlns="http://www.w3.org/2000/svg">
<g id="en_checkout_with_Light">
<path id="Text" d="M13.354 30.448C11.8793 30.448 10.5073 30.1867 9.23799 29.664C7.96866 29.1227 6.85799 28.376 5.90599 27.424C4.97266 26.472 4.23533 25.3613 3.69399 24.092C3.17133 22.8227 2.90999 21.4507 2.90999 19.976C2.90999 18.5013 3.17133 17.1293 3.69399 15.86C4.23533 14.5907 4.97266 13.48 5.90599 12.528C6.85799 11.576 7.96866 10.8387 9.23799 10.316C10.5073 9.77467 11.8793 9.504 13.354 9.504C14.922 9.504 16.322 9.79333 17.554 10.372C18.786 10.932 19.8593 11.7347 20.774 12.78L18.618 14.88C17.946 14.0773 17.1807 13.4707 16.322 13.06C15.482 12.6307 14.502 12.416 13.382 12.416C12.038 12.416 10.806 12.7333 9.68599 13.368C8.56599 13.984 7.66999 14.8613 6.99799 16C6.34466 17.12 6.01799 18.4453 6.01799 19.976C6.01799 21.5067 6.34466 22.8413 6.99799 23.98C7.66999 25.1 8.56599 25.9773 9.68599 26.612C10.806 27.228 12.038 27.536 13.382 27.536C14.5953 27.536 15.6687 27.284 16.602 26.78C17.554 26.276 18.394 25.5853 19.122 24.708L21.334 26.836C20.4007 27.9373 19.2527 28.8147 17.89 29.468C16.546 30.1213 15.034 30.448 13.354 30.448ZM24.3038 30V9.952H27.3278V15.44L27.1598 17.68H27.3278C27.7198 16.9893 28.3172 16.42 29.1198 15.972C29.9412 15.5053 30.8465 15.272 31.8358 15.272C33.6092 15.272 34.9438 15.804 35.8398 16.868C36.7358 17.9133 37.1838 19.2853 37.1838 20.984V30H34.1878V21.376C34.1878 20.2187 33.8798 19.3787 33.2638 18.856C32.6665 18.3147 31.9292 18.044 31.0518 18.044C30.3238 18.044 29.6798 18.2493 29.1198 18.66C28.5598 19.0707 28.1212 19.612 27.8038 20.284C27.4865 20.9373 27.3278 21.6373 27.3278 22.384V30H24.3038ZM47.4521 30.448C46.0521 30.448 44.8014 30.1213 43.7001 29.468C42.5987 28.8147 41.7307 27.9187 41.0961 26.78C40.4801 25.6413 40.1721 24.344 40.1721 22.888C40.1721 21.5253 40.4707 20.2653 41.0681 19.108C41.6654 17.9507 42.4961 17.0267 43.5601 16.336C44.6427 15.6267 45.8841 15.272 47.2841 15.272C48.7587 15.272 50.0094 15.5893 51.0361 16.224C52.0814 16.8587 52.8747 17.7267 53.4161 18.828C53.9574 19.9293 54.2281 21.1707 54.2281 22.552C54.2281 22.7573 54.2187 22.944 54.2001 23.112C54.2001 23.28 54.1907 23.4107 54.1721 23.504H43.1401C43.2894 24.9227 43.7841 25.9867 44.6241 26.696C45.4827 27.4053 46.4534 27.76 47.5361 27.76C48.5067 27.76 49.3094 27.5453 49.9441 27.116C50.5787 26.668 51.0827 26.1173 51.4561 25.464L53.9481 26.668C53.3321 27.788 52.4921 28.7027 51.4281 29.412C50.3641 30.1027 49.0387 30.448 47.4521 30.448ZM47.3121 17.848C46.3041 17.848 45.4454 18.156 44.7361 18.772C44.0267 19.388 43.5507 20.2093 43.3081 21.236H51.2321C51.1947 20.7507 51.0361 20.2467 50.7561 19.724C50.4761 19.2013 50.0467 18.7627 49.4681 18.408C48.9081 18.0347 48.1894 17.848 47.3121 17.848ZM64.0782 30.448C62.6409 30.448 61.3716 30.1213 60.2702 29.468C59.1689 28.8147 58.3009 27.9187 57.6662 26.78C57.0316 25.6227 56.7142 24.316 56.7142 22.86C56.7142 21.404 57.0316 20.1067 57.6662 18.968C58.3009 17.8107 59.1689 16.9053 60.2702 16.252C61.3716 15.5987 62.6409 15.272 64.0782 15.272C65.6649 15.272 66.9996 15.6267 68.0822 16.336C69.1836 17.0453 69.9676 18.0067 70.4342 19.22L67.6902 20.34C67.0369 18.8093 65.8142 18.044 64.0222 18.044C63.2382 18.044 62.5196 18.2493 61.8662 18.66C61.2129 19.052 60.6902 19.612 60.2982 20.34C59.9062 21.0493 59.7102 21.8893 59.7102 22.86C59.7102 23.8307 59.9062 24.68 60.2982 25.408C60.6902 26.136 61.2129 26.696 61.8662 27.088C62.5196 27.48 63.2382 27.676 64.0222 27.676C64.9369 27.676 65.7116 27.4707 66.3462 27.06C66.9809 26.6307 67.4756 26.052 67.8302 25.324L70.5182 26.5C70.0142 27.6387 69.2116 28.5813 68.1102 29.328C67.0089 30.0747 65.6649 30.448 64.0782 30.448ZM73.4109 30V9.952H76.4349V21.768L82.4829 15.72H86.2349V15.888L80.7189 21.348L86.4309 29.832V30H82.8469L78.5909 23.448L76.4349 25.576V30H73.4109ZM94.9231 30.448C93.4484 30.448 92.1511 30.112 91.0311 29.44C89.9111 28.768 89.0337 27.8627 88.3991 26.724C87.7644 25.5853 87.4471 24.2973 87.4471 22.86C87.4471 21.4413 87.7644 20.1627 88.3991 19.024C89.0337 17.8667 89.9111 16.952 91.0311 16.28C92.1511 15.608 93.4484 15.272 94.9231 15.272C96.3791 15.272 97.6671 15.608 98.7871 16.28C99.9071 16.952 100.784 17.8667 101.419 19.024C102.054 20.1627 102.371 21.4413 102.371 22.86C102.371 24.2973 102.054 25.5853 101.419 26.724C100.784 27.8627 99.9071 28.768 98.7871 29.44C97.6671 30.112 96.3791 30.448 94.9231 30.448ZM94.9231 27.676C95.7071 27.676 96.4351 27.4893 97.1071 27.116C97.7791 26.724 98.3204 26.1733 98.7311 25.464C99.1604 24.736 99.3751 23.868 99.3751 22.86C99.3751 21.852 99.1604 20.9933 98.7311 20.284C98.3204 19.556 97.7791 19.0053 97.1071 18.632C96.4351 18.24 95.7071 18.044 94.9231 18.044C94.1391 18.044 93.4017 18.24 92.7111 18.632C92.0391 19.0053 91.4884 19.556 91.0591 20.284C90.6484 20.9933 90.4431 21.852 90.4431 22.86C90.4431 23.868 90.6484 24.736 91.0591 25.464C91.4884 26.1733 92.0391 26.724 92.7111 27.116C93.4017 27.4893 94.1391 27.676 94.9231 27.676ZM110.499 30.448C108.745 30.448 107.419 29.9253 106.523 28.88C105.646 27.816 105.207 26.3787 105.207 24.568V15.72H108.231V24.148C108.231 25.3613 108.511 26.2573 109.071 26.836C109.65 27.396 110.369 27.676 111.227 27.676C111.993 27.676 112.655 27.48 113.215 27.088C113.794 26.6773 114.233 26.1547 114.531 25.52C114.849 24.8667 115.007 24.1573 115.007 23.392V15.72H118.003V30H115.175V28.068H115.007C114.597 28.74 113.981 29.3093 113.159 29.776C112.357 30.224 111.47 30.448 110.499 30.448ZM123.51 25.856V18.352H121.018V15.72H123.51V11.688H126.534V15.72H130.034V18.352H126.534V25.212C126.534 25.9213 126.674 26.4627 126.954 26.836C127.253 27.2093 127.748 27.396 128.438 27.396C128.793 27.396 129.092 27.3493 129.334 27.256C129.596 27.1627 129.857 27.032 130.118 26.864V29.804C129.801 29.9347 129.465 30.0373 129.11 30.112C128.756 30.1867 128.336 30.224 127.85 30.224C126.525 30.224 125.47 29.8413 124.686 29.076C123.902 28.292 123.51 27.2187 123.51 25.856ZM143.067 30L138.503 15.72H141.779L144.719 25.996H144.831L148.051 15.72H151.159L154.379 25.996H154.491L157.431 15.72H160.651L156.059 30H152.895L149.591 19.668H149.479L146.203 30H143.067ZM164.638 13.62C164.078 13.62 163.593 13.424 163.182 13.032C162.79 12.6213 162.594 12.136 162.594 11.576C162.594 11.016 162.79 10.54 163.182 10.148C163.593 9.756 164.078 9.56 164.638 9.56C165.198 9.56 165.674 9.756 166.066 10.148C166.477 10.54 166.682 11.016 166.682 11.576C166.682 12.136 166.477 12.6213 166.066 13.032C165.674 13.424 165.198 13.62 164.638 13.62ZM163.126 30V15.72H166.15V30H163.126ZM171.578 25.856V18.352H169.086V15.72H171.578V11.688H174.602V15.72H178.102V18.352H174.602V25.212C174.602 25.9213 174.742 26.4627 175.022 26.836C175.32 27.2093 175.815 27.396 176.506 27.396C176.86 27.396 177.159 27.3493 177.402 27.256C177.663 27.1627 177.924 27.032 178.186 26.864V29.804C177.868 29.9347 177.532 30.0373 177.178 30.112C176.823 30.1867 176.403 30.224 175.918 30.224C174.592 30.224 173.538 29.8413 172.754 29.076C171.97 28.292 171.578 27.2187 171.578 25.856ZM181.44 30V9.952H184.464V15.44L184.296 17.68H184.464C184.856 16.9893 185.453 16.42 186.256 15.972C187.077 15.5053 187.982 15.272 188.972 15.272C190.745 15.272 192.08 15.804 192.976 16.868C193.872 17.9133 194.32 19.2853 194.32 20.984V30H191.324V21.376C191.324 20.2187 191.016 19.3787 190.4 18.856C189.802 18.3147 189.065 18.044 188.188 18.044C187.46 18.044 186.816 18.2493 186.256 18.66C185.696 19.0707 185.257 19.612 184.94 20.284C184.622 20.9373 184.464 21.6373 184.464 22.384V30H181.44Z" fill="#3C4043"/>
<g id="GPay Logo (Light)">
<g id="GPay">
<g id="Pay">
<path id="Fill 1" fill-rule="evenodd" clip-rule="evenodd" d="M246.529 9.44664V17.6128H251.565C252.765 17.6128 253.757 17.2096 254.541 16.4032C255.347 15.5988 255.75 14.6394 255.75 13.5288C255.75 12.4406 255.347 11.4924 254.541 10.686C253.757 9.85915 252.765 9.44478 251.565 9.44478H246.529V9.44664ZM246.529 20.4872V29.9599H243.521V6.57217H251.499C253.527 6.57217 255.248 7.24786 256.666 8.59737C258.105 9.94688 258.824 11.5913 258.824 13.5288C258.824 15.511 258.105 17.1667 256.666 18.4938C255.27 19.8227 253.547 20.4854 251.499 20.4854H246.529V20.4872Z" fill="#5F6368"/>
<path id="Fill 3" fill-rule="evenodd" clip-rule="evenodd" d="M261.864 25.0602C261.864 25.8442 262.197 26.4975 262.862 27.0201C263.527 27.5427 264.306 27.804 265.2 27.804C266.465 27.804 267.591 27.3354 268.584 26.4004C269.576 25.4634 270.071 24.364 270.071 23.1022C269.133 22.3612 267.825 21.9916 266.147 21.9916C264.925 21.9916 263.907 22.2865 263.09 22.8745C262.273 23.4623 261.864 24.1886 261.864 25.0602ZM265.756 13.4317C267.98 13.4317 269.735 14.0252 271.022 15.2124C272.308 16.3995 272.95 18.0271 272.95 20.0952V29.9599H270.073V27.7387H269.942C268.699 29.5677 267.042 30.4825 264.972 30.4825C263.206 30.4825 261.728 29.9599 260.541 28.9146C259.353 27.8694 258.759 26.5628 258.759 24.9949C258.759 23.3393 259.385 22.0232 260.638 21.0434C261.892 20.0635 263.565 19.5726 265.658 19.5726C267.444 19.5726 268.916 19.8992 270.071 20.5525V19.8656C270.071 18.8204 269.656 17.9338 268.829 17.204C267.999 16.4741 267.031 16.1102 265.919 16.1102C264.239 16.1102 262.911 16.8176 261.93 18.2343L259.28 16.5675C260.741 14.4769 262.899 13.4317 265.756 13.4317Z" fill="#5F6368"/>
<path id="Fill 5" fill-rule="evenodd" clip-rule="evenodd" d="M289.463 13.9543L279.424 37.0154H276.318L280.046 28.9464L273.44 13.9543H276.71L281.484 25.4522H281.55L286.193 13.9543H289.463Z" fill="#5F6368"/>
</g>
<g id="G">
<path id="Fill 8" fill-rule="evenodd" clip-rule="evenodd" d="M234.373 18.4452C234.373 17.4989 234.293 16.5861 234.141 15.7126H221.454V20.8885H228.72C228.408 22.5757 227.465 24.0112 226.033 24.9725V28.3341H230.37C232.91 25.9935 234.373 22.5348 234.373 18.4452Z" fill="#4285F4"/>
<path id="Fill 10" fill-rule="evenodd" clip-rule="evenodd" d="M221.454 31.5782C225.084 31.5782 228.141 30.3873 230.37 28.3341L226.033 24.9725C224.826 25.7844 223.272 26.2585 221.454 26.2585C217.944 26.2585 214.966 23.8955 213.901 20.7112H209.433V24.1736C211.647 28.5637 216.197 31.5782 221.454 31.5782Z" fill="#34A853"/>
<path id="Fill 12" fill-rule="evenodd" clip-rule="evenodd" d="M213.901 20.7111C213.628 19.8992 213.479 19.0331 213.479 18.139C213.479 17.245 213.628 16.3789 213.901 15.567V12.1045H209.433C208.518 13.9188 208 15.9683 208 18.139C208 20.3098 208.518 22.3595 209.433 24.1736L213.901 20.7111Z" fill="#FABB05"/>
<path id="Fill 14" fill-rule="evenodd" clip-rule="evenodd" d="M221.454 10.0196C223.436 10.0196 225.213 10.7009 226.615 12.0355V12.0374L230.455 8.20162C228.123 6.03271 225.082 4.7 221.454 4.7C216.197 4.7 211.647 7.71446 209.433 12.1046L213.901 15.567C214.966 12.3827 217.944 10.0196 221.454 10.0196Z" fill="#E94235"/>
</g>
</g>
</g>
</g>
</svg>
