<svg width="165" height="21" viewBox="0 0 165 21" fill="none" xmlns="http://www.w3.org/2000/svg">
<g id="en_checkout_with_Pay_NBG">
<path id="Left Text" d="M6.888 15.2566C6.04533 15.2566 5.26133 15.1073 4.536 14.8086C3.81066 14.4993 3.176 14.0779 2.632 13.5446C2.09866 13.0006 1.67733 12.3659 1.368 11.6406C1.06933 10.9046 0.919997 10.1153 0.919997 9.27261C0.919997 8.41928 1.06933 7.62994 1.368 6.90461C1.67733 6.17928 2.09866 5.54994 2.632 5.01661C3.176 4.47261 3.81066 4.05128 4.536 3.75261C5.26133 3.44328 6.04533 3.28861 6.888 3.28861C7.48533 3.28861 8.04 3.36328 8.552 3.51261C9.064 3.66194 9.53333 3.87528 9.96 4.15261C10.3867 4.42994 10.776 4.76594 11.128 5.16061L9.896 6.36061C9.64 6.05128 9.36266 5.79528 9.064 5.59261C8.76533 5.37928 8.43466 5.21928 8.072 5.11261C7.72 5.00594 7.33066 4.95261 6.904 4.95261C6.136 4.95261 5.432 5.13394 4.792 5.49661C4.152 5.84861 3.64 6.34461 3.256 6.98461C2.88266 7.62461 2.696 8.38728 2.696 9.27261C2.696 10.1473 2.88266 10.9099 3.256 11.5606C3.64 12.2006 4.152 12.7019 4.792 13.0646C5.432 13.4166 6.136 13.5926 6.904 13.5926C7.37333 13.5926 7.8 13.5286 8.184 13.4006C8.57866 13.2726 8.94133 13.0859 9.272 12.8406C9.60266 12.5953 9.90666 12.3073 10.184 11.9766L11.448 13.1926C11.096 13.6086 10.6853 13.9713 10.216 14.2806C9.74666 14.5899 9.23466 14.8299 8.68 15.0006C8.12533 15.1713 7.528 15.2566 6.888 15.2566ZM13.1236 15.0006V3.54461H14.8516V6.68061L14.7556 7.96061H14.8516C15.0756 7.56594 15.417 7.24061 15.8756 6.98461C16.345 6.71794 16.8623 6.58461 17.4276 6.58461C18.1103 6.58461 18.6756 6.72328 19.1236 7.00061C19.5823 7.27794 19.9236 7.66194 20.1476 8.15261C20.3716 8.63261 20.4836 9.19794 20.4836 9.84861V15.0006H18.7716V10.0726C18.7716 9.63528 18.6863 9.27794 18.5156 9.00061C18.3556 8.72328 18.1423 8.51528 17.8756 8.37661C17.609 8.23794 17.3103 8.16861 16.9796 8.16861C16.5636 8.16861 16.1956 8.28594 15.8756 8.52061C15.5556 8.75528 15.305 9.06461 15.1236 9.44861C14.9423 9.82194 14.8516 10.2219 14.8516 10.6486V15.0006H13.1236ZM26.3297 15.2566C25.5297 15.2566 24.8151 15.0699 24.1857 14.6966C23.5564 14.3233 23.0604 13.8113 22.6977 13.1606C22.3457 12.5099 22.1697 11.7686 22.1697 10.9366C22.1697 10.1579 22.3404 9.43794 22.6817 8.77661C23.0231 8.11528 23.4977 7.58728 24.1057 7.19261C24.7244 6.78728 25.4337 6.58461 26.2337 6.58461C27.0764 6.58461 27.7911 6.76594 28.3777 7.12861C28.9751 7.49128 29.4284 7.98728 29.7377 8.61661C30.0471 9.24594 30.2017 9.95528 30.2017 10.7446C30.2017 10.8619 30.1964 10.9686 30.1857 11.0646C30.1857 11.1606 30.1804 11.2353 30.1697 11.2886H23.8657C23.9084 11.7366 24.0204 12.1259 24.2017 12.4566C24.4364 12.8726 24.7457 13.1873 25.1297 13.4006C25.5137 13.6139 25.9297 13.7206 26.3777 13.7206C26.9217 13.7206 27.3751 13.5979 27.7377 13.3526C28.1111 13.0966 28.4044 12.7819 28.6177 12.4086L30.0417 13.0966C29.6897 13.7366 29.2097 14.2593 28.6017 14.6646C27.9937 15.0593 27.2364 15.2566 26.3297 15.2566ZM23.9617 9.99261H28.4897C28.4791 9.78994 28.4257 9.57661 28.3297 9.35261C28.2337 9.11794 28.0951 8.90461 27.9137 8.71261C27.7324 8.52061 27.5031 8.36594 27.2257 8.24861C26.9484 8.12061 26.6231 8.05661 26.2497 8.05661C25.7804 8.05661 25.3644 8.17928 25.0017 8.42461C24.6391 8.65928 24.3564 8.98994 24.1537 9.41661C24.0684 9.59794 24.0044 9.78994 23.9617 9.99261ZM35.809 15.2566C34.9877 15.2566 34.257 15.0699 33.617 14.6966C32.9877 14.3233 32.4917 13.8113 32.129 13.1606C31.777 12.4993 31.601 11.7526 31.601 10.9206C31.601 10.0886 31.777 9.34728 32.129 8.69661C32.4917 8.04594 32.9877 7.53394 33.617 7.16061C34.257 6.77661 34.9877 6.58461 35.809 6.58461C36.7157 6.58461 37.4783 6.78728 38.097 7.19261C38.7263 7.59794 39.1743 8.14728 39.441 8.84061L37.873 9.48061C37.681 9.04328 37.4037 8.71794 37.041 8.50461C36.689 8.28061 36.2677 8.16861 35.777 8.16861C35.329 8.16861 34.9183 8.28594 34.545 8.52061C34.1717 8.74461 33.873 9.05928 33.649 9.46461C33.425 9.86994 33.313 10.3553 33.313 10.9206C33.313 11.4753 33.425 11.9606 33.649 12.3766C33.873 12.7926 34.1717 13.1126 34.545 13.3366C34.9183 13.5606 35.329 13.6726 35.777 13.6726C36.2997 13.6726 36.7423 13.5553 37.105 13.3206C37.4677 13.0859 37.7503 12.7553 37.953 12.3286L39.489 13.0006C39.1903 13.6513 38.7263 14.1899 38.097 14.6166C37.4783 15.0433 36.7157 15.2566 35.809 15.2566ZM41.1205 15.0006V3.54461H42.8485V10.2966L46.3045 6.84061H48.4485V6.93661L45.2965 10.0566L48.5605 14.9046V15.0006H46.5125L44.0805 11.2566L42.8485 12.4726V15.0006H41.1205ZM53.3917 15.2566C52.5491 15.2566 51.8077 15.0646 51.1677 14.6806C50.5277 14.2966 50.0264 13.7793 49.6637 13.1286C49.3011 12.4673 49.1197 11.7313 49.1197 10.9206C49.1197 10.1099 49.3011 9.37928 49.6637 8.72861C50.0264 8.06728 50.5277 7.54461 51.1677 7.16061C51.8077 6.77661 52.5491 6.58461 53.3917 6.58461C54.2237 6.58461 54.9597 6.78194 55.5997 7.17661C56.2397 7.56061 56.7411 8.07794 57.1037 8.72861C57.4664 9.37928 57.6477 10.1099 57.6477 10.9206C57.6477 11.7313 57.4664 12.4673 57.1037 13.1286C56.7411 13.7793 56.2397 14.2966 55.5997 14.6806C54.9597 15.0646 54.2237 15.2566 53.3917 15.2566ZM53.3917 13.6726C53.8397 13.6726 54.2557 13.5659 54.6397 13.3526C55.0237 13.1286 55.3331 12.8139 55.5677 12.4086C55.8131 11.9926 55.9357 11.4966 55.9357 10.9206C55.9357 10.3446 55.8131 9.85394 55.5677 9.44861C55.3331 9.03261 55.0237 8.71794 54.6397 8.50461C54.2557 8.28061 53.8397 8.16861 53.3917 8.16861C52.9437 8.16861 52.5224 8.28061 52.1277 8.50461C51.7437 8.71794 51.4291 9.03261 51.1837 9.44861C50.9491 9.85394 50.8317 10.3446 50.8317 10.9206C50.8317 11.4966 50.9491 11.9926 51.1837 12.4086C51.4291 12.8139 51.7491 13.1286 52.1437 13.3526C52.5384 13.5659 52.9544 13.6726 53.3917 13.6726ZM62.2711 15.2566C61.2685 15.2566 60.5111 14.9579 59.9991 14.3606C59.4978 13.7526 59.2471 12.9313 59.2471 11.8966V6.84061H60.9751V11.6566C60.9751 12.3393 61.1351 12.8459 61.4551 13.1766C61.7858 13.5073 62.1965 13.6726 62.6871 13.6726C63.1351 13.6726 63.5191 13.5606 63.8391 13.3366C64.1591 13.1019 64.4045 12.7979 64.5751 12.4246C64.7565 12.0513 64.8471 11.6513 64.8471 11.2246V6.84061H66.5591V15.0006H64.9431V13.8966H64.8471C64.6978 14.1526 64.4898 14.3819 64.2231 14.5846C63.9565 14.7873 63.6578 14.9473 63.3271 15.0646C62.9965 15.1926 62.6445 15.2566 62.2711 15.2566ZM68.2605 6.84061H69.6845V4.53661H71.4125V6.84061H73.4125V8.34461H71.4125V12.2646C71.4125 12.6699 71.4925 12.9793 71.6525 13.1926C71.8232 13.4059 72.1058 13.5126 72.5005 13.5126C72.6925 13.5126 72.8632 13.4859 73.0125 13.4326C73.1618 13.3686 73.3112 13.2939 73.4605 13.2086V14.8886C73.2792 14.9633 73.0872 15.0219 72.8845 15.0646C72.6818 15.1073 72.4418 15.1286 72.1645 15.1286C71.4072 15.1286 70.8045 14.9099 70.3565 14.4726C69.9085 14.0246 69.6845 13.4113 69.6845 12.6326V8.34461H68.2605V6.84061ZM80.8169 15.0006L78.2089 6.84061H80.0809L81.7609 12.7126H81.8249L83.6649 6.84061H85.4409L87.2809 12.7126H87.3449L89.0249 6.84061H90.8649L88.2409 15.0006H86.4329L84.5449 9.09661H84.4809L82.6089 15.0006H80.8169ZM92.2579 15.0006V6.84061H93.9859V15.0006H92.2579ZM93.1219 5.64061C92.8019 5.64061 92.5245 5.52861 92.2899 5.30461C92.0659 5.06994 91.9539 4.79261 91.9539 4.47261C91.9539 4.14194 92.0659 3.86994 92.2899 3.65661C92.5245 3.43261 92.8019 3.32061 93.1219 3.32061C93.4525 3.32061 93.7299 3.43261 93.9539 3.65661C94.1779 3.86994 94.2899 4.14194 94.2899 4.47261C94.2899 4.79261 94.1779 5.06994 93.9539 5.30461C93.7299 5.52861 93.4525 5.64061 93.1219 5.64061ZM95.6417 6.84061H97.0657V4.53661H98.7937V6.84061H100.794V8.34461H98.7937V12.2646C98.7937 12.6699 98.8737 12.9793 99.0337 13.1926C99.2044 13.4059 99.4871 13.5126 99.8817 13.5126C100.074 13.5126 100.244 13.4859 100.394 13.4326C100.543 13.3686 100.692 13.2939 100.842 13.2086V14.8886C100.66 14.9633 100.468 15.0219 100.266 15.0646C100.063 15.1073 99.8231 15.1286 99.5457 15.1286C98.7884 15.1286 98.1857 14.9099 97.7377 14.4726C97.2897 14.0246 97.0657 13.4113 97.0657 12.6326V8.34461H95.6417V6.84061ZM102.68 15.0006V3.54461H104.408V6.68061L104.312 7.96061H104.408C104.632 7.56594 104.973 7.24061 105.432 6.98461C105.901 6.71794 106.419 6.58461 106.984 6.58461C107.667 6.58461 108.232 6.72328 108.68 7.00061C109.139 7.27794 109.48 7.66194 109.704 8.15261C109.928 8.63261 110.04 9.19794 110.04 9.84861V15.0006H108.328V10.0726C108.328 9.63528 108.243 9.27794 108.072 9.00061C107.912 8.72328 107.699 8.51528 107.432 8.37661C107.165 8.23794 106.867 8.16861 106.536 8.16861C106.12 8.16861 105.752 8.28594 105.432 8.52061C105.112 8.75528 104.861 9.06461 104.68 9.44861C104.499 9.82194 104.408 10.2219 104.408 10.6486V15.0006H102.68Z" fill="white"/>
<g id="GPay (Dark)">
<g id="GPay">
<g id="Pay">
<path id="Fill 1" fill-rule="evenodd" clip-rule="evenodd" d="M139.356 3.42339V8.16175H142.278C142.974 8.16175 143.55 7.92781 144.005 7.45993C144.473 6.99313 144.707 6.43644 144.707 5.79203C144.707 5.16061 144.473 4.61041 144.005 4.14254C143.55 3.66274 142.974 3.4223 142.278 3.4223H139.356V3.42339ZM139.356 9.82966V15.3262H137.611V1.75549H142.24C143.417 1.75549 144.415 2.14756 145.238 2.93061C146.073 3.71365 146.491 4.66782 146.491 5.79203C146.491 6.94224 146.073 7.90291 145.238 8.67296C144.428 9.44409 143.429 9.82858 142.24 9.82858H139.356V9.82966Z" fill="white"/>
<path id="Fill 3" fill-rule="evenodd" clip-rule="evenodd" d="M148.255 12.4831C148.255 12.9379 148.448 13.317 148.834 13.6203C149.22 13.9235 149.672 14.0752 150.19 14.0752C150.924 14.0752 151.578 13.8032 152.153 13.2607C152.729 12.717 153.017 12.0791 153.017 11.3469C152.472 10.917 151.713 10.7025 150.74 10.7025C150.031 10.7025 149.44 10.8736 148.966 11.2148C148.492 11.5559 148.255 11.9773 148.255 12.4831M150.513 5.73566C151.803 5.73566 152.821 6.08007 153.569 6.76889C154.314 7.45771 154.687 8.40213 154.687 9.60216V15.3261H153.018V14.0373H152.942C152.221 15.0985 151.259 15.6294 150.058 15.6294C149.033 15.6294 148.176 15.3261 147.487 14.7196C146.797 14.1131 146.453 13.3549 146.453 12.4452C146.453 11.4845 146.816 10.7208 147.543 10.1523C148.271 9.58375 149.241 9.2989 150.456 9.2989C151.492 9.2989 152.346 9.48844 153.017 9.86751V9.46894C153.017 8.86243 152.776 8.34798 152.296 7.92451C151.814 7.50103 151.252 7.28984 150.607 7.28984C149.633 7.28984 148.862 7.70032 148.293 8.52235L146.755 7.55519C147.603 6.34217 148.855 5.73566 150.513 5.73566" fill="white"/>
<path id="Fill 5" fill-rule="evenodd" clip-rule="evenodd" d="M164.269 6.03894L158.443 19.4201H156.641L158.804 14.738L154.971 6.03894H156.869L159.639 12.7106H159.677L162.371 6.03894H164.269Z" fill="white"/>
</g>
<g id="G">
<path id="Fill 8" fill-rule="evenodd" clip-rule="evenodd" d="M132.303 8.64473C132.303 8.09563 132.256 7.56601 132.168 7.05914H124.806V10.0625H129.023C128.842 11.0414 128.294 11.8744 127.464 12.4322V14.3828H129.98C131.454 13.0246 132.303 11.0177 132.303 8.64473" fill="#4285F4"/>
<path id="Fill 10" fill-rule="evenodd" clip-rule="evenodd" d="M124.806 16.2651C126.913 16.2651 128.687 15.5741 129.98 14.3828L127.464 12.4322C126.763 12.9033 125.861 13.1784 124.806 13.1784C122.77 13.1784 121.042 11.8073 120.424 9.95959H117.832V11.9687C119.116 14.516 121.757 16.2651 124.806 16.2651" fill="#34A853"/>
<path id="Fill 12" fill-rule="evenodd" clip-rule="evenodd" d="M120.424 9.9596C120.266 9.48847 120.179 8.98593 120.179 8.46715C120.179 7.94837 120.266 7.44583 120.424 6.9747V4.96564H117.832C117.3 6.01837 117 7.20756 117 8.46715C117 9.72674 117.3 10.916 117.832 11.9687L120.424 9.9596Z" fill="#FABB05"/>
<path id="Fill 14" fill-rule="evenodd" clip-rule="evenodd" d="M124.806 3.75583C125.957 3.75583 126.988 4.15115 127.801 4.92553V4.92661L130.029 2.70094C128.676 1.44243 126.912 0.669128 124.806 0.669128C121.757 0.669128 119.116 2.41826 117.832 4.9656L120.424 6.97467C121.042 5.12698 122.77 3.75583 124.806 3.75583" fill="#E94235"/>
</g>
</g>
</g>
</g>
</svg>
