<svg width="146" height="21" viewBox="0 0 146 21" fill="none" xmlns="http://www.w3.org/2000/svg">
<g id="en_donate_with_Pay_NBG">
<path id="Left Text" d="M1.87413 15.0006V3.54461H5.53813C6.74346 3.54461 7.77813 3.78994 8.64213 4.28061C9.51679 4.76061 10.1888 5.43261 10.6581 6.29661C11.1381 7.16061 11.3781 8.15261 11.3781 9.27261C11.3781 10.3926 11.1381 11.3846 10.6581 12.2486C10.1888 13.1126 9.51679 13.7899 8.64213 14.2806C7.77813 14.7606 6.74346 15.0006 5.53813 15.0006H1.87413ZM3.63413 13.3366H5.49013C6.35413 13.3366 7.09546 13.1766 7.71413 12.8566C8.33279 12.5259 8.80213 12.0566 9.12213 11.4486C9.44213 10.8406 9.60213 10.1153 9.60213 9.27261C9.60213 8.42994 9.44213 7.70461 9.12213 7.09661C8.80213 6.48861 8.33279 6.02461 7.71413 5.70461C7.09546 5.37394 6.35413 5.20861 5.49013 5.20861H3.63413V13.3366ZM16.8574 15.2566C16.0147 15.2566 15.2734 15.0646 14.6334 14.6806C13.9934 14.2966 13.492 13.7793 13.1294 13.1286C12.7667 12.4673 12.5854 11.7313 12.5854 10.9206C12.5854 10.1099 12.7667 9.37928 13.1294 8.72861C13.492 8.06728 13.9934 7.54461 14.6334 7.16061C15.2734 6.77661 16.0147 6.58461 16.8574 6.58461C17.6894 6.58461 18.4254 6.78194 19.0654 7.17661C19.7054 7.56061 20.2067 8.07794 20.5694 8.72861C20.932 9.37928 21.1134 10.1099 21.1134 10.9206C21.1134 11.7313 20.932 12.4673 20.5694 13.1286C20.2067 13.7793 19.7054 14.2966 19.0654 14.6806C18.4254 15.0646 17.6894 15.2566 16.8574 15.2566ZM16.8574 13.6726C17.3054 13.6726 17.7214 13.5659 18.1054 13.3526C18.4894 13.1286 18.7987 12.8139 19.0334 12.4086C19.2787 11.9926 19.4014 11.4966 19.4014 10.9206C19.4014 10.3446 19.2787 9.85394 19.0334 9.44861C18.7987 9.03261 18.4894 8.71794 18.1054 8.50461C17.7214 8.28061 17.3054 8.16861 16.8574 8.16861C16.4094 8.16861 15.988 8.28061 15.5934 8.50461C15.2094 8.71794 14.8947 9.03261 14.6494 9.44861C14.4147 9.85394 14.2974 10.3446 14.2974 10.9206C14.2974 11.4966 14.4147 11.9926 14.6494 12.4086C14.8947 12.8139 15.2147 13.1286 15.6094 13.3526C16.004 13.5659 16.42 13.6726 16.8574 13.6726ZM22.6986 15.0006V6.84061H24.3306V7.96061H24.4266C24.6613 7.56594 25.008 7.24061 25.4666 6.98461C25.936 6.71794 26.448 6.58461 27.0026 6.58461C28.0053 6.58461 28.7573 6.88328 29.2586 7.48061C29.76 8.06728 30.0106 8.85661 30.0106 9.84861V15.0006H28.2986V10.0726C28.2986 9.41128 28.1333 8.93128 27.8026 8.63261C27.472 8.32328 27.04 8.16861 26.5066 8.16861C26.0906 8.16861 25.728 8.28594 25.4186 8.52061C25.1093 8.74461 24.864 9.04328 24.6826 9.41661C24.512 9.78994 24.4266 10.1899 24.4266 10.6166V15.0006H22.6986ZM34.6118 15.2566C34.0251 15.2566 33.5024 15.1393 33.0438 14.9046C32.5958 14.6699 32.2384 14.3499 31.9718 13.9446C31.7158 13.5286 31.5878 13.0539 31.5878 12.5206C31.5878 11.9339 31.7371 11.4379 32.0358 11.0326C32.3451 10.6273 32.7558 10.3179 33.2678 10.1046C33.7798 9.89128 34.3451 9.78461 34.9638 9.78461C35.3051 9.78461 35.6198 9.81128 35.9078 9.86461C36.2064 9.90728 36.4624 9.96061 36.6758 10.0246C36.8998 10.0886 37.0758 10.1579 37.2038 10.2326V9.80061C37.2038 9.26728 37.0118 8.84061 36.6278 8.52061C36.2438 8.20061 35.7478 8.04061 35.1398 8.04061C34.7238 8.04061 34.3291 8.13661 33.9558 8.32861C33.5824 8.50994 33.2838 8.76061 33.0598 9.08061L31.8758 8.16861C32.1104 7.83794 32.3931 7.55528 32.7238 7.32061C33.0651 7.08594 33.4438 6.90461 33.8598 6.77661C34.2864 6.64861 34.7291 6.58461 35.1878 6.58461C36.3718 6.58461 37.2838 6.87794 37.9238 7.46461C38.5638 8.04061 38.8838 8.85128 38.8838 9.89661V15.0006H37.2038V13.9926H37.1078C36.9691 14.2059 36.7771 14.4086 36.5318 14.6006C36.2971 14.7926 36.0144 14.9473 35.6838 15.0646C35.3638 15.1926 35.0064 15.2566 34.6118 15.2566ZM34.9158 13.8486C35.3638 13.8486 35.7584 13.7419 36.0998 13.5286C36.4518 13.3153 36.7238 13.0379 36.9158 12.6966C37.1078 12.3446 37.2038 11.9659 37.2038 11.5606C36.9691 11.4219 36.6811 11.3099 36.3398 11.2246C36.0091 11.1286 35.6571 11.0806 35.2838 11.0806C34.5798 11.0806 34.0784 11.2193 33.7798 11.4966C33.4811 11.7739 33.3318 12.1206 33.3318 12.5366C33.3318 12.9206 33.4758 13.2353 33.7638 13.4806C34.0518 13.7259 34.4358 13.8486 34.9158 13.8486ZM40.2199 6.84061H41.6439V4.53661H43.3719V6.84061H45.3719V8.34461H43.3719V12.2646C43.3719 12.6699 43.4519 12.9793 43.6119 13.1926C43.7825 13.4059 44.0652 13.5126 44.4599 13.5126C44.6519 13.5126 44.8225 13.4859 44.9719 13.4326C45.1212 13.3686 45.2705 13.2939 45.4199 13.2086V14.8886C45.2385 14.9633 45.0465 15.0219 44.8439 15.0646C44.6412 15.1073 44.4012 15.1286 44.1239 15.1286C43.3665 15.1286 42.7639 14.9099 42.3159 14.4726C41.8679 14.0246 41.6439 13.4113 41.6439 12.6326V8.34461H40.2199V6.84061ZM50.5954 15.2566C49.7954 15.2566 49.0807 15.0699 48.4514 14.6966C47.822 14.3233 47.326 13.8113 46.9634 13.1606C46.6114 12.5099 46.4354 11.7686 46.4354 10.9366C46.4354 10.1579 46.606 9.43794 46.9474 8.77661C47.2887 8.11528 47.7634 7.58728 48.3714 7.19261C48.99 6.78728 49.6994 6.58461 50.4994 6.58461C51.342 6.58461 52.0567 6.76594 52.6434 7.12861C53.2407 7.49128 53.694 7.98728 54.0034 8.61661C54.3127 9.24594 54.4674 9.95528 54.4674 10.7446C54.4674 10.8619 54.462 10.9686 54.4514 11.0646C54.4514 11.1606 54.446 11.2353 54.4354 11.2886H48.1314C48.174 11.7366 48.286 12.1259 48.4674 12.4566C48.702 12.8726 49.0114 13.1873 49.3954 13.4006C49.7794 13.6139 50.1954 13.7206 50.6434 13.7206C51.1874 13.7206 51.6407 13.5979 52.0034 13.3526C52.3767 13.0966 52.67 12.7819 52.8834 12.4086L54.3074 13.0966C53.9554 13.7366 53.4754 14.2593 52.8674 14.6646C52.2594 15.0593 51.502 15.2566 50.5954 15.2566ZM48.2274 9.99261H52.7554C52.7447 9.78994 52.6914 9.57661 52.5954 9.35261C52.4994 9.11794 52.3607 8.90461 52.1794 8.71261C51.998 8.52061 51.7687 8.36594 51.4914 8.24861C51.214 8.12061 50.8887 8.05661 50.5154 8.05661C50.046 8.05661 49.63 8.17928 49.2674 8.42461C48.9047 8.65928 48.622 8.98994 48.4194 9.41661C48.334 9.59794 48.27 9.78994 48.2274 9.99261ZM61.8169 15.0006L59.2089 6.84061H61.0809L62.7609 12.7126H62.8249L64.6649 6.84061H66.4409L68.2809 12.7126H68.3449L70.0249 6.84061H71.8649L69.2409 15.0006H67.4329L65.5449 9.09661H65.4809L63.6089 15.0006H61.8169ZM73.2579 15.0006V6.84061H74.9859V15.0006H73.2579ZM74.1219 5.64061C73.8019 5.64061 73.5245 5.52861 73.2899 5.30461C73.0659 5.06994 72.9539 4.79261 72.9539 4.47261C72.9539 4.14194 73.0659 3.86994 73.2899 3.65661C73.5245 3.43261 73.8019 3.32061 74.1219 3.32061C74.4525 3.32061 74.7299 3.43261 74.9539 3.65661C75.1779 3.86994 75.2899 4.14194 75.2899 4.47261C75.2899 4.79261 75.1779 5.06994 74.9539 5.30461C74.7299 5.52861 74.4525 5.64061 74.1219 5.64061ZM76.6417 6.84061H78.0657V4.53661H79.7937V6.84061H81.7937V8.34461H79.7937V12.2646C79.7937 12.6699 79.8737 12.9793 80.0337 13.1926C80.2044 13.4059 80.4871 13.5126 80.8817 13.5126C81.0737 13.5126 81.2444 13.4859 81.3937 13.4326C81.5431 13.3686 81.6924 13.2939 81.8417 13.2086V14.8886C81.6604 14.9633 81.4684 15.0219 81.2657 15.0646C81.0631 15.1073 80.8231 15.1286 80.5457 15.1286C79.7884 15.1286 79.1857 14.9099 78.7377 14.4726C78.2897 14.0246 78.0657 13.4113 78.0657 12.6326V8.34461H76.6417V6.84061ZM83.6799 15.0006V3.54461H85.4079V6.68061L85.3119 7.96061H85.4079C85.6319 7.56594 85.9732 7.24061 86.4319 6.98461C86.9012 6.71794 87.4185 6.58461 87.9839 6.58461C88.6665 6.58461 89.2319 6.72328 89.6799 7.00061C90.1385 7.27794 90.4799 7.66194 90.7039 8.15261C90.9279 8.63261 91.0399 9.19794 91.0399 9.84861V15.0006H89.3279V10.0726C89.3279 9.63528 89.2425 9.27794 89.0719 9.00061C88.9119 8.72328 88.6985 8.51528 88.4319 8.37661C88.1652 8.23794 87.8665 8.16861 87.5359 8.16861C87.1199 8.16861 86.7519 8.28594 86.4319 8.52061C86.1119 8.75528 85.8612 9.06461 85.6799 9.44861C85.4985 9.82194 85.4079 10.2219 85.4079 10.6486V15.0006H83.6799Z" fill="white"/>
<g id="GPay (Dark)">
<g id="GPay">
<g id="Pay">
<path id="Fill 1" fill-rule="evenodd" clip-rule="evenodd" d="M120.356 3.42339V8.16175H123.278C123.974 8.16175 124.55 7.92781 125.005 7.45993C125.473 6.99313 125.707 6.43644 125.707 5.79203C125.707 5.16061 125.473 4.61041 125.005 4.14254C124.55 3.66274 123.974 3.4223 123.278 3.4223H120.356V3.42339ZM120.356 9.82966V15.3262H118.611V1.75549H123.24C124.417 1.75549 125.415 2.14756 126.238 2.93061C127.073 3.71365 127.491 4.66782 127.491 5.79203C127.491 6.94224 127.073 7.90291 126.238 8.67296C125.428 9.44409 124.429 9.82858 123.24 9.82858H120.356V9.82966Z" fill="white"/>
<path id="Fill 3" fill-rule="evenodd" clip-rule="evenodd" d="M129.255 12.4831C129.255 12.9379 129.448 13.317 129.834 13.6203C130.22 13.9235 130.672 14.0752 131.19 14.0752C131.924 14.0752 132.578 13.8032 133.153 13.2607C133.729 12.717 134.017 12.0791 134.017 11.3469C133.472 10.917 132.713 10.7025 131.74 10.7025C131.031 10.7025 130.44 10.8736 129.966 11.2148C129.492 11.5559 129.255 11.9773 129.255 12.4831M131.513 5.73566C132.803 5.73566 133.821 6.08007 134.569 6.76889C135.314 7.45771 135.687 8.40213 135.687 9.60216V15.3261H134.018V14.0373H133.942C133.221 15.0985 132.259 15.6294 131.058 15.6294C130.033 15.6294 129.176 15.3261 128.487 14.7196C127.797 14.1131 127.453 13.3549 127.453 12.4452C127.453 11.4845 127.816 10.7208 128.543 10.1523C129.271 9.58375 130.241 9.2989 131.456 9.2989C132.492 9.2989 133.346 9.48844 134.017 9.86751V9.46894C134.017 8.86243 133.776 8.34798 133.296 7.92451C132.814 7.50103 132.252 7.28984 131.607 7.28984C130.633 7.28984 129.862 7.70032 129.293 8.52235L127.755 7.55519C128.603 6.34217 129.855 5.73566 131.513 5.73566" fill="white"/>
<path id="Fill 5" fill-rule="evenodd" clip-rule="evenodd" d="M145.269 6.03894L139.443 19.4201H137.641L139.804 14.738L135.971 6.03894H137.869L140.639 12.7106H140.677L143.371 6.03894H145.269Z" fill="white"/>
</g>
<g id="G">
<path id="Fill 8" fill-rule="evenodd" clip-rule="evenodd" d="M113.303 8.64473C113.303 8.09563 113.256 7.56601 113.168 7.05914H105.806V10.0625H110.023C109.842 11.0414 109.294 11.8744 108.464 12.4322V14.3828H110.98C112.454 13.0246 113.303 11.0177 113.303 8.64473" fill="#4285F4"/>
<path id="Fill 10" fill-rule="evenodd" clip-rule="evenodd" d="M105.806 16.2651C107.913 16.2651 109.687 15.5741 110.98 14.3828L108.464 12.4322C107.763 12.9033 106.861 13.1784 105.806 13.1784C103.77 13.1784 102.042 11.8073 101.424 9.95959H98.8316V11.9687C100.116 14.516 102.757 16.2651 105.806 16.2651" fill="#34A853"/>
<path id="Fill 12" fill-rule="evenodd" clip-rule="evenodd" d="M101.424 9.9596C101.266 9.48847 101.179 8.98593 101.179 8.46715C101.179 7.94837 101.266 7.44583 101.424 6.9747V4.96564H98.8316C98.3003 6.01837 98 7.20756 98 8.46715C98 9.72674 98.3003 10.916 98.8316 11.9687L101.424 9.9596Z" fill="#FABB05"/>
<path id="Fill 14" fill-rule="evenodd" clip-rule="evenodd" d="M105.806 3.75583C106.957 3.75583 107.988 4.15115 108.801 4.92553V4.92661L111.029 2.70094C109.676 1.44243 107.912 0.669128 105.806 0.669128C102.757 0.669128 100.116 2.41826 98.8316 4.9656L101.424 6.97467C102.042 5.12698 103.77 3.75583 105.806 3.75583" fill="#E94235"/>
</g>
</g>
</g>
</g>
</svg>
