<svg width="240" height="38" viewBox="0 0 240 38" fill="none" xmlns="http://www.w3.org/2000/svg">
<g id="en_order_with_Dark">
<path id="Text" d="M13.4714 30.448C11.9781 30.448 10.5968 30.1773 9.32744 29.636C8.07677 29.0947 6.98477 28.348 6.05144 27.396C5.11811 26.444 4.39011 25.3333 3.86744 24.064C3.34477 22.7947 3.08344 21.432 3.08344 19.976C3.08344 18.52 3.34477 17.1573 3.86744 15.888C4.39011 14.6187 5.11811 13.508 6.05144 12.556C6.98477 11.604 8.07677 10.8573 9.32744 10.316C10.5968 9.77467 11.9781 9.504 13.4714 9.504C14.9461 9.504 16.3088 9.77467 17.5594 10.316C18.8288 10.8573 19.9301 11.604 20.8634 12.556C21.8154 13.508 22.5434 14.6187 23.0474 15.888C23.5701 17.1573 23.8314 18.52 23.8314 19.976C23.8314 21.432 23.5701 22.7947 23.0474 24.064C22.5434 25.3333 21.8154 26.444 20.8634 27.396C19.9301 28.348 18.8288 29.0947 17.5594 29.636C16.3088 30.1773 14.9461 30.448 13.4714 30.448ZM13.4714 27.536C14.8154 27.536 16.0381 27.2187 17.1394 26.584C18.2408 25.9493 19.1181 25.0627 19.7714 23.924C20.4248 22.7853 20.7514 21.4693 20.7514 19.976C20.7514 18.4827 20.4248 17.1667 19.7714 16.028C19.1181 14.8893 18.2408 14.0027 17.1394 13.368C16.0381 12.7333 14.8154 12.416 13.4714 12.416C12.1274 12.416 10.9048 12.7333 9.80344 13.368C8.70211 14.0027 7.82477 14.8893 7.17144 16.028C6.51811 17.1667 6.19144 18.4827 6.19144 19.976C6.19144 21.4693 6.51811 22.7853 7.17144 23.924C7.82477 25.0627 8.70211 25.9493 9.80344 26.584C10.9048 27.2187 12.1274 27.536 13.4714 27.536ZM27.1843 30V15.72H30.0403V17.82H30.2083C30.5256 17.092 31.067 16.4947 31.8323 16.028C32.6163 15.5427 33.4563 15.3 34.3523 15.3C34.7443 15.3 35.071 15.328 35.3323 15.384C35.6123 15.44 35.8643 15.5053 36.0883 15.58V18.716C35.7336 18.5667 35.3696 18.4453 34.9963 18.352C34.6416 18.2587 34.2683 18.212 33.8763 18.212C33.167 18.212 32.5323 18.408 31.9723 18.8C31.431 19.1733 31.0016 19.6867 30.6843 20.34C30.367 20.9747 30.2083 21.6747 30.2083 22.44V30H27.1843ZM43.9789 30.448C42.6909 30.448 41.5243 30.1307 40.4789 29.496C39.4523 28.8427 38.6309 27.9467 38.0149 26.808C37.4176 25.6507 37.1189 24.3347 37.1189 22.86C37.1189 21.3853 37.4176 20.0787 38.0149 18.94C38.6309 17.8013 39.4523 16.9053 40.4789 16.252C41.5243 15.5987 42.6909 15.272 43.9789 15.272C45.0803 15.272 46.0229 15.5147 46.8069 16C47.6096 16.4853 48.1976 17.036 48.5709 17.652H48.7389L48.5709 15.664V9.952H51.5669V30H48.7389V28.096H48.5709C48.1976 28.712 47.6096 29.2627 46.8069 29.748C46.0229 30.2147 45.0803 30.448 43.9789 30.448ZM44.4269 27.676C45.1736 27.676 45.8736 27.48 46.5269 27.088C47.1989 26.696 47.7309 26.1453 48.1229 25.436C48.5336 24.708 48.7389 23.8493 48.7389 22.86C48.7389 21.8707 48.5336 21.0213 48.1229 20.312C47.7309 19.584 47.1989 19.024 46.5269 18.632C45.8736 18.24 45.1736 18.044 44.4269 18.044C43.6803 18.044 42.9803 18.24 42.3269 18.632C41.6736 19.024 41.1416 19.584 40.7309 20.312C40.3203 21.0213 40.1149 21.8707 40.1149 22.86C40.1149 23.8493 40.3203 24.708 40.7309 25.436C41.1416 26.1453 41.6736 26.696 42.3269 27.088C42.9803 27.48 43.6803 27.676 44.4269 27.676ZM61.8161 30.448C60.4161 30.448 59.1655 30.1213 58.0641 29.468C56.9628 28.8147 56.0948 27.9187 55.4601 26.78C54.8441 25.6413 54.5361 24.344 54.5361 22.888C54.5361 21.5253 54.8348 20.2653 55.4321 19.108C56.0295 17.9507 56.8601 17.0267 57.9241 16.336C59.0068 15.6267 60.2481 15.272 61.6481 15.272C63.1228 15.272 64.3735 15.5893 65.4001 16.224C66.4455 16.8587 67.2388 17.7267 67.7801 18.828C68.3215 19.9293 68.5921 21.1707 68.5921 22.552C68.5921 22.7573 68.5828 22.944 68.5641 23.112C68.5641 23.28 68.5548 23.4107 68.5361 23.504H57.5041C57.6535 24.9227 58.1481 25.9867 58.9881 26.696C59.8468 27.4053 60.8175 27.76 61.9001 27.76C62.8708 27.76 63.6735 27.5453 64.3081 27.116C64.9428 26.668 65.4468 26.1173 65.8201 25.464L68.3121 26.668C67.6961 27.788 66.8561 28.7027 65.7921 29.412C64.7281 30.1027 63.4028 30.448 61.8161 30.448ZM61.6761 17.848C60.6681 17.848 59.8095 18.156 59.1001 18.772C58.3908 19.388 57.9148 20.2093 57.6721 21.236H65.5961C65.5588 20.7507 65.4001 20.2467 65.1201 19.724C64.8401 19.2013 64.4108 18.7627 63.8321 18.408C63.2721 18.0347 62.5535 17.848 61.6761 17.848ZM71.6976 30V15.72H74.5536V17.82H74.7216C75.0389 17.092 75.5803 16.4947 76.3456 16.028C77.1296 15.5427 77.9696 15.3 78.8656 15.3C79.2576 15.3 79.5843 15.328 79.8456 15.384C80.1256 15.44 80.3776 15.5053 80.6016 15.58V18.716C80.2469 18.5667 79.8829 18.4453 79.5096 18.352C79.1549 18.2587 78.7816 18.212 78.3896 18.212C77.6803 18.212 77.0456 18.408 76.4856 18.8C75.9443 19.1733 75.5149 19.6867 75.1976 20.34C74.8803 20.9747 74.7216 21.6747 74.7216 22.44V30H71.6976ZM93.067 30L88.503 15.72H91.779L94.719 25.996H94.831L98.051 15.72H101.159L104.379 25.996H104.491L107.431 15.72H110.651L106.059 30H102.895L99.591 19.668H99.479L96.203 30H93.067ZM114.638 13.62C114.078 13.62 113.593 13.424 113.182 13.032C112.79 12.6213 112.594 12.136 112.594 11.576C112.594 11.016 112.79 10.54 113.182 10.148C113.593 9.756 114.078 9.56 114.638 9.56C115.198 9.56 115.674 9.756 116.066 10.148C116.477 10.54 116.682 11.016 116.682 11.576C116.682 12.136 116.477 12.6213 116.066 13.032C115.674 13.424 115.198 13.62 114.638 13.62ZM113.126 30V15.72H116.15V30H113.126ZM121.578 25.856V18.352H119.086V15.72H121.578V11.688H124.602V15.72H128.102V18.352H124.602V25.212C124.602 25.9213 124.742 26.4627 125.022 26.836C125.32 27.2093 125.815 27.396 126.506 27.396C126.86 27.396 127.159 27.3493 127.402 27.256C127.663 27.1627 127.924 27.032 128.186 26.864V29.804C127.868 29.9347 127.532 30.0373 127.178 30.112C126.823 30.1867 126.403 30.224 125.918 30.224C124.592 30.224 123.538 29.8413 122.754 29.076C121.97 28.292 121.578 27.2187 121.578 25.856ZM131.44 30V9.952H134.464V15.44L134.296 17.68H134.464C134.856 16.9893 135.453 16.42 136.256 15.972C137.077 15.5053 137.982 15.272 138.972 15.272C140.745 15.272 142.08 15.804 142.976 16.868C143.872 17.9133 144.32 19.2853 144.32 20.984V30H141.324V21.376C141.324 20.2187 141.016 19.3787 140.4 18.856C139.802 18.3147 139.065 18.044 138.188 18.044C137.46 18.044 136.816 18.2493 136.256 18.66C135.696 19.0707 135.257 19.612 134.94 20.284C134.622 20.9373 134.464 21.6373 134.464 22.384V30H131.44Z" fill="white"/>
<g id="GPay Logo (Dark)">
<g id="GPay">
<g id="Pay">
<path id="Fill 1" fill-rule="evenodd" clip-rule="evenodd" d="M196.529 9.34665V17.5128H201.565C202.765 17.5128 203.757 17.1096 204.541 16.3032C205.347 15.4988 205.75 14.5394 205.75 13.4288C205.75 12.3406 205.347 11.3924 204.541 10.586C203.757 9.75916 202.765 9.34479 201.565 9.34479H196.529V9.34665ZM196.529 20.3872V29.8599H193.521V6.47218H201.499C203.527 6.47218 205.248 7.14787 206.666 8.49738C208.105 9.84688 208.824 11.4913 208.824 13.4288C208.824 15.411 208.105 17.0667 206.666 18.3938C205.27 19.7227 203.547 20.3854 201.499 20.3854H196.529V20.3872Z" fill="white"/>
<path id="Fill 3" fill-rule="evenodd" clip-rule="evenodd" d="M211.864 24.9602C211.864 25.7442 212.197 26.3975 212.862 26.9201C213.527 27.4427 214.306 27.704 215.2 27.704C216.465 27.704 217.591 27.2354 218.584 26.3004C219.576 25.3634 220.071 24.264 220.071 23.0022C219.133 22.2612 217.825 21.8916 216.147 21.8916C214.925 21.8916 213.907 22.1866 213.09 22.7745C212.273 23.3623 211.864 24.0886 211.864 24.9602ZM215.756 13.3317C217.98 13.3317 219.735 13.9253 221.022 15.1124C222.308 16.2995 222.95 17.9271 222.95 19.9952V29.8599H220.073V27.6387H219.942C218.699 29.4677 217.042 30.3825 214.972 30.3825C213.206 30.3825 211.728 29.8599 210.541 28.8146C209.353 27.7694 208.759 26.4628 208.759 24.8949C208.759 23.2393 209.385 21.9232 210.638 20.9434C211.892 19.9635 213.565 19.4726 215.658 19.4726C217.444 19.4726 218.916 19.7993 220.071 20.4525V19.7657C220.071 18.7204 219.656 17.8338 218.829 17.104C217.999 16.3742 217.031 16.0102 215.919 16.0102C214.239 16.0102 212.911 16.7176 211.93 18.1343L209.28 16.4675C210.741 14.377 212.899 13.3317 215.756 13.3317Z" fill="white"/>
<path id="Fill 5" fill-rule="evenodd" clip-rule="evenodd" d="M239.463 13.8543L229.424 36.9154H226.318L230.046 28.8464L223.44 13.8543H226.71L231.484 25.3522H231.55L236.193 13.8543H239.463Z" fill="white"/>
</g>
<g id="G">
<path id="Fill 8" fill-rule="evenodd" clip-rule="evenodd" d="M184.373 18.3452C184.373 17.3989 184.293 16.4861 184.141 15.6126H171.454V20.7885H178.72C178.408 22.4757 177.465 23.9112 176.033 24.8725V28.2341H180.37C182.91 25.8935 184.373 22.4348 184.373 18.3452Z" fill="#4285F4"/>
<path id="Fill 10" fill-rule="evenodd" clip-rule="evenodd" d="M171.454 31.4782C175.084 31.4782 178.141 30.2873 180.37 28.2341L176.033 24.8725C174.826 25.6844 173.272 26.1585 171.454 26.1585C167.944 26.1585 164.966 23.7955 163.901 20.6112H159.433V24.0736C161.647 28.4637 166.197 31.4782 171.454 31.4782Z" fill="#34A853"/>
<path id="Fill 12" fill-rule="evenodd" clip-rule="evenodd" d="M163.901 20.6111C163.628 19.7992 163.479 18.9331 163.479 18.0391C163.479 17.145 163.628 16.2789 163.901 15.467V12.0045H159.433C158.518 13.8188 158 15.8683 158 18.0391C158 20.2098 158.518 22.2595 159.433 24.0736L163.901 20.6111Z" fill="#FABB05"/>
<path id="Fill 14" fill-rule="evenodd" clip-rule="evenodd" d="M171.454 9.91964C173.436 9.91964 175.213 10.6009 176.615 11.9355V11.9374L180.455 8.10163C178.123 5.93272 175.082 4.60001 171.454 4.60001C166.197 4.60001 161.647 7.61447 159.433 12.0046L163.901 15.467C164.966 12.2827 167.944 9.91964 171.454 9.91964Z" fill="#E94235"/>
</g>
</g>
</g>
</g>
</svg>
