<svg width="137" height="21" viewBox="0 0 137 21" fill="none" xmlns="http://www.w3.org/2000/svg">
<g id="en_order_with_Pay_NBG">
<path id="Left Text" d="M7.46225 15.2566C6.60892 15.2566 5.81959 15.1019 5.09425 14.7926C4.37958 14.4833 3.75558 14.0566 3.22225 13.5126C2.68892 12.9579 2.27292 12.3233 1.97425 11.6086C1.67558 10.8833 1.52625 10.1046 1.52625 9.27261C1.52625 8.44061 1.67558 7.66728 1.97425 6.95261C2.27292 6.22728 2.68892 5.59261 3.22225 5.04861C3.75558 4.49394 4.37958 4.06194 5.09425 3.75261C5.81959 3.44328 6.60892 3.28861 7.46225 3.28861C8.31559 3.28861 9.09959 3.44328 9.81425 3.75261C10.5289 4.06194 11.1529 4.49394 11.6863 5.04861C12.2303 5.59261 12.6463 6.22728 12.9343 6.95261C13.2329 7.66728 13.3823 8.44061 13.3823 9.27261C13.3823 10.1046 13.2329 10.8833 12.9343 11.6086C12.6463 12.3233 12.2303 12.9579 11.6863 13.5126C11.1529 14.0566 10.5289 14.4833 9.81425 14.7926C9.09959 15.1019 8.31559 15.2566 7.46225 15.2566ZM7.46225 13.5926C8.24092 13.5926 8.93959 13.4113 9.55825 13.0486C10.1876 12.6859 10.6889 12.1793 11.0623 11.5286C11.4356 10.8779 11.6223 10.1259 11.6223 9.27261C11.6223 8.40861 11.4356 7.65661 11.0623 7.01661C10.6889 6.36594 10.1876 5.85928 9.55825 5.49661C8.93959 5.13394 8.24092 4.95261 7.46225 4.95261C6.69425 4.95261 5.99559 5.13394 5.36625 5.49661C4.73692 5.85928 4.23559 6.36594 3.86225 7.01661C3.48892 7.65661 3.30225 8.40861 3.30225 9.27261C3.30225 10.1259 3.48892 10.8779 3.86225 11.5286C4.23559 12.1793 4.73692 12.6859 5.36625 13.0486C5.99559 13.4113 6.69425 13.5926 7.46225 13.5926ZM15.2768 15.0006V6.84061H16.9088V8.04061H17.0048C17.1328 7.76328 17.3141 7.51794 17.5488 7.30461C17.7941 7.09128 18.0714 6.92061 18.3808 6.79261C18.7008 6.66461 19.0314 6.60061 19.3728 6.60061C19.5968 6.60061 19.7834 6.61661 19.9328 6.64861C20.0928 6.66994 20.2368 6.70728 20.3648 6.76061V8.55261C20.1621 8.46728 19.9541 8.39794 19.7408 8.34461C19.5381 8.29128 19.3248 8.26461 19.1008 8.26461C18.6954 8.26461 18.3328 8.37661 18.0128 8.60061C17.7034 8.81394 17.4581 9.10194 17.2768 9.46461C17.0954 9.82728 17.0048 10.2326 17.0048 10.6806V15.0006H15.2768ZM24.8523 15.2566C24.1163 15.2566 23.4496 15.0699 22.8523 14.6966C22.2549 14.3233 21.7856 13.8113 21.4443 13.1606C21.1029 12.5099 20.9323 11.7633 20.9323 10.9206C20.9323 10.0779 21.1029 9.33128 21.4443 8.68061C21.7856 8.02994 22.2549 7.51794 22.8523 7.14461C23.4496 6.77128 24.1163 6.58461 24.8523 6.58461C25.2789 6.58461 25.6629 6.64861 26.0043 6.77661C26.3456 6.90461 26.6389 7.07528 26.8843 7.28861C27.1403 7.49128 27.3376 7.70994 27.4763 7.94461H27.5723L27.4763 6.80861V3.54461H29.1883V15.0006H27.5723V13.9126H27.4763C27.3376 14.1366 27.1403 14.3553 26.8843 14.5686C26.6389 14.7713 26.3456 14.9366 26.0043 15.0646C25.6629 15.1926 25.2789 15.2566 24.8523 15.2566ZM25.1083 13.6726C25.5349 13.6726 25.9349 13.5606 26.3083 13.3366C26.6923 13.1126 26.9963 12.7979 27.2203 12.3926C27.4549 11.9766 27.5723 11.4859 27.5723 10.9206C27.5723 10.3553 27.4549 9.86994 27.2203 9.46461C26.9963 9.04861 26.6923 8.72861 26.3083 8.50461C25.9349 8.28061 25.5349 8.16861 25.1083 8.16861C24.6816 8.16861 24.2816 8.28061 23.9083 8.50461C23.5349 8.72861 23.2309 9.04861 22.9963 9.46461C22.7616 9.86994 22.6443 10.3553 22.6443 10.9206C22.6443 11.4753 22.7616 11.9606 22.9963 12.3766C23.2309 12.7926 23.5349 13.1126 23.9083 13.3366C24.2816 13.5606 24.6816 13.6726 25.1083 13.6726ZM35.0235 15.2566C34.2235 15.2566 33.5088 15.0699 32.8795 14.6966C32.2502 14.3233 31.7542 13.8113 31.3915 13.1606C31.0395 12.5099 30.8635 11.7686 30.8635 10.9366C30.8635 10.1579 31.0342 9.43794 31.3755 8.77661C31.7168 8.11528 32.1915 7.58728 32.7995 7.19261C33.4182 6.78728 34.1275 6.58461 34.9275 6.58461C35.7702 6.58461 36.4848 6.76594 37.0715 7.12861C37.6688 7.49128 38.1222 7.98728 38.4315 8.61661C38.7408 9.24594 38.8955 9.95528 38.8955 10.7446C38.8955 10.8619 38.8902 10.9686 38.8795 11.0646C38.8795 11.1606 38.8742 11.2353 38.8635 11.2886H32.5595C32.6022 11.7366 32.7142 12.1259 32.8955 12.4566C33.1302 12.8726 33.4395 13.1873 33.8235 13.4006C34.2075 13.6139 34.6235 13.7206 35.0715 13.7206C35.6155 13.7206 36.0688 13.5979 36.4315 13.3526C36.8048 13.0966 37.0982 12.7819 37.3115 12.4086L38.7355 13.0966C38.3835 13.7366 37.9035 14.2593 37.2955 14.6646C36.6875 15.0593 35.9302 15.2566 35.0235 15.2566ZM32.6555 9.99261H37.1835C37.1728 9.78994 37.1195 9.57661 37.0235 9.35261C36.9275 9.11794 36.7888 8.90461 36.6075 8.71261C36.4262 8.52061 36.1968 8.36594 35.9195 8.24861C35.6422 8.12061 35.3168 8.05661 34.9435 8.05661C34.4742 8.05661 34.0582 8.17928 33.6955 8.42461C33.3328 8.65928 33.0502 8.98994 32.8475 9.41661C32.7622 9.59794 32.6982 9.78994 32.6555 9.99261ZM40.6486 15.0006V6.84061H42.2806V8.04061H42.3766C42.5046 7.76328 42.686 7.51794 42.9206 7.30461C43.166 7.09128 43.4433 6.92061 43.7526 6.79261C44.0726 6.66461 44.4033 6.60061 44.7446 6.60061C44.9686 6.60061 45.1553 6.61661 45.3046 6.64861C45.4646 6.66994 45.6086 6.70728 45.7366 6.76061V8.55261C45.534 8.46728 45.326 8.39794 45.1126 8.34461C44.91 8.29128 44.6966 8.26461 44.4726 8.26461C44.0673 8.26461 43.7046 8.37661 43.3846 8.60061C43.0753 8.81394 42.83 9.10194 42.6486 9.46461C42.4673 9.82728 42.3766 10.2326 42.3766 10.6806V15.0006H40.6486ZM52.8169 15.0006L50.2089 6.84061H52.0809L53.7609 12.7126H53.8249L55.6649 6.84061H57.4409L59.2809 12.7126H59.3449L61.0249 6.84061H62.8649L60.2409 15.0006H58.4329L56.5449 9.09661H56.4809L54.6089 15.0006H52.8169ZM64.2579 15.0006V6.84061H65.9859V15.0006H64.2579ZM65.1219 5.64061C64.8019 5.64061 64.5245 5.52861 64.2899 5.30461C64.0659 5.06994 63.9539 4.79261 63.9539 4.47261C63.9539 4.14194 64.0659 3.86994 64.2899 3.65661C64.5245 3.43261 64.8019 3.32061 65.1219 3.32061C65.4525 3.32061 65.7299 3.43261 65.9539 3.65661C66.1779 3.86994 66.2899 4.14194 66.2899 4.47261C66.2899 4.79261 66.1779 5.06994 65.9539 5.30461C65.7299 5.52861 65.4525 5.64061 65.1219 5.64061ZM67.6417 6.84061H69.0657V4.53661H70.7937V6.84061H72.7937V8.34461H70.7937V12.2646C70.7937 12.6699 70.8737 12.9793 71.0337 13.1926C71.2044 13.4059 71.4871 13.5126 71.8817 13.5126C72.0737 13.5126 72.2444 13.4859 72.3937 13.4326C72.5431 13.3686 72.6924 13.2939 72.8417 13.2086V14.8886C72.6604 14.9633 72.4684 15.0219 72.2657 15.0646C72.0631 15.1073 71.8231 15.1286 71.5457 15.1286C70.7884 15.1286 70.1857 14.9099 69.7377 14.4726C69.2897 14.0246 69.0657 13.4113 69.0657 12.6326V8.34461H67.6417V6.84061ZM74.6799 15.0006V3.54461H76.4079V6.68061L76.3119 7.96061H76.4079C76.6319 7.56594 76.9732 7.24061 77.4319 6.98461C77.9012 6.71794 78.4185 6.58461 78.9839 6.58461C79.6665 6.58461 80.2319 6.72328 80.6799 7.00061C81.1385 7.27794 81.4799 7.66194 81.7039 8.15261C81.9279 8.63261 82.0399 9.19794 82.0399 9.84861V15.0006H80.3279V10.0726C80.3279 9.63528 80.2425 9.27794 80.0719 9.00061C79.9119 8.72328 79.6985 8.51528 79.4319 8.37661C79.1652 8.23794 78.8665 8.16861 78.5359 8.16861C78.1199 8.16861 77.7519 8.28594 77.4319 8.52061C77.1119 8.75528 76.8612 9.06461 76.6799 9.44861C76.4985 9.82194 76.4079 10.2219 76.4079 10.6486V15.0006H74.6799Z" fill="white"/>
<g id="GPay (Dark)">
<g id="GPay">
<g id="Pay">
<path id="Fill 1" fill-rule="evenodd" clip-rule="evenodd" d="M111.356 3.42339V8.16175H114.278C114.974 8.16175 115.55 7.92781 116.005 7.45993C116.473 6.99313 116.707 6.43644 116.707 5.79203C116.707 5.16061 116.473 4.61041 116.005 4.14254C115.55 3.66274 114.974 3.4223 114.278 3.4223H111.356V3.42339ZM111.356 9.82966V15.3262H109.611V1.75549H114.24C115.417 1.75549 116.415 2.14756 117.238 2.93061C118.073 3.71365 118.491 4.66782 118.491 5.79203C118.491 6.94224 118.073 7.90291 117.238 8.67296C116.428 9.44409 115.429 9.82858 114.24 9.82858H111.356V9.82966Z" fill="white"/>
<path id="Fill 3" fill-rule="evenodd" clip-rule="evenodd" d="M120.255 12.4831C120.255 12.9379 120.448 13.317 120.834 13.6203C121.22 13.9235 121.672 14.0752 122.19 14.0752C122.924 14.0752 123.578 13.8032 124.153 13.2607C124.729 12.717 125.017 12.0791 125.017 11.3469C124.472 10.917 123.713 10.7025 122.74 10.7025C122.031 10.7025 121.44 10.8736 120.966 11.2148C120.492 11.5559 120.255 11.9773 120.255 12.4831M122.513 5.73566C123.803 5.73566 124.821 6.08007 125.569 6.76889C126.314 7.45771 126.687 8.40213 126.687 9.60216V15.3261H125.018V14.0373H124.942C124.221 15.0985 123.259 15.6294 122.058 15.6294C121.033 15.6294 120.176 15.3261 119.487 14.7196C118.797 14.1131 118.453 13.3549 118.453 12.4452C118.453 11.4845 118.816 10.7208 119.543 10.1523C120.271 9.58375 121.241 9.2989 122.456 9.2989C123.492 9.2989 124.346 9.48844 125.017 9.86751V9.46894C125.017 8.86243 124.776 8.34798 124.296 7.92451C123.814 7.50103 123.252 7.28984 122.607 7.28984C121.633 7.28984 120.862 7.70032 120.293 8.52235L118.755 7.55519C119.603 6.34217 120.855 5.73566 122.513 5.73566" fill="white"/>
<path id="Fill 5" fill-rule="evenodd" clip-rule="evenodd" d="M136.269 6.03894L130.443 19.4201H128.641L130.804 14.738L126.971 6.03894H128.869L131.639 12.7106H131.677L134.371 6.03894H136.269Z" fill="white"/>
</g>
<g id="G">
<path id="Fill 8" fill-rule="evenodd" clip-rule="evenodd" d="M104.303 8.64473C104.303 8.09563 104.256 7.56601 104.168 7.05914H96.8065V10.0625H101.023C100.842 11.0414 100.294 11.8744 99.4639 12.4322V14.3828H101.98C103.454 13.0246 104.303 11.0177 104.303 8.64473" fill="#4285F4"/>
<path id="Fill 10" fill-rule="evenodd" clip-rule="evenodd" d="M96.8065 16.2651C98.9131 16.2651 100.687 15.5741 101.98 14.3828L99.4639 12.4322C98.7635 12.9033 97.8614 13.1784 96.8065 13.1784C94.7703 13.1784 93.042 11.8073 92.424 9.95959H89.8316V11.9687C91.1164 14.516 93.7565 16.2651 96.8065 16.2651" fill="#34A853"/>
<path id="Fill 12" fill-rule="evenodd" clip-rule="evenodd" d="M92.424 9.9596C92.2657 9.48847 92.179 8.98593 92.179 8.46715C92.179 7.94837 92.2657 7.44583 92.424 6.9747V4.96564H89.8316C89.3003 6.01837 89 7.20756 89 8.46715C89 9.72674 89.3003 10.916 89.8316 11.9687L92.424 9.9596Z" fill="#FABB05"/>
<path id="Fill 14" fill-rule="evenodd" clip-rule="evenodd" d="M96.8065 3.75583C97.9568 3.75583 98.9879 4.15115 99.8011 4.92553V4.92661L102.029 2.70094C100.676 1.44243 98.912 0.669128 96.8065 0.669128C93.7565 0.669128 91.1164 2.41826 89.8316 4.9656L92.424 6.97467C93.042 5.12698 94.7703 3.75583 96.8065 3.75583" fill="#E94235"/>
</g>
</g>
</g>
</g>
</svg>
