<svg width="118" height="21" viewBox="0 0 118 21" fill="none" xmlns="http://www.w3.org/2000/svg">
<g id="en_pay_with_Pay_NBG">
<path id="Left Text" d="M1.51163 15.0006V3.54461H5.44763C6.14096 3.54461 6.77029 3.69394 7.33563 3.99261C7.90096 4.28061 8.34896 4.69128 8.67963 5.22461C9.02096 5.74728 9.19163 6.35528 9.19163 7.04861C9.19163 7.73128 9.02096 8.33928 8.67963 8.87261C8.34896 9.40594 7.90096 9.82194 7.33563 10.1206C6.77029 10.4086 6.14096 10.5526 5.44763 10.5526H3.27163V15.0006H1.51163ZM3.27163 8.88861H5.49563C5.91163 8.88861 6.26363 8.80328 6.55163 8.63261C6.83963 8.45128 7.05829 8.22194 7.20763 7.94461C7.36763 7.65661 7.44763 7.35794 7.44763 7.04861C7.44763 6.73928 7.36763 6.44594 7.20763 6.16861C7.05829 5.89128 6.83963 5.66194 6.55163 5.48061C6.26363 5.29928 5.91163 5.20861 5.49563 5.20861H3.27163V8.88861ZM13.1055 15.2566C12.5188 15.2566 11.9962 15.1393 11.5375 14.9046C11.0895 14.6699 10.7322 14.3499 10.4655 13.9446C10.2095 13.5286 10.0815 13.0539 10.0815 12.5206C10.0815 11.9339 10.2308 11.4379 10.5295 11.0326C10.8388 10.6273 11.2495 10.3179 11.7615 10.1046C12.2735 9.89128 12.8388 9.78461 13.4575 9.78461C13.7988 9.78461 14.1135 9.81128 14.4015 9.86461C14.7002 9.90728 14.9562 9.96061 15.1695 10.0246C15.3935 10.0886 15.5695 10.1579 15.6975 10.2326V9.80061C15.6975 9.26728 15.5055 8.84061 15.1215 8.52061C14.7375 8.20061 14.2415 8.04061 13.6335 8.04061C13.2175 8.04061 12.8228 8.13661 12.4495 8.32861C12.0762 8.50994 11.7775 8.76061 11.5535 9.08061L10.3695 8.16861C10.6042 7.83794 10.8868 7.55528 11.2175 7.32061C11.5588 7.08594 11.9375 6.90461 12.3535 6.77661C12.7802 6.64861 13.2228 6.58461 13.6815 6.58461C14.8655 6.58461 15.7775 6.87794 16.4175 7.46461C17.0575 8.04061 17.3775 8.85128 17.3775 9.89661V15.0006H15.6975V13.9926H15.6015C15.4628 14.2059 15.2708 14.4086 15.0255 14.6006C14.7908 14.7926 14.5082 14.9473 14.1775 15.0646C13.8575 15.1926 13.5002 15.2566 13.1055 15.2566ZM13.4095 13.8486C13.8575 13.8486 14.2522 13.7419 14.5935 13.5286C14.9455 13.3153 15.2175 13.0379 15.4095 12.6966C15.6015 12.3446 15.6975 11.9659 15.6975 11.5606C15.4628 11.4219 15.1748 11.3099 14.8335 11.2246C14.5028 11.1286 14.1508 11.0806 13.7775 11.0806C13.0735 11.0806 12.5722 11.2193 12.2735 11.4966C11.9748 11.7739 11.8255 12.1206 11.8255 12.5366C11.8255 12.9206 11.9695 13.2353 12.2575 13.4806C12.5455 13.7259 12.9295 13.8486 13.4095 13.8486ZM22.0576 18.0566C22.0256 18.1313 21.9883 18.2059 21.9456 18.2806C21.9136 18.3659 21.8923 18.4246 21.8816 18.4566H20.0416C20.095 18.3393 20.1696 18.1739 20.2656 17.9606C20.3723 17.7473 20.4736 17.5339 20.5696 17.3206C20.6336 17.1819 20.6976 17.0326 20.7616 16.8726C20.8363 16.7126 20.911 16.5473 20.9856 16.3766C21.071 16.2059 21.151 16.0406 21.2256 15.8806L21.8336 14.5526L18.4256 6.84061H20.3456L22.6816 12.4086H22.7616L25.0176 6.84061H26.9216L22.6976 16.5686C22.623 16.7499 22.5376 16.9419 22.4416 17.1446C22.3563 17.3473 22.2763 17.5286 22.2016 17.6886C22.1376 17.8593 22.0896 17.9819 22.0576 18.0566ZM33.8169 15.0006L31.2089 6.84061H33.0809L34.7609 12.7126H34.8249L36.6649 6.84061H38.4409L40.2809 12.7126H40.3449L42.0249 6.84061H43.8649L41.2409 15.0006H39.4329L37.5449 9.09661H37.4809L35.6089 15.0006H33.8169ZM45.2579 15.0006V6.84061H46.9859V15.0006H45.2579ZM46.1219 5.64061C45.8019 5.64061 45.5245 5.52861 45.2899 5.30461C45.0659 5.06994 44.9539 4.79261 44.9539 4.47261C44.9539 4.14194 45.0659 3.86994 45.2899 3.65661C45.5245 3.43261 45.8019 3.32061 46.1219 3.32061C46.4525 3.32061 46.7299 3.43261 46.9539 3.65661C47.1779 3.86994 47.2899 4.14194 47.2899 4.47261C47.2899 4.79261 47.1779 5.06994 46.9539 5.30461C46.7299 5.52861 46.4525 5.64061 46.1219 5.64061ZM48.6418 6.84061H50.0658V4.53661H51.7938V6.84061H53.7938V8.34461H51.7938V12.2646C51.7938 12.6699 51.8738 12.9793 52.0338 13.1926C52.2044 13.4059 52.4871 13.5126 52.8818 13.5126C53.0738 13.5126 53.2444 13.4859 53.3938 13.4326C53.5431 13.3686 53.6924 13.2939 53.8418 13.2086V14.8886C53.6604 14.9633 53.4684 15.0219 53.2658 15.0646C53.0631 15.1073 52.8231 15.1286 52.5458 15.1286C51.7884 15.1286 51.1858 14.9099 50.7378 14.4726C50.2898 14.0246 50.0658 13.4113 50.0658 12.6326V8.34461H48.6418V6.84061ZM55.6799 15.0006V3.54461H57.4079V6.68061L57.3119 7.96061H57.4079C57.6319 7.56594 57.9732 7.24061 58.4319 6.98461C58.9012 6.71794 59.4185 6.58461 59.9839 6.58461C60.6665 6.58461 61.2319 6.72328 61.6799 7.00061C62.1385 7.27794 62.4799 7.66194 62.7039 8.15261C62.9279 8.63261 63.0399 9.19794 63.0399 9.84861V15.0006H61.3279V10.0726C61.3279 9.63528 61.2425 9.27794 61.0719 9.00061C60.9119 8.72328 60.6985 8.51528 60.4319 8.37661C60.1652 8.23794 59.8665 8.16861 59.5359 8.16861C59.1199 8.16861 58.7519 8.28594 58.4319 8.52061C58.1119 8.75528 57.8612 9.06461 57.6799 9.44861C57.4985 9.82194 57.4079 10.2219 57.4079 10.6486V15.0006H55.6799Z" fill="white"/>
<g id="GPay (Dark)">
<g id="GPay">
<g id="Pay">
<path id="Fill 1" fill-rule="evenodd" clip-rule="evenodd" d="M92.3563 3.42339V8.16175H95.2784C95.9745 8.16175 96.5501 7.92781 97.0055 7.45993C97.4728 6.99313 97.707 6.43644 97.707 5.79203C97.707 5.16061 97.4728 4.61041 97.0055 4.14254C96.5501 3.66274 95.9745 3.4223 95.2784 3.4223H92.3563V3.42339ZM92.3563 9.82966V15.3262H90.6107V1.75549H95.2404C96.4169 1.75549 97.4154 2.14756 98.2383 2.93061C99.0732 3.71365 99.4906 4.66782 99.4906 5.79203C99.4906 6.94224 99.0731 7.90291 98.2383 8.67296C97.4283 9.44409 96.4287 9.82858 95.2404 9.82858H92.3563V9.82966Z" fill="white"/>
<path id="Fill 3" fill-rule="evenodd" clip-rule="evenodd" d="M101.255 12.4831C101.255 12.9379 101.448 13.317 101.834 13.6203C102.22 13.9235 102.672 14.0752 103.19 14.0752C103.924 14.0752 104.578 13.8032 105.153 13.2607C105.729 12.717 106.017 12.0791 106.017 11.3469C105.472 10.917 104.713 10.7025 103.74 10.7025C103.031 10.7025 102.44 10.8736 101.966 11.2148C101.492 11.5559 101.255 11.9773 101.255 12.4831M103.513 5.73566C104.803 5.73566 105.821 6.08007 106.569 6.76889C107.314 7.45771 107.687 8.40213 107.687 9.60216V15.3261H106.018V14.0373H105.942C105.221 15.0985 104.259 15.6294 103.058 15.6294C102.033 15.6294 101.176 15.3261 100.487 14.7196C99.7975 14.1131 99.4527 13.3549 99.4527 12.4452C99.4527 11.4845 99.8158 10.7208 100.543 10.1523C101.271 9.58375 102.241 9.2989 103.456 9.2989C104.492 9.2989 105.346 9.48844 106.017 9.86751V9.46894C106.017 8.86243 105.776 8.34798 105.296 7.92451C104.814 7.50103 104.252 7.28984 103.607 7.28984C102.633 7.28984 101.862 7.70032 101.293 8.52235L99.7551 7.55519C100.603 6.34217 101.855 5.73566 103.513 5.73566" fill="white"/>
<path id="Fill 5" fill-rule="evenodd" clip-rule="evenodd" d="M117.269 6.03894L111.443 19.4201H109.641L111.804 14.738L107.971 6.03894H109.869L112.639 12.7106H112.677L115.371 6.03894H117.269Z" fill="white"/>
</g>
<g id="G">
<path id="Fill 8" fill-rule="evenodd" clip-rule="evenodd" d="M85.3029 8.64473C85.3029 8.09563 85.2562 7.56601 85.1684 7.05914H77.8065V10.0625H82.0231C81.842 11.0414 81.2944 11.8744 80.4639 12.4322V14.3828H82.9804C84.4539 13.0246 85.3029 11.0177 85.3029 8.64473" fill="#4285F4"/>
<path id="Fill 10" fill-rule="evenodd" clip-rule="evenodd" d="M77.8065 16.2651C79.9131 16.2651 81.6869 15.5741 82.9804 14.3828L80.4639 12.4322C79.7635 12.9033 78.8614 13.1784 77.8065 13.1784C75.7703 13.1784 74.042 11.8073 73.424 9.95959H70.8316V11.9687C72.1164 14.516 74.7565 16.2651 77.8065 16.2651" fill="#34A853"/>
<path id="Fill 12" fill-rule="evenodd" clip-rule="evenodd" d="M73.424 9.9596C73.2657 9.48847 73.179 8.98593 73.179 8.46715C73.179 7.94837 73.2657 7.44583 73.424 6.9747V4.96564H70.8316C70.3003 6.01837 70 7.20756 70 8.46715C70 9.72674 70.3003 10.916 70.8316 11.9687L73.424 9.9596Z" fill="#FABB05"/>
<path id="Fill 14" fill-rule="evenodd" clip-rule="evenodd" d="M77.8065 3.75583C78.9568 3.75583 79.9879 4.15115 80.8011 4.92553V4.92661L83.0292 2.70094C81.6761 1.44243 79.912 0.669128 77.8065 0.669128C74.7565 0.669128 72.1164 2.41826 70.8316 4.9656L73.424 6.97467C74.042 5.12698 75.7703 3.75583 77.8065 3.75583" fill="#E94235"/>
</g>
</g>
</g>
</g>
</svg>
