<svg width="206" height="38" viewBox="0 0 206 38" fill="none" xmlns="http://www.w3.org/2000/svg">
<g id="en_pay_with_Light">
<path id="Text" d="M2.38285 30V9.952H9.27085C10.4842 9.952 11.5855 10.2133 12.5748 10.736C13.5642 11.2587 14.3482 11.9773 14.9268 12.892C15.5242 13.8067 15.8228 14.8707 15.8228 16.084C15.8228 17.2973 15.5242 18.3707 14.9268 19.304C14.3482 20.2187 13.5642 20.9373 12.5748 21.46C11.5855 21.964 10.4842 22.216 9.27085 22.216H5.46285V30H2.38285ZM9.35485 12.864H5.46285V19.304H9.35485C10.0828 19.304 10.6988 19.1547 11.2028 18.856C11.7068 18.5387 12.0895 18.1373 12.3508 17.652C12.6308 17.148 12.7708 16.6253 12.7708 16.084C12.7708 15.5427 12.6308 15.0293 12.3508 14.544C12.0895 14.0587 11.7068 13.6573 11.2028 13.34C10.6988 13.0227 10.0828 12.864 9.35485 12.864ZM22.7096 30.448C21.683 30.448 20.7683 30.252 19.9656 29.86C19.163 29.4493 18.5376 28.88 18.0896 28.152C17.6416 27.424 17.4176 26.5933 17.4176 25.66C17.4176 24.652 17.679 23.7933 18.2016 23.084C18.743 22.356 19.4616 21.8053 20.3576 21.432C21.2536 21.0587 22.243 20.872 23.3256 20.872C24.2216 20.872 25.0056 20.956 25.6776 21.124C26.3683 21.292 26.891 21.4693 27.2456 21.656V20.9C27.2456 19.9667 26.9096 19.22 26.2376 18.66C25.5656 18.1 24.6976 17.82 23.6336 17.82C22.9056 17.82 22.215 17.988 21.5616 18.324C20.9083 18.6413 20.3856 19.08 19.9936 19.64L17.9216 18.044C18.5376 17.1853 19.3496 16.5133 20.3576 16.028C21.3843 15.524 22.5043 15.272 23.7176 15.272C25.7896 15.272 27.3856 15.7853 28.5056 16.812C29.6256 17.82 30.1856 19.2387 30.1856 21.068V30H27.2456V28.236H27.0776C26.7043 28.8147 26.1443 29.328 25.3976 29.776C24.651 30.224 23.755 30.448 22.7096 30.448ZM23.2416 27.984C24.0256 27.984 24.7163 27.7973 25.3136 27.424C25.911 27.0507 26.3776 26.5653 26.7136 25.968C27.0683 25.352 27.2456 24.6893 27.2456 23.98C26.8163 23.7373 26.3123 23.5413 25.7336 23.392C25.155 23.224 24.539 23.14 23.8856 23.14C22.6536 23.14 21.7763 23.392 21.2536 23.896C20.731 24.3813 20.4696 24.9787 20.4696 25.688C20.4696 26.36 20.7216 26.9107 21.2256 27.34C21.7296 27.7693 22.4016 27.984 23.2416 27.984ZM38.4133 35.348C38.3573 35.4973 38.292 35.6373 38.2173 35.768C38.1613 35.8987 38.124 35.992 38.1053 36.048H34.8853C34.9787 35.8427 35.1093 35.544 35.2773 35.152C35.464 34.7787 35.6413 34.4147 35.8093 34.06C35.9773 33.7053 36.1547 33.304 36.3413 32.856C36.5467 32.408 36.752 31.9693 36.9573 31.54L38.0213 29.216L32.0573 15.72H35.4173L39.5053 25.464H39.6453L43.5933 15.72H46.9253L39.5333 32.744C39.328 33.2293 39.104 33.7333 38.8613 34.256C38.6373 34.7973 38.488 35.1613 38.4133 35.348ZM59.067 30L54.503 15.72H57.779L60.719 25.996H60.831L64.051 15.72H67.159L70.379 25.996H70.491L73.431 15.72H76.651L72.059 30H68.895L65.591 19.668H65.479L62.203 30H59.067ZM80.6383 13.62C80.0783 13.62 79.5929 13.424 79.1823 13.032C78.7903 12.6213 78.5943 12.136 78.5943 11.576C78.5943 11.016 78.7903 10.54 79.1823 10.148C79.5929 9.756 80.0783 9.56 80.6383 9.56C81.1983 9.56 81.6743 9.756 82.0663 10.148C82.4769 10.54 82.6823 11.016 82.6823 11.576C82.6823 12.136 82.4769 12.6213 82.0663 13.032C81.6743 13.424 81.1983 13.62 80.6383 13.62ZM79.1263 30V15.72H82.1503V30H79.1263ZM87.5776 25.856V18.352H85.0856V15.72H87.5776V11.688H90.6016V15.72H94.1016V18.352H90.6016V25.212C90.6016 25.9213 90.7416 26.4627 91.0216 26.836C91.3202 27.2093 91.8149 27.396 92.5056 27.396C92.8602 27.396 93.1589 27.3493 93.4016 27.256C93.6629 27.1627 93.9242 27.032 94.1856 26.864V29.804C93.8682 29.9347 93.5322 30.0373 93.1776 30.112C92.8229 30.1867 92.4029 30.224 91.9176 30.224C90.5922 30.224 89.5376 29.8413 88.7536 29.076C87.9696 28.292 87.5776 27.2187 87.5776 25.856ZM97.4398 30V9.952H100.464V15.44L100.296 17.68H100.464C100.856 16.9893 101.453 16.42 102.256 15.972C103.077 15.5053 103.982 15.272 104.972 15.272C106.745 15.272 108.08 15.804 108.976 16.868C109.872 17.9133 110.32 19.2853 110.32 20.984V30H107.324V21.376C107.324 20.2187 107.016 19.3787 106.4 18.856C105.802 18.3147 105.065 18.044 104.188 18.044C103.46 18.044 102.816 18.2493 102.256 18.66C101.696 19.0707 101.257 19.612 100.94 20.284C100.622 20.9373 100.464 21.6373 100.464 22.384V30H97.4398Z" fill="#3C4043"/>
<g id="GPay Logo (Light)">
<g id="GPay">
<g id="Pay">
<path id="Fill 1" fill-rule="evenodd" clip-rule="evenodd" d="M162.529 9.44664V17.6128H167.565C168.765 17.6128 169.757 17.2096 170.541 16.4032C171.347 15.5988 171.75 14.6394 171.75 13.5288C171.75 12.4406 171.347 11.4924 170.541 10.686C169.757 9.85915 168.765 9.44478 167.565 9.44478H162.529V9.44664ZM162.529 20.4872V29.9599H159.521V6.57217H167.499C169.527 6.57217 171.248 7.24786 172.666 8.59737C174.105 9.94688 174.824 11.5913 174.824 13.5288C174.824 15.511 174.105 17.1667 172.666 18.4938C171.27 19.8227 169.547 20.4854 167.499 20.4854H162.529V20.4872Z" fill="#5F6368"/>
<path id="Fill 3" fill-rule="evenodd" clip-rule="evenodd" d="M177.864 25.0602C177.864 25.8442 178.197 26.4975 178.862 27.0201C179.527 27.5427 180.306 27.804 181.2 27.804C182.465 27.804 183.591 27.3354 184.584 26.4004C185.576 25.4634 186.071 24.364 186.071 23.1022C185.133 22.3612 183.825 21.9916 182.147 21.9916C180.925 21.9916 179.907 22.2865 179.09 22.8745C178.273 23.4623 177.864 24.1886 177.864 25.0602ZM181.756 13.4317C183.98 13.4317 185.735 14.0252 187.022 15.2124C188.308 16.3995 188.95 18.0271 188.95 20.0952V29.9599H186.073V27.7387H185.942C184.699 29.5677 183.042 30.4825 180.972 30.4825C179.206 30.4825 177.728 29.9599 176.541 28.9146C175.353 27.8694 174.759 26.5628 174.759 24.9949C174.759 23.3393 175.385 22.0232 176.638 21.0434C177.892 20.0635 179.565 19.5726 181.658 19.5726C183.444 19.5726 184.916 19.8992 186.071 20.5525V19.8656C186.071 18.8204 185.656 17.9338 184.829 17.204C183.999 16.4741 183.031 16.1102 181.919 16.1102C180.239 16.1102 178.911 16.8176 177.93 18.2343L175.28 16.5675C176.741 14.4769 178.899 13.4317 181.756 13.4317Z" fill="#5F6368"/>
<path id="Fill 5" fill-rule="evenodd" clip-rule="evenodd" d="M205.463 13.9543L195.424 37.0154H192.318L196.046 28.9464L189.44 13.9543H192.71L197.484 25.4522H197.55L202.193 13.9543H205.463Z" fill="#5F6368"/>
</g>
<g id="G">
<path id="Fill 8" fill-rule="evenodd" clip-rule="evenodd" d="M150.373 18.4452C150.373 17.4989 150.293 16.5861 150.141 15.7126H137.454V20.8885H144.72C144.408 22.5757 143.465 24.0112 142.033 24.9725V28.3341H146.37C148.91 25.9935 150.373 22.5348 150.373 18.4452Z" fill="#4285F4"/>
<path id="Fill 10" fill-rule="evenodd" clip-rule="evenodd" d="M137.454 31.5782C141.084 31.5782 144.141 30.3873 146.37 28.3341L142.033 24.9725C140.826 25.7844 139.272 26.2585 137.454 26.2585C133.944 26.2585 130.966 23.8955 129.901 20.7112H125.433V24.1736C127.647 28.5637 132.197 31.5782 137.454 31.5782Z" fill="#34A853"/>
<path id="Fill 12" fill-rule="evenodd" clip-rule="evenodd" d="M129.901 20.7111C129.628 19.8992 129.479 19.0331 129.479 18.139C129.479 17.245 129.628 16.3789 129.901 15.567V12.1045H125.433C124.518 13.9188 124 15.9683 124 18.139C124 20.3098 124.518 22.3595 125.433 24.1736L129.901 20.7111Z" fill="#FABB05"/>
<path id="Fill 14" fill-rule="evenodd" clip-rule="evenodd" d="M137.454 10.0196C139.436 10.0196 141.213 10.7009 142.615 12.0355V12.0374L146.455 8.20162C144.123 6.03271 141.082 4.7 137.454 4.7C132.197 4.7 127.647 7.71446 125.433 12.1046L129.901 15.567C130.966 12.3827 133.944 10.0196 137.454 10.0196Z" fill="#E94235"/>
</g>
</g>
</g>
</g>
</svg>
