<svg width="292" height="38" viewBox="0 0 292 38" fill="none" xmlns="http://www.w3.org/2000/svg">
<g id="en_subscribe_with_Dark">
<path id="Text" d="M8.87169 30.448C7.80769 30.448 6.79036 30.2427 5.81969 29.832C4.84903 29.4027 3.99036 28.7773 3.24369 27.956C2.51569 27.1347 1.97436 26.1173 1.61969 24.904L4.53169 23.728C4.83036 24.8107 5.35303 25.716 6.09969 26.444C6.84636 27.172 7.77969 27.536 8.89969 27.536C9.53436 27.536 10.1224 27.424 10.6637 27.2C11.2237 26.976 11.6717 26.6493 12.0077 26.22C12.3437 25.772 12.5117 25.2307 12.5117 24.596C12.5117 23.7187 12.185 23.0187 11.5317 22.496C10.8784 21.9547 9.83303 21.4227 8.39569 20.9L7.13569 20.452C6.40769 20.1907 5.67036 19.836 4.92369 19.388C4.19569 18.9213 3.58903 18.3333 3.10369 17.624C2.61836 16.896 2.37569 16.0093 2.37569 14.964C2.37569 13.9747 2.63703 13.0693 3.15969 12.248C3.70103 11.408 4.43836 10.7453 5.37169 10.26C6.32369 9.756 7.42503 9.504 8.67569 9.504C9.96369 9.504 11.037 9.73733 11.8957 10.204C12.773 10.652 13.4544 11.2027 13.9397 11.856C14.4437 12.4907 14.789 13.088 14.9757 13.648L12.2037 14.824C12.0917 14.4507 11.8864 14.0773 11.5877 13.704C11.3077 13.312 10.925 12.9947 10.4397 12.752C9.97303 12.4907 9.39436 12.36 8.70369 12.36C7.80769 12.36 7.03303 12.6027 6.37969 13.088C5.74503 13.5547 5.42769 14.1707 5.42769 14.936C5.42769 15.664 5.72636 16.252 6.32369 16.7C6.92103 17.148 7.78903 17.568 8.92769 17.96L10.2157 18.408C11.0744 18.688 11.9144 19.0707 12.7357 19.556C13.5757 20.0413 14.257 20.6853 14.7797 21.488C15.321 22.272 15.5917 23.2893 15.5917 24.54C15.5917 25.5667 15.3864 26.4533 14.9757 27.2C14.5837 27.9467 14.0517 28.5627 13.3797 29.048C12.7264 29.5147 11.9984 29.86 11.1957 30.084C10.4117 30.3267 9.63703 30.448 8.87169 30.448ZM23.719 30.448C21.9643 30.448 20.639 29.9253 19.743 28.88C18.8657 27.816 18.427 26.3787 18.427 24.568V15.72H21.451V24.148C21.451 25.3613 21.731 26.2573 22.291 26.836C22.8697 27.396 23.5883 27.676 24.447 27.676C25.2123 27.676 25.875 27.48 26.435 27.088C27.0137 26.6773 27.4523 26.1547 27.751 25.52C28.0683 24.8667 28.227 24.1573 28.227 23.392V15.72H31.223V30H28.395V28.068H28.227C27.8163 28.74 27.2003 29.3093 26.379 29.776C25.5763 30.224 24.6897 30.448 23.719 30.448ZM42.6972 30.448C41.5959 30.448 40.6439 30.2147 39.8412 29.748C39.0572 29.2627 38.4785 28.712 38.1052 28.096H37.9372V30H35.0812V9.952H38.1052V15.664L37.9372 17.652H38.1052C38.4785 17.036 39.0572 16.4853 39.8412 16C40.6439 15.5147 41.5959 15.272 42.6972 15.272C44.0039 15.272 45.1705 15.5987 46.1972 16.252C47.2239 16.9053 48.0359 17.8013 48.6332 18.94C49.2492 20.0787 49.5572 21.3853 49.5572 22.86C49.5572 24.3347 49.2492 25.6507 48.6332 26.808C48.0359 27.9467 47.2239 28.8427 46.1972 29.496C45.1705 30.1307 44.0039 30.448 42.6972 30.448ZM42.2492 27.676C42.9959 27.676 43.6959 27.48 44.3492 27.088C45.0025 26.696 45.5345 26.1453 45.9452 25.436C46.3559 24.708 46.5612 23.8493 46.5612 22.86C46.5612 21.8707 46.3559 21.0213 45.9452 20.312C45.5345 19.584 45.0025 19.024 44.3492 18.632C43.6959 18.24 42.9959 18.044 42.2492 18.044C41.5025 18.044 40.8025 18.24 40.1492 18.632C39.4959 19.024 38.9639 19.584 38.5532 20.312C38.1425 21.0213 37.9372 21.8707 37.9372 22.86C37.9372 23.8493 38.1425 24.708 38.5532 25.436C38.9639 26.1453 39.4959 26.696 40.1492 27.088C40.8025 27.48 41.5025 27.676 42.2492 27.676ZM57.7064 30.448C55.989 30.448 54.617 30.0747 53.5904 29.328C52.5637 28.5627 51.8544 27.6573 51.4624 26.612L54.1784 25.436C54.5144 26.2013 54.9997 26.7893 55.6344 27.2C56.269 27.592 56.9877 27.788 57.7904 27.788C58.537 27.788 59.181 27.6573 59.7224 27.396C60.2637 27.116 60.5344 26.668 60.5344 26.052C60.5344 25.4547 60.2637 25.016 59.7224 24.736C59.181 24.456 58.509 24.2133 57.7064 24.008L55.9984 23.616C55.3077 23.448 54.6637 23.1867 54.0664 22.832C53.469 22.4773 52.9837 22.02 52.6104 21.46C52.237 20.8813 52.0504 20.2093 52.0504 19.444C52.0504 18.604 52.3024 17.876 52.8064 17.26C53.3104 16.6253 53.973 16.14 54.7944 15.804C55.6344 15.4493 56.5397 15.272 57.5104 15.272C58.8357 15.272 59.993 15.5333 60.9824 16.056C61.9904 16.56 62.7277 17.3253 63.1944 18.352L60.5904 19.528C60.2544 18.8933 59.8157 18.4547 59.2744 18.212C58.7517 17.9507 58.173 17.82 57.5384 17.82C56.829 17.82 56.2317 17.9693 55.7464 18.268C55.2797 18.5667 55.0464 18.94 55.0464 19.388C55.0464 19.8733 55.2517 20.256 55.6624 20.536C56.0917 20.816 56.6144 21.04 57.2304 21.208L59.3024 21.712C60.7211 22.0667 61.785 22.608 62.4944 23.336C63.2037 24.0453 63.5584 24.9133 63.5584 25.94C63.5584 26.8547 63.297 27.6573 62.7744 28.348C62.2517 29.02 61.5424 29.5427 60.6464 29.916C59.769 30.2707 58.789 30.448 57.7064 30.448ZM73.2423 30.448C71.805 30.448 70.5356 30.1213 69.4343 29.468C68.333 28.8147 67.465 27.9187 66.8303 26.78C66.1956 25.6227 65.8783 24.316 65.8783 22.86C65.8783 21.404 66.1956 20.1067 66.8303 18.968C67.465 17.8107 68.333 16.9053 69.4343 16.252C70.5356 15.5987 71.805 15.272 73.2423 15.272C74.829 15.272 76.1636 15.6267 77.2463 16.336C78.3477 17.0453 79.1316 18.0067 79.5983 19.22L76.8543 20.34C76.201 18.8093 74.9783 18.044 73.1863 18.044C72.4023 18.044 71.6836 18.2493 71.0303 18.66C70.377 19.052 69.8543 19.612 69.4623 20.34C69.0703 21.0493 68.8743 21.8893 68.8743 22.86C68.8743 23.8307 69.0703 24.68 69.4623 25.408C69.8543 26.136 70.377 26.696 71.0303 27.088C71.6836 27.48 72.4023 27.676 73.1863 27.676C74.101 27.676 74.8756 27.4707 75.5103 27.06C76.145 26.6307 76.6396 26.052 76.9943 25.324L79.6823 26.5C79.1783 27.6387 78.3756 28.5813 77.2743 29.328C76.173 30.0747 74.829 30.448 73.2423 30.448ZM82.4382 30V15.72H85.2942V17.82H85.4622C85.7796 17.092 86.3209 16.4947 87.0862 16.028C87.8702 15.5427 88.7102 15.3 89.6062 15.3C89.9982 15.3 90.3249 15.328 90.5862 15.384C90.8662 15.44 91.1182 15.5053 91.3422 15.58V18.716C90.9876 18.5667 90.6236 18.4453 90.2502 18.352C89.8956 18.2587 89.5222 18.212 89.1302 18.212C88.4209 18.212 87.7862 18.408 87.2262 18.8C86.6849 19.1733 86.2556 19.6867 85.9382 20.34C85.6209 20.9747 85.4622 21.6747 85.4622 22.44V30H82.4382ZM95.7125 13.62C95.1525 13.62 94.6672 13.424 94.2565 13.032C93.8645 12.6213 93.6685 12.136 93.6685 11.576C93.6685 11.016 93.8645 10.54 94.2565 10.148C94.6672 9.756 95.1525 9.56 95.7125 9.56C96.2725 9.56 96.7485 9.756 97.1405 10.148C97.5512 10.54 97.7565 11.016 97.7565 11.576C97.7565 12.136 97.5512 12.6213 97.1405 13.032C96.7485 13.424 96.2725 13.62 95.7125 13.62ZM94.2005 30V15.72H97.2245V30H94.2005ZM108.893 30.448C107.791 30.448 106.839 30.2147 106.037 29.748C105.253 29.2627 104.674 28.712 104.301 28.096H104.133V30H101.277V9.952H104.301V15.664L104.133 17.652H104.301C104.674 17.036 105.253 16.4853 106.037 16C106.839 15.5147 107.791 15.272 108.893 15.272C110.199 15.272 111.366 15.5987 112.393 16.252C113.419 16.9053 114.231 17.8013 114.829 18.94C115.445 20.0787 115.753 21.3853 115.753 22.86C115.753 24.3347 115.445 25.6507 114.829 26.808C114.231 27.9467 113.419 28.8427 112.393 29.496C111.366 30.1307 110.199 30.448 108.893 30.448ZM108.445 27.676C109.191 27.676 109.891 27.48 110.545 27.088C111.198 26.696 111.73 26.1453 112.141 25.436C112.551 24.708 112.757 23.8493 112.757 22.86C112.757 21.8707 112.551 21.0213 112.141 20.312C111.73 19.584 111.198 19.024 110.545 18.632C109.891 18.24 109.191 18.044 108.445 18.044C107.698 18.044 106.998 18.24 106.345 18.632C105.691 19.024 105.159 19.584 104.749 20.312C104.338 21.0213 104.133 21.8707 104.133 22.86C104.133 23.8493 104.338 24.708 104.749 25.436C105.159 26.1453 105.691 26.696 106.345 27.088C106.998 27.48 107.698 27.676 108.445 27.676ZM125.354 30.448C123.954 30.448 122.704 30.1213 121.602 29.468C120.501 28.8147 119.633 27.9187 118.998 26.78C118.382 25.6413 118.074 24.344 118.074 22.888C118.074 21.5253 118.373 20.2653 118.97 19.108C119.568 17.9507 120.398 17.0267 121.462 16.336C122.545 15.6267 123.786 15.272 125.186 15.272C126.661 15.272 127.912 15.5893 128.938 16.224C129.984 16.8587 130.777 17.7267 131.318 18.828C131.86 19.9293 132.13 21.1707 132.13 22.552C132.13 22.7573 132.121 22.944 132.102 23.112C132.102 23.28 132.093 23.4107 132.074 23.504H121.042C121.192 24.9227 121.686 25.9867 122.526 26.696C123.385 27.4053 124.356 27.76 125.438 27.76C126.409 27.76 127.212 27.5453 127.846 27.116C128.481 26.668 128.985 26.1173 129.358 25.464L131.85 26.668C131.234 27.788 130.394 28.7027 129.33 29.412C128.266 30.1027 126.941 30.448 125.354 30.448ZM125.214 17.848C124.206 17.848 123.348 18.156 122.638 18.772C121.929 19.388 121.453 20.2093 121.21 21.236H129.134C129.097 20.7507 128.938 20.2467 128.658 19.724C128.378 19.2013 127.949 18.7627 127.37 18.408C126.81 18.0347 126.092 17.848 125.214 17.848ZM145.067 30L140.503 15.72H143.779L146.719 25.996H146.831L150.051 15.72H153.159L156.379 25.996H156.491L159.431 15.72H162.651L158.059 30H154.895L151.591 19.668H151.479L148.203 30H145.067ZM166.638 13.62C166.078 13.62 165.593 13.424 165.182 13.032C164.79 12.6213 164.594 12.136 164.594 11.576C164.594 11.016 164.79 10.54 165.182 10.148C165.593 9.756 166.078 9.56 166.638 9.56C167.198 9.56 167.674 9.756 168.066 10.148C168.477 10.54 168.682 11.016 168.682 11.576C168.682 12.136 168.477 12.6213 168.066 13.032C167.674 13.424 167.198 13.62 166.638 13.62ZM165.126 30V15.72H168.15V30H165.126ZM173.578 25.856V18.352H171.086V15.72H173.578V11.688H176.602V15.72H180.102V18.352H176.602V25.212C176.602 25.9213 176.742 26.4627 177.022 26.836C177.32 27.2093 177.815 27.396 178.506 27.396C178.86 27.396 179.159 27.3493 179.402 27.256C179.663 27.1627 179.924 27.032 180.186 26.864V29.804C179.868 29.9347 179.532 30.0373 179.178 30.112C178.823 30.1867 178.403 30.224 177.918 30.224C176.592 30.224 175.538 29.8413 174.754 29.076C173.97 28.292 173.578 27.2187 173.578 25.856ZM183.44 30V9.952H186.464V15.44L186.296 17.68H186.464C186.856 16.9893 187.453 16.42 188.256 15.972C189.077 15.5053 189.982 15.272 190.972 15.272C192.745 15.272 194.08 15.804 194.976 16.868C195.872 17.9133 196.32 19.2853 196.32 20.984V30H193.324V21.376C193.324 20.2187 193.016 19.3787 192.4 18.856C191.802 18.3147 191.065 18.044 190.188 18.044C189.46 18.044 188.816 18.2493 188.256 18.66C187.696 19.0707 187.257 19.612 186.94 20.284C186.622 20.9373 186.464 21.6373 186.464 22.384V30H183.44Z" fill="white"/>
<g id="GPay Logo (Dark)">
<g id="GPay">
<g id="Pay">
<path id="Fill 1" fill-rule="evenodd" clip-rule="evenodd" d="M248.529 9.34665V17.5128H253.565C254.765 17.5128 255.757 17.1096 256.541 16.3032C257.347 15.4988 257.75 14.5394 257.75 13.4288C257.75 12.3406 257.347 11.3924 256.541 10.586C255.757 9.75916 254.765 9.34479 253.565 9.34479H248.529V9.34665ZM248.529 20.3872V29.8599H245.521V6.47218H253.499C255.527 6.47218 257.248 7.14787 258.666 8.49738C260.105 9.84688 260.824 11.4913 260.824 13.4288C260.824 15.411 260.105 17.0667 258.666 18.3938C257.27 19.7227 255.547 20.3854 253.499 20.3854H248.529V20.3872Z" fill="white"/>
<path id="Fill 3" fill-rule="evenodd" clip-rule="evenodd" d="M263.864 24.9602C263.864 25.7442 264.197 26.3975 264.862 26.9201C265.527 27.4427 266.306 27.704 267.2 27.704C268.465 27.704 269.591 27.2354 270.584 26.3004C271.576 25.3634 272.071 24.264 272.071 23.0022C271.133 22.2612 269.825 21.8916 268.147 21.8916C266.925 21.8916 265.907 22.1866 265.09 22.7745C264.273 23.3623 263.864 24.0886 263.864 24.9602ZM267.756 13.3317C269.98 13.3317 271.735 13.9253 273.022 15.1124C274.308 16.2995 274.95 17.9271 274.95 19.9952V29.8599H272.073V27.6387H271.942C270.699 29.4677 269.042 30.3825 266.972 30.3825C265.206 30.3825 263.728 29.8599 262.541 28.8146C261.353 27.7694 260.759 26.4628 260.759 24.8949C260.759 23.2393 261.385 21.9232 262.638 20.9434C263.892 19.9635 265.565 19.4726 267.658 19.4726C269.444 19.4726 270.916 19.7993 272.071 20.4525V19.7657C272.071 18.7204 271.656 17.8338 270.829 17.104C269.999 16.3742 269.031 16.0102 267.919 16.0102C266.239 16.0102 264.911 16.7176 263.93 18.1343L261.28 16.4675C262.741 14.377 264.899 13.3317 267.756 13.3317Z" fill="white"/>
<path id="Fill 5" fill-rule="evenodd" clip-rule="evenodd" d="M291.463 13.8543L281.424 36.9154H278.318L282.046 28.8464L275.44 13.8543H278.71L283.484 25.3522H283.55L288.193 13.8543H291.463Z" fill="white"/>
</g>
<g id="G">
<path id="Fill 8" fill-rule="evenodd" clip-rule="evenodd" d="M236.373 18.3452C236.373 17.3989 236.293 16.4861 236.141 15.6126H223.454V20.7885H230.72C230.408 22.4757 229.465 23.9112 228.033 24.8725V28.2341H232.37C234.91 25.8935 236.373 22.4348 236.373 18.3452Z" fill="#4285F4"/>
<path id="Fill 10" fill-rule="evenodd" clip-rule="evenodd" d="M223.454 31.4782C227.084 31.4782 230.141 30.2873 232.37 28.2341L228.033 24.8725C226.826 25.6844 225.272 26.1585 223.454 26.1585C219.944 26.1585 216.966 23.7955 215.901 20.6112H211.433V24.0736C213.647 28.4637 218.197 31.4782 223.454 31.4782Z" fill="#34A853"/>
<path id="Fill 12" fill-rule="evenodd" clip-rule="evenodd" d="M215.901 20.6111C215.628 19.7992 215.479 18.9331 215.479 18.0391C215.479 17.145 215.628 16.2789 215.901 15.467V12.0045H211.433C210.518 13.8188 210 15.8683 210 18.0391C210 20.2098 210.518 22.2595 211.433 24.0736L215.901 20.6111Z" fill="#FABB05"/>
<path id="Fill 14" fill-rule="evenodd" clip-rule="evenodd" d="M223.454 9.91964C225.436 9.91964 227.213 10.6009 228.615 11.9355V11.9374L232.455 8.10163C230.123 5.93272 227.082 4.60001 223.454 4.60001C218.197 4.60001 213.647 7.61447 211.433 12.0046L215.901 15.467C216.966 12.2827 219.944 9.91964 223.454 9.91964Z" fill="#E94235"/>
</g>
</g>
</g>
</g>
</svg>
