<svg width="167" height="21" viewBox="0 0 167 21" fill="none" xmlns="http://www.w3.org/2000/svg">
<g id="en_subscribe_with_Pay_NBG">
<path id="Left Text" d="M5.20525 15.2566C4.59725 15.2566 4.01592 15.1393 3.46125 14.9046C2.90659 14.6593 2.41592 14.3019 1.98925 13.8326C1.57325 13.3633 1.26392 12.7819 1.06125 12.0886L2.72525 11.4166C2.89592 12.0353 3.19459 12.5526 3.62125 12.9686C4.04792 13.3846 4.58125 13.5926 5.22125 13.5926C5.58392 13.5926 5.91992 13.5286 6.22925 13.4006C6.54925 13.2726 6.80525 13.0859 6.99725 12.8406C7.18925 12.5846 7.28525 12.2753 7.28525 11.9126C7.28525 11.5713 7.20525 11.2833 7.04525 11.0486C6.88525 10.8033 6.62925 10.5846 6.27725 10.3926C5.92525 10.1899 5.47725 9.99261 4.93325 9.80061L4.21325 9.54461C3.90392 9.42728 3.58925 9.28328 3.26925 9.11261C2.94925 8.94194 2.65059 8.73394 2.37325 8.48861C2.10659 8.23261 1.89325 7.93394 1.73325 7.59261C1.57325 7.25128 1.49325 6.85661 1.49325 6.40861C1.49325 5.83261 1.64259 5.30994 1.94125 4.84061C2.25059 4.37128 2.67192 3.99794 3.20525 3.72061C3.74925 3.43261 4.37859 3.28861 5.09325 3.28861C5.82925 3.28861 6.44259 3.42194 6.93325 3.68861C7.43459 3.94461 7.82392 4.25394 8.10125 4.61661C8.38925 4.97928 8.58659 5.32594 8.69325 5.65661L7.10925 6.32861C7.04525 6.10461 6.92792 5.88594 6.75725 5.67261C6.59725 5.45928 6.37859 5.28328 6.10125 5.14461C5.83459 4.99528 5.50392 4.92061 5.10925 4.92061C4.76792 4.92061 4.45325 4.98461 4.16525 5.11261C3.88792 5.24061 3.66392 5.41661 3.49325 5.64061C3.32259 5.85394 3.23725 6.10461 3.23725 6.39261C3.23725 6.80861 3.40792 7.14994 3.74925 7.41661C4.09059 7.67261 4.58659 7.90728 5.23725 8.12061L5.97325 8.37661C6.34659 8.50461 6.71459 8.65928 7.07725 8.84061C7.43992 9.01128 7.77059 9.23528 8.06925 9.51261C8.36792 9.77928 8.60259 10.1099 8.77325 10.5046C8.95459 10.8886 9.04525 11.3473 9.04525 11.8806C9.04525 12.4673 8.92792 12.9793 8.69325 13.4166C8.46925 13.8433 8.16525 14.1953 7.78125 14.4726C7.40792 14.7393 6.99192 14.9366 6.53325 15.0646C6.08525 15.1926 5.64259 15.2566 5.20525 15.2566ZM13.668 15.2566C12.6653 15.2566 11.908 14.9579 11.396 14.3606C10.8947 13.7526 10.644 12.9313 10.644 11.8966V6.84061H12.372V11.6566C12.372 12.3393 12.532 12.8459 12.852 13.1766C13.1827 13.5073 13.5933 13.6726 14.084 13.6726C14.532 13.6726 14.916 13.5606 15.236 13.3366C15.556 13.1019 15.8013 12.7979 15.972 12.4246C16.1533 12.0513 16.244 11.6513 16.244 11.2246V6.84061H17.956V15.0006H16.34V13.8966H16.244C16.0947 14.1526 15.8867 14.3819 15.62 14.5846C15.3533 14.7873 15.0547 14.9473 14.724 15.0646C14.3933 15.1926 14.0413 15.2566 13.668 15.2566ZM24.4913 15.2566C24.0753 15.2566 23.6966 15.1926 23.3553 15.0646C23.0139 14.9366 22.7153 14.7713 22.4593 14.5686C22.2139 14.3553 22.0166 14.1366 21.8673 13.9126H21.7713V15.0006H20.1393V3.54461H21.8673V6.80861L21.7713 7.94461H21.8673C22.0166 7.70994 22.2139 7.49128 22.4593 7.28861C22.7153 7.07528 23.0139 6.90461 23.3553 6.77661C23.6966 6.64861 24.0753 6.58461 24.4913 6.58461C25.2379 6.58461 25.9046 6.77128 26.4913 7.14461C27.0779 7.51794 27.5419 8.02994 27.8833 8.68061C28.2353 9.33128 28.4113 10.0779 28.4113 10.9206C28.4113 11.7633 28.2353 12.5099 27.8833 13.1606C27.5419 13.8113 27.0779 14.3233 26.4913 14.6966C25.9046 15.0699 25.2379 15.2566 24.4913 15.2566ZM24.2353 13.6726C24.6619 13.6726 25.0619 13.5606 25.4353 13.3366C25.8193 13.1126 26.1233 12.7926 26.3473 12.3766C26.5819 11.9606 26.6993 11.4753 26.6993 10.9206C26.6993 10.3553 26.5819 9.86994 26.3473 9.46461C26.1233 9.04861 25.8193 8.72861 25.4353 8.50461C25.0619 8.28061 24.6619 8.16861 24.2353 8.16861C23.8086 8.16861 23.4086 8.28061 23.0353 8.50461C22.6619 8.72861 22.3579 9.04861 22.1233 9.46461C21.8886 9.86994 21.7713 10.3553 21.7713 10.9206C21.7713 11.4859 21.8886 11.9766 22.1233 12.3926C22.3579 12.7979 22.6619 13.1126 23.0353 13.3366C23.4086 13.5606 23.8086 13.6726 24.2353 13.6726ZM33.0465 15.2566C32.3958 15.2566 31.8305 15.1606 31.3505 14.9686C30.8705 14.7659 30.4758 14.4993 30.1665 14.1686C29.8572 13.8273 29.6278 13.4593 29.4785 13.0646L31.0305 12.3926C31.2225 12.8299 31.4945 13.1659 31.8465 13.4006C32.2092 13.6246 32.6252 13.7366 33.0945 13.7366C33.5212 13.7366 33.8892 13.6619 34.1985 13.5126C34.5078 13.3526 34.6625 13.0966 34.6625 12.7446C34.6625 12.5206 34.5878 12.3393 34.4385 12.2006C34.2998 12.0513 34.1078 11.9286 33.8625 11.8326C33.6278 11.7366 33.3558 11.6513 33.0465 11.5766L32.0705 11.3526C31.6865 11.2566 31.3185 11.1073 30.9665 10.9046C30.6252 10.6913 30.3478 10.4246 30.1345 10.1046C29.9212 9.78461 29.8145 9.40594 29.8145 8.96861C29.8145 8.47794 29.9532 8.05661 30.2305 7.70461C30.5185 7.34194 30.9025 7.06461 31.3825 6.87261C31.8625 6.68061 32.3798 6.58461 32.9345 6.58461C33.4465 6.58461 33.9105 6.65394 34.3265 6.79261C34.7532 6.92061 35.1212 7.11794 35.4305 7.38461C35.7505 7.64061 36.0012 7.96061 36.1825 8.34461L34.6945 9.01661C34.5132 8.65394 34.2678 8.40328 33.9585 8.26461C33.6492 8.11528 33.3132 8.04061 32.9505 8.04061C32.5452 8.04061 32.2038 8.12594 31.9265 8.29661C31.6598 8.45661 31.5265 8.66994 31.5265 8.93661C31.5265 9.21394 31.6438 9.43261 31.8785 9.59261C32.1238 9.75261 32.4225 9.88061 32.7745 9.97661L33.9585 10.2646C34.7692 10.4673 35.3772 10.7766 35.7825 11.1926C36.1878 11.5979 36.3905 12.0939 36.3905 12.6806C36.3905 13.2033 36.2412 13.6619 35.9425 14.0566C35.6438 14.4406 35.2385 14.7393 34.7265 14.9526C34.2252 15.1553 33.6652 15.2566 33.0465 15.2566ZM41.9028 15.2566C41.0814 15.2566 40.3508 15.0699 39.7108 14.6966C39.0814 14.3233 38.5854 13.8113 38.2228 13.1606C37.8708 12.4993 37.6948 11.7526 37.6948 10.9206C37.6948 10.0886 37.8708 9.34728 38.2228 8.69661C38.5854 8.04594 39.0814 7.53394 39.7108 7.16061C40.3508 6.77661 41.0814 6.58461 41.9028 6.58461C42.8094 6.58461 43.5721 6.78728 44.1908 7.19261C44.8201 7.59794 45.2681 8.14728 45.5348 8.84061L43.9668 9.48061C43.7748 9.04328 43.4974 8.71794 43.1348 8.50461C42.7828 8.28061 42.3614 8.16861 41.8708 8.16861C41.4228 8.16861 41.0121 8.28594 40.6388 8.52061C40.2654 8.74461 39.9668 9.05928 39.7428 9.46461C39.5188 9.86994 39.4068 10.3553 39.4068 10.9206C39.4068 11.4753 39.5188 11.9606 39.7428 12.3766C39.9668 12.7926 40.2654 13.1126 40.6388 13.3366C41.0121 13.5606 41.4228 13.6726 41.8708 13.6726C42.3934 13.6726 42.8361 13.5553 43.1988 13.3206C43.5614 13.0859 43.8441 12.7553 44.0468 12.3286L45.5828 13.0006C45.2841 13.6513 44.8201 14.1899 44.1908 14.6166C43.5721 15.0433 42.8094 15.2566 41.9028 15.2566ZM47.1361 15.0006V6.84061H48.7681V8.04061H48.8641C48.9921 7.76328 49.1735 7.51794 49.4081 7.30461C49.6535 7.09128 49.9308 6.92061 50.2401 6.79261C50.5601 6.66461 50.8908 6.60061 51.2321 6.60061C51.4561 6.60061 51.6428 6.61661 51.7921 6.64861C51.9521 6.66994 52.0961 6.70728 52.2241 6.76061V8.55261C52.0215 8.46728 51.8135 8.39794 51.6001 8.34461C51.3975 8.29128 51.1841 8.26461 50.9601 8.26461C50.5548 8.26461 50.1921 8.37661 49.8721 8.60061C49.5628 8.81394 49.3175 9.10194 49.1361 9.46461C48.9548 9.82728 48.8641 10.2326 48.8641 10.6806V15.0006H47.1361ZM53.836 15.0006V6.84061H55.564V15.0006H53.836ZM54.7 5.64061C54.38 5.64061 54.1027 5.52861 53.868 5.30461C53.644 5.06994 53.532 4.79261 53.532 4.47261C53.532 4.14194 53.644 3.86994 53.868 3.65661C54.1027 3.43261 54.38 3.32061 54.7 3.32061C55.0307 3.32061 55.308 3.43261 55.532 3.65661C55.756 3.86994 55.868 4.14194 55.868 4.47261C55.868 4.79261 55.756 5.06994 55.532 5.30461C55.308 5.52861 55.0307 5.64061 54.7 5.64061ZM62.21 15.2566C61.794 15.2566 61.4153 15.1926 61.074 15.0646C60.7327 14.9366 60.434 14.7713 60.178 14.5686C59.9327 14.3553 59.7353 14.1366 59.586 13.9126H59.49V15.0006H57.858V3.54461H59.586V6.80861L59.49 7.94461H59.586C59.7353 7.70994 59.9327 7.49128 60.178 7.28861C60.434 7.07528 60.7327 6.90461 61.074 6.77661C61.4153 6.64861 61.794 6.58461 62.21 6.58461C62.9567 6.58461 63.6233 6.77128 64.21 7.14461C64.7967 7.51794 65.2607 8.02994 65.602 8.68061C65.954 9.33128 66.13 10.0779 66.13 10.9206C66.13 11.7633 65.954 12.5099 65.602 13.1606C65.2607 13.8113 64.7967 14.3233 64.21 14.6966C63.6233 15.0699 62.9567 15.2566 62.21 15.2566ZM61.954 13.6726C62.3807 13.6726 62.7807 13.5606 63.154 13.3366C63.538 13.1126 63.842 12.7926 64.066 12.3766C64.3007 11.9606 64.418 11.4753 64.418 10.9206C64.418 10.3553 64.3007 9.86994 64.066 9.46461C63.842 9.04861 63.538 8.72861 63.154 8.50461C62.7807 8.28061 62.3807 8.16861 61.954 8.16861C61.5273 8.16861 61.1273 8.28061 60.754 8.50461C60.3807 8.72861 60.0767 9.04861 59.842 9.46461C59.6073 9.86994 59.49 10.3553 59.49 10.9206C59.49 11.4859 59.6073 11.9766 59.842 12.3926C60.0767 12.7979 60.3807 13.1126 60.754 13.3366C61.1273 13.5606 61.5273 13.6726 61.954 13.6726ZM71.5954 15.2566C70.7954 15.2566 70.0807 15.0699 69.4514 14.6966C68.822 14.3233 68.326 13.8113 67.9634 13.1606C67.6114 12.5099 67.4354 11.7686 67.4354 10.9366C67.4354 10.1579 67.606 9.43794 67.9474 8.77661C68.2887 8.11528 68.7634 7.58728 69.3714 7.19261C69.99 6.78728 70.6994 6.58461 71.4994 6.58461C72.342 6.58461 73.0567 6.76594 73.6434 7.12861C74.2407 7.49128 74.694 7.98728 75.0034 8.61661C75.3127 9.24594 75.4674 9.95528 75.4674 10.7446C75.4674 10.8619 75.462 10.9686 75.4514 11.0646C75.4514 11.1606 75.446 11.2353 75.4354 11.2886H69.1314C69.174 11.7366 69.286 12.1259 69.4674 12.4566C69.702 12.8726 70.0114 13.1873 70.3954 13.4006C70.7794 13.6139 71.1954 13.7206 71.6434 13.7206C72.1874 13.7206 72.6407 13.5979 73.0034 13.3526C73.3767 13.0966 73.67 12.7819 73.8834 12.4086L75.3074 13.0966C74.9554 13.7366 74.4754 14.2593 73.8674 14.6646C73.2594 15.0593 72.502 15.2566 71.5954 15.2566ZM69.2274 9.99261H73.7554C73.7447 9.78994 73.6914 9.57661 73.5954 9.35261C73.4994 9.11794 73.3607 8.90461 73.1794 8.71261C72.998 8.52061 72.7687 8.36594 72.4914 8.24861C72.214 8.12061 71.8887 8.05661 71.5154 8.05661C71.046 8.05661 70.63 8.17928 70.2674 8.42461C69.9047 8.65928 69.622 8.98994 69.4194 9.41661C69.334 9.59794 69.27 9.78994 69.2274 9.99261ZM82.8169 15.0006L80.2089 6.84061H82.0809L83.7609 12.7126H83.8249L85.6649 6.84061H87.4409L89.2809 12.7126H89.3449L91.0249 6.84061H92.8649L90.2409 15.0006H88.4329L86.5449 9.09661H86.4809L84.6089 15.0006H82.8169ZM94.2579 15.0006V6.84061H95.9859V15.0006H94.2579ZM95.1219 5.64061C94.8019 5.64061 94.5245 5.52861 94.2899 5.30461C94.0659 5.06994 93.9539 4.79261 93.9539 4.47261C93.9539 4.14194 94.0659 3.86994 94.2899 3.65661C94.5245 3.43261 94.8019 3.32061 95.1219 3.32061C95.4525 3.32061 95.7299 3.43261 95.9539 3.65661C96.1779 3.86994 96.2899 4.14194 96.2899 4.47261C96.2899 4.79261 96.1779 5.06994 95.9539 5.30461C95.7299 5.52861 95.4525 5.64061 95.1219 5.64061ZM97.6418 6.84061H99.0658V4.53661H100.794V6.84061H102.794V8.34461H100.794V12.2646C100.794 12.6699 100.874 12.9793 101.034 13.1926C101.204 13.4059 101.487 13.5126 101.882 13.5126C102.074 13.5126 102.244 13.4859 102.394 13.4326C102.543 13.3686 102.692 13.2939 102.842 13.2086V14.8886C102.66 14.9633 102.468 15.0219 102.266 15.0646C102.063 15.1073 101.823 15.1286 101.546 15.1286C100.788 15.1286 100.186 14.9099 99.7378 14.4726C99.2898 14.0246 99.0658 13.4113 99.0658 12.6326V8.34461H97.6418V6.84061ZM104.68 15.0006V3.54461H106.408V6.68061L106.312 7.96061H106.408C106.632 7.56594 106.973 7.24061 107.432 6.98461C107.901 6.71794 108.419 6.58461 108.984 6.58461C109.667 6.58461 110.232 6.72328 110.68 7.00061C111.139 7.27794 111.48 7.66194 111.704 8.15261C111.928 8.63261 112.04 9.19794 112.04 9.84861V15.0006H110.328V10.0726C110.328 9.63528 110.243 9.27794 110.072 9.00061C109.912 8.72328 109.699 8.51528 109.432 8.37661C109.165 8.23794 108.867 8.16861 108.536 8.16861C108.12 8.16861 107.752 8.28594 107.432 8.52061C107.112 8.75528 106.861 9.06461 106.68 9.44861C106.499 9.82194 106.408 10.2219 106.408 10.6486V15.0006H104.68Z" fill="white"/>
<g id="GPay (Dark)">
<g id="GPay">
<g id="Pay">
<path id="Fill 1" fill-rule="evenodd" clip-rule="evenodd" d="M141.356 3.42339V8.16175H144.278C144.974 8.16175 145.55 7.92781 146.005 7.45993C146.473 6.99313 146.707 6.43644 146.707 5.79203C146.707 5.16061 146.473 4.61041 146.005 4.14254C145.55 3.66274 144.974 3.4223 144.278 3.4223H141.356V3.42339ZM141.356 9.82966V15.3262H139.611V1.75549H144.24C145.417 1.75549 146.415 2.14756 147.238 2.93061C148.073 3.71365 148.491 4.66782 148.491 5.79203C148.491 6.94224 148.073 7.90291 147.238 8.67296C146.428 9.44409 145.429 9.82858 144.24 9.82858H141.356V9.82966Z" fill="white"/>
<path id="Fill 3" fill-rule="evenodd" clip-rule="evenodd" d="M150.255 12.4831C150.255 12.9379 150.448 13.317 150.834 13.6203C151.22 13.9235 151.672 14.0752 152.19 14.0752C152.924 14.0752 153.578 13.8032 154.153 13.2607C154.729 12.717 155.017 12.0791 155.017 11.3469C154.472 10.917 153.713 10.7025 152.74 10.7025C152.031 10.7025 151.44 10.8736 150.966 11.2148C150.492 11.5559 150.255 11.9773 150.255 12.4831M152.513 5.73566C153.803 5.73566 154.821 6.08007 155.569 6.76889C156.314 7.45771 156.687 8.40213 156.687 9.60216V15.3261H155.018V14.0373H154.942C154.221 15.0985 153.259 15.6294 152.058 15.6294C151.033 15.6294 150.176 15.3261 149.487 14.7196C148.797 14.1131 148.453 13.3549 148.453 12.4452C148.453 11.4845 148.816 10.7208 149.543 10.1523C150.271 9.58375 151.241 9.2989 152.456 9.2989C153.492 9.2989 154.346 9.48844 155.017 9.86751V9.46894C155.017 8.86243 154.776 8.34798 154.296 7.92451C153.814 7.50103 153.252 7.28984 152.607 7.28984C151.633 7.28984 150.862 7.70032 150.293 8.52235L148.755 7.55519C149.603 6.34217 150.855 5.73566 152.513 5.73566" fill="white"/>
<path id="Fill 5" fill-rule="evenodd" clip-rule="evenodd" d="M166.269 6.03894L160.443 19.4201H158.641L160.804 14.738L156.971 6.03894H158.869L161.639 12.7106H161.677L164.371 6.03894H166.269Z" fill="white"/>
</g>
<g id="G">
<path id="Fill 8" fill-rule="evenodd" clip-rule="evenodd" d="M134.303 8.64473C134.303 8.09563 134.256 7.56601 134.168 7.05914H126.806V10.0625H131.023C130.842 11.0414 130.294 11.8744 129.464 12.4322V14.3828H131.98C133.454 13.0246 134.303 11.0177 134.303 8.64473" fill="#4285F4"/>
<path id="Fill 10" fill-rule="evenodd" clip-rule="evenodd" d="M126.806 16.2651C128.913 16.2651 130.687 15.5741 131.98 14.3828L129.464 12.4322C128.763 12.9033 127.861 13.1784 126.806 13.1784C124.77 13.1784 123.042 11.8073 122.424 9.95959H119.832V11.9687C121.116 14.516 123.757 16.2651 126.806 16.2651" fill="#34A853"/>
<path id="Fill 12" fill-rule="evenodd" clip-rule="evenodd" d="M122.424 9.9596C122.266 9.48847 122.179 8.98593 122.179 8.46715C122.179 7.94837 122.266 7.44583 122.424 6.9747V4.96564H119.832C119.3 6.01837 119 7.20756 119 8.46715C119 9.72674 119.3 10.916 119.832 11.9687L122.424 9.9596Z" fill="#FABB05"/>
<path id="Fill 14" fill-rule="evenodd" clip-rule="evenodd" d="M126.806 3.75583C127.957 3.75583 128.988 4.15115 129.801 4.92553V4.92661L132.029 2.70094C130.676 1.44243 128.912 0.669128 126.806 0.669128C123.757 0.669128 121.116 2.41826 119.832 4.9656L122.424 6.97467C123.042 5.12698 124.77 3.75583 126.806 3.75583" fill="#E94235"/>
</g>
</g>
</g>
</g>
</svg>
