<svg width="190" height="38" viewBox="0 0 190 38" fill="none" xmlns="http://www.w3.org/2000/svg">
<g id="en_view_in_Dark">
<path id="Text" d="M8.84462 30L1.73262 9.952H5.09262L9.62862 23.28L10.3286 25.548H10.4966L11.2526 23.28L15.9846 9.952H19.3446L12.0366 30H8.84462ZM22.9961 13.62C22.4361 13.62 21.9508 13.424 21.5401 13.032C21.1481 12.6213 20.9521 12.136 20.9521 11.576C20.9521 11.016 21.1481 10.54 21.5401 10.148C21.9508 9.756 22.4361 9.56 22.9961 9.56C23.5561 9.56 24.0321 9.756 24.4241 10.148C24.8348 10.54 25.0401 11.016 25.0401 11.576C25.0401 12.136 24.8348 12.6213 24.4241 13.032C24.0321 13.424 23.5561 13.62 22.9961 13.62ZM21.4841 30V15.72H24.5081V30H21.4841ZM34.9474 30.448C33.5474 30.448 32.2967 30.1213 31.1954 29.468C30.094 28.8147 29.226 27.9187 28.5914 26.78C27.9754 25.6413 27.6674 24.344 27.6674 22.888C27.6674 21.5253 27.966 20.2653 28.5634 19.108C29.1607 17.9507 29.9914 17.0267 31.0554 16.336C32.138 15.6267 33.3794 15.272 34.7794 15.272C36.254 15.272 37.5047 15.5893 38.5314 16.224C39.5767 16.8587 40.37 17.7267 40.9114 18.828C41.4527 19.9293 41.7234 21.1707 41.7234 22.552C41.7234 22.7573 41.714 22.944 41.6954 23.112C41.6954 23.28 41.686 23.4107 41.6674 23.504H30.6354C30.7847 24.9227 31.2794 25.9867 32.1194 26.696C32.978 27.4053 33.9487 27.76 35.0314 27.76C36.002 27.76 36.8047 27.5453 37.4394 27.116C38.074 26.668 38.578 26.1173 38.9514 25.464L41.4434 26.668C40.8274 27.788 39.9874 28.7027 38.9234 29.412C37.8594 30.1027 36.534 30.448 34.9474 30.448ZM34.8074 17.848C33.7994 17.848 32.9407 18.156 32.2314 18.772C31.522 19.388 31.046 20.2093 30.8034 21.236H38.7274C38.69 20.7507 38.5314 20.2467 38.2514 19.724C37.9714 19.2013 37.542 18.7627 36.9634 18.408C36.4034 18.0347 35.6847 17.848 34.8074 17.848ZM47.5514 30L42.9874 15.72H46.2634L49.2034 25.996H49.3154L52.5354 15.72H55.6434L58.8634 25.996H58.9754L61.9154 15.72H65.1354L60.5434 30H57.3794L54.0754 19.668H53.9634L50.6874 30H47.5514ZM75.9578 13.62C75.3978 13.62 74.9125 13.424 74.5018 13.032C74.1098 12.6213 73.9138 12.136 73.9138 11.576C73.9138 11.016 74.1098 10.54 74.5018 10.148C74.9125 9.756 75.3978 9.56 75.9578 9.56C76.5178 9.56 76.9938 9.756 77.3858 10.148C77.7965 10.54 78.0018 11.016 78.0018 11.576C78.0018 12.136 77.7965 12.6213 77.3858 13.032C76.9938 13.424 76.5178 13.62 75.9578 13.62ZM74.4458 30V15.72H77.4698V30H74.4458ZM81.5218 30V15.72H84.3778V17.68H84.5458C84.9565 16.9893 85.5631 16.42 86.3658 15.972C87.1871 15.5053 88.0831 15.272 89.0538 15.272C90.8085 15.272 92.1245 15.7947 93.0018 16.84C93.8791 17.8853 94.3178 19.2667 94.3178 20.984V30H91.3218V21.376C91.3218 20.2187 91.0325 19.3787 90.4538 18.856C89.8751 18.3147 89.1191 18.044 88.1858 18.044C87.4578 18.044 86.8231 18.2493 86.2818 18.66C85.7405 19.052 85.3111 19.5747 84.9938 20.228C84.6951 20.8813 84.5458 21.5813 84.5458 22.328V30H81.5218Z" fill="white"/>
<g id="GPay Logo (Dark)">
<g id="GPay">
<g id="Pay">
<path id="Fill 1" fill-rule="evenodd" clip-rule="evenodd" d="M146.529 9.34665V17.5128H151.565C152.765 17.5128 153.757 17.1096 154.541 16.3032C155.347 15.4988 155.75 14.5394 155.75 13.4288C155.75 12.3406 155.347 11.3924 154.541 10.586C153.757 9.75916 152.765 9.34479 151.565 9.34479H146.529V9.34665ZM146.529 20.3872V29.8599H143.521V6.47218H151.499C153.527 6.47218 155.248 7.14787 156.666 8.49738C158.105 9.84688 158.824 11.4913 158.824 13.4288C158.824 15.411 158.105 17.0667 156.666 18.3938C155.27 19.7227 153.547 20.3854 151.499 20.3854H146.529V20.3872Z" fill="white"/>
<path id="Fill 3" fill-rule="evenodd" clip-rule="evenodd" d="M161.864 24.9602C161.864 25.7442 162.197 26.3975 162.862 26.9201C163.527 27.4427 164.306 27.704 165.2 27.704C166.465 27.704 167.591 27.2354 168.584 26.3004C169.576 25.3634 170.071 24.264 170.071 23.0022C169.133 22.2612 167.825 21.8916 166.147 21.8916C164.925 21.8916 163.907 22.1866 163.09 22.7745C162.273 23.3623 161.864 24.0886 161.864 24.9602ZM165.756 13.3317C167.98 13.3317 169.735 13.9253 171.022 15.1124C172.308 16.2995 172.95 17.9271 172.95 19.9952V29.8599H170.073V27.6387H169.942C168.699 29.4677 167.042 30.3825 164.972 30.3825C163.206 30.3825 161.728 29.8599 160.541 28.8146C159.353 27.7694 158.759 26.4628 158.759 24.8949C158.759 23.2393 159.385 21.9232 160.638 20.9434C161.892 19.9635 163.565 19.4726 165.658 19.4726C167.444 19.4726 168.916 19.7993 170.071 20.4525V19.7657C170.071 18.7204 169.656 17.8338 168.829 17.104C167.999 16.3742 167.031 16.0102 165.919 16.0102C164.239 16.0102 162.911 16.7176 161.93 18.1343L159.28 16.4675C160.741 14.377 162.899 13.3317 165.756 13.3317Z" fill="white"/>
<path id="Fill 5" fill-rule="evenodd" clip-rule="evenodd" d="M189.463 13.8543L179.424 36.9154H176.318L180.046 28.8464L173.44 13.8543H176.71L181.484 25.3522H181.55L186.193 13.8543H189.463Z" fill="white"/>
</g>
<g id="G">
<path id="Fill 8" fill-rule="evenodd" clip-rule="evenodd" d="M134.373 18.3452C134.373 17.3989 134.293 16.4861 134.141 15.6126H121.454V20.7885H128.72C128.408 22.4757 127.465 23.9112 126.033 24.8725V28.2341H130.37C132.91 25.8935 134.373 22.4348 134.373 18.3452Z" fill="#4285F4"/>
<path id="Fill 10" fill-rule="evenodd" clip-rule="evenodd" d="M121.454 31.4782C125.084 31.4782 128.141 30.2873 130.37 28.2341L126.033 24.8725C124.826 25.6844 123.272 26.1585 121.454 26.1585C117.944 26.1585 114.966 23.7955 113.901 20.6112H109.433V24.0736C111.647 28.4637 116.197 31.4782 121.454 31.4782Z" fill="#34A853"/>
<path id="Fill 12" fill-rule="evenodd" clip-rule="evenodd" d="M113.901 20.6111C113.628 19.7992 113.479 18.9331 113.479 18.0391C113.479 17.145 113.628 16.2789 113.901 15.467V12.0045H109.433C108.518 13.8188 108 15.8683 108 18.0391C108 20.2098 108.518 22.2595 109.433 24.0736L113.901 20.6111Z" fill="#FABB05"/>
<path id="Fill 14" fill-rule="evenodd" clip-rule="evenodd" d="M121.454 9.91964C123.436 9.91964 125.213 10.6009 126.615 11.9355V11.9374L130.455 8.10163C128.123 5.93272 125.082 4.60001 121.454 4.60001C116.197 4.60001 111.647 7.61447 109.433 12.0046L113.901 15.467C114.966 12.2827 117.944 9.91964 121.454 9.91964Z" fill="#E94235"/>
</g>
</g>
</g>
</g>
</svg>
