<svg width="122" height="21" viewBox="0 0 122 21" fill="none" xmlns="http://www.w3.org/2000/svg">
<g id="pl_add_to_Pay_NBG">
<path id="Left Text" d="M1.5585 15.0006V3.54461H5.2225C6.42783 3.54461 7.4625 3.78994 8.3265 4.28061C9.20116 4.76061 9.87316 5.43261 10.3425 6.29661C10.8225 7.16061 11.0625 8.15261 11.0625 9.27261C11.0625 10.3926 10.8225 11.3846 10.3425 12.2486C9.87316 13.1126 9.20116 13.7899 8.3265 14.2806C7.4625 14.7606 6.42783 15.0006 5.2225 15.0006H1.5585ZM3.3185 13.3366H5.1745C6.0385 13.3366 6.77983 13.1766 7.3985 12.8566C8.01716 12.5259 8.4865 12.0566 8.8065 11.4486C9.1265 10.8406 9.2865 10.1153 9.2865 9.27261C9.2865 8.42994 9.1265 7.70461 8.8065 7.09661C8.4865 6.48861 8.01716 6.02461 7.3985 5.70461C6.77983 5.37394 6.0385 5.20861 5.1745 5.20861H3.3185V13.3366ZM16.5417 15.2566C15.6991 15.2566 14.9577 15.0646 14.3177 14.6806C13.6777 14.2966 13.1764 13.7793 12.8137 13.1286C12.4511 12.4673 12.2697 11.7313 12.2697 10.9206C12.2697 10.1099 12.4511 9.37928 12.8137 8.72861C13.1764 8.06728 13.6777 7.54461 14.3177 7.16061C14.9577 6.77661 15.6991 6.58461 16.5417 6.58461C17.3737 6.58461 18.1097 6.78194 18.7497 7.17661C19.3897 7.56061 19.8911 8.07794 20.2537 8.72861C20.6164 9.37928 20.7977 10.1099 20.7977 10.9206C20.7977 11.7313 20.6164 12.4673 20.2537 13.1286C19.8911 13.7793 19.3897 14.2966 18.7497 14.6806C18.1097 15.0646 17.3737 15.2566 16.5417 15.2566ZM16.5417 13.6726C16.9897 13.6726 17.4057 13.5659 17.7897 13.3526C18.1737 13.1286 18.4831 12.8139 18.7177 12.4086C18.9631 11.9926 19.0857 11.4966 19.0857 10.9206C19.0857 10.3446 18.9631 9.85394 18.7177 9.44861C18.4831 9.03261 18.1737 8.71794 17.7897 8.50461C17.4057 8.28061 16.9897 8.16861 16.5417 8.16861C16.0937 8.16861 15.6724 8.28061 15.2777 8.50461C14.8937 8.71794 14.5791 9.03261 14.3337 9.44861C14.0991 9.85394 13.9817 10.3446 13.9817 10.9206C13.9817 11.4966 14.0991 11.9926 14.3337 12.4086C14.5791 12.8139 14.8991 13.1286 15.2937 13.3526C15.6884 13.5659 16.1044 13.6726 16.5417 13.6726ZM26.0272 15.2566C25.2912 15.2566 24.6246 15.0699 24.0272 14.6966C23.4299 14.3233 22.9606 13.8113 22.6192 13.1606C22.2779 12.5099 22.1072 11.7633 22.1072 10.9206C22.1072 10.0779 22.2779 9.33128 22.6192 8.68061C22.9606 8.02994 23.4299 7.51794 24.0272 7.14461C24.6246 6.77128 25.2912 6.58461 26.0272 6.58461C26.4539 6.58461 26.8379 6.64861 27.1792 6.77661C27.5206 6.90461 27.8139 7.07528 28.0592 7.28861C28.3152 7.49128 28.5126 7.70994 28.6512 7.94461H28.7472L28.6512 6.80861V3.54461H30.3632V15.0006H28.7472V13.9126H28.6512C28.5126 14.1366 28.3152 14.3553 28.0592 14.5686C27.8139 14.7713 27.5206 14.9366 27.1792 15.0646C26.8379 15.1926 26.4539 15.2566 26.0272 15.2566ZM26.2832 13.6726C26.7099 13.6726 27.1099 13.5606 27.4832 13.3366C27.8672 13.1126 28.1712 12.7979 28.3952 12.3926C28.6299 11.9766 28.7472 11.4859 28.7472 10.9206C28.7472 10.3553 28.6299 9.86994 28.3952 9.46461C28.1712 9.04861 27.8672 8.72861 27.4832 8.50461C27.1099 8.28061 26.7099 8.16861 26.2832 8.16861C25.8566 8.16861 25.4566 8.28061 25.0832 8.50461C24.7099 8.72861 24.4059 9.04861 24.1712 9.46461C23.9366 9.86994 23.8192 10.3553 23.8192 10.9206C23.8192 11.4753 23.9366 11.9606 24.1712 12.3766C24.4059 12.7926 24.7099 13.1126 25.0832 13.3366C25.4566 13.5606 25.8566 13.6726 26.2832 13.6726ZM35.0305 15.2566C34.4438 15.2566 33.9212 15.1393 33.4625 14.9046C33.0145 14.6699 32.6572 14.3499 32.3905 13.9446C32.1345 13.5286 32.0065 13.0539 32.0065 12.5206C32.0065 11.9339 32.1558 11.4379 32.4545 11.0326C32.7638 10.6273 33.1745 10.3179 33.6865 10.1046C34.1985 9.89128 34.7638 9.78461 35.3825 9.78461C35.7238 9.78461 36.0385 9.81128 36.3265 9.86461C36.6252 9.90728 36.8812 9.96061 37.0945 10.0246C37.3185 10.0886 37.4945 10.1579 37.6225 10.2326V9.80061C37.6225 9.26728 37.4305 8.84061 37.0465 8.52061C36.6625 8.20061 36.1665 8.04061 35.5585 8.04061C35.1425 8.04061 34.7478 8.13661 34.3745 8.32861C34.0012 8.50994 33.7025 8.76061 33.4785 9.08061L32.2945 8.16861C32.5292 7.83794 32.8118 7.55528 33.1425 7.32061C33.4838 7.08594 33.8625 6.90461 34.2785 6.77661C34.7052 6.64861 35.1478 6.58461 35.6065 6.58461C36.7905 6.58461 37.7025 6.87794 38.3425 7.46461C38.9825 8.04061 39.3025 8.85128 39.3025 9.89661V15.0006H37.6225V13.9926H37.5265C37.3878 14.2059 37.1958 14.4086 36.9505 14.6006C36.7158 14.7926 36.4332 14.9473 36.1025 15.0646C35.7825 15.1926 35.4252 15.2566 35.0305 15.2566ZM35.3345 13.8486C35.7825 13.8486 36.1772 13.7419 36.5185 13.5286C36.8705 13.3153 37.1425 13.0379 37.3345 12.6966C37.5265 12.3446 37.6225 11.9659 37.6225 11.5606C37.3878 11.4219 37.0998 11.3099 36.7585 11.2246C36.4278 11.1286 36.0758 11.0806 35.7025 11.0806C34.9985 11.0806 34.4972 11.2193 34.1985 11.4966C33.8998 11.7739 33.7505 12.1206 33.7505 12.5366C33.7505 12.9206 33.8945 13.2353 34.1825 13.4806C34.4705 13.7259 34.8545 13.8486 35.3345 13.8486ZM40.7949 18.6166C40.6242 18.6166 40.4695 18.6059 40.3309 18.5846C40.1815 18.5633 40.0375 18.5366 39.8989 18.5046V16.8406C39.9949 16.8939 40.1122 16.9419 40.2509 16.9846C40.3895 17.0273 40.5229 17.0486 40.6509 17.0486C40.9495 17.0486 41.1629 16.9526 41.2909 16.7606C41.4189 16.5793 41.4829 16.3126 41.4829 15.9606V6.84061H43.2109V15.9766C43.2109 16.6059 43.1042 17.1126 42.8909 17.4966C42.6882 17.8806 42.4055 18.1633 42.0429 18.3446C41.6802 18.5259 41.2642 18.6166 40.7949 18.6166ZM42.3469 5.64061C42.0269 5.64061 41.7495 5.52861 41.5149 5.30461C41.2909 5.06994 41.1789 4.79261 41.1789 4.47261C41.1789 4.14194 41.2909 3.86994 41.5149 3.65661C41.7495 3.43261 42.0269 3.32061 42.3469 3.32061C42.6775 3.32061 42.9549 3.43261 43.1789 3.65661C43.4029 3.86994 43.5149 4.14194 43.5149 4.47261C43.5149 4.79261 43.4029 5.06994 43.1789 5.30461C42.9549 5.52861 42.6775 5.64061 42.3469 5.64061ZM52.8772 15.2566C52.1412 15.2566 51.4746 15.0699 50.8772 14.6966C50.2799 14.3233 49.8106 13.8113 49.4692 13.1606C49.1279 12.5099 48.9572 11.7633 48.9572 10.9206C48.9572 10.0779 49.1279 9.33128 49.4692 8.68061C49.8106 8.02994 50.2799 7.51794 50.8772 7.14461C51.4746 6.77128 52.1412 6.58461 52.8772 6.58461C53.3039 6.58461 53.6879 6.64861 54.0292 6.77661C54.3706 6.90461 54.6639 7.07528 54.9092 7.28861C55.1652 7.49128 55.3626 7.70994 55.5012 7.94461H55.5972L55.5012 6.80861V3.54461H57.2132V15.0006H55.5972V13.9126H55.5012C55.3626 14.1366 55.1652 14.3553 54.9092 14.5686C54.6639 14.7713 54.3706 14.9366 54.0292 15.0646C53.6879 15.1926 53.3039 15.2566 52.8772 15.2566ZM53.1332 13.6726C53.5599 13.6726 53.9599 13.5606 54.3332 13.3366C54.7172 13.1126 55.0212 12.7979 55.2452 12.3926C55.4799 11.9766 55.5972 11.4859 55.5972 10.9206C55.5972 10.3553 55.4799 9.86994 55.2452 9.46461C55.0212 9.04861 54.7172 8.72861 54.3332 8.50461C53.9599 8.28061 53.5599 8.16861 53.1332 8.16861C52.7066 8.16861 52.3066 8.28061 51.9332 8.50461C51.5599 8.72861 51.2559 9.04861 51.0212 9.46461C50.7866 9.86994 50.6692 10.3553 50.6692 10.9206C50.6692 11.4753 50.7866 11.9606 51.0212 12.3766C51.2559 12.7926 51.5599 13.1126 51.9332 13.3366C52.3066 13.5606 52.7066 13.6726 53.1332 13.6726ZM63.1605 15.2566C62.3178 15.2566 61.5765 15.0646 60.9365 14.6806C60.2965 14.2966 59.7952 13.7793 59.4325 13.1286C59.0698 12.4673 58.8885 11.7313 58.8885 10.9206C58.8885 10.1099 59.0698 9.37928 59.4325 8.72861C59.7952 8.06728 60.2965 7.54461 60.9365 7.16061C61.5765 6.77661 62.3178 6.58461 63.1605 6.58461C63.9925 6.58461 64.7285 6.78194 65.3685 7.17661C66.0085 7.56061 66.5098 8.07794 66.8725 8.72861C67.2352 9.37928 67.4165 10.1099 67.4165 10.9206C67.4165 11.7313 67.2352 12.4673 66.8725 13.1286C66.5098 13.7793 66.0085 14.2966 65.3685 14.6806C64.7285 15.0646 63.9925 15.2566 63.1605 15.2566ZM63.1605 13.6726C63.6085 13.6726 64.0245 13.5659 64.4085 13.3526C64.7925 13.1286 65.1018 12.8139 65.3365 12.4086C65.5818 11.9926 65.7045 11.4966 65.7045 10.9206C65.7045 10.3446 65.5818 9.85394 65.3365 9.44861C65.1018 9.03261 64.7925 8.71794 64.4085 8.50461C64.0245 8.28061 63.6085 8.16861 63.1605 8.16861C62.7125 8.16861 62.2912 8.28061 61.8965 8.50461C61.5125 8.71794 61.1978 9.03261 60.9525 9.44861C60.7178 9.85394 60.6005 10.3446 60.6005 10.9206C60.6005 11.4966 60.7178 11.9926 60.9525 12.4086C61.1978 12.8139 61.5178 13.1286 61.9125 13.3526C62.3072 13.5659 62.7232 13.6726 63.1605 13.6726Z" fill="white"/>
<g id="GPay (Dark)">
<g id="GPay">
<g id="Pay">
<path id="Fill 1" fill-rule="evenodd" clip-rule="evenodd" d="M96.3563 3.42339V8.16175H99.2784C99.9745 8.16175 100.55 7.92781 101.005 7.45993C101.473 6.99313 101.707 6.43644 101.707 5.79203C101.707 5.16061 101.473 4.61041 101.005 4.14254C100.55 3.66274 99.9745 3.4223 99.2784 3.4223H96.3563V3.42339ZM96.3563 9.82966V15.3262H94.6107V1.75549H99.2404C100.417 1.75549 101.415 2.14756 102.238 2.93061C103.073 3.71365 103.491 4.66782 103.491 5.79203C103.491 6.94224 103.073 7.90291 102.238 8.67296C101.428 9.44409 100.429 9.82858 99.2404 9.82858H96.3563V9.82966Z" fill="white"/>
<path id="Fill 3" fill-rule="evenodd" clip-rule="evenodd" d="M105.255 12.4831C105.255 12.9379 105.448 13.317 105.834 13.6203C106.22 13.9235 106.672 14.0752 107.19 14.0752C107.924 14.0752 108.578 13.8032 109.153 13.2607C109.729 12.717 110.017 12.0791 110.017 11.3469C109.472 10.917 108.713 10.7025 107.74 10.7025C107.031 10.7025 106.44 10.8736 105.966 11.2148C105.492 11.5559 105.255 11.9773 105.255 12.4831M107.513 5.73566C108.803 5.73566 109.821 6.08007 110.569 6.76889C111.314 7.45771 111.687 8.40213 111.687 9.60216V15.3261H110.018V14.0373H109.942C109.221 15.0985 108.259 15.6294 107.058 15.6294C106.033 15.6294 105.176 15.3261 104.487 14.7196C103.797 14.1131 103.453 13.3549 103.453 12.4452C103.453 11.4845 103.816 10.7208 104.543 10.1523C105.271 9.58375 106.241 9.2989 107.456 9.2989C108.492 9.2989 109.346 9.48844 110.017 9.86751V9.46894C110.017 8.86243 109.776 8.34798 109.296 7.92451C108.814 7.50103 108.252 7.28984 107.607 7.28984C106.633 7.28984 105.862 7.70032 105.293 8.52235L103.755 7.55519C104.603 6.34217 105.855 5.73566 107.513 5.73566" fill="white"/>
<path id="Fill 5" fill-rule="evenodd" clip-rule="evenodd" d="M121.269 6.03894L115.443 19.4201H113.641L115.804 14.738L111.971 6.03894H113.869L116.639 12.7106H116.677L119.371 6.03894H121.269Z" fill="white"/>
</g>
<g id="G">
<path id="Fill 8" fill-rule="evenodd" clip-rule="evenodd" d="M89.3029 8.64473C89.3029 8.09563 89.2562 7.56601 89.1684 7.05914H81.8065V10.0625H86.0231C85.842 11.0414 85.2944 11.8744 84.4639 12.4322V14.3828H86.9804C88.4539 13.0246 89.3029 11.0177 89.3029 8.64473" fill="#4285F4"/>
<path id="Fill 10" fill-rule="evenodd" clip-rule="evenodd" d="M81.8065 16.2651C83.9131 16.2651 85.6869 15.5741 86.9804 14.3828L84.4639 12.4322C83.7635 12.9033 82.8614 13.1784 81.8065 13.1784C79.7703 13.1784 78.042 11.8073 77.424 9.95959H74.8316V11.9687C76.1164 14.516 78.7565 16.2651 81.8065 16.2651" fill="#34A853"/>
<path id="Fill 12" fill-rule="evenodd" clip-rule="evenodd" d="M77.424 9.9596C77.2657 9.48847 77.179 8.98593 77.179 8.46715C77.179 7.94837 77.2657 7.44583 77.424 6.9747V4.96564H74.8316C74.3003 6.01837 74 7.20756 74 8.46715C74 9.72674 74.3003 10.916 74.8316 11.9687L77.424 9.9596Z" fill="#FABB05"/>
<path id="Fill 14" fill-rule="evenodd" clip-rule="evenodd" d="M81.8065 3.75583C82.9568 3.75583 83.9879 4.15115 84.8011 4.92553V4.92661L87.0292 2.70094C85.6761 1.44243 83.912 0.669128 81.8065 0.669128C78.7565 0.669128 76.1164 2.41826 74.8316 4.9656L77.424 6.97467C78.042 5.12698 79.7703 3.75583 81.8065 3.75583" fill="#E94235"/>
</g>
</g>
</g>
</g>
</svg>
