<svg width="151" height="21" viewBox="0 0 151 21" fill="none" xmlns="http://www.w3.org/2000/svg">
<g id="pl_book_with_Pay_NBG">
<path id="Left Text" d="M1.22362 15.0006V13.2086L7.22362 5.20861H1.47962V3.54461H9.25562V5.33661L3.30362 13.3366H9.31962V15.0006H1.22362ZM13.7867 15.2566C13.2001 15.2566 12.6774 15.1393 12.2187 14.9046C11.7707 14.6699 11.4134 14.3499 11.1467 13.9446C10.8907 13.5286 10.7627 13.0539 10.7627 12.5206C10.7627 11.9339 10.9121 11.4379 11.2107 11.0326C11.5201 10.6273 11.9307 10.3179 12.4427 10.1046C12.9547 9.89128 13.5201 9.78461 14.1387 9.78461C14.4801 9.78461 14.7947 9.81128 15.0827 9.86461C15.3814 9.90728 15.6374 9.96061 15.8507 10.0246C16.0747 10.0886 16.2507 10.1579 16.3787 10.2326V9.80061C16.3787 9.26728 16.1867 8.84061 15.8027 8.52061C15.4187 8.20061 14.9227 8.04061 14.3147 8.04061C13.8987 8.04061 13.5041 8.13661 13.1307 8.32861C12.7574 8.50994 12.4587 8.76061 12.2347 9.08061L11.0507 8.16861C11.2854 7.83794 11.5681 7.55528 11.8987 7.32061C12.2401 7.08594 12.6187 6.90461 13.0347 6.77661C13.4614 6.64861 13.9041 6.58461 14.3627 6.58461C15.5467 6.58461 16.4587 6.87794 17.0987 7.46461C17.7387 8.04061 18.0587 8.85128 18.0587 9.89661V15.0006H16.3787V13.9926H16.2827C16.1441 14.2059 15.9521 14.4086 15.7067 14.6006C15.4721 14.7926 15.1894 14.9473 14.8587 15.0646C14.5387 15.1926 14.1814 15.2566 13.7867 15.2566ZM14.0907 13.8486C14.5387 13.8486 14.9334 13.7419 15.2747 13.5286C15.6267 13.3153 15.8987 13.0379 16.0907 12.6966C16.2827 12.3446 16.3787 11.9659 16.3787 11.5606C16.1441 11.4219 15.8561 11.3099 15.5147 11.2246C15.1841 11.1286 14.8321 11.0806 14.4587 11.0806C13.7547 11.0806 13.2534 11.2193 12.9547 11.4966C12.6561 11.7739 12.5067 12.1206 12.5067 12.5366C12.5067 12.9206 12.6507 13.2353 12.9387 13.4806C13.2267 13.7259 13.6107 13.8486 14.0907 13.8486ZM20.1111 15.0006V6.84061H21.7431V8.04061H21.8391C21.9671 7.76328 22.1485 7.51794 22.3831 7.30461C22.6285 7.09128 22.9058 6.92061 23.2151 6.79261C23.5351 6.66461 23.8658 6.60061 24.2071 6.60061C24.4311 6.60061 24.6178 6.61661 24.7671 6.64861C24.9271 6.66994 25.0711 6.70728 25.1991 6.76061V8.55261C24.9965 8.46728 24.7885 8.39794 24.5751 8.34461C24.3725 8.29128 24.1591 8.26461 23.9351 8.26461C23.5298 8.26461 23.1671 8.37661 22.8471 8.60061C22.5378 8.81394 22.2925 9.10194 22.1111 9.46461C21.9298 9.82728 21.8391 10.2326 21.8391 10.6806V15.0006H20.1111ZM29.9266 15.2566C29.1266 15.2566 28.412 15.0699 27.7826 14.6966C27.1533 14.3233 26.6573 13.8113 26.2946 13.1606C25.9426 12.5099 25.7666 11.7686 25.7666 10.9366C25.7666 10.1579 25.9373 9.43794 26.2786 8.77661C26.62 8.11528 27.0946 7.58728 27.7026 7.19261C28.3213 6.78728 29.0306 6.58461 29.8306 6.58461C30.6733 6.58461 31.388 6.76594 31.9746 7.12861C32.572 7.49128 33.0253 7.98728 33.3346 8.61661C33.644 9.24594 33.7986 9.95528 33.7986 10.7446C33.7986 10.8619 33.7933 10.9686 33.7826 11.0646C33.7826 11.1606 33.7773 11.2353 33.7666 11.2886H27.4626C27.5053 11.7366 27.6173 12.1259 27.7986 12.4566C28.0333 12.8726 28.3426 13.1873 28.7266 13.4006C29.1106 13.6139 29.5266 13.7206 29.9746 13.7206C30.5186 13.7206 30.972 13.5979 31.3346 13.3526C31.708 13.0966 32.0013 12.7819 32.2146 12.4086L33.6386 13.0966C33.2866 13.7366 32.8066 14.2593 32.1986 14.6646C31.5906 15.0593 30.8333 15.2566 29.9266 15.2566ZM27.5586 9.99261H32.0866C32.076 9.78994 32.0226 9.57661 31.9266 9.35261C31.8306 9.11794 31.692 8.90461 31.5106 8.71261C31.3293 8.52061 31.1 8.36594 30.8226 8.24861C30.5453 8.12061 30.22 8.05661 29.8466 8.05661C29.3773 8.05661 28.9613 8.17928 28.5986 8.42461C28.236 8.65928 27.9533 8.98994 27.7506 9.41661C27.6653 9.59794 27.6013 9.78994 27.5586 9.99261ZM35.0576 15.0006V13.5606L39.6016 8.34461H35.2016V6.84061H41.7136V8.28061L37.1856 13.4966H41.8416V15.0006H35.0576ZM47.1797 15.2566C46.3797 15.2566 45.6651 15.0699 45.0357 14.6966C44.4064 14.3233 43.9104 13.8113 43.5477 13.1606C43.1957 12.5099 43.0197 11.7686 43.0197 10.9366C43.0197 10.1579 43.1904 9.43794 43.5317 8.77661C43.8731 8.11528 44.3477 7.58728 44.9557 7.19261C45.5744 6.78728 46.2837 6.58461 47.0837 6.58461C47.9264 6.58461 48.6411 6.76594 49.2277 7.12861C49.8251 7.49128 50.2784 7.98728 50.5877 8.61661C50.8971 9.24594 51.0517 9.95528 51.0517 10.7446C51.0517 10.8619 51.0464 10.9686 51.0357 11.0646C51.0357 11.1606 51.0304 11.2353 51.0197 11.2886H44.7157C44.7584 11.7366 44.8704 12.1259 45.0517 12.4566C45.2864 12.8726 45.5957 13.1873 45.9797 13.4006C46.3637 13.6139 46.7797 13.7206 47.2277 13.7206C47.7717 13.7206 48.2251 13.5979 48.5877 13.3526C48.9611 13.0966 49.2544 12.7819 49.4677 12.4086L50.8917 13.0966C50.5397 13.7366 50.0597 14.2593 49.4517 14.6646C48.8437 15.0593 48.0864 15.2566 47.1797 15.2566ZM44.8117 9.99261H49.3397C49.3291 9.78994 49.2757 9.57661 49.1797 9.35261C49.0837 9.11794 48.9451 8.90461 48.7637 8.71261C48.5824 8.52061 48.3531 8.36594 48.0757 8.24861C47.7984 8.12061 47.4731 8.05661 47.0997 8.05661C46.6304 8.05661 46.2144 8.17928 45.8517 8.42461C45.4891 8.65928 45.2064 8.98994 45.0037 9.41661C44.9184 9.59794 44.8544 9.78994 44.8117 9.99261ZM52.8049 15.0006V6.84061H54.4369V8.04061H54.5329C54.6609 7.76328 54.8422 7.51794 55.0769 7.30461C55.3222 7.09128 55.5995 6.92061 55.9089 6.79261C56.2289 6.66461 56.5595 6.60061 56.9009 6.60061C57.1249 6.60061 57.3115 6.61661 57.4609 6.64861C57.6209 6.66994 57.7649 6.70728 57.8929 6.76061V8.55261C57.6902 8.46728 57.4822 8.39794 57.2689 8.34461C57.0662 8.29128 56.8529 8.26461 56.6289 8.26461C56.2235 8.26461 55.8609 8.37661 55.5409 8.60061C55.2315 8.81394 54.9862 9.10194 54.8049 9.46461C54.6235 9.82728 54.5329 10.2326 54.5329 10.6806V15.0006H52.8049ZM61.245 15.0006L58.637 6.84061H60.509L62.189 12.7126H62.253L64.093 6.84061H65.869L67.709 12.7126H67.773L69.453 6.84061H71.293L68.669 15.0006H66.861L64.973 9.09661H64.909L63.037 15.0006H61.245ZM75.518 15.2566C74.5153 15.2566 73.758 14.9579 73.246 14.3606C72.7447 13.7526 72.494 12.9313 72.494 11.8966V6.84061H74.222V11.6566C74.222 12.3393 74.382 12.8459 74.702 13.1766C75.0327 13.5073 75.4433 13.6726 75.934 13.6726C76.382 13.6726 76.766 13.5606 77.086 13.3366C77.406 13.1019 77.6513 12.7979 77.822 12.4246C78.0033 12.0513 78.094 11.6513 78.094 11.2246V6.84061H79.806V15.0006H78.19V13.8966H78.094C77.9447 14.1526 77.7367 14.3819 77.47 14.5846C77.2033 14.7873 76.9047 14.9473 76.574 15.0646C76.2433 15.1926 75.8913 15.2566 75.518 15.2566ZM81.4292 18.6166C81.2586 18.6166 81.1039 18.6059 80.9652 18.5846C80.8159 18.5633 80.6719 18.5366 80.5332 18.5046V16.8406C80.6292 16.8939 80.7466 16.9419 80.8852 16.9846C81.0239 17.0273 81.1572 17.0486 81.2852 17.0486C81.5839 17.0486 81.7972 16.9526 81.9252 16.7606C82.0532 16.5793 82.1172 16.3126 82.1172 15.9606V6.84061H83.8452V15.9766C83.8452 16.6059 83.7386 17.1126 83.5252 17.4966C83.3226 17.8806 83.0399 18.1633 82.6772 18.3446C82.3146 18.5259 81.8986 18.6166 81.4292 18.6166ZM82.9812 5.64061C82.6612 5.64061 82.3839 5.52861 82.1492 5.30461C81.9252 5.06994 81.8132 4.79261 81.8132 4.47261C81.8132 4.14194 81.9252 3.86994 82.1492 3.65661C82.3839 3.43261 82.6612 3.32061 82.9812 3.32061C83.3119 3.32061 83.5892 3.43261 83.8132 3.65661C84.0372 3.86994 84.1492 4.14194 84.1492 4.47261C84.1492 4.79261 84.0372 5.06994 83.8132 5.30461C83.5892 5.52861 83.3119 5.64061 82.9812 5.64061ZM89.6076 15.0006V13.5606L94.1516 8.34461H89.7516V6.84061H96.2636V8.28061L91.7356 13.4966H96.3916V15.0006H89.6076Z" fill="white"/>
<g id="GPay (Dark)">
<g id="GPay">
<g id="Pay">
<path id="Fill 1" fill-rule="evenodd" clip-rule="evenodd" d="M125.356 3.42339V8.16175H128.278C128.974 8.16175 129.55 7.92781 130.005 7.45993C130.473 6.99313 130.707 6.43644 130.707 5.79203C130.707 5.16061 130.473 4.61041 130.005 4.14254C129.55 3.66274 128.974 3.4223 128.278 3.4223H125.356V3.42339ZM125.356 9.82966V15.3262H123.611V1.75549H128.24C129.417 1.75549 130.415 2.14756 131.238 2.93061C132.073 3.71365 132.491 4.66782 132.491 5.79203C132.491 6.94224 132.073 7.90291 131.238 8.67296C130.428 9.44409 129.429 9.82858 128.24 9.82858H125.356V9.82966Z" fill="white"/>
<path id="Fill 3" fill-rule="evenodd" clip-rule="evenodd" d="M134.255 12.4831C134.255 12.9379 134.448 13.317 134.834 13.6203C135.22 13.9235 135.672 14.0752 136.19 14.0752C136.924 14.0752 137.578 13.8032 138.153 13.2607C138.729 12.717 139.017 12.0791 139.017 11.3469C138.472 10.917 137.713 10.7025 136.74 10.7025C136.031 10.7025 135.44 10.8736 134.966 11.2148C134.492 11.5559 134.255 11.9773 134.255 12.4831M136.513 5.73566C137.803 5.73566 138.821 6.08007 139.569 6.76889C140.314 7.45771 140.687 8.40213 140.687 9.60216V15.3261H139.018V14.0373H138.942C138.221 15.0985 137.259 15.6294 136.058 15.6294C135.033 15.6294 134.176 15.3261 133.487 14.7196C132.797 14.1131 132.453 13.3549 132.453 12.4452C132.453 11.4845 132.816 10.7208 133.543 10.1523C134.271 9.58375 135.241 9.2989 136.456 9.2989C137.492 9.2989 138.346 9.48844 139.017 9.86751V9.46894C139.017 8.86243 138.776 8.34798 138.296 7.92451C137.814 7.50103 137.252 7.28984 136.607 7.28984C135.633 7.28984 134.862 7.70032 134.293 8.52235L132.755 7.55519C133.603 6.34217 134.855 5.73566 136.513 5.73566" fill="white"/>
<path id="Fill 5" fill-rule="evenodd" clip-rule="evenodd" d="M150.269 6.03894L144.443 19.4201H142.641L144.804 14.738L140.971 6.03894H142.869L145.639 12.7106H145.677L148.371 6.03894H150.269Z" fill="white"/>
</g>
<g id="G">
<path id="Fill 8" fill-rule="evenodd" clip-rule="evenodd" d="M118.303 8.64473C118.303 8.09563 118.256 7.56601 118.168 7.05914H110.806V10.0625H115.023C114.842 11.0414 114.294 11.8744 113.464 12.4322V14.3828H115.98C117.454 13.0246 118.303 11.0177 118.303 8.64473" fill="#4285F4"/>
<path id="Fill 10" fill-rule="evenodd" clip-rule="evenodd" d="M110.806 16.2651C112.913 16.2651 114.687 15.5741 115.98 14.3828L113.464 12.4322C112.763 12.9033 111.861 13.1784 110.806 13.1784C108.77 13.1784 107.042 11.8073 106.424 9.95959H103.832V11.9687C105.116 14.516 107.757 16.2651 110.806 16.2651" fill="#34A853"/>
<path id="Fill 12" fill-rule="evenodd" clip-rule="evenodd" d="M106.424 9.9596C106.266 9.48847 106.179 8.98593 106.179 8.46715C106.179 7.94837 106.266 7.44583 106.424 6.9747V4.96564H103.832C103.3 6.01837 103 7.20756 103 8.46715C103 9.72674 103.3 10.916 103.832 11.9687L106.424 9.9596Z" fill="#FABB05"/>
<path id="Fill 14" fill-rule="evenodd" clip-rule="evenodd" d="M110.806 3.75583C111.957 3.75583 112.988 4.15115 113.801 4.92553V4.92661L116.029 2.70094C114.676 1.44243 112.912 0.669128 110.806 0.669128C107.757 0.669128 105.116 2.41826 103.832 4.9656L106.424 6.97467C107.042 5.12698 108.77 3.75583 110.806 3.75583" fill="#E94235"/>
</g>
</g>
</g>
</g>
</svg>
