<svg width="322" height="38" viewBox="0 0 322 38" fill="none" xmlns="http://www.w3.org/2000/svg">
<g id="pl_book_with_Dark">
<path id="Text" d="M1.08353 30V26.864L11.5835 12.864H1.53153V9.952H15.1395V13.088L4.72353 27.088H15.2515V30H1.08353ZM23.1065 30.448C22.0798 30.448 21.1652 30.252 20.3625 29.86C19.5598 29.4493 18.9345 28.88 18.4865 28.152C18.0385 27.424 17.8145 26.5933 17.8145 25.66C17.8145 24.652 18.0758 23.7933 18.5985 23.084C19.1398 22.356 19.8585 21.8053 20.7545 21.432C21.6505 21.0587 22.6398 20.872 23.7225 20.872C24.6185 20.872 25.4025 20.956 26.0745 21.124C26.7652 21.292 27.2878 21.4693 27.6425 21.656V20.9C27.6425 19.9667 27.3065 19.22 26.6345 18.66C25.9625 18.1 25.0945 17.82 24.0305 17.82C23.3025 17.82 22.6118 17.988 21.9585 18.324C21.3052 18.6413 20.7825 19.08 20.3905 19.64L18.3185 18.044C18.9345 17.1853 19.7465 16.5133 20.7545 16.028C21.7812 15.524 22.9012 15.272 24.1145 15.272C26.1865 15.272 27.7825 15.7853 28.9025 16.812C30.0225 17.82 30.5825 19.2387 30.5825 21.068V30H27.6425V28.236H27.4745C27.1012 28.8147 26.5412 29.328 25.7945 29.776C25.0478 30.224 24.1518 30.448 23.1065 30.448ZM23.6385 27.984C24.4225 27.984 25.1132 27.7973 25.7105 27.424C26.3078 27.0507 26.7745 26.5653 27.1105 25.968C27.4652 25.352 27.6425 24.6893 27.6425 23.98C27.2132 23.7373 26.7092 23.5413 26.1305 23.392C25.5518 23.224 24.9358 23.14 24.2825 23.14C23.0505 23.14 22.1732 23.392 21.6505 23.896C21.1278 24.3813 20.8665 24.9787 20.8665 25.688C20.8665 26.36 21.1185 26.9107 21.6225 27.34C22.1265 27.7693 22.7985 27.984 23.6385 27.984ZM34.2117 30V15.72H37.0677V17.82H37.2357C37.553 17.092 38.0943 16.4947 38.8597 16.028C39.6437 15.5427 40.4837 15.3 41.3797 15.3C41.7717 15.3 42.0983 15.328 42.3597 15.384C42.6397 15.44 42.8917 15.5053 43.1157 15.58V18.716C42.761 18.5667 42.397 18.4453 42.0237 18.352C41.669 18.2587 41.2957 18.212 40.9037 18.212C40.1943 18.212 39.5597 18.408 38.9997 18.8C38.4583 19.1733 38.029 19.6867 37.7117 20.34C37.3943 20.9747 37.2357 21.6747 37.2357 22.44V30H34.2117ZM51.4263 30.448C50.0263 30.448 48.7756 30.1213 47.6743 29.468C46.5729 28.8147 45.7049 27.9187 45.0703 26.78C44.4543 25.6413 44.1463 24.344 44.1463 22.888C44.1463 21.5253 44.4449 20.2653 45.0423 19.108C45.6396 17.9507 46.4703 17.0267 47.5343 16.336C48.6169 15.6267 49.8583 15.272 51.2583 15.272C52.7329 15.272 53.9836 15.5893 55.0103 16.224C56.0556 16.8587 56.8489 17.7267 57.3903 18.828C57.9316 19.9293 58.2023 21.1707 58.2023 22.552C58.2023 22.7573 58.193 22.944 58.1743 23.112C58.1743 23.28 58.1649 23.4107 58.1463 23.504H47.1143C47.2636 24.9227 47.7583 25.9867 48.5983 26.696C49.4569 27.4053 50.4276 27.76 51.5103 27.76C52.4809 27.76 53.2836 27.5453 53.9183 27.116C54.553 26.668 55.057 26.1173 55.4303 25.464L57.9223 26.668C57.3063 27.788 56.4663 28.7027 55.4023 29.412C54.3383 30.1027 53.0129 30.448 51.4263 30.448ZM51.2863 17.848C50.2783 17.848 49.4196 18.156 48.7103 18.772C48.0009 19.388 47.5249 20.2093 47.2823 21.236H55.2063C55.169 20.7507 55.0103 20.2467 54.7303 19.724C54.4503 19.2013 54.021 18.7627 53.4423 18.408C52.8823 18.0347 52.1636 17.848 51.2863 17.848ZM60.443 30V27.48L68.395 18.352H60.695V15.72H72.091V18.24L64.167 27.368H72.315V30H60.443ZM81.6943 30.448C80.2943 30.448 79.0436 30.1213 77.9423 29.468C76.8409 28.8147 75.9729 27.9187 75.3383 26.78C74.7223 25.6413 74.4143 24.344 74.4143 22.888C74.4143 21.5253 74.7129 20.2653 75.3103 19.108C75.9076 17.9507 76.7383 17.0267 77.8023 16.336C78.8849 15.6267 80.1263 15.272 81.5263 15.272C83.0009 15.272 84.2516 15.5893 85.2783 16.224C86.3236 16.8587 87.1169 17.7267 87.6583 18.828C88.1996 19.9293 88.4703 21.1707 88.4703 22.552C88.4703 22.7573 88.4609 22.944 88.4423 23.112C88.4423 23.28 88.4329 23.4107 88.4143 23.504H77.3823C77.5316 24.9227 78.0263 25.9867 78.8663 26.696C79.7249 27.4053 80.6956 27.76 81.7783 27.76C82.7489 27.76 83.5516 27.5453 84.1863 27.116C84.8209 26.668 85.3249 26.1173 85.6983 25.464L88.1902 26.668C87.5743 27.788 86.7343 28.7027 85.6703 29.412C84.6063 30.1027 83.2809 30.448 81.6943 30.448ZM81.5543 17.848C80.5463 17.848 79.6876 18.156 78.9783 18.772C78.2689 19.388 77.7929 20.2093 77.5503 21.236H85.4743C85.4369 20.7507 85.2783 20.2467 84.9983 19.724C84.7183 19.2013 84.2889 18.7627 83.7103 18.408C83.1503 18.0347 82.4316 17.848 81.5543 17.848ZM91.5757 30V15.72H94.4317V17.82H94.5997C94.9171 17.092 95.4584 16.4947 96.2237 16.028C97.0077 15.5427 97.8477 15.3 98.7437 15.3C99.1357 15.3 99.4624 15.328 99.7237 15.384C100.004 15.44 100.256 15.5053 100.48 15.58V18.716C100.125 18.5667 99.7611 18.4453 99.3877 18.352C99.0331 18.2587 98.6597 18.212 98.2677 18.212C97.5584 18.212 96.9237 18.408 96.3637 18.8C95.8224 19.1733 95.3931 19.6867 95.0757 20.34C94.7584 20.9747 94.5997 21.6747 94.5997 22.44V30H91.5757ZM106.383 30L101.819 15.72H105.095L108.035 25.996H108.147L111.367 15.72H114.475L117.695 25.996H117.807L120.747 15.72H123.967L119.375 30H116.211L112.907 19.668H112.795L109.519 30H106.383ZM131.399 30.448C129.644 30.448 128.319 29.9253 127.423 28.88C126.545 27.816 126.107 26.3787 126.107 24.568V15.72H129.131V24.148C129.131 25.3613 129.411 26.2573 129.971 26.836C130.549 27.396 131.268 27.676 132.127 27.676C132.892 27.676 133.555 27.48 134.115 27.088C134.693 26.6773 135.132 26.1547 135.431 25.52C135.748 24.8667 135.907 24.1573 135.907 23.392V15.72H138.903V30H136.075V28.068H135.907C135.496 28.74 134.88 29.3093 134.059 29.776C133.256 30.224 132.369 30.448 131.399 30.448ZM144.497 13.62C143.937 13.62 143.452 13.424 143.041 13.032C142.649 12.6213 142.453 12.136 142.453 11.576C142.453 11.016 142.649 10.54 143.041 10.148C143.452 9.756 143.937 9.56 144.497 9.56C145.057 9.56 145.533 9.756 145.925 10.148C146.336 10.54 146.541 11.016 146.541 11.576C146.541 12.136 146.336 12.6213 145.925 13.032C145.533 13.424 145.057 13.62 144.497 13.62ZM141.781 36.328C141.202 36.328 140.68 36.2627 140.213 36.132V33.22C140.4 33.332 140.614 33.416 140.857 33.472C141.081 33.5467 141.305 33.584 141.529 33.584C142.07 33.584 142.444 33.416 142.649 33.08C142.873 32.7627 142.985 32.296 142.985 31.68V15.72H146.009V31.708C146.009 33.3507 145.608 34.5267 144.805 35.236C144.002 35.964 142.994 36.328 141.781 36.328ZM156.868 36.048V15.72H159.696V17.652H159.864C160.237 17.036 160.816 16.4853 161.6 16C162.403 15.5147 163.355 15.272 164.456 15.272C165.763 15.272 166.929 15.5987 167.956 16.252C168.983 16.9053 169.795 17.8013 170.392 18.94C171.008 20.0787 171.316 21.3853 171.316 22.86C171.316 24.3347 171.008 25.6507 170.392 26.808C169.795 27.9467 168.983 28.8427 167.956 29.496C166.929 30.1307 165.763 30.448 164.456 30.448C163.355 30.448 162.403 30.2147 161.6 29.748C160.816 29.2627 160.237 28.712 159.864 28.096H159.696L159.864 30.084V36.048H156.868ZM164.008 27.676C164.755 27.676 165.455 27.48 166.108 27.088C166.761 26.696 167.293 26.1453 167.704 25.436C168.115 24.708 168.32 23.8493 168.32 22.86C168.32 21.8707 168.115 21.0213 167.704 20.312C167.293 19.584 166.761 19.024 166.108 18.632C165.455 18.24 164.755 18.044 164.008 18.044C163.261 18.044 162.561 18.24 161.908 18.632C161.255 19.024 160.723 19.584 160.312 20.312C159.901 21.0213 159.696 21.8707 159.696 22.86C159.696 23.8493 159.901 24.708 160.312 25.436C160.723 26.1453 161.255 26.696 161.908 27.088C162.561 27.48 163.261 27.676 164.008 27.676ZM174.259 30V15.72H177.115V17.82H177.283C177.6 17.092 178.141 16.4947 178.907 16.028C179.691 15.5427 180.531 15.3 181.427 15.3C181.819 15.3 182.145 15.328 182.407 15.384C182.687 15.44 182.939 15.5053 183.163 15.58V18.716C182.808 18.5667 182.444 18.4453 182.071 18.352C181.716 18.2587 181.343 18.212 180.951 18.212C180.241 18.212 179.607 18.408 179.047 18.8C178.505 19.1733 178.076 19.6867 177.759 20.34C177.441 20.9747 177.283 21.6747 177.283 22.44V30H174.259ZM184.795 30V27.48L192.747 18.352H185.047V15.72H196.443V18.24L188.519 27.368H196.667V30H184.795ZM206.047 30.448C204.647 30.448 203.396 30.1213 202.295 29.468C201.193 28.8147 200.325 27.9187 199.691 26.78C199.075 25.6413 198.767 24.344 198.767 22.888C198.767 21.5253 199.065 20.2653 199.663 19.108C200.26 17.9507 201.091 17.0267 202.155 16.336C203.237 15.6267 204.479 15.272 205.879 15.272C207.353 15.272 208.604 15.5893 209.631 16.224C210.676 16.8587 211.469 17.7267 212.011 18.828C212.552 19.9293 212.823 21.1707 212.823 22.552C212.823 22.7573 212.813 22.944 212.795 23.112C212.795 23.28 212.785 23.4107 212.767 23.504H201.735C201.884 24.9227 202.379 25.9867 203.219 26.696C204.077 27.4053 205.048 27.76 206.131 27.76C207.101 27.76 207.904 27.5453 208.539 27.116C209.173 26.668 209.677 26.1173 210.051 25.464L212.543 26.668C211.927 27.788 211.087 28.7027 210.023 29.412C208.959 30.1027 207.633 30.448 206.047 30.448ZM205.907 17.848C204.899 17.848 204.04 18.156 203.331 18.772C202.621 19.388 202.145 20.2093 201.903 21.236H209.827C209.789 20.7507 209.631 20.2467 209.351 19.724C209.071 19.2013 208.641 18.7627 208.063 18.408C207.503 18.0347 206.784 17.848 205.907 17.848ZM215.063 30V27.48L223.015 18.352H215.315V15.72H226.711V18.24L218.787 27.368H226.935V30H215.063Z" fill="white"/>
<g id="GPay Logo (Dark)">
<g id="GPay">
<g id="Pay">
<path id="Fill 1" fill-rule="evenodd" clip-rule="evenodd" d="M278.529 9.34665V17.5128H283.565C284.765 17.5128 285.757 17.1096 286.541 16.3032C287.347 15.4988 287.75 14.5394 287.75 13.4288C287.75 12.3406 287.347 11.3924 286.541 10.586C285.757 9.75916 284.765 9.34479 283.565 9.34479H278.529V9.34665ZM278.529 20.3872V29.8599H275.521V6.47218H283.499C285.527 6.47218 287.248 7.14787 288.666 8.49738C290.105 9.84688 290.824 11.4913 290.824 13.4288C290.824 15.411 290.105 17.0667 288.666 18.3938C287.27 19.7227 285.547 20.3854 283.499 20.3854H278.529V20.3872Z" fill="white"/>
<path id="Fill 3" fill-rule="evenodd" clip-rule="evenodd" d="M293.864 24.9602C293.864 25.7442 294.197 26.3975 294.862 26.9201C295.527 27.4427 296.306 27.704 297.2 27.704C298.465 27.704 299.591 27.2354 300.584 26.3004C301.576 25.3634 302.071 24.264 302.071 23.0022C301.133 22.2612 299.825 21.8916 298.147 21.8916C296.925 21.8916 295.907 22.1866 295.09 22.7745C294.273 23.3623 293.864 24.0886 293.864 24.9602ZM297.756 13.3317C299.98 13.3317 301.735 13.9253 303.022 15.1124C304.308 16.2995 304.95 17.9271 304.95 19.9952V29.8599H302.073V27.6387H301.942C300.699 29.4677 299.042 30.3825 296.972 30.3825C295.206 30.3825 293.728 29.8599 292.541 28.8146C291.353 27.7694 290.759 26.4628 290.759 24.8949C290.759 23.2393 291.385 21.9232 292.638 20.9434C293.892 19.9635 295.565 19.4726 297.658 19.4726C299.444 19.4726 300.916 19.7993 302.071 20.4525V19.7657C302.071 18.7204 301.656 17.8338 300.829 17.104C299.999 16.3742 299.031 16.0102 297.919 16.0102C296.239 16.0102 294.911 16.7176 293.93 18.1343L291.28 16.4675C292.741 14.377 294.899 13.3317 297.756 13.3317Z" fill="white"/>
<path id="Fill 5" fill-rule="evenodd" clip-rule="evenodd" d="M321.463 13.8543L311.424 36.9154H308.318L312.046 28.8464L305.44 13.8543H308.71L313.484 25.3522H313.55L318.193 13.8543H321.463Z" fill="white"/>
</g>
<g id="G">
<path id="Fill 8" fill-rule="evenodd" clip-rule="evenodd" d="M266.373 18.3452C266.373 17.3989 266.293 16.4861 266.141 15.6126H253.454V20.7885H260.72C260.408 22.4757 259.465 23.9112 258.033 24.8725V28.2341H262.37C264.91 25.8935 266.373 22.4348 266.373 18.3452Z" fill="#4285F4"/>
<path id="Fill 10" fill-rule="evenodd" clip-rule="evenodd" d="M253.454 31.4782C257.084 31.4782 260.141 30.2873 262.37 28.2341L258.033 24.8725C256.826 25.6844 255.272 26.1585 253.454 26.1585C249.944 26.1585 246.966 23.7955 245.901 20.6112H241.433V24.0736C243.647 28.4637 248.197 31.4782 253.454 31.4782Z" fill="#34A853"/>
<path id="Fill 12" fill-rule="evenodd" clip-rule="evenodd" d="M245.901 20.6111C245.628 19.7992 245.479 18.9331 245.479 18.0391C245.479 17.145 245.628 16.2789 245.901 15.467V12.0045H241.433C240.518 13.8188 240 15.8683 240 18.0391C240 20.2098 240.518 22.2595 241.433 24.0736L245.901 20.6111Z" fill="#FABB05"/>
<path id="Fill 14" fill-rule="evenodd" clip-rule="evenodd" d="M253.454 9.91964C255.436 9.91964 257.213 10.6009 258.615 11.9355V11.9374L262.455 8.10163C260.123 5.93272 257.082 4.60001 253.454 4.60001C248.197 4.60001 243.647 7.61447 241.433 12.0046L245.901 15.467C246.966 12.2827 249.944 9.91964 253.454 9.91964Z" fill="#E94235"/>
</g>
</g>
</g>
</g>
</svg>
