<svg width="116" height="21" viewBox="0 0 116 21" fill="none" xmlns="http://www.w3.org/2000/svg">
<g id="pl_buy_with_Pay_NBG">
<path id="Left Text" d="M1.83975 15.0006V3.54461H3.59975V9.17661L8.36775 3.54461H10.5438V3.64061L6.35175 8.47261L10.9118 14.9046V15.0006H8.76775L5.16775 9.84861L3.59975 11.6726V15.0006H1.83975ZM14.8805 15.2566C13.8778 15.2566 13.1205 14.9579 12.6085 14.3606C12.1072 13.7526 11.8565 12.9313 11.8565 11.8966V6.84061H13.5845V11.6566C13.5845 12.3393 13.7445 12.8459 14.0645 13.1766C14.3952 13.5073 14.8058 13.6726 15.2965 13.6726C15.7445 13.6726 16.1285 13.5606 16.4485 13.3366C16.7685 13.1019 17.0138 12.7979 17.1845 12.4246C17.3658 12.0513 17.4565 11.6513 17.4565 11.2246V6.84061H19.1685V15.0006H17.5525V13.8966H17.4565C17.3072 14.1526 17.0992 14.3819 16.8325 14.5846C16.5658 14.7873 16.2672 14.9473 15.9365 15.0646C15.6058 15.1926 15.2538 15.2566 14.8805 15.2566ZM21.3358 18.4566V6.84061H22.9518V7.94461H23.0478C23.1971 7.70994 23.3944 7.49128 23.6398 7.28861C23.8958 7.07528 24.1944 6.90461 24.5358 6.77661C24.8771 6.64861 25.2558 6.58461 25.6718 6.58461C26.4184 6.58461 27.0851 6.77128 27.6718 7.14461C28.2584 7.51794 28.7224 8.02994 29.0638 8.68061C29.4158 9.33128 29.5918 10.0779 29.5918 10.9206C29.5918 11.7633 29.4158 12.5099 29.0638 13.1606C28.7224 13.8113 28.2584 14.3233 27.6718 14.6966C27.0851 15.0699 26.4184 15.2566 25.6718 15.2566C25.0531 15.2566 24.5144 15.1179 24.0558 14.8406C23.5971 14.5633 23.2611 14.2539 23.0478 13.9126H22.9518L23.0478 15.0486V18.4566H21.3358ZM25.4158 13.6726C25.8424 13.6726 26.2424 13.5606 26.6158 13.3366C26.9998 13.1126 27.3038 12.7926 27.5278 12.3766C27.7624 11.9606 27.8798 11.4753 27.8798 10.9206C27.8798 10.3553 27.7624 9.86994 27.5278 9.46461C27.3038 9.04861 26.9998 8.72861 26.6158 8.50461C26.2424 8.28061 25.8424 8.16861 25.4158 8.16861C24.9891 8.16861 24.5891 8.28061 24.2158 8.50461C23.8424 8.72861 23.5384 9.04861 23.3038 9.46461C23.0691 9.86994 22.9518 10.3553 22.9518 10.9206C22.9518 11.4859 23.0691 11.9766 23.3038 12.3926C23.5384 12.7979 23.8424 13.1126 24.2158 13.3366C24.5891 13.5606 24.9891 13.6726 25.4158 13.6726ZM34.6542 6.84061H36.0782V4.53661H37.8062V6.84061H39.8062V8.34461H37.8062V12.2646C37.8062 12.6699 37.8862 12.9793 38.0462 13.1926C38.2169 13.4059 38.4996 13.5126 38.8942 13.5126C39.0862 13.5126 39.2569 13.4859 39.4062 13.4326C39.5556 13.3686 39.7049 13.2939 39.8542 13.2086V14.8886C39.6729 14.9633 39.4809 15.0219 39.2782 15.0646C39.0756 15.1073 38.8356 15.1286 38.5582 15.1286C37.8009 15.1286 37.1982 14.9099 36.7502 14.4726C36.3022 14.0246 36.0782 13.4113 36.0782 12.6326V8.34461H34.6542V6.84061ZM45.1418 15.2566C44.2991 15.2566 43.5578 15.0646 42.9178 14.6806C42.2778 14.2966 41.7764 13.7793 41.4138 13.1286C41.0511 12.4673 40.8698 11.7313 40.8698 10.9206C40.8698 10.1099 41.0511 9.37928 41.4138 8.72861C41.7764 8.06728 42.2778 7.54461 42.9178 7.16061C43.5578 6.77661 44.2991 6.58461 45.1418 6.58461C45.9738 6.58461 46.7098 6.78194 47.3498 7.17661C47.9898 7.56061 48.4911 8.07794 48.8538 8.72861C49.2164 9.37928 49.3978 10.1099 49.3978 10.9206C49.3978 11.7313 49.2164 12.4673 48.8538 13.1286C48.4911 13.7793 47.9898 14.2966 47.3498 14.6806C46.7098 15.0646 45.9738 15.2566 45.1418 15.2566ZM45.1418 13.6726C45.5898 13.6726 46.0058 13.5659 46.3898 13.3526C46.7738 13.1286 47.0831 12.8139 47.3178 12.4086C47.5631 11.9926 47.6858 11.4966 47.6858 10.9206C47.6858 10.3446 47.5631 9.85394 47.3178 9.44861C47.0831 9.03261 46.7738 8.71794 46.3898 8.50461C46.0058 8.28061 45.5898 8.16861 45.1418 8.16861C44.6938 8.16861 44.2724 8.28061 43.8778 8.50461C43.4938 8.71794 43.1791 9.03261 42.9338 9.44861C42.6991 9.85394 42.5818 10.3446 42.5818 10.9206C42.5818 11.4966 42.6991 11.9926 42.9338 12.4086C43.1791 12.8139 43.4991 13.1286 43.8938 13.3526C44.2884 13.5659 44.7044 13.6726 45.1418 13.6726ZM54.6076 15.0006V13.5606L59.1516 8.34461H54.7516V6.84061H61.2636V8.28061L56.7356 13.4966H61.3916V15.0006H54.6076Z" fill="white"/>
<g id="GPay (Dark)">
<g id="GPay">
<g id="Pay">
<path id="Fill 1" fill-rule="evenodd" clip-rule="evenodd" d="M90.3563 3.42339V8.16175H93.2784C93.9745 8.16175 94.5501 7.92781 95.0055 7.45993C95.4728 6.99313 95.707 6.43644 95.707 5.79203C95.707 5.16061 95.4728 4.61041 95.0055 4.14254C94.5501 3.66274 93.9745 3.4223 93.2784 3.4223H90.3563V3.42339ZM90.3563 9.82966V15.3262H88.6107V1.75549H93.2404C94.4169 1.75549 95.4154 2.14756 96.2383 2.93061C97.0732 3.71365 97.4906 4.66782 97.4906 5.79203C97.4906 6.94224 97.0731 7.90291 96.2383 8.67296C95.4283 9.44409 94.4287 9.82858 93.2404 9.82858H90.3563V9.82966Z" fill="white"/>
<path id="Fill 3" fill-rule="evenodd" clip-rule="evenodd" d="M99.2546 12.4831C99.2546 12.9379 99.4476 13.317 99.8337 13.6203C100.22 13.9235 100.672 14.0752 101.19 14.0752C101.924 14.0752 102.578 13.8032 103.153 13.2607C103.729 12.717 104.017 12.0791 104.017 11.3469C103.472 10.917 102.713 10.7025 101.74 10.7025C101.031 10.7025 100.44 10.8736 99.9659 11.2148C99.492 11.5559 99.2546 11.9773 99.2546 12.4831M101.513 5.73566C102.803 5.73566 103.821 6.08007 104.569 6.76889C105.314 7.45771 105.687 8.40213 105.687 9.60216V15.3261H104.018V14.0373H103.942C103.221 15.0985 102.259 15.6294 101.058 15.6294C100.033 15.6294 99.1755 15.3261 98.4869 14.7196C97.7975 14.1131 97.4527 13.3549 97.4527 12.4452C97.4527 11.4845 97.8158 10.7208 98.5433 10.1523C99.2708 9.58375 100.241 9.2989 101.456 9.2989C102.492 9.2989 103.346 9.48844 104.017 9.86751V9.46894C104.017 8.86243 103.776 8.34798 103.296 7.92451C102.814 7.50103 102.252 7.28984 101.607 7.28984C100.633 7.28984 99.8618 7.70032 99.2926 8.52235L97.7551 7.55519C98.6029 6.34217 99.8552 5.73566 101.513 5.73566" fill="white"/>
<path id="Fill 5" fill-rule="evenodd" clip-rule="evenodd" d="M115.269 6.03894L109.443 19.4201H107.641L109.804 14.738L105.971 6.03894H107.869L110.639 12.7106H110.677L113.371 6.03894H115.269Z" fill="white"/>
</g>
<g id="G">
<path id="Fill 8" fill-rule="evenodd" clip-rule="evenodd" d="M83.3029 8.64473C83.3029 8.09563 83.2562 7.56601 83.1684 7.05914H75.8065V10.0625H80.0231C79.842 11.0414 79.2944 11.8744 78.4639 12.4322V14.3828H80.9804C82.4539 13.0246 83.3029 11.0177 83.3029 8.64473" fill="#4285F4"/>
<path id="Fill 10" fill-rule="evenodd" clip-rule="evenodd" d="M75.8065 16.2651C77.9131 16.2651 79.6869 15.5741 80.9804 14.3828L78.4639 12.4322C77.7635 12.9033 76.8614 13.1784 75.8065 13.1784C73.7703 13.1784 72.042 11.8073 71.424 9.95959H68.8316V11.9687C70.1164 14.516 72.7565 16.2651 75.8065 16.2651" fill="#34A853"/>
<path id="Fill 12" fill-rule="evenodd" clip-rule="evenodd" d="M71.424 9.9596C71.2657 9.48847 71.179 8.98593 71.179 8.46715C71.179 7.94837 71.2657 7.44583 71.424 6.9747V4.96564H68.8316C68.3003 6.01837 68 7.20756 68 8.46715C68 9.72674 68.3003 10.916 68.8316 11.9687L71.424 9.9596Z" fill="#FABB05"/>
<path id="Fill 14" fill-rule="evenodd" clip-rule="evenodd" d="M75.8065 3.75583C76.9568 3.75583 77.9879 4.15115 78.8011 4.92553V4.92661L81.0292 2.70094C79.6761 1.44243 77.912 0.669128 75.8065 0.669128C72.7565 0.669128 70.1164 2.41826 68.8316 4.9656L71.424 6.97467C72.042 5.12698 73.7703 3.75583 75.8065 3.75583" fill="#E94235"/>
</g>
</g>
</g>
</g>
</svg>
