<svg width="153" height="21" viewBox="0 0 153 21" fill="none" xmlns="http://www.w3.org/2000/svg">
<g id="pl_checkout_with_Pay_NBG">
<path id="Left Text" d="M1.23925 15.0006V13.2086L7.23925 5.20861H1.49525V3.54461H9.27125V5.33661L3.31925 13.3366H9.33525V15.0006H1.23925ZM13.8024 15.2566C13.2157 15.2566 12.693 15.1393 12.2344 14.9046C11.7864 14.6699 11.429 14.3499 11.1624 13.9446C10.9064 13.5286 10.7784 13.0539 10.7784 12.5206C10.7784 11.9339 10.9277 11.4379 11.2264 11.0326C11.5357 10.6273 11.9464 10.3179 12.4584 10.1046C12.9704 9.89128 13.5357 9.78461 14.1544 9.78461C14.4957 9.78461 14.8104 9.81128 15.0984 9.86461C15.397 9.90728 15.653 9.96061 15.8664 10.0246C16.0904 10.0886 16.2664 10.1579 16.3944 10.2326V9.80061C16.3944 9.26728 16.2024 8.84061 15.8184 8.52061C15.4344 8.20061 14.9384 8.04061 14.3304 8.04061C13.9144 8.04061 13.5197 8.13661 13.1464 8.32861C12.773 8.50994 12.4744 8.76061 12.2504 9.08061L11.0664 8.16861C11.301 7.83794 11.5837 7.55528 11.9144 7.32061C12.2557 7.08594 12.6344 6.90461 13.0504 6.77661C13.477 6.64861 13.9197 6.58461 14.3784 6.58461C15.5624 6.58461 16.4744 6.87794 17.1144 7.46461C17.7544 8.04061 18.0744 8.85128 18.0744 9.89661V15.0006H16.3944V13.9926H16.2984C16.1597 14.2059 15.9677 14.4086 15.7224 14.6006C15.4877 14.7926 15.205 14.9473 14.8744 15.0646C14.5544 15.1926 14.197 15.2566 13.8024 15.2566ZM14.1064 13.8486C14.5544 13.8486 14.949 13.7419 15.2904 13.5286C15.6424 13.3153 15.9144 13.0379 16.1064 12.6966C16.2984 12.3446 16.3944 11.9659 16.3944 11.5606C16.1597 11.4219 15.8717 11.3099 15.5304 11.2246C15.1997 11.1286 14.8477 11.0806 14.4744 11.0806C13.7704 11.0806 13.269 11.2193 12.9704 11.4966C12.6717 11.7739 12.5224 12.1206 12.5224 12.5366C12.5224 12.9206 12.6664 13.2353 12.9544 13.4806C13.2424 13.7259 13.6264 13.8486 14.1064 13.8486ZM20.1107 18.4566V6.84061H21.7267V7.94461H21.8227C21.9721 7.70994 22.1694 7.49128 22.4147 7.28861C22.6707 7.07528 22.9694 6.90461 23.3107 6.77661C23.6521 6.64861 24.0307 6.58461 24.4467 6.58461C25.1934 6.58461 25.8601 6.77128 26.4467 7.14461C27.0334 7.51794 27.4974 8.02994 27.8387 8.68061C28.1907 9.33128 28.3667 10.0779 28.3667 10.9206C28.3667 11.7633 28.1907 12.5099 27.8387 13.1606C27.4974 13.8113 27.0334 14.3233 26.4467 14.6966C25.8601 15.0699 25.1934 15.2566 24.4467 15.2566C23.8281 15.2566 23.2894 15.1179 22.8307 14.8406C22.3721 14.5633 22.0361 14.2539 21.8227 13.9126H21.7267L21.8227 15.0486V18.4566H20.1107ZM24.1907 13.6726C24.6174 13.6726 25.0174 13.5606 25.3907 13.3366C25.7747 13.1126 26.0787 12.7926 26.3027 12.3766C26.5374 11.9606 26.6547 11.4753 26.6547 10.9206C26.6547 10.3553 26.5374 9.86994 26.3027 9.46461C26.0787 9.04861 25.7747 8.72861 25.3907 8.50461C25.0174 8.28061 24.6174 8.16861 24.1907 8.16861C23.7641 8.16861 23.3641 8.28061 22.9907 8.50461C22.6174 8.72861 22.3134 9.04861 22.0787 9.46461C21.8441 9.86994 21.7267 10.3553 21.7267 10.9206C21.7267 11.4859 21.8441 11.9766 22.0787 12.3926C22.3134 12.7979 22.6174 13.1126 22.9907 13.3366C23.3641 13.5606 23.7641 13.6726 24.1907 13.6726ZM31.3849 15.0006V10.2966L30.5529 10.8886L29.6729 9.73661L31.3849 8.52061V3.54461H33.1129V7.27261L34.1849 6.50461L35.0649 7.67261L33.1129 9.06461V15.0006H31.3849ZM39.2367 15.2566C38.6501 15.2566 38.1274 15.1393 37.6687 14.9046C37.2207 14.6699 36.8634 14.3499 36.5967 13.9446C36.3407 13.5286 36.2127 13.0539 36.2127 12.5206C36.2127 11.9339 36.3621 11.4379 36.6607 11.0326C36.9701 10.6273 37.3807 10.3179 37.8927 10.1046C38.4047 9.89128 38.9701 9.78461 39.5887 9.78461C39.9301 9.78461 40.2447 9.81128 40.5327 9.86461C40.8314 9.90728 41.0874 9.96061 41.3007 10.0246C41.5247 10.0886 41.7007 10.1579 41.8287 10.2326V9.80061C41.8287 9.26728 41.6367 8.84061 41.2527 8.52061C40.8687 8.20061 40.3727 8.04061 39.7647 8.04061C39.3487 8.04061 38.9541 8.13661 38.5807 8.32861C38.2074 8.50994 37.9087 8.76061 37.6847 9.08061L36.5007 8.16861C36.7354 7.83794 37.0181 7.55528 37.3487 7.32061C37.6901 7.08594 38.0687 6.90461 38.4847 6.77661C38.9114 6.64861 39.3541 6.58461 39.8127 6.58461C40.9967 6.58461 41.9087 6.87794 42.5487 7.46461C43.1887 8.04061 43.5087 8.85128 43.5087 9.89661V15.0006H41.8287V13.9926H41.7327C41.5941 14.2059 41.4021 14.4086 41.1567 14.6006C40.9221 14.7926 40.6394 14.9473 40.3087 15.0646C39.9887 15.1926 39.6314 15.2566 39.2367 15.2566ZM39.5407 13.8486C39.9887 13.8486 40.3834 13.7419 40.7247 13.5286C41.0767 13.3153 41.3487 13.0379 41.5407 12.6966C41.7327 12.3446 41.8287 11.9659 41.8287 11.5606C41.5941 11.4219 41.3061 11.3099 40.9647 11.2246C40.6341 11.1286 40.2821 11.0806 39.9087 11.0806C39.2047 11.0806 38.7034 11.2193 38.4047 11.4966C38.1061 11.7739 37.9567 12.1206 37.9567 12.5366C37.9567 12.9206 38.1007 13.2353 38.3887 13.4806C38.6767 13.7259 39.0607 13.8486 39.5407 13.8486ZM49.259 15.2566C48.4377 15.2566 47.707 15.0699 47.067 14.6966C46.4377 14.3233 45.9417 13.8113 45.579 13.1606C45.227 12.4993 45.051 11.7526 45.051 10.9206C45.051 10.0886 45.227 9.34728 45.579 8.69661C45.9417 8.04594 46.4377 7.53394 47.067 7.16061C47.707 6.77661 48.4377 6.58461 49.259 6.58461C50.1657 6.58461 50.9283 6.78728 51.547 7.19261C52.1763 7.59794 52.6243 8.14728 52.891 8.84061L51.323 9.48061C51.131 9.04328 50.8537 8.71794 50.491 8.50461C50.139 8.28061 49.7177 8.16861 49.227 8.16861C48.779 8.16861 48.3683 8.28594 47.995 8.52061C47.6217 8.74461 47.323 9.05928 47.099 9.46461C46.875 9.86994 46.763 10.3553 46.763 10.9206C46.763 11.4753 46.875 11.9606 47.099 12.3766C47.323 12.7926 47.6217 13.1126 47.995 13.3366C48.3683 13.5606 48.779 13.6726 49.227 13.6726C49.7497 13.6726 50.1923 13.5553 50.555 13.3206C50.9177 13.0859 51.2003 12.7553 51.403 12.3286L52.939 13.0006C52.6403 13.6513 52.1763 14.1899 51.547 14.6166C50.9283 15.0433 50.1657 15.2566 49.259 15.2566ZM48.539 5.27261L49.291 3.22461H51.243L49.963 5.27261H48.539ZM58.4389 18.4566V6.84061H60.0549V7.94461H60.1509C60.3002 7.70994 60.4975 7.49128 60.7429 7.28861C60.9989 7.07528 61.2975 6.90461 61.6389 6.77661C61.9802 6.64861 62.3589 6.58461 62.7749 6.58461C63.5215 6.58461 64.1882 6.77128 64.7749 7.14461C65.3615 7.51794 65.8255 8.02994 66.1669 8.68061C66.5189 9.33128 66.6949 10.0779 66.6949 10.9206C66.6949 11.7633 66.5189 12.5099 66.1669 13.1606C65.8255 13.8113 65.3615 14.3233 64.7749 14.6966C64.1882 15.0699 63.5215 15.2566 62.7749 15.2566C62.1562 15.2566 61.6175 15.1179 61.1589 14.8406C60.7002 14.5633 60.3642 14.2539 60.1509 13.9126H60.0549L60.1509 15.0486V18.4566H58.4389ZM62.5189 13.6726C62.9455 13.6726 63.3455 13.5606 63.7189 13.3366C64.1029 13.1126 64.4069 12.7926 64.6309 12.3766C64.8655 11.9606 64.9829 11.4753 64.9829 10.9206C64.9829 10.3553 64.8655 9.86994 64.6309 9.46461C64.4069 9.04861 64.1029 8.72861 63.7189 8.50461C63.3455 8.28061 62.9455 8.16861 62.5189 8.16861C62.0922 8.16861 61.6922 8.28061 61.3189 8.50461C60.9455 8.72861 60.6415 9.04861 60.4069 9.46461C60.1722 9.86994 60.0549 10.3553 60.0549 10.9206C60.0549 11.4859 60.1722 11.9766 60.4069 12.3926C60.6415 12.7979 60.9455 13.1126 61.3189 13.3366C61.6922 13.5606 62.0922 13.6726 62.5189 13.6726ZM68.3549 15.0006V6.84061H69.9869V8.04061H70.0829C70.2109 7.76328 70.3922 7.51794 70.6269 7.30461C70.8722 7.09128 71.1495 6.92061 71.4589 6.79261C71.7789 6.66461 72.1095 6.60061 72.4509 6.60061C72.6749 6.60061 72.8615 6.61661 73.0109 6.64861C73.1709 6.66994 73.3149 6.70728 73.4429 6.76061V8.55261C73.2402 8.46728 73.0322 8.39794 72.8189 8.34461C72.6162 8.29128 72.4029 8.26461 72.1789 8.26461C71.7735 8.26461 71.4109 8.37661 71.0909 8.60061C70.7815 8.81394 70.5362 9.10194 70.3549 9.46461C70.1735 9.82728 70.0829 10.2326 70.0829 10.6806V15.0006H68.3549ZM74.3545 15.0006V13.5606L78.8985 8.34461H74.4985V6.84061H81.0105V8.28061L76.4825 13.4966H81.1385V15.0006H74.3545ZM86.4766 15.2566C85.6766 15.2566 84.962 15.0699 84.3326 14.6966C83.7033 14.3233 83.2073 13.8113 82.8446 13.1606C82.4926 12.5099 82.3166 11.7686 82.3166 10.9366C82.3166 10.1579 82.4873 9.43794 82.8286 8.77661C83.17 8.11528 83.6446 7.58728 84.2526 7.19261C84.8713 6.78728 85.5806 6.58461 86.3806 6.58461C87.2233 6.58461 87.938 6.76594 88.5246 7.12861C89.122 7.49128 89.5753 7.98728 89.8846 8.61661C90.194 9.24594 90.3486 9.95528 90.3486 10.7446C90.3486 10.8619 90.3433 10.9686 90.3326 11.0646C90.3326 11.1606 90.3273 11.2353 90.3166 11.2886H84.0126C84.0553 11.7366 84.1673 12.1259 84.3486 12.4566C84.5833 12.8726 84.8926 13.1873 85.2766 13.4006C85.6606 13.6139 86.0766 13.7206 86.5246 13.7206C87.0686 13.7206 87.522 13.5979 87.8846 13.3526C88.258 13.0966 88.5513 12.7819 88.7646 12.4086L90.1886 13.0966C89.8366 13.7366 89.3566 14.2593 88.7486 14.6646C88.1406 15.0593 87.3833 15.2566 86.4766 15.2566ZM84.1086 9.99261H88.6366C88.626 9.78994 88.5726 9.57661 88.4766 9.35261C88.3806 9.11794 88.242 8.90461 88.0606 8.71261C87.8793 8.52061 87.65 8.36594 87.3726 8.24861C87.0953 8.12061 86.77 8.05661 86.3966 8.05661C85.9273 8.05661 85.5113 8.17928 85.1486 8.42461C84.786 8.65928 84.5033 8.98994 84.3006 9.41661C84.2153 9.59794 84.1513 9.78994 84.1086 9.99261ZM91.6076 15.0006V13.5606L96.1516 8.34461H91.7516V6.84061H98.2636V8.28061L93.7356 13.4966H98.3916V15.0006H91.6076Z" fill="white"/>
<g id="GPay (Dark)">
<g id="GPay">
<g id="Pay">
<path id="Fill 1" fill-rule="evenodd" clip-rule="evenodd" d="M127.356 3.42339V8.16175H130.278C130.974 8.16175 131.55 7.92781 132.005 7.45993C132.473 6.99313 132.707 6.43644 132.707 5.79203C132.707 5.16061 132.473 4.61041 132.005 4.14254C131.55 3.66274 130.974 3.4223 130.278 3.4223H127.356V3.42339ZM127.356 9.82966V15.3262H125.611V1.75549H130.24C131.417 1.75549 132.415 2.14756 133.238 2.93061C134.073 3.71365 134.491 4.66782 134.491 5.79203C134.491 6.94224 134.073 7.90291 133.238 8.67296C132.428 9.44409 131.429 9.82858 130.24 9.82858H127.356V9.82966Z" fill="white"/>
<path id="Fill 3" fill-rule="evenodd" clip-rule="evenodd" d="M136.255 12.4831C136.255 12.9379 136.448 13.317 136.834 13.6203C137.22 13.9235 137.672 14.0752 138.19 14.0752C138.924 14.0752 139.578 13.8032 140.153 13.2607C140.729 12.717 141.017 12.0791 141.017 11.3469C140.472 10.917 139.713 10.7025 138.74 10.7025C138.031 10.7025 137.44 10.8736 136.966 11.2148C136.492 11.5559 136.255 11.9773 136.255 12.4831M138.513 5.73566C139.803 5.73566 140.821 6.08007 141.569 6.76889C142.314 7.45771 142.687 8.40213 142.687 9.60216V15.3261H141.018V14.0373H140.942C140.221 15.0985 139.259 15.6294 138.058 15.6294C137.033 15.6294 136.176 15.3261 135.487 14.7196C134.797 14.1131 134.453 13.3549 134.453 12.4452C134.453 11.4845 134.816 10.7208 135.543 10.1523C136.271 9.58375 137.241 9.2989 138.456 9.2989C139.492 9.2989 140.346 9.48844 141.017 9.86751V9.46894C141.017 8.86243 140.776 8.34798 140.296 7.92451C139.814 7.50103 139.252 7.28984 138.607 7.28984C137.633 7.28984 136.862 7.70032 136.293 8.52235L134.755 7.55519C135.603 6.34217 136.855 5.73566 138.513 5.73566" fill="white"/>
<path id="Fill 5" fill-rule="evenodd" clip-rule="evenodd" d="M152.269 6.03894L146.443 19.4201H144.641L146.804 14.738L142.971 6.03894H144.869L147.639 12.7106H147.677L150.371 6.03894H152.269Z" fill="white"/>
</g>
<g id="G">
<path id="Fill 8" fill-rule="evenodd" clip-rule="evenodd" d="M120.303 8.64473C120.303 8.09563 120.256 7.56601 120.168 7.05914H112.806V10.0625H117.023C116.842 11.0414 116.294 11.8744 115.464 12.4322V14.3828H117.98C119.454 13.0246 120.303 11.0177 120.303 8.64473" fill="#4285F4"/>
<path id="Fill 10" fill-rule="evenodd" clip-rule="evenodd" d="M112.806 16.2651C114.913 16.2651 116.687 15.5741 117.98 14.3828L115.464 12.4322C114.763 12.9033 113.861 13.1784 112.806 13.1784C110.77 13.1784 109.042 11.8073 108.424 9.95959H105.832V11.9687C107.116 14.516 109.757 16.2651 112.806 16.2651" fill="#34A853"/>
<path id="Fill 12" fill-rule="evenodd" clip-rule="evenodd" d="M108.424 9.9596C108.266 9.48847 108.179 8.98593 108.179 8.46715C108.179 7.94837 108.266 7.44583 108.424 6.9747V4.96564H105.832C105.3 6.01837 105 7.20756 105 8.46715C105 9.72674 105.3 10.916 105.832 11.9687L108.424 9.9596Z" fill="#FABB05"/>
<path id="Fill 14" fill-rule="evenodd" clip-rule="evenodd" d="M112.806 3.75583C113.957 3.75583 114.988 4.15115 115.801 4.92553V4.92661L118.029 2.70094C116.676 1.44243 114.912 0.669128 112.806 0.669128C109.757 0.669128 107.116 2.41826 105.832 4.9656L108.424 6.97467C109.042 5.12698 110.77 3.75583 112.806 3.75583" fill="#E94235"/>
</g>
</g>
</g>
</g>
</svg>
