<svg width="241" height="21" viewBox="0 0 241 21" fill="none" xmlns="http://www.w3.org/2000/svg">
<g id="pl_donate_with_Pay_NBG">
<path id="Left Text" d="M1.40225 15.0006V3.54461H5.33825C6.03158 3.54461 6.66091 3.69394 7.22625 3.99261C7.79158 4.28061 8.23958 4.69128 8.57025 5.22461C8.91158 5.74728 9.08225 6.35528 9.08225 7.04861C9.08225 7.73128 8.91158 8.33928 8.57025 8.87261C8.23958 9.40594 7.79158 9.82194 7.22625 10.1206C6.66091 10.4086 6.03158 10.5526 5.33825 10.5526H3.16225V15.0006H1.40225ZM3.16225 8.88861H5.38625C5.80225 8.88861 6.15425 8.80328 6.44225 8.63261C6.73025 8.45128 6.94891 8.22194 7.09825 7.94461C7.25825 7.65661 7.33825 7.35794 7.33825 7.04861C7.33825 6.73928 7.25825 6.44594 7.09825 6.16861C6.94891 5.89128 6.73025 5.66194 6.44225 5.48061C6.15425 5.29928 5.80225 5.20861 5.38625 5.20861H3.16225V8.88861ZM10.7486 15.0006V6.84061H12.3806V8.04061H12.4766C12.6046 7.76328 12.786 7.51794 13.0206 7.30461C13.266 7.09128 13.5433 6.92061 13.8526 6.79261C14.1726 6.66461 14.5033 6.60061 14.8446 6.60061C15.0686 6.60061 15.2553 6.61661 15.4046 6.64861C15.5646 6.66994 15.7086 6.70728 15.8366 6.76061V8.55261C15.634 8.46728 15.426 8.39794 15.2126 8.34461C15.01 8.29128 14.7966 8.26461 14.5726 8.26461C14.1673 8.26461 13.8046 8.37661 13.4846 8.60061C13.1753 8.81394 12.93 9.10194 12.7486 9.46461C12.5673 9.82728 12.4766 10.2326 12.4766 10.6806V15.0006H10.7486ZM16.7482 15.0006V13.5606L21.2922 8.34461H16.8922V6.84061H23.4042V8.28061L18.8762 13.4966H23.5322V15.0006H16.7482ZM28.8704 15.2566C28.0704 15.2566 27.3557 15.0699 26.7264 14.6966C26.097 14.3233 25.601 13.8113 25.2384 13.1606C24.8864 12.5099 24.7104 11.7686 24.7104 10.9366C24.7104 10.1579 24.881 9.43794 25.2224 8.77661C25.5637 8.11528 26.0384 7.58728 26.6464 7.19261C27.265 6.78728 27.9744 6.58461 28.7744 6.58461C29.617 6.58461 30.3317 6.76594 30.9184 7.12861C31.5157 7.49128 31.969 7.98728 32.2784 8.61661C32.5877 9.24594 32.7424 9.95528 32.7424 10.7446C32.7424 10.8619 32.737 10.9686 32.7264 11.0646C32.7264 11.1606 32.721 11.2353 32.7104 11.2886H26.4064C26.449 11.7366 26.561 12.1259 26.7424 12.4566C26.977 12.8726 27.2864 13.1873 27.6704 13.4006C28.0544 13.6139 28.4704 13.7206 28.9184 13.7206C29.4624 13.7206 29.9157 13.5979 30.2784 13.3526C30.6517 13.0966 30.945 12.7819 31.1584 12.4086L32.5824 13.0966C32.2304 13.7366 31.7504 14.2593 31.1424 14.6646C30.5344 15.0593 29.777 15.2566 28.8704 15.2566ZM26.5024 9.99261H31.0304C31.0197 9.78994 30.9664 9.57661 30.8704 9.35261C30.7744 9.11794 30.6357 8.90461 30.4544 8.71261C30.273 8.52061 30.0437 8.36594 29.7664 8.24861C29.489 8.12061 29.1637 8.05661 28.7904 8.05661C28.321 8.05661 27.905 8.17928 27.5424 8.42461C27.1797 8.65928 26.897 8.98994 26.6944 9.41661C26.609 9.59794 26.545 9.78994 26.5024 9.99261ZM34.4955 15.0006V3.54461H36.2235V10.2966L39.6795 6.84061H41.8235V6.93661L38.6715 10.0566L41.9355 14.9046V15.0006H39.8875L37.4555 11.2566L36.2235 12.4726V15.0006H34.4955ZM45.5649 15.2566C44.9782 15.2566 44.4555 15.1393 43.9969 14.9046C43.5489 14.6699 43.1915 14.3499 42.9249 13.9446C42.6689 13.5286 42.5409 13.0539 42.5409 12.5206C42.5409 11.9339 42.6902 11.4379 42.9889 11.0326C43.2982 10.6273 43.7089 10.3179 44.2209 10.1046C44.7329 9.89128 45.2982 9.78461 45.9169 9.78461C46.2582 9.78461 46.5729 9.81128 46.8609 9.86461C47.1595 9.90728 47.4155 9.96061 47.6289 10.0246C47.8529 10.0886 48.0289 10.1579 48.1569 10.2326V9.80061C48.1569 9.26728 47.9649 8.84061 47.5809 8.52061C47.1969 8.20061 46.7009 8.04061 46.0929 8.04061C45.6769 8.04061 45.2822 8.13661 44.9089 8.32861C44.5355 8.50994 44.2369 8.76061 44.0129 9.08061L42.8289 8.16861C43.0635 7.83794 43.3462 7.55528 43.6769 7.32061C44.0182 7.08594 44.3969 6.90461 44.8129 6.77661C45.2395 6.64861 45.6822 6.58461 46.1409 6.58461C47.3249 6.58461 48.2369 6.87794 48.8769 7.46461C49.5169 8.04061 49.8369 8.85128 49.8369 9.89661V15.0006H48.1569V13.9926H48.0609C47.9222 14.2059 47.7302 14.4086 47.4849 14.6006C47.2502 14.7926 46.9675 14.9473 46.6369 15.0646C46.3169 15.1926 45.9595 15.2566 45.5649 15.2566ZM45.8689 13.8486C46.3169 13.8486 46.7115 13.7419 47.0529 13.5286C47.4049 13.3153 47.6769 13.0379 47.8689 12.6966C48.0609 12.3446 48.1569 11.9659 48.1569 11.5606C47.9222 11.4219 47.6342 11.3099 47.2929 11.2246C46.9622 11.1286 46.6102 11.0806 46.2369 11.0806C45.5329 11.0806 45.0315 11.2193 44.7329 11.4966C44.4342 11.7739 44.2849 12.1206 44.2849 12.5366C44.2849 12.9206 44.4289 13.2353 44.7169 13.4806C45.0049 13.7259 45.3889 13.8486 45.8689 13.8486ZM51.4576 15.0006V13.5606L56.0016 8.34461H51.6016V6.84061H58.1136V8.28061L53.5856 13.4966H58.2416V15.0006H51.4576ZM54.8656 5.24061C54.5883 5.24061 54.3483 5.13928 54.1456 4.93661C53.943 4.72328 53.8416 4.47794 53.8416 4.20061C53.8416 3.91261 53.943 3.67261 54.1456 3.48061C54.3483 3.27794 54.5883 3.17661 54.8656 3.17661C55.1643 3.17661 55.4096 3.27794 55.6016 3.48061C55.7936 3.67261 55.8896 3.91261 55.8896 4.20061C55.8896 4.47794 55.7936 4.72328 55.6016 4.93661C55.4096 5.13928 55.1643 5.24061 54.8656 5.24061ZM67.3804 15.2566C66.6444 15.2566 65.9777 15.0699 65.3804 14.6966C64.783 14.3233 64.3137 13.8113 63.9724 13.1606C63.631 12.5099 63.4604 11.7633 63.4604 10.9206C63.4604 10.0779 63.631 9.33128 63.9724 8.68061C64.3137 8.02994 64.783 7.51794 65.3804 7.14461C65.9777 6.77128 66.6444 6.58461 67.3804 6.58461C67.807 6.58461 68.191 6.64861 68.5324 6.77661C68.8737 6.90461 69.167 7.07528 69.4124 7.28861C69.6684 7.49128 69.8657 7.70994 70.0044 7.94461H70.1004L70.0044 6.80861V3.54461H71.7164V15.0006H70.1004V13.9126H70.0044C69.8657 14.1366 69.6684 14.3553 69.4124 14.5686C69.167 14.7713 68.8737 14.9366 68.5324 15.0646C68.191 15.1926 67.807 15.2566 67.3804 15.2566ZM67.6364 13.6726C68.063 13.6726 68.463 13.5606 68.8364 13.3366C69.2204 13.1126 69.5244 12.7979 69.7484 12.3926C69.983 11.9766 70.1004 11.4859 70.1004 10.9206C70.1004 10.3553 69.983 9.86994 69.7484 9.46461C69.5244 9.04861 69.2204 8.72861 68.8364 8.50461C68.463 8.28061 68.063 8.16861 67.6364 8.16861C67.2097 8.16861 66.8097 8.28061 66.4364 8.50461C66.063 8.72861 65.759 9.04861 65.5244 9.46461C65.2897 9.86994 65.1724 10.3553 65.1724 10.9206C65.1724 11.4753 65.2897 11.9606 65.5244 12.3766C65.759 12.7926 66.063 13.1126 66.4364 13.3366C66.8097 13.5606 67.2097 13.6726 67.6364 13.6726ZM76.3836 15.2566C75.797 15.2566 75.2743 15.1393 74.8156 14.9046C74.3676 14.6699 74.0103 14.3499 73.7436 13.9446C73.4876 13.5286 73.3596 13.0539 73.3596 12.5206C73.3596 11.9339 73.509 11.4379 73.8076 11.0326C74.117 10.6273 74.5276 10.3179 75.0396 10.1046C75.5516 9.89128 76.117 9.78461 76.7356 9.78461C77.077 9.78461 77.3916 9.81128 77.6796 9.86461C77.9783 9.90728 78.2343 9.96061 78.4476 10.0246C78.6716 10.0886 78.8476 10.1579 78.9756 10.2326V9.80061C78.9756 9.26728 78.7836 8.84061 78.3996 8.52061C78.0156 8.20061 77.5196 8.04061 76.9116 8.04061C76.4956 8.04061 76.101 8.13661 75.7276 8.32861C75.3543 8.50994 75.0556 8.76061 74.8316 9.08061L73.6476 8.16861C73.8823 7.83794 74.165 7.55528 74.4956 7.32061C74.837 7.08594 75.2156 6.90461 75.6316 6.77661C76.0583 6.64861 76.501 6.58461 76.9596 6.58461C78.1436 6.58461 79.0556 6.87794 79.6956 7.46461C80.3356 8.04061 80.6556 8.85128 80.6556 9.89661V15.0006H78.9756V13.9926H78.8796C78.741 14.2059 78.549 14.4086 78.3036 14.6006C78.069 14.7926 77.7863 14.9473 77.4556 15.0646C77.1356 15.1926 76.7783 15.2566 76.3836 15.2566ZM76.6876 13.8486C77.1356 13.8486 77.5303 13.7419 77.8716 13.5286C78.2236 13.3153 78.4956 13.0379 78.6876 12.6966C78.8796 12.3446 78.9756 11.9659 78.9756 11.5606C78.741 11.4219 78.453 11.3099 78.1116 11.2246C77.781 11.1286 77.429 11.0806 77.0556 11.0806C76.3516 11.0806 75.8503 11.2193 75.5516 11.4966C75.253 11.7739 75.1036 12.1206 75.1036 12.5366C75.1036 12.9206 75.2476 13.2353 75.5356 13.4806C75.8236 13.7259 76.2076 13.8486 76.6876 13.8486ZM82.708 15.0006V6.84061H84.34V8.04061H84.436C84.564 7.76328 84.7453 7.51794 84.98 7.30461C85.2253 7.09128 85.5027 6.92061 85.812 6.79261C86.132 6.66461 86.4627 6.60061 86.804 6.60061C87.028 6.60061 87.2147 6.61661 87.364 6.64861C87.524 6.66994 87.668 6.70728 87.796 6.76061V8.55261C87.5933 8.46728 87.3853 8.39794 87.172 8.34461C86.9693 8.29128 86.756 8.26461 86.532 8.26461C86.1267 8.26461 85.764 8.37661 85.444 8.60061C85.1347 8.81394 84.8893 9.10194 84.708 9.46461C84.5267 9.82728 84.436 10.2326 84.436 10.6806V15.0006H82.708ZM92.6355 15.2566C91.7928 15.2566 91.0515 15.0646 90.4115 14.6806C89.7715 14.2966 89.2702 13.7793 88.9075 13.1286C88.5448 12.4673 88.3635 11.7313 88.3635 10.9206C88.3635 10.1099 88.5448 9.37928 88.9075 8.72861C89.2702 8.06728 89.7715 7.54461 90.4115 7.16061C91.0515 6.77661 91.7928 6.58461 92.6355 6.58461C93.4675 6.58461 94.2035 6.78194 94.8435 7.17661C95.4835 7.56061 95.9848 8.07794 96.3475 8.72861C96.7102 9.37928 96.8915 10.1099 96.8915 10.9206C96.8915 11.7313 96.7102 12.4673 96.3475 13.1286C95.9848 13.7793 95.4835 14.2966 94.8435 14.6806C94.2035 15.0646 93.4675 15.2566 92.6355 15.2566ZM92.6355 13.6726C93.0835 13.6726 93.4995 13.5659 93.8835 13.3526C94.2675 13.1286 94.5768 12.8139 94.8115 12.4086C95.0568 11.9926 95.1795 11.4966 95.1795 10.9206C95.1795 10.3446 95.0568 9.85394 94.8115 9.44861C94.5768 9.03261 94.2675 8.71794 93.8835 8.50461C93.4995 8.28061 93.0835 8.16861 92.6355 8.16861C92.1875 8.16861 91.7662 8.28061 91.3715 8.50461C90.9875 8.71794 90.6728 9.03261 90.4275 9.44861C90.1928 9.85394 90.0755 10.3446 90.0755 10.9206C90.0755 11.4966 90.1928 11.9926 90.4275 12.4086C90.6728 12.8139 90.9928 13.1286 91.3875 13.3526C91.7822 13.5659 92.1982 13.6726 92.6355 13.6726ZM100.189 15.0006L97.5808 6.84061H99.4528L101.133 12.7126H101.197L103.037 6.84061H104.813L106.653 12.7126H106.717L108.397 6.84061H110.237L107.613 15.0006H105.805L103.917 9.09661H103.853L101.981 15.0006H100.189ZM111.63 15.0006V6.84061H113.358V15.0006H111.63ZM112.494 5.64061C112.174 5.64061 111.896 5.52861 111.662 5.30461C111.438 5.06994 111.326 4.79261 111.326 4.47261C111.326 4.14194 111.438 3.86994 111.662 3.65661C111.896 3.43261 112.174 3.32061 112.494 3.32061C112.824 3.32061 113.102 3.43261 113.326 3.65661C113.55 3.86994 113.662 4.14194 113.662 4.47261C113.662 4.79261 113.55 5.06994 113.326 5.30461C113.102 5.52861 112.824 5.64061 112.494 5.64061ZM115.236 15.0006V13.5606L119.78 8.34461H115.38V6.84061H121.892V8.28061L117.364 13.4966H122.02V15.0006H115.236ZM123.786 15.0006V6.84061H125.418V7.96061H125.514C125.749 7.56594 126.095 7.24061 126.554 6.98461C127.023 6.71794 127.535 6.58461 128.09 6.58461C129.093 6.58461 129.845 6.88328 130.346 7.48061C130.847 8.06728 131.098 8.85661 131.098 9.84861V15.0006H129.386V10.0726C129.386 9.41128 129.221 8.93128 128.89 8.63261C128.559 8.32328 128.127 8.16861 127.594 8.16861C127.178 8.16861 126.815 8.28594 126.506 8.52061C126.197 8.74461 125.951 9.04328 125.77 9.41661C125.599 9.78994 125.514 10.1899 125.514 10.6166V15.0006H123.786ZM136.945 15.2566C136.145 15.2566 135.431 15.0699 134.801 14.6966C134.172 14.3233 133.676 13.8113 133.313 13.1606C132.961 12.5099 132.785 11.7686 132.785 10.9366C132.785 10.1579 132.956 9.43794 133.297 8.77661C133.639 8.11528 134.113 7.58728 134.721 7.19261C135.34 6.78728 136.049 6.58461 136.849 6.58461C137.692 6.58461 138.407 6.76594 138.993 7.12861C139.591 7.49128 140.044 7.98728 140.353 8.61661C140.663 9.24594 140.817 9.95528 140.817 10.7446C140.817 10.8619 140.812 10.9686 140.801 11.0646C140.801 11.1606 140.796 11.2353 140.785 11.2886H134.481C134.524 11.7366 134.636 12.1259 134.817 12.4566C135.052 12.8726 135.361 13.1873 135.745 13.4006C136.129 13.6139 136.545 13.7206 136.993 13.7206C137.537 13.7206 137.991 13.5979 138.353 13.3526C138.727 13.0966 139.02 12.7819 139.233 12.4086L140.657 13.0966C140.305 13.7366 139.825 14.2539 139.217 14.6486C139.217 14.6593 139.217 14.6646 139.217 14.6646C139.025 14.8033 138.828 14.9526 138.625 15.1126C138.369 15.3259 138.145 15.5499 137.953 15.7846C137.772 16.0193 137.681 16.2593 137.681 16.5046C137.681 16.7179 137.745 16.8993 137.873 17.0486C138.012 17.1979 138.188 17.2726 138.401 17.2726C138.497 17.2726 138.599 17.2566 138.705 17.2246C138.812 17.2033 138.929 17.1606 139.057 17.0966V18.4406C138.908 18.5046 138.759 18.5419 138.609 18.5526C138.46 18.5739 138.321 18.5846 138.193 18.5846C137.564 18.5846 137.073 18.4086 136.721 18.0566C136.369 17.7153 136.193 17.2886 136.193 16.7766C136.193 16.4353 136.284 16.1259 136.465 15.8486C136.615 15.6353 136.791 15.4379 136.993 15.2566C136.972 15.2566 136.956 15.2566 136.945 15.2566ZM134.577 9.99261H139.105C139.095 9.78994 139.041 9.57661 138.945 9.35261C138.849 9.11794 138.711 8.90461 138.529 8.71261C138.348 8.52061 138.119 8.36594 137.841 8.24861C137.564 8.12061 137.239 8.05661 136.865 8.05661C136.396 8.05661 135.98 8.17928 135.617 8.42461C135.255 8.65928 134.972 8.98994 134.769 9.41661C134.684 9.59794 134.62 9.78994 134.577 9.99261ZM146.439 18.4566V6.84061H148.055V7.94461H148.151C148.3 7.70994 148.498 7.49128 148.743 7.28861C148.999 7.07528 149.298 6.90461 149.639 6.77661C149.98 6.64861 150.359 6.58461 150.775 6.58461C151.522 6.58461 152.188 6.77128 152.775 7.14461C153.362 7.51794 153.826 8.02994 154.167 8.68061C154.519 9.33128 154.695 10.0779 154.695 10.9206C154.695 11.7633 154.519 12.5099 154.167 13.1606C153.826 13.8113 153.362 14.3233 152.775 14.6966C152.188 15.0699 151.522 15.2566 150.775 15.2566C150.156 15.2566 149.618 15.1179 149.159 14.8406C148.7 14.5633 148.364 14.2539 148.151 13.9126H148.055L148.151 15.0486V18.4566H146.439ZM150.519 13.6726C150.946 13.6726 151.346 13.5606 151.719 13.3366C152.103 13.1126 152.407 12.7926 152.631 12.3766C152.866 11.9606 152.983 11.4753 152.983 10.9206C152.983 10.3553 152.866 9.86994 152.631 9.46461C152.407 9.04861 152.103 8.72861 151.719 8.50461C151.346 8.28061 150.946 8.16861 150.519 8.16861C150.092 8.16861 149.692 8.28061 149.319 8.50461C148.946 8.72861 148.642 9.04861 148.407 9.46461C148.172 9.86994 148.055 10.3553 148.055 10.9206C148.055 11.4859 148.172 11.9766 148.407 12.3926C148.642 12.7979 148.946 13.1126 149.319 13.3366C149.692 13.5606 150.092 13.6726 150.519 13.6726ZM156.355 15.0006V6.84061H157.987V8.04061H158.083C158.211 7.76328 158.392 7.51794 158.627 7.30461C158.872 7.09128 159.15 6.92061 159.459 6.79261C159.779 6.66461 160.11 6.60061 160.451 6.60061C160.675 6.60061 160.862 6.61661 161.011 6.64861C161.171 6.66994 161.315 6.70728 161.443 6.76061V8.55261C161.24 8.46728 161.032 8.39794 160.819 8.34461C160.616 8.29128 160.403 8.26461 160.179 8.26461C159.774 8.26461 159.411 8.37661 159.091 8.60061C158.782 8.81394 158.536 9.10194 158.355 9.46461C158.174 9.82728 158.083 10.2326 158.083 10.6806V15.0006H156.355ZM162.354 15.0006V13.5606L166.898 8.34461H162.498V6.84061H169.01V8.28061L164.482 13.4966H169.138V15.0006H162.354ZM174.477 15.2566C173.677 15.2566 172.962 15.0699 172.333 14.6966C171.703 14.3233 171.207 13.8113 170.845 13.1606C170.493 12.5099 170.317 11.7686 170.317 10.9366C170.317 10.1579 170.487 9.43794 170.829 8.77661C171.17 8.11528 171.645 7.58728 172.253 7.19261C172.871 6.78728 173.581 6.58461 174.381 6.58461C175.223 6.58461 175.938 6.76594 176.525 7.12861C177.122 7.49128 177.575 7.98728 177.885 8.61661C178.194 9.24594 178.349 9.95528 178.349 10.7446C178.349 10.8619 178.343 10.9686 178.333 11.0646C178.333 11.1606 178.327 11.2353 178.317 11.2886H172.013C172.055 11.7366 172.167 12.1259 172.349 12.4566C172.583 12.8726 172.893 13.1873 173.277 13.4006C173.661 13.6139 174.077 13.7206 174.525 13.7206C175.069 13.7206 175.522 13.5979 175.885 13.3526C176.258 13.0966 176.551 12.7819 176.765 12.4086L178.189 13.0966C177.837 13.7366 177.357 14.2593 176.749 14.6646C176.141 15.0593 175.383 15.2566 174.477 15.2566ZM172.109 9.99261H176.637C176.626 9.78994 176.573 9.57661 176.477 9.35261C176.381 9.11794 176.242 8.90461 176.061 8.71261C175.879 8.52061 175.65 8.36594 175.373 8.24861C175.095 8.12061 174.77 8.05661 174.397 8.05661C173.927 8.05661 173.511 8.17928 173.149 8.42461C172.786 8.65928 172.503 8.98994 172.301 9.41661C172.215 9.59794 172.151 9.78994 172.109 9.99261ZM179.608 15.0006V13.5606L184.152 8.34461H179.752V6.84061H186.264V8.28061L181.736 13.4966H186.392V15.0006H179.608Z" fill="white"/>
<g id="GPay (Dark)">
<g id="GPay">
<g id="Pay">
<path id="Fill 1" fill-rule="evenodd" clip-rule="evenodd" d="M215.356 3.42339V8.16175H218.278C218.974 8.16175 219.55 7.92781 220.005 7.45993C220.473 6.99313 220.707 6.43644 220.707 5.79203C220.707 5.16061 220.473 4.61041 220.005 4.14254C219.55 3.66274 218.974 3.4223 218.278 3.4223H215.356V3.42339ZM215.356 9.82966V15.3262H213.611V1.75549H218.24C219.417 1.75549 220.415 2.14756 221.238 2.93061C222.073 3.71365 222.491 4.66782 222.491 5.79203C222.491 6.94224 222.073 7.90291 221.238 8.67296C220.428 9.44409 219.429 9.82858 218.24 9.82858H215.356V9.82966Z" fill="white"/>
<path id="Fill 3" fill-rule="evenodd" clip-rule="evenodd" d="M224.255 12.4831C224.255 12.9379 224.448 13.317 224.834 13.6203C225.22 13.9235 225.672 14.0752 226.19 14.0752C226.924 14.0752 227.578 13.8032 228.153 13.2607C228.729 12.717 229.017 12.0791 229.017 11.3469C228.472 10.917 227.713 10.7025 226.74 10.7025C226.031 10.7025 225.44 10.8736 224.966 11.2148C224.492 11.5559 224.255 11.9773 224.255 12.4831M226.513 5.73566C227.803 5.73566 228.821 6.08007 229.569 6.76889C230.314 7.45771 230.687 8.40213 230.687 9.60216V15.3261H229.018V14.0373H228.942C228.221 15.0985 227.259 15.6294 226.058 15.6294C225.033 15.6294 224.176 15.3261 223.487 14.7196C222.797 14.1131 222.453 13.3549 222.453 12.4452C222.453 11.4845 222.816 10.7208 223.543 10.1523C224.271 9.58375 225.241 9.2989 226.456 9.2989C227.492 9.2989 228.346 9.48844 229.017 9.86751V9.46894C229.017 8.86243 228.776 8.34798 228.296 7.92451C227.814 7.50103 227.252 7.28984 226.607 7.28984C225.633 7.28984 224.862 7.70032 224.293 8.52235L222.755 7.55519C223.603 6.34217 224.855 5.73566 226.513 5.73566" fill="white"/>
<path id="Fill 5" fill-rule="evenodd" clip-rule="evenodd" d="M240.269 6.03894L234.443 19.4201H232.641L234.804 14.738L230.971 6.03894H232.869L235.639 12.7106H235.677L238.371 6.03894H240.269Z" fill="white"/>
</g>
<g id="G">
<path id="Fill 8" fill-rule="evenodd" clip-rule="evenodd" d="M208.303 8.64473C208.303 8.09563 208.256 7.56601 208.168 7.05914H200.806V10.0625H205.023C204.842 11.0414 204.294 11.8744 203.464 12.4322V14.3828H205.98C207.454 13.0246 208.303 11.0177 208.303 8.64473" fill="#4285F4"/>
<path id="Fill 10" fill-rule="evenodd" clip-rule="evenodd" d="M200.806 16.2651C202.913 16.2651 204.687 15.5741 205.98 14.3828L203.464 12.4322C202.764 12.9033 201.861 13.1784 200.806 13.1784C198.77 13.1784 197.042 11.8073 196.424 9.95959H193.832V11.9687C195.116 14.516 197.757 16.2651 200.806 16.2651" fill="#34A853"/>
<path id="Fill 12" fill-rule="evenodd" clip-rule="evenodd" d="M196.424 9.9596C196.266 9.48847 196.179 8.98593 196.179 8.46715C196.179 7.94837 196.266 7.44583 196.424 6.9747V4.96564H193.832C193.3 6.01837 193 7.20756 193 8.46715C193 9.72674 193.3 10.916 193.832 11.9687L196.424 9.9596Z" fill="#FABB05"/>
<path id="Fill 14" fill-rule="evenodd" clip-rule="evenodd" d="M200.806 3.75583C201.957 3.75583 202.988 4.15115 203.801 4.92553V4.92661L206.029 2.70094C204.676 1.44243 202.912 0.669128 200.806 0.669128C197.757 0.669128 195.116 2.41826 193.832 4.9656L196.424 6.97467C197.042 5.12698 198.77 3.75583 200.806 3.75583" fill="#E94235"/>
</g>
</g>
</g>
</g>
</svg>
