<svg width="422" height="38" viewBox="0 0 422 38" fill="none" xmlns="http://www.w3.org/2000/svg">
<g id="pl_donate_with_Dark">
<path id="Text" d="M2.37893 30V9.952H9.26693C10.4803 9.952 11.5816 10.2133 12.5709 10.736C13.5603 11.2587 14.3443 11.9773 14.9229 12.892C15.5203 13.8067 15.8189 14.8707 15.8189 16.084C15.8189 17.2973 15.5203 18.3707 14.9229 19.304C14.3443 20.2187 13.5603 20.9373 12.5709 21.46C11.5816 21.964 10.4803 22.216 9.26693 22.216H5.45893V30H2.37893ZM9.35093 12.864H5.45893V19.304H9.35093C10.0789 19.304 10.6949 19.1547 11.1989 18.856C11.7029 18.5387 12.0856 18.1373 12.3469 17.652C12.6269 17.148 12.7669 16.6253 12.7669 16.084C12.7669 15.5427 12.6269 15.0293 12.3469 14.544C12.0856 14.0587 11.7029 13.6573 11.1989 13.34C10.6949 13.0227 10.0789 12.864 9.35093 12.864ZM18.7726 30V15.72H21.6286V17.82H21.7966C22.1139 17.092 22.6553 16.4947 23.4206 16.028C24.2046 15.5427 25.0446 15.3 25.9406 15.3C26.3326 15.3 26.6593 15.328 26.9206 15.384C27.2006 15.44 27.4526 15.5053 27.6766 15.58V18.716C27.3219 18.5667 26.9579 18.4453 26.5846 18.352C26.2299 18.2587 25.8566 18.212 25.4646 18.212C24.7553 18.212 24.1206 18.408 23.5606 18.8C23.0193 19.1733 22.5899 19.6867 22.2726 20.34C21.9553 20.9747 21.7966 21.6747 21.7966 22.44V30H18.7726ZM29.3094 30V27.48L37.2614 18.352H29.5614V15.72H40.9574V18.24L33.0334 27.368H41.1814V30H29.3094ZM50.5607 30.448C49.1607 30.448 47.91 30.1213 46.8087 29.468C45.7073 28.8147 44.8393 27.9187 44.2047 26.78C43.5887 25.6413 43.2807 24.344 43.2807 22.888C43.2807 21.5253 43.5793 20.2653 44.1767 19.108C44.774 17.9507 45.6047 17.0267 46.6687 16.336C47.7513 15.6267 48.9927 15.272 50.3927 15.272C51.8673 15.272 53.118 15.5893 54.1447 16.224C55.19 16.8587 55.9833 17.7267 56.5247 18.828C57.066 19.9293 57.3367 21.1707 57.3367 22.552C57.3367 22.7573 57.3273 22.944 57.3087 23.112C57.3087 23.28 57.2993 23.4107 57.2807 23.504H46.2487C46.398 24.9227 46.8927 25.9867 47.7327 26.696C48.5913 27.4053 49.562 27.76 50.6447 27.76C51.6153 27.76 52.418 27.5453 53.0527 27.116C53.6873 26.668 54.1913 26.1173 54.5647 25.464L57.0567 26.668C56.4407 27.788 55.6007 28.7027 54.5367 29.412C53.4727 30.1027 52.1473 30.448 50.5607 30.448ZM50.4207 17.848C49.4127 17.848 48.554 18.156 47.8447 18.772C47.1353 19.388 46.6593 20.2093 46.4167 21.236H54.3407C54.3033 20.7507 54.1447 20.2467 53.8647 19.724C53.5847 19.2013 53.1553 18.7627 52.5767 18.408C52.0167 18.0347 51.298 17.848 50.4207 17.848ZM60.4421 30V9.952H63.4661V21.768L69.5141 15.72H73.2661V15.888L67.7501 21.348L73.4621 29.832V30H69.8781L65.6221 23.448L63.4661 25.576V30H60.4421ZM79.851 30.448C78.8244 30.448 77.9097 30.252 77.107 29.86C76.3044 29.4493 75.679 28.88 75.231 28.152C74.783 27.424 74.559 26.5933 74.559 25.66C74.559 24.652 74.8204 23.7933 75.343 23.084C75.8844 22.356 76.603 21.8053 77.499 21.432C78.395 21.0587 79.3844 20.872 80.467 20.872C81.363 20.872 82.147 20.956 82.819 21.124C83.5097 21.292 84.0324 21.4693 84.387 21.656V20.9C84.387 19.9667 84.051 19.22 83.379 18.66C82.707 18.1 81.839 17.82 80.775 17.82C80.047 17.82 79.3564 17.988 78.703 18.324C78.0497 18.6413 77.527 19.08 77.135 19.64L75.063 18.044C75.679 17.1853 76.491 16.5133 77.499 16.028C78.5257 15.524 79.6457 15.272 80.859 15.272C82.931 15.272 84.527 15.7853 85.647 16.812C86.767 17.82 87.327 19.2387 87.327 21.068V30H84.387V28.236H84.219C83.8457 28.8147 83.2857 29.328 82.539 29.776C81.7924 30.224 80.8964 30.448 79.851 30.448ZM80.383 27.984C81.167 27.984 81.8577 27.7973 82.455 27.424C83.0524 27.0507 83.519 26.5653 83.855 25.968C84.2097 25.352 84.387 24.6893 84.387 23.98C83.9577 23.7373 83.4537 23.5413 82.875 23.392C82.2964 23.224 81.6804 23.14 81.027 23.14C79.795 23.14 78.9177 23.392 78.395 23.896C77.8724 24.3813 77.611 24.9787 77.611 25.688C77.611 26.36 77.863 26.9107 78.367 27.34C78.871 27.7693 79.543 27.984 80.383 27.984ZM90.2008 30V27.48L98.1528 18.352H90.4528V15.72H101.849V18.24L93.9248 27.368H102.073V30H90.2008ZM96.1648 12.92C95.6795 12.92 95.2595 12.7427 94.9048 12.388C94.5502 12.0333 94.3728 11.604 94.3728 11.1C94.3728 10.596 94.5502 10.176 94.9048 9.84C95.2595 9.48533 95.6795 9.308 96.1648 9.308C96.6875 9.308 97.1168 9.48533 97.4528 9.84C97.7888 10.176 97.9568 10.596 97.9568 11.1C97.9568 11.604 97.7888 12.0333 97.4528 12.388C97.1168 12.7427 96.6875 12.92 96.1648 12.92ZM118.141 30.448C116.853 30.448 115.686 30.1307 114.641 29.496C113.614 28.8427 112.793 27.9467 112.177 26.808C111.579 25.6507 111.281 24.3347 111.281 22.86C111.281 21.3853 111.579 20.0787 112.177 18.94C112.793 17.8013 113.614 16.9053 114.641 16.252C115.686 15.5987 116.853 15.272 118.141 15.272C119.242 15.272 120.185 15.5147 120.969 16C121.771 16.4853 122.359 17.036 122.733 17.652H122.901L122.733 15.664V9.952H125.729V30H122.901V28.096H122.733C122.359 28.712 121.771 29.2627 120.969 29.748C120.185 30.2147 119.242 30.448 118.141 30.448ZM118.589 27.676C119.335 27.676 120.035 27.48 120.689 27.088C121.361 26.696 121.893 26.1453 122.285 25.436C122.695 24.708 122.901 23.8493 122.901 22.86C122.901 21.8707 122.695 21.0213 122.285 20.312C121.893 19.584 121.361 19.024 120.689 18.632C120.035 18.24 119.335 18.044 118.589 18.044C117.842 18.044 117.142 18.24 116.489 18.632C115.835 19.024 115.303 19.584 114.893 20.312C114.482 21.0213 114.277 21.8707 114.277 22.86C114.277 23.8493 114.482 24.708 114.893 25.436C115.303 26.1453 115.835 26.696 116.489 27.088C117.142 27.48 117.842 27.676 118.589 27.676ZM133.934 30.448C132.907 30.448 131.993 30.252 131.19 29.86C130.387 29.4493 129.762 28.88 129.314 28.152C128.866 27.424 128.642 26.5933 128.642 25.66C128.642 24.652 128.903 23.7933 129.426 23.084C129.967 22.356 130.686 21.8053 131.582 21.432C132.478 21.0587 133.467 20.872 134.55 20.872C135.446 20.872 136.23 20.956 136.902 21.124C137.593 21.292 138.115 21.4693 138.47 21.656V20.9C138.47 19.9667 138.134 19.22 137.462 18.66C136.79 18.1 135.922 17.82 134.858 17.82C134.13 17.82 133.439 17.988 132.786 18.324C132.133 18.6413 131.61 19.08 131.218 19.64L129.146 18.044C129.762 17.1853 130.574 16.5133 131.582 16.028C132.609 15.524 133.729 15.272 134.942 15.272C137.014 15.272 138.61 15.7853 139.73 16.812C140.85 17.82 141.41 19.2387 141.41 21.068V30H138.47V28.236H138.302C137.929 28.8147 137.369 29.328 136.622 29.776C135.875 30.224 134.979 30.448 133.934 30.448ZM134.466 27.984C135.25 27.984 135.941 27.7973 136.538 27.424C137.135 27.0507 137.602 26.5653 137.938 25.968C138.293 25.352 138.47 24.6893 138.47 23.98C138.041 23.7373 137.537 23.5413 136.958 23.392C136.379 23.224 135.763 23.14 135.11 23.14C133.878 23.14 133.001 23.392 132.478 23.896C131.955 24.3813 131.694 24.9787 131.694 25.688C131.694 26.36 131.946 26.9107 132.45 27.34C132.954 27.7693 133.626 27.984 134.466 27.984ZM145.039 30V15.72H147.895V17.82H148.063C148.38 17.092 148.922 16.4947 149.687 16.028C150.471 15.5427 151.311 15.3 152.207 15.3C152.599 15.3 152.926 15.328 153.187 15.384C153.467 15.44 153.719 15.5053 153.943 15.58V18.716C153.588 18.5667 153.224 18.4453 152.851 18.352C152.496 18.2587 152.123 18.212 151.731 18.212C151.022 18.212 150.387 18.408 149.827 18.8C149.286 19.1733 148.856 19.6867 148.539 20.34C148.222 20.9747 148.063 21.6747 148.063 22.44V30H145.039ZM162.45 30.448C160.975 30.448 159.678 30.112 158.558 29.44C157.438 28.768 156.56 27.8627 155.926 26.724C155.291 25.5853 154.974 24.2973 154.974 22.86C154.974 21.4413 155.291 20.1627 155.926 19.024C156.56 17.8667 157.438 16.952 158.558 16.28C159.678 15.608 160.975 15.272 162.45 15.272C163.906 15.272 165.194 15.608 166.314 16.28C167.434 16.952 168.311 17.8667 168.946 19.024C169.58 20.1627 169.898 21.4413 169.898 22.86C169.898 24.2973 169.58 25.5853 168.946 26.724C168.311 27.8627 167.434 28.768 166.314 29.44C165.194 30.112 163.906 30.448 162.45 30.448ZM162.45 27.676C163.234 27.676 163.962 27.4893 164.634 27.116C165.306 26.724 165.847 26.1733 166.258 25.464C166.687 24.736 166.902 23.868 166.902 22.86C166.902 21.852 166.687 20.9933 166.258 20.284C165.847 19.556 165.306 19.0053 164.634 18.632C163.962 18.24 163.234 18.044 162.45 18.044C161.666 18.044 160.928 18.24 160.238 18.632C159.566 19.0053 159.015 19.556 158.586 20.284C158.175 20.9933 157.97 21.852 157.97 22.86C157.97 23.868 158.175 24.736 158.586 25.464C159.015 26.1733 159.566 26.724 160.238 27.116C160.928 27.4893 161.666 27.676 162.45 27.676ZM175.705 30L171.141 15.72H174.417L177.357 25.996H177.469L180.689 15.72H183.797L187.017 25.996H187.129L190.069 15.72H193.289L188.697 30H185.533L182.229 19.668H182.117L178.841 30H175.705ZM197.277 13.62C196.717 13.62 196.231 13.424 195.821 13.032C195.429 12.6213 195.233 12.136 195.233 11.576C195.233 11.016 195.429 10.54 195.821 10.148C196.231 9.756 196.717 9.56 197.277 9.56C197.837 9.56 198.313 9.756 198.705 10.148C199.115 10.54 199.321 11.016 199.321 11.576C199.321 12.136 199.115 12.6213 198.705 13.032C198.313 13.424 197.837 13.62 197.277 13.62ZM195.765 30V15.72H198.789V30H195.765ZM202.113 30V27.48L210.065 18.352H202.365V15.72H213.761V18.24L205.837 27.368H213.985V30H202.113ZM217.113 30V15.72H219.969V17.68H220.137C220.548 16.9893 221.155 16.42 221.957 15.972C222.779 15.5053 223.675 15.272 224.645 15.272C226.4 15.272 227.716 15.7947 228.593 16.84C229.471 17.8853 229.909 19.2667 229.909 20.984V30H226.913V21.376C226.913 20.2187 226.624 19.3787 226.045 18.856C225.467 18.3147 224.711 18.044 223.777 18.044C223.049 18.044 222.415 18.2493 221.873 18.66C221.332 19.052 220.903 19.5747 220.585 20.228C220.287 20.8813 220.137 21.5813 220.137 22.328V30H217.113ZM240.179 30.448C238.779 30.448 237.529 30.1213 236.427 29.468C235.326 28.8147 234.458 27.9187 233.823 26.78C233.207 25.6413 232.899 24.344 232.899 22.888C232.899 21.5253 233.198 20.2653 233.795 19.108C234.393 17.9507 235.223 17.0267 236.287 16.336C237.37 15.6267 238.611 15.272 240.011 15.272C241.486 15.272 242.737 15.5893 243.763 16.224C244.809 16.8587 245.602 17.7267 246.143 18.828C246.685 19.9293 246.955 21.1707 246.955 22.552C246.955 22.7573 246.946 22.944 246.927 23.112C246.927 23.28 246.918 23.4107 246.899 23.504H235.867C236.017 24.9227 236.511 25.9867 237.351 26.696C238.21 27.4053 239.181 27.76 240.263 27.76C241.234 27.76 242.037 27.5453 242.671 27.116C243.306 26.668 243.81 26.1173 244.183 25.464L246.675 26.668C246.059 27.788 245.219 28.7027 244.155 29.412C243.091 30.1027 241.766 30.448 240.179 30.448ZM240.039 17.848C239.031 17.848 238.173 18.156 237.463 18.772C236.754 19.388 236.278 20.2093 236.035 21.236H243.959C243.922 20.7507 243.763 20.2467 243.483 19.724C243.203 19.2013 242.774 18.7627 242.195 18.408C241.635 18.0347 240.917 17.848 240.039 17.848ZM240.571 30.168L244.379 29.244C243.987 29.524 243.567 29.8413 243.119 30.196C242.671 30.5693 242.289 30.9613 241.971 31.372C241.654 31.7827 241.495 32.2027 241.495 32.632C241.495 33.0053 241.607 33.3227 241.831 33.584C242.055 33.8453 242.363 33.976 242.755 33.976C242.923 33.976 243.091 33.948 243.259 33.892C243.446 33.8547 243.651 33.78 243.875 33.668V36.02C243.633 36.132 243.381 36.1973 243.119 36.216C242.858 36.2533 242.606 36.272 242.363 36.272C241.281 36.272 240.431 35.964 239.815 35.348C239.199 34.7507 238.891 34.004 238.891 33.108C238.891 32.5107 239.05 31.9693 239.367 31.484C239.685 31.0173 240.086 30.5787 240.571 30.168ZM256.868 36.048V15.72H259.696V17.652H259.864C260.237 17.036 260.816 16.4853 261.6 16C262.403 15.5147 263.355 15.272 264.456 15.272C265.763 15.272 266.929 15.5987 267.956 16.252C268.983 16.9053 269.795 17.8013 270.392 18.94C271.008 20.0787 271.316 21.3853 271.316 22.86C271.316 24.3347 271.008 25.6507 270.392 26.808C269.795 27.9467 268.983 28.8427 267.956 29.496C266.929 30.1307 265.763 30.448 264.456 30.448C263.355 30.448 262.403 30.2147 261.6 29.748C260.816 29.2627 260.237 28.712 259.864 28.096H259.696L259.864 30.084V36.048H256.868ZM264.008 27.676C264.755 27.676 265.455 27.48 266.108 27.088C266.761 26.696 267.293 26.1453 267.704 25.436C268.115 24.708 268.32 23.8493 268.32 22.86C268.32 21.8707 268.115 21.0213 267.704 20.312C267.293 19.584 266.761 19.024 266.108 18.632C265.455 18.24 264.755 18.044 264.008 18.044C263.261 18.044 262.561 18.24 261.908 18.632C261.255 19.024 260.723 19.584 260.312 20.312C259.901 21.0213 259.696 21.8707 259.696 22.86C259.696 23.8493 259.901 24.708 260.312 25.436C260.723 26.1453 261.255 26.696 261.908 27.088C262.561 27.48 263.261 27.676 264.008 27.676ZM274.259 30V15.72H277.115V17.82H277.283C277.6 17.092 278.141 16.4947 278.907 16.028C279.691 15.5427 280.531 15.3 281.427 15.3C281.819 15.3 282.145 15.328 282.407 15.384C282.687 15.44 282.939 15.5053 283.163 15.58V18.716C282.808 18.5667 282.444 18.4453 282.071 18.352C281.716 18.2587 281.343 18.212 280.951 18.212C280.241 18.212 279.607 18.408 279.047 18.8C278.505 19.1733 278.076 19.6867 277.759 20.34C277.441 20.9747 277.283 21.6747 277.283 22.44V30H274.259ZM284.795 30V27.48L292.747 18.352H285.047V15.72H296.443V18.24L288.519 27.368H296.667V30H284.795ZM306.047 30.448C304.647 30.448 303.396 30.1213 302.295 29.468C301.193 28.8147 300.325 27.9187 299.691 26.78C299.075 25.6413 298.767 24.344 298.767 22.888C298.767 21.5253 299.065 20.2653 299.663 19.108C300.26 17.9507 301.091 17.0267 302.155 16.336C303.237 15.6267 304.479 15.272 305.879 15.272C307.353 15.272 308.604 15.5893 309.631 16.224C310.676 16.8587 311.469 17.7267 312.011 18.828C312.552 19.9293 312.823 21.1707 312.823 22.552C312.823 22.7573 312.813 22.944 312.795 23.112C312.795 23.28 312.785 23.4107 312.767 23.504H301.735C301.884 24.9227 302.379 25.9867 303.219 26.696C304.077 27.4053 305.048 27.76 306.131 27.76C307.101 27.76 307.904 27.5453 308.539 27.116C309.173 26.668 309.677 26.1173 310.051 25.464L312.543 26.668C311.927 27.788 311.087 28.7027 310.023 29.412C308.959 30.1027 307.633 30.448 306.047 30.448ZM305.907 17.848C304.899 17.848 304.04 18.156 303.331 18.772C302.621 19.388 302.145 20.2093 301.903 21.236H309.827C309.789 20.7507 309.631 20.2467 309.351 19.724C309.071 19.2013 308.641 18.7627 308.063 18.408C307.503 18.0347 306.784 17.848 305.907 17.848ZM315.063 30V27.48L323.015 18.352H315.315V15.72H326.711V18.24L318.787 27.368H326.935V30H315.063Z" fill="white"/>
<g id="GPay Logo (Dark)">
<g id="GPay">
<g id="Pay">
<path id="Fill 1" fill-rule="evenodd" clip-rule="evenodd" d="M378.529 9.34665V17.5128H383.565C384.765 17.5128 385.757 17.1096 386.541 16.3032C387.347 15.4988 387.75 14.5394 387.75 13.4288C387.75 12.3406 387.347 11.3924 386.541 10.586C385.757 9.75916 384.765 9.34479 383.565 9.34479H378.529V9.34665ZM378.529 20.3872V29.8599H375.521V6.47218H383.499C385.527 6.47218 387.248 7.14787 388.666 8.49738C390.105 9.84688 390.824 11.4913 390.824 13.4288C390.824 15.411 390.105 17.0667 388.666 18.3938C387.27 19.7227 385.547 20.3854 383.499 20.3854H378.529V20.3872Z" fill="white"/>
<path id="Fill 3" fill-rule="evenodd" clip-rule="evenodd" d="M393.864 24.9602C393.864 25.7442 394.197 26.3975 394.862 26.9201C395.527 27.4427 396.306 27.704 397.2 27.704C398.465 27.704 399.591 27.2354 400.584 26.3004C401.576 25.3634 402.071 24.264 402.071 23.0022C401.133 22.2612 399.825 21.8916 398.147 21.8916C396.925 21.8916 395.907 22.1866 395.09 22.7745C394.273 23.3623 393.864 24.0886 393.864 24.9602ZM397.756 13.3317C399.98 13.3317 401.735 13.9253 403.022 15.1124C404.308 16.2995 404.95 17.9271 404.95 19.9952V29.8599H402.073V27.6387H401.942C400.699 29.4677 399.042 30.3825 396.972 30.3825C395.206 30.3825 393.728 29.8599 392.541 28.8146C391.353 27.7694 390.759 26.4628 390.759 24.8949C390.759 23.2393 391.385 21.9232 392.638 20.9434C393.892 19.9635 395.565 19.4726 397.658 19.4726C399.444 19.4726 400.916 19.7993 402.071 20.4525V19.7657C402.071 18.7204 401.656 17.8338 400.829 17.104C399.999 16.3742 399.031 16.0102 397.919 16.0102C396.239 16.0102 394.911 16.7176 393.93 18.1343L391.28 16.4675C392.741 14.377 394.899 13.3317 397.756 13.3317Z" fill="white"/>
<path id="Fill 5" fill-rule="evenodd" clip-rule="evenodd" d="M421.463 13.8543L411.424 36.9154H408.318L412.046 28.8464L405.44 13.8543H408.71L413.484 25.3522H413.55L418.193 13.8543H421.463Z" fill="white"/>
</g>
<g id="G">
<path id="Fill 8" fill-rule="evenodd" clip-rule="evenodd" d="M366.373 18.3452C366.373 17.3989 366.293 16.4861 366.141 15.6126H353.454V20.7885H360.72C360.408 22.4757 359.465 23.9112 358.033 24.8725V28.2341H362.37C364.91 25.8935 366.373 22.4348 366.373 18.3452Z" fill="#4285F4"/>
<path id="Fill 10" fill-rule="evenodd" clip-rule="evenodd" d="M353.454 31.4782C357.084 31.4782 360.141 30.2873 362.37 28.2341L358.033 24.8725C356.826 25.6844 355.272 26.1585 353.454 26.1585C349.944 26.1585 346.966 23.7955 345.901 20.6112H341.433V24.0736C343.647 28.4637 348.197 31.4782 353.454 31.4782Z" fill="#34A853"/>
<path id="Fill 12" fill-rule="evenodd" clip-rule="evenodd" d="M345.901 20.6111C345.628 19.7992 345.479 18.9331 345.479 18.0391C345.479 17.145 345.628 16.2789 345.901 15.467V12.0045H341.433C340.518 13.8188 340 15.8683 340 18.0391C340 20.2098 340.518 22.2595 341.433 24.0736L345.901 20.6111Z" fill="#FABB05"/>
<path id="Fill 14" fill-rule="evenodd" clip-rule="evenodd" d="M353.454 9.91964C355.436 9.91964 357.213 10.6009 358.615 11.9355V11.9374L362.455 8.10163C360.123 5.93272 357.082 4.60001 353.454 4.60001C348.197 4.60001 343.647 7.61447 341.433 12.0046L345.901 15.467C346.966 12.2827 349.944 9.91964 353.454 9.91964Z" fill="#E94235"/>
</g>
</g>
</g>
</g>
</svg>
