<svg width="122" height="21" viewBox="0 0 122 21" fill="none" xmlns="http://www.w3.org/2000/svg">
<g id="pl_order_with_Pay_NBG">
<path id="Left Text" d="M1.12987 15.0006V13.2086L7.12987 5.20861H1.38587V3.54461H9.16187V5.33661L3.20987 13.3366H9.22587V15.0006H1.12987ZM13.693 15.2566C13.1063 15.2566 12.5837 15.1393 12.125 14.9046C11.677 14.6699 11.3197 14.3499 11.053 13.9446C10.797 13.5286 10.669 13.0539 10.669 12.5206C10.669 11.9339 10.8183 11.4379 11.117 11.0326C11.4263 10.6273 11.837 10.3179 12.349 10.1046C12.861 9.89128 13.4263 9.78461 14.045 9.78461C14.3863 9.78461 14.701 9.81128 14.989 9.86461C15.2877 9.90728 15.5437 9.96061 15.757 10.0246C15.981 10.0886 16.157 10.1579 16.285 10.2326V9.80061C16.285 9.26728 16.093 8.84061 15.709 8.52061C15.325 8.20061 14.829 8.04061 14.221 8.04061C13.805 8.04061 13.4103 8.13661 13.037 8.32861C12.6637 8.50994 12.365 8.76061 12.141 9.08061L10.957 8.16861C11.1917 7.83794 11.4743 7.55528 11.805 7.32061C12.1463 7.08594 12.525 6.90461 12.941 6.77661C13.3677 6.64861 13.8103 6.58461 14.269 6.58461C15.453 6.58461 16.365 6.87794 17.005 7.46461C17.645 8.04061 17.965 8.85128 17.965 9.89661V15.0006H16.285V13.9926H16.189C16.0503 14.2059 15.8583 14.4086 15.613 14.6006C15.3783 14.7926 15.0957 14.9473 14.765 15.0646C14.445 15.1926 14.0877 15.2566 13.693 15.2566ZM13.997 13.8486C14.445 13.8486 14.8397 13.7419 15.181 13.5286C15.533 13.3153 15.805 13.0379 15.997 12.6966C16.189 12.3446 16.285 11.9659 16.285 11.5606C16.0503 11.4219 15.7623 11.3099 15.421 11.2246C15.0903 11.1286 14.7383 11.0806 14.365 11.0806C13.661 11.0806 13.1597 11.2193 12.861 11.4966C12.5623 11.7739 12.413 12.1206 12.413 12.5366C12.413 12.9206 12.557 13.2353 12.845 13.4806C13.133 13.7259 13.517 13.8486 13.997 13.8486ZM20.0174 15.0006V6.84061H21.6494V7.96061H21.7454C21.9054 7.69394 22.1134 7.45928 22.3694 7.25661C22.6254 7.05394 22.9134 6.89394 23.2334 6.77661C23.564 6.64861 23.9054 6.58461 24.2574 6.58461C24.8654 6.58461 25.3827 6.72861 25.8094 7.01661C26.236 7.30461 26.54 7.66728 26.7214 8.10461C26.988 7.67794 27.3507 7.32061 27.8094 7.03261C28.268 6.73394 28.828 6.58461 29.4894 6.58461C30.4494 6.58461 31.164 6.87794 31.6334 7.46461C32.1027 8.04061 32.3374 8.80861 32.3374 9.76861V15.0006H30.6254V10.0566C30.6254 9.39528 30.4814 8.91528 30.1934 8.61661C29.916 8.31794 29.5267 8.16861 29.0254 8.16861C28.6307 8.16861 28.284 8.28061 27.9854 8.50461C27.6867 8.71794 27.452 9.01128 27.2814 9.38461C27.1214 9.75794 27.0414 10.1739 27.0414 10.6326V15.0006H25.3294V10.0566C25.3294 9.40594 25.1854 8.93128 24.8974 8.63261C24.6094 8.32328 24.204 8.16861 23.6814 8.16861C23.308 8.16861 22.972 8.28061 22.6734 8.50461C22.3854 8.72861 22.156 9.02728 21.9854 9.40061C21.8254 9.77394 21.7454 10.1899 21.7454 10.6486V15.0006H20.0174ZM38.273 15.2566C37.4303 15.2566 36.689 15.0646 36.049 14.6806C35.409 14.2966 34.9077 13.7793 34.545 13.1286C34.1823 12.4673 34.001 11.7313 34.001 10.9206C34.001 10.1099 34.1823 9.37928 34.545 8.72861C34.9077 8.06728 35.409 7.54461 36.049 7.16061C36.689 6.77661 37.4303 6.58461 38.273 6.58461C39.105 6.58461 39.841 6.78194 40.481 7.17661C41.121 7.56061 41.6223 8.07794 41.985 8.72861C42.3477 9.37928 42.529 10.1099 42.529 10.9206C42.529 11.7313 42.3477 12.4673 41.985 13.1286C41.6223 13.7793 41.121 14.2966 40.481 14.6806C39.841 15.0646 39.105 15.2566 38.273 15.2566ZM38.273 13.6726C38.721 13.6726 39.137 13.5659 39.521 13.3526C39.905 13.1286 40.2143 12.8139 40.449 12.4086C40.6943 11.9926 40.817 11.4966 40.817 10.9206C40.817 10.3446 40.6943 9.85394 40.449 9.44861C40.2143 9.03261 39.905 8.71794 39.521 8.50461C39.137 8.28061 38.721 8.16861 38.273 8.16861C37.825 8.16861 37.4037 8.28061 37.009 8.50461C36.625 8.71794 36.3103 9.03261 36.065 9.44861C35.8303 9.85394 35.713 10.3446 35.713 10.9206C35.713 11.4966 35.8303 11.9926 36.065 12.4086C36.3103 12.8139 36.6303 13.1286 37.025 13.3526C37.4197 13.5659 37.8357 13.6726 38.273 13.6726ZM37.569 5.27261L38.321 3.22461H40.273L38.993 5.27261H37.569ZM45.8262 15.0006L43.2182 6.84061H45.0902L46.7702 12.7126H46.8342L48.6742 6.84061H50.4502L52.2902 12.7126H52.3542L54.0342 6.84061H55.8742L53.2502 15.0006H51.4422L49.5542 9.09661H49.4902L47.6182 15.0006H45.8262ZM60.6076 15.0006V13.5606L65.1516 8.34461H60.7516V6.84061H67.2636V8.28061L62.7356 13.4966H67.3916V15.0006H60.6076Z" fill="white"/>
<g id="GPay (Dark)">
<g id="GPay">
<g id="Pay">
<path id="Fill 1" fill-rule="evenodd" clip-rule="evenodd" d="M96.3563 3.42339V8.16175H99.2784C99.9745 8.16175 100.55 7.92781 101.005 7.45993C101.473 6.99313 101.707 6.43644 101.707 5.79203C101.707 5.16061 101.473 4.61041 101.005 4.14254C100.55 3.66274 99.9745 3.4223 99.2784 3.4223H96.3563V3.42339ZM96.3563 9.82966V15.3262H94.6107V1.75549H99.2404C100.417 1.75549 101.415 2.14756 102.238 2.93061C103.073 3.71365 103.491 4.66782 103.491 5.79203C103.491 6.94224 103.073 7.90291 102.238 8.67296C101.428 9.44409 100.429 9.82858 99.2404 9.82858H96.3563V9.82966Z" fill="white"/>
<path id="Fill 3" fill-rule="evenodd" clip-rule="evenodd" d="M105.255 12.4831C105.255 12.9379 105.448 13.317 105.834 13.6203C106.22 13.9235 106.672 14.0752 107.19 14.0752C107.924 14.0752 108.578 13.8032 109.153 13.2607C109.729 12.717 110.017 12.0791 110.017 11.3469C109.472 10.917 108.713 10.7025 107.74 10.7025C107.031 10.7025 106.44 10.8736 105.966 11.2148C105.492 11.5559 105.255 11.9773 105.255 12.4831M107.513 5.73566C108.803 5.73566 109.821 6.08007 110.569 6.76889C111.314 7.45771 111.687 8.40213 111.687 9.60216V15.3261H110.018V14.0373H109.942C109.221 15.0985 108.259 15.6294 107.058 15.6294C106.033 15.6294 105.176 15.3261 104.487 14.7196C103.797 14.1131 103.453 13.3549 103.453 12.4452C103.453 11.4845 103.816 10.7208 104.543 10.1523C105.271 9.58375 106.241 9.2989 107.456 9.2989C108.492 9.2989 109.346 9.48844 110.017 9.86751V9.46894C110.017 8.86243 109.776 8.34798 109.296 7.92451C108.814 7.50103 108.252 7.28984 107.607 7.28984C106.633 7.28984 105.862 7.70032 105.293 8.52235L103.755 7.55519C104.603 6.34217 105.855 5.73566 107.513 5.73566" fill="white"/>
<path id="Fill 5" fill-rule="evenodd" clip-rule="evenodd" d="M121.269 6.03894L115.443 19.4201H113.641L115.804 14.738L111.971 6.03894H113.869L116.639 12.7106H116.677L119.371 6.03894H121.269Z" fill="white"/>
</g>
<g id="G">
<path id="Fill 8" fill-rule="evenodd" clip-rule="evenodd" d="M89.3029 8.64473C89.3029 8.09563 89.2562 7.56601 89.1684 7.05914H81.8065V10.0625H86.0231C85.842 11.0414 85.2944 11.8744 84.4639 12.4322V14.3828H86.9804C88.4539 13.0246 89.3029 11.0177 89.3029 8.64473" fill="#4285F4"/>
<path id="Fill 10" fill-rule="evenodd" clip-rule="evenodd" d="M81.8065 16.2651C83.9131 16.2651 85.6869 15.5741 86.9804 14.3828L84.4639 12.4322C83.7635 12.9033 82.8614 13.1784 81.8065 13.1784C79.7703 13.1784 78.042 11.8073 77.424 9.95959H74.8316V11.9687C76.1164 14.516 78.7565 16.2651 81.8065 16.2651" fill="#34A853"/>
<path id="Fill 12" fill-rule="evenodd" clip-rule="evenodd" d="M77.424 9.9596C77.2657 9.48847 77.179 8.98593 77.179 8.46715C77.179 7.94837 77.2657 7.44583 77.424 6.9747V4.96564H74.8316C74.3003 6.01837 74 7.20756 74 8.46715C74 9.72674 74.3003 10.916 74.8316 11.9687L77.424 9.9596Z" fill="#FABB05"/>
<path id="Fill 14" fill-rule="evenodd" clip-rule="evenodd" d="M81.8065 3.75583C82.9568 3.75583 83.9879 4.15115 84.8011 4.92553V4.92661L87.0292 2.70094C85.6761 1.44243 83.912 0.669128 81.8065 0.669128C78.7565 0.669128 76.1164 2.41826 74.8316 4.9656L77.424 6.97467C78.042 5.12698 79.7703 3.75583 81.8065 3.75583" fill="#E94235"/>
</g>
</g>
</g>
</g>
</svg>
