<svg width="272" height="38" viewBox="0 0 272 38" fill="none" xmlns="http://www.w3.org/2000/svg">
<g id="pl_order_with_Light">
<path id="Text" d="M1.85697 30V26.864L12.357 12.864H2.30497V9.952H15.913V13.088L5.49697 27.088H16.025V30H1.85697ZM23.8799 30.448C22.8533 30.448 21.9386 30.252 21.1359 29.86C20.3333 29.4493 19.7079 28.88 19.2599 28.152C18.8119 27.424 18.5879 26.5933 18.5879 25.66C18.5879 24.652 18.8493 23.7933 19.3719 23.084C19.9133 22.356 20.6319 21.8053 21.5279 21.432C22.4239 21.0587 23.4133 20.872 24.4959 20.872C25.3919 20.872 26.1759 20.956 26.8479 21.124C27.5386 21.292 28.0613 21.4693 28.4159 21.656V20.9C28.4159 19.9667 28.0799 19.22 27.4079 18.66C26.7359 18.1 25.8679 17.82 24.8039 17.82C24.0759 17.82 23.3853 17.988 22.7319 18.324C22.0786 18.6413 21.5559 19.08 21.1639 19.64L19.0919 18.044C19.7079 17.1853 20.5199 16.5133 21.5279 16.028C22.5546 15.524 23.6746 15.272 24.8879 15.272C26.9599 15.272 28.5559 15.7853 29.6759 16.812C30.7959 17.82 31.3559 19.2387 31.3559 21.068V30H28.4159V28.236H28.2479C27.8746 28.8147 27.3146 29.328 26.5679 29.776C25.8213 30.224 24.9253 30.448 23.8799 30.448ZM24.4119 27.984C25.1959 27.984 25.8866 27.7973 26.4839 27.424C27.0813 27.0507 27.5479 26.5653 27.8839 25.968C28.2386 25.352 28.4159 24.6893 28.4159 23.98C27.9866 23.7373 27.4826 23.5413 26.9039 23.392C26.3253 23.224 25.7093 23.14 25.0559 23.14C23.8239 23.14 22.9466 23.392 22.4239 23.896C21.9013 24.3813 21.6399 24.9787 21.6399 25.688C21.6399 26.36 21.8919 26.9107 22.3959 27.34C22.8999 27.7693 23.5719 27.984 24.4119 27.984ZM34.9851 30V15.72H37.8411V17.68H38.0091C38.4198 16.9893 39.0171 16.42 39.8011 15.972C40.5851 15.5053 41.4531 15.272 42.4051 15.272C43.4691 15.272 44.3744 15.524 45.1211 16.028C45.8678 16.532 46.3998 17.1667 46.7171 17.932C47.1838 17.1853 47.8184 16.56 48.6211 16.056C49.4238 15.5333 50.4038 15.272 51.5611 15.272C53.2411 15.272 54.4918 15.7853 55.3131 16.812C56.1344 17.82 56.5451 19.164 56.5451 20.844V30H53.5491V21.348C53.5491 20.2093 53.2971 19.3787 52.7931 18.856C52.3078 18.3147 51.6264 18.044 50.7491 18.044C50.0584 18.044 49.4518 18.24 48.9291 18.632C48.4064 19.0053 47.9958 19.5187 47.6971 20.172C47.4171 20.8253 47.2771 21.5533 47.2771 22.356V30H44.2811V21.348C44.2811 20.2093 44.0291 19.3787 43.5251 18.856C43.0211 18.3147 42.3118 18.044 41.3971 18.044C40.7251 18.044 40.1371 18.24 39.6331 18.632C39.1291 19.024 38.7278 19.5467 38.4291 20.2C38.1491 20.8533 38.0091 21.5813 38.0091 22.384V30H34.9851ZM66.9699 30.448C65.4953 30.448 64.1979 30.112 63.0779 29.44C61.9579 28.768 61.0806 27.8627 60.4459 26.724C59.8113 25.5853 59.4939 24.2973 59.4939 22.86C59.4939 21.4413 59.8113 20.1627 60.4459 19.024C61.0806 17.8667 61.9579 16.952 63.0779 16.28C64.1979 15.608 65.4953 15.272 66.9699 15.272C68.4259 15.272 69.7139 15.608 70.8339 16.28C71.9539 16.952 72.8313 17.8667 73.4659 19.024C74.1006 20.1627 74.4179 21.4413 74.4179 22.86C74.4179 24.2973 74.1006 25.5853 73.4659 26.724C72.8313 27.8627 71.9539 28.768 70.8339 29.44C69.7139 30.112 68.4259 30.448 66.9699 30.448ZM66.9699 27.676C67.7539 27.676 68.4819 27.4893 69.1539 27.116C69.8259 26.724 70.3673 26.1733 70.7779 25.464C71.2073 24.736 71.4219 23.868 71.4219 22.86C71.4219 21.852 71.2073 20.9933 70.7779 20.284C70.3673 19.556 69.8259 19.0053 69.1539 18.632C68.4819 18.24 67.7539 18.044 66.9699 18.044C66.1859 18.044 65.4486 18.24 64.7579 18.632C64.0859 19.0053 63.5353 19.556 63.1059 20.284C62.6953 20.9933 62.4899 21.852 62.4899 22.86C62.4899 23.868 62.6953 24.736 63.1059 25.464C63.5353 26.1733 64.0859 26.724 64.7579 27.116C65.4486 27.4893 66.1859 27.676 66.9699 27.676ZM65.7379 12.976L67.0539 9.392H70.4699L68.2299 12.976H65.7379ZM80.2256 30L75.6616 15.72H78.9376L81.8776 25.996H81.9896L85.2096 15.72H88.3176L91.5376 25.996H91.6496L94.5896 15.72H97.8096L93.2176 30H90.0536L86.7496 19.668H86.6376L83.3616 30H80.2256ZM106.868 36.048V15.72H109.696V17.652H109.864C110.237 17.036 110.816 16.4853 111.6 16C112.403 15.5147 113.355 15.272 114.456 15.272C115.763 15.272 116.929 15.5987 117.956 16.252C118.983 16.9053 119.795 17.8013 120.392 18.94C121.008 20.0787 121.316 21.3853 121.316 22.86C121.316 24.3347 121.008 25.6507 120.392 26.808C119.795 27.9467 118.983 28.8427 117.956 29.496C116.929 30.1307 115.763 30.448 114.456 30.448C113.355 30.448 112.403 30.2147 111.6 29.748C110.816 29.2627 110.237 28.712 109.864 28.096H109.696L109.864 30.084V36.048H106.868ZM114.008 27.676C114.755 27.676 115.455 27.48 116.108 27.088C116.761 26.696 117.293 26.1453 117.704 25.436C118.115 24.708 118.32 23.8493 118.32 22.86C118.32 21.8707 118.115 21.0213 117.704 20.312C117.293 19.584 116.761 19.024 116.108 18.632C115.455 18.24 114.755 18.044 114.008 18.044C113.261 18.044 112.561 18.24 111.908 18.632C111.255 19.024 110.723 19.584 110.312 20.312C109.901 21.0213 109.696 21.8707 109.696 22.86C109.696 23.8493 109.901 24.708 110.312 25.436C110.723 26.1453 111.255 26.696 111.908 27.088C112.561 27.48 113.261 27.676 114.008 27.676ZM124.259 30V15.72H127.115V17.82H127.283C127.6 17.092 128.141 16.4947 128.907 16.028C129.691 15.5427 130.531 15.3 131.427 15.3C131.819 15.3 132.145 15.328 132.407 15.384C132.687 15.44 132.939 15.5053 133.163 15.58V18.716C132.808 18.5667 132.444 18.4453 132.071 18.352C131.716 18.2587 131.343 18.212 130.951 18.212C130.241 18.212 129.607 18.408 129.047 18.8C128.505 19.1733 128.076 19.6867 127.759 20.34C127.441 20.9747 127.283 21.6747 127.283 22.44V30H124.259ZM134.795 30V27.48L142.747 18.352H135.047V15.72H146.443V18.24L138.519 27.368H146.667V30H134.795ZM156.047 30.448C154.647 30.448 153.396 30.1213 152.295 29.468C151.193 28.8147 150.325 27.9187 149.691 26.78C149.075 25.6413 148.767 24.344 148.767 22.888C148.767 21.5253 149.065 20.2653 149.663 19.108C150.26 17.9507 151.091 17.0267 152.155 16.336C153.237 15.6267 154.479 15.272 155.879 15.272C157.353 15.272 158.604 15.5893 159.631 16.224C160.676 16.8587 161.469 17.7267 162.011 18.828C162.552 19.9293 162.823 21.1707 162.823 22.552C162.823 22.7573 162.813 22.944 162.795 23.112C162.795 23.28 162.785 23.4107 162.767 23.504H151.735C151.884 24.9227 152.379 25.9867 153.219 26.696C154.077 27.4053 155.048 27.76 156.131 27.76C157.101 27.76 157.904 27.5453 158.539 27.116C159.173 26.668 159.677 26.1173 160.051 25.464L162.543 26.668C161.927 27.788 161.087 28.7027 160.023 29.412C158.959 30.1027 157.633 30.448 156.047 30.448ZM155.907 17.848C154.899 17.848 154.04 18.156 153.331 18.772C152.621 19.388 152.145 20.2093 151.903 21.236H159.827C159.789 20.7507 159.631 20.2467 159.351 19.724C159.071 19.2013 158.641 18.7627 158.063 18.408C157.503 18.0347 156.784 17.848 155.907 17.848ZM165.063 30V27.48L173.015 18.352H165.315V15.72H176.711V18.24L168.787 27.368H176.935V30H165.063Z" fill="#3C4043"/>
<g id="GPay Logo (Light)">
<g id="GPay">
<g id="Pay">
<path id="Fill 1" fill-rule="evenodd" clip-rule="evenodd" d="M228.529 9.44664V17.6128H233.565C234.765 17.6128 235.757 17.2096 236.541 16.4032C237.347 15.5988 237.75 14.6394 237.75 13.5288C237.75 12.4406 237.347 11.4924 236.541 10.686C235.757 9.85915 234.765 9.44478 233.565 9.44478H228.529V9.44664ZM228.529 20.4872V29.9599H225.521V6.57217H233.499C235.527 6.57217 237.248 7.24786 238.666 8.59737C240.105 9.94688 240.824 11.5913 240.824 13.5288C240.824 15.511 240.105 17.1667 238.666 18.4938C237.27 19.8227 235.547 20.4854 233.499 20.4854H228.529V20.4872Z" fill="#5F6368"/>
<path id="Fill 3" fill-rule="evenodd" clip-rule="evenodd" d="M243.864 25.0602C243.864 25.8442 244.197 26.4975 244.862 27.0201C245.527 27.5427 246.306 27.804 247.2 27.804C248.465 27.804 249.591 27.3354 250.584 26.4004C251.576 25.4634 252.071 24.364 252.071 23.1022C251.133 22.3612 249.825 21.9916 248.147 21.9916C246.925 21.9916 245.907 22.2865 245.09 22.8745C244.273 23.4623 243.864 24.1886 243.864 25.0602ZM247.756 13.4317C249.98 13.4317 251.735 14.0252 253.022 15.2124C254.308 16.3995 254.95 18.0271 254.95 20.0952V29.9599H252.073V27.7387H251.942C250.699 29.5677 249.042 30.4825 246.972 30.4825C245.206 30.4825 243.728 29.9599 242.541 28.9146C241.353 27.8694 240.759 26.5628 240.759 24.9949C240.759 23.3393 241.385 22.0232 242.638 21.0434C243.892 20.0635 245.565 19.5726 247.658 19.5726C249.444 19.5726 250.916 19.8992 252.071 20.5525V19.8656C252.071 18.8204 251.656 17.9338 250.829 17.204C249.999 16.4741 249.031 16.1102 247.919 16.1102C246.239 16.1102 244.911 16.8176 243.93 18.2343L241.28 16.5675C242.741 14.4769 244.899 13.4317 247.756 13.4317Z" fill="#5F6368"/>
<path id="Fill 5" fill-rule="evenodd" clip-rule="evenodd" d="M271.463 13.9543L261.424 37.0154H258.318L262.046 28.9464L255.44 13.9543H258.71L263.484 25.4522H263.55L268.193 13.9543H271.463Z" fill="#5F6368"/>
</g>
<g id="G">
<path id="Fill 8" fill-rule="evenodd" clip-rule="evenodd" d="M216.373 18.4452C216.373 17.4989 216.293 16.5861 216.141 15.7126H203.454V20.8885H210.72C210.408 22.5757 209.465 24.0112 208.033 24.9725V28.3341H212.37C214.91 25.9935 216.373 22.5348 216.373 18.4452Z" fill="#4285F4"/>
<path id="Fill 10" fill-rule="evenodd" clip-rule="evenodd" d="M203.454 31.5782C207.084 31.5782 210.141 30.3873 212.37 28.3341L208.033 24.9725C206.826 25.7844 205.272 26.2585 203.454 26.2585C199.944 26.2585 196.966 23.8955 195.901 20.7112H191.433V24.1736C193.647 28.5637 198.197 31.5782 203.454 31.5782Z" fill="#34A853"/>
<path id="Fill 12" fill-rule="evenodd" clip-rule="evenodd" d="M195.901 20.7111C195.628 19.8992 195.479 19.0331 195.479 18.139C195.479 17.245 195.628 16.3789 195.901 15.567V12.1045H191.433C190.518 13.9188 190 15.9683 190 18.139C190 20.3098 190.518 22.3595 191.433 24.1736L195.901 20.7111Z" fill="#FABB05"/>
<path id="Fill 14" fill-rule="evenodd" clip-rule="evenodd" d="M203.454 10.0196C205.436 10.0196 207.213 10.7009 208.615 12.0355V12.0374L212.455 8.20162C210.123 6.03271 207.082 4.7 203.454 4.7C198.197 4.7 193.647 7.71446 191.433 12.1046L195.901 15.567C196.966 12.3827 199.944 10.0196 203.454 10.0196Z" fill="#E94235"/>
</g>
</g>
</g>
</g>
</svg>
