<svg width="268" height="38" viewBox="0 0 268 38" fill="none" xmlns="http://www.w3.org/2000/svg">
<g id="pl_pay_with_Light">
<path id="Text" d="M2.50618 30V26.864L13.0062 12.864H2.95418V9.952H16.5622V13.088L6.14618 27.088H16.6742V30H2.50618ZM24.5292 30.448C23.5025 30.448 22.5878 30.252 21.7852 29.86C20.9825 29.4493 20.3572 28.88 19.9092 28.152C19.4612 27.424 19.2372 26.5933 19.2372 25.66C19.2372 24.652 19.4985 23.7933 20.0212 23.084C20.5625 22.356 21.2812 21.8053 22.1772 21.432C23.0732 21.0587 24.0625 20.872 25.1452 20.872C26.0412 20.872 26.8252 20.956 27.4972 21.124C28.1878 21.292 28.7105 21.4693 29.0652 21.656V20.9C29.0652 19.9667 28.7292 19.22 28.0572 18.66C27.3852 18.1 26.5172 17.82 25.4532 17.82C24.7252 17.82 24.0345 17.988 23.3812 18.324C22.7278 18.6413 22.2052 19.08 21.8132 19.64L19.7412 18.044C20.3572 17.1853 21.1692 16.5133 22.1772 16.028C23.2038 15.524 24.3238 15.272 25.5372 15.272C27.6092 15.272 29.2052 15.7853 30.3252 16.812C31.4452 17.82 32.0052 19.2387 32.0052 21.068V30H29.0652V28.236H28.8972C28.5238 28.8147 27.9638 29.328 27.2172 29.776C26.4705 30.224 25.5745 30.448 24.5292 30.448ZM25.0612 27.984C25.8452 27.984 26.5358 27.7973 27.1332 27.424C27.7305 27.0507 28.1972 26.5653 28.5332 25.968C28.8878 25.352 29.0652 24.6893 29.0652 23.98C28.6358 23.7373 28.1318 23.5413 27.5532 23.392C26.9745 23.224 26.3585 23.14 25.7052 23.14C24.4732 23.14 23.5958 23.392 23.0732 23.896C22.5505 24.3813 22.2892 24.9787 22.2892 25.688C22.2892 26.36 22.5412 26.9107 23.0452 27.34C23.5492 27.7693 24.2212 27.984 25.0612 27.984ZM35.6063 36.048V15.72H38.4343V17.652H38.6023C38.9756 17.036 39.5543 16.4853 40.3383 16C41.141 15.5147 42.093 15.272 43.1943 15.272C44.501 15.272 45.6676 15.5987 46.6943 16.252C47.721 16.9053 48.533 17.8013 49.1303 18.94C49.7463 20.0787 50.0543 21.3853 50.0543 22.86C50.0543 24.3347 49.7463 25.6507 49.1303 26.808C48.533 27.9467 47.721 28.8427 46.6943 29.496C45.6676 30.1307 44.501 30.448 43.1943 30.448C42.093 30.448 41.141 30.2147 40.3383 29.748C39.5543 29.2627 38.9756 28.712 38.6023 28.096H38.4343L38.6023 30.084V36.048H35.6063ZM42.7463 27.676C43.493 27.676 44.193 27.48 44.8463 27.088C45.4996 26.696 46.0316 26.1453 46.4423 25.436C46.853 24.708 47.0583 23.8493 47.0583 22.86C47.0583 21.8707 46.853 21.0213 46.4423 20.312C46.0316 19.584 45.4996 19.024 44.8463 18.632C44.193 18.24 43.493 18.044 42.7463 18.044C41.9996 18.044 41.2996 18.24 40.6463 18.632C39.993 19.024 39.461 19.584 39.0503 20.312C38.6396 21.0213 38.4343 21.8707 38.4343 22.86C38.4343 23.8493 38.6396 24.708 39.0503 25.436C39.461 26.1453 39.993 26.696 40.6463 27.088C41.2996 27.48 41.9996 27.676 42.7463 27.676ZM55.3735 30V9.952H58.3975V30H55.3735ZM61.8135 17.176L53.9175 22.804L52.3775 20.788L60.2735 15.132L61.8135 17.176ZM69.1518 30.448C68.1251 30.448 67.2105 30.252 66.4078 29.86C65.6051 29.4493 64.9798 28.88 64.5318 28.152C64.0838 27.424 63.8598 26.5933 63.8598 25.66C63.8598 24.652 64.1211 23.7933 64.6438 23.084C65.1851 22.356 65.9038 21.8053 66.7998 21.432C67.6958 21.0587 68.6851 20.872 69.7678 20.872C70.6638 20.872 71.4478 20.956 72.1198 21.124C72.8105 21.292 73.3331 21.4693 73.6878 21.656V20.9C73.6878 19.9667 73.3518 19.22 72.6798 18.66C72.0078 18.1 71.1398 17.82 70.0758 17.82C69.3478 17.82 68.6571 17.988 68.0038 18.324C67.3505 18.6413 66.8278 19.08 66.4358 19.64L64.3638 18.044C64.9798 17.1853 65.7918 16.5133 66.7998 16.028C67.8265 15.524 68.9465 15.272 70.1598 15.272C72.2318 15.272 73.8278 15.7853 74.9478 16.812C76.0678 17.82 76.6278 19.2387 76.6278 21.068V30H73.6878V28.236H73.5198C73.1465 28.8147 72.5865 29.328 71.8398 29.776C71.0931 30.224 70.1971 30.448 69.1518 30.448ZM69.6838 27.984C70.4678 27.984 71.1585 27.7973 71.7558 27.424C72.3531 27.0507 72.8198 26.5653 73.1558 25.968C73.5105 25.352 73.6878 24.6893 73.6878 23.98C73.2585 23.7373 72.7545 23.5413 72.1758 23.392C71.5971 23.224 70.9811 23.14 70.3278 23.14C69.0958 23.14 68.2185 23.392 67.6958 23.896C67.1731 24.3813 66.9118 24.9787 66.9118 25.688C66.9118 26.36 67.1638 26.9107 67.6678 27.34C68.1718 27.7693 68.8438 27.984 69.6838 27.984ZM86.7282 30.448C85.2909 30.448 84.0216 30.1213 82.9202 29.468C81.8189 28.8147 80.9509 27.9187 80.3162 26.78C79.6816 25.6227 79.3642 24.316 79.3642 22.86C79.3642 21.404 79.6816 20.1067 80.3162 18.968C80.9509 17.8107 81.8189 16.9053 82.9202 16.252C84.0216 15.5987 85.2909 15.272 86.7282 15.272C88.3149 15.272 89.6496 15.6267 90.7322 16.336C91.8336 17.0453 92.6176 18.0067 93.0842 19.22L90.3402 20.34C89.6869 18.8093 88.4642 18.044 86.6722 18.044C85.8882 18.044 85.1696 18.2493 84.5162 18.66C83.8629 19.052 83.3402 19.612 82.9482 20.34C82.5562 21.0493 82.3602 21.8893 82.3602 22.86C82.3602 23.8307 82.5562 24.68 82.9482 25.408C83.3402 26.136 83.8629 26.696 84.5162 27.088C85.1696 27.48 85.8882 27.676 86.6722 27.676C87.5869 27.676 88.3616 27.4707 88.9962 27.06C89.6309 26.6307 90.1256 26.052 90.4802 25.324L93.1682 26.5C92.6642 27.6387 91.8616 28.5813 90.7602 29.328C89.6589 30.0747 88.3149 30.448 86.7282 30.448ZM85.4682 12.976L86.7842 9.392H90.2002L87.9602 12.976H85.4682ZM102.868 36.048V15.72H105.696V17.652H105.864C106.237 17.036 106.816 16.4853 107.6 16C108.403 15.5147 109.355 15.272 110.456 15.272C111.763 15.272 112.929 15.5987 113.956 16.252C114.983 16.9053 115.795 17.8013 116.392 18.94C117.008 20.0787 117.316 21.3853 117.316 22.86C117.316 24.3347 117.008 25.6507 116.392 26.808C115.795 27.9467 114.983 28.8427 113.956 29.496C112.929 30.1307 111.763 30.448 110.456 30.448C109.355 30.448 108.403 30.2147 107.6 29.748C106.816 29.2627 106.237 28.712 105.864 28.096H105.696L105.864 30.084V36.048H102.868ZM110.008 27.676C110.755 27.676 111.455 27.48 112.108 27.088C112.761 26.696 113.293 26.1453 113.704 25.436C114.115 24.708 114.32 23.8493 114.32 22.86C114.32 21.8707 114.115 21.0213 113.704 20.312C113.293 19.584 112.761 19.024 112.108 18.632C111.455 18.24 110.755 18.044 110.008 18.044C109.261 18.044 108.561 18.24 107.908 18.632C107.255 19.024 106.723 19.584 106.312 20.312C105.901 21.0213 105.696 21.8707 105.696 22.86C105.696 23.8493 105.901 24.708 106.312 25.436C106.723 26.1453 107.255 26.696 107.908 27.088C108.561 27.48 109.261 27.676 110.008 27.676ZM120.259 30V15.72H123.115V17.82H123.283C123.6 17.092 124.141 16.4947 124.907 16.028C125.691 15.5427 126.531 15.3 127.427 15.3C127.819 15.3 128.145 15.328 128.407 15.384C128.687 15.44 128.939 15.5053 129.163 15.58V18.716C128.808 18.5667 128.444 18.4453 128.071 18.352C127.716 18.2587 127.343 18.212 126.951 18.212C126.241 18.212 125.607 18.408 125.047 18.8C124.505 19.1733 124.076 19.6867 123.759 20.34C123.441 20.9747 123.283 21.6747 123.283 22.44V30H120.259ZM130.795 30V27.48L138.747 18.352H131.047V15.72H142.443V18.24L134.519 27.368H142.667V30H130.795ZM152.047 30.448C150.647 30.448 149.396 30.1213 148.295 29.468C147.193 28.8147 146.325 27.9187 145.691 26.78C145.075 25.6413 144.767 24.344 144.767 22.888C144.767 21.5253 145.065 20.2653 145.663 19.108C146.26 17.9507 147.091 17.0267 148.155 16.336C149.237 15.6267 150.479 15.272 151.879 15.272C153.353 15.272 154.604 15.5893 155.631 16.224C156.676 16.8587 157.469 17.7267 158.011 18.828C158.552 19.9293 158.823 21.1707 158.823 22.552C158.823 22.7573 158.813 22.944 158.795 23.112C158.795 23.28 158.785 23.4107 158.767 23.504H147.735C147.884 24.9227 148.379 25.9867 149.219 26.696C150.077 27.4053 151.048 27.76 152.131 27.76C153.101 27.76 153.904 27.5453 154.539 27.116C155.173 26.668 155.677 26.1173 156.051 25.464L158.543 26.668C157.927 27.788 157.087 28.7027 156.023 29.412C154.959 30.1027 153.633 30.448 152.047 30.448ZM151.907 17.848C150.899 17.848 150.04 18.156 149.331 18.772C148.621 19.388 148.145 20.2093 147.903 21.236H155.827C155.789 20.7507 155.631 20.2467 155.351 19.724C155.071 19.2013 154.641 18.7627 154.063 18.408C153.503 18.0347 152.784 17.848 151.907 17.848ZM161.063 30V27.48L169.015 18.352H161.315V15.72H172.711V18.24L164.787 27.368H172.935V30H161.063Z" fill="#3C4043"/>
<g id="GPay Logo (Light)">
<g id="GPay">
<g id="Pay">
<path id="Fill 1" fill-rule="evenodd" clip-rule="evenodd" d="M224.529 9.44664V17.6128H229.565C230.765 17.6128 231.757 17.2096 232.541 16.4032C233.347 15.5988 233.75 14.6394 233.75 13.5288C233.75 12.4406 233.347 11.4924 232.541 10.686C231.757 9.85915 230.765 9.44478 229.565 9.44478H224.529V9.44664ZM224.529 20.4872V29.9599H221.521V6.57217H229.499C231.527 6.57217 233.248 7.24786 234.666 8.59737C236.105 9.94688 236.824 11.5913 236.824 13.5288C236.824 15.511 236.105 17.1667 234.666 18.4938C233.27 19.8227 231.547 20.4854 229.499 20.4854H224.529V20.4872Z" fill="#5F6368"/>
<path id="Fill 3" fill-rule="evenodd" clip-rule="evenodd" d="M239.864 25.0602C239.864 25.8442 240.197 26.4975 240.862 27.0201C241.527 27.5427 242.306 27.804 243.2 27.804C244.465 27.804 245.591 27.3354 246.584 26.4004C247.576 25.4634 248.071 24.364 248.071 23.1022C247.133 22.3612 245.825 21.9916 244.147 21.9916C242.925 21.9916 241.907 22.2865 241.09 22.8745C240.273 23.4623 239.864 24.1886 239.864 25.0602ZM243.756 13.4317C245.98 13.4317 247.735 14.0252 249.022 15.2124C250.308 16.3995 250.95 18.0271 250.95 20.0952V29.9599H248.073V27.7387H247.942C246.699 29.5677 245.042 30.4825 242.972 30.4825C241.206 30.4825 239.728 29.9599 238.541 28.9146C237.353 27.8694 236.759 26.5628 236.759 24.9949C236.759 23.3393 237.385 22.0232 238.638 21.0434C239.892 20.0635 241.565 19.5726 243.658 19.5726C245.444 19.5726 246.916 19.8992 248.071 20.5525V19.8656C248.071 18.8204 247.656 17.9338 246.829 17.204C245.999 16.4741 245.031 16.1102 243.919 16.1102C242.239 16.1102 240.911 16.8176 239.93 18.2343L237.28 16.5675C238.741 14.4769 240.899 13.4317 243.756 13.4317Z" fill="#5F6368"/>
<path id="Fill 5" fill-rule="evenodd" clip-rule="evenodd" d="M267.463 13.9543L257.424 37.0154H254.318L258.046 28.9464L251.44 13.9543H254.71L259.484 25.4522H259.55L264.193 13.9543H267.463Z" fill="#5F6368"/>
</g>
<g id="G">
<path id="Fill 8" fill-rule="evenodd" clip-rule="evenodd" d="M212.373 18.4452C212.373 17.4989 212.293 16.5861 212.141 15.7126H199.454V20.8885H206.72C206.408 22.5757 205.465 24.0112 204.033 24.9725V28.3341H208.37C210.91 25.9935 212.373 22.5348 212.373 18.4452Z" fill="#4285F4"/>
<path id="Fill 10" fill-rule="evenodd" clip-rule="evenodd" d="M199.454 31.5782C203.084 31.5782 206.141 30.3873 208.37 28.3341L204.033 24.9725C202.826 25.7844 201.272 26.2585 199.454 26.2585C195.944 26.2585 192.966 23.8955 191.901 20.7112H187.433V24.1736C189.647 28.5637 194.197 31.5782 199.454 31.5782Z" fill="#34A853"/>
<path id="Fill 12" fill-rule="evenodd" clip-rule="evenodd" d="M191.901 20.7111C191.628 19.8992 191.479 19.0331 191.479 18.139C191.479 17.245 191.628 16.3789 191.901 15.567V12.1045H187.433C186.518 13.9188 186 15.9683 186 18.139C186 20.3098 186.518 22.3595 187.433 24.1736L191.901 20.7111Z" fill="#FABB05"/>
<path id="Fill 14" fill-rule="evenodd" clip-rule="evenodd" d="M199.454 10.0196C201.436 10.0196 203.213 10.7009 204.615 12.0355V12.0374L208.455 8.20162C206.123 6.03271 203.082 4.7 199.454 4.7C194.197 4.7 189.647 7.71446 187.433 12.1046L191.901 15.567C192.966 12.3827 195.944 10.0196 199.454 10.0196Z" fill="#E94235"/>
</g>
</g>
</g>
</g>
</svg>
