<svg width="322" height="38" viewBox="0 0 322 38" fill="none" xmlns="http://www.w3.org/2000/svg">
<g id="pl_subscribe_with_Dark">
<path id="Text" d="M8.38497 30.448C7.32097 30.448 6.30364 30.2427 5.33297 29.832C4.3623 29.4027 3.50364 28.7773 2.75697 27.956C2.02897 27.1347 1.48764 26.1173 1.13297 24.904L4.04497 23.728C4.34364 24.8107 4.8663 25.716 5.61297 26.444C6.35964 27.172 7.29297 27.536 8.41297 27.536C9.04764 27.536 9.63564 27.424 10.177 27.2C10.737 26.976 11.185 26.6493 11.521 26.22C11.857 25.772 12.025 25.2307 12.025 24.596C12.025 23.7187 11.6983 23.0187 11.045 22.496C10.3916 21.9547 9.3463 21.4227 7.90897 20.9L6.64897 20.452C5.92097 20.1907 5.18364 19.836 4.43697 19.388C3.70897 18.9213 3.1023 18.3333 2.61697 17.624C2.13164 16.896 1.88897 16.0093 1.88897 14.964C1.88897 13.9747 2.1503 13.0693 2.67297 12.248C3.2143 11.408 3.95164 10.7453 4.88497 10.26C5.83697 9.756 6.9383 9.504 8.18897 9.504C9.47697 9.504 10.5503 9.73733 11.409 10.204C12.2863 10.652 12.9676 11.2027 13.453 11.856C13.957 12.4907 14.3023 13.088 14.489 13.648L11.717 14.824C11.605 14.4507 11.3996 14.0773 11.101 13.704C10.821 13.312 10.4383 12.9947 9.95297 12.752C9.4863 12.4907 8.90764 12.36 8.21697 12.36C7.32097 12.36 6.5463 12.6027 5.89297 13.088C5.2583 13.5547 4.94097 14.1707 4.94097 14.936C4.94097 15.664 5.23964 16.252 5.83697 16.7C6.4343 17.148 7.3023 17.568 8.44097 17.96L9.72897 18.408C10.5876 18.688 11.4276 19.0707 12.249 19.556C13.089 20.0413 13.7703 20.6853 14.293 21.488C14.8343 22.272 15.105 23.2893 15.105 24.54C15.105 25.5667 14.8996 26.4533 14.489 27.2C14.097 27.9467 13.565 28.5627 12.893 29.048C12.2396 29.5147 11.5116 29.86 10.709 30.084C9.92497 30.3267 9.1503 30.448 8.38497 30.448ZM23.2323 30.448C21.4776 30.448 20.1523 29.9253 19.2563 28.88C18.3789 27.816 17.9403 26.3787 17.9403 24.568V15.72H20.9643V24.148C20.9643 25.3613 21.2443 26.2573 21.8043 26.836C22.3829 27.396 23.1016 27.676 23.9603 27.676C24.7256 27.676 25.3883 27.48 25.9483 27.088C26.5269 26.6773 26.9656 26.1547 27.2643 25.52C27.5816 24.8667 27.7403 24.1573 27.7403 23.392V15.72H30.7363V30H27.9083V28.068H27.7403C27.3296 28.74 26.7136 29.3093 25.8923 29.776C25.0896 30.224 24.2029 30.448 23.2323 30.448ZM42.2105 30.448C41.1091 30.448 40.1571 30.2147 39.3545 29.748C38.5705 29.2627 37.9918 28.712 37.6185 28.096H37.4505V30H34.5945V9.952H37.6185V15.664L37.4505 17.652H37.6185C37.9918 17.036 38.5705 16.4853 39.3545 16C40.1571 15.5147 41.1091 15.272 42.2105 15.272C43.5171 15.272 44.6838 15.5987 45.7105 16.252C46.7371 16.9053 47.5491 17.8013 48.1465 18.94C48.7625 20.0787 49.0705 21.3853 49.0705 22.86C49.0705 24.3347 48.7625 25.6507 48.1465 26.808C47.5491 27.9467 46.7371 28.8427 45.7105 29.496C44.6838 30.1307 43.5171 30.448 42.2105 30.448ZM41.7625 27.676C42.5091 27.676 43.2091 27.48 43.8625 27.088C44.5158 26.696 45.0478 26.1453 45.4585 25.436C45.8691 24.708 46.0745 23.8493 46.0745 22.86C46.0745 21.8707 45.8691 21.0213 45.4585 20.312C45.0478 19.584 44.5158 19.024 43.8625 18.632C43.2091 18.24 42.5091 18.044 41.7625 18.044C41.0158 18.044 40.3158 18.24 39.6625 18.632C39.0091 19.024 38.4771 19.584 38.0665 20.312C37.6558 21.0213 37.4505 21.8707 37.4505 22.86C37.4505 23.8493 37.6558 24.708 38.0665 25.436C38.4771 26.1453 39.0091 26.696 39.6625 27.088C40.3158 27.48 41.0158 27.676 41.7625 27.676ZM57.2197 30.448C55.5023 30.448 54.1303 30.0747 53.1037 29.328C52.077 28.5627 51.3677 27.6573 50.9757 26.612L53.6917 25.436C54.0277 26.2013 54.513 26.7893 55.1477 27.2C55.7823 27.592 56.501 27.788 57.3037 27.788C58.0503 27.788 58.6943 27.6573 59.2357 27.396C59.777 27.116 60.0477 26.668 60.0477 26.052C60.0477 25.4547 59.777 25.016 59.2357 24.736C58.6943 24.456 58.0223 24.2133 57.2197 24.008L55.5117 23.616C54.821 23.448 54.177 23.1867 53.5797 22.832C52.9823 22.4773 52.497 22.02 52.1237 21.46C51.7503 20.8813 51.5637 20.2093 51.5637 19.444C51.5637 18.604 51.8157 17.876 52.3197 17.26C52.8237 16.6253 53.4863 16.14 54.3077 15.804C55.1477 15.4493 56.053 15.272 57.0237 15.272C58.349 15.272 59.5063 15.5333 60.4957 16.056C61.5037 16.56 62.241 17.3253 62.7077 18.352L60.1037 19.528C59.7677 18.8933 59.329 18.4547 58.7877 18.212C58.265 17.9507 57.6863 17.82 57.0517 17.82C56.3423 17.82 55.745 17.9693 55.2597 18.268C54.793 18.5667 54.5597 18.94 54.5597 19.388C54.5597 19.8733 54.765 20.256 55.1757 20.536C55.605 20.816 56.1277 21.04 56.7437 21.208L58.8157 21.712C60.2343 22.0667 61.2983 22.608 62.0077 23.336C62.717 24.0453 63.0717 24.9133 63.0717 25.94C63.0717 26.8547 62.8103 27.6573 62.2877 28.348C61.765 29.02 61.0557 29.5427 60.1597 29.916C59.2823 30.2707 58.3023 30.448 57.2197 30.448ZM66.0109 30V9.952H69.0349V21.768L75.0829 15.72H78.8349V15.888L73.3189 21.348L79.0309 29.832V30H75.4469L71.1909 23.448L69.0349 25.576V30H66.0109ZM81.2132 30V15.72H84.0692V17.82H84.2372C84.5546 17.092 85.0959 16.4947 85.8612 16.028C86.6452 15.5427 87.4852 15.3 88.3812 15.3C88.7732 15.3 89.0999 15.328 89.3612 15.384C89.6412 15.44 89.8932 15.5053 90.1172 15.58V18.716C89.7626 18.5667 89.3986 18.4453 89.0252 18.352C88.6706 18.2587 88.2972 18.212 87.9052 18.212C87.1959 18.212 86.5612 18.408 86.0012 18.8C85.4599 19.1733 85.0306 19.6867 84.7132 20.34C84.3959 20.9747 84.2372 21.6747 84.2372 22.44V30H81.2132ZM98.2524 35.348C98.1964 35.4973 98.1311 35.6373 98.0564 35.768C98.0004 35.8987 97.9631 35.992 97.9444 36.048H94.7244C94.8177 35.8427 94.9484 35.544 95.1164 35.152C95.3031 34.7787 95.4804 34.4147 95.6484 34.06C95.8164 33.7053 95.9937 33.304 96.1804 32.856C96.3857 32.408 96.5911 31.9693 96.7964 31.54L97.8604 29.216L91.8964 15.72H95.2564L99.3444 25.464H99.4844L103.432 15.72H106.764L99.3724 32.744C99.1671 33.2293 98.9431 33.7333 98.7004 34.256C98.4764 34.7973 98.3271 35.1613 98.2524 35.348ZM116.417 30.448C115.316 30.448 114.364 30.2147 113.561 29.748C112.777 29.2627 112.199 28.712 111.825 28.096H111.657V30H108.801V9.952H111.825V15.664L111.657 17.652H111.825C112.199 17.036 112.777 16.4853 113.561 16C114.364 15.5147 115.316 15.272 116.417 15.272C117.724 15.272 118.891 15.5987 119.917 16.252C120.944 16.9053 121.756 17.8013 122.353 18.94C122.969 20.0787 123.277 21.3853 123.277 22.86C123.277 24.3347 122.969 25.6507 122.353 26.808C121.756 27.9467 120.944 28.8427 119.917 29.496C118.891 30.1307 117.724 30.448 116.417 30.448ZM115.969 27.676C116.716 27.676 117.416 27.48 118.069 27.088C118.723 26.696 119.255 26.1453 119.665 25.436C120.076 24.708 120.281 23.8493 120.281 22.86C120.281 21.8707 120.076 21.0213 119.665 20.312C119.255 19.584 118.723 19.024 118.069 18.632C117.416 18.24 116.716 18.044 115.969 18.044C115.223 18.044 114.523 18.24 113.869 18.632C113.216 19.024 112.684 19.584 112.273 20.312C111.863 21.0213 111.657 21.8707 111.657 22.86C111.657 23.8493 111.863 24.708 112.273 25.436C112.684 26.1453 113.216 26.696 113.869 27.088C114.523 27.48 115.223 27.676 115.969 27.676ZM131.399 30.448C129.644 30.448 128.319 29.9253 127.423 28.88C126.545 27.816 126.107 26.3787 126.107 24.568V15.72H129.131V24.148C129.131 25.3613 129.411 26.2573 129.971 26.836C130.549 27.396 131.268 27.676 132.127 27.676C132.892 27.676 133.555 27.48 134.115 27.088C134.693 26.6773 135.132 26.1547 135.431 25.52C135.748 24.8667 135.907 24.1573 135.907 23.392V15.72H138.903V30H136.075V28.068H135.907C135.496 28.74 134.88 29.3093 134.059 29.776C133.256 30.224 132.369 30.448 131.399 30.448ZM144.497 13.62C143.937 13.62 143.452 13.424 143.041 13.032C142.649 12.6213 142.453 12.136 142.453 11.576C142.453 11.016 142.649 10.54 143.041 10.148C143.452 9.756 143.937 9.56 144.497 9.56C145.057 9.56 145.533 9.756 145.925 10.148C146.336 10.54 146.541 11.016 146.541 11.576C146.541 12.136 146.336 12.6213 145.925 13.032C145.533 13.424 145.057 13.62 144.497 13.62ZM141.781 36.328C141.202 36.328 140.68 36.2627 140.213 36.132V33.22C140.4 33.332 140.614 33.416 140.857 33.472C141.081 33.5467 141.305 33.584 141.529 33.584C142.07 33.584 142.444 33.416 142.649 33.08C142.873 32.7627 142.985 32.296 142.985 31.68V15.72H146.009V31.708C146.009 33.3507 145.608 34.5267 144.805 35.236C144.002 35.964 142.994 36.328 141.781 36.328ZM156.868 36.048V15.72H159.696V17.652H159.864C160.237 17.036 160.816 16.4853 161.6 16C162.403 15.5147 163.355 15.272 164.456 15.272C165.763 15.272 166.929 15.5987 167.956 16.252C168.983 16.9053 169.795 17.8013 170.392 18.94C171.008 20.0787 171.316 21.3853 171.316 22.86C171.316 24.3347 171.008 25.6507 170.392 26.808C169.795 27.9467 168.983 28.8427 167.956 29.496C166.929 30.1307 165.763 30.448 164.456 30.448C163.355 30.448 162.403 30.2147 161.6 29.748C160.816 29.2627 160.237 28.712 159.864 28.096H159.696L159.864 30.084V36.048H156.868ZM164.008 27.676C164.755 27.676 165.455 27.48 166.108 27.088C166.761 26.696 167.293 26.1453 167.704 25.436C168.115 24.708 168.32 23.8493 168.32 22.86C168.32 21.8707 168.115 21.0213 167.704 20.312C167.293 19.584 166.761 19.024 166.108 18.632C165.455 18.24 164.755 18.044 164.008 18.044C163.261 18.044 162.561 18.24 161.908 18.632C161.255 19.024 160.723 19.584 160.312 20.312C159.901 21.0213 159.696 21.8707 159.696 22.86C159.696 23.8493 159.901 24.708 160.312 25.436C160.723 26.1453 161.255 26.696 161.908 27.088C162.561 27.48 163.261 27.676 164.008 27.676ZM174.259 30V15.72H177.115V17.82H177.283C177.6 17.092 178.141 16.4947 178.907 16.028C179.691 15.5427 180.531 15.3 181.427 15.3C181.819 15.3 182.145 15.328 182.407 15.384C182.687 15.44 182.939 15.5053 183.163 15.58V18.716C182.808 18.5667 182.444 18.4453 182.071 18.352C181.716 18.2587 181.343 18.212 180.951 18.212C180.241 18.212 179.607 18.408 179.047 18.8C178.505 19.1733 178.076 19.6867 177.759 20.34C177.441 20.9747 177.283 21.6747 177.283 22.44V30H174.259ZM184.795 30V27.48L192.747 18.352H185.047V15.72H196.443V18.24L188.519 27.368H196.667V30H184.795ZM206.047 30.448C204.647 30.448 203.396 30.1213 202.295 29.468C201.193 28.8147 200.325 27.9187 199.691 26.78C199.075 25.6413 198.767 24.344 198.767 22.888C198.767 21.5253 199.065 20.2653 199.663 19.108C200.26 17.9507 201.091 17.0267 202.155 16.336C203.237 15.6267 204.479 15.272 205.879 15.272C207.353 15.272 208.604 15.5893 209.631 16.224C210.676 16.8587 211.469 17.7267 212.011 18.828C212.552 19.9293 212.823 21.1707 212.823 22.552C212.823 22.7573 212.813 22.944 212.795 23.112C212.795 23.28 212.785 23.4107 212.767 23.504H201.735C201.884 24.9227 202.379 25.9867 203.219 26.696C204.077 27.4053 205.048 27.76 206.131 27.76C207.101 27.76 207.904 27.5453 208.539 27.116C209.173 26.668 209.677 26.1173 210.051 25.464L212.543 26.668C211.927 27.788 211.087 28.7027 210.023 29.412C208.959 30.1027 207.633 30.448 206.047 30.448ZM205.907 17.848C204.899 17.848 204.04 18.156 203.331 18.772C202.621 19.388 202.145 20.2093 201.903 21.236H209.827C209.789 20.7507 209.631 20.2467 209.351 19.724C209.071 19.2013 208.641 18.7627 208.063 18.408C207.503 18.0347 206.784 17.848 205.907 17.848ZM215.063 30V27.48L223.015 18.352H215.315V15.72H226.711V18.24L218.787 27.368H226.935V30H215.063Z" fill="white"/>
<g id="GPay Logo (Dark)">
<g id="GPay">
<g id="Pay">
<path id="Fill 1" fill-rule="evenodd" clip-rule="evenodd" d="M278.529 9.34665V17.5128H283.565C284.765 17.5128 285.757 17.1096 286.541 16.3032C287.347 15.4988 287.75 14.5394 287.75 13.4288C287.75 12.3406 287.347 11.3924 286.541 10.586C285.757 9.75916 284.765 9.34479 283.565 9.34479H278.529V9.34665ZM278.529 20.3872V29.8599H275.521V6.47218H283.499C285.527 6.47218 287.248 7.14787 288.666 8.49738C290.105 9.84688 290.824 11.4913 290.824 13.4288C290.824 15.411 290.105 17.0667 288.666 18.3938C287.27 19.7227 285.547 20.3854 283.499 20.3854H278.529V20.3872Z" fill="white"/>
<path id="Fill 3" fill-rule="evenodd" clip-rule="evenodd" d="M293.864 24.9602C293.864 25.7442 294.197 26.3975 294.862 26.9201C295.527 27.4427 296.306 27.704 297.2 27.704C298.465 27.704 299.591 27.2354 300.584 26.3004C301.576 25.3634 302.071 24.264 302.071 23.0022C301.133 22.2612 299.825 21.8916 298.147 21.8916C296.925 21.8916 295.907 22.1866 295.09 22.7745C294.273 23.3623 293.864 24.0886 293.864 24.9602ZM297.756 13.3317C299.98 13.3317 301.735 13.9253 303.022 15.1124C304.308 16.2995 304.95 17.9271 304.95 19.9952V29.8599H302.073V27.6387H301.942C300.699 29.4677 299.042 30.3825 296.972 30.3825C295.206 30.3825 293.728 29.8599 292.541 28.8146C291.353 27.7694 290.759 26.4628 290.759 24.8949C290.759 23.2393 291.385 21.9232 292.638 20.9434C293.892 19.9635 295.565 19.4726 297.658 19.4726C299.444 19.4726 300.916 19.7993 302.071 20.4525V19.7657C302.071 18.7204 301.656 17.8338 300.829 17.104C299.999 16.3742 299.031 16.0102 297.919 16.0102C296.239 16.0102 294.911 16.7176 293.93 18.1343L291.28 16.4675C292.741 14.377 294.899 13.3317 297.756 13.3317Z" fill="white"/>
<path id="Fill 5" fill-rule="evenodd" clip-rule="evenodd" d="M321.463 13.8543L311.424 36.9154H308.318L312.046 28.8464L305.44 13.8543H308.71L313.484 25.3522H313.55L318.193 13.8543H321.463Z" fill="white"/>
</g>
<g id="G">
<path id="Fill 8" fill-rule="evenodd" clip-rule="evenodd" d="M266.373 18.3452C266.373 17.3989 266.293 16.4861 266.141 15.6126H253.454V20.7885H260.72C260.408 22.4757 259.465 23.9112 258.033 24.8725V28.2341H262.37C264.91 25.8935 266.373 22.4348 266.373 18.3452Z" fill="#4285F4"/>
<path id="Fill 10" fill-rule="evenodd" clip-rule="evenodd" d="M253.454 31.4782C257.084 31.4782 260.141 30.2873 262.37 28.2341L258.033 24.8725C256.826 25.6844 255.272 26.1585 253.454 26.1585C249.944 26.1585 246.966 23.7955 245.901 20.6112H241.433V24.0736C243.647 28.4637 248.197 31.4782 253.454 31.4782Z" fill="#34A853"/>
<path id="Fill 12" fill-rule="evenodd" clip-rule="evenodd" d="M245.901 20.6111C245.628 19.7992 245.479 18.9331 245.479 18.0391C245.479 17.145 245.628 16.2789 245.901 15.467V12.0045H241.433C240.518 13.8188 240 15.8683 240 18.0391C240 20.2098 240.518 22.2595 241.433 24.0736L245.901 20.6111Z" fill="#FABB05"/>
<path id="Fill 14" fill-rule="evenodd" clip-rule="evenodd" d="M253.454 9.91964C255.436 9.91964 257.213 10.6009 258.615 11.9355V11.9374L262.455 8.10163C260.123 5.93272 257.082 4.60001 253.454 4.60001C248.197 4.60001 243.647 7.61447 241.433 12.0046L245.901 15.467C246.966 12.2827 249.944 9.91964 253.454 9.91964Z" fill="#E94235"/>
</g>
</g>
</g>
</g>
</svg>
