<svg width="168" height="21" viewBox="0 0 168 21" fill="none" xmlns="http://www.w3.org/2000/svg">
<g id="pl_subscribe_with_Pay_NBG">
<path id="Left Text" d="M1.11113 15.0006V13.2086L7.11113 5.20861H1.36713V3.54461H9.14313V5.33661L3.19113 13.3366H9.20713V15.0006H1.11113ZM13.6743 15.2566C13.0876 15.2566 12.5649 15.1393 12.1063 14.9046C11.6583 14.6699 11.3009 14.3499 11.0343 13.9446C10.7783 13.5286 10.6503 13.0539 10.6503 12.5206C10.6503 11.9339 10.7996 11.4379 11.0983 11.0326C11.4076 10.6273 11.8183 10.3179 12.3303 10.1046C12.8423 9.89128 13.4076 9.78461 14.0263 9.78461C14.3676 9.78461 14.6823 9.81128 14.9703 9.86461C15.2689 9.90728 15.5249 9.96061 15.7383 10.0246C15.9623 10.0886 16.1383 10.1579 16.2663 10.2326V9.80061C16.2663 9.26728 16.0743 8.84061 15.6903 8.52061C15.3063 8.20061 14.8103 8.04061 14.2023 8.04061C13.7863 8.04061 13.3916 8.13661 13.0183 8.32861C12.6449 8.50994 12.3463 8.76061 12.1223 9.08061L10.9383 8.16861C11.1729 7.83794 11.4556 7.55528 11.7863 7.32061C12.1276 7.08594 12.5063 6.90461 12.9223 6.77661C13.3489 6.64861 13.7916 6.58461 14.2503 6.58461C15.4343 6.58461 16.3463 6.87794 16.9863 7.46461C17.6263 8.04061 17.9463 8.85128 17.9463 9.89661V15.0006H16.2663V13.9926H16.1703C16.0316 14.2059 15.8396 14.4086 15.5943 14.6006C15.3596 14.7926 15.0769 14.9473 14.7463 15.0646C14.4263 15.1926 14.0689 15.2566 13.6743 15.2566ZM13.9783 13.8486C14.4263 13.8486 14.8209 13.7419 15.1623 13.5286C15.5143 13.3153 15.7863 13.0379 15.9783 12.6966C16.1703 12.3446 16.2663 11.9659 16.2663 11.5606C16.0316 11.4219 15.7436 11.3099 15.4023 11.2246C15.0716 11.1286 14.7196 11.0806 14.3463 11.0806C13.6423 11.0806 13.1409 11.2193 12.8423 11.4966C12.5436 11.7739 12.3943 12.1206 12.3943 12.5366C12.3943 12.9206 12.5383 13.2353 12.8263 13.4806C13.1143 13.7259 13.4983 13.8486 13.9783 13.8486ZM22.8965 15.2566C22.2458 15.2566 21.6805 15.1606 21.2005 14.9686C20.7205 14.7659 20.3258 14.4993 20.0165 14.1686C19.7072 13.8273 19.4778 13.4593 19.3285 13.0646L20.8805 12.3926C21.0725 12.8299 21.3445 13.1659 21.6965 13.4006C22.0592 13.6246 22.4752 13.7366 22.9445 13.7366C23.3712 13.7366 23.7392 13.6619 24.0485 13.5126C24.3578 13.3526 24.5125 13.0966 24.5125 12.7446C24.5125 12.5206 24.4378 12.3393 24.2885 12.2006C24.1498 12.0513 23.9578 11.9286 23.7125 11.8326C23.4778 11.7366 23.2058 11.6513 22.8965 11.5766L21.9205 11.3526C21.5365 11.2566 21.1685 11.1073 20.8165 10.9046C20.4752 10.6913 20.1978 10.4246 19.9845 10.1046C19.7712 9.78461 19.6645 9.40594 19.6645 8.96861C19.6645 8.47794 19.8032 8.05661 20.0805 7.70461C20.3685 7.34194 20.7525 7.06461 21.2325 6.87261C21.7125 6.68061 22.2298 6.58461 22.7845 6.58461C23.2965 6.58461 23.7605 6.65394 24.1765 6.79261C24.6032 6.92061 24.9712 7.11794 25.2805 7.38461C25.6005 7.64061 25.8512 7.96061 26.0325 8.34461L24.5445 9.01661C24.3632 8.65394 24.1178 8.40328 23.8085 8.26461C23.4992 8.11528 23.1632 8.04061 22.8005 8.04061C22.3952 8.04061 22.0538 8.12594 21.7765 8.29661C21.5098 8.45661 21.3765 8.66994 21.3765 8.93661C21.3765 9.21394 21.4938 9.43261 21.7285 9.59261C21.9738 9.75261 22.2725 9.88061 22.6245 9.97661L23.8085 10.2646C24.6192 10.4673 25.2272 10.7766 25.6325 11.1926C26.0378 11.5979 26.2405 12.0939 26.2405 12.6806C26.2405 13.2033 26.0912 13.6619 25.7925 14.0566C25.4938 14.4406 25.0885 14.7393 24.5765 14.9526C24.0752 15.1553 23.5152 15.2566 22.8965 15.2566ZM30.8586 15.2566C29.856 15.2566 29.0986 14.9579 28.5866 14.3606C28.0853 13.7526 27.8346 12.9313 27.8346 11.8966V6.84061H29.5626V11.6566C29.5626 12.3393 29.7226 12.8459 30.0426 13.1766C30.3733 13.5073 30.784 13.6726 31.2746 13.6726C31.7226 13.6726 32.1066 13.5606 32.4266 13.3366C32.7466 13.1019 32.992 12.7979 33.1626 12.4246C33.344 12.0513 33.4346 11.6513 33.4346 11.2246V6.84061H35.1466V15.0006H33.5306V13.8966H33.4346C33.2853 14.1526 33.0773 14.3819 32.8106 14.5846C32.544 14.7873 32.2453 14.9473 31.9146 15.0646C31.584 15.1926 31.232 15.2566 30.8586 15.2566ZM41.6819 15.2566C41.2659 15.2566 40.8872 15.1926 40.5459 15.0646C40.2045 14.9366 39.9059 14.7713 39.6499 14.5686C39.4045 14.3553 39.2072 14.1366 39.0579 13.9126H38.9619V15.0006H37.3299V3.54461H39.0579V6.80861L38.9619 7.94461H39.0579C39.2072 7.70994 39.4045 7.49128 39.6499 7.28861C39.9059 7.07528 40.2045 6.90461 40.5459 6.77661C40.8872 6.64861 41.2659 6.58461 41.6819 6.58461C42.4285 6.58461 43.0952 6.77128 43.6819 7.14461C44.2685 7.51794 44.7325 8.02994 45.0739 8.68061C45.4259 9.33128 45.6019 10.0779 45.6019 10.9206C45.6019 11.7633 45.4259 12.5099 45.0739 13.1606C44.7325 13.8113 44.2685 14.3233 43.6819 14.6966C43.0952 15.0699 42.4285 15.2566 41.6819 15.2566ZM41.4259 13.6726C41.8525 13.6726 42.2525 13.5606 42.6259 13.3366C43.0099 13.1126 43.3139 12.7926 43.5379 12.3766C43.7725 11.9606 43.8899 11.4753 43.8899 10.9206C43.8899 10.3553 43.7725 9.86994 43.5379 9.46461C43.3139 9.04861 43.0099 8.72861 42.6259 8.50461C42.2525 8.28061 41.8525 8.16861 41.4259 8.16861C40.9992 8.16861 40.5992 8.28061 40.2259 8.50461C39.8525 8.72861 39.5485 9.04861 39.3139 9.46461C39.0792 9.86994 38.9619 10.3553 38.9619 10.9206C38.9619 11.4859 39.0792 11.9766 39.3139 12.3926C39.5485 12.7979 39.8525 13.1126 40.2259 13.3366C40.5992 13.5606 40.9992 13.6726 41.4259 13.6726ZM50.2371 15.2566C49.5865 15.2566 49.0211 15.1606 48.5411 14.9686C48.0611 14.7659 47.6665 14.4993 47.3571 14.1686C47.0478 13.8273 46.8185 13.4593 46.6691 13.0646L48.2211 12.3926C48.4131 12.8299 48.6851 13.1659 49.0371 13.4006C49.3998 13.6246 49.8158 13.7366 50.2851 13.7366C50.7118 13.7366 51.0798 13.6619 51.3891 13.5126C51.6985 13.3526 51.8531 13.0966 51.8531 12.7446C51.8531 12.5206 51.7785 12.3393 51.6291 12.2006C51.4905 12.0513 51.2985 11.9286 51.0531 11.8326C50.8185 11.7366 50.5465 11.6513 50.2371 11.5766L49.2611 11.3526C48.8771 11.2566 48.5091 11.1073 48.1571 10.9046C47.8158 10.6913 47.5385 10.4246 47.3251 10.1046C47.1118 9.78461 47.0051 9.40594 47.0051 8.96861C47.0051 8.47794 47.1438 8.05661 47.4211 7.70461C47.7091 7.34194 48.0931 7.06461 48.5731 6.87261C49.0531 6.68061 49.5705 6.58461 50.1251 6.58461C50.6371 6.58461 51.1011 6.65394 51.5171 6.79261C51.9438 6.92061 52.3118 7.11794 52.6211 7.38461C52.9411 7.64061 53.1918 7.96061 53.3731 8.34461L51.8851 9.01661C51.7038 8.65394 51.4585 8.40328 51.1491 8.26461C50.8398 8.11528 50.5038 8.04061 50.1411 8.04061C49.7358 8.04061 49.3945 8.12594 49.1171 8.29661C48.8505 8.45661 48.7171 8.66994 48.7171 8.93661C48.7171 9.21394 48.8345 9.43261 49.0691 9.59261C49.3145 9.75261 49.6131 9.88061 49.9651 9.97661L51.1491 10.2646C51.9598 10.4673 52.5678 10.7766 52.9731 11.1926C53.3785 11.5979 53.5811 12.0939 53.5811 12.6806C53.5811 13.2033 53.4318 13.6619 53.1331 14.0566C52.8345 14.4406 52.4291 14.7393 51.9171 14.9526C51.4158 15.1553 50.8558 15.2566 50.2371 15.2566ZM55.2393 15.0006V3.54461H56.9673V10.2966L60.4233 6.84061H62.5673V6.93661L59.4153 10.0566L62.6793 14.9046V15.0006H60.6313L58.1993 11.2566L56.9673 12.4726V15.0006H55.2393ZM63.9049 15.0006V6.84061H65.5369V8.04061H65.6329C65.7609 7.76328 65.9422 7.51794 66.1769 7.30461C66.4222 7.09128 66.6995 6.92061 67.0089 6.79261C67.3289 6.66461 67.6595 6.60061 68.0009 6.60061C68.2249 6.60061 68.4115 6.61661 68.5609 6.64861C68.7209 6.66994 68.8649 6.70728 68.9929 6.76061V8.55261C68.7902 8.46728 68.5822 8.39794 68.3689 8.34461C68.1662 8.29128 67.9529 8.26461 67.7289 8.26461C67.3235 8.26461 66.9609 8.37661 66.6409 8.60061C66.3315 8.81394 66.0862 9.10194 65.9049 9.46461C65.7235 9.82728 65.6329 10.2326 65.6329 10.6806V15.0006H63.9049ZM73.6201 18.0566C73.5881 18.1313 73.5508 18.2059 73.5081 18.2806C73.4761 18.3659 73.4548 18.4246 73.4441 18.4566H71.6041C71.6575 18.3393 71.7321 18.1739 71.8281 17.9606C71.9348 17.7473 72.0361 17.5339 72.1321 17.3206C72.1961 17.1819 72.2601 17.0326 72.3241 16.8726C72.3988 16.7126 72.4735 16.5473 72.5481 16.3766C72.6335 16.2059 72.7135 16.0406 72.7881 15.8806L73.3961 14.5526L69.9881 6.84061H71.9081L74.2441 12.4086H74.3241L76.5801 6.84061H78.4841L74.2601 16.5686C74.1855 16.7499 74.1001 16.9419 74.0041 17.1446C73.9188 17.3473 73.8388 17.5286 73.7641 17.6886C73.7001 17.8593 73.6521 17.9819 73.6201 18.0566ZM83.9788 15.2566C83.5628 15.2566 83.1841 15.1926 82.8428 15.0646C82.5014 14.9366 82.2028 14.7713 81.9468 14.5686C81.7014 14.3553 81.5041 14.1366 81.3548 13.9126H81.2588V15.0006H79.6268V3.54461H81.3548V6.80861L81.2588 7.94461H81.3548C81.5041 7.70994 81.7014 7.49128 81.9468 7.28861C82.2028 7.07528 82.5014 6.90461 82.8428 6.77661C83.1841 6.64861 83.5628 6.58461 83.9788 6.58461C84.7254 6.58461 85.3921 6.77128 85.9788 7.14461C86.5654 7.51794 87.0294 8.02994 87.3708 8.68061C87.7228 9.33128 87.8988 10.0779 87.8988 10.9206C87.8988 11.7633 87.7228 12.5099 87.3708 13.1606C87.0294 13.8113 86.5654 14.3233 85.9788 14.6966C85.3921 15.0699 84.7254 15.2566 83.9788 15.2566ZM83.7228 13.6726C84.1494 13.6726 84.5494 13.5606 84.9228 13.3366C85.3068 13.1126 85.6108 12.7926 85.8348 12.3766C86.0694 11.9606 86.1868 11.4753 86.1868 10.9206C86.1868 10.3553 86.0694 9.86994 85.8348 9.46461C85.6108 9.04861 85.3068 8.72861 84.9228 8.50461C84.5494 8.28061 84.1494 8.16861 83.7228 8.16861C83.2961 8.16861 82.8961 8.28061 82.5228 8.50461C82.1494 8.72861 81.8454 9.04861 81.6108 9.46461C81.3761 9.86994 81.2588 10.3553 81.2588 10.9206C81.2588 11.4859 81.3761 11.9766 81.6108 12.3926C81.8454 12.7979 82.1494 13.1126 82.5228 13.3366C82.8961 13.5606 83.2961 13.6726 83.7228 13.6726ZM92.518 15.2566C91.5153 15.2566 90.758 14.9579 90.246 14.3606C89.7447 13.7526 89.494 12.9313 89.494 11.8966V6.84061H91.222V11.6566C91.222 12.3393 91.382 12.8459 91.702 13.1766C92.0327 13.5073 92.4433 13.6726 92.934 13.6726C93.382 13.6726 93.766 13.5606 94.086 13.3366C94.406 13.1019 94.6513 12.7979 94.822 12.4246C95.0033 12.0513 95.094 11.6513 95.094 11.2246V6.84061H96.806V15.0006H95.19V13.8966H95.094C94.9447 14.1526 94.7367 14.3819 94.47 14.5846C94.2033 14.7873 93.9047 14.9473 93.574 15.0646C93.2433 15.1926 92.8913 15.2566 92.518 15.2566ZM98.4293 18.6166C98.2586 18.6166 98.1039 18.6059 97.9653 18.5846C97.8159 18.5633 97.6719 18.5366 97.5333 18.5046V16.8406C97.6293 16.8939 97.7466 16.9419 97.8853 16.9846C98.0239 17.0273 98.1573 17.0486 98.2853 17.0486C98.5839 17.0486 98.7973 16.9526 98.9253 16.7606C99.0533 16.5793 99.1173 16.3126 99.1173 15.9606V6.84061H100.845V15.9766C100.845 16.6059 100.739 17.1126 100.525 17.4966C100.323 17.8806 100.04 18.1633 99.6773 18.3446C99.3146 18.5259 98.8986 18.6166 98.4293 18.6166ZM99.9813 5.64061C99.6613 5.64061 99.3839 5.52861 99.1493 5.30461C98.9253 5.06994 98.8133 4.79261 98.8133 4.47261C98.8133 4.14194 98.9253 3.86994 99.1493 3.65661C99.3839 3.43261 99.6613 3.32061 99.9813 3.32061C100.312 3.32061 100.589 3.43261 100.813 3.65661C101.037 3.86994 101.149 4.14194 101.149 4.47261C101.149 4.79261 101.037 5.06994 100.813 5.30461C100.589 5.52861 100.312 5.64061 99.9813 5.64061ZM106.608 15.0006V13.5606L111.152 8.34461H106.752V6.84061H113.264V8.28061L108.736 13.4966H113.392V15.0006H106.608Z" fill="white"/>
<g id="GPay (Dark)">
<g id="GPay">
<g id="Pay">
<path id="Fill 1" fill-rule="evenodd" clip-rule="evenodd" d="M142.356 3.42339V8.16175H145.278C145.974 8.16175 146.55 7.92781 147.005 7.45993C147.473 6.99313 147.707 6.43644 147.707 5.79203C147.707 5.16061 147.473 4.61041 147.005 4.14254C146.55 3.66274 145.974 3.4223 145.278 3.4223H142.356V3.42339ZM142.356 9.82966V15.3262H140.611V1.75549H145.24C146.417 1.75549 147.415 2.14756 148.238 2.93061C149.073 3.71365 149.491 4.66782 149.491 5.79203C149.491 6.94224 149.073 7.90291 148.238 8.67296C147.428 9.44409 146.429 9.82858 145.24 9.82858H142.356V9.82966Z" fill="white"/>
<path id="Fill 3" fill-rule="evenodd" clip-rule="evenodd" d="M151.255 12.4831C151.255 12.9379 151.448 13.317 151.834 13.6203C152.22 13.9235 152.672 14.0752 153.19 14.0752C153.924 14.0752 154.578 13.8032 155.153 13.2607C155.729 12.717 156.017 12.0791 156.017 11.3469C155.472 10.917 154.713 10.7025 153.74 10.7025C153.031 10.7025 152.44 10.8736 151.966 11.2148C151.492 11.5559 151.255 11.9773 151.255 12.4831M153.513 5.73566C154.803 5.73566 155.821 6.08007 156.569 6.76889C157.314 7.45771 157.687 8.40213 157.687 9.60216V15.3261H156.018V14.0373H155.942C155.221 15.0985 154.259 15.6294 153.058 15.6294C152.033 15.6294 151.176 15.3261 150.487 14.7196C149.797 14.1131 149.453 13.3549 149.453 12.4452C149.453 11.4845 149.816 10.7208 150.543 10.1523C151.271 9.58375 152.241 9.2989 153.456 9.2989C154.492 9.2989 155.346 9.48844 156.017 9.86751V9.46894C156.017 8.86243 155.776 8.34798 155.296 7.92451C154.814 7.50103 154.252 7.28984 153.607 7.28984C152.633 7.28984 151.862 7.70032 151.293 8.52235L149.755 7.55519C150.603 6.34217 151.855 5.73566 153.513 5.73566" fill="white"/>
<path id="Fill 5" fill-rule="evenodd" clip-rule="evenodd" d="M167.269 6.03894L161.443 19.4201H159.641L161.804 14.738L157.971 6.03894H159.869L162.639 12.7106H162.677L165.371 6.03894H167.269Z" fill="white"/>
</g>
<g id="G">
<path id="Fill 8" fill-rule="evenodd" clip-rule="evenodd" d="M135.303 8.64473C135.303 8.09563 135.256 7.56601 135.168 7.05914H127.806V10.0625H132.023C131.842 11.0414 131.294 11.8744 130.464 12.4322V14.3828H132.98C134.454 13.0246 135.303 11.0177 135.303 8.64473" fill="#4285F4"/>
<path id="Fill 10" fill-rule="evenodd" clip-rule="evenodd" d="M127.806 16.2651C129.913 16.2651 131.687 15.5741 132.98 14.3828L130.464 12.4322C129.763 12.9033 128.861 13.1784 127.806 13.1784C125.77 13.1784 124.042 11.8073 123.424 9.95959H120.832V11.9687C122.116 14.516 124.757 16.2651 127.806 16.2651" fill="#34A853"/>
<path id="Fill 12" fill-rule="evenodd" clip-rule="evenodd" d="M123.424 9.9596C123.266 9.48847 123.179 8.98593 123.179 8.46715C123.179 7.94837 123.266 7.44583 123.424 6.9747V4.96564H120.832C120.3 6.01837 120 7.20756 120 8.46715C120 9.72674 120.3 10.916 120.832 11.9687L123.424 9.9596Z" fill="#FABB05"/>
<path id="Fill 14" fill-rule="evenodd" clip-rule="evenodd" d="M127.806 3.75583C128.957 3.75583 129.988 4.15115 130.801 4.92553V4.92661L133.029 2.70094C131.676 1.44243 129.912 0.669128 127.806 0.669128C124.757 0.669128 122.116 2.41826 120.832 4.9656L123.424 6.97467C124.042 5.12698 125.77 3.75583 127.806 3.75583" fill="#E94235"/>
</g>
</g>
</g>
</g>
</svg>
