<svg width="222" height="38" viewBox="0 0 222 38" fill="none" xmlns="http://www.w3.org/2000/svg">
<g id="pl_view_in_Light">
<path id="Text" d="M2.79603 30V26.864L13.296 12.864H3.24403V9.952H16.852V13.088L6.43603 27.088H16.964V30H2.79603ZM26.7856 30.448C25.3109 30.448 24.0136 30.112 22.8936 29.44C21.7736 28.768 20.8962 27.8627 20.2616 26.724C19.6269 25.5853 19.3096 24.2973 19.3096 22.86C19.3096 21.4413 19.6269 20.1627 20.2616 19.024C20.8962 17.8667 21.7736 16.952 22.8936 16.28C24.0136 15.608 25.3109 15.272 26.7856 15.272C28.2416 15.272 29.5296 15.608 30.6496 16.28C31.7696 16.952 32.6469 17.8667 33.2816 19.024C33.9162 20.1627 34.2336 21.4413 34.2336 22.86C34.2336 24.2973 33.9162 25.5853 33.2816 26.724C32.6469 27.8627 31.7696 28.768 30.6496 29.44C29.5296 30.112 28.2416 30.448 26.7856 30.448ZM26.7856 27.676C27.5696 27.676 28.2976 27.4893 28.9696 27.116C29.6416 26.724 30.1829 26.1733 30.5936 25.464C31.0229 24.736 31.2376 23.868 31.2376 22.86C31.2376 21.852 31.0229 20.9933 30.5936 20.284C30.1829 19.556 29.6416 19.0053 28.9696 18.632C28.2976 18.24 27.5696 18.044 26.7856 18.044C26.0016 18.044 25.2642 18.24 24.5736 18.632C23.9016 19.0053 23.3509 19.556 22.9216 20.284C22.5109 20.9933 22.3056 21.852 22.3056 22.86C22.3056 23.868 22.5109 24.736 22.9216 25.464C23.3509 26.1733 23.9016 26.724 24.5736 27.116C25.2642 27.4893 26.0016 27.676 26.7856 27.676ZM44.798 30.448C43.6966 30.448 42.7446 30.2147 41.942 29.748C41.158 29.2627 40.5793 28.712 40.206 28.096H40.038V30H37.182V9.952H40.206V15.664L40.038 17.652H40.206C40.5793 17.036 41.158 16.4853 41.942 16C42.7446 15.5147 43.6966 15.272 44.798 15.272C46.1046 15.272 47.2713 15.5987 48.298 16.252C49.3246 16.9053 50.1366 17.8013 50.734 18.94C51.35 20.0787 51.658 21.3853 51.658 22.86C51.658 24.3347 51.35 25.6507 50.734 26.808C50.1366 27.9467 49.3246 28.8427 48.298 29.496C47.2713 30.1307 46.1046 30.448 44.798 30.448ZM44.35 27.676C45.0966 27.676 45.7966 27.48 46.45 27.088C47.1033 26.696 47.6353 26.1453 48.046 25.436C48.4566 24.708 48.662 23.8493 48.662 22.86C48.662 21.8707 48.4566 21.0213 48.046 20.312C47.6353 19.584 47.1033 19.024 46.45 18.632C45.7966 18.24 45.0966 18.044 44.35 18.044C43.6033 18.044 42.9033 18.24 42.25 18.632C41.5966 19.024 41.0646 19.584 40.654 20.312C40.2433 21.0213 40.038 21.8707 40.038 22.86C40.038 23.8493 40.2433 24.708 40.654 25.436C41.0646 26.1453 41.5966 26.696 42.25 27.088C42.9033 27.48 43.6033 27.676 44.35 27.676ZM59.2159 30.448C58.1892 30.448 57.2745 30.252 56.4719 29.86C55.6692 29.4493 55.0439 28.88 54.5959 28.152C54.1479 27.424 53.9239 26.5933 53.9239 25.66C53.9239 24.652 54.1852 23.7933 54.7079 23.084C55.2492 22.356 55.9679 21.8053 56.8639 21.432C57.7599 21.0587 58.7492 20.872 59.8319 20.872C60.7279 20.872 61.5119 20.956 62.1839 21.124C62.8745 21.292 63.3972 21.4693 63.7519 21.656V20.9C63.7519 19.9667 63.4159 19.22 62.7439 18.66C62.0719 18.1 61.2039 17.82 60.1399 17.82C59.4119 17.82 58.7212 17.988 58.0679 18.324C57.4145 18.6413 56.8919 19.08 56.4999 19.64L54.4279 18.044C55.0439 17.1853 55.8559 16.5133 56.8639 16.028C57.8905 15.524 59.0105 15.272 60.2239 15.272C62.2959 15.272 63.8919 15.7853 65.0119 16.812C66.1319 17.82 66.6919 19.2387 66.6919 21.068V30H63.7519V28.236H63.5839C63.2105 28.8147 62.6505 29.328 61.9039 29.776C61.1572 30.224 60.2612 30.448 59.2159 30.448ZM59.7479 27.984C60.5319 27.984 61.2225 27.7973 61.8199 27.424C62.4172 27.0507 62.8839 26.5653 63.2199 25.968C63.5745 25.352 63.7519 24.6893 63.7519 23.98C63.3225 23.7373 62.8185 23.5413 62.2399 23.392C61.6612 23.224 61.0452 23.14 60.3919 23.14C59.1599 23.14 58.2825 23.392 57.7599 23.896C57.2372 24.3813 56.9759 24.9787 56.9759 25.688C56.9759 26.36 57.2279 26.9107 57.7319 27.34C58.2359 27.7693 58.9079 27.984 59.7479 27.984ZM76.7923 30.448C75.355 30.448 74.0856 30.1213 72.9843 29.468C71.883 28.8147 71.015 27.9187 70.3803 26.78C69.7456 25.6227 69.4283 24.316 69.4283 22.86C69.4283 21.404 69.7456 20.1067 70.3803 18.968C71.015 17.8107 71.883 16.9053 72.9843 16.252C74.0856 15.5987 75.355 15.272 76.7923 15.272C78.379 15.272 79.7136 15.6267 80.7963 16.336C81.8976 17.0453 82.6816 18.0067 83.1483 19.22L80.4043 20.34C79.751 18.8093 78.5283 18.044 76.7363 18.044C75.9523 18.044 75.2336 18.2493 74.5803 18.66C73.927 19.052 73.4043 19.612 73.0123 20.34C72.6203 21.0493 72.4243 21.8893 72.4243 22.86C72.4243 23.8307 72.6203 24.68 73.0123 25.408C73.4043 26.136 73.927 26.696 74.5803 27.088C75.2336 27.48 75.9523 27.676 76.7363 27.676C77.651 27.676 78.4256 27.4707 79.0603 27.06C79.695 26.6307 80.1896 26.052 80.5443 25.324L83.2323 26.5C82.7283 27.6387 81.9256 28.5813 80.8243 29.328C79.723 30.0747 78.379 30.448 76.7923 30.448ZM85.3969 30V27.48L93.3489 18.352H85.6489V15.72H97.0449V18.24L89.1209 27.368H97.2689V30H85.3969ZM110.229 30L105.665 15.72H108.941L111.881 25.996H111.993L115.213 15.72H118.321L121.541 25.996H121.653L124.593 15.72H127.813L123.221 30H120.057L116.753 19.668H116.641L113.365 30H110.229Z" fill="#3C4043"/>
<g id="GPay Logo (Light)">
<g id="GPay">
<g id="Pay">
<path id="Fill 1" fill-rule="evenodd" clip-rule="evenodd" d="M178.529 9.44664V17.6128H183.565C184.765 17.6128 185.757 17.2096 186.541 16.4032C187.347 15.5988 187.75 14.6394 187.75 13.5288C187.75 12.4406 187.347 11.4924 186.541 10.686C185.757 9.85915 184.765 9.44478 183.565 9.44478H178.529V9.44664ZM178.529 20.4872V29.9599H175.521V6.57217H183.499C185.527 6.57217 187.248 7.24786 188.666 8.59737C190.105 9.94688 190.824 11.5913 190.824 13.5288C190.824 15.511 190.105 17.1667 188.666 18.4938C187.27 19.8227 185.547 20.4854 183.499 20.4854H178.529V20.4872Z" fill="#5F6368"/>
<path id="Fill 3" fill-rule="evenodd" clip-rule="evenodd" d="M193.864 25.0602C193.864 25.8442 194.197 26.4975 194.862 27.0201C195.527 27.5427 196.306 27.804 197.2 27.804C198.465 27.804 199.591 27.3354 200.584 26.4004C201.576 25.4634 202.071 24.364 202.071 23.1022C201.133 22.3612 199.825 21.9916 198.147 21.9916C196.925 21.9916 195.907 22.2865 195.09 22.8745C194.273 23.4623 193.864 24.1886 193.864 25.0602ZM197.756 13.4317C199.98 13.4317 201.735 14.0252 203.022 15.2124C204.308 16.3995 204.95 18.0271 204.95 20.0952V29.9599H202.073V27.7387H201.942C200.699 29.5677 199.042 30.4825 196.972 30.4825C195.206 30.4825 193.728 29.9599 192.541 28.9146C191.353 27.8694 190.759 26.5628 190.759 24.9949C190.759 23.3393 191.385 22.0232 192.638 21.0434C193.892 20.0635 195.565 19.5726 197.658 19.5726C199.444 19.5726 200.916 19.8992 202.071 20.5525V19.8656C202.071 18.8204 201.656 17.9338 200.829 17.204C199.999 16.4741 199.031 16.1102 197.919 16.1102C196.239 16.1102 194.911 16.8176 193.93 18.2343L191.28 16.5675C192.741 14.4769 194.899 13.4317 197.756 13.4317Z" fill="#5F6368"/>
<path id="Fill 5" fill-rule="evenodd" clip-rule="evenodd" d="M221.463 13.9543L211.424 37.0154H208.318L212.046 28.9464L205.44 13.9543H208.71L213.484 25.4522H213.55L218.193 13.9543H221.463Z" fill="#5F6368"/>
</g>
<g id="G">
<path id="Fill 8" fill-rule="evenodd" clip-rule="evenodd" d="M166.373 18.4452C166.373 17.4989 166.293 16.5861 166.141 15.7126H153.454V20.8885H160.72C160.408 22.5757 159.465 24.0112 158.033 24.9725V28.3341H162.37C164.91 25.9935 166.373 22.5348 166.373 18.4452Z" fill="#4285F4"/>
<path id="Fill 10" fill-rule="evenodd" clip-rule="evenodd" d="M153.454 31.5782C157.084 31.5782 160.141 30.3873 162.37 28.3341L158.033 24.9725C156.826 25.7844 155.272 26.2585 153.454 26.2585C149.944 26.2585 146.966 23.8955 145.901 20.7112H141.433V24.1736C143.647 28.5637 148.197 31.5782 153.454 31.5782Z" fill="#34A853"/>
<path id="Fill 12" fill-rule="evenodd" clip-rule="evenodd" d="M145.901 20.7111C145.628 19.8992 145.479 19.0331 145.479 18.139C145.479 17.245 145.628 16.3789 145.901 15.567V12.1045H141.433C140.518 13.9188 140 15.9683 140 18.139C140 20.3098 140.518 22.3595 141.433 24.1736L145.901 20.7111Z" fill="#FABB05"/>
<path id="Fill 14" fill-rule="evenodd" clip-rule="evenodd" d="M153.454 10.0196C155.436 10.0196 157.213 10.7009 158.615 12.0355V12.0374L162.455 8.20162C160.123 6.03271 157.082 4.7 153.454 4.7C148.197 4.7 143.647 7.71446 141.433 12.1046L145.901 15.567C146.966 12.3827 149.944 10.0196 153.454 10.0196Z" fill="#E94235"/>
</g>
</g>
</g>
</g>
</svg>
