<svg width="162" height="21" viewBox="0 0 162 21" fill="none" xmlns="http://www.w3.org/2000/svg">
<g id="id_add_to_Pay_NBG">
<path id="Left Text" d="M3.68512 15.0006V5.20861H0.469123V3.54461H8.62912V5.20861H5.42912V15.0006H3.68512ZM11.5524 15.2566C10.9657 15.2566 10.443 15.1393 9.98437 14.9046C9.53637 14.6699 9.17904 14.3499 8.91237 13.9446C8.65637 13.5286 8.52837 13.0539 8.52837 12.5206C8.52837 11.9339 8.67771 11.4379 8.97637 11.0326C9.28571 10.6273 9.69637 10.3179 10.2084 10.1046C10.7204 9.89128 11.2857 9.78461 11.9044 9.78461C12.2457 9.78461 12.5604 9.81128 12.8484 9.86461C13.147 9.90728 13.403 9.96061 13.6164 10.0246C13.8404 10.0886 14.0164 10.1579 14.1444 10.2326V9.80061C14.1444 9.26728 13.9524 8.84061 13.5684 8.52061C13.1844 8.20061 12.6884 8.04061 12.0804 8.04061C11.6644 8.04061 11.2697 8.13661 10.8964 8.32861C10.523 8.50994 10.2244 8.76061 10.0004 9.08061L8.81637 8.16861C9.05104 7.83794 9.33371 7.55528 9.66437 7.32061C10.0057 7.08594 10.3844 6.90461 10.8004 6.77661C11.227 6.64861 11.6697 6.58461 12.1284 6.58461C13.3124 6.58461 14.2244 6.87794 14.8644 7.46461C15.5044 8.04061 15.8244 8.85128 15.8244 9.89661V15.0006H14.1444V13.9926H14.0484C13.9097 14.2059 13.7177 14.4086 13.4724 14.6006C13.2377 14.7926 12.955 14.9473 12.6244 15.0646C12.3044 15.1926 11.947 15.2566 11.5524 15.2566ZM11.8564 13.8486C12.3044 13.8486 12.699 13.7419 13.0404 13.5286C13.3924 13.3153 13.6644 13.0379 13.8564 12.6966C14.0484 12.3446 14.1444 11.9659 14.1444 11.5606C13.9097 11.4219 13.6217 11.3099 13.2804 11.2246C12.9497 11.1286 12.5977 11.0806 12.2244 11.0806C11.5204 11.0806 11.019 11.2193 10.7204 11.4966C10.4217 11.7739 10.2724 12.1206 10.2724 12.5366C10.2724 12.9206 10.4164 13.2353 10.7044 13.4806C10.9924 13.7259 11.3764 13.8486 11.8564 13.8486ZM17.8767 15.0006V6.84061H19.5087V7.96061H19.6047C19.7647 7.69394 19.9727 7.45928 20.2287 7.25661C20.4847 7.05394 20.7727 6.89394 21.0927 6.77661C21.4234 6.64861 21.7647 6.58461 22.1167 6.58461C22.7247 6.58461 23.2421 6.72861 23.6687 7.01661C24.0954 7.30461 24.3994 7.66728 24.5807 8.10461C24.8474 7.67794 25.2101 7.32061 25.6687 7.03261C26.1274 6.73394 26.6874 6.58461 27.3487 6.58461C28.3087 6.58461 29.0234 6.87794 29.4927 7.46461C29.9621 8.04061 30.1967 8.80861 30.1967 9.76861V15.0006H28.4847V10.0566C28.4847 9.39528 28.3407 8.91528 28.0527 8.61661C27.7754 8.31794 27.3861 8.16861 26.8847 8.16861C26.4901 8.16861 26.1434 8.28061 25.8447 8.50461C25.5461 8.71794 25.3114 9.01128 25.1407 9.38461C24.9807 9.75794 24.9007 10.1739 24.9007 10.6326V15.0006H23.1887V10.0566C23.1887 9.40594 23.0447 8.93128 22.7567 8.63261C22.4687 8.32328 22.0634 8.16861 21.5407 8.16861C21.1674 8.16861 20.8314 8.28061 20.5327 8.50461C20.2447 8.72861 20.0154 9.02728 19.8447 9.40061C19.6847 9.77394 19.6047 10.1899 19.6047 10.6486V15.0006H17.8767ZM36.6444 15.2566C36.2284 15.2566 35.8497 15.1926 35.5084 15.0646C35.167 14.9366 34.8684 14.7713 34.6124 14.5686C34.367 14.3553 34.1697 14.1366 34.0204 13.9126H33.9244V15.0006H32.2924V3.54461H34.0204V6.80861L33.9244 7.94461H34.0204C34.1697 7.70994 34.367 7.49128 34.6124 7.28861C34.8684 7.07528 35.167 6.90461 35.5084 6.77661C35.8497 6.64861 36.2284 6.58461 36.6444 6.58461C37.391 6.58461 38.0577 6.77128 38.6444 7.14461C39.231 7.51794 39.695 8.02994 40.0364 8.68061C40.3884 9.33128 40.5644 10.0779 40.5644 10.9206C40.5644 11.7633 40.3884 12.5099 40.0364 13.1606C39.695 13.8113 39.231 14.3233 38.6444 14.6966C38.0577 15.0699 37.391 15.2566 36.6444 15.2566ZM36.3884 13.6726C36.815 13.6726 37.215 13.5606 37.5884 13.3366C37.9724 13.1126 38.2764 12.7926 38.5004 12.3766C38.735 11.9606 38.8524 11.4753 38.8524 10.9206C38.8524 10.3553 38.735 9.86994 38.5004 9.46461C38.2764 9.04861 37.9724 8.72861 37.5884 8.50461C37.215 8.28061 36.815 8.16861 36.3884 8.16861C35.9617 8.16861 35.5617 8.28061 35.1884 8.50461C34.815 8.72861 34.511 9.04861 34.2764 9.46461C34.0417 9.86994 33.9244 10.3553 33.9244 10.9206C33.9244 11.4859 34.0417 11.9766 34.2764 12.3926C34.511 12.7979 34.815 13.1126 35.1884 13.3366C35.5617 13.5606 35.9617 13.6726 36.3884 13.6726ZM44.8617 15.2566C44.2751 15.2566 43.7524 15.1393 43.2937 14.9046C42.8457 14.6699 42.4884 14.3499 42.2217 13.9446C41.9657 13.5286 41.8377 13.0539 41.8377 12.5206C41.8377 11.9339 41.9871 11.4379 42.2857 11.0326C42.5951 10.6273 43.0057 10.3179 43.5177 10.1046C44.0297 9.89128 44.5951 9.78461 45.2137 9.78461C45.5551 9.78461 45.8697 9.81128 46.1577 9.86461C46.4564 9.90728 46.7124 9.96061 46.9257 10.0246C47.1497 10.0886 47.3257 10.1579 47.4537 10.2326V9.80061C47.4537 9.26728 47.2617 8.84061 46.8777 8.52061C46.4937 8.20061 45.9977 8.04061 45.3897 8.04061C44.9737 8.04061 44.5791 8.13661 44.2057 8.32861C43.8324 8.50994 43.5337 8.76061 43.3097 9.08061L42.1257 8.16861C42.3604 7.83794 42.6431 7.55528 42.9737 7.32061C43.3151 7.08594 43.6937 6.90461 44.1097 6.77661C44.5364 6.64861 44.9791 6.58461 45.4377 6.58461C46.6217 6.58461 47.5337 6.87794 48.1737 7.46461C48.8137 8.04061 49.1337 8.85128 49.1337 9.89661V15.0006H47.4537V13.9926H47.3577C47.2191 14.2059 47.0271 14.4086 46.7817 14.6006C46.5471 14.7926 46.2644 14.9473 45.9337 15.0646C45.6137 15.1926 45.2564 15.2566 44.8617 15.2566ZM45.1657 13.8486C45.6137 13.8486 46.0084 13.7419 46.3497 13.5286C46.7017 13.3153 46.9737 13.0379 47.1657 12.6966C47.3577 12.3446 47.4537 11.9659 47.4537 11.5606C47.2191 11.4219 46.9311 11.3099 46.5897 11.2246C46.2591 11.1286 45.9071 11.0806 45.5337 11.0806C44.8297 11.0806 44.3284 11.2193 44.0297 11.4966C43.7311 11.7739 43.5817 12.1206 43.5817 12.5366C43.5817 12.9206 43.7257 13.2353 44.0137 13.4806C44.3017 13.7259 44.6857 13.8486 45.1657 13.8486ZM51.1861 15.0006V3.54461H52.9141V6.68061L52.8181 7.96061H52.9141C53.1381 7.56594 53.4795 7.24061 53.9381 6.98461C54.4075 6.71794 54.9248 6.58461 55.4901 6.58461C56.1728 6.58461 56.7381 6.72328 57.1861 7.00061C57.6448 7.27794 57.9861 7.66194 58.2101 8.15261C58.4341 8.63261 58.5461 9.19794 58.5461 9.84861V15.0006H56.8341V10.0726C56.8341 9.63528 56.7488 9.27794 56.5781 9.00061C56.4181 8.72328 56.2048 8.51528 55.9381 8.37661C55.6715 8.23794 55.3728 8.16861 55.0421 8.16861C54.6261 8.16861 54.2581 8.28594 53.9381 8.52061C53.6181 8.75528 53.3675 9.06461 53.1861 9.44861C53.0048 9.82194 52.9141 10.2219 52.9141 10.6486V15.0006H51.1861ZM60.6643 15.0006V3.54461H62.3923V10.2966L65.8483 6.84061H67.9923V6.93661L64.8403 10.0566L68.1042 14.9046V15.0006H66.0563L63.6243 11.2566L62.3923 12.4726V15.0006H60.6643ZM71.7336 15.2566C71.147 15.2566 70.6243 15.1393 70.1656 14.9046C69.7176 14.6699 69.3603 14.3499 69.0936 13.9446C68.8376 13.5286 68.7096 13.0539 68.7096 12.5206C68.7096 11.9339 68.859 11.4379 69.1576 11.0326C69.467 10.6273 69.8776 10.3179 70.3896 10.1046C70.9016 9.89128 71.467 9.78461 72.0856 9.78461C72.427 9.78461 72.7416 9.81128 73.0296 9.86461C73.3283 9.90728 73.5843 9.96061 73.7976 10.0246C74.0216 10.0886 74.1976 10.1579 74.3256 10.2326V9.80061C74.3256 9.26728 74.1336 8.84061 73.7496 8.52061C73.3656 8.20061 72.8696 8.04061 72.2616 8.04061C71.8456 8.04061 71.451 8.13661 71.0776 8.32861C70.7043 8.50994 70.4056 8.76061 70.1816 9.08061L68.9976 8.16861C69.2323 7.83794 69.515 7.55528 69.8456 7.32061C70.187 7.08594 70.5656 6.90461 70.9816 6.77661C71.4083 6.64861 71.851 6.58461 72.3096 6.58461C73.4936 6.58461 74.4056 6.87794 75.0456 7.46461C75.6856 8.04061 76.0056 8.85128 76.0056 9.89661V15.0006H74.3256V13.9926H74.2296C74.091 14.2059 73.899 14.4086 73.6536 14.6006C73.419 14.7926 73.1363 14.9473 72.8056 15.0646C72.4856 15.1926 72.1283 15.2566 71.7336 15.2566ZM72.0376 13.8486C72.4856 13.8486 72.8803 13.7419 73.2216 13.5286C73.5736 13.3153 73.8456 13.0379 74.0376 12.6966C74.2296 12.3446 74.3256 11.9659 74.3256 11.5606C74.091 11.4219 73.803 11.3099 73.4616 11.2246C73.131 11.1286 72.779 11.0806 72.4056 11.0806C71.7016 11.0806 71.2003 11.2193 70.9016 11.4966C70.603 11.7739 70.4536 12.1206 70.4536 12.5366C70.4536 12.9206 70.5976 13.2353 70.8856 13.4806C71.1736 13.7259 71.5576 13.8486 72.0376 13.8486ZM78.058 15.0006V6.84061H79.69V7.96061H79.786C80.0207 7.56594 80.3673 7.24061 80.826 6.98461C81.2953 6.71794 81.8073 6.58461 82.362 6.58461C83.3647 6.58461 84.1167 6.88328 84.618 7.48061C85.1193 8.06728 85.37 8.85661 85.37 9.84861V15.0006H83.658V10.0726C83.658 9.41128 83.4927 8.93128 83.162 8.63261C82.8313 8.32328 82.3993 8.16861 81.866 8.16861C81.45 8.16861 81.0873 8.28594 80.778 8.52061C80.4687 8.74461 80.2233 9.04328 80.042 9.41661C79.8713 9.78994 79.786 10.1899 79.786 10.6166V15.0006H78.058ZM91.3736 15.0006V3.54461H93.1016V10.2966L96.5576 6.84061H98.7016V6.93661L95.5496 10.0566L98.8136 14.9046V15.0006H96.7656L94.3336 11.2566L93.1016 12.4726V15.0006H91.3736ZM103.533 15.2566C102.733 15.2566 102.018 15.0699 101.389 14.6966C100.76 14.3233 100.264 13.8113 99.9009 13.1606C99.5489 12.5099 99.3729 11.7686 99.3729 10.9366C99.3729 10.1579 99.5435 9.43794 99.8849 8.77661C100.226 8.11528 100.701 7.58728 101.309 7.19261C101.928 6.78728 102.637 6.58461 103.437 6.58461C104.28 6.58461 104.994 6.76594 105.581 7.12861C106.178 7.49128 106.632 7.98728 106.941 8.61661C107.25 9.24594 107.405 9.95528 107.405 10.7446C107.405 10.8619 107.4 10.9686 107.389 11.0646C107.389 11.1606 107.384 11.2353 107.373 11.2886H101.069C101.112 11.7366 101.224 12.1259 101.405 12.4566C101.64 12.8726 101.949 13.1873 102.333 13.4006C102.717 13.6139 103.133 13.7206 103.581 13.7206C104.125 13.7206 104.578 13.5979 104.941 13.3526C105.314 13.0966 105.608 12.7819 105.821 12.4086L107.245 13.0966C106.893 13.7366 106.413 14.2593 105.805 14.6646C105.197 15.0593 104.44 15.2566 103.533 15.2566ZM101.165 9.99261H105.693C105.682 9.78994 105.629 9.57661 105.533 9.35261C105.437 9.11794 105.298 8.90461 105.117 8.71261C104.936 8.52061 104.706 8.36594 104.429 8.24861C104.152 8.12061 103.826 8.05661 103.453 8.05661C102.984 8.05661 102.568 8.17928 102.205 8.42461C101.842 8.65928 101.56 8.98994 101.357 9.41661C101.272 9.59794 101.208 9.78994 101.165 9.99261Z" fill="white"/>
<g id="GPay (Dark)">
<g id="GPay">
<g id="Pay">
<path id="Fill 1" fill-rule="evenodd" clip-rule="evenodd" d="M136.356 3.42339V8.16175H139.278C139.974 8.16175 140.55 7.92781 141.005 7.45993C141.473 6.99313 141.707 6.43644 141.707 5.79203C141.707 5.16061 141.473 4.61041 141.005 4.14254C140.55 3.66274 139.974 3.4223 139.278 3.4223H136.356V3.42339ZM136.356 9.82966V15.3262H134.611V1.75549H139.24C140.417 1.75549 141.415 2.14756 142.238 2.93061C143.073 3.71365 143.491 4.66782 143.491 5.79203C143.491 6.94224 143.073 7.90291 142.238 8.67296C141.428 9.44409 140.429 9.82858 139.24 9.82858H136.356V9.82966Z" fill="white"/>
<path id="Fill 3" fill-rule="evenodd" clip-rule="evenodd" d="M145.255 12.4831C145.255 12.9379 145.448 13.317 145.834 13.6203C146.22 13.9235 146.672 14.0752 147.19 14.0752C147.924 14.0752 148.578 13.8032 149.153 13.2607C149.729 12.717 150.017 12.0791 150.017 11.3469C149.472 10.917 148.713 10.7025 147.74 10.7025C147.031 10.7025 146.44 10.8736 145.966 11.2148C145.492 11.5559 145.255 11.9773 145.255 12.4831M147.513 5.73566C148.803 5.73566 149.821 6.08007 150.569 6.76889C151.314 7.45771 151.687 8.40213 151.687 9.60216V15.3261H150.018V14.0373H149.942C149.221 15.0985 148.259 15.6294 147.058 15.6294C146.033 15.6294 145.176 15.3261 144.487 14.7196C143.797 14.1131 143.453 13.3549 143.453 12.4452C143.453 11.4845 143.816 10.7208 144.543 10.1523C145.271 9.58375 146.241 9.2989 147.456 9.2989C148.492 9.2989 149.346 9.48844 150.017 9.86751V9.46894C150.017 8.86243 149.776 8.34798 149.296 7.92451C148.814 7.50103 148.252 7.28984 147.607 7.28984C146.633 7.28984 145.862 7.70032 145.293 8.52235L143.755 7.55519C144.603 6.34217 145.855 5.73566 147.513 5.73566" fill="white"/>
<path id="Fill 5" fill-rule="evenodd" clip-rule="evenodd" d="M161.269 6.03894L155.443 19.4201H153.641L155.804 14.738L151.971 6.03894H153.869L156.639 12.7106H156.677L159.371 6.03894H161.269Z" fill="white"/>
</g>
<g id="G">
<path id="Fill 8" fill-rule="evenodd" clip-rule="evenodd" d="M129.303 8.64473C129.303 8.09563 129.256 7.56601 129.168 7.05914H121.806V10.0625H126.023C125.842 11.0414 125.294 11.8744 124.464 12.4322V14.3828H126.98C128.454 13.0246 129.303 11.0177 129.303 8.64473" fill="#4285F4"/>
<path id="Fill 10" fill-rule="evenodd" clip-rule="evenodd" d="M121.806 16.2651C123.913 16.2651 125.687 15.5741 126.98 14.3828L124.464 12.4322C123.763 12.9033 122.861 13.1784 121.806 13.1784C119.77 13.1784 118.042 11.8073 117.424 9.95959H114.832V11.9687C116.116 14.516 118.757 16.2651 121.806 16.2651" fill="#34A853"/>
<path id="Fill 12" fill-rule="evenodd" clip-rule="evenodd" d="M117.424 9.9596C117.266 9.48847 117.179 8.98593 117.179 8.46715C117.179 7.94837 117.266 7.44583 117.424 6.9747V4.96564H114.832C114.3 6.01837 114 7.20756 114 8.46715C114 9.72674 114.3 10.916 114.832 11.9687L117.424 9.9596Z" fill="#FABB05"/>
<path id="Fill 14" fill-rule="evenodd" clip-rule="evenodd" d="M121.806 3.75583C122.957 3.75583 123.988 4.15115 124.801 4.92553V4.92661L127.029 2.70094C125.676 1.44243 123.912 0.669128 121.806 0.669128C118.757 0.669128 116.116 2.41826 114.832 4.9656L117.424 6.97467C118.042 5.12698 119.77 3.75583 121.806 3.75583" fill="#E94235"/>
</g>
</g>
</g>
</g>
</svg>
