<svg width="188" height="21" viewBox="0 0 188 21" fill="none" xmlns="http://www.w3.org/2000/svg">
<g id="id_book_with_Pay_NBG">
<path id="Left Text" d="M1.74913 15.0006V3.54461H5.76513C6.46913 3.54461 7.09846 3.69394 7.65313 3.99261C8.20779 4.29128 8.64513 4.70194 8.96513 5.22461C9.29579 5.74728 9.46113 6.35528 9.46113 7.04861C9.46113 7.50728 9.36513 7.94461 9.17313 8.36061C8.99179 8.77661 8.72513 9.14994 8.37313 9.48061C8.03179 9.80061 7.61579 10.0513 7.12513 10.2326C7.02913 10.2753 6.92779 10.3073 6.82113 10.3286L9.98913 14.9046V15.0006H7.95713L4.90113 10.5046H3.50913V15.0006H1.74913ZM3.50913 8.88861H5.71713C6.07979 8.88861 6.40513 8.80861 6.69313 8.64861C6.99179 8.48861 7.23179 8.26994 7.41313 7.99261C7.59446 7.70461 7.68513 7.38461 7.68513 7.03261C7.68513 6.72328 7.61046 6.42994 7.46113 6.15261C7.31179 5.86461 7.09313 5.63528 6.80513 5.46461C6.52779 5.28328 6.18646 5.19261 5.78113 5.19261H3.50913V8.88861ZM14.9485 15.2566C14.1485 15.2566 13.4338 15.0699 12.8045 14.6966C12.1752 14.3233 11.6792 13.8113 11.3165 13.1606C10.9645 12.5099 10.7885 11.7686 10.7885 10.9366C10.7885 10.1579 10.9592 9.43794 11.3005 8.77661C11.6418 8.11528 12.1165 7.58728 12.7245 7.19261C13.3432 6.78728 14.0525 6.58461 14.8525 6.58461C15.6952 6.58461 16.4098 6.76594 16.9965 7.12861C17.5938 7.49128 18.0472 7.98728 18.3565 8.61661C18.6658 9.24594 18.8205 9.95528 18.8205 10.7446C18.8205 10.8619 18.8152 10.9686 18.8045 11.0646C18.8045 11.1606 18.7992 11.2353 18.7885 11.2886H12.4845C12.5272 11.7366 12.6392 12.1259 12.8205 12.4566C13.0552 12.8726 13.3645 13.1873 13.7485 13.4006C14.1325 13.6139 14.5485 13.7206 14.9965 13.7206C15.5405 13.7206 15.9938 13.5979 16.3565 13.3526C16.7298 13.0966 17.0232 12.7819 17.2365 12.4086L18.6605 13.0966C18.3085 13.7366 17.8285 14.2593 17.2205 14.6646C16.6125 15.0593 15.8552 15.2566 14.9485 15.2566ZM12.5805 9.99261H17.1085C17.0978 9.78994 17.0445 9.57661 16.9485 9.35261C16.8525 9.11794 16.7138 8.90461 16.5325 8.71261C16.3512 8.52061 16.1218 8.36594 15.8445 8.24861C15.5672 8.12061 15.2418 8.05661 14.8685 8.05661C14.3992 8.05661 13.9832 8.17928 13.6205 8.42461C13.2578 8.65928 12.9752 8.98994 12.7725 9.41661C12.6872 9.59794 12.6232 9.78994 12.5805 9.99261ZM23.6277 15.2566C22.9771 15.2566 22.4117 15.1606 21.9317 14.9686C21.4517 14.7659 21.0571 14.4993 20.7477 14.1686C20.4384 13.8273 20.2091 13.4593 20.0597 13.0646L21.6117 12.3926C21.8037 12.8299 22.0757 13.1659 22.4277 13.4006C22.7904 13.6246 23.2064 13.7366 23.6757 13.7366C24.1024 13.7366 24.4704 13.6619 24.7797 13.5126C25.0891 13.3526 25.2437 13.0966 25.2437 12.7446C25.2437 12.5206 25.1691 12.3393 25.0197 12.2006C24.8811 12.0513 24.6891 11.9286 24.4437 11.8326C24.2091 11.7366 23.9371 11.6513 23.6277 11.5766L22.6517 11.3526C22.2677 11.2566 21.8997 11.1073 21.5477 10.9046C21.2064 10.6913 20.9291 10.4246 20.7157 10.1046C20.5024 9.78461 20.3957 9.40594 20.3957 8.96861C20.3957 8.47794 20.5344 8.05661 20.8117 7.70461C21.0997 7.34194 21.4837 7.06461 21.9637 6.87261C22.4437 6.68061 22.9611 6.58461 23.5157 6.58461C24.0277 6.58461 24.4917 6.65394 24.9077 6.79261C25.3344 6.92061 25.7024 7.11794 26.0117 7.38461C26.3317 7.64061 26.5824 7.96061 26.7637 8.34461L25.2757 9.01661C25.0944 8.65394 24.8491 8.40328 24.5397 8.26461C24.2304 8.11528 23.8944 8.04061 23.5317 8.04061C23.1264 8.04061 22.7851 8.12594 22.5077 8.29661C22.2411 8.45661 22.1077 8.66994 22.1077 8.93661C22.1077 9.21394 22.2251 9.43261 22.4597 9.59261C22.7051 9.75261 23.0037 9.88061 23.3557 9.97661L24.5397 10.2646C25.3504 10.4673 25.9584 10.7766 26.3637 11.1926C26.7691 11.5979 26.9717 12.0939 26.9717 12.6806C26.9717 13.2033 26.8224 13.6619 26.5237 14.0566C26.2251 14.4406 25.8197 14.7393 25.3077 14.9526C24.8064 15.1553 24.2464 15.2566 23.6277 15.2566ZM32.436 15.2566C31.636 15.2566 30.9213 15.0699 30.292 14.6966C29.6627 14.3233 29.1667 13.8113 28.804 13.1606C28.452 12.5099 28.276 11.7686 28.276 10.9366C28.276 10.1579 28.4467 9.43794 28.788 8.77661C29.1293 8.11528 29.604 7.58728 30.212 7.19261C30.8307 6.78728 31.54 6.58461 32.34 6.58461C33.1827 6.58461 33.8973 6.76594 34.484 7.12861C35.0813 7.49128 35.5347 7.98728 35.844 8.61661C36.1533 9.24594 36.308 9.95528 36.308 10.7446C36.308 10.8619 36.3027 10.9686 36.292 11.0646C36.292 11.1606 36.2867 11.2353 36.276 11.2886H29.972C30.0147 11.7366 30.1267 12.1259 30.308 12.4566C30.5427 12.8726 30.852 13.1873 31.236 13.4006C31.62 13.6139 32.036 13.7206 32.484 13.7206C33.028 13.7206 33.4813 13.5979 33.844 13.3526C34.2173 13.0966 34.5107 12.7819 34.724 12.4086L36.148 13.0966C35.796 13.7366 35.316 14.2593 34.708 14.6646C34.1 15.0593 33.3427 15.2566 32.436 15.2566ZM30.068 9.99261H34.596C34.5853 9.78994 34.532 9.57661 34.436 9.35261C34.34 9.11794 34.2013 8.90461 34.02 8.71261C33.8387 8.52061 33.6093 8.36594 33.332 8.24861C33.0547 8.12061 32.7293 8.05661 32.356 8.05661C31.8867 8.05661 31.4707 8.17928 31.108 8.42461C30.7453 8.65928 30.4627 8.98994 30.26 9.41661C30.1747 9.59794 30.1107 9.78994 30.068 9.99261ZM38.0611 15.0006V6.84061H39.6931V8.04061H39.7891C39.9171 7.76328 40.0985 7.51794 40.3331 7.30461C40.5785 7.09128 40.8558 6.92061 41.1651 6.79261C41.4851 6.66461 41.8158 6.60061 42.1571 6.60061C42.3811 6.60061 42.5678 6.61661 42.7171 6.64861C42.8771 6.66994 43.0211 6.70728 43.1491 6.76061V8.55261C42.9465 8.46728 42.7385 8.39794 42.5251 8.34461C42.3225 8.29128 42.1091 8.26461 41.8851 8.26461C41.4798 8.26461 41.1171 8.37661 40.7971 8.60061C40.4878 8.81394 40.2425 9.10194 40.0611 9.46461C39.8798 9.82728 39.7891 10.2326 39.7891 10.6806V15.0006H38.0611ZM47.3786 15.0006L44.0026 6.84061H45.9226L48.2106 12.7766H48.2906L50.6266 6.84061H52.5146L49.1066 15.0006H47.3786ZM56.1868 15.2566C55.6001 15.2566 55.0774 15.1393 54.6188 14.9046C54.1708 14.6699 53.8134 14.3499 53.5468 13.9446C53.2908 13.5286 53.1628 13.0539 53.1628 12.5206C53.1628 11.9339 53.3121 11.4379 53.6108 11.0326C53.9201 10.6273 54.3308 10.3179 54.8428 10.1046C55.3548 9.89128 55.9201 9.78461 56.5388 9.78461C56.8801 9.78461 57.1948 9.81128 57.4828 9.86461C57.7814 9.90728 58.0374 9.96061 58.2508 10.0246C58.4748 10.0886 58.6508 10.1579 58.7788 10.2326V9.80061C58.7788 9.26728 58.5868 8.84061 58.2028 8.52061C57.8188 8.20061 57.3228 8.04061 56.7148 8.04061C56.2988 8.04061 55.9041 8.13661 55.5308 8.32861C55.1574 8.50994 54.8588 8.76061 54.6348 9.08061L53.4508 8.16861C53.6854 7.83794 53.9681 7.55528 54.2988 7.32061C54.6401 7.08594 55.0188 6.90461 55.4348 6.77661C55.8614 6.64861 56.3041 6.58461 56.7628 6.58461C57.9468 6.58461 58.8588 6.87794 59.4988 7.46461C60.1388 8.04061 60.4588 8.85128 60.4588 9.89661V15.0006H58.7788V13.9926H58.6828C58.5441 14.2059 58.3521 14.4086 58.1068 14.6006C57.8721 14.7926 57.5894 14.9473 57.2588 15.0646C56.9388 15.1926 56.5814 15.2566 56.1868 15.2566ZM56.4908 13.8486C56.9388 13.8486 57.3334 13.7419 57.6748 13.5286C58.0268 13.3153 58.2988 13.0379 58.4908 12.6966C58.6828 12.3446 58.7788 11.9659 58.7788 11.5606C58.5441 11.4219 58.2561 11.3099 57.9148 11.2246C57.5841 11.1286 57.2321 11.0806 56.8588 11.0806C56.1548 11.0806 55.6534 11.2193 55.3548 11.4966C55.0561 11.7739 54.9068 12.1206 54.9068 12.5366C54.9068 12.9206 55.0508 13.2353 55.3388 13.4806C55.6268 13.7259 56.0108 13.8486 56.4908 13.8486ZM65.409 15.2566C64.7583 15.2566 64.193 15.1606 63.713 14.9686C63.233 14.7659 62.8383 14.4993 62.529 14.1686C62.2197 13.8273 61.9903 13.4593 61.841 13.0646L63.393 12.3926C63.585 12.8299 63.857 13.1659 64.209 13.4006C64.5717 13.6246 64.9877 13.7366 65.457 13.7366C65.8837 13.7366 66.2517 13.6619 66.561 13.5126C66.8703 13.3526 67.025 13.0966 67.025 12.7446C67.025 12.5206 66.9503 12.3393 66.801 12.2006C66.6623 12.0513 66.4703 11.9286 66.225 11.8326C65.9903 11.7366 65.7183 11.6513 65.409 11.5766L64.433 11.3526C64.049 11.2566 63.681 11.1073 63.329 10.9046C62.9877 10.6913 62.7103 10.4246 62.497 10.1046C62.2837 9.78461 62.177 9.40594 62.177 8.96861C62.177 8.47794 62.3157 8.05661 62.593 7.70461C62.881 7.34194 63.265 7.06461 63.745 6.87261C64.225 6.68061 64.7423 6.58461 65.297 6.58461C65.809 6.58461 66.273 6.65394 66.689 6.79261C67.1157 6.92061 67.4837 7.11794 67.793 7.38461C68.113 7.64061 68.3637 7.96061 68.545 8.34461L67.057 9.01661C66.8757 8.65394 66.6303 8.40328 66.321 8.26461C66.0117 8.11528 65.6757 8.04061 65.313 8.04061C64.9077 8.04061 64.5663 8.12594 64.289 8.29661C64.0223 8.45661 63.889 8.66994 63.889 8.93661C63.889 9.21394 64.0063 9.43261 64.241 9.59261C64.4863 9.75261 64.785 9.88061 65.137 9.97661L66.321 10.2646C67.1317 10.4673 67.7397 10.7766 68.145 11.1926C68.5503 11.5979 68.753 12.0939 68.753 12.6806C68.753 13.2033 68.6037 13.6619 68.305 14.0566C68.0063 14.4406 67.601 14.7393 67.089 14.9526C66.5877 15.1553 66.0277 15.2566 65.409 15.2566ZM70.461 15.0006V6.84061H72.189V15.0006H70.461ZM71.325 5.64061C71.005 5.64061 70.7277 5.52861 70.493 5.30461C70.269 5.06994 70.157 4.79261 70.157 4.47261C70.157 4.14194 70.269 3.86994 70.493 3.65661C70.7277 3.43261 71.005 3.32061 71.325 3.32061C71.6557 3.32061 71.933 3.43261 72.157 3.65661C72.381 3.86994 72.493 4.14194 72.493 4.47261C72.493 4.79261 72.381 5.06994 72.157 5.30461C71.933 5.52861 71.6557 5.64061 71.325 5.64061ZM81.8554 15.2566C81.1194 15.2566 80.4527 15.0699 79.8554 14.6966C79.258 14.3233 78.7887 13.8113 78.4474 13.1606C78.106 12.5099 77.9354 11.7633 77.9354 10.9206C77.9354 10.0779 78.106 9.33128 78.4474 8.68061C78.7887 8.02994 79.258 7.51794 79.8554 7.14461C80.4527 6.77128 81.1194 6.58461 81.8554 6.58461C82.282 6.58461 82.666 6.64861 83.0074 6.77661C83.3487 6.90461 83.642 7.07528 83.8874 7.28861C84.1434 7.49128 84.3407 7.70994 84.4794 7.94461H84.5754L84.4794 6.80861V3.54461H86.1914V15.0006H84.5754V13.9126H84.4794C84.3407 14.1366 84.1434 14.3553 83.8874 14.5686C83.642 14.7713 83.3487 14.9366 83.0074 15.0646C82.666 15.1926 82.282 15.2566 81.8554 15.2566ZM82.1114 13.6726C82.538 13.6726 82.938 13.5606 83.3114 13.3366C83.6954 13.1126 83.9994 12.7979 84.2234 12.3926C84.458 11.9766 84.5754 11.4859 84.5754 10.9206C84.5754 10.3553 84.458 9.86994 84.2234 9.46461C83.9994 9.04861 83.6954 8.72861 83.3114 8.50461C82.938 8.28061 82.538 8.16861 82.1114 8.16861C81.6847 8.16861 81.2847 8.28061 80.9114 8.50461C80.538 8.72861 80.234 9.04861 79.9994 9.46461C79.7647 9.86994 79.6474 10.3553 79.6474 10.9206C79.6474 11.4753 79.7647 11.9606 79.9994 12.3766C80.234 12.7926 80.538 13.1126 80.9114 13.3366C81.2847 13.5606 81.6847 13.6726 82.1114 13.6726ZM92.0266 15.2566C91.2266 15.2566 90.512 15.0699 89.8826 14.6966C89.2533 14.3233 88.7573 13.8113 88.3946 13.1606C88.0426 12.5099 87.8666 11.7686 87.8666 10.9366C87.8666 10.1579 88.0373 9.43794 88.3786 8.77661C88.72 8.11528 89.1946 7.58728 89.8026 7.19261C90.4213 6.78728 91.1306 6.58461 91.9306 6.58461C92.7733 6.58461 93.488 6.76594 94.0746 7.12861C94.672 7.49128 95.1253 7.98728 95.4346 8.61661C95.744 9.24594 95.8986 9.95528 95.8986 10.7446C95.8986 10.8619 95.8933 10.9686 95.8826 11.0646C95.8826 11.1606 95.8773 11.2353 95.8666 11.2886H89.5626C89.6053 11.7366 89.7173 12.1259 89.8986 12.4566C90.1333 12.8726 90.4426 13.1873 90.8266 13.4006C91.2106 13.6139 91.6266 13.7206 92.0746 13.7206C92.6186 13.7206 93.072 13.5979 93.4346 13.3526C93.808 13.0966 94.1013 12.7819 94.3146 12.4086L95.7386 13.0966C95.3866 13.7366 94.9066 14.2593 94.2986 14.6646C93.6906 15.0593 92.9333 15.2566 92.0266 15.2566ZM89.6586 9.99261H94.1866C94.176 9.78994 94.1226 9.57661 94.0266 9.35261C93.9306 9.11794 93.792 8.90461 93.6106 8.71261C93.4293 8.52061 93.2 8.36594 92.9226 8.24861C92.6453 8.12061 92.32 8.05661 91.9466 8.05661C91.4773 8.05661 91.0613 8.17928 90.6986 8.42461C90.336 8.65928 90.0533 8.98994 89.8506 9.41661C89.7653 9.59794 89.7013 9.78994 89.6586 9.99261ZM97.6518 15.0006V6.84061H99.2838V7.96061H99.3798C99.6144 7.56594 99.9611 7.24061 100.42 6.98461C100.889 6.71794 101.401 6.58461 101.956 6.58461C102.958 6.58461 103.71 6.88328 104.212 7.48061C104.713 8.06728 104.964 8.85661 104.964 9.84861V15.0006H103.252V10.0726C103.252 9.41128 103.086 8.93128 102.756 8.63261C102.425 8.32328 101.993 8.16861 101.46 8.16861C101.044 8.16861 100.681 8.28594 100.372 8.52061C100.062 8.74461 99.8171 9.04328 99.6358 9.41661C99.4651 9.78994 99.3798 10.1899 99.3798 10.6166V15.0006H97.6518ZM110.685 18.7126C109.97 18.7126 109.352 18.5953 108.829 18.3606C108.317 18.1366 107.901 17.8433 107.581 17.4806C107.261 17.1286 107.032 16.7659 106.893 16.3926L108.493 15.7206C108.664 16.1473 108.936 16.4939 109.309 16.7606C109.693 17.0379 110.152 17.1766 110.685 17.1766C111.442 17.1766 112.034 16.9526 112.461 16.5046C112.888 16.0566 113.101 15.4219 113.101 14.6006V13.8166H113.005C112.749 14.1899 112.397 14.4939 111.949 14.7286C111.501 14.9633 110.984 15.0806 110.397 15.0806C109.704 15.0806 109.064 14.9046 108.477 14.5526C107.901 14.2006 107.437 13.7099 107.085 13.0806C106.744 12.4406 106.573 11.6939 106.573 10.8406C106.573 9.97661 106.744 9.22994 107.085 8.60061C107.437 7.96061 107.901 7.46461 108.477 7.11261C109.064 6.76061 109.704 6.58461 110.397 6.58461C110.984 6.58461 111.501 6.70194 111.949 6.93661C112.397 7.16061 112.749 7.46994 113.005 7.86461H113.101V6.84061H114.749V14.5686C114.749 15.4539 114.573 16.2059 114.221 16.8246C113.88 17.4433 113.405 17.9126 112.797 18.2326C112.189 18.5526 111.485 18.7126 110.685 18.7126ZM110.701 13.5126C111.128 13.5126 111.522 13.4113 111.885 13.2086C112.258 12.9953 112.552 12.6913 112.765 12.2966C112.989 11.8913 113.101 11.4059 113.101 10.8406C113.101 10.2433 112.989 9.74728 112.765 9.35261C112.552 8.95794 112.258 8.65928 111.885 8.45661C111.522 8.25394 111.128 8.15261 110.701 8.15261C110.274 8.15261 109.874 8.25394 109.501 8.45661C109.138 8.65928 108.845 8.96328 108.621 9.36861C108.397 9.76328 108.285 10.2539 108.285 10.8406C108.285 11.4166 108.397 11.9073 108.621 12.3126C108.845 12.7073 109.138 13.0059 109.501 13.2086C109.874 13.4113 110.274 13.5126 110.701 13.5126ZM119.402 15.2566C118.816 15.2566 118.293 15.1393 117.834 14.9046C117.386 14.6699 117.029 14.3499 116.762 13.9446C116.506 13.5286 116.378 13.0539 116.378 12.5206C116.378 11.9339 116.528 11.4379 116.826 11.0326C117.136 10.6273 117.546 10.3179 118.058 10.1046C118.57 9.89128 119.136 9.78461 119.754 9.78461C120.096 9.78461 120.41 9.81128 120.698 9.86461C120.997 9.90728 121.253 9.96061 121.466 10.0246C121.69 10.0886 121.866 10.1579 121.994 10.2326V9.80061C121.994 9.26728 121.802 8.84061 121.418 8.52061C121.034 8.20061 120.538 8.04061 119.93 8.04061C119.514 8.04061 119.12 8.13661 118.746 8.32861C118.373 8.50994 118.074 8.76061 117.85 9.08061L116.666 8.16861C116.901 7.83794 117.184 7.55528 117.514 7.32061C117.856 7.08594 118.234 6.90461 118.65 6.77661C119.077 6.64861 119.52 6.58461 119.978 6.58461C121.162 6.58461 122.074 6.87794 122.714 7.46461C123.354 8.04061 123.674 8.85128 123.674 9.89661V15.0006H121.994V13.9926H121.898C121.76 14.2059 121.568 14.4086 121.322 14.6006C121.088 14.7926 120.805 14.9473 120.474 15.0646C120.154 15.1926 119.797 15.2566 119.402 15.2566ZM119.706 13.8486C120.154 13.8486 120.549 13.7419 120.89 13.5286C121.242 13.3153 121.514 13.0379 121.706 12.6966C121.898 12.3446 121.994 11.9659 121.994 11.5606C121.76 11.4219 121.472 11.3099 121.13 11.2246C120.8 11.1286 120.448 11.0806 120.074 11.0806C119.37 11.0806 118.869 11.2193 118.57 11.4966C118.272 11.7739 118.122 12.1206 118.122 12.5366C118.122 12.9206 118.266 13.2353 118.554 13.4806C118.842 13.7259 119.226 13.8486 119.706 13.8486ZM125.727 15.0006V6.84061H127.359V7.96061H127.455C127.689 7.56594 128.036 7.24061 128.495 6.98461C128.964 6.71794 129.476 6.58461 130.031 6.58461C131.033 6.58461 131.785 6.88328 132.287 7.48061C132.788 8.06728 133.039 8.85661 133.039 9.84861V15.0006H131.327V10.0726C131.327 9.41128 131.161 8.93128 130.831 8.63261C130.5 8.32328 130.068 8.16861 129.535 8.16861C129.119 8.16861 128.756 8.28594 128.447 8.52061C128.137 8.74461 127.892 9.04328 127.711 9.41661C127.54 9.78994 127.455 10.1899 127.455 10.6166V15.0006H125.727Z" fill="white"/>
<g id="GPay (Dark)">
<g id="GPay">
<g id="Pay">
<path id="Fill 1" fill-rule="evenodd" clip-rule="evenodd" d="M162.356 3.42339V8.16175H165.278C165.974 8.16175 166.55 7.92781 167.005 7.45993C167.473 6.99313 167.707 6.43644 167.707 5.79203C167.707 5.16061 167.473 4.61041 167.005 4.14254C166.55 3.66274 165.974 3.4223 165.278 3.4223H162.356V3.42339ZM162.356 9.82966V15.3262H160.611V1.75549H165.24C166.417 1.75549 167.415 2.14756 168.238 2.93061C169.073 3.71365 169.491 4.66782 169.491 5.79203C169.491 6.94224 169.073 7.90291 168.238 8.67296C167.428 9.44409 166.429 9.82858 165.24 9.82858H162.356V9.82966Z" fill="white"/>
<path id="Fill 3" fill-rule="evenodd" clip-rule="evenodd" d="M171.255 12.4831C171.255 12.9379 171.448 13.317 171.834 13.6203C172.22 13.9235 172.672 14.0752 173.19 14.0752C173.924 14.0752 174.578 13.8032 175.153 13.2607C175.729 12.717 176.017 12.0791 176.017 11.3469C175.472 10.917 174.713 10.7025 173.74 10.7025C173.031 10.7025 172.44 10.8736 171.966 11.2148C171.492 11.5559 171.255 11.9773 171.255 12.4831M173.513 5.73566C174.803 5.73566 175.821 6.08007 176.569 6.76889C177.314 7.45771 177.687 8.40213 177.687 9.60216V15.3261H176.018V14.0373H175.942C175.221 15.0985 174.259 15.6294 173.058 15.6294C172.033 15.6294 171.176 15.3261 170.487 14.7196C169.797 14.1131 169.453 13.3549 169.453 12.4452C169.453 11.4845 169.816 10.7208 170.543 10.1523C171.271 9.58375 172.241 9.2989 173.456 9.2989C174.492 9.2989 175.346 9.48844 176.017 9.86751V9.46894C176.017 8.86243 175.776 8.34798 175.296 7.92451C174.814 7.50103 174.252 7.28984 173.607 7.28984C172.633 7.28984 171.862 7.70032 171.293 8.52235L169.755 7.55519C170.603 6.34217 171.855 5.73566 173.513 5.73566" fill="white"/>
<path id="Fill 5" fill-rule="evenodd" clip-rule="evenodd" d="M187.269 6.03894L181.443 19.4201H179.641L181.804 14.738L177.971 6.03894H179.869L182.639 12.7106H182.677L185.371 6.03894H187.269Z" fill="white"/>
</g>
<g id="G">
<path id="Fill 8" fill-rule="evenodd" clip-rule="evenodd" d="M155.303 8.64473C155.303 8.09563 155.256 7.56601 155.168 7.05914H147.806V10.0625H152.023C151.842 11.0414 151.294 11.8744 150.464 12.4322V14.3828H152.98C154.454 13.0246 155.303 11.0177 155.303 8.64473" fill="#4285F4"/>
<path id="Fill 10" fill-rule="evenodd" clip-rule="evenodd" d="M147.806 16.2651C149.913 16.2651 151.687 15.5741 152.98 14.3828L150.464 12.4322C149.763 12.9033 148.861 13.1784 147.806 13.1784C145.77 13.1784 144.042 11.8073 143.424 9.95959H140.832V11.9687C142.116 14.516 144.757 16.2651 147.806 16.2651" fill="#34A853"/>
<path id="Fill 12" fill-rule="evenodd" clip-rule="evenodd" d="M143.424 9.9596C143.266 9.48847 143.179 8.98593 143.179 8.46715C143.179 7.94837 143.266 7.44583 143.424 6.9747V4.96564H140.832C140.3 6.01837 140 7.20756 140 8.46715C140 9.72674 140.3 10.916 140.832 11.9687L143.424 9.9596Z" fill="#FABB05"/>
<path id="Fill 14" fill-rule="evenodd" clip-rule="evenodd" d="M147.806 3.75583C148.957 3.75583 149.988 4.15115 150.801 4.92553V4.92661L153.029 2.70094C151.676 1.44243 149.912 0.669128 147.806 0.669128C144.757 0.669128 142.116 2.41826 140.832 4.9656L143.424 6.97467C144.042 5.12698 145.77 3.75583 147.806 3.75583" fill="#E94235"/>
</g>
</g>
</g>
</g>
</svg>
