<svg width="280" height="38" viewBox="0 0 280 38" fill="none" xmlns="http://www.w3.org/2000/svg">
<g id="id_book_with_Light">
<path id="Text" d="M3.4055 30V9.952H10.2935C11.5068 9.952 12.6082 10.2133 13.5975 10.736C14.5868 11.2587 15.3708 11.9773 15.9495 12.892C16.5468 13.8067 16.8455 14.8707 16.8455 16.084C16.8455 17.2973 16.5468 18.3707 15.9495 19.304C15.3708 20.2187 14.5868 20.9373 13.5975 21.46C12.6082 21.964 11.5068 22.216 10.2935 22.216H6.4855V30H3.4055ZM10.3775 12.864H6.4855V19.304H10.3775C11.1055 19.304 11.7215 19.1547 12.2255 18.856C12.7295 18.5387 13.1122 18.1373 13.3735 17.652C13.6535 17.148 13.7935 16.6253 13.7935 16.084C13.7935 15.5427 13.6535 15.0293 13.3735 14.544C13.1122 14.0587 12.7295 13.6573 12.2255 13.34C11.7215 13.0227 11.1055 12.864 10.3775 12.864ZM25.3388 30.448C23.9388 30.448 22.6881 30.1213 21.5868 29.468C20.4854 28.8147 19.6174 27.9187 18.9828 26.78C18.3668 25.6413 18.0588 24.344 18.0588 22.888C18.0588 21.5253 18.3574 20.2653 18.9548 19.108C19.5521 17.9507 20.3828 17.0267 21.4468 16.336C22.5294 15.6267 23.7708 15.272 25.1708 15.272C26.6454 15.272 27.8961 15.5893 28.9228 16.224C29.9681 16.8587 30.7614 17.7267 31.3028 18.828C31.8441 19.9293 32.1148 21.1707 32.1148 22.552C32.1148 22.7573 32.1054 22.944 32.0868 23.112C32.0868 23.28 32.0774 23.4107 32.0588 23.504H21.0268C21.1761 24.9227 21.6708 25.9867 22.5108 26.696C23.3694 27.4053 24.3401 27.76 25.4228 27.76C26.3934 27.76 27.1961 27.5453 27.8308 27.116C28.4654 26.668 28.9694 26.1173 29.3428 25.464L31.8348 26.668C31.2188 27.788 30.3788 28.7027 29.3148 29.412C28.2508 30.1027 26.9254 30.448 25.3388 30.448ZM25.1988 17.848C24.1908 17.848 23.3321 18.156 22.6228 18.772C21.9134 19.388 21.4374 20.2093 21.1948 21.236H29.1188C29.0814 20.7507 28.9228 20.2467 28.6428 19.724C28.3628 19.2013 27.9334 18.7627 27.3548 18.408C26.7948 18.0347 26.0761 17.848 25.1988 17.848ZM40.565 30.448C38.8476 30.448 37.4756 30.0747 36.449 29.328C35.4223 28.5627 34.713 27.6573 34.321 26.612L37.037 25.436C37.373 26.2013 37.8583 26.7893 38.493 27.2C39.1276 27.592 39.8463 27.788 40.649 27.788C41.3956 27.788 42.0396 27.6573 42.581 27.396C43.1223 27.116 43.393 26.668 43.393 26.052C43.393 25.4547 43.1223 25.016 42.581 24.736C42.0396 24.456 41.3676 24.2133 40.565 24.008L38.857 23.616C38.1663 23.448 37.5223 23.1867 36.925 22.832C36.3276 22.4773 35.8423 22.02 35.469 21.46C35.0956 20.8813 34.909 20.2093 34.909 19.444C34.909 18.604 35.161 17.876 35.665 17.26C36.169 16.6253 36.8316 16.14 37.653 15.804C38.493 15.4493 39.3983 15.272 40.369 15.272C41.6943 15.272 42.8516 15.5333 43.841 16.056C44.849 16.56 45.5863 17.3253 46.053 18.352L43.449 19.528C43.113 18.8933 42.6743 18.4547 42.133 18.212C41.6103 17.9507 41.0316 17.82 40.397 17.82C39.6876 17.82 39.0903 17.9693 38.605 18.268C38.1383 18.5667 37.905 18.94 37.905 19.388C37.905 19.8733 38.1103 20.256 38.521 20.536C38.9503 20.816 39.473 21.04 40.089 21.208L42.161 21.712C43.5796 22.0667 44.6436 22.608 45.353 23.336C46.0623 24.0453 46.417 24.9133 46.417 25.94C46.417 26.8547 46.1556 27.6573 45.633 28.348C45.1103 29.02 44.401 29.5427 43.505 29.916C42.6276 30.2707 41.6476 30.448 40.565 30.448ZM53.9729 30.448C52.9462 30.448 52.0316 30.252 51.2289 29.86C50.4262 29.4493 49.8009 28.88 49.3529 28.152C48.9049 27.424 48.6809 26.5933 48.6809 25.66C48.6809 24.652 48.9422 23.7933 49.4649 23.084C50.0062 22.356 50.7249 21.8053 51.6209 21.432C52.5169 21.0587 53.5062 20.872 54.5889 20.872C55.4849 20.872 56.2689 20.956 56.9409 21.124C57.6316 21.292 58.1542 21.4693 58.5089 21.656V20.9C58.5089 19.9667 58.1729 19.22 57.5009 18.66C56.8289 18.1 55.9609 17.82 54.8969 17.82C54.1689 17.82 53.4782 17.988 52.8249 18.324C52.1716 18.6413 51.6489 19.08 51.2569 19.64L49.1849 18.044C49.8009 17.1853 50.6129 16.5133 51.6209 16.028C52.6476 15.524 53.7676 15.272 54.9809 15.272C57.0529 15.272 58.6489 15.7853 59.7689 16.812C60.8889 17.82 61.4489 19.2387 61.4489 21.068V30H58.5089V28.236H58.3409C57.9676 28.8147 57.4076 29.328 56.6609 29.776C55.9142 30.224 55.0182 30.448 53.9729 30.448ZM54.5049 27.984C55.2889 27.984 55.9796 27.7973 56.5769 27.424C57.1742 27.0507 57.6409 26.5653 57.9769 25.968C58.3316 25.352 58.5089 24.6893 58.5089 23.98C58.0796 23.7373 57.5756 23.5413 56.9969 23.392C56.4182 23.224 55.8022 23.14 55.1489 23.14C53.9169 23.14 53.0396 23.392 52.5169 23.896C51.9942 24.3813 51.7329 24.9787 51.7329 25.688C51.7329 26.36 51.9849 26.9107 52.4889 27.34C52.9929 27.7693 53.6649 27.984 54.5049 27.984ZM65.0781 30V15.72H67.9341V17.68H68.1021C68.5127 16.9893 69.1194 16.42 69.9221 15.972C70.7434 15.5053 71.6394 15.272 72.6101 15.272C74.3647 15.272 75.6807 15.7947 76.5581 16.84C77.4354 17.8853 77.8741 19.2667 77.8741 20.984V30H74.8781V21.376C74.8781 20.2187 74.5887 19.3787 74.0101 18.856C73.4314 18.3147 72.6754 18.044 71.7421 18.044C71.0141 18.044 70.3794 18.2493 69.8381 18.66C69.2967 19.052 68.8674 19.5747 68.5501 20.228C68.2514 20.8813 68.1021 21.5813 68.1021 22.328V30H65.0781ZM94.5594 30.448C93.2714 30.448 92.1047 30.1307 91.0594 29.496C90.0327 28.8427 89.2114 27.9467 88.5954 26.808C87.9981 25.6507 87.6994 24.3347 87.6994 22.86C87.6994 21.3853 87.9981 20.0787 88.5954 18.94C89.2114 17.8013 90.0327 16.9053 91.0594 16.252C92.1047 15.5987 93.2714 15.272 94.5594 15.272C95.6607 15.272 96.6034 15.5147 97.3874 16C98.1901 16.4853 98.7781 17.036 99.1514 17.652H99.3194L99.1514 15.664V9.952H102.147V30H99.3194V28.096H99.1514C98.7781 28.712 98.1901 29.2627 97.3874 29.748C96.6034 30.2147 95.6607 30.448 94.5594 30.448ZM95.0074 27.676C95.7541 27.676 96.4541 27.48 97.1074 27.088C97.7794 26.696 98.3114 26.1453 98.7034 25.436C99.1141 24.708 99.3194 23.8493 99.3194 22.86C99.3194 21.8707 99.1141 21.0213 98.7034 20.312C98.3114 19.584 97.7794 19.024 97.1074 18.632C96.4541 18.24 95.7541 18.044 95.0074 18.044C94.2607 18.044 93.5607 18.24 92.9074 18.632C92.2541 19.024 91.7221 19.584 91.3114 20.312C90.9007 21.0213 90.6954 21.8707 90.6954 22.86C90.6954 23.8493 90.9007 24.708 91.3114 25.436C91.7221 26.1453 92.2541 26.696 92.9074 27.088C93.5607 27.48 94.2607 27.676 95.0074 27.676ZM112.397 30.448C110.997 30.448 109.746 30.1213 108.645 29.468C107.543 28.8147 106.675 27.9187 106.041 26.78C105.425 25.6413 105.117 24.344 105.117 22.888C105.117 21.5253 105.415 20.2653 106.013 19.108C106.61 17.9507 107.441 17.0267 108.505 16.336C109.587 15.6267 110.829 15.272 112.229 15.272C113.703 15.272 114.954 15.5893 115.981 16.224C117.026 16.8587 117.819 17.7267 118.361 18.828C118.902 19.9293 119.173 21.1707 119.173 22.552C119.173 22.7573 119.163 22.944 119.145 23.112C119.145 23.28 119.135 23.4107 119.117 23.504H108.085C108.234 24.9227 108.729 25.9867 109.569 26.696C110.427 27.4053 111.398 27.76 112.481 27.76C113.451 27.76 114.254 27.5453 114.889 27.116C115.523 26.668 116.027 26.1173 116.401 25.464L118.893 26.668C118.277 27.788 117.437 28.7027 116.373 29.412C115.309 30.1027 113.983 30.448 112.397 30.448ZM112.257 17.848C111.249 17.848 110.39 18.156 109.681 18.772C108.971 19.388 108.495 20.2093 108.253 21.236H116.177C116.139 20.7507 115.981 20.2467 115.701 19.724C115.421 19.2013 114.991 18.7627 114.413 18.408C113.853 18.0347 113.134 17.848 112.257 17.848ZM122.278 30V15.72H125.134V17.68H125.302C125.713 16.9893 126.319 16.42 127.122 15.972C127.943 15.5053 128.839 15.272 129.81 15.272C131.565 15.272 132.881 15.7947 133.758 16.84C134.635 17.8853 135.074 19.2667 135.074 20.984V30H132.078V21.376C132.078 20.2187 131.789 19.3787 131.21 18.856C130.631 18.3147 129.875 18.044 128.942 18.044C128.214 18.044 127.579 18.2493 127.038 18.66C126.497 19.052 126.067 19.5747 125.75 20.228C125.451 20.8813 125.302 21.5813 125.302 22.328V30H122.278ZM145.124 36.496C143.873 36.496 142.79 36.2907 141.876 35.88C140.98 35.488 140.252 34.9747 139.692 34.34C139.132 33.724 138.73 33.0893 138.488 32.436L141.288 31.26C141.586 32.0067 142.062 32.6133 142.716 33.08C143.388 33.5653 144.19 33.808 145.124 33.808C146.43 33.808 147.457 33.416 148.204 32.632C148.969 31.848 149.352 30.7373 149.352 29.3V27.928H149.184C148.736 28.6 148.11 29.1413 147.308 29.552C146.524 29.944 145.628 30.14 144.62 30.14C143.406 30.14 142.296 29.832 141.288 29.216C140.28 28.6 139.468 27.7413 138.852 26.64C138.236 25.52 137.928 24.2133 137.928 22.72C137.928 21.208 138.236 19.9013 138.852 18.8C139.468 17.68 140.28 16.812 141.288 16.196C142.296 15.58 143.406 15.272 144.62 15.272C145.628 15.272 146.524 15.4773 147.308 15.888C148.11 16.2987 148.736 16.84 149.184 17.512H149.352V15.72H152.236V29.244C152.236 30.7933 151.928 32.1093 151.312 33.192C150.714 34.2747 149.884 35.096 148.82 35.656C147.756 36.216 146.524 36.496 145.124 36.496ZM145.152 27.396C145.898 27.396 146.589 27.2187 147.224 26.864C147.858 26.4907 148.372 25.9587 148.764 25.268C149.156 24.5587 149.352 23.7093 149.352 22.72C149.352 21.6933 149.156 20.8347 148.764 20.144C148.372 19.4347 147.858 18.9027 147.224 18.548C146.589 18.1933 145.898 18.016 145.152 18.016C144.405 18.016 143.705 18.2027 143.052 18.576C142.417 18.9307 141.904 19.4533 141.512 20.144C141.12 20.8347 140.924 21.6933 140.924 22.72C140.924 23.728 141.12 24.5867 141.512 25.296C141.904 25.9867 142.417 26.5093 143.052 26.864C143.705 27.2187 144.405 27.396 145.152 27.396ZM160.417 30.448C159.39 30.448 158.475 30.252 157.673 29.86C156.87 29.4493 156.245 28.88 155.797 28.152C155.349 27.424 155.125 26.5933 155.125 25.66C155.125 24.652 155.386 23.7933 155.909 23.084C156.45 22.356 157.169 21.8053 158.065 21.432C158.961 21.0587 159.95 20.872 161.033 20.872C161.929 20.872 162.713 20.956 163.385 21.124C164.075 21.292 164.598 21.4693 164.953 21.656V20.9C164.953 19.9667 164.617 19.22 163.945 18.66C163.273 18.1 162.405 17.82 161.341 17.82C160.613 17.82 159.922 17.988 159.269 18.324C158.615 18.6413 158.093 19.08 157.701 19.64L155.629 18.044C156.245 17.1853 157.057 16.5133 158.065 16.028C159.091 15.524 160.211 15.272 161.425 15.272C163.497 15.272 165.093 15.7853 166.213 16.812C167.333 17.82 167.893 19.2387 167.893 21.068V30H164.953V28.236H164.785C164.411 28.8147 163.851 29.328 163.105 29.776C162.358 30.224 161.462 30.448 160.417 30.448ZM160.949 27.984C161.733 27.984 162.423 27.7973 163.021 27.424C163.618 27.0507 164.085 26.5653 164.421 25.968C164.775 25.352 164.953 24.6893 164.953 23.98C164.523 23.7373 164.019 23.5413 163.441 23.392C162.862 23.224 162.246 23.14 161.593 23.14C160.361 23.14 159.483 23.392 158.961 23.896C158.438 24.3813 158.177 24.9787 158.177 25.688C158.177 26.36 158.429 26.9107 158.933 27.34C159.437 27.7693 160.109 27.984 160.949 27.984ZM171.522 30V15.72H174.378V17.68H174.546C174.956 16.9893 175.563 16.42 176.366 15.972C177.187 15.5053 178.083 15.272 179.054 15.272C180.808 15.272 182.124 15.7947 183.002 16.84C183.879 17.8853 184.318 19.2667 184.318 20.984V30H181.322V21.376C181.322 20.2187 181.032 19.3787 180.454 18.856C179.875 18.3147 179.119 18.044 178.186 18.044C177.458 18.044 176.823 18.2493 176.282 18.66C175.74 19.052 175.311 19.5747 174.994 20.228C174.695 20.8813 174.546 21.5813 174.546 22.328V30H171.522Z" fill="#3C4043"/>
<g id="GPay Logo (Light)">
<g id="GPay">
<g id="Pay">
<path id="Fill 1" fill-rule="evenodd" clip-rule="evenodd" d="M236.529 9.44664V17.6128H241.565C242.765 17.6128 243.757 17.2096 244.541 16.4032C245.347 15.5988 245.75 14.6394 245.75 13.5288C245.75 12.4406 245.347 11.4924 244.541 10.686C243.757 9.85915 242.765 9.44478 241.565 9.44478H236.529V9.44664ZM236.529 20.4872V29.9599H233.521V6.57217H241.499C243.527 6.57217 245.248 7.24786 246.666 8.59737C248.105 9.94688 248.824 11.5913 248.824 13.5288C248.824 15.511 248.105 17.1667 246.666 18.4938C245.27 19.8227 243.547 20.4854 241.499 20.4854H236.529V20.4872Z" fill="#5F6368"/>
<path id="Fill 3" fill-rule="evenodd" clip-rule="evenodd" d="M251.864 25.0602C251.864 25.8442 252.197 26.4975 252.862 27.0201C253.527 27.5427 254.306 27.804 255.2 27.804C256.465 27.804 257.591 27.3354 258.584 26.4004C259.576 25.4634 260.071 24.364 260.071 23.1022C259.133 22.3612 257.825 21.9916 256.147 21.9916C254.925 21.9916 253.907 22.2865 253.09 22.8745C252.273 23.4623 251.864 24.1886 251.864 25.0602ZM255.756 13.4317C257.98 13.4317 259.735 14.0252 261.022 15.2124C262.308 16.3995 262.95 18.0271 262.95 20.0952V29.9599H260.073V27.7387H259.942C258.699 29.5677 257.042 30.4825 254.972 30.4825C253.206 30.4825 251.728 29.9599 250.541 28.9146C249.353 27.8694 248.759 26.5628 248.759 24.9949C248.759 23.3393 249.385 22.0232 250.638 21.0434C251.892 20.0635 253.565 19.5726 255.658 19.5726C257.444 19.5726 258.916 19.8992 260.071 20.5525V19.8656C260.071 18.8204 259.656 17.9338 258.829 17.204C257.999 16.4741 257.031 16.1102 255.919 16.1102C254.239 16.1102 252.911 16.8176 251.93 18.2343L249.28 16.5675C250.741 14.4769 252.899 13.4317 255.756 13.4317Z" fill="#5F6368"/>
<path id="Fill 5" fill-rule="evenodd" clip-rule="evenodd" d="M279.463 13.9543L269.424 37.0154H266.318L270.046 28.9464L263.44 13.9543H266.71L271.484 25.4522H271.55L276.193 13.9543H279.463Z" fill="#5F6368"/>
</g>
<g id="G">
<path id="Fill 8" fill-rule="evenodd" clip-rule="evenodd" d="M224.373 18.4452C224.373 17.4989 224.293 16.5861 224.141 15.7126H211.454V20.8885H218.72C218.408 22.5757 217.465 24.0112 216.033 24.9725V28.3341H220.37C222.91 25.9935 224.373 22.5348 224.373 18.4452Z" fill="#4285F4"/>
<path id="Fill 10" fill-rule="evenodd" clip-rule="evenodd" d="M211.454 31.5782C215.084 31.5782 218.141 30.3873 220.37 28.3341L216.033 24.9725C214.826 25.7844 213.272 26.2585 211.454 26.2585C207.944 26.2585 204.966 23.8955 203.901 20.7112H199.433V24.1736C201.647 28.5637 206.197 31.5782 211.454 31.5782Z" fill="#34A853"/>
<path id="Fill 12" fill-rule="evenodd" clip-rule="evenodd" d="M203.901 20.7111C203.628 19.8992 203.479 19.0331 203.479 18.139C203.479 17.245 203.628 16.3789 203.901 15.567V12.1045H199.433C198.518 13.9188 198 15.9683 198 18.139C198 20.3098 198.518 22.3595 199.433 24.1736L203.901 20.7111Z" fill="#FABB05"/>
<path id="Fill 14" fill-rule="evenodd" clip-rule="evenodd" d="M211.454 10.0196C213.436 10.0196 215.213 10.7009 216.615 12.0355V12.0374L220.455 8.20162C218.123 6.03271 215.082 4.7 211.454 4.7C206.197 4.7 201.647 7.71446 199.433 12.1046L203.901 15.567C204.966 12.3827 207.944 10.0196 211.454 10.0196Z" fill="#E94235"/>
</g>
</g>
</g>
</g>
</svg>
