<svg width="143" height="21" viewBox="0 0 143 21" fill="none" xmlns="http://www.w3.org/2000/svg">
<g id="id_buy_with_Pay_NBG">
<path id="Left Text" d="M2.171 15.0006V3.54461H6.459C7.08833 3.54461 7.659 3.67794 8.171 3.94461C8.683 4.21128 9.08833 4.57394 9.387 5.03261C9.69633 5.49128 9.851 6.00861 9.851 6.58461C9.851 7.17128 9.707 7.67261 9.419 8.08861C9.131 8.50461 8.75767 8.81928 8.299 9.03261V9.11261C8.875 9.30461 9.34433 9.63528 9.707 10.1046C10.0697 10.5739 10.251 11.1339 10.251 11.7846C10.251 12.4246 10.0857 12.9846 9.755 13.4646C9.435 13.9446 8.99767 14.3233 8.443 14.6006C7.899 14.8673 7.30167 15.0006 6.651 15.0006H2.171ZM3.931 9.92861V13.3686H6.651C7.035 13.3686 7.36567 13.2886 7.643 13.1286C7.92033 12.9686 8.12833 12.7553 8.267 12.4886C8.41633 12.2219 8.491 11.9446 8.491 11.6566C8.491 11.3473 8.41633 11.0646 8.267 10.8086C8.11767 10.5419 7.899 10.3286 7.611 10.1686C7.33367 10.0086 6.99233 9.92861 6.587 9.92861H3.931ZM3.931 8.36061H6.379C6.75233 8.36061 7.067 8.28594 7.323 8.13661C7.58967 7.97661 7.79233 7.77394 7.931 7.52861C8.06967 7.27261 8.139 7.01128 8.139 6.74461C8.139 6.47794 8.06967 6.22728 7.931 5.99261C7.803 5.74728 7.611 5.54994 7.355 5.40061C7.099 5.24061 6.795 5.16061 6.443 5.16061H3.931V8.36061ZM15.7766 15.2566C14.9766 15.2566 14.262 15.0699 13.6326 14.6966C13.0033 14.3233 12.5073 13.8113 12.1446 13.1606C11.7926 12.5099 11.6166 11.7686 11.6166 10.9366C11.6166 10.1579 11.7873 9.43794 12.1286 8.77661C12.47 8.11528 12.9446 7.58728 13.5526 7.19261C14.1713 6.78728 14.8806 6.58461 15.6806 6.58461C16.5233 6.58461 17.238 6.76594 17.8246 7.12861C18.422 7.49128 18.8753 7.98728 19.1846 8.61661C19.494 9.24594 19.6486 9.95528 19.6486 10.7446C19.6486 10.8619 19.6433 10.9686 19.6326 11.0646C19.6326 11.1606 19.6273 11.2353 19.6166 11.2886H13.3126C13.3553 11.7366 13.4673 12.1259 13.6486 12.4566C13.8833 12.8726 14.1926 13.1873 14.5766 13.4006C14.9606 13.6139 15.3766 13.7206 15.8246 13.7206C16.3686 13.7206 16.822 13.5979 17.1846 13.3526C17.558 13.0966 17.8513 12.7819 18.0646 12.4086L19.4886 13.0966C19.1366 13.7366 18.6566 14.2593 18.0486 14.6646C17.4406 15.0593 16.6833 15.2566 15.7766 15.2566ZM13.4086 9.99261H17.9366C17.926 9.78994 17.8726 9.57661 17.7766 9.35261C17.6806 9.11794 17.542 8.90461 17.3606 8.71261C17.1793 8.52061 16.95 8.36594 16.6726 8.24861C16.3953 8.12061 16.07 8.05661 15.6966 8.05661C15.2273 8.05661 14.8113 8.17928 14.4486 8.42461C14.086 8.65928 13.8033 8.98994 13.6006 9.41661C13.5153 9.59794 13.4513 9.78994 13.4086 9.99261ZM21.4177 15.0006V3.54461H23.1457V15.0006H21.4177ZM25.461 15.0006V6.84061H27.189V15.0006H25.461ZM26.325 5.64061C26.005 5.64061 25.7277 5.52861 25.493 5.30461C25.269 5.06994 25.157 4.79261 25.157 4.47261C25.157 4.14194 25.269 3.86994 25.493 3.65661C25.7277 3.43261 26.005 3.32061 26.325 3.32061C26.6557 3.32061 26.933 3.43261 27.157 3.65661C27.381 3.86994 27.493 4.14194 27.493 4.47261C27.493 4.79261 27.381 5.06994 27.157 5.30461C26.933 5.52861 26.6557 5.64061 26.325 5.64061ZM36.8554 15.2566C36.1194 15.2566 35.4527 15.0699 34.8554 14.6966C34.258 14.3233 33.7887 13.8113 33.4474 13.1606C33.106 12.5099 32.9354 11.7633 32.9354 10.9206C32.9354 10.0779 33.106 9.33128 33.4474 8.68061C33.7887 8.02994 34.258 7.51794 34.8554 7.14461C35.4527 6.77128 36.1194 6.58461 36.8554 6.58461C37.282 6.58461 37.666 6.64861 38.0074 6.77661C38.3487 6.90461 38.642 7.07528 38.8874 7.28861C39.1434 7.49128 39.3407 7.70994 39.4794 7.94461H39.5754L39.4794 6.80861V3.54461H41.1914V15.0006H39.5754V13.9126H39.4794C39.3407 14.1366 39.1434 14.3553 38.8874 14.5686C38.642 14.7713 38.3487 14.9366 38.0074 15.0646C37.666 15.1926 37.282 15.2566 36.8554 15.2566ZM37.1114 13.6726C37.538 13.6726 37.938 13.5606 38.3114 13.3366C38.6954 13.1126 38.9994 12.7979 39.2234 12.3926C39.458 11.9766 39.5754 11.4859 39.5754 10.9206C39.5754 10.3553 39.458 9.86994 39.2234 9.46461C38.9994 9.04861 38.6954 8.72861 38.3114 8.50461C37.938 8.28061 37.538 8.16861 37.1114 8.16861C36.6847 8.16861 36.2847 8.28061 35.9114 8.50461C35.538 8.72861 35.234 9.04861 34.9994 9.46461C34.7647 9.86994 34.6474 10.3553 34.6474 10.9206C34.6474 11.4753 34.7647 11.9606 34.9994 12.3766C35.234 12.7926 35.538 13.1126 35.9114 13.3366C36.2847 13.5606 36.6847 13.6726 37.1114 13.6726ZM47.0266 15.2566C46.2266 15.2566 45.512 15.0699 44.8826 14.6966C44.2533 14.3233 43.7573 13.8113 43.3946 13.1606C43.0426 12.5099 42.8666 11.7686 42.8666 10.9366C42.8666 10.1579 43.0373 9.43794 43.3786 8.77661C43.72 8.11528 44.1946 7.58728 44.8026 7.19261C45.4213 6.78728 46.1306 6.58461 46.9306 6.58461C47.7733 6.58461 48.488 6.76594 49.0746 7.12861C49.672 7.49128 50.1253 7.98728 50.4346 8.61661C50.744 9.24594 50.8986 9.95528 50.8986 10.7446C50.8986 10.8619 50.8933 10.9686 50.8826 11.0646C50.8826 11.1606 50.8773 11.2353 50.8666 11.2886H44.5626C44.6053 11.7366 44.7173 12.1259 44.8986 12.4566C45.1333 12.8726 45.4426 13.1873 45.8266 13.4006C46.2106 13.6139 46.6266 13.7206 47.0746 13.7206C47.6186 13.7206 48.072 13.5979 48.4346 13.3526C48.808 13.0966 49.1013 12.7819 49.3146 12.4086L50.7386 13.0966C50.3866 13.7366 49.9066 14.2593 49.2986 14.6646C48.6906 15.0593 47.9333 15.2566 47.0266 15.2566ZM44.6586 9.99261H49.1866C49.176 9.78994 49.1226 9.57661 49.0266 9.35261C48.9306 9.11794 48.792 8.90461 48.6106 8.71261C48.4293 8.52061 48.2 8.36594 47.9226 8.24861C47.6453 8.12061 47.32 8.05661 46.9466 8.05661C46.4773 8.05661 46.0613 8.17928 45.6986 8.42461C45.336 8.65928 45.0533 8.98994 44.8506 9.41661C44.7653 9.59794 44.7013 9.78994 44.6586 9.99261ZM52.6517 15.0006V6.84061H54.2837V7.96061H54.3797C54.6144 7.56594 54.9611 7.24061 55.4197 6.98461C55.8891 6.71794 56.4011 6.58461 56.9557 6.58461C57.9584 6.58461 58.7104 6.88328 59.2117 7.48061C59.7131 8.06728 59.9637 8.85661 59.9637 9.84861V15.0006H58.2517V10.0726C58.2517 9.41128 58.0864 8.93128 57.7557 8.63261C57.4251 8.32328 56.9931 8.16861 56.4597 8.16861C56.0437 8.16861 55.6811 8.28594 55.3717 8.52061C55.0624 8.74461 54.8171 9.04328 54.6357 9.41661C54.4651 9.78994 54.3797 10.1899 54.3797 10.6166V15.0006H52.6517ZM65.6849 18.7126C64.9702 18.7126 64.3515 18.5953 63.8289 18.3606C63.3169 18.1366 62.9009 17.8433 62.5809 17.4806C62.2609 17.1286 62.0315 16.7659 61.8929 16.3926L63.4929 15.7206C63.6635 16.1473 63.9355 16.4939 64.3089 16.7606C64.6929 17.0379 65.1515 17.1766 65.6849 17.1766C66.4422 17.1766 67.0342 16.9526 67.4609 16.5046C67.8875 16.0566 68.1009 15.4219 68.1009 14.6006V13.8166H68.0049C67.7489 14.1899 67.3969 14.4939 66.9489 14.7286C66.5009 14.9633 65.9835 15.0806 65.3969 15.0806C64.7035 15.0806 64.0635 14.9046 63.4769 14.5526C62.9009 14.2006 62.4369 13.7099 62.0849 13.0806C61.7435 12.4406 61.5729 11.6939 61.5729 10.8406C61.5729 9.97661 61.7435 9.22994 62.0849 8.60061C62.4369 7.96061 62.9009 7.46461 63.4769 7.11261C64.0635 6.76061 64.7035 6.58461 65.3969 6.58461C65.9835 6.58461 66.5009 6.70194 66.9489 6.93661C67.3969 7.16061 67.7489 7.46994 68.0049 7.86461H68.1009V6.84061H69.7489V14.5686C69.7489 15.4539 69.5729 16.2059 69.2209 16.8246C68.8795 17.4433 68.4049 17.9126 67.7969 18.2326C67.1889 18.5526 66.4849 18.7126 65.6849 18.7126ZM65.7009 13.5126C66.1275 13.5126 66.5222 13.4113 66.8849 13.2086C67.2582 12.9953 67.5515 12.6913 67.7649 12.2966C67.9889 11.8913 68.1009 11.4059 68.1009 10.8406C68.1009 10.2433 67.9889 9.74728 67.7649 9.35261C67.5515 8.95794 67.2582 8.65928 66.8849 8.45661C66.5222 8.25394 66.1275 8.15261 65.7009 8.15261C65.2742 8.15261 64.8742 8.25394 64.5009 8.45661C64.1382 8.65928 63.8449 8.96328 63.6209 9.36861C63.3969 9.76328 63.2849 10.2539 63.2849 10.8406C63.2849 11.4166 63.3969 11.9073 63.6209 12.3126C63.8449 12.7073 64.1382 13.0059 64.5009 13.2086C64.8742 13.4113 65.2742 13.5126 65.7009 13.5126ZM74.4024 15.2566C73.8157 15.2566 73.293 15.1393 72.8344 14.9046C72.3864 14.6699 72.029 14.3499 71.7624 13.9446C71.5064 13.5286 71.3784 13.0539 71.3784 12.5206C71.3784 11.9339 71.5277 11.4379 71.8264 11.0326C72.1357 10.6273 72.5464 10.3179 73.0584 10.1046C73.5704 9.89128 74.1357 9.78461 74.7544 9.78461C75.0957 9.78461 75.4104 9.81128 75.6984 9.86461C75.997 9.90728 76.253 9.96061 76.4664 10.0246C76.6904 10.0886 76.8664 10.1579 76.9944 10.2326V9.80061C76.9944 9.26728 76.8024 8.84061 76.4184 8.52061C76.0344 8.20061 75.5384 8.04061 74.9304 8.04061C74.5144 8.04061 74.1197 8.13661 73.7464 8.32861C73.373 8.50994 73.0744 8.76061 72.8504 9.08061L71.6664 8.16861C71.901 7.83794 72.1837 7.55528 72.5144 7.32061C72.8557 7.08594 73.2344 6.90461 73.6504 6.77661C74.077 6.64861 74.5197 6.58461 74.9784 6.58461C76.1624 6.58461 77.0744 6.87794 77.7144 7.46461C78.3544 8.04061 78.6744 8.85128 78.6744 9.89661V15.0006H76.9944V13.9926H76.8984C76.7597 14.2059 76.5677 14.4086 76.3224 14.6006C76.0877 14.7926 75.805 14.9473 75.4744 15.0646C75.1544 15.1926 74.797 15.2566 74.4024 15.2566ZM74.7064 13.8486C75.1544 13.8486 75.549 13.7419 75.8904 13.5286C76.2424 13.3153 76.5144 13.0379 76.7064 12.6966C76.8984 12.3446 76.9944 11.9659 76.9944 11.5606C76.7597 11.4219 76.4717 11.3099 76.1304 11.2246C75.7997 11.1286 75.4477 11.0806 75.0744 11.0806C74.3704 11.0806 73.869 11.2193 73.5704 11.4966C73.2717 11.7739 73.1224 12.1206 73.1224 12.5366C73.1224 12.9206 73.2664 13.2353 73.5544 13.4806C73.8424 13.7259 74.2264 13.8486 74.7064 13.8486ZM80.7268 15.0006V6.84061H82.3588V7.96061H82.4548C82.6894 7.56594 83.0361 7.24061 83.4948 6.98461C83.9641 6.71794 84.4761 6.58461 85.0308 6.58461C86.0334 6.58461 86.7854 6.88328 87.2868 7.48061C87.7881 8.06728 88.0388 8.85661 88.0388 9.84861V15.0006H86.3268V10.0726C86.3268 9.41128 86.1614 8.93128 85.8308 8.63261C85.5001 8.32328 85.0681 8.16861 84.5348 8.16861C84.1188 8.16861 83.7561 8.28594 83.4468 8.52061C83.1374 8.74461 82.8921 9.04328 82.7108 9.41661C82.5401 9.78994 82.4548 10.1899 82.4548 10.6166V15.0006H80.7268Z" fill="white"/>
<g id="GPay (Dark)">
<g id="GPay">
<g id="Pay">
<path id="Fill 1" fill-rule="evenodd" clip-rule="evenodd" d="M117.356 3.42339V8.16175H120.278C120.974 8.16175 121.55 7.92781 122.005 7.45993C122.473 6.99313 122.707 6.43644 122.707 5.79203C122.707 5.16061 122.473 4.61041 122.005 4.14254C121.55 3.66274 120.974 3.4223 120.278 3.4223H117.356V3.42339ZM117.356 9.82966V15.3262H115.611V1.75549H120.24C121.417 1.75549 122.415 2.14756 123.238 2.93061C124.073 3.71365 124.491 4.66782 124.491 5.79203C124.491 6.94224 124.073 7.90291 123.238 8.67296C122.428 9.44409 121.429 9.82858 120.24 9.82858H117.356V9.82966Z" fill="white"/>
<path id="Fill 3" fill-rule="evenodd" clip-rule="evenodd" d="M126.255 12.4831C126.255 12.9379 126.448 13.317 126.834 13.6203C127.22 13.9235 127.672 14.0752 128.19 14.0752C128.924 14.0752 129.578 13.8032 130.153 13.2607C130.729 12.717 131.017 12.0791 131.017 11.3469C130.472 10.917 129.713 10.7025 128.74 10.7025C128.031 10.7025 127.44 10.8736 126.966 11.2148C126.492 11.5559 126.255 11.9773 126.255 12.4831M128.513 5.73566C129.803 5.73566 130.821 6.08007 131.569 6.76889C132.314 7.45771 132.687 8.40213 132.687 9.60216V15.3261H131.018V14.0373H130.942C130.221 15.0985 129.259 15.6294 128.058 15.6294C127.033 15.6294 126.176 15.3261 125.487 14.7196C124.797 14.1131 124.453 13.3549 124.453 12.4452C124.453 11.4845 124.816 10.7208 125.543 10.1523C126.271 9.58375 127.241 9.2989 128.456 9.2989C129.492 9.2989 130.346 9.48844 131.017 9.86751V9.46894C131.017 8.86243 130.776 8.34798 130.296 7.92451C129.814 7.50103 129.252 7.28984 128.607 7.28984C127.633 7.28984 126.862 7.70032 126.293 8.52235L124.755 7.55519C125.603 6.34217 126.855 5.73566 128.513 5.73566" fill="white"/>
<path id="Fill 5" fill-rule="evenodd" clip-rule="evenodd" d="M142.269 6.03894L136.443 19.4201H134.641L136.804 14.738L132.971 6.03894H134.869L137.639 12.7106H137.677L140.371 6.03894H142.269Z" fill="white"/>
</g>
<g id="G">
<path id="Fill 8" fill-rule="evenodd" clip-rule="evenodd" d="M110.303 8.64473C110.303 8.09563 110.256 7.56601 110.168 7.05914H102.806V10.0625H107.023C106.842 11.0414 106.294 11.8744 105.464 12.4322V14.3828H107.98C109.454 13.0246 110.303 11.0177 110.303 8.64473" fill="#4285F4"/>
<path id="Fill 10" fill-rule="evenodd" clip-rule="evenodd" d="M102.806 16.2651C104.913 16.2651 106.687 15.5741 107.98 14.3828L105.464 12.4322C104.763 12.9033 103.861 13.1784 102.806 13.1784C100.77 13.1784 99.042 11.8073 98.424 9.95959H95.8316V11.9687C97.1164 14.516 99.7565 16.2651 102.806 16.2651" fill="#34A853"/>
<path id="Fill 12" fill-rule="evenodd" clip-rule="evenodd" d="M98.424 9.9596C98.2657 9.48847 98.179 8.98593 98.179 8.46715C98.179 7.94837 98.2657 7.44583 98.424 6.9747V4.96564H95.8316C95.3003 6.01837 95 7.20756 95 8.46715C95 9.72674 95.3003 10.916 95.8316 11.9687L98.424 9.9596Z" fill="#FABB05"/>
<path id="Fill 14" fill-rule="evenodd" clip-rule="evenodd" d="M102.806 3.75583C103.957 3.75583 104.988 4.15115 105.801 4.92553V4.92661L108.029 2.70094C106.676 1.44243 104.912 0.669128 102.806 0.669128C99.7565 0.669128 97.1164 2.41826 95.8316 4.9656L98.424 6.97467C99.042 5.12698 100.77 3.75583 102.806 3.75583" fill="#E94235"/>
</g>
</g>
</g>
</g>
</svg>
