<svg width="330" height="38" viewBox="0 0 330 38" fill="none" xmlns="http://www.w3.org/2000/svg">
<g id="id_checkout_with_Dark">
<path id="Text" d="M11.7384 30.448C10.2637 30.448 8.89171 30.1867 7.62238 29.664C6.35305 29.1227 5.24238 28.376 4.29038 27.424C3.35704 26.472 2.61971 25.3613 2.07838 24.092C1.55571 22.8227 1.29438 21.4507 1.29438 19.976C1.29438 18.5013 1.55571 17.1293 2.07838 15.86C2.61971 14.5907 3.35704 13.48 4.29038 12.528C5.24238 11.576 6.35305 10.8387 7.62238 10.316C8.89171 9.77467 10.2637 9.504 11.7384 9.504C13.3064 9.504 14.7064 9.79333 15.9384 10.372C17.1704 10.932 18.2437 11.7347 19.1584 12.78L17.0024 14.88C16.3304 14.0773 15.565 13.4707 14.7064 13.06C13.8664 12.6307 12.8864 12.416 11.7664 12.416C10.4224 12.416 9.19038 12.7333 8.07038 13.368C6.95038 13.984 6.05438 14.8613 5.38238 16C4.72904 17.12 4.40238 18.4453 4.40238 19.976C4.40238 21.5067 4.72904 22.8413 5.38238 23.98C6.05438 25.1 6.95038 25.9773 8.07038 26.612C9.19038 27.228 10.4224 27.536 11.7664 27.536C12.9797 27.536 14.053 27.284 14.9864 26.78C15.9384 26.276 16.7784 25.5853 17.5064 24.708L19.7184 26.836C18.785 27.9373 17.637 28.8147 16.2744 29.468C14.9304 30.1213 13.4184 30.448 11.7384 30.448ZM22.6882 30V9.952H25.7122V15.44L25.5442 17.68H25.7122C26.1042 16.9893 26.7016 16.42 27.5042 15.972C28.3256 15.5053 29.2309 15.272 30.2202 15.272C31.9936 15.272 33.3282 15.804 34.2242 16.868C35.1202 17.9133 35.5682 19.2853 35.5682 20.984V30H32.5722V21.376C32.5722 20.2187 32.2642 19.3787 31.6482 18.856C31.0509 18.3147 30.3136 18.044 29.4362 18.044C28.7082 18.044 28.0642 18.2493 27.5042 18.66C26.9442 19.0707 26.5056 19.612 26.1882 20.284C25.8709 20.9373 25.7122 21.6373 25.7122 22.384V30H22.6882ZM45.8364 30.448C44.4364 30.448 43.1858 30.1213 42.0844 29.468C40.9831 28.8147 40.1151 27.9187 39.4804 26.78C38.8644 25.6413 38.5564 24.344 38.5564 22.888C38.5564 21.5253 38.8551 20.2653 39.4524 19.108C40.0498 17.9507 40.8804 17.0267 41.9444 16.336C43.0271 15.6267 44.2684 15.272 45.6684 15.272C47.1431 15.272 48.3938 15.5893 49.4204 16.224C50.4658 16.8587 51.2591 17.7267 51.8004 18.828C52.3418 19.9293 52.6124 21.1707 52.6124 22.552C52.6124 22.7573 52.6031 22.944 52.5844 23.112C52.5844 23.28 52.5751 23.4107 52.5564 23.504H41.5244C41.6738 24.9227 42.1684 25.9867 43.0084 26.696C43.8671 27.4053 44.8378 27.76 45.9204 27.76C46.8911 27.76 47.6938 27.5453 48.3284 27.116C48.9631 26.668 49.4671 26.1173 49.8404 25.464L52.3324 26.668C51.7164 27.788 50.8764 28.7027 49.8124 29.412C48.7484 30.1027 47.4231 30.448 45.8364 30.448ZM45.6964 17.848C44.6884 17.848 43.8298 18.156 43.1204 18.772C42.4111 19.388 41.9351 20.2093 41.6924 21.236H49.6164C49.5791 20.7507 49.4204 20.2467 49.1404 19.724C48.8604 19.2013 48.4311 18.7627 47.8524 18.408C47.2924 18.0347 46.5738 17.848 45.6964 17.848ZM62.4626 30.448C61.0253 30.448 59.756 30.1213 58.6546 29.468C57.5533 28.8147 56.6853 27.9187 56.0506 26.78C55.416 25.6227 55.0986 24.316 55.0986 22.86C55.0986 21.404 55.416 20.1067 56.0506 18.968C56.6853 17.8107 57.5533 16.9053 58.6546 16.252C59.756 15.5987 61.0253 15.272 62.4626 15.272C64.0493 15.272 65.384 15.6267 66.4666 16.336C67.568 17.0453 68.352 18.0067 68.8186 19.22L66.0746 20.34C65.4213 18.8093 64.1986 18.044 62.4066 18.044C61.6226 18.044 60.904 18.2493 60.2506 18.66C59.5973 19.052 59.0746 19.612 58.6826 20.34C58.2906 21.0493 58.0946 21.8893 58.0946 22.86C58.0946 23.8307 58.2906 24.68 58.6826 25.408C59.0746 26.136 59.5973 26.696 60.2506 27.088C60.904 27.48 61.6226 27.676 62.4066 27.676C63.3213 27.676 64.096 27.4707 64.7306 27.06C65.3653 26.6307 65.86 26.052 66.2146 25.324L68.9026 26.5C68.3986 27.6387 67.596 28.5813 66.4946 29.328C65.3933 30.0747 64.0493 30.448 62.4626 30.448ZM71.7953 30V9.952H74.8193V21.768L80.8673 15.72H84.6193V15.888L79.1033 21.348L84.8152 29.832V30H81.2313L76.9753 23.448L74.8193 25.576V30H71.7953ZM93.3074 30.448C91.8328 30.448 90.5354 30.112 89.4154 29.44C88.2954 28.768 87.4181 27.8627 86.7834 26.724C86.1488 25.5853 85.8314 24.2973 85.8314 22.86C85.8314 21.4413 86.1488 20.1627 86.7834 19.024C87.4181 17.8667 88.2954 16.952 89.4154 16.28C90.5354 15.608 91.8328 15.272 93.3074 15.272C94.7634 15.272 96.0514 15.608 97.1714 16.28C98.2914 16.952 99.1688 17.8667 99.8034 19.024C100.438 20.1627 100.755 21.4413 100.755 22.86C100.755 24.2973 100.438 25.5853 99.8034 26.724C99.1688 27.8627 98.2914 28.768 97.1714 29.44C96.0514 30.112 94.7634 30.448 93.3074 30.448ZM93.3074 27.676C94.0914 27.676 94.8194 27.4893 95.4914 27.116C96.1634 26.724 96.7048 26.1733 97.1154 25.464C97.5448 24.736 97.7594 23.868 97.7594 22.86C97.7594 21.852 97.5448 20.9933 97.1154 20.284C96.7048 19.556 96.1634 19.0053 95.4914 18.632C94.8194 18.24 94.0914 18.044 93.3074 18.044C92.5234 18.044 91.7861 18.24 91.0954 18.632C90.4234 19.0053 89.8728 19.556 89.4434 20.284C89.0328 20.9933 88.8274 21.852 88.8274 22.86C88.8274 23.868 89.0328 24.736 89.4434 25.464C89.8728 26.1733 90.4234 26.724 91.0954 27.116C91.7861 27.4893 92.5234 27.676 93.3074 27.676ZM108.884 30.448C107.129 30.448 105.804 29.9253 104.908 28.88C104.031 27.816 103.592 26.3787 103.592 24.568V15.72H106.616V24.148C106.616 25.3613 106.896 26.2573 107.456 26.836C108.035 27.396 108.753 27.676 109.612 27.676C110.377 27.676 111.04 27.48 111.6 27.088C112.179 26.6773 112.617 26.1547 112.916 25.52C113.233 24.8667 113.392 24.1573 113.392 23.392V15.72H116.388V30H113.56V28.068H113.392C112.981 28.74 112.365 29.3093 111.544 29.776C110.741 30.224 109.855 30.448 108.884 30.448ZM121.895 25.856V18.352H119.403V15.72H121.895V11.688H124.919V15.72H128.419V18.352H124.919V25.212C124.919 25.9213 125.059 26.4627 125.339 26.836C125.637 27.2093 126.132 27.396 126.823 27.396C127.177 27.396 127.476 27.3493 127.719 27.256C127.98 27.1627 128.241 27.032 128.503 26.864V29.804C128.185 29.9347 127.849 30.0373 127.495 30.112C127.14 30.1867 126.72 30.224 126.235 30.224C124.909 30.224 123.855 29.8413 123.071 29.076C122.287 28.292 121.895 27.2187 121.895 25.856ZM144.559 30.448C143.271 30.448 142.105 30.1307 141.059 29.496C140.033 28.8427 139.211 27.9467 138.595 26.808C137.998 25.6507 137.699 24.3347 137.699 22.86C137.699 21.3853 137.998 20.0787 138.595 18.94C139.211 17.8013 140.033 16.9053 141.059 16.252C142.105 15.5987 143.271 15.272 144.559 15.272C145.661 15.272 146.603 15.5147 147.387 16C148.19 16.4853 148.778 17.036 149.151 17.652H149.319L149.151 15.664V9.952H152.147V30H149.319V28.096H149.151C148.778 28.712 148.19 29.2627 147.387 29.748C146.603 30.2147 145.661 30.448 144.559 30.448ZM145.007 27.676C145.754 27.676 146.454 27.48 147.107 27.088C147.779 26.696 148.311 26.1453 148.703 25.436C149.114 24.708 149.319 23.8493 149.319 22.86C149.319 21.8707 149.114 21.0213 148.703 20.312C148.311 19.584 147.779 19.024 147.107 18.632C146.454 18.24 145.754 18.044 145.007 18.044C144.261 18.044 143.561 18.24 142.907 18.632C142.254 19.024 141.722 19.584 141.311 20.312C140.901 21.0213 140.695 21.8707 140.695 22.86C140.695 23.8493 140.901 24.708 141.311 25.436C141.722 26.1453 142.254 26.696 142.907 27.088C143.561 27.48 144.261 27.676 145.007 27.676ZM162.397 30.448C160.997 30.448 159.746 30.1213 158.645 29.468C157.543 28.8147 156.675 27.9187 156.041 26.78C155.425 25.6413 155.117 24.344 155.117 22.888C155.117 21.5253 155.415 20.2653 156.013 19.108C156.61 17.9507 157.441 17.0267 158.505 16.336C159.587 15.6267 160.829 15.272 162.229 15.272C163.703 15.272 164.954 15.5893 165.981 16.224C167.026 16.8587 167.819 17.7267 168.361 18.828C168.902 19.9293 169.173 21.1707 169.173 22.552C169.173 22.7573 169.163 22.944 169.145 23.112C169.145 23.28 169.135 23.4107 169.117 23.504H158.085C158.234 24.9227 158.729 25.9867 159.569 26.696C160.427 27.4053 161.398 27.76 162.481 27.76C163.451 27.76 164.254 27.5453 164.889 27.116C165.523 26.668 166.027 26.1173 166.401 25.464L168.893 26.668C168.277 27.788 167.437 28.7027 166.373 29.412C165.309 30.1027 163.983 30.448 162.397 30.448ZM162.257 17.848C161.249 17.848 160.39 18.156 159.681 18.772C158.971 19.388 158.495 20.2093 158.253 21.236H166.177C166.139 20.7507 165.981 20.2467 165.701 19.724C165.421 19.2013 164.991 18.7627 164.413 18.408C163.853 18.0347 163.134 17.848 162.257 17.848ZM172.278 30V15.72H175.134V17.68H175.302C175.713 16.9893 176.319 16.42 177.122 15.972C177.943 15.5053 178.839 15.272 179.81 15.272C181.565 15.272 182.881 15.7947 183.758 16.84C184.635 17.8853 185.074 19.2667 185.074 20.984V30H182.078V21.376C182.078 20.2187 181.789 19.3787 181.21 18.856C180.631 18.3147 179.875 18.044 178.942 18.044C178.214 18.044 177.579 18.2493 177.038 18.66C176.497 19.052 176.067 19.5747 175.75 20.228C175.451 20.8813 175.302 21.5813 175.302 22.328V30H172.278ZM195.124 36.496C193.873 36.496 192.79 36.2907 191.876 35.88C190.98 35.488 190.252 34.9747 189.692 34.34C189.132 33.724 188.73 33.0893 188.488 32.436L191.288 31.26C191.586 32.0067 192.062 32.6133 192.716 33.08C193.388 33.5653 194.19 33.808 195.124 33.808C196.43 33.808 197.457 33.416 198.204 32.632C198.969 31.848 199.352 30.7373 199.352 29.3V27.928H199.184C198.736 28.6 198.11 29.1413 197.308 29.552C196.524 29.944 195.628 30.14 194.62 30.14C193.406 30.14 192.296 29.832 191.288 29.216C190.28 28.6 189.468 27.7413 188.852 26.64C188.236 25.52 187.928 24.2133 187.928 22.72C187.928 21.208 188.236 19.9013 188.852 18.8C189.468 17.68 190.28 16.812 191.288 16.196C192.296 15.58 193.406 15.272 194.62 15.272C195.628 15.272 196.524 15.4773 197.308 15.888C198.11 16.2987 198.736 16.84 199.184 17.512H199.352V15.72H202.236V29.244C202.236 30.7933 201.928 32.1093 201.312 33.192C200.714 34.2747 199.884 35.096 198.82 35.656C197.756 36.216 196.524 36.496 195.124 36.496ZM195.152 27.396C195.898 27.396 196.589 27.2187 197.224 26.864C197.858 26.4907 198.372 25.9587 198.764 25.268C199.156 24.5587 199.352 23.7093 199.352 22.72C199.352 21.6933 199.156 20.8347 198.764 20.144C198.372 19.4347 197.858 18.9027 197.224 18.548C196.589 18.1933 195.898 18.016 195.152 18.016C194.405 18.016 193.705 18.2027 193.052 18.576C192.417 18.9307 191.904 19.4533 191.512 20.144C191.12 20.8347 190.924 21.6933 190.924 22.72C190.924 23.728 191.12 24.5867 191.512 25.296C191.904 25.9867 192.417 26.5093 193.052 26.864C193.705 27.2187 194.405 27.396 195.152 27.396ZM210.417 30.448C209.39 30.448 208.475 30.252 207.673 29.86C206.87 29.4493 206.245 28.88 205.797 28.152C205.349 27.424 205.125 26.5933 205.125 25.66C205.125 24.652 205.386 23.7933 205.909 23.084C206.45 22.356 207.169 21.8053 208.065 21.432C208.961 21.0587 209.95 20.872 211.033 20.872C211.929 20.872 212.713 20.956 213.385 21.124C214.075 21.292 214.598 21.4693 214.953 21.656V20.9C214.953 19.9667 214.617 19.22 213.945 18.66C213.273 18.1 212.405 17.82 211.341 17.82C210.613 17.82 209.922 17.988 209.269 18.324C208.615 18.6413 208.093 19.08 207.701 19.64L205.629 18.044C206.245 17.1853 207.057 16.5133 208.065 16.028C209.091 15.524 210.211 15.272 211.425 15.272C213.497 15.272 215.093 15.7853 216.213 16.812C217.333 17.82 217.893 19.2387 217.893 21.068V30H214.953V28.236H214.785C214.411 28.8147 213.851 29.328 213.105 29.776C212.358 30.224 211.462 30.448 210.417 30.448ZM210.949 27.984C211.733 27.984 212.423 27.7973 213.021 27.424C213.618 27.0507 214.085 26.5653 214.421 25.968C214.775 25.352 214.953 24.6893 214.953 23.98C214.523 23.7373 214.019 23.5413 213.441 23.392C212.862 23.224 212.246 23.14 211.593 23.14C210.361 23.14 209.483 23.392 208.961 23.896C208.438 24.3813 208.177 24.9787 208.177 25.688C208.177 26.36 208.429 26.9107 208.933 27.34C209.437 27.7693 210.109 27.984 210.949 27.984ZM221.522 30V15.72H224.378V17.68H224.546C224.956 16.9893 225.563 16.42 226.366 15.972C227.187 15.5053 228.083 15.272 229.054 15.272C230.808 15.272 232.124 15.7947 233.002 16.84C233.879 17.8853 234.318 19.2667 234.318 20.984V30H231.322V21.376C231.322 20.2187 231.032 19.3787 230.454 18.856C229.875 18.3147 229.119 18.044 228.186 18.044C227.458 18.044 226.823 18.2493 226.282 18.66C225.74 19.052 225.311 19.5747 224.994 20.228C224.695 20.8813 224.546 21.5813 224.546 22.328V30H221.522Z" fill="white"/>
<g id="GPay Logo (Dark)">
<g id="GPay">
<g id="Pay">
<path id="Fill 1" fill-rule="evenodd" clip-rule="evenodd" d="M286.529 9.34665V17.5128H291.565C292.765 17.5128 293.757 17.1096 294.541 16.3032C295.347 15.4988 295.75 14.5394 295.75 13.4288C295.75 12.3406 295.347 11.3924 294.541 10.586C293.757 9.75916 292.765 9.34479 291.565 9.34479H286.529V9.34665ZM286.529 20.3872V29.8599H283.521V6.47218H291.499C293.527 6.47218 295.248 7.14787 296.666 8.49738C298.105 9.84688 298.824 11.4913 298.824 13.4288C298.824 15.411 298.105 17.0667 296.666 18.3938C295.27 19.7227 293.547 20.3854 291.499 20.3854H286.529V20.3872Z" fill="white"/>
<path id="Fill 3" fill-rule="evenodd" clip-rule="evenodd" d="M301.864 24.9602C301.864 25.7442 302.197 26.3975 302.862 26.9201C303.527 27.4427 304.306 27.704 305.2 27.704C306.465 27.704 307.591 27.2354 308.584 26.3004C309.576 25.3634 310.071 24.264 310.071 23.0022C309.133 22.2612 307.825 21.8916 306.147 21.8916C304.925 21.8916 303.907 22.1866 303.09 22.7745C302.273 23.3623 301.864 24.0886 301.864 24.9602ZM305.756 13.3317C307.98 13.3317 309.735 13.9253 311.022 15.1124C312.308 16.2995 312.95 17.9271 312.95 19.9952V29.8599H310.073V27.6387H309.942C308.699 29.4677 307.042 30.3825 304.972 30.3825C303.206 30.3825 301.728 29.8599 300.541 28.8146C299.353 27.7694 298.759 26.4628 298.759 24.8949C298.759 23.2393 299.385 21.9232 300.638 20.9434C301.892 19.9635 303.565 19.4726 305.658 19.4726C307.444 19.4726 308.916 19.7993 310.071 20.4525V19.7657C310.071 18.7204 309.656 17.8338 308.829 17.104C307.999 16.3742 307.031 16.0102 305.919 16.0102C304.239 16.0102 302.911 16.7176 301.93 18.1343L299.28 16.4675C300.741 14.377 302.899 13.3317 305.756 13.3317Z" fill="white"/>
<path id="Fill 5" fill-rule="evenodd" clip-rule="evenodd" d="M329.463 13.8543L319.424 36.9154H316.318L320.046 28.8464L313.44 13.8543H316.71L321.484 25.3522H321.55L326.193 13.8543H329.463Z" fill="white"/>
</g>
<g id="G">
<path id="Fill 8" fill-rule="evenodd" clip-rule="evenodd" d="M274.373 18.3452C274.373 17.3989 274.293 16.4861 274.141 15.6126H261.454V20.7885H268.72C268.408 22.4757 267.465 23.9112 266.033 24.8725V28.2341H270.37C272.91 25.8935 274.373 22.4348 274.373 18.3452Z" fill="#4285F4"/>
<path id="Fill 10" fill-rule="evenodd" clip-rule="evenodd" d="M261.454 31.4782C265.084 31.4782 268.141 30.2873 270.37 28.2341L266.033 24.8725C264.826 25.6844 263.272 26.1585 261.454 26.1585C257.944 26.1585 254.966 23.7955 253.901 20.6112H249.433V24.0736C251.647 28.4637 256.197 31.4782 261.454 31.4782Z" fill="#34A853"/>
<path id="Fill 12" fill-rule="evenodd" clip-rule="evenodd" d="M253.901 20.6111C253.628 19.7992 253.479 18.9331 253.479 18.0391C253.479 17.145 253.628 16.2789 253.901 15.467V12.0045H249.433C248.518 13.8188 248 15.8683 248 18.0391C248 20.2098 248.518 22.2595 249.433 24.0736L253.901 20.6111Z" fill="#FABB05"/>
<path id="Fill 14" fill-rule="evenodd" clip-rule="evenodd" d="M261.454 9.91964C263.436 9.91964 265.213 10.6009 266.615 11.9355V11.9374L270.455 8.10163C268.123 5.93272 265.082 4.60001 261.454 4.60001C256.197 4.60001 251.647 7.61447 249.433 12.0046L253.901 15.467C254.966 12.2827 257.944 9.91964 261.454 9.91964Z" fill="#E94235"/>
</g>
</g>
</g>
</g>
</svg>
