<svg width="189" height="21" viewBox="0 0 189 21" fill="none" xmlns="http://www.w3.org/2000/svg">
<g id="id_checkout_with_Pay_NBG">
<path id="Left Text" d="M7.15049 15.2566C6.30783 15.2566 5.52383 15.1073 4.79849 14.8086C4.07316 14.4993 3.43849 14.0779 2.89449 13.5446C2.36116 13.0006 1.93983 12.3659 1.63049 11.6406C1.33183 10.9046 1.18249 10.1153 1.18249 9.27261C1.18249 8.41928 1.33183 7.62994 1.63049 6.90461C1.93983 6.17928 2.36116 5.54994 2.89449 5.01661C3.43849 4.47261 4.07316 4.05128 4.79849 3.75261C5.52383 3.44328 6.30783 3.28861 7.15049 3.28861C7.74783 3.28861 8.30249 3.36328 8.81449 3.51261C9.32649 3.66194 9.79583 3.87528 10.2225 4.15261C10.6492 4.42994 11.0385 4.76594 11.3905 5.16061L10.1585 6.36061C9.90249 6.05128 9.62516 5.79528 9.32649 5.59261C9.02783 5.37928 8.69716 5.21928 8.33449 5.11261C7.98249 5.00594 7.59316 4.95261 7.16649 4.95261C6.39849 4.95261 5.69449 5.13394 5.05449 5.49661C4.41449 5.84861 3.90249 6.34461 3.51849 6.98461C3.14516 7.62461 2.95849 8.38728 2.95849 9.27261C2.95849 10.1473 3.14516 10.9099 3.51849 11.5606C3.90249 12.2006 4.41449 12.7019 5.05449 13.0646C5.69449 13.4166 6.39849 13.5926 7.16649 13.5926C7.63583 13.5926 8.06249 13.5286 8.44649 13.4006C8.84116 13.2726 9.20383 13.0859 9.53449 12.8406C9.86516 12.5953 10.1692 12.3073 10.4465 11.9766L11.7105 13.1926C11.3585 13.6086 10.9478 13.9713 10.4785 14.2806C10.0092 14.5899 9.49716 14.8299 8.94249 15.0006C8.38783 15.1713 7.79049 15.2566 7.15049 15.2566ZM13.3861 15.0006V3.54461H15.1141V6.68061L15.0181 7.96061H15.1141C15.3381 7.56594 15.6795 7.24061 16.1381 6.98461C16.6075 6.71794 17.1248 6.58461 17.6901 6.58461C18.3728 6.58461 18.9381 6.72328 19.3861 7.00061C19.8448 7.27794 20.1861 7.66194 20.4101 8.15261C20.6341 8.63261 20.7461 9.19794 20.7461 9.84861V15.0006H19.0341V10.0726C19.0341 9.63528 18.9488 9.27794 18.7781 9.00061C18.6181 8.72328 18.4048 8.51528 18.1381 8.37661C17.8715 8.23794 17.5728 8.16861 17.2421 8.16861C16.8261 8.16861 16.4581 8.28594 16.1381 8.52061C15.8181 8.75528 15.5675 9.06461 15.3861 9.44861C15.2048 9.82194 15.1141 10.2219 15.1141 10.6486V15.0006H13.3861ZM26.5922 15.2566C25.7922 15.2566 25.0776 15.0699 24.4482 14.6966C23.8189 14.3233 23.3229 13.8113 22.9602 13.1606C22.6082 12.5099 22.4322 11.7686 22.4322 10.9366C22.4322 10.1579 22.6029 9.43794 22.9442 8.77661C23.2856 8.11528 23.7602 7.58728 24.3682 7.19261C24.9869 6.78728 25.6962 6.58461 26.4962 6.58461C27.3389 6.58461 28.0536 6.76594 28.6402 7.12861C29.2376 7.49128 29.6909 7.98728 30.0002 8.61661C30.3096 9.24594 30.4642 9.95528 30.4642 10.7446C30.4642 10.8619 30.4589 10.9686 30.4482 11.0646C30.4482 11.1606 30.4429 11.2353 30.4322 11.2886H24.1282C24.1709 11.7366 24.2829 12.1259 24.4642 12.4566C24.6989 12.8726 25.0082 13.1873 25.3922 13.4006C25.7762 13.6139 26.1922 13.7206 26.6402 13.7206C27.1842 13.7206 27.6376 13.5979 28.0002 13.3526C28.3736 13.0966 28.6669 12.7819 28.8802 12.4086L30.3042 13.0966C29.9522 13.7366 29.4722 14.2593 28.8642 14.6646C28.2562 15.0593 27.4989 15.2566 26.5922 15.2566ZM24.2242 9.99261H28.7522C28.7416 9.78994 28.6882 9.57661 28.5922 9.35261C28.4962 9.11794 28.3576 8.90461 28.1762 8.71261C27.9949 8.52061 27.7656 8.36594 27.4882 8.24861C27.2109 8.12061 26.8856 8.05661 26.5122 8.05661C26.0429 8.05661 25.6269 8.17928 25.2642 8.42461C24.9016 8.65928 24.6189 8.98994 24.4162 9.41661C24.3309 9.59794 24.2669 9.78994 24.2242 9.99261ZM36.0715 15.2566C35.2502 15.2566 34.5195 15.0699 33.8795 14.6966C33.2502 14.3233 32.7542 13.8113 32.3915 13.1606C32.0395 12.4993 31.8635 11.7526 31.8635 10.9206C31.8635 10.0886 32.0395 9.34728 32.3915 8.69661C32.7542 8.04594 33.2502 7.53394 33.8795 7.16061C34.5195 6.77661 35.2502 6.58461 36.0715 6.58461C36.9782 6.58461 37.7408 6.78728 38.3595 7.19261C38.9888 7.59794 39.4368 8.14728 39.7035 8.84061L38.1355 9.48061C37.9435 9.04328 37.6662 8.71794 37.3035 8.50461C36.9515 8.28061 36.5302 8.16861 36.0395 8.16861C35.5915 8.16861 35.1808 8.28594 34.8075 8.52061C34.4342 8.74461 34.1355 9.05928 33.9115 9.46461C33.6875 9.86994 33.5755 10.3553 33.5755 10.9206C33.5755 11.4753 33.6875 11.9606 33.9115 12.3766C34.1355 12.7926 34.4342 13.1126 34.8075 13.3366C35.1808 13.5606 35.5915 13.6726 36.0395 13.6726C36.5622 13.6726 37.0048 13.5553 37.3675 13.3206C37.7302 13.0859 38.0128 12.7553 38.2155 12.3286L39.7515 13.0006C39.4528 13.6513 38.9888 14.1899 38.3595 14.6166C37.7408 15.0433 36.9782 15.2566 36.0715 15.2566ZM41.383 15.0006V3.54461H43.111V10.2966L46.567 6.84061H48.711V6.93661L45.559 10.0566L48.823 14.9046V15.0006H46.775L44.343 11.2566L43.111 12.4726V15.0006H41.383ZM53.6542 15.2566C52.8116 15.2566 52.0702 15.0646 51.4302 14.6806C50.7902 14.2966 50.2889 13.7793 49.9262 13.1286C49.5636 12.4673 49.3822 11.7313 49.3822 10.9206C49.3822 10.1099 49.5636 9.37928 49.9262 8.72861C50.2889 8.06728 50.7902 7.54461 51.4302 7.16061C52.0702 6.77661 52.8116 6.58461 53.6542 6.58461C54.4862 6.58461 55.2222 6.78194 55.8622 7.17661C56.5022 7.56061 57.0036 8.07794 57.3662 8.72861C57.7289 9.37928 57.9102 10.1099 57.9102 10.9206C57.9102 11.7313 57.7289 12.4673 57.3662 13.1286C57.0036 13.7793 56.5022 14.2966 55.8622 14.6806C55.2222 15.0646 54.4862 15.2566 53.6542 15.2566ZM53.6542 13.6726C54.1022 13.6726 54.5182 13.5659 54.9022 13.3526C55.2862 13.1286 55.5956 12.8139 55.8302 12.4086C56.0756 11.9926 56.1982 11.4966 56.1982 10.9206C56.1982 10.3446 56.0756 9.85394 55.8302 9.44861C55.5956 9.03261 55.2862 8.71794 54.9022 8.50461C54.5182 8.28061 54.1022 8.16861 53.6542 8.16861C53.2062 8.16861 52.7849 8.28061 52.3902 8.50461C52.0062 8.71794 51.6916 9.03261 51.4462 9.44861C51.2116 9.85394 51.0942 10.3446 51.0942 10.9206C51.0942 11.4966 51.2116 11.9926 51.4462 12.4086C51.6916 12.8139 52.0116 13.1286 52.4062 13.3526C52.8009 13.5659 53.2169 13.6726 53.6542 13.6726ZM62.5336 15.2566C61.531 15.2566 60.7736 14.9579 60.2616 14.3606C59.7603 13.7526 59.5096 12.9313 59.5096 11.8966V6.84061H61.2376V11.6566C61.2376 12.3393 61.3976 12.8459 61.7176 13.1766C62.0483 13.5073 62.459 13.6726 62.9496 13.6726C63.3976 13.6726 63.7816 13.5606 64.1016 13.3366C64.4216 13.1019 64.667 12.7979 64.8376 12.4246C65.019 12.0513 65.1096 11.6513 65.1096 11.2246V6.84061H66.8216V15.0006H65.2056V13.8966H65.1096C64.9603 14.1526 64.7523 14.3819 64.4856 14.5846C64.219 14.7873 63.9203 14.9473 63.5896 15.0646C63.259 15.1926 62.907 15.2566 62.5336 15.2566ZM68.523 6.84061H69.947V4.53661H71.675V6.84061H73.675V8.34461H71.675V12.2646C71.675 12.6699 71.755 12.9793 71.915 13.1926C72.0857 13.4059 72.3683 13.5126 72.763 13.5126C72.955 13.5126 73.1257 13.4859 73.275 13.4326C73.4243 13.3686 73.5737 13.2939 73.723 13.2086V14.8886C73.5417 14.9633 73.3497 15.0219 73.147 15.0646C72.9443 15.1073 72.7043 15.1286 72.427 15.1286C71.6697 15.1286 71.067 14.9099 70.619 14.4726C70.171 14.0246 69.947 13.4113 69.947 12.6326V8.34461H68.523V6.84061ZM82.8554 15.2566C82.1194 15.2566 81.4527 15.0699 80.8554 14.6966C80.258 14.3233 79.7887 13.8113 79.4474 13.1606C79.106 12.5099 78.9354 11.7633 78.9354 10.9206C78.9354 10.0779 79.106 9.33128 79.4474 8.68061C79.7887 8.02994 80.258 7.51794 80.8554 7.14461C81.4527 6.77128 82.1194 6.58461 82.8554 6.58461C83.282 6.58461 83.666 6.64861 84.0074 6.77661C84.3487 6.90461 84.642 7.07528 84.8874 7.28861C85.1434 7.49128 85.3407 7.70994 85.4794 7.94461H85.5754L85.4794 6.80861V3.54461H87.1914V15.0006H85.5754V13.9126H85.4794C85.3407 14.1366 85.1434 14.3553 84.8874 14.5686C84.642 14.7713 84.3487 14.9366 84.0074 15.0646C83.666 15.1926 83.282 15.2566 82.8554 15.2566ZM83.1114 13.6726C83.538 13.6726 83.938 13.5606 84.3114 13.3366C84.6954 13.1126 84.9994 12.7979 85.2234 12.3926C85.458 11.9766 85.5754 11.4859 85.5754 10.9206C85.5754 10.3553 85.458 9.86994 85.2234 9.46461C84.9994 9.04861 84.6954 8.72861 84.3114 8.50461C83.938 8.28061 83.538 8.16861 83.1114 8.16861C82.6847 8.16861 82.2847 8.28061 81.9114 8.50461C81.538 8.72861 81.234 9.04861 80.9994 9.46461C80.7647 9.86994 80.6474 10.3553 80.6474 10.9206C80.6474 11.4753 80.7647 11.9606 80.9994 12.3766C81.234 12.7926 81.538 13.1126 81.9114 13.3366C82.2847 13.5606 82.6847 13.6726 83.1114 13.6726ZM93.0266 15.2566C92.2266 15.2566 91.512 15.0699 90.8826 14.6966C90.2533 14.3233 89.7573 13.8113 89.3946 13.1606C89.0426 12.5099 88.8666 11.7686 88.8666 10.9366C88.8666 10.1579 89.0373 9.43794 89.3786 8.77661C89.72 8.11528 90.1946 7.58728 90.8026 7.19261C91.4213 6.78728 92.1306 6.58461 92.9306 6.58461C93.7733 6.58461 94.488 6.76594 95.0746 7.12861C95.672 7.49128 96.1253 7.98728 96.4346 8.61661C96.744 9.24594 96.8986 9.95528 96.8986 10.7446C96.8986 10.8619 96.8933 10.9686 96.8826 11.0646C96.8826 11.1606 96.8773 11.2353 96.8666 11.2886H90.5626C90.6053 11.7366 90.7173 12.1259 90.8986 12.4566C91.1333 12.8726 91.4426 13.1873 91.8266 13.4006C92.2106 13.6139 92.6266 13.7206 93.0746 13.7206C93.6186 13.7206 94.072 13.5979 94.4346 13.3526C94.808 13.0966 95.1013 12.7819 95.3146 12.4086L96.7386 13.0966C96.3866 13.7366 95.9066 14.2593 95.2986 14.6646C94.6906 15.0593 93.9333 15.2566 93.0266 15.2566ZM90.6586 9.99261H95.1866C95.176 9.78994 95.1226 9.57661 95.0266 9.35261C94.9306 9.11794 94.792 8.90461 94.6106 8.71261C94.4293 8.52061 94.2 8.36594 93.9226 8.24861C93.6453 8.12061 93.32 8.05661 92.9466 8.05661C92.4773 8.05661 92.0613 8.17928 91.6986 8.42461C91.336 8.65928 91.0533 8.98994 90.8506 9.41661C90.7653 9.59794 90.7013 9.78994 90.6586 9.99261ZM98.6517 15.0006V6.84061H100.284V7.96061H100.38C100.614 7.56594 100.961 7.24061 101.42 6.98461C101.889 6.71794 102.401 6.58461 102.956 6.58461C103.958 6.58461 104.71 6.88328 105.212 7.48061C105.713 8.06728 105.964 8.85661 105.964 9.84861V15.0006H104.252V10.0726C104.252 9.41128 104.086 8.93128 103.756 8.63261C103.425 8.32328 102.993 8.16861 102.46 8.16861C102.044 8.16861 101.681 8.28594 101.372 8.52061C101.062 8.74461 100.817 9.04328 100.636 9.41661C100.465 9.78994 100.38 10.1899 100.38 10.6166V15.0006H98.6517ZM111.685 18.7126C110.97 18.7126 110.352 18.5953 109.829 18.3606C109.317 18.1366 108.901 17.8433 108.581 17.4806C108.261 17.1286 108.032 16.7659 107.893 16.3926L109.493 15.7206C109.664 16.1473 109.936 16.4939 110.309 16.7606C110.693 17.0379 111.152 17.1766 111.685 17.1766C112.442 17.1766 113.034 16.9526 113.461 16.5046C113.888 16.0566 114.101 15.4219 114.101 14.6006V13.8166H114.005C113.749 14.1899 113.397 14.4939 112.949 14.7286C112.501 14.9633 111.984 15.0806 111.397 15.0806C110.704 15.0806 110.064 14.9046 109.477 14.5526C108.901 14.2006 108.437 13.7099 108.085 13.0806C107.744 12.4406 107.573 11.6939 107.573 10.8406C107.573 9.97661 107.744 9.22994 108.085 8.60061C108.437 7.96061 108.901 7.46461 109.477 7.11261C110.064 6.76061 110.704 6.58461 111.397 6.58461C111.984 6.58461 112.501 6.70194 112.949 6.93661C113.397 7.16061 113.749 7.46994 114.005 7.86461H114.101V6.84061H115.749V14.5686C115.749 15.4539 115.573 16.2059 115.221 16.8246C114.88 17.4433 114.405 17.9126 113.797 18.2326C113.189 18.5526 112.485 18.7126 111.685 18.7126ZM111.701 13.5126C112.128 13.5126 112.522 13.4113 112.885 13.2086C113.258 12.9953 113.552 12.6913 113.765 12.2966C113.989 11.8913 114.101 11.4059 114.101 10.8406C114.101 10.2433 113.989 9.74728 113.765 9.35261C113.552 8.95794 113.258 8.65928 112.885 8.45661C112.522 8.25394 112.128 8.15261 111.701 8.15261C111.274 8.15261 110.874 8.25394 110.501 8.45661C110.138 8.65928 109.845 8.96328 109.621 9.36861C109.397 9.76328 109.285 10.2539 109.285 10.8406C109.285 11.4166 109.397 11.9073 109.621 12.3126C109.845 12.7073 110.138 13.0059 110.501 13.2086C110.874 13.4113 111.274 13.5126 111.701 13.5126ZM120.402 15.2566C119.816 15.2566 119.293 15.1393 118.834 14.9046C118.386 14.6699 118.029 14.3499 117.762 13.9446C117.506 13.5286 117.378 13.0539 117.378 12.5206C117.378 11.9339 117.528 11.4379 117.826 11.0326C118.136 10.6273 118.546 10.3179 119.058 10.1046C119.57 9.89128 120.136 9.78461 120.754 9.78461C121.096 9.78461 121.41 9.81128 121.698 9.86461C121.997 9.90728 122.253 9.96061 122.466 10.0246C122.69 10.0886 122.866 10.1579 122.994 10.2326V9.80061C122.994 9.26728 122.802 8.84061 122.418 8.52061C122.034 8.20061 121.538 8.04061 120.93 8.04061C120.514 8.04061 120.12 8.13661 119.746 8.32861C119.373 8.50994 119.074 8.76061 118.85 9.08061L117.666 8.16861C117.901 7.83794 118.184 7.55528 118.514 7.32061C118.856 7.08594 119.234 6.90461 119.65 6.77661C120.077 6.64861 120.52 6.58461 120.978 6.58461C122.162 6.58461 123.074 6.87794 123.714 7.46461C124.354 8.04061 124.674 8.85128 124.674 9.89661V15.0006H122.994V13.9926H122.898C122.76 14.2059 122.568 14.4086 122.322 14.6006C122.088 14.7926 121.805 14.9473 121.474 15.0646C121.154 15.1926 120.797 15.2566 120.402 15.2566ZM120.706 13.8486C121.154 13.8486 121.549 13.7419 121.89 13.5286C122.242 13.3153 122.514 13.0379 122.706 12.6966C122.898 12.3446 122.994 11.9659 122.994 11.5606C122.76 11.4219 122.472 11.3099 122.13 11.2246C121.8 11.1286 121.448 11.0806 121.074 11.0806C120.37 11.0806 119.869 11.2193 119.57 11.4966C119.272 11.7739 119.122 12.1206 119.122 12.5366C119.122 12.9206 119.266 13.2353 119.554 13.4806C119.842 13.7259 120.226 13.8486 120.706 13.8486ZM126.727 15.0006V6.84061H128.359V7.96061H128.455C128.689 7.56594 129.036 7.24061 129.495 6.98461C129.964 6.71794 130.476 6.58461 131.031 6.58461C132.033 6.58461 132.785 6.88328 133.287 7.48061C133.788 8.06728 134.039 8.85661 134.039 9.84861V15.0006H132.327V10.0726C132.327 9.41128 132.161 8.93128 131.831 8.63261C131.5 8.32328 131.068 8.16861 130.535 8.16861C130.119 8.16861 129.756 8.28594 129.447 8.52061C129.137 8.74461 128.892 9.04328 128.711 9.41661C128.54 9.78994 128.455 10.1899 128.455 10.6166V15.0006H126.727Z" fill="white"/>
<g id="GPay (Dark)">
<g id="GPay">
<g id="Pay">
<path id="Fill 1" fill-rule="evenodd" clip-rule="evenodd" d="M163.356 3.42339V8.16175H166.278C166.974 8.16175 167.55 7.92781 168.005 7.45993C168.473 6.99313 168.707 6.43644 168.707 5.79203C168.707 5.16061 168.473 4.61041 168.005 4.14254C167.55 3.66274 166.974 3.4223 166.278 3.4223H163.356V3.42339ZM163.356 9.82966V15.3262H161.611V1.75549H166.24C167.417 1.75549 168.415 2.14756 169.238 2.93061C170.073 3.71365 170.491 4.66782 170.491 5.79203C170.491 6.94224 170.073 7.90291 169.238 8.67296C168.428 9.44409 167.429 9.82858 166.24 9.82858H163.356V9.82966Z" fill="white"/>
<path id="Fill 3" fill-rule="evenodd" clip-rule="evenodd" d="M172.255 12.4831C172.255 12.9379 172.448 13.317 172.834 13.6203C173.22 13.9235 173.672 14.0752 174.19 14.0752C174.924 14.0752 175.578 13.8032 176.153 13.2607C176.729 12.717 177.017 12.0791 177.017 11.3469C176.472 10.917 175.713 10.7025 174.74 10.7025C174.031 10.7025 173.44 10.8736 172.966 11.2148C172.492 11.5559 172.255 11.9773 172.255 12.4831M174.513 5.73566C175.803 5.73566 176.821 6.08007 177.569 6.76889C178.314 7.45771 178.687 8.40213 178.687 9.60216V15.3261H177.018V14.0373H176.942C176.221 15.0985 175.259 15.6294 174.058 15.6294C173.033 15.6294 172.176 15.3261 171.487 14.7196C170.797 14.1131 170.453 13.3549 170.453 12.4452C170.453 11.4845 170.816 10.7208 171.543 10.1523C172.271 9.58375 173.241 9.2989 174.456 9.2989C175.492 9.2989 176.346 9.48844 177.017 9.86751V9.46894C177.017 8.86243 176.776 8.34798 176.296 7.92451C175.814 7.50103 175.252 7.28984 174.607 7.28984C173.633 7.28984 172.862 7.70032 172.293 8.52235L170.755 7.55519C171.603 6.34217 172.855 5.73566 174.513 5.73566" fill="white"/>
<path id="Fill 5" fill-rule="evenodd" clip-rule="evenodd" d="M188.269 6.03894L182.443 19.4201H180.641L182.804 14.738L178.971 6.03894H180.869L183.639 12.7106H183.677L186.371 6.03894H188.269Z" fill="white"/>
</g>
<g id="G">
<path id="Fill 8" fill-rule="evenodd" clip-rule="evenodd" d="M156.303 8.64473C156.303 8.09563 156.256 7.56601 156.168 7.05914H148.806V10.0625H153.023C152.842 11.0414 152.294 11.8744 151.464 12.4322V14.3828H153.98C155.454 13.0246 156.303 11.0177 156.303 8.64473" fill="#4285F4"/>
<path id="Fill 10" fill-rule="evenodd" clip-rule="evenodd" d="M148.806 16.2651C150.913 16.2651 152.687 15.5741 153.98 14.3828L151.464 12.4322C150.763 12.9033 149.861 13.1784 148.806 13.1784C146.77 13.1784 145.042 11.8073 144.424 9.95959H141.832V11.9687C143.116 14.516 145.757 16.2651 148.806 16.2651" fill="#34A853"/>
<path id="Fill 12" fill-rule="evenodd" clip-rule="evenodd" d="M144.424 9.9596C144.266 9.48847 144.179 8.98593 144.179 8.46715C144.179 7.94837 144.266 7.44583 144.424 6.9747V4.96564H141.832C141.3 6.01837 141 7.20756 141 8.46715C141 9.72674 141.3 10.916 141.832 11.9687L144.424 9.9596Z" fill="#FABB05"/>
<path id="Fill 14" fill-rule="evenodd" clip-rule="evenodd" d="M148.806 3.75583C149.957 3.75583 150.988 4.15115 151.801 4.92553V4.92661L154.029 2.70094C152.676 1.44243 150.912 0.669128 148.806 0.669128C145.757 0.669128 143.116 2.41826 141.832 4.9656L144.424 6.97467C145.042 5.12698 146.77 3.75583 148.806 3.75583" fill="#E94235"/>
</g>
</g>
</g>
</g>
</svg>
