<svg width="348" height="38" viewBox="0 0 348 38" fill="none" xmlns="http://www.w3.org/2000/svg">
<g id="id_donate_with_Light">
<path id="Text" d="M2.80471 30V9.952H10.3087C11.3914 9.952 12.3807 10.1853 13.2767 10.652C14.1914 11.1187 14.91 11.7533 15.4327 12.556C15.974 13.3587 16.2447 14.264 16.2447 15.272C16.2447 16.2987 15.9834 17.176 15.4607 17.904C14.9567 18.632 14.3127 19.1827 13.5287 19.556V19.696C14.5367 20.0507 15.358 20.6387 15.9927 21.46C16.6274 22.2627 16.9447 23.2333 16.9447 24.372C16.9447 25.492 16.6554 26.4813 16.0767 27.34C15.5167 28.18 14.7514 28.8333 13.7807 29.3C12.8287 29.7667 11.7834 30 10.6447 30H2.80471ZM10.2807 12.78H5.88471V18.38H10.1687C11.1394 18.38 11.8954 18.0907 12.4367 17.512C12.978 16.9147 13.2487 16.2613 13.2487 15.552C13.2487 14.8613 12.9874 14.2267 12.4647 13.648C11.942 13.0693 11.214 12.78 10.2807 12.78ZM5.88471 27.144H10.6447C11.6527 27.144 12.4367 26.8453 12.9967 26.248C13.5754 25.632 13.8647 24.932 13.8647 24.148C13.8647 23.364 13.5754 22.664 12.9967 22.048C12.418 21.432 11.5967 21.124 10.5327 21.124H5.88471V27.144ZM26.6521 30.448C25.2521 30.448 24.0014 30.1213 22.9001 29.468C21.7987 28.8147 20.9307 27.9187 20.2961 26.78C19.6801 25.6413 19.3721 24.344 19.3721 22.888C19.3721 21.5253 19.6707 20.2653 20.2681 19.108C20.8654 17.9507 21.6961 17.0267 22.7601 16.336C23.8427 15.6267 25.0841 15.272 26.4841 15.272C27.9587 15.272 29.2094 15.5893 30.2361 16.224C31.2814 16.8587 32.0747 17.7267 32.6161 18.828C33.1574 19.9293 33.4281 21.1707 33.4281 22.552C33.4281 22.7573 33.4187 22.944 33.4001 23.112C33.4001 23.28 33.3907 23.4107 33.3721 23.504H22.3401C22.4894 24.9227 22.9841 25.9867 23.8241 26.696C24.6827 27.4053 25.6534 27.76 26.7361 27.76C27.7067 27.76 28.5094 27.5453 29.1441 27.116C29.7787 26.668 30.2827 26.1173 30.6561 25.464L33.1481 26.668C32.5321 27.788 31.6921 28.7027 30.6281 29.412C29.5641 30.1027 28.2387 30.448 26.6521 30.448ZM26.5121 17.848C25.5041 17.848 24.6454 18.156 23.9361 18.772C23.2267 19.388 22.7507 20.2093 22.5081 21.236H30.4321C30.3947 20.7507 30.2361 20.2467 29.9561 19.724C29.6761 19.2013 29.2467 18.7627 28.6681 18.408C28.1081 18.0347 27.3894 17.848 26.5121 17.848ZM36.5335 30V15.72H39.3895V17.82H39.5575C39.8749 17.092 40.4162 16.4947 41.1815 16.028C41.9655 15.5427 42.8055 15.3 43.7015 15.3C44.0935 15.3 44.4202 15.328 44.6815 15.384C44.9615 15.44 45.2135 15.5053 45.4375 15.58V18.716C45.0829 18.5667 44.7189 18.4453 44.3455 18.352C43.9909 18.2587 43.6175 18.212 43.2255 18.212C42.5162 18.212 41.8815 18.408 41.3215 18.8C40.7802 19.1733 40.3509 19.6867 40.0335 20.34C39.7162 20.9747 39.5575 21.6747 39.5575 22.44V30H36.5335ZM49.8078 13.62C49.2478 13.62 48.7625 13.424 48.3518 13.032C47.9598 12.6213 47.7638 12.136 47.7638 11.576C47.7638 11.016 47.9598 10.54 48.3518 10.148C48.7625 9.756 49.2478 9.56 49.8078 9.56C50.3678 9.56 50.8438 9.756 51.2358 10.148C51.6465 10.54 51.8518 11.016 51.8518 11.576C51.8518 12.136 51.6465 12.6213 51.2358 13.032C50.8438 13.424 50.3678 13.62 49.8078 13.62ZM48.2958 30V15.72H51.3198V30H48.2958ZM68.311 30.448C67.023 30.448 65.8563 30.1307 64.811 29.496C63.7843 28.8427 62.963 27.9467 62.347 26.808C61.7496 25.6507 61.451 24.3347 61.451 22.86C61.451 21.3853 61.7496 20.0787 62.347 18.94C62.963 17.8013 63.7843 16.9053 64.811 16.252C65.8563 15.5987 67.023 15.272 68.311 15.272C69.4123 15.272 70.355 15.5147 71.139 16C71.9416 16.4853 72.5296 17.036 72.903 17.652H73.071L72.903 15.664V9.952H75.899V30H73.071V28.096H72.903C72.5296 28.712 71.9416 29.2627 71.139 29.748C70.355 30.2147 69.4123 30.448 68.311 30.448ZM68.759 27.676C69.5056 27.676 70.2056 27.48 70.859 27.088C71.531 26.696 72.063 26.1453 72.455 25.436C72.8656 24.708 73.071 23.8493 73.071 22.86C73.071 21.8707 72.8656 21.0213 72.455 20.312C72.063 19.584 71.531 19.024 70.859 18.632C70.2056 18.24 69.5056 18.044 68.759 18.044C68.0123 18.044 67.3123 18.24 66.659 18.632C66.0056 19.024 65.4736 19.584 65.063 20.312C64.6523 21.0213 64.447 21.8707 64.447 22.86C64.447 23.8493 64.6523 24.708 65.063 25.436C65.4736 26.1453 66.0056 26.696 66.659 27.088C67.3123 27.48 68.0123 27.676 68.759 27.676ZM86.3442 30.448C84.8695 30.448 83.5722 30.112 82.4522 29.44C81.3322 28.768 80.4548 27.8627 79.8202 26.724C79.1855 25.5853 78.8682 24.2973 78.8682 22.86C78.8682 21.4413 79.1855 20.1627 79.8202 19.024C80.4548 17.8667 81.3322 16.952 82.4522 16.28C83.5722 15.608 84.8695 15.272 86.3442 15.272C87.8002 15.272 89.0882 15.608 90.2082 16.28C91.3282 16.952 92.2055 17.8667 92.8402 19.024C93.4748 20.1627 93.7922 21.4413 93.7922 22.86C93.7922 24.2973 93.4748 25.5853 92.8402 26.724C92.2055 27.8627 91.3282 28.768 90.2082 29.44C89.0882 30.112 87.8002 30.448 86.3442 30.448ZM86.3442 27.676C87.1282 27.676 87.8562 27.4893 88.5282 27.116C89.2002 26.724 89.7415 26.1733 90.1522 25.464C90.5815 24.736 90.7962 23.868 90.7962 22.86C90.7962 21.852 90.5815 20.9933 90.1522 20.284C89.7415 19.556 89.2002 19.0053 88.5282 18.632C87.8562 18.24 87.1282 18.044 86.3442 18.044C85.5602 18.044 84.8228 18.24 84.1322 18.632C83.4602 19.0053 82.9095 19.556 82.4802 20.284C82.0695 20.9933 81.8642 21.852 81.8642 22.86C81.8642 23.868 82.0695 24.736 82.4802 25.464C82.9095 26.1733 83.4602 26.724 84.1322 27.116C84.8228 27.4893 85.5602 27.676 86.3442 27.676ZM96.6038 30V15.72H99.4598V17.68H99.6278C100.039 16.9893 100.645 16.42 101.448 15.972C102.269 15.5053 103.165 15.272 104.136 15.272C105.891 15.272 107.207 15.7947 108.084 16.84C108.961 17.8853 109.4 19.2667 109.4 20.984V30H106.404V21.376C106.404 20.2187 106.115 19.3787 105.536 18.856C104.957 18.3147 104.201 18.044 103.268 18.044C102.54 18.044 101.905 18.2493 101.364 18.66C100.823 19.052 100.393 19.5747 100.076 20.228C99.7772 20.8813 99.6278 21.5813 99.6278 22.328V30H96.6038ZM117.489 30.448C116.463 30.448 115.548 30.252 114.745 29.86C113.943 29.4493 113.317 28.88 112.869 28.152C112.421 27.424 112.197 26.5933 112.197 25.66C112.197 24.652 112.459 23.7933 112.981 23.084C113.523 22.356 114.241 21.8053 115.137 21.432C116.033 21.0587 117.023 20.872 118.105 20.872C119.001 20.872 119.785 20.956 120.457 21.124C121.148 21.292 121.671 21.4693 122.025 21.656V20.9C122.025 19.9667 121.689 19.22 121.017 18.66C120.345 18.1 119.477 17.82 118.413 17.82C117.685 17.82 116.995 17.988 116.341 18.324C115.688 18.6413 115.165 19.08 114.773 19.64L112.701 18.044C113.317 17.1853 114.129 16.5133 115.137 16.028C116.164 15.524 117.284 15.272 118.497 15.272C120.569 15.272 122.165 15.7853 123.285 16.812C124.405 17.82 124.965 19.2387 124.965 21.068V30H122.025V28.236H121.857C121.484 28.8147 120.924 29.328 120.177 29.776C119.431 30.224 118.535 30.448 117.489 30.448ZM118.021 27.984C118.805 27.984 119.496 27.7973 120.093 27.424C120.691 27.0507 121.157 26.5653 121.493 25.968C121.848 25.352 122.025 24.6893 122.025 23.98C121.596 23.7373 121.092 23.5413 120.513 23.392C119.935 23.224 119.319 23.14 118.665 23.14C117.433 23.14 116.556 23.392 116.033 23.896C115.511 24.3813 115.249 24.9787 115.249 25.688C115.249 26.36 115.501 26.9107 116.005 27.34C116.509 27.7693 117.181 27.984 118.021 27.984ZM133.666 30.448C131.948 30.448 130.576 30.0747 129.55 29.328C128.523 28.5627 127.814 27.6573 127.422 26.612L130.138 25.436C130.474 26.2013 130.959 26.7893 131.594 27.2C132.228 27.592 132.947 27.788 133.75 27.788C134.496 27.788 135.14 27.6573 135.682 27.396C136.223 27.116 136.494 26.668 136.494 26.052C136.494 25.4547 136.223 25.016 135.682 24.736C135.14 24.456 134.468 24.2133 133.666 24.008L131.958 23.616C131.267 23.448 130.623 23.1867 130.026 22.832C129.428 22.4773 128.943 22.02 128.57 21.46C128.196 20.8813 128.01 20.2093 128.01 19.444C128.01 18.604 128.262 17.876 128.766 17.26C129.27 16.6253 129.932 16.14 130.754 15.804C131.594 15.4493 132.499 15.272 133.47 15.272C134.795 15.272 135.952 15.5333 136.942 16.056C137.95 16.56 138.687 17.3253 139.154 18.352L136.55 19.528C136.214 18.8933 135.775 18.4547 135.234 18.212C134.711 17.9507 134.132 17.82 133.498 17.82C132.788 17.82 132.191 17.9693 131.706 18.268C131.239 18.5667 131.006 18.94 131.006 19.388C131.006 19.8733 131.211 20.256 131.622 20.536C132.051 20.816 132.574 21.04 133.19 21.208L135.262 21.712C136.68 22.0667 137.744 22.608 138.454 23.336C139.163 24.0453 139.518 24.9133 139.518 25.94C139.518 26.8547 139.256 27.6573 138.734 28.348C138.211 29.02 137.502 29.5427 136.606 29.916C135.728 30.2707 134.748 30.448 133.666 30.448ZM144.056 13.62C143.496 13.62 143.011 13.424 142.6 13.032C142.208 12.6213 142.012 12.136 142.012 11.576C142.012 11.016 142.208 10.54 142.6 10.148C143.011 9.756 143.496 9.56 144.056 9.56C144.616 9.56 145.092 9.756 145.484 10.148C145.895 10.54 146.1 11.016 146.1 11.576C146.1 12.136 145.895 12.6213 145.484 13.032C145.092 13.424 144.616 13.62 144.056 13.62ZM142.544 30V15.72H145.568V30H142.544ZM162.559 30.448C161.271 30.448 160.105 30.1307 159.059 29.496C158.033 28.8427 157.211 27.9467 156.595 26.808C155.998 25.6507 155.699 24.3347 155.699 22.86C155.699 21.3853 155.998 20.0787 156.595 18.94C157.211 17.8013 158.033 16.9053 159.059 16.252C160.105 15.5987 161.271 15.272 162.559 15.272C163.661 15.272 164.603 15.5147 165.387 16C166.19 16.4853 166.778 17.036 167.151 17.652H167.319L167.151 15.664V9.952H170.147V30H167.319V28.096H167.151C166.778 28.712 166.19 29.2627 165.387 29.748C164.603 30.2147 163.661 30.448 162.559 30.448ZM163.007 27.676C163.754 27.676 164.454 27.48 165.107 27.088C165.779 26.696 166.311 26.1453 166.703 25.436C167.114 24.708 167.319 23.8493 167.319 22.86C167.319 21.8707 167.114 21.0213 166.703 20.312C166.311 19.584 165.779 19.024 165.107 18.632C164.454 18.24 163.754 18.044 163.007 18.044C162.261 18.044 161.561 18.24 160.907 18.632C160.254 19.024 159.722 19.584 159.311 20.312C158.901 21.0213 158.695 21.8707 158.695 22.86C158.695 23.8493 158.901 24.708 159.311 25.436C159.722 26.1453 160.254 26.696 160.907 27.088C161.561 27.48 162.261 27.676 163.007 27.676ZM180.397 30.448C178.997 30.448 177.746 30.1213 176.645 29.468C175.543 28.8147 174.675 27.9187 174.041 26.78C173.425 25.6413 173.117 24.344 173.117 22.888C173.117 21.5253 173.415 20.2653 174.013 19.108C174.61 17.9507 175.441 17.0267 176.505 16.336C177.587 15.6267 178.829 15.272 180.229 15.272C181.703 15.272 182.954 15.5893 183.981 16.224C185.026 16.8587 185.819 17.7267 186.361 18.828C186.902 19.9293 187.173 21.1707 187.173 22.552C187.173 22.7573 187.163 22.944 187.145 23.112C187.145 23.28 187.135 23.4107 187.117 23.504H176.085C176.234 24.9227 176.729 25.9867 177.569 26.696C178.427 27.4053 179.398 27.76 180.481 27.76C181.451 27.76 182.254 27.5453 182.889 27.116C183.523 26.668 184.027 26.1173 184.401 25.464L186.893 26.668C186.277 27.788 185.437 28.7027 184.373 29.412C183.309 30.1027 181.983 30.448 180.397 30.448ZM180.257 17.848C179.249 17.848 178.39 18.156 177.681 18.772C176.971 19.388 176.495 20.2093 176.253 21.236H184.177C184.139 20.7507 183.981 20.2467 183.701 19.724C183.421 19.2013 182.991 18.7627 182.413 18.408C181.853 18.0347 181.134 17.848 180.257 17.848ZM190.278 30V15.72H193.134V17.68H193.302C193.713 16.9893 194.319 16.42 195.122 15.972C195.943 15.5053 196.839 15.272 197.81 15.272C199.565 15.272 200.881 15.7947 201.758 16.84C202.635 17.8853 203.074 19.2667 203.074 20.984V30H200.078V21.376C200.078 20.2187 199.789 19.3787 199.21 18.856C198.631 18.3147 197.875 18.044 196.942 18.044C196.214 18.044 195.579 18.2493 195.038 18.66C194.497 19.052 194.067 19.5747 193.75 20.228C193.451 20.8813 193.302 21.5813 193.302 22.328V30H190.278ZM213.124 36.496C211.873 36.496 210.79 36.2907 209.876 35.88C208.98 35.488 208.252 34.9747 207.692 34.34C207.132 33.724 206.73 33.0893 206.488 32.436L209.288 31.26C209.586 32.0067 210.062 32.6133 210.716 33.08C211.388 33.5653 212.19 33.808 213.124 33.808C214.43 33.808 215.457 33.416 216.204 32.632C216.969 31.848 217.352 30.7373 217.352 29.3V27.928H217.184C216.736 28.6 216.11 29.1413 215.308 29.552C214.524 29.944 213.628 30.14 212.62 30.14C211.406 30.14 210.296 29.832 209.288 29.216C208.28 28.6 207.468 27.7413 206.852 26.64C206.236 25.52 205.928 24.2133 205.928 22.72C205.928 21.208 206.236 19.9013 206.852 18.8C207.468 17.68 208.28 16.812 209.288 16.196C210.296 15.58 211.406 15.272 212.62 15.272C213.628 15.272 214.524 15.4773 215.308 15.888C216.11 16.2987 216.736 16.84 217.184 17.512H217.352V15.72H220.236V29.244C220.236 30.7933 219.928 32.1093 219.312 33.192C218.714 34.2747 217.884 35.096 216.82 35.656C215.756 36.216 214.524 36.496 213.124 36.496ZM213.152 27.396C213.898 27.396 214.589 27.2187 215.224 26.864C215.858 26.4907 216.372 25.9587 216.764 25.268C217.156 24.5587 217.352 23.7093 217.352 22.72C217.352 21.6933 217.156 20.8347 216.764 20.144C216.372 19.4347 215.858 18.9027 215.224 18.548C214.589 18.1933 213.898 18.016 213.152 18.016C212.405 18.016 211.705 18.2027 211.052 18.576C210.417 18.9307 209.904 19.4533 209.512 20.144C209.12 20.8347 208.924 21.6933 208.924 22.72C208.924 23.728 209.12 24.5867 209.512 25.296C209.904 25.9867 210.417 26.5093 211.052 26.864C211.705 27.2187 212.405 27.396 213.152 27.396ZM228.417 30.448C227.39 30.448 226.475 30.252 225.673 29.86C224.87 29.4493 224.245 28.88 223.797 28.152C223.349 27.424 223.125 26.5933 223.125 25.66C223.125 24.652 223.386 23.7933 223.909 23.084C224.45 22.356 225.169 21.8053 226.065 21.432C226.961 21.0587 227.95 20.872 229.033 20.872C229.929 20.872 230.713 20.956 231.385 21.124C232.075 21.292 232.598 21.4693 232.953 21.656V20.9C232.953 19.9667 232.617 19.22 231.945 18.66C231.273 18.1 230.405 17.82 229.341 17.82C228.613 17.82 227.922 17.988 227.269 18.324C226.615 18.6413 226.093 19.08 225.701 19.64L223.629 18.044C224.245 17.1853 225.057 16.5133 226.065 16.028C227.091 15.524 228.211 15.272 229.425 15.272C231.497 15.272 233.093 15.7853 234.213 16.812C235.333 17.82 235.893 19.2387 235.893 21.068V30H232.953V28.236H232.785C232.411 28.8147 231.851 29.328 231.105 29.776C230.358 30.224 229.462 30.448 228.417 30.448ZM228.949 27.984C229.733 27.984 230.423 27.7973 231.021 27.424C231.618 27.0507 232.085 26.5653 232.421 25.968C232.775 25.352 232.953 24.6893 232.953 23.98C232.523 23.7373 232.019 23.5413 231.441 23.392C230.862 23.224 230.246 23.14 229.593 23.14C228.361 23.14 227.483 23.392 226.961 23.896C226.438 24.3813 226.177 24.9787 226.177 25.688C226.177 26.36 226.429 26.9107 226.933 27.34C227.437 27.7693 228.109 27.984 228.949 27.984ZM239.522 30V15.72H242.378V17.68H242.546C242.956 16.9893 243.563 16.42 244.366 15.972C245.187 15.5053 246.083 15.272 247.054 15.272C248.808 15.272 250.124 15.7947 251.002 16.84C251.879 17.8853 252.318 19.2667 252.318 20.984V30H249.322V21.376C249.322 20.2187 249.032 19.3787 248.454 18.856C247.875 18.3147 247.119 18.044 246.186 18.044C245.458 18.044 244.823 18.2493 244.282 18.66C243.74 19.052 243.311 19.5747 242.994 20.228C242.695 20.8813 242.546 21.5813 242.546 22.328V30H239.522Z" fill="#3C4043"/>
<g id="GPay Logo (Light)">
<g id="GPay">
<g id="Pay">
<path id="Fill 1" fill-rule="evenodd" clip-rule="evenodd" d="M304.529 9.44664V17.6128H309.565C310.765 17.6128 311.757 17.2096 312.541 16.4032C313.347 15.5988 313.75 14.6394 313.75 13.5288C313.75 12.4406 313.347 11.4924 312.541 10.686C311.757 9.85915 310.765 9.44478 309.565 9.44478H304.529V9.44664ZM304.529 20.4872V29.9599H301.521V6.57217H309.499C311.527 6.57217 313.248 7.24786 314.666 8.59737C316.105 9.94688 316.824 11.5913 316.824 13.5288C316.824 15.511 316.105 17.1667 314.666 18.4938C313.27 19.8227 311.547 20.4854 309.499 20.4854H304.529V20.4872Z" fill="#5F6368"/>
<path id="Fill 3" fill-rule="evenodd" clip-rule="evenodd" d="M319.864 25.0602C319.864 25.8442 320.197 26.4975 320.862 27.0201C321.527 27.5427 322.306 27.804 323.2 27.804C324.465 27.804 325.591 27.3354 326.584 26.4004C327.576 25.4634 328.071 24.364 328.071 23.1022C327.133 22.3612 325.825 21.9916 324.147 21.9916C322.925 21.9916 321.907 22.2865 321.09 22.8745C320.273 23.4623 319.864 24.1886 319.864 25.0602ZM323.756 13.4317C325.98 13.4317 327.735 14.0252 329.022 15.2124C330.308 16.3995 330.95 18.0271 330.95 20.0952V29.9599H328.073V27.7387H327.942C326.699 29.5677 325.042 30.4825 322.972 30.4825C321.206 30.4825 319.728 29.9599 318.541 28.9146C317.353 27.8694 316.759 26.5628 316.759 24.9949C316.759 23.3393 317.385 22.0232 318.638 21.0434C319.892 20.0635 321.565 19.5726 323.658 19.5726C325.444 19.5726 326.916 19.8992 328.071 20.5525V19.8656C328.071 18.8204 327.656 17.9338 326.829 17.204C325.999 16.4741 325.031 16.1102 323.919 16.1102C322.239 16.1102 320.911 16.8176 319.93 18.2343L317.28 16.5675C318.741 14.4769 320.899 13.4317 323.756 13.4317Z" fill="#5F6368"/>
<path id="Fill 5" fill-rule="evenodd" clip-rule="evenodd" d="M347.463 13.9543L337.424 37.0154H334.318L338.046 28.9464L331.44 13.9543H334.71L339.484 25.4522H339.55L344.193 13.9543H347.463Z" fill="#5F6368"/>
</g>
<g id="G">
<path id="Fill 8" fill-rule="evenodd" clip-rule="evenodd" d="M292.373 18.4452C292.373 17.4989 292.293 16.5861 292.141 15.7126H279.454V20.8885H286.72C286.408 22.5757 285.465 24.0112 284.033 24.9725V28.3341H288.37C290.91 25.9935 292.373 22.5348 292.373 18.4452Z" fill="#4285F4"/>
<path id="Fill 10" fill-rule="evenodd" clip-rule="evenodd" d="M279.454 31.5782C283.084 31.5782 286.141 30.3873 288.37 28.3341L284.033 24.9725C282.826 25.7844 281.272 26.2585 279.454 26.2585C275.944 26.2585 272.966 23.8955 271.901 20.7112H267.433V24.1736C269.647 28.5637 274.197 31.5782 279.454 31.5782Z" fill="#34A853"/>
<path id="Fill 12" fill-rule="evenodd" clip-rule="evenodd" d="M271.901 20.7111C271.628 19.8992 271.479 19.0331 271.479 18.139C271.479 17.245 271.628 16.3789 271.901 15.567V12.1045H267.433C266.518 13.9188 266 15.9683 266 18.139C266 20.3098 266.518 22.3595 267.433 24.1736L271.901 20.7111Z" fill="#FABB05"/>
<path id="Fill 14" fill-rule="evenodd" clip-rule="evenodd" d="M279.454 10.0196C281.436 10.0196 283.213 10.7009 284.615 12.0355V12.0374L288.455 8.20162C286.123 6.03271 283.082 4.7 279.454 4.7C274.197 4.7 269.647 7.71446 267.433 12.1046L271.901 15.567C272.966 12.3827 275.944 10.0196 279.454 10.0196Z" fill="#E94235"/>
</g>
</g>
</g>
</g>
</svg>
