<svg width="199" height="21" viewBox="0 0 199 21" fill="none" xmlns="http://www.w3.org/2000/svg">
<g id="id_donate_with_Pay_NBG">
<path id="Left Text" d="M1.82412 15.0006V3.54461H6.11212C6.74146 3.54461 7.31212 3.67794 7.82412 3.94461C8.33612 4.21128 8.74146 4.57394 9.04012 5.03261C9.34946 5.49128 9.50412 6.00861 9.50412 6.58461C9.50412 7.17128 9.36012 7.67261 9.07212 8.08861C8.78412 8.50461 8.41079 8.81928 7.95212 9.03261V9.11261C8.52812 9.30461 8.99746 9.63528 9.36012 10.1046C9.72279 10.5739 9.90412 11.1339 9.90412 11.7846C9.90412 12.4246 9.73879 12.9846 9.40812 13.4646C9.08812 13.9446 8.65079 14.3233 8.09612 14.6006C7.55212 14.8673 6.95479 15.0006 6.30412 15.0006H1.82412ZM3.58412 9.92861V13.3686H6.30412C6.68812 13.3686 7.01879 13.2886 7.29612 13.1286C7.57346 12.9686 7.78146 12.7553 7.92012 12.4886C8.06946 12.2219 8.14412 11.9446 8.14412 11.6566C8.14412 11.3473 8.06946 11.0646 7.92012 10.8086C7.77079 10.5419 7.55212 10.3286 7.26412 10.1686C6.98679 10.0086 6.64546 9.92861 6.24012 9.92861H3.58412ZM3.58412 8.36061H6.03212C6.40546 8.36061 6.72012 8.28594 6.97612 8.13661C7.24279 7.97661 7.44546 7.77394 7.58412 7.52861C7.72279 7.27261 7.79212 7.01128 7.79212 6.74461C7.79212 6.47794 7.72279 6.22728 7.58412 5.99261C7.45612 5.74728 7.26412 5.54994 7.00812 5.40061C6.75212 5.24061 6.44812 5.16061 6.09612 5.16061H3.58412V8.36061ZM15.4297 15.2566C14.6297 15.2566 13.9151 15.0699 13.2857 14.6966C12.6564 14.3233 12.1604 13.8113 11.7977 13.1606C11.4457 12.5099 11.2697 11.7686 11.2697 10.9366C11.2697 10.1579 11.4404 9.43794 11.7817 8.77661C12.1231 8.11528 12.5977 7.58728 13.2057 7.19261C13.8244 6.78728 14.5337 6.58461 15.3337 6.58461C16.1764 6.58461 16.8911 6.76594 17.4777 7.12861C18.0751 7.49128 18.5284 7.98728 18.8377 8.61661C19.1471 9.24594 19.3017 9.95528 19.3017 10.7446C19.3017 10.8619 19.2964 10.9686 19.2857 11.0646C19.2857 11.1606 19.2804 11.2353 19.2697 11.2886H12.9657C13.0084 11.7366 13.1204 12.1259 13.3017 12.4566C13.5364 12.8726 13.8457 13.1873 14.2297 13.4006C14.6137 13.6139 15.0297 13.7206 15.4777 13.7206C16.0217 13.7206 16.4751 13.5979 16.8377 13.3526C17.2111 13.0966 17.5044 12.7819 17.7177 12.4086L19.1417 13.0966C18.7897 13.7366 18.3097 14.2593 17.7017 14.6646C17.0937 15.0593 16.3364 15.2566 15.4297 15.2566ZM13.0617 9.99261H17.5897C17.5791 9.78994 17.5257 9.57661 17.4297 9.35261C17.3337 9.11794 17.1951 8.90461 17.0137 8.71261C16.8324 8.52061 16.6031 8.36594 16.3257 8.24861C16.0484 8.12061 15.7231 8.05661 15.3497 8.05661C14.8804 8.05661 14.4644 8.17928 14.1017 8.42461C13.7391 8.65928 13.4564 8.98994 13.2537 9.41661C13.1684 9.59794 13.1044 9.78994 13.0617 9.99261ZM21.0549 15.0006V6.84061H22.6869V8.04061H22.7829C22.9109 7.76328 23.0922 7.51794 23.3269 7.30461C23.5722 7.09128 23.8495 6.92061 24.1589 6.79261C24.4789 6.66461 24.8095 6.60061 25.1509 6.60061C25.3749 6.60061 25.5615 6.61661 25.7109 6.64861C25.8709 6.66994 26.0149 6.70728 26.1429 6.76061V8.55261C25.9402 8.46728 25.7322 8.39794 25.5189 8.34461C25.3162 8.29128 25.1029 8.26461 24.8789 8.26461C24.4735 8.26461 24.1109 8.37661 23.7909 8.60061C23.4815 8.81394 23.2362 9.10194 23.0549 9.46461C22.8735 9.82728 22.7829 10.2326 22.7829 10.6806V15.0006H21.0549ZM27.7547 15.0006V6.84061H29.4827V15.0006H27.7547ZM28.6187 5.64061C28.2987 5.64061 28.0214 5.52861 27.7867 5.30461C27.5627 5.06994 27.4507 4.79261 27.4507 4.47261C27.4507 4.14194 27.5627 3.86994 27.7867 3.65661C28.0214 3.43261 28.2987 3.32061 28.6187 3.32061C28.9494 3.32061 29.2267 3.43261 29.4507 3.65661C29.6747 3.86994 29.7867 4.14194 29.7867 4.47261C29.7867 4.79261 29.6747 5.06994 29.4507 5.30461C29.2267 5.52861 28.9494 5.64061 28.6187 5.64061ZM39.1491 15.2566C38.4131 15.2566 37.7465 15.0699 37.1491 14.6966C36.5518 14.3233 36.0825 13.8113 35.7411 13.1606C35.3998 12.5099 35.2291 11.7633 35.2291 10.9206C35.2291 10.0779 35.3998 9.33128 35.7411 8.68061C36.0825 8.02994 36.5518 7.51794 37.1491 7.14461C37.7465 6.77128 38.4131 6.58461 39.1491 6.58461C39.5758 6.58461 39.9598 6.64861 40.3011 6.77661C40.6425 6.90461 40.9358 7.07528 41.1811 7.28861C41.4371 7.49128 41.6345 7.70994 41.7731 7.94461H41.8691L41.7731 6.80861V3.54461H43.4851V15.0006H41.8691V13.9126H41.7731C41.6345 14.1366 41.4371 14.3553 41.1811 14.5686C40.9358 14.7713 40.6425 14.9366 40.3011 15.0646C39.9598 15.1926 39.5758 15.2566 39.1491 15.2566ZM39.4051 13.6726C39.8318 13.6726 40.2318 13.5606 40.6051 13.3366C40.9891 13.1126 41.2931 12.7979 41.5171 12.3926C41.7518 11.9766 41.8691 11.4859 41.8691 10.9206C41.8691 10.3553 41.7518 9.86994 41.5171 9.46461C41.2931 9.04861 40.9891 8.72861 40.6051 8.50461C40.2318 8.28061 39.8318 8.16861 39.4051 8.16861C38.9785 8.16861 38.5785 8.28061 38.2051 8.50461C37.8318 8.72861 37.5278 9.04861 37.2931 9.46461C37.0585 9.86994 36.9411 10.3553 36.9411 10.9206C36.9411 11.4753 37.0585 11.9606 37.2931 12.3766C37.5278 12.7926 37.8318 13.1126 38.2051 13.3366C38.5785 13.5606 38.9785 13.6726 39.4051 13.6726ZM49.4324 15.2566C48.5897 15.2566 47.8484 15.0646 47.2084 14.6806C46.5684 14.2966 46.067 13.7793 45.7044 13.1286C45.3417 12.4673 45.1604 11.7313 45.1604 10.9206C45.1604 10.1099 45.3417 9.37928 45.7044 8.72861C46.067 8.06728 46.5684 7.54461 47.2084 7.16061C47.8484 6.77661 48.5897 6.58461 49.4324 6.58461C50.2644 6.58461 51.0004 6.78194 51.6404 7.17661C52.2804 7.56061 52.7817 8.07794 53.1444 8.72861C53.507 9.37928 53.6884 10.1099 53.6884 10.9206C53.6884 11.7313 53.507 12.4673 53.1444 13.1286C52.7817 13.7793 52.2804 14.2966 51.6404 14.6806C51.0004 15.0646 50.2644 15.2566 49.4324 15.2566ZM49.4324 13.6726C49.8804 13.6726 50.2964 13.5659 50.6804 13.3526C51.0644 13.1286 51.3737 12.8139 51.6084 12.4086C51.8537 11.9926 51.9764 11.4966 51.9764 10.9206C51.9764 10.3446 51.8537 9.85394 51.6084 9.44861C51.3737 9.03261 51.0644 8.71794 50.6804 8.50461C50.2964 8.28061 49.8804 8.16861 49.4324 8.16861C48.9844 8.16861 48.563 8.28061 48.1684 8.50461C47.7844 8.71794 47.4697 9.03261 47.2244 9.44861C46.9897 9.85394 46.8724 10.3446 46.8724 10.9206C46.8724 11.4966 46.9897 11.9926 47.2244 12.4086C47.4697 12.8139 47.7897 13.1286 48.1844 13.3526C48.579 13.5659 48.995 13.6726 49.4324 13.6726ZM55.2736 15.0006V6.84061H56.9056V7.96061H57.0016C57.2363 7.56594 57.583 7.24061 58.0416 6.98461C58.511 6.71794 59.023 6.58461 59.5776 6.58461C60.5803 6.58461 61.3323 6.88328 61.8336 7.48061C62.335 8.06728 62.5856 8.85661 62.5856 9.84861V15.0006H60.8736V10.0726C60.8736 9.41128 60.7083 8.93128 60.3776 8.63261C60.047 8.32328 59.615 8.16861 59.0816 8.16861C58.6656 8.16861 58.303 8.28594 57.9936 8.52061C57.6843 8.74461 57.439 9.04328 57.2576 9.41661C57.087 9.78994 57.0016 10.1899 57.0016 10.6166V15.0006H55.2736ZM67.1867 15.2566C66.6001 15.2566 66.0774 15.1393 65.6187 14.9046C65.1707 14.6699 64.8134 14.3499 64.5467 13.9446C64.2907 13.5286 64.1627 13.0539 64.1627 12.5206C64.1627 11.9339 64.3121 11.4379 64.6107 11.0326C64.9201 10.6273 65.3307 10.3179 65.8427 10.1046C66.3547 9.89128 66.9201 9.78461 67.5387 9.78461C67.8801 9.78461 68.1947 9.81128 68.4827 9.86461C68.7814 9.90728 69.0374 9.96061 69.2507 10.0246C69.4747 10.0886 69.6507 10.1579 69.7787 10.2326V9.80061C69.7787 9.26728 69.5867 8.84061 69.2027 8.52061C68.8187 8.20061 68.3227 8.04061 67.7147 8.04061C67.2987 8.04061 66.9041 8.13661 66.5307 8.32861C66.1574 8.50994 65.8587 8.76061 65.6347 9.08061L64.4507 8.16861C64.6854 7.83794 64.9681 7.55528 65.2987 7.32061C65.6401 7.08594 66.0187 6.90461 66.4347 6.77661C66.8614 6.64861 67.3041 6.58461 67.7627 6.58461C68.9467 6.58461 69.8587 6.87794 70.4987 7.46461C71.1387 8.04061 71.4587 8.85128 71.4587 9.89661V15.0006H69.7787V13.9926H69.6827C69.5441 14.2059 69.3521 14.4086 69.1067 14.6006C68.8721 14.7926 68.5894 14.9473 68.2587 15.0646C67.9387 15.1926 67.5814 15.2566 67.1867 15.2566ZM67.4907 13.8486C67.9387 13.8486 68.3334 13.7419 68.6747 13.5286C69.0267 13.3153 69.2987 13.0379 69.4907 12.6966C69.6827 12.3446 69.7787 11.9659 69.7787 11.5606C69.5441 11.4219 69.2561 11.3099 68.9147 11.2246C68.5841 11.1286 68.2321 11.0806 67.8587 11.0806C67.1547 11.0806 66.6534 11.2193 66.3547 11.4966C66.0561 11.7739 65.9067 12.1206 65.9067 12.5366C65.9067 12.9206 66.0507 13.2353 66.3387 13.4806C66.6267 13.7259 67.0107 13.8486 67.4907 13.8486ZM76.409 15.2566C75.7583 15.2566 75.193 15.1606 74.713 14.9686C74.233 14.7659 73.8383 14.4993 73.529 14.1686C73.2197 13.8273 72.9903 13.4593 72.841 13.0646L74.393 12.3926C74.585 12.8299 74.857 13.1659 75.209 13.4006C75.5717 13.6246 75.9877 13.7366 76.457 13.7366C76.8837 13.7366 77.2517 13.6619 77.561 13.5126C77.8703 13.3526 78.025 13.0966 78.025 12.7446C78.025 12.5206 77.9503 12.3393 77.801 12.2006C77.6623 12.0513 77.4703 11.9286 77.225 11.8326C76.9903 11.7366 76.7183 11.6513 76.409 11.5766L75.433 11.3526C75.049 11.2566 74.681 11.1073 74.329 10.9046C73.9877 10.6913 73.7103 10.4246 73.497 10.1046C73.2837 9.78461 73.177 9.40594 73.177 8.96861C73.177 8.47794 73.3157 8.05661 73.593 7.70461C73.881 7.34194 74.265 7.06461 74.745 6.87261C75.225 6.68061 75.7423 6.58461 76.297 6.58461C76.809 6.58461 77.273 6.65394 77.689 6.79261C78.1157 6.92061 78.4837 7.11794 78.793 7.38461C79.113 7.64061 79.3637 7.96061 79.545 8.34461L78.057 9.01661C77.8757 8.65394 77.6303 8.40328 77.321 8.26461C77.0117 8.11528 76.6757 8.04061 76.313 8.04061C75.9077 8.04061 75.5663 8.12594 75.289 8.29661C75.0223 8.45661 74.889 8.66994 74.889 8.93661C74.889 9.21394 75.0063 9.43261 75.241 9.59261C75.4863 9.75261 75.785 9.88061 76.137 9.97661L77.321 10.2646C78.1317 10.4673 78.7397 10.7766 79.145 11.1926C79.5503 11.5979 79.753 12.0939 79.753 12.6806C79.753 13.2033 79.6037 13.6619 79.305 14.0566C79.0063 14.4406 78.601 14.7393 78.089 14.9526C77.5877 15.1553 77.0277 15.2566 76.409 15.2566ZM81.461 15.0006V6.84061H83.189V15.0006H81.461ZM82.325 5.64061C82.005 5.64061 81.7277 5.52861 81.493 5.30461C81.269 5.06994 81.157 4.79261 81.157 4.47261C81.157 4.14194 81.269 3.86994 81.493 3.65661C81.7277 3.43261 82.005 3.32061 82.325 3.32061C82.6557 3.32061 82.933 3.43261 83.157 3.65661C83.381 3.86994 83.493 4.14194 83.493 4.47261C83.493 4.79261 83.381 5.06994 83.157 5.30461C82.933 5.52861 82.6557 5.64061 82.325 5.64061ZM92.8554 15.2566C92.1194 15.2566 91.4527 15.0699 90.8554 14.6966C90.258 14.3233 89.7887 13.8113 89.4474 13.1606C89.106 12.5099 88.9354 11.7633 88.9354 10.9206C88.9354 10.0779 89.106 9.33128 89.4474 8.68061C89.7887 8.02994 90.258 7.51794 90.8554 7.14461C91.4527 6.77128 92.1194 6.58461 92.8554 6.58461C93.282 6.58461 93.666 6.64861 94.0074 6.77661C94.3487 6.90461 94.642 7.07528 94.8874 7.28861C95.1434 7.49128 95.3407 7.70994 95.4794 7.94461H95.5754L95.4794 6.80861V3.54461H97.1914V15.0006H95.5754V13.9126H95.4794C95.3407 14.1366 95.1434 14.3553 94.8874 14.5686C94.642 14.7713 94.3487 14.9366 94.0074 15.0646C93.666 15.1926 93.282 15.2566 92.8554 15.2566ZM93.1114 13.6726C93.538 13.6726 93.938 13.5606 94.3114 13.3366C94.6954 13.1126 94.9994 12.7979 95.2234 12.3926C95.458 11.9766 95.5754 11.4859 95.5754 10.9206C95.5754 10.3553 95.458 9.86994 95.2234 9.46461C94.9994 9.04861 94.6954 8.72861 94.3114 8.50461C93.938 8.28061 93.538 8.16861 93.1114 8.16861C92.6847 8.16861 92.2847 8.28061 91.9114 8.50461C91.538 8.72861 91.234 9.04861 90.9994 9.46461C90.7647 9.86994 90.6474 10.3553 90.6474 10.9206C90.6474 11.4753 90.7647 11.9606 90.9994 12.3766C91.234 12.7926 91.538 13.1126 91.9114 13.3366C92.2847 13.5606 92.6847 13.6726 93.1114 13.6726ZM103.027 15.2566C102.227 15.2566 101.512 15.0699 100.883 14.6966C100.253 14.3233 99.7573 13.8113 99.3946 13.1606C99.0426 12.5099 98.8666 11.7686 98.8666 10.9366C98.8666 10.1579 99.0373 9.43794 99.3786 8.77661C99.72 8.11528 100.195 7.58728 100.803 7.19261C101.421 6.78728 102.131 6.58461 102.931 6.58461C103.773 6.58461 104.488 6.76594 105.075 7.12861C105.672 7.49128 106.125 7.98728 106.435 8.61661C106.744 9.24594 106.899 9.95528 106.899 10.7446C106.899 10.8619 106.893 10.9686 106.883 11.0646C106.883 11.1606 106.877 11.2353 106.867 11.2886H100.563C100.605 11.7366 100.717 12.1259 100.899 12.4566C101.133 12.8726 101.443 13.1873 101.827 13.4006C102.211 13.6139 102.627 13.7206 103.075 13.7206C103.619 13.7206 104.072 13.5979 104.435 13.3526C104.808 13.0966 105.101 12.7819 105.315 12.4086L106.739 13.0966C106.387 13.7366 105.907 14.2593 105.299 14.6646C104.691 15.0593 103.933 15.2566 103.027 15.2566ZM100.659 9.99261H105.187C105.176 9.78994 105.123 9.57661 105.027 9.35261C104.931 9.11794 104.792 8.90461 104.611 8.71261C104.429 8.52061 104.2 8.36594 103.923 8.24861C103.645 8.12061 103.32 8.05661 102.947 8.05661C102.477 8.05661 102.061 8.17928 101.699 8.42461C101.336 8.65928 101.053 8.98994 100.851 9.41661C100.765 9.59794 100.701 9.78994 100.659 9.99261ZM108.652 15.0006V6.84061H110.284V7.96061H110.38C110.614 7.56594 110.961 7.24061 111.42 6.98461C111.889 6.71794 112.401 6.58461 112.956 6.58461C113.958 6.58461 114.71 6.88328 115.212 7.48061C115.713 8.06728 115.964 8.85661 115.964 9.84861V15.0006H114.252V10.0726C114.252 9.41128 114.086 8.93128 113.756 8.63261C113.425 8.32328 112.993 8.16861 112.46 8.16861C112.044 8.16861 111.681 8.28594 111.372 8.52061C111.062 8.74461 110.817 9.04328 110.636 9.41661C110.465 9.78994 110.38 10.1899 110.38 10.6166V15.0006H108.652ZM121.685 18.7126C120.97 18.7126 120.352 18.5953 119.829 18.3606C119.317 18.1366 118.901 17.8433 118.581 17.4806C118.261 17.1286 118.032 16.7659 117.893 16.3926L119.493 15.7206C119.664 16.1473 119.936 16.4939 120.309 16.7606C120.693 17.0379 121.152 17.1766 121.685 17.1766C122.442 17.1766 123.034 16.9526 123.461 16.5046C123.888 16.0566 124.101 15.4219 124.101 14.6006V13.8166H124.005C123.749 14.1899 123.397 14.4939 122.949 14.7286C122.501 14.9633 121.984 15.0806 121.397 15.0806C120.704 15.0806 120.064 14.9046 119.477 14.5526C118.901 14.2006 118.437 13.7099 118.085 13.0806C117.744 12.4406 117.573 11.6939 117.573 10.8406C117.573 9.97661 117.744 9.22994 118.085 8.60061C118.437 7.96061 118.901 7.46461 119.477 7.11261C120.064 6.76061 120.704 6.58461 121.397 6.58461C121.984 6.58461 122.501 6.70194 122.949 6.93661C123.397 7.16061 123.749 7.46994 124.005 7.86461H124.101V6.84061H125.749V14.5686C125.749 15.4539 125.573 16.2059 125.221 16.8246C124.88 17.4433 124.405 17.9126 123.797 18.2326C123.189 18.5526 122.485 18.7126 121.685 18.7126ZM121.701 13.5126C122.128 13.5126 122.522 13.4113 122.885 13.2086C123.258 12.9953 123.552 12.6913 123.765 12.2966C123.989 11.8913 124.101 11.4059 124.101 10.8406C124.101 10.2433 123.989 9.74728 123.765 9.35261C123.552 8.95794 123.258 8.65928 122.885 8.45661C122.522 8.25394 122.128 8.15261 121.701 8.15261C121.274 8.15261 120.874 8.25394 120.501 8.45661C120.138 8.65928 119.845 8.96328 119.621 9.36861C119.397 9.76328 119.285 10.2539 119.285 10.8406C119.285 11.4166 119.397 11.9073 119.621 12.3126C119.845 12.7073 120.138 13.0059 120.501 13.2086C120.874 13.4113 121.274 13.5126 121.701 13.5126ZM130.402 15.2566C129.816 15.2566 129.293 15.1393 128.834 14.9046C128.386 14.6699 128.029 14.3499 127.762 13.9446C127.506 13.5286 127.378 13.0539 127.378 12.5206C127.378 11.9339 127.528 11.4379 127.826 11.0326C128.136 10.6273 128.546 10.3179 129.058 10.1046C129.57 9.89128 130.136 9.78461 130.754 9.78461C131.096 9.78461 131.41 9.81128 131.698 9.86461C131.997 9.90728 132.253 9.96061 132.466 10.0246C132.69 10.0886 132.866 10.1579 132.994 10.2326V9.80061C132.994 9.26728 132.802 8.84061 132.418 8.52061C132.034 8.20061 131.538 8.04061 130.93 8.04061C130.514 8.04061 130.12 8.13661 129.746 8.32861C129.373 8.50994 129.074 8.76061 128.85 9.08061L127.666 8.16861C127.901 7.83794 128.184 7.55528 128.514 7.32061C128.856 7.08594 129.234 6.90461 129.65 6.77661C130.077 6.64861 130.52 6.58461 130.978 6.58461C132.162 6.58461 133.074 6.87794 133.714 7.46461C134.354 8.04061 134.674 8.85128 134.674 9.89661V15.0006H132.994V13.9926H132.898C132.76 14.2059 132.568 14.4086 132.322 14.6006C132.088 14.7926 131.805 14.9473 131.474 15.0646C131.154 15.1926 130.797 15.2566 130.402 15.2566ZM130.706 13.8486C131.154 13.8486 131.549 13.7419 131.89 13.5286C132.242 13.3153 132.514 13.0379 132.706 12.6966C132.898 12.3446 132.994 11.9659 132.994 11.5606C132.76 11.4219 132.472 11.3099 132.13 11.2246C131.8 11.1286 131.448 11.0806 131.074 11.0806C130.37 11.0806 129.869 11.2193 129.57 11.4966C129.272 11.7739 129.122 12.1206 129.122 12.5366C129.122 12.9206 129.266 13.2353 129.554 13.4806C129.842 13.7259 130.226 13.8486 130.706 13.8486ZM136.727 15.0006V6.84061H138.359V7.96061H138.455C138.689 7.56594 139.036 7.24061 139.495 6.98461C139.964 6.71794 140.476 6.58461 141.031 6.58461C142.033 6.58461 142.785 6.88328 143.287 7.48061C143.788 8.06728 144.039 8.85661 144.039 9.84861V15.0006H142.327V10.0726C142.327 9.41128 142.161 8.93128 141.831 8.63261C141.5 8.32328 141.068 8.16861 140.535 8.16861C140.119 8.16861 139.756 8.28594 139.447 8.52061C139.137 8.74461 138.892 9.04328 138.711 9.41661C138.54 9.78994 138.455 10.1899 138.455 10.6166V15.0006H136.727Z" fill="white"/>
<g id="GPay (Dark)">
<g id="GPay">
<g id="Pay">
<path id="Fill 1" fill-rule="evenodd" clip-rule="evenodd" d="M173.356 3.42339V8.16175H176.278C176.974 8.16175 177.55 7.92781 178.005 7.45993C178.473 6.99313 178.707 6.43644 178.707 5.79203C178.707 5.16061 178.473 4.61041 178.005 4.14254C177.55 3.66274 176.974 3.4223 176.278 3.4223H173.356V3.42339ZM173.356 9.82966V15.3262H171.611V1.75549H176.24C177.417 1.75549 178.415 2.14756 179.238 2.93061C180.073 3.71365 180.491 4.66782 180.491 5.79203C180.491 6.94224 180.073 7.90291 179.238 8.67296C178.428 9.44409 177.429 9.82858 176.24 9.82858H173.356V9.82966Z" fill="white"/>
<path id="Fill 3" fill-rule="evenodd" clip-rule="evenodd" d="M182.255 12.4831C182.255 12.9379 182.448 13.317 182.834 13.6203C183.22 13.9235 183.672 14.0752 184.19 14.0752C184.924 14.0752 185.578 13.8032 186.153 13.2607C186.729 12.717 187.017 12.0791 187.017 11.3469C186.472 10.917 185.713 10.7025 184.74 10.7025C184.031 10.7025 183.44 10.8736 182.966 11.2148C182.492 11.5559 182.255 11.9773 182.255 12.4831M184.513 5.73566C185.803 5.73566 186.821 6.08007 187.569 6.76889C188.314 7.45771 188.687 8.40213 188.687 9.60216V15.3261H187.018V14.0373H186.942C186.221 15.0985 185.259 15.6294 184.058 15.6294C183.033 15.6294 182.176 15.3261 181.487 14.7196C180.797 14.1131 180.453 13.3549 180.453 12.4452C180.453 11.4845 180.816 10.7208 181.543 10.1523C182.271 9.58375 183.241 9.2989 184.456 9.2989C185.492 9.2989 186.346 9.48844 187.017 9.86751V9.46894C187.017 8.86243 186.776 8.34798 186.296 7.92451C185.814 7.50103 185.252 7.28984 184.607 7.28984C183.633 7.28984 182.862 7.70032 182.293 8.52235L180.755 7.55519C181.603 6.34217 182.855 5.73566 184.513 5.73566" fill="white"/>
<path id="Fill 5" fill-rule="evenodd" clip-rule="evenodd" d="M198.269 6.03894L192.443 19.4201H190.641L192.804 14.738L188.971 6.03894H190.869L193.639 12.7106H193.677L196.371 6.03894H198.269Z" fill="white"/>
</g>
<g id="G">
<path id="Fill 8" fill-rule="evenodd" clip-rule="evenodd" d="M166.303 8.64473C166.303 8.09563 166.256 7.56601 166.168 7.05914H158.806V10.0625H163.023C162.842 11.0414 162.294 11.8744 161.464 12.4322V14.3828H163.98C165.454 13.0246 166.303 11.0177 166.303 8.64473" fill="#4285F4"/>
<path id="Fill 10" fill-rule="evenodd" clip-rule="evenodd" d="M158.806 16.2651C160.913 16.2651 162.687 15.5741 163.98 14.3828L161.464 12.4322C160.764 12.9033 159.861 13.1784 158.806 13.1784C156.77 13.1784 155.042 11.8073 154.424 9.95959H151.832V11.9687C153.116 14.516 155.757 16.2651 158.806 16.2651" fill="#34A853"/>
<path id="Fill 12" fill-rule="evenodd" clip-rule="evenodd" d="M154.424 9.9596C154.266 9.48847 154.179 8.98593 154.179 8.46715C154.179 7.94837 154.266 7.44583 154.424 6.9747V4.96564H151.832C151.3 6.01837 151 7.20756 151 8.46715C151 9.72674 151.3 10.916 151.832 11.9687L154.424 9.9596Z" fill="#FABB05"/>
<path id="Fill 14" fill-rule="evenodd" clip-rule="evenodd" d="M158.806 3.75583C159.957 3.75583 160.988 4.15115 161.801 4.92553V4.92661L164.029 2.70094C162.676 1.44243 160.912 0.669128 158.806 0.669128C155.757 0.669128 153.116 2.41826 151.832 4.9656L154.424 6.97467C155.042 5.12698 156.77 3.75583 158.806 3.75583" fill="#E94235"/>
</g>
</g>
</g>
</g>
</svg>
