<svg width="158" height="21" viewBox="0 0 158 21" fill="none" xmlns="http://www.w3.org/2000/svg">
<g id="id_pay_with_Pay_NBG">
<path id="Left Text" d="M1.88037 15.0006V3.54461H6.16837C6.79771 3.54461 7.36837 3.67794 7.88037 3.94461C8.39237 4.21128 8.79771 4.57394 9.09637 5.03261C9.40571 5.49128 9.56037 6.00861 9.56037 6.58461C9.56037 7.17128 9.41637 7.67261 9.12837 8.08861C8.84037 8.50461 8.46704 8.81928 8.00837 9.03261V9.11261C8.58437 9.30461 9.05371 9.63528 9.41637 10.1046C9.77904 10.5739 9.96037 11.1339 9.96037 11.7846C9.96037 12.4246 9.79504 12.9846 9.46437 13.4646C9.14437 13.9446 8.70704 14.3233 8.15237 14.6006C7.60837 14.8673 7.01104 15.0006 6.36037 15.0006H1.88037ZM3.64037 9.92861V13.3686H6.36037C6.74437 13.3686 7.07504 13.2886 7.35237 13.1286C7.62971 12.9686 7.83771 12.7553 7.97637 12.4886C8.12571 12.2219 8.20037 11.9446 8.20037 11.6566C8.20037 11.3473 8.12571 11.0646 7.97637 10.8086C7.82704 10.5419 7.60837 10.3286 7.32037 10.1686C7.04304 10.0086 6.70171 9.92861 6.29637 9.92861H3.64037ZM3.64037 8.36061H6.08837C6.46171 8.36061 6.77637 8.28594 7.03237 8.13661C7.29904 7.97661 7.50171 7.77394 7.64037 7.52861C7.77904 7.27261 7.84837 7.01128 7.84837 6.74461C7.84837 6.47794 7.77904 6.22728 7.64037 5.99261C7.51237 5.74728 7.32037 5.54994 7.06437 5.40061C6.80837 5.24061 6.50437 5.16061 6.15237 5.16061H3.64037V8.36061ZM14.318 15.2566C13.7313 15.2566 13.2087 15.1393 12.75 14.9046C12.302 14.6699 11.9447 14.3499 11.678 13.9446C11.422 13.5286 11.294 13.0539 11.294 12.5206C11.294 11.9339 11.4433 11.4379 11.742 11.0326C12.0513 10.6273 12.462 10.3179 12.974 10.1046C13.486 9.89128 14.0513 9.78461 14.67 9.78461C15.0113 9.78461 15.326 9.81128 15.614 9.86461C15.9127 9.90728 16.1687 9.96061 16.382 10.0246C16.606 10.0886 16.782 10.1579 16.91 10.2326V9.80061C16.91 9.26728 16.718 8.84061 16.334 8.52061C15.95 8.20061 15.454 8.04061 14.846 8.04061C14.43 8.04061 14.0353 8.13661 13.662 8.32861C13.2887 8.50994 12.99 8.76061 12.766 9.08061L11.582 8.16861C11.8167 7.83794 12.0993 7.55528 12.43 7.32061C12.7713 7.08594 13.15 6.90461 13.566 6.77661C13.9927 6.64861 14.4353 6.58461 14.894 6.58461C16.078 6.58461 16.99 6.87794 17.63 7.46461C18.27 8.04061 18.59 8.85128 18.59 9.89661V15.0006H16.91V13.9926H16.814C16.6753 14.2059 16.4833 14.4086 16.238 14.6006C16.0033 14.7926 15.7207 14.9473 15.39 15.0646C15.07 15.1926 14.7127 15.2566 14.318 15.2566ZM14.622 13.8486C15.07 13.8486 15.4647 13.7419 15.806 13.5286C16.158 13.3153 16.43 13.0379 16.622 12.6966C16.814 12.3446 16.91 11.9659 16.91 11.5606C16.6753 11.4219 16.3873 11.3099 16.046 11.2246C15.7153 11.1286 15.3633 11.0806 14.99 11.0806C14.286 11.0806 13.7847 11.2193 13.486 11.4966C13.1873 11.7739 13.038 12.1206 13.038 12.5366C13.038 12.9206 13.182 13.2353 13.47 13.4806C13.758 13.7259 14.142 13.8486 14.622 13.8486ZM23.2701 18.0566C23.2381 18.1313 23.2008 18.2059 23.1581 18.2806C23.1261 18.3659 23.1048 18.4246 23.0941 18.4566H21.2541C21.3075 18.3393 21.3821 18.1739 21.4781 17.9606C21.5848 17.7473 21.6861 17.5339 21.7821 17.3206C21.8461 17.1819 21.9101 17.0326 21.9741 16.8726C22.0488 16.7126 22.1235 16.5473 22.1981 16.3766C22.2835 16.2059 22.3635 16.0406 22.4381 15.8806L23.0461 14.5526L19.6381 6.84061H21.5581L23.8941 12.4086H23.9741L26.2301 6.84061H28.1341L23.9101 16.5686C23.8355 16.7499 23.7501 16.9419 23.6541 17.1446C23.5688 17.3473 23.4888 17.5286 23.4141 17.6886C23.3501 17.8593 23.3021 17.9819 23.2701 18.0566ZM31.5867 15.2566C31.0001 15.2566 30.4774 15.1393 30.0187 14.9046C29.5707 14.6699 29.2134 14.3499 28.9467 13.9446C28.6907 13.5286 28.5627 13.0539 28.5627 12.5206C28.5627 11.9339 28.7121 11.4379 29.0107 11.0326C29.3201 10.6273 29.7307 10.3179 30.2427 10.1046C30.7547 9.89128 31.3201 9.78461 31.9387 9.78461C32.2801 9.78461 32.5947 9.81128 32.8827 9.86461C33.1814 9.90728 33.4374 9.96061 33.6507 10.0246C33.8747 10.0886 34.0507 10.1579 34.1787 10.2326V9.80061C34.1787 9.26728 33.9867 8.84061 33.6027 8.52061C33.2187 8.20061 32.7227 8.04061 32.1147 8.04061C31.6987 8.04061 31.3041 8.13661 30.9307 8.32861C30.5574 8.50994 30.2587 8.76061 30.0347 9.08061L28.8507 8.16861C29.0854 7.83794 29.3681 7.55528 29.6987 7.32061C30.0401 7.08594 30.4187 6.90461 30.8347 6.77661C31.2614 6.64861 31.7041 6.58461 32.1627 6.58461C33.3467 6.58461 34.2587 6.87794 34.8987 7.46461C35.5387 8.04061 35.8587 8.85128 35.8587 9.89661V15.0006H34.1787V13.9926H34.0827C33.9441 14.2059 33.7521 14.4086 33.5067 14.6006C33.2721 14.7926 32.9894 14.9473 32.6587 15.0646C32.3387 15.1926 31.9814 15.2566 31.5867 15.2566ZM31.8907 13.8486C32.3387 13.8486 32.7334 13.7419 33.0747 13.5286C33.4267 13.3153 33.6987 13.0379 33.8907 12.6966C34.0827 12.3446 34.1787 11.9659 34.1787 11.5606C33.9441 11.4219 33.6561 11.3099 33.3147 11.2246C32.9841 11.1286 32.6321 11.0806 32.2587 11.0806C31.5547 11.0806 31.0534 11.2193 30.7547 11.4966C30.4561 11.7739 30.3067 12.1206 30.3067 12.5366C30.3067 12.9206 30.4507 13.2353 30.7387 13.4806C31.0267 13.7259 31.4107 13.8486 31.8907 13.8486ZM37.9111 15.0006V6.84061H39.5431V8.04061H39.6391C39.7671 7.76328 39.9485 7.51794 40.1831 7.30461C40.4285 7.09128 40.7058 6.92061 41.0151 6.79261C41.3351 6.66461 41.6658 6.60061 42.0071 6.60061C42.2311 6.60061 42.4178 6.61661 42.5671 6.64861C42.7271 6.66994 42.8711 6.70728 42.9991 6.76061V8.55261C42.7965 8.46728 42.5885 8.39794 42.3751 8.34461C42.1725 8.29128 41.9591 8.26461 41.7351 8.26461C41.3298 8.26461 40.9671 8.37661 40.6471 8.60061C40.3378 8.81394 40.0925 9.10194 39.9111 9.46461C39.7298 9.82728 39.6391 10.2326 39.6391 10.6806V15.0006H37.9111ZM51.8554 15.2566C51.1194 15.2566 50.4527 15.0699 49.8554 14.6966C49.258 14.3233 48.7887 13.8113 48.4474 13.1606C48.106 12.5099 47.9354 11.7633 47.9354 10.9206C47.9354 10.0779 48.106 9.33128 48.4474 8.68061C48.7887 8.02994 49.258 7.51794 49.8554 7.14461C50.4527 6.77128 51.1194 6.58461 51.8554 6.58461C52.282 6.58461 52.666 6.64861 53.0074 6.77661C53.3487 6.90461 53.642 7.07528 53.8874 7.28861C54.1434 7.49128 54.3407 7.70994 54.4794 7.94461H54.5754L54.4794 6.80861V3.54461H56.1914V15.0006H54.5754V13.9126H54.4794C54.3407 14.1366 54.1434 14.3553 53.8874 14.5686C53.642 14.7713 53.3487 14.9366 53.0074 15.0646C52.666 15.1926 52.282 15.2566 51.8554 15.2566ZM52.1114 13.6726C52.538 13.6726 52.938 13.5606 53.3114 13.3366C53.6954 13.1126 53.9994 12.7979 54.2234 12.3926C54.458 11.9766 54.5754 11.4859 54.5754 10.9206C54.5754 10.3553 54.458 9.86994 54.2234 9.46461C53.9994 9.04861 53.6954 8.72861 53.3114 8.50461C52.938 8.28061 52.538 8.16861 52.1114 8.16861C51.6847 8.16861 51.2847 8.28061 50.9114 8.50461C50.538 8.72861 50.234 9.04861 49.9994 9.46461C49.7647 9.86994 49.6474 10.3553 49.6474 10.9206C49.6474 11.4753 49.7647 11.9606 49.9994 12.3766C50.234 12.7926 50.538 13.1126 50.9114 13.3366C51.2847 13.5606 51.6847 13.6726 52.1114 13.6726ZM62.0266 15.2566C61.2266 15.2566 60.512 15.0699 59.8826 14.6966C59.2533 14.3233 58.7573 13.8113 58.3946 13.1606C58.0426 12.5099 57.8666 11.7686 57.8666 10.9366C57.8666 10.1579 58.0373 9.43794 58.3786 8.77661C58.72 8.11528 59.1946 7.58728 59.8026 7.19261C60.4213 6.78728 61.1306 6.58461 61.9306 6.58461C62.7733 6.58461 63.488 6.76594 64.0746 7.12861C64.672 7.49128 65.1253 7.98728 65.4346 8.61661C65.744 9.24594 65.8986 9.95528 65.8986 10.7446C65.8986 10.8619 65.8933 10.9686 65.8826 11.0646C65.8826 11.1606 65.8773 11.2353 65.8666 11.2886H59.5626C59.6053 11.7366 59.7173 12.1259 59.8986 12.4566C60.1333 12.8726 60.4426 13.1873 60.8266 13.4006C61.2106 13.6139 61.6266 13.7206 62.0746 13.7206C62.6186 13.7206 63.072 13.5979 63.4346 13.3526C63.808 13.0966 64.1013 12.7819 64.3146 12.4086L65.7386 13.0966C65.3866 13.7366 64.9066 14.2593 64.2986 14.6646C63.6906 15.0593 62.9333 15.2566 62.0266 15.2566ZM59.6586 9.99261H64.1866C64.176 9.78994 64.1226 9.57661 64.0266 9.35261C63.9306 9.11794 63.792 8.90461 63.6106 8.71261C63.4293 8.52061 63.2 8.36594 62.9226 8.24861C62.6453 8.12061 62.32 8.05661 61.9466 8.05661C61.4773 8.05661 61.0613 8.17928 60.6986 8.42461C60.336 8.65928 60.0533 8.98994 59.8506 9.41661C59.7653 9.59794 59.7013 9.78994 59.6586 9.99261ZM67.6517 15.0006V6.84061H69.2837V7.96061H69.3797C69.6144 7.56594 69.9611 7.24061 70.4197 6.98461C70.8891 6.71794 71.4011 6.58461 71.9557 6.58461C72.9584 6.58461 73.7104 6.88328 74.2117 7.48061C74.7131 8.06728 74.9637 8.85661 74.9637 9.84861V15.0006H73.2517V10.0726C73.2517 9.41128 73.0864 8.93128 72.7557 8.63261C72.4251 8.32328 71.9931 8.16861 71.4597 8.16861C71.0437 8.16861 70.6811 8.28594 70.3717 8.52061C70.0624 8.74461 69.8171 9.04328 69.6357 9.41661C69.4651 9.78994 69.3797 10.1899 69.3797 10.6166V15.0006H67.6517ZM80.6849 18.7126C79.9702 18.7126 79.3515 18.5953 78.8289 18.3606C78.3169 18.1366 77.9009 17.8433 77.5809 17.4806C77.2609 17.1286 77.0315 16.7659 76.8929 16.3926L78.4929 15.7206C78.6635 16.1473 78.9355 16.4939 79.3089 16.7606C79.6929 17.0379 80.1515 17.1766 80.6849 17.1766C81.4422 17.1766 82.0342 16.9526 82.4609 16.5046C82.8875 16.0566 83.1009 15.4219 83.1009 14.6006V13.8166H83.0049C82.7489 14.1899 82.3969 14.4939 81.9489 14.7286C81.5009 14.9633 80.9835 15.0806 80.3969 15.0806C79.7035 15.0806 79.0635 14.9046 78.4769 14.5526C77.9009 14.2006 77.4369 13.7099 77.0849 13.0806C76.7435 12.4406 76.5729 11.6939 76.5729 10.8406C76.5729 9.97661 76.7435 9.22994 77.0849 8.60061C77.4369 7.96061 77.9009 7.46461 78.4769 7.11261C79.0635 6.76061 79.7035 6.58461 80.3969 6.58461C80.9835 6.58461 81.5009 6.70194 81.9489 6.93661C82.3969 7.16061 82.7489 7.46994 83.0049 7.86461H83.1009V6.84061H84.7489V14.5686C84.7489 15.4539 84.5729 16.2059 84.2209 16.8246C83.8795 17.4433 83.4049 17.9126 82.7969 18.2326C82.1889 18.5526 81.4849 18.7126 80.6849 18.7126ZM80.7009 13.5126C81.1275 13.5126 81.5222 13.4113 81.8849 13.2086C82.2582 12.9953 82.5515 12.6913 82.7649 12.2966C82.9889 11.8913 83.1009 11.4059 83.1009 10.8406C83.1009 10.2433 82.9889 9.74728 82.7649 9.35261C82.5515 8.95794 82.2582 8.65928 81.8849 8.45661C81.5222 8.25394 81.1275 8.15261 80.7009 8.15261C80.2742 8.15261 79.8742 8.25394 79.5009 8.45661C79.1382 8.65928 78.8449 8.96328 78.6209 9.36861C78.3969 9.76328 78.2849 10.2539 78.2849 10.8406C78.2849 11.4166 78.3969 11.9073 78.6209 12.3126C78.8449 12.7073 79.1382 13.0059 79.5009 13.2086C79.8742 13.4113 80.2742 13.5126 80.7009 13.5126ZM89.4024 15.2566C88.8157 15.2566 88.293 15.1393 87.8344 14.9046C87.3864 14.6699 87.029 14.3499 86.7624 13.9446C86.5064 13.5286 86.3784 13.0539 86.3784 12.5206C86.3784 11.9339 86.5277 11.4379 86.8264 11.0326C87.1357 10.6273 87.5464 10.3179 88.0584 10.1046C88.5704 9.89128 89.1357 9.78461 89.7544 9.78461C90.0957 9.78461 90.4104 9.81128 90.6984 9.86461C90.997 9.90728 91.253 9.96061 91.4664 10.0246C91.6904 10.0886 91.8664 10.1579 91.9944 10.2326V9.80061C91.9944 9.26728 91.8024 8.84061 91.4184 8.52061C91.0344 8.20061 90.5384 8.04061 89.9304 8.04061C89.5144 8.04061 89.1197 8.13661 88.7464 8.32861C88.373 8.50994 88.0744 8.76061 87.8504 9.08061L86.6664 8.16861C86.901 7.83794 87.1837 7.55528 87.5144 7.32061C87.8557 7.08594 88.2344 6.90461 88.6504 6.77661C89.077 6.64861 89.5197 6.58461 89.9784 6.58461C91.1624 6.58461 92.0744 6.87794 92.7144 7.46461C93.3544 8.04061 93.6744 8.85128 93.6744 9.89661V15.0006H91.9944V13.9926H91.8984C91.7597 14.2059 91.5677 14.4086 91.3224 14.6006C91.0877 14.7926 90.805 14.9473 90.4744 15.0646C90.1544 15.1926 89.797 15.2566 89.4024 15.2566ZM89.7064 13.8486C90.1544 13.8486 90.549 13.7419 90.8904 13.5286C91.2424 13.3153 91.5144 13.0379 91.7064 12.6966C91.8984 12.3446 91.9944 11.9659 91.9944 11.5606C91.7597 11.4219 91.4717 11.3099 91.1304 11.2246C90.7997 11.1286 90.4477 11.0806 90.0744 11.0806C89.3704 11.0806 88.869 11.2193 88.5704 11.4966C88.2717 11.7739 88.1224 12.1206 88.1224 12.5366C88.1224 12.9206 88.2664 13.2353 88.5544 13.4806C88.8424 13.7259 89.2264 13.8486 89.7064 13.8486ZM95.7268 15.0006V6.84061H97.3588V7.96061H97.4548C97.6894 7.56594 98.0361 7.24061 98.4948 6.98461C98.9641 6.71794 99.4761 6.58461 100.031 6.58461C101.033 6.58461 101.785 6.88328 102.287 7.48061C102.788 8.06728 103.039 8.85661 103.039 9.84861V15.0006H101.327V10.0726C101.327 9.41128 101.161 8.93128 100.831 8.63261C100.5 8.32328 100.068 8.16861 99.5348 8.16861C99.1188 8.16861 98.7561 8.28594 98.4468 8.52061C98.1374 8.74461 97.8921 9.04328 97.7108 9.41661C97.5401 9.78994 97.4548 10.1899 97.4548 10.6166V15.0006H95.7268Z" fill="white"/>
<g id="GPay (Dark)">
<g id="GPay">
<g id="Pay">
<path id="Fill 1" fill-rule="evenodd" clip-rule="evenodd" d="M132.356 3.42339V8.16175H135.278C135.974 8.16175 136.55 7.92781 137.005 7.45993C137.473 6.99313 137.707 6.43644 137.707 5.79203C137.707 5.16061 137.473 4.61041 137.005 4.14254C136.55 3.66274 135.974 3.4223 135.278 3.4223H132.356V3.42339ZM132.356 9.82966V15.3262H130.611V1.75549H135.24C136.417 1.75549 137.415 2.14756 138.238 2.93061C139.073 3.71365 139.491 4.66782 139.491 5.79203C139.491 6.94224 139.073 7.90291 138.238 8.67296C137.428 9.44409 136.429 9.82858 135.24 9.82858H132.356V9.82966Z" fill="white"/>
<path id="Fill 3" fill-rule="evenodd" clip-rule="evenodd" d="M141.255 12.4831C141.255 12.9379 141.448 13.317 141.834 13.6203C142.22 13.9235 142.672 14.0752 143.19 14.0752C143.924 14.0752 144.578 13.8032 145.153 13.2607C145.729 12.717 146.017 12.0791 146.017 11.3469C145.472 10.917 144.713 10.7025 143.74 10.7025C143.031 10.7025 142.44 10.8736 141.966 11.2148C141.492 11.5559 141.255 11.9773 141.255 12.4831M143.513 5.73566C144.803 5.73566 145.821 6.08007 146.569 6.76889C147.314 7.45771 147.687 8.40213 147.687 9.60216V15.3261H146.018V14.0373H145.942C145.221 15.0985 144.259 15.6294 143.058 15.6294C142.033 15.6294 141.176 15.3261 140.487 14.7196C139.797 14.1131 139.453 13.3549 139.453 12.4452C139.453 11.4845 139.816 10.7208 140.543 10.1523C141.271 9.58375 142.241 9.2989 143.456 9.2989C144.492 9.2989 145.346 9.48844 146.017 9.86751V9.46894C146.017 8.86243 145.776 8.34798 145.296 7.92451C144.814 7.50103 144.252 7.28984 143.607 7.28984C142.633 7.28984 141.862 7.70032 141.293 8.52235L139.755 7.55519C140.603 6.34217 141.855 5.73566 143.513 5.73566" fill="white"/>
<path id="Fill 5" fill-rule="evenodd" clip-rule="evenodd" d="M157.269 6.03894L151.443 19.4201H149.641L151.804 14.738L147.971 6.03894H149.869L152.639 12.7106H152.677L155.371 6.03894H157.269Z" fill="white"/>
</g>
<g id="G">
<path id="Fill 8" fill-rule="evenodd" clip-rule="evenodd" d="M125.303 8.64473C125.303 8.09563 125.256 7.56601 125.168 7.05914H117.806V10.0625H122.023C121.842 11.0414 121.294 11.8744 120.464 12.4322V14.3828H122.98C124.454 13.0246 125.303 11.0177 125.303 8.64473" fill="#4285F4"/>
<path id="Fill 10" fill-rule="evenodd" clip-rule="evenodd" d="M117.806 16.2651C119.913 16.2651 121.687 15.5741 122.98 14.3828L120.464 12.4322C119.763 12.9033 118.861 13.1784 117.806 13.1784C115.77 13.1784 114.042 11.8073 113.424 9.95959H110.832V11.9687C112.116 14.516 114.757 16.2651 117.806 16.2651" fill="#34A853"/>
<path id="Fill 12" fill-rule="evenodd" clip-rule="evenodd" d="M113.424 9.9596C113.266 9.48847 113.179 8.98593 113.179 8.46715C113.179 7.94837 113.266 7.44583 113.424 6.9747V4.96564H110.832C110.3 6.01837 110 7.20756 110 8.46715C110 9.72674 110.3 10.916 110.832 11.9687L113.424 9.9596Z" fill="#FABB05"/>
<path id="Fill 14" fill-rule="evenodd" clip-rule="evenodd" d="M117.806 3.75583C118.957 3.75583 119.988 4.15115 120.801 4.92553V4.92661L123.029 2.70094C121.676 1.44243 119.912 0.669128 117.806 0.669128C114.757 0.669128 112.116 2.41826 110.832 4.9656L113.424 6.97467C114.042 5.12698 115.77 3.75583 117.806 3.75583" fill="#E94235"/>
</g>
</g>
</g>
</g>
</svg>
