<svg width="276" height="38" viewBox="0 0 276 38" fill="none" xmlns="http://www.w3.org/2000/svg">
<g id="id_pay_with_Light">
<path id="Text" d="M2.87815 30V9.952H10.3822C11.4648 9.952 12.4542 10.1853 13.3502 10.652C14.2648 11.1187 14.9835 11.7533 15.5062 12.556C16.0475 13.3587 16.3182 14.264 16.3182 15.272C16.3182 16.2987 16.0568 17.176 15.5342 17.904C15.0302 18.632 14.3862 19.1827 13.6022 19.556V19.696C14.6102 20.0507 15.4315 20.6387 16.0662 21.46C16.7008 22.2627 17.0182 23.2333 17.0182 24.372C17.0182 25.492 16.7288 26.4813 16.1502 27.34C15.5902 28.18 14.8248 28.8333 13.8542 29.3C12.9022 29.7667 11.8568 30 10.7182 30H2.87815ZM10.3542 12.78H5.95815V18.38H10.2422C11.2128 18.38 11.9688 18.0907 12.5102 17.512C13.0515 16.9147 13.3222 16.2613 13.3222 15.552C13.3222 14.8613 13.0608 14.2267 12.5382 13.648C12.0155 13.0693 11.2875 12.78 10.3542 12.78ZM5.95815 27.144H10.7182C11.7262 27.144 12.5102 26.8453 13.0702 26.248C13.6488 25.632 13.9382 24.932 13.9382 24.148C13.9382 23.364 13.6488 22.664 13.0702 22.048C12.4915 21.432 11.6702 21.124 10.6062 21.124H5.95815V27.144ZM24.6815 30.448C23.6548 30.448 22.7402 30.252 21.9375 29.86C21.1348 29.4493 20.5095 28.88 20.0615 28.152C19.6135 27.424 19.3895 26.5933 19.3895 25.66C19.3895 24.652 19.6508 23.7933 20.1735 23.084C20.7148 22.356 21.4335 21.8053 22.3295 21.432C23.2255 21.0587 24.2148 20.872 25.2975 20.872C26.1935 20.872 26.9775 20.956 27.6495 21.124C28.3402 21.292 28.8628 21.4693 29.2175 21.656V20.9C29.2175 19.9667 28.8815 19.22 28.2095 18.66C27.5375 18.1 26.6695 17.82 25.6055 17.82C24.8775 17.82 24.1868 17.988 23.5335 18.324C22.8802 18.6413 22.3575 19.08 21.9655 19.64L19.8935 18.044C20.5095 17.1853 21.3215 16.5133 22.3295 16.028C23.3562 15.524 24.4762 15.272 25.6895 15.272C27.7615 15.272 29.3575 15.7853 30.4775 16.812C31.5975 17.82 32.1575 19.2387 32.1575 21.068V30H29.2175V28.236H29.0495C28.6762 28.8147 28.1162 29.328 27.3695 29.776C26.6228 30.224 25.7268 30.448 24.6815 30.448ZM25.2135 27.984C25.9975 27.984 26.6882 27.7973 27.2855 27.424C27.8828 27.0507 28.3495 26.5653 28.6855 25.968C29.0402 25.352 29.2175 24.6893 29.2175 23.98C28.7882 23.7373 28.2842 23.5413 27.7055 23.392C27.1268 23.224 26.5108 23.14 25.8575 23.14C24.6255 23.14 23.7482 23.392 23.2255 23.896C22.7028 24.3813 22.4415 24.9787 22.4415 25.688C22.4415 26.36 22.6935 26.9107 23.1975 27.34C23.7015 27.7693 24.3735 27.984 25.2135 27.984ZM40.3852 35.348C40.3292 35.4973 40.2639 35.6373 40.1892 35.768C40.1332 35.8987 40.0959 35.992 40.0772 36.048H36.8572C36.9505 35.8427 37.0812 35.544 37.2492 35.152C37.4359 34.7787 37.6132 34.4147 37.7812 34.06C37.9492 33.7053 38.1265 33.304 38.3132 32.856C38.5185 32.408 38.7239 31.9693 38.9292 31.54L39.9932 29.216L34.0292 15.72H37.3892L41.4772 25.464H41.6172L45.5652 15.72H48.8972L41.5052 32.744C41.2999 33.2293 41.0759 33.7333 40.8332 34.256C40.6092 34.7973 40.4599 35.1613 40.3852 35.348ZM54.9768 30.448C53.9501 30.448 53.0355 30.252 52.2328 29.86C51.4301 29.4493 50.8048 28.88 50.3568 28.152C49.9088 27.424 49.6848 26.5933 49.6848 25.66C49.6848 24.652 49.9461 23.7933 50.4688 23.084C51.0101 22.356 51.7288 21.8053 52.6248 21.432C53.5208 21.0587 54.5101 20.872 55.5928 20.872C56.4888 20.872 57.2728 20.956 57.9448 21.124C58.6355 21.292 59.1581 21.4693 59.5128 21.656V20.9C59.5128 19.9667 59.1768 19.22 58.5048 18.66C57.8328 18.1 56.9648 17.82 55.9008 17.82C55.1728 17.82 54.4821 17.988 53.8288 18.324C53.1755 18.6413 52.6528 19.08 52.2608 19.64L50.1888 18.044C50.8048 17.1853 51.6168 16.5133 52.6248 16.028C53.6515 15.524 54.7715 15.272 55.9848 15.272C58.0568 15.272 59.6528 15.7853 60.7728 16.812C61.8928 17.82 62.4528 19.2387 62.4528 21.068V30H59.5128V28.236H59.3448C58.9715 28.8147 58.4115 29.328 57.6648 29.776C56.9181 30.224 56.0221 30.448 54.9768 30.448ZM55.5088 27.984C56.2928 27.984 56.9835 27.7973 57.5808 27.424C58.1781 27.0507 58.6448 26.5653 58.9808 25.968C59.3355 25.352 59.5128 24.6893 59.5128 23.98C59.0835 23.7373 58.5795 23.5413 58.0008 23.392C57.4221 23.224 56.8061 23.14 56.1528 23.14C54.9208 23.14 54.0435 23.392 53.5208 23.896C52.9981 24.3813 52.7368 24.9787 52.7368 25.688C52.7368 26.36 52.9888 26.9107 53.4928 27.34C53.9968 27.7693 54.6688 27.984 55.5088 27.984ZM66.082 30V15.72H68.938V17.82H69.106C69.4233 17.092 69.9646 16.4947 70.73 16.028C71.514 15.5427 72.354 15.3 73.25 15.3C73.642 15.3 73.9686 15.328 74.23 15.384C74.51 15.44 74.762 15.5053 74.986 15.58V18.716C74.6313 18.5667 74.2673 18.4453 73.894 18.352C73.5393 18.2587 73.166 18.212 72.774 18.212C72.0646 18.212 71.43 18.408 70.87 18.8C70.3286 19.1733 69.8993 19.6867 69.582 20.34C69.2646 20.9747 69.106 21.6747 69.106 22.44V30H66.082ZM90.5594 30.448C89.2714 30.448 88.1047 30.1307 87.0594 29.496C86.0327 28.8427 85.2114 27.9467 84.5954 26.808C83.9981 25.6507 83.6994 24.3347 83.6994 22.86C83.6994 21.3853 83.9981 20.0787 84.5954 18.94C85.2114 17.8013 86.0327 16.9053 87.0594 16.252C88.1047 15.5987 89.2714 15.272 90.5594 15.272C91.6607 15.272 92.6034 15.5147 93.3874 16C94.1901 16.4853 94.7781 17.036 95.1514 17.652H95.3194L95.1514 15.664V9.952H98.1474V30H95.3194V28.096H95.1514C94.7781 28.712 94.1901 29.2627 93.3874 29.748C92.6034 30.2147 91.6607 30.448 90.5594 30.448ZM91.0074 27.676C91.7541 27.676 92.4541 27.48 93.1074 27.088C93.7794 26.696 94.3114 26.1453 94.7034 25.436C95.1141 24.708 95.3194 23.8493 95.3194 22.86C95.3194 21.8707 95.1141 21.0213 94.7034 20.312C94.3114 19.584 93.7794 19.024 93.1074 18.632C92.4541 18.24 91.7541 18.044 91.0074 18.044C90.2607 18.044 89.5607 18.24 88.9074 18.632C88.2541 19.024 87.7221 19.584 87.3114 20.312C86.9007 21.0213 86.6954 21.8707 86.6954 22.86C86.6954 23.8493 86.9007 24.708 87.3114 25.436C87.7221 26.1453 88.2541 26.696 88.9074 27.088C89.5607 27.48 90.2607 27.676 91.0074 27.676ZM108.397 30.448C106.997 30.448 105.746 30.1213 104.645 29.468C103.543 28.8147 102.675 27.9187 102.041 26.78C101.425 25.6413 101.117 24.344 101.117 22.888C101.117 21.5253 101.415 20.2653 102.013 19.108C102.61 17.9507 103.441 17.0267 104.505 16.336C105.587 15.6267 106.829 15.272 108.229 15.272C109.703 15.272 110.954 15.5893 111.981 16.224C113.026 16.8587 113.819 17.7267 114.361 18.828C114.902 19.9293 115.173 21.1707 115.173 22.552C115.173 22.7573 115.163 22.944 115.145 23.112C115.145 23.28 115.135 23.4107 115.117 23.504H104.085C104.234 24.9227 104.729 25.9867 105.569 26.696C106.427 27.4053 107.398 27.76 108.481 27.76C109.451 27.76 110.254 27.5453 110.889 27.116C111.523 26.668 112.027 26.1173 112.401 25.464L114.893 26.668C114.277 27.788 113.437 28.7027 112.373 29.412C111.309 30.1027 109.983 30.448 108.397 30.448ZM108.257 17.848C107.249 17.848 106.39 18.156 105.681 18.772C104.971 19.388 104.495 20.2093 104.253 21.236H112.177C112.139 20.7507 111.981 20.2467 111.701 19.724C111.421 19.2013 110.991 18.7627 110.413 18.408C109.853 18.0347 109.134 17.848 108.257 17.848ZM118.278 30V15.72H121.134V17.68H121.302C121.713 16.9893 122.319 16.42 123.122 15.972C123.943 15.5053 124.839 15.272 125.81 15.272C127.565 15.272 128.881 15.7947 129.758 16.84C130.635 17.8853 131.074 19.2667 131.074 20.984V30H128.078V21.376C128.078 20.2187 127.789 19.3787 127.21 18.856C126.631 18.3147 125.875 18.044 124.942 18.044C124.214 18.044 123.579 18.2493 123.038 18.66C122.497 19.052 122.067 19.5747 121.75 20.228C121.451 20.8813 121.302 21.5813 121.302 22.328V30H118.278ZM141.124 36.496C139.873 36.496 138.79 36.2907 137.876 35.88C136.98 35.488 136.252 34.9747 135.692 34.34C135.132 33.724 134.73 33.0893 134.488 32.436L137.288 31.26C137.586 32.0067 138.062 32.6133 138.716 33.08C139.388 33.5653 140.19 33.808 141.124 33.808C142.43 33.808 143.457 33.416 144.204 32.632C144.969 31.848 145.352 30.7373 145.352 29.3V27.928H145.184C144.736 28.6 144.11 29.1413 143.308 29.552C142.524 29.944 141.628 30.14 140.62 30.14C139.406 30.14 138.296 29.832 137.288 29.216C136.28 28.6 135.468 27.7413 134.852 26.64C134.236 25.52 133.928 24.2133 133.928 22.72C133.928 21.208 134.236 19.9013 134.852 18.8C135.468 17.68 136.28 16.812 137.288 16.196C138.296 15.58 139.406 15.272 140.62 15.272C141.628 15.272 142.524 15.4773 143.308 15.888C144.11 16.2987 144.736 16.84 145.184 17.512H145.352V15.72H148.236V29.244C148.236 30.7933 147.928 32.1093 147.312 33.192C146.714 34.2747 145.884 35.096 144.82 35.656C143.756 36.216 142.524 36.496 141.124 36.496ZM141.152 27.396C141.898 27.396 142.589 27.2187 143.224 26.864C143.858 26.4907 144.372 25.9587 144.764 25.268C145.156 24.5587 145.352 23.7093 145.352 22.72C145.352 21.6933 145.156 20.8347 144.764 20.144C144.372 19.4347 143.858 18.9027 143.224 18.548C142.589 18.1933 141.898 18.016 141.152 18.016C140.405 18.016 139.705 18.2027 139.052 18.576C138.417 18.9307 137.904 19.4533 137.512 20.144C137.12 20.8347 136.924 21.6933 136.924 22.72C136.924 23.728 137.12 24.5867 137.512 25.296C137.904 25.9867 138.417 26.5093 139.052 26.864C139.705 27.2187 140.405 27.396 141.152 27.396ZM156.417 30.448C155.39 30.448 154.475 30.252 153.673 29.86C152.87 29.4493 152.245 28.88 151.797 28.152C151.349 27.424 151.125 26.5933 151.125 25.66C151.125 24.652 151.386 23.7933 151.909 23.084C152.45 22.356 153.169 21.8053 154.065 21.432C154.961 21.0587 155.95 20.872 157.033 20.872C157.929 20.872 158.713 20.956 159.385 21.124C160.075 21.292 160.598 21.4693 160.953 21.656V20.9C160.953 19.9667 160.617 19.22 159.945 18.66C159.273 18.1 158.405 17.82 157.341 17.82C156.613 17.82 155.922 17.988 155.269 18.324C154.615 18.6413 154.093 19.08 153.701 19.64L151.629 18.044C152.245 17.1853 153.057 16.5133 154.065 16.028C155.091 15.524 156.211 15.272 157.425 15.272C159.497 15.272 161.093 15.7853 162.213 16.812C163.333 17.82 163.893 19.2387 163.893 21.068V30H160.953V28.236H160.785C160.411 28.8147 159.851 29.328 159.105 29.776C158.358 30.224 157.462 30.448 156.417 30.448ZM156.949 27.984C157.733 27.984 158.423 27.7973 159.021 27.424C159.618 27.0507 160.085 26.5653 160.421 25.968C160.775 25.352 160.953 24.6893 160.953 23.98C160.523 23.7373 160.019 23.5413 159.441 23.392C158.862 23.224 158.246 23.14 157.593 23.14C156.361 23.14 155.483 23.392 154.961 23.896C154.438 24.3813 154.177 24.9787 154.177 25.688C154.177 26.36 154.429 26.9107 154.933 27.34C155.437 27.7693 156.109 27.984 156.949 27.984ZM167.522 30V15.72H170.378V17.68H170.546C170.956 16.9893 171.563 16.42 172.366 15.972C173.187 15.5053 174.083 15.272 175.054 15.272C176.808 15.272 178.124 15.7947 179.002 16.84C179.879 17.8853 180.318 19.2667 180.318 20.984V30H177.322V21.376C177.322 20.2187 177.032 19.3787 176.454 18.856C175.875 18.3147 175.119 18.044 174.186 18.044C173.458 18.044 172.823 18.2493 172.282 18.66C171.74 19.052 171.311 19.5747 170.994 20.228C170.695 20.8813 170.546 21.5813 170.546 22.328V30H167.522Z" fill="#3C4043"/>
<g id="GPay Logo (Light)">
<g id="GPay">
<g id="Pay">
<path id="Fill 1" fill-rule="evenodd" clip-rule="evenodd" d="M232.529 9.44664V17.6128H237.565C238.765 17.6128 239.757 17.2096 240.541 16.4032C241.347 15.5988 241.75 14.6394 241.75 13.5288C241.75 12.4406 241.347 11.4924 240.541 10.686C239.757 9.85915 238.765 9.44478 237.565 9.44478H232.529V9.44664ZM232.529 20.4872V29.9599H229.521V6.57217H237.499C239.527 6.57217 241.248 7.24786 242.666 8.59737C244.105 9.94688 244.824 11.5913 244.824 13.5288C244.824 15.511 244.105 17.1667 242.666 18.4938C241.27 19.8227 239.547 20.4854 237.499 20.4854H232.529V20.4872Z" fill="#5F6368"/>
<path id="Fill 3" fill-rule="evenodd" clip-rule="evenodd" d="M247.864 25.0602C247.864 25.8442 248.197 26.4975 248.862 27.0201C249.527 27.5427 250.306 27.804 251.2 27.804C252.465 27.804 253.591 27.3354 254.584 26.4004C255.576 25.4634 256.071 24.364 256.071 23.1022C255.133 22.3612 253.825 21.9916 252.147 21.9916C250.925 21.9916 249.907 22.2865 249.09 22.8745C248.273 23.4623 247.864 24.1886 247.864 25.0602ZM251.756 13.4317C253.98 13.4317 255.735 14.0252 257.022 15.2124C258.308 16.3995 258.95 18.0271 258.95 20.0952V29.9599H256.073V27.7387H255.942C254.699 29.5677 253.042 30.4825 250.972 30.4825C249.206 30.4825 247.728 29.9599 246.541 28.9146C245.353 27.8694 244.759 26.5628 244.759 24.9949C244.759 23.3393 245.385 22.0232 246.638 21.0434C247.892 20.0635 249.565 19.5726 251.658 19.5726C253.444 19.5726 254.916 19.8992 256.071 20.5525V19.8656C256.071 18.8204 255.656 17.9338 254.829 17.204C253.999 16.4741 253.031 16.1102 251.919 16.1102C250.239 16.1102 248.911 16.8176 247.93 18.2343L245.28 16.5675C246.741 14.4769 248.899 13.4317 251.756 13.4317Z" fill="#5F6368"/>
<path id="Fill 5" fill-rule="evenodd" clip-rule="evenodd" d="M275.463 13.9543L265.424 37.0154H262.318L266.046 28.9464L259.44 13.9543H262.71L267.484 25.4522H267.55L272.193 13.9543H275.463Z" fill="#5F6368"/>
</g>
<g id="G">
<path id="Fill 8" fill-rule="evenodd" clip-rule="evenodd" d="M220.373 18.4452C220.373 17.4989 220.293 16.5861 220.141 15.7126H207.454V20.8885H214.72C214.408 22.5757 213.465 24.0112 212.033 24.9725V28.3341H216.37C218.91 25.9935 220.373 22.5348 220.373 18.4452Z" fill="#4285F4"/>
<path id="Fill 10" fill-rule="evenodd" clip-rule="evenodd" d="M207.454 31.5782C211.084 31.5782 214.141 30.3873 216.37 28.3341L212.033 24.9725C210.826 25.7844 209.272 26.2585 207.454 26.2585C203.944 26.2585 200.966 23.8955 199.901 20.7112H195.433V24.1736C197.647 28.5637 202.197 31.5782 207.454 31.5782Z" fill="#34A853"/>
<path id="Fill 12" fill-rule="evenodd" clip-rule="evenodd" d="M199.901 20.7111C199.628 19.8992 199.479 19.0331 199.479 18.139C199.479 17.245 199.628 16.3789 199.901 15.567V12.1045H195.433C194.518 13.9188 194 15.9683 194 18.139C194 20.3098 194.518 22.3595 195.433 24.1736L199.901 20.7111Z" fill="#FABB05"/>
<path id="Fill 14" fill-rule="evenodd" clip-rule="evenodd" d="M207.454 10.0196C209.436 10.0196 211.213 10.7009 212.615 12.0355V12.0374L216.455 8.20162C214.123 6.03271 211.082 4.7 207.454 4.7C202.197 4.7 197.647 7.71446 195.433 12.1046L199.901 15.567C200.966 12.3827 203.944 10.0196 207.454 10.0196Z" fill="#E94235"/>
</g>
</g>
</g>
</g>
</svg>
