<svg width="220" height="21" viewBox="0 0 220 21" fill="none" xmlns="http://www.w3.org/2000/svg">
<g id="id_subscribe_with_Pay_NBG">
<path id="Left Text" d="M2.2835 15.0006V3.54461H6.5715C7.20084 3.54461 7.7715 3.67794 8.2835 3.94461C8.7955 4.21128 9.20084 4.57394 9.4995 5.03261C9.80884 5.49128 9.9635 6.00861 9.9635 6.58461C9.9635 7.17128 9.8195 7.67261 9.5315 8.08861C9.2435 8.50461 8.87017 8.81928 8.4115 9.03261V9.11261C8.9875 9.30461 9.45684 9.63528 9.8195 10.1046C10.1822 10.5739 10.3635 11.1339 10.3635 11.7846C10.3635 12.4246 10.1982 12.9846 9.8675 13.4646C9.5475 13.9446 9.11017 14.3233 8.5555 14.6006C8.0115 14.8673 7.41417 15.0006 6.7635 15.0006H2.2835ZM4.0435 9.92861V13.3686H6.7635C7.1475 13.3686 7.47817 13.2886 7.7555 13.1286C8.03284 12.9686 8.24084 12.7553 8.3795 12.4886C8.52884 12.2219 8.6035 11.9446 8.6035 11.6566C8.6035 11.3473 8.52884 11.0646 8.3795 10.8086C8.23017 10.5419 8.0115 10.3286 7.7235 10.1686C7.44617 10.0086 7.10484 9.92861 6.6995 9.92861H4.0435ZM4.0435 8.36061H6.4915C6.86484 8.36061 7.1795 8.28594 7.4355 8.13661C7.70217 7.97661 7.90484 7.77394 8.0435 7.52861C8.18217 7.27261 8.2515 7.01128 8.2515 6.74461C8.2515 6.47794 8.18217 6.22728 8.0435 5.99261C7.9155 5.74728 7.7235 5.54994 7.4675 5.40061C7.2115 5.24061 6.9075 5.16061 6.5555 5.16061H4.0435V8.36061ZM15.8891 15.2566C15.0891 15.2566 14.3745 15.0699 13.7451 14.6966C13.1158 14.3233 12.6198 13.8113 12.2571 13.1606C11.9051 12.5099 11.7291 11.7686 11.7291 10.9366C11.7291 10.1579 11.8998 9.43794 12.2411 8.77661C12.5825 8.11528 13.0571 7.58728 13.6651 7.19261C14.2838 6.78728 14.9931 6.58461 15.7931 6.58461C16.6358 6.58461 17.3505 6.76594 17.9371 7.12861C18.5345 7.49128 18.9878 7.98728 19.2971 8.61661C19.6065 9.24594 19.7611 9.95528 19.7611 10.7446C19.7611 10.8619 19.7558 10.9686 19.7451 11.0646C19.7451 11.1606 19.7398 11.2353 19.7291 11.2886H13.4251C13.4678 11.7366 13.5798 12.1259 13.7611 12.4566C13.9958 12.8726 14.3051 13.1873 14.6891 13.4006C15.0731 13.6139 15.4891 13.7206 15.9371 13.7206C16.4811 13.7206 16.9345 13.5979 17.2971 13.3526C17.6705 13.0966 17.9638 12.7819 18.1771 12.4086L19.6011 13.0966C19.2491 13.7366 18.7691 14.2593 18.1611 14.6646C17.5531 15.0593 16.7958 15.2566 15.8891 15.2566ZM13.5211 9.99261H18.0491C18.0385 9.78994 17.9851 9.57661 17.8891 9.35261C17.7931 9.11794 17.6545 8.90461 17.4731 8.71261C17.2918 8.52061 17.0625 8.36594 16.7851 8.24861C16.5078 8.12061 16.1825 8.05661 15.8091 8.05661C15.3398 8.05661 14.9238 8.17928 14.5611 8.42461C14.1985 8.65928 13.9158 8.98994 13.7131 9.41661C13.6278 9.59794 13.5638 9.78994 13.5211 9.99261ZM21.5143 15.0006V6.84061H23.1463V8.04061H23.2423C23.3703 7.76328 23.5516 7.51794 23.7863 7.30461C24.0316 7.09128 24.3089 6.92061 24.6183 6.79261C24.9383 6.66461 25.2689 6.60061 25.6103 6.60061C25.8343 6.60061 26.0209 6.61661 26.1703 6.64861C26.3303 6.66994 26.4743 6.70728 26.6023 6.76061V8.55261C26.3996 8.46728 26.1916 8.39794 25.9783 8.34461C25.7756 8.29128 25.5623 8.26461 25.3383 8.26461C24.9329 8.26461 24.5703 8.37661 24.2503 8.60061C23.9409 8.81394 23.6956 9.10194 23.5143 9.46461C23.3329 9.82728 23.2423 10.2326 23.2423 10.6806V15.0006H21.5143ZM28.1803 15.0006V3.54461H29.9083V15.0006H28.1803ZM34.5774 15.2566C33.9907 15.2566 33.468 15.1393 33.0094 14.9046C32.5614 14.6699 32.204 14.3499 31.9374 13.9446C31.6814 13.5286 31.5534 13.0539 31.5534 12.5206C31.5534 11.9339 31.7027 11.4379 32.0014 11.0326C32.3107 10.6273 32.7214 10.3179 33.2334 10.1046C33.7454 9.89128 34.3107 9.78461 34.9294 9.78461C35.2707 9.78461 35.5854 9.81128 35.8734 9.86461C36.172 9.90728 36.428 9.96061 36.6414 10.0246C36.8654 10.0886 37.0414 10.1579 37.1694 10.2326V9.80061C37.1694 9.26728 36.9774 8.84061 36.5934 8.52061C36.2094 8.20061 35.7134 8.04061 35.1054 8.04061C34.6894 8.04061 34.2947 8.13661 33.9214 8.32861C33.548 8.50994 33.2494 8.76061 33.0254 9.08061L31.8414 8.16861C32.076 7.83794 32.3587 7.55528 32.6894 7.32061C33.0307 7.08594 33.4094 6.90461 33.8254 6.77661C34.252 6.64861 34.6947 6.58461 35.1534 6.58461C36.3374 6.58461 37.2494 6.87794 37.8894 7.46461C38.5294 8.04061 38.8494 8.85128 38.8494 9.89661V15.0006H37.1694V13.9926H37.0734C36.9347 14.2059 36.7427 14.4086 36.4974 14.6006C36.2627 14.7926 35.98 14.9473 35.6494 15.0646C35.3294 15.1926 34.972 15.2566 34.5774 15.2566ZM34.8814 13.8486C35.3294 13.8486 35.724 13.7419 36.0654 13.5286C36.4174 13.3153 36.6894 13.0379 36.8814 12.6966C37.0734 12.3446 37.1694 11.9659 37.1694 11.5606C36.9347 11.4219 36.6467 11.3099 36.3054 11.2246C35.9747 11.1286 35.6227 11.0806 35.2494 11.0806C34.5454 11.0806 34.044 11.2193 33.7454 11.4966C33.4467 11.7739 33.2974 12.1206 33.2974 12.5366C33.2974 12.9206 33.4414 13.2353 33.7294 13.4806C34.0174 13.7259 34.4014 13.8486 34.8814 13.8486ZM40.9018 15.0006V6.84061H42.5338V7.96061H42.6298C42.8644 7.56594 43.2111 7.24061 43.6698 6.98461C44.1391 6.71794 44.6511 6.58461 45.2058 6.58461C46.2084 6.58461 46.9604 6.88328 47.4618 7.48061C47.9631 8.06728 48.2138 8.85661 48.2138 9.84861V15.0006H46.5018V10.0726C46.5018 9.41128 46.3364 8.93128 46.0058 8.63261C45.6751 8.32328 45.2431 8.16861 44.7098 8.16861C44.2938 8.16861 43.9311 8.28594 43.6218 8.52061C43.3124 8.74461 43.0671 9.04328 42.8858 9.41661C42.7151 9.78994 42.6298 10.1899 42.6298 10.6166V15.0006H40.9018ZM53.9349 18.7126C53.2202 18.7126 52.6015 18.5953 52.0789 18.3606C51.5669 18.1366 51.1509 17.8433 50.8309 17.4806C50.5109 17.1286 50.2815 16.7659 50.1429 16.3926L51.7429 15.7206C51.9135 16.1473 52.1855 16.4939 52.5589 16.7606C52.9429 17.0379 53.4015 17.1766 53.9349 17.1766C54.6922 17.1766 55.2842 16.9526 55.7109 16.5046C56.1375 16.0566 56.3509 15.4219 56.3509 14.6006V13.8166H56.2549C55.9989 14.1899 55.6469 14.4939 55.1989 14.7286C54.7509 14.9633 54.2335 15.0806 53.6469 15.0806C52.9535 15.0806 52.3135 14.9046 51.7269 14.5526C51.1509 14.2006 50.6869 13.7099 50.3349 13.0806C49.9935 12.4406 49.8229 11.6939 49.8229 10.8406C49.8229 9.97661 49.9935 9.22994 50.3349 8.60061C50.6869 7.96061 51.1509 7.46461 51.7269 7.11261C52.3135 6.76061 52.9535 6.58461 53.6469 6.58461C54.2335 6.58461 54.7509 6.70194 55.1989 6.93661C55.6469 7.16061 55.9989 7.46994 56.2549 7.86461H56.3509V6.84061H57.9989V14.5686C57.9989 15.4539 57.8229 16.2059 57.4709 16.8246C57.1295 17.4433 56.6549 17.9126 56.0469 18.2326C55.4389 18.5526 54.7349 18.7126 53.9349 18.7126ZM53.9509 13.5126C54.3775 13.5126 54.7722 13.4113 55.1349 13.2086C55.5082 12.9953 55.8015 12.6913 56.0149 12.2966C56.2389 11.8913 56.3509 11.4059 56.3509 10.8406C56.3509 10.2433 56.2389 9.74728 56.0149 9.35261C55.8015 8.95794 55.5082 8.65928 55.1349 8.45661C54.7722 8.25394 54.3775 8.15261 53.9509 8.15261C53.5242 8.15261 53.1242 8.25394 52.7509 8.45661C52.3882 8.65928 52.0949 8.96328 51.8709 9.36861C51.6469 9.76328 51.5349 10.2539 51.5349 10.8406C51.5349 11.4166 51.6469 11.9073 51.8709 12.3126C52.0949 12.7073 52.3882 13.0059 52.7509 13.2086C53.1242 13.4113 53.5242 13.5126 53.9509 13.5126ZM63.7724 18.7126C63.0577 18.7126 62.439 18.5953 61.9164 18.3606C61.4044 18.1366 60.9884 17.8433 60.6684 17.4806C60.3484 17.1286 60.119 16.7659 59.9804 16.3926L61.5804 15.7206C61.751 16.1473 62.023 16.4939 62.3964 16.7606C62.7804 17.0379 63.239 17.1766 63.7724 17.1766C64.5297 17.1766 65.1217 16.9526 65.5484 16.5046C65.975 16.0566 66.1884 15.4219 66.1884 14.6006V13.8166H66.0924C65.8364 14.1899 65.4844 14.4939 65.0364 14.7286C64.5884 14.9633 64.071 15.0806 63.4844 15.0806C62.791 15.0806 62.151 14.9046 61.5644 14.5526C60.9884 14.2006 60.5244 13.7099 60.1724 13.0806C59.831 12.4406 59.6604 11.6939 59.6604 10.8406C59.6604 9.97661 59.831 9.22994 60.1724 8.60061C60.5244 7.96061 60.9884 7.46461 61.5644 7.11261C62.151 6.76061 62.791 6.58461 63.4844 6.58461C64.071 6.58461 64.5884 6.70194 65.0364 6.93661C65.4844 7.16061 65.8364 7.46994 66.0924 7.86461H66.1884V6.84061H67.8364V14.5686C67.8364 15.4539 67.6604 16.2059 67.3084 16.8246C66.967 17.4433 66.4924 17.9126 65.8844 18.2326C65.2764 18.5526 64.5724 18.7126 63.7724 18.7126ZM63.7884 13.5126C64.215 13.5126 64.6097 13.4113 64.9724 13.2086C65.3457 12.9953 65.639 12.6913 65.8524 12.2966C66.0764 11.8913 66.1884 11.4059 66.1884 10.8406C66.1884 10.2433 66.0764 9.74728 65.8524 9.35261C65.639 8.95794 65.3457 8.65928 64.9724 8.45661C64.6097 8.25394 64.215 8.15261 63.7884 8.15261C63.3617 8.15261 62.9617 8.25394 62.5884 8.45661C62.2257 8.65928 61.9324 8.96328 61.7084 9.36861C61.4844 9.76328 61.3724 10.2539 61.3724 10.8406C61.3724 11.4166 61.4844 11.9073 61.7084 12.3126C61.9324 12.7073 62.2257 13.0059 62.5884 13.2086C62.9617 13.4113 63.3617 13.5126 63.7884 13.5126ZM72.4899 15.2566C71.9032 15.2566 71.3805 15.1393 70.9219 14.9046C70.4739 14.6699 70.1165 14.3499 69.8499 13.9446C69.5939 13.5286 69.4659 13.0539 69.4659 12.5206C69.4659 11.9339 69.6152 11.4379 69.9139 11.0326C70.2232 10.6273 70.6339 10.3179 71.1459 10.1046C71.6579 9.89128 72.2232 9.78461 72.8419 9.78461C73.1832 9.78461 73.4979 9.81128 73.7859 9.86461C74.0845 9.90728 74.3405 9.96061 74.5539 10.0246C74.7779 10.0886 74.9539 10.1579 75.0819 10.2326V9.80061C75.0819 9.26728 74.8899 8.84061 74.5059 8.52061C74.1219 8.20061 73.6259 8.04061 73.0179 8.04061C72.6019 8.04061 72.2072 8.13661 71.8339 8.32861C71.4605 8.50994 71.1619 8.76061 70.9379 9.08061L69.7539 8.16861C69.9885 7.83794 70.2712 7.55528 70.6019 7.32061C70.9432 7.08594 71.3219 6.90461 71.7379 6.77661C72.1645 6.64861 72.6072 6.58461 73.0659 6.58461C74.2499 6.58461 75.1619 6.87794 75.8019 7.46461C76.4419 8.04061 76.7619 8.85128 76.7619 9.89661V15.0006H75.0819V13.9926H74.9859C74.8472 14.2059 74.6552 14.4086 74.4099 14.6006C74.1752 14.7926 73.8925 14.9473 73.5619 15.0646C73.2419 15.1926 72.8845 15.2566 72.4899 15.2566ZM72.7939 13.8486C73.2419 13.8486 73.6365 13.7419 73.9779 13.5286C74.3299 13.3153 74.6019 13.0379 74.7939 12.6966C74.9859 12.3446 75.0819 11.9659 75.0819 11.5606C74.8472 11.4219 74.5592 11.3099 74.2179 11.2246C73.8872 11.1286 73.5352 11.0806 73.1619 11.0806C72.4579 11.0806 71.9565 11.2193 71.6579 11.4966C71.3592 11.7739 71.2099 12.1206 71.2099 12.5366C71.2099 12.9206 71.3539 13.2353 71.6419 13.4806C71.9299 13.7259 72.3139 13.8486 72.7939 13.8486ZM78.8143 15.0006V6.84061H80.4463V7.96061H80.5423C80.7769 7.56594 81.1236 7.24061 81.5823 6.98461C82.0516 6.71794 82.5636 6.58461 83.1183 6.58461C84.1209 6.58461 84.8729 6.88328 85.3743 7.48061C85.8756 8.06728 86.1263 8.85661 86.1263 9.84861V15.0006H84.4143V10.0726C84.4143 9.41128 84.2489 8.93128 83.9183 8.63261C83.5876 8.32328 83.1556 8.16861 82.6223 8.16861C82.2063 8.16861 81.8436 8.28594 81.5343 8.52061C81.2249 8.74461 80.9796 9.04328 80.7983 9.41661C80.6276 9.78994 80.5423 10.1899 80.5423 10.6166V15.0006H78.8143ZM90.7274 15.2566C90.1407 15.2566 89.618 15.1393 89.1594 14.9046C88.7114 14.6699 88.354 14.3499 88.0874 13.9446C87.8314 13.5286 87.7034 13.0539 87.7034 12.5206C87.7034 11.9339 87.8527 11.4379 88.1514 11.0326C88.4607 10.6273 88.8714 10.3179 89.3834 10.1046C89.8954 9.89128 90.4607 9.78461 91.0794 9.78461C91.4207 9.78461 91.7354 9.81128 92.0234 9.86461C92.322 9.90728 92.578 9.96061 92.7914 10.0246C93.0154 10.0886 93.1914 10.1579 93.3194 10.2326V9.80061C93.3194 9.26728 93.1274 8.84061 92.7434 8.52061C92.3594 8.20061 91.8634 8.04061 91.2554 8.04061C90.8394 8.04061 90.4447 8.13661 90.0714 8.32861C89.698 8.50994 89.3994 8.76061 89.1754 9.08061L87.9914 8.16861C88.226 7.83794 88.5087 7.55528 88.8394 7.32061C89.1807 7.08594 89.5594 6.90461 89.9754 6.77661C90.402 6.64861 90.8447 6.58461 91.3034 6.58461C92.4874 6.58461 93.3994 6.87794 94.0394 7.46461C94.6794 8.04061 94.9994 8.85128 94.9994 9.89661V15.0006H93.3194V13.9926H93.2234C93.0847 14.2059 92.8927 14.4086 92.6474 14.6006C92.4127 14.7926 92.13 14.9473 91.7994 15.0646C91.4794 15.1926 91.122 15.2566 90.7274 15.2566ZM91.0314 13.8486C91.4794 13.8486 91.874 13.7419 92.2154 13.5286C92.5674 13.3153 92.8394 13.0379 93.0314 12.6966C93.2234 12.3446 93.3194 11.9659 93.3194 11.5606C93.0847 11.4219 92.7967 11.3099 92.4554 11.2246C92.1247 11.1286 91.7727 11.0806 91.3994 11.0806C90.6954 11.0806 90.194 11.2193 89.8954 11.4966C89.5967 11.7739 89.4474 12.1206 89.4474 12.5366C89.4474 12.9206 89.5914 13.2353 89.8794 13.4806C90.1674 13.7259 90.5514 13.8486 91.0314 13.8486ZM97.0518 15.0006V6.84061H98.6838V7.96061H98.7798C99.0144 7.56594 99.3611 7.24061 99.8198 6.98461C100.289 6.71794 100.801 6.58461 101.356 6.58461C102.358 6.58461 103.11 6.88328 103.612 7.48061C104.113 8.06728 104.364 8.85661 104.364 9.84861V15.0006H102.652V10.0726C102.652 9.41128 102.486 8.93128 102.156 8.63261C101.825 8.32328 101.393 8.16861 100.86 8.16861C100.444 8.16861 100.081 8.28594 99.7718 8.52061C99.4624 8.74461 99.2171 9.04328 99.0358 9.41661C98.8651 9.78994 98.7798 10.1899 98.7798 10.6166V15.0006H97.0518ZM113.855 15.2566C113.119 15.2566 112.453 15.0699 111.855 14.6966C111.258 14.3233 110.789 13.8113 110.447 13.1606C110.106 12.5099 109.935 11.7633 109.935 10.9206C109.935 10.0779 110.106 9.33128 110.447 8.68061C110.789 8.02994 111.258 7.51794 111.855 7.14461C112.453 6.77128 113.119 6.58461 113.855 6.58461C114.282 6.58461 114.666 6.64861 115.007 6.77661C115.349 6.90461 115.642 7.07528 115.887 7.28861C116.143 7.49128 116.341 7.70994 116.479 7.94461H116.575L116.479 6.80861V3.54461H118.191V15.0006H116.575V13.9126H116.479C116.341 14.1366 116.143 14.3553 115.887 14.5686C115.642 14.7713 115.349 14.9366 115.007 15.0646C114.666 15.1926 114.282 15.2566 113.855 15.2566ZM114.111 13.6726C114.538 13.6726 114.938 13.5606 115.311 13.3366C115.695 13.1126 115.999 12.7979 116.223 12.3926C116.458 11.9766 116.575 11.4859 116.575 10.9206C116.575 10.3553 116.458 9.86994 116.223 9.46461C115.999 9.04861 115.695 8.72861 115.311 8.50461C114.938 8.28061 114.538 8.16861 114.111 8.16861C113.685 8.16861 113.285 8.28061 112.911 8.50461C112.538 8.72861 112.234 9.04861 111.999 9.46461C111.765 9.86994 111.647 10.3553 111.647 10.9206C111.647 11.4753 111.765 11.9606 111.999 12.3766C112.234 12.7926 112.538 13.1126 112.911 13.3366C113.285 13.5606 113.685 13.6726 114.111 13.6726ZM124.027 15.2566C123.227 15.2566 122.512 15.0699 121.883 14.6966C121.253 14.3233 120.757 13.8113 120.395 13.1606C120.043 12.5099 119.867 11.7686 119.867 10.9366C119.867 10.1579 120.037 9.43794 120.379 8.77661C120.72 8.11528 121.195 7.58728 121.803 7.19261C122.421 6.78728 123.131 6.58461 123.931 6.58461C124.773 6.58461 125.488 6.76594 126.075 7.12861C126.672 7.49128 127.125 7.98728 127.435 8.61661C127.744 9.24594 127.899 9.95528 127.899 10.7446C127.899 10.8619 127.893 10.9686 127.883 11.0646C127.883 11.1606 127.877 11.2353 127.867 11.2886H121.563C121.605 11.7366 121.717 12.1259 121.899 12.4566C122.133 12.8726 122.443 13.1873 122.827 13.4006C123.211 13.6139 123.627 13.7206 124.075 13.7206C124.619 13.7206 125.072 13.5979 125.435 13.3526C125.808 13.0966 126.101 12.7819 126.315 12.4086L127.739 13.0966C127.387 13.7366 126.907 14.2593 126.299 14.6646C125.691 15.0593 124.933 15.2566 124.027 15.2566ZM121.659 9.99261H126.187C126.176 9.78994 126.123 9.57661 126.027 9.35261C125.931 9.11794 125.792 8.90461 125.611 8.71261C125.429 8.52061 125.2 8.36594 124.923 8.24861C124.645 8.12061 124.32 8.05661 123.947 8.05661C123.477 8.05661 123.061 8.17928 122.699 8.42461C122.336 8.65928 122.053 8.98994 121.851 9.41661C121.765 9.59794 121.701 9.78994 121.659 9.99261ZM129.652 15.0006V6.84061H131.284V7.96061H131.38C131.614 7.56594 131.961 7.24061 132.42 6.98461C132.889 6.71794 133.401 6.58461 133.956 6.58461C134.958 6.58461 135.71 6.88328 136.212 7.48061C136.713 8.06728 136.964 8.85661 136.964 9.84861V15.0006H135.252V10.0726C135.252 9.41128 135.086 8.93128 134.756 8.63261C134.425 8.32328 133.993 8.16861 133.46 8.16861C133.044 8.16861 132.681 8.28594 132.372 8.52061C132.062 8.74461 131.817 9.04328 131.636 9.41661C131.465 9.78994 131.38 10.1899 131.38 10.6166V15.0006H129.652ZM142.685 18.7126C141.97 18.7126 141.352 18.5953 140.829 18.3606C140.317 18.1366 139.901 17.8433 139.581 17.4806C139.261 17.1286 139.032 16.7659 138.893 16.3926L140.493 15.7206C140.664 16.1473 140.936 16.4939 141.309 16.7606C141.693 17.0379 142.152 17.1766 142.685 17.1766C143.442 17.1766 144.034 16.9526 144.461 16.5046C144.888 16.0566 145.101 15.4219 145.101 14.6006V13.8166H145.005C144.749 14.1899 144.397 14.4939 143.949 14.7286C143.501 14.9633 142.984 15.0806 142.397 15.0806C141.704 15.0806 141.064 14.9046 140.477 14.5526C139.901 14.2006 139.437 13.7099 139.085 13.0806C138.744 12.4406 138.573 11.6939 138.573 10.8406C138.573 9.97661 138.744 9.22994 139.085 8.60061C139.437 7.96061 139.901 7.46461 140.477 7.11261C141.064 6.76061 141.704 6.58461 142.397 6.58461C142.984 6.58461 143.501 6.70194 143.949 6.93661C144.397 7.16061 144.749 7.46994 145.005 7.86461H145.101V6.84061H146.749V14.5686C146.749 15.4539 146.573 16.2059 146.221 16.8246C145.88 17.4433 145.405 17.9126 144.797 18.2326C144.189 18.5526 143.485 18.7126 142.685 18.7126ZM142.701 13.5126C143.128 13.5126 143.522 13.4113 143.885 13.2086C144.258 12.9953 144.552 12.6913 144.765 12.2966C144.989 11.8913 145.101 11.4059 145.101 10.8406C145.101 10.2433 144.989 9.74728 144.765 9.35261C144.552 8.95794 144.258 8.65928 143.885 8.45661C143.522 8.25394 143.128 8.15261 142.701 8.15261C142.274 8.15261 141.874 8.25394 141.501 8.45661C141.138 8.65928 140.845 8.96328 140.621 9.36861C140.397 9.76328 140.285 10.2539 140.285 10.8406C140.285 11.4166 140.397 11.9073 140.621 12.3126C140.845 12.7073 141.138 13.0059 141.501 13.2086C141.874 13.4113 142.274 13.5126 142.701 13.5126ZM151.402 15.2566C150.816 15.2566 150.293 15.1393 149.834 14.9046C149.386 14.6699 149.029 14.3499 148.762 13.9446C148.506 13.5286 148.378 13.0539 148.378 12.5206C148.378 11.9339 148.528 11.4379 148.826 11.0326C149.136 10.6273 149.546 10.3179 150.058 10.1046C150.57 9.89128 151.136 9.78461 151.754 9.78461C152.096 9.78461 152.41 9.81128 152.698 9.86461C152.997 9.90728 153.253 9.96061 153.466 10.0246C153.69 10.0886 153.866 10.1579 153.994 10.2326V9.80061C153.994 9.26728 153.802 8.84061 153.418 8.52061C153.034 8.20061 152.538 8.04061 151.93 8.04061C151.514 8.04061 151.12 8.13661 150.746 8.32861C150.373 8.50994 150.074 8.76061 149.85 9.08061L148.666 8.16861C148.901 7.83794 149.184 7.55528 149.514 7.32061C149.856 7.08594 150.234 6.90461 150.65 6.77661C151.077 6.64861 151.52 6.58461 151.978 6.58461C153.162 6.58461 154.074 6.87794 154.714 7.46461C155.354 8.04061 155.674 8.85128 155.674 9.89661V15.0006H153.994V13.9926H153.898C153.76 14.2059 153.568 14.4086 153.322 14.6006C153.088 14.7926 152.805 14.9473 152.474 15.0646C152.154 15.1926 151.797 15.2566 151.402 15.2566ZM151.706 13.8486C152.154 13.8486 152.549 13.7419 152.89 13.5286C153.242 13.3153 153.514 13.0379 153.706 12.6966C153.898 12.3446 153.994 11.9659 153.994 11.5606C153.76 11.4219 153.472 11.3099 153.13 11.2246C152.8 11.1286 152.448 11.0806 152.074 11.0806C151.37 11.0806 150.869 11.2193 150.57 11.4966C150.272 11.7739 150.122 12.1206 150.122 12.5366C150.122 12.9206 150.266 13.2353 150.554 13.4806C150.842 13.7259 151.226 13.8486 151.706 13.8486ZM157.727 15.0006V6.84061H159.359V7.96061H159.455C159.689 7.56594 160.036 7.24061 160.495 6.98461C160.964 6.71794 161.476 6.58461 162.031 6.58461C163.033 6.58461 163.785 6.88328 164.287 7.48061C164.788 8.06728 165.039 8.85661 165.039 9.84861V15.0006H163.327V10.0726C163.327 9.41128 163.161 8.93128 162.831 8.63261C162.5 8.32328 162.068 8.16861 161.535 8.16861C161.119 8.16861 160.756 8.28594 160.447 8.52061C160.137 8.74461 159.892 9.04328 159.711 9.41661C159.54 9.78994 159.455 10.1899 159.455 10.6166V15.0006H157.727Z" fill="white"/>
<g id="GPay (Dark)">
<g id="GPay">
<g id="Pay">
<path id="Fill 1" fill-rule="evenodd" clip-rule="evenodd" d="M194.356 3.42339V8.16175H197.278C197.974 8.16175 198.55 7.92781 199.005 7.45993C199.473 6.99313 199.707 6.43644 199.707 5.79203C199.707 5.16061 199.473 4.61041 199.005 4.14254C198.55 3.66274 197.974 3.4223 197.278 3.4223H194.356V3.42339ZM194.356 9.82966V15.3262H192.611V1.75549H197.24C198.417 1.75549 199.415 2.14756 200.238 2.93061C201.073 3.71365 201.491 4.66782 201.491 5.79203C201.491 6.94224 201.073 7.90291 200.238 8.67296C199.428 9.44409 198.429 9.82858 197.24 9.82858H194.356V9.82966Z" fill="white"/>
<path id="Fill 3" fill-rule="evenodd" clip-rule="evenodd" d="M203.255 12.4831C203.255 12.9379 203.448 13.317 203.834 13.6203C204.22 13.9235 204.672 14.0752 205.19 14.0752C205.924 14.0752 206.578 13.8032 207.153 13.2607C207.729 12.717 208.017 12.0791 208.017 11.3469C207.472 10.917 206.713 10.7025 205.74 10.7025C205.031 10.7025 204.44 10.8736 203.966 11.2148C203.492 11.5559 203.255 11.9773 203.255 12.4831M205.513 5.73566C206.803 5.73566 207.821 6.08007 208.569 6.76889C209.314 7.45771 209.687 8.40213 209.687 9.60216V15.3261H208.018V14.0373H207.942C207.221 15.0985 206.259 15.6294 205.058 15.6294C204.033 15.6294 203.176 15.3261 202.487 14.7196C201.797 14.1131 201.453 13.3549 201.453 12.4452C201.453 11.4845 201.816 10.7208 202.543 10.1523C203.271 9.58375 204.241 9.2989 205.456 9.2989C206.492 9.2989 207.346 9.48844 208.017 9.86751V9.46894C208.017 8.86243 207.776 8.34798 207.296 7.92451C206.814 7.50103 206.252 7.28984 205.607 7.28984C204.633 7.28984 203.862 7.70032 203.293 8.52235L201.755 7.55519C202.603 6.34217 203.855 5.73566 205.513 5.73566" fill="white"/>
<path id="Fill 5" fill-rule="evenodd" clip-rule="evenodd" d="M219.269 6.03894L213.443 19.4201H211.641L213.804 14.738L209.971 6.03894H211.869L214.639 12.7106H214.677L217.371 6.03894H219.269Z" fill="white"/>
</g>
<g id="G">
<path id="Fill 8" fill-rule="evenodd" clip-rule="evenodd" d="M187.303 8.64473C187.303 8.09563 187.256 7.56601 187.168 7.05914H179.806V10.0625H184.023C183.842 11.0414 183.294 11.8744 182.464 12.4322V14.3828H184.98C186.454 13.0246 187.303 11.0177 187.303 8.64473" fill="#4285F4"/>
<path id="Fill 10" fill-rule="evenodd" clip-rule="evenodd" d="M179.806 16.2651C181.913 16.2651 183.687 15.5741 184.98 14.3828L182.464 12.4322C181.764 12.9033 180.861 13.1784 179.806 13.1784C177.77 13.1784 176.042 11.8073 175.424 9.95959H172.832V11.9687C174.116 14.516 176.757 16.2651 179.806 16.2651" fill="#34A853"/>
<path id="Fill 12" fill-rule="evenodd" clip-rule="evenodd" d="M175.424 9.9596C175.266 9.48847 175.179 8.98593 175.179 8.46715C175.179 7.94837 175.266 7.44583 175.424 6.9747V4.96564H172.832C172.3 6.01837 172 7.20756 172 8.46715C172 9.72674 172.3 10.916 172.832 11.9687L175.424 9.9596Z" fill="#FABB05"/>
<path id="Fill 14" fill-rule="evenodd" clip-rule="evenodd" d="M179.806 3.75583C180.957 3.75583 181.988 4.15115 182.801 4.92553V4.92661L185.029 2.70094C183.676 1.44243 181.912 0.669128 179.806 0.669128C176.757 0.669128 174.116 2.41826 172.832 4.9656L175.424 6.97467C176.042 5.12698 177.77 3.75583 179.806 3.75583" fill="#E94235"/>
</g>
</g>
</g>
</g>
</svg>
