<svg width="384" height="38" viewBox="0 0 384 38" fill="none" xmlns="http://www.w3.org/2000/svg">
<g id="id_subscribe_with_Light">
<path id="Text" d="M2.82113 30V9.952H10.3251C11.4078 9.952 12.3971 10.1853 13.2931 10.652C14.2078 11.1187 14.9265 11.7533 15.4491 12.556C15.9905 13.3587 16.2611 14.264 16.2611 15.272C16.2611 16.2987 15.9998 17.176 15.4771 17.904C14.9731 18.632 14.3291 19.1827 13.5451 19.556V19.696C14.5531 20.0507 15.3745 20.6387 16.0091 21.46C16.6438 22.2627 16.9611 23.2333 16.9611 24.372C16.9611 25.492 16.6718 26.4813 16.0931 27.34C15.5331 28.18 14.7678 28.8333 13.7971 29.3C12.8451 29.7667 11.7998 30 10.6611 30H2.82113ZM10.2971 12.78H5.90113V18.38H10.1851C11.1558 18.38 11.9118 18.0907 12.4531 17.512C12.9945 16.9147 13.2651 16.2613 13.2651 15.552C13.2651 14.8613 13.0038 14.2267 12.4811 13.648C11.9585 13.0693 11.2305 12.78 10.2971 12.78ZM5.90113 27.144H10.6611C11.6691 27.144 12.4531 26.8453 13.0131 26.248C13.5918 25.632 13.8811 24.932 13.8811 24.148C13.8811 23.364 13.5918 22.664 13.0131 22.048C12.4345 21.432 11.6131 21.124 10.5491 21.124H5.90113V27.144ZM26.6685 30.448C25.2685 30.448 24.0178 30.1213 22.9165 29.468C21.8151 28.8147 20.9471 27.9187 20.3125 26.78C19.6965 25.6413 19.3885 24.344 19.3885 22.888C19.3885 21.5253 19.6871 20.2653 20.2845 19.108C20.8818 17.9507 21.7125 17.0267 22.7765 16.336C23.8591 15.6267 25.1005 15.272 26.5005 15.272C27.9751 15.272 29.2258 15.5893 30.2525 16.224C31.2978 16.8587 32.0911 17.7267 32.6325 18.828C33.1738 19.9293 33.4445 21.1707 33.4445 22.552C33.4445 22.7573 33.4351 22.944 33.4165 23.112C33.4165 23.28 33.4071 23.4107 33.3885 23.504H22.3565C22.5058 24.9227 23.0005 25.9867 23.8405 26.696C24.6991 27.4053 25.6698 27.76 26.7525 27.76C27.7231 27.76 28.5258 27.5453 29.1605 27.116C29.7951 26.668 30.2991 26.1173 30.6725 25.464L33.1645 26.668C32.5485 27.788 31.7085 28.7027 30.6445 29.412C29.5805 30.1027 28.2551 30.448 26.6685 30.448ZM26.5285 17.848C25.5205 17.848 24.6618 18.156 23.9525 18.772C23.2431 19.388 22.7671 20.2093 22.5245 21.236H30.4485C30.4111 20.7507 30.2525 20.2467 29.9725 19.724C29.6925 19.2013 29.2631 18.7627 28.6845 18.408C28.1245 18.0347 27.4058 17.848 26.5285 17.848ZM36.5499 30V15.72H39.4059V17.82H39.5739C39.8913 17.092 40.4326 16.4947 41.1979 16.028C41.9819 15.5427 42.8219 15.3 43.7179 15.3C44.1099 15.3 44.4366 15.328 44.6979 15.384C44.9779 15.44 45.2299 15.5053 45.4539 15.58V18.716C45.0993 18.5667 44.7353 18.4453 44.3619 18.352C44.0073 18.2587 43.6339 18.212 43.2419 18.212C42.5326 18.212 41.8979 18.408 41.3379 18.8C40.7966 19.1733 40.3673 19.6867 40.0499 20.34C39.7326 20.9747 39.5739 21.6747 39.5739 22.44V30H36.5499ZM48.2529 30V9.952H51.2769V30H48.2529ZM59.4854 30.448C58.4587 30.448 57.5441 30.252 56.7414 29.86C55.9387 29.4493 55.3134 28.88 54.8654 28.152C54.4174 27.424 54.1934 26.5933 54.1934 25.66C54.1934 24.652 54.4547 23.7933 54.9774 23.084C55.5187 22.356 56.2374 21.8053 57.1334 21.432C58.0294 21.0587 59.0187 20.872 60.1014 20.872C60.9974 20.872 61.7814 20.956 62.4534 21.124C63.1441 21.292 63.6667 21.4693 64.0214 21.656V20.9C64.0214 19.9667 63.6854 19.22 63.0134 18.66C62.3414 18.1 61.4734 17.82 60.4094 17.82C59.6814 17.82 58.9907 17.988 58.3374 18.324C57.6841 18.6413 57.1614 19.08 56.7694 19.64L54.6974 18.044C55.3134 17.1853 56.1254 16.5133 57.1334 16.028C58.1601 15.524 59.2801 15.272 60.4934 15.272C62.5654 15.272 64.1614 15.7853 65.2814 16.812C66.4014 17.82 66.9614 19.2387 66.9614 21.068V30H64.0214V28.236H63.8534C63.4801 28.8147 62.9201 29.328 62.1734 29.776C61.4267 30.224 60.5307 30.448 59.4854 30.448ZM60.0174 27.984C60.8014 27.984 61.4921 27.7973 62.0894 27.424C62.6867 27.0507 63.1534 26.5653 63.4894 25.968C63.8441 25.352 64.0214 24.6893 64.0214 23.98C63.5921 23.7373 63.0881 23.5413 62.5094 23.392C61.9307 23.224 61.3147 23.14 60.6614 23.14C59.4294 23.14 58.5521 23.392 58.0294 23.896C57.5067 24.3813 57.2454 24.9787 57.2454 25.688C57.2454 26.36 57.4974 26.9107 58.0014 27.34C58.5054 27.7693 59.1774 27.984 60.0174 27.984ZM70.5906 30V15.72H73.4466V17.68H73.6146C74.0252 16.9893 74.6319 16.42 75.4346 15.972C76.2559 15.5053 77.1519 15.272 78.1226 15.272C79.8772 15.272 81.1932 15.7947 82.0706 16.84C82.9479 17.8853 83.3866 19.2667 83.3866 20.984V30H80.3906V21.376C80.3906 20.2187 80.1012 19.3787 79.5226 18.856C78.9439 18.3147 78.1879 18.044 77.2546 18.044C76.5266 18.044 75.8919 18.2493 75.3506 18.66C74.8092 19.052 74.3799 19.5747 74.0626 20.228C73.7639 20.8813 73.6146 21.5813 73.6146 22.328V30H70.5906ZM93.436 36.496C92.1854 36.496 91.1027 36.2907 90.188 35.88C89.292 35.488 88.564 34.9747 88.004 34.34C87.444 33.724 87.0427 33.0893 86.8 32.436L89.6 31.26C89.8987 32.0067 90.3747 32.6133 91.028 33.08C91.7 33.5653 92.5027 33.808 93.436 33.808C94.7427 33.808 95.7694 33.416 96.516 32.632C97.2814 31.848 97.664 30.7373 97.664 29.3V27.928H97.496C97.048 28.6 96.4227 29.1413 95.62 29.552C94.836 29.944 93.94 30.14 92.932 30.14C91.7187 30.14 90.608 29.832 89.6 29.216C88.592 28.6 87.78 27.7413 87.164 26.64C86.548 25.52 86.24 24.2133 86.24 22.72C86.24 21.208 86.548 19.9013 87.164 18.8C87.78 17.68 88.592 16.812 89.6 16.196C90.608 15.58 91.7187 15.272 92.932 15.272C93.94 15.272 94.836 15.4773 95.62 15.888C96.4227 16.2987 97.048 16.84 97.496 17.512H97.664V15.72H100.548V29.244C100.548 30.7933 100.24 32.1093 99.624 33.192C99.0267 34.2747 98.196 35.096 97.132 35.656C96.068 36.216 94.836 36.496 93.436 36.496ZM93.464 27.396C94.2107 27.396 94.9014 27.2187 95.536 26.864C96.1707 26.4907 96.684 25.9587 97.076 25.268C97.468 24.5587 97.664 23.7093 97.664 22.72C97.664 21.6933 97.468 20.8347 97.076 20.144C96.684 19.4347 96.1707 18.9027 95.536 18.548C94.9014 18.1933 94.2107 18.016 93.464 18.016C92.7174 18.016 92.0174 18.2027 91.364 18.576C90.7294 18.9307 90.216 19.4533 89.824 20.144C89.432 20.8347 89.236 21.6933 89.236 22.72C89.236 23.728 89.432 24.5867 89.824 25.296C90.216 25.9867 90.7294 26.5093 91.364 26.864C92.0174 27.2187 92.7174 27.396 93.464 27.396ZM110.689 36.496C109.438 36.496 108.356 36.2907 107.441 35.88C106.545 35.488 105.817 34.9747 105.257 34.34C104.697 33.724 104.296 33.0893 104.053 32.436L106.853 31.26C107.152 32.0067 107.628 32.6133 108.281 33.08C108.953 33.5653 109.756 33.808 110.689 33.808C111.996 33.808 113.022 33.416 113.769 32.632C114.534 31.848 114.917 30.7373 114.917 29.3V27.928H114.749C114.301 28.6 113.676 29.1413 112.873 29.552C112.089 29.944 111.193 30.14 110.185 30.14C108.972 30.14 107.861 29.832 106.853 29.216C105.845 28.6 105.033 27.7413 104.417 26.64C103.801 25.52 103.493 24.2133 103.493 22.72C103.493 21.208 103.801 19.9013 104.417 18.8C105.033 17.68 105.845 16.812 106.853 16.196C107.861 15.58 108.972 15.272 110.185 15.272C111.193 15.272 112.089 15.4773 112.873 15.888C113.676 16.2987 114.301 16.84 114.749 17.512H114.917V15.72H117.801V29.244C117.801 30.7933 117.493 32.1093 116.877 33.192C116.28 34.2747 115.449 35.096 114.385 35.656C113.321 36.216 112.089 36.496 110.689 36.496ZM110.717 27.396C111.464 27.396 112.154 27.2187 112.789 26.864C113.424 26.4907 113.937 25.9587 114.329 25.268C114.721 24.5587 114.917 23.7093 114.917 22.72C114.917 21.6933 114.721 20.8347 114.329 20.144C113.937 19.4347 113.424 18.9027 112.789 18.548C112.154 18.1933 111.464 18.016 110.717 18.016C109.97 18.016 109.27 18.2027 108.617 18.576C107.982 18.9307 107.469 19.4533 107.077 20.144C106.685 20.8347 106.489 21.6933 106.489 22.72C106.489 23.728 106.685 24.5867 107.077 25.296C107.469 25.9867 107.982 26.5093 108.617 26.864C109.27 27.2187 109.97 27.396 110.717 27.396ZM125.982 30.448C124.956 30.448 124.041 30.252 123.238 29.86C122.436 29.4493 121.81 28.88 121.362 28.152C120.914 27.424 120.69 26.5933 120.69 25.66C120.69 24.652 120.952 23.7933 121.474 23.084C122.016 22.356 122.734 21.8053 123.63 21.432C124.526 21.0587 125.516 20.872 126.598 20.872C127.494 20.872 128.278 20.956 128.95 21.124C129.641 21.292 130.164 21.4693 130.518 21.656V20.9C130.518 19.9667 130.182 19.22 129.51 18.66C128.838 18.1 127.97 17.82 126.906 17.82C126.178 17.82 125.488 17.988 124.834 18.324C124.181 18.6413 123.658 19.08 123.266 19.64L121.194 18.044C121.81 17.1853 122.622 16.5133 123.63 16.028C124.657 15.524 125.777 15.272 126.99 15.272C129.062 15.272 130.658 15.7853 131.778 16.812C132.898 17.82 133.458 19.2387 133.458 21.068V30H130.518V28.236H130.35C129.977 28.8147 129.417 29.328 128.67 29.776C127.924 30.224 127.028 30.448 125.982 30.448ZM126.514 27.984C127.298 27.984 127.989 27.7973 128.586 27.424C129.184 27.0507 129.65 26.5653 129.986 25.968C130.341 25.352 130.518 24.6893 130.518 23.98C130.089 23.7373 129.585 23.5413 129.006 23.392C128.428 23.224 127.812 23.14 127.158 23.14C125.926 23.14 125.049 23.392 124.526 23.896C124.004 24.3813 123.742 24.9787 123.742 25.688C123.742 26.36 123.994 26.9107 124.498 27.34C125.002 27.7693 125.674 27.984 126.514 27.984ZM137.087 30V15.72H139.943V17.68H140.111C140.522 16.9893 141.129 16.42 141.931 15.972C142.753 15.5053 143.649 15.272 144.619 15.272C146.374 15.272 147.69 15.7947 148.567 16.84C149.445 17.8853 149.883 19.2667 149.883 20.984V30H146.887V21.376C146.887 20.2187 146.598 19.3787 146.019 18.856C145.441 18.3147 144.685 18.044 143.751 18.044C143.023 18.044 142.389 18.2493 141.847 18.66C141.306 19.052 140.877 19.5747 140.559 20.228C140.261 20.8813 140.111 21.5813 140.111 22.328V30H137.087ZM157.973 30.448C156.946 30.448 156.032 30.252 155.229 29.86C154.426 29.4493 153.801 28.88 153.353 28.152C152.905 27.424 152.681 26.5933 152.681 25.66C152.681 24.652 152.942 23.7933 153.465 23.084C154.006 22.356 154.725 21.8053 155.621 21.432C156.517 21.0587 157.506 20.872 158.589 20.872C159.485 20.872 160.269 20.956 160.941 21.124C161.632 21.292 162.154 21.4693 162.509 21.656V20.9C162.509 19.9667 162.173 19.22 161.501 18.66C160.829 18.1 159.961 17.82 158.897 17.82C158.169 17.82 157.478 17.988 156.825 18.324C156.172 18.6413 155.649 19.08 155.257 19.64L153.185 18.044C153.801 17.1853 154.613 16.5133 155.621 16.028C156.648 15.524 157.768 15.272 158.981 15.272C161.053 15.272 162.649 15.7853 163.769 16.812C164.889 17.82 165.449 19.2387 165.449 21.068V30H162.509V28.236H162.341C161.968 28.8147 161.408 29.328 160.661 29.776C159.914 30.224 159.018 30.448 157.973 30.448ZM158.505 27.984C159.289 27.984 159.98 27.7973 160.577 27.424C161.174 27.0507 161.641 26.5653 161.977 25.968C162.332 25.352 162.509 24.6893 162.509 23.98C162.08 23.7373 161.576 23.5413 160.997 23.392C160.418 23.224 159.802 23.14 159.149 23.14C157.917 23.14 157.04 23.392 156.517 23.896C155.994 24.3813 155.733 24.9787 155.733 25.688C155.733 26.36 155.985 26.9107 156.489 27.34C156.993 27.7693 157.665 27.984 158.505 27.984ZM169.078 30V15.72H171.934V17.68H172.102C172.513 16.9893 173.119 16.42 173.922 15.972C174.743 15.5053 175.639 15.272 176.61 15.272C178.365 15.272 179.681 15.7947 180.558 16.84C181.435 17.8853 181.874 19.2667 181.874 20.984V30H178.878V21.376C178.878 20.2187 178.589 19.3787 178.01 18.856C177.431 18.3147 176.675 18.044 175.742 18.044C175.014 18.044 174.379 18.2493 173.838 18.66C173.297 19.052 172.867 19.5747 172.55 20.228C172.251 20.8813 172.102 21.5813 172.102 22.328V30H169.078ZM198.559 30.448C197.271 30.448 196.105 30.1307 195.059 29.496C194.033 28.8427 193.211 27.9467 192.595 26.808C191.998 25.6507 191.699 24.3347 191.699 22.86C191.699 21.3853 191.998 20.0787 192.595 18.94C193.211 17.8013 194.033 16.9053 195.059 16.252C196.105 15.5987 197.271 15.272 198.559 15.272C199.661 15.272 200.603 15.5147 201.387 16C202.19 16.4853 202.778 17.036 203.151 17.652H203.319L203.151 15.664V9.952H206.147V30H203.319V28.096H203.151C202.778 28.712 202.19 29.2627 201.387 29.748C200.603 30.2147 199.661 30.448 198.559 30.448ZM199.007 27.676C199.754 27.676 200.454 27.48 201.107 27.088C201.779 26.696 202.311 26.1453 202.703 25.436C203.114 24.708 203.319 23.8493 203.319 22.86C203.319 21.8707 203.114 21.0213 202.703 20.312C202.311 19.584 201.779 19.024 201.107 18.632C200.454 18.24 199.754 18.044 199.007 18.044C198.261 18.044 197.561 18.24 196.907 18.632C196.254 19.024 195.722 19.584 195.311 20.312C194.901 21.0213 194.695 21.8707 194.695 22.86C194.695 23.8493 194.901 24.708 195.311 25.436C195.722 26.1453 196.254 26.696 196.907 27.088C197.561 27.48 198.261 27.676 199.007 27.676ZM216.397 30.448C214.997 30.448 213.746 30.1213 212.645 29.468C211.543 28.8147 210.675 27.9187 210.041 26.78C209.425 25.6413 209.117 24.344 209.117 22.888C209.117 21.5253 209.415 20.2653 210.013 19.108C210.61 17.9507 211.441 17.0267 212.505 16.336C213.587 15.6267 214.829 15.272 216.229 15.272C217.703 15.272 218.954 15.5893 219.981 16.224C221.026 16.8587 221.819 17.7267 222.361 18.828C222.902 19.9293 223.173 21.1707 223.173 22.552C223.173 22.7573 223.163 22.944 223.145 23.112C223.145 23.28 223.135 23.4107 223.117 23.504H212.085C212.234 24.9227 212.729 25.9867 213.569 26.696C214.427 27.4053 215.398 27.76 216.481 27.76C217.451 27.76 218.254 27.5453 218.889 27.116C219.523 26.668 220.027 26.1173 220.401 25.464L222.893 26.668C222.277 27.788 221.437 28.7027 220.373 29.412C219.309 30.1027 217.983 30.448 216.397 30.448ZM216.257 17.848C215.249 17.848 214.39 18.156 213.681 18.772C212.971 19.388 212.495 20.2093 212.253 21.236H220.177C220.139 20.7507 219.981 20.2467 219.701 19.724C219.421 19.2013 218.991 18.7627 218.413 18.408C217.853 18.0347 217.134 17.848 216.257 17.848ZM226.278 30V15.72H229.134V17.68H229.302C229.713 16.9893 230.319 16.42 231.122 15.972C231.943 15.5053 232.839 15.272 233.81 15.272C235.565 15.272 236.881 15.7947 237.758 16.84C238.635 17.8853 239.074 19.2667 239.074 20.984V30H236.078V21.376C236.078 20.2187 235.789 19.3787 235.21 18.856C234.631 18.3147 233.875 18.044 232.942 18.044C232.214 18.044 231.579 18.2493 231.038 18.66C230.497 19.052 230.067 19.5747 229.75 20.228C229.451 20.8813 229.302 21.5813 229.302 22.328V30H226.278ZM249.124 36.496C247.873 36.496 246.79 36.2907 245.876 35.88C244.98 35.488 244.252 34.9747 243.692 34.34C243.132 33.724 242.73 33.0893 242.488 32.436L245.288 31.26C245.586 32.0067 246.062 32.6133 246.716 33.08C247.388 33.5653 248.19 33.808 249.124 33.808C250.43 33.808 251.457 33.416 252.204 32.632C252.969 31.848 253.352 30.7373 253.352 29.3V27.928H253.184C252.736 28.6 252.11 29.1413 251.308 29.552C250.524 29.944 249.628 30.14 248.62 30.14C247.406 30.14 246.296 29.832 245.288 29.216C244.28 28.6 243.468 27.7413 242.852 26.64C242.236 25.52 241.928 24.2133 241.928 22.72C241.928 21.208 242.236 19.9013 242.852 18.8C243.468 17.68 244.28 16.812 245.288 16.196C246.296 15.58 247.406 15.272 248.62 15.272C249.628 15.272 250.524 15.4773 251.308 15.888C252.11 16.2987 252.736 16.84 253.184 17.512H253.352V15.72H256.236V29.244C256.236 30.7933 255.928 32.1093 255.312 33.192C254.714 34.2747 253.884 35.096 252.82 35.656C251.756 36.216 250.524 36.496 249.124 36.496ZM249.152 27.396C249.898 27.396 250.589 27.2187 251.224 26.864C251.858 26.4907 252.372 25.9587 252.764 25.268C253.156 24.5587 253.352 23.7093 253.352 22.72C253.352 21.6933 253.156 20.8347 252.764 20.144C252.372 19.4347 251.858 18.9027 251.224 18.548C250.589 18.1933 249.898 18.016 249.152 18.016C248.405 18.016 247.705 18.2027 247.052 18.576C246.417 18.9307 245.904 19.4533 245.512 20.144C245.12 20.8347 244.924 21.6933 244.924 22.72C244.924 23.728 245.12 24.5867 245.512 25.296C245.904 25.9867 246.417 26.5093 247.052 26.864C247.705 27.2187 248.405 27.396 249.152 27.396ZM264.417 30.448C263.39 30.448 262.475 30.252 261.673 29.86C260.87 29.4493 260.245 28.88 259.797 28.152C259.349 27.424 259.125 26.5933 259.125 25.66C259.125 24.652 259.386 23.7933 259.909 23.084C260.45 22.356 261.169 21.8053 262.065 21.432C262.961 21.0587 263.95 20.872 265.033 20.872C265.929 20.872 266.713 20.956 267.385 21.124C268.075 21.292 268.598 21.4693 268.953 21.656V20.9C268.953 19.9667 268.617 19.22 267.945 18.66C267.273 18.1 266.405 17.82 265.341 17.82C264.613 17.82 263.922 17.988 263.269 18.324C262.615 18.6413 262.093 19.08 261.701 19.64L259.629 18.044C260.245 17.1853 261.057 16.5133 262.065 16.028C263.091 15.524 264.211 15.272 265.425 15.272C267.497 15.272 269.093 15.7853 270.213 16.812C271.333 17.82 271.893 19.2387 271.893 21.068V30H268.953V28.236H268.785C268.411 28.8147 267.851 29.328 267.105 29.776C266.358 30.224 265.462 30.448 264.417 30.448ZM264.949 27.984C265.733 27.984 266.423 27.7973 267.021 27.424C267.618 27.0507 268.085 26.5653 268.421 25.968C268.775 25.352 268.953 24.6893 268.953 23.98C268.523 23.7373 268.019 23.5413 267.441 23.392C266.862 23.224 266.246 23.14 265.593 23.14C264.361 23.14 263.483 23.392 262.961 23.896C262.438 24.3813 262.177 24.9787 262.177 25.688C262.177 26.36 262.429 26.9107 262.933 27.34C263.437 27.7693 264.109 27.984 264.949 27.984ZM275.522 30V15.72H278.378V17.68H278.546C278.956 16.9893 279.563 16.42 280.366 15.972C281.187 15.5053 282.083 15.272 283.054 15.272C284.808 15.272 286.124 15.7947 287.002 16.84C287.879 17.8853 288.318 19.2667 288.318 20.984V30H285.322V21.376C285.322 20.2187 285.032 19.3787 284.454 18.856C283.875 18.3147 283.119 18.044 282.186 18.044C281.458 18.044 280.823 18.2493 280.282 18.66C279.74 19.052 279.311 19.5747 278.994 20.228C278.695 20.8813 278.546 21.5813 278.546 22.328V30H275.522Z" fill="#3C4043"/>
<g id="GPay Logo (Light)">
<g id="GPay">
<g id="Pay">
<path id="Fill 1" fill-rule="evenodd" clip-rule="evenodd" d="M340.529 9.44664V17.6128H345.565C346.765 17.6128 347.757 17.2096 348.541 16.4032C349.347 15.5988 349.75 14.6394 349.75 13.5288C349.75 12.4406 349.347 11.4924 348.541 10.686C347.757 9.85915 346.765 9.44478 345.565 9.44478H340.529V9.44664ZM340.529 20.4872V29.9599H337.521V6.57217H345.499C347.527 6.57217 349.248 7.24786 350.666 8.59737C352.105 9.94688 352.824 11.5913 352.824 13.5288C352.824 15.511 352.105 17.1667 350.666 18.4938C349.27 19.8227 347.547 20.4854 345.499 20.4854H340.529V20.4872Z" fill="#5F6368"/>
<path id="Fill 3" fill-rule="evenodd" clip-rule="evenodd" d="M355.864 25.0602C355.864 25.8442 356.197 26.4975 356.862 27.0201C357.527 27.5427 358.306 27.804 359.2 27.804C360.465 27.804 361.591 27.3354 362.584 26.4004C363.576 25.4634 364.071 24.364 364.071 23.1022C363.133 22.3612 361.825 21.9916 360.147 21.9916C358.925 21.9916 357.907 22.2865 357.09 22.8745C356.273 23.4623 355.864 24.1886 355.864 25.0602ZM359.756 13.4317C361.98 13.4317 363.735 14.0252 365.022 15.2124C366.308 16.3995 366.95 18.0271 366.95 20.0952V29.9599H364.073V27.7387H363.942C362.699 29.5677 361.042 30.4825 358.972 30.4825C357.206 30.4825 355.728 29.9599 354.541 28.9146C353.353 27.8694 352.759 26.5628 352.759 24.9949C352.759 23.3393 353.385 22.0232 354.638 21.0434C355.892 20.0635 357.565 19.5726 359.658 19.5726C361.444 19.5726 362.916 19.8992 364.071 20.5525V19.8656C364.071 18.8204 363.656 17.9338 362.829 17.204C361.999 16.4741 361.031 16.1102 359.919 16.1102C358.239 16.1102 356.911 16.8176 355.93 18.2343L353.28 16.5675C354.741 14.4769 356.899 13.4317 359.756 13.4317Z" fill="#5F6368"/>
<path id="Fill 5" fill-rule="evenodd" clip-rule="evenodd" d="M383.463 13.9543L373.424 37.0154H370.318L374.046 28.9464L367.44 13.9543H370.71L375.484 25.4522H375.55L380.193 13.9543H383.463Z" fill="#5F6368"/>
</g>
<g id="G">
<path id="Fill 8" fill-rule="evenodd" clip-rule="evenodd" d="M328.373 18.4452C328.373 17.4989 328.293 16.5861 328.141 15.7126H315.454V20.8885H322.72C322.408 22.5757 321.465 24.0112 320.033 24.9725V28.3341H324.37C326.91 25.9935 328.373 22.5348 328.373 18.4452Z" fill="#4285F4"/>
<path id="Fill 10" fill-rule="evenodd" clip-rule="evenodd" d="M315.454 31.5782C319.084 31.5782 322.141 30.3873 324.37 28.3341L320.033 24.9725C318.826 25.7844 317.272 26.2585 315.454 26.2585C311.944 26.2585 308.966 23.8955 307.901 20.7112H303.433V24.1736C305.647 28.5637 310.197 31.5782 315.454 31.5782Z" fill="#34A853"/>
<path id="Fill 12" fill-rule="evenodd" clip-rule="evenodd" d="M307.901 20.7111C307.628 19.8992 307.479 19.0331 307.479 18.139C307.479 17.245 307.628 16.3789 307.901 15.567V12.1045H303.433C302.518 13.9188 302 15.9683 302 18.139C302 20.3098 302.518 22.3595 303.433 24.1736L307.901 20.7111Z" fill="#FABB05"/>
<path id="Fill 14" fill-rule="evenodd" clip-rule="evenodd" d="M315.454 10.0196C317.436 10.0196 319.213 10.7009 320.615 12.0355V12.0374L324.455 8.20162C322.123 6.03271 319.082 4.7 315.454 4.7C310.197 4.7 305.647 7.71446 303.433 12.1046L307.901 15.567C308.966 12.3827 311.944 10.0196 315.454 10.0196Z" fill="#E94235"/>
</g>
</g>
</g>
</g>
</svg>
