<svg width="192" height="38" viewBox="0 0 192 38" fill="none" xmlns="http://www.w3.org/2000/svg">
<g id="id_view_in_Light">
<path id="Text" d="M3.39456 30V9.952H6.47456V27.088H15.0986V30H3.39456ZM19.7742 13.62C19.2142 13.62 18.7289 13.424 18.3182 13.032C17.9262 12.6213 17.7302 12.136 17.7302 11.576C17.7302 11.016 17.9262 10.54 18.3182 10.148C18.7289 9.756 19.2142 9.56 19.7742 9.56C20.3342 9.56 20.8102 9.756 21.2022 10.148C21.6129 10.54 21.8182 11.016 21.8182 11.576C21.8182 12.136 21.6129 12.6213 21.2022 13.032C20.8102 13.424 20.3342 13.62 19.7742 13.62ZM18.2622 30V15.72H21.2862V30H18.2622ZM25.3382 30V9.952H28.3622V15.44L28.1942 17.68H28.3622C28.7542 16.9893 29.3516 16.42 30.1542 15.972C30.9756 15.5053 31.8809 15.272 32.8702 15.272C34.6436 15.272 35.9782 15.804 36.8742 16.868C37.7702 17.9133 38.2182 19.2853 38.2182 20.984V30H35.2222V21.376C35.2222 20.2187 34.9142 19.3787 34.2982 18.856C33.7009 18.3147 32.9636 18.044 32.0862 18.044C31.3582 18.044 30.7142 18.2493 30.1542 18.66C29.5942 19.0707 29.1556 19.612 28.8382 20.284C28.5209 20.9373 28.3622 21.6373 28.3622 22.384V30H25.3382ZM46.3057 30.448C45.2791 30.448 44.3644 30.252 43.5617 29.86C42.7591 29.4493 42.1337 28.88 41.6857 28.152C41.2377 27.424 41.0137 26.5933 41.0137 25.66C41.0137 24.652 41.2751 23.7933 41.7977 23.084C42.3391 22.356 43.0577 21.8053 43.9537 21.432C44.8497 21.0587 45.8391 20.872 46.9217 20.872C47.8177 20.872 48.6017 20.956 49.2737 21.124C49.9644 21.292 50.4871 21.4693 50.8417 21.656V20.9C50.8417 19.9667 50.5057 19.22 49.8337 18.66C49.1617 18.1 48.2937 17.82 47.2297 17.82C46.5017 17.82 45.8111 17.988 45.1577 18.324C44.5044 18.6413 43.9817 19.08 43.5897 19.64L41.5177 18.044C42.1337 17.1853 42.9457 16.5133 43.9537 16.028C44.9804 15.524 46.1004 15.272 47.3137 15.272C49.3857 15.272 50.9817 15.7853 52.1017 16.812C53.2217 17.82 53.7817 19.2387 53.7817 21.068V30H50.8417V28.236H50.6737C50.3004 28.8147 49.7404 29.328 48.9937 29.776C48.2471 30.224 47.3511 30.448 46.3057 30.448ZM46.8377 27.984C47.6217 27.984 48.3124 27.7973 48.9097 27.424C49.5071 27.0507 49.9737 26.5653 50.3097 25.968C50.6644 25.352 50.8417 24.6893 50.8417 23.98C50.4124 23.7373 49.9084 23.5413 49.3297 23.392C48.7511 23.224 48.1351 23.14 47.4817 23.14C46.2497 23.14 45.3724 23.392 44.8497 23.896C44.3271 24.3813 44.0657 24.9787 44.0657 25.688C44.0657 26.36 44.3177 26.9107 44.8217 27.34C45.3257 27.7693 45.9977 27.984 46.8377 27.984ZM58.6494 25.856V18.352H56.1574V15.72H58.6494V11.688H61.6734V15.72H65.1734V18.352H61.6734V25.212C61.6734 25.9213 61.8134 26.4627 62.0934 26.836C62.3921 27.2093 62.8868 27.396 63.5774 27.396C63.9321 27.396 64.2308 27.3493 64.4734 27.256C64.7348 27.1627 64.9961 27.032 65.2574 26.864V29.804C64.9401 29.9347 64.6041 30.0373 64.2494 30.112C63.8948 30.1867 63.4748 30.224 62.9894 30.224C61.6641 30.224 60.6094 29.8413 59.8254 29.076C59.0414 28.292 58.6494 27.2187 58.6494 25.856ZM81.3141 30.448C80.0261 30.448 78.8594 30.1307 77.8141 29.496C76.7874 28.8427 75.9661 27.9467 75.3501 26.808C74.7528 25.6507 74.4541 24.3347 74.4541 22.86C74.4541 21.3853 74.7528 20.0787 75.3501 18.94C75.9661 17.8013 76.7874 16.9053 77.8141 16.252C78.8594 15.5987 80.0261 15.272 81.3141 15.272C82.4154 15.272 83.3581 15.5147 84.1421 16C84.9448 16.4853 85.5328 17.036 85.9061 17.652H86.0741L85.9061 15.664V9.952H88.9021V30H86.0741V28.096H85.9061C85.5328 28.712 84.9448 29.2627 84.1421 29.748C83.3581 30.2147 82.4154 30.448 81.3141 30.448ZM81.7621 27.676C82.5088 27.676 83.2088 27.48 83.8621 27.088C84.5341 26.696 85.0661 26.1453 85.4581 25.436C85.8688 24.708 86.0741 23.8493 86.0741 22.86C86.0741 21.8707 85.8688 21.0213 85.4581 20.312C85.0661 19.584 84.5341 19.024 83.8621 18.632C83.2088 18.24 82.5088 18.044 81.7621 18.044C81.0154 18.044 80.3154 18.24 79.6621 18.632C79.0088 19.024 78.4768 19.584 78.0661 20.312C77.6554 21.0213 77.4501 21.8707 77.4501 22.86C77.4501 23.8493 77.6554 24.708 78.0661 25.436C78.4768 26.1453 79.0088 26.696 79.6621 27.088C80.3154 27.48 81.0154 27.676 81.7621 27.676ZM94.5 13.62C93.94 13.62 93.4547 13.424 93.044 13.032C92.652 12.6213 92.456 12.136 92.456 11.576C92.456 11.016 92.652 10.54 93.044 10.148C93.4547 9.756 93.94 9.56 94.5 9.56C95.06 9.56 95.536 9.756 95.928 10.148C96.3387 10.54 96.544 11.016 96.544 11.576C96.544 12.136 96.3387 12.6213 95.928 13.032C95.536 13.424 95.06 13.62 94.5 13.62ZM92.988 30V15.72H96.012V30H92.988Z" fill="#3C4043"/>
<g id="GPay Logo (Light)">
<g id="GPay">
<g id="Pay">
<path id="Fill 1" fill-rule="evenodd" clip-rule="evenodd" d="M148.529 9.44664V17.6128H153.565C154.765 17.6128 155.757 17.2096 156.541 16.4032C157.347 15.5988 157.75 14.6394 157.75 13.5288C157.75 12.4406 157.347 11.4924 156.541 10.686C155.757 9.85915 154.765 9.44478 153.565 9.44478H148.529V9.44664ZM148.529 20.4872V29.9599H145.521V6.57217H153.499C155.527 6.57217 157.248 7.24786 158.666 8.59737C160.105 9.94688 160.824 11.5913 160.824 13.5288C160.824 15.511 160.105 17.1667 158.666 18.4938C157.27 19.8227 155.547 20.4854 153.499 20.4854H148.529V20.4872Z" fill="#5F6368"/>
<path id="Fill 3" fill-rule="evenodd" clip-rule="evenodd" d="M163.864 25.0602C163.864 25.8442 164.197 26.4975 164.862 27.0201C165.527 27.5427 166.306 27.804 167.2 27.804C168.465 27.804 169.591 27.3354 170.584 26.4004C171.576 25.4634 172.071 24.364 172.071 23.1022C171.133 22.3612 169.825 21.9916 168.147 21.9916C166.925 21.9916 165.907 22.2865 165.09 22.8745C164.273 23.4623 163.864 24.1886 163.864 25.0602ZM167.756 13.4317C169.98 13.4317 171.735 14.0252 173.022 15.2124C174.308 16.3995 174.95 18.0271 174.95 20.0952V29.9599H172.073V27.7387H171.942C170.699 29.5677 169.042 30.4825 166.972 30.4825C165.206 30.4825 163.728 29.9599 162.541 28.9146C161.353 27.8694 160.759 26.5628 160.759 24.9949C160.759 23.3393 161.385 22.0232 162.638 21.0434C163.892 20.0635 165.565 19.5726 167.658 19.5726C169.444 19.5726 170.916 19.8992 172.071 20.5525V19.8656C172.071 18.8204 171.656 17.9338 170.829 17.204C169.999 16.4741 169.031 16.1102 167.919 16.1102C166.239 16.1102 164.911 16.8176 163.93 18.2343L161.28 16.5675C162.741 14.4769 164.899 13.4317 167.756 13.4317Z" fill="#5F6368"/>
<path id="Fill 5" fill-rule="evenodd" clip-rule="evenodd" d="M191.463 13.9543L181.424 37.0154H178.318L182.046 28.9464L175.44 13.9543H178.71L183.484 25.4522H183.55L188.193 13.9543H191.463Z" fill="#5F6368"/>
</g>
<g id="G">
<path id="Fill 8" fill-rule="evenodd" clip-rule="evenodd" d="M136.373 18.4452C136.373 17.4989 136.293 16.5861 136.141 15.7126H123.454V20.8885H130.72C130.408 22.5757 129.465 24.0112 128.033 24.9725V28.3341H132.37C134.91 25.9935 136.373 22.5348 136.373 18.4452Z" fill="#4285F4"/>
<path id="Fill 10" fill-rule="evenodd" clip-rule="evenodd" d="M123.454 31.5782C127.084 31.5782 130.141 30.3873 132.37 28.3341L128.033 24.9725C126.826 25.7844 125.272 26.2585 123.454 26.2585C119.944 26.2585 116.966 23.8955 115.901 20.7112H111.433V24.1736C113.647 28.5637 118.197 31.5782 123.454 31.5782Z" fill="#34A853"/>
<path id="Fill 12" fill-rule="evenodd" clip-rule="evenodd" d="M115.901 20.7111C115.628 19.8992 115.479 19.0331 115.479 18.139C115.479 17.245 115.628 16.3789 115.901 15.567V12.1045H111.433C110.518 13.9188 110 15.9683 110 18.139C110 20.3098 110.518 22.3595 111.433 24.1736L115.901 20.7111Z" fill="#FABB05"/>
<path id="Fill 14" fill-rule="evenodd" clip-rule="evenodd" d="M123.454 10.0196C125.436 10.0196 127.213 10.7009 128.615 12.0355V12.0374L132.455 8.20162C130.123 6.03271 127.082 4.7 123.454 4.7C118.197 4.7 113.647 7.71446 111.433 12.1046L115.901 15.567C116.966 12.3827 119.944 10.0196 123.454 10.0196Z" fill="#E94235"/>
</g>
</g>
</g>
</g>
</svg>
