<svg width="176" height="21" viewBox="0 0 176 21" fill="none" xmlns="http://www.w3.org/2000/svg">
<g id="sk_add_to_Pay_NBG">
<path id="Left Text" d="M2.171 15.0006V3.54461H6.107C6.80033 3.54461 7.42967 3.69394 7.995 3.99261C8.56033 4.28061 9.00833 4.69128 9.339 5.22461C9.68033 5.74728 9.851 6.35528 9.851 7.04861C9.851 7.73128 9.68033 8.33928 9.339 8.87261C9.00833 9.40594 8.56033 9.82194 7.995 10.1206C7.42967 10.4086 6.80033 10.5526 6.107 10.5526H3.931V15.0006H2.171ZM3.931 8.88861H6.155C6.571 8.88861 6.923 8.80328 7.211 8.63261C7.499 8.45128 7.71767 8.22194 7.867 7.94461C8.027 7.65661 8.107 7.35794 8.107 7.04861C8.107 6.73928 8.027 6.44594 7.867 6.16861C7.71767 5.89128 7.499 5.66194 7.211 5.48061C6.923 5.29928 6.571 5.20861 6.155 5.20861H3.931V8.88861ZM11.5174 15.0006V6.84061H13.1494V8.04061H13.2454C13.3734 7.76328 13.5547 7.51794 13.7894 7.30461C14.0347 7.09128 14.312 6.92061 14.6214 6.79261C14.9414 6.66461 15.272 6.60061 15.6134 6.60061C15.8374 6.60061 16.024 6.61661 16.1734 6.64861C16.3334 6.66994 16.4774 6.70728 16.6054 6.76061V8.55261C16.4027 8.46728 16.1947 8.39794 15.9814 8.34461C15.7787 8.29128 15.5654 8.26461 15.3414 8.26461C14.936 8.26461 14.5734 8.37661 14.2534 8.60061C13.944 8.81394 13.6987 9.10194 13.5174 9.46461C13.336 9.82728 13.2454 10.2326 13.2454 10.6806V15.0006H11.5174ZM18.2172 15.0006V6.84061H19.9452V15.0006H18.2172ZM19.0812 5.64061C18.7612 5.64061 18.4839 5.52861 18.2492 5.30461C18.0252 5.06994 17.9132 4.79261 17.9132 4.47261C17.9132 4.14194 18.0252 3.86994 18.2492 3.65661C18.4839 3.43261 18.7612 3.32061 19.0812 3.32061C19.4119 3.32061 19.6892 3.43261 19.9132 3.65661C20.1372 3.86994 20.2492 4.14194 20.2492 4.47261C20.2492 4.79261 20.1372 5.06994 19.9132 5.30461C19.6892 5.52861 19.4119 5.64061 19.0812 5.64061ZM25.6491 15.2566C24.9131 15.2566 24.2465 15.0699 23.6491 14.6966C23.0518 14.3233 22.5825 13.8113 22.2411 13.1606C21.8998 12.5099 21.7291 11.7633 21.7291 10.9206C21.7291 10.0779 21.8998 9.33128 22.2411 8.68061C22.5825 8.02994 23.0518 7.51794 23.6491 7.14461C24.2465 6.77128 24.9131 6.58461 25.6491 6.58461C26.0758 6.58461 26.4598 6.64861 26.8011 6.77661C27.1425 6.90461 27.4358 7.07528 27.6811 7.28861C27.9371 7.49128 28.1345 7.70994 28.2731 7.94461H28.3691L28.2731 6.80861V3.54461H29.9851V15.0006H28.3691V13.9126H28.2731C28.1345 14.1366 27.9371 14.3553 27.6811 14.5686C27.4358 14.7713 27.1425 14.9366 26.8011 15.0646C26.4598 15.1926 26.0758 15.2566 25.6491 15.2566ZM25.9051 13.6726C26.3318 13.6726 26.7318 13.5606 27.1051 13.3366C27.4891 13.1126 27.7931 12.7979 28.0171 12.3926C28.2518 11.9766 28.3691 11.4859 28.3691 10.9206C28.3691 10.3553 28.2518 9.86994 28.0171 9.46461C27.7931 9.04861 27.4891 8.72861 27.1051 8.50461C26.7318 8.28061 26.3318 8.16861 25.9051 8.16861C25.4785 8.16861 25.0785 8.28061 24.7051 8.50461C24.3318 8.72861 24.0278 9.04861 23.7931 9.46461C23.5585 9.86994 23.4411 10.3553 23.4411 10.9206C23.4411 11.4753 23.5585 11.9606 23.7931 12.3766C24.0278 12.7926 24.3318 13.1126 24.7051 13.3366C25.0785 13.5606 25.4785 13.6726 25.9051 13.6726ZM34.6524 15.2566C34.0657 15.2566 33.543 15.1393 33.0844 14.9046C32.6364 14.6699 32.279 14.3499 32.0124 13.9446C31.7564 13.5286 31.6284 13.0539 31.6284 12.5206C31.6284 11.9339 31.7777 11.4379 32.0764 11.0326C32.3857 10.6273 32.7964 10.3179 33.3084 10.1046C33.8204 9.89128 34.3857 9.78461 35.0044 9.78461C35.3457 9.78461 35.6604 9.81128 35.9484 9.86461C36.247 9.90728 36.503 9.96061 36.7164 10.0246C36.9404 10.0886 37.1164 10.1579 37.2444 10.2326V9.80061C37.2444 9.26728 37.0524 8.84061 36.6684 8.52061C36.2844 8.20061 35.7884 8.04061 35.1804 8.04061C34.7644 8.04061 34.3697 8.13661 33.9964 8.32861C33.623 8.50994 33.3244 8.76061 33.1004 9.08061L31.9164 8.16861C32.151 7.83794 32.4337 7.55528 32.7644 7.32061C33.1057 7.08594 33.4844 6.90461 33.9004 6.77661C34.327 6.64861 34.7697 6.58461 35.2284 6.58461C36.4124 6.58461 37.3244 6.87794 37.9644 7.46461C38.6044 8.04061 38.9244 8.85128 38.9244 9.89661V15.0006H37.2444V13.9926H37.1484C37.0097 14.2059 36.8177 14.4086 36.5724 14.6006C36.3377 14.7926 36.055 14.9473 35.7244 15.0646C35.4044 15.1926 35.047 15.2566 34.6524 15.2566ZM34.9564 13.8486C35.4044 13.8486 35.799 13.7419 36.1404 13.5286C36.4924 13.3153 36.7644 13.0379 36.9564 12.6966C37.1484 12.3446 37.2444 11.9659 37.2444 11.5606C37.0097 11.4219 36.7217 11.3099 36.3804 11.2246C36.0497 11.1286 35.6977 11.0806 35.3244 11.0806C34.6204 11.0806 34.119 11.2193 33.8204 11.4966C33.5217 11.7739 33.3724 12.1206 33.3724 12.5366C33.3724 12.9206 33.5164 13.2353 33.8044 13.4806C34.0924 13.7259 34.4764 13.8486 34.9564 13.8486ZM40.2605 6.84061H41.6845V4.53661H43.4125V6.84061H45.4125V8.34461H43.4125V12.2646C43.4125 12.6699 43.4925 12.9793 43.6525 13.1926C43.8232 13.4059 44.1058 13.5126 44.5005 13.5126C44.6925 13.5126 44.8632 13.4859 45.0125 13.4326C45.1618 13.3686 45.3112 13.2939 45.4605 13.2086V14.8886C45.2792 14.9633 45.0872 15.0219 44.8845 15.0646C44.6818 15.1073 44.4418 15.1286 44.1645 15.1286C43.4072 15.1286 42.8045 14.9099 42.3565 14.4726C41.9085 14.0246 41.6845 13.4113 41.6845 12.6326V8.34461H40.2605V6.84061ZM44.3085 5.89661V3.54461H45.9245L45.5245 5.89661H44.3085ZM54.4835 15.2566C53.7475 15.2566 53.0808 15.0699 52.4835 14.6966C51.8862 14.3233 51.4168 13.8113 51.0755 13.1606C50.7342 12.5099 50.5635 11.7633 50.5635 10.9206C50.5635 10.0779 50.7342 9.33128 51.0755 8.68061C51.4168 8.02994 51.8862 7.51794 52.4835 7.14461C53.0808 6.77128 53.7475 6.58461 54.4835 6.58461C54.9102 6.58461 55.2942 6.64861 55.6355 6.77661C55.9768 6.90461 56.2702 7.07528 56.5155 7.28861C56.7715 7.49128 56.9688 7.70994 57.1075 7.94461H57.2035L57.1075 6.80861V3.54461H58.8195V15.0006H57.2035V13.9126H57.1075C56.9688 14.1366 56.7715 14.3553 56.5155 14.5686C56.2702 14.7713 55.9768 14.9366 55.6355 15.0646C55.2942 15.1926 54.9102 15.2566 54.4835 15.2566ZM54.7395 13.6726C55.1662 13.6726 55.5662 13.5606 55.9395 13.3366C56.3235 13.1126 56.6275 12.7979 56.8515 12.3926C57.0862 11.9766 57.2035 11.4859 57.2035 10.9206C57.2035 10.3553 57.0862 9.86994 56.8515 9.46461C56.6275 9.04861 56.3235 8.72861 55.9395 8.50461C55.5662 8.28061 55.1662 8.16861 54.7395 8.16861C54.3128 8.16861 53.9128 8.28061 53.5395 8.50461C53.1662 8.72861 52.8622 9.04861 52.6275 9.46461C52.3928 9.86994 52.2755 10.3553 52.2755 10.9206C52.2755 11.4753 52.3928 11.9606 52.6275 12.3766C52.8622 12.7926 53.1662 13.1126 53.5395 13.3366C53.9128 13.5606 54.3128 13.6726 54.7395 13.6726ZM64.7668 15.2566C63.9241 15.2566 63.1828 15.0646 62.5428 14.6806C61.9028 14.2966 61.4014 13.7793 61.0388 13.1286C60.6761 12.4673 60.4948 11.7313 60.4948 10.9206C60.4948 10.1099 60.6761 9.37928 61.0388 8.72861C61.4014 8.06728 61.9028 7.54461 62.5428 7.16061C63.1828 6.77661 63.9241 6.58461 64.7668 6.58461C65.5988 6.58461 66.3348 6.78194 66.9748 7.17661C67.6148 7.56061 68.1161 8.07794 68.4788 8.72861C68.8414 9.37928 69.0228 10.1099 69.0228 10.9206C69.0228 11.7313 68.8414 12.4673 68.4788 13.1286C68.1161 13.7793 67.6148 14.2966 66.9748 14.6806C66.3348 15.0646 65.5988 15.2566 64.7668 15.2566ZM64.7668 13.6726C65.2148 13.6726 65.6308 13.5659 66.0148 13.3526C66.3988 13.1286 66.7081 12.8139 66.9428 12.4086C67.1881 11.9926 67.3108 11.4966 67.3108 10.9206C67.3108 10.3446 67.1881 9.85394 66.9428 9.44861C66.7081 9.03261 66.3988 8.71794 66.0148 8.50461C65.6308 8.28061 65.2148 8.16861 64.7668 8.16861C64.3188 8.16861 63.8974 8.28061 63.5028 8.50461C63.1188 8.71794 62.8041 9.03261 62.5588 9.44861C62.3241 9.85394 62.2068 10.3446 62.2068 10.9206C62.2068 11.4966 62.3241 11.9926 62.5588 12.4086C62.8041 12.8139 63.1241 13.1286 63.5188 13.3526C63.9134 13.5659 64.3294 13.6726 64.7668 13.6726ZM77.6246 15.2566C76.974 15.2566 76.4086 15.1606 75.9286 14.9686C75.4486 14.7659 75.054 14.4993 74.7446 14.1686C74.4353 13.8273 74.206 13.4593 74.0566 13.0646L75.6086 12.3926C75.8006 12.8299 76.0726 13.1659 76.4246 13.4006C76.7873 13.6246 77.2033 13.7366 77.6726 13.7366C78.0993 13.7366 78.4673 13.6619 78.7766 13.5126C79.086 13.3526 79.2406 13.0966 79.2406 12.7446C79.2406 12.5206 79.166 12.3393 79.0166 12.2006C78.878 12.0513 78.686 11.9286 78.4406 11.8326C78.206 11.7366 77.934 11.6513 77.6246 11.5766L76.6486 11.3526C76.2646 11.2566 75.8966 11.1073 75.5446 10.9046C75.2033 10.6913 74.926 10.4246 74.7126 10.1046C74.4993 9.78461 74.3926 9.40594 74.3926 8.96861C74.3926 8.47794 74.5313 8.05661 74.8086 7.70461C75.0966 7.34194 75.4806 7.06461 75.9606 6.87261C76.4406 6.68061 76.958 6.58461 77.5126 6.58461C78.0246 6.58461 78.4886 6.65394 78.9046 6.79261C79.3313 6.92061 79.6993 7.11794 80.0086 7.38461C80.3286 7.64061 80.5793 7.96061 80.7606 8.34461L79.2726 9.01661C79.0913 8.65394 78.846 8.40328 78.5366 8.26461C78.2273 8.11528 77.8913 8.04061 77.5286 8.04061C77.1233 8.04061 76.782 8.12594 76.5046 8.29661C76.238 8.45661 76.1046 8.66994 76.1046 8.93661C76.1046 9.21394 76.222 9.43261 76.4566 9.59261C76.702 9.75261 77.0006 9.88061 77.3526 9.97661L78.5366 10.2646C79.3473 10.4673 79.9553 10.7766 80.3606 11.1926C80.766 11.5979 80.9686 12.0939 80.9686 12.6806C80.9686 13.2033 80.8193 13.6619 80.5206 14.0566C80.222 14.4406 79.8166 14.7393 79.3046 14.9526C78.8033 15.1553 78.2433 15.2566 77.6246 15.2566ZM82.6428 15.0006V3.54461H84.3708V15.0006H82.6428ZM89.518 15.2566C88.5153 15.2566 87.758 14.9579 87.246 14.3606C86.7447 13.7526 86.494 12.9313 86.494 11.8966V6.84061H88.222V11.6566C88.222 12.3393 88.382 12.8459 88.702 13.1766C89.0327 13.5073 89.4433 13.6726 89.934 13.6726C90.382 13.6726 90.766 13.5606 91.086 13.3366C91.406 13.1019 91.6513 12.7979 91.822 12.4246C92.0033 12.0513 92.094 11.6513 92.094 11.2246V6.84061H93.806V15.0006H92.19V13.8966H92.094C91.9447 14.1526 91.7367 14.3819 91.47 14.5846C91.2033 14.7873 90.9047 14.9473 90.574 15.0646C90.2433 15.1926 89.8913 15.2566 89.518 15.2566ZM95.8076 15.0006V13.5606L100.352 8.34461H95.9516V6.84061H102.464V8.28061L97.9356 13.4966H102.592V15.0006H95.8076ZM98.4636 5.27261L96.7516 3.33661V3.22461H98.3996L99.1356 4.21661H99.2956L100.048 3.22461H101.712V3.33661L99.9836 5.27261H98.4636ZM108.866 15.2566C108.45 15.2566 108.072 15.1926 107.73 15.0646C107.389 14.9366 107.09 14.7713 106.834 14.5686C106.589 14.3553 106.392 14.1366 106.242 13.9126H106.146V15.0006H104.514V3.54461H106.242V6.80861L106.146 7.94461H106.242C106.392 7.70994 106.589 7.49128 106.834 7.28861C107.09 7.07528 107.389 6.90461 107.73 6.77661C108.072 6.64861 108.45 6.58461 108.866 6.58461C109.613 6.58461 110.28 6.77128 110.866 7.14461C111.453 7.51794 111.917 8.02994 112.258 8.68061C112.61 9.33128 112.786 10.0779 112.786 10.9206C112.786 11.7633 112.61 12.5099 112.258 13.1606C111.917 13.8113 111.453 14.3233 110.866 14.6966C110.28 15.0699 109.613 15.2566 108.866 15.2566ZM108.61 13.6726C109.037 13.6726 109.437 13.5606 109.81 13.3366C110.194 13.1126 110.498 12.7926 110.722 12.3766C110.957 11.9606 111.074 11.4753 111.074 10.9206C111.074 10.3553 110.957 9.86994 110.722 9.46461C110.498 9.04861 110.194 8.72861 109.81 8.50461C109.437 8.28061 109.037 8.16861 108.61 8.16861C108.184 8.16861 107.784 8.28061 107.41 8.50461C107.037 8.72861 106.733 9.04861 106.498 9.46461C106.264 9.86994 106.146 10.3553 106.146 10.9206C106.146 11.4859 106.264 11.9766 106.498 12.3926C106.733 12.7979 107.037 13.1126 107.41 13.3366C107.784 13.5606 108.184 13.6726 108.61 13.6726ZM116.995 18.0566C116.963 18.1313 116.926 18.2059 116.883 18.2806C116.851 18.3659 116.83 18.4246 116.819 18.4566H114.979C115.032 18.3393 115.107 18.1739 115.203 17.9606C115.31 17.7473 115.411 17.5339 115.507 17.3206C115.571 17.1819 115.635 17.0326 115.699 16.8726C115.774 16.7126 115.848 16.5473 115.923 16.3766C116.008 16.2059 116.088 16.0406 116.163 15.8806L116.771 14.5526L113.363 6.84061H115.283L117.619 12.4086H117.699L119.955 6.84061H121.859L117.635 16.5686C117.56 16.7499 117.475 16.9419 117.379 17.1446C117.294 17.3473 117.214 17.5286 117.139 17.6886C117.075 17.8593 117.027 17.9819 116.995 18.0566Z" fill="white"/>
<g id="GPay (Dark)">
<g id="GPay">
<g id="Pay">
<path id="Fill 1" fill-rule="evenodd" clip-rule="evenodd" d="M150.356 3.42339V8.16175H153.278C153.974 8.16175 154.55 7.92781 155.005 7.45993C155.473 6.99313 155.707 6.43644 155.707 5.79203C155.707 5.16061 155.473 4.61041 155.005 4.14254C154.55 3.66274 153.974 3.4223 153.278 3.4223H150.356V3.42339ZM150.356 9.82966V15.3262H148.611V1.75549H153.24C154.417 1.75549 155.415 2.14756 156.238 2.93061C157.073 3.71365 157.491 4.66782 157.491 5.79203C157.491 6.94224 157.073 7.90291 156.238 8.67296C155.428 9.44409 154.429 9.82858 153.24 9.82858H150.356V9.82966Z" fill="white"/>
<path id="Fill 3" fill-rule="evenodd" clip-rule="evenodd" d="M159.255 12.4831C159.255 12.9379 159.448 13.317 159.834 13.6203C160.22 13.9235 160.672 14.0752 161.19 14.0752C161.924 14.0752 162.578 13.8032 163.153 13.2607C163.729 12.717 164.017 12.0791 164.017 11.3469C163.472 10.917 162.713 10.7025 161.74 10.7025C161.031 10.7025 160.44 10.8736 159.966 11.2148C159.492 11.5559 159.255 11.9773 159.255 12.4831M161.513 5.73566C162.803 5.73566 163.821 6.08007 164.569 6.76889C165.314 7.45771 165.687 8.40213 165.687 9.60216V15.3261H164.018V14.0373H163.942C163.221 15.0985 162.259 15.6294 161.058 15.6294C160.033 15.6294 159.176 15.3261 158.487 14.7196C157.797 14.1131 157.453 13.3549 157.453 12.4452C157.453 11.4845 157.816 10.7208 158.543 10.1523C159.271 9.58375 160.241 9.2989 161.456 9.2989C162.492 9.2989 163.346 9.48844 164.017 9.86751V9.46894C164.017 8.86243 163.776 8.34798 163.296 7.92451C162.814 7.50103 162.252 7.28984 161.607 7.28984C160.633 7.28984 159.862 7.70032 159.293 8.52235L157.755 7.55519C158.603 6.34217 159.855 5.73566 161.513 5.73566" fill="white"/>
<path id="Fill 5" fill-rule="evenodd" clip-rule="evenodd" d="M175.269 6.03894L169.443 19.4201H167.641L169.804 14.738L165.971 6.03894H167.869L170.639 12.7106H170.677L173.371 6.03894H175.269Z" fill="white"/>
</g>
<g id="G">
<path id="Fill 8" fill-rule="evenodd" clip-rule="evenodd" d="M143.303 8.64473C143.303 8.09563 143.256 7.56601 143.168 7.05914H135.806V10.0625H140.023C139.842 11.0414 139.294 11.8744 138.464 12.4322V14.3828H140.98C142.454 13.0246 143.303 11.0177 143.303 8.64473" fill="#4285F4"/>
<path id="Fill 10" fill-rule="evenodd" clip-rule="evenodd" d="M135.806 16.2651C137.913 16.2651 139.687 15.5741 140.98 14.3828L138.464 12.4322C137.763 12.9033 136.861 13.1784 135.806 13.1784C133.77 13.1784 132.042 11.8073 131.424 9.95959H128.832V11.9687C130.116 14.516 132.757 16.2651 135.806 16.2651" fill="#34A853"/>
<path id="Fill 12" fill-rule="evenodd" clip-rule="evenodd" d="M131.424 9.9596C131.266 9.48847 131.179 8.98593 131.179 8.46715C131.179 7.94837 131.266 7.44583 131.424 6.9747V4.96564H128.832C128.3 6.01837 128 7.20756 128 8.46715C128 9.72674 128.3 10.916 128.832 11.9687L131.424 9.9596Z" fill="#FABB05"/>
<path id="Fill 14" fill-rule="evenodd" clip-rule="evenodd" d="M135.806 3.75583C136.957 3.75583 137.988 4.15115 138.801 4.92553V4.92661L141.029 2.70094C139.676 1.44243 137.912 0.669128 135.806 0.669128C132.757 0.669128 130.116 2.41826 128.832 4.9656L131.424 6.97467C132.042 5.12698 133.77 3.75583 135.806 3.75583" fill="#E94235"/>
</g>
</g>
</g>
</g>
</svg>
