<svg width="298" height="38" viewBox="0 0 298 38" fill="none" xmlns="http://www.w3.org/2000/svg">
<g id="sk_book_with_Light">
<path id="Text" d="M3.90707 30V9.952H10.9351C12.1671 9.952 13.2684 10.2133 14.2391 10.736C15.2097 11.2587 15.9751 11.9867 16.5351 12.92C17.1137 13.8347 17.4031 14.8893 17.4031 16.084C17.4031 17.3907 16.9924 18.576 16.1711 19.64C15.3684 20.6853 14.2297 21.4133 12.7551 21.824L18.3271 29.832V30H14.7711L9.42307 22.132H6.98707V30H3.90707ZM10.9631 12.836H6.98707V19.304H10.8511C11.8031 19.304 12.6151 19.0053 13.2871 18.408C13.9591 17.792 14.2951 17.008 14.2951 16.056C14.2951 15.5147 14.1644 15.0013 13.9031 14.516C13.6417 14.012 13.2591 13.6107 12.7551 13.312C12.2697 12.9947 11.6724 12.836 10.9631 12.836ZM27.0435 30.448C25.6435 30.448 24.3928 30.1213 23.2915 29.468C22.1901 28.8147 21.3221 27.9187 20.6875 26.78C20.0715 25.6413 19.7635 24.344 19.7635 22.888C19.7635 21.5253 20.0621 20.2653 20.6595 19.108C21.2568 17.9507 22.0875 17.0267 23.1515 16.336C24.2341 15.6267 25.4755 15.272 26.8755 15.272C28.3501 15.272 29.6008 15.5893 30.6275 16.224C31.6728 16.8587 32.4661 17.7267 33.0075 18.828C33.5488 19.9293 33.8195 21.1707 33.8195 22.552C33.8195 22.7573 33.8101 22.944 33.7915 23.112C33.7915 23.28 33.7821 23.4107 33.7635 23.504H22.7315C22.8808 24.9227 23.3755 25.9867 24.2155 26.696C25.0741 27.4053 26.0448 27.76 27.1275 27.76C28.0981 27.76 28.9008 27.5453 29.5355 27.116C30.1701 26.668 30.6741 26.1173 31.0475 25.464L33.5395 26.668C32.9235 27.788 32.0835 28.7027 31.0195 29.412C29.9555 30.1027 28.6301 30.448 27.0435 30.448ZM26.9035 17.848C25.8955 17.848 25.0368 18.156 24.3275 18.772C23.6181 19.388 23.1421 20.2093 22.8995 21.236H30.8235C30.7861 20.7507 30.6275 20.2467 30.3475 19.724C30.0675 19.2013 29.6381 18.7627 29.0595 18.408C28.4995 18.0347 27.7808 17.848 26.9035 17.848ZM36.0602 30V27.48L44.0122 18.352H36.3122V15.72H47.7082V18.24L39.7842 27.368H47.9322V30H36.0602ZM57.3114 30.448C55.9114 30.448 54.6608 30.1213 53.5594 29.468C52.4581 28.8147 51.5901 27.9187 50.9554 26.78C50.3394 25.6413 50.0314 24.344 50.0314 22.888C50.0314 21.5253 50.3301 20.2653 50.9274 19.108C51.5248 17.9507 52.3554 17.0267 53.4194 16.336C54.5021 15.6267 55.7434 15.272 57.1434 15.272C58.6181 15.272 59.8688 15.5893 60.8954 16.224C61.9408 16.8587 62.7341 17.7267 63.2754 18.828C63.8168 19.9293 64.0874 21.1707 64.0874 22.552C64.0874 22.7573 64.0781 22.944 64.0594 23.112C64.0594 23.28 64.0501 23.4107 64.0314 23.504H52.9994C53.1488 24.9227 53.6434 25.9867 54.4834 26.696C55.3421 27.4053 56.3128 27.76 57.3954 27.76C58.3661 27.76 59.1688 27.5453 59.8034 27.116C60.4381 26.668 60.9421 26.1173 61.3154 25.464L63.8074 26.668C63.1914 27.788 62.3514 28.7027 61.2874 29.412C60.2234 30.1027 58.8981 30.448 57.3114 30.448ZM57.1714 17.848C56.1634 17.848 55.3048 18.156 54.5954 18.772C53.8861 19.388 53.4101 20.2093 53.1674 21.236H61.0914C61.0541 20.7507 60.8954 20.2467 60.6154 19.724C60.3354 19.2013 59.9061 18.7627 59.3274 18.408C58.7674 18.0347 58.0488 17.848 57.1714 17.848ZM67.1929 30V15.72H70.0489V17.82H70.2169C70.5342 17.092 71.0756 16.4947 71.8409 16.028C72.6249 15.5427 73.4649 15.3 74.3609 15.3C74.7529 15.3 75.0796 15.328 75.3409 15.384C75.6209 15.44 75.8729 15.5053 76.0969 15.58V18.716C75.7422 18.5667 75.3782 18.4453 75.0049 18.352C74.6502 18.2587 74.2769 18.212 73.8849 18.212C73.1756 18.212 72.5409 18.408 71.9809 18.8C71.4396 19.1733 71.0102 19.6867 70.6929 20.34C70.3756 20.9747 70.2169 21.6747 70.2169 22.44V30H67.1929ZM83.536 30L77.628 15.72H80.988L84.992 26.108H85.132L89.22 15.72H92.524L86.56 30H83.536ZM101.091 30.448C99.6164 30.448 98.319 30.112 97.199 29.44C96.079 28.768 95.2017 27.8627 94.567 26.724C93.9324 25.5853 93.615 24.2973 93.615 22.86C93.615 21.4413 93.9324 20.1627 94.567 19.024C95.2017 17.8667 96.079 16.952 97.199 16.28C98.319 15.608 99.6164 15.272 101.091 15.272C102.547 15.272 103.835 15.608 104.955 16.28C106.075 16.952 106.952 17.8667 107.587 19.024C108.222 20.1627 108.539 21.4413 108.539 22.86C108.539 24.2973 108.222 25.5853 107.587 26.724C106.952 27.8627 106.075 28.768 104.955 29.44C103.835 30.112 102.547 30.448 101.091 30.448ZM101.091 27.676C101.875 27.676 102.603 27.4893 103.275 27.116C103.947 26.724 104.488 26.1733 104.899 25.464C105.328 24.736 105.543 23.868 105.543 22.86C105.543 21.852 105.328 20.9933 104.899 20.284C104.488 19.556 103.947 19.0053 103.275 18.632C102.603 18.24 101.875 18.044 101.091 18.044C100.307 18.044 99.5697 18.24 98.879 18.632C98.207 19.0053 97.6564 19.556 97.227 20.284C96.8164 20.9933 96.611 21.852 96.611 22.86C96.611 23.868 96.8164 24.736 97.227 25.464C97.6564 26.1733 98.207 26.724 98.879 27.116C99.5697 27.4893 100.307 27.676 101.091 27.676ZM115.554 30L109.646 15.72H113.006L117.01 26.108H117.15L121.238 15.72H124.542L118.578 30H115.554ZM131.006 30.448C129.979 30.448 129.064 30.252 128.262 29.86C127.459 29.4493 126.834 28.88 126.386 28.152C125.938 27.424 125.714 26.5933 125.714 25.66C125.714 24.652 125.975 23.7933 126.498 23.084C127.039 22.356 127.758 21.8053 128.654 21.432C129.55 21.0587 130.539 20.872 131.622 20.872C132.518 20.872 133.302 20.956 133.974 21.124C134.664 21.292 135.187 21.4693 135.542 21.656V20.9C135.542 19.9667 135.206 19.22 134.534 18.66C133.862 18.1 132.994 17.82 131.93 17.82C131.202 17.82 130.511 17.988 129.858 18.324C129.204 18.6413 128.682 19.08 128.29 19.64L126.218 18.044C126.834 17.1853 127.646 16.5133 128.654 16.028C129.68 15.524 130.8 15.272 132.014 15.272C134.086 15.272 135.682 15.7853 136.802 16.812C137.922 17.82 138.482 19.2387 138.482 21.068V30H135.542V28.236H135.374C135 28.8147 134.44 29.328 133.694 29.776C132.947 30.224 132.051 30.448 131.006 30.448ZM131.538 27.984C132.322 27.984 133.012 27.7973 133.61 27.424C134.207 27.0507 134.674 26.5653 135.01 25.968C135.364 25.352 135.542 24.6893 135.542 23.98C135.112 23.7373 134.608 23.5413 134.03 23.392C133.451 23.224 132.835 23.14 132.182 23.14C130.95 23.14 130.072 23.392 129.55 23.896C129.027 24.3813 128.766 24.9787 128.766 25.688C128.766 26.36 129.018 26.9107 129.522 27.34C130.026 27.7693 130.698 27.984 131.538 27.984ZM143.349 25.856V18.352H140.857V15.72H143.349V11.688H146.373V15.72H149.873V18.352H146.373V25.212C146.373 25.9213 146.513 26.4627 146.793 26.836C147.092 27.2093 147.587 27.396 148.277 27.396C148.632 27.396 148.931 27.3493 149.173 27.256C149.435 27.1627 149.696 27.032 149.957 26.864V29.804C149.64 29.9347 149.304 30.0373 148.949 30.112C148.595 30.1867 148.175 30.224 147.689 30.224C146.364 30.224 145.309 29.8413 144.525 29.076C143.741 28.292 143.349 27.2187 143.349 25.856ZM147.941 14.068V9.952H150.769L150.069 14.068H147.941ZM166.327 30.448C164.889 30.448 163.62 30.1213 162.519 29.468C161.417 28.8147 160.549 27.9187 159.915 26.78C159.28 25.6227 158.963 24.316 158.963 22.86C158.963 21.404 159.28 20.1067 159.915 18.968C160.549 17.8107 161.417 16.9053 162.519 16.252C163.62 15.5987 164.889 15.272 166.327 15.272C167.913 15.272 169.248 15.6267 170.331 16.336C171.432 17.0453 172.216 18.0067 172.683 19.22L169.939 20.34C169.285 18.8093 168.063 18.044 166.271 18.044C165.487 18.044 164.768 18.2493 164.115 18.66C163.461 19.052 162.939 19.612 162.547 20.34C162.155 21.0493 161.959 21.8893 161.959 22.86C161.959 23.8307 162.155 24.68 162.547 25.408C162.939 26.136 163.461 26.696 164.115 27.088C164.768 27.48 165.487 27.676 166.271 27.676C167.185 27.676 167.96 27.4707 168.595 27.06C169.229 26.6307 169.724 26.052 170.079 25.324L172.767 26.5C172.263 27.6387 171.46 28.5813 170.359 29.328C169.257 30.0747 167.913 30.448 166.327 30.448ZM182.047 30.448C180.647 30.448 179.396 30.1213 178.295 29.468C177.193 28.8147 176.325 27.9187 175.691 26.78C175.075 25.6413 174.767 24.344 174.767 22.888C174.767 21.5253 175.065 20.2653 175.663 19.108C176.26 17.9507 177.091 17.0267 178.155 16.336C179.237 15.6267 180.479 15.272 181.879 15.272C183.353 15.272 184.604 15.5893 185.631 16.224C186.676 16.8587 187.469 17.7267 188.011 18.828C188.552 19.9293 188.823 21.1707 188.823 22.552C188.823 22.7573 188.813 22.944 188.795 23.112C188.795 23.28 188.785 23.4107 188.767 23.504H177.735C177.884 24.9227 178.379 25.9867 179.219 26.696C180.077 27.4053 181.048 27.76 182.131 27.76C183.101 27.76 183.904 27.5453 184.539 27.116C185.173 26.668 185.677 26.1173 186.051 25.464L188.543 26.668C187.927 27.788 187.087 28.7027 186.023 29.412C184.959 30.1027 183.633 30.448 182.047 30.448ZM181.907 17.848C180.899 17.848 180.04 18.156 179.331 18.772C178.621 19.388 178.145 20.2093 177.903 21.236H185.827C185.789 20.7507 185.631 20.2467 185.351 19.724C185.071 19.2013 184.641 18.7627 184.063 18.408C183.503 18.0347 182.784 17.848 181.907 17.848ZM191.063 30V27.48L199.015 18.352H191.315V15.72H202.711V18.24L194.787 27.368H202.935V30H191.063Z" fill="#3C4043"/>
<g id="GPay Logo (Light)">
<g id="GPay">
<g id="Pay">
<path id="Fill 1" fill-rule="evenodd" clip-rule="evenodd" d="M254.529 9.44664V17.6128H259.565C260.765 17.6128 261.757 17.2096 262.541 16.4032C263.347 15.5988 263.75 14.6394 263.75 13.5288C263.75 12.4406 263.347 11.4924 262.541 10.686C261.757 9.85915 260.765 9.44478 259.565 9.44478H254.529V9.44664ZM254.529 20.4872V29.9599H251.521V6.57217H259.499C261.527 6.57217 263.248 7.24786 264.666 8.59737C266.105 9.94688 266.824 11.5913 266.824 13.5288C266.824 15.511 266.105 17.1667 264.666 18.4938C263.27 19.8227 261.547 20.4854 259.499 20.4854H254.529V20.4872Z" fill="#5F6368"/>
<path id="Fill 3" fill-rule="evenodd" clip-rule="evenodd" d="M269.864 25.0602C269.864 25.8442 270.197 26.4975 270.862 27.0201C271.527 27.5427 272.306 27.804 273.2 27.804C274.465 27.804 275.591 27.3354 276.584 26.4004C277.576 25.4634 278.071 24.364 278.071 23.1022C277.133 22.3612 275.825 21.9916 274.147 21.9916C272.925 21.9916 271.907 22.2865 271.09 22.8745C270.273 23.4623 269.864 24.1886 269.864 25.0602ZM273.756 13.4317C275.98 13.4317 277.735 14.0252 279.022 15.2124C280.308 16.3995 280.95 18.0271 280.95 20.0952V29.9599H278.073V27.7387H277.942C276.699 29.5677 275.042 30.4825 272.972 30.4825C271.206 30.4825 269.728 29.9599 268.541 28.9146C267.353 27.8694 266.759 26.5628 266.759 24.9949C266.759 23.3393 267.385 22.0232 268.638 21.0434C269.892 20.0635 271.565 19.5726 273.658 19.5726C275.444 19.5726 276.916 19.8992 278.071 20.5525V19.8656C278.071 18.8204 277.656 17.9338 276.829 17.204C275.999 16.4741 275.031 16.1102 273.919 16.1102C272.239 16.1102 270.911 16.8176 269.93 18.2343L267.28 16.5675C268.741 14.4769 270.899 13.4317 273.756 13.4317Z" fill="#5F6368"/>
<path id="Fill 5" fill-rule="evenodd" clip-rule="evenodd" d="M297.463 13.9543L287.424 37.0154H284.318L288.046 28.9464L281.44 13.9543H284.71L289.484 25.4522H289.55L294.193 13.9543H297.463Z" fill="#5F6368"/>
</g>
<g id="G">
<path id="Fill 8" fill-rule="evenodd" clip-rule="evenodd" d="M242.373 18.4452C242.373 17.4989 242.293 16.5861 242.141 15.7126H229.454V20.8885H236.72C236.408 22.5757 235.465 24.0112 234.033 24.9725V28.3341H238.37C240.91 25.9935 242.373 22.5348 242.373 18.4452Z" fill="#4285F4"/>
<path id="Fill 10" fill-rule="evenodd" clip-rule="evenodd" d="M229.454 31.5782C233.084 31.5782 236.141 30.3873 238.37 28.3341L234.033 24.9725C232.826 25.7844 231.272 26.2585 229.454 26.2585C225.944 26.2585 222.966 23.8955 221.901 20.7112H217.433V24.1736C219.647 28.5637 224.197 31.5782 229.454 31.5782Z" fill="#34A853"/>
<path id="Fill 12" fill-rule="evenodd" clip-rule="evenodd" d="M221.901 20.7111C221.628 19.8992 221.479 19.0331 221.479 18.139C221.479 17.245 221.628 16.3789 221.901 15.567V12.1045H217.433C216.518 13.9188 216 15.9683 216 18.139C216 20.3098 216.518 22.3595 217.433 24.1736L221.901 20.7111Z" fill="#FABB05"/>
<path id="Fill 14" fill-rule="evenodd" clip-rule="evenodd" d="M229.454 10.0196C231.436 10.0196 233.213 10.7009 234.615 12.0355V12.0374L238.455 8.20162C236.123 6.03271 233.082 4.7 229.454 4.7C224.197 4.7 219.647 7.71446 217.433 12.1046L221.901 15.567C222.966 12.3827 225.944 10.0196 229.454 10.0196Z" fill="#E94235"/>
</g>
</g>
</g>
</g>
</svg>
