<svg width="170" height="21" viewBox="0 0 170 21" fill="none" xmlns="http://www.w3.org/2000/svg">
<g id="sk_book_with_Pay_NBG">
<path id="Left Text" d="M1.93975 15.0006V3.54461H5.95575C6.65975 3.54461 7.28909 3.69394 7.84375 3.99261C8.39842 4.29128 8.83575 4.70194 9.15575 5.22461C9.48642 5.74728 9.65175 6.35528 9.65175 7.04861C9.65175 7.50728 9.55575 7.94461 9.36375 8.36061C9.18242 8.77661 8.91575 9.14994 8.56375 9.48061C8.22242 9.80061 7.80642 10.0513 7.31575 10.2326C7.21975 10.2753 7.11842 10.3073 7.01175 10.3286L10.1798 14.9046V15.0006H8.14775L5.09175 10.5046H3.69975V15.0006H1.93975ZM3.69975 8.88861H5.90775C6.27042 8.88861 6.59575 8.80861 6.88375 8.64861C7.18242 8.48861 7.42242 8.26994 7.60375 7.99261C7.78509 7.70461 7.87575 7.38461 7.87575 7.03261C7.87575 6.72328 7.80109 6.42994 7.65175 6.15261C7.50242 5.86461 7.28375 5.63528 6.99575 5.46461C6.71842 5.28328 6.37709 5.19261 5.97175 5.19261H3.69975V8.88861ZM15.1391 15.2566C14.3391 15.2566 13.6245 15.0699 12.9951 14.6966C12.3658 14.3233 11.8698 13.8113 11.5071 13.1606C11.1551 12.5099 10.9791 11.7686 10.9791 10.9366C10.9791 10.1579 11.1498 9.43794 11.4911 8.77661C11.8325 8.11528 12.3071 7.58728 12.9151 7.19261C13.5338 6.78728 14.2431 6.58461 15.0431 6.58461C15.8858 6.58461 16.6005 6.76594 17.1871 7.12861C17.7845 7.49128 18.2378 7.98728 18.5471 8.61661C18.8565 9.24594 19.0111 9.95528 19.0111 10.7446C19.0111 10.8619 19.0058 10.9686 18.9951 11.0646C18.9951 11.1606 18.9898 11.2353 18.9791 11.2886H12.6751C12.7178 11.7366 12.8298 12.1259 13.0111 12.4566C13.2458 12.8726 13.5551 13.1873 13.9391 13.4006C14.3231 13.6139 14.7391 13.7206 15.1871 13.7206C15.7311 13.7206 16.1845 13.5979 16.5471 13.3526C16.9205 13.0966 17.2138 12.7819 17.4271 12.4086L18.8511 13.0966C18.4991 13.7366 18.0191 14.2593 17.4111 14.6646C16.8031 15.0593 16.0458 15.2566 15.1391 15.2566ZM12.7711 9.99261H17.2991C17.2885 9.78994 17.2351 9.57661 17.1391 9.35261C17.0431 9.11794 16.9045 8.90461 16.7231 8.71261C16.5418 8.52061 16.3125 8.36594 16.0351 8.24861C15.7578 8.12061 15.4325 8.05661 15.0591 8.05661C14.5898 8.05661 14.1738 8.17928 13.8111 8.42461C13.4485 8.65928 13.1658 8.98994 12.9631 9.41661C12.8778 9.59794 12.8138 9.78994 12.7711 9.99261ZM20.2701 15.0006V13.5606L24.8141 8.34461H20.4141V6.84061H26.9261V8.28061L22.3981 13.4966H27.0541V15.0006H20.2701ZM32.3923 15.2566C31.5923 15.2566 30.8776 15.0699 30.2483 14.6966C29.6189 14.3233 29.1229 13.8113 28.7603 13.1606C28.4083 12.5099 28.2323 11.7686 28.2323 10.9366C28.2323 10.1579 28.4029 9.43794 28.7443 8.77661C29.0856 8.11528 29.5603 7.58728 30.1683 7.19261C30.7869 6.78728 31.4963 6.58461 32.2963 6.58461C33.1389 6.58461 33.8536 6.76594 34.4403 7.12861C35.0376 7.49128 35.4909 7.98728 35.8003 8.61661C36.1096 9.24594 36.2643 9.95528 36.2643 10.7446C36.2643 10.8619 36.2589 10.9686 36.2483 11.0646C36.2483 11.1606 36.2429 11.2353 36.2323 11.2886H29.9283C29.9709 11.7366 30.0829 12.1259 30.2643 12.4566C30.4989 12.8726 30.8083 13.1873 31.1923 13.4006C31.5763 13.6139 31.9923 13.7206 32.4403 13.7206C32.9843 13.7206 33.4376 13.5979 33.8003 13.3526C34.1736 13.0966 34.4669 12.7819 34.6803 12.4086L36.1043 13.0966C35.7523 13.7366 35.2723 14.2593 34.6643 14.6646C34.0563 15.0593 33.2989 15.2566 32.3923 15.2566ZM30.0243 9.99261H34.5523C34.5416 9.78994 34.4883 9.57661 34.3923 9.35261C34.2963 9.11794 34.1576 8.90461 33.9763 8.71261C33.7949 8.52061 33.5656 8.36594 33.2883 8.24861C33.0109 8.12061 32.6856 8.05661 32.3123 8.05661C31.8429 8.05661 31.4269 8.17928 31.0643 8.42461C30.7016 8.65928 30.4189 8.98994 30.2163 9.41661C30.1309 9.59794 30.0669 9.78994 30.0243 9.99261ZM38.0174 15.0006V6.84061H39.6494V8.04061H39.7454C39.8734 7.76328 40.0547 7.51794 40.2894 7.30461C40.5347 7.09128 40.812 6.92061 41.1214 6.79261C41.4414 6.66461 41.772 6.60061 42.1134 6.60061C42.3374 6.60061 42.524 6.61661 42.6734 6.64861C42.8334 6.66994 42.9774 6.70728 43.1054 6.76061V8.55261C42.9027 8.46728 42.6947 8.39794 42.4814 8.34461C42.2787 8.29128 42.0654 8.26461 41.8414 8.26461C41.436 8.26461 41.0734 8.37661 40.7534 8.60061C40.444 8.81394 40.1987 9.10194 40.0174 9.46461C39.836 9.82728 39.7454 10.2326 39.7454 10.6806V15.0006H38.0174ZM47.3349 15.0006L43.9589 6.84061H45.8789L48.1669 12.7766H48.2469L50.5829 6.84061H52.4709L49.0629 15.0006H47.3349ZM57.3449 15.2566C56.5022 15.2566 55.7609 15.0646 55.1209 14.6806C54.4809 14.2966 53.9795 13.7793 53.6169 13.1286C53.2542 12.4673 53.0729 11.7313 53.0729 10.9206C53.0729 10.1099 53.2542 9.37928 53.6169 8.72861C53.9795 8.06728 54.4809 7.54461 55.1209 7.16061C55.7609 6.77661 56.5022 6.58461 57.3449 6.58461C58.1769 6.58461 58.9129 6.78194 59.5529 7.17661C60.1929 7.56061 60.6942 8.07794 61.0569 8.72861C61.4195 9.37928 61.6009 10.1099 61.6009 10.9206C61.6009 11.7313 61.4195 12.4673 61.0569 13.1286C60.6942 13.7793 60.1929 14.2966 59.5529 14.6806C58.9129 15.0646 58.1769 15.2566 57.3449 15.2566ZM57.3449 13.6726C57.7929 13.6726 58.2089 13.5659 58.5929 13.3526C58.9769 13.1286 59.2862 12.8139 59.5209 12.4086C59.7662 11.9926 59.8889 11.4966 59.8889 10.9206C59.8889 10.3446 59.7662 9.85394 59.5209 9.44861C59.2862 9.03261 58.9769 8.71794 58.5929 8.50461C58.2089 8.28061 57.7929 8.16861 57.3449 8.16861C56.8969 8.16861 56.4755 8.28061 56.0809 8.50461C55.6969 8.71794 55.3822 9.03261 55.1369 9.44861C54.9022 9.85394 54.7849 10.3446 54.7849 10.9206C54.7849 11.4966 54.9022 11.9926 55.1369 12.4086C55.3822 12.8139 55.7022 13.1286 56.0969 13.3526C56.4915 13.5659 56.9075 13.6726 57.3449 13.6726ZM65.588 15.0006L62.212 6.84061H64.132L66.42 12.7766H66.5L68.836 6.84061H70.724L67.316 15.0006H65.588ZM74.3961 15.2566C73.8095 15.2566 73.2868 15.1393 72.8281 14.9046C72.3801 14.6699 72.0228 14.3499 71.7561 13.9446C71.5001 13.5286 71.3721 13.0539 71.3721 12.5206C71.3721 11.9339 71.5215 11.4379 71.8201 11.0326C72.1295 10.6273 72.5401 10.3179 73.0521 10.1046C73.5641 9.89128 74.1295 9.78461 74.7481 9.78461C75.0895 9.78461 75.4041 9.81128 75.6921 9.86461C75.9908 9.90728 76.2468 9.96061 76.4601 10.0246C76.6841 10.0886 76.8601 10.1579 76.9881 10.2326V9.80061C76.9881 9.26728 76.7961 8.84061 76.4121 8.52061C76.0281 8.20061 75.5321 8.04061 74.9241 8.04061C74.5081 8.04061 74.1135 8.13661 73.7401 8.32861C73.3668 8.50994 73.0681 8.76061 72.8441 9.08061L71.6601 8.16861C71.8948 7.83794 72.1775 7.55528 72.5081 7.32061C72.8495 7.08594 73.2281 6.90461 73.6441 6.77661C74.0708 6.64861 74.5135 6.58461 74.9721 6.58461C76.1561 6.58461 77.0681 6.87794 77.7081 7.46461C78.3481 8.04061 78.6681 8.85128 78.6681 9.89661V15.0006H76.9881V13.9926H76.8921C76.7535 14.2059 76.5615 14.4086 76.3161 14.6006C76.0815 14.7926 75.7988 14.9473 75.4681 15.0646C75.1481 15.1926 74.7908 15.2566 74.3961 15.2566ZM74.7001 13.8486C75.1481 13.8486 75.5428 13.7419 75.8841 13.5286C76.2361 13.3153 76.5081 13.0379 76.7001 12.6966C76.8921 12.3446 76.9881 11.9659 76.9881 11.5606C76.7535 11.4219 76.4655 11.3099 76.1241 11.2246C75.7935 11.1286 75.4415 11.0806 75.0681 11.0806C74.3641 11.0806 73.8628 11.2193 73.5641 11.4966C73.2655 11.7739 73.1161 12.1206 73.1161 12.5366C73.1161 12.9206 73.2601 13.2353 73.5481 13.4806C73.8361 13.7259 74.2201 13.8486 74.7001 13.8486ZM80.0043 6.84061H81.4283V4.53661H83.1563V6.84061H85.1563V8.34461H83.1563V12.2646C83.1563 12.6699 83.2363 12.9793 83.3963 13.1926C83.5669 13.4059 83.8496 13.5126 84.2443 13.5126C84.4363 13.5126 84.6069 13.4859 84.7563 13.4326C84.9056 13.3686 85.0549 13.2939 85.2043 13.2086V14.8886C85.0229 14.9633 84.8309 15.0219 84.6283 15.0646C84.4256 15.1073 84.1856 15.1286 83.9083 15.1286C83.1509 15.1286 82.5483 14.9099 82.1003 14.4726C81.6523 14.0246 81.4283 13.4113 81.4283 12.6326V8.34461H80.0043V6.84061ZM84.0523 5.89661V3.54461H85.6683L85.2683 5.89661H84.0523ZM94.5153 15.2566C93.6939 15.2566 92.9633 15.0699 92.3233 14.6966C91.6939 14.3233 91.1979 13.8113 90.8353 13.1606C90.4833 12.4993 90.3073 11.7526 90.3073 10.9206C90.3073 10.0886 90.4833 9.34728 90.8353 8.69661C91.1979 8.04594 91.6939 7.53394 92.3233 7.16061C92.9633 6.77661 93.6939 6.58461 94.5153 6.58461C95.4219 6.58461 96.1846 6.78728 96.8033 7.19261C97.4326 7.59794 97.8806 8.14728 98.1473 8.84061L96.5793 9.48061C96.3873 9.04328 96.1099 8.71794 95.7473 8.50461C95.3953 8.28061 94.9739 8.16861 94.4833 8.16861C94.0353 8.16861 93.6246 8.28594 93.2513 8.52061C92.8779 8.74461 92.5793 9.05928 92.3553 9.46461C92.1313 9.86994 92.0193 10.3553 92.0193 10.9206C92.0193 11.4753 92.1313 11.9606 92.3553 12.3766C92.5793 12.7926 92.8779 13.1126 93.2513 13.3366C93.6246 13.5606 94.0353 13.6726 94.4833 13.6726C95.0059 13.6726 95.4486 13.5553 95.8113 13.3206C96.1739 13.0859 96.4566 12.7553 96.6593 12.3286L98.1953 13.0006C97.8966 13.6513 97.4326 14.1899 96.8033 14.6166C96.1846 15.0433 95.4219 15.2566 94.5153 15.2566ZM103.477 15.2566C102.677 15.2566 101.962 15.0699 101.333 14.6966C100.703 14.3233 100.207 13.8113 99.8446 13.1606C99.4926 12.5099 99.3166 11.7686 99.3166 10.9366C99.3166 10.1579 99.4873 9.43794 99.8286 8.77661C100.17 8.11528 100.645 7.58728 101.253 7.19261C101.871 6.78728 102.581 6.58461 103.381 6.58461C104.223 6.58461 104.938 6.76594 105.525 7.12861C106.122 7.49128 106.575 7.98728 106.885 8.61661C107.194 9.24594 107.349 9.95528 107.349 10.7446C107.349 10.8619 107.343 10.9686 107.333 11.0646C107.333 11.1606 107.327 11.2353 107.317 11.2886H101.013C101.055 11.7366 101.167 12.1259 101.349 12.4566C101.583 12.8726 101.893 13.1873 102.277 13.4006C102.661 13.6139 103.077 13.7206 103.525 13.7206C104.069 13.7206 104.522 13.5979 104.885 13.3526C105.258 13.0966 105.551 12.7819 105.765 12.4086L107.189 13.0966C106.837 13.7366 106.357 14.2593 105.749 14.6646C105.141 15.0593 104.383 15.2566 103.477 15.2566ZM101.109 9.99261H105.637C105.626 9.78994 105.573 9.57661 105.477 9.35261C105.381 9.11794 105.242 8.90461 105.061 8.71261C104.879 8.52061 104.65 8.36594 104.373 8.24861C104.095 8.12061 103.77 8.05661 103.397 8.05661C102.927 8.05661 102.511 8.17928 102.149 8.42461C101.786 8.65928 101.503 8.98994 101.301 9.41661C101.215 9.59794 101.151 9.78994 101.109 9.99261ZM108.608 15.0006V13.5606L113.152 8.34461H108.752V6.84061H115.264V8.28061L110.736 13.4966H115.392V15.0006H108.608Z" fill="white"/>
<g id="GPay (Dark)">
<g id="GPay">
<g id="Pay">
<path id="Fill 1" fill-rule="evenodd" clip-rule="evenodd" d="M144.356 3.42339V8.16175H147.278C147.974 8.16175 148.55 7.92781 149.005 7.45993C149.473 6.99313 149.707 6.43644 149.707 5.79203C149.707 5.16061 149.473 4.61041 149.005 4.14254C148.55 3.66274 147.974 3.4223 147.278 3.4223H144.356V3.42339ZM144.356 9.82966V15.3262H142.611V1.75549H147.24C148.417 1.75549 149.415 2.14756 150.238 2.93061C151.073 3.71365 151.491 4.66782 151.491 5.79203C151.491 6.94224 151.073 7.90291 150.238 8.67296C149.428 9.44409 148.429 9.82858 147.24 9.82858H144.356V9.82966Z" fill="white"/>
<path id="Fill 3" fill-rule="evenodd" clip-rule="evenodd" d="M153.255 12.4831C153.255 12.9379 153.448 13.317 153.834 13.6203C154.22 13.9235 154.672 14.0752 155.19 14.0752C155.924 14.0752 156.578 13.8032 157.153 13.2607C157.729 12.717 158.017 12.0791 158.017 11.3469C157.472 10.917 156.713 10.7025 155.74 10.7025C155.031 10.7025 154.44 10.8736 153.966 11.2148C153.492 11.5559 153.255 11.9773 153.255 12.4831M155.513 5.73566C156.803 5.73566 157.821 6.08007 158.569 6.76889C159.314 7.45771 159.687 8.40213 159.687 9.60216V15.3261H158.018V14.0373H157.942C157.221 15.0985 156.259 15.6294 155.058 15.6294C154.033 15.6294 153.176 15.3261 152.487 14.7196C151.797 14.1131 151.453 13.3549 151.453 12.4452C151.453 11.4845 151.816 10.7208 152.543 10.1523C153.271 9.58375 154.241 9.2989 155.456 9.2989C156.492 9.2989 157.346 9.48844 158.017 9.86751V9.46894C158.017 8.86243 157.776 8.34798 157.296 7.92451C156.814 7.50103 156.252 7.28984 155.607 7.28984C154.633 7.28984 153.862 7.70032 153.293 8.52235L151.755 7.55519C152.603 6.34217 153.855 5.73566 155.513 5.73566" fill="white"/>
<path id="Fill 5" fill-rule="evenodd" clip-rule="evenodd" d="M169.269 6.03894L163.443 19.4201H161.641L163.804 14.738L159.971 6.03894H161.869L164.639 12.7106H164.677L167.371 6.03894H169.269Z" fill="white"/>
</g>
<g id="G">
<path id="Fill 8" fill-rule="evenodd" clip-rule="evenodd" d="M137.303 8.64473C137.303 8.09563 137.256 7.56601 137.168 7.05914H129.806V10.0625H134.023C133.842 11.0414 133.294 11.8744 132.464 12.4322V14.3828H134.98C136.454 13.0246 137.303 11.0177 137.303 8.64473" fill="#4285F4"/>
<path id="Fill 10" fill-rule="evenodd" clip-rule="evenodd" d="M129.806 16.2651C131.913 16.2651 133.687 15.5741 134.98 14.3828L132.464 12.4322C131.763 12.9033 130.861 13.1784 129.806 13.1784C127.77 13.1784 126.042 11.8073 125.424 9.95959H122.832V11.9687C124.116 14.516 126.757 16.2651 129.806 16.2651" fill="#34A853"/>
<path id="Fill 12" fill-rule="evenodd" clip-rule="evenodd" d="M125.424 9.9596C125.266 9.48847 125.179 8.98593 125.179 8.46715C125.179 7.94837 125.266 7.44583 125.424 6.9747V4.96564H122.832C122.3 6.01837 122 7.20756 122 8.46715C122 9.72674 122.3 10.916 122.832 11.9687L125.424 9.9596Z" fill="#FABB05"/>
<path id="Fill 14" fill-rule="evenodd" clip-rule="evenodd" d="M129.806 3.75583C130.957 3.75583 131.988 4.15115 132.801 4.92553V4.92661L135.029 2.70094C133.676 1.44243 131.912 0.669128 129.806 0.669128C126.757 0.669128 124.116 2.41826 122.832 4.9656L125.424 6.97467C126.042 5.12698 127.77 3.75583 129.806 3.75583" fill="#E94235"/>
</g>
</g>
</g>
</g>
</svg>
