<svg width="125" height="21" viewBox="0 0 125 21" fill="none" xmlns="http://www.w3.org/2000/svg">
<g id="sk_buy_with_Pay_NBG">
<path id="Left Text" d="M2.08038 15.0006V3.54461H3.84038V9.17661L8.60838 3.54461H10.7844V3.64061L6.59238 8.47261L11.1524 14.9046V15.0006H9.00838L5.40838 9.84861L3.84038 11.6726V15.0006H2.08038ZM15.1211 15.2566C14.1185 15.2566 13.3611 14.9579 12.8491 14.3606C12.3478 13.7526 12.0971 12.9313 12.0971 11.8966V6.84061H13.8251V11.6566C13.8251 12.3393 13.9851 12.8459 14.3051 13.1766C14.6358 13.5073 15.0465 13.6726 15.5371 13.6726C15.9851 13.6726 16.3691 13.5606 16.6891 13.3366C17.0091 13.1019 17.2545 12.7979 17.4251 12.4246C17.6065 12.0513 17.6971 11.6513 17.6971 11.2246V6.84061H19.4091V15.0006H17.7931V13.8966H17.6971C17.5478 14.1526 17.3398 14.3819 17.0731 14.5846C16.8065 14.7873 16.5078 14.9473 16.1771 15.0646C15.8465 15.1926 15.4945 15.2566 15.1211 15.2566ZM15.0411 5.27261L15.7931 3.22461H17.7451L16.4651 5.27261H15.0411ZM21.5764 18.4566V6.84061H23.1924V7.94461H23.2884C23.4377 7.70994 23.635 7.49128 23.8804 7.28861C24.1364 7.07528 24.435 6.90461 24.7764 6.77661C25.1177 6.64861 25.4964 6.58461 25.9124 6.58461C26.659 6.58461 27.3257 6.77128 27.9124 7.14461C28.499 7.51794 28.963 8.02994 29.3044 8.68061C29.6564 9.33128 29.8324 10.0779 29.8324 10.9206C29.8324 11.7633 29.6564 12.5099 29.3044 13.1606C28.963 13.8113 28.499 14.3233 27.9124 14.6966C27.3257 15.0699 26.659 15.2566 25.9124 15.2566C25.2937 15.2566 24.755 15.1179 24.2964 14.8406C23.8377 14.5633 23.5017 14.2539 23.2884 13.9126H23.1924L23.2884 15.0486V18.4566H21.5764ZM25.6564 13.6726C26.083 13.6726 26.483 13.5606 26.8564 13.3366C27.2404 13.1126 27.5444 12.7926 27.7684 12.3766C28.003 11.9606 28.1204 11.4753 28.1204 10.9206C28.1204 10.3553 28.003 9.86994 27.7684 9.46461C27.5444 9.04861 27.2404 8.72861 26.8564 8.50461C26.483 8.28061 26.083 8.16861 25.6564 8.16861C25.2297 8.16861 24.8297 8.28061 24.4564 8.50461C24.083 8.72861 23.779 9.04861 23.5444 9.46461C23.3097 9.86994 23.1924 10.3553 23.1924 10.9206C23.1924 11.4859 23.3097 11.9766 23.5444 12.3926C23.779 12.7979 24.083 13.1126 24.4564 13.3366C24.8297 13.5606 25.2297 13.6726 25.6564 13.6726ZM31.6204 15.0006V6.84061H33.3484V15.0006H31.6204ZM32.4844 5.64061C32.1644 5.64061 31.887 5.52861 31.6524 5.30461C31.4284 5.06994 31.3164 4.79261 31.3164 4.47261C31.3164 4.14194 31.4284 3.86994 31.6524 3.65661C31.887 3.43261 32.1644 3.32061 32.4844 3.32061C32.815 3.32061 33.0924 3.43261 33.3164 3.65661C33.5404 3.86994 33.6524 4.14194 33.6524 4.47261C33.6524 4.79261 33.5404 5.06994 33.3164 5.30461C33.0924 5.52861 32.815 5.64061 32.4844 5.64061ZM35.0043 6.84061H36.4283V4.53661H38.1563V6.84061H40.1563V8.34461H38.1563V12.2646C38.1563 12.6699 38.2363 12.9793 38.3963 13.1926C38.5669 13.4059 38.8496 13.5126 39.2443 13.5126C39.4363 13.5126 39.6069 13.4859 39.7563 13.4326C39.9056 13.3686 40.0549 13.2939 40.2043 13.2086V14.8886C40.0229 14.9633 39.8309 15.0219 39.6283 15.0646C39.4256 15.1073 39.1856 15.1286 38.9083 15.1286C38.1509 15.1286 37.5483 14.9099 37.1003 14.4726C36.6523 14.0246 36.4283 13.4113 36.4283 12.6326V8.34461H35.0043V6.84061ZM39.0523 5.89661V3.54461H40.6683L40.2683 5.89661H39.0523ZM49.5153 15.2566C48.6939 15.2566 47.9633 15.0699 47.3233 14.6966C46.6939 14.3233 46.1979 13.8113 45.8353 13.1606C45.4833 12.4993 45.3073 11.7526 45.3073 10.9206C45.3073 10.0886 45.4833 9.34728 45.8353 8.69661C46.1979 8.04594 46.6939 7.53394 47.3233 7.16061C47.9633 6.77661 48.6939 6.58461 49.5153 6.58461C50.4219 6.58461 51.1846 6.78728 51.8033 7.19261C52.4326 7.59794 52.8806 8.14728 53.1473 8.84061L51.5793 9.48061C51.3873 9.04328 51.1099 8.71794 50.7473 8.50461C50.3953 8.28061 49.9739 8.16861 49.4833 8.16861C49.0353 8.16861 48.6246 8.28594 48.2513 8.52061C47.8779 8.74461 47.5793 9.05928 47.3553 9.46461C47.1313 9.86994 47.0193 10.3553 47.0193 10.9206C47.0193 11.4753 47.1313 11.9606 47.3553 12.3766C47.5793 12.7926 47.8779 13.1126 48.2513 13.3366C48.6246 13.5606 49.0353 13.6726 49.4833 13.6726C50.0059 13.6726 50.4486 13.5553 50.8113 13.3206C51.1739 13.0859 51.4566 12.7553 51.6593 12.3286L53.1953 13.0006C52.8966 13.6513 52.4326 14.1899 51.8033 14.6166C51.1846 15.0433 50.4219 15.2566 49.5153 15.2566ZM58.4766 15.2566C57.6766 15.2566 56.962 15.0699 56.3326 14.6966C55.7033 14.3233 55.2073 13.8113 54.8446 13.1606C54.4926 12.5099 54.3166 11.7686 54.3166 10.9366C54.3166 10.1579 54.4873 9.43794 54.8286 8.77661C55.17 8.11528 55.6446 7.58728 56.2526 7.19261C56.8713 6.78728 57.5806 6.58461 58.3806 6.58461C59.2233 6.58461 59.938 6.76594 60.5246 7.12861C61.122 7.49128 61.5753 7.98728 61.8846 8.61661C62.194 9.24594 62.3486 9.95528 62.3486 10.7446C62.3486 10.8619 62.3433 10.9686 62.3326 11.0646C62.3326 11.1606 62.3273 11.2353 62.3166 11.2886H56.0126C56.0553 11.7366 56.1673 12.1259 56.3486 12.4566C56.5833 12.8726 56.8926 13.1873 57.2766 13.4006C57.6606 13.6139 58.0766 13.7206 58.5246 13.7206C59.0686 13.7206 59.522 13.5979 59.8846 13.3526C60.258 13.0966 60.5513 12.7819 60.7646 12.4086L62.1886 13.0966C61.8366 13.7366 61.3566 14.2593 60.7486 14.6646C60.1406 15.0593 59.3833 15.2566 58.4766 15.2566ZM56.1086 9.99261H60.6366C60.626 9.78994 60.5726 9.57661 60.4766 9.35261C60.3806 9.11794 60.242 8.90461 60.0606 8.71261C59.8793 8.52061 59.65 8.36594 59.3726 8.24861C59.0953 8.12061 58.77 8.05661 58.3966 8.05661C57.9273 8.05661 57.5113 8.17928 57.1486 8.42461C56.786 8.65928 56.5033 8.98994 56.3006 9.41661C56.2153 9.59794 56.1513 9.78994 56.1086 9.99261ZM63.6076 15.0006V13.5606L68.1516 8.34461H63.7516V6.84061H70.2636V8.28061L65.7356 13.4966H70.3916V15.0006H63.6076Z" fill="white"/>
<g id="GPay (Dark)">
<g id="GPay">
<g id="Pay">
<path id="Fill 1" fill-rule="evenodd" clip-rule="evenodd" d="M99.3563 3.42339V8.16175H102.278C102.974 8.16175 103.55 7.92781 104.005 7.45993C104.473 6.99313 104.707 6.43644 104.707 5.79203C104.707 5.16061 104.473 4.61041 104.005 4.14254C103.55 3.66274 102.974 3.4223 102.278 3.4223H99.3563V3.42339ZM99.3563 9.82966V15.3262H97.6107V1.75549H102.24C103.417 1.75549 104.415 2.14756 105.238 2.93061C106.073 3.71365 106.491 4.66782 106.491 5.79203C106.491 6.94224 106.073 7.90291 105.238 8.67296C104.428 9.44409 103.429 9.82858 102.24 9.82858H99.3563V9.82966Z" fill="white"/>
<path id="Fill 3" fill-rule="evenodd" clip-rule="evenodd" d="M108.255 12.4831C108.255 12.9379 108.448 13.317 108.834 13.6203C109.22 13.9235 109.672 14.0752 110.19 14.0752C110.924 14.0752 111.578 13.8032 112.153 13.2607C112.729 12.717 113.017 12.0791 113.017 11.3469C112.472 10.917 111.713 10.7025 110.74 10.7025C110.031 10.7025 109.44 10.8736 108.966 11.2148C108.492 11.5559 108.255 11.9773 108.255 12.4831M110.513 5.73566C111.803 5.73566 112.821 6.08007 113.569 6.76889C114.314 7.45771 114.687 8.40213 114.687 9.60216V15.3261H113.018V14.0373H112.942C112.221 15.0985 111.259 15.6294 110.058 15.6294C109.033 15.6294 108.176 15.3261 107.487 14.7196C106.797 14.1131 106.453 13.3549 106.453 12.4452C106.453 11.4845 106.816 10.7208 107.543 10.1523C108.271 9.58375 109.241 9.2989 110.456 9.2989C111.492 9.2989 112.346 9.48844 113.017 9.86751V9.46894C113.017 8.86243 112.776 8.34798 112.296 7.92451C111.814 7.50103 111.252 7.28984 110.607 7.28984C109.633 7.28984 108.862 7.70032 108.293 8.52235L106.755 7.55519C107.603 6.34217 108.855 5.73566 110.513 5.73566" fill="white"/>
<path id="Fill 5" fill-rule="evenodd" clip-rule="evenodd" d="M124.269 6.03894L118.443 19.4201H116.641L118.804 14.738L114.971 6.03894H116.869L119.639 12.7106H119.677L122.371 6.03894H124.269Z" fill="white"/>
</g>
<g id="G">
<path id="Fill 8" fill-rule="evenodd" clip-rule="evenodd" d="M92.3029 8.64473C92.3029 8.09563 92.2562 7.56601 92.1684 7.05914H84.8065V10.0625H89.0231C88.842 11.0414 88.2944 11.8744 87.4639 12.4322V14.3828H89.9804C91.4539 13.0246 92.3029 11.0177 92.3029 8.64473" fill="#4285F4"/>
<path id="Fill 10" fill-rule="evenodd" clip-rule="evenodd" d="M84.8065 16.2651C86.9131 16.2651 88.6869 15.5741 89.9804 14.3828L87.4639 12.4322C86.7635 12.9033 85.8614 13.1784 84.8065 13.1784C82.7703 13.1784 81.042 11.8073 80.424 9.95959H77.8316V11.9687C79.1164 14.516 81.7565 16.2651 84.8065 16.2651" fill="#34A853"/>
<path id="Fill 12" fill-rule="evenodd" clip-rule="evenodd" d="M80.424 9.9596C80.2657 9.48847 80.179 8.98593 80.179 8.46715C80.179 7.94837 80.2657 7.44583 80.424 6.9747V4.96564H77.8316C77.3003 6.01837 77 7.20756 77 8.46715C77 9.72674 77.3003 10.916 77.8316 11.9687L80.424 9.9596Z" fill="#FABB05"/>
<path id="Fill 14" fill-rule="evenodd" clip-rule="evenodd" d="M84.8065 3.75583C85.9568 3.75583 86.9879 4.15115 87.8011 4.92553V4.92661L90.0292 2.70094C88.6761 1.44243 86.912 0.669128 84.8065 0.669128C81.7565 0.669128 79.1164 2.41826 77.8316 4.9656L80.424 6.97467C81.042 5.12698 82.7703 3.75583 84.8065 3.75583" fill="#E94235"/>
</g>
</g>
</g>
</g>
</svg>
