<svg width="145" height="21" viewBox="0 0 145 21" fill="none" xmlns="http://www.w3.org/2000/svg">
<g id="sk_donate_with_Pay_NBG">
<path id="Left Text" d="M2.15538 15.0006V3.54461H5.81938C7.02471 3.54461 8.05938 3.78994 8.92338 4.28061C9.79804 4.76061 10.47 5.43261 10.9394 6.29661C11.4194 7.16061 11.6594 8.15261 11.6594 9.27261C11.6594 10.3926 11.4194 11.3846 10.9394 12.2486C10.47 13.1126 9.79804 13.7899 8.92338 14.2806C8.05938 14.7606 7.02471 15.0006 5.81938 15.0006H2.15538ZM3.91538 13.3366H5.77138C6.63538 13.3366 7.37671 13.1766 7.99538 12.8566C8.61404 12.5259 9.08338 12.0566 9.40338 11.4486C9.72338 10.8406 9.88338 10.1153 9.88338 9.27261C9.88338 8.42994 9.72338 7.70461 9.40338 7.09661C9.08338 6.48861 8.61404 6.02461 7.99538 5.70461C7.37671 5.37394 6.63538 5.20861 5.77138 5.20861H3.91538V13.3366ZM16.093 15.2566C15.5063 15.2566 14.9837 15.1393 14.525 14.9046C14.077 14.6699 13.7197 14.3499 13.453 13.9446C13.197 13.5286 13.069 13.0539 13.069 12.5206C13.069 11.9339 13.2183 11.4379 13.517 11.0326C13.8263 10.6273 14.237 10.3179 14.749 10.1046C15.261 9.89128 15.8263 9.78461 16.445 9.78461C16.7863 9.78461 17.101 9.81128 17.389 9.86461C17.6877 9.90728 17.9437 9.96061 18.157 10.0246C18.381 10.0886 18.557 10.1579 18.685 10.2326V9.80061C18.685 9.26728 18.493 8.84061 18.109 8.52061C17.725 8.20061 17.229 8.04061 16.621 8.04061C16.205 8.04061 15.8103 8.13661 15.437 8.32861C15.0637 8.50994 14.765 8.76061 14.541 9.08061L13.357 8.16861C13.5917 7.83794 13.8743 7.55528 14.205 7.32061C14.5463 7.08594 14.925 6.90461 15.341 6.77661C15.7677 6.64861 16.2103 6.58461 16.669 6.58461C17.853 6.58461 18.765 6.87794 19.405 7.46461C20.045 8.04061 20.365 8.85128 20.365 9.89661V15.0006H18.685V13.9926H18.589C18.4503 14.2059 18.2583 14.4086 18.013 14.6006C17.7783 14.7926 17.4957 14.9473 17.165 15.0646C16.845 15.1926 16.4877 15.2566 16.093 15.2566ZM16.397 13.8486C16.845 13.8486 17.2397 13.7419 17.581 13.5286C17.933 13.3153 18.205 13.0379 18.397 12.6966C18.589 12.3446 18.685 11.9659 18.685 11.5606C18.4503 11.4219 18.1623 11.3099 17.821 11.2246C17.4903 11.1286 17.1383 11.0806 16.765 11.0806C16.061 11.0806 15.5597 11.2193 15.261 11.4966C14.9623 11.7739 14.813 12.1206 14.813 12.5366C14.813 12.9206 14.957 13.2353 15.245 13.4806C15.533 13.7259 15.917 13.8486 16.397 13.8486ZM22.4174 15.0006V6.84061H24.0494V8.04061H24.1454C24.2734 7.76328 24.4547 7.51794 24.6894 7.30461C24.9347 7.09128 25.212 6.92061 25.5214 6.79261C25.8414 6.66461 26.172 6.60061 26.5134 6.60061C26.7374 6.60061 26.924 6.61661 27.0734 6.64861C27.2334 6.66994 27.3774 6.70728 27.5054 6.76061V8.55261C27.3027 8.46728 27.0947 8.39794 26.8814 8.34461C26.6787 8.29128 26.4654 8.26461 26.2414 8.26461C25.836 8.26461 25.4734 8.37661 25.1534 8.60061C24.844 8.81394 24.5987 9.10194 24.4174 9.46461C24.236 9.82728 24.1454 10.2326 24.1454 10.6806V15.0006H22.4174ZM32.3449 15.2566C31.5022 15.2566 30.7609 15.0646 30.1209 14.6806C29.4809 14.2966 28.9795 13.7793 28.6169 13.1286C28.2542 12.4673 28.0729 11.7313 28.0729 10.9206C28.0729 10.1099 28.2542 9.37928 28.6169 8.72861C28.9795 8.06728 29.4809 7.54461 30.1209 7.16061C30.7609 6.77661 31.5022 6.58461 32.3449 6.58461C33.1769 6.58461 33.9129 6.78194 34.5529 7.17661C35.1929 7.56061 35.6942 8.07794 36.0569 8.72861C36.4195 9.37928 36.6009 10.1099 36.6009 10.9206C36.6009 11.7313 36.4195 12.4673 36.0569 13.1286C35.6942 13.7793 35.1929 14.2966 34.5529 14.6806C33.9129 15.0646 33.1769 15.2566 32.3449 15.2566ZM32.3449 13.6726C32.7929 13.6726 33.2089 13.5659 33.5929 13.3526C33.9769 13.1286 34.2862 12.8139 34.5209 12.4086C34.7662 11.9926 34.8889 11.4966 34.8889 10.9206C34.8889 10.3446 34.7662 9.85394 34.5209 9.44861C34.2862 9.03261 33.9769 8.71794 33.5929 8.50461C33.2089 8.28061 32.7929 8.16861 32.3449 8.16861C31.8969 8.16861 31.4755 8.28061 31.0809 8.50461C30.6969 8.71794 30.3822 9.03261 30.1369 9.44861C29.9022 9.85394 29.7849 10.3446 29.7849 10.9206C29.7849 11.4966 29.9022 11.9926 30.1369 12.4086C30.3822 12.8139 30.7022 13.1286 31.0969 13.3526C31.4915 13.5659 31.9075 13.6726 32.3449 13.6726ZM40.588 15.0006L37.212 6.84061H39.132L41.42 12.7766H41.5L43.836 6.84061H45.724L42.316 15.0006H40.588ZM49.3961 15.2566C48.8095 15.2566 48.2868 15.1393 47.8281 14.9046C47.3801 14.6699 47.0228 14.3499 46.7561 13.9446C46.5001 13.5286 46.3721 13.0539 46.3721 12.5206C46.3721 11.9339 46.5215 11.4379 46.8201 11.0326C47.1295 10.6273 47.5401 10.3179 48.0521 10.1046C48.5641 9.89128 49.1295 9.78461 49.7481 9.78461C50.0895 9.78461 50.4041 9.81128 50.6921 9.86461C50.9908 9.90728 51.2468 9.96061 51.4601 10.0246C51.6841 10.0886 51.8601 10.1579 51.9881 10.2326V9.80061C51.9881 9.26728 51.7961 8.84061 51.4121 8.52061C51.0281 8.20061 50.5321 8.04061 49.9241 8.04061C49.5081 8.04061 49.1135 8.13661 48.7401 8.32861C48.3668 8.50994 48.0681 8.76061 47.8441 9.08061L46.6601 8.16861C46.8948 7.83794 47.1775 7.55528 47.5081 7.32061C47.8495 7.08594 48.2281 6.90461 48.6441 6.77661C49.0708 6.64861 49.5135 6.58461 49.9721 6.58461C51.1561 6.58461 52.0681 6.87794 52.7081 7.46461C53.3481 8.04061 53.6681 8.85128 53.6681 9.89661V15.0006H51.9881V13.9926H51.8921C51.7535 14.2059 51.5615 14.4086 51.3161 14.6006C51.0815 14.7926 50.7988 14.9473 50.4681 15.0646C50.1481 15.1926 49.7908 15.2566 49.3961 15.2566ZM49.7001 13.8486C50.1481 13.8486 50.5428 13.7419 50.8841 13.5286C51.2361 13.3153 51.5081 13.0379 51.7001 12.6966C51.8921 12.3446 51.9881 11.9659 51.9881 11.5606C51.7535 11.4219 51.4655 11.3099 51.1241 11.2246C50.7935 11.1286 50.4415 11.0806 50.0681 11.0806C49.3641 11.0806 48.8628 11.2193 48.5641 11.4966C48.2655 11.7739 48.1161 12.1206 48.1161 12.5366C48.1161 12.9206 48.2601 13.2353 48.5481 13.4806C48.8361 13.7259 49.2201 13.8486 49.7001 13.8486ZM55.0043 6.84061H56.4283V4.53661H58.1563V6.84061H60.1563V8.34461H58.1563V12.2646C58.1563 12.6699 58.2363 12.9793 58.3963 13.1926C58.5669 13.4059 58.8496 13.5126 59.2443 13.5126C59.4363 13.5126 59.6069 13.4859 59.7563 13.4326C59.9056 13.3686 60.0549 13.2939 60.2043 13.2086V14.8886C60.0229 14.9633 59.8309 15.0219 59.6283 15.0646C59.4256 15.1073 59.1856 15.1286 58.9083 15.1286C58.1509 15.1286 57.5483 14.9099 57.1003 14.4726C56.6523 14.0246 56.4283 13.4113 56.4283 12.6326V8.34461H55.0043V6.84061ZM59.0523 5.89661V3.54461H60.6683L60.2683 5.89661H59.0523ZM69.5152 15.2566C68.6939 15.2566 67.9632 15.0699 67.3232 14.6966C66.6939 14.3233 66.1979 13.8113 65.8352 13.1606C65.4832 12.4993 65.3072 11.7526 65.3072 10.9206C65.3072 10.0886 65.4832 9.34728 65.8352 8.69661C66.1979 8.04594 66.6939 7.53394 67.3232 7.16061C67.9632 6.77661 68.6939 6.58461 69.5152 6.58461C70.4219 6.58461 71.1846 6.78728 71.8032 7.19261C72.4326 7.59794 72.8806 8.14728 73.1472 8.84061L71.5792 9.48061C71.3872 9.04328 71.1099 8.71794 70.7472 8.50461C70.3952 8.28061 69.9739 8.16861 69.4832 8.16861C69.0352 8.16861 68.6246 8.28594 68.2512 8.52061C67.8779 8.74461 67.5792 9.05928 67.3552 9.46461C67.1312 9.86994 67.0192 10.3553 67.0192 10.9206C67.0192 11.4753 67.1312 11.9606 67.3552 12.3766C67.5792 12.7926 67.8779 13.1126 68.2512 13.3366C68.6246 13.5606 69.0352 13.6726 69.4832 13.6726C70.0059 13.6726 70.4486 13.5553 70.8112 13.3206C71.1739 13.0859 71.4566 12.7553 71.6592 12.3286L73.1952 13.0006C72.8966 13.6513 72.4326 14.1899 71.8032 14.6166C71.1846 15.0433 70.4219 15.2566 69.5152 15.2566ZM78.4766 15.2566C77.6766 15.2566 76.962 15.0699 76.3326 14.6966C75.7033 14.3233 75.2073 13.8113 74.8446 13.1606C74.4926 12.5099 74.3166 11.7686 74.3166 10.9366C74.3166 10.1579 74.4873 9.43794 74.8286 8.77661C75.17 8.11528 75.6446 7.58728 76.2526 7.19261C76.8713 6.78728 77.5806 6.58461 78.3806 6.58461C79.2233 6.58461 79.938 6.76594 80.5246 7.12861C81.122 7.49128 81.5753 7.98728 81.8846 8.61661C82.194 9.24594 82.3486 9.95528 82.3486 10.7446C82.3486 10.8619 82.3433 10.9686 82.3326 11.0646C82.3326 11.1606 82.3273 11.2353 82.3166 11.2886H76.0126C76.0553 11.7366 76.1673 12.1259 76.3486 12.4566C76.5833 12.8726 76.8926 13.1873 77.2766 13.4006C77.6606 13.6139 78.0766 13.7206 78.5246 13.7206C79.0686 13.7206 79.522 13.5979 79.8846 13.3526C80.258 13.0966 80.5513 12.7819 80.7646 12.4086L82.1886 13.0966C81.8366 13.7366 81.3566 14.2593 80.7486 14.6646C80.1406 15.0593 79.3833 15.2566 78.4766 15.2566ZM76.1086 9.99261H80.6366C80.626 9.78994 80.5726 9.57661 80.4766 9.35261C80.3806 9.11794 80.242 8.90461 80.0606 8.71261C79.8793 8.52061 79.65 8.36594 79.3726 8.24861C79.0953 8.12061 78.77 8.05661 78.3966 8.05661C77.9273 8.05661 77.5113 8.17928 77.1486 8.42461C76.786 8.65928 76.5033 8.98994 76.3006 9.41661C76.2153 9.59794 76.1513 9.78994 76.1086 9.99261ZM83.6076 15.0006V13.5606L88.1516 8.34461H83.7516V6.84061H90.2636V8.28061L85.7356 13.4966H90.3916V15.0006H83.6076Z" fill="white"/>
<g id="GPay (Dark)">
<g id="GPay">
<g id="Pay">
<path id="Fill 1" fill-rule="evenodd" clip-rule="evenodd" d="M119.356 3.42339V8.16175H122.278C122.974 8.16175 123.55 7.92781 124.005 7.45993C124.473 6.99313 124.707 6.43644 124.707 5.79203C124.707 5.16061 124.473 4.61041 124.005 4.14254C123.55 3.66274 122.974 3.4223 122.278 3.4223H119.356V3.42339ZM119.356 9.82966V15.3262H117.611V1.75549H122.24C123.417 1.75549 124.415 2.14756 125.238 2.93061C126.073 3.71365 126.491 4.66782 126.491 5.79203C126.491 6.94224 126.073 7.90291 125.238 8.67296C124.428 9.44409 123.429 9.82858 122.24 9.82858H119.356V9.82966Z" fill="white"/>
<path id="Fill 3" fill-rule="evenodd" clip-rule="evenodd" d="M128.255 12.4831C128.255 12.9379 128.448 13.317 128.834 13.6203C129.22 13.9235 129.672 14.0752 130.19 14.0752C130.924 14.0752 131.578 13.8032 132.153 13.2607C132.729 12.717 133.017 12.0791 133.017 11.3469C132.472 10.917 131.713 10.7025 130.74 10.7025C130.031 10.7025 129.44 10.8736 128.966 11.2148C128.492 11.5559 128.255 11.9773 128.255 12.4831M130.513 5.73566C131.803 5.73566 132.821 6.08007 133.569 6.76889C134.314 7.45771 134.687 8.40213 134.687 9.60216V15.3261H133.018V14.0373H132.942C132.221 15.0985 131.259 15.6294 130.058 15.6294C129.033 15.6294 128.176 15.3261 127.487 14.7196C126.797 14.1131 126.453 13.3549 126.453 12.4452C126.453 11.4845 126.816 10.7208 127.543 10.1523C128.271 9.58375 129.241 9.2989 130.456 9.2989C131.492 9.2989 132.346 9.48844 133.017 9.86751V9.46894C133.017 8.86243 132.776 8.34798 132.296 7.92451C131.814 7.50103 131.252 7.28984 130.607 7.28984C129.633 7.28984 128.862 7.70032 128.293 8.52235L126.755 7.55519C127.603 6.34217 128.855 5.73566 130.513 5.73566" fill="white"/>
<path id="Fill 5" fill-rule="evenodd" clip-rule="evenodd" d="M144.269 6.03894L138.443 19.4201H136.641L138.804 14.738L134.971 6.03894H136.869L139.639 12.7106H139.677L142.371 6.03894H144.269Z" fill="white"/>
</g>
<g id="G">
<path id="Fill 8" fill-rule="evenodd" clip-rule="evenodd" d="M112.303 8.64473C112.303 8.09563 112.256 7.56601 112.168 7.05914H104.806V10.0625H109.023C108.842 11.0414 108.294 11.8744 107.464 12.4322V14.3828H109.98C111.454 13.0246 112.303 11.0177 112.303 8.64473" fill="#4285F4"/>
<path id="Fill 10" fill-rule="evenodd" clip-rule="evenodd" d="M104.806 16.2651C106.913 16.2651 108.687 15.5741 109.98 14.3828L107.464 12.4322C106.763 12.9033 105.861 13.1784 104.806 13.1784C102.77 13.1784 101.042 11.8073 100.424 9.95959H97.8316V11.9687C99.1164 14.516 101.757 16.2651 104.806 16.2651" fill="#34A853"/>
<path id="Fill 12" fill-rule="evenodd" clip-rule="evenodd" d="M100.424 9.9596C100.266 9.48847 100.179 8.98593 100.179 8.46715C100.179 7.94837 100.266 7.44583 100.424 6.9747V4.96564H97.8316C97.3003 6.01837 97 7.20756 97 8.46715C97 9.72674 97.3003 10.916 97.8316 11.9687L100.424 9.9596Z" fill="#FABB05"/>
<path id="Fill 14" fill-rule="evenodd" clip-rule="evenodd" d="M104.806 3.75583C105.957 3.75583 106.988 4.15115 107.801 4.92553V4.92661L110.029 2.70094C108.676 1.44243 106.912 0.669128 104.806 0.669128C101.757 0.669128 99.1164 2.41826 97.8316 4.9656L100.424 6.97467C101.042 5.12698 102.77 3.75583 104.806 3.75583" fill="#E94235"/>
</g>
</g>
</g>
</g>
</svg>
