<svg width="254" height="38" viewBox="0 0 254 38" fill="none" xmlns="http://www.w3.org/2000/svg">
<g id="sk_donate_with_Light">
<path id="Text" d="M4.14691 30V9.952H10.5589C12.6682 9.952 14.4789 10.3813 15.9909 11.24C17.5216 12.08 18.6976 13.256 19.5189 14.768C20.3589 16.28 20.7789 18.016 20.7789 19.976C20.7789 21.9547 20.3589 23.7 19.5189 25.212C18.6976 26.7053 17.5216 27.8813 15.9909 28.74C14.4789 29.58 12.6682 30 10.5589 30H4.14691ZM7.22691 27.088H10.4749C12.7522 27.088 14.5162 26.4533 15.7669 25.184C17.0362 23.9147 17.6709 22.1787 17.6709 19.976C17.6709 17.7733 17.0362 16.0373 15.7669 14.768C14.5162 13.4987 12.7522 12.864 10.4749 12.864H7.22691V27.088ZM28.5752 30.448C27.5486 30.448 26.6339 30.252 25.8312 29.86C25.0286 29.4493 24.4032 28.88 23.9552 28.152C23.5072 27.424 23.2832 26.5933 23.2832 25.66C23.2832 24.652 23.5446 23.7933 24.0672 23.084C24.6086 22.356 25.3272 21.8053 26.2232 21.432C27.1192 21.0587 28.1086 20.872 29.1912 20.872C30.0872 20.872 30.8712 20.956 31.5432 21.124C32.2339 21.292 32.7566 21.4693 33.1112 21.656V20.9C33.1112 19.9667 32.7752 19.22 32.1032 18.66C31.4312 18.1 30.5632 17.82 29.4992 17.82C28.7712 17.82 28.0806 17.988 27.4272 18.324C26.7739 18.6413 26.2512 19.08 25.8592 19.64L23.7872 18.044C24.4032 17.1853 25.2152 16.5133 26.2232 16.028C27.2499 15.524 28.3699 15.272 29.5832 15.272C31.6552 15.272 33.2512 15.7853 34.3712 16.812C35.4912 17.82 36.0512 19.2387 36.0512 21.068V30H33.1112V28.236H32.9432C32.5699 28.8147 32.0099 29.328 31.2632 29.776C30.5166 30.224 29.6206 30.448 28.5752 30.448ZM29.1072 27.984C29.8912 27.984 30.5819 27.7973 31.1792 27.424C31.7766 27.0507 32.2432 26.5653 32.5792 25.968C32.9339 25.352 33.1112 24.6893 33.1112 23.98C32.6819 23.7373 32.1779 23.5413 31.5993 23.392C31.0206 23.224 30.4046 23.14 29.7512 23.14C28.5192 23.14 27.6419 23.392 27.1192 23.896C26.5966 24.3813 26.3352 24.9787 26.3352 25.688C26.3352 26.36 26.5872 26.9107 27.0912 27.34C27.5952 27.7693 28.2672 27.984 29.1072 27.984ZM39.6804 30V15.72H42.5364V17.82H42.7044C43.0217 17.092 43.5631 16.4947 44.3284 16.028C45.1124 15.5427 45.9524 15.3 46.8484 15.3C47.2404 15.3 47.5671 15.328 47.8284 15.384C48.1084 15.44 48.3604 15.5053 48.5844 15.58V18.716C48.2297 18.5667 47.8657 18.4453 47.4924 18.352C47.1377 18.2587 46.7644 18.212 46.3724 18.212C45.6631 18.212 45.0284 18.408 44.4684 18.8C43.9271 19.1733 43.4977 19.6867 43.1804 20.34C42.8631 20.9747 42.7044 21.6747 42.7044 22.44V30H39.6804ZM57.091 30.448C55.6164 30.448 54.319 30.112 53.199 29.44C52.079 28.768 51.2017 27.8627 50.567 26.724C49.9324 25.5853 49.615 24.2973 49.615 22.86C49.615 21.4413 49.9324 20.1627 50.567 19.024C51.2017 17.8667 52.079 16.952 53.199 16.28C54.319 15.608 55.6164 15.272 57.091 15.272C58.547 15.272 59.835 15.608 60.955 16.28C62.075 16.952 62.9524 17.8667 63.587 19.024C64.2217 20.1627 64.539 21.4413 64.539 22.86C64.539 24.2973 64.2217 25.5853 63.587 26.724C62.9524 27.8627 62.075 28.768 60.955 29.44C59.835 30.112 58.547 30.448 57.091 30.448ZM57.091 27.676C57.875 27.676 58.603 27.4893 59.275 27.116C59.947 26.724 60.4884 26.1733 60.899 25.464C61.3284 24.736 61.543 23.868 61.543 22.86C61.543 21.852 61.3284 20.9933 60.899 20.284C60.4884 19.556 59.947 19.0053 59.275 18.632C58.603 18.24 57.875 18.044 57.091 18.044C56.307 18.044 55.5697 18.24 54.879 18.632C54.207 19.0053 53.6564 19.556 53.227 20.284C52.8164 20.9933 52.611 21.852 52.611 22.86C52.611 23.868 52.8164 24.736 53.227 25.464C53.6564 26.1733 54.207 26.724 54.879 27.116C55.5697 27.4893 56.307 27.676 57.091 27.676ZM71.554 30L65.646 15.72H69.006L73.01 26.108H73.15L77.238 15.72H80.542L74.578 30H71.554ZM87.0057 30.448C85.9791 30.448 85.0644 30.252 84.2617 29.86C83.4591 29.4493 82.8337 28.88 82.3857 28.152C81.9377 27.424 81.7137 26.5933 81.7137 25.66C81.7137 24.652 81.9751 23.7933 82.4977 23.084C83.0391 22.356 83.7577 21.8053 84.6537 21.432C85.5497 21.0587 86.5391 20.872 87.6217 20.872C88.5177 20.872 89.3017 20.956 89.9737 21.124C90.6644 21.292 91.1871 21.4693 91.5417 21.656V20.9C91.5417 19.9667 91.2057 19.22 90.5337 18.66C89.8617 18.1 88.9937 17.82 87.9297 17.82C87.2017 17.82 86.5111 17.988 85.8577 18.324C85.2044 18.6413 84.6817 19.08 84.2897 19.64L82.2177 18.044C82.8337 17.1853 83.6457 16.5133 84.6537 16.028C85.6804 15.524 86.8004 15.272 88.0137 15.272C90.0857 15.272 91.6817 15.7853 92.8017 16.812C93.9217 17.82 94.4817 19.2387 94.4817 21.068V30H91.5417V28.236H91.3737C91.0004 28.8147 90.4404 29.328 89.6937 29.776C88.9471 30.224 88.0511 30.448 87.0057 30.448ZM87.5377 27.984C88.3217 27.984 89.0124 27.7973 89.6097 27.424C90.2071 27.0507 90.6737 26.5653 91.0097 25.968C91.3644 25.352 91.5417 24.6893 91.5417 23.98C91.1124 23.7373 90.6084 23.5413 90.0297 23.392C89.4511 23.224 88.8351 23.14 88.1817 23.14C86.9497 23.14 86.0724 23.392 85.5497 23.896C85.0271 24.3813 84.7657 24.9787 84.7657 25.688C84.7657 26.36 85.0177 26.9107 85.5217 27.34C86.0257 27.7693 86.6977 27.984 87.5377 27.984ZM99.3494 25.856V18.352H96.8574V15.72H99.3494V11.688H102.373V15.72H105.873V18.352H102.373V25.212C102.373 25.9213 102.513 26.4627 102.793 26.836C103.092 27.2093 103.587 27.396 104.277 27.396C104.632 27.396 104.931 27.3493 105.173 27.256C105.435 27.1627 105.696 27.032 105.957 26.864V29.804C105.64 29.9347 105.304 30.0373 104.949 30.112C104.595 30.1867 104.175 30.224 103.689 30.224C102.364 30.224 101.309 29.8413 100.525 29.076C99.7414 28.292 99.3494 27.2187 99.3494 25.856ZM103.941 14.068V9.952H106.769L106.069 14.068H103.941ZM122.327 30.448C120.889 30.448 119.62 30.1213 118.519 29.468C117.417 28.8147 116.549 27.9187 115.915 26.78C115.28 25.6227 114.963 24.316 114.963 22.86C114.963 21.404 115.28 20.1067 115.915 18.968C116.549 17.8107 117.417 16.9053 118.519 16.252C119.62 15.5987 120.889 15.272 122.327 15.272C123.913 15.272 125.248 15.6267 126.331 16.336C127.432 17.0453 128.216 18.0067 128.683 19.22L125.939 20.34C125.285 18.8093 124.063 18.044 122.271 18.044C121.487 18.044 120.768 18.2493 120.115 18.66C119.461 19.052 118.939 19.612 118.547 20.34C118.155 21.0493 117.959 21.8893 117.959 22.86C117.959 23.8307 118.155 24.68 118.547 25.408C118.939 26.136 119.461 26.696 120.115 27.088C120.768 27.48 121.487 27.676 122.271 27.676C123.185 27.676 123.96 27.4707 124.595 27.06C125.229 26.6307 125.724 26.052 126.079 25.324L128.767 26.5C128.263 27.6387 127.46 28.5813 126.359 29.328C125.257 30.0747 123.913 30.448 122.327 30.448ZM138.047 30.448C136.647 30.448 135.396 30.1213 134.295 29.468C133.193 28.8147 132.325 27.9187 131.691 26.78C131.075 25.6413 130.767 24.344 130.767 22.888C130.767 21.5253 131.065 20.2653 131.663 19.108C132.26 17.9507 133.091 17.0267 134.155 16.336C135.237 15.6267 136.479 15.272 137.879 15.272C139.353 15.272 140.604 15.5893 141.631 16.224C142.676 16.8587 143.469 17.7267 144.011 18.828C144.552 19.9293 144.823 21.1707 144.823 22.552C144.823 22.7573 144.813 22.944 144.795 23.112C144.795 23.28 144.785 23.4107 144.767 23.504H133.735C133.884 24.9227 134.379 25.9867 135.219 26.696C136.077 27.4053 137.048 27.76 138.131 27.76C139.101 27.76 139.904 27.5453 140.539 27.116C141.173 26.668 141.677 26.1173 142.051 25.464L144.543 26.668C143.927 27.788 143.087 28.7027 142.023 29.412C140.959 30.1027 139.633 30.448 138.047 30.448ZM137.907 17.848C136.899 17.848 136.04 18.156 135.331 18.772C134.621 19.388 134.145 20.2093 133.903 21.236H141.827C141.789 20.7507 141.631 20.2467 141.351 19.724C141.071 19.2013 140.641 18.7627 140.063 18.408C139.503 18.0347 138.784 17.848 137.907 17.848ZM147.063 30V27.48L155.015 18.352H147.315V15.72H158.711V18.24L150.787 27.368H158.935V30H147.063Z" fill="#3C4043"/>
<g id="GPay Logo (Light)">
<g id="GPay">
<g id="Pay">
<path id="Fill 1" fill-rule="evenodd" clip-rule="evenodd" d="M210.529 9.44664V17.6128H215.565C216.765 17.6128 217.757 17.2096 218.541 16.4032C219.347 15.5988 219.75 14.6394 219.75 13.5288C219.75 12.4406 219.347 11.4924 218.541 10.686C217.757 9.85915 216.765 9.44478 215.565 9.44478H210.529V9.44664ZM210.529 20.4872V29.9599H207.521V6.57217H215.499C217.527 6.57217 219.248 7.24786 220.666 8.59737C222.105 9.94688 222.824 11.5913 222.824 13.5288C222.824 15.511 222.105 17.1667 220.666 18.4938C219.27 19.8227 217.547 20.4854 215.499 20.4854H210.529V20.4872Z" fill="#5F6368"/>
<path id="Fill 3" fill-rule="evenodd" clip-rule="evenodd" d="M225.864 25.0602C225.864 25.8442 226.197 26.4975 226.862 27.0201C227.527 27.5427 228.306 27.804 229.2 27.804C230.465 27.804 231.591 27.3354 232.584 26.4004C233.576 25.4634 234.071 24.364 234.071 23.1022C233.133 22.3612 231.825 21.9916 230.147 21.9916C228.925 21.9916 227.907 22.2865 227.09 22.8745C226.273 23.4623 225.864 24.1886 225.864 25.0602ZM229.756 13.4317C231.98 13.4317 233.735 14.0252 235.022 15.2124C236.308 16.3995 236.95 18.0271 236.95 20.0952V29.9599H234.073V27.7387H233.942C232.699 29.5677 231.042 30.4825 228.972 30.4825C227.206 30.4825 225.728 29.9599 224.541 28.9146C223.353 27.8694 222.759 26.5628 222.759 24.9949C222.759 23.3393 223.385 22.0232 224.638 21.0434C225.892 20.0635 227.565 19.5726 229.658 19.5726C231.444 19.5726 232.916 19.8992 234.071 20.5525V19.8656C234.071 18.8204 233.656 17.9338 232.829 17.204C231.999 16.4741 231.031 16.1102 229.919 16.1102C228.239 16.1102 226.911 16.8176 225.93 18.2343L223.28 16.5675C224.741 14.4769 226.899 13.4317 229.756 13.4317Z" fill="#5F6368"/>
<path id="Fill 5" fill-rule="evenodd" clip-rule="evenodd" d="M253.463 13.9543L243.424 37.0154H240.318L244.046 28.9464L237.44 13.9543H240.71L245.484 25.4522H245.55L250.193 13.9543H253.463Z" fill="#5F6368"/>
</g>
<g id="G">
<path id="Fill 8" fill-rule="evenodd" clip-rule="evenodd" d="M198.373 18.4452C198.373 17.4989 198.293 16.5861 198.141 15.7126H185.454V20.8885H192.72C192.408 22.5757 191.465 24.0112 190.033 24.9725V28.3341H194.37C196.91 25.9935 198.373 22.5348 198.373 18.4452Z" fill="#4285F4"/>
<path id="Fill 10" fill-rule="evenodd" clip-rule="evenodd" d="M185.454 31.5782C189.084 31.5782 192.141 30.3873 194.37 28.3341L190.033 24.9725C188.826 25.7844 187.272 26.2585 185.454 26.2585C181.944 26.2585 178.966 23.8955 177.901 20.7112H173.433V24.1736C175.647 28.5637 180.197 31.5782 185.454 31.5782Z" fill="#34A853"/>
<path id="Fill 12" fill-rule="evenodd" clip-rule="evenodd" d="M177.901 20.7111C177.628 19.8992 177.479 19.0331 177.479 18.139C177.479 17.245 177.628 16.3789 177.901 15.567V12.1045H173.433C172.518 13.9188 172 15.9683 172 18.139C172 20.3098 172.518 22.3595 173.433 24.1736L177.901 20.7111Z" fill="#FABB05"/>
<path id="Fill 14" fill-rule="evenodd" clip-rule="evenodd" d="M185.454 10.0196C187.436 10.0196 189.213 10.7009 190.615 12.0355V12.0374L194.455 8.20162C192.123 6.03271 189.082 4.7 185.454 4.7C180.197 4.7 175.647 7.71446 173.433 12.1046L177.901 15.567C178.966 12.3827 181.944 10.0196 185.454 10.0196Z" fill="#E94235"/>
</g>
</g>
</g>
</g>
</svg>
