<svg width="156" height="21" viewBox="0 0 156 21" fill="none" xmlns="http://www.w3.org/2000/svg">
<g id="sk_order_with_Pay_NBG">
<path id="Left Text" d="M7.22475 15.2566C6.37142 15.2566 5.58208 15.1019 4.85675 14.7926C4.14208 14.4833 3.51808 14.0566 2.98475 13.5126C2.45142 12.9579 2.03542 12.3233 1.73675 11.6086C1.43808 10.8833 1.28875 10.1046 1.28875 9.27261C1.28875 8.44061 1.43808 7.66728 1.73675 6.95261C2.03542 6.22728 2.45142 5.59261 2.98475 5.04861C3.51808 4.49394 4.14208 4.06194 4.85675 3.75261C5.58208 3.44328 6.37142 3.28861 7.22475 3.28861C8.07808 3.28861 8.86208 3.44328 9.57675 3.75261C10.2914 4.06194 10.9154 4.49394 11.4487 5.04861C11.9927 5.59261 12.4087 6.22728 12.6967 6.95261C12.9954 7.66728 13.1447 8.44061 13.1447 9.27261C13.1447 10.1046 12.9954 10.8833 12.6967 11.6086C12.4087 12.3233 11.9927 12.9579 11.4487 13.5126C10.9154 14.0566 10.2914 14.4833 9.57675 14.7926C8.86208 15.1019 8.07808 15.2566 7.22475 15.2566ZM7.22475 13.5926C8.00342 13.5926 8.70208 13.4113 9.32075 13.0486C9.95008 12.6859 10.4514 12.1793 10.8247 11.5286C11.1981 10.8779 11.3847 10.1259 11.3847 9.27261C11.3847 8.40861 11.1981 7.65661 10.8247 7.01661C10.4514 6.36594 9.95008 5.85928 9.32075 5.49661C8.70208 5.13394 8.00342 4.95261 7.22475 4.95261C6.45675 4.95261 5.75808 5.13394 5.12875 5.49661C4.49942 5.85928 3.99808 6.36594 3.62475 7.01661C3.25142 7.65661 3.06475 8.40861 3.06475 9.27261C3.06475 10.1259 3.25142 10.8779 3.62475 11.5286C3.99808 12.1793 4.49942 12.6859 5.12875 13.0486C5.75808 13.4113 6.45675 13.5926 7.22475 13.5926ZM19.3912 15.2566C18.9752 15.2566 18.5966 15.1926 18.2552 15.0646C17.9139 14.9366 17.6152 14.7713 17.3592 14.5686C17.1139 14.3553 16.9166 14.1366 16.7672 13.9126H16.6712V15.0006H15.0392V3.54461H16.7672V6.80861L16.6712 7.94461H16.7672C16.9166 7.70994 17.1139 7.49128 17.3592 7.28861C17.6152 7.07528 17.9139 6.90461 18.2552 6.77661C18.5966 6.64861 18.9752 6.58461 19.3912 6.58461C20.1379 6.58461 20.8046 6.77128 21.3912 7.14461C21.9779 7.51794 22.4419 8.02994 22.7832 8.68061C23.1352 9.33128 23.3112 10.0779 23.3112 10.9206C23.3112 11.7633 23.1352 12.5099 22.7832 13.1606C22.4419 13.8113 21.9779 14.3233 21.3912 14.6966C20.8046 15.0699 20.1379 15.2566 19.3912 15.2566ZM19.1352 13.6726C19.5619 13.6726 19.9619 13.5606 20.3352 13.3366C20.7192 13.1126 21.0232 12.7926 21.2472 12.3766C21.4819 11.9606 21.5992 11.4753 21.5992 10.9206C21.5992 10.3553 21.4819 9.86994 21.2472 9.46461C21.0232 9.04861 20.7192 8.72861 20.3352 8.50461C19.9619 8.28061 19.5619 8.16861 19.1352 8.16861C18.7086 8.16861 18.3086 8.28061 17.9352 8.50461C17.5619 8.72861 17.2579 9.04861 17.0232 9.46461C16.7886 9.86994 16.6712 10.3553 16.6712 10.9206C16.6712 11.4859 16.7886 11.9766 17.0232 12.3926C17.2579 12.7979 17.5619 13.1126 17.9352 13.3366C18.3086 13.5606 18.7086 13.6726 19.1352 13.6726ZM24.4105 18.6166C24.2398 18.6166 24.0852 18.6059 23.9465 18.5846C23.7972 18.5633 23.6532 18.5366 23.5145 18.5046V16.8406C23.6105 16.8939 23.7278 16.9419 23.8665 16.9846C24.0052 17.0273 24.1385 17.0486 24.2665 17.0486C24.5652 17.0486 24.7785 16.9526 24.9065 16.7606C25.0345 16.5793 25.0985 16.3126 25.0985 15.9606V6.84061H26.8265V15.9766C26.8265 16.6059 26.7198 17.1126 26.5065 17.4966C26.3038 17.8806 26.0212 18.1633 25.6585 18.3446C25.2958 18.5259 24.8798 18.6166 24.4105 18.6166ZM25.9625 5.64061C25.6425 5.64061 25.3652 5.52861 25.1305 5.30461C24.9065 5.06994 24.7945 4.79261 24.7945 4.47261C24.7945 4.14194 24.9065 3.86994 25.1305 3.65661C25.3652 3.43261 25.6425 3.32061 25.9625 3.32061C26.2932 3.32061 26.5705 3.43261 26.7945 3.65661C27.0185 3.86994 27.1305 4.14194 27.1305 4.47261C27.1305 4.79261 27.0185 5.06994 26.7945 5.30461C26.5705 5.52861 26.2932 5.64061 25.9625 5.64061ZM32.7704 15.2566C31.9704 15.2566 31.2557 15.0699 30.6264 14.6966C29.997 14.3233 29.501 13.8113 29.1384 13.1606C28.7864 12.5099 28.6104 11.7686 28.6104 10.9366C28.6104 10.1579 28.781 9.43794 29.1224 8.77661C29.4637 8.11528 29.9384 7.58728 30.5464 7.19261C31.165 6.78728 31.8744 6.58461 32.6744 6.58461C33.517 6.58461 34.2317 6.76594 34.8184 7.12861C35.4157 7.49128 35.869 7.98728 36.1784 8.61661C36.4877 9.24594 36.6424 9.95528 36.6424 10.7446C36.6424 10.8619 36.637 10.9686 36.6264 11.0646C36.6264 11.1606 36.621 11.2353 36.6104 11.2886H30.3064C30.349 11.7366 30.461 12.1259 30.6424 12.4566C30.877 12.8726 31.1864 13.1873 31.5704 13.4006C31.9544 13.6139 32.3704 13.7206 32.8184 13.7206C33.3624 13.7206 33.8157 13.5979 34.1784 13.3526C34.5517 13.0966 34.845 12.7819 35.0584 12.4086L36.4824 13.0966C36.1304 13.7366 35.6504 14.2593 35.0424 14.6646C34.4344 15.0593 33.677 15.2566 32.7704 15.2566ZM30.4024 9.99261H34.9304C34.9197 9.78994 34.8664 9.57661 34.7704 9.35261C34.6744 9.11794 34.5357 8.90461 34.3544 8.71261C34.173 8.52061 33.9437 8.36594 33.6664 8.24861C33.389 8.12061 33.0637 8.05661 32.6904 8.05661C32.221 8.05661 31.805 8.17928 31.4424 8.42461C31.0797 8.65928 30.797 8.98994 30.5944 9.41661C30.509 9.59794 30.445 9.78994 30.4024 9.99261ZM41.9616 15.2566C41.2256 15.2566 40.559 15.0699 39.9616 14.6966C39.3643 14.3233 38.895 13.8113 38.5536 13.1606C38.2123 12.5099 38.0416 11.7633 38.0416 10.9206C38.0416 10.0779 38.2123 9.33128 38.5536 8.68061C38.895 8.02994 39.3643 7.51794 39.9616 7.14461C40.559 6.77128 41.2256 6.58461 41.9616 6.58461C42.3883 6.58461 42.7723 6.64861 43.1136 6.77661C43.455 6.90461 43.7483 7.07528 43.9936 7.28861C44.2496 7.49128 44.447 7.70994 44.5856 7.94461H44.6816L44.5856 6.80861V3.54461H46.2976V15.0006H44.6816V13.9126H44.5856C44.447 14.1366 44.2496 14.3553 43.9936 14.5686C43.7483 14.7713 43.455 14.9366 43.1136 15.0646C42.7723 15.1926 42.3883 15.2566 41.9616 15.2566ZM42.2176 13.6726C42.6443 13.6726 43.0443 13.5606 43.4176 13.3366C43.8016 13.1126 44.1056 12.7979 44.3296 12.3926C44.5643 11.9766 44.6816 11.4859 44.6816 10.9206C44.6816 10.3553 44.5643 9.86994 44.3296 9.46461C44.1056 9.04861 43.8016 8.72861 43.4176 8.50461C43.0443 8.28061 42.6443 8.16861 42.2176 8.16861C41.791 8.16861 41.391 8.28061 41.0176 8.50461C40.6443 8.72861 40.3403 9.04861 40.1056 9.46461C39.871 9.86994 39.7536 10.3553 39.7536 10.9206C39.7536 11.4753 39.871 11.9606 40.1056 12.3766C40.3403 12.7926 40.6443 13.1126 41.0176 13.3366C41.391 13.5606 41.791 13.6726 42.2176 13.6726ZM48.483 15.0006V6.84061H50.115V7.96061H50.211C50.4457 7.56594 50.7923 7.24061 51.251 6.98461C51.7203 6.71794 52.2323 6.58461 52.787 6.58461C53.7897 6.58461 54.5417 6.88328 55.043 7.48061C55.5443 8.06728 55.795 8.85661 55.795 9.84861V15.0006H54.083V10.0726C54.083 9.41128 53.9177 8.93128 53.587 8.63261C53.2563 8.32328 52.8243 8.16861 52.291 8.16861C51.875 8.16861 51.5123 8.28594 51.203 8.52061C50.8937 8.74461 50.6483 9.04328 50.467 9.41661C50.2963 9.78994 50.211 10.1899 50.211 10.6166V15.0006H48.483ZM60.3961 15.2566C59.8095 15.2566 59.2868 15.1393 58.8281 14.9046C58.3801 14.6699 58.0228 14.3499 57.7561 13.9446C57.5001 13.5286 57.3721 13.0539 57.3721 12.5206C57.3721 11.9339 57.5215 11.4379 57.8201 11.0326C58.1295 10.6273 58.5401 10.3179 59.0521 10.1046C59.5641 9.89128 60.1295 9.78461 60.7481 9.78461C61.0895 9.78461 61.4041 9.81128 61.6921 9.86461C61.9908 9.90728 62.2468 9.96061 62.4601 10.0246C62.6841 10.0886 62.8601 10.1579 62.9881 10.2326V9.80061C62.9881 9.26728 62.7961 8.84061 62.4121 8.52061C62.0281 8.20061 61.5321 8.04061 60.9241 8.04061C60.5081 8.04061 60.1135 8.13661 59.7401 8.32861C59.3668 8.50994 59.0681 8.76061 58.8441 9.08061L57.6601 8.16861C57.8948 7.83794 58.1775 7.55528 58.5081 7.32061C58.8495 7.08594 59.2281 6.90461 59.6441 6.77661C60.0708 6.64861 60.5135 6.58461 60.9721 6.58461C62.1561 6.58461 63.0681 6.87794 63.7081 7.46461C64.3481 8.04061 64.6681 8.85128 64.6681 9.89661V15.0006H62.9881V13.9926H62.8921C62.7535 14.2059 62.5615 14.4086 62.3161 14.6006C62.0815 14.7926 61.7988 14.9473 61.4681 15.0646C61.1481 15.1926 60.7908 15.2566 60.3961 15.2566ZM60.7001 13.8486C61.1481 13.8486 61.5428 13.7419 61.8841 13.5286C62.2361 13.3153 62.5081 13.0379 62.7001 12.6966C62.8921 12.3446 62.9881 11.9659 62.9881 11.5606C62.7535 11.4219 62.4655 11.3099 62.1241 11.2246C61.7935 11.1286 61.4415 11.0806 61.0681 11.0806C60.3641 11.0806 59.8628 11.2193 59.5641 11.4966C59.2655 11.7739 59.1161 12.1206 59.1161 12.5366C59.1161 12.9206 59.2601 13.2353 59.5481 13.4806C59.8361 13.7259 60.2201 13.8486 60.7001 13.8486ZM66.0043 6.84061H67.4283V4.53661H69.1563V6.84061H71.1563V8.34461H69.1563V12.2646C69.1563 12.6699 69.2363 12.9793 69.3963 13.1926C69.5669 13.4059 69.8496 13.5126 70.2443 13.5126C70.4363 13.5126 70.6069 13.4859 70.7563 13.4326C70.9056 13.3686 71.0549 13.2939 71.2043 13.2086V14.8886C71.0229 14.9633 70.8309 15.0219 70.6283 15.0646C70.4256 15.1073 70.1856 15.1286 69.9083 15.1286C69.1509 15.1286 68.5483 14.9099 68.1003 14.4726C67.6523 14.0246 67.4283 13.4113 67.4283 12.6326V8.34461H66.0043V6.84061ZM70.0523 5.89661V3.54461H71.6683L71.2683 5.89661H70.0523ZM80.5152 15.2566C79.6939 15.2566 78.9632 15.0699 78.3232 14.6966C77.6939 14.3233 77.1979 13.8113 76.8352 13.1606C76.4832 12.4993 76.3072 11.7526 76.3072 10.9206C76.3072 10.0886 76.4832 9.34728 76.8352 8.69661C77.1979 8.04594 77.6939 7.53394 78.3232 7.16061C78.9632 6.77661 79.6939 6.58461 80.5152 6.58461C81.4219 6.58461 82.1846 6.78728 82.8032 7.19261C83.4326 7.59794 83.8806 8.14728 84.1472 8.84061L82.5792 9.48061C82.3872 9.04328 82.1099 8.71794 81.7472 8.50461C81.3952 8.28061 80.9739 8.16861 80.4832 8.16861C80.0352 8.16861 79.6246 8.28594 79.2512 8.52061C78.8779 8.74461 78.5792 9.05928 78.3552 9.46461C78.1312 9.86994 78.0192 10.3553 78.0192 10.9206C78.0192 11.4753 78.1312 11.9606 78.3552 12.3766C78.5792 12.7926 78.8779 13.1126 79.2512 13.3366C79.6246 13.5606 80.0352 13.6726 80.4832 13.6726C81.0059 13.6726 81.4486 13.5553 81.8112 13.3206C82.1739 13.0859 82.4566 12.7553 82.6592 12.3286L84.1952 13.0006C83.8966 13.6513 83.4326 14.1899 82.8032 14.6166C82.1846 15.0433 81.4219 15.2566 80.5152 15.2566ZM89.4766 15.2566C88.6766 15.2566 87.962 15.0699 87.3326 14.6966C86.7033 14.3233 86.2073 13.8113 85.8446 13.1606C85.4926 12.5099 85.3166 11.7686 85.3166 10.9366C85.3166 10.1579 85.4873 9.43794 85.8286 8.77661C86.17 8.11528 86.6446 7.58728 87.2526 7.19261C87.8713 6.78728 88.5806 6.58461 89.3806 6.58461C90.2233 6.58461 90.938 6.76594 91.5246 7.12861C92.122 7.49128 92.5753 7.98728 92.8846 8.61661C93.194 9.24594 93.3486 9.95528 93.3486 10.7446C93.3486 10.8619 93.3433 10.9686 93.3326 11.0646C93.3326 11.1606 93.3273 11.2353 93.3166 11.2886H87.0126C87.0553 11.7366 87.1673 12.1259 87.3486 12.4566C87.5833 12.8726 87.8926 13.1873 88.2766 13.4006C88.6606 13.6139 89.0766 13.7206 89.5246 13.7206C90.0686 13.7206 90.522 13.5979 90.8846 13.3526C91.258 13.0966 91.5513 12.7819 91.7646 12.4086L93.1886 13.0966C92.8366 13.7366 92.3566 14.2593 91.7486 14.6646C91.1406 15.0593 90.3833 15.2566 89.4766 15.2566ZM87.1086 9.99261H91.6366C91.626 9.78994 91.5726 9.57661 91.4766 9.35261C91.3806 9.11794 91.242 8.90461 91.0606 8.71261C90.8793 8.52061 90.65 8.36594 90.3726 8.24861C90.0953 8.12061 89.77 8.05661 89.3966 8.05661C88.9273 8.05661 88.5113 8.17928 88.1486 8.42461C87.786 8.65928 87.5033 8.98994 87.3006 9.41661C87.2153 9.59794 87.1513 9.78994 87.1086 9.99261ZM94.6076 15.0006V13.5606L99.1516 8.34461H94.7516V6.84061H101.264V8.28061L96.7356 13.4966H101.392V15.0006H94.6076Z" fill="white"/>
<g id="GPay (Dark)">
<g id="GPay">
<g id="Pay">
<path id="Fill 1" fill-rule="evenodd" clip-rule="evenodd" d="M130.356 3.42339V8.16175H133.278C133.974 8.16175 134.55 7.92781 135.005 7.45993C135.473 6.99313 135.707 6.43644 135.707 5.79203C135.707 5.16061 135.473 4.61041 135.005 4.14254C134.55 3.66274 133.974 3.4223 133.278 3.4223H130.356V3.42339ZM130.356 9.82966V15.3262H128.611V1.75549H133.24C134.417 1.75549 135.415 2.14756 136.238 2.93061C137.073 3.71365 137.491 4.66782 137.491 5.79203C137.491 6.94224 137.073 7.90291 136.238 8.67296C135.428 9.44409 134.429 9.82858 133.24 9.82858H130.356V9.82966Z" fill="white"/>
<path id="Fill 3" fill-rule="evenodd" clip-rule="evenodd" d="M139.255 12.4831C139.255 12.9379 139.448 13.317 139.834 13.6203C140.22 13.9235 140.672 14.0752 141.19 14.0752C141.924 14.0752 142.578 13.8032 143.153 13.2607C143.729 12.717 144.017 12.0791 144.017 11.3469C143.472 10.917 142.713 10.7025 141.74 10.7025C141.031 10.7025 140.44 10.8736 139.966 11.2148C139.492 11.5559 139.255 11.9773 139.255 12.4831M141.513 5.73566C142.803 5.73566 143.821 6.08007 144.569 6.76889C145.314 7.45771 145.687 8.40213 145.687 9.60216V15.3261H144.018V14.0373H143.942C143.221 15.0985 142.259 15.6294 141.058 15.6294C140.033 15.6294 139.176 15.3261 138.487 14.7196C137.797 14.1131 137.453 13.3549 137.453 12.4452C137.453 11.4845 137.816 10.7208 138.543 10.1523C139.271 9.58375 140.241 9.2989 141.456 9.2989C142.492 9.2989 143.346 9.48844 144.017 9.86751V9.46894C144.017 8.86243 143.776 8.34798 143.296 7.92451C142.814 7.50103 142.252 7.28984 141.607 7.28984C140.633 7.28984 139.862 7.70032 139.293 8.52235L137.755 7.55519C138.603 6.34217 139.855 5.73566 141.513 5.73566" fill="white"/>
<path id="Fill 5" fill-rule="evenodd" clip-rule="evenodd" d="M155.269 6.03894L149.443 19.4201H147.641L149.804 14.738L145.971 6.03894H147.869L150.639 12.7106H150.677L153.371 6.03894H155.269Z" fill="white"/>
</g>
<g id="G">
<path id="Fill 8" fill-rule="evenodd" clip-rule="evenodd" d="M123.303 8.64473C123.303 8.09563 123.256 7.56601 123.168 7.05914H115.806V10.0625H120.023C119.842 11.0414 119.294 11.8744 118.464 12.4322V14.3828H120.98C122.454 13.0246 123.303 11.0177 123.303 8.64473" fill="#4285F4"/>
<path id="Fill 10" fill-rule="evenodd" clip-rule="evenodd" d="M115.806 16.2651C117.913 16.2651 119.687 15.5741 120.98 14.3828L118.464 12.4322C117.763 12.9033 116.861 13.1784 115.806 13.1784C113.77 13.1784 112.042 11.8073 111.424 9.95959H108.832V11.9687C110.116 14.516 112.757 16.2651 115.806 16.2651" fill="#34A853"/>
<path id="Fill 12" fill-rule="evenodd" clip-rule="evenodd" d="M111.424 9.9596C111.266 9.48847 111.179 8.98593 111.179 8.46715C111.179 7.94837 111.266 7.44583 111.424 6.9747V4.96564H108.832C108.3 6.01837 108 7.20756 108 8.46715C108 9.72674 108.3 10.916 108.832 11.9687L111.424 9.9596Z" fill="#FABB05"/>
<path id="Fill 14" fill-rule="evenodd" clip-rule="evenodd" d="M115.806 3.75583C116.957 3.75583 117.988 4.15115 118.801 4.92553V4.92661L121.029 2.70094C119.676 1.44243 117.912 0.669128 115.806 0.669128C112.757 0.669128 110.116 2.41826 108.832 4.9656L111.424 6.97467C112.042 5.12698 113.77 3.75583 115.806 3.75583" fill="#E94235"/>
</g>
</g>
</g>
</g>
</svg>
