<svg width="272" height="38" viewBox="0 0 272 38" fill="none" xmlns="http://www.w3.org/2000/svg">
<g id="sk_order_with_Light">
<path id="Text" d="M11.7308 30.448C10.2375 30.448 8.85614 30.1773 7.58681 29.636C6.33614 29.0947 5.24414 28.348 4.31081 27.396C3.37748 26.444 2.64948 25.3333 2.12681 24.064C1.60414 22.7947 1.34281 21.432 1.34281 19.976C1.34281 18.52 1.60414 17.1573 2.12681 15.888C2.64948 14.6187 3.37748 13.508 4.31081 12.556C5.24414 11.604 6.33614 10.8573 7.58681 10.316C8.85614 9.77467 10.2375 9.504 11.7308 9.504C13.2055 9.504 14.5681 9.77467 15.8188 10.316C17.0881 10.8573 18.1895 11.604 19.1228 12.556C20.0748 13.508 20.8028 14.6187 21.3068 15.888C21.8295 17.1573 22.0908 18.52 22.0908 19.976C22.0908 21.432 21.8295 22.7947 21.3068 24.064C20.8028 25.3333 20.0748 26.444 19.1228 27.396C18.1895 28.348 17.0881 29.0947 15.8188 29.636C14.5681 30.1773 13.2055 30.448 11.7308 30.448ZM11.7308 27.536C13.0748 27.536 14.2975 27.2187 15.3988 26.584C16.5001 25.9493 17.3775 25.0627 18.0308 23.924C18.6841 22.7853 19.0108 21.4693 19.0108 19.976C19.0108 18.4827 18.6841 17.1667 18.0308 16.028C17.3775 14.8893 16.5001 14.0027 15.3988 13.368C14.2975 12.7333 13.0748 12.416 11.7308 12.416C10.3868 12.416 9.16414 12.7333 8.06281 13.368C6.96148 14.0027 6.08414 14.8893 5.43081 16.028C4.77748 17.1667 4.45081 18.4827 4.45081 19.976C4.45081 21.4693 4.77748 22.7853 5.43081 23.924C6.08414 25.0627 6.96148 25.9493 8.06281 26.584C9.16414 27.2187 10.3868 27.536 11.7308 27.536ZM33.0597 30.448C31.9584 30.448 31.0064 30.2147 30.2037 29.748C29.4197 29.2627 28.841 28.712 28.4677 28.096H28.2997V30H25.4437V9.952H28.4677V15.664L28.2997 17.652H28.4677C28.841 17.036 29.4197 16.4853 30.2037 16C31.0064 15.5147 31.9584 15.272 33.0597 15.272C34.3664 15.272 35.533 15.5987 36.5597 16.252C37.5864 16.9053 38.3984 17.8013 38.9957 18.94C39.6117 20.0787 39.9197 21.3853 39.9197 22.86C39.9197 24.3347 39.6117 25.6507 38.9957 26.808C38.3984 27.9467 37.5864 28.8427 36.5597 29.496C35.533 30.1307 34.3664 30.448 33.0597 30.448ZM32.6117 27.676C33.3584 27.676 34.0584 27.48 34.7117 27.088C35.365 26.696 35.897 26.1453 36.3077 25.436C36.7184 24.708 36.9237 23.8493 36.9237 22.86C36.9237 21.8707 36.7184 21.0213 36.3077 20.312C35.897 19.584 35.365 19.024 34.7117 18.632C34.0584 18.24 33.3584 18.044 32.6117 18.044C31.865 18.044 31.165 18.24 30.5117 18.632C29.8584 19.024 29.3264 19.584 28.9157 20.312C28.505 21.0213 28.2997 21.8707 28.2997 22.86C28.2997 23.8493 28.505 24.708 28.9157 25.436C29.3264 26.1453 29.8584 26.696 30.5117 27.088C31.165 27.48 31.865 27.676 32.6117 27.676ZM44.5969 13.62C44.0369 13.62 43.5515 13.424 43.1409 13.032C42.7489 12.6213 42.5529 12.136 42.5529 11.576C42.5529 11.016 42.7489 10.54 43.1409 10.148C43.5515 9.756 44.0369 9.56 44.5969 9.56C45.1569 9.56 45.6329 9.756 46.0249 10.148C46.4355 10.54 46.6409 11.016 46.6409 11.576C46.6409 12.136 46.4355 12.6213 46.0249 13.032C45.6329 13.424 45.1569 13.62 44.5969 13.62ZM41.8809 36.328C41.3022 36.328 40.7795 36.2627 40.3129 36.132V33.22C40.4995 33.332 40.7142 33.416 40.9569 33.472C41.1809 33.5467 41.4049 33.584 41.6289 33.584C42.1702 33.584 42.5435 33.416 42.7489 33.08C42.9729 32.7627 43.0849 32.296 43.0849 31.68V15.72H46.1089V31.708C46.1089 33.3507 45.7075 34.5267 44.9049 35.236C44.1022 35.964 43.0942 36.328 41.8809 36.328ZM56.5482 30.448C55.1482 30.448 53.8975 30.1213 52.7962 29.468C51.6948 28.8147 50.8268 27.9187 50.1922 26.78C49.5762 25.6413 49.2682 24.344 49.2682 22.888C49.2682 21.5253 49.5668 20.2653 50.1642 19.108C50.7615 17.9507 51.5922 17.0267 52.6562 16.336C53.7388 15.6267 54.9802 15.272 56.3802 15.272C57.8548 15.272 59.1055 15.5893 60.1322 16.224C61.1775 16.8587 61.9708 17.7267 62.5122 18.828C63.0535 19.9293 63.3242 21.1707 63.3242 22.552C63.3242 22.7573 63.3148 22.944 63.2962 23.112C63.2962 23.28 63.2868 23.4107 63.2682 23.504H52.2362C52.3855 24.9227 52.8802 25.9867 53.7202 26.696C54.5788 27.4053 55.5495 27.76 56.6322 27.76C57.6028 27.76 58.4055 27.5453 59.0402 27.116C59.6748 26.668 60.1788 26.1173 60.5522 25.464L63.0442 26.668C62.4282 27.788 61.5882 28.7027 60.5242 29.412C59.4602 30.1027 58.1348 30.448 56.5482 30.448ZM56.4082 17.848C55.4002 17.848 54.5415 18.156 53.8322 18.772C53.1228 19.388 52.6468 20.2093 52.4042 21.236H60.3282C60.2908 20.7507 60.1322 20.2467 59.8522 19.724C59.5722 19.2013 59.1428 18.7627 58.5642 18.408C58.0042 18.0347 57.2855 17.848 56.4082 17.848ZM72.6703 30.448C71.3823 30.448 70.2157 30.1307 69.1703 29.496C68.1437 28.8427 67.3223 27.9467 66.7063 26.808C66.109 25.6507 65.8103 24.3347 65.8103 22.86C65.8103 21.3853 66.109 20.0787 66.7063 18.94C67.3223 17.8013 68.1437 16.9053 69.1703 16.252C70.2157 15.5987 71.3823 15.272 72.6703 15.272C73.7717 15.272 74.7143 15.5147 75.4983 16C76.301 16.4853 76.889 17.036 77.2623 17.652H77.4303L77.2623 15.664V9.952H80.2583V30H77.4303V28.096H77.2623C76.889 28.712 76.301 29.2627 75.4983 29.748C74.7143 30.2147 73.7717 30.448 72.6703 30.448ZM73.1183 27.676C73.865 27.676 74.565 27.48 75.2183 27.088C75.8903 26.696 76.4223 26.1453 76.8143 25.436C77.225 24.708 77.4303 23.8493 77.4303 22.86C77.4303 21.8707 77.225 21.0213 76.8143 20.312C76.4223 19.584 75.8903 19.024 75.2183 18.632C74.565 18.24 73.865 18.044 73.1183 18.044C72.3717 18.044 71.6717 18.24 71.0183 18.632C70.365 19.024 69.833 19.584 69.4223 20.312C69.0117 21.0213 68.8063 21.8707 68.8063 22.86C68.8063 23.8493 69.0117 24.708 69.4223 25.436C69.833 26.1453 70.365 26.696 71.0183 27.088C71.6717 27.48 72.3717 27.676 73.1183 27.676ZM84.1202 30V15.72H86.9762V17.68H87.1442C87.5549 16.9893 88.1616 16.42 88.9642 15.972C89.7856 15.5053 90.6816 15.272 91.6522 15.272C93.4069 15.272 94.7229 15.7947 95.6002 16.84C96.4776 17.8853 96.9162 19.2667 96.9162 20.984V30H93.9202V21.376C93.9202 20.2187 93.6309 19.3787 93.0522 18.856C92.4736 18.3147 91.7176 18.044 90.7842 18.044C90.0562 18.044 89.4216 18.2493 88.8802 18.66C88.3389 19.052 87.9096 19.5747 87.5922 20.228C87.2936 20.8813 87.1442 21.5813 87.1442 22.328V30H84.1202ZM105.006 30.448C103.979 30.448 103.064 30.252 102.262 29.86C101.459 29.4493 100.834 28.88 100.386 28.152C99.9377 27.424 99.7137 26.5933 99.7137 25.66C99.7137 24.652 99.9751 23.7933 100.498 23.084C101.039 22.356 101.758 21.8053 102.654 21.432C103.55 21.0587 104.539 20.872 105.622 20.872C106.518 20.872 107.302 20.956 107.974 21.124C108.664 21.292 109.187 21.4693 109.542 21.656V20.9C109.542 19.9667 109.206 19.22 108.534 18.66C107.862 18.1 106.994 17.82 105.93 17.82C105.202 17.82 104.511 17.988 103.858 18.324C103.204 18.6413 102.682 19.08 102.29 19.64L100.218 18.044C100.834 17.1853 101.646 16.5133 102.654 16.028C103.68 15.524 104.8 15.272 106.014 15.272C108.086 15.272 109.682 15.7853 110.802 16.812C111.922 17.82 112.482 19.2387 112.482 21.068V30H109.542V28.236H109.374C109 28.8147 108.44 29.328 107.694 29.776C106.947 30.224 106.051 30.448 105.006 30.448ZM105.538 27.984C106.322 27.984 107.012 27.7973 107.61 27.424C108.207 27.0507 108.674 26.5653 109.01 25.968C109.364 25.352 109.542 24.6893 109.542 23.98C109.112 23.7373 108.608 23.5413 108.03 23.392C107.451 23.224 106.835 23.14 106.182 23.14C104.95 23.14 104.072 23.392 103.55 23.896C103.027 24.3813 102.766 24.9787 102.766 25.688C102.766 26.36 103.018 26.9107 103.522 27.34C104.026 27.7693 104.698 27.984 105.538 27.984ZM117.349 25.856V18.352H114.857V15.72H117.349V11.688H120.373V15.72H123.873V18.352H120.373V25.212C120.373 25.9213 120.513 26.4627 120.793 26.836C121.092 27.2093 121.587 27.396 122.277 27.396C122.632 27.396 122.931 27.3493 123.173 27.256C123.435 27.1627 123.696 27.032 123.957 26.864V29.804C123.64 29.9347 123.304 30.0373 122.949 30.112C122.595 30.1867 122.175 30.224 121.689 30.224C120.364 30.224 119.309 29.8413 118.525 29.076C117.741 28.292 117.349 27.2187 117.349 25.856ZM121.941 14.068V9.952H124.769L124.069 14.068H121.941ZM140.327 30.448C138.889 30.448 137.62 30.1213 136.519 29.468C135.417 28.8147 134.549 27.9187 133.915 26.78C133.28 25.6227 132.963 24.316 132.963 22.86C132.963 21.404 133.28 20.1067 133.915 18.968C134.549 17.8107 135.417 16.9053 136.519 16.252C137.62 15.5987 138.889 15.272 140.327 15.272C141.913 15.272 143.248 15.6267 144.331 16.336C145.432 17.0453 146.216 18.0067 146.683 19.22L143.939 20.34C143.285 18.8093 142.063 18.044 140.271 18.044C139.487 18.044 138.768 18.2493 138.115 18.66C137.461 19.052 136.939 19.612 136.547 20.34C136.155 21.0493 135.959 21.8893 135.959 22.86C135.959 23.8307 136.155 24.68 136.547 25.408C136.939 26.136 137.461 26.696 138.115 27.088C138.768 27.48 139.487 27.676 140.271 27.676C141.185 27.676 141.96 27.4707 142.595 27.06C143.229 26.6307 143.724 26.052 144.079 25.324L146.767 26.5C146.263 27.6387 145.46 28.5813 144.359 29.328C143.257 30.0747 141.913 30.448 140.327 30.448ZM156.047 30.448C154.647 30.448 153.396 30.1213 152.295 29.468C151.193 28.8147 150.325 27.9187 149.691 26.78C149.075 25.6413 148.767 24.344 148.767 22.888C148.767 21.5253 149.065 20.2653 149.663 19.108C150.26 17.9507 151.091 17.0267 152.155 16.336C153.237 15.6267 154.479 15.272 155.879 15.272C157.353 15.272 158.604 15.5893 159.631 16.224C160.676 16.8587 161.469 17.7267 162.011 18.828C162.552 19.9293 162.823 21.1707 162.823 22.552C162.823 22.7573 162.813 22.944 162.795 23.112C162.795 23.28 162.785 23.4107 162.767 23.504H151.735C151.884 24.9227 152.379 25.9867 153.219 26.696C154.077 27.4053 155.048 27.76 156.131 27.76C157.101 27.76 157.904 27.5453 158.539 27.116C159.173 26.668 159.677 26.1173 160.051 25.464L162.543 26.668C161.927 27.788 161.087 28.7027 160.023 29.412C158.959 30.1027 157.633 30.448 156.047 30.448ZM155.907 17.848C154.899 17.848 154.04 18.156 153.331 18.772C152.621 19.388 152.145 20.2093 151.903 21.236H159.827C159.789 20.7507 159.631 20.2467 159.351 19.724C159.071 19.2013 158.641 18.7627 158.063 18.408C157.503 18.0347 156.784 17.848 155.907 17.848ZM165.063 30V27.48L173.015 18.352H165.315V15.72H176.711V18.24L168.787 27.368H176.935V30H165.063Z" fill="#3C4043"/>
<g id="GPay Logo (Light)">
<g id="GPay">
<g id="Pay">
<path id="Fill 1" fill-rule="evenodd" clip-rule="evenodd" d="M228.529 9.44664V17.6128H233.565C234.765 17.6128 235.757 17.2096 236.541 16.4032C237.347 15.5988 237.75 14.6394 237.75 13.5288C237.75 12.4406 237.347 11.4924 236.541 10.686C235.757 9.85915 234.765 9.44478 233.565 9.44478H228.529V9.44664ZM228.529 20.4872V29.9599H225.521V6.57217H233.499C235.527 6.57217 237.248 7.24786 238.666 8.59737C240.105 9.94688 240.824 11.5913 240.824 13.5288C240.824 15.511 240.105 17.1667 238.666 18.4938C237.27 19.8227 235.547 20.4854 233.499 20.4854H228.529V20.4872Z" fill="#5F6368"/>
<path id="Fill 3" fill-rule="evenodd" clip-rule="evenodd" d="M243.864 25.0602C243.864 25.8442 244.197 26.4975 244.862 27.0201C245.527 27.5427 246.306 27.804 247.2 27.804C248.465 27.804 249.591 27.3354 250.584 26.4004C251.576 25.4634 252.071 24.364 252.071 23.1022C251.133 22.3612 249.825 21.9916 248.147 21.9916C246.925 21.9916 245.907 22.2865 245.09 22.8745C244.273 23.4623 243.864 24.1886 243.864 25.0602ZM247.756 13.4317C249.98 13.4317 251.735 14.0252 253.022 15.2124C254.308 16.3995 254.95 18.0271 254.95 20.0952V29.9599H252.073V27.7387H251.942C250.699 29.5677 249.042 30.4825 246.972 30.4825C245.206 30.4825 243.728 29.9599 242.541 28.9146C241.353 27.8694 240.759 26.5628 240.759 24.9949C240.759 23.3393 241.385 22.0232 242.638 21.0434C243.892 20.0635 245.565 19.5726 247.658 19.5726C249.444 19.5726 250.916 19.8992 252.071 20.5525V19.8656C252.071 18.8204 251.656 17.9338 250.829 17.204C249.999 16.4741 249.031 16.1102 247.919 16.1102C246.239 16.1102 244.911 16.8176 243.93 18.2343L241.28 16.5675C242.741 14.4769 244.899 13.4317 247.756 13.4317Z" fill="#5F6368"/>
<path id="Fill 5" fill-rule="evenodd" clip-rule="evenodd" d="M271.463 13.9543L261.424 37.0154H258.318L262.046 28.9464L255.44 13.9543H258.71L263.484 25.4522H263.55L268.193 13.9543H271.463Z" fill="#5F6368"/>
</g>
<g id="G">
<path id="Fill 8" fill-rule="evenodd" clip-rule="evenodd" d="M216.373 18.4452C216.373 17.4989 216.293 16.5861 216.141 15.7126H203.454V20.8885H210.72C210.408 22.5757 209.465 24.0112 208.033 24.9725V28.3341H212.37C214.91 25.9935 216.373 22.5348 216.373 18.4452Z" fill="#4285F4"/>
<path id="Fill 10" fill-rule="evenodd" clip-rule="evenodd" d="M203.454 31.5782C207.084 31.5782 210.141 30.3873 212.37 28.3341L208.033 24.9725C206.826 25.7844 205.272 26.2585 203.454 26.2585C199.944 26.2585 196.966 23.8955 195.901 20.7112H191.433V24.1736C193.647 28.5637 198.197 31.5782 203.454 31.5782Z" fill="#34A853"/>
<path id="Fill 12" fill-rule="evenodd" clip-rule="evenodd" d="M195.901 20.7111C195.628 19.8992 195.479 19.0331 195.479 18.139C195.479 17.245 195.628 16.3789 195.901 15.567V12.1045H191.433C190.518 13.9188 190 15.9683 190 18.139C190 20.3098 190.518 22.3595 191.433 24.1736L195.901 20.7111Z" fill="#FABB05"/>
<path id="Fill 14" fill-rule="evenodd" clip-rule="evenodd" d="M203.454 10.0196C205.436 10.0196 207.213 10.7009 208.615 12.0355V12.0374L212.455 8.20162C210.123 6.03271 207.082 4.7 203.454 4.7C198.197 4.7 193.647 7.71446 191.433 12.1046L195.901 15.567C196.966 12.3827 199.944 10.0196 203.454 10.0196Z" fill="#E94235"/>
</g>
</g>
</g>
</g>
</svg>
