<svg width="142" height="21" viewBox="0 0 142 21" fill="none" xmlns="http://www.w3.org/2000/svg">
<g id="sk_pay_with_Pay_NBG">
<path id="Left Text" d="M0.723624 15.0006V13.2086L6.72362 5.20861H0.979623V3.54461H8.75562V5.33661L2.80362 13.3366H8.81962V15.0006H0.723624ZM13.2867 15.2566C12.7001 15.2566 12.1774 15.1393 11.7187 14.9046C11.2707 14.6699 10.9134 14.3499 10.6467 13.9446C10.3907 13.5286 10.2627 13.0539 10.2627 12.5206C10.2627 11.9339 10.4121 11.4379 10.7107 11.0326C11.0201 10.6273 11.4307 10.3179 11.9427 10.1046C12.4547 9.89128 13.0201 9.78461 13.6387 9.78461C13.9801 9.78461 14.2947 9.81128 14.5827 9.86461C14.8814 9.90728 15.1374 9.96061 15.3507 10.0246C15.5747 10.0886 15.7507 10.1579 15.8787 10.2326V9.80061C15.8787 9.26728 15.6867 8.84061 15.3027 8.52061C14.9187 8.20061 14.4227 8.04061 13.8147 8.04061C13.3987 8.04061 13.0041 8.13661 12.6307 8.32861C12.2574 8.50994 11.9587 8.76061 11.7347 9.08061L10.5507 8.16861C10.7854 7.83794 11.0681 7.55528 11.3987 7.32061C11.7401 7.08594 12.1187 6.90461 12.5347 6.77661C12.9614 6.64861 13.4041 6.58461 13.8627 6.58461C15.0467 6.58461 15.9587 6.87794 16.5987 7.46461C17.2387 8.04061 17.5587 8.85128 17.5587 9.89661V15.0006H15.8787V13.9926H15.7827C15.6441 14.2059 15.4521 14.4086 15.2067 14.6006C14.9721 14.7926 14.6894 14.9473 14.3587 15.0646C14.0387 15.1926 13.6814 15.2566 13.2867 15.2566ZM13.5907 13.8486C14.0387 13.8486 14.4334 13.7419 14.7747 13.5286C15.1267 13.3153 15.3987 13.0379 15.5907 12.6966C15.7827 12.3446 15.8787 11.9659 15.8787 11.5606C15.6441 11.4219 15.3561 11.3099 15.0147 11.2246C14.6841 11.1286 14.3321 11.0806 13.9587 11.0806C13.2547 11.0806 12.7534 11.2193 12.4547 11.4966C12.1561 11.7739 12.0067 12.1206 12.0067 12.5366C12.0067 12.9206 12.1507 13.2353 12.4387 13.4806C12.7267 13.7259 13.1107 13.8486 13.5907 13.8486ZM19.5951 18.4566V6.84061H21.2111V7.94461H21.3071C21.4565 7.70994 21.6538 7.49128 21.8991 7.28861C22.1551 7.07528 22.4538 6.90461 22.7951 6.77661C23.1365 6.64861 23.5151 6.58461 23.9311 6.58461C24.6778 6.58461 25.3445 6.77128 25.9311 7.14461C26.5178 7.51794 26.9818 8.02994 27.3231 8.68061C27.6751 9.33128 27.8511 10.0779 27.8511 10.9206C27.8511 11.7633 27.6751 12.5099 27.3231 13.1606C26.9818 13.8113 26.5178 14.3233 25.9311 14.6966C25.3445 15.0699 24.6778 15.2566 23.9311 15.2566C23.3125 15.2566 22.7738 15.1179 22.3151 14.8406C21.8565 14.5633 21.5205 14.2539 21.3071 13.9126H21.2111L21.3071 15.0486V18.4566H19.5951ZM23.6751 13.6726C24.1018 13.6726 24.5018 13.5606 24.8751 13.3366C25.2591 13.1126 25.5631 12.7926 25.7871 12.3766C26.0218 11.9606 26.1391 11.4753 26.1391 10.9206C26.1391 10.3553 26.0218 9.86994 25.7871 9.46461C25.5631 9.04861 25.2591 8.72861 24.8751 8.50461C24.5018 8.28061 24.1018 8.16861 23.6751 8.16861C23.2485 8.16861 22.8485 8.28061 22.4751 8.50461C22.1018 8.72861 21.7978 9.04861 21.5631 9.46461C21.3285 9.86994 21.2111 10.3553 21.2111 10.9206C21.2111 11.4859 21.3285 11.9766 21.5631 12.3926C21.7978 12.7979 22.1018 13.1126 22.4751 13.3366C22.8485 13.5606 23.2485 13.6726 23.6751 13.6726ZM29.449 15.0006V3.54461H31.177V15.0006H29.449ZM35.8461 15.2566C35.2595 15.2566 34.7368 15.1393 34.2781 14.9046C33.8301 14.6699 33.4728 14.3499 33.2061 13.9446C32.9501 13.5286 32.8221 13.0539 32.8221 12.5206C32.8221 11.9339 32.9715 11.4379 33.2701 11.0326C33.5795 10.6273 33.9901 10.3179 34.5021 10.1046C35.0141 9.89128 35.5795 9.78461 36.1981 9.78461C36.5395 9.78461 36.8541 9.81128 37.1421 9.86461C37.4408 9.90728 37.6968 9.96061 37.9101 10.0246C38.1341 10.0886 38.3101 10.1579 38.4381 10.2326V9.80061C38.4381 9.26728 38.2461 8.84061 37.8621 8.52061C37.4781 8.20061 36.9821 8.04061 36.3741 8.04061C35.9581 8.04061 35.5635 8.13661 35.1901 8.32861C34.8168 8.50994 34.5181 8.76061 34.2941 9.08061L33.1101 8.16861C33.3448 7.83794 33.6275 7.55528 33.9581 7.32061C34.2995 7.08594 34.6781 6.90461 35.0941 6.77661C35.5208 6.64861 35.9635 6.58461 36.4221 6.58461C37.6061 6.58461 38.5181 6.87794 39.1581 7.46461C39.7981 8.04061 40.1181 8.85128 40.1181 9.89661V15.0006H38.4381V13.9926H38.3421C38.2035 14.2059 38.0115 14.4086 37.7661 14.6006C37.5315 14.7926 37.2488 14.9473 36.9181 15.0646C36.5981 15.1926 36.2408 15.2566 35.8461 15.2566ZM36.1501 13.8486C36.5981 13.8486 36.9928 13.7419 37.3341 13.5286C37.6861 13.3153 37.9581 13.0379 38.1501 12.6966C38.3421 12.3446 38.4381 11.9659 38.4381 11.5606C38.2035 11.4219 37.9155 11.3099 37.5741 11.2246C37.2435 11.1286 36.8915 11.0806 36.5181 11.0806C35.8141 11.0806 35.3128 11.2193 35.0141 11.4966C34.7155 11.7739 34.5661 12.1206 34.5661 12.5366C34.5661 12.9206 34.7101 13.2353 34.9981 13.4806C35.2861 13.7259 35.6701 13.8486 36.1501 13.8486ZM41.4542 6.84061H42.8782V4.53661H44.6062V6.84061H46.6062V8.34461H44.6062V12.2646C44.6062 12.6699 44.6862 12.9793 44.8462 13.1926C45.0169 13.4059 45.2996 13.5126 45.6942 13.5126C45.8862 13.5126 46.0569 13.4859 46.2062 13.4326C46.3556 13.3686 46.5049 13.2939 46.6542 13.2086V14.8886C46.4729 14.9633 46.2809 15.0219 46.0782 15.0646C45.8756 15.1073 45.6356 15.1286 45.3582 15.1286C44.6009 15.1286 43.9982 14.9099 43.5502 14.4726C43.1022 14.0246 42.8782 13.4113 42.8782 12.6326V8.34461H41.4542V6.84061ZM48.6204 15.0006V6.84061H50.3484V15.0006H48.6204ZM49.4844 5.64061C49.1644 5.64061 48.887 5.52861 48.6524 5.30461C48.4284 5.06994 48.3164 4.79261 48.3164 4.47261C48.3164 4.14194 48.4284 3.86994 48.6524 3.65661C48.887 3.43261 49.1644 3.32061 49.4844 3.32061C49.815 3.32061 50.0924 3.43261 50.3164 3.65661C50.5404 3.86994 50.6524 4.14194 50.6524 4.47261C50.6524 4.79261 50.5404 5.06994 50.3164 5.30461C50.0924 5.52861 49.815 5.64061 49.4844 5.64061ZM52.0042 6.84061H53.4282V4.53661H55.1562V6.84061H57.1562V8.34461H55.1562V12.2646C55.1562 12.6699 55.2362 12.9793 55.3962 13.1926C55.5669 13.4059 55.8496 13.5126 56.2442 13.5126C56.4362 13.5126 56.6069 13.4859 56.7562 13.4326C56.9056 13.3686 57.0549 13.2939 57.2042 13.2086V14.8886C57.0229 14.9633 56.8309 15.0219 56.6282 15.0646C56.4256 15.1073 56.1856 15.1286 55.9082 15.1286C55.1509 15.1286 54.5482 14.9099 54.1002 14.4726C53.6522 14.0246 53.4282 13.4113 53.4282 12.6326V8.34461H52.0042V6.84061ZM56.0522 5.89661V3.54461H57.6682L57.2682 5.89661H56.0522ZM66.5152 15.2566C65.6939 15.2566 64.9632 15.0699 64.3232 14.6966C63.6939 14.3233 63.1979 13.8113 62.8352 13.1606C62.4832 12.4993 62.3072 11.7526 62.3072 10.9206C62.3072 10.0886 62.4832 9.34728 62.8352 8.69661C63.1979 8.04594 63.6939 7.53394 64.3232 7.16061C64.9632 6.77661 65.6939 6.58461 66.5152 6.58461C67.4219 6.58461 68.1846 6.78728 68.8032 7.19261C69.4326 7.59794 69.8806 8.14728 70.1472 8.84061L68.5792 9.48061C68.3872 9.04328 68.1099 8.71794 67.7472 8.50461C67.3952 8.28061 66.9739 8.16861 66.4832 8.16861C66.0352 8.16861 65.6246 8.28594 65.2512 8.52061C64.8779 8.74461 64.5792 9.05928 64.3552 9.46461C64.1312 9.86994 64.0192 10.3553 64.0192 10.9206C64.0192 11.4753 64.1312 11.9606 64.3552 12.3766C64.5792 12.7926 64.8779 13.1126 65.2512 13.3366C65.6246 13.5606 66.0352 13.6726 66.4832 13.6726C67.0059 13.6726 67.4486 13.5553 67.8112 13.3206C68.1739 13.0859 68.4566 12.7553 68.6592 12.3286L70.1952 13.0006C69.8966 13.6513 69.4326 14.1899 68.8032 14.6166C68.1846 15.0433 67.4219 15.2566 66.5152 15.2566ZM75.4766 15.2566C74.6766 15.2566 73.962 15.0699 73.3326 14.6966C72.7033 14.3233 72.2073 13.8113 71.8446 13.1606C71.4926 12.5099 71.3166 11.7686 71.3166 10.9366C71.3166 10.1579 71.4873 9.43794 71.8286 8.77661C72.17 8.11528 72.6446 7.58728 73.2526 7.19261C73.8713 6.78728 74.5806 6.58461 75.3806 6.58461C76.2233 6.58461 76.938 6.76594 77.5246 7.12861C78.122 7.49128 78.5753 7.98728 78.8846 8.61661C79.194 9.24594 79.3486 9.95528 79.3486 10.7446C79.3486 10.8619 79.3433 10.9686 79.3326 11.0646C79.3326 11.1606 79.3273 11.2353 79.3166 11.2886H73.0126C73.0553 11.7366 73.1673 12.1259 73.3486 12.4566C73.5833 12.8726 73.8926 13.1873 74.2766 13.4006C74.6606 13.6139 75.0766 13.7206 75.5246 13.7206C76.0686 13.7206 76.522 13.5979 76.8846 13.3526C77.258 13.0966 77.5513 12.7819 77.7646 12.4086L79.1886 13.0966C78.8366 13.7366 78.3566 14.2593 77.7486 14.6646C77.1406 15.0593 76.3833 15.2566 75.4766 15.2566ZM73.1086 9.99261H77.6366C77.626 9.78994 77.5726 9.57661 77.4766 9.35261C77.3806 9.11794 77.242 8.90461 77.0606 8.71261C76.8793 8.52061 76.65 8.36594 76.3726 8.24861C76.0953 8.12061 75.77 8.05661 75.3966 8.05661C74.9273 8.05661 74.5113 8.17928 74.1486 8.42461C73.786 8.65928 73.5033 8.98994 73.3006 9.41661C73.2153 9.59794 73.1513 9.78994 73.1086 9.99261ZM80.6076 15.0006V13.5606L85.1516 8.34461H80.7516V6.84061H87.2636V8.28061L82.7356 13.4966H87.3916V15.0006H80.6076Z" fill="white"/>
<g id="GPay (Dark)">
<g id="GPay">
<g id="Pay">
<path id="Fill 1" fill-rule="evenodd" clip-rule="evenodd" d="M116.356 3.42339V8.16175H119.278C119.974 8.16175 120.55 7.92781 121.005 7.45993C121.473 6.99313 121.707 6.43644 121.707 5.79203C121.707 5.16061 121.473 4.61041 121.005 4.14254C120.55 3.66274 119.974 3.4223 119.278 3.4223H116.356V3.42339ZM116.356 9.82966V15.3262H114.611V1.75549H119.24C120.417 1.75549 121.415 2.14756 122.238 2.93061C123.073 3.71365 123.491 4.66782 123.491 5.79203C123.491 6.94224 123.073 7.90291 122.238 8.67296C121.428 9.44409 120.429 9.82858 119.24 9.82858H116.356V9.82966Z" fill="white"/>
<path id="Fill 3" fill-rule="evenodd" clip-rule="evenodd" d="M125.255 12.4831C125.255 12.9379 125.448 13.317 125.834 13.6203C126.22 13.9235 126.672 14.0752 127.19 14.0752C127.924 14.0752 128.578 13.8032 129.153 13.2607C129.729 12.717 130.017 12.0791 130.017 11.3469C129.472 10.917 128.713 10.7025 127.74 10.7025C127.031 10.7025 126.44 10.8736 125.966 11.2148C125.492 11.5559 125.255 11.9773 125.255 12.4831M127.513 5.73566C128.803 5.73566 129.821 6.08007 130.569 6.76889C131.314 7.45771 131.687 8.40213 131.687 9.60216V15.3261H130.018V14.0373H129.942C129.221 15.0985 128.259 15.6294 127.058 15.6294C126.033 15.6294 125.176 15.3261 124.487 14.7196C123.797 14.1131 123.453 13.3549 123.453 12.4452C123.453 11.4845 123.816 10.7208 124.543 10.1523C125.271 9.58375 126.241 9.2989 127.456 9.2989C128.492 9.2989 129.346 9.48844 130.017 9.86751V9.46894C130.017 8.86243 129.776 8.34798 129.296 7.92451C128.814 7.50103 128.252 7.28984 127.607 7.28984C126.633 7.28984 125.862 7.70032 125.293 8.52235L123.755 7.55519C124.603 6.34217 125.855 5.73566 127.513 5.73566" fill="white"/>
<path id="Fill 5" fill-rule="evenodd" clip-rule="evenodd" d="M141.269 6.03894L135.443 19.4201H133.641L135.804 14.738L131.971 6.03894H133.869L136.639 12.7106H136.677L139.371 6.03894H141.269Z" fill="white"/>
</g>
<g id="G">
<path id="Fill 8" fill-rule="evenodd" clip-rule="evenodd" d="M109.303 8.64473C109.303 8.09563 109.256 7.56601 109.168 7.05914H101.806V10.0625H106.023C105.842 11.0414 105.294 11.8744 104.464 12.4322V14.3828H106.98C108.454 13.0246 109.303 11.0177 109.303 8.64473" fill="#4285F4"/>
<path id="Fill 10" fill-rule="evenodd" clip-rule="evenodd" d="M101.806 16.2651C103.913 16.2651 105.687 15.5741 106.98 14.3828L104.464 12.4322C103.763 12.9033 102.861 13.1784 101.806 13.1784C99.7703 13.1784 98.042 11.8073 97.424 9.95959H94.8316V11.9687C96.1164 14.516 98.7565 16.2651 101.806 16.2651" fill="#34A853"/>
<path id="Fill 12" fill-rule="evenodd" clip-rule="evenodd" d="M97.424 9.9596C97.2657 9.48847 97.179 8.98593 97.179 8.46715C97.179 7.94837 97.2657 7.44583 97.424 6.9747V4.96564H94.8316C94.3003 6.01837 94 7.20756 94 8.46715C94 9.72674 94.3003 10.916 94.8316 11.9687L97.424 9.9596Z" fill="#FABB05"/>
<path id="Fill 14" fill-rule="evenodd" clip-rule="evenodd" d="M101.806 3.75583C102.957 3.75583 103.988 4.15115 104.801 4.92553V4.92661L107.029 2.70094C105.676 1.44243 103.912 0.669128 101.806 0.669128C98.7565 0.669128 96.1164 2.41826 94.8316 4.9656L97.424 6.97467C98.042 5.12698 99.7703 3.75583 101.806 3.75583" fill="#E94235"/>
</g>
</g>
</g>
</g>
</svg>
