<svg width="250" height="38" viewBox="0 0 250 38" fill="none" xmlns="http://www.w3.org/2000/svg">
<g id="sk_pay_with_Light">
<path id="Text" d="M2.85384 30V26.864L13.3538 12.864H3.30184V9.952H16.9098V13.088L6.49384 27.088H17.0218V30H2.85384ZM24.8768 30.448C23.8501 30.448 22.9355 30.252 22.1328 29.86C21.3301 29.4493 20.7048 28.88 20.2568 28.152C19.8088 27.424 19.5848 26.5933 19.5848 25.66C19.5848 24.652 19.8461 23.7933 20.3688 23.084C20.9101 22.356 21.6288 21.8053 22.5248 21.432C23.4208 21.0587 24.4101 20.872 25.4928 20.872C26.3888 20.872 27.1728 20.956 27.8448 21.124C28.5355 21.292 29.0581 21.4693 29.4128 21.656V20.9C29.4128 19.9667 29.0768 19.22 28.4048 18.66C27.7328 18.1 26.8648 17.82 25.8008 17.82C25.0728 17.82 24.3821 17.988 23.7288 18.324C23.0755 18.6413 22.5528 19.08 22.1608 19.64L20.0888 18.044C20.7048 17.1853 21.5168 16.5133 22.5248 16.028C23.5515 15.524 24.6715 15.272 25.8848 15.272C27.9568 15.272 29.5528 15.7853 30.6728 16.812C31.7928 17.82 32.3528 19.2387 32.3528 21.068V30H29.4128V28.236H29.2448C28.8715 28.8147 28.3115 29.328 27.5648 29.776C26.8181 30.224 25.9221 30.448 24.8768 30.448ZM25.4088 27.984C26.1928 27.984 26.8835 27.7973 27.4808 27.424C28.0781 27.0507 28.5448 26.5653 28.8808 25.968C29.2355 25.352 29.4128 24.6893 29.4128 23.98C28.9835 23.7373 28.4795 23.5413 27.9008 23.392C27.3221 23.224 26.7061 23.14 26.0528 23.14C24.8208 23.14 23.9435 23.392 23.4208 23.896C22.8981 24.3813 22.6368 24.9787 22.6368 25.688C22.6368 26.36 22.8888 26.9107 23.3928 27.34C23.8968 27.7693 24.5688 27.984 25.4088 27.984ZM35.954 36.048V15.72H38.782V17.652H38.95C39.3233 17.036 39.902 16.4853 40.686 16C41.4886 15.5147 42.4406 15.272 43.542 15.272C44.8486 15.272 46.0153 15.5987 47.042 16.252C48.0686 16.9053 48.8806 17.8013 49.478 18.94C50.094 20.0787 50.402 21.3853 50.402 22.86C50.402 24.3347 50.094 25.6507 49.478 26.808C48.8806 27.9467 48.0686 28.8427 47.042 29.496C46.0153 30.1307 44.8486 30.448 43.542 30.448C42.4406 30.448 41.4886 30.2147 40.686 29.748C39.902 29.2627 39.3233 28.712 38.95 28.096H38.782L38.95 30.084V36.048H35.954ZM43.094 27.676C43.8406 27.676 44.5406 27.48 45.194 27.088C45.8473 26.696 46.3793 26.1453 46.79 25.436C47.2006 24.708 47.406 23.8493 47.406 22.86C47.406 21.8707 47.2006 21.0213 46.79 20.312C46.3793 19.584 45.8473 19.024 45.194 18.632C44.5406 18.24 43.8406 18.044 43.094 18.044C42.3473 18.044 41.6473 18.24 40.994 18.632C40.3406 19.024 39.8086 19.584 39.398 20.312C38.9873 21.0213 38.782 21.8707 38.782 22.86C38.782 23.8493 38.9873 24.708 39.398 25.436C39.8086 26.1453 40.3406 26.696 40.994 27.088C41.6473 27.48 42.3473 27.676 43.094 27.676ZM53.2357 30V9.952H56.2597V30H53.2357ZM64.4682 30.448C63.4416 30.448 62.5269 30.252 61.7242 29.86C60.9215 29.4493 60.2962 28.88 59.8482 28.152C59.4002 27.424 59.1762 26.5933 59.1762 25.66C59.1762 24.652 59.4375 23.7933 59.9602 23.084C60.5015 22.356 61.2202 21.8053 62.1162 21.432C63.0122 21.0587 64.0015 20.872 65.0842 20.872C65.9802 20.872 66.7642 20.956 67.4362 21.124C68.1269 21.292 68.6496 21.4693 69.0042 21.656V20.9C69.0042 19.9667 68.6682 19.22 67.9962 18.66C67.3242 18.1 66.4562 17.82 65.3922 17.82C64.6642 17.82 63.9736 17.988 63.3202 18.324C62.6669 18.6413 62.1442 19.08 61.7522 19.64L59.6802 18.044C60.2962 17.1853 61.1082 16.5133 62.1162 16.028C63.1429 15.524 64.2629 15.272 65.4762 15.272C67.5482 15.272 69.1442 15.7853 70.2642 16.812C71.3842 17.82 71.9442 19.2387 71.9442 21.068V30H69.0042V28.236H68.8362C68.4629 28.8147 67.9029 29.328 67.1562 29.776C66.4096 30.224 65.5136 30.448 64.4682 30.448ZM65.0002 27.984C65.7842 27.984 66.4749 27.7973 67.0722 27.424C67.6696 27.0507 68.1362 26.5653 68.4722 25.968C68.8269 25.352 69.0042 24.6893 69.0042 23.98C68.5749 23.7373 68.0709 23.5413 67.4922 23.392C66.9136 23.224 66.2976 23.14 65.6442 23.14C64.4122 23.14 63.5349 23.392 63.0122 23.896C62.4895 24.3813 62.2282 24.9787 62.2282 25.688C62.2282 26.36 62.4802 26.9107 62.9842 27.34C63.4882 27.7693 64.1602 27.984 65.0002 27.984ZM76.8119 25.856V18.352H74.3199V15.72H76.8119V11.688H79.8359V15.72H83.3359V18.352H79.8359V25.212C79.8359 25.9213 79.9759 26.4627 80.2559 26.836C80.5546 27.2093 81.0493 27.396 81.7399 27.396C82.0946 27.396 82.3933 27.3493 82.6359 27.256C82.8973 27.1627 83.1586 27.032 83.4199 26.864V29.804C83.1026 29.9347 82.7666 30.0373 82.4119 30.112C82.0573 30.1867 81.6373 30.224 81.1519 30.224C79.8266 30.224 78.7719 29.8413 77.9879 29.076C77.2039 28.292 76.8119 27.2187 76.8119 25.856ZM88.4102 13.62C87.8502 13.62 87.3648 13.424 86.9542 13.032C86.5622 12.6213 86.3662 12.136 86.3662 11.576C86.3662 11.016 86.5622 10.54 86.9542 10.148C87.3648 9.756 87.8502 9.56 88.4102 9.56C88.9702 9.56 89.4462 9.756 89.8382 10.148C90.2488 10.54 90.4542 11.016 90.4542 11.576C90.4542 12.136 90.2488 12.6213 89.8382 13.032C89.4462 13.424 88.9702 13.62 88.4102 13.62ZM86.8982 30V15.72H89.9222V30H86.8982ZM95.3494 25.856V18.352H92.8574V15.72H95.3494V11.688H98.3734V15.72H101.873V18.352H98.3734V25.212C98.3734 25.9213 98.5134 26.4627 98.7934 26.836C99.0921 27.2093 99.5868 27.396 100.277 27.396C100.632 27.396 100.931 27.3493 101.173 27.256C101.435 27.1627 101.696 27.032 101.957 26.864V29.804C101.64 29.9347 101.304 30.0373 100.949 30.112C100.595 30.1867 100.175 30.224 99.6894 30.224C98.3641 30.224 97.3094 29.8413 96.5254 29.076C95.7414 28.292 95.3494 27.2187 95.3494 25.856ZM99.9414 14.068V9.952H102.769L102.069 14.068H99.9414ZM118.327 30.448C116.889 30.448 115.62 30.1213 114.519 29.468C113.417 28.8147 112.549 27.9187 111.915 26.78C111.28 25.6227 110.963 24.316 110.963 22.86C110.963 21.404 111.28 20.1067 111.915 18.968C112.549 17.8107 113.417 16.9053 114.519 16.252C115.62 15.5987 116.889 15.272 118.327 15.272C119.913 15.272 121.248 15.6267 122.331 16.336C123.432 17.0453 124.216 18.0067 124.683 19.22L121.939 20.34C121.285 18.8093 120.063 18.044 118.271 18.044C117.487 18.044 116.768 18.2493 116.115 18.66C115.461 19.052 114.939 19.612 114.547 20.34C114.155 21.0493 113.959 21.8893 113.959 22.86C113.959 23.8307 114.155 24.68 114.547 25.408C114.939 26.136 115.461 26.696 116.115 27.088C116.768 27.48 117.487 27.676 118.271 27.676C119.185 27.676 119.96 27.4707 120.595 27.06C121.229 26.6307 121.724 26.052 122.079 25.324L124.767 26.5C124.263 27.6387 123.46 28.5813 122.359 29.328C121.257 30.0747 119.913 30.448 118.327 30.448ZM134.047 30.448C132.647 30.448 131.396 30.1213 130.295 29.468C129.193 28.8147 128.325 27.9187 127.691 26.78C127.075 25.6413 126.767 24.344 126.767 22.888C126.767 21.5253 127.065 20.2653 127.663 19.108C128.26 17.9507 129.091 17.0267 130.155 16.336C131.237 15.6267 132.479 15.272 133.879 15.272C135.353 15.272 136.604 15.5893 137.631 16.224C138.676 16.8587 139.469 17.7267 140.011 18.828C140.552 19.9293 140.823 21.1707 140.823 22.552C140.823 22.7573 140.813 22.944 140.795 23.112C140.795 23.28 140.785 23.4107 140.767 23.504H129.735C129.884 24.9227 130.379 25.9867 131.219 26.696C132.077 27.4053 133.048 27.76 134.131 27.76C135.101 27.76 135.904 27.5453 136.539 27.116C137.173 26.668 137.677 26.1173 138.051 25.464L140.543 26.668C139.927 27.788 139.087 28.7027 138.023 29.412C136.959 30.1027 135.633 30.448 134.047 30.448ZM133.907 17.848C132.899 17.848 132.04 18.156 131.331 18.772C130.621 19.388 130.145 20.2093 129.903 21.236H137.827C137.789 20.7507 137.631 20.2467 137.351 19.724C137.071 19.2013 136.641 18.7627 136.063 18.408C135.503 18.0347 134.784 17.848 133.907 17.848ZM143.063 30V27.48L151.015 18.352H143.315V15.72H154.711V18.24L146.787 27.368H154.935V30H143.063Z" fill="#3C4043"/>
<g id="GPay Logo (Light)">
<g id="GPay">
<g id="Pay">
<path id="Fill 1" fill-rule="evenodd" clip-rule="evenodd" d="M206.529 9.44664V17.6128H211.565C212.765 17.6128 213.757 17.2096 214.541 16.4032C215.347 15.5988 215.75 14.6394 215.75 13.5288C215.75 12.4406 215.347 11.4924 214.541 10.686C213.757 9.85915 212.765 9.44478 211.565 9.44478H206.529V9.44664ZM206.529 20.4872V29.9599H203.521V6.57217H211.499C213.527 6.57217 215.248 7.24786 216.666 8.59737C218.105 9.94688 218.824 11.5913 218.824 13.5288C218.824 15.511 218.105 17.1667 216.666 18.4938C215.27 19.8227 213.547 20.4854 211.499 20.4854H206.529V20.4872Z" fill="#5F6368"/>
<path id="Fill 3" fill-rule="evenodd" clip-rule="evenodd" d="M221.864 25.0602C221.864 25.8442 222.197 26.4975 222.862 27.0201C223.527 27.5427 224.306 27.804 225.2 27.804C226.465 27.804 227.591 27.3354 228.584 26.4004C229.576 25.4634 230.071 24.364 230.071 23.1022C229.133 22.3612 227.825 21.9916 226.147 21.9916C224.925 21.9916 223.907 22.2865 223.09 22.8745C222.273 23.4623 221.864 24.1886 221.864 25.0602ZM225.756 13.4317C227.98 13.4317 229.735 14.0252 231.022 15.2124C232.308 16.3995 232.95 18.0271 232.95 20.0952V29.9599H230.073V27.7387H229.942C228.699 29.5677 227.042 30.4825 224.972 30.4825C223.206 30.4825 221.728 29.9599 220.541 28.9146C219.353 27.8694 218.759 26.5628 218.759 24.9949C218.759 23.3393 219.385 22.0232 220.638 21.0434C221.892 20.0635 223.565 19.5726 225.658 19.5726C227.444 19.5726 228.916 19.8992 230.071 20.5525V19.8656C230.071 18.8204 229.656 17.9338 228.829 17.204C227.999 16.4741 227.031 16.1102 225.919 16.1102C224.239 16.1102 222.911 16.8176 221.93 18.2343L219.28 16.5675C220.741 14.4769 222.899 13.4317 225.756 13.4317Z" fill="#5F6368"/>
<path id="Fill 5" fill-rule="evenodd" clip-rule="evenodd" d="M249.463 13.9543L239.424 37.0154H236.318L240.046 28.9464L233.44 13.9543H236.71L241.484 25.4522H241.55L246.193 13.9543H249.463Z" fill="#5F6368"/>
</g>
<g id="G">
<path id="Fill 8" fill-rule="evenodd" clip-rule="evenodd" d="M194.373 18.4452C194.373 17.4989 194.293 16.5861 194.141 15.7126H181.454V20.8885H188.72C188.408 22.5757 187.465 24.0112 186.033 24.9725V28.3341H190.37C192.91 25.9935 194.373 22.5348 194.373 18.4452Z" fill="#4285F4"/>
<path id="Fill 10" fill-rule="evenodd" clip-rule="evenodd" d="M181.454 31.5782C185.084 31.5782 188.141 30.3873 190.37 28.3341L186.033 24.9725C184.826 25.7844 183.272 26.2585 181.454 26.2585C177.944 26.2585 174.966 23.8955 173.901 20.7112H169.433V24.1736C171.647 28.5637 176.197 31.5782 181.454 31.5782Z" fill="#34A853"/>
<path id="Fill 12" fill-rule="evenodd" clip-rule="evenodd" d="M173.901 20.7111C173.628 19.8992 173.479 19.0331 173.479 18.139C173.479 17.245 173.628 16.3789 173.901 15.567V12.1045H169.433C168.518 13.9188 168 15.9683 168 18.139C168 20.3098 168.518 22.3595 169.433 24.1736L173.901 20.7111Z" fill="#FABB05"/>
<path id="Fill 14" fill-rule="evenodd" clip-rule="evenodd" d="M181.454 10.0196C183.436 10.0196 185.213 10.7009 186.615 12.0355V12.0374L190.455 8.20162C188.123 6.03271 185.082 4.7 181.454 4.7C176.197 4.7 171.647 7.71446 169.433 12.1046L173.901 15.567C174.966 12.3827 177.944 10.0196 181.454 10.0196Z" fill="#E94235"/>
</g>
</g>
</g>
</g>
</svg>
