<svg width="158" height="21" viewBox="0 0 158 21" fill="none" xmlns="http://www.w3.org/2000/svg">
<g id="sk_subscribe_with_Pay_NBG">
<path id="Left Text" d="M6.83412 15.2566C5.98079 15.2566 5.19146 15.1019 4.46612 14.7926C3.75146 14.4833 3.12746 14.0566 2.59412 13.5126C2.06079 12.9579 1.64479 12.3233 1.34612 11.6086C1.04746 10.8833 0.898124 10.1046 0.898124 9.27261C0.898124 8.44061 1.04746 7.66728 1.34612 6.95261C1.64479 6.22728 2.06079 5.59261 2.59412 5.04861C3.12746 4.49394 3.75146 4.06194 4.46612 3.75261C5.19146 3.44328 5.98079 3.28861 6.83412 3.28861C7.68746 3.28861 8.47146 3.44328 9.18612 3.75261C9.90079 4.06194 10.5248 4.49394 11.0581 5.04861C11.6021 5.59261 12.0181 6.22728 12.3061 6.95261C12.6048 7.66728 12.7541 8.44061 12.7541 9.27261C12.7541 10.1046 12.6048 10.8833 12.3061 11.6086C12.0181 12.3233 11.6021 12.9579 11.0581 13.5126C10.5248 14.0566 9.90079 14.4833 9.18612 14.7926C8.47146 15.1019 7.68746 15.2566 6.83412 15.2566ZM6.83412 13.5926C7.61279 13.5926 8.31146 13.4113 8.93012 13.0486C9.55946 12.6859 10.0608 12.1793 10.4341 11.5286C10.8075 10.8779 10.9941 10.1259 10.9941 9.27261C10.9941 8.40861 10.8075 7.65661 10.4341 7.01661C10.0608 6.36594 9.55946 5.85928 8.93012 5.49661C8.31146 5.13394 7.61279 4.95261 6.83412 4.95261C6.06612 4.95261 5.36746 5.13394 4.73812 5.49661C4.10879 5.85928 3.60746 6.36594 3.23412 7.01661C2.86079 7.65661 2.67412 8.40861 2.67412 9.27261C2.67412 10.1259 2.86079 10.8779 3.23412 11.5286C3.60746 12.1793 4.10879 12.6859 4.73812 13.0486C5.36746 13.4113 6.06612 13.5926 6.83412 13.5926ZM17.9804 15.2566C17.2444 15.2566 16.5777 15.0699 15.9804 14.6966C15.383 14.3233 14.9137 13.8113 14.5724 13.1606C14.231 12.5099 14.0604 11.7633 14.0604 10.9206C14.0604 10.0779 14.231 9.33128 14.5724 8.68061C14.9137 8.02994 15.383 7.51794 15.9804 7.14461C16.5777 6.77128 17.2444 6.58461 17.9804 6.58461C18.407 6.58461 18.791 6.64861 19.1324 6.77661C19.4737 6.90461 19.767 7.07528 20.0124 7.28861C20.2684 7.49128 20.4657 7.70994 20.6044 7.94461H20.7004L20.6044 6.80861V3.54461H22.3164V15.0006H20.7004V13.9126H20.6044C20.4657 14.1366 20.2684 14.3553 20.0124 14.5686C19.767 14.7713 19.4737 14.9366 19.1324 15.0646C18.791 15.1926 18.407 15.2566 17.9804 15.2566ZM18.2364 13.6726C18.663 13.6726 19.063 13.5606 19.4364 13.3366C19.8204 13.1126 20.1244 12.7979 20.3484 12.3926C20.583 11.9766 20.7004 11.4859 20.7004 10.9206C20.7004 10.3553 20.583 9.86994 20.3484 9.46461C20.1244 9.04861 19.8204 8.72861 19.4364 8.50461C19.063 8.28061 18.663 8.16861 18.2364 8.16861C17.8097 8.16861 17.4097 8.28061 17.0364 8.50461C16.663 8.72861 16.359 9.04861 16.1244 9.46461C15.8897 9.86994 15.7724 10.3553 15.7724 10.9206C15.7724 11.4753 15.8897 11.9606 16.1244 12.3766C16.359 12.7926 16.663 13.1126 17.0364 13.3366C17.4097 13.5606 17.8097 13.6726 18.2364 13.6726ZM28.2636 15.2566C27.421 15.2566 26.6796 15.0646 26.0396 14.6806C25.3996 14.2966 24.8983 13.7793 24.5356 13.1286C24.173 12.4673 23.9916 11.7313 23.9916 10.9206C23.9916 10.1099 24.173 9.37928 24.5356 8.72861C24.8983 8.06728 25.3996 7.54461 26.0396 7.16061C26.6796 6.77661 27.421 6.58461 28.2636 6.58461C29.0956 6.58461 29.8316 6.78194 30.4716 7.17661C31.1116 7.56061 31.613 8.07794 31.9756 8.72861C32.3383 9.37928 32.5196 10.1099 32.5196 10.9206C32.5196 11.7313 32.3383 12.4673 31.9756 13.1286C31.613 13.7793 31.1116 14.2966 30.4716 14.6806C29.8316 15.0646 29.0956 15.2566 28.2636 15.2566ZM28.2636 13.6726C28.7116 13.6726 29.1276 13.5659 29.5116 13.3526C29.8956 13.1286 30.205 12.8139 30.4396 12.4086C30.685 11.9926 30.8076 11.4966 30.8076 10.9206C30.8076 10.3446 30.685 9.85394 30.4396 9.44861C30.205 9.03261 29.8956 8.71794 29.5116 8.50461C29.1276 8.28061 28.7116 8.16861 28.2636 8.16861C27.8156 8.16861 27.3943 8.28061 26.9996 8.50461C26.6156 8.71794 26.301 9.03261 26.0556 9.44861C25.821 9.85394 25.7036 10.3446 25.7036 10.9206C25.7036 11.4966 25.821 11.9926 26.0556 12.4086C26.301 12.8139 26.621 13.1286 27.0156 13.3526C27.4103 13.5659 27.8263 13.6726 28.2636 13.6726ZM38.535 15.2566C38.119 15.2566 37.7403 15.1926 37.399 15.0646C37.0577 14.9366 36.759 14.7713 36.503 14.5686C36.2577 14.3553 36.0603 14.1366 35.911 13.9126H35.815V15.0006H34.183V3.54461H35.911V6.80861L35.815 7.94461H35.911C36.0603 7.70994 36.2577 7.49128 36.503 7.28861C36.759 7.07528 37.0577 6.90461 37.399 6.77661C37.7403 6.64861 38.119 6.58461 38.535 6.58461C39.2817 6.58461 39.9483 6.77128 40.535 7.14461C41.1217 7.51794 41.5857 8.02994 41.927 8.68061C42.279 9.33128 42.455 10.0779 42.455 10.9206C42.455 11.7633 42.279 12.5099 41.927 13.1606C41.5857 13.8113 41.1217 14.3233 40.535 14.6966C39.9483 15.0699 39.2817 15.2566 38.535 15.2566ZM38.279 13.6726C38.7057 13.6726 39.1057 13.5606 39.479 13.3366C39.863 13.1126 40.167 12.7926 40.391 12.3766C40.6257 11.9606 40.743 11.4753 40.743 10.9206C40.743 10.3553 40.6257 9.86994 40.391 9.46461C40.167 9.04861 39.863 8.72861 39.479 8.50461C39.1057 8.28061 38.7057 8.16861 38.279 8.16861C37.8523 8.16861 37.4523 8.28061 37.079 8.50461C36.7057 8.72861 36.4017 9.04861 36.167 9.46461C35.9323 9.86994 35.815 10.3553 35.815 10.9206C35.815 11.4859 35.9323 11.9766 36.167 12.3926C36.4017 12.7979 36.7057 13.1126 37.079 13.3366C37.4523 13.5606 37.8523 13.6726 38.279 13.6726ZM47.9204 15.2566C47.1204 15.2566 46.4057 15.0699 45.7764 14.6966C45.147 14.3233 44.651 13.8113 44.2884 13.1606C43.9364 12.5099 43.7604 11.7686 43.7604 10.9366C43.7604 10.1579 43.931 9.43794 44.2724 8.77661C44.6137 8.11528 45.0884 7.58728 45.6964 7.19261C46.315 6.78728 47.0244 6.58461 47.8244 6.58461C48.667 6.58461 49.3817 6.76594 49.9684 7.12861C50.5657 7.49128 51.019 7.98728 51.3284 8.61661C51.6377 9.24594 51.7924 9.95528 51.7924 10.7446C51.7924 10.8619 51.787 10.9686 51.7764 11.0646C51.7764 11.1606 51.771 11.2353 51.7604 11.2886H45.4564C45.499 11.7366 45.611 12.1259 45.7924 12.4566C46.027 12.8726 46.3364 13.1873 46.7204 13.4006C47.1044 13.6139 47.5204 13.7206 47.9684 13.7206C48.5124 13.7206 48.9657 13.5979 49.3284 13.3526C49.7017 13.0966 49.995 12.7819 50.2084 12.4086L51.6324 13.0966C51.2804 13.7366 50.8004 14.2593 50.1924 14.6646C49.5844 15.0593 48.827 15.2566 47.9204 15.2566ZM45.5524 9.99261H50.0804C50.0697 9.78994 50.0164 9.57661 49.9204 9.35261C49.8244 9.11794 49.6857 8.90461 49.5044 8.71261C49.323 8.52061 49.0937 8.36594 48.8164 8.24861C48.539 8.12061 48.2137 8.05661 47.8404 8.05661C47.371 8.05661 46.955 8.17928 46.5924 8.42461C46.2297 8.65928 45.947 8.98994 45.7444 9.41661C45.659 9.59794 45.595 9.78994 45.5524 9.99261ZM53.5455 15.0006V6.84061H55.1775V8.04061H55.2735C55.4015 7.76328 55.5828 7.51794 55.8175 7.30461C56.0628 7.09128 56.3402 6.92061 56.6495 6.79261C56.9695 6.66461 57.3002 6.60061 57.6415 6.60061C57.8655 6.60061 58.0522 6.61661 58.2015 6.64861C58.3615 6.66994 58.5055 6.70728 58.6335 6.76061V8.55261C58.4308 8.46728 58.2228 8.39794 58.0095 8.34461C57.8068 8.29128 57.5935 8.26461 57.3695 8.26461C56.9642 8.26461 56.6015 8.37661 56.2815 8.60061C55.9722 8.81394 55.7268 9.10194 55.5455 9.46461C55.3642 9.82728 55.2735 10.2326 55.2735 10.6806V15.0006H53.5455ZM62.3961 15.2566C61.8095 15.2566 61.2868 15.1393 60.8281 14.9046C60.3801 14.6699 60.0228 14.3499 59.7561 13.9446C59.5001 13.5286 59.3721 13.0539 59.3721 12.5206C59.3721 11.9339 59.5215 11.4379 59.8201 11.0326C60.1295 10.6273 60.5401 10.3179 61.0521 10.1046C61.5641 9.89128 62.1295 9.78461 62.7481 9.78461C63.0895 9.78461 63.4041 9.81128 63.6921 9.86461C63.9908 9.90728 64.2468 9.96061 64.4601 10.0246C64.6841 10.0886 64.8601 10.1579 64.9881 10.2326V9.80061C64.9881 9.26728 64.7961 8.84061 64.4121 8.52061C64.0281 8.20061 63.5321 8.04061 62.9241 8.04061C62.5081 8.04061 62.1135 8.13661 61.7401 8.32861C61.3668 8.50994 61.0681 8.76061 60.8441 9.08061L59.6601 8.16861C59.8948 7.83794 60.1775 7.55528 60.5081 7.32061C60.8495 7.08594 61.2281 6.90461 61.6441 6.77661C62.0708 6.64861 62.5135 6.58461 62.9721 6.58461C64.1561 6.58461 65.0681 6.87794 65.7081 7.46461C66.3481 8.04061 66.6681 8.85128 66.6681 9.89661V15.0006H64.9881V13.9926H64.8921C64.7535 14.2059 64.5615 14.4086 64.3161 14.6006C64.0815 14.7926 63.7988 14.9473 63.4681 15.0646C63.1481 15.1926 62.7908 15.2566 62.3961 15.2566ZM62.7001 13.8486C63.1481 13.8486 63.5428 13.7419 63.8841 13.5286C64.2361 13.3153 64.5081 13.0379 64.7001 12.6966C64.8921 12.3446 64.9881 11.9659 64.9881 11.5606C64.7535 11.4219 64.4655 11.3099 64.1241 11.2246C63.7935 11.1286 63.4415 11.0806 63.0681 11.0806C62.3641 11.0806 61.8628 11.2193 61.5641 11.4966C61.2655 11.7739 61.1161 12.1206 61.1161 12.5366C61.1161 12.9206 61.2601 13.2353 61.5481 13.4806C61.8361 13.7259 62.2201 13.8486 62.7001 13.8486ZM68.0043 6.84061H69.4283V4.53661H71.1563V6.84061H73.1563V8.34461H71.1563V12.2646C71.1563 12.6699 71.2363 12.9793 71.3963 13.1926C71.5669 13.4059 71.8496 13.5126 72.2443 13.5126C72.4363 13.5126 72.6069 13.4859 72.7563 13.4326C72.9056 13.3686 73.0549 13.2939 73.2043 13.2086V14.8886C73.0229 14.9633 72.8309 15.0219 72.6283 15.0646C72.4256 15.1073 72.1856 15.1286 71.9083 15.1286C71.1509 15.1286 70.5483 14.9099 70.1003 14.4726C69.6523 14.0246 69.4283 13.4113 69.4283 12.6326V8.34461H68.0043V6.84061ZM72.0523 5.89661V3.54461H73.6683L73.2683 5.89661H72.0523ZM82.5152 15.2566C81.6939 15.2566 80.9632 15.0699 80.3232 14.6966C79.6939 14.3233 79.1979 13.8113 78.8352 13.1606C78.4832 12.4993 78.3072 11.7526 78.3072 10.9206C78.3072 10.0886 78.4832 9.34728 78.8352 8.69661C79.1979 8.04594 79.6939 7.53394 80.3232 7.16061C80.9632 6.77661 81.6939 6.58461 82.5152 6.58461C83.4219 6.58461 84.1846 6.78728 84.8032 7.19261C85.4326 7.59794 85.8806 8.14728 86.1472 8.84061L84.5792 9.48061C84.3872 9.04328 84.1099 8.71794 83.7472 8.50461C83.3952 8.28061 82.9739 8.16861 82.4832 8.16861C82.0352 8.16861 81.6246 8.28594 81.2512 8.52061C80.8779 8.74461 80.5792 9.05928 80.3552 9.46461C80.1312 9.86994 80.0192 10.3553 80.0192 10.9206C80.0192 11.4753 80.1312 11.9606 80.3552 12.3766C80.5792 12.7926 80.8779 13.1126 81.2512 13.3366C81.6246 13.5606 82.0352 13.6726 82.4832 13.6726C83.0059 13.6726 83.4486 13.5553 83.8112 13.3206C84.1739 13.0859 84.4566 12.7553 84.6592 12.3286L86.1952 13.0006C85.8966 13.6513 85.4326 14.1899 84.8032 14.6166C84.1846 15.0433 83.4219 15.2566 82.5152 15.2566ZM91.4766 15.2566C90.6766 15.2566 89.962 15.0699 89.3326 14.6966C88.7033 14.3233 88.2073 13.8113 87.8446 13.1606C87.4926 12.5099 87.3166 11.7686 87.3166 10.9366C87.3166 10.1579 87.4873 9.43794 87.8286 8.77661C88.17 8.11528 88.6446 7.58728 89.2526 7.19261C89.8713 6.78728 90.5806 6.58461 91.3806 6.58461C92.2233 6.58461 92.938 6.76594 93.5246 7.12861C94.122 7.49128 94.5753 7.98728 94.8846 8.61661C95.194 9.24594 95.3486 9.95528 95.3486 10.7446C95.3486 10.8619 95.3433 10.9686 95.3326 11.0646C95.3326 11.1606 95.3273 11.2353 95.3166 11.2886H89.0126C89.0553 11.7366 89.1673 12.1259 89.3486 12.4566C89.5833 12.8726 89.8926 13.1873 90.2766 13.4006C90.6606 13.6139 91.0766 13.7206 91.5246 13.7206C92.0686 13.7206 92.522 13.5979 92.8846 13.3526C93.258 13.0966 93.5513 12.7819 93.7646 12.4086L95.1886 13.0966C94.8366 13.7366 94.3566 14.2593 93.7486 14.6646C93.1406 15.0593 92.3833 15.2566 91.4766 15.2566ZM89.1086 9.99261H93.6366C93.626 9.78994 93.5726 9.57661 93.4766 9.35261C93.3806 9.11794 93.242 8.90461 93.0606 8.71261C92.8793 8.52061 92.65 8.36594 92.3726 8.24861C92.0953 8.12061 91.77 8.05661 91.3966 8.05661C90.9273 8.05661 90.5113 8.17928 90.1486 8.42461C89.786 8.65928 89.5033 8.98994 89.3006 9.41661C89.2153 9.59794 89.1513 9.78994 89.1086 9.99261ZM96.6076 15.0006V13.5606L101.152 8.34461H96.7516V6.84061H103.264V8.28061L98.7356 13.4966H103.392V15.0006H96.6076Z" fill="white"/>
<g id="GPay (Dark)">
<g id="GPay">
<g id="Pay">
<path id="Fill 1" fill-rule="evenodd" clip-rule="evenodd" d="M132.356 3.42339V8.16175H135.278C135.974 8.16175 136.55 7.92781 137.005 7.45993C137.473 6.99313 137.707 6.43644 137.707 5.79203C137.707 5.16061 137.473 4.61041 137.005 4.14254C136.55 3.66274 135.974 3.4223 135.278 3.4223H132.356V3.42339ZM132.356 9.82966V15.3262H130.611V1.75549H135.24C136.417 1.75549 137.415 2.14756 138.238 2.93061C139.073 3.71365 139.491 4.66782 139.491 5.79203C139.491 6.94224 139.073 7.90291 138.238 8.67296C137.428 9.44409 136.429 9.82858 135.24 9.82858H132.356V9.82966Z" fill="white"/>
<path id="Fill 3" fill-rule="evenodd" clip-rule="evenodd" d="M141.255 12.4831C141.255 12.9379 141.448 13.317 141.834 13.6203C142.22 13.9235 142.672 14.0752 143.19 14.0752C143.924 14.0752 144.578 13.8032 145.153 13.2607C145.729 12.717 146.017 12.0791 146.017 11.3469C145.472 10.917 144.713 10.7025 143.74 10.7025C143.031 10.7025 142.44 10.8736 141.966 11.2148C141.492 11.5559 141.255 11.9773 141.255 12.4831M143.513 5.73566C144.803 5.73566 145.821 6.08007 146.569 6.76889C147.314 7.45771 147.687 8.40213 147.687 9.60216V15.3261H146.018V14.0373H145.942C145.221 15.0985 144.259 15.6294 143.058 15.6294C142.033 15.6294 141.176 15.3261 140.487 14.7196C139.797 14.1131 139.453 13.3549 139.453 12.4452C139.453 11.4845 139.816 10.7208 140.543 10.1523C141.271 9.58375 142.241 9.2989 143.456 9.2989C144.492 9.2989 145.346 9.48844 146.017 9.86751V9.46894C146.017 8.86243 145.776 8.34798 145.296 7.92451C144.814 7.50103 144.252 7.28984 143.607 7.28984C142.633 7.28984 141.862 7.70032 141.293 8.52235L139.755 7.55519C140.603 6.34217 141.855 5.73566 143.513 5.73566" fill="white"/>
<path id="Fill 5" fill-rule="evenodd" clip-rule="evenodd" d="M157.269 6.03894L151.443 19.4201H149.641L151.804 14.738L147.971 6.03894H149.869L152.639 12.7106H152.677L155.371 6.03894H157.269Z" fill="white"/>
</g>
<g id="G">
<path id="Fill 8" fill-rule="evenodd" clip-rule="evenodd" d="M125.303 8.64473C125.303 8.09563 125.256 7.56601 125.168 7.05914H117.806V10.0625H122.023C121.842 11.0414 121.294 11.8744 120.464 12.4322V14.3828H122.98C124.454 13.0246 125.303 11.0177 125.303 8.64473" fill="#4285F4"/>
<path id="Fill 10" fill-rule="evenodd" clip-rule="evenodd" d="M117.806 16.2651C119.913 16.2651 121.687 15.5741 122.98 14.3828L120.464 12.4322C119.763 12.9033 118.861 13.1784 117.806 13.1784C115.77 13.1784 114.042 11.8073 113.424 9.95959H110.832V11.9687C112.116 14.516 114.757 16.2651 117.806 16.2651" fill="#34A853"/>
<path id="Fill 12" fill-rule="evenodd" clip-rule="evenodd" d="M113.424 9.9596C113.266 9.48847 113.179 8.98593 113.179 8.46715C113.179 7.94837 113.266 7.44583 113.424 6.9747V4.96564H110.832C110.3 6.01837 110 7.20756 110 8.46715C110 9.72674 110.3 10.916 110.832 11.9687L113.424 9.9596Z" fill="#FABB05"/>
<path id="Fill 14" fill-rule="evenodd" clip-rule="evenodd" d="M117.806 3.75583C118.957 3.75583 119.988 4.15115 120.801 4.92553V4.92661L123.029 2.70094C121.676 1.44243 119.912 0.669128 117.806 0.669128C114.757 0.669128 112.116 2.41826 110.832 4.9656L113.424 6.97467C114.042 5.12698 115.77 3.75583 117.806 3.75583" fill="#E94235"/>
</g>
</g>
</g>
</g>
</svg>
