<svg width="278" height="38" viewBox="0 0 278 38" fill="none" xmlns="http://www.w3.org/2000/svg">
<g id="sk_subscribe_with_Light">
<path id="Text" d="M13.5472 30.448C12.0539 30.448 10.6725 30.1773 9.40322 29.636C8.15255 29.0947 7.06055 28.348 6.12722 27.396C5.19388 26.444 4.46588 25.3333 3.94322 24.064C3.42055 22.7947 3.15922 21.432 3.15922 19.976C3.15922 18.52 3.42055 17.1573 3.94322 15.888C4.46588 14.6187 5.19388 13.508 6.12722 12.556C7.06055 11.604 8.15255 10.8573 9.40322 10.316C10.6725 9.77467 12.0539 9.504 13.5472 9.504C15.0219 9.504 16.3846 9.77467 17.6352 10.316C18.9046 10.8573 20.0059 11.604 20.9392 12.556C21.8912 13.508 22.6192 14.6187 23.1232 15.888C23.6459 17.1573 23.9072 18.52 23.9072 19.976C23.9072 21.432 23.6459 22.7947 23.1232 24.064C22.6192 25.3333 21.8912 26.444 20.9392 27.396C20.0059 28.348 18.9046 29.0947 17.6352 29.636C16.3846 30.1773 15.0219 30.448 13.5472 30.448ZM13.5472 27.536C14.8912 27.536 16.1139 27.2187 17.2152 26.584C18.3165 25.9493 19.1939 25.0627 19.8472 23.924C20.5006 22.7853 20.8272 21.4693 20.8272 19.976C20.8272 18.4827 20.5006 17.1667 19.8472 16.028C19.1939 14.8893 18.3165 14.0027 17.2152 13.368C16.1139 12.7333 14.8912 12.416 13.5472 12.416C12.2032 12.416 10.9805 12.7333 9.87922 13.368C8.77788 14.0027 7.90055 14.8893 7.24722 16.028C6.59388 17.1667 6.26722 18.4827 6.26722 19.976C6.26722 21.4693 6.59388 22.7853 7.24722 23.924C7.90055 25.0627 8.77788 25.9493 9.87922 26.584C10.9805 27.2187 12.2032 27.536 13.5472 27.536ZM33.0907 30.448C31.8027 30.448 30.636 30.1307 29.5907 29.496C28.564 28.8427 27.7427 27.9467 27.1267 26.808C26.5293 25.6507 26.2307 24.3347 26.2307 22.86C26.2307 21.3853 26.5293 20.0787 27.1267 18.94C27.7427 17.8013 28.564 16.9053 29.5907 16.252C30.636 15.5987 31.8027 15.272 33.0907 15.272C34.192 15.272 35.1347 15.5147 35.9187 16C36.7213 16.4853 37.3093 17.036 37.6827 17.652H37.8507L37.6827 15.664V9.952H40.6787V30H37.8507V28.096H37.6827C37.3093 28.712 36.7213 29.2627 35.9187 29.748C35.1347 30.2147 34.192 30.448 33.0907 30.448ZM33.5387 27.676C34.2853 27.676 34.9853 27.48 35.6387 27.088C36.3107 26.696 36.8427 26.1453 37.2347 25.436C37.6453 24.708 37.8507 23.8493 37.8507 22.86C37.8507 21.8707 37.6453 21.0213 37.2347 20.312C36.8427 19.584 36.3107 19.024 35.6387 18.632C34.9853 18.24 34.2853 18.044 33.5387 18.044C32.792 18.044 32.092 18.24 31.4387 18.632C30.7853 19.024 30.2533 19.584 29.8427 20.312C29.432 21.0213 29.2267 21.8707 29.2267 22.86C29.2267 23.8493 29.432 24.708 29.8427 25.436C30.2533 26.1453 30.7853 26.696 31.4387 27.088C32.092 27.48 32.792 27.676 33.5387 27.676ZM51.1238 30.448C49.6492 30.448 48.3518 30.112 47.2318 29.44C46.1118 28.768 45.2345 27.8627 44.5998 26.724C43.9652 25.5853 43.6478 24.2973 43.6478 22.86C43.6478 21.4413 43.9652 20.1627 44.5998 19.024C45.2345 17.8667 46.1118 16.952 47.2318 16.28C48.3518 15.608 49.6492 15.272 51.1238 15.272C52.5798 15.272 53.8678 15.608 54.9878 16.28C56.1078 16.952 56.9852 17.8667 57.6198 19.024C58.2545 20.1627 58.5718 21.4413 58.5718 22.86C58.5718 24.2973 58.2545 25.5853 57.6198 26.724C56.9852 27.8627 56.1078 28.768 54.9878 29.44C53.8678 30.112 52.5798 30.448 51.1238 30.448ZM51.1238 27.676C51.9078 27.676 52.6358 27.4893 53.3078 27.116C53.9798 26.724 54.5212 26.1733 54.9318 25.464C55.3612 24.736 55.5758 23.868 55.5758 22.86C55.5758 21.852 55.3612 20.9933 54.9318 20.284C54.5212 19.556 53.9798 19.0053 53.3078 18.632C52.6358 18.24 51.9078 18.044 51.1238 18.044C50.3398 18.044 49.6025 18.24 48.9118 18.632C48.2398 19.0053 47.6892 19.556 47.2598 20.284C46.8492 20.9933 46.6438 21.852 46.6438 22.86C46.6438 23.868 46.8492 24.736 47.2598 25.464C47.6892 26.1733 48.2398 26.724 48.9118 27.116C49.6025 27.4893 50.3398 27.676 51.1238 27.676ZM69.1362 30.448C68.0349 30.448 67.0829 30.2147 66.2802 29.748C65.4962 29.2627 64.9176 28.712 64.5442 28.096H64.3762V30H61.5202V9.952H64.5442V15.664L64.3762 17.652H64.5442C64.9176 17.036 65.4962 16.4853 66.2802 16C67.0829 15.5147 68.0349 15.272 69.1362 15.272C70.4429 15.272 71.6096 15.5987 72.6362 16.252C73.6629 16.9053 74.4749 17.8013 75.0722 18.94C75.6882 20.0787 75.9962 21.3853 75.9962 22.86C75.9962 24.3347 75.6882 25.6507 75.0722 26.808C74.4749 27.9467 73.6629 28.8427 72.6362 29.496C71.6096 30.1307 70.4429 30.448 69.1362 30.448ZM68.6882 27.676C69.4349 27.676 70.1349 27.48 70.7882 27.088C71.4416 26.696 71.9736 26.1453 72.3842 25.436C72.7949 24.708 73.0002 23.8493 73.0002 22.86C73.0002 21.8707 72.7949 21.0213 72.3842 20.312C71.9736 19.584 71.4416 19.024 70.7882 18.632C70.1349 18.24 69.4349 18.044 68.6882 18.044C67.9416 18.044 67.2416 18.24 66.5882 18.632C65.9349 19.024 65.4029 19.584 64.9922 20.312C64.5816 21.0213 64.3762 21.8707 64.3762 22.86C64.3762 23.8493 64.5816 24.708 64.9922 25.436C65.4029 26.1453 65.9349 26.696 66.5882 27.088C67.2416 27.48 67.9416 27.676 68.6882 27.676ZM85.5982 30.448C84.1982 30.448 82.9475 30.1213 81.8462 29.468C80.7448 28.8147 79.8768 27.9187 79.2422 26.78C78.6262 25.6413 78.3182 24.344 78.3182 22.888C78.3182 21.5253 78.6168 20.2653 79.2142 19.108C79.8115 17.9507 80.6422 17.0267 81.7062 16.336C82.7888 15.6267 84.0302 15.272 85.4302 15.272C86.9048 15.272 88.1555 15.5893 89.1822 16.224C90.2275 16.8587 91.0208 17.7267 91.5622 18.828C92.1035 19.9293 92.3742 21.1707 92.3742 22.552C92.3742 22.7573 92.3648 22.944 92.3462 23.112C92.3462 23.28 92.3368 23.4107 92.3182 23.504H81.2862C81.4355 24.9227 81.9302 25.9867 82.7702 26.696C83.6288 27.4053 84.5995 27.76 85.6822 27.76C86.6528 27.76 87.4555 27.5453 88.0902 27.116C88.7248 26.668 89.2288 26.1173 89.6022 25.464L92.0942 26.668C91.4782 27.788 90.6382 28.7027 89.5742 29.412C88.5102 30.1027 87.1848 30.448 85.5982 30.448ZM85.4582 17.848C84.4502 17.848 83.5915 18.156 82.8822 18.772C82.1728 19.388 81.6968 20.2093 81.4542 21.236H89.3782C89.3408 20.7507 89.1822 20.2467 88.9022 19.724C88.6222 19.2013 88.1928 18.7627 87.6142 18.408C87.0542 18.0347 86.3355 17.848 85.4582 17.848ZM95.4796 30V15.72H98.3356V17.82H98.5036C98.821 17.092 99.3623 16.4947 100.128 16.028C100.912 15.5427 101.752 15.3 102.648 15.3C103.04 15.3 103.366 15.328 103.628 15.384C103.908 15.44 104.16 15.5053 104.384 15.58V18.716C104.029 18.5667 103.665 18.4453 103.292 18.352C102.937 18.2587 102.564 18.212 102.172 18.212C101.462 18.212 100.828 18.408 100.268 18.8C99.7263 19.1733 99.297 19.6867 98.9796 20.34C98.6623 20.9747 98.5036 21.6747 98.5036 22.44V30H95.4796ZM111.006 30.448C109.979 30.448 109.064 30.252 108.262 29.86C107.459 29.4493 106.834 28.88 106.386 28.152C105.938 27.424 105.714 26.5933 105.714 25.66C105.714 24.652 105.975 23.7933 106.498 23.084C107.039 22.356 107.758 21.8053 108.654 21.432C109.55 21.0587 110.539 20.872 111.622 20.872C112.518 20.872 113.302 20.956 113.974 21.124C114.664 21.292 115.187 21.4693 115.542 21.656V20.9C115.542 19.9667 115.206 19.22 114.534 18.66C113.862 18.1 112.994 17.82 111.93 17.82C111.202 17.82 110.511 17.988 109.858 18.324C109.204 18.6413 108.682 19.08 108.29 19.64L106.218 18.044C106.834 17.1853 107.646 16.5133 108.654 16.028C109.68 15.524 110.8 15.272 112.014 15.272C114.086 15.272 115.682 15.7853 116.802 16.812C117.922 17.82 118.482 19.2387 118.482 21.068V30H115.542V28.236H115.374C115 28.8147 114.44 29.328 113.694 29.776C112.947 30.224 112.051 30.448 111.006 30.448ZM111.538 27.984C112.322 27.984 113.012 27.7973 113.61 27.424C114.207 27.0507 114.674 26.5653 115.01 25.968C115.364 25.352 115.542 24.6893 115.542 23.98C115.112 23.7373 114.608 23.5413 114.03 23.392C113.451 23.224 112.835 23.14 112.182 23.14C110.95 23.14 110.072 23.392 109.55 23.896C109.027 24.3813 108.766 24.9787 108.766 25.688C108.766 26.36 109.018 26.9107 109.522 27.34C110.026 27.7693 110.698 27.984 111.538 27.984ZM123.349 25.856V18.352H120.857V15.72H123.349V11.688H126.373V15.72H129.873V18.352H126.373V25.212C126.373 25.9213 126.513 26.4627 126.793 26.836C127.092 27.2093 127.587 27.396 128.277 27.396C128.632 27.396 128.931 27.3493 129.173 27.256C129.435 27.1627 129.696 27.032 129.957 26.864V29.804C129.64 29.9347 129.304 30.0373 128.949 30.112C128.595 30.1867 128.175 30.224 127.689 30.224C126.364 30.224 125.309 29.8413 124.525 29.076C123.741 28.292 123.349 27.2187 123.349 25.856ZM127.941 14.068V9.952H130.769L130.069 14.068H127.941ZM146.327 30.448C144.889 30.448 143.62 30.1213 142.519 29.468C141.417 28.8147 140.549 27.9187 139.915 26.78C139.28 25.6227 138.963 24.316 138.963 22.86C138.963 21.404 139.28 20.1067 139.915 18.968C140.549 17.8107 141.417 16.9053 142.519 16.252C143.62 15.5987 144.889 15.272 146.327 15.272C147.913 15.272 149.248 15.6267 150.331 16.336C151.432 17.0453 152.216 18.0067 152.683 19.22L149.939 20.34C149.285 18.8093 148.063 18.044 146.271 18.044C145.487 18.044 144.768 18.2493 144.115 18.66C143.461 19.052 142.939 19.612 142.547 20.34C142.155 21.0493 141.959 21.8893 141.959 22.86C141.959 23.8307 142.155 24.68 142.547 25.408C142.939 26.136 143.461 26.696 144.115 27.088C144.768 27.48 145.487 27.676 146.271 27.676C147.185 27.676 147.96 27.4707 148.595 27.06C149.229 26.6307 149.724 26.052 150.079 25.324L152.767 26.5C152.263 27.6387 151.46 28.5813 150.359 29.328C149.257 30.0747 147.913 30.448 146.327 30.448ZM162.047 30.448C160.647 30.448 159.396 30.1213 158.295 29.468C157.193 28.8147 156.325 27.9187 155.691 26.78C155.075 25.6413 154.767 24.344 154.767 22.888C154.767 21.5253 155.065 20.2653 155.663 19.108C156.26 17.9507 157.091 17.0267 158.155 16.336C159.237 15.6267 160.479 15.272 161.879 15.272C163.353 15.272 164.604 15.5893 165.631 16.224C166.676 16.8587 167.469 17.7267 168.011 18.828C168.552 19.9293 168.823 21.1707 168.823 22.552C168.823 22.7573 168.813 22.944 168.795 23.112C168.795 23.28 168.785 23.4107 168.767 23.504H157.735C157.884 24.9227 158.379 25.9867 159.219 26.696C160.077 27.4053 161.048 27.76 162.131 27.76C163.101 27.76 163.904 27.5453 164.539 27.116C165.173 26.668 165.677 26.1173 166.051 25.464L168.543 26.668C167.927 27.788 167.087 28.7027 166.023 29.412C164.959 30.1027 163.633 30.448 162.047 30.448ZM161.907 17.848C160.899 17.848 160.04 18.156 159.331 18.772C158.621 19.388 158.145 20.2093 157.903 21.236H165.827C165.789 20.7507 165.631 20.2467 165.351 19.724C165.071 19.2013 164.641 18.7627 164.063 18.408C163.503 18.0347 162.784 17.848 161.907 17.848ZM171.063 30V27.48L179.015 18.352H171.315V15.72H182.711V18.24L174.787 27.368H182.935V30H171.063Z" fill="#3C4043"/>
<g id="GPay Logo (Light)">
<g id="GPay">
<g id="Pay">
<path id="Fill 1" fill-rule="evenodd" clip-rule="evenodd" d="M234.529 9.44664V17.6128H239.565C240.765 17.6128 241.757 17.2096 242.541 16.4032C243.347 15.5988 243.75 14.6394 243.75 13.5288C243.75 12.4406 243.347 11.4924 242.541 10.686C241.757 9.85915 240.765 9.44478 239.565 9.44478H234.529V9.44664ZM234.529 20.4872V29.9599H231.521V6.57217H239.499C241.527 6.57217 243.248 7.24786 244.666 8.59737C246.105 9.94688 246.824 11.5913 246.824 13.5288C246.824 15.511 246.105 17.1667 244.666 18.4938C243.27 19.8227 241.547 20.4854 239.499 20.4854H234.529V20.4872Z" fill="#5F6368"/>
<path id="Fill 3" fill-rule="evenodd" clip-rule="evenodd" d="M249.864 25.0602C249.864 25.8442 250.197 26.4975 250.862 27.0201C251.527 27.5427 252.306 27.804 253.2 27.804C254.465 27.804 255.591 27.3354 256.584 26.4004C257.576 25.4634 258.071 24.364 258.071 23.1022C257.133 22.3612 255.825 21.9916 254.147 21.9916C252.925 21.9916 251.907 22.2865 251.09 22.8745C250.273 23.4623 249.864 24.1886 249.864 25.0602ZM253.756 13.4317C255.98 13.4317 257.735 14.0252 259.022 15.2124C260.308 16.3995 260.95 18.0271 260.95 20.0952V29.9599H258.073V27.7387H257.942C256.699 29.5677 255.042 30.4825 252.972 30.4825C251.206 30.4825 249.728 29.9599 248.541 28.9146C247.353 27.8694 246.759 26.5628 246.759 24.9949C246.759 23.3393 247.385 22.0232 248.638 21.0434C249.892 20.0635 251.565 19.5726 253.658 19.5726C255.444 19.5726 256.916 19.8992 258.071 20.5525V19.8656C258.071 18.8204 257.656 17.9338 256.829 17.204C255.999 16.4741 255.031 16.1102 253.919 16.1102C252.239 16.1102 250.911 16.8176 249.93 18.2343L247.28 16.5675C248.741 14.4769 250.899 13.4317 253.756 13.4317Z" fill="#5F6368"/>
<path id="Fill 5" fill-rule="evenodd" clip-rule="evenodd" d="M277.463 13.9543L267.424 37.0154H264.318L268.046 28.9464L261.44 13.9543H264.71L269.484 25.4522H269.55L274.193 13.9543H277.463Z" fill="#5F6368"/>
</g>
<g id="G">
<path id="Fill 8" fill-rule="evenodd" clip-rule="evenodd" d="M222.373 18.4452C222.373 17.4989 222.293 16.5861 222.141 15.7126H209.454V20.8885H216.72C216.408 22.5757 215.465 24.0112 214.033 24.9725V28.3341H218.37C220.91 25.9935 222.373 22.5348 222.373 18.4452Z" fill="#4285F4"/>
<path id="Fill 10" fill-rule="evenodd" clip-rule="evenodd" d="M209.454 31.5782C213.084 31.5782 216.141 30.3873 218.37 28.3341L214.033 24.9725C212.826 25.7844 211.272 26.2585 209.454 26.2585C205.944 26.2585 202.966 23.8955 201.901 20.7112H197.433V24.1736C199.647 28.5637 204.197 31.5782 209.454 31.5782Z" fill="#34A853"/>
<path id="Fill 12" fill-rule="evenodd" clip-rule="evenodd" d="M201.901 20.7111C201.628 19.8992 201.479 19.0331 201.479 18.139C201.479 17.245 201.628 16.3789 201.901 15.567V12.1045H197.433C196.518 13.9188 196 15.9683 196 18.139C196 20.3098 196.518 22.3595 197.433 24.1736L201.901 20.7111Z" fill="#FABB05"/>
<path id="Fill 14" fill-rule="evenodd" clip-rule="evenodd" d="M209.454 10.0196C211.436 10.0196 213.213 10.7009 214.615 12.0355V12.0374L218.455 8.20162C216.123 6.03271 213.082 4.7 209.454 4.7C204.197 4.7 199.647 7.71446 197.433 12.1046L201.901 15.567C202.966 12.3827 205.944 10.0196 209.454 10.0196Z" fill="#E94235"/>
</g>
</g>
</g>
</g>
</svg>
