<svg width="258" height="38" viewBox="0 0 258 38" fill="none" xmlns="http://www.w3.org/2000/svg">
<g id="sk_view_in_Light">
<path id="Text" d="M1.85775 30V26.864L12.3577 12.864H2.30575V9.952H15.9137V13.088L5.49775 27.088H16.0257V30H1.85775ZM25.8473 30.448C24.3726 30.448 23.0753 30.112 21.9553 29.44C20.8353 28.768 19.9579 27.8627 19.3233 26.724C18.6886 25.5853 18.3713 24.2973 18.3713 22.86C18.3713 21.4413 18.6886 20.1627 19.3233 19.024C19.9579 17.8667 20.8353 16.952 21.9553 16.28C23.0753 15.608 24.3726 15.272 25.8473 15.272C27.3033 15.272 28.5913 15.608 29.7113 16.28C30.8313 16.952 31.7086 17.8667 32.3433 19.024C32.9779 20.1627 33.2953 21.4413 33.2953 22.86C33.2953 24.2973 32.9779 25.5853 32.3433 26.724C31.7086 27.8627 30.8313 28.768 29.7113 29.44C28.5913 30.112 27.3033 30.448 25.8473 30.448ZM25.8473 27.676C26.6313 27.676 27.3593 27.4893 28.0313 27.116C28.7033 26.724 29.2446 26.1733 29.6553 25.464C30.0846 24.736 30.2993 23.868 30.2993 22.86C30.2993 21.852 30.0846 20.9933 29.6553 20.284C29.2446 19.556 28.7033 19.0053 28.0313 18.632C27.3593 18.24 26.6313 18.044 25.8473 18.044C25.0633 18.044 24.3259 18.24 23.6353 18.632C22.9633 19.0053 22.4126 19.556 21.9833 20.284C21.5726 20.9933 21.3673 21.852 21.3673 22.86C21.3673 23.868 21.5726 24.736 21.9833 25.464C22.4126 26.1733 22.9633 26.724 23.6353 27.116C24.3259 27.4893 25.0633 27.676 25.8473 27.676ZM43.8597 30.448C42.7584 30.448 41.8064 30.2147 41.0037 29.748C40.2197 29.2627 39.641 28.712 39.2677 28.096H39.0997V30H36.2437V9.952H39.2677V15.664L39.0997 17.652H39.2677C39.641 17.036 40.2197 16.4853 41.0037 16C41.8064 15.5147 42.7584 15.272 43.8597 15.272C45.1664 15.272 46.333 15.5987 47.3597 16.252C48.3864 16.9053 49.1984 17.8013 49.7957 18.94C50.4117 20.0787 50.7197 21.3853 50.7197 22.86C50.7197 24.3347 50.4117 25.6507 49.7957 26.808C49.1984 27.9467 48.3864 28.8427 47.3597 29.496C46.333 30.1307 45.1664 30.448 43.8597 30.448ZM43.4117 27.676C44.1584 27.676 44.8584 27.48 45.5117 27.088C46.165 26.696 46.697 26.1453 47.1077 25.436C47.5184 24.708 47.7237 23.8493 47.7237 22.86C47.7237 21.8707 47.5184 21.0213 47.1077 20.312C46.697 19.584 46.165 19.024 45.5117 18.632C44.8584 18.24 44.1584 18.044 43.4117 18.044C42.665 18.044 41.965 18.24 41.3117 18.632C40.6583 19.024 40.1263 19.584 39.7157 20.312C39.305 21.0213 39.0997 21.8707 39.0997 22.86C39.0997 23.8493 39.305 24.708 39.7157 25.436C40.1263 26.1453 40.6583 26.696 41.3117 27.088C41.965 27.48 42.665 27.676 43.4117 27.676ZM53.5242 30V15.72H56.3802V17.82H56.5482C56.8655 17.092 57.4068 16.4947 58.1722 16.028C58.9562 15.5427 59.7962 15.3 60.6922 15.3C61.0842 15.3 61.4108 15.328 61.6722 15.384C61.9522 15.44 62.2042 15.5053 62.4282 15.58V18.716C62.0735 18.5667 61.7095 18.4453 61.3362 18.352C60.9815 18.2587 60.6082 18.212 60.2162 18.212C59.5068 18.212 58.8722 18.408 58.3122 18.8C57.7708 19.1733 57.3415 19.6867 57.0242 20.34C56.7068 20.9747 56.5482 21.6747 56.5482 22.44V30H53.5242ZM69.0502 30.448C68.0236 30.448 67.1089 30.252 66.3062 29.86C65.5036 29.4493 64.8782 28.88 64.4302 28.152C63.9822 27.424 63.7582 26.5933 63.7582 25.66C63.7582 24.652 64.0196 23.7933 64.5422 23.084C65.0836 22.356 65.8022 21.8053 66.6982 21.432C67.5942 21.0587 68.5836 20.872 69.6662 20.872C70.5622 20.872 71.3462 20.956 72.0182 21.124C72.7089 21.292 73.2316 21.4693 73.5862 21.656V20.9C73.5862 19.9667 73.2502 19.22 72.5782 18.66C71.9062 18.1 71.0382 17.82 69.9742 17.82C69.2462 17.82 68.5556 17.988 67.9022 18.324C67.2489 18.6413 66.7262 19.08 66.3342 19.64L64.2622 18.044C64.8782 17.1853 65.6902 16.5133 66.6982 16.028C67.7249 15.524 68.8449 15.272 70.0582 15.272C72.1302 15.272 73.7262 15.7853 74.8462 16.812C75.9662 17.82 76.5262 19.2387 76.5262 21.068V30H73.5862V28.236H73.4182C73.0449 28.8147 72.4849 29.328 71.7382 29.776C70.9916 30.224 70.0956 30.448 69.0502 30.448ZM69.5822 27.984C70.3662 27.984 71.0569 27.7973 71.6542 27.424C72.2516 27.0507 72.7182 26.5653 73.0542 25.968C73.4089 25.352 73.5862 24.6893 73.5862 23.98C73.1569 23.7373 72.6529 23.5413 72.0742 23.392C71.4956 23.224 70.8796 23.14 70.2262 23.14C68.9942 23.14 68.1169 23.392 67.5942 23.896C67.0716 24.3813 66.8102 24.9787 66.8102 25.688C66.8102 26.36 67.0622 26.9107 67.5662 27.34C68.0702 27.7693 68.7422 27.984 69.5822 27.984ZM79.4001 30V27.48L87.3521 18.352H79.6521V15.72H91.0481V18.24L83.1241 27.368H91.2721V30H79.4001ZM96.4102 13.62C95.8502 13.62 95.3648 13.424 94.9542 13.032C94.5622 12.6213 94.3662 12.136 94.3662 11.576C94.3662 11.016 94.5622 10.54 94.9542 10.148C95.3648 9.756 95.8502 9.56 96.4102 9.56C96.9702 9.56 97.4462 9.756 97.8382 10.148C98.2488 10.54 98.4542 11.016 98.4542 11.576C98.4542 12.136 98.2488 12.6213 97.8382 13.032C97.4462 13.424 96.9702 13.62 96.4102 13.62ZM94.8982 30V15.72H97.9222V30H94.8982ZM103.349 25.856V18.352H100.857V15.72H103.349V11.688H106.373V15.72H109.873V18.352H106.373V25.212C106.373 25.9213 106.513 26.4627 106.793 26.836C107.092 27.2093 107.587 27.396 108.277 27.396C108.632 27.396 108.931 27.3493 109.173 27.256C109.435 27.1627 109.696 27.032 109.957 26.864V29.804C109.64 29.9347 109.304 30.0373 108.949 30.112C108.595 30.1867 108.175 30.224 107.689 30.224C106.364 30.224 105.309 29.8413 104.525 29.076C103.741 28.292 103.349 27.2187 103.349 25.856ZM107.941 14.068V9.952H110.769L110.069 14.068H107.941ZM126.327 30.448C124.889 30.448 123.62 30.1213 122.519 29.468C121.417 28.8147 120.549 27.9187 119.915 26.78C119.28 25.6227 118.963 24.316 118.963 22.86C118.963 21.404 119.28 20.1067 119.915 18.968C120.549 17.8107 121.417 16.9053 122.519 16.252C123.62 15.5987 124.889 15.272 126.327 15.272C127.913 15.272 129.248 15.6267 130.331 16.336C131.432 17.0453 132.216 18.0067 132.683 19.22L129.939 20.34C129.285 18.8093 128.063 18.044 126.271 18.044C125.487 18.044 124.768 18.2493 124.115 18.66C123.461 19.052 122.939 19.612 122.547 20.34C122.155 21.0493 121.959 21.8893 121.959 22.86C121.959 23.8307 122.155 24.68 122.547 25.408C122.939 26.136 123.461 26.696 124.115 27.088C124.768 27.48 125.487 27.676 126.271 27.676C127.185 27.676 127.96 27.4707 128.595 27.06C129.229 26.6307 129.724 26.052 130.079 25.324L132.767 26.5C132.263 27.6387 131.46 28.5813 130.359 29.328C129.257 30.0747 127.913 30.448 126.327 30.448ZM142.047 30.448C140.647 30.448 139.396 30.1213 138.295 29.468C137.193 28.8147 136.325 27.9187 135.691 26.78C135.075 25.6413 134.767 24.344 134.767 22.888C134.767 21.5253 135.065 20.2653 135.663 19.108C136.26 17.9507 137.091 17.0267 138.155 16.336C139.237 15.6267 140.479 15.272 141.879 15.272C143.353 15.272 144.604 15.5893 145.631 16.224C146.676 16.8587 147.469 17.7267 148.011 18.828C148.552 19.9293 148.823 21.1707 148.823 22.552C148.823 22.7573 148.813 22.944 148.795 23.112C148.795 23.28 148.785 23.4107 148.767 23.504H137.735C137.884 24.9227 138.379 25.9867 139.219 26.696C140.077 27.4053 141.048 27.76 142.131 27.76C143.101 27.76 143.904 27.5453 144.539 27.116C145.173 26.668 145.677 26.1173 146.051 25.464L148.543 26.668C147.927 27.788 147.087 28.7027 146.023 29.412C144.959 30.1027 143.633 30.448 142.047 30.448ZM141.907 17.848C140.899 17.848 140.04 18.156 139.331 18.772C138.621 19.388 138.145 20.2093 137.903 21.236H145.827C145.789 20.7507 145.631 20.2467 145.351 19.724C145.071 19.2013 144.641 18.7627 144.063 18.408C143.503 18.0347 142.784 17.848 141.907 17.848ZM151.063 30V27.48L159.015 18.352H151.315V15.72H162.711V18.24L154.787 27.368H162.935V30H151.063Z" fill="#3C4043"/>
<g id="GPay Logo (Light)">
<g id="GPay">
<g id="Pay">
<path id="Fill 1" fill-rule="evenodd" clip-rule="evenodd" d="M214.529 9.44664V17.6128H219.565C220.765 17.6128 221.757 17.2096 222.541 16.4032C223.347 15.5988 223.75 14.6394 223.75 13.5288C223.75 12.4406 223.347 11.4924 222.541 10.686C221.757 9.85915 220.765 9.44478 219.565 9.44478H214.529V9.44664ZM214.529 20.4872V29.9599H211.521V6.57217H219.499C221.527 6.57217 223.248 7.24786 224.666 8.59737C226.105 9.94688 226.824 11.5913 226.824 13.5288C226.824 15.511 226.105 17.1667 224.666 18.4938C223.27 19.8227 221.547 20.4854 219.499 20.4854H214.529V20.4872Z" fill="#5F6368"/>
<path id="Fill 3" fill-rule="evenodd" clip-rule="evenodd" d="M229.864 25.0602C229.864 25.8442 230.197 26.4975 230.862 27.0201C231.527 27.5427 232.306 27.804 233.2 27.804C234.465 27.804 235.591 27.3354 236.584 26.4004C237.576 25.4634 238.071 24.364 238.071 23.1022C237.133 22.3612 235.825 21.9916 234.147 21.9916C232.925 21.9916 231.907 22.2865 231.09 22.8745C230.273 23.4623 229.864 24.1886 229.864 25.0602ZM233.756 13.4317C235.98 13.4317 237.735 14.0252 239.022 15.2124C240.308 16.3995 240.95 18.0271 240.95 20.0952V29.9599H238.073V27.7387H237.942C236.699 29.5677 235.042 30.4825 232.972 30.4825C231.206 30.4825 229.728 29.9599 228.541 28.9146C227.353 27.8694 226.759 26.5628 226.759 24.9949C226.759 23.3393 227.385 22.0232 228.638 21.0434C229.892 20.0635 231.565 19.5726 233.658 19.5726C235.444 19.5726 236.916 19.8992 238.071 20.5525V19.8656C238.071 18.8204 237.656 17.9338 236.829 17.204C235.999 16.4741 235.031 16.1102 233.919 16.1102C232.239 16.1102 230.911 16.8176 229.93 18.2343L227.28 16.5675C228.741 14.4769 230.899 13.4317 233.756 13.4317Z" fill="#5F6368"/>
<path id="Fill 5" fill-rule="evenodd" clip-rule="evenodd" d="M257.463 13.9543L247.424 37.0154H244.318L248.046 28.9464L241.44 13.9543H244.71L249.484 25.4522H249.55L254.193 13.9543H257.463Z" fill="#5F6368"/>
</g>
<g id="G">
<path id="Fill 8" fill-rule="evenodd" clip-rule="evenodd" d="M202.373 18.4452C202.373 17.4989 202.293 16.5861 202.141 15.7126H189.454V20.8885H196.72C196.408 22.5757 195.465 24.0112 194.033 24.9725V28.3341H198.37C200.91 25.9935 202.373 22.5348 202.373 18.4452Z" fill="#4285F4"/>
<path id="Fill 10" fill-rule="evenodd" clip-rule="evenodd" d="M189.454 31.5782C193.084 31.5782 196.141 30.3873 198.37 28.3341L194.033 24.9725C192.826 25.7844 191.272 26.2585 189.454 26.2585C185.944 26.2585 182.966 23.8955 181.901 20.7112H177.433V24.1736C179.647 28.5637 184.197 31.5782 189.454 31.5782Z" fill="#34A853"/>
<path id="Fill 12" fill-rule="evenodd" clip-rule="evenodd" d="M181.901 20.7111C181.628 19.8992 181.479 19.0331 181.479 18.139C181.479 17.245 181.628 16.3789 181.901 15.567V12.1045H177.433C176.518 13.9188 176 15.9683 176 18.139C176 20.3098 176.518 22.3595 177.433 24.1736L181.901 20.7111Z" fill="#FABB05"/>
<path id="Fill 14" fill-rule="evenodd" clip-rule="evenodd" d="M189.454 10.0196C191.436 10.0196 193.213 10.7009 194.615 12.0355V12.0374L198.455 8.20162C196.123 6.03271 193.082 4.7 189.454 4.7C184.197 4.7 179.647 7.71446 177.433 12.1046L181.901 15.567C182.966 12.3827 185.944 10.0196 189.454 10.0196Z" fill="#E94235"/>
</g>
</g>
</g>
</g>
</svg>
