<svg width="97" height="21" viewBox="0 0 97 21" fill="none" xmlns="http://www.w3.org/2000/svg">
<g id="ko_book_with_Pay_NBG">
<g id="GPay (Dark)">
<g id="GPay">
<g id="Pay">
<path id="Fill 1" fill-rule="evenodd" clip-rule="evenodd" d="M22.3563 3.42339V8.16175H25.2784C25.9745 8.16175 26.5501 7.92781 27.0055 7.45993C27.4728 6.99313 27.707 6.43644 27.707 5.79203C27.707 5.16061 27.4728 4.61041 27.0055 4.14254C26.5501 3.66274 25.9745 3.4223 25.2784 3.4223H22.3563V3.42339ZM22.3563 9.82966V15.3262H20.6107V1.75549H25.2404C26.4169 1.75549 27.4154 2.14756 28.2383 2.93061C29.0732 3.71365 29.4906 4.66782 29.4906 5.79203C29.4906 6.94224 29.0731 7.90291 28.2383 8.67296C27.4283 9.44409 26.4287 9.82858 25.2404 9.82858H22.3563V9.82966Z" fill="white"/>
<path id="Fill 3" fill-rule="evenodd" clip-rule="evenodd" d="M31.2546 12.4831C31.2546 12.9379 31.4476 13.317 31.8337 13.6203C32.2195 13.9235 32.6717 14.0752 33.19 14.0752C33.9239 14.0752 34.5777 13.8032 35.1535 13.2607C35.7293 12.717 36.0165 12.0791 36.0165 11.3469C35.4722 10.917 34.7133 10.7025 33.7396 10.7025C33.0306 10.7025 32.4397 10.8736 31.9659 11.2148C31.492 11.5559 31.2546 11.9773 31.2546 12.4831M33.513 5.73566C34.8033 5.73566 35.8214 6.08007 36.5685 6.76889C37.3145 7.45771 37.6873 8.40213 37.6873 9.60216V15.3261H36.0177V14.0373H35.9417C35.2207 15.0985 34.259 15.6294 33.0578 15.6294C32.0332 15.6294 31.1755 15.3261 30.4869 14.7196C29.7975 14.1131 29.4527 13.3549 29.4527 12.4452C29.4527 11.4845 29.8158 10.7208 30.5433 10.1523C31.2708 9.58375 32.2413 9.2989 33.4557 9.2989C34.4921 9.2989 35.3465 9.48844 36.0165 9.86751V9.46894C36.0165 8.86243 35.7758 8.34798 35.2956 7.92451C34.8141 7.50103 34.2525 7.28984 33.6074 7.28984C32.6326 7.28984 31.8618 7.70032 31.2926 8.52235L29.7551 7.55519C30.6029 6.34217 31.8552 5.73566 33.513 5.73566" fill="white"/>
<path id="Fill 5" fill-rule="evenodd" clip-rule="evenodd" d="M47.2687 6.03894L41.4432 19.4201H39.6411L41.8043 14.738L37.9714 6.03894H39.8688L42.639 12.7106H42.677L45.3713 6.03894H47.2687Z" fill="white"/>
</g>
<g id="G">
<path id="Fill 8" fill-rule="evenodd" clip-rule="evenodd" d="M15.3029 8.64473C15.3029 8.09563 15.2562 7.56601 15.1684 7.05914H7.80648V10.0625H12.0231C11.842 11.0414 11.2945 11.8744 10.4639 12.4322V14.3828H12.9804C14.4539 13.0246 15.3029 11.0177 15.3029 8.64473" fill="#4285F4"/>
<path id="Fill 10" fill-rule="evenodd" clip-rule="evenodd" d="M7.80646 16.2651C9.91313 16.2651 11.6869 15.5741 12.9804 14.3828L10.4639 12.4322C9.7635 12.9033 8.86142 13.1784 7.80646 13.1784C5.77028 13.1784 4.04201 11.8073 3.424 9.95959H0.831596V11.9687C2.11641 14.516 4.75652 16.2651 7.80646 16.2651" fill="#34A853"/>
<path id="Fill 12" fill-rule="evenodd" clip-rule="evenodd" d="M3.42401 9.9596C3.26571 9.48847 3.17897 8.98593 3.17897 8.46715C3.17897 7.94837 3.26571 7.44583 3.42401 6.9747V4.96564H0.831606C0.300332 6.01837 0 7.20756 0 8.46715C0 9.72674 0.300332 10.916 0.831606 11.9687L3.42401 9.9596Z" fill="#FABB05"/>
<path id="Fill 14" fill-rule="evenodd" clip-rule="evenodd" d="M7.80646 3.75583C8.95683 3.75583 9.98794 4.15115 10.8011 4.92553V4.92661L13.0292 2.70094C11.6761 1.44243 9.91204 0.669128 7.80646 0.669128C4.75652 0.669128 2.11641 2.41826 0.831596 4.9656L3.424 6.97467C4.04201 5.12698 5.77028 3.75583 7.80646 3.75583" fill="#E94235"/>
</g>
</g>
</g>
<path id="Right Text" d="M48.45 13.3686V14.4726H61.554V13.3686H48.45ZM54.306 10.2646V13.8326H55.634V10.2646H54.306ZM50.034 2.85661V3.92861H58.626V6.16861H50.082V10.1366H51.394V7.24061H59.938V2.85661H50.034ZM50.082 9.57661V10.6646H60.274V9.57661H50.082ZM72.9631 5.27261V6.37661H75.7791V5.27261H72.9631ZM72.9631 9.67261V10.7766H75.7791V9.67261H72.9631ZM78.2111 1.78461V16.2486H79.4911V1.78461H78.2111ZM75.3791 2.08861V15.5286H76.6271V2.08861H75.3791ZM70.4511 2.98461C68.5791 2.98461 67.3791 4.92061 67.3791 8.02461C67.3791 11.1286 68.5791 13.0646 70.4511 13.0646C72.3231 13.0646 73.5391 11.1286 73.5391 8.02461C73.5391 4.92061 72.3231 2.98461 70.4511 2.98461ZM70.4511 4.21661C71.6031 4.21661 72.3231 5.68861 72.3231 8.02461C72.3231 10.3606 71.6031 11.8326 70.4511 11.8326C69.3151 11.8326 68.5791 10.3606 68.5791 8.02461C68.5791 5.68861 69.3151 4.21661 70.4511 4.21661ZM92.8879 3.97661V5.09661H95.3999V3.97661H92.8879ZM92.8879 7.08061V8.18461H95.3999V7.08061H92.8879ZM91.9599 1.78461V10.3766H93.2879V1.78461H91.9599ZM83.8959 11.0646V12.1366H91.9599V16.2486H93.2879V11.0646H83.8959ZM86.1039 2.63261C83.9279 2.63261 82.3279 4.04061 82.3279 6.07261C82.3279 8.08861 83.9279 9.48061 86.1039 9.48061C88.2799 9.48061 89.8799 8.08861 89.8799 6.07261C89.8799 4.04061 88.2799 2.63261 86.1039 2.63261ZM86.1039 3.76861C87.5439 3.76861 88.5839 4.69661 88.5839 6.07261C88.5839 7.43261 87.5439 8.37661 86.1039 8.37661C84.6639 8.37661 83.6239 7.43261 83.6239 6.07261C83.6239 4.69661 84.6639 3.76861 86.1039 3.76861Z" fill="white"/>
</g>
</svg>
