<svg width="180" height="38" viewBox="0 0 180 38" fill="none" xmlns="http://www.w3.org/2000/svg">
<g id="ko_checkout_with_Light">
<g id="GPay Logo (Light)">
<g id="GPay">
<g id="Pay">
<path id="Fill 1" fill-rule="evenodd" clip-rule="evenodd" d="M38.5289 9.44664V17.6128H43.5649C44.7645 17.6128 45.7565 17.2096 46.5413 16.4032C47.3467 15.5988 47.7503 14.6394 47.7503 13.5288C47.7503 12.4406 47.3467 11.4924 46.5413 10.686C45.7565 9.85915 44.7645 9.44478 43.5649 9.44478H38.5289V9.44664ZM38.5289 20.4872V29.9599H35.5205V6.57217H43.4993C45.5269 6.57217 47.2478 7.24786 48.6659 8.59737C50.1049 9.94688 50.8241 11.5913 50.8241 13.5288C50.8241 15.511 50.1047 17.1667 48.6659 18.4938C47.2701 19.8227 45.5473 20.4854 43.4993 20.4854H38.5289V20.4872Z" fill="#5F6368"/>
<path id="Fill 3" fill-rule="evenodd" clip-rule="evenodd" d="M53.8642 25.0602C53.8642 25.8442 54.1968 26.4975 54.8622 27.0201C55.5272 27.5427 56.3064 27.804 57.1998 27.804C58.4646 27.804 59.5913 27.3354 60.5835 26.4004C61.5759 25.4634 62.0709 24.364 62.0709 23.1022C61.1329 22.3612 59.8249 21.9916 58.1469 21.9916C56.9251 21.9916 55.9067 22.2865 55.0901 22.8745C54.2734 23.4623 53.8642 24.1886 53.8642 25.0602ZM57.7564 13.4317C59.98 13.4317 61.7346 14.0252 63.0222 15.2124C64.3078 16.3995 64.9504 18.0271 64.9504 20.0952V29.9599H62.073V27.7387H61.942C60.6994 29.5677 59.042 30.4825 56.9718 30.4825C55.206 30.4825 53.7279 29.9599 52.5412 28.9146C51.353 27.8694 50.7588 26.5628 50.7588 24.9949C50.7588 23.3393 51.3846 22.0232 52.6384 21.0434C53.8922 20.0635 55.5648 19.5726 57.6576 19.5726C59.4437 19.5726 60.9162 19.8992 62.0709 20.5525V19.8656C62.0709 18.8204 61.6561 17.9338 60.8285 17.204C59.9987 16.4741 59.0308 16.1102 57.919 16.1102C56.2391 16.1102 54.9108 16.8176 53.9298 18.2343L51.2799 16.5675C52.7412 14.4769 54.8994 13.4317 57.7564 13.4317Z" fill="#5F6368"/>
<path id="Fill 5" fill-rule="evenodd" clip-rule="evenodd" d="M81.4629 13.9543L71.4233 37.0154H68.3175L72.0455 28.9464L65.4399 13.9543H68.7099L73.4841 25.4522H73.5495L78.1929 13.9543H81.4629Z" fill="#5F6368"/>
</g>
<g id="G">
<path id="Fill 8" fill-rule="evenodd" clip-rule="evenodd" d="M26.3729 18.4452C26.3729 17.4989 26.2926 16.5861 26.1412 15.7126H13.4536V20.8885H20.7205C20.4084 22.5757 19.4648 24.0112 18.0335 24.9725V28.3341H22.3704C24.9098 25.9935 26.3729 22.5348 26.3729 18.4452Z" fill="#4285F4"/>
<path id="Fill 10" fill-rule="evenodd" clip-rule="evenodd" d="M13.4536 31.5782C17.0843 31.5782 20.1412 30.3873 22.3704 28.3341L18.0335 24.9725C16.8264 25.7844 15.2717 26.2585 13.4536 26.2585C9.94445 26.2585 6.96594 23.8955 5.90086 20.7112H1.43311V24.1736C3.64736 28.5637 8.19733 31.5782 13.4536 31.5782Z" fill="#34A853"/>
<path id="Fill 12" fill-rule="evenodd" clip-rule="evenodd" d="M5.90095 20.7111C5.62814 19.8992 5.47865 19.0331 5.47865 18.139C5.47865 17.245 5.62814 16.3789 5.90095 15.567V12.1045H1.43319C0.517594 13.9188 0 15.9683 0 18.139C0 20.3098 0.517594 22.3595 1.43319 24.1736L5.90095 20.7111Z" fill="#FABB05"/>
<path id="Fill 14" fill-rule="evenodd" clip-rule="evenodd" d="M13.4536 10.0196C15.4362 10.0196 17.2132 10.7009 18.6146 12.0355V12.0374L22.4545 8.20162C20.1226 6.03271 17.0824 4.7 13.4536 4.7C8.19733 4.7 3.64736 7.71446 1.43311 12.1046L5.90086 15.567C6.96594 12.3827 9.94445 10.0196 13.4536 10.0196Z" fill="#E94235"/>
</g>
</g>
</g>
<path id="Text" d="M107 27.088V22.356H115.036V20.508H99.58V16.448H114.448V8.804H97.256V10.68H112.208V14.6H97.312V22.356H104.676V27.088H94.456V28.964H117.276V27.088H107ZM145.745 12.388V15.384H139.193V17.176H145.745V19.78H148.069V6.956H145.745V10.596H140.061C140.229 9.812 140.313 9.028 140.313 8.188H129.085V10.064H137.821C137.401 14.04 133.901 17.036 127.769 18.464L128.609 20.34C134.153 19.024 137.989 16.336 139.557 12.388H145.745ZM134.209 30V27.088H148.069V20.928H131.885V22.776H145.773V25.352H131.941V31.82H148.909V30H134.209ZM160.799 11.772H165.279V9.896H153.827V11.772H158.587V14.04C158.587 18.66 156.627 23.224 153.127 25.324L154.527 27.032C157.019 25.464 158.839 22.524 159.707 19.08C160.575 22.272 162.311 24.96 164.747 26.416L166.147 24.736C162.675 22.776 160.799 18.408 160.799 14.04V11.772ZM167.519 15.972H163.375V17.848H167.519V30.756H169.703V7.516H167.519V15.972ZM172.559 6.928V32.044H174.771V6.928H172.559Z" fill="#3C4043"/>
</g>
</svg>
