<svg width="206" height="38" viewBox="0 0 206 38" fill="none" xmlns="http://www.w3.org/2000/svg">
<g id="ko_view_in_Dark">
<g id="GPay Logo (Dark)">
<g id="GPay">
<g id="Pay">
<path id="Fill 1" fill-rule="evenodd" clip-rule="evenodd" d="M38.5289 9.34665V17.5128H43.5649C44.7645 17.5128 45.7565 17.1096 46.5413 16.3032C47.3467 15.4988 47.7503 14.5394 47.7503 13.4288C47.7503 12.3406 47.3467 11.3924 46.5413 10.586C45.7565 9.75916 44.7645 9.34479 43.5649 9.34479H38.5289V9.34665ZM38.5289 20.3872V29.8599H35.5205V6.47218H43.4993C45.5269 6.47218 47.2478 7.14787 48.6659 8.49738C50.1049 9.84688 50.8241 11.4913 50.8241 13.4288C50.8241 15.411 50.1047 17.0667 48.6659 18.3938C47.2701 19.7227 45.5473 20.3854 43.4993 20.3854H38.5289V20.3872Z" fill="white"/>
<path id="Fill 3" fill-rule="evenodd" clip-rule="evenodd" d="M53.8642 24.9602C53.8642 25.7442 54.1968 26.3975 54.8622 26.9201C55.5272 27.4427 56.3064 27.704 57.1998 27.704C58.4646 27.704 59.5913 27.2354 60.5835 26.3004C61.5759 25.3634 62.0709 24.264 62.0709 23.0022C61.1329 22.2612 59.8249 21.8916 58.1469 21.8916C56.9251 21.8916 55.9067 22.1866 55.0901 22.7745C54.2734 23.3623 53.8642 24.0886 53.8642 24.9602ZM57.7564 13.3317C59.98 13.3317 61.7346 13.9253 63.0222 15.1124C64.3078 16.2995 64.9504 17.9271 64.9504 19.9952V29.8599H62.073V27.6387H61.942C60.6994 29.4677 59.042 30.3825 56.9718 30.3825C55.206 30.3825 53.7279 29.8599 52.5412 28.8146C51.353 27.7694 50.7588 26.4628 50.7588 24.8949C50.7588 23.2393 51.3846 21.9232 52.6384 20.9434C53.8922 19.9635 55.5648 19.4726 57.6576 19.4726C59.4437 19.4726 60.9162 19.7993 62.0709 20.4525V19.7657C62.0709 18.7204 61.6561 17.8338 60.8285 17.104C59.9987 16.3742 59.0308 16.0102 57.919 16.0102C56.2391 16.0102 54.9108 16.7176 53.9298 18.1343L51.2799 16.4675C52.7412 14.377 54.8994 13.3317 57.7564 13.3317Z" fill="white"/>
<path id="Fill 5" fill-rule="evenodd" clip-rule="evenodd" d="M81.4629 13.8543L71.4233 36.9154H68.3175L72.0455 28.8464L65.4399 13.8543H68.7099L73.4841 25.3522H73.5495L78.1929 13.8543H81.4629Z" fill="white"/>
</g>
<g id="G">
<path id="Fill 8" fill-rule="evenodd" clip-rule="evenodd" d="M26.3729 18.3452C26.3729 17.3989 26.2926 16.4861 26.1412 15.6126H13.4536V20.7885H20.7205C20.4084 22.4757 19.4648 23.9112 18.0335 24.8725V28.2341H22.3704C24.9098 25.8935 26.3729 22.4348 26.3729 18.3452Z" fill="#4285F4"/>
<path id="Fill 10" fill-rule="evenodd" clip-rule="evenodd" d="M13.4536 31.4782C17.0843 31.4782 20.1412 30.2873 22.3704 28.2341L18.0335 24.8725C16.8264 25.6844 15.2717 26.1585 13.4536 26.1585C9.94445 26.1585 6.96594 23.7955 5.90086 20.6112H1.43311V24.0736C3.64736 28.4637 8.19733 31.4782 13.4536 31.4782Z" fill="#34A853"/>
<path id="Fill 12" fill-rule="evenodd" clip-rule="evenodd" d="M5.90095 20.6111C5.62814 19.7992 5.47865 18.9331 5.47865 18.0391C5.47865 17.145 5.62814 16.2789 5.90095 15.467V12.0045H1.43319C0.517594 13.8188 0 15.8683 0 18.0391C0 20.2098 0.517594 22.2595 1.43319 24.0736L5.90095 20.6111Z" fill="#FABB05"/>
<path id="Fill 14" fill-rule="evenodd" clip-rule="evenodd" d="M13.4536 9.91964C15.4362 9.91964 17.2132 10.6009 18.6146 11.9355V11.9374L22.4545 8.10163C20.1226 5.93272 17.0824 4.60001 13.4536 4.60001C8.19733 4.60001 3.64736 7.61447 1.43311 12.0046L5.90086 15.467C6.96594 12.2827 9.94445 9.91964 13.4536 9.91964Z" fill="#E94235"/>
</g>
</g>
</g>
<path id="Text" d="M100.168 24.428C98.152 24.428 96.892 21.88 96.892 17.764C96.892 13.732 98.152 11.184 100.168 11.184C102.128 11.184 103.416 13.732 103.416 17.764C103.416 21.88 102.128 24.428 100.168 24.428ZM108.652 16.728H105.488C105.208 11.996 103.192 9.056 100.168 9.056C96.892 9.056 94.792 12.416 94.792 17.764C94.792 23.196 96.892 26.556 100.168 26.556C103.248 26.556 105.292 23.532 105.488 18.604H108.652V30.84H110.836V7.516H108.652V16.728ZM113.636 6.956V32.072H115.82V6.956H113.636ZM129.334 9.112H127.038V13.62C127.038 18.268 124.182 23.112 120.542 24.932L121.942 26.752C124.77 25.24 127.094 22.076 128.186 18.352C129.334 21.88 131.63 24.876 134.486 26.304L135.83 24.484C132.19 22.748 129.334 18.184 129.334 13.62V9.112ZM138.938 6.956V15.468H133.114V17.344H138.938V32.1H141.234V6.956H138.938ZM158.391 15.104H171.215V19.724H158.391V15.104ZM165.951 26.976V21.572H173.455V8.748H171.215V13.228H158.391V8.748H156.123V21.572H163.627V26.976H153.435V28.852H176.199V26.976H165.951ZM180.977 9.672V11.52H190.413C189.937 17.484 186.577 22.3 179.829 25.52L181.061 27.396C189.405 23.308 192.737 16.924 192.737 9.672H180.977ZM197.805 6.956V32.072H200.101V6.956H197.805Z" fill="white"/>
</g>
</svg>
