<svg width="206" height="38" viewBox="0 0 206 38" fill="none" xmlns="http://www.w3.org/2000/svg">
<g id="ko_view_in_Light">
<g id="GPay Logo (Light)">
<g id="GPay">
<g id="Pay">
<path id="Fill 1" fill-rule="evenodd" clip-rule="evenodd" d="M38.5289 9.44664V17.6128H43.5649C44.7645 17.6128 45.7565 17.2096 46.5413 16.4032C47.3467 15.5988 47.7503 14.6394 47.7503 13.5288C47.7503 12.4406 47.3467 11.4924 46.5413 10.686C45.7565 9.85915 44.7645 9.44478 43.5649 9.44478H38.5289V9.44664ZM38.5289 20.4872V29.9599H35.5205V6.57217H43.4993C45.5269 6.57217 47.2478 7.24786 48.6659 8.59737C50.1049 9.94688 50.8241 11.5913 50.8241 13.5288C50.8241 15.511 50.1047 17.1667 48.6659 18.4938C47.2701 19.8227 45.5473 20.4854 43.4993 20.4854H38.5289V20.4872Z" fill="#5F6368"/>
<path id="Fill 3" fill-rule="evenodd" clip-rule="evenodd" d="M53.8642 25.0602C53.8642 25.8442 54.1968 26.4975 54.8622 27.0201C55.5272 27.5427 56.3064 27.804 57.1998 27.804C58.4646 27.804 59.5913 27.3354 60.5835 26.4004C61.5759 25.4634 62.0709 24.364 62.0709 23.1022C61.1329 22.3612 59.8249 21.9916 58.1469 21.9916C56.9251 21.9916 55.9067 22.2865 55.0901 22.8745C54.2734 23.4623 53.8642 24.1886 53.8642 25.0602ZM57.7564 13.4317C59.98 13.4317 61.7346 14.0252 63.0222 15.2124C64.3078 16.3995 64.9504 18.0271 64.9504 20.0952V29.9599H62.073V27.7387H61.942C60.6994 29.5677 59.042 30.4825 56.9718 30.4825C55.206 30.4825 53.7279 29.9599 52.5412 28.9146C51.353 27.8694 50.7588 26.5628 50.7588 24.9949C50.7588 23.3393 51.3846 22.0232 52.6384 21.0434C53.8922 20.0635 55.5648 19.5726 57.6576 19.5726C59.4437 19.5726 60.9162 19.8992 62.0709 20.5525V19.8656C62.0709 18.8204 61.6561 17.9338 60.8285 17.204C59.9987 16.4741 59.0308 16.1102 57.919 16.1102C56.2391 16.1102 54.9108 16.8176 53.9298 18.2343L51.2799 16.5675C52.7412 14.4769 54.8994 13.4317 57.7564 13.4317Z" fill="#5F6368"/>
<path id="Fill 5" fill-rule="evenodd" clip-rule="evenodd" d="M81.4629 13.9543L71.4233 37.0154H68.3175L72.0455 28.9464L65.4399 13.9543H68.7099L73.4841 25.4522H73.5495L78.1929 13.9543H81.4629Z" fill="#5F6368"/>
</g>
<g id="G">
<path id="Fill 8" fill-rule="evenodd" clip-rule="evenodd" d="M26.3729 18.4452C26.3729 17.4989 26.2926 16.5861 26.1412 15.7126H13.4536V20.8885H20.7205C20.4084 22.5757 19.4648 24.0112 18.0335 24.9725V28.3341H22.3704C24.9098 25.9935 26.3729 22.5348 26.3729 18.4452Z" fill="#4285F4"/>
<path id="Fill 10" fill-rule="evenodd" clip-rule="evenodd" d="M13.4536 31.5782C17.0843 31.5782 20.1412 30.3873 22.3704 28.3341L18.0335 24.9725C16.8264 25.7844 15.2717 26.2585 13.4536 26.2585C9.94445 26.2585 6.96594 23.8955 5.90086 20.7112H1.43311V24.1736C3.64736 28.5637 8.19733 31.5782 13.4536 31.5782Z" fill="#34A853"/>
<path id="Fill 12" fill-rule="evenodd" clip-rule="evenodd" d="M5.90095 20.7111C5.62814 19.8992 5.47865 19.0331 5.47865 18.139C5.47865 17.245 5.62814 16.3789 5.90095 15.567V12.1045H1.43319C0.517594 13.9188 0 15.9683 0 18.139C0 20.3098 0.517594 22.3595 1.43319 24.1736L5.90095 20.7111Z" fill="#FABB05"/>
<path id="Fill 14" fill-rule="evenodd" clip-rule="evenodd" d="M13.4536 10.0196C15.4362 10.0196 17.2132 10.7009 18.6146 12.0355V12.0374L22.4545 8.20162C20.1226 6.03271 17.0824 4.7 13.4536 4.7C8.19733 4.7 3.64736 7.71446 1.43311 12.1046L5.90086 15.567C6.96594 12.3827 9.94445 10.0196 13.4536 10.0196Z" fill="#E94235"/>
</g>
</g>
</g>
<path id="Text" d="M100.168 24.428C98.152 24.428 96.892 21.88 96.892 17.764C96.892 13.732 98.152 11.184 100.168 11.184C102.128 11.184 103.416 13.732 103.416 17.764C103.416 21.88 102.128 24.428 100.168 24.428ZM108.652 16.728H105.488C105.208 11.996 103.192 9.056 100.168 9.056C96.892 9.056 94.792 12.416 94.792 17.764C94.792 23.196 96.892 26.556 100.168 26.556C103.248 26.556 105.292 23.532 105.488 18.604H108.652V30.84H110.836V7.516H108.652V16.728ZM113.636 6.956V32.072H115.82V6.956H113.636ZM129.334 9.112H127.038V13.62C127.038 18.268 124.182 23.112 120.542 24.932L121.942 26.752C124.77 25.24 127.094 22.076 128.186 18.352C129.334 21.88 131.63 24.876 134.486 26.304L135.83 24.484C132.19 22.748 129.334 18.184 129.334 13.62V9.112ZM138.938 6.956V15.468H133.114V17.344H138.938V32.1H141.234V6.956H138.938ZM158.391 15.104H171.215V19.724H158.391V15.104ZM165.951 26.976V21.572H173.455V8.748H171.215V13.228H158.391V8.748H156.123V21.572H163.627V26.976H153.435V28.852H176.199V26.976H165.951ZM180.977 9.672V11.52H190.413C189.937 17.484 186.577 22.3 179.829 25.52L181.061 27.396C189.405 23.308 192.737 16.924 192.737 9.672H180.977ZM197.805 6.956V32.072H200.101V6.956H197.805Z" fill="#3C4043"/>
</g>
</svg>
