<svg width="123" height="21" viewBox="0 0 123 21" fill="none" xmlns="http://www.w3.org/2000/svg">
<g id="cs_add_to_Pay_NBG">
<path id="Left Text" d="M1.45538 15.0006V3.54461H5.39138C6.08471 3.54461 6.71405 3.69394 7.27938 3.99261C7.84471 4.28061 8.29271 4.69128 8.62338 5.22461C8.96471 5.74728 9.13538 6.35528 9.13538 7.04861C9.13538 7.73128 8.96471 8.33928 8.62338 8.87261C8.29271 9.40594 7.84471 9.82194 7.27938 10.1206C6.71405 10.4086 6.08471 10.5526 5.39138 10.5526H3.21538V15.0006H1.45538ZM3.21538 8.88861H5.43938C5.85538 8.88861 6.20738 8.80328 6.49538 8.63261C6.78338 8.45128 7.00204 8.22194 7.15138 7.94461C7.31138 7.65661 7.39138 7.35794 7.39138 7.04861C7.39138 6.73928 7.31138 6.44594 7.15138 6.16861C7.00204 5.89128 6.78338 5.66194 6.49538 5.48061C6.20738 5.29928 5.85538 5.20861 5.43938 5.20861H3.21538V8.88861ZM10.8018 15.0006V6.84061H12.4338V8.04061H12.5298C12.6578 7.76328 12.8391 7.51794 13.0738 7.30461C13.3191 7.09128 13.5964 6.92061 13.9058 6.79261C14.2258 6.66461 14.5564 6.60061 14.8978 6.60061C15.1218 6.60061 15.3084 6.61661 15.4578 6.64861C15.6178 6.66994 15.7618 6.70728 15.8898 6.76061V8.55261C15.6871 8.46728 15.4791 8.39794 15.2658 8.34461C15.0631 8.29128 14.8498 8.26461 14.6258 8.26461C14.2204 8.26461 13.8578 8.37661 13.5378 8.60061C13.2284 8.81394 12.9831 9.10194 12.8018 9.46461C12.6204 9.82728 12.5298 10.2326 12.5298 10.6806V15.0006H10.8018ZM12.5298 5.27261L10.8178 3.33661V3.22461H12.4658L13.2018 4.21661H13.3618L14.1138 3.22461H15.7778V3.33661L14.0498 5.27261H12.5298ZM17.5016 15.0006V6.84061H19.2296V15.0006H17.5016ZM18.3656 5.64061C18.0456 5.64061 17.7683 5.52861 17.5336 5.30461C17.3096 5.06994 17.1976 4.79261 17.1976 4.47261C17.1976 4.14194 17.3096 3.86994 17.5336 3.65661C17.7683 3.43261 18.0456 3.32061 18.3656 3.32061C18.6963 3.32061 18.9736 3.43261 19.1976 3.65661C19.4216 3.86994 19.5336 4.14194 19.5336 4.47261C19.5336 4.79261 19.4216 5.06994 19.1976 5.30461C18.9736 5.52861 18.6963 5.64061 18.3656 5.64061ZM24.9335 15.2566C24.1975 15.2566 23.5308 15.0699 22.9335 14.6966C22.3362 14.3233 21.8668 13.8113 21.5255 13.1606C21.1842 12.5099 21.0135 11.7633 21.0135 10.9206C21.0135 10.0779 21.1842 9.33128 21.5255 8.68061C21.8668 8.02994 22.3362 7.51794 22.9335 7.14461C23.5308 6.77128 24.1975 6.58461 24.9335 6.58461C25.3602 6.58461 25.7442 6.64861 26.0855 6.77661C26.4268 6.90461 26.7202 7.07528 26.9655 7.28861C27.2215 7.49128 27.4188 7.70994 27.5575 7.94461H27.6535L27.5575 6.80861V3.54461H29.2695V15.0006H27.6535V13.9126H27.5575C27.4188 14.1366 27.2215 14.3553 26.9655 14.5686C26.7202 14.7713 26.4268 14.9366 26.0855 15.0646C25.7442 15.1926 25.3602 15.2566 24.9335 15.2566ZM25.1895 13.6726C25.6162 13.6726 26.0162 13.5606 26.3895 13.3366C26.7735 13.1126 27.0775 12.7979 27.3015 12.3926C27.5362 11.9766 27.6535 11.4859 27.6535 10.9206C27.6535 10.3553 27.5362 9.86994 27.3015 9.46461C27.0775 9.04861 26.7735 8.72861 26.3895 8.50461C26.0162 8.28061 25.6162 8.16861 25.1895 8.16861C24.7628 8.16861 24.3628 8.28061 23.9895 8.50461C23.6162 8.72861 23.3122 9.04861 23.0775 9.46461C22.8428 9.86994 22.7255 10.3553 22.7255 10.9206C22.7255 11.4753 22.8428 11.9606 23.0775 12.3766C23.3122 12.7926 23.6162 13.1126 23.9895 13.3366C24.3628 13.5606 24.7628 13.6726 25.1895 13.6726ZM33.9368 15.2566C33.3501 15.2566 32.8274 15.1393 32.3688 14.9046C31.9208 14.6699 31.5634 14.3499 31.2968 13.9446C31.0408 13.5286 30.9128 13.0539 30.9128 12.5206C30.9128 11.9339 31.0621 11.4379 31.3608 11.0326C31.6701 10.6273 32.0808 10.3179 32.5928 10.1046C33.1048 9.89128 33.6701 9.78461 34.2888 9.78461C34.6301 9.78461 34.9448 9.81128 35.2328 9.86461C35.5314 9.90728 35.7874 9.96061 36.0008 10.0246C36.2248 10.0886 36.4008 10.1579 36.5288 10.2326V9.80061C36.5288 9.26728 36.3368 8.84061 35.9528 8.52061C35.5688 8.20061 35.0728 8.04061 34.4648 8.04061C34.0488 8.04061 33.6541 8.13661 33.2808 8.32861C32.9074 8.50994 32.6088 8.76061 32.3848 9.08061L31.2008 8.16861C31.4354 7.83794 31.7181 7.55528 32.0488 7.32061C32.3901 7.08594 32.7688 6.90461 33.1848 6.77661C33.6114 6.64861 34.0541 6.58461 34.5128 6.58461C35.6968 6.58461 36.6088 6.87794 37.2488 7.46461C37.8888 8.04061 38.2088 8.85128 38.2088 9.89661V15.0006H36.5288V13.9926H36.4328C36.2941 14.2059 36.1021 14.4086 35.8568 14.6006C35.6221 14.7926 35.3394 14.9473 35.0088 15.0646C34.6888 15.1926 34.3314 15.2566 33.9368 15.2566ZM34.2408 13.8486C34.6888 13.8486 35.0834 13.7419 35.4248 13.5286C35.7768 13.3153 36.0488 13.0379 36.2408 12.6966C36.4328 12.3446 36.5288 11.9659 36.5288 11.5606C36.2941 11.4219 36.0061 11.3099 35.6648 11.2246C35.3341 11.1286 34.9821 11.0806 34.6088 11.0806C33.9048 11.0806 33.4034 11.2193 33.1048 11.4966C32.8061 11.7739 32.6568 12.1206 32.6568 12.5366C32.6568 12.9206 32.8008 13.2353 33.0888 13.4806C33.3768 13.7259 33.7608 13.8486 34.2408 13.8486ZM39.5449 6.84061H40.9689V4.53661H42.6969V6.84061H44.6969V8.34461H42.6969V12.2646C42.6969 12.6699 42.7769 12.9793 42.9369 13.1926C43.1075 13.4059 43.3902 13.5126 43.7849 13.5126C43.9769 13.5126 44.1475 13.4859 44.2969 13.4326C44.4462 13.3686 44.5955 13.2939 44.7449 13.2086V14.8886C44.5635 14.9633 44.3715 15.0219 44.1689 15.0646C43.9662 15.1073 43.7262 15.1286 43.4489 15.1286C42.6915 15.1286 42.0889 14.9099 41.6409 14.4726C41.1929 14.0246 40.9689 13.4113 40.9689 12.6326V8.34461H39.5449V6.84061ZM53.8773 15.2566C53.1413 15.2566 52.4746 15.0699 51.8773 14.6966C51.2799 14.3233 50.8106 13.8113 50.4693 13.1606C50.1279 12.5099 49.9573 11.7633 49.9573 10.9206C49.9573 10.0779 50.1279 9.33128 50.4693 8.68061C50.8106 8.02994 51.2799 7.51794 51.8773 7.14461C52.4746 6.77128 53.1413 6.58461 53.8773 6.58461C54.3039 6.58461 54.6879 6.64861 55.0293 6.77661C55.3706 6.90461 55.6639 7.07528 55.9093 7.28861C56.1653 7.49128 56.3626 7.70994 56.5013 7.94461H56.5973L56.5013 6.80861V3.54461H58.2133V15.0006H56.5973V13.9126H56.5013C56.3626 14.1366 56.1653 14.3553 55.9093 14.5686C55.6639 14.7713 55.3706 14.9366 55.0293 15.0646C54.6879 15.1926 54.3039 15.2566 53.8773 15.2566ZM54.1333 13.6726C54.5599 13.6726 54.9599 13.5606 55.3333 13.3366C55.7173 13.1126 56.0213 12.7979 56.2453 12.3926C56.4799 11.9766 56.5973 11.4859 56.5973 10.9206C56.5973 10.3553 56.4799 9.86994 56.2453 9.46461C56.0213 9.04861 55.7173 8.72861 55.3333 8.50461C54.9599 8.28061 54.5599 8.16861 54.1333 8.16861C53.7066 8.16861 53.3066 8.28061 52.9333 8.50461C52.5599 8.72861 52.2559 9.04861 52.0213 9.46461C51.7866 9.86994 51.6693 10.3553 51.6693 10.9206C51.6693 11.4753 51.7866 11.9606 52.0213 12.3766C52.2559 12.7926 52.5599 13.1126 52.9333 13.3366C53.3066 13.5606 53.7066 13.6726 54.1333 13.6726ZM64.1605 15.2566C63.3178 15.2566 62.5765 15.0646 61.9365 14.6806C61.2965 14.2966 60.7952 13.7793 60.4325 13.1286C60.0698 12.4673 59.8885 11.7313 59.8885 10.9206C59.8885 10.1099 60.0698 9.37928 60.4325 8.72861C60.7952 8.06728 61.2965 7.54461 61.9365 7.16061C62.5765 6.77661 63.3178 6.58461 64.1605 6.58461C64.9925 6.58461 65.7285 6.78194 66.3685 7.17661C67.0085 7.56061 67.5098 8.07794 67.8725 8.72861C68.2352 9.37928 68.4165 10.1099 68.4165 10.9206C68.4165 11.7313 68.2352 12.4673 67.8725 13.1286C67.5098 13.7793 67.0085 14.2966 66.3685 14.6806C65.7285 15.0646 64.9925 15.2566 64.1605 15.2566ZM64.1605 13.6726C64.6085 13.6726 65.0245 13.5659 65.4085 13.3526C65.7925 13.1286 66.1018 12.8139 66.3365 12.4086C66.5818 11.9926 66.7045 11.4966 66.7045 10.9206C66.7045 10.3446 66.5818 9.85394 66.3365 9.44861C66.1018 9.03261 65.7925 8.71794 65.4085 8.50461C65.0245 8.28061 64.6085 8.16861 64.1605 8.16861C63.7125 8.16861 63.2912 8.28061 62.8965 8.50461C62.5125 8.71794 62.1978 9.03261 61.9525 9.44861C61.7178 9.85394 61.6005 10.3446 61.6005 10.9206C61.6005 11.4966 61.7178 11.9926 61.9525 12.4086C62.1978 12.8139 62.5178 13.1286 62.9125 13.3526C63.3072 13.5659 63.7232 13.6726 64.1605 13.6726Z" fill="white"/>
<g id="GPay (Dark)">
<g id="GPay">
<g id="Pay">
<path id="Fill 1" fill-rule="evenodd" clip-rule="evenodd" d="M97.3563 3.42339V8.16175H100.278C100.974 8.16175 101.55 7.92781 102.005 7.45993C102.473 6.99313 102.707 6.43644 102.707 5.79203C102.707 5.16061 102.473 4.61041 102.005 4.14254C101.55 3.66274 100.974 3.4223 100.278 3.4223H97.3563V3.42339ZM97.3563 9.82966V15.3262H95.6107V1.75549H100.24C101.417 1.75549 102.415 2.14756 103.238 2.93061C104.073 3.71365 104.491 4.66782 104.491 5.79203C104.491 6.94224 104.073 7.90291 103.238 8.67296C102.428 9.44409 101.429 9.82858 100.24 9.82858H97.3563V9.82966Z" fill="white"/>
<path id="Fill 3" fill-rule="evenodd" clip-rule="evenodd" d="M106.255 12.4831C106.255 12.9379 106.448 13.317 106.834 13.6203C107.22 13.9235 107.672 14.0752 108.19 14.0752C108.924 14.0752 109.578 13.8032 110.153 13.2607C110.729 12.717 111.017 12.0791 111.017 11.3469C110.472 10.917 109.713 10.7025 108.74 10.7025C108.031 10.7025 107.44 10.8736 106.966 11.2148C106.492 11.5559 106.255 11.9773 106.255 12.4831M108.513 5.73566C109.803 5.73566 110.821 6.08007 111.569 6.76889C112.314 7.45771 112.687 8.40213 112.687 9.60216V15.3261H111.018V14.0373H110.942C110.221 15.0985 109.259 15.6294 108.058 15.6294C107.033 15.6294 106.176 15.3261 105.487 14.7196C104.797 14.1131 104.453 13.3549 104.453 12.4452C104.453 11.4845 104.816 10.7208 105.543 10.1523C106.271 9.58375 107.241 9.2989 108.456 9.2989C109.492 9.2989 110.346 9.48844 111.017 9.86751V9.46894C111.017 8.86243 110.776 8.34798 110.296 7.92451C109.814 7.50103 109.252 7.28984 108.607 7.28984C107.633 7.28984 106.862 7.70032 106.293 8.52235L104.755 7.55519C105.603 6.34217 106.855 5.73566 108.513 5.73566" fill="white"/>
<path id="Fill 5" fill-rule="evenodd" clip-rule="evenodd" d="M122.269 6.03894L116.443 19.4201H114.641L116.804 14.738L112.971 6.03894H114.869L117.639 12.7106H117.677L120.371 6.03894H122.269Z" fill="white"/>
</g>
<g id="G">
<path id="Fill 8" fill-rule="evenodd" clip-rule="evenodd" d="M90.3029 8.64473C90.3029 8.09563 90.2562 7.56601 90.1684 7.05914H82.8065V10.0625H87.0231C86.842 11.0414 86.2944 11.8744 85.4639 12.4322V14.3828H87.9804C89.4539 13.0246 90.3029 11.0177 90.3029 8.64473" fill="#4285F4"/>
<path id="Fill 10" fill-rule="evenodd" clip-rule="evenodd" d="M82.8065 16.2651C84.9131 16.2651 86.6869 15.5741 87.9804 14.3828L85.4639 12.4322C84.7635 12.9033 83.8614 13.1784 82.8065 13.1784C80.7703 13.1784 79.042 11.8073 78.424 9.95959H75.8316V11.9687C77.1164 14.516 79.7565 16.2651 82.8065 16.2651" fill="#34A853"/>
<path id="Fill 12" fill-rule="evenodd" clip-rule="evenodd" d="M78.424 9.9596C78.2657 9.48847 78.179 8.98593 78.179 8.46715C78.179 7.94837 78.2657 7.44583 78.424 6.9747V4.96564H75.8316C75.3003 6.01837 75 7.20756 75 8.46715C75 9.72674 75.3003 10.916 75.8316 11.9687L78.424 9.9596Z" fill="#FABB05"/>
<path id="Fill 14" fill-rule="evenodd" clip-rule="evenodd" d="M82.8065 3.75583C83.9568 3.75583 84.9879 4.15115 85.8011 4.92553V4.92661L88.0292 2.70094C86.6761 1.44243 84.912 0.669128 82.8065 0.669128C79.7565 0.669128 77.1164 2.41826 75.8316 4.9656L78.424 6.97467C79.042 5.12698 80.7703 3.75583 82.8065 3.75583" fill="#E94235"/>
</g>
</g>
</g>
</g>
</svg>
