<svg width="310" height="38" viewBox="0 0 310 38" fill="none" xmlns="http://www.w3.org/2000/svg">
<g id="cs_book_with_Dark">
<path id="Text" d="M3.46644 30V9.952H10.4944C11.7264 9.952 12.8278 10.2133 13.7984 10.736C14.7691 11.2587 15.5344 11.9867 16.0944 12.92C16.6731 13.8347 16.9624 14.8893 16.9624 16.084C16.9624 17.3907 16.5518 18.576 15.7304 19.64C14.9278 20.6853 13.7891 21.4133 12.3144 21.824L17.8864 29.832V30H14.3304L8.98244 22.132H6.54644V30H3.46644ZM10.5224 12.836H6.54644V19.304H10.4104C11.3624 19.304 12.1744 19.0053 12.8464 18.408C13.5184 17.792 13.8544 17.008 13.8544 16.056C13.8544 15.5147 13.7238 15.0013 13.4624 14.516C13.2011 14.012 12.8184 13.6107 12.3144 13.312C11.8291 12.9947 11.2318 12.836 10.5224 12.836ZM26.6028 30.448C25.2028 30.448 23.9522 30.1213 22.8508 29.468C21.7495 28.8147 20.8815 27.9187 20.2468 26.78C19.6308 25.6413 19.3228 24.344 19.3228 22.888C19.3228 21.5253 19.6215 20.2653 20.2188 19.108C20.8162 17.9507 21.6468 17.0267 22.7108 16.336C23.7935 15.6267 25.0348 15.272 26.4348 15.272C27.9095 15.272 29.1602 15.5893 30.1868 16.224C31.2322 16.8587 32.0255 17.7267 32.5668 18.828C33.1082 19.9293 33.3788 21.1707 33.3788 22.552C33.3788 22.7573 33.3695 22.944 33.3508 23.112C33.3508 23.28 33.3415 23.4107 33.3228 23.504H22.2908C22.4402 24.9227 22.9348 25.9867 23.7748 26.696C24.6335 27.4053 25.6042 27.76 26.6868 27.76C27.6575 27.76 28.4602 27.5453 29.0948 27.116C29.7295 26.668 30.2335 26.1173 30.6068 25.464L33.0988 26.668C32.4828 27.788 31.6428 28.7027 30.5788 29.412C29.5148 30.1027 28.1895 30.448 26.6028 30.448ZM26.4628 17.848C25.4548 17.848 24.5962 18.156 23.8868 18.772C23.1775 19.388 22.7015 20.2093 22.4588 21.236H30.3828C30.3455 20.7507 30.1868 20.2467 29.9068 19.724C29.6268 19.2013 29.1975 18.7627 28.6188 18.408C28.0588 18.0347 27.3402 17.848 26.4628 17.848ZM35.6196 30V27.48L43.5716 18.352H35.8716V15.72H47.2676V18.24L39.3436 27.368H47.4916V30H35.6196ZM56.8708 30.448C55.4708 30.448 54.2202 30.1213 53.1188 29.468C52.0175 28.8147 51.1495 27.9187 50.5148 26.78C49.8988 25.6413 49.5908 24.344 49.5908 22.888C49.5908 21.5253 49.8895 20.2653 50.4868 19.108C51.0842 17.9507 51.9148 17.0267 52.9788 16.336C54.0615 15.6267 55.3028 15.272 56.7028 15.272C58.1775 15.272 59.4282 15.5893 60.4548 16.224C61.5002 16.8587 62.2935 17.7267 62.8348 18.828C63.3762 19.9293 63.6468 21.1707 63.6468 22.552C63.6468 22.7573 63.6375 22.944 63.6188 23.112C63.6188 23.28 63.6095 23.4107 63.5908 23.504H52.5588C52.7082 24.9227 53.2028 25.9867 54.0428 26.696C54.9015 27.4053 55.8722 27.76 56.9548 27.76C57.9255 27.76 58.7282 27.5453 59.3628 27.116C59.9975 26.668 60.5015 26.1173 60.8748 25.464L63.3668 26.668C62.7508 27.788 61.9108 28.7027 60.8468 29.412C59.7828 30.1027 58.4575 30.448 56.8708 30.448ZM56.7308 17.848C55.7228 17.848 54.8642 18.156 54.1548 18.772C53.4455 19.388 52.9695 20.2093 52.7268 21.236H60.6508C60.6135 20.7507 60.4548 20.2467 60.1748 19.724C59.8948 19.2013 59.4655 18.7627 58.8868 18.408C58.3268 18.0347 57.6082 17.848 56.7308 17.848ZM66.7523 30V15.72H69.6083V17.82H69.7763C70.0936 17.092 70.6349 16.4947 71.4003 16.028C72.1843 15.5427 73.0243 15.3 73.9203 15.3C74.3123 15.3 74.6389 15.328 74.9003 15.384C75.1803 15.44 75.4323 15.5053 75.6563 15.58V18.716C75.3016 18.5667 74.9376 18.4453 74.5643 18.352C74.2096 18.2587 73.8363 18.212 73.4443 18.212C72.7349 18.212 72.1003 18.408 71.5403 18.8C70.9989 19.1733 70.5696 19.6867 70.2523 20.34C69.9349 20.9747 69.7763 21.6747 69.7763 22.44V30H66.7523ZM83.0954 30L77.1874 15.72H80.5474L84.5514 26.108H84.6914L88.7794 15.72H92.0834L86.1194 30H83.0954ZM100.65 30.448C99.1757 30.448 97.8784 30.112 96.7584 29.44C95.6384 28.768 94.7611 27.8627 94.1264 26.724C93.4917 25.5853 93.1744 24.2973 93.1744 22.86C93.1744 21.4413 93.4917 20.1627 94.1264 19.024C94.7611 17.8667 95.6384 16.952 96.7584 16.28C97.8784 15.608 99.1757 15.272 100.65 15.272C102.106 15.272 103.394 15.608 104.514 16.28C105.634 16.952 106.512 17.8667 107.146 19.024C107.781 20.1627 108.098 21.4413 108.098 22.86C108.098 24.2973 107.781 25.5853 107.146 26.724C106.512 27.8627 105.634 28.768 104.514 29.44C103.394 30.112 102.106 30.448 100.65 30.448ZM100.65 27.676C101.434 27.676 102.162 27.4893 102.834 27.116C103.506 26.724 104.048 26.1733 104.458 25.464C104.888 24.736 105.102 23.868 105.102 22.86C105.102 21.852 104.888 20.9933 104.458 20.284C104.048 19.556 103.506 19.0053 102.834 18.632C102.162 18.24 101.434 18.044 100.65 18.044C99.8664 18.044 99.1291 18.24 98.4384 18.632C97.7664 19.0053 97.2157 19.556 96.7864 20.284C96.3757 20.9933 96.1704 21.852 96.1704 22.86C96.1704 23.868 96.3757 24.736 96.7864 25.464C97.2157 26.1733 97.7664 26.724 98.4384 27.116C99.1291 27.4893 99.8664 27.676 100.65 27.676ZM115.113 30L109.205 15.72H112.565L116.569 26.108H116.709L120.797 15.72H124.101L118.137 30H115.113ZM130.565 30.448C129.538 30.448 128.624 30.252 127.821 29.86C127.018 29.4493 126.393 28.88 125.945 28.152C125.497 27.424 125.273 26.5933 125.273 25.66C125.273 24.652 125.534 23.7933 126.057 23.084C126.598 22.356 127.317 21.8053 128.213 21.432C129.109 21.0587 130.098 20.872 131.181 20.872C132.077 20.872 132.861 20.956 133.533 21.124C134.224 21.292 134.746 21.4693 135.101 21.656V20.9C135.101 19.9667 134.765 19.22 134.093 18.66C133.421 18.1 132.553 17.82 131.489 17.82C130.761 17.82 130.07 17.988 129.417 18.324C128.764 18.6413 128.241 19.08 127.849 19.64L125.777 18.044C126.393 17.1853 127.205 16.5133 128.213 16.028C129.24 15.524 130.36 15.272 131.573 15.272C133.645 15.272 135.241 15.7853 136.361 16.812C137.481 17.82 138.041 19.2387 138.041 21.068V30H135.101V28.236H134.933C134.56 28.8147 134 29.328 133.253 29.776C132.506 30.224 131.61 30.448 130.565 30.448ZM131.097 27.984C131.881 27.984 132.572 27.7973 133.169 27.424C133.766 27.0507 134.233 26.5653 134.569 25.968C134.924 25.352 135.101 24.6893 135.101 23.98C134.672 23.7373 134.168 23.5413 133.589 23.392C133.01 23.224 132.394 23.14 131.741 23.14C130.509 23.14 129.632 23.392 129.109 23.896C128.586 24.3813 128.325 24.9787 128.325 25.688C128.325 26.36 128.577 26.9107 129.081 27.34C129.585 27.7693 130.257 27.984 131.097 27.984ZM142.909 25.856V18.352H140.417V15.72H142.909V11.688H145.933V15.72H149.433V18.352H145.933V25.212C145.933 25.9213 146.073 26.4627 146.353 26.836C146.651 27.2093 147.146 27.396 147.837 27.396C148.191 27.396 148.49 27.3493 148.733 27.256C148.994 27.1627 149.255 27.032 149.517 26.864V29.804C149.199 29.9347 148.863 30.0373 148.509 30.112C148.154 30.1867 147.734 30.224 147.249 30.224C145.923 30.224 144.869 29.8413 144.085 29.076C143.301 28.292 142.909 27.2187 142.909 25.856ZM159.441 36.048V15.72H162.269V17.652H162.437C162.811 17.036 163.389 16.4853 164.173 16C164.976 15.5147 165.928 15.272 167.029 15.272C168.336 15.272 169.503 15.5987 170.529 16.252C171.556 16.9053 172.368 17.8013 172.965 18.94C173.581 20.0787 173.889 21.3853 173.889 22.86C173.889 24.3347 173.581 25.6507 172.965 26.808C172.368 27.9467 171.556 28.8427 170.529 29.496C169.503 30.1307 168.336 30.448 167.029 30.448C165.928 30.448 164.976 30.2147 164.173 29.748C163.389 29.2627 162.811 28.712 162.437 28.096H162.269L162.437 30.084V36.048H159.441ZM166.581 27.676C167.328 27.676 168.028 27.48 168.681 27.088C169.335 26.696 169.867 26.1453 170.277 25.436C170.688 24.708 170.893 23.8493 170.893 22.86C170.893 21.8707 170.688 21.0213 170.277 20.312C169.867 19.584 169.335 19.024 168.681 18.632C168.028 18.24 167.328 18.044 166.581 18.044C165.835 18.044 165.135 18.24 164.481 18.632C163.828 19.024 163.296 19.584 162.885 20.312C162.475 21.0213 162.269 21.8707 162.269 22.86C162.269 23.8493 162.475 24.708 162.885 25.436C163.296 26.1453 163.828 26.696 164.481 27.088C165.135 27.48 165.835 27.676 166.581 27.676ZM176.832 30V15.72H179.688V17.82H179.856C180.173 17.092 180.715 16.4947 181.48 16.028C182.264 15.5427 183.104 15.3 184 15.3C184.392 15.3 184.719 15.328 184.98 15.384C185.26 15.44 185.512 15.5053 185.736 15.58V18.716C185.381 18.5667 185.017 18.4453 184.644 18.352C184.289 18.2587 183.916 18.212 183.524 18.212C182.815 18.212 182.18 18.408 181.62 18.8C181.079 19.1733 180.649 19.6867 180.332 20.34C180.015 20.9747 179.856 21.6747 179.856 22.44V30H176.832ZM179.856 12.976L176.86 9.588V9.392H179.744L181.032 11.128H181.312L182.628 9.392H185.54V9.588L182.516 12.976H179.856ZM194.047 30.448C192.647 30.448 191.396 30.1213 190.295 29.468C189.193 28.8147 188.325 27.9187 187.691 26.78C187.075 25.6413 186.767 24.344 186.767 22.888C186.767 21.5253 187.065 20.2653 187.663 19.108C188.26 17.9507 189.091 17.0267 190.155 16.336C191.237 15.6267 192.479 15.272 193.879 15.272C195.353 15.272 196.604 15.5893 197.631 16.224C198.676 16.8587 199.469 17.7267 200.011 18.828C200.552 19.9293 200.823 21.1707 200.823 22.552C200.823 22.7573 200.813 22.944 200.795 23.112C200.795 23.28 200.785 23.4107 200.767 23.504H189.735C189.884 24.9227 190.379 25.9867 191.219 26.696C192.077 27.4053 193.048 27.76 194.131 27.76C195.101 27.76 195.904 27.5453 196.539 27.116C197.173 26.668 197.677 26.1173 198.051 25.464L200.543 26.668C199.927 27.788 199.087 28.7027 198.023 29.412C196.959 30.1027 195.633 30.448 194.047 30.448ZM193.907 17.848C192.899 17.848 192.04 18.156 191.331 18.772C190.621 19.388 190.145 20.2093 189.903 21.236H197.827C197.789 20.7507 197.631 20.2467 197.351 19.724C197.071 19.2013 196.641 18.7627 196.063 18.408C195.503 18.0347 194.784 17.848 193.907 17.848ZM209.273 30.448C207.555 30.448 206.183 30.0747 205.157 29.328C204.13 28.5627 203.421 27.6573 203.029 26.612L205.745 25.436C206.081 26.2013 206.566 26.7893 207.201 27.2C207.835 27.592 208.554 27.788 209.357 27.788C210.103 27.788 210.747 27.6573 211.289 27.396C211.83 27.116 212.101 26.668 212.101 26.052C212.101 25.4547 211.83 25.016 211.289 24.736C210.747 24.456 210.075 24.2133 209.273 24.008L207.565 23.616C206.874 23.448 206.23 23.1867 205.633 22.832C205.035 22.4773 204.55 22.02 204.177 21.46C203.803 20.8813 203.617 20.2093 203.617 19.444C203.617 18.604 203.869 17.876 204.373 17.26C204.877 16.6253 205.539 16.14 206.361 15.804C207.201 15.4493 208.106 15.272 209.077 15.272C210.402 15.272 211.559 15.5333 212.549 16.056C213.557 16.56 214.294 17.3253 214.761 18.352L212.157 19.528C211.821 18.8933 211.382 18.4547 210.841 18.212C210.318 17.9507 209.739 17.82 209.105 17.82C208.395 17.82 207.798 17.9693 207.313 18.268C206.846 18.5667 206.613 18.94 206.613 19.388C206.613 19.8733 206.818 20.256 207.229 20.536C207.658 20.816 208.181 21.04 208.797 21.208L210.869 21.712C212.287 22.0667 213.351 22.608 214.061 23.336C214.77 24.0453 215.125 24.9133 215.125 25.94C215.125 26.8547 214.863 27.6573 214.341 28.348C213.818 29.02 213.109 29.5427 212.213 29.916C211.335 30.2707 210.355 30.448 209.273 30.448Z" fill="white"/>
<g id="GPay Logo (Dark)">
<g id="GPay">
<g id="Pay">
<path id="Fill 1" fill-rule="evenodd" clip-rule="evenodd" d="M266.529 9.34665V17.5128H271.565C272.765 17.5128 273.757 17.1096 274.541 16.3032C275.347 15.4988 275.75 14.5394 275.75 13.4288C275.75 12.3406 275.347 11.3924 274.541 10.586C273.757 9.75916 272.765 9.34479 271.565 9.34479H266.529V9.34665ZM266.529 20.3872V29.8599H263.521V6.47218H271.499C273.527 6.47218 275.248 7.14787 276.666 8.49738C278.105 9.84688 278.824 11.4913 278.824 13.4288C278.824 15.411 278.105 17.0667 276.666 18.3938C275.27 19.7227 273.547 20.3854 271.499 20.3854H266.529V20.3872Z" fill="white"/>
<path id="Fill 3" fill-rule="evenodd" clip-rule="evenodd" d="M281.864 24.9602C281.864 25.7442 282.197 26.3975 282.862 26.9201C283.527 27.4427 284.306 27.704 285.2 27.704C286.465 27.704 287.591 27.2354 288.584 26.3004C289.576 25.3634 290.071 24.264 290.071 23.0022C289.133 22.2612 287.825 21.8916 286.147 21.8916C284.925 21.8916 283.907 22.1866 283.09 22.7745C282.273 23.3623 281.864 24.0886 281.864 24.9602ZM285.756 13.3317C287.98 13.3317 289.735 13.9253 291.022 15.1124C292.308 16.2995 292.95 17.9271 292.95 19.9952V29.8599H290.073V27.6387H289.942C288.699 29.4677 287.042 30.3825 284.972 30.3825C283.206 30.3825 281.728 29.8599 280.541 28.8146C279.353 27.7694 278.759 26.4628 278.759 24.8949C278.759 23.2393 279.385 21.9232 280.638 20.9434C281.892 19.9635 283.565 19.4726 285.658 19.4726C287.444 19.4726 288.916 19.7993 290.071 20.4525V19.7657C290.071 18.7204 289.656 17.8338 288.829 17.104C287.999 16.3742 287.031 16.0102 285.919 16.0102C284.239 16.0102 282.911 16.7176 281.93 18.1343L279.28 16.4675C280.741 14.377 282.899 13.3317 285.756 13.3317Z" fill="white"/>
<path id="Fill 5" fill-rule="evenodd" clip-rule="evenodd" d="M309.463 13.8543L299.424 36.9154H296.318L300.046 28.8464L293.44 13.8543H296.71L301.484 25.3522H301.55L306.193 13.8543H309.463Z" fill="white"/>
</g>
<g id="G">
<path id="Fill 8" fill-rule="evenodd" clip-rule="evenodd" d="M254.373 18.3452C254.373 17.3989 254.293 16.4861 254.141 15.6126H241.454V20.7885H248.72C248.408 22.4757 247.465 23.9112 246.033 24.8725V28.2341H250.37C252.91 25.8935 254.373 22.4348 254.373 18.3452Z" fill="#4285F4"/>
<path id="Fill 10" fill-rule="evenodd" clip-rule="evenodd" d="M241.454 31.4782C245.084 31.4782 248.141 30.2873 250.37 28.2341L246.033 24.8725C244.826 25.6844 243.272 26.1585 241.454 26.1585C237.944 26.1585 234.966 23.7955 233.901 20.6112H229.433V24.0736C231.647 28.4637 236.197 31.4782 241.454 31.4782Z" fill="#34A853"/>
<path id="Fill 12" fill-rule="evenodd" clip-rule="evenodd" d="M233.901 20.6111C233.628 19.7992 233.479 18.9331 233.479 18.0391C233.479 17.145 233.628 16.2789 233.901 15.467V12.0045H229.433C228.518 13.8188 228 15.8683 228 18.0391C228 20.2098 228.518 22.2595 229.433 24.0736L233.901 20.6111Z" fill="#FABB05"/>
<path id="Fill 14" fill-rule="evenodd" clip-rule="evenodd" d="M241.454 9.91964C243.436 9.91964 245.213 10.6009 246.615 11.9355V11.9374L250.455 8.10163C248.123 5.93272 245.082 4.60001 241.454 4.60001C236.197 4.60001 231.647 7.61447 229.433 12.0046L233.901 15.467C234.966 12.2827 237.944 9.91964 241.454 9.91964Z" fill="#E94235"/>
</g>
</g>
</g>
</g>
</svg>
