<svg width="152" height="21" viewBox="0 0 152 21" fill="none" xmlns="http://www.w3.org/2000/svg">
<g id="cs_book_with_Pay_NBG">
<path id="Left Text" d="M2.271 15.0006V3.54461H6.287C6.991 3.54461 7.62033 3.69394 8.175 3.99261C8.72967 4.29128 9.167 4.70194 9.487 5.22461C9.81767 5.74728 9.983 6.35528 9.983 7.04861C9.983 7.50728 9.887 7.94461 9.695 8.36061C9.51367 8.77661 9.247 9.14994 8.895 9.48061C8.55367 9.80061 8.13767 10.0513 7.647 10.2326C7.551 10.2753 7.44967 10.3073 7.343 10.3286L10.511 14.9046V15.0006H8.479L5.423 10.5046H4.031V15.0006H2.271ZM4.031 8.88861H6.239C6.60167 8.88861 6.927 8.80861 7.215 8.64861C7.51367 8.48861 7.75367 8.26994 7.935 7.99261C8.11633 7.70461 8.207 7.38461 8.207 7.03261C8.207 6.72328 8.13233 6.42994 7.983 6.15261C7.83367 5.86461 7.615 5.63528 7.327 5.46461C7.04967 5.28328 6.70833 5.19261 6.303 5.19261H4.031V8.88861ZM15.4704 15.2566C14.6704 15.2566 13.9557 15.0699 13.3264 14.6966C12.697 14.3233 12.201 13.8113 11.8384 13.1606C11.4864 12.5099 11.3104 11.7686 11.3104 10.9366C11.3104 10.1579 11.481 9.43794 11.8224 8.77661C12.1637 8.11528 12.6384 7.58728 13.2464 7.19261C13.865 6.78728 14.5744 6.58461 15.3744 6.58461C16.217 6.58461 16.9317 6.76594 17.5184 7.12861C18.1157 7.49128 18.569 7.98728 18.8784 8.61661C19.1877 9.24594 19.3424 9.95528 19.3424 10.7446C19.3424 10.8619 19.337 10.9686 19.3264 11.0646C19.3264 11.1606 19.321 11.2353 19.3104 11.2886H13.0064C13.049 11.7366 13.161 12.1259 13.3424 12.4566C13.577 12.8726 13.8864 13.1873 14.2704 13.4006C14.6544 13.6139 15.0704 13.7206 15.5184 13.7206C16.0624 13.7206 16.5157 13.5979 16.8784 13.3526C17.2517 13.0966 17.545 12.7819 17.7584 12.4086L19.1824 13.0966C18.8304 13.7366 18.3504 14.2593 17.7424 14.6646C17.1344 15.0593 16.377 15.2566 15.4704 15.2566ZM13.1024 9.99261H17.6304C17.6197 9.78994 17.5664 9.57661 17.4704 9.35261C17.3744 9.11794 17.2357 8.90461 17.0544 8.71261C16.873 8.52061 16.6437 8.36594 16.3664 8.24861C16.089 8.12061 15.7637 8.05661 15.3904 8.05661C14.921 8.05661 14.505 8.17928 14.1424 8.42461C13.7797 8.65928 13.497 8.98994 13.2944 9.41661C13.209 9.59794 13.145 9.78994 13.1024 9.99261ZM20.6014 15.0006V13.5606L25.1454 8.34461H20.7454V6.84061H27.2574V8.28061L22.7294 13.4966H27.3854V15.0006H20.6014ZM32.7235 15.2566C31.9235 15.2566 31.2088 15.0699 30.5795 14.6966C29.9502 14.3233 29.4542 13.8113 29.0915 13.1606C28.7395 12.5099 28.5635 11.7686 28.5635 10.9366C28.5635 10.1579 28.7342 9.43794 29.0755 8.77661C29.4168 8.11528 29.8915 7.58728 30.4995 7.19261C31.1182 6.78728 31.8275 6.58461 32.6275 6.58461C33.4702 6.58461 34.1848 6.76594 34.7715 7.12861C35.3688 7.49128 35.8222 7.98728 36.1315 8.61661C36.4408 9.24594 36.5955 9.95528 36.5955 10.7446C36.5955 10.8619 36.5902 10.9686 36.5795 11.0646C36.5795 11.1606 36.5742 11.2353 36.5635 11.2886H30.2595C30.3022 11.7366 30.4142 12.1259 30.5955 12.4566C30.8302 12.8726 31.1395 13.1873 31.5235 13.4006C31.9075 13.6139 32.3235 13.7206 32.7715 13.7206C33.3155 13.7206 33.7688 13.5979 34.1315 13.3526C34.5048 13.0966 34.7982 12.7819 35.0115 12.4086L36.4355 13.0966C36.0835 13.7366 35.6035 14.2593 34.9955 14.6646C34.3875 15.0593 33.6302 15.2566 32.7235 15.2566ZM30.3555 9.99261H34.8835C34.8728 9.78994 34.8195 9.57661 34.7235 9.35261C34.6275 9.11794 34.4888 8.90461 34.3075 8.71261C34.1262 8.52061 33.8968 8.36594 33.6195 8.24861C33.3422 8.12061 33.0168 8.05661 32.6435 8.05661C32.1742 8.05661 31.7582 8.17928 31.3955 8.42461C31.0328 8.65928 30.7502 8.98994 30.5475 9.41661C30.4622 9.59794 30.3982 9.78994 30.3555 9.99261ZM38.3486 15.0006V6.84061H39.9806V8.04061H40.0766C40.2046 7.76328 40.386 7.51794 40.6206 7.30461C40.866 7.09128 41.1433 6.92061 41.4526 6.79261C41.7726 6.66461 42.1033 6.60061 42.4446 6.60061C42.6686 6.60061 42.8553 6.61661 43.0046 6.64861C43.1646 6.66994 43.3086 6.70728 43.4366 6.76061V8.55261C43.234 8.46728 43.026 8.39794 42.8126 8.34461C42.61 8.29128 42.3966 8.26461 42.1726 8.26461C41.7673 8.26461 41.4046 8.37661 41.0846 8.60061C40.7753 8.81394 40.53 9.10194 40.3486 9.46461C40.1673 9.82728 40.0766 10.2326 40.0766 10.6806V15.0006H38.3486ZM47.6661 15.0006L44.2901 6.84061H46.2101L48.4981 12.7766H48.5781L50.9141 6.84061H52.8021L49.3941 15.0006H47.6661ZM57.6761 15.2566C56.8335 15.2566 56.0921 15.0646 55.4521 14.6806C54.8121 14.2966 54.3108 13.7793 53.9481 13.1286C53.5855 12.4673 53.4041 11.7313 53.4041 10.9206C53.4041 10.1099 53.5855 9.37928 53.9481 8.72861C54.3108 8.06728 54.8121 7.54461 55.4521 7.16061C56.0921 6.77661 56.8335 6.58461 57.6761 6.58461C58.5081 6.58461 59.2441 6.78194 59.8841 7.17661C60.5241 7.56061 61.0255 8.07794 61.3881 8.72861C61.7508 9.37928 61.9321 10.1099 61.9321 10.9206C61.9321 11.7313 61.7508 12.4673 61.3881 13.1286C61.0255 13.7793 60.5241 14.2966 59.8841 14.6806C59.2441 15.0646 58.5081 15.2566 57.6761 15.2566ZM57.6761 13.6726C58.1241 13.6726 58.5401 13.5659 58.9241 13.3526C59.3081 13.1286 59.6175 12.8139 59.8521 12.4086C60.0975 11.9926 60.2201 11.4966 60.2201 10.9206C60.2201 10.3446 60.0975 9.85394 59.8521 9.44861C59.6175 9.03261 59.3081 8.71794 58.9241 8.50461C58.5401 8.28061 58.1241 8.16861 57.6761 8.16861C57.2281 8.16861 56.8068 8.28061 56.4121 8.50461C56.0281 8.71794 55.7135 9.03261 55.4681 9.44861C55.2335 9.85394 55.1161 10.3446 55.1161 10.9206C55.1161 11.4966 55.2335 11.9926 55.4681 12.4086C55.7135 12.8139 56.0335 13.1286 56.4281 13.3526C56.8228 13.5659 57.2388 13.6726 57.6761 13.6726ZM65.9192 15.0006L62.5432 6.84061H64.4632L66.7512 12.7766H66.8312L69.1672 6.84061H71.0552L67.6472 15.0006H65.9192ZM74.7274 15.2566C74.1407 15.2566 73.618 15.1393 73.1594 14.9046C72.7114 14.6699 72.354 14.3499 72.0874 13.9446C71.8314 13.5286 71.7034 13.0539 71.7034 12.5206C71.7034 11.9339 71.8527 11.4379 72.1514 11.0326C72.4607 10.6273 72.8714 10.3179 73.3834 10.1046C73.8954 9.89128 74.4607 9.78461 75.0794 9.78461C75.4207 9.78461 75.7354 9.81128 76.0234 9.86461C76.322 9.90728 76.578 9.96061 76.7914 10.0246C77.0154 10.0886 77.1914 10.1579 77.3194 10.2326V9.80061C77.3194 9.26728 77.1274 8.84061 76.7434 8.52061C76.3594 8.20061 75.8634 8.04061 75.2554 8.04061C74.8394 8.04061 74.4447 8.13661 74.0714 8.32861C73.698 8.50994 73.3994 8.76061 73.1754 9.08061L71.9914 8.16861C72.226 7.83794 72.5087 7.55528 72.8394 7.32061C73.1807 7.08594 73.5594 6.90461 73.9754 6.77661C74.402 6.64861 74.8447 6.58461 75.3034 6.58461C76.4874 6.58461 77.3994 6.87794 78.0394 7.46461C78.6794 8.04061 78.9994 8.85128 78.9994 9.89661V15.0006H77.3194V13.9926H77.2234C77.0847 14.2059 76.8927 14.4086 76.6474 14.6006C76.4127 14.7926 76.13 14.9473 75.7994 15.0646C75.4794 15.1926 75.122 15.2566 74.7274 15.2566ZM75.0314 13.8486C75.4794 13.8486 75.874 13.7419 76.2154 13.5286C76.5674 13.3153 76.8394 13.0379 77.0314 12.6966C77.2234 12.3446 77.3194 11.9659 77.3194 11.5606C77.0847 11.4219 76.7967 11.3099 76.4554 11.2246C76.1247 11.1286 75.7727 11.0806 75.3994 11.0806C74.6954 11.0806 74.194 11.2193 73.8954 11.4966C73.5967 11.7739 73.4474 12.1206 73.4474 12.5366C73.4474 12.9206 73.5914 13.2353 73.8794 13.4806C74.1674 13.7259 74.5514 13.8486 75.0314 13.8486ZM80.3355 6.84061H81.7595V4.53661H83.4875V6.84061H85.4875V8.34461H83.4875V12.2646C83.4875 12.6699 83.5675 12.9793 83.7275 13.1926C83.8982 13.4059 84.1808 13.5126 84.5755 13.5126C84.7675 13.5126 84.9382 13.4859 85.0875 13.4326C85.2368 13.3686 85.3862 13.2939 85.5355 13.2086V14.8886C85.3542 14.9633 85.1622 15.0219 84.9595 15.0646C84.7568 15.1073 84.5168 15.1286 84.2395 15.1286C83.4822 15.1286 82.8795 14.9099 82.4315 14.4726C81.9835 14.0246 81.7595 13.4113 81.7595 12.6326V8.34461H80.3355V6.84061ZM94.1559 15.2566C93.5052 15.2566 92.9399 15.1606 92.4599 14.9686C91.9799 14.7659 91.5852 14.4993 91.2759 14.1686C90.9665 13.8273 90.7372 13.4593 90.5879 13.0646L92.1399 12.3926C92.3319 12.8299 92.6039 13.1659 92.9559 13.4006C93.3185 13.6246 93.7345 13.7366 94.2039 13.7366C94.6305 13.7366 94.9985 13.6619 95.3079 13.5126C95.6172 13.3526 95.7719 13.0966 95.7719 12.7446C95.7719 12.5206 95.6972 12.3393 95.5479 12.2006C95.4092 12.0513 95.2172 11.9286 94.9719 11.8326C94.7372 11.7366 94.4652 11.6513 94.1559 11.5766L93.1799 11.3526C92.7959 11.2566 92.4279 11.1073 92.0759 10.9046C91.7345 10.6913 91.4572 10.4246 91.2439 10.1046C91.0305 9.78461 90.9239 9.40594 90.9239 8.96861C90.9239 8.47794 91.0625 8.05661 91.3399 7.70461C91.6279 7.34194 92.0119 7.06461 92.4919 6.87261C92.9719 6.68061 93.4892 6.58461 94.0439 6.58461C94.5559 6.58461 95.0199 6.65394 95.4359 6.79261C95.8625 6.92061 96.2305 7.11794 96.5399 7.38461C96.8599 7.64061 97.1105 7.96061 97.2919 8.34461L95.8039 9.01661C95.6225 8.65394 95.3772 8.40328 95.0679 8.26461C94.7585 8.11528 94.4225 8.04061 94.0599 8.04061C93.6545 8.04061 93.3132 8.12594 93.0359 8.29661C92.7692 8.45661 92.6359 8.66994 92.6359 8.93661C92.6359 9.21394 92.7532 9.43261 92.9879 9.59261C93.2332 9.75261 93.5319 9.88061 93.8839 9.97661L95.0679 10.2646C95.8785 10.4673 96.4865 10.7766 96.8919 11.1926C97.2972 11.5979 97.4999 12.0939 97.4999 12.6806C97.4999 13.2033 97.3505 13.6619 97.0519 14.0566C96.7532 14.4406 96.3479 14.7393 95.8359 14.9526C95.3345 15.1553 94.7745 15.2566 94.1559 15.2566Z" fill="white"/>
<g id="GPay (Dark)">
<g id="GPay">
<g id="Pay">
<path id="Fill 1" fill-rule="evenodd" clip-rule="evenodd" d="M126.356 3.42339V8.16175H129.278C129.974 8.16175 130.55 7.92781 131.005 7.45993C131.473 6.99313 131.707 6.43644 131.707 5.79203C131.707 5.16061 131.473 4.61041 131.005 4.14254C130.55 3.66274 129.974 3.4223 129.278 3.4223H126.356V3.42339ZM126.356 9.82966V15.3262H124.611V1.75549H129.24C130.417 1.75549 131.415 2.14756 132.238 2.93061C133.073 3.71365 133.491 4.66782 133.491 5.79203C133.491 6.94224 133.073 7.90291 132.238 8.67296C131.428 9.44409 130.429 9.82858 129.24 9.82858H126.356V9.82966Z" fill="white"/>
<path id="Fill 3" fill-rule="evenodd" clip-rule="evenodd" d="M135.255 12.4831C135.255 12.9379 135.448 13.317 135.834 13.6203C136.22 13.9235 136.672 14.0752 137.19 14.0752C137.924 14.0752 138.578 13.8032 139.153 13.2607C139.729 12.717 140.017 12.0791 140.017 11.3469C139.472 10.917 138.713 10.7025 137.74 10.7025C137.031 10.7025 136.44 10.8736 135.966 11.2148C135.492 11.5559 135.255 11.9773 135.255 12.4831M137.513 5.73566C138.803 5.73566 139.821 6.08007 140.569 6.76889C141.314 7.45771 141.687 8.40213 141.687 9.60216V15.3261H140.018V14.0373H139.942C139.221 15.0985 138.259 15.6294 137.058 15.6294C136.033 15.6294 135.176 15.3261 134.487 14.7196C133.797 14.1131 133.453 13.3549 133.453 12.4452C133.453 11.4845 133.816 10.7208 134.543 10.1523C135.271 9.58375 136.241 9.2989 137.456 9.2989C138.492 9.2989 139.346 9.48844 140.017 9.86751V9.46894C140.017 8.86243 139.776 8.34798 139.296 7.92451C138.814 7.50103 138.252 7.28984 137.607 7.28984C136.633 7.28984 135.862 7.70032 135.293 8.52235L133.755 7.55519C134.603 6.34217 135.855 5.73566 137.513 5.73566" fill="white"/>
<path id="Fill 5" fill-rule="evenodd" clip-rule="evenodd" d="M151.269 6.03894L145.443 19.4201H143.641L145.804 14.738L141.971 6.03894H143.869L146.639 12.7106H146.677L149.371 6.03894H151.269Z" fill="white"/>
</g>
<g id="G">
<path id="Fill 8" fill-rule="evenodd" clip-rule="evenodd" d="M119.303 8.64473C119.303 8.09563 119.256 7.56601 119.168 7.05914H111.806V10.0625H116.023C115.842 11.0414 115.294 11.8744 114.464 12.4322V14.3828H116.98C118.454 13.0246 119.303 11.0177 119.303 8.64473" fill="#4285F4"/>
<path id="Fill 10" fill-rule="evenodd" clip-rule="evenodd" d="M111.806 16.2651C113.913 16.2651 115.687 15.5741 116.98 14.3828L114.464 12.4322C113.763 12.9033 112.861 13.1784 111.806 13.1784C109.77 13.1784 108.042 11.8073 107.424 9.95959H104.832V11.9687C106.116 14.516 108.757 16.2651 111.806 16.2651" fill="#34A853"/>
<path id="Fill 12" fill-rule="evenodd" clip-rule="evenodd" d="M107.424 9.9596C107.266 9.48847 107.179 8.98593 107.179 8.46715C107.179 7.94837 107.266 7.44583 107.424 6.9747V4.96564H104.832C104.3 6.01837 104 7.20756 104 8.46715C104 9.72674 104.3 10.916 104.832 11.9687L107.424 9.9596Z" fill="#FABB05"/>
<path id="Fill 14" fill-rule="evenodd" clip-rule="evenodd" d="M111.806 3.75583C112.957 3.75583 113.988 4.15115 114.801 4.92553V4.92661L117.029 2.70094C115.676 1.44243 113.912 0.669128 111.806 0.669128C108.757 0.669128 106.116 2.41826 104.832 4.9656L107.424 6.97467C108.042 5.12698 109.77 3.75583 111.806 3.75583" fill="#E94235"/>
</g>
</g>
</g>
</g>
</svg>
