<svg width="116" height="21" viewBox="0 0 116 21" fill="none" xmlns="http://www.w3.org/2000/svg">
<g id="cs_buy_with_Pay_NBG">
<path id="Left Text" d="M1.65225 15.0006V3.54461H3.41225V9.17661L8.18025 3.54461H10.3563V3.64061L6.16425 8.47261L10.7243 14.9046V15.0006H8.58025L4.98025 9.84861L3.41225 11.6726V15.0006H1.65225ZM15.573 15.2566C14.7303 15.2566 13.989 15.0646 13.349 14.6806C12.709 14.2966 12.2077 13.7793 11.845 13.1286C11.4823 12.4673 11.301 11.7313 11.301 10.9206C11.301 10.1099 11.4823 9.37928 11.845 8.72861C12.2077 8.06728 12.709 7.54461 13.349 7.16061C13.989 6.77661 14.7303 6.58461 15.573 6.58461C16.405 6.58461 17.141 6.78194 17.781 7.17661C18.421 7.56061 18.9223 8.07794 19.285 8.72861C19.6477 9.37928 19.829 10.1099 19.829 10.9206C19.829 11.7313 19.6477 12.4673 19.285 13.1286C18.9223 13.7793 18.421 14.2966 17.781 14.6806C17.141 15.0646 16.405 15.2566 15.573 15.2566ZM15.573 13.6726C16.021 13.6726 16.437 13.5659 16.821 13.3526C17.205 13.1286 17.5143 12.8139 17.749 12.4086C17.9943 11.9926 18.117 11.4966 18.117 10.9206C18.117 10.3446 17.9943 9.85394 17.749 9.44861C17.5143 9.03261 17.205 8.71794 16.821 8.50461C16.437 8.28061 16.021 8.16861 15.573 8.16861C15.125 8.16861 14.7037 8.28061 14.309 8.50461C13.925 8.71794 13.6103 9.03261 13.365 9.44861C13.1303 9.85394 13.013 10.3446 13.013 10.9206C13.013 11.4966 13.1303 11.9926 13.365 12.4086C13.6103 12.8139 13.9303 13.1286 14.325 13.3526C14.7197 13.5659 15.1357 13.6726 15.573 13.6726ZM24.4524 15.2566C23.4497 15.2566 22.6924 14.9579 22.1804 14.3606C21.679 13.7526 21.4284 12.9313 21.4284 11.8966V6.84061H23.1564V11.6566C23.1564 12.3393 23.3164 12.8459 23.6364 13.1766C23.967 13.5073 24.3777 13.6726 24.8684 13.6726C25.3164 13.6726 25.7004 13.5606 26.0204 13.3366C26.3404 13.1019 26.5857 12.7979 26.7564 12.4246C26.9377 12.0513 27.0284 11.6513 27.0284 11.2246V6.84061H28.7404V15.0006H27.1244V13.8966H27.0284C26.879 14.1526 26.671 14.3819 26.4044 14.5846C26.1377 14.7873 25.839 14.9473 25.5084 15.0646C25.1777 15.1926 24.8257 15.2566 24.4524 15.2566ZM30.9076 18.4566V6.84061H32.5236V7.94461H32.6196C32.769 7.70994 32.9663 7.49128 33.2116 7.28861C33.4676 7.07528 33.7663 6.90461 34.1076 6.77661C34.449 6.64861 34.8276 6.58461 35.2436 6.58461C35.9903 6.58461 36.657 6.77128 37.2436 7.14461C37.8303 7.51794 38.2943 8.02994 38.6356 8.68061C38.9876 9.33128 39.1636 10.0779 39.1636 10.9206C39.1636 11.7633 38.9876 12.5099 38.6356 13.1606C38.2943 13.8113 37.8303 14.3233 37.2436 14.6966C36.657 15.0699 35.9903 15.2566 35.2436 15.2566C34.625 15.2566 34.0863 15.1179 33.6276 14.8406C33.169 14.5633 32.833 14.2539 32.6196 13.9126H32.5236L32.6196 15.0486V18.4566H30.9076ZM34.9876 13.6726C35.4143 13.6726 35.8143 13.5606 36.1876 13.3366C36.5716 13.1126 36.8756 12.7926 37.0996 12.3766C37.3343 11.9606 37.4516 11.4753 37.4516 10.9206C37.4516 10.3553 37.3343 9.86994 37.0996 9.46461C36.8756 9.04861 36.5716 8.72861 36.1876 8.50461C35.8143 8.28061 35.4143 8.16861 34.9876 8.16861C34.561 8.16861 34.161 8.28061 33.7876 8.50461C33.4143 8.72861 33.1103 9.04861 32.8756 9.46461C32.641 9.86994 32.5236 10.3553 32.5236 10.9206C32.5236 11.4859 32.641 11.9766 32.8756 12.3926C33.1103 12.7979 33.4143 13.1126 33.7876 13.3366C34.161 13.5606 34.561 13.6726 34.9876 13.6726ZM40.9516 15.0006V6.84061H42.6796V15.0006H40.9516ZM41.8156 5.64061C41.4956 5.64061 41.2183 5.52861 40.9836 5.30461C40.7596 5.06994 40.6476 4.79261 40.6476 4.47261C40.6476 4.14194 40.7596 3.86994 40.9836 3.65661C41.2183 3.43261 41.4956 3.32061 41.8156 3.32061C42.1463 3.32061 42.4236 3.43261 42.6476 3.65661C42.8716 3.86994 42.9836 4.14194 42.9836 4.47261C42.9836 4.79261 42.8716 5.06994 42.6476 5.30461C42.4236 5.52861 42.1463 5.64061 41.8156 5.64061ZM44.3355 6.84061H45.7595V4.53661H47.4875V6.84061H49.4875V8.34461H47.4875V12.2646C47.4875 12.6699 47.5675 12.9793 47.7275 13.1926C47.8982 13.4059 48.1808 13.5126 48.5755 13.5126C48.7675 13.5126 48.9382 13.4859 49.0875 13.4326C49.2368 13.3686 49.3862 13.2939 49.5355 13.2086V14.8886C49.3542 14.9633 49.1622 15.0219 48.9595 15.0646C48.7568 15.1073 48.5168 15.1286 48.2395 15.1286C47.4822 15.1286 46.8795 14.9099 46.4315 14.4726C45.9835 14.0246 45.7595 13.4113 45.7595 12.6326V8.34461H44.3355V6.84061ZM58.1559 15.2566C57.5052 15.2566 56.9399 15.1606 56.4599 14.9686C55.9799 14.7659 55.5852 14.4993 55.2759 14.1686C54.9665 13.8273 54.7372 13.4593 54.5879 13.0646L56.1399 12.3926C56.3319 12.8299 56.6039 13.1659 56.9559 13.4006C57.3185 13.6246 57.7345 13.7366 58.2039 13.7366C58.6305 13.7366 58.9985 13.6619 59.3079 13.5126C59.6172 13.3526 59.7719 13.0966 59.7719 12.7446C59.7719 12.5206 59.6972 12.3393 59.5479 12.2006C59.4092 12.0513 59.2172 11.9286 58.9719 11.8326C58.7372 11.7366 58.4652 11.6513 58.1559 11.5766L57.1799 11.3526C56.7959 11.2566 56.4279 11.1073 56.0759 10.9046C55.7345 10.6913 55.4572 10.4246 55.2439 10.1046C55.0305 9.78461 54.9239 9.40594 54.9239 8.96861C54.9239 8.47794 55.0625 8.05661 55.3399 7.70461C55.6279 7.34194 56.0119 7.06461 56.4919 6.87261C56.9719 6.68061 57.4892 6.58461 58.0439 6.58461C58.5559 6.58461 59.0199 6.65394 59.4359 6.79261C59.8625 6.92061 60.2305 7.11794 60.5399 7.38461C60.8599 7.64061 61.1105 7.96061 61.2919 8.34461L59.8039 9.01661C59.6225 8.65394 59.3772 8.40328 59.0679 8.26461C58.7585 8.11528 58.4225 8.04061 58.0599 8.04061C57.6545 8.04061 57.3132 8.12594 57.0359 8.29661C56.7692 8.45661 56.6359 8.66994 56.6359 8.93661C56.6359 9.21394 56.7532 9.43261 56.9879 9.59261C57.2332 9.75261 57.5319 9.88061 57.8839 9.97661L59.0679 10.2646C59.8785 10.4673 60.4865 10.7766 60.8919 11.1926C61.2972 11.5979 61.4999 12.0939 61.4999 12.6806C61.4999 13.2033 61.3505 13.6619 61.0519 14.0566C60.7532 14.4406 60.3479 14.7393 59.8359 14.9526C59.3345 15.1553 58.7745 15.2566 58.1559 15.2566Z" fill="white"/>
<g id="GPay (Dark)">
<g id="GPay">
<g id="Pay">
<path id="Fill 1" fill-rule="evenodd" clip-rule="evenodd" d="M90.3563 3.42339V8.16175H93.2784C93.9745 8.16175 94.5501 7.92781 95.0055 7.45993C95.4728 6.99313 95.707 6.43644 95.707 5.79203C95.707 5.16061 95.4728 4.61041 95.0055 4.14254C94.5501 3.66274 93.9745 3.4223 93.2784 3.4223H90.3563V3.42339ZM90.3563 9.82966V15.3262H88.6107V1.75549H93.2404C94.4169 1.75549 95.4154 2.14756 96.2383 2.93061C97.0732 3.71365 97.4906 4.66782 97.4906 5.79203C97.4906 6.94224 97.0731 7.90291 96.2383 8.67296C95.4283 9.44409 94.4287 9.82858 93.2404 9.82858H90.3563V9.82966Z" fill="white"/>
<path id="Fill 3" fill-rule="evenodd" clip-rule="evenodd" d="M99.2546 12.4831C99.2546 12.9379 99.4476 13.317 99.8337 13.6203C100.22 13.9235 100.672 14.0752 101.19 14.0752C101.924 14.0752 102.578 13.8032 103.153 13.2607C103.729 12.717 104.017 12.0791 104.017 11.3469C103.472 10.917 102.713 10.7025 101.74 10.7025C101.031 10.7025 100.44 10.8736 99.9659 11.2148C99.492 11.5559 99.2546 11.9773 99.2546 12.4831M101.513 5.73566C102.803 5.73566 103.821 6.08007 104.569 6.76889C105.314 7.45771 105.687 8.40213 105.687 9.60216V15.3261H104.018V14.0373H103.942C103.221 15.0985 102.259 15.6294 101.058 15.6294C100.033 15.6294 99.1755 15.3261 98.4869 14.7196C97.7975 14.1131 97.4527 13.3549 97.4527 12.4452C97.4527 11.4845 97.8158 10.7208 98.5433 10.1523C99.2708 9.58375 100.241 9.2989 101.456 9.2989C102.492 9.2989 103.346 9.48844 104.017 9.86751V9.46894C104.017 8.86243 103.776 8.34798 103.296 7.92451C102.814 7.50103 102.252 7.28984 101.607 7.28984C100.633 7.28984 99.8618 7.70032 99.2926 8.52235L97.7551 7.55519C98.6029 6.34217 99.8552 5.73566 101.513 5.73566" fill="white"/>
<path id="Fill 5" fill-rule="evenodd" clip-rule="evenodd" d="M115.269 6.03894L109.443 19.4201H107.641L109.804 14.738L105.971 6.03894H107.869L110.639 12.7106H110.677L113.371 6.03894H115.269Z" fill="white"/>
</g>
<g id="G">
<path id="Fill 8" fill-rule="evenodd" clip-rule="evenodd" d="M83.3029 8.64473C83.3029 8.09563 83.2562 7.56601 83.1684 7.05914H75.8065V10.0625H80.0231C79.842 11.0414 79.2944 11.8744 78.4639 12.4322V14.3828H80.9804C82.4539 13.0246 83.3029 11.0177 83.3029 8.64473" fill="#4285F4"/>
<path id="Fill 10" fill-rule="evenodd" clip-rule="evenodd" d="M75.8065 16.2651C77.9131 16.2651 79.6869 15.5741 80.9804 14.3828L78.4639 12.4322C77.7635 12.9033 76.8614 13.1784 75.8065 13.1784C73.7703 13.1784 72.042 11.8073 71.424 9.95959H68.8316V11.9687C70.1164 14.516 72.7565 16.2651 75.8065 16.2651" fill="#34A853"/>
<path id="Fill 12" fill-rule="evenodd" clip-rule="evenodd" d="M71.424 9.9596C71.2657 9.48847 71.179 8.98593 71.179 8.46715C71.179 7.94837 71.2657 7.44583 71.424 6.9747V4.96564H68.8316C68.3003 6.01837 68 7.20756 68 8.46715C68 9.72674 68.3003 10.916 68.8316 11.9687L71.424 9.9596Z" fill="#FABB05"/>
<path id="Fill 14" fill-rule="evenodd" clip-rule="evenodd" d="M75.8065 3.75583C76.9568 3.75583 77.9879 4.15115 78.8011 4.92553V4.92661L81.0292 2.70094C79.6761 1.44243 77.912 0.669128 75.8065 0.669128C72.7565 0.669128 70.1164 2.41826 68.8316 4.9656L71.424 6.97467C72.042 5.12698 73.7703 3.75583 75.8065 3.75583" fill="#E94235"/>
</g>
</g>
</g>
</g>
</svg>
