<svg width="248" height="38" viewBox="0 0 248 38" fill="none" xmlns="http://www.w3.org/2000/svg">
<g id="cs_checkout_with_Dark">
<path id="Text" d="M3.53363 30V9.952H6.61363V19.808L14.9576 9.952H18.7656V10.12L11.4296 18.576L19.4096 29.832V30H15.6576L9.35763 20.984L6.61363 24.176V30H3.53363ZM27.9324 30.448C26.4578 30.448 25.1604 30.112 24.0404 29.44C22.9204 28.768 22.0431 27.8627 21.4084 26.724C20.7738 25.5853 20.4564 24.2973 20.4564 22.86C20.4564 21.4413 20.7738 20.1627 21.4084 19.024C22.0431 17.8667 22.9204 16.952 24.0404 16.28C25.1604 15.608 26.4578 15.272 27.9324 15.272C29.3884 15.272 30.6764 15.608 31.7964 16.28C32.9164 16.952 33.7938 17.8667 34.4284 19.024C35.0631 20.1627 35.3804 21.4413 35.3804 22.86C35.3804 24.2973 35.0631 25.5853 34.4284 26.724C33.7938 27.8627 32.9164 28.768 31.7964 29.44C30.6764 30.112 29.3884 30.448 27.9324 30.448ZM27.9324 27.676C28.7164 27.676 29.4444 27.4893 30.1164 27.116C30.7884 26.724 31.3298 26.1733 31.7404 25.464C32.1698 24.736 32.3844 23.868 32.3844 22.86C32.3844 21.852 32.1698 20.9933 31.7404 20.284C31.3298 19.556 30.7884 19.0053 30.1164 18.632C29.4444 18.24 28.7164 18.044 27.9324 18.044C27.1484 18.044 26.4111 18.24 25.7204 18.632C25.0484 19.0053 24.4978 19.556 24.0684 20.284C23.6578 20.9933 23.4524 21.852 23.4524 22.86C23.4524 23.868 23.6578 24.736 24.0684 25.464C24.4978 26.1733 25.0484 26.724 25.7204 27.116C26.4111 27.4893 27.1484 27.676 27.9324 27.676ZM43.5088 30.448C41.7542 30.448 40.4288 29.9253 39.5328 28.88C38.6555 27.816 38.2168 26.3787 38.2168 24.568V15.72H41.2408V24.148C41.2408 25.3613 41.5208 26.2573 42.0808 26.836C42.6595 27.396 43.3782 27.676 44.2368 27.676C45.0022 27.676 45.6648 27.48 46.2248 27.088C46.8035 26.6773 47.2422 26.1547 47.5408 25.52C47.8582 24.8667 48.0168 24.1573 48.0168 23.392V15.72H51.0128V30H48.1848V28.068H48.0168C47.6062 28.74 46.9902 29.3093 46.1688 29.776C45.3662 30.224 44.4795 30.448 43.5088 30.448ZM54.843 36.048V15.72H57.671V17.652H57.839C58.2124 17.036 58.791 16.4853 59.575 16C60.3777 15.5147 61.3297 15.272 62.431 15.272C63.7377 15.272 64.9044 15.5987 65.931 16.252C66.9577 16.9053 67.7697 17.8013 68.367 18.94C68.983 20.0787 69.291 21.3853 69.291 22.86C69.291 24.3347 68.983 25.6507 68.367 26.808C67.7697 27.9467 66.9577 28.8427 65.931 29.496C64.9044 30.1307 63.7377 30.448 62.431 30.448C61.3297 30.448 60.3777 30.2147 59.575 29.748C58.791 29.2627 58.2124 28.712 57.839 28.096H57.671L57.839 30.084V36.048H54.843ZM61.983 27.676C62.7297 27.676 63.4297 27.48 64.083 27.088C64.7364 26.696 65.2684 26.1453 65.679 25.436C66.0897 24.708 66.295 23.8493 66.295 22.86C66.295 21.8707 66.0897 21.0213 65.679 20.312C65.2684 19.584 64.7364 19.024 64.083 18.632C63.4297 18.24 62.7297 18.044 61.983 18.044C61.2364 18.044 60.5364 18.24 59.883 18.632C59.2297 19.024 58.6977 19.584 58.287 20.312C57.8764 21.0213 57.671 21.8707 57.671 22.86C57.671 23.8493 57.8764 24.708 58.287 25.436C58.6977 26.1453 59.2297 26.696 59.883 27.088C60.5364 27.48 61.2364 27.676 61.983 27.676ZM73.9695 13.62C73.4095 13.62 72.9242 13.424 72.5135 13.032C72.1215 12.6213 71.9255 12.136 71.9255 11.576C71.9255 11.016 72.1215 10.54 72.5135 10.148C72.9242 9.756 73.4095 9.56 73.9695 9.56C74.5295 9.56 75.0055 9.756 75.3975 10.148C75.8082 10.54 76.0135 11.016 76.0135 11.576C76.0135 12.136 75.8082 12.6213 75.3975 13.032C75.0055 13.424 74.5295 13.62 73.9695 13.62ZM72.4575 30V15.72H75.4815V30H72.4575ZM80.9088 25.856V18.352H78.4168V15.72H80.9088V11.688H83.9328V15.72H87.4328V18.352H83.9328V25.212C83.9328 25.9213 84.0728 26.4627 84.3528 26.836C84.6515 27.2093 85.1461 27.396 85.8368 27.396C86.1915 27.396 86.4901 27.3493 86.7328 27.256C86.9941 27.1627 87.2555 27.032 87.5168 26.864V29.804C87.1995 29.9347 86.8635 30.0373 86.5088 30.112C86.1541 30.1867 85.7341 30.224 85.2488 30.224C83.9235 30.224 82.8688 29.8413 82.0848 29.076C81.3008 28.292 80.9088 27.2187 80.9088 25.856ZM97.4415 36.048V15.72H100.269V17.652H100.437C100.811 17.036 101.389 16.4853 102.173 16C102.976 15.5147 103.928 15.272 105.029 15.272C106.336 15.272 107.503 15.5987 108.529 16.252C109.556 16.9053 110.368 17.8013 110.965 18.94C111.581 20.0787 111.889 21.3853 111.889 22.86C111.889 24.3347 111.581 25.6507 110.965 26.808C110.368 27.9467 109.556 28.8427 108.529 29.496C107.503 30.1307 106.336 30.448 105.029 30.448C103.928 30.448 102.976 30.2147 102.173 29.748C101.389 29.2627 100.811 28.712 100.437 28.096H100.269L100.437 30.084V36.048H97.4415ZM104.581 27.676C105.328 27.676 106.028 27.48 106.681 27.088C107.335 26.696 107.867 26.1453 108.277 25.436C108.688 24.708 108.893 23.8493 108.893 22.86C108.893 21.8707 108.688 21.0213 108.277 20.312C107.867 19.584 107.335 19.024 106.681 18.632C106.028 18.24 105.328 18.044 104.581 18.044C103.835 18.044 103.135 18.24 102.481 18.632C101.828 19.024 101.296 19.584 100.885 20.312C100.475 21.0213 100.269 21.8707 100.269 22.86C100.269 23.8493 100.475 24.708 100.885 25.436C101.296 26.1453 101.828 26.696 102.481 27.088C103.135 27.48 103.835 27.676 104.581 27.676ZM114.832 30V15.72H117.688V17.82H117.856C118.173 17.092 118.715 16.4947 119.48 16.028C120.264 15.5427 121.104 15.3 122 15.3C122.392 15.3 122.719 15.328 122.98 15.384C123.26 15.44 123.512 15.5053 123.736 15.58V18.716C123.381 18.5667 123.017 18.4453 122.644 18.352C122.289 18.2587 121.916 18.212 121.524 18.212C120.815 18.212 120.18 18.408 119.62 18.8C119.079 19.1733 118.649 19.6867 118.332 20.34C118.015 20.9747 117.856 21.6747 117.856 22.44V30H114.832ZM117.856 12.976L114.86 9.588V9.392H117.744L119.032 11.128H119.312L120.628 9.392H123.54V9.588L120.516 12.976H117.856ZM132.047 30.448C130.647 30.448 129.396 30.1213 128.295 29.468C127.193 28.8147 126.325 27.9187 125.691 26.78C125.075 25.6413 124.767 24.344 124.767 22.888C124.767 21.5253 125.065 20.2653 125.663 19.108C126.26 17.9507 127.091 17.0267 128.155 16.336C129.237 15.6267 130.479 15.272 131.879 15.272C133.353 15.272 134.604 15.5893 135.631 16.224C136.676 16.8587 137.469 17.7267 138.011 18.828C138.552 19.9293 138.823 21.1707 138.823 22.552C138.823 22.7573 138.813 22.944 138.795 23.112C138.795 23.28 138.785 23.4107 138.767 23.504H127.735C127.884 24.9227 128.379 25.9867 129.219 26.696C130.077 27.4053 131.048 27.76 132.131 27.76C133.101 27.76 133.904 27.5453 134.539 27.116C135.173 26.668 135.677 26.1173 136.051 25.464L138.543 26.668C137.927 27.788 137.087 28.7027 136.023 29.412C134.959 30.1027 133.633 30.448 132.047 30.448ZM131.907 17.848C130.899 17.848 130.04 18.156 129.331 18.772C128.621 19.388 128.145 20.2093 127.903 21.236H135.827C135.789 20.7507 135.631 20.2467 135.351 19.724C135.071 19.2013 134.641 18.7627 134.063 18.408C133.503 18.0347 132.784 17.848 131.907 17.848ZM147.273 30.448C145.555 30.448 144.183 30.0747 143.157 29.328C142.13 28.5627 141.421 27.6573 141.029 26.612L143.745 25.436C144.081 26.2013 144.566 26.7893 145.201 27.2C145.835 27.592 146.554 27.788 147.357 27.788C148.103 27.788 148.747 27.6573 149.289 27.396C149.83 27.116 150.101 26.668 150.101 26.052C150.101 25.4547 149.83 25.016 149.289 24.736C148.747 24.456 148.075 24.2133 147.273 24.008L145.565 23.616C144.874 23.448 144.23 23.1867 143.633 22.832C143.035 22.4773 142.55 22.02 142.177 21.46C141.803 20.8813 141.617 20.2093 141.617 19.444C141.617 18.604 141.869 17.876 142.373 17.26C142.877 16.6253 143.539 16.14 144.361 15.804C145.201 15.4493 146.106 15.272 147.077 15.272C148.402 15.272 149.559 15.5333 150.549 16.056C151.557 16.56 152.294 17.3253 152.761 18.352L150.157 19.528C149.821 18.8933 149.382 18.4547 148.841 18.212C148.318 17.9507 147.739 17.82 147.105 17.82C146.395 17.82 145.798 17.9693 145.313 18.268C144.846 18.5667 144.613 18.94 144.613 19.388C144.613 19.8733 144.818 20.256 145.229 20.536C145.658 20.816 146.181 21.04 146.797 21.208L148.869 21.712C150.287 22.0667 151.351 22.608 152.061 23.336C152.77 24.0453 153.125 24.9133 153.125 25.94C153.125 26.8547 152.863 27.6573 152.341 28.348C151.818 29.02 151.109 29.5427 150.213 29.916C149.335 30.2707 148.355 30.448 147.273 30.448Z" fill="white"/>
<g id="GPay Logo (Dark)">
<g id="GPay">
<g id="Pay">
<path id="Fill 1" fill-rule="evenodd" clip-rule="evenodd" d="M204.529 9.34665V17.5128H209.565C210.765 17.5128 211.757 17.1096 212.541 16.3032C213.347 15.4988 213.75 14.5394 213.75 13.4288C213.75 12.3406 213.347 11.3924 212.541 10.586C211.757 9.75916 210.765 9.34479 209.565 9.34479H204.529V9.34665ZM204.529 20.3872V29.8599H201.521V6.47218H209.499C211.527 6.47218 213.248 7.14787 214.666 8.49738C216.105 9.84688 216.824 11.4913 216.824 13.4288C216.824 15.411 216.105 17.0667 214.666 18.3938C213.27 19.7227 211.547 20.3854 209.499 20.3854H204.529V20.3872Z" fill="white"/>
<path id="Fill 3" fill-rule="evenodd" clip-rule="evenodd" d="M219.864 24.9602C219.864 25.7442 220.197 26.3975 220.862 26.9201C221.527 27.4427 222.306 27.704 223.2 27.704C224.465 27.704 225.591 27.2354 226.584 26.3004C227.576 25.3634 228.071 24.264 228.071 23.0022C227.133 22.2612 225.825 21.8916 224.147 21.8916C222.925 21.8916 221.907 22.1866 221.09 22.7745C220.273 23.3623 219.864 24.0886 219.864 24.9602ZM223.756 13.3317C225.98 13.3317 227.735 13.9253 229.022 15.1124C230.308 16.2995 230.95 17.9271 230.95 19.9952V29.8599H228.073V27.6387H227.942C226.699 29.4677 225.042 30.3825 222.972 30.3825C221.206 30.3825 219.728 29.8599 218.541 28.8146C217.353 27.7694 216.759 26.4628 216.759 24.8949C216.759 23.2393 217.385 21.9232 218.638 20.9434C219.892 19.9635 221.565 19.4726 223.658 19.4726C225.444 19.4726 226.916 19.7993 228.071 20.4525V19.7657C228.071 18.7204 227.656 17.8338 226.829 17.104C225.999 16.3742 225.031 16.0102 223.919 16.0102C222.239 16.0102 220.911 16.7176 219.93 18.1343L217.28 16.4675C218.741 14.377 220.899 13.3317 223.756 13.3317Z" fill="white"/>
<path id="Fill 5" fill-rule="evenodd" clip-rule="evenodd" d="M247.463 13.8543L237.424 36.9154H234.318L238.046 28.8464L231.44 13.8543H234.71L239.484 25.3522H239.55L244.193 13.8543H247.463Z" fill="white"/>
</g>
<g id="G">
<path id="Fill 8" fill-rule="evenodd" clip-rule="evenodd" d="M192.373 18.3452C192.373 17.3989 192.293 16.4861 192.141 15.6126H179.454V20.7885H186.72C186.408 22.4757 185.465 23.9112 184.033 24.8725V28.2341H188.37C190.91 25.8935 192.373 22.4348 192.373 18.3452Z" fill="#4285F4"/>
<path id="Fill 10" fill-rule="evenodd" clip-rule="evenodd" d="M179.454 31.4782C183.084 31.4782 186.141 30.2873 188.37 28.2341L184.033 24.8725C182.826 25.6844 181.272 26.1585 179.454 26.1585C175.944 26.1585 172.966 23.7955 171.901 20.6112H167.433V24.0736C169.647 28.4637 174.197 31.4782 179.454 31.4782Z" fill="#34A853"/>
<path id="Fill 12" fill-rule="evenodd" clip-rule="evenodd" d="M171.901 20.6111C171.628 19.7992 171.479 18.9331 171.479 18.0391C171.479 17.145 171.628 16.2789 171.901 15.467V12.0045H167.433C166.518 13.8188 166 15.8683 166 18.0391C166 20.2098 166.518 22.2595 167.433 24.0736L171.901 20.6111Z" fill="#FABB05"/>
<path id="Fill 14" fill-rule="evenodd" clip-rule="evenodd" d="M179.454 9.91964C181.436 9.91964 183.213 10.6009 184.615 11.9355V11.9374L188.455 8.10163C186.123 5.93272 183.082 4.60001 179.454 4.60001C174.197 4.60001 169.647 7.61447 167.433 12.0046L171.901 15.467C172.966 12.2827 175.944 9.91964 179.454 9.91964Z" fill="#E94235"/>
</g>
</g>
</g>
</g>
</svg>
