<svg width="124" height="21" viewBox="0 0 124 21" fill="none" xmlns="http://www.w3.org/2000/svg">
<g id="cs_checkout_with_Pay_NBG">
<path id="Left Text" d="M1.05488 15.0006V13.2086L7.05488 5.20861H1.31088V3.54461H9.08688V5.33661L3.13488 13.3366H9.15088V15.0006H1.05488ZM13.618 15.2566C13.0313 15.2566 12.5087 15.1393 12.05 14.9046C11.602 14.6699 11.2447 14.3499 10.978 13.9446C10.722 13.5286 10.594 13.0539 10.594 12.5206C10.594 11.9339 10.7433 11.4379 11.042 11.0326C11.3513 10.6273 11.762 10.3179 12.274 10.1046C12.786 9.89128 13.3513 9.78461 13.97 9.78461C14.3113 9.78461 14.626 9.81128 14.914 9.86461C15.2127 9.90728 15.4687 9.96061 15.682 10.0246C15.906 10.0886 16.082 10.1579 16.21 10.2326V9.80061C16.21 9.26728 16.018 8.84061 15.634 8.52061C15.25 8.20061 14.754 8.04061 14.146 8.04061C13.73 8.04061 13.3353 8.13661 12.962 8.32861C12.5887 8.50994 12.29 8.76061 12.066 9.08061L10.882 8.16861C11.1167 7.83794 11.3993 7.55528 11.73 7.32061C12.0713 7.08594 12.45 6.90461 12.866 6.77661C13.2927 6.64861 13.7353 6.58461 14.194 6.58461C15.378 6.58461 16.29 6.87794 16.93 7.46461C17.57 8.04061 17.89 8.85128 17.89 9.89661V15.0006H16.21V13.9926H16.114C15.9753 14.2059 15.7833 14.4086 15.538 14.6006C15.3033 14.7926 15.0207 14.9473 14.69 15.0646C14.37 15.1926 14.0127 15.2566 13.618 15.2566ZM13.922 13.8486C14.37 13.8486 14.7647 13.7419 15.106 13.5286C15.458 13.3153 15.73 13.0379 15.922 12.6966C16.114 12.3446 16.21 11.9659 16.21 11.5606C15.9753 11.4219 15.6873 11.3099 15.346 11.2246C15.0153 11.1286 14.6633 11.0806 14.29 11.0806C13.586 11.0806 13.0847 11.2193 12.786 11.4966C12.4873 11.7739 12.338 12.1206 12.338 12.5366C12.338 12.9206 12.482 13.2353 12.77 13.4806C13.058 13.7259 13.442 13.8486 13.922 13.8486ZM19.9264 18.4566V6.84061H21.5424V7.94461H21.6384C21.7877 7.70994 21.985 7.49128 22.2304 7.28861C22.4864 7.07528 22.785 6.90461 23.1264 6.77661C23.4677 6.64861 23.8464 6.58461 24.2624 6.58461C25.009 6.58461 25.6757 6.77128 26.2624 7.14461C26.849 7.51794 27.313 8.02994 27.6544 8.68061C28.0064 9.33128 28.1824 10.0779 28.1824 10.9206C28.1824 11.7633 28.0064 12.5099 27.6544 13.1606C27.313 13.8113 26.849 14.3233 26.2624 14.6966C25.6757 15.0699 25.009 15.2566 24.2624 15.2566C23.6437 15.2566 23.105 15.1179 22.6464 14.8406C22.1877 14.5633 21.8517 14.2539 21.6384 13.9126H21.5424L21.6384 15.0486V18.4566H19.9264ZM24.0064 13.6726C24.433 13.6726 24.833 13.5606 25.2064 13.3366C25.5904 13.1126 25.8944 12.7926 26.1184 12.3766C26.353 11.9606 26.4704 11.4753 26.4704 10.9206C26.4704 10.3553 26.353 9.86994 26.1184 9.46461C25.8944 9.04861 25.5904 8.72861 25.2064 8.50461C24.833 8.28061 24.433 8.16861 24.0064 8.16861C23.5797 8.16861 23.1797 8.28061 22.8064 8.50461C22.433 8.72861 22.129 9.04861 21.8944 9.46461C21.6597 9.86994 21.5424 10.3553 21.5424 10.9206C21.5424 11.4859 21.6597 11.9766 21.8944 12.3926C22.129 12.7979 22.433 13.1126 22.8064 13.3366C23.1797 13.5606 23.5797 13.6726 24.0064 13.6726ZM29.7803 15.0006V3.54461H31.5083V15.0006H29.7803ZM36.1774 15.2566C35.5907 15.2566 35.068 15.1393 34.6094 14.9046C34.1614 14.6699 33.804 14.3499 33.5374 13.9446C33.2814 13.5286 33.1534 13.0539 33.1534 12.5206C33.1534 11.9339 33.3027 11.4379 33.6014 11.0326C33.9107 10.6273 34.3214 10.3179 34.8334 10.1046C35.3454 9.89128 35.9107 9.78461 36.5294 9.78461C36.8707 9.78461 37.1854 9.81128 37.4734 9.86461C37.772 9.90728 38.028 9.96061 38.2414 10.0246C38.4654 10.0886 38.6414 10.1579 38.7694 10.2326V9.80061C38.7694 9.26728 38.5774 8.84061 38.1934 8.52061C37.8094 8.20061 37.3134 8.04061 36.7054 8.04061C36.2894 8.04061 35.8947 8.13661 35.5214 8.32861C35.148 8.50994 34.8494 8.76061 34.6254 9.08061L33.4414 8.16861C33.676 7.83794 33.9587 7.55528 34.2894 7.32061C34.6307 7.08594 35.0094 6.90461 35.4254 6.77661C35.852 6.64861 36.2947 6.58461 36.7534 6.58461C37.9374 6.58461 38.8494 6.87794 39.4894 7.46461C40.1294 8.04061 40.4494 8.85128 40.4494 9.89661V15.0006H38.7694V13.9926H38.6734C38.5347 14.2059 38.3427 14.4086 38.0974 14.6006C37.8627 14.7926 37.58 14.9473 37.2494 15.0646C36.9294 15.1926 36.572 15.2566 36.1774 15.2566ZM36.4814 13.8486C36.9294 13.8486 37.324 13.7419 37.6654 13.5286C38.0174 13.3153 38.2894 13.0379 38.4814 12.6966C38.6734 12.3446 38.7694 11.9659 38.7694 11.5606C38.5347 11.4219 38.2467 11.3099 37.9054 11.2246C37.5747 11.1286 37.2227 11.0806 36.8494 11.0806C36.1454 11.0806 35.644 11.2193 35.3454 11.4966C35.0467 11.7739 34.8974 12.1206 34.8974 12.5366C34.8974 12.9206 35.0414 13.2353 35.3294 13.4806C35.6174 13.7259 36.0014 13.8486 36.4814 13.8486ZM41.7855 6.84061H43.2095V4.53661H44.9375V6.84061H46.9375V8.34461H44.9375V12.2646C44.9375 12.6699 45.0175 12.9793 45.1775 13.1926C45.3482 13.4059 45.6308 13.5126 46.0255 13.5126C46.2175 13.5126 46.3882 13.4859 46.5375 13.4326C46.6868 13.3686 46.8362 13.2939 46.9855 13.2086V14.8886C46.8042 14.9633 46.6122 15.0219 46.4095 15.0646C46.2068 15.1073 45.9668 15.1286 45.6895 15.1286C44.9322 15.1286 44.3295 14.9099 43.8815 14.4726C43.4335 14.0246 43.2095 13.4113 43.2095 12.6326V8.34461H41.7855V6.84061ZM48.9516 15.0006V6.84061H50.6796V15.0006H48.9516ZM49.8156 5.64061C49.4956 5.64061 49.2183 5.52861 48.9836 5.30461C48.7596 5.06994 48.6476 4.79261 48.6476 4.47261C48.6476 4.14194 48.7596 3.86994 48.9836 3.65661C49.2183 3.43261 49.4956 3.32061 49.8156 3.32061C50.1463 3.32061 50.4236 3.43261 50.6476 3.65661C50.8716 3.86994 50.9836 4.14194 50.9836 4.47261C50.9836 4.79261 50.8716 5.06994 50.6476 5.30461C50.4236 5.52861 50.1463 5.64061 49.8156 5.64061ZM52.3355 6.84061H53.7595V4.53661H55.4875V6.84061H57.4875V8.34461H55.4875V12.2646C55.4875 12.6699 55.5675 12.9793 55.7275 13.1926C55.8982 13.4059 56.1808 13.5126 56.5755 13.5126C56.7675 13.5126 56.9382 13.4859 57.0875 13.4326C57.2368 13.3686 57.3862 13.2939 57.5355 13.2086V14.8886C57.3542 14.9633 57.1622 15.0219 56.9595 15.0646C56.7568 15.1073 56.5168 15.1286 56.2395 15.1286C55.4822 15.1286 54.8795 14.9099 54.4315 14.4726C53.9835 14.0246 53.7595 13.4113 53.7595 12.6326V8.34461H52.3355V6.84061ZM66.1559 15.2566C65.5052 15.2566 64.9399 15.1606 64.4599 14.9686C63.9799 14.7659 63.5852 14.4993 63.2759 14.1686C62.9665 13.8273 62.7372 13.4593 62.5879 13.0646L64.1399 12.3926C64.3319 12.8299 64.6039 13.1659 64.9559 13.4006C65.3185 13.6246 65.7345 13.7366 66.2039 13.7366C66.6305 13.7366 66.9985 13.6619 67.3079 13.5126C67.6172 13.3526 67.7719 13.0966 67.7719 12.7446C67.7719 12.5206 67.6972 12.3393 67.5479 12.2006C67.4092 12.0513 67.2172 11.9286 66.9719 11.8326C66.7372 11.7366 66.4652 11.6513 66.1559 11.5766L65.1799 11.3526C64.7959 11.2566 64.4279 11.1073 64.0759 10.9046C63.7345 10.6913 63.4572 10.4246 63.2439 10.1046C63.0305 9.78461 62.9239 9.40594 62.9239 8.96861C62.9239 8.47794 63.0625 8.05661 63.3399 7.70461C63.6279 7.34194 64.0119 7.06461 64.4919 6.87261C64.9719 6.68061 65.4892 6.58461 66.0439 6.58461C66.5559 6.58461 67.0199 6.65394 67.4359 6.79261C67.8625 6.92061 68.2305 7.11794 68.5399 7.38461C68.8599 7.64061 69.1105 7.96061 69.2919 8.34461L67.8039 9.01661C67.6225 8.65394 67.3772 8.40328 67.0679 8.26461C66.7585 8.11528 66.4225 8.04061 66.0599 8.04061C65.6545 8.04061 65.3132 8.12594 65.0359 8.29661C64.7692 8.45661 64.6359 8.66994 64.6359 8.93661C64.6359 9.21394 64.7532 9.43261 64.9879 9.59261C65.2332 9.75261 65.5319 9.88061 65.8839 9.97661L67.0679 10.2646C67.8785 10.4673 68.4865 10.7766 68.8919 11.1926C69.2972 11.5979 69.4999 12.0939 69.4999 12.6806C69.4999 13.2033 69.3505 13.6619 69.0519 14.0566C68.7532 14.4406 68.3479 14.7393 67.8359 14.9526C67.3345 15.1553 66.7745 15.2566 66.1559 15.2566Z" fill="white"/>
<g id="GPay (Dark)">
<g id="GPay">
<g id="Pay">
<path id="Fill 1" fill-rule="evenodd" clip-rule="evenodd" d="M98.3563 3.42339V8.16175H101.278C101.974 8.16175 102.55 7.92781 103.005 7.45993C103.473 6.99313 103.707 6.43644 103.707 5.79203C103.707 5.16061 103.473 4.61041 103.005 4.14254C102.55 3.66274 101.974 3.4223 101.278 3.4223H98.3563V3.42339ZM98.3563 9.82966V15.3262H96.6107V1.75549H101.24C102.417 1.75549 103.415 2.14756 104.238 2.93061C105.073 3.71365 105.491 4.66782 105.491 5.79203C105.491 6.94224 105.073 7.90291 104.238 8.67296C103.428 9.44409 102.429 9.82858 101.24 9.82858H98.3563V9.82966Z" fill="white"/>
<path id="Fill 3" fill-rule="evenodd" clip-rule="evenodd" d="M107.255 12.4831C107.255 12.9379 107.448 13.317 107.834 13.6203C108.22 13.9235 108.672 14.0752 109.19 14.0752C109.924 14.0752 110.578 13.8032 111.153 13.2607C111.729 12.717 112.017 12.0791 112.017 11.3469C111.472 10.917 110.713 10.7025 109.74 10.7025C109.031 10.7025 108.44 10.8736 107.966 11.2148C107.492 11.5559 107.255 11.9773 107.255 12.4831M109.513 5.73566C110.803 5.73566 111.821 6.08007 112.569 6.76889C113.314 7.45771 113.687 8.40213 113.687 9.60216V15.3261H112.018V14.0373H111.942C111.221 15.0985 110.259 15.6294 109.058 15.6294C108.033 15.6294 107.176 15.3261 106.487 14.7196C105.797 14.1131 105.453 13.3549 105.453 12.4452C105.453 11.4845 105.816 10.7208 106.543 10.1523C107.271 9.58375 108.241 9.2989 109.456 9.2989C110.492 9.2989 111.346 9.48844 112.017 9.86751V9.46894C112.017 8.86243 111.776 8.34798 111.296 7.92451C110.814 7.50103 110.252 7.28984 109.607 7.28984C108.633 7.28984 107.862 7.70032 107.293 8.52235L105.755 7.55519C106.603 6.34217 107.855 5.73566 109.513 5.73566" fill="white"/>
<path id="Fill 5" fill-rule="evenodd" clip-rule="evenodd" d="M123.269 6.03894L117.443 19.4201H115.641L117.804 14.738L113.971 6.03894H115.869L118.639 12.7106H118.677L121.371 6.03894H123.269Z" fill="white"/>
</g>
<g id="G">
<path id="Fill 8" fill-rule="evenodd" clip-rule="evenodd" d="M91.3029 8.64473C91.3029 8.09563 91.2562 7.56601 91.1684 7.05914H83.8065V10.0625H88.0231C87.842 11.0414 87.2944 11.8744 86.4639 12.4322V14.3828H88.9804C90.4539 13.0246 91.3029 11.0177 91.3029 8.64473" fill="#4285F4"/>
<path id="Fill 10" fill-rule="evenodd" clip-rule="evenodd" d="M83.8065 16.2651C85.9131 16.2651 87.6869 15.5741 88.9804 14.3828L86.4639 12.4322C85.7635 12.9033 84.8614 13.1784 83.8065 13.1784C81.7703 13.1784 80.042 11.8073 79.424 9.95959H76.8316V11.9687C78.1164 14.516 80.7565 16.2651 83.8065 16.2651" fill="#34A853"/>
<path id="Fill 12" fill-rule="evenodd" clip-rule="evenodd" d="M79.424 9.9596C79.2657 9.48847 79.179 8.98593 79.179 8.46715C79.179 7.94837 79.2657 7.44583 79.424 6.9747V4.96564H76.8316C76.3003 6.01837 76 7.20756 76 8.46715C76 9.72674 76.3003 10.916 76.8316 11.9687L79.424 9.9596Z" fill="#FABB05"/>
<path id="Fill 14" fill-rule="evenodd" clip-rule="evenodd" d="M83.8065 3.75583C84.9568 3.75583 85.9879 4.15115 86.8011 4.92553V4.92661L89.0292 2.70094C87.6761 1.44243 85.912 0.669128 83.8065 0.669128C80.7565 0.669128 78.1164 2.41826 76.8316 4.9656L79.424 6.97467C80.042 5.12698 81.7703 3.75583 83.8065 3.75583" fill="#E94235"/>
</g>
</g>
</g>
</g>
</svg>
