<svg width="308" height="38" viewBox="0 0 308 38" fill="none" xmlns="http://www.w3.org/2000/svg">
<g id="cs_donate_with_Dark">
<path id="Text" d="M4.06332 30V9.952H10.4753C12.5847 9.952 14.3953 10.3813 15.9073 11.24C17.438 12.08 18.614 13.256 19.4353 14.768C20.2753 16.28 20.6953 18.016 20.6953 19.976C20.6953 21.9547 20.2753 23.7 19.4353 25.212C18.614 26.7053 17.438 27.8813 15.9073 28.74C14.3953 29.58 12.5847 30 10.4753 30H4.06332ZM7.14332 27.088H10.3913C12.6687 27.088 14.4327 26.4533 15.6833 25.184C16.9527 23.9147 17.5873 22.1787 17.5873 19.976C17.5873 17.7733 16.9527 16.0373 15.6833 14.768C14.4327 13.4987 12.6687 12.864 10.3913 12.864H7.14332V27.088ZM28.4917 30.448C27.465 30.448 26.5503 30.252 25.7477 29.86C24.945 29.4493 24.3197 28.88 23.8717 28.152C23.4237 27.424 23.1997 26.5933 23.1997 25.66C23.1997 24.652 23.461 23.7933 23.9837 23.084C24.525 22.356 25.2437 21.8053 26.1397 21.432C27.0357 21.0587 28.025 20.872 29.1077 20.872C30.0037 20.872 30.7877 20.956 31.4597 21.124C32.1503 21.292 32.673 21.4693 33.0277 21.656V20.9C33.0277 19.9667 32.6917 19.22 32.0197 18.66C31.3477 18.1 30.4797 17.82 29.4157 17.82C28.6877 17.82 27.997 17.988 27.3437 18.324C26.6903 18.6413 26.1677 19.08 25.7757 19.64L23.7037 18.044C24.3197 17.1853 25.1317 16.5133 26.1397 16.028C27.1663 15.524 28.2863 15.272 29.4997 15.272C31.5717 15.272 33.1677 15.7853 34.2877 16.812C35.4077 17.82 35.9677 19.2387 35.9677 21.068V30H33.0277V28.236H32.8597C32.4863 28.8147 31.9263 29.328 31.1797 29.776C30.433 30.224 29.537 30.448 28.4917 30.448ZM29.0237 27.984C29.8077 27.984 30.4983 27.7973 31.0957 27.424C31.693 27.0507 32.1597 26.5653 32.4957 25.968C32.8503 25.352 33.0277 24.6893 33.0277 23.98C32.5983 23.7373 32.0943 23.5413 31.5157 23.392C30.937 23.224 30.321 23.14 29.6677 23.14C28.4357 23.14 27.5583 23.392 27.0357 23.896C26.513 24.3813 26.2517 24.9787 26.2517 25.688C26.2517 26.36 26.5037 26.9107 27.0077 27.34C27.5117 27.7693 28.1837 27.984 29.0237 27.984ZM39.5968 30V15.72H42.4528V17.82H42.6208C42.9382 17.092 43.4795 16.4947 44.2448 16.028C45.0288 15.5427 45.8688 15.3 46.7648 15.3C47.1568 15.3 47.4835 15.328 47.7448 15.384C48.0248 15.44 48.2768 15.5053 48.5008 15.58V18.716C48.1462 18.5667 47.7822 18.4453 47.4088 18.352C47.0542 18.2587 46.6808 18.212 46.2888 18.212C45.5795 18.212 44.9448 18.408 44.3848 18.8C43.8435 19.1733 43.4142 19.6867 43.0968 20.34C42.7795 20.9747 42.6208 21.6747 42.6208 22.44V30H39.5968ZM57.0074 30.448C55.5328 30.448 54.2354 30.112 53.1154 29.44C51.9954 28.768 51.1181 27.8627 50.4834 26.724C49.8488 25.5853 49.5314 24.2973 49.5314 22.86C49.5314 21.4413 49.8488 20.1627 50.4834 19.024C51.1181 17.8667 51.9954 16.952 53.1154 16.28C54.2354 15.608 55.5328 15.272 57.0074 15.272C58.4634 15.272 59.7514 15.608 60.8714 16.28C61.9914 16.952 62.8688 17.8667 63.5034 19.024C64.1381 20.1627 64.4554 21.4413 64.4554 22.86C64.4554 24.2973 64.1381 25.5853 63.5034 26.724C62.8688 27.8627 61.9914 28.768 60.8714 29.44C59.7514 30.112 58.4634 30.448 57.0074 30.448ZM57.0074 27.676C57.7914 27.676 58.5194 27.4893 59.1914 27.116C59.8634 26.724 60.4048 26.1733 60.8154 25.464C61.2448 24.736 61.4594 23.868 61.4594 22.86C61.4594 21.852 61.2448 20.9933 60.8154 20.284C60.4048 19.556 59.8634 19.0053 59.1914 18.632C58.5194 18.24 57.7914 18.044 57.0074 18.044C56.2234 18.044 55.4861 18.24 54.7954 18.632C54.1234 19.0053 53.5728 19.556 53.1434 20.284C52.7328 20.9933 52.5274 21.852 52.5274 22.86C52.5274 23.868 52.7328 24.736 53.1434 25.464C53.5728 26.1733 54.1234 26.724 54.7954 27.116C55.4861 27.4893 56.2234 27.676 57.0074 27.676ZM71.4704 30L65.5624 15.72H68.9224L72.9264 26.108H73.0664L77.1544 15.72H80.4584L74.4944 30H71.4704ZM86.9221 30.448C85.8955 30.448 84.9808 30.252 84.1781 29.86C83.3755 29.4493 82.7501 28.88 82.3021 28.152C81.8541 27.424 81.6301 26.5933 81.6301 25.66C81.6301 24.652 81.8915 23.7933 82.4141 23.084C82.9555 22.356 83.6741 21.8053 84.5701 21.432C85.4661 21.0587 86.4555 20.872 87.5381 20.872C88.4341 20.872 89.2181 20.956 89.8901 21.124C90.5808 21.292 91.1035 21.4693 91.4581 21.656V20.9C91.4581 19.9667 91.1221 19.22 90.4501 18.66C89.7781 18.1 88.9101 17.82 87.8461 17.82C87.1181 17.82 86.4275 17.988 85.7741 18.324C85.1208 18.6413 84.5981 19.08 84.2061 19.64L82.1341 18.044C82.7501 17.1853 83.5621 16.5133 84.5701 16.028C85.5968 15.524 86.7168 15.272 87.9301 15.272C90.0021 15.272 91.5981 15.7853 92.7181 16.812C93.8381 17.82 94.3981 19.2387 94.3981 21.068V30H91.4581V28.236H91.2901C90.9168 28.8147 90.3568 29.328 89.6101 29.776C88.8635 30.224 87.9675 30.448 86.9221 30.448ZM87.4541 27.984C88.2381 27.984 88.9288 27.7973 89.5261 27.424C90.1235 27.0507 90.5901 26.5653 90.9261 25.968C91.2808 25.352 91.4581 24.6893 91.4581 23.98C91.0288 23.7373 90.5248 23.5413 89.9461 23.392C89.3675 23.224 88.7515 23.14 88.0981 23.14C86.8661 23.14 85.9888 23.392 85.4661 23.896C84.9435 24.3813 84.6821 24.9787 84.6821 25.688C84.6821 26.36 84.9341 26.9107 85.4381 27.34C85.9421 27.7693 86.6141 27.984 87.4541 27.984ZM99.2659 25.856V18.352H96.7739V15.72H99.2659V11.688H102.29V15.72H105.79V18.352H102.29V25.212C102.29 25.9213 102.43 26.4627 102.71 26.836C103.009 27.2093 103.503 27.396 104.194 27.396C104.549 27.396 104.847 27.3493 105.09 27.256C105.351 27.1627 105.613 27.032 105.874 26.864V29.804C105.557 29.9347 105.221 30.0373 104.866 30.112C104.511 30.1867 104.091 30.224 103.606 30.224C102.281 30.224 101.226 29.8413 100.442 29.076C99.6579 28.292 99.2659 27.2187 99.2659 25.856ZM115.799 36.048V15.72H118.627V17.652H118.795C119.168 17.036 119.747 16.4853 120.531 16C121.333 15.5147 122.285 15.272 123.387 15.272C124.693 15.272 125.86 15.5987 126.887 16.252C127.913 16.9053 128.725 17.8013 129.323 18.94C129.939 20.0787 130.247 21.3853 130.247 22.86C130.247 24.3347 129.939 25.6507 129.323 26.808C128.725 27.9467 127.913 28.8427 126.887 29.496C125.86 30.1307 124.693 30.448 123.387 30.448C122.285 30.448 121.333 30.2147 120.531 29.748C119.747 29.2627 119.168 28.712 118.795 28.096H118.627L118.795 30.084V36.048H115.799ZM122.939 27.676C123.685 27.676 124.385 27.48 125.039 27.088C125.692 26.696 126.224 26.1453 126.635 25.436C127.045 24.708 127.251 23.8493 127.251 22.86C127.251 21.8707 127.045 21.0213 126.635 20.312C126.224 19.584 125.692 19.024 125.039 18.632C124.385 18.24 123.685 18.044 122.939 18.044C122.192 18.044 121.492 18.24 120.839 18.632C120.185 19.024 119.653 19.584 119.243 20.312C118.832 21.0213 118.627 21.8707 118.627 22.86C118.627 23.8493 118.832 24.708 119.243 25.436C119.653 26.1453 120.185 26.696 120.839 27.088C121.492 27.48 122.192 27.676 122.939 27.676ZM140.046 30.448C138.571 30.448 137.274 30.112 136.154 29.44C135.034 28.768 134.156 27.8627 133.522 26.724C132.887 25.5853 132.57 24.2973 132.57 22.86C132.57 21.4413 132.887 20.1627 133.522 19.024C134.156 17.8667 135.034 16.952 136.154 16.28C137.274 15.608 138.571 15.272 140.046 15.272C141.502 15.272 142.79 15.608 143.91 16.28C145.03 16.952 145.907 17.8667 146.542 19.024C147.176 20.1627 147.494 21.4413 147.494 22.86C147.494 24.2973 147.176 25.5853 146.542 26.724C145.907 27.8627 145.03 28.768 143.91 29.44C142.79 30.112 141.502 30.448 140.046 30.448ZM140.046 27.676C140.83 27.676 141.558 27.4893 142.23 27.116C142.902 26.724 143.443 26.1733 143.854 25.464C144.283 24.736 144.498 23.868 144.498 22.86C144.498 21.852 144.283 20.9933 143.854 20.284C143.443 19.556 142.902 19.0053 142.23 18.632C141.558 18.24 140.83 18.044 140.046 18.044C139.262 18.044 138.524 18.24 137.834 18.632C137.162 19.0053 136.611 19.556 136.182 20.284C135.771 20.9933 135.566 21.852 135.566 22.86C135.566 23.868 135.771 24.736 136.182 25.464C136.611 26.1733 137.162 26.724 137.834 27.116C138.524 27.4893 139.262 27.676 140.046 27.676ZM150.305 30V15.72H153.161V17.68H153.329C153.74 16.9893 154.337 16.42 155.121 15.972C155.905 15.5053 156.773 15.272 157.725 15.272C158.789 15.272 159.695 15.524 160.441 16.028C161.188 16.532 161.72 17.1667 162.037 17.932C162.504 17.1853 163.139 16.56 163.941 16.056C164.744 15.5333 165.724 15.272 166.881 15.272C168.561 15.272 169.812 15.7853 170.633 16.812C171.455 17.82 171.865 19.164 171.865 20.844V30H168.869V21.348C168.869 20.2093 168.617 19.3787 168.113 18.856C167.628 18.3147 166.947 18.044 166.069 18.044C165.379 18.044 164.772 18.24 164.249 18.632C163.727 19.0053 163.316 19.5187 163.017 20.172C162.737 20.8253 162.597 21.5533 162.597 22.356V30H159.601V21.348C159.601 20.2093 159.349 19.3787 158.845 18.856C158.341 18.3147 157.632 18.044 156.717 18.044C156.045 18.044 155.457 18.24 154.953 18.632C154.449 19.024 154.048 19.5467 153.749 20.2C153.469 20.8533 153.329 21.5813 153.329 22.384V30H150.305ZM182.29 30.448C180.816 30.448 179.518 30.112 178.398 29.44C177.278 28.768 176.401 27.8627 175.766 26.724C175.132 25.5853 174.814 24.2973 174.814 22.86C174.814 21.4413 175.132 20.1627 175.766 19.024C176.401 17.8667 177.278 16.952 178.398 16.28C179.518 15.608 180.816 15.272 182.29 15.272C183.746 15.272 185.034 15.608 186.154 16.28C187.274 16.952 188.152 17.8667 188.786 19.024C189.421 20.1627 189.738 21.4413 189.738 22.86C189.738 24.2973 189.421 25.5853 188.786 26.724C188.152 27.8627 187.274 28.768 186.154 29.44C185.034 30.112 183.746 30.448 182.29 30.448ZM182.29 27.676C183.074 27.676 183.802 27.4893 184.474 27.116C185.146 26.724 185.688 26.1733 186.098 25.464C186.528 24.736 186.742 23.868 186.742 22.86C186.742 21.852 186.528 20.9933 186.098 20.284C185.688 19.556 185.146 19.0053 184.474 18.632C183.802 18.24 183.074 18.044 182.29 18.044C181.506 18.044 180.769 18.24 180.078 18.632C179.406 19.0053 178.856 19.556 178.426 20.284C178.016 20.9933 177.81 21.852 177.81 22.86C177.81 23.868 178.016 24.736 178.426 25.464C178.856 26.1733 179.406 26.724 180.078 27.116C180.769 27.4893 181.506 27.676 182.29 27.676ZM199.431 30.448C197.994 30.448 196.725 30.1213 195.623 29.468C194.522 28.8147 193.654 27.9187 193.019 26.78C192.385 25.6227 192.067 24.316 192.067 22.86C192.067 21.404 192.385 20.1067 193.019 18.968C193.654 17.8107 194.522 16.9053 195.623 16.252C196.725 15.5987 197.994 15.272 199.431 15.272C201.018 15.272 202.353 15.6267 203.435 16.336C204.537 17.0453 205.321 18.0067 205.787 19.22L203.043 20.34C202.39 18.8093 201.167 18.044 199.375 18.044C198.591 18.044 197.873 18.2493 197.219 18.66C196.566 19.052 196.043 19.612 195.651 20.34C195.259 21.0493 195.063 21.8893 195.063 22.86C195.063 23.8307 195.259 24.68 195.651 25.408C196.043 26.136 196.566 26.696 197.219 27.088C197.873 27.48 198.591 27.676 199.375 27.676C200.29 27.676 201.065 27.4707 201.699 27.06C202.334 26.6307 202.829 26.052 203.183 25.324L205.871 26.5C205.367 27.6387 204.565 28.5813 203.463 29.328C202.362 30.0747 201.018 30.448 199.431 30.448ZM208.988 30V15.72H212.012V30H208.988ZM209.268 12.976L210.584 9.392H214L211.76 12.976H209.268Z" fill="white"/>
<g id="GPay Logo (Dark)">
<g id="GPay">
<g id="Pay">
<path id="Fill 1" fill-rule="evenodd" clip-rule="evenodd" d="M264.529 9.34665V17.5128H269.565C270.765 17.5128 271.757 17.1096 272.541 16.3032C273.347 15.4988 273.75 14.5394 273.75 13.4288C273.75 12.3406 273.347 11.3924 272.541 10.586C271.757 9.75916 270.765 9.34479 269.565 9.34479H264.529V9.34665ZM264.529 20.3872V29.8599H261.521V6.47218H269.499C271.527 6.47218 273.248 7.14787 274.666 8.49738C276.105 9.84688 276.824 11.4913 276.824 13.4288C276.824 15.411 276.105 17.0667 274.666 18.3938C273.27 19.7227 271.547 20.3854 269.499 20.3854H264.529V20.3872Z" fill="white"/>
<path id="Fill 3" fill-rule="evenodd" clip-rule="evenodd" d="M279.864 24.9602C279.864 25.7442 280.197 26.3975 280.862 26.9201C281.527 27.4427 282.306 27.704 283.2 27.704C284.465 27.704 285.591 27.2354 286.584 26.3004C287.576 25.3634 288.071 24.264 288.071 23.0022C287.133 22.2612 285.825 21.8916 284.147 21.8916C282.925 21.8916 281.907 22.1866 281.09 22.7745C280.273 23.3623 279.864 24.0886 279.864 24.9602ZM283.756 13.3317C285.98 13.3317 287.735 13.9253 289.022 15.1124C290.308 16.2995 290.95 17.9271 290.95 19.9952V29.8599H288.073V27.6387H287.942C286.699 29.4677 285.042 30.3825 282.972 30.3825C281.206 30.3825 279.728 29.8599 278.541 28.8146C277.353 27.7694 276.759 26.4628 276.759 24.8949C276.759 23.2393 277.385 21.9232 278.638 20.9434C279.892 19.9635 281.565 19.4726 283.658 19.4726C285.444 19.4726 286.916 19.7993 288.071 20.4525V19.7657C288.071 18.7204 287.656 17.8338 286.829 17.104C285.999 16.3742 285.031 16.0102 283.919 16.0102C282.239 16.0102 280.911 16.7176 279.93 18.1343L277.28 16.4675C278.741 14.377 280.899 13.3317 283.756 13.3317Z" fill="white"/>
<path id="Fill 5" fill-rule="evenodd" clip-rule="evenodd" d="M307.463 13.8543L297.424 36.9154H294.318L298.046 28.8464L291.44 13.8543H294.71L299.484 25.3522H299.55L304.193 13.8543H307.463Z" fill="white"/>
</g>
<g id="G">
<path id="Fill 8" fill-rule="evenodd" clip-rule="evenodd" d="M252.373 18.3452C252.373 17.3989 252.293 16.4861 252.141 15.6126H239.454V20.7885H246.72C246.408 22.4757 245.465 23.9112 244.033 24.8725V28.2341H248.37C250.91 25.8935 252.373 22.4348 252.373 18.3452Z" fill="#4285F4"/>
<path id="Fill 10" fill-rule="evenodd" clip-rule="evenodd" d="M239.454 31.4782C243.084 31.4782 246.141 30.2873 248.37 28.2341L244.033 24.8725C242.826 25.6844 241.272 26.1585 239.454 26.1585C235.944 26.1585 232.966 23.7955 231.901 20.6112H227.433V24.0736C229.647 28.4637 234.197 31.4782 239.454 31.4782Z" fill="#34A853"/>
<path id="Fill 12" fill-rule="evenodd" clip-rule="evenodd" d="M231.901 20.6111C231.628 19.7992 231.479 18.9331 231.479 18.0391C231.479 17.145 231.628 16.2789 231.901 15.467V12.0045H227.433C226.518 13.8188 226 15.8683 226 18.0391C226 20.2098 226.518 22.2595 227.433 24.0736L231.901 20.6111Z" fill="#FABB05"/>
<path id="Fill 14" fill-rule="evenodd" clip-rule="evenodd" d="M239.454 9.91964C241.436 9.91964 243.213 10.6009 244.615 11.9355V11.9374L248.455 8.10163C246.123 5.93272 243.082 4.60001 239.454 4.60001C234.197 4.60001 229.647 7.61447 227.433 12.0046L231.901 15.467C232.966 12.2827 235.944 9.91964 239.454 9.91964Z" fill="#E94235"/>
</g>
</g>
</g>
</g>
</svg>
