<svg width="126" height="21" viewBox="0 0 126 21" fill="none" xmlns="http://www.w3.org/2000/svg">
<g id="cs_donate_with_Pay_NBG">
<path id="Left Text" d="M1.48663 15.0006V3.54461H5.15063C6.35596 3.54461 7.39063 3.78994 8.25463 4.28061C9.1293 4.76061 9.8013 5.43261 10.2706 6.29661C10.7506 7.16061 10.9906 8.15261 10.9906 9.27261C10.9906 10.3926 10.7506 11.3846 10.2706 12.2486C9.8013 13.1126 9.1293 13.7899 8.25463 14.2806C7.39063 14.7606 6.35596 15.0006 5.15063 15.0006H1.48663ZM3.24663 13.3366H5.10263C5.96663 13.3366 6.70796 13.1766 7.32663 12.8566C7.94529 12.5259 8.41463 12.0566 8.73463 11.4486C9.05463 10.8406 9.21463 10.1153 9.21463 9.27261C9.21463 8.42994 9.05463 7.70461 8.73463 7.09661C8.41463 6.48861 7.94529 6.02461 7.32663 5.70461C6.70796 5.37394 5.96663 5.20861 5.10263 5.20861H3.24663V13.3366ZM15.4243 15.2566C14.8376 15.2566 14.3149 15.1393 13.8563 14.9046C13.4083 14.6699 13.0509 14.3499 12.7843 13.9446C12.5283 13.5286 12.4003 13.0539 12.4003 12.5206C12.4003 11.9339 12.5496 11.4379 12.8483 11.0326C13.1576 10.6273 13.5683 10.3179 14.0803 10.1046C14.5923 9.89128 15.1576 9.78461 15.7763 9.78461C16.1176 9.78461 16.4323 9.81128 16.7203 9.86461C17.0189 9.90728 17.2749 9.96061 17.4883 10.0246C17.7123 10.0886 17.8883 10.1579 18.0163 10.2326V9.80061C18.0163 9.26728 17.8243 8.84061 17.4403 8.52061C17.0563 8.20061 16.5603 8.04061 15.9523 8.04061C15.5363 8.04061 15.1416 8.13661 14.7683 8.32861C14.3949 8.50994 14.0963 8.76061 13.8723 9.08061L12.6883 8.16861C12.9229 7.83794 13.2056 7.55528 13.5363 7.32061C13.8776 7.08594 14.2563 6.90461 14.6723 6.77661C15.0989 6.64861 15.5416 6.58461 16.0003 6.58461C17.1843 6.58461 18.0963 6.87794 18.7363 7.46461C19.3763 8.04061 19.6963 8.85128 19.6963 9.89661V15.0006H18.0163V13.9926H17.9203C17.7816 14.2059 17.5896 14.4086 17.3443 14.6006C17.1096 14.7926 16.8269 14.9473 16.4963 15.0646C16.1763 15.1926 15.8189 15.2566 15.4243 15.2566ZM15.7283 13.8486C16.1763 13.8486 16.5709 13.7419 16.9123 13.5286C17.2643 13.3153 17.5363 13.0379 17.7283 12.6966C17.9203 12.3446 18.0163 11.9659 18.0163 11.5606C17.7816 11.4219 17.4936 11.3099 17.1523 11.2246C16.8216 11.1286 16.4696 11.0806 16.0963 11.0806C15.3923 11.0806 14.8909 11.2193 14.5923 11.4966C14.2936 11.7739 14.1443 12.1206 14.1443 12.5366C14.1443 12.9206 14.2883 13.2353 14.5763 13.4806C14.8643 13.7259 15.2483 13.8486 15.7283 13.8486ZM21.7486 15.0006V6.84061H23.3806V8.04061H23.4766C23.6046 7.76328 23.786 7.51794 24.0206 7.30461C24.266 7.09128 24.5433 6.92061 24.8526 6.79261C25.1726 6.66461 25.5033 6.60061 25.8446 6.60061C26.0686 6.60061 26.2553 6.61661 26.4046 6.64861C26.5646 6.66994 26.7086 6.70728 26.8366 6.76061V8.55261C26.634 8.46728 26.426 8.39794 26.2126 8.34461C26.01 8.29128 25.7966 8.26461 25.5726 8.26461C25.1673 8.26461 24.8046 8.37661 24.4846 8.60061C24.1753 8.81394 23.93 9.10194 23.7486 9.46461C23.5673 9.82728 23.4766 10.2326 23.4766 10.6806V15.0006H21.7486ZM31.6761 15.2566C30.8335 15.2566 30.0921 15.0646 29.4521 14.6806C28.8121 14.2966 28.3108 13.7793 27.9481 13.1286C27.5855 12.4673 27.4041 11.7313 27.4041 10.9206C27.4041 10.1099 27.5855 9.37928 27.9481 8.72861C28.3108 8.06728 28.8121 7.54461 29.4521 7.16061C30.0921 6.77661 30.8335 6.58461 31.6761 6.58461C32.5081 6.58461 33.2441 6.78194 33.8841 7.17661C34.5241 7.56061 35.0255 8.07794 35.3881 8.72861C35.7508 9.37928 35.9321 10.1099 35.9321 10.9206C35.9321 11.7313 35.7508 12.4673 35.3881 13.1286C35.0255 13.7793 34.5241 14.2966 33.8841 14.6806C33.2441 15.0646 32.5081 15.2566 31.6761 15.2566ZM31.6761 13.6726C32.1241 13.6726 32.5401 13.5659 32.9241 13.3526C33.3081 13.1286 33.6175 12.8139 33.8521 12.4086C34.0975 11.9926 34.2201 11.4966 34.2201 10.9206C34.2201 10.3446 34.0975 9.85394 33.8521 9.44861C33.6175 9.03261 33.3081 8.71794 32.9241 8.50461C32.5401 8.28061 32.1241 8.16861 31.6761 8.16861C31.2281 8.16861 30.8068 8.28061 30.4121 8.50461C30.0281 8.71794 29.7135 9.03261 29.4681 9.44861C29.2335 9.85394 29.1161 10.3446 29.1161 10.9206C29.1161 11.4966 29.2335 11.9926 29.4681 12.4086C29.7135 12.8139 30.0335 13.1286 30.4281 13.3526C30.8228 13.5659 31.2388 13.6726 31.6761 13.6726ZM39.9193 15.0006L36.5433 6.84061H38.4633L40.7513 12.7766H40.8313L43.1673 6.84061H45.0553L41.6473 15.0006H39.9193ZM48.7274 15.2566C48.1407 15.2566 47.618 15.1393 47.1594 14.9046C46.7114 14.6699 46.354 14.3499 46.0874 13.9446C45.8314 13.5286 45.7034 13.0539 45.7034 12.5206C45.7034 11.9339 45.8527 11.4379 46.1514 11.0326C46.4607 10.6273 46.8714 10.3179 47.3834 10.1046C47.8954 9.89128 48.4607 9.78461 49.0794 9.78461C49.4207 9.78461 49.7354 9.81128 50.0234 9.86461C50.322 9.90728 50.578 9.96061 50.7914 10.0246C51.0154 10.0886 51.1914 10.1579 51.3194 10.2326V9.80061C51.3194 9.26728 51.1274 8.84061 50.7434 8.52061C50.3594 8.20061 49.8634 8.04061 49.2554 8.04061C48.8394 8.04061 48.4447 8.13661 48.0714 8.32861C47.698 8.50994 47.3994 8.76061 47.1754 9.08061L45.9914 8.16861C46.226 7.83794 46.5087 7.55528 46.8394 7.32061C47.1807 7.08594 47.5594 6.90461 47.9754 6.77661C48.402 6.64861 48.8447 6.58461 49.3034 6.58461C50.4874 6.58461 51.3994 6.87794 52.0394 7.46461C52.6794 8.04061 52.9994 8.85128 52.9994 9.89661V15.0006H51.3194V13.9926H51.2234C51.0847 14.2059 50.8927 14.4086 50.6474 14.6006C50.4127 14.7926 50.13 14.9473 49.7994 15.0646C49.4794 15.1926 49.122 15.2566 48.7274 15.2566ZM49.0314 13.8486C49.4794 13.8486 49.874 13.7419 50.2154 13.5286C50.5674 13.3153 50.8394 13.0379 51.0314 12.6966C51.2234 12.3446 51.3194 11.9659 51.3194 11.5606C51.0847 11.4219 50.7967 11.3099 50.4554 11.2246C50.1247 11.1286 49.7727 11.0806 49.3994 11.0806C48.6954 11.0806 48.194 11.2193 47.8954 11.4966C47.5967 11.7739 47.4474 12.1206 47.4474 12.5366C47.4474 12.9206 47.5914 13.2353 47.8794 13.4806C48.1674 13.7259 48.5514 13.8486 49.0314 13.8486ZM54.3355 6.84061H55.7595V4.53661H57.4875V6.84061H59.4875V8.34461H57.4875V12.2646C57.4875 12.6699 57.5675 12.9793 57.7275 13.1926C57.8982 13.4059 58.1808 13.5126 58.5755 13.5126C58.7675 13.5126 58.9382 13.4859 59.0875 13.4326C59.2368 13.3686 59.3862 13.2939 59.5355 13.2086V14.8886C59.3542 14.9633 59.1622 15.0219 58.9595 15.0646C58.7568 15.1073 58.5168 15.1286 58.2395 15.1286C57.4822 15.1286 56.8795 14.9099 56.4315 14.4726C55.9835 14.0246 55.7595 13.4113 55.7595 12.6326V8.34461H54.3355V6.84061ZM68.1559 15.2566C67.5052 15.2566 66.9399 15.1606 66.4599 14.9686C65.9799 14.7659 65.5852 14.4993 65.2759 14.1686C64.9665 13.8273 64.7372 13.4593 64.5879 13.0646L66.1399 12.3926C66.3319 12.8299 66.6039 13.1659 66.9559 13.4006C67.3185 13.6246 67.7345 13.7366 68.2039 13.7366C68.6305 13.7366 68.9985 13.6619 69.3079 13.5126C69.6172 13.3526 69.7719 13.0966 69.7719 12.7446C69.7719 12.5206 69.6972 12.3393 69.5479 12.2006C69.4092 12.0513 69.2172 11.9286 68.9719 11.8326C68.7372 11.7366 68.4652 11.6513 68.1559 11.5766L67.1799 11.3526C66.7959 11.2566 66.4279 11.1073 66.0759 10.9046C65.7345 10.6913 65.4572 10.4246 65.2439 10.1046C65.0305 9.78461 64.9239 9.40594 64.9239 8.96861C64.9239 8.47794 65.0625 8.05661 65.3399 7.70461C65.6279 7.34194 66.0119 7.06461 66.4919 6.87261C66.9719 6.68061 67.4892 6.58461 68.0439 6.58461C68.5559 6.58461 69.0199 6.65394 69.4359 6.79261C69.8625 6.92061 70.2305 7.11794 70.5399 7.38461C70.8599 7.64061 71.1105 7.96061 71.2919 8.34461L69.8039 9.01661C69.6225 8.65394 69.3772 8.40328 69.0679 8.26461C68.7585 8.11528 68.4225 8.04061 68.0599 8.04061C67.6545 8.04061 67.3132 8.12594 67.0359 8.29661C66.7692 8.45661 66.6359 8.66994 66.6359 8.93661C66.6359 9.21394 66.7532 9.43261 66.9879 9.59261C67.2332 9.75261 67.5319 9.88061 67.8839 9.97661L69.0679 10.2646C69.8785 10.4673 70.4865 10.7766 70.8919 11.1926C71.2972 11.5979 71.4999 12.0939 71.4999 12.6806C71.4999 13.2033 71.3505 13.6619 71.0519 14.0566C70.7532 14.4406 70.3479 14.7393 69.8359 14.9526C69.3345 15.1553 68.7745 15.2566 68.1559 15.2566Z" fill="white"/>
<g id="GPay (Dark)">
<g id="GPay">
<g id="Pay">
<path id="Fill 1" fill-rule="evenodd" clip-rule="evenodd" d="M100.356 3.42339V8.16175H103.278C103.974 8.16175 104.55 7.92781 105.005 7.45993C105.473 6.99313 105.707 6.43644 105.707 5.79203C105.707 5.16061 105.473 4.61041 105.005 4.14254C104.55 3.66274 103.974 3.4223 103.278 3.4223H100.356V3.42339ZM100.356 9.82966V15.3262H98.6107V1.75549H103.24C104.417 1.75549 105.415 2.14756 106.238 2.93061C107.073 3.71365 107.491 4.66782 107.491 5.79203C107.491 6.94224 107.073 7.90291 106.238 8.67296C105.428 9.44409 104.429 9.82858 103.24 9.82858H100.356V9.82966Z" fill="white"/>
<path id="Fill 3" fill-rule="evenodd" clip-rule="evenodd" d="M109.255 12.4831C109.255 12.9379 109.448 13.317 109.834 13.6203C110.22 13.9235 110.672 14.0752 111.19 14.0752C111.924 14.0752 112.578 13.8032 113.153 13.2607C113.729 12.717 114.017 12.0791 114.017 11.3469C113.472 10.917 112.713 10.7025 111.74 10.7025C111.031 10.7025 110.44 10.8736 109.966 11.2148C109.492 11.5559 109.255 11.9773 109.255 12.4831M111.513 5.73566C112.803 5.73566 113.821 6.08007 114.569 6.76889C115.314 7.45771 115.687 8.40213 115.687 9.60216V15.3261H114.018V14.0373H113.942C113.221 15.0985 112.259 15.6294 111.058 15.6294C110.033 15.6294 109.176 15.3261 108.487 14.7196C107.797 14.1131 107.453 13.3549 107.453 12.4452C107.453 11.4845 107.816 10.7208 108.543 10.1523C109.271 9.58375 110.241 9.2989 111.456 9.2989C112.492 9.2989 113.346 9.48844 114.017 9.86751V9.46894C114.017 8.86243 113.776 8.34798 113.296 7.92451C112.814 7.50103 112.252 7.28984 111.607 7.28984C110.633 7.28984 109.862 7.70032 109.293 8.52235L107.755 7.55519C108.603 6.34217 109.855 5.73566 111.513 5.73566" fill="white"/>
<path id="Fill 5" fill-rule="evenodd" clip-rule="evenodd" d="M125.269 6.03894L119.443 19.4201H117.641L119.804 14.738L115.971 6.03894H117.869L120.639 12.7106H120.677L123.371 6.03894H125.269Z" fill="white"/>
</g>
<g id="G">
<path id="Fill 8" fill-rule="evenodd" clip-rule="evenodd" d="M93.3029 8.64473C93.3029 8.09563 93.2562 7.56601 93.1684 7.05914H85.8065V10.0625H90.0231C89.842 11.0414 89.2944 11.8744 88.4639 12.4322V14.3828H90.9804C92.4539 13.0246 93.3029 11.0177 93.3029 8.64473" fill="#4285F4"/>
<path id="Fill 10" fill-rule="evenodd" clip-rule="evenodd" d="M85.8065 16.2651C87.9131 16.2651 89.6869 15.5741 90.9804 14.3828L88.4639 12.4322C87.7635 12.9033 86.8614 13.1784 85.8065 13.1784C83.7703 13.1784 82.042 11.8073 81.424 9.95959H78.8316V11.9687C80.1164 14.516 82.7565 16.2651 85.8065 16.2651" fill="#34A853"/>
<path id="Fill 12" fill-rule="evenodd" clip-rule="evenodd" d="M81.424 9.9596C81.2657 9.48847 81.179 8.98593 81.179 8.46715C81.179 7.94837 81.2657 7.44583 81.424 6.9747V4.96564H78.8316C78.3003 6.01837 78 7.20756 78 8.46715C78 9.72674 78.3003 10.916 78.8316 11.9687L81.424 9.9596Z" fill="#FABB05"/>
<path id="Fill 14" fill-rule="evenodd" clip-rule="evenodd" d="M85.8065 3.75583C86.9568 3.75583 87.9879 4.15115 88.8011 4.92553V4.92661L91.0292 2.70094C89.6761 1.44243 87.912 0.669128 85.8065 0.669128C82.7565 0.669128 80.1164 2.41826 78.8316 4.9656L81.424 6.97467C82.042 5.12698 83.7703 3.75583 85.8065 3.75583" fill="#E94235"/>
</g>
</g>
</g>
</g>
</svg>
