<svg width="286" height="38" viewBox="0 0 286 38" fill="none" xmlns="http://www.w3.org/2000/svg">
<g id="cs_order_with_Light">
<path id="Text" d="M13.2902 30.448C11.7968 30.448 10.4155 30.1773 9.14618 29.636C7.89551 29.0947 6.80351 28.348 5.87018 27.396C4.93685 26.444 4.20885 25.3333 3.68618 24.064C3.16351 22.7947 2.90218 21.432 2.90218 19.976C2.90218 18.52 3.16351 17.1573 3.68618 15.888C4.20885 14.6187 4.93685 13.508 5.87018 12.556C6.80351 11.604 7.89551 10.8573 9.14618 10.316C10.4155 9.77467 11.7968 9.504 13.2902 9.504C14.7648 9.504 16.1275 9.77467 17.3782 10.316C18.6475 10.8573 19.7488 11.604 20.6822 12.556C21.6342 13.508 22.3622 14.6187 22.8662 15.888C23.3888 17.1573 23.6502 18.52 23.6502 19.976C23.6502 21.432 23.3888 22.7947 22.8662 24.064C22.3622 25.3333 21.6342 26.444 20.6822 27.396C19.7488 28.348 18.6475 29.0947 17.3782 29.636C16.1275 30.1773 14.7648 30.448 13.2902 30.448ZM13.2902 27.536C14.6342 27.536 15.8568 27.2187 16.9582 26.584C18.0595 25.9493 18.9368 25.0627 19.5902 23.924C20.2435 22.7853 20.5702 21.4693 20.5702 19.976C20.5702 18.4827 20.2435 17.1667 19.5902 16.028C18.9368 14.8893 18.0595 14.0027 16.9582 13.368C15.8568 12.7333 14.6342 12.416 13.2902 12.416C11.9462 12.416 10.7235 12.7333 9.62218 13.368C8.52085 14.0027 7.64352 14.8893 6.99018 16.028C6.33685 17.1667 6.01018 18.4827 6.01018 19.976C6.01018 21.4693 6.33685 22.7853 6.99018 23.924C7.64352 25.0627 8.52085 25.9493 9.62218 26.584C10.7235 27.2187 11.9462 27.536 13.2902 27.536ZM34.6191 30.448C33.5177 30.448 32.5657 30.2147 31.7631 29.748C30.9791 29.2627 30.4004 28.712 30.0271 28.096H29.8591V30H27.0031V9.952H30.0271V15.664L29.8591 17.652H30.0271C30.4004 17.036 30.9791 16.4853 31.7631 16C32.5657 15.5147 33.5177 15.272 34.6191 15.272C35.9257 15.272 37.0924 15.5987 38.1191 16.252C39.1457 16.9053 39.9577 17.8013 40.5551 18.94C41.1711 20.0787 41.4791 21.3853 41.4791 22.86C41.4791 24.3347 41.1711 25.6507 40.5551 26.808C39.9577 27.9467 39.1457 28.8427 38.1191 29.496C37.0924 30.1307 35.9257 30.448 34.6191 30.448ZM34.1711 27.676C34.9177 27.676 35.6177 27.48 36.2711 27.088C36.9244 26.696 37.4564 26.1453 37.8671 25.436C38.2777 24.708 38.4831 23.8493 38.4831 22.86C38.4831 21.8707 38.2777 21.0213 37.8671 20.312C37.4564 19.584 36.9244 19.024 36.2711 18.632C35.6177 18.24 34.9177 18.044 34.1711 18.044C33.4244 18.044 32.7244 18.24 32.0711 18.632C31.4177 19.024 30.8857 19.584 30.4751 20.312C30.0644 21.0213 29.8591 21.8707 29.8591 22.86C29.8591 23.8493 30.0644 24.708 30.4751 25.436C30.8857 26.1453 31.4177 26.696 32.0711 27.088C32.7244 27.48 33.4244 27.676 34.1711 27.676ZM46.1562 13.62C45.5962 13.62 45.1109 13.424 44.7002 13.032C44.3082 12.6213 44.1122 12.136 44.1122 11.576C44.1122 11.016 44.3082 10.54 44.7002 10.148C45.1109 9.756 45.5962 9.56 46.1562 9.56C46.7162 9.56 47.1922 9.756 47.5842 10.148C47.9949 10.54 48.2002 11.016 48.2002 11.576C48.2002 12.136 47.9949 12.6213 47.5842 13.032C47.1922 13.424 46.7162 13.62 46.1562 13.62ZM43.4402 36.328C42.8616 36.328 42.3389 36.2627 41.8722 36.132V33.22C42.0589 33.332 42.2736 33.416 42.5162 33.472C42.7402 33.5467 42.9642 33.584 43.1882 33.584C43.7296 33.584 44.1029 33.416 44.3082 33.08C44.5322 32.7627 44.6442 32.296 44.6442 31.68V15.72H47.6682V31.708C47.6682 33.3507 47.2669 34.5267 46.4642 35.236C45.6616 35.964 44.6536 36.328 43.4402 36.328ZM58.1075 30.448C56.7075 30.448 55.4569 30.1213 54.3555 29.468C53.2542 28.8147 52.3862 27.9187 51.7515 26.78C51.1355 25.6413 50.8275 24.344 50.8275 22.888C50.8275 21.5253 51.1262 20.2653 51.7235 19.108C52.3209 17.9507 53.1515 17.0267 54.2155 16.336C55.2982 15.6267 56.5395 15.272 57.9395 15.272C59.4142 15.272 60.6649 15.5893 61.6915 16.224C62.7369 16.8587 63.5302 17.7267 64.0715 18.828C64.6129 19.9293 64.8835 21.1707 64.8835 22.552C64.8835 22.7573 64.8742 22.944 64.8555 23.112C64.8555 23.28 64.8462 23.4107 64.8275 23.504H53.7955C53.9449 24.9227 54.4395 25.9867 55.2795 26.696C56.1382 27.4053 57.1089 27.76 58.1915 27.76C59.1622 27.76 59.9649 27.5453 60.5995 27.116C61.2342 26.668 61.7382 26.1173 62.1115 25.464L64.6035 26.668C63.9875 27.788 63.1475 28.7027 62.0835 29.412C61.0195 30.1027 59.6942 30.448 58.1075 30.448ZM57.9675 17.848C56.9595 17.848 56.1009 18.156 55.3915 18.772C54.6822 19.388 54.2062 20.2093 53.9635 21.236H61.8875C61.8502 20.7507 61.6915 20.2467 61.4115 19.724C61.1315 19.2013 60.7022 18.7627 60.1235 18.408C59.5635 18.0347 58.8449 17.848 57.9675 17.848ZM74.2297 30.448C72.9417 30.448 71.775 30.1307 70.7297 29.496C69.703 28.8427 68.8817 27.9467 68.2657 26.808C67.6684 25.6507 67.3697 24.3347 67.3697 22.86C67.3697 21.3853 67.6684 20.0787 68.2657 18.94C68.8817 17.8013 69.703 16.9053 70.7297 16.252C71.775 15.5987 72.9417 15.272 74.2297 15.272C75.331 15.272 76.2737 15.5147 77.0577 16C77.8604 16.4853 78.4484 17.036 78.8217 17.652H78.9897L78.8217 15.664V9.952H81.8177V30H78.9897V28.096H78.8217C78.4484 28.712 77.8604 29.2627 77.0577 29.748C76.2737 30.2147 75.331 30.448 74.2297 30.448ZM74.6777 27.676C75.4244 27.676 76.1244 27.48 76.7777 27.088C77.4497 26.696 77.9817 26.1453 78.3737 25.436C78.7844 24.708 78.9897 23.8493 78.9897 22.86C78.9897 21.8707 78.7844 21.0213 78.3737 20.312C77.9817 19.584 77.4497 19.024 76.7777 18.632C76.1244 18.24 75.4244 18.044 74.6777 18.044C73.931 18.044 73.231 18.24 72.5777 18.632C71.9244 19.024 71.3924 19.584 70.9817 20.312C70.571 21.0213 70.3657 21.8707 70.3657 22.86C70.3657 23.8493 70.571 24.708 70.9817 25.436C71.3924 26.1453 71.9244 26.696 72.5777 27.088C73.231 27.48 73.931 27.676 74.6777 27.676ZM85.6796 30V15.72H88.5356V17.68H88.7036C89.1143 16.9893 89.721 16.42 90.5236 15.972C91.345 15.5053 92.241 15.272 93.2116 15.272C94.9663 15.272 96.2823 15.7947 97.1596 16.84C98.037 17.8853 98.4756 19.2667 98.4756 20.984V30H95.4796V21.376C95.4796 20.2187 95.1903 19.3787 94.6116 18.856C94.033 18.3147 93.277 18.044 92.3436 18.044C91.6156 18.044 90.981 18.2493 90.4396 18.66C89.8983 19.052 89.469 19.5747 89.1516 20.228C88.853 20.8813 88.7036 21.5813 88.7036 22.328V30H85.6796ZM106.565 30.448C105.538 30.448 104.624 30.252 103.821 29.86C103.018 29.4493 102.393 28.88 101.945 28.152C101.497 27.424 101.273 26.5933 101.273 25.66C101.273 24.652 101.534 23.7933 102.057 23.084C102.598 22.356 103.317 21.8053 104.213 21.432C105.109 21.0587 106.098 20.872 107.181 20.872C108.077 20.872 108.861 20.956 109.533 21.124C110.224 21.292 110.746 21.4693 111.101 21.656V20.9C111.101 19.9667 110.765 19.22 110.093 18.66C109.421 18.1 108.553 17.82 107.489 17.82C106.761 17.82 106.07 17.988 105.417 18.324C104.764 18.6413 104.241 19.08 103.849 19.64L101.777 18.044C102.393 17.1853 103.205 16.5133 104.213 16.028C105.24 15.524 106.36 15.272 107.573 15.272C109.645 15.272 111.241 15.7853 112.361 16.812C113.481 17.82 114.041 19.2387 114.041 21.068V30H111.101V28.236H110.933C110.56 28.8147 110 29.328 109.253 29.776C108.506 30.224 107.61 30.448 106.565 30.448ZM107.097 27.984C107.881 27.984 108.572 27.7973 109.169 27.424C109.766 27.0507 110.233 26.5653 110.569 25.968C110.924 25.352 111.101 24.6893 111.101 23.98C110.672 23.7373 110.168 23.5413 109.589 23.392C109.01 23.224 108.394 23.14 107.741 23.14C106.509 23.14 105.632 23.392 105.109 23.896C104.586 24.3813 104.325 24.9787 104.325 25.688C104.325 26.36 104.577 26.9107 105.081 27.34C105.585 27.7693 106.257 27.984 107.097 27.984ZM118.909 25.856V18.352H116.417V15.72H118.909V11.688H121.933V15.72H125.433V18.352H121.933V25.212C121.933 25.9213 122.073 26.4627 122.353 26.836C122.651 27.2093 123.146 27.396 123.837 27.396C124.191 27.396 124.49 27.3493 124.733 27.256C124.994 27.1627 125.255 27.032 125.517 26.864V29.804C125.199 29.9347 124.863 30.0373 124.509 30.112C124.154 30.1867 123.734 30.224 123.249 30.224C121.923 30.224 120.869 29.8413 120.085 29.076C119.301 28.292 118.909 27.2187 118.909 25.856ZM135.441 36.048V15.72H138.269V17.652H138.437C138.811 17.036 139.389 16.4853 140.173 16C140.976 15.5147 141.928 15.272 143.029 15.272C144.336 15.272 145.503 15.5987 146.529 16.252C147.556 16.9053 148.368 17.8013 148.965 18.94C149.581 20.0787 149.889 21.3853 149.889 22.86C149.889 24.3347 149.581 25.6507 148.965 26.808C148.368 27.9467 147.556 28.8427 146.529 29.496C145.503 30.1307 144.336 30.448 143.029 30.448C141.928 30.448 140.976 30.2147 140.173 29.748C139.389 29.2627 138.811 28.712 138.437 28.096H138.269L138.437 30.084V36.048H135.441ZM142.581 27.676C143.328 27.676 144.028 27.48 144.681 27.088C145.335 26.696 145.867 26.1453 146.277 25.436C146.688 24.708 146.893 23.8493 146.893 22.86C146.893 21.8707 146.688 21.0213 146.277 20.312C145.867 19.584 145.335 19.024 144.681 18.632C144.028 18.24 143.328 18.044 142.581 18.044C141.835 18.044 141.135 18.24 140.481 18.632C139.828 19.024 139.296 19.584 138.885 20.312C138.475 21.0213 138.269 21.8707 138.269 22.86C138.269 23.8493 138.475 24.708 138.885 25.436C139.296 26.1453 139.828 26.696 140.481 27.088C141.135 27.48 141.835 27.676 142.581 27.676ZM152.832 30V15.72H155.688V17.82H155.856C156.173 17.092 156.715 16.4947 157.48 16.028C158.264 15.5427 159.104 15.3 160 15.3C160.392 15.3 160.719 15.328 160.98 15.384C161.26 15.44 161.512 15.5053 161.736 15.58V18.716C161.381 18.5667 161.017 18.4453 160.644 18.352C160.289 18.2587 159.916 18.212 159.524 18.212C158.815 18.212 158.18 18.408 157.62 18.8C157.079 19.1733 156.649 19.6867 156.332 20.34C156.015 20.9747 155.856 21.6747 155.856 22.44V30H152.832ZM155.856 12.976L152.86 9.588V9.392H155.744L157.032 11.128H157.312L158.628 9.392H161.54V9.588L158.516 12.976H155.856ZM170.047 30.448C168.647 30.448 167.396 30.1213 166.295 29.468C165.193 28.8147 164.325 27.9187 163.691 26.78C163.075 25.6413 162.767 24.344 162.767 22.888C162.767 21.5253 163.065 20.2653 163.663 19.108C164.26 17.9507 165.091 17.0267 166.155 16.336C167.237 15.6267 168.479 15.272 169.879 15.272C171.353 15.272 172.604 15.5893 173.631 16.224C174.676 16.8587 175.469 17.7267 176.011 18.828C176.552 19.9293 176.823 21.1707 176.823 22.552C176.823 22.7573 176.813 22.944 176.795 23.112C176.795 23.28 176.785 23.4107 176.767 23.504H165.735C165.884 24.9227 166.379 25.9867 167.219 26.696C168.077 27.4053 169.048 27.76 170.131 27.76C171.101 27.76 171.904 27.5453 172.539 27.116C173.173 26.668 173.677 26.1173 174.051 25.464L176.543 26.668C175.927 27.788 175.087 28.7027 174.023 29.412C172.959 30.1027 171.633 30.448 170.047 30.448ZM169.907 17.848C168.899 17.848 168.04 18.156 167.331 18.772C166.621 19.388 166.145 20.2093 165.903 21.236H173.827C173.789 20.7507 173.631 20.2467 173.351 19.724C173.071 19.2013 172.641 18.7627 172.063 18.408C171.503 18.0347 170.784 17.848 169.907 17.848ZM185.273 30.448C183.555 30.448 182.183 30.0747 181.157 29.328C180.13 28.5627 179.421 27.6573 179.029 26.612L181.745 25.436C182.081 26.2013 182.566 26.7893 183.201 27.2C183.835 27.592 184.554 27.788 185.357 27.788C186.103 27.788 186.747 27.6573 187.289 27.396C187.83 27.116 188.101 26.668 188.101 26.052C188.101 25.4547 187.83 25.016 187.289 24.736C186.747 24.456 186.075 24.2133 185.273 24.008L183.565 23.616C182.874 23.448 182.23 23.1867 181.633 22.832C181.035 22.4773 180.55 22.02 180.177 21.46C179.803 20.8813 179.617 20.2093 179.617 19.444C179.617 18.604 179.869 17.876 180.373 17.26C180.877 16.6253 181.539 16.14 182.361 15.804C183.201 15.4493 184.106 15.272 185.077 15.272C186.402 15.272 187.559 15.5333 188.549 16.056C189.557 16.56 190.294 17.3253 190.761 18.352L188.157 19.528C187.821 18.8933 187.382 18.4547 186.841 18.212C186.318 17.9507 185.739 17.82 185.105 17.82C184.395 17.82 183.798 17.9693 183.313 18.268C182.846 18.5667 182.613 18.94 182.613 19.388C182.613 19.8733 182.818 20.256 183.229 20.536C183.658 20.816 184.181 21.04 184.797 21.208L186.869 21.712C188.287 22.0667 189.351 22.608 190.061 23.336C190.77 24.0453 191.125 24.9133 191.125 25.94C191.125 26.8547 190.863 27.6573 190.341 28.348C189.818 29.02 189.109 29.5427 188.213 29.916C187.335 30.2707 186.355 30.448 185.273 30.448Z" fill="#3C4043"/>
<g id="GPay Logo (Light)">
<g id="GPay">
<g id="Pay">
<path id="Fill 1" fill-rule="evenodd" clip-rule="evenodd" d="M242.529 9.44664V17.6128H247.565C248.765 17.6128 249.757 17.2096 250.541 16.4032C251.347 15.5988 251.75 14.6394 251.75 13.5288C251.75 12.4406 251.347 11.4924 250.541 10.686C249.757 9.85915 248.765 9.44478 247.565 9.44478H242.529V9.44664ZM242.529 20.4872V29.9599H239.521V6.57217H247.499C249.527 6.57217 251.248 7.24786 252.666 8.59737C254.105 9.94688 254.824 11.5913 254.824 13.5288C254.824 15.511 254.105 17.1667 252.666 18.4938C251.27 19.8227 249.547 20.4854 247.499 20.4854H242.529V20.4872Z" fill="#5F6368"/>
<path id="Fill 3" fill-rule="evenodd" clip-rule="evenodd" d="M257.864 25.0602C257.864 25.8442 258.197 26.4975 258.862 27.0201C259.527 27.5427 260.306 27.804 261.2 27.804C262.465 27.804 263.591 27.3354 264.584 26.4004C265.576 25.4634 266.071 24.364 266.071 23.1022C265.133 22.3612 263.825 21.9916 262.147 21.9916C260.925 21.9916 259.907 22.2865 259.09 22.8745C258.273 23.4623 257.864 24.1886 257.864 25.0602ZM261.756 13.4317C263.98 13.4317 265.735 14.0252 267.022 15.2124C268.308 16.3995 268.95 18.0271 268.95 20.0952V29.9599H266.073V27.7387H265.942C264.699 29.5677 263.042 30.4825 260.972 30.4825C259.206 30.4825 257.728 29.9599 256.541 28.9146C255.353 27.8694 254.759 26.5628 254.759 24.9949C254.759 23.3393 255.385 22.0232 256.638 21.0434C257.892 20.0635 259.565 19.5726 261.658 19.5726C263.444 19.5726 264.916 19.8992 266.071 20.5525V19.8656C266.071 18.8204 265.656 17.9338 264.829 17.204C263.999 16.4741 263.031 16.1102 261.919 16.1102C260.239 16.1102 258.911 16.8176 257.93 18.2343L255.28 16.5675C256.741 14.4769 258.899 13.4317 261.756 13.4317Z" fill="#5F6368"/>
<path id="Fill 5" fill-rule="evenodd" clip-rule="evenodd" d="M285.463 13.9543L275.424 37.0154H272.318L276.046 28.9464L269.44 13.9543H272.71L277.484 25.4522H277.55L282.193 13.9543H285.463Z" fill="#5F6368"/>
</g>
<g id="G">
<path id="Fill 8" fill-rule="evenodd" clip-rule="evenodd" d="M230.373 18.4452C230.373 17.4989 230.293 16.5861 230.141 15.7126H217.454V20.8885H224.72C224.408 22.5757 223.465 24.0112 222.033 24.9725V28.3341H226.37C228.91 25.9935 230.373 22.5348 230.373 18.4452Z" fill="#4285F4"/>
<path id="Fill 10" fill-rule="evenodd" clip-rule="evenodd" d="M217.454 31.5782C221.084 31.5782 224.141 30.3873 226.37 28.3341L222.033 24.9725C220.826 25.7844 219.272 26.2585 217.454 26.2585C213.944 26.2585 210.966 23.8955 209.901 20.7112H205.433V24.1736C207.647 28.5637 212.197 31.5782 217.454 31.5782Z" fill="#34A853"/>
<path id="Fill 12" fill-rule="evenodd" clip-rule="evenodd" d="M209.901 20.7111C209.628 19.8992 209.479 19.0331 209.479 18.139C209.479 17.245 209.628 16.3789 209.901 15.567V12.1045H205.433C204.518 13.9188 204 15.9683 204 18.139C204 20.3098 204.518 22.3595 205.433 24.1736L209.901 20.7111Z" fill="#FABB05"/>
<path id="Fill 14" fill-rule="evenodd" clip-rule="evenodd" d="M217.454 10.0196C219.436 10.0196 221.213 10.7009 222.615 12.0355V12.0374L226.455 8.20162C224.123 6.03271 221.082 4.7 217.454 4.7C212.197 4.7 207.647 7.71446 205.433 12.1046L209.901 15.567C210.966 12.3827 213.944 10.0196 217.454 10.0196Z" fill="#E94235"/>
</g>
</g>
</g>
</g>
</svg>
