<svg width="138" height="21" viewBox="0 0 138 21" fill="none" xmlns="http://www.w3.org/2000/svg">
<g id="cs_order_with_Pay_NBG">
<path id="Left Text" d="M7.556 15.2566C6.70267 15.2566 5.91334 15.1019 5.188 14.7926C4.47333 14.4833 3.84933 14.0566 3.316 13.5126C2.78267 12.9579 2.36667 12.3233 2.068 11.6086C1.76933 10.8833 1.62 10.1046 1.62 9.27261C1.62 8.44061 1.76933 7.66728 2.068 6.95261C2.36667 6.22728 2.78267 5.59261 3.316 5.04861C3.84933 4.49394 4.47333 4.06194 5.188 3.75261C5.91334 3.44328 6.70267 3.28861 7.556 3.28861C8.40934 3.28861 9.19334 3.44328 9.908 3.75261C10.6227 4.06194 11.2467 4.49394 11.78 5.04861C12.324 5.59261 12.74 6.22728 13.028 6.95261C13.3267 7.66728 13.476 8.44061 13.476 9.27261C13.476 10.1046 13.3267 10.8833 13.028 11.6086C12.74 12.3233 12.324 12.9579 11.78 13.5126C11.2467 14.0566 10.6227 14.4833 9.908 14.7926C9.19334 15.1019 8.40934 15.2566 7.556 15.2566ZM7.556 13.5926C8.33467 13.5926 9.03334 13.4113 9.652 13.0486C10.2813 12.6859 10.7827 12.1793 11.156 11.5286C11.5293 10.8779 11.716 10.1259 11.716 9.27261C11.716 8.40861 11.5293 7.65661 11.156 7.01661C10.7827 6.36594 10.2813 5.85928 9.652 5.49661C9.03334 5.13394 8.33467 4.95261 7.556 4.95261C6.788 4.95261 6.08934 5.13394 5.46 5.49661C4.83067 5.85928 4.32934 6.36594 3.956 7.01661C3.58267 7.65661 3.396 8.40861 3.396 9.27261C3.396 10.1259 3.58267 10.8779 3.956 11.5286C4.32934 12.1793 4.83067 12.6859 5.46 13.0486C6.08934 13.4113 6.788 13.5926 7.556 13.5926ZM19.7225 15.2566C19.3065 15.2566 18.9278 15.1926 18.5865 15.0646C18.2452 14.9366 17.9465 14.7713 17.6905 14.5686C17.4452 14.3553 17.2478 14.1366 17.0985 13.9126H17.0025V15.0006H15.3705V3.54461H17.0985V6.80861L17.0025 7.94461H17.0985C17.2478 7.70994 17.4452 7.49128 17.6905 7.28861C17.9465 7.07528 18.2452 6.90461 18.5865 6.77661C18.9278 6.64861 19.3065 6.58461 19.7225 6.58461C20.4692 6.58461 21.1358 6.77128 21.7225 7.14461C22.3092 7.51794 22.7732 8.02994 23.1145 8.68061C23.4665 9.33128 23.6425 10.0779 23.6425 10.9206C23.6425 11.7633 23.4665 12.5099 23.1145 13.1606C22.7732 13.8113 22.3092 14.3233 21.7225 14.6966C21.1358 15.0699 20.4692 15.2566 19.7225 15.2566ZM19.4665 13.6726C19.8932 13.6726 20.2932 13.5606 20.6665 13.3366C21.0505 13.1126 21.3545 12.7926 21.5785 12.3766C21.8132 11.9606 21.9305 11.4753 21.9305 10.9206C21.9305 10.3553 21.8132 9.86994 21.5785 9.46461C21.3545 9.04861 21.0505 8.72861 20.6665 8.50461C20.2932 8.28061 19.8932 8.16861 19.4665 8.16861C19.0398 8.16861 18.6398 8.28061 18.2665 8.50461C17.8932 8.72861 17.5892 9.04861 17.3545 9.46461C17.1198 9.86994 17.0025 10.3553 17.0025 10.9206C17.0025 11.4859 17.1198 11.9766 17.3545 12.3926C17.5892 12.7979 17.8932 13.1126 18.2665 13.3366C18.6398 13.5606 19.0398 13.6726 19.4665 13.6726ZM24.7418 18.6166C24.5711 18.6166 24.4164 18.6059 24.2778 18.5846C24.1284 18.5633 23.9844 18.5366 23.8458 18.5046V16.8406C23.9418 16.8939 24.0591 16.9419 24.1978 16.9846C24.3364 17.0273 24.4698 17.0486 24.5978 17.0486C24.8964 17.0486 25.1098 16.9526 25.2378 16.7606C25.3658 16.5793 25.4298 16.3126 25.4298 15.9606V6.84061H27.1578V15.9766C27.1578 16.6059 27.0511 17.1126 26.8378 17.4966C26.6351 17.8806 26.3524 18.1633 25.9898 18.3446C25.6271 18.5259 25.2111 18.6166 24.7418 18.6166ZM26.2938 5.64061C25.9738 5.64061 25.6964 5.52861 25.4618 5.30461C25.2378 5.06994 25.1258 4.79261 25.1258 4.47261C25.1258 4.14194 25.2378 3.86994 25.4618 3.65661C25.6964 3.43261 25.9738 3.32061 26.2938 3.32061C26.6244 3.32061 26.9018 3.43261 27.1258 3.65661C27.3498 3.86994 27.4618 4.14194 27.4618 4.47261C27.4618 4.79261 27.3498 5.06994 27.1258 5.30461C26.9018 5.52861 26.6244 5.64061 26.2938 5.64061ZM33.1016 15.2566C32.3016 15.2566 31.587 15.0699 30.9576 14.6966C30.3283 14.3233 29.8323 13.8113 29.4696 13.1606C29.1176 12.5099 28.9416 11.7686 28.9416 10.9366C28.9416 10.1579 29.1123 9.43794 29.4536 8.77661C29.795 8.11528 30.2696 7.58728 30.8776 7.19261C31.4963 6.78728 32.2056 6.58461 33.0056 6.58461C33.8483 6.58461 34.563 6.76594 35.1496 7.12861C35.747 7.49128 36.2003 7.98728 36.5096 8.61661C36.819 9.24594 36.9736 9.95528 36.9736 10.7446C36.9736 10.8619 36.9683 10.9686 36.9576 11.0646C36.9576 11.1606 36.9523 11.2353 36.9416 11.2886H30.6376C30.6803 11.7366 30.7923 12.1259 30.9736 12.4566C31.2083 12.8726 31.5176 13.1873 31.9016 13.4006C32.2856 13.6139 32.7016 13.7206 33.1496 13.7206C33.6936 13.7206 34.147 13.5979 34.5096 13.3526C34.883 13.0966 35.1763 12.7819 35.3896 12.4086L36.8136 13.0966C36.4616 13.7366 35.9816 14.2593 35.3736 14.6646C34.7656 15.0593 34.0083 15.2566 33.1016 15.2566ZM30.7336 9.99261H35.2616C35.251 9.78994 35.1976 9.57661 35.1016 9.35261C35.0056 9.11794 34.867 8.90461 34.6856 8.71261C34.5043 8.52061 34.275 8.36594 33.9976 8.24861C33.7203 8.12061 33.395 8.05661 33.0216 8.05661C32.5523 8.05661 32.1363 8.17928 31.7736 8.42461C31.411 8.65928 31.1283 8.98994 30.9256 9.41661C30.8403 9.59794 30.7763 9.78994 30.7336 9.99261ZM42.2929 15.2566C41.5569 15.2566 40.8902 15.0699 40.2929 14.6966C39.6955 14.3233 39.2262 13.8113 38.8849 13.1606C38.5435 12.5099 38.3729 11.7633 38.3729 10.9206C38.3729 10.0779 38.5435 9.33128 38.8849 8.68061C39.2262 8.02994 39.6955 7.51794 40.2929 7.14461C40.8902 6.77128 41.5569 6.58461 42.2929 6.58461C42.7195 6.58461 43.1035 6.64861 43.4449 6.77661C43.7862 6.90461 44.0795 7.07528 44.3249 7.28861C44.5809 7.49128 44.7782 7.70994 44.9169 7.94461H45.0129L44.9169 6.80861V3.54461H46.6289V15.0006H45.0129V13.9126H44.9169C44.7782 14.1366 44.5809 14.3553 44.3249 14.5686C44.0795 14.7713 43.7862 14.9366 43.4449 15.0646C43.1035 15.1926 42.7195 15.2566 42.2929 15.2566ZM42.5489 13.6726C42.9755 13.6726 43.3755 13.5606 43.7489 13.3366C44.1329 13.1126 44.4369 12.7979 44.6609 12.3926C44.8955 11.9766 45.0129 11.4859 45.0129 10.9206C45.0129 10.3553 44.8955 9.86994 44.6609 9.46461C44.4369 9.04861 44.1329 8.72861 43.7489 8.50461C43.3755 8.28061 42.9755 8.16861 42.5489 8.16861C42.1222 8.16861 41.7222 8.28061 41.3489 8.50461C40.9755 8.72861 40.6715 9.04861 40.4369 9.46461C40.2022 9.86994 40.0849 10.3553 40.0849 10.9206C40.0849 11.4753 40.2022 11.9606 40.4369 12.3766C40.6715 12.7926 40.9755 13.1126 41.3489 13.3366C41.7222 13.5606 42.1222 13.6726 42.5489 13.6726ZM48.8143 15.0006V6.84061H50.4463V7.96061H50.5423C50.7769 7.56594 51.1236 7.24061 51.5823 6.98461C52.0516 6.71794 52.5636 6.58461 53.1183 6.58461C54.1209 6.58461 54.8729 6.88328 55.3743 7.48061C55.8756 8.06728 56.1263 8.85661 56.1263 9.84861V15.0006H54.4143V10.0726C54.4143 9.41128 54.2489 8.93128 53.9183 8.63261C53.5876 8.32328 53.1556 8.16861 52.6223 8.16861C52.2063 8.16861 51.8436 8.28594 51.5343 8.52061C51.2249 8.74461 50.9796 9.04328 50.7983 9.41661C50.6276 9.78994 50.5423 10.1899 50.5423 10.6166V15.0006H48.8143ZM60.7274 15.2566C60.1407 15.2566 59.618 15.1393 59.1594 14.9046C58.7114 14.6699 58.354 14.3499 58.0874 13.9446C57.8314 13.5286 57.7034 13.0539 57.7034 12.5206C57.7034 11.9339 57.8527 11.4379 58.1514 11.0326C58.4607 10.6273 58.8714 10.3179 59.3834 10.1046C59.8954 9.89128 60.4607 9.78461 61.0794 9.78461C61.4207 9.78461 61.7354 9.81128 62.0234 9.86461C62.322 9.90728 62.578 9.96061 62.7914 10.0246C63.0154 10.0886 63.1914 10.1579 63.3194 10.2326V9.80061C63.3194 9.26728 63.1274 8.84061 62.7434 8.52061C62.3594 8.20061 61.8634 8.04061 61.2554 8.04061C60.8394 8.04061 60.4447 8.13661 60.0714 8.32861C59.698 8.50994 59.3994 8.76061 59.1754 9.08061L57.9914 8.16861C58.226 7.83794 58.5087 7.55528 58.8394 7.32061C59.1807 7.08594 59.5594 6.90461 59.9754 6.77661C60.402 6.64861 60.8447 6.58461 61.3034 6.58461C62.4874 6.58461 63.3994 6.87794 64.0394 7.46461C64.6794 8.04061 64.9994 8.85128 64.9994 9.89661V15.0006H63.3194V13.9926H63.2234C63.0847 14.2059 62.8927 14.4086 62.6474 14.6006C62.4127 14.7926 62.13 14.9473 61.7994 15.0646C61.4794 15.1926 61.122 15.2566 60.7274 15.2566ZM61.0314 13.8486C61.4794 13.8486 61.874 13.7419 62.2154 13.5286C62.5674 13.3153 62.8394 13.0379 63.0314 12.6966C63.2234 12.3446 63.3194 11.9659 63.3194 11.5606C63.0847 11.4219 62.7967 11.3099 62.4554 11.2246C62.1247 11.1286 61.7727 11.0806 61.3994 11.0806C60.6954 11.0806 60.194 11.2193 59.8954 11.4966C59.5967 11.7739 59.4474 12.1206 59.4474 12.5366C59.4474 12.9206 59.5914 13.2353 59.8794 13.4806C60.1674 13.7259 60.5514 13.8486 61.0314 13.8486ZM66.3355 6.84061H67.7595V4.53661H69.4875V6.84061H71.4875V8.34461H69.4875V12.2646C69.4875 12.6699 69.5675 12.9793 69.7275 13.1926C69.8982 13.4059 70.1808 13.5126 70.5755 13.5126C70.7675 13.5126 70.9382 13.4859 71.0875 13.4326C71.2368 13.3686 71.3862 13.2939 71.5355 13.2086V14.8886C71.3542 14.9633 71.1622 15.0219 70.9595 15.0646C70.7568 15.1073 70.5168 15.1286 70.2395 15.1286C69.4822 15.1286 68.8795 14.9099 68.4315 14.4726C67.9835 14.0246 67.7595 13.4113 67.7595 12.6326V8.34461H66.3355V6.84061ZM80.1559 15.2566C79.5052 15.2566 78.9399 15.1606 78.4599 14.9686C77.9799 14.7659 77.5852 14.4993 77.2759 14.1686C76.9665 13.8273 76.7372 13.4593 76.5879 13.0646L78.1399 12.3926C78.3319 12.8299 78.6039 13.1659 78.9559 13.4006C79.3185 13.6246 79.7345 13.7366 80.2039 13.7366C80.6305 13.7366 80.9985 13.6619 81.3079 13.5126C81.6172 13.3526 81.7719 13.0966 81.7719 12.7446C81.7719 12.5206 81.6972 12.3393 81.5479 12.2006C81.4092 12.0513 81.2172 11.9286 80.9719 11.8326C80.7372 11.7366 80.4652 11.6513 80.1559 11.5766L79.1799 11.3526C78.7959 11.2566 78.4279 11.1073 78.0759 10.9046C77.7345 10.6913 77.4572 10.4246 77.2439 10.1046C77.0305 9.78461 76.9239 9.40594 76.9239 8.96861C76.9239 8.47794 77.0625 8.05661 77.3399 7.70461C77.6279 7.34194 78.0119 7.06461 78.4919 6.87261C78.9719 6.68061 79.4892 6.58461 80.0439 6.58461C80.5559 6.58461 81.0199 6.65394 81.4359 6.79261C81.8625 6.92061 82.2305 7.11794 82.5399 7.38461C82.8599 7.64061 83.1105 7.96061 83.2919 8.34461L81.8039 9.01661C81.6225 8.65394 81.3772 8.40328 81.0679 8.26461C80.7585 8.11528 80.4225 8.04061 80.0599 8.04061C79.6545 8.04061 79.3132 8.12594 79.0359 8.29661C78.7692 8.45661 78.6359 8.66994 78.6359 8.93661C78.6359 9.21394 78.7532 9.43261 78.9879 9.59261C79.2332 9.75261 79.5319 9.88061 79.8839 9.97661L81.0679 10.2646C81.8785 10.4673 82.4865 10.7766 82.8919 11.1926C83.2972 11.5979 83.4999 12.0939 83.4999 12.6806C83.4999 13.2033 83.3505 13.6619 83.0519 14.0566C82.7532 14.4406 82.3479 14.7393 81.8359 14.9526C81.3345 15.1553 80.7745 15.2566 80.1559 15.2566Z" fill="white"/>
<g id="GPay (Dark)">
<g id="GPay">
<g id="Pay">
<path id="Fill 1" fill-rule="evenodd" clip-rule="evenodd" d="M112.356 3.42339V8.16175H115.278C115.974 8.16175 116.55 7.92781 117.005 7.45993C117.473 6.99313 117.707 6.43644 117.707 5.79203C117.707 5.16061 117.473 4.61041 117.005 4.14254C116.55 3.66274 115.974 3.4223 115.278 3.4223H112.356V3.42339ZM112.356 9.82966V15.3262H110.611V1.75549H115.24C116.417 1.75549 117.415 2.14756 118.238 2.93061C119.073 3.71365 119.491 4.66782 119.491 5.79203C119.491 6.94224 119.073 7.90291 118.238 8.67296C117.428 9.44409 116.429 9.82858 115.24 9.82858H112.356V9.82966Z" fill="white"/>
<path id="Fill 3" fill-rule="evenodd" clip-rule="evenodd" d="M121.255 12.4831C121.255 12.9379 121.448 13.317 121.834 13.6203C122.22 13.9235 122.672 14.0752 123.19 14.0752C123.924 14.0752 124.578 13.8032 125.153 13.2607C125.729 12.717 126.017 12.0791 126.017 11.3469C125.472 10.917 124.713 10.7025 123.74 10.7025C123.031 10.7025 122.44 10.8736 121.966 11.2148C121.492 11.5559 121.255 11.9773 121.255 12.4831M123.513 5.73566C124.803 5.73566 125.821 6.08007 126.569 6.76889C127.314 7.45771 127.687 8.40213 127.687 9.60216V15.3261H126.018V14.0373H125.942C125.221 15.0985 124.259 15.6294 123.058 15.6294C122.033 15.6294 121.176 15.3261 120.487 14.7196C119.797 14.1131 119.453 13.3549 119.453 12.4452C119.453 11.4845 119.816 10.7208 120.543 10.1523C121.271 9.58375 122.241 9.2989 123.456 9.2989C124.492 9.2989 125.346 9.48844 126.017 9.86751V9.46894C126.017 8.86243 125.776 8.34798 125.296 7.92451C124.814 7.50103 124.252 7.28984 123.607 7.28984C122.633 7.28984 121.862 7.70032 121.293 8.52235L119.755 7.55519C120.603 6.34217 121.855 5.73566 123.513 5.73566" fill="white"/>
<path id="Fill 5" fill-rule="evenodd" clip-rule="evenodd" d="M137.269 6.03894L131.443 19.4201H129.641L131.804 14.738L127.971 6.03894H129.869L132.639 12.7106H132.677L135.371 6.03894H137.269Z" fill="white"/>
</g>
<g id="G">
<path id="Fill 8" fill-rule="evenodd" clip-rule="evenodd" d="M105.303 8.64473C105.303 8.09563 105.256 7.56601 105.168 7.05914H97.8065V10.0625H102.023C101.842 11.0414 101.294 11.8744 100.464 12.4322V14.3828H102.98C104.454 13.0246 105.303 11.0177 105.303 8.64473" fill="#4285F4"/>
<path id="Fill 10" fill-rule="evenodd" clip-rule="evenodd" d="M97.8065 16.2651C99.9131 16.2651 101.687 15.5741 102.98 14.3828L100.464 12.4322C99.7635 12.9033 98.8614 13.1784 97.8065 13.1784C95.7703 13.1784 94.042 11.8073 93.424 9.95959H90.8316V11.9687C92.1164 14.516 94.7565 16.2651 97.8065 16.2651" fill="#34A853"/>
<path id="Fill 12" fill-rule="evenodd" clip-rule="evenodd" d="M93.424 9.9596C93.2657 9.48847 93.179 8.98593 93.179 8.46715C93.179 7.94837 93.2657 7.44583 93.424 6.9747V4.96564H90.8316C90.3003 6.01837 90 7.20756 90 8.46715C90 9.72674 90.3003 10.916 90.8316 11.9687L93.424 9.9596Z" fill="#FABB05"/>
<path id="Fill 14" fill-rule="evenodd" clip-rule="evenodd" d="M97.8065 3.75583C98.9568 3.75583 99.9879 4.15115 100.801 4.92553V4.92661L103.029 2.70094C101.676 1.44243 99.912 0.669128 97.8065 0.669128C94.7565 0.669128 92.1164 2.41826 90.8316 4.9656L93.424 6.97467C94.042 5.12698 95.7703 3.75583 97.8065 3.75583" fill="#E94235"/>
</g>
</g>
</g>
</g>
</svg>
