<svg width="262" height="38" viewBox="0 0 262 38" fill="none" xmlns="http://www.w3.org/2000/svg">
<g id="cs_pay_with_Dark">
<path id="Text" d="M2.41321 30V26.864L12.9132 12.864H2.86121V9.952H16.4692V13.088L6.05321 27.088H16.5812V30H2.41321ZM24.4362 30.448C23.4095 30.448 22.4948 30.252 21.6922 29.86C20.8895 29.4493 20.2642 28.88 19.8162 28.152C19.3682 27.424 19.1442 26.5933 19.1442 25.66C19.1442 24.652 19.4055 23.7933 19.9282 23.084C20.4695 22.356 21.1882 21.8053 22.0842 21.432C22.9802 21.0587 23.9695 20.872 25.0522 20.872C25.9482 20.872 26.7322 20.956 27.4042 21.124C28.0948 21.292 28.6175 21.4693 28.9722 21.656V20.9C28.9722 19.9667 28.6362 19.22 27.9642 18.66C27.2922 18.1 26.4242 17.82 25.3602 17.82C24.6322 17.82 23.9415 17.988 23.2882 18.324C22.6348 18.6413 22.1122 19.08 21.7202 19.64L19.6482 18.044C20.2642 17.1853 21.0762 16.5133 22.0842 16.028C23.1108 15.524 24.2308 15.272 25.4442 15.272C27.5162 15.272 29.1122 15.7853 30.2322 16.812C31.3522 17.82 31.9122 19.2387 31.9122 21.068V30H28.9722V28.236H28.8042C28.4308 28.8147 27.8708 29.328 27.1242 29.776C26.3775 30.224 25.4815 30.448 24.4362 30.448ZM24.9682 27.984C25.7522 27.984 26.4428 27.7973 27.0402 27.424C27.6375 27.0507 28.1042 26.5653 28.4402 25.968C28.7948 25.352 28.9722 24.6893 28.9722 23.98C28.5428 23.7373 28.0388 23.5413 27.4602 23.392C26.8815 23.224 26.2655 23.14 25.6122 23.14C24.3802 23.14 23.5028 23.392 22.9802 23.896C22.4575 24.3813 22.1962 24.9787 22.1962 25.688C22.1962 26.36 22.4482 26.9107 22.9522 27.34C23.4562 27.7693 24.1282 27.984 24.9682 27.984ZM35.5133 36.048V15.72H38.3413V17.652H38.5093C38.8827 17.036 39.4613 16.4853 40.2453 16C41.048 15.5147 42 15.272 43.1013 15.272C44.408 15.272 45.5747 15.5987 46.6013 16.252C47.628 16.9053 48.44 17.8013 49.0373 18.94C49.6533 20.0787 49.9613 21.3853 49.9613 22.86C49.9613 24.3347 49.6533 25.6507 49.0373 26.808C48.44 27.9467 47.628 28.8427 46.6013 29.496C45.5747 30.1307 44.408 30.448 43.1013 30.448C42 30.448 41.048 30.2147 40.2453 29.748C39.4613 29.2627 38.8827 28.712 38.5093 28.096H38.3413L38.5093 30.084V36.048H35.5133ZM42.6533 27.676C43.4 27.676 44.1 27.48 44.7533 27.088C45.4067 26.696 45.9387 26.1453 46.3493 25.436C46.76 24.708 46.9653 23.8493 46.9653 22.86C46.9653 21.8707 46.76 21.0213 46.3493 20.312C45.9387 19.584 45.4067 19.024 44.7533 18.632C44.1 18.24 43.4 18.044 42.6533 18.044C41.9067 18.044 41.2067 18.24 40.5533 18.632C39.9 19.024 39.368 19.584 38.9573 20.312C38.5467 21.0213 38.3413 21.8707 38.3413 22.86C38.3413 23.8493 38.5467 24.708 38.9573 25.436C39.368 26.1453 39.9 26.696 40.5533 27.088C41.2067 27.48 41.9067 27.676 42.6533 27.676ZM52.7951 30V9.952H55.8191V30H52.7951ZM64.0276 30.448C63.0009 30.448 62.0863 30.252 61.2836 29.86C60.4809 29.4493 59.8556 28.88 59.4076 28.152C58.9596 27.424 58.7356 26.5933 58.7356 25.66C58.7356 24.652 58.9969 23.7933 59.5196 23.084C60.0609 22.356 60.7796 21.8053 61.6756 21.432C62.5716 21.0587 63.5609 20.872 64.6436 20.872C65.5396 20.872 66.3236 20.956 66.9956 21.124C67.6863 21.292 68.2089 21.4693 68.5636 21.656V20.9C68.5636 19.9667 68.2276 19.22 67.5556 18.66C66.8836 18.1 66.0156 17.82 64.9516 17.82C64.2236 17.82 63.5329 17.988 62.8796 18.324C62.2263 18.6413 61.7036 19.08 61.3116 19.64L59.2396 18.044C59.8556 17.1853 60.6676 16.5133 61.6756 16.028C62.7023 15.524 63.8223 15.272 65.0356 15.272C67.1076 15.272 68.7036 15.7853 69.8236 16.812C70.9436 17.82 71.5036 19.2387 71.5036 21.068V30H68.5636V28.236H68.3956C68.0223 28.8147 67.4623 29.328 66.7156 29.776C65.9689 30.224 65.0729 30.448 64.0276 30.448ZM64.5596 27.984C65.3436 27.984 66.0343 27.7973 66.6316 27.424C67.2289 27.0507 67.6956 26.5653 68.0316 25.968C68.3863 25.352 68.5636 24.6893 68.5636 23.98C68.1343 23.7373 67.6303 23.5413 67.0516 23.392C66.4729 23.224 65.8569 23.14 65.2036 23.14C63.9716 23.14 63.0943 23.392 62.5716 23.896C62.0489 24.3813 61.7876 24.9787 61.7876 25.688C61.7876 26.36 62.0396 26.9107 62.5436 27.34C63.0476 27.7693 63.7196 27.984 64.5596 27.984ZM76.3713 25.856V18.352H73.8793V15.72H76.3713V11.688H79.3953V15.72H82.8953V18.352H79.3953V25.212C79.3953 25.9213 79.5353 26.4627 79.8153 26.836C80.114 27.2093 80.6086 27.396 81.2993 27.396C81.654 27.396 81.9526 27.3493 82.1953 27.256C82.4566 27.1627 82.718 27.032 82.9793 26.864V29.804C82.662 29.9347 82.326 30.0373 81.9713 30.112C81.6166 30.1867 81.1966 30.224 80.7113 30.224C79.386 30.224 78.3313 29.8413 77.5473 29.076C76.7633 28.292 76.3713 27.2187 76.3713 25.856ZM87.9695 13.62C87.4095 13.62 86.9242 13.424 86.5135 13.032C86.1215 12.6213 85.9255 12.136 85.9255 11.576C85.9255 11.016 86.1215 10.54 86.5135 10.148C86.9242 9.756 87.4095 9.56 87.9695 9.56C88.5295 9.56 89.0055 9.756 89.3975 10.148C89.8082 10.54 90.0135 11.016 90.0135 11.576C90.0135 12.136 89.8082 12.6213 89.3975 13.032C89.0055 13.424 88.5295 13.62 87.9695 13.62ZM86.4575 30V15.72H89.4815V30H86.4575ZM94.9088 25.856V18.352H92.4168V15.72H94.9088V11.688H97.9328V15.72H101.433V18.352H97.9328V25.212C97.9328 25.9213 98.0728 26.4627 98.3528 26.836C98.6515 27.2093 99.1461 27.396 99.8368 27.396C100.191 27.396 100.49 27.3493 100.733 27.256C100.994 27.1627 101.255 27.032 101.517 26.864V29.804C101.199 29.9347 100.863 30.0373 100.509 30.112C100.154 30.1867 99.7341 30.224 99.2488 30.224C97.9235 30.224 96.8688 29.8413 96.0848 29.076C95.3008 28.292 94.9088 27.2187 94.9088 25.856ZM111.441 36.048V15.72H114.269V17.652H114.437C114.811 17.036 115.389 16.4853 116.173 16C116.976 15.5147 117.928 15.272 119.029 15.272C120.336 15.272 121.503 15.5987 122.529 16.252C123.556 16.9053 124.368 17.8013 124.965 18.94C125.581 20.0787 125.889 21.3853 125.889 22.86C125.889 24.3347 125.581 25.6507 124.965 26.808C124.368 27.9467 123.556 28.8427 122.529 29.496C121.503 30.1307 120.336 30.448 119.029 30.448C117.928 30.448 116.976 30.2147 116.173 29.748C115.389 29.2627 114.811 28.712 114.437 28.096H114.269L114.437 30.084V36.048H111.441ZM118.581 27.676C119.328 27.676 120.028 27.48 120.681 27.088C121.335 26.696 121.867 26.1453 122.277 25.436C122.688 24.708 122.893 23.8493 122.893 22.86C122.893 21.8707 122.688 21.0213 122.277 20.312C121.867 19.584 121.335 19.024 120.681 18.632C120.028 18.24 119.328 18.044 118.581 18.044C117.835 18.044 117.135 18.24 116.481 18.632C115.828 19.024 115.296 19.584 114.885 20.312C114.475 21.0213 114.269 21.8707 114.269 22.86C114.269 23.8493 114.475 24.708 114.885 25.436C115.296 26.1453 115.828 26.696 116.481 27.088C117.135 27.48 117.835 27.676 118.581 27.676ZM128.832 30V15.72H131.688V17.82H131.856C132.173 17.092 132.715 16.4947 133.48 16.028C134.264 15.5427 135.104 15.3 136 15.3C136.392 15.3 136.719 15.328 136.98 15.384C137.26 15.44 137.512 15.5053 137.736 15.58V18.716C137.381 18.5667 137.017 18.4453 136.644 18.352C136.289 18.2587 135.916 18.212 135.524 18.212C134.815 18.212 134.18 18.408 133.62 18.8C133.079 19.1733 132.649 19.6867 132.332 20.34C132.015 20.9747 131.856 21.6747 131.856 22.44V30H128.832ZM131.856 12.976L128.86 9.588V9.392H131.744L133.032 11.128H133.312L134.628 9.392H137.54V9.588L134.516 12.976H131.856ZM146.047 30.448C144.647 30.448 143.396 30.1213 142.295 29.468C141.193 28.8147 140.325 27.9187 139.691 26.78C139.075 25.6413 138.767 24.344 138.767 22.888C138.767 21.5253 139.065 20.2653 139.663 19.108C140.26 17.9507 141.091 17.0267 142.155 16.336C143.237 15.6267 144.479 15.272 145.879 15.272C147.353 15.272 148.604 15.5893 149.631 16.224C150.676 16.8587 151.469 17.7267 152.011 18.828C152.552 19.9293 152.823 21.1707 152.823 22.552C152.823 22.7573 152.813 22.944 152.795 23.112C152.795 23.28 152.785 23.4107 152.767 23.504H141.735C141.884 24.9227 142.379 25.9867 143.219 26.696C144.077 27.4053 145.048 27.76 146.131 27.76C147.101 27.76 147.904 27.5453 148.539 27.116C149.173 26.668 149.677 26.1173 150.051 25.464L152.543 26.668C151.927 27.788 151.087 28.7027 150.023 29.412C148.959 30.1027 147.633 30.448 146.047 30.448ZM145.907 17.848C144.899 17.848 144.04 18.156 143.331 18.772C142.621 19.388 142.145 20.2093 141.903 21.236H149.827C149.789 20.7507 149.631 20.2467 149.351 19.724C149.071 19.2013 148.641 18.7627 148.063 18.408C147.503 18.0347 146.784 17.848 145.907 17.848ZM161.273 30.448C159.555 30.448 158.183 30.0747 157.157 29.328C156.13 28.5627 155.421 27.6573 155.029 26.612L157.745 25.436C158.081 26.2013 158.566 26.7893 159.201 27.2C159.835 27.592 160.554 27.788 161.357 27.788C162.103 27.788 162.747 27.6573 163.289 27.396C163.83 27.116 164.101 26.668 164.101 26.052C164.101 25.4547 163.83 25.016 163.289 24.736C162.747 24.456 162.075 24.2133 161.273 24.008L159.565 23.616C158.874 23.448 158.23 23.1867 157.633 22.832C157.035 22.4773 156.55 22.02 156.177 21.46C155.803 20.8813 155.617 20.2093 155.617 19.444C155.617 18.604 155.869 17.876 156.373 17.26C156.877 16.6253 157.539 16.14 158.361 15.804C159.201 15.4493 160.106 15.272 161.077 15.272C162.402 15.272 163.559 15.5333 164.549 16.056C165.557 16.56 166.294 17.3253 166.761 18.352L164.157 19.528C163.821 18.8933 163.382 18.4547 162.841 18.212C162.318 17.9507 161.739 17.82 161.105 17.82C160.395 17.82 159.798 17.9693 159.313 18.268C158.846 18.5667 158.613 18.94 158.613 19.388C158.613 19.8733 158.818 20.256 159.229 20.536C159.658 20.816 160.181 21.04 160.797 21.208L162.869 21.712C164.287 22.0667 165.351 22.608 166.061 23.336C166.77 24.0453 167.125 24.9133 167.125 25.94C167.125 26.8547 166.863 27.6573 166.341 28.348C165.818 29.02 165.109 29.5427 164.213 29.916C163.335 30.2707 162.355 30.448 161.273 30.448Z" fill="white"/>
<g id="GPay Logo (Dark)">
<g id="GPay">
<g id="Pay">
<path id="Fill 1" fill-rule="evenodd" clip-rule="evenodd" d="M218.529 9.34665V17.5128H223.565C224.765 17.5128 225.757 17.1096 226.541 16.3032C227.347 15.4988 227.75 14.5394 227.75 13.4288C227.75 12.3406 227.347 11.3924 226.541 10.586C225.757 9.75916 224.765 9.34479 223.565 9.34479H218.529V9.34665ZM218.529 20.3872V29.8599H215.521V6.47218H223.499C225.527 6.47218 227.248 7.14787 228.666 8.49738C230.105 9.84688 230.824 11.4913 230.824 13.4288C230.824 15.411 230.105 17.0667 228.666 18.3938C227.27 19.7227 225.547 20.3854 223.499 20.3854H218.529V20.3872Z" fill="white"/>
<path id="Fill 3" fill-rule="evenodd" clip-rule="evenodd" d="M233.864 24.9602C233.864 25.7442 234.197 26.3975 234.862 26.9201C235.527 27.4427 236.306 27.704 237.2 27.704C238.465 27.704 239.591 27.2354 240.584 26.3004C241.576 25.3634 242.071 24.264 242.071 23.0022C241.133 22.2612 239.825 21.8916 238.147 21.8916C236.925 21.8916 235.907 22.1866 235.09 22.7745C234.273 23.3623 233.864 24.0886 233.864 24.9602ZM237.756 13.3317C239.98 13.3317 241.735 13.9253 243.022 15.1124C244.308 16.2995 244.95 17.9271 244.95 19.9952V29.8599H242.073V27.6387H241.942C240.699 29.4677 239.042 30.3825 236.972 30.3825C235.206 30.3825 233.728 29.8599 232.541 28.8146C231.353 27.7694 230.759 26.4628 230.759 24.8949C230.759 23.2393 231.385 21.9232 232.638 20.9434C233.892 19.9635 235.565 19.4726 237.658 19.4726C239.444 19.4726 240.916 19.7993 242.071 20.4525V19.7657C242.071 18.7204 241.656 17.8338 240.829 17.104C239.999 16.3742 239.031 16.0102 237.919 16.0102C236.239 16.0102 234.911 16.7176 233.93 18.1343L231.28 16.4675C232.741 14.377 234.899 13.3317 237.756 13.3317Z" fill="white"/>
<path id="Fill 5" fill-rule="evenodd" clip-rule="evenodd" d="M261.463 13.8543L251.424 36.9154H248.318L252.046 28.8464L245.44 13.8543H248.71L253.484 25.3522H253.55L258.193 13.8543H261.463Z" fill="white"/>
</g>
<g id="G">
<path id="Fill 8" fill-rule="evenodd" clip-rule="evenodd" d="M206.373 18.3452C206.373 17.3989 206.293 16.4861 206.141 15.6126H193.454V20.7885H200.72C200.408 22.4757 199.465 23.9112 198.033 24.8725V28.2341H202.37C204.91 25.8935 206.373 22.4348 206.373 18.3452Z" fill="#4285F4"/>
<path id="Fill 10" fill-rule="evenodd" clip-rule="evenodd" d="M193.454 31.4782C197.084 31.4782 200.141 30.2873 202.37 28.2341L198.033 24.8725C196.826 25.6844 195.272 26.1585 193.454 26.1585C189.944 26.1585 186.966 23.7955 185.901 20.6112H181.433V24.0736C183.647 28.4637 188.197 31.4782 193.454 31.4782Z" fill="#34A853"/>
<path id="Fill 12" fill-rule="evenodd" clip-rule="evenodd" d="M185.901 20.6111C185.628 19.7992 185.479 18.9331 185.479 18.0391C185.479 17.145 185.628 16.2789 185.901 15.467V12.0045H181.433C180.518 13.8188 180 15.8683 180 18.0391C180 20.2098 180.518 22.2595 181.433 24.0736L185.901 20.6111Z" fill="#FABB05"/>
<path id="Fill 14" fill-rule="evenodd" clip-rule="evenodd" d="M193.454 9.91964C195.436 9.91964 197.213 10.6009 198.615 11.9355V11.9374L202.455 8.10163C200.123 5.93272 197.082 4.60001 193.454 4.60001C188.197 4.60001 183.647 7.61447 181.433 12.0046L185.901 15.467C186.966 12.2827 189.944 9.91964 193.454 9.91964Z" fill="#E94235"/>
</g>
</g>
</g>
</g>
</svg>
