<svg width="141" height="21" viewBox="0 0 141 21" fill="none" xmlns="http://www.w3.org/2000/svg">
<g id="cs_subscribe_with_Pay_NBG">
<path id="Left Text" d="M2.06787 15.0006V3.54461H6.00387C6.69721 3.54461 7.32654 3.69394 7.89187 3.99261C8.45721 4.28061 8.90521 4.69128 9.23587 5.22461C9.57721 5.74728 9.74787 6.35528 9.74787 7.04861C9.74787 7.73128 9.57721 8.33928 9.23587 8.87261C8.90521 9.40594 8.45721 9.82194 7.89187 10.1206C7.32654 10.4086 6.69721 10.5526 6.00387 10.5526H3.82787V15.0006H2.06787ZM3.82787 8.88861H6.05187C6.46787 8.88861 6.81987 8.80328 7.10787 8.63261C7.39587 8.45128 7.61454 8.22194 7.76387 7.94461C7.92387 7.65661 8.00387 7.35794 8.00387 7.04861C8.00387 6.73928 7.92387 6.44594 7.76387 6.16861C7.61454 5.89128 7.39587 5.66194 7.10787 5.48061C6.81987 5.29928 6.46787 5.20861 6.05187 5.20861H3.82787V8.88861ZM11.4142 15.0006V6.84061H13.0462V8.04061H13.1422C13.2702 7.76328 13.4516 7.51794 13.6862 7.30461C13.9316 7.09128 14.2089 6.92061 14.5182 6.79261C14.8382 6.66461 15.1689 6.60061 15.5102 6.60061C15.7342 6.60061 15.9209 6.61661 16.0702 6.64861C16.2302 6.66994 16.3742 6.70728 16.5022 6.76061V8.55261C16.2996 8.46728 16.0916 8.39794 15.8782 8.34461C15.6756 8.29128 15.4622 8.26461 15.2382 8.26461C14.8329 8.26461 14.4702 8.37661 14.1502 8.60061C13.8409 8.81394 13.5956 9.10194 13.4142 9.46461C13.2329 9.82728 13.1422 10.2326 13.1422 10.6806V15.0006H11.4142ZM13.1422 5.27261L11.4302 3.33661V3.22461H13.0782L13.8142 4.21661H13.9742L14.7262 3.22461H16.3902V3.33661L14.6622 5.27261H13.1422ZM21.2297 15.2566C20.4297 15.2566 19.7151 15.0699 19.0857 14.6966C18.4564 14.3233 17.9604 13.8113 17.5977 13.1606C17.2457 12.5099 17.0697 11.7686 17.0697 10.9366C17.0697 10.1579 17.2404 9.43794 17.5817 8.77661C17.9231 8.11528 18.3977 7.58728 19.0057 7.19261C19.6244 6.78728 20.3337 6.58461 21.1337 6.58461C21.9764 6.58461 22.6911 6.76594 23.2777 7.12861C23.8751 7.49128 24.3284 7.98728 24.6377 8.61661C24.9471 9.24594 25.1017 9.95528 25.1017 10.7446C25.1017 10.8619 25.0964 10.9686 25.0857 11.0646C25.0857 11.1606 25.0804 11.2353 25.0697 11.2886H18.7657C18.8084 11.7366 18.9204 12.1259 19.1017 12.4566C19.3364 12.8726 19.6457 13.1873 20.0297 13.4006C20.4137 13.6139 20.8297 13.7206 21.2777 13.7206C21.8217 13.7206 22.2751 13.5979 22.6377 13.3526C23.0111 13.0966 23.3044 12.7819 23.5177 12.4086L24.9417 13.0966C24.5897 13.7366 24.1097 14.2593 23.5017 14.6646C22.8937 15.0593 22.1364 15.2566 21.2297 15.2566ZM18.8617 9.99261H23.3897C23.3791 9.78994 23.3257 9.57661 23.2297 9.35261C23.1337 9.11794 22.9951 8.90461 22.8137 8.71261C22.6324 8.52061 22.4031 8.36594 22.1257 8.24861C21.8484 8.12061 21.5231 8.05661 21.1497 8.05661C20.6804 8.05661 20.2644 8.17928 19.9017 8.42461C19.5391 8.65928 19.2564 8.98994 19.0537 9.41661C18.9684 9.59794 18.9044 9.78994 18.8617 9.99261ZM30.421 15.2566C29.685 15.2566 29.0183 15.0699 28.421 14.6966C27.8237 14.3233 27.3543 13.8113 27.013 13.1606C26.6717 12.5099 26.501 11.7633 26.501 10.9206C26.501 10.0779 26.6717 9.33128 27.013 8.68061C27.3543 8.02994 27.8237 7.51794 28.421 7.14461C29.0183 6.77128 29.685 6.58461 30.421 6.58461C30.8477 6.58461 31.2317 6.64861 31.573 6.77661C31.9143 6.90461 32.2077 7.07528 32.453 7.28861C32.709 7.49128 32.9063 7.70994 33.045 7.94461H33.141L33.045 6.80861V3.54461H34.757V15.0006H33.141V13.9126H33.045C32.9063 14.1366 32.709 14.3553 32.453 14.5686C32.2077 14.7713 31.9143 14.9366 31.573 15.0646C31.2317 15.1926 30.8477 15.2566 30.421 15.2566ZM30.677 13.6726C31.1037 13.6726 31.5037 13.5606 31.877 13.3366C32.261 13.1126 32.565 12.7979 32.789 12.3926C33.0237 11.9766 33.141 11.4859 33.141 10.9206C33.141 10.3553 33.0237 9.86994 32.789 9.46461C32.565 9.04861 32.261 8.72861 31.877 8.50461C31.5037 8.28061 31.1037 8.16861 30.677 8.16861C30.2503 8.16861 29.8503 8.28061 29.477 8.50461C29.1037 8.72861 28.7997 9.04861 28.565 9.46461C28.3303 9.86994 28.213 10.3553 28.213 10.9206C28.213 11.4753 28.3303 11.9606 28.565 12.3766C28.7997 12.7926 29.1037 13.1126 29.477 13.3366C29.8503 13.5606 30.2503 13.6726 30.677 13.6726ZM36.9264 18.4566V6.84061H38.5424V7.94461H38.6384C38.7877 7.70994 38.985 7.49128 39.2304 7.28861C39.4864 7.07528 39.785 6.90461 40.1264 6.77661C40.4677 6.64861 40.8464 6.58461 41.2624 6.58461C42.009 6.58461 42.6757 6.77128 43.2624 7.14461C43.849 7.51794 44.313 8.02994 44.6544 8.68061C45.0064 9.33128 45.1824 10.0779 45.1824 10.9206C45.1824 11.7633 45.0064 12.5099 44.6544 13.1606C44.313 13.8113 43.849 14.3233 43.2624 14.6966C42.6757 15.0699 42.009 15.2566 41.2624 15.2566C40.6437 15.2566 40.105 15.1179 39.6464 14.8406C39.1877 14.5633 38.8517 14.2539 38.6384 13.9126H38.5424L38.6384 15.0486V18.4566H36.9264ZM41.0064 13.6726C41.433 13.6726 41.833 13.5606 42.2064 13.3366C42.5904 13.1126 42.8944 12.7926 43.1184 12.3766C43.353 11.9606 43.4704 11.4753 43.4704 10.9206C43.4704 10.3553 43.353 9.86994 43.1184 9.46461C42.8944 9.04861 42.5904 8.72861 42.2064 8.50461C41.833 8.28061 41.433 8.16861 41.0064 8.16861C40.5797 8.16861 40.1797 8.28061 39.8064 8.50461C39.433 8.72861 39.129 9.04861 38.8944 9.46461C38.6597 9.86994 38.5424 10.3553 38.5424 10.9206C38.5424 11.4859 38.6597 11.9766 38.8944 12.3926C39.129 12.7979 39.433 13.1126 39.8064 13.3366C40.1797 13.5606 40.5797 13.6726 41.0064 13.6726ZM46.7802 15.0006V3.54461H48.5082V15.0006H46.7802ZM53.1774 15.2566C52.5907 15.2566 52.068 15.1393 51.6094 14.9046C51.1614 14.6699 50.804 14.3499 50.5374 13.9446C50.2814 13.5286 50.1534 13.0539 50.1534 12.5206C50.1534 11.9339 50.3027 11.4379 50.6014 11.0326C50.9107 10.6273 51.3214 10.3179 51.8334 10.1046C52.3454 9.89128 52.9107 9.78461 53.5294 9.78461C53.8707 9.78461 54.1854 9.81128 54.4734 9.86461C54.772 9.90728 55.028 9.96061 55.2414 10.0246C55.4654 10.0886 55.6414 10.1579 55.7694 10.2326V9.80061C55.7694 9.26728 55.5774 8.84061 55.1934 8.52061C54.8094 8.20061 54.3134 8.04061 53.7054 8.04061C53.2894 8.04061 52.8947 8.13661 52.5214 8.32861C52.148 8.50994 51.8494 8.76061 51.6254 9.08061L50.4414 8.16861C50.676 7.83794 50.9587 7.55528 51.2894 7.32061C51.6307 7.08594 52.0094 6.90461 52.4254 6.77661C52.852 6.64861 53.2947 6.58461 53.7534 6.58461C54.9374 6.58461 55.8494 6.87794 56.4894 7.46461C57.1294 8.04061 57.4494 8.85128 57.4494 9.89661V15.0006H55.7694V13.9926H55.6734C55.5347 14.2059 55.3427 14.4086 55.0974 14.6006C54.8627 14.7926 54.58 14.9473 54.2494 15.0646C53.9294 15.1926 53.572 15.2566 53.1774 15.2566ZM53.4814 13.8486C53.9294 13.8486 54.324 13.7419 54.6654 13.5286C55.0174 13.3153 55.2894 13.0379 55.4814 12.6966C55.6734 12.3446 55.7694 11.9659 55.7694 11.5606C55.5347 11.4219 55.2467 11.3099 54.9054 11.2246C54.5747 11.1286 54.2227 11.0806 53.8494 11.0806C53.1454 11.0806 52.644 11.2193 52.3454 11.4966C52.0467 11.7739 51.8974 12.1206 51.8974 12.5366C51.8974 12.9206 52.0414 13.2353 52.3294 13.4806C52.6174 13.7259 53.0014 13.8486 53.4814 13.8486ZM58.7855 6.84061H60.2095V4.53661H61.9375V6.84061H63.9375V8.34461H61.9375V12.2646C61.9375 12.6699 62.0175 12.9793 62.1775 13.1926C62.3482 13.4059 62.6308 13.5126 63.0255 13.5126C63.2175 13.5126 63.3882 13.4859 63.5375 13.4326C63.6868 13.3686 63.8362 13.2939 63.9855 13.2086V14.8886C63.8042 14.9633 63.6122 15.0219 63.4095 15.0646C63.2068 15.1073 62.9668 15.1286 62.6895 15.1286C61.9322 15.1286 61.3295 14.9099 60.8815 14.4726C60.4335 14.0246 60.2095 13.4113 60.2095 12.6326V8.34461H58.7855V6.84061ZM65.9516 15.0006V6.84061H67.6796V15.0006H65.9516ZM66.8156 5.64061C66.4956 5.64061 66.2183 5.52861 65.9836 5.30461C65.7596 5.06994 65.6476 4.79261 65.6476 4.47261C65.6476 4.14194 65.7596 3.86994 65.9836 3.65661C66.2183 3.43261 66.4956 3.32061 66.8156 3.32061C67.1463 3.32061 67.4236 3.43261 67.6476 3.65661C67.8716 3.86994 67.9836 4.14194 67.9836 4.47261C67.9836 4.79261 67.8716 5.06994 67.6476 5.30461C67.4236 5.52861 67.1463 5.64061 66.8156 5.64061ZM69.3355 6.84061H70.7595V4.53661H72.4875V6.84061H74.4875V8.34461H72.4875V12.2646C72.4875 12.6699 72.5675 12.9793 72.7275 13.1926C72.8982 13.4059 73.1808 13.5126 73.5755 13.5126C73.7675 13.5126 73.9382 13.4859 74.0875 13.4326C74.2368 13.3686 74.3862 13.2939 74.5355 13.2086V14.8886C74.3542 14.9633 74.1622 15.0219 73.9595 15.0646C73.7568 15.1073 73.5168 15.1286 73.2395 15.1286C72.4822 15.1286 71.8795 14.9099 71.4315 14.4726C70.9835 14.0246 70.7595 13.4113 70.7595 12.6326V8.34461H69.3355V6.84061ZM83.1559 15.2566C82.5052 15.2566 81.9399 15.1606 81.4599 14.9686C80.9799 14.7659 80.5852 14.4993 80.2759 14.1686C79.9665 13.8273 79.7372 13.4593 79.5879 13.0646L81.1399 12.3926C81.3319 12.8299 81.6039 13.1659 81.9559 13.4006C82.3185 13.6246 82.7345 13.7366 83.2039 13.7366C83.6305 13.7366 83.9985 13.6619 84.3079 13.5126C84.6172 13.3526 84.7719 13.0966 84.7719 12.7446C84.7719 12.5206 84.6972 12.3393 84.5479 12.2006C84.4092 12.0513 84.2172 11.9286 83.9719 11.8326C83.7372 11.7366 83.4652 11.6513 83.1559 11.5766L82.1799 11.3526C81.7959 11.2566 81.4279 11.1073 81.0759 10.9046C80.7345 10.6913 80.4572 10.4246 80.2439 10.1046C80.0305 9.78461 79.9239 9.40594 79.9239 8.96861C79.9239 8.47794 80.0625 8.05661 80.3399 7.70461C80.6279 7.34194 81.0119 7.06461 81.4919 6.87261C81.9719 6.68061 82.4892 6.58461 83.0439 6.58461C83.5559 6.58461 84.0199 6.65394 84.4359 6.79261C84.8625 6.92061 85.2305 7.11794 85.5399 7.38461C85.8599 7.64061 86.1105 7.96061 86.2919 8.34461L84.8039 9.01661C84.6225 8.65394 84.3772 8.40328 84.0679 8.26461C83.7585 8.11528 83.4225 8.04061 83.0599 8.04061C82.6545 8.04061 82.3132 8.12594 82.0359 8.29661C81.7692 8.45661 81.6359 8.66994 81.6359 8.93661C81.6359 9.21394 81.7532 9.43261 81.9879 9.59261C82.2332 9.75261 82.5319 9.88061 82.8839 9.97661L84.0679 10.2646C84.8785 10.4673 85.4865 10.7766 85.8919 11.1926C86.2972 11.5979 86.4999 12.0939 86.4999 12.6806C86.4999 13.2033 86.3505 13.6619 86.0519 14.0566C85.7532 14.4406 85.3479 14.7393 84.8359 14.9526C84.3345 15.1553 83.7745 15.2566 83.1559 15.2566Z" fill="white"/>
<g id="GPay (Dark)">
<g id="GPay">
<g id="Pay">
<path id="Fill 1" fill-rule="evenodd" clip-rule="evenodd" d="M115.356 3.42339V8.16175H118.278C118.974 8.16175 119.55 7.92781 120.005 7.45993C120.473 6.99313 120.707 6.43644 120.707 5.79203C120.707 5.16061 120.473 4.61041 120.005 4.14254C119.55 3.66274 118.974 3.4223 118.278 3.4223H115.356V3.42339ZM115.356 9.82966V15.3262H113.611V1.75549H118.24C119.417 1.75549 120.415 2.14756 121.238 2.93061C122.073 3.71365 122.491 4.66782 122.491 5.79203C122.491 6.94224 122.073 7.90291 121.238 8.67296C120.428 9.44409 119.429 9.82858 118.24 9.82858H115.356V9.82966Z" fill="white"/>
<path id="Fill 3" fill-rule="evenodd" clip-rule="evenodd" d="M124.255 12.4831C124.255 12.9379 124.448 13.317 124.834 13.6203C125.22 13.9235 125.672 14.0752 126.19 14.0752C126.924 14.0752 127.578 13.8032 128.153 13.2607C128.729 12.717 129.017 12.0791 129.017 11.3469C128.472 10.917 127.713 10.7025 126.74 10.7025C126.031 10.7025 125.44 10.8736 124.966 11.2148C124.492 11.5559 124.255 11.9773 124.255 12.4831M126.513 5.73566C127.803 5.73566 128.821 6.08007 129.569 6.76889C130.314 7.45771 130.687 8.40213 130.687 9.60216V15.3261H129.018V14.0373H128.942C128.221 15.0985 127.259 15.6294 126.058 15.6294C125.033 15.6294 124.176 15.3261 123.487 14.7196C122.797 14.1131 122.453 13.3549 122.453 12.4452C122.453 11.4845 122.816 10.7208 123.543 10.1523C124.271 9.58375 125.241 9.2989 126.456 9.2989C127.492 9.2989 128.346 9.48844 129.017 9.86751V9.46894C129.017 8.86243 128.776 8.34798 128.296 7.92451C127.814 7.50103 127.252 7.28984 126.607 7.28984C125.633 7.28984 124.862 7.70032 124.293 8.52235L122.755 7.55519C123.603 6.34217 124.855 5.73566 126.513 5.73566" fill="white"/>
<path id="Fill 5" fill-rule="evenodd" clip-rule="evenodd" d="M140.269 6.03894L134.443 19.4201H132.641L134.804 14.738L130.971 6.03894H132.869L135.639 12.7106H135.677L138.371 6.03894H140.269Z" fill="white"/>
</g>
<g id="G">
<path id="Fill 8" fill-rule="evenodd" clip-rule="evenodd" d="M108.303 8.64473C108.303 8.09563 108.256 7.56601 108.168 7.05914H100.806V10.0625H105.023C104.842 11.0414 104.294 11.8744 103.464 12.4322V14.3828H105.98C107.454 13.0246 108.303 11.0177 108.303 8.64473" fill="#4285F4"/>
<path id="Fill 10" fill-rule="evenodd" clip-rule="evenodd" d="M100.806 16.2651C102.913 16.2651 104.687 15.5741 105.98 14.3828L103.464 12.4322C102.763 12.9033 101.861 13.1784 100.806 13.1784C98.7703 13.1784 97.042 11.8073 96.424 9.95959H93.8316V11.9687C95.1164 14.516 97.7565 16.2651 100.806 16.2651" fill="#34A853"/>
<path id="Fill 12" fill-rule="evenodd" clip-rule="evenodd" d="M96.424 9.9596C96.2657 9.48847 96.179 8.98593 96.179 8.46715C96.179 7.94837 96.2657 7.44583 96.424 6.9747V4.96564H93.8316C93.3003 6.01837 93 7.20756 93 8.46715C93 9.72674 93.3003 10.916 93.8316 11.9687L96.424 9.9596Z" fill="#FABB05"/>
<path id="Fill 14" fill-rule="evenodd" clip-rule="evenodd" d="M100.806 3.75583C101.957 3.75583 102.988 4.15115 103.801 4.92553V4.92661L106.029 2.70094C104.676 1.44243 102.912 0.669128 100.806 0.669128C97.7565 0.669128 95.1164 2.41826 93.8316 4.9656L96.424 6.97467C97.042 5.12698 98.7703 3.75583 100.806 3.75583" fill="#E94235"/>
</g>
</g>
</g>
</g>
</svg>
