<svg width="290" height="38" viewBox="0 0 290 38" fill="none" xmlns="http://www.w3.org/2000/svg">
<g id="cs_subscribe_with_Dark">
<path id="Text" d="M2.36097 30V9.952H9.24897C10.4623 9.952 11.5636 10.2133 12.553 10.736C13.5423 11.2587 14.3263 11.9773 14.905 12.892C15.5023 13.8067 15.801 14.8707 15.801 16.084C15.801 17.2973 15.5023 18.3707 14.905 19.304C14.3263 20.2187 13.5423 20.9373 12.553 21.46C11.5636 21.964 10.4623 22.216 9.24897 22.216H5.44097V30H2.36097ZM9.33297 12.864H5.44097V19.304H9.33297C10.061 19.304 10.677 19.1547 11.181 18.856C11.685 18.5387 12.0676 18.1373 12.329 17.652C12.609 17.148 12.749 16.6253 12.749 16.084C12.749 15.5427 12.609 15.0293 12.329 14.544C12.0676 14.0587 11.685 13.6573 11.181 13.34C10.677 13.0227 10.061 12.864 9.33297 12.864ZM18.7546 30V15.72H21.6106V17.82H21.7786C22.096 17.092 22.6373 16.4947 23.4026 16.028C24.1866 15.5427 25.0266 15.3 25.9226 15.3C26.3146 15.3 26.6413 15.328 26.9026 15.384C27.1826 15.44 27.4346 15.5053 27.6586 15.58V18.716C27.304 18.5667 26.94 18.4453 26.5666 18.352C26.212 18.2587 25.8386 18.212 25.4466 18.212C24.7373 18.212 24.1026 18.408 23.5426 18.8C23.0013 19.1733 22.572 19.6867 22.2546 20.34C21.9373 20.9747 21.7786 21.6747 21.7786 22.44V30H18.7546ZM21.7786 12.976L18.7826 9.588V9.392H21.6666L22.9546 11.128H23.2346L24.5506 9.392H27.4626V9.588L24.4386 12.976H21.7786ZM35.9693 30.448C34.5693 30.448 33.3186 30.1213 32.2173 29.468C31.1159 28.8147 30.2479 27.9187 29.6133 26.78C28.9973 25.6413 28.6893 24.344 28.6893 22.888C28.6893 21.5253 28.9879 20.2653 29.5853 19.108C30.1826 17.9507 31.0133 17.0267 32.0773 16.336C33.1599 15.6267 34.4013 15.272 35.8013 15.272C37.2759 15.272 38.5266 15.5893 39.5533 16.224C40.5986 16.8587 41.3919 17.7267 41.9333 18.828C42.4746 19.9293 42.7453 21.1707 42.7453 22.552C42.7453 22.7573 42.7359 22.944 42.7173 23.112C42.7173 23.28 42.7079 23.4107 42.6893 23.504H31.6573C31.8066 24.9227 32.3013 25.9867 33.1413 26.696C33.9999 27.4053 34.9706 27.76 36.0533 27.76C37.0239 27.76 37.8266 27.5453 38.4613 27.116C39.0959 26.668 39.5999 26.1173 39.9733 25.464L42.4653 26.668C41.8493 27.788 41.0093 28.7027 39.9453 29.412C38.8813 30.1027 37.5559 30.448 35.9693 30.448ZM35.8293 17.848C34.8213 17.848 33.9626 18.156 33.2533 18.772C32.5439 19.388 32.0679 20.2093 31.8253 21.236H39.7493C39.7119 20.7507 39.5533 20.2467 39.2733 19.724C38.9933 19.2013 38.5639 18.7627 37.9853 18.408C37.4253 18.0347 36.7066 17.848 35.8293 17.848ZM52.0914 30.448C50.8034 30.448 49.6368 30.1307 48.5914 29.496C47.5648 28.8427 46.7434 27.9467 46.1274 26.808C45.5301 25.6507 45.2314 24.3347 45.2314 22.86C45.2314 21.3853 45.5301 20.0787 46.1274 18.94C46.7434 17.8013 47.5648 16.9053 48.5914 16.252C49.6368 15.5987 50.8034 15.272 52.0914 15.272C53.1928 15.272 54.1354 15.5147 54.9194 16C55.7221 16.4853 56.3101 17.036 56.6834 17.652H56.8514L56.6834 15.664V9.952H59.6794V30H56.8514V28.096H56.6834C56.3101 28.712 55.7221 29.2627 54.9194 29.748C54.1354 30.2147 53.1928 30.448 52.0914 30.448ZM52.5394 27.676C53.2861 27.676 53.9861 27.48 54.6394 27.088C55.3114 26.696 55.8434 26.1453 56.2354 25.436C56.6461 24.708 56.8514 23.8493 56.8514 22.86C56.8514 21.8707 56.6461 21.0213 56.2354 20.312C55.8434 19.584 55.3114 19.024 54.6394 18.632C53.9861 18.24 53.2861 18.044 52.5394 18.044C51.7928 18.044 51.0928 18.24 50.4394 18.632C49.7861 19.024 49.2541 19.584 48.8434 20.312C48.4328 21.0213 48.2274 21.8707 48.2274 22.86C48.2274 23.8493 48.4328 24.708 48.8434 25.436C49.2541 26.1453 49.7861 26.696 50.4394 27.088C51.0928 27.48 51.7928 27.676 52.5394 27.676ZM63.5133 36.048V15.72H66.3413V17.652H66.5093C66.8827 17.036 67.4613 16.4853 68.2453 16C69.048 15.5147 70 15.272 71.1013 15.272C72.408 15.272 73.5747 15.5987 74.6013 16.252C75.628 16.9053 76.44 17.8013 77.0373 18.94C77.6533 20.0787 77.9613 21.3853 77.9613 22.86C77.9613 24.3347 77.6533 25.6507 77.0373 26.808C76.44 27.9467 75.628 28.8427 74.6013 29.496C73.5747 30.1307 72.408 30.448 71.1013 30.448C70 30.448 69.048 30.2147 68.2453 29.748C67.4613 29.2627 66.8827 28.712 66.5093 28.096H66.3413L66.5093 30.084V36.048H63.5133ZM70.6533 27.676C71.4 27.676 72.1 27.48 72.7533 27.088C73.4067 26.696 73.9387 26.1453 74.3493 25.436C74.76 24.708 74.9653 23.8493 74.9653 22.86C74.9653 21.8707 74.76 21.0213 74.3493 20.312C73.9387 19.584 73.4067 19.024 72.7533 18.632C72.1 18.24 71.4 18.044 70.6533 18.044C69.9067 18.044 69.2067 18.24 68.5533 18.632C67.9 19.024 67.368 19.584 66.9573 20.312C66.5467 21.0213 66.3413 21.8707 66.3413 22.86C66.3413 23.8493 66.5467 24.708 66.9573 25.436C67.368 26.1453 67.9 26.696 68.5533 27.088C69.2067 27.48 69.9067 27.676 70.6533 27.676ZM80.7951 30V9.952H83.8191V30H80.7951ZM92.0276 30.448C91.0009 30.448 90.0863 30.252 89.2836 29.86C88.4809 29.4493 87.8556 28.88 87.4076 28.152C86.9596 27.424 86.7356 26.5933 86.7356 25.66C86.7356 24.652 86.9969 23.7933 87.5196 23.084C88.0609 22.356 88.7796 21.8053 89.6756 21.432C90.5716 21.0587 91.5609 20.872 92.6436 20.872C93.5396 20.872 94.3236 20.956 94.9956 21.124C95.6863 21.292 96.2089 21.4693 96.5636 21.656V20.9C96.5636 19.9667 96.2276 19.22 95.5556 18.66C94.8836 18.1 94.0156 17.82 92.9516 17.82C92.2236 17.82 91.5329 17.988 90.8796 18.324C90.2263 18.6413 89.7036 19.08 89.3116 19.64L87.2396 18.044C87.8556 17.1853 88.6676 16.5133 89.6756 16.028C90.7023 15.524 91.8223 15.272 93.0356 15.272C95.1076 15.272 96.7036 15.7853 97.8236 16.812C98.9436 17.82 99.5036 19.2387 99.5036 21.068V30H96.5636V28.236H96.3956C96.0223 28.8147 95.4623 29.328 94.7156 29.776C93.9689 30.224 93.0729 30.448 92.0276 30.448ZM92.5596 27.984C93.3436 27.984 94.0343 27.7973 94.6316 27.424C95.2289 27.0507 95.6956 26.5653 96.0316 25.968C96.3863 25.352 96.5636 24.6893 96.5636 23.98C96.1343 23.7373 95.6303 23.5413 95.0516 23.392C94.4729 23.224 93.8569 23.14 93.2036 23.14C91.9716 23.14 91.0943 23.392 90.5716 23.896C90.0489 24.3813 89.7876 24.9787 89.7876 25.688C89.7876 26.36 90.0396 26.9107 90.5436 27.34C91.0476 27.7693 91.7196 27.984 92.5596 27.984ZM104.371 25.856V18.352H101.879V15.72H104.371V11.688H107.395V15.72H110.895V18.352H107.395V25.212C107.395 25.9213 107.535 26.4627 107.815 26.836C108.114 27.2093 108.609 27.396 109.299 27.396C109.654 27.396 109.953 27.3493 110.195 27.256C110.457 27.1627 110.718 27.032 110.979 26.864V29.804C110.662 29.9347 110.326 30.0373 109.971 30.112C109.617 30.1867 109.197 30.224 108.711 30.224C107.386 30.224 106.331 29.8413 105.547 29.076C104.763 28.292 104.371 27.2187 104.371 25.856ZM115.97 13.62C115.41 13.62 114.924 13.424 114.514 13.032C114.122 12.6213 113.926 12.136 113.926 11.576C113.926 11.016 114.122 10.54 114.514 10.148C114.924 9.756 115.41 9.56 115.97 9.56C116.53 9.56 117.006 9.756 117.398 10.148C117.808 10.54 118.014 11.016 118.014 11.576C118.014 12.136 117.808 12.6213 117.398 13.032C117.006 13.424 116.53 13.62 115.97 13.62ZM114.458 30V15.72H117.482V30H114.458ZM122.909 25.856V18.352H120.417V15.72H122.909V11.688H125.933V15.72H129.433V18.352H125.933V25.212C125.933 25.9213 126.073 26.4627 126.353 26.836C126.651 27.2093 127.146 27.396 127.837 27.396C128.191 27.396 128.49 27.3493 128.733 27.256C128.994 27.1627 129.255 27.032 129.517 26.864V29.804C129.199 29.9347 128.863 30.0373 128.509 30.112C128.154 30.1867 127.734 30.224 127.249 30.224C125.923 30.224 124.869 29.8413 124.085 29.076C123.301 28.292 122.909 27.2187 122.909 25.856ZM139.441 36.048V15.72H142.269V17.652H142.437C142.811 17.036 143.389 16.4853 144.173 16C144.976 15.5147 145.928 15.272 147.029 15.272C148.336 15.272 149.503 15.5987 150.529 16.252C151.556 16.9053 152.368 17.8013 152.965 18.94C153.581 20.0787 153.889 21.3853 153.889 22.86C153.889 24.3347 153.581 25.6507 152.965 26.808C152.368 27.9467 151.556 28.8427 150.529 29.496C149.503 30.1307 148.336 30.448 147.029 30.448C145.928 30.448 144.976 30.2147 144.173 29.748C143.389 29.2627 142.811 28.712 142.437 28.096H142.269L142.437 30.084V36.048H139.441ZM146.581 27.676C147.328 27.676 148.028 27.48 148.681 27.088C149.335 26.696 149.867 26.1453 150.277 25.436C150.688 24.708 150.893 23.8493 150.893 22.86C150.893 21.8707 150.688 21.0213 150.277 20.312C149.867 19.584 149.335 19.024 148.681 18.632C148.028 18.24 147.328 18.044 146.581 18.044C145.835 18.044 145.135 18.24 144.481 18.632C143.828 19.024 143.296 19.584 142.885 20.312C142.475 21.0213 142.269 21.8707 142.269 22.86C142.269 23.8493 142.475 24.708 142.885 25.436C143.296 26.1453 143.828 26.696 144.481 27.088C145.135 27.48 145.835 27.676 146.581 27.676ZM156.832 30V15.72H159.688V17.82H159.856C160.173 17.092 160.715 16.4947 161.48 16.028C162.264 15.5427 163.104 15.3 164 15.3C164.392 15.3 164.719 15.328 164.98 15.384C165.26 15.44 165.512 15.5053 165.736 15.58V18.716C165.381 18.5667 165.017 18.4453 164.644 18.352C164.289 18.2587 163.916 18.212 163.524 18.212C162.815 18.212 162.18 18.408 161.62 18.8C161.079 19.1733 160.649 19.6867 160.332 20.34C160.015 20.9747 159.856 21.6747 159.856 22.44V30H156.832ZM159.856 12.976L156.86 9.588V9.392H159.744L161.032 11.128H161.312L162.628 9.392H165.54V9.588L162.516 12.976H159.856ZM174.047 30.448C172.647 30.448 171.396 30.1213 170.295 29.468C169.193 28.8147 168.325 27.9187 167.691 26.78C167.075 25.6413 166.767 24.344 166.767 22.888C166.767 21.5253 167.065 20.2653 167.663 19.108C168.26 17.9507 169.091 17.0267 170.155 16.336C171.237 15.6267 172.479 15.272 173.879 15.272C175.353 15.272 176.604 15.5893 177.631 16.224C178.676 16.8587 179.469 17.7267 180.011 18.828C180.552 19.9293 180.823 21.1707 180.823 22.552C180.823 22.7573 180.813 22.944 180.795 23.112C180.795 23.28 180.785 23.4107 180.767 23.504H169.735C169.884 24.9227 170.379 25.9867 171.219 26.696C172.077 27.4053 173.048 27.76 174.131 27.76C175.101 27.76 175.904 27.5453 176.539 27.116C177.173 26.668 177.677 26.1173 178.051 25.464L180.543 26.668C179.927 27.788 179.087 28.7027 178.023 29.412C176.959 30.1027 175.633 30.448 174.047 30.448ZM173.907 17.848C172.899 17.848 172.04 18.156 171.331 18.772C170.621 19.388 170.145 20.2093 169.903 21.236H177.827C177.789 20.7507 177.631 20.2467 177.351 19.724C177.071 19.2013 176.641 18.7627 176.063 18.408C175.503 18.0347 174.784 17.848 173.907 17.848ZM189.273 30.448C187.555 30.448 186.183 30.0747 185.157 29.328C184.13 28.5627 183.421 27.6573 183.029 26.612L185.745 25.436C186.081 26.2013 186.566 26.7893 187.201 27.2C187.835 27.592 188.554 27.788 189.357 27.788C190.103 27.788 190.747 27.6573 191.289 27.396C191.83 27.116 192.101 26.668 192.101 26.052C192.101 25.4547 191.83 25.016 191.289 24.736C190.747 24.456 190.075 24.2133 189.273 24.008L187.565 23.616C186.874 23.448 186.23 23.1867 185.633 22.832C185.035 22.4773 184.55 22.02 184.177 21.46C183.803 20.8813 183.617 20.2093 183.617 19.444C183.617 18.604 183.869 17.876 184.373 17.26C184.877 16.6253 185.539 16.14 186.361 15.804C187.201 15.4493 188.106 15.272 189.077 15.272C190.402 15.272 191.559 15.5333 192.549 16.056C193.557 16.56 194.294 17.3253 194.761 18.352L192.157 19.528C191.821 18.8933 191.382 18.4547 190.841 18.212C190.318 17.9507 189.739 17.82 189.105 17.82C188.395 17.82 187.798 17.9693 187.313 18.268C186.846 18.5667 186.613 18.94 186.613 19.388C186.613 19.8733 186.818 20.256 187.229 20.536C187.658 20.816 188.181 21.04 188.797 21.208L190.869 21.712C192.287 22.0667 193.351 22.608 194.061 23.336C194.77 24.0453 195.125 24.9133 195.125 25.94C195.125 26.8547 194.863 27.6573 194.341 28.348C193.818 29.02 193.109 29.5427 192.213 29.916C191.335 30.2707 190.355 30.448 189.273 30.448Z" fill="white"/>
<g id="GPay Logo (Dark)">
<g id="GPay">
<g id="Pay">
<path id="Fill 1" fill-rule="evenodd" clip-rule="evenodd" d="M246.529 9.34665V17.5128H251.565C252.765 17.5128 253.757 17.1096 254.541 16.3032C255.347 15.4988 255.75 14.5394 255.75 13.4288C255.75 12.3406 255.347 11.3924 254.541 10.586C253.757 9.75916 252.765 9.34479 251.565 9.34479H246.529V9.34665ZM246.529 20.3872V29.8599H243.521V6.47218H251.499C253.527 6.47218 255.248 7.14787 256.666 8.49738C258.105 9.84688 258.824 11.4913 258.824 13.4288C258.824 15.411 258.105 17.0667 256.666 18.3938C255.27 19.7227 253.547 20.3854 251.499 20.3854H246.529V20.3872Z" fill="white"/>
<path id="Fill 3" fill-rule="evenodd" clip-rule="evenodd" d="M261.864 24.9602C261.864 25.7442 262.197 26.3975 262.862 26.9201C263.527 27.4427 264.306 27.704 265.2 27.704C266.465 27.704 267.591 27.2354 268.584 26.3004C269.576 25.3634 270.071 24.264 270.071 23.0022C269.133 22.2612 267.825 21.8916 266.147 21.8916C264.925 21.8916 263.907 22.1866 263.09 22.7745C262.273 23.3623 261.864 24.0886 261.864 24.9602ZM265.756 13.3317C267.98 13.3317 269.735 13.9253 271.022 15.1124C272.308 16.2995 272.95 17.9271 272.95 19.9952V29.8599H270.073V27.6387H269.942C268.699 29.4677 267.042 30.3825 264.972 30.3825C263.206 30.3825 261.728 29.8599 260.541 28.8146C259.353 27.7694 258.759 26.4628 258.759 24.8949C258.759 23.2393 259.385 21.9232 260.638 20.9434C261.892 19.9635 263.565 19.4726 265.658 19.4726C267.444 19.4726 268.916 19.7993 270.071 20.4525V19.7657C270.071 18.7204 269.656 17.8338 268.829 17.104C267.999 16.3742 267.031 16.0102 265.919 16.0102C264.239 16.0102 262.911 16.7176 261.93 18.1343L259.28 16.4675C260.741 14.377 262.899 13.3317 265.756 13.3317Z" fill="white"/>
<path id="Fill 5" fill-rule="evenodd" clip-rule="evenodd" d="M289.463 13.8543L279.424 36.9154H276.318L280.046 28.8464L273.44 13.8543H276.71L281.484 25.3522H281.55L286.193 13.8543H289.463Z" fill="white"/>
</g>
<g id="G">
<path id="Fill 8" fill-rule="evenodd" clip-rule="evenodd" d="M234.373 18.3452C234.373 17.3989 234.293 16.4861 234.141 15.6126H221.454V20.7885H228.72C228.408 22.4757 227.465 23.9112 226.033 24.8725V28.2341H230.37C232.91 25.8935 234.373 22.4348 234.373 18.3452Z" fill="#4285F4"/>
<path id="Fill 10" fill-rule="evenodd" clip-rule="evenodd" d="M221.454 31.4782C225.084 31.4782 228.141 30.2873 230.37 28.2341L226.033 24.8725C224.826 25.6844 223.272 26.1585 221.454 26.1585C217.944 26.1585 214.966 23.7955 213.901 20.6112H209.433V24.0736C211.647 28.4637 216.197 31.4782 221.454 31.4782Z" fill="#34A853"/>
<path id="Fill 12" fill-rule="evenodd" clip-rule="evenodd" d="M213.901 20.6111C213.628 19.7992 213.479 18.9331 213.479 18.0391C213.479 17.145 213.628 16.2789 213.901 15.467V12.0045H209.433C208.518 13.8188 208 15.8683 208 18.0391C208 20.2098 208.518 22.2595 209.433 24.0736L213.901 20.6111Z" fill="#FABB05"/>
<path id="Fill 14" fill-rule="evenodd" clip-rule="evenodd" d="M221.454 9.91964C223.436 9.91964 225.213 10.6009 226.615 11.9355V11.9374L230.455 8.10163C228.123 5.93272 225.082 4.60001 221.454 4.60001C216.197 4.60001 211.647 7.61447 209.433 12.0046L213.901 15.467C214.966 12.2827 217.944 9.91964 221.454 9.91964Z" fill="#E94235"/>
</g>
</g>
</g>
</g>
</svg>
