<svg width="228" height="38" viewBox="0 0 228 38" fill="none" xmlns="http://www.w3.org/2000/svg">
<g id="cs_view_in_Light">
<path id="Text" d="M2.4265 30V26.864L12.9265 12.864H2.8745V9.952H16.4825V13.088L6.0665 27.088H16.5945V30H2.4265ZM26.416 30.448C24.9414 30.448 23.644 30.112 22.524 29.44C21.404 28.768 20.5267 27.8627 19.892 26.724C19.2574 25.5853 18.94 24.2973 18.94 22.86C18.94 21.4413 19.2574 20.1627 19.892 19.024C20.5267 17.8667 21.404 16.952 22.524 16.28C23.644 15.608 24.9414 15.272 26.416 15.272C27.872 15.272 29.16 15.608 30.28 16.28C31.4 16.952 32.2774 17.8667 32.912 19.024C33.5467 20.1627 33.864 21.4413 33.864 22.86C33.864 24.2973 33.5467 25.5853 32.912 26.724C32.2774 27.8627 31.4 28.768 30.28 29.44C29.16 30.112 27.872 30.448 26.416 30.448ZM26.416 27.676C27.2 27.676 27.928 27.4893 28.6 27.116C29.272 26.724 29.8134 26.1733 30.224 25.464C30.6534 24.736 30.868 23.868 30.868 22.86C30.868 21.852 30.6534 20.9933 30.224 20.284C29.8134 19.556 29.272 19.0053 28.6 18.632C27.928 18.24 27.2 18.044 26.416 18.044C25.632 18.044 24.8947 18.24 24.204 18.632C23.532 19.0053 22.9814 19.556 22.552 20.284C22.1414 20.9933 21.936 21.852 21.936 22.86C21.936 23.868 22.1414 24.736 22.552 25.464C22.9814 26.1733 23.532 26.724 24.204 27.116C24.8947 27.4893 25.632 27.676 26.416 27.676ZM44.4284 30.448C43.3271 30.448 42.3751 30.2147 41.5724 29.748C40.7884 29.2627 40.2098 28.712 39.8364 28.096H39.6684V30H36.8124V9.952H39.8364V15.664L39.6684 17.652H39.8364C40.2098 17.036 40.7884 16.4853 41.5724 16C42.3751 15.5147 43.3271 15.272 44.4284 15.272C45.7351 15.272 46.9018 15.5987 47.9284 16.252C48.9551 16.9053 49.7671 17.8013 50.3644 18.94C50.9804 20.0787 51.2884 21.3853 51.2884 22.86C51.2884 24.3347 50.9804 25.6507 50.3644 26.808C49.7671 27.9467 48.9551 28.8427 47.9284 29.496C46.9018 30.1307 45.7351 30.448 44.4284 30.448ZM43.9804 27.676C44.7271 27.676 45.4271 27.48 46.0804 27.088C46.7338 26.696 47.2658 26.1453 47.6764 25.436C48.0871 24.708 48.2924 23.8493 48.2924 22.86C48.2924 21.8707 48.0871 21.0213 47.6764 20.312C47.2658 19.584 46.7338 19.024 46.0804 18.632C45.4271 18.24 44.7271 18.044 43.9804 18.044C43.2338 18.044 42.5338 18.24 41.8804 18.632C41.2271 19.024 40.6951 19.584 40.2844 20.312C39.8738 21.0213 39.6684 21.8707 39.6684 22.86C39.6684 23.8493 39.8738 24.708 40.2844 25.436C40.6951 26.1453 41.2271 26.696 41.8804 27.088C42.5338 27.48 43.2338 27.676 43.9804 27.676ZM54.0929 30V15.72H56.9489V17.82H57.1169C57.4342 17.092 57.9756 16.4947 58.7409 16.028C59.5249 15.5427 60.3649 15.3 61.2609 15.3C61.6529 15.3 61.9796 15.328 62.2409 15.384C62.5209 15.44 62.7729 15.5053 62.9969 15.58V18.716C62.6422 18.5667 62.2782 18.4453 61.9049 18.352C61.5502 18.2587 61.1769 18.212 60.7849 18.212C60.0756 18.212 59.4409 18.408 58.8809 18.8C58.3396 19.1733 57.9102 19.6867 57.5929 20.34C57.2756 20.9747 57.1169 21.6747 57.1169 22.44V30H54.0929ZM69.619 30.448C68.5923 30.448 67.6777 30.252 66.875 29.86C66.0723 29.4493 65.447 28.88 64.999 28.152C64.551 27.424 64.327 26.5933 64.327 25.66C64.327 24.652 64.5883 23.7933 65.111 23.084C65.6523 22.356 66.371 21.8053 67.267 21.432C68.163 21.0587 69.1523 20.872 70.235 20.872C71.131 20.872 71.915 20.956 72.587 21.124C73.2777 21.292 73.8003 21.4693 74.155 21.656V20.9C74.155 19.9667 73.819 19.22 73.147 18.66C72.475 18.1 71.607 17.82 70.543 17.82C69.815 17.82 69.1243 17.988 68.471 18.324C67.8177 18.6413 67.295 19.08 66.903 19.64L64.831 18.044C65.447 17.1853 66.259 16.5133 67.267 16.028C68.2937 15.524 69.4137 15.272 70.627 15.272C72.699 15.272 74.295 15.7853 75.415 16.812C76.535 17.82 77.095 19.2387 77.095 21.068V30H74.155V28.236H73.987C73.6137 28.8147 73.0537 29.328 72.307 29.776C71.5603 30.224 70.6643 30.448 69.619 30.448ZM70.151 27.984C70.935 27.984 71.6257 27.7973 72.223 27.424C72.8203 27.0507 73.287 26.5653 73.623 25.968C73.9777 25.352 74.155 24.6893 74.155 23.98C73.7257 23.7373 73.2217 23.5413 72.643 23.392C72.0643 23.224 71.4483 23.14 70.795 23.14C69.563 23.14 68.6857 23.392 68.163 23.896C67.6403 24.3813 67.379 24.9787 67.379 25.688C67.379 26.36 67.631 26.9107 68.135 27.34C68.639 27.7693 69.311 27.984 70.151 27.984ZM79.9688 30V27.48L87.9208 18.352H80.2208V15.72H91.6168V18.24L83.6928 27.368H91.8408V30H79.9688ZM96.9789 13.62C96.4189 13.62 95.9336 13.424 95.5229 13.032C95.1309 12.6213 94.9349 12.136 94.9349 11.576C94.9349 11.016 95.1309 10.54 95.5229 10.148C95.9336 9.756 96.4189 9.56 96.9789 9.56C97.5389 9.56 98.0149 9.756 98.4069 10.148C98.8176 10.54 99.0229 11.016 99.0229 11.576C99.0229 12.136 98.8176 12.6213 98.4069 13.032C98.0149 13.424 97.5389 13.62 96.9789 13.62ZM95.4669 30V15.72H98.4909V30H95.4669ZM103.918 25.856V18.352H101.426V15.72H103.918V11.688H106.942V15.72H110.442V18.352H106.942V25.212C106.942 25.9213 107.082 26.4627 107.362 26.836C107.661 27.2093 108.156 27.396 108.846 27.396C109.201 27.396 109.5 27.3493 109.742 27.256C110.004 27.1627 110.265 27.032 110.526 26.864V29.804C110.209 29.9347 109.873 30.0373 109.518 30.112C109.164 30.1867 108.744 30.224 108.258 30.224C106.933 30.224 105.878 29.8413 105.094 29.076C104.31 28.292 103.918 27.2187 103.918 25.856ZM124.819 30L118.911 15.72H122.271L126.275 26.108H126.415L130.503 15.72H133.807L127.843 30H124.819Z" fill="#3C4043"/>
<g id="GPay Logo (Light)">
<g id="GPay">
<g id="Pay">
<path id="Fill 1" fill-rule="evenodd" clip-rule="evenodd" d="M184.529 9.44664V17.6128H189.565C190.765 17.6128 191.757 17.2096 192.541 16.4032C193.347 15.5988 193.75 14.6394 193.75 13.5288C193.75 12.4406 193.347 11.4924 192.541 10.686C191.757 9.85915 190.765 9.44478 189.565 9.44478H184.529V9.44664ZM184.529 20.4872V29.9599H181.521V6.57217H189.499C191.527 6.57217 193.248 7.24786 194.666 8.59737C196.105 9.94688 196.824 11.5913 196.824 13.5288C196.824 15.511 196.105 17.1667 194.666 18.4938C193.27 19.8227 191.547 20.4854 189.499 20.4854H184.529V20.4872Z" fill="#5F6368"/>
<path id="Fill 3" fill-rule="evenodd" clip-rule="evenodd" d="M199.864 25.0602C199.864 25.8442 200.197 26.4975 200.862 27.0201C201.527 27.5427 202.306 27.804 203.2 27.804C204.465 27.804 205.591 27.3354 206.584 26.4004C207.576 25.4634 208.071 24.364 208.071 23.1022C207.133 22.3612 205.825 21.9916 204.147 21.9916C202.925 21.9916 201.907 22.2865 201.09 22.8745C200.273 23.4623 199.864 24.1886 199.864 25.0602ZM203.756 13.4317C205.98 13.4317 207.735 14.0252 209.022 15.2124C210.308 16.3995 210.95 18.0271 210.95 20.0952V29.9599H208.073V27.7387H207.942C206.699 29.5677 205.042 30.4825 202.972 30.4825C201.206 30.4825 199.728 29.9599 198.541 28.9146C197.353 27.8694 196.759 26.5628 196.759 24.9949C196.759 23.3393 197.385 22.0232 198.638 21.0434C199.892 20.0635 201.565 19.5726 203.658 19.5726C205.444 19.5726 206.916 19.8992 208.071 20.5525V19.8656C208.071 18.8204 207.656 17.9338 206.829 17.204C205.999 16.4741 205.031 16.1102 203.919 16.1102C202.239 16.1102 200.911 16.8176 199.93 18.2343L197.28 16.5675C198.741 14.4769 200.899 13.4317 203.756 13.4317Z" fill="#5F6368"/>
<path id="Fill 5" fill-rule="evenodd" clip-rule="evenodd" d="M227.463 13.9543L217.424 37.0154H214.318L218.046 28.9464L211.44 13.9543H214.71L219.484 25.4522H219.55L224.193 13.9543H227.463Z" fill="#5F6368"/>
</g>
<g id="G">
<path id="Fill 8" fill-rule="evenodd" clip-rule="evenodd" d="M172.373 18.4452C172.373 17.4989 172.293 16.5861 172.141 15.7126H159.454V20.8885H166.72C166.408 22.5757 165.465 24.0112 164.033 24.9725V28.3341H168.37C170.91 25.9935 172.373 22.5348 172.373 18.4452Z" fill="#4285F4"/>
<path id="Fill 10" fill-rule="evenodd" clip-rule="evenodd" d="M159.454 31.5782C163.084 31.5782 166.141 30.3873 168.37 28.3341L164.033 24.9725C162.826 25.7844 161.272 26.2585 159.454 26.2585C155.944 26.2585 152.966 23.8955 151.901 20.7112H147.433V24.1736C149.647 28.5637 154.197 31.5782 159.454 31.5782Z" fill="#34A853"/>
<path id="Fill 12" fill-rule="evenodd" clip-rule="evenodd" d="M151.901 20.7111C151.628 19.8992 151.479 19.0331 151.479 18.139C151.479 17.245 151.628 16.3789 151.901 15.567V12.1045H147.433C146.518 13.9188 146 15.9683 146 18.139C146 20.3098 146.518 22.3595 147.433 24.1736L151.901 20.7111Z" fill="#FABB05"/>
<path id="Fill 14" fill-rule="evenodd" clip-rule="evenodd" d="M159.454 10.0196C161.436 10.0196 163.213 10.7009 164.615 12.0355V12.0374L168.455 8.20162C166.123 6.03271 163.082 4.7 159.454 4.7C154.197 4.7 149.647 7.71446 147.433 12.1046L151.901 15.567C152.966 12.3827 155.944 10.0196 159.454 10.0196Z" fill="#E94235"/>
</g>
</g>
</g>
</g>
</svg>
