<svg width="112" height="21" viewBox="0 0 112 21" fill="none" xmlns="http://www.w3.org/2000/svg">
<g id="sr_add_to_Pay_NBG">
<path id="Left Text" d="M1.2545 17.4326V13.3366H2.2625C2.44383 13.0379 2.5985 12.6646 2.7265 12.2166C2.86517 11.7686 2.97183 11.2779 3.0465 10.7446C3.13183 10.2006 3.19583 9.63528 3.2385 9.04861C3.28117 8.45128 3.3025 7.85928 3.3025 7.27261V3.54461H10.6465V13.3366H11.9905V17.4326H10.2785V15.0006H2.9665V17.4326H1.2545ZM4.1825 13.3366H8.8865V5.20861H5.0145V7.52861C5.0145 8.30728 4.9825 9.04328 4.9185 9.73661C4.8545 10.4299 4.7585 11.0753 4.6305 11.6726C4.51317 12.2593 4.36383 12.7819 4.1825 13.2406V13.3366ZM17.4105 15.2566C16.5678 15.2566 15.8265 15.0646 15.1865 14.6806C14.5465 14.2966 14.0452 13.7793 13.6825 13.1286C13.3198 12.4673 13.1385 11.7313 13.1385 10.9206C13.1385 10.1099 13.3198 9.37928 13.6825 8.72861C14.0452 8.06728 14.5465 7.54461 15.1865 7.16061C15.8265 6.77661 16.5678 6.58461 17.4105 6.58461C18.2425 6.58461 18.9785 6.78194 19.6185 7.17661C20.2585 7.56061 20.7598 8.07794 21.1225 8.72861C21.4852 9.37928 21.6665 10.1099 21.6665 10.9206C21.6665 11.7313 21.4852 12.4673 21.1225 13.1286C20.7598 13.7793 20.2585 14.2966 19.6185 14.6806C18.9785 15.0646 18.2425 15.2566 17.4105 15.2566ZM17.4105 13.6726C17.8585 13.6726 18.2745 13.5659 18.6585 13.3526C19.0425 13.1286 19.3518 12.8139 19.5865 12.4086C19.8318 11.9926 19.9545 11.4966 19.9545 10.9206C19.9545 10.3446 19.8318 9.85394 19.5865 9.44861C19.3518 9.03261 19.0425 8.71794 18.6585 8.50461C18.2745 8.28061 17.8585 8.16861 17.4105 8.16861C16.9625 8.16861 16.5412 8.28061 16.1465 8.50461C15.7625 8.71794 15.4478 9.03261 15.2025 9.44861C14.9678 9.85394 14.8505 10.3446 14.8505 10.9206C14.8505 11.4966 14.9678 11.9926 15.2025 12.4086C15.4478 12.8139 15.7678 13.1286 16.1625 13.3526C16.5572 13.5659 16.9732 13.6726 17.4105 13.6726ZM22.4246 17.4326V13.4966H23.3206C23.4913 13.2833 23.646 12.9899 23.7846 12.6166C23.9233 12.2433 24.03 11.8166 24.1046 11.3366C24.1793 10.8566 24.2166 10.3713 24.2166 9.88061V6.84061H30.3286V13.4966H31.5126V17.4326H29.9286V15.0006H24.0246V17.4326H22.4246ZM25.1766 13.4966H28.6166V8.34461H25.8486V10.0246C25.8486 10.5153 25.822 10.9633 25.7686 11.3686C25.726 11.7739 25.6513 12.1419 25.5446 12.4726C25.4486 12.8033 25.326 13.1126 25.1766 13.4006V13.4966ZM35.7586 15.2566C35.172 15.2566 34.6493 15.1393 34.1906 14.9046C33.7426 14.6699 33.3853 14.3499 33.1186 13.9446C32.8626 13.5286 32.7346 13.0539 32.7346 12.5206C32.7346 11.9339 32.884 11.4379 33.1826 11.0326C33.492 10.6273 33.9026 10.3179 34.4146 10.1046C34.9266 9.89128 35.492 9.78461 36.1106 9.78461C36.452 9.78461 36.7666 9.81128 37.0546 9.86461C37.3533 9.90728 37.6093 9.96061 37.8226 10.0246C38.0466 10.0886 38.2226 10.1579 38.3506 10.2326V9.80061C38.3506 9.26728 38.1586 8.84061 37.7746 8.52061C37.3906 8.20061 36.8946 8.04061 36.2866 8.04061C35.8706 8.04061 35.476 8.13661 35.1026 8.32861C34.7293 8.50994 34.4306 8.76061 34.2066 9.08061L33.0226 8.16861C33.2573 7.83794 33.54 7.55528 33.8706 7.32061C34.212 7.08594 34.5906 6.90461 35.0066 6.77661C35.4333 6.64861 35.876 6.58461 36.3346 6.58461C37.5186 6.58461 38.4306 6.87794 39.0706 7.46461C39.7106 8.04061 40.0306 8.85128 40.0306 9.89661V15.0006H38.3506V13.9926H38.2546C38.116 14.2059 37.924 14.4086 37.6786 14.6006C37.444 14.7926 37.1613 14.9473 36.8306 15.0646C36.5106 15.1926 36.1533 15.2566 35.7586 15.2566ZM36.0626 13.8486C36.5106 13.8486 36.9053 13.7419 37.2466 13.5286C37.5986 13.3153 37.8706 13.0379 38.0626 12.6966C38.2546 12.3446 38.3506 11.9659 38.3506 11.5606C38.116 11.4219 37.828 11.3099 37.4866 11.2246C37.156 11.1286 36.804 11.0806 36.4306 11.0806C35.7266 11.0806 35.2253 11.2193 34.9266 11.4966C34.628 11.7739 34.4786 12.1206 34.4786 12.5366C34.4786 12.9206 34.6226 13.2353 34.9106 13.4806C35.1986 13.7259 35.5826 13.8486 36.0626 13.8486ZM41.523 18.6166C41.3523 18.6166 41.1977 18.6059 41.059 18.5846C40.9097 18.5633 40.7657 18.5366 40.627 18.5046V16.8406C40.723 16.8939 40.8403 16.9419 40.979 16.9846C41.1177 17.0273 41.251 17.0486 41.379 17.0486C41.6777 17.0486 41.891 16.9526 42.019 16.7606C42.147 16.5793 42.211 16.3126 42.211 15.9606V6.84061H43.939V15.9766C43.939 16.6059 43.8323 17.1126 43.619 17.4966C43.4163 17.8806 43.1337 18.1633 42.771 18.3446C42.4083 18.5259 41.9923 18.6166 41.523 18.6166ZM43.075 5.64061C42.755 5.64061 42.4777 5.52861 42.243 5.30461C42.019 5.06994 41.907 4.79261 41.907 4.47261C41.907 4.14194 42.019 3.86994 42.243 3.65661C42.4777 3.43261 42.755 3.32061 43.075 3.32061C43.4057 3.32061 43.683 3.43261 43.907 3.65661C44.131 3.86994 44.243 4.14194 44.243 4.47261C44.243 4.79261 44.131 5.06994 43.907 5.30461C43.683 5.52861 43.4057 5.64061 43.075 5.64061ZM52.9014 18.0566C52.8694 18.1313 52.832 18.2059 52.7894 18.2806C52.7574 18.3659 52.736 18.4246 52.7254 18.4566H50.8854C50.9387 18.3393 51.0134 18.1739 51.1094 17.9606C51.216 17.7473 51.3174 17.5339 51.4134 17.3206C51.4774 17.1819 51.5414 17.0326 51.6054 16.8726C51.68 16.7126 51.7547 16.5473 51.8294 16.3766C51.9147 16.2059 51.9947 16.0406 52.0694 15.8806L52.6774 14.5526L49.2694 6.84061H51.1894L53.5254 12.4086H53.6054L55.8614 6.84061H57.7654L53.5414 16.5686C53.4667 16.7499 53.3814 16.9419 53.2854 17.1446C53.2 17.3473 53.12 17.5286 53.0454 17.6886C52.9814 17.8593 52.9334 17.9819 52.9014 18.0566Z" fill="white"/>
<g id="GPay (Dark)">
<g id="GPay">
<g id="Pay">
<path id="Fill 1" fill-rule="evenodd" clip-rule="evenodd" d="M86.3563 3.42339V8.16175H89.2784C89.9745 8.16175 90.5501 7.92781 91.0055 7.45993C91.4728 6.99313 91.707 6.43644 91.707 5.79203C91.707 5.16061 91.4728 4.61041 91.0055 4.14254C90.5501 3.66274 89.9745 3.4223 89.2784 3.4223H86.3563V3.42339ZM86.3563 9.82966V15.3262H84.6107V1.75549H89.2404C90.4169 1.75549 91.4154 2.14756 92.2383 2.93061C93.0732 3.71365 93.4906 4.66782 93.4906 5.79203C93.4906 6.94224 93.0731 7.90291 92.2383 8.67296C91.4283 9.44409 90.4287 9.82858 89.2404 9.82858H86.3563V9.82966Z" fill="white"/>
<path id="Fill 3" fill-rule="evenodd" clip-rule="evenodd" d="M95.2546 12.4831C95.2546 12.9379 95.4476 13.317 95.8337 13.6203C96.2195 13.9235 96.6717 14.0752 97.19 14.0752C97.9239 14.0752 98.5777 13.8032 99.1535 13.2607C99.7293 12.717 100.017 12.0791 100.017 11.3469C99.4722 10.917 98.7133 10.7025 97.7396 10.7025C97.0306 10.7025 96.4397 10.8736 95.9659 11.2148C95.492 11.5559 95.2546 11.9773 95.2546 12.4831M97.513 5.73566C98.8033 5.73566 99.8214 6.08007 100.569 6.76889C101.314 7.45771 101.687 8.40213 101.687 9.60216V15.3261H100.018V14.0373H99.9417C99.2207 15.0985 98.259 15.6294 97.0578 15.6294C96.0332 15.6294 95.1755 15.3261 94.4869 14.7196C93.7975 14.1131 93.4527 13.3549 93.4527 12.4452C93.4527 11.4845 93.8158 10.7208 94.5433 10.1523C95.2708 9.58375 96.2413 9.2989 97.4557 9.2989C98.4921 9.2989 99.3465 9.48844 100.017 9.86751V9.46894C100.017 8.86243 99.7758 8.34798 99.2956 7.92451C98.8141 7.50103 98.2525 7.28984 97.6074 7.28984C96.6326 7.28984 95.8618 7.70032 95.2926 8.52235L93.7551 7.55519C94.6029 6.34217 95.8552 5.73566 97.513 5.73566" fill="white"/>
<path id="Fill 5" fill-rule="evenodd" clip-rule="evenodd" d="M111.269 6.03894L105.443 19.4201H103.641L105.804 14.738L101.971 6.03894H103.869L106.639 12.7106H106.677L109.371 6.03894H111.269Z" fill="white"/>
</g>
<g id="G">
<path id="Fill 8" fill-rule="evenodd" clip-rule="evenodd" d="M79.3029 8.64473C79.3029 8.09563 79.2562 7.56601 79.1684 7.05914H71.8065V10.0625H76.0231C75.842 11.0414 75.2944 11.8744 74.4639 12.4322V14.3828H76.9804C78.4539 13.0246 79.3029 11.0177 79.3029 8.64473" fill="#4285F4"/>
<path id="Fill 10" fill-rule="evenodd" clip-rule="evenodd" d="M71.8065 16.2651C73.9131 16.2651 75.6869 15.5741 76.9804 14.3828L74.4639 12.4322C73.7635 12.9033 72.8614 13.1784 71.8065 13.1784C69.7703 13.1784 68.042 11.8073 67.424 9.95959H64.8316V11.9687C66.1164 14.516 68.7565 16.2651 71.8065 16.2651" fill="#34A853"/>
<path id="Fill 12" fill-rule="evenodd" clip-rule="evenodd" d="M67.424 9.9596C67.2657 9.48847 67.179 8.98593 67.179 8.46715C67.179 7.94837 67.2657 7.44583 67.424 6.9747V4.96564H64.8316C64.3003 6.01837 64 7.20756 64 8.46715C64 9.72674 64.3003 10.916 64.8316 11.9687L67.424 9.9596Z" fill="#FABB05"/>
<path id="Fill 14" fill-rule="evenodd" clip-rule="evenodd" d="M71.8065 3.75583C72.9568 3.75583 73.9879 4.15115 74.8011 4.92553V4.92661L77.0292 2.70094C75.6761 1.44243 73.912 0.669128 71.8065 0.669128C68.7565 0.669128 66.1164 2.41826 64.8316 4.9656L67.424 6.97467C68.042 5.12698 69.7703 3.75583 71.8065 3.75583" fill="#E94235"/>
</g>
</g>
</g>
</g>
</svg>
