<svg width="282" height="38" viewBox="0 0 282 38" fill="none" xmlns="http://www.w3.org/2000/svg">
<g id="sr_book_with_Dark">
<path id="Text" d="M3.35472 30V9.952H10.2427C11.456 9.952 12.5574 10.2133 13.5467 10.736C14.536 11.2587 15.32 11.9773 15.8987 12.892C16.4961 13.8067 16.7947 14.8707 16.7947 16.084C16.7947 17.2973 16.4961 18.3707 15.8987 19.304C15.32 20.2187 14.536 20.9373 13.5467 21.46C12.5574 21.964 11.456 22.216 10.2427 22.216H6.43472V30H3.35472ZM10.3267 12.864H6.43472V19.304H10.3267C11.0547 19.304 11.6707 19.1547 12.1747 18.856C12.6787 18.5387 13.0614 18.1373 13.3227 17.652C13.6027 17.148 13.7427 16.6253 13.7427 16.084C13.7427 15.5427 13.6027 15.0293 13.3227 14.544C13.0614 14.0587 12.6787 13.6573 12.1747 13.34C11.6707 13.0227 11.0547 12.864 10.3267 12.864ZM25.288 30.448C23.888 30.448 22.6373 30.1213 21.536 29.468C20.4347 28.8147 19.5667 27.9187 18.932 26.78C18.316 25.6413 18.008 24.344 18.008 22.888C18.008 21.5253 18.3067 20.2653 18.904 19.108C19.5013 17.9507 20.332 17.0267 21.396 16.336C22.4787 15.6267 23.72 15.272 25.12 15.272C26.5947 15.272 27.8453 15.5893 28.872 16.224C29.9173 16.8587 30.7107 17.7267 31.252 18.828C31.7933 19.9293 32.064 21.1707 32.064 22.552C32.064 22.7573 32.0547 22.944 32.036 23.112C32.036 23.28 32.0267 23.4107 32.008 23.504H20.976C21.1253 24.9227 21.62 25.9867 22.46 26.696C23.3187 27.4053 24.2893 27.76 25.372 27.76C26.3427 27.76 27.1453 27.5453 27.78 27.116C28.4147 26.668 28.9187 26.1173 29.292 25.464L31.784 26.668C31.168 27.788 30.328 28.7027 29.264 29.412C28.2 30.1027 26.8747 30.448 25.288 30.448ZM25.148 17.848C24.14 17.848 23.2813 18.156 22.572 18.772C21.8627 19.388 21.3867 20.2093 21.144 21.236H29.068C29.0307 20.7507 28.872 20.2467 28.592 19.724C28.312 19.2013 27.8827 18.7627 27.304 18.408C26.744 18.0347 26.0253 17.848 25.148 17.848ZM39.7186 30.448C38.9346 30.448 38.1506 30.3547 37.3666 30.168C36.5826 29.9813 35.8453 29.664 35.1546 29.216C34.4826 28.7493 33.9226 28.1053 33.4746 27.284L35.8826 25.884C36.4053 26.612 37.0026 27.116 37.6746 27.396C38.3653 27.6573 39.0466 27.788 39.7186 27.788C40.6893 27.788 41.4266 27.6013 41.9306 27.228C42.4346 26.8547 42.6866 26.3693 42.6866 25.772C42.6866 25.2493 42.4533 24.8293 41.9866 24.512C41.5386 24.176 40.9039 24.008 40.0826 24.008H37.7586V21.628H40.0826C40.7919 21.628 41.3333 21.46 41.7066 21.124C42.0986 20.788 42.2946 20.3587 42.2946 19.836C42.2946 19.22 42.0333 18.7347 41.5106 18.38C40.9879 18.0067 40.3253 17.82 39.5226 17.82C38.8133 17.82 38.1319 17.9693 37.4786 18.268C36.8253 18.548 36.3306 18.9307 35.9946 19.416L33.7546 17.932C34.4079 17.1107 35.2293 16.4667 36.2186 16C37.2266 15.5147 38.3373 15.272 39.5506 15.272C40.5959 15.272 41.5386 15.4493 42.3786 15.804C43.2373 16.1587 43.9093 16.6533 44.3946 17.288C44.8986 17.904 45.1506 18.6227 45.1506 19.444C45.1506 20.1533 44.9733 20.788 44.6186 21.348C44.2639 21.8893 43.7973 22.3 43.2186 22.58V22.748C43.9466 23.0467 44.5346 23.4947 44.9826 24.092C45.4306 24.6893 45.6546 25.3707 45.6546 26.136C45.6546 26.976 45.4119 27.7227 44.9266 28.376C44.4413 29.0107 43.7506 29.5147 42.8546 29.888C41.9586 30.2613 40.9133 30.448 39.7186 30.448ZM55.0911 30.448C53.6911 30.448 52.4405 30.1213 51.3391 29.468C50.2378 28.8147 49.3698 27.9187 48.7351 26.78C48.1191 25.6413 47.8111 24.344 47.8111 22.888C47.8111 21.5253 48.1098 20.2653 48.7071 19.108C49.3045 17.9507 50.1351 17.0267 51.1991 16.336C52.2818 15.6267 53.5231 15.272 54.9231 15.272C56.3978 15.272 57.6485 15.5893 58.6751 16.224C59.7205 16.8587 60.5138 17.7267 61.0551 18.828C61.5965 19.9293 61.8671 21.1707 61.8671 22.552C61.8671 22.7573 61.8578 22.944 61.8391 23.112C61.8391 23.28 61.8298 23.4107 61.8111 23.504H50.7791C50.9285 24.9227 51.4231 25.9867 52.2631 26.696C53.1218 27.4053 54.0925 27.76 55.1751 27.76C56.1458 27.76 56.9485 27.5453 57.5831 27.116C58.2178 26.668 58.7218 26.1173 59.0951 25.464L61.5871 26.668C60.9711 27.788 60.1311 28.7027 59.0671 29.412C58.0031 30.1027 56.6778 30.448 55.0911 30.448ZM54.9511 17.848C53.9431 17.848 53.0845 18.156 52.3751 18.772C51.6658 19.388 51.1898 20.2093 50.9471 21.236H58.8711C58.8338 20.7507 58.6751 20.2467 58.3951 19.724C58.1151 19.2013 57.6858 18.7627 57.1071 18.408C56.5471 18.0347 55.8285 17.848 54.9511 17.848ZM64.9446 36.048V15.72H67.7726V17.652H67.9406C68.3139 17.036 68.8926 16.4853 69.6766 16C70.4793 15.5147 71.4313 15.272 72.5326 15.272C73.8393 15.272 75.0059 15.5987 76.0326 16.252C77.0593 16.9053 77.8713 17.8013 78.4686 18.94C79.0846 20.0787 79.3926 21.3853 79.3926 22.86C79.3926 24.3347 79.0846 25.6507 78.4686 26.808C77.8713 27.9467 77.0593 28.8427 76.0326 29.496C75.0059 30.1307 73.8393 30.448 72.5326 30.448C71.4313 30.448 70.4793 30.2147 69.6766 29.748C68.8926 29.2627 68.3139 28.712 67.9406 28.096H67.7726L67.9406 30.084V36.048H64.9446ZM72.0846 27.676C72.8313 27.676 73.5313 27.48 74.1846 27.088C74.8379 26.696 75.3699 26.1453 75.7806 25.436C76.1913 24.708 76.3966 23.8493 76.3966 22.86C76.3966 21.8707 76.1913 21.0213 75.7806 20.312C75.3699 19.584 74.8379 19.024 74.1846 18.632C73.5313 18.24 72.8313 18.044 72.0846 18.044C71.3379 18.044 70.6379 18.24 69.9846 18.632C69.3313 19.024 68.7993 19.584 68.3886 20.312C67.9779 21.0213 67.7726 21.8707 67.7726 22.86C67.7726 23.8493 67.9779 24.708 68.3886 25.436C68.7993 26.1453 69.3313 26.696 69.9846 27.088C70.6379 27.48 71.3379 27.676 72.0846 27.676ZM82.2804 30V15.72H89.3644C90.2044 15.72 90.9511 15.888 91.6044 16.224C92.2764 16.5413 92.7991 16.98 93.1724 17.54C93.5644 18.1 93.7604 18.7253 93.7604 19.416C93.7604 20.1627 93.5924 20.8067 93.2564 21.348C92.9391 21.8893 92.5191 22.2907 91.9964 22.552V22.72C92.7057 23 93.2657 23.42 93.6764 23.98C94.1057 24.54 94.3204 25.184 94.3204 25.912C94.3204 26.752 94.0964 27.48 93.6484 28.096C93.2191 28.712 92.6591 29.188 91.9684 29.524C91.2777 29.8413 90.5404 30 89.7564 30H82.2804ZM85.3044 18.184V21.544H89.0004C89.5044 21.544 89.9244 21.3853 90.2604 21.068C90.5964 20.7507 90.7644 20.3493 90.7644 19.864C90.7644 19.36 90.5964 18.9587 90.2604 18.66C89.9244 18.3427 89.5044 18.184 89.0004 18.184H85.3044ZM85.3044 27.48H89.4484C89.9897 27.48 90.4377 27.312 90.7924 26.976C91.1657 26.6213 91.3524 26.1733 91.3524 25.632C91.3524 25.1093 91.1657 24.6707 90.7924 24.316C90.4377 23.9613 89.9897 23.784 89.4484 23.784H85.3044V27.48ZM97.4281 30V15.72H100.452V23.028L100.284 25.716H100.452L107.592 15.72H110.588V30H107.592V22.72L107.76 20.032H107.592L100.452 30H97.4281ZM114.435 30V15.72H117.431V27.368H122.135V15.72H125.131V27.368H129.835V15.72H132.831V30H114.435ZM136.692 30V15.72H139.716V23.028L139.548 25.716H139.716L146.856 15.72H149.852V30H146.856V22.72L147.024 20.032H146.856L139.716 30H136.692ZM165.406 35.348C165.35 35.4973 165.285 35.6373 165.21 35.768C165.154 35.8987 165.117 35.992 165.098 36.048H161.878C161.972 35.8427 162.102 35.544 162.27 35.152C162.457 34.7787 162.634 34.4147 162.802 34.06C162.97 33.7053 163.148 33.304 163.334 32.856C163.54 32.408 163.745 31.9693 163.95 31.54L165.014 29.216L159.05 15.72H162.41L166.498 25.464H166.638L170.586 15.72H173.918L166.526 32.744C166.321 33.2293 166.097 33.7333 165.854 34.256C165.63 34.7973 165.481 35.1613 165.406 35.348ZM181.215 30.448C180.431 30.448 179.647 30.3547 178.863 30.168C178.079 29.9813 177.342 29.664 176.651 29.216C175.979 28.7493 175.419 28.1053 174.971 27.284L177.379 25.884C177.902 26.612 178.499 27.116 179.171 27.396C179.862 27.6573 180.543 27.788 181.215 27.788C182.186 27.788 182.923 27.6013 183.427 27.228C183.931 26.8547 184.183 26.3693 184.183 25.772C184.183 25.2493 183.95 24.8293 183.483 24.512C183.035 24.176 182.401 24.008 181.579 24.008H179.255V21.628H181.579C182.289 21.628 182.83 21.46 183.203 21.124C183.595 20.788 183.791 20.3587 183.791 19.836C183.791 19.22 183.53 18.7347 183.007 18.38C182.485 18.0067 181.822 17.82 181.019 17.82C180.31 17.82 179.629 17.9693 178.975 18.268C178.322 18.548 177.827 18.9307 177.491 19.416L175.251 17.932C175.905 17.1107 176.726 16.4667 177.715 16C178.723 15.5147 179.834 15.272 181.047 15.272C182.093 15.272 183.035 15.4493 183.875 15.804C184.734 16.1587 185.406 16.6533 185.891 17.288C186.395 17.904 186.647 18.6227 186.647 19.444C186.647 20.1533 186.47 20.788 186.115 21.348C185.761 21.8893 185.294 22.3 184.715 22.58V22.748C185.443 23.0467 186.031 23.4947 186.479 24.092C186.927 24.6893 187.151 25.3707 187.151 26.136C187.151 26.976 186.909 27.7227 186.423 28.376C185.938 29.0107 185.247 29.5147 184.351 29.888C183.455 30.2613 182.41 30.448 181.215 30.448Z" fill="white"/>
<g id="GPay Logo (Dark)">
<g id="GPay">
<g id="Pay">
<path id="Fill 1" fill-rule="evenodd" clip-rule="evenodd" d="M238.529 9.34665V17.5128H243.565C244.765 17.5128 245.757 17.1096 246.541 16.3032C247.347 15.4988 247.75 14.5394 247.75 13.4288C247.75 12.3406 247.347 11.3924 246.541 10.586C245.757 9.75916 244.765 9.34479 243.565 9.34479H238.529V9.34665ZM238.529 20.3872V29.8599H235.521V6.47218H243.499C245.527 6.47218 247.248 7.14787 248.666 8.49738C250.105 9.84688 250.824 11.4913 250.824 13.4288C250.824 15.411 250.105 17.0667 248.666 18.3938C247.27 19.7227 245.547 20.3854 243.499 20.3854H238.529V20.3872Z" fill="white"/>
<path id="Fill 3" fill-rule="evenodd" clip-rule="evenodd" d="M253.864 24.9602C253.864 25.7442 254.197 26.3975 254.862 26.9201C255.527 27.4427 256.306 27.704 257.2 27.704C258.465 27.704 259.591 27.2354 260.584 26.3004C261.576 25.3634 262.071 24.264 262.071 23.0022C261.133 22.2612 259.825 21.8916 258.147 21.8916C256.925 21.8916 255.907 22.1866 255.09 22.7745C254.273 23.3623 253.864 24.0886 253.864 24.9602ZM257.756 13.3317C259.98 13.3317 261.735 13.9253 263.022 15.1124C264.308 16.2995 264.95 17.9271 264.95 19.9952V29.8599H262.073V27.6387H261.942C260.699 29.4677 259.042 30.3825 256.972 30.3825C255.206 30.3825 253.728 29.8599 252.541 28.8146C251.353 27.7694 250.759 26.4628 250.759 24.8949C250.759 23.2393 251.385 21.9232 252.638 20.9434C253.892 19.9635 255.565 19.4726 257.658 19.4726C259.444 19.4726 260.916 19.7993 262.071 20.4525V19.7657C262.071 18.7204 261.656 17.8338 260.829 17.104C259.999 16.3742 259.031 16.0102 257.919 16.0102C256.239 16.0102 254.911 16.7176 253.93 18.1343L251.28 16.4675C252.741 14.377 254.899 13.3317 257.756 13.3317Z" fill="white"/>
<path id="Fill 5" fill-rule="evenodd" clip-rule="evenodd" d="M281.463 13.8543L271.424 36.9154H268.318L272.046 28.8464L265.44 13.8543H268.71L273.484 25.3522H273.55L278.193 13.8543H281.463Z" fill="white"/>
</g>
<g id="G">
<path id="Fill 8" fill-rule="evenodd" clip-rule="evenodd" d="M226.373 18.3452C226.373 17.3989 226.293 16.4861 226.141 15.6126H213.454V20.7885H220.72C220.408 22.4757 219.465 23.9112 218.033 24.8725V28.2341H222.37C224.91 25.8935 226.373 22.4348 226.373 18.3452Z" fill="#4285F4"/>
<path id="Fill 10" fill-rule="evenodd" clip-rule="evenodd" d="M213.454 31.4782C217.084 31.4782 220.141 30.2873 222.37 28.2341L218.033 24.8725C216.826 25.6844 215.272 26.1585 213.454 26.1585C209.944 26.1585 206.966 23.7955 205.901 20.6112H201.433V24.0736C203.647 28.4637 208.197 31.4782 213.454 31.4782Z" fill="#34A853"/>
<path id="Fill 12" fill-rule="evenodd" clip-rule="evenodd" d="M205.901 20.6111C205.628 19.7992 205.479 18.9331 205.479 18.0391C205.479 17.145 205.628 16.2789 205.901 15.467V12.0045H201.433C200.518 13.8188 200 15.8683 200 18.0391C200 20.2098 200.518 22.2595 201.433 24.0736L205.901 20.6111Z" fill="#FABB05"/>
<path id="Fill 14" fill-rule="evenodd" clip-rule="evenodd" d="M213.454 9.91964C215.436 9.91964 217.213 10.6009 218.615 11.9355V11.9374L222.455 8.10163C220.123 5.93272 217.082 4.60001 213.454 4.60001C208.197 4.60001 203.647 7.61447 201.433 12.0046L205.901 15.467C206.966 12.2827 209.944 9.91964 213.454 9.91964Z" fill="#E94235"/>
</g>
</g>
</g>
</g>
</svg>
