<svg width="161" height="21" viewBox="0 0 161 21" fill="none" xmlns="http://www.w3.org/2000/svg">
<g id="sr_book_with_Pay_NBG">
<path id="Left Text" d="M1.72412 15.0006V3.54461H5.66012C6.35346 3.54461 6.98279 3.69394 7.54812 3.99261C8.11346 4.28061 8.56146 4.69128 8.89212 5.22461C9.23346 5.74728 9.40412 6.35528 9.40412 7.04861C9.40412 7.73128 9.23346 8.33928 8.89212 8.87261C8.56146 9.40594 8.11346 9.82194 7.54812 10.1206C6.98279 10.4086 6.35346 10.5526 5.66012 10.5526H3.48412V15.0006H1.72412ZM3.48412 8.88861H5.70812C6.12412 8.88861 6.47612 8.80328 6.76412 8.63261C7.05212 8.45128 7.27079 8.22194 7.42012 7.94461C7.58012 7.65661 7.66012 7.35794 7.66012 7.04861C7.66012 6.73928 7.58012 6.44594 7.42012 6.16861C7.27079 5.89128 7.05212 5.66194 6.76412 5.48061C6.47612 5.29928 6.12412 5.20861 5.70812 5.20861H3.48412V8.88861ZM14.236 15.2566C13.436 15.2566 12.7213 15.0699 12.092 14.6966C11.4627 14.3233 10.9667 13.8113 10.604 13.1606C10.252 12.5099 10.076 11.7686 10.076 10.9366C10.076 10.1579 10.2467 9.43794 10.588 8.77661C10.9293 8.11528 11.404 7.58728 12.012 7.19261C12.6307 6.78728 13.34 6.58461 14.14 6.58461C14.9827 6.58461 15.6973 6.76594 16.284 7.12861C16.8813 7.49128 17.3347 7.98728 17.644 8.61661C17.9533 9.24594 18.108 9.95528 18.108 10.7446C18.108 10.8619 18.1027 10.9686 18.092 11.0646C18.092 11.1606 18.0867 11.2353 18.076 11.2886H11.772C11.8147 11.7366 11.9267 12.1259 12.108 12.4566C12.3427 12.8726 12.652 13.1873 13.036 13.4006C13.42 13.6139 13.836 13.7206 14.284 13.7206C14.828 13.7206 15.2813 13.5979 15.644 13.3526C16.0173 13.0966 16.3107 12.7819 16.524 12.4086L17.948 13.0966C17.596 13.7366 17.116 14.2593 16.508 14.6646C15.9 15.0593 15.1427 15.2566 14.236 15.2566ZM11.868 9.99261H16.396C16.3853 9.78994 16.332 9.57661 16.236 9.35261C16.14 9.11794 16.0013 8.90461 15.82 8.71261C15.6387 8.52061 15.4093 8.36594 15.132 8.24861C14.8547 8.12061 14.5293 8.05661 14.156 8.05661C13.6867 8.05661 13.2707 8.17928 12.908 8.42461C12.5453 8.65928 12.2627 8.98994 12.06 9.41661C11.9747 9.59794 11.9107 9.78994 11.868 9.99261ZM22.4606 15.2566C22.0233 15.2566 21.5753 15.2033 21.1166 15.0966C20.6686 14.9899 20.2526 14.8086 19.8686 14.5526C19.4846 14.2859 19.1593 13.9179 18.8926 13.4486L20.2686 12.6486C20.5673 13.0646 20.9086 13.3526 21.2926 13.5126C21.6873 13.6619 22.0766 13.7366 22.4606 13.7366C23.0153 13.7366 23.4366 13.6299 23.7246 13.4166C24.0126 13.2033 24.1566 12.9259 24.1566 12.5846C24.1566 12.2859 24.0233 12.0459 23.7566 11.8646C23.5006 11.6726 23.138 11.5766 22.6686 11.5766H21.3406V10.2166H22.6686C23.074 10.2166 23.3833 10.1206 23.5966 9.92861C23.8206 9.73661 23.9326 9.49128 23.9326 9.19261C23.9326 8.84061 23.7833 8.56328 23.4846 8.36061C23.186 8.14728 22.8073 8.04061 22.3486 8.04061C21.9433 8.04061 21.554 8.12594 21.1806 8.29661C20.8073 8.45661 20.5246 8.67528 20.3326 8.95261L19.0526 8.10461C19.298 7.78461 19.5913 7.51261 19.9326 7.28861C20.274 7.06461 20.6473 6.89394 21.0526 6.77661C21.4686 6.64861 21.906 6.58461 22.3646 6.58461C22.9726 6.58461 23.5166 6.68594 23.9966 6.88861C24.4766 7.09128 24.8553 7.37394 25.1326 7.73661C25.4206 8.08861 25.5646 8.49928 25.5646 8.96861C25.5646 9.37394 25.4633 9.73661 25.2606 10.0566C25.058 10.3766 24.7913 10.6113 24.4606 10.7606V10.8566C24.8766 11.0273 25.2126 11.2833 25.4686 11.6246C25.7246 11.9659 25.8526 12.3553 25.8526 12.7926C25.8526 13.2726 25.7086 13.6993 25.4206 14.0726C25.1433 14.4459 24.7486 14.7393 24.2366 14.9526C23.7353 15.1553 23.1433 15.2566 22.4606 15.2566ZM31.2235 15.2566C30.4235 15.2566 29.7088 15.0699 29.0795 14.6966C28.4502 14.3233 27.9542 13.8113 27.5915 13.1606C27.2395 12.5099 27.0635 11.7686 27.0635 10.9366C27.0635 10.1579 27.2342 9.43794 27.5755 8.77661C27.9168 8.11528 28.3915 7.58728 28.9995 7.19261C29.6182 6.78728 30.3275 6.58461 31.1275 6.58461C31.9702 6.58461 32.6848 6.76594 33.2715 7.12861C33.8688 7.49128 34.3222 7.98728 34.6315 8.61661C34.9408 9.24594 35.0955 9.95528 35.0955 10.7446C35.0955 10.8619 35.0902 10.9686 35.0795 11.0646C35.0795 11.1606 35.0742 11.2353 35.0635 11.2886H28.7595C28.8022 11.7366 28.9142 12.1259 29.0955 12.4566C29.3302 12.8726 29.6395 13.1873 30.0235 13.4006C30.4075 13.6139 30.8235 13.7206 31.2715 13.7206C31.8155 13.7206 32.2688 13.5979 32.6315 13.3526C33.0048 13.0966 33.2982 12.7819 33.5115 12.4086L34.9355 13.0966C34.5835 13.7366 34.1035 14.2593 33.4955 14.6646C32.8875 15.0593 32.1302 15.2566 31.2235 15.2566ZM28.8555 9.99261H33.3835C33.3728 9.78994 33.3195 9.57661 33.2235 9.35261C33.1275 9.11794 32.9888 8.90461 32.8075 8.71261C32.6262 8.52061 32.3968 8.36594 32.1195 8.24861C31.8422 8.12061 31.5168 8.05661 31.1435 8.05661C30.6742 8.05661 30.2582 8.17928 29.8955 8.42461C29.5328 8.65928 29.2502 8.98994 29.0475 9.41661C28.9622 9.59794 28.8982 9.78994 28.8555 9.99261ZM36.8326 18.4566V6.84061H38.4486V7.94461H38.5446C38.694 7.70994 38.8913 7.49128 39.1366 7.28861C39.3926 7.07528 39.6913 6.90461 40.0326 6.77661C40.374 6.64861 40.7526 6.58461 41.1686 6.58461C41.9153 6.58461 42.582 6.77128 43.1686 7.14461C43.7553 7.51794 44.2193 8.02994 44.5606 8.68061C44.9126 9.33128 45.0886 10.0779 45.0886 10.9206C45.0886 11.7633 44.9126 12.5099 44.5606 13.1606C44.2193 13.8113 43.7553 14.3233 43.1686 14.6966C42.582 15.0699 41.9153 15.2566 41.1686 15.2566C40.55 15.2566 40.0113 15.1179 39.5526 14.8406C39.094 14.5633 38.758 14.2539 38.5446 13.9126H38.4486L38.5446 15.0486V18.4566H36.8326ZM40.9126 13.6726C41.3393 13.6726 41.7393 13.5606 42.1126 13.3366C42.4966 13.1126 42.8006 12.7926 43.0246 12.3766C43.2593 11.9606 43.3766 11.4753 43.3766 10.9206C43.3766 10.3553 43.2593 9.86994 43.0246 9.46461C42.8006 9.04861 42.4966 8.72861 42.1126 8.50461C41.7393 8.28061 41.3393 8.16861 40.9126 8.16861C40.486 8.16861 40.086 8.28061 39.7126 8.50461C39.3393 8.72861 39.0353 9.04861 38.8006 9.46461C38.566 9.86994 38.4486 10.3553 38.4486 10.9206C38.4486 11.4859 38.566 11.9766 38.8006 12.3926C39.0353 12.7979 39.3393 13.1126 39.7126 13.3366C40.086 13.5606 40.486 13.6726 40.9126 13.6726ZM46.7174 15.0006V6.84061H50.7654C51.2454 6.84061 51.672 6.93661 52.0454 7.12861C52.4294 7.30994 52.728 7.56061 52.9414 7.88061C53.1654 8.20061 53.2774 8.55794 53.2774 8.95261C53.2774 9.37928 53.1814 9.74728 52.9894 10.0566C52.808 10.3659 52.568 10.5953 52.2694 10.7446V10.8406C52.6747 11.0006 52.9947 11.2406 53.2294 11.5606C53.4747 11.8806 53.5974 12.2486 53.5974 12.6646C53.5974 13.1446 53.4694 13.5606 53.2134 13.9126C52.968 14.2646 52.648 14.5366 52.2534 14.7286C51.8587 14.9099 51.4374 15.0006 50.9894 15.0006H46.7174ZM48.4454 11.4486V13.5606H50.8134C51.1227 13.5606 51.3787 13.4646 51.5814 13.2726C51.7947 13.0699 51.9014 12.8139 51.9014 12.5046C51.9014 12.2059 51.7947 11.9553 51.5814 11.7526C51.3787 11.5499 51.1227 11.4486 50.8134 11.4486H48.4454ZM48.4454 8.24861V10.1686H50.5574C50.8454 10.1686 51.0854 10.0779 51.2774 9.89661C51.4694 9.71528 51.5654 9.48594 51.5654 9.20861C51.5654 8.92061 51.4694 8.69128 51.2774 8.52061C51.0854 8.33928 50.8454 8.24861 50.5574 8.24861H48.4454ZM55.3518 15.0006V6.84061H57.0798V11.0166L56.9838 12.5526H57.0798L61.1598 6.84061H62.8718V15.0006H61.1598V10.8406L61.2558 9.30461H61.1598L57.0798 15.0006H55.3518ZM65.0486 15.0006V6.84061H66.7606V13.4966H69.4486V6.84061H71.1606V13.4966H73.8486V6.84061H75.5606V15.0006H65.0486ZM77.7455 15.0006V6.84061H79.4735V11.0166L79.3775 12.5526H79.4735L83.5535 6.84061H85.2655V15.0006H83.5535V10.8406L83.6495 9.30461H83.5535L79.4735 15.0006H77.7455ZM94.1107 18.0566C94.0787 18.1313 94.0414 18.2059 93.9987 18.2806C93.9667 18.3659 93.9454 18.4246 93.9347 18.4566H92.0947C92.1481 18.3393 92.2227 18.1739 92.3187 17.9606C92.4254 17.7473 92.5267 17.5339 92.6227 17.3206C92.6867 17.1819 92.7507 17.0326 92.8147 16.8726C92.8894 16.7126 92.9641 16.5473 93.0387 16.3766C93.1241 16.2059 93.2041 16.0406 93.2787 15.8806L93.8867 14.5526L90.4787 6.84061H92.3987L94.7347 12.4086H94.8147L97.0707 6.84061H98.9747L94.7507 16.5686C94.6761 16.7499 94.5907 16.9419 94.4947 17.1446C94.4094 17.3473 94.3294 17.5286 94.2547 17.6886C94.1907 17.8593 94.1427 17.9819 94.1107 18.0566ZM103.123 15.2566C102.686 15.2566 102.238 15.2033 101.779 15.0966C101.331 14.9899 100.915 14.8086 100.531 14.5526C100.147 14.2859 99.8218 13.9179 99.5551 13.4486L100.931 12.6486C101.23 13.0646 101.571 13.3526 101.955 13.5126C102.35 13.6619 102.739 13.7366 103.123 13.7366C103.678 13.7366 104.099 13.6299 104.387 13.4166C104.675 13.2033 104.819 12.9259 104.819 12.5846C104.819 12.2859 104.686 12.0459 104.419 11.8646C104.163 11.6726 103.8 11.5766 103.331 11.5766H102.003V10.2166H103.331C103.736 10.2166 104.046 10.1206 104.259 9.92861C104.483 9.73661 104.595 9.49128 104.595 9.19261C104.595 8.84061 104.446 8.56328 104.147 8.36061C103.848 8.14728 103.47 8.04061 103.011 8.04061C102.606 8.04061 102.216 8.12594 101.843 8.29661C101.47 8.45661 101.187 8.67528 100.995 8.95261L99.7151 8.10461C99.9605 7.78461 100.254 7.51261 100.595 7.28861C100.936 7.06461 101.31 6.89394 101.715 6.77661C102.131 6.64861 102.568 6.58461 103.027 6.58461C103.635 6.58461 104.179 6.68594 104.659 6.88861C105.139 7.09128 105.518 7.37394 105.795 7.73661C106.083 8.08861 106.227 8.49928 106.227 8.96861C106.227 9.37394 106.126 9.73661 105.923 10.0566C105.72 10.3766 105.454 10.6113 105.123 10.7606V10.8566C105.539 11.0273 105.875 11.2833 106.131 11.6246C106.387 11.9659 106.515 12.3553 106.515 12.7926C106.515 13.2726 106.371 13.6993 106.083 14.0726C105.806 14.4459 105.411 14.7393 104.899 14.9526C104.398 15.1553 103.806 15.2566 103.123 15.2566Z" fill="white"/>
<g id="GPay (Dark)">
<g id="GPay">
<g id="Pay">
<path id="Fill 1" fill-rule="evenodd" clip-rule="evenodd" d="M135.356 3.42339V8.16175H138.278C138.974 8.16175 139.55 7.92781 140.005 7.45993C140.473 6.99313 140.707 6.43644 140.707 5.79203C140.707 5.16061 140.473 4.61041 140.005 4.14254C139.55 3.66274 138.974 3.4223 138.278 3.4223H135.356V3.42339ZM135.356 9.82966V15.3262H133.611V1.75549H138.24C139.417 1.75549 140.415 2.14756 141.238 2.93061C142.073 3.71365 142.491 4.66782 142.491 5.79203C142.491 6.94224 142.073 7.90291 141.238 8.67296C140.428 9.44409 139.429 9.82858 138.24 9.82858H135.356V9.82966Z" fill="white"/>
<path id="Fill 3" fill-rule="evenodd" clip-rule="evenodd" d="M144.255 12.4831C144.255 12.9379 144.448 13.317 144.834 13.6203C145.22 13.9235 145.672 14.0752 146.19 14.0752C146.924 14.0752 147.578 13.8032 148.153 13.2607C148.729 12.717 149.017 12.0791 149.017 11.3469C148.472 10.917 147.713 10.7025 146.74 10.7025C146.031 10.7025 145.44 10.8736 144.966 11.2148C144.492 11.5559 144.255 11.9773 144.255 12.4831M146.513 5.73566C147.803 5.73566 148.821 6.08007 149.569 6.76889C150.314 7.45771 150.687 8.40213 150.687 9.60216V15.3261H149.018V14.0373H148.942C148.221 15.0985 147.259 15.6294 146.058 15.6294C145.033 15.6294 144.176 15.3261 143.487 14.7196C142.797 14.1131 142.453 13.3549 142.453 12.4452C142.453 11.4845 142.816 10.7208 143.543 10.1523C144.271 9.58375 145.241 9.2989 146.456 9.2989C147.492 9.2989 148.346 9.48844 149.017 9.86751V9.46894C149.017 8.86243 148.776 8.34798 148.296 7.92451C147.814 7.50103 147.252 7.28984 146.607 7.28984C145.633 7.28984 144.862 7.70032 144.293 8.52235L142.755 7.55519C143.603 6.34217 144.855 5.73566 146.513 5.73566" fill="white"/>
<path id="Fill 5" fill-rule="evenodd" clip-rule="evenodd" d="M160.269 6.03894L154.443 19.4201H152.641L154.804 14.738L150.971 6.03894H152.869L155.639 12.7106H155.677L158.371 6.03894H160.269Z" fill="white"/>
</g>
<g id="G">
<path id="Fill 8" fill-rule="evenodd" clip-rule="evenodd" d="M128.303 8.64473C128.303 8.09563 128.256 7.56601 128.168 7.05914H120.806V10.0625H125.023C124.842 11.0414 124.294 11.8744 123.464 12.4322V14.3828H125.98C127.454 13.0246 128.303 11.0177 128.303 8.64473" fill="#4285F4"/>
<path id="Fill 10" fill-rule="evenodd" clip-rule="evenodd" d="M120.806 16.2651C122.913 16.2651 124.687 15.5741 125.98 14.3828L123.464 12.4322C122.763 12.9033 121.861 13.1784 120.806 13.1784C118.77 13.1784 117.042 11.8073 116.424 9.95959H113.832V11.9687C115.116 14.516 117.757 16.2651 120.806 16.2651" fill="#34A853"/>
<path id="Fill 12" fill-rule="evenodd" clip-rule="evenodd" d="M116.424 9.9596C116.266 9.48847 116.179 8.98593 116.179 8.46715C116.179 7.94837 116.266 7.44583 116.424 6.9747V4.96564H113.832C113.3 6.01837 113 7.20756 113 8.46715C113 9.72674 113.3 10.916 113.832 11.9687L116.424 9.9596Z" fill="#FABB05"/>
<path id="Fill 14" fill-rule="evenodd" clip-rule="evenodd" d="M120.806 3.75583C121.957 3.75583 122.988 4.15115 123.801 4.92553V4.92661L126.029 2.70094C124.676 1.44243 122.912 0.669128 120.806 0.669128C117.757 0.669128 115.116 2.41826 113.832 4.9656L116.424 6.97467C117.042 5.12698 118.77 3.75583 120.806 3.75583" fill="#E94235"/>
</g>
</g>
</g>
</g>
</svg>
