<svg width="113" height="21" viewBox="0 0 113 21" fill="none" xmlns="http://www.w3.org/2000/svg">
<g id="sr_buy_with_Pay_NBG">
<path id="Left Text" d="M1.78662 15.0006V3.54461H3.54662V9.09661H3.64262L8.20262 3.54461H10.4106V3.64061L5.57862 9.36861L10.6666 14.9046V15.0006H8.36262L3.64262 9.75261H3.54662V15.0006H1.78662ZM14.1514 18.0566C14.1194 18.1313 14.082 18.2059 14.0394 18.2806C14.0074 18.3659 13.986 18.4246 13.9754 18.4566H12.1354C12.1887 18.3393 12.2634 18.1739 12.3594 17.9606C12.466 17.7473 12.5674 17.5339 12.6634 17.3206C12.7274 17.1819 12.7914 17.0326 12.8554 16.8726C12.93 16.7126 13.0047 16.5473 13.0794 16.3766C13.1647 16.2059 13.2447 16.0406 13.3194 15.8806L13.9274 14.5526L10.5194 6.84061H12.4394L14.7754 12.4086H14.8554L17.1114 6.84061H19.0154L14.7914 16.5686C14.7167 16.7499 14.6314 16.9419 14.5354 17.1446C14.45 17.3473 14.37 17.5286 14.2954 17.6886C14.2314 17.8593 14.1834 17.9819 14.1514 18.0566ZM20.408 15.0006V6.84061H27.576V15.0006H25.848V8.34461H22.136V15.0006H20.408ZM29.7455 15.0006V6.84061H31.4735V11.0166L31.3775 12.5526H31.4735L35.5535 6.84061H37.2655V15.0006H35.5535V10.8406L35.6495 9.30461H35.5535L31.4735 15.0006H29.7455ZM46.1107 18.0566C46.0787 18.1313 46.0414 18.2059 45.9987 18.2806C45.9667 18.3659 45.9454 18.4246 45.9347 18.4566H44.0947C44.1481 18.3393 44.2227 18.1739 44.3187 17.9606C44.4254 17.7473 44.5267 17.5339 44.6227 17.3206C44.6867 17.1819 44.7507 17.0326 44.8147 16.8726C44.8894 16.7126 44.9641 16.5473 45.0387 16.3766C45.1241 16.2059 45.2041 16.0406 45.2787 15.8806L45.8867 14.5526L42.4787 6.84061H44.3987L46.7347 12.4086H46.8147L49.0707 6.84061H50.9747L46.7507 16.5686C46.6761 16.7499 46.5907 16.9419 46.4947 17.1446C46.4094 17.3473 46.3294 17.5286 46.2547 17.6886C46.1907 17.8593 46.1427 17.9819 46.1107 18.0566ZM55.1231 15.2566C54.6858 15.2566 54.2378 15.2033 53.7791 15.0966C53.3311 14.9899 52.9151 14.8086 52.5311 14.5526C52.1471 14.2859 51.8218 13.9179 51.5551 13.4486L52.9311 12.6486C53.2298 13.0646 53.5711 13.3526 53.9551 13.5126C54.3498 13.6619 54.7391 13.7366 55.1231 13.7366C55.6778 13.7366 56.0991 13.6299 56.3871 13.4166C56.6751 13.2033 56.8191 12.9259 56.8191 12.5846C56.8191 12.2859 56.6858 12.0459 56.4191 11.8646C56.1631 11.6726 55.8005 11.5766 55.3311 11.5766H54.0031V10.2166H55.3311C55.7365 10.2166 56.0458 10.1206 56.2591 9.92861C56.4831 9.73661 56.5951 9.49128 56.5951 9.19261C56.5951 8.84061 56.4458 8.56328 56.1471 8.36061C55.8485 8.14728 55.4698 8.04061 55.0111 8.04061C54.6058 8.04061 54.2165 8.12594 53.8431 8.29661C53.4698 8.45661 53.1871 8.67528 52.9951 8.95261L51.7151 8.10461C51.9605 7.78461 52.2538 7.51261 52.5951 7.28861C52.9365 7.06461 53.3098 6.89394 53.7151 6.77661C54.1311 6.64861 54.5685 6.58461 55.0271 6.58461C55.6351 6.58461 56.1791 6.68594 56.6591 6.88861C57.1391 7.09128 57.5178 7.37394 57.7951 7.73661C58.0831 8.08861 58.2271 8.49928 58.2271 8.96861C58.2271 9.37394 58.1258 9.73661 57.9231 10.0566C57.7205 10.3766 57.4538 10.6113 57.1231 10.7606V10.8566C57.5391 11.0273 57.8751 11.2833 58.1311 11.6246C58.3871 11.9659 58.5151 12.3553 58.5151 12.7926C58.5151 13.2726 58.3711 13.6993 58.0831 14.0726C57.8058 14.4459 57.4111 14.7393 56.8991 14.9526C56.3978 15.1553 55.8058 15.2566 55.1231 15.2566Z" fill="white"/>
<g id="GPay (Dark)">
<g id="GPay">
<g id="Pay">
<path id="Fill 1" fill-rule="evenodd" clip-rule="evenodd" d="M87.3563 3.42339V8.16175H90.2784C90.9745 8.16175 91.5501 7.92781 92.0055 7.45993C92.4728 6.99313 92.707 6.43644 92.707 5.79203C92.707 5.16061 92.4728 4.61041 92.0055 4.14254C91.5501 3.66274 90.9745 3.4223 90.2784 3.4223H87.3563V3.42339ZM87.3563 9.82966V15.3262H85.6107V1.75549H90.2404C91.4169 1.75549 92.4154 2.14756 93.2383 2.93061C94.0732 3.71365 94.4906 4.66782 94.4906 5.79203C94.4906 6.94224 94.0731 7.90291 93.2383 8.67296C92.4283 9.44409 91.4287 9.82858 90.2404 9.82858H87.3563V9.82966Z" fill="white"/>
<path id="Fill 3" fill-rule="evenodd" clip-rule="evenodd" d="M96.2546 12.4831C96.2546 12.9379 96.4476 13.317 96.8337 13.6203C97.2195 13.9235 97.6717 14.0752 98.19 14.0752C98.9239 14.0752 99.5777 13.8032 100.153 13.2607C100.729 12.717 101.017 12.0791 101.017 11.3469C100.472 10.917 99.7133 10.7025 98.7396 10.7025C98.0306 10.7025 97.4397 10.8736 96.9659 11.2148C96.492 11.5559 96.2546 11.9773 96.2546 12.4831M98.513 5.73566C99.8033 5.73566 100.821 6.08007 101.569 6.76889C102.314 7.45771 102.687 8.40213 102.687 9.60216V15.3261H101.018V14.0373H100.942C100.221 15.0985 99.259 15.6294 98.0578 15.6294C97.0332 15.6294 96.1755 15.3261 95.4869 14.7196C94.7975 14.1131 94.4527 13.3549 94.4527 12.4452C94.4527 11.4845 94.8158 10.7208 95.5433 10.1523C96.2708 9.58375 97.2413 9.2989 98.4557 9.2989C99.4921 9.2989 100.346 9.48844 101.017 9.86751V9.46894C101.017 8.86243 100.776 8.34798 100.296 7.92451C99.8141 7.50103 99.2525 7.28984 98.6074 7.28984C97.6326 7.28984 96.8618 7.70032 96.2926 8.52235L94.7551 7.55519C95.6029 6.34217 96.8552 5.73566 98.513 5.73566" fill="white"/>
<path id="Fill 5" fill-rule="evenodd" clip-rule="evenodd" d="M112.269 6.03894L106.443 19.4201H104.641L106.804 14.738L102.971 6.03894H104.869L107.639 12.7106H107.677L110.371 6.03894H112.269Z" fill="white"/>
</g>
<g id="G">
<path id="Fill 8" fill-rule="evenodd" clip-rule="evenodd" d="M80.3029 8.64473C80.3029 8.09563 80.2562 7.56601 80.1684 7.05914H72.8065V10.0625H77.0231C76.842 11.0414 76.2944 11.8744 75.4639 12.4322V14.3828H77.9804C79.4539 13.0246 80.3029 11.0177 80.3029 8.64473" fill="#4285F4"/>
<path id="Fill 10" fill-rule="evenodd" clip-rule="evenodd" d="M72.8065 16.2651C74.9131 16.2651 76.6869 15.5741 77.9804 14.3828L75.4639 12.4322C74.7635 12.9033 73.8614 13.1784 72.8065 13.1784C70.7703 13.1784 69.042 11.8073 68.424 9.95959H65.8316V11.9687C67.1164 14.516 69.7565 16.2651 72.8065 16.2651" fill="#34A853"/>
<path id="Fill 12" fill-rule="evenodd" clip-rule="evenodd" d="M68.424 9.9596C68.2657 9.48847 68.179 8.98593 68.179 8.46715C68.179 7.94837 68.2657 7.44583 68.424 6.9747V4.96564H65.8316C65.3003 6.01837 65 7.20756 65 8.46715C65 9.72674 65.3003 10.916 65.8316 11.9687L68.424 9.9596Z" fill="#FABB05"/>
<path id="Fill 14" fill-rule="evenodd" clip-rule="evenodd" d="M72.8065 3.75583C73.9568 3.75583 74.9879 4.15115 75.8011 4.92553V4.92661L78.0292 2.70094C76.6761 1.44243 74.912 0.669128 72.8065 0.669128C69.7565 0.669128 67.1164 2.41826 65.8316 4.9656L68.424 6.97467C69.042 5.12698 70.7703 3.75583 72.8065 3.75583" fill="#E94235"/>
</g>
</g>
</g>
</g>
</svg>
