<svg width="242" height="38" viewBox="0 0 242 38" fill="none" xmlns="http://www.w3.org/2000/svg">
<g id="sr_donate_with_Dark">
<path id="Text" d="M1.14069 34.256V27.088H2.90469C3.33402 26.3787 3.67936 25.464 3.94069 24.344C4.22069 23.2053 4.41669 21.9547 4.52869 20.592C4.65936 19.2293 4.72469 17.8573 4.72469 16.476V9.952H17.5767V27.088H19.9287V34.256H16.9327V30H4.13669V34.256H1.14069ZM6.26469 27.088H14.4967V12.864H7.72069V16.924C7.72069 18.9587 7.59002 20.8347 7.32869 22.552C7.08602 24.2693 6.73136 25.7253 6.26469 26.92V27.088ZM29.4512 30.448C27.9765 30.448 26.6792 30.112 25.5592 29.44C24.4392 28.768 23.5619 27.8627 22.9272 26.724C22.2925 25.5853 21.9752 24.2973 21.9752 22.86C21.9752 21.4413 22.2925 20.1627 22.9272 19.024C23.5619 17.8667 24.4392 16.952 25.5592 16.28C26.6792 15.608 27.9765 15.272 29.4512 15.272C30.9072 15.272 32.1952 15.608 33.3152 16.28C34.4352 16.952 35.3125 17.8667 35.9472 19.024C36.5819 20.1627 36.8992 21.4413 36.8992 22.86C36.8992 24.2973 36.5819 25.5853 35.9472 26.724C35.3125 27.8627 34.4352 28.768 33.3152 29.44C32.1952 30.112 30.9072 30.448 29.4512 30.448ZM29.4512 27.676C30.2352 27.676 30.9632 27.4893 31.6352 27.116C32.3072 26.724 32.8485 26.1733 33.2592 25.464C33.6885 24.736 33.9032 23.868 33.9032 22.86C33.9032 21.852 33.6885 20.9933 33.2592 20.284C32.8485 19.556 32.3072 19.0053 31.6352 18.632C30.9632 18.24 30.2352 18.044 29.4512 18.044C28.6672 18.044 27.9299 18.24 27.2392 18.632C26.5672 19.0053 26.0165 19.556 25.5872 20.284C25.1765 20.9933 24.9712 21.852 24.9712 22.86C24.9712 23.868 25.1765 24.736 25.5872 25.464C26.0165 26.1733 26.5672 26.724 27.2392 27.116C27.9299 27.4893 28.6672 27.676 29.4512 27.676ZM39.7109 30V15.72H42.7349V21.46H49.5109V15.72H52.5349V30H49.5109V24.092H42.7349V30H39.7109ZM56.3624 30V15.72H59.3864V23.028L59.2184 25.716H59.3864L66.5264 15.72H69.5224V30H66.5264V22.72L66.6944 20.032H66.5264L59.3864 30H56.3624ZM73.3415 36.048V15.72H76.1695V17.652H76.3375C76.7108 17.036 77.2895 16.4853 78.0735 16C78.8761 15.5147 79.8281 15.272 80.9295 15.272C82.2361 15.272 83.4028 15.5987 84.4295 16.252C85.4561 16.9053 86.2681 17.8013 86.8655 18.94C87.4815 20.0787 87.7895 21.3853 87.7895 22.86C87.7895 24.3347 87.4815 25.6507 86.8655 26.808C86.2681 27.9467 85.4561 28.8427 84.4295 29.496C83.4028 30.1307 82.2361 30.448 80.9295 30.448C79.8281 30.448 78.8761 30.2147 78.0735 29.748C77.2895 29.2627 76.7108 28.712 76.3375 28.096H76.1695L76.3375 30.084V36.048H73.3415ZM80.4815 27.676C81.2281 27.676 81.9281 27.48 82.5815 27.088C83.2348 26.696 83.7668 26.1453 84.1775 25.436C84.5881 24.708 84.7935 23.8493 84.7935 22.86C84.7935 21.8707 84.5881 21.0213 84.1775 20.312C83.7668 19.584 83.2348 19.024 82.5815 18.632C81.9281 18.24 81.2281 18.044 80.4815 18.044C79.7348 18.044 79.0348 18.24 78.3815 18.632C77.7281 19.024 77.1961 19.584 76.7855 20.312C76.3748 21.0213 76.1695 21.8707 76.1695 22.86C76.1695 23.8493 76.3748 24.708 76.7855 25.436C77.1961 26.1453 77.7281 26.696 78.3815 27.088C79.0348 27.48 79.7348 27.676 80.4815 27.676ZM95.294 30.448C94.2673 30.448 93.3527 30.252 92.55 29.86C91.7473 29.4493 91.122 28.88 90.674 28.152C90.226 27.424 90.002 26.5933 90.002 25.66C90.002 24.652 90.2633 23.7933 90.786 23.084C91.3273 22.356 92.046 21.8053 92.942 21.432C93.838 21.0587 94.8273 20.872 95.91 20.872C96.806 20.872 97.59 20.956 98.262 21.124C98.9527 21.292 99.4753 21.4693 99.83 21.656V20.9C99.83 19.9667 99.494 19.22 98.822 18.66C98.15 18.1 97.282 17.82 96.218 17.82C95.49 17.82 94.7993 17.988 94.146 18.324C93.4927 18.6413 92.97 19.08 92.578 19.64L90.506 18.044C91.122 17.1853 91.934 16.5133 92.942 16.028C93.9687 15.524 95.0887 15.272 96.302 15.272C98.374 15.272 99.97 15.7853 101.09 16.812C102.21 17.82 102.77 19.2387 102.77 21.068V30H99.83V28.236H99.662C99.2887 28.8147 98.7287 29.328 97.982 29.776C97.2353 30.224 96.3393 30.448 95.294 30.448ZM95.826 27.984C96.61 27.984 97.3007 27.7973 97.898 27.424C98.4953 27.0507 98.962 26.5653 99.298 25.968C99.6527 25.352 99.83 24.6893 99.83 23.98C99.4007 23.7373 98.8967 23.5413 98.318 23.392C97.7393 23.224 97.1233 23.14 96.47 23.14C95.238 23.14 94.3607 23.392 93.838 23.896C93.3153 24.3813 93.054 24.9787 93.054 25.688C93.054 26.36 93.306 26.9107 93.81 27.34C94.314 27.7693 94.986 27.984 95.826 27.984ZM108.135 13.62C107.575 13.62 107.09 13.424 106.679 13.032C106.287 12.6213 106.091 12.136 106.091 11.576C106.091 11.016 106.287 10.54 106.679 10.148C107.09 9.756 107.575 9.56 108.135 9.56C108.695 9.56 109.171 9.756 109.563 10.148C109.974 10.54 110.179 11.016 110.179 11.576C110.179 12.136 109.974 12.6213 109.563 13.032C109.171 13.424 108.695 13.62 108.135 13.62ZM105.419 36.328C104.84 36.328 104.318 36.2627 103.851 36.132V33.22C104.038 33.332 104.252 33.416 104.495 33.472C104.719 33.5467 104.943 33.584 105.167 33.584C105.708 33.584 106.082 33.416 106.287 33.08C106.511 32.7627 106.623 32.296 106.623 31.68V15.72H109.647V31.708C109.647 33.3507 109.246 34.5267 108.443 35.236C107.64 35.964 106.632 36.328 105.419 36.328ZM125.406 35.348C125.35 35.4973 125.285 35.6373 125.21 35.768C125.154 35.8987 125.117 35.992 125.098 36.048H121.878C121.972 35.8427 122.102 35.544 122.27 35.152C122.457 34.7787 122.634 34.4147 122.802 34.06C122.97 33.7053 123.148 33.304 123.334 32.856C123.54 32.408 123.745 31.9693 123.95 31.54L125.014 29.216L119.05 15.72H122.41L126.498 25.464H126.638L130.586 15.72H133.918L126.526 32.744C126.321 33.2293 126.097 33.7333 125.854 34.256C125.63 34.7973 125.481 35.1613 125.406 35.348ZM141.215 30.448C140.431 30.448 139.647 30.3547 138.863 30.168C138.079 29.9813 137.342 29.664 136.651 29.216C135.979 28.7493 135.419 28.1053 134.971 27.284L137.379 25.884C137.902 26.612 138.499 27.116 139.171 27.396C139.862 27.6573 140.543 27.788 141.215 27.788C142.186 27.788 142.923 27.6013 143.427 27.228C143.931 26.8547 144.183 26.3693 144.183 25.772C144.183 25.2493 143.95 24.8293 143.483 24.512C143.035 24.176 142.401 24.008 141.579 24.008H139.255V21.628H141.579C142.289 21.628 142.83 21.46 143.203 21.124C143.595 20.788 143.791 20.3587 143.791 19.836C143.791 19.22 143.53 18.7347 143.007 18.38C142.485 18.0067 141.822 17.82 141.019 17.82C140.31 17.82 139.629 17.9693 138.975 18.268C138.322 18.548 137.827 18.9307 137.491 19.416L135.251 17.932C135.905 17.1107 136.726 16.4667 137.715 16C138.723 15.5147 139.834 15.272 141.047 15.272C142.093 15.272 143.035 15.4493 143.875 15.804C144.734 16.1587 145.406 16.6533 145.891 17.288C146.395 17.904 146.647 18.6227 146.647 19.444C146.647 20.1533 146.47 20.788 146.115 21.348C145.761 21.8893 145.294 22.3 144.715 22.58V22.748C145.443 23.0467 146.031 23.4947 146.479 24.092C146.927 24.6893 147.151 25.3707 147.151 26.136C147.151 26.976 146.909 27.7227 146.423 28.376C145.938 29.0107 145.247 29.5147 144.351 29.888C143.455 30.2613 142.41 30.448 141.215 30.448Z" fill="white"/>
<g id="GPay Logo (Dark)">
<g id="GPay">
<g id="Pay">
<path id="Fill 1" fill-rule="evenodd" clip-rule="evenodd" d="M198.529 9.34665V17.5128H203.565C204.765 17.5128 205.757 17.1096 206.541 16.3032C207.347 15.4988 207.75 14.5394 207.75 13.4288C207.75 12.3406 207.347 11.3924 206.541 10.586C205.757 9.75916 204.765 9.34479 203.565 9.34479H198.529V9.34665ZM198.529 20.3872V29.8599H195.521V6.47218H203.499C205.527 6.47218 207.248 7.14787 208.666 8.49738C210.105 9.84688 210.824 11.4913 210.824 13.4288C210.824 15.411 210.105 17.0667 208.666 18.3938C207.27 19.7227 205.547 20.3854 203.499 20.3854H198.529V20.3872Z" fill="white"/>
<path id="Fill 3" fill-rule="evenodd" clip-rule="evenodd" d="M213.864 24.9602C213.864 25.7442 214.197 26.3975 214.862 26.9201C215.527 27.4427 216.306 27.704 217.2 27.704C218.465 27.704 219.591 27.2354 220.584 26.3004C221.576 25.3634 222.071 24.264 222.071 23.0022C221.133 22.2612 219.825 21.8916 218.147 21.8916C216.925 21.8916 215.907 22.1866 215.09 22.7745C214.273 23.3623 213.864 24.0886 213.864 24.9602ZM217.756 13.3317C219.98 13.3317 221.735 13.9253 223.022 15.1124C224.308 16.2995 224.95 17.9271 224.95 19.9952V29.8599H222.073V27.6387H221.942C220.699 29.4677 219.042 30.3825 216.972 30.3825C215.206 30.3825 213.728 29.8599 212.541 28.8146C211.353 27.7694 210.759 26.4628 210.759 24.8949C210.759 23.2393 211.385 21.9232 212.638 20.9434C213.892 19.9635 215.565 19.4726 217.658 19.4726C219.444 19.4726 220.916 19.7993 222.071 20.4525V19.7657C222.071 18.7204 221.656 17.8338 220.829 17.104C219.999 16.3742 219.031 16.0102 217.919 16.0102C216.239 16.0102 214.911 16.7176 213.93 18.1343L211.28 16.4675C212.741 14.377 214.899 13.3317 217.756 13.3317Z" fill="white"/>
<path id="Fill 5" fill-rule="evenodd" clip-rule="evenodd" d="M241.463 13.8543L231.424 36.9154H228.318L232.046 28.8464L225.44 13.8543H228.71L233.484 25.3522H233.55L238.193 13.8543H241.463Z" fill="white"/>
</g>
<g id="G">
<path id="Fill 8" fill-rule="evenodd" clip-rule="evenodd" d="M186.373 18.3452C186.373 17.3989 186.293 16.4861 186.141 15.6126H173.454V20.7885H180.72C180.408 22.4757 179.465 23.9112 178.033 24.8725V28.2341H182.37C184.91 25.8935 186.373 22.4348 186.373 18.3452Z" fill="#4285F4"/>
<path id="Fill 10" fill-rule="evenodd" clip-rule="evenodd" d="M173.454 31.4782C177.084 31.4782 180.141 30.2873 182.37 28.2341L178.033 24.8725C176.826 25.6844 175.272 26.1585 173.454 26.1585C169.944 26.1585 166.966 23.7955 165.901 20.6112H161.433V24.0736C163.647 28.4637 168.197 31.4782 173.454 31.4782Z" fill="#34A853"/>
<path id="Fill 12" fill-rule="evenodd" clip-rule="evenodd" d="M165.901 20.6111C165.628 19.7992 165.479 18.9331 165.479 18.0391C165.479 17.145 165.628 16.2789 165.901 15.467V12.0045H161.433C160.518 13.8188 160 15.8683 160 18.0391C160 20.2098 160.518 22.2595 161.433 24.0736L165.901 20.6111Z" fill="#FABB05"/>
<path id="Fill 14" fill-rule="evenodd" clip-rule="evenodd" d="M173.454 9.91964C175.436 9.91964 177.213 10.6009 178.615 11.9355V11.9374L182.455 8.10163C180.123 5.93272 177.082 4.60001 173.454 4.60001C168.197 4.60001 163.647 7.61447 161.433 12.0046L165.901 15.467C166.966 12.2827 169.944 9.91964 173.454 9.91964Z" fill="#E94235"/>
</g>
</g>
</g>
</g>
</svg>
