<svg width="139" height="21" viewBox="0 0 139 21" fill="none" xmlns="http://www.w3.org/2000/svg">
<g id="sr_donate_with_Pay_NBG">
<path id="Left Text" d="M1.27325 17.4326V13.3366H2.28125C2.46258 13.0379 2.61725 12.6646 2.74525 12.2166C2.88392 11.7686 2.99058 11.2779 3.06525 10.7446C3.15058 10.2006 3.21458 9.63528 3.25725 9.04861C3.29992 8.45128 3.32125 7.85928 3.32125 7.27261V3.54461H10.6653V13.3366H12.0093V17.4326H10.2973V15.0006H2.98525V17.4326H1.27325ZM4.20125 13.3366H8.90525V5.20861H5.03325V7.52861C5.03325 8.30728 5.00125 9.04328 4.93725 9.73661C4.87325 10.4299 4.77725 11.0753 4.64925 11.6726C4.53192 12.2593 4.38259 12.7819 4.20125 13.2406V13.3366ZM17.4293 15.2566C16.5866 15.2566 15.8453 15.0646 15.2053 14.6806C14.5653 14.2966 14.0639 13.7793 13.7013 13.1286C13.3386 12.4673 13.1573 11.7313 13.1573 10.9206C13.1573 10.1099 13.3386 9.37928 13.7013 8.72861C14.0639 8.06728 14.5653 7.54461 15.2053 7.16061C15.8453 6.77661 16.5866 6.58461 17.4293 6.58461C18.2613 6.58461 18.9973 6.78194 19.6373 7.17661C20.2773 7.56061 20.7786 8.07794 21.1413 8.72861C21.5039 9.37928 21.6853 10.1099 21.6853 10.9206C21.6853 11.7313 21.5039 12.4673 21.1413 13.1286C20.7786 13.7793 20.2773 14.2966 19.6373 14.6806C18.9973 15.0646 18.2613 15.2566 17.4293 15.2566ZM17.4293 13.6726C17.8773 13.6726 18.2933 13.5659 18.6773 13.3526C19.0613 13.1286 19.3706 12.8139 19.6053 12.4086C19.8506 11.9926 19.9733 11.4966 19.9733 10.9206C19.9733 10.3446 19.8506 9.85394 19.6053 9.44861C19.3706 9.03261 19.0613 8.71794 18.6773 8.50461C18.2933 8.28061 17.8773 8.16861 17.4293 8.16861C16.9813 8.16861 16.5599 8.28061 16.1653 8.50461C15.7813 8.71794 15.4666 9.03261 15.2213 9.44861C14.9866 9.85394 14.8693 10.3446 14.8693 10.9206C14.8693 11.4966 14.9866 11.9926 15.2213 12.4086C15.4666 12.8139 15.7866 13.1286 16.1813 13.3526C16.5759 13.5659 16.9919 13.6726 17.4293 13.6726ZM23.2705 15.0006V6.84061H24.9985V10.1206H28.8705V6.84061H30.5985V15.0006H28.8705V11.6246H24.9985V15.0006H23.2705ZM32.7643 15.0006V6.84061H34.4923V11.0166L34.3963 12.5526H34.4923L38.5723 6.84061H40.2843V15.0006H38.5723V10.8406L38.6683 9.30461H38.5723L34.4923 15.0006H32.7643ZM42.4451 18.4566V6.84061H44.0611V7.94461H44.1571C44.3065 7.70994 44.5038 7.49128 44.7491 7.28861C45.0051 7.07528 45.3038 6.90461 45.6451 6.77661C45.9865 6.64861 46.3651 6.58461 46.7811 6.58461C47.5278 6.58461 48.1945 6.77128 48.7811 7.14461C49.3678 7.51794 49.8318 8.02994 50.1731 8.68061C50.5251 9.33128 50.7011 10.0779 50.7011 10.9206C50.7011 11.7633 50.5251 12.5099 50.1731 13.1606C49.8318 13.8113 49.3678 14.3233 48.7811 14.6966C48.1945 15.0699 47.5278 15.2566 46.7811 15.2566C46.1625 15.2566 45.6238 15.1179 45.1651 14.8406C44.7065 14.5633 44.3705 14.2539 44.1571 13.9126H44.0611L44.1571 15.0486V18.4566H42.4451ZM46.5251 13.6726C46.9518 13.6726 47.3518 13.5606 47.7251 13.3366C48.1091 13.1126 48.4131 12.7926 48.6371 12.3766C48.8718 11.9606 48.9891 11.4753 48.9891 10.9206C48.9891 10.3553 48.8718 9.86994 48.6371 9.46461C48.4131 9.04861 48.1091 8.72861 47.7251 8.50461C47.3518 8.28061 46.9518 8.16861 46.5251 8.16861C46.0985 8.16861 45.6985 8.28061 45.3251 8.50461C44.9518 8.72861 44.6478 9.04861 44.4131 9.46461C44.1785 9.86994 44.0611 10.3553 44.0611 10.9206C44.0611 11.4859 44.1785 11.9766 44.4131 12.3926C44.6478 12.7979 44.9518 13.1126 45.3251 13.3366C45.6985 13.5606 46.0985 13.6726 46.5251 13.6726ZM54.968 15.2566C54.3813 15.2566 53.8587 15.1393 53.4 14.9046C52.952 14.6699 52.5947 14.3499 52.328 13.9446C52.072 13.5286 51.944 13.0539 51.944 12.5206C51.944 11.9339 52.0933 11.4379 52.392 11.0326C52.7013 10.6273 53.112 10.3179 53.624 10.1046C54.136 9.89128 54.7013 9.78461 55.32 9.78461C55.6613 9.78461 55.976 9.81128 56.264 9.86461C56.5627 9.90728 56.8187 9.96061 57.032 10.0246C57.256 10.0886 57.432 10.1579 57.56 10.2326V9.80061C57.56 9.26728 57.368 8.84061 56.984 8.52061C56.6 8.20061 56.104 8.04061 55.496 8.04061C55.08 8.04061 54.6853 8.13661 54.312 8.32861C53.9387 8.50994 53.64 8.76061 53.416 9.08061L52.232 8.16861C52.4667 7.83794 52.7493 7.55528 53.08 7.32061C53.4213 7.08594 53.8 6.90461 54.216 6.77661C54.6427 6.64861 55.0853 6.58461 55.544 6.58461C56.728 6.58461 57.64 6.87794 58.28 7.46461C58.92 8.04061 59.24 8.85128 59.24 9.89661V15.0006H57.56V13.9926H57.464C57.3253 14.2059 57.1333 14.4086 56.888 14.6006C56.6533 14.7926 56.3707 14.9473 56.04 15.0646C55.72 15.1926 55.3627 15.2566 54.968 15.2566ZM55.272 13.8486C55.72 13.8486 56.1147 13.7419 56.456 13.5286C56.808 13.3153 57.08 13.0379 57.272 12.6966C57.464 12.3446 57.56 11.9659 57.56 11.5606C57.3253 11.4219 57.0373 11.3099 56.696 11.2246C56.3653 11.1286 56.0133 11.0806 55.64 11.0806C54.936 11.0806 54.4347 11.2193 54.136 11.4966C53.8373 11.7739 53.688 12.1206 53.688 12.5366C53.688 12.9206 53.832 13.2353 54.12 13.4806C54.408 13.7259 54.792 13.8486 55.272 13.8486ZM60.7324 18.6166C60.5617 18.6166 60.407 18.6059 60.2684 18.5846C60.119 18.5633 59.975 18.5366 59.8364 18.5046V16.8406C59.9324 16.8939 60.0497 16.9419 60.1884 16.9846C60.327 17.0273 60.4604 17.0486 60.5884 17.0486C60.887 17.0486 61.1004 16.9526 61.2284 16.7606C61.3564 16.5793 61.4204 16.3126 61.4204 15.9606V6.84061H63.1484V15.9766C63.1484 16.6059 63.0417 17.1126 62.8284 17.4966C62.6257 17.8806 62.343 18.1633 61.9804 18.3446C61.6177 18.5259 61.2017 18.6166 60.7324 18.6166ZM62.2844 5.64061C61.9644 5.64061 61.687 5.52861 61.4524 5.30461C61.2284 5.06994 61.1164 4.79261 61.1164 4.47261C61.1164 4.14194 61.2284 3.86994 61.4524 3.65661C61.687 3.43261 61.9644 3.32061 62.2844 3.32061C62.615 3.32061 62.8924 3.43261 63.1164 3.65661C63.3404 3.86994 63.4524 4.14194 63.4524 4.47261C63.4524 4.79261 63.3404 5.06994 63.1164 5.30461C62.8924 5.52861 62.615 5.64061 62.2844 5.64061ZM72.1107 18.0566C72.0787 18.1313 72.0414 18.2059 71.9987 18.2806C71.9667 18.3659 71.9454 18.4246 71.9347 18.4566H70.0947C70.1481 18.3393 70.2227 18.1739 70.3187 17.9606C70.4254 17.7473 70.5267 17.5339 70.6227 17.3206C70.6867 17.1819 70.7507 17.0326 70.8147 16.8726C70.8894 16.7126 70.9641 16.5473 71.0387 16.3766C71.1241 16.2059 71.2041 16.0406 71.2787 15.8806L71.8867 14.5526L68.4787 6.84061H70.3987L72.7347 12.4086H72.8147L75.0707 6.84061H76.9747L72.7507 16.5686C72.6761 16.7499 72.5907 16.9419 72.4947 17.1446C72.4094 17.3473 72.3294 17.5286 72.2547 17.6886C72.1907 17.8593 72.1427 17.9819 72.1107 18.0566ZM81.1231 15.2566C80.6858 15.2566 80.2378 15.2033 79.7791 15.0966C79.3311 14.9899 78.9151 14.8086 78.5311 14.5526C78.1471 14.2859 77.8218 13.9179 77.5551 13.4486L78.9311 12.6486C79.2298 13.0646 79.5711 13.3526 79.9551 13.5126C80.3498 13.6619 80.7391 13.7366 81.1231 13.7366C81.6778 13.7366 82.0991 13.6299 82.3871 13.4166C82.6751 13.2033 82.8191 12.9259 82.8191 12.5846C82.8191 12.2859 82.6858 12.0459 82.4191 11.8646C82.1631 11.6726 81.8005 11.5766 81.3311 11.5766H80.0031V10.2166H81.3311C81.7365 10.2166 82.0458 10.1206 82.2591 9.92861C82.4831 9.73661 82.5951 9.49128 82.5951 9.19261C82.5951 8.84061 82.4458 8.56328 82.1471 8.36061C81.8485 8.14728 81.4698 8.04061 81.0111 8.04061C80.6058 8.04061 80.2165 8.12594 79.8431 8.29661C79.4698 8.45661 79.1871 8.67528 78.9951 8.95261L77.7151 8.10461C77.9605 7.78461 78.2538 7.51261 78.5951 7.28861C78.9365 7.06461 79.3098 6.89394 79.7151 6.77661C80.1311 6.64861 80.5685 6.58461 81.0271 6.58461C81.6351 6.58461 82.1791 6.68594 82.6591 6.88861C83.1391 7.09128 83.5178 7.37394 83.7951 7.73661C84.0831 8.08861 84.2271 8.49928 84.2271 8.96861C84.2271 9.37394 84.1258 9.73661 83.9231 10.0566C83.7205 10.3766 83.4538 10.6113 83.1231 10.7606V10.8566C83.5391 11.0273 83.8751 11.2833 84.1311 11.6246C84.3871 11.9659 84.5151 12.3553 84.5151 12.7926C84.5151 13.2726 84.3711 13.6993 84.0831 14.0726C83.8058 14.4459 83.4111 14.7393 82.8991 14.9526C82.3978 15.1553 81.8058 15.2566 81.1231 15.2566Z" fill="white"/>
<g id="GPay (Dark)">
<g id="GPay">
<g id="Pay">
<path id="Fill 1" fill-rule="evenodd" clip-rule="evenodd" d="M113.356 3.42339V8.16175H116.278C116.974 8.16175 117.55 7.92781 118.005 7.45993C118.473 6.99313 118.707 6.43644 118.707 5.79203C118.707 5.16061 118.473 4.61041 118.005 4.14254C117.55 3.66274 116.974 3.4223 116.278 3.4223H113.356V3.42339ZM113.356 9.82966V15.3262H111.611V1.75549H116.24C117.417 1.75549 118.415 2.14756 119.238 2.93061C120.073 3.71365 120.491 4.66782 120.491 5.79203C120.491 6.94224 120.073 7.90291 119.238 8.67296C118.428 9.44409 117.429 9.82858 116.24 9.82858H113.356V9.82966Z" fill="white"/>
<path id="Fill 3" fill-rule="evenodd" clip-rule="evenodd" d="M122.255 12.4831C122.255 12.9379 122.448 13.317 122.834 13.6203C123.22 13.9235 123.672 14.0752 124.19 14.0752C124.924 14.0752 125.578 13.8032 126.153 13.2607C126.729 12.717 127.017 12.0791 127.017 11.3469C126.472 10.917 125.713 10.7025 124.74 10.7025C124.031 10.7025 123.44 10.8736 122.966 11.2148C122.492 11.5559 122.255 11.9773 122.255 12.4831M124.513 5.73566C125.803 5.73566 126.821 6.08007 127.569 6.76889C128.314 7.45771 128.687 8.40213 128.687 9.60216V15.3261H127.018V14.0373H126.942C126.221 15.0985 125.259 15.6294 124.058 15.6294C123.033 15.6294 122.176 15.3261 121.487 14.7196C120.797 14.1131 120.453 13.3549 120.453 12.4452C120.453 11.4845 120.816 10.7208 121.543 10.1523C122.271 9.58375 123.241 9.2989 124.456 9.2989C125.492 9.2989 126.346 9.48844 127.017 9.86751V9.46894C127.017 8.86243 126.776 8.34798 126.296 7.92451C125.814 7.50103 125.252 7.28984 124.607 7.28984C123.633 7.28984 122.862 7.70032 122.293 8.52235L120.755 7.55519C121.603 6.34217 122.855 5.73566 124.513 5.73566" fill="white"/>
<path id="Fill 5" fill-rule="evenodd" clip-rule="evenodd" d="M138.269 6.03894L132.443 19.4201H130.641L132.804 14.738L128.971 6.03894H130.869L133.639 12.7106H133.677L136.371 6.03894H138.269Z" fill="white"/>
</g>
<g id="G">
<path id="Fill 8" fill-rule="evenodd" clip-rule="evenodd" d="M106.303 8.64473C106.303 8.09563 106.256 7.56601 106.168 7.05914H98.8065V10.0625H103.023C102.842 11.0414 102.294 11.8744 101.464 12.4322V14.3828H103.98C105.454 13.0246 106.303 11.0177 106.303 8.64473" fill="#4285F4"/>
<path id="Fill 10" fill-rule="evenodd" clip-rule="evenodd" d="M98.8065 16.2651C100.913 16.2651 102.687 15.5741 103.98 14.3828L101.464 12.4322C100.763 12.9033 99.8614 13.1784 98.8065 13.1784C96.7703 13.1784 95.042 11.8073 94.424 9.95959H91.8316V11.9687C93.1164 14.516 95.7565 16.2651 98.8065 16.2651" fill="#34A853"/>
<path id="Fill 12" fill-rule="evenodd" clip-rule="evenodd" d="M94.424 9.9596C94.2657 9.48847 94.179 8.98593 94.179 8.46715C94.179 7.94837 94.2657 7.44583 94.424 6.9747V4.96564H91.8316C91.3003 6.01837 91 7.20756 91 8.46715C91 9.72674 91.3003 10.916 91.8316 11.9687L94.424 9.9596Z" fill="#FABB05"/>
<path id="Fill 14" fill-rule="evenodd" clip-rule="evenodd" d="M98.8065 3.75583C99.9568 3.75583 100.988 4.15115 101.801 4.92553V4.92661L104.029 2.70094C102.676 1.44243 100.912 0.669128 98.8065 0.669128C95.7565 0.669128 93.1164 2.41826 91.8316 4.9656L94.424 6.97467C95.042 5.12698 96.7703 3.75583 98.8065 3.75583" fill="#E94235"/>
</g>
</g>
</g>
</g>
</svg>
