<svg width="139" height="21" viewBox="0 0 139 21" fill="none" xmlns="http://www.w3.org/2000/svg">
<g id="sr_order_with_Pay_NBG">
<path id="Left Text" d="M1.62725 15.0006V3.54461H10.2673V15.0006H8.50725V5.20861H3.38725V15.0006H1.62725ZM16.5636 15.2566C15.721 15.2566 14.9796 15.0646 14.3396 14.6806C13.6996 14.2966 13.1983 13.7793 12.8356 13.1286C12.473 12.4673 12.2916 11.7313 12.2916 10.9206C12.2916 10.1099 12.473 9.37928 12.8356 8.72861C13.1983 8.06728 13.6996 7.54461 14.3396 7.16061C14.9796 6.77661 15.721 6.58461 16.5636 6.58461C17.3956 6.58461 18.1316 6.78194 18.7716 7.17661C19.4116 7.56061 19.913 8.07794 20.2756 8.72861C20.6383 9.37928 20.8196 10.1099 20.8196 10.9206C20.8196 11.7313 20.6383 12.4673 20.2756 13.1286C19.913 13.7793 19.4116 14.2966 18.7716 14.6806C18.1316 15.0646 17.3956 15.2566 16.5636 15.2566ZM16.5636 13.6726C17.0116 13.6726 17.4276 13.5659 17.8116 13.3526C18.1956 13.1286 18.505 12.8139 18.7396 12.4086C18.985 11.9926 19.1076 11.4966 19.1076 10.9206C19.1076 10.3446 18.985 9.85394 18.7396 9.44861C18.505 9.03261 18.1956 8.71794 17.8116 8.50461C17.4276 8.28061 17.0116 8.16861 16.5636 8.16861C16.1156 8.16861 15.6943 8.28061 15.2996 8.50461C14.9156 8.71794 14.601 9.03261 14.3556 9.44861C14.121 9.85394 14.0036 10.3446 14.0036 10.9206C14.0036 11.4966 14.121 11.9926 14.3556 12.4086C14.601 12.8139 14.921 13.1286 15.3156 13.3526C15.7103 13.5659 16.1263 13.6726 16.5636 13.6726ZM22.467 18.4566V6.84061H24.083V7.94461H24.179C24.3283 7.70994 24.5257 7.49128 24.771 7.28861C25.027 7.07528 25.3257 6.90461 25.667 6.77661C26.0083 6.64861 26.387 6.58461 26.803 6.58461C27.5497 6.58461 28.2163 6.77128 28.803 7.14461C29.3897 7.51794 29.8537 8.02994 30.195 8.68061C30.547 9.33128 30.723 10.0779 30.723 10.9206C30.723 11.7633 30.547 12.5099 30.195 13.1606C29.8537 13.8113 29.3897 14.3233 28.803 14.6966C28.2163 15.0699 27.5497 15.2566 26.803 15.2566C26.1843 15.2566 25.6457 15.1179 25.187 14.8406C24.7283 14.5633 24.3923 14.2539 24.179 13.9126H24.083L24.179 15.0486V18.4566H22.467ZM26.547 13.6726C26.9737 13.6726 27.3737 13.5606 27.747 13.3366C28.131 13.1126 28.435 12.7926 28.659 12.3766C28.8937 11.9606 29.011 11.4753 29.011 10.9206C29.011 10.3553 28.8937 9.86994 28.659 9.46461C28.435 9.04861 28.131 8.72861 27.747 8.50461C27.3737 8.28061 26.9737 8.16861 26.547 8.16861C26.1203 8.16861 25.7203 8.28061 25.347 8.50461C24.9737 8.72861 24.6697 9.04861 24.435 9.46461C24.2003 9.86994 24.083 10.3553 24.083 10.9206C24.083 11.4859 24.2003 11.9766 24.435 12.3926C24.6697 12.7979 24.9737 13.1126 25.347 13.3366C25.7203 13.5606 26.1203 13.6726 26.547 13.6726ZM34.9014 18.0566C34.8694 18.1313 34.832 18.2059 34.7894 18.2806C34.7574 18.3659 34.736 18.4246 34.7254 18.4566H32.8854C32.9387 18.3393 33.0134 18.1739 33.1094 17.9606C33.216 17.7473 33.3174 17.5339 33.4134 17.3206C33.4774 17.1819 33.5414 17.0326 33.6054 16.8726C33.68 16.7126 33.7547 16.5473 33.8294 16.3766C33.9147 16.2059 33.9947 16.0406 34.0694 15.8806L34.6774 14.5526L31.2694 6.84061H33.1894L35.5254 12.4086H35.6054L37.8614 6.84061H39.7654L35.5414 16.5686C35.4667 16.7499 35.3814 16.9419 35.2854 17.1446C35.2 17.3473 35.12 17.5286 35.0454 17.6886C34.9814 17.8593 34.9334 17.9819 34.9014 18.0566ZM45.846 15.0006V12.0566C45.622 12.2166 45.3393 12.3446 44.998 12.4406C44.6567 12.5259 44.2833 12.5686 43.878 12.5686C42.9393 12.5686 42.1873 12.2966 41.622 11.7526C41.0673 11.2086 40.79 10.4726 40.79 9.54461V6.84061H42.518V9.36861C42.518 9.88061 42.662 10.2859 42.95 10.5846C43.2487 10.8726 43.6647 11.0166 44.198 11.0166C44.518 11.0166 44.8273 10.9686 45.126 10.8726C45.4353 10.7659 45.6753 10.6273 45.846 10.4566V6.84061H47.558V15.0006H45.846ZM49.7455 15.0006V6.84061H51.4735V11.0166L51.3775 12.5526H51.4735L55.5535 6.84061H57.2655V15.0006H55.5535V10.8406L55.6495 9.30461H55.5535L51.4735 15.0006H49.7455ZM66.1108 18.0566C66.0788 18.1313 66.0414 18.2059 65.9988 18.2806C65.9668 18.3659 65.9454 18.4246 65.9348 18.4566H64.0948C64.1481 18.3393 64.2228 18.1739 64.3188 17.9606C64.4254 17.7473 64.5268 17.5339 64.6228 17.3206C64.6868 17.1819 64.7508 17.0326 64.8148 16.8726C64.8894 16.7126 64.9641 16.5473 65.0388 16.3766C65.1241 16.2059 65.2041 16.0406 65.2788 15.8806L65.8868 14.5526L62.4788 6.84061H64.3988L66.7348 12.4086H66.8148L69.0708 6.84061H70.9748L66.7508 16.5686C66.6761 16.7499 66.5908 16.9419 66.4948 17.1446C66.4094 17.3473 66.3294 17.5286 66.2548 17.6886C66.1908 17.8593 66.1428 17.9819 66.1108 18.0566ZM75.1231 15.2566C74.6858 15.2566 74.2378 15.2033 73.7791 15.0966C73.3311 14.9899 72.9151 14.8086 72.5311 14.5526C72.1471 14.2859 71.8218 13.9179 71.5551 13.4486L72.9311 12.6486C73.2298 13.0646 73.5711 13.3526 73.9551 13.5126C74.3498 13.6619 74.7391 13.7366 75.1231 13.7366C75.6778 13.7366 76.0991 13.6299 76.3871 13.4166C76.6751 13.2033 76.8191 12.9259 76.8191 12.5846C76.8191 12.2859 76.6858 12.0459 76.4191 11.8646C76.1631 11.6726 75.8005 11.5766 75.3311 11.5766H74.0031V10.2166H75.3311C75.7365 10.2166 76.0458 10.1206 76.2591 9.92861C76.4831 9.73661 76.5951 9.49128 76.5951 9.19261C76.5951 8.84061 76.4458 8.56328 76.1471 8.36061C75.8485 8.14728 75.4698 8.04061 75.0111 8.04061C74.6058 8.04061 74.2165 8.12594 73.8431 8.29661C73.4698 8.45661 73.1871 8.67528 72.9951 8.95261L71.7151 8.10461C71.9605 7.78461 72.2538 7.51261 72.5951 7.28861C72.9365 7.06461 73.3098 6.89394 73.7151 6.77661C74.1311 6.64861 74.5685 6.58461 75.0271 6.58461C75.6351 6.58461 76.1791 6.68594 76.6591 6.88861C77.1391 7.09128 77.5178 7.37394 77.7951 7.73661C78.0831 8.08861 78.2271 8.49928 78.2271 8.96861C78.2271 9.37394 78.1258 9.73661 77.9231 10.0566C77.7205 10.3766 77.4538 10.6113 77.1231 10.7606V10.8566C77.5391 11.0273 77.8751 11.2833 78.1311 11.6246C78.3871 11.9659 78.5151 12.3553 78.5151 12.7926C78.5151 13.2726 78.3711 13.6993 78.0831 14.0726C77.8058 14.4459 77.4111 14.7393 76.8991 14.9526C76.3978 15.1553 75.8058 15.2566 75.1231 15.2566Z" fill="white"/>
<g id="GPay (Dark)">
<g id="GPay">
<g id="Pay">
<path id="Fill 1" fill-rule="evenodd" clip-rule="evenodd" d="M107.356 3.42339V8.16175H110.278C110.974 8.16175 111.55 7.92781 112.005 7.45993C112.473 6.99313 112.707 6.43644 112.707 5.79203C112.707 5.16061 112.473 4.61041 112.005 4.14254C111.55 3.66274 110.974 3.4223 110.278 3.4223H107.356V3.42339ZM107.356 9.82966V15.3262H105.611V1.75549H110.24C111.417 1.75549 112.415 2.14756 113.238 2.93061C114.073 3.71365 114.491 4.66782 114.491 5.79203C114.491 6.94224 114.073 7.90291 113.238 8.67296C112.428 9.44409 111.429 9.82858 110.24 9.82858H107.356V9.82966Z" fill="white"/>
<path id="Fill 3" fill-rule="evenodd" clip-rule="evenodd" d="M116.255 12.4831C116.255 12.9379 116.448 13.317 116.834 13.6203C117.22 13.9235 117.672 14.0752 118.19 14.0752C118.924 14.0752 119.578 13.8032 120.153 13.2607C120.729 12.717 121.017 12.0791 121.017 11.3469C120.472 10.917 119.713 10.7025 118.74 10.7025C118.031 10.7025 117.44 10.8736 116.966 11.2148C116.492 11.5559 116.255 11.9773 116.255 12.4831M118.513 5.73566C119.803 5.73566 120.821 6.08007 121.569 6.76889C122.314 7.45771 122.687 8.40213 122.687 9.60216V15.3261H121.018V14.0373H120.942C120.221 15.0985 119.259 15.6294 118.058 15.6294C117.033 15.6294 116.176 15.3261 115.487 14.7196C114.797 14.1131 114.453 13.3549 114.453 12.4452C114.453 11.4845 114.816 10.7208 115.543 10.1523C116.271 9.58375 117.241 9.2989 118.456 9.2989C119.492 9.2989 120.346 9.48844 121.017 9.86751V9.46894C121.017 8.86243 120.776 8.34798 120.296 7.92451C119.814 7.50103 119.252 7.28984 118.607 7.28984C117.633 7.28984 116.862 7.70032 116.293 8.52235L114.755 7.55519C115.603 6.34217 116.855 5.73566 118.513 5.73566" fill="white"/>
<path id="Fill 5" fill-rule="evenodd" clip-rule="evenodd" d="M132.269 6.03894L126.443 19.4201H124.641L126.804 14.738L122.971 6.03894H124.869L127.639 12.7106H127.677L130.371 6.03894H132.269Z" fill="white"/>
</g>
<g id="G">
<path id="Fill 8" fill-rule="evenodd" clip-rule="evenodd" d="M100.303 8.64473C100.303 8.09563 100.256 7.56601 100.168 7.05914H92.8065V10.0625H97.0231C96.842 11.0414 96.2944 11.8744 95.4639 12.4322V14.3828H97.9804C99.4539 13.0246 100.303 11.0177 100.303 8.64473" fill="#4285F4"/>
<path id="Fill 10" fill-rule="evenodd" clip-rule="evenodd" d="M92.8065 16.2651C94.9131 16.2651 96.6869 15.5741 97.9804 14.3828L95.4639 12.4322C94.7635 12.9033 93.8614 13.1784 92.8065 13.1784C90.7703 13.1784 89.042 11.8073 88.424 9.95959H85.8316V11.9687C87.1164 14.516 89.7565 16.2651 92.8065 16.2651" fill="#34A853"/>
<path id="Fill 12" fill-rule="evenodd" clip-rule="evenodd" d="M88.424 9.9596C88.2657 9.48847 88.179 8.98593 88.179 8.46715C88.179 7.94837 88.2657 7.44583 88.424 6.9747V4.96564H85.8316C85.3003 6.01837 85 7.20756 85 8.46715C85 9.72674 85.3003 10.916 85.8316 11.9687L88.424 9.9596Z" fill="#FABB05"/>
<path id="Fill 14" fill-rule="evenodd" clip-rule="evenodd" d="M92.8065 3.75583C93.9568 3.75583 94.9879 4.15115 95.8011 4.92553V4.92661L98.0292 2.70094C96.6761 1.44243 94.912 0.669128 92.8065 0.669128C89.7565 0.669128 87.1164 2.41826 85.8316 4.9656L88.424 6.97467C89.042 5.12698 90.7703 3.75583 92.8065 3.75583" fill="#E94235"/>
</g>
</g>
</g>
</g>
</svg>
