<svg width="232" height="38" viewBox="0 0 232 38" fill="none" xmlns="http://www.w3.org/2000/svg">
<g id="sr_order_with_Light">
<path id="Text" d="M3.44613 30V9.952H6.52613V18.296H15.9061V9.952H18.9581V30H15.9061V21.208H6.52613V30H3.44613ZM27.7651 30.448C26.7384 30.448 25.8238 30.252 25.0211 29.86C24.2184 29.4493 23.5931 28.88 23.1451 28.152C22.6971 27.424 22.4731 26.5933 22.4731 25.66C22.4731 24.652 22.7344 23.7933 23.2571 23.084C23.7984 22.356 24.5171 21.8053 25.4131 21.432C26.3091 21.0587 27.2984 20.872 28.3811 20.872C29.2771 20.872 30.0611 20.956 30.7331 21.124C31.4238 21.292 31.9464 21.4693 32.3011 21.656V20.9C32.3011 19.9667 31.9651 19.22 31.2931 18.66C30.6211 18.1 29.7531 17.82 28.6891 17.82C27.9611 17.82 27.2704 17.988 26.6171 18.324C25.9638 18.6413 25.4411 19.08 25.0491 19.64L22.9771 18.044C23.5931 17.1853 24.4051 16.5133 25.4131 16.028C26.4398 15.524 27.5598 15.272 28.7731 15.272C30.8451 15.272 32.4411 15.7853 33.5611 16.812C34.6811 17.82 35.2411 19.2387 35.2411 21.068V30H32.3011V28.236H32.1331C31.7598 28.8147 31.1998 29.328 30.4531 29.776C29.7064 30.224 28.8104 30.448 27.7651 30.448ZM28.2971 27.984C29.0811 27.984 29.7718 27.7973 30.3691 27.424C30.9664 27.0507 31.4331 26.5653 31.7691 25.968C32.1238 25.352 32.3011 24.6893 32.3011 23.98C31.8718 23.7373 31.3678 23.5413 30.7891 23.392C30.2104 23.224 29.5944 23.14 28.9411 23.14C27.7091 23.14 26.8318 23.392 26.3091 23.896C25.7864 24.3813 25.5251 24.9787 25.5251 25.688C25.5251 26.36 25.7771 26.9107 26.2811 27.34C26.7851 27.7693 27.4571 27.984 28.2971 27.984ZM38.8423 36.048V15.72H41.6703V17.652H41.8383C42.2116 17.036 42.7903 16.4853 43.5743 16C44.3769 15.5147 45.3289 15.272 46.4303 15.272C47.7369 15.272 48.9036 15.5987 49.9303 16.252C50.9569 16.9053 51.7689 17.8013 52.3663 18.94C52.9823 20.0787 53.2903 21.3853 53.2903 22.86C53.2903 24.3347 52.9823 25.6507 52.3663 26.808C51.7689 27.9467 50.9569 28.8427 49.9303 29.496C48.9036 30.1307 47.7369 30.448 46.4303 30.448C45.3289 30.448 44.3769 30.2147 43.5743 29.748C42.7903 29.2627 42.2116 28.712 41.8383 28.096H41.6703L41.8383 30.084V36.048H38.8423ZM45.9823 27.676C46.7289 27.676 47.4289 27.48 48.0823 27.088C48.7356 26.696 49.2676 26.1453 49.6783 25.436C50.0889 24.708 50.2943 23.8493 50.2943 22.86C50.2943 21.8707 50.0889 21.0213 49.6783 20.312C49.2676 19.584 48.7356 19.024 48.0823 18.632C47.4289 18.24 46.7289 18.044 45.9823 18.044C45.2356 18.044 44.5356 18.24 43.8823 18.632C43.2289 19.024 42.6969 19.584 42.2863 20.312C41.8756 21.0213 41.6703 21.8707 41.6703 22.86C41.6703 23.8493 41.8756 24.708 42.2863 25.436C42.6969 26.1453 43.2289 26.696 43.8823 27.088C44.5356 27.48 45.2356 27.676 45.9823 27.676ZM60.6399 35.348C60.5839 35.4973 60.5186 35.6373 60.4439 35.768C60.3879 35.8987 60.3506 35.992 60.3319 36.048H57.1119C57.2052 35.8427 57.3359 35.544 57.5039 35.152C57.6906 34.7787 57.8679 34.4147 58.0359 34.06C58.2039 33.7053 58.3812 33.304 58.5679 32.856C58.7732 32.408 58.9786 31.9693 59.1839 31.54L60.2479 29.216L54.2839 15.72H57.6439L61.7319 25.464H61.8719L65.8199 15.72H69.1519L61.7599 32.744C61.5546 33.2293 61.3306 33.7333 61.0879 34.256C60.8639 34.7973 60.7146 35.1613 60.6399 35.348ZM79.8305 30V24.848C79.4385 25.128 78.9438 25.352 78.3465 25.52C77.7492 25.6693 77.0958 25.744 76.3865 25.744C74.7438 25.744 73.4278 25.268 72.4385 24.316C71.4678 23.364 70.9825 22.076 70.9825 20.452V15.72H74.0065V20.144C74.0065 21.04 74.2585 21.7493 74.7625 22.272C75.2852 22.776 76.0132 23.028 76.9465 23.028C77.5252 23.028 78.0665 22.944 78.5705 22.776C79.0932 22.5893 79.5132 22.3467 79.8305 22.048V15.72H82.8265V30H79.8305ZM86.6921 30V15.72H89.7161V23.028L89.5481 25.716H89.7161L96.8561 15.72H99.8521V30H96.8561V22.72L97.0241 20.032H96.8561L89.7161 30H86.6921ZM115.406 35.348C115.35 35.4973 115.285 35.6373 115.21 35.768C115.154 35.8987 115.117 35.992 115.098 36.048H111.878C111.972 35.8427 112.102 35.544 112.27 35.152C112.457 34.7787 112.634 34.4147 112.802 34.06C112.97 33.7053 113.148 33.304 113.334 32.856C113.54 32.408 113.745 31.9693 113.95 31.54L115.014 29.216L109.05 15.72H112.41L116.498 25.464H116.638L120.586 15.72H123.918L116.526 32.744C116.321 33.2293 116.097 33.7333 115.854 34.256C115.63 34.7973 115.481 35.1613 115.406 35.348ZM131.215 30.448C130.431 30.448 129.647 30.3547 128.863 30.168C128.079 29.9813 127.342 29.664 126.651 29.216C125.979 28.7493 125.419 28.1053 124.971 27.284L127.379 25.884C127.902 26.612 128.499 27.116 129.171 27.396C129.862 27.6573 130.543 27.788 131.215 27.788C132.186 27.788 132.923 27.6013 133.427 27.228C133.931 26.8547 134.183 26.3693 134.183 25.772C134.183 25.2493 133.95 24.8293 133.483 24.512C133.035 24.176 132.401 24.008 131.579 24.008H129.255V21.628H131.579C132.289 21.628 132.83 21.46 133.203 21.124C133.595 20.788 133.791 20.3587 133.791 19.836C133.791 19.22 133.53 18.7347 133.007 18.38C132.485 18.0067 131.822 17.82 131.019 17.82C130.31 17.82 129.629 17.9693 128.975 18.268C128.322 18.548 127.827 18.9307 127.491 19.416L125.251 17.932C125.905 17.1107 126.726 16.4667 127.715 16C128.723 15.5147 129.834 15.272 131.047 15.272C132.093 15.272 133.035 15.4493 133.875 15.804C134.734 16.1587 135.406 16.6533 135.891 17.288C136.395 17.904 136.647 18.6227 136.647 19.444C136.647 20.1533 136.47 20.788 136.115 21.348C135.761 21.8893 135.294 22.3 134.715 22.58V22.748C135.443 23.0467 136.031 23.4947 136.479 24.092C136.927 24.6893 137.151 25.3707 137.151 26.136C137.151 26.976 136.909 27.7227 136.423 28.376C135.938 29.0107 135.247 29.5147 134.351 29.888C133.455 30.2613 132.41 30.448 131.215 30.448Z" fill="#3C4043"/>
<g id="GPay Logo (Light)">
<g id="GPay">
<g id="Pay">
<path id="Fill 1" fill-rule="evenodd" clip-rule="evenodd" d="M188.529 9.44664V17.6128H193.565C194.765 17.6128 195.757 17.2096 196.541 16.4032C197.347 15.5988 197.75 14.6394 197.75 13.5288C197.75 12.4406 197.347 11.4924 196.541 10.686C195.757 9.85915 194.765 9.44478 193.565 9.44478H188.529V9.44664ZM188.529 20.4872V29.9599H185.521V6.57217H193.499C195.527 6.57217 197.248 7.24786 198.666 8.59737C200.105 9.94688 200.824 11.5913 200.824 13.5288C200.824 15.511 200.105 17.1667 198.666 18.4938C197.27 19.8227 195.547 20.4854 193.499 20.4854H188.529V20.4872Z" fill="#5F6368"/>
<path id="Fill 3" fill-rule="evenodd" clip-rule="evenodd" d="M203.864 25.0602C203.864 25.8442 204.197 26.4975 204.862 27.0201C205.527 27.5427 206.306 27.804 207.2 27.804C208.465 27.804 209.591 27.3354 210.584 26.4004C211.576 25.4634 212.071 24.364 212.071 23.1022C211.133 22.3612 209.825 21.9916 208.147 21.9916C206.925 21.9916 205.907 22.2865 205.09 22.8745C204.273 23.4623 203.864 24.1886 203.864 25.0602ZM207.756 13.4317C209.98 13.4317 211.735 14.0252 213.022 15.2124C214.308 16.3995 214.95 18.0271 214.95 20.0952V29.9599H212.073V27.7387H211.942C210.699 29.5677 209.042 30.4825 206.972 30.4825C205.206 30.4825 203.728 29.9599 202.541 28.9146C201.353 27.8694 200.759 26.5628 200.759 24.9949C200.759 23.3393 201.385 22.0232 202.638 21.0434C203.892 20.0635 205.565 19.5726 207.658 19.5726C209.444 19.5726 210.916 19.8992 212.071 20.5525V19.8656C212.071 18.8204 211.656 17.9338 210.829 17.204C209.999 16.4741 209.031 16.1102 207.919 16.1102C206.239 16.1102 204.911 16.8176 203.93 18.2343L201.28 16.5675C202.741 14.4769 204.899 13.4317 207.756 13.4317Z" fill="#5F6368"/>
<path id="Fill 5" fill-rule="evenodd" clip-rule="evenodd" d="M231.463 13.9543L221.424 37.0154H218.318L222.046 28.9464L215.44 13.9543H218.71L223.484 25.4522H223.55L228.193 13.9543H231.463Z" fill="#5F6368"/>
</g>
<g id="G">
<path id="Fill 8" fill-rule="evenodd" clip-rule="evenodd" d="M176.373 18.4452C176.373 17.4989 176.293 16.5861 176.141 15.7126H163.454V20.8885H170.72C170.408 22.5757 169.465 24.0112 168.033 24.9725V28.3341H172.37C174.91 25.9935 176.373 22.5348 176.373 18.4452Z" fill="#4285F4"/>
<path id="Fill 10" fill-rule="evenodd" clip-rule="evenodd" d="M163.454 31.5782C167.084 31.5782 170.141 30.3873 172.37 28.3341L168.033 24.9725C166.826 25.7844 165.272 26.2585 163.454 26.2585C159.944 26.2585 156.966 23.8955 155.901 20.7112H151.433V24.1736C153.647 28.5637 158.197 31.5782 163.454 31.5782Z" fill="#34A853"/>
<path id="Fill 12" fill-rule="evenodd" clip-rule="evenodd" d="M155.901 20.7111C155.628 19.8992 155.479 19.0331 155.479 18.139C155.479 17.245 155.628 16.3789 155.901 15.567V12.1045H151.433C150.518 13.9188 150 15.9683 150 18.139C150 20.3098 150.518 22.3595 151.433 24.1736L155.901 20.7111Z" fill="#FABB05"/>
<path id="Fill 14" fill-rule="evenodd" clip-rule="evenodd" d="M163.454 10.0196C165.436 10.0196 167.213 10.7009 168.615 12.0355V12.0374L172.455 8.20162C170.123 6.03271 167.082 4.7 163.454 4.7C158.197 4.7 153.647 7.71446 151.433 12.1046L155.901 15.567C156.966 12.3827 159.944 10.0196 163.454 10.0196Z" fill="#E94235"/>
</g>
</g>
</g>
</g>
</svg>
