<svg width="122" height="21" viewBox="0 0 122 21" fill="none" xmlns="http://www.w3.org/2000/svg">
<g id="sr_pay_with_Pay_NBG">
<path id="Left Text" d="M1.65225 15.0006V3.54461H10.2922V15.0006H8.53225V5.20861H3.41225V15.0006H1.65225ZM12.8766 15.1286C12.7593 15.1286 12.6366 15.1179 12.5086 15.0966C12.3913 15.0859 12.2793 15.0699 12.1726 15.0486V13.4486C12.2473 13.4806 12.3326 13.5073 12.4286 13.5286C12.5246 13.5499 12.6046 13.5606 12.6686 13.5606C13.0313 13.5606 13.2873 13.4219 13.4366 13.1446C13.586 12.8566 13.6766 12.4939 13.7086 12.0566C13.7406 11.6193 13.7566 11.1659 13.7566 10.6966V6.84061H19.9966V15.0006H18.2846V8.34461H15.3886V10.9686C15.3886 11.5126 15.3513 12.0353 15.2766 12.5366C15.202 13.0379 15.074 13.4859 14.8926 13.8806C14.722 14.2646 14.4713 14.5686 14.1406 14.7926C13.8206 15.0166 13.3993 15.1286 12.8766 15.1286ZM24.6617 15.2566C24.0751 15.2566 23.5524 15.1393 23.0937 14.9046C22.6457 14.6699 22.2884 14.3499 22.0217 13.9446C21.7657 13.5286 21.6377 13.0539 21.6377 12.5206C21.6377 11.9339 21.7871 11.4379 22.0857 11.0326C22.3951 10.6273 22.8057 10.3179 23.3177 10.1046C23.8297 9.89128 24.3951 9.78461 25.0137 9.78461C25.3551 9.78461 25.6697 9.81128 25.9577 9.86461C26.2564 9.90728 26.5124 9.96061 26.7257 10.0246C26.9497 10.0886 27.1257 10.1579 27.2537 10.2326V9.80061C27.2537 9.26728 27.0617 8.84061 26.6777 8.52061C26.2937 8.20061 25.7977 8.04061 25.1897 8.04061C24.7737 8.04061 24.3791 8.13661 24.0057 8.32861C23.6324 8.50994 23.3337 8.76061 23.1097 9.08061L21.9257 8.16861C22.1604 7.83794 22.4431 7.55528 22.7737 7.32061C23.1151 7.08594 23.4937 6.90461 23.9097 6.77661C24.3364 6.64861 24.7791 6.58461 25.2377 6.58461C26.4217 6.58461 27.3337 6.87794 27.9737 7.46461C28.6137 8.04061 28.9337 8.85128 28.9337 9.89661V15.0006H27.2537V13.9926H27.1577C27.0191 14.2059 26.8271 14.4086 26.5817 14.6006C26.3471 14.7926 26.0644 14.9473 25.7337 15.0646C25.4137 15.1926 25.0564 15.2566 24.6617 15.2566ZM24.9657 13.8486C25.4137 13.8486 25.8084 13.7419 26.1497 13.5286C26.5017 13.3153 26.7737 13.0379 26.9657 12.6966C27.1577 12.3446 27.2537 11.9659 27.2537 11.5606C27.0191 11.4219 26.7311 11.3099 26.3897 11.2246C26.0591 11.1286 25.7071 11.0806 25.3337 11.0806C24.6297 11.0806 24.1284 11.2193 23.8297 11.4966C23.5311 11.7739 23.3817 12.1206 23.3817 12.5366C23.3817 12.9206 23.5257 13.2353 23.8137 13.4806C24.1017 13.7259 24.4857 13.8486 24.9657 13.8486ZM32.7849 15.0006V8.34461H30.0969V6.84061H37.1849V8.34461H34.4969V15.0006H32.7849ZM38.7455 15.0006V6.84061H40.4735V11.0166L40.3775 12.5526H40.4735L44.5535 6.84061H46.2655V15.0006H44.5535V10.8406L44.6495 9.30461H44.5535L40.4735 15.0006H38.7455ZM55.1107 18.0566C55.0787 18.1313 55.0414 18.2059 54.9987 18.2806C54.9667 18.3659 54.9454 18.4246 54.9347 18.4566H53.0947C53.1481 18.3393 53.2227 18.1739 53.3187 17.9606C53.4254 17.7473 53.5267 17.5339 53.6227 17.3206C53.6867 17.1819 53.7507 17.0326 53.8147 16.8726C53.8894 16.7126 53.9641 16.5473 54.0387 16.3766C54.1241 16.2059 54.2041 16.0406 54.2787 15.8806L54.8867 14.5526L51.4787 6.84061H53.3987L55.7347 12.4086H55.8147L58.0707 6.84061H59.9747L55.7507 16.5686C55.6761 16.7499 55.5907 16.9419 55.4947 17.1446C55.4094 17.3473 55.3294 17.5286 55.2547 17.6886C55.1907 17.8593 55.1427 17.9819 55.1107 18.0566ZM64.1231 15.2566C63.6858 15.2566 63.2378 15.2033 62.7791 15.0966C62.3311 14.9899 61.9151 14.8086 61.5311 14.5526C61.1471 14.2859 60.8218 13.9179 60.5551 13.4486L61.9311 12.6486C62.2298 13.0646 62.5711 13.3526 62.9551 13.5126C63.3498 13.6619 63.7391 13.7366 64.1231 13.7366C64.6778 13.7366 65.0991 13.6299 65.3871 13.4166C65.6751 13.2033 65.8191 12.9259 65.8191 12.5846C65.8191 12.2859 65.6858 12.0459 65.4191 11.8646C65.1631 11.6726 64.8005 11.5766 64.3311 11.5766H63.0031V10.2166H64.3311C64.7365 10.2166 65.0458 10.1206 65.2591 9.92861C65.4831 9.73661 65.5951 9.49128 65.5951 9.19261C65.5951 8.84061 65.4458 8.56328 65.1471 8.36061C64.8485 8.14728 64.4698 8.04061 64.0111 8.04061C63.6058 8.04061 63.2165 8.12594 62.8431 8.29661C62.4698 8.45661 62.1871 8.67528 61.9951 8.95261L60.7151 8.10461C60.9605 7.78461 61.2538 7.51261 61.5951 7.28861C61.9365 7.06461 62.3098 6.89394 62.7151 6.77661C63.1311 6.64861 63.5685 6.58461 64.0271 6.58461C64.6351 6.58461 65.1791 6.68594 65.6591 6.88861C66.1391 7.09128 66.5178 7.37394 66.7951 7.73661C67.0831 8.08861 67.2271 8.49928 67.2271 8.96861C67.2271 9.37394 67.1258 9.73661 66.9231 10.0566C66.7205 10.3766 66.4538 10.6113 66.1231 10.7606V10.8566C66.5391 11.0273 66.8751 11.2833 67.1311 11.6246C67.3871 11.9659 67.5151 12.3553 67.5151 12.7926C67.5151 13.2726 67.3711 13.6993 67.0831 14.0726C66.8058 14.4459 66.4111 14.7393 65.8991 14.9526C65.3978 15.1553 64.8058 15.2566 64.1231 15.2566Z" fill="white"/>
<g id="GPay (Dark)">
<g id="GPay">
<g id="Pay">
<path id="Fill 1" fill-rule="evenodd" clip-rule="evenodd" d="M96.3563 3.42339V8.16175H99.2784C99.9745 8.16175 100.55 7.92781 101.005 7.45993C101.473 6.99313 101.707 6.43644 101.707 5.79203C101.707 5.16061 101.473 4.61041 101.005 4.14254C100.55 3.66274 99.9745 3.4223 99.2784 3.4223H96.3563V3.42339ZM96.3563 9.82966V15.3262H94.6107V1.75549H99.2404C100.417 1.75549 101.415 2.14756 102.238 2.93061C103.073 3.71365 103.491 4.66782 103.491 5.79203C103.491 6.94224 103.073 7.90291 102.238 8.67296C101.428 9.44409 100.429 9.82858 99.2404 9.82858H96.3563V9.82966Z" fill="white"/>
<path id="Fill 3" fill-rule="evenodd" clip-rule="evenodd" d="M105.255 12.4831C105.255 12.9379 105.448 13.317 105.834 13.6203C106.22 13.9235 106.672 14.0752 107.19 14.0752C107.924 14.0752 108.578 13.8032 109.153 13.2607C109.729 12.717 110.017 12.0791 110.017 11.3469C109.472 10.917 108.713 10.7025 107.74 10.7025C107.031 10.7025 106.44 10.8736 105.966 11.2148C105.492 11.5559 105.255 11.9773 105.255 12.4831M107.513 5.73566C108.803 5.73566 109.821 6.08007 110.569 6.76889C111.314 7.45771 111.687 8.40213 111.687 9.60216V15.3261H110.018V14.0373H109.942C109.221 15.0985 108.259 15.6294 107.058 15.6294C106.033 15.6294 105.176 15.3261 104.487 14.7196C103.797 14.1131 103.453 13.3549 103.453 12.4452C103.453 11.4845 103.816 10.7208 104.543 10.1523C105.271 9.58375 106.241 9.2989 107.456 9.2989C108.492 9.2989 109.346 9.48844 110.017 9.86751V9.46894C110.017 8.86243 109.776 8.34798 109.296 7.92451C108.814 7.50103 108.252 7.28984 107.607 7.28984C106.633 7.28984 105.862 7.70032 105.293 8.52235L103.755 7.55519C104.603 6.34217 105.855 5.73566 107.513 5.73566" fill="white"/>
<path id="Fill 5" fill-rule="evenodd" clip-rule="evenodd" d="M121.269 6.03894L115.443 19.4201H113.641L115.804 14.738L111.971 6.03894H113.869L116.639 12.7106H116.677L119.371 6.03894H121.269Z" fill="white"/>
</g>
<g id="G">
<path id="Fill 8" fill-rule="evenodd" clip-rule="evenodd" d="M89.3029 8.64473C89.3029 8.09563 89.2562 7.56601 89.1684 7.05914H81.8065V10.0625H86.0231C85.842 11.0414 85.2944 11.8744 84.4639 12.4322V14.3828H86.9804C88.4539 13.0246 89.3029 11.0177 89.3029 8.64473" fill="#4285F4"/>
<path id="Fill 10" fill-rule="evenodd" clip-rule="evenodd" d="M81.8065 16.2651C83.9131 16.2651 85.6869 15.5741 86.9804 14.3828L84.4639 12.4322C83.7635 12.9033 82.8614 13.1784 81.8065 13.1784C79.7703 13.1784 78.042 11.8073 77.424 9.95959H74.8316V11.9687C76.1164 14.516 78.7565 16.2651 81.8065 16.2651" fill="#34A853"/>
<path id="Fill 12" fill-rule="evenodd" clip-rule="evenodd" d="M77.424 9.9596C77.2657 9.48847 77.179 8.98593 77.179 8.46715C77.179 7.94837 77.2657 7.44583 77.424 6.9747V4.96564H74.8316C74.3003 6.01837 74 7.20756 74 8.46715C74 9.72674 74.3003 10.916 74.8316 11.9687L77.424 9.9596Z" fill="#FABB05"/>
<path id="Fill 14" fill-rule="evenodd" clip-rule="evenodd" d="M81.8065 3.75583C82.9568 3.75583 83.9879 4.15115 84.8011 4.92553V4.92661L87.0292 2.70094C85.6761 1.44243 83.912 0.669128 81.8065 0.669128C78.7565 0.669128 76.1164 2.41826 74.8316 4.9656L77.424 6.97467C78.042 5.12698 79.7703 3.75583 81.8065 3.75583" fill="#E94235"/>
</g>
</g>
</g>
</g>
</svg>
