<svg width="214" height="38" viewBox="0 0 214 38" fill="none" xmlns="http://www.w3.org/2000/svg">
<g id="sr_pay_with_Light">
<path id="Text" d="M3.62894 30V9.952H18.7489V30H15.6689V12.864H6.70894V30H3.62894ZM23.3091 30.224C22.8798 30.224 22.4691 30.1773 22.0771 30.084V27.284C22.3384 27.4147 22.6278 27.48 22.9451 27.48C23.5798 27.48 24.0278 27.2373 24.2891 26.752C24.5504 26.248 24.7091 25.6133 24.7651 24.848C24.8211 24.0827 24.8491 23.2893 24.8491 22.468V15.72H35.7691V30H32.7731V18.352H27.7051V22.944C27.7051 23.9147 27.6398 24.8387 27.5091 25.716C27.3971 26.5747 27.1824 27.3493 26.8651 28.04C26.5478 28.712 26.0998 29.244 25.5211 29.636C24.9611 30.028 24.2238 30.224 23.3091 30.224ZM43.9706 30.448C42.9439 30.448 42.0292 30.252 41.2266 29.86C40.4239 29.4493 39.7986 28.88 39.3506 28.152C38.9026 27.424 38.6786 26.5933 38.6786 25.66C38.6786 24.652 38.9399 23.7933 39.4626 23.084C40.0039 22.356 40.7226 21.8053 41.6186 21.432C42.5146 21.0587 43.5039 20.872 44.5866 20.872C45.4826 20.872 46.2666 20.956 46.9386 21.124C47.6292 21.292 48.1519 21.4693 48.5066 21.656V20.9C48.5066 19.9667 48.1706 19.22 47.4986 18.66C46.8266 18.1 45.9586 17.82 44.8946 17.82C44.1666 17.82 43.4759 17.988 42.8226 18.324C42.1692 18.6413 41.6466 19.08 41.2546 19.64L39.1826 18.044C39.7986 17.1853 40.6106 16.5133 41.6186 16.028C42.6452 15.524 43.7652 15.272 44.9786 15.272C47.0506 15.272 48.6466 15.7853 49.7666 16.812C50.8866 17.82 51.4466 19.2387 51.4466 21.068V30H48.5066V28.236H48.3386C47.9652 28.8147 47.4052 29.328 46.6586 29.776C45.9119 30.224 45.0159 30.448 43.9706 30.448ZM44.5026 27.984C45.2866 27.984 45.9772 27.7973 46.5746 27.424C47.1719 27.0507 47.6386 26.5653 47.9746 25.968C48.3292 25.352 48.5066 24.6893 48.5066 23.98C48.0772 23.7373 47.5732 23.5413 46.9946 23.392C46.4159 23.224 45.7999 23.14 45.1466 23.14C43.9146 23.14 43.0372 23.392 42.5146 23.896C41.9919 24.3813 41.7306 24.9787 41.7306 25.688C41.7306 26.36 41.9826 26.9107 42.4866 27.34C42.9906 27.7693 43.6626 27.984 44.5026 27.984ZM58.2235 30V18.352H53.5195V15.72H65.9235V18.352H61.2195V30H58.2235ZM68.6921 30V15.72H71.7161V23.028L71.5481 25.716H71.7161L78.8561 15.72H81.8521V30H78.8561V22.72L79.0241 20.032H78.8561L71.7161 30H68.6921ZM97.4063 35.348C97.3503 35.4973 97.285 35.6373 97.2103 35.768C97.1543 35.8987 97.117 35.992 97.0983 36.048H93.8783C93.9717 35.8427 94.1023 35.544 94.2703 35.152C94.457 34.7787 94.6343 34.4147 94.8023 34.06C94.9703 33.7053 95.1477 33.304 95.3343 32.856C95.5397 32.408 95.745 31.9693 95.9503 31.54L97.0143 29.216L91.0503 15.72H94.4103L98.4983 25.464H98.6383L102.586 15.72H105.918L98.5263 32.744C98.321 33.2293 98.097 33.7333 97.8543 34.256C97.6303 34.7973 97.481 35.1613 97.4063 35.348ZM113.215 30.448C112.431 30.448 111.647 30.3547 110.863 30.168C110.079 29.9813 109.342 29.664 108.651 29.216C107.979 28.7493 107.419 28.1053 106.971 27.284L109.379 25.884C109.902 26.612 110.499 27.116 111.171 27.396C111.862 27.6573 112.543 27.788 113.215 27.788C114.186 27.788 114.923 27.6013 115.427 27.228C115.931 26.8547 116.183 26.3693 116.183 25.772C116.183 25.2493 115.95 24.8293 115.483 24.512C115.035 24.176 114.401 24.008 113.579 24.008H111.255V21.628H113.579C114.289 21.628 114.83 21.46 115.203 21.124C115.595 20.788 115.791 20.3587 115.791 19.836C115.791 19.22 115.53 18.7347 115.007 18.38C114.485 18.0067 113.822 17.82 113.019 17.82C112.31 17.82 111.629 17.9693 110.975 18.268C110.322 18.548 109.827 18.9307 109.491 19.416L107.251 17.932C107.905 17.1107 108.726 16.4667 109.715 16C110.723 15.5147 111.834 15.272 113.047 15.272C114.093 15.272 115.035 15.4493 115.875 15.804C116.734 16.1587 117.406 16.6533 117.891 17.288C118.395 17.904 118.647 18.6227 118.647 19.444C118.647 20.1533 118.47 20.788 118.115 21.348C117.761 21.8893 117.294 22.3 116.715 22.58V22.748C117.443 23.0467 118.031 23.4947 118.479 24.092C118.927 24.6893 119.151 25.3707 119.151 26.136C119.151 26.976 118.909 27.7227 118.423 28.376C117.938 29.0107 117.247 29.5147 116.351 29.888C115.455 30.2613 114.41 30.448 113.215 30.448Z" fill="#3C4043"/>
<g id="GPay Logo (Light)">
<g id="GPay">
<g id="Pay">
<path id="Fill 1" fill-rule="evenodd" clip-rule="evenodd" d="M170.529 9.44664V17.6128H175.565C176.765 17.6128 177.757 17.2096 178.541 16.4032C179.347 15.5988 179.75 14.6394 179.75 13.5288C179.75 12.4406 179.347 11.4924 178.541 10.686C177.757 9.85915 176.765 9.44478 175.565 9.44478H170.529V9.44664ZM170.529 20.4872V29.9599H167.521V6.57217H175.499C177.527 6.57217 179.248 7.24786 180.666 8.59737C182.105 9.94688 182.824 11.5913 182.824 13.5288C182.824 15.511 182.105 17.1667 180.666 18.4938C179.27 19.8227 177.547 20.4854 175.499 20.4854H170.529V20.4872Z" fill="#5F6368"/>
<path id="Fill 3" fill-rule="evenodd" clip-rule="evenodd" d="M185.864 25.0602C185.864 25.8442 186.197 26.4975 186.862 27.0201C187.527 27.5427 188.306 27.804 189.2 27.804C190.465 27.804 191.591 27.3354 192.584 26.4004C193.576 25.4634 194.071 24.364 194.071 23.1022C193.133 22.3612 191.825 21.9916 190.147 21.9916C188.925 21.9916 187.907 22.2865 187.09 22.8745C186.273 23.4623 185.864 24.1886 185.864 25.0602ZM189.756 13.4317C191.98 13.4317 193.735 14.0252 195.022 15.2124C196.308 16.3995 196.95 18.0271 196.95 20.0952V29.9599H194.073V27.7387H193.942C192.699 29.5677 191.042 30.4825 188.972 30.4825C187.206 30.4825 185.728 29.9599 184.541 28.9146C183.353 27.8694 182.759 26.5628 182.759 24.9949C182.759 23.3393 183.385 22.0232 184.638 21.0434C185.892 20.0635 187.565 19.5726 189.658 19.5726C191.444 19.5726 192.916 19.8992 194.071 20.5525V19.8656C194.071 18.8204 193.656 17.9338 192.829 17.204C191.999 16.4741 191.031 16.1102 189.919 16.1102C188.239 16.1102 186.911 16.8176 185.93 18.2343L183.28 16.5675C184.741 14.4769 186.899 13.4317 189.756 13.4317Z" fill="#5F6368"/>
<path id="Fill 5" fill-rule="evenodd" clip-rule="evenodd" d="M213.463 13.9543L203.424 37.0154H200.318L204.046 28.9464L197.44 13.9543H200.71L205.484 25.4522H205.55L210.193 13.9543H213.463Z" fill="#5F6368"/>
</g>
<g id="G">
<path id="Fill 8" fill-rule="evenodd" clip-rule="evenodd" d="M158.373 18.4452C158.373 17.4989 158.293 16.5861 158.141 15.7126H145.454V20.8885H152.72C152.408 22.5757 151.465 24.0112 150.033 24.9725V28.3341H154.37C156.91 25.9935 158.373 22.5348 158.373 18.4452Z" fill="#4285F4"/>
<path id="Fill 10" fill-rule="evenodd" clip-rule="evenodd" d="M145.454 31.5782C149.084 31.5782 152.141 30.3873 154.37 28.3341L150.033 24.9725C148.826 25.7844 147.272 26.2585 145.454 26.2585C141.944 26.2585 138.966 23.8955 137.901 20.7112H133.433V24.1736C135.647 28.5637 140.197 31.5782 145.454 31.5782Z" fill="#34A853"/>
<path id="Fill 12" fill-rule="evenodd" clip-rule="evenodd" d="M137.901 20.7111C137.628 19.8992 137.479 19.0331 137.479 18.139C137.479 17.245 137.628 16.3789 137.901 15.567V12.1045H133.433C132.518 13.9188 132 15.9683 132 18.139C132 20.3098 132.518 22.3595 133.433 24.1736L137.901 20.7111Z" fill="#FABB05"/>
<path id="Fill 14" fill-rule="evenodd" clip-rule="evenodd" d="M145.454 10.0196C147.436 10.0196 149.213 10.7009 150.615 12.0355V12.0374L154.455 8.20162C152.123 6.03271 149.082 4.7 145.454 4.7C140.197 4.7 135.647 7.71446 133.433 12.1046L137.901 15.567C138.966 12.3827 141.944 10.0196 145.454 10.0196Z" fill="#E94235"/>
</g>
</g>
</g>
</g>
</svg>
