<svg width="316" height="38" viewBox="0 0 316 38" fill="none" xmlns="http://www.w3.org/2000/svg">
<g id="sr_subscribe_with_Dark">
<path id="Text" d="M2.52113 30V9.952H17.6411V30H14.5611V12.864H5.60113V30H2.52113ZM21.9493 36.048V15.72H24.7773V17.652H24.9453C25.3186 17.036 25.8973 16.4853 26.6813 16C27.484 15.5147 28.436 15.272 29.5373 15.272C30.844 15.272 32.0106 15.5987 33.0373 16.252C34.064 16.9053 34.876 17.8013 35.4733 18.94C36.0893 20.0787 36.3973 21.3853 36.3973 22.86C36.3973 24.3347 36.0893 25.6507 35.4733 26.808C34.876 27.9467 34.064 28.8427 33.0373 29.496C32.0106 30.1307 30.844 30.448 29.5373 30.448C28.436 30.448 27.484 30.2147 26.6813 29.748C25.8973 29.2627 25.3186 28.712 24.9453 28.096H24.7773L24.9453 30.084V36.048H21.9493ZM29.0893 27.676C29.836 27.676 30.536 27.48 31.1893 27.088C31.8426 26.696 32.3746 26.1453 32.7853 25.436C33.196 24.708 33.4013 23.8493 33.4013 22.86C33.4013 21.8707 33.196 21.0213 32.7853 20.312C32.3746 19.584 31.8426 19.024 31.1893 18.632C30.536 18.24 29.836 18.044 29.0893 18.044C28.3426 18.044 27.6426 18.24 26.9893 18.632C26.336 19.024 25.804 19.584 25.3933 20.312C24.9826 21.0213 24.7773 21.8707 24.7773 22.86C24.7773 23.8493 24.9826 24.708 25.3933 25.436C25.804 26.1453 26.336 26.696 26.9893 27.088C27.6426 27.48 28.3426 27.676 29.0893 27.676ZM45.9458 30.448C44.5458 30.448 43.2951 30.1213 42.1938 29.468C41.0925 28.8147 40.2245 27.9187 39.5898 26.78C38.9738 25.6413 38.6658 24.344 38.6658 22.888C38.6658 21.5253 38.9645 20.2653 39.5618 19.108C40.1591 17.9507 40.9898 17.0267 42.0538 16.336C43.1365 15.6267 44.3778 15.272 45.7778 15.272C47.2525 15.272 48.5031 15.5893 49.5298 16.224C50.5751 16.8587 51.3685 17.7267 51.9098 18.828C52.4511 19.9293 52.7218 21.1707 52.7218 22.552C52.7218 22.7573 52.7125 22.944 52.6938 23.112C52.6938 23.28 52.6845 23.4107 52.6658 23.504H41.6338C41.7831 24.9227 42.2778 25.9867 43.1178 26.696C43.9765 27.4053 44.9471 27.76 46.0298 27.76C47.0005 27.76 47.8031 27.5453 48.4378 27.116C49.0725 26.668 49.5765 26.1173 49.9498 25.464L52.4418 26.668C51.8258 27.788 50.9858 28.7027 49.9218 29.412C48.8578 30.1027 47.5325 30.448 45.9458 30.448ZM45.8058 17.848C44.7978 17.848 43.9391 18.156 43.2298 18.772C42.5205 19.388 42.0445 20.2093 41.8018 21.236H49.7258C49.6885 20.7507 49.5298 20.2467 49.2498 19.724C48.9698 19.2013 48.5405 18.7627 47.9618 18.408C47.4018 18.0347 46.6831 17.848 45.8058 17.848ZM59.1938 30V18.352H54.4898V15.72H66.8938V18.352H62.1898V30H59.1938ZM69.6624 30V15.72H82.2064V30H79.1824V18.352H72.6864V30H69.6624ZM86.2646 30.224C85.8352 30.224 85.4246 30.1773 85.0326 30.084V27.284C85.2939 27.4147 85.5832 27.48 85.9006 27.48C86.5352 27.48 86.9832 27.2373 87.2446 26.752C87.5059 26.248 87.6646 25.6133 87.7206 24.848C87.7766 24.0827 87.8046 23.2893 87.8046 22.468V15.72H98.7246V30H95.7286V18.352H90.6606V22.944C90.6606 23.9147 90.5952 24.8387 90.4646 25.716C90.3526 26.5747 90.1379 27.3493 89.8206 28.04C89.5032 28.712 89.0552 29.244 88.4766 29.636C87.9166 30.028 87.1792 30.224 86.2646 30.224ZM106.926 30.448C105.899 30.448 104.985 30.252 104.182 29.86C103.379 29.4493 102.754 28.88 102.306 28.152C101.858 27.424 101.634 26.5933 101.634 25.66C101.634 24.652 101.895 23.7933 102.418 23.084C102.959 22.356 103.678 21.8053 104.574 21.432C105.47 21.0587 106.459 20.872 107.542 20.872C108.438 20.872 109.222 20.956 109.894 21.124C110.585 21.292 111.107 21.4693 111.462 21.656V20.9C111.462 19.9667 111.126 19.22 110.454 18.66C109.782 18.1 108.914 17.82 107.85 17.82C107.122 17.82 106.431 17.988 105.778 18.324C105.125 18.6413 104.602 19.08 104.21 19.64L102.138 18.044C102.754 17.1853 103.566 16.5133 104.574 16.028C105.601 15.524 106.721 15.272 107.934 15.272C110.006 15.272 111.602 15.7853 112.722 16.812C113.842 17.82 114.402 19.2387 114.402 21.068V30H111.462V28.236H111.294C110.921 28.8147 110.361 29.328 109.614 29.776C108.867 30.224 107.971 30.448 106.926 30.448ZM107.458 27.984C108.242 27.984 108.933 27.7973 109.53 27.424C110.127 27.0507 110.594 26.5653 110.93 25.968C111.285 25.352 111.462 24.6893 111.462 23.98C111.033 23.7373 110.529 23.5413 109.95 23.392C109.371 23.224 108.755 23.14 108.102 23.14C106.87 23.14 105.993 23.392 105.47 23.896C104.947 24.3813 104.686 24.9787 104.686 25.688C104.686 26.36 104.938 26.9107 105.442 27.34C105.946 27.7693 106.618 27.984 107.458 27.984ZM121.179 30V18.352H116.475V15.72H128.879V18.352H124.175V30H121.179ZM131.648 30V15.72H134.672V23.028L134.504 25.716H134.672L141.812 15.72H144.808V30H141.812V22.72L141.98 20.032H141.812L134.672 30H131.648ZM162.098 30.448C160.66 30.448 159.391 30.1213 158.29 29.468C157.188 28.8147 156.32 27.9187 155.686 26.78C155.051 25.6227 154.734 24.316 154.734 22.86C154.734 21.404 155.051 20.1067 155.686 18.968C156.32 17.8107 157.188 16.9053 158.29 16.252C159.391 15.5987 160.66 15.272 162.098 15.272C163.684 15.272 165.019 15.6267 166.102 16.336C167.203 17.0453 167.987 18.0067 168.454 19.22L165.71 20.34C165.056 18.8093 163.834 18.044 162.042 18.044C161.258 18.044 160.539 18.2493 159.886 18.66C159.232 19.052 158.71 19.612 158.318 20.34C157.926 21.0493 157.73 21.8893 157.73 22.86C157.73 23.8307 157.926 24.68 158.318 25.408C158.71 26.136 159.232 26.696 159.886 27.088C160.539 27.48 161.258 27.676 162.042 27.676C162.956 27.676 163.731 27.4707 164.366 27.06C165 26.6307 165.495 26.052 165.85 25.324L168.538 26.5C168.034 27.6387 167.231 28.5813 166.13 29.328C165.028 30.0747 163.684 30.448 162.098 30.448ZM177.818 30.448C176.418 30.448 175.167 30.1213 174.066 29.468C172.964 28.8147 172.096 27.9187 171.462 26.78C170.846 25.6413 170.538 24.344 170.538 22.888C170.538 21.5253 170.836 20.2653 171.434 19.108C172.031 17.9507 172.862 17.0267 173.926 16.336C175.008 15.6267 176.25 15.272 177.65 15.272C179.124 15.272 180.375 15.5893 181.402 16.224C182.447 16.8587 183.24 17.7267 183.782 18.828C184.323 19.9293 184.594 21.1707 184.594 22.552C184.594 22.7573 184.584 22.944 184.566 23.112C184.566 23.28 184.556 23.4107 184.538 23.504H173.506C173.655 24.9227 174.15 25.9867 174.99 26.696C175.848 27.4053 176.819 27.76 177.902 27.76C178.872 27.76 179.675 27.5453 180.31 27.116C180.944 26.668 181.448 26.1173 181.822 25.464L184.314 26.668C183.698 27.788 182.858 28.7027 181.794 29.412C180.73 30.1027 179.404 30.448 177.818 30.448ZM177.678 17.848C176.67 17.848 175.811 18.156 175.102 18.772C174.392 19.388 173.916 20.2093 173.674 21.236H181.598C181.56 20.7507 181.402 20.2467 181.122 19.724C180.842 19.2013 180.412 18.7627 179.834 18.408C179.274 18.0347 178.555 17.848 177.678 17.848ZM199.406 35.348C199.35 35.4973 199.285 35.6373 199.21 35.768C199.154 35.8987 199.117 35.992 199.098 36.048H195.878C195.972 35.8427 196.102 35.544 196.27 35.152C196.457 34.7787 196.634 34.4147 196.802 34.06C196.97 33.7053 197.148 33.304 197.334 32.856C197.54 32.408 197.745 31.9693 197.95 31.54L199.014 29.216L193.05 15.72H196.41L200.498 25.464H200.638L204.586 15.72H207.918L200.526 32.744C200.321 33.2293 200.097 33.7333 199.854 34.256C199.63 34.7973 199.481 35.1613 199.406 35.348ZM215.215 30.448C214.431 30.448 213.647 30.3547 212.863 30.168C212.079 29.9813 211.342 29.664 210.651 29.216C209.979 28.7493 209.419 28.1053 208.971 27.284L211.379 25.884C211.902 26.612 212.499 27.116 213.171 27.396C213.862 27.6573 214.543 27.788 215.215 27.788C216.186 27.788 216.923 27.6013 217.427 27.228C217.931 26.8547 218.183 26.3693 218.183 25.772C218.183 25.2493 217.95 24.8293 217.483 24.512C217.035 24.176 216.401 24.008 215.579 24.008H213.255V21.628H215.579C216.289 21.628 216.83 21.46 217.203 21.124C217.595 20.788 217.791 20.3587 217.791 19.836C217.791 19.22 217.53 18.7347 217.007 18.38C216.485 18.0067 215.822 17.82 215.019 17.82C214.31 17.82 213.629 17.9693 212.975 18.268C212.322 18.548 211.827 18.9307 211.491 19.416L209.251 17.932C209.905 17.1107 210.726 16.4667 211.715 16C212.723 15.5147 213.834 15.272 215.047 15.272C216.093 15.272 217.035 15.4493 217.875 15.804C218.734 16.1587 219.406 16.6533 219.891 17.288C220.395 17.904 220.647 18.6227 220.647 19.444C220.647 20.1533 220.47 20.788 220.115 21.348C219.761 21.8893 219.294 22.3 218.715 22.58V22.748C219.443 23.0467 220.031 23.4947 220.479 24.092C220.927 24.6893 221.151 25.3707 221.151 26.136C221.151 26.976 220.909 27.7227 220.423 28.376C219.938 29.0107 219.247 29.5147 218.351 29.888C217.455 30.2613 216.41 30.448 215.215 30.448Z" fill="white"/>
<g id="GPay Logo (Dark)">
<g id="GPay">
<g id="Pay">
<path id="Fill 1" fill-rule="evenodd" clip-rule="evenodd" d="M272.529 9.34665V17.5128H277.565C278.765 17.5128 279.757 17.1096 280.541 16.3032C281.347 15.4988 281.75 14.5394 281.75 13.4288C281.75 12.3406 281.347 11.3924 280.541 10.586C279.757 9.75916 278.765 9.34479 277.565 9.34479H272.529V9.34665ZM272.529 20.3872V29.8599H269.521V6.47218H277.499C279.527 6.47218 281.248 7.14787 282.666 8.49738C284.105 9.84688 284.824 11.4913 284.824 13.4288C284.824 15.411 284.105 17.0667 282.666 18.3938C281.27 19.7227 279.547 20.3854 277.499 20.3854H272.529V20.3872Z" fill="white"/>
<path id="Fill 3" fill-rule="evenodd" clip-rule="evenodd" d="M287.864 24.9602C287.864 25.7442 288.197 26.3975 288.862 26.9201C289.527 27.4427 290.306 27.704 291.2 27.704C292.465 27.704 293.591 27.2354 294.584 26.3004C295.576 25.3634 296.071 24.264 296.071 23.0022C295.133 22.2612 293.825 21.8916 292.147 21.8916C290.925 21.8916 289.907 22.1866 289.09 22.7745C288.273 23.3623 287.864 24.0886 287.864 24.9602ZM291.756 13.3317C293.98 13.3317 295.735 13.9253 297.022 15.1124C298.308 16.2995 298.95 17.9271 298.95 19.9952V29.8599H296.073V27.6387H295.942C294.699 29.4677 293.042 30.3825 290.972 30.3825C289.206 30.3825 287.728 29.8599 286.541 28.8146C285.353 27.7694 284.759 26.4628 284.759 24.8949C284.759 23.2393 285.385 21.9232 286.638 20.9434C287.892 19.9635 289.565 19.4726 291.658 19.4726C293.444 19.4726 294.916 19.7993 296.071 20.4525V19.7657C296.071 18.7204 295.656 17.8338 294.829 17.104C293.999 16.3742 293.031 16.0102 291.919 16.0102C290.239 16.0102 288.911 16.7176 287.93 18.1343L285.28 16.4675C286.741 14.377 288.899 13.3317 291.756 13.3317Z" fill="white"/>
<path id="Fill 5" fill-rule="evenodd" clip-rule="evenodd" d="M315.463 13.8543L305.424 36.9154H302.318L306.046 28.8464L299.44 13.8543H302.71L307.484 25.3522H307.55L312.193 13.8543H315.463Z" fill="white"/>
</g>
<g id="G">
<path id="Fill 8" fill-rule="evenodd" clip-rule="evenodd" d="M260.373 18.3452C260.373 17.3989 260.293 16.4861 260.141 15.6126H247.454V20.7885H254.72C254.408 22.4757 253.465 23.9112 252.033 24.8725V28.2341H256.37C258.91 25.8935 260.373 22.4348 260.373 18.3452Z" fill="#4285F4"/>
<path id="Fill 10" fill-rule="evenodd" clip-rule="evenodd" d="M247.454 31.4782C251.084 31.4782 254.141 30.2873 256.37 28.2341L252.033 24.8725C250.826 25.6844 249.272 26.1585 247.454 26.1585C243.944 26.1585 240.966 23.7955 239.901 20.6112H235.433V24.0736C237.647 28.4637 242.197 31.4782 247.454 31.4782Z" fill="#34A853"/>
<path id="Fill 12" fill-rule="evenodd" clip-rule="evenodd" d="M239.901 20.6111C239.628 19.7992 239.479 18.9331 239.479 18.0391C239.479 17.145 239.628 16.2789 239.901 15.467V12.0045H235.433C234.518 13.8188 234 15.8683 234 18.0391C234 20.2098 234.518 22.2595 235.433 24.0736L239.901 20.6111Z" fill="#FABB05"/>
<path id="Fill 14" fill-rule="evenodd" clip-rule="evenodd" d="M247.454 9.91964C249.436 9.91964 251.213 10.6009 252.615 11.9355V11.9374L256.455 8.10163C254.123 5.93272 251.082 4.60001 247.454 4.60001C242.197 4.60001 237.647 7.61447 235.433 12.0046L239.901 15.467C240.966 12.2827 243.944 9.91964 247.454 9.91964Z" fill="#E94235"/>
</g>
</g>
</g>
</g>
</svg>
