<svg width="158" height="21" viewBox="0 0 158 21" fill="none" xmlns="http://www.w3.org/2000/svg">
<g id="sr_subscribe_with_Pay_NBG">
<path id="Left Text" d="M1.94287 15.0006V3.54461H10.5829V15.0006H8.82287V5.20861H3.70287V15.0006H1.94287ZM13.0232 18.4566V6.84061H14.6392V7.94461H14.7352C14.8846 7.70994 15.0819 7.49128 15.3272 7.28861C15.5832 7.07528 15.8819 6.90461 16.2232 6.77661C16.5646 6.64861 16.9432 6.58461 17.3592 6.58461C18.1059 6.58461 18.7726 6.77128 19.3592 7.14461C19.9459 7.51794 20.4099 8.02994 20.7512 8.68061C21.1032 9.33128 21.2792 10.0779 21.2792 10.9206C21.2792 11.7633 21.1032 12.5099 20.7512 13.1606C20.4099 13.8113 19.9459 14.3233 19.3592 14.6966C18.7726 15.0699 18.1059 15.2566 17.3592 15.2566C16.7406 15.2566 16.2019 15.1179 15.7432 14.8406C15.2846 14.5633 14.9486 14.2539 14.7352 13.9126H14.6392L14.7352 15.0486V18.4566H13.0232ZM17.1032 13.6726C17.5299 13.6726 17.9299 13.5606 18.3032 13.3366C18.6872 13.1126 18.9912 12.7926 19.2152 12.3766C19.4499 11.9606 19.5672 11.4753 19.5672 10.9206C19.5672 10.3553 19.4499 9.86994 19.2152 9.46461C18.9912 9.04861 18.6872 8.72861 18.3032 8.50461C17.9299 8.28061 17.5299 8.16861 17.1032 8.16861C16.6766 8.16861 16.2766 8.28061 15.9032 8.50461C15.5299 8.72861 15.2259 9.04861 14.9912 9.46461C14.7566 9.86994 14.6392 10.3553 14.6392 10.9206C14.6392 11.4859 14.7566 11.9766 14.9912 12.3926C15.2259 12.7979 15.5299 13.1126 15.9032 13.3366C16.2766 13.5606 16.6766 13.6726 17.1032 13.6726ZM26.7141 15.2566C25.9141 15.2566 25.1995 15.0699 24.5701 14.6966C23.9408 14.3233 23.4448 13.8113 23.0821 13.1606C22.7301 12.5099 22.5541 11.7686 22.5541 10.9366C22.5541 10.1579 22.7248 9.43794 23.0661 8.77661C23.4075 8.11528 23.8821 7.58728 24.4901 7.19261C25.1088 6.78728 25.8181 6.58461 26.6181 6.58461C27.4608 6.58461 28.1755 6.76594 28.7621 7.12861C29.3595 7.49128 29.8128 7.98728 30.1221 8.61661C30.4315 9.24594 30.5861 9.95528 30.5861 10.7446C30.5861 10.8619 30.5808 10.9686 30.5701 11.0646C30.5701 11.1606 30.5648 11.2353 30.5541 11.2886H24.2501C24.2928 11.7366 24.4048 12.1259 24.5861 12.4566C24.8208 12.8726 25.1301 13.1873 25.5141 13.4006C25.8981 13.6139 26.3141 13.7206 26.7621 13.7206C27.3061 13.7206 27.7595 13.5979 28.1221 13.3526C28.4955 13.0966 28.7888 12.7819 29.0021 12.4086L30.4261 13.0966C30.0741 13.7366 29.5941 14.2593 28.9861 14.6646C28.3781 15.0593 27.6208 15.2566 26.7141 15.2566ZM24.3461 9.99261H28.8741C28.8635 9.78994 28.8101 9.57661 28.7141 9.35261C28.6181 9.11794 28.4795 8.90461 28.2981 8.71261C28.1168 8.52061 27.8875 8.36594 27.6101 8.24861C27.3328 8.12061 27.0075 8.05661 26.6341 8.05661C26.1648 8.05661 25.7488 8.17928 25.3861 8.42461C25.0235 8.65928 24.7408 8.98994 24.5381 9.41661C24.4528 9.59794 24.3888 9.78994 24.3461 9.99261ZM34.263 15.0006V8.34461H31.575V6.84061H38.663V8.34461H35.975V15.0006H34.263ZM40.2236 15.0006V6.84061H47.3916V15.0006H45.6636V8.34461H41.9516V15.0006H40.2236ZM49.6891 15.1286C49.5718 15.1286 49.4491 15.1179 49.3211 15.0966C49.2038 15.0859 49.0918 15.0699 48.9851 15.0486V13.4486C49.0598 13.4806 49.1451 13.5073 49.2411 13.5286C49.3371 13.5499 49.4171 13.5606 49.4811 13.5606C49.8438 13.5606 50.0998 13.4219 50.2491 13.1446C50.3985 12.8566 50.4891 12.4939 50.5211 12.0566C50.5531 11.6193 50.5691 11.1659 50.5691 10.6966V6.84061H56.8091V15.0006H55.0971V8.34461H52.2011V10.9686C52.2011 11.5126 52.1638 12.0353 52.0891 12.5366C52.0145 13.0379 51.8865 13.4859 51.7051 13.8806C51.5345 14.2646 51.2838 14.5686 50.9531 14.7926C50.6331 15.0166 50.2118 15.1286 49.6891 15.1286ZM61.4743 15.2566C60.8876 15.2566 60.3649 15.1393 59.9062 14.9046C59.4583 14.6699 59.1009 14.3499 58.8343 13.9446C58.5783 13.5286 58.4503 13.0539 58.4503 12.5206C58.4503 11.9339 58.5996 11.4379 58.8983 11.0326C59.2076 10.6273 59.6183 10.3179 60.1303 10.1046C60.6423 9.89128 61.2076 9.78461 61.8263 9.78461C62.1676 9.78461 62.4823 9.81128 62.7703 9.86461C63.0689 9.90728 63.3249 9.96061 63.5383 10.0246C63.7623 10.0886 63.9383 10.1579 64.0663 10.2326V9.80061C64.0663 9.26728 63.8743 8.84061 63.4903 8.52061C63.1063 8.20061 62.6103 8.04061 62.0023 8.04061C61.5863 8.04061 61.1916 8.13661 60.8183 8.32861C60.4449 8.50994 60.1463 8.76061 59.9223 9.08061L58.7383 8.16861C58.9729 7.83794 59.2556 7.55528 59.5863 7.32061C59.9276 7.08594 60.3063 6.90461 60.7223 6.77661C61.1489 6.64861 61.5916 6.58461 62.0503 6.58461C63.2343 6.58461 64.1463 6.87794 64.7863 7.46461C65.4263 8.04061 65.7463 8.85128 65.7463 9.89661V15.0006H64.0663V13.9926H63.9703C63.8316 14.2059 63.6396 14.4086 63.3943 14.6006C63.1596 14.7926 62.8769 14.9473 62.5463 15.0646C62.2263 15.1926 61.8689 15.2566 61.4743 15.2566ZM61.7783 13.8486C62.2263 13.8486 62.6209 13.7419 62.9623 13.5286C63.3143 13.3153 63.5863 13.0379 63.7783 12.6966C63.9703 12.3446 64.0663 11.9659 64.0663 11.5606C63.8316 11.4219 63.5436 11.3099 63.2023 11.2246C62.8716 11.1286 62.5196 11.0806 62.1463 11.0806C61.4423 11.0806 60.9409 11.2193 60.6423 11.4966C60.3436 11.7739 60.1943 12.1206 60.1943 12.5366C60.1943 12.9206 60.3383 13.2353 60.6263 13.4806C60.9143 13.7259 61.2983 13.8486 61.7783 13.8486ZM69.5974 15.0006V8.34461H66.9094V6.84061H73.9974V8.34461H71.3094V15.0006H69.5974ZM78.118 15.2566C77.5313 15.2566 77.0087 15.1393 76.55 14.9046C76.102 14.6699 75.7447 14.3499 75.478 13.9446C75.222 13.5286 75.094 13.0539 75.094 12.5206C75.094 11.9339 75.2433 11.4379 75.542 11.0326C75.8513 10.6273 76.262 10.3179 76.774 10.1046C77.286 9.89128 77.8513 9.78461 78.47 9.78461C78.8113 9.78461 79.126 9.81128 79.414 9.86461C79.7127 9.90728 79.9687 9.96061 80.182 10.0246C80.406 10.0886 80.582 10.1579 80.71 10.2326V9.80061C80.71 9.26728 80.518 8.84061 80.134 8.52061C79.75 8.20061 79.254 8.04061 78.646 8.04061C78.23 8.04061 77.8353 8.13661 77.462 8.32861C77.0887 8.50994 76.79 8.76061 76.566 9.08061L75.382 8.16861C75.6167 7.83794 75.8993 7.55528 76.23 7.32061C76.5713 7.08594 76.95 6.90461 77.366 6.77661C77.7927 6.64861 78.2353 6.58461 78.694 6.58461C79.878 6.58461 80.79 6.87794 81.43 7.46461C82.07 8.04061 82.39 8.85128 82.39 9.89661V15.0006H80.71V13.9926H80.614C80.4753 14.2059 80.2833 14.4086 80.038 14.6006C79.8033 14.7926 79.5207 14.9473 79.19 15.0646C78.87 15.1926 78.5127 15.2566 78.118 15.2566ZM78.422 13.8486C78.87 13.8486 79.2647 13.7419 79.606 13.5286C79.958 13.3153 80.23 13.0379 80.422 12.6966C80.614 12.3446 80.71 11.9659 80.71 11.5606C80.4753 11.4219 80.1873 11.3099 79.846 11.2246C79.5153 11.1286 79.1633 11.0806 78.79 11.0806C78.086 11.0806 77.5847 11.2193 77.286 11.4966C76.9873 11.7739 76.838 12.1206 76.838 12.5366C76.838 12.9206 76.982 13.2353 77.27 13.4806C77.558 13.7259 77.942 13.8486 78.422 13.8486ZM91.1107 18.0566C91.0787 18.1313 91.0414 18.2059 90.9987 18.2806C90.9667 18.3659 90.9454 18.4246 90.9347 18.4566H89.0947C89.1481 18.3393 89.2227 18.1739 89.3187 17.9606C89.4254 17.7473 89.5267 17.5339 89.6227 17.3206C89.6867 17.1819 89.7507 17.0326 89.8147 16.8726C89.8894 16.7126 89.9641 16.5473 90.0387 16.3766C90.1241 16.2059 90.2041 16.0406 90.2787 15.8806L90.8867 14.5526L87.4787 6.84061H89.3987L91.7347 12.4086H91.8147L94.0707 6.84061H95.9747L91.7507 16.5686C91.6761 16.7499 91.5907 16.9419 91.4947 17.1446C91.4094 17.3473 91.3294 17.5286 91.2547 17.6886C91.1907 17.8593 91.1427 17.9819 91.1107 18.0566ZM100.123 15.2566C99.6858 15.2566 99.2378 15.2033 98.7791 15.0966C98.3311 14.9899 97.9151 14.8086 97.5311 14.5526C97.1471 14.2859 96.8218 13.9179 96.5551 13.4486L97.9311 12.6486C98.2298 13.0646 98.5711 13.3526 98.9551 13.5126C99.3498 13.6619 99.7391 13.7366 100.123 13.7366C100.678 13.7366 101.099 13.6299 101.387 13.4166C101.675 13.2033 101.819 12.9259 101.819 12.5846C101.819 12.2859 101.686 12.0459 101.419 11.8646C101.163 11.6726 100.8 11.5766 100.331 11.5766H99.0031V10.2166H100.331C100.736 10.2166 101.046 10.1206 101.259 9.92861C101.483 9.73661 101.595 9.49128 101.595 9.19261C101.595 8.84061 101.446 8.56328 101.147 8.36061C100.848 8.14728 100.47 8.04061 100.011 8.04061C99.6058 8.04061 99.2165 8.12594 98.8431 8.29661C98.4698 8.45661 98.1871 8.67528 97.9951 8.95261L96.7151 8.10461C96.9605 7.78461 97.2538 7.51261 97.5951 7.28861C97.9365 7.06461 98.3098 6.89394 98.7151 6.77661C99.1311 6.64861 99.5685 6.58461 100.027 6.58461C100.635 6.58461 101.179 6.68594 101.659 6.88861C102.139 7.09128 102.518 7.37394 102.795 7.73661C103.083 8.08861 103.227 8.49928 103.227 8.96861C103.227 9.37394 103.126 9.73661 102.923 10.0566C102.72 10.3766 102.454 10.6113 102.123 10.7606V10.8566C102.539 11.0273 102.875 11.2833 103.131 11.6246C103.387 11.9659 103.515 12.3553 103.515 12.7926C103.515 13.2726 103.371 13.6993 103.083 14.0726C102.806 14.4459 102.411 14.7393 101.899 14.9526C101.398 15.1553 100.806 15.2566 100.123 15.2566Z" fill="white"/>
<g id="GPay (Dark)">
<g id="GPay">
<g id="Pay">
<path id="Fill 1" fill-rule="evenodd" clip-rule="evenodd" d="M132.356 3.42339V8.16175H135.278C135.974 8.16175 136.55 7.92781 137.005 7.45993C137.473 6.99313 137.707 6.43644 137.707 5.79203C137.707 5.16061 137.473 4.61041 137.005 4.14254C136.55 3.66274 135.974 3.4223 135.278 3.4223H132.356V3.42339ZM132.356 9.82966V15.3262H130.611V1.75549H135.24C136.417 1.75549 137.415 2.14756 138.238 2.93061C139.073 3.71365 139.491 4.66782 139.491 5.79203C139.491 6.94224 139.073 7.90291 138.238 8.67296C137.428 9.44409 136.429 9.82858 135.24 9.82858H132.356V9.82966Z" fill="white"/>
<path id="Fill 3" fill-rule="evenodd" clip-rule="evenodd" d="M141.255 12.4831C141.255 12.9379 141.448 13.317 141.834 13.6203C142.22 13.9235 142.672 14.0752 143.19 14.0752C143.924 14.0752 144.578 13.8032 145.153 13.2607C145.729 12.717 146.017 12.0791 146.017 11.3469C145.472 10.917 144.713 10.7025 143.74 10.7025C143.031 10.7025 142.44 10.8736 141.966 11.2148C141.492 11.5559 141.255 11.9773 141.255 12.4831M143.513 5.73566C144.803 5.73566 145.821 6.08007 146.569 6.76889C147.314 7.45771 147.687 8.40213 147.687 9.60216V15.3261H146.018V14.0373H145.942C145.221 15.0985 144.259 15.6294 143.058 15.6294C142.033 15.6294 141.176 15.3261 140.487 14.7196C139.797 14.1131 139.453 13.3549 139.453 12.4452C139.453 11.4845 139.816 10.7208 140.543 10.1523C141.271 9.58375 142.241 9.2989 143.456 9.2989C144.492 9.2989 145.346 9.48844 146.017 9.86751V9.46894C146.017 8.86243 145.776 8.34798 145.296 7.92451C144.814 7.50103 144.252 7.28984 143.607 7.28984C142.633 7.28984 141.862 7.70032 141.293 8.52235L139.755 7.55519C140.603 6.34217 141.855 5.73566 143.513 5.73566" fill="white"/>
<path id="Fill 5" fill-rule="evenodd" clip-rule="evenodd" d="M157.269 6.03894L151.443 19.4201H149.641L151.804 14.738L147.971 6.03894H149.869L152.639 12.7106H152.677L155.371 6.03894H157.269Z" fill="white"/>
</g>
<g id="G">
<path id="Fill 8" fill-rule="evenodd" clip-rule="evenodd" d="M125.303 8.64473C125.303 8.09563 125.256 7.56601 125.168 7.05914H117.806V10.0625H122.023C121.842 11.0414 121.294 11.8744 120.464 12.4322V14.3828H122.98C124.454 13.0246 125.303 11.0177 125.303 8.64473" fill="#4285F4"/>
<path id="Fill 10" fill-rule="evenodd" clip-rule="evenodd" d="M117.806 16.2651C119.913 16.2651 121.687 15.5741 122.98 14.3828L120.464 12.4322C119.763 12.9033 118.861 13.1784 117.806 13.1784C115.77 13.1784 114.042 11.8073 113.424 9.95959H110.832V11.9687C112.116 14.516 114.757 16.2651 117.806 16.2651" fill="#34A853"/>
<path id="Fill 12" fill-rule="evenodd" clip-rule="evenodd" d="M113.424 9.9596C113.266 9.48847 113.179 8.98593 113.179 8.46715C113.179 7.94837 113.266 7.44583 113.424 6.9747V4.96564H110.832C110.3 6.01837 110 7.20756 110 8.46715C110 9.72674 110.3 10.916 110.832 11.9687L113.424 9.9596Z" fill="#FABB05"/>
<path id="Fill 14" fill-rule="evenodd" clip-rule="evenodd" d="M117.806 3.75583C118.957 3.75583 119.988 4.15115 120.801 4.92553V4.92661L123.029 2.70094C121.676 1.44243 119.912 0.669128 117.806 0.669128C114.757 0.669128 112.116 2.41826 110.832 4.9656L113.424 6.97467C114.042 5.12698 115.77 3.75583 117.806 3.75583" fill="#E94235"/>
</g>
</g>
</g>
</g>
</svg>
