<svg width="270" height="38" viewBox="0 0 270 38" fill="none" xmlns="http://www.w3.org/2000/svg">
<g id="sr_view_in_Dark">
<path id="Text" d="M3.96018 30V9.952H19.0802V30H16.0002V12.864H7.04018V30H3.96018ZM23.3883 36.048V15.72H26.2163V17.652H26.3843C26.7577 17.036 27.3363 16.4853 28.1203 16C28.923 15.5147 29.875 15.272 30.9763 15.272C32.283 15.272 33.4497 15.5987 34.4763 16.252C35.503 16.9053 36.315 17.8013 36.9123 18.94C37.5283 20.0787 37.8363 21.3853 37.8363 22.86C37.8363 24.3347 37.5283 25.6507 36.9123 26.808C36.315 27.9467 35.503 28.8427 34.4763 29.496C33.4497 30.1307 32.283 30.448 30.9763 30.448C29.875 30.448 28.923 30.2147 28.1203 29.748C27.3363 29.2627 26.7577 28.712 26.3843 28.096H26.2163L26.3843 30.084V36.048H23.3883ZM30.5283 27.676C31.275 27.676 31.975 27.48 32.6283 27.088C33.2817 26.696 33.8137 26.1453 34.2243 25.436C34.635 24.708 34.8403 23.8493 34.8403 22.86C34.8403 21.8707 34.635 21.0213 34.2243 20.312C33.8137 19.584 33.2817 19.024 32.6283 18.632C31.975 18.24 31.275 18.044 30.5283 18.044C29.7817 18.044 29.0817 18.24 28.4283 18.632C27.775 19.024 27.243 19.584 26.8323 20.312C26.4217 21.0213 26.2163 21.8707 26.2163 22.86C26.2163 23.8493 26.4217 24.708 26.8323 25.436C27.243 26.1453 27.775 26.696 28.4283 27.088C29.0817 27.48 29.7817 27.676 30.5283 27.676ZM47.3849 30.448C45.9849 30.448 44.7342 30.1213 43.6329 29.468C42.5315 28.8147 41.6635 27.9187 41.0289 26.78C40.4129 25.6413 40.1049 24.344 40.1049 22.888C40.1049 21.5253 40.4035 20.2653 41.0009 19.108C41.5982 17.9507 42.4289 17.0267 43.4929 16.336C44.5755 15.6267 45.8169 15.272 47.2169 15.272C48.6915 15.272 49.9422 15.5893 50.9689 16.224C52.0142 16.8587 52.8075 17.7267 53.3489 18.828C53.8902 19.9293 54.1609 21.1707 54.1609 22.552C54.1609 22.7573 54.1515 22.944 54.1329 23.112C54.1329 23.28 54.1235 23.4107 54.1049 23.504H43.0729C43.2222 24.9227 43.7169 25.9867 44.5569 26.696C45.4155 27.4053 46.3862 27.76 47.4689 27.76C48.4395 27.76 49.2422 27.5453 49.8769 27.116C50.5115 26.668 51.0155 26.1173 51.3889 25.464L53.8809 26.668C53.2649 27.788 52.4249 28.7027 51.3609 29.412C50.2969 30.1027 48.9715 30.448 47.3849 30.448ZM47.2449 17.848C46.2369 17.848 45.3782 18.156 44.6689 18.772C43.9595 19.388 43.4835 20.2093 43.2409 21.236H51.1649C51.1275 20.7507 50.9689 20.2467 50.6889 19.724C50.4089 19.2013 49.9795 18.7627 49.4009 18.408C48.8409 18.0347 48.1222 17.848 47.2449 17.848ZM57.2663 30V15.72H66.6183V18.352H60.2903V30H57.2663ZM68.8372 30.224C68.4079 30.224 67.9972 30.1773 67.6052 30.084V27.284C67.8665 27.4147 68.1559 27.48 68.4732 27.48C69.1079 27.48 69.5559 27.2373 69.8172 26.752C70.0785 26.248 70.2372 25.6133 70.2932 24.848C70.3492 24.0827 70.3772 23.2893 70.3772 22.468V15.72H81.2972V30H78.3012V18.352H73.2332V22.944C73.2332 23.9147 73.1679 24.8387 73.0372 25.716C72.9252 26.5747 72.7105 27.3493 72.3932 28.04C72.0759 28.712 71.6279 29.244 71.0492 29.636C70.4892 30.028 69.7519 30.224 68.8372 30.224ZM91.5427 30.448C90.1427 30.448 88.892 30.1213 87.7907 29.468C86.6894 28.8147 85.8214 27.9187 85.1867 26.78C84.5707 25.6413 84.2627 24.344 84.2627 22.888C84.2627 21.5253 84.5614 20.2653 85.1587 19.108C85.756 17.9507 86.5867 17.0267 87.6507 16.336C88.7334 15.6267 89.9747 15.272 91.3747 15.272C92.8494 15.272 94.1 15.5893 95.1267 16.224C96.172 16.8587 96.9654 17.7267 97.5067 18.828C98.048 19.9293 98.3187 21.1707 98.3187 22.552C98.3187 22.7573 98.3094 22.944 98.2907 23.112C98.2907 23.28 98.2814 23.4107 98.2627 23.504H87.2307C87.38 24.9227 87.8747 25.9867 88.7147 26.696C89.5734 27.4053 90.544 27.76 91.6267 27.76C92.5974 27.76 93.4 27.5453 94.0347 27.116C94.6694 26.668 95.1734 26.1173 95.5467 25.464L98.0387 26.668C97.4227 27.788 96.5827 28.7027 95.5187 29.412C94.4547 30.1027 93.1294 30.448 91.5427 30.448ZM91.4027 17.848C90.3947 17.848 89.536 18.156 88.8267 18.772C88.1174 19.388 87.6414 20.2093 87.3987 21.236H95.3227C95.2854 20.7507 95.1267 20.2467 94.8467 19.724C94.5667 19.2013 94.1374 18.7627 93.5587 18.408C92.9987 18.0347 92.28 17.848 91.4027 17.848ZM99.922 34.256V27.368H101.49C101.789 27.0133 102.05 26.5093 102.274 25.856C102.517 25.184 102.703 24.428 102.834 23.588C102.983 22.748 103.058 21.8987 103.058 21.04V15.72H113.754V27.368H115.826V34.256H113.054V30H102.722V34.256H99.922ZM104.738 27.368H110.758V18.352H105.914V21.292C105.914 22.5987 105.821 23.728 105.634 24.68C105.447 25.6133 105.149 26.4533 104.738 27.2V27.368ZM123.294 30.448C122.267 30.448 121.353 30.252 120.55 29.86C119.747 29.4493 119.122 28.88 118.674 28.152C118.226 27.424 118.002 26.5933 118.002 25.66C118.002 24.652 118.263 23.7933 118.786 23.084C119.327 22.356 120.046 21.8053 120.942 21.432C121.838 21.0587 122.827 20.872 123.91 20.872C124.806 20.872 125.59 20.956 126.262 21.124C126.953 21.292 127.475 21.4693 127.83 21.656V20.9C127.83 19.9667 127.494 19.22 126.822 18.66C126.15 18.1 125.282 17.82 124.218 17.82C123.49 17.82 122.799 17.988 122.146 18.324C121.493 18.6413 120.97 19.08 120.578 19.64L118.506 18.044C119.122 17.1853 119.934 16.5133 120.942 16.028C121.969 15.524 123.089 15.272 124.302 15.272C126.374 15.272 127.97 15.7853 129.09 16.812C130.21 17.82 130.77 19.2387 130.77 21.068V30H127.83V28.236H127.662C127.289 28.8147 126.729 29.328 125.982 29.776C125.235 30.224 124.339 30.448 123.294 30.448ZM123.826 27.984C124.61 27.984 125.301 27.7973 125.898 27.424C126.495 27.0507 126.962 26.5653 127.298 25.968C127.653 25.352 127.83 24.6893 127.83 23.98C127.401 23.7373 126.897 23.5413 126.318 23.392C125.739 23.224 125.123 23.14 124.47 23.14C123.238 23.14 122.361 23.392 121.838 23.896C121.315 24.3813 121.054 24.9787 121.054 25.688C121.054 26.36 121.306 26.9107 121.81 27.34C122.314 27.7693 122.986 27.984 123.826 27.984ZM136.135 13.62C135.575 13.62 135.09 13.424 134.679 13.032C134.287 12.6213 134.091 12.136 134.091 11.576C134.091 11.016 134.287 10.54 134.679 10.148C135.09 9.756 135.575 9.56 136.135 9.56C136.695 9.56 137.171 9.756 137.563 10.148C137.974 10.54 138.179 11.016 138.179 11.576C138.179 12.136 137.974 12.6213 137.563 13.032C137.171 13.424 136.695 13.62 136.135 13.62ZM133.419 36.328C132.84 36.328 132.318 36.2627 131.851 36.132V33.22C132.038 33.332 132.252 33.416 132.495 33.472C132.719 33.5467 132.943 33.584 133.167 33.584C133.708 33.584 134.082 33.416 134.287 33.08C134.511 32.7627 134.623 32.296 134.623 31.68V15.72H137.647V31.708C137.647 33.3507 137.246 34.5267 136.443 35.236C135.64 35.964 134.632 36.328 133.419 36.328ZM153.406 35.348C153.35 35.4973 153.285 35.6373 153.21 35.768C153.154 35.8987 153.117 35.992 153.098 36.048H149.878C149.972 35.8427 150.102 35.544 150.27 35.152C150.457 34.7787 150.634 34.4147 150.802 34.06C150.97 33.7053 151.148 33.304 151.334 32.856C151.54 32.408 151.745 31.9693 151.95 31.54L153.014 29.216L147.05 15.72H150.41L154.498 25.464H154.638L158.586 15.72H161.918L154.526 32.744C154.321 33.2293 154.097 33.7333 153.854 34.256C153.63 34.7973 153.481 35.1613 153.406 35.348ZM169.215 30.448C168.431 30.448 167.647 30.3547 166.863 30.168C166.079 29.9813 165.342 29.664 164.651 29.216C163.979 28.7493 163.419 28.1053 162.971 27.284L165.379 25.884C165.902 26.612 166.499 27.116 167.171 27.396C167.862 27.6573 168.543 27.788 169.215 27.788C170.186 27.788 170.923 27.6013 171.427 27.228C171.931 26.8547 172.183 26.3693 172.183 25.772C172.183 25.2493 171.95 24.8293 171.483 24.512C171.035 24.176 170.401 24.008 169.579 24.008H167.255V21.628H169.579C170.289 21.628 170.83 21.46 171.203 21.124C171.595 20.788 171.791 20.3587 171.791 19.836C171.791 19.22 171.53 18.7347 171.007 18.38C170.485 18.0067 169.822 17.82 169.019 17.82C168.31 17.82 167.629 17.9693 166.975 18.268C166.322 18.548 165.827 18.9307 165.491 19.416L163.251 17.932C163.905 17.1107 164.726 16.4667 165.715 16C166.723 15.5147 167.834 15.272 169.047 15.272C170.093 15.272 171.035 15.4493 171.875 15.804C172.734 16.1587 173.406 16.6533 173.891 17.288C174.395 17.904 174.647 18.6227 174.647 19.444C174.647 20.1533 174.47 20.788 174.115 21.348C173.761 21.8893 173.294 22.3 172.715 22.58V22.748C173.443 23.0467 174.031 23.4947 174.479 24.092C174.927 24.6893 175.151 25.3707 175.151 26.136C175.151 26.976 174.909 27.7227 174.423 28.376C173.938 29.0107 173.247 29.5147 172.351 29.888C171.455 30.2613 170.41 30.448 169.215 30.448Z" fill="white"/>
<g id="GPay Logo (Dark)">
<g id="GPay">
<g id="Pay">
<path id="Fill 1" fill-rule="evenodd" clip-rule="evenodd" d="M226.529 9.34665V17.5128H231.565C232.765 17.5128 233.757 17.1096 234.541 16.3032C235.347 15.4988 235.75 14.5394 235.75 13.4288C235.75 12.3406 235.347 11.3924 234.541 10.586C233.757 9.75916 232.765 9.34479 231.565 9.34479H226.529V9.34665ZM226.529 20.3872V29.8599H223.521V6.47218H231.499C233.527 6.47218 235.248 7.14787 236.666 8.49738C238.105 9.84688 238.824 11.4913 238.824 13.4288C238.824 15.411 238.105 17.0667 236.666 18.3938C235.27 19.7227 233.547 20.3854 231.499 20.3854H226.529V20.3872Z" fill="white"/>
<path id="Fill 3" fill-rule="evenodd" clip-rule="evenodd" d="M241.864 24.9602C241.864 25.7442 242.197 26.3975 242.862 26.9201C243.527 27.4427 244.306 27.704 245.2 27.704C246.465 27.704 247.591 27.2354 248.584 26.3004C249.576 25.3634 250.071 24.264 250.071 23.0022C249.133 22.2612 247.825 21.8916 246.147 21.8916C244.925 21.8916 243.907 22.1866 243.09 22.7745C242.273 23.3623 241.864 24.0886 241.864 24.9602ZM245.756 13.3317C247.98 13.3317 249.735 13.9253 251.022 15.1124C252.308 16.2995 252.95 17.9271 252.95 19.9952V29.8599H250.073V27.6387H249.942C248.699 29.4677 247.042 30.3825 244.972 30.3825C243.206 30.3825 241.728 29.8599 240.541 28.8146C239.353 27.7694 238.759 26.4628 238.759 24.8949C238.759 23.2393 239.385 21.9232 240.638 20.9434C241.892 19.9635 243.565 19.4726 245.658 19.4726C247.444 19.4726 248.916 19.7993 250.071 20.4525V19.7657C250.071 18.7204 249.656 17.8338 248.829 17.104C247.999 16.3742 247.031 16.0102 245.919 16.0102C244.239 16.0102 242.911 16.7176 241.93 18.1343L239.28 16.4675C240.741 14.377 242.899 13.3317 245.756 13.3317Z" fill="white"/>
<path id="Fill 5" fill-rule="evenodd" clip-rule="evenodd" d="M269.463 13.8543L259.424 36.9154H256.318L260.046 28.8464L253.44 13.8543H256.71L261.484 25.3522H261.55L266.193 13.8543H269.463Z" fill="white"/>
</g>
<g id="G">
<path id="Fill 8" fill-rule="evenodd" clip-rule="evenodd" d="M214.373 18.3452C214.373 17.3989 214.293 16.4861 214.141 15.6126H201.454V20.7885H208.72C208.408 22.4757 207.465 23.9112 206.033 24.8725V28.2341H210.37C212.91 25.8935 214.373 22.4348 214.373 18.3452Z" fill="#4285F4"/>
<path id="Fill 10" fill-rule="evenodd" clip-rule="evenodd" d="M201.454 31.4782C205.084 31.4782 208.141 30.2873 210.37 28.2341L206.033 24.8725C204.826 25.6844 203.272 26.1585 201.454 26.1585C197.944 26.1585 194.966 23.7955 193.901 20.6112H189.433V24.0736C191.647 28.4637 196.197 31.4782 201.454 31.4782Z" fill="#34A853"/>
<path id="Fill 12" fill-rule="evenodd" clip-rule="evenodd" d="M193.901 20.6111C193.628 19.7992 193.479 18.9331 193.479 18.0391C193.479 17.145 193.628 16.2789 193.901 15.467V12.0045H189.433C188.518 13.8188 188 15.8683 188 18.0391C188 20.2098 188.518 22.2595 189.433 24.0736L193.901 20.6111Z" fill="#FABB05"/>
<path id="Fill 14" fill-rule="evenodd" clip-rule="evenodd" d="M201.454 9.91964C203.436 9.91964 205.213 10.6009 206.615 11.9355V11.9374L210.455 8.10163C208.123 5.93272 205.082 4.60001 201.454 4.60001C196.197 4.60001 191.647 7.61447 189.433 12.0046L193.901 15.467C194.966 12.2827 197.944 9.91964 201.454 9.91964Z" fill="#E94235"/>
</g>
</g>
</g>
</g>
</svg>
