<svg width="125" height="21" viewBox="0 0 125 21" fill="none" xmlns="http://www.w3.org/2000/svg">
<g id="ca_add_to_Pay_NBG">
<path id="Left Text" d="M0.805628 15.0006L5.12563 3.54461H7.12563L11.4616 15.0006H9.52563L8.46963 12.0566H3.79763L2.74163 15.0006H0.805628ZM7.87763 10.4246L6.61363 6.92061L6.18163 5.60861H6.08563L5.65363 6.92061L4.38963 10.4246H7.87763ZM11.7418 8.34461V6.84061H13.2298V6.16861C13.2298 5.58194 13.3524 5.08594 13.5978 4.68061C13.8431 4.26461 14.1791 3.94994 14.6058 3.73661C15.0324 3.52328 15.5071 3.41661 16.0298 3.41661C16.3178 3.41661 16.5631 3.43794 16.7658 3.48061C16.9791 3.51261 17.1551 3.55528 17.2938 3.60861V5.28861C17.1551 5.23528 16.9951 5.18194 16.8138 5.12861C16.6431 5.06461 16.4298 5.03261 16.1738 5.03261C15.8431 5.03261 15.5551 5.14461 15.3098 5.36861C15.0644 5.58194 14.9418 5.89661 14.9418 6.31261V6.84061H16.9898V8.34461H14.9418V15.0006H13.2298V8.34461H11.7418ZM22.0235 15.2566C21.2235 15.2566 20.5088 15.0699 19.8795 14.6966C19.2502 14.3233 18.7542 13.8113 18.3915 13.1606C18.0395 12.5099 17.8635 11.7686 17.8635 10.9366C17.8635 10.1579 18.0342 9.43794 18.3755 8.77661C18.7168 8.11528 19.1915 7.58728 19.7995 7.19261C20.4182 6.78728 21.1275 6.58461 21.9275 6.58461C22.7702 6.58461 23.4848 6.76594 24.0715 7.12861C24.6688 7.49128 25.1222 7.98728 25.4315 8.61661C25.7408 9.24594 25.8955 9.95528 25.8955 10.7446C25.8955 10.8619 25.8902 10.9686 25.8795 11.0646C25.8795 11.1606 25.8742 11.2353 25.8635 11.2886H19.5595C19.6022 11.7366 19.7142 12.1259 19.8955 12.4566C20.1302 12.8726 20.4395 13.1873 20.8235 13.4006C21.2075 13.6139 21.6235 13.7206 22.0715 13.7206C22.6155 13.7206 23.0688 13.5979 23.4315 13.3526C23.8048 13.0966 24.0982 12.7819 24.3115 12.4086L25.7355 13.0966C25.3835 13.7366 24.9035 14.2593 24.2955 14.6646C23.6875 15.0593 22.9302 15.2566 22.0235 15.2566ZM19.6555 9.99261H24.1835C24.1728 9.78994 24.1195 9.57661 24.0235 9.35261C23.9275 9.11794 23.7888 8.90461 23.6075 8.71261C23.4262 8.52061 23.1968 8.36594 22.9195 8.24861C22.6422 8.12061 22.3168 8.05661 21.9435 8.05661C21.4742 8.05661 21.0582 8.17928 20.6955 8.42461C20.3328 8.65928 20.0502 8.98994 19.8475 9.41661C19.7622 9.59794 19.6982 9.78994 19.6555 9.99261ZM31.4068 18.7126C30.6921 18.7126 30.0734 18.5953 29.5508 18.3606C29.0388 18.1366 28.6228 17.8433 28.3028 17.4806C27.9828 17.1286 27.7534 16.7659 27.6148 16.3926L29.2148 15.7206C29.3854 16.1473 29.6574 16.4939 30.0308 16.7606C30.4148 17.0379 30.8734 17.1766 31.4068 17.1766C32.1641 17.1766 32.7561 16.9526 33.1828 16.5046C33.6094 16.0566 33.8228 15.4219 33.8228 14.6006V13.8166H33.7268C33.4708 14.1899 33.1188 14.4939 32.6708 14.7286C32.2228 14.9633 31.7054 15.0806 31.1188 15.0806C30.4254 15.0806 29.7854 14.9046 29.1988 14.5526C28.6228 14.2006 28.1588 13.7099 27.8068 13.0806C27.4654 12.4406 27.2948 11.6939 27.2948 10.8406C27.2948 9.97661 27.4654 9.22994 27.8068 8.60061C28.1588 7.96061 28.6228 7.46461 29.1988 7.11261C29.7854 6.76061 30.4254 6.58461 31.1188 6.58461C31.7054 6.58461 32.2228 6.70194 32.6708 6.93661C33.1188 7.16061 33.4708 7.46994 33.7268 7.86461H33.8228V6.84061H35.4708V14.5686C35.4708 15.4539 35.2948 16.2059 34.9428 16.8246C34.6014 17.4433 34.1268 17.9126 33.5188 18.2326C32.9108 18.5526 32.2068 18.7126 31.4068 18.7126ZM31.4228 13.5126C31.8494 13.5126 32.2441 13.4113 32.6068 13.2086C32.9801 12.9953 33.2734 12.6913 33.4868 12.2966C33.7108 11.8913 33.8228 11.4059 33.8228 10.8406C33.8228 10.2433 33.7108 9.74728 33.4868 9.35261C33.2734 8.95794 32.9801 8.65928 32.6068 8.45661C32.2441 8.25394 31.8494 8.15261 31.4228 8.15261C30.9961 8.15261 30.5961 8.25394 30.2228 8.45661C29.8601 8.65928 29.5668 8.96328 29.3428 9.36861C29.1188 9.76328 29.0068 10.2539 29.0068 10.8406C29.0068 11.4166 29.1188 11.9073 29.3428 12.3126C29.5668 12.7073 29.8601 13.0059 30.2228 13.2086C30.5961 13.4113 30.9961 13.5126 31.4228 13.5126ZM41.2923 15.2566C40.4923 15.2566 39.7776 15.0699 39.1483 14.6966C38.5189 14.3233 38.0229 13.8113 37.6603 13.1606C37.3083 12.5099 37.1323 11.7686 37.1323 10.9366C37.1323 10.1579 37.3029 9.43794 37.6443 8.77661C37.9856 8.11528 38.4603 7.58728 39.0683 7.19261C39.6869 6.78728 40.3963 6.58461 41.1963 6.58461C42.0389 6.58461 42.7536 6.76594 43.3403 7.12861C43.9376 7.49128 44.3909 7.98728 44.7003 8.61661C45.0096 9.24594 45.1643 9.95528 45.1643 10.7446C45.1643 10.8619 45.1589 10.9686 45.1483 11.0646C45.1483 11.1606 45.1429 11.2353 45.1323 11.2886H38.8283C38.8709 11.7366 38.9829 12.1259 39.1643 12.4566C39.3989 12.8726 39.7083 13.1873 40.0923 13.4006C40.4763 13.6139 40.8923 13.7206 41.3403 13.7206C41.8843 13.7206 42.3376 13.5979 42.7003 13.3526C43.0736 13.0966 43.3669 12.7819 43.5803 12.4086L45.0043 13.0966C44.6523 13.7366 44.1723 14.2593 43.5643 14.6646C42.9563 15.0593 42.1989 15.2566 41.2923 15.2566ZM38.9243 9.99261H43.4523C43.4416 9.78994 43.3883 9.57661 43.2923 9.35261C43.1963 9.11794 43.0576 8.90461 42.8763 8.71261C42.6949 8.52061 42.4656 8.36594 42.1883 8.24861C41.9109 8.12061 41.5856 8.05661 41.2123 8.05661C40.7429 8.05661 40.3269 8.17928 39.9643 8.42461C39.6016 8.65928 39.3189 8.98994 39.1163 9.41661C39.0309 9.59794 38.9669 9.78994 38.9243 9.99261ZM47.0454 15.0006V6.84061H48.7734V15.0006H47.0454ZM47.9094 5.64061C47.5894 5.64061 47.312 5.52861 47.0774 5.30461C46.8534 5.06994 46.7414 4.79261 46.7414 4.47261C46.7414 4.14194 46.8534 3.86994 47.0774 3.65661C47.312 3.43261 47.5894 3.32061 47.9094 3.32061C48.24 3.32061 48.5174 3.43261 48.7414 3.65661C48.9654 3.86994 49.0774 4.14194 49.0774 4.47261C49.0774 4.79261 48.9654 5.06994 48.7414 5.30461C48.5174 5.52861 48.24 5.64061 47.9094 5.64061ZM50.2674 15.0006L53.1314 10.8566L50.3154 6.84061H52.3154L54.1714 9.56061L55.9314 6.84061H58.0114L55.1474 10.8566L58.0274 15.0006H56.0114L54.1394 12.2006L52.2994 15.0006H50.2674ZM65.8336 15.2566C65.247 15.2566 64.7243 15.1393 64.2656 14.9046C63.8176 14.6699 63.4603 14.3499 63.1936 13.9446C62.9376 13.5286 62.8096 13.0539 62.8096 12.5206C62.8096 11.9339 62.959 11.4379 63.2576 11.0326C63.567 10.6273 63.9776 10.3179 64.4896 10.1046C65.0016 9.89128 65.567 9.78461 66.1856 9.78461C66.527 9.78461 66.8416 9.81128 67.1296 9.86461C67.4283 9.90728 67.6843 9.96061 67.8976 10.0246C68.1216 10.0886 68.2976 10.1579 68.4256 10.2326V9.80061C68.4256 9.26728 68.2336 8.84061 67.8496 8.52061C67.4656 8.20061 66.9696 8.04061 66.3616 8.04061C65.9456 8.04061 65.551 8.13661 65.1776 8.32861C64.8043 8.50994 64.5056 8.76061 64.2816 9.08061L63.0976 8.16861C63.3323 7.83794 63.615 7.55528 63.9456 7.32061C64.287 7.08594 64.6656 6.90461 65.0816 6.77661C65.5083 6.64861 65.951 6.58461 66.4096 6.58461C67.5936 6.58461 68.5056 6.87794 69.1456 7.46461C69.7856 8.04061 70.1056 8.85128 70.1056 9.89661V15.0006H68.4256V13.9926H68.3296C68.191 14.2059 67.999 14.4086 67.7536 14.6006C67.519 14.7926 67.2363 14.9473 66.9056 15.0646C66.5856 15.1926 66.2283 15.2566 65.8336 15.2566ZM66.1376 13.8486C66.5856 13.8486 66.9803 13.7419 67.3216 13.5286C67.6736 13.3153 67.9456 13.0379 68.1376 12.6966C68.3296 12.3446 68.4256 11.9659 68.4256 11.5606C68.191 11.4219 67.903 11.3099 67.5616 11.2246C67.231 11.1286 66.879 11.0806 66.5056 11.0806C65.8016 11.0806 65.3003 11.2193 65.0016 11.4966C64.703 11.7739 64.5536 12.1206 64.5536 12.5366C64.5536 12.9206 64.6976 13.2353 64.9856 13.4806C65.2736 13.7259 65.6576 13.8486 66.1376 13.8486Z" fill="white"/>
<g id="GPay (Dark)">
<g id="GPay">
<g id="Pay">
<path id="Fill 1" fill-rule="evenodd" clip-rule="evenodd" d="M99.3563 3.42339V8.16175H102.278C102.974 8.16175 103.55 7.92781 104.005 7.45993C104.473 6.99313 104.707 6.43644 104.707 5.79203C104.707 5.16061 104.473 4.61041 104.005 4.14254C103.55 3.66274 102.974 3.4223 102.278 3.4223H99.3563V3.42339ZM99.3563 9.82966V15.3262H97.6107V1.75549H102.24C103.417 1.75549 104.415 2.14756 105.238 2.93061C106.073 3.71365 106.491 4.66782 106.491 5.79203C106.491 6.94224 106.073 7.90291 105.238 8.67296C104.428 9.44409 103.429 9.82858 102.24 9.82858H99.3563V9.82966Z" fill="white"/>
<path id="Fill 3" fill-rule="evenodd" clip-rule="evenodd" d="M108.255 12.4831C108.255 12.9379 108.448 13.317 108.834 13.6203C109.22 13.9235 109.672 14.0752 110.19 14.0752C110.924 14.0752 111.578 13.8032 112.153 13.2607C112.729 12.717 113.017 12.0791 113.017 11.3469C112.472 10.917 111.713 10.7025 110.74 10.7025C110.031 10.7025 109.44 10.8736 108.966 11.2148C108.492 11.5559 108.255 11.9773 108.255 12.4831M110.513 5.73566C111.803 5.73566 112.821 6.08007 113.569 6.76889C114.314 7.45771 114.687 8.40213 114.687 9.60216V15.3261H113.018V14.0373H112.942C112.221 15.0985 111.259 15.6294 110.058 15.6294C109.033 15.6294 108.176 15.3261 107.487 14.7196C106.797 14.1131 106.453 13.3549 106.453 12.4452C106.453 11.4845 106.816 10.7208 107.543 10.1523C108.271 9.58375 109.241 9.2989 110.456 9.2989C111.492 9.2989 112.346 9.48844 113.017 9.86751V9.46894C113.017 8.86243 112.776 8.34798 112.296 7.92451C111.814 7.50103 111.252 7.28984 110.607 7.28984C109.633 7.28984 108.862 7.70032 108.293 8.52235L106.755 7.55519C107.603 6.34217 108.855 5.73566 110.513 5.73566" fill="white"/>
<path id="Fill 5" fill-rule="evenodd" clip-rule="evenodd" d="M124.269 6.03894L118.443 19.4201H116.641L118.804 14.738L114.971 6.03894H116.869L119.639 12.7106H119.677L122.371 6.03894H124.269Z" fill="white"/>
</g>
<g id="G">
<path id="Fill 8" fill-rule="evenodd" clip-rule="evenodd" d="M92.3029 8.64473C92.3029 8.09563 92.2562 7.56601 92.1684 7.05914H84.8065V10.0625H89.0231C88.842 11.0414 88.2944 11.8744 87.4639 12.4322V14.3828H89.9804C91.4539 13.0246 92.3029 11.0177 92.3029 8.64473" fill="#4285F4"/>
<path id="Fill 10" fill-rule="evenodd" clip-rule="evenodd" d="M84.8065 16.2651C86.9131 16.2651 88.6869 15.5741 89.9804 14.3828L87.4639 12.4322C86.7635 12.9033 85.8614 13.1784 84.8065 13.1784C82.7703 13.1784 81.042 11.8073 80.424 9.95959H77.8316V11.9687C79.1164 14.516 81.7565 16.2651 84.8065 16.2651" fill="#34A853"/>
<path id="Fill 12" fill-rule="evenodd" clip-rule="evenodd" d="M80.424 9.9596C80.2657 9.48847 80.179 8.98593 80.179 8.46715C80.179 7.94837 80.2657 7.44583 80.424 6.9747V4.96564H77.8316C77.3003 6.01837 77 7.20756 77 8.46715C77 9.72674 77.3003 10.916 77.8316 11.9687L80.424 9.9596Z" fill="#FABB05"/>
<path id="Fill 14" fill-rule="evenodd" clip-rule="evenodd" d="M84.8065 3.75583C85.9568 3.75583 86.9879 4.15115 87.8011 4.92553V4.92661L90.0292 2.70094C88.6761 1.44243 86.912 0.669128 84.8065 0.669128C81.7565 0.669128 79.1164 2.41826 77.8316 4.9656L80.424 6.97467C81.042 5.12698 82.7703 3.75583 84.8065 3.75583" fill="#E94235"/>
</g>
</g>
</g>
</g>
</svg>
