<svg width="268" height="38" viewBox="0 0 268 38" fill="none" xmlns="http://www.w3.org/2000/svg">
<g id="ca_book_with_Dark">
<path id="Text" d="M4.22894 30V9.952H11.2569C12.4889 9.952 13.5903 10.2133 14.5609 10.736C15.5316 11.2587 16.2969 11.9867 16.8569 12.92C17.4356 13.8347 17.7249 14.8893 17.7249 16.084C17.7249 17.3907 17.3143 18.576 16.4929 19.64C15.6903 20.6853 14.5516 21.4133 13.0769 21.824L18.6489 29.832V30H15.0929L9.74494 22.132H7.30894V30H4.22894ZM11.2849 12.836H7.30894V19.304H11.1729C12.1249 19.304 12.9369 19.0053 13.6089 18.408C14.2809 17.792 14.6169 17.008 14.6169 16.056C14.6169 15.5147 14.4863 15.0013 14.2249 14.516C13.9636 14.012 13.5809 13.6107 13.0769 13.312C12.5916 12.9947 11.9943 12.836 11.2849 12.836ZM27.3653 30.448C25.9653 30.448 24.7147 30.1213 23.6133 29.468C22.512 28.8147 21.644 27.9187 21.0093 26.78C20.3933 25.6413 20.0853 24.344 20.0853 22.888C20.0853 21.5253 20.384 20.2653 20.9813 19.108C21.5787 17.9507 22.4093 17.0267 23.4733 16.336C24.556 15.6267 25.7973 15.272 27.1973 15.272C28.672 15.272 29.9227 15.5893 30.9493 16.224C31.9947 16.8587 32.788 17.7267 33.3293 18.828C33.8707 19.9293 34.1413 21.1707 34.1413 22.552C34.1413 22.7573 34.132 22.944 34.1133 23.112C34.1133 23.28 34.104 23.4107 34.0853 23.504H23.0533C23.2027 24.9227 23.6973 25.9867 24.5373 26.696C25.396 27.4053 26.3667 27.76 27.4493 27.76C28.42 27.76 29.2227 27.5453 29.8573 27.116C30.492 26.668 30.996 26.1173 31.3693 25.464L33.8613 26.668C33.2453 27.788 32.4053 28.7027 31.3413 29.412C30.2773 30.1027 28.952 30.448 27.3653 30.448ZM27.2253 17.848C26.2173 17.848 25.3587 18.156 24.6493 18.772C23.94 19.388 23.464 20.2093 23.2213 21.236H31.1453C31.108 20.7507 30.9493 20.2467 30.6693 19.724C30.3893 19.2013 29.96 18.7627 29.3813 18.408C28.8213 18.0347 28.1027 17.848 27.2253 17.848ZM42.5915 30.448C40.8742 30.448 39.5022 30.0747 38.4755 29.328C37.4489 28.5627 36.7395 27.6573 36.3475 26.612L39.0635 25.436C39.3995 26.2013 39.8849 26.7893 40.5195 27.2C41.1542 27.592 41.8729 27.788 42.6755 27.788C43.4222 27.788 44.0662 27.6573 44.6075 27.396C45.1489 27.116 45.4195 26.668 45.4195 26.052C45.4195 25.4547 45.1489 25.016 44.6075 24.736C44.0662 24.456 43.3942 24.2133 42.5915 24.008L40.8835 23.616C40.1929 23.448 39.5489 23.1867 38.9515 22.832C38.3542 22.4773 37.8689 22.02 37.4955 21.46C37.1222 20.8813 36.9355 20.2093 36.9355 19.444C36.9355 18.604 37.1875 17.876 37.6915 17.26C38.1955 16.6253 38.8582 16.14 39.6795 15.804C40.5195 15.4493 41.4249 15.272 42.3955 15.272C43.7209 15.272 44.8782 15.5333 45.8675 16.056C46.8755 16.56 47.6129 17.3253 48.0795 18.352L45.4755 19.528C45.1395 18.8933 44.7009 18.4547 44.1595 18.212C43.6369 17.9507 43.0582 17.82 42.4235 17.82C41.7142 17.82 41.1169 17.9693 40.6315 18.268C40.1649 18.5667 39.9315 18.94 39.9315 19.388C39.9315 19.8733 40.1369 20.256 40.5475 20.536C40.9769 20.816 41.4995 21.04 42.1155 21.208L44.1875 21.712C45.6062 22.0667 46.6702 22.608 47.3795 23.336C48.0889 24.0453 48.4435 24.9133 48.4435 25.94C48.4435 26.8547 48.1822 27.6573 47.6595 28.348C47.1369 29.02 46.4275 29.5427 45.5315 29.916C44.6542 30.2707 43.6742 30.448 42.5915 30.448ZM58.0435 30.448C56.6435 30.448 55.3928 30.1213 54.2915 29.468C53.1901 28.8147 52.3221 27.9187 51.6875 26.78C51.0715 25.6413 50.7635 24.344 50.7635 22.888C50.7635 21.5253 51.0621 20.2653 51.6595 19.108C52.2568 17.9507 53.0875 17.0267 54.1515 16.336C55.2341 15.6267 56.4755 15.272 57.8755 15.272C59.3501 15.272 60.6008 15.5893 61.6275 16.224C62.6728 16.8587 63.4661 17.7267 64.0075 18.828C64.5488 19.9293 64.8195 21.1707 64.8195 22.552C64.8195 22.7573 64.8101 22.944 64.7915 23.112C64.7915 23.28 64.7821 23.4107 64.7635 23.504H53.7315C53.8808 24.9227 54.3755 25.9867 55.2155 26.696C56.0741 27.4053 57.0448 27.76 58.1275 27.76C59.0981 27.76 59.9008 27.5453 60.5355 27.116C61.1701 26.668 61.6741 26.1173 62.0475 25.464L64.5395 26.668C63.9235 27.788 63.0835 28.7027 62.0195 29.412C60.9555 30.1027 59.6301 30.448 58.0435 30.448ZM57.9035 17.848C56.8955 17.848 56.0368 18.156 55.3275 18.772C54.6181 19.388 54.1421 20.2093 53.8995 21.236H61.8235C61.7861 20.7507 61.6275 20.2467 61.3475 19.724C61.0675 19.2013 60.6381 18.7627 60.0595 18.408C59.4995 18.0347 58.7808 17.848 57.9035 17.848ZM67.9249 30V15.72H70.7809V17.82H70.9489C71.2663 17.092 71.8076 16.4947 72.5729 16.028C73.3569 15.5427 74.1969 15.3 75.0929 15.3C75.4849 15.3 75.8116 15.328 76.0729 15.384C76.3529 15.44 76.6049 15.5053 76.8289 15.58V18.716C76.4743 18.5667 76.1103 18.4453 75.7369 18.352C75.3823 18.2587 75.0089 18.212 74.6169 18.212C73.9076 18.212 73.2729 18.408 72.7129 18.8C72.1716 19.1733 71.7423 19.6867 71.4249 20.34C71.1076 20.9747 70.9489 21.6747 70.9489 22.44V30H67.9249ZM84.2681 30L78.3601 15.72H81.7201L85.7241 26.108H85.8641L89.9521 15.72H93.2561L87.2921 30H84.2681ZM99.7198 30.448C98.6931 30.448 97.7785 30.252 96.9758 29.86C96.1731 29.4493 95.5478 28.88 95.0998 28.152C94.6518 27.424 94.4278 26.5933 94.4278 25.66C94.4278 24.652 94.6891 23.7933 95.2118 23.084C95.7531 22.356 96.4718 21.8053 97.3678 21.432C98.2638 21.0587 99.2531 20.872 100.336 20.872C101.232 20.872 102.016 20.956 102.688 21.124C103.378 21.292 103.901 21.4693 104.256 21.656V20.9C104.256 19.9667 103.92 19.22 103.248 18.66C102.576 18.1 101.708 17.82 100.644 17.82C99.9158 17.82 99.2251 17.988 98.5718 18.324C97.9185 18.6413 97.3958 19.08 97.0038 19.64L94.9318 18.044C95.5478 17.1853 96.3598 16.5133 97.3678 16.028C98.3945 15.524 99.5145 15.272 100.728 15.272C102.8 15.272 104.396 15.7853 105.516 16.812C106.636 17.82 107.196 19.2387 107.196 21.068V30H104.256V28.236H104.088C103.714 28.8147 103.154 29.328 102.408 29.776C101.661 30.224 100.765 30.448 99.7198 30.448ZM100.252 27.984C101.036 27.984 101.726 27.7973 102.324 27.424C102.921 27.0507 103.388 26.5653 103.724 25.968C104.078 25.352 104.256 24.6893 104.256 23.98C103.826 23.7373 103.322 23.5413 102.744 23.392C102.165 23.224 101.549 23.14 100.896 23.14C99.6638 23.14 98.7865 23.392 98.2638 23.896C97.7411 24.3813 97.4798 24.9787 97.4798 25.688C97.4798 26.36 97.7318 26.9107 98.2358 27.34C98.7398 27.7693 99.4118 27.984 100.252 27.984ZM122.14 30.448C121.113 30.448 120.199 30.252 119.396 29.86C118.593 29.4493 117.968 28.88 117.52 28.152C117.072 27.424 116.848 26.5933 116.848 25.66C116.848 24.652 117.109 23.7933 117.632 23.084C118.173 22.356 118.892 21.8053 119.788 21.432C120.684 21.0587 121.673 20.872 122.756 20.872C123.652 20.872 124.436 20.956 125.108 21.124C125.799 21.292 126.321 21.4693 126.676 21.656V20.9C126.676 19.9667 126.34 19.22 125.668 18.66C124.996 18.1 124.128 17.82 123.064 17.82C122.336 17.82 121.645 17.988 120.992 18.324C120.339 18.6413 119.816 19.08 119.424 19.64L117.352 18.044C117.968 17.1853 118.78 16.5133 119.788 16.028C120.815 15.524 121.935 15.272 123.148 15.272C125.22 15.272 126.816 15.7853 127.936 16.812C129.056 17.82 129.616 19.2387 129.616 21.068V30H126.676V28.236H126.508C126.135 28.8147 125.575 29.328 124.828 29.776C124.081 30.224 123.185 30.448 122.14 30.448ZM122.672 27.984C123.456 27.984 124.147 27.7973 124.744 27.424C125.341 27.0507 125.808 26.5653 126.144 25.968C126.499 25.352 126.676 24.6893 126.676 23.98C126.247 23.7373 125.743 23.5413 125.164 23.392C124.585 23.224 123.969 23.14 123.316 23.14C122.084 23.14 121.207 23.392 120.684 23.896C120.161 24.3813 119.9 24.9787 119.9 25.688C119.9 26.36 120.152 26.9107 120.656 27.34C121.16 27.7693 121.832 27.984 122.672 27.984ZM133.245 30V15.72H136.101V17.68H136.269C136.68 16.9893 137.277 16.42 138.061 15.972C138.845 15.5053 139.713 15.272 140.665 15.272C141.729 15.272 142.635 15.524 143.381 16.028C144.128 16.532 144.66 17.1667 144.977 17.932C145.444 17.1853 146.079 16.56 146.881 16.056C147.684 15.5333 148.664 15.272 149.821 15.272C151.501 15.272 152.752 15.7853 153.573 16.812C154.395 17.82 154.805 19.164 154.805 20.844V30H151.809V21.348C151.809 20.2093 151.557 19.3787 151.053 18.856C150.568 18.3147 149.887 18.044 149.009 18.044C148.319 18.044 147.712 18.24 147.189 18.632C146.667 19.0053 146.256 19.5187 145.957 20.172C145.677 20.8253 145.537 21.5533 145.537 22.356V30H142.541V21.348C142.541 20.2093 142.289 19.3787 141.785 18.856C141.281 18.3147 140.572 18.044 139.657 18.044C138.985 18.044 138.397 18.24 137.893 18.632C137.389 19.024 136.988 19.5467 136.689 20.2C136.409 20.8533 136.269 21.5813 136.269 22.384V30H133.245ZM166.126 30.448C165.025 30.448 164.073 30.2147 163.27 29.748C162.486 29.2627 161.907 28.712 161.534 28.096H161.366V30H158.51V9.952H161.534V15.664L161.366 17.652H161.534C161.907 17.036 162.486 16.4853 163.27 16C164.073 15.5147 165.025 15.272 166.126 15.272C167.433 15.272 168.599 15.5987 169.626 16.252C170.653 16.9053 171.465 17.8013 172.062 18.94C172.678 20.0787 172.986 21.3853 172.986 22.86C172.986 24.3347 172.678 25.6507 172.062 26.808C171.465 27.9467 170.653 28.8427 169.626 29.496C168.599 30.1307 167.433 30.448 166.126 30.448ZM165.678 27.676C166.425 27.676 167.125 27.48 167.778 27.088C168.431 26.696 168.963 26.1453 169.374 25.436C169.785 24.708 169.99 23.8493 169.99 22.86C169.99 21.8707 169.785 21.0213 169.374 20.312C168.963 19.584 168.431 19.024 167.778 18.632C167.125 18.24 166.425 18.044 165.678 18.044C164.931 18.044 164.231 18.24 163.578 18.632C162.925 19.024 162.393 19.584 161.982 20.312C161.571 21.0213 161.366 21.8707 161.366 22.86C161.366 23.8493 161.571 24.708 161.982 25.436C162.393 26.1453 162.925 26.696 163.578 27.088C164.231 27.48 164.931 27.676 165.678 27.676Z" fill="white"/>
<g id="GPay Logo (Dark)">
<g id="GPay">
<g id="Pay">
<path id="Fill 1" fill-rule="evenodd" clip-rule="evenodd" d="M224.529 9.34665V17.5128H229.565C230.765 17.5128 231.757 17.1096 232.541 16.3032C233.347 15.4988 233.75 14.5394 233.75 13.4288C233.75 12.3406 233.347 11.3924 232.541 10.586C231.757 9.75916 230.765 9.34479 229.565 9.34479H224.529V9.34665ZM224.529 20.3872V29.8599H221.521V6.47218H229.499C231.527 6.47218 233.248 7.14787 234.666 8.49738C236.105 9.84688 236.824 11.4913 236.824 13.4288C236.824 15.411 236.105 17.0667 234.666 18.3938C233.27 19.7227 231.547 20.3854 229.499 20.3854H224.529V20.3872Z" fill="white"/>
<path id="Fill 3" fill-rule="evenodd" clip-rule="evenodd" d="M239.864 24.9602C239.864 25.7442 240.197 26.3975 240.862 26.9201C241.527 27.4427 242.306 27.704 243.2 27.704C244.465 27.704 245.591 27.2354 246.584 26.3004C247.576 25.3634 248.071 24.264 248.071 23.0022C247.133 22.2612 245.825 21.8916 244.147 21.8916C242.925 21.8916 241.907 22.1866 241.09 22.7745C240.273 23.3623 239.864 24.0886 239.864 24.9602ZM243.756 13.3317C245.98 13.3317 247.735 13.9253 249.022 15.1124C250.308 16.2995 250.95 17.9271 250.95 19.9952V29.8599H248.073V27.6387H247.942C246.699 29.4677 245.042 30.3825 242.972 30.3825C241.206 30.3825 239.728 29.8599 238.541 28.8146C237.353 27.7694 236.759 26.4628 236.759 24.8949C236.759 23.2393 237.385 21.9232 238.638 20.9434C239.892 19.9635 241.565 19.4726 243.658 19.4726C245.444 19.4726 246.916 19.7993 248.071 20.4525V19.7657C248.071 18.7204 247.656 17.8338 246.829 17.104C245.999 16.3742 245.031 16.0102 243.919 16.0102C242.239 16.0102 240.911 16.7176 239.93 18.1343L237.28 16.4675C238.741 14.377 240.899 13.3317 243.756 13.3317Z" fill="white"/>
<path id="Fill 5" fill-rule="evenodd" clip-rule="evenodd" d="M267.463 13.8543L257.424 36.9154H254.318L258.046 28.8464L251.44 13.8543H254.71L259.484 25.3522H259.55L264.193 13.8543H267.463Z" fill="white"/>
</g>
<g id="G">
<path id="Fill 8" fill-rule="evenodd" clip-rule="evenodd" d="M212.373 18.3452C212.373 17.3989 212.293 16.4861 212.141 15.6126H199.454V20.7885H206.72C206.408 22.4757 205.465 23.9112 204.033 24.8725V28.2341H208.37C210.91 25.8935 212.373 22.4348 212.373 18.3452Z" fill="#4285F4"/>
<path id="Fill 10" fill-rule="evenodd" clip-rule="evenodd" d="M199.454 31.4782C203.084 31.4782 206.141 30.2873 208.37 28.2341L204.033 24.8725C202.826 25.6844 201.272 26.1585 199.454 26.1585C195.944 26.1585 192.966 23.7955 191.901 20.6112H187.433V24.0736C189.647 28.4637 194.197 31.4782 199.454 31.4782Z" fill="#34A853"/>
<path id="Fill 12" fill-rule="evenodd" clip-rule="evenodd" d="M191.901 20.6111C191.628 19.7992 191.479 18.9331 191.479 18.0391C191.479 17.145 191.628 16.2789 191.901 15.467V12.0045H187.433C186.518 13.8188 186 15.8683 186 18.0391C186 20.2098 186.518 22.2595 187.433 24.0736L191.901 20.6111Z" fill="#FABB05"/>
<path id="Fill 14" fill-rule="evenodd" clip-rule="evenodd" d="M199.454 9.91964C201.436 9.91964 203.213 10.6009 204.615 11.9355V11.9374L208.455 8.10163C206.123 5.93272 203.082 4.60001 199.454 4.60001C194.197 4.60001 189.647 7.61447 187.433 12.0046L191.901 15.467C192.966 12.2827 195.944 9.91964 199.454 9.91964Z" fill="#E94235"/>
</g>
</g>
</g>
</g>
</svg>
