<svg width="153" height="21" viewBox="0 0 153 21" fill="none" xmlns="http://www.w3.org/2000/svg">
<g id="ca_book_with_Pay_NBG">
<path id="Left Text" d="M2.20225 15.0006V3.54461H6.21825C6.92225 3.54461 7.55158 3.69394 8.10625 3.99261C8.66092 4.29128 9.09825 4.70194 9.41825 5.22461C9.74892 5.74728 9.91425 6.35528 9.91425 7.04861C9.91425 7.50728 9.81825 7.94461 9.62625 8.36061C9.44492 8.77661 9.17825 9.14994 8.82625 9.48061C8.48492 9.80061 8.06892 10.0513 7.57825 10.2326C7.48225 10.2753 7.38092 10.3073 7.27425 10.3286L10.4423 14.9046V15.0006H8.41025L5.35425 10.5046H3.96225V15.0006H2.20225ZM3.96225 8.88861H6.17025C6.53292 8.88861 6.85825 8.80861 7.14625 8.64861C7.44492 8.48861 7.68492 8.26994 7.86625 7.99261C8.04758 7.70461 8.13825 7.38461 8.13825 7.03261C8.13825 6.72328 8.06358 6.42994 7.91425 6.15261C7.76492 5.86461 7.54625 5.63528 7.25825 5.46461C6.98092 5.28328 6.63958 5.19261 6.23425 5.19261H3.96225V8.88861ZM15.4016 15.2566C14.6016 15.2566 13.887 15.0699 13.2576 14.6966C12.6283 14.3233 12.1323 13.8113 11.7696 13.1606C11.4176 12.5099 11.2416 11.7686 11.2416 10.9366C11.2416 10.1579 11.4123 9.43794 11.7536 8.77661C12.095 8.11528 12.5696 7.58728 13.1776 7.19261C13.7963 6.78728 14.5056 6.58461 15.3056 6.58461C16.1483 6.58461 16.863 6.76594 17.4496 7.12861C18.047 7.49128 18.5003 7.98728 18.8096 8.61661C19.119 9.24594 19.2736 9.95528 19.2736 10.7446C19.2736 10.8619 19.2683 10.9686 19.2576 11.0646C19.2576 11.1606 19.2523 11.2353 19.2416 11.2886H12.9376C12.9803 11.7366 13.0923 12.1259 13.2736 12.4566C13.5083 12.8726 13.8176 13.1873 14.2016 13.4006C14.5856 13.6139 15.0016 13.7206 15.4496 13.7206C15.9936 13.7206 16.447 13.5979 16.8096 13.3526C17.183 13.0966 17.4763 12.7819 17.6896 12.4086L19.1136 13.0966C18.7616 13.7366 18.2816 14.2593 17.6736 14.6646C17.0656 15.0593 16.3083 15.2566 15.4016 15.2566ZM13.0336 9.99261H17.5616C17.551 9.78994 17.4976 9.57661 17.4016 9.35261C17.3056 9.11794 17.167 8.90461 16.9856 8.71261C16.8043 8.52061 16.575 8.36594 16.2976 8.24861C16.0203 8.12061 15.695 8.05661 15.3216 8.05661C14.8523 8.05661 14.4363 8.17928 14.0736 8.42461C13.711 8.65928 13.4283 8.98994 13.2256 9.41661C13.1403 9.59794 13.0763 9.78994 13.0336 9.99261ZM24.0809 15.2566C23.4302 15.2566 22.8649 15.1606 22.3849 14.9686C21.9049 14.7659 21.5102 14.4993 21.2009 14.1686C20.8915 13.8273 20.6622 13.4593 20.5129 13.0646L22.0649 12.3926C22.2569 12.8299 22.5289 13.1659 22.8809 13.4006C23.2435 13.6246 23.6595 13.7366 24.1289 13.7366C24.5555 13.7366 24.9235 13.6619 25.2329 13.5126C25.5422 13.3526 25.6969 13.0966 25.6969 12.7446C25.6969 12.5206 25.6222 12.3393 25.4729 12.2006C25.3342 12.0513 25.1422 11.9286 24.8969 11.8326C24.6622 11.7366 24.3902 11.6513 24.0809 11.5766L23.1049 11.3526C22.7209 11.2566 22.3529 11.1073 22.0009 10.9046C21.6595 10.6913 21.3822 10.4246 21.1689 10.1046C20.9555 9.78461 20.8489 9.40594 20.8489 8.96861C20.8489 8.47794 20.9875 8.05661 21.2649 7.70461C21.5529 7.34194 21.9369 7.06461 22.4169 6.87261C22.8969 6.68061 23.4142 6.58461 23.9689 6.58461C24.4809 6.58461 24.9449 6.65394 25.3609 6.79261C25.7875 6.92061 26.1555 7.11794 26.4649 7.38461C26.7849 7.64061 27.0355 7.96061 27.2169 8.34461L25.7289 9.01661C25.5475 8.65394 25.3022 8.40328 24.9929 8.26461C24.6835 8.11528 24.3475 8.04061 23.9849 8.04061C23.5795 8.04061 23.2382 8.12594 22.9609 8.29661C22.6942 8.45661 22.5609 8.66994 22.5609 8.93661C22.5609 9.21394 22.6782 9.43261 22.9129 9.59261C23.1582 9.75261 23.4569 9.88061 23.8089 9.97661L24.9929 10.2646C25.8035 10.4673 26.4115 10.7766 26.8169 11.1926C27.2222 11.5979 27.4249 12.0939 27.4249 12.6806C27.4249 13.2033 27.2755 13.6619 26.9769 14.0566C26.6782 14.4406 26.2729 14.7393 25.7609 14.9526C25.2595 15.1553 24.6995 15.2566 24.0809 15.2566ZM32.8891 15.2566C32.0891 15.2566 31.3745 15.0699 30.7451 14.6966C30.1158 14.3233 29.6198 13.8113 29.2571 13.1606C28.9051 12.5099 28.7291 11.7686 28.7291 10.9366C28.7291 10.1579 28.8998 9.43794 29.2411 8.77661C29.5825 8.11528 30.0571 7.58728 30.6651 7.19261C31.2838 6.78728 31.9931 6.58461 32.7931 6.58461C33.6358 6.58461 34.3505 6.76594 34.9371 7.12861C35.5345 7.49128 35.9878 7.98728 36.2971 8.61661C36.6065 9.24594 36.7611 9.95528 36.7611 10.7446C36.7611 10.8619 36.7558 10.9686 36.7451 11.0646C36.7451 11.1606 36.7398 11.2353 36.7291 11.2886H30.4251C30.4678 11.7366 30.5798 12.1259 30.7611 12.4566C30.9958 12.8726 31.3051 13.1873 31.6891 13.4006C32.0731 13.6139 32.4891 13.7206 32.9371 13.7206C33.4811 13.7206 33.9345 13.5979 34.2971 13.3526C34.6705 13.0966 34.9638 12.7819 35.1771 12.4086L36.6011 13.0966C36.2491 13.7366 35.7691 14.2593 35.1611 14.6646C34.5531 15.0593 33.7958 15.2566 32.8891 15.2566ZM30.5211 9.99261H35.0491C35.0385 9.78994 34.9851 9.57661 34.8891 9.35261C34.7931 9.11794 34.6545 8.90461 34.4731 8.71261C34.2918 8.52061 34.0625 8.36594 33.7851 8.24861C33.5078 8.12061 33.1825 8.05661 32.8091 8.05661C32.3398 8.05661 31.9238 8.17928 31.5611 8.42461C31.1985 8.65928 30.9158 8.98994 30.7131 9.41661C30.6278 9.59794 30.5638 9.78994 30.5211 9.99261ZM38.5142 15.0006V6.84061H40.1462V8.04061H40.2422C40.3702 7.76328 40.5516 7.51794 40.7862 7.30461C41.0316 7.09128 41.3089 6.92061 41.6182 6.79261C41.9382 6.66461 42.2689 6.60061 42.6102 6.60061C42.8342 6.60061 43.0209 6.61661 43.1702 6.64861C43.3302 6.66994 43.4742 6.70728 43.6022 6.76061V8.55261C43.3996 8.46728 43.1916 8.39794 42.9782 8.34461C42.7756 8.29128 42.5622 8.26461 42.3382 8.26461C41.9329 8.26461 41.5702 8.37661 41.2502 8.60061C40.9409 8.81394 40.6956 9.10194 40.5142 9.46461C40.3329 9.82728 40.2422 10.2326 40.2422 10.6806V15.0006H38.5142ZM47.8318 15.0006L44.4558 6.84061H46.3758L48.6638 12.7766H48.7438L51.0798 6.84061H52.9678L49.5598 15.0006H47.8318ZM56.6399 15.2566C56.0532 15.2566 55.5305 15.1393 55.0719 14.9046C54.6239 14.6699 54.2665 14.3499 53.9999 13.9446C53.7439 13.5286 53.6159 13.0539 53.6159 12.5206C53.6159 11.9339 53.7652 11.4379 54.0639 11.0326C54.3732 10.6273 54.7839 10.3179 55.2959 10.1046C55.8079 9.89128 56.3732 9.78461 56.9919 9.78461C57.3332 9.78461 57.6479 9.81128 57.9359 9.86461C58.2345 9.90728 58.4905 9.96061 58.7039 10.0246C58.9279 10.0886 59.1039 10.1579 59.2319 10.2326V9.80061C59.2319 9.26728 59.0399 8.84061 58.6559 8.52061C58.2719 8.20061 57.7759 8.04061 57.1679 8.04061C56.7519 8.04061 56.3572 8.13661 55.9839 8.32861C55.6105 8.50994 55.3119 8.76061 55.0879 9.08061L53.9039 8.16861C54.1385 7.83794 54.4212 7.55528 54.7519 7.32061C55.0932 7.08594 55.4719 6.90461 55.8879 6.77661C56.3145 6.64861 56.7572 6.58461 57.2159 6.58461C58.3999 6.58461 59.3119 6.87794 59.9519 7.46461C60.5919 8.04061 60.9119 8.85128 60.9119 9.89661V15.0006H59.2319V13.9926H59.1359C58.9972 14.2059 58.8052 14.4086 58.5599 14.6006C58.3252 14.7926 58.0425 14.9473 57.7119 15.0646C57.3919 15.1926 57.0345 15.2566 56.6399 15.2566ZM56.9439 13.8486C57.3919 13.8486 57.7865 13.7419 58.1279 13.5286C58.4799 13.3153 58.7519 13.0379 58.9439 12.6966C59.1359 12.3446 59.2319 11.9659 59.2319 11.5606C58.9972 11.4219 58.7092 11.3099 58.3679 11.2246C58.0372 11.1286 57.6852 11.0806 57.3119 11.0806C56.6079 11.0806 56.1065 11.2193 55.8079 11.4966C55.5092 11.7739 55.3599 12.1206 55.3599 12.5366C55.3599 12.9206 55.5039 13.2353 55.7919 13.4806C56.0799 13.7259 56.4639 13.8486 56.9439 13.8486ZM69.4086 15.2566C68.822 15.2566 68.2993 15.1393 67.8406 14.9046C67.3926 14.6699 67.0353 14.3499 66.7686 13.9446C66.5126 13.5286 66.3846 13.0539 66.3846 12.5206C66.3846 11.9339 66.534 11.4379 66.8326 11.0326C67.142 10.6273 67.5526 10.3179 68.0646 10.1046C68.5766 9.89128 69.142 9.78461 69.7606 9.78461C70.102 9.78461 70.4166 9.81128 70.7046 9.86461C71.0033 9.90728 71.2593 9.96061 71.4726 10.0246C71.6966 10.0886 71.8726 10.1579 72.0006 10.2326V9.80061C72.0006 9.26728 71.8086 8.84061 71.4246 8.52061C71.0406 8.20061 70.5446 8.04061 69.9366 8.04061C69.5206 8.04061 69.126 8.13661 68.7526 8.32861C68.3793 8.50994 68.0806 8.76061 67.8566 9.08061L66.6726 8.16861C66.9073 7.83794 67.19 7.55528 67.5206 7.32061C67.862 7.08594 68.2406 6.90461 68.6566 6.77661C69.0833 6.64861 69.526 6.58461 69.9846 6.58461C71.1686 6.58461 72.0806 6.87794 72.7206 7.46461C73.3606 8.04061 73.6806 8.85128 73.6806 9.89661V15.0006H72.0006V13.9926H71.9046C71.766 14.2059 71.574 14.4086 71.3286 14.6006C71.094 14.7926 70.8113 14.9473 70.4806 15.0646C70.1606 15.1926 69.8033 15.2566 69.4086 15.2566ZM69.7126 13.8486C70.1606 13.8486 70.5553 13.7419 70.8966 13.5286C71.2486 13.3153 71.5206 13.0379 71.7126 12.6966C71.9046 12.3446 72.0006 11.9659 72.0006 11.5606C71.766 11.4219 71.478 11.3099 71.1366 11.2246C70.806 11.1286 70.454 11.0806 70.0806 11.0806C69.3766 11.0806 68.8753 11.2193 68.5766 11.4966C68.278 11.7739 68.1286 12.1206 68.1286 12.5366C68.1286 12.9206 68.2726 13.2353 68.5606 13.4806C68.8486 13.7259 69.2326 13.8486 69.7126 13.8486ZM75.733 15.0006V6.84061H77.365V7.96061H77.461C77.621 7.69394 77.829 7.45928 78.085 7.25661C78.341 7.05394 78.629 6.89394 78.949 6.77661C79.2797 6.64861 79.621 6.58461 79.973 6.58461C80.581 6.58461 81.0983 6.72861 81.525 7.01661C81.9517 7.30461 82.2557 7.66728 82.437 8.10461C82.7037 7.67794 83.0663 7.32061 83.525 7.03261C83.9837 6.73394 84.5437 6.58461 85.205 6.58461C86.165 6.58461 86.8797 6.87794 87.349 7.46461C87.8183 8.04061 88.053 8.80861 88.053 9.76861V15.0006H86.341V10.0566C86.341 9.39528 86.197 8.91528 85.909 8.61661C85.6317 8.31794 85.2423 8.16861 84.741 8.16861C84.3463 8.16861 83.9997 8.28061 83.701 8.50461C83.4023 8.71794 83.1677 9.01128 82.997 9.38461C82.837 9.75794 82.757 10.1739 82.757 10.6326V15.0006H81.045V10.0566C81.045 9.40594 80.901 8.93128 80.613 8.63261C80.325 8.32328 79.9197 8.16861 79.397 8.16861C79.0237 8.16861 78.6877 8.28061 78.389 8.50461C78.101 8.72861 77.8717 9.02728 77.701 9.40061C77.541 9.77394 77.461 10.1899 77.461 10.6486V15.0006H75.733ZM94.5006 15.2566C94.0846 15.2566 93.706 15.1926 93.3646 15.0646C93.0233 14.9366 92.7246 14.7713 92.4686 14.5686C92.2233 14.3553 92.026 14.1366 91.8766 13.9126H91.7806V15.0006H90.1486V3.54461H91.8766V6.80861L91.7806 7.94461H91.8766C92.026 7.70994 92.2233 7.49128 92.4686 7.28861C92.7246 7.07528 93.0233 6.90461 93.3646 6.77661C93.706 6.64861 94.0846 6.58461 94.5006 6.58461C95.2473 6.58461 95.914 6.77128 96.5006 7.14461C97.0873 7.51794 97.5513 8.02994 97.8926 8.68061C98.2446 9.33128 98.4206 10.0779 98.4206 10.9206C98.4206 11.7633 98.2446 12.5099 97.8926 13.1606C97.5513 13.8113 97.0873 14.3233 96.5006 14.6966C95.914 15.0699 95.2473 15.2566 94.5006 15.2566ZM94.2446 13.6726C94.6713 13.6726 95.0713 13.5606 95.4446 13.3366C95.8286 13.1126 96.1326 12.7926 96.3566 12.3766C96.5913 11.9606 96.7086 11.4753 96.7086 10.9206C96.7086 10.3553 96.5913 9.86994 96.3566 9.46461C96.1326 9.04861 95.8286 8.72861 95.4446 8.50461C95.0713 8.28061 94.6713 8.16861 94.2446 8.16861C93.818 8.16861 93.418 8.28061 93.0446 8.50461C92.6713 8.72861 92.3673 9.04861 92.1326 9.46461C91.898 9.86994 91.7806 10.3553 91.7806 10.9206C91.7806 11.4859 91.898 11.9766 92.1326 12.3926C92.3673 12.7979 92.6713 13.1126 93.0446 13.3366C93.418 13.5606 93.818 13.6726 94.2446 13.6726Z" fill="white"/>
<g id="GPay (Dark)">
<g id="GPay">
<g id="Pay">
<path id="Fill 1" fill-rule="evenodd" clip-rule="evenodd" d="M127.356 3.42339V8.16175H130.278C130.974 8.16175 131.55 7.92781 132.005 7.45993C132.473 6.99313 132.707 6.43644 132.707 5.79203C132.707 5.16061 132.473 4.61041 132.005 4.14254C131.55 3.66274 130.974 3.4223 130.278 3.4223H127.356V3.42339ZM127.356 9.82966V15.3262H125.611V1.75549H130.24C131.417 1.75549 132.415 2.14756 133.238 2.93061C134.073 3.71365 134.491 4.66782 134.491 5.79203C134.491 6.94224 134.073 7.90291 133.238 8.67296C132.428 9.44409 131.429 9.82858 130.24 9.82858H127.356V9.82966Z" fill="white"/>
<path id="Fill 3" fill-rule="evenodd" clip-rule="evenodd" d="M136.255 12.4831C136.255 12.9379 136.448 13.317 136.834 13.6203C137.22 13.9235 137.672 14.0752 138.19 14.0752C138.924 14.0752 139.578 13.8032 140.153 13.2607C140.729 12.717 141.017 12.0791 141.017 11.3469C140.472 10.917 139.713 10.7025 138.74 10.7025C138.031 10.7025 137.44 10.8736 136.966 11.2148C136.492 11.5559 136.255 11.9773 136.255 12.4831M138.513 5.73566C139.803 5.73566 140.821 6.08007 141.569 6.76889C142.314 7.45771 142.687 8.40213 142.687 9.60216V15.3261H141.018V14.0373H140.942C140.221 15.0985 139.259 15.6294 138.058 15.6294C137.033 15.6294 136.176 15.3261 135.487 14.7196C134.797 14.1131 134.453 13.3549 134.453 12.4452C134.453 11.4845 134.816 10.7208 135.543 10.1523C136.271 9.58375 137.241 9.2989 138.456 9.2989C139.492 9.2989 140.346 9.48844 141.017 9.86751V9.46894C141.017 8.86243 140.776 8.34798 140.296 7.92451C139.814 7.50103 139.252 7.28984 138.607 7.28984C137.633 7.28984 136.862 7.70032 136.293 8.52235L134.755 7.55519C135.603 6.34217 136.855 5.73566 138.513 5.73566" fill="white"/>
<path id="Fill 5" fill-rule="evenodd" clip-rule="evenodd" d="M152.269 6.03894L146.443 19.4201H144.641L146.804 14.738L142.971 6.03894H144.869L147.639 12.7106H147.677L150.371 6.03894H152.269Z" fill="white"/>
</g>
<g id="G">
<path id="Fill 8" fill-rule="evenodd" clip-rule="evenodd" d="M120.303 8.64473C120.303 8.09563 120.256 7.56601 120.168 7.05914H112.806V10.0625H117.023C116.842 11.0414 116.294 11.8744 115.464 12.4322V14.3828H117.98C119.454 13.0246 120.303 11.0177 120.303 8.64473" fill="#4285F4"/>
<path id="Fill 10" fill-rule="evenodd" clip-rule="evenodd" d="M112.806 16.2651C114.913 16.2651 116.687 15.5741 117.98 14.3828L115.464 12.4322C114.763 12.9033 113.861 13.1784 112.806 13.1784C110.77 13.1784 109.042 11.8073 108.424 9.95959H105.832V11.9687C107.116 14.516 109.757 16.2651 112.806 16.2651" fill="#34A853"/>
<path id="Fill 12" fill-rule="evenodd" clip-rule="evenodd" d="M108.424 9.9596C108.266 9.48847 108.179 8.98593 108.179 8.46715C108.179 7.94837 108.266 7.44583 108.424 6.9747V4.96564H105.832C105.3 6.01837 105 7.20756 105 8.46715C105 9.72674 105.3 10.916 105.832 11.9687L108.424 9.9596Z" fill="#FABB05"/>
<path id="Fill 14" fill-rule="evenodd" clip-rule="evenodd" d="M112.806 3.75583C113.957 3.75583 114.988 4.15115 115.801 4.92553V4.92661L118.029 2.70094C116.676 1.44243 114.912 0.669128 112.806 0.669128C109.757 0.669128 107.116 2.41826 105.832 4.9656L108.424 6.97467C109.042 5.12698 110.77 3.75583 112.806 3.75583" fill="#E94235"/>
</g>
</g>
</g>
</g>
</svg>
