<svg width="152" height="21" viewBox="0 0 152 21" fill="none" xmlns="http://www.w3.org/2000/svg">
<g id="ca_buy_with_Pay_NBG">
<path id="Left Text" d="M6.713 15.2566C5.87034 15.2566 5.08634 15.1073 4.361 14.8086C3.63567 14.4993 3.001 14.0779 2.457 13.5446C1.92367 13.0006 1.50233 12.3659 1.193 11.6406C0.894335 10.9046 0.745002 10.1153 0.745002 9.27261C0.745002 8.41928 0.894335 7.62994 1.193 6.90461C1.50233 6.17928 1.92367 5.54994 2.457 5.01661C3.001 4.47261 3.63567 4.05128 4.361 3.75261C5.08634 3.44328 5.87034 3.28861 6.713 3.28861C7.31034 3.28861 7.865 3.36328 8.377 3.51261C8.889 3.66194 9.35834 3.87528 9.785 4.15261C10.2117 4.42994 10.601 4.76594 10.953 5.16061L9.721 6.36061C9.465 6.05128 9.18767 5.79528 8.889 5.59261C8.59034 5.37928 8.25967 5.21928 7.897 5.11261C7.545 5.00594 7.15567 4.95261 6.729 4.95261C5.961 4.95261 5.257 5.13394 4.617 5.49661C3.977 5.84861 3.465 6.34461 3.081 6.98461C2.70767 7.62461 2.521 8.38728 2.521 9.27261C2.521 10.1473 2.70767 10.9099 3.081 11.5606C3.465 12.2006 3.977 12.7019 4.617 13.0646C5.257 13.4166 5.961 13.5926 6.729 13.5926C7.19834 13.5926 7.625 13.5286 8.009 13.4006C8.40367 13.2726 8.76634 13.0859 9.097 12.8406C9.42767 12.5953 9.73167 12.3073 10.009 11.9766L11.273 13.1926C10.921 13.6086 10.5103 13.9713 10.041 14.2806C9.57167 14.5899 9.05967 14.8299 8.505 15.0006C7.95034 15.1713 7.353 15.2566 6.713 15.2566ZM16.6324 15.2566C15.7897 15.2566 15.0484 15.0646 14.4084 14.6806C13.7684 14.2966 13.267 13.7793 12.9044 13.1286C12.5417 12.4673 12.3604 11.7313 12.3604 10.9206C12.3604 10.1099 12.5417 9.37928 12.9044 8.72861C13.267 8.06728 13.7684 7.54461 14.4084 7.16061C15.0484 6.77661 15.7897 6.58461 16.6324 6.58461C17.4644 6.58461 18.2004 6.78194 18.8404 7.17661C19.4804 7.56061 19.9817 8.07794 20.3444 8.72861C20.707 9.37928 20.8884 10.1099 20.8884 10.9206C20.8884 11.7313 20.707 12.4673 20.3444 13.1286C19.9817 13.7793 19.4804 14.2966 18.8404 14.6806C18.2004 15.0646 17.4644 15.2566 16.6324 15.2566ZM16.6324 13.6726C17.0804 13.6726 17.4964 13.5659 17.8804 13.3526C18.2644 13.1286 18.5737 12.8139 18.8084 12.4086C19.0537 11.9926 19.1764 11.4966 19.1764 10.9206C19.1764 10.3446 19.0537 9.85394 18.8084 9.44861C18.5737 9.03261 18.2644 8.71794 17.8804 8.50461C17.4964 8.28061 17.0804 8.16861 16.6324 8.16861C16.1844 8.16861 15.763 8.28061 15.3684 8.50461C14.9844 8.71794 14.6697 9.03261 14.4244 9.44861C14.1897 9.85394 14.0724 10.3446 14.0724 10.9206C14.0724 11.4966 14.1897 11.9926 14.4244 12.4086C14.6697 12.8139 14.9897 13.1286 15.3844 13.3526C15.779 13.5659 16.195 13.6726 16.6324 13.6726ZM22.4736 15.0006V6.84061H24.1056V7.96061H24.2016C24.3616 7.69394 24.5696 7.45928 24.8256 7.25661C25.0816 7.05394 25.3696 6.89394 25.6896 6.77661C26.0203 6.64861 26.3616 6.58461 26.7136 6.58461C27.3216 6.58461 27.839 6.72861 28.2656 7.01661C28.6923 7.30461 28.9963 7.66728 29.1776 8.10461C29.4443 7.67794 29.807 7.32061 30.2656 7.03261C30.7243 6.73394 31.2843 6.58461 31.9456 6.58461C32.9056 6.58461 33.6203 6.87794 34.0896 7.46461C34.559 8.04061 34.7936 8.80861 34.7936 9.76861V15.0006H33.0816V10.0566C33.0816 9.39528 32.9376 8.91528 32.6496 8.61661C32.3723 8.31794 31.983 8.16861 31.4816 8.16861C31.087 8.16861 30.7403 8.28061 30.4416 8.50461C30.143 8.71794 29.9083 9.01128 29.7376 9.38461C29.5776 9.75794 29.4976 10.1739 29.4976 10.6326V15.0006H27.7856V10.0566C27.7856 9.40594 27.6416 8.93128 27.3536 8.63261C27.0656 8.32328 26.6603 8.16861 26.1376 8.16861C25.7643 8.16861 25.4283 8.28061 25.1296 8.50461C24.8416 8.72861 24.6123 9.02728 24.4416 9.40061C24.2816 9.77394 24.2016 10.1899 24.2016 10.6486V15.0006H22.4736ZM36.8733 18.4566V6.84061H38.4893V7.94461H38.5853C38.7346 7.70994 38.9319 7.49128 39.1773 7.28861C39.4333 7.07528 39.7319 6.90461 40.0733 6.77661C40.4146 6.64861 40.7933 6.58461 41.2093 6.58461C41.9559 6.58461 42.6226 6.77128 43.2093 7.14461C43.7959 7.51794 44.2599 8.02994 44.6013 8.68061C44.9533 9.33128 45.1293 10.0779 45.1293 10.9206C45.1293 11.7633 44.9533 12.5099 44.6013 13.1606C44.2599 13.8113 43.7959 14.3233 43.2093 14.6966C42.6226 15.0699 41.9559 15.2566 41.2093 15.2566C40.5906 15.2566 40.0519 15.1179 39.5933 14.8406C39.1346 14.5633 38.7986 14.2539 38.5853 13.9126H38.4893L38.5853 15.0486V18.4566H36.8733ZM40.9533 13.6726C41.3799 13.6726 41.7799 13.5606 42.1533 13.3366C42.5373 13.1126 42.8413 12.7926 43.0653 12.3766C43.2999 11.9606 43.4173 11.4753 43.4173 10.9206C43.4173 10.3553 43.2999 9.86994 43.0653 9.46461C42.8413 9.04861 42.5373 8.72861 42.1533 8.50461C41.7799 8.28061 41.3799 8.16861 40.9533 8.16861C40.5266 8.16861 40.1266 8.28061 39.7533 8.50461C39.3799 8.72861 39.0759 9.04861 38.8413 9.46461C38.6066 9.86994 38.4893 10.3553 38.4893 10.9206C38.4893 11.4859 38.6066 11.9766 38.8413 12.3926C39.0759 12.7979 39.3799 13.1126 39.7533 13.3366C40.1266 13.5606 40.5266 13.6726 40.9533 13.6726ZM46.7893 15.0006V6.84061H48.4213V8.04061H48.5173C48.6453 7.76328 48.8266 7.51794 49.0613 7.30461C49.3066 7.09128 49.5839 6.92061 49.8932 6.79261C50.2133 6.66461 50.5439 6.60061 50.8853 6.60061C51.1093 6.60061 51.2959 6.61661 51.4453 6.64861C51.6053 6.66994 51.7493 6.70728 51.8773 6.76061V8.55261C51.6746 8.46728 51.4666 8.39794 51.2533 8.34461C51.0506 8.29128 50.8373 8.26461 50.6133 8.26461C50.2079 8.26461 49.8453 8.37661 49.5253 8.60061C49.2159 8.81394 48.9706 9.10194 48.7893 9.46461C48.6079 9.82728 48.5173 10.2326 48.5173 10.6806V15.0006H46.7893ZM55.6399 15.2566C55.0532 15.2566 54.5305 15.1393 54.0719 14.9046C53.6239 14.6699 53.2665 14.3499 52.9999 13.9446C52.7439 13.5286 52.6159 13.0539 52.6159 12.5206C52.6159 11.9339 52.7652 11.4379 53.0639 11.0326C53.3732 10.6273 53.7839 10.3179 54.2959 10.1046C54.8079 9.89128 55.3732 9.78461 55.9919 9.78461C56.3332 9.78461 56.6479 9.81128 56.9359 9.86461C57.2345 9.90728 57.4905 9.96061 57.7039 10.0246C57.9279 10.0886 58.1039 10.1579 58.2319 10.2326V9.80061C58.2319 9.26728 58.0399 8.84061 57.6559 8.52061C57.2719 8.20061 56.7759 8.04061 56.1679 8.04061C55.7519 8.04061 55.3572 8.13661 54.9839 8.32861C54.6105 8.50994 54.3119 8.76061 54.0879 9.08061L52.9039 8.16861C53.1385 7.83794 53.4212 7.55528 53.7519 7.32061C54.0932 7.08594 54.4719 6.90461 54.8879 6.77661C55.3145 6.64861 55.7572 6.58461 56.2159 6.58461C57.3999 6.58461 58.3119 6.87794 58.9519 7.46461C59.5919 8.04061 59.9119 8.85128 59.9119 9.89661V15.0006H58.2319V13.9926H58.1359C57.9972 14.2059 57.8052 14.4086 57.5599 14.6006C57.3252 14.7926 57.0425 14.9473 56.7119 15.0646C56.3919 15.1926 56.0345 15.2566 55.6399 15.2566ZM55.9439 13.8486C56.3919 13.8486 56.7865 13.7419 57.1279 13.5286C57.4799 13.3153 57.7519 13.0379 57.9439 12.6966C58.1359 12.3446 58.2319 11.9659 58.2319 11.5606C57.9972 11.4219 57.7092 11.3099 57.3679 11.2246C57.0372 11.1286 56.6852 11.0806 56.3119 11.0806C55.6079 11.0806 55.1065 11.2193 54.8079 11.4966C54.5092 11.7739 54.3599 12.1206 54.3599 12.5366C54.3599 12.9206 54.5039 13.2353 54.7919 13.4806C55.0799 13.7259 55.4639 13.8486 55.9439 13.8486ZM68.4086 15.2566C67.822 15.2566 67.2993 15.1393 66.8406 14.9046C66.3926 14.6699 66.0353 14.3499 65.7686 13.9446C65.5126 13.5286 65.3846 13.0539 65.3846 12.5206C65.3846 11.9339 65.534 11.4379 65.8326 11.0326C66.142 10.6273 66.5526 10.3179 67.0646 10.1046C67.5766 9.89128 68.142 9.78461 68.7606 9.78461C69.102 9.78461 69.4166 9.81128 69.7046 9.86461C70.0033 9.90728 70.2593 9.96061 70.4726 10.0246C70.6966 10.0886 70.8726 10.1579 71.0006 10.2326V9.80061C71.0006 9.26728 70.8086 8.84061 70.4246 8.52061C70.0406 8.20061 69.5446 8.04061 68.9366 8.04061C68.5206 8.04061 68.126 8.13661 67.7526 8.32861C67.3793 8.50994 67.0806 8.76061 66.8566 9.08061L65.6726 8.16861C65.9073 7.83794 66.19 7.55528 66.5206 7.32061C66.862 7.08594 67.2406 6.90461 67.6566 6.77661C68.0833 6.64861 68.526 6.58461 68.9846 6.58461C70.1686 6.58461 71.0806 6.87794 71.7206 7.46461C72.3606 8.04061 72.6806 8.85128 72.6806 9.89661V15.0006H71.0006V13.9926H70.9046C70.766 14.2059 70.574 14.4086 70.3286 14.6006C70.094 14.7926 69.8113 14.9473 69.4806 15.0646C69.1606 15.1926 68.8033 15.2566 68.4086 15.2566ZM68.7126 13.8486C69.1606 13.8486 69.5553 13.7419 69.8966 13.5286C70.2486 13.3153 70.5206 13.0379 70.7126 12.6966C70.9046 12.3446 71.0006 11.9659 71.0006 11.5606C70.766 11.4219 70.478 11.3099 70.1366 11.2246C69.806 11.1286 69.454 11.0806 69.0806 11.0806C68.3766 11.0806 67.8753 11.2193 67.5766 11.4966C67.278 11.7739 67.1286 12.1206 67.1286 12.5366C67.1286 12.9206 67.2726 13.2353 67.5606 13.4806C67.8486 13.7259 68.2326 13.8486 68.7126 13.8486ZM74.733 15.0006V6.84061H76.365V7.96061H76.461C76.621 7.69394 76.829 7.45928 77.085 7.25661C77.341 7.05394 77.629 6.89394 77.949 6.77661C78.2797 6.64861 78.621 6.58461 78.973 6.58461C79.581 6.58461 80.0983 6.72861 80.525 7.01661C80.9517 7.30461 81.2557 7.66728 81.437 8.10461C81.7037 7.67794 82.0663 7.32061 82.525 7.03261C82.9837 6.73394 83.5437 6.58461 84.205 6.58461C85.165 6.58461 85.8797 6.87794 86.349 7.46461C86.8183 8.04061 87.053 8.80861 87.053 9.76861V15.0006H85.341V10.0566C85.341 9.39528 85.197 8.91528 84.909 8.61661C84.6317 8.31794 84.2423 8.16861 83.741 8.16861C83.3463 8.16861 82.9997 8.28061 82.701 8.50461C82.4023 8.71794 82.1677 9.01128 81.997 9.38461C81.837 9.75794 81.757 10.1739 81.757 10.6326V15.0006H80.045V10.0566C80.045 9.40594 79.901 8.93128 79.613 8.63261C79.325 8.32328 78.9197 8.16861 78.397 8.16861C78.0237 8.16861 77.6877 8.28061 77.389 8.50461C77.101 8.72861 76.8717 9.02728 76.701 9.40061C76.541 9.77394 76.461 10.1899 76.461 10.6486V15.0006H74.733ZM93.5006 15.2566C93.0846 15.2566 92.706 15.1926 92.3646 15.0646C92.0233 14.9366 91.7246 14.7713 91.4686 14.5686C91.2233 14.3553 91.026 14.1366 90.8766 13.9126H90.7806V15.0006H89.1486V3.54461H90.8766V6.80861L90.7806 7.94461H90.8766C91.026 7.70994 91.2233 7.49128 91.4686 7.28861C91.7246 7.07528 92.0233 6.90461 92.3646 6.77661C92.706 6.64861 93.0846 6.58461 93.5006 6.58461C94.2473 6.58461 94.914 6.77128 95.5006 7.14461C96.0873 7.51794 96.5513 8.02994 96.8926 8.68061C97.2446 9.33128 97.4206 10.0779 97.4206 10.9206C97.4206 11.7633 97.2446 12.5099 96.8926 13.1606C96.5513 13.8113 96.0873 14.3233 95.5006 14.6966C94.914 15.0699 94.2473 15.2566 93.5006 15.2566ZM93.2446 13.6726C93.6713 13.6726 94.0713 13.5606 94.4446 13.3366C94.8286 13.1126 95.1326 12.7926 95.3566 12.3766C95.5913 11.9606 95.7086 11.4753 95.7086 10.9206C95.7086 10.3553 95.5913 9.86994 95.3566 9.46461C95.1326 9.04861 94.8286 8.72861 94.4446 8.50461C94.0713 8.28061 93.6713 8.16861 93.2446 8.16861C92.818 8.16861 92.418 8.28061 92.0446 8.50461C91.6713 8.72861 91.3673 9.04861 91.1326 9.46461C90.898 9.86994 90.7806 10.3553 90.7806 10.9206C90.7806 11.4859 90.898 11.9766 91.1326 12.3926C91.3673 12.7979 91.6713 13.1126 92.0446 13.3366C92.418 13.5606 92.818 13.6726 93.2446 13.6726Z" fill="white"/>
<g id="GPay (Dark)">
<g id="GPay">
<g id="Pay">
<path id="Fill 1" fill-rule="evenodd" clip-rule="evenodd" d="M126.356 3.42339V8.16175H129.278C129.974 8.16175 130.55 7.92781 131.005 7.45993C131.473 6.99313 131.707 6.43644 131.707 5.79203C131.707 5.16061 131.473 4.61041 131.005 4.14254C130.55 3.66274 129.974 3.4223 129.278 3.4223H126.356V3.42339ZM126.356 9.82966V15.3262H124.611V1.75549H129.24C130.417 1.75549 131.415 2.14756 132.238 2.93061C133.073 3.71365 133.491 4.66782 133.491 5.79203C133.491 6.94224 133.073 7.90291 132.238 8.67296C131.428 9.44409 130.429 9.82858 129.24 9.82858H126.356V9.82966Z" fill="white"/>
<path id="Fill 3" fill-rule="evenodd" clip-rule="evenodd" d="M135.255 12.4831C135.255 12.9379 135.448 13.317 135.834 13.6203C136.22 13.9235 136.672 14.0752 137.19 14.0752C137.924 14.0752 138.578 13.8032 139.153 13.2607C139.729 12.717 140.017 12.0791 140.017 11.3469C139.472 10.917 138.713 10.7025 137.74 10.7025C137.031 10.7025 136.44 10.8736 135.966 11.2148C135.492 11.5559 135.255 11.9773 135.255 12.4831M137.513 5.73566C138.803 5.73566 139.821 6.08007 140.569 6.76889C141.314 7.45771 141.687 8.40213 141.687 9.60216V15.3261H140.018V14.0373H139.942C139.221 15.0985 138.259 15.6294 137.058 15.6294C136.033 15.6294 135.176 15.3261 134.487 14.7196C133.797 14.1131 133.453 13.3549 133.453 12.4452C133.453 11.4845 133.816 10.7208 134.543 10.1523C135.271 9.58375 136.241 9.2989 137.456 9.2989C138.492 9.2989 139.346 9.48844 140.017 9.86751V9.46894C140.017 8.86243 139.776 8.34798 139.296 7.92451C138.814 7.50103 138.252 7.28984 137.607 7.28984C136.633 7.28984 135.862 7.70032 135.293 8.52235L133.755 7.55519C134.603 6.34217 135.855 5.73566 137.513 5.73566" fill="white"/>
<path id="Fill 5" fill-rule="evenodd" clip-rule="evenodd" d="M151.269 6.03894L145.443 19.4201H143.641L145.804 14.738L141.971 6.03894H143.869L146.639 12.7106H146.677L149.371 6.03894H151.269Z" fill="white"/>
</g>
<g id="G">
<path id="Fill 8" fill-rule="evenodd" clip-rule="evenodd" d="M119.303 8.64473C119.303 8.09563 119.256 7.56601 119.168 7.05914H111.806V10.0625H116.023C115.842 11.0414 115.294 11.8744 114.464 12.4322V14.3828H116.98C118.454 13.0246 119.303 11.0177 119.303 8.64473" fill="#4285F4"/>
<path id="Fill 10" fill-rule="evenodd" clip-rule="evenodd" d="M111.806 16.2651C113.913 16.2651 115.687 15.5741 116.98 14.3828L114.464 12.4322C113.763 12.9033 112.861 13.1784 111.806 13.1784C109.77 13.1784 108.042 11.8073 107.424 9.95959H104.832V11.9687C106.116 14.516 108.757 16.2651 111.806 16.2651" fill="#34A853"/>
<path id="Fill 12" fill-rule="evenodd" clip-rule="evenodd" d="M107.424 9.9596C107.266 9.48847 107.179 8.98593 107.179 8.46715C107.179 7.94837 107.266 7.44583 107.424 6.9747V4.96564H104.832C104.3 6.01837 104 7.20756 104 8.46715C104 9.72674 104.3 10.916 104.832 11.9687L107.424 9.9596Z" fill="#FABB05"/>
<path id="Fill 14" fill-rule="evenodd" clip-rule="evenodd" d="M111.806 3.75583C112.957 3.75583 113.988 4.15115 114.801 4.92553V4.92661L117.029 2.70094C115.676 1.44243 113.912 0.669128 111.806 0.669128C108.757 0.669128 106.116 2.41826 104.832 4.9656L107.424 6.97467C108.042 5.12698 109.77 3.75583 111.806 3.75583" fill="#E94235"/>
</g>
</g>
</g>
</g>
</svg>
