<svg width="398" height="38" viewBox="0 0 398 38" fill="none" xmlns="http://www.w3.org/2000/svg">
<g id="ca_checkout_with_Light">
<path id="Text" d="M7.37553 30V12.864H1.74753V9.952H16.0275V12.864H10.4275V30H7.37553ZM17.1382 30V15.72H19.9942V17.82H20.1622C20.4796 17.092 21.0209 16.4947 21.7862 16.028C22.5702 15.5427 23.4102 15.3 24.3062 15.3C24.6982 15.3 25.0249 15.328 25.2862 15.384C25.5662 15.44 25.8182 15.5053 26.0422 15.58V18.716C25.6876 18.5667 25.3236 18.4453 24.9502 18.352C24.5956 18.2587 24.2222 18.212 23.8302 18.212C23.1209 18.212 22.4862 18.408 21.9262 18.8C21.3849 19.1733 20.9556 19.6867 20.6382 20.34C20.3209 20.9747 20.1622 21.6747 20.1622 22.44V30H17.1382ZM32.6643 30.448C31.6376 30.448 30.723 30.252 29.9203 29.86C29.1176 29.4493 28.4923 28.88 28.0443 28.152C27.5963 27.424 27.3723 26.5933 27.3723 25.66C27.3723 24.652 27.6336 23.7933 28.1563 23.084C28.6976 22.356 29.4163 21.8053 30.3123 21.432C31.2083 21.0587 32.1976 20.872 33.2803 20.872C34.1763 20.872 34.9603 20.956 35.6323 21.124C36.323 21.292 36.8456 21.4693 37.2003 21.656V20.9C37.2003 19.9667 36.8643 19.22 36.1923 18.66C35.5203 18.1 34.6523 17.82 33.5883 17.82C32.8603 17.82 32.1696 17.988 31.5163 18.324C30.863 18.6413 30.3403 19.08 29.9483 19.64L27.8763 18.044C28.4923 17.1853 29.3043 16.5133 30.3123 16.028C31.339 15.524 32.459 15.272 33.6723 15.272C35.7443 15.272 37.3403 15.7853 38.4603 16.812C39.5803 17.82 40.1403 19.2387 40.1403 21.068V30H37.2003V28.236H37.0323C36.659 28.8147 36.099 29.328 35.3523 29.776C34.6056 30.224 33.7096 30.448 32.6643 30.448ZM33.1963 27.984C33.9803 27.984 34.671 27.7973 35.2683 27.424C35.8656 27.0507 36.3323 26.5653 36.6683 25.968C37.023 25.352 37.2003 24.6893 37.2003 23.98C36.771 23.7373 36.267 23.5413 35.6883 23.392C35.1096 23.224 34.4936 23.14 33.8403 23.14C32.6083 23.14 31.731 23.392 31.2083 23.896C30.6856 24.3813 30.4243 24.9787 30.4243 25.688C30.4243 26.36 30.6763 26.9107 31.1803 27.34C31.6843 27.7693 32.3563 27.984 33.1963 27.984ZM43.7695 30V15.72H46.6255V17.68H46.7935C47.2041 16.9893 47.8015 16.42 48.5855 15.972C49.3695 15.5053 50.2375 15.272 51.1895 15.272C52.2535 15.272 53.1588 15.524 53.9055 16.028C54.6521 16.532 55.1841 17.1667 55.5015 17.932C55.9681 17.1853 56.6028 16.56 57.4055 16.056C58.2081 15.5333 59.1881 15.272 60.3455 15.272C62.0255 15.272 63.2761 15.7853 64.0975 16.812C64.9188 17.82 65.3295 19.164 65.3295 20.844V30H62.3335V21.348C62.3335 20.2093 62.0815 19.3787 61.5775 18.856C61.0921 18.3147 60.4108 18.044 59.5335 18.044C58.8428 18.044 58.2361 18.24 57.7135 18.632C57.1908 19.0053 56.7801 19.5187 56.4815 20.172C56.2015 20.8253 56.0615 21.5533 56.0615 22.356V30H53.0655V21.348C53.0655 20.2093 52.8135 19.3787 52.3095 18.856C51.8055 18.3147 51.0961 18.044 50.1815 18.044C49.5095 18.044 48.9215 18.24 48.4175 18.632C47.9135 19.024 47.5121 19.5467 47.2135 20.2C46.9335 20.8533 46.7935 21.5813 46.7935 22.384V30H43.7695ZM70.7703 13.62C70.2103 13.62 69.725 13.424 69.3143 13.032C68.9223 12.6213 68.7263 12.136 68.7263 11.576C68.7263 11.016 68.9223 10.54 69.3143 10.148C69.725 9.756 70.2103 9.56 70.7703 9.56C71.3303 9.56 71.8063 9.756 72.1983 10.148C72.609 10.54 72.8143 11.016 72.8143 11.576C72.8143 12.136 72.609 12.6213 72.1983 13.032C71.8063 13.424 71.3303 13.62 70.7703 13.62ZM69.2583 30V15.72H72.2823V30H69.2583ZM77.7096 25.856V18.352H75.2176V15.72H77.7096V11.688H80.7336V15.72H84.2336V18.352H80.7336V25.212C80.7336 25.9213 80.8736 26.4627 81.1536 26.836C81.4523 27.2093 81.9469 27.396 82.6376 27.396C82.9923 27.396 83.2909 27.3493 83.5336 27.256C83.7949 27.1627 84.0563 27.032 84.3176 26.864V29.804C84.0003 29.9347 83.6643 30.0373 83.3096 30.112C82.9549 30.1867 82.5349 30.224 82.0496 30.224C80.7243 30.224 79.6696 29.8413 78.8856 29.076C78.1016 28.292 77.7096 27.2187 77.7096 25.856ZM91.6417 30.448C90.615 30.448 89.7003 30.252 88.8977 29.86C88.095 29.4493 87.4697 28.88 87.0217 28.152C86.5737 27.424 86.3497 26.5933 86.3497 25.66C86.3497 24.652 86.611 23.7933 87.1337 23.084C87.675 22.356 88.3937 21.8053 89.2897 21.432C90.1857 21.0587 91.175 20.872 92.2577 20.872C93.1537 20.872 93.9377 20.956 94.6097 21.124C95.3003 21.292 95.823 21.4693 96.1777 21.656V20.9C96.1777 19.9667 95.8417 19.22 95.1697 18.66C94.4977 18.1 93.6297 17.82 92.5657 17.82C91.8377 17.82 91.147 17.988 90.4937 18.324C89.8403 18.6413 89.3177 19.08 88.9257 19.64L86.8537 18.044C87.4697 17.1853 88.2817 16.5133 89.2897 16.028C90.3163 15.524 91.4363 15.272 92.6497 15.272C94.7217 15.272 96.3177 15.7853 97.4377 16.812C98.5577 17.82 99.1177 19.2387 99.1177 21.068V30H96.1777V28.236H96.0097C95.6363 28.8147 95.0763 29.328 94.3297 29.776C93.583 30.224 92.687 30.448 91.6417 30.448ZM92.1737 27.984C92.9577 27.984 93.6483 27.7973 94.2457 27.424C94.843 27.0507 95.3097 26.5653 95.6457 25.968C96.0003 25.352 96.1777 24.6893 96.1777 23.98C95.7483 23.7373 95.2443 23.5413 94.6657 23.392C94.087 23.224 93.471 23.14 92.8177 23.14C91.5857 23.14 90.7083 23.392 90.1857 23.896C89.663 24.3813 89.4017 24.9787 89.4017 25.688C89.4017 26.36 89.6537 26.9107 90.1577 27.34C90.6617 27.7693 91.3337 27.984 92.1737 27.984ZM109.61 30V9.952H112.634V30H109.61ZM120.842 30.448C119.816 30.448 118.901 30.252 118.098 29.86C117.296 29.4493 116.67 28.88 116.222 28.152C115.774 27.424 115.55 26.5933 115.55 25.66C115.55 24.652 115.812 23.7933 116.334 23.084C116.876 22.356 117.594 21.8053 118.49 21.432C119.386 21.0587 120.376 20.872 121.458 20.872C122.354 20.872 123.138 20.956 123.81 21.124C124.501 21.292 125.024 21.4693 125.378 21.656V20.9C125.378 19.9667 125.042 19.22 124.37 18.66C123.698 18.1 122.83 17.82 121.766 17.82C121.038 17.82 120.348 17.988 119.694 18.324C119.041 18.6413 118.518 19.08 118.126 19.64L116.054 18.044C116.67 17.1853 117.482 16.5133 118.49 16.028C119.517 15.524 120.637 15.272 121.85 15.272C123.922 15.272 125.518 15.7853 126.638 16.812C127.758 17.82 128.318 19.2387 128.318 21.068V30H125.378V28.236H125.21C124.837 28.8147 124.277 29.328 123.53 29.776C122.784 30.224 121.888 30.448 120.842 30.448ZM121.374 27.984C122.158 27.984 122.849 27.7973 123.446 27.424C124.044 27.0507 124.51 26.5653 124.846 25.968C125.201 25.352 125.378 24.6893 125.378 23.98C124.949 23.7373 124.445 23.5413 123.866 23.392C123.288 23.224 122.672 23.14 122.018 23.14C120.786 23.14 119.909 23.392 119.386 23.896C118.864 24.3813 118.602 24.9787 118.602 25.688C118.602 26.36 118.854 26.9107 119.358 27.34C119.862 27.7693 120.534 27.984 121.374 27.984ZM145.391 30.448C143.953 30.448 142.684 30.1213 141.583 29.468C140.481 28.8147 139.613 27.9187 138.979 26.78C138.344 25.6227 138.027 24.316 138.027 22.86C138.027 21.404 138.344 20.1067 138.979 18.968C139.613 17.8107 140.481 16.9053 141.583 16.252C142.684 15.5987 143.953 15.272 145.391 15.272C146.977 15.272 148.312 15.6267 149.395 16.336C150.496 17.0453 151.28 18.0067 151.747 19.22L149.003 20.34C148.349 18.8093 147.127 18.044 145.335 18.044C144.551 18.044 143.832 18.2493 143.179 18.66C142.525 19.052 142.003 19.612 141.611 20.34C141.219 21.0493 141.023 21.8893 141.023 22.86C141.023 23.8307 141.219 24.68 141.611 25.408C142.003 26.136 142.525 26.696 143.179 27.088C143.832 27.48 144.551 27.676 145.335 27.676C146.249 27.676 147.024 27.4707 147.659 27.06C148.293 26.6307 148.788 26.052 149.143 25.324L151.831 26.5C151.327 27.6387 150.524 28.5813 149.423 29.328C148.321 30.0747 146.977 30.448 145.391 30.448ZM161.307 30.448C159.832 30.448 158.535 30.112 157.415 29.44C156.295 28.768 155.417 27.8627 154.783 26.724C154.148 25.5853 153.831 24.2973 153.831 22.86C153.831 21.4413 154.148 20.1627 154.783 19.024C155.417 17.8667 156.295 16.952 157.415 16.28C158.535 15.608 159.832 15.272 161.307 15.272C162.763 15.272 164.051 15.608 165.171 16.28C166.291 16.952 167.168 17.8667 167.803 19.024C168.437 20.1627 168.755 21.4413 168.755 22.86C168.755 24.2973 168.437 25.5853 167.803 26.724C167.168 27.8627 166.291 28.768 165.171 29.44C164.051 30.112 162.763 30.448 161.307 30.448ZM161.307 27.676C162.091 27.676 162.819 27.4893 163.491 27.116C164.163 26.724 164.704 26.1733 165.115 25.464C165.544 24.736 165.759 23.868 165.759 22.86C165.759 21.852 165.544 20.9933 165.115 20.284C164.704 19.556 164.163 19.0053 163.491 18.632C162.819 18.24 162.091 18.044 161.307 18.044C160.523 18.044 159.785 18.24 159.095 18.632C158.423 19.0053 157.872 19.556 157.443 20.284C157.032 20.9933 156.827 21.852 156.827 22.86C156.827 23.868 157.032 24.736 157.443 25.464C157.872 26.1733 158.423 26.724 159.095 27.116C159.785 27.4893 160.523 27.676 161.307 27.676ZM171.566 30V15.72H174.422V17.68H174.59C175.001 16.9893 175.598 16.42 176.382 15.972C177.166 15.5053 178.034 15.272 178.986 15.272C180.05 15.272 180.956 15.524 181.702 16.028C182.449 16.532 182.981 17.1667 183.298 17.932C183.765 17.1853 184.4 16.56 185.202 16.056C186.005 15.5333 186.985 15.272 188.142 15.272C189.822 15.272 191.073 15.7853 191.894 16.812C192.716 17.82 193.126 19.164 193.126 20.844V30H190.13V21.348C190.13 20.2093 189.878 19.3787 189.374 18.856C188.889 18.3147 188.208 18.044 187.33 18.044C186.64 18.044 186.033 18.24 185.51 18.632C184.988 19.0053 184.577 19.5187 184.278 20.172C183.998 20.8253 183.858 21.5533 183.858 22.356V30H180.862V21.348C180.862 20.2093 180.61 19.3787 180.106 18.856C179.602 18.3147 178.893 18.044 177.978 18.044C177.306 18.044 176.718 18.24 176.214 18.632C175.71 19.024 175.309 19.5467 175.01 20.2C174.73 20.8533 174.59 21.5813 174.59 22.384V30H171.566ZM196.803 36.048V15.72H199.631V17.652H199.799C200.173 17.036 200.751 16.4853 201.535 16C202.338 15.5147 203.29 15.272 204.391 15.272C205.698 15.272 206.865 15.5987 207.891 16.252C208.918 16.9053 209.73 17.8013 210.327 18.94C210.943 20.0787 211.251 21.3853 211.251 22.86C211.251 24.3347 210.943 25.6507 210.327 26.808C209.73 27.9467 208.918 28.8427 207.891 29.496C206.865 30.1307 205.698 30.448 204.391 30.448C203.29 30.448 202.338 30.2147 201.535 29.748C200.751 29.2627 200.173 28.712 199.799 28.096H199.631L199.799 30.084V36.048H196.803ZM203.943 27.676C204.69 27.676 205.39 27.48 206.043 27.088C206.697 26.696 207.229 26.1453 207.639 25.436C208.05 24.708 208.255 23.8493 208.255 22.86C208.255 21.8707 208.05 21.0213 207.639 20.312C207.229 19.584 206.697 19.024 206.043 18.632C205.39 18.24 204.69 18.044 203.943 18.044C203.197 18.044 202.497 18.24 201.843 18.632C201.19 19.024 200.658 19.584 200.247 20.312C199.837 21.0213 199.631 21.8707 199.631 22.86C199.631 23.8493 199.837 24.708 200.247 25.436C200.658 26.1453 201.19 26.696 201.843 27.088C202.497 27.48 203.197 27.676 203.943 27.676ZM214.194 30V15.72H217.05V17.82H217.218C217.535 17.092 218.076 16.4947 218.842 16.028C219.626 15.5427 220.466 15.3 221.362 15.3C221.754 15.3 222.08 15.328 222.342 15.384C222.622 15.44 222.874 15.5053 223.098 15.58V18.716C222.743 18.5667 222.379 18.4453 222.006 18.352C221.651 18.2587 221.278 18.212 220.886 18.212C220.176 18.212 219.542 18.408 218.982 18.8C218.44 19.1733 218.011 19.6867 217.694 20.34C217.376 20.9747 217.218 21.6747 217.218 22.44V30H214.194ZM229.72 30.448C228.693 30.448 227.778 30.252 226.976 29.86C226.173 29.4493 225.548 28.88 225.1 28.152C224.652 27.424 224.428 26.5933 224.428 25.66C224.428 24.652 224.689 23.7933 225.212 23.084C225.753 22.356 226.472 21.8053 227.368 21.432C228.264 21.0587 229.253 20.872 230.336 20.872C231.232 20.872 232.016 20.956 232.688 21.124C233.378 21.292 233.901 21.4693 234.256 21.656V20.9C234.256 19.9667 233.92 19.22 233.248 18.66C232.576 18.1 231.708 17.82 230.644 17.82C229.916 17.82 229.225 17.988 228.572 18.324C227.918 18.6413 227.396 19.08 227.004 19.64L224.932 18.044C225.548 17.1853 226.36 16.5133 227.368 16.028C228.394 15.524 229.514 15.272 230.728 15.272C232.8 15.272 234.396 15.7853 235.516 16.812C236.636 17.82 237.196 19.2387 237.196 21.068V30H234.256V28.236H234.088C233.714 28.8147 233.154 29.328 232.408 29.776C231.661 30.224 230.765 30.448 229.72 30.448ZM230.252 27.984C231.036 27.984 231.726 27.7973 232.324 27.424C232.921 27.0507 233.388 26.5653 233.724 25.968C234.078 25.352 234.256 24.6893 234.256 23.98C233.826 23.7373 233.322 23.5413 232.744 23.392C232.165 23.224 231.549 23.14 230.896 23.14C229.664 23.14 228.786 23.392 228.264 23.896C227.741 24.3813 227.48 24.9787 227.48 25.688C227.48 26.36 227.732 26.9107 228.236 27.34C228.74 27.7693 229.412 27.984 230.252 27.984ZM252.14 30.448C251.113 30.448 250.199 30.252 249.396 29.86C248.593 29.4493 247.968 28.88 247.52 28.152C247.072 27.424 246.848 26.5933 246.848 25.66C246.848 24.652 247.109 23.7933 247.632 23.084C248.173 22.356 248.892 21.8053 249.788 21.432C250.684 21.0587 251.673 20.872 252.756 20.872C253.652 20.872 254.436 20.956 255.108 21.124C255.799 21.292 256.321 21.4693 256.676 21.656V20.9C256.676 19.9667 256.34 19.22 255.668 18.66C254.996 18.1 254.128 17.82 253.064 17.82C252.336 17.82 251.645 17.988 250.992 18.324C250.339 18.6413 249.816 19.08 249.424 19.64L247.352 18.044C247.968 17.1853 248.78 16.5133 249.788 16.028C250.815 15.524 251.935 15.272 253.148 15.272C255.22 15.272 256.816 15.7853 257.936 16.812C259.056 17.82 259.616 19.2387 259.616 21.068V30H256.676V28.236H256.508C256.135 28.8147 255.575 29.328 254.828 29.776C254.081 30.224 253.185 30.448 252.14 30.448ZM252.672 27.984C253.456 27.984 254.147 27.7973 254.744 27.424C255.341 27.0507 255.808 26.5653 256.144 25.968C256.499 25.352 256.676 24.6893 256.676 23.98C256.247 23.7373 255.743 23.5413 255.164 23.392C254.585 23.224 253.969 23.14 253.316 23.14C252.084 23.14 251.207 23.392 250.684 23.896C250.161 24.3813 249.9 24.9787 249.9 25.688C249.9 26.36 250.152 26.9107 250.656 27.34C251.16 27.7693 251.832 27.984 252.672 27.984ZM263.245 30V15.72H266.101V17.68H266.269C266.68 16.9893 267.277 16.42 268.061 15.972C268.845 15.5053 269.713 15.272 270.665 15.272C271.729 15.272 272.635 15.524 273.381 16.028C274.128 16.532 274.66 17.1667 274.977 17.932C275.444 17.1853 276.079 16.56 276.881 16.056C277.684 15.5333 278.664 15.272 279.821 15.272C281.501 15.272 282.752 15.7853 283.573 16.812C284.395 17.82 284.805 19.164 284.805 20.844V30H281.809V21.348C281.809 20.2093 281.557 19.3787 281.053 18.856C280.568 18.3147 279.887 18.044 279.009 18.044C278.319 18.044 277.712 18.24 277.189 18.632C276.667 19.0053 276.256 19.5187 275.957 20.172C275.677 20.8253 275.537 21.5533 275.537 22.356V30H272.541V21.348C272.541 20.2093 272.289 19.3787 271.785 18.856C271.281 18.3147 270.572 18.044 269.657 18.044C268.985 18.044 268.397 18.24 267.893 18.632C267.389 19.024 266.988 19.5467 266.689 20.2C266.409 20.8533 266.269 21.5813 266.269 22.384V30H263.245ZM296.126 30.448C295.025 30.448 294.073 30.2147 293.27 29.748C292.486 29.2627 291.907 28.712 291.534 28.096H291.366V30H288.51V9.952H291.534V15.664L291.366 17.652H291.534C291.907 17.036 292.486 16.4853 293.27 16C294.073 15.5147 295.025 15.272 296.126 15.272C297.433 15.272 298.599 15.5987 299.626 16.252C300.653 16.9053 301.465 17.8013 302.062 18.94C302.678 20.0787 302.986 21.3853 302.986 22.86C302.986 24.3347 302.678 25.6507 302.062 26.808C301.465 27.9467 300.653 28.8427 299.626 29.496C298.599 30.1307 297.433 30.448 296.126 30.448ZM295.678 27.676C296.425 27.676 297.125 27.48 297.778 27.088C298.431 26.696 298.963 26.1453 299.374 25.436C299.785 24.708 299.99 23.8493 299.99 22.86C299.99 21.8707 299.785 21.0213 299.374 20.312C298.963 19.584 298.431 19.024 297.778 18.632C297.125 18.24 296.425 18.044 295.678 18.044C294.931 18.044 294.231 18.24 293.578 18.632C292.925 19.024 292.393 19.584 291.982 20.312C291.571 21.0213 291.366 21.8707 291.366 22.86C291.366 23.8493 291.571 24.708 291.982 25.436C292.393 26.1453 292.925 26.696 293.578 27.088C294.231 27.48 294.931 27.676 295.678 27.676Z" fill="#3C4043"/>
<g id="GPay Logo (Light)">
<g id="GPay">
<g id="Pay">
<path id="Fill 1" fill-rule="evenodd" clip-rule="evenodd" d="M354.529 9.44664V17.6128H359.565C360.765 17.6128 361.757 17.2096 362.541 16.4032C363.347 15.5988 363.75 14.6394 363.75 13.5288C363.75 12.4406 363.347 11.4924 362.541 10.686C361.757 9.85915 360.765 9.44478 359.565 9.44478H354.529V9.44664ZM354.529 20.4872V29.9599H351.521V6.57217H359.499C361.527 6.57217 363.248 7.24786 364.666 8.59737C366.105 9.94688 366.824 11.5913 366.824 13.5288C366.824 15.511 366.105 17.1667 364.666 18.4938C363.27 19.8227 361.547 20.4854 359.499 20.4854H354.529V20.4872Z" fill="#5F6368"/>
<path id="Fill 3" fill-rule="evenodd" clip-rule="evenodd" d="M369.864 25.0602C369.864 25.8442 370.197 26.4975 370.862 27.0201C371.527 27.5427 372.306 27.804 373.2 27.804C374.465 27.804 375.591 27.3354 376.584 26.4004C377.576 25.4634 378.071 24.364 378.071 23.1022C377.133 22.3612 375.825 21.9916 374.147 21.9916C372.925 21.9916 371.907 22.2865 371.09 22.8745C370.273 23.4623 369.864 24.1886 369.864 25.0602ZM373.756 13.4317C375.98 13.4317 377.735 14.0252 379.022 15.2124C380.308 16.3995 380.95 18.0271 380.95 20.0952V29.9599H378.073V27.7387H377.942C376.699 29.5677 375.042 30.4825 372.972 30.4825C371.206 30.4825 369.728 29.9599 368.541 28.9146C367.353 27.8694 366.759 26.5628 366.759 24.9949C366.759 23.3393 367.385 22.0232 368.638 21.0434C369.892 20.0635 371.565 19.5726 373.658 19.5726C375.444 19.5726 376.916 19.8992 378.071 20.5525V19.8656C378.071 18.8204 377.656 17.9338 376.829 17.204C375.999 16.4741 375.031 16.1102 373.919 16.1102C372.239 16.1102 370.911 16.8176 369.93 18.2343L367.28 16.5675C368.741 14.4769 370.899 13.4317 373.756 13.4317Z" fill="#5F6368"/>
<path id="Fill 5" fill-rule="evenodd" clip-rule="evenodd" d="M397.463 13.9543L387.424 37.0154H384.318L388.046 28.9464L381.44 13.9543H384.71L389.484 25.4522H389.55L394.193 13.9543H397.463Z" fill="#5F6368"/>
</g>
<g id="G">
<path id="Fill 8" fill-rule="evenodd" clip-rule="evenodd" d="M342.373 18.4452C342.373 17.4989 342.293 16.5861 342.141 15.7126H329.454V20.8885H336.72C336.408 22.5757 335.465 24.0112 334.033 24.9725V28.3341H338.37C340.91 25.9935 342.373 22.5348 342.373 18.4452Z" fill="#4285F4"/>
<path id="Fill 10" fill-rule="evenodd" clip-rule="evenodd" d="M329.454 31.5782C333.084 31.5782 336.141 30.3873 338.37 28.3341L334.033 24.9725C332.826 25.7844 331.272 26.2585 329.454 26.2585C325.944 26.2585 322.966 23.8955 321.901 20.7112H317.433V24.1736C319.647 28.5637 324.197 31.5782 329.454 31.5782Z" fill="#34A853"/>
<path id="Fill 12" fill-rule="evenodd" clip-rule="evenodd" d="M321.901 20.7111C321.628 19.8992 321.479 19.0331 321.479 18.139C321.479 17.245 321.628 16.3789 321.901 15.567V12.1045H317.433C316.518 13.9188 316 15.9683 316 18.139C316 20.3098 316.518 22.3595 317.433 24.1736L321.901 20.7111Z" fill="#FABB05"/>
<path id="Fill 14" fill-rule="evenodd" clip-rule="evenodd" d="M329.454 10.0196C331.436 10.0196 333.213 10.7009 334.615 12.0355V12.0374L338.455 8.20162C336.123 6.03271 333.082 4.7 329.454 4.7C324.197 4.7 319.647 7.71446 317.433 12.1046L321.901 15.567C322.966 12.3827 325.944 10.0196 329.454 10.0196Z" fill="#E94235"/>
</g>
</g>
</g>
</g>
</svg>
