<svg width="227" height="21" viewBox="0 0 227 21" fill="none" xmlns="http://www.w3.org/2000/svg">
<g id="ca_checkout_with_Pay_NBG">
<path id="Left Text" d="M3.92888 15.0006V5.20861H0.712875V3.54461H8.87288V5.20861H5.67288V15.0006H3.92888ZM9.48612 15.0006V6.84061H11.1181V8.04061H11.2141C11.3421 7.76328 11.5235 7.51794 11.7581 7.30461C12.0035 7.09128 12.2808 6.92061 12.5901 6.79261C12.9101 6.66461 13.2408 6.60061 13.5821 6.60061C13.8061 6.60061 13.9928 6.61661 14.1421 6.64861C14.3021 6.66994 14.4461 6.70728 14.5741 6.76061V8.55261C14.3715 8.46728 14.1635 8.39794 13.9501 8.34461C13.7475 8.29128 13.5341 8.26461 13.3101 8.26461C12.9048 8.26461 12.5421 8.37661 12.2221 8.60061C11.9128 8.81394 11.6675 9.10194 11.4861 9.46461C11.3048 9.82728 11.2141 10.2326 11.2141 10.6806V15.0006H9.48612ZM18.3368 15.2566C17.7501 15.2566 17.2274 15.1393 16.7688 14.9046C16.3208 14.6699 15.9634 14.3499 15.6968 13.9446C15.4408 13.5286 15.3128 13.0539 15.3128 12.5206C15.3128 11.9339 15.4621 11.4379 15.7608 11.0326C16.0701 10.6273 16.4808 10.3179 16.9928 10.1046C17.5048 9.89128 18.0701 9.78461 18.6888 9.78461C19.0301 9.78461 19.3448 9.81128 19.6328 9.86461C19.9314 9.90728 20.1874 9.96061 20.4008 10.0246C20.6248 10.0886 20.8008 10.1579 20.9288 10.2326V9.80061C20.9288 9.26728 20.7368 8.84061 20.3528 8.52061C19.9688 8.20061 19.4728 8.04061 18.8648 8.04061C18.4488 8.04061 18.0541 8.13661 17.6808 8.32861C17.3074 8.50994 17.0088 8.76061 16.7848 9.08061L15.6008 8.16861C15.8354 7.83794 16.1181 7.55528 16.4488 7.32061C16.7901 7.08594 17.1688 6.90461 17.5848 6.77661C18.0114 6.64861 18.4541 6.58461 18.9128 6.58461C20.0968 6.58461 21.0088 6.87794 21.6488 7.46461C22.2888 8.04061 22.6088 8.85128 22.6088 9.89661V15.0006H20.9288V13.9926H20.8328C20.6941 14.2059 20.5021 14.4086 20.2568 14.6006C20.0221 14.7926 19.7394 14.9473 19.4088 15.0646C19.0888 15.1926 18.7314 15.2566 18.3368 15.2566ZM18.6408 13.8486C19.0888 13.8486 19.4834 13.7419 19.8248 13.5286C20.1768 13.3153 20.4488 13.0379 20.6408 12.6966C20.8328 12.3446 20.9288 11.9659 20.9288 11.5606C20.6941 11.4219 20.4061 11.3099 20.0648 11.2246C19.7341 11.1286 19.3821 11.0806 19.0088 11.0806C18.3048 11.0806 17.8034 11.2193 17.5048 11.4966C17.2061 11.7739 17.0568 12.1206 17.0568 12.5366C17.0568 12.9206 17.2008 13.2353 17.4888 13.4806C17.7768 13.7259 18.1608 13.8486 18.6408 13.8486ZM24.6611 15.0006V6.84061H26.2931V7.96061H26.3891C26.5491 7.69394 26.7571 7.45928 27.0131 7.25661C27.2691 7.05394 27.5571 6.89394 27.8771 6.77661C28.2078 6.64861 28.5491 6.58461 28.9011 6.58461C29.5091 6.58461 30.0265 6.72861 30.4531 7.01661C30.8798 7.30461 31.1838 7.66728 31.3651 8.10461C31.6318 7.67794 31.9945 7.32061 32.4531 7.03261C32.9118 6.73394 33.4718 6.58461 34.1331 6.58461C35.0931 6.58461 35.8078 6.87794 36.2771 7.46461C36.7465 8.04061 36.9811 8.80861 36.9811 9.76861V15.0006H35.2691V10.0566C35.2691 9.39528 35.1251 8.91528 34.8371 8.61661C34.5598 8.31794 34.1705 8.16861 33.6691 8.16861C33.2745 8.16861 32.9278 8.28061 32.6291 8.50461C32.3305 8.71794 32.0958 9.01128 31.9251 9.38461C31.7651 9.75794 31.6851 10.1739 31.6851 10.6326V15.0006H29.9731V10.0566C29.9731 9.40594 29.8291 8.93128 29.5411 8.63261C29.2531 8.32328 28.8478 8.16861 28.3251 8.16861C27.9518 8.16861 27.6158 8.28061 27.3171 8.50461C27.0291 8.72861 26.7998 9.02728 26.6291 9.40061C26.4691 9.77394 26.3891 10.1899 26.3891 10.6486V15.0006H24.6611ZM39.2047 15.0006V6.84061H40.9327V15.0006H39.2047ZM40.0687 5.64061C39.7487 5.64061 39.4714 5.52861 39.2367 5.30461C39.0127 5.06994 38.9007 4.79261 38.9007 4.47261C38.9007 4.14194 39.0127 3.86994 39.2367 3.65661C39.4714 3.43261 39.7487 3.32061 40.0687 3.32061C40.3994 3.32061 40.6767 3.43261 40.9007 3.65661C41.1247 3.86994 41.2367 4.14194 41.2367 4.47261C41.2367 4.79261 41.1247 5.06994 40.9007 5.30461C40.6767 5.52861 40.3994 5.64061 40.0687 5.64061ZM42.5886 6.84061H44.0126V4.53661H45.7406V6.84061H47.7406V8.34461H45.7406V12.2646C45.7406 12.6699 45.8206 12.9793 45.9806 13.1926C46.1513 13.4059 46.434 13.5126 46.8286 13.5126C47.0206 13.5126 47.1913 13.4859 47.3406 13.4326C47.49 13.3686 47.6393 13.2939 47.7886 13.2086V14.8886C47.6073 14.9633 47.4153 15.0219 47.2126 15.0646C47.01 15.1073 46.77 15.1286 46.4926 15.1286C45.7353 15.1286 45.1326 14.9099 44.6846 14.4726C44.2366 14.0246 44.0126 13.4113 44.0126 12.6326V8.34461H42.5886V6.84061ZM51.9524 15.2566C51.3657 15.2566 50.843 15.1393 50.3844 14.9046C49.9364 14.6699 49.579 14.3499 49.3124 13.9446C49.0564 13.5286 48.9284 13.0539 48.9284 12.5206C48.9284 11.9339 49.0777 11.4379 49.3764 11.0326C49.6857 10.6273 50.0964 10.3179 50.6084 10.1046C51.1204 9.89128 51.6857 9.78461 52.3044 9.78461C52.6457 9.78461 52.9604 9.81128 53.2484 9.86461C53.547 9.90728 53.803 9.96061 54.0164 10.0246C54.2404 10.0886 54.4164 10.1579 54.5444 10.2326V9.80061C54.5444 9.26728 54.3524 8.84061 53.9684 8.52061C53.5844 8.20061 53.0884 8.04061 52.4804 8.04061C52.0644 8.04061 51.6697 8.13661 51.2964 8.32861C50.923 8.50994 50.6244 8.76061 50.4004 9.08061L49.2164 8.16861C49.451 7.83794 49.7337 7.55528 50.0644 7.32061C50.4057 7.08594 50.7844 6.90461 51.2004 6.77661C51.627 6.64861 52.0697 6.58461 52.5284 6.58461C53.7124 6.58461 54.6244 6.87794 55.2644 7.46461C55.9044 8.04061 56.2244 8.85128 56.2244 9.89661V15.0006H54.5444V13.9926H54.4484C54.3097 14.2059 54.1177 14.4086 53.8724 14.6006C53.6377 14.7926 53.355 14.9473 53.0244 15.0646C52.7044 15.1926 52.347 15.2566 51.9524 15.2566ZM52.2564 13.8486C52.7044 13.8486 53.099 13.7419 53.4404 13.5286C53.7924 13.3153 54.0644 13.0379 54.2564 12.6966C54.4484 12.3446 54.5444 11.9659 54.5444 11.5606C54.3097 11.4219 54.0217 11.3099 53.6804 11.2246C53.3497 11.1286 52.9977 11.0806 52.6244 11.0806C51.9204 11.0806 51.419 11.2193 51.1204 11.4966C50.8217 11.7739 50.6724 12.1206 50.6724 12.5366C50.6724 12.9206 50.8164 13.2353 51.1044 13.4806C51.3924 13.7259 51.7764 13.8486 52.2564 13.8486ZM62.1771 15.0006V3.54461H63.9051V15.0006H62.1771ZM68.5742 15.2566C67.9876 15.2566 67.4649 15.1393 67.0062 14.9046C66.5582 14.6699 66.2009 14.3499 65.9342 13.9446C65.6782 13.5286 65.5502 13.0539 65.5502 12.5206C65.5502 11.9339 65.6996 11.4379 65.9982 11.0326C66.3076 10.6273 66.7182 10.3179 67.2302 10.1046C67.7422 9.89128 68.3076 9.78461 68.9262 9.78461C69.2676 9.78461 69.5822 9.81128 69.8702 9.86461C70.1689 9.90728 70.4249 9.96061 70.6382 10.0246C70.8622 10.0886 71.0382 10.1579 71.1662 10.2326V9.80061C71.1662 9.26728 70.9742 8.84061 70.5902 8.52061C70.2062 8.20061 69.7102 8.04061 69.1022 8.04061C68.6862 8.04061 68.2916 8.13661 67.9182 8.32861C67.5449 8.50994 67.2462 8.76061 67.0222 9.08061L65.8382 8.16861C66.0729 7.83794 66.3556 7.55528 66.6862 7.32061C67.0276 7.08594 67.4062 6.90461 67.8222 6.77661C68.2489 6.64861 68.6916 6.58461 69.1502 6.58461C70.3342 6.58461 71.2462 6.87794 71.8862 7.46461C72.5262 8.04061 72.8462 8.85128 72.8462 9.89661V15.0006H71.1662V13.9926H71.0702C70.9316 14.2059 70.7396 14.4086 70.4942 14.6006C70.2596 14.7926 69.9769 14.9473 69.6462 15.0646C69.3262 15.1926 68.9689 15.2566 68.5742 15.2566ZM68.8782 13.8486C69.3262 13.8486 69.7209 13.7419 70.0622 13.5286C70.4142 13.3153 70.6862 13.0379 70.8782 12.6966C71.0702 12.3446 71.1662 11.9659 71.1662 11.5606C70.9316 11.4219 70.6436 11.3099 70.3022 11.2246C69.9716 11.1286 69.6196 11.0806 69.2462 11.0806C68.5422 11.0806 68.0409 11.2193 67.7422 11.4966C67.4436 11.7739 67.2942 12.1206 67.2942 12.5366C67.2942 12.9206 67.4382 13.2353 67.7262 13.4806C68.0142 13.7259 68.3982 13.8486 68.8782 13.8486ZM82.559 15.2566C81.7377 15.2566 81.007 15.0699 80.367 14.6966C79.7377 14.3233 79.2417 13.8113 78.879 13.1606C78.527 12.4993 78.351 11.7526 78.351 10.9206C78.351 10.0886 78.527 9.34728 78.879 8.69661C79.2417 8.04594 79.7377 7.53394 80.367 7.16061C81.007 6.77661 81.7377 6.58461 82.559 6.58461C83.4657 6.58461 84.2283 6.78728 84.847 7.19261C85.4763 7.59794 85.9243 8.14728 86.191 8.84061L84.623 9.48061C84.431 9.04328 84.1537 8.71794 83.791 8.50461C83.439 8.28061 83.0177 8.16861 82.527 8.16861C82.079 8.16861 81.6683 8.28594 81.295 8.52061C80.9217 8.74461 80.623 9.05928 80.399 9.46461C80.175 9.86994 80.063 10.3553 80.063 10.9206C80.063 11.4753 80.175 11.9606 80.399 12.3766C80.623 12.7926 80.9217 13.1126 81.295 13.3366C81.6683 13.5606 82.079 13.6726 82.527 13.6726C83.0497 13.6726 83.4923 13.5553 83.855 13.3206C84.2177 13.0859 84.5003 12.7553 84.703 12.3286L86.239 13.0006C85.9403 13.6513 85.4763 14.1899 84.847 14.6166C84.2283 15.0433 83.4657 15.2566 82.559 15.2566ZM91.6324 15.2566C90.7897 15.2566 90.0484 15.0646 89.4084 14.6806C88.7684 14.2966 88.267 13.7793 87.9044 13.1286C87.5417 12.4673 87.3604 11.7313 87.3604 10.9206C87.3604 10.1099 87.5417 9.37928 87.9044 8.72861C88.267 8.06728 88.7684 7.54461 89.4084 7.16061C90.0484 6.77661 90.7897 6.58461 91.6324 6.58461C92.4644 6.58461 93.2004 6.78194 93.8404 7.17661C94.4804 7.56061 94.9817 8.07794 95.3444 8.72861C95.707 9.37928 95.8884 10.1099 95.8884 10.9206C95.8884 11.7313 95.707 12.4673 95.3444 13.1286C94.9817 13.7793 94.4804 14.2966 93.8404 14.6806C93.2004 15.0646 92.4644 15.2566 91.6324 15.2566ZM91.6324 13.6726C92.0804 13.6726 92.4964 13.5659 92.8804 13.3526C93.2644 13.1286 93.5737 12.8139 93.8084 12.4086C94.0537 11.9926 94.1764 11.4966 94.1764 10.9206C94.1764 10.3446 94.0537 9.85394 93.8084 9.44861C93.5737 9.03261 93.2644 8.71794 92.8804 8.50461C92.4964 8.28061 92.0804 8.16861 91.6324 8.16861C91.1844 8.16861 90.763 8.28061 90.3684 8.50461C89.9844 8.71794 89.6697 9.03261 89.4244 9.44861C89.1897 9.85394 89.0724 10.3446 89.0724 10.9206C89.0724 11.4966 89.1897 11.9926 89.4244 12.4086C89.6697 12.8139 89.9897 13.1286 90.3844 13.3526C90.779 13.5659 91.195 13.6726 91.6324 13.6726ZM97.4736 15.0006V6.84061H99.1056V7.96061H99.2016C99.3616 7.69394 99.5696 7.45928 99.8256 7.25661C100.082 7.05394 100.37 6.89394 100.69 6.77661C101.02 6.64861 101.362 6.58461 101.714 6.58461C102.322 6.58461 102.839 6.72861 103.266 7.01661C103.692 7.30461 103.996 7.66728 104.178 8.10461C104.444 7.67794 104.807 7.32061 105.266 7.03261C105.724 6.73394 106.284 6.58461 106.946 6.58461C107.906 6.58461 108.62 6.87794 109.09 7.46461C109.559 8.04061 109.794 8.80861 109.794 9.76861V15.0006H108.082V10.0566C108.082 9.39528 107.938 8.91528 107.65 8.61661C107.372 8.31794 106.983 8.16861 106.482 8.16861C106.087 8.16861 105.74 8.28061 105.442 8.50461C105.143 8.71794 104.908 9.01128 104.738 9.38461C104.578 9.75794 104.498 10.1739 104.498 10.6326V15.0006H102.786V10.0566C102.786 9.40594 102.642 8.93128 102.354 8.63261C102.066 8.32328 101.66 8.16861 101.138 8.16861C100.764 8.16861 100.428 8.28061 100.13 8.50461C99.8416 8.72861 99.6123 9.02728 99.4416 9.40061C99.2816 9.77394 99.2016 10.1899 99.2016 10.6486V15.0006H97.4736ZM111.873 18.4566V6.84061H113.489V7.94461H113.585C113.735 7.70994 113.932 7.49128 114.177 7.28861C114.433 7.07528 114.732 6.90461 115.073 6.77661C115.415 6.64861 115.793 6.58461 116.209 6.58461C116.956 6.58461 117.623 6.77128 118.209 7.14461C118.796 7.51794 119.26 8.02994 119.601 8.68061C119.953 9.33128 120.129 10.0779 120.129 10.9206C120.129 11.7633 119.953 12.5099 119.601 13.1606C119.26 13.8113 118.796 14.3233 118.209 14.6966C117.623 15.0699 116.956 15.2566 116.209 15.2566C115.591 15.2566 115.052 15.1179 114.593 14.8406C114.135 14.5633 113.799 14.2539 113.585 13.9126H113.489L113.585 15.0486V18.4566H111.873ZM115.953 13.6726C116.38 13.6726 116.78 13.5606 117.153 13.3366C117.537 13.1126 117.841 12.7926 118.065 12.3766C118.3 11.9606 118.417 11.4753 118.417 10.9206C118.417 10.3553 118.3 9.86994 118.065 9.46461C117.841 9.04861 117.537 8.72861 117.153 8.50461C116.78 8.28061 116.38 8.16861 115.953 8.16861C115.527 8.16861 115.127 8.28061 114.753 8.50461C114.38 8.72861 114.076 9.04861 113.841 9.46461C113.607 9.86994 113.489 10.3553 113.489 10.9206C113.489 11.4859 113.607 11.9766 113.841 12.3926C114.076 12.7979 114.38 13.1126 114.753 13.3366C115.127 13.5606 115.527 13.6726 115.953 13.6726ZM121.789 15.0006V6.84061H123.421V8.04061H123.517C123.645 7.76328 123.827 7.51794 124.061 7.30461C124.307 7.09128 124.584 6.92061 124.893 6.79261C125.213 6.66461 125.544 6.60061 125.885 6.60061C126.109 6.60061 126.296 6.61661 126.445 6.64861C126.605 6.66994 126.749 6.70728 126.877 6.76061V8.55261C126.675 8.46728 126.467 8.39794 126.253 8.34461C126.051 8.29128 125.837 8.26461 125.613 8.26461C125.208 8.26461 124.845 8.37661 124.525 8.60061C124.216 8.81394 123.971 9.10194 123.789 9.46461C123.608 9.82728 123.517 10.2326 123.517 10.6806V15.0006H121.789ZM130.64 15.2566C130.053 15.2566 129.531 15.1393 129.072 14.9046C128.624 14.6699 128.267 14.3499 128 13.9446C127.744 13.5286 127.616 13.0539 127.616 12.5206C127.616 11.9339 127.765 11.4379 128.064 11.0326C128.373 10.6273 128.784 10.3179 129.296 10.1046C129.808 9.89128 130.373 9.78461 130.992 9.78461C131.333 9.78461 131.648 9.81128 131.936 9.86461C132.235 9.90728 132.491 9.96061 132.704 10.0246C132.928 10.0886 133.104 10.1579 133.232 10.2326V9.80061C133.232 9.26728 133.04 8.84061 132.656 8.52061C132.272 8.20061 131.776 8.04061 131.168 8.04061C130.752 8.04061 130.357 8.13661 129.984 8.32861C129.611 8.50994 129.312 8.76061 129.088 9.08061L127.904 8.16861C128.139 7.83794 128.421 7.55528 128.752 7.32061C129.093 7.08594 129.472 6.90461 129.888 6.77661C130.315 6.64861 130.757 6.58461 131.216 6.58461C132.4 6.58461 133.312 6.87794 133.952 7.46461C134.592 8.04061 134.912 8.85128 134.912 9.89661V15.0006H133.232V13.9926H133.136C132.997 14.2059 132.805 14.4086 132.56 14.6006C132.325 14.7926 132.043 14.9473 131.712 15.0646C131.392 15.1926 131.035 15.2566 130.64 15.2566ZM130.944 13.8486C131.392 13.8486 131.787 13.7419 132.128 13.5286C132.48 13.3153 132.752 13.0379 132.944 12.6966C133.136 12.3446 133.232 11.9659 133.232 11.5606C132.997 11.4219 132.709 11.3099 132.368 11.2246C132.037 11.1286 131.685 11.0806 131.312 11.0806C130.608 11.0806 130.107 11.2193 129.808 11.4966C129.509 11.7739 129.36 12.1206 129.36 12.5366C129.36 12.9206 129.504 13.2353 129.792 13.4806C130.08 13.7259 130.464 13.8486 130.944 13.8486ZM143.409 15.2566C142.822 15.2566 142.299 15.1393 141.841 14.9046C141.393 14.6699 141.035 14.3499 140.769 13.9446C140.513 13.5286 140.385 13.0539 140.385 12.5206C140.385 11.9339 140.534 11.4379 140.833 11.0326C141.142 10.6273 141.553 10.3179 142.065 10.1046C142.577 9.89128 143.142 9.78461 143.761 9.78461C144.102 9.78461 144.417 9.81128 144.705 9.86461C145.003 9.90728 145.259 9.96061 145.473 10.0246C145.697 10.0886 145.873 10.1579 146.001 10.2326V9.80061C146.001 9.26728 145.809 8.84061 145.425 8.52061C145.041 8.20061 144.545 8.04061 143.937 8.04061C143.521 8.04061 143.126 8.13661 142.753 8.32861C142.379 8.50994 142.081 8.76061 141.857 9.08061L140.673 8.16861C140.907 7.83794 141.19 7.55528 141.521 7.32061C141.862 7.08594 142.241 6.90461 142.657 6.77661C143.083 6.64861 143.526 6.58461 143.985 6.58461C145.169 6.58461 146.081 6.87794 146.721 7.46461C147.361 8.04061 147.681 8.85128 147.681 9.89661V15.0006H146.001V13.9926H145.905C145.766 14.2059 145.574 14.4086 145.329 14.6006C145.094 14.7926 144.811 14.9473 144.481 15.0646C144.161 15.1926 143.803 15.2566 143.409 15.2566ZM143.713 13.8486C144.161 13.8486 144.555 13.7419 144.897 13.5286C145.249 13.3153 145.521 13.0379 145.713 12.6966C145.905 12.3446 146.001 11.9659 146.001 11.5606C145.766 11.4219 145.478 11.3099 145.137 11.2246C144.806 11.1286 144.454 11.0806 144.081 11.0806C143.377 11.0806 142.875 11.2193 142.577 11.4966C142.278 11.7739 142.129 12.1206 142.129 12.5366C142.129 12.9206 142.273 13.2353 142.561 13.4806C142.849 13.7259 143.233 13.8486 143.713 13.8486ZM149.733 15.0006V6.84061H151.365V7.96061H151.461C151.621 7.69394 151.829 7.45928 152.085 7.25661C152.341 7.05394 152.629 6.89394 152.949 6.77661C153.28 6.64861 153.621 6.58461 153.973 6.58461C154.581 6.58461 155.098 6.72861 155.525 7.01661C155.952 7.30461 156.256 7.66728 156.437 8.10461C156.704 7.67794 157.066 7.32061 157.525 7.03261C157.984 6.73394 158.544 6.58461 159.205 6.58461C160.165 6.58461 160.88 6.87794 161.349 7.46461C161.818 8.04061 162.053 8.80861 162.053 9.76861V15.0006H160.341V10.0566C160.341 9.39528 160.197 8.91528 159.909 8.61661C159.632 8.31794 159.242 8.16861 158.741 8.16861C158.346 8.16861 158 8.28061 157.701 8.50461C157.402 8.71794 157.168 9.01128 156.997 9.38461C156.837 9.75794 156.757 10.1739 156.757 10.6326V15.0006H155.045V10.0566C155.045 9.40594 154.901 8.93128 154.613 8.63261C154.325 8.32328 153.92 8.16861 153.397 8.16861C153.024 8.16861 152.688 8.28061 152.389 8.50461C152.101 8.72861 151.872 9.02728 151.701 9.40061C151.541 9.77394 151.461 10.1899 151.461 10.6486V15.0006H149.733ZM168.501 15.2566C168.085 15.2566 167.706 15.1926 167.365 15.0646C167.023 14.9366 166.725 14.7713 166.469 14.5686C166.223 14.3553 166.026 14.1366 165.877 13.9126H165.781V15.0006H164.149V3.54461H165.877V6.80861L165.781 7.94461H165.877C166.026 7.70994 166.223 7.49128 166.469 7.28861C166.725 7.07528 167.023 6.90461 167.365 6.77661C167.706 6.64861 168.085 6.58461 168.501 6.58461C169.247 6.58461 169.914 6.77128 170.501 7.14461C171.087 7.51794 171.551 8.02994 171.893 8.68061C172.245 9.33128 172.421 10.0779 172.421 10.9206C172.421 11.7633 172.245 12.5099 171.893 13.1606C171.551 13.8113 171.087 14.3233 170.501 14.6966C169.914 15.0699 169.247 15.2566 168.501 15.2566ZM168.245 13.6726C168.671 13.6726 169.071 13.5606 169.445 13.3366C169.829 13.1126 170.133 12.7926 170.357 12.3766C170.591 11.9606 170.709 11.4753 170.709 10.9206C170.709 10.3553 170.591 9.86994 170.357 9.46461C170.133 9.04861 169.829 8.72861 169.445 8.50461C169.071 8.28061 168.671 8.16861 168.245 8.16861C167.818 8.16861 167.418 8.28061 167.045 8.50461C166.671 8.72861 166.367 9.04861 166.133 9.46461C165.898 9.86994 165.781 10.3553 165.781 10.9206C165.781 11.4859 165.898 11.9766 166.133 12.3926C166.367 12.7979 166.671 13.1126 167.045 13.3366C167.418 13.5606 167.818 13.6726 168.245 13.6726Z" fill="white"/>
<g id="GPay (Dark)">
<g id="GPay">
<g id="Pay">
<path id="Fill 1" fill-rule="evenodd" clip-rule="evenodd" d="M201.356 3.42339V8.16175H204.278C204.974 8.16175 205.55 7.92781 206.005 7.45993C206.473 6.99313 206.707 6.43644 206.707 5.79203C206.707 5.16061 206.473 4.61041 206.005 4.14254C205.55 3.66274 204.974 3.4223 204.278 3.4223H201.356V3.42339ZM201.356 9.82966V15.3262H199.611V1.75549H204.24C205.417 1.75549 206.415 2.14756 207.238 2.93061C208.073 3.71365 208.491 4.66782 208.491 5.79203C208.491 6.94224 208.073 7.90291 207.238 8.67296C206.428 9.44409 205.429 9.82858 204.24 9.82858H201.356V9.82966Z" fill="white"/>
<path id="Fill 3" fill-rule="evenodd" clip-rule="evenodd" d="M210.255 12.4831C210.255 12.9379 210.448 13.317 210.834 13.6203C211.22 13.9235 211.672 14.0752 212.19 14.0752C212.924 14.0752 213.578 13.8032 214.153 13.2607C214.729 12.717 215.017 12.0791 215.017 11.3469C214.472 10.917 213.713 10.7025 212.74 10.7025C212.031 10.7025 211.44 10.8736 210.966 11.2148C210.492 11.5559 210.255 11.9773 210.255 12.4831M212.513 5.73566C213.803 5.73566 214.821 6.08007 215.569 6.76889C216.314 7.45771 216.687 8.40213 216.687 9.60216V15.3261H215.018V14.0373H214.942C214.221 15.0985 213.259 15.6294 212.058 15.6294C211.033 15.6294 210.176 15.3261 209.487 14.7196C208.797 14.1131 208.453 13.3549 208.453 12.4452C208.453 11.4845 208.816 10.7208 209.543 10.1523C210.271 9.58375 211.241 9.2989 212.456 9.2989C213.492 9.2989 214.346 9.48844 215.017 9.86751V9.46894C215.017 8.86243 214.776 8.34798 214.296 7.92451C213.814 7.50103 213.252 7.28984 212.607 7.28984C211.633 7.28984 210.862 7.70032 210.293 8.52235L208.755 7.55519C209.603 6.34217 210.855 5.73566 212.513 5.73566" fill="white"/>
<path id="Fill 5" fill-rule="evenodd" clip-rule="evenodd" d="M226.269 6.03894L220.443 19.4201H218.641L220.804 14.738L216.971 6.03894H218.869L221.639 12.7106H221.677L224.371 6.03894H226.269Z" fill="white"/>
</g>
<g id="G">
<path id="Fill 8" fill-rule="evenodd" clip-rule="evenodd" d="M194.303 8.64473C194.303 8.09563 194.256 7.56601 194.168 7.05914H186.806V10.0625H191.023C190.842 11.0414 190.294 11.8744 189.464 12.4322V14.3828H191.98C193.454 13.0246 194.303 11.0177 194.303 8.64473" fill="#4285F4"/>
<path id="Fill 10" fill-rule="evenodd" clip-rule="evenodd" d="M186.806 16.2651C188.913 16.2651 190.687 15.5741 191.98 14.3828L189.464 12.4322C188.764 12.9033 187.861 13.1784 186.806 13.1784C184.77 13.1784 183.042 11.8073 182.424 9.95959H179.832V11.9687C181.116 14.516 183.757 16.2651 186.806 16.2651" fill="#34A853"/>
<path id="Fill 12" fill-rule="evenodd" clip-rule="evenodd" d="M182.424 9.9596C182.266 9.48847 182.179 8.98593 182.179 8.46715C182.179 7.94837 182.266 7.44583 182.424 6.9747V4.96564H179.832C179.3 6.01837 179 7.20756 179 8.46715C179 9.72674 179.3 10.916 179.832 11.9687L182.424 9.9596Z" fill="#FABB05"/>
<path id="Fill 14" fill-rule="evenodd" clip-rule="evenodd" d="M186.806 3.75583C187.957 3.75583 188.988 4.15115 189.801 4.92553V4.92661L192.029 2.70094C190.676 1.44243 188.912 0.669128 186.806 0.669128C183.757 0.669128 181.116 2.41826 179.832 4.9656L182.424 6.97467C183.042 5.12698 184.77 3.75583 186.806 3.75583" fill="#E94235"/>
</g>
</g>
</g>
</g>
</svg>
