<svg width="228" height="38" viewBox="0 0 228 38" fill="none" xmlns="http://www.w3.org/2000/svg">
<g id="ca_donate_with_Light">
<path id="Text" d="M2.31643 30V9.952H8.72843C10.8378 9.952 12.6484 10.3813 14.1604 11.24C15.6911 12.08 16.8671 13.256 17.6884 14.768C18.5284 16.28 18.9484 18.016 18.9484 19.976C18.9484 21.9547 18.5284 23.7 17.6884 25.212C16.8671 26.7053 15.6911 27.8813 14.1604 28.74C12.6484 29.58 10.8378 30 8.72843 30H2.31643ZM5.39643 27.088H8.64443C10.9218 27.088 12.6858 26.4533 13.9364 25.184C15.2058 23.9147 15.8404 22.1787 15.8404 19.976C15.8404 17.7733 15.2058 16.0373 13.9364 14.768C12.6858 13.4987 10.9218 12.864 8.64443 12.864H5.39643V27.088ZM28.5746 30.448C27.1 30.448 25.8026 30.112 24.6826 29.44C23.5626 28.768 22.6853 27.8627 22.0506 26.724C21.416 25.5853 21.0986 24.2973 21.0986 22.86C21.0986 21.4413 21.416 20.1627 22.0506 19.024C22.6853 17.8667 23.5626 16.952 24.6826 16.28C25.8026 15.608 27.1 15.272 28.5746 15.272C30.0306 15.272 31.3186 15.608 32.4386 16.28C33.5586 16.952 34.436 17.8667 35.0706 19.024C35.7053 20.1627 36.0226 21.4413 36.0226 22.86C36.0226 24.2973 35.7053 25.5853 35.0706 26.724C34.436 27.8627 33.5586 28.768 32.4386 29.44C31.3186 30.112 30.0306 30.448 28.5746 30.448ZM28.5746 27.676C29.3586 27.676 30.0866 27.4893 30.7586 27.116C31.4306 26.724 31.972 26.1733 32.3826 25.464C32.812 24.736 33.0266 23.868 33.0266 22.86C33.0266 21.852 32.812 20.9933 32.3826 20.284C31.972 19.556 31.4306 19.0053 30.7586 18.632C30.0866 18.24 29.3586 18.044 28.5746 18.044C27.7906 18.044 27.0533 18.24 26.3626 18.632C25.6906 19.0053 25.14 19.556 24.7106 20.284C24.3 20.9933 24.0946 21.852 24.0946 22.86C24.0946 23.868 24.3 24.736 24.7106 25.464C25.14 26.1733 25.6906 26.724 26.3626 27.116C27.0533 27.4893 27.7906 27.676 28.5746 27.676ZM38.8343 30V15.72H41.6903V17.68H41.8583C42.269 16.9893 42.8756 16.42 43.6783 15.972C44.4996 15.5053 45.3956 15.272 46.3663 15.272C48.121 15.272 49.437 15.7947 50.3143 16.84C51.1916 17.8853 51.6303 19.2667 51.6303 20.984V30H48.6343V21.376C48.6343 20.2187 48.345 19.3787 47.7663 18.856C47.1876 18.3147 46.4316 18.044 45.4983 18.044C44.7703 18.044 44.1356 18.2493 43.5943 18.66C43.053 19.052 42.6236 19.5747 42.3063 20.228C42.0076 20.8813 41.8583 21.5813 41.8583 22.328V30H38.8343ZM59.7198 30.448C58.6931 30.448 57.7784 30.252 56.9758 29.86C56.1731 29.4493 55.5478 28.88 55.0998 28.152C54.6518 27.424 54.4278 26.5933 54.4278 25.66C54.4278 24.652 54.6891 23.7933 55.2118 23.084C55.7531 22.356 56.4718 21.8053 57.3678 21.432C58.2638 21.0587 59.2531 20.872 60.3358 20.872C61.2318 20.872 62.0158 20.956 62.6878 21.124C63.3784 21.292 63.9011 21.4693 64.2558 21.656V20.9C64.2558 19.9667 63.9198 19.22 63.2478 18.66C62.5758 18.1 61.7078 17.82 60.6438 17.82C59.9158 17.82 59.2251 17.988 58.5718 18.324C57.9184 18.6413 57.3958 19.08 57.0038 19.64L54.9318 18.044C55.5478 17.1853 56.3598 16.5133 57.3678 16.028C58.3944 15.524 59.5144 15.272 60.7278 15.272C62.7998 15.272 64.3958 15.7853 65.5158 16.812C66.6358 17.82 67.1958 19.2387 67.1958 21.068V30H64.2558V28.236H64.0878C63.7144 28.8147 63.1544 29.328 62.4078 29.776C61.6611 30.224 60.7651 30.448 59.7198 30.448ZM60.2518 27.984C61.0358 27.984 61.7264 27.7973 62.3238 27.424C62.9211 27.0507 63.3878 26.5653 63.7238 25.968C64.0784 25.352 64.2558 24.6893 64.2558 23.98C63.8264 23.7373 63.3224 23.5413 62.7438 23.392C62.1651 23.224 61.5491 23.14 60.8958 23.14C59.6638 23.14 58.7864 23.392 58.2638 23.896C57.7411 24.3813 57.4798 24.9787 57.4798 25.688C57.4798 26.36 57.7318 26.9107 58.2358 27.34C58.7398 27.7693 59.4118 27.984 60.2518 27.984ZM82.1401 30.448C81.1134 30.448 80.1988 30.252 79.3961 29.86C78.5934 29.4493 77.9681 28.88 77.5201 28.152C77.0721 27.424 76.8481 26.5933 76.8481 25.66C76.8481 24.652 77.1094 23.7933 77.6321 23.084C78.1734 22.356 78.8921 21.8053 79.7881 21.432C80.6841 21.0587 81.6734 20.872 82.7561 20.872C83.6521 20.872 84.4361 20.956 85.1081 21.124C85.7988 21.292 86.3214 21.4693 86.6761 21.656V20.9C86.6761 19.9667 86.3401 19.22 85.6681 18.66C84.9961 18.1 84.1281 17.82 83.0641 17.82C82.3361 17.82 81.6454 17.988 80.9921 18.324C80.3388 18.6413 79.8161 19.08 79.4241 19.64L77.3521 18.044C77.9681 17.1853 78.7801 16.5133 79.7881 16.028C80.8148 15.524 81.9348 15.272 83.1481 15.272C85.2201 15.272 86.8161 15.7853 87.9361 16.812C89.0561 17.82 89.6161 19.2387 89.6161 21.068V30H86.6761V28.236H86.5081C86.1348 28.8147 85.5748 29.328 84.8281 29.776C84.0814 30.224 83.1854 30.448 82.1401 30.448ZM82.6721 27.984C83.4561 27.984 84.1468 27.7973 84.7441 27.424C85.3414 27.0507 85.8081 26.5653 86.1441 25.968C86.4988 25.352 86.6761 24.6893 86.6761 23.98C86.2468 23.7373 85.7428 23.5413 85.1641 23.392C84.5854 23.224 83.9694 23.14 83.3161 23.14C82.0841 23.14 81.2068 23.392 80.6841 23.896C80.1614 24.3813 79.9001 24.9787 79.9001 25.688C79.9001 26.36 80.1521 26.9107 80.6561 27.34C81.1601 27.7693 81.8321 27.984 82.6721 27.984ZM93.2452 30V15.72H96.1012V17.68H96.2692C96.6799 16.9893 97.2772 16.42 98.0612 15.972C98.8452 15.5053 99.7132 15.272 100.665 15.272C101.729 15.272 102.635 15.524 103.381 16.028C104.128 16.532 104.66 17.1667 104.977 17.932C105.444 17.1853 106.079 16.56 106.881 16.056C107.684 15.5333 108.664 15.272 109.821 15.272C111.501 15.272 112.752 15.7853 113.573 16.812C114.395 17.82 114.805 19.164 114.805 20.844V30H111.809V21.348C111.809 20.2093 111.557 19.3787 111.053 18.856C110.568 18.3147 109.887 18.044 109.009 18.044C108.319 18.044 107.712 18.24 107.189 18.632C106.667 19.0053 106.256 19.5187 105.957 20.172C105.677 20.8253 105.537 21.5533 105.537 22.356V30H102.541V21.348C102.541 20.2093 102.289 19.3787 101.785 18.856C101.281 18.3147 100.572 18.044 99.6572 18.044C98.9852 18.044 98.3972 18.24 97.8932 18.632C97.3892 19.024 96.9879 19.5467 96.6892 20.2C96.4092 20.8533 96.2692 21.5813 96.2692 22.384V30H93.2452ZM126.126 30.448C125.025 30.448 124.073 30.2147 123.27 29.748C122.486 29.2627 121.907 28.712 121.534 28.096H121.366V30H118.51V9.952H121.534V15.664L121.366 17.652H121.534C121.907 17.036 122.486 16.4853 123.27 16C124.073 15.5147 125.025 15.272 126.126 15.272C127.433 15.272 128.599 15.5987 129.626 16.252C130.653 16.9053 131.465 17.8013 132.062 18.94C132.678 20.0787 132.986 21.3853 132.986 22.86C132.986 24.3347 132.678 25.6507 132.062 26.808C131.465 27.9467 130.653 28.8427 129.626 29.496C128.599 30.1307 127.433 30.448 126.126 30.448ZM125.678 27.676C126.425 27.676 127.125 27.48 127.778 27.088C128.431 26.696 128.963 26.1453 129.374 25.436C129.785 24.708 129.99 23.8493 129.99 22.86C129.99 21.8707 129.785 21.0213 129.374 20.312C128.963 19.584 128.431 19.024 127.778 18.632C127.125 18.24 126.425 18.044 125.678 18.044C124.931 18.044 124.231 18.24 123.578 18.632C122.925 19.024 122.393 19.584 121.982 20.312C121.571 21.0213 121.366 21.8707 121.366 22.86C121.366 23.8493 121.571 24.708 121.982 25.436C122.393 26.1453 122.925 26.696 123.578 27.088C124.231 27.48 124.931 27.676 125.678 27.676Z" fill="#3C4043"/>
<g id="GPay Logo (Light)">
<g id="GPay">
<g id="Pay">
<path id="Fill 1" fill-rule="evenodd" clip-rule="evenodd" d="M184.529 9.44664V17.6128H189.565C190.765 17.6128 191.757 17.2096 192.541 16.4032C193.347 15.5988 193.75 14.6394 193.75 13.5288C193.75 12.4406 193.347 11.4924 192.541 10.686C191.757 9.85915 190.765 9.44478 189.565 9.44478H184.529V9.44664ZM184.529 20.4872V29.9599H181.521V6.57217H189.499C191.527 6.57217 193.248 7.24786 194.666 8.59737C196.105 9.94688 196.824 11.5913 196.824 13.5288C196.824 15.511 196.105 17.1667 194.666 18.4938C193.27 19.8227 191.547 20.4854 189.499 20.4854H184.529V20.4872Z" fill="#5F6368"/>
<path id="Fill 3" fill-rule="evenodd" clip-rule="evenodd" d="M199.864 25.0602C199.864 25.8442 200.197 26.4975 200.862 27.0201C201.527 27.5427 202.306 27.804 203.2 27.804C204.465 27.804 205.591 27.3354 206.584 26.4004C207.576 25.4634 208.071 24.364 208.071 23.1022C207.133 22.3612 205.825 21.9916 204.147 21.9916C202.925 21.9916 201.907 22.2865 201.09 22.8745C200.273 23.4623 199.864 24.1886 199.864 25.0602ZM203.756 13.4317C205.98 13.4317 207.735 14.0252 209.022 15.2124C210.308 16.3995 210.95 18.0271 210.95 20.0952V29.9599H208.073V27.7387H207.942C206.699 29.5677 205.042 30.4825 202.972 30.4825C201.206 30.4825 199.728 29.9599 198.541 28.9146C197.353 27.8694 196.759 26.5628 196.759 24.9949C196.759 23.3393 197.385 22.0232 198.638 21.0434C199.892 20.0635 201.565 19.5726 203.658 19.5726C205.444 19.5726 206.916 19.8992 208.071 20.5525V19.8656C208.071 18.8204 207.656 17.9338 206.829 17.204C205.999 16.4741 205.031 16.1102 203.919 16.1102C202.239 16.1102 200.911 16.8176 199.93 18.2343L197.28 16.5675C198.741 14.4769 200.899 13.4317 203.756 13.4317Z" fill="#5F6368"/>
<path id="Fill 5" fill-rule="evenodd" clip-rule="evenodd" d="M227.463 13.9543L217.424 37.0154H214.318L218.046 28.9464L211.44 13.9543H214.71L219.484 25.4522H219.55L224.193 13.9543H227.463Z" fill="#5F6368"/>
</g>
<g id="G">
<path id="Fill 8" fill-rule="evenodd" clip-rule="evenodd" d="M172.373 18.4452C172.373 17.4989 172.293 16.5861 172.141 15.7126H159.454V20.8885H166.72C166.408 22.5757 165.465 24.0112 164.033 24.9725V28.3341H168.37C170.91 25.9935 172.373 22.5348 172.373 18.4452Z" fill="#4285F4"/>
<path id="Fill 10" fill-rule="evenodd" clip-rule="evenodd" d="M159.454 31.5782C163.084 31.5782 166.141 30.3873 168.37 28.3341L164.033 24.9725C162.826 25.7844 161.272 26.2585 159.454 26.2585C155.944 26.2585 152.966 23.8955 151.901 20.7112H147.433V24.1736C149.647 28.5637 154.197 31.5782 159.454 31.5782Z" fill="#34A853"/>
<path id="Fill 12" fill-rule="evenodd" clip-rule="evenodd" d="M151.901 20.7111C151.628 19.8992 151.479 19.0331 151.479 18.139C151.479 17.245 151.628 16.3789 151.901 15.567V12.1045H147.433C146.518 13.9188 146 15.9683 146 18.139C146 20.3098 146.518 22.3595 147.433 24.1736L151.901 20.7111Z" fill="#FABB05"/>
<path id="Fill 14" fill-rule="evenodd" clip-rule="evenodd" d="M159.454 10.0196C161.436 10.0196 163.213 10.7009 164.615 12.0355V12.0374L168.455 8.20162C166.123 6.03271 163.082 4.7 159.454 4.7C154.197 4.7 149.647 7.71446 147.433 12.1046L151.901 15.567C152.966 12.3827 155.944 10.0196 159.454 10.0196Z" fill="#E94235"/>
</g>
</g>
</g>
</g>
</svg>
