<svg width="214" height="21" viewBox="0 0 214 21" fill="none" xmlns="http://www.w3.org/2000/svg">
<g id="ca_donate_with_Pay_NBG">
<path id="Left Text" d="M2.14288 15.0006V3.54461H9.08688V5.20861H3.90288V8.56861H8.57488V10.2326H3.90288V15.0006H2.14288ZM14.0766 15.2566C13.2766 15.2566 12.562 15.0699 11.9326 14.6966C11.3033 14.3233 10.8073 13.8113 10.4446 13.1606C10.0926 12.5099 9.91663 11.7686 9.91663 10.9366C9.91663 10.1579 10.0873 9.43794 10.4286 8.77661C10.77 8.11528 11.2446 7.58728 11.8526 7.19261C12.4713 6.78728 13.1806 6.58461 13.9806 6.58461C14.8233 6.58461 15.538 6.76594 16.1246 7.12861C16.722 7.49128 17.1753 7.98728 17.4846 8.61661C17.794 9.24594 17.9486 9.95528 17.9486 10.7446C17.9486 10.8619 17.9433 10.9686 17.9326 11.0646C17.9326 11.1606 17.9273 11.2353 17.9166 11.2886H11.6126C11.6553 11.7366 11.7673 12.1259 11.9486 12.4566C12.1833 12.8726 12.4926 13.1873 12.8766 13.4006C13.2606 13.6139 13.6766 13.7206 14.1246 13.7206C14.6686 13.7206 15.122 13.5979 15.4846 13.3526C15.858 13.0966 16.1513 12.7819 16.3646 12.4086L17.7886 13.0966C17.4366 13.7366 16.9566 14.2593 16.3486 14.6646C15.7406 15.0593 14.9833 15.2566 14.0766 15.2566ZM11.7086 9.99261H16.2366C16.226 9.78994 16.1726 9.57661 16.0766 9.35261C15.9806 9.11794 15.842 8.90461 15.6606 8.71261C15.4793 8.52061 15.25 8.36594 14.9726 8.24861C14.6953 8.12061 14.37 8.05661 13.9966 8.05661C13.5273 8.05661 13.1113 8.17928 12.7486 8.42461C12.386 8.65928 12.1033 8.98994 11.9006 9.41661C11.8153 9.59794 11.7513 9.78994 11.7086 9.99261ZM22.7559 15.2566C22.1052 15.2566 21.5399 15.1606 21.0599 14.9686C20.5799 14.7659 20.1852 14.4993 19.8759 14.1686C19.5665 13.8273 19.3372 13.4593 19.1879 13.0646L20.7399 12.3926C20.9319 12.8299 21.2039 13.1659 21.5559 13.4006C21.9185 13.6246 22.3345 13.7366 22.8039 13.7366C23.2305 13.7366 23.5985 13.6619 23.9079 13.5126C24.2172 13.3526 24.3719 13.0966 24.3719 12.7446C24.3719 12.5206 24.2972 12.3393 24.1479 12.2006C24.0092 12.0513 23.8172 11.9286 23.5719 11.8326C23.3372 11.7366 23.0652 11.6513 22.7559 11.5766L21.7799 11.3526C21.3959 11.2566 21.0279 11.1073 20.6759 10.9046C20.3345 10.6913 20.0572 10.4246 19.8439 10.1046C19.6305 9.78461 19.5239 9.40594 19.5239 8.96861C19.5239 8.47794 19.6625 8.05661 19.9399 7.70461C20.2279 7.34194 20.6119 7.06461 21.0919 6.87261C21.5719 6.68061 22.0892 6.58461 22.6439 6.58461C23.1559 6.58461 23.6199 6.65394 24.0359 6.79261C24.4625 6.92061 24.8305 7.11794 25.1399 7.38461C25.4599 7.64061 25.7105 7.96061 25.8919 8.34461L24.4039 9.01661C24.2225 8.65394 23.9772 8.40328 23.6679 8.26461C23.3585 8.11528 23.0225 8.04061 22.6599 8.04061C22.2545 8.04061 21.9132 8.12594 21.6359 8.29661C21.3692 8.45661 21.2359 8.66994 21.2359 8.93661C21.2359 9.21394 21.3532 9.43261 21.5879 9.59261C21.8332 9.75261 22.1319 9.88061 22.4839 9.97661L23.6679 10.2646C24.4785 10.4673 25.0865 10.7766 25.4919 11.1926C25.8972 11.5979 26.0999 12.0939 26.0999 12.6806C26.0999 13.2033 25.9505 13.6619 25.6519 14.0566C25.3532 14.4406 24.9479 14.7393 24.4359 14.9526C23.9345 15.1553 23.3745 15.2566 22.7559 15.2566ZM34.6024 15.2566C33.5997 15.2566 32.8424 14.9579 32.3304 14.3606C31.829 13.7526 31.5784 12.9313 31.5784 11.8966V6.84061H33.3064V11.6566C33.3064 12.3393 33.4664 12.8459 33.7864 13.1766C34.117 13.5073 34.5277 13.6726 35.0184 13.6726C35.4664 13.6726 35.8504 13.5606 36.1704 13.3366C36.4904 13.1019 36.7357 12.7979 36.9064 12.4246C37.0877 12.0513 37.1784 11.6513 37.1784 11.2246V6.84061H38.8904V15.0006H37.2744V13.8966H37.1784C37.029 14.1526 36.821 14.3819 36.5544 14.5846C36.2877 14.7873 35.989 14.9473 35.6584 15.0646C35.3277 15.1926 34.9757 15.2566 34.6024 15.2566ZM41.0736 15.0006V6.84061H42.7056V7.96061H42.8016C43.0363 7.56594 43.383 7.24061 43.8416 6.98461C44.311 6.71794 44.823 6.58461 45.3776 6.58461C46.3803 6.58461 47.1323 6.88328 47.6336 7.48061C48.135 8.06728 48.3856 8.85661 48.3856 9.84861V15.0006H46.6736V10.0726C46.6736 9.41128 46.5083 8.93128 46.1776 8.63261C45.847 8.32328 45.415 8.16861 44.8816 8.16861C44.4656 8.16861 44.103 8.28594 43.7936 8.52061C43.4843 8.74461 43.239 9.04328 43.0576 9.41661C42.887 9.78994 42.8016 10.1899 42.8016 10.6166V15.0006H41.0736ZM52.9868 15.2566C52.4001 15.2566 51.8774 15.1393 51.4188 14.9046C50.9708 14.6699 50.6134 14.3499 50.3468 13.9446C50.0908 13.5286 49.9628 13.0539 49.9628 12.5206C49.9628 11.9339 50.1121 11.4379 50.4108 11.0326C50.7201 10.6273 51.1308 10.3179 51.6428 10.1046C52.1548 9.89128 52.7201 9.78461 53.3388 9.78461C53.6801 9.78461 53.9948 9.81128 54.2828 9.86461C54.5814 9.90728 54.8374 9.96061 55.0508 10.0246C55.2748 10.0886 55.4508 10.1579 55.5788 10.2326V9.80061C55.5788 9.26728 55.3868 8.84061 55.0028 8.52061C54.6188 8.20061 54.1228 8.04061 53.5148 8.04061C53.0988 8.04061 52.7041 8.13661 52.3308 8.32861C51.9574 8.50994 51.6588 8.76061 51.4348 9.08061L50.2508 8.16861C50.4854 7.83794 50.7681 7.55528 51.0988 7.32061C51.4401 7.08594 51.8188 6.90461 52.2348 6.77661C52.6614 6.64861 53.1041 6.58461 53.5628 6.58461C54.7468 6.58461 55.6588 6.87794 56.2988 7.46461C56.9388 8.04061 57.2588 8.85128 57.2588 9.89661V15.0006H55.5788V13.9926H55.4828C55.3441 14.2059 55.1521 14.4086 54.9068 14.6006C54.6721 14.7926 54.3894 14.9473 54.0588 15.0646C53.7388 15.1926 53.3814 15.2566 52.9868 15.2566ZM53.2908 13.8486C53.7388 13.8486 54.1334 13.7419 54.4748 13.5286C54.8268 13.3153 55.0988 13.0379 55.2908 12.6966C55.4828 12.3446 55.5788 11.9659 55.5788 11.5606C55.3441 11.4219 55.0561 11.3099 54.7148 11.2246C54.3841 11.1286 54.0321 11.0806 53.6588 11.0806C52.9548 11.0806 52.4534 11.2193 52.1548 11.4966C51.8561 11.7739 51.7068 12.1206 51.7068 12.5366C51.7068 12.9206 51.8508 13.2353 52.1388 13.4806C52.4268 13.7259 52.8108 13.8486 53.2908 13.8486ZM66.6835 15.2566C65.9475 15.2566 65.2808 15.0699 64.6835 14.6966C64.0862 14.3233 63.6168 13.8113 63.2755 13.1606C62.9342 12.5099 62.7635 11.7633 62.7635 10.9206C62.7635 10.0779 62.9342 9.33128 63.2755 8.68061C63.6168 8.02994 64.0862 7.51794 64.6835 7.14461C65.2808 6.77128 65.9475 6.58461 66.6835 6.58461C67.1102 6.58461 67.4942 6.64861 67.8355 6.77661C68.1768 6.90461 68.4702 7.07528 68.7155 7.28861C68.9715 7.49128 69.1688 7.70994 69.3075 7.94461H69.4035L69.3075 6.80861V3.54461H71.0195V15.0006H69.4035V13.9126H69.3075C69.1688 14.1366 68.9715 14.3553 68.7155 14.5686C68.4702 14.7713 68.1768 14.9366 67.8355 15.0646C67.4942 15.1926 67.1102 15.2566 66.6835 15.2566ZM66.9395 13.6726C67.3662 13.6726 67.7662 13.5606 68.1395 13.3366C68.5235 13.1126 68.8275 12.7979 69.0515 12.3926C69.2862 11.9766 69.4035 11.4859 69.4035 10.9206C69.4035 10.3553 69.2862 9.86994 69.0515 9.46461C68.8275 9.04861 68.5235 8.72861 68.1395 8.50461C67.7662 8.28061 67.3662 8.16861 66.9395 8.16861C66.5128 8.16861 66.1128 8.28061 65.7395 8.50461C65.3662 8.72861 65.0622 9.04861 64.8275 9.46461C64.5928 9.86994 64.4755 10.3553 64.4755 10.9206C64.4755 11.4753 64.5928 11.9606 64.8275 12.3766C65.0622 12.7926 65.3662 13.1126 65.7395 13.3366C66.1128 13.5606 66.5128 13.6726 66.9395 13.6726ZM76.9668 15.2566C76.1241 15.2566 75.3828 15.0646 74.7428 14.6806C74.1028 14.2966 73.6014 13.7793 73.2388 13.1286C72.8761 12.4673 72.6948 11.7313 72.6948 10.9206C72.6948 10.1099 72.8761 9.37928 73.2388 8.72861C73.6014 8.06728 74.1028 7.54461 74.7428 7.16061C75.3828 6.77661 76.1241 6.58461 76.9668 6.58461C77.7988 6.58461 78.5348 6.78194 79.1748 7.17661C79.8148 7.56061 80.3161 8.07794 80.6788 8.72861C81.0414 9.37928 81.2228 10.1099 81.2228 10.9206C81.2228 11.7313 81.0414 12.4673 80.6788 13.1286C80.3161 13.7793 79.8148 14.2966 79.1748 14.6806C78.5348 15.0646 77.7988 15.2566 76.9668 15.2566ZM76.9668 13.6726C77.4148 13.6726 77.8308 13.5659 78.2148 13.3526C78.5988 13.1286 78.9081 12.8139 79.1428 12.4086C79.3881 11.9926 79.5108 11.4966 79.5108 10.9206C79.5108 10.3446 79.3881 9.85394 79.1428 9.44861C78.9081 9.03261 78.5988 8.71794 78.2148 8.50461C77.8308 8.28061 77.4148 8.16861 76.9668 8.16861C76.5188 8.16861 76.0974 8.28061 75.7028 8.50461C75.3188 8.71794 75.0041 9.03261 74.7588 9.44861C74.5241 9.85394 74.4068 10.3446 74.4068 10.9206C74.4068 11.4966 74.5241 11.9926 74.7588 12.4086C75.0041 12.8139 75.3241 13.1286 75.7188 13.3526C76.1134 13.5659 76.5294 13.6726 76.9668 13.6726ZM82.808 15.0006V6.84061H84.44V7.96061H84.536C84.7707 7.56594 85.1173 7.24061 85.576 6.98461C86.0453 6.71794 86.5573 6.58461 87.112 6.58461C88.1147 6.58461 88.8667 6.88328 89.368 7.48061C89.8693 8.06728 90.12 8.85661 90.12 9.84861V15.0006H88.408V10.0726C88.408 9.41128 88.2427 8.93128 87.912 8.63261C87.5813 8.32328 87.1493 8.16861 86.616 8.16861C86.2 8.16861 85.8373 8.28594 85.528 8.52061C85.2187 8.74461 84.9733 9.04328 84.792 9.41661C84.6213 9.78994 84.536 10.1899 84.536 10.6166V15.0006H82.808ZM94.7211 15.2566C94.1345 15.2566 93.6118 15.1393 93.1531 14.9046C92.7051 14.6699 92.3478 14.3499 92.0811 13.9446C91.8251 13.5286 91.6971 13.0539 91.6971 12.5206C91.6971 11.9339 91.8465 11.4379 92.1451 11.0326C92.4545 10.6273 92.8651 10.3179 93.3771 10.1046C93.8891 9.89128 94.4545 9.78461 95.0731 9.78461C95.4145 9.78461 95.7291 9.81128 96.0171 9.86461C96.3158 9.90728 96.5718 9.96061 96.7851 10.0246C97.0091 10.0886 97.1851 10.1579 97.3131 10.2326V9.80061C97.3131 9.26728 97.1211 8.84061 96.7371 8.52061C96.3531 8.20061 95.8571 8.04061 95.2491 8.04061C94.8331 8.04061 94.4385 8.13661 94.0651 8.32861C93.6918 8.50994 93.3931 8.76061 93.1691 9.08061L91.9851 8.16861C92.2198 7.83794 92.5025 7.55528 92.8331 7.32061C93.1745 7.08594 93.5531 6.90461 93.9691 6.77661C94.3958 6.64861 94.8385 6.58461 95.2971 6.58461C96.4811 6.58461 97.3931 6.87794 98.0331 7.46461C98.6731 8.04061 98.9931 8.85128 98.9931 9.89661V15.0006H97.3131V13.9926H97.2171C97.0785 14.2059 96.8865 14.4086 96.6411 14.6006C96.4065 14.7926 96.1238 14.9473 95.7931 15.0646C95.4731 15.1926 95.1158 15.2566 94.7211 15.2566ZM95.0251 13.8486C95.4731 13.8486 95.8678 13.7419 96.2091 13.5286C96.5611 13.3153 96.8331 13.0379 97.0251 12.6966C97.2171 12.3446 97.3131 11.9659 97.3131 11.5606C97.0785 11.4219 96.7905 11.3099 96.4491 11.2246C96.1185 11.1286 95.7665 11.0806 95.3931 11.0806C94.6891 11.0806 94.1878 11.2193 93.8891 11.4966C93.5905 11.7739 93.4411 12.1206 93.4411 12.5366C93.4411 12.9206 93.5851 13.2353 93.8731 13.4806C94.1611 13.7259 94.5451 13.8486 95.0251 13.8486ZM104.743 15.2566C103.922 15.2566 103.191 15.0699 102.551 14.6966C101.922 14.3233 101.426 13.8113 101.063 13.1606C100.711 12.4993 100.535 11.7526 100.535 10.9206C100.535 10.0886 100.711 9.34728 101.063 8.69661C101.426 8.04594 101.922 7.53394 102.551 7.16061C103.191 6.77661 103.922 6.58461 104.743 6.58461C105.65 6.58461 106.413 6.78728 107.031 7.19261C107.661 7.59794 108.109 8.14728 108.375 8.84061L106.807 9.48061C106.615 9.04328 106.338 8.71794 105.975 8.50461C105.623 8.28061 105.202 8.16861 104.711 8.16861C104.263 8.16861 103.853 8.28594 103.479 8.52061C103.106 8.74461 102.807 9.05928 102.583 9.46461C102.359 9.86994 102.247 10.3553 102.247 10.9206C102.247 11.4753 102.359 11.9606 102.583 12.3766C102.807 12.7926 103.106 13.1126 103.479 13.3366C103.853 13.5606 104.263 13.6726 104.711 13.6726C105.234 13.6726 105.677 13.5553 106.039 13.3206C106.402 13.0859 106.685 12.7553 106.887 12.3286L108.423 13.0006C108.125 13.6513 107.661 14.1899 107.031 14.6166C106.413 15.0433 105.65 15.2566 104.743 15.2566ZM110.183 15.0006V6.84061H111.911V15.0006H110.183ZM111.047 5.64061C110.727 5.64061 110.45 5.52861 110.215 5.30461C109.991 5.06994 109.879 4.79261 109.879 4.47261C109.879 4.14194 109.991 3.86994 110.215 3.65661C110.45 3.43261 110.727 3.32061 111.047 3.32061C111.378 3.32061 111.655 3.43261 111.879 3.65661C112.103 3.86994 112.215 4.14194 112.215 4.47261C112.215 4.79261 112.103 5.06994 111.879 5.30461C111.655 5.52861 111.378 5.64061 111.047 5.64061ZM117.967 15.2566C117.124 15.2566 116.383 15.0646 115.743 14.6806C115.103 14.2966 114.601 13.7793 114.239 13.1286C113.876 12.4673 113.695 11.7313 113.695 10.9206C113.695 10.1099 113.876 9.37928 114.239 8.72861C114.601 8.06728 115.103 7.54461 115.743 7.16061C116.383 6.77661 117.124 6.58461 117.967 6.58461C118.799 6.58461 119.535 6.78194 120.175 7.17661C120.815 7.56061 121.316 8.07794 121.679 8.72861C122.041 9.37928 122.223 10.1099 122.223 10.9206C122.223 11.7313 122.041 12.4673 121.679 13.1286C121.316 13.7793 120.815 14.2966 120.175 14.6806C119.535 15.0646 118.799 15.2566 117.967 15.2566ZM117.967 13.6726C118.415 13.6726 118.831 13.5659 119.215 13.3526C119.599 13.1286 119.908 12.8139 120.143 12.4086C120.388 11.9926 120.511 11.4966 120.511 10.9206C120.511 10.3446 120.388 9.85394 120.143 9.44861C119.908 9.03261 119.599 8.71794 119.215 8.50461C118.831 8.28061 118.415 8.16861 117.967 8.16861C117.519 8.16861 117.097 8.28061 116.703 8.50461C116.319 8.71794 116.004 9.03261 115.759 9.44861C115.524 9.85394 115.407 10.3446 115.407 10.9206C115.407 11.4966 115.524 11.9926 115.759 12.4086C116.004 12.8139 116.324 13.1286 116.719 13.3526C117.113 13.5659 117.529 13.6726 117.967 13.6726ZM117.263 5.27261L118.015 3.22461H119.967L118.687 5.27261H117.263ZM130.409 15.2566C129.822 15.2566 129.299 15.1393 128.841 14.9046C128.393 14.6699 128.035 14.3499 127.769 13.9446C127.513 13.5286 127.385 13.0539 127.385 12.5206C127.385 11.9339 127.534 11.4379 127.833 11.0326C128.142 10.6273 128.553 10.3179 129.065 10.1046C129.577 9.89128 130.142 9.78461 130.761 9.78461C131.102 9.78461 131.417 9.81128 131.705 9.86461C132.003 9.90728 132.259 9.96061 132.473 10.0246C132.697 10.0886 132.873 10.1579 133.001 10.2326V9.80061C133.001 9.26728 132.809 8.84061 132.425 8.52061C132.041 8.20061 131.545 8.04061 130.937 8.04061C130.521 8.04061 130.126 8.13661 129.753 8.32861C129.379 8.50994 129.081 8.76061 128.857 9.08061L127.673 8.16861C127.907 7.83794 128.19 7.55528 128.521 7.32061C128.862 7.08594 129.241 6.90461 129.657 6.77661C130.083 6.64861 130.526 6.58461 130.985 6.58461C132.169 6.58461 133.081 6.87794 133.721 7.46461C134.361 8.04061 134.681 8.85128 134.681 9.89661V15.0006H133.001V13.9926H132.905C132.766 14.2059 132.574 14.4086 132.329 14.6006C132.094 14.7926 131.811 14.9473 131.481 15.0646C131.161 15.1926 130.803 15.2566 130.409 15.2566ZM130.713 13.8486C131.161 13.8486 131.555 13.7419 131.897 13.5286C132.249 13.3153 132.521 13.0379 132.713 12.6966C132.905 12.3446 133.001 11.9659 133.001 11.5606C132.766 11.4219 132.478 11.3099 132.137 11.2246C131.806 11.1286 131.454 11.0806 131.081 11.0806C130.377 11.0806 129.875 11.2193 129.577 11.4966C129.278 11.7739 129.129 12.1206 129.129 12.5366C129.129 12.9206 129.273 13.2353 129.561 13.4806C129.849 13.7259 130.233 13.8486 130.713 13.8486ZM136.733 15.0006V6.84061H138.365V7.96061H138.461C138.621 7.69394 138.829 7.45928 139.085 7.25661C139.341 7.05394 139.629 6.89394 139.949 6.77661C140.28 6.64861 140.621 6.58461 140.973 6.58461C141.581 6.58461 142.098 6.72861 142.525 7.01661C142.952 7.30461 143.256 7.66728 143.437 8.10461C143.704 7.67794 144.066 7.32061 144.525 7.03261C144.984 6.73394 145.544 6.58461 146.205 6.58461C147.165 6.58461 147.88 6.87794 148.349 7.46461C148.818 8.04061 149.053 8.80861 149.053 9.76861V15.0006H147.341V10.0566C147.341 9.39528 147.197 8.91528 146.909 8.61661C146.632 8.31794 146.242 8.16861 145.741 8.16861C145.346 8.16861 145 8.28061 144.701 8.50461C144.402 8.71794 144.168 9.01128 143.997 9.38461C143.837 9.75794 143.757 10.1739 143.757 10.6326V15.0006H142.045V10.0566C142.045 9.40594 141.901 8.93128 141.613 8.63261C141.325 8.32328 140.92 8.16861 140.397 8.16861C140.024 8.16861 139.688 8.28061 139.389 8.50461C139.101 8.72861 138.872 9.02728 138.701 9.40061C138.541 9.77394 138.461 10.1899 138.461 10.6486V15.0006H136.733ZM155.501 15.2566C155.085 15.2566 154.706 15.1926 154.365 15.0646C154.023 14.9366 153.725 14.7713 153.469 14.5686C153.223 14.3553 153.026 14.1366 152.877 13.9126H152.781V15.0006H151.149V3.54461H152.877V6.80861L152.781 7.94461H152.877C153.026 7.70994 153.223 7.49128 153.469 7.28861C153.725 7.07528 154.023 6.90461 154.365 6.77661C154.706 6.64861 155.085 6.58461 155.501 6.58461C156.247 6.58461 156.914 6.77128 157.501 7.14461C158.087 7.51794 158.551 8.02994 158.893 8.68061C159.245 9.33128 159.421 10.0779 159.421 10.9206C159.421 11.7633 159.245 12.5099 158.893 13.1606C158.551 13.8113 158.087 14.3233 157.501 14.6966C156.914 15.0699 156.247 15.2566 155.501 15.2566ZM155.245 13.6726C155.671 13.6726 156.071 13.5606 156.445 13.3366C156.829 13.1126 157.133 12.7926 157.357 12.3766C157.591 11.9606 157.709 11.4753 157.709 10.9206C157.709 10.3553 157.591 9.86994 157.357 9.46461C157.133 9.04861 156.829 8.72861 156.445 8.50461C156.071 8.28061 155.671 8.16861 155.245 8.16861C154.818 8.16861 154.418 8.28061 154.045 8.50461C153.671 8.72861 153.367 9.04861 153.133 9.46461C152.898 9.86994 152.781 10.3553 152.781 10.9206C152.781 11.4859 152.898 11.9766 153.133 12.3926C153.367 12.7979 153.671 13.1126 154.045 13.3366C154.418 13.5606 154.818 13.6726 155.245 13.6726Z" fill="white"/>
<g id="GPay (Dark)">
<g id="GPay">
<g id="Pay">
<path id="Fill 1" fill-rule="evenodd" clip-rule="evenodd" d="M188.356 3.42339V8.16175H191.278C191.974 8.16175 192.55 7.92781 193.005 7.45993C193.473 6.99313 193.707 6.43644 193.707 5.79203C193.707 5.16061 193.473 4.61041 193.005 4.14254C192.55 3.66274 191.974 3.4223 191.278 3.4223H188.356V3.42339ZM188.356 9.82966V15.3262H186.611V1.75549H191.24C192.417 1.75549 193.415 2.14756 194.238 2.93061C195.073 3.71365 195.491 4.66782 195.491 5.79203C195.491 6.94224 195.073 7.90291 194.238 8.67296C193.428 9.44409 192.429 9.82858 191.24 9.82858H188.356V9.82966Z" fill="white"/>
<path id="Fill 3" fill-rule="evenodd" clip-rule="evenodd" d="M197.255 12.4831C197.255 12.9379 197.448 13.317 197.834 13.6203C198.22 13.9235 198.672 14.0752 199.19 14.0752C199.924 14.0752 200.578 13.8032 201.153 13.2607C201.729 12.717 202.017 12.0791 202.017 11.3469C201.472 10.917 200.713 10.7025 199.74 10.7025C199.031 10.7025 198.44 10.8736 197.966 11.2148C197.492 11.5559 197.255 11.9773 197.255 12.4831M199.513 5.73566C200.803 5.73566 201.821 6.08007 202.569 6.76889C203.314 7.45771 203.687 8.40213 203.687 9.60216V15.3261H202.018V14.0373H201.942C201.221 15.0985 200.259 15.6294 199.058 15.6294C198.033 15.6294 197.176 15.3261 196.487 14.7196C195.797 14.1131 195.453 13.3549 195.453 12.4452C195.453 11.4845 195.816 10.7208 196.543 10.1523C197.271 9.58375 198.241 9.2989 199.456 9.2989C200.492 9.2989 201.346 9.48844 202.017 9.86751V9.46894C202.017 8.86243 201.776 8.34798 201.296 7.92451C200.814 7.50103 200.252 7.28984 199.607 7.28984C198.633 7.28984 197.862 7.70032 197.293 8.52235L195.755 7.55519C196.603 6.34217 197.855 5.73566 199.513 5.73566" fill="white"/>
<path id="Fill 5" fill-rule="evenodd" clip-rule="evenodd" d="M213.269 6.03894L207.443 19.4201H205.641L207.804 14.738L203.971 6.03894H205.869L208.639 12.7106H208.677L211.371 6.03894H213.269Z" fill="white"/>
</g>
<g id="G">
<path id="Fill 8" fill-rule="evenodd" clip-rule="evenodd" d="M181.303 8.64473C181.303 8.09563 181.256 7.56601 181.168 7.05914H173.806V10.0625H178.023C177.842 11.0414 177.294 11.8744 176.464 12.4322V14.3828H178.98C180.454 13.0246 181.303 11.0177 181.303 8.64473" fill="#4285F4"/>
<path id="Fill 10" fill-rule="evenodd" clip-rule="evenodd" d="M173.806 16.2651C175.913 16.2651 177.687 15.5741 178.98 14.3828L176.464 12.4322C175.764 12.9033 174.861 13.1784 173.806 13.1784C171.77 13.1784 170.042 11.8073 169.424 9.95959H166.832V11.9687C168.116 14.516 170.757 16.2651 173.806 16.2651" fill="#34A853"/>
<path id="Fill 12" fill-rule="evenodd" clip-rule="evenodd" d="M169.424 9.9596C169.266 9.48847 169.179 8.98593 169.179 8.46715C169.179 7.94837 169.266 7.44583 169.424 6.9747V4.96564H166.832C166.3 6.01837 166 7.20756 166 8.46715C166 9.72674 166.3 10.916 166.832 11.9687L169.424 9.9596Z" fill="#FABB05"/>
<path id="Fill 14" fill-rule="evenodd" clip-rule="evenodd" d="M173.806 3.75583C174.957 3.75583 175.988 4.15115 176.801 4.92553V4.92661L179.029 2.70094C177.676 1.44243 175.912 0.669128 173.806 0.669128C170.757 0.669128 168.116 2.41826 166.832 4.9656L169.424 6.97467C170.042 5.12698 171.77 3.75583 173.806 3.75583" fill="#E94235"/>
</g>
</g>
</g>
</g>
</svg>
