<svg width="223" height="21" viewBox="0 0 223 21" fill="none" xmlns="http://www.w3.org/2000/svg">
<g id="ca_order_with_Pay_NBG">
<path id="Left Text" d="M1.75225 15.0006V3.54461H8.69625V5.20861H3.51225V8.56861H8.18425V10.2326H3.51225V15.0006H1.75225ZM13.686 15.2566C12.886 15.2566 12.1713 15.0699 11.542 14.6966C10.9127 14.3233 10.4167 13.8113 10.054 13.1606C9.702 12.5099 9.526 11.7686 9.526 10.9366C9.526 10.1579 9.69667 9.43794 10.038 8.77661C10.3793 8.11528 10.854 7.58728 11.462 7.19261C12.0807 6.78728 12.79 6.58461 13.59 6.58461C14.4327 6.58461 15.1473 6.76594 15.734 7.12861C16.3313 7.49128 16.7847 7.98728 17.094 8.61661C17.4033 9.24594 17.558 9.95528 17.558 10.7446C17.558 10.8619 17.5527 10.9686 17.542 11.0646C17.542 11.1606 17.5367 11.2353 17.526 11.2886H11.222C11.2647 11.7366 11.3767 12.1259 11.558 12.4566C11.7927 12.8726 12.102 13.1873 12.486 13.4006C12.87 13.6139 13.286 13.7206 13.734 13.7206C14.278 13.7206 14.7313 13.5979 15.094 13.3526C15.4673 13.0966 15.7607 12.7819 15.974 12.4086L17.398 13.0966C17.046 13.7366 16.566 14.2593 15.958 14.6646C15.35 15.0593 14.5927 15.2566 13.686 15.2566ZM11.318 9.99261H15.846C15.8353 9.78994 15.782 9.57661 15.686 9.35261C15.59 9.11794 15.4513 8.90461 15.27 8.71261C15.0887 8.52061 14.8593 8.36594 14.582 8.24861C14.3047 8.12061 13.9793 8.05661 13.606 8.05661C13.1367 8.05661 12.7207 8.17928 12.358 8.42461C11.9953 8.65928 11.7127 8.98994 11.51 9.41661C11.4247 9.59794 11.3607 9.78994 11.318 9.99261ZM22.3653 15.2566C21.7146 15.2566 21.1493 15.1606 20.6693 14.9686C20.1893 14.7659 19.7946 14.4993 19.4853 14.1686C19.1759 13.8273 18.9466 13.4593 18.7973 13.0646L20.3493 12.3926C20.5413 12.8299 20.8133 13.1659 21.1653 13.4006C21.5279 13.6246 21.9439 13.7366 22.4133 13.7366C22.8399 13.7366 23.2079 13.6619 23.5173 13.5126C23.8266 13.3526 23.9813 13.0966 23.9813 12.7446C23.9813 12.5206 23.9066 12.3393 23.7573 12.2006C23.6186 12.0513 23.4266 11.9286 23.1813 11.8326C22.9466 11.7366 22.6746 11.6513 22.3653 11.5766L21.3893 11.3526C21.0053 11.2566 20.6373 11.1073 20.2853 10.9046C19.9439 10.6913 19.6666 10.4246 19.4533 10.1046C19.2399 9.78461 19.1333 9.40594 19.1333 8.96861C19.1333 8.47794 19.2719 8.05661 19.5493 7.70461C19.8373 7.34194 20.2213 7.06461 20.7013 6.87261C21.1813 6.68061 21.6986 6.58461 22.2533 6.58461C22.7653 6.58461 23.2293 6.65394 23.6453 6.79261C24.0719 6.92061 24.4399 7.11794 24.7493 7.38461C25.0693 7.64061 25.3199 7.96061 25.5013 8.34461L24.0133 9.01661C23.8319 8.65394 23.5866 8.40328 23.2773 8.26461C22.9679 8.11528 22.6319 8.04061 22.2693 8.04061C21.8639 8.04061 21.5226 8.12594 21.2453 8.29661C20.9786 8.45661 20.8453 8.66994 20.8453 8.93661C20.8453 9.21394 20.9626 9.43261 21.1973 9.59261C21.4426 9.75261 21.7413 9.88061 22.0933 9.97661L23.2773 10.2646C24.0879 10.4673 24.6959 10.7766 25.1013 11.1926C25.5066 11.5979 25.7093 12.0939 25.7093 12.6806C25.7093 13.2033 25.5599 13.6619 25.2613 14.0566C24.9626 14.4406 24.5573 14.7393 24.0453 14.9526C23.5439 15.1553 22.9839 15.2566 22.3653 15.2566ZM34.2118 15.2566C33.2091 15.2566 32.4518 14.9579 31.9398 14.3606C31.4384 13.7526 31.1878 12.9313 31.1878 11.8966V6.84061H32.9158V11.6566C32.9158 12.3393 33.0758 12.8459 33.3958 13.1766C33.7264 13.5073 34.1371 13.6726 34.6278 13.6726C35.0758 13.6726 35.4598 13.5606 35.7798 13.3366C36.0998 13.1019 36.3451 12.7979 36.5158 12.4246C36.6971 12.0513 36.7878 11.6513 36.7878 11.2246V6.84061H38.4998V15.0006H36.8838V13.8966H36.7878C36.6384 14.1526 36.4304 14.3819 36.1638 14.5846C35.8971 14.7873 35.5984 14.9473 35.2678 15.0646C34.9371 15.1926 34.5851 15.2566 34.2118 15.2566ZM40.683 15.0006V6.84061H42.315V7.96061H42.411C42.6457 7.56594 42.9923 7.24061 43.451 6.98461C43.9203 6.71794 44.4323 6.58461 44.987 6.58461C45.9897 6.58461 46.7417 6.88328 47.243 7.48061C47.7443 8.06728 47.995 8.85661 47.995 9.84861V15.0006H46.283V10.0726C46.283 9.41128 46.1177 8.93128 45.787 8.63261C45.4563 8.32328 45.0243 8.16861 44.491 8.16861C44.075 8.16861 43.7123 8.28594 43.403 8.52061C43.0937 8.74461 42.8483 9.04328 42.667 9.41661C42.4963 9.78994 42.411 10.1899 42.411 10.6166V15.0006H40.683ZM52.5961 15.2566C52.0095 15.2566 51.4868 15.1393 51.0281 14.9046C50.5801 14.6699 50.2228 14.3499 49.9561 13.9446C49.7001 13.5286 49.5721 13.0539 49.5721 12.5206C49.5721 11.9339 49.7215 11.4379 50.0201 11.0326C50.3295 10.6273 50.7401 10.3179 51.2521 10.1046C51.7641 9.89128 52.3295 9.78461 52.9481 9.78461C53.2895 9.78461 53.6041 9.81128 53.8921 9.86461C54.1908 9.90728 54.4468 9.96061 54.6601 10.0246C54.8841 10.0886 55.0601 10.1579 55.1881 10.2326V9.80061C55.1881 9.26728 54.9961 8.84061 54.6121 8.52061C54.2281 8.20061 53.7321 8.04061 53.1241 8.04061C52.7081 8.04061 52.3135 8.13661 51.9401 8.32861C51.5668 8.50994 51.2681 8.76061 51.0441 9.08061L49.8601 8.16861C50.0948 7.83794 50.3775 7.55528 50.7081 7.32061C51.0495 7.08594 51.4281 6.90461 51.8441 6.77661C52.2708 6.64861 52.7135 6.58461 53.1721 6.58461C54.3561 6.58461 55.2681 6.87794 55.9081 7.46461C56.5481 8.04061 56.8681 8.85128 56.8681 9.89661V15.0006H55.1881V13.9926H55.0921C54.9535 14.2059 54.7615 14.4086 54.5161 14.6006C54.2815 14.7926 53.9988 14.9473 53.6681 15.0646C53.3481 15.1926 52.9908 15.2566 52.5961 15.2566ZM52.9001 13.8486C53.3481 13.8486 53.7428 13.7419 54.0841 13.5286C54.4361 13.3153 54.7081 13.0379 54.9001 12.6966C55.0921 12.3446 55.1881 11.9659 55.1881 11.5606C54.9535 11.4219 54.6655 11.3099 54.3241 11.2246C53.9935 11.1286 53.6415 11.0806 53.2681 11.0806C52.5641 11.0806 52.0628 11.2193 51.7641 11.4966C51.4655 11.7739 51.3161 12.1206 51.3161 12.5366C51.3161 12.9206 51.4601 13.2353 51.7481 13.4806C52.0361 13.7259 52.4201 13.8486 52.9001 13.8486ZM66.5809 15.2566C65.7595 15.2566 65.0289 15.0699 64.3889 14.6966C63.7595 14.3233 63.2635 13.8113 62.9009 13.1606C62.5489 12.4993 62.3729 11.7526 62.3729 10.9206C62.3729 10.0886 62.5489 9.34728 62.9009 8.69661C63.2635 8.04594 63.7595 7.53394 64.3889 7.16061C65.0289 6.77661 65.7595 6.58461 66.5809 6.58461C67.4875 6.58461 68.2502 6.78728 68.8689 7.19261C69.4982 7.59794 69.9462 8.14728 70.2129 8.84061L68.6449 9.48061C68.4529 9.04328 68.1755 8.71794 67.8129 8.50461C67.4609 8.28061 67.0395 8.16861 66.5489 8.16861C66.1009 8.16861 65.6902 8.28594 65.3169 8.52061C64.9435 8.74461 64.6449 9.05928 64.4209 9.46461C64.1969 9.86994 64.0849 10.3553 64.0849 10.9206C64.0849 11.4753 64.1969 11.9606 64.4209 12.3766C64.6449 12.7926 64.9435 13.1126 65.3169 13.3366C65.6902 13.5606 66.1009 13.6726 66.5489 13.6726C67.0715 13.6726 67.5142 13.5553 67.8769 13.3206C68.2395 13.0859 68.5222 12.7553 68.7249 12.3286L70.2609 13.0006C69.9622 13.6513 69.4982 14.1899 68.8689 14.6166C68.2502 15.0433 67.4875 15.2566 66.5809 15.2566ZM75.6543 15.2566C74.8116 15.2566 74.0703 15.0646 73.4303 14.6806C72.7903 14.2966 72.2889 13.7793 71.9263 13.1286C71.5636 12.4673 71.3823 11.7313 71.3823 10.9206C71.3823 10.1099 71.5636 9.37928 71.9263 8.72861C72.2889 8.06728 72.7903 7.54461 73.4303 7.16061C74.0703 6.77661 74.8116 6.58461 75.6543 6.58461C76.4863 6.58461 77.2223 6.78194 77.8623 7.17661C78.5023 7.56061 79.0036 8.07794 79.3663 8.72861C79.7289 9.37928 79.9103 10.1099 79.9103 10.9206C79.9103 11.7313 79.7289 12.4673 79.3663 13.1286C79.0036 13.7793 78.5023 14.2966 77.8623 14.6806C77.2223 15.0646 76.4863 15.2566 75.6543 15.2566ZM75.6543 13.6726C76.1023 13.6726 76.5183 13.5659 76.9023 13.3526C77.2863 13.1286 77.5956 12.8139 77.8303 12.4086C78.0756 11.9926 78.1983 11.4966 78.1983 10.9206C78.1983 10.3446 78.0756 9.85394 77.8303 9.44861C77.5956 9.03261 77.2863 8.71794 76.9023 8.50461C76.5183 8.28061 76.1023 8.16861 75.6543 8.16861C75.2063 8.16861 74.7849 8.28061 74.3903 8.50461C74.0063 8.71794 73.6916 9.03261 73.4463 9.44861C73.2116 9.85394 73.0943 10.3446 73.0943 10.9206C73.0943 11.4966 73.2116 11.9926 73.4463 12.4086C73.6916 12.8139 74.0116 13.1286 74.4063 13.3526C74.8009 13.5659 75.2169 13.6726 75.6543 13.6726ZM81.4955 15.0006V6.84061H83.1275V7.96061H83.2235C83.3835 7.69394 83.5915 7.45928 83.8475 7.25661C84.1035 7.05394 84.3915 6.89394 84.7115 6.77661C85.0422 6.64861 85.3835 6.58461 85.7355 6.58461C86.3435 6.58461 86.8608 6.72861 87.2875 7.01661C87.7142 7.30461 88.0182 7.66728 88.1995 8.10461C88.4662 7.67794 88.8288 7.32061 89.2875 7.03261C89.7462 6.73394 90.3062 6.58461 90.9675 6.58461C91.9275 6.58461 92.6422 6.87794 93.1115 7.46461C93.5808 8.04061 93.8155 8.80861 93.8155 9.76861V15.0006H92.1035V10.0566C92.1035 9.39528 91.9595 8.91528 91.6715 8.61661C91.3942 8.31794 91.0048 8.16861 90.5035 8.16861C90.1088 8.16861 89.7622 8.28061 89.4635 8.50461C89.1648 8.71794 88.9302 9.01128 88.7595 9.38461C88.5995 9.75794 88.5195 10.1739 88.5195 10.6326V15.0006H86.8075V10.0566C86.8075 9.40594 86.6635 8.93128 86.3755 8.63261C86.0875 8.32328 85.6822 8.16861 85.1595 8.16861C84.7862 8.16861 84.4502 8.28061 84.1515 8.50461C83.8635 8.72861 83.6342 9.02728 83.4635 9.40061C83.3035 9.77394 83.2235 10.1899 83.2235 10.6486V15.0006H81.4955ZM98.393 15.2566C97.8063 15.2566 97.2837 15.1393 96.825 14.9046C96.377 14.6699 96.0197 14.3499 95.753 13.9446C95.497 13.5286 95.369 13.0539 95.369 12.5206C95.369 11.9339 95.5183 11.4379 95.817 11.0326C96.1263 10.6273 96.537 10.3179 97.049 10.1046C97.561 9.89128 98.1263 9.78461 98.745 9.78461C99.0863 9.78461 99.401 9.81128 99.689 9.86461C99.9877 9.90728 100.244 9.96061 100.457 10.0246C100.681 10.0886 100.857 10.1579 100.985 10.2326V9.80061C100.985 9.26728 100.793 8.84061 100.409 8.52061C100.025 8.20061 99.529 8.04061 98.921 8.04061C98.505 8.04061 98.1103 8.13661 97.737 8.32861C97.3637 8.50994 97.065 8.76061 96.841 9.08061L95.657 8.16861C95.8917 7.83794 96.1743 7.55528 96.505 7.32061C96.8463 7.08594 97.225 6.90461 97.641 6.77661C98.0677 6.64861 98.5103 6.58461 98.969 6.58461C100.153 6.58461 101.065 6.87794 101.705 7.46461C102.345 8.04061 102.665 8.85128 102.665 9.89661V15.0006H100.985V13.9926H100.889C100.75 14.2059 100.558 14.4086 100.313 14.6006C100.078 14.7926 99.7957 14.9473 99.465 15.0646C99.145 15.1926 98.7877 15.2566 98.393 15.2566ZM98.697 13.8486C99.145 13.8486 99.5397 13.7419 99.881 13.5286C100.233 13.3153 100.505 13.0379 100.697 12.6966C100.889 12.3446 100.985 11.9659 100.985 11.5606C100.75 11.4219 100.462 11.3099 100.121 11.2246C99.7903 11.1286 99.4383 11.0806 99.065 11.0806C98.361 11.0806 97.8597 11.2193 97.561 11.4966C97.2623 11.7739 97.113 12.1206 97.113 12.5366C97.113 12.9206 97.257 13.2353 97.545 13.4806C97.833 13.7259 98.217 13.8486 98.697 13.8486ZM104.717 15.0006V6.84061H106.349V7.96061H106.445C106.68 7.56594 107.027 7.24061 107.485 6.98461C107.955 6.71794 108.467 6.58461 109.021 6.58461C110.024 6.58461 110.776 6.88328 111.277 7.48061C111.779 8.06728 112.029 8.85661 112.029 9.84861V15.0006H110.317V10.0726C110.317 9.41128 110.152 8.93128 109.821 8.63261C109.491 8.32328 109.059 8.16861 108.525 8.16861C108.109 8.16861 107.747 8.28594 107.437 8.52061C107.128 8.74461 106.883 9.04328 106.701 9.41661C106.531 9.78994 106.445 10.1899 106.445 10.6166V15.0006H104.717ZM117.637 15.2566C116.901 15.2566 116.234 15.0699 115.637 14.6966C115.039 14.3233 114.57 13.8113 114.229 13.1606C113.887 12.5099 113.717 11.7633 113.717 10.9206C113.717 10.0779 113.887 9.33128 114.229 8.68061C114.57 8.02994 115.039 7.51794 115.637 7.14461C116.234 6.77128 116.901 6.58461 117.637 6.58461C118.063 6.58461 118.447 6.64861 118.789 6.77661C119.13 6.90461 119.423 7.07528 119.669 7.28861C119.925 7.49128 120.122 7.70994 120.261 7.94461H120.357L120.261 6.80861V3.54461H121.973V15.0006H120.357V13.9126H120.261C120.122 14.1366 119.925 14.3553 119.669 14.5686C119.423 14.7713 119.13 14.9366 118.789 15.0646C118.447 15.1926 118.063 15.2566 117.637 15.2566ZM117.893 13.6726C118.319 13.6726 118.719 13.5606 119.093 13.3366C119.477 13.1126 119.781 12.7979 120.005 12.3926C120.239 11.9766 120.357 11.4859 120.357 10.9206C120.357 10.3553 120.239 9.86994 120.005 9.46461C119.781 9.04861 119.477 8.72861 119.093 8.50461C118.719 8.28061 118.319 8.16861 117.893 8.16861C117.466 8.16861 117.066 8.28061 116.693 8.50461C116.319 8.72861 116.015 9.04861 115.781 9.46461C115.546 9.86994 115.429 10.3553 115.429 10.9206C115.429 11.4753 115.546 11.9606 115.781 12.3766C116.015 12.7926 116.319 13.1126 116.693 13.3366C117.066 13.5606 117.466 13.6726 117.893 13.6726ZM126.64 15.2566C126.053 15.2566 125.531 15.1393 125.072 14.9046C124.624 14.6699 124.267 14.3499 124 13.9446C123.744 13.5286 123.616 13.0539 123.616 12.5206C123.616 11.9339 123.765 11.4379 124.064 11.0326C124.373 10.6273 124.784 10.3179 125.296 10.1046C125.808 9.89128 126.373 9.78461 126.992 9.78461C127.333 9.78461 127.648 9.81128 127.936 9.86461C128.235 9.90728 128.491 9.96061 128.704 10.0246C128.928 10.0886 129.104 10.1579 129.232 10.2326V9.80061C129.232 9.26728 129.04 8.84061 128.656 8.52061C128.272 8.20061 127.776 8.04061 127.168 8.04061C126.752 8.04061 126.357 8.13661 125.984 8.32861C125.611 8.50994 125.312 8.76061 125.088 9.08061L123.904 8.16861C124.139 7.83794 124.421 7.55528 124.752 7.32061C125.093 7.08594 125.472 6.90461 125.888 6.77661C126.315 6.64861 126.757 6.58461 127.216 6.58461C128.4 6.58461 129.312 6.87794 129.952 7.46461C130.592 8.04061 130.912 8.85128 130.912 9.89661V15.0006H129.232V13.9926H129.136C128.997 14.2059 128.805 14.4086 128.56 14.6006C128.325 14.7926 128.043 14.9473 127.712 15.0646C127.392 15.1926 127.035 15.2566 126.64 15.2566ZM126.944 13.8486C127.392 13.8486 127.787 13.7419 128.128 13.5286C128.48 13.3153 128.752 13.0379 128.944 12.6966C129.136 12.3446 129.232 11.9659 129.232 11.5606C128.997 11.4219 128.709 11.3099 128.368 11.2246C128.037 11.1286 127.685 11.0806 127.312 11.0806C126.608 11.0806 126.107 11.2193 125.808 11.4966C125.509 11.7739 125.36 12.1206 125.36 12.5366C125.36 12.9206 125.504 13.2353 125.792 13.4806C126.08 13.7259 126.464 13.8486 126.944 13.8486ZM139.409 15.2566C138.822 15.2566 138.299 15.1393 137.841 14.9046C137.393 14.6699 137.035 14.3499 136.769 13.9446C136.513 13.5286 136.385 13.0539 136.385 12.5206C136.385 11.9339 136.534 11.4379 136.833 11.0326C137.142 10.6273 137.553 10.3179 138.065 10.1046C138.577 9.89128 139.142 9.78461 139.761 9.78461C140.102 9.78461 140.417 9.81128 140.705 9.86461C141.003 9.90728 141.259 9.96061 141.473 10.0246C141.697 10.0886 141.873 10.1579 142.001 10.2326V9.80061C142.001 9.26728 141.809 8.84061 141.425 8.52061C141.041 8.20061 140.545 8.04061 139.937 8.04061C139.521 8.04061 139.126 8.13661 138.753 8.32861C138.379 8.50994 138.081 8.76061 137.857 9.08061L136.673 8.16861C136.907 7.83794 137.19 7.55528 137.521 7.32061C137.862 7.08594 138.241 6.90461 138.657 6.77661C139.083 6.64861 139.526 6.58461 139.985 6.58461C141.169 6.58461 142.081 6.87794 142.721 7.46461C143.361 8.04061 143.681 8.85128 143.681 9.89661V15.0006H142.001V13.9926H141.905C141.766 14.2059 141.574 14.4086 141.329 14.6006C141.094 14.7926 140.811 14.9473 140.481 15.0646C140.161 15.1926 139.803 15.2566 139.409 15.2566ZM139.713 13.8486C140.161 13.8486 140.555 13.7419 140.897 13.5286C141.249 13.3153 141.521 13.0379 141.713 12.6966C141.905 12.3446 142.001 11.9659 142.001 11.5606C141.766 11.4219 141.478 11.3099 141.137 11.2246C140.806 11.1286 140.454 11.0806 140.081 11.0806C139.377 11.0806 138.875 11.2193 138.577 11.4966C138.278 11.7739 138.129 12.1206 138.129 12.5366C138.129 12.9206 138.273 13.2353 138.561 13.4806C138.849 13.7259 139.233 13.8486 139.713 13.8486ZM145.733 15.0006V6.84061H147.365V7.96061H147.461C147.621 7.69394 147.829 7.45928 148.085 7.25661C148.341 7.05394 148.629 6.89394 148.949 6.77661C149.28 6.64861 149.621 6.58461 149.973 6.58461C150.581 6.58461 151.098 6.72861 151.525 7.01661C151.952 7.30461 152.256 7.66728 152.437 8.10461C152.704 7.67794 153.066 7.32061 153.525 7.03261C153.984 6.73394 154.544 6.58461 155.205 6.58461C156.165 6.58461 156.88 6.87794 157.349 7.46461C157.818 8.04061 158.053 8.80861 158.053 9.76861V15.0006H156.341V10.0566C156.341 9.39528 156.197 8.91528 155.909 8.61661C155.632 8.31794 155.242 8.16861 154.741 8.16861C154.346 8.16861 154 8.28061 153.701 8.50461C153.402 8.71794 153.168 9.01128 152.997 9.38461C152.837 9.75794 152.757 10.1739 152.757 10.6326V15.0006H151.045V10.0566C151.045 9.40594 150.901 8.93128 150.613 8.63261C150.325 8.32328 149.92 8.16861 149.397 8.16861C149.024 8.16861 148.688 8.28061 148.389 8.50461C148.101 8.72861 147.872 9.02728 147.701 9.40061C147.541 9.77394 147.461 10.1899 147.461 10.6486V15.0006H145.733ZM164.501 15.2566C164.085 15.2566 163.706 15.1926 163.365 15.0646C163.023 14.9366 162.725 14.7713 162.469 14.5686C162.223 14.3553 162.026 14.1366 161.877 13.9126H161.781V15.0006H160.149V3.54461H161.877V6.80861L161.781 7.94461H161.877C162.026 7.70994 162.223 7.49128 162.469 7.28861C162.725 7.07528 163.023 6.90461 163.365 6.77661C163.706 6.64861 164.085 6.58461 164.501 6.58461C165.247 6.58461 165.914 6.77128 166.501 7.14461C167.087 7.51794 167.551 8.02994 167.893 8.68061C168.245 9.33128 168.421 10.0779 168.421 10.9206C168.421 11.7633 168.245 12.5099 167.893 13.1606C167.551 13.8113 167.087 14.3233 166.501 14.6966C165.914 15.0699 165.247 15.2566 164.501 15.2566ZM164.245 13.6726C164.671 13.6726 165.071 13.5606 165.445 13.3366C165.829 13.1126 166.133 12.7926 166.357 12.3766C166.591 11.9606 166.709 11.4753 166.709 10.9206C166.709 10.3553 166.591 9.86994 166.357 9.46461C166.133 9.04861 165.829 8.72861 165.445 8.50461C165.071 8.28061 164.671 8.16861 164.245 8.16861C163.818 8.16861 163.418 8.28061 163.045 8.50461C162.671 8.72861 162.367 9.04861 162.133 9.46461C161.898 9.86994 161.781 10.3553 161.781 10.9206C161.781 11.4859 161.898 11.9766 162.133 12.3926C162.367 12.7979 162.671 13.1126 163.045 13.3366C163.418 13.5606 163.818 13.6726 164.245 13.6726Z" fill="white"/>
<g id="GPay (Dark)">
<g id="GPay">
<g id="Pay">
<path id="Fill 1" fill-rule="evenodd" clip-rule="evenodd" d="M197.356 3.42339V8.16175H200.278C200.974 8.16175 201.55 7.92781 202.005 7.45993C202.473 6.99313 202.707 6.43644 202.707 5.79203C202.707 5.16061 202.473 4.61041 202.005 4.14254C201.55 3.66274 200.974 3.4223 200.278 3.4223H197.356V3.42339ZM197.356 9.82966V15.3262H195.611V1.75549H200.24C201.417 1.75549 202.415 2.14756 203.238 2.93061C204.073 3.71365 204.491 4.66782 204.491 5.79203C204.491 6.94224 204.073 7.90291 203.238 8.67296C202.428 9.44409 201.429 9.82858 200.24 9.82858H197.356V9.82966Z" fill="white"/>
<path id="Fill 3" fill-rule="evenodd" clip-rule="evenodd" d="M206.255 12.4831C206.255 12.9379 206.448 13.317 206.834 13.6203C207.22 13.9235 207.672 14.0752 208.19 14.0752C208.924 14.0752 209.578 13.8032 210.153 13.2607C210.729 12.717 211.017 12.0791 211.017 11.3469C210.472 10.917 209.713 10.7025 208.74 10.7025C208.031 10.7025 207.44 10.8736 206.966 11.2148C206.492 11.5559 206.255 11.9773 206.255 12.4831M208.513 5.73566C209.803 5.73566 210.821 6.08007 211.569 6.76889C212.314 7.45771 212.687 8.40213 212.687 9.60216V15.3261H211.018V14.0373H210.942C210.221 15.0985 209.259 15.6294 208.058 15.6294C207.033 15.6294 206.176 15.3261 205.487 14.7196C204.797 14.1131 204.453 13.3549 204.453 12.4452C204.453 11.4845 204.816 10.7208 205.543 10.1523C206.271 9.58375 207.241 9.2989 208.456 9.2989C209.492 9.2989 210.346 9.48844 211.017 9.86751V9.46894C211.017 8.86243 210.776 8.34798 210.296 7.92451C209.814 7.50103 209.252 7.28984 208.607 7.28984C207.633 7.28984 206.862 7.70032 206.293 8.52235L204.755 7.55519C205.603 6.34217 206.855 5.73566 208.513 5.73566" fill="white"/>
<path id="Fill 5" fill-rule="evenodd" clip-rule="evenodd" d="M222.269 6.03894L216.443 19.4201H214.641L216.804 14.738L212.971 6.03894H214.869L217.639 12.7106H217.677L220.371 6.03894H222.269Z" fill="white"/>
</g>
<g id="G">
<path id="Fill 8" fill-rule="evenodd" clip-rule="evenodd" d="M190.303 8.64473C190.303 8.09563 190.256 7.56601 190.168 7.05914H182.806V10.0625H187.023C186.842 11.0414 186.294 11.8744 185.464 12.4322V14.3828H187.98C189.454 13.0246 190.303 11.0177 190.303 8.64473" fill="#4285F4"/>
<path id="Fill 10" fill-rule="evenodd" clip-rule="evenodd" d="M182.806 16.2651C184.913 16.2651 186.687 15.5741 187.98 14.3828L185.464 12.4322C184.764 12.9033 183.861 13.1784 182.806 13.1784C180.77 13.1784 179.042 11.8073 178.424 9.95959H175.832V11.9687C177.116 14.516 179.757 16.2651 182.806 16.2651" fill="#34A853"/>
<path id="Fill 12" fill-rule="evenodd" clip-rule="evenodd" d="M178.424 9.9596C178.266 9.48847 178.179 8.98593 178.179 8.46715C178.179 7.94837 178.266 7.44583 178.424 6.9747V4.96564H175.832C175.3 6.01837 175 7.20756 175 8.46715C175 9.72674 175.3 10.916 175.832 11.9687L178.424 9.9596Z" fill="#FABB05"/>
<path id="Fill 14" fill-rule="evenodd" clip-rule="evenodd" d="M182.806 3.75583C183.957 3.75583 184.988 4.15115 185.801 4.92553V4.92661L188.029 2.70094C186.676 1.44243 184.912 0.669128 182.806 0.669128C179.757 0.669128 177.116 2.41826 175.832 4.9656L178.424 6.97467C179.042 5.12698 180.77 3.75583 182.806 3.75583" fill="#E94235"/>
</g>
</g>
</g>
</g>
</svg>
