<svg width="364" height="38" viewBox="0 0 364 38" fill="none" xmlns="http://www.w3.org/2000/svg">
<g id="ca_order_with_Light">
<path id="Text" d="M2.80862 30V9.952H14.9606V12.864H5.88862V18.744H14.0646V21.656H5.88862V30H2.80862ZM23.7302 30.448C22.3302 30.448 21.0795 30.1213 19.9782 29.468C18.8768 28.8147 18.0088 27.9187 17.3742 26.78C16.7582 25.6413 16.4502 24.344 16.4502 22.888C16.4502 21.5253 16.7488 20.2653 17.3462 19.108C17.9435 17.9507 18.7742 17.0267 19.8382 16.336C20.9208 15.6267 22.1622 15.272 23.5622 15.272C25.0368 15.272 26.2875 15.5893 27.3142 16.224C28.3595 16.8587 29.1528 17.7267 29.6942 18.828C30.2355 19.9293 30.5062 21.1707 30.5062 22.552C30.5062 22.7573 30.4968 22.944 30.4782 23.112C30.4782 23.28 30.4688 23.4107 30.4502 23.504H19.4182C19.5675 24.9227 20.0622 25.9867 20.9022 26.696C21.7608 27.4053 22.7315 27.76 23.8142 27.76C24.7848 27.76 25.5875 27.5453 26.2222 27.116C26.8568 26.668 27.3608 26.1173 27.7342 25.464L30.2262 26.668C29.6102 27.788 28.7702 28.7027 27.7062 29.412C26.6422 30.1027 25.3168 30.448 23.7302 30.448ZM23.5902 17.848C22.5822 17.848 21.7235 18.156 21.0142 18.772C20.3048 19.388 19.8288 20.2093 19.5862 21.236H27.5102C27.4728 20.7507 27.3142 20.2467 27.0342 19.724C26.7542 19.2013 26.3248 18.7627 25.7462 18.408C25.1862 18.0347 24.4675 17.848 23.5902 17.848ZM38.9564 30.448C37.239 30.448 35.867 30.0747 34.8404 29.328C33.8137 28.5627 33.1044 27.6573 32.7124 26.612L35.4284 25.436C35.7644 26.2013 36.2497 26.7893 36.8844 27.2C37.519 27.592 38.2377 27.788 39.0404 27.788C39.787 27.788 40.431 27.6573 40.9724 27.396C41.5137 27.116 41.7844 26.668 41.7844 26.052C41.7844 25.4547 41.5137 25.016 40.9724 24.736C40.431 24.456 39.759 24.2133 38.9564 24.008L37.2484 23.616C36.5577 23.448 35.9137 23.1867 35.3164 22.832C34.719 22.4773 34.2337 22.02 33.8604 21.46C33.487 20.8813 33.3004 20.2093 33.3004 19.444C33.3004 18.604 33.5524 17.876 34.0564 17.26C34.5604 16.6253 35.223 16.14 36.0444 15.804C36.8844 15.4493 37.7897 15.272 38.7604 15.272C40.0857 15.272 41.243 15.5333 42.2324 16.056C43.2404 16.56 43.9777 17.3253 44.4444 18.352L41.8404 19.528C41.5044 18.8933 41.0657 18.4547 40.5244 18.212C40.0017 17.9507 39.423 17.82 38.7884 17.82C38.079 17.82 37.4817 17.9693 36.9964 18.268C36.5297 18.5667 36.2964 18.94 36.2964 19.388C36.2964 19.8733 36.5017 20.256 36.9124 20.536C37.3417 20.816 37.8644 21.04 38.4804 21.208L40.5524 21.712C41.971 22.0667 43.035 22.608 43.7444 23.336C44.4537 24.0453 44.8084 24.9133 44.8084 25.94C44.8084 26.8547 44.547 27.6573 44.0244 28.348C43.5017 29.02 42.7924 29.5427 41.8964 29.916C41.019 30.2707 40.039 30.448 38.9564 30.448ZM54.6107 30V9.952H57.6347V30H54.6107ZM65.8432 30.448C64.8165 30.448 63.9019 30.252 63.0992 29.86C62.2965 29.4493 61.6712 28.88 61.2232 28.152C60.7752 27.424 60.5512 26.5933 60.5512 25.66C60.5512 24.652 60.8125 23.7933 61.3352 23.084C61.8765 22.356 62.5952 21.8053 63.4912 21.432C64.3872 21.0587 65.3765 20.872 66.4592 20.872C67.3552 20.872 68.1392 20.956 68.8112 21.124C69.5019 21.292 70.0245 21.4693 70.3792 21.656V20.9C70.3792 19.9667 70.0432 19.22 69.3712 18.66C68.6992 18.1 67.8312 17.82 66.7672 17.82C66.0392 17.82 65.3485 17.988 64.6952 18.324C64.0419 18.6413 63.5192 19.08 63.1272 19.64L61.0552 18.044C61.6712 17.1853 62.4832 16.5133 63.4912 16.028C64.5179 15.524 65.6379 15.272 66.8512 15.272C68.9232 15.272 70.5192 15.7853 71.6392 16.812C72.7592 17.82 73.3192 19.2387 73.3192 21.068V30H70.3792V28.236H70.2112C69.8379 28.8147 69.2779 29.328 68.5312 29.776C67.7845 30.224 66.8885 30.448 65.8432 30.448ZM66.3752 27.984C67.1592 27.984 67.8499 27.7973 68.4472 27.424C69.0445 27.0507 69.5112 26.5653 69.8472 25.968C70.2019 25.352 70.3792 24.6893 70.3792 23.98C69.9499 23.7373 69.4459 23.5413 68.8672 23.392C68.2885 23.224 67.6725 23.14 67.0192 23.14C65.7872 23.14 64.9099 23.392 64.3872 23.896C63.8645 24.3813 63.6032 24.9787 63.6032 25.688C63.6032 26.36 63.8552 26.9107 64.3592 27.34C64.8632 27.7693 65.5352 27.984 66.3752 27.984ZM90.3915 30.448C88.9542 30.448 87.6849 30.1213 86.5835 29.468C85.4822 28.8147 84.6142 27.9187 83.9795 26.78C83.3449 25.6227 83.0275 24.316 83.0275 22.86C83.0275 21.404 83.3449 20.1067 83.9795 18.968C84.6142 17.8107 85.4822 16.9053 86.5835 16.252C87.6849 15.5987 88.9542 15.272 90.3915 15.272C91.9782 15.272 93.3129 15.6267 94.3955 16.336C95.4969 17.0453 96.2809 18.0067 96.7475 19.22L94.0035 20.34C93.3502 18.8093 92.1275 18.044 90.3355 18.044C89.5515 18.044 88.8329 18.2493 88.1795 18.66C87.5262 19.052 87.0035 19.612 86.6115 20.34C86.2195 21.0493 86.0235 21.8893 86.0235 22.86C86.0235 23.8307 86.2195 24.68 86.6115 25.408C87.0035 26.136 87.5262 26.696 88.1795 27.088C88.8329 27.48 89.5515 27.676 90.3355 27.676C91.2502 27.676 92.0249 27.4707 92.6595 27.06C93.2942 26.6307 93.7889 26.052 94.1435 25.324L96.8315 26.5C96.3275 27.6387 95.5249 28.5813 94.4235 29.328C93.3222 30.0747 91.9782 30.448 90.3915 30.448ZM106.307 30.448C104.833 30.448 103.535 30.112 102.415 29.44C101.295 28.768 100.418 27.8627 99.7834 26.724C99.1488 25.5853 98.8314 24.2973 98.8314 22.86C98.8314 21.4413 99.1488 20.1627 99.7834 19.024C100.418 17.8667 101.295 16.952 102.415 16.28C103.535 15.608 104.833 15.272 106.307 15.272C107.763 15.272 109.051 15.608 110.171 16.28C111.291 16.952 112.169 17.8667 112.803 19.024C113.438 20.1627 113.755 21.4413 113.755 22.86C113.755 24.2973 113.438 25.5853 112.803 26.724C112.169 27.8627 111.291 28.768 110.171 29.44C109.051 30.112 107.763 30.448 106.307 30.448ZM106.307 27.676C107.091 27.676 107.819 27.4893 108.491 27.116C109.163 26.724 109.705 26.1733 110.115 25.464C110.545 24.736 110.759 23.868 110.759 22.86C110.759 21.852 110.545 20.9933 110.115 20.284C109.705 19.556 109.163 19.0053 108.491 18.632C107.819 18.24 107.091 18.044 106.307 18.044C105.523 18.044 104.786 18.24 104.095 18.632C103.423 19.0053 102.873 19.556 102.443 20.284C102.033 20.9933 101.827 21.852 101.827 22.86C101.827 23.868 102.033 24.736 102.443 25.464C102.873 26.1733 103.423 26.724 104.095 27.116C104.786 27.4893 105.523 27.676 106.307 27.676ZM116.567 30V15.72H119.423V17.68H119.591C120.002 16.9893 120.599 16.42 121.383 15.972C122.167 15.5053 123.035 15.272 123.987 15.272C125.051 15.272 125.956 15.524 126.703 16.028C127.45 16.532 127.982 17.1667 128.299 17.932C128.766 17.1853 129.4 16.56 130.203 16.056C131.006 15.5333 131.986 15.272 133.143 15.272C134.823 15.272 136.074 15.7853 136.895 16.812C137.716 17.82 138.127 19.164 138.127 20.844V30H135.131V21.348C135.131 20.2093 134.879 19.3787 134.375 18.856C133.89 18.3147 133.208 18.044 132.331 18.044C131.64 18.044 131.034 18.24 130.511 18.632C129.988 19.0053 129.578 19.5187 129.279 20.172C128.999 20.8253 128.859 21.5533 128.859 22.356V30H125.863V21.348C125.863 20.2093 125.611 19.3787 125.107 18.856C124.603 18.3147 123.894 18.044 122.979 18.044C122.307 18.044 121.719 18.24 121.215 18.632C120.711 19.024 120.31 19.5467 120.011 20.2C119.731 20.8533 119.591 21.5813 119.591 22.384V30H116.567ZM146.175 30.448C145.149 30.448 144.234 30.252 143.431 29.86C142.629 29.4493 142.003 28.88 141.555 28.152C141.107 27.424 140.883 26.5933 140.883 25.66C140.883 24.652 141.145 23.7933 141.667 23.084C142.209 22.356 142.927 21.8053 143.823 21.432C144.719 21.0587 145.709 20.872 146.791 20.872C147.687 20.872 148.471 20.956 149.143 21.124C149.834 21.292 150.357 21.4693 150.711 21.656V20.9C150.711 19.9667 150.375 19.22 149.703 18.66C149.031 18.1 148.163 17.82 147.099 17.82C146.371 17.82 145.681 17.988 145.027 18.324C144.374 18.6413 143.851 19.08 143.459 19.64L141.387 18.044C142.003 17.1853 142.815 16.5133 143.823 16.028C144.85 15.524 145.97 15.272 147.183 15.272C149.255 15.272 150.851 15.7853 151.971 16.812C153.091 17.82 153.651 19.2387 153.651 21.068V30H150.711V28.236H150.543C150.17 28.8147 149.61 29.328 148.863 29.776C148.117 30.224 147.221 30.448 146.175 30.448ZM146.707 27.984C147.491 27.984 148.182 27.7973 148.779 27.424C149.377 27.0507 149.843 26.5653 150.179 25.968C150.534 25.352 150.711 24.6893 150.711 23.98C150.282 23.7373 149.778 23.5413 149.199 23.392C148.621 23.224 148.005 23.14 147.351 23.14C146.119 23.14 145.242 23.392 144.719 23.896C144.197 24.3813 143.935 24.9787 143.935 25.688C143.935 26.36 144.187 26.9107 144.691 27.34C145.195 27.7693 145.867 27.984 146.707 27.984ZM157.28 30V15.72H160.136V17.68H160.304C160.715 16.9893 161.322 16.42 162.124 15.972C162.946 15.5053 163.842 15.272 164.812 15.272C166.567 15.272 167.883 15.7947 168.76 16.84C169.638 17.8853 170.076 19.2667 170.076 20.984V30H167.08V21.376C167.08 20.2187 166.791 19.3787 166.212 18.856C165.634 18.3147 164.878 18.044 163.944 18.044C163.216 18.044 162.582 18.2493 162.04 18.66C161.499 19.052 161.07 19.5747 160.752 20.228C160.454 20.8813 160.304 21.5813 160.304 22.328V30H157.28ZM179.927 30.448C178.639 30.448 177.472 30.1307 176.427 29.496C175.4 28.8427 174.579 27.9467 173.963 26.808C173.365 25.6507 173.067 24.3347 173.067 22.86C173.067 21.3853 173.365 20.0787 173.963 18.94C174.579 17.8013 175.4 16.9053 176.427 16.252C177.472 15.5987 178.639 15.272 179.927 15.272C181.028 15.272 181.971 15.5147 182.755 16C183.557 16.4853 184.145 17.036 184.519 17.652H184.687L184.519 15.664V9.952H187.515V30H184.687V28.096H184.519C184.145 28.712 183.557 29.2627 182.755 29.748C181.971 30.2147 181.028 30.448 179.927 30.448ZM180.375 27.676C181.121 27.676 181.821 27.48 182.475 27.088C183.147 26.696 183.679 26.1453 184.071 25.436C184.481 24.708 184.687 23.8493 184.687 22.86C184.687 21.8707 184.481 21.0213 184.071 20.312C183.679 19.584 183.147 19.024 182.475 18.632C181.821 18.24 181.121 18.044 180.375 18.044C179.628 18.044 178.928 18.24 178.275 18.632C177.621 19.024 177.089 19.584 176.679 20.312C176.268 21.0213 176.063 21.8707 176.063 22.86C176.063 23.8493 176.268 24.708 176.679 25.436C177.089 26.1453 177.621 26.696 178.275 27.088C178.928 27.48 179.628 27.676 180.375 27.676ZM195.72 30.448C194.693 30.448 193.778 30.252 192.976 29.86C192.173 29.4493 191.548 28.88 191.1 28.152C190.652 27.424 190.428 26.5933 190.428 25.66C190.428 24.652 190.689 23.7933 191.212 23.084C191.753 22.356 192.472 21.8053 193.368 21.432C194.264 21.0587 195.253 20.872 196.336 20.872C197.232 20.872 198.016 20.956 198.688 21.124C199.378 21.292 199.901 21.4693 200.256 21.656V20.9C200.256 19.9667 199.92 19.22 199.248 18.66C198.576 18.1 197.708 17.82 196.644 17.82C195.916 17.82 195.225 17.988 194.572 18.324C193.918 18.6413 193.396 19.08 193.004 19.64L190.932 18.044C191.548 17.1853 192.36 16.5133 193.368 16.028C194.394 15.524 195.514 15.272 196.728 15.272C198.8 15.272 200.396 15.7853 201.516 16.812C202.636 17.82 203.196 19.2387 203.196 21.068V30H200.256V28.236H200.088C199.714 28.8147 199.154 29.328 198.408 29.776C197.661 30.224 196.765 30.448 195.72 30.448ZM196.252 27.984C197.036 27.984 197.726 27.7973 198.324 27.424C198.921 27.0507 199.388 26.5653 199.724 25.968C200.078 25.352 200.256 24.6893 200.256 23.98C199.826 23.7373 199.322 23.5413 198.744 23.392C198.165 23.224 197.549 23.14 196.896 23.14C195.664 23.14 194.786 23.392 194.264 23.896C193.741 24.3813 193.48 24.9787 193.48 25.688C193.48 26.36 193.732 26.9107 194.236 27.34C194.74 27.7693 195.412 27.984 196.252 27.984ZM218.14 30.448C217.113 30.448 216.199 30.252 215.396 29.86C214.593 29.4493 213.968 28.88 213.52 28.152C213.072 27.424 212.848 26.5933 212.848 25.66C212.848 24.652 213.109 23.7933 213.632 23.084C214.173 22.356 214.892 21.8053 215.788 21.432C216.684 21.0587 217.673 20.872 218.756 20.872C219.652 20.872 220.436 20.956 221.108 21.124C221.799 21.292 222.321 21.4693 222.676 21.656V20.9C222.676 19.9667 222.34 19.22 221.668 18.66C220.996 18.1 220.128 17.82 219.064 17.82C218.336 17.82 217.645 17.988 216.992 18.324C216.339 18.6413 215.816 19.08 215.424 19.64L213.352 18.044C213.968 17.1853 214.78 16.5133 215.788 16.028C216.815 15.524 217.935 15.272 219.148 15.272C221.22 15.272 222.816 15.7853 223.936 16.812C225.056 17.82 225.616 19.2387 225.616 21.068V30H222.676V28.236H222.508C222.135 28.8147 221.575 29.328 220.828 29.776C220.081 30.224 219.185 30.448 218.14 30.448ZM218.672 27.984C219.456 27.984 220.147 27.7973 220.744 27.424C221.341 27.0507 221.808 26.5653 222.144 25.968C222.499 25.352 222.676 24.6893 222.676 23.98C222.247 23.7373 221.743 23.5413 221.164 23.392C220.585 23.224 219.969 23.14 219.316 23.14C218.084 23.14 217.207 23.392 216.684 23.896C216.161 24.3813 215.9 24.9787 215.9 25.688C215.9 26.36 216.152 26.9107 216.656 27.34C217.16 27.7693 217.832 27.984 218.672 27.984ZM229.245 30V15.72H232.101V17.68H232.269C232.68 16.9893 233.277 16.42 234.061 15.972C234.845 15.5053 235.713 15.272 236.665 15.272C237.729 15.272 238.635 15.524 239.381 16.028C240.128 16.532 240.66 17.1667 240.977 17.932C241.444 17.1853 242.079 16.56 242.881 16.056C243.684 15.5333 244.664 15.272 245.821 15.272C247.501 15.272 248.752 15.7853 249.573 16.812C250.395 17.82 250.805 19.164 250.805 20.844V30H247.809V21.348C247.809 20.2093 247.557 19.3787 247.053 18.856C246.568 18.3147 245.887 18.044 245.009 18.044C244.319 18.044 243.712 18.24 243.189 18.632C242.667 19.0053 242.256 19.5187 241.957 20.172C241.677 20.8253 241.537 21.5533 241.537 22.356V30H238.541V21.348C238.541 20.2093 238.289 19.3787 237.785 18.856C237.281 18.3147 236.572 18.044 235.657 18.044C234.985 18.044 234.397 18.24 233.893 18.632C233.389 19.024 232.988 19.5467 232.689 20.2C232.409 20.8533 232.269 21.5813 232.269 22.384V30H229.245ZM262.126 30.448C261.025 30.448 260.073 30.2147 259.27 29.748C258.486 29.2627 257.907 28.712 257.534 28.096H257.366V30H254.51V9.952H257.534V15.664L257.366 17.652H257.534C257.907 17.036 258.486 16.4853 259.27 16C260.073 15.5147 261.025 15.272 262.126 15.272C263.433 15.272 264.599 15.5987 265.626 16.252C266.653 16.9053 267.465 17.8013 268.062 18.94C268.678 20.0787 268.986 21.3853 268.986 22.86C268.986 24.3347 268.678 25.6507 268.062 26.808C267.465 27.9467 266.653 28.8427 265.626 29.496C264.599 30.1307 263.433 30.448 262.126 30.448ZM261.678 27.676C262.425 27.676 263.125 27.48 263.778 27.088C264.431 26.696 264.963 26.1453 265.374 25.436C265.785 24.708 265.99 23.8493 265.99 22.86C265.99 21.8707 265.785 21.0213 265.374 20.312C264.963 19.584 264.431 19.024 263.778 18.632C263.125 18.24 262.425 18.044 261.678 18.044C260.931 18.044 260.231 18.24 259.578 18.632C258.925 19.024 258.393 19.584 257.982 20.312C257.571 21.0213 257.366 21.8707 257.366 22.86C257.366 23.8493 257.571 24.708 257.982 25.436C258.393 26.1453 258.925 26.696 259.578 27.088C260.231 27.48 260.931 27.676 261.678 27.676Z" fill="#3C4043"/>
<g id="GPay Logo (Light)">
<g id="GPay">
<g id="Pay">
<path id="Fill 1" fill-rule="evenodd" clip-rule="evenodd" d="M320.529 9.44664V17.6128H325.565C326.765 17.6128 327.757 17.2096 328.541 16.4032C329.347 15.5988 329.75 14.6394 329.75 13.5288C329.75 12.4406 329.347 11.4924 328.541 10.686C327.757 9.85915 326.765 9.44478 325.565 9.44478H320.529V9.44664ZM320.529 20.4872V29.9599H317.521V6.57217H325.499C327.527 6.57217 329.248 7.24786 330.666 8.59737C332.105 9.94688 332.824 11.5913 332.824 13.5288C332.824 15.511 332.105 17.1667 330.666 18.4938C329.27 19.8227 327.547 20.4854 325.499 20.4854H320.529V20.4872Z" fill="#5F6368"/>
<path id="Fill 3" fill-rule="evenodd" clip-rule="evenodd" d="M335.864 25.0602C335.864 25.8442 336.197 26.4975 336.862 27.0201C337.527 27.5427 338.306 27.804 339.2 27.804C340.465 27.804 341.591 27.3354 342.584 26.4004C343.576 25.4634 344.071 24.364 344.071 23.1022C343.133 22.3612 341.825 21.9916 340.147 21.9916C338.925 21.9916 337.907 22.2865 337.09 22.8745C336.273 23.4623 335.864 24.1886 335.864 25.0602ZM339.756 13.4317C341.98 13.4317 343.735 14.0252 345.022 15.2124C346.308 16.3995 346.95 18.0271 346.95 20.0952V29.9599H344.073V27.7387H343.942C342.699 29.5677 341.042 30.4825 338.972 30.4825C337.206 30.4825 335.728 29.9599 334.541 28.9146C333.353 27.8694 332.759 26.5628 332.759 24.9949C332.759 23.3393 333.385 22.0232 334.638 21.0434C335.892 20.0635 337.565 19.5726 339.658 19.5726C341.444 19.5726 342.916 19.8992 344.071 20.5525V19.8656C344.071 18.8204 343.656 17.9338 342.829 17.204C341.999 16.4741 341.031 16.1102 339.919 16.1102C338.239 16.1102 336.911 16.8176 335.93 18.2343L333.28 16.5675C334.741 14.4769 336.899 13.4317 339.756 13.4317Z" fill="#5F6368"/>
<path id="Fill 5" fill-rule="evenodd" clip-rule="evenodd" d="M363.463 13.9543L353.424 37.0154H350.318L354.046 28.9464L347.44 13.9543H350.71L355.484 25.4522H355.55L360.193 13.9543H363.463Z" fill="#5F6368"/>
</g>
<g id="G">
<path id="Fill 8" fill-rule="evenodd" clip-rule="evenodd" d="M308.373 18.4452C308.373 17.4989 308.293 16.5861 308.141 15.7126H295.454V20.8885H302.72C302.408 22.5757 301.465 24.0112 300.033 24.9725V28.3341H304.37C306.91 25.9935 308.373 22.5348 308.373 18.4452Z" fill="#4285F4"/>
<path id="Fill 10" fill-rule="evenodd" clip-rule="evenodd" d="M295.454 31.5782C299.084 31.5782 302.141 30.3873 304.37 28.3341L300.033 24.9725C298.826 25.7844 297.272 26.2585 295.454 26.2585C291.944 26.2585 288.966 23.8955 287.901 20.7112H283.433V24.1736C285.647 28.5637 290.197 31.5782 295.454 31.5782Z" fill="#34A853"/>
<path id="Fill 12" fill-rule="evenodd" clip-rule="evenodd" d="M287.901 20.7111C287.628 19.8992 287.479 19.0331 287.479 18.139C287.479 17.245 287.628 16.3789 287.901 15.567V12.1045H283.433C282.518 13.9188 282 15.9683 282 18.139C282 20.3098 282.518 22.3595 283.433 24.1736L287.901 20.7111Z" fill="#FABB05"/>
<path id="Fill 14" fill-rule="evenodd" clip-rule="evenodd" d="M295.454 10.0196C297.436 10.0196 299.213 10.7009 300.615 12.0355V12.0374L304.455 8.20162C302.123 6.03271 299.082 4.7 295.454 4.7C290.197 4.7 285.647 7.71446 283.433 12.1046L287.901 15.567C288.966 12.3827 291.944 10.0196 295.454 10.0196Z" fill="#E94235"/>
</g>
</g>
</g>
</g>
</svg>
