<svg width="128" height="21" viewBox="0 0 128 21" fill="none" xmlns="http://www.w3.org/2000/svg">
<g id="ca_pay_with_Pay_NBG">
<path id="Left Text" d="M1.40225 15.0006V3.54461H5.33825C6.03158 3.54461 6.66091 3.69394 7.22625 3.99261C7.79158 4.28061 8.23958 4.69128 8.57025 5.22461C8.91158 5.74728 9.08225 6.35528 9.08225 7.04861C9.08225 7.73128 8.91158 8.33928 8.57025 8.87261C8.23958 9.40594 7.79158 9.82194 7.22625 10.1206C6.66091 10.4086 6.03158 10.5526 5.33825 10.5526H3.16225V15.0006H1.40225ZM3.16225 8.88861H5.38625C5.80225 8.88861 6.15425 8.80328 6.44225 8.63261C6.73025 8.45128 6.94891 8.22194 7.09825 7.94461C7.25825 7.65661 7.33825 7.35794 7.33825 7.04861C7.33825 6.73928 7.25825 6.44594 7.09825 6.16861C6.94891 5.89128 6.73025 5.66194 6.44225 5.48061C6.15425 5.29928 5.80225 5.20861 5.38625 5.20861H3.16225V8.88861ZM12.9961 15.2566C12.4095 15.2566 11.8868 15.1393 11.4281 14.9046C10.9801 14.6699 10.6228 14.3499 10.3561 13.9446C10.1001 13.5286 9.97212 13.0539 9.97212 12.5206C9.97212 11.9339 10.1215 11.4379 10.4201 11.0326C10.7295 10.6273 11.1401 10.3179 11.6521 10.1046C12.1641 9.89128 12.7295 9.78461 13.3481 9.78461C13.6895 9.78461 14.0041 9.81128 14.2921 9.86461C14.5908 9.90728 14.8468 9.96061 15.0601 10.0246C15.2841 10.0886 15.4601 10.1579 15.5881 10.2326V9.80061C15.5881 9.26728 15.3961 8.84061 15.0121 8.52061C14.6281 8.20061 14.1321 8.04061 13.5241 8.04061C13.1081 8.04061 12.7135 8.13661 12.3401 8.32861C11.9668 8.50994 11.6681 8.76061 11.4441 9.08061L10.2601 8.16861C10.4948 7.83794 10.7775 7.55528 11.1081 7.32061C11.4495 7.08594 11.8281 6.90461 12.2441 6.77661C12.6708 6.64861 13.1135 6.58461 13.5721 6.58461C14.7561 6.58461 15.6681 6.87794 16.3081 7.46461C16.9481 8.04061 17.2681 8.85128 17.2681 9.89661V15.0006H15.5881V13.9926H15.4921C15.3535 14.2059 15.1615 14.4086 14.9161 14.6006C14.6815 14.7926 14.3988 14.9473 14.0681 15.0646C13.7481 15.1926 13.3908 15.2566 12.9961 15.2566ZM13.3001 13.8486C13.7481 13.8486 14.1428 13.7419 14.4841 13.5286C14.8361 13.3153 15.1081 13.0379 15.3001 12.6966C15.4921 12.3446 15.5881 11.9659 15.5881 11.5606C15.3535 11.4219 15.0655 11.3099 14.7241 11.2246C14.3935 11.1286 14.0415 11.0806 13.6681 11.0806C12.9641 11.0806 12.4628 11.2193 12.1641 11.4966C11.8655 11.7739 11.7161 12.1206 11.7161 12.5366C11.7161 12.9206 11.8601 13.2353 12.1481 13.4806C12.4361 13.7259 12.8201 13.8486 13.3001 13.8486ZM22.9224 18.7126C22.2077 18.7126 21.589 18.5953 21.0664 18.3606C20.5544 18.1366 20.1384 17.8433 19.8184 17.4806C19.4984 17.1286 19.269 16.7659 19.1304 16.3926L20.7304 15.7206C20.901 16.1473 21.173 16.4939 21.5464 16.7606C21.9304 17.0379 22.389 17.1766 22.9224 17.1766C23.6797 17.1766 24.2717 16.9526 24.6984 16.5046C25.125 16.0566 25.3384 15.4219 25.3384 14.6006V13.8166H25.2424C24.9864 14.1899 24.6344 14.4939 24.1864 14.7286C23.7384 14.9633 23.221 15.0806 22.6344 15.0806C21.941 15.0806 21.301 14.9046 20.7144 14.5526C20.1384 14.2006 19.6744 13.7099 19.3224 13.0806C18.981 12.4406 18.8104 11.6939 18.8104 10.8406C18.8104 9.97661 18.981 9.22994 19.3224 8.60061C19.6744 7.96061 20.1384 7.46461 20.7144 7.11261C21.301 6.76061 21.941 6.58461 22.6344 6.58461C23.221 6.58461 23.7384 6.70194 24.1864 6.93661C24.6344 7.16061 24.9864 7.46994 25.2424 7.86461H25.3384V6.84061H26.9864V14.5686C26.9864 15.4539 26.8104 16.2059 26.4584 16.8246C26.117 17.4433 25.6424 17.9126 25.0344 18.2326C24.4264 18.5526 23.7224 18.7126 22.9224 18.7126ZM22.9384 13.5126C23.365 13.5126 23.7597 13.4113 24.1224 13.2086C24.4957 12.9953 24.789 12.6913 25.0024 12.2966C25.2264 11.8913 25.3384 11.4059 25.3384 10.8406C25.3384 10.2433 25.2264 9.74728 25.0024 9.35261C24.789 8.95794 24.4957 8.65928 24.1224 8.45661C23.7597 8.25394 23.365 8.15261 22.9384 8.15261C22.5117 8.15261 22.1117 8.25394 21.7384 8.45661C21.3757 8.65928 21.0824 8.96328 20.8584 9.36861C20.6344 9.76328 20.5224 10.2539 20.5224 10.8406C20.5224 11.4166 20.6344 11.9073 20.8584 12.3126C21.0824 12.7073 21.3757 13.0059 21.7384 13.2086C22.1117 13.4113 22.5117 13.5126 22.9384 13.5126ZM31.6399 15.2566C31.0532 15.2566 30.5305 15.1393 30.0719 14.9046C29.6239 14.6699 29.2665 14.3499 28.9999 13.9446C28.7439 13.5286 28.6159 13.0539 28.6159 12.5206C28.6159 11.9339 28.7652 11.4379 29.0639 11.0326C29.3732 10.6273 29.7839 10.3179 30.2959 10.1046C30.8079 9.89128 31.3732 9.78461 31.9919 9.78461C32.3332 9.78461 32.6479 9.81128 32.9359 9.86461C33.2345 9.90728 33.4905 9.96061 33.7039 10.0246C33.9279 10.0886 34.1039 10.1579 34.2319 10.2326V9.80061C34.2319 9.26728 34.0399 8.84061 33.6559 8.52061C33.2719 8.20061 32.7759 8.04061 32.1679 8.04061C31.7519 8.04061 31.3572 8.13661 30.9839 8.32861C30.6105 8.50994 30.3119 8.76061 30.0879 9.08061L28.9039 8.16861C29.1385 7.83794 29.4212 7.55528 29.7519 7.32061C30.0932 7.08594 30.4719 6.90461 30.8879 6.77661C31.3145 6.64861 31.7572 6.58461 32.2159 6.58461C33.3999 6.58461 34.3119 6.87794 34.9519 7.46461C35.5919 8.04061 35.9119 8.85128 35.9119 9.89661V15.0006H34.2319V13.9926H34.1359C33.9972 14.2059 33.8052 14.4086 33.5599 14.6006C33.3252 14.7926 33.0425 14.9473 32.7119 15.0646C32.3919 15.1926 32.0345 15.2566 31.6399 15.2566ZM31.9439 13.8486C32.3919 13.8486 32.7865 13.7419 33.1279 13.5286C33.4799 13.3153 33.7519 13.0379 33.9439 12.6966C34.1359 12.3446 34.2319 11.9659 34.2319 11.5606C33.9972 11.4219 33.7092 11.3099 33.3679 11.2246C33.0372 11.1286 32.6852 11.0806 32.3119 11.0806C31.6079 11.0806 31.1065 11.2193 30.8079 11.4966C30.5092 11.7739 30.3599 12.1206 30.3599 12.5366C30.3599 12.9206 30.5039 13.2353 30.7919 13.4806C31.0799 13.7259 31.4639 13.8486 31.9439 13.8486ZM44.4086 15.2566C43.822 15.2566 43.2993 15.1393 42.8406 14.9046C42.3926 14.6699 42.0353 14.3499 41.7686 13.9446C41.5126 13.5286 41.3846 13.0539 41.3846 12.5206C41.3846 11.9339 41.534 11.4379 41.8326 11.0326C42.142 10.6273 42.5526 10.3179 43.0646 10.1046C43.5766 9.89128 44.142 9.78461 44.7606 9.78461C45.102 9.78461 45.4166 9.81128 45.7046 9.86461C46.0033 9.90728 46.2593 9.96061 46.4726 10.0246C46.6966 10.0886 46.8726 10.1579 47.0006 10.2326V9.80061C47.0006 9.26728 46.8086 8.84061 46.4246 8.52061C46.0406 8.20061 45.5446 8.04061 44.9366 8.04061C44.5206 8.04061 44.126 8.13661 43.7526 8.32861C43.3793 8.50994 43.0806 8.76061 42.8566 9.08061L41.6726 8.16861C41.9073 7.83794 42.19 7.55528 42.5206 7.32061C42.862 7.08594 43.2406 6.90461 43.6566 6.77661C44.0833 6.64861 44.526 6.58461 44.9846 6.58461C46.1686 6.58461 47.0806 6.87794 47.7206 7.46461C48.3606 8.04061 48.6806 8.85128 48.6806 9.89661V15.0006H47.0006V13.9926H46.9046C46.766 14.2059 46.574 14.4086 46.3286 14.6006C46.094 14.7926 45.8113 14.9473 45.4806 15.0646C45.1606 15.1926 44.8033 15.2566 44.4086 15.2566ZM44.7126 13.8486C45.1606 13.8486 45.5553 13.7419 45.8966 13.5286C46.2486 13.3153 46.5206 13.0379 46.7126 12.6966C46.9046 12.3446 47.0006 11.9659 47.0006 11.5606C46.766 11.4219 46.478 11.3099 46.1366 11.2246C45.806 11.1286 45.454 11.0806 45.0806 11.0806C44.3766 11.0806 43.8753 11.2193 43.5766 11.4966C43.278 11.7739 43.1286 12.1206 43.1286 12.5366C43.1286 12.9206 43.2726 13.2353 43.5606 13.4806C43.8486 13.7259 44.2326 13.8486 44.7126 13.8486ZM50.733 15.0006V6.84061H52.365V7.96061H52.461C52.621 7.69394 52.829 7.45928 53.085 7.25661C53.341 7.05394 53.629 6.89394 53.949 6.77661C54.2797 6.64861 54.621 6.58461 54.973 6.58461C55.581 6.58461 56.0983 6.72861 56.525 7.01661C56.9517 7.30461 57.2557 7.66728 57.437 8.10461C57.7037 7.67794 58.0663 7.32061 58.525 7.03261C58.9837 6.73394 59.5437 6.58461 60.205 6.58461C61.165 6.58461 61.8797 6.87794 62.349 7.46461C62.8183 8.04061 63.053 8.80861 63.053 9.76861V15.0006H61.341V10.0566C61.341 9.39528 61.197 8.91528 60.909 8.61661C60.6317 8.31794 60.2423 8.16861 59.741 8.16861C59.3463 8.16861 58.9997 8.28061 58.701 8.50461C58.4023 8.71794 58.1677 9.01128 57.997 9.38461C57.837 9.75794 57.757 10.1739 57.757 10.6326V15.0006H56.045V10.0566C56.045 9.40594 55.901 8.93128 55.613 8.63261C55.325 8.32328 54.9197 8.16861 54.397 8.16861C54.0237 8.16861 53.6877 8.28061 53.389 8.50461C53.101 8.72861 52.8717 9.02728 52.701 9.40061C52.541 9.77394 52.461 10.1899 52.461 10.6486V15.0006H50.733ZM69.5006 15.2566C69.0846 15.2566 68.706 15.1926 68.3646 15.0646C68.0233 14.9366 67.7246 14.7713 67.4686 14.5686C67.2233 14.3553 67.026 14.1366 66.8766 13.9126H66.7806V15.0006H65.1486V3.54461H66.8766V6.80861L66.7806 7.94461H66.8766C67.026 7.70994 67.2233 7.49128 67.4686 7.28861C67.7246 7.07528 68.0233 6.90461 68.3646 6.77661C68.706 6.64861 69.0846 6.58461 69.5006 6.58461C70.2473 6.58461 70.914 6.77128 71.5006 7.14461C72.0873 7.51794 72.5513 8.02994 72.8926 8.68061C73.2446 9.33128 73.4206 10.0779 73.4206 10.9206C73.4206 11.7633 73.2446 12.5099 72.8926 13.1606C72.5513 13.8113 72.0873 14.3233 71.5006 14.6966C70.914 15.0699 70.2473 15.2566 69.5006 15.2566ZM69.2446 13.6726C69.6713 13.6726 70.0713 13.5606 70.4446 13.3366C70.8286 13.1126 71.1326 12.7926 71.3566 12.3766C71.5913 11.9606 71.7086 11.4753 71.7086 10.9206C71.7086 10.3553 71.5913 9.86994 71.3566 9.46461C71.1326 9.04861 70.8286 8.72861 70.4446 8.50461C70.0713 8.28061 69.6713 8.16861 69.2446 8.16861C68.818 8.16861 68.418 8.28061 68.0446 8.50461C67.6713 8.72861 67.3673 9.04861 67.1326 9.46461C66.898 9.86994 66.7806 10.3553 66.7806 10.9206C66.7806 11.4859 66.898 11.9766 67.1326 12.3926C67.3673 12.7979 67.6713 13.1126 68.0446 13.3366C68.418 13.5606 68.818 13.6726 69.2446 13.6726Z" fill="white"/>
<g id="GPay (Dark)">
<g id="GPay">
<g id="Pay">
<path id="Fill 1" fill-rule="evenodd" clip-rule="evenodd" d="M102.356 3.42339V8.16175H105.278C105.974 8.16175 106.55 7.92781 107.005 7.45993C107.473 6.99313 107.707 6.43644 107.707 5.79203C107.707 5.16061 107.473 4.61041 107.005 4.14254C106.55 3.66274 105.974 3.4223 105.278 3.4223H102.356V3.42339ZM102.356 9.82966V15.3262H100.611V1.75549H105.24C106.417 1.75549 107.415 2.14756 108.238 2.93061C109.073 3.71365 109.491 4.66782 109.491 5.79203C109.491 6.94224 109.073 7.90291 108.238 8.67296C107.428 9.44409 106.429 9.82858 105.24 9.82858H102.356V9.82966Z" fill="white"/>
<path id="Fill 3" fill-rule="evenodd" clip-rule="evenodd" d="M111.255 12.4831C111.255 12.9379 111.448 13.317 111.834 13.6203C112.22 13.9235 112.672 14.0752 113.19 14.0752C113.924 14.0752 114.578 13.8032 115.153 13.2607C115.729 12.717 116.017 12.0791 116.017 11.3469C115.472 10.917 114.713 10.7025 113.74 10.7025C113.031 10.7025 112.44 10.8736 111.966 11.2148C111.492 11.5559 111.255 11.9773 111.255 12.4831M113.513 5.73566C114.803 5.73566 115.821 6.08007 116.569 6.76889C117.314 7.45771 117.687 8.40213 117.687 9.60216V15.3261H116.018V14.0373H115.942C115.221 15.0985 114.259 15.6294 113.058 15.6294C112.033 15.6294 111.176 15.3261 110.487 14.7196C109.797 14.1131 109.453 13.3549 109.453 12.4452C109.453 11.4845 109.816 10.7208 110.543 10.1523C111.271 9.58375 112.241 9.2989 113.456 9.2989C114.492 9.2989 115.346 9.48844 116.017 9.86751V9.46894C116.017 8.86243 115.776 8.34798 115.296 7.92451C114.814 7.50103 114.252 7.28984 113.607 7.28984C112.633 7.28984 111.862 7.70032 111.293 8.52235L109.755 7.55519C110.603 6.34217 111.855 5.73566 113.513 5.73566" fill="white"/>
<path id="Fill 5" fill-rule="evenodd" clip-rule="evenodd" d="M127.269 6.03894L121.443 19.4201H119.641L121.804 14.738L117.971 6.03894H119.869L122.639 12.7106H122.677L125.371 6.03894H127.269Z" fill="white"/>
</g>
<g id="G">
<path id="Fill 8" fill-rule="evenodd" clip-rule="evenodd" d="M95.3029 8.64473C95.3029 8.09563 95.2562 7.56601 95.1684 7.05914H87.8065V10.0625H92.0231C91.842 11.0414 91.2944 11.8744 90.4639 12.4322V14.3828H92.9804C94.4539 13.0246 95.3029 11.0177 95.3029 8.64473" fill="#4285F4"/>
<path id="Fill 10" fill-rule="evenodd" clip-rule="evenodd" d="M87.8065 16.2651C89.9131 16.2651 91.6869 15.5741 92.9804 14.3828L90.4639 12.4322C89.7635 12.9033 88.8614 13.1784 87.8065 13.1784C85.7703 13.1784 84.042 11.8073 83.424 9.95959H80.8316V11.9687C82.1164 14.516 84.7565 16.2651 87.8065 16.2651" fill="#34A853"/>
<path id="Fill 12" fill-rule="evenodd" clip-rule="evenodd" d="M83.424 9.9596C83.2657 9.48847 83.179 8.98593 83.179 8.46715C83.179 7.94837 83.2657 7.44583 83.424 6.9747V4.96564H80.8316C80.3003 6.01837 80 7.20756 80 8.46715C80 9.72674 80.3003 10.916 80.8316 11.9687L83.424 9.9596Z" fill="#FABB05"/>
<path id="Fill 14" fill-rule="evenodd" clip-rule="evenodd" d="M87.8065 3.75583C88.9568 3.75583 89.9879 4.15115 90.8011 4.92553V4.92661L93.0292 2.70094C91.6761 1.44243 89.912 0.669128 87.8065 0.669128C84.7565 0.669128 82.1164 2.41826 80.8316 4.9656L83.424 6.97467C84.042 5.12698 85.7703 3.75583 87.8065 3.75583" fill="#E94235"/>
</g>
</g>
</g>
</g>
</svg>
