<svg width="224" height="38" viewBox="0 0 224 38" fill="none" xmlns="http://www.w3.org/2000/svg">
<g id="ca_pay_with_Dark">
<path id="Text" d="M2.69143 30V9.952H9.57943C10.7928 9.952 11.8941 10.2133 12.8834 10.736C13.8728 11.2587 14.6568 11.9773 15.2354 12.892C15.8328 13.8067 16.1314 14.8707 16.1314 16.084C16.1314 17.2973 15.8328 18.3707 15.2354 19.304C14.6568 20.2187 13.8728 20.9373 12.8834 21.46C11.8941 21.964 10.7928 22.216 9.57943 22.216H5.77143V30H2.69143ZM9.66343 12.864H5.77143V19.304H9.66343C10.3914 19.304 11.0074 19.1547 11.5114 18.856C12.0154 18.5387 12.3981 18.1373 12.6594 17.652C12.9394 17.148 13.0794 16.6253 13.0794 16.084C13.0794 15.5427 12.9394 15.0293 12.6594 14.544C12.3981 14.0587 12.0154 13.6573 11.5114 13.34C11.0074 13.0227 10.3914 12.864 9.66343 12.864ZM23.0182 30.448C21.9915 30.448 21.0769 30.252 20.2742 29.86C19.4715 29.4493 18.8462 28.88 18.3982 28.152C17.9502 27.424 17.7262 26.5933 17.7262 25.66C17.7262 24.652 17.9875 23.7933 18.5102 23.084C19.0515 22.356 19.7702 21.8053 20.6662 21.432C21.5622 21.0587 22.5515 20.872 23.6342 20.872C24.5302 20.872 25.3142 20.956 25.9862 21.124C26.6769 21.292 27.1995 21.4693 27.5542 21.656V20.9C27.5542 19.9667 27.2182 19.22 26.5462 18.66C25.8742 18.1 25.0062 17.82 23.9422 17.82C23.2142 17.82 22.5235 17.988 21.8702 18.324C21.2169 18.6413 20.6942 19.08 20.3022 19.64L18.2302 18.044C18.8462 17.1853 19.6582 16.5133 20.6662 16.028C21.6929 15.524 22.8129 15.272 24.0262 15.272C26.0982 15.272 27.6942 15.7853 28.8142 16.812C29.9342 17.82 30.4942 19.2387 30.4942 21.068V30H27.5542V28.236H27.3862C27.0129 28.8147 26.4529 29.328 25.7062 29.776C24.9595 30.224 24.0635 30.448 23.0182 30.448ZM23.5502 27.984C24.3342 27.984 25.0249 27.7973 25.6222 27.424C26.2195 27.0507 26.6862 26.5653 27.0222 25.968C27.3769 25.352 27.5542 24.6893 27.5542 23.98C27.1249 23.7373 26.6209 23.5413 26.0422 23.392C25.4635 23.224 24.8475 23.14 24.1942 23.14C22.9622 23.14 22.0849 23.392 21.5622 23.896C21.0395 24.3813 20.7782 24.9787 20.7782 25.688C20.7782 26.36 21.0302 26.9107 21.5342 27.34C22.0382 27.7693 22.7102 27.984 23.5502 27.984ZM40.4266 36.496C39.176 36.496 38.0933 36.2907 37.1786 35.88C36.2826 35.488 35.5546 34.9747 34.9946 34.34C34.4346 33.724 34.0333 33.0893 33.7906 32.436L36.5906 31.26C36.8893 32.0067 37.3653 32.6133 38.0186 33.08C38.6906 33.5653 39.4933 33.808 40.4266 33.808C41.7333 33.808 42.76 33.416 43.5066 32.632C44.272 31.848 44.6546 30.7373 44.6546 29.3V27.928H44.4866C44.0386 28.6 43.4133 29.1413 42.6106 29.552C41.8266 29.944 40.9306 30.14 39.9226 30.14C38.7093 30.14 37.5986 29.832 36.5906 29.216C35.5826 28.6 34.7706 27.7413 34.1546 26.64C33.5386 25.52 33.2306 24.2133 33.2306 22.72C33.2306 21.208 33.5386 19.9013 34.1546 18.8C34.7706 17.68 35.5826 16.812 36.5906 16.196C37.5986 15.58 38.7093 15.272 39.9226 15.272C40.9306 15.272 41.8266 15.4773 42.6106 15.888C43.4133 16.2987 44.0386 16.84 44.4866 17.512H44.6546V15.72H47.5387V29.244C47.5387 30.7933 47.2306 32.1093 46.6146 33.192C46.0173 34.2747 45.1866 35.096 44.1226 35.656C43.0586 36.216 41.8266 36.496 40.4266 36.496ZM40.4546 27.396C41.2013 27.396 41.892 27.2187 42.5266 26.864C43.1613 26.4907 43.6746 25.9587 44.0666 25.268C44.4586 24.5587 44.6546 23.7093 44.6546 22.72C44.6546 21.6933 44.4586 20.8347 44.0666 20.144C43.6746 19.4347 43.1613 18.9027 42.5266 18.548C41.892 18.1933 41.2013 18.016 40.4546 18.016C39.708 18.016 39.008 18.2027 38.3546 18.576C37.72 18.9307 37.2066 19.4533 36.8146 20.144C36.4226 20.8347 36.2266 21.6933 36.2266 22.72C36.2266 23.728 36.4226 24.5867 36.8146 25.296C37.2066 25.9867 37.72 26.5093 38.3546 26.864C39.008 27.2187 39.708 27.396 40.4546 27.396ZM55.7198 30.448C54.6931 30.448 53.7784 30.252 52.9758 29.86C52.1731 29.4493 51.5478 28.88 51.0998 28.152C50.6518 27.424 50.4278 26.5933 50.4278 25.66C50.4278 24.652 50.6891 23.7933 51.2118 23.084C51.7531 22.356 52.4718 21.8053 53.3678 21.432C54.2638 21.0587 55.2531 20.872 56.3358 20.872C57.2318 20.872 58.0158 20.956 58.6878 21.124C59.3784 21.292 59.9011 21.4693 60.2558 21.656V20.9C60.2558 19.9667 59.9198 19.22 59.2478 18.66C58.5758 18.1 57.7078 17.82 56.6438 17.82C55.9158 17.82 55.2251 17.988 54.5718 18.324C53.9184 18.6413 53.3958 19.08 53.0038 19.64L50.9318 18.044C51.5478 17.1853 52.3598 16.5133 53.3678 16.028C54.3944 15.524 55.5144 15.272 56.7278 15.272C58.7998 15.272 60.3958 15.7853 61.5158 16.812C62.6358 17.82 63.1958 19.2387 63.1958 21.068V30H60.2558V28.236H60.0878C59.7144 28.8147 59.1544 29.328 58.4078 29.776C57.6611 30.224 56.7651 30.448 55.7198 30.448ZM56.2518 27.984C57.0358 27.984 57.7264 27.7973 58.3238 27.424C58.9211 27.0507 59.3878 26.5653 59.7238 25.968C60.0784 25.352 60.2558 24.6893 60.2558 23.98C59.8264 23.7373 59.3224 23.5413 58.7438 23.392C58.1651 23.224 57.5491 23.14 56.8958 23.14C55.6638 23.14 54.7864 23.392 54.2638 23.896C53.7411 24.3813 53.4798 24.9787 53.4798 25.688C53.4798 26.36 53.7318 26.9107 54.2358 27.34C54.7398 27.7693 55.4118 27.984 56.2518 27.984ZM78.1401 30.448C77.1134 30.448 76.1988 30.252 75.3961 29.86C74.5934 29.4493 73.9681 28.88 73.5201 28.152C73.0721 27.424 72.8481 26.5933 72.8481 25.66C72.8481 24.652 73.1094 23.7933 73.6321 23.084C74.1734 22.356 74.8921 21.8053 75.7881 21.432C76.6841 21.0587 77.6734 20.872 78.7561 20.872C79.6521 20.872 80.4361 20.956 81.1081 21.124C81.7988 21.292 82.3214 21.4693 82.6761 21.656V20.9C82.6761 19.9667 82.3401 19.22 81.6681 18.66C80.9961 18.1 80.1281 17.82 79.0641 17.82C78.3361 17.82 77.6454 17.988 76.9921 18.324C76.3388 18.6413 75.8161 19.08 75.4241 19.64L73.3521 18.044C73.9681 17.1853 74.7801 16.5133 75.7881 16.028C76.8148 15.524 77.9348 15.272 79.1481 15.272C81.2201 15.272 82.8161 15.7853 83.9361 16.812C85.0561 17.82 85.6161 19.2387 85.6161 21.068V30H82.6761V28.236H82.5081C82.1348 28.8147 81.5748 29.328 80.8281 29.776C80.0814 30.224 79.1854 30.448 78.1401 30.448ZM78.6721 27.984C79.4561 27.984 80.1468 27.7973 80.7441 27.424C81.3414 27.0507 81.8081 26.5653 82.1441 25.968C82.4988 25.352 82.6761 24.6893 82.6761 23.98C82.2468 23.7373 81.7428 23.5413 81.1641 23.392C80.5854 23.224 79.9694 23.14 79.3161 23.14C78.0841 23.14 77.2068 23.392 76.6841 23.896C76.1614 24.3813 75.9001 24.9787 75.9001 25.688C75.9001 26.36 76.1521 26.9107 76.6561 27.34C77.1601 27.7693 77.8321 27.984 78.6721 27.984ZM89.2452 30V15.72H92.1012V17.68H92.2692C92.6799 16.9893 93.2772 16.42 94.0612 15.972C94.8452 15.5053 95.7132 15.272 96.6652 15.272C97.7292 15.272 98.6346 15.524 99.3812 16.028C100.128 16.532 100.66 17.1667 100.977 17.932C101.444 17.1853 102.079 16.56 102.881 16.056C103.684 15.5333 104.664 15.272 105.821 15.272C107.501 15.272 108.752 15.7853 109.573 16.812C110.395 17.82 110.805 19.164 110.805 20.844V30H107.809V21.348C107.809 20.2093 107.557 19.3787 107.053 18.856C106.568 18.3147 105.887 18.044 105.009 18.044C104.319 18.044 103.712 18.24 103.189 18.632C102.667 19.0053 102.256 19.5187 101.957 20.172C101.677 20.8253 101.537 21.5533 101.537 22.356V30H98.5412V21.348C98.5412 20.2093 98.2892 19.3787 97.7852 18.856C97.2812 18.3147 96.5719 18.044 95.6572 18.044C94.9852 18.044 94.3972 18.24 93.8932 18.632C93.3892 19.024 92.9879 19.5467 92.6892 20.2C92.4092 20.8533 92.2692 21.5813 92.2692 22.384V30H89.2452ZM122.126 30.448C121.025 30.448 120.073 30.2147 119.27 29.748C118.486 29.2627 117.907 28.712 117.534 28.096H117.366V30H114.51V9.952H117.534V15.664L117.366 17.652H117.534C117.907 17.036 118.486 16.4853 119.27 16C120.073 15.5147 121.025 15.272 122.126 15.272C123.433 15.272 124.599 15.5987 125.626 16.252C126.653 16.9053 127.465 17.8013 128.062 18.94C128.678 20.0787 128.986 21.3853 128.986 22.86C128.986 24.3347 128.678 25.6507 128.062 26.808C127.465 27.9467 126.653 28.8427 125.626 29.496C124.599 30.1307 123.433 30.448 122.126 30.448ZM121.678 27.676C122.425 27.676 123.125 27.48 123.778 27.088C124.431 26.696 124.963 26.1453 125.374 25.436C125.785 24.708 125.99 23.8493 125.99 22.86C125.99 21.8707 125.785 21.0213 125.374 20.312C124.963 19.584 124.431 19.024 123.778 18.632C123.125 18.24 122.425 18.044 121.678 18.044C120.931 18.044 120.231 18.24 119.578 18.632C118.925 19.024 118.393 19.584 117.982 20.312C117.571 21.0213 117.366 21.8707 117.366 22.86C117.366 23.8493 117.571 24.708 117.982 25.436C118.393 26.1453 118.925 26.696 119.578 27.088C120.231 27.48 120.931 27.676 121.678 27.676Z" fill="white"/>
<g id="GPay Logo (Dark)">
<g id="GPay">
<g id="Pay">
<path id="Fill 1" fill-rule="evenodd" clip-rule="evenodd" d="M180.529 9.34665V17.5128H185.565C186.765 17.5128 187.757 17.1096 188.541 16.3032C189.347 15.4988 189.75 14.5394 189.75 13.4288C189.75 12.3406 189.347 11.3924 188.541 10.586C187.757 9.75916 186.765 9.34479 185.565 9.34479H180.529V9.34665ZM180.529 20.3872V29.8599H177.521V6.47218H185.499C187.527 6.47218 189.248 7.14787 190.666 8.49738C192.105 9.84688 192.824 11.4913 192.824 13.4288C192.824 15.411 192.105 17.0667 190.666 18.3938C189.27 19.7227 187.547 20.3854 185.499 20.3854H180.529V20.3872Z" fill="white"/>
<path id="Fill 3" fill-rule="evenodd" clip-rule="evenodd" d="M195.864 24.9602C195.864 25.7442 196.197 26.3975 196.862 26.9201C197.527 27.4427 198.306 27.704 199.2 27.704C200.465 27.704 201.591 27.2354 202.584 26.3004C203.576 25.3634 204.071 24.264 204.071 23.0022C203.133 22.2612 201.825 21.8916 200.147 21.8916C198.925 21.8916 197.907 22.1866 197.09 22.7745C196.273 23.3623 195.864 24.0886 195.864 24.9602ZM199.756 13.3317C201.98 13.3317 203.735 13.9253 205.022 15.1124C206.308 16.2995 206.95 17.9271 206.95 19.9952V29.8599H204.073V27.6387H203.942C202.699 29.4677 201.042 30.3825 198.972 30.3825C197.206 30.3825 195.728 29.8599 194.541 28.8146C193.353 27.7694 192.759 26.4628 192.759 24.8949C192.759 23.2393 193.385 21.9232 194.638 20.9434C195.892 19.9635 197.565 19.4726 199.658 19.4726C201.444 19.4726 202.916 19.7993 204.071 20.4525V19.7657C204.071 18.7204 203.656 17.8338 202.829 17.104C201.999 16.3742 201.031 16.0102 199.919 16.0102C198.239 16.0102 196.911 16.7176 195.93 18.1343L193.28 16.4675C194.741 14.377 196.899 13.3317 199.756 13.3317Z" fill="white"/>
<path id="Fill 5" fill-rule="evenodd" clip-rule="evenodd" d="M223.463 13.8543L213.424 36.9154H210.318L214.046 28.8464L207.44 13.8543H210.71L215.484 25.3522H215.55L220.193 13.8543H223.463Z" fill="white"/>
</g>
<g id="G">
<path id="Fill 8" fill-rule="evenodd" clip-rule="evenodd" d="M168.373 18.3452C168.373 17.3989 168.293 16.4861 168.141 15.6126H155.454V20.7885H162.72C162.408 22.4757 161.465 23.9112 160.033 24.8725V28.2341H164.37C166.91 25.8935 168.373 22.4348 168.373 18.3452Z" fill="#4285F4"/>
<path id="Fill 10" fill-rule="evenodd" clip-rule="evenodd" d="M155.454 31.4782C159.084 31.4782 162.141 30.2873 164.37 28.2341L160.033 24.8725C158.826 25.6844 157.272 26.1585 155.454 26.1585C151.944 26.1585 148.966 23.7955 147.901 20.6112H143.433V24.0736C145.647 28.4637 150.197 31.4782 155.454 31.4782Z" fill="#34A853"/>
<path id="Fill 12" fill-rule="evenodd" clip-rule="evenodd" d="M147.901 20.6111C147.628 19.7992 147.479 18.9331 147.479 18.0391C147.479 17.145 147.628 16.2789 147.901 15.467V12.0045H143.433C142.518 13.8188 142 15.8683 142 18.0391C142 20.2098 142.518 22.2595 143.433 24.0736L147.901 20.6111Z" fill="#FABB05"/>
<path id="Fill 14" fill-rule="evenodd" clip-rule="evenodd" d="M155.454 9.91964C157.436 9.91964 159.213 10.6009 160.615 11.9355V11.9374L164.455 8.10163C162.123 5.93272 159.082 4.60001 155.454 4.60001C150.197 4.60001 145.647 7.61447 143.433 12.0046L147.901 15.467C148.966 12.2827 151.944 9.91964 155.454 9.91964Z" fill="#E94235"/>
</g>
</g>
</g>
</g>
</svg>
