<svg width="180" height="21" viewBox="0 0 180 21" fill="none" xmlns="http://www.w3.org/2000/svg">
<g id="ca_subscribe_with_Pay_NBG">
<path id="Left Text" d="M5.03963 15.2566C4.43163 15.2566 3.85029 15.1393 3.29563 14.9046C2.74096 14.6593 2.25029 14.3019 1.82363 13.8326C1.40763 13.3633 1.09829 12.7819 0.895627 12.0886L2.55963 11.4166C2.73029 12.0353 3.02896 12.5526 3.45563 12.9686C3.88229 13.3846 4.41563 13.5926 5.05563 13.5926C5.41829 13.5926 5.75429 13.5286 6.06363 13.4006C6.38363 13.2726 6.63963 13.0859 6.83163 12.8406C7.02363 12.5846 7.11963 12.2753 7.11963 11.9126C7.11963 11.5713 7.03963 11.2833 6.87963 11.0486C6.71963 10.8033 6.46363 10.5846 6.11163 10.3926C5.75963 10.1899 5.31163 9.99261 4.76763 9.80061L4.04763 9.54461C3.73829 9.42728 3.42363 9.28328 3.10363 9.11261C2.78363 8.94194 2.48496 8.73394 2.20763 8.48861C1.94096 8.23261 1.72763 7.93394 1.56763 7.59261C1.40763 7.25128 1.32763 6.85661 1.32763 6.40861C1.32763 5.83261 1.47696 5.30994 1.77563 4.84061C2.08496 4.37128 2.50629 3.99794 3.03963 3.72061C3.58363 3.43261 4.21296 3.28861 4.92763 3.28861C5.66363 3.28861 6.27696 3.42194 6.76763 3.68861C7.26896 3.94461 7.65829 4.25394 7.93563 4.61661C8.22363 4.97928 8.42096 5.32594 8.52763 5.65661L6.94363 6.32861C6.87963 6.10461 6.76229 5.88594 6.59163 5.67261C6.43163 5.45928 6.21296 5.28328 5.93563 5.14461C5.66896 4.99528 5.33829 4.92061 4.94363 4.92061C4.60229 4.92061 4.28763 4.98461 3.99963 5.11261C3.72229 5.24061 3.49829 5.41661 3.32763 5.64061C3.15696 5.85394 3.07163 6.10461 3.07163 6.39261C3.07163 6.80861 3.24229 7.14994 3.58363 7.41661C3.92496 7.67261 4.42096 7.90728 5.07163 8.12061L5.80763 8.37661C6.18096 8.50461 6.54896 8.65928 6.91163 8.84061C7.27429 9.01128 7.60496 9.23528 7.90363 9.51261C8.20229 9.77928 8.43696 10.1099 8.60763 10.5046C8.78896 10.8886 8.87963 11.3473 8.87963 11.8806C8.87963 12.4673 8.76229 12.9793 8.52763 13.4166C8.30363 13.8433 7.99963 14.1953 7.61563 14.4726C7.24229 14.7393 6.82629 14.9366 6.36763 15.0646C5.91963 15.1926 5.47696 15.2566 5.03963 15.2566ZM13.5024 15.2566C12.4997 15.2566 11.7424 14.9579 11.2304 14.3606C10.729 13.7526 10.4784 12.9313 10.4784 11.8966V6.84061H12.2064V11.6566C12.2064 12.3393 12.3664 12.8459 12.6864 13.1766C13.017 13.5073 13.4277 13.6726 13.9184 13.6726C14.3664 13.6726 14.7504 13.5606 15.0704 13.3366C15.3904 13.1019 15.6357 12.7979 15.8064 12.4246C15.9877 12.0513 16.0784 11.6513 16.0784 11.2246V6.84061H17.7904V15.0006H16.1744V13.8966H16.0784C15.929 14.1526 15.721 14.3819 15.4544 14.5846C15.1877 14.7873 14.889 14.9473 14.5584 15.0646C14.2277 15.1926 13.8757 15.2566 13.5024 15.2566ZM24.3256 15.2566C23.9096 15.2566 23.531 15.1926 23.1896 15.0646C22.8483 14.9366 22.5496 14.7713 22.2936 14.5686C22.0483 14.3553 21.851 14.1366 21.7016 13.9126H21.6056V15.0006H19.9736V3.54461H21.7016V6.80861L21.6056 7.94461H21.7016C21.851 7.70994 22.0483 7.49128 22.2936 7.28861C22.5496 7.07528 22.8483 6.90461 23.1896 6.77661C23.531 6.64861 23.9096 6.58461 24.3256 6.58461C25.0723 6.58461 25.739 6.77128 26.3256 7.14461C26.9123 7.51794 27.3763 8.02994 27.7176 8.68061C28.0696 9.33128 28.2456 10.0779 28.2456 10.9206C28.2456 11.7633 28.0696 12.5099 27.7176 13.1606C27.3763 13.8113 26.9123 14.3233 26.3256 14.6966C25.739 15.0699 25.0723 15.2566 24.3256 15.2566ZM24.0696 13.6726C24.4963 13.6726 24.8963 13.5606 25.2696 13.3366C25.6536 13.1126 25.9576 12.7926 26.1816 12.3766C26.4163 11.9606 26.5336 11.4753 26.5336 10.9206C26.5336 10.3553 26.4163 9.86994 26.1816 9.46461C25.9576 9.04861 25.6536 8.72861 25.2696 8.50461C24.8963 8.28061 24.4963 8.16861 24.0696 8.16861C23.643 8.16861 23.243 8.28061 22.8696 8.50461C22.4963 8.72861 22.1923 9.04861 21.9576 9.46461C21.723 9.86994 21.6056 10.3553 21.6056 10.9206C21.6056 11.4859 21.723 11.9766 21.9576 12.3926C22.1923 12.7979 22.4963 13.1126 22.8696 13.3366C23.243 13.5606 23.643 13.6726 24.0696 13.6726ZM32.8809 15.2566C32.2302 15.2566 31.6649 15.1606 31.1849 14.9686C30.7049 14.7659 30.3102 14.4993 30.0009 14.1686C29.6915 13.8273 29.4622 13.4593 29.3129 13.0646L30.8649 12.3926C31.0569 12.8299 31.3289 13.1659 31.6809 13.4006C32.0435 13.6246 32.4595 13.7366 32.9289 13.7366C33.3555 13.7366 33.7235 13.6619 34.0329 13.5126C34.3422 13.3526 34.4969 13.0966 34.4969 12.7446C34.4969 12.5206 34.4222 12.3393 34.2729 12.2006C34.1342 12.0513 33.9422 11.9286 33.6969 11.8326C33.4622 11.7366 33.1902 11.6513 32.8809 11.5766L31.9049 11.3526C31.5209 11.2566 31.1529 11.1073 30.8009 10.9046C30.4595 10.6913 30.1822 10.4246 29.9689 10.1046C29.7555 9.78461 29.6489 9.40594 29.6489 8.96861C29.6489 8.47794 29.7875 8.05661 30.0649 7.70461C30.3529 7.34194 30.7369 7.06461 31.2169 6.87261C31.6969 6.68061 32.2142 6.58461 32.7689 6.58461C33.2809 6.58461 33.7449 6.65394 34.1609 6.79261C34.5875 6.92061 34.9555 7.11794 35.2649 7.38461C35.5849 7.64061 35.8355 7.96061 36.0169 8.34461L34.5289 9.01661C34.3475 8.65394 34.1022 8.40328 33.7929 8.26461C33.4835 8.11528 33.1475 8.04061 32.7849 8.04061C32.3795 8.04061 32.0382 8.12594 31.7609 8.29661C31.4942 8.45661 31.3609 8.66994 31.3609 8.93661C31.3609 9.21394 31.4782 9.43261 31.7129 9.59261C31.9582 9.75261 32.2569 9.88061 32.6089 9.97661L33.7929 10.2646C34.6035 10.4673 35.2115 10.7766 35.6169 11.1926C36.0222 11.5979 36.2249 12.0939 36.2249 12.6806C36.2249 13.2033 36.0755 13.6619 35.7769 14.0566C35.4782 14.4406 35.0729 14.7393 34.5609 14.9526C34.0595 15.1553 33.4995 15.2566 32.8809 15.2566ZM41.7371 15.2566C40.9158 15.2566 40.1851 15.0699 39.5451 14.6966C38.9158 14.3233 38.4198 13.8113 38.0571 13.1606C37.7051 12.4993 37.5291 11.7526 37.5291 10.9206C37.5291 10.0886 37.7051 9.34728 38.0571 8.69661C38.4198 8.04594 38.9158 7.53394 39.5451 7.16061C40.1851 6.77661 40.9158 6.58461 41.7371 6.58461C42.6438 6.58461 43.4065 6.78728 44.0251 7.19261C44.6545 7.59794 45.1025 8.14728 45.3691 8.84061L43.8011 9.48061C43.6091 9.04328 43.3318 8.71794 42.9691 8.50461C42.6171 8.28061 42.1958 8.16861 41.7051 8.16861C41.2571 8.16861 40.8465 8.28594 40.4731 8.52061C40.0998 8.74461 39.8011 9.05928 39.5771 9.46461C39.3531 9.86994 39.2411 10.3553 39.2411 10.9206C39.2411 11.4753 39.3531 11.9606 39.5771 12.3766C39.8011 12.7926 40.0998 13.1126 40.4731 13.3366C40.8465 13.5606 41.2571 13.6726 41.7051 13.6726C42.2278 13.6726 42.6705 13.5553 43.0331 13.3206C43.3958 13.0859 43.6785 12.7553 43.8811 12.3286L45.4171 13.0006C45.1185 13.6513 44.6545 14.1899 44.0251 14.6166C43.4065 15.0433 42.6438 15.2566 41.7371 15.2566ZM46.9705 15.0006V6.84061H48.6025V8.04061H48.6985C48.8265 7.76328 49.0078 7.51794 49.2425 7.30461C49.4878 7.09128 49.7652 6.92061 50.0745 6.79261C50.3945 6.66461 50.7252 6.60061 51.0665 6.60061C51.2905 6.60061 51.4772 6.61661 51.6265 6.64861C51.7865 6.66994 51.9305 6.70728 52.0585 6.76061V8.55261C51.8558 8.46728 51.6478 8.39794 51.4345 8.34461C51.2318 8.29128 51.0185 8.26461 50.7945 8.26461C50.3892 8.26461 50.0265 8.37661 49.7065 8.60061C49.3972 8.81394 49.1518 9.10194 48.9705 9.46461C48.7892 9.82728 48.6985 10.2326 48.6985 10.6806V15.0006H46.9705ZM53.6704 15.0006V6.84061H55.3984V15.0006H53.6704ZM54.5344 5.64061C54.2144 5.64061 53.937 5.52861 53.7024 5.30461C53.4784 5.06994 53.3664 4.79261 53.3664 4.47261C53.3664 4.14194 53.4784 3.86994 53.7024 3.65661C53.937 3.43261 54.2144 3.32061 54.5344 3.32061C54.865 3.32061 55.1424 3.43261 55.3664 3.65661C55.5904 3.86994 55.7024 4.14194 55.7024 4.47261C55.7024 4.79261 55.5904 5.06994 55.3664 5.30461C55.1424 5.52861 54.865 5.64061 54.5344 5.64061ZM60.6524 15.2566C59.6497 15.2566 58.8924 14.9579 58.3804 14.3606C57.879 13.7526 57.6284 12.9313 57.6284 11.8966V6.84061H59.3564V11.6566C59.3564 12.3393 59.5164 12.8459 59.8364 13.1766C60.167 13.5073 60.5777 13.6726 61.0684 13.6726C61.5164 13.6726 61.9004 13.5606 62.2204 13.3366C62.5404 13.1019 62.7857 12.7979 62.9564 12.4246C63.1377 12.0513 63.2284 11.6513 63.2284 11.2246V6.84061H64.9404V15.0006H63.3244V13.8966H63.2284C63.079 14.1526 62.871 14.3819 62.6044 14.5846C62.3377 14.7873 62.039 14.9473 61.7084 15.0646C61.3777 15.1926 61.0257 15.2566 60.6524 15.2566ZM67.1076 10.7766V9.30461H72.3556V10.7766H67.1076ZM73.9636 6.84061H75.3876V4.53661H77.1156V6.84061H79.1156V8.34461H77.1156V12.2646C77.1156 12.6699 77.1956 12.9793 77.3556 13.1926C77.5263 13.4059 77.809 13.5126 78.2036 13.5126C78.3956 13.5126 78.5663 13.4859 78.7156 13.4326C78.865 13.3686 79.0143 13.2939 79.1636 13.2086V14.8886C78.9823 14.9633 78.7903 15.0219 78.5876 15.0646C78.385 15.1073 78.145 15.1286 77.8676 15.1286C77.1103 15.1286 76.5076 14.9099 76.0596 14.4726C75.6116 14.0246 75.3876 13.4113 75.3876 12.6326V8.34461H73.9636V6.84061ZM84.3391 15.2566C83.5391 15.2566 82.8245 15.0699 82.1951 14.6966C81.5658 14.3233 81.0698 13.8113 80.7071 13.1606C80.3551 12.5099 80.1791 11.7686 80.1791 10.9366C80.1791 10.1579 80.3498 9.43794 80.6911 8.77661C81.0325 8.11528 81.5071 7.58728 82.1151 7.19261C82.7338 6.78728 83.4431 6.58461 84.2431 6.58461C85.0858 6.58461 85.8005 6.76594 86.3871 7.12861C86.9845 7.49128 87.4378 7.98728 87.7471 8.61661C88.0565 9.24594 88.2111 9.95528 88.2111 10.7446C88.2111 10.8619 88.2058 10.9686 88.1951 11.0646C88.1951 11.1606 88.1898 11.2353 88.1791 11.2886H81.8751C81.9178 11.7366 82.0298 12.1259 82.2111 12.4566C82.4458 12.8726 82.7551 13.1873 83.1391 13.4006C83.5231 13.6139 83.9391 13.7206 84.3871 13.7206C84.9311 13.7206 85.3845 13.5979 85.7471 13.3526C86.1205 13.0966 86.4138 12.7819 86.6271 12.4086L88.0511 13.0966C87.6991 13.7366 87.2191 14.2593 86.6111 14.6646C86.0031 15.0593 85.2458 15.2566 84.3391 15.2566ZM81.9711 9.99261H86.4991C86.4885 9.78994 86.4351 9.57661 86.3391 9.35261C86.2431 9.11794 86.1045 8.90461 85.9231 8.71261C85.7418 8.52061 85.5125 8.36594 85.2351 8.24861C84.9578 8.12061 84.6325 8.05661 84.2591 8.05661C83.7898 8.05661 83.3738 8.17928 83.0111 8.42461C82.6485 8.65928 82.3658 8.98994 82.1631 9.41661C82.0778 9.59794 82.0138 9.78994 81.9711 9.99261ZM96.4086 15.2566C95.822 15.2566 95.2993 15.1393 94.8406 14.9046C94.3926 14.6699 94.0353 14.3499 93.7686 13.9446C93.5126 13.5286 93.3846 13.0539 93.3846 12.5206C93.3846 11.9339 93.534 11.4379 93.8326 11.0326C94.142 10.6273 94.5526 10.3179 95.0646 10.1046C95.5766 9.89128 96.142 9.78461 96.7606 9.78461C97.102 9.78461 97.4166 9.81128 97.7046 9.86461C98.0033 9.90728 98.2593 9.96061 98.4726 10.0246C98.6966 10.0886 98.8726 10.1579 99.0006 10.2326V9.80061C99.0006 9.26728 98.8086 8.84061 98.4246 8.52061C98.0406 8.20061 97.5446 8.04061 96.9366 8.04061C96.5206 8.04061 96.126 8.13661 95.7526 8.32861C95.3793 8.50994 95.0806 8.76061 94.8566 9.08061L93.6726 8.16861C93.9073 7.83794 94.19 7.55528 94.5206 7.32061C94.862 7.08594 95.2406 6.90461 95.6566 6.77661C96.0833 6.64861 96.526 6.58461 96.9846 6.58461C98.1686 6.58461 99.0806 6.87794 99.7206 7.46461C100.361 8.04061 100.681 8.85128 100.681 9.89661V15.0006H99.0006V13.9926H98.9046C98.766 14.2059 98.574 14.4086 98.3286 14.6006C98.094 14.7926 97.8113 14.9473 97.4806 15.0646C97.1606 15.1926 96.8033 15.2566 96.4086 15.2566ZM96.7126 13.8486C97.1606 13.8486 97.5553 13.7419 97.8966 13.5286C98.2486 13.3153 98.5206 13.0379 98.7126 12.6966C98.9046 12.3446 99.0006 11.9659 99.0006 11.5606C98.766 11.4219 98.478 11.3099 98.1366 11.2246C97.806 11.1286 97.454 11.0806 97.0806 11.0806C96.3766 11.0806 95.8753 11.2193 95.5766 11.4966C95.278 11.7739 95.1286 12.1206 95.1286 12.5366C95.1286 12.9206 95.2726 13.2353 95.5606 13.4806C95.8486 13.7259 96.2326 13.8486 96.7126 13.8486ZM102.733 15.0006V6.84061H104.365V7.96061H104.461C104.621 7.69394 104.829 7.45928 105.085 7.25661C105.341 7.05394 105.629 6.89394 105.949 6.77661C106.28 6.64861 106.621 6.58461 106.973 6.58461C107.581 6.58461 108.098 6.72861 108.525 7.01661C108.952 7.30461 109.256 7.66728 109.437 8.10461C109.704 7.67794 110.066 7.32061 110.525 7.03261C110.984 6.73394 111.544 6.58461 112.205 6.58461C113.165 6.58461 113.88 6.87794 114.349 7.46461C114.818 8.04061 115.053 8.80861 115.053 9.76861V15.0006H113.341V10.0566C113.341 9.39528 113.197 8.91528 112.909 8.61661C112.632 8.31794 112.242 8.16861 111.741 8.16861C111.346 8.16861 111 8.28061 110.701 8.50461C110.402 8.71794 110.168 9.01128 109.997 9.38461C109.837 9.75794 109.757 10.1739 109.757 10.6326V15.0006H108.045V10.0566C108.045 9.40594 107.901 8.93128 107.613 8.63261C107.325 8.32328 106.92 8.16861 106.397 8.16861C106.024 8.16861 105.688 8.28061 105.389 8.50461C105.101 8.72861 104.872 9.02728 104.701 9.40061C104.541 9.77394 104.461 10.1899 104.461 10.6486V15.0006H102.733ZM121.501 15.2566C121.085 15.2566 120.706 15.1926 120.365 15.0646C120.023 14.9366 119.725 14.7713 119.469 14.5686C119.223 14.3553 119.026 14.1366 118.877 13.9126H118.781V15.0006H117.149V3.54461H118.877V6.80861L118.781 7.94461H118.877C119.026 7.70994 119.223 7.49128 119.469 7.28861C119.725 7.07528 120.023 6.90461 120.365 6.77661C120.706 6.64861 121.085 6.58461 121.501 6.58461C122.247 6.58461 122.914 6.77128 123.501 7.14461C124.087 7.51794 124.551 8.02994 124.893 8.68061C125.245 9.33128 125.421 10.0779 125.421 10.9206C125.421 11.7633 125.245 12.5099 124.893 13.1606C124.551 13.8113 124.087 14.3233 123.501 14.6966C122.914 15.0699 122.247 15.2566 121.501 15.2566ZM121.245 13.6726C121.671 13.6726 122.071 13.5606 122.445 13.3366C122.829 13.1126 123.133 12.7926 123.357 12.3766C123.591 11.9606 123.709 11.4753 123.709 10.9206C123.709 10.3553 123.591 9.86994 123.357 9.46461C123.133 9.04861 122.829 8.72861 122.445 8.50461C122.071 8.28061 121.671 8.16861 121.245 8.16861C120.818 8.16861 120.418 8.28061 120.045 8.50461C119.671 8.72861 119.367 9.04861 119.133 9.46461C118.898 9.86994 118.781 10.3553 118.781 10.9206C118.781 11.4859 118.898 11.9766 119.133 12.3926C119.367 12.7979 119.671 13.1126 120.045 13.3366C120.418 13.5606 120.818 13.6726 121.245 13.6726Z" fill="white"/>
<g id="GPay (Dark)">
<g id="GPay">
<g id="Pay">
<path id="Fill 1" fill-rule="evenodd" clip-rule="evenodd" d="M154.356 3.42339V8.16175H157.278C157.974 8.16175 158.55 7.92781 159.005 7.45993C159.473 6.99313 159.707 6.43644 159.707 5.79203C159.707 5.16061 159.473 4.61041 159.005 4.14254C158.55 3.66274 157.974 3.4223 157.278 3.4223H154.356V3.42339ZM154.356 9.82966V15.3262H152.611V1.75549H157.24C158.417 1.75549 159.415 2.14756 160.238 2.93061C161.073 3.71365 161.491 4.66782 161.491 5.79203C161.491 6.94224 161.073 7.90291 160.238 8.67296C159.428 9.44409 158.429 9.82858 157.24 9.82858H154.356V9.82966Z" fill="white"/>
<path id="Fill 3" fill-rule="evenodd" clip-rule="evenodd" d="M163.255 12.4831C163.255 12.9379 163.448 13.317 163.834 13.6203C164.22 13.9235 164.672 14.0752 165.19 14.0752C165.924 14.0752 166.578 13.8032 167.153 13.2607C167.729 12.717 168.017 12.0791 168.017 11.3469C167.472 10.917 166.713 10.7025 165.74 10.7025C165.031 10.7025 164.44 10.8736 163.966 11.2148C163.492 11.5559 163.255 11.9773 163.255 12.4831M165.513 5.73566C166.803 5.73566 167.821 6.08007 168.569 6.76889C169.314 7.45771 169.687 8.40213 169.687 9.60216V15.3261H168.018V14.0373H167.942C167.221 15.0985 166.259 15.6294 165.058 15.6294C164.033 15.6294 163.176 15.3261 162.487 14.7196C161.797 14.1131 161.453 13.3549 161.453 12.4452C161.453 11.4845 161.816 10.7208 162.543 10.1523C163.271 9.58375 164.241 9.2989 165.456 9.2989C166.492 9.2989 167.346 9.48844 168.017 9.86751V9.46894C168.017 8.86243 167.776 8.34798 167.296 7.92451C166.814 7.50103 166.252 7.28984 165.607 7.28984C164.633 7.28984 163.862 7.70032 163.293 8.52235L161.755 7.55519C162.603 6.34217 163.855 5.73566 165.513 5.73566" fill="white"/>
<path id="Fill 5" fill-rule="evenodd" clip-rule="evenodd" d="M179.269 6.03894L173.443 19.4201H171.641L173.804 14.738L169.971 6.03894H171.869L174.639 12.7106H174.677L177.371 6.03894H179.269Z" fill="white"/>
</g>
<g id="G">
<path id="Fill 8" fill-rule="evenodd" clip-rule="evenodd" d="M147.303 8.64473C147.303 8.09563 147.256 7.56601 147.168 7.05914H139.806V10.0625H144.023C143.842 11.0414 143.294 11.8744 142.464 12.4322V14.3828H144.98C146.454 13.0246 147.303 11.0177 147.303 8.64473" fill="#4285F4"/>
<path id="Fill 10" fill-rule="evenodd" clip-rule="evenodd" d="M139.806 16.2651C141.913 16.2651 143.687 15.5741 144.98 14.3828L142.464 12.4322C141.763 12.9033 140.861 13.1784 139.806 13.1784C137.77 13.1784 136.042 11.8073 135.424 9.95959H132.832V11.9687C134.116 14.516 136.757 16.2651 139.806 16.2651" fill="#34A853"/>
<path id="Fill 12" fill-rule="evenodd" clip-rule="evenodd" d="M135.424 9.9596C135.266 9.48847 135.179 8.98593 135.179 8.46715C135.179 7.94837 135.266 7.44583 135.424 6.9747V4.96564H132.832C132.3 6.01837 132 7.20756 132 8.46715C132 9.72674 132.3 10.916 132.832 11.9687L135.424 9.9596Z" fill="#FABB05"/>
<path id="Fill 14" fill-rule="evenodd" clip-rule="evenodd" d="M139.806 3.75583C140.957 3.75583 141.988 4.15115 142.801 4.92553V4.92661L145.029 2.70094C143.676 1.44243 141.912 0.669128 139.806 0.669128C136.757 0.669128 134.116 2.41826 132.832 4.9656L135.424 6.97467C136.042 5.12698 137.77 3.75583 139.806 3.75583" fill="#E94235"/>
</g>
</g>
</g>
</g>
</svg>
