<svg width="330" height="38" viewBox="0 0 330 38" fill="none" xmlns="http://www.w3.org/2000/svg">
<g id="ca_subscribe_with_Dark">
<path id="Text" d="M9.22013 30.448C8.15613 30.448 7.13879 30.2427 6.16813 29.832C5.19746 29.4027 4.33879 28.7773 3.59213 27.956C2.86413 27.1347 2.32279 26.1173 1.96813 24.904L4.88013 23.728C5.17879 24.8107 5.70146 25.716 6.44813 26.444C7.19479 27.172 8.12813 27.536 9.24813 27.536C9.88279 27.536 10.4708 27.424 11.0121 27.2C11.5721 26.976 12.0201 26.6493 12.3561 26.22C12.6921 25.772 12.8601 25.2307 12.8601 24.596C12.8601 23.7187 12.5335 23.0187 11.8801 22.496C11.2268 21.9547 10.1815 21.4227 8.74413 20.9L7.48413 20.452C6.75613 20.1907 6.01879 19.836 5.27213 19.388C4.54413 18.9213 3.93746 18.3333 3.45213 17.624C2.96679 16.896 2.72413 16.0093 2.72413 14.964C2.72413 13.9747 2.98546 13.0693 3.50813 12.248C4.04946 11.408 4.78679 10.7453 5.72013 10.26C6.67213 9.756 7.77346 9.504 9.02413 9.504C10.3121 9.504 11.3855 9.73733 12.2441 10.204C13.1215 10.652 13.8028 11.2027 14.2881 11.856C14.7921 12.4907 15.1375 13.088 15.3241 13.648L12.5521 14.824C12.4401 14.4507 12.2348 14.0773 11.9361 13.704C11.6561 13.312 11.2735 12.9947 10.7881 12.752C10.3215 12.4907 9.7428 12.36 9.05213 12.36C8.15613 12.36 7.38146 12.6027 6.72813 13.088C6.09346 13.5547 5.77613 14.1707 5.77613 14.936C5.77613 15.664 6.0748 16.252 6.67213 16.7C7.26946 17.148 8.13746 17.568 9.27613 17.96L10.5641 18.408C11.4228 18.688 12.2628 19.0707 13.0841 19.556C13.9241 20.0413 14.6055 20.6853 15.1281 21.488C15.6695 22.272 15.9401 23.2893 15.9401 24.54C15.9401 25.5667 15.7348 26.4533 15.3241 27.2C14.9321 27.9467 14.4001 28.5627 13.7281 29.048C13.0748 29.5147 12.3468 29.86 11.5441 30.084C10.7601 30.3267 9.98546 30.448 9.22013 30.448ZM24.0674 30.448C22.3128 30.448 20.9874 29.9253 20.0914 28.88C19.2141 27.816 18.7754 26.3787 18.7754 24.568V15.72H21.7994V24.148C21.7994 25.3613 22.0794 26.2573 22.6394 26.836C23.2181 27.396 23.9368 27.676 24.7954 27.676C25.5608 27.676 26.2234 27.48 26.7834 27.088C27.3621 26.6773 27.8008 26.1547 28.0994 25.52C28.4168 24.8667 28.5754 24.1573 28.5754 23.392V15.72H31.5714V30H28.7434V28.068H28.5754C28.1648 28.74 27.5488 29.3093 26.7274 29.776C25.9248 30.224 25.0381 30.448 24.0674 30.448ZM43.0456 30.448C41.9443 30.448 40.9923 30.2147 40.1896 29.748C39.4056 29.2627 38.827 28.712 38.4536 28.096H38.2856V30H35.4296V9.952H38.4536V15.664L38.2856 17.652H38.4536C38.827 17.036 39.4056 16.4853 40.1896 16C40.9923 15.5147 41.9443 15.272 43.0456 15.272C44.3523 15.272 45.519 15.5987 46.5456 16.252C47.5723 16.9053 48.3843 17.8013 48.9816 18.94C49.5976 20.0787 49.9056 21.3853 49.9056 22.86C49.9056 24.3347 49.5976 25.6507 48.9816 26.808C48.3843 27.9467 47.5723 28.8427 46.5456 29.496C45.519 30.1307 44.3523 30.448 43.0456 30.448ZM42.5976 27.676C43.3443 27.676 44.0443 27.48 44.6976 27.088C45.351 26.696 45.883 26.1453 46.2936 25.436C46.7043 24.708 46.9096 23.8493 46.9096 22.86C46.9096 21.8707 46.7043 21.0213 46.2936 20.312C45.883 19.584 45.351 19.024 44.6976 18.632C44.0443 18.24 43.3443 18.044 42.5976 18.044C41.851 18.044 41.151 18.24 40.4976 18.632C39.8443 19.024 39.3123 19.584 38.9016 20.312C38.491 21.0213 38.2856 21.8707 38.2856 22.86C38.2856 23.8493 38.491 24.708 38.9016 25.436C39.3123 26.1453 39.8443 26.696 40.4976 27.088C41.151 27.48 41.851 27.676 42.5976 27.676ZM58.0548 30.448C56.3375 30.448 54.9655 30.0747 53.9388 29.328C52.9122 28.5627 52.2028 27.6573 51.8108 26.612L54.5268 25.436C54.8628 26.2013 55.3482 26.7893 55.9828 27.2C56.6175 27.592 57.3362 27.788 58.1388 27.788C58.8855 27.788 59.5295 27.6573 60.0708 27.396C60.6122 27.116 60.8828 26.668 60.8828 26.052C60.8828 25.4547 60.6122 25.016 60.0708 24.736C59.5295 24.456 58.8575 24.2133 58.0548 24.008L56.3468 23.616C55.6562 23.448 55.0122 23.1867 54.4148 22.832C53.8175 22.4773 53.3322 22.02 52.9588 21.46C52.5855 20.8813 52.3988 20.2093 52.3988 19.444C52.3988 18.604 52.6508 17.876 53.1548 17.26C53.6588 16.6253 54.3215 16.14 55.1428 15.804C55.9828 15.4493 56.8882 15.272 57.8588 15.272C59.1842 15.272 60.3415 15.5333 61.3308 16.056C62.3388 16.56 63.0762 17.3253 63.5428 18.352L60.9388 19.528C60.6028 18.8933 60.1642 18.4547 59.6228 18.212C59.1002 17.9507 58.5215 17.82 57.8868 17.82C57.1775 17.82 56.5802 17.9693 56.0948 18.268C55.6282 18.5667 55.3948 18.94 55.3948 19.388C55.3948 19.8733 55.6002 20.256 56.0108 20.536C56.4402 20.816 56.9628 21.04 57.5788 21.208L59.6508 21.712C61.0695 22.0667 62.1335 22.608 62.8428 23.336C63.5522 24.0453 63.9068 24.9133 63.9068 25.94C63.9068 26.8547 63.6455 27.6573 63.1228 28.348C62.6002 29.02 61.8908 29.5427 60.9948 29.916C60.1175 30.2707 59.1375 30.448 58.0548 30.448ZM73.5908 30.448C72.1534 30.448 70.8841 30.1213 69.7828 29.468C68.6814 28.8147 67.8134 27.9187 67.1788 26.78C66.5441 25.6227 66.2268 24.316 66.2268 22.86C66.2268 21.404 66.5441 20.1067 67.1788 18.968C67.8134 17.8107 68.6814 16.9053 69.7828 16.252C70.8841 15.5987 72.1534 15.272 73.5908 15.272C75.1774 15.272 76.5121 15.6267 77.5948 16.336C78.6961 17.0453 79.4801 18.0067 79.9468 19.22L77.2028 20.34C76.5494 18.8093 75.3268 18.044 73.5348 18.044C72.7508 18.044 72.0321 18.2493 71.3788 18.66C70.7254 19.052 70.2028 19.612 69.8108 20.34C69.4188 21.0493 69.2228 21.8893 69.2228 22.86C69.2228 23.8307 69.4188 24.68 69.8108 25.408C70.2028 26.136 70.7254 26.696 71.3788 27.088C72.0321 27.48 72.7508 27.676 73.5348 27.676C74.4494 27.676 75.2241 27.4707 75.8588 27.06C76.4934 26.6307 76.9881 26.052 77.3428 25.324L80.0308 26.5C79.5268 27.6387 78.7241 28.5813 77.6228 29.328C76.5214 30.0747 75.1774 30.448 73.5908 30.448ZM82.7867 30V15.72H85.6427V17.82H85.8107C86.128 17.092 86.6693 16.4947 87.4347 16.028C88.2187 15.5427 89.0587 15.3 89.9547 15.3C90.3467 15.3 90.6733 15.328 90.9347 15.384C91.2147 15.44 91.4667 15.5053 91.6907 15.58V18.716C91.336 18.5667 90.972 18.4453 90.5987 18.352C90.244 18.2587 89.8707 18.212 89.4787 18.212C88.7693 18.212 88.1347 18.408 87.5747 18.8C87.0333 19.1733 86.604 19.6867 86.2867 20.34C85.9693 20.9747 85.8107 21.6747 85.8107 22.44V30H82.7867ZM96.0609 13.62C95.5009 13.62 95.0156 13.424 94.6049 13.032C94.2129 12.6213 94.0169 12.136 94.0169 11.576C94.0169 11.016 94.2129 10.54 94.6049 10.148C95.0156 9.756 95.5009 9.56 96.0609 9.56C96.6209 9.56 97.0969 9.756 97.4889 10.148C97.8996 10.54 98.1049 11.016 98.1049 11.576C98.1049 12.136 97.8996 12.6213 97.4889 13.032C97.0969 13.424 96.6209 13.62 96.0609 13.62ZM94.5489 30V15.72H97.5729V30H94.5489ZM106.805 30.448C105.05 30.448 103.725 29.9253 102.829 28.88C101.952 27.816 101.513 26.3787 101.513 24.568V15.72H104.537V24.148C104.537 25.3613 104.817 26.2573 105.377 26.836C105.956 27.396 106.674 27.676 107.533 27.676C108.298 27.676 108.961 27.48 109.521 27.088C110.1 26.6773 110.538 26.1547 110.837 25.52C111.154 24.8667 111.313 24.1573 111.313 23.392V15.72H114.309V30H111.481V28.068H111.313C110.902 28.74 110.286 29.3093 109.465 29.776C108.662 30.224 107.776 30.448 106.805 30.448ZM118.139 22.608V20.032H127.323V22.608H118.139ZM131.155 30V15.72H134.011V17.68H134.179C134.589 16.9893 135.187 16.42 135.971 15.972C136.755 15.5053 137.623 15.272 138.575 15.272C139.639 15.272 140.544 15.524 141.291 16.028C142.037 16.532 142.569 17.1667 142.887 17.932C143.353 17.1853 143.988 16.56 144.791 16.056C145.593 15.5333 146.573 15.272 147.731 15.272C149.411 15.272 150.661 15.7853 151.483 16.812C152.304 17.82 152.715 19.164 152.715 20.844V30H149.719V21.348C149.719 20.2093 149.467 19.3787 148.963 18.856C148.477 18.3147 147.796 18.044 146.919 18.044C146.228 18.044 145.621 18.24 145.099 18.632C144.576 19.0053 144.165 19.5187 143.867 20.172C143.587 20.8253 143.447 21.5533 143.447 22.356V30H140.451V21.348C140.451 20.2093 140.199 19.3787 139.695 18.856C139.191 18.3147 138.481 18.044 137.567 18.044C136.895 18.044 136.307 18.24 135.803 18.632C135.299 19.024 134.897 19.5467 134.599 20.2C134.319 20.8533 134.179 21.5813 134.179 22.384V30H131.155ZM162.943 30.448C161.543 30.448 160.293 30.1213 159.191 29.468C158.09 28.8147 157.222 27.9187 156.587 26.78C155.971 25.6413 155.663 24.344 155.663 22.888C155.663 21.5253 155.962 20.2653 156.559 19.108C157.157 17.9507 157.987 17.0267 159.051 16.336C160.134 15.6267 161.375 15.272 162.775 15.272C164.25 15.272 165.501 15.5893 166.527 16.224C167.573 16.8587 168.366 17.7267 168.907 18.828C169.449 19.9293 169.719 21.1707 169.719 22.552C169.719 22.7573 169.71 22.944 169.691 23.112C169.691 23.28 169.682 23.4107 169.663 23.504H158.631C158.781 24.9227 159.275 25.9867 160.115 26.696C160.974 27.4053 161.945 27.76 163.027 27.76C163.998 27.76 164.801 27.5453 165.435 27.116C166.07 26.668 166.574 26.1173 166.947 25.464L169.439 26.668C168.823 27.788 167.983 28.7027 166.919 29.412C165.855 30.1027 164.53 30.448 162.943 30.448ZM162.803 17.848C161.795 17.848 160.937 18.156 160.227 18.772C159.518 19.388 159.042 20.2093 158.799 21.236H166.723C166.686 20.7507 166.527 20.2467 166.247 19.724C165.967 19.2013 165.538 18.7627 164.959 18.408C164.399 18.0347 163.681 17.848 162.803 17.848ZM184.14 30.448C183.113 30.448 182.199 30.252 181.396 29.86C180.593 29.4493 179.968 28.88 179.52 28.152C179.072 27.424 178.848 26.5933 178.848 25.66C178.848 24.652 179.109 23.7933 179.632 23.084C180.173 22.356 180.892 21.8053 181.788 21.432C182.684 21.0587 183.673 20.872 184.756 20.872C185.652 20.872 186.436 20.956 187.108 21.124C187.799 21.292 188.321 21.4693 188.676 21.656V20.9C188.676 19.9667 188.34 19.22 187.668 18.66C186.996 18.1 186.128 17.82 185.064 17.82C184.336 17.82 183.645 17.988 182.992 18.324C182.339 18.6413 181.816 19.08 181.424 19.64L179.352 18.044C179.968 17.1853 180.78 16.5133 181.788 16.028C182.815 15.524 183.935 15.272 185.148 15.272C187.22 15.272 188.816 15.7853 189.936 16.812C191.056 17.82 191.616 19.2387 191.616 21.068V30H188.676V28.236H188.508C188.135 28.8147 187.575 29.328 186.828 29.776C186.081 30.224 185.185 30.448 184.14 30.448ZM184.672 27.984C185.456 27.984 186.147 27.7973 186.744 27.424C187.341 27.0507 187.808 26.5653 188.144 25.968C188.499 25.352 188.676 24.6893 188.676 23.98C188.247 23.7373 187.743 23.5413 187.164 23.392C186.585 23.224 185.969 23.14 185.316 23.14C184.084 23.14 183.207 23.392 182.684 23.896C182.161 24.3813 181.9 24.9787 181.9 25.688C181.9 26.36 182.152 26.9107 182.656 27.34C183.16 27.7693 183.832 27.984 184.672 27.984ZM195.245 30V15.72H198.101V17.68H198.269C198.68 16.9893 199.277 16.42 200.061 15.972C200.845 15.5053 201.713 15.272 202.665 15.272C203.729 15.272 204.635 15.524 205.381 16.028C206.128 16.532 206.66 17.1667 206.977 17.932C207.444 17.1853 208.079 16.56 208.881 16.056C209.684 15.5333 210.664 15.272 211.821 15.272C213.501 15.272 214.752 15.7853 215.573 16.812C216.395 17.82 216.805 19.164 216.805 20.844V30H213.809V21.348C213.809 20.2093 213.557 19.3787 213.053 18.856C212.568 18.3147 211.887 18.044 211.009 18.044C210.319 18.044 209.712 18.24 209.189 18.632C208.667 19.0053 208.256 19.5187 207.957 20.172C207.677 20.8253 207.537 21.5533 207.537 22.356V30H204.541V21.348C204.541 20.2093 204.289 19.3787 203.785 18.856C203.281 18.3147 202.572 18.044 201.657 18.044C200.985 18.044 200.397 18.24 199.893 18.632C199.389 19.024 198.988 19.5467 198.689 20.2C198.409 20.8533 198.269 21.5813 198.269 22.384V30H195.245ZM228.126 30.448C227.025 30.448 226.073 30.2147 225.27 29.748C224.486 29.2627 223.907 28.712 223.534 28.096H223.366V30H220.51V9.952H223.534V15.664L223.366 17.652H223.534C223.907 17.036 224.486 16.4853 225.27 16C226.073 15.5147 227.025 15.272 228.126 15.272C229.433 15.272 230.599 15.5987 231.626 16.252C232.653 16.9053 233.465 17.8013 234.062 18.94C234.678 20.0787 234.986 21.3853 234.986 22.86C234.986 24.3347 234.678 25.6507 234.062 26.808C233.465 27.9467 232.653 28.8427 231.626 29.496C230.599 30.1307 229.433 30.448 228.126 30.448ZM227.678 27.676C228.425 27.676 229.125 27.48 229.778 27.088C230.431 26.696 230.963 26.1453 231.374 25.436C231.785 24.708 231.99 23.8493 231.99 22.86C231.99 21.8707 231.785 21.0213 231.374 20.312C230.963 19.584 230.431 19.024 229.778 18.632C229.125 18.24 228.425 18.044 227.678 18.044C226.931 18.044 226.231 18.24 225.578 18.632C224.925 19.024 224.393 19.584 223.982 20.312C223.571 21.0213 223.366 21.8707 223.366 22.86C223.366 23.8493 223.571 24.708 223.982 25.436C224.393 26.1453 224.925 26.696 225.578 27.088C226.231 27.48 226.931 27.676 227.678 27.676Z" fill="white"/>
<g id="GPay Logo (Dark)">
<g id="GPay">
<g id="Pay">
<path id="Fill 1" fill-rule="evenodd" clip-rule="evenodd" d="M286.529 9.34665V17.5128H291.565C292.765 17.5128 293.757 17.1096 294.541 16.3032C295.347 15.4988 295.75 14.5394 295.75 13.4288C295.75 12.3406 295.347 11.3924 294.541 10.586C293.757 9.75916 292.765 9.34479 291.565 9.34479H286.529V9.34665ZM286.529 20.3872V29.8599H283.521V6.47218H291.499C293.527 6.47218 295.248 7.14787 296.666 8.49738C298.105 9.84688 298.824 11.4913 298.824 13.4288C298.824 15.411 298.105 17.0667 296.666 18.3938C295.27 19.7227 293.547 20.3854 291.499 20.3854H286.529V20.3872Z" fill="white"/>
<path id="Fill 3" fill-rule="evenodd" clip-rule="evenodd" d="M301.864 24.9602C301.864 25.7442 302.197 26.3975 302.862 26.9201C303.527 27.4427 304.306 27.704 305.2 27.704C306.465 27.704 307.591 27.2354 308.584 26.3004C309.576 25.3634 310.071 24.264 310.071 23.0022C309.133 22.2612 307.825 21.8916 306.147 21.8916C304.925 21.8916 303.907 22.1866 303.09 22.7745C302.273 23.3623 301.864 24.0886 301.864 24.9602ZM305.756 13.3317C307.98 13.3317 309.735 13.9253 311.022 15.1124C312.308 16.2995 312.95 17.9271 312.95 19.9952V29.8599H310.073V27.6387H309.942C308.699 29.4677 307.042 30.3825 304.972 30.3825C303.206 30.3825 301.728 29.8599 300.541 28.8146C299.353 27.7694 298.759 26.4628 298.759 24.8949C298.759 23.2393 299.385 21.9232 300.638 20.9434C301.892 19.9635 303.565 19.4726 305.658 19.4726C307.444 19.4726 308.916 19.7993 310.071 20.4525V19.7657C310.071 18.7204 309.656 17.8338 308.829 17.104C307.999 16.3742 307.031 16.0102 305.919 16.0102C304.239 16.0102 302.911 16.7176 301.93 18.1343L299.28 16.4675C300.741 14.377 302.899 13.3317 305.756 13.3317Z" fill="white"/>
<path id="Fill 5" fill-rule="evenodd" clip-rule="evenodd" d="M329.463 13.8543L319.424 36.9154H316.318L320.046 28.8464L313.44 13.8543H316.71L321.484 25.3522H321.55L326.193 13.8543H329.463Z" fill="white"/>
</g>
<g id="G">
<path id="Fill 8" fill-rule="evenodd" clip-rule="evenodd" d="M274.373 18.3452C274.373 17.3989 274.293 16.4861 274.141 15.6126H261.454V20.7885H268.72C268.408 22.4757 267.465 23.9112 266.033 24.8725V28.2341H270.37C272.91 25.8935 274.373 22.4348 274.373 18.3452Z" fill="#4285F4"/>
<path id="Fill 10" fill-rule="evenodd" clip-rule="evenodd" d="M261.454 31.4782C265.084 31.4782 268.141 30.2873 270.37 28.2341L266.033 24.8725C264.826 25.6844 263.272 26.1585 261.454 26.1585C257.944 26.1585 254.966 23.7955 253.901 20.6112H249.433V24.0736C251.647 28.4637 256.197 31.4782 261.454 31.4782Z" fill="#34A853"/>
<path id="Fill 12" fill-rule="evenodd" clip-rule="evenodd" d="M253.901 20.6111C253.628 19.7992 253.479 18.9331 253.479 18.0391C253.479 17.145 253.628 16.2789 253.901 15.467V12.0045H249.433C248.518 13.8188 248 15.8683 248 18.0391C248 20.2098 248.518 22.2595 249.433 24.0736L253.901 20.6111Z" fill="#FABB05"/>
<path id="Fill 14" fill-rule="evenodd" clip-rule="evenodd" d="M261.454 9.91964C263.436 9.91964 265.213 10.6009 266.615 11.9355V11.9374L270.455 8.10163C268.123 5.93272 265.082 4.60001 261.454 4.60001C256.197 4.60001 251.647 7.61447 249.433 12.0046L253.901 15.467C254.966 12.2827 257.944 9.91964 261.454 9.91964Z" fill="#E94235"/>
</g>
</g>
</g>
</g>
</svg>
