<svg width="210" height="38" viewBox="0 0 210 38" fill="none" xmlns="http://www.w3.org/2000/svg">
<g id="ca_view_in_Dark">
<path id="Text" d="M2.55472 30V9.952H6.69872L12.5507 25.212H12.7187L18.5987 9.952H22.7427V30H19.7187V18.66L19.8867 15.104H19.7187L13.8667 30H11.4307L5.57872 15.104H5.41072L5.57872 18.66V30H2.55472ZM33.516 30.448C32.0414 30.448 30.744 30.112 29.624 29.44C28.504 28.768 27.6267 27.8627 26.992 26.724C26.3574 25.5853 26.04 24.2973 26.04 22.86C26.04 21.4413 26.3574 20.1627 26.992 19.024C27.6267 17.8667 28.504 16.952 29.624 16.28C30.744 15.608 32.0414 15.272 33.516 15.272C34.972 15.272 36.26 15.608 37.38 16.28C38.5 16.952 39.3774 17.8667 40.012 19.024C40.6467 20.1627 40.964 21.4413 40.964 22.86C40.964 24.2973 40.6467 25.5853 40.012 26.724C39.3774 27.8627 38.5 28.768 37.38 29.44C36.26 30.112 34.972 30.448 33.516 30.448ZM33.516 27.676C34.3 27.676 35.028 27.4893 35.7 27.116C36.372 26.724 36.9134 26.1733 37.324 25.464C37.7534 24.736 37.968 23.868 37.968 22.86C37.968 21.852 37.7534 20.9933 37.324 20.284C36.9134 19.556 36.372 19.0053 35.7 18.632C35.028 18.24 34.3 18.044 33.516 18.044C32.732 18.044 31.9947 18.24 31.304 18.632C30.632 19.0053 30.0814 19.556 29.652 20.284C29.2414 20.9933 29.036 21.852 29.036 22.86C29.036 23.868 29.2414 24.736 29.652 25.464C30.0814 26.1733 30.632 26.724 31.304 27.116C31.9947 27.4893 32.732 27.676 33.516 27.676ZM49.1204 30.448C47.4031 30.448 46.0311 30.0747 45.0044 29.328C43.9778 28.5627 43.2684 27.6573 42.8764 26.612L45.5924 25.436C45.9284 26.2013 46.4138 26.7893 47.0484 27.2C47.6831 27.592 48.4018 27.788 49.2044 27.788C49.9511 27.788 50.5951 27.6573 51.1364 27.396C51.6778 27.116 51.9484 26.668 51.9484 26.052C51.9484 25.4547 51.6778 25.016 51.1364 24.736C50.5951 24.456 49.9231 24.2133 49.1204 24.008L47.4124 23.616C46.7218 23.448 46.0778 23.1867 45.4804 22.832C44.8831 22.4773 44.3978 22.02 44.0244 21.46C43.6511 20.8813 43.4644 20.2093 43.4644 19.444C43.4644 18.604 43.7164 17.876 44.2204 17.26C44.7244 16.6253 45.3871 16.14 46.2084 15.804C47.0484 15.4493 47.9538 15.272 48.9244 15.272C50.2498 15.272 51.4071 15.5333 52.3964 16.056C53.4044 16.56 54.1418 17.3253 54.6084 18.352L52.0044 19.528C51.6684 18.8933 51.2298 18.4547 50.6884 18.212C50.1658 17.9507 49.5871 17.82 48.9524 17.82C48.2431 17.82 47.6458 17.9693 47.1604 18.268C46.6938 18.5667 46.4604 18.94 46.4604 19.388C46.4604 19.8733 46.6658 20.256 47.0764 20.536C47.5058 20.816 48.0284 21.04 48.6444 21.208L50.7164 21.712C52.1351 22.0667 53.1991 22.608 53.9084 23.336C54.6178 24.0453 54.9724 24.9133 54.9724 25.94C54.9724 26.8547 54.7111 27.6573 54.1884 28.348C53.6658 29.02 52.9564 29.5427 52.0604 29.916C51.1831 30.2707 50.2031 30.448 49.1204 30.448ZM59.2869 25.856V18.352H56.7949V15.72H59.2869V11.688H62.3109V15.72H65.8109V18.352H62.3109V25.212C62.3109 25.9213 62.4509 26.4627 62.7309 26.836C63.0296 27.2093 63.5243 27.396 64.2149 27.396C64.5696 27.396 64.8683 27.3493 65.1109 27.256C65.3723 27.1627 65.6336 27.032 65.8949 26.864V29.804C65.5776 29.9347 65.2416 30.0373 64.8869 30.112C64.5323 30.1867 64.1123 30.224 63.6269 30.224C62.3016 30.224 61.2469 29.8413 60.4629 29.076C59.6789 28.292 59.2869 27.2187 59.2869 25.856ZM69.0124 30V15.72H71.8684V17.82H72.0364C72.3538 17.092 72.8951 16.4947 73.6604 16.028C74.4444 15.5427 75.2844 15.3 76.1804 15.3C76.5724 15.3 76.8991 15.328 77.1604 15.384C77.4404 15.44 77.6924 15.5053 77.9164 15.58V18.716C77.5618 18.5667 77.1978 18.4453 76.8244 18.352C76.4698 18.2587 76.0964 18.212 75.7044 18.212C74.9951 18.212 74.3604 18.408 73.8004 18.8C73.2591 19.1733 72.8298 19.6867 72.5124 20.34C72.1951 20.9747 72.0364 21.6747 72.0364 22.44V30H69.0124ZM84.5385 30.448C83.5119 30.448 82.5972 30.252 81.7945 29.86C80.9919 29.4493 80.3665 28.88 79.9185 28.152C79.4705 27.424 79.2465 26.5933 79.2465 25.66C79.2465 24.652 79.5079 23.7933 80.0305 23.084C80.5719 22.356 81.2905 21.8053 82.1865 21.432C83.0825 21.0587 84.0719 20.872 85.1545 20.872C86.0505 20.872 86.8345 20.956 87.5065 21.124C88.1972 21.292 88.7199 21.4693 89.0745 21.656V20.9C89.0745 19.9667 88.7385 19.22 88.0665 18.66C87.3945 18.1 86.5265 17.82 85.4625 17.82C84.7345 17.82 84.0439 17.988 83.3905 18.324C82.7372 18.6413 82.2145 19.08 81.8225 19.64L79.7505 18.044C80.3665 17.1853 81.1785 16.5133 82.1865 16.028C83.2132 15.524 84.3332 15.272 85.5465 15.272C87.6185 15.272 89.2145 15.7853 90.3345 16.812C91.4545 17.82 92.0145 19.2387 92.0145 21.068V30H89.0745V28.236H88.9065C88.5332 28.8147 87.9732 29.328 87.2265 29.776C86.4799 30.224 85.5839 30.448 84.5385 30.448ZM85.0705 27.984C85.8545 27.984 86.5452 27.7973 87.1425 27.424C87.7399 27.0507 88.2065 26.5653 88.5425 25.968C88.8972 25.352 89.0745 24.6893 89.0745 23.98C88.6452 23.7373 88.1412 23.5413 87.5625 23.392C86.9839 23.224 86.3679 23.14 85.7145 23.14C84.4825 23.14 83.6052 23.392 83.0825 23.896C82.5599 24.3813 82.2985 24.9787 82.2985 25.688C82.2985 26.36 82.5505 26.9107 83.0545 27.34C83.5585 27.7693 84.2305 27.984 85.0705 27.984ZM106.959 30.448C105.932 30.448 105.018 30.252 104.215 29.86C103.412 29.4493 102.787 28.88 102.339 28.152C101.891 27.424 101.667 26.5933 101.667 25.66C101.667 24.652 101.928 23.7933 102.451 23.084C102.992 22.356 103.711 21.8053 104.607 21.432C105.503 21.0587 106.492 20.872 107.575 20.872C108.471 20.872 109.255 20.956 109.927 21.124C110.618 21.292 111.14 21.4693 111.495 21.656V20.9C111.495 19.9667 111.159 19.22 110.487 18.66C109.815 18.1 108.947 17.82 107.883 17.82C107.155 17.82 106.464 17.988 105.811 18.324C105.158 18.6413 104.635 19.08 104.243 19.64L102.171 18.044C102.787 17.1853 103.599 16.5133 104.607 16.028C105.634 15.524 106.754 15.272 107.967 15.272C110.039 15.272 111.635 15.7853 112.755 16.812C113.875 17.82 114.435 19.2387 114.435 21.068V30H111.495V28.236H111.327C110.954 28.8147 110.394 29.328 109.647 29.776C108.9 30.224 108.004 30.448 106.959 30.448ZM107.491 27.984C108.275 27.984 108.966 27.7973 109.563 27.424C110.16 27.0507 110.627 26.5653 110.963 25.968C111.318 25.352 111.495 24.6893 111.495 23.98C111.066 23.7373 110.562 23.5413 109.983 23.392C109.404 23.224 108.788 23.14 108.135 23.14C106.903 23.14 106.026 23.392 105.503 23.896C104.98 24.3813 104.719 24.9787 104.719 25.688C104.719 26.36 104.971 26.9107 105.475 27.34C105.979 27.7693 106.651 27.984 107.491 27.984Z" fill="white"/>
<g id="GPay Logo (Dark)">
<g id="GPay">
<g id="Pay">
<path id="Fill 1" fill-rule="evenodd" clip-rule="evenodd" d="M166.529 9.34665V17.5128H171.565C172.765 17.5128 173.757 17.1096 174.541 16.3032C175.347 15.4988 175.75 14.5394 175.75 13.4288C175.75 12.3406 175.347 11.3924 174.541 10.586C173.757 9.75916 172.765 9.34479 171.565 9.34479H166.529V9.34665ZM166.529 20.3872V29.8599H163.521V6.47218H171.499C173.527 6.47218 175.248 7.14787 176.666 8.49738C178.105 9.84688 178.824 11.4913 178.824 13.4288C178.824 15.411 178.105 17.0667 176.666 18.3938C175.27 19.7227 173.547 20.3854 171.499 20.3854H166.529V20.3872Z" fill="white"/>
<path id="Fill 3" fill-rule="evenodd" clip-rule="evenodd" d="M181.864 24.9602C181.864 25.7442 182.197 26.3975 182.862 26.9201C183.527 27.4427 184.306 27.704 185.2 27.704C186.465 27.704 187.591 27.2354 188.584 26.3004C189.576 25.3634 190.071 24.264 190.071 23.0022C189.133 22.2612 187.825 21.8916 186.147 21.8916C184.925 21.8916 183.907 22.1866 183.09 22.7745C182.273 23.3623 181.864 24.0886 181.864 24.9602ZM185.756 13.3317C187.98 13.3317 189.735 13.9253 191.022 15.1124C192.308 16.2995 192.95 17.9271 192.95 19.9952V29.8599H190.073V27.6387H189.942C188.699 29.4677 187.042 30.3825 184.972 30.3825C183.206 30.3825 181.728 29.8599 180.541 28.8146C179.353 27.7694 178.759 26.4628 178.759 24.8949C178.759 23.2393 179.385 21.9232 180.638 20.9434C181.892 19.9635 183.565 19.4726 185.658 19.4726C187.444 19.4726 188.916 19.7993 190.071 20.4525V19.7657C190.071 18.7204 189.656 17.8338 188.829 17.104C187.999 16.3742 187.031 16.0102 185.919 16.0102C184.239 16.0102 182.911 16.7176 181.93 18.1343L179.28 16.4675C180.741 14.377 182.899 13.3317 185.756 13.3317Z" fill="white"/>
<path id="Fill 5" fill-rule="evenodd" clip-rule="evenodd" d="M209.463 13.8543L199.424 36.9154H196.318L200.046 28.8464L193.44 13.8543H196.71L201.484 25.3522H201.55L206.193 13.8543H209.463Z" fill="white"/>
</g>
<g id="G">
<path id="Fill 8" fill-rule="evenodd" clip-rule="evenodd" d="M154.373 18.3452C154.373 17.3989 154.293 16.4861 154.141 15.6126H141.454V20.7885H148.72C148.408 22.4757 147.465 23.9112 146.033 24.8725V28.2341H150.37C152.91 25.8935 154.373 22.4348 154.373 18.3452Z" fill="#4285F4"/>
<path id="Fill 10" fill-rule="evenodd" clip-rule="evenodd" d="M141.454 31.4782C145.084 31.4782 148.141 30.2873 150.37 28.2341L146.033 24.8725C144.826 25.6844 143.272 26.1585 141.454 26.1585C137.944 26.1585 134.966 23.7955 133.901 20.6112H129.433V24.0736C131.647 28.4637 136.197 31.4782 141.454 31.4782Z" fill="#34A853"/>
<path id="Fill 12" fill-rule="evenodd" clip-rule="evenodd" d="M133.901 20.6111C133.628 19.7992 133.479 18.9331 133.479 18.0391C133.479 17.145 133.628 16.2789 133.901 15.467V12.0045H129.433C128.518 13.8188 128 15.8683 128 18.0391C128 20.2098 128.518 22.2595 129.433 24.0736L133.901 20.6111Z" fill="#FABB05"/>
<path id="Fill 14" fill-rule="evenodd" clip-rule="evenodd" d="M141.454 9.91964C143.436 9.91964 145.213 10.6009 146.615 11.9355V11.9374L150.455 8.10163C148.123 5.93272 145.082 4.60001 141.454 4.60001C136.197 4.60001 131.647 7.61447 129.433 12.0046L133.901 15.467C134.966 12.2827 137.944 9.91964 141.454 9.91964Z" fill="#E94235"/>
</g>
</g>
</g>
</g>
</svg>
