<svg width="95" height="21" viewBox="0 0 95 21" fill="none" xmlns="http://www.w3.org/2000/svg">
<g id="da_add_to_Pay_NBG">
<path id="Left Text" d="M1.59912 15.0006V3.54461H8.54312V5.20861H3.35912V8.56861H8.03112V10.2326H3.35912V15.0006H1.59912ZM13.6449 15.2566C13.0155 15.2566 12.4449 15.1499 11.9329 14.9366L11.5169 15.5926L10.3649 14.9366L10.7969 14.2326C10.4449 13.9233 10.1515 13.5553 9.91687 13.1286C9.55421 12.4673 9.37287 11.7313 9.37287 10.9206C9.37287 10.1099 9.55421 9.37928 9.91687 8.72861C10.2795 8.06728 10.7809 7.54461 11.4209 7.16061C12.0609 6.77661 12.8022 6.58461 13.6449 6.58461C14.2742 6.58461 14.8449 6.69661 15.3569 6.92061L15.7889 6.24861L16.9409 6.88861L16.4769 7.62461C16.8289 7.93394 17.1222 8.30194 17.3569 8.72861C17.7195 9.37928 17.9009 10.1099 17.9009 10.9206C17.9009 11.7313 17.7195 12.4673 17.3569 13.1286C16.9942 13.7793 16.4929 14.2966 15.8529 14.6806C15.2129 15.0646 14.4769 15.2566 13.6449 15.2566ZM11.7089 12.7766L14.4929 8.31261C14.2262 8.21661 13.9435 8.16861 13.6449 8.16861C13.1969 8.16861 12.7755 8.28061 12.3809 8.50461C11.9969 8.71794 11.6822 9.03261 11.4369 9.44861C11.2022 9.85394 11.0849 10.3446 11.0849 10.9206C11.0849 11.4966 11.2075 11.9926 11.4529 12.4086C11.5275 12.5366 11.6129 12.6593 11.7089 12.7766ZM13.6449 13.6726C14.0929 13.6726 14.5089 13.5659 14.8929 13.3526C15.2769 13.1286 15.5862 12.8139 15.8209 12.4086C16.0662 11.9926 16.1889 11.4966 16.1889 10.9206C16.1889 10.3446 16.0662 9.85394 15.8209 9.44861C15.7462 9.30994 15.6662 9.18728 15.5809 9.08061L12.8129 13.5286C13.0795 13.6246 13.3569 13.6726 13.6449 13.6726ZM19.0042 18.6166C18.8336 18.6166 18.6789 18.6059 18.5402 18.5846C18.3909 18.5633 18.2469 18.5366 18.1082 18.5046V16.8406C18.2042 16.8939 18.3216 16.9419 18.4602 16.9846C18.5989 17.0273 18.7322 17.0486 18.8602 17.0486C19.1589 17.0486 19.3722 16.9526 19.5002 16.7606C19.6282 16.5793 19.6922 16.3126 19.6922 15.9606V6.84061H21.4202V15.9766C21.4202 16.6059 21.3136 17.1126 21.1002 17.4966C20.8976 17.8806 20.6149 18.1633 20.2522 18.3446C19.8896 18.5259 19.4736 18.6166 19.0042 18.6166ZM20.5562 5.64061C20.2362 5.64061 19.9589 5.52861 19.7242 5.30461C19.5002 5.06994 19.3882 4.79261 19.3882 4.47261C19.3882 4.14194 19.5002 3.86994 19.7242 3.65661C19.9589 3.43261 20.2362 3.32061 20.5562 3.32061C20.8869 3.32061 21.1642 3.43261 21.3882 3.65661C21.6122 3.86994 21.7242 4.14194 21.7242 4.47261C21.7242 4.79261 21.6122 5.06994 21.3882 5.30461C21.1642 5.52861 20.8869 5.64061 20.5562 5.64061ZM27.0386 6.84061H28.4626V4.53661H30.1906V6.84061H32.1906V8.34461H30.1906V12.2646C30.1906 12.6699 30.2706 12.9793 30.4306 13.1926C30.6013 13.4059 30.884 13.5126 31.2786 13.5126C31.4706 13.5126 31.6413 13.4859 31.7906 13.4326C31.94 13.3686 32.0893 13.2939 32.2386 13.2086V14.8886C32.0573 14.9633 31.8653 15.0219 31.6626 15.0646C31.46 15.1073 31.22 15.1286 30.9426 15.1286C30.1853 15.1286 29.5826 14.9099 29.1346 14.4726C28.6866 14.0246 28.4626 13.4113 28.4626 12.6326V8.34461H27.0386V6.84061ZM34.2047 15.0006V6.84061H35.9327V15.0006H34.2047ZM35.0687 5.64061C34.7487 5.64061 34.4714 5.52861 34.2367 5.30461C34.0127 5.06994 33.9007 4.79261 33.9007 4.47261C33.9007 4.14194 34.0127 3.86994 34.2367 3.65661C34.4714 3.43261 34.7487 3.32061 35.0687 3.32061C35.3994 3.32061 35.6767 3.43261 35.9007 3.65661C36.1247 3.86994 36.2367 4.14194 36.2367 4.47261C36.2367 4.79261 36.1247 5.06994 35.9007 5.30461C35.6767 5.52861 35.3994 5.64061 35.0687 5.64061ZM38.2428 15.0006V3.54461H39.9708V15.0006H38.2428Z" fill="white"/>
<g id="GPay (Dark)">
<g id="GPay">
<g id="Pay">
<path id="Fill 1" fill-rule="evenodd" clip-rule="evenodd" d="M69.3563 3.42339V8.16175H72.2784C72.9745 8.16175 73.5501 7.92781 74.0055 7.45993C74.4728 6.99313 74.707 6.43644 74.707 5.79203C74.707 5.16061 74.4728 4.61041 74.0055 4.14254C73.5501 3.66274 72.9745 3.4223 72.2784 3.4223H69.3563V3.42339ZM69.3563 9.82966V15.3262H67.6107V1.75549H72.2404C73.4169 1.75549 74.4154 2.14756 75.2383 2.93061C76.0732 3.71365 76.4906 4.66782 76.4906 5.79203C76.4906 6.94224 76.0731 7.90291 75.2383 8.67296C74.4283 9.44409 73.4287 9.82858 72.2404 9.82858H69.3563V9.82966Z" fill="white"/>
<path id="Fill 3" fill-rule="evenodd" clip-rule="evenodd" d="M78.2546 12.4831C78.2546 12.9379 78.4476 13.317 78.8337 13.6203C79.2195 13.9235 79.6717 14.0752 80.19 14.0752C80.9239 14.0752 81.5777 13.8032 82.1535 13.2607C82.7293 12.717 83.0165 12.0791 83.0165 11.3469C82.4722 10.917 81.7133 10.7025 80.7396 10.7025C80.0306 10.7025 79.4397 10.8736 78.9659 11.2148C78.492 11.5559 78.2546 11.9773 78.2546 12.4831M80.513 5.73566C81.8033 5.73566 82.8214 6.08007 83.5685 6.76889C84.3145 7.45771 84.6873 8.40213 84.6873 9.60216V15.3261H83.0177V14.0373H82.9417C82.2207 15.0985 81.259 15.6294 80.0578 15.6294C79.0332 15.6294 78.1755 15.3261 77.4869 14.7196C76.7975 14.1131 76.4527 13.3549 76.4527 12.4452C76.4527 11.4845 76.8158 10.7208 77.5433 10.1523C78.2708 9.58375 79.2413 9.2989 80.4557 9.2989C81.4921 9.2989 82.3465 9.48844 83.0165 9.86751V9.46894C83.0165 8.86243 82.7758 8.34798 82.2956 7.92451C81.8141 7.50103 81.2525 7.28984 80.6074 7.28984C79.6326 7.28984 78.8618 7.70032 78.2926 8.52235L76.7551 7.55519C77.6029 6.34217 78.8552 5.73566 80.513 5.73566" fill="white"/>
<path id="Fill 5" fill-rule="evenodd" clip-rule="evenodd" d="M94.2687 6.03894L88.4432 19.4201H86.6411L88.8043 14.738L84.9714 6.03894H86.8688L89.639 12.7106H89.677L92.3713 6.03894H94.2687Z" fill="white"/>
</g>
<g id="G">
<path id="Fill 8" fill-rule="evenodd" clip-rule="evenodd" d="M62.3029 8.64473C62.3029 8.09563 62.2562 7.56601 62.1684 7.05914H54.8065V10.0625H59.0231C58.842 11.0414 58.2944 11.8744 57.4639 12.4322V14.3828H59.9804C61.4539 13.0246 62.3029 11.0177 62.3029 8.64473" fill="#4285F4"/>
<path id="Fill 10" fill-rule="evenodd" clip-rule="evenodd" d="M54.8065 16.2651C56.9131 16.2651 58.6869 15.5741 59.9804 14.3828L57.4639 12.4322C56.7635 12.9033 55.8614 13.1784 54.8065 13.1784C52.7703 13.1784 51.042 11.8073 50.424 9.95959H47.8316V11.9687C49.1164 14.516 51.7565 16.2651 54.8065 16.2651" fill="#34A853"/>
<path id="Fill 12" fill-rule="evenodd" clip-rule="evenodd" d="M50.424 9.9596C50.2657 9.48847 50.179 8.98593 50.179 8.46715C50.179 7.94837 50.2657 7.44583 50.424 6.9747V4.96564H47.8316C47.3003 6.01837 47 7.20756 47 8.46715C47 9.72674 47.3003 10.916 47.8316 11.9687L50.424 9.9596Z" fill="#FABB05"/>
<path id="Fill 14" fill-rule="evenodd" clip-rule="evenodd" d="M54.8065 3.75583C55.9568 3.75583 56.9879 4.15115 57.8011 4.92553V4.92661L60.0292 2.70094C58.6761 1.44243 56.912 0.669128 54.8065 0.669128C51.7565 0.669128 49.1164 2.41826 47.8316 4.9656L50.424 6.97467C51.042 5.12698 52.7703 3.75583 54.8065 3.75583" fill="#E94235"/>
</g>
</g>
</g>
</g>
</svg>
