<svg width="131" height="21" viewBox="0 0 131 21" fill="none" xmlns="http://www.w3.org/2000/svg">
<g id="da_book_with_Pay_NBG">
<path id="Left Text" d="M2.27725 15.0006V3.54461H6.56525C7.19458 3.54461 7.76525 3.67794 8.27725 3.94461C8.78925 4.21128 9.19458 4.57394 9.49325 5.03261C9.80258 5.49128 9.95725 6.00861 9.95725 6.58461C9.95725 7.17128 9.81325 7.67261 9.52525 8.08861C9.23725 8.50461 8.86391 8.81928 8.40525 9.03261V9.11261C8.98125 9.30461 9.45058 9.63528 9.81325 10.1046C10.1759 10.5739 10.3572 11.1339 10.3572 11.7846C10.3572 12.4246 10.1919 12.9846 9.86125 13.4646C9.54125 13.9446 9.10391 14.3233 8.54925 14.6006C8.00525 14.8673 7.40791 15.0006 6.75725 15.0006H2.27725ZM4.03725 9.92861V13.3686H6.75725C7.14125 13.3686 7.47191 13.2886 7.74925 13.1286C8.02658 12.9686 8.23458 12.7553 8.37325 12.4886C8.52258 12.2219 8.59725 11.9446 8.59725 11.6566C8.59725 11.3473 8.52258 11.0646 8.37325 10.8086C8.22391 10.5419 8.00525 10.3286 7.71725 10.1686C7.43991 10.0086 7.09858 9.92861 6.69325 9.92861H4.03725ZM4.03725 8.36061H6.48525C6.85858 8.36061 7.17325 8.28594 7.42925 8.13661C7.69591 7.97661 7.89858 7.77394 8.03725 7.52861C8.17591 7.27261 8.24525 7.01128 8.24525 6.74461C8.24525 6.47794 8.17591 6.22728 8.03725 5.99261C7.90925 5.74728 7.71725 5.54994 7.46125 5.40061C7.20525 5.24061 6.90125 5.16061 6.54925 5.16061H4.03725V8.36061ZM15.9949 15.2566C15.1522 15.2566 14.4109 15.0646 13.7709 14.6806C13.1309 14.2966 12.6295 13.7793 12.2669 13.1286C11.9042 12.4673 11.7229 11.7313 11.7229 10.9206C11.7229 10.1099 11.9042 9.37928 12.2669 8.72861C12.6295 8.06728 13.1309 7.54461 13.7709 7.16061C14.4109 6.77661 15.1522 6.58461 15.9949 6.58461C16.8269 6.58461 17.5629 6.78194 18.2029 7.17661C18.8429 7.56061 19.3442 8.07794 19.7069 8.72861C20.0695 9.37928 20.2509 10.1099 20.2509 10.9206C20.2509 11.7313 20.0695 12.4673 19.7069 13.1286C19.3442 13.7793 18.8429 14.2966 18.2029 14.6806C17.5629 15.0646 16.8269 15.2566 15.9949 15.2566ZM15.9949 13.6726C16.4429 13.6726 16.8589 13.5659 17.2429 13.3526C17.6269 13.1286 17.9362 12.8139 18.1709 12.4086C18.4162 11.9926 18.5389 11.4966 18.5389 10.9206C18.5389 10.3446 18.4162 9.85394 18.1709 9.44861C17.9362 9.03261 17.6269 8.71794 17.2429 8.50461C16.8589 8.28061 16.4429 8.16861 15.9949 8.16861C15.5469 8.16861 15.1255 8.28061 14.7309 8.50461C14.3469 8.71794 14.0322 9.03261 13.7869 9.44861C13.5522 9.85394 13.4349 10.3446 13.4349 10.9206C13.4349 11.4966 13.5522 11.9926 13.7869 12.4086C14.0322 12.8139 14.3522 13.1286 14.7469 13.3526C15.1415 13.5659 15.5575 13.6726 15.9949 13.6726ZM25.8324 15.2566C24.9897 15.2566 24.2484 15.0646 23.6084 14.6806C22.9684 14.2966 22.467 13.7793 22.1044 13.1286C21.7417 12.4673 21.5604 11.7313 21.5604 10.9206C21.5604 10.1099 21.7417 9.37928 22.1044 8.72861C22.467 8.06728 22.9684 7.54461 23.6084 7.16061C24.2484 6.77661 24.9897 6.58461 25.8324 6.58461C26.6644 6.58461 27.4004 6.78194 28.0404 7.17661C28.6804 7.56061 29.1817 8.07794 29.5444 8.72861C29.907 9.37928 30.0884 10.1099 30.0884 10.9206C30.0884 11.7313 29.907 12.4673 29.5444 13.1286C29.1817 13.7793 28.6804 14.2966 28.0404 14.6806C27.4004 15.0646 26.6644 15.2566 25.8324 15.2566ZM25.8324 13.6726C26.2804 13.6726 26.6964 13.5659 27.0804 13.3526C27.4644 13.1286 27.7737 12.8139 28.0084 12.4086C28.2537 11.9926 28.3764 11.4966 28.3764 10.9206C28.3764 10.3446 28.2537 9.85394 28.0084 9.44861C27.7737 9.03261 27.4644 8.71794 27.0804 8.50461C26.6964 8.28061 26.2804 8.16861 25.8324 8.16861C25.3844 8.16861 24.963 8.28061 24.5684 8.50461C24.1844 8.71794 23.8697 9.03261 23.6244 9.44861C23.3897 9.85394 23.2724 10.3446 23.2724 10.9206C23.2724 11.4966 23.3897 11.9926 23.6244 12.4086C23.8697 12.8139 24.1897 13.1286 24.5844 13.3526C24.979 13.5659 25.395 13.6726 25.8324 13.6726ZM31.7517 15.0006V3.54461H33.4797V10.2966L36.9357 6.84061H39.0797V6.93661L35.9277 10.0566L39.1917 14.9046V15.0006H37.1437L34.7117 11.2566L33.4797 12.4726V15.0006H31.7517ZM44.3017 15.0006V6.84061H45.9337V7.96061H46.0297C46.1897 7.69394 46.3977 7.45928 46.6537 7.25661C46.9097 7.05394 47.1977 6.89394 47.5177 6.77661C47.8484 6.64861 48.1897 6.58461 48.5417 6.58461C49.1497 6.58461 49.6671 6.72861 50.0937 7.01661C50.5204 7.30461 50.8244 7.66728 51.0057 8.10461C51.2724 7.67794 51.6351 7.32061 52.0937 7.03261C52.5524 6.73394 53.1124 6.58461 53.7737 6.58461C54.7337 6.58461 55.4484 6.87794 55.9177 7.46461C56.3871 8.04061 56.6217 8.80861 56.6217 9.76861V15.0006H54.9097V10.0566C54.9097 9.39528 54.7657 8.91528 54.4777 8.61661C54.2004 8.31794 53.8111 8.16861 53.3097 8.16861C52.9151 8.16861 52.5684 8.28061 52.2697 8.50461C51.9711 8.71794 51.7364 9.01128 51.5657 9.38461C51.4057 9.75794 51.3257 10.1739 51.3257 10.6326V15.0006H49.6137V10.0566C49.6137 9.40594 49.4697 8.93128 49.1817 8.63261C48.8937 8.32328 48.4884 8.16861 47.9657 8.16861C47.5924 8.16861 47.2564 8.28061 46.9577 8.50461C46.6697 8.72861 46.4404 9.02728 46.2697 9.40061C46.1097 9.77394 46.0297 10.1899 46.0297 10.6486V15.0006H44.3017ZM62.4454 15.2566C61.6454 15.2566 60.9307 15.0699 60.3014 14.6966C59.672 14.3233 59.176 13.8113 58.8134 13.1606C58.4614 12.5099 58.2854 11.7686 58.2854 10.9366C58.2854 10.1579 58.456 9.43794 58.7974 8.77661C59.1387 8.11528 59.6134 7.58728 60.2214 7.19261C60.84 6.78728 61.5494 6.58461 62.3494 6.58461C63.192 6.58461 63.9067 6.76594 64.4934 7.12861C65.0907 7.49128 65.544 7.98728 65.8534 8.61661C66.1627 9.24594 66.3174 9.95528 66.3174 10.7446C66.3174 10.8619 66.312 10.9686 66.3014 11.0646C66.3014 11.1606 66.296 11.2353 66.2854 11.2886H59.9814C60.024 11.7366 60.136 12.1259 60.3174 12.4566C60.552 12.8726 60.8614 13.1873 61.2454 13.4006C61.6294 13.6139 62.0454 13.7206 62.4934 13.7206C63.0374 13.7206 63.4907 13.5979 63.8534 13.3526C64.2267 13.0966 64.52 12.7819 64.7334 12.4086L66.1574 13.0966C65.8054 13.7366 65.3254 14.2593 64.7174 14.6646C64.1094 15.0593 63.352 15.2566 62.4454 15.2566ZM60.0774 9.99261H64.6054C64.5947 9.78994 64.5414 9.57661 64.4454 9.35261C64.3494 9.11794 64.2107 8.90461 64.0294 8.71261C63.848 8.52061 63.6187 8.36594 63.3414 8.24861C63.064 8.12061 62.7387 8.05661 62.3654 8.05661C61.896 8.05661 61.48 8.17928 61.1174 8.42461C60.7547 8.65928 60.472 8.98994 60.2694 9.41661C60.184 9.59794 60.12 9.78994 60.0774 9.99261ZM71.6366 15.2566C70.9006 15.2566 70.234 15.0699 69.6366 14.6966C69.0393 14.3233 68.57 13.8113 68.2286 13.1606C67.8873 12.5099 67.7166 11.7633 67.7166 10.9206C67.7166 10.0779 67.8873 9.33128 68.2286 8.68061C68.57 8.02994 69.0393 7.51794 69.6366 7.14461C70.234 6.77128 70.9006 6.58461 71.6366 6.58461C72.0633 6.58461 72.4473 6.64861 72.7886 6.77661C73.13 6.90461 73.4233 7.07528 73.6686 7.28861C73.9246 7.49128 74.122 7.70994 74.2606 7.94461H74.3566L74.2606 6.80861V3.54461H75.9726V15.0006H74.3566V13.9126H74.2606C74.122 14.1366 73.9246 14.3553 73.6686 14.5686C73.4233 14.7713 73.13 14.9366 72.7886 15.0646C72.4473 15.1926 72.0633 15.2566 71.6366 15.2566ZM71.8926 13.6726C72.3193 13.6726 72.7193 13.5606 73.0926 13.3366C73.4766 13.1126 73.7806 12.7979 74.0046 12.3926C74.2393 11.9766 74.3566 11.4859 74.3566 10.9206C74.3566 10.3553 74.2393 9.86994 74.0046 9.46461C73.7806 9.04861 73.4766 8.72861 73.0926 8.50461C72.7193 8.28061 72.3193 8.16861 71.8926 8.16861C71.466 8.16861 71.066 8.28061 70.6926 8.50461C70.3193 8.72861 70.0153 9.04861 69.7806 9.46461C69.546 9.86994 69.4286 10.3553 69.4286 10.9206C69.4286 11.4753 69.546 11.9606 69.7806 12.3766C70.0153 12.7926 70.3193 13.1126 70.6926 13.3366C71.066 13.5606 71.466 13.6726 71.8926 13.6726Z" fill="white"/>
<g id="GPay (Dark)">
<g id="GPay">
<g id="Pay">
<path id="Fill 1" fill-rule="evenodd" clip-rule="evenodd" d="M105.356 3.42339V8.16175H108.278C108.974 8.16175 109.55 7.92781 110.005 7.45993C110.473 6.99313 110.707 6.43644 110.707 5.79203C110.707 5.16061 110.473 4.61041 110.005 4.14254C109.55 3.66274 108.974 3.4223 108.278 3.4223H105.356V3.42339ZM105.356 9.82966V15.3262H103.611V1.75549H108.24C109.417 1.75549 110.415 2.14756 111.238 2.93061C112.073 3.71365 112.491 4.66782 112.491 5.79203C112.491 6.94224 112.073 7.90291 111.238 8.67296C110.428 9.44409 109.429 9.82858 108.24 9.82858H105.356V9.82966Z" fill="white"/>
<path id="Fill 3" fill-rule="evenodd" clip-rule="evenodd" d="M114.255 12.4831C114.255 12.9379 114.448 13.317 114.834 13.6203C115.22 13.9235 115.672 14.0752 116.19 14.0752C116.924 14.0752 117.578 13.8032 118.153 13.2607C118.729 12.717 119.017 12.0791 119.017 11.3469C118.472 10.917 117.713 10.7025 116.74 10.7025C116.031 10.7025 115.44 10.8736 114.966 11.2148C114.492 11.5559 114.255 11.9773 114.255 12.4831M116.513 5.73566C117.803 5.73566 118.821 6.08007 119.569 6.76889C120.314 7.45771 120.687 8.40213 120.687 9.60216V15.3261H119.018V14.0373H118.942C118.221 15.0985 117.259 15.6294 116.058 15.6294C115.033 15.6294 114.176 15.3261 113.487 14.7196C112.797 14.1131 112.453 13.3549 112.453 12.4452C112.453 11.4845 112.816 10.7208 113.543 10.1523C114.271 9.58375 115.241 9.2989 116.456 9.2989C117.492 9.2989 118.346 9.48844 119.017 9.86751V9.46894C119.017 8.86243 118.776 8.34798 118.296 7.92451C117.814 7.50103 117.252 7.28984 116.607 7.28984C115.633 7.28984 114.862 7.70032 114.293 8.52235L112.755 7.55519C113.603 6.34217 114.855 5.73566 116.513 5.73566" fill="white"/>
<path id="Fill 5" fill-rule="evenodd" clip-rule="evenodd" d="M130.269 6.03894L124.443 19.4201H122.641L124.804 14.738L120.971 6.03894H122.869L125.639 12.7106H125.677L128.371 6.03894H130.269Z" fill="white"/>
</g>
<g id="G">
<path id="Fill 8" fill-rule="evenodd" clip-rule="evenodd" d="M98.3029 8.64473C98.3029 8.09563 98.2562 7.56601 98.1684 7.05914H90.8065V10.0625H95.0231C94.842 11.0414 94.2944 11.8744 93.4639 12.4322V14.3828H95.9804C97.4539 13.0246 98.3029 11.0177 98.3029 8.64473" fill="#4285F4"/>
<path id="Fill 10" fill-rule="evenodd" clip-rule="evenodd" d="M90.8065 16.2651C92.9131 16.2651 94.6869 15.5741 95.9804 14.3828L93.4639 12.4322C92.7635 12.9033 91.8614 13.1784 90.8065 13.1784C88.7703 13.1784 87.042 11.8073 86.424 9.95959H83.8316V11.9687C85.1164 14.516 87.7565 16.2651 90.8065 16.2651" fill="#34A853"/>
<path id="Fill 12" fill-rule="evenodd" clip-rule="evenodd" d="M86.424 9.9596C86.2657 9.48847 86.179 8.98593 86.179 8.46715C86.179 7.94837 86.2657 7.44583 86.424 6.9747V4.96564H83.8316C83.3003 6.01837 83 7.20756 83 8.46715C83 9.72674 83.3003 10.916 83.8316 11.9687L86.424 9.9596Z" fill="#FABB05"/>
<path id="Fill 14" fill-rule="evenodd" clip-rule="evenodd" d="M90.8065 3.75583C91.9568 3.75583 92.9879 4.15115 93.8011 4.92553V4.92661L96.0292 2.70094C94.6761 1.44243 92.912 0.669128 90.8065 0.669128C87.7565 0.669128 85.1164 2.41826 83.8316 4.9656L86.424 6.97467C87.042 5.12698 88.7703 3.75583 90.8065 3.75583" fill="#E94235"/>
</g>
</g>
</g>
</g>
</svg>
