<svg width="228" height="38" viewBox="0 0 228 38" fill="none" xmlns="http://www.w3.org/2000/svg">
<g id="da_book_with_Light">
<path id="Text" d="M2.97268 30V9.952H10.4767C11.5593 9.952 12.5487 10.1853 13.4447 10.652C14.3593 11.1187 15.078 11.7533 15.6007 12.556C16.142 13.3587 16.4127 14.264 16.4127 15.272C16.4127 16.2987 16.1513 17.176 15.6287 17.904C15.1247 18.632 14.4807 19.1827 13.6967 19.556V19.696C14.7047 20.0507 15.526 20.6387 16.1607 21.46C16.7953 22.2627 17.1127 23.2333 17.1127 24.372C17.1127 25.492 16.8233 26.4813 16.2447 27.34C15.6847 28.18 14.9193 28.8333 13.9487 29.3C12.9967 29.7667 11.9513 30 10.8127 30H2.97268ZM10.4487 12.78H6.05268V18.38H10.3367C11.3073 18.38 12.0633 18.0907 12.6047 17.512C13.146 16.9147 13.4167 16.2613 13.4167 15.552C13.4167 14.8613 13.1553 14.2267 12.6327 13.648C12.11 13.0693 11.382 12.78 10.4487 12.78ZM6.05268 27.144H10.8127C11.8207 27.144 12.6047 26.8453 13.1647 26.248C13.7433 25.632 14.0327 24.932 14.0327 24.148C14.0327 23.364 13.7433 22.664 13.1647 22.048C12.586 21.432 11.7647 21.124 10.7007 21.124H6.05268V27.144ZM27.016 30.448C25.5414 30.448 24.244 30.112 23.124 29.44C22.004 28.768 21.1267 27.8627 20.492 26.724C19.8574 25.5853 19.54 24.2973 19.54 22.86C19.54 21.4413 19.8574 20.1627 20.492 19.024C21.1267 17.8667 22.004 16.952 23.124 16.28C24.244 15.608 25.5414 15.272 27.016 15.272C28.472 15.272 29.76 15.608 30.88 16.28C32 16.952 32.8774 17.8667 33.512 19.024C34.1467 20.1627 34.464 21.4413 34.464 22.86C34.464 24.2973 34.1467 25.5853 33.512 26.724C32.8774 27.8627 32 28.768 30.88 29.44C29.76 30.112 28.472 30.448 27.016 30.448ZM27.016 27.676C27.8 27.676 28.528 27.4893 29.2 27.116C29.872 26.724 30.4134 26.1733 30.824 25.464C31.2534 24.736 31.468 23.868 31.468 22.86C31.468 21.852 31.2534 20.9933 30.824 20.284C30.4134 19.556 29.872 19.0053 29.2 18.632C28.528 18.24 27.8 18.044 27.016 18.044C26.232 18.044 25.4947 18.24 24.804 18.632C24.132 19.0053 23.5814 19.556 23.152 20.284C22.7414 20.9933 22.536 21.852 22.536 22.86C22.536 23.868 22.7414 24.736 23.152 25.464C23.5814 26.1733 24.132 26.724 24.804 27.116C25.4947 27.4893 26.232 27.676 27.016 27.676ZM44.2691 30.448C42.7945 30.448 41.4971 30.112 40.3771 29.44C39.2571 28.768 38.3798 27.8627 37.7451 26.724C37.1105 25.5853 36.7931 24.2973 36.7931 22.86C36.7931 21.4413 37.1105 20.1627 37.7451 19.024C38.3798 17.8667 39.2571 16.952 40.3771 16.28C41.4971 15.608 42.7945 15.272 44.2691 15.272C45.7251 15.272 47.0131 15.608 48.1331 16.28C49.2531 16.952 50.1305 17.8667 50.7651 19.024C51.3998 20.1627 51.7171 21.4413 51.7171 22.86C51.7171 24.2973 51.3998 25.5853 50.7651 26.724C50.1305 27.8627 49.2531 28.768 48.1331 29.44C47.0131 30.112 45.7251 30.448 44.2691 30.448ZM44.2691 27.676C45.0531 27.676 45.7811 27.4893 46.4531 27.116C47.1251 26.724 47.6665 26.1733 48.0771 25.464C48.5065 24.736 48.7211 23.868 48.7211 22.86C48.7211 21.852 48.5065 20.9933 48.0771 20.284C47.6665 19.556 47.1251 19.0053 46.4531 18.632C45.7811 18.24 45.0531 18.044 44.2691 18.044C43.4851 18.044 42.7478 18.24 42.0571 18.632C41.3851 19.0053 40.8345 19.556 40.4051 20.284C39.9945 20.9933 39.7891 21.852 39.7891 22.86C39.7891 23.868 39.9945 24.736 40.4051 25.464C40.8345 26.1733 41.3851 26.724 42.0571 27.116C42.7478 27.4893 43.4851 27.676 44.2691 27.676ZM54.6656 30V9.952H57.6896V21.768L63.7376 15.72H67.4896V15.888L61.9736 21.348L67.6856 29.832V30H64.1016L59.8456 23.448L57.6896 25.576V30H54.6656ZM76.7031 30V15.72H79.5591V17.68H79.7271C80.1377 16.9893 80.7351 16.42 81.5191 15.972C82.3031 15.5053 83.1711 15.272 84.1231 15.272C85.1871 15.272 86.0924 15.524 86.8391 16.028C87.5857 16.532 88.1177 17.1667 88.4351 17.932C88.9017 17.1853 89.5364 16.56 90.3391 16.056C91.1417 15.5333 92.1217 15.272 93.2791 15.272C94.9591 15.272 96.2097 15.7853 97.0311 16.812C97.8524 17.82 98.2631 19.164 98.2631 20.844V30H95.2671V21.348C95.2671 20.2093 95.0151 19.3787 94.5111 18.856C94.0257 18.3147 93.3444 18.044 92.4671 18.044C91.7764 18.044 91.1697 18.24 90.6471 18.632C90.1244 19.0053 89.7137 19.5187 89.4151 20.172C89.1351 20.8253 88.9951 21.5533 88.9951 22.356V30H85.9991V21.348C85.9991 20.2093 85.7471 19.3787 85.2431 18.856C84.7391 18.3147 84.0297 18.044 83.1151 18.044C82.4431 18.044 81.8551 18.24 81.3511 18.632C80.8471 19.024 80.4457 19.5467 80.1471 20.2C79.8671 20.8533 79.7271 21.5813 79.7271 22.384V30H76.7031ZM108.492 30.448C107.092 30.448 105.841 30.1213 104.74 29.468C103.639 28.8147 102.771 27.9187 102.136 26.78C101.52 25.6413 101.212 24.344 101.212 22.888C101.212 21.5253 101.511 20.2653 102.108 19.108C102.705 17.9507 103.536 17.0267 104.6 16.336C105.683 15.6267 106.924 15.272 108.324 15.272C109.799 15.272 111.049 15.5893 112.076 16.224C113.121 16.8587 113.915 17.7267 114.456 18.828C114.997 19.9293 115.268 21.1707 115.268 22.552C115.268 22.7573 115.259 22.944 115.24 23.112C115.24 23.28 115.231 23.4107 115.212 23.504H104.18C104.329 24.9227 104.824 25.9867 105.664 26.696C106.523 27.4053 107.493 27.76 108.576 27.76C109.547 27.76 110.349 27.5453 110.984 27.116C111.619 26.668 112.123 26.1173 112.496 25.464L114.988 26.668C114.372 27.788 113.532 28.7027 112.468 29.412C111.404 30.1027 110.079 30.448 108.492 30.448ZM108.352 17.848C107.344 17.848 106.485 18.156 105.776 18.772C105.067 19.388 104.591 20.2093 104.348 21.236H112.272C112.235 20.7507 112.076 20.2467 111.796 19.724C111.516 19.2013 111.087 18.7627 110.508 18.408C109.948 18.0347 109.229 17.848 108.352 17.848ZM124.614 30.448C123.326 30.448 122.159 30.1307 121.114 29.496C120.087 28.8427 119.266 27.9467 118.65 26.808C118.053 25.6507 117.754 24.3347 117.754 22.86C117.754 21.3853 118.053 20.0787 118.65 18.94C119.266 17.8013 120.087 16.9053 121.114 16.252C122.159 15.5987 123.326 15.272 124.614 15.272C125.715 15.272 126.658 15.5147 127.442 16C128.245 16.4853 128.833 17.036 129.206 17.652H129.374L129.206 15.664V9.952H132.202V30H129.374V28.096H129.206C128.833 28.712 128.245 29.2627 127.442 29.748C126.658 30.2147 125.715 30.448 124.614 30.448ZM125.062 27.676C125.809 27.676 126.509 27.48 127.162 27.088C127.834 26.696 128.366 26.1453 128.758 25.436C129.169 24.708 129.374 23.8493 129.374 22.86C129.374 21.8707 129.169 21.0213 128.758 20.312C128.366 19.584 127.834 19.024 127.162 18.632C126.509 18.24 125.809 18.044 125.062 18.044C124.315 18.044 123.615 18.24 122.962 18.632C122.309 19.024 121.777 19.584 121.366 20.312C120.955 21.0213 120.75 21.8707 120.75 22.86C120.75 23.8493 120.955 24.708 121.366 25.436C121.777 26.1453 122.309 26.696 122.962 27.088C123.615 27.48 124.315 27.676 125.062 27.676Z" fill="#3C4043"/>
<g id="GPay Logo (Light)">
<g id="GPay">
<g id="Pay">
<path id="Fill 1" fill-rule="evenodd" clip-rule="evenodd" d="M184.529 9.44664V17.6128H189.565C190.765 17.6128 191.757 17.2096 192.541 16.4032C193.347 15.5988 193.75 14.6394 193.75 13.5288C193.75 12.4406 193.347 11.4924 192.541 10.686C191.757 9.85915 190.765 9.44478 189.565 9.44478H184.529V9.44664ZM184.529 20.4872V29.9599H181.521V6.57217H189.499C191.527 6.57217 193.248 7.24786 194.666 8.59737C196.105 9.94688 196.824 11.5913 196.824 13.5288C196.824 15.511 196.105 17.1667 194.666 18.4938C193.27 19.8227 191.547 20.4854 189.499 20.4854H184.529V20.4872Z" fill="#5F6368"/>
<path id="Fill 3" fill-rule="evenodd" clip-rule="evenodd" d="M199.864 25.0602C199.864 25.8442 200.197 26.4975 200.862 27.0201C201.527 27.5427 202.306 27.804 203.2 27.804C204.465 27.804 205.591 27.3354 206.584 26.4004C207.576 25.4634 208.071 24.364 208.071 23.1022C207.133 22.3612 205.825 21.9916 204.147 21.9916C202.925 21.9916 201.907 22.2865 201.09 22.8745C200.273 23.4623 199.864 24.1886 199.864 25.0602ZM203.756 13.4317C205.98 13.4317 207.735 14.0252 209.022 15.2124C210.308 16.3995 210.95 18.0271 210.95 20.0952V29.9599H208.073V27.7387H207.942C206.699 29.5677 205.042 30.4825 202.972 30.4825C201.206 30.4825 199.728 29.9599 198.541 28.9146C197.353 27.8694 196.759 26.5628 196.759 24.9949C196.759 23.3393 197.385 22.0232 198.638 21.0434C199.892 20.0635 201.565 19.5726 203.658 19.5726C205.444 19.5726 206.916 19.8992 208.071 20.5525V19.8656C208.071 18.8204 207.656 17.9338 206.829 17.204C205.999 16.4741 205.031 16.1102 203.919 16.1102C202.239 16.1102 200.911 16.8176 199.93 18.2343L197.28 16.5675C198.741 14.4769 200.899 13.4317 203.756 13.4317Z" fill="#5F6368"/>
<path id="Fill 5" fill-rule="evenodd" clip-rule="evenodd" d="M227.463 13.9543L217.424 37.0154H214.318L218.046 28.9464L211.44 13.9543H214.71L219.484 25.4522H219.55L224.193 13.9543H227.463Z" fill="#5F6368"/>
</g>
<g id="G">
<path id="Fill 8" fill-rule="evenodd" clip-rule="evenodd" d="M172.373 18.4452C172.373 17.4989 172.293 16.5861 172.141 15.7126H159.454V20.8885H166.72C166.408 22.5757 165.465 24.0112 164.033 24.9725V28.3341H168.37C170.91 25.9935 172.373 22.5348 172.373 18.4452Z" fill="#4285F4"/>
<path id="Fill 10" fill-rule="evenodd" clip-rule="evenodd" d="M159.454 31.5782C163.084 31.5782 166.141 30.3873 168.37 28.3341L164.033 24.9725C162.826 25.7844 161.272 26.2585 159.454 26.2585C155.944 26.2585 152.966 23.8955 151.901 20.7112H147.433V24.1736C149.647 28.5637 154.197 31.5782 159.454 31.5782Z" fill="#34A853"/>
<path id="Fill 12" fill-rule="evenodd" clip-rule="evenodd" d="M151.901 20.7111C151.628 19.8992 151.479 19.0331 151.479 18.139C151.479 17.245 151.628 16.3789 151.901 15.567V12.1045H147.433C146.518 13.9188 146 15.9683 146 18.139C146 20.3098 146.518 22.3595 147.433 24.1736L151.901 20.7111Z" fill="#FABB05"/>
<path id="Fill 14" fill-rule="evenodd" clip-rule="evenodd" d="M159.454 10.0196C161.436 10.0196 163.213 10.7009 164.615 12.0355V12.0374L168.455 8.20162C166.123 6.03271 163.082 4.7 159.454 4.7C154.197 4.7 149.647 7.71446 147.433 12.1046L151.901 15.567C152.966 12.3827 155.944 10.0196 159.454 10.0196Z" fill="#E94235"/>
</g>
</g>
</g>
</g>
</svg>
