<svg width="122" height="21" viewBox="0 0 122 21" fill="none" xmlns="http://www.w3.org/2000/svg">
<g id="da_buy_with_Pay_NBG">
<path id="Left Text" d="M1.56787 15.0006V3.54461H3.32787V9.17661L8.09587 3.54461H10.2719V3.64061L6.07987 8.47261L10.6399 14.9046V15.0006H8.49587L4.89587 9.84861L3.32787 11.6726V15.0006H1.56787ZM15.4886 15.2566C14.8593 15.2566 14.2886 15.1499 13.7766 14.9366L13.3606 15.5926L12.2086 14.9366L12.6406 14.2326C12.2886 13.9233 11.9953 13.5553 11.7606 13.1286C11.398 12.4673 11.2166 11.7313 11.2166 10.9206C11.2166 10.1099 11.398 9.37928 11.7606 8.72861C12.1233 8.06728 12.6246 7.54461 13.2646 7.16061C13.9046 6.77661 14.646 6.58461 15.4886 6.58461C16.118 6.58461 16.6886 6.69661 17.2006 6.92061L17.6326 6.24861L18.7846 6.88861L18.3206 7.62461C18.6726 7.93394 18.966 8.30194 19.2006 8.72861C19.5633 9.37928 19.7446 10.1099 19.7446 10.9206C19.7446 11.7313 19.5633 12.4673 19.2006 13.1286C18.838 13.7793 18.3366 14.2966 17.6966 14.6806C17.0566 15.0646 16.3206 15.2566 15.4886 15.2566ZM13.5526 12.7766L16.3366 8.31261C16.07 8.21661 15.7873 8.16861 15.4886 8.16861C15.0406 8.16861 14.6193 8.28061 14.2246 8.50461C13.8406 8.71794 13.526 9.03261 13.2806 9.44861C13.046 9.85394 12.9286 10.3446 12.9286 10.9206C12.9286 11.4966 13.0513 11.9926 13.2966 12.4086C13.3713 12.5366 13.4566 12.6593 13.5526 12.7766ZM15.4886 13.6726C15.9366 13.6726 16.3526 13.5659 16.7366 13.3526C17.1206 13.1286 17.43 12.8139 17.6646 12.4086C17.91 11.9926 18.0326 11.4966 18.0326 10.9206C18.0326 10.3446 17.91 9.85394 17.6646 9.44861C17.59 9.30994 17.51 9.18728 17.4246 9.08061L14.6566 13.5286C14.9233 13.6246 15.2006 13.6726 15.4886 13.6726ZM25.76 15.2566C25.344 15.2566 24.9653 15.1926 24.624 15.0646C24.2827 14.9366 23.984 14.7713 23.728 14.5686C23.4827 14.3553 23.2853 14.1366 23.136 13.9126H23.04V15.0006H21.408V3.54461H23.136V6.80861L23.04 7.94461H23.136C23.2853 7.70994 23.4827 7.49128 23.728 7.28861C23.984 7.07528 24.2827 6.90461 24.624 6.77661C24.9653 6.64861 25.344 6.58461 25.76 6.58461C26.5067 6.58461 27.1733 6.77128 27.76 7.14461C28.3467 7.51794 28.8107 8.02994 29.152 8.68061C29.504 9.33128 29.68 10.0779 29.68 10.9206C29.68 11.7633 29.504 12.5099 29.152 13.1606C28.8107 13.8113 28.3467 14.3233 27.76 14.6966C27.1733 15.0699 26.5067 15.2566 25.76 15.2566ZM25.504 13.6726C25.9307 13.6726 26.3307 13.5606 26.704 13.3366C27.088 13.1126 27.392 12.7926 27.616 12.3766C27.8507 11.9606 27.968 11.4753 27.968 10.9206C27.968 10.3553 27.8507 9.86994 27.616 9.46461C27.392 9.04861 27.088 8.72861 26.704 8.50461C26.3307 8.28061 25.9307 8.16861 25.504 8.16861C25.0773 8.16861 24.6773 8.28061 24.304 8.50461C23.9307 8.72861 23.6267 9.04861 23.392 9.46461C23.1573 9.86994 23.04 10.3553 23.04 10.9206C23.04 11.4859 23.1573 11.9766 23.392 12.3926C23.6267 12.7979 23.9307 13.1126 24.304 13.3366C24.6773 13.5606 25.0773 13.6726 25.504 13.6726ZM35.3017 15.0006V6.84061H36.9337V7.96061H37.0297C37.1897 7.69394 37.3977 7.45928 37.6537 7.25661C37.9097 7.05394 38.1977 6.89394 38.5177 6.77661C38.8484 6.64861 39.1897 6.58461 39.5417 6.58461C40.1497 6.58461 40.6671 6.72861 41.0937 7.01661C41.5204 7.30461 41.8244 7.66728 42.0057 8.10461C42.2724 7.67794 42.6351 7.32061 43.0937 7.03261C43.5524 6.73394 44.1124 6.58461 44.7737 6.58461C45.7337 6.58461 46.4484 6.87794 46.9177 7.46461C47.3871 8.04061 47.6217 8.80861 47.6217 9.76861V15.0006H45.9097V10.0566C45.9097 9.39528 45.7657 8.91528 45.4777 8.61661C45.2004 8.31794 44.8111 8.16861 44.3097 8.16861C43.9151 8.16861 43.5684 8.28061 43.2697 8.50461C42.9711 8.71794 42.7364 9.01128 42.5657 9.38461C42.4057 9.75794 42.3257 10.1739 42.3257 10.6326V15.0006H40.6137V10.0566C40.6137 9.40594 40.4697 8.93128 40.1817 8.63261C39.8937 8.32328 39.4884 8.16861 38.9657 8.16861C38.5924 8.16861 38.2564 8.28061 37.9577 8.50461C37.6697 8.72861 37.4404 9.02728 37.2697 9.40061C37.1097 9.77394 37.0297 10.1899 37.0297 10.6486V15.0006H35.3017ZM53.4454 15.2566C52.6454 15.2566 51.9307 15.0699 51.3014 14.6966C50.672 14.3233 50.176 13.8113 49.8134 13.1606C49.4614 12.5099 49.2854 11.7686 49.2854 10.9366C49.2854 10.1579 49.456 9.43794 49.7974 8.77661C50.1387 8.11528 50.6134 7.58728 51.2214 7.19261C51.84 6.78728 52.5494 6.58461 53.3494 6.58461C54.192 6.58461 54.9067 6.76594 55.4934 7.12861C56.0907 7.49128 56.544 7.98728 56.8534 8.61661C57.1627 9.24594 57.3174 9.95528 57.3174 10.7446C57.3174 10.8619 57.312 10.9686 57.3014 11.0646C57.3014 11.1606 57.296 11.2353 57.2854 11.2886H50.9814C51.024 11.7366 51.136 12.1259 51.3174 12.4566C51.552 12.8726 51.8614 13.1873 52.2454 13.4006C52.6294 13.6139 53.0454 13.7206 53.4934 13.7206C54.0374 13.7206 54.4907 13.5979 54.8534 13.3526C55.2267 13.0966 55.52 12.7819 55.7334 12.4086L57.1574 13.0966C56.8054 13.7366 56.3254 14.2593 55.7174 14.6646C55.1094 15.0593 54.352 15.2566 53.4454 15.2566ZM51.0774 9.99261H55.6054C55.5947 9.78994 55.5414 9.57661 55.4454 9.35261C55.3494 9.11794 55.2107 8.90461 55.0294 8.71261C54.848 8.52061 54.6187 8.36594 54.3414 8.24861C54.064 8.12061 53.7387 8.05661 53.3654 8.05661C52.896 8.05661 52.48 8.17928 52.1174 8.42461C51.7547 8.65928 51.472 8.98994 51.2694 9.41661C51.184 9.59794 51.12 9.78994 51.0774 9.99261ZM62.6366 15.2566C61.9006 15.2566 61.234 15.0699 60.6366 14.6966C60.0393 14.3233 59.57 13.8113 59.2286 13.1606C58.8873 12.5099 58.7166 11.7633 58.7166 10.9206C58.7166 10.0779 58.8873 9.33128 59.2286 8.68061C59.57 8.02994 60.0393 7.51794 60.6366 7.14461C61.234 6.77128 61.9006 6.58461 62.6366 6.58461C63.0633 6.58461 63.4473 6.64861 63.7886 6.77661C64.13 6.90461 64.4233 7.07528 64.6686 7.28861C64.9246 7.49128 65.122 7.70994 65.2606 7.94461H65.3566L65.2606 6.80861V3.54461H66.9726V15.0006H65.3566V13.9126H65.2606C65.122 14.1366 64.9246 14.3553 64.6686 14.5686C64.4233 14.7713 64.13 14.9366 63.7886 15.0646C63.4473 15.1926 63.0633 15.2566 62.6366 15.2566ZM62.8926 13.6726C63.3193 13.6726 63.7193 13.5606 64.0926 13.3366C64.4766 13.1126 64.7806 12.7979 65.0046 12.3926C65.2393 11.9766 65.3566 11.4859 65.3566 10.9206C65.3566 10.3553 65.2393 9.86994 65.0046 9.46461C64.7806 9.04861 64.4766 8.72861 64.0926 8.50461C63.7193 8.28061 63.3193 8.16861 62.8926 8.16861C62.466 8.16861 62.066 8.28061 61.6926 8.50461C61.3193 8.72861 61.0153 9.04861 60.7806 9.46461C60.546 9.86994 60.4286 10.3553 60.4286 10.9206C60.4286 11.4753 60.546 11.9606 60.7806 12.3766C61.0153 12.7926 61.3193 13.1126 61.6926 13.3366C62.066 13.5606 62.466 13.6726 62.8926 13.6726Z" fill="white"/>
<g id="GPay (Dark)">
<g id="GPay">
<g id="Pay">
<path id="Fill 1" fill-rule="evenodd" clip-rule="evenodd" d="M96.3563 3.42339V8.16175H99.2784C99.9745 8.16175 100.55 7.92781 101.005 7.45993C101.473 6.99313 101.707 6.43644 101.707 5.79203C101.707 5.16061 101.473 4.61041 101.005 4.14254C100.55 3.66274 99.9745 3.4223 99.2784 3.4223H96.3563V3.42339ZM96.3563 9.82966V15.3262H94.6107V1.75549H99.2404C100.417 1.75549 101.415 2.14756 102.238 2.93061C103.073 3.71365 103.491 4.66782 103.491 5.79203C103.491 6.94224 103.073 7.90291 102.238 8.67296C101.428 9.44409 100.429 9.82858 99.2404 9.82858H96.3563V9.82966Z" fill="white"/>
<path id="Fill 3" fill-rule="evenodd" clip-rule="evenodd" d="M105.255 12.4831C105.255 12.9379 105.448 13.317 105.834 13.6203C106.22 13.9235 106.672 14.0752 107.19 14.0752C107.924 14.0752 108.578 13.8032 109.153 13.2607C109.729 12.717 110.017 12.0791 110.017 11.3469C109.472 10.917 108.713 10.7025 107.74 10.7025C107.031 10.7025 106.44 10.8736 105.966 11.2148C105.492 11.5559 105.255 11.9773 105.255 12.4831M107.513 5.73566C108.803 5.73566 109.821 6.08007 110.569 6.76889C111.314 7.45771 111.687 8.40213 111.687 9.60216V15.3261H110.018V14.0373H109.942C109.221 15.0985 108.259 15.6294 107.058 15.6294C106.033 15.6294 105.176 15.3261 104.487 14.7196C103.797 14.1131 103.453 13.3549 103.453 12.4452C103.453 11.4845 103.816 10.7208 104.543 10.1523C105.271 9.58375 106.241 9.2989 107.456 9.2989C108.492 9.2989 109.346 9.48844 110.017 9.86751V9.46894C110.017 8.86243 109.776 8.34798 109.296 7.92451C108.814 7.50103 108.252 7.28984 107.607 7.28984C106.633 7.28984 105.862 7.70032 105.293 8.52235L103.755 7.55519C104.603 6.34217 105.855 5.73566 107.513 5.73566" fill="white"/>
<path id="Fill 5" fill-rule="evenodd" clip-rule="evenodd" d="M121.269 6.03894L115.443 19.4201H113.641L115.804 14.738L111.971 6.03894H113.869L116.639 12.7106H116.677L119.371 6.03894H121.269Z" fill="white"/>
</g>
<g id="G">
<path id="Fill 8" fill-rule="evenodd" clip-rule="evenodd" d="M89.3029 8.64473C89.3029 8.09563 89.2562 7.56601 89.1684 7.05914H81.8065V10.0625H86.0231C85.842 11.0414 85.2944 11.8744 84.4639 12.4322V14.3828H86.9804C88.4539 13.0246 89.3029 11.0177 89.3029 8.64473" fill="#4285F4"/>
<path id="Fill 10" fill-rule="evenodd" clip-rule="evenodd" d="M81.8065 16.2651C83.9131 16.2651 85.6869 15.5741 86.9804 14.3828L84.4639 12.4322C83.7635 12.9033 82.8614 13.1784 81.8065 13.1784C79.7703 13.1784 78.042 11.8073 77.424 9.95959H74.8316V11.9687C76.1164 14.516 78.7565 16.2651 81.8065 16.2651" fill="#34A853"/>
<path id="Fill 12" fill-rule="evenodd" clip-rule="evenodd" d="M77.424 9.9596C77.2657 9.48847 77.179 8.98593 77.179 8.46715C77.179 7.94837 77.2657 7.44583 77.424 6.9747V4.96564H74.8316C74.3003 6.01837 74 7.20756 74 8.46715C74 9.72674 74.3003 10.916 74.8316 11.9687L77.424 9.9596Z" fill="#FABB05"/>
<path id="Fill 14" fill-rule="evenodd" clip-rule="evenodd" d="M81.8065 3.75583C82.9568 3.75583 83.9879 4.15115 84.8011 4.92553V4.92661L87.0292 2.70094C85.6761 1.44243 83.912 0.669128 81.8065 0.669128C78.7565 0.669128 76.1164 2.41826 74.8316 4.9656L77.424 6.97467C78.042 5.12698 79.7703 3.75583 81.8065 3.75583" fill="#E94235"/>
</g>
</g>
</g>
</g>
</svg>
