<svg width="130" height="21" viewBox="0 0 130 21" fill="none" xmlns="http://www.w3.org/2000/svg">
<g id="da_checkout_with_Pay_NBG">
<path id="Left Text" d="M1.36163 15.0006V3.54461H5.64963C6.27896 3.54461 6.84963 3.67794 7.36163 3.94461C7.87363 4.21128 8.27896 4.57394 8.57763 5.03261C8.88696 5.49128 9.04163 6.00861 9.04163 6.58461C9.04163 7.17128 8.89763 7.67261 8.60963 8.08861C8.32163 8.50461 7.9483 8.81928 7.48963 9.03261V9.11261C8.06563 9.30461 8.53496 9.63528 8.89763 10.1046C9.2603 10.5739 9.44163 11.1339 9.44163 11.7846C9.44163 12.4246 9.2763 12.9846 8.94563 13.4646C8.62563 13.9446 8.1883 14.3233 7.63363 14.6006C7.08963 14.8673 6.4923 15.0006 5.84163 15.0006H1.36163ZM3.12163 9.92861V13.3686H5.84163C6.22563 13.3686 6.55629 13.2886 6.83363 13.1286C7.11096 12.9686 7.31896 12.7553 7.45763 12.4886C7.60696 12.2219 7.68163 11.9446 7.68163 11.6566C7.68163 11.3473 7.60696 11.0646 7.45763 10.8086C7.30829 10.5419 7.08963 10.3286 6.80163 10.1686C6.5243 10.0086 6.18296 9.92861 5.77763 9.92861H3.12163ZM3.12163 8.36061H5.56963C5.94296 8.36061 6.25763 8.28594 6.51363 8.13661C6.7803 7.97661 6.98296 7.77394 7.12163 7.52861C7.2603 7.27261 7.32963 7.01128 7.32963 6.74461C7.32963 6.47794 7.2603 6.22728 7.12163 5.99261C6.99363 5.74728 6.80163 5.54994 6.54563 5.40061C6.28963 5.24061 5.98563 5.16061 5.63363 5.16061H3.12163V8.36061ZM14.9673 15.2566C14.1673 15.2566 13.4526 15.0699 12.8233 14.6966C12.1939 14.3233 11.6979 13.8113 11.3353 13.1606C10.9833 12.5099 10.8073 11.7686 10.8073 10.9366C10.8073 10.1579 10.9779 9.43794 11.3193 8.77661C11.6606 8.11528 12.1353 7.58728 12.7433 7.19261C13.3619 6.78728 14.0713 6.58461 14.8713 6.58461C15.7139 6.58461 16.4286 6.76594 17.0153 7.12861C17.6126 7.49128 18.0659 7.98728 18.3753 8.61661C18.6846 9.24594 18.8393 9.95528 18.8393 10.7446C18.8393 10.8619 18.8339 10.9686 18.8233 11.0646C18.8233 11.1606 18.8179 11.2353 18.8073 11.2886H12.5033C12.5459 11.7366 12.6579 12.1259 12.8393 12.4566C13.0739 12.8726 13.3833 13.1873 13.7673 13.4006C14.1513 13.6139 14.5673 13.7206 15.0153 13.7206C15.5593 13.7206 16.0126 13.5979 16.3753 13.3526C16.7486 13.0966 17.0419 12.7819 17.2553 12.4086L18.6793 13.0966C18.3273 13.7366 17.8473 14.2593 17.2393 14.6646C16.6313 15.0593 15.8739 15.2566 14.9673 15.2566ZM12.5993 9.99261H17.1273C17.1166 9.78994 17.0633 9.57661 16.9673 9.35261C16.8713 9.11794 16.7326 8.90461 16.5513 8.71261C16.3699 8.52061 16.1406 8.36594 15.8633 8.24861C15.5859 8.12061 15.2606 8.05661 14.8873 8.05661C14.4179 8.05661 14.0019 8.17928 13.6393 8.42461C13.2766 8.65928 12.9939 8.98994 12.7913 9.41661C12.7059 9.59794 12.6419 9.78994 12.5993 9.99261ZM19.798 6.84061H21.222V4.53661H22.95V6.84061H24.95V8.34461H22.95V12.2646C22.95 12.6699 23.03 12.9793 23.19 13.1926C23.3607 13.4059 23.6433 13.5126 24.038 13.5126C24.23 13.5126 24.4007 13.4859 24.55 13.4326C24.6993 13.3686 24.8487 13.2939 24.998 13.2086V14.8886C24.8167 14.9633 24.6247 15.0219 24.422 15.0646C24.2193 15.1073 23.9793 15.1286 23.702 15.1286C22.9447 15.1286 22.342 14.9099 21.894 14.4726C21.446 14.0246 21.222 13.4113 21.222 12.6326V8.34461H19.798V6.84061ZM29.1618 15.2566C28.5751 15.2566 28.0524 15.1393 27.5938 14.9046C27.1458 14.6699 26.7884 14.3499 26.5218 13.9446C26.2658 13.5286 26.1378 13.0539 26.1378 12.5206C26.1378 11.9339 26.2871 11.4379 26.5858 11.0326C26.8951 10.6273 27.3058 10.3179 27.8178 10.1046C28.3298 9.89128 28.8951 9.78461 29.5138 9.78461C29.8551 9.78461 30.1698 9.81128 30.4578 9.86461C30.7564 9.90728 31.0124 9.96061 31.2258 10.0246C31.4498 10.0886 31.6258 10.1579 31.7538 10.2326V9.80061C31.7538 9.26728 31.5618 8.84061 31.1778 8.52061C30.7938 8.20061 30.2978 8.04061 29.6898 8.04061C29.2738 8.04061 28.8791 8.13661 28.5058 8.32861C28.1324 8.50994 27.8338 8.76061 27.6098 9.08061L26.4258 8.16861C26.6604 7.83794 26.9431 7.55528 27.2738 7.32061C27.6151 7.08594 27.9938 6.90461 28.4098 6.77661C28.8364 6.64861 29.2791 6.58461 29.7378 6.58461C30.9218 6.58461 31.8338 6.87794 32.4738 7.46461C33.1138 8.04061 33.4338 8.85128 33.4338 9.89661V15.0006H31.7538V13.9926H31.6578C31.5191 14.2059 31.3271 14.4086 31.0818 14.6006C30.8471 14.7926 30.5644 14.9473 30.2338 15.0646C29.9138 15.1926 29.5564 15.2566 29.1618 15.2566ZM29.4658 13.8486C29.9138 13.8486 30.3084 13.7419 30.6498 13.5286C31.0018 13.3153 31.2738 13.0379 31.4658 12.6966C31.6578 12.3446 31.7538 11.9659 31.7538 11.5606C31.5191 11.4219 31.2311 11.3099 30.8898 11.2246C30.5591 11.1286 30.2071 11.0806 29.8338 11.0806C29.1298 11.0806 28.6284 11.2193 28.3298 11.4966C28.0311 11.7739 27.8818 12.1206 27.8818 12.5366C27.8818 12.9206 28.0258 13.2353 28.3138 13.4806C28.6018 13.7259 28.9858 13.8486 29.4658 13.8486ZM35.5021 15.0006V3.54461H37.2301V15.0006H35.5021ZM43.3018 15.0006V6.84061H44.9338V7.96061H45.0298C45.1898 7.69394 45.3978 7.45928 45.6538 7.25661C45.9098 7.05394 46.1978 6.89394 46.5178 6.77661C46.8484 6.64861 47.1898 6.58461 47.5418 6.58461C48.1498 6.58461 48.6671 6.72861 49.0938 7.01661C49.5204 7.30461 49.8244 7.66728 50.0058 8.10461C50.2724 7.67794 50.6351 7.32061 51.0938 7.03261C51.5524 6.73394 52.1124 6.58461 52.7738 6.58461C53.7338 6.58461 54.4484 6.87794 54.9178 7.46461C55.3871 8.04061 55.6218 8.80861 55.6218 9.76861V15.0006H53.9098V10.0566C53.9098 9.39528 53.7658 8.91528 53.4778 8.61661C53.2004 8.31794 52.8111 8.16861 52.3098 8.16861C51.9151 8.16861 51.5684 8.28061 51.2698 8.50461C50.9711 8.71794 50.7364 9.01128 50.5658 9.38461C50.4058 9.75794 50.3258 10.1739 50.3258 10.6326V15.0006H48.6138V10.0566C48.6138 9.40594 48.4698 8.93128 48.1818 8.63261C47.8938 8.32328 47.4884 8.16861 46.9658 8.16861C46.5924 8.16861 46.2564 8.28061 45.9578 8.50461C45.6698 8.72861 45.4404 9.02728 45.2698 9.40061C45.1098 9.77394 45.0298 10.1899 45.0298 10.6486V15.0006H43.3018ZM61.4454 15.2566C60.6454 15.2566 59.9307 15.0699 59.3014 14.6966C58.672 14.3233 58.176 13.8113 57.8134 13.1606C57.4614 12.5099 57.2854 11.7686 57.2854 10.9366C57.2854 10.1579 57.456 9.43794 57.7974 8.77661C58.1387 8.11528 58.6134 7.58728 59.2214 7.19261C59.84 6.78728 60.5494 6.58461 61.3494 6.58461C62.192 6.58461 62.9067 6.76594 63.4934 7.12861C64.0907 7.49128 64.544 7.98728 64.8534 8.61661C65.1627 9.24594 65.3174 9.95528 65.3174 10.7446C65.3174 10.8619 65.312 10.9686 65.3014 11.0646C65.3014 11.1606 65.296 11.2353 65.2854 11.2886H58.9814C59.024 11.7366 59.136 12.1259 59.3174 12.4566C59.552 12.8726 59.8614 13.1873 60.2454 13.4006C60.6294 13.6139 61.0454 13.7206 61.4934 13.7206C62.0374 13.7206 62.4907 13.5979 62.8534 13.3526C63.2267 13.0966 63.52 12.7819 63.7334 12.4086L65.1574 13.0966C64.8054 13.7366 64.3254 14.2593 63.7174 14.6646C63.1094 15.0593 62.352 15.2566 61.4454 15.2566ZM59.0774 9.99261H63.6054C63.5947 9.78994 63.5414 9.57661 63.4454 9.35261C63.3494 9.11794 63.2107 8.90461 63.0294 8.71261C62.848 8.52061 62.6187 8.36594 62.3414 8.24861C62.064 8.12061 61.7387 8.05661 61.3654 8.05661C60.896 8.05661 60.48 8.17928 60.1174 8.42461C59.7547 8.65928 59.472 8.98994 59.2694 9.41661C59.184 9.59794 59.12 9.78994 59.0774 9.99261ZM70.6366 15.2566C69.9006 15.2566 69.234 15.0699 68.6366 14.6966C68.0393 14.3233 67.57 13.8113 67.2286 13.1606C66.8873 12.5099 66.7166 11.7633 66.7166 10.9206C66.7166 10.0779 66.8873 9.33128 67.2286 8.68061C67.57 8.02994 68.0393 7.51794 68.6366 7.14461C69.234 6.77128 69.9006 6.58461 70.6366 6.58461C71.0633 6.58461 71.4473 6.64861 71.7886 6.77661C72.13 6.90461 72.4233 7.07528 72.6686 7.28861C72.9246 7.49128 73.122 7.70994 73.2606 7.94461H73.3566L73.2606 6.80861V3.54461H74.9726V15.0006H73.3566V13.9126H73.2606C73.122 14.1366 72.9246 14.3553 72.6686 14.5686C72.4233 14.7713 72.13 14.9366 71.7886 15.0646C71.4473 15.1926 71.0633 15.2566 70.6366 15.2566ZM70.8926 13.6726C71.3193 13.6726 71.7193 13.5606 72.0926 13.3366C72.4766 13.1126 72.7806 12.7979 73.0046 12.3926C73.2393 11.9766 73.3566 11.4859 73.3566 10.9206C73.3566 10.3553 73.2393 9.86994 73.0046 9.46461C72.7806 9.04861 72.4766 8.72861 72.0926 8.50461C71.7193 8.28061 71.3193 8.16861 70.8926 8.16861C70.466 8.16861 70.066 8.28061 69.6926 8.50461C69.3193 8.72861 69.0153 9.04861 68.7806 9.46461C68.546 9.86994 68.4286 10.3553 68.4286 10.9206C68.4286 11.4753 68.546 11.9606 68.7806 12.3766C69.0153 12.7926 69.3193 13.1126 69.6926 13.3366C70.066 13.5606 70.466 13.6726 70.8926 13.6726Z" fill="white"/>
<g id="GPay (Dark)">
<g id="GPay">
<g id="Pay">
<path id="Fill 1" fill-rule="evenodd" clip-rule="evenodd" d="M104.356 3.42339V8.16175H107.278C107.974 8.16175 108.55 7.92781 109.005 7.45993C109.473 6.99313 109.707 6.43644 109.707 5.79203C109.707 5.16061 109.473 4.61041 109.005 4.14254C108.55 3.66274 107.974 3.4223 107.278 3.4223H104.356V3.42339ZM104.356 9.82966V15.3262H102.611V1.75549H107.24C108.417 1.75549 109.415 2.14756 110.238 2.93061C111.073 3.71365 111.491 4.66782 111.491 5.79203C111.491 6.94224 111.073 7.90291 110.238 8.67296C109.428 9.44409 108.429 9.82858 107.24 9.82858H104.356V9.82966Z" fill="white"/>
<path id="Fill 3" fill-rule="evenodd" clip-rule="evenodd" d="M113.255 12.4831C113.255 12.9379 113.448 13.317 113.834 13.6203C114.22 13.9235 114.672 14.0752 115.19 14.0752C115.924 14.0752 116.578 13.8032 117.153 13.2607C117.729 12.717 118.017 12.0791 118.017 11.3469C117.472 10.917 116.713 10.7025 115.74 10.7025C115.031 10.7025 114.44 10.8736 113.966 11.2148C113.492 11.5559 113.255 11.9773 113.255 12.4831M115.513 5.73566C116.803 5.73566 117.821 6.08007 118.569 6.76889C119.314 7.45771 119.687 8.40213 119.687 9.60216V15.3261H118.018V14.0373H117.942C117.221 15.0985 116.259 15.6294 115.058 15.6294C114.033 15.6294 113.176 15.3261 112.487 14.7196C111.797 14.1131 111.453 13.3549 111.453 12.4452C111.453 11.4845 111.816 10.7208 112.543 10.1523C113.271 9.58375 114.241 9.2989 115.456 9.2989C116.492 9.2989 117.346 9.48844 118.017 9.86751V9.46894C118.017 8.86243 117.776 8.34798 117.296 7.92451C116.814 7.50103 116.252 7.28984 115.607 7.28984C114.633 7.28984 113.862 7.70032 113.293 8.52235L111.755 7.55519C112.603 6.34217 113.855 5.73566 115.513 5.73566" fill="white"/>
<path id="Fill 5" fill-rule="evenodd" clip-rule="evenodd" d="M129.269 6.03894L123.443 19.4201H121.641L123.804 14.738L119.971 6.03894H121.869L124.639 12.7106H124.677L127.371 6.03894H129.269Z" fill="white"/>
</g>
<g id="G">
<path id="Fill 8" fill-rule="evenodd" clip-rule="evenodd" d="M97.3029 8.64473C97.3029 8.09563 97.2562 7.56601 97.1684 7.05914H89.8065V10.0625H94.0231C93.842 11.0414 93.2944 11.8744 92.4639 12.4322V14.3828H94.9804C96.4539 13.0246 97.3029 11.0177 97.3029 8.64473" fill="#4285F4"/>
<path id="Fill 10" fill-rule="evenodd" clip-rule="evenodd" d="M89.8065 16.2651C91.9131 16.2651 93.6869 15.5741 94.9804 14.3828L92.4639 12.4322C91.7635 12.9033 90.8614 13.1784 89.8065 13.1784C87.7703 13.1784 86.042 11.8073 85.424 9.95959H82.8316V11.9687C84.1164 14.516 86.7565 16.2651 89.8065 16.2651" fill="#34A853"/>
<path id="Fill 12" fill-rule="evenodd" clip-rule="evenodd" d="M85.424 9.9596C85.2657 9.48847 85.179 8.98593 85.179 8.46715C85.179 7.94837 85.2657 7.44583 85.424 6.9747V4.96564H82.8316C82.3003 6.01837 82 7.20756 82 8.46715C82 9.72674 82.3003 10.916 82.8316 11.9687L85.424 9.9596Z" fill="#FABB05"/>
<path id="Fill 14" fill-rule="evenodd" clip-rule="evenodd" d="M89.8065 3.75583C90.9568 3.75583 91.9879 4.15115 92.8011 4.92553V4.92661L95.0292 2.70094C93.6761 1.44243 91.912 0.669128 89.8065 0.669128C86.7565 0.669128 84.1164 2.41826 82.8316 4.9656L85.424 6.97467C86.042 5.12698 87.7703 3.75583 89.8065 3.75583" fill="#E94235"/>
</g>
</g>
</g>
</g>
</svg>
