<svg width="134" height="21" viewBox="0 0 134 21" fill="none" xmlns="http://www.w3.org/2000/svg">
<g id="da_order_with_Pay_NBG">
<path id="Left Text" d="M1.64913 15.0006V3.54461H5.93713C6.56646 3.54461 7.13713 3.67794 7.64913 3.94461C8.16113 4.21128 8.56646 4.57394 8.86513 5.03261C9.17446 5.49128 9.32913 6.00861 9.32913 6.58461C9.32913 7.17128 9.18513 7.67261 8.89713 8.08861C8.60913 8.50461 8.23579 8.81928 7.77713 9.03261V9.11261C8.35313 9.30461 8.82246 9.63528 9.18513 10.1046C9.54779 10.5739 9.72913 11.1339 9.72913 11.7846C9.72913 12.4246 9.56379 12.9846 9.23313 13.4646C8.91313 13.9446 8.47579 14.3233 7.92113 14.6006C7.37713 14.8673 6.77979 15.0006 6.12913 15.0006H1.64913ZM3.40913 9.92861V13.3686H6.12913C6.51313 13.3686 6.84379 13.2886 7.12113 13.1286C7.39846 12.9686 7.60646 12.7553 7.74513 12.4886C7.89446 12.2219 7.96913 11.9446 7.96913 11.6566C7.96913 11.3473 7.89446 11.0646 7.74513 10.8086C7.59579 10.5419 7.37713 10.3286 7.08913 10.1686C6.81179 10.0086 6.47046 9.92861 6.06513 9.92861H3.40913ZM3.40913 8.36061H5.85713C6.23046 8.36061 6.54513 8.28594 6.80113 8.13661C7.06779 7.97661 7.27046 7.77394 7.40913 7.52861C7.54779 7.27261 7.61713 7.01128 7.61713 6.74461C7.61713 6.47794 7.54779 6.22728 7.40913 5.99261C7.28113 5.74728 7.08913 5.54994 6.83313 5.40061C6.57713 5.24061 6.27313 5.16061 5.92113 5.16061H3.40913V8.36061ZM15.2548 15.2566C14.4548 15.2566 13.7401 15.0699 13.1108 14.6966C12.4814 14.3233 11.9854 13.8113 11.6228 13.1606C11.2708 12.5099 11.0948 11.7686 11.0948 10.9366C11.0948 10.1579 11.2654 9.43794 11.6068 8.77661C11.9481 8.11528 12.4228 7.58728 13.0308 7.19261C13.6494 6.78728 14.3588 6.58461 15.1588 6.58461C16.0014 6.58461 16.7161 6.76594 17.3028 7.12861C17.9001 7.49128 18.3534 7.98728 18.6628 8.61661C18.9721 9.24594 19.1268 9.95528 19.1268 10.7446C19.1268 10.8619 19.1214 10.9686 19.1108 11.0646C19.1108 11.1606 19.1054 11.2353 19.0948 11.2886H12.7908C12.8334 11.7366 12.9454 12.1259 13.1268 12.4566C13.3614 12.8726 13.6708 13.1873 14.0548 13.4006C14.4388 13.6139 14.8548 13.7206 15.3028 13.7206C15.8468 13.7206 16.3001 13.5979 16.6628 13.3526C17.0361 13.0966 17.3294 12.7819 17.5428 12.4086L18.9668 13.0966C18.6148 13.7366 18.1348 14.2593 17.5268 14.6646C16.9188 15.0593 16.1614 15.2566 15.2548 15.2566ZM12.8868 9.99261H17.4148C17.4041 9.78994 17.3508 9.57661 17.2548 9.35261C17.1588 9.11794 17.0201 8.90461 16.8388 8.71261C16.6574 8.52061 16.4281 8.36594 16.1508 8.24861C15.8734 8.12061 15.5481 8.05661 15.1748 8.05661C14.7054 8.05661 14.2894 8.17928 13.9268 8.42461C13.5641 8.65928 13.2814 8.98994 13.0788 9.41661C12.9934 9.59794 12.9294 9.78994 12.8868 9.99261ZM23.934 15.2566C23.2833 15.2566 22.718 15.1606 22.238 14.9686C21.758 14.7659 21.3633 14.4993 21.054 14.1686C20.7447 13.8273 20.5153 13.4593 20.366 13.0646L21.918 12.3926C22.11 12.8299 22.382 13.1659 22.734 13.4006C23.0967 13.6246 23.5127 13.7366 23.982 13.7366C24.4087 13.7366 24.7767 13.6619 25.086 13.5126C25.3953 13.3526 25.55 13.0966 25.55 12.7446C25.55 12.5206 25.4753 12.3393 25.326 12.2006C25.1873 12.0513 24.9953 11.9286 24.75 11.8326C24.5153 11.7366 24.2433 11.6513 23.934 11.5766L22.958 11.3526C22.574 11.2566 22.206 11.1073 21.854 10.9046C21.5127 10.6913 21.2353 10.4246 21.022 10.1046C20.8087 9.78461 20.702 9.40594 20.702 8.96861C20.702 8.47794 20.8407 8.05661 21.118 7.70461C21.406 7.34194 21.79 7.06461 22.27 6.87261C22.75 6.68061 23.2673 6.58461 23.822 6.58461C24.334 6.58461 24.798 6.65394 25.214 6.79261C25.6407 6.92061 26.0087 7.11794 26.318 7.38461C26.638 7.64061 26.8887 7.96061 27.07 8.34461L25.582 9.01661C25.4007 8.65394 25.1553 8.40328 24.846 8.26461C24.5367 8.11528 24.2007 8.04061 23.838 8.04061C23.4327 8.04061 23.0913 8.12594 22.814 8.29661C22.5473 8.45661 22.414 8.66994 22.414 8.93661C22.414 9.21394 22.5313 9.43261 22.766 9.59261C23.0113 9.75261 23.31 9.88061 23.662 9.97661L24.846 10.2646C25.6567 10.4673 26.2647 10.7766 26.67 11.1926C27.0753 11.5979 27.278 12.0939 27.278 12.6806C27.278 13.2033 27.1287 13.6619 26.83 14.0566C26.5313 14.4406 26.126 14.7393 25.614 14.9526C25.1127 15.1553 24.5527 15.2566 23.934 15.2566ZM28.298 6.84061H29.722V4.53661H31.45V6.84061H33.45V8.34461H31.45V12.2646C31.45 12.6699 31.53 12.9793 31.69 13.1926C31.8607 13.4059 32.1433 13.5126 32.538 13.5126C32.73 13.5126 32.9007 13.4859 33.05 13.4326C33.1993 13.3686 33.3487 13.2939 33.498 13.2086V14.8886C33.3167 14.9633 33.1247 15.0219 32.922 15.0646C32.7193 15.1073 32.4793 15.1286 32.202 15.1286C31.4447 15.1286 30.842 14.9099 30.394 14.4726C29.946 14.0246 29.722 13.4113 29.722 12.6326V8.34461H28.298V6.84061ZM35.4641 15.0006V6.84061H37.1921V15.0006H35.4641ZM36.3281 5.64061C36.0081 5.64061 35.7308 5.52861 35.4961 5.30461C35.2721 5.06994 35.1601 4.79261 35.1601 4.47261C35.1601 4.14194 35.2721 3.86994 35.4961 3.65661C35.7308 3.43261 36.0081 3.32061 36.3281 3.32061C36.6588 3.32061 36.9361 3.43261 37.1601 3.65661C37.3841 3.86994 37.4961 4.14194 37.4961 4.47261C37.4961 4.79261 37.3841 5.06994 37.1601 5.30461C36.9361 5.52861 36.6588 5.64061 36.3281 5.64061ZM39.5021 15.0006V3.54461H41.2301V15.0006H39.5021ZM47.3018 15.0006V6.84061H48.9338V7.96061H49.0298C49.1898 7.69394 49.3978 7.45928 49.6538 7.25661C49.9098 7.05394 50.1978 6.89394 50.5178 6.77661C50.8484 6.64861 51.1898 6.58461 51.5418 6.58461C52.1498 6.58461 52.6671 6.72861 53.0938 7.01661C53.5204 7.30461 53.8244 7.66728 54.0058 8.10461C54.2724 7.67794 54.6351 7.32061 55.0938 7.03261C55.5524 6.73394 56.1124 6.58461 56.7738 6.58461C57.7338 6.58461 58.4484 6.87794 58.9178 7.46461C59.3871 8.04061 59.6218 8.80861 59.6218 9.76861V15.0006H57.9098V10.0566C57.9098 9.39528 57.7658 8.91528 57.4778 8.61661C57.2004 8.31794 56.8111 8.16861 56.3098 8.16861C55.9151 8.16861 55.5684 8.28061 55.2698 8.50461C54.9711 8.71794 54.7364 9.01128 54.5658 9.38461C54.4058 9.75794 54.3258 10.1739 54.3258 10.6326V15.0006H52.6138V10.0566C52.6138 9.40594 52.4698 8.93128 52.1818 8.63261C51.8938 8.32328 51.4884 8.16861 50.9658 8.16861C50.5924 8.16861 50.2564 8.28061 49.9578 8.50461C49.6698 8.72861 49.4404 9.02728 49.2698 9.40061C49.1098 9.77394 49.0298 10.1899 49.0298 10.6486V15.0006H47.3018ZM65.4454 15.2566C64.6454 15.2566 63.9307 15.0699 63.3014 14.6966C62.672 14.3233 62.176 13.8113 61.8134 13.1606C61.4614 12.5099 61.2854 11.7686 61.2854 10.9366C61.2854 10.1579 61.456 9.43794 61.7974 8.77661C62.1387 8.11528 62.6134 7.58728 63.2214 7.19261C63.84 6.78728 64.5494 6.58461 65.3494 6.58461C66.192 6.58461 66.9067 6.76594 67.4934 7.12861C68.0907 7.49128 68.544 7.98728 68.8534 8.61661C69.1627 9.24594 69.3174 9.95528 69.3174 10.7446C69.3174 10.8619 69.312 10.9686 69.3014 11.0646C69.3014 11.1606 69.296 11.2353 69.2854 11.2886H62.9814C63.024 11.7366 63.136 12.1259 63.3174 12.4566C63.552 12.8726 63.8614 13.1873 64.2454 13.4006C64.6294 13.6139 65.0454 13.7206 65.4934 13.7206C66.0374 13.7206 66.4907 13.5979 66.8534 13.3526C67.2267 13.0966 67.52 12.7819 67.7334 12.4086L69.1574 13.0966C68.8054 13.7366 68.3254 14.2593 67.7174 14.6646C67.1094 15.0593 66.352 15.2566 65.4454 15.2566ZM63.0774 9.99261H67.6054C67.5947 9.78994 67.5414 9.57661 67.4454 9.35261C67.3494 9.11794 67.2107 8.90461 67.0294 8.71261C66.848 8.52061 66.6187 8.36594 66.3414 8.24861C66.064 8.12061 65.7387 8.05661 65.3654 8.05661C64.896 8.05661 64.48 8.17928 64.1174 8.42461C63.7547 8.65928 63.472 8.98994 63.2694 9.41661C63.184 9.59794 63.12 9.78994 63.0774 9.99261ZM74.6366 15.2566C73.9006 15.2566 73.234 15.0699 72.6366 14.6966C72.0393 14.3233 71.57 13.8113 71.2286 13.1606C70.8873 12.5099 70.7166 11.7633 70.7166 10.9206C70.7166 10.0779 70.8873 9.33128 71.2286 8.68061C71.57 8.02994 72.0393 7.51794 72.6366 7.14461C73.234 6.77128 73.9006 6.58461 74.6366 6.58461C75.0633 6.58461 75.4473 6.64861 75.7886 6.77661C76.13 6.90461 76.4233 7.07528 76.6686 7.28861C76.9246 7.49128 77.122 7.70994 77.2606 7.94461H77.3566L77.2606 6.80861V3.54461H78.9726V15.0006H77.3566V13.9126H77.2606C77.122 14.1366 76.9246 14.3553 76.6686 14.5686C76.4233 14.7713 76.13 14.9366 75.7886 15.0646C75.4473 15.1926 75.0633 15.2566 74.6366 15.2566ZM74.8926 13.6726C75.3193 13.6726 75.7193 13.5606 76.0926 13.3366C76.4766 13.1126 76.7806 12.7979 77.0046 12.3926C77.2393 11.9766 77.3566 11.4859 77.3566 10.9206C77.3566 10.3553 77.2393 9.86994 77.0046 9.46461C76.7806 9.04861 76.4766 8.72861 76.0926 8.50461C75.7193 8.28061 75.3193 8.16861 74.8926 8.16861C74.466 8.16861 74.066 8.28061 73.6926 8.50461C73.3193 8.72861 73.0153 9.04861 72.7806 9.46461C72.546 9.86994 72.4286 10.3553 72.4286 10.9206C72.4286 11.4753 72.546 11.9606 72.7806 12.3766C73.0153 12.7926 73.3193 13.1126 73.6926 13.3366C74.066 13.5606 74.466 13.6726 74.8926 13.6726Z" fill="white"/>
<g id="GPay (Dark)">
<g id="GPay">
<g id="Pay">
<path id="Fill 1" fill-rule="evenodd" clip-rule="evenodd" d="M108.356 3.42339V8.16175H111.278C111.974 8.16175 112.55 7.92781 113.005 7.45993C113.473 6.99313 113.707 6.43644 113.707 5.79203C113.707 5.16061 113.473 4.61041 113.005 4.14254C112.55 3.66274 111.974 3.4223 111.278 3.4223H108.356V3.42339ZM108.356 9.82966V15.3262H106.611V1.75549H111.24C112.417 1.75549 113.415 2.14756 114.238 2.93061C115.073 3.71365 115.491 4.66782 115.491 5.79203C115.491 6.94224 115.073 7.90291 114.238 8.67296C113.428 9.44409 112.429 9.82858 111.24 9.82858H108.356V9.82966Z" fill="white"/>
<path id="Fill 3" fill-rule="evenodd" clip-rule="evenodd" d="M117.255 12.4831C117.255 12.9379 117.448 13.317 117.834 13.6203C118.22 13.9235 118.672 14.0752 119.19 14.0752C119.924 14.0752 120.578 13.8032 121.153 13.2607C121.729 12.717 122.017 12.0791 122.017 11.3469C121.472 10.917 120.713 10.7025 119.74 10.7025C119.031 10.7025 118.44 10.8736 117.966 11.2148C117.492 11.5559 117.255 11.9773 117.255 12.4831M119.513 5.73566C120.803 5.73566 121.821 6.08007 122.569 6.76889C123.314 7.45771 123.687 8.40213 123.687 9.60216V15.3261H122.018V14.0373H121.942C121.221 15.0985 120.259 15.6294 119.058 15.6294C118.033 15.6294 117.176 15.3261 116.487 14.7196C115.797 14.1131 115.453 13.3549 115.453 12.4452C115.453 11.4845 115.816 10.7208 116.543 10.1523C117.271 9.58375 118.241 9.2989 119.456 9.2989C120.492 9.2989 121.346 9.48844 122.017 9.86751V9.46894C122.017 8.86243 121.776 8.34798 121.296 7.92451C120.814 7.50103 120.252 7.28984 119.607 7.28984C118.633 7.28984 117.862 7.70032 117.293 8.52235L115.755 7.55519C116.603 6.34217 117.855 5.73566 119.513 5.73566" fill="white"/>
<path id="Fill 5" fill-rule="evenodd" clip-rule="evenodd" d="M133.269 6.03894L127.443 19.4201H125.641L127.804 14.738L123.971 6.03894H125.869L128.639 12.7106H128.677L131.371 6.03894H133.269Z" fill="white"/>
</g>
<g id="G">
<path id="Fill 8" fill-rule="evenodd" clip-rule="evenodd" d="M101.303 8.64473C101.303 8.09563 101.256 7.56601 101.168 7.05914H93.8065V10.0625H98.0231C97.842 11.0414 97.2944 11.8744 96.4639 12.4322V14.3828H98.9804C100.454 13.0246 101.303 11.0177 101.303 8.64473" fill="#4285F4"/>
<path id="Fill 10" fill-rule="evenodd" clip-rule="evenodd" d="M93.8065 16.2651C95.9131 16.2651 97.6869 15.5741 98.9804 14.3828L96.4639 12.4322C95.7635 12.9033 94.8614 13.1784 93.8065 13.1784C91.7703 13.1784 90.042 11.8073 89.424 9.95959H86.8316V11.9687C88.1164 14.516 90.7565 16.2651 93.8065 16.2651" fill="#34A853"/>
<path id="Fill 12" fill-rule="evenodd" clip-rule="evenodd" d="M89.424 9.9596C89.2657 9.48847 89.179 8.98593 89.179 8.46715C89.179 7.94837 89.2657 7.44583 89.424 6.9747V4.96564H86.8316C86.3003 6.01837 86 7.20756 86 8.46715C86 9.72674 86.3003 10.916 86.8316 11.9687L89.424 9.9596Z" fill="#FABB05"/>
<path id="Fill 14" fill-rule="evenodd" clip-rule="evenodd" d="M93.8065 3.75583C94.9568 3.75583 95.9879 4.15115 96.8011 4.92553V4.92661L99.0292 2.70094C97.6761 1.44243 95.912 0.669128 93.8065 0.669128C90.7565 0.669128 88.1164 2.41826 86.8316 4.9656L89.424 6.97467C90.042 5.12698 91.7703 3.75583 93.8065 3.75583" fill="#E94235"/>
</g>
</g>
</g>
</g>
</svg>
