<svg width="234" height="38" viewBox="0 0 234 38" fill="none" xmlns="http://www.w3.org/2000/svg">
<g id="da_order_with_Light">
<path id="Text" d="M2.54847 30V9.952H10.0525C11.1351 9.952 12.1245 10.1853 13.0205 10.652C13.9351 11.1187 14.6538 11.7533 15.1765 12.556C15.7178 13.3587 15.9885 14.264 15.9885 15.272C15.9885 16.2987 15.7271 17.176 15.2045 17.904C14.7005 18.632 14.0565 19.1827 13.2725 19.556V19.696C14.2805 20.0507 15.1018 20.6387 15.7365 21.46C16.3711 22.2627 16.6885 23.2333 16.6885 24.372C16.6885 25.492 16.3991 26.4813 15.8205 27.34C15.2605 28.18 14.4951 28.8333 13.5245 29.3C12.5725 29.7667 11.5271 30 10.3885 30H2.54847ZM10.0245 12.78H5.62847V18.38H9.91247C10.8831 18.38 11.6391 18.0907 12.1805 17.512C12.7218 16.9147 12.9925 16.2613 12.9925 15.552C12.9925 14.8613 12.7311 14.2267 12.2085 13.648C11.6858 13.0693 10.9578 12.78 10.0245 12.78ZM5.62847 27.144H10.3885C11.3965 27.144 12.1805 26.8453 12.7405 26.248C13.3191 25.632 13.6085 24.932 13.6085 24.148C13.6085 23.364 13.3191 22.664 12.7405 22.048C12.1618 21.432 11.3405 21.124 10.2765 21.124H5.62847V27.144ZM26.3958 30.448C24.9958 30.448 23.7451 30.1213 22.6438 29.468C21.5425 28.8147 20.6745 27.9187 20.0398 26.78C19.4238 25.6413 19.1158 24.344 19.1158 22.888C19.1158 21.5253 19.4145 20.2653 20.0118 19.108C20.6091 17.9507 21.4398 17.0267 22.5038 16.336C23.5865 15.6267 24.8278 15.272 26.2278 15.272C27.7025 15.272 28.9531 15.5893 29.9798 16.224C31.0251 16.8587 31.8185 17.7267 32.3598 18.828C32.9011 19.9293 33.1718 21.1707 33.1718 22.552C33.1718 22.7573 33.1625 22.944 33.1438 23.112C33.1438 23.28 33.1345 23.4107 33.1158 23.504H22.0838C22.2331 24.9227 22.7278 25.9867 23.5678 26.696C24.4265 27.4053 25.3971 27.76 26.4798 27.76C27.4505 27.76 28.2531 27.5453 28.8878 27.116C29.5225 26.668 30.0265 26.1173 30.3998 25.464L32.8918 26.668C32.2758 27.788 31.4358 28.7027 30.3718 29.412C29.3078 30.1027 27.9825 30.448 26.3958 30.448ZM26.2558 17.848C25.2478 17.848 24.3891 18.156 23.6798 18.772C22.9705 19.388 22.4945 20.2093 22.2518 21.236H30.1758C30.1385 20.7507 29.9798 20.2467 29.6998 19.724C29.4198 19.2013 28.9905 18.7627 28.4118 18.408C27.8518 18.0347 27.1331 17.848 26.2558 17.848ZM41.622 30.448C39.9047 30.448 38.5327 30.0747 37.506 29.328C36.4793 28.5627 35.77 27.6573 35.378 26.612L38.094 25.436C38.43 26.2013 38.9153 26.7893 39.55 27.2C40.1847 27.592 40.9033 27.788 41.706 27.788C42.4527 27.788 43.0967 27.6573 43.638 27.396C44.1793 27.116 44.45 26.668 44.45 26.052C44.45 25.4547 44.1793 25.016 43.638 24.736C43.0967 24.456 42.4247 24.2133 41.622 24.008L39.914 23.616C39.2233 23.448 38.5793 23.1867 37.982 22.832C37.3847 22.4773 36.8993 22.02 36.526 21.46C36.1527 20.8813 35.966 20.2093 35.966 19.444C35.966 18.604 36.218 17.876 36.722 17.26C37.226 16.6253 37.8887 16.14 38.71 15.804C39.55 15.4493 40.4553 15.272 41.426 15.272C42.7513 15.272 43.9087 15.5333 44.898 16.056C45.906 16.56 46.6433 17.3253 47.11 18.352L44.506 19.528C44.17 18.8933 43.7313 18.4547 43.19 18.212C42.6673 17.9507 42.0887 17.82 41.454 17.82C40.7447 17.82 40.1473 17.9693 39.662 18.268C39.1953 18.5667 38.962 18.94 38.962 19.388C38.962 19.8733 39.1673 20.256 39.578 20.536C40.0073 20.816 40.53 21.04 41.146 21.208L43.218 21.712C44.6367 22.0667 45.7007 22.608 46.41 23.336C47.1193 24.0453 47.474 24.9133 47.474 25.94C47.474 26.8547 47.2127 27.6573 46.69 28.348C46.1673 29.02 45.458 29.5427 44.562 29.916C43.6847 30.2707 42.7047 30.448 41.622 30.448ZM51.7885 25.856V18.352H49.2965V15.72H51.7885V11.688H54.8125V15.72H58.3125V18.352H54.8125V25.212C54.8125 25.9213 54.9525 26.4627 55.2325 26.836C55.5312 27.2093 56.0258 27.396 56.7165 27.396C57.0712 27.396 57.3698 27.3493 57.6125 27.256C57.8738 27.1627 58.1352 27.032 58.3965 26.864V29.804C58.0792 29.9347 57.7432 30.0373 57.3885 30.112C57.0338 30.1867 56.6138 30.224 56.1285 30.224C54.8032 30.224 53.7485 29.8413 52.9645 29.076C52.1805 28.292 51.7885 27.2187 51.7885 25.856ZM63.3867 13.62C62.8267 13.62 62.3414 13.424 61.9307 13.032C61.5387 12.6213 61.3427 12.136 61.3427 11.576C61.3427 11.016 61.5387 10.54 61.9307 10.148C62.3414 9.756 62.8267 9.56 63.3867 9.56C63.9467 9.56 64.4227 9.756 64.8147 10.148C65.2254 10.54 65.4307 11.016 65.4307 11.576C65.4307 12.136 65.2254 12.6213 64.8147 13.032C64.4227 13.424 63.9467 13.62 63.3867 13.62ZM61.8747 30V15.72H64.8987V30H61.8747ZM68.9787 30V9.952H72.0027V30H68.9787ZM82.7031 30V15.72H85.5591V17.68H85.7271C86.1377 16.9893 86.7351 16.42 87.5191 15.972C88.3031 15.5053 89.1711 15.272 90.1231 15.272C91.1871 15.272 92.0924 15.524 92.8391 16.028C93.5857 16.532 94.1177 17.1667 94.4351 17.932C94.9017 17.1853 95.5364 16.56 96.3391 16.056C97.1417 15.5333 98.1217 15.272 99.2791 15.272C100.959 15.272 102.21 15.7853 103.031 16.812C103.852 17.82 104.263 19.164 104.263 20.844V30H101.267V21.348C101.267 20.2093 101.015 19.3787 100.511 18.856C100.026 18.3147 99.3444 18.044 98.4671 18.044C97.7764 18.044 97.1697 18.24 96.6471 18.632C96.1244 19.0053 95.7137 19.5187 95.4151 20.172C95.1351 20.8253 94.9951 21.5533 94.9951 22.356V30H91.9991V21.348C91.9991 20.2093 91.7471 19.3787 91.2431 18.856C90.7391 18.3147 90.0297 18.044 89.1151 18.044C88.4431 18.044 87.8551 18.24 87.3511 18.632C86.8471 19.024 86.4457 19.5467 86.1471 20.2C85.8671 20.8533 85.7271 21.5813 85.7271 22.384V30H82.7031ZM114.492 30.448C113.092 30.448 111.841 30.1213 110.74 29.468C109.639 28.8147 108.771 27.9187 108.136 26.78C107.52 25.6413 107.212 24.344 107.212 22.888C107.212 21.5253 107.511 20.2653 108.108 19.108C108.705 17.9507 109.536 17.0267 110.6 16.336C111.683 15.6267 112.924 15.272 114.324 15.272C115.799 15.272 117.049 15.5893 118.076 16.224C119.121 16.8587 119.915 17.7267 120.456 18.828C120.997 19.9293 121.268 21.1707 121.268 22.552C121.268 22.7573 121.259 22.944 121.24 23.112C121.24 23.28 121.231 23.4107 121.212 23.504H110.18C110.329 24.9227 110.824 25.9867 111.664 26.696C112.523 27.4053 113.493 27.76 114.576 27.76C115.547 27.76 116.349 27.5453 116.984 27.116C117.619 26.668 118.123 26.1173 118.496 25.464L120.988 26.668C120.372 27.788 119.532 28.7027 118.468 29.412C117.404 30.1027 116.079 30.448 114.492 30.448ZM114.352 17.848C113.344 17.848 112.485 18.156 111.776 18.772C111.067 19.388 110.591 20.2093 110.348 21.236H118.272C118.235 20.7507 118.076 20.2467 117.796 19.724C117.516 19.2013 117.087 18.7627 116.508 18.408C115.948 18.0347 115.229 17.848 114.352 17.848ZM130.614 30.448C129.326 30.448 128.159 30.1307 127.114 29.496C126.087 28.8427 125.266 27.9467 124.65 26.808C124.053 25.6507 123.754 24.3347 123.754 22.86C123.754 21.3853 124.053 20.0787 124.65 18.94C125.266 17.8013 126.087 16.9053 127.114 16.252C128.159 15.5987 129.326 15.272 130.614 15.272C131.715 15.272 132.658 15.5147 133.442 16C134.245 16.4853 134.833 17.036 135.206 17.652H135.374L135.206 15.664V9.952H138.202V30H135.374V28.096H135.206C134.833 28.712 134.245 29.2627 133.442 29.748C132.658 30.2147 131.715 30.448 130.614 30.448ZM131.062 27.676C131.809 27.676 132.509 27.48 133.162 27.088C133.834 26.696 134.366 26.1453 134.758 25.436C135.169 24.708 135.374 23.8493 135.374 22.86C135.374 21.8707 135.169 21.0213 134.758 20.312C134.366 19.584 133.834 19.024 133.162 18.632C132.509 18.24 131.809 18.044 131.062 18.044C130.315 18.044 129.615 18.24 128.962 18.632C128.309 19.024 127.777 19.584 127.366 20.312C126.955 21.0213 126.75 21.8707 126.75 22.86C126.75 23.8493 126.955 24.708 127.366 25.436C127.777 26.1453 128.309 26.696 128.962 27.088C129.615 27.48 130.315 27.676 131.062 27.676Z" fill="#3C4043"/>
<g id="GPay Logo (Light)">
<g id="GPay">
<g id="Pay">
<path id="Fill 1" fill-rule="evenodd" clip-rule="evenodd" d="M190.529 9.44664V17.6128H195.565C196.765 17.6128 197.757 17.2096 198.541 16.4032C199.347 15.5988 199.75 14.6394 199.75 13.5288C199.75 12.4406 199.347 11.4924 198.541 10.686C197.757 9.85915 196.765 9.44478 195.565 9.44478H190.529V9.44664ZM190.529 20.4872V29.9599H187.521V6.57217H195.499C197.527 6.57217 199.248 7.24786 200.666 8.59737C202.105 9.94688 202.824 11.5913 202.824 13.5288C202.824 15.511 202.105 17.1667 200.666 18.4938C199.27 19.8227 197.547 20.4854 195.499 20.4854H190.529V20.4872Z" fill="#5F6368"/>
<path id="Fill 3" fill-rule="evenodd" clip-rule="evenodd" d="M205.864 25.0602C205.864 25.8442 206.197 26.4975 206.862 27.0201C207.527 27.5427 208.306 27.804 209.2 27.804C210.465 27.804 211.591 27.3354 212.584 26.4004C213.576 25.4634 214.071 24.364 214.071 23.1022C213.133 22.3612 211.825 21.9916 210.147 21.9916C208.925 21.9916 207.907 22.2865 207.09 22.8745C206.273 23.4623 205.864 24.1886 205.864 25.0602ZM209.756 13.4317C211.98 13.4317 213.735 14.0252 215.022 15.2124C216.308 16.3995 216.95 18.0271 216.95 20.0952V29.9599H214.073V27.7387H213.942C212.699 29.5677 211.042 30.4825 208.972 30.4825C207.206 30.4825 205.728 29.9599 204.541 28.9146C203.353 27.8694 202.759 26.5628 202.759 24.9949C202.759 23.3393 203.385 22.0232 204.638 21.0434C205.892 20.0635 207.565 19.5726 209.658 19.5726C211.444 19.5726 212.916 19.8992 214.071 20.5525V19.8656C214.071 18.8204 213.656 17.9338 212.829 17.204C211.999 16.4741 211.031 16.1102 209.919 16.1102C208.239 16.1102 206.911 16.8176 205.93 18.2343L203.28 16.5675C204.741 14.4769 206.899 13.4317 209.756 13.4317Z" fill="#5F6368"/>
<path id="Fill 5" fill-rule="evenodd" clip-rule="evenodd" d="M233.463 13.9543L223.424 37.0154H220.318L224.046 28.9464L217.44 13.9543H220.71L225.484 25.4522H225.55L230.193 13.9543H233.463Z" fill="#5F6368"/>
</g>
<g id="G">
<path id="Fill 8" fill-rule="evenodd" clip-rule="evenodd" d="M178.373 18.4452C178.373 17.4989 178.293 16.5861 178.141 15.7126H165.454V20.8885H172.72C172.408 22.5757 171.465 24.0112 170.033 24.9725V28.3341H174.37C176.91 25.9935 178.373 22.5348 178.373 18.4452Z" fill="#4285F4"/>
<path id="Fill 10" fill-rule="evenodd" clip-rule="evenodd" d="M165.454 31.5782C169.084 31.5782 172.141 30.3873 174.37 28.3341L170.033 24.9725C168.826 25.7844 167.272 26.2585 165.454 26.2585C161.944 26.2585 158.966 23.8955 157.901 20.7112H153.433V24.1736C155.647 28.5637 160.197 31.5782 165.454 31.5782Z" fill="#34A853"/>
<path id="Fill 12" fill-rule="evenodd" clip-rule="evenodd" d="M157.901 20.7111C157.628 19.8992 157.479 19.0331 157.479 18.139C157.479 17.245 157.628 16.3789 157.901 15.567V12.1045H153.433C152.518 13.9188 152 15.9683 152 18.139C152 20.3098 152.518 22.3595 153.433 24.1736L157.901 20.7111Z" fill="#FABB05"/>
<path id="Fill 14" fill-rule="evenodd" clip-rule="evenodd" d="M165.454 10.0196C167.436 10.0196 169.213 10.7009 170.615 12.0355V12.0374L174.455 8.20162C172.123 6.03271 169.082 4.7 165.454 4.7C160.197 4.7 155.647 7.71446 153.433 12.1046L157.901 15.567C158.966 12.3827 161.944 10.0196 165.454 10.0196Z" fill="#E94235"/>
</g>
</g>
</g>
</g>
</svg>
