<svg width="228" height="38" viewBox="0 0 228 38" fill="none" xmlns="http://www.w3.org/2000/svg">
<g id="da_pay_with_Dark">
<path id="Text" d="M3.08285 30V9.952H10.5869C11.6695 9.952 12.6589 10.1853 13.5549 10.652C14.4695 11.1187 15.1882 11.7533 15.7109 12.556C16.2522 13.3587 16.5229 14.264 16.5229 15.272C16.5229 16.2987 16.2615 17.176 15.7389 17.904C15.2349 18.632 14.5909 19.1827 13.8069 19.556V19.696C14.8149 20.0507 15.6362 20.6387 16.2709 21.46C16.9055 22.2627 17.2229 23.2333 17.2229 24.372C17.2229 25.492 16.9335 26.4813 16.3549 27.34C15.7949 28.18 15.0295 28.8333 14.0589 29.3C13.1069 29.7667 12.0615 30 10.9229 30H3.08285ZM10.5589 12.78H6.16285V18.38H10.4469C11.4175 18.38 12.1735 18.0907 12.7149 17.512C13.2562 16.9147 13.5269 16.2613 13.5269 15.552C13.5269 14.8613 13.2655 14.2267 12.7429 13.648C12.2202 13.0693 11.4922 12.78 10.5589 12.78ZM6.16285 27.144H10.9229C11.9309 27.144 12.7149 26.8453 13.2749 26.248C13.8535 25.632 14.1429 24.932 14.1429 24.148C14.1429 23.364 13.8535 22.664 13.2749 22.048C12.6962 21.432 11.8749 21.124 10.8109 21.124H6.16285V27.144ZM26.9302 30.448C25.5302 30.448 24.2795 30.1213 23.1782 29.468C22.0769 28.8147 21.2089 27.9187 20.5742 26.78C19.9582 25.6413 19.6502 24.344 19.6502 22.888C19.6502 21.5253 19.9489 20.2653 20.5462 19.108C21.1435 17.9507 21.9742 17.0267 23.0382 16.336C24.1209 15.6267 25.3622 15.272 26.7622 15.272C28.2369 15.272 29.4875 15.5893 30.5142 16.224C31.5595 16.8587 32.3529 17.7267 32.8942 18.828C33.4355 19.9293 33.7062 21.1707 33.7062 22.552C33.7062 22.7573 33.6969 22.944 33.6782 23.112C33.6782 23.28 33.6689 23.4107 33.6502 23.504H22.6182C22.7675 24.9227 23.2622 25.9867 24.1022 26.696C24.9609 27.4053 25.9315 27.76 27.0142 27.76C27.9849 27.76 28.7875 27.5453 29.4222 27.116C30.0569 26.668 30.5609 26.1173 30.9342 25.464L33.4262 26.668C32.8102 27.788 31.9702 28.7027 30.9062 29.412C29.8422 30.1027 28.5169 30.448 26.9302 30.448ZM26.7902 17.848C25.7822 17.848 24.9235 18.156 24.2142 18.772C23.5049 19.388 23.0289 20.2093 22.7862 21.236H30.7102C30.6729 20.7507 30.5142 20.2467 30.2342 19.724C29.9542 19.2013 29.5249 18.7627 28.9462 18.408C28.3862 18.0347 27.6675 17.848 26.7902 17.848ZM37.9135 25.856V18.352H35.4215V15.72H37.9135V11.688H40.9375V15.72H44.4375V18.352H40.9375V25.212C40.9375 25.9213 41.0775 26.4627 41.3575 26.836C41.6562 27.2093 42.1508 27.396 42.8415 27.396C43.1962 27.396 43.4948 27.3493 43.7375 27.256C43.9988 27.1627 44.2602 27.032 44.5215 26.864V29.804C44.2042 29.9347 43.8682 30.0373 43.5135 30.112C43.1588 30.1867 42.7388 30.224 42.2535 30.224C40.9282 30.224 39.8735 29.8413 39.0895 29.076C38.3055 28.292 37.9135 27.2187 37.9135 25.856ZM51.8456 30.448C50.8189 30.448 49.9042 30.252 49.1016 29.86C48.2989 29.4493 47.6736 28.88 47.2256 28.152C46.7776 27.424 46.5536 26.5933 46.5536 25.66C46.5536 24.652 46.8149 23.7933 47.3376 23.084C47.8789 22.356 48.5976 21.8053 49.4936 21.432C50.3896 21.0587 51.3789 20.872 52.4616 20.872C53.3576 20.872 54.1416 20.956 54.8136 21.124C55.5042 21.292 56.0269 21.4693 56.3816 21.656V20.9C56.3816 19.9667 56.0456 19.22 55.3736 18.66C54.7016 18.1 53.8336 17.82 52.7696 17.82C52.0416 17.82 51.3509 17.988 50.6976 18.324C50.0442 18.6413 49.5216 19.08 49.1296 19.64L47.0576 18.044C47.6736 17.1853 48.4856 16.5133 49.4936 16.028C50.5202 15.524 51.6402 15.272 52.8536 15.272C54.9256 15.272 56.5216 15.7853 57.6416 16.812C58.7616 17.82 59.3216 19.2387 59.3216 21.068V30H56.3816V28.236H56.2136C55.8402 28.8147 55.2802 29.328 54.5336 29.776C53.7869 30.224 52.8909 30.448 51.8456 30.448ZM52.3776 27.984C53.1616 27.984 53.8522 27.7973 54.4496 27.424C55.0469 27.0507 55.5136 26.5653 55.8496 25.968C56.2042 25.352 56.3816 24.6893 56.3816 23.98C55.9522 23.7373 55.4482 23.5413 54.8696 23.392C54.2909 23.224 53.6749 23.14 53.0216 23.14C51.7896 23.14 50.9122 23.392 50.3896 23.896C49.8669 24.3813 49.6056 24.9787 49.6056 25.688C49.6056 26.36 49.8576 26.9107 50.3616 27.34C50.8656 27.7693 51.5376 27.984 52.3776 27.984ZM62.9787 30V9.952H66.0027V30H62.9787ZM76.7031 30V15.72H79.5591V17.68H79.7271C80.1377 16.9893 80.7351 16.42 81.5191 15.972C82.3031 15.5053 83.1711 15.272 84.1231 15.272C85.1871 15.272 86.0924 15.524 86.8391 16.028C87.5857 16.532 88.1177 17.1667 88.4351 17.932C88.9017 17.1853 89.5364 16.56 90.3391 16.056C91.1417 15.5333 92.1217 15.272 93.2791 15.272C94.9591 15.272 96.2097 15.7853 97.0311 16.812C97.8524 17.82 98.2631 19.164 98.2631 20.844V30H95.2671V21.348C95.2671 20.2093 95.0151 19.3787 94.5111 18.856C94.0257 18.3147 93.3444 18.044 92.4671 18.044C91.7764 18.044 91.1697 18.24 90.6471 18.632C90.1244 19.0053 89.7137 19.5187 89.4151 20.172C89.1351 20.8253 88.9951 21.5533 88.9951 22.356V30H85.9991V21.348C85.9991 20.2093 85.7471 19.3787 85.2431 18.856C84.7391 18.3147 84.0297 18.044 83.1151 18.044C82.4431 18.044 81.8551 18.24 81.3511 18.632C80.8471 19.024 80.4457 19.5467 80.1471 20.2C79.8671 20.8533 79.7271 21.5813 79.7271 22.384V30H76.7031ZM108.492 30.448C107.092 30.448 105.841 30.1213 104.74 29.468C103.639 28.8147 102.771 27.9187 102.136 26.78C101.52 25.6413 101.212 24.344 101.212 22.888C101.212 21.5253 101.511 20.2653 102.108 19.108C102.705 17.9507 103.536 17.0267 104.6 16.336C105.683 15.6267 106.924 15.272 108.324 15.272C109.799 15.272 111.049 15.5893 112.076 16.224C113.121 16.8587 113.915 17.7267 114.456 18.828C114.997 19.9293 115.268 21.1707 115.268 22.552C115.268 22.7573 115.259 22.944 115.24 23.112C115.24 23.28 115.231 23.4107 115.212 23.504H104.18C104.329 24.9227 104.824 25.9867 105.664 26.696C106.523 27.4053 107.493 27.76 108.576 27.76C109.547 27.76 110.349 27.5453 110.984 27.116C111.619 26.668 112.123 26.1173 112.496 25.464L114.988 26.668C114.372 27.788 113.532 28.7027 112.468 29.412C111.404 30.1027 110.079 30.448 108.492 30.448ZM108.352 17.848C107.344 17.848 106.485 18.156 105.776 18.772C105.067 19.388 104.591 20.2093 104.348 21.236H112.272C112.235 20.7507 112.076 20.2467 111.796 19.724C111.516 19.2013 111.087 18.7627 110.508 18.408C109.948 18.0347 109.229 17.848 108.352 17.848ZM124.614 30.448C123.326 30.448 122.159 30.1307 121.114 29.496C120.087 28.8427 119.266 27.9467 118.65 26.808C118.053 25.6507 117.754 24.3347 117.754 22.86C117.754 21.3853 118.053 20.0787 118.65 18.94C119.266 17.8013 120.087 16.9053 121.114 16.252C122.159 15.5987 123.326 15.272 124.614 15.272C125.715 15.272 126.658 15.5147 127.442 16C128.245 16.4853 128.833 17.036 129.206 17.652H129.374L129.206 15.664V9.952H132.202V30H129.374V28.096H129.206C128.833 28.712 128.245 29.2627 127.442 29.748C126.658 30.2147 125.715 30.448 124.614 30.448ZM125.062 27.676C125.809 27.676 126.509 27.48 127.162 27.088C127.834 26.696 128.366 26.1453 128.758 25.436C129.169 24.708 129.374 23.8493 129.374 22.86C129.374 21.8707 129.169 21.0213 128.758 20.312C128.366 19.584 127.834 19.024 127.162 18.632C126.509 18.24 125.809 18.044 125.062 18.044C124.315 18.044 123.615 18.24 122.962 18.632C122.309 19.024 121.777 19.584 121.366 20.312C120.955 21.0213 120.75 21.8707 120.75 22.86C120.75 23.8493 120.955 24.708 121.366 25.436C121.777 26.1453 122.309 26.696 122.962 27.088C123.615 27.48 124.315 27.676 125.062 27.676Z" fill="white"/>
<g id="GPay Logo (Dark)">
<g id="GPay">
<g id="Pay">
<path id="Fill 1" fill-rule="evenodd" clip-rule="evenodd" d="M184.529 9.34665V17.5128H189.565C190.765 17.5128 191.757 17.1096 192.541 16.3032C193.347 15.4988 193.75 14.5394 193.75 13.4288C193.75 12.3406 193.347 11.3924 192.541 10.586C191.757 9.75916 190.765 9.34479 189.565 9.34479H184.529V9.34665ZM184.529 20.3872V29.8599H181.521V6.47218H189.499C191.527 6.47218 193.248 7.14787 194.666 8.49738C196.105 9.84688 196.824 11.4913 196.824 13.4288C196.824 15.411 196.105 17.0667 194.666 18.3938C193.27 19.7227 191.547 20.3854 189.499 20.3854H184.529V20.3872Z" fill="white"/>
<path id="Fill 3" fill-rule="evenodd" clip-rule="evenodd" d="M199.864 24.9602C199.864 25.7442 200.197 26.3975 200.862 26.9201C201.527 27.4427 202.306 27.704 203.2 27.704C204.465 27.704 205.591 27.2354 206.584 26.3004C207.576 25.3634 208.071 24.264 208.071 23.0022C207.133 22.2612 205.825 21.8916 204.147 21.8916C202.925 21.8916 201.907 22.1866 201.09 22.7745C200.273 23.3623 199.864 24.0886 199.864 24.9602ZM203.756 13.3317C205.98 13.3317 207.735 13.9253 209.022 15.1124C210.308 16.2995 210.95 17.9271 210.95 19.9952V29.8599H208.073V27.6387H207.942C206.699 29.4677 205.042 30.3825 202.972 30.3825C201.206 30.3825 199.728 29.8599 198.541 28.8146C197.353 27.7694 196.759 26.4628 196.759 24.8949C196.759 23.2393 197.385 21.9232 198.638 20.9434C199.892 19.9635 201.565 19.4726 203.658 19.4726C205.444 19.4726 206.916 19.7993 208.071 20.4525V19.7657C208.071 18.7204 207.656 17.8338 206.829 17.104C205.999 16.3742 205.031 16.0102 203.919 16.0102C202.239 16.0102 200.911 16.7176 199.93 18.1343L197.28 16.4675C198.741 14.377 200.899 13.3317 203.756 13.3317Z" fill="white"/>
<path id="Fill 5" fill-rule="evenodd" clip-rule="evenodd" d="M227.463 13.8543L217.424 36.9154H214.318L218.046 28.8464L211.44 13.8543H214.71L219.484 25.3522H219.55L224.193 13.8543H227.463Z" fill="white"/>
</g>
<g id="G">
<path id="Fill 8" fill-rule="evenodd" clip-rule="evenodd" d="M172.373 18.3452C172.373 17.3989 172.293 16.4861 172.141 15.6126H159.454V20.7885H166.72C166.408 22.4757 165.465 23.9112 164.033 24.8725V28.2341H168.37C170.91 25.8935 172.373 22.4348 172.373 18.3452Z" fill="#4285F4"/>
<path id="Fill 10" fill-rule="evenodd" clip-rule="evenodd" d="M159.454 31.4782C163.084 31.4782 166.141 30.2873 168.37 28.2341L164.033 24.8725C162.826 25.6844 161.272 26.1585 159.454 26.1585C155.944 26.1585 152.966 23.7955 151.901 20.6112H147.433V24.0736C149.647 28.4637 154.197 31.4782 159.454 31.4782Z" fill="#34A853"/>
<path id="Fill 12" fill-rule="evenodd" clip-rule="evenodd" d="M151.901 20.6111C151.628 19.7992 151.479 18.9331 151.479 18.0391C151.479 17.145 151.628 16.2789 151.901 15.467V12.0045H147.433C146.518 13.8188 146 15.8683 146 18.0391C146 20.2098 146.518 22.2595 147.433 24.0736L151.901 20.6111Z" fill="#FABB05"/>
<path id="Fill 14" fill-rule="evenodd" clip-rule="evenodd" d="M159.454 9.91964C161.436 9.91964 163.213 10.6009 164.615 11.9355V11.9374L168.455 8.10163C166.123 5.93272 163.082 4.60001 159.454 4.60001C154.197 4.60001 149.647 7.61447 147.433 12.0046L151.901 15.467C152.966 12.2827 155.944 9.91964 159.454 9.91964Z" fill="#E94235"/>
</g>
</g>
</g>
</g>
</svg>
