<svg width="276" height="38" viewBox="0 0 276 38" fill="none" xmlns="http://www.w3.org/2000/svg">
<g id="da_subscribe_with_Light">
<path id="Text" d="M1.16609 30L8.72609 9.952H12.2261L19.8141 30H16.4261L14.5781 24.848H6.40209L4.55409 30H1.16609ZM9.65009 15.86L7.43809 21.992H13.5421L11.3301 15.86L10.5741 13.564H10.4061L9.65009 15.86ZM29.9222 30.448C28.8209 30.448 27.8689 30.2147 27.0662 29.748C26.2822 29.2627 25.7035 28.712 25.3302 28.096H25.1622V30H22.3062V9.952H25.3302V15.664L25.1622 17.652H25.3302C25.7035 17.036 26.2822 16.4853 27.0662 16C27.8689 15.5147 28.8209 15.272 29.9222 15.272C31.2289 15.272 32.3955 15.5987 33.4222 16.252C34.4489 16.9053 35.2609 17.8013 35.8582 18.94C36.4742 20.0787 36.7822 21.3853 36.7822 22.86C36.7822 24.3347 36.4742 25.6507 35.8582 26.808C35.2609 27.9467 34.4489 28.8427 33.4222 29.496C32.3955 30.1307 31.2289 30.448 29.9222 30.448ZM29.4742 27.676C30.2209 27.676 30.9209 27.48 31.5742 27.088C32.2275 26.696 32.7595 26.1453 33.1702 25.436C33.5809 24.708 33.7862 23.8493 33.7862 22.86C33.7862 21.8707 33.5809 21.0213 33.1702 20.312C32.7595 19.584 32.2275 19.024 31.5742 18.632C30.9209 18.24 30.2209 18.044 29.4742 18.044C28.7275 18.044 28.0275 18.24 27.3742 18.632C26.7209 19.024 26.1889 19.584 25.7782 20.312C25.3675 21.0213 25.1622 21.8707 25.1622 22.86C25.1622 23.8493 25.3675 24.708 25.7782 25.436C26.1889 26.1453 26.7209 26.696 27.3742 27.088C28.0275 27.48 28.7275 27.676 29.4742 27.676ZM46.5801 30.448C45.1054 30.448 43.8081 30.112 42.6881 29.44C41.5681 28.768 40.6908 27.8627 40.0561 26.724C39.4214 25.5853 39.1041 24.2973 39.1041 22.86C39.1041 21.4413 39.4214 20.1627 40.0561 19.024C40.6908 17.8667 41.5681 16.952 42.6881 16.28C43.8081 15.608 45.1054 15.272 46.5801 15.272C48.0361 15.272 49.3241 15.608 50.4441 16.28C51.5641 16.952 52.4414 17.8667 53.0761 19.024C53.7108 20.1627 54.0281 21.4413 54.0281 22.86C54.0281 24.2973 53.7108 25.5853 53.0761 26.724C52.4414 27.8627 51.5641 28.768 50.4441 29.44C49.3241 30.112 48.0361 30.448 46.5801 30.448ZM46.5801 27.676C47.3641 27.676 48.0921 27.4893 48.7641 27.116C49.4361 26.724 49.9774 26.1733 50.3881 25.464C50.8174 24.736 51.0321 23.868 51.0321 22.86C51.0321 21.852 50.8174 20.9933 50.3881 20.284C49.9774 19.556 49.4361 19.0053 48.7641 18.632C48.0921 18.24 47.3641 18.044 46.5801 18.044C45.7961 18.044 45.0588 18.24 44.3681 18.632C43.6961 19.0053 43.1454 19.556 42.7161 20.284C42.3054 20.9933 42.1001 21.852 42.1001 22.86C42.1001 23.868 42.3054 24.736 42.7161 25.464C43.1454 26.1733 43.6961 26.724 44.3681 27.116C45.0588 27.4893 45.7961 27.676 46.5801 27.676ZM56.8398 30V15.72H59.6958V17.68H59.8638C60.2744 16.9893 60.8811 16.42 61.6838 15.972C62.5051 15.5053 63.4011 15.272 64.3718 15.272C66.1265 15.272 67.4425 15.7947 68.3198 16.84C69.1971 17.8853 69.6358 19.2667 69.6358 20.984V30H66.6398V21.376C66.6398 20.2187 66.3505 19.3787 65.7718 18.856C65.1931 18.3147 64.4371 18.044 63.5038 18.044C62.7758 18.044 62.1411 18.2493 61.5998 18.66C61.0584 19.052 60.6291 19.5747 60.3118 20.228C60.0131 20.8813 59.8638 21.5813 59.8638 22.328V30H56.8398ZM73.382 30V15.72H76.238V17.68H76.406C76.8166 16.9893 77.4233 16.42 78.226 15.972C79.0473 15.5053 79.9433 15.272 80.914 15.272C82.6686 15.272 83.9846 15.7947 84.862 16.84C85.7393 17.8853 86.178 19.2667 86.178 20.984V30H83.182V21.376C83.182 20.2187 82.8926 19.3787 82.314 18.856C81.7353 18.3147 80.9793 18.044 80.046 18.044C79.318 18.044 78.6833 18.2493 78.142 18.66C77.6006 19.052 77.1713 19.5747 76.854 20.228C76.5553 20.8813 76.406 21.5813 76.406 22.328V30H73.382ZM96.4482 30.448C95.0482 30.448 93.7975 30.1213 92.6962 29.468C91.5948 28.8147 90.7268 27.9187 90.0922 26.78C89.4762 25.6413 89.1682 24.344 89.1682 22.888C89.1682 21.5253 89.4668 20.2653 90.0642 19.108C90.6615 17.9507 91.4922 17.0267 92.5562 16.336C93.6388 15.6267 94.8802 15.272 96.2802 15.272C97.7548 15.272 99.0055 15.5893 100.032 16.224C101.077 16.8587 101.871 17.7267 102.412 18.828C102.953 19.9293 103.224 21.1707 103.224 22.552C103.224 22.7573 103.215 22.944 103.196 23.112C103.196 23.28 103.187 23.4107 103.168 23.504H92.1362C92.2855 24.9227 92.7802 25.9867 93.6202 26.696C94.4788 27.4053 95.4495 27.76 96.5322 27.76C97.5028 27.76 98.3055 27.5453 98.9402 27.116C99.5748 26.668 100.079 26.1173 100.452 25.464L102.944 26.668C102.328 27.788 101.488 28.7027 100.424 29.412C99.3602 30.1027 98.0348 30.448 96.4482 30.448ZM96.3082 17.848C95.3002 17.848 94.4415 18.156 93.7322 18.772C93.0228 19.388 92.5468 20.2093 92.3042 21.236H100.228C100.191 20.7507 100.032 20.2467 99.7522 19.724C99.4722 19.2013 99.0428 18.7627 98.4642 18.408C97.9042 18.0347 97.1855 17.848 96.3082 17.848ZM106.33 30V15.72H109.186V17.82H109.354C109.671 17.092 110.212 16.4947 110.978 16.028C111.762 15.5427 112.602 15.3 113.498 15.3C113.89 15.3 114.216 15.328 114.478 15.384C114.758 15.44 115.01 15.5053 115.234 15.58V18.716C114.879 18.5667 114.515 18.4453 114.142 18.352C113.787 18.2587 113.414 18.212 113.022 18.212C112.312 18.212 111.678 18.408 111.118 18.8C110.576 19.1733 110.147 19.6867 109.83 20.34C109.512 20.9747 109.354 21.6747 109.354 22.44V30H106.33ZM124.703 30V15.72H127.559V17.68H127.727C128.138 16.9893 128.735 16.42 129.519 15.972C130.303 15.5053 131.171 15.272 132.123 15.272C133.187 15.272 134.092 15.524 134.839 16.028C135.586 16.532 136.118 17.1667 136.435 17.932C136.902 17.1853 137.536 16.56 138.339 16.056C139.142 15.5333 140.122 15.272 141.279 15.272C142.959 15.272 144.21 15.7853 145.031 16.812C145.852 17.82 146.263 19.164 146.263 20.844V30H143.267V21.348C143.267 20.2093 143.015 19.3787 142.511 18.856C142.026 18.3147 141.344 18.044 140.467 18.044C139.776 18.044 139.17 18.24 138.647 18.632C138.124 19.0053 137.714 19.5187 137.415 20.172C137.135 20.8253 136.995 21.5533 136.995 22.356V30H133.999V21.348C133.999 20.2093 133.747 19.3787 133.243 18.856C132.739 18.3147 132.03 18.044 131.115 18.044C130.443 18.044 129.855 18.24 129.351 18.632C128.847 19.024 128.446 19.5467 128.147 20.2C127.867 20.8533 127.727 21.5813 127.727 22.384V30H124.703ZM156.492 30.448C155.092 30.448 153.841 30.1213 152.74 29.468C151.639 28.8147 150.771 27.9187 150.136 26.78C149.52 25.6413 149.212 24.344 149.212 22.888C149.212 21.5253 149.511 20.2653 150.108 19.108C150.705 17.9507 151.536 17.0267 152.6 16.336C153.683 15.6267 154.924 15.272 156.324 15.272C157.799 15.272 159.049 15.5893 160.076 16.224C161.121 16.8587 161.915 17.7267 162.456 18.828C162.997 19.9293 163.268 21.1707 163.268 22.552C163.268 22.7573 163.259 22.944 163.24 23.112C163.24 23.28 163.231 23.4107 163.212 23.504H152.18C152.329 24.9227 152.824 25.9867 153.664 26.696C154.523 27.4053 155.493 27.76 156.576 27.76C157.547 27.76 158.349 27.5453 158.984 27.116C159.619 26.668 160.123 26.1173 160.496 25.464L162.988 26.668C162.372 27.788 161.532 28.7027 160.468 29.412C159.404 30.1027 158.079 30.448 156.492 30.448ZM156.352 17.848C155.344 17.848 154.485 18.156 153.776 18.772C153.067 19.388 152.591 20.2093 152.348 21.236H160.272C160.235 20.7507 160.076 20.2467 159.796 19.724C159.516 19.2013 159.087 18.7627 158.508 18.408C157.948 18.0347 157.229 17.848 156.352 17.848ZM172.614 30.448C171.326 30.448 170.159 30.1307 169.114 29.496C168.087 28.8427 167.266 27.9467 166.65 26.808C166.053 25.6507 165.754 24.3347 165.754 22.86C165.754 21.3853 166.053 20.0787 166.65 18.94C167.266 17.8013 168.087 16.9053 169.114 16.252C170.159 15.5987 171.326 15.272 172.614 15.272C173.715 15.272 174.658 15.5147 175.442 16C176.245 16.4853 176.833 17.036 177.206 17.652H177.374L177.206 15.664V9.952H180.202V30H177.374V28.096H177.206C176.833 28.712 176.245 29.2627 175.442 29.748C174.658 30.2147 173.715 30.448 172.614 30.448ZM173.062 27.676C173.809 27.676 174.509 27.48 175.162 27.088C175.834 26.696 176.366 26.1453 176.758 25.436C177.169 24.708 177.374 23.8493 177.374 22.86C177.374 21.8707 177.169 21.0213 176.758 20.312C176.366 19.584 175.834 19.024 175.162 18.632C174.509 18.24 173.809 18.044 173.062 18.044C172.315 18.044 171.615 18.24 170.962 18.632C170.309 19.024 169.777 19.584 169.366 20.312C168.955 21.0213 168.75 21.8707 168.75 22.86C168.75 23.8493 168.955 24.708 169.366 25.436C169.777 26.1453 170.309 26.696 170.962 27.088C171.615 27.48 172.315 27.676 173.062 27.676Z" fill="#3C4043"/>
<g id="GPay Logo (Light)">
<g id="GPay">
<g id="Pay">
<path id="Fill 1" fill-rule="evenodd" clip-rule="evenodd" d="M232.529 9.44664V17.6128H237.565C238.765 17.6128 239.757 17.2096 240.541 16.4032C241.347 15.5988 241.75 14.6394 241.75 13.5288C241.75 12.4406 241.347 11.4924 240.541 10.686C239.757 9.85915 238.765 9.44478 237.565 9.44478H232.529V9.44664ZM232.529 20.4872V29.9599H229.521V6.57217H237.499C239.527 6.57217 241.248 7.24786 242.666 8.59737C244.105 9.94688 244.824 11.5913 244.824 13.5288C244.824 15.511 244.105 17.1667 242.666 18.4938C241.27 19.8227 239.547 20.4854 237.499 20.4854H232.529V20.4872Z" fill="#5F6368"/>
<path id="Fill 3" fill-rule="evenodd" clip-rule="evenodd" d="M247.864 25.0602C247.864 25.8442 248.197 26.4975 248.862 27.0201C249.527 27.5427 250.306 27.804 251.2 27.804C252.465 27.804 253.591 27.3354 254.584 26.4004C255.576 25.4634 256.071 24.364 256.071 23.1022C255.133 22.3612 253.825 21.9916 252.147 21.9916C250.925 21.9916 249.907 22.2865 249.09 22.8745C248.273 23.4623 247.864 24.1886 247.864 25.0602ZM251.756 13.4317C253.98 13.4317 255.735 14.0252 257.022 15.2124C258.308 16.3995 258.95 18.0271 258.95 20.0952V29.9599H256.073V27.7387H255.942C254.699 29.5677 253.042 30.4825 250.972 30.4825C249.206 30.4825 247.728 29.9599 246.541 28.9146C245.353 27.8694 244.759 26.5628 244.759 24.9949C244.759 23.3393 245.385 22.0232 246.638 21.0434C247.892 20.0635 249.565 19.5726 251.658 19.5726C253.444 19.5726 254.916 19.8992 256.071 20.5525V19.8656C256.071 18.8204 255.656 17.9338 254.829 17.204C253.999 16.4741 253.031 16.1102 251.919 16.1102C250.239 16.1102 248.911 16.8176 247.93 18.2343L245.28 16.5675C246.741 14.4769 248.899 13.4317 251.756 13.4317Z" fill="#5F6368"/>
<path id="Fill 5" fill-rule="evenodd" clip-rule="evenodd" d="M275.463 13.9543L265.424 37.0154H262.318L266.046 28.9464L259.44 13.9543H262.71L267.484 25.4522H267.55L272.193 13.9543H275.463Z" fill="#5F6368"/>
</g>
<g id="G">
<path id="Fill 8" fill-rule="evenodd" clip-rule="evenodd" d="M220.373 18.4452C220.373 17.4989 220.293 16.5861 220.141 15.7126H207.454V20.8885H214.72C214.408 22.5757 213.465 24.0112 212.033 24.9725V28.3341H216.37C218.91 25.9935 220.373 22.5348 220.373 18.4452Z" fill="#4285F4"/>
<path id="Fill 10" fill-rule="evenodd" clip-rule="evenodd" d="M207.454 31.5782C211.084 31.5782 214.141 30.3873 216.37 28.3341L212.033 24.9725C210.826 25.7844 209.272 26.2585 207.454 26.2585C203.944 26.2585 200.966 23.8955 199.901 20.7112H195.433V24.1736C197.647 28.5637 202.197 31.5782 207.454 31.5782Z" fill="#34A853"/>
<path id="Fill 12" fill-rule="evenodd" clip-rule="evenodd" d="M199.901 20.7111C199.628 19.8992 199.479 19.0331 199.479 18.139C199.479 17.245 199.628 16.3789 199.901 15.567V12.1045H195.433C194.518 13.9188 194 15.9683 194 18.139C194 20.3098 194.518 22.3595 195.433 24.1736L199.901 20.7111Z" fill="#FABB05"/>
<path id="Fill 14" fill-rule="evenodd" clip-rule="evenodd" d="M207.454 10.0196C209.436 10.0196 211.213 10.7009 212.615 12.0355V12.0374L216.455 8.20162C214.123 6.03271 211.082 4.7 207.454 4.7C202.197 4.7 197.647 7.71446 195.433 12.1046L199.901 15.567C200.966 12.3827 203.944 10.0196 207.454 10.0196Z" fill="#E94235"/>
</g>
</g>
</g>
</g>
</svg>
