<svg width="104" height="17" xmlns="http://www.w3.org/2000/svg">
    <g fill="none" fill-rule="evenodd">
        <path d="M.148 2.976h3.766c.532 0 1.024.117 1.477.35.453.233.814.555 1.085.966.27.41.406.863.406 1.358 0 .495-.124.924-.371 1.288s-.572.64-.973.826v.084c.504.177.912.471 1.225.882.313.41.469.891.469 1.442a2.6 2.6 0 0 1-.427 1.47c-.285.43-.667.763-1.148 1.001A3.5 3.5 0 0 1 4.082 13H.148V2.976zm3.696 4.2c.448 0 .81-.14 1.085-.42.275-.28.413-.602.413-.966s-.133-.684-.399-.959c-.266-.275-.614-.413-1.043-.413H1.716v2.758h2.128zm.238 4.368c.476 0 .856-.15 1.141-.448.285-.299.427-.644.427-1.036 0-.401-.147-.749-.441-1.043-.294-.294-.688-.441-1.183-.441h-2.31v2.968h2.366zm5.379.903c-.453-.518-.679-1.239-.679-2.163V5.86h1.54v4.214c0 .579.138 1.013.413 1.302.275.29.637.434 1.085.434.364 0 .686-.096.966-.287.28-.191.495-.446.644-.763a2.37 2.37 0 0 0 .224-1.022V5.86h1.54V13h-1.456v-.924h-.084c-.196.336-.5.611-.91.826-.41.215-.845.322-1.302.322-.868 0-1.528-.259-1.981-.777zm9.859.161L16.352 5.86h1.722l2.016 4.858h.056l1.96-4.858H23.8l-4.41 10.164h-1.624l1.554-3.416zm8.266-6.748h1.666l1.442 5.11h.056l1.61-5.11h1.582l1.596 5.11h.056l1.442-5.11h1.638L36.392 13h-1.624L33.13 7.876h-.042L31.464 13h-1.596l-2.282-7.14zm12.379-1.337a1 1 0 0 1-.301-.735 1 1 0 0 1 .301-.735 1 1 0 0 1 .735-.301 1 1 0 0 1 .735.301 1 1 0 0 1 .301.735 1 1 0 0 1-.301.735 1 1 0 0 1-.735.301 1 1 0 0 1-.735-.301zM39.93 5.86h1.54V13h-1.54V5.86zm5.568 7.098a1.967 1.967 0 0 1-.686-.406c-.401-.401-.602-.947-.602-1.638V7.218h-1.246V5.86h1.246V3.844h1.54V5.86h1.736v1.358H45.75v3.36c0 .383.075.653.224.812.14.187.383.28.728.28.159 0 .299-.021.42-.063.121-.042.252-.11.392-.203v1.498c-.308.14-.681.21-1.12.21-.317 0-.616-.051-.896-.154zm3.678-9.982h1.54v2.73l-.07 1.092h.07c.205-.336.511-.614.917-.833.406-.22.842-.329 1.309-.329.868 0 1.53.254 1.988.763.457.509.686 1.202.686 2.079V13h-1.54V8.688c0-.541-.142-.947-.427-1.218-.285-.27-.656-.406-1.113-.406-.345 0-.656.098-.931.294a2.042 2.042 0 0 0-.651.777 2.297 2.297 0 0 0-.238 1.029V13h-1.54V2.976zm32.35-.341v4.083h2.518c.6 0 1.096-.202 1.488-.605.403-.402.605-.882.605-1.437 0-.544-.202-1.018-.605-1.422-.392-.413-.888-.62-1.488-.62h-2.518zm0 5.52v4.736h-1.504V1.198h3.99c1.013 0 1.873.337 2.582 1.012.72.675 1.08 1.497 1.08 2.466 0 .991-.36 1.819-1.08 2.482-.697.665-1.559.996-2.583.996h-2.485v.001zm7.668 2.287c0 .392.166.718.499.98.332.26.722.391 1.168.391.633 0 1.196-.234 1.692-.701.497-.469.744-1.019.744-1.65-.469-.37-1.123-.555-1.962-.555-.61 0-1.12.148-1.528.442-.409.294-.613.657-.613 1.093m1.946-5.815c1.112 0 1.989.297 2.633.89.642.594.964 1.408.964 2.442v4.932h-1.439v-1.11h-.065c-.622.914-1.45 1.372-2.486 1.372-.882 0-1.621-.262-2.215-.784-.594-.523-.891-1.176-.891-1.96 0-.828.313-1.486.94-1.976s1.463-.735 2.51-.735c.892 0 1.629.163 2.206.49v-.344c0-.522-.207-.966-.621-1.33a2.132 2.132 0 0 0-1.455-.547c-.84 0-1.504.353-1.995 1.062l-1.324-.834c.73-1.045 1.81-1.568 3.238-1.568m11.853.262l-5.02 11.53H96.42l1.864-4.034-3.302-7.496h1.635l2.387 5.749h.032l2.322-5.75z" fill="#FFF" />
        <path d="M75.448 7.134c0-.473-.04-.93-.116-1.366h-6.344v2.588h3.634a3.11 3.11 0 0 1-1.344 2.042v1.68h2.169c1.27-1.17 2.001-2.9 2.001-4.944" fill="#4285F4" />
        <path d="M68.988 13.7c1.816 0 3.344-.595 4.459-1.621l-2.169-1.681c-.603.406-1.38.643-2.29.643-1.754 0-3.244-1.182-3.776-2.774h-2.234v1.731a6.728 6.728 0 0 0 6.01 3.703" fill="#34A853" />
        <path d="M65.212 8.267a4.034 4.034 0 0 1 0-2.572V3.964h-2.234a6.678 6.678 0 0 0-.717 3.017c0 1.085.26 2.11.717 3.017l2.234-1.731z" fill="#FABB05" />
        <path d="M68.988 2.921c.992 0 1.88.34 2.58 1.008v.001l1.92-1.918c-1.165-1.084-2.685-1.75-4.5-1.75a6.728 6.728 0 0 0-6.01 3.702l2.234 1.731c.532-1.592 2.022-2.774 3.776-2.774" fill="#E94235" />
    </g>
</svg>