<svg width="150" height="21" viewBox="0 0 150 21" fill="none" xmlns="http://www.w3.org/2000/svg">
<g id="pt_add_to_Pay_NBG">
<path id="Left Text" d="M1.07437 15.0006L5.39437 3.54461H7.39437L11.7304 15.0006H9.79437L8.73837 12.0566H4.06637L3.01037 15.0006H1.07437ZM8.14637 10.4246L6.88237 6.92061L6.45037 5.60861H6.35437L5.92237 6.92061L4.65837 10.4246H8.14637ZM16.3866 15.2566C15.6506 15.2566 14.984 15.0699 14.3866 14.6966C13.7893 14.3233 13.32 13.8113 12.9786 13.1606C12.6373 12.5099 12.4666 11.7633 12.4666 10.9206C12.4666 10.0779 12.6373 9.33128 12.9786 8.68061C13.32 8.02994 13.7893 7.51794 14.3866 7.14461C14.984 6.77128 15.6506 6.58461 16.3866 6.58461C16.8133 6.58461 17.1973 6.64861 17.5386 6.77661C17.88 6.90461 18.1733 7.07528 18.4186 7.28861C18.6746 7.49128 18.872 7.70994 19.0106 7.94461H19.1066L19.0106 6.80861V3.54461H20.7226V15.0006H19.1066V13.9126H19.0106C18.872 14.1366 18.6746 14.3553 18.4186 14.5686C18.1733 14.7713 17.88 14.9366 17.5386 15.0646C17.1973 15.1926 16.8133 15.2566 16.3866 15.2566ZM16.6426 13.6726C17.0693 13.6726 17.4693 13.5606 17.8426 13.3366C18.2266 13.1126 18.5306 12.7979 18.7546 12.3926C18.9893 11.9766 19.1066 11.4859 19.1066 10.9206C19.1066 10.3553 18.9893 9.86994 18.7546 9.46461C18.5306 9.04861 18.2266 8.72861 17.8426 8.50461C17.4693 8.28061 17.0693 8.16861 16.6426 8.16861C16.216 8.16861 15.816 8.28061 15.4426 8.50461C15.0693 8.72861 14.7653 9.04861 14.5306 9.46461C14.296 9.86994 14.1786 10.3553 14.1786 10.9206C14.1786 11.4753 14.296 11.9606 14.5306 12.3766C14.7653 12.7926 15.0693 13.1126 15.4426 13.3366C15.816 13.5606 16.216 13.6726 16.6426 13.6726ZM23.036 15.0006V6.84061H24.764V15.0006H23.036ZM23.9 5.64061C23.58 5.64061 23.3027 5.52861 23.068 5.30461C22.844 5.06994 22.732 4.79261 22.732 4.47261C22.732 4.14194 22.844 3.86994 23.068 3.65661C23.3027 3.43261 23.58 3.32061 23.9 3.32061C24.2307 3.32061 24.508 3.43261 24.732 3.65661C24.956 3.86994 25.068 4.14194 25.068 4.47261C25.068 4.79261 24.956 5.06994 24.732 5.30461C24.508 5.52861 24.2307 5.64061 23.9 5.64061ZM30.7559 15.2566C29.9345 15.2566 29.2039 15.0699 28.5639 14.6966C27.9345 14.3233 27.4385 13.8113 27.0759 13.1606C26.7239 12.4993 26.5479 11.7526 26.5479 10.9206C26.5479 10.0886 26.7239 9.34728 27.0759 8.69661C27.4385 8.04594 27.9345 7.53394 28.5639 7.16061C29.2039 6.77661 29.9345 6.58461 30.7559 6.58461C31.6625 6.58461 32.4252 6.78728 33.0439 7.19261C33.6732 7.59794 34.1212 8.14728 34.3879 8.84061L32.8199 9.48061C32.6279 9.04328 32.3505 8.71794 31.9879 8.50461C31.6359 8.28061 31.2145 8.16861 30.7239 8.16861C30.2759 8.16861 29.8652 8.28594 29.4919 8.52061C29.1185 8.74461 28.8199 9.05928 28.5959 9.46461C28.3719 9.86994 28.2599 10.3553 28.2599 10.9206C28.2599 11.4753 28.3719 11.9606 28.5959 12.3766C28.8199 12.7926 29.1185 13.1126 29.4919 13.3366C29.8652 13.5606 30.2759 13.6726 30.7239 13.6726C31.2465 13.6726 31.6892 13.5553 32.0519 13.3206C32.4145 13.0859 32.6972 12.7553 32.8999 12.3286L34.4359 13.0006C34.1372 13.6513 33.6732 14.1899 33.0439 14.6166C32.4252 15.0433 31.6625 15.2566 30.7559 15.2566ZM36.1954 15.0006V6.84061H37.9234V15.0006H36.1954ZM37.0594 5.64061C36.7394 5.64061 36.462 5.52861 36.2274 5.30461C36.0034 5.06994 35.8914 4.79261 35.8914 4.47261C35.8914 4.14194 36.0034 3.86994 36.2274 3.65661C36.462 3.43261 36.7394 3.32061 37.0594 3.32061C37.39 3.32061 37.6674 3.43261 37.8914 3.65661C38.1154 3.86994 38.2274 4.14194 38.2274 4.47261C38.2274 4.79261 38.1154 5.06994 37.8914 5.30461C37.6674 5.52861 37.39 5.64061 37.0594 5.64061ZM43.9792 15.2566C43.1366 15.2566 42.3952 15.0646 41.7552 14.6806C41.1152 14.2966 40.6139 13.7793 40.2512 13.1286C39.8886 12.4673 39.7072 11.7313 39.7072 10.9206C39.7072 10.1099 39.8886 9.37928 40.2512 8.72861C40.6139 8.06728 41.1152 7.54461 41.7552 7.16061C42.3952 6.77661 43.1366 6.58461 43.9792 6.58461C44.8112 6.58461 45.5472 6.78194 46.1872 7.17661C46.8272 7.56061 47.3286 8.07794 47.6912 8.72861C48.0539 9.37928 48.2352 10.1099 48.2352 10.9206C48.2352 11.7313 48.0539 12.4673 47.6912 13.1286C47.3286 13.7793 46.8272 14.2966 46.1872 14.6806C45.5472 15.0646 44.8112 15.2566 43.9792 15.2566ZM43.9792 13.6726C44.4272 13.6726 44.8432 13.5659 45.2272 13.3526C45.6112 13.1286 45.9206 12.8139 46.1552 12.4086C46.4006 11.9926 46.5232 11.4966 46.5232 10.9206C46.5232 10.3446 46.4006 9.85394 46.1552 9.44861C45.9206 9.03261 45.6112 8.71794 45.2272 8.50461C44.8432 8.28061 44.4272 8.16861 43.9792 8.16861C43.5312 8.16861 43.1099 8.28061 42.7152 8.50461C42.3312 8.71794 42.0166 9.03261 41.7712 9.44861C41.5366 9.85394 41.4192 10.3446 41.4192 10.9206C41.4192 11.4966 41.5366 11.9926 41.7712 12.4086C42.0166 12.8139 42.3366 13.1286 42.7312 13.3526C43.1259 13.5659 43.5419 13.6726 43.9792 13.6726ZM49.8205 15.0006V6.84061H51.4525V7.96061H51.5485C51.7832 7.56594 52.1298 7.24061 52.5885 6.98461C53.0578 6.71794 53.5698 6.58461 54.1245 6.58461C55.1272 6.58461 55.8792 6.88328 56.3805 7.48061C56.8818 8.06728 57.1325 8.85661 57.1325 9.84861V15.0006H55.4205V10.0726C55.4205 9.41128 55.2552 8.93128 54.9245 8.63261C54.5938 8.32328 54.1618 8.16861 53.6285 8.16861C53.2125 8.16861 52.8498 8.28594 52.5405 8.52061C52.2312 8.74461 51.9858 9.04328 51.8045 9.41661C51.6338 9.78994 51.5485 10.1899 51.5485 10.6166V15.0006H49.8205ZM61.7336 15.2566C61.147 15.2566 60.6243 15.1393 60.1656 14.9046C59.7176 14.6699 59.3603 14.3499 59.0936 13.9446C58.8376 13.5286 58.7096 13.0539 58.7096 12.5206C58.7096 11.9339 58.859 11.4379 59.1576 11.0326C59.467 10.6273 59.8776 10.3179 60.3896 10.1046C60.9016 9.89128 61.467 9.78461 62.0856 9.78461C62.427 9.78461 62.7416 9.81128 63.0296 9.86461C63.3283 9.90728 63.5843 9.96061 63.7976 10.0246C64.0216 10.0886 64.1976 10.1579 64.3256 10.2326V9.80061C64.3256 9.26728 64.1336 8.84061 63.7496 8.52061C63.3656 8.20061 62.8696 8.04061 62.2616 8.04061C61.8456 8.04061 61.451 8.13661 61.0776 8.32861C60.7043 8.50994 60.4056 8.76061 60.1816 9.08061L58.9976 8.16861C59.2323 7.83794 59.515 7.55528 59.8456 7.32061C60.187 7.08594 60.5656 6.90461 60.9816 6.77661C61.4083 6.64861 61.851 6.58461 62.3096 6.58461C63.4936 6.58461 64.4056 6.87794 65.0456 7.46461C65.6856 8.04061 66.0056 8.85128 66.0056 9.89661V15.0006H64.3256V13.9926H64.2296C64.091 14.2059 63.899 14.4086 63.6536 14.6006C63.419 14.7926 63.1363 14.9473 62.8056 15.0646C62.4856 15.1926 62.1283 15.2566 61.7336 15.2566ZM62.0376 13.8486C62.4856 13.8486 62.8803 13.7419 63.2216 13.5286C63.5736 13.3153 63.8456 13.0379 64.0376 12.6966C64.2296 12.3446 64.3256 11.9659 64.3256 11.5606C64.091 11.4219 63.803 11.3099 63.4616 11.2246C63.131 11.1286 62.779 11.0806 62.4056 11.0806C61.7016 11.0806 61.2003 11.2193 60.9016 11.4966C60.603 11.7739 60.4536 12.1206 60.4536 12.5366C60.4536 12.9206 60.5976 13.2353 60.8856 13.4806C61.1736 13.7259 61.5576 13.8486 62.0376 13.8486ZM68.058 15.0006V6.84061H69.69V8.04061H69.786C69.914 7.76328 70.0953 7.51794 70.33 7.30461C70.5753 7.09128 70.8527 6.92061 71.162 6.79261C71.482 6.66461 71.8127 6.60061 72.154 6.60061C72.378 6.60061 72.5647 6.61661 72.714 6.64861C72.874 6.66994 73.018 6.70728 73.146 6.76061V8.55261C72.9433 8.46728 72.7353 8.39794 72.522 8.34461C72.3193 8.29128 72.106 8.26461 71.882 8.26461C71.4767 8.26461 71.114 8.37661 70.794 8.60061C70.4847 8.81394 70.2393 9.10194 70.058 9.46461C69.8767 9.82728 69.786 10.2326 69.786 10.6806V15.0006H68.058ZM81.0742 15.2566C80.4876 15.2566 79.9649 15.1393 79.5062 14.9046C79.0582 14.6699 78.7009 14.3499 78.4342 13.9446C78.1782 13.5286 78.0502 13.0539 78.0502 12.5206C78.0502 11.9339 78.1996 11.4379 78.4982 11.0326C78.8076 10.6273 79.2182 10.3179 79.7302 10.1046C80.2422 9.89128 80.8076 9.78461 81.4262 9.78461C81.7676 9.78461 82.0822 9.81128 82.3702 9.86461C82.6689 9.90728 82.9249 9.96061 83.1382 10.0246C83.3622 10.0886 83.5382 10.1579 83.6662 10.2326V9.80061C83.6662 9.26728 83.4742 8.84061 83.0902 8.52061C82.7062 8.20061 82.2102 8.04061 81.6022 8.04061C81.1862 8.04061 80.7916 8.13661 80.4182 8.32861C80.0449 8.50994 79.7462 8.76061 79.5222 9.08061L78.3382 8.16861C78.5729 7.83794 78.8556 7.55528 79.1862 7.32061C79.5276 7.08594 79.9062 6.90461 80.3222 6.77661C80.7489 6.64861 81.1916 6.58461 81.6502 6.58461C82.8342 6.58461 83.7462 6.87794 84.3862 7.46461C85.0262 8.04061 85.3462 8.85128 85.3462 9.89661V15.0006H83.6662V13.9926H83.5702C83.4316 14.2059 83.2396 14.4086 82.9942 14.6006C82.7596 14.7926 82.4769 14.9473 82.1462 15.0646C81.8262 15.1926 81.4689 15.2566 81.0742 15.2566ZM81.3782 13.8486C81.8262 13.8486 82.2209 13.7419 82.5622 13.5286C82.9142 13.3153 83.1862 13.0379 83.3782 12.6966C83.5702 12.3446 83.6662 11.9659 83.6662 11.5606C83.4316 11.4219 83.1436 11.3099 82.8022 11.2246C82.4716 11.1286 82.1196 11.0806 81.7462 11.0806C81.0422 11.0806 80.5409 11.2193 80.2422 11.4966C79.9436 11.7739 79.7942 12.1206 79.7942 12.5366C79.7942 12.9206 79.9382 13.2353 80.2262 13.4806C80.5142 13.7259 80.8982 13.8486 81.3782 13.8486ZM91.1605 15.2566C90.3178 15.2566 89.5765 15.0646 88.9365 14.6806C88.2965 14.2966 87.7952 13.7793 87.4325 13.1286C87.0698 12.4673 86.8885 11.7313 86.8885 10.9206C86.8885 10.1099 87.0698 9.37928 87.4325 8.72861C87.7952 8.06728 88.2965 7.54461 88.9365 7.16061C89.5765 6.77661 90.3178 6.58461 91.1605 6.58461C91.9925 6.58461 92.7285 6.78194 93.3685 7.17661C94.0085 7.56061 94.5098 8.07794 94.8725 8.72861C95.2352 9.37928 95.4165 10.1099 95.4165 10.9206C95.4165 11.7313 95.2352 12.4673 94.8725 13.1286C94.5098 13.7793 94.0085 14.2966 93.3685 14.6806C92.7285 15.0646 91.9925 15.2566 91.1605 15.2566ZM91.1605 13.6726C91.6085 13.6726 92.0245 13.5659 92.4085 13.3526C92.7925 13.1286 93.1018 12.8139 93.3365 12.4086C93.5818 11.9926 93.7045 11.4966 93.7045 10.9206C93.7045 10.3446 93.5818 9.85394 93.3365 9.44861C93.1018 9.03261 92.7925 8.71794 92.4085 8.50461C92.0245 8.28061 91.6085 8.16861 91.1605 8.16861C90.7125 8.16861 90.2912 8.28061 89.8965 8.50461C89.5125 8.71794 89.1978 9.03261 88.9525 9.44861C88.7178 9.85394 88.6005 10.3446 88.6005 10.9206C88.6005 11.4966 88.7178 11.9926 88.9525 12.4086C89.1978 12.8139 89.5178 13.1286 89.9125 13.3526C90.3072 13.5659 90.7232 13.6726 91.1605 13.6726Z" fill="white"/>
<g id="GPay (Dark)">
<g id="GPay">
<g id="Pay">
<path id="Fill 1" fill-rule="evenodd" clip-rule="evenodd" d="M124.356 3.42339V8.16175H127.278C127.974 8.16175 128.55 7.92781 129.005 7.45993C129.473 6.99313 129.707 6.43644 129.707 5.79203C129.707 5.16061 129.473 4.61041 129.005 4.14254C128.55 3.66274 127.974 3.4223 127.278 3.4223H124.356V3.42339ZM124.356 9.82966V15.3262H122.611V1.75549H127.24C128.417 1.75549 129.415 2.14756 130.238 2.93061C131.073 3.71365 131.491 4.66782 131.491 5.79203C131.491 6.94224 131.073 7.90291 130.238 8.67296C129.428 9.44409 128.429 9.82858 127.24 9.82858H124.356V9.82966Z" fill="white"/>
<path id="Fill 3" fill-rule="evenodd" clip-rule="evenodd" d="M133.255 12.4831C133.255 12.9379 133.448 13.317 133.834 13.6203C134.22 13.9235 134.672 14.0752 135.19 14.0752C135.924 14.0752 136.578 13.8032 137.153 13.2607C137.729 12.717 138.017 12.0791 138.017 11.3469C137.472 10.917 136.713 10.7025 135.74 10.7025C135.031 10.7025 134.44 10.8736 133.966 11.2148C133.492 11.5559 133.255 11.9773 133.255 12.4831M135.513 5.73566C136.803 5.73566 137.821 6.08007 138.569 6.76889C139.314 7.45771 139.687 8.40213 139.687 9.60216V15.3261H138.018V14.0373H137.942C137.221 15.0985 136.259 15.6294 135.058 15.6294C134.033 15.6294 133.176 15.3261 132.487 14.7196C131.797 14.1131 131.453 13.3549 131.453 12.4452C131.453 11.4845 131.816 10.7208 132.543 10.1523C133.271 9.58375 134.241 9.2989 135.456 9.2989C136.492 9.2989 137.346 9.48844 138.017 9.86751V9.46894C138.017 8.86243 137.776 8.34798 137.296 7.92451C136.814 7.50103 136.252 7.28984 135.607 7.28984C134.633 7.28984 133.862 7.70032 133.293 8.52235L131.755 7.55519C132.603 6.34217 133.855 5.73566 135.513 5.73566" fill="white"/>
<path id="Fill 5" fill-rule="evenodd" clip-rule="evenodd" d="M149.269 6.03894L143.443 19.4201H141.641L143.804 14.738L139.971 6.03894H141.869L144.639 12.7106H144.677L147.371 6.03894H149.269Z" fill="white"/>
</g>
<g id="G">
<path id="Fill 8" fill-rule="evenodd" clip-rule="evenodd" d="M117.303 8.64473C117.303 8.09563 117.256 7.56601 117.168 7.05914H109.806V10.0625H114.023C113.842 11.0414 113.294 11.8744 112.464 12.4322V14.3828H114.98C116.454 13.0246 117.303 11.0177 117.303 8.64473" fill="#4285F4"/>
<path id="Fill 10" fill-rule="evenodd" clip-rule="evenodd" d="M109.806 16.2651C111.913 16.2651 113.687 15.5741 114.98 14.3828L112.464 12.4322C111.763 12.9033 110.861 13.1784 109.806 13.1784C107.77 13.1784 106.042 11.8073 105.424 9.95959H102.832V11.9687C104.116 14.516 106.757 16.2651 109.806 16.2651" fill="#34A853"/>
<path id="Fill 12" fill-rule="evenodd" clip-rule="evenodd" d="M105.424 9.9596C105.266 9.48847 105.179 8.98593 105.179 8.46715C105.179 7.94837 105.266 7.44583 105.424 6.9747V4.96564H102.832C102.3 6.01837 102 7.20756 102 8.46715C102 9.72674 102.3 10.916 102.832 11.9687L105.424 9.9596Z" fill="#FABB05"/>
<path id="Fill 14" fill-rule="evenodd" clip-rule="evenodd" d="M109.806 3.75583C110.957 3.75583 111.988 4.15115 112.801 4.92553V4.92661L115.029 2.70094C113.676 1.44243 111.912 0.669128 109.806 0.669128C106.757 0.669128 104.116 2.41826 102.832 4.9656L105.424 6.97467C106.042 5.12698 107.77 3.75583 109.806 3.75583" fill="#E94235"/>
</g>
</g>
</g>
</g>
</svg>
