<svg width="302" height="38" viewBox="0 0 302 38" fill="none" xmlns="http://www.w3.org/2000/svg">
<g id="pt_book_with_Light">
<path id="Text" d="M2.95785 30V9.952H9.98585C11.2179 9.952 12.3192 10.2133 13.2899 10.736C14.2605 11.2587 15.0259 11.9867 15.5859 12.92C16.1645 13.8347 16.4539 14.8893 16.4539 16.084C16.4539 17.3907 16.0432 18.576 15.2219 19.64C14.4192 20.6853 13.2805 21.4133 11.8059 21.824L17.3779 29.832V30H13.8219L8.47385 22.132H6.03785V30H2.95785ZM10.0138 12.836H6.03785V19.304H9.90185C10.8539 19.304 11.6659 19.0053 12.3379 18.408C13.0099 17.792 13.3459 17.008 13.3459 16.056C13.3459 15.5147 13.2152 15.0013 12.9539 14.516C12.6925 14.012 12.3099 13.6107 11.8059 13.312C11.3205 12.9947 10.7232 12.836 10.0138 12.836ZM26.0943 30.448C24.6943 30.448 23.4436 30.1213 22.3423 29.468C21.2409 28.8147 20.3729 27.9187 19.7383 26.78C19.1223 25.6413 18.8143 24.344 18.8143 22.888C18.8143 21.5253 19.1129 20.2653 19.7103 19.108C20.3076 17.9507 21.1383 17.0267 22.2023 16.336C23.2849 15.6267 24.5263 15.272 25.9263 15.272C27.4009 15.272 28.6516 15.5893 29.6783 16.224C30.7236 16.8587 31.5169 17.7267 32.0583 18.828C32.5996 19.9293 32.8703 21.1707 32.8703 22.552C32.8703 22.7573 32.8609 22.944 32.8423 23.112C32.8423 23.28 32.8329 23.4107 32.8143 23.504H21.7823C21.9316 24.9227 22.4263 25.9867 23.2663 26.696C24.1249 27.4053 25.0956 27.76 26.1783 27.76C27.1489 27.76 27.9516 27.5453 28.5863 27.116C29.2209 26.668 29.7249 26.1173 30.0983 25.464L32.5903 26.668C31.9743 27.788 31.1343 28.7027 30.0703 29.412C29.0063 30.1027 27.6809 30.448 26.0943 30.448ZM25.9543 17.848C24.9463 17.848 24.0876 18.156 23.3783 18.772C22.6689 19.388 22.1929 20.2093 21.9503 21.236H29.8743C29.8369 20.7507 29.6783 20.2467 29.3983 19.724C29.1183 19.2013 28.6889 18.7627 28.1103 18.408C27.5503 18.0347 26.8316 17.848 25.9543 17.848ZM41.3204 30.448C39.6031 30.448 38.2311 30.0747 37.2044 29.328C36.1778 28.5627 35.4684 27.6573 35.0764 26.612L37.7924 25.436C38.1284 26.2013 38.6138 26.7893 39.2484 27.2C39.8831 27.592 40.6018 27.788 41.4044 27.788C42.1511 27.788 42.7951 27.6573 43.3364 27.396C43.8778 27.116 44.1484 26.668 44.1484 26.052C44.1484 25.4547 43.8778 25.016 43.3364 24.736C42.7951 24.456 42.1231 24.2133 41.3204 24.008L39.6124 23.616C38.9218 23.448 38.2778 23.1867 37.6804 22.832C37.0831 22.4773 36.5978 22.02 36.2244 21.46C35.8511 20.8813 35.6644 20.2093 35.6644 19.444C35.6644 18.604 35.9164 17.876 36.4204 17.26C36.9244 16.6253 37.5871 16.14 38.4084 15.804C39.2484 15.4493 40.1538 15.272 41.1244 15.272C42.4498 15.272 43.6071 15.5333 44.5964 16.056C45.6044 16.56 46.3418 17.3253 46.8084 18.352L44.2044 19.528C43.8684 18.8933 43.4298 18.4547 42.8884 18.212C42.3658 17.9507 41.7871 17.82 41.1524 17.82C40.4431 17.82 39.8458 17.9693 39.3604 18.268C38.8938 18.5667 38.6604 18.94 38.6604 19.388C38.6604 19.8733 38.8658 20.256 39.2764 20.536C39.7058 20.816 40.2284 21.04 40.8444 21.208L42.9164 21.712C44.3351 22.0667 45.3991 22.608 46.1084 23.336C46.8178 24.0453 47.1724 24.9133 47.1724 25.94C47.1724 26.8547 46.9111 27.6573 46.3884 28.348C45.8658 29.02 45.1564 29.5427 44.2604 29.916C43.3831 30.2707 42.4031 30.448 41.3204 30.448ZM56.7724 30.448C55.3724 30.448 54.1217 30.1213 53.0204 29.468C51.919 28.8147 51.051 27.9187 50.4164 26.78C49.8004 25.6413 49.4924 24.344 49.4924 22.888C49.4924 21.5253 49.791 20.2653 50.3884 19.108C50.9857 17.9507 51.8164 17.0267 52.8804 16.336C53.963 15.6267 55.2044 15.272 56.6044 15.272C58.079 15.272 59.3297 15.5893 60.3564 16.224C61.4017 16.8587 62.195 17.7267 62.7364 18.828C63.2777 19.9293 63.5484 21.1707 63.5484 22.552C63.5484 22.7573 63.5391 22.944 63.5204 23.112C63.5204 23.28 63.511 23.4107 63.4924 23.504H52.4604C52.6097 24.9227 53.1044 25.9867 53.9444 26.696C54.803 27.4053 55.7737 27.76 56.8564 27.76C57.827 27.76 58.6297 27.5453 59.2644 27.116C59.8991 26.668 60.403 26.1173 60.7764 25.464L63.2684 26.668C62.6524 27.788 61.8124 28.7027 60.7484 29.412C59.6844 30.1027 58.359 30.448 56.7724 30.448ZM56.6324 17.848C55.6244 17.848 54.7657 18.156 54.0564 18.772C53.347 19.388 52.871 20.2093 52.6284 21.236H60.5524C60.515 20.7507 60.3564 20.2467 60.0764 19.724C59.7964 19.2013 59.367 18.7627 58.7884 18.408C58.2284 18.0347 57.5097 17.848 56.6324 17.848ZM66.6538 30V15.72H69.5098V17.82H69.6778C69.9952 17.092 70.5365 16.4947 71.3018 16.028C72.0858 15.5427 72.9258 15.3 73.8218 15.3C74.2138 15.3 74.5405 15.328 74.8018 15.384C75.0818 15.44 75.3338 15.5053 75.5578 15.58V18.716C75.2032 18.5667 74.8392 18.4453 74.4658 18.352C74.1112 18.2587 73.7378 18.212 73.3458 18.212C72.6365 18.212 72.0018 18.408 71.4418 18.8C70.9005 19.1733 70.4712 19.6867 70.1538 20.34C69.8365 20.9747 69.6778 21.6747 69.6778 22.44V30H66.6538ZM82.997 30L77.089 15.72H80.449L84.453 26.108H84.593L88.681 15.72H91.985L86.021 30H82.997ZM98.4487 30.448C97.422 30.448 96.5074 30.252 95.7047 29.86C94.902 29.4493 94.2767 28.88 93.8287 28.152C93.3807 27.424 93.1567 26.5933 93.1567 25.66C93.1567 24.652 93.418 23.7933 93.9407 23.084C94.482 22.356 95.2007 21.8053 96.0967 21.432C96.9927 21.0587 97.982 20.872 99.0647 20.872C99.9607 20.872 100.745 20.956 101.417 21.124C102.107 21.292 102.63 21.4693 102.985 21.656V20.9C102.985 19.9667 102.649 19.22 101.977 18.66C101.305 18.1 100.437 17.82 99.3727 17.82C98.6447 17.82 97.954 17.988 97.3007 18.324C96.6474 18.6413 96.1247 19.08 95.7327 19.64L93.6607 18.044C94.2767 17.1853 95.0887 16.5133 96.0967 16.028C97.1234 15.524 98.2434 15.272 99.4567 15.272C101.529 15.272 103.125 15.7853 104.245 16.812C105.365 17.82 105.925 19.2387 105.925 21.068V30H102.985V28.236H102.817C102.443 28.8147 101.883 29.328 101.137 29.776C100.39 30.224 99.494 30.448 98.4487 30.448ZM98.9807 27.984C99.7647 27.984 100.455 27.7973 101.053 27.424C101.65 27.0507 102.117 26.5653 102.453 25.968C102.807 25.352 102.985 24.6893 102.985 23.98C102.555 23.7373 102.051 23.5413 101.473 23.392C100.894 23.224 100.278 23.14 99.6247 23.14C98.3927 23.14 97.5154 23.392 96.9927 23.896C96.47 24.3813 96.2087 24.9787 96.2087 25.688C96.2087 26.36 96.4607 26.9107 96.9647 27.34C97.4687 27.7693 98.1407 27.984 98.9807 27.984ZM109.554 30V15.72H112.41V17.82H112.578C112.895 17.092 113.437 16.4947 114.202 16.028C114.986 15.5427 115.826 15.3 116.722 15.3C117.114 15.3 117.441 15.328 117.702 15.384C117.982 15.44 118.234 15.5053 118.458 15.58V18.716C118.103 18.5667 117.739 18.4453 117.366 18.352C117.011 18.2587 116.638 18.212 116.246 18.212C115.537 18.212 114.902 18.408 114.342 18.8C113.801 19.1733 113.371 19.6867 113.054 20.34C112.737 20.9747 112.578 21.6747 112.578 22.44V30H109.554ZM134.535 30.448C133.098 30.448 131.829 30.1213 130.727 29.468C129.626 28.8147 128.758 27.9187 128.123 26.78C127.489 25.6227 127.171 24.316 127.171 22.86C127.171 21.404 127.489 20.1067 128.123 18.968C128.758 17.8107 129.626 16.9053 130.727 16.252C131.829 15.5987 133.098 15.272 134.535 15.272C136.122 15.272 137.457 15.6267 138.539 16.336C139.641 17.0453 140.425 18.0067 140.891 19.22L138.147 20.34C137.494 18.8093 136.271 18.044 134.479 18.044C133.695 18.044 132.977 18.2493 132.323 18.66C131.67 19.052 131.147 19.612 130.755 20.34C130.363 21.0493 130.167 21.8893 130.167 22.86C130.167 23.8307 130.363 24.68 130.755 25.408C131.147 26.136 131.67 26.696 132.323 27.088C132.977 27.48 133.695 27.676 134.479 27.676C135.394 27.676 136.169 27.4707 136.803 27.06C137.438 26.6307 137.933 26.052 138.287 25.324L140.975 26.5C140.471 27.6387 139.669 28.5813 138.567 29.328C137.466 30.0747 136.122 30.448 134.535 30.448ZM150.451 30.448C148.977 30.448 147.679 30.112 146.559 29.44C145.439 28.768 144.562 27.8627 143.927 26.724C143.293 25.5853 142.975 24.2973 142.975 22.86C142.975 21.4413 143.293 20.1627 143.927 19.024C144.562 17.8667 145.439 16.952 146.559 16.28C147.679 15.608 148.977 15.272 150.451 15.272C151.907 15.272 153.195 15.608 154.315 16.28C155.435 16.952 156.313 17.8667 156.947 19.024C157.582 20.1627 157.899 21.4413 157.899 22.86C157.899 24.2973 157.582 25.5853 156.947 26.724C156.313 27.8627 155.435 28.768 154.315 29.44C153.195 30.112 151.907 30.448 150.451 30.448ZM150.451 27.676C151.235 27.676 151.963 27.4893 152.635 27.116C153.307 26.724 153.849 26.1733 154.259 25.464C154.689 24.736 154.903 23.868 154.903 22.86C154.903 21.852 154.689 20.9933 154.259 20.284C153.849 19.556 153.307 19.0053 152.635 18.632C151.963 18.24 151.235 18.044 150.451 18.044C149.667 18.044 148.93 18.24 148.239 18.632C147.567 19.0053 147.017 19.556 146.587 20.284C146.177 20.9933 145.971 21.852 145.971 22.86C145.971 23.868 146.177 24.736 146.587 25.464C147.017 26.1733 147.567 26.724 148.239 27.116C148.93 27.4893 149.667 27.676 150.451 27.676ZM160.711 30V15.72H163.567V17.68H163.735C164.146 16.9893 164.743 16.42 165.527 15.972C166.311 15.5053 167.179 15.272 168.131 15.272C169.195 15.272 170.1 15.524 170.847 16.028C171.594 16.532 172.126 17.1667 172.443 17.932C172.91 17.1853 173.544 16.56 174.347 16.056C175.15 15.5333 176.13 15.272 177.287 15.272C178.967 15.272 180.218 15.7853 181.039 16.812C181.86 17.82 182.271 19.164 182.271 20.844V30H179.275V21.348C179.275 20.2093 179.023 19.3787 178.519 18.856C178.034 18.3147 177.352 18.044 176.475 18.044C175.784 18.044 175.178 18.24 174.655 18.632C174.132 19.0053 173.722 19.5187 173.423 20.172C173.143 20.8253 173.003 21.5533 173.003 22.356V30H170.007V21.348C170.007 20.2093 169.755 19.3787 169.251 18.856C168.747 18.3147 168.038 18.044 167.123 18.044C166.451 18.044 165.863 18.24 165.359 18.632C164.855 19.024 164.454 19.5467 164.155 20.2C163.875 20.8533 163.735 21.5813 163.735 22.384V30H160.711ZM199.531 30.448C198.056 30.448 196.759 30.112 195.639 29.44C194.519 28.768 193.642 27.8627 193.007 26.724C192.372 25.5853 192.055 24.2973 192.055 22.86C192.055 21.4413 192.372 20.1627 193.007 19.024C193.642 17.8667 194.519 16.952 195.639 16.28C196.759 15.608 198.056 15.272 199.531 15.272C200.987 15.272 202.275 15.608 203.395 16.28C204.515 16.952 205.392 17.8667 206.027 19.024C206.662 20.1627 206.979 21.4413 206.979 22.86C206.979 24.2973 206.662 25.5853 206.027 26.724C205.392 27.8627 204.515 28.768 203.395 29.44C202.275 30.112 200.987 30.448 199.531 30.448ZM199.531 27.676C200.315 27.676 201.043 27.4893 201.715 27.116C202.387 26.724 202.928 26.1733 203.339 25.464C203.768 24.736 203.983 23.868 203.983 22.86C203.983 21.852 203.768 20.9933 203.339 20.284C202.928 19.556 202.387 19.0053 201.715 18.632C201.043 18.24 200.315 18.044 199.531 18.044C198.747 18.044 198.01 18.24 197.319 18.632C196.647 19.0053 196.096 19.556 195.667 20.284C195.256 20.9933 195.051 21.852 195.051 22.86C195.051 23.868 195.256 24.736 195.667 25.464C196.096 26.1733 196.647 26.724 197.319 27.116C198.01 27.4893 198.747 27.676 199.531 27.676Z" fill="#3C4043"/>
<g id="GPay Logo (Light)">
<g id="GPay">
<g id="Pay">
<path id="Fill 1" fill-rule="evenodd" clip-rule="evenodd" d="M258.529 9.44664V17.6128H263.565C264.765 17.6128 265.757 17.2096 266.541 16.4032C267.347 15.5988 267.75 14.6394 267.75 13.5288C267.75 12.4406 267.347 11.4924 266.541 10.686C265.757 9.85915 264.765 9.44478 263.565 9.44478H258.529V9.44664ZM258.529 20.4872V29.9599H255.521V6.57217H263.499C265.527 6.57217 267.248 7.24786 268.666 8.59737C270.105 9.94688 270.824 11.5913 270.824 13.5288C270.824 15.511 270.105 17.1667 268.666 18.4938C267.27 19.8227 265.547 20.4854 263.499 20.4854H258.529V20.4872Z" fill="#5F6368"/>
<path id="Fill 3" fill-rule="evenodd" clip-rule="evenodd" d="M273.864 25.0602C273.864 25.8442 274.197 26.4975 274.862 27.0201C275.527 27.5427 276.306 27.804 277.2 27.804C278.465 27.804 279.591 27.3354 280.584 26.4004C281.576 25.4634 282.071 24.364 282.071 23.1022C281.133 22.3612 279.825 21.9916 278.147 21.9916C276.925 21.9916 275.907 22.2865 275.09 22.8745C274.273 23.4623 273.864 24.1886 273.864 25.0602ZM277.756 13.4317C279.98 13.4317 281.735 14.0252 283.022 15.2124C284.308 16.3995 284.95 18.0271 284.95 20.0952V29.9599H282.073V27.7387H281.942C280.699 29.5677 279.042 30.4825 276.972 30.4825C275.206 30.4825 273.728 29.9599 272.541 28.9146C271.353 27.8694 270.759 26.5628 270.759 24.9949C270.759 23.3393 271.385 22.0232 272.638 21.0434C273.892 20.0635 275.565 19.5726 277.658 19.5726C279.444 19.5726 280.916 19.8992 282.071 20.5525V19.8656C282.071 18.8204 281.656 17.9338 280.829 17.204C279.999 16.4741 279.031 16.1102 277.919 16.1102C276.239 16.1102 274.911 16.8176 273.93 18.2343L271.28 16.5675C272.741 14.4769 274.899 13.4317 277.756 13.4317Z" fill="#5F6368"/>
<path id="Fill 5" fill-rule="evenodd" clip-rule="evenodd" d="M301.463 13.9543L291.424 37.0154H288.318L292.046 28.9464L285.44 13.9543H288.71L293.484 25.4522H293.55L298.193 13.9543H301.463Z" fill="#5F6368"/>
</g>
<g id="G">
<path id="Fill 8" fill-rule="evenodd" clip-rule="evenodd" d="M246.373 18.4452C246.373 17.4989 246.293 16.5861 246.141 15.7126H233.454V20.8885H240.72C240.408 22.5757 239.465 24.0112 238.033 24.9725V28.3341H242.37C244.91 25.9935 246.373 22.5348 246.373 18.4452Z" fill="#4285F4"/>
<path id="Fill 10" fill-rule="evenodd" clip-rule="evenodd" d="M233.454 31.5782C237.084 31.5782 240.141 30.3873 242.37 28.3341L238.033 24.9725C236.826 25.7844 235.272 26.2585 233.454 26.2585C229.944 26.2585 226.966 23.8955 225.901 20.7112H221.433V24.1736C223.647 28.5637 228.197 31.5782 233.454 31.5782Z" fill="#34A853"/>
<path id="Fill 12" fill-rule="evenodd" clip-rule="evenodd" d="M225.901 20.7111C225.628 19.8992 225.479 19.0331 225.479 18.139C225.479 17.245 225.628 16.3789 225.901 15.567V12.1045H221.433C220.518 13.9188 220 15.9683 220 18.139C220 20.3098 220.518 22.3595 221.433 24.1736L225.901 20.7111Z" fill="#FABB05"/>
<path id="Fill 14" fill-rule="evenodd" clip-rule="evenodd" d="M233.454 10.0196C235.436 10.0196 237.213 10.7009 238.615 12.0355V12.0374L242.455 8.20162C240.123 6.03271 237.082 4.7 233.454 4.7C228.197 4.7 223.647 7.71446 221.433 12.1046L225.901 15.567C226.966 12.3827 229.944 10.0196 233.454 10.0196Z" fill="#E94235"/>
</g>
</g>
</g>
</g>
</svg>
