<svg width="173" height="21" viewBox="0 0 173 21" fill="none" xmlns="http://www.w3.org/2000/svg">
<g id="pt_book_with_Pay_NBG">
<path id="Left Text" d="M2.11163 15.0006V3.54461H6.12763C6.83163 3.54461 7.46096 3.69394 8.01563 3.99261C8.5703 4.29128 9.00763 4.70194 9.32763 5.22461C9.65829 5.74728 9.82363 6.35528 9.82363 7.04861C9.82363 7.50728 9.72763 7.94461 9.53563 8.36061C9.35429 8.77661 9.08763 9.14994 8.73563 9.48061C8.3943 9.80061 7.9783 10.0513 7.48763 10.2326C7.39163 10.2753 7.2903 10.3073 7.18363 10.3286L10.3516 14.9046V15.0006H8.31963L5.26363 10.5046H3.87163V15.0006H2.11163ZM3.87163 8.88861H6.07963C6.44229 8.88861 6.76763 8.80861 7.05563 8.64861C7.35429 8.48861 7.5943 8.26994 7.77563 7.99261C7.95696 7.70461 8.04763 7.38461 8.04763 7.03261C8.04763 6.72328 7.97296 6.42994 7.82363 6.15261C7.6743 5.86461 7.45563 5.63528 7.16763 5.46461C6.8903 5.28328 6.54896 5.19261 6.14363 5.19261H3.87163V8.88861ZM15.311 15.2566C14.511 15.2566 13.7963 15.0699 13.167 14.6966C12.5377 14.3233 12.0417 13.8113 11.679 13.1606C11.327 12.5099 11.151 11.7686 11.151 10.9366C11.151 10.1579 11.3217 9.43794 11.663 8.77661C12.0043 8.11528 12.479 7.58728 13.087 7.19261C13.7057 6.78728 14.415 6.58461 15.215 6.58461C16.0577 6.58461 16.7723 6.76594 17.359 7.12861C17.9563 7.49128 18.4097 7.98728 18.719 8.61661C19.0283 9.24594 19.183 9.95528 19.183 10.7446C19.183 10.8619 19.1777 10.9686 19.167 11.0646C19.167 11.1606 19.1617 11.2353 19.151 11.2886H12.847C12.8897 11.7366 13.0017 12.1259 13.183 12.4566C13.4177 12.8726 13.727 13.1873 14.111 13.4006C14.495 13.6139 14.911 13.7206 15.359 13.7206C15.903 13.7206 16.3563 13.5979 16.719 13.3526C17.0923 13.0966 17.3857 12.7819 17.599 12.4086L19.023 13.0966C18.671 13.7366 18.191 14.2593 17.583 14.6646C16.975 15.0593 16.2177 15.2566 15.311 15.2566ZM12.943 9.99261H17.471C17.4603 9.78994 17.407 9.57661 17.311 9.35261C17.215 9.11794 17.0763 8.90461 16.895 8.71261C16.7137 8.52061 16.4843 8.36594 16.207 8.24861C15.9297 8.12061 15.6043 8.05661 15.231 8.05661C14.7617 8.05661 14.3457 8.17928 13.983 8.42461C13.6203 8.65928 13.3377 8.98994 13.135 9.41661C13.0497 9.59794 12.9857 9.78994 12.943 9.99261ZM23.9903 15.2566C23.3396 15.2566 22.7743 15.1606 22.2943 14.9686C21.8143 14.7659 21.4196 14.4993 21.1103 14.1686C20.8009 13.8273 20.5716 13.4593 20.4223 13.0646L21.9743 12.3926C22.1663 12.8299 22.4383 13.1659 22.7903 13.4006C23.1529 13.6246 23.5689 13.7366 24.0383 13.7366C24.4649 13.7366 24.8329 13.6619 25.1423 13.5126C25.4516 13.3526 25.6063 13.0966 25.6063 12.7446C25.6063 12.5206 25.5316 12.3393 25.3823 12.2006C25.2436 12.0513 25.0516 11.9286 24.8063 11.8326C24.5716 11.7366 24.2996 11.6513 23.9903 11.5766L23.0143 11.3526C22.6303 11.2566 22.2623 11.1073 21.9103 10.9046C21.5689 10.6913 21.2916 10.4246 21.0783 10.1046C20.8649 9.78461 20.7583 9.40594 20.7583 8.96861C20.7583 8.47794 20.8969 8.05661 21.1743 7.70461C21.4623 7.34194 21.8463 7.06461 22.3263 6.87261C22.8063 6.68061 23.3236 6.58461 23.8783 6.58461C24.3903 6.58461 24.8543 6.65394 25.2703 6.79261C25.6969 6.92061 26.0649 7.11794 26.3743 7.38461C26.6943 7.64061 26.9449 7.96061 27.1263 8.34461L25.6383 9.01661C25.4569 8.65394 25.2116 8.40328 24.9023 8.26461C24.5929 8.11528 24.2569 8.04061 23.8943 8.04061C23.4889 8.04061 23.1476 8.12594 22.8703 8.29661C22.6036 8.45661 22.4703 8.66994 22.4703 8.93661C22.4703 9.21394 22.5876 9.43261 22.8223 9.59261C23.0676 9.75261 23.3663 9.88061 23.7183 9.97661L24.9023 10.2646C25.7129 10.4673 26.3209 10.7766 26.7263 11.1926C27.1316 11.5979 27.3343 12.0939 27.3343 12.6806C27.3343 13.2033 27.1849 13.6619 26.8863 14.0566C26.5876 14.4406 26.1823 14.7393 25.6703 14.9526C25.1689 15.1553 24.6089 15.2566 23.9903 15.2566ZM32.7985 15.2566C31.9985 15.2566 31.2838 15.0699 30.6545 14.6966C30.0252 14.3233 29.5292 13.8113 29.1665 13.1606C28.8145 12.5099 28.6385 11.7686 28.6385 10.9366C28.6385 10.1579 28.8092 9.43794 29.1505 8.77661C29.4918 8.11528 29.9665 7.58728 30.5745 7.19261C31.1932 6.78728 31.9025 6.58461 32.7025 6.58461C33.5452 6.58461 34.2598 6.76594 34.8465 7.12861C35.4438 7.49128 35.8972 7.98728 36.2065 8.61661C36.5158 9.24594 36.6705 9.95528 36.6705 10.7446C36.6705 10.8619 36.6652 10.9686 36.6545 11.0646C36.6545 11.1606 36.6492 11.2353 36.6385 11.2886H30.3345C30.3772 11.7366 30.4892 12.1259 30.6705 12.4566C30.9052 12.8726 31.2145 13.1873 31.5985 13.4006C31.9825 13.6139 32.3985 13.7206 32.8465 13.7206C33.3905 13.7206 33.8438 13.5979 34.2065 13.3526C34.5798 13.0966 34.8732 12.7819 35.0865 12.4086L36.5105 13.0966C36.1585 13.7366 35.6785 14.2593 35.0705 14.6646C34.4625 15.0593 33.7052 15.2566 32.7985 15.2566ZM30.4305 9.99261H34.9585C34.9478 9.78994 34.8945 9.57661 34.7985 9.35261C34.7025 9.11794 34.5638 8.90461 34.3825 8.71261C34.2012 8.52061 33.9718 8.36594 33.6945 8.24861C33.4172 8.12061 33.0918 8.05661 32.7185 8.05661C32.2492 8.05661 31.8332 8.17928 31.4705 8.42461C31.1078 8.65928 30.8252 8.98994 30.6225 9.41661C30.5372 9.59794 30.4732 9.78994 30.4305 9.99261ZM38.4236 15.0006V6.84061H40.0556V8.04061H40.1516C40.2796 7.76328 40.461 7.51794 40.6956 7.30461C40.941 7.09128 41.2183 6.92061 41.5276 6.79261C41.8476 6.66461 42.1783 6.60061 42.5196 6.60061C42.7436 6.60061 42.9303 6.61661 43.0796 6.64861C43.2396 6.66994 43.3836 6.70728 43.5116 6.76061V8.55261C43.309 8.46728 43.101 8.39794 42.8876 8.34461C42.685 8.29128 42.4716 8.26461 42.2476 8.26461C41.8423 8.26461 41.4796 8.37661 41.1596 8.60061C40.8503 8.81394 40.605 9.10194 40.4236 9.46461C40.2423 9.82728 40.1516 10.2326 40.1516 10.6806V15.0006H38.4236ZM47.7411 15.0006L44.3651 6.84061H46.2851L48.5731 12.7766H48.6531L50.9891 6.84061H52.8771L49.4691 15.0006H47.7411ZM56.5493 15.2566C55.9626 15.2566 55.4399 15.1393 54.9813 14.9046C54.5333 14.6699 54.1759 14.3499 53.9093 13.9446C53.6533 13.5286 53.5253 13.0539 53.5253 12.5206C53.5253 11.9339 53.6746 11.4379 53.9733 11.0326C54.2826 10.6273 54.6933 10.3179 55.2053 10.1046C55.7173 9.89128 56.2826 9.78461 56.9013 9.78461C57.2426 9.78461 57.5573 9.81128 57.8453 9.86461C58.1439 9.90728 58.3999 9.96061 58.6133 10.0246C58.8373 10.0886 59.0133 10.1579 59.1413 10.2326V9.80061C59.1413 9.26728 58.9493 8.84061 58.5653 8.52061C58.1813 8.20061 57.6853 8.04061 57.0773 8.04061C56.6613 8.04061 56.2666 8.13661 55.8933 8.32861C55.5199 8.50994 55.2213 8.76061 54.9973 9.08061L53.8133 8.16861C54.0479 7.83794 54.3306 7.55528 54.6613 7.32061C55.0026 7.08594 55.3813 6.90461 55.7973 6.77661C56.2239 6.64861 56.6666 6.58461 57.1253 6.58461C58.3093 6.58461 59.2213 6.87794 59.8613 7.46461C60.5013 8.04061 60.8213 8.85128 60.8213 9.89661V15.0006H59.1413V13.9926H59.0453C58.9066 14.2059 58.7146 14.4086 58.4693 14.6006C58.2346 14.7926 57.9519 14.9473 57.6213 15.0646C57.3013 15.1926 56.9439 15.2566 56.5493 15.2566ZM56.8533 13.8486C57.3013 13.8486 57.6959 13.7419 58.0373 13.5286C58.3893 13.3153 58.6613 13.0379 58.8533 12.6966C59.0453 12.3446 59.1413 11.9659 59.1413 11.5606C58.9066 11.4219 58.6186 11.3099 58.2773 11.2246C57.9466 11.1286 57.5946 11.0806 57.2213 11.0806C56.5173 11.0806 56.0159 11.2193 55.7173 11.4966C55.4186 11.7739 55.2693 12.1206 55.2693 12.5366C55.2693 12.9206 55.4133 13.2353 55.7013 13.4806C55.9893 13.7259 56.3733 13.8486 56.8533 13.8486ZM62.8736 15.0006V6.84061H64.5056V8.04061H64.6016C64.7296 7.76328 64.911 7.51794 65.1456 7.30461C65.391 7.09128 65.6683 6.92061 65.9776 6.79261C66.2976 6.66461 66.6283 6.60061 66.9696 6.60061C67.1936 6.60061 67.3803 6.61661 67.5296 6.64861C67.6896 6.66994 67.8336 6.70728 67.9616 6.76061V8.55261C67.759 8.46728 67.551 8.39794 67.3376 8.34461C67.135 8.29128 66.9216 8.26461 66.6976 8.26461C66.2923 8.26461 65.9296 8.37661 65.6096 8.60061C65.3003 8.81394 65.055 9.10194 64.8736 9.46461C64.6923 9.82728 64.6016 10.2326 64.6016 10.6806V15.0006H62.8736ZM77.1059 15.2566C76.2845 15.2566 75.5539 15.0699 74.9139 14.6966C74.2845 14.3233 73.7885 13.8113 73.4259 13.1606C73.0739 12.4993 72.8979 11.7526 72.8979 10.9206C72.8979 10.0886 73.0739 9.34728 73.4259 8.69661C73.7885 8.04594 74.2845 7.53394 74.9139 7.16061C75.5539 6.77661 76.2845 6.58461 77.1059 6.58461C78.0125 6.58461 78.7752 6.78728 79.3939 7.19261C80.0232 7.59794 80.4712 8.14728 80.7379 8.84061L79.1699 9.48061C78.9779 9.04328 78.7005 8.71794 78.3379 8.50461C77.9859 8.28061 77.5645 8.16861 77.0739 8.16861C76.6259 8.16861 76.2152 8.28594 75.8419 8.52061C75.4685 8.74461 75.1699 9.05928 74.9459 9.46461C74.7219 9.86994 74.6099 10.3553 74.6099 10.9206C74.6099 11.4753 74.7219 11.9606 74.9459 12.3766C75.1699 12.7926 75.4685 13.1126 75.8419 13.3366C76.2152 13.5606 76.6259 13.6726 77.0739 13.6726C77.5965 13.6726 78.0392 13.5553 78.4019 13.3206C78.7645 13.0859 79.0472 12.7553 79.2499 12.3286L80.7859 13.0006C80.4872 13.6513 80.0232 14.1899 79.3939 14.6166C78.7752 15.0433 78.0125 15.2566 77.1059 15.2566ZM86.1793 15.2566C85.3366 15.2566 84.5953 15.0646 83.9553 14.6806C83.3153 14.2966 82.8139 13.7793 82.4513 13.1286C82.0886 12.4673 81.9073 11.7313 81.9073 10.9206C81.9073 10.1099 82.0886 9.37928 82.4513 8.72861C82.8139 8.06728 83.3153 7.54461 83.9553 7.16061C84.5953 6.77661 85.3366 6.58461 86.1793 6.58461C87.0113 6.58461 87.7473 6.78194 88.3873 7.17661C89.0273 7.56061 89.5286 8.07794 89.8913 8.72861C90.2539 9.37928 90.4353 10.1099 90.4353 10.9206C90.4353 11.7313 90.2539 12.4673 89.8913 13.1286C89.5286 13.7793 89.0273 14.2966 88.3873 14.6806C87.7473 15.0646 87.0113 15.2566 86.1793 15.2566ZM86.1793 13.6726C86.6273 13.6726 87.0433 13.5659 87.4273 13.3526C87.8113 13.1286 88.1206 12.8139 88.3553 12.4086C88.6006 11.9926 88.7233 11.4966 88.7233 10.9206C88.7233 10.3446 88.6006 9.85394 88.3553 9.44861C88.1206 9.03261 87.8113 8.71794 87.4273 8.50461C87.0433 8.28061 86.6273 8.16861 86.1793 8.16861C85.7313 8.16861 85.3099 8.28061 84.9153 8.50461C84.5313 8.71794 84.2166 9.03261 83.9713 9.44861C83.7366 9.85394 83.6193 10.3446 83.6193 10.9206C83.6193 11.4966 83.7366 11.9926 83.9713 12.4086C84.2166 12.8139 84.5366 13.1286 84.9313 13.3526C85.3259 13.5659 85.7419 13.6726 86.1793 13.6726ZM92.0205 15.0006V6.84061H93.6525V7.96061H93.7485C93.9085 7.69394 94.1165 7.45928 94.3725 7.25661C94.6285 7.05394 94.9165 6.89394 95.2365 6.77661C95.5672 6.64861 95.9085 6.58461 96.2605 6.58461C96.8685 6.58461 97.3858 6.72861 97.8125 7.01661C98.2392 7.30461 98.5432 7.66728 98.7245 8.10461C98.9912 7.67794 99.3538 7.32061 99.8125 7.03261C100.271 6.73394 100.831 6.58461 101.493 6.58461C102.453 6.58461 103.167 6.87794 103.637 7.46461C104.106 8.04061 104.341 8.80861 104.341 9.76861V15.0006H102.629V10.0566C102.629 9.39528 102.485 8.91528 102.197 8.61661C101.919 8.31794 101.53 8.16861 101.029 8.16861C100.634 8.16861 100.287 8.28061 99.9885 8.50461C99.6898 8.71794 99.4552 9.01128 99.2845 9.38461C99.1245 9.75794 99.0445 10.1739 99.0445 10.6326V15.0006H97.3325V10.0566C97.3325 9.40594 97.1885 8.93128 96.9005 8.63261C96.6125 8.32328 96.2072 8.16861 95.6845 8.16861C95.3112 8.16861 94.9752 8.28061 94.6765 8.50461C94.3885 8.72861 94.1592 9.02728 93.9885 9.40061C93.8285 9.77394 93.7485 10.1899 93.7485 10.6486V15.0006H92.0205ZM114.161 15.2566C113.318 15.2566 112.577 15.0646 111.937 14.6806C111.297 14.2966 110.795 13.7793 110.433 13.1286C110.07 12.4673 109.889 11.7313 109.889 10.9206C109.889 10.1099 110.07 9.37928 110.433 8.72861C110.795 8.06728 111.297 7.54461 111.937 7.16061C112.577 6.77661 113.318 6.58461 114.161 6.58461C114.993 6.58461 115.729 6.78194 116.369 7.17661C117.009 7.56061 117.51 8.07794 117.873 8.72861C118.235 9.37928 118.417 10.1099 118.417 10.9206C118.417 11.7313 118.235 12.4673 117.873 13.1286C117.51 13.7793 117.009 14.2966 116.369 14.6806C115.729 15.0646 114.993 15.2566 114.161 15.2566ZM114.161 13.6726C114.609 13.6726 115.025 13.5659 115.409 13.3526C115.793 13.1286 116.102 12.8139 116.337 12.4086C116.582 11.9926 116.705 11.4966 116.705 10.9206C116.705 10.3446 116.582 9.85394 116.337 9.44861C116.102 9.03261 115.793 8.71794 115.409 8.50461C115.025 8.28061 114.609 8.16861 114.161 8.16861C113.713 8.16861 113.291 8.28061 112.897 8.50461C112.513 8.71794 112.198 9.03261 111.953 9.44861C111.718 9.85394 111.601 10.3446 111.601 10.9206C111.601 11.4966 111.718 11.9926 111.953 12.4086C112.198 12.8139 112.518 13.1286 112.913 13.3526C113.307 13.5659 113.723 13.6726 114.161 13.6726Z" fill="white"/>
<g id="GPay (Dark)">
<g id="GPay">
<g id="Pay">
<path id="Fill 1" fill-rule="evenodd" clip-rule="evenodd" d="M147.356 3.42339V8.16175H150.278C150.974 8.16175 151.55 7.92781 152.005 7.45993C152.473 6.99313 152.707 6.43644 152.707 5.79203C152.707 5.16061 152.473 4.61041 152.005 4.14254C151.55 3.66274 150.974 3.4223 150.278 3.4223H147.356V3.42339ZM147.356 9.82966V15.3262H145.611V1.75549H150.24C151.417 1.75549 152.415 2.14756 153.238 2.93061C154.073 3.71365 154.491 4.66782 154.491 5.79203C154.491 6.94224 154.073 7.90291 153.238 8.67296C152.428 9.44409 151.429 9.82858 150.24 9.82858H147.356V9.82966Z" fill="white"/>
<path id="Fill 3" fill-rule="evenodd" clip-rule="evenodd" d="M156.255 12.4831C156.255 12.9379 156.448 13.317 156.834 13.6203C157.22 13.9235 157.672 14.0752 158.19 14.0752C158.924 14.0752 159.578 13.8032 160.153 13.2607C160.729 12.717 161.017 12.0791 161.017 11.3469C160.472 10.917 159.713 10.7025 158.74 10.7025C158.031 10.7025 157.44 10.8736 156.966 11.2148C156.492 11.5559 156.255 11.9773 156.255 12.4831M158.513 5.73566C159.803 5.73566 160.821 6.08007 161.569 6.76889C162.314 7.45771 162.687 8.40213 162.687 9.60216V15.3261H161.018V14.0373H160.942C160.221 15.0985 159.259 15.6294 158.058 15.6294C157.033 15.6294 156.176 15.3261 155.487 14.7196C154.797 14.1131 154.453 13.3549 154.453 12.4452C154.453 11.4845 154.816 10.7208 155.543 10.1523C156.271 9.58375 157.241 9.2989 158.456 9.2989C159.492 9.2989 160.346 9.48844 161.017 9.86751V9.46894C161.017 8.86243 160.776 8.34798 160.296 7.92451C159.814 7.50103 159.252 7.28984 158.607 7.28984C157.633 7.28984 156.862 7.70032 156.293 8.52235L154.755 7.55519C155.603 6.34217 156.855 5.73566 158.513 5.73566" fill="white"/>
<path id="Fill 5" fill-rule="evenodd" clip-rule="evenodd" d="M172.269 6.03894L166.443 19.4201H164.641L166.804 14.738L162.971 6.03894H164.869L167.639 12.7106H167.677L170.371 6.03894H172.269Z" fill="white"/>
</g>
<g id="G">
<path id="Fill 8" fill-rule="evenodd" clip-rule="evenodd" d="M140.303 8.64473C140.303 8.09563 140.256 7.56601 140.168 7.05914H132.806V10.0625H137.023C136.842 11.0414 136.294 11.8744 135.464 12.4322V14.3828H137.98C139.454 13.0246 140.303 11.0177 140.303 8.64473" fill="#4285F4"/>
<path id="Fill 10" fill-rule="evenodd" clip-rule="evenodd" d="M132.806 16.2651C134.913 16.2651 136.687 15.5741 137.98 14.3828L135.464 12.4322C134.763 12.9033 133.861 13.1784 132.806 13.1784C130.77 13.1784 129.042 11.8073 128.424 9.95959H125.832V11.9687C127.116 14.516 129.757 16.2651 132.806 16.2651" fill="#34A853"/>
<path id="Fill 12" fill-rule="evenodd" clip-rule="evenodd" d="M128.424 9.9596C128.266 9.48847 128.179 8.98593 128.179 8.46715C128.179 7.94837 128.266 7.44583 128.424 6.9747V4.96564H125.832C125.3 6.01837 125 7.20756 125 8.46715C125 9.72674 125.3 10.916 125.832 11.9687L128.424 9.9596Z" fill="#FABB05"/>
<path id="Fill 14" fill-rule="evenodd" clip-rule="evenodd" d="M132.806 3.75583C133.957 3.75583 134.988 4.15115 135.801 4.92553V4.92661L138.029 2.70094C136.676 1.44243 134.912 0.669128 132.806 0.669128C129.757 0.669128 127.116 2.41826 125.832 4.9656L128.424 6.97467C129.042 5.12698 130.77 3.75583 132.806 3.75583" fill="#E94235"/>
</g>
</g>
</g>
</g>
</svg>
