<svg width="173" height="21" viewBox="0 0 173 21" fill="none" xmlns="http://www.w3.org/2000/svg">
<g id="pt_buy_with_Pay_NBG">
<path id="Left Text" d="M7.62237 15.2566C6.77971 15.2566 5.99571 15.1073 5.27037 14.8086C4.54504 14.4993 3.91037 14.0779 3.36637 13.5446C2.83304 13.0006 2.41171 12.3659 2.10237 11.6406C1.80371 10.9046 1.65437 10.1153 1.65437 9.27261C1.65437 8.41928 1.80371 7.62994 2.10237 6.90461C2.41171 6.17928 2.83304 5.54994 3.36637 5.01661C3.91037 4.47261 4.54504 4.05128 5.27037 3.75261C5.99571 3.44328 6.77971 3.28861 7.62237 3.28861C8.21971 3.28861 8.77437 3.36328 9.28637 3.51261C9.79837 3.66194 10.2677 3.87528 10.6944 4.15261C11.121 4.42994 11.5104 4.76594 11.8624 5.16061L10.6304 6.36061C10.3744 6.05128 10.097 5.79528 9.79837 5.59261C9.49971 5.37928 9.16904 5.21928 8.80637 5.11261C8.45437 5.00594 8.06504 4.95261 7.63837 4.95261C6.87037 4.95261 6.16637 5.13394 5.52637 5.49661C4.88637 5.84861 4.37437 6.34461 3.99037 6.98461C3.61704 7.62461 3.43037 8.38728 3.43037 9.27261C3.43037 10.1473 3.61704 10.9099 3.99037 11.5606C4.37437 12.2006 4.88637 12.7019 5.52637 13.0646C6.16637 13.4166 6.87037 13.5926 7.63837 13.5926C8.10771 13.5926 8.53437 13.5286 8.91837 13.4006C9.31304 13.2726 9.67571 13.0859 10.0064 12.8406C10.337 12.5953 10.641 12.3073 10.9184 11.9766L12.1824 13.1926C11.8304 13.6086 11.4197 13.9713 10.9504 14.2806C10.481 14.5899 9.96904 14.8299 9.41437 15.0006C8.85971 15.1713 8.26237 15.2566 7.62237 15.2566ZM17.5417 15.2566C16.6991 15.2566 15.9577 15.0646 15.3177 14.6806C14.6777 14.2966 14.1764 13.7793 13.8137 13.1286C13.4511 12.4673 13.2697 11.7313 13.2697 10.9206C13.2697 10.1099 13.4511 9.37928 13.8137 8.72861C14.1764 8.06728 14.6777 7.54461 15.3177 7.16061C15.9577 6.77661 16.6991 6.58461 17.5417 6.58461C18.3737 6.58461 19.1097 6.78194 19.7497 7.17661C20.3897 7.56061 20.8911 8.07794 21.2537 8.72861C21.6164 9.37928 21.7977 10.1099 21.7977 10.9206C21.7977 11.7313 21.6164 12.4673 21.2537 13.1286C20.8911 13.7793 20.3897 14.2966 19.7497 14.6806C19.1097 15.0646 18.3737 15.2566 17.5417 15.2566ZM17.5417 13.6726C17.9897 13.6726 18.4057 13.5659 18.7897 13.3526C19.1737 13.1286 19.4831 12.8139 19.7177 12.4086C19.9631 11.9926 20.0857 11.4966 20.0857 10.9206C20.0857 10.3446 19.9631 9.85394 19.7177 9.44861C19.4831 9.03261 19.1737 8.71794 18.7897 8.50461C18.4057 8.28061 17.9897 8.16861 17.5417 8.16861C17.0937 8.16861 16.6724 8.28061 16.2777 8.50461C15.8937 8.71794 15.5791 9.03261 15.3337 9.44861C15.0991 9.85394 14.9817 10.3446 14.9817 10.9206C14.9817 11.4966 15.0991 11.9926 15.3337 12.4086C15.5791 12.8139 15.8991 13.1286 16.2937 13.3526C16.6884 13.5659 17.1044 13.6726 17.5417 13.6726ZM23.383 15.0006V6.84061H25.015V7.96061H25.111C25.271 7.69394 25.479 7.45928 25.735 7.25661C25.991 7.05394 26.279 6.89394 26.599 6.77661C26.9297 6.64861 27.271 6.58461 27.623 6.58461C28.231 6.58461 28.7483 6.72861 29.175 7.01661C29.6017 7.30461 29.9057 7.66728 30.087 8.10461C30.3537 7.67794 30.7163 7.32061 31.175 7.03261C31.6337 6.73394 32.1937 6.58461 32.855 6.58461C33.815 6.58461 34.5297 6.87794 34.999 7.46461C35.4683 8.04061 35.703 8.80861 35.703 9.76861V15.0006H33.991V10.0566C33.991 9.39528 33.847 8.91528 33.559 8.61661C33.2817 8.31794 32.8923 8.16861 32.391 8.16861C31.9963 8.16861 31.6497 8.28061 31.351 8.50461C31.0523 8.71794 30.8177 9.01128 30.647 9.38461C30.487 9.75794 30.407 10.1739 30.407 10.6326V15.0006H28.695V10.0566C28.695 9.40594 28.551 8.93128 28.263 8.63261C27.975 8.32328 27.5697 8.16861 27.047 8.16861C26.6737 8.16861 26.3377 8.28061 26.039 8.50461C25.751 8.72861 25.5217 9.02728 25.351 9.40061C25.191 9.77394 25.111 10.1899 25.111 10.6486V15.0006H23.383ZM37.7826 18.4566V6.84061H39.3986V7.94461H39.4946C39.644 7.70994 39.8413 7.49128 40.0866 7.28861C40.3426 7.07528 40.6413 6.90461 40.9826 6.77661C41.324 6.64861 41.7026 6.58461 42.1186 6.58461C42.8653 6.58461 43.532 6.77128 44.1186 7.14461C44.7053 7.51794 45.1693 8.02994 45.5106 8.68061C45.8626 9.33128 46.0386 10.0779 46.0386 10.9206C46.0386 11.7633 45.8626 12.5099 45.5106 13.1606C45.1693 13.8113 44.7053 14.3233 44.1186 14.6966C43.532 15.0699 42.8653 15.2566 42.1186 15.2566C41.5 15.2566 40.9613 15.1179 40.5026 14.8406C40.044 14.5633 39.708 14.2539 39.4946 13.9126H39.3986L39.4946 15.0486V18.4566H37.7826ZM41.8626 13.6726C42.2893 13.6726 42.6893 13.5606 43.0626 13.3366C43.4466 13.1126 43.7506 12.7926 43.9746 12.3766C44.2093 11.9606 44.3266 11.4753 44.3266 10.9206C44.3266 10.3553 44.2093 9.86994 43.9746 9.46461C43.7506 9.04861 43.4466 8.72861 43.0626 8.50461C42.6893 8.28061 42.2893 8.16861 41.8626 8.16861C41.436 8.16861 41.036 8.28061 40.6626 8.50461C40.2893 8.72861 39.9853 9.04861 39.7506 9.46461C39.516 9.86994 39.3986 10.3553 39.3986 10.9206C39.3986 11.4859 39.516 11.9766 39.7506 12.3926C39.9853 12.7979 40.2893 13.1126 40.6626 13.3366C41.036 13.5606 41.436 13.6726 41.8626 13.6726ZM47.6986 15.0006V6.84061H49.3306V8.04061H49.4266C49.5546 7.76328 49.736 7.51794 49.9706 7.30461C50.216 7.09128 50.4933 6.92061 50.8026 6.79261C51.1226 6.66461 51.4533 6.60061 51.7946 6.60061C52.0186 6.60061 52.2053 6.61661 52.3546 6.64861C52.5146 6.66994 52.6586 6.70728 52.7866 6.76061V8.55261C52.584 8.46728 52.376 8.39794 52.1626 8.34461C51.96 8.29128 51.7466 8.26461 51.5226 8.26461C51.1173 8.26461 50.7546 8.37661 50.4346 8.60061C50.1253 8.81394 49.88 9.10194 49.6986 9.46461C49.5173 9.82728 49.4266 10.2326 49.4266 10.6806V15.0006H47.6986ZM56.5492 15.2566C55.9626 15.2566 55.4399 15.1393 54.9812 14.9046C54.5332 14.6699 54.1759 14.3499 53.9092 13.9446C53.6532 13.5286 53.5252 13.0539 53.5252 12.5206C53.5252 11.9339 53.6746 11.4379 53.9732 11.0326C54.2826 10.6273 54.6932 10.3179 55.2052 10.1046C55.7172 9.89128 56.2826 9.78461 56.9012 9.78461C57.2426 9.78461 57.5572 9.81128 57.8452 9.86461C58.1439 9.90728 58.3999 9.96061 58.6132 10.0246C58.8372 10.0886 59.0132 10.1579 59.1412 10.2326V9.80061C59.1412 9.26728 58.9492 8.84061 58.5652 8.52061C58.1812 8.20061 57.6852 8.04061 57.0772 8.04061C56.6612 8.04061 56.2666 8.13661 55.8932 8.32861C55.5199 8.50994 55.2212 8.76061 54.9972 9.08061L53.8132 8.16861C54.0479 7.83794 54.3306 7.55528 54.6612 7.32061C55.0026 7.08594 55.3812 6.90461 55.7972 6.77661C56.2239 6.64861 56.6666 6.58461 57.1252 6.58461C58.3092 6.58461 59.2212 6.87794 59.8612 7.46461C60.5012 8.04061 60.8212 8.85128 60.8212 9.89661V15.0006H59.1412V13.9926H59.0452C58.9066 14.2059 58.7146 14.4086 58.4692 14.6006C58.2346 14.7926 57.9519 14.9473 57.6212 15.0646C57.3012 15.1926 56.9439 15.2566 56.5492 15.2566ZM56.8532 13.8486C57.3012 13.8486 57.6959 13.7419 58.0372 13.5286C58.3892 13.3153 58.6612 13.0379 58.8532 12.6966C59.0452 12.3446 59.1412 11.9659 59.1412 11.5606C58.9066 11.4219 58.6186 11.3099 58.2772 11.2246C57.9466 11.1286 57.5946 11.0806 57.2212 11.0806C56.5172 11.0806 56.0159 11.2193 55.7172 11.4966C55.4186 11.7739 55.2692 12.1206 55.2692 12.5366C55.2692 12.9206 55.4132 13.2353 55.7012 13.4806C55.9892 13.7259 56.3732 13.8486 56.8532 13.8486ZM62.8736 15.0006V6.84061H64.5056V8.04061H64.6016C64.7296 7.76328 64.911 7.51794 65.1456 7.30461C65.391 7.09128 65.6683 6.92061 65.9776 6.79261C66.2976 6.66461 66.6283 6.60061 66.9696 6.60061C67.1936 6.60061 67.3803 6.61661 67.5296 6.64861C67.6896 6.66994 67.8336 6.70728 67.9616 6.76061V8.55261C67.759 8.46728 67.551 8.39794 67.3376 8.34461C67.135 8.29128 66.9216 8.26461 66.6976 8.26461C66.2923 8.26461 65.9296 8.37661 65.6096 8.60061C65.3003 8.81394 65.055 9.10194 64.8736 9.46461C64.6923 9.82728 64.6016 10.2326 64.6016 10.6806V15.0006H62.8736ZM77.1059 15.2566C76.2845 15.2566 75.5539 15.0699 74.9139 14.6966C74.2845 14.3233 73.7885 13.8113 73.4259 13.1606C73.0739 12.4993 72.8979 11.7526 72.8979 10.9206C72.8979 10.0886 73.0739 9.34728 73.4259 8.69661C73.7885 8.04594 74.2845 7.53394 74.9139 7.16061C75.5539 6.77661 76.2845 6.58461 77.1059 6.58461C78.0125 6.58461 78.7752 6.78728 79.3939 7.19261C80.0232 7.59794 80.4712 8.14728 80.7379 8.84061L79.1699 9.48061C78.9779 9.04328 78.7005 8.71794 78.3379 8.50461C77.9859 8.28061 77.5645 8.16861 77.0739 8.16861C76.6259 8.16861 76.2152 8.28594 75.8419 8.52061C75.4685 8.74461 75.1699 9.05928 74.9459 9.46461C74.7219 9.86994 74.6099 10.3553 74.6099 10.9206C74.6099 11.4753 74.7219 11.9606 74.9459 12.3766C75.1699 12.7926 75.4685 13.1126 75.8419 13.3366C76.2152 13.5606 76.6259 13.6726 77.0739 13.6726C77.5965 13.6726 78.0392 13.5553 78.4019 13.3206C78.7645 13.0859 79.0472 12.7553 79.2499 12.3286L80.7859 13.0006C80.4872 13.6513 80.0232 14.1899 79.3939 14.6166C78.7752 15.0433 78.0125 15.2566 77.1059 15.2566ZM86.1792 15.2566C85.3366 15.2566 84.5952 15.0646 83.9552 14.6806C83.3152 14.2966 82.8139 13.7793 82.4512 13.1286C82.0886 12.4673 81.9072 11.7313 81.9072 10.9206C81.9072 10.1099 82.0886 9.37928 82.4512 8.72861C82.8139 8.06728 83.3152 7.54461 83.9552 7.16061C84.5952 6.77661 85.3366 6.58461 86.1792 6.58461C87.0112 6.58461 87.7472 6.78194 88.3872 7.17661C89.0272 7.56061 89.5286 8.07794 89.8912 8.72861C90.2539 9.37928 90.4352 10.1099 90.4352 10.9206C90.4352 11.7313 90.2539 12.4673 89.8912 13.1286C89.5286 13.7793 89.0272 14.2966 88.3872 14.6806C87.7472 15.0646 87.0112 15.2566 86.1792 15.2566ZM86.1792 13.6726C86.6272 13.6726 87.0432 13.5659 87.4272 13.3526C87.8112 13.1286 88.1206 12.8139 88.3552 12.4086C88.6006 11.9926 88.7232 11.4966 88.7232 10.9206C88.7232 10.3446 88.6006 9.85394 88.3552 9.44861C88.1206 9.03261 87.8112 8.71794 87.4272 8.50461C87.0432 8.28061 86.6272 8.16861 86.1792 8.16861C85.7312 8.16861 85.3099 8.28061 84.9152 8.50461C84.5312 8.71794 84.2166 9.03261 83.9712 9.44861C83.7366 9.85394 83.6192 10.3446 83.6192 10.9206C83.6192 11.4966 83.7366 11.9926 83.9712 12.4086C84.2166 12.8139 84.5366 13.1286 84.9312 13.3526C85.3259 13.5659 85.7419 13.6726 86.1792 13.6726ZM92.0205 15.0006V6.84061H93.6525V7.96061H93.7485C93.9085 7.69394 94.1165 7.45928 94.3725 7.25661C94.6285 7.05394 94.9165 6.89394 95.2365 6.77661C95.5672 6.64861 95.9085 6.58461 96.2605 6.58461C96.8685 6.58461 97.3858 6.72861 97.8125 7.01661C98.2392 7.30461 98.5432 7.66728 98.7245 8.10461C98.9912 7.67794 99.3538 7.32061 99.8125 7.03261C100.271 6.73394 100.831 6.58461 101.492 6.58461C102.452 6.58461 103.167 6.87794 103.636 7.46461C104.106 8.04061 104.34 8.80861 104.34 9.76861V15.0006H102.628V10.0566C102.628 9.39528 102.484 8.91528 102.196 8.61661C101.919 8.31794 101.53 8.16861 101.028 8.16861C100.634 8.16861 100.287 8.28061 99.9885 8.50461C99.6898 8.71794 99.4552 9.01128 99.2845 9.38461C99.1245 9.75794 99.0445 10.1739 99.0445 10.6326V15.0006H97.3325V10.0566C97.3325 9.40594 97.1885 8.93128 96.9005 8.63261C96.6125 8.32328 96.2072 8.16861 95.6845 8.16861C95.3112 8.16861 94.9752 8.28061 94.6765 8.50461C94.3885 8.72861 94.1592 9.02728 93.9885 9.40061C93.8285 9.77394 93.7485 10.1899 93.7485 10.6486V15.0006H92.0205ZM114.161 15.2566C113.318 15.2566 112.577 15.0646 111.937 14.6806C111.297 14.2966 110.795 13.7793 110.433 13.1286C110.07 12.4673 109.889 11.7313 109.889 10.9206C109.889 10.1099 110.07 9.37928 110.433 8.72861C110.795 8.06728 111.297 7.54461 111.937 7.16061C112.577 6.77661 113.318 6.58461 114.161 6.58461C114.993 6.58461 115.729 6.78194 116.369 7.17661C117.009 7.56061 117.51 8.07794 117.873 8.72861C118.235 9.37928 118.417 10.1099 118.417 10.9206C118.417 11.7313 118.235 12.4673 117.873 13.1286C117.51 13.7793 117.009 14.2966 116.369 14.6806C115.729 15.0646 114.993 15.2566 114.161 15.2566ZM114.161 13.6726C114.609 13.6726 115.025 13.5659 115.409 13.3526C115.793 13.1286 116.102 12.8139 116.337 12.4086C116.582 11.9926 116.705 11.4966 116.705 10.9206C116.705 10.3446 116.582 9.85394 116.337 9.44861C116.102 9.03261 115.793 8.71794 115.409 8.50461C115.025 8.28061 114.609 8.16861 114.161 8.16861C113.713 8.16861 113.291 8.28061 112.897 8.50461C112.513 8.71794 112.198 9.03261 111.953 9.44861C111.718 9.85394 111.601 10.3446 111.601 10.9206C111.601 11.4966 111.718 11.9926 111.953 12.4086C112.198 12.8139 112.518 13.1286 112.913 13.3526C113.307 13.5659 113.723 13.6726 114.161 13.6726Z" fill="white"/>
<g id="GPay (Dark)">
<g id="GPay">
<g id="Pay">
<path id="Fill 1" fill-rule="evenodd" clip-rule="evenodd" d="M147.356 3.42339V8.16175H150.278C150.974 8.16175 151.55 7.92781 152.005 7.45993C152.473 6.99313 152.707 6.43644 152.707 5.79203C152.707 5.16061 152.473 4.61041 152.005 4.14254C151.55 3.66274 150.974 3.4223 150.278 3.4223H147.356V3.42339ZM147.356 9.82966V15.3262H145.611V1.75549H150.24C151.417 1.75549 152.415 2.14756 153.238 2.93061C154.073 3.71365 154.491 4.66782 154.491 5.79203C154.491 6.94224 154.073 7.90291 153.238 8.67296C152.428 9.44409 151.429 9.82858 150.24 9.82858H147.356V9.82966Z" fill="white"/>
<path id="Fill 3" fill-rule="evenodd" clip-rule="evenodd" d="M156.255 12.4831C156.255 12.9379 156.448 13.317 156.834 13.6203C157.22 13.9235 157.672 14.0752 158.19 14.0752C158.924 14.0752 159.578 13.8032 160.153 13.2607C160.729 12.717 161.017 12.0791 161.017 11.3469C160.472 10.917 159.713 10.7025 158.74 10.7025C158.031 10.7025 157.44 10.8736 156.966 11.2148C156.492 11.5559 156.255 11.9773 156.255 12.4831M158.513 5.73566C159.803 5.73566 160.821 6.08007 161.569 6.76889C162.314 7.45771 162.687 8.40213 162.687 9.60216V15.3261H161.018V14.0373H160.942C160.221 15.0985 159.259 15.6294 158.058 15.6294C157.033 15.6294 156.176 15.3261 155.487 14.7196C154.797 14.1131 154.453 13.3549 154.453 12.4452C154.453 11.4845 154.816 10.7208 155.543 10.1523C156.271 9.58375 157.241 9.2989 158.456 9.2989C159.492 9.2989 160.346 9.48844 161.017 9.86751V9.46894C161.017 8.86243 160.776 8.34798 160.296 7.92451C159.814 7.50103 159.252 7.28984 158.607 7.28984C157.633 7.28984 156.862 7.70032 156.293 8.52235L154.755 7.55519C155.603 6.34217 156.855 5.73566 158.513 5.73566" fill="white"/>
<path id="Fill 5" fill-rule="evenodd" clip-rule="evenodd" d="M172.269 6.03894L166.443 19.4201H164.641L166.804 14.738L162.971 6.03894H164.869L167.639 12.7106H167.677L170.371 6.03894H172.269Z" fill="white"/>
</g>
<g id="G">
<path id="Fill 8" fill-rule="evenodd" clip-rule="evenodd" d="M140.303 8.64473C140.303 8.09563 140.256 7.56601 140.168 7.05914H132.806V10.0625H137.023C136.842 11.0414 136.294 11.8744 135.464 12.4322V14.3828H137.98C139.454 13.0246 140.303 11.0177 140.303 8.64473" fill="#4285F4"/>
<path id="Fill 10" fill-rule="evenodd" clip-rule="evenodd" d="M132.806 16.2651C134.913 16.2651 136.687 15.5741 137.98 14.3828L135.464 12.4322C134.763 12.9033 133.861 13.1784 132.806 13.1784C130.77 13.1784 129.042 11.8073 128.424 9.95959H125.832V11.9687C127.116 14.516 129.757 16.2651 132.806 16.2651" fill="#34A853"/>
<path id="Fill 12" fill-rule="evenodd" clip-rule="evenodd" d="M128.424 9.9596C128.266 9.48847 128.179 8.98593 128.179 8.46715C128.179 7.94837 128.266 7.44583 128.424 6.9747V4.96564H125.832C125.3 6.01837 125 7.20756 125 8.46715C125 9.72674 125.3 10.916 125.832 11.9687L128.424 9.9596Z" fill="#FABB05"/>
<path id="Fill 14" fill-rule="evenodd" clip-rule="evenodd" d="M132.806 3.75583C133.957 3.75583 134.988 4.15115 135.801 4.92553V4.92661L138.029 2.70094C136.676 1.44243 134.912 0.669128 132.806 0.669128C129.757 0.669128 127.116 2.41826 125.832 4.9656L128.424 6.97467C129.042 5.12698 130.77 3.75583 132.806 3.75583" fill="#E94235"/>
</g>
</g>
</g>
</g>
</svg>
