<svg width="402" height="38" viewBox="0 0 402 38" fill="none" xmlns="http://www.w3.org/2000/svg">
<g id="pt_checkout_with_Dark">
<path id="Text" d="M2.61254 30V9.952H14.7645V12.864H5.69254V18.744H13.8685V21.656H5.69254V30H2.61254ZM19.3203 13.62C18.7603 13.62 18.275 13.424 17.8643 13.032C17.4723 12.6213 17.2763 12.136 17.2763 11.576C17.2763 11.016 17.4723 10.54 17.8643 10.148C18.275 9.756 18.7603 9.56 19.3203 9.56C19.8803 9.56 20.3563 9.756 20.7483 10.148C21.159 10.54 21.3643 11.016 21.3643 11.576C21.3643 12.136 21.159 12.6213 20.7483 13.032C20.3563 13.424 19.8803 13.62 19.3203 13.62ZM17.8083 30V15.72H20.8323V30H17.8083ZM24.8843 30V15.72H27.7403V17.68H27.9083C28.319 16.9893 28.9257 16.42 29.7283 15.972C30.5497 15.5053 31.4457 15.272 32.4163 15.272C34.171 15.272 35.487 15.7947 36.3643 16.84C37.2417 17.8853 37.6803 19.2667 37.6803 20.984V30H34.6843V21.376C34.6843 20.2187 34.395 19.3787 33.8163 18.856C33.2377 18.3147 32.4817 18.044 31.5483 18.044C30.8203 18.044 30.1857 18.2493 29.6443 18.66C29.103 19.052 28.6737 19.5747 28.3563 20.228C28.0577 20.8813 27.9083 21.5813 27.9083 22.328V30H24.8843ZM45.7698 30.448C44.7431 30.448 43.8285 30.252 43.0258 29.86C42.2231 29.4493 41.5978 28.88 41.1498 28.152C40.7018 27.424 40.4778 26.5933 40.4778 25.66C40.4778 24.652 40.7391 23.7933 41.2618 23.084C41.8031 22.356 42.5218 21.8053 43.4178 21.432C44.3138 21.0587 45.3031 20.872 46.3858 20.872C47.2818 20.872 48.0658 20.956 48.7378 21.124C49.4285 21.292 49.9511 21.4693 50.3058 21.656V20.9C50.3058 19.9667 49.9698 19.22 49.2978 18.66C48.6258 18.1 47.7578 17.82 46.6938 17.82C45.9658 17.82 45.2751 17.988 44.6218 18.324C43.9685 18.6413 43.4458 19.08 43.0538 19.64L40.9818 18.044C41.5978 17.1853 42.4098 16.5133 43.4178 16.028C44.4445 15.524 45.5645 15.272 46.7778 15.272C48.8498 15.272 50.4458 15.7853 51.5658 16.812C52.6858 17.82 53.2458 19.2387 53.2458 21.068V30H50.3058V28.236H50.1378C49.7645 28.8147 49.2045 29.328 48.4578 29.776C47.7111 30.224 46.8151 30.448 45.7698 30.448ZM46.3018 27.984C47.0858 27.984 47.7765 27.7973 48.3738 27.424C48.9711 27.0507 49.4378 26.5653 49.7738 25.968C50.1285 25.352 50.3058 24.6893 50.3058 23.98C49.8765 23.7373 49.3725 23.5413 48.7938 23.392C48.2151 23.224 47.5991 23.14 46.9458 23.14C45.7138 23.14 44.8365 23.392 44.3138 23.896C43.7911 24.3813 43.5298 24.9787 43.5298 25.688C43.5298 26.36 43.7818 26.9107 44.2858 27.34C44.7898 27.7693 45.4618 27.984 46.3018 27.984ZM56.903 30V9.952H59.927V30H56.903ZM65.5281 13.62C64.9681 13.62 64.4828 13.424 64.0721 13.032C63.6801 12.6213 63.4841 12.136 63.4841 11.576C63.4841 11.016 63.6801 10.54 64.0721 10.148C64.4828 9.756 64.9681 9.56 65.5281 9.56C66.0881 9.56 66.5641 9.756 66.9561 10.148C67.3668 10.54 67.5721 11.016 67.5721 11.576C67.5721 12.136 67.3668 12.6213 66.9561 13.032C66.5641 13.424 66.0881 13.62 65.5281 13.62ZM64.0161 30V15.72H67.0401V30H64.0161ZM70.3641 30V27.48L78.3161 18.352H70.6161V15.72H82.0121V18.24L74.0881 27.368H82.2361V30H70.3641ZM89.5714 30.448C88.5447 30.448 87.63 30.252 86.8274 29.86C86.0247 29.4493 85.3994 28.88 84.9514 28.152C84.5034 27.424 84.2794 26.5933 84.2794 25.66C84.2794 24.652 84.5407 23.7933 85.0634 23.084C85.6047 22.356 86.3234 21.8053 87.2194 21.432C88.1154 21.0587 89.1047 20.872 90.1874 20.872C91.0834 20.872 91.8674 20.956 92.5394 21.124C93.23 21.292 93.7527 21.4693 94.1074 21.656V20.9C94.1074 19.9667 93.7714 19.22 93.0994 18.66C92.4274 18.1 91.5594 17.82 90.4954 17.82C89.7674 17.82 89.0767 17.988 88.4234 18.324C87.77 18.6413 87.2474 19.08 86.8554 19.64L84.7834 18.044C85.3994 17.1853 86.2114 16.5133 87.2194 16.028C88.246 15.524 89.366 15.272 90.5794 15.272C92.6514 15.272 94.2474 15.7853 95.3674 16.812C96.4874 17.82 97.0474 19.2387 97.0474 21.068V30H94.1074V28.236H93.9394C93.566 28.8147 93.006 29.328 92.2594 29.776C91.5127 30.224 90.6167 30.448 89.5714 30.448ZM90.1034 27.984C90.8874 27.984 91.578 27.7973 92.1754 27.424C92.7727 27.0507 93.2394 26.5653 93.5754 25.968C93.93 25.352 94.1074 24.6893 94.1074 23.98C93.678 23.7373 93.174 23.5413 92.5954 23.392C92.0167 23.224 91.4007 23.14 90.7474 23.14C89.5154 23.14 88.638 23.392 88.1154 23.896C87.5927 24.3813 87.3314 24.9787 87.3314 25.688C87.3314 26.36 87.5834 26.9107 88.0874 27.34C88.5914 27.7693 89.2634 27.984 90.1034 27.984ZM100.677 30V15.72H103.533V17.82H103.701C104.018 17.092 104.559 16.4947 105.325 16.028C106.109 15.5427 106.949 15.3 107.845 15.3C108.237 15.3 108.563 15.328 108.825 15.384C109.105 15.44 109.357 15.5053 109.581 15.58V18.716C109.226 18.5667 108.862 18.4453 108.489 18.352C108.134 18.2587 107.761 18.212 107.369 18.212C106.659 18.212 106.025 18.408 105.465 18.8C104.923 19.1733 104.494 19.6867 104.177 20.34C103.859 20.9747 103.701 21.6747 103.701 22.44V30H100.677ZM125.658 30.448C124.221 30.448 122.951 30.1213 121.85 29.468C120.749 28.8147 119.881 27.9187 119.246 26.78C118.611 25.6227 118.294 24.316 118.294 22.86C118.294 21.404 118.611 20.1067 119.246 18.968C119.881 17.8107 120.749 16.9053 121.85 16.252C122.951 15.5987 124.221 15.272 125.658 15.272C127.245 15.272 128.579 15.6267 129.662 16.336C130.763 17.0453 131.547 18.0067 132.014 19.22L129.27 20.34C128.617 18.8093 127.394 18.044 125.602 18.044C124.818 18.044 124.099 18.2493 123.446 18.66C122.793 19.052 122.27 19.612 121.878 20.34C121.486 21.0493 121.29 21.8893 121.29 22.86C121.29 23.8307 121.486 24.68 121.878 25.408C122.27 26.136 122.793 26.696 123.446 27.088C124.099 27.48 124.818 27.676 125.602 27.676C126.517 27.676 127.291 27.4707 127.926 27.06C128.561 26.6307 129.055 26.052 129.41 25.324L132.098 26.5C131.594 27.6387 130.791 28.5813 129.69 29.328C128.589 30.0747 127.245 30.448 125.658 30.448ZM141.574 30.448C140.099 30.448 138.802 30.112 137.682 29.44C136.562 28.768 135.685 27.8627 135.05 26.724C134.415 25.5853 134.098 24.2973 134.098 22.86C134.098 21.4413 134.415 20.1627 135.05 19.024C135.685 17.8667 136.562 16.952 137.682 16.28C138.802 15.608 140.099 15.272 141.574 15.272C143.03 15.272 144.318 15.608 145.438 16.28C146.558 16.952 147.435 17.8667 148.07 19.024C148.705 20.1627 149.022 21.4413 149.022 22.86C149.022 24.2973 148.705 25.5853 148.07 26.724C147.435 27.8627 146.558 28.768 145.438 29.44C144.318 30.112 143.03 30.448 141.574 30.448ZM141.574 27.676C142.358 27.676 143.086 27.4893 143.758 27.116C144.43 26.724 144.971 26.1733 145.382 25.464C145.811 24.736 146.026 23.868 146.026 22.86C146.026 21.852 145.811 20.9933 145.382 20.284C144.971 19.556 144.43 19.0053 143.758 18.632C143.086 18.24 142.358 18.044 141.574 18.044C140.79 18.044 140.053 18.24 139.362 18.632C138.69 19.0053 138.139 19.556 137.71 20.284C137.299 20.9933 137.094 21.852 137.094 22.86C137.094 23.868 137.299 24.736 137.71 25.464C138.139 26.1733 138.69 26.724 139.362 27.116C140.053 27.4893 140.79 27.676 141.574 27.676ZM151.834 30V15.72H154.69V17.68H154.858C155.268 16.9893 155.866 16.42 156.65 15.972C157.434 15.5053 158.302 15.272 159.254 15.272C160.318 15.272 161.223 15.524 161.97 16.028C162.716 16.532 163.248 17.1667 163.566 17.932C164.032 17.1853 164.667 16.56 165.47 16.056C166.272 15.5333 167.252 15.272 168.41 15.272C170.09 15.272 171.34 15.7853 172.162 16.812C172.983 17.82 173.394 19.164 173.394 20.844V30H170.398V21.348C170.398 20.2093 170.146 19.3787 169.642 18.856C169.156 18.3147 168.475 18.044 167.598 18.044C166.907 18.044 166.3 18.24 165.778 18.632C165.255 19.0053 164.844 19.5187 164.546 20.172C164.266 20.8253 164.126 21.5533 164.126 22.356V30H161.13V21.348C161.13 20.2093 160.878 19.3787 160.374 18.856C159.87 18.3147 159.16 18.044 158.246 18.044C157.574 18.044 156.986 18.24 156.482 18.632C155.978 19.024 155.576 19.5467 155.278 20.2C154.998 20.8533 154.858 21.5813 154.858 22.384V30H151.834ZM177.07 36.048V15.72H179.898V17.652H180.066C180.44 17.036 181.018 16.4853 181.802 16C182.605 15.5147 183.557 15.272 184.658 15.272C185.965 15.272 187.132 15.5987 188.158 16.252C189.185 16.9053 189.997 17.8013 190.594 18.94C191.21 20.0787 191.518 21.3853 191.518 22.86C191.518 24.3347 191.21 25.6507 190.594 26.808C189.997 27.9467 189.185 28.8427 188.158 29.496C187.132 30.1307 185.965 30.448 184.658 30.448C183.557 30.448 182.605 30.2147 181.802 29.748C181.018 29.2627 180.44 28.712 180.066 28.096H179.898L180.066 30.084V36.048H177.07ZM184.21 27.676C184.957 27.676 185.657 27.48 186.31 27.088C186.964 26.696 187.496 26.1453 187.906 25.436C188.317 24.708 188.522 23.8493 188.522 22.86C188.522 21.8707 188.317 21.0213 187.906 20.312C187.496 19.584 186.964 19.024 186.31 18.632C185.657 18.24 184.957 18.044 184.21 18.044C183.464 18.044 182.764 18.24 182.11 18.632C181.457 19.024 180.925 19.584 180.514 20.312C180.104 21.0213 179.898 21.8707 179.898 22.86C179.898 23.8493 180.104 24.708 180.514 25.436C180.925 26.1453 181.457 26.696 182.11 27.088C182.764 27.48 183.464 27.676 184.21 27.676ZM194.461 30V15.72H197.317V17.82H197.485C197.802 17.092 198.344 16.4947 199.109 16.028C199.893 15.5427 200.733 15.3 201.629 15.3C202.021 15.3 202.348 15.328 202.609 15.384C202.889 15.44 203.141 15.5053 203.365 15.58V18.716C203.01 18.5667 202.646 18.4453 202.273 18.352C201.918 18.2587 201.545 18.212 201.153 18.212C200.444 18.212 199.809 18.408 199.249 18.8C198.708 19.1733 198.278 19.6867 197.961 20.34C197.644 20.9747 197.485 21.6747 197.485 22.44V30H194.461ZM209.987 30.448C208.96 30.448 208.046 30.252 207.243 29.86C206.44 29.4493 205.815 28.88 205.367 28.152C204.919 27.424 204.695 26.5933 204.695 25.66C204.695 24.652 204.956 23.7933 205.479 23.084C206.02 22.356 206.739 21.8053 207.635 21.432C208.531 21.0587 209.52 20.872 210.603 20.872C211.499 20.872 212.283 20.956 212.955 21.124C213.646 21.292 214.168 21.4693 214.523 21.656V20.9C214.523 19.9667 214.187 19.22 213.515 18.66C212.843 18.1 211.975 17.82 210.911 17.82C210.183 17.82 209.492 17.988 208.839 18.324C208.186 18.6413 207.663 19.08 207.271 19.64L205.199 18.044C205.815 17.1853 206.627 16.5133 207.635 16.028C208.662 15.524 209.782 15.272 210.995 15.272C213.067 15.272 214.663 15.7853 215.783 16.812C216.903 17.82 217.463 19.2387 217.463 21.068V30H214.523V28.236H214.355C213.982 28.8147 213.422 29.328 212.675 29.776C211.928 30.224 211.032 30.448 209.987 30.448ZM210.519 27.984C211.303 27.984 211.994 27.7973 212.591 27.424C213.188 27.0507 213.655 26.5653 213.991 25.968C214.346 25.352 214.523 24.6893 214.523 23.98C214.094 23.7373 213.59 23.5413 213.011 23.392C212.432 23.224 211.816 23.14 211.163 23.14C209.931 23.14 209.054 23.392 208.531 23.896C208.008 24.3813 207.747 24.9787 207.747 25.688C207.747 26.36 207.999 26.9107 208.503 27.34C209.007 27.7693 209.679 27.984 210.519 27.984ZM234.535 30.448C233.098 30.448 231.829 30.1213 230.727 29.468C229.626 28.8147 228.758 27.9187 228.123 26.78C227.489 25.6227 227.171 24.316 227.171 22.86C227.171 21.404 227.489 20.1067 228.123 18.968C228.758 17.8107 229.626 16.9053 230.727 16.252C231.829 15.5987 233.098 15.272 234.535 15.272C236.122 15.272 237.457 15.6267 238.539 16.336C239.641 17.0453 240.425 18.0067 240.891 19.22L238.147 20.34C237.494 18.8093 236.271 18.044 234.479 18.044C233.695 18.044 232.977 18.2493 232.323 18.66C231.67 19.052 231.147 19.612 230.755 20.34C230.363 21.0493 230.167 21.8893 230.167 22.86C230.167 23.8307 230.363 24.68 230.755 25.408C231.147 26.136 231.67 26.696 232.323 27.088C232.977 27.48 233.695 27.676 234.479 27.676C235.394 27.676 236.169 27.4707 236.803 27.06C237.438 26.6307 237.933 26.052 238.287 25.324L240.975 26.5C240.471 27.6387 239.669 28.5813 238.567 29.328C237.466 30.0747 236.122 30.448 234.535 30.448ZM250.451 30.448C248.977 30.448 247.679 30.112 246.559 29.44C245.439 28.768 244.562 27.8627 243.927 26.724C243.293 25.5853 242.975 24.2973 242.975 22.86C242.975 21.4413 243.293 20.1627 243.927 19.024C244.562 17.8667 245.439 16.952 246.559 16.28C247.679 15.608 248.977 15.272 250.451 15.272C251.907 15.272 253.195 15.608 254.315 16.28C255.435 16.952 256.313 17.8667 256.947 19.024C257.582 20.1627 257.899 21.4413 257.899 22.86C257.899 24.2973 257.582 25.5853 256.947 26.724C256.313 27.8627 255.435 28.768 254.315 29.44C253.195 30.112 251.907 30.448 250.451 30.448ZM250.451 27.676C251.235 27.676 251.963 27.4893 252.635 27.116C253.307 26.724 253.849 26.1733 254.259 25.464C254.689 24.736 254.903 23.868 254.903 22.86C254.903 21.852 254.689 20.9933 254.259 20.284C253.849 19.556 253.307 19.0053 252.635 18.632C251.963 18.24 251.235 18.044 250.451 18.044C249.667 18.044 248.93 18.24 248.239 18.632C247.567 19.0053 247.017 19.556 246.587 20.284C246.177 20.9933 245.971 21.852 245.971 22.86C245.971 23.868 246.177 24.736 246.587 25.464C247.017 26.1733 247.567 26.724 248.239 27.116C248.93 27.4893 249.667 27.676 250.451 27.676ZM260.711 30V15.72H263.567V17.68H263.735C264.146 16.9893 264.743 16.42 265.527 15.972C266.311 15.5053 267.179 15.272 268.131 15.272C269.195 15.272 270.1 15.524 270.847 16.028C271.594 16.532 272.126 17.1667 272.443 17.932C272.91 17.1853 273.544 16.56 274.347 16.056C275.15 15.5333 276.13 15.272 277.287 15.272C278.967 15.272 280.218 15.7853 281.039 16.812C281.86 17.82 282.271 19.164 282.271 20.844V30H279.275V21.348C279.275 20.2093 279.023 19.3787 278.519 18.856C278.034 18.3147 277.352 18.044 276.475 18.044C275.784 18.044 275.178 18.24 274.655 18.632C274.132 19.0053 273.722 19.5187 273.423 20.172C273.143 20.8253 273.003 21.5533 273.003 22.356V30H270.007V21.348C270.007 20.2093 269.755 19.3787 269.251 18.856C268.747 18.3147 268.038 18.044 267.123 18.044C266.451 18.044 265.863 18.24 265.359 18.632C264.855 19.024 264.454 19.5467 264.155 20.2C263.875 20.8533 263.735 21.5813 263.735 22.384V30H260.711ZM299.531 30.448C298.056 30.448 296.759 30.112 295.639 29.44C294.519 28.768 293.642 27.8627 293.007 26.724C292.372 25.5853 292.055 24.2973 292.055 22.86C292.055 21.4413 292.372 20.1627 293.007 19.024C293.642 17.8667 294.519 16.952 295.639 16.28C296.759 15.608 298.056 15.272 299.531 15.272C300.987 15.272 302.275 15.608 303.395 16.28C304.515 16.952 305.392 17.8667 306.027 19.024C306.662 20.1627 306.979 21.4413 306.979 22.86C306.979 24.2973 306.662 25.5853 306.027 26.724C305.392 27.8627 304.515 28.768 303.395 29.44C302.275 30.112 300.987 30.448 299.531 30.448ZM299.531 27.676C300.315 27.676 301.043 27.4893 301.715 27.116C302.387 26.724 302.928 26.1733 303.339 25.464C303.768 24.736 303.983 23.868 303.983 22.86C303.983 21.852 303.768 20.9933 303.339 20.284C302.928 19.556 302.387 19.0053 301.715 18.632C301.043 18.24 300.315 18.044 299.531 18.044C298.747 18.044 298.01 18.24 297.319 18.632C296.647 19.0053 296.096 19.556 295.667 20.284C295.256 20.9933 295.051 21.852 295.051 22.86C295.051 23.868 295.256 24.736 295.667 25.464C296.096 26.1733 296.647 26.724 297.319 27.116C298.01 27.4893 298.747 27.676 299.531 27.676Z" fill="white"/>
<g id="GPay Logo (Dark)">
<g id="GPay">
<g id="Pay">
<path id="Fill 1" fill-rule="evenodd" clip-rule="evenodd" d="M358.529 9.34665V17.5128H363.565C364.765 17.5128 365.757 17.1096 366.541 16.3032C367.347 15.4988 367.75 14.5394 367.75 13.4288C367.75 12.3406 367.347 11.3924 366.541 10.586C365.757 9.75916 364.765 9.34479 363.565 9.34479H358.529V9.34665ZM358.529 20.3872V29.8599H355.521V6.47218H363.499C365.527 6.47218 367.248 7.14787 368.666 8.49738C370.105 9.84688 370.824 11.4913 370.824 13.4288C370.824 15.411 370.105 17.0667 368.666 18.3938C367.27 19.7227 365.547 20.3854 363.499 20.3854H358.529V20.3872Z" fill="white"/>
<path id="Fill 3" fill-rule="evenodd" clip-rule="evenodd" d="M373.864 24.9602C373.864 25.7442 374.197 26.3975 374.862 26.9201C375.527 27.4427 376.306 27.704 377.2 27.704C378.465 27.704 379.591 27.2354 380.584 26.3004C381.576 25.3634 382.071 24.264 382.071 23.0022C381.133 22.2612 379.825 21.8916 378.147 21.8916C376.925 21.8916 375.907 22.1866 375.09 22.7745C374.273 23.3623 373.864 24.0886 373.864 24.9602ZM377.756 13.3317C379.98 13.3317 381.735 13.9253 383.022 15.1124C384.308 16.2995 384.95 17.9271 384.95 19.9952V29.8599H382.073V27.6387H381.942C380.699 29.4677 379.042 30.3825 376.972 30.3825C375.206 30.3825 373.728 29.8599 372.541 28.8146C371.353 27.7694 370.759 26.4628 370.759 24.8949C370.759 23.2393 371.385 21.9232 372.638 20.9434C373.892 19.9635 375.565 19.4726 377.658 19.4726C379.444 19.4726 380.916 19.7993 382.071 20.4525V19.7657C382.071 18.7204 381.656 17.8338 380.829 17.104C379.999 16.3742 379.031 16.0102 377.919 16.0102C376.239 16.0102 374.911 16.7176 373.93 18.1343L371.28 16.4675C372.741 14.377 374.899 13.3317 377.756 13.3317Z" fill="white"/>
<path id="Fill 5" fill-rule="evenodd" clip-rule="evenodd" d="M401.463 13.8543L391.424 36.9154H388.318L392.046 28.8464L385.44 13.8543H388.71L393.484 25.3522H393.55L398.193 13.8543H401.463Z" fill="white"/>
</g>
<g id="G">
<path id="Fill 8" fill-rule="evenodd" clip-rule="evenodd" d="M346.373 18.3452C346.373 17.3989 346.293 16.4861 346.141 15.6126H333.454V20.7885H340.72C340.408 22.4757 339.465 23.9112 338.033 24.8725V28.2341H342.37C344.91 25.8935 346.373 22.4348 346.373 18.3452Z" fill="#4285F4"/>
<path id="Fill 10" fill-rule="evenodd" clip-rule="evenodd" d="M333.454 31.4782C337.084 31.4782 340.141 30.2873 342.37 28.2341L338.033 24.8725C336.826 25.6844 335.272 26.1585 333.454 26.1585C329.944 26.1585 326.966 23.7955 325.901 20.6112H321.433V24.0736C323.647 28.4637 328.197 31.4782 333.454 31.4782Z" fill="#34A853"/>
<path id="Fill 12" fill-rule="evenodd" clip-rule="evenodd" d="M325.901 20.6111C325.628 19.7992 325.479 18.9331 325.479 18.0391C325.479 17.145 325.628 16.2789 325.901 15.467V12.0045H321.433C320.518 13.8188 320 15.8683 320 18.0391C320 20.2098 320.518 22.2595 321.433 24.0736L325.901 20.6111Z" fill="#FABB05"/>
<path id="Fill 14" fill-rule="evenodd" clip-rule="evenodd" d="M333.454 9.91964C335.436 9.91964 337.213 10.6009 338.615 11.9355V11.9374L342.455 8.10163C340.123 5.93272 337.082 4.60001 333.454 4.60001C328.197 4.60001 323.647 7.61447 321.433 12.0046L325.901 15.467C326.966 12.2827 329.944 9.91964 333.454 9.91964Z" fill="#E94235"/>
</g>
</g>
</g>
</g>
</svg>
