<svg width="248" height="38" viewBox="0 0 248 38" fill="none" xmlns="http://www.w3.org/2000/svg">
<g id="pt_donate_with_Light">
<path id="Text" d="M3.17738 30V9.952H9.58938C11.6987 9.952 13.5094 10.3813 15.0214 11.24C16.552 12.08 17.728 13.256 18.5494 14.768C19.3894 16.28 19.8094 18.016 19.8094 19.976C19.8094 21.9547 19.3894 23.7 18.5494 25.212C17.728 26.7053 16.552 27.8813 15.0214 28.74C13.5094 29.58 11.6987 30 9.58938 30H3.17738ZM6.25738 27.088H9.50538C11.7827 27.088 13.5467 26.4533 14.7974 25.184C16.0667 23.9147 16.7014 22.1787 16.7014 19.976C16.7014 17.7733 16.0667 16.0373 14.7974 14.768C13.5467 13.4987 11.7827 12.864 9.50538 12.864H6.25738V27.088ZM29.4356 30.448C27.9609 30.448 26.6636 30.112 25.5436 29.44C24.4236 28.768 23.5462 27.8627 22.9116 26.724C22.2769 25.5853 21.9596 24.2973 21.9596 22.86C21.9596 21.4413 22.2769 20.1627 22.9116 19.024C23.5462 17.8667 24.4236 16.952 25.5436 16.28C26.6636 15.608 27.9609 15.272 29.4356 15.272C30.8916 15.272 32.1796 15.608 33.2996 16.28C34.4196 16.952 35.2969 17.8667 35.9316 19.024C36.5662 20.1627 36.8836 21.4413 36.8836 22.86C36.8836 24.2973 36.5662 25.5853 35.9316 26.724C35.2969 27.8627 34.4196 28.768 33.2996 29.44C32.1796 30.112 30.8916 30.448 29.4356 30.448ZM29.4356 27.676C30.2196 27.676 30.9476 27.4893 31.6196 27.116C32.2916 26.724 32.8329 26.1733 33.2436 25.464C33.6729 24.736 33.8876 23.868 33.8876 22.86C33.8876 21.852 33.6729 20.9933 33.2436 20.284C32.8329 19.556 32.2916 19.0053 31.6196 18.632C30.9476 18.24 30.2196 18.044 29.4356 18.044C28.6516 18.044 27.9142 18.24 27.2236 18.632C26.5516 19.0053 26.0009 19.556 25.5716 20.284C25.1609 20.9933 24.9556 21.852 24.9556 22.86C24.9556 23.868 25.1609 24.736 25.5716 25.464C26.0009 26.1733 26.5516 26.724 27.2236 27.116C27.9142 27.4893 28.6516 27.676 29.4356 27.676ZM44.4487 30.448C43.422 30.448 42.5074 30.252 41.7047 29.86C40.902 29.4493 40.2767 28.88 39.8287 28.152C39.3807 27.424 39.1567 26.5933 39.1567 25.66C39.1567 24.652 39.418 23.7933 39.9407 23.084C40.482 22.356 41.2007 21.8053 42.0967 21.432C42.9927 21.0587 43.982 20.872 45.0647 20.872C45.9607 20.872 46.7447 20.956 47.4167 21.124C48.1074 21.292 48.63 21.4693 48.9847 21.656V20.9C48.9847 19.9667 48.6487 19.22 47.9767 18.66C47.3047 18.1 46.4367 17.82 45.3727 17.82C44.6447 17.82 43.954 17.988 43.3007 18.324C42.6474 18.6413 42.1247 19.08 41.7327 19.64L39.6607 18.044C40.2767 17.1853 41.0887 16.5133 42.0967 16.028C43.1234 15.524 44.2434 15.272 45.4567 15.272C47.5287 15.272 49.1247 15.7853 50.2447 16.812C51.3647 17.82 51.9247 19.2387 51.9247 21.068V30H48.9847V28.236H48.8167C48.4434 28.8147 47.8834 29.328 47.1367 29.776C46.39 30.224 45.494 30.448 44.4487 30.448ZM44.9807 27.984C45.7647 27.984 46.4554 27.7973 47.0527 27.424C47.65 27.0507 48.1167 26.5653 48.4527 25.968C48.8074 25.352 48.9847 24.6893 48.9847 23.98C48.5554 23.7373 48.0514 23.5413 47.4727 23.392C46.894 23.224 46.278 23.14 45.6247 23.14C44.3927 23.14 43.5154 23.392 42.9927 23.896C42.47 24.3813 42.2087 24.9787 42.2087 25.688C42.2087 26.36 42.4607 26.9107 42.9647 27.34C43.4687 27.7693 44.1407 27.984 44.9807 27.984ZM55.5538 30V15.72H58.4098V17.82H58.5778C58.8952 17.092 59.4365 16.4947 60.2018 16.028C60.9858 15.5427 61.8258 15.3 62.7218 15.3C63.1138 15.3 63.4405 15.328 63.7018 15.384C63.9818 15.44 64.2338 15.5053 64.4578 15.58V18.716C64.1032 18.5667 63.7392 18.4453 63.3658 18.352C63.0112 18.2587 62.6378 18.212 62.2458 18.212C61.5365 18.212 60.9018 18.408 60.3418 18.8C59.8005 19.1733 59.3712 19.6867 59.0538 20.34C58.7365 20.9747 58.5778 21.6747 58.5778 22.44V30H55.5538ZM80.5353 30.448C79.098 30.448 77.8286 30.1213 76.7273 29.468C75.626 28.8147 74.758 27.9187 74.1233 26.78C73.4886 25.6227 73.1713 24.316 73.1713 22.86C73.1713 21.404 73.4886 20.1067 74.1233 18.968C74.758 17.8107 75.626 16.9053 76.7273 16.252C77.8286 15.5987 79.098 15.272 80.5353 15.272C82.122 15.272 83.4566 15.6267 84.5393 16.336C85.6406 17.0453 86.4246 18.0067 86.8913 19.22L84.1473 20.34C83.494 18.8093 82.2713 18.044 80.4793 18.044C79.6953 18.044 78.9766 18.2493 78.3233 18.66C77.67 19.052 77.1473 19.612 76.7553 20.34C76.3633 21.0493 76.1673 21.8893 76.1673 22.86C76.1673 23.8307 76.3633 24.68 76.7553 25.408C77.1473 26.136 77.67 26.696 78.3233 27.088C78.9766 27.48 79.6953 27.676 80.4793 27.676C81.394 27.676 82.1686 27.4707 82.8033 27.06C83.438 26.6307 83.9326 26.052 84.2873 25.324L86.9753 26.5C86.4713 27.6387 85.6686 28.5813 84.5673 29.328C83.466 30.0747 82.122 30.448 80.5353 30.448ZM96.4512 30.448C94.9765 30.448 93.6792 30.112 92.5592 29.44C91.4392 28.768 90.5619 27.8627 89.9272 26.724C89.2925 25.5853 88.9752 24.2973 88.9752 22.86C88.9752 21.4413 89.2925 20.1627 89.9272 19.024C90.5619 17.8667 91.4392 16.952 92.5592 16.28C93.6792 15.608 94.9765 15.272 96.4512 15.272C97.9072 15.272 99.1952 15.608 100.315 16.28C101.435 16.952 102.313 17.8667 102.947 19.024C103.582 20.1627 103.899 21.4413 103.899 22.86C103.899 24.2973 103.582 25.5853 102.947 26.724C102.313 27.8627 101.435 28.768 100.315 29.44C99.1952 30.112 97.9072 30.448 96.4512 30.448ZM96.4512 27.676C97.2352 27.676 97.9632 27.4893 98.6352 27.116C99.3072 26.724 99.8485 26.1733 100.259 25.464C100.689 24.736 100.903 23.868 100.903 22.86C100.903 21.852 100.689 20.9933 100.259 20.284C99.8485 19.556 99.3072 19.0053 98.6352 18.632C97.9632 18.24 97.2352 18.044 96.4512 18.044C95.6672 18.044 94.9299 18.24 94.2392 18.632C93.5672 19.0053 93.0165 19.556 92.5872 20.284C92.1765 20.9933 91.9712 21.852 91.9712 22.86C91.9712 23.868 92.1765 24.736 92.5872 25.464C93.0165 26.1733 93.5672 26.724 94.2392 27.116C94.9299 27.4893 95.6672 27.676 96.4512 27.676ZM106.711 30V15.72H109.567V17.68H109.735C110.146 16.9893 110.743 16.42 111.527 15.972C112.311 15.5053 113.179 15.272 114.131 15.272C115.195 15.272 116.1 15.524 116.847 16.028C117.594 16.532 118.126 17.1667 118.443 17.932C118.91 17.1853 119.544 16.56 120.347 16.056C121.15 15.5333 122.13 15.272 123.287 15.272C124.967 15.272 126.218 15.7853 127.039 16.812C127.86 17.82 128.271 19.164 128.271 20.844V30H125.275V21.348C125.275 20.2093 125.023 19.3787 124.519 18.856C124.034 18.3147 123.352 18.044 122.475 18.044C121.784 18.044 121.178 18.24 120.655 18.632C120.132 19.0053 119.722 19.5187 119.423 20.172C119.143 20.8253 119.003 21.5533 119.003 22.356V30H116.007V21.348C116.007 20.2093 115.755 19.3787 115.251 18.856C114.747 18.3147 114.038 18.044 113.123 18.044C112.451 18.044 111.863 18.24 111.359 18.632C110.855 19.024 110.454 19.5467 110.155 20.2C109.875 20.8533 109.735 21.5813 109.735 22.384V30H106.711ZM145.531 30.448C144.056 30.448 142.759 30.112 141.639 29.44C140.519 28.768 139.642 27.8627 139.007 26.724C138.372 25.5853 138.055 24.2973 138.055 22.86C138.055 21.4413 138.372 20.1627 139.007 19.024C139.642 17.8667 140.519 16.952 141.639 16.28C142.759 15.608 144.056 15.272 145.531 15.272C146.987 15.272 148.275 15.608 149.395 16.28C150.515 16.952 151.392 17.8667 152.027 19.024C152.662 20.1627 152.979 21.4413 152.979 22.86C152.979 24.2973 152.662 25.5853 152.027 26.724C151.392 27.8627 150.515 28.768 149.395 29.44C148.275 30.112 146.987 30.448 145.531 30.448ZM145.531 27.676C146.315 27.676 147.043 27.4893 147.715 27.116C148.387 26.724 148.928 26.1733 149.339 25.464C149.768 24.736 149.983 23.868 149.983 22.86C149.983 21.852 149.768 20.9933 149.339 20.284C148.928 19.556 148.387 19.0053 147.715 18.632C147.043 18.24 146.315 18.044 145.531 18.044C144.747 18.044 144.01 18.24 143.319 18.632C142.647 19.0053 142.096 19.556 141.667 20.284C141.256 20.9933 141.051 21.852 141.051 22.86C141.051 23.868 141.256 24.736 141.667 25.464C142.096 26.1733 142.647 26.724 143.319 27.116C144.01 27.4893 144.747 27.676 145.531 27.676Z" fill="#3C4043"/>
<g id="GPay Logo (Light)">
<g id="GPay">
<g id="Pay">
<path id="Fill 1" fill-rule="evenodd" clip-rule="evenodd" d="M204.529 9.44664V17.6128H209.565C210.765 17.6128 211.757 17.2096 212.541 16.4032C213.347 15.5988 213.75 14.6394 213.75 13.5288C213.75 12.4406 213.347 11.4924 212.541 10.686C211.757 9.85915 210.765 9.44478 209.565 9.44478H204.529V9.44664ZM204.529 20.4872V29.9599H201.521V6.57217H209.499C211.527 6.57217 213.248 7.24786 214.666 8.59737C216.105 9.94688 216.824 11.5913 216.824 13.5288C216.824 15.511 216.105 17.1667 214.666 18.4938C213.27 19.8227 211.547 20.4854 209.499 20.4854H204.529V20.4872Z" fill="#5F6368"/>
<path id="Fill 3" fill-rule="evenodd" clip-rule="evenodd" d="M219.864 25.0602C219.864 25.8442 220.197 26.4975 220.862 27.0201C221.527 27.5427 222.306 27.804 223.2 27.804C224.465 27.804 225.591 27.3354 226.584 26.4004C227.576 25.4634 228.071 24.364 228.071 23.1022C227.133 22.3612 225.825 21.9916 224.147 21.9916C222.925 21.9916 221.907 22.2865 221.09 22.8745C220.273 23.4623 219.864 24.1886 219.864 25.0602ZM223.756 13.4317C225.98 13.4317 227.735 14.0252 229.022 15.2124C230.308 16.3995 230.95 18.0271 230.95 20.0952V29.9599H228.073V27.7387H227.942C226.699 29.5677 225.042 30.4825 222.972 30.4825C221.206 30.4825 219.728 29.9599 218.541 28.9146C217.353 27.8694 216.759 26.5628 216.759 24.9949C216.759 23.3393 217.385 22.0232 218.638 21.0434C219.892 20.0635 221.565 19.5726 223.658 19.5726C225.444 19.5726 226.916 19.8992 228.071 20.5525V19.8656C228.071 18.8204 227.656 17.9338 226.829 17.204C225.999 16.4741 225.031 16.1102 223.919 16.1102C222.239 16.1102 220.911 16.8176 219.93 18.2343L217.28 16.5675C218.741 14.4769 220.899 13.4317 223.756 13.4317Z" fill="#5F6368"/>
<path id="Fill 5" fill-rule="evenodd" clip-rule="evenodd" d="M247.463 13.9543L237.424 37.0154H234.318L238.046 28.9464L231.44 13.9543H234.71L239.484 25.4522H239.55L244.193 13.9543H247.463Z" fill="#5F6368"/>
</g>
<g id="G">
<path id="Fill 8" fill-rule="evenodd" clip-rule="evenodd" d="M192.373 18.4452C192.373 17.4989 192.293 16.5861 192.141 15.7126H179.454V20.8885H186.72C186.408 22.5757 185.465 24.0112 184.033 24.9725V28.3341H188.37C190.91 25.9935 192.373 22.5348 192.373 18.4452Z" fill="#4285F4"/>
<path id="Fill 10" fill-rule="evenodd" clip-rule="evenodd" d="M179.454 31.5782C183.084 31.5782 186.141 30.3873 188.37 28.3341L184.033 24.9725C182.826 25.7844 181.272 26.2585 179.454 26.2585C175.944 26.2585 172.966 23.8955 171.901 20.7112H167.433V24.1736C169.647 28.5637 174.197 31.5782 179.454 31.5782Z" fill="#34A853"/>
<path id="Fill 12" fill-rule="evenodd" clip-rule="evenodd" d="M171.901 20.7111C171.628 19.8992 171.479 19.0331 171.479 18.139C171.479 17.245 171.628 16.3789 171.901 15.567V12.1045H167.433C166.518 13.9188 166 15.9683 166 18.139C166 20.3098 166.518 22.3595 167.433 24.1736L171.901 20.7111Z" fill="#FABB05"/>
<path id="Fill 14" fill-rule="evenodd" clip-rule="evenodd" d="M179.454 10.0196C181.436 10.0196 183.213 10.7009 184.615 12.0355V12.0374L188.455 8.20162C186.123 6.03271 183.082 4.7 179.454 4.7C174.197 4.7 169.647 7.71446 167.433 12.1046L171.901 15.567C172.966 12.3827 175.944 10.0196 179.454 10.0196Z" fill="#E94235"/>
</g>
</g>
</g>
</g>
</svg>
