<svg width="142" height="21" viewBox="0 0 142 21" fill="none" xmlns="http://www.w3.org/2000/svg">
<g id="pt_donate_with_Pay_NBG">
<path id="Left Text" d="M2.0085 15.0006V3.54461H5.6725C6.87783 3.54461 7.9125 3.78994 8.7765 4.28061C9.65117 4.76061 10.3232 5.43261 10.7925 6.29661C11.2725 7.16061 11.5125 8.15261 11.5125 9.27261C11.5125 10.3926 11.2725 11.3846 10.7925 12.2486C10.3232 13.1126 9.65117 13.7899 8.7765 14.2806C7.9125 14.7606 6.87783 15.0006 5.6725 15.0006H2.0085ZM3.7685 13.3366H5.6245C6.4885 13.3366 7.22984 13.1766 7.8485 12.8566C8.46717 12.5259 8.9365 12.0566 9.2565 11.4486C9.5765 10.8406 9.7365 10.1153 9.7365 9.27261C9.7365 8.42994 9.5765 7.70461 9.2565 7.09661C8.9365 6.48861 8.46717 6.02461 7.8485 5.70461C7.22984 5.37394 6.4885 5.20861 5.6245 5.20861H3.7685V13.3366ZM16.9918 15.2566C16.1491 15.2566 15.4078 15.0646 14.7678 14.6806C14.1278 14.2966 13.6264 13.7793 13.2638 13.1286C12.9011 12.4673 12.7198 11.7313 12.7198 10.9206C12.7198 10.1099 12.9011 9.37928 13.2638 8.72861C13.6264 8.06728 14.1278 7.54461 14.7678 7.16061C15.4078 6.77661 16.1491 6.58461 16.9918 6.58461C17.8238 6.58461 18.5598 6.78194 19.1998 7.17661C19.8398 7.56061 20.3411 8.07794 20.7038 8.72861C21.0664 9.37928 21.2478 10.1099 21.2478 10.9206C21.2478 11.7313 21.0664 12.4673 20.7038 13.1286C20.3411 13.7793 19.8398 14.2966 19.1998 14.6806C18.5598 15.0646 17.8238 15.2566 16.9918 15.2566ZM16.9918 13.6726C17.4398 13.6726 17.8558 13.5659 18.2398 13.3526C18.6238 13.1286 18.9331 12.8139 19.1678 12.4086C19.4131 11.9926 19.5358 11.4966 19.5358 10.9206C19.5358 10.3446 19.4131 9.85394 19.1678 9.44861C18.9331 9.03261 18.6238 8.71794 18.2398 8.50461C17.8558 8.28061 17.4398 8.16861 16.9918 8.16861C16.5438 8.16861 16.1224 8.28061 15.7278 8.50461C15.3438 8.71794 15.0291 9.03261 14.7838 9.44861C14.5491 9.85394 14.4318 10.3446 14.4318 10.9206C14.4318 11.4966 14.5491 11.9926 14.7838 12.4086C15.0291 12.8139 15.3491 13.1286 15.7438 13.3526C16.1384 13.5659 16.5544 13.6726 16.9918 13.6726ZM25.5493 15.2566C24.9626 15.2566 24.4399 15.1393 23.9813 14.9046C23.5333 14.6699 23.1759 14.3499 22.9093 13.9446C22.6533 13.5286 22.5253 13.0539 22.5253 12.5206C22.5253 11.9339 22.6746 11.4379 22.9733 11.0326C23.2826 10.6273 23.6933 10.3179 24.2053 10.1046C24.7173 9.89128 25.2826 9.78461 25.9013 9.78461C26.2426 9.78461 26.5573 9.81128 26.8453 9.86461C27.1439 9.90728 27.3999 9.96061 27.6133 10.0246C27.8373 10.0886 28.0133 10.1579 28.1413 10.2326V9.80061C28.1413 9.26728 27.9493 8.84061 27.5653 8.52061C27.1813 8.20061 26.6853 8.04061 26.0773 8.04061C25.6613 8.04061 25.2666 8.13661 24.8933 8.32861C24.5199 8.50994 24.2213 8.76061 23.9973 9.08061L22.8133 8.16861C23.0479 7.83794 23.3306 7.55528 23.6613 7.32061C24.0026 7.08594 24.3813 6.90461 24.7973 6.77661C25.2239 6.64861 25.6666 6.58461 26.1253 6.58461C27.3093 6.58461 28.2213 6.87794 28.8613 7.46461C29.5013 8.04061 29.8213 8.85128 29.8213 9.89661V15.0006H28.1413V13.9926H28.0453C27.9066 14.2059 27.7146 14.4086 27.4693 14.6006C27.2346 14.7926 26.9519 14.9473 26.6213 15.0646C26.3013 15.1926 25.9439 15.2566 25.5493 15.2566ZM25.8533 13.8486C26.3013 13.8486 26.6959 13.7419 27.0373 13.5286C27.3893 13.3153 27.6613 13.0379 27.8533 12.6966C28.0453 12.3446 28.1413 11.9659 28.1413 11.5606C27.9066 11.4219 27.6186 11.3099 27.2773 11.2246C26.9466 11.1286 26.5946 11.0806 26.2213 11.0806C25.5173 11.0806 25.0159 11.2193 24.7173 11.4966C24.4186 11.7739 24.2693 12.1206 24.2693 12.5366C24.2693 12.9206 24.4133 13.2353 24.7013 13.4806C24.9893 13.7259 25.3733 13.8486 25.8533 13.8486ZM31.8736 15.0006V6.84061H33.5056V8.04061H33.6016C33.7296 7.76328 33.911 7.51794 34.1456 7.30461C34.391 7.09128 34.6683 6.92061 34.9776 6.79261C35.2976 6.66461 35.6283 6.60061 35.9696 6.60061C36.1936 6.60061 36.3803 6.61661 36.5296 6.64861C36.6896 6.66994 36.8336 6.70728 36.9616 6.76061V8.55261C36.759 8.46728 36.551 8.39794 36.3376 8.34461C36.135 8.29128 35.9216 8.26461 35.6976 8.26461C35.2923 8.26461 34.9296 8.37661 34.6096 8.60061C34.3003 8.81394 34.055 9.10194 33.8736 9.46461C33.6923 9.82728 33.6016 10.2326 33.6016 10.6806V15.0006H31.8736ZM46.1059 15.2566C45.2845 15.2566 44.5539 15.0699 43.9139 14.6966C43.2845 14.3233 42.7885 13.8113 42.4259 13.1606C42.0739 12.4993 41.8979 11.7526 41.8979 10.9206C41.8979 10.0886 42.0739 9.34728 42.4259 8.69661C42.7885 8.04594 43.2845 7.53394 43.9139 7.16061C44.5539 6.77661 45.2845 6.58461 46.1059 6.58461C47.0125 6.58461 47.7752 6.78728 48.3939 7.19261C49.0232 7.59794 49.4712 8.14728 49.7379 8.84061L48.1699 9.48061C47.9779 9.04328 47.7005 8.71794 47.3379 8.50461C46.9859 8.28061 46.5645 8.16861 46.0739 8.16861C45.6259 8.16861 45.2152 8.28594 44.8419 8.52061C44.4685 8.74461 44.1699 9.05928 43.9459 9.46461C43.7219 9.86994 43.6099 10.3553 43.6099 10.9206C43.6099 11.4753 43.7219 11.9606 43.9459 12.3766C44.1699 12.7926 44.4685 13.1126 44.8419 13.3366C45.2152 13.5606 45.6259 13.6726 46.0739 13.6726C46.5965 13.6726 47.0392 13.5553 47.4019 13.3206C47.7645 13.0859 48.0472 12.7553 48.2499 12.3286L49.7859 13.0006C49.4872 13.6513 49.0232 14.1899 48.3939 14.6166C47.7752 15.0433 47.0125 15.2566 46.1059 15.2566ZM55.1793 15.2566C54.3366 15.2566 53.5953 15.0646 52.9553 14.6806C52.3153 14.2966 51.8139 13.7793 51.4513 13.1286C51.0886 12.4673 50.9073 11.7313 50.9073 10.9206C50.9073 10.1099 51.0886 9.37928 51.4513 8.72861C51.8139 8.06728 52.3153 7.54461 52.9553 7.16061C53.5953 6.77661 54.3366 6.58461 55.1793 6.58461C56.0113 6.58461 56.7473 6.78194 57.3873 7.17661C58.0273 7.56061 58.5286 8.07794 58.8913 8.72861C59.2539 9.37928 59.4353 10.1099 59.4353 10.9206C59.4353 11.7313 59.2539 12.4673 58.8913 13.1286C58.5286 13.7793 58.0273 14.2966 57.3873 14.6806C56.7473 15.0646 56.0113 15.2566 55.1793 15.2566ZM55.1793 13.6726C55.6273 13.6726 56.0433 13.5659 56.4273 13.3526C56.8113 13.1286 57.1206 12.8139 57.3553 12.4086C57.6006 11.9926 57.7233 11.4966 57.7233 10.9206C57.7233 10.3446 57.6006 9.85394 57.3553 9.44861C57.1206 9.03261 56.8113 8.71794 56.4273 8.50461C56.0433 8.28061 55.6273 8.16861 55.1793 8.16861C54.7313 8.16861 54.3099 8.28061 53.9153 8.50461C53.5313 8.71794 53.2166 9.03261 52.9713 9.44861C52.7366 9.85394 52.6193 10.3446 52.6193 10.9206C52.6193 11.4966 52.7366 11.9926 52.9713 12.4086C53.2166 12.8139 53.5366 13.1286 53.9313 13.3526C54.3259 13.5659 54.7419 13.6726 55.1793 13.6726ZM61.0205 15.0006V6.84061H62.6525V7.96061H62.7485C62.9085 7.69394 63.1165 7.45928 63.3725 7.25661C63.6285 7.05394 63.9165 6.89394 64.2365 6.77661C64.5672 6.64861 64.9085 6.58461 65.2605 6.58461C65.8685 6.58461 66.3858 6.72861 66.8125 7.01661C67.2392 7.30461 67.5432 7.66728 67.7245 8.10461C67.9912 7.67794 68.3538 7.32061 68.8125 7.03261C69.2712 6.73394 69.8312 6.58461 70.4925 6.58461C71.4525 6.58461 72.1672 6.87794 72.6365 7.46461C73.1058 8.04061 73.3405 8.80861 73.3405 9.76861V15.0006H71.6285V10.0566C71.6285 9.39528 71.4845 8.91528 71.1965 8.61661C70.9192 8.31794 70.5298 8.16861 70.0285 8.16861C69.6338 8.16861 69.2872 8.28061 68.9885 8.50461C68.6898 8.71794 68.4552 9.01128 68.2845 9.38461C68.1245 9.75794 68.0445 10.1739 68.0445 10.6326V15.0006H66.3325V10.0566C66.3325 9.40594 66.1885 8.93128 65.9005 8.63261C65.6125 8.32328 65.2072 8.16861 64.6845 8.16861C64.3112 8.16861 63.9752 8.28061 63.6765 8.50461C63.3885 8.72861 63.1592 9.02728 62.9885 9.40061C62.8285 9.77394 62.7485 10.1899 62.7485 10.6486V15.0006H61.0205ZM83.1605 15.2566C82.3178 15.2566 81.5765 15.0646 80.9365 14.6806C80.2965 14.2966 79.7952 13.7793 79.4325 13.1286C79.0698 12.4673 78.8885 11.7313 78.8885 10.9206C78.8885 10.1099 79.0698 9.37928 79.4325 8.72861C79.7952 8.06728 80.2965 7.54461 80.9365 7.16061C81.5765 6.77661 82.3178 6.58461 83.1605 6.58461C83.9925 6.58461 84.7285 6.78194 85.3685 7.17661C86.0085 7.56061 86.5098 8.07794 86.8725 8.72861C87.2352 9.37928 87.4165 10.1099 87.4165 10.9206C87.4165 11.7313 87.2352 12.4673 86.8725 13.1286C86.5098 13.7793 86.0085 14.2966 85.3685 14.6806C84.7285 15.0646 83.9925 15.2566 83.1605 15.2566ZM83.1605 13.6726C83.6085 13.6726 84.0245 13.5659 84.4085 13.3526C84.7925 13.1286 85.1018 12.8139 85.3365 12.4086C85.5818 11.9926 85.7045 11.4966 85.7045 10.9206C85.7045 10.3446 85.5818 9.85394 85.3365 9.44861C85.1018 9.03261 84.7925 8.71794 84.4085 8.50461C84.0245 8.28061 83.6085 8.16861 83.1605 8.16861C82.7125 8.16861 82.2912 8.28061 81.8965 8.50461C81.5125 8.71794 81.1978 9.03261 80.9525 9.44861C80.7178 9.85394 80.6005 10.3446 80.6005 10.9206C80.6005 11.4966 80.7178 11.9926 80.9525 12.4086C81.1978 12.8139 81.5178 13.1286 81.9125 13.3526C82.3072 13.5659 82.7232 13.6726 83.1605 13.6726Z" fill="white"/>
<g id="GPay (Dark)">
<g id="GPay">
<g id="Pay">
<path id="Fill 1" fill-rule="evenodd" clip-rule="evenodd" d="M116.356 3.42339V8.16175H119.278C119.974 8.16175 120.55 7.92781 121.005 7.45993C121.473 6.99313 121.707 6.43644 121.707 5.79203C121.707 5.16061 121.473 4.61041 121.005 4.14254C120.55 3.66274 119.974 3.4223 119.278 3.4223H116.356V3.42339ZM116.356 9.82966V15.3262H114.611V1.75549H119.24C120.417 1.75549 121.415 2.14756 122.238 2.93061C123.073 3.71365 123.491 4.66782 123.491 5.79203C123.491 6.94224 123.073 7.90291 122.238 8.67296C121.428 9.44409 120.429 9.82858 119.24 9.82858H116.356V9.82966Z" fill="white"/>
<path id="Fill 3" fill-rule="evenodd" clip-rule="evenodd" d="M125.255 12.4831C125.255 12.9379 125.448 13.317 125.834 13.6203C126.22 13.9235 126.672 14.0752 127.19 14.0752C127.924 14.0752 128.578 13.8032 129.153 13.2607C129.729 12.717 130.017 12.0791 130.017 11.3469C129.472 10.917 128.713 10.7025 127.74 10.7025C127.031 10.7025 126.44 10.8736 125.966 11.2148C125.492 11.5559 125.255 11.9773 125.255 12.4831M127.513 5.73566C128.803 5.73566 129.821 6.08007 130.569 6.76889C131.314 7.45771 131.687 8.40213 131.687 9.60216V15.3261H130.018V14.0373H129.942C129.221 15.0985 128.259 15.6294 127.058 15.6294C126.033 15.6294 125.176 15.3261 124.487 14.7196C123.797 14.1131 123.453 13.3549 123.453 12.4452C123.453 11.4845 123.816 10.7208 124.543 10.1523C125.271 9.58375 126.241 9.2989 127.456 9.2989C128.492 9.2989 129.346 9.48844 130.017 9.86751V9.46894C130.017 8.86243 129.776 8.34798 129.296 7.92451C128.814 7.50103 128.252 7.28984 127.607 7.28984C126.633 7.28984 125.862 7.70032 125.293 8.52235L123.755 7.55519C124.603 6.34217 125.855 5.73566 127.513 5.73566" fill="white"/>
<path id="Fill 5" fill-rule="evenodd" clip-rule="evenodd" d="M141.269 6.03894L135.443 19.4201H133.641L135.804 14.738L131.971 6.03894H133.869L136.639 12.7106H136.677L139.371 6.03894H141.269Z" fill="white"/>
</g>
<g id="G">
<path id="Fill 8" fill-rule="evenodd" clip-rule="evenodd" d="M109.303 8.64473C109.303 8.09563 109.256 7.56601 109.168 7.05914H101.806V10.0625H106.023C105.842 11.0414 105.294 11.8744 104.464 12.4322V14.3828H106.98C108.454 13.0246 109.303 11.0177 109.303 8.64473" fill="#4285F4"/>
<path id="Fill 10" fill-rule="evenodd" clip-rule="evenodd" d="M101.806 16.2651C103.913 16.2651 105.687 15.5741 106.98 14.3828L104.464 12.4322C103.763 12.9033 102.861 13.1784 101.806 13.1784C99.7703 13.1784 98.042 11.8073 97.424 9.95959H94.8316V11.9687C96.1164 14.516 98.7565 16.2651 101.806 16.2651" fill="#34A853"/>
<path id="Fill 12" fill-rule="evenodd" clip-rule="evenodd" d="M97.424 9.9596C97.2657 9.48847 97.179 8.98593 97.179 8.46715C97.179 7.94837 97.2657 7.44583 97.424 6.9747V4.96564H94.8316C94.3003 6.01837 94 7.20756 94 8.46715C94 9.72674 94.3003 10.916 94.8316 11.9687L97.424 9.9596Z" fill="#FABB05"/>
<path id="Fill 14" fill-rule="evenodd" clip-rule="evenodd" d="M101.806 3.75583C102.957 3.75583 103.988 4.15115 104.801 4.92553V4.92661L107.029 2.70094C105.676 1.44243 103.912 0.669128 101.806 0.669128C98.7565 0.669128 96.1164 2.41826 94.8316 4.9656L97.424 6.97467C98.042 5.12698 99.7703 3.75583 101.806 3.75583" fill="#E94235"/>
</g>
</g>
</g>
</g>
</svg>
