<svg width="144" height="21" viewBox="0 0 144 21" fill="none" xmlns="http://www.w3.org/2000/svg">
<g id="pt_order_with_Pay_NBG">
<path id="Left Text" d="M1.49913 15.0006V3.54461H5.43513C6.12846 3.54461 6.75779 3.69394 7.32313 3.99261C7.88846 4.28061 8.33646 4.69128 8.66713 5.22461C9.00846 5.74728 9.17913 6.35528 9.17913 7.04861C9.17913 7.73128 9.00846 8.33928 8.66713 8.87261C8.33646 9.40594 7.88846 9.82194 7.32313 10.1206C6.75779 10.4086 6.12846 10.5526 5.43513 10.5526H3.25913V15.0006H1.49913ZM3.25913 8.88861H5.48313C5.89913 8.88861 6.25113 8.80328 6.53913 8.63261C6.82713 8.45128 7.04579 8.22194 7.19513 7.94461C7.35513 7.65661 7.43513 7.35794 7.43513 7.04861C7.43513 6.73928 7.35513 6.44594 7.19513 6.16861C7.04579 5.89128 6.82713 5.66194 6.53913 5.48061C6.25113 5.29928 5.89913 5.20861 5.48313 5.20861H3.25913V8.88861ZM14.011 15.2566C13.211 15.2566 12.4963 15.0699 11.867 14.6966C11.2377 14.3233 10.7417 13.8113 10.379 13.1606C10.027 12.5099 9.851 11.7686 9.851 10.9366C9.851 10.1579 10.0217 9.43794 10.363 8.77661C10.7043 8.11528 11.179 7.58728 11.787 7.19261C12.4057 6.78728 13.115 6.58461 13.915 6.58461C14.7577 6.58461 15.4723 6.76594 16.059 7.12861C16.6563 7.49128 17.1097 7.98728 17.419 8.61661C17.7283 9.24594 17.883 9.95528 17.883 10.7446C17.883 10.8619 17.8777 10.9686 17.867 11.0646C17.867 11.1606 17.8617 11.2353 17.851 11.2886H11.547C11.5897 11.7366 11.7017 12.1259 11.883 12.4566C12.1177 12.8726 12.427 13.1873 12.811 13.4006C13.195 13.6139 13.611 13.7206 14.059 13.7206C14.603 13.7206 15.0563 13.5979 15.419 13.3526C15.7923 13.0966 16.0857 12.7819 16.299 12.4086L17.723 13.0966C17.371 13.7366 16.891 14.2593 16.283 14.6646C15.675 15.0593 14.9177 15.2566 14.011 15.2566ZM11.643 9.99261H16.171C16.1603 9.78994 16.107 9.57661 16.011 9.35261C15.915 9.11794 15.7763 8.90461 15.595 8.71261C15.4137 8.52061 15.1843 8.36594 14.907 8.24861C14.6297 8.12061 14.3043 8.05661 13.931 8.05661C13.4617 8.05661 13.0457 8.17928 12.683 8.42461C12.3203 8.65928 12.0377 8.98994 11.835 9.41661C11.7497 9.59794 11.6857 9.78994 11.643 9.99261ZM23.2022 15.2566C22.4662 15.2566 21.7996 15.0699 21.2022 14.6966C20.6049 14.3233 20.1356 13.8113 19.7942 13.1606C19.4529 12.5099 19.2822 11.7633 19.2822 10.9206C19.2822 10.0779 19.4529 9.33128 19.7942 8.68061C20.1356 8.02994 20.6049 7.51794 21.2022 7.14461C21.7996 6.77128 22.4662 6.58461 23.2022 6.58461C23.6289 6.58461 24.0129 6.64861 24.3542 6.77661C24.6956 6.90461 24.9889 7.07528 25.2342 7.28861C25.4902 7.49128 25.6876 7.70994 25.8262 7.94461H25.9222L25.8262 6.80861V3.54461H27.5382V15.0006H25.9222V13.9126H25.8262C25.6876 14.1366 25.4902 14.3553 25.2342 14.5686C24.9889 14.7713 24.6956 14.9366 24.3542 15.0646C24.0129 15.1926 23.6289 15.2566 23.2022 15.2566ZM23.4582 13.6726C23.8849 13.6726 24.2849 13.5606 24.6582 13.3366C25.0422 13.1126 25.3462 12.7979 25.5702 12.3926C25.8049 11.9766 25.9222 11.4859 25.9222 10.9206C25.9222 10.3553 25.8049 9.86994 25.5702 9.46461C25.3462 9.04861 25.0422 8.72861 24.6582 8.50461C24.2849 8.28061 23.8849 8.16861 23.4582 8.16861C23.0316 8.16861 22.6316 8.28061 22.2582 8.50461C21.8849 8.72861 21.5809 9.04861 21.3462 9.46461C21.1116 9.86994 20.9942 10.3553 20.9942 10.9206C20.9942 11.4753 21.1116 11.9606 21.3462 12.3766C21.5809 12.7926 21.8849 13.1126 22.2582 13.3366C22.6316 13.5606 23.0316 13.6726 23.4582 13.6726ZM29.8516 15.0006V6.84061H31.5796V15.0006H29.8516ZM30.7156 5.64061C30.3956 5.64061 30.1183 5.52861 29.8836 5.30461C29.6596 5.06994 29.5476 4.79261 29.5476 4.47261C29.5476 4.14194 29.6596 3.86994 29.8836 3.65661C30.1183 3.43261 30.3956 3.32061 30.7156 3.32061C31.0463 3.32061 31.3236 3.43261 31.5476 3.65661C31.7716 3.86994 31.8836 4.14194 31.8836 4.47261C31.8836 4.79261 31.7716 5.06994 31.5476 5.30461C31.3236 5.52861 31.0463 5.64061 30.7156 5.64061ZM33.8736 15.0006V6.84061H35.5056V8.04061H35.6016C35.7296 7.76328 35.911 7.51794 36.1456 7.30461C36.391 7.09128 36.6683 6.92061 36.9776 6.79261C37.2976 6.66461 37.6283 6.60061 37.9696 6.60061C38.1936 6.60061 38.3803 6.61661 38.5296 6.64861C38.6896 6.66994 38.8336 6.70728 38.9616 6.76061V8.55261C38.759 8.46728 38.551 8.39794 38.3376 8.34461C38.135 8.29128 37.9216 8.26461 37.6976 8.26461C37.2923 8.26461 36.9296 8.37661 36.6096 8.60061C36.3003 8.81394 36.055 9.10194 35.8736 9.46461C35.6923 9.82728 35.6016 10.2326 35.6016 10.6806V15.0006H33.8736ZM48.1059 15.2566C47.2845 15.2566 46.5539 15.0699 45.9139 14.6966C45.2845 14.3233 44.7885 13.8113 44.4259 13.1606C44.0739 12.4993 43.8979 11.7526 43.8979 10.9206C43.8979 10.0886 44.0739 9.34728 44.4259 8.69661C44.7885 8.04594 45.2845 7.53394 45.9139 7.16061C46.5539 6.77661 47.2845 6.58461 48.1059 6.58461C49.0125 6.58461 49.7752 6.78728 50.3939 7.19261C51.0232 7.59794 51.4712 8.14728 51.7379 8.84061L50.1699 9.48061C49.9779 9.04328 49.7005 8.71794 49.3379 8.50461C48.9859 8.28061 48.5645 8.16861 48.0739 8.16861C47.6259 8.16861 47.2152 8.28594 46.8419 8.52061C46.4685 8.74461 46.1699 9.05928 45.9459 9.46461C45.7219 9.86994 45.6099 10.3553 45.6099 10.9206C45.6099 11.4753 45.7219 11.9606 45.9459 12.3766C46.1699 12.7926 46.4685 13.1126 46.8419 13.3366C47.2152 13.5606 47.6259 13.6726 48.0739 13.6726C48.5965 13.6726 49.0392 13.5553 49.4019 13.3206C49.7645 13.0859 50.0472 12.7553 50.2499 12.3286L51.7859 13.0006C51.4872 13.6513 51.0232 14.1899 50.3939 14.6166C49.7752 15.0433 49.0125 15.2566 48.1059 15.2566ZM57.1792 15.2566C56.3366 15.2566 55.5952 15.0646 54.9552 14.6806C54.3152 14.2966 53.8139 13.7793 53.4512 13.1286C53.0886 12.4673 52.9072 11.7313 52.9072 10.9206C52.9072 10.1099 53.0886 9.37928 53.4512 8.72861C53.8139 8.06728 54.3152 7.54461 54.9552 7.16061C55.5952 6.77661 56.3366 6.58461 57.1792 6.58461C58.0112 6.58461 58.7472 6.78194 59.3872 7.17661C60.0272 7.56061 60.5286 8.07794 60.8912 8.72861C61.2539 9.37928 61.4352 10.1099 61.4352 10.9206C61.4352 11.7313 61.2539 12.4673 60.8912 13.1286C60.5286 13.7793 60.0272 14.2966 59.3872 14.6806C58.7472 15.0646 58.0112 15.2566 57.1792 15.2566ZM57.1792 13.6726C57.6272 13.6726 58.0432 13.5659 58.4272 13.3526C58.8112 13.1286 59.1206 12.8139 59.3552 12.4086C59.6006 11.9926 59.7232 11.4966 59.7232 10.9206C59.7232 10.3446 59.6006 9.85394 59.3552 9.44861C59.1206 9.03261 58.8112 8.71794 58.4272 8.50461C58.0432 8.28061 57.6272 8.16861 57.1792 8.16861C56.7312 8.16861 56.3099 8.28061 55.9152 8.50461C55.5312 8.71794 55.2166 9.03261 54.9712 9.44861C54.7366 9.85394 54.6192 10.3446 54.6192 10.9206C54.6192 11.4966 54.7366 11.9926 54.9712 12.4086C55.2166 12.8139 55.5366 13.1286 55.9312 13.3526C56.3259 13.5659 56.7419 13.6726 57.1792 13.6726ZM63.0205 15.0006V6.84061H64.6525V7.96061H64.7485C64.9085 7.69394 65.1165 7.45928 65.3725 7.25661C65.6285 7.05394 65.9165 6.89394 66.2365 6.77661C66.5672 6.64861 66.9085 6.58461 67.2605 6.58461C67.8685 6.58461 68.3858 6.72861 68.8125 7.01661C69.2392 7.30461 69.5432 7.66728 69.7245 8.10461C69.9912 7.67794 70.3538 7.32061 70.8125 7.03261C71.2712 6.73394 71.8312 6.58461 72.4925 6.58461C73.4525 6.58461 74.1672 6.87794 74.6365 7.46461C75.1058 8.04061 75.3405 8.80861 75.3405 9.76861V15.0006H73.6285V10.0566C73.6285 9.39528 73.4845 8.91528 73.1965 8.61661C72.9192 8.31794 72.5298 8.16861 72.0285 8.16861C71.6338 8.16861 71.2872 8.28061 70.9885 8.50461C70.6898 8.71794 70.4552 9.01128 70.2845 9.38461C70.1245 9.75794 70.0445 10.1739 70.0445 10.6326V15.0006H68.3325V10.0566C68.3325 9.40594 68.1885 8.93128 67.9005 8.63261C67.6125 8.32328 67.2072 8.16861 66.6845 8.16861C66.3112 8.16861 65.9752 8.28061 65.6765 8.50461C65.3885 8.72861 65.1592 9.02728 64.9885 9.40061C64.8285 9.77394 64.7485 10.1899 64.7485 10.6486V15.0006H63.0205ZM85.1605 15.2566C84.3178 15.2566 83.5765 15.0646 82.9365 14.6806C82.2965 14.2966 81.7952 13.7793 81.4325 13.1286C81.0698 12.4673 80.8885 11.7313 80.8885 10.9206C80.8885 10.1099 81.0698 9.37928 81.4325 8.72861C81.7952 8.06728 82.2965 7.54461 82.9365 7.16061C83.5765 6.77661 84.3178 6.58461 85.1605 6.58461C85.9925 6.58461 86.7285 6.78194 87.3685 7.17661C88.0085 7.56061 88.5098 8.07794 88.8725 8.72861C89.2352 9.37928 89.4165 10.1099 89.4165 10.9206C89.4165 11.7313 89.2352 12.4673 88.8725 13.1286C88.5098 13.7793 88.0085 14.2966 87.3685 14.6806C86.7285 15.0646 85.9925 15.2566 85.1605 15.2566ZM85.1605 13.6726C85.6085 13.6726 86.0245 13.5659 86.4085 13.3526C86.7925 13.1286 87.1018 12.8139 87.3365 12.4086C87.5818 11.9926 87.7045 11.4966 87.7045 10.9206C87.7045 10.3446 87.5818 9.85394 87.3365 9.44861C87.1018 9.03261 86.7925 8.71794 86.4085 8.50461C86.0245 8.28061 85.6085 8.16861 85.1605 8.16861C84.7125 8.16861 84.2912 8.28061 83.8965 8.50461C83.5125 8.71794 83.1978 9.03261 82.9525 9.44861C82.7178 9.85394 82.6005 10.3446 82.6005 10.9206C82.6005 11.4966 82.7178 11.9926 82.9525 12.4086C83.1978 12.8139 83.5178 13.1286 83.9125 13.3526C84.3072 13.5659 84.7232 13.6726 85.1605 13.6726Z" fill="white"/>
<g id="GPay (Dark)">
<g id="GPay">
<g id="Pay">
<path id="Fill 1" fill-rule="evenodd" clip-rule="evenodd" d="M118.356 3.42339V8.16175H121.278C121.974 8.16175 122.55 7.92781 123.005 7.45993C123.473 6.99313 123.707 6.43644 123.707 5.79203C123.707 5.16061 123.473 4.61041 123.005 4.14254C122.55 3.66274 121.974 3.4223 121.278 3.4223H118.356V3.42339ZM118.356 9.82966V15.3262H116.611V1.75549H121.24C122.417 1.75549 123.415 2.14756 124.238 2.93061C125.073 3.71365 125.491 4.66782 125.491 5.79203C125.491 6.94224 125.073 7.90291 124.238 8.67296C123.428 9.44409 122.429 9.82858 121.24 9.82858H118.356V9.82966Z" fill="white"/>
<path id="Fill 3" fill-rule="evenodd" clip-rule="evenodd" d="M127.255 12.4831C127.255 12.9379 127.448 13.317 127.834 13.6203C128.22 13.9235 128.672 14.0752 129.19 14.0752C129.924 14.0752 130.578 13.8032 131.153 13.2607C131.729 12.717 132.017 12.0791 132.017 11.3469C131.472 10.917 130.713 10.7025 129.74 10.7025C129.031 10.7025 128.44 10.8736 127.966 11.2148C127.492 11.5559 127.255 11.9773 127.255 12.4831M129.513 5.73566C130.803 5.73566 131.821 6.08007 132.569 6.76889C133.314 7.45771 133.687 8.40213 133.687 9.60216V15.3261H132.018V14.0373H131.942C131.221 15.0985 130.259 15.6294 129.058 15.6294C128.033 15.6294 127.176 15.3261 126.487 14.7196C125.797 14.1131 125.453 13.3549 125.453 12.4452C125.453 11.4845 125.816 10.7208 126.543 10.1523C127.271 9.58375 128.241 9.2989 129.456 9.2989C130.492 9.2989 131.346 9.48844 132.017 9.86751V9.46894C132.017 8.86243 131.776 8.34798 131.296 7.92451C130.814 7.50103 130.252 7.28984 129.607 7.28984C128.633 7.28984 127.862 7.70032 127.293 8.52235L125.755 7.55519C126.603 6.34217 127.855 5.73566 129.513 5.73566" fill="white"/>
<path id="Fill 5" fill-rule="evenodd" clip-rule="evenodd" d="M143.269 6.03894L137.443 19.4201H135.641L137.804 14.738L133.971 6.03894H135.869L138.639 12.7106H138.677L141.371 6.03894H143.269Z" fill="white"/>
</g>
<g id="G">
<path id="Fill 8" fill-rule="evenodd" clip-rule="evenodd" d="M111.303 8.64473C111.303 8.09563 111.256 7.56601 111.168 7.05914H103.806V10.0625H108.023C107.842 11.0414 107.294 11.8744 106.464 12.4322V14.3828H108.98C110.454 13.0246 111.303 11.0177 111.303 8.64473" fill="#4285F4"/>
<path id="Fill 10" fill-rule="evenodd" clip-rule="evenodd" d="M103.806 16.2651C105.913 16.2651 107.687 15.5741 108.98 14.3828L106.464 12.4322C105.763 12.9033 104.861 13.1784 103.806 13.1784C101.77 13.1784 100.042 11.8073 99.424 9.95959H96.8316V11.9687C98.1164 14.516 100.757 16.2651 103.806 16.2651" fill="#34A853"/>
<path id="Fill 12" fill-rule="evenodd" clip-rule="evenodd" d="M99.424 9.9596C99.2657 9.48847 99.179 8.98593 99.179 8.46715C99.179 7.94837 99.2657 7.44583 99.424 6.9747V4.96564H96.8316C96.3003 6.01837 96 7.20756 96 8.46715C96 9.72674 96.3003 10.916 96.8316 11.9687L99.424 9.9596Z" fill="#FABB05"/>
<path id="Fill 14" fill-rule="evenodd" clip-rule="evenodd" d="M103.806 3.75583C104.957 3.75583 105.988 4.15115 106.801 4.92553V4.92661L109.029 2.70094C107.676 1.44243 105.912 0.669128 103.806 0.669128C100.757 0.669128 98.1164 2.41826 96.8316 4.9656L99.424 6.97467C100.042 5.12698 101.77 3.75583 103.806 3.75583" fill="#E94235"/>
</g>
</g>
</g>
</g>
</svg>
