<svg width="252" height="38" viewBox="0 0 252 38" fill="none" xmlns="http://www.w3.org/2000/svg">
<g id="pt_order_with_Light">
<path id="Text" d="M2.74847 30V9.952H9.63647C10.8498 9.952 11.9511 10.2133 12.9405 10.736C13.9298 11.2587 14.7138 11.9773 15.2925 12.892C15.8898 13.8067 16.1885 14.8707 16.1885 16.084C16.1885 17.2973 15.8898 18.3707 15.2925 19.304C14.7138 20.2187 13.9298 20.9373 12.9405 21.46C11.9511 21.964 10.8498 22.216 9.63647 22.216H5.82847V30H2.74847ZM9.72047 12.864H5.82847V19.304H9.72047C10.4485 19.304 11.0645 19.1547 11.5685 18.856C12.0725 18.5387 12.4551 18.1373 12.7165 17.652C12.9965 17.148 13.1365 16.6253 13.1365 16.084C13.1365 15.5427 12.9965 15.0293 12.7165 14.544C12.4551 14.0587 12.0725 13.6573 11.5685 13.34C11.0645 13.0227 10.4485 12.864 9.72047 12.864ZM24.6817 30.448C23.2817 30.448 22.0311 30.1213 20.9297 29.468C19.8284 28.8147 18.9604 27.9187 18.3257 26.78C17.7097 25.6413 17.4017 24.344 17.4017 22.888C17.4017 21.5253 17.7004 20.2653 18.2977 19.108C18.8951 17.9507 19.7257 17.0267 20.7897 16.336C21.8724 15.6267 23.1137 15.272 24.5137 15.272C25.9884 15.272 27.2391 15.5893 28.2657 16.224C29.3111 16.8587 30.1044 17.7267 30.6457 18.828C31.1871 19.9293 31.4578 21.1707 31.4578 22.552C31.4578 22.7573 31.4484 22.944 31.4297 23.112C31.4297 23.28 31.4204 23.4107 31.4017 23.504H20.3697C20.5191 24.9227 21.0137 25.9867 21.8537 26.696C22.7124 27.4053 23.6831 27.76 24.7657 27.76C25.7364 27.76 26.5391 27.5453 27.1737 27.116C27.8084 26.668 28.3124 26.1173 28.6857 25.464L31.1777 26.668C30.5617 27.788 29.7218 28.7027 28.6577 29.412C27.5937 30.1027 26.2684 30.448 24.6817 30.448ZM24.5417 17.848C23.5337 17.848 22.6751 18.156 21.9657 18.772C21.2564 19.388 20.7804 20.2093 20.5377 21.236H28.4617C28.4244 20.7507 28.2657 20.2467 27.9858 19.724C27.7057 19.2013 27.2764 18.7627 26.6978 18.408C26.1378 18.0347 25.4191 17.848 24.5417 17.848ZM40.8039 30.448C39.5159 30.448 38.3493 30.1307 37.3039 29.496C36.2773 28.8427 35.4559 27.9467 34.8399 26.808C34.2426 25.6507 33.9439 24.3347 33.9439 22.86C33.9439 21.3853 34.2426 20.0787 34.8399 18.94C35.4559 17.8013 36.2773 16.9053 37.3039 16.252C38.3493 15.5987 39.5159 15.272 40.8039 15.272C41.9053 15.272 42.8479 15.5147 43.6319 16C44.4346 16.4853 45.0226 17.036 45.3959 17.652H45.5639L45.3959 15.664V9.952H48.3919V30H45.5639V28.096H45.3959C45.0226 28.712 44.4346 29.2627 43.6319 29.748C42.8479 30.2147 41.9053 30.448 40.8039 30.448ZM41.2519 27.676C41.9986 27.676 42.6986 27.48 43.3519 27.088C44.0239 26.696 44.5559 26.1453 44.9479 25.436C45.3586 24.708 45.5639 23.8493 45.5639 22.86C45.5639 21.8707 45.3586 21.0213 44.9479 20.312C44.5559 19.584 44.0239 19.024 43.3519 18.632C42.6986 18.24 41.9986 18.044 41.2519 18.044C40.5053 18.044 39.8053 18.24 39.1519 18.632C38.4986 19.024 37.9666 19.584 37.5559 20.312C37.1453 21.0213 36.9399 21.8707 36.9399 22.86C36.9399 23.8493 37.1453 24.708 37.5559 25.436C37.9666 26.1453 38.4986 26.696 39.1519 27.088C39.8053 27.48 40.5053 27.676 41.2519 27.676ZM53.9898 13.62C53.4298 13.62 52.9445 13.424 52.5338 13.032C52.1418 12.6213 51.9458 12.136 51.9458 11.576C51.9458 11.016 52.1418 10.54 52.5338 10.148C52.9445 9.756 53.4298 9.56 53.9898 9.56C54.5498 9.56 55.0258 9.756 55.4178 10.148C55.8285 10.54 56.0338 11.016 56.0338 11.576C56.0338 12.136 55.8285 12.6213 55.4178 13.032C55.0258 13.424 54.5498 13.62 53.9898 13.62ZM52.4778 30V15.72H55.5018V30H52.4778ZM59.5538 30V15.72H62.4098V17.82H62.5778C62.8952 17.092 63.4365 16.4947 64.2018 16.028C64.9858 15.5427 65.8258 15.3 66.7218 15.3C67.1138 15.3 67.4405 15.328 67.7018 15.384C67.9818 15.44 68.2338 15.5053 68.4578 15.58V18.716C68.1032 18.5667 67.7392 18.4453 67.3658 18.352C67.0112 18.2587 66.6378 18.212 66.2458 18.212C65.5365 18.212 64.9018 18.408 64.3418 18.8C63.8005 19.1733 63.3712 19.6867 63.0538 20.34C62.7365 20.9747 62.5778 21.6747 62.5778 22.44V30H59.5538ZM84.5353 30.448C83.098 30.448 81.8286 30.1213 80.7273 29.468C79.626 28.8147 78.758 27.9187 78.1233 26.78C77.4886 25.6227 77.1713 24.316 77.1713 22.86C77.1713 21.404 77.4886 20.1067 78.1233 18.968C78.758 17.8107 79.626 16.9053 80.7273 16.252C81.8286 15.5987 83.098 15.272 84.5353 15.272C86.122 15.272 87.4566 15.6267 88.5393 16.336C89.6406 17.0453 90.4246 18.0067 90.8913 19.22L88.1473 20.34C87.494 18.8093 86.2713 18.044 84.4793 18.044C83.6953 18.044 82.9766 18.2493 82.3233 18.66C81.67 19.052 81.1473 19.612 80.7553 20.34C80.3633 21.0493 80.1673 21.8893 80.1673 22.86C80.1673 23.8307 80.3633 24.68 80.7553 25.408C81.1473 26.136 81.67 26.696 82.3233 27.088C82.9766 27.48 83.6953 27.676 84.4793 27.676C85.394 27.676 86.1686 27.4707 86.8033 27.06C87.438 26.6307 87.9326 26.052 88.2873 25.324L90.9753 26.5C90.4713 27.6387 89.6686 28.5813 88.5673 29.328C87.466 30.0747 86.122 30.448 84.5353 30.448ZM100.451 30.448C98.9765 30.448 97.6792 30.112 96.5592 29.44C95.4392 28.768 94.5619 27.8627 93.9272 26.724C93.2925 25.5853 92.9752 24.2973 92.9752 22.86C92.9752 21.4413 93.2925 20.1627 93.9272 19.024C94.5619 17.8667 95.4392 16.952 96.5592 16.28C97.6792 15.608 98.9765 15.272 100.451 15.272C101.907 15.272 103.195 15.608 104.315 16.28C105.435 16.952 106.313 17.8667 106.947 19.024C107.582 20.1627 107.899 21.4413 107.899 22.86C107.899 24.2973 107.582 25.5853 106.947 26.724C106.313 27.8627 105.435 28.768 104.315 29.44C103.195 30.112 101.907 30.448 100.451 30.448ZM100.451 27.676C101.235 27.676 101.963 27.4893 102.635 27.116C103.307 26.724 103.849 26.1733 104.259 25.464C104.689 24.736 104.903 23.868 104.903 22.86C104.903 21.852 104.689 20.9933 104.259 20.284C103.849 19.556 103.307 19.0053 102.635 18.632C101.963 18.24 101.235 18.044 100.451 18.044C99.6672 18.044 98.9299 18.24 98.2392 18.632C97.5672 19.0053 97.0165 19.556 96.5872 20.284C96.1765 20.9933 95.9712 21.852 95.9712 22.86C95.9712 23.868 96.1765 24.736 96.5872 25.464C97.0165 26.1733 97.5672 26.724 98.2392 27.116C98.9299 27.4893 99.6672 27.676 100.451 27.676ZM110.711 30V15.72H113.567V17.68H113.735C114.146 16.9893 114.743 16.42 115.527 15.972C116.311 15.5053 117.179 15.272 118.131 15.272C119.195 15.272 120.1 15.524 120.847 16.028C121.594 16.532 122.126 17.1667 122.443 17.932C122.91 17.1853 123.544 16.56 124.347 16.056C125.15 15.5333 126.13 15.272 127.287 15.272C128.967 15.272 130.218 15.7853 131.039 16.812C131.86 17.82 132.271 19.164 132.271 20.844V30H129.275V21.348C129.275 20.2093 129.023 19.3787 128.519 18.856C128.034 18.3147 127.352 18.044 126.475 18.044C125.784 18.044 125.178 18.24 124.655 18.632C124.132 19.0053 123.722 19.5187 123.423 20.172C123.143 20.8253 123.003 21.5533 123.003 22.356V30H120.007V21.348C120.007 20.2093 119.755 19.3787 119.251 18.856C118.747 18.3147 118.038 18.044 117.123 18.044C116.451 18.044 115.863 18.24 115.359 18.632C114.855 19.024 114.454 19.5467 114.155 20.2C113.875 20.8533 113.735 21.5813 113.735 22.384V30H110.711ZM149.531 30.448C148.056 30.448 146.759 30.112 145.639 29.44C144.519 28.768 143.642 27.8627 143.007 26.724C142.372 25.5853 142.055 24.2973 142.055 22.86C142.055 21.4413 142.372 20.1627 143.007 19.024C143.642 17.8667 144.519 16.952 145.639 16.28C146.759 15.608 148.056 15.272 149.531 15.272C150.987 15.272 152.275 15.608 153.395 16.28C154.515 16.952 155.392 17.8667 156.027 19.024C156.662 20.1627 156.979 21.4413 156.979 22.86C156.979 24.2973 156.662 25.5853 156.027 26.724C155.392 27.8627 154.515 28.768 153.395 29.44C152.275 30.112 150.987 30.448 149.531 30.448ZM149.531 27.676C150.315 27.676 151.043 27.4893 151.715 27.116C152.387 26.724 152.928 26.1733 153.339 25.464C153.768 24.736 153.983 23.868 153.983 22.86C153.983 21.852 153.768 20.9933 153.339 20.284C152.928 19.556 152.387 19.0053 151.715 18.632C151.043 18.24 150.315 18.044 149.531 18.044C148.747 18.044 148.01 18.24 147.319 18.632C146.647 19.0053 146.096 19.556 145.667 20.284C145.256 20.9933 145.051 21.852 145.051 22.86C145.051 23.868 145.256 24.736 145.667 25.464C146.096 26.1733 146.647 26.724 147.319 27.116C148.01 27.4893 148.747 27.676 149.531 27.676Z" fill="#3C4043"/>
<g id="GPay Logo (Light)">
<g id="GPay">
<g id="Pay">
<path id="Fill 1" fill-rule="evenodd" clip-rule="evenodd" d="M208.529 9.44664V17.6128H213.565C214.765 17.6128 215.757 17.2096 216.541 16.4032C217.347 15.5988 217.75 14.6394 217.75 13.5288C217.75 12.4406 217.347 11.4924 216.541 10.686C215.757 9.85915 214.765 9.44478 213.565 9.44478H208.529V9.44664ZM208.529 20.4872V29.9599H205.521V6.57217H213.499C215.527 6.57217 217.248 7.24786 218.666 8.59737C220.105 9.94688 220.824 11.5913 220.824 13.5288C220.824 15.511 220.105 17.1667 218.666 18.4938C217.27 19.8227 215.547 20.4854 213.499 20.4854H208.529V20.4872Z" fill="#5F6368"/>
<path id="Fill 3" fill-rule="evenodd" clip-rule="evenodd" d="M223.864 25.0602C223.864 25.8442 224.197 26.4975 224.862 27.0201C225.527 27.5427 226.306 27.804 227.2 27.804C228.465 27.804 229.591 27.3354 230.584 26.4004C231.576 25.4634 232.071 24.364 232.071 23.1022C231.133 22.3612 229.825 21.9916 228.147 21.9916C226.925 21.9916 225.907 22.2865 225.09 22.8745C224.273 23.4623 223.864 24.1886 223.864 25.0602ZM227.756 13.4317C229.98 13.4317 231.735 14.0252 233.022 15.2124C234.308 16.3995 234.95 18.0271 234.95 20.0952V29.9599H232.073V27.7387H231.942C230.699 29.5677 229.042 30.4825 226.972 30.4825C225.206 30.4825 223.728 29.9599 222.541 28.9146C221.353 27.8694 220.759 26.5628 220.759 24.9949C220.759 23.3393 221.385 22.0232 222.638 21.0434C223.892 20.0635 225.565 19.5726 227.658 19.5726C229.444 19.5726 230.916 19.8992 232.071 20.5525V19.8656C232.071 18.8204 231.656 17.9338 230.829 17.204C229.999 16.4741 229.031 16.1102 227.919 16.1102C226.239 16.1102 224.911 16.8176 223.93 18.2343L221.28 16.5675C222.741 14.4769 224.899 13.4317 227.756 13.4317Z" fill="#5F6368"/>
<path id="Fill 5" fill-rule="evenodd" clip-rule="evenodd" d="M251.463 13.9543L241.424 37.0154H238.318L242.046 28.9464L235.44 13.9543H238.71L243.484 25.4522H243.55L248.193 13.9543H251.463Z" fill="#5F6368"/>
</g>
<g id="G">
<path id="Fill 8" fill-rule="evenodd" clip-rule="evenodd" d="M196.373 18.4452C196.373 17.4989 196.293 16.5861 196.141 15.7126H183.454V20.8885H190.72C190.408 22.5757 189.465 24.0112 188.033 24.9725V28.3341H192.37C194.91 25.9935 196.373 22.5348 196.373 18.4452Z" fill="#4285F4"/>
<path id="Fill 10" fill-rule="evenodd" clip-rule="evenodd" d="M183.454 31.5782C187.084 31.5782 190.141 30.3873 192.37 28.3341L188.033 24.9725C186.826 25.7844 185.272 26.2585 183.454 26.2585C179.944 26.2585 176.966 23.8955 175.901 20.7112H171.433V24.1736C173.647 28.5637 178.197 31.5782 183.454 31.5782Z" fill="#34A853"/>
<path id="Fill 12" fill-rule="evenodd" clip-rule="evenodd" d="M175.901 20.7111C175.628 19.8992 175.479 19.0331 175.479 18.139C175.479 17.245 175.628 16.3789 175.901 15.567V12.1045H171.433C170.518 13.9188 170 15.9683 170 18.139C170 20.3098 170.518 22.3595 171.433 24.1736L175.901 20.7111Z" fill="#FABB05"/>
<path id="Fill 14" fill-rule="evenodd" clip-rule="evenodd" d="M183.454 10.0196C185.436 10.0196 187.213 10.7009 188.615 12.0355V12.0374L192.455 8.20162C190.123 6.03271 187.082 4.7 183.454 4.7C178.197 4.7 173.647 7.71446 171.433 12.1046L175.901 15.567C176.966 12.3827 179.944 10.0196 183.454 10.0196Z" fill="#E94235"/>
</g>
</g>
</g>
</g>
</svg>
