<svg width="148" height="21" viewBox="0 0 148 21" fill="none" xmlns="http://www.w3.org/2000/svg">
<g id="pt_pay_with_Pay_NBG">
<path id="Left Text" d="M1.31163 15.0006V3.54461H5.24763C5.94096 3.54461 6.57029 3.69394 7.13563 3.99261C7.70096 4.28061 8.14896 4.69128 8.47963 5.22461C8.82096 5.74728 8.99163 6.35528 8.99163 7.04861C8.99163 7.73128 8.82096 8.33928 8.47963 8.87261C8.14896 9.40594 7.70096 9.82194 7.13563 10.1206C6.57029 10.4086 5.94096 10.5526 5.24763 10.5526H3.07163V15.0006H1.31163ZM3.07163 8.88861H5.29563C5.71163 8.88861 6.06363 8.80328 6.35163 8.63261C6.63963 8.45128 6.85829 8.22194 7.00763 7.94461C7.16763 7.65661 7.24763 7.35794 7.24763 7.04861C7.24763 6.73928 7.16763 6.44594 7.00763 6.16861C6.85829 5.89128 6.63963 5.66194 6.35163 5.48061C6.06363 5.29928 5.71163 5.20861 5.29563 5.20861H3.07163V8.88861ZM12.9055 15.2566C12.3188 15.2566 11.7962 15.1393 11.3375 14.9046C10.8895 14.6699 10.5322 14.3499 10.2655 13.9446C10.0095 13.5286 9.8815 13.0539 9.8815 12.5206C9.8815 11.9339 10.0308 11.4379 10.3295 11.0326C10.6388 10.6273 11.0495 10.3179 11.5615 10.1046C12.0735 9.89128 12.6388 9.78461 13.2575 9.78461C13.5988 9.78461 13.9135 9.81128 14.2015 9.86461C14.5002 9.90728 14.7562 9.96061 14.9695 10.0246C15.1935 10.0886 15.3695 10.1579 15.4975 10.2326V9.80061C15.4975 9.26728 15.3055 8.84061 14.9215 8.52061C14.5375 8.20061 14.0415 8.04061 13.4335 8.04061C13.0175 8.04061 12.6228 8.13661 12.2495 8.32861C11.8762 8.50994 11.5775 8.76061 11.3535 9.08061L10.1695 8.16861C10.4042 7.83794 10.6868 7.55528 11.0175 7.32061C11.3588 7.08594 11.7375 6.90461 12.1535 6.77661C12.5802 6.64861 13.0228 6.58461 13.4815 6.58461C14.6655 6.58461 15.5775 6.87794 16.2175 7.46461C16.8575 8.04061 17.1775 8.85128 17.1775 9.89661V15.0006H15.4975V13.9926H15.4015C15.2628 14.2059 15.0708 14.4086 14.8255 14.6006C14.5908 14.7926 14.3082 14.9473 13.9775 15.0646C13.6575 15.1926 13.3002 15.2566 12.9055 15.2566ZM13.2095 13.8486C13.6575 13.8486 14.0522 13.7419 14.3935 13.5286C14.7455 13.3153 15.0175 13.0379 15.2095 12.6966C15.4015 12.3446 15.4975 11.9659 15.4975 11.5606C15.2628 11.4219 14.9748 11.3099 14.6335 11.2246C14.3028 11.1286 13.9508 11.0806 13.5775 11.0806C12.8735 11.0806 12.3722 11.2193 12.0735 11.4966C11.7748 11.7739 11.6255 12.1206 11.6255 12.5366C11.6255 12.9206 11.7695 13.2353 12.0575 13.4806C12.3455 13.7259 12.7295 13.8486 13.2095 13.8486ZM22.8317 18.7126C22.1171 18.7126 21.4984 18.5953 20.9757 18.3606C20.4637 18.1366 20.0477 17.8433 19.7277 17.4806C19.4077 17.1286 19.1784 16.7659 19.0397 16.3926L20.6397 15.7206C20.8104 16.1473 21.0824 16.4939 21.4557 16.7606C21.8397 17.0379 22.2984 17.1766 22.8317 17.1766C23.5891 17.1766 24.1811 16.9526 24.6077 16.5046C25.0344 16.0566 25.2477 15.4219 25.2477 14.6006V13.8166H25.1517C24.8957 14.1899 24.5437 14.4939 24.0957 14.7286C23.6477 14.9633 23.1304 15.0806 22.5437 15.0806C21.8504 15.0806 21.2104 14.9046 20.6237 14.5526C20.0477 14.2006 19.5837 13.7099 19.2317 13.0806C18.8904 12.4406 18.7197 11.6939 18.7197 10.8406C18.7197 9.97661 18.8904 9.22994 19.2317 8.60061C19.5837 7.96061 20.0477 7.46461 20.6237 7.11261C21.2104 6.76061 21.8504 6.58461 22.5437 6.58461C23.1304 6.58461 23.6477 6.70194 24.0957 6.93661C24.5437 7.16061 24.8957 7.46994 25.1517 7.86461H25.2477V6.84061H26.8958V14.5686C26.8958 15.4539 26.7197 16.2059 26.3677 16.8246C26.0264 17.4433 25.5517 17.9126 24.9437 18.2326C24.3357 18.5526 23.6317 18.7126 22.8317 18.7126ZM22.8477 13.5126C23.2744 13.5126 23.6691 13.4113 24.0317 13.2086C24.4051 12.9953 24.6984 12.6913 24.9117 12.2966C25.1357 11.8913 25.2477 11.4059 25.2477 10.8406C25.2477 10.2433 25.1357 9.74728 24.9117 9.35261C24.6984 8.95794 24.4051 8.65928 24.0317 8.45661C23.6691 8.25394 23.2744 8.15261 22.8477 8.15261C22.4211 8.15261 22.0211 8.25394 21.6477 8.45661C21.2851 8.65928 20.9917 8.96328 20.7677 9.36861C20.5437 9.76328 20.4317 10.2539 20.4317 10.8406C20.4317 11.4166 20.5437 11.9073 20.7677 12.3126C20.9917 12.7073 21.2851 13.0059 21.6477 13.2086C22.0211 13.4113 22.4211 13.5126 22.8477 13.5126ZM31.5493 15.2566C30.9626 15.2566 30.4399 15.1393 29.9813 14.9046C29.5333 14.6699 29.1759 14.3499 28.9093 13.9446C28.6533 13.5286 28.5253 13.0539 28.5253 12.5206C28.5253 11.9339 28.6746 11.4379 28.9733 11.0326C29.2826 10.6273 29.6933 10.3179 30.2053 10.1046C30.7173 9.89128 31.2826 9.78461 31.9013 9.78461C32.2426 9.78461 32.5573 9.81128 32.8453 9.86461C33.1439 9.90728 33.3999 9.96061 33.6133 10.0246C33.8373 10.0886 34.0133 10.1579 34.1413 10.2326V9.80061C34.1413 9.26728 33.9493 8.84061 33.5653 8.52061C33.1813 8.20061 32.6853 8.04061 32.0773 8.04061C31.6613 8.04061 31.2666 8.13661 30.8933 8.32861C30.5199 8.50994 30.2213 8.76061 29.9973 9.08061L28.8133 8.16861C29.0479 7.83794 29.3306 7.55528 29.6613 7.32061C30.0026 7.08594 30.3813 6.90461 30.7973 6.77661C31.2239 6.64861 31.6666 6.58461 32.1253 6.58461C33.3093 6.58461 34.2213 6.87794 34.8613 7.46461C35.5013 8.04061 35.8213 8.85128 35.8213 9.89661V15.0006H34.1413V13.9926H34.0453C33.9066 14.2059 33.7146 14.4086 33.4693 14.6006C33.2346 14.7926 32.9519 14.9473 32.6213 15.0646C32.3013 15.1926 31.9439 15.2566 31.5493 15.2566ZM31.8533 13.8486C32.3013 13.8486 32.6959 13.7419 33.0373 13.5286C33.3893 13.3153 33.6613 13.0379 33.8533 12.6966C34.0453 12.3446 34.1413 11.9659 34.1413 11.5606C33.9066 11.4219 33.6186 11.3099 33.2773 11.2246C32.9466 11.1286 32.5946 11.0806 32.2213 11.0806C31.5173 11.0806 31.0159 11.2193 30.7173 11.4966C30.4186 11.7739 30.2693 12.1206 30.2693 12.5366C30.2693 12.9206 30.4133 13.2353 30.7013 13.4806C30.9893 13.7259 31.3733 13.8486 31.8533 13.8486ZM37.8736 15.0006V6.84061H39.5056V8.04061H39.6016C39.7296 7.76328 39.911 7.51794 40.1456 7.30461C40.391 7.09128 40.6683 6.92061 40.9776 6.79261C41.2976 6.66461 41.6283 6.60061 41.9696 6.60061C42.1936 6.60061 42.3803 6.61661 42.5296 6.64861C42.6896 6.66994 42.8336 6.70728 42.9616 6.76061V8.55261C42.759 8.46728 42.551 8.39794 42.3376 8.34461C42.135 8.29128 41.9216 8.26461 41.6976 8.26461C41.2923 8.26461 40.9296 8.37661 40.6096 8.60061C40.3003 8.81394 40.055 9.10194 39.8736 9.46461C39.6923 9.82728 39.6016 10.2326 39.6016 10.6806V15.0006H37.8736ZM52.1059 15.2566C51.2845 15.2566 50.5539 15.0699 49.9139 14.6966C49.2845 14.3233 48.7885 13.8113 48.4259 13.1606C48.0739 12.4993 47.8979 11.7526 47.8979 10.9206C47.8979 10.0886 48.0739 9.34728 48.4259 8.69661C48.7885 8.04594 49.2845 7.53394 49.9139 7.16061C50.5539 6.77661 51.2845 6.58461 52.1059 6.58461C53.0125 6.58461 53.7752 6.78728 54.3939 7.19261C55.0232 7.59794 55.4712 8.14728 55.7379 8.84061L54.1699 9.48061C53.9779 9.04328 53.7005 8.71794 53.3379 8.50461C52.9859 8.28061 52.5645 8.16861 52.0739 8.16861C51.6259 8.16861 51.2152 8.28594 50.8419 8.52061C50.4685 8.74461 50.1699 9.05928 49.9459 9.46461C49.7219 9.86994 49.6099 10.3553 49.6099 10.9206C49.6099 11.4753 49.7219 11.9606 49.9459 12.3766C50.1699 12.7926 50.4685 13.1126 50.8419 13.3366C51.2152 13.5606 51.6259 13.6726 52.0739 13.6726C52.5965 13.6726 53.0392 13.5553 53.4019 13.3206C53.7645 13.0859 54.0472 12.7553 54.2499 12.3286L55.7859 13.0006C55.4872 13.6513 55.0232 14.1899 54.3939 14.6166C53.7752 15.0433 53.0125 15.2566 52.1059 15.2566ZM61.1792 15.2566C60.3366 15.2566 59.5952 15.0646 58.9552 14.6806C58.3152 14.2966 57.8139 13.7793 57.4512 13.1286C57.0886 12.4673 56.9072 11.7313 56.9072 10.9206C56.9072 10.1099 57.0886 9.37928 57.4512 8.72861C57.8139 8.06728 58.3152 7.54461 58.9552 7.16061C59.5952 6.77661 60.3366 6.58461 61.1792 6.58461C62.0112 6.58461 62.7472 6.78194 63.3872 7.17661C64.0272 7.56061 64.5286 8.07794 64.8912 8.72861C65.2539 9.37928 65.4352 10.1099 65.4352 10.9206C65.4352 11.7313 65.2539 12.4673 64.8912 13.1286C64.5286 13.7793 64.0272 14.2966 63.3872 14.6806C62.7472 15.0646 62.0112 15.2566 61.1792 15.2566ZM61.1792 13.6726C61.6272 13.6726 62.0432 13.5659 62.4272 13.3526C62.8112 13.1286 63.1206 12.8139 63.3552 12.4086C63.6006 11.9926 63.7232 11.4966 63.7232 10.9206C63.7232 10.3446 63.6006 9.85394 63.3552 9.44861C63.1206 9.03261 62.8112 8.71794 62.4272 8.50461C62.0432 8.28061 61.6272 8.16861 61.1792 8.16861C60.7312 8.16861 60.3099 8.28061 59.9152 8.50461C59.5312 8.71794 59.2166 9.03261 58.9712 9.44861C58.7366 9.85394 58.6192 10.3446 58.6192 10.9206C58.6192 11.4966 58.7366 11.9926 58.9712 12.4086C59.2166 12.8139 59.5366 13.1286 59.9312 13.3526C60.3259 13.5659 60.7419 13.6726 61.1792 13.6726ZM67.0205 15.0006V6.84061H68.6525V7.96061H68.7485C68.9085 7.69394 69.1165 7.45928 69.3725 7.25661C69.6285 7.05394 69.9165 6.89394 70.2365 6.77661C70.5672 6.64861 70.9085 6.58461 71.2605 6.58461C71.8685 6.58461 72.3858 6.72861 72.8125 7.01661C73.2392 7.30461 73.5432 7.66728 73.7245 8.10461C73.9912 7.67794 74.3538 7.32061 74.8125 7.03261C75.2712 6.73394 75.8312 6.58461 76.4925 6.58461C77.4525 6.58461 78.1672 6.87794 78.6365 7.46461C79.1058 8.04061 79.3405 8.80861 79.3405 9.76861V15.0006H77.6285V10.0566C77.6285 9.39528 77.4845 8.91528 77.1965 8.61661C76.9192 8.31794 76.5298 8.16861 76.0285 8.16861C75.6338 8.16861 75.2872 8.28061 74.9885 8.50461C74.6898 8.71794 74.4552 9.01128 74.2845 9.38461C74.1245 9.75794 74.0445 10.1739 74.0445 10.6326V15.0006H72.3325V10.0566C72.3325 9.40594 72.1885 8.93128 71.9005 8.63261C71.6125 8.32328 71.2072 8.16861 70.6845 8.16861C70.3112 8.16861 69.9752 8.28061 69.6765 8.50461C69.3885 8.72861 69.1592 9.02728 68.9885 9.40061C68.8285 9.77394 68.7485 10.1899 68.7485 10.6486V15.0006H67.0205ZM89.1605 15.2566C88.3178 15.2566 87.5765 15.0646 86.9365 14.6806C86.2965 14.2966 85.7952 13.7793 85.4325 13.1286C85.0698 12.4673 84.8885 11.7313 84.8885 10.9206C84.8885 10.1099 85.0698 9.37928 85.4325 8.72861C85.7952 8.06728 86.2965 7.54461 86.9365 7.16061C87.5765 6.77661 88.3178 6.58461 89.1605 6.58461C89.9925 6.58461 90.7285 6.78194 91.3685 7.17661C92.0085 7.56061 92.5098 8.07794 92.8725 8.72861C93.2352 9.37928 93.4165 10.1099 93.4165 10.9206C93.4165 11.7313 93.2352 12.4673 92.8725 13.1286C92.5098 13.7793 92.0085 14.2966 91.3685 14.6806C90.7285 15.0646 89.9925 15.2566 89.1605 15.2566ZM89.1605 13.6726C89.6085 13.6726 90.0245 13.5659 90.4085 13.3526C90.7925 13.1286 91.1018 12.8139 91.3365 12.4086C91.5818 11.9926 91.7045 11.4966 91.7045 10.9206C91.7045 10.3446 91.5818 9.85394 91.3365 9.44861C91.1018 9.03261 90.7925 8.71794 90.4085 8.50461C90.0245 8.28061 89.6085 8.16861 89.1605 8.16861C88.7125 8.16861 88.2912 8.28061 87.8965 8.50461C87.5125 8.71794 87.1978 9.03261 86.9525 9.44861C86.7178 9.85394 86.6005 10.3446 86.6005 10.9206C86.6005 11.4966 86.7178 11.9926 86.9525 12.4086C87.1978 12.8139 87.5178 13.1286 87.9125 13.3526C88.3072 13.5659 88.7232 13.6726 89.1605 13.6726Z" fill="white"/>
<g id="GPay (Dark)">
<g id="GPay">
<g id="Pay">
<path id="Fill 1" fill-rule="evenodd" clip-rule="evenodd" d="M122.356 3.42339V8.16175H125.278C125.974 8.16175 126.55 7.92781 127.005 7.45993C127.473 6.99313 127.707 6.43644 127.707 5.79203C127.707 5.16061 127.473 4.61041 127.005 4.14254C126.55 3.66274 125.974 3.4223 125.278 3.4223H122.356V3.42339ZM122.356 9.82966V15.3262H120.611V1.75549H125.24C126.417 1.75549 127.415 2.14756 128.238 2.93061C129.073 3.71365 129.491 4.66782 129.491 5.79203C129.491 6.94224 129.073 7.90291 128.238 8.67296C127.428 9.44409 126.429 9.82858 125.24 9.82858H122.356V9.82966Z" fill="white"/>
<path id="Fill 3" fill-rule="evenodd" clip-rule="evenodd" d="M131.255 12.4831C131.255 12.9379 131.448 13.317 131.834 13.6203C132.22 13.9235 132.672 14.0752 133.19 14.0752C133.924 14.0752 134.578 13.8032 135.153 13.2607C135.729 12.717 136.017 12.0791 136.017 11.3469C135.472 10.917 134.713 10.7025 133.74 10.7025C133.031 10.7025 132.44 10.8736 131.966 11.2148C131.492 11.5559 131.255 11.9773 131.255 12.4831M133.513 5.73566C134.803 5.73566 135.821 6.08007 136.569 6.76889C137.314 7.45771 137.687 8.40213 137.687 9.60216V15.3261H136.018V14.0373H135.942C135.221 15.0985 134.259 15.6294 133.058 15.6294C132.033 15.6294 131.176 15.3261 130.487 14.7196C129.797 14.1131 129.453 13.3549 129.453 12.4452C129.453 11.4845 129.816 10.7208 130.543 10.1523C131.271 9.58375 132.241 9.2989 133.456 9.2989C134.492 9.2989 135.346 9.48844 136.017 9.86751V9.46894C136.017 8.86243 135.776 8.34798 135.296 7.92451C134.814 7.50103 134.252 7.28984 133.607 7.28984C132.633 7.28984 131.862 7.70032 131.293 8.52235L129.755 7.55519C130.603 6.34217 131.855 5.73566 133.513 5.73566" fill="white"/>
<path id="Fill 5" fill-rule="evenodd" clip-rule="evenodd" d="M147.269 6.03894L141.443 19.4201H139.641L141.804 14.738L137.971 6.03894H139.869L142.639 12.7106H142.677L145.371 6.03894H147.269Z" fill="white"/>
</g>
<g id="G">
<path id="Fill 8" fill-rule="evenodd" clip-rule="evenodd" d="M115.303 8.64473C115.303 8.09563 115.256 7.56601 115.168 7.05914H107.806V10.0625H112.023C111.842 11.0414 111.294 11.8744 110.464 12.4322V14.3828H112.98C114.454 13.0246 115.303 11.0177 115.303 8.64473" fill="#4285F4"/>
<path id="Fill 10" fill-rule="evenodd" clip-rule="evenodd" d="M107.806 16.2651C109.913 16.2651 111.687 15.5741 112.98 14.3828L110.464 12.4322C109.763 12.9033 108.861 13.1784 107.806 13.1784C105.77 13.1784 104.042 11.8073 103.424 9.95959H100.832V11.9687C102.116 14.516 104.757 16.2651 107.806 16.2651" fill="#34A853"/>
<path id="Fill 12" fill-rule="evenodd" clip-rule="evenodd" d="M103.424 9.9596C103.266 9.48847 103.179 8.98593 103.179 8.46715C103.179 7.94837 103.266 7.44583 103.424 6.9747V4.96564H100.832C100.3 6.01837 100 7.20756 100 8.46715C100 9.72674 100.3 10.916 100.832 11.9687L103.424 9.9596Z" fill="#FABB05"/>
<path id="Fill 14" fill-rule="evenodd" clip-rule="evenodd" d="M107.806 3.75583C108.957 3.75583 109.988 4.15115 110.801 4.92553V4.92661L113.029 2.70094C111.676 1.44243 109.912 0.669128 107.806 0.669128C104.757 0.669128 102.116 2.41826 100.832 4.9656L103.424 6.97467C104.042 5.12698 105.77 3.75583 107.806 3.75583" fill="#E94235"/>
</g>
</g>
</g>
</g>
</svg>
