<svg width="260" height="38" viewBox="0 0 260 38" fill="none" xmlns="http://www.w3.org/2000/svg">
<g id="pt_pay_with_Dark">
<path id="Text" d="M3.42034 30V9.952H10.3083C11.5217 9.952 12.623 10.2133 13.6123 10.736C14.6017 11.2587 15.3857 11.9773 15.9643 12.892C16.5617 13.8067 16.8603 14.8707 16.8603 16.084C16.8603 17.2973 16.5617 18.3707 15.9643 19.304C15.3857 20.2187 14.6017 20.9373 13.6123 21.46C12.623 21.964 11.5217 22.216 10.3083 22.216H6.50034V30H3.42034ZM10.3923 12.864H6.50034V19.304H10.3923C11.1203 19.304 11.7363 19.1547 12.2403 18.856C12.7443 18.5387 13.127 18.1373 13.3883 17.652C13.6683 17.148 13.8083 16.6253 13.8083 16.084C13.8083 15.5427 13.6683 15.0293 13.3883 14.544C13.127 14.0587 12.7443 13.6573 12.2403 13.34C11.7363 13.0227 11.1203 12.864 10.3923 12.864ZM23.7471 30.448C22.7205 30.448 21.8058 30.252 21.0031 29.86C20.2005 29.4493 19.5751 28.88 19.1271 28.152C18.6791 27.424 18.4551 26.5933 18.4551 25.66C18.4551 24.652 18.7165 23.7933 19.2391 23.084C19.7805 22.356 20.4991 21.8053 21.3951 21.432C22.2911 21.0587 23.2805 20.872 24.3631 20.872C25.2591 20.872 26.0431 20.956 26.7151 21.124C27.4058 21.292 27.9285 21.4693 28.2831 21.656V20.9C28.2831 19.9667 27.9471 19.22 27.2751 18.66C26.6031 18.1 25.7351 17.82 24.6711 17.82C23.9431 17.82 23.2525 17.988 22.5991 18.324C21.9458 18.6413 21.4231 19.08 21.0311 19.64L18.9591 18.044C19.5751 17.1853 20.3871 16.5133 21.3951 16.028C22.4218 15.524 23.5418 15.272 24.7551 15.272C26.8271 15.272 28.4231 15.7853 29.5431 16.812C30.6631 17.82 31.2231 19.2387 31.2231 21.068V30H28.2831V28.236H28.1151C27.7418 28.8147 27.1818 29.328 26.4351 29.776C25.6885 30.224 24.7925 30.448 23.7471 30.448ZM24.2791 27.984C25.0631 27.984 25.7538 27.7973 26.3511 27.424C26.9485 27.0507 27.4151 26.5653 27.7511 25.968C28.1058 25.352 28.2831 24.6893 28.2831 23.98C27.8538 23.7373 27.3498 23.5413 26.7711 23.392C26.1925 23.224 25.5765 23.14 24.9231 23.14C23.6911 23.14 22.8138 23.392 22.2911 23.896C21.7685 24.3813 21.5071 24.9787 21.5071 25.688C21.5071 26.36 21.7591 26.9107 22.2631 27.34C22.7671 27.7693 23.4391 27.984 24.2791 27.984ZM41.1556 36.496C39.9049 36.496 38.8222 36.2907 37.9076 35.88C37.0116 35.488 36.2836 34.9747 35.7236 34.34C35.1636 33.724 34.7622 33.0893 34.5196 32.436L37.3196 31.26C37.6182 32.0067 38.0942 32.6133 38.7476 33.08C39.4196 33.5653 40.2222 33.808 41.1556 33.808C42.4622 33.808 43.4889 33.416 44.2356 32.632C45.0009 31.848 45.3836 30.7373 45.3836 29.3V27.928H45.2156C44.7676 28.6 44.1422 29.1413 43.3396 29.552C42.5556 29.944 41.6596 30.14 40.6516 30.14C39.4382 30.14 38.3276 29.832 37.3196 29.216C36.3116 28.6 35.4996 27.7413 34.8836 26.64C34.2676 25.52 33.9596 24.2133 33.9596 22.72C33.9596 21.208 34.2676 19.9013 34.8836 18.8C35.4996 17.68 36.3116 16.812 37.3196 16.196C38.3276 15.58 39.4382 15.272 40.6516 15.272C41.6596 15.272 42.5556 15.4773 43.3396 15.888C44.1422 16.2987 44.7676 16.84 45.2156 17.512H45.3836V15.72H48.2676V29.244C48.2676 30.7933 47.9596 32.1093 47.3436 33.192C46.7462 34.2747 45.9156 35.096 44.8516 35.656C43.7876 36.216 42.5556 36.496 41.1556 36.496ZM41.1836 27.396C41.9302 27.396 42.6209 27.2187 43.2556 26.864C43.8902 26.4907 44.4036 25.9587 44.7956 25.268C45.1876 24.5587 45.3836 23.7093 45.3836 22.72C45.3836 21.6933 45.1876 20.8347 44.7956 20.144C44.4036 19.4347 43.8902 18.9027 43.2556 18.548C42.6209 18.1933 41.9302 18.016 41.1836 18.016C40.4369 18.016 39.7369 18.2027 39.0836 18.576C38.4489 18.9307 37.9356 19.4533 37.5436 20.144C37.1516 20.8347 36.9556 21.6933 36.9556 22.72C36.9556 23.728 37.1516 24.5867 37.5436 25.296C37.9356 25.9867 38.4489 26.5093 39.0836 26.864C39.7369 27.2187 40.4369 27.396 41.1836 27.396ZM56.4487 30.448C55.422 30.448 54.5074 30.252 53.7047 29.86C52.902 29.4493 52.2767 28.88 51.8287 28.152C51.3807 27.424 51.1567 26.5933 51.1567 25.66C51.1567 24.652 51.418 23.7933 51.9407 23.084C52.482 22.356 53.2007 21.8053 54.0967 21.432C54.9927 21.0587 55.982 20.872 57.0647 20.872C57.9607 20.872 58.7447 20.956 59.4167 21.124C60.1074 21.292 60.63 21.4693 60.9847 21.656V20.9C60.9847 19.9667 60.6487 19.22 59.9767 18.66C59.3047 18.1 58.4367 17.82 57.3727 17.82C56.6447 17.82 55.954 17.988 55.3007 18.324C54.6474 18.6413 54.1247 19.08 53.7327 19.64L51.6607 18.044C52.2767 17.1853 53.0887 16.5133 54.0967 16.028C55.1234 15.524 56.2434 15.272 57.4567 15.272C59.5287 15.272 61.1247 15.7853 62.2447 16.812C63.3647 17.82 63.9247 19.2387 63.9247 21.068V30H60.9847V28.236H60.8167C60.4434 28.8147 59.8834 29.328 59.1367 29.776C58.39 30.224 57.494 30.448 56.4487 30.448ZM56.9807 27.984C57.7647 27.984 58.4554 27.7973 59.0527 27.424C59.65 27.0507 60.1167 26.5653 60.4527 25.968C60.8074 25.352 60.9847 24.6893 60.9847 23.98C60.5554 23.7373 60.0514 23.5413 59.4727 23.392C58.894 23.224 58.278 23.14 57.6247 23.14C56.3927 23.14 55.5154 23.392 54.9927 23.896C54.47 24.3813 54.2087 24.9787 54.2087 25.688C54.2087 26.36 54.4607 26.9107 54.9647 27.34C55.4687 27.7693 56.1407 27.984 56.9807 27.984ZM67.5538 30V15.72H70.4098V17.82H70.5778C70.8952 17.092 71.4365 16.4947 72.2018 16.028C72.9858 15.5427 73.8258 15.3 74.7218 15.3C75.1138 15.3 75.4405 15.328 75.7018 15.384C75.9818 15.44 76.2338 15.5053 76.4578 15.58V18.716C76.1032 18.5667 75.7392 18.4453 75.3658 18.352C75.0112 18.2587 74.6378 18.212 74.2458 18.212C73.5365 18.212 72.9018 18.408 72.3418 18.8C71.8005 19.1733 71.3712 19.6867 71.0538 20.34C70.7365 20.9747 70.5778 21.6747 70.5778 22.44V30H67.5538ZM92.5353 30.448C91.098 30.448 89.8286 30.1213 88.7273 29.468C87.626 28.8147 86.758 27.9187 86.1233 26.78C85.4886 25.6227 85.1713 24.316 85.1713 22.86C85.1713 21.404 85.4886 20.1067 86.1233 18.968C86.758 17.8107 87.626 16.9053 88.7273 16.252C89.8286 15.5987 91.098 15.272 92.5353 15.272C94.122 15.272 95.4566 15.6267 96.5393 16.336C97.6406 17.0453 98.4246 18.0067 98.8913 19.22L96.1473 20.34C95.494 18.8093 94.2713 18.044 92.4793 18.044C91.6953 18.044 90.9766 18.2493 90.3233 18.66C89.67 19.052 89.1473 19.612 88.7553 20.34C88.3633 21.0493 88.1673 21.8893 88.1673 22.86C88.1673 23.8307 88.3633 24.68 88.7553 25.408C89.1473 26.136 89.67 26.696 90.3233 27.088C90.9766 27.48 91.6953 27.676 92.4793 27.676C93.394 27.676 94.1686 27.4707 94.8033 27.06C95.438 26.6307 95.9326 26.052 96.2873 25.324L98.9753 26.5C98.4713 27.6387 97.6686 28.5813 96.5673 29.328C95.466 30.0747 94.122 30.448 92.5353 30.448ZM108.451 30.448C106.977 30.448 105.679 30.112 104.559 29.44C103.439 28.768 102.562 27.8627 101.927 26.724C101.293 25.5853 100.975 24.2973 100.975 22.86C100.975 21.4413 101.293 20.1627 101.927 19.024C102.562 17.8667 103.439 16.952 104.559 16.28C105.679 15.608 106.977 15.272 108.451 15.272C109.907 15.272 111.195 15.608 112.315 16.28C113.435 16.952 114.313 17.8667 114.947 19.024C115.582 20.1627 115.899 21.4413 115.899 22.86C115.899 24.2973 115.582 25.5853 114.947 26.724C114.313 27.8627 113.435 28.768 112.315 29.44C111.195 30.112 109.907 30.448 108.451 30.448ZM108.451 27.676C109.235 27.676 109.963 27.4893 110.635 27.116C111.307 26.724 111.849 26.1733 112.259 25.464C112.689 24.736 112.903 23.868 112.903 22.86C112.903 21.852 112.689 20.9933 112.259 20.284C111.849 19.556 111.307 19.0053 110.635 18.632C109.963 18.24 109.235 18.044 108.451 18.044C107.667 18.044 106.93 18.24 106.239 18.632C105.567 19.0053 105.017 19.556 104.587 20.284C104.177 20.9933 103.971 21.852 103.971 22.86C103.971 23.868 104.177 24.736 104.587 25.464C105.017 26.1733 105.567 26.724 106.239 27.116C106.93 27.4893 107.667 27.676 108.451 27.676ZM118.711 30V15.72H121.567V17.68H121.735C122.146 16.9893 122.743 16.42 123.527 15.972C124.311 15.5053 125.179 15.272 126.131 15.272C127.195 15.272 128.1 15.524 128.847 16.028C129.594 16.532 130.126 17.1667 130.443 17.932C130.91 17.1853 131.544 16.56 132.347 16.056C133.15 15.5333 134.13 15.272 135.287 15.272C136.967 15.272 138.218 15.7853 139.039 16.812C139.86 17.82 140.271 19.164 140.271 20.844V30H137.275V21.348C137.275 20.2093 137.023 19.3787 136.519 18.856C136.034 18.3147 135.352 18.044 134.475 18.044C133.784 18.044 133.178 18.24 132.655 18.632C132.132 19.0053 131.722 19.5187 131.423 20.172C131.143 20.8253 131.003 21.5533 131.003 22.356V30H128.007V21.348C128.007 20.2093 127.755 19.3787 127.251 18.856C126.747 18.3147 126.038 18.044 125.123 18.044C124.451 18.044 123.863 18.24 123.359 18.632C122.855 19.024 122.454 19.5467 122.155 20.2C121.875 20.8533 121.735 21.5813 121.735 22.384V30H118.711ZM157.531 30.448C156.056 30.448 154.759 30.112 153.639 29.44C152.519 28.768 151.642 27.8627 151.007 26.724C150.372 25.5853 150.055 24.2973 150.055 22.86C150.055 21.4413 150.372 20.1627 151.007 19.024C151.642 17.8667 152.519 16.952 153.639 16.28C154.759 15.608 156.056 15.272 157.531 15.272C158.987 15.272 160.275 15.608 161.395 16.28C162.515 16.952 163.392 17.8667 164.027 19.024C164.662 20.1627 164.979 21.4413 164.979 22.86C164.979 24.2973 164.662 25.5853 164.027 26.724C163.392 27.8627 162.515 28.768 161.395 29.44C160.275 30.112 158.987 30.448 157.531 30.448ZM157.531 27.676C158.315 27.676 159.043 27.4893 159.715 27.116C160.387 26.724 160.928 26.1733 161.339 25.464C161.768 24.736 161.983 23.868 161.983 22.86C161.983 21.852 161.768 20.9933 161.339 20.284C160.928 19.556 160.387 19.0053 159.715 18.632C159.043 18.24 158.315 18.044 157.531 18.044C156.747 18.044 156.01 18.24 155.319 18.632C154.647 19.0053 154.096 19.556 153.667 20.284C153.256 20.9933 153.051 21.852 153.051 22.86C153.051 23.868 153.256 24.736 153.667 25.464C154.096 26.1733 154.647 26.724 155.319 27.116C156.01 27.4893 156.747 27.676 157.531 27.676Z" fill="white"/>
<g id="GPay Logo (Dark)">
<g id="GPay">
<g id="Pay">
<path id="Fill 1" fill-rule="evenodd" clip-rule="evenodd" d="M216.529 9.34665V17.5128H221.565C222.765 17.5128 223.757 17.1096 224.541 16.3032C225.347 15.4988 225.75 14.5394 225.75 13.4288C225.75 12.3406 225.347 11.3924 224.541 10.586C223.757 9.75916 222.765 9.34479 221.565 9.34479H216.529V9.34665ZM216.529 20.3872V29.8599H213.521V6.47218H221.499C223.527 6.47218 225.248 7.14787 226.666 8.49738C228.105 9.84688 228.824 11.4913 228.824 13.4288C228.824 15.411 228.105 17.0667 226.666 18.3938C225.27 19.7227 223.547 20.3854 221.499 20.3854H216.529V20.3872Z" fill="white"/>
<path id="Fill 3" fill-rule="evenodd" clip-rule="evenodd" d="M231.864 24.9602C231.864 25.7442 232.197 26.3975 232.862 26.9201C233.527 27.4427 234.306 27.704 235.2 27.704C236.465 27.704 237.591 27.2354 238.584 26.3004C239.576 25.3634 240.071 24.264 240.071 23.0022C239.133 22.2612 237.825 21.8916 236.147 21.8916C234.925 21.8916 233.907 22.1866 233.09 22.7745C232.273 23.3623 231.864 24.0886 231.864 24.9602ZM235.756 13.3317C237.98 13.3317 239.735 13.9253 241.022 15.1124C242.308 16.2995 242.95 17.9271 242.95 19.9952V29.8599H240.073V27.6387H239.942C238.699 29.4677 237.042 30.3825 234.972 30.3825C233.206 30.3825 231.728 29.8599 230.541 28.8146C229.353 27.7694 228.759 26.4628 228.759 24.8949C228.759 23.2393 229.385 21.9232 230.638 20.9434C231.892 19.9635 233.565 19.4726 235.658 19.4726C237.444 19.4726 238.916 19.7993 240.071 20.4525V19.7657C240.071 18.7204 239.656 17.8338 238.829 17.104C237.999 16.3742 237.031 16.0102 235.919 16.0102C234.239 16.0102 232.911 16.7176 231.93 18.1343L229.28 16.4675C230.741 14.377 232.899 13.3317 235.756 13.3317Z" fill="white"/>
<path id="Fill 5" fill-rule="evenodd" clip-rule="evenodd" d="M259.463 13.8543L249.424 36.9154H246.318L250.046 28.8464L243.44 13.8543H246.71L251.484 25.3522H251.55L256.193 13.8543H259.463Z" fill="white"/>
</g>
<g id="G">
<path id="Fill 8" fill-rule="evenodd" clip-rule="evenodd" d="M204.373 18.3452C204.373 17.3989 204.293 16.4861 204.141 15.6126H191.454V20.7885H198.72C198.408 22.4757 197.465 23.9112 196.033 24.8725V28.2341H200.37C202.91 25.8935 204.373 22.4348 204.373 18.3452Z" fill="#4285F4"/>
<path id="Fill 10" fill-rule="evenodd" clip-rule="evenodd" d="M191.454 31.4782C195.084 31.4782 198.141 30.2873 200.37 28.2341L196.033 24.8725C194.826 25.6844 193.272 26.1585 191.454 26.1585C187.944 26.1585 184.966 23.7955 183.901 20.6112H179.433V24.0736C181.647 28.4637 186.197 31.4782 191.454 31.4782Z" fill="#34A853"/>
<path id="Fill 12" fill-rule="evenodd" clip-rule="evenodd" d="M183.901 20.6111C183.628 19.7992 183.479 18.9331 183.479 18.0391C183.479 17.145 183.628 16.2789 183.901 15.467V12.0045H179.433C178.518 13.8188 178 15.8683 178 18.0391C178 20.2098 178.518 22.2595 179.433 24.0736L183.901 20.6111Z" fill="#FABB05"/>
<path id="Fill 14" fill-rule="evenodd" clip-rule="evenodd" d="M191.454 9.91964C193.436 9.91964 195.213 10.6009 196.615 11.9355V11.9374L200.455 8.10163C198.123 5.93272 195.082 4.60001 191.454 4.60001C186.197 4.60001 181.647 7.61447 179.433 12.0046L183.901 15.467C184.966 12.2827 187.944 9.91964 191.454 9.91964Z" fill="#E94235"/>
</g>
</g>
</g>
</g>
</svg>
