<svg width="282" height="38" viewBox="0 0 282 38" fill="none" xmlns="http://www.w3.org/2000/svg">
<g id="pt_subscribe_with_Light">
<path id="Text" d="M1.2614 30L8.8214 9.952H12.3214L19.9094 30H16.5214L14.6734 24.848H6.4974L4.6494 30H1.2614ZM9.7454 15.86L7.5334 21.992H13.6374L11.4254 15.86L10.6694 13.564H10.5014L9.7454 15.86ZM27.6095 30.448C25.8922 30.448 24.5202 30.0747 23.4935 29.328C22.4668 28.5627 21.7575 27.6573 21.3655 26.612L24.0815 25.436C24.4175 26.2013 24.9028 26.7893 25.5375 27.2C26.1722 27.592 26.8908 27.788 27.6935 27.788C28.4402 27.788 29.0842 27.6573 29.6255 27.396C30.1668 27.116 30.4375 26.668 30.4375 26.052C30.4375 25.4547 30.1668 25.016 29.6255 24.736C29.0842 24.456 28.4122 24.2133 27.6095 24.008L25.9015 23.616C25.2108 23.448 24.5668 23.1867 23.9695 22.832C23.3722 22.4773 22.8868 22.02 22.5135 21.46C22.1402 20.8813 21.9535 20.2093 21.9535 19.444C21.9535 18.604 22.2055 17.876 22.7095 17.26C23.2135 16.6253 23.8762 16.14 24.6975 15.804C25.5375 15.4493 26.4428 15.272 27.4135 15.272C28.7388 15.272 29.8962 15.5333 30.8855 16.056C31.8935 16.56 32.6308 17.3253 33.0975 18.352L30.4935 19.528C30.1575 18.8933 29.7188 18.4547 29.1775 18.212C28.6548 17.9507 28.0762 17.82 27.4415 17.82C26.7322 17.82 26.1348 17.9693 25.6495 18.268C25.1828 18.5667 24.9495 18.94 24.9495 19.388C24.9495 19.8733 25.1548 20.256 25.5655 20.536C25.9948 20.816 26.5175 21.04 27.1335 21.208L29.2055 21.712C30.6242 22.0667 31.6882 22.608 32.3975 23.336C33.1068 24.0453 33.4615 24.9133 33.4615 25.94C33.4615 26.8547 33.2002 27.6573 32.6775 28.348C32.1548 29.02 31.4455 29.5427 30.5495 29.916C29.6722 30.2707 28.6922 30.448 27.6095 30.448ZM41.6087 30.448C39.8914 30.448 38.5194 30.0747 37.4927 29.328C36.466 28.5627 35.7567 27.6573 35.3647 26.612L38.0807 25.436C38.4167 26.2013 38.902 26.7893 39.5367 27.2C40.1714 27.592 40.89 27.788 41.6927 27.788C42.4394 27.788 43.0834 27.6573 43.6247 27.396C44.166 27.116 44.4367 26.668 44.4367 26.052C44.4367 25.4547 44.166 25.016 43.6247 24.736C43.0834 24.456 42.4114 24.2133 41.6087 24.008L39.9007 23.616C39.21 23.448 38.566 23.1867 37.9687 22.832C37.3714 22.4773 36.886 22.02 36.5127 21.46C36.1394 20.8813 35.9527 20.2093 35.9527 19.444C35.9527 18.604 36.2047 17.876 36.7087 17.26C37.2127 16.6253 37.8754 16.14 38.6967 15.804C39.5367 15.4493 40.442 15.272 41.4127 15.272C42.738 15.272 43.8954 15.5333 44.8847 16.056C45.8927 16.56 46.63 17.3253 47.0967 18.352L44.4927 19.528C44.1567 18.8933 43.718 18.4547 43.1767 18.212C42.654 17.9507 42.0754 17.82 41.4407 17.82C40.7314 17.82 40.134 17.9693 39.6487 18.268C39.182 18.5667 38.9487 18.94 38.9487 19.388C38.9487 19.8733 39.154 20.256 39.5647 20.536C39.994 20.816 40.5167 21.04 41.1327 21.208L43.2047 21.712C44.6234 22.0667 45.6874 22.608 46.3967 23.336C47.106 24.0453 47.4607 24.9133 47.4607 25.94C47.4607 26.8547 47.1994 27.6573 46.6767 28.348C46.154 29.02 45.4447 29.5427 44.5487 29.916C43.6714 30.2707 42.6914 30.448 41.6087 30.448ZM51.9992 13.62C51.4392 13.62 50.9539 13.424 50.5432 13.032C50.1512 12.6213 49.9552 12.136 49.9552 11.576C49.9552 11.016 50.1512 10.54 50.5432 10.148C50.9539 9.756 51.4392 9.56 51.9992 9.56C52.5592 9.56 53.0352 9.756 53.4272 10.148C53.8379 10.54 54.0432 11.016 54.0432 11.576C54.0432 12.136 53.8379 12.6213 53.4272 13.032C53.0352 13.424 52.5592 13.62 51.9992 13.62ZM50.4872 30V15.72H53.5112V30H50.4872ZM57.5632 30V15.72H60.4192V17.68H60.5872C60.9979 16.9893 61.6045 16.42 62.4072 15.972C63.2285 15.5053 64.1245 15.272 65.0952 15.272C66.8499 15.272 68.1659 15.7947 69.0432 16.84C69.9205 17.8853 70.3592 19.2667 70.3592 20.984V30H67.3632V21.376C67.3632 20.2187 67.0739 19.3787 66.4952 18.856C65.9165 18.3147 65.1605 18.044 64.2272 18.044C63.4992 18.044 62.8645 18.2493 62.3232 18.66C61.7819 19.052 61.3525 19.5747 61.0352 20.228C60.7365 20.8813 60.5872 21.5813 60.5872 22.328V30H57.5632ZM78.4487 30.448C77.422 30.448 76.5073 30.252 75.7047 29.86C74.902 29.4493 74.2767 28.88 73.8287 28.152C73.3807 27.424 73.1567 26.5933 73.1567 25.66C73.1567 24.652 73.418 23.7933 73.9407 23.084C74.482 22.356 75.2007 21.8053 76.0967 21.432C76.9927 21.0587 77.982 20.872 79.0647 20.872C79.9607 20.872 80.7447 20.956 81.4167 21.124C82.1073 21.292 82.63 21.4693 82.9847 21.656V20.9C82.9847 19.9667 82.6487 19.22 81.9767 18.66C81.3047 18.1 80.4367 17.82 79.3727 17.82C78.6447 17.82 77.954 17.988 77.3007 18.324C76.6473 18.6413 76.1247 19.08 75.7327 19.64L73.6607 18.044C74.2767 17.1853 75.0887 16.5133 76.0967 16.028C77.1233 15.524 78.2433 15.272 79.4567 15.272C81.5287 15.272 83.1247 15.7853 84.2447 16.812C85.3647 17.82 85.9247 19.2387 85.9247 21.068V30H82.9847V28.236H82.8167C82.4433 28.8147 81.8833 29.328 81.1367 29.776C80.39 30.224 79.494 30.448 78.4487 30.448ZM78.9807 27.984C79.7647 27.984 80.4553 27.7973 81.0527 27.424C81.65 27.0507 82.1167 26.5653 82.4527 25.968C82.8073 25.352 82.9847 24.6893 82.9847 23.98C82.5553 23.7373 82.0513 23.5413 81.4727 23.392C80.894 23.224 80.278 23.14 79.6247 23.14C78.3927 23.14 77.5153 23.392 76.9927 23.896C76.47 24.3813 76.2087 24.9787 76.2087 25.688C76.2087 26.36 76.4607 26.9107 76.9647 27.34C77.4687 27.7693 78.1407 27.984 78.9807 27.984ZM89.5538 30V15.72H92.4098V17.82H92.5778C92.8952 17.092 93.4365 16.4947 94.2018 16.028C94.9858 15.5427 95.8258 15.3 96.7218 15.3C97.1138 15.3 97.4405 15.328 97.7018 15.384C97.9818 15.44 98.2338 15.5053 98.4578 15.58V18.716C98.1032 18.5667 97.7392 18.4453 97.3658 18.352C97.0112 18.2587 96.6378 18.212 96.2458 18.212C95.5365 18.212 94.9018 18.408 94.3418 18.8C93.8005 19.1733 93.3712 19.6867 93.0538 20.34C92.7365 20.9747 92.5778 21.6747 92.5778 22.44V30H89.5538ZM114.535 30.448C113.098 30.448 111.829 30.1213 110.727 29.468C109.626 28.8147 108.758 27.9187 108.123 26.78C107.489 25.6227 107.171 24.316 107.171 22.86C107.171 21.404 107.489 20.1067 108.123 18.968C108.758 17.8107 109.626 16.9053 110.727 16.252C111.829 15.5987 113.098 15.272 114.535 15.272C116.122 15.272 117.457 15.6267 118.539 16.336C119.641 17.0453 120.425 18.0067 120.891 19.22L118.147 20.34C117.494 18.8093 116.271 18.044 114.479 18.044C113.695 18.044 112.977 18.2493 112.323 18.66C111.67 19.052 111.147 19.612 110.755 20.34C110.363 21.0493 110.167 21.8893 110.167 22.86C110.167 23.8307 110.363 24.68 110.755 25.408C111.147 26.136 111.67 26.696 112.323 27.088C112.977 27.48 113.695 27.676 114.479 27.676C115.394 27.676 116.169 27.4707 116.803 27.06C117.438 26.6307 117.933 26.052 118.287 25.324L120.975 26.5C120.471 27.6387 119.669 28.5813 118.567 29.328C117.466 30.0747 116.122 30.448 114.535 30.448ZM130.451 30.448C128.977 30.448 127.679 30.112 126.559 29.44C125.439 28.768 124.562 27.8627 123.927 26.724C123.293 25.5853 122.975 24.2973 122.975 22.86C122.975 21.4413 123.293 20.1627 123.927 19.024C124.562 17.8667 125.439 16.952 126.559 16.28C127.679 15.608 128.977 15.272 130.451 15.272C131.907 15.272 133.195 15.608 134.315 16.28C135.435 16.952 136.313 17.8667 136.947 19.024C137.582 20.1627 137.899 21.4413 137.899 22.86C137.899 24.2973 137.582 25.5853 136.947 26.724C136.313 27.8627 135.435 28.768 134.315 29.44C133.195 30.112 131.907 30.448 130.451 30.448ZM130.451 27.676C131.235 27.676 131.963 27.4893 132.635 27.116C133.307 26.724 133.849 26.1733 134.259 25.464C134.689 24.736 134.903 23.868 134.903 22.86C134.903 21.852 134.689 20.9933 134.259 20.284C133.849 19.556 133.307 19.0053 132.635 18.632C131.963 18.24 131.235 18.044 130.451 18.044C129.667 18.044 128.93 18.24 128.239 18.632C127.567 19.0053 127.017 19.556 126.587 20.284C126.177 20.9933 125.971 21.852 125.971 22.86C125.971 23.868 126.177 24.736 126.587 25.464C127.017 26.1733 127.567 26.724 128.239 27.116C128.93 27.4893 129.667 27.676 130.451 27.676ZM140.711 30V15.72H143.567V17.68H143.735C144.146 16.9893 144.743 16.42 145.527 15.972C146.311 15.5053 147.179 15.272 148.131 15.272C149.195 15.272 150.1 15.524 150.847 16.028C151.594 16.532 152.126 17.1667 152.443 17.932C152.91 17.1853 153.544 16.56 154.347 16.056C155.15 15.5333 156.13 15.272 157.287 15.272C158.967 15.272 160.218 15.7853 161.039 16.812C161.86 17.82 162.271 19.164 162.271 20.844V30H159.275V21.348C159.275 20.2093 159.023 19.3787 158.519 18.856C158.034 18.3147 157.352 18.044 156.475 18.044C155.784 18.044 155.178 18.24 154.655 18.632C154.132 19.0053 153.722 19.5187 153.423 20.172C153.143 20.8253 153.003 21.5533 153.003 22.356V30H150.007V21.348C150.007 20.2093 149.755 19.3787 149.251 18.856C148.747 18.3147 148.038 18.044 147.123 18.044C146.451 18.044 145.863 18.24 145.359 18.632C144.855 19.024 144.454 19.5467 144.155 20.2C143.875 20.8533 143.735 21.5813 143.735 22.384V30H140.711ZM179.531 30.448C178.056 30.448 176.759 30.112 175.639 29.44C174.519 28.768 173.642 27.8627 173.007 26.724C172.372 25.5853 172.055 24.2973 172.055 22.86C172.055 21.4413 172.372 20.1627 173.007 19.024C173.642 17.8667 174.519 16.952 175.639 16.28C176.759 15.608 178.056 15.272 179.531 15.272C180.987 15.272 182.275 15.608 183.395 16.28C184.515 16.952 185.392 17.8667 186.027 19.024C186.662 20.1627 186.979 21.4413 186.979 22.86C186.979 24.2973 186.662 25.5853 186.027 26.724C185.392 27.8627 184.515 28.768 183.395 29.44C182.275 30.112 180.987 30.448 179.531 30.448ZM179.531 27.676C180.315 27.676 181.043 27.4893 181.715 27.116C182.387 26.724 182.928 26.1733 183.339 25.464C183.768 24.736 183.983 23.868 183.983 22.86C183.983 21.852 183.768 20.9933 183.339 20.284C182.928 19.556 182.387 19.0053 181.715 18.632C181.043 18.24 180.315 18.044 179.531 18.044C178.747 18.044 178.01 18.24 177.319 18.632C176.647 19.0053 176.096 19.556 175.667 20.284C175.256 20.9933 175.051 21.852 175.051 22.86C175.051 23.868 175.256 24.736 175.667 25.464C176.096 26.1733 176.647 26.724 177.319 27.116C178.01 27.4893 178.747 27.676 179.531 27.676Z" fill="#3C4043"/>
<g id="GPay Logo (Light)">
<g id="GPay">
<g id="Pay">
<path id="Fill 1" fill-rule="evenodd" clip-rule="evenodd" d="M238.529 9.44664V17.6128H243.565C244.765 17.6128 245.757 17.2096 246.541 16.4032C247.347 15.5988 247.75 14.6394 247.75 13.5288C247.75 12.4406 247.347 11.4924 246.541 10.686C245.757 9.85915 244.765 9.44478 243.565 9.44478H238.529V9.44664ZM238.529 20.4872V29.9599H235.521V6.57217H243.499C245.527 6.57217 247.248 7.24786 248.666 8.59737C250.105 9.94688 250.824 11.5913 250.824 13.5288C250.824 15.511 250.105 17.1667 248.666 18.4938C247.27 19.8227 245.547 20.4854 243.499 20.4854H238.529V20.4872Z" fill="#5F6368"/>
<path id="Fill 3" fill-rule="evenodd" clip-rule="evenodd" d="M253.864 25.0602C253.864 25.8442 254.197 26.4975 254.862 27.0201C255.527 27.5427 256.306 27.804 257.2 27.804C258.465 27.804 259.591 27.3354 260.584 26.4004C261.576 25.4634 262.071 24.364 262.071 23.1022C261.133 22.3612 259.825 21.9916 258.147 21.9916C256.925 21.9916 255.907 22.2865 255.09 22.8745C254.273 23.4623 253.864 24.1886 253.864 25.0602ZM257.756 13.4317C259.98 13.4317 261.735 14.0252 263.022 15.2124C264.308 16.3995 264.95 18.0271 264.95 20.0952V29.9599H262.073V27.7387H261.942C260.699 29.5677 259.042 30.4825 256.972 30.4825C255.206 30.4825 253.728 29.9599 252.541 28.9146C251.353 27.8694 250.759 26.5628 250.759 24.9949C250.759 23.3393 251.385 22.0232 252.638 21.0434C253.892 20.0635 255.565 19.5726 257.658 19.5726C259.444 19.5726 260.916 19.8992 262.071 20.5525V19.8656C262.071 18.8204 261.656 17.9338 260.829 17.204C259.999 16.4741 259.031 16.1102 257.919 16.1102C256.239 16.1102 254.911 16.8176 253.93 18.2343L251.28 16.5675C252.741 14.4769 254.899 13.4317 257.756 13.4317Z" fill="#5F6368"/>
<path id="Fill 5" fill-rule="evenodd" clip-rule="evenodd" d="M281.463 13.9543L271.424 37.0154H268.318L272.046 28.9464L265.44 13.9543H268.71L273.484 25.4522H273.55L278.193 13.9543H281.463Z" fill="#5F6368"/>
</g>
<g id="G">
<path id="Fill 8" fill-rule="evenodd" clip-rule="evenodd" d="M226.373 18.4452C226.373 17.4989 226.293 16.5861 226.141 15.7126H213.454V20.8885H220.72C220.408 22.5757 219.465 24.0112 218.033 24.9725V28.3341H222.37C224.91 25.9935 226.373 22.5348 226.373 18.4452Z" fill="#4285F4"/>
<path id="Fill 10" fill-rule="evenodd" clip-rule="evenodd" d="M213.454 31.5782C217.084 31.5782 220.141 30.3873 222.37 28.3341L218.033 24.9725C216.826 25.7844 215.272 26.2585 213.454 26.2585C209.944 26.2585 206.966 23.8955 205.901 20.7112H201.433V24.1736C203.647 28.5637 208.197 31.5782 213.454 31.5782Z" fill="#34A853"/>
<path id="Fill 12" fill-rule="evenodd" clip-rule="evenodd" d="M205.901 20.7111C205.628 19.8992 205.479 19.0331 205.479 18.139C205.479 17.245 205.628 16.3789 205.901 15.567V12.1045H201.433C200.518 13.9188 200 15.9683 200 18.139C200 20.3098 200.518 22.3595 201.433 24.1736L205.901 20.7111Z" fill="#FABB05"/>
<path id="Fill 14" fill-rule="evenodd" clip-rule="evenodd" d="M213.454 10.0196C215.436 10.0196 217.213 10.7009 218.615 12.0355V12.0374L222.455 8.20162C220.123 6.03271 217.082 4.7 213.454 4.7C208.197 4.7 203.647 7.71446 201.433 12.1046L205.901 15.567C206.966 12.3827 209.944 10.0196 213.454 10.0196Z" fill="#E94235"/>
</g>
</g>
</g>
</g>
</svg>
