<svg width="161" height="21" viewBox="0 0 161 21" fill="none" xmlns="http://www.w3.org/2000/svg">
<g id="pt_subscribe_with_Pay_NBG">
<path id="Left Text" d="M0.549372 15.0006L4.86937 3.54461H6.86937L11.2054 15.0006H9.26937L8.21337 12.0566H3.54137L2.48537 15.0006H0.549372ZM7.62137 10.4246L6.35737 6.92061L5.92537 5.60861H5.82937L5.39737 6.92061L4.13337 10.4246H7.62137ZM15.584 15.2566C14.9333 15.2566 14.368 15.1606 13.888 14.9686C13.408 14.7659 13.0133 14.4993 12.704 14.1686C12.3947 13.8273 12.1653 13.4593 12.016 13.0646L13.568 12.3926C13.76 12.8299 14.032 13.1659 14.384 13.4006C14.7467 13.6246 15.1627 13.7366 15.632 13.7366C16.0587 13.7366 16.4267 13.6619 16.736 13.5126C17.0453 13.3526 17.2 13.0966 17.2 12.7446C17.2 12.5206 17.1253 12.3393 16.976 12.2006C16.8373 12.0513 16.6453 11.9286 16.4 11.8326C16.1653 11.7366 15.8933 11.6513 15.584 11.5766L14.608 11.3526C14.224 11.2566 13.856 11.1073 13.504 10.9046C13.1627 10.6913 12.8853 10.4246 12.672 10.1046C12.4587 9.78461 12.352 9.40594 12.352 8.96861C12.352 8.47794 12.4907 8.05661 12.768 7.70461C13.056 7.34194 13.44 7.06461 13.92 6.87261C14.4 6.68061 14.9173 6.58461 15.472 6.58461C15.984 6.58461 16.448 6.65394 16.864 6.79261C17.2907 6.92061 17.6587 7.11794 17.968 7.38461C18.288 7.64061 18.5387 7.96061 18.72 8.34461L17.232 9.01661C17.0507 8.65394 16.8053 8.40328 16.496 8.26461C16.1867 8.11528 15.8507 8.04061 15.488 8.04061C15.0827 8.04061 14.7413 8.12594 14.464 8.29661C14.1973 8.45661 14.064 8.66994 14.064 8.93661C14.064 9.21394 14.1813 9.43261 14.416 9.59261C14.6613 9.75261 14.96 9.88061 15.312 9.97661L16.496 10.2646C17.3067 10.4673 17.9147 10.7766 18.32 11.1926C18.7253 11.5979 18.928 12.0939 18.928 12.6806C18.928 13.2033 18.7787 13.6619 18.48 14.0566C18.1813 14.4406 17.776 14.7393 17.264 14.9526C16.7627 15.1553 16.2027 15.2566 15.584 15.2566ZM23.5621 15.2566C22.9115 15.2566 22.3461 15.1606 21.8661 14.9686C21.3861 14.7659 20.9915 14.4993 20.6821 14.1686C20.3728 13.8273 20.1435 13.4593 19.9941 13.0646L21.5461 12.3926C21.7381 12.8299 22.0101 13.1659 22.3621 13.4006C22.7248 13.6246 23.1408 13.7366 23.6101 13.7366C24.0368 13.7366 24.4048 13.6619 24.7141 13.5126C25.0235 13.3526 25.1781 13.0966 25.1781 12.7446C25.1781 12.5206 25.1035 12.3393 24.9541 12.2006C24.8155 12.0513 24.6235 11.9286 24.3781 11.8326C24.1435 11.7366 23.8715 11.6513 23.5621 11.5766L22.5861 11.3526C22.2021 11.2566 21.8341 11.1073 21.4821 10.9046C21.1408 10.6913 20.8635 10.4246 20.6501 10.1046C20.4368 9.78461 20.3301 9.40594 20.3301 8.96861C20.3301 8.47794 20.4688 8.05661 20.7461 7.70461C21.0341 7.34194 21.4181 7.06461 21.8981 6.87261C22.3781 6.68061 22.8955 6.58461 23.4501 6.58461C23.9621 6.58461 24.4261 6.65394 24.8421 6.79261C25.2688 6.92061 25.6368 7.11794 25.9461 7.38461C26.2661 7.64061 26.5168 7.96061 26.6981 8.34461L25.2101 9.01661C25.0288 8.65394 24.7835 8.40328 24.4741 8.26461C24.1648 8.11528 23.8288 8.04061 23.4661 8.04061C23.0608 8.04061 22.7195 8.12594 22.4421 8.29661C22.1755 8.45661 22.0421 8.66994 22.0421 8.93661C22.0421 9.21394 22.1595 9.43261 22.3941 9.59261C22.6395 9.75261 22.9381 9.88061 23.2901 9.97661L24.4741 10.2646C25.2848 10.4673 25.8928 10.7766 26.2981 11.1926C26.7035 11.5979 26.9061 12.0939 26.9061 12.6806C26.9061 13.2033 26.7568 13.6619 26.4581 14.0566C26.1595 14.4406 25.7541 14.7393 25.2421 14.9526C24.7408 15.1553 24.1808 15.2566 23.5621 15.2566ZM28.6141 15.0006V6.84061H30.3421V15.0006H28.6141ZM29.4781 5.64061C29.1581 5.64061 28.8808 5.52861 28.6461 5.30461C28.4221 5.06994 28.3101 4.79261 28.3101 4.47261C28.3101 4.14194 28.4221 3.86994 28.6461 3.65661C28.8808 3.43261 29.1581 3.32061 29.4781 3.32061C29.8088 3.32061 30.0861 3.43261 30.3101 3.65661C30.5341 3.86994 30.6461 4.14194 30.6461 4.47261C30.6461 4.79261 30.5341 5.06994 30.3101 5.30461C30.0861 5.52861 29.8088 5.64061 29.4781 5.64061ZM32.6361 15.0006V6.84061H34.2681V7.96061H34.3641C34.5988 7.56594 34.9455 7.24061 35.4041 6.98461C35.8735 6.71794 36.3855 6.58461 36.9401 6.58461C37.9428 6.58461 38.6948 6.88328 39.1961 7.48061C39.6975 8.06728 39.9481 8.85661 39.9481 9.84861V15.0006H38.2361V10.0726C38.2361 9.41128 38.0708 8.93128 37.7401 8.63261C37.4095 8.32328 36.9775 8.16861 36.4441 8.16861C36.0281 8.16861 35.6655 8.28594 35.3561 8.52061C35.0468 8.74461 34.8015 9.04328 34.6201 9.41661C34.4495 9.78994 34.3641 10.1899 34.3641 10.6166V15.0006H32.6361ZM44.5492 15.2566C43.9626 15.2566 43.4399 15.1393 42.9812 14.9046C42.5332 14.6699 42.1759 14.3499 41.9092 13.9446C41.6532 13.5286 41.5252 13.0539 41.5252 12.5206C41.5252 11.9339 41.6746 11.4379 41.9732 11.0326C42.2826 10.6273 42.6932 10.3179 43.2052 10.1046C43.7172 9.89128 44.2826 9.78461 44.9012 9.78461C45.2426 9.78461 45.5572 9.81128 45.8452 9.86461C46.1439 9.90728 46.3999 9.96061 46.6132 10.0246C46.8372 10.0886 47.0132 10.1579 47.1412 10.2326V9.80061C47.1412 9.26728 46.9492 8.84061 46.5652 8.52061C46.1812 8.20061 45.6852 8.04061 45.0772 8.04061C44.6612 8.04061 44.2666 8.13661 43.8932 8.32861C43.5199 8.50994 43.2212 8.76061 42.9972 9.08061L41.8132 8.16861C42.0479 7.83794 42.3306 7.55528 42.6612 7.32061C43.0026 7.08594 43.3812 6.90461 43.7972 6.77661C44.2239 6.64861 44.6666 6.58461 45.1252 6.58461C46.3092 6.58461 47.2212 6.87794 47.8612 7.46461C48.5012 8.04061 48.8212 8.85128 48.8212 9.89661V15.0006H47.1412V13.9926H47.0452C46.9066 14.2059 46.7146 14.4086 46.4692 14.6006C46.2346 14.7926 45.9519 14.9473 45.6212 15.0646C45.3012 15.1926 44.9439 15.2566 44.5492 15.2566ZM44.8532 13.8486C45.3012 13.8486 45.6959 13.7419 46.0372 13.5286C46.3892 13.3153 46.6612 13.0379 46.8532 12.6966C47.0452 12.3446 47.1412 11.9659 47.1412 11.5606C46.9066 11.4219 46.6186 11.3099 46.2772 11.2246C45.9466 11.1286 45.5946 11.0806 45.2212 11.0806C44.5172 11.0806 44.0159 11.2193 43.7172 11.4966C43.4186 11.7739 43.2692 12.1206 43.2692 12.5366C43.2692 12.9206 43.4132 13.2353 43.7012 13.4806C43.9892 13.7259 44.3732 13.8486 44.8532 13.8486ZM50.8736 15.0006V6.84061H52.5056V8.04061H52.6016C52.7296 7.76328 52.911 7.51794 53.1456 7.30461C53.391 7.09128 53.6683 6.92061 53.9776 6.79261C54.2976 6.66461 54.6283 6.60061 54.9696 6.60061C55.1936 6.60061 55.3803 6.61661 55.5296 6.64861C55.6896 6.66994 55.8336 6.70728 55.9616 6.76061V8.55261C55.759 8.46728 55.551 8.39794 55.3376 8.34461C55.135 8.29128 54.9216 8.26461 54.6976 8.26461C54.2923 8.26461 53.9296 8.37661 53.6096 8.60061C53.3003 8.81394 53.055 9.10194 52.8736 9.46461C52.6923 9.82728 52.6016 10.2326 52.6016 10.6806V15.0006H50.8736ZM65.1059 15.2566C64.2845 15.2566 63.5539 15.0699 62.9139 14.6966C62.2845 14.3233 61.7885 13.8113 61.4259 13.1606C61.0739 12.4993 60.8979 11.7526 60.8979 10.9206C60.8979 10.0886 61.0739 9.34728 61.4259 8.69661C61.7885 8.04594 62.2845 7.53394 62.9139 7.16061C63.5539 6.77661 64.2845 6.58461 65.1059 6.58461C66.0125 6.58461 66.7752 6.78728 67.3939 7.19261C68.0232 7.59794 68.4712 8.14728 68.7379 8.84061L67.1699 9.48061C66.9779 9.04328 66.7005 8.71794 66.3379 8.50461C65.9859 8.28061 65.5645 8.16861 65.0739 8.16861C64.6259 8.16861 64.2152 8.28594 63.8419 8.52061C63.4685 8.74461 63.1699 9.05928 62.9459 9.46461C62.7219 9.86994 62.6099 10.3553 62.6099 10.9206C62.6099 11.4753 62.7219 11.9606 62.9459 12.3766C63.1699 12.7926 63.4685 13.1126 63.8419 13.3366C64.2152 13.5606 64.6259 13.6726 65.0739 13.6726C65.5965 13.6726 66.0392 13.5553 66.4019 13.3206C66.7645 13.0859 67.0472 12.7553 67.2499 12.3286L68.7859 13.0006C68.4872 13.6513 68.0232 14.1899 67.3939 14.6166C66.7752 15.0433 66.0125 15.2566 65.1059 15.2566ZM74.1792 15.2566C73.3366 15.2566 72.5952 15.0646 71.9552 14.6806C71.3152 14.2966 70.8139 13.7793 70.4512 13.1286C70.0886 12.4673 69.9072 11.7313 69.9072 10.9206C69.9072 10.1099 70.0886 9.37928 70.4512 8.72861C70.8139 8.06728 71.3152 7.54461 71.9552 7.16061C72.5952 6.77661 73.3366 6.58461 74.1792 6.58461C75.0112 6.58461 75.7472 6.78194 76.3872 7.17661C77.0272 7.56061 77.5286 8.07794 77.8912 8.72861C78.2539 9.37928 78.4352 10.1099 78.4352 10.9206C78.4352 11.7313 78.2539 12.4673 77.8912 13.1286C77.5286 13.7793 77.0272 14.2966 76.3872 14.6806C75.7472 15.0646 75.0112 15.2566 74.1792 15.2566ZM74.1792 13.6726C74.6272 13.6726 75.0432 13.5659 75.4272 13.3526C75.8112 13.1286 76.1206 12.8139 76.3552 12.4086C76.6006 11.9926 76.7232 11.4966 76.7232 10.9206C76.7232 10.3446 76.6006 9.85394 76.3552 9.44861C76.1206 9.03261 75.8112 8.71794 75.4272 8.50461C75.0432 8.28061 74.6272 8.16861 74.1792 8.16861C73.7312 8.16861 73.3099 8.28061 72.9152 8.50461C72.5312 8.71794 72.2166 9.03261 71.9712 9.44861C71.7366 9.85394 71.6192 10.3446 71.6192 10.9206C71.6192 11.4966 71.7366 11.9926 71.9712 12.4086C72.2166 12.8139 72.5366 13.1286 72.9312 13.3526C73.3259 13.5659 73.7419 13.6726 74.1792 13.6726ZM80.0205 15.0006V6.84061H81.6525V7.96061H81.7485C81.9085 7.69394 82.1165 7.45928 82.3725 7.25661C82.6285 7.05394 82.9165 6.89394 83.2365 6.77661C83.5672 6.64861 83.9085 6.58461 84.2605 6.58461C84.8685 6.58461 85.3858 6.72861 85.8125 7.01661C86.2392 7.30461 86.5432 7.66728 86.7245 8.10461C86.9912 7.67794 87.3538 7.32061 87.8125 7.03261C88.2712 6.73394 88.8312 6.58461 89.4925 6.58461C90.4525 6.58461 91.1672 6.87794 91.6365 7.46461C92.1058 8.04061 92.3405 8.80861 92.3405 9.76861V15.0006H90.6285V10.0566C90.6285 9.39528 90.4845 8.91528 90.1965 8.61661C89.9192 8.31794 89.5298 8.16861 89.0285 8.16861C88.6338 8.16861 88.2872 8.28061 87.9885 8.50461C87.6898 8.71794 87.4552 9.01128 87.2845 9.38461C87.1245 9.75794 87.0445 10.1739 87.0445 10.6326V15.0006H85.3325V10.0566C85.3325 9.40594 85.1885 8.93128 84.9005 8.63261C84.6125 8.32328 84.2072 8.16861 83.6845 8.16861C83.3112 8.16861 82.9752 8.28061 82.6765 8.50461C82.3885 8.72861 82.1592 9.02728 81.9885 9.40061C81.8285 9.77394 81.7485 10.1899 81.7485 10.6486V15.0006H80.0205ZM102.161 15.2566C101.318 15.2566 100.577 15.0646 99.9365 14.6806C99.2965 14.2966 98.7952 13.7793 98.4325 13.1286C98.0698 12.4673 97.8885 11.7313 97.8885 10.9206C97.8885 10.1099 98.0698 9.37928 98.4325 8.72861C98.7952 8.06728 99.2965 7.54461 99.9365 7.16061C100.577 6.77661 101.318 6.58461 102.161 6.58461C102.993 6.58461 103.729 6.78194 104.369 7.17661C105.009 7.56061 105.51 8.07794 105.873 8.72861C106.235 9.37928 106.417 10.1099 106.417 10.9206C106.417 11.7313 106.235 12.4673 105.873 13.1286C105.51 13.7793 105.009 14.2966 104.369 14.6806C103.729 15.0646 102.993 15.2566 102.161 15.2566ZM102.161 13.6726C102.609 13.6726 103.025 13.5659 103.409 13.3526C103.793 13.1286 104.102 12.8139 104.337 12.4086C104.582 11.9926 104.705 11.4966 104.705 10.9206C104.705 10.3446 104.582 9.85394 104.337 9.44861C104.102 9.03261 103.793 8.71794 103.409 8.50461C103.025 8.28061 102.609 8.16861 102.161 8.16861C101.713 8.16861 101.291 8.28061 100.897 8.50461C100.513 8.71794 100.198 9.03261 99.9525 9.44861C99.7178 9.85394 99.6005 10.3446 99.6005 10.9206C99.6005 11.4966 99.7178 11.9926 99.9525 12.4086C100.198 12.8139 100.518 13.1286 100.913 13.3526C101.307 13.5659 101.723 13.6726 102.161 13.6726Z" fill="white"/>
<g id="GPay (Dark)">
<g id="GPay">
<g id="Pay">
<path id="Fill 1" fill-rule="evenodd" clip-rule="evenodd" d="M135.356 3.42339V8.16175H138.278C138.974 8.16175 139.55 7.92781 140.005 7.45993C140.473 6.99313 140.707 6.43644 140.707 5.79203C140.707 5.16061 140.473 4.61041 140.005 4.14254C139.55 3.66274 138.974 3.4223 138.278 3.4223H135.356V3.42339ZM135.356 9.82966V15.3262H133.611V1.75549H138.24C139.417 1.75549 140.415 2.14756 141.238 2.93061C142.073 3.71365 142.491 4.66782 142.491 5.79203C142.491 6.94224 142.073 7.90291 141.238 8.67296C140.428 9.44409 139.429 9.82858 138.24 9.82858H135.356V9.82966Z" fill="white"/>
<path id="Fill 3" fill-rule="evenodd" clip-rule="evenodd" d="M144.255 12.4831C144.255 12.9379 144.448 13.317 144.834 13.6203C145.22 13.9235 145.672 14.0752 146.19 14.0752C146.924 14.0752 147.578 13.8032 148.153 13.2607C148.729 12.717 149.017 12.0791 149.017 11.3469C148.472 10.917 147.713 10.7025 146.74 10.7025C146.031 10.7025 145.44 10.8736 144.966 11.2148C144.492 11.5559 144.255 11.9773 144.255 12.4831M146.513 5.73566C147.803 5.73566 148.821 6.08007 149.569 6.76889C150.314 7.45771 150.687 8.40213 150.687 9.60216V15.3261H149.018V14.0373H148.942C148.221 15.0985 147.259 15.6294 146.058 15.6294C145.033 15.6294 144.176 15.3261 143.487 14.7196C142.797 14.1131 142.453 13.3549 142.453 12.4452C142.453 11.4845 142.816 10.7208 143.543 10.1523C144.271 9.58375 145.241 9.2989 146.456 9.2989C147.492 9.2989 148.346 9.48844 149.017 9.86751V9.46894C149.017 8.86243 148.776 8.34798 148.296 7.92451C147.814 7.50103 147.252 7.28984 146.607 7.28984C145.633 7.28984 144.862 7.70032 144.293 8.52235L142.755 7.55519C143.603 6.34217 144.855 5.73566 146.513 5.73566" fill="white"/>
<path id="Fill 5" fill-rule="evenodd" clip-rule="evenodd" d="M160.269 6.03894L154.443 19.4201H152.641L154.804 14.738L150.971 6.03894H152.869L155.639 12.7106H155.677L158.371 6.03894H160.269Z" fill="white"/>
</g>
<g id="G">
<path id="Fill 8" fill-rule="evenodd" clip-rule="evenodd" d="M128.303 8.64473C128.303 8.09563 128.256 7.56601 128.168 7.05914H120.806V10.0625H125.023C124.842 11.0414 124.294 11.8744 123.464 12.4322V14.3828H125.98C127.454 13.0246 128.303 11.0177 128.303 8.64473" fill="#4285F4"/>
<path id="Fill 10" fill-rule="evenodd" clip-rule="evenodd" d="M120.806 16.2651C122.913 16.2651 124.687 15.5741 125.98 14.3828L123.464 12.4322C122.763 12.9033 121.861 13.1784 120.806 13.1784C118.77 13.1784 117.042 11.8073 116.424 9.95959H113.832V11.9687C115.116 14.516 117.757 16.2651 120.806 16.2651" fill="#34A853"/>
<path id="Fill 12" fill-rule="evenodd" clip-rule="evenodd" d="M116.424 9.9596C116.266 9.48847 116.179 8.98593 116.179 8.46715C116.179 7.94837 116.266 7.44583 116.424 6.9747V4.96564H113.832C113.3 6.01837 113 7.20756 113 8.46715C113 9.72674 113.3 10.916 113.832 11.9687L116.424 9.9596Z" fill="#FABB05"/>
<path id="Fill 14" fill-rule="evenodd" clip-rule="evenodd" d="M120.806 3.75583C121.957 3.75583 122.988 4.15115 123.801 4.92553V4.92661L126.029 2.70094C124.676 1.44243 122.912 0.669128 120.806 0.669128C117.757 0.669128 115.116 2.41826 113.832 4.9656L116.424 6.97467C117.042 5.12698 118.77 3.75583 120.806 3.75583" fill="#E94235"/>
</g>
</g>
</g>
</g>
</svg>
