<svg width="180" height="38" viewBox="0 0 180 38" fill="none" xmlns="http://www.w3.org/2000/svg">
<g id="pt_view_in_Light">
<path id="Text" d="M8.19541 30L1.08341 9.952H4.44341L8.97941 23.28L9.67941 25.548H9.84741L10.6034 23.28L15.3354 9.952H18.6954L11.3874 30H8.19541ZM26.0138 30.448C24.6138 30.448 23.3631 30.1213 22.2618 29.468C21.1604 28.8147 20.2924 27.9187 19.6578 26.78C19.0418 25.6413 18.7338 24.344 18.7338 22.888C18.7338 21.5253 19.0324 20.2653 19.6298 19.108C20.2271 17.9507 21.0578 17.0267 22.1218 16.336C23.2044 15.6267 24.4458 15.272 25.8458 15.272C27.3204 15.272 28.5711 15.5893 29.5978 16.224C30.6431 16.8587 31.4364 17.7267 31.9778 18.828C32.5191 19.9293 32.7898 21.1707 32.7898 22.552C32.7898 22.7573 32.7804 22.944 32.7618 23.112C32.7618 23.28 32.7524 23.4107 32.7338 23.504H21.7018C21.8511 24.9227 22.3458 25.9867 23.1858 26.696C24.0444 27.4053 25.0151 27.76 26.0978 27.76C27.0684 27.76 27.8711 27.5453 28.5058 27.116C29.1404 26.668 29.6444 26.1173 30.0178 25.464L32.5098 26.668C31.8938 27.788 31.0538 28.7027 29.9898 29.412C28.9258 30.1027 27.6004 30.448 26.0138 30.448ZM25.8738 17.848C24.8658 17.848 24.0071 18.156 23.2978 18.772C22.5884 19.388 22.1124 20.2093 21.8698 21.236H29.7938C29.7564 20.7507 29.5978 20.2467 29.3178 19.724C29.0378 19.2013 28.6084 18.7627 28.0298 18.408C27.4698 18.0347 26.7511 17.848 25.8738 17.848ZM35.8952 30V15.72H38.7512V17.82H38.9192C39.2366 17.092 39.7779 16.4947 40.5432 16.028C41.3272 15.5427 42.1672 15.3 43.0632 15.3C43.4552 15.3 43.7819 15.328 44.0432 15.384C44.3232 15.44 44.5752 15.5053 44.7992 15.58V18.716C44.4446 18.5667 44.0806 18.4453 43.7072 18.352C43.3526 18.2587 42.9792 18.212 42.5872 18.212C41.8779 18.212 41.2432 18.408 40.6832 18.8C40.1419 19.1733 39.7126 19.6867 39.3952 20.34C39.0779 20.9747 38.9192 21.6747 38.9192 22.44V30H35.8952ZM54.2687 30V15.72H57.1247V17.68H57.2927C57.7034 16.9893 58.31 16.42 59.1127 15.972C59.934 15.5053 60.83 15.272 61.8007 15.272C63.5554 15.272 64.8714 15.7947 65.7487 16.84C66.626 17.8853 67.0647 19.2667 67.0647 20.984V30H64.0687V21.376C64.0687 20.2187 63.7794 19.3787 63.2007 18.856C62.622 18.3147 61.866 18.044 60.9327 18.044C60.2047 18.044 59.57 18.2493 59.0287 18.66C58.4874 19.052 58.058 19.5747 57.7407 20.228C57.442 20.8813 57.2927 21.5813 57.2927 22.328V30H54.2687ZM77.5309 30.448C76.0562 30.448 74.7589 30.112 73.6389 29.44C72.5189 28.768 71.6415 27.8627 71.0069 26.724C70.3722 25.5853 70.0549 24.2973 70.0549 22.86C70.0549 21.4413 70.3722 20.1627 71.0069 19.024C71.6415 17.8667 72.5189 16.952 73.6389 16.28C74.7589 15.608 76.0562 15.272 77.5309 15.272C78.9869 15.272 80.2749 15.608 81.3949 16.28C82.5149 16.952 83.3922 17.8667 84.0269 19.024C84.6615 20.1627 84.9789 21.4413 84.9789 22.86C84.9789 24.2973 84.6615 25.5853 84.0269 26.724C83.3922 27.8627 82.5149 28.768 81.3949 29.44C80.2749 30.112 78.9869 30.448 77.5309 30.448ZM77.5309 27.676C78.3149 27.676 79.0429 27.4893 79.7149 27.116C80.3869 26.724 80.9282 26.1733 81.3389 25.464C81.7682 24.736 81.9829 23.868 81.9829 22.86C81.9829 21.852 81.7682 20.9933 81.3389 20.284C80.9282 19.556 80.3869 19.0053 79.7149 18.632C79.0429 18.24 78.3149 18.044 77.5309 18.044C76.7469 18.044 76.0095 18.24 75.3189 18.632C74.6469 19.0053 74.0962 19.556 73.6669 20.284C73.2562 20.9933 73.0509 21.852 73.0509 22.86C73.0509 23.868 73.2562 24.736 73.6669 25.464C74.0962 26.1733 74.6469 26.724 75.3189 27.116C76.0095 27.4893 76.7469 27.676 77.5309 27.676Z" fill="#3C4043"/>
<g id="GPay Logo (Light)">
<g id="GPay">
<g id="Pay">
<path id="Fill 1" fill-rule="evenodd" clip-rule="evenodd" d="M136.529 9.44664V17.6128H141.565C142.765 17.6128 143.757 17.2096 144.541 16.4032C145.347 15.5988 145.75 14.6394 145.75 13.5288C145.75 12.4406 145.347 11.4924 144.541 10.686C143.757 9.85915 142.765 9.44478 141.565 9.44478H136.529V9.44664ZM136.529 20.4872V29.9599H133.521V6.57217H141.499C143.527 6.57217 145.248 7.24786 146.666 8.59737C148.105 9.94688 148.824 11.5913 148.824 13.5288C148.824 15.511 148.105 17.1667 146.666 18.4938C145.27 19.8227 143.547 20.4854 141.499 20.4854H136.529V20.4872Z" fill="#5F6368"/>
<path id="Fill 3" fill-rule="evenodd" clip-rule="evenodd" d="M151.864 25.0602C151.864 25.8442 152.197 26.4975 152.862 27.0201C153.527 27.5427 154.306 27.804 155.2 27.804C156.465 27.804 157.591 27.3354 158.584 26.4004C159.576 25.4634 160.071 24.364 160.071 23.1022C159.133 22.3612 157.825 21.9916 156.147 21.9916C154.925 21.9916 153.907 22.2865 153.09 22.8745C152.273 23.4623 151.864 24.1886 151.864 25.0602ZM155.756 13.4317C157.98 13.4317 159.735 14.0252 161.022 15.2124C162.308 16.3995 162.95 18.0271 162.95 20.0952V29.9599H160.073V27.7387H159.942C158.699 29.5677 157.042 30.4825 154.972 30.4825C153.206 30.4825 151.728 29.9599 150.541 28.9146C149.353 27.8694 148.759 26.5628 148.759 24.9949C148.759 23.3393 149.385 22.0232 150.638 21.0434C151.892 20.0635 153.565 19.5726 155.658 19.5726C157.444 19.5726 158.916 19.8992 160.071 20.5525V19.8656C160.071 18.8204 159.656 17.9338 158.829 17.204C157.999 16.4741 157.031 16.1102 155.919 16.1102C154.239 16.1102 152.911 16.8176 151.93 18.2343L149.28 16.5675C150.741 14.4769 152.899 13.4317 155.756 13.4317Z" fill="#5F6368"/>
<path id="Fill 5" fill-rule="evenodd" clip-rule="evenodd" d="M179.463 13.9543L169.424 37.0154H166.318L170.046 28.9464L163.44 13.9543H166.71L171.484 25.4522H171.55L176.193 13.9543H179.463Z" fill="#5F6368"/>
</g>
<g id="G">
<path id="Fill 8" fill-rule="evenodd" clip-rule="evenodd" d="M124.373 18.4452C124.373 17.4989 124.293 16.5861 124.141 15.7126H111.454V20.8885H118.72C118.408 22.5757 117.465 24.0112 116.033 24.9725V28.3341H120.37C122.91 25.9935 124.373 22.5348 124.373 18.4452Z" fill="#4285F4"/>
<path id="Fill 10" fill-rule="evenodd" clip-rule="evenodd" d="M111.454 31.5782C115.084 31.5782 118.141 30.3873 120.37 28.3341L116.033 24.9725C114.826 25.7844 113.272 26.2585 111.454 26.2585C107.944 26.2585 104.966 23.8955 103.901 20.7112H99.4331V24.1736C101.647 28.5637 106.197 31.5782 111.454 31.5782Z" fill="#34A853"/>
<path id="Fill 12" fill-rule="evenodd" clip-rule="evenodd" d="M103.901 20.7111C103.628 19.8992 103.479 19.0331 103.479 18.139C103.479 17.245 103.628 16.3789 103.901 15.567V12.1045H99.4332C98.5176 13.9188 98 15.9683 98 18.139C98 20.3098 98.5176 22.3595 99.4332 24.1736L103.901 20.7111Z" fill="#FABB05"/>
<path id="Fill 14" fill-rule="evenodd" clip-rule="evenodd" d="M111.454 10.0196C113.436 10.0196 115.213 10.7009 116.615 12.0355V12.0374L120.455 8.20162C118.123 6.03271 115.082 4.7 111.454 4.7C106.197 4.7 101.647 7.71446 99.4331 12.1046L103.901 15.567C104.966 12.3827 107.944 10.0196 111.454 10.0196Z" fill="#E94235"/>
</g>
</g>
</g>
</g>
</svg>
