<svg width="117" height="21" viewBox="0 0 117 21" fill="none" xmlns="http://www.w3.org/2000/svg">
<g id="ar_add_to_Pay_NBG">
<g id="GPay (Dark)">
<g id="GPay">
<g id="Pay">
<path id="Fill 1" fill-rule="evenodd" clip-rule="evenodd" d="M22.3563 3.42339V8.16175H25.2784C25.9745 8.16175 26.5501 7.92781 27.0055 7.45993C27.4728 6.99313 27.707 6.43644 27.707 5.79203C27.707 5.16061 27.4728 4.61041 27.0055 4.14254C26.5501 3.66274 25.9745 3.4223 25.2784 3.4223H22.3563V3.42339ZM22.3563 9.82966V15.3262H20.6107V1.75549H25.2404C26.4169 1.75549 27.4154 2.14756 28.2383 2.93061C29.0732 3.71365 29.4906 4.66782 29.4906 5.79203C29.4906 6.94224 29.0731 7.90291 28.2383 8.67296C27.4283 9.44409 26.4287 9.82858 25.2404 9.82858H22.3563V9.82966Z" fill="white"/>
<path id="Fill 3" fill-rule="evenodd" clip-rule="evenodd" d="M31.2546 12.4831C31.2546 12.9379 31.4476 13.317 31.8337 13.6203C32.2195 13.9235 32.6717 14.0752 33.19 14.0752C33.9239 14.0752 34.5777 13.8032 35.1535 13.2607C35.7293 12.717 36.0165 12.0791 36.0165 11.3469C35.4722 10.917 34.7133 10.7025 33.7396 10.7025C33.0306 10.7025 32.4397 10.8736 31.9659 11.2148C31.492 11.5559 31.2546 11.9773 31.2546 12.4831M33.513 5.73566C34.8033 5.73566 35.8214 6.08007 36.5685 6.76889C37.3145 7.45771 37.6873 8.40213 37.6873 9.60216V15.3261H36.0177V14.0373H35.9417C35.2207 15.0985 34.259 15.6294 33.0578 15.6294C32.0332 15.6294 31.1755 15.3261 30.4869 14.7196C29.7975 14.1131 29.4527 13.3549 29.4527 12.4452C29.4527 11.4845 29.8158 10.7208 30.5433 10.1523C31.2708 9.58375 32.2413 9.2989 33.4557 9.2989C34.4921 9.2989 35.3465 9.48844 36.0165 9.86751V9.46894C36.0165 8.86243 35.7758 8.34798 35.2956 7.92451C34.8141 7.50103 34.2525 7.28984 33.6074 7.28984C32.6326 7.28984 31.8618 7.70032 31.2926 8.52235L29.7551 7.55519C30.6029 6.34217 31.8552 5.73566 33.513 5.73566" fill="white"/>
<path id="Fill 5" fill-rule="evenodd" clip-rule="evenodd" d="M47.2687 6.03894L41.4432 19.4201H39.6411L41.8043 14.738L37.9714 6.03894H39.8688L42.639 12.7106H42.677L45.3713 6.03894H47.2687Z" fill="white"/>
</g>
<g id="G">
<path id="Fill 8" fill-rule="evenodd" clip-rule="evenodd" d="M15.3029 8.64473C15.3029 8.09563 15.2562 7.56601 15.1684 7.05914H7.80648V10.0625H12.0231C11.842 11.0414 11.2945 11.8744 10.4639 12.4322V14.3828H12.9804C14.4539 13.0246 15.3029 11.0177 15.3029 8.64473" fill="#4285F4"/>
<path id="Fill 10" fill-rule="evenodd" clip-rule="evenodd" d="M7.80646 16.2651C9.91313 16.2651 11.6869 15.5741 12.9804 14.3828L10.4639 12.4322C9.7635 12.9033 8.86142 13.1784 7.80646 13.1784C5.77028 13.1784 4.04201 11.8073 3.424 9.95959H0.831596V11.9687C2.11641 14.516 4.75652 16.2651 7.80646 16.2651" fill="#34A853"/>
<path id="Fill 12" fill-rule="evenodd" clip-rule="evenodd" d="M3.42401 9.9596C3.26571 9.48847 3.17897 8.98593 3.17897 8.46715C3.17897 7.94837 3.26571 7.44583 3.42401 6.9747V4.96564H0.831606C0.300332 6.01837 0 7.20756 0 8.46715C0 9.72674 0.300332 10.916 0.831606 11.9687L3.42401 9.9596Z" fill="#FABB05"/>
<path id="Fill 14" fill-rule="evenodd" clip-rule="evenodd" d="M7.80646 3.75583C8.95683 3.75583 9.98794 4.15115 10.8011 4.92553V4.92661L13.0292 2.70094C11.6761 1.44243 9.91204 0.669128 7.80646 0.669128C4.75652 0.669128 2.11641 2.41826 0.831596 4.9656L3.424 6.97467C4.04201 5.12698 5.77028 3.75583 7.80646 3.75583" fill="#E94235"/>
</g>
</g>
</g>
<path id="Right Text" d="M66.0322 15.0806L66.1762 13.7686C66.7842 13.7686 67.2109 13.7099 67.4562 13.5926C67.7016 13.4753 67.8402 13.2726 67.8722 12.9846C67.9149 12.6859 67.9256 12.2646 67.9042 11.7206L67.6002 3.57661H68.8962L69.2162 11.5766C69.2482 12.3339 69.1949 12.9739 69.0562 13.4966C68.9282 14.0193 68.6296 14.4139 68.1602 14.6806C67.7016 14.9473 66.9922 15.0806 66.0322 15.0806ZM54.7362 15.0166C54.7362 14.6326 54.7896 14.2059 54.8962 13.7366C55.0029 13.2673 55.1736 12.7499 55.4082 12.1846L56.5602 12.6326C56.3896 13.0806 56.2616 13.4913 56.1762 13.8646C56.0909 14.2379 56.0482 14.5846 56.0482 14.9046C56.0482 15.5019 56.2189 15.9819 56.5602 16.3446C56.9122 16.7179 57.3709 16.9899 57.9362 17.1606C58.5122 17.3313 59.1416 17.4166 59.8242 17.4166C60.6456 17.4166 61.3922 17.3206 62.0642 17.1286C62.7469 16.9473 63.2909 16.6966 63.6962 16.3766C64.1016 16.0566 64.3042 15.7046 64.3042 15.3206C64.3042 15.0433 64.0909 14.8033 63.6642 14.6006C63.2376 14.3979 62.6402 14.1899 61.8722 13.9766L62.1762 12.6486C63.2749 13.0859 64.1336 13.3846 64.7522 13.5446C65.3816 13.6939 65.8616 13.7686 66.1922 13.7686C66.4162 13.7686 66.5762 13.8326 66.6722 13.9606C66.7789 14.0779 66.8322 14.2219 66.8322 14.3926C66.8322 14.5633 66.7576 14.7233 66.6082 14.8726C66.4589 15.0113 66.2669 15.0806 66.0322 15.0806H65.4402C65.4509 15.1766 65.4616 15.2513 65.4722 15.3046C65.4936 15.3686 65.5042 15.4486 65.5042 15.5446C65.5042 16.0673 65.2642 16.5686 64.7842 17.0486C64.3042 17.5393 63.6109 17.9393 62.7042 18.2486C61.8082 18.5579 60.7309 18.7126 59.4722 18.7126C58.6189 18.7126 57.8349 18.5793 57.1202 18.3126C56.4056 18.0459 55.8296 17.6353 55.3922 17.0806C54.9549 16.5366 54.7362 15.8486 54.7362 15.0166ZM71.8157 15.0006L71.4957 3.57661H72.7917L73.1117 15.0006H71.8157ZM71.3837 19.8486L71.1917 18.9846C71.3517 18.9526 71.4904 18.9206 71.6077 18.8886C71.7251 18.8566 71.8371 18.8299 71.9437 18.8086C71.7411 18.6699 71.5651 18.4886 71.4157 18.2646C71.2664 18.0406 71.1917 17.7953 71.1917 17.5286C71.1917 17.0486 71.3571 16.6859 71.6877 16.4406C72.0291 16.1953 72.4131 16.0726 72.8397 16.0726C73.0851 16.0726 73.3357 16.1153 73.5917 16.2006L73.4637 17.0006C73.3571 16.9793 73.2504 16.9579 73.1437 16.9366C73.0477 16.9153 72.9464 16.9046 72.8397 16.9046C72.3171 16.9046 72.0557 17.0966 72.0557 17.4806C72.0557 17.7579 72.1571 17.9873 72.3597 18.1686C72.5731 18.3499 72.7811 18.4673 72.9837 18.5206C73.3891 18.4033 73.7464 18.2859 74.0557 18.1686L74.3117 18.9846C74.0557 19.0806 73.7517 19.1819 73.3997 19.2886C73.0584 19.3953 72.7064 19.4966 72.3437 19.5926C71.9917 19.6993 71.6717 19.7846 71.3837 19.8486ZM85.9666 15.0806C85.2733 15.0806 84.676 14.9633 84.1746 14.7286C83.684 14.4939 83.3373 14.0619 83.1346 13.4326C82.5586 13.5713 82.004 13.6299 81.4706 13.6086C80.948 13.5766 80.4733 13.4753 80.0466 13.3046C79.62 13.1233 79.284 12.8779 79.0386 12.5686C78.7933 12.2486 78.6706 11.8699 78.6706 11.4326C78.6706 10.8566 78.852 10.3339 79.2146 9.86461C79.5773 9.38461 80.068 8.97928 80.6866 8.64861C81.3053 8.31794 81.988 8.08861 82.7346 7.96061L82.6866 6.74461H83.9826L84.2386 12.0246C84.26 12.5259 84.3453 12.9046 84.4946 13.1606C84.6546 13.4059 84.868 13.5713 85.1346 13.6566C85.412 13.7313 85.7426 13.7686 86.1266 13.7686C86.3506 13.7686 86.5106 13.8326 86.6066 13.9606C86.7133 14.0779 86.7666 14.2219 86.7666 14.3926C86.7666 14.5633 86.692 14.7233 86.5426 14.8726C86.3933 15.0113 86.2013 15.0806 85.9666 15.0806ZM79.9346 11.2246C79.9346 11.4699 80.0306 11.6726 80.2226 11.8326C80.4253 11.9926 80.6813 12.1099 80.9906 12.1846C81.3 12.2593 81.6253 12.2966 81.9666 12.2966C82.3186 12.2966 82.644 12.2699 82.9426 12.2166L82.7986 9.28861C82.1906 9.35261 81.6733 9.49128 81.2466 9.70461C80.82 9.90728 80.4946 10.1473 80.2706 10.4246C80.0466 10.6913 79.9346 10.9579 79.9346 11.2246ZM83.2146 4.90461C82.9906 4.90461 82.7986 4.82994 82.6386 4.68061C82.4893 4.52061 82.4146 4.33394 82.4146 4.12061C82.4146 3.90728 82.4893 3.72061 82.6386 3.56061C82.7986 3.40061 82.9906 3.32061 83.2146 3.32061C83.428 3.32061 83.6093 3.40061 83.7586 3.56061C83.9186 3.72061 83.9986 3.90728 83.9986 4.12061C83.9986 4.33394 83.9186 4.52061 83.7586 4.68061C83.6093 4.82994 83.428 4.90461 83.2146 4.90461ZM81.0226 4.90461C80.7986 4.90461 80.6066 4.82994 80.4466 4.68061C80.2973 4.52061 80.2226 4.33394 80.2226 4.12061C80.2226 3.90728 80.2973 3.72061 80.4466 3.56061C80.6066 3.40061 80.7986 3.32061 81.0226 3.32061C81.236 3.32061 81.4173 3.40061 81.5666 3.56061C81.7266 3.72061 81.8066 3.90728 81.8066 4.12061C81.8066 4.33394 81.7266 4.52061 81.5666 4.68061C81.4173 4.82994 81.236 4.90461 81.0226 4.90461ZM86.1219 15.0806L86.2819 13.7686C86.6339 13.7686 87.0339 13.7686 87.4819 13.7686C87.9405 13.7579 88.3832 13.7366 88.8099 13.7046C89.2365 13.6619 89.5725 13.5979 89.8179 13.5126C90.1592 13.3953 90.4312 13.2459 90.6339 13.0646C90.8472 12.8726 91.0072 12.6273 91.1139 12.3286C90.9219 12.3926 90.7139 12.4406 90.4899 12.4726C90.2765 12.4939 90.0632 12.5046 89.8499 12.5046C89.0285 12.5046 88.3992 12.3126 87.9619 11.9286C87.5245 11.5446 87.3059 11.0593 87.3059 10.4726C87.3059 10.0673 87.3699 9.66194 87.4979 9.25661C87.6259 8.84061 87.8072 8.46194 88.0419 8.12061C88.2765 7.77928 88.5592 7.50728 88.8899 7.30461C89.2205 7.09128 89.5885 6.98461 89.9939 6.98461C90.5699 6.98461 91.0445 7.17661 91.4179 7.56061C91.8019 7.93394 92.0845 8.41928 92.2659 9.01661C92.4579 9.61394 92.5539 10.2486 92.5539 10.9206C92.5539 11.7206 92.4152 12.4086 92.1379 12.9846C91.8712 13.5499 91.4232 14.0193 90.7939 14.3926C90.4632 14.5846 90.0472 14.7339 89.5459 14.8406C89.0552 14.9366 88.5165 15.0006 87.9299 15.0326C87.3432 15.0646 86.7405 15.0806 86.1219 15.0806ZM88.5699 10.1526C88.5699 10.4833 88.6765 10.7499 88.8899 10.9526C89.1032 11.1446 89.4712 11.2406 89.9939 11.2406C90.4525 11.2406 90.8899 11.1766 91.3059 11.0486C91.3059 10.9846 91.3059 10.9099 91.3059 10.8246C91.3059 10.3873 91.2472 9.97661 91.1299 9.59261C91.0125 9.19794 90.8472 8.88328 90.6339 8.64861C90.4205 8.41394 90.1645 8.29661 89.8659 8.29661C89.6099 8.29661 89.3859 8.39261 89.1939 8.58461C89.0019 8.76594 88.8472 9.00061 88.7299 9.28861C88.6232 9.57661 88.5699 9.86461 88.5699 10.1526ZM89.6899 5.33661C89.4659 5.33661 89.2739 5.26194 89.1139 5.11261C88.9645 4.95261 88.8899 4.76594 88.8899 4.55261C88.8899 4.33928 88.9645 4.15261 89.1139 3.99261C89.2739 3.83261 89.4659 3.75261 89.6899 3.75261C89.9032 3.75261 90.0845 3.83261 90.2339 3.99261C90.3939 4.15261 90.4739 4.33928 90.4739 4.55261C90.4739 4.76594 90.3939 4.95261 90.2339 5.11261C90.0845 5.26194 89.9032 5.33661 89.6899 5.33661ZM98.0841 15.0806C97.2201 15.0806 96.5641 14.9846 96.1161 14.7926C95.6681 14.6006 95.3588 14.3019 95.1881 13.8966C95.0175 13.4913 94.9215 12.9686 94.9001 12.3286L94.5801 3.57661H95.8921L96.2121 11.8166C96.2335 12.3393 96.2815 12.7446 96.3561 13.0326C96.4415 13.3099 96.6228 13.5019 96.9001 13.6086C97.1881 13.7153 97.6361 13.7686 98.2441 13.7686C98.4681 13.7686 98.6281 13.8326 98.7241 13.9606C98.8308 14.0779 98.8841 14.2219 98.8841 14.3926C98.8841 14.5633 98.8095 14.7233 98.6601 14.8726C98.5108 15.0113 98.3188 15.0806 98.0841 15.0806ZM105.978 15.2886C104.837 15.2886 103.914 15.2353 103.21 15.1286C102.517 15.0326 101.989 14.8833 101.626 14.6806C101.264 14.4673 101.013 14.2006 100.874 13.8806C100.618 14.2539 100.346 14.5259 100.058 14.6966C99.781 14.8566 99.4877 14.9579 99.1784 15.0006C98.8797 15.0539 98.565 15.0806 98.2344 15.0806L98.3944 13.7686C98.8957 13.7686 99.2797 13.6726 99.5464 13.4806C99.813 13.2779 100.021 12.9473 100.17 12.4886C100.33 12.0299 100.506 11.4006 100.698 10.6006L101.866 10.9046C101.76 11.2779 101.674 11.6193 101.61 11.9286C101.557 12.2273 101.53 12.4459 101.53 12.5846C101.53 12.8833 101.61 13.1339 101.77 13.3366C101.941 13.5286 102.288 13.6726 102.81 13.7686C103.152 13.2353 103.557 12.6966 104.026 12.1526C104.496 11.5979 105.008 11.0913 105.562 10.6326C106.117 10.1739 106.693 9.80594 107.29 9.52861C107.898 9.24061 108.512 9.09661 109.13 9.09661C109.717 9.09661 110.218 9.21928 110.634 9.46461C111.061 9.69928 111.386 10.0193 111.61 10.4246C111.845 10.8299 111.962 11.2886 111.962 11.8006C111.962 12.4299 111.776 13.0113 111.402 13.5446C111.029 14.0673 110.405 14.4886 109.53 14.8086C108.666 15.1286 107.482 15.2886 105.978 15.2886ZM109.034 10.4086C108.554 10.4086 108.069 10.5313 107.578 10.7766C107.098 11.0113 106.64 11.3153 106.202 11.6886C105.765 12.0619 105.37 12.4513 105.018 12.8566C104.666 13.2513 104.373 13.6086 104.138 13.9286C104.704 13.9606 105.413 13.9766 106.266 13.9766C107.674 13.9766 108.768 13.8059 109.546 13.4646C110.336 13.1126 110.73 12.6006 110.73 11.9286C110.73 11.6939 110.672 11.4646 110.554 11.2406C110.437 11.0059 110.25 10.8086 109.994 10.6486C109.749 10.4886 109.429 10.4086 109.034 10.4086ZM108.666 7.44861C108.442 7.44861 108.25 7.37394 108.09 7.22461C107.941 7.06461 107.866 6.87794 107.866 6.66461C107.866 6.45128 107.941 6.26461 108.09 6.10461C108.25 5.94461 108.442 5.86461 108.666 5.86461C108.88 5.86461 109.061 5.94461 109.21 6.10461C109.37 6.26461 109.45 6.45128 109.45 6.66461C109.45 6.87794 109.37 7.06461 109.21 7.22461C109.061 7.37394 108.88 7.44861 108.666 7.44861ZM114.309 15.0006L113.989 3.57661H115.285L115.605 15.0006H114.309ZM113.877 19.8486L113.685 18.9846C113.845 18.9526 113.984 18.9206 114.101 18.8886C114.219 18.8566 114.331 18.8299 114.437 18.8086C114.235 18.6699 114.059 18.4886 113.909 18.2646C113.76 18.0406 113.685 17.7953 113.685 17.5286C113.685 17.0486 113.851 16.6859 114.181 16.4406C114.523 16.1953 114.907 16.0726 115.333 16.0726C115.579 16.0726 115.829 16.1153 116.085 16.2006L115.957 17.0006C115.851 16.9793 115.744 16.9579 115.637 16.9366C115.541 16.9153 115.44 16.9046 115.333 16.9046C114.811 16.9046 114.549 17.0966 114.549 17.4806C114.549 17.7579 114.651 17.9873 114.853 18.1686C115.067 18.3499 115.275 18.4673 115.477 18.5206C115.883 18.4033 116.24 18.2859 116.549 18.1686L116.805 18.9846C116.549 19.0806 116.245 19.1819 115.893 19.2886C115.552 19.3953 115.2 19.4966 114.837 19.5926C114.485 19.6993 114.165 19.7846 113.877 19.8486Z" fill="white"/>
</g>
</svg>
