<svg width="153" height="21" viewBox="0 0 153 21" fill="none" xmlns="http://www.w3.org/2000/svg">
<g id="ar_book_with_Pay_NBG">
<g id="GPay (Dark)">
<g id="GPay">
<g id="Pay">
<path id="Fill 1" fill-rule="evenodd" clip-rule="evenodd" d="M22.3563 3.42339V8.16175H25.2784C25.9745 8.16175 26.5501 7.92781 27.0055 7.45993C27.4728 6.99313 27.707 6.43644 27.707 5.79203C27.707 5.16061 27.4728 4.61041 27.0055 4.14254C26.5501 3.66274 25.9745 3.4223 25.2784 3.4223H22.3563V3.42339ZM22.3563 9.82966V15.3262H20.6107V1.75549H25.2404C26.4169 1.75549 27.4154 2.14756 28.2383 2.93061C29.0732 3.71365 29.4906 4.66782 29.4906 5.79203C29.4906 6.94224 29.0731 7.90291 28.2383 8.67296C27.4283 9.44409 26.4287 9.82858 25.2404 9.82858H22.3563V9.82966Z" fill="white"/>
<path id="Fill 3" fill-rule="evenodd" clip-rule="evenodd" d="M31.2546 12.4831C31.2546 12.9379 31.4476 13.317 31.8337 13.6203C32.2195 13.9235 32.6717 14.0752 33.19 14.0752C33.9239 14.0752 34.5777 13.8032 35.1535 13.2607C35.7293 12.717 36.0165 12.0791 36.0165 11.3469C35.4722 10.917 34.7133 10.7025 33.7396 10.7025C33.0306 10.7025 32.4397 10.8736 31.9659 11.2148C31.492 11.5559 31.2546 11.9773 31.2546 12.4831M33.513 5.73566C34.8033 5.73566 35.8214 6.08007 36.5685 6.76889C37.3145 7.45771 37.6873 8.40213 37.6873 9.60216V15.3261H36.0177V14.0373H35.9417C35.2207 15.0985 34.259 15.6294 33.0578 15.6294C32.0332 15.6294 31.1755 15.3261 30.4869 14.7196C29.7975 14.1131 29.4527 13.3549 29.4527 12.4452C29.4527 11.4845 29.8158 10.7208 30.5433 10.1523C31.2708 9.58375 32.2413 9.2989 33.4557 9.2989C34.4921 9.2989 35.3465 9.48844 36.0165 9.86751V9.46894C36.0165 8.86243 35.7758 8.34798 35.2956 7.92451C34.8141 7.50103 34.2525 7.28984 33.6074 7.28984C32.6326 7.28984 31.8618 7.70032 31.2926 8.52235L29.7551 7.55519C30.6029 6.34217 31.8552 5.73566 33.513 5.73566" fill="white"/>
<path id="Fill 5" fill-rule="evenodd" clip-rule="evenodd" d="M47.2687 6.03894L41.4432 19.4201H39.6411L41.8043 14.738L37.9714 6.03894H39.8688L42.639 12.7106H42.677L45.3713 6.03894H47.2687Z" fill="white"/>
</g>
<g id="G">
<path id="Fill 8" fill-rule="evenodd" clip-rule="evenodd" d="M15.3029 8.64473C15.3029 8.09563 15.2562 7.56601 15.1684 7.05914H7.80648V10.0625H12.0231C11.842 11.0414 11.2945 11.8744 10.4639 12.4322V14.3828H12.9804C14.4539 13.0246 15.3029 11.0177 15.3029 8.64473" fill="#4285F4"/>
<path id="Fill 10" fill-rule="evenodd" clip-rule="evenodd" d="M7.80646 16.2651C9.91313 16.2651 11.6869 15.5741 12.9804 14.3828L10.4639 12.4322C9.7635 12.9033 8.86142 13.1784 7.80646 13.1784C5.77028 13.1784 4.04201 11.8073 3.424 9.95959H0.831596V11.9687C2.11641 14.516 4.75652 16.2651 7.80646 16.2651" fill="#34A853"/>
<path id="Fill 12" fill-rule="evenodd" clip-rule="evenodd" d="M3.42401 9.9596C3.26571 9.48847 3.17897 8.98593 3.17897 8.46715C3.17897 7.94837 3.26571 7.44583 3.42401 6.9747V4.96564H0.831606C0.300332 6.01837 0 7.20756 0 8.46715C0 9.72674 0.300332 10.916 0.831606 11.9687L3.42401 9.9596Z" fill="#FABB05"/>
<path id="Fill 14" fill-rule="evenodd" clip-rule="evenodd" d="M7.80646 3.75583C8.95683 3.75583 9.98794 4.15115 10.8011 4.92553V4.92661L13.0292 2.70094C11.6761 1.44243 9.91204 0.669128 7.80646 0.669128C4.75652 0.669128 2.11641 2.41826 0.831596 4.9656L3.424 6.97467C4.04201 5.12698 5.77028 3.75583 7.80646 3.75583" fill="#E94235"/>
</g>
</g>
</g>
<path id="Right Text" d="M55.7277 21.2886C55.5357 20.5953 55.3757 19.9073 55.2477 19.2246C55.1197 18.5526 55.0237 17.9339 54.9597 17.3686C54.8957 16.8033 54.8637 16.3393 54.8637 15.9766C54.8637 15.3259 54.9811 14.7873 55.2157 14.3606C55.4504 13.9233 55.7651 13.5873 56.1597 13.3526C56.5544 13.1073 56.9917 12.9419 57.4717 12.8566C57.9624 12.7713 58.4637 12.7446 58.9757 12.7766C59.4984 12.7979 59.9891 12.8619 60.4477 12.9686C60.4797 12.4886 60.4317 12.0353 60.3037 11.6086C60.1757 11.1819 59.9731 10.8406 59.6957 10.5846C59.4184 10.3179 59.0771 10.1846 58.6717 10.1846C57.8931 10.1846 57.2211 10.7179 56.6557 11.7846L55.6637 11.2406C56.0691 10.3766 56.5437 9.76861 57.0877 9.41661C57.6424 9.06461 58.1971 8.88861 58.7517 8.88861C59.2957 8.88861 59.7544 9.00594 60.1277 9.24061C60.5011 9.46461 60.7944 9.76328 61.0077 10.1366C61.2317 10.4993 61.3917 10.8939 61.4877 11.3206C61.5944 11.7366 61.6477 12.1366 61.6477 12.5206C61.6477 12.9153 61.5784 13.3099 61.4397 13.7046C61.3011 14.0886 61.1731 14.3659 61.0557 14.5366C60.0851 14.2486 59.2317 14.0993 58.4957 14.0886C57.7704 14.0673 57.1997 14.2166 56.7837 14.5366C56.3784 14.8459 56.1757 15.3526 56.1757 16.0566C56.1757 16.4619 56.2077 16.9313 56.2717 17.4646C56.3357 18.0086 56.4264 18.5793 56.5437 19.1766C56.6611 19.7846 56.7997 20.3819 56.9597 20.9686L55.7277 21.2886ZM63.9157 15.0006L63.5957 3.57661H64.8917L65.2117 15.0006H63.9157ZM69.8462 13.7686C70.6356 13.7686 71.1956 13.6513 71.5262 13.4166C71.8569 13.1713 72.0222 12.8353 72.0222 12.4086C72.0222 12.1313 71.9262 11.7739 71.7342 11.3366C71.5422 10.8993 71.2862 10.4139 70.9662 9.88061C70.6569 9.33661 70.3102 8.78194 69.9262 8.21661L71.0302 7.49661C71.6489 8.44594 72.1502 9.31528 72.5342 10.1046C72.9289 10.8833 73.2222 11.5873 73.4142 12.2166C73.5636 12.6859 73.7289 13.0326 73.9102 13.2566C74.1022 13.4806 74.2996 13.6246 74.5022 13.6886C74.7049 13.7419 74.8916 13.7686 75.0622 13.7686C75.2862 13.7686 75.4516 13.8326 75.5582 13.9606C75.6649 14.0779 75.7182 14.2219 75.7182 14.3926C75.7182 14.5633 75.6436 14.7233 75.4942 14.8726C75.3449 15.0113 75.1529 15.0806 74.9182 15.0806C74.5022 15.0806 74.1022 14.9899 73.7182 14.8086C73.3342 14.6273 73.0249 14.3179 72.7902 13.8806C72.5769 14.2326 72.2356 14.5259 71.7662 14.7606C71.3076 14.9846 70.6676 15.0966 69.8462 15.0966C69.2596 15.0966 68.7156 15.0273 68.2142 14.8886C67.7129 14.7393 67.2969 14.5366 66.9662 14.2806L67.6062 13.1766C67.8196 13.3259 68.1182 13.4646 68.5022 13.5926C68.8862 13.7099 69.3342 13.7686 69.8462 13.7686ZM75.0719 15.0806L75.2159 13.7686C76.3145 13.7686 77.3812 13.6086 78.4159 13.2886C79.4505 12.9579 80.3945 12.4939 81.2479 11.8966C80.8319 11.5339 80.3199 11.2406 79.7119 11.0166C79.1145 10.7926 78.4532 10.6806 77.7279 10.6806C77.4612 10.6806 77.2265 10.6966 77.0239 10.7286C76.8212 10.7499 76.5759 10.7926 76.2879 10.8566L76.0319 9.64061C76.6292 9.45928 77.1945 9.36861 77.7279 9.36861C78.2825 9.36861 78.7839 9.43794 79.2319 9.57661C79.6799 9.70461 80.0852 9.86461 80.4479 10.0566C80.8212 10.2486 81.1679 10.4406 81.4879 10.6326C81.8185 10.8246 82.1385 10.9899 82.4479 11.1286C82.7572 11.2566 83.0772 11.3206 83.4079 11.3206H83.7439L83.8559 12.4726C83.5252 12.4726 83.2052 12.5099 82.8959 12.5846C83.0985 13.0646 83.3865 13.3846 83.7599 13.5446C84.1332 13.6939 84.6879 13.7686 85.4239 13.7686C85.6479 13.7686 85.8079 13.8326 85.9039 13.9606C86.0105 14.0779 86.0639 14.2219 86.0639 14.3926C86.0639 14.5633 85.9892 14.7233 85.8399 14.8726C85.6905 15.0113 85.4985 15.0806 85.2639 15.0806C84.6879 15.0806 84.1705 15.0326 83.7119 14.9366C83.2639 14.8299 82.8799 14.6273 82.5599 14.3286C82.2399 14.0193 82.0052 13.5606 81.8559 12.9526C81.4505 13.1446 81.0345 13.3633 80.6079 13.6086C80.1919 13.8433 79.7279 14.0726 79.2159 14.2966C78.7039 14.5206 78.1119 14.7073 77.4399 14.8566C76.7679 15.0059 75.9785 15.0806 75.0719 15.0806ZM77.5839 7.72061C77.3599 7.72061 77.1679 7.64594 77.0079 7.49661C76.8585 7.33661 76.7839 7.14994 76.7839 6.93661C76.7839 6.72328 76.8585 6.53661 77.0079 6.37661C77.1679 6.21661 77.3599 6.13661 77.5839 6.13661C77.7972 6.13661 77.9785 6.21661 78.1279 6.37661C78.2879 6.53661 78.3679 6.72328 78.3679 6.93661C78.3679 7.14994 78.2879 7.33661 78.1279 7.49661C77.9785 7.64594 77.7972 7.72061 77.5839 7.72061ZM85.4094 15.0806L85.5694 13.7686C86.1027 13.7686 86.5187 13.7313 86.8174 13.6566C87.116 13.5713 87.34 13.4166 87.4894 13.1926C87.6494 12.9579 87.7774 12.6219 87.8734 12.1846C87.9694 11.7473 88.0867 11.1766 88.2254 10.4726L89.4734 10.7126C89.4094 11.0006 89.3347 11.3313 89.2494 11.7046C89.1747 12.0779 89.1374 12.3926 89.1374 12.6486C89.1374 12.8086 89.148 12.9579 89.1694 13.0966C89.1907 13.2353 89.2707 13.3526 89.4094 13.4486C89.548 13.5446 89.7827 13.6246 90.1134 13.6886C90.444 13.7419 90.9187 13.7686 91.5374 13.7686C91.7614 13.7686 91.9214 13.8326 92.0174 13.9606C92.124 14.0779 92.1774 14.2219 92.1774 14.3926C92.1774 14.5633 92.1027 14.7233 91.9534 14.8726C91.804 15.0113 91.612 15.0806 91.3774 15.0806C90.684 15.0806 90.14 15.0433 89.7454 14.9686C89.3614 14.8833 89.0734 14.7659 88.8814 14.6166C88.7 14.4566 88.5667 14.2593 88.4814 14.0246C88.172 14.4619 87.788 14.7499 87.3294 14.8886C86.8814 15.0166 86.2414 15.0806 85.4094 15.0806ZM89.6814 8.82461C89.4574 8.82461 89.2654 8.74994 89.1054 8.60061C88.956 8.44061 88.8814 8.25394 88.8814 8.04061C88.8814 7.82728 88.956 7.64061 89.1054 7.48061C89.2654 7.32061 89.4574 7.24061 89.6814 7.24061C89.8947 7.24061 90.076 7.32061 90.2254 7.48061C90.3854 7.64061 90.4654 7.82728 90.4654 8.04061C90.4654 8.25394 90.3854 8.44061 90.2254 8.60061C90.076 8.74994 89.8947 8.82461 89.6814 8.82461ZM87.4894 8.82461C87.2654 8.82461 87.0734 8.74994 86.9134 8.60061C86.764 8.44061 86.6894 8.25394 86.6894 8.04061C86.6894 7.82728 86.764 7.64061 86.9134 7.48061C87.0734 7.32061 87.2654 7.24061 87.4894 7.24061C87.7027 7.24061 87.884 7.32061 88.0334 7.48061C88.1934 7.64061 88.2734 7.82728 88.2734 8.04061C88.2734 8.25394 88.1934 8.44061 88.0334 8.60061C87.884 8.74994 87.7027 8.82461 87.4894 8.82461ZM91.5281 15.0806L91.6881 13.7686C92.0295 13.7686 92.3068 13.7473 92.5201 13.7046C92.7335 13.6513 92.9095 13.5286 93.0481 13.3366C93.1975 13.1339 93.3361 12.8193 93.4641 12.3926C93.5921 11.9659 93.7415 11.3686 93.9121 10.6006L95.1121 10.9366C95.0481 11.2139 94.9735 11.5393 94.8881 11.9126C94.8028 12.2859 94.7601 12.6219 94.7601 12.9206C94.7601 13.1873 94.8615 13.3953 95.0641 13.5446C95.2668 13.6939 95.6348 13.7686 96.1681 13.7686C96.4881 13.7686 96.7495 13.7419 96.9521 13.6886C97.1548 13.6353 97.3201 13.5073 97.4481 13.3046C97.5868 13.1019 97.7095 12.7819 97.8161 12.3446C97.9228 11.8966 98.0348 11.2779 98.1521 10.4886L99.3681 10.7126C99.3361 10.9046 99.2935 11.1393 99.2401 11.4166C99.1975 11.6939 99.1601 11.9713 99.1281 12.2486C99.0961 12.5153 99.0801 12.7393 99.0801 12.9206C99.0801 13.0699 99.1121 13.2139 99.1761 13.3526C99.2508 13.4806 99.3895 13.5819 99.5921 13.6566C99.8055 13.7313 100.12 13.7686 100.536 13.7686C100.995 13.7686 101.363 13.6779 101.64 13.4966C101.917 13.3153 102.056 12.9473 102.056 12.3926C102.056 11.9979 101.96 11.4913 101.768 10.8726C101.587 10.2539 101.379 9.64061 101.144 9.03261L102.44 8.55261C102.568 8.90461 102.696 9.29928 102.824 9.73661C102.952 10.1633 103.059 10.5899 103.144 11.0166C103.229 11.4433 103.272 11.8166 103.272 12.1366C103.272 13.1286 103.027 13.8699 102.536 14.3606C102.045 14.8406 101.373 15.0806 100.52 15.0806C99.9335 15.0806 99.4695 15.0059 99.1281 14.8566C98.7975 14.6966 98.5575 14.4513 98.4081 14.1206C98.1521 14.5153 97.8428 14.7766 97.4801 14.9046C97.1281 15.0219 96.6268 15.0806 95.9761 15.0806C95.7521 15.0806 95.5121 15.0539 95.2561 15.0006C95.0108 14.9473 94.7815 14.8459 94.5681 14.6966C94.3548 14.5366 94.1895 14.3019 94.0721 13.9926C93.7948 14.4619 93.4481 14.7606 93.0321 14.8886C92.6268 15.0166 92.1255 15.0806 91.5281 15.0806ZM108.881 15.0806C108.017 15.0806 107.361 14.9846 106.913 14.7926C106.465 14.6006 106.156 14.3019 105.985 13.8966C105.814 13.4913 105.718 12.9686 105.697 12.3286L105.377 3.57661H106.689L107.009 11.8166C107.03 12.3393 107.078 12.7446 107.153 13.0326C107.238 13.3099 107.42 13.5019 107.697 13.6086C107.985 13.7153 108.433 13.7686 109.041 13.7686C109.265 13.7686 109.425 13.8326 109.521 13.9606C109.628 14.0779 109.681 14.2219 109.681 14.3926C109.681 14.5633 109.606 14.7233 109.457 14.8726C109.308 15.0113 109.116 15.0806 108.881 15.0806ZM109.031 15.0806L109.191 13.7686C109.703 13.7686 110.114 13.7366 110.423 13.6726C110.743 13.6086 110.973 13.4806 111.111 13.2886C111.25 13.0859 111.319 12.7873 111.319 12.3926C111.319 11.9979 111.223 11.4913 111.031 10.8726C110.85 10.2539 110.642 9.64061 110.407 9.03261L111.703 8.55261C111.842 8.90461 111.97 9.29928 112.087 9.73661C112.215 10.1633 112.322 10.5899 112.407 11.0166C112.493 11.4433 112.535 11.8166 112.535 12.1366C112.535 13.2139 112.247 13.9766 111.671 14.4246C111.106 14.8619 110.226 15.0806 109.031 15.0806ZM110.743 18.0566C110.519 18.0566 110.327 17.9766 110.167 17.8166C110.018 17.6673 109.943 17.4859 109.943 17.2726C109.943 17.0593 110.018 16.8726 110.167 16.7126C110.327 16.5526 110.519 16.4726 110.743 16.4726C110.957 16.4726 111.138 16.5526 111.287 16.7126C111.447 16.8726 111.527 17.0593 111.527 17.2726C111.527 17.4859 111.447 17.6673 111.287 17.8166C111.138 17.9766 110.957 18.0566 110.743 18.0566ZM117.426 18.7126L116.962 17.4966C117.997 17.1553 118.802 16.7499 119.378 16.2806C119.965 15.8113 120.376 15.3206 120.61 14.8086C120.856 14.2859 120.978 13.7793 120.978 13.2886C120.978 12.7659 120.861 12.2379 120.626 11.7046C120.402 11.1606 120.152 10.6486 119.874 10.1686L121.042 9.57661C121.341 10.1419 121.592 10.6859 121.794 11.2086C122.008 11.7313 122.173 12.1899 122.29 12.5846C122.44 13.0433 122.632 13.3579 122.866 13.5286C123.112 13.6886 123.442 13.7686 123.858 13.7686C124.082 13.7686 124.242 13.8326 124.338 13.9606C124.445 14.0779 124.498 14.2219 124.498 14.3926C124.498 14.5633 124.424 14.7233 124.274 14.8726C124.125 15.0113 123.933 15.0806 123.698 15.0806C123.293 15.0806 122.952 15.0166 122.674 14.8886C122.408 14.7606 122.189 14.5899 122.018 14.3766C121.912 14.9739 121.688 15.5179 121.346 16.0086C121.005 16.4993 120.605 16.9259 120.146 17.2886C119.688 17.6619 119.218 17.9659 118.738 18.2006C118.258 18.4353 117.821 18.6059 117.426 18.7126ZM119.97 7.73661C119.746 7.73661 119.554 7.66194 119.394 7.51261C119.245 7.35261 119.17 7.16594 119.17 6.95261C119.17 6.73928 119.245 6.55261 119.394 6.39261C119.554 6.23261 119.746 6.15261 119.97 6.15261C120.184 6.15261 120.365 6.23261 120.514 6.39261C120.674 6.55261 120.754 6.73928 120.754 6.95261C120.754 7.16594 120.674 7.35261 120.514 7.51261C120.365 7.66194 120.184 7.73661 119.97 7.73661ZM123.856 15.0806L124 13.7686C125.099 13.7686 126.166 13.6086 127.2 13.2886C128.235 12.9579 129.179 12.4939 130.032 11.8966C129.616 11.5339 129.104 11.2406 128.496 11.0166C127.899 10.7926 127.238 10.6806 126.512 10.6806C126.246 10.6806 126.011 10.6966 125.808 10.7286C125.606 10.7499 125.36 10.7926 125.072 10.8566L124.816 9.64061C125.414 9.45928 125.979 9.36861 126.512 9.36861C127.067 9.36861 127.568 9.43794 128.016 9.57661C128.464 9.70461 128.87 9.86461 129.232 10.0566C129.606 10.2486 129.952 10.4406 130.272 10.6326C130.603 10.8246 130.923 10.9899 131.232 11.1286C131.542 11.2566 131.862 11.3206 132.192 11.3206H132.528L132.64 12.4726C132.31 12.4726 131.99 12.5099 131.68 12.5846C131.883 13.0646 132.171 13.3846 132.544 13.5446C132.918 13.6939 133.472 13.7686 134.208 13.7686C134.432 13.7686 134.592 13.8326 134.688 13.9606C134.795 14.0779 134.848 14.2219 134.848 14.3926C134.848 14.5633 134.774 14.7233 134.624 14.8726C134.475 15.0113 134.283 15.0806 134.048 15.0806C133.472 15.0806 132.955 15.0326 132.496 14.9366C132.048 14.8299 131.664 14.6273 131.344 14.3286C131.024 14.0193 130.79 13.5606 130.64 12.9526C130.235 13.1446 129.819 13.3633 129.392 13.6086C128.976 13.8433 128.512 14.0726 128 14.2966C127.488 14.5206 126.896 14.7073 126.224 14.8566C125.552 15.0059 124.763 15.0806 123.856 15.0806ZM128.032 17.9766C127.808 17.9766 127.616 17.8966 127.456 17.7366C127.307 17.5873 127.232 17.4059 127.232 17.1926C127.232 16.9793 127.307 16.7926 127.456 16.6326C127.616 16.4726 127.808 16.3926 128.032 16.3926C128.246 16.3926 128.427 16.4726 128.576 16.6326C128.736 16.7926 128.816 16.9793 128.816 17.1926C128.816 17.4059 128.736 17.5873 128.576 17.7366C128.427 17.8966 128.246 17.9766 128.032 17.9766ZM134.194 15.0806L134.338 13.7686C135.436 13.7686 136.503 13.6086 137.538 13.2886C138.572 12.9579 139.516 12.4939 140.37 11.8966C139.954 11.5339 139.442 11.2406 138.834 11.0166C138.236 10.7926 137.575 10.6806 136.85 10.6806C136.583 10.6806 136.348 10.6966 136.146 10.7286C135.943 10.7499 135.698 10.7926 135.41 10.8566L135.154 9.64061C135.751 9.45928 136.316 9.36861 136.85 9.36861C137.404 9.36861 137.906 9.43794 138.354 9.57661C138.802 9.70461 139.207 9.86461 139.57 10.0566C139.943 10.2486 140.29 10.4406 140.61 10.6326C140.94 10.8246 141.26 10.9899 141.57 11.1286C141.879 11.2566 142.199 11.3206 142.53 11.3206H142.866L142.978 12.4726C142.647 12.4726 142.327 12.5099 142.018 12.5846C142.22 13.0646 142.508 13.3846 142.882 13.5446C143.255 13.6939 143.81 13.7686 144.546 13.7686C144.77 13.7686 144.93 13.8326 145.026 13.9606C145.132 14.0779 145.186 14.2219 145.186 14.3926C145.186 14.5633 145.111 14.7233 144.962 14.8726C144.812 15.0113 144.62 15.0806 144.386 15.0806C143.81 15.0806 143.292 15.0326 142.834 14.9366C142.386 14.8299 142.002 14.6273 141.682 14.3286C141.362 14.0193 141.127 13.5606 140.978 12.9526C140.572 13.1446 140.156 13.3633 139.73 13.6086C139.314 13.8433 138.85 14.0726 138.338 14.2966C137.826 14.5206 137.234 14.7073 136.562 14.8566C135.89 15.0059 135.1 15.0806 134.194 15.0806ZM144.531 15.0806L144.675 13.7686C145.283 13.7686 145.71 13.7099 145.955 13.5926C146.201 13.4753 146.339 13.2726 146.371 12.9846C146.414 12.6859 146.425 12.2646 146.403 11.7206L146.099 3.57661H147.395L147.715 11.5766C147.747 12.3339 147.694 12.9739 147.555 13.4966C147.427 14.0193 147.129 14.4139 146.659 14.6806C146.201 14.9473 145.491 15.0806 144.531 15.0806ZM150.309 15.0006L149.989 3.57661H151.285L151.605 15.0006H150.309Z" fill="white"/>
</g>
</svg>
