<svg width="296" height="38" viewBox="0 0 296 38" fill="none" xmlns="http://www.w3.org/2000/svg">
<g id="ar_book_with_Light">
<path id="Text" d="M5.82912 30.14C5.32512 30.14 4.81179 30.0933 4.28912 30C3.78512 29.9253 3.43045 29.8693 3.22512 29.832L3.58912 27.088C5.15712 27.2933 6.62245 27.2933 7.98512 27.088C9.36645 26.864 10.4958 26.304 11.3731 25.408C10.6451 24.232 9.56245 22.804 8.12512 21.124C6.68779 19.444 4.97045 17.6987 2.97312 15.888L4.76512 13.984C6.91179 16.0187 8.61045 17.7547 9.86112 19.192C11.1118 20.6293 12.0918 21.8613 12.8011 22.888C13.0625 22.0667 13.2025 21.124 13.2211 20.06L12.8291 9.868H15.6291L16.1891 24.064C16.2265 24.96 16.3198 25.6507 16.4691 26.136C16.6185 26.6027 16.9265 26.9293 17.3931 27.116C17.8598 27.284 18.5878 27.368 19.5771 27.368C20.0438 27.368 20.3891 27.4987 20.6131 27.76C20.8371 28.0213 20.9491 28.3293 20.9491 28.684C20.9491 29.076 20.7998 29.4213 20.5011 29.72C20.2025 30 19.8011 30.14 19.2971 30.14C17.9345 30.14 16.8518 30.0187 16.0491 29.776C15.2465 29.5147 14.6491 29.1227 14.2571 28.6C13.8838 28.0587 13.6411 27.368 13.5291 26.528C12.8945 27.592 12.1291 28.3853 11.2331 28.908C10.3558 29.412 9.43179 29.748 8.46112 29.916C7.50912 30.0653 6.63179 30.14 5.82912 30.14ZM19.5984 30.14L19.8504 27.368C21.8104 27.368 23.7051 27.1067 25.5344 26.584C27.3638 26.0427 29.0251 25.2587 30.5184 24.232C29.7718 23.6347 28.8664 23.1587 27.8024 22.804C26.7571 22.4307 25.6091 22.244 24.3584 22.244C23.4998 22.244 22.6131 22.3467 21.6984 22.552L21.2224 19.92C21.7451 19.7707 22.2678 19.6587 22.7904 19.584C23.3131 19.5093 23.8171 19.472 24.3024 19.472C25.5344 19.472 26.6264 19.6493 27.5784 20.004C28.5304 20.34 29.3891 20.732 30.1544 21.18C30.9198 21.6093 31.6478 22.0013 32.3384 22.356C33.0291 22.692 33.7291 22.86 34.4384 22.86H35.1664L35.4184 25.38C35.0638 25.38 34.7184 25.408 34.3824 25.464C34.0464 25.52 33.7291 25.5947 33.4304 25.688C33.8411 26.36 34.3824 26.808 35.0544 27.032C35.7451 27.256 36.6784 27.368 37.8544 27.368C38.3398 27.368 38.6851 27.4987 38.8904 27.76C39.1144 28.0213 39.2264 28.3293 39.2264 28.684C39.2264 29.076 39.0771 29.4213 38.7784 29.72C38.4798 30 38.0784 30.14 37.5744 30.14C36.5664 30.14 35.6518 30.056 34.8304 29.888C34.0278 29.7013 33.3278 29.356 32.7304 28.852C32.1331 28.3293 31.6664 27.5733 31.3304 26.584C30.6584 26.9387 29.9584 27.3213 29.2304 27.732C28.5024 28.1427 27.6811 28.5347 26.7664 28.908C25.8704 29.2627 24.8344 29.5613 23.6584 29.804C22.5011 30.028 21.1478 30.14 19.5984 30.14ZM37.8633 30.14L38.1153 27.368C40.0753 27.368 41.9699 27.1067 43.7993 26.584C45.6286 26.0427 47.2899 25.2587 48.7833 24.232C48.0366 23.6347 47.1313 23.1587 46.0673 22.804C45.0219 22.4307 43.8739 22.244 42.6233 22.244C41.7646 22.244 40.8779 22.3467 39.9633 22.552L39.4873 19.92C40.0099 19.7707 40.5326 19.6587 41.0553 19.584C41.5779 19.5093 42.0819 19.472 42.5673 19.472C43.7993 19.472 44.8913 19.6493 45.8433 20.004C46.7953 20.34 47.6539 20.732 48.4193 21.18C49.1846 21.6093 49.9126 22.0013 50.6033 22.356C51.2939 22.692 51.9939 22.86 52.7033 22.86H53.4313L53.6833 25.38C52.7126 25.3987 51.8259 25.576 51.0233 25.912C50.2393 26.2293 49.4459 26.6213 48.6433 27.088C47.8593 27.5547 46.9726 28.0213 45.9833 28.488C45.0126 28.9547 43.8739 29.3467 42.5673 29.664C41.2606 29.9813 39.6926 30.14 37.8633 30.14ZM45.8433 35.6C45.4139 35.6 45.0406 35.4507 44.7233 35.152C44.4246 34.8533 44.2753 34.4893 44.2753 34.06C44.2753 33.6493 44.4246 33.2853 44.7233 32.968C45.0406 32.6507 45.4139 32.492 45.8433 32.492C46.2539 32.492 46.6086 32.6507 46.9073 32.968C47.2246 33.2853 47.3833 33.6493 47.3833 34.06C47.3833 34.4893 47.2246 34.8533 46.9073 35.152C46.6086 35.4507 46.2539 35.6 45.8433 35.6ZM55.2037 36.44L54.1957 33.892C56.0063 33.3133 57.4157 32.6227 58.4237 31.82C59.4317 31.036 60.141 30.2147 60.5517 29.356C60.9624 28.4973 61.1677 27.6573 61.1677 26.836C61.1677 26.3133 61.1024 25.8 60.9717 25.296C60.8597 24.792 60.6637 24.232 60.3837 23.616C60.1037 22.9813 59.7303 22.244 59.2637 21.404L61.7837 20.144C62.4743 21.376 62.9783 22.5427 63.2957 23.644C63.6317 24.7453 63.7997 25.7253 63.7997 26.584C63.7997 27.9653 63.5384 29.1973 63.0157 30.28C62.5117 31.3627 61.8304 32.3053 60.9717 33.108C60.1317 33.9293 59.2077 34.6107 58.1997 35.152C57.1917 35.712 56.193 36.1413 55.2037 36.44ZM60.4397 17.008C59.9917 17.008 59.609 16.8587 59.2917 16.56C58.993 16.2613 58.8437 15.888 58.8437 15.44C58.8437 15.0107 58.993 14.6373 59.2917 14.32C59.609 14.0027 59.9917 13.844 60.4397 13.844C60.869 13.844 61.233 14.0027 61.5317 14.32C61.849 14.6373 62.0077 15.0107 62.0077 15.44C62.0077 15.888 61.849 16.2613 61.5317 16.56C61.233 16.8587 60.869 17.008 60.4397 17.008ZM84.6625 30.588C81.1345 30.588 78.5305 30.112 76.8505 29.16C75.1705 28.1893 74.3305 26.7147 74.3305 24.736C74.3305 23.9893 74.4145 23.2053 74.5825 22.384C74.7692 21.5627 74.9652 20.8067 75.1705 20.116L77.6625 20.704C77.5505 21.1707 77.4292 21.712 77.2985 22.328C77.1678 22.9253 77.1025 23.4573 77.1025 23.924C77.1025 24.82 77.3452 25.5573 77.8305 26.136C78.3345 26.7147 79.1838 27.144 80.3785 27.424C81.5918 27.6853 83.2625 27.816 85.3905 27.816C89.5345 27.816 92.5678 27.5827 94.4905 27.116C96.4318 26.6493 97.4025 25.8187 97.4025 24.624C97.4025 23.9333 97.2718 23.1213 97.0105 22.188C96.7678 21.236 96.4505 20.2467 96.0585 19.22L98.6625 18.38C99.0172 19.2947 99.3438 20.3027 99.6425 21.404C99.9598 22.4867 100.118 23.4667 100.118 24.344C100.118 25.464 99.8665 26.4253 99.3625 27.228C98.8585 28.012 98.0185 28.656 96.8425 29.16C95.6852 29.6453 94.1078 30 92.1105 30.224C90.1132 30.4667 87.6305 30.588 84.6625 30.588ZM87.2105 36.272C86.7812 36.272 86.4078 36.1227 86.0905 35.824C85.7918 35.5253 85.6425 35.1613 85.6425 34.732C85.6425 34.3213 85.7918 33.9573 86.0905 33.64C86.4078 33.3227 86.7812 33.164 87.2105 33.164C87.6212 33.164 87.9758 33.3227 88.2745 33.64C88.5918 33.9573 88.7505 34.3213 88.7505 34.732C88.7505 35.1613 88.5918 35.5253 88.2745 35.824C87.9758 36.1227 87.6212 36.272 87.2105 36.272ZM110.189 30.14C108.603 30.14 107.389 29.972 106.549 29.636C105.728 29.2813 105.149 28.7493 104.813 28.04C104.496 27.312 104.319 26.3787 104.281 25.24L103.721 9.868H106.493L107.081 24.064C107.119 24.96 107.203 25.6507 107.333 26.136C107.483 26.6027 107.791 26.9293 108.257 27.116C108.724 27.284 109.461 27.368 110.469 27.368C110.936 27.368 111.281 27.4987 111.505 27.76C111.729 28.0213 111.841 28.3293 111.841 28.684C111.841 29.076 111.683 29.4213 111.365 29.72C111.067 30 110.675 30.14 110.189 30.14ZM110.484 30.14L110.764 27.368C111.362 27.368 111.847 27.3213 112.22 27.228C112.612 27.1347 112.93 26.92 113.172 26.584C113.434 26.2293 113.667 25.6787 113.872 24.932C114.096 24.1667 114.348 23.1307 114.628 21.824L117.176 22.44C117.083 22.9067 116.962 23.4573 116.812 24.092C116.682 24.7267 116.616 25.3053 116.616 25.828C116.616 26.2947 116.784 26.668 117.12 26.948C117.475 27.228 118.119 27.368 119.052 27.368C119.575 27.368 120.014 27.3213 120.368 27.228C120.723 27.1347 121.022 26.9107 121.264 26.556C121.507 26.1827 121.722 25.6133 121.908 24.848C122.095 24.064 122.291 22.9907 122.496 21.628L125.1 22.076C125.026 22.4307 124.951 22.8507 124.876 23.336C124.802 23.8213 124.736 24.2973 124.68 24.764C124.624 25.2307 124.596 25.6133 124.596 25.912C124.596 26.1733 124.652 26.416 124.764 26.64C124.895 26.864 125.138 27.0413 125.492 27.172C125.866 27.3027 126.416 27.368 127.144 27.368C128.059 27.368 128.722 27.1813 129.132 26.808C129.543 26.416 129.748 25.828 129.748 25.044C129.748 24.3907 129.73 23.6813 129.692 22.916C129.655 22.132 129.562 21.152 129.412 19.976L131.904 19.808C132.016 21.3387 132.147 22.5987 132.296 23.588C132.464 24.5773 132.679 25.352 132.94 25.912C133.22 26.4533 133.594 26.836 134.06 27.06C134.546 27.2653 135.18 27.368 135.964 27.368C136.45 27.368 136.795 27.4987 137 27.76C137.224 28.0213 137.336 28.3293 137.336 28.684C137.336 29.076 137.187 29.4213 136.888 29.72C136.59 30 136.188 30.14 135.684 30.14C134.658 30.14 133.762 29.9253 132.996 29.496C132.231 29.048 131.662 28.404 131.288 27.564C130.896 28.5907 130.318 29.2813 129.552 29.636C128.787 29.972 127.9 30.14 126.892 30.14C125.94 30.14 125.156 30 124.54 29.72C123.924 29.44 123.486 28.992 123.224 28.376C122.758 29.1227 122.188 29.608 121.516 29.832C120.844 30.0373 119.92 30.14 118.744 30.14C118.315 30.14 117.876 30.0933 117.428 30C116.98 29.9067 116.56 29.7293 116.168 29.468C115.776 29.188 115.459 28.7773 115.216 28.236C114.694 29.0573 114.04 29.58 113.256 29.804C112.491 30.028 111.567 30.14 110.484 30.14ZM135.995 30.14L136.275 27.368C137.134 27.368 137.815 27.3027 138.319 27.172C138.823 27.0227 139.215 26.752 139.495 26.36C139.794 25.9493 140.037 25.3613 140.223 24.596C140.429 23.8307 140.643 22.8133 140.867 21.544L143.499 22.02C143.387 22.5053 143.266 23.0653 143.135 23.7C143.023 24.3347 142.967 24.8853 142.967 25.352C142.967 25.7627 143.033 26.1173 143.163 26.416C143.313 26.7147 143.667 26.948 144.227 27.116C144.787 27.284 145.721 27.368 147.027 27.368C147.513 27.368 147.858 27.4987 148.063 27.76C148.269 28.0213 148.371 28.3293 148.371 28.684C148.371 29.076 148.222 29.4213 147.923 29.72C147.625 30 147.233 30.14 146.747 30.14C145.086 30.14 143.873 29.9813 143.107 29.664C142.361 29.3467 141.857 28.8427 141.595 28.152C140.979 28.992 140.223 29.5333 139.327 29.776C138.431 30.0187 137.321 30.14 135.995 30.14ZM143.919 18.772C143.49 18.772 143.117 18.6227 142.799 18.324C142.501 18.0067 142.351 17.6427 142.351 17.232C142.351 16.8213 142.501 16.4573 142.799 16.14C143.117 15.8227 143.49 15.664 143.919 15.664C144.33 15.664 144.685 15.8227 144.983 16.14C145.301 16.4573 145.459 16.8213 145.459 17.232C145.459 17.6427 145.301 18.0067 144.983 18.324C144.685 18.6227 144.33 18.772 143.919 18.772ZM139.775 18.772C139.346 18.772 138.982 18.6227 138.683 18.324C138.385 18.0067 138.235 17.6427 138.235 17.232C138.235 16.8027 138.385 16.4387 138.683 16.14C138.982 15.8227 139.346 15.664 139.775 15.664C140.186 15.664 140.541 15.8227 140.839 16.14C141.157 16.4387 141.315 16.8027 141.315 17.232C141.315 17.6427 141.157 18.0067 140.839 18.324C140.541 18.6227 140.186 18.772 139.775 18.772ZM147.041 30.14L147.293 27.368C149.253 27.368 151.148 27.1067 152.977 26.584C154.807 26.0427 156.468 25.2587 157.961 24.232C157.215 23.6347 156.309 23.1587 155.245 22.804C154.2 22.4307 153.052 22.244 151.801 22.244C150.943 22.244 150.056 22.3467 149.141 22.552L148.665 19.92C149.188 19.7707 149.711 19.6587 150.233 19.584C150.756 19.5093 151.26 19.472 151.745 19.472C152.977 19.472 154.069 19.6493 155.021 20.004C155.973 20.34 156.832 20.732 157.597 21.18C158.363 21.6093 159.091 22.0013 159.781 22.356C160.472 22.692 161.172 22.86 161.881 22.86H162.609L162.861 25.38C161.891 25.3987 161.004 25.576 160.201 25.912C159.417 26.2293 158.624 26.6213 157.821 27.088C157.037 27.5547 156.151 28.0213 155.161 28.488C154.191 28.9547 153.052 29.3467 151.745 29.664C150.439 29.9813 148.871 30.14 147.041 30.14ZM151.773 16.644C151.325 16.644 150.943 16.4947 150.625 16.196C150.327 15.8973 150.177 15.524 150.177 15.076C150.177 14.6467 150.327 14.2733 150.625 13.956C150.943 13.6387 151.325 13.48 151.773 13.48C152.203 13.48 152.567 13.6387 152.865 13.956C153.183 14.2733 153.341 14.6467 153.341 15.076C153.341 15.524 153.183 15.8973 152.865 16.196C152.567 16.4947 152.203 16.644 151.773 16.644ZM165.138 28.768L166.342 26.36C166.808 26.64 167.368 26.8827 168.022 27.088C168.694 27.2747 169.431 27.368 170.234 27.368C171.503 27.368 172.418 27.1813 172.978 26.808C173.538 26.416 173.818 25.884 173.818 25.212C173.818 24.8573 173.734 24.4093 173.566 23.868C173.398 23.308 173.052 22.5613 172.53 21.628C172.007 20.6947 171.223 19.4907 170.178 18.016L172.502 16.476C173.939 18.492 174.984 20.2653 175.638 21.796C176.31 23.308 176.646 24.5493 176.646 25.52C176.646 26.3413 176.44 27.1067 176.03 27.816C175.619 28.5253 174.947 29.0947 174.014 29.524C173.099 29.9533 171.886 30.168 170.374 30.168C169.403 30.168 168.451 30.0467 167.518 29.804C166.584 29.5613 165.791 29.216 165.138 28.768ZM186.529 30.14C184.942 30.14 183.729 29.972 182.889 29.636C182.068 29.2813 181.489 28.7493 181.153 28.04C180.836 27.312 180.658 26.3787 180.621 25.24L180.061 9.868H182.833L183.421 24.064C183.458 24.96 183.542 25.6507 183.673 26.136C183.822 26.6027 184.13 26.9293 184.597 27.116C185.064 27.284 185.801 27.368 186.809 27.368C187.276 27.368 187.621 27.4987 187.845 27.76C188.069 28.0213 188.181 28.3293 188.181 28.684C188.181 29.076 188.022 29.4213 187.705 29.72C187.406 30 187.014 30.14 186.529 30.14ZM186.824 30.14L187.104 27.368C187.59 27.368 188 27.256 188.336 27.032C188.691 26.808 189.027 26.4347 189.344 25.912C189.68 25.3893 190.063 24.6893 190.492 23.812C191.034 22.6547 191.584 21.768 192.144 21.152C192.704 20.5173 193.264 20.088 193.824 19.864C194.384 19.6213 194.944 19.5 195.504 19.5C196.419 19.5 197.24 19.7893 197.968 20.368C198.715 20.9467 199.303 21.684 199.732 22.58C200.18 23.4573 200.404 24.3533 200.404 25.268C200.404 26.3507 200.199 27.2467 199.788 27.956C199.396 28.6467 198.874 29.16 198.22 29.496C197.567 29.832 196.876 30 196.148 30C195.551 30 194.823 29.9067 193.964 29.72C193.106 29.5147 192.098 29.048 190.94 28.32C190.343 29.104 189.727 29.608 189.092 29.832C188.458 30.0373 187.702 30.14 186.824 30.14ZM192.368 25.772C192.312 25.884 192.266 25.9867 192.228 26.08C192.975 26.5093 193.647 26.808 194.244 26.976C194.86 27.144 195.383 27.228 195.812 27.228C196.54 27.228 197.063 27.0787 197.38 26.78C197.698 26.4627 197.856 26.0427 197.856 25.52C197.856 25.0347 197.735 24.54 197.492 24.036C197.268 23.532 196.96 23.112 196.568 22.776C196.195 22.44 195.794 22.272 195.364 22.272C194.823 22.272 194.338 22.524 193.908 23.028C193.479 23.532 192.966 24.4467 192.368 25.772Z" fill="#3C4043"/>
<g id="GPay Logo (Light)">
<g id="GPay">
<g id="Pay">
<path id="Fill 1" fill-rule="evenodd" clip-rule="evenodd" d="M252.529 9.44664V17.6128H257.565C258.765 17.6128 259.757 17.2096 260.541 16.4032C261.347 15.5988 261.75 14.6394 261.75 13.5288C261.75 12.4406 261.347 11.4924 260.541 10.686C259.757 9.85915 258.765 9.44478 257.565 9.44478H252.529V9.44664ZM252.529 20.4872V29.9599H249.521V6.57217H257.499C259.527 6.57217 261.248 7.24786 262.666 8.59737C264.105 9.94688 264.824 11.5913 264.824 13.5288C264.824 15.511 264.105 17.1667 262.666 18.4938C261.27 19.8227 259.547 20.4854 257.499 20.4854H252.529V20.4872Z" fill="#5F6368"/>
<path id="Fill 3" fill-rule="evenodd" clip-rule="evenodd" d="M267.864 25.0602C267.864 25.8442 268.197 26.4975 268.862 27.0201C269.527 27.5427 270.306 27.804 271.2 27.804C272.465 27.804 273.591 27.3354 274.584 26.4004C275.576 25.4634 276.071 24.364 276.071 23.1022C275.133 22.3612 273.825 21.9916 272.147 21.9916C270.925 21.9916 269.907 22.2865 269.09 22.8745C268.273 23.4623 267.864 24.1886 267.864 25.0602ZM271.756 13.4317C273.98 13.4317 275.735 14.0252 277.022 15.2124C278.308 16.3995 278.95 18.0271 278.95 20.0952V29.9599H276.073V27.7387H275.942C274.699 29.5677 273.042 30.4825 270.972 30.4825C269.206 30.4825 267.728 29.9599 266.541 28.9146C265.353 27.8694 264.759 26.5628 264.759 24.9949C264.759 23.3393 265.385 22.0232 266.638 21.0434C267.892 20.0635 269.565 19.5726 271.658 19.5726C273.444 19.5726 274.916 19.8992 276.071 20.5525V19.8656C276.071 18.8204 275.656 17.9338 274.829 17.204C273.999 16.4741 273.031 16.1102 271.919 16.1102C270.239 16.1102 268.911 16.8176 267.93 18.2343L265.28 16.5675C266.741 14.4769 268.899 13.4317 271.756 13.4317Z" fill="#5F6368"/>
<path id="Fill 5" fill-rule="evenodd" clip-rule="evenodd" d="M295.463 13.9543L285.424 37.0154H282.318L286.046 28.9464L279.44 13.9543H282.71L287.484 25.4522H287.55L292.193 13.9543H295.463Z" fill="#5F6368"/>
</g>
<g id="G">
<path id="Fill 8" fill-rule="evenodd" clip-rule="evenodd" d="M240.373 18.4452C240.373 17.4989 240.293 16.5861 240.141 15.7126H227.454V20.8885H234.72C234.408 22.5757 233.465 24.0112 232.033 24.9725V28.3341H236.37C238.91 25.9935 240.373 22.5348 240.373 18.4452Z" fill="#4285F4"/>
<path id="Fill 10" fill-rule="evenodd" clip-rule="evenodd" d="M227.454 31.5782C231.084 31.5782 234.141 30.3873 236.37 28.3341L232.033 24.9725C230.826 25.7844 229.272 26.2585 227.454 26.2585C223.944 26.2585 220.966 23.8955 219.901 20.7112H215.433V24.1736C217.647 28.5637 222.197 31.5782 227.454 31.5782Z" fill="#34A853"/>
<path id="Fill 12" fill-rule="evenodd" clip-rule="evenodd" d="M219.901 20.7111C219.628 19.8992 219.479 19.0331 219.479 18.139C219.479 17.245 219.628 16.3789 219.901 15.567V12.1045H215.433C214.518 13.9188 214 15.9683 214 18.139C214 20.3098 214.518 22.3595 215.433 24.1736L219.901 20.7111Z" fill="#FABB05"/>
<path id="Fill 14" fill-rule="evenodd" clip-rule="evenodd" d="M227.454 10.0196C229.436 10.0196 231.213 10.7009 232.615 12.0355V12.0374L236.455 8.20162C234.123 6.03271 231.082 4.7 227.454 4.7C222.197 4.7 217.647 7.71446 215.433 12.1046L219.901 15.567C220.966 12.3827 223.944 10.0196 227.454 10.0196Z" fill="#E94235"/>
</g>
</g>
</g>
</g>
</svg>
