<svg width="156" height="21" viewBox="0 0 156 21" fill="none" xmlns="http://www.w3.org/2000/svg">
<g id="ar_buy_with_Pay_NBG">
<g id="GPay (Dark)">
<g id="GPay">
<g id="Pay">
<path id="Fill 1" fill-rule="evenodd" clip-rule="evenodd" d="M22.3563 3.42339V8.16175H25.2784C25.9745 8.16175 26.5501 7.92781 27.0055 7.45993C27.4728 6.99313 27.707 6.43644 27.707 5.79203C27.707 5.16061 27.4728 4.61041 27.0055 4.14254C26.5501 3.66274 25.9745 3.4223 25.2784 3.4223H22.3563V3.42339ZM22.3563 9.82966V15.3262H20.6107V1.75549H25.2404C26.4169 1.75549 27.4154 2.14756 28.2383 2.93061C29.0732 3.71365 29.4906 4.66782 29.4906 5.79203C29.4906 6.94224 29.0731 7.90291 28.2383 8.67296C27.4283 9.44409 26.4287 9.82858 25.2404 9.82858H22.3563V9.82966Z" fill="white"/>
<path id="Fill 3" fill-rule="evenodd" clip-rule="evenodd" d="M31.2546 12.4831C31.2546 12.9379 31.4476 13.317 31.8337 13.6203C32.2195 13.9235 32.6717 14.0752 33.19 14.0752C33.9239 14.0752 34.5777 13.8032 35.1535 13.2607C35.7293 12.717 36.0165 12.0791 36.0165 11.3469C35.4722 10.917 34.7133 10.7025 33.7396 10.7025C33.0306 10.7025 32.4397 10.8736 31.9659 11.2148C31.492 11.5559 31.2546 11.9773 31.2546 12.4831M33.513 5.73566C34.8033 5.73566 35.8214 6.08007 36.5685 6.76889C37.3145 7.45771 37.6873 8.40213 37.6873 9.60216V15.3261H36.0177V14.0373H35.9417C35.2207 15.0985 34.259 15.6294 33.0578 15.6294C32.0332 15.6294 31.1755 15.3261 30.4869 14.7196C29.7975 14.1131 29.4527 13.3549 29.4527 12.4452C29.4527 11.4845 29.8158 10.7208 30.5433 10.1523C31.2708 9.58375 32.2413 9.2989 33.4557 9.2989C34.4921 9.2989 35.3465 9.48844 36.0165 9.86751V9.46894C36.0165 8.86243 35.7758 8.34798 35.2956 7.92451C34.8141 7.50103 34.2525 7.28984 33.6074 7.28984C32.6326 7.28984 31.8618 7.70032 31.2926 8.52235L29.7551 7.55519C30.6029 6.34217 31.8552 5.73566 33.513 5.73566" fill="white"/>
<path id="Fill 5" fill-rule="evenodd" clip-rule="evenodd" d="M47.2687 6.03894L41.4432 19.4201H39.6411L41.8043 14.738L37.9714 6.03894H39.8688L42.639 12.7106H42.677L45.3713 6.03894H47.2687Z" fill="white"/>
</g>
<g id="G">
<path id="Fill 8" fill-rule="evenodd" clip-rule="evenodd" d="M15.3029 8.64473C15.3029 8.09563 15.2562 7.56601 15.1684 7.05914H7.80648V10.0625H12.0231C11.842 11.0414 11.2945 11.8744 10.4639 12.4322V14.3828H12.9804C14.4539 13.0246 15.3029 11.0177 15.3029 8.64473" fill="#4285F4"/>
<path id="Fill 10" fill-rule="evenodd" clip-rule="evenodd" d="M7.80646 16.2651C9.91313 16.2651 11.6869 15.5741 12.9804 14.3828L10.4639 12.4322C9.7635 12.9033 8.86142 13.1784 7.80646 13.1784C5.77028 13.1784 4.04201 11.8073 3.424 9.95959H0.831596V11.9687C2.11641 14.516 4.75652 16.2651 7.80646 16.2651" fill="#34A853"/>
<path id="Fill 12" fill-rule="evenodd" clip-rule="evenodd" d="M3.42401 9.9596C3.26571 9.48847 3.17897 8.98593 3.17897 8.46715C3.17897 7.94837 3.26571 7.44583 3.42401 6.9747V4.96564H0.831606C0.300332 6.01837 0 7.20756 0 8.46715C0 9.72674 0.300332 10.916 0.831606 11.9687L3.42401 9.9596Z" fill="#FABB05"/>
<path id="Fill 14" fill-rule="evenodd" clip-rule="evenodd" d="M7.80646 3.75583C8.95683 3.75583 9.98794 4.15115 10.8011 4.92553V4.92661L13.0292 2.70094C11.6761 1.44243 9.91204 0.669128 7.80646 0.669128C4.75652 0.669128 2.11641 2.41826 0.831596 4.9656L3.424 6.97467C4.04201 5.12698 5.77028 3.75583 7.80646 3.75583" fill="#E94235"/>
</g>
</g>
</g>
<path id="Right Text" d="M55.3746 21.2886C55.1826 20.5953 55.0226 19.9073 54.8946 19.2246C54.7666 18.5526 54.6706 17.9339 54.6066 17.3686C54.5426 16.8033 54.5106 16.3393 54.5106 15.9766C54.5106 15.3259 54.628 14.7873 54.8626 14.3606C55.0973 13.9233 55.412 13.5873 55.8066 13.3526C56.2013 13.1073 56.6386 12.9419 57.1186 12.8566C57.6093 12.7713 58.1106 12.7446 58.6226 12.7766C59.1453 12.7979 59.636 12.8619 60.0946 12.9686C60.1266 12.4886 60.0786 12.0353 59.9506 11.6086C59.8226 11.1819 59.62 10.8406 59.3426 10.5846C59.0653 10.3179 58.724 10.1846 58.3186 10.1846C57.54 10.1846 56.868 10.7179 56.3026 11.7846L55.3106 11.2406C55.716 10.3766 56.1906 9.76861 56.7346 9.41661C57.2893 9.06461 57.844 8.88861 58.3986 8.88861C58.9426 8.88861 59.4013 9.00594 59.7746 9.24061C60.148 9.46461 60.4413 9.76328 60.6546 10.1366C60.8786 10.4993 61.0386 10.8939 61.1346 11.3206C61.2413 11.7366 61.2946 12.1366 61.2946 12.5206C61.2946 12.9153 61.2253 13.3099 61.0866 13.7046C60.948 14.0886 60.82 14.3659 60.7026 14.5366C59.732 14.2486 58.8786 14.0993 58.1426 14.0886C57.4173 14.0673 56.8466 14.2166 56.4306 14.5366C56.0253 14.8459 55.8226 15.3526 55.8226 16.0566C55.8226 16.4619 55.8546 16.9313 55.9186 17.4646C55.9826 18.0086 56.0733 18.5793 56.1906 19.1766C56.308 19.7846 56.4466 20.3819 56.6066 20.9686L55.3746 21.2886ZM63.5626 15.0006L63.2426 3.57661H64.5386L64.8586 15.0006H63.5626ZM69.4931 13.7686C70.2825 13.7686 70.8425 13.6513 71.1731 13.4166C71.5038 13.1713 71.6691 12.8353 71.6691 12.4086C71.6691 12.1313 71.5731 11.7739 71.3811 11.3366C71.1891 10.8993 70.9331 10.4139 70.6131 9.88061C70.3038 9.33661 69.9571 8.78194 69.5731 8.21661L70.6771 7.49661C71.2958 8.44594 71.7971 9.31528 72.1811 10.1046C72.5758 10.8833 72.8691 11.5873 73.0611 12.2166C73.2105 12.6859 73.3758 13.0326 73.5571 13.2566C73.7491 13.4806 73.9465 13.6246 74.1491 13.6886C74.3518 13.7419 74.5385 13.7686 74.7091 13.7686C74.9331 13.7686 75.0985 13.8326 75.2051 13.9606C75.3118 14.0779 75.3651 14.2219 75.3651 14.3926C75.3651 14.5633 75.2905 14.7233 75.1411 14.8726C74.9918 15.0113 74.7998 15.0806 74.5651 15.0806C74.1491 15.0806 73.7491 14.9899 73.3651 14.8086C72.9811 14.6273 72.6718 14.3179 72.4371 13.8806C72.2238 14.2326 71.8825 14.5259 71.4131 14.7606C70.9545 14.9846 70.3145 15.0966 69.4931 15.0966C68.9065 15.0966 68.3625 15.0273 67.8611 14.8886C67.3598 14.7393 66.9438 14.5366 66.6131 14.2806L67.2531 13.1766C67.4665 13.3259 67.7651 13.4646 68.1491 13.5926C68.5331 13.7099 68.9811 13.7686 69.4931 13.7686ZM74.7187 15.0806L74.8627 13.7686C75.9614 13.7686 77.0281 13.6086 78.0627 13.2886C79.0974 12.9579 80.0414 12.4939 80.8947 11.8966C80.4787 11.5339 79.9667 11.2406 79.3587 11.0166C78.7614 10.7926 78.1001 10.6806 77.3747 10.6806C77.1081 10.6806 76.8734 10.6966 76.6707 10.7286C76.4681 10.7499 76.2227 10.7926 75.9347 10.8566L75.6787 9.64061C76.2761 9.45928 76.8414 9.36861 77.3747 9.36861C77.9294 9.36861 78.4307 9.43794 78.8787 9.57661C79.3267 9.70461 79.7321 9.86461 80.0947 10.0566C80.4681 10.2486 80.8147 10.4406 81.1347 10.6326C81.4654 10.8246 81.7854 10.9899 82.0947 11.1286C82.4041 11.2566 82.7241 11.3206 83.0547 11.3206H83.3907L83.5027 12.4726C83.1721 12.4726 82.8521 12.5099 82.5427 12.5846C82.7454 13.0646 83.0334 13.3846 83.4067 13.5446C83.7801 13.6939 84.3347 13.7686 85.0707 13.7686C85.2947 13.7686 85.4547 13.8326 85.5507 13.9606C85.6574 14.0779 85.7107 14.2219 85.7107 14.3926C85.7107 14.5633 85.6361 14.7233 85.4867 14.8726C85.3374 15.0113 85.1454 15.0806 84.9107 15.0806C84.3347 15.0806 83.8174 15.0326 83.3587 14.9366C82.9107 14.8299 82.5267 14.6273 82.2067 14.3286C81.8867 14.0193 81.6521 13.5606 81.5027 12.9526C81.0974 13.1446 80.6814 13.3633 80.2547 13.6086C79.8387 13.8433 79.3747 14.0726 78.8627 14.2966C78.3507 14.5206 77.7587 14.7073 77.0867 14.8566C76.4147 15.0059 75.6254 15.0806 74.7187 15.0806ZM77.2307 7.72061C77.0067 7.72061 76.8147 7.64594 76.6547 7.49661C76.5054 7.33661 76.4307 7.14994 76.4307 6.93661C76.4307 6.72328 76.5054 6.53661 76.6547 6.37661C76.8147 6.21661 77.0067 6.13661 77.2307 6.13661C77.4441 6.13661 77.6254 6.21661 77.7747 6.37661C77.9347 6.53661 78.0147 6.72328 78.0147 6.93661C78.0147 7.14994 77.9347 7.33661 77.7747 7.49661C77.6254 7.64594 77.4441 7.72061 77.2307 7.72061ZM85.0562 15.0806L85.2162 13.7686C85.7496 13.7686 86.1656 13.7313 86.4642 13.6566C86.7629 13.5713 86.9869 13.4166 87.1362 13.1926C87.2962 12.9579 87.4242 12.6219 87.5202 12.1846C87.6162 11.7473 87.7336 11.1766 87.8722 10.4726L89.1202 10.7126C89.0562 11.0006 88.9816 11.3313 88.8962 11.7046C88.8216 12.0779 88.7842 12.3926 88.7842 12.6486C88.7842 12.8086 88.7949 12.9579 88.8162 13.0966C88.8376 13.2353 88.9176 13.3526 89.0562 13.4486C89.1949 13.5446 89.4296 13.6246 89.7602 13.6886C90.0909 13.7419 90.5656 13.7686 91.1842 13.7686C91.4082 13.7686 91.5682 13.8326 91.6642 13.9606C91.7709 14.0779 91.8242 14.2219 91.8242 14.3926C91.8242 14.5633 91.7496 14.7233 91.6002 14.8726C91.4509 15.0113 91.2589 15.0806 91.0242 15.0806C90.3309 15.0806 89.7869 15.0433 89.3922 14.9686C89.0082 14.8833 88.7202 14.7659 88.5282 14.6166C88.3469 14.4566 88.2136 14.2593 88.1282 14.0246C87.8189 14.4619 87.4349 14.7499 86.9762 14.8886C86.5282 15.0166 85.8882 15.0806 85.0562 15.0806ZM89.3282 8.82461C89.1042 8.82461 88.9122 8.74994 88.7522 8.60061C88.6029 8.44061 88.5282 8.25394 88.5282 8.04061C88.5282 7.82728 88.6029 7.64061 88.7522 7.48061C88.9122 7.32061 89.1042 7.24061 89.3282 7.24061C89.5416 7.24061 89.7229 7.32061 89.8722 7.48061C90.0322 7.64061 90.1122 7.82728 90.1122 8.04061C90.1122 8.25394 90.0322 8.44061 89.8722 8.60061C89.7229 8.74994 89.5416 8.82461 89.3282 8.82461ZM87.1362 8.82461C86.9122 8.82461 86.7202 8.74994 86.5602 8.60061C86.4109 8.44061 86.3362 8.25394 86.3362 8.04061C86.3362 7.82728 86.4109 7.64061 86.5602 7.48061C86.7202 7.32061 86.9122 7.24061 87.1362 7.24061C87.3496 7.24061 87.5309 7.32061 87.6802 7.48061C87.8402 7.64061 87.9202 7.82728 87.9202 8.04061C87.9202 8.25394 87.8402 8.44061 87.6802 8.60061C87.5309 8.74994 87.3496 8.82461 87.1362 8.82461ZM91.175 15.0806L91.335 13.7686C91.6763 13.7686 91.9537 13.7473 92.167 13.7046C92.3803 13.6513 92.5563 13.5286 92.695 13.3366C92.8443 13.1339 92.983 12.8193 93.111 12.3926C93.239 11.9659 93.3883 11.3686 93.559 10.6006L94.759 10.9366C94.695 11.2139 94.6203 11.5393 94.535 11.9126C94.4497 12.2859 94.407 12.6219 94.407 12.9206C94.407 13.1873 94.5083 13.3953 94.711 13.5446C94.9137 13.6939 95.2817 13.7686 95.815 13.7686C96.135 13.7686 96.3963 13.7419 96.599 13.6886C96.8017 13.6353 96.967 13.5073 97.095 13.3046C97.2337 13.1019 97.3563 12.7819 97.463 12.3446C97.5697 11.8966 97.6817 11.2779 97.799 10.4886L99.015 10.7126C98.983 10.9046 98.9403 11.1393 98.887 11.4166C98.8443 11.6939 98.807 11.9713 98.775 12.2486C98.743 12.5153 98.727 12.7393 98.727 12.9206C98.727 13.0699 98.759 13.2139 98.823 13.3526C98.8977 13.4806 99.0363 13.5819 99.239 13.6566C99.4523 13.7313 99.767 13.7686 100.183 13.7686C100.642 13.7686 101.01 13.6779 101.287 13.4966C101.564 13.3153 101.703 12.9473 101.703 12.3926C101.703 11.9979 101.607 11.4913 101.415 10.8726C101.234 10.2539 101.026 9.64061 100.791 9.03261L102.087 8.55261C102.215 8.90461 102.343 9.29928 102.471 9.73661C102.599 10.1633 102.706 10.5899 102.791 11.0166C102.876 11.4433 102.919 11.8166 102.919 12.1366C102.919 13.1286 102.674 13.8699 102.183 14.3606C101.692 14.8406 101.02 15.0806 100.167 15.0806C99.5803 15.0806 99.1163 15.0059 98.775 14.8566C98.4443 14.6966 98.2043 14.4513 98.055 14.1206C97.799 14.5153 97.4897 14.7766 97.127 14.9046C96.775 15.0219 96.2737 15.0806 95.623 15.0806C95.399 15.0806 95.159 15.0539 94.903 15.0006C94.6577 14.9473 94.4283 14.8459 94.215 14.6966C94.0017 14.5366 93.8363 14.3019 93.719 13.9926C93.4417 14.4619 93.095 14.7606 92.679 14.8886C92.2737 15.0166 91.7723 15.0806 91.175 15.0806ZM108.528 15.0806C107.664 15.0806 107.008 14.9846 106.56 14.7926C106.112 14.6006 105.803 14.3019 105.632 13.8966C105.461 13.4913 105.365 12.9686 105.344 12.3286L105.024 3.57661H106.336L106.656 11.8166C106.677 12.3393 106.725 12.7446 106.8 13.0326C106.885 13.3099 107.067 13.5019 107.344 13.6086C107.632 13.7153 108.08 13.7686 108.688 13.7686C108.912 13.7686 109.072 13.8326 109.168 13.9606C109.275 14.0779 109.328 14.2219 109.328 14.3926C109.328 14.5633 109.253 14.7233 109.104 14.8726C108.955 15.0113 108.763 15.0806 108.528 15.0806ZM108.678 15.0806L108.838 13.7686C109.35 13.7686 109.761 13.7366 110.07 13.6726C110.39 13.6086 110.619 13.4806 110.758 13.2886C110.897 13.0859 110.966 12.7873 110.966 12.3926C110.966 11.9979 110.87 11.4913 110.678 10.8726C110.497 10.2539 110.289 9.64061 110.054 9.03261L111.35 8.55261C111.489 8.90461 111.617 9.29928 111.734 9.73661C111.862 10.1633 111.969 10.5899 112.054 11.0166C112.139 11.4433 112.182 11.8166 112.182 12.1366C112.182 13.2139 111.894 13.9766 111.318 14.4246C110.753 14.8619 109.873 15.0806 108.678 15.0806ZM110.39 18.0566C110.166 18.0566 109.974 17.9766 109.814 17.8166C109.665 17.6673 109.59 17.4859 109.59 17.2726C109.59 17.0593 109.665 16.8726 109.814 16.7126C109.974 16.5526 110.166 16.4726 110.39 16.4726C110.603 16.4726 110.785 16.5526 110.934 16.7126C111.094 16.8726 111.174 17.0593 111.174 17.2726C111.174 17.4859 111.094 17.6673 110.934 17.8166C110.785 17.9766 110.603 18.0566 110.39 18.0566ZM117.649 15.9286L117.281 14.7126C117.559 14.6486 117.873 14.5686 118.225 14.4726C118.588 14.3766 118.972 14.2699 119.377 14.1526C118.993 13.9819 118.652 13.7046 118.353 13.3206C118.065 12.9259 117.921 12.4566 117.921 11.9126C117.921 11.3686 118.044 10.9046 118.289 10.5206C118.545 10.1366 118.876 9.84328 119.281 9.64061C119.697 9.42728 120.151 9.32061 120.641 9.32061C120.823 9.32061 121.02 9.34194 121.233 9.38461C121.447 9.41661 121.649 9.45928 121.841 9.51261L121.633 10.7126C121.473 10.6699 121.303 10.6379 121.121 10.6166C120.94 10.5846 120.78 10.5686 120.641 10.5686C120.151 10.5686 119.783 10.7019 119.537 10.9686C119.303 11.2353 119.185 11.5499 119.185 11.9126C119.185 12.2113 119.265 12.4886 119.425 12.7446C119.585 12.9899 119.788 13.1979 120.033 13.3686C120.279 13.5393 120.529 13.6459 120.785 13.6886C121.084 13.5926 121.383 13.4913 121.681 13.3846C121.98 13.2673 122.268 13.1499 122.545 13.0326L123.025 14.2006C122.716 14.3286 122.327 14.4779 121.857 14.6486C121.399 14.8086 120.908 14.9686 120.385 15.1286C119.873 15.2993 119.377 15.4539 118.897 15.5926C118.417 15.7419 118.001 15.8539 117.649 15.9286ZM125.209 15.0006L124.889 3.57661H126.185L126.505 15.0006H125.209ZM127.358 18.7126L126.894 17.4966C127.928 17.1553 128.734 16.7499 129.31 16.2806C129.896 15.8113 130.307 15.3206 130.542 14.8086C130.787 14.2859 130.91 13.7793 130.91 13.2886C130.91 12.7659 130.792 12.2379 130.558 11.7046C130.334 11.1606 130.083 10.6486 129.806 10.1686L130.974 9.57661C131.272 10.1419 131.523 10.6859 131.726 11.2086C131.939 11.7313 132.104 12.1899 132.222 12.5846C132.371 13.0433 132.563 13.3579 132.798 13.5286C133.043 13.6886 133.374 13.7686 133.79 13.7686C134.014 13.7686 134.174 13.8326 134.27 13.9606C134.376 14.0779 134.43 14.2219 134.43 14.3926C134.43 14.5633 134.355 14.7233 134.206 14.8726C134.056 15.0113 133.864 15.0806 133.63 15.0806C133.224 15.0806 132.883 15.0166 132.606 14.8886C132.339 14.7606 132.12 14.5899 131.95 14.3766C131.843 14.9739 131.619 15.5179 131.278 16.0086C130.936 16.4993 130.536 16.9259 130.078 17.2886C129.619 17.6619 129.15 17.9659 128.67 18.2006C128.19 18.4353 127.752 18.6059 127.358 18.7126ZM133.787 15.0806L133.947 13.7686C134.289 13.7686 134.566 13.7473 134.779 13.7046C134.993 13.6513 135.169 13.5286 135.307 13.3366C135.457 13.1339 135.595 12.8193 135.723 12.3926C135.851 11.9659 136.001 11.3686 136.171 10.6006L137.371 10.9366C137.307 11.2139 137.233 11.5393 137.147 11.9126C137.062 12.2859 137.019 12.6219 137.019 12.9206C137.019 13.1873 137.121 13.3953 137.323 13.5446C137.526 13.6939 137.894 13.7686 138.427 13.7686C138.747 13.7686 139.009 13.7419 139.211 13.6886C139.414 13.6353 139.579 13.5073 139.707 13.3046C139.846 13.1019 139.969 12.7819 140.075 12.3446C140.182 11.8966 140.294 11.2779 140.411 10.4886L141.627 10.7126C141.595 10.9046 141.553 11.1393 141.499 11.4166C141.457 11.6939 141.419 11.9713 141.387 12.2486C141.355 12.5153 141.339 12.7393 141.339 12.9206C141.339 13.0699 141.371 13.2139 141.435 13.3526C141.51 13.4806 141.649 13.5819 141.851 13.6566C142.065 13.7313 142.379 13.7686 142.795 13.7686C143.329 13.7686 143.713 13.6619 143.947 13.4486C144.193 13.2246 144.315 12.8779 144.315 12.4086C144.315 12.0459 144.305 11.6459 144.283 11.2086C144.262 10.7713 144.209 10.2219 144.123 9.56061L145.291 9.48061C145.355 10.3446 145.425 11.0539 145.499 11.6086C145.585 12.1633 145.702 12.6006 145.851 12.9206C146.011 13.2299 146.225 13.4486 146.491 13.5766C146.758 13.7046 147.11 13.7686 147.547 13.7686C147.771 13.7686 147.931 13.8326 148.027 13.9606C148.134 14.0779 148.187 14.2219 148.187 14.3926C148.187 14.5633 148.113 14.7233 147.963 14.8726C147.814 15.0113 147.622 15.0806 147.387 15.0806C146.79 15.0806 146.294 14.9473 145.899 14.6806C145.515 14.4139 145.233 14.0779 145.051 13.6726C144.838 14.2379 144.513 14.6166 144.075 14.8086C143.649 14.9899 143.174 15.0806 142.651 15.0806C142.107 15.0806 141.675 15.0059 141.355 14.8566C141.046 14.6966 140.817 14.4566 140.667 14.1366C140.411 14.5206 140.102 14.7766 139.739 14.9046C139.387 15.0219 138.886 15.0806 138.235 15.0806C138.011 15.0806 137.771 15.0539 137.515 15.0006C137.27 14.9473 137.041 14.8459 136.827 14.6966C136.614 14.5366 136.449 14.3019 136.331 13.9926C136.054 14.4619 135.707 14.7606 135.291 14.8886C134.886 15.0166 134.385 15.0806 133.787 15.0806ZM140.683 6.28061C140.459 6.28061 140.267 6.20594 140.107 6.05661C139.958 5.89661 139.883 5.70994 139.883 5.49661C139.883 5.28328 139.958 5.09661 140.107 4.93661C140.267 4.77661 140.459 4.69661 140.683 4.69661C140.897 4.69661 141.078 4.77661 141.227 4.93661C141.387 5.09661 141.467 5.28328 141.467 5.49661C141.467 5.70994 141.387 5.89661 141.227 6.05661C141.078 6.20594 140.897 6.28061 140.683 6.28061ZM139.595 8.04061C139.371 8.04061 139.179 7.96594 139.019 7.81661C138.87 7.65661 138.795 7.46994 138.795 7.25661C138.795 7.04328 138.87 6.85661 139.019 6.69661C139.179 6.53661 139.371 6.45661 139.595 6.45661C139.809 6.45661 139.99 6.53661 140.139 6.69661C140.299 6.85661 140.379 7.04328 140.379 7.25661C140.379 7.46994 140.299 7.65661 140.139 7.81661C139.99 7.96594 139.809 8.04061 139.595 8.04061ZM141.771 8.04061C141.547 8.04061 141.355 7.96594 141.195 7.81661C141.046 7.65661 140.971 7.46994 140.971 7.25661C140.971 7.04328 141.046 6.85661 141.195 6.69661C141.355 6.53661 141.547 6.45661 141.771 6.45661C141.985 6.45661 142.166 6.53661 142.315 6.69661C142.475 6.85661 142.555 7.04328 142.555 7.25661C142.555 7.46994 142.475 7.65661 142.315 7.81661C142.166 7.96594 141.985 8.04061 141.771 8.04061ZM147.531 15.0806L147.675 13.7686C148.283 13.7686 148.71 13.7099 148.955 13.5926C149.201 13.4753 149.339 13.2726 149.371 12.9846C149.414 12.6859 149.425 12.2646 149.403 11.7206L149.099 3.57661H150.395L150.715 11.5766C150.747 12.3339 150.694 12.9739 150.555 13.4966C150.427 14.0193 150.129 14.4139 149.659 14.6806C149.201 14.9473 148.491 15.0806 147.531 15.0806ZM153.309 15.0006L152.989 3.57661H154.285L154.605 15.0006H153.309Z" fill="white"/>
</g>
</svg>
