<svg width="185" height="21" viewBox="0 0 185 21" fill="none" xmlns="http://www.w3.org/2000/svg">
<g id="ar_checkout_with_Pay_NBG">
<g id="GPay (Dark)">
<g id="GPay">
<g id="Pay">
<path id="Fill 1" fill-rule="evenodd" clip-rule="evenodd" d="M22.3563 3.42339V8.16175H25.2784C25.9745 8.16175 26.5501 7.92781 27.0055 7.45993C27.4728 6.99313 27.707 6.43644 27.707 5.79203C27.707 5.16061 27.4728 4.61041 27.0055 4.14254C26.5501 3.66274 25.9745 3.4223 25.2784 3.4223H22.3563V3.42339ZM22.3563 9.82966V15.3262H20.6107V1.75549H25.2404C26.4169 1.75549 27.4154 2.14756 28.2383 2.93061C29.0732 3.71365 29.4906 4.66782 29.4906 5.79203C29.4906 6.94224 29.0731 7.90291 28.2383 8.67296C27.4283 9.44409 26.4287 9.82858 25.2404 9.82858H22.3563V9.82966Z" fill="white"/>
<path id="Fill 3" fill-rule="evenodd" clip-rule="evenodd" d="M31.2546 12.4831C31.2546 12.9379 31.4476 13.317 31.8337 13.6203C32.2195 13.9235 32.6717 14.0752 33.19 14.0752C33.9239 14.0752 34.5777 13.8032 35.1535 13.2607C35.7293 12.717 36.0165 12.0791 36.0165 11.3469C35.4722 10.917 34.7133 10.7025 33.7396 10.7025C33.0306 10.7025 32.4397 10.8736 31.9659 11.2148C31.492 11.5559 31.2546 11.9773 31.2546 12.4831M33.513 5.73566C34.8033 5.73566 35.8214 6.08007 36.5685 6.76889C37.3145 7.45771 37.6873 8.40213 37.6873 9.60216V15.3261H36.0177V14.0373H35.9417C35.2207 15.0985 34.259 15.6294 33.0578 15.6294C32.0332 15.6294 31.1755 15.3261 30.4869 14.7196C29.7975 14.1131 29.4527 13.3549 29.4527 12.4452C29.4527 11.4845 29.8158 10.7208 30.5433 10.1523C31.2708 9.58375 32.2413 9.2989 33.4557 9.2989C34.4921 9.2989 35.3465 9.48844 36.0165 9.86751V9.46894C36.0165 8.86243 35.7758 8.34798 35.2956 7.92451C34.8141 7.50103 34.2525 7.28984 33.6074 7.28984C32.6326 7.28984 31.8618 7.70032 31.2926 8.52235L29.7551 7.55519C30.6029 6.34217 31.8552 5.73566 33.513 5.73566" fill="white"/>
<path id="Fill 5" fill-rule="evenodd" clip-rule="evenodd" d="M47.2687 6.03894L41.4432 19.4201H39.6411L41.8043 14.738L37.9714 6.03894H39.8688L42.639 12.7106H42.677L45.3713 6.03894H47.2687Z" fill="white"/>
</g>
<g id="G">
<path id="Fill 8" fill-rule="evenodd" clip-rule="evenodd" d="M15.3029 8.64473C15.3029 8.09563 15.2562 7.56601 15.1684 7.05914H7.80648V10.0625H12.0231C11.842 11.0414 11.2945 11.8744 10.4639 12.4322V14.3828H12.9804C14.4539 13.0246 15.3029 11.0177 15.3029 8.64473" fill="#4285F4"/>
<path id="Fill 10" fill-rule="evenodd" clip-rule="evenodd" d="M7.80646 16.2651C9.91313 16.2651 11.6869 15.5741 12.9804 14.3828L10.4639 12.4322C9.7635 12.9033 8.86142 13.1784 7.80646 13.1784C5.77028 13.1784 4.04201 11.8073 3.424 9.95959H0.831596V11.9687C2.11641 14.516 4.75652 16.2651 7.80646 16.2651" fill="#34A853"/>
<path id="Fill 12" fill-rule="evenodd" clip-rule="evenodd" d="M3.42401 9.9596C3.26571 9.48847 3.17897 8.98593 3.17897 8.46715C3.17897 7.94837 3.26571 7.44583 3.42401 6.9747V4.96564H0.831606C0.300332 6.01837 0 7.20756 0 8.46715C0 9.72674 0.300332 10.916 0.831606 11.9687L3.42401 9.9596Z" fill="#FABB05"/>
<path id="Fill 14" fill-rule="evenodd" clip-rule="evenodd" d="M7.80646 3.75583C8.95683 3.75583 9.98794 4.15115 10.8011 4.92553V4.92661L13.0292 2.70094C11.6761 1.44243 9.91204 0.669128 7.80646 0.669128C4.75652 0.669128 2.11641 2.41826 0.831596 4.9656L3.424 6.97467C4.04201 5.12698 5.77028 3.75583 7.80646 3.75583" fill="#E94235"/>
</g>
</g>
</g>
<path id="Right Text" d="M55.3902 21.2886C55.1982 20.5953 55.0382 19.9073 54.9102 19.2246C54.7822 18.5526 54.6862 17.9339 54.6222 17.3686C54.5582 16.8033 54.5262 16.3393 54.5262 15.9766C54.5262 15.3259 54.6436 14.7873 54.8782 14.3606C55.1129 13.9233 55.4276 13.5873 55.8222 13.3526C56.2169 13.1073 56.6542 12.9419 57.1342 12.8566C57.6249 12.7713 58.1262 12.7446 58.6382 12.7766C59.1609 12.7979 59.6516 12.8619 60.1102 12.9686C60.1422 12.4886 60.0942 12.0353 59.9662 11.6086C59.8382 11.1819 59.6356 10.8406 59.3582 10.5846C59.0809 10.3179 58.7396 10.1846 58.3342 10.1846C57.5556 10.1846 56.8836 10.7179 56.3182 11.7846L55.3262 11.2406C55.7316 10.3766 56.2062 9.76861 56.7502 9.41661C57.3049 9.06461 57.8596 8.88861 58.4142 8.88861C58.9582 8.88861 59.4169 9.00594 59.7902 9.24061C60.1636 9.46461 60.4569 9.76328 60.6702 10.1366C60.8942 10.4993 61.0542 10.8939 61.1502 11.3206C61.2569 11.7366 61.3102 12.1366 61.3102 12.5206C61.3102 12.9153 61.2409 13.3099 61.1022 13.7046C60.9636 14.0886 60.8356 14.3659 60.7182 14.5366C59.7476 14.2486 58.8942 14.0993 58.1582 14.0886C57.4329 14.0673 56.8622 14.2166 56.4462 14.5366C56.0409 14.8459 55.8382 15.3526 55.8382 16.0566C55.8382 16.4619 55.8702 16.9313 55.9342 17.4646C55.9982 18.0086 56.0889 18.5793 56.2062 19.1766C56.3236 19.7846 56.4622 20.3819 56.6222 20.9686L55.3902 21.2886ZM63.5782 15.0006L63.2582 3.57661H64.5542L64.8742 15.0006H63.5782ZM69.5087 13.7686C70.2981 13.7686 70.8581 13.6513 71.1887 13.4166C71.5194 13.1713 71.6847 12.8353 71.6847 12.4086C71.6847 12.1313 71.5887 11.7739 71.3967 11.3366C71.2047 10.8993 70.9487 10.4139 70.6287 9.88061C70.3194 9.33661 69.9727 8.78194 69.5887 8.21661L70.6927 7.49661C71.3114 8.44594 71.8127 9.31528 72.1967 10.1046C72.5914 10.8833 72.8847 11.5873 73.0767 12.2166C73.2261 12.6859 73.3914 13.0326 73.5727 13.2566C73.7647 13.4806 73.9621 13.6246 74.1647 13.6886C74.3674 13.7419 74.5541 13.7686 74.7247 13.7686C74.9487 13.7686 75.1141 13.8326 75.2207 13.9606C75.3274 14.0779 75.3807 14.2219 75.3807 14.3926C75.3807 14.5633 75.3061 14.7233 75.1567 14.8726C75.0074 15.0113 74.8154 15.0806 74.5807 15.0806C74.1647 15.0806 73.7647 14.9899 73.3807 14.8086C72.9967 14.6273 72.6874 14.3179 72.4527 13.8806C72.2394 14.2326 71.8981 14.5259 71.4287 14.7606C70.9701 14.9846 70.3301 15.0966 69.5087 15.0966C68.9221 15.0966 68.3781 15.0273 67.8767 14.8886C67.3754 14.7393 66.9594 14.5366 66.6287 14.2806L67.2687 13.1766C67.4821 13.3259 67.7807 13.4646 68.1647 13.5926C68.5487 13.7099 68.9967 13.7686 69.5087 13.7686ZM74.7344 15.0806L74.8784 13.7686C75.977 13.7686 77.0437 13.6086 78.0784 13.2886C79.113 12.9579 80.057 12.4939 80.9104 11.8966C80.4944 11.5339 79.9824 11.2406 79.3744 11.0166C78.777 10.7926 78.1157 10.6806 77.3904 10.6806C77.1237 10.6806 76.889 10.6966 76.6864 10.7286C76.4837 10.7499 76.2384 10.7926 75.9504 10.8566L75.6944 9.64061C76.2917 9.45928 76.857 9.36861 77.3904 9.36861C77.945 9.36861 78.4464 9.43794 78.8944 9.57661C79.3424 9.70461 79.7477 9.86461 80.1104 10.0566C80.4837 10.2486 80.8304 10.4406 81.1504 10.6326C81.481 10.8246 81.801 10.9899 82.1104 11.1286C82.4197 11.2566 82.7397 11.3206 83.0704 11.3206H83.4064L83.5184 12.4726C83.1877 12.4726 82.8677 12.5099 82.5584 12.5846C82.761 13.0646 83.049 13.3846 83.4224 13.5446C83.7957 13.6939 84.3504 13.7686 85.0864 13.7686C85.3104 13.7686 85.4704 13.8326 85.5664 13.9606C85.673 14.0779 85.7264 14.2219 85.7264 14.3926C85.7264 14.5633 85.6517 14.7233 85.5024 14.8726C85.353 15.0113 85.161 15.0806 84.9264 15.0806C84.3504 15.0806 83.833 15.0326 83.3744 14.9366C82.9264 14.8299 82.5424 14.6273 82.2224 14.3286C81.9024 14.0193 81.6677 13.5606 81.5184 12.9526C81.113 13.1446 80.697 13.3633 80.2704 13.6086C79.8544 13.8433 79.3904 14.0726 78.8784 14.2966C78.3664 14.5206 77.7744 14.7073 77.1024 14.8566C76.4304 15.0059 75.641 15.0806 74.7344 15.0806ZM77.2464 7.72061C77.0224 7.72061 76.8304 7.64594 76.6704 7.49661C76.521 7.33661 76.4464 7.14994 76.4464 6.93661C76.4464 6.72328 76.521 6.53661 76.6704 6.37661C76.8304 6.21661 77.0224 6.13661 77.2464 6.13661C77.4597 6.13661 77.641 6.21661 77.7904 6.37661C77.9504 6.53661 78.0304 6.72328 78.0304 6.93661C78.0304 7.14994 77.9504 7.33661 77.7904 7.49661C77.641 7.64594 77.4597 7.72061 77.2464 7.72061ZM85.0719 15.0806L85.2319 13.7686C85.7652 13.7686 86.1812 13.7313 86.4799 13.6566C86.7785 13.5713 87.0025 13.4166 87.1519 13.1926C87.3119 12.9579 87.4399 12.6219 87.5359 12.1846C87.6319 11.7473 87.7492 11.1766 87.8879 10.4726L89.1359 10.7126C89.0719 11.0006 88.9972 11.3313 88.9119 11.7046C88.8372 12.0779 88.7999 12.3926 88.7999 12.6486C88.7999 12.8086 88.8105 12.9579 88.8319 13.0966C88.8532 13.2353 88.9332 13.3526 89.0719 13.4486C89.2105 13.5446 89.4452 13.6246 89.7759 13.6886C90.1065 13.7419 90.5812 13.7686 91.1999 13.7686C91.4239 13.7686 91.5839 13.8326 91.6799 13.9606C91.7865 14.0779 91.8399 14.2219 91.8399 14.3926C91.8399 14.5633 91.7652 14.7233 91.6159 14.8726C91.4665 15.0113 91.2745 15.0806 91.0399 15.0806C90.3465 15.0806 89.8025 15.0433 89.4079 14.9686C89.0239 14.8833 88.7359 14.7659 88.5439 14.6166C88.3625 14.4566 88.2292 14.2593 88.1439 14.0246C87.8345 14.4619 87.4505 14.7499 86.9919 14.8886C86.5439 15.0166 85.9039 15.0806 85.0719 15.0806ZM89.3439 8.82461C89.1199 8.82461 88.9279 8.74994 88.7679 8.60061C88.6185 8.44061 88.5439 8.25394 88.5439 8.04061C88.5439 7.82728 88.6185 7.64061 88.7679 7.48061C88.9279 7.32061 89.1199 7.24061 89.3439 7.24061C89.5572 7.24061 89.7385 7.32061 89.8879 7.48061C90.0479 7.64061 90.1279 7.82728 90.1279 8.04061C90.1279 8.25394 90.0479 8.44061 89.8879 8.60061C89.7385 8.74994 89.5572 8.82461 89.3439 8.82461ZM87.1519 8.82461C86.9279 8.82461 86.7359 8.74994 86.5759 8.60061C86.4265 8.44061 86.3519 8.25394 86.3519 8.04061C86.3519 7.82728 86.4265 7.64061 86.5759 7.48061C86.7359 7.32061 86.9279 7.24061 87.1519 7.24061C87.3652 7.24061 87.5465 7.32061 87.6959 7.48061C87.8559 7.64061 87.9359 7.82728 87.9359 8.04061C87.9359 8.25394 87.8559 8.44061 87.6959 8.60061C87.5465 8.74994 87.3652 8.82461 87.1519 8.82461ZM91.1906 15.0806L91.3506 13.7686C91.6919 13.7686 91.9693 13.7473 92.1826 13.7046C92.3959 13.6513 92.5719 13.5286 92.7106 13.3366C92.8599 13.1339 92.9986 12.8193 93.1266 12.3926C93.2546 11.9659 93.4039 11.3686 93.5746 10.6006L94.7746 10.9366C94.7106 11.2139 94.6359 11.5393 94.5506 11.9126C94.4653 12.2859 94.4226 12.6219 94.4226 12.9206C94.4226 13.1873 94.5239 13.3953 94.7266 13.5446C94.9293 13.6939 95.2973 13.7686 95.8306 13.7686C96.1506 13.7686 96.4119 13.7419 96.6146 13.6886C96.8173 13.6353 96.9826 13.5073 97.1106 13.3046C97.2493 13.1019 97.3719 12.7819 97.4786 12.3446C97.5853 11.8966 97.6973 11.2779 97.8146 10.4886L99.0306 10.7126C98.9986 10.9046 98.9559 11.1393 98.9026 11.4166C98.8599 11.6939 98.8226 11.9713 98.7906 12.2486C98.7586 12.5153 98.7426 12.7393 98.7426 12.9206C98.7426 13.0699 98.7746 13.2139 98.8386 13.3526C98.9133 13.4806 99.0519 13.5819 99.2546 13.6566C99.4679 13.7313 99.7826 13.7686 100.199 13.7686C100.657 13.7686 101.025 13.6779 101.303 13.4966C101.58 13.3153 101.719 12.9473 101.719 12.3926C101.719 11.9979 101.623 11.4913 101.431 10.8726C101.249 10.2539 101.041 9.64061 100.807 9.03261L102.103 8.55261C102.231 8.90461 102.359 9.29928 102.487 9.73661C102.615 10.1633 102.721 10.5899 102.807 11.0166C102.892 11.4433 102.935 11.8166 102.935 12.1366C102.935 13.1286 102.689 13.8699 102.199 14.3606C101.708 14.8406 101.036 15.0806 100.183 15.0806C99.5959 15.0806 99.1319 15.0059 98.7906 14.8566C98.4599 14.6966 98.2199 14.4513 98.0706 14.1206C97.8146 14.5153 97.5053 14.7766 97.1426 14.9046C96.7906 15.0219 96.2893 15.0806 95.6386 15.0806C95.4146 15.0806 95.1746 15.0539 94.9186 15.0006C94.6733 14.9473 94.4439 14.8459 94.2306 14.6966C94.0173 14.5366 93.8519 14.3019 93.7346 13.9926C93.4573 14.4619 93.1106 14.7606 92.6946 14.8886C92.2893 15.0166 91.7879 15.0806 91.1906 15.0806ZM108.543 15.0806C107.679 15.0806 107.023 14.9846 106.575 14.7926C106.127 14.6006 105.818 14.3019 105.647 13.8966C105.477 13.4913 105.381 12.9686 105.359 12.3286L105.039 3.57661H106.351L106.671 11.8166C106.693 12.3393 106.741 12.7446 106.815 13.0326C106.901 13.3099 107.082 13.5019 107.359 13.6086C107.647 13.7153 108.095 13.7686 108.703 13.7686C108.927 13.7686 109.087 13.8326 109.183 13.9606C109.29 14.0779 109.343 14.2219 109.343 14.3926C109.343 14.5633 109.269 14.7233 109.119 14.8726C108.97 15.0113 108.778 15.0806 108.543 15.0806ZM108.694 15.0806L108.854 13.7686C109.366 13.7686 109.776 13.7366 110.086 13.6726C110.406 13.6086 110.635 13.4806 110.774 13.2886C110.912 13.0859 110.982 12.7873 110.982 12.3926C110.982 11.9979 110.886 11.4913 110.694 10.8726C110.512 10.2539 110.304 9.64061 110.07 9.03261L111.366 8.55261C111.504 8.90461 111.632 9.29928 111.75 9.73661C111.878 10.1633 111.984 10.5899 112.07 11.0166C112.155 11.4433 112.198 11.8166 112.198 12.1366C112.198 13.2139 111.91 13.9766 111.334 14.4246C110.768 14.8619 109.888 15.0806 108.694 15.0806ZM110.406 18.0566C110.182 18.0566 109.99 17.9766 109.83 17.8166C109.68 17.6673 109.606 17.4859 109.606 17.2726C109.606 17.0593 109.68 16.8726 109.83 16.7126C109.99 16.5526 110.182 16.4726 110.406 16.4726C110.619 16.4726 110.8 16.5526 110.95 16.7126C111.11 16.8726 111.19 17.0593 111.19 17.2726C111.19 17.4859 111.11 17.6673 110.95 17.8166C110.8 17.9766 110.619 18.0566 110.406 18.0566ZM121.777 21.3046C121.297 21.3046 120.79 21.2566 120.257 21.1606C119.724 21.0753 119.222 20.9046 118.753 20.6486C118.294 20.4033 117.916 20.0566 117.617 19.6086C117.329 19.1606 117.185 18.5739 117.185 17.8486C117.185 17.0699 117.345 16.3926 117.665 15.8166C117.985 15.2406 118.39 14.7446 118.881 14.3286C119.372 13.9019 119.868 13.5179 120.369 13.1766C120.113 12.8779 119.83 12.5793 119.521 12.2806C119.212 11.9819 118.87 11.6993 118.497 11.4326C118.433 11.3793 118.369 11.2833 118.305 11.1446C118.241 11.0059 118.188 10.8619 118.145 10.7126C118.102 10.5633 118.081 10.4513 118.081 10.3766C118.081 10.2166 118.182 10.0246 118.385 9.80061C118.588 9.57661 118.86 9.36328 119.201 9.16061C119.542 8.94728 119.932 8.77128 120.369 8.63261C120.806 8.49394 121.26 8.42461 121.729 8.42461C122.476 8.42461 123.057 8.61128 123.473 8.98461C123.9 9.35794 124.113 9.79528 124.113 10.2966C124.113 10.9046 123.942 11.4326 123.601 11.8806C123.27 12.3286 122.865 12.7446 122.385 13.1286C122.79 13.3313 123.244 13.4913 123.745 13.6086C124.246 13.7153 124.892 13.7686 125.681 13.7686C125.905 13.7686 126.065 13.8326 126.161 13.9606C126.268 14.0779 126.321 14.2219 126.321 14.3926C126.321 14.5633 126.246 14.7233 126.097 14.8726C125.948 15.0113 125.756 15.0806 125.521 15.0806C124.785 15.0806 124.156 15.0326 123.633 14.9366C123.121 14.8406 122.678 14.7126 122.305 14.5526C121.932 14.3819 121.585 14.1846 121.265 13.9606C120.796 14.3019 120.348 14.6486 119.921 15.0006C119.505 15.3526 119.164 15.7419 118.897 16.1686C118.63 16.5953 118.497 17.0859 118.497 17.6406C118.497 18.1313 118.614 18.5313 118.849 18.8406C119.084 19.1499 119.377 19.3846 119.729 19.5446C120.081 19.7153 120.444 19.8326 120.817 19.8966C121.19 19.9606 121.51 19.9926 121.777 19.9926C122.332 19.9926 122.913 19.9286 123.521 19.8006C124.129 19.6833 124.758 19.4913 125.409 19.2246L125.825 20.2486C125.505 20.4406 125.121 20.6166 124.673 20.7766C124.236 20.9366 123.761 21.0646 123.249 21.1606C122.748 21.2566 122.257 21.3046 121.777 21.3046ZM119.233 10.4566C119.617 10.7766 119.974 11.0913 120.305 11.4006C120.646 11.6993 121.014 12.0566 121.409 12.4726C121.825 12.1846 122.166 11.8966 122.433 11.6086C122.71 11.3206 122.849 11.0006 122.849 10.6486C122.849 10.4353 122.748 10.2273 122.545 10.0246C122.342 9.82194 121.99 9.72061 121.489 9.72061C121.126 9.72061 120.721 9.78994 120.273 9.92861C119.836 10.0673 119.489 10.2433 119.233 10.4566ZM125.675 15.0806L125.835 13.7686C126.187 13.7686 126.587 13.7686 127.035 13.7686C127.494 13.7579 127.936 13.7366 128.363 13.7046C128.79 13.6619 129.126 13.5979 129.371 13.5126C129.712 13.3953 129.984 13.2459 130.187 13.0646C130.4 12.8726 130.56 12.6273 130.667 12.3286C130.475 12.3926 130.267 12.4406 130.043 12.4726C129.83 12.4939 129.616 12.5046 129.403 12.5046C128.582 12.5046 127.952 12.3126 127.515 11.9286C127.078 11.5446 126.859 11.0593 126.859 10.4726C126.859 10.0673 126.923 9.66194 127.051 9.25661C127.179 8.84061 127.36 8.46194 127.595 8.12061C127.83 7.77928 128.112 7.50728 128.443 7.30461C128.774 7.09128 129.142 6.98461 129.547 6.98461C130.123 6.98461 130.598 7.17661 130.971 7.56061C131.355 7.93394 131.638 8.41928 131.819 9.01661C132.011 9.61394 132.107 10.2486 132.107 10.9206C132.107 11.7206 131.968 12.4086 131.691 12.9846C131.424 13.5499 130.976 14.0193 130.347 14.3926C130.016 14.5846 129.6 14.7339 129.099 14.8406C128.608 14.9366 128.07 15.0006 127.483 15.0326C126.896 15.0646 126.294 15.0806 125.675 15.0806ZM128.123 10.1526C128.123 10.4833 128.23 10.7499 128.443 10.9526C128.656 11.1446 129.024 11.2406 129.547 11.2406C130.006 11.2406 130.443 11.1766 130.859 11.0486C130.859 10.9846 130.859 10.9099 130.859 10.8246C130.859 10.3873 130.8 9.97661 130.683 9.59261C130.566 9.19794 130.4 8.88328 130.187 8.64861C129.974 8.41394 129.718 8.29661 129.419 8.29661C129.163 8.29661 128.939 8.39261 128.747 8.58461C128.555 8.76594 128.4 9.00061 128.283 9.28861C128.176 9.57661 128.123 9.86461 128.123 10.1526ZM129.243 5.33661C129.019 5.33661 128.827 5.26194 128.667 5.11261C128.518 4.95261 128.443 4.76594 128.443 4.55261C128.443 4.33928 128.518 4.15261 128.667 3.99261C128.827 3.83261 129.019 3.75261 129.243 3.75261C129.456 3.75261 129.638 3.83261 129.787 3.99261C129.947 4.15261 130.027 4.33928 130.027 4.55261C130.027 4.76594 129.947 4.95261 129.787 5.11261C129.638 5.26194 129.456 5.33661 129.243 5.33661ZM136.421 13.7686C137.211 13.7686 137.771 13.6513 138.101 13.4166C138.432 13.1713 138.597 12.8353 138.597 12.4086C138.597 12.1313 138.501 11.7739 138.309 11.3366C138.117 10.8993 137.861 10.4139 137.541 9.88061C137.232 9.33661 136.885 8.78194 136.501 8.21661L137.605 7.49661C138.224 8.44594 138.725 9.31528 139.109 10.1046C139.504 10.8833 139.797 11.5873 139.989 12.2166C140.139 12.6859 140.304 13.0326 140.485 13.2566C140.677 13.4806 140.875 13.6246 141.077 13.6886C141.28 13.7419 141.467 13.7686 141.637 13.7686C141.861 13.7686 142.027 13.8326 142.133 13.9606C142.24 14.0779 142.293 14.2219 142.293 14.3926C142.293 14.5633 142.219 14.7233 142.069 14.8726C141.92 15.0113 141.728 15.0806 141.493 15.0806C141.077 15.0806 140.677 14.9899 140.293 14.8086C139.909 14.6273 139.6 14.3179 139.365 13.8806C139.152 14.2326 138.811 14.5259 138.341 14.7606C137.883 14.9846 137.243 15.0966 136.421 15.0966C135.835 15.0966 135.291 15.0273 134.789 14.8886C134.288 14.7393 133.872 14.5366 133.541 14.2806L134.181 13.1766C134.395 13.3259 134.693 13.4646 135.077 13.5926C135.461 13.7099 135.909 13.7686 136.421 13.7686ZM141.647 15.0806L141.791 13.7686C142.399 13.7686 142.826 13.7099 143.071 13.5926C143.316 13.4753 143.455 13.2726 143.487 12.9846C143.53 12.6859 143.54 12.2646 143.519 11.7206L143.215 3.57661H144.511L144.831 11.5766C144.863 12.3339 144.81 12.9739 144.671 13.4966C144.543 14.0193 144.244 14.4139 143.775 14.6806C143.316 14.9473 142.607 15.0806 141.647 15.0806ZM147.425 15.0006L147.105 3.57661H148.401L148.721 15.0006H147.425ZM154.984 21.2886C154.792 20.5953 154.632 19.9073 154.504 19.2246C154.376 18.5526 154.28 17.9339 154.216 17.3686C154.152 16.8033 154.12 16.3393 154.12 15.9766C154.12 15.3259 154.237 14.7873 154.472 14.3606C154.707 13.9233 155.021 13.5873 155.416 13.3526C155.811 13.1073 156.248 12.9419 156.728 12.8566C157.219 12.7713 157.72 12.7446 158.232 12.7766C158.755 12.7979 159.245 12.8619 159.704 12.9686C159.736 12.4886 159.688 12.0353 159.56 11.6086C159.432 11.1819 159.229 10.8406 158.952 10.5846C158.675 10.3179 158.333 10.1846 157.928 10.1846C157.149 10.1846 156.477 10.7179 155.912 11.7846L154.92 11.2406C155.325 10.3766 155.8 9.76861 156.344 9.41661C156.899 9.06461 157.453 8.88861 158.008 8.88861C158.552 8.88861 159.011 9.00594 159.384 9.24061C159.757 9.46461 160.051 9.76328 160.264 10.1366C160.488 10.4993 160.648 10.8939 160.744 11.3206C160.851 11.7366 160.904 12.1366 160.904 12.5206C160.904 12.9153 160.835 13.3099 160.696 13.7046C160.557 14.0886 160.429 14.3659 160.312 14.5366C159.341 14.2486 158.488 14.0993 157.752 14.0886C157.027 14.0673 156.456 14.2166 156.04 14.5366C155.635 14.8459 155.432 15.3526 155.432 16.0566C155.432 16.4619 155.464 16.9313 155.528 17.4646C155.592 18.0086 155.683 18.5793 155.8 19.1766C155.917 19.7846 156.056 20.3819 156.216 20.9686L154.984 21.2886ZM166.356 15.0806C165.492 15.0806 164.836 14.9846 164.388 14.7926C163.94 14.6006 163.631 14.3019 163.46 13.8966C163.289 13.4913 163.193 12.9686 163.172 12.3286L162.852 3.57661H164.164L164.484 11.8166C164.505 12.3393 164.553 12.7446 164.628 13.0326C164.713 13.3099 164.895 13.5019 165.172 13.6086C165.46 13.7153 165.908 13.7686 166.516 13.7686C166.74 13.7686 166.9 13.8326 166.996 13.9606C167.103 14.0779 167.156 14.2219 167.156 14.3926C167.156 14.5633 167.081 14.7233 166.932 14.8726C166.783 15.0113 166.591 15.0806 166.356 15.0806ZM166.506 15.0806L166.666 13.7686C166.965 13.7686 167.2 13.7046 167.37 13.5766C167.552 13.4486 167.722 13.2406 167.882 12.9526C168.053 12.6539 168.266 12.2486 168.522 11.7366C168.864 11.0539 169.205 10.5313 169.546 10.1686C169.898 9.80594 170.229 9.55528 170.538 9.41661C170.858 9.27794 171.146 9.20861 171.402 9.20861C171.754 9.20861 172.069 9.28861 172.346 9.44861C172.624 9.59794 172.88 9.85928 173.114 10.2326C173.36 10.5953 173.616 11.0966 173.882 11.7366C174.128 12.3339 174.346 12.7766 174.538 13.0646C174.741 13.3526 174.949 13.5446 175.162 13.6406C175.386 13.7259 175.637 13.7686 175.914 13.7686C176.138 13.7686 176.298 13.8326 176.394 13.9606C176.501 14.0779 176.554 14.2219 176.554 14.3926C176.554 14.5633 176.48 14.7233 176.33 14.8726C176.181 15.0113 175.989 15.0806 175.754 15.0806C175.338 15.0806 174.954 15.0166 174.602 14.8886C174.261 14.7499 173.989 14.5419 173.786 14.2646C173.584 14.6273 173.328 14.8886 173.018 15.0486C172.72 15.2193 172.394 15.3046 172.042 15.3046C171.509 15.3046 170.965 15.1393 170.41 14.8086C169.856 14.4673 169.386 14.0193 169.002 13.4646C168.725 13.9553 168.458 14.3179 168.202 14.5526C167.957 14.7766 167.696 14.9206 167.418 14.9846C167.152 15.0486 166.848 15.0806 166.506 15.0806ZM169.61 12.2486C169.973 12.8566 170.378 13.3046 170.826 13.5926C171.274 13.8699 171.674 14.0086 172.026 14.0086C172.4 14.0086 172.672 13.8753 172.842 13.6086C173.024 13.3419 173.018 12.9686 172.826 12.4886C172.698 12.1686 172.565 11.8539 172.426 11.5446C172.288 11.2353 172.128 10.9846 171.946 10.7926C171.765 10.5899 171.552 10.4886 171.306 10.4886C171.072 10.4993 170.816 10.6273 170.538 10.8726C170.261 11.1179 169.952 11.5766 169.61 12.2486ZM175.906 15.0806L176.066 13.7686C176.685 13.7686 177.17 13.7473 177.522 13.7046C177.885 13.6513 178.141 13.5286 178.29 13.3366C178.44 13.1446 178.514 12.8299 178.514 12.3926C178.514 11.9979 178.418 11.4913 178.226 10.8726C178.045 10.2539 177.837 9.64061 177.602 9.03261L178.898 8.55261C179.037 8.90461 179.165 9.29928 179.282 9.73661C179.41 10.1633 179.517 10.5899 179.602 11.0166C179.688 11.4433 179.73 11.8166 179.73 12.1366C179.73 13.2139 179.432 13.9766 178.834 14.4246C178.237 14.8619 177.261 15.0806 175.906 15.0806ZM179.394 6.88861C179.17 6.88861 178.978 6.81394 178.818 6.66461C178.669 6.50461 178.594 6.31794 178.594 6.10461C178.594 5.89128 178.669 5.70461 178.818 5.54461C178.978 5.38461 179.17 5.30461 179.394 5.30461C179.608 5.30461 179.789 5.38461 179.938 5.54461C180.098 5.70461 180.178 5.89128 180.178 6.10461C180.178 6.31794 180.098 6.50461 179.938 6.66461C179.789 6.81394 179.608 6.88861 179.394 6.88861ZM177.202 6.88861C176.978 6.88861 176.786 6.81394 176.626 6.66461C176.477 6.50461 176.402 6.31794 176.402 6.10461C176.402 5.89128 176.477 5.70461 176.626 5.54461C176.786 5.38461 176.978 5.30461 177.202 5.30461C177.416 5.30461 177.597 5.38461 177.746 5.54461C177.906 5.70461 177.986 5.89128 177.986 6.10461C177.986 6.31794 177.906 6.50461 177.746 6.66461C177.597 6.81394 177.416 6.88861 177.202 6.88861ZM182.309 15.0006L181.989 3.57661H183.285L183.605 15.0006H182.309ZM181.877 19.8486L181.685 18.9846C181.845 18.9526 181.984 18.9206 182.101 18.8886C182.219 18.8566 182.331 18.8299 182.437 18.8086C182.235 18.6699 182.059 18.4886 181.909 18.2646C181.76 18.0406 181.685 17.7953 181.685 17.5286C181.685 17.0486 181.851 16.6859 182.181 16.4406C182.523 16.1953 182.907 16.0726 183.333 16.0726C183.579 16.0726 183.829 16.1153 184.085 16.2006L183.957 17.0006C183.851 16.9793 183.744 16.9579 183.637 16.9366C183.541 16.9153 183.44 16.9046 183.333 16.9046C182.811 16.9046 182.549 17.0966 182.549 17.4806C182.549 17.7579 182.651 17.9873 182.853 18.1686C183.067 18.3499 183.275 18.4673 183.477 18.5206C183.883 18.4033 184.24 18.2859 184.549 18.1686L184.805 18.9846C184.549 19.0806 184.245 19.1819 183.893 19.2886C183.552 19.3953 183.2 19.4966 182.837 19.5926C182.485 19.6993 182.165 19.7846 181.877 19.8486Z" fill="white"/>
</g>
</svg>
