<svg width="360" height="38" viewBox="0 0 360 38" fill="none" xmlns="http://www.w3.org/2000/svg">
<g id="ar_checkout_with_Dark">
<path id="Text" d="M9.56185 30.14C7.97518 30.14 6.76185 29.972 5.92185 29.636C5.10052 29.2813 4.52185 28.7493 4.18585 28.04C3.86852 27.312 3.69118 26.3787 3.65385 25.24L3.09385 9.868H5.86585L6.45385 24.064C6.49118 24.96 6.57518 25.6507 6.70585 26.136C6.85518 26.6027 7.16318 26.9293 7.62985 27.116C8.09652 27.284 8.83385 27.368 9.84185 27.368C10.3085 27.368 10.6539 27.4987 10.8779 27.76C11.1019 28.0213 11.2139 28.3293 11.2139 28.684C11.2139 29.076 11.0552 29.4213 10.7379 29.72C10.4392 30 10.0472 30.14 9.56185 30.14ZM3.23385 37.56L2.89785 36.048C3.40185 35.9547 3.81252 35.8707 4.12985 35.796C3.79385 35.572 3.51385 35.2827 3.28985 34.928C3.06585 34.5733 2.95385 34.1907 2.95385 33.78C2.95385 32.9773 3.22452 32.38 3.76585 31.988C4.32585 31.6147 4.94185 31.428 5.61385 31.428C6.02452 31.428 6.43518 31.4933 6.84585 31.624L6.64985 33.024C6.48185 33.0053 6.31385 32.9773 6.14585 32.94C5.97785 32.9027 5.80985 32.884 5.64185 32.884C5.30585 32.884 5.02585 32.9587 4.80185 33.108C4.59652 33.2573 4.49385 33.472 4.49385 33.752C4.49385 34.144 4.65252 34.48 4.96985 34.76C5.28718 35.04 5.59518 35.2173 5.89385 35.292C6.52852 35.124 7.06985 34.956 7.51785 34.788L7.96585 36.16C7.33118 36.4027 6.56585 36.6547 5.66985 36.916C4.79252 37.1773 3.98052 37.392 3.23385 37.56ZM9.85704 30.14L10.137 27.368C10.9957 27.368 11.677 27.3027 12.181 27.172C12.685 27.0227 13.077 26.752 13.357 26.36C13.6557 25.9493 13.8984 25.3613 14.085 24.596C14.2904 23.8307 14.505 22.8133 14.729 21.544L17.361 22.02C17.249 22.5053 17.1277 23.0653 16.997 23.7C16.885 24.3347 16.829 24.8853 16.829 25.352C16.829 25.7627 16.8944 26.1173 17.025 26.416C17.1744 26.7147 17.529 26.948 18.089 27.116C18.649 27.284 19.5824 27.368 20.889 27.368C21.3744 27.368 21.7197 27.4987 21.925 27.76C22.1304 28.0213 22.233 28.3293 22.233 28.684C22.233 29.076 22.0837 29.4213 21.785 29.72C21.4864 30 21.0944 30.14 20.609 30.14C18.9477 30.14 17.7344 29.9813 16.969 29.664C16.2224 29.3467 15.7184 28.8427 15.457 28.152C14.841 28.992 14.085 29.5333 13.189 29.776C12.293 30.0187 11.1824 30.14 9.85704 30.14ZM17.781 18.772C17.3517 18.772 16.9784 18.6227 16.661 18.324C16.3624 18.0067 16.213 17.6427 16.213 17.232C16.213 16.8213 16.3624 16.4573 16.661 16.14C16.9784 15.8227 17.3517 15.664 17.781 15.664C18.1917 15.664 18.5464 15.8227 18.845 16.14C19.1624 16.4573 19.321 16.8213 19.321 17.232C19.321 17.6427 19.1624 18.0067 18.845 18.324C18.5464 18.6227 18.1917 18.772 17.781 18.772ZM13.637 18.772C13.2077 18.772 12.8437 18.6227 12.545 18.324C12.2464 18.0067 12.097 17.6427 12.097 17.232C12.097 16.8027 12.2464 16.4387 12.545 16.14C12.8437 15.8227 13.2077 15.664 13.637 15.664C14.0477 15.664 14.4024 15.8227 14.701 16.14C15.0184 16.4387 15.177 16.8027 15.177 17.232C15.177 17.6427 15.0184 18.0067 14.701 18.324C14.4024 18.6227 14.0477 18.772 13.637 18.772ZM20.9031 30.14L21.1831 27.368C21.6685 27.368 22.0791 27.256 22.4151 27.032C22.7698 26.808 23.1058 26.4347 23.4231 25.912C23.7591 25.3893 24.1418 24.6893 24.5711 23.812C25.1125 22.6547 25.6631 21.768 26.2231 21.152C26.7831 20.5173 27.3431 20.088 27.9031 19.864C28.4631 19.6213 29.0231 19.5 29.5831 19.5C30.4978 19.5 31.3191 19.7893 32.0471 20.368C32.7938 20.9467 33.3818 21.684 33.8111 22.58C34.2591 23.4573 34.4831 24.3533 34.4831 25.268C34.4831 26.3507 34.2778 27.2467 33.8671 27.956C33.4751 28.6467 32.9525 29.16 32.2991 29.496C31.6458 29.832 30.9551 30 30.2271 30C29.6298 30 28.9018 29.9067 28.0431 29.72C27.1845 29.5147 26.1765 29.048 25.0191 28.32C24.4218 29.104 23.8058 29.608 23.1711 29.832C22.5365 30.0373 21.7805 30.14 20.9031 30.14ZM26.4471 25.772C26.3911 25.884 26.3445 25.9867 26.3071 26.08C27.0538 26.5093 27.7258 26.808 28.3231 26.976C28.9391 27.144 29.4618 27.228 29.8911 27.228C30.6191 27.228 31.1418 27.0787 31.4591 26.78C31.7765 26.4627 31.9351 26.0427 31.9351 25.52C31.9351 25.0347 31.8138 24.54 31.5711 24.036C31.3471 23.532 31.0391 23.112 30.6471 22.776C30.2738 22.44 29.8725 22.272 29.4431 22.272C28.9018 22.272 28.4165 22.524 27.9871 23.028C27.5578 23.532 27.0445 24.4467 26.4471 25.772ZM44.7509 30.14C43.1642 30.14 41.9509 29.972 41.1109 29.636C40.2896 29.2813 39.7109 28.7493 39.3749 28.04C39.0576 27.312 38.8802 26.3787 38.8429 25.24L38.2829 9.868H41.0549L41.6429 24.064C41.6802 24.96 41.7642 25.6507 41.8949 26.136C42.0442 26.6027 42.3522 26.9293 42.8189 27.116C43.2856 27.284 44.0229 27.368 45.0309 27.368C45.4976 27.368 45.8429 27.4987 46.0669 27.76C46.2909 28.0213 46.4029 28.3293 46.4029 28.684C46.4029 29.076 46.2442 29.4213 45.9269 29.72C45.6282 30 45.2362 30.14 44.7509 30.14ZM45.0461 30.14L45.3261 27.368C45.8114 27.368 46.2221 27.256 46.5581 27.032C46.9128 26.808 47.2488 26.4347 47.5661 25.912C47.9021 25.3893 48.2848 24.6893 48.7141 23.812C49.2554 22.6547 49.8061 21.768 50.3661 21.152C50.9261 20.5173 51.4861 20.088 52.0461 19.864C52.6061 19.6213 53.1661 19.5 53.7261 19.5C54.6408 19.5 55.4621 19.7893 56.1901 20.368C56.9368 20.9467 57.5248 21.684 57.9541 22.58C58.4021 23.4573 58.6261 24.3533 58.6261 25.268C58.6261 26.3507 58.4208 27.2467 58.0101 27.956C57.6181 28.6467 57.0954 29.16 56.4421 29.496C55.7888 29.832 55.0981 30 54.3701 30C53.7728 30 53.0448 29.9067 52.1861 29.72C51.3274 29.5147 50.3194 29.048 49.1621 28.32C48.5648 29.104 47.9488 29.608 47.3141 29.832C46.6794 30.0373 45.9234 30.14 45.0461 30.14ZM50.5901 25.772C50.5341 25.884 50.4874 25.9867 50.4501 26.08C51.1968 26.5093 51.8688 26.808 52.4661 26.976C53.0821 27.144 53.6048 27.228 54.0341 27.228C54.7621 27.228 55.2848 27.0787 55.6021 26.78C55.9194 26.4627 56.0781 26.0427 56.0781 25.52C56.0781 25.0347 55.9568 24.54 55.7141 24.036C55.4901 23.532 55.1821 23.112 54.7901 22.776C54.4168 22.44 54.0154 22.272 53.5861 22.272C53.0448 22.272 52.5594 22.524 52.1301 23.028C51.7008 23.532 51.1874 24.4467 50.5901 25.772ZM79.0993 14.992C79.0993 14.5253 79.0713 14.0027 79.0153 13.424C78.9593 12.8267 78.8847 12.2387 78.7913 11.66C78.7167 11.0813 78.642 10.5867 78.5673 10.176L81.4233 9.84C81.498 10.2133 81.5633 10.708 81.6193 11.324C81.694 11.9213 81.75 12.5373 81.7873 13.172C81.8433 13.788 81.8713 14.32 81.8713 14.768C81.8713 17.12 81.4047 19.2667 80.4713 21.208C81.4047 22.1787 82.0673 23.0653 82.4593 23.868C82.87 24.652 83.0753 25.3987 83.0753 26.108C83.0753 26.7053 82.9353 27.3027 82.6553 27.9C82.394 28.4973 81.918 29.0013 81.2273 29.412C80.5367 29.804 79.5567 30 78.2873 30H71.3153V27.284C74.022 25.3427 75.982 23.4573 77.1953 21.628C76.15 20.7133 74.9367 19.7427 73.5553 18.716C72.1927 17.6893 70.746 16.6533 69.2153 15.608L70.7553 13.424C74.022 15.7013 76.57 17.6333 78.3993 19.22C78.642 18.5667 78.8193 17.8853 78.9313 17.176C79.0433 16.4667 79.0993 15.7387 79.0993 14.992ZM75.1513 27.256H78.1753C79.1273 27.256 79.7527 27.116 80.0513 26.836C80.35 26.5373 80.4993 26.192 80.4993 25.8C80.4993 25.52 80.378 25.184 80.1353 24.792C79.8927 24.3813 79.5473 23.9427 79.0993 23.476C78.0913 24.8387 76.7753 26.0987 75.1513 27.256ZM91.1503 27.368C92.4943 27.368 93.4277 27.172 93.9503 26.78C94.4917 26.388 94.7623 25.8653 94.7623 25.212C94.7623 24.708 94.5757 24.0547 94.2023 23.252C93.8477 22.4493 93.3903 21.5907 92.8303 20.676C92.2703 19.7613 91.701 18.8747 91.1223 18.016L93.4463 16.476C94.5663 18.1373 95.4717 19.6773 96.1623 21.096C96.853 22.496 97.3477 23.728 97.6463 24.792C97.8703 25.5387 98.141 26.0987 98.4583 26.472C98.7943 26.8453 99.149 27.088 99.5223 27.2C99.8957 27.312 100.25 27.368 100.586 27.368C101.053 27.368 101.398 27.4987 101.622 27.76C101.846 28.0213 101.958 28.3293 101.958 28.684C101.958 29.076 101.809 29.4213 101.51 29.72C101.212 30 100.81 30.14 100.306 30.14C99.5223 30.14 98.7943 29.9907 98.1223 29.692C97.4503 29.3747 96.909 28.8613 96.4983 28.152C96.0877 28.7307 95.4717 29.216 94.6503 29.608C93.829 29.9813 92.7183 30.168 91.3183 30.168C90.3477 30.168 89.3957 30.0467 88.4623 29.804C87.529 29.5613 86.7357 29.216 86.0823 28.768L87.2863 26.36C87.753 26.64 88.313 26.8827 88.9663 27.088C89.6383 27.2747 90.3663 27.368 91.1503 27.368ZM100.633 30.14L100.913 27.368C101.547 27.368 102.173 27.3587 102.789 27.34C103.423 27.3213 104.011 27.2747 104.553 27.2C104.105 26.7707 103.694 26.2387 103.321 25.604C102.947 24.9693 102.761 24.2133 102.761 23.336C102.761 22.2907 103.003 21.3573 103.489 20.536C103.993 19.7147 104.637 19.0707 105.421 18.604C106.223 18.1187 107.063 17.876 107.941 17.876C108.911 17.876 109.761 18.128 110.489 18.632C111.217 19.136 111.777 19.7893 112.169 20.592C112.579 21.3947 112.785 22.2347 112.785 23.112C112.785 23.952 112.626 24.7173 112.309 25.408C111.991 26.08 111.562 26.6773 111.021 27.2C111.711 27.256 112.411 27.3027 113.121 27.34C113.83 27.3587 114.474 27.368 115.053 27.368C115.519 27.368 115.865 27.4987 116.089 27.76C116.313 28.0213 116.425 28.3293 116.425 28.684C116.425 29.076 116.275 29.4213 115.977 29.72C115.678 30 115.277 30.14 114.773 30.14C113.559 30.14 112.318 30.056 111.049 29.888C109.798 29.7013 108.697 29.4587 107.745 29.16C107.539 29.2347 107.334 29.3093 107.129 29.384C106.307 29.6453 105.318 29.8413 104.161 29.972C103.003 30.084 101.827 30.14 100.633 30.14ZM105.533 23.448C105.533 24.1013 105.729 24.6893 106.121 25.212C106.513 25.716 106.979 26.136 107.521 26.472C108.249 26.1547 108.846 25.7347 109.313 25.212C109.798 24.6707 110.041 24.0453 110.041 23.336C110.041 22.944 109.947 22.5427 109.761 22.132C109.574 21.7027 109.313 21.3387 108.977 21.04C108.641 20.7413 108.267 20.592 107.857 20.592C107.446 20.592 107.063 20.732 106.709 21.012C106.354 21.2733 106.065 21.628 105.841 22.076C105.635 22.5053 105.533 22.9627 105.533 23.448ZM107.773 15.048C107.325 15.048 106.942 14.8987 106.625 14.6C106.326 14.3013 106.177 13.928 106.177 13.48C106.177 13.0507 106.326 12.6773 106.625 12.36C106.942 12.0427 107.325 11.884 107.773 11.884C108.202 11.884 108.566 12.0427 108.865 12.36C109.182 12.6773 109.341 13.0507 109.341 13.48C109.341 13.928 109.182 14.3013 108.865 14.6C108.566 14.8987 108.202 15.048 107.773 15.048ZM115.07 30.14L115.35 27.368C116.432 27.368 117.272 27.3587 117.87 27.34C118.467 27.3213 118.906 27.3027 119.186 27.284C119.466 27.2653 119.671 27.2467 119.802 27.228C119.522 27.0413 119.176 26.7613 118.766 26.388C118.355 25.996 117.991 25.492 117.674 24.876C117.375 24.26 117.226 23.532 117.226 22.692C117.226 21.628 117.487 20.6853 118.01 19.864C118.532 19.0427 119.251 18.3987 120.166 17.932C121.08 17.4653 122.116 17.232 123.274 17.232C123.74 17.232 124.226 17.2693 124.73 17.344C125.234 17.4187 125.719 17.5307 126.186 17.68L125.654 20.312C124.87 20.1067 124.104 20.004 123.358 20.004C122.368 20.004 121.566 20.2653 120.95 20.788C120.334 21.292 120.026 21.9733 120.026 22.832C120.026 23.392 120.156 23.8867 120.418 24.316C120.698 24.7453 121.043 25.1187 121.454 25.436C121.883 25.7347 122.322 25.968 122.77 26.136C123.218 26.2853 123.61 26.36 123.946 26.36C124.338 26.248 124.683 26.1453 124.982 26.052C125.28 25.9587 125.635 25.828 126.046 25.66C126.456 25.492 127.035 25.2493 127.782 24.932L128.706 27.452C127.362 28.0307 126.008 28.5253 124.646 28.936C123.302 29.328 121.855 29.6267 120.306 29.832C118.756 30.0373 117.011 30.14 115.07 30.14ZM148.663 30.588C145.135 30.588 142.531 30.112 140.851 29.16C139.171 28.1893 138.331 26.7147 138.331 24.736C138.331 23.9893 138.415 23.2053 138.583 22.384C138.769 21.5627 138.965 20.8067 139.171 20.116L141.663 20.704C141.551 21.1707 141.429 21.712 141.299 22.328C141.168 22.9253 141.103 23.4573 141.103 23.924C141.103 24.82 141.345 25.5573 141.831 26.136C142.335 26.7147 143.184 27.144 144.379 27.424C145.592 27.6853 147.263 27.816 149.391 27.816C153.535 27.816 156.568 27.5827 158.491 27.116C160.432 26.6493 161.403 25.8187 161.403 24.624C161.403 23.9333 161.272 23.1213 161.011 22.188C160.768 21.236 160.451 20.2467 160.059 19.22L162.663 18.38C163.017 19.2947 163.344 20.3027 163.643 21.404C163.96 22.4867 164.119 23.4667 164.119 24.344C164.119 25.464 163.867 26.4253 163.363 27.228C162.859 28.012 162.019 28.656 160.843 29.16C159.685 29.6453 158.108 30 156.111 30.224C154.113 30.4667 151.631 30.588 148.663 30.588ZM151.211 36.272C150.781 36.272 150.408 36.1227 150.091 35.824C149.792 35.5253 149.643 35.1613 149.643 34.732C149.643 34.3213 149.792 33.9573 150.091 33.64C150.408 33.3227 150.781 33.164 151.211 33.164C151.621 33.164 151.976 33.3227 152.275 33.64C152.592 33.9573 152.751 34.3213 152.751 34.732C152.751 35.1613 152.592 35.5253 152.275 35.824C151.976 36.1227 151.621 36.272 151.211 36.272ZM174.189 30.14C172.603 30.14 171.389 29.972 170.549 29.636C169.728 29.2813 169.149 28.7493 168.813 28.04C168.496 27.312 168.319 26.3787 168.281 25.24L167.721 9.868H170.493L171.081 24.064C171.119 24.96 171.203 25.6507 171.333 26.136C171.483 26.6027 171.791 26.9293 172.257 27.116C172.724 27.284 173.461 27.368 174.469 27.368C174.936 27.368 175.281 27.4987 175.505 27.76C175.729 28.0213 175.841 28.3293 175.841 28.684C175.841 29.076 175.683 29.4213 175.365 29.72C175.067 30 174.675 30.14 174.189 30.14ZM174.484 30.14L174.764 27.368C175.362 27.368 175.847 27.3213 176.22 27.228C176.612 27.1347 176.93 26.92 177.172 26.584C177.434 26.2293 177.667 25.6787 177.872 24.932C178.096 24.1667 178.348 23.1307 178.628 21.824L181.176 22.44C181.083 22.9067 180.962 23.4573 180.812 24.092C180.682 24.7267 180.616 25.3053 180.616 25.828C180.616 26.2947 180.784 26.668 181.12 26.948C181.475 27.228 182.119 27.368 183.052 27.368C183.575 27.368 184.014 27.3213 184.368 27.228C184.723 27.1347 185.022 26.9107 185.264 26.556C185.507 26.1827 185.722 25.6133 185.908 24.848C186.095 24.064 186.291 22.9907 186.496 21.628L189.1 22.076C189.026 22.4307 188.951 22.8507 188.876 23.336C188.802 23.8213 188.736 24.2973 188.68 24.764C188.624 25.2307 188.596 25.6133 188.596 25.912C188.596 26.1733 188.652 26.416 188.764 26.64C188.895 26.864 189.138 27.0413 189.492 27.172C189.866 27.3027 190.416 27.368 191.144 27.368C192.059 27.368 192.722 27.1813 193.132 26.808C193.543 26.416 193.748 25.828 193.748 25.044C193.748 24.3907 193.73 23.6813 193.692 22.916C193.655 22.132 193.562 21.152 193.412 19.976L195.904 19.808C196.016 21.3387 196.147 22.5987 196.296 23.588C196.464 24.5773 196.679 25.352 196.94 25.912C197.22 26.4533 197.594 26.836 198.06 27.06C198.546 27.2653 199.18 27.368 199.964 27.368C200.45 27.368 200.795 27.4987 201 27.76C201.224 28.0213 201.336 28.3293 201.336 28.684C201.336 29.076 201.187 29.4213 200.888 29.72C200.59 30 200.188 30.14 199.684 30.14C198.658 30.14 197.762 29.9253 196.996 29.496C196.231 29.048 195.662 28.404 195.288 27.564C194.896 28.5907 194.318 29.2813 193.552 29.636C192.787 29.972 191.9 30.14 190.892 30.14C189.94 30.14 189.156 30 188.54 29.72C187.924 29.44 187.486 28.992 187.224 28.376C186.758 29.1227 186.188 29.608 185.516 29.832C184.844 30.0373 183.92 30.14 182.744 30.14C182.315 30.14 181.876 30.0933 181.428 30C180.98 29.9067 180.56 29.7293 180.168 29.468C179.776 29.188 179.459 28.7773 179.216 28.236C178.694 29.0573 178.04 29.58 177.256 29.804C176.491 30.028 175.567 30.14 174.484 30.14ZM199.995 30.14L200.275 27.368C201.134 27.368 201.815 27.3027 202.319 27.172C202.823 27.0227 203.215 26.752 203.495 26.36C203.794 25.9493 204.037 25.3613 204.223 24.596C204.429 23.8307 204.643 22.8133 204.867 21.544L207.499 22.02C207.387 22.5053 207.266 23.0653 207.135 23.7C207.023 24.3347 206.967 24.8853 206.967 25.352C206.967 25.7627 207.033 26.1173 207.163 26.416C207.313 26.7147 207.667 26.948 208.227 27.116C208.787 27.284 209.721 27.368 211.027 27.368C211.513 27.368 211.858 27.4987 212.063 27.76C212.269 28.0213 212.371 28.3293 212.371 28.684C212.371 29.076 212.222 29.4213 211.923 29.72C211.625 30 211.233 30.14 210.747 30.14C209.086 30.14 207.873 29.9813 207.107 29.664C206.361 29.3467 205.857 28.8427 205.595 28.152C204.979 28.992 204.223 29.5333 203.327 29.776C202.431 30.0187 201.321 30.14 199.995 30.14ZM207.919 18.772C207.49 18.772 207.117 18.6227 206.799 18.324C206.501 18.0067 206.351 17.6427 206.351 17.232C206.351 16.8213 206.501 16.4573 206.799 16.14C207.117 15.8227 207.49 15.664 207.919 15.664C208.33 15.664 208.685 15.8227 208.983 16.14C209.301 16.4573 209.459 16.8213 209.459 17.232C209.459 17.6427 209.301 18.0067 208.983 18.324C208.685 18.6227 208.33 18.772 207.919 18.772ZM203.775 18.772C203.346 18.772 202.982 18.6227 202.683 18.324C202.385 18.0067 202.235 17.6427 202.235 17.232C202.235 16.8027 202.385 16.4387 202.683 16.14C202.982 15.8227 203.346 15.664 203.775 15.664C204.186 15.664 204.541 15.8227 204.839 16.14C205.157 16.4387 205.315 16.8027 205.315 17.232C205.315 17.6427 205.157 18.0067 204.839 18.324C204.541 18.6227 204.186 18.772 203.775 18.772ZM211.041 30.14L211.293 27.368C213.253 27.368 215.148 27.1067 216.977 26.584C218.807 26.0427 220.468 25.2587 221.961 24.232C221.215 23.6347 220.309 23.1587 219.245 22.804C218.2 22.4307 217.052 22.244 215.801 22.244C214.943 22.244 214.056 22.3467 213.141 22.552L212.665 19.92C213.188 19.7707 213.711 19.6587 214.233 19.584C214.756 19.5093 215.26 19.472 215.745 19.472C216.977 19.472 218.069 19.6493 219.021 20.004C219.973 20.34 220.832 20.732 221.597 21.18C222.363 21.6093 223.091 22.0013 223.781 22.356C224.472 22.692 225.172 22.86 225.881 22.86H226.609L226.861 25.38C225.891 25.3987 225.004 25.576 224.201 25.912C223.417 26.2293 222.624 26.6213 221.821 27.088C221.037 27.5547 220.151 28.0213 219.161 28.488C218.191 28.9547 217.052 29.3467 215.745 29.664C214.439 29.9813 212.871 30.14 211.041 30.14ZM215.773 16.644C215.325 16.644 214.943 16.4947 214.625 16.196C214.327 15.8973 214.177 15.524 214.177 15.076C214.177 14.6467 214.327 14.2733 214.625 13.956C214.943 13.6387 215.325 13.48 215.773 13.48C216.203 13.48 216.567 13.6387 216.865 13.956C217.183 14.2733 217.341 14.6467 217.341 15.076C217.341 15.524 217.183 15.8973 216.865 16.196C216.567 16.4947 216.203 16.644 215.773 16.644ZM229.138 28.768L230.342 26.36C230.808 26.64 231.368 26.8827 232.022 27.088C232.694 27.2747 233.431 27.368 234.234 27.368C235.503 27.368 236.418 27.1813 236.978 26.808C237.538 26.416 237.818 25.884 237.818 25.212C237.818 24.8573 237.734 24.4093 237.566 23.868C237.398 23.308 237.052 22.5613 236.53 21.628C236.007 20.6947 235.223 19.4907 234.178 18.016L236.502 16.476C237.939 18.492 238.984 20.2653 239.638 21.796C240.31 23.308 240.646 24.5493 240.646 25.52C240.646 26.3413 240.44 27.1067 240.03 27.816C239.619 28.5253 238.947 29.0947 238.014 29.524C237.099 29.9533 235.886 30.168 234.374 30.168C233.403 30.168 232.451 30.0467 231.518 29.804C230.584 29.5613 229.791 29.216 229.138 28.768ZM250.529 30.14C248.942 30.14 247.729 29.972 246.889 29.636C246.068 29.2813 245.489 28.7493 245.153 28.04C244.836 27.312 244.658 26.3787 244.621 25.24L244.061 9.868H246.833L247.421 24.064C247.458 24.96 247.542 25.6507 247.673 26.136C247.822 26.6027 248.13 26.9293 248.597 27.116C249.064 27.284 249.801 27.368 250.809 27.368C251.276 27.368 251.621 27.4987 251.845 27.76C252.069 28.0213 252.181 28.3293 252.181 28.684C252.181 29.076 252.022 29.4213 251.705 29.72C251.406 30 251.014 30.14 250.529 30.14ZM250.824 30.14L251.104 27.368C251.59 27.368 252 27.256 252.336 27.032C252.691 26.808 253.027 26.4347 253.344 25.912C253.68 25.3893 254.063 24.6893 254.492 23.812C255.034 22.6547 255.584 21.768 256.144 21.152C256.704 20.5173 257.264 20.088 257.824 19.864C258.384 19.6213 258.944 19.5 259.504 19.5C260.419 19.5 261.24 19.7893 261.968 20.368C262.715 20.9467 263.303 21.684 263.732 22.58C264.18 23.4573 264.404 24.3533 264.404 25.268C264.404 26.3507 264.199 27.2467 263.788 27.956C263.396 28.6467 262.874 29.16 262.22 29.496C261.567 29.832 260.876 30 260.148 30C259.551 30 258.823 29.9067 257.964 29.72C257.106 29.5147 256.098 29.048 254.94 28.32C254.343 29.104 253.727 29.608 253.092 29.832C252.458 30.0373 251.702 30.14 250.824 30.14ZM256.368 25.772C256.312 25.884 256.266 25.9867 256.228 26.08C256.975 26.5093 257.647 26.808 258.244 26.976C258.86 27.144 259.383 27.228 259.812 27.228C260.54 27.228 261.063 27.0787 261.38 26.78C261.698 26.4627 261.856 26.0427 261.856 25.52C261.856 25.0347 261.735 24.54 261.492 24.036C261.268 23.532 260.96 23.112 260.568 22.776C260.195 22.44 259.794 22.272 259.364 22.272C258.823 22.272 258.338 22.524 257.908 23.028C257.479 23.532 256.966 24.4467 256.368 25.772Z" fill="white"/>
<g id="GPay Logo (Dark)">
<g id="GPay">
<g id="Pay">
<path id="Fill 1" fill-rule="evenodd" clip-rule="evenodd" d="M316.529 9.34665V17.5128H321.565C322.765 17.5128 323.757 17.1096 324.541 16.3032C325.347 15.4988 325.75 14.5394 325.75 13.4288C325.75 12.3406 325.347 11.3924 324.541 10.586C323.757 9.75916 322.765 9.34479 321.565 9.34479H316.529V9.34665ZM316.529 20.3872V29.8599H313.521V6.47218H321.499C323.527 6.47218 325.248 7.14787 326.666 8.49738C328.105 9.84688 328.824 11.4913 328.824 13.4288C328.824 15.411 328.105 17.0667 326.666 18.3938C325.27 19.7227 323.547 20.3854 321.499 20.3854H316.529V20.3872Z" fill="white"/>
<path id="Fill 3" fill-rule="evenodd" clip-rule="evenodd" d="M331.864 24.9602C331.864 25.7442 332.197 26.3975 332.862 26.9201C333.527 27.4427 334.306 27.704 335.2 27.704C336.465 27.704 337.591 27.2354 338.584 26.3004C339.576 25.3634 340.071 24.264 340.071 23.0022C339.133 22.2612 337.825 21.8916 336.147 21.8916C334.925 21.8916 333.907 22.1866 333.09 22.7745C332.273 23.3623 331.864 24.0886 331.864 24.9602ZM335.756 13.3317C337.98 13.3317 339.735 13.9253 341.022 15.1124C342.308 16.2995 342.95 17.9271 342.95 19.9952V29.8599H340.073V27.6387H339.942C338.699 29.4677 337.042 30.3825 334.972 30.3825C333.206 30.3825 331.728 29.8599 330.541 28.8146C329.353 27.7694 328.759 26.4628 328.759 24.8949C328.759 23.2393 329.385 21.9232 330.638 20.9434C331.892 19.9635 333.565 19.4726 335.658 19.4726C337.444 19.4726 338.916 19.7993 340.071 20.4525V19.7657C340.071 18.7204 339.656 17.8338 338.829 17.104C337.999 16.3742 337.031 16.0102 335.919 16.0102C334.239 16.0102 332.911 16.7176 331.93 18.1343L329.28 16.4675C330.741 14.377 332.899 13.3317 335.756 13.3317Z" fill="white"/>
<path id="Fill 5" fill-rule="evenodd" clip-rule="evenodd" d="M359.463 13.8543L349.424 36.9154H346.318L350.046 28.8464L343.44 13.8543H346.71L351.484 25.3522H351.55L356.193 13.8543H359.463Z" fill="white"/>
</g>
<g id="G">
<path id="Fill 8" fill-rule="evenodd" clip-rule="evenodd" d="M304.373 18.3452C304.373 17.3989 304.293 16.4861 304.141 15.6126H291.454V20.7885H298.72C298.408 22.4757 297.465 23.9112 296.033 24.8725V28.2341H300.37C302.91 25.8935 304.373 22.4348 304.373 18.3452Z" fill="#4285F4"/>
<path id="Fill 10" fill-rule="evenodd" clip-rule="evenodd" d="M291.454 31.4782C295.084 31.4782 298.141 30.2873 300.37 28.2341L296.033 24.8725C294.826 25.6844 293.272 26.1585 291.454 26.1585C287.944 26.1585 284.966 23.7955 283.901 20.6112H279.433V24.0736C281.647 28.4637 286.197 31.4782 291.454 31.4782Z" fill="#34A853"/>
<path id="Fill 12" fill-rule="evenodd" clip-rule="evenodd" d="M283.901 20.6111C283.628 19.7992 283.479 18.9331 283.479 18.0391C283.479 17.145 283.628 16.2789 283.901 15.467V12.0045H279.433C278.518 13.8188 278 15.8683 278 18.0391C278 20.2098 278.518 22.2595 279.433 24.0736L283.901 20.6111Z" fill="#FABB05"/>
<path id="Fill 14" fill-rule="evenodd" clip-rule="evenodd" d="M291.454 9.91964C293.436 9.91964 295.213 10.6009 296.615 11.9355V11.9374L300.455 8.10163C298.123 5.93272 295.082 4.60001 291.454 4.60001C286.197 4.60001 281.647 7.61447 279.433 12.0046L283.901 15.467C284.966 12.2827 287.944 9.91964 291.454 9.91964Z" fill="#E94235"/>
</g>
</g>
</g>
</g>
</svg>
