<svg width="152" height="21" viewBox="0 0 152 21" fill="none" xmlns="http://www.w3.org/2000/svg">
<g id="ar_donate_with_Pay_NBG">
<g id="GPay (Dark)">
<g id="GPay">
<g id="Pay">
<path id="Fill 1" fill-rule="evenodd" clip-rule="evenodd" d="M22.3563 3.42339V8.16175H25.2784C25.9745 8.16175 26.5501 7.92781 27.0055 7.45993C27.4728 6.99313 27.707 6.43644 27.707 5.79203C27.707 5.16061 27.4728 4.61041 27.0055 4.14254C26.5501 3.66274 25.9745 3.4223 25.2784 3.4223H22.3563V3.42339ZM22.3563 9.82966V15.3262H20.6107V1.75549H25.2404C26.4169 1.75549 27.4154 2.14756 28.2383 2.93061C29.0732 3.71365 29.4906 4.66782 29.4906 5.79203C29.4906 6.94224 29.0731 7.90291 28.2383 8.67296C27.4283 9.44409 26.4287 9.82858 25.2404 9.82858H22.3563V9.82966Z" fill="white"/>
<path id="Fill 3" fill-rule="evenodd" clip-rule="evenodd" d="M31.2546 12.4831C31.2546 12.9379 31.4476 13.317 31.8337 13.6203C32.2195 13.9235 32.6717 14.0752 33.19 14.0752C33.9239 14.0752 34.5777 13.8032 35.1535 13.2607C35.7293 12.717 36.0165 12.0791 36.0165 11.3469C35.4722 10.917 34.7133 10.7025 33.7396 10.7025C33.0306 10.7025 32.4397 10.8736 31.9659 11.2148C31.492 11.5559 31.2546 11.9773 31.2546 12.4831M33.513 5.73566C34.8033 5.73566 35.8214 6.08007 36.5685 6.76889C37.3145 7.45771 37.6873 8.40213 37.6873 9.60216V15.3261H36.0177V14.0373H35.9417C35.2207 15.0985 34.259 15.6294 33.0578 15.6294C32.0332 15.6294 31.1755 15.3261 30.4869 14.7196C29.7975 14.1131 29.4527 13.3549 29.4527 12.4452C29.4527 11.4845 29.8158 10.7208 30.5433 10.1523C31.2708 9.58375 32.2413 9.2989 33.4557 9.2989C34.4921 9.2989 35.3465 9.48844 36.0165 9.86751V9.46894C36.0165 8.86243 35.7758 8.34798 35.2956 7.92451C34.8141 7.50103 34.2525 7.28984 33.6074 7.28984C32.6326 7.28984 31.8618 7.70032 31.2926 8.52235L29.7551 7.55519C30.6029 6.34217 31.8552 5.73566 33.513 5.73566" fill="white"/>
<path id="Fill 5" fill-rule="evenodd" clip-rule="evenodd" d="M47.2687 6.03894L41.4432 19.4201H39.6411L41.8043 14.738L37.9714 6.03894H39.8688L42.639 12.7106H42.677L45.3713 6.03894H47.2687Z" fill="white"/>
</g>
<g id="G">
<path id="Fill 8" fill-rule="evenodd" clip-rule="evenodd" d="M15.3029 8.64473C15.3029 8.09563 15.2562 7.56601 15.1684 7.05914H7.80648V10.0625H12.0231C11.842 11.0414 11.2945 11.8744 10.4639 12.4322V14.3828H12.9804C14.4539 13.0246 15.3029 11.0177 15.3029 8.64473" fill="#4285F4"/>
<path id="Fill 10" fill-rule="evenodd" clip-rule="evenodd" d="M7.80646 16.2651C9.91313 16.2651 11.6869 15.5741 12.9804 14.3828L10.4639 12.4322C9.7635 12.9033 8.86142 13.1784 7.80646 13.1784C5.77028 13.1784 4.04201 11.8073 3.424 9.95959H0.831596V11.9687C2.11641 14.516 4.75652 16.2651 7.80646 16.2651" fill="#34A853"/>
<path id="Fill 12" fill-rule="evenodd" clip-rule="evenodd" d="M3.42401 9.9596C3.26571 9.48847 3.17897 8.98593 3.17897 8.46715C3.17897 7.94837 3.26571 7.44583 3.42401 6.9747V4.96564H0.831606C0.300332 6.01837 0 7.20756 0 8.46715C0 9.72674 0.300332 10.916 0.831606 11.9687L3.42401 9.9596Z" fill="#FABB05"/>
<path id="Fill 14" fill-rule="evenodd" clip-rule="evenodd" d="M7.80646 3.75583C8.95683 3.75583 9.98794 4.15115 10.8011 4.92553V4.92661L13.0292 2.70094C11.6761 1.44243 9.91204 0.669128 7.80646 0.669128C4.75652 0.669128 2.11641 2.41826 0.831596 4.9656L3.424 6.97467C4.04201 5.12698 5.77028 3.75583 7.80646 3.75583" fill="#E94235"/>
</g>
</g>
</g>
<path id="Right Text" d="M55.2402 21.2886C55.0482 20.5953 54.8882 19.9073 54.7602 19.2246C54.6322 18.5526 54.5362 17.9339 54.4722 17.3686C54.4082 16.8033 54.3762 16.3393 54.3762 15.9766C54.3762 15.3259 54.4936 14.7873 54.7282 14.3606C54.9629 13.9233 55.2776 13.5873 55.6722 13.3526C56.0669 13.1073 56.5042 12.9419 56.9842 12.8566C57.4749 12.7713 57.9762 12.7446 58.4882 12.7766C59.0109 12.7979 59.5016 12.8619 59.9602 12.9686C59.9922 12.4886 59.9442 12.0353 59.8162 11.6086C59.6882 11.1819 59.4856 10.8406 59.2082 10.5846C58.9309 10.3179 58.5896 10.1846 58.1842 10.1846C57.4056 10.1846 56.7336 10.7179 56.1682 11.7846L55.1762 11.2406C55.5816 10.3766 56.0562 9.76861 56.6002 9.41661C57.1549 9.06461 57.7096 8.88861 58.2642 8.88861C58.8082 8.88861 59.2669 9.00594 59.6402 9.24061C60.0136 9.46461 60.3069 9.76328 60.5202 10.1366C60.7442 10.4993 60.9042 10.8939 61.0002 11.3206C61.1069 11.7366 61.1602 12.1366 61.1602 12.5206C61.1602 12.9153 61.0909 13.3099 60.9522 13.7046C60.8136 14.0886 60.6856 14.3659 60.5682 14.5366C59.5976 14.2486 58.7442 14.0993 58.0082 14.0886C57.2829 14.0673 56.7122 14.2166 56.2962 14.5366C55.8909 14.8459 55.6882 15.3526 55.6882 16.0566C55.6882 16.4619 55.7202 16.9313 55.7842 17.4646C55.8482 18.0086 55.9389 18.5793 56.0562 19.1766C56.1736 19.7846 56.3122 20.3819 56.4722 20.9686L55.2402 21.2886ZM63.4282 15.0006L63.1082 3.57661H64.4042L64.7242 15.0006H63.4282ZM69.3587 13.7686C70.1481 13.7686 70.7081 13.6513 71.0387 13.4166C71.3694 13.1713 71.5347 12.8353 71.5347 12.4086C71.5347 12.1313 71.4387 11.7739 71.2467 11.3366C71.0547 10.8993 70.7987 10.4139 70.4787 9.88061C70.1694 9.33661 69.8227 8.78194 69.4387 8.21661L70.5427 7.49661C71.1614 8.44594 71.6627 9.31528 72.0467 10.1046C72.4414 10.8833 72.7347 11.5873 72.9267 12.2166C73.0761 12.6859 73.2414 13.0326 73.4227 13.2566C73.6147 13.4806 73.8121 13.6246 74.0147 13.6886C74.2174 13.7419 74.4041 13.7686 74.5747 13.7686C74.7987 13.7686 74.9641 13.8326 75.0707 13.9606C75.1774 14.0779 75.2307 14.2219 75.2307 14.3926C75.2307 14.5633 75.1561 14.7233 75.0067 14.8726C74.8574 15.0113 74.6654 15.0806 74.4307 15.0806C74.0147 15.0806 73.6147 14.9899 73.2307 14.8086C72.8467 14.6273 72.5374 14.3179 72.3027 13.8806C72.0894 14.2326 71.7481 14.5259 71.2787 14.7606C70.8201 14.9846 70.1801 15.0966 69.3587 15.0966C68.7721 15.0966 68.2281 15.0273 67.7267 14.8886C67.2254 14.7393 66.8094 14.5366 66.4787 14.2806L67.1187 13.1766C67.3321 13.3259 67.6307 13.4646 68.0147 13.5926C68.3987 13.7099 68.8467 13.7686 69.3587 13.7686ZM74.5844 15.0806L74.7284 13.7686C75.827 13.7686 76.8937 13.6086 77.9284 13.2886C78.963 12.9579 79.907 12.4939 80.7604 11.8966C80.3444 11.5339 79.8324 11.2406 79.2244 11.0166C78.627 10.7926 77.9657 10.6806 77.2404 10.6806C76.9737 10.6806 76.739 10.6966 76.5364 10.7286C76.3337 10.7499 76.0884 10.7926 75.8004 10.8566L75.5444 9.64061C76.1417 9.45928 76.707 9.36861 77.2404 9.36861C77.795 9.36861 78.2964 9.43794 78.7444 9.57661C79.1924 9.70461 79.5977 9.86461 79.9604 10.0566C80.3337 10.2486 80.6804 10.4406 81.0004 10.6326C81.331 10.8246 81.651 10.9899 81.9604 11.1286C82.2697 11.2566 82.5897 11.3206 82.9204 11.3206H83.2564L83.3684 12.4726C83.0377 12.4726 82.7177 12.5099 82.4084 12.5846C82.611 13.0646 82.899 13.3846 83.2724 13.5446C83.6457 13.6939 84.2004 13.7686 84.9364 13.7686C85.1604 13.7686 85.3204 13.8326 85.4164 13.9606C85.523 14.0779 85.5764 14.2219 85.5764 14.3926C85.5764 14.5633 85.5017 14.7233 85.3524 14.8726C85.203 15.0113 85.011 15.0806 84.7764 15.0806C84.2004 15.0806 83.683 15.0326 83.2244 14.9366C82.7764 14.8299 82.3924 14.6273 82.0724 14.3286C81.7524 14.0193 81.5177 13.5606 81.3684 12.9526C80.963 13.1446 80.547 13.3633 80.1204 13.6086C79.7044 13.8433 79.2404 14.0726 78.7284 14.2966C78.2164 14.5206 77.6244 14.7073 76.9524 14.8566C76.2804 15.0059 75.491 15.0806 74.5844 15.0806ZM77.0964 7.72061C76.8724 7.72061 76.6804 7.64594 76.5204 7.49661C76.371 7.33661 76.2964 7.14994 76.2964 6.93661C76.2964 6.72328 76.371 6.53661 76.5204 6.37661C76.6804 6.21661 76.8724 6.13661 77.0964 6.13661C77.3097 6.13661 77.491 6.21661 77.6404 6.37661C77.8004 6.53661 77.8804 6.72328 77.8804 6.93661C77.8804 7.14994 77.8004 7.33661 77.6404 7.49661C77.491 7.64594 77.3097 7.72061 77.0964 7.72061ZM84.9219 15.0806L85.0819 13.7686C85.6152 13.7686 86.0312 13.7313 86.3299 13.6566C86.6285 13.5713 86.8525 13.4166 87.0019 13.1926C87.1619 12.9579 87.2899 12.6219 87.3859 12.1846C87.4819 11.7473 87.5992 11.1766 87.7379 10.4726L88.9859 10.7126C88.9219 11.0006 88.8472 11.3313 88.7619 11.7046C88.6872 12.0779 88.6499 12.3926 88.6499 12.6486C88.6499 12.8086 88.6605 12.9579 88.6819 13.0966C88.7032 13.2353 88.7832 13.3526 88.9219 13.4486C89.0605 13.5446 89.2952 13.6246 89.6259 13.6886C89.9565 13.7419 90.4312 13.7686 91.0499 13.7686C91.2739 13.7686 91.4339 13.8326 91.5299 13.9606C91.6365 14.0779 91.6899 14.2219 91.6899 14.3926C91.6899 14.5633 91.6152 14.7233 91.4659 14.8726C91.3165 15.0113 91.1245 15.0806 90.8899 15.0806C90.1965 15.0806 89.6525 15.0433 89.2579 14.9686C88.8739 14.8833 88.5859 14.7659 88.3939 14.6166C88.2125 14.4566 88.0792 14.2593 87.9939 14.0246C87.6845 14.4619 87.3005 14.7499 86.8419 14.8886C86.3939 15.0166 85.7539 15.0806 84.9219 15.0806ZM89.1939 8.82461C88.9699 8.82461 88.7779 8.74994 88.6179 8.60061C88.4685 8.44061 88.3939 8.25394 88.3939 8.04061C88.3939 7.82728 88.4685 7.64061 88.6179 7.48061C88.7779 7.32061 88.9699 7.24061 89.1939 7.24061C89.4072 7.24061 89.5885 7.32061 89.7379 7.48061C89.8979 7.64061 89.9779 7.82728 89.9779 8.04061C89.9779 8.25394 89.8979 8.44061 89.7379 8.60061C89.5885 8.74994 89.4072 8.82461 89.1939 8.82461ZM87.0019 8.82461C86.7779 8.82461 86.5859 8.74994 86.4259 8.60061C86.2765 8.44061 86.2019 8.25394 86.2019 8.04061C86.2019 7.82728 86.2765 7.64061 86.4259 7.48061C86.5859 7.32061 86.7779 7.24061 87.0019 7.24061C87.2152 7.24061 87.3965 7.32061 87.5459 7.48061C87.7059 7.64061 87.7859 7.82728 87.7859 8.04061C87.7859 8.25394 87.7059 8.44061 87.5459 8.60061C87.3965 8.74994 87.2152 8.82461 87.0019 8.82461ZM91.0406 15.0806L91.2006 13.7686C91.542 13.7686 91.8193 13.7473 92.0326 13.7046C92.246 13.6513 92.422 13.5286 92.5606 13.3366C92.71 13.1339 92.8486 12.8193 92.9766 12.3926C93.1046 11.9659 93.254 11.3686 93.4246 10.6006L94.6246 10.9366C94.5606 11.2139 94.486 11.5393 94.4006 11.9126C94.3153 12.2859 94.2726 12.6219 94.2726 12.9206C94.2726 13.1873 94.374 13.3953 94.5766 13.5446C94.7793 13.6939 95.1473 13.7686 95.6806 13.7686C96.0006 13.7686 96.262 13.7419 96.4646 13.6886C96.6673 13.6353 96.8326 13.5073 96.9606 13.3046C97.0993 13.1019 97.222 12.7819 97.3286 12.3446C97.4353 11.8966 97.5473 11.2779 97.6646 10.4886L98.8806 10.7126C98.8486 10.9046 98.806 11.1393 98.7526 11.4166C98.71 11.6939 98.6726 11.9713 98.6406 12.2486C98.6086 12.5153 98.5926 12.7393 98.5926 12.9206C98.5926 13.0699 98.6246 13.2139 98.6886 13.3526C98.7633 13.4806 98.902 13.5819 99.1046 13.6566C99.318 13.7313 99.6326 13.7686 100.049 13.7686C100.507 13.7686 100.875 13.6779 101.153 13.4966C101.43 13.3153 101.569 12.9473 101.569 12.3926C101.569 11.9979 101.473 11.4913 101.281 10.8726C101.099 10.2539 100.891 9.64061 100.657 9.03261L101.953 8.55261C102.081 8.90461 102.209 9.29928 102.337 9.73661C102.465 10.1633 102.571 10.5899 102.657 11.0166C102.742 11.4433 102.785 11.8166 102.785 12.1366C102.785 13.1286 102.539 13.8699 102.049 14.3606C101.558 14.8406 100.886 15.0806 100.033 15.0806C99.446 15.0806 98.982 15.0059 98.6406 14.8566C98.31 14.6966 98.07 14.4513 97.9206 14.1206C97.6646 14.5153 97.3553 14.7766 96.9926 14.9046C96.6406 15.0219 96.1393 15.0806 95.4886 15.0806C95.2646 15.0806 95.0246 15.0539 94.7686 15.0006C94.5233 14.9473 94.294 14.8459 94.0806 14.6966C93.8673 14.5366 93.702 14.3019 93.5846 13.9926C93.3073 14.4619 92.9606 14.7606 92.5446 14.8886C92.1393 15.0166 91.638 15.0806 91.0406 15.0806ZM108.393 15.0806C107.529 15.0806 106.873 14.9846 106.425 14.7926C105.977 14.6006 105.668 14.3019 105.497 13.8966C105.327 13.4913 105.231 12.9686 105.209 12.3286L104.889 3.57661H106.201L106.521 11.8166C106.543 12.3393 106.591 12.7446 106.665 13.0326C106.751 13.3099 106.932 13.5019 107.209 13.6086C107.497 13.7153 107.945 13.7686 108.553 13.7686C108.777 13.7686 108.937 13.8326 109.033 13.9606C109.14 14.0779 109.193 14.2219 109.193 14.3926C109.193 14.5633 109.119 14.7233 108.969 14.8726C108.82 15.0113 108.628 15.0806 108.393 15.0806ZM108.544 15.0806L108.704 13.7686C109.216 13.7686 109.626 13.7366 109.936 13.6726C110.256 13.6086 110.485 13.4806 110.624 13.2886C110.762 13.0859 110.832 12.7873 110.832 12.3926C110.832 11.9979 110.736 11.4913 110.544 10.8726C110.362 10.2539 110.154 9.64061 109.92 9.03261L111.216 8.55261C111.354 8.90461 111.482 9.29928 111.6 9.73661C111.728 10.1633 111.834 10.5899 111.92 11.0166C112.005 11.4433 112.048 11.8166 112.048 12.1366C112.048 13.2139 111.76 13.9766 111.184 14.4246C110.618 14.8619 109.738 15.0806 108.544 15.0806ZM110.256 18.0566C110.032 18.0566 109.84 17.9766 109.68 17.8166C109.53 17.6673 109.456 17.4859 109.456 17.2726C109.456 17.0593 109.53 16.8726 109.68 16.7126C109.84 16.5526 110.032 16.4726 110.256 16.4726C110.469 16.4726 110.65 16.5526 110.8 16.7126C110.96 16.8726 111.04 17.0593 111.04 17.2726C111.04 17.4859 110.96 17.6673 110.8 17.8166C110.65 17.9766 110.469 18.0566 110.256 18.0566ZM122.363 21.3046C121.787 21.3046 121.19 21.2353 120.571 21.0966C119.952 20.9686 119.376 20.7393 118.843 20.4086C118.31 20.0886 117.872 19.6513 117.531 19.0966C117.2 18.5526 117.035 17.8646 117.035 17.0326C117.035 16.1686 117.232 15.3686 117.627 14.6326C118.022 13.8859 118.566 13.2299 119.259 12.6646C118.726 12.4406 118.294 12.0886 117.963 11.6086C117.632 11.1286 117.467 10.6059 117.467 10.0406C117.467 9.37928 117.622 8.82461 117.931 8.37661C118.251 7.91794 118.656 7.57661 119.147 7.35261C119.648 7.12861 120.176 7.01661 120.731 7.01661C121.243 7.01661 121.771 7.10194 122.315 7.27261L122.043 8.50461C121.595 8.38728 121.158 8.32861 120.731 8.32861C120.144 8.32861 119.664 8.48328 119.291 8.79261C118.928 9.09128 118.747 9.47528 118.747 9.94461C118.747 10.2646 118.848 10.5526 119.051 10.8086C119.264 11.0539 119.52 11.2619 119.819 11.4326C120.118 11.5926 120.406 11.6993 120.683 11.7526C121.515 11.3366 122.427 11.0433 123.419 10.8726L123.755 12.1206C122.71 12.3126 121.782 12.6219 120.971 13.0486C120.16 13.4753 119.52 14.0086 119.051 14.6486C118.582 15.2886 118.347 16.0193 118.347 16.8406C118.347 17.4699 118.475 17.9873 118.731 18.3926C118.987 18.8086 119.318 19.1286 119.723 19.3526C120.139 19.5873 120.576 19.7526 121.035 19.8486C121.504 19.9446 121.947 19.9926 122.363 19.9926C122.928 19.9926 123.504 19.9393 124.091 19.8326C124.678 19.7366 125.211 19.5873 125.691 19.3846L126.107 20.5046C125.851 20.6326 125.51 20.7553 125.083 20.8726C124.667 21.0006 124.219 21.1019 123.739 21.1766C123.259 21.2619 122.8 21.3046 122.363 21.3046ZM126.466 7.54461C126.039 7.54461 125.756 7.40594 125.618 7.12861C125.479 6.84061 125.41 6.53661 125.41 6.21661C125.41 6.09928 125.415 5.97661 125.426 5.84861C125.447 5.70994 125.474 5.55528 125.506 5.38461L126.306 5.16061C126.242 5.52328 126.21 5.82728 126.21 6.07261C126.21 6.46728 126.343 6.66461 126.61 6.66461C126.77 6.66461 126.903 6.58461 127.01 6.42461C127.116 6.25394 127.175 5.91794 127.186 5.41661V4.93661L127.954 4.64861V5.62461C127.954 5.77394 127.98 5.90728 128.034 6.02461C128.098 6.13128 128.226 6.18461 128.418 6.18461C128.61 6.18461 128.738 6.12594 128.802 6.00861C128.866 5.89128 128.898 5.74194 128.898 5.56061C128.898 5.37928 128.876 5.19794 128.834 5.01661C128.791 4.82461 128.732 4.63794 128.658 4.45661L129.378 4.23261C129.484 4.44594 129.57 4.68061 129.634 4.93661C129.708 5.19261 129.746 5.42728 129.746 5.64061C129.746 5.99261 129.644 6.31261 129.442 6.60061C129.25 6.87794 128.946 7.01661 128.53 7.01661C128.188 7.01661 127.911 6.92061 127.698 6.72861C127.602 6.97394 127.442 7.17128 127.218 7.32061C127.004 7.46994 126.754 7.54461 126.466 7.54461ZM125.348 18.7126L124.884 17.4966C125.919 17.1553 126.724 16.7499 127.3 16.2806C127.887 15.8113 128.298 15.3206 128.532 14.8086C128.778 14.2859 128.9 13.7793 128.9 13.2886C128.9 12.7659 128.783 12.2379 128.548 11.7046C128.324 11.1606 128.074 10.6486 127.796 10.1686L128.964 9.57661C129.263 10.1419 129.514 10.6859 129.716 11.2086C129.93 11.7313 130.095 12.1899 130.212 12.5846C130.362 13.0433 130.554 13.3579 130.788 13.5286C131.034 13.6886 131.364 13.7686 131.78 13.7686C132.004 13.7686 132.164 13.8326 132.26 13.9606C132.367 14.0779 132.42 14.2219 132.42 14.3926C132.42 14.5633 132.346 14.7233 132.196 14.8726C132.047 15.0113 131.855 15.0806 131.62 15.0806C131.215 15.0806 130.874 15.0166 130.596 14.8886C130.33 14.7606 130.111 14.5899 129.94 14.3766C129.834 14.9739 129.61 15.5179 129.268 16.0086C128.927 16.4993 128.527 16.9259 128.068 17.2886C127.61 17.6619 127.14 17.9659 126.66 18.2006C126.18 18.4353 125.743 18.6059 125.348 18.7126ZM131.778 15.0806L131.938 13.7686C132.386 13.7686 132.738 13.7313 132.994 13.6566C133.25 13.5713 133.442 13.4166 133.57 13.1926C133.709 12.9579 133.826 12.6219 133.922 12.1846C134.018 11.7473 134.135 11.1766 134.274 10.4726L135.522 10.7126C135.458 11.0006 135.383 11.3313 135.298 11.7046C135.223 12.0779 135.186 12.3926 135.186 12.6486C135.186 12.8619 135.234 13.0539 135.33 13.2246C135.426 13.3953 135.629 13.5286 135.938 13.6246C136.258 13.7206 136.754 13.7686 137.426 13.7686C137.65 13.7686 137.81 13.8326 137.906 13.9606C138.013 14.0779 138.066 14.2219 138.066 14.3926C138.066 14.5633 137.991 14.7233 137.842 14.8726C137.693 15.0113 137.501 15.0806 137.266 15.0806C136.423 15.0806 135.799 14.9899 135.394 14.8086C134.989 14.6273 134.711 14.3553 134.562 13.9926C134.242 14.4406 133.874 14.7339 133.458 14.8726C133.042 15.0113 132.482 15.0806 131.778 15.0806ZM134.498 18.0566C134.274 18.0566 134.082 17.9766 133.922 17.8166C133.773 17.6673 133.698 17.4859 133.698 17.2726C133.698 17.0593 133.773 16.8726 133.922 16.7126C134.082 16.5526 134.274 16.4726 134.498 16.4726C134.711 16.4726 134.893 16.5526 135.042 16.7126C135.202 16.8726 135.282 17.0593 135.282 17.2726C135.282 17.4859 135.202 17.6673 135.042 17.8166C134.893 17.9766 134.711 18.0566 134.498 18.0566ZM137.412 15.0806L137.572 13.7686C138.106 13.7686 138.522 13.7313 138.82 13.6566C139.119 13.5713 139.343 13.4166 139.492 13.1926C139.652 12.9579 139.78 12.6219 139.876 12.1846C139.972 11.7473 140.09 11.1766 140.228 10.4726L141.476 10.7126C141.412 11.0006 141.338 11.3313 141.252 11.7046C141.178 12.0779 141.14 12.3926 141.14 12.6486C141.14 12.8086 141.151 12.9579 141.172 13.0966C141.194 13.2353 141.274 13.3526 141.412 13.4486C141.551 13.5446 141.786 13.6246 142.116 13.6886C142.447 13.7419 142.922 13.7686 143.54 13.7686C143.764 13.7686 143.924 13.8326 144.02 13.9606C144.127 14.0779 144.18 14.2219 144.18 14.3926C144.18 14.5633 144.106 14.7233 143.956 14.8726C143.807 15.0113 143.615 15.0806 143.38 15.0806C142.687 15.0806 142.143 15.0433 141.748 14.9686C141.364 14.8833 141.076 14.7659 140.884 14.6166C140.703 14.4566 140.57 14.2593 140.484 14.0246C140.175 14.4619 139.791 14.7499 139.332 14.8886C138.884 15.0166 138.244 15.0806 137.412 15.0806ZM141.684 8.82461C141.46 8.82461 141.268 8.74994 141.108 8.60061C140.959 8.44061 140.884 8.25394 140.884 8.04061C140.884 7.82728 140.959 7.64061 141.108 7.48061C141.268 7.32061 141.46 7.24061 141.684 7.24061C141.898 7.24061 142.079 7.32061 142.228 7.48061C142.388 7.64061 142.468 7.82728 142.468 8.04061C142.468 8.25394 142.388 8.44061 142.228 8.60061C142.079 8.74994 141.898 8.82461 141.684 8.82461ZM139.492 8.82461C139.268 8.82461 139.076 8.74994 138.916 8.60061C138.767 8.44061 138.692 8.25394 138.692 8.04061C138.692 7.82728 138.767 7.64061 138.916 7.48061C139.076 7.32061 139.268 7.24061 139.492 7.24061C139.706 7.24061 139.887 7.32061 140.036 7.48061C140.196 7.64061 140.276 7.82728 140.276 8.04061C140.276 8.25394 140.196 8.44061 140.036 8.60061C139.887 8.74994 139.706 8.82461 139.492 8.82461ZM143.531 15.0806L143.675 13.7686C144.283 13.7686 144.71 13.7099 144.955 13.5926C145.201 13.4753 145.339 13.2726 145.371 12.9846C145.414 12.6859 145.425 12.2646 145.403 11.7206L145.099 3.57661H146.395L146.715 11.5766C146.747 12.3339 146.694 12.9739 146.555 13.4966C146.427 14.0193 146.129 14.4139 145.659 14.6806C145.201 14.9473 144.491 15.0806 143.531 15.0806ZM149.309 15.0006L148.989 3.57661H150.285L150.605 15.0006H149.309Z" fill="white"/>
</g>
</svg>
