<svg width="296" height="38" viewBox="0 0 296 38" fill="none" xmlns="http://www.w3.org/2000/svg">
<g id="ar_donate_with_Dark">
<path id="Text" d="M5.88538 30.14C5.38138 30.14 4.86804 30.0933 4.34538 30C3.84138 29.9253 3.48671 29.8693 3.28138 29.832L3.64538 27.088C5.21338 27.2933 6.67871 27.2933 8.04138 27.088C9.42271 26.864 10.552 26.304 11.4294 25.408C10.7014 24.232 9.61871 22.804 8.18138 21.124C6.74404 19.444 5.02671 17.6987 3.02938 15.888L4.82138 13.984C6.96804 16.0187 8.66671 17.7547 9.91738 19.192C11.168 20.6293 12.148 21.8613 12.8574 22.888C13.1187 22.0667 13.2587 21.124 13.2774 20.06L12.8854 9.868H15.6854L16.2454 24.064C16.2827 24.96 16.376 25.6507 16.5254 26.136C16.6747 26.6027 16.9827 26.9293 17.4494 27.116C17.916 27.284 18.644 27.368 19.6334 27.368C20.1 27.368 20.4454 27.4987 20.6694 27.76C20.8934 28.0213 21.0054 28.3293 21.0054 28.684C21.0054 29.076 20.856 29.4213 20.5574 29.72C20.2587 30 19.8574 30.14 19.3534 30.14C17.9907 30.14 16.908 30.0187 16.1054 29.776C15.3027 29.5147 14.7054 29.1227 14.3134 28.6C13.94 28.0587 13.6974 27.368 13.5854 26.528C12.9507 27.592 12.1854 28.3853 11.2894 28.908C10.412 29.412 9.48805 29.748 8.51738 29.916C7.56538 30.0653 6.68804 30.14 5.88538 30.14ZM19.6547 30.14L19.9347 27.368C20.7934 27.368 21.4747 27.3027 21.9787 27.172C22.4827 27.0227 22.8747 26.752 23.1547 26.36C23.4534 25.9493 23.696 25.3613 23.8827 24.596C24.088 23.8307 24.3027 22.8133 24.5267 21.544L27.1587 22.02C27.0467 22.5053 26.9254 23.0653 26.7947 23.7C26.6827 24.3347 26.6267 24.8853 26.6267 25.352C26.6267 25.7627 26.692 26.1173 26.8227 26.416C26.972 26.7147 27.3267 26.948 27.8867 27.116C28.4467 27.284 29.38 27.368 30.6867 27.368C31.172 27.368 31.5174 27.4987 31.7227 27.76C31.928 28.0213 32.0307 28.3293 32.0307 28.684C32.0307 29.076 31.8814 29.4213 31.5827 29.72C31.284 30 30.892 30.14 30.4067 30.14C28.7454 30.14 27.532 29.9813 26.7667 29.664C26.02 29.3467 25.516 28.8427 25.2547 28.152C24.6387 28.992 23.8827 29.5333 22.9867 29.776C22.0907 30.0187 20.98 30.14 19.6547 30.14ZM27.5787 18.772C27.1494 18.772 26.776 18.6227 26.4587 18.324C26.16 18.0067 26.0107 17.6427 26.0107 17.232C26.0107 16.8213 26.16 16.4573 26.4587 16.14C26.776 15.8227 27.1494 15.664 27.5787 15.664C27.9894 15.664 28.344 15.8227 28.6427 16.14C28.96 16.4573 29.1187 16.8213 29.1187 17.232C29.1187 17.6427 28.96 18.0067 28.6427 18.324C28.344 18.6227 27.9894 18.772 27.5787 18.772ZM23.4347 18.772C23.0054 18.772 22.6414 18.6227 22.3427 18.324C22.044 18.0067 21.8947 17.6427 21.8947 17.232C21.8947 16.8027 22.044 16.4387 22.3427 16.14C22.6414 15.8227 23.0054 15.664 23.4347 15.664C23.8454 15.664 24.2 15.8227 24.4987 16.14C24.816 16.4387 24.9747 16.8027 24.9747 17.232C24.9747 17.6427 24.816 18.0067 24.4987 18.324C24.2 18.6227 23.8454 18.772 23.4347 18.772ZM30.7008 30.14L30.9808 27.368C32.2875 27.368 33.2115 27.228 33.7528 26.948C34.2941 26.668 34.5648 26.0333 34.5648 25.044C34.5648 24.5587 34.4901 23.98 34.3408 23.308C34.1915 22.636 33.9955 21.936 33.7528 21.208C33.5288 20.4613 33.2861 19.7333 33.0248 19.024L35.7688 18.128C36.0115 18.744 36.2355 19.444 36.4408 20.228C36.6648 21.012 36.8515 21.8053 37.0008 22.608C37.1501 23.392 37.2248 24.1013 37.2248 24.736C37.2248 26.1173 36.9635 27.2 36.4408 27.984C35.9368 28.768 35.1995 29.328 34.2288 29.664C33.2581 29.9813 32.0821 30.14 30.7008 30.14ZM33.8368 35.712C33.4075 35.712 33.0341 35.5627 32.7168 35.264C32.4181 34.9653 32.2688 34.6013 32.2688 34.172C32.2688 33.7613 32.4181 33.3973 32.7168 33.08C33.0341 32.7627 33.4075 32.604 33.8368 32.604C34.2475 32.604 34.6021 32.7627 34.9008 33.08C35.2181 33.3973 35.3768 33.7613 35.3768 34.172C35.3768 34.6013 35.2181 34.9653 34.9008 35.264C34.6021 35.5627 34.2475 35.712 33.8368 35.712ZM41.6972 11.452C40.9692 11.452 40.4839 11.2093 40.2412 10.724C39.9986 10.2387 39.8772 9.70667 39.8772 9.128C39.8772 8.92267 39.8866 8.708 39.9052 8.484C39.9426 8.24133 39.9892 7.97067 40.0452 7.672L41.5292 7.28C41.4172 7.91467 41.3612 8.44667 41.3612 8.876C41.3612 9.51067 41.5759 9.828 42.0052 9.828C42.2666 9.828 42.4812 9.688 42.6492 9.408C42.8172 9.128 42.9199 8.568 42.9572 7.728V6.888L44.3572 6.384V8.092C44.3572 8.33467 44.4039 8.54933 44.4972 8.736C44.5906 8.904 44.7959 8.988 45.1132 8.988C45.4306 8.988 45.6359 8.89467 45.7292 8.708C45.8412 8.52133 45.8972 8.27867 45.8972 7.98C45.8972 7.66267 45.8599 7.34533 45.7852 7.028C45.7106 6.692 45.6079 6.36533 45.4772 6.048L46.8212 5.656C47.0079 6.02933 47.1572 6.44 47.2692 6.888C47.3999 7.336 47.4652 7.74667 47.4652 8.12C47.4652 8.736 47.2879 9.296 46.9332 9.8C46.5972 10.2853 46.0559 10.528 45.3092 10.528C44.7306 10.528 44.2546 10.36 43.8812 10.024C43.7132 10.4533 43.4332 10.7987 43.0412 11.06C42.6679 11.3213 42.2199 11.452 41.6972 11.452ZM39.4545 36.496L38.4465 33.976C40.9478 33.1173 42.7305 32.0533 43.7945 30.784C44.8771 29.5147 45.4185 28.1987 45.4185 26.836C45.4185 25.9587 45.2225 25.0533 44.8305 24.12C44.4385 23.1867 43.9998 22.2813 43.5145 21.404L46.0345 20.144C46.5571 21.1147 46.9865 22.0667 47.3225 23C47.6771 23.9333 47.9478 24.68 48.1345 25.24C48.3958 26.08 48.7411 26.6493 49.1705 26.948C49.5998 27.228 50.2251 27.368 51.0465 27.368C51.5318 27.368 51.8771 27.4987 52.0825 27.76C52.3065 28.0213 52.4185 28.3293 52.4185 28.684C52.4185 29.076 52.2598 29.4213 51.9425 29.72C51.6438 30 51.2518 30.14 50.7665 30.14C50.0385 30.14 49.4225 30.028 48.9185 29.804C48.4331 29.58 48.0411 29.2813 47.7425 28.908C47.5371 29.916 47.1358 30.8307 46.5385 31.652C45.9598 32.492 45.2691 33.2293 44.4665 33.864C43.6638 34.5173 42.8238 35.0587 41.9465 35.488C41.0878 35.936 40.2571 36.272 39.4545 36.496ZM51.0695 30.14L51.3495 27.368C52.4322 27.368 53.2722 27.3587 53.8695 27.34C54.4669 27.3213 54.9055 27.3027 55.1855 27.284C55.4655 27.2653 55.6709 27.2467 55.8015 27.228C55.5215 27.0413 55.1762 26.7613 54.7655 26.388C54.3549 25.996 53.9909 25.492 53.6735 24.876C53.3749 24.26 53.2255 23.532 53.2255 22.692C53.2255 21.628 53.4869 20.6853 54.0095 19.864C54.5322 19.0427 55.2509 18.3987 56.1655 17.932C57.0802 17.4653 58.1162 17.232 59.2735 17.232C59.7402 17.232 60.2255 17.2693 60.7295 17.344C61.2335 17.4187 61.7189 17.5307 62.1855 17.68L61.6535 20.312C60.8695 20.1067 60.1042 20.004 59.3575 20.004C58.3682 20.004 57.5655 20.2653 56.9495 20.788C56.3335 21.292 56.0255 21.9733 56.0255 22.832C56.0255 23.392 56.1562 23.8867 56.4175 24.316C56.6975 24.7453 57.0429 25.1187 57.4535 25.436C57.8829 25.7347 58.3215 25.968 58.7695 26.136C59.2175 26.2853 59.6095 26.36 59.9455 26.36C60.3375 26.248 60.6829 26.1453 60.9815 26.052C61.2802 25.9587 61.6349 25.828 62.0455 25.66C62.4562 25.492 63.0349 25.2493 63.7815 24.932L64.7055 27.452C63.3615 28.0307 62.0082 28.5253 60.6455 28.936C59.3015 29.328 57.8549 29.6267 56.3055 29.832C54.7562 30.0373 53.0109 30.14 51.0695 30.14ZM84.6625 30.588C81.1345 30.588 78.5305 30.112 76.8505 29.16C75.1705 28.1893 74.3305 26.7147 74.3305 24.736C74.3305 23.9893 74.4145 23.2053 74.5825 22.384C74.7692 21.5627 74.9652 20.8067 75.1705 20.116L77.6625 20.704C77.5505 21.1707 77.4292 21.712 77.2985 22.328C77.1678 22.9253 77.1025 23.4573 77.1025 23.924C77.1025 24.82 77.3452 25.5573 77.8305 26.136C78.3345 26.7147 79.1838 27.144 80.3785 27.424C81.5918 27.6853 83.2625 27.816 85.3905 27.816C89.5345 27.816 92.5678 27.5827 94.4905 27.116C96.4318 26.6493 97.4025 25.8187 97.4025 24.624C97.4025 23.9333 97.2718 23.1213 97.0105 22.188C96.7678 21.236 96.4505 20.2467 96.0585 19.22L98.6625 18.38C99.0172 19.2947 99.3438 20.3027 99.6425 21.404C99.9598 22.4867 100.119 23.4667 100.119 24.344C100.119 25.464 99.8665 26.4253 99.3625 27.228C98.8585 28.012 98.0185 28.656 96.8425 29.16C95.6852 29.6453 94.1078 30 92.1105 30.224C90.1132 30.4667 87.6305 30.588 84.6625 30.588ZM87.2105 36.272C86.7812 36.272 86.4078 36.1227 86.0905 35.824C85.7918 35.5253 85.6425 35.1613 85.6425 34.732C85.6425 34.3213 85.7918 33.9573 86.0905 33.64C86.4078 33.3227 86.7812 33.164 87.2105 33.164C87.6212 33.164 87.9758 33.3227 88.2745 33.64C88.5918 33.9573 88.7505 34.3213 88.7505 34.732C88.7505 35.1613 88.5918 35.5253 88.2745 35.824C87.9758 36.1227 87.6212 36.272 87.2105 36.272ZM110.189 30.14C108.603 30.14 107.389 29.972 106.549 29.636C105.728 29.2813 105.149 28.7493 104.813 28.04C104.496 27.312 104.319 26.3787 104.281 25.24L103.721 9.868H106.493L107.081 24.064C107.119 24.96 107.203 25.6507 107.333 26.136C107.483 26.6027 107.791 26.9293 108.257 27.116C108.724 27.284 109.461 27.368 110.469 27.368C110.936 27.368 111.281 27.4987 111.505 27.76C111.729 28.0213 111.841 28.3293 111.841 28.684C111.841 29.076 111.683 29.4213 111.365 29.72C111.067 30 110.675 30.14 110.189 30.14ZM110.484 30.14L110.764 27.368C111.362 27.368 111.847 27.3213 112.22 27.228C112.612 27.1347 112.93 26.92 113.172 26.584C113.434 26.2293 113.667 25.6787 113.872 24.932C114.096 24.1667 114.348 23.1307 114.628 21.824L117.176 22.44C117.083 22.9067 116.962 23.4573 116.812 24.092C116.682 24.7267 116.616 25.3053 116.616 25.828C116.616 26.2947 116.784 26.668 117.12 26.948C117.475 27.228 118.119 27.368 119.052 27.368C119.575 27.368 120.014 27.3213 120.368 27.228C120.723 27.1347 121.022 26.9107 121.264 26.556C121.507 26.1827 121.722 25.6133 121.908 24.848C122.095 24.064 122.291 22.9907 122.496 21.628L125.1 22.076C125.026 22.4307 124.951 22.8507 124.876 23.336C124.802 23.8213 124.736 24.2973 124.68 24.764C124.624 25.2307 124.596 25.6133 124.596 25.912C124.596 26.1733 124.652 26.416 124.764 26.64C124.895 26.864 125.138 27.0413 125.492 27.172C125.866 27.3027 126.416 27.368 127.144 27.368C128.059 27.368 128.722 27.1813 129.132 26.808C129.543 26.416 129.748 25.828 129.748 25.044C129.748 24.3907 129.73 23.6813 129.692 22.916C129.655 22.132 129.562 21.152 129.412 19.976L131.904 19.808C132.016 21.3387 132.147 22.5987 132.296 23.588C132.464 24.5773 132.679 25.352 132.94 25.912C133.22 26.4533 133.594 26.836 134.06 27.06C134.546 27.2653 135.18 27.368 135.964 27.368C136.45 27.368 136.795 27.4987 137 27.76C137.224 28.0213 137.336 28.3293 137.336 28.684C137.336 29.076 137.187 29.4213 136.888 29.72C136.59 30 136.188 30.14 135.684 30.14C134.658 30.14 133.762 29.9253 132.996 29.496C132.231 29.048 131.662 28.404 131.288 27.564C130.896 28.5907 130.318 29.2813 129.552 29.636C128.787 29.972 127.9 30.14 126.892 30.14C125.94 30.14 125.156 30 124.54 29.72C123.924 29.44 123.486 28.992 123.224 28.376C122.758 29.1227 122.188 29.608 121.516 29.832C120.844 30.0373 119.92 30.14 118.744 30.14C118.315 30.14 117.876 30.0933 117.428 30C116.98 29.9067 116.56 29.7293 116.168 29.468C115.776 29.188 115.459 28.7773 115.216 28.236C114.694 29.0573 114.04 29.58 113.256 29.804C112.491 30.028 111.567 30.14 110.484 30.14ZM135.995 30.14L136.275 27.368C137.134 27.368 137.815 27.3027 138.319 27.172C138.823 27.0227 139.215 26.752 139.495 26.36C139.794 25.9493 140.037 25.3613 140.223 24.596C140.429 23.8307 140.643 22.8133 140.867 21.544L143.499 22.02C143.387 22.5053 143.266 23.0653 143.135 23.7C143.023 24.3347 142.967 24.8853 142.967 25.352C142.967 25.7627 143.033 26.1173 143.163 26.416C143.313 26.7147 143.667 26.948 144.227 27.116C144.787 27.284 145.721 27.368 147.027 27.368C147.513 27.368 147.858 27.4987 148.063 27.76C148.269 28.0213 148.371 28.3293 148.371 28.684C148.371 29.076 148.222 29.4213 147.923 29.72C147.625 30 147.233 30.14 146.747 30.14C145.086 30.14 143.873 29.9813 143.107 29.664C142.361 29.3467 141.857 28.8427 141.595 28.152C140.979 28.992 140.223 29.5333 139.327 29.776C138.431 30.0187 137.321 30.14 135.995 30.14ZM143.919 18.772C143.49 18.772 143.117 18.6227 142.799 18.324C142.501 18.0067 142.351 17.6427 142.351 17.232C142.351 16.8213 142.501 16.4573 142.799 16.14C143.117 15.8227 143.49 15.664 143.919 15.664C144.33 15.664 144.685 15.8227 144.983 16.14C145.301 16.4573 145.459 16.8213 145.459 17.232C145.459 17.6427 145.301 18.0067 144.983 18.324C144.685 18.6227 144.33 18.772 143.919 18.772ZM139.775 18.772C139.346 18.772 138.982 18.6227 138.683 18.324C138.385 18.0067 138.235 17.6427 138.235 17.232C138.235 16.8027 138.385 16.4387 138.683 16.14C138.982 15.8227 139.346 15.664 139.775 15.664C140.186 15.664 140.541 15.8227 140.839 16.14C141.157 16.4387 141.315 16.8027 141.315 17.232C141.315 17.6427 141.157 18.0067 140.839 18.324C140.541 18.6227 140.186 18.772 139.775 18.772ZM147.041 30.14L147.293 27.368C149.253 27.368 151.148 27.1067 152.977 26.584C154.807 26.0427 156.468 25.2587 157.961 24.232C157.215 23.6347 156.309 23.1587 155.245 22.804C154.2 22.4307 153.052 22.244 151.801 22.244C150.943 22.244 150.056 22.3467 149.141 22.552L148.665 19.92C149.188 19.7707 149.711 19.6587 150.233 19.584C150.756 19.5093 151.26 19.472 151.745 19.472C152.977 19.472 154.069 19.6493 155.021 20.004C155.973 20.34 156.832 20.732 157.597 21.18C158.363 21.6093 159.091 22.0013 159.781 22.356C160.472 22.692 161.172 22.86 161.881 22.86H162.609L162.861 25.38C161.891 25.3987 161.004 25.576 160.201 25.912C159.417 26.2293 158.624 26.6213 157.821 27.088C157.037 27.5547 156.151 28.0213 155.161 28.488C154.191 28.9547 153.052 29.3467 151.745 29.664C150.439 29.9813 148.871 30.14 147.041 30.14ZM151.773 16.644C151.325 16.644 150.943 16.4947 150.625 16.196C150.327 15.8973 150.177 15.524 150.177 15.076C150.177 14.6467 150.327 14.2733 150.625 13.956C150.943 13.6387 151.325 13.48 151.773 13.48C152.203 13.48 152.567 13.6387 152.865 13.956C153.183 14.2733 153.341 14.6467 153.341 15.076C153.341 15.524 153.183 15.8973 152.865 16.196C152.567 16.4947 152.203 16.644 151.773 16.644ZM165.138 28.768L166.342 26.36C166.808 26.64 167.368 26.8827 168.022 27.088C168.694 27.2747 169.431 27.368 170.234 27.368C171.503 27.368 172.418 27.1813 172.978 26.808C173.538 26.416 173.818 25.884 173.818 25.212C173.818 24.8573 173.734 24.4093 173.566 23.868C173.398 23.308 173.052 22.5613 172.53 21.628C172.007 20.6947 171.223 19.4907 170.178 18.016L172.502 16.476C173.939 18.492 174.984 20.2653 175.638 21.796C176.31 23.308 176.646 24.5493 176.646 25.52C176.646 26.3413 176.44 27.1067 176.03 27.816C175.619 28.5253 174.947 29.0947 174.014 29.524C173.099 29.9533 171.886 30.168 170.374 30.168C169.403 30.168 168.451 30.0467 167.518 29.804C166.584 29.5613 165.791 29.216 165.138 28.768ZM186.529 30.14C184.942 30.14 183.729 29.972 182.889 29.636C182.068 29.2813 181.489 28.7493 181.153 28.04C180.836 27.312 180.658 26.3787 180.621 25.24L180.061 9.868H182.833L183.421 24.064C183.458 24.96 183.542 25.6507 183.673 26.136C183.822 26.6027 184.13 26.9293 184.597 27.116C185.064 27.284 185.801 27.368 186.809 27.368C187.276 27.368 187.621 27.4987 187.845 27.76C188.069 28.0213 188.181 28.3293 188.181 28.684C188.181 29.076 188.022 29.4213 187.705 29.72C187.406 30 187.014 30.14 186.529 30.14ZM186.824 30.14L187.104 27.368C187.59 27.368 188 27.256 188.336 27.032C188.691 26.808 189.027 26.4347 189.344 25.912C189.68 25.3893 190.063 24.6893 190.492 23.812C191.034 22.6547 191.584 21.768 192.144 21.152C192.704 20.5173 193.264 20.088 193.824 19.864C194.384 19.6213 194.944 19.5 195.504 19.5C196.419 19.5 197.24 19.7893 197.968 20.368C198.715 20.9467 199.303 21.684 199.732 22.58C200.18 23.4573 200.404 24.3533 200.404 25.268C200.404 26.3507 200.199 27.2467 199.788 27.956C199.396 28.6467 198.874 29.16 198.22 29.496C197.567 29.832 196.876 30 196.148 30C195.551 30 194.823 29.9067 193.964 29.72C193.106 29.5147 192.098 29.048 190.94 28.32C190.343 29.104 189.727 29.608 189.092 29.832C188.458 30.0373 187.702 30.14 186.824 30.14ZM192.368 25.772C192.312 25.884 192.266 25.9867 192.228 26.08C192.975 26.5093 193.647 26.808 194.244 26.976C194.86 27.144 195.383 27.228 195.812 27.228C196.54 27.228 197.063 27.0787 197.38 26.78C197.698 26.4627 197.856 26.0427 197.856 25.52C197.856 25.0347 197.735 24.54 197.492 24.036C197.268 23.532 196.96 23.112 196.568 22.776C196.195 22.44 195.794 22.272 195.364 22.272C194.823 22.272 194.338 22.524 193.908 23.028C193.479 23.532 192.966 24.4467 192.368 25.772Z" fill="white"/>
<g id="GPay Logo (Dark)">
<g id="GPay">
<g id="Pay">
<path id="Fill 1" fill-rule="evenodd" clip-rule="evenodd" d="M252.529 9.34665V17.5128H257.565C258.765 17.5128 259.757 17.1096 260.541 16.3032C261.347 15.4988 261.75 14.5394 261.75 13.4288C261.75 12.3406 261.347 11.3924 260.541 10.586C259.757 9.75916 258.765 9.34479 257.565 9.34479H252.529V9.34665ZM252.529 20.3872V29.8599H249.521V6.47218H257.499C259.527 6.47218 261.248 7.14787 262.666 8.49738C264.105 9.84688 264.824 11.4913 264.824 13.4288C264.824 15.411 264.105 17.0667 262.666 18.3938C261.27 19.7227 259.547 20.3854 257.499 20.3854H252.529V20.3872Z" fill="white"/>
<path id="Fill 3" fill-rule="evenodd" clip-rule="evenodd" d="M267.864 24.9602C267.864 25.7442 268.197 26.3975 268.862 26.9201C269.527 27.4427 270.306 27.704 271.2 27.704C272.465 27.704 273.591 27.2354 274.584 26.3004C275.576 25.3634 276.071 24.264 276.071 23.0022C275.133 22.2612 273.825 21.8916 272.147 21.8916C270.925 21.8916 269.907 22.1866 269.09 22.7745C268.273 23.3623 267.864 24.0886 267.864 24.9602ZM271.756 13.3317C273.98 13.3317 275.735 13.9253 277.022 15.1124C278.308 16.2995 278.95 17.9271 278.95 19.9952V29.8599H276.073V27.6387H275.942C274.699 29.4677 273.042 30.3825 270.972 30.3825C269.206 30.3825 267.728 29.8599 266.541 28.8146C265.353 27.7694 264.759 26.4628 264.759 24.8949C264.759 23.2393 265.385 21.9232 266.638 20.9434C267.892 19.9635 269.565 19.4726 271.658 19.4726C273.444 19.4726 274.916 19.7993 276.071 20.4525V19.7657C276.071 18.7204 275.656 17.8338 274.829 17.104C273.999 16.3742 273.031 16.0102 271.919 16.0102C270.239 16.0102 268.911 16.7176 267.93 18.1343L265.28 16.4675C266.741 14.377 268.899 13.3317 271.756 13.3317Z" fill="white"/>
<path id="Fill 5" fill-rule="evenodd" clip-rule="evenodd" d="M295.463 13.8543L285.424 36.9154H282.318L286.046 28.8464L279.44 13.8543H282.71L287.484 25.3522H287.55L292.193 13.8543H295.463Z" fill="white"/>
</g>
<g id="G">
<path id="Fill 8" fill-rule="evenodd" clip-rule="evenodd" d="M240.373 18.3452C240.373 17.3989 240.293 16.4861 240.141 15.6126H227.454V20.7885H234.72C234.408 22.4757 233.465 23.9112 232.033 24.8725V28.2341H236.37C238.91 25.8935 240.373 22.4348 240.373 18.3452Z" fill="#4285F4"/>
<path id="Fill 10" fill-rule="evenodd" clip-rule="evenodd" d="M227.454 31.4782C231.084 31.4782 234.141 30.2873 236.37 28.2341L232.033 24.8725C230.826 25.6844 229.272 26.1585 227.454 26.1585C223.944 26.1585 220.966 23.7955 219.901 20.6112H215.433V24.0736C217.647 28.4637 222.197 31.4782 227.454 31.4782Z" fill="#34A853"/>
<path id="Fill 12" fill-rule="evenodd" clip-rule="evenodd" d="M219.901 20.6111C219.628 19.7992 219.479 18.9331 219.479 18.0391C219.479 17.145 219.628 16.2789 219.901 15.467V12.0045H215.433C214.518 13.8188 214 15.8683 214 18.0391C214 20.2098 214.518 22.2595 215.433 24.0736L219.901 20.6111Z" fill="#FABB05"/>
<path id="Fill 14" fill-rule="evenodd" clip-rule="evenodd" d="M227.454 9.91964C229.436 9.91964 231.213 10.6009 232.615 11.9355V11.9374L236.455 8.10163C234.123 5.93272 231.082 4.60001 227.454 4.60001C222.197 4.60001 217.647 7.61447 215.433 12.0046L219.901 15.467C220.966 12.2827 223.944 9.91964 227.454 9.91964Z" fill="#E94235"/>
</g>
</g>
</g>
</g>
</svg>
