<svg width="160" height="21" viewBox="0 0 160 21" fill="none" xmlns="http://www.w3.org/2000/svg">
<g id="ar_order_with_Pay_NBG">
<g id="GPay (Dark)">
<g id="GPay">
<g id="Pay">
<path id="Fill 1" fill-rule="evenodd" clip-rule="evenodd" d="M22.3563 3.42339V8.16175H25.2784C25.9745 8.16175 26.5501 7.92781 27.0055 7.45993C27.4728 6.99313 27.707 6.43644 27.707 5.79203C27.707 5.16061 27.4728 4.61041 27.0055 4.14254C26.5501 3.66274 25.9745 3.4223 25.2784 3.4223H22.3563V3.42339ZM22.3563 9.82966V15.3262H20.6107V1.75549H25.2404C26.4169 1.75549 27.4154 2.14756 28.2383 2.93061C29.0732 3.71365 29.4906 4.66782 29.4906 5.79203C29.4906 6.94224 29.0731 7.90291 28.2383 8.67296C27.4283 9.44409 26.4287 9.82858 25.2404 9.82858H22.3563V9.82966Z" fill="white"/>
<path id="Fill 3" fill-rule="evenodd" clip-rule="evenodd" d="M31.2546 12.4831C31.2546 12.9379 31.4476 13.317 31.8337 13.6203C32.2195 13.9235 32.6717 14.0752 33.19 14.0752C33.9239 14.0752 34.5777 13.8032 35.1535 13.2607C35.7293 12.717 36.0165 12.0791 36.0165 11.3469C35.4722 10.917 34.7133 10.7025 33.7396 10.7025C33.0306 10.7025 32.4397 10.8736 31.9659 11.2148C31.492 11.5559 31.2546 11.9773 31.2546 12.4831M33.513 5.73566C34.8033 5.73566 35.8214 6.08007 36.5685 6.76889C37.3145 7.45771 37.6873 8.40213 37.6873 9.60216V15.3261H36.0177V14.0373H35.9417C35.2207 15.0985 34.259 15.6294 33.0578 15.6294C32.0332 15.6294 31.1755 15.3261 30.4869 14.7196C29.7975 14.1131 29.4527 13.3549 29.4527 12.4452C29.4527 11.4845 29.8158 10.7208 30.5433 10.1523C31.2708 9.58375 32.2413 9.2989 33.4557 9.2989C34.4921 9.2989 35.3465 9.48844 36.0165 9.86751V9.46894C36.0165 8.86243 35.7758 8.34798 35.2956 7.92451C34.8141 7.50103 34.2525 7.28984 33.6074 7.28984C32.6326 7.28984 31.8618 7.70032 31.2926 8.52235L29.7551 7.55519C30.6029 6.34217 31.8552 5.73566 33.513 5.73566" fill="white"/>
<path id="Fill 5" fill-rule="evenodd" clip-rule="evenodd" d="M47.2687 6.03894L41.4432 19.4201H39.6411L41.8043 14.738L37.9714 6.03894H39.8688L42.639 12.7106H42.677L45.3713 6.03894H47.2687Z" fill="white"/>
</g>
<g id="G">
<path id="Fill 8" fill-rule="evenodd" clip-rule="evenodd" d="M15.3029 8.64473C15.3029 8.09563 15.2562 7.56601 15.1684 7.05914H7.80648V10.0625H12.0231C11.842 11.0414 11.2945 11.8744 10.4639 12.4322V14.3828H12.9804C14.4539 13.0246 15.3029 11.0177 15.3029 8.64473" fill="#4285F4"/>
<path id="Fill 10" fill-rule="evenodd" clip-rule="evenodd" d="M7.80646 16.2651C9.91313 16.2651 11.6869 15.5741 12.9804 14.3828L10.4639 12.4322C9.7635 12.9033 8.86142 13.1784 7.80646 13.1784C5.77028 13.1784 4.04201 11.8073 3.424 9.95959H0.831596V11.9687C2.11641 14.516 4.75652 16.2651 7.80646 16.2651" fill="#34A853"/>
<path id="Fill 12" fill-rule="evenodd" clip-rule="evenodd" d="M3.42401 9.9596C3.26571 9.48847 3.17897 8.98593 3.17897 8.46715C3.17897 7.94837 3.26571 7.44583 3.42401 6.9747V4.96564H0.831606C0.300332 6.01837 0 7.20756 0 8.46715C0 9.72674 0.300332 10.916 0.831606 11.9687L3.42401 9.9596Z" fill="#FABB05"/>
<path id="Fill 14" fill-rule="evenodd" clip-rule="evenodd" d="M7.80646 3.75583C8.95683 3.75583 9.98794 4.15115 10.8011 4.92553V4.92661L13.0292 2.70094C11.6761 1.44243 9.91204 0.669128 7.80646 0.669128C4.75652 0.669128 2.11641 2.41826 0.831596 4.9656L3.424 6.97467C4.04201 5.12698 5.77028 3.75583 7.80646 3.75583" fill="#E94235"/>
</g>
</g>
</g>
<path id="Right Text" d="M55.8059 21.2886C55.6139 20.5953 55.4539 19.9073 55.3259 19.2246C55.1979 18.5526 55.1019 17.9339 55.0379 17.3686C54.9739 16.8033 54.9419 16.3393 54.9419 15.9766C54.9419 15.3259 55.0592 14.7873 55.2939 14.3606C55.5285 13.9233 55.8432 13.5873 56.2379 13.3526C56.6325 13.1073 57.0699 12.9419 57.5499 12.8566C58.0405 12.7713 58.5419 12.7446 59.0539 12.7766C59.5765 12.7979 60.0672 12.8619 60.5259 12.9686C60.5579 12.4886 60.5099 12.0353 60.3819 11.6086C60.2539 11.1819 60.0512 10.8406 59.7739 10.5846C59.4965 10.3179 59.1552 10.1846 58.7499 10.1846C57.9712 10.1846 57.2992 10.7179 56.7339 11.7846L55.7419 11.2406C56.1472 10.3766 56.6219 9.76861 57.1659 9.41661C57.7205 9.06461 58.2752 8.88861 58.8299 8.88861C59.3739 8.88861 59.8325 9.00594 60.2059 9.24061C60.5792 9.46461 60.8725 9.76328 61.0859 10.1366C61.3099 10.4993 61.4699 10.8939 61.5659 11.3206C61.6725 11.7366 61.7259 12.1366 61.7259 12.5206C61.7259 12.9153 61.6565 13.3099 61.5179 13.7046C61.3792 14.0886 61.2512 14.3659 61.1339 14.5366C60.1632 14.2486 59.3099 14.0993 58.5739 14.0886C57.8485 14.0673 57.2779 14.2166 56.8619 14.5366C56.4565 14.8459 56.2539 15.3526 56.2539 16.0566C56.2539 16.4619 56.2859 16.9313 56.3499 17.4646C56.4139 18.0086 56.5045 18.5793 56.6219 19.1766C56.7392 19.7846 56.8779 20.3819 57.0379 20.9686L55.8059 21.2886ZM63.9939 15.0006L63.6739 3.57661H64.9699L65.2899 15.0006H63.9939ZM69.9244 13.7686C70.7137 13.7686 71.2737 13.6513 71.6044 13.4166C71.935 13.1713 72.1004 12.8353 72.1004 12.4086C72.1004 12.1313 72.0044 11.7739 71.8124 11.3366C71.6204 10.8993 71.3644 10.4139 71.0444 9.88061C70.735 9.33661 70.3884 8.78194 70.0044 8.21661L71.1084 7.49661C71.727 8.44594 72.2284 9.31528 72.6124 10.1046C73.007 10.8833 73.3004 11.5873 73.4924 12.2166C73.6417 12.6859 73.807 13.0326 73.9884 13.2566C74.1804 13.4806 74.3777 13.6246 74.5804 13.6886C74.783 13.7419 74.9697 13.7686 75.1404 13.7686C75.3644 13.7686 75.5297 13.8326 75.6364 13.9606C75.743 14.0779 75.7964 14.2219 75.7964 14.3926C75.7964 14.5633 75.7217 14.7233 75.5724 14.8726C75.423 15.0113 75.231 15.0806 74.9964 15.0806C74.5804 15.0806 74.1804 14.9899 73.7964 14.8086C73.4124 14.6273 73.103 14.3179 72.8684 13.8806C72.655 14.2326 72.3137 14.5259 71.8444 14.7606C71.3857 14.9846 70.7457 15.0966 69.9244 15.0966C69.3377 15.0966 68.7937 15.0273 68.2924 14.8886C67.791 14.7393 67.375 14.5366 67.0444 14.2806L67.6844 13.1766C67.8977 13.3259 68.1964 13.4646 68.5804 13.5926C68.9644 13.7099 69.4124 13.7686 69.9244 13.7686ZM75.15 15.0806L75.294 13.7686C76.3927 13.7686 77.4593 13.6086 78.494 13.2886C79.5287 12.9579 80.4727 12.4939 81.326 11.8966C80.91 11.5339 80.398 11.2406 79.79 11.0166C79.1927 10.7926 78.5313 10.6806 77.806 10.6806C77.5393 10.6806 77.3047 10.6966 77.102 10.7286C76.8993 10.7499 76.654 10.7926 76.366 10.8566L76.11 9.64061C76.7073 9.45928 77.2727 9.36861 77.806 9.36861C78.3607 9.36861 78.862 9.43794 79.31 9.57661C79.758 9.70461 80.1633 9.86461 80.526 10.0566C80.8993 10.2486 81.246 10.4406 81.566 10.6326C81.8967 10.8246 82.2167 10.9899 82.526 11.1286C82.8353 11.2566 83.1553 11.3206 83.486 11.3206H83.822L83.934 12.4726C83.6033 12.4726 83.2833 12.5099 82.974 12.5846C83.1767 13.0646 83.4647 13.3846 83.838 13.5446C84.2113 13.6939 84.766 13.7686 85.502 13.7686C85.726 13.7686 85.886 13.8326 85.982 13.9606C86.0887 14.0779 86.142 14.2219 86.142 14.3926C86.142 14.5633 86.0673 14.7233 85.918 14.8726C85.7687 15.0113 85.5767 15.0806 85.342 15.0806C84.766 15.0806 84.2487 15.0326 83.79 14.9366C83.342 14.8299 82.958 14.6273 82.638 14.3286C82.318 14.0193 82.0833 13.5606 81.934 12.9526C81.5287 13.1446 81.1127 13.3633 80.686 13.6086C80.27 13.8433 79.806 14.0726 79.294 14.2966C78.782 14.5206 78.19 14.7073 77.518 14.8566C76.846 15.0059 76.0567 15.0806 75.15 15.0806ZM77.662 7.72061C77.438 7.72061 77.246 7.64594 77.086 7.49661C76.9367 7.33661 76.862 7.14994 76.862 6.93661C76.862 6.72328 76.9367 6.53661 77.086 6.37661C77.246 6.21661 77.438 6.13661 77.662 6.13661C77.8753 6.13661 78.0567 6.21661 78.206 6.37661C78.366 6.53661 78.446 6.72328 78.446 6.93661C78.446 7.14994 78.366 7.33661 78.206 7.49661C78.0567 7.64594 77.8753 7.72061 77.662 7.72061ZM85.4875 15.0806L85.6475 13.7686C86.1808 13.7686 86.5968 13.7313 86.8955 13.6566C87.1942 13.5713 87.4182 13.4166 87.5675 13.1926C87.7275 12.9579 87.8555 12.6219 87.9515 12.1846C88.0475 11.7473 88.1648 11.1766 88.3035 10.4726L89.5515 10.7126C89.4875 11.0006 89.4128 11.3313 89.3275 11.7046C89.2528 12.0779 89.2155 12.3926 89.2155 12.6486C89.2155 12.8086 89.2262 12.9579 89.2475 13.0966C89.2688 13.2353 89.3488 13.3526 89.4875 13.4486C89.6262 13.5446 89.8608 13.6246 90.1915 13.6886C90.5222 13.7419 90.9968 13.7686 91.6155 13.7686C91.8395 13.7686 91.9995 13.8326 92.0955 13.9606C92.2022 14.0779 92.2555 14.2219 92.2555 14.3926C92.2555 14.5633 92.1808 14.7233 92.0315 14.8726C91.8822 15.0113 91.6902 15.0806 91.4555 15.0806C90.7622 15.0806 90.2182 15.0433 89.8235 14.9686C89.4395 14.8833 89.1515 14.7659 88.9595 14.6166C88.7782 14.4566 88.6448 14.2593 88.5595 14.0246C88.2502 14.4619 87.8662 14.7499 87.4075 14.8886C86.9595 15.0166 86.3195 15.0806 85.4875 15.0806ZM89.7595 8.82461C89.5355 8.82461 89.3435 8.74994 89.1835 8.60061C89.0342 8.44061 88.9595 8.25394 88.9595 8.04061C88.9595 7.82728 89.0342 7.64061 89.1835 7.48061C89.3435 7.32061 89.5355 7.24061 89.7595 7.24061C89.9728 7.24061 90.1542 7.32061 90.3035 7.48061C90.4635 7.64061 90.5435 7.82728 90.5435 8.04061C90.5435 8.25394 90.4635 8.44061 90.3035 8.60061C90.1542 8.74994 89.9728 8.82461 89.7595 8.82461ZM87.5675 8.82461C87.3435 8.82461 87.1515 8.74994 86.9915 8.60061C86.8422 8.44061 86.7675 8.25394 86.7675 8.04061C86.7675 7.82728 86.8422 7.64061 86.9915 7.48061C87.1515 7.32061 87.3435 7.24061 87.5675 7.24061C87.7808 7.24061 87.9622 7.32061 88.1115 7.48061C88.2715 7.64061 88.3515 7.82728 88.3515 8.04061C88.3515 8.25394 88.2715 8.44061 88.1115 8.60061C87.9622 8.74994 87.7808 8.82461 87.5675 8.82461ZM91.6062 15.0806L91.7662 13.7686C92.1076 13.7686 92.3849 13.7473 92.5982 13.7046C92.8116 13.6513 92.9876 13.5286 93.1262 13.3366C93.2756 13.1339 93.4142 12.8193 93.5422 12.3926C93.6702 11.9659 93.8196 11.3686 93.9902 10.6006L95.1902 10.9366C95.1262 11.2139 95.0516 11.5393 94.9662 11.9126C94.8809 12.2859 94.8382 12.6219 94.8382 12.9206C94.8382 13.1873 94.9396 13.3953 95.1422 13.5446C95.3449 13.6939 95.7129 13.7686 96.2462 13.7686C96.5662 13.7686 96.8276 13.7419 97.0302 13.6886C97.2329 13.6353 97.3982 13.5073 97.5262 13.3046C97.6649 13.1019 97.7876 12.7819 97.8942 12.3446C98.0009 11.8966 98.1129 11.2779 98.2302 10.4886L99.4462 10.7126C99.4142 10.9046 99.3716 11.1393 99.3182 11.4166C99.2756 11.6939 99.2382 11.9713 99.2062 12.2486C99.1742 12.5153 99.1582 12.7393 99.1582 12.9206C99.1582 13.0699 99.1902 13.2139 99.2542 13.3526C99.3289 13.4806 99.4676 13.5819 99.6702 13.6566C99.8836 13.7313 100.198 13.7686 100.614 13.7686C101.073 13.7686 101.441 13.6779 101.718 13.4966C101.996 13.3153 102.134 12.9473 102.134 12.3926C102.134 11.9979 102.038 11.4913 101.846 10.8726C101.665 10.2539 101.457 9.64061 101.222 9.03261L102.518 8.55261C102.646 8.90461 102.774 9.29928 102.902 9.73661C103.03 10.1633 103.137 10.5899 103.222 11.0166C103.308 11.4433 103.35 11.8166 103.35 12.1366C103.35 13.1286 103.105 13.8699 102.614 14.3606C102.124 14.8406 101.452 15.0806 100.598 15.0806C100.012 15.0806 99.5476 15.0059 99.2062 14.8566C98.8756 14.6966 98.6356 14.4513 98.4862 14.1206C98.2302 14.5153 97.9209 14.7766 97.5582 14.9046C97.2062 15.0219 96.7049 15.0806 96.0542 15.0806C95.8302 15.0806 95.5902 15.0539 95.3342 15.0006C95.0889 14.9473 94.8596 14.8459 94.6462 14.6966C94.4329 14.5366 94.2676 14.3019 94.1502 13.9926C93.8729 14.4619 93.5262 14.7606 93.1102 14.8886C92.7049 15.0166 92.2036 15.0806 91.6062 15.0806ZM108.959 15.0806C108.095 15.0806 107.439 14.9846 106.991 14.7926C106.543 14.6006 106.234 14.3019 106.063 13.8966C105.892 13.4913 105.796 12.9686 105.775 12.3286L105.455 3.57661H106.767L107.087 11.8166C107.108 12.3393 107.156 12.7446 107.231 13.0326C107.316 13.3099 107.498 13.5019 107.775 13.6086C108.063 13.7153 108.511 13.7686 109.119 13.7686C109.343 13.7686 109.503 13.8326 109.599 13.9606C109.706 14.0779 109.759 14.2219 109.759 14.3926C109.759 14.5633 109.684 14.7233 109.535 14.8726C109.386 15.0113 109.194 15.0806 108.959 15.0806ZM109.109 15.0806L109.269 13.7686C109.781 13.7686 110.192 13.7366 110.501 13.6726C110.821 13.6086 111.051 13.4806 111.189 13.2886C111.328 13.0859 111.397 12.7873 111.397 12.3926C111.397 11.9979 111.301 11.4913 111.109 10.8726C110.928 10.2539 110.72 9.64061 110.485 9.03261L111.781 8.55261C111.92 8.90461 112.048 9.29928 112.165 9.73661C112.293 10.1633 112.4 10.5899 112.485 11.0166C112.571 11.4433 112.613 11.8166 112.613 12.1366C112.613 13.2139 112.325 13.9766 111.749 14.4246C111.184 14.8619 110.304 15.0806 109.109 15.0806ZM110.821 18.0566C110.597 18.0566 110.405 17.9766 110.245 17.8166C110.096 17.6673 110.021 17.4859 110.021 17.2726C110.021 17.0593 110.096 16.8726 110.245 16.7126C110.405 16.5526 110.597 16.4726 110.821 16.4726C111.035 16.4726 111.216 16.5526 111.365 16.7126C111.525 16.8726 111.605 17.0593 111.605 17.2726C111.605 17.4859 111.525 17.6673 111.365 17.8166C111.216 17.9766 111.035 18.0566 110.821 18.0566ZM123.681 15.3366C121.782 15.3366 120.347 15.0913 119.377 14.6006C118.406 14.0993 117.921 13.2619 117.921 12.0886C117.921 11.6939 117.969 11.2779 118.065 10.8406C118.161 10.3926 118.262 9.97128 118.369 9.57661L119.569 9.88061C119.505 10.1153 119.43 10.4139 119.345 10.7766C119.27 11.1393 119.233 11.4539 119.233 11.7206C119.233 12.2753 119.371 12.7233 119.649 13.0646C119.937 13.3953 120.433 13.6406 121.137 13.8006C121.841 13.9499 122.827 14.0246 124.097 14.0246C124.747 14.0246 125.435 13.9873 126.161 13.9126C126.886 13.8273 127.606 13.6833 128.321 13.4806C129.046 13.2673 129.734 12.9846 130.385 12.6326C131.035 12.2699 131.606 11.8059 132.097 11.2406L133.105 11.8326C133.009 12.0779 132.945 12.2753 132.913 12.4246C132.881 12.5633 132.865 12.6913 132.865 12.8086C132.865 12.9686 132.923 13.1233 133.041 13.2726C133.158 13.4219 133.377 13.5446 133.697 13.6406C134.017 13.7259 134.481 13.7686 135.089 13.7686C135.313 13.7686 135.473 13.8326 135.569 13.9606C135.675 14.0779 135.729 14.2219 135.729 14.3926C135.729 14.5633 135.654 14.7233 135.505 14.8726C135.355 15.0113 135.163 15.0806 134.929 15.0806C133.99 15.0806 133.217 14.9419 132.609 14.6646C132.011 14.3873 131.707 13.9339 131.697 13.3046C130.811 13.9873 129.665 14.4993 128.257 14.8406C126.849 15.1713 125.323 15.3366 123.681 15.3366ZM124.849 18.3766C124.625 18.3766 124.433 18.2966 124.273 18.1366C124.123 17.9873 124.049 17.8059 124.049 17.5926C124.049 17.3793 124.123 17.1926 124.273 17.0326C124.433 16.8726 124.625 16.7926 124.849 16.7926C125.062 16.7926 125.243 16.8726 125.393 17.0326C125.553 17.1926 125.633 17.3793 125.633 17.5926C125.633 17.8059 125.553 17.9873 125.393 18.1366C125.243 18.2966 125.062 18.3766 124.849 18.3766ZM135.075 15.0806L135.219 13.7686C135.827 13.7686 136.254 13.7099 136.499 13.5926C136.744 13.4753 136.883 13.2726 136.915 12.9846C136.958 12.6859 136.968 12.2646 136.947 11.7206L136.675 3.57661H138.003L138.259 11.6886C138.27 12.2326 138.355 12.6593 138.515 12.9686C138.675 13.2673 138.888 13.4753 139.155 13.5926C139.422 13.7099 139.715 13.7686 140.035 13.7686C140.259 13.7686 140.419 13.8326 140.515 13.9606C140.622 14.0779 140.675 14.2219 140.675 14.3926C140.675 14.5633 140.6 14.7233 140.451 14.8726C140.302 15.0113 140.11 15.0806 139.875 15.0806C139.331 15.0806 138.899 14.9793 138.579 14.7766C138.259 14.5633 138.03 14.3073 137.891 14.0086C137.678 14.3606 137.347 14.6273 136.899 14.8086C136.462 14.9899 135.854 15.0806 135.075 15.0806ZM140.022 15.0806L140.182 13.7686H140.982C141.153 13.5019 141.334 13.2406 141.526 12.9846L141.222 3.57661H142.518L142.806 11.4806C143.457 10.8193 144.166 10.2593 144.934 9.80061C145.713 9.33128 146.502 9.09661 147.302 9.09661C147.889 9.09661 148.39 9.21928 148.806 9.46461C149.233 9.69928 149.558 10.0193 149.782 10.4246C150.017 10.8299 150.134 11.2886 150.134 11.8006C150.134 12.3019 149.953 12.8086 149.59 13.3206C149.227 13.8219 148.603 14.2166 147.718 14.5046C147.035 14.7286 146.214 14.8833 145.254 14.9686C144.294 15.0433 143.11 15.0806 141.702 15.0806H140.022ZM147.206 10.4086C146.747 10.4086 146.283 10.5206 145.814 10.7446C145.355 10.9686 144.913 11.2566 144.486 11.6086C144.059 11.9499 143.67 12.3179 143.318 12.7126C142.966 13.0966 142.673 13.4486 142.438 13.7686H143.526C145.382 13.7686 146.742 13.6086 147.606 13.2886C148.47 12.9686 148.902 12.4673 148.902 11.7846C148.902 11.6033 148.843 11.4059 148.726 11.1926C148.609 10.9793 148.422 10.7979 148.166 10.6486C147.921 10.4886 147.601 10.4086 147.206 10.4086ZM151.382 15.0806C151.105 15.0806 150.753 15.0539 150.326 15.0006C149.91 14.9366 149.483 14.8299 149.046 14.6806C148.619 14.5313 148.257 14.3233 147.958 14.0566L149.27 13.4006C149.643 13.5499 150.027 13.6513 150.422 13.7046C150.827 13.7473 151.201 13.7686 151.542 13.7686C151.766 13.7686 151.926 13.8326 152.022 13.9606C152.129 14.0779 152.182 14.2219 152.182 14.3926C152.182 14.5633 152.107 14.7233 151.958 14.8726C151.809 15.0113 151.617 15.0806 151.382 15.0806ZM151.531 15.0806L151.675 13.7686C152.283 13.7686 152.71 13.7099 152.955 13.5926C153.201 13.4753 153.339 13.2726 153.371 12.9846C153.414 12.6859 153.425 12.2646 153.403 11.7206L153.099 3.57661H154.395L154.715 11.5766C154.747 12.3339 154.694 12.9739 154.555 13.4966C154.427 14.0193 154.129 14.4139 153.659 14.6806C153.201 14.9473 152.491 15.0806 151.531 15.0806ZM157.309 15.0006L156.989 3.57661H158.285L158.605 15.0006H157.309Z" fill="white"/>
</g>
</svg>
