<svg width="286" height="38" viewBox="0 0 286 38" fill="none" xmlns="http://www.w3.org/2000/svg">
<g id="ar_order_with_Light">
<path id="Text" d="M4.22365 30.14C3.71965 30.14 3.20632 30.0933 2.68365 30C2.17965 29.9253 1.82498 29.8693 1.61965 29.832L1.98365 27.088C3.55165 27.2933 5.01698 27.2933 6.37965 27.088C7.76098 26.864 8.89032 26.304 9.76765 25.408C9.03965 24.232 7.95698 22.804 6.51965 21.124C5.08232 19.444 3.36498 17.6987 1.36765 15.888L3.15965 13.984C5.30632 16.0187 7.00498 17.7547 8.25565 19.192C9.50632 20.6293 10.4863 21.8613 11.1957 22.888C11.457 22.0667 11.597 21.124 11.6157 20.06L11.2237 9.868H14.0237L14.5837 24.064C14.621 24.96 14.7143 25.6507 14.8637 26.136C15.013 26.6027 15.321 26.9293 15.7877 27.116C16.2543 27.284 16.9823 27.368 17.9717 27.368C18.4383 27.368 18.7837 27.4987 19.0077 27.76C19.2317 28.0213 19.3437 28.3293 19.3437 28.684C19.3437 29.076 19.1943 29.4213 18.8957 29.72C18.597 30 18.1957 30.14 17.6917 30.14C16.329 30.14 15.2463 30.0187 14.4437 29.776C13.641 29.5147 13.0437 29.1227 12.6517 28.6C12.2783 28.0587 12.0357 27.368 11.9237 26.528C11.289 27.592 10.5237 28.3853 9.62765 28.908C8.75032 29.412 7.82632 29.748 6.85565 29.916C5.90365 30.0653 5.02632 30.14 4.22365 30.14ZM17.993 30.14L18.273 27.368H19.673C19.9903 26.864 20.3263 26.3787 20.681 25.912L20.149 9.868H22.921L23.397 22.804C24.517 21.7027 25.721 20.7973 27.009 20.088C28.3156 19.36 29.641 18.996 30.985 18.996C32.0676 18.996 33.001 19.22 33.785 19.668C34.569 20.116 35.1663 20.7227 35.577 21.488C36.0063 22.2347 36.221 23.0933 36.221 24.064C36.221 25.0533 35.8943 26.0053 35.241 26.92C34.6063 27.8347 33.505 28.5627 31.937 29.104C30.7796 29.496 29.4076 29.7667 27.821 29.916C26.253 30.0653 24.265 30.14 21.857 30.14H17.993ZM30.789 21.796C30.0236 21.796 29.2583 21.9733 28.493 22.328C27.7463 22.6827 27.0183 23.14 26.309 23.7C25.6183 24.26 24.9743 24.8667 24.377 25.52C23.7983 26.1547 23.285 26.7707 22.837 27.368H24.237C27.5783 27.368 29.9676 27.0973 31.405 26.556C32.8423 25.996 33.561 25.184 33.561 24.12C33.561 23.784 33.4583 23.4387 33.253 23.084C33.0663 22.7293 32.7676 22.4307 32.357 22.188C31.965 21.9267 31.4423 21.796 30.789 21.796ZM38.293 30.14C37.6583 30.14 36.949 30.084 36.165 29.972C35.3996 29.8413 34.6436 29.6453 33.897 29.384C33.169 29.104 32.553 28.74 32.049 28.292L34.401 26.668C35.073 26.948 35.7543 27.1347 36.445 27.228C37.1543 27.3213 37.8636 27.368 38.573 27.368C39.0583 27.368 39.4036 27.4987 39.609 27.76C39.833 28.0213 39.945 28.3293 39.945 28.684C39.945 29.076 39.7956 29.4213 39.497 29.72C39.1983 30 38.797 30.14 38.293 30.14ZM38.582 30.14L38.834 27.368C39.842 27.368 40.5514 27.2747 40.962 27.088C41.3727 26.8827 41.606 26.528 41.662 26.024C41.7367 25.5013 41.7647 24.764 41.746 23.812L41.27 9.868H44.07L44.546 23.784C44.5834 25.2027 44.8727 26.1547 45.414 26.64C45.9554 27.1253 46.6927 27.368 47.626 27.368C48.0927 27.368 48.438 27.4987 48.662 27.76C48.886 28.0213 48.998 28.3293 48.998 28.684C48.998 29.076 48.8394 29.4213 48.522 29.72C48.2234 30 47.8314 30.14 47.346 30.14C46.394 30.14 45.6007 29.972 44.966 29.636C44.3314 29.3 43.8647 28.8333 43.566 28.236C43.1554 28.908 42.5487 29.3933 41.746 29.692C40.9434 29.9907 39.8887 30.14 38.582 30.14ZM47.6594 30.14L47.9394 27.368C49.246 27.368 50.17 27.228 50.7114 26.948C51.2527 26.668 51.5234 26.0333 51.5234 25.044C51.5234 24.5587 51.4487 23.98 51.2994 23.308C51.15 22.636 50.954 21.936 50.7114 21.208C50.4874 20.4613 50.2447 19.7333 49.9834 19.024L52.7274 18.128C52.97 18.744 53.194 19.444 53.3994 20.228C53.6234 21.012 53.81 21.8053 53.9594 22.608C54.1087 23.392 54.1834 24.1013 54.1834 24.736C54.1834 26.1173 53.922 27.2 53.3994 27.984C52.8954 28.768 52.158 29.328 51.1874 29.664C50.2167 29.9813 49.0407 30.14 47.6594 30.14ZM50.7954 35.712C50.366 35.712 49.9927 35.5627 49.6754 35.264C49.3767 34.9653 49.2274 34.6013 49.2274 34.172C49.2274 33.7613 49.3767 33.3973 49.6754 33.08C49.9927 32.7627 50.366 32.604 50.7954 32.604C51.206 32.604 51.5607 32.7627 51.8594 33.08C52.1767 33.3973 52.3354 33.7613 52.3354 34.172C52.3354 34.6013 52.1767 34.9653 51.8594 35.264C51.5607 35.5627 51.206 35.712 50.7954 35.712ZM74.6625 30.588C71.1345 30.588 68.5305 30.112 66.8505 29.16C65.1705 28.1893 64.3305 26.7147 64.3305 24.736C64.3305 23.9893 64.4145 23.2053 64.5825 22.384C64.7692 21.5627 64.9652 20.8067 65.1705 20.116L67.6625 20.704C67.5505 21.1707 67.4292 21.712 67.2985 22.328C67.1678 22.9253 67.1025 23.4573 67.1025 23.924C67.1025 24.82 67.3452 25.5573 67.8305 26.136C68.3345 26.7147 69.1838 27.144 70.3785 27.424C71.5918 27.6853 73.2625 27.816 75.3905 27.816C79.5345 27.816 82.5678 27.5827 84.4905 27.116C86.4318 26.6493 87.4025 25.8187 87.4025 24.624C87.4025 23.9333 87.2718 23.1213 87.0105 22.188C86.7678 21.236 86.4505 20.2467 86.0585 19.22L88.6625 18.38C89.0172 19.2947 89.3438 20.3027 89.6425 21.404C89.9598 22.4867 90.1185 23.4667 90.1185 24.344C90.1185 25.464 89.8665 26.4253 89.3625 27.228C88.8585 28.012 88.0185 28.656 86.8425 29.16C85.6852 29.6453 84.1078 30 82.1105 30.224C80.1132 30.4667 77.6305 30.588 74.6625 30.588ZM77.2105 36.272C76.7812 36.272 76.4078 36.1227 76.0905 35.824C75.7918 35.5253 75.6425 35.1613 75.6425 34.732C75.6425 34.3213 75.7918 33.9573 76.0905 33.64C76.4078 33.3227 76.7812 33.164 77.2105 33.164C77.6212 33.164 77.9758 33.3227 78.2745 33.64C78.5918 33.9573 78.7505 34.3213 78.7505 34.732C78.7505 35.1613 78.5918 35.5253 78.2745 35.824C77.9758 36.1227 77.6212 36.272 77.2105 36.272ZM100.189 30.14C98.6025 30.14 97.3892 29.972 96.5492 29.636C95.7279 29.2813 95.1492 28.7493 94.8132 28.04C94.4959 27.312 94.3185 26.3787 94.2812 25.24L93.7212 9.868H96.4932L97.0812 24.064C97.1185 24.96 97.2025 25.6507 97.3332 26.136C97.4825 26.6027 97.7905 26.9293 98.2572 27.116C98.7239 27.284 99.4612 27.368 100.469 27.368C100.936 27.368 101.281 27.4987 101.505 27.76C101.729 28.0213 101.841 28.3293 101.841 28.684C101.841 29.076 101.683 29.4213 101.365 29.72C101.067 30 100.675 30.14 100.189 30.14ZM100.484 30.14L100.764 27.368C101.362 27.368 101.847 27.3213 102.22 27.228C102.612 27.1347 102.93 26.92 103.172 26.584C103.434 26.2293 103.667 25.6787 103.872 24.932C104.096 24.1667 104.348 23.1307 104.628 21.824L107.176 22.44C107.083 22.9067 106.962 23.4573 106.812 24.092C106.682 24.7267 106.616 25.3053 106.616 25.828C106.616 26.2947 106.784 26.668 107.12 26.948C107.475 27.228 108.119 27.368 109.052 27.368C109.575 27.368 110.014 27.3213 110.368 27.228C110.723 27.1347 111.022 26.9107 111.264 26.556C111.507 26.1827 111.722 25.6133 111.908 24.848C112.095 24.064 112.291 22.9907 112.496 21.628L115.1 22.076C115.026 22.4307 114.951 22.8507 114.876 23.336C114.802 23.8213 114.736 24.2973 114.68 24.764C114.624 25.2307 114.596 25.6133 114.596 25.912C114.596 26.1733 114.652 26.416 114.764 26.64C114.895 26.864 115.138 27.0413 115.492 27.172C115.866 27.3027 116.416 27.368 117.144 27.368C118.059 27.368 118.722 27.1813 119.132 26.808C119.543 26.416 119.748 25.828 119.748 25.044C119.748 24.3907 119.73 23.6813 119.692 22.916C119.655 22.132 119.562 21.152 119.412 19.976L121.904 19.808C122.016 21.3387 122.147 22.5987 122.296 23.588C122.464 24.5773 122.679 25.352 122.94 25.912C123.22 26.4533 123.594 26.836 124.06 27.06C124.546 27.2653 125.18 27.368 125.964 27.368C126.45 27.368 126.795 27.4987 127 27.76C127.224 28.0213 127.336 28.3293 127.336 28.684C127.336 29.076 127.187 29.4213 126.888 29.72C126.59 30 126.188 30.14 125.684 30.14C124.658 30.14 123.762 29.9253 122.996 29.496C122.231 29.048 121.662 28.404 121.288 27.564C120.896 28.5907 120.318 29.2813 119.552 29.636C118.787 29.972 117.9 30.14 116.892 30.14C115.94 30.14 115.156 30 114.54 29.72C113.924 29.44 113.486 28.992 113.224 28.376C112.758 29.1227 112.188 29.608 111.516 29.832C110.844 30.0373 109.92 30.14 108.744 30.14C108.315 30.14 107.876 30.0933 107.428 30C106.98 29.9067 106.56 29.7293 106.168 29.468C105.776 29.188 105.459 28.7773 105.216 28.236C104.694 29.0573 104.04 29.58 103.256 29.804C102.491 30.028 101.567 30.14 100.484 30.14ZM125.995 30.14L126.275 27.368C127.134 27.368 127.815 27.3027 128.319 27.172C128.823 27.0227 129.215 26.752 129.495 26.36C129.794 25.9493 130.037 25.3613 130.223 24.596C130.429 23.8307 130.643 22.8133 130.867 21.544L133.499 22.02C133.387 22.5053 133.266 23.0653 133.135 23.7C133.023 24.3347 132.967 24.8853 132.967 25.352C132.967 25.7627 133.033 26.1173 133.163 26.416C133.313 26.7147 133.667 26.948 134.227 27.116C134.787 27.284 135.721 27.368 137.027 27.368C137.513 27.368 137.858 27.4987 138.063 27.76C138.269 28.0213 138.371 28.3293 138.371 28.684C138.371 29.076 138.222 29.4213 137.923 29.72C137.625 30 137.233 30.14 136.747 30.14C135.086 30.14 133.873 29.9813 133.107 29.664C132.361 29.3467 131.857 28.8427 131.595 28.152C130.979 28.992 130.223 29.5333 129.327 29.776C128.431 30.0187 127.321 30.14 125.995 30.14ZM133.919 18.772C133.49 18.772 133.117 18.6227 132.799 18.324C132.501 18.0067 132.351 17.6427 132.351 17.232C132.351 16.8213 132.501 16.4573 132.799 16.14C133.117 15.8227 133.49 15.664 133.919 15.664C134.33 15.664 134.685 15.8227 134.983 16.14C135.301 16.4573 135.459 16.8213 135.459 17.232C135.459 17.6427 135.301 18.0067 134.983 18.324C134.685 18.6227 134.33 18.772 133.919 18.772ZM129.775 18.772C129.346 18.772 128.982 18.6227 128.683 18.324C128.385 18.0067 128.235 17.6427 128.235 17.232C128.235 16.8027 128.385 16.4387 128.683 16.14C128.982 15.8227 129.346 15.664 129.775 15.664C130.186 15.664 130.541 15.8227 130.839 16.14C131.157 16.4387 131.315 16.8027 131.315 17.232C131.315 17.6427 131.157 18.0067 130.839 18.324C130.541 18.6227 130.186 18.772 129.775 18.772ZM137.041 30.14L137.293 27.368C139.253 27.368 141.148 27.1067 142.977 26.584C144.807 26.0427 146.468 25.2587 147.961 24.232C147.215 23.6347 146.309 23.1587 145.245 22.804C144.2 22.4307 143.052 22.244 141.801 22.244C140.943 22.244 140.056 22.3467 139.141 22.552L138.665 19.92C139.188 19.7707 139.711 19.6587 140.233 19.584C140.756 19.5093 141.26 19.472 141.745 19.472C142.977 19.472 144.069 19.6493 145.021 20.004C145.973 20.34 146.832 20.732 147.597 21.18C148.363 21.6093 149.091 22.0013 149.781 22.356C150.472 22.692 151.172 22.86 151.881 22.86H152.609L152.861 25.38C151.891 25.3987 151.004 25.576 150.201 25.912C149.417 26.2293 148.624 26.6213 147.821 27.088C147.037 27.5547 146.151 28.0213 145.161 28.488C144.191 28.9547 143.052 29.3467 141.745 29.664C140.439 29.9813 138.871 30.14 137.041 30.14ZM141.773 16.644C141.325 16.644 140.943 16.4947 140.625 16.196C140.327 15.8973 140.177 15.524 140.177 15.076C140.177 14.6467 140.327 14.2733 140.625 13.956C140.943 13.6387 141.325 13.48 141.773 13.48C142.203 13.48 142.567 13.6387 142.865 13.956C143.183 14.2733 143.341 14.6467 143.341 15.076C143.341 15.524 143.183 15.8973 142.865 16.196C142.567 16.4947 142.203 16.644 141.773 16.644ZM155.138 28.768L156.342 26.36C156.808 26.64 157.368 26.8827 158.022 27.088C158.694 27.2747 159.431 27.368 160.234 27.368C161.503 27.368 162.418 27.1813 162.978 26.808C163.538 26.416 163.818 25.884 163.818 25.212C163.818 24.8573 163.734 24.4093 163.566 23.868C163.398 23.308 163.052 22.5613 162.53 21.628C162.007 20.6947 161.223 19.4907 160.178 18.016L162.502 16.476C163.939 18.492 164.984 20.2653 165.638 21.796C166.31 23.308 166.646 24.5493 166.646 25.52C166.646 26.3413 166.44 27.1067 166.03 27.816C165.619 28.5253 164.947 29.0947 164.014 29.524C163.099 29.9533 161.886 30.168 160.374 30.168C159.403 30.168 158.451 30.0467 157.518 29.804C156.584 29.5613 155.791 29.216 155.138 28.768ZM176.529 30.14C174.942 30.14 173.729 29.972 172.889 29.636C172.068 29.2813 171.489 28.7493 171.153 28.04C170.836 27.312 170.658 26.3787 170.621 25.24L170.061 9.868H172.833L173.421 24.064C173.458 24.96 173.542 25.6507 173.673 26.136C173.822 26.6027 174.13 26.9293 174.597 27.116C175.064 27.284 175.801 27.368 176.809 27.368C177.276 27.368 177.621 27.4987 177.845 27.76C178.069 28.0213 178.181 28.3293 178.181 28.684C178.181 29.076 178.022 29.4213 177.705 29.72C177.406 30 177.014 30.14 176.529 30.14ZM176.824 30.14L177.104 27.368C177.59 27.368 178 27.256 178.336 27.032C178.691 26.808 179.027 26.4347 179.344 25.912C179.68 25.3893 180.063 24.6893 180.492 23.812C181.034 22.6547 181.584 21.768 182.144 21.152C182.704 20.5173 183.264 20.088 183.824 19.864C184.384 19.6213 184.944 19.5 185.504 19.5C186.419 19.5 187.24 19.7893 187.968 20.368C188.715 20.9467 189.303 21.684 189.732 22.58C190.18 23.4573 190.404 24.3533 190.404 25.268C190.404 26.3507 190.199 27.2467 189.788 27.956C189.396 28.6467 188.874 29.16 188.22 29.496C187.567 29.832 186.876 30 186.148 30C185.551 30 184.823 29.9067 183.964 29.72C183.106 29.5147 182.098 29.048 180.94 28.32C180.343 29.104 179.727 29.608 179.092 29.832C178.458 30.0373 177.702 30.14 176.824 30.14ZM182.368 25.772C182.312 25.884 182.266 25.9867 182.228 26.08C182.975 26.5093 183.647 26.808 184.244 26.976C184.86 27.144 185.383 27.228 185.812 27.228C186.54 27.228 187.063 27.0787 187.38 26.78C187.698 26.4627 187.856 26.0427 187.856 25.52C187.856 25.0347 187.735 24.54 187.492 24.036C187.268 23.532 186.96 23.112 186.568 22.776C186.195 22.44 185.794 22.272 185.364 22.272C184.823 22.272 184.338 22.524 183.908 23.028C183.479 23.532 182.966 24.4467 182.368 25.772Z" fill="#3C4043"/>
<g id="GPay Logo (Light)">
<g id="GPay">
<g id="Pay">
<path id="Fill 1" fill-rule="evenodd" clip-rule="evenodd" d="M242.529 9.44664V17.6128H247.565C248.765 17.6128 249.757 17.2096 250.541 16.4032C251.347 15.5988 251.75 14.6394 251.75 13.5288C251.75 12.4406 251.347 11.4924 250.541 10.686C249.757 9.85915 248.765 9.44478 247.565 9.44478H242.529V9.44664ZM242.529 20.4872V29.9599H239.521V6.57217H247.499C249.527 6.57217 251.248 7.24786 252.666 8.59737C254.105 9.94688 254.824 11.5913 254.824 13.5288C254.824 15.511 254.105 17.1667 252.666 18.4938C251.27 19.8227 249.547 20.4854 247.499 20.4854H242.529V20.4872Z" fill="#5F6368"/>
<path id="Fill 3" fill-rule="evenodd" clip-rule="evenodd" d="M257.864 25.0602C257.864 25.8442 258.197 26.4975 258.862 27.0201C259.527 27.5427 260.306 27.804 261.2 27.804C262.465 27.804 263.591 27.3354 264.584 26.4004C265.576 25.4634 266.071 24.364 266.071 23.1022C265.133 22.3612 263.825 21.9916 262.147 21.9916C260.925 21.9916 259.907 22.2865 259.09 22.8745C258.273 23.4623 257.864 24.1886 257.864 25.0602ZM261.756 13.4317C263.98 13.4317 265.735 14.0252 267.022 15.2124C268.308 16.3995 268.95 18.0271 268.95 20.0952V29.9599H266.073V27.7387H265.942C264.699 29.5677 263.042 30.4825 260.972 30.4825C259.206 30.4825 257.728 29.9599 256.541 28.9146C255.353 27.8694 254.759 26.5628 254.759 24.9949C254.759 23.3393 255.385 22.0232 256.638 21.0434C257.892 20.0635 259.565 19.5726 261.658 19.5726C263.444 19.5726 264.916 19.8992 266.071 20.5525V19.8656C266.071 18.8204 265.656 17.9338 264.829 17.204C263.999 16.4741 263.031 16.1102 261.919 16.1102C260.239 16.1102 258.911 16.8176 257.93 18.2343L255.28 16.5675C256.741 14.4769 258.899 13.4317 261.756 13.4317Z" fill="#5F6368"/>
<path id="Fill 5" fill-rule="evenodd" clip-rule="evenodd" d="M285.463 13.9543L275.424 37.0154H272.318L276.046 28.9464L269.44 13.9543H272.71L277.484 25.4522H277.55L282.193 13.9543H285.463Z" fill="#5F6368"/>
</g>
<g id="G">
<path id="Fill 8" fill-rule="evenodd" clip-rule="evenodd" d="M230.373 18.4452C230.373 17.4989 230.293 16.5861 230.141 15.7126H217.454V20.8885H224.72C224.408 22.5757 223.465 24.0112 222.033 24.9725V28.3341H226.37C228.91 25.9935 230.373 22.5348 230.373 18.4452Z" fill="#4285F4"/>
<path id="Fill 10" fill-rule="evenodd" clip-rule="evenodd" d="M217.454 31.5782C221.084 31.5782 224.141 30.3873 226.37 28.3341L222.033 24.9725C220.826 25.7844 219.272 26.2585 217.454 26.2585C213.944 26.2585 210.966 23.8955 209.901 20.7112H205.433V24.1736C207.647 28.5637 212.197 31.5782 217.454 31.5782Z" fill="#34A853"/>
<path id="Fill 12" fill-rule="evenodd" clip-rule="evenodd" d="M209.901 20.7111C209.628 19.8992 209.479 19.0331 209.479 18.139C209.479 17.245 209.628 16.3789 209.901 15.567V12.1045H205.433C204.518 13.9188 204 15.9683 204 18.139C204 20.3098 204.518 22.3595 205.433 24.1736L209.901 20.7111Z" fill="#FABB05"/>
<path id="Fill 14" fill-rule="evenodd" clip-rule="evenodd" d="M217.454 10.0196C219.436 10.0196 221.213 10.7009 222.615 12.0355V12.0374L226.455 8.20162C224.123 6.03271 221.082 4.7 217.454 4.7C212.197 4.7 207.647 7.71446 205.433 12.1046L209.901 15.567C210.966 12.3827 213.944 10.0196 217.454 10.0196Z" fill="#E94235"/>
</g>
</g>
</g>
</g>
</svg>
