<svg width="150" height="21" viewBox="0 0 150 21" fill="none" xmlns="http://www.w3.org/2000/svg">
<g id="ar_pay_with_Pay_NBG">
<g id="GPay (Dark)">
<g id="GPay">
<g id="Pay">
<path id="Fill 1" fill-rule="evenodd" clip-rule="evenodd" d="M22.3563 3.42339V8.16175H25.2784C25.9745 8.16175 26.5501 7.92781 27.0055 7.45993C27.4728 6.99313 27.707 6.43644 27.707 5.79203C27.707 5.16061 27.4728 4.61041 27.0055 4.14254C26.5501 3.66274 25.9745 3.4223 25.2784 3.4223H22.3563V3.42339ZM22.3563 9.82966V15.3262H20.6107V1.75549H25.2404C26.4169 1.75549 27.4154 2.14756 28.2383 2.93061C29.0732 3.71365 29.4906 4.66782 29.4906 5.79203C29.4906 6.94224 29.0731 7.90291 28.2383 8.67296C27.4283 9.44409 26.4287 9.82858 25.2404 9.82858H22.3563V9.82966Z" fill="white"/>
<path id="Fill 3" fill-rule="evenodd" clip-rule="evenodd" d="M31.2546 12.4831C31.2546 12.9379 31.4476 13.317 31.8337 13.6203C32.2195 13.9235 32.6717 14.0752 33.19 14.0752C33.9239 14.0752 34.5777 13.8032 35.1535 13.2607C35.7293 12.717 36.0165 12.0791 36.0165 11.3469C35.4722 10.917 34.7133 10.7025 33.7396 10.7025C33.0306 10.7025 32.4397 10.8736 31.9659 11.2148C31.492 11.5559 31.2546 11.9773 31.2546 12.4831M33.513 5.73566C34.8033 5.73566 35.8214 6.08007 36.5685 6.76889C37.3145 7.45771 37.6873 8.40213 37.6873 9.60216V15.3261H36.0177V14.0373H35.9417C35.2207 15.0985 34.259 15.6294 33.0578 15.6294C32.0332 15.6294 31.1755 15.3261 30.4869 14.7196C29.7975 14.1131 29.4527 13.3549 29.4527 12.4452C29.4527 11.4845 29.8158 10.7208 30.5433 10.1523C31.2708 9.58375 32.2413 9.2989 33.4557 9.2989C34.4921 9.2989 35.3465 9.48844 36.0165 9.86751V9.46894C36.0165 8.86243 35.7758 8.34798 35.2956 7.92451C34.8141 7.50103 34.2525 7.28984 33.6074 7.28984C32.6326 7.28984 31.8618 7.70032 31.2926 8.52235L29.7551 7.55519C30.6029 6.34217 31.8552 5.73566 33.513 5.73566" fill="white"/>
<path id="Fill 5" fill-rule="evenodd" clip-rule="evenodd" d="M47.2687 6.03894L41.4432 19.4201H39.6411L41.8043 14.738L37.9714 6.03894H39.8688L42.639 12.7106H42.677L45.3713 6.03894H47.2687Z" fill="white"/>
</g>
<g id="G">
<path id="Fill 8" fill-rule="evenodd" clip-rule="evenodd" d="M15.3029 8.64473C15.3029 8.09563 15.2562 7.56601 15.1684 7.05914H7.80648V10.0625H12.0231C11.842 11.0414 11.2945 11.8744 10.4639 12.4322V14.3828H12.9804C14.4539 13.0246 15.3029 11.0177 15.3029 8.64473" fill="#4285F4"/>
<path id="Fill 10" fill-rule="evenodd" clip-rule="evenodd" d="M7.80646 16.2651C9.91313 16.2651 11.6869 15.5741 12.9804 14.3828L10.4639 12.4322C9.7635 12.9033 8.86142 13.1784 7.80646 13.1784C5.77028 13.1784 4.04201 11.8073 3.424 9.95959H0.831596V11.9687C2.11641 14.516 4.75652 16.2651 7.80646 16.2651" fill="#34A853"/>
<path id="Fill 12" fill-rule="evenodd" clip-rule="evenodd" d="M3.42401 9.9596C3.26571 9.48847 3.17897 8.98593 3.17897 8.46715C3.17897 7.94837 3.26571 7.44583 3.42401 6.9747V4.96564H0.831606C0.300332 6.01837 0 7.20756 0 8.46715C0 9.72674 0.300332 10.916 0.831606 11.9687L3.42401 9.9596Z" fill="#FABB05"/>
<path id="Fill 14" fill-rule="evenodd" clip-rule="evenodd" d="M7.80646 3.75583C8.95683 3.75583 9.98794 4.15115 10.8011 4.92553V4.92661L13.0292 2.70094C11.6761 1.44243 9.91204 0.669128 7.80646 0.669128C4.75652 0.669128 2.11641 2.41826 0.831596 4.9656L3.424 6.97467C4.04201 5.12698 5.77028 3.75583 7.80646 3.75583" fill="#E94235"/>
</g>
</g>
</g>
<path id="Right Text" d="M55.2746 21.2886C55.0826 20.5953 54.9226 19.9073 54.7946 19.2246C54.6666 18.5526 54.5706 17.9339 54.5066 17.3686C54.4426 16.8033 54.4106 16.3393 54.4106 15.9766C54.4106 15.3259 54.528 14.7873 54.7626 14.3606C54.9973 13.9233 55.312 13.5873 55.7066 13.3526C56.1013 13.1073 56.5386 12.9419 57.0186 12.8566C57.5093 12.7713 58.0106 12.7446 58.5226 12.7766C59.0453 12.7979 59.536 12.8619 59.9946 12.9686C60.0266 12.4886 59.9786 12.0353 59.8506 11.6086C59.7226 11.1819 59.52 10.8406 59.2426 10.5846C58.9653 10.3179 58.624 10.1846 58.2186 10.1846C57.44 10.1846 56.768 10.7179 56.2026 11.7846L55.2106 11.2406C55.616 10.3766 56.0906 9.76861 56.6346 9.41661C57.1893 9.06461 57.744 8.88861 58.2986 8.88861C58.8426 8.88861 59.3013 9.00594 59.6746 9.24061C60.048 9.46461 60.3413 9.76328 60.5546 10.1366C60.7786 10.4993 60.9386 10.8939 61.0346 11.3206C61.1413 11.7366 61.1946 12.1366 61.1946 12.5206C61.1946 12.9153 61.1253 13.3099 60.9866 13.7046C60.848 14.0886 60.72 14.3659 60.6026 14.5366C59.632 14.2486 58.7786 14.0993 58.0426 14.0886C57.3173 14.0673 56.7466 14.2166 56.3306 14.5366C55.9253 14.8459 55.7226 15.3526 55.7226 16.0566C55.7226 16.4619 55.7546 16.9313 55.8186 17.4646C55.8826 18.0086 55.9733 18.5793 56.0906 19.1766C56.208 19.7846 56.3466 20.3819 56.5066 20.9686L55.2746 21.2886ZM63.4626 15.0006L63.1426 3.57661H64.4386L64.7586 15.0006H63.4626ZM69.3931 13.7686C70.1825 13.7686 70.7425 13.6513 71.0731 13.4166C71.4038 13.1713 71.5691 12.8353 71.5691 12.4086C71.5691 12.1313 71.4731 11.7739 71.2811 11.3366C71.0891 10.8993 70.8331 10.4139 70.5131 9.88061C70.2038 9.33661 69.8571 8.78194 69.4731 8.21661L70.5771 7.49661C71.1958 8.44594 71.6971 9.31528 72.0811 10.1046C72.4758 10.8833 72.7691 11.5873 72.9611 12.2166C73.1105 12.6859 73.2758 13.0326 73.4571 13.2566C73.6491 13.4806 73.8465 13.6246 74.0491 13.6886C74.2518 13.7419 74.4385 13.7686 74.6091 13.7686C74.8331 13.7686 74.9985 13.8326 75.1051 13.9606C75.2118 14.0779 75.2651 14.2219 75.2651 14.3926C75.2651 14.5633 75.1905 14.7233 75.0411 14.8726C74.8918 15.0113 74.6998 15.0806 74.4651 15.0806C74.0491 15.0806 73.6491 14.9899 73.2651 14.8086C72.8811 14.6273 72.5718 14.3179 72.3371 13.8806C72.1238 14.2326 71.7825 14.5259 71.3131 14.7606C70.8545 14.9846 70.2145 15.0966 69.3931 15.0966C68.8065 15.0966 68.2625 15.0273 67.7611 14.8886C67.2598 14.7393 66.8438 14.5366 66.5131 14.2806L67.1531 13.1766C67.3665 13.3259 67.6651 13.4646 68.0491 13.5926C68.4331 13.7099 68.8811 13.7686 69.3931 13.7686ZM74.6187 15.0806L74.7627 13.7686C75.8614 13.7686 76.9281 13.6086 77.9627 13.2886C78.9974 12.9579 79.9414 12.4939 80.7947 11.8966C80.3787 11.5339 79.8667 11.2406 79.2587 11.0166C78.6614 10.7926 78.0001 10.6806 77.2747 10.6806C77.0081 10.6806 76.7734 10.6966 76.5707 10.7286C76.3681 10.7499 76.1227 10.7926 75.8347 10.8566L75.5787 9.64061C76.1761 9.45928 76.7414 9.36861 77.2747 9.36861C77.8294 9.36861 78.3307 9.43794 78.7787 9.57661C79.2267 9.70461 79.6321 9.86461 79.9947 10.0566C80.3681 10.2486 80.7147 10.4406 81.0347 10.6326C81.3654 10.8246 81.6854 10.9899 81.9947 11.1286C82.3041 11.2566 82.6241 11.3206 82.9547 11.3206H83.2907L83.4027 12.4726C83.0721 12.4726 82.7521 12.5099 82.4427 12.5846C82.6454 13.0646 82.9334 13.3846 83.3067 13.5446C83.6801 13.6939 84.2347 13.7686 84.9707 13.7686C85.1947 13.7686 85.3547 13.8326 85.4507 13.9606C85.5574 14.0779 85.6107 14.2219 85.6107 14.3926C85.6107 14.5633 85.5361 14.7233 85.3867 14.8726C85.2374 15.0113 85.0454 15.0806 84.8107 15.0806C84.2347 15.0806 83.7174 15.0326 83.2587 14.9366C82.8107 14.8299 82.4267 14.6273 82.1067 14.3286C81.7867 14.0193 81.5521 13.5606 81.4027 12.9526C80.9974 13.1446 80.5814 13.3633 80.1547 13.6086C79.7387 13.8433 79.2747 14.0726 78.7627 14.2966C78.2507 14.5206 77.6587 14.7073 76.9867 14.8566C76.3147 15.0059 75.5254 15.0806 74.6187 15.0806ZM77.1307 7.72061C76.9067 7.72061 76.7147 7.64594 76.5547 7.49661C76.4054 7.33661 76.3307 7.14994 76.3307 6.93661C76.3307 6.72328 76.4054 6.53661 76.5547 6.37661C76.7147 6.21661 76.9067 6.13661 77.1307 6.13661C77.3441 6.13661 77.5254 6.21661 77.6747 6.37661C77.8347 6.53661 77.9147 6.72328 77.9147 6.93661C77.9147 7.14994 77.8347 7.33661 77.6747 7.49661C77.5254 7.64594 77.3441 7.72061 77.1307 7.72061ZM84.9562 15.0806L85.1162 13.7686C85.6496 13.7686 86.0656 13.7313 86.3642 13.6566C86.6629 13.5713 86.8869 13.4166 87.0362 13.1926C87.1962 12.9579 87.3242 12.6219 87.4202 12.1846C87.5162 11.7473 87.6336 11.1766 87.7722 10.4726L89.0202 10.7126C88.9562 11.0006 88.8816 11.3313 88.7962 11.7046C88.7216 12.0779 88.6842 12.3926 88.6842 12.6486C88.6842 12.8086 88.6949 12.9579 88.7162 13.0966C88.7376 13.2353 88.8176 13.3526 88.9562 13.4486C89.0949 13.5446 89.3296 13.6246 89.6602 13.6886C89.9909 13.7419 90.4656 13.7686 91.0842 13.7686C91.3082 13.7686 91.4682 13.8326 91.5642 13.9606C91.6709 14.0779 91.7242 14.2219 91.7242 14.3926C91.7242 14.5633 91.6496 14.7233 91.5002 14.8726C91.3509 15.0113 91.1589 15.0806 90.9242 15.0806C90.2309 15.0806 89.6869 15.0433 89.2922 14.9686C88.9082 14.8833 88.6202 14.7659 88.4282 14.6166C88.2469 14.4566 88.1136 14.2593 88.0282 14.0246C87.7189 14.4619 87.3349 14.7499 86.8762 14.8886C86.4282 15.0166 85.7882 15.0806 84.9562 15.0806ZM89.2282 8.82461C89.0042 8.82461 88.8122 8.74994 88.6522 8.60061C88.5029 8.44061 88.4282 8.25394 88.4282 8.04061C88.4282 7.82728 88.5029 7.64061 88.6522 7.48061C88.8122 7.32061 89.0042 7.24061 89.2282 7.24061C89.4416 7.24061 89.6229 7.32061 89.7722 7.48061C89.9322 7.64061 90.0122 7.82728 90.0122 8.04061C90.0122 8.25394 89.9322 8.44061 89.7722 8.60061C89.6229 8.74994 89.4416 8.82461 89.2282 8.82461ZM87.0362 8.82461C86.8122 8.82461 86.6202 8.74994 86.4602 8.60061C86.3109 8.44061 86.2362 8.25394 86.2362 8.04061C86.2362 7.82728 86.3109 7.64061 86.4602 7.48061C86.6202 7.32061 86.8122 7.24061 87.0362 7.24061C87.2496 7.24061 87.4309 7.32061 87.5802 7.48061C87.7402 7.64061 87.8202 7.82728 87.8202 8.04061C87.8202 8.25394 87.7402 8.44061 87.5802 8.60061C87.4309 8.74994 87.2496 8.82461 87.0362 8.82461ZM91.075 15.0806L91.235 13.7686C91.5763 13.7686 91.8537 13.7473 92.067 13.7046C92.2803 13.6513 92.4563 13.5286 92.595 13.3366C92.7443 13.1339 92.883 12.8193 93.011 12.3926C93.139 11.9659 93.2883 11.3686 93.459 10.6006L94.659 10.9366C94.595 11.2139 94.5203 11.5393 94.435 11.9126C94.3497 12.2859 94.307 12.6219 94.307 12.9206C94.307 13.1873 94.4083 13.3953 94.611 13.5446C94.8137 13.6939 95.1817 13.7686 95.715 13.7686C96.035 13.7686 96.2963 13.7419 96.499 13.6886C96.7017 13.6353 96.867 13.5073 96.995 13.3046C97.1337 13.1019 97.2563 12.7819 97.363 12.3446C97.4697 11.8966 97.5817 11.2779 97.699 10.4886L98.915 10.7126C98.883 10.9046 98.8403 11.1393 98.787 11.4166C98.7443 11.6939 98.707 11.9713 98.675 12.2486C98.643 12.5153 98.627 12.7393 98.627 12.9206C98.627 13.0699 98.659 13.2139 98.723 13.3526C98.7977 13.4806 98.9363 13.5819 99.139 13.6566C99.3523 13.7313 99.667 13.7686 100.083 13.7686C100.542 13.7686 100.91 13.6779 101.187 13.4966C101.464 13.3153 101.603 12.9473 101.603 12.3926C101.603 11.9979 101.507 11.4913 101.315 10.8726C101.134 10.2539 100.926 9.64061 100.691 9.03261L101.987 8.55261C102.115 8.90461 102.243 9.29928 102.371 9.73661C102.499 10.1633 102.606 10.5899 102.691 11.0166C102.776 11.4433 102.819 11.8166 102.819 12.1366C102.819 13.1286 102.574 13.8699 102.083 14.3606C101.592 14.8406 100.92 15.0806 100.067 15.0806C99.4803 15.0806 99.0163 15.0059 98.675 14.8566C98.3443 14.6966 98.1043 14.4513 97.955 14.1206C97.699 14.5153 97.3897 14.7766 97.027 14.9046C96.675 15.0219 96.1737 15.0806 95.523 15.0806C95.299 15.0806 95.059 15.0539 94.803 15.0006C94.5577 14.9473 94.3283 14.8459 94.115 14.6966C93.9017 14.5366 93.7363 14.3019 93.619 13.9926C93.3417 14.4619 92.995 14.7606 92.579 14.8886C92.1737 15.0166 91.6723 15.0806 91.075 15.0806ZM108.428 15.0806C107.564 15.0806 106.908 14.9846 106.46 14.7926C106.012 14.6006 105.703 14.3019 105.532 13.8966C105.361 13.4913 105.265 12.9686 105.244 12.3286L104.924 3.57661H106.236L106.556 11.8166C106.577 12.3393 106.625 12.7446 106.7 13.0326C106.785 13.3099 106.967 13.5019 107.244 13.6086C107.532 13.7153 107.98 13.7686 108.588 13.7686C108.812 13.7686 108.972 13.8326 109.068 13.9606C109.175 14.0779 109.228 14.2219 109.228 14.3926C109.228 14.5633 109.153 14.7233 109.004 14.8726C108.855 15.0113 108.663 15.0806 108.428 15.0806ZM108.578 15.0806L108.738 13.7686C109.25 13.7686 109.661 13.7366 109.97 13.6726C110.29 13.6086 110.519 13.4806 110.658 13.2886C110.797 13.0859 110.866 12.7873 110.866 12.3926C110.866 11.9979 110.77 11.4913 110.578 10.8726C110.397 10.2539 110.189 9.64061 109.954 9.03261L111.25 8.55261C111.389 8.90461 111.517 9.29928 111.634 9.73661C111.762 10.1633 111.869 10.5899 111.954 11.0166C112.039 11.4433 112.082 11.8166 112.082 12.1366C112.082 13.2139 111.794 13.9766 111.218 14.4246C110.653 14.8619 109.773 15.0806 108.578 15.0806ZM110.29 18.0566C110.066 18.0566 109.874 17.9766 109.714 17.8166C109.565 17.6673 109.49 17.4859 109.49 17.2726C109.49 17.0593 109.565 16.8726 109.714 16.7126C109.874 16.5526 110.066 16.4726 110.29 16.4726C110.503 16.4726 110.685 16.5526 110.834 16.7126C110.994 16.8726 111.074 17.0593 111.074 17.2726C111.074 17.4859 110.994 17.6673 110.834 17.8166C110.685 17.9766 110.503 18.0566 110.29 18.0566ZM121.661 21.3046C121.181 21.3046 120.675 21.2566 120.141 21.1606C119.608 21.0753 119.107 20.9046 118.637 20.6486C118.179 20.4033 117.8 20.0566 117.501 19.6086C117.213 19.1606 117.069 18.5739 117.069 17.8486C117.069 17.0699 117.229 16.3926 117.549 15.8166C117.869 15.2406 118.275 14.7446 118.765 14.3286C119.256 13.9019 119.752 13.5179 120.253 13.1766C119.997 12.8779 119.715 12.5793 119.405 12.2806C119.096 11.9819 118.755 11.6993 118.381 11.4326C118.317 11.3793 118.253 11.2833 118.189 11.1446C118.125 11.0059 118.072 10.8619 118.029 10.7126C117.987 10.5633 117.965 10.4513 117.965 10.3766C117.965 10.2166 118.067 10.0246 118.269 9.80061C118.472 9.57661 118.744 9.36328 119.085 9.16061C119.427 8.94728 119.816 8.77128 120.253 8.63261C120.691 8.49394 121.144 8.42461 121.613 8.42461C122.36 8.42461 122.941 8.61128 123.357 8.98461C123.784 9.35794 123.997 9.79528 123.997 10.2966C123.997 10.9046 123.827 11.4326 123.485 11.8806C123.155 12.3286 122.749 12.7446 122.269 13.1286C122.675 13.3313 123.128 13.4913 123.629 13.6086C124.131 13.7153 124.776 13.7686 125.565 13.7686C125.789 13.7686 125.949 13.8326 126.045 13.9606C126.152 14.0779 126.205 14.2219 126.205 14.3926C126.205 14.5633 126.131 14.7233 125.981 14.8726C125.832 15.0113 125.64 15.0806 125.405 15.0806C124.669 15.0806 124.04 15.0326 123.517 14.9366C123.005 14.8406 122.563 14.7126 122.189 14.5526C121.816 14.3819 121.469 14.1846 121.149 13.9606C120.68 14.3019 120.232 14.6486 119.805 15.0006C119.389 15.3526 119.048 15.7419 118.781 16.1686C118.515 16.5953 118.381 17.0859 118.381 17.6406C118.381 18.1313 118.499 18.5313 118.733 18.8406C118.968 19.1499 119.261 19.3846 119.613 19.5446C119.965 19.7153 120.328 19.8326 120.701 19.8966C121.075 19.9606 121.395 19.9926 121.661 19.9926C122.216 19.9926 122.797 19.9286 123.405 19.8006C124.013 19.6833 124.643 19.4913 125.293 19.2246L125.709 20.2486C125.389 20.4406 125.005 20.6166 124.557 20.7766C124.12 20.9366 123.645 21.0646 123.133 21.1606C122.632 21.2566 122.141 21.3046 121.661 21.3046ZM119.117 10.4566C119.501 10.7766 119.859 11.0913 120.189 11.4006C120.531 11.6993 120.899 12.0566 121.293 12.4726C121.709 12.1846 122.051 11.8966 122.317 11.6086C122.595 11.3206 122.733 11.0006 122.733 10.6486C122.733 10.4353 122.632 10.2273 122.429 10.0246C122.227 9.82194 121.875 9.72061 121.373 9.72061C121.011 9.72061 120.605 9.78994 120.157 9.92861C119.72 10.0673 119.373 10.2433 119.117 10.4566ZM125.559 15.0806L125.719 13.7686C126.071 13.7686 126.471 13.7686 126.919 13.7686C127.378 13.7579 127.821 13.7366 128.247 13.7046C128.674 13.6619 129.01 13.5979 129.255 13.5126C129.597 13.3953 129.869 13.2459 130.071 13.0646C130.285 12.8726 130.445 12.6273 130.551 12.3286C130.359 12.3926 130.151 12.4406 129.927 12.4726C129.714 12.4939 129.501 12.5046 129.287 12.5046C128.466 12.5046 127.837 12.3126 127.399 11.9286C126.962 11.5446 126.743 11.0593 126.743 10.4726C126.743 10.0673 126.807 9.66194 126.935 9.25661C127.063 8.84061 127.245 8.46194 127.479 8.12061C127.714 7.77928 127.997 7.50728 128.327 7.30461C128.658 7.09128 129.026 6.98461 129.431 6.98461C130.007 6.98461 130.482 7.17661 130.855 7.56061C131.239 7.93394 131.522 8.41928 131.703 9.01661C131.895 9.61394 131.991 10.2486 131.991 10.9206C131.991 11.7206 131.853 12.4086 131.575 12.9846C131.309 13.5499 130.861 14.0193 130.231 14.3926C129.901 14.5846 129.485 14.7339 128.983 14.8406C128.493 14.9366 127.954 15.0006 127.367 15.0326C126.781 15.0646 126.178 15.0806 125.559 15.0806ZM128.007 10.1526C128.007 10.4833 128.114 10.7499 128.327 10.9526C128.541 11.1446 128.909 11.2406 129.431 11.2406C129.89 11.2406 130.327 11.1766 130.743 11.0486C130.743 10.9846 130.743 10.9099 130.743 10.8246C130.743 10.3873 130.685 9.97661 130.567 9.59261C130.45 9.19794 130.285 8.88328 130.071 8.64861C129.858 8.41394 129.602 8.29661 129.303 8.29661C129.047 8.29661 128.823 8.39261 128.631 8.58461C128.439 8.76594 128.285 9.00061 128.167 9.28861C128.061 9.57661 128.007 9.86461 128.007 10.1526ZM129.127 5.33661C128.903 5.33661 128.711 5.26194 128.551 5.11261C128.402 4.95261 128.327 4.76594 128.327 4.55261C128.327 4.33928 128.402 4.15261 128.551 3.99261C128.711 3.83261 128.903 3.75261 129.127 3.75261C129.341 3.75261 129.522 3.83261 129.671 3.99261C129.831 4.15261 129.911 4.33928 129.911 4.55261C129.911 4.76594 129.831 4.95261 129.671 5.11261C129.522 5.26194 129.341 5.33661 129.127 5.33661ZM136.306 13.7686C137.095 13.7686 137.655 13.6513 137.986 13.4166C138.316 13.1713 138.482 12.8353 138.482 12.4086C138.482 12.1313 138.386 11.7739 138.194 11.3366C138.002 10.8993 137.746 10.4139 137.426 9.88061C137.116 9.33661 136.77 8.78194 136.386 8.21661L137.49 7.49661C138.108 8.44594 138.61 9.31528 138.994 10.1046C139.388 10.8833 139.682 11.5873 139.874 12.2166C140.023 12.6859 140.188 13.0326 140.37 13.2566C140.562 13.4806 140.759 13.6246 140.962 13.6886C141.164 13.7419 141.351 13.7686 141.522 13.7686C141.746 13.7686 141.911 13.8326 142.018 13.9606C142.124 14.0779 142.178 14.2219 142.178 14.3926C142.178 14.5633 142.103 14.7233 141.954 14.8726C141.804 15.0113 141.612 15.0806 141.378 15.0806C140.962 15.0806 140.562 14.9899 140.178 14.8086C139.794 14.6273 139.484 14.3179 139.25 13.8806C139.036 14.2326 138.695 14.5259 138.226 14.7606C137.767 14.9846 137.127 15.0966 136.306 15.0966C135.719 15.0966 135.175 15.0273 134.674 14.8886C134.172 14.7393 133.756 14.5366 133.426 14.2806L134.066 13.1766C134.279 13.3259 134.578 13.4646 134.962 13.5926C135.346 13.7099 135.794 13.7686 136.306 13.7686ZM141.531 15.0806L141.675 13.7686C142.283 13.7686 142.71 13.7099 142.955 13.5926C143.201 13.4753 143.339 13.2726 143.371 12.9846C143.414 12.6859 143.425 12.2646 143.403 11.7206L143.099 3.57661H144.395L144.715 11.5766C144.747 12.3339 144.694 12.9739 144.555 13.4966C144.427 14.0193 144.129 14.4139 143.659 14.6806C143.201 14.9473 142.491 15.0806 141.531 15.0806ZM147.309 15.0006L146.989 3.57661H148.285L148.605 15.0006H147.309Z" fill="white"/>
</g>
</svg>
