<svg width="292" height="38" viewBox="0 0 292 38" fill="none" xmlns="http://www.w3.org/2000/svg">
<g id="ar_pay_with_Dark">
<path id="Text" d="M11.0993 14.992C11.0993 14.5253 11.0713 14.0027 11.0153 13.424C10.9593 12.8267 10.8846 12.2387 10.7913 11.66C10.7166 11.0813 10.642 10.5867 10.5673 10.176L13.4233 9.84C13.498 10.2133 13.5633 10.708 13.6193 11.324C13.694 11.9213 13.75 12.5373 13.7873 13.172C13.8433 13.788 13.8713 14.32 13.8713 14.768C13.8713 17.12 13.4046 19.2667 12.4713 21.208C13.4046 22.1787 14.0673 23.0653 14.4593 23.868C14.87 24.652 15.0753 25.3987 15.0753 26.108C15.0753 26.7053 14.9353 27.3027 14.6553 27.9C14.394 28.4973 13.918 29.0013 13.2273 29.412C12.5366 29.804 11.5566 30 10.2873 30H3.31531V27.284C6.02197 25.3427 7.98197 23.4573 9.19531 21.628C8.14997 20.7133 6.93664 19.7427 5.55531 18.716C4.19264 17.6893 2.74597 16.6533 1.21531 15.608L2.75531 13.424C6.02197 15.7013 8.56997 17.6333 10.3993 19.22C10.642 18.5667 10.8193 17.8853 10.9313 17.176C11.0433 16.4667 11.0993 15.7387 11.0993 14.992ZM7.15131 27.256H10.1753C11.1273 27.256 11.7526 27.116 12.0513 26.836C12.35 26.5373 12.4993 26.192 12.4993 25.8C12.4993 25.52 12.378 25.184 12.1353 24.792C11.8926 24.3813 11.5473 23.9427 11.0993 23.476C10.0913 24.8387 8.77531 26.0987 7.15131 27.256ZM23.1503 27.368C24.4943 27.368 25.4277 27.172 25.9503 26.78C26.4917 26.388 26.7623 25.8653 26.7623 25.212C26.7623 24.708 26.5757 24.0547 26.2023 23.252C25.8477 22.4493 25.3903 21.5907 24.8303 20.676C24.2703 19.7613 23.701 18.8747 23.1223 18.016L25.4463 16.476C26.5663 18.1373 27.4717 19.6773 28.1623 21.096C28.853 22.496 29.3477 23.728 29.6463 24.792C29.8703 25.5387 30.141 26.0987 30.4583 26.472C30.7943 26.8453 31.149 27.088 31.5223 27.2C31.8957 27.312 32.2503 27.368 32.5863 27.368C33.053 27.368 33.3983 27.4987 33.6223 27.76C33.8463 28.0213 33.9583 28.3293 33.9583 28.684C33.9583 29.076 33.809 29.4213 33.5103 29.72C33.2117 30 32.8103 30.14 32.3063 30.14C31.5223 30.14 30.7943 29.9907 30.1223 29.692C29.4503 29.3747 28.909 28.8613 28.4983 28.152C28.0877 28.7307 27.4717 29.216 26.6503 29.608C25.829 29.9813 24.7183 30.168 23.3183 30.168C22.3477 30.168 21.3957 30.0467 20.4623 29.804C19.529 29.5613 18.7357 29.216 18.0823 28.768L19.2863 26.36C19.753 26.64 20.313 26.8827 20.9663 27.088C21.6383 27.2747 22.3663 27.368 23.1503 27.368ZM32.6328 30.14L32.9128 27.368C33.5475 27.368 34.1728 27.3587 34.7888 27.34C35.4235 27.3213 36.0115 27.2747 36.5528 27.2C36.1048 26.7707 35.6941 26.2387 35.3208 25.604C34.9475 24.9693 34.7608 24.2133 34.7608 23.336C34.7608 22.2907 35.0035 21.3573 35.4888 20.536C35.9928 19.7147 36.6368 19.0707 37.4208 18.604C38.2235 18.1187 39.0635 17.876 39.9408 17.876C40.9115 17.876 41.7608 18.128 42.4888 18.632C43.2168 19.136 43.7768 19.7893 44.1688 20.592C44.5795 21.3947 44.7848 22.2347 44.7848 23.112C44.7848 23.952 44.6261 24.7173 44.3088 25.408C43.9915 26.08 43.5621 26.6773 43.0208 27.2C43.7115 27.256 44.4115 27.3027 45.1208 27.34C45.8301 27.3587 46.4741 27.368 47.0528 27.368C47.5195 27.368 47.8648 27.4987 48.0888 27.76C48.3128 28.0213 48.4248 28.3293 48.4248 28.684C48.4248 29.076 48.2755 29.4213 47.9768 29.72C47.6781 30 47.2768 30.14 46.7728 30.14C45.5595 30.14 44.3181 30.056 43.0488 29.888C41.7981 29.7013 40.6968 29.4587 39.7448 29.16C39.5395 29.2347 39.3341 29.3093 39.1288 29.384C38.3075 29.6453 37.3181 29.8413 36.1608 29.972C35.0035 30.084 33.8275 30.14 32.6328 30.14ZM37.5328 23.448C37.5328 24.1013 37.7288 24.6893 38.1208 25.212C38.5128 25.716 38.9795 26.136 39.5208 26.472C40.2488 26.1547 40.8461 25.7347 41.3128 25.212C41.7981 24.6707 42.0408 24.0453 42.0408 23.336C42.0408 22.944 41.9475 22.5427 41.7608 22.132C41.5741 21.7027 41.3128 21.3387 40.9768 21.04C40.6408 20.7413 40.2675 20.592 39.8568 20.592C39.4461 20.592 39.0635 20.732 38.7088 21.012C38.3541 21.2733 38.0648 21.628 37.8408 22.076C37.6355 22.5053 37.5328 22.9627 37.5328 23.448ZM39.7728 15.048C39.3248 15.048 38.9421 14.8987 38.6248 14.6C38.3261 14.3013 38.1768 13.928 38.1768 13.48C38.1768 13.0507 38.3261 12.6773 38.6248 12.36C38.9421 12.0427 39.3248 11.884 39.7728 11.884C40.2021 11.884 40.5661 12.0427 40.8648 12.36C41.1821 12.6773 41.3408 13.0507 41.3408 13.48C41.3408 13.928 41.1821 14.3013 40.8648 14.6C40.5661 14.8987 40.2021 15.048 39.7728 15.048ZM47.0695 30.14L47.3495 27.368C48.4322 27.368 49.2722 27.3587 49.8695 27.34C50.4669 27.3213 50.9055 27.3027 51.1855 27.284C51.4655 27.2653 51.6709 27.2467 51.8015 27.228C51.5215 27.0413 51.1762 26.7613 50.7655 26.388C50.3549 25.996 49.9909 25.492 49.6735 24.876C49.3749 24.26 49.2255 23.532 49.2255 22.692C49.2255 21.628 49.4869 20.6853 50.0095 19.864C50.5322 19.0427 51.2509 18.3987 52.1655 17.932C53.0802 17.4653 54.1162 17.232 55.2735 17.232C55.7402 17.232 56.2255 17.2693 56.7295 17.344C57.2335 17.4187 57.7189 17.5307 58.1855 17.68L57.6535 20.312C56.8695 20.1067 56.1042 20.004 55.3575 20.004C54.3682 20.004 53.5655 20.2653 52.9495 20.788C52.3335 21.292 52.0255 21.9733 52.0255 22.832C52.0255 23.392 52.1562 23.8867 52.4175 24.316C52.6975 24.7453 53.0429 25.1187 53.4535 25.436C53.8829 25.7347 54.3215 25.968 54.7695 26.136C55.2175 26.2853 55.6095 26.36 55.9455 26.36C56.3375 26.248 56.6829 26.1453 56.9815 26.052C57.2802 25.9587 57.6349 25.828 58.0455 25.66C58.4562 25.492 59.0349 25.2493 59.7815 24.932L60.7055 27.452C59.3615 28.0307 58.0082 28.5253 56.6455 28.936C55.3015 29.328 53.8549 29.6267 52.3055 29.832C50.7562 30.0373 49.0109 30.14 47.0695 30.14ZM80.6625 30.588C77.1345 30.588 74.5305 30.112 72.8505 29.16C71.1705 28.1893 70.3305 26.7147 70.3305 24.736C70.3305 23.9893 70.4145 23.2053 70.5825 22.384C70.7692 21.5627 70.9652 20.8067 71.1705 20.116L73.6625 20.704C73.5505 21.1707 73.4292 21.712 73.2985 22.328C73.1678 22.9253 73.1025 23.4573 73.1025 23.924C73.1025 24.82 73.3452 25.5573 73.8305 26.136C74.3345 26.7147 75.1838 27.144 76.3785 27.424C77.5918 27.6853 79.2625 27.816 81.3905 27.816C85.5345 27.816 88.5678 27.5827 90.4905 27.116C92.4318 26.6493 93.4025 25.8187 93.4025 24.624C93.4025 23.9333 93.2718 23.1213 93.0105 22.188C92.7678 21.236 92.4505 20.2467 92.0585 19.22L94.6625 18.38C95.0172 19.2947 95.3438 20.3027 95.6425 21.404C95.9598 22.4867 96.1185 23.4667 96.1185 24.344C96.1185 25.464 95.8665 26.4253 95.3625 27.228C94.8585 28.012 94.0185 28.656 92.8425 29.16C91.6852 29.6453 90.1078 30 88.1105 30.224C86.1132 30.4667 83.6305 30.588 80.6625 30.588ZM83.2105 36.272C82.7812 36.272 82.4078 36.1227 82.0905 35.824C81.7918 35.5253 81.6425 35.1613 81.6425 34.732C81.6425 34.3213 81.7918 33.9573 82.0905 33.64C82.4078 33.3227 82.7812 33.164 83.2105 33.164C83.6212 33.164 83.9758 33.3227 84.2745 33.64C84.5918 33.9573 84.7505 34.3213 84.7505 34.732C84.7505 35.1613 84.5918 35.5253 84.2745 35.824C83.9758 36.1227 83.6212 36.272 83.2105 36.272ZM106.189 30.14C104.603 30.14 103.389 29.972 102.549 29.636C101.728 29.2813 101.149 28.7493 100.813 28.04C100.496 27.312 100.319 26.3787 100.281 25.24L99.7212 9.868H102.493L103.081 24.064C103.119 24.96 103.203 25.6507 103.333 26.136C103.483 26.6027 103.791 26.9293 104.257 27.116C104.724 27.284 105.461 27.368 106.469 27.368C106.936 27.368 107.281 27.4987 107.505 27.76C107.729 28.0213 107.841 28.3293 107.841 28.684C107.841 29.076 107.683 29.4213 107.365 29.72C107.067 30 106.675 30.14 106.189 30.14ZM106.484 30.14L106.764 27.368C107.362 27.368 107.847 27.3213 108.22 27.228C108.612 27.1347 108.93 26.92 109.172 26.584C109.434 26.2293 109.667 25.6787 109.872 24.932C110.096 24.1667 110.348 23.1307 110.628 21.824L113.176 22.44C113.083 22.9067 112.962 23.4573 112.812 24.092C112.682 24.7267 112.616 25.3053 112.616 25.828C112.616 26.2947 112.784 26.668 113.12 26.948C113.475 27.228 114.119 27.368 115.052 27.368C115.575 27.368 116.014 27.3213 116.368 27.228C116.723 27.1347 117.022 26.9107 117.264 26.556C117.507 26.1827 117.722 25.6133 117.908 24.848C118.095 24.064 118.291 22.9907 118.496 21.628L121.1 22.076C121.026 22.4307 120.951 22.8507 120.876 23.336C120.802 23.8213 120.736 24.2973 120.68 24.764C120.624 25.2307 120.596 25.6133 120.596 25.912C120.596 26.1733 120.652 26.416 120.764 26.64C120.895 26.864 121.138 27.0413 121.492 27.172C121.866 27.3027 122.416 27.368 123.144 27.368C124.059 27.368 124.722 27.1813 125.132 26.808C125.543 26.416 125.748 25.828 125.748 25.044C125.748 24.3907 125.73 23.6813 125.692 22.916C125.655 22.132 125.562 21.152 125.412 19.976L127.904 19.808C128.016 21.3387 128.147 22.5987 128.296 23.588C128.464 24.5773 128.679 25.352 128.94 25.912C129.22 26.4533 129.594 26.836 130.06 27.06C130.546 27.2653 131.18 27.368 131.964 27.368C132.45 27.368 132.795 27.4987 133 27.76C133.224 28.0213 133.336 28.3293 133.336 28.684C133.336 29.076 133.187 29.4213 132.888 29.72C132.59 30 132.188 30.14 131.684 30.14C130.658 30.14 129.762 29.9253 128.996 29.496C128.231 29.048 127.662 28.404 127.288 27.564C126.896 28.5907 126.318 29.2813 125.552 29.636C124.787 29.972 123.9 30.14 122.892 30.14C121.94 30.14 121.156 30 120.54 29.72C119.924 29.44 119.486 28.992 119.224 28.376C118.758 29.1227 118.188 29.608 117.516 29.832C116.844 30.0373 115.92 30.14 114.744 30.14C114.315 30.14 113.876 30.0933 113.428 30C112.98 29.9067 112.56 29.7293 112.168 29.468C111.776 29.188 111.459 28.7773 111.216 28.236C110.694 29.0573 110.04 29.58 109.256 29.804C108.491 30.028 107.567 30.14 106.484 30.14ZM131.995 30.14L132.275 27.368C133.134 27.368 133.815 27.3027 134.319 27.172C134.823 27.0227 135.215 26.752 135.495 26.36C135.794 25.9493 136.037 25.3613 136.223 24.596C136.429 23.8307 136.643 22.8133 136.867 21.544L139.499 22.02C139.387 22.5053 139.266 23.0653 139.135 23.7C139.023 24.3347 138.967 24.8853 138.967 25.352C138.967 25.7627 139.033 26.1173 139.163 26.416C139.313 26.7147 139.667 26.948 140.227 27.116C140.787 27.284 141.721 27.368 143.027 27.368C143.513 27.368 143.858 27.4987 144.063 27.76C144.269 28.0213 144.371 28.3293 144.371 28.684C144.371 29.076 144.222 29.4213 143.923 29.72C143.625 30 143.233 30.14 142.747 30.14C141.086 30.14 139.873 29.9813 139.107 29.664C138.361 29.3467 137.857 28.8427 137.595 28.152C136.979 28.992 136.223 29.5333 135.327 29.776C134.431 30.0187 133.321 30.14 131.995 30.14ZM139.919 18.772C139.49 18.772 139.117 18.6227 138.799 18.324C138.501 18.0067 138.351 17.6427 138.351 17.232C138.351 16.8213 138.501 16.4573 138.799 16.14C139.117 15.8227 139.49 15.664 139.919 15.664C140.33 15.664 140.685 15.8227 140.983 16.14C141.301 16.4573 141.459 16.8213 141.459 17.232C141.459 17.6427 141.301 18.0067 140.983 18.324C140.685 18.6227 140.33 18.772 139.919 18.772ZM135.775 18.772C135.346 18.772 134.982 18.6227 134.683 18.324C134.385 18.0067 134.235 17.6427 134.235 17.232C134.235 16.8027 134.385 16.4387 134.683 16.14C134.982 15.8227 135.346 15.664 135.775 15.664C136.186 15.664 136.541 15.8227 136.839 16.14C137.157 16.4387 137.315 16.8027 137.315 17.232C137.315 17.6427 137.157 18.0067 136.839 18.324C136.541 18.6227 136.186 18.772 135.775 18.772ZM143.041 30.14L143.293 27.368C145.253 27.368 147.148 27.1067 148.977 26.584C150.807 26.0427 152.468 25.2587 153.961 24.232C153.215 23.6347 152.309 23.1587 151.245 22.804C150.2 22.4307 149.052 22.244 147.801 22.244C146.943 22.244 146.056 22.3467 145.141 22.552L144.665 19.92C145.188 19.7707 145.711 19.6587 146.233 19.584C146.756 19.5093 147.26 19.472 147.745 19.472C148.977 19.472 150.069 19.6493 151.021 20.004C151.973 20.34 152.832 20.732 153.597 21.18C154.363 21.6093 155.091 22.0013 155.781 22.356C156.472 22.692 157.172 22.86 157.881 22.86H158.609L158.861 25.38C157.891 25.3987 157.004 25.576 156.201 25.912C155.417 26.2293 154.624 26.6213 153.821 27.088C153.037 27.5547 152.151 28.0213 151.161 28.488C150.191 28.9547 149.052 29.3467 147.745 29.664C146.439 29.9813 144.871 30.14 143.041 30.14ZM147.773 16.644C147.325 16.644 146.943 16.4947 146.625 16.196C146.327 15.8973 146.177 15.524 146.177 15.076C146.177 14.6467 146.327 14.2733 146.625 13.956C146.943 13.6387 147.325 13.48 147.773 13.48C148.203 13.48 148.567 13.6387 148.865 13.956C149.183 14.2733 149.341 14.6467 149.341 15.076C149.341 15.524 149.183 15.8973 148.865 16.196C148.567 16.4947 148.203 16.644 147.773 16.644ZM161.138 28.768L162.342 26.36C162.808 26.64 163.368 26.8827 164.022 27.088C164.694 27.2747 165.431 27.368 166.234 27.368C167.503 27.368 168.418 27.1813 168.978 26.808C169.538 26.416 169.818 25.884 169.818 25.212C169.818 24.8573 169.734 24.4093 169.566 23.868C169.398 23.308 169.052 22.5613 168.53 21.628C168.007 20.6947 167.223 19.4907 166.178 18.016L168.502 16.476C169.939 18.492 170.984 20.2653 171.638 21.796C172.31 23.308 172.646 24.5493 172.646 25.52C172.646 26.3413 172.44 27.1067 172.03 27.816C171.619 28.5253 170.947 29.0947 170.014 29.524C169.099 29.9533 167.886 30.168 166.374 30.168C165.403 30.168 164.451 30.0467 163.518 29.804C162.584 29.5613 161.791 29.216 161.138 28.768ZM182.529 30.14C180.942 30.14 179.729 29.972 178.889 29.636C178.068 29.2813 177.489 28.7493 177.153 28.04C176.836 27.312 176.658 26.3787 176.621 25.24L176.061 9.868H178.833L179.421 24.064C179.458 24.96 179.542 25.6507 179.673 26.136C179.822 26.6027 180.13 26.9293 180.597 27.116C181.064 27.284 181.801 27.368 182.809 27.368C183.276 27.368 183.621 27.4987 183.845 27.76C184.069 28.0213 184.181 28.3293 184.181 28.684C184.181 29.076 184.022 29.4213 183.705 29.72C183.406 30 183.014 30.14 182.529 30.14ZM182.824 30.14L183.104 27.368C183.59 27.368 184 27.256 184.336 27.032C184.691 26.808 185.027 26.4347 185.344 25.912C185.68 25.3893 186.063 24.6893 186.492 23.812C187.034 22.6547 187.584 21.768 188.144 21.152C188.704 20.5173 189.264 20.088 189.824 19.864C190.384 19.6213 190.944 19.5 191.504 19.5C192.419 19.5 193.24 19.7893 193.968 20.368C194.715 20.9467 195.303 21.684 195.732 22.58C196.18 23.4573 196.404 24.3533 196.404 25.268C196.404 26.3507 196.199 27.2467 195.788 27.956C195.396 28.6467 194.874 29.16 194.22 29.496C193.567 29.832 192.876 30 192.148 30C191.551 30 190.823 29.9067 189.964 29.72C189.106 29.5147 188.098 29.048 186.94 28.32C186.343 29.104 185.727 29.608 185.092 29.832C184.458 30.0373 183.702 30.14 182.824 30.14ZM188.368 25.772C188.312 25.884 188.266 25.9867 188.228 26.08C188.975 26.5093 189.647 26.808 190.244 26.976C190.86 27.144 191.383 27.228 191.812 27.228C192.54 27.228 193.063 27.0787 193.38 26.78C193.698 26.4627 193.856 26.0427 193.856 25.52C193.856 25.0347 193.735 24.54 193.492 24.036C193.268 23.532 192.96 23.112 192.568 22.776C192.195 22.44 191.794 22.272 191.364 22.272C190.823 22.272 190.338 22.524 189.908 23.028C189.479 23.532 188.966 24.4467 188.368 25.772Z" fill="white"/>
<g id="GPay Logo (Dark)">
<g id="GPay">
<g id="Pay">
<path id="Fill 1" fill-rule="evenodd" clip-rule="evenodd" d="M248.529 9.34665V17.5128H253.565C254.765 17.5128 255.757 17.1096 256.541 16.3032C257.347 15.4988 257.75 14.5394 257.75 13.4288C257.75 12.3406 257.347 11.3924 256.541 10.586C255.757 9.75916 254.765 9.34479 253.565 9.34479H248.529V9.34665ZM248.529 20.3872V29.8599H245.521V6.47218H253.499C255.527 6.47218 257.248 7.14787 258.666 8.49738C260.105 9.84688 260.824 11.4913 260.824 13.4288C260.824 15.411 260.105 17.0667 258.666 18.3938C257.27 19.7227 255.547 20.3854 253.499 20.3854H248.529V20.3872Z" fill="white"/>
<path id="Fill 3" fill-rule="evenodd" clip-rule="evenodd" d="M263.864 24.9602C263.864 25.7442 264.197 26.3975 264.862 26.9201C265.527 27.4427 266.306 27.704 267.2 27.704C268.465 27.704 269.591 27.2354 270.584 26.3004C271.576 25.3634 272.071 24.264 272.071 23.0022C271.133 22.2612 269.825 21.8916 268.147 21.8916C266.925 21.8916 265.907 22.1866 265.09 22.7745C264.273 23.3623 263.864 24.0886 263.864 24.9602ZM267.756 13.3317C269.98 13.3317 271.735 13.9253 273.022 15.1124C274.308 16.2995 274.95 17.9271 274.95 19.9952V29.8599H272.073V27.6387H271.942C270.699 29.4677 269.042 30.3825 266.972 30.3825C265.206 30.3825 263.728 29.8599 262.541 28.8146C261.353 27.7694 260.759 26.4628 260.759 24.8949C260.759 23.2393 261.385 21.9232 262.638 20.9434C263.892 19.9635 265.565 19.4726 267.658 19.4726C269.444 19.4726 270.916 19.7993 272.071 20.4525V19.7657C272.071 18.7204 271.656 17.8338 270.829 17.104C269.999 16.3742 269.031 16.0102 267.919 16.0102C266.239 16.0102 264.911 16.7176 263.93 18.1343L261.28 16.4675C262.741 14.377 264.899 13.3317 267.756 13.3317Z" fill="white"/>
<path id="Fill 5" fill-rule="evenodd" clip-rule="evenodd" d="M291.463 13.8543L281.424 36.9154H278.318L282.046 28.8464L275.44 13.8543H278.71L283.484 25.3522H283.55L288.193 13.8543H291.463Z" fill="white"/>
</g>
<g id="G">
<path id="Fill 8" fill-rule="evenodd" clip-rule="evenodd" d="M236.373 18.3452C236.373 17.3989 236.293 16.4861 236.141 15.6126H223.454V20.7885H230.72C230.408 22.4757 229.465 23.9112 228.033 24.8725V28.2341H232.37C234.91 25.8935 236.373 22.4348 236.373 18.3452Z" fill="#4285F4"/>
<path id="Fill 10" fill-rule="evenodd" clip-rule="evenodd" d="M223.454 31.4782C227.084 31.4782 230.141 30.2873 232.37 28.2341L228.033 24.8725C226.826 25.6844 225.272 26.1585 223.454 26.1585C219.944 26.1585 216.966 23.7955 215.901 20.6112H211.433V24.0736C213.647 28.4637 218.197 31.4782 223.454 31.4782Z" fill="#34A853"/>
<path id="Fill 12" fill-rule="evenodd" clip-rule="evenodd" d="M215.901 20.6111C215.628 19.7992 215.479 18.9331 215.479 18.0391C215.479 17.145 215.628 16.2789 215.901 15.467V12.0045H211.433C210.518 13.8188 210 15.8683 210 18.0391C210 20.2098 210.518 22.2595 211.433 24.0736L215.901 20.6111Z" fill="#FABB05"/>
<path id="Fill 14" fill-rule="evenodd" clip-rule="evenodd" d="M223.454 9.91964C225.436 9.91964 227.213 10.6009 228.615 11.9355V11.9374L232.455 8.10163C230.123 5.93272 227.082 4.60001 223.454 4.60001C218.197 4.60001 213.647 7.61447 211.433 12.0046L215.901 15.467C216.966 12.2827 219.944 9.91964 223.454 9.91964Z" fill="#E94235"/>
</g>
</g>
</g>
</g>
</svg>
