<svg width="322" height="38" viewBox="0 0 322 38" fill="none" xmlns="http://www.w3.org/2000/svg">
<g id="ar_subscribe_with_Dark">
<path id="Text" d="M11.6251 14.992C11.6251 14.5253 11.5971 14.0027 11.5411 13.424C11.4851 12.8267 11.4104 12.2387 11.3171 11.66C11.2424 11.0813 11.1678 10.5867 11.0931 10.176L13.9491 9.84C14.0238 10.2133 14.0891 10.708 14.1451 11.324C14.2198 11.9213 14.2758 12.5373 14.3131 13.172C14.3691 13.788 14.3971 14.32 14.3971 14.768C14.3971 17.12 13.9304 19.2667 12.9971 21.208C13.9304 22.1787 14.5931 23.0653 14.9851 23.868C15.3958 24.652 15.6011 25.3987 15.6011 26.108C15.6011 26.7053 15.4611 27.3027 15.1811 27.9C14.9198 28.4973 14.4438 29.0013 13.7531 29.412C13.0624 29.804 12.0824 30 10.8131 30H3.84109V27.284C6.54776 25.3427 8.50776 23.4573 9.72109 21.628C8.67576 20.7133 7.46243 19.7427 6.08109 18.716C4.71843 17.6893 3.27176 16.6533 1.74109 15.608L3.28109 13.424C6.54776 15.7013 9.09576 17.6333 10.9251 19.22C11.1678 18.5667 11.3451 17.8853 11.4571 17.176C11.5691 16.4667 11.6251 15.7387 11.6251 14.992ZM7.67709 27.256H10.7011C11.6531 27.256 12.2784 27.116 12.5771 26.836C12.8758 26.5373 13.0251 26.192 13.0251 25.8C13.0251 25.52 12.9038 25.184 12.6611 24.792C12.4184 24.3813 12.0731 23.9427 11.6251 23.476C10.6171 24.8387 9.30109 26.0987 7.67709 27.256ZM26.0001 30.14C24.4135 30.14 23.2001 29.972 22.3601 29.636C21.5388 29.2813 20.9601 28.7493 20.6241 28.04C20.3068 27.312 20.1295 26.3787 20.0921 25.24L19.5321 9.868H22.3041L22.8921 24.064C22.9295 24.96 23.0135 25.6507 23.1441 26.136C23.2935 26.6027 23.6015 26.9293 24.0681 27.116C24.5348 27.284 25.2721 27.368 26.2801 27.368C26.7468 27.368 27.0921 27.4987 27.3161 27.76C27.5401 28.0213 27.6521 28.3293 27.6521 28.684C27.6521 29.076 27.4935 29.4213 27.1761 29.72C26.8775 30 26.4855 30.14 26.0001 30.14ZM26.2953 30.14L26.5753 27.368C27.1726 27.368 27.658 27.3213 28.0313 27.228C28.4233 27.1347 28.7406 26.92 28.9833 26.584C29.2446 26.2293 29.478 25.6787 29.6833 24.932C29.9073 24.1667 30.1593 23.1307 30.4393 21.824L32.9873 22.44C32.894 22.9067 32.7726 23.4573 32.6233 24.092C32.4926 24.7267 32.4273 25.3053 32.4273 25.828C32.4273 26.2947 32.5953 26.668 32.9313 26.948C33.286 27.228 33.93 27.368 34.8633 27.368C35.386 27.368 35.8246 27.3213 36.1793 27.228C36.534 27.1347 36.8326 26.9107 37.0753 26.556C37.318 26.1827 37.5326 25.6133 37.7193 24.848C37.906 24.064 38.102 22.9907 38.3073 21.628L40.9113 22.076C40.8366 22.4307 40.762 22.8507 40.6873 23.336C40.6126 23.8213 40.5473 24.2973 40.4913 24.764C40.4353 25.2307 40.4073 25.6133 40.4073 25.912C40.4073 26.1733 40.4633 26.416 40.5753 26.64C40.706 26.864 40.9486 27.0413 41.3033 27.172C41.6766 27.3027 42.2273 27.368 42.9553 27.368C43.87 27.368 44.5326 27.1813 44.9433 26.808C45.354 26.416 45.5593 25.828 45.5593 25.044C45.5593 24.3907 45.5406 23.6813 45.5033 22.916C45.466 22.132 45.3726 21.152 45.2233 19.976L47.7153 19.808C47.8273 21.3387 47.958 22.5987 48.1073 23.588C48.2753 24.5773 48.49 25.352 48.7513 25.912C49.0313 26.4533 49.4046 26.836 49.8713 27.06C50.3566 27.2653 50.9913 27.368 51.7753 27.368C52.2606 27.368 52.606 27.4987 52.8113 27.76C53.0353 28.0213 53.1473 28.3293 53.1473 28.684C53.1473 29.076 52.998 29.4213 52.6993 29.72C52.4006 30 51.9993 30.14 51.4953 30.14C50.4686 30.14 49.5726 29.9253 48.8073 29.496C48.042 29.048 47.4726 28.404 47.0993 27.564C46.7073 28.5907 46.1286 29.2813 45.3633 29.636C44.598 29.972 43.7113 30.14 42.7033 30.14C41.7513 30.14 40.9673 30 40.3513 29.72C39.7353 29.44 39.2966 28.992 39.0353 28.376C38.5686 29.1227 37.9993 29.608 37.3273 29.832C36.6553 30.0373 35.7313 30.14 34.5553 30.14C34.126 30.14 33.6873 30.0933 33.2393 30C32.7913 29.9067 32.3713 29.7293 31.9793 29.468C31.5873 29.188 31.27 28.7773 31.0273 28.236C30.5046 29.0573 29.8513 29.58 29.0673 29.804C28.302 30.028 27.378 30.14 26.2953 30.14ZM39.0353 14.18C38.6246 14.18 38.27 14.04 37.9713 13.76C37.6913 13.4613 37.5513 13.1067 37.5513 12.696C37.5513 12.2667 37.6913 11.912 37.9713 11.632C38.27 11.3333 38.6246 11.184 39.0353 11.184C39.446 11.184 39.7913 11.3333 40.0713 11.632C40.37 11.912 40.5193 12.2667 40.5193 12.696C40.5193 13.1067 40.37 13.4613 40.0713 13.76C39.7913 14.04 39.446 14.18 39.0353 14.18ZM37.0473 17.428C36.618 17.428 36.254 17.288 35.9553 17.008C35.6753 16.7093 35.5353 16.3547 35.5353 15.944C35.5353 15.5333 35.6753 15.188 35.9553 14.908C36.254 14.6093 36.618 14.46 37.0473 14.46C37.458 14.46 37.8033 14.6093 38.0833 14.908C38.382 15.188 38.5313 15.5333 38.5313 15.944C38.5313 16.3547 38.382 16.7093 38.0833 17.008C37.8033 17.288 37.458 17.428 37.0473 17.428ZM41.0233 17.428C40.594 17.428 40.23 17.288 39.9313 17.008C39.6513 16.7093 39.5113 16.3547 39.5113 15.944C39.5113 15.5333 39.6513 15.188 39.9313 14.908C40.23 14.6093 40.594 14.46 41.0233 14.46C41.434 14.46 41.7793 14.6093 42.0593 14.908C42.3393 15.188 42.4793 15.5333 42.4793 15.944C42.4793 16.3547 42.3393 16.7093 42.0593 17.008C41.7793 17.288 41.434 17.428 41.0233 17.428ZM51.8063 30.14L52.0863 27.368C53.1876 27.368 54.0463 27.3213 54.6623 27.228C55.2783 27.1347 55.7076 26.9293 55.9503 26.612C56.2116 26.276 56.3423 25.7533 56.3423 25.044C56.3423 24.5587 56.2676 23.98 56.1183 23.308C55.9689 22.636 55.7729 21.936 55.5303 21.208C55.2876 20.4613 55.0449 19.7333 54.8023 19.024L57.5183 18.128C57.7423 18.744 57.9663 19.444 58.1903 20.228C58.4329 21.012 58.6289 21.8053 58.7783 22.608C58.9276 23.392 59.0023 24.1013 59.0023 24.736C59.0023 26.1173 58.7316 27.2 58.1903 27.984C57.6676 28.768 56.8743 29.328 55.8103 29.664C54.7463 29.9813 53.4116 30.14 51.8063 30.14ZM58.3583 15.412C57.9289 15.412 57.5556 15.2627 57.2383 14.964C56.9396 14.6467 56.7903 14.2827 56.7903 13.872C56.7903 13.4613 56.9396 13.0973 57.2383 12.78C57.5556 12.4627 57.9289 12.304 58.3583 12.304C58.7689 12.304 59.1236 12.4627 59.4223 12.78C59.7396 13.0973 59.8983 13.4613 59.8983 13.872C59.8983 14.2827 59.7396 14.6467 59.4223 14.964C59.1236 15.2627 58.7689 15.412 58.3583 15.412ZM54.2143 15.412C53.7849 15.412 53.4209 15.2627 53.1223 14.964C52.8236 14.6467 52.6743 14.2827 52.6743 13.872C52.6743 13.4427 52.8236 13.0787 53.1223 12.78C53.4209 12.4627 53.7849 12.304 54.2143 12.304C54.6249 12.304 54.9796 12.4627 55.2783 12.78C55.5956 13.0787 55.7543 13.4427 55.7543 13.872C55.7543 14.2827 55.5956 14.6467 55.2783 14.964C54.9796 15.2627 54.6249 15.412 54.2143 15.412ZM60.3693 36.44L59.3613 33.892C61.172 33.3133 62.5813 32.6227 63.5893 31.82C64.5973 31.036 65.3066 30.2147 65.7173 29.356C66.128 28.4973 66.3333 27.6573 66.3333 26.836C66.3333 26.3133 66.268 25.8 66.1373 25.296C66.0253 24.792 65.8293 24.232 65.5493 23.616C65.2693 22.9813 64.896 22.244 64.4293 21.404L66.9493 20.144C67.64 21.376 68.144 22.5427 68.4613 23.644C68.7973 24.7453 68.9653 25.7253 68.9653 26.584C68.9653 27.9653 68.704 29.1973 68.1813 30.28C67.6773 31.3627 66.996 32.3053 66.1373 33.108C65.2973 33.9293 64.3733 34.6107 63.3653 35.152C62.3573 35.712 61.3586 36.1413 60.3693 36.44ZM79.4267 30.14C77.84 30.14 76.6267 29.972 75.7867 29.636C74.9654 29.2813 74.3867 28.7493 74.0507 28.04C73.7334 27.312 73.556 26.3787 73.5187 25.24L72.9587 9.868H75.7307L76.3187 24.064C76.356 24.96 76.44 25.6507 76.5707 26.136C76.72 26.6027 77.028 26.9293 77.4947 27.116C77.9614 27.284 78.6987 27.368 79.7067 27.368C80.1734 27.368 80.5187 27.4987 80.7427 27.76C80.9667 28.0213 81.0787 28.3293 81.0787 28.684C81.0787 29.076 80.92 29.4213 80.6027 29.72C80.304 30 79.912 30.14 79.4267 30.14ZM79.7219 30.14L80.0019 27.368H83.0259C84.2205 27.368 85.1072 27.284 85.6859 27.116C86.2645 26.948 86.6472 26.724 86.8339 26.444C87.0205 26.164 87.1139 25.8653 87.1139 25.548C87.1139 25.1933 86.9645 24.7173 86.6659 24.12C86.3672 23.5227 85.7512 22.7667 84.8179 21.852C84.1645 21.1987 83.5019 20.6013 82.8299 20.06C82.1579 19.5 81.5885 19.024 81.1219 18.632C80.6739 18.24 80.4499 17.96 80.4499 17.792C80.4499 17.3813 80.4965 16.9613 80.5899 16.532C80.6832 16.1027 80.8325 15.7947 81.0379 15.608C81.7472 14.8613 82.9325 14.0587 84.5939 13.2C86.2552 12.3413 88.2992 11.324 90.7259 10.148L91.8739 12.612C90.3805 13.3213 89.1112 13.928 88.0659 14.432C87.0392 14.936 86.1525 15.3933 85.4059 15.804C84.6779 16.196 84.0059 16.5973 83.3899 17.008C85.7232 18.8933 87.3845 20.5267 88.3739 21.908C89.3819 23.2893 89.8859 24.6053 89.8859 25.856C89.8859 26.2853 89.8019 26.752 89.6339 27.256C89.4659 27.7413 89.1299 28.208 88.6259 28.656C88.1219 29.0853 87.3752 29.44 86.3859 29.72C85.4152 30 84.1272 30.14 82.5219 30.14H79.7219ZM110.663 30.588C107.135 30.588 104.531 30.112 102.851 29.16C101.171 28.1893 100.331 26.7147 100.331 24.736C100.331 23.9893 100.415 23.2053 100.583 22.384C100.769 21.5627 100.965 20.8067 101.171 20.116L103.663 20.704C103.551 21.1707 103.429 21.712 103.299 22.328C103.168 22.9253 103.103 23.4573 103.103 23.924C103.103 24.82 103.345 25.5573 103.831 26.136C104.335 26.7147 105.184 27.144 106.379 27.424C107.592 27.6853 109.263 27.816 111.391 27.816C115.535 27.816 118.568 27.5827 120.491 27.116C122.432 26.6493 123.403 25.8187 123.403 24.624C123.403 23.9333 123.272 23.1213 123.011 22.188C122.768 21.236 122.451 20.2467 122.059 19.22L124.663 18.38C125.017 19.2947 125.344 20.3027 125.643 21.404C125.96 22.4867 126.119 23.4667 126.119 24.344C126.119 25.464 125.867 26.4253 125.363 27.228C124.859 28.012 124.019 28.656 122.843 29.16C121.685 29.6453 120.108 30 118.111 30.224C116.113 30.4667 113.631 30.588 110.663 30.588ZM113.211 36.272C112.781 36.272 112.408 36.1227 112.091 35.824C111.792 35.5253 111.643 35.1613 111.643 34.732C111.643 34.3213 111.792 33.9573 112.091 33.64C112.408 33.3227 112.781 33.164 113.211 33.164C113.621 33.164 113.976 33.3227 114.275 33.64C114.592 33.9573 114.751 34.3213 114.751 34.732C114.751 35.1613 114.592 35.5253 114.275 35.824C113.976 36.1227 113.621 36.272 113.211 36.272ZM136.189 30.14C134.603 30.14 133.389 29.972 132.549 29.636C131.728 29.2813 131.149 28.7493 130.813 28.04C130.496 27.312 130.319 26.3787 130.281 25.24L129.721 9.868H132.493L133.081 24.064C133.119 24.96 133.203 25.6507 133.333 26.136C133.483 26.6027 133.791 26.9293 134.257 27.116C134.724 27.284 135.461 27.368 136.469 27.368C136.936 27.368 137.281 27.4987 137.505 27.76C137.729 28.0213 137.841 28.3293 137.841 28.684C137.841 29.076 137.683 29.4213 137.365 29.72C137.067 30 136.675 30.14 136.189 30.14ZM136.484 30.14L136.764 27.368C137.362 27.368 137.847 27.3213 138.22 27.228C138.612 27.1347 138.93 26.92 139.172 26.584C139.434 26.2293 139.667 25.6787 139.872 24.932C140.096 24.1667 140.348 23.1307 140.628 21.824L143.176 22.44C143.083 22.9067 142.962 23.4573 142.812 24.092C142.682 24.7267 142.616 25.3053 142.616 25.828C142.616 26.2947 142.784 26.668 143.12 26.948C143.475 27.228 144.119 27.368 145.052 27.368C145.575 27.368 146.014 27.3213 146.368 27.228C146.723 27.1347 147.022 26.9107 147.264 26.556C147.507 26.1827 147.722 25.6133 147.908 24.848C148.095 24.064 148.291 22.9907 148.496 21.628L151.1 22.076C151.026 22.4307 150.951 22.8507 150.876 23.336C150.802 23.8213 150.736 24.2973 150.68 24.764C150.624 25.2307 150.596 25.6133 150.596 25.912C150.596 26.1733 150.652 26.416 150.764 26.64C150.895 26.864 151.138 27.0413 151.492 27.172C151.866 27.3027 152.416 27.368 153.144 27.368C154.059 27.368 154.722 27.1813 155.132 26.808C155.543 26.416 155.748 25.828 155.748 25.044C155.748 24.3907 155.73 23.6813 155.692 22.916C155.655 22.132 155.562 21.152 155.412 19.976L157.904 19.808C158.016 21.3387 158.147 22.5987 158.296 23.588C158.464 24.5773 158.679 25.352 158.94 25.912C159.22 26.4533 159.594 26.836 160.06 27.06C160.546 27.2653 161.18 27.368 161.964 27.368C162.45 27.368 162.795 27.4987 163 27.76C163.224 28.0213 163.336 28.3293 163.336 28.684C163.336 29.076 163.187 29.4213 162.888 29.72C162.59 30 162.188 30.14 161.684 30.14C160.658 30.14 159.762 29.9253 158.996 29.496C158.231 29.048 157.662 28.404 157.288 27.564C156.896 28.5907 156.318 29.2813 155.552 29.636C154.787 29.972 153.9 30.14 152.892 30.14C151.94 30.14 151.156 30 150.54 29.72C149.924 29.44 149.486 28.992 149.224 28.376C148.758 29.1227 148.188 29.608 147.516 29.832C146.844 30.0373 145.92 30.14 144.744 30.14C144.315 30.14 143.876 30.0933 143.428 30C142.98 29.9067 142.56 29.7293 142.168 29.468C141.776 29.188 141.459 28.7773 141.216 28.236C140.694 29.0573 140.04 29.58 139.256 29.804C138.491 30.028 137.567 30.14 136.484 30.14ZM161.995 30.14L162.275 27.368C163.134 27.368 163.815 27.3027 164.319 27.172C164.823 27.0227 165.215 26.752 165.495 26.36C165.794 25.9493 166.037 25.3613 166.223 24.596C166.429 23.8307 166.643 22.8133 166.867 21.544L169.499 22.02C169.387 22.5053 169.266 23.0653 169.135 23.7C169.023 24.3347 168.967 24.8853 168.967 25.352C168.967 25.7627 169.033 26.1173 169.163 26.416C169.313 26.7147 169.667 26.948 170.227 27.116C170.787 27.284 171.721 27.368 173.027 27.368C173.513 27.368 173.858 27.4987 174.063 27.76C174.269 28.0213 174.371 28.3293 174.371 28.684C174.371 29.076 174.222 29.4213 173.923 29.72C173.625 30 173.233 30.14 172.747 30.14C171.086 30.14 169.873 29.9813 169.107 29.664C168.361 29.3467 167.857 28.8427 167.595 28.152C166.979 28.992 166.223 29.5333 165.327 29.776C164.431 30.0187 163.321 30.14 161.995 30.14ZM169.919 18.772C169.49 18.772 169.117 18.6227 168.799 18.324C168.501 18.0067 168.351 17.6427 168.351 17.232C168.351 16.8213 168.501 16.4573 168.799 16.14C169.117 15.8227 169.49 15.664 169.919 15.664C170.33 15.664 170.685 15.8227 170.983 16.14C171.301 16.4573 171.459 16.8213 171.459 17.232C171.459 17.6427 171.301 18.0067 170.983 18.324C170.685 18.6227 170.33 18.772 169.919 18.772ZM165.775 18.772C165.346 18.772 164.982 18.6227 164.683 18.324C164.385 18.0067 164.235 17.6427 164.235 17.232C164.235 16.8027 164.385 16.4387 164.683 16.14C164.982 15.8227 165.346 15.664 165.775 15.664C166.186 15.664 166.541 15.8227 166.839 16.14C167.157 16.4387 167.315 16.8027 167.315 17.232C167.315 17.6427 167.157 18.0067 166.839 18.324C166.541 18.6227 166.186 18.772 165.775 18.772ZM173.041 30.14L173.293 27.368C175.253 27.368 177.148 27.1067 178.977 26.584C180.807 26.0427 182.468 25.2587 183.961 24.232C183.215 23.6347 182.309 23.1587 181.245 22.804C180.2 22.4307 179.052 22.244 177.801 22.244C176.943 22.244 176.056 22.3467 175.141 22.552L174.665 19.92C175.188 19.7707 175.711 19.6587 176.233 19.584C176.756 19.5093 177.26 19.472 177.745 19.472C178.977 19.472 180.069 19.6493 181.021 20.004C181.973 20.34 182.832 20.732 183.597 21.18C184.363 21.6093 185.091 22.0013 185.781 22.356C186.472 22.692 187.172 22.86 187.881 22.86H188.609L188.861 25.38C187.891 25.3987 187.004 25.576 186.201 25.912C185.417 26.2293 184.624 26.6213 183.821 27.088C183.037 27.5547 182.151 28.0213 181.161 28.488C180.191 28.9547 179.052 29.3467 177.745 29.664C176.439 29.9813 174.871 30.14 173.041 30.14ZM177.773 16.644C177.325 16.644 176.943 16.4947 176.625 16.196C176.327 15.8973 176.177 15.524 176.177 15.076C176.177 14.6467 176.327 14.2733 176.625 13.956C176.943 13.6387 177.325 13.48 177.773 13.48C178.203 13.48 178.567 13.6387 178.865 13.956C179.183 14.2733 179.341 14.6467 179.341 15.076C179.341 15.524 179.183 15.8973 178.865 16.196C178.567 16.4947 178.203 16.644 177.773 16.644ZM191.138 28.768L192.342 26.36C192.808 26.64 193.368 26.8827 194.022 27.088C194.694 27.2747 195.431 27.368 196.234 27.368C197.503 27.368 198.418 27.1813 198.978 26.808C199.538 26.416 199.818 25.884 199.818 25.212C199.818 24.8573 199.734 24.4093 199.566 23.868C199.398 23.308 199.052 22.5613 198.53 21.628C198.007 20.6947 197.223 19.4907 196.178 18.016L198.502 16.476C199.939 18.492 200.984 20.2653 201.638 21.796C202.31 23.308 202.646 24.5493 202.646 25.52C202.646 26.3413 202.44 27.1067 202.03 27.816C201.619 28.5253 200.947 29.0947 200.014 29.524C199.099 29.9533 197.886 30.168 196.374 30.168C195.403 30.168 194.451 30.0467 193.518 29.804C192.584 29.5613 191.791 29.216 191.138 28.768ZM212.529 30.14C210.942 30.14 209.729 29.972 208.889 29.636C208.068 29.2813 207.489 28.7493 207.153 28.04C206.836 27.312 206.658 26.3787 206.621 25.24L206.061 9.868H208.833L209.421 24.064C209.458 24.96 209.542 25.6507 209.673 26.136C209.822 26.6027 210.13 26.9293 210.597 27.116C211.064 27.284 211.801 27.368 212.809 27.368C213.276 27.368 213.621 27.4987 213.845 27.76C214.069 28.0213 214.181 28.3293 214.181 28.684C214.181 29.076 214.022 29.4213 213.705 29.72C213.406 30 213.014 30.14 212.529 30.14ZM212.824 30.14L213.104 27.368C213.59 27.368 214 27.256 214.336 27.032C214.691 26.808 215.027 26.4347 215.344 25.912C215.68 25.3893 216.063 24.6893 216.492 23.812C217.034 22.6547 217.584 21.768 218.144 21.152C218.704 20.5173 219.264 20.088 219.824 19.864C220.384 19.6213 220.944 19.5 221.504 19.5C222.419 19.5 223.24 19.7893 223.968 20.368C224.715 20.9467 225.303 21.684 225.732 22.58C226.18 23.4573 226.404 24.3533 226.404 25.268C226.404 26.3507 226.199 27.2467 225.788 27.956C225.396 28.6467 224.874 29.16 224.22 29.496C223.567 29.832 222.876 30 222.148 30C221.551 30 220.823 29.9067 219.964 29.72C219.106 29.5147 218.098 29.048 216.94 28.32C216.343 29.104 215.727 29.608 215.092 29.832C214.458 30.0373 213.702 30.14 212.824 30.14ZM218.368 25.772C218.312 25.884 218.266 25.9867 218.228 26.08C218.975 26.5093 219.647 26.808 220.244 26.976C220.86 27.144 221.383 27.228 221.812 27.228C222.54 27.228 223.063 27.0787 223.38 26.78C223.698 26.4627 223.856 26.0427 223.856 25.52C223.856 25.0347 223.735 24.54 223.492 24.036C223.268 23.532 222.96 23.112 222.568 22.776C222.195 22.44 221.794 22.272 221.364 22.272C220.823 22.272 220.338 22.524 219.908 23.028C219.479 23.532 218.966 24.4467 218.368 25.772Z" fill="white"/>
<g id="GPay Logo (Dark)">
<g id="GPay">
<g id="Pay">
<path id="Fill 1" fill-rule="evenodd" clip-rule="evenodd" d="M278.529 9.34665V17.5128H283.565C284.765 17.5128 285.757 17.1096 286.541 16.3032C287.347 15.4988 287.75 14.5394 287.75 13.4288C287.75 12.3406 287.347 11.3924 286.541 10.586C285.757 9.75916 284.765 9.34479 283.565 9.34479H278.529V9.34665ZM278.529 20.3872V29.8599H275.521V6.47218H283.499C285.527 6.47218 287.248 7.14787 288.666 8.49738C290.105 9.84688 290.824 11.4913 290.824 13.4288C290.824 15.411 290.105 17.0667 288.666 18.3938C287.27 19.7227 285.547 20.3854 283.499 20.3854H278.529V20.3872Z" fill="white"/>
<path id="Fill 3" fill-rule="evenodd" clip-rule="evenodd" d="M293.864 24.9602C293.864 25.7442 294.197 26.3975 294.862 26.9201C295.527 27.4427 296.306 27.704 297.2 27.704C298.465 27.704 299.591 27.2354 300.584 26.3004C301.576 25.3634 302.071 24.264 302.071 23.0022C301.133 22.2612 299.825 21.8916 298.147 21.8916C296.925 21.8916 295.907 22.1866 295.09 22.7745C294.273 23.3623 293.864 24.0886 293.864 24.9602ZM297.756 13.3317C299.98 13.3317 301.735 13.9253 303.022 15.1124C304.308 16.2995 304.95 17.9271 304.95 19.9952V29.8599H302.073V27.6387H301.942C300.699 29.4677 299.042 30.3825 296.972 30.3825C295.206 30.3825 293.728 29.8599 292.541 28.8146C291.353 27.7694 290.759 26.4628 290.759 24.8949C290.759 23.2393 291.385 21.9232 292.638 20.9434C293.892 19.9635 295.565 19.4726 297.658 19.4726C299.444 19.4726 300.916 19.7993 302.071 20.4525V19.7657C302.071 18.7204 301.656 17.8338 300.829 17.104C299.999 16.3742 299.031 16.0102 297.919 16.0102C296.239 16.0102 294.911 16.7176 293.93 18.1343L291.28 16.4675C292.741 14.377 294.899 13.3317 297.756 13.3317Z" fill="white"/>
<path id="Fill 5" fill-rule="evenodd" clip-rule="evenodd" d="M321.463 13.8543L311.424 36.9154H308.318L312.046 28.8464L305.44 13.8543H308.71L313.484 25.3522H313.55L318.193 13.8543H321.463Z" fill="white"/>
</g>
<g id="G">
<path id="Fill 8" fill-rule="evenodd" clip-rule="evenodd" d="M266.373 18.3452C266.373 17.3989 266.293 16.4861 266.141 15.6126H253.454V20.7885H260.72C260.408 22.4757 259.465 23.9112 258.033 24.8725V28.2341H262.37C264.91 25.8935 266.373 22.4348 266.373 18.3452Z" fill="#4285F4"/>
<path id="Fill 10" fill-rule="evenodd" clip-rule="evenodd" d="M253.454 31.4782C257.084 31.4782 260.141 30.2873 262.37 28.2341L258.033 24.8725C256.826 25.6844 255.272 26.1585 253.454 26.1585C249.944 26.1585 246.966 23.7955 245.901 20.6112H241.433V24.0736C243.647 28.4637 248.197 31.4782 253.454 31.4782Z" fill="#34A853"/>
<path id="Fill 12" fill-rule="evenodd" clip-rule="evenodd" d="M245.901 20.6111C245.628 19.7992 245.479 18.9331 245.479 18.0391C245.479 17.145 245.628 16.2789 245.901 15.467V12.0045H241.433C240.518 13.8188 240 15.8683 240 18.0391C240 20.2098 240.518 22.2595 241.433 24.0736L245.901 20.6111Z" fill="#FABB05"/>
<path id="Fill 14" fill-rule="evenodd" clip-rule="evenodd" d="M253.454 9.91964C255.436 9.91964 257.213 10.6009 258.615 11.9355V11.9374L262.455 8.10163C260.123 5.93272 257.082 4.60001 253.454 4.60001C248.197 4.60001 243.647 7.61447 241.433 12.0046L245.901 15.467C246.966 12.2827 249.944 9.91964 253.454 9.91964Z" fill="#E94235"/>
</g>
</g>
</g>
</g>
</svg>
