<svg width="174" height="21" viewBox="0 0 174 21" fill="none" xmlns="http://www.w3.org/2000/svg">
<g id="ar_subscribe_with_Pay_NBG">
<g id="GPay (Dark)">
<g id="GPay">
<g id="Pay">
<path id="Fill 1" fill-rule="evenodd" clip-rule="evenodd" d="M22.3563 3.42339V8.16175H25.2784C25.9745 8.16175 26.5501 7.92781 27.0055 7.45993C27.4728 6.99313 27.707 6.43644 27.707 5.79203C27.707 5.16061 27.4728 4.61041 27.0055 4.14254C26.5501 3.66274 25.9745 3.4223 25.2784 3.4223H22.3563V3.42339ZM22.3563 9.82966V15.3262H20.6107V1.75549H25.2404C26.4169 1.75549 27.4154 2.14756 28.2383 2.93061C29.0732 3.71365 29.4906 4.66782 29.4906 5.79203C29.4906 6.94224 29.0731 7.90291 28.2383 8.67296C27.4283 9.44409 26.4287 9.82858 25.2404 9.82858H22.3563V9.82966Z" fill="white"/>
<path id="Fill 3" fill-rule="evenodd" clip-rule="evenodd" d="M31.2546 12.4831C31.2546 12.9379 31.4476 13.317 31.8337 13.6203C32.2195 13.9235 32.6717 14.0752 33.19 14.0752C33.9239 14.0752 34.5777 13.8032 35.1535 13.2607C35.7293 12.717 36.0165 12.0791 36.0165 11.3469C35.4722 10.917 34.7133 10.7025 33.7396 10.7025C33.0306 10.7025 32.4397 10.8736 31.9659 11.2148C31.492 11.5559 31.2546 11.9773 31.2546 12.4831M33.513 5.73566C34.8033 5.73566 35.8214 6.08007 36.5685 6.76889C37.3145 7.45771 37.6873 8.40213 37.6873 9.60216V15.3261H36.0177V14.0373H35.9417C35.2207 15.0985 34.259 15.6294 33.0578 15.6294C32.0332 15.6294 31.1755 15.3261 30.4869 14.7196C29.7975 14.1131 29.4527 13.3549 29.4527 12.4452C29.4527 11.4845 29.8158 10.7208 30.5433 10.1523C31.2708 9.58375 32.2413 9.2989 33.4557 9.2989C34.4921 9.2989 35.3465 9.48844 36.0165 9.86751V9.46894C36.0165 8.86243 35.7758 8.34798 35.2956 7.92451C34.8141 7.50103 34.2525 7.28984 33.6074 7.28984C32.6326 7.28984 31.8618 7.70032 31.2926 8.52235L29.7551 7.55519C30.6029 6.34217 31.8552 5.73566 33.513 5.73566" fill="white"/>
<path id="Fill 5" fill-rule="evenodd" clip-rule="evenodd" d="M47.2687 6.03894L41.4432 19.4201H39.6411L41.8043 14.738L37.9714 6.03894H39.8688L42.639 12.7106H42.677L45.3713 6.03894H47.2687Z" fill="white"/>
</g>
<g id="G">
<path id="Fill 8" fill-rule="evenodd" clip-rule="evenodd" d="M15.3029 8.64473C15.3029 8.09563 15.2562 7.56601 15.1684 7.05914H7.80648V10.0625H12.0231C11.842 11.0414 11.2945 11.8744 10.4639 12.4322V14.3828H12.9804C14.4539 13.0246 15.3029 11.0177 15.3029 8.64473" fill="#4285F4"/>
<path id="Fill 10" fill-rule="evenodd" clip-rule="evenodd" d="M7.80646 16.2651C9.91313 16.2651 11.6869 15.5741 12.9804 14.3828L10.4639 12.4322C9.7635 12.9033 8.86142 13.1784 7.80646 13.1784C5.77028 13.1784 4.04201 11.8073 3.424 9.95959H0.831596V11.9687C2.11641 14.516 4.75652 16.2651 7.80646 16.2651" fill="#34A853"/>
<path id="Fill 12" fill-rule="evenodd" clip-rule="evenodd" d="M3.42401 9.9596C3.26571 9.48847 3.17897 8.98593 3.17897 8.46715C3.17897 7.94837 3.26571 7.44583 3.42401 6.9747V4.96564H0.831606C0.300332 6.01837 0 7.20756 0 8.46715C0 9.72674 0.300332 10.916 0.831606 11.9687L3.42401 9.9596Z" fill="#FABB05"/>
<path id="Fill 14" fill-rule="evenodd" clip-rule="evenodd" d="M7.80646 3.75583C8.95683 3.75583 9.98794 4.15115 10.8011 4.92553V4.92661L13.0292 2.70094C11.6761 1.44243 9.91204 0.669128 7.80646 0.669128C4.75652 0.669128 2.11641 2.41826 0.831596 4.9656L3.424 6.97467C4.04201 5.12698 5.77028 3.75583 7.80646 3.75583" fill="#E94235"/>
</g>
</g>
</g>
<path id="Right Text" d="M55.6152 21.2886C55.4232 20.5953 55.2632 19.9073 55.1352 19.2246C55.0072 18.5526 54.9112 17.9339 54.8472 17.3686C54.7832 16.8033 54.7512 16.3393 54.7512 15.9766C54.7512 15.3259 54.8686 14.7873 55.1032 14.3606C55.3379 13.9233 55.6526 13.5873 56.0472 13.3526C56.4419 13.1073 56.8792 12.9419 57.3592 12.8566C57.8499 12.7713 58.3512 12.7446 58.8632 12.7766C59.3859 12.7979 59.8766 12.8619 60.3352 12.9686C60.3672 12.4886 60.3192 12.0353 60.1912 11.6086C60.0632 11.1819 59.8606 10.8406 59.5832 10.5846C59.3059 10.3179 58.9646 10.1846 58.5592 10.1846C57.7806 10.1846 57.1086 10.7179 56.5432 11.7846L55.5512 11.2406C55.9566 10.3766 56.4312 9.76861 56.9752 9.41661C57.5299 9.06461 58.0846 8.88861 58.6392 8.88861C59.1832 8.88861 59.6419 9.00594 60.0152 9.24061C60.3886 9.46461 60.6819 9.76328 60.8952 10.1366C61.1192 10.4993 61.2792 10.8939 61.3752 11.3206C61.4819 11.7366 61.5352 12.1366 61.5352 12.5206C61.5352 12.9153 61.4659 13.3099 61.3272 13.7046C61.1886 14.0886 61.0606 14.3659 60.9432 14.5366C59.9726 14.2486 59.1192 14.0993 58.3832 14.0886C57.6579 14.0673 57.0872 14.2166 56.6712 14.5366C56.2659 14.8459 56.0632 15.3526 56.0632 16.0566C56.0632 16.4619 56.0952 16.9313 56.1592 17.4646C56.2232 18.0086 56.3139 18.5793 56.4312 19.1766C56.5486 19.7846 56.6872 20.3819 56.8472 20.9686L55.6152 21.2886ZM63.8032 15.0006L63.4832 3.57661H64.7792L65.0992 15.0006H63.8032ZM69.7337 13.7686C70.5231 13.7686 71.0831 13.6513 71.4137 13.4166C71.7444 13.1713 71.9097 12.8353 71.9097 12.4086C71.9097 12.1313 71.8137 11.7739 71.6217 11.3366C71.4297 10.8993 71.1737 10.4139 70.8537 9.88061C70.5444 9.33661 70.1977 8.78194 69.8137 8.21661L70.9177 7.49661C71.5364 8.44594 72.0377 9.31528 72.4217 10.1046C72.8164 10.8833 73.1097 11.5873 73.3017 12.2166C73.4511 12.6859 73.6164 13.0326 73.7977 13.2566C73.9897 13.4806 74.1871 13.6246 74.3897 13.6886C74.5924 13.7419 74.7791 13.7686 74.9497 13.7686C75.1737 13.7686 75.3391 13.8326 75.4457 13.9606C75.5524 14.0779 75.6057 14.2219 75.6057 14.3926C75.6057 14.5633 75.5311 14.7233 75.3817 14.8726C75.2324 15.0113 75.0404 15.0806 74.8057 15.0806C74.3897 15.0806 73.9897 14.9899 73.6057 14.8086C73.2217 14.6273 72.9124 14.3179 72.6777 13.8806C72.4644 14.2326 72.1231 14.5259 71.6537 14.7606C71.1951 14.9846 70.5551 15.0966 69.7337 15.0966C69.1471 15.0966 68.6031 15.0273 68.1017 14.8886C67.6004 14.7393 67.1844 14.5366 66.8537 14.2806L67.4937 13.1766C67.7071 13.3259 68.0057 13.4646 68.3897 13.5926C68.7737 13.7099 69.2217 13.7686 69.7337 13.7686ZM74.9594 15.0806L75.1034 13.7686C76.202 13.7686 77.2687 13.6086 78.3034 13.2886C79.338 12.9579 80.282 12.4939 81.1354 11.8966C80.7194 11.5339 80.2074 11.2406 79.5994 11.0166C79.002 10.7926 78.3407 10.6806 77.6154 10.6806C77.3487 10.6806 77.114 10.6966 76.9114 10.7286C76.7087 10.7499 76.4634 10.7926 76.1754 10.8566L75.9194 9.64061C76.5167 9.45928 77.082 9.36861 77.6154 9.36861C78.17 9.36861 78.6714 9.43794 79.1194 9.57661C79.5674 9.70461 79.9727 9.86461 80.3354 10.0566C80.7087 10.2486 81.0554 10.4406 81.3754 10.6326C81.706 10.8246 82.026 10.9899 82.3354 11.1286C82.6447 11.2566 82.9647 11.3206 83.2954 11.3206H83.6314L83.7434 12.4726C83.4127 12.4726 83.0927 12.5099 82.7834 12.5846C82.986 13.0646 83.274 13.3846 83.6474 13.5446C84.0207 13.6939 84.5754 13.7686 85.3114 13.7686C85.5354 13.7686 85.6954 13.8326 85.7914 13.9606C85.898 14.0779 85.9514 14.2219 85.9514 14.3926C85.9514 14.5633 85.8767 14.7233 85.7274 14.8726C85.578 15.0113 85.386 15.0806 85.1514 15.0806C84.5754 15.0806 84.058 15.0326 83.5994 14.9366C83.1514 14.8299 82.7674 14.6273 82.4474 14.3286C82.1274 14.0193 81.8927 13.5606 81.7434 12.9526C81.338 13.1446 80.922 13.3633 80.4954 13.6086C80.0794 13.8433 79.6154 14.0726 79.1034 14.2966C78.5914 14.5206 77.9994 14.7073 77.3274 14.8566C76.6554 15.0059 75.866 15.0806 74.9594 15.0806ZM77.4714 7.72061C77.2474 7.72061 77.0554 7.64594 76.8954 7.49661C76.746 7.33661 76.6714 7.14994 76.6714 6.93661C76.6714 6.72328 76.746 6.53661 76.8954 6.37661C77.0554 6.21661 77.2474 6.13661 77.4714 6.13661C77.6847 6.13661 77.866 6.21661 78.0154 6.37661C78.1754 6.53661 78.2554 6.72328 78.2554 6.93661C78.2554 7.14994 78.1754 7.33661 78.0154 7.49661C77.866 7.64594 77.6847 7.72061 77.4714 7.72061ZM85.2969 15.0806L85.4569 13.7686C85.9902 13.7686 86.4062 13.7313 86.7049 13.6566C87.0035 13.5713 87.2275 13.4166 87.3769 13.1926C87.5369 12.9579 87.6649 12.6219 87.7609 12.1846C87.8569 11.7473 87.9742 11.1766 88.1129 10.4726L89.3609 10.7126C89.2969 11.0006 89.2222 11.3313 89.1369 11.7046C89.0622 12.0779 89.0249 12.3926 89.0249 12.6486C89.0249 12.8086 89.0355 12.9579 89.0569 13.0966C89.0782 13.2353 89.1582 13.3526 89.2969 13.4486C89.4355 13.5446 89.6702 13.6246 90.0009 13.6886C90.3315 13.7419 90.8062 13.7686 91.4249 13.7686C91.6489 13.7686 91.8089 13.8326 91.9049 13.9606C92.0115 14.0779 92.0649 14.2219 92.0649 14.3926C92.0649 14.5633 91.9902 14.7233 91.8409 14.8726C91.6915 15.0113 91.4995 15.0806 91.2649 15.0806C90.5715 15.0806 90.0275 15.0433 89.6329 14.9686C89.2489 14.8833 88.9609 14.7659 88.7689 14.6166C88.5875 14.4566 88.4542 14.2593 88.3689 14.0246C88.0595 14.4619 87.6755 14.7499 87.2169 14.8886C86.7689 15.0166 86.1289 15.0806 85.2969 15.0806ZM89.5689 8.82461C89.3449 8.82461 89.1529 8.74994 88.9929 8.60061C88.8435 8.44061 88.7689 8.25394 88.7689 8.04061C88.7689 7.82728 88.8435 7.64061 88.9929 7.48061C89.1529 7.32061 89.3449 7.24061 89.5689 7.24061C89.7822 7.24061 89.9635 7.32061 90.1129 7.48061C90.2729 7.64061 90.3529 7.82728 90.3529 8.04061C90.3529 8.25394 90.2729 8.44061 90.1129 8.60061C89.9635 8.74994 89.7822 8.82461 89.5689 8.82461ZM87.3769 8.82461C87.1529 8.82461 86.9609 8.74994 86.8009 8.60061C86.6515 8.44061 86.5769 8.25394 86.5769 8.04061C86.5769 7.82728 86.6515 7.64061 86.8009 7.48061C86.9609 7.32061 87.1529 7.24061 87.3769 7.24061C87.5902 7.24061 87.7715 7.32061 87.9209 7.48061C88.0809 7.64061 88.1609 7.82728 88.1609 8.04061C88.1609 8.25394 88.0809 8.44061 87.9209 8.60061C87.7715 8.74994 87.5902 8.82461 87.3769 8.82461ZM91.4156 15.0806L91.5756 13.7686C91.917 13.7686 92.1943 13.7473 92.4076 13.7046C92.621 13.6513 92.797 13.5286 92.9356 13.3366C93.085 13.1339 93.2236 12.8193 93.3516 12.3926C93.4796 11.9659 93.629 11.3686 93.7996 10.6006L94.9996 10.9366C94.9356 11.2139 94.861 11.5393 94.7756 11.9126C94.6903 12.2859 94.6476 12.6219 94.6476 12.9206C94.6476 13.1873 94.749 13.3953 94.9516 13.5446C95.1543 13.6939 95.5223 13.7686 96.0556 13.7686C96.3756 13.7686 96.637 13.7419 96.8396 13.6886C97.0423 13.6353 97.2076 13.5073 97.3356 13.3046C97.4743 13.1019 97.597 12.7819 97.7036 12.3446C97.8103 11.8966 97.9223 11.2779 98.0396 10.4886L99.2556 10.7126C99.2236 10.9046 99.181 11.1393 99.1276 11.4166C99.085 11.6939 99.0476 11.9713 99.0156 12.2486C98.9836 12.5153 98.9676 12.7393 98.9676 12.9206C98.9676 13.0699 98.9996 13.2139 99.0636 13.3526C99.1383 13.4806 99.277 13.5819 99.4796 13.6566C99.693 13.7313 100.008 13.7686 100.424 13.7686C100.882 13.7686 101.25 13.6779 101.528 13.4966C101.805 13.3153 101.944 12.9473 101.944 12.3926C101.944 11.9979 101.848 11.4913 101.656 10.8726C101.474 10.2539 101.266 9.64061 101.032 9.03261L102.328 8.55261C102.456 8.90461 102.584 9.29928 102.712 9.73661C102.84 10.1633 102.946 10.5899 103.032 11.0166C103.117 11.4433 103.16 11.8166 103.16 12.1366C103.16 13.1286 102.914 13.8699 102.424 14.3606C101.933 14.8406 101.261 15.0806 100.408 15.0806C99.821 15.0806 99.357 15.0059 99.0156 14.8566C98.685 14.6966 98.445 14.4513 98.2956 14.1206C98.0396 14.5153 97.7303 14.7766 97.3676 14.9046C97.0156 15.0219 96.5143 15.0806 95.8636 15.0806C95.6396 15.0806 95.3996 15.0539 95.1436 15.0006C94.8983 14.9473 94.669 14.8459 94.4556 14.6966C94.2423 14.5366 94.077 14.3019 93.9596 13.9926C93.6823 14.4619 93.3356 14.7606 92.9196 14.8886C92.5143 15.0166 92.013 15.0806 91.4156 15.0806ZM108.768 15.0806C107.904 15.0806 107.248 14.9846 106.8 14.7926C106.352 14.6006 106.043 14.3019 105.872 13.8966C105.702 13.4913 105.606 12.9686 105.584 12.3286L105.264 3.57661H106.576L106.896 11.8166C106.918 12.3393 106.966 12.7446 107.04 13.0326C107.126 13.3099 107.307 13.5019 107.584 13.6086C107.872 13.7153 108.32 13.7686 108.928 13.7686C109.152 13.7686 109.312 13.8326 109.408 13.9606C109.515 14.0779 109.568 14.2219 109.568 14.3926C109.568 14.5633 109.494 14.7233 109.344 14.8726C109.195 15.0113 109.003 15.0806 108.768 15.0806ZM108.919 15.0806L109.079 13.7686C109.591 13.7686 110.001 13.7366 110.311 13.6726C110.631 13.6086 110.86 13.4806 110.999 13.2886C111.137 13.0859 111.207 12.7873 111.207 12.3926C111.207 11.9979 111.111 11.4913 110.919 10.8726C110.737 10.2539 110.529 9.64061 110.295 9.03261L111.591 8.55261C111.729 8.90461 111.857 9.29928 111.975 9.73661C112.103 10.1633 112.209 10.5899 112.295 11.0166C112.38 11.4433 112.423 11.8166 112.423 12.1366C112.423 13.2139 112.135 13.9766 111.559 14.4246C110.993 14.8619 110.113 15.0806 108.919 15.0806ZM110.631 18.0566C110.407 18.0566 110.215 17.9766 110.055 17.8166C109.905 17.6673 109.831 17.4859 109.831 17.2726C109.831 17.0593 109.905 16.8726 110.055 16.7126C110.215 16.5526 110.407 16.4726 110.631 16.4726C110.844 16.4726 111.025 16.5526 111.175 16.7126C111.335 16.8726 111.415 17.0593 111.415 17.2726C111.415 17.4859 111.335 17.6673 111.175 17.8166C111.025 17.9766 110.844 18.0566 110.631 18.0566ZM123.49 15.3366C121.591 15.3366 120.157 15.0913 119.186 14.6006C118.215 14.0993 117.73 13.2619 117.73 12.0886C117.73 11.6939 117.778 11.2779 117.874 10.8406C117.97 10.3926 118.071 9.97128 118.178 9.57661L119.378 9.88061C119.314 10.1153 119.239 10.4139 119.154 10.7766C119.079 11.1393 119.042 11.4539 119.042 11.7206C119.042 12.2753 119.181 12.7233 119.458 13.0646C119.746 13.3953 120.242 13.6406 120.946 13.8006C121.65 13.9499 122.637 14.0246 123.906 14.0246C124.962 14.0246 125.831 13.9873 126.514 13.9126C127.197 13.8273 127.725 13.6993 128.098 13.5286C128.482 13.3473 128.743 13.1179 128.882 12.8406C129.021 12.5526 129.085 12.2059 129.074 11.8006L128.77 3.57661H130.066L130.386 11.6566C130.407 12.2219 130.338 12.7339 130.178 13.1926C130.018 13.6406 129.698 14.0246 129.218 14.3446C128.738 14.6646 128.039 14.9099 127.122 15.0806C126.205 15.2513 124.994 15.3366 123.49 15.3366ZM123.074 11.7366L122.77 10.7286C123.442 10.5473 123.922 10.4033 124.21 10.2966C124.498 10.1793 124.642 10.0566 124.642 9.92861C124.642 9.81128 124.578 9.70461 124.45 9.60861C124.333 9.50194 124.194 9.39528 124.034 9.28861C123.885 9.17128 123.746 9.03794 123.618 8.88861C123.501 8.73928 123.442 8.55794 123.442 8.34461C123.442 8.06728 123.575 7.76328 123.842 7.43261C124.109 7.10194 124.637 6.74461 125.426 6.36061L125.922 7.27261C125.431 7.50728 125.069 7.70994 124.834 7.88061C124.61 8.04061 124.498 8.18461 124.498 8.31261C124.498 8.40861 124.557 8.50994 124.674 8.61661C124.802 8.72328 124.941 8.84061 125.09 8.96861C125.25 9.09661 125.389 9.24594 125.506 9.41661C125.634 9.57661 125.698 9.76861 125.698 9.99261C125.698 10.1953 125.634 10.3926 125.506 10.5846C125.378 10.7766 125.127 10.9686 124.754 11.1606C124.381 11.3419 123.821 11.5339 123.074 11.7366ZM132.981 15.0006L132.661 3.57661H133.957L134.277 15.0006H132.981ZM135.13 18.7126L134.666 17.4966C135.7 17.1553 136.506 16.7499 137.082 16.2806C137.668 15.8113 138.079 15.3206 138.314 14.8086C138.559 14.2859 138.682 13.7793 138.682 13.2886C138.682 12.7659 138.564 12.2379 138.33 11.7046C138.106 11.1606 137.855 10.6486 137.578 10.1686L138.746 9.57661C139.044 10.1419 139.295 10.6859 139.498 11.2086C139.711 11.7313 139.876 12.1899 139.994 12.5846C140.143 13.0433 140.335 13.3579 140.57 13.5286C140.815 13.6886 141.146 13.7686 141.562 13.7686C141.786 13.7686 141.946 13.8326 142.042 13.9606C142.148 14.0779 142.202 14.2219 142.202 14.3926C142.202 14.5633 142.127 14.7233 141.978 14.8726C141.828 15.0113 141.636 15.0806 141.402 15.0806C140.996 15.0806 140.655 15.0166 140.378 14.8886C140.111 14.7606 139.892 14.5899 139.722 14.3766C139.615 14.9739 139.391 15.5179 139.05 16.0086C138.708 16.4993 138.308 16.9259 137.85 17.2886C137.391 17.6619 136.922 17.9659 136.442 18.2006C135.962 18.4353 135.524 18.6059 135.13 18.7126ZM141.559 15.0806L141.719 13.7686C142.253 13.7686 142.669 13.7313 142.967 13.6566C143.266 13.5713 143.49 13.4166 143.639 13.1926C143.799 12.9579 143.927 12.6219 144.023 12.1846C144.119 11.7473 144.237 11.1766 144.375 10.4726L145.623 10.7126C145.559 11.0006 145.485 11.3313 145.399 11.7046C145.325 12.0779 145.287 12.3926 145.287 12.6486C145.287 12.8086 145.298 12.9579 145.319 13.0966C145.341 13.2353 145.421 13.3526 145.559 13.4486C145.698 13.5446 145.933 13.6246 146.263 13.6886C146.594 13.7419 147.069 13.7686 147.687 13.7686C147.911 13.7686 148.071 13.8326 148.167 13.9606C148.274 14.0779 148.327 14.2219 148.327 14.3926C148.327 14.5633 148.253 14.7233 148.103 14.8726C147.954 15.0113 147.762 15.0806 147.527 15.0806C146.834 15.0806 146.29 15.0433 145.895 14.9686C145.511 14.8833 145.223 14.7659 145.031 14.6166C144.85 14.4566 144.717 14.2593 144.631 14.0246C144.322 14.4619 143.938 14.7499 143.479 14.8886C143.031 15.0166 142.391 15.0806 141.559 15.0806ZM145.831 8.82461C145.607 8.82461 145.415 8.74994 145.255 8.60061C145.106 8.44061 145.031 8.25394 145.031 8.04061C145.031 7.82728 145.106 7.64061 145.255 7.48061C145.415 7.32061 145.607 7.24061 145.831 7.24061C146.045 7.24061 146.226 7.32061 146.375 7.48061C146.535 7.64061 146.615 7.82728 146.615 8.04061C146.615 8.25394 146.535 8.44061 146.375 8.60061C146.226 8.74994 146.045 8.82461 145.831 8.82461ZM143.639 8.82461C143.415 8.82461 143.223 8.74994 143.063 8.60061C142.914 8.44061 142.839 8.25394 142.839 8.04061C142.839 7.82728 142.914 7.64061 143.063 7.48061C143.223 7.32061 143.415 7.24061 143.639 7.24061C143.853 7.24061 144.034 7.32061 144.183 7.48061C144.343 7.64061 144.423 7.82728 144.423 8.04061C144.423 8.25394 144.343 8.44061 144.183 8.60061C144.034 8.74994 143.853 8.82461 143.639 8.82461ZM147.678 15.0806L147.838 13.7686C148.179 13.7686 148.457 13.7473 148.67 13.7046C148.883 13.6513 149.059 13.5286 149.198 13.3366C149.347 13.1339 149.486 12.8193 149.614 12.3926C149.742 11.9659 149.891 11.3686 150.062 10.6006L151.262 10.9366C151.198 11.2139 151.123 11.5393 151.038 11.9126C150.953 12.2859 150.91 12.6219 150.91 12.9206C150.91 13.1873 151.011 13.3953 151.214 13.5446C151.417 13.6939 151.785 13.7686 152.318 13.7686C152.638 13.7686 152.899 13.7419 153.102 13.6886C153.305 13.6353 153.47 13.5073 153.598 13.3046C153.737 13.1019 153.859 12.7819 153.966 12.3446C154.073 11.8966 154.185 11.2779 154.302 10.4886L155.518 10.7126C155.486 10.9046 155.443 11.1393 155.39 11.4166C155.347 11.6939 155.31 11.9713 155.278 12.2486C155.246 12.5153 155.23 12.7393 155.23 12.9206C155.23 13.0699 155.262 13.2139 155.326 13.3526C155.401 13.4806 155.539 13.5819 155.742 13.6566C155.955 13.7313 156.27 13.7686 156.686 13.7686C157.145 13.7686 157.513 13.6779 157.79 13.4966C158.067 13.3153 158.206 12.9473 158.206 12.3926C158.206 11.9979 158.11 11.4913 157.918 10.8726C157.737 10.2539 157.529 9.64061 157.294 9.03261L158.59 8.55261C158.718 8.90461 158.846 9.29928 158.974 9.73661C159.102 10.1633 159.209 10.5899 159.294 11.0166C159.379 11.4433 159.422 11.8166 159.422 12.1366C159.422 13.1286 159.177 13.8699 158.686 14.3606C158.195 14.8406 157.523 15.0806 156.67 15.0806C156.083 15.0806 155.619 15.0059 155.278 14.8566C154.947 14.6966 154.707 14.4513 154.558 14.1206C154.302 14.5153 153.993 14.7766 153.63 14.9046C153.278 15.0219 152.777 15.0806 152.126 15.0806C151.902 15.0806 151.662 15.0539 151.406 15.0006C151.161 14.9473 150.931 14.8459 150.718 14.6966C150.505 14.5366 150.339 14.3019 150.222 13.9926C149.945 14.4619 149.598 14.7606 149.182 14.8886C148.777 15.0166 148.275 15.0806 147.678 15.0806ZM154.574 6.28061C154.35 6.28061 154.158 6.20594 153.998 6.05661C153.849 5.89661 153.774 5.70994 153.774 5.49661C153.774 5.28328 153.849 5.09661 153.998 4.93661C154.158 4.77661 154.35 4.69661 154.574 4.69661C154.787 4.69661 154.969 4.77661 155.118 4.93661C155.278 5.09661 155.358 5.28328 155.358 5.49661C155.358 5.70994 155.278 5.89661 155.118 6.05661C154.969 6.20594 154.787 6.28061 154.574 6.28061ZM153.486 8.04061C153.262 8.04061 153.07 7.96594 152.91 7.81661C152.761 7.65661 152.686 7.46994 152.686 7.25661C152.686 7.04328 152.761 6.85661 152.91 6.69661C153.07 6.53661 153.262 6.45661 153.486 6.45661C153.699 6.45661 153.881 6.53661 154.03 6.69661C154.19 6.85661 154.27 7.04328 154.27 7.25661C154.27 7.46994 154.19 7.65661 154.03 7.81661C153.881 7.96594 153.699 8.04061 153.486 8.04061ZM155.662 8.04061C155.438 8.04061 155.246 7.96594 155.086 7.81661C154.937 7.65661 154.862 7.46994 154.862 7.25661C154.862 7.04328 154.937 6.85661 155.086 6.69661C155.246 6.53661 155.438 6.45661 155.662 6.45661C155.875 6.45661 156.057 6.53661 156.206 6.69661C156.366 6.85661 156.446 7.04328 156.446 7.25661C156.446 7.46994 156.366 7.65661 156.206 7.81661C156.057 7.96594 155.875 8.04061 155.662 8.04061ZM166.663 6.42461C166.663 6.18994 166.647 5.90728 166.615 5.57661C166.583 5.24594 166.546 4.91528 166.503 4.58461C166.46 4.25394 166.418 3.97128 166.375 3.73661L167.751 3.57661C167.783 3.78994 167.815 4.07261 167.847 4.42461C167.879 4.76594 167.906 5.11261 167.927 5.46461C167.959 5.80594 167.975 6.08328 167.975 6.29661C167.975 6.96861 167.911 7.62461 167.783 8.26461C167.666 8.89394 167.468 9.50728 167.191 10.1046C167.692 10.6273 168.06 11.1073 168.295 11.5446C168.53 11.9819 168.647 12.4139 168.647 12.8406C168.647 13.1499 168.572 13.4753 168.423 13.8166C168.274 14.1473 168.002 14.4299 167.607 14.6646C167.212 14.8886 166.642 15.0006 165.895 15.0006H162.215V13.7046C163.815 12.5633 164.956 11.4273 165.639 10.2966C165.042 9.76328 164.338 9.19261 163.527 8.58461C162.727 7.97661 161.89 7.35794 161.015 6.72861L161.767 5.67261C162.716 6.37661 163.559 7.01661 164.295 7.59261C165.031 8.15794 165.666 8.68061 166.199 9.16061C166.359 8.73394 166.476 8.29661 166.551 7.84861C166.626 7.38994 166.663 6.91528 166.663 6.42461ZM164.119 13.6886H166.135C166.679 13.6886 167.036 13.5926 167.207 13.4006C167.378 13.1979 167.463 12.9686 167.463 12.7126C167.463 12.5206 167.383 12.2966 167.223 12.0406C167.074 11.7846 166.86 11.5073 166.583 11.2086C166.284 11.6566 165.927 12.0886 165.511 12.5046C165.106 12.9206 164.642 13.3153 164.119 13.6886ZM171.309 15.0006L170.989 3.57661H172.285L172.605 15.0006H171.309Z" fill="white"/>
</g>
</svg>
