<svg width="212" height="38" viewBox="0 0 212 38" fill="none" xmlns="http://www.w3.org/2000/svg">
<g id="ar_view_in_Dark">
<path id="Text" d="M4.48459 30.14C3.98059 30.14 3.46726 30.0933 2.94459 30C2.44059 29.9253 2.08592 29.8693 1.88059 29.832L2.24459 27.088C3.81259 27.2933 5.27792 27.2933 6.64059 27.088C8.02192 26.864 9.15126 26.304 10.0286 25.408C9.30059 24.232 8.21792 22.804 6.78059 21.124C5.34326 19.444 3.62592 17.6987 1.62859 15.888L3.42059 13.984C5.56726 16.0187 7.26592 17.7547 8.51659 19.192C9.76726 20.6293 10.7473 21.8613 11.4566 22.888C11.7179 22.0667 11.8579 21.124 11.8766 20.06L11.4846 9.868H14.2846L14.8446 24.064C14.8819 24.96 14.9753 25.6507 15.1246 26.136C15.2739 26.6027 15.5819 26.9293 16.0486 27.116C16.5153 27.284 17.2433 27.368 18.2326 27.368C18.6993 27.368 19.0446 27.4987 19.2686 27.76C19.4926 28.0213 19.6046 28.3293 19.6046 28.684C19.6046 29.076 19.4553 29.4213 19.1566 29.72C18.8579 30 18.4566 30.14 17.9526 30.14C16.5899 30.14 15.5073 30.0187 14.7046 29.776C13.9019 29.5147 13.3046 29.1227 12.9126 28.6C12.5393 28.0587 12.2966 27.368 12.1846 26.528C11.5499 27.592 10.7846 28.3853 9.88859 28.908C9.01126 29.412 8.08726 29.748 7.11659 29.916C6.16459 30.0653 5.28726 30.14 4.48459 30.14ZM18.2539 30.14L18.5339 27.368C19.6166 27.368 20.4566 27.3587 21.0539 27.34C21.6512 27.3213 22.0899 27.3027 22.3699 27.284C22.6499 27.2653 22.8552 27.2467 22.9859 27.228C22.7059 27.0413 22.3606 26.7613 21.9499 26.388C21.5392 25.996 21.1752 25.492 20.8579 24.876C20.5592 24.26 20.4099 23.532 20.4099 22.692C20.4099 21.628 20.6712 20.6853 21.1939 19.864C21.7166 19.0427 22.4352 18.3987 23.3499 17.932C24.2646 17.4653 25.3006 17.232 26.4579 17.232C26.9246 17.232 27.4099 17.2693 27.9139 17.344C28.4179 17.4187 28.9032 17.5307 29.3699 17.68L28.8379 20.312C28.0539 20.1067 27.2886 20.004 26.5419 20.004C25.5526 20.004 24.7499 20.2653 24.1339 20.788C23.5179 21.292 23.2099 21.9733 23.2099 22.832C23.2099 23.392 23.3406 23.8867 23.6019 24.316C23.8819 24.7453 24.2272 25.1187 24.6379 25.436C25.0672 25.7347 25.5059 25.968 25.9539 26.136C26.4019 26.2853 26.7939 26.36 27.1299 26.36C27.5219 26.248 27.8672 26.1453 28.1659 26.052C28.4646 25.9587 28.8192 25.828 29.2299 25.66C29.6406 25.492 30.2192 25.2493 30.9659 24.932L31.8899 27.452C30.5459 28.0307 29.1926 28.5253 27.8299 28.936C26.4859 29.328 25.0392 29.6267 23.4899 29.832C21.9406 30.0373 20.1952 30.14 18.2539 30.14ZM32.5865 36.496L31.5785 33.976C34.0798 33.1173 35.8625 32.0533 36.9265 30.784C38.0092 29.5147 38.5505 28.1987 38.5505 26.836C38.5505 25.9587 38.3545 25.0533 37.9625 24.12C37.5705 23.1867 37.1318 22.2813 36.6465 21.404L39.1665 20.144C39.6892 21.1147 40.1185 22.0667 40.4545 23C40.8092 23.9333 41.0798 24.68 41.2665 25.24C41.5278 26.08 41.8732 26.6493 42.3025 26.948C42.7318 27.228 43.3572 27.368 44.1785 27.368C44.6638 27.368 45.0092 27.4987 45.2145 27.76C45.4385 28.0213 45.5505 28.3293 45.5505 28.684C45.5505 29.076 45.3918 29.4213 45.0745 29.72C44.7758 30 44.3838 30.14 43.8985 30.14C43.1705 30.14 42.5545 30.028 42.0505 29.804C41.5652 29.58 41.1732 29.2813 40.8745 28.908C40.6692 29.916 40.2678 30.8307 39.6705 31.652C39.0918 32.492 38.4012 33.2293 37.5985 33.864C36.7958 34.5173 35.9558 35.0587 35.0785 35.488C34.2198 35.936 33.3892 36.272 32.5865 36.496ZM58.0336 30.504C55.9989 30.504 54.3656 30.4107 53.1336 30.224C51.9202 30.0373 50.9869 29.7573 50.3336 29.384C49.6802 29.0107 49.2136 28.544 48.9336 27.984C48.4856 28.6373 48.0096 29.1227 47.5056 29.44C47.0016 29.7387 46.4696 29.9253 45.9096 30C45.3496 30.0933 44.7802 30.14 44.2016 30.14L44.4816 27.368C45.3216 27.368 45.9562 27.2 46.3856 26.864C46.8149 26.528 47.1602 25.9587 47.4216 25.156C47.7016 24.3347 48.0096 23.224 48.3456 21.824L50.8376 22.468C50.6509 23.1587 50.5016 23.756 50.3896 24.26C50.2962 24.764 50.2496 25.1467 50.2496 25.408C50.2496 25.912 50.3802 26.3227 50.6416 26.64C50.9216 26.9573 51.5002 27.2093 52.3776 27.396C53.0122 26.388 53.7496 25.3987 54.5896 24.428C55.4296 23.4573 56.3349 22.5707 57.3056 21.768C58.2949 20.9653 59.3216 20.3307 60.3856 19.864C61.4496 19.3787 62.5322 19.136 63.6336 19.136C64.7162 19.136 65.6496 19.36 66.4336 19.808C67.2176 20.2373 67.8149 20.8347 68.2256 21.6C68.6549 22.3467 68.8696 23.196 68.8696 24.148C68.8696 25.324 68.5242 26.3973 67.8336 27.368C67.1429 28.32 66.0042 29.0853 64.4176 29.664C62.8496 30.224 60.7216 30.504 58.0336 30.504ZM63.3816 21.908C62.5976 21.908 61.8136 22.0947 61.0296 22.468C60.2642 22.8413 59.5176 23.3267 58.7896 23.924C58.0802 24.5213 57.4176 25.156 56.8016 25.828C56.2042 26.4813 55.7002 27.0973 55.2896 27.676C56.0922 27.7133 57.0536 27.732 58.1736 27.732C60.8802 27.732 62.8869 27.452 64.1936 26.892C65.5189 26.3133 66.1816 25.4733 66.1816 24.372C66.1816 23.98 66.0882 23.5973 65.9016 23.224C65.7149 22.8507 65.4069 22.5427 64.9776 22.3C64.5669 22.0387 64.0349 21.908 63.3816 21.908ZM62.8216 16.308C62.3736 16.308 61.9909 16.1587 61.6736 15.86C61.3749 15.5613 61.2256 15.188 61.2256 14.74C61.2256 14.3107 61.3749 13.9373 61.6736 13.62C61.9909 13.3027 62.3736 13.144 62.8216 13.144C63.2509 13.144 63.6149 13.3027 63.9136 13.62C64.2309 13.9373 64.3896 14.3107 64.3896 14.74C64.3896 15.188 64.2309 15.5613 63.9136 15.86C63.6149 16.1587 63.2509 16.308 62.8216 16.308ZM89.1422 30.588C85.6142 30.588 83.0102 30.112 81.3302 29.16C79.6502 28.1893 78.8102 26.7147 78.8102 24.736C78.8102 23.9893 78.8942 23.2053 79.0622 22.384C79.2489 21.5627 79.4449 20.8067 79.6502 20.116L82.1422 20.704C82.0302 21.1707 81.9089 21.712 81.7782 22.328C81.6475 22.9253 81.5822 23.4573 81.5822 23.924C81.5822 24.82 81.8249 25.5573 82.3102 26.136C82.8142 26.7147 83.6635 27.144 84.8582 27.424C86.0715 27.6853 87.7422 27.816 89.8702 27.816C91.6995 27.816 93.3609 27.76 94.8542 27.648C96.3475 27.536 97.5982 27.396 98.6062 27.228C98.1769 26.8173 97.7662 26.304 97.3742 25.688C97.0009 25.072 96.8142 24.3347 96.8142 23.476C96.8142 22.4307 97.0662 21.488 97.5702 20.648C98.0742 19.7893 98.7182 19.1173 99.5022 18.632C100.286 18.128 101.117 17.876 101.994 17.876C102.946 17.876 103.786 18.1467 104.514 18.688C105.242 19.2107 105.812 19.8827 106.222 20.704C106.633 21.5253 106.838 22.3747 106.838 23.252C106.838 24.092 106.68 24.8387 106.362 25.492C106.045 26.1453 105.616 26.724 105.074 27.228C105.765 27.284 106.465 27.3213 107.174 27.34C107.884 27.3587 108.528 27.368 109.106 27.368C109.573 27.368 109.918 27.4987 110.142 27.76C110.366 28.0213 110.478 28.3293 110.478 28.684C110.478 29.076 110.329 29.4213 110.03 29.72C109.732 30 109.33 30.14 108.826 30.14C107.594 30.14 106.372 30.056 105.158 29.888C103.945 29.72 102.834 29.4773 101.826 29.16C101.621 29.2347 101.406 29.3093 101.182 29.384C100.585 29.5893 99.6609 29.7853 98.4102 29.972C97.1782 30.1587 95.7502 30.308 94.1262 30.42C92.5209 30.532 90.8595 30.588 89.1422 30.588ZM99.5862 23.532C99.5862 24.1853 99.7915 24.7547 100.202 25.24C100.613 25.7253 101.089 26.1267 101.63 26.444C102.34 26.1267 102.928 25.716 103.394 25.212C103.861 24.708 104.094 24.1107 104.094 23.42C104.094 23.028 103.992 22.6173 103.786 22.188C103.6 21.74 103.338 21.3667 103.002 21.068C102.685 20.7507 102.321 20.592 101.91 20.592C101.5 20.592 101.117 20.7413 100.762 21.04C100.408 21.32 100.118 21.684 99.8942 22.132C99.6889 22.58 99.5862 23.0467 99.5862 23.532ZM101.826 15.048C101.378 15.048 100.996 14.8987 100.678 14.6C100.38 14.3013 100.23 13.928 100.23 13.48C100.23 13.0507 100.38 12.6773 100.678 12.36C100.996 12.0427 101.378 11.884 101.826 11.884C102.256 11.884 102.62 12.0427 102.918 12.36C103.236 12.6773 103.394 13.0507 103.394 13.48C103.394 13.928 103.236 14.3013 102.918 14.6C102.62 14.8987 102.256 15.048 101.826 15.048ZM109.113 30.14L109.393 27.368C110.495 27.368 111.353 27.3213 111.969 27.228C112.585 27.1347 113.015 26.9293 113.257 26.612C113.519 26.276 113.649 25.7533 113.649 25.044C113.649 24.5587 113.575 23.98 113.425 23.308C113.276 22.636 113.08 21.936 112.837 21.208C112.595 20.4613 112.352 19.7333 112.109 19.024L114.825 18.128C115.049 18.744 115.273 19.444 115.497 20.228C115.74 21.012 115.936 21.8053 116.085 22.608C116.235 23.392 116.309 24.1013 116.309 24.736C116.309 26.1173 116.039 27.2 115.497 27.984C114.975 28.768 114.181 29.328 113.117 29.664C112.053 29.9813 110.719 30.14 109.113 30.14ZM114.797 35.796C114.368 35.796 113.995 35.6467 113.677 35.348C113.379 35.0493 113.229 34.6853 113.229 34.256C113.229 33.8267 113.379 33.4533 113.677 33.136C113.995 32.8373 114.368 32.688 114.797 32.688C115.208 32.688 115.563 32.8373 115.861 33.136C116.179 33.4533 116.337 33.8267 116.337 34.256C116.337 34.6853 116.179 35.0493 115.861 35.348C115.563 35.6467 115.208 35.796 114.797 35.796ZM110.681 35.796C110.233 35.796 109.86 35.6467 109.561 35.348C109.263 35.0493 109.113 34.6853 109.113 34.256C109.113 33.8267 109.263 33.4533 109.561 33.136C109.86 32.8373 110.233 32.688 110.681 32.688C111.111 32.688 111.465 32.8373 111.745 33.136C112.044 33.4533 112.193 33.8267 112.193 34.256C112.193 34.6853 112.044 35.0493 111.745 35.348C111.465 35.6467 111.111 35.796 110.681 35.796Z" fill="white"/>
<g id="GPay Logo (Dark)">
<g id="GPay">
<g id="Pay">
<path id="Fill 1" fill-rule="evenodd" clip-rule="evenodd" d="M168.529 9.34665V17.5128H173.565C174.765 17.5128 175.757 17.1096 176.541 16.3032C177.347 15.4988 177.75 14.5394 177.75 13.4288C177.75 12.3406 177.347 11.3924 176.541 10.586C175.757 9.75916 174.765 9.34479 173.565 9.34479H168.529V9.34665ZM168.529 20.3872V29.8599H165.521V6.47218H173.499C175.527 6.47218 177.248 7.14787 178.666 8.49738C180.105 9.84688 180.824 11.4913 180.824 13.4288C180.824 15.411 180.105 17.0667 178.666 18.3938C177.27 19.7227 175.547 20.3854 173.499 20.3854H168.529V20.3872Z" fill="white"/>
<path id="Fill 3" fill-rule="evenodd" clip-rule="evenodd" d="M183.864 24.9602C183.864 25.7442 184.197 26.3975 184.862 26.9201C185.527 27.4427 186.306 27.704 187.2 27.704C188.465 27.704 189.591 27.2354 190.584 26.3004C191.576 25.3634 192.071 24.264 192.071 23.0022C191.133 22.2612 189.825 21.8916 188.147 21.8916C186.925 21.8916 185.907 22.1866 185.09 22.7745C184.273 23.3623 183.864 24.0886 183.864 24.9602ZM187.756 13.3317C189.98 13.3317 191.735 13.9253 193.022 15.1124C194.308 16.2995 194.95 17.9271 194.95 19.9952V29.8599H192.073V27.6387H191.942C190.699 29.4677 189.042 30.3825 186.972 30.3825C185.206 30.3825 183.728 29.8599 182.541 28.8146C181.353 27.7694 180.759 26.4628 180.759 24.8949C180.759 23.2393 181.385 21.9232 182.638 20.9434C183.892 19.9635 185.565 19.4726 187.658 19.4726C189.444 19.4726 190.916 19.7993 192.071 20.4525V19.7657C192.071 18.7204 191.656 17.8338 190.829 17.104C189.999 16.3742 189.031 16.0102 187.919 16.0102C186.239 16.0102 184.911 16.7176 183.93 18.1343L181.28 16.4675C182.741 14.377 184.899 13.3317 187.756 13.3317Z" fill="white"/>
<path id="Fill 5" fill-rule="evenodd" clip-rule="evenodd" d="M211.463 13.8543L201.424 36.9154H198.318L202.046 28.8464L195.44 13.8543H198.71L203.484 25.3522H203.55L208.193 13.8543H211.463Z" fill="white"/>
</g>
<g id="G">
<path id="Fill 8" fill-rule="evenodd" clip-rule="evenodd" d="M156.373 18.3452C156.373 17.3989 156.293 16.4861 156.141 15.6126H143.454V20.7885H150.72C150.408 22.4757 149.465 23.9112 148.033 24.8725V28.2341H152.37C154.91 25.8935 156.373 22.4348 156.373 18.3452Z" fill="#4285F4"/>
<path id="Fill 10" fill-rule="evenodd" clip-rule="evenodd" d="M143.454 31.4782C147.084 31.4782 150.141 30.2873 152.37 28.2341L148.033 24.8725C146.826 25.6844 145.272 26.1585 143.454 26.1585C139.944 26.1585 136.966 23.7955 135.901 20.6112H131.433V24.0736C133.647 28.4637 138.197 31.4782 143.454 31.4782Z" fill="#34A853"/>
<path id="Fill 12" fill-rule="evenodd" clip-rule="evenodd" d="M135.901 20.6111C135.628 19.7992 135.479 18.9331 135.479 18.0391C135.479 17.145 135.628 16.2789 135.901 15.467V12.0045H131.433C130.518 13.8188 130 15.8683 130 18.0391C130 20.2098 130.518 22.2595 131.433 24.0736L135.901 20.6111Z" fill="#FABB05"/>
<path id="Fill 14" fill-rule="evenodd" clip-rule="evenodd" d="M143.454 9.91964C145.436 9.91964 147.213 10.6009 148.615 11.9355V11.9374L152.455 8.10163C150.123 5.93272 147.082 4.60001 143.454 4.60001C138.197 4.60001 133.647 7.61447 131.433 12.0046L135.901 15.467C136.966 12.2827 139.944 9.91964 143.454 9.91964Z" fill="#E94235"/>
</g>
</g>
</g>
</g>
</svg>
