<svg width="122" height="21" viewBox="0 0 122 21" fill="none" xmlns="http://www.w3.org/2000/svg">
<g id="sv_add_to_Pay_NBG">
<path id="Left Text" d="M1.84288 15.0006V3.54461H3.60288V13.3366H8.53088V15.0006H1.84288ZM12.7492 15.2566C12.1626 15.2566 11.6399 15.1393 11.1812 14.9046C10.7332 14.6699 10.3759 14.3499 10.1092 13.9446C9.85325 13.5286 9.72525 13.0539 9.72525 12.5206C9.72525 11.9339 9.87458 11.4379 10.1732 11.0326C10.4826 10.6273 10.8932 10.3179 11.4052 10.1046C11.9172 9.89128 12.4826 9.78461 13.1012 9.78461C13.4426 9.78461 13.7572 9.81128 14.0452 9.86461C14.3439 9.90728 14.5999 9.96061 14.8133 10.0246C15.0373 10.0886 15.2133 10.1579 15.3412 10.2326V9.80061C15.3412 9.26728 15.1492 8.84061 14.7652 8.52061C14.3812 8.20061 13.8852 8.04061 13.2772 8.04061C12.8612 8.04061 12.4666 8.13661 12.0932 8.32861C11.7199 8.50994 11.4212 8.76061 11.1972 9.08061L10.0132 8.16861C10.2479 7.83794 10.5306 7.55528 10.8612 7.32061C11.2026 7.08594 11.5812 6.90461 11.9972 6.77661C12.4239 6.64861 12.8666 6.58461 13.3252 6.58461C14.5092 6.58461 15.4212 6.87794 16.0612 7.46461C16.7012 8.04061 17.0212 8.85128 17.0212 9.89661V15.0006H15.3412V13.9926H15.2452C15.1066 14.2059 14.9146 14.4086 14.6693 14.6006C14.4346 14.7926 14.1519 14.9473 13.8212 15.0646C13.5012 15.1926 13.1439 15.2566 12.7492 15.2566ZM13.0532 13.8486C13.5012 13.8486 13.8959 13.7419 14.2372 13.5286C14.5892 13.3153 14.8612 13.0379 15.0532 12.6966C15.2452 12.3446 15.3412 11.9659 15.3412 11.5606C15.1066 11.4219 14.8186 11.3099 14.4773 11.2246C14.1466 11.1286 13.7946 11.0806 13.4212 11.0806C12.7172 11.0806 12.2159 11.2193 11.9172 11.4966C11.6186 11.7739 11.4692 12.1206 11.4692 12.5366C11.4692 12.9206 11.6132 13.2353 11.9012 13.4806C12.1892 13.7259 12.5732 13.8486 13.0532 13.8486ZM14.8133 5.17661C14.5466 5.17661 14.3119 5.08061 14.1093 4.88861C13.9172 4.68594 13.8212 4.45128 13.8212 4.18461C13.8212 3.89661 13.9172 3.66194 14.1093 3.48061C14.3119 3.28861 14.5466 3.19261 14.8133 3.19261C15.1012 3.19261 15.3412 3.28861 15.5332 3.48061C15.7252 3.66194 15.8212 3.89661 15.8212 4.18461C15.8212 4.45128 15.7252 4.68594 15.5332 4.88861C15.3412 5.08061 15.1012 5.17661 14.8133 5.17661ZM11.9812 5.17661C11.7146 5.17661 11.4799 5.08061 11.2772 4.88861C11.0852 4.68594 10.9892 4.45128 10.9892 4.18461C10.9892 3.89661 11.0852 3.66194 11.2772 3.48061C11.4799 3.28861 11.7146 3.19261 11.9812 3.19261C12.2692 3.19261 12.5039 3.28861 12.6852 3.48061C12.8772 3.66194 12.9732 3.89661 12.9732 4.18461C12.9732 4.45128 12.8772 4.68594 12.6852 4.88861C12.5039 5.08061 12.2692 5.17661 11.9812 5.17661ZM22.6755 18.7126C21.9608 18.7126 21.3422 18.5953 20.8195 18.3606C20.3075 18.1366 19.8915 17.8433 19.5715 17.4806C19.2515 17.1286 19.0222 16.7659 18.8835 16.3926L20.4835 15.7206C20.6542 16.1473 20.9262 16.4939 21.2995 16.7606C21.6835 17.0379 22.1422 17.1766 22.6755 17.1766C23.4328 17.1766 24.0248 16.9526 24.4515 16.5046C24.8782 16.0566 25.0915 15.4219 25.0915 14.6006V13.8166H24.9955C24.7395 14.1899 24.3875 14.4939 23.9395 14.7286C23.4915 14.9633 22.9742 15.0806 22.3875 15.0806C21.6942 15.0806 21.0542 14.9046 20.4675 14.5526C19.8915 14.2006 19.4275 13.7099 19.0755 13.0806C18.7342 12.4406 18.5635 11.6939 18.5635 10.8406C18.5635 9.97661 18.7342 9.22994 19.0755 8.60061C19.4275 7.96061 19.8915 7.46461 20.4675 7.11261C21.0542 6.76061 21.6942 6.58461 22.3875 6.58461C22.9742 6.58461 23.4915 6.70194 23.9395 6.93661C24.3875 7.16061 24.7395 7.46994 24.9955 7.86461H25.0915V6.84061H26.7395V14.5686C26.7395 15.4539 26.5635 16.2059 26.2115 16.8246C25.8702 17.4433 25.3955 17.9126 24.7875 18.2326C24.1795 18.5526 23.4755 18.7126 22.6755 18.7126ZM22.6915 13.5126C23.1182 13.5126 23.5128 13.4113 23.8755 13.2086C24.2488 12.9953 24.5422 12.6913 24.7555 12.2966C24.9795 11.8913 25.0915 11.4059 25.0915 10.8406C25.0915 10.2433 24.9795 9.74728 24.7555 9.35261C24.5422 8.95794 24.2488 8.65928 23.8755 8.45661C23.5128 8.25394 23.1182 8.15261 22.6915 8.15261C22.2648 8.15261 21.8648 8.25394 21.4915 8.45661C21.1288 8.65928 20.8355 8.96328 20.6115 9.36861C20.3875 9.76328 20.2755 10.2539 20.2755 10.8406C20.2755 11.4166 20.3875 11.9073 20.6115 12.3126C20.8355 12.7073 21.1288 13.0059 21.4915 13.2086C21.8648 13.4113 22.2648 13.5126 22.6915 13.5126ZM32.513 18.7126C31.7983 18.7126 31.1797 18.5953 30.657 18.3606C30.145 18.1366 29.729 17.8433 29.409 17.4806C29.089 17.1286 28.8597 16.7659 28.721 16.3926L30.321 15.7206C30.4917 16.1473 30.7637 16.4939 31.137 16.7606C31.521 17.0379 31.9797 17.1766 32.513 17.1766C33.2703 17.1766 33.8623 16.9526 34.289 16.5046C34.7157 16.0566 34.929 15.4219 34.929 14.6006V13.8166H34.833C34.577 14.1899 34.225 14.4939 33.777 14.7286C33.329 14.9633 32.8117 15.0806 32.225 15.0806C31.5317 15.0806 30.8917 14.9046 30.305 14.5526C29.729 14.2006 29.265 13.7099 28.913 13.0806C28.5717 12.4406 28.401 11.6939 28.401 10.8406C28.401 9.97661 28.5717 9.22994 28.913 8.60061C29.265 7.96061 29.729 7.46461 30.305 7.11261C30.8917 6.76061 31.5317 6.58461 32.225 6.58461C32.8117 6.58461 33.329 6.70194 33.777 6.93661C34.225 7.16061 34.577 7.46994 34.833 7.86461H34.929V6.84061H36.577V14.5686C36.577 15.4539 36.401 16.2059 36.049 16.8246C35.7077 17.4433 35.233 17.9126 34.625 18.2326C34.017 18.5526 33.313 18.7126 32.513 18.7126ZM32.529 13.5126C32.9557 13.5126 33.3503 13.4113 33.713 13.2086C34.0863 12.9953 34.3797 12.6913 34.593 12.2966C34.817 11.8913 34.929 11.4059 34.929 10.8406C34.929 10.2433 34.817 9.74728 34.593 9.35261C34.3797 8.95794 34.0863 8.65928 33.713 8.45661C33.3503 8.25394 32.9557 8.15261 32.529 8.15261C32.1023 8.15261 31.7023 8.25394 31.329 8.45661C30.9663 8.65928 30.673 8.96328 30.449 9.36861C30.225 9.76328 30.113 10.2539 30.113 10.8406C30.113 11.4166 30.225 11.9073 30.449 12.3126C30.673 12.7073 30.9663 13.0059 31.329 13.2086C31.7023 13.4113 32.1023 13.5126 32.529 13.5126ZM42.073 6.84061H43.497V4.53661H45.225V6.84061H47.225V8.34461H45.225V12.2646C45.225 12.6699 45.305 12.9793 45.465 13.1926C45.6357 13.4059 45.9183 13.5126 46.313 13.5126C46.505 13.5126 46.6757 13.4859 46.825 13.4326C46.9743 13.3686 47.1237 13.2939 47.273 13.2086V14.8886C47.0917 14.9633 46.8997 15.0219 46.697 15.0646C46.4943 15.1073 46.2543 15.1286 45.977 15.1286C45.2197 15.1286 44.617 14.9099 44.169 14.4726C43.721 14.0246 43.497 13.4113 43.497 12.6326V8.34461H42.073V6.84061ZM49.2391 15.0006V6.84061H50.9671V15.0006H49.2391ZM50.1031 5.64061C49.7831 5.64061 49.5058 5.52861 49.2711 5.30461C49.0471 5.06994 48.9351 4.79261 48.9351 4.47261C48.9351 4.14194 49.0471 3.86994 49.2711 3.65661C49.5058 3.43261 49.7831 3.32061 50.1031 3.32061C50.4338 3.32061 50.7111 3.43261 50.9351 3.65661C51.1591 3.86994 51.2711 4.14194 51.2711 4.47261C51.2711 4.79261 51.1591 5.06994 50.9351 5.30461C50.7111 5.52861 50.4338 5.64061 50.1031 5.64061ZM53.2771 15.0006V3.54461H55.0051V15.0006H53.2771ZM57.2084 15.0006V3.54461H58.9364V15.0006H57.2084ZM65.136 15.0006V6.84061H66.864V15.0006H65.136ZM66 5.64061C65.68 5.64061 65.4027 5.52861 65.168 5.30461C64.944 5.06994 64.832 4.79261 64.832 4.47261C64.832 4.14194 64.944 3.86994 65.168 3.65661C65.4027 3.43261 65.68 3.32061 66 3.32061C66.3307 3.32061 66.608 3.43261 66.832 3.65661C67.056 3.86994 67.168 4.14194 67.168 4.47261C67.168 4.79261 67.056 5.06994 66.832 5.30461C66.608 5.52861 66.3307 5.64061 66 5.64061Z" fill="white"/>
<g id="GPay (Dark)">
<g id="GPay">
<g id="Pay">
<path id="Fill 1" fill-rule="evenodd" clip-rule="evenodd" d="M96.3563 3.42339V8.16175H99.2784C99.9745 8.16175 100.55 7.92781 101.005 7.45993C101.473 6.99313 101.707 6.43644 101.707 5.79203C101.707 5.16061 101.473 4.61041 101.005 4.14254C100.55 3.66274 99.9745 3.4223 99.2784 3.4223H96.3563V3.42339ZM96.3563 9.82966V15.3262H94.6107V1.75549H99.2404C100.417 1.75549 101.415 2.14756 102.238 2.93061C103.073 3.71365 103.491 4.66782 103.491 5.79203C103.491 6.94224 103.073 7.90291 102.238 8.67296C101.428 9.44409 100.429 9.82858 99.2404 9.82858H96.3563V9.82966Z" fill="white"/>
<path id="Fill 3" fill-rule="evenodd" clip-rule="evenodd" d="M105.255 12.4831C105.255 12.9379 105.448 13.317 105.834 13.6203C106.22 13.9235 106.672 14.0752 107.19 14.0752C107.924 14.0752 108.578 13.8032 109.153 13.2607C109.729 12.717 110.017 12.0791 110.017 11.3469C109.472 10.917 108.713 10.7025 107.74 10.7025C107.031 10.7025 106.44 10.8736 105.966 11.2148C105.492 11.5559 105.255 11.9773 105.255 12.4831M107.513 5.73566C108.803 5.73566 109.821 6.08007 110.569 6.76889C111.314 7.45771 111.687 8.40213 111.687 9.60216V15.3261H110.018V14.0373H109.942C109.221 15.0985 108.259 15.6294 107.058 15.6294C106.033 15.6294 105.176 15.3261 104.487 14.7196C103.797 14.1131 103.453 13.3549 103.453 12.4452C103.453 11.4845 103.816 10.7208 104.543 10.1523C105.271 9.58375 106.241 9.2989 107.456 9.2989C108.492 9.2989 109.346 9.48844 110.017 9.86751V9.46894C110.017 8.86243 109.776 8.34798 109.296 7.92451C108.814 7.50103 108.252 7.28984 107.607 7.28984C106.633 7.28984 105.862 7.70032 105.293 8.52235L103.755 7.55519C104.603 6.34217 105.855 5.73566 107.513 5.73566" fill="white"/>
<path id="Fill 5" fill-rule="evenodd" clip-rule="evenodd" d="M121.269 6.03894L115.443 19.4201H113.641L115.804 14.738L111.971 6.03894H113.869L116.639 12.7106H116.677L119.371 6.03894H121.269Z" fill="white"/>
</g>
<g id="G">
<path id="Fill 8" fill-rule="evenodd" clip-rule="evenodd" d="M89.3029 8.64473C89.3029 8.09563 89.2562 7.56601 89.1684 7.05914H81.8065V10.0625H86.0231C85.842 11.0414 85.2944 11.8744 84.4639 12.4322V14.3828H86.9804C88.4539 13.0246 89.3029 11.0177 89.3029 8.64473" fill="#4285F4"/>
<path id="Fill 10" fill-rule="evenodd" clip-rule="evenodd" d="M81.8065 16.2651C83.9131 16.2651 85.6869 15.5741 86.9804 14.3828L84.4639 12.4322C83.7635 12.9033 82.8614 13.1784 81.8065 13.1784C79.7703 13.1784 78.042 11.8073 77.424 9.95959H74.8316V11.9687C76.1164 14.516 78.7565 16.2651 81.8065 16.2651" fill="#34A853"/>
<path id="Fill 12" fill-rule="evenodd" clip-rule="evenodd" d="M77.424 9.9596C77.2657 9.48847 77.179 8.98593 77.179 8.46715C77.179 7.94837 77.2657 7.44583 77.424 6.9747V4.96564H74.8316C74.3003 6.01837 74 7.20756 74 8.46715C74 9.72674 74.3003 10.916 74.8316 11.9687L77.424 9.9596Z" fill="#FABB05"/>
<path id="Fill 14" fill-rule="evenodd" clip-rule="evenodd" d="M81.8065 3.75583C82.9568 3.75583 83.9879 4.15115 84.8011 4.92553V4.92661L87.0292 2.70094C85.6761 1.44243 83.912 0.669128 81.8065 0.669128C78.7565 0.669128 76.1164 2.41826 74.8316 4.9656L77.424 6.97467C78.042 5.12698 79.7703 3.75583 81.8065 3.75583" fill="#E94235"/>
</g>
</g>
</g>
</g>
</svg>
