<svg width="129" height="21" viewBox="0 0 129 21" fill="none" xmlns="http://www.w3.org/2000/svg">
<g id="sv_book_with_Pay_NBG">
<path id="Left Text" d="M1.38662 15.0006V3.54461H5.67462C6.30396 3.54461 6.87462 3.67794 7.38662 3.94461C7.89862 4.21128 8.30396 4.57394 8.60262 5.03261C8.91196 5.49128 9.06662 6.00861 9.06662 6.58461C9.06662 7.17128 8.92262 7.67261 8.63462 8.08861C8.34662 8.50461 7.97329 8.81928 7.51462 9.03261V9.11261C8.09062 9.30461 8.55996 9.63528 8.92262 10.1046C9.28529 10.5739 9.46662 11.1339 9.46662 11.7846C9.46662 12.4246 9.30129 12.9846 8.97062 13.4646C8.65062 13.9446 8.21329 14.3233 7.65862 14.6006C7.11462 14.8673 6.51729 15.0006 5.86662 15.0006H1.38662ZM3.14662 9.92861V13.3686H5.86662C6.25062 13.3686 6.58129 13.2886 6.85862 13.1286C7.13596 12.9686 7.34396 12.7553 7.48262 12.4886C7.63196 12.2219 7.70662 11.9446 7.70662 11.6566C7.70662 11.3473 7.63196 11.0646 7.48262 10.8086C7.33329 10.5419 7.11462 10.3286 6.82662 10.1686C6.54929 10.0086 6.20796 9.92861 5.80262 9.92861H3.14662ZM3.14662 8.36061H5.59462C5.96796 8.36061 6.28262 8.28594 6.53862 8.13661C6.80529 7.97661 7.00796 7.77394 7.14662 7.52861C7.28529 7.27261 7.35462 7.01128 7.35462 6.74461C7.35462 6.47794 7.28529 6.22728 7.14662 5.99261C7.01862 5.74728 6.82662 5.54994 6.57062 5.40061C6.31462 5.24061 6.01062 5.16061 5.65862 5.16061H3.14662V8.36061ZM15.1042 15.2566C14.2616 15.2566 13.5202 15.0646 12.8802 14.6806C12.2402 14.2966 11.7389 13.7793 11.3762 13.1286C11.0136 12.4673 10.8322 11.7313 10.8322 10.9206C10.8322 10.1099 11.0136 9.37928 11.3762 8.72861C11.7389 8.06728 12.2402 7.54461 12.8802 7.16061C13.5202 6.77661 14.2616 6.58461 15.1042 6.58461C15.9362 6.58461 16.6722 6.78194 17.3122 7.17661C17.9522 7.56061 18.4536 8.07794 18.8162 8.72861C19.1789 9.37928 19.3602 10.1099 19.3602 10.9206C19.3602 11.7313 19.1789 12.4673 18.8162 13.1286C18.4536 13.7793 17.9522 14.2966 17.3122 14.6806C16.6722 15.0646 15.9362 15.2566 15.1042 15.2566ZM15.1042 13.6726C15.5522 13.6726 15.9682 13.5659 16.3522 13.3526C16.7362 13.1286 17.0456 12.8139 17.2802 12.4086C17.5256 11.9926 17.6482 11.4966 17.6482 10.9206C17.6482 10.3446 17.5256 9.85394 17.2802 9.44861C17.0456 9.03261 16.7362 8.71794 16.3522 8.50461C15.9682 8.28061 15.5522 8.16861 15.1042 8.16861C14.6562 8.16861 14.2349 8.28061 13.8402 8.50461C13.4562 8.71794 13.1416 9.03261 12.8962 9.44861C12.6616 9.85394 12.5442 10.3446 12.5442 10.9206C12.5442 11.4966 12.6616 11.9926 12.8962 12.4086C13.1416 12.8139 13.4616 13.1286 13.8562 13.3526C14.2509 13.5659 14.6669 13.6726 15.1042 13.6726ZM21.0236 15.0006V3.54461H22.7516V10.2966L26.2076 6.84061H28.3516V6.93661L25.1996 10.0566L28.4636 14.9046V15.0006H26.4156L23.9836 11.2566L22.7516 12.4726V15.0006H21.0236ZM32.093 15.2566C31.5063 15.2566 30.9837 15.1393 30.525 14.9046C30.077 14.6699 29.7197 14.3499 29.453 13.9446C29.197 13.5286 29.069 13.0539 29.069 12.5206C29.069 11.9339 29.2183 11.4379 29.517 11.0326C29.8263 10.6273 30.237 10.3179 30.749 10.1046C31.261 9.89128 31.8263 9.78461 32.445 9.78461C32.7863 9.78461 33.101 9.81128 33.389 9.86461C33.6877 9.90728 33.9437 9.96061 34.157 10.0246C34.381 10.0886 34.557 10.1579 34.685 10.2326V9.80061C34.685 9.26728 34.493 8.84061 34.109 8.52061C33.725 8.20061 33.229 8.04061 32.621 8.04061C32.205 8.04061 31.8103 8.13661 31.437 8.32861C31.0637 8.50994 30.765 8.76061 30.541 9.08061L29.357 8.16861C29.5917 7.83794 29.8743 7.55528 30.205 7.32061C30.5463 7.08594 30.925 6.90461 31.341 6.77661C31.7677 6.64861 32.2103 6.58461 32.669 6.58461C33.853 6.58461 34.765 6.87794 35.405 7.46461C36.045 8.04061 36.365 8.85128 36.365 9.89661V15.0006H34.685V13.9926H34.589C34.4503 14.2059 34.2583 14.4086 34.013 14.6006C33.7783 14.7926 33.4957 14.9473 33.165 15.0646C32.845 15.1926 32.4877 15.2566 32.093 15.2566ZM32.397 13.8486C32.845 13.8486 33.2397 13.7419 33.581 13.5286C33.933 13.3153 34.205 13.0379 34.397 12.6966C34.589 12.3446 34.685 11.9659 34.685 11.5606C34.4503 11.4219 34.1623 11.3099 33.821 11.2246C33.4903 11.1286 33.1383 11.0806 32.765 11.0806C32.061 11.0806 31.5597 11.2193 31.261 11.4966C30.9623 11.7739 30.813 12.1206 30.813 12.5366C30.813 12.9206 30.957 13.2353 31.245 13.4806C31.533 13.7259 31.917 13.8486 32.397 13.8486ZM42.3017 15.0006V6.84061H43.9337V7.96061H44.0297C44.1897 7.69394 44.3977 7.45928 44.6537 7.25661C44.9097 7.05394 45.1977 6.89394 45.5177 6.77661C45.8484 6.64861 46.1897 6.58461 46.5417 6.58461C47.1497 6.58461 47.6671 6.72861 48.0937 7.01661C48.5204 7.30461 48.8244 7.66728 49.0057 8.10461C49.2724 7.67794 49.6351 7.32061 50.0937 7.03261C50.5524 6.73394 51.1124 6.58461 51.7737 6.58461C52.7337 6.58461 53.4484 6.87794 53.9177 7.46461C54.3871 8.04061 54.6217 8.80861 54.6217 9.76861V15.0006H52.9097V10.0566C52.9097 9.39528 52.7657 8.91528 52.4777 8.61661C52.2004 8.31794 51.8111 8.16861 51.3097 8.16861C50.9151 8.16861 50.5684 8.28061 50.2697 8.50461C49.9711 8.71794 49.7364 9.01128 49.5657 9.38461C49.4057 9.75794 49.3257 10.1739 49.3257 10.6326V15.0006H47.6137V10.0566C47.6137 9.40594 47.4697 8.93128 47.1817 8.63261C46.8937 8.32328 46.4884 8.16861 45.9657 8.16861C45.5924 8.16861 45.2564 8.28061 44.9577 8.50461C44.6697 8.72861 44.4404 9.02728 44.2697 9.40061C44.1097 9.77394 44.0297 10.1899 44.0297 10.6486V15.0006H42.3017ZM60.4454 15.2566C59.6454 15.2566 58.9307 15.0699 58.3014 14.6966C57.672 14.3233 57.176 13.8113 56.8134 13.1606C56.4614 12.5099 56.2854 11.7686 56.2854 10.9366C56.2854 10.1579 56.456 9.43794 56.7974 8.77661C57.1387 8.11528 57.6134 7.58728 58.2214 7.19261C58.84 6.78728 59.5494 6.58461 60.3494 6.58461C61.192 6.58461 61.9067 6.76594 62.4934 7.12861C63.0907 7.49128 63.544 7.98728 63.8534 8.61661C64.1627 9.24594 64.3174 9.95528 64.3174 10.7446C64.3174 10.8619 64.312 10.9686 64.3014 11.0646C64.3014 11.1606 64.296 11.2353 64.2854 11.2886H57.9814C58.024 11.7366 58.136 12.1259 58.3174 12.4566C58.552 12.8726 58.8614 13.1873 59.2454 13.4006C59.6294 13.6139 60.0454 13.7206 60.4934 13.7206C61.0374 13.7206 61.4907 13.5979 61.8534 13.3526C62.2267 13.0966 62.52 12.7819 62.7334 12.4086L64.1574 13.0966C63.8054 13.7366 63.3254 14.2593 62.7174 14.6646C62.1094 15.0593 61.352 15.2566 60.4454 15.2566ZM58.0774 9.99261H62.6054C62.5947 9.78994 62.5414 9.57661 62.4454 9.35261C62.3494 9.11794 62.2107 8.90461 62.0294 8.71261C61.848 8.52061 61.6187 8.36594 61.3414 8.24861C61.064 8.12061 60.7387 8.05661 60.3654 8.05661C59.896 8.05661 59.48 8.17928 59.1174 8.42461C58.7547 8.65928 58.472 8.98994 58.2694 9.41661C58.184 9.59794 58.12 9.78994 58.0774 9.99261ZM69.6366 15.2566C68.9006 15.2566 68.234 15.0699 67.6366 14.6966C67.0393 14.3233 66.57 13.8113 66.2286 13.1606C65.8873 12.5099 65.7166 11.7633 65.7166 10.9206C65.7166 10.0779 65.8873 9.33128 66.2286 8.68061C66.57 8.02994 67.0393 7.51794 67.6366 7.14461C68.234 6.77128 68.9006 6.58461 69.6366 6.58461C70.0633 6.58461 70.4473 6.64861 70.7886 6.77661C71.13 6.90461 71.4233 7.07528 71.6686 7.28861C71.9246 7.49128 72.122 7.70994 72.2606 7.94461H72.3566L72.2606 6.80861V3.54461H73.9726V15.0006H72.3566V13.9126H72.2606C72.122 14.1366 71.9246 14.3553 71.6686 14.5686C71.4233 14.7713 71.13 14.9366 70.7886 15.0646C70.4473 15.1926 70.0633 15.2566 69.6366 15.2566ZM69.8926 13.6726C70.3193 13.6726 70.7193 13.5606 71.0926 13.3366C71.4766 13.1126 71.7806 12.7979 72.0046 12.3926C72.2393 11.9766 72.3566 11.4859 72.3566 10.9206C72.3566 10.3553 72.2393 9.86994 72.0046 9.46461C71.7806 9.04861 71.4766 8.72861 71.0926 8.50461C70.7193 8.28061 70.3193 8.16861 69.8926 8.16861C69.466 8.16861 69.066 8.28061 68.6926 8.50461C68.3193 8.72861 68.0153 9.04861 67.7806 9.46461C67.546 9.86994 67.4286 10.3553 67.4286 10.9206C67.4286 11.4753 67.546 11.9606 67.7806 12.3766C68.0153 12.7926 68.3193 13.1126 68.6926 13.3366C69.066 13.5606 69.466 13.6726 69.8926 13.6726Z" fill="white"/>
<g id="GPay (Dark)">
<g id="GPay">
<g id="Pay">
<path id="Fill 1" fill-rule="evenodd" clip-rule="evenodd" d="M103.356 3.42339V8.16175H106.278C106.974 8.16175 107.55 7.92781 108.005 7.45993C108.473 6.99313 108.707 6.43644 108.707 5.79203C108.707 5.16061 108.473 4.61041 108.005 4.14254C107.55 3.66274 106.974 3.4223 106.278 3.4223H103.356V3.42339ZM103.356 9.82966V15.3262H101.611V1.75549H106.24C107.417 1.75549 108.415 2.14756 109.238 2.93061C110.073 3.71365 110.491 4.66782 110.491 5.79203C110.491 6.94224 110.073 7.90291 109.238 8.67296C108.428 9.44409 107.429 9.82858 106.24 9.82858H103.356V9.82966Z" fill="white"/>
<path id="Fill 3" fill-rule="evenodd" clip-rule="evenodd" d="M112.255 12.4831C112.255 12.9379 112.448 13.317 112.834 13.6203C113.22 13.9235 113.672 14.0752 114.19 14.0752C114.924 14.0752 115.578 13.8032 116.153 13.2607C116.729 12.717 117.017 12.0791 117.017 11.3469C116.472 10.917 115.713 10.7025 114.74 10.7025C114.031 10.7025 113.44 10.8736 112.966 11.2148C112.492 11.5559 112.255 11.9773 112.255 12.4831M114.513 5.73566C115.803 5.73566 116.821 6.08007 117.569 6.76889C118.314 7.45771 118.687 8.40213 118.687 9.60216V15.3261H117.018V14.0373H116.942C116.221 15.0985 115.259 15.6294 114.058 15.6294C113.033 15.6294 112.176 15.3261 111.487 14.7196C110.797 14.1131 110.453 13.3549 110.453 12.4452C110.453 11.4845 110.816 10.7208 111.543 10.1523C112.271 9.58375 113.241 9.2989 114.456 9.2989C115.492 9.2989 116.346 9.48844 117.017 9.86751V9.46894C117.017 8.86243 116.776 8.34798 116.296 7.92451C115.814 7.50103 115.252 7.28984 114.607 7.28984C113.633 7.28984 112.862 7.70032 112.293 8.52235L110.755 7.55519C111.603 6.34217 112.855 5.73566 114.513 5.73566" fill="white"/>
<path id="Fill 5" fill-rule="evenodd" clip-rule="evenodd" d="M128.269 6.03894L122.443 19.4201H120.641L122.804 14.738L118.971 6.03894H120.869L123.639 12.7106H123.677L126.371 6.03894H128.269Z" fill="white"/>
</g>
<g id="G">
<path id="Fill 8" fill-rule="evenodd" clip-rule="evenodd" d="M96.3029 8.64473C96.3029 8.09563 96.2562 7.56601 96.1684 7.05914H88.8065V10.0625H93.0231C92.842 11.0414 92.2944 11.8744 91.4639 12.4322V14.3828H93.9804C95.4539 13.0246 96.3029 11.0177 96.3029 8.64473" fill="#4285F4"/>
<path id="Fill 10" fill-rule="evenodd" clip-rule="evenodd" d="M88.8065 16.2651C90.9131 16.2651 92.6869 15.5741 93.9804 14.3828L91.4639 12.4322C90.7635 12.9033 89.8614 13.1784 88.8065 13.1784C86.7703 13.1784 85.042 11.8073 84.424 9.95959H81.8316V11.9687C83.1164 14.516 85.7565 16.2651 88.8065 16.2651" fill="#34A853"/>
<path id="Fill 12" fill-rule="evenodd" clip-rule="evenodd" d="M84.424 9.9596C84.2657 9.48847 84.179 8.98593 84.179 8.46715C84.179 7.94837 84.2657 7.44583 84.424 6.9747V4.96564H81.8316C81.3003 6.01837 81 7.20756 81 8.46715C81 9.72674 81.3003 10.916 81.8316 11.9687L84.424 9.9596Z" fill="#FABB05"/>
<path id="Fill 14" fill-rule="evenodd" clip-rule="evenodd" d="M88.8065 3.75583C89.9568 3.75583 90.9879 4.15115 91.8011 4.92553V4.92661L94.0292 2.70094C92.6761 1.44243 90.912 0.669128 88.8065 0.669128C85.7565 0.669128 83.1164 2.41826 81.8316 4.9656L84.424 6.97467C85.042 5.12698 86.7703 3.75583 88.8065 3.75583" fill="#E94235"/>
</g>
</g>
</g>
</g>
</svg>
