<svg width="226" height="38" viewBox="0 0 226 38" fill="none" xmlns="http://www.w3.org/2000/svg">
<g id="sv_book_with_Dark">
<path id="Text" d="M2.91409 30V9.952H10.4181C11.5008 9.952 12.4901 10.1853 13.3861 10.652C14.3008 11.1187 15.0194 11.7533 15.5421 12.556C16.0834 13.3587 16.3541 14.264 16.3541 15.272C16.3541 16.2987 16.0928 17.176 15.5701 17.904C15.0661 18.632 14.4221 19.1827 13.6381 19.556V19.696C14.6461 20.0507 15.4674 20.6387 16.1021 21.46C16.7368 22.2627 17.0541 23.2333 17.0541 24.372C17.0541 25.492 16.7648 26.4813 16.1861 27.34C15.6261 28.18 14.8608 28.8333 13.8901 29.3C12.9381 29.7667 11.8928 30 10.7541 30H2.91409ZM10.3901 12.78H5.99409V18.38H10.2781C11.2488 18.38 12.0048 18.0907 12.5461 17.512C13.0874 16.9147 13.3581 16.2613 13.3581 15.552C13.3581 14.8613 13.0968 14.2267 12.5741 13.648C12.0514 13.0693 11.3234 12.78 10.3901 12.78ZM5.99409 27.144H10.7541C11.7621 27.144 12.5461 26.8453 13.1061 26.248C13.6848 25.632 13.9741 24.932 13.9741 24.148C13.9741 23.364 13.6848 22.664 13.1061 22.048C12.5274 21.432 11.7061 21.124 10.6421 21.124H5.99409V27.144ZM26.9574 30.448C25.4828 30.448 24.1854 30.112 23.0654 29.44C21.9454 28.768 21.0681 27.8627 20.4334 26.724C19.7988 25.5853 19.4814 24.2973 19.4814 22.86C19.4814 21.4413 19.7988 20.1627 20.4334 19.024C21.0681 17.8667 21.9454 16.952 23.0654 16.28C24.1854 15.608 25.4828 15.272 26.9574 15.272C28.4134 15.272 29.7014 15.608 30.8214 16.28C31.9414 16.952 32.8188 17.8667 33.4534 19.024C34.0881 20.1627 34.4054 21.4413 34.4054 22.86C34.4054 24.2973 34.0881 25.5853 33.4534 26.724C32.8188 27.8627 31.9414 28.768 30.8214 29.44C29.7014 30.112 28.4134 30.448 26.9574 30.448ZM26.9574 27.676C27.7414 27.676 28.4694 27.4893 29.1414 27.116C29.8134 26.724 30.3548 26.1733 30.7654 25.464C31.1948 24.736 31.4094 23.868 31.4094 22.86C31.4094 21.852 31.1948 20.9933 30.7654 20.284C30.3548 19.556 29.8134 19.0053 29.1414 18.632C28.4694 18.24 27.7414 18.044 26.9574 18.044C26.1734 18.044 25.4361 18.24 24.7454 18.632C24.0734 19.0053 23.5228 19.556 23.0934 20.284C22.6828 20.9933 22.4774 21.852 22.4774 22.86C22.4774 23.868 22.6828 24.736 23.0934 25.464C23.5228 26.1733 24.0734 26.724 24.7454 27.116C25.4361 27.4893 26.1734 27.676 26.9574 27.676ZM37.3538 30V9.952H40.3778V21.768L46.4258 15.72H50.1778V15.888L44.6618 21.348L50.3738 29.832V30H46.7898L42.5338 23.448L40.3778 25.576V30H37.3538ZM56.7627 30.448C55.7361 30.448 54.8214 30.252 54.0187 29.86C53.2161 29.4493 52.5907 28.88 52.1427 28.152C51.6947 27.424 51.4707 26.5933 51.4707 25.66C51.4707 24.652 51.7321 23.7933 52.2547 23.084C52.7961 22.356 53.5147 21.8053 54.4107 21.432C55.3067 21.0587 56.2961 20.872 57.3787 20.872C58.2747 20.872 59.0587 20.956 59.7307 21.124C60.4214 21.292 60.9441 21.4693 61.2987 21.656V20.9C61.2987 19.9667 60.9627 19.22 60.2907 18.66C59.6187 18.1 58.7507 17.82 57.6867 17.82C56.9587 17.82 56.2681 17.988 55.6147 18.324C54.9614 18.6413 54.4387 19.08 54.0467 19.64L51.9747 18.044C52.5907 17.1853 53.4027 16.5133 54.4107 16.028C55.4374 15.524 56.5574 15.272 57.7707 15.272C59.8427 15.272 61.4387 15.7853 62.5587 16.812C63.6787 17.82 64.2387 19.2387 64.2387 21.068V30H61.2987V28.236H61.1307C60.7574 28.8147 60.1974 29.328 59.4507 29.776C58.7041 30.224 57.8081 30.448 56.7627 30.448ZM57.2947 27.984C58.0787 27.984 58.7694 27.7973 59.3667 27.424C59.9641 27.0507 60.4307 26.5653 60.7667 25.968C61.1214 25.352 61.2987 24.6893 61.2987 23.98C60.8694 23.7373 60.3654 23.5413 59.7867 23.392C59.2081 23.224 58.5921 23.14 57.9387 23.14C56.7067 23.14 55.8294 23.392 55.3067 23.896C54.7841 24.3813 54.5227 24.9787 54.5227 25.688C54.5227 26.36 54.7747 26.9107 55.2787 27.34C55.7827 27.7693 56.4547 27.984 57.2947 27.984ZM74.7031 30V15.72H77.5591V17.68H77.7271C78.1377 16.9893 78.7351 16.42 79.5191 15.972C80.3031 15.5053 81.1711 15.272 82.1231 15.272C83.1871 15.272 84.0924 15.524 84.8391 16.028C85.5857 16.532 86.1177 17.1667 86.4351 17.932C86.9017 17.1853 87.5364 16.56 88.3391 16.056C89.1417 15.5333 90.1217 15.272 91.2791 15.272C92.9591 15.272 94.2097 15.7853 95.0311 16.812C95.8524 17.82 96.2631 19.164 96.2631 20.844V30H93.2671V21.348C93.2671 20.2093 93.0151 19.3787 92.5111 18.856C92.0257 18.3147 91.3444 18.044 90.4671 18.044C89.7764 18.044 89.1697 18.24 88.6471 18.632C88.1244 19.0053 87.7137 19.5187 87.4151 20.172C87.1351 20.8253 86.9951 21.5533 86.9951 22.356V30H83.9991V21.348C83.9991 20.2093 83.7471 19.3787 83.2431 18.856C82.7391 18.3147 82.0297 18.044 81.1151 18.044C80.4431 18.044 79.8551 18.24 79.3511 18.632C78.8471 19.024 78.4457 19.5467 78.1471 20.2C77.8671 20.8533 77.7271 21.5813 77.7271 22.384V30H74.7031ZM106.492 30.448C105.092 30.448 103.841 30.1213 102.74 29.468C101.639 28.8147 100.771 27.9187 100.136 26.78C99.5199 25.6413 99.2119 24.344 99.2119 22.888C99.2119 21.5253 99.5106 20.2653 100.108 19.108C100.705 17.9507 101.536 17.0267 102.6 16.336C103.683 15.6267 104.924 15.272 106.324 15.272C107.799 15.272 109.049 15.5893 110.076 16.224C111.121 16.8587 111.915 17.7267 112.456 18.828C112.997 19.9293 113.268 21.1707 113.268 22.552C113.268 22.7573 113.259 22.944 113.24 23.112C113.24 23.28 113.231 23.4107 113.212 23.504H102.18C102.329 24.9227 102.824 25.9867 103.664 26.696C104.523 27.4053 105.493 27.76 106.576 27.76C107.547 27.76 108.349 27.5453 108.984 27.116C109.619 26.668 110.123 26.1173 110.496 25.464L112.988 26.668C112.372 27.788 111.532 28.7027 110.468 29.412C109.404 30.1027 108.079 30.448 106.492 30.448ZM106.352 17.848C105.344 17.848 104.485 18.156 103.776 18.772C103.067 19.388 102.591 20.2093 102.348 21.236H110.272C110.235 20.7507 110.076 20.2467 109.796 19.724C109.516 19.2013 109.087 18.7627 108.508 18.408C107.948 18.0347 107.229 17.848 106.352 17.848ZM122.614 30.448C121.326 30.448 120.159 30.1307 119.114 29.496C118.087 28.8427 117.266 27.9467 116.65 26.808C116.053 25.6507 115.754 24.3347 115.754 22.86C115.754 21.3853 116.053 20.0787 116.65 18.94C117.266 17.8013 118.087 16.9053 119.114 16.252C120.159 15.5987 121.326 15.272 122.614 15.272C123.715 15.272 124.658 15.5147 125.442 16C126.245 16.4853 126.833 17.036 127.206 17.652H127.374L127.206 15.664V9.952H130.202V30H127.374V28.096H127.206C126.833 28.712 126.245 29.2627 125.442 29.748C124.658 30.2147 123.715 30.448 122.614 30.448ZM123.062 27.676C123.809 27.676 124.509 27.48 125.162 27.088C125.834 26.696 126.366 26.1453 126.758 25.436C127.169 24.708 127.374 23.8493 127.374 22.86C127.374 21.8707 127.169 21.0213 126.758 20.312C126.366 19.584 125.834 19.024 125.162 18.632C124.509 18.24 123.809 18.044 123.062 18.044C122.315 18.044 121.615 18.24 120.962 18.632C120.309 19.024 119.777 19.584 119.366 20.312C118.955 21.0213 118.75 21.8707 118.75 22.86C118.75 23.8493 118.955 24.708 119.366 25.436C119.777 26.1453 120.309 26.696 120.962 27.088C121.615 27.48 122.315 27.676 123.062 27.676Z" fill="white"/>
<g id="GPay Logo (Dark)">
<g id="GPay">
<g id="Pay">
<path id="Fill 1" fill-rule="evenodd" clip-rule="evenodd" d="M182.529 9.34665V17.5128H187.565C188.765 17.5128 189.757 17.1096 190.541 16.3032C191.347 15.4988 191.75 14.5394 191.75 13.4288C191.75 12.3406 191.347 11.3924 190.541 10.586C189.757 9.75916 188.765 9.34479 187.565 9.34479H182.529V9.34665ZM182.529 20.3872V29.8599H179.521V6.47218H187.499C189.527 6.47218 191.248 7.14787 192.666 8.49738C194.105 9.84688 194.824 11.4913 194.824 13.4288C194.824 15.411 194.105 17.0667 192.666 18.3938C191.27 19.7227 189.547 20.3854 187.499 20.3854H182.529V20.3872Z" fill="white"/>
<path id="Fill 3" fill-rule="evenodd" clip-rule="evenodd" d="M197.864 24.9602C197.864 25.7442 198.197 26.3975 198.862 26.9201C199.527 27.4427 200.306 27.704 201.2 27.704C202.465 27.704 203.591 27.2354 204.584 26.3004C205.576 25.3634 206.071 24.264 206.071 23.0022C205.133 22.2612 203.825 21.8916 202.147 21.8916C200.925 21.8916 199.907 22.1866 199.09 22.7745C198.273 23.3623 197.864 24.0886 197.864 24.9602ZM201.756 13.3317C203.98 13.3317 205.735 13.9253 207.022 15.1124C208.308 16.2995 208.95 17.9271 208.95 19.9952V29.8599H206.073V27.6387H205.942C204.699 29.4677 203.042 30.3825 200.972 30.3825C199.206 30.3825 197.728 29.8599 196.541 28.8146C195.353 27.7694 194.759 26.4628 194.759 24.8949C194.759 23.2393 195.385 21.9232 196.638 20.9434C197.892 19.9635 199.565 19.4726 201.658 19.4726C203.444 19.4726 204.916 19.7993 206.071 20.4525V19.7657C206.071 18.7204 205.656 17.8338 204.829 17.104C203.999 16.3742 203.031 16.0102 201.919 16.0102C200.239 16.0102 198.911 16.7176 197.93 18.1343L195.28 16.4675C196.741 14.377 198.899 13.3317 201.756 13.3317Z" fill="white"/>
<path id="Fill 5" fill-rule="evenodd" clip-rule="evenodd" d="M225.463 13.8543L215.424 36.9154H212.318L216.046 28.8464L209.44 13.8543H212.71L217.484 25.3522H217.55L222.193 13.8543H225.463Z" fill="white"/>
</g>
<g id="G">
<path id="Fill 8" fill-rule="evenodd" clip-rule="evenodd" d="M170.373 18.3452C170.373 17.3989 170.293 16.4861 170.141 15.6126H157.454V20.7885H164.72C164.408 22.4757 163.465 23.9112 162.033 24.8725V28.2341H166.37C168.91 25.8935 170.373 22.4348 170.373 18.3452Z" fill="#4285F4"/>
<path id="Fill 10" fill-rule="evenodd" clip-rule="evenodd" d="M157.454 31.4782C161.084 31.4782 164.141 30.2873 166.37 28.2341L162.033 24.8725C160.826 25.6844 159.272 26.1585 157.454 26.1585C153.944 26.1585 150.966 23.7955 149.901 20.6112H145.433V24.0736C147.647 28.4637 152.197 31.4782 157.454 31.4782Z" fill="#34A853"/>
<path id="Fill 12" fill-rule="evenodd" clip-rule="evenodd" d="M149.901 20.6111C149.628 19.7992 149.479 18.9331 149.479 18.0391C149.479 17.145 149.628 16.2789 149.901 15.467V12.0045H145.433C144.518 13.8188 144 15.8683 144 18.0391C144 20.2098 144.518 22.2595 145.433 24.0736L149.901 20.6111Z" fill="#FABB05"/>
<path id="Fill 14" fill-rule="evenodd" clip-rule="evenodd" d="M157.454 9.91964C159.436 9.91964 161.213 10.6009 162.615 11.9355V11.9374L166.455 8.10163C164.123 5.93272 161.082 4.60001 157.454 4.60001C152.197 4.60001 147.647 7.61447 145.433 12.0046L149.901 15.467C150.966 12.2827 153.944 9.91964 157.454 9.91964Z" fill="#E94235"/>
</g>
</g>
</g>
</g>
</svg>
