<svg width="131" height="21" viewBox="0 0 131 21" fill="none" xmlns="http://www.w3.org/2000/svg">
<g id="sv_buy_with_Pay_NBG">
<path id="Left Text" d="M1.71475 15.0006V3.54461H3.47475V9.17661L8.24275 3.54461H10.4187V3.64061L6.22675 8.47261L10.7867 14.9046V15.0006H8.64275L5.04275 9.84861L3.47475 11.6726V15.0006H1.71475ZM15.6355 15.2566C14.7928 15.2566 14.0515 15.0646 13.4115 14.6806C12.7715 14.2966 12.2702 13.7793 11.9075 13.1286C11.5448 12.4673 11.3635 11.7313 11.3635 10.9206C11.3635 10.1099 11.5448 9.37928 11.9075 8.72861C12.2702 8.06728 12.7715 7.54461 13.4115 7.16061C14.0515 6.77661 14.7928 6.58461 15.6355 6.58461C16.4675 6.58461 17.2035 6.78194 17.8435 7.17661C18.4835 7.56061 18.9848 8.07794 19.3475 8.72861C19.7102 9.37928 19.8915 10.1099 19.8915 10.9206C19.8915 11.7313 19.7102 12.4673 19.3475 13.1286C18.9848 13.7793 18.4835 14.2966 17.8435 14.6806C17.2035 15.0646 16.4675 15.2566 15.6355 15.2566ZM15.6355 13.6726C16.0835 13.6726 16.4995 13.5659 16.8835 13.3526C17.2675 13.1286 17.5768 12.8139 17.8115 12.4086C18.0568 11.9926 18.1795 11.4966 18.1795 10.9206C18.1795 10.3446 18.0568 9.85394 17.8115 9.44861C17.5768 9.03261 17.2675 8.71794 16.8835 8.50461C16.4995 8.28061 16.0835 8.16861 15.6355 8.16861C15.1875 8.16861 14.7662 8.28061 14.3715 8.50461C13.9875 8.71794 13.6728 9.03261 13.4275 9.44861C13.1928 9.85394 13.0755 10.3446 13.0755 10.9206C13.0755 11.4966 13.1928 11.9926 13.4275 12.4086C13.6728 12.8139 13.9928 13.1286 14.3875 13.3526C14.7822 13.5659 15.1982 13.6726 15.6355 13.6726ZM17.0435 5.17661C16.7768 5.17661 16.5422 5.08061 16.3395 4.88861C16.1475 4.68594 16.0515 4.45128 16.0515 4.18461C16.0515 3.89661 16.1475 3.66194 16.3395 3.48061C16.5422 3.28861 16.7768 3.19261 17.0435 3.19261C17.3315 3.19261 17.5715 3.28861 17.7635 3.48061C17.9555 3.66194 18.0515 3.89661 18.0515 4.18461C18.0515 4.45128 17.9555 4.68594 17.7635 4.88861C17.5715 5.08061 17.3315 5.17661 17.0435 5.17661ZM14.2115 5.17661C13.9448 5.17661 13.7102 5.08061 13.5075 4.88861C13.3155 4.68594 13.2195 4.45128 13.2195 4.18461C13.2195 3.89661 13.3155 3.66194 13.5075 3.48061C13.7102 3.28861 13.9448 3.19261 14.2115 3.19261C14.4995 3.19261 14.7342 3.28861 14.9155 3.48061C15.1075 3.66194 15.2035 3.89661 15.2035 4.18461C15.2035 4.45128 15.1075 4.68594 14.9155 4.88861C14.7342 5.08061 14.4995 5.17661 14.2115 5.17661ZM21.5389 18.4566V6.84061H23.1549V7.94461H23.2509C23.4002 7.70994 23.5975 7.49128 23.8429 7.28861C24.0989 7.07528 24.3975 6.90461 24.7389 6.77661C25.0802 6.64861 25.4589 6.58461 25.8749 6.58461C26.6215 6.58461 27.2882 6.77128 27.8749 7.14461C28.4615 7.51794 28.9255 8.02994 29.2669 8.68061C29.6189 9.33128 29.7949 10.0779 29.7949 10.9206C29.7949 11.7633 29.6189 12.5099 29.2669 13.1606C28.9255 13.8113 28.4615 14.3233 27.8749 14.6966C27.2882 15.0699 26.6215 15.2566 25.8749 15.2566C25.2562 15.2566 24.7175 15.1179 24.2589 14.8406C23.8002 14.5633 23.4642 14.2539 23.2509 13.9126H23.1549L23.2509 15.0486V18.4566H21.5389ZM25.6189 13.6726C26.0455 13.6726 26.4455 13.5606 26.8189 13.3366C27.2029 13.1126 27.5069 12.7926 27.7309 12.3766C27.9655 11.9606 28.0829 11.4753 28.0829 10.9206C28.0829 10.3553 27.9655 9.86994 27.7309 9.46461C27.5069 9.04861 27.2029 8.72861 26.8189 8.50461C26.4455 8.28061 26.0455 8.16861 25.6189 8.16861C25.1922 8.16861 24.7922 8.28061 24.4189 8.50461C24.0455 8.72861 23.7415 9.04861 23.5069 9.46461C23.2722 9.86994 23.1549 10.3553 23.1549 10.9206C23.1549 11.4859 23.2722 11.9766 23.5069 12.3926C23.7415 12.7979 24.0455 13.1126 24.4189 13.3366C24.7922 13.5606 25.1922 13.6726 25.6189 13.6726ZM34.093 15.2566C33.5063 15.2566 32.9837 15.1393 32.525 14.9046C32.077 14.6699 31.7197 14.3499 31.453 13.9446C31.197 13.5286 31.069 13.0539 31.069 12.5206C31.069 11.9339 31.2183 11.4379 31.517 11.0326C31.8263 10.6273 32.237 10.3179 32.749 10.1046C33.261 9.89128 33.8263 9.78461 34.445 9.78461C34.7863 9.78461 35.101 9.81128 35.389 9.86461C35.6877 9.90728 35.9437 9.96061 36.157 10.0246C36.381 10.0886 36.557 10.1579 36.685 10.2326V9.80061C36.685 9.26728 36.493 8.84061 36.109 8.52061C35.725 8.20061 35.229 8.04061 34.621 8.04061C34.205 8.04061 33.8103 8.13661 33.437 8.32861C33.0637 8.50994 32.765 8.76061 32.541 9.08061L31.357 8.16861C31.5917 7.83794 31.8743 7.55528 32.205 7.32061C32.5463 7.08594 32.925 6.90461 33.341 6.77661C33.7677 6.64861 34.2103 6.58461 34.669 6.58461C35.853 6.58461 36.765 6.87794 37.405 7.46461C38.045 8.04061 38.365 8.85128 38.365 9.89661V15.0006H36.685V13.9926H36.589C36.4503 14.2059 36.2583 14.4086 36.013 14.6006C35.7783 14.7926 35.4957 14.9473 35.165 15.0646C34.845 15.1926 34.4877 15.2566 34.093 15.2566ZM34.397 13.8486C34.845 13.8486 35.2397 13.7419 35.581 13.5286C35.933 13.3153 36.205 13.0379 36.397 12.6966C36.589 12.3446 36.685 11.9659 36.685 11.5606C36.4503 11.4219 36.1623 11.3099 35.821 11.2246C35.4903 11.1286 35.1383 11.0806 34.765 11.0806C34.061 11.0806 33.5597 11.2193 33.261 11.4966C32.9623 11.7739 32.813 12.1206 32.813 12.5366C32.813 12.9206 32.957 13.2353 33.245 13.4806C33.533 13.7259 33.917 13.8486 34.397 13.8486ZM44.3017 15.0006V6.84061H45.9337V7.96061H46.0297C46.1897 7.69394 46.3977 7.45928 46.6537 7.25661C46.9097 7.05394 47.1977 6.89394 47.5177 6.77661C47.8484 6.64861 48.1897 6.58461 48.5417 6.58461C49.1497 6.58461 49.6671 6.72861 50.0937 7.01661C50.5204 7.30461 50.8244 7.66728 51.0057 8.10461C51.2724 7.67794 51.6351 7.32061 52.0937 7.03261C52.5524 6.73394 53.1124 6.58461 53.7737 6.58461C54.7337 6.58461 55.4484 6.87794 55.9177 7.46461C56.3871 8.04061 56.6217 8.80861 56.6217 9.76861V15.0006H54.9097V10.0566C54.9097 9.39528 54.7657 8.91528 54.4777 8.61661C54.2004 8.31794 53.8111 8.16861 53.3097 8.16861C52.9151 8.16861 52.5684 8.28061 52.2697 8.50461C51.9711 8.71794 51.7364 9.01128 51.5657 9.38461C51.4057 9.75794 51.3257 10.1739 51.3257 10.6326V15.0006H49.6137V10.0566C49.6137 9.40594 49.4697 8.93128 49.1817 8.63261C48.8937 8.32328 48.4884 8.16861 47.9657 8.16861C47.5924 8.16861 47.2564 8.28061 46.9577 8.50461C46.6697 8.72861 46.4404 9.02728 46.2697 9.40061C46.1097 9.77394 46.0297 10.1899 46.0297 10.6486V15.0006H44.3017ZM62.4454 15.2566C61.6454 15.2566 60.9307 15.0699 60.3014 14.6966C59.672 14.3233 59.176 13.8113 58.8134 13.1606C58.4614 12.5099 58.2854 11.7686 58.2854 10.9366C58.2854 10.1579 58.456 9.43794 58.7974 8.77661C59.1387 8.11528 59.6134 7.58728 60.2214 7.19261C60.84 6.78728 61.5494 6.58461 62.3494 6.58461C63.192 6.58461 63.9067 6.76594 64.4934 7.12861C65.0907 7.49128 65.544 7.98728 65.8534 8.61661C66.1627 9.24594 66.3174 9.95528 66.3174 10.7446C66.3174 10.8619 66.312 10.9686 66.3014 11.0646C66.3014 11.1606 66.296 11.2353 66.2854 11.2886H59.9814C60.024 11.7366 60.136 12.1259 60.3174 12.4566C60.552 12.8726 60.8614 13.1873 61.2454 13.4006C61.6294 13.6139 62.0454 13.7206 62.4934 13.7206C63.0374 13.7206 63.4907 13.5979 63.8534 13.3526C64.2267 13.0966 64.52 12.7819 64.7334 12.4086L66.1574 13.0966C65.8054 13.7366 65.3254 14.2593 64.7174 14.6646C64.1094 15.0593 63.352 15.2566 62.4454 15.2566ZM60.0774 9.99261H64.6054C64.5947 9.78994 64.5414 9.57661 64.4454 9.35261C64.3494 9.11794 64.2107 8.90461 64.0294 8.71261C63.848 8.52061 63.6187 8.36594 63.3414 8.24861C63.064 8.12061 62.7387 8.05661 62.3654 8.05661C61.896 8.05661 61.48 8.17928 61.1174 8.42461C60.7547 8.65928 60.472 8.98994 60.2694 9.41661C60.184 9.59794 60.12 9.78994 60.0774 9.99261ZM71.6366 15.2566C70.9006 15.2566 70.234 15.0699 69.6366 14.6966C69.0393 14.3233 68.57 13.8113 68.2286 13.1606C67.8873 12.5099 67.7166 11.7633 67.7166 10.9206C67.7166 10.0779 67.8873 9.33128 68.2286 8.68061C68.57 8.02994 69.0393 7.51794 69.6366 7.14461C70.234 6.77128 70.9006 6.58461 71.6366 6.58461C72.0633 6.58461 72.4473 6.64861 72.7886 6.77661C73.13 6.90461 73.4233 7.07528 73.6686 7.28861C73.9246 7.49128 74.122 7.70994 74.2606 7.94461H74.3566L74.2606 6.80861V3.54461H75.9726V15.0006H74.3566V13.9126H74.2606C74.122 14.1366 73.9246 14.3553 73.6686 14.5686C73.4233 14.7713 73.13 14.9366 72.7886 15.0646C72.4473 15.1926 72.0633 15.2566 71.6366 15.2566ZM71.8926 13.6726C72.3193 13.6726 72.7193 13.5606 73.0926 13.3366C73.4766 13.1126 73.7806 12.7979 74.0046 12.3926C74.2393 11.9766 74.3566 11.4859 74.3566 10.9206C74.3566 10.3553 74.2393 9.86994 74.0046 9.46461C73.7806 9.04861 73.4766 8.72861 73.0926 8.50461C72.7193 8.28061 72.3193 8.16861 71.8926 8.16861C71.466 8.16861 71.066 8.28061 70.6926 8.50461C70.3193 8.72861 70.0153 9.04861 69.7806 9.46461C69.546 9.86994 69.4286 10.3553 69.4286 10.9206C69.4286 11.4753 69.546 11.9606 69.7806 12.3766C70.0153 12.7926 70.3193 13.1126 70.6926 13.3366C71.066 13.5606 71.466 13.6726 71.8926 13.6726Z" fill="white"/>
<g id="GPay (Dark)">
<g id="GPay">
<g id="Pay">
<path id="Fill 1" fill-rule="evenodd" clip-rule="evenodd" d="M105.356 3.42339V8.16175H108.278C108.974 8.16175 109.55 7.92781 110.005 7.45993C110.473 6.99313 110.707 6.43644 110.707 5.79203C110.707 5.16061 110.473 4.61041 110.005 4.14254C109.55 3.66274 108.974 3.4223 108.278 3.4223H105.356V3.42339ZM105.356 9.82966V15.3262H103.611V1.75549H108.24C109.417 1.75549 110.415 2.14756 111.238 2.93061C112.073 3.71365 112.491 4.66782 112.491 5.79203C112.491 6.94224 112.073 7.90291 111.238 8.67296C110.428 9.44409 109.429 9.82858 108.24 9.82858H105.356V9.82966Z" fill="white"/>
<path id="Fill 3" fill-rule="evenodd" clip-rule="evenodd" d="M114.255 12.4831C114.255 12.9379 114.448 13.317 114.834 13.6203C115.22 13.9235 115.672 14.0752 116.19 14.0752C116.924 14.0752 117.578 13.8032 118.153 13.2607C118.729 12.717 119.017 12.0791 119.017 11.3469C118.472 10.917 117.713 10.7025 116.74 10.7025C116.031 10.7025 115.44 10.8736 114.966 11.2148C114.492 11.5559 114.255 11.9773 114.255 12.4831M116.513 5.73566C117.803 5.73566 118.821 6.08007 119.569 6.76889C120.314 7.45771 120.687 8.40213 120.687 9.60216V15.3261H119.018V14.0373H118.942C118.221 15.0985 117.259 15.6294 116.058 15.6294C115.033 15.6294 114.176 15.3261 113.487 14.7196C112.797 14.1131 112.453 13.3549 112.453 12.4452C112.453 11.4845 112.816 10.7208 113.543 10.1523C114.271 9.58375 115.241 9.2989 116.456 9.2989C117.492 9.2989 118.346 9.48844 119.017 9.86751V9.46894C119.017 8.86243 118.776 8.34798 118.296 7.92451C117.814 7.50103 117.252 7.28984 116.607 7.28984C115.633 7.28984 114.862 7.70032 114.293 8.52235L112.755 7.55519C113.603 6.34217 114.855 5.73566 116.513 5.73566" fill="white"/>
<path id="Fill 5" fill-rule="evenodd" clip-rule="evenodd" d="M130.269 6.03894L124.443 19.4201H122.641L124.804 14.738L120.971 6.03894H122.869L125.639 12.7106H125.677L128.371 6.03894H130.269Z" fill="white"/>
</g>
<g id="G">
<path id="Fill 8" fill-rule="evenodd" clip-rule="evenodd" d="M98.3029 8.64473C98.3029 8.09563 98.2562 7.56601 98.1684 7.05914H90.8065V10.0625H95.0231C94.842 11.0414 94.2944 11.8744 93.4639 12.4322V14.3828H95.9804C97.4539 13.0246 98.3029 11.0177 98.3029 8.64473" fill="#4285F4"/>
<path id="Fill 10" fill-rule="evenodd" clip-rule="evenodd" d="M90.8065 16.2651C92.9131 16.2651 94.6869 15.5741 95.9804 14.3828L93.4639 12.4322C92.7635 12.9033 91.8614 13.1784 90.8065 13.1784C88.7703 13.1784 87.042 11.8073 86.424 9.95959H83.8316V11.9687C85.1164 14.516 87.7565 16.2651 90.8065 16.2651" fill="#34A853"/>
<path id="Fill 12" fill-rule="evenodd" clip-rule="evenodd" d="M86.424 9.9596C86.2657 9.48847 86.179 8.98593 86.179 8.46715C86.179 7.94837 86.2657 7.44583 86.424 6.9747V4.96564H83.8316C83.3003 6.01837 83 7.20756 83 8.46715C83 9.72674 83.3003 10.916 83.8316 11.9687L86.424 9.9596Z" fill="#FABB05"/>
<path id="Fill 14" fill-rule="evenodd" clip-rule="evenodd" d="M90.8065 3.75583C91.9568 3.75583 92.9879 4.15115 93.8011 4.92553V4.92661L96.0292 2.70094C94.6761 1.44243 92.912 0.669128 90.8065 0.669128C87.7565 0.669128 85.1164 2.41826 83.8316 4.9656L86.424 6.97467C87.042 5.12698 88.7703 3.75583 90.8065 3.75583" fill="#E94235"/>
</g>
</g>
</g>
</g>
</svg>
