<svg width="332" height="38" viewBox="0 0 332 38" fill="none" xmlns="http://www.w3.org/2000/svg">
<g id="sv_checkout_with_Light">
<path id="Text" d="M8.70528 30.448C7.64128 30.448 6.62395 30.2427 5.65328 29.832C4.68261 29.4027 3.82395 28.7773 3.07728 27.956C2.34928 27.1347 1.80795 26.1173 1.45328 24.904L4.36528 23.728C4.66395 24.8107 5.18661 25.716 5.93328 26.444C6.67995 27.172 7.61328 27.536 8.73328 27.536C9.36795 27.536 9.95595 27.424 10.4973 27.2C11.0573 26.976 11.5053 26.6493 11.8413 26.22C12.1773 25.772 12.3453 25.2307 12.3453 24.596C12.3453 23.7187 12.0186 23.0187 11.3653 22.496C10.7119 21.9547 9.66661 21.4227 8.22928 20.9L6.96928 20.452C6.24128 20.1907 5.50395 19.836 4.75728 19.388C4.02928 18.9213 3.42261 18.3333 2.93728 17.624C2.45195 16.896 2.20928 16.0093 2.20928 14.964C2.20928 13.9747 2.47061 13.0693 2.99328 12.248C3.53461 11.408 4.27195 10.7453 5.20528 10.26C6.15728 9.756 7.25861 9.504 8.50928 9.504C9.79728 9.504 10.8706 9.73733 11.7293 10.204C12.6066 10.652 13.2879 11.2027 13.7733 11.856C14.2773 12.4907 14.6226 13.088 14.8093 13.648L12.0373 14.824C11.9253 14.4507 11.7199 14.0773 11.4213 13.704C11.1413 13.312 10.7586 12.9947 10.2733 12.752C9.80662 12.4907 9.22795 12.36 8.53728 12.36C7.64128 12.36 6.86661 12.6027 6.21328 13.088C5.57861 13.5547 5.26128 14.1707 5.26128 14.936C5.26128 15.664 5.55995 16.252 6.15728 16.7C6.75461 17.148 7.62261 17.568 8.76128 17.96L10.0493 18.408C10.9079 18.688 11.7479 19.0707 12.5693 19.556C13.4093 20.0413 14.0906 20.6853 14.6133 21.488C15.1546 22.272 15.4253 23.2893 15.4253 24.54C15.4253 25.5667 15.2199 26.4533 14.8093 27.2C14.4173 27.9467 13.8853 28.5627 13.2133 29.048C12.5599 29.5147 11.8319 29.86 11.0293 30.084C10.2453 30.3267 9.47061 30.448 8.70528 30.448ZM18.8107 30V9.952H21.8347V30H18.8107ZM30.8799 30.448C29.1253 30.448 27.7999 29.9253 26.9039 28.88C26.0266 27.816 25.5879 26.3787 25.5879 24.568V15.72H28.6119V24.148C28.6119 25.3613 28.8919 26.2573 29.4519 26.836C30.0306 27.396 30.7493 27.676 31.6079 27.676C32.3733 27.676 33.0359 27.48 33.5959 27.088C34.1746 26.6773 34.6133 26.1547 34.9119 25.52C35.2293 24.8667 35.3879 24.1573 35.3879 23.392V15.72H38.3839V30H35.5559V28.068H35.3879C34.9773 28.74 34.3613 29.3093 33.5399 29.776C32.7373 30.224 31.8506 30.448 30.8799 30.448ZM43.8908 25.856V18.352H41.3988V15.72H43.8908V11.688H46.9148V15.72H53.1028V18.352H46.9148V25.212C46.9148 25.9027 47.0548 26.444 47.3348 26.836C47.6335 27.2093 48.1188 27.396 48.7908 27.396C49.1082 27.396 49.3788 27.3587 49.6028 27.284C49.8268 27.1907 50.0508 27.0787 50.2748 26.948V29.86C49.9948 29.972 49.7055 30.056 49.4068 30.112C49.1082 30.1867 48.7162 30.224 48.2308 30.224C46.9055 30.224 45.8508 29.8413 45.0668 29.076C44.2828 28.292 43.8908 27.2187 43.8908 25.856ZM52.9908 30V18.352H50.3868V15.72H52.9908V14.544C52.9908 13.536 53.2055 12.6773 53.6348 11.968C54.0642 11.24 54.6428 10.6893 55.3708 10.316C56.1175 9.924 56.9575 9.728 57.8908 9.728C58.3948 9.728 58.8242 9.76533 59.1788 9.84C59.5522 9.896 59.8602 9.97067 60.1028 10.064V13.004C59.8602 12.9107 59.5802 12.8173 59.2628 12.724C58.9642 12.612 58.5908 12.556 58.1428 12.556C57.5642 12.556 57.0602 12.752 56.6308 13.144C56.2015 13.5173 55.9868 14.068 55.9868 14.796V15.72H59.5708V18.352H55.9868V30H52.9908ZM68.5942 30.448C67.1195 30.448 65.8222 30.112 64.7022 29.44C63.5822 28.768 62.7048 27.8627 62.0702 26.724C61.4355 25.5853 61.1182 24.2973 61.1182 22.86C61.1182 21.4413 61.4355 20.1627 62.0702 19.024C62.7048 17.8667 63.5822 16.952 64.7022 16.28C65.8222 15.608 67.1195 15.272 68.5942 15.272C70.0502 15.272 71.3382 15.608 72.4582 16.28C73.5782 16.952 74.4555 17.8667 75.0902 19.024C75.7248 20.1627 76.0422 21.4413 76.0422 22.86C76.0422 24.2973 75.7248 25.5853 75.0902 26.724C74.4555 27.8627 73.5782 28.768 72.4582 29.44C71.3382 30.112 70.0502 30.448 68.5942 30.448ZM68.5942 27.676C69.3782 27.676 70.1062 27.4893 70.7782 27.116C71.4502 26.724 71.9915 26.1733 72.4022 25.464C72.8315 24.736 73.0462 23.868 73.0462 22.86C73.0462 21.852 72.8315 20.9933 72.4022 20.284C71.9915 19.556 71.4502 19.0053 70.7782 18.632C70.1062 18.24 69.3782 18.044 68.5942 18.044C67.8102 18.044 67.0728 18.24 66.3822 18.632C65.7102 19.0053 65.1595 19.556 64.7302 20.284C64.3195 20.9933 64.1142 21.852 64.1142 22.86C64.1142 23.868 64.3195 24.736 64.7302 25.464C65.1595 26.1733 65.7102 26.724 66.3822 27.116C67.0728 27.4893 67.8102 27.676 68.5942 27.676ZM71.0582 12.808C70.5915 12.808 70.1808 12.64 69.8262 12.304C69.4902 11.9493 69.3222 11.5293 69.3222 11.044C69.3222 10.5587 69.4902 10.1573 69.8262 9.84C70.1808 9.504 70.5915 9.336 71.0582 9.336C71.5622 9.336 71.9822 9.504 72.3182 9.84C72.6542 10.1573 72.8222 10.5587 72.8222 11.044C72.8222 11.5293 72.6542 11.9493 72.3182 12.304C71.9822 12.64 71.5622 12.808 71.0582 12.808ZM66.1022 12.808C65.6355 12.808 65.2248 12.64 64.8702 12.304C64.5342 11.9493 64.3662 11.5293 64.3662 11.044C64.3662 10.5587 64.5342 10.1573 64.8702 9.84C65.2248 9.504 65.6355 9.336 66.1022 9.336C66.6062 9.336 67.0168 9.504 67.3342 9.84C67.6702 10.1573 67.8382 10.5587 67.8382 11.044C67.8382 11.5293 67.6702 11.9493 67.3342 12.304C67.0168 12.64 66.6062 12.808 66.1022 12.808ZM78.8538 30V15.72H81.7098V17.82H81.8778C82.1952 17.092 82.7365 16.4947 83.5018 16.028C84.2858 15.5427 85.1258 15.3 86.0218 15.3C86.4138 15.3 86.7405 15.328 87.0018 15.384C87.2818 15.44 87.5338 15.5053 87.7578 15.58V18.716C87.4032 18.5667 87.0392 18.4453 86.6658 18.352C86.3112 18.2587 85.9378 18.212 85.5458 18.212C84.8365 18.212 84.2018 18.408 83.6418 18.8C83.1005 19.1733 82.6712 19.6867 82.3538 20.34C82.0365 20.9747 81.8778 21.6747 81.8778 22.44V30H78.8538ZM97.2273 30V9.952H100.251V21.768L106.299 15.72H110.051V15.888L104.535 21.348L110.247 29.832V30H106.663L102.407 23.448L100.251 25.576V30H97.2273ZM118.739 30.448C117.265 30.448 115.967 30.112 114.847 29.44C113.727 28.768 112.85 27.8627 112.215 26.724C111.581 25.5853 111.263 24.2973 111.263 22.86C111.263 21.4413 111.581 20.1627 112.215 19.024C112.85 17.8667 113.727 16.952 114.847 16.28C115.967 15.608 117.265 15.272 118.739 15.272C120.195 15.272 121.483 15.608 122.603 16.28C123.723 16.952 124.601 17.8667 125.235 19.024C125.87 20.1627 126.187 21.4413 126.187 22.86C126.187 24.2973 125.87 25.5853 125.235 26.724C124.601 27.8627 123.723 28.768 122.603 29.44C121.483 30.112 120.195 30.448 118.739 30.448ZM118.739 27.676C119.523 27.676 120.251 27.4893 120.923 27.116C121.595 26.724 122.137 26.1733 122.547 25.464C122.977 24.736 123.191 23.868 123.191 22.86C123.191 21.852 122.977 20.9933 122.547 20.284C122.137 19.556 121.595 19.0053 120.923 18.632C120.251 18.24 119.523 18.044 118.739 18.044C117.955 18.044 117.218 18.24 116.527 18.632C115.855 19.0053 115.305 19.556 114.875 20.284C114.465 20.9933 114.259 21.852 114.259 22.86C114.259 23.868 114.465 24.736 114.875 25.464C115.305 26.1733 115.855 26.724 116.527 27.116C117.218 27.4893 117.955 27.676 118.739 27.676ZM121.203 12.808C120.737 12.808 120.326 12.64 119.971 12.304C119.635 11.9493 119.467 11.5293 119.467 11.044C119.467 10.5587 119.635 10.1573 119.971 9.84C120.326 9.504 120.737 9.336 121.203 9.336C121.707 9.336 122.127 9.504 122.463 9.84C122.799 10.1573 122.967 10.5587 122.967 11.044C122.967 11.5293 122.799 11.9493 122.463 12.304C122.127 12.64 121.707 12.808 121.203 12.808ZM116.247 12.808C115.781 12.808 115.37 12.64 115.015 12.304C114.679 11.9493 114.511 11.5293 114.511 11.044C114.511 10.5587 114.679 10.1573 115.015 9.84C115.37 9.504 115.781 9.336 116.247 9.336C116.751 9.336 117.162 9.504 117.479 9.84C117.815 10.1573 117.983 10.5587 117.983 11.044C117.983 11.5293 117.815 11.9493 117.479 12.304C117.162 12.64 116.751 12.808 116.247 12.808ZM129.108 36.048V15.72H131.936V17.652H132.104C132.477 17.036 133.056 16.4853 133.84 16C134.643 15.5147 135.595 15.272 136.696 15.272C138.003 15.272 139.169 15.5987 140.196 16.252C141.223 16.9053 142.035 17.8013 142.632 18.94C143.248 20.0787 143.556 21.3853 143.556 22.86C143.556 24.3347 143.248 25.6507 142.632 26.808C142.035 27.9467 141.223 28.8427 140.196 29.496C139.169 30.1307 138.003 30.448 136.696 30.448C135.595 30.448 134.643 30.2147 133.84 29.748C133.056 29.2627 132.477 28.712 132.104 28.096H131.936L132.104 30.084V36.048H129.108ZM136.248 27.676C136.995 27.676 137.695 27.48 138.348 27.088C139.001 26.696 139.533 26.1453 139.944 25.436C140.355 24.708 140.56 23.8493 140.56 22.86C140.56 21.8707 140.355 21.0213 139.944 20.312C139.533 19.584 139.001 19.024 138.348 18.632C137.695 18.24 136.995 18.044 136.248 18.044C135.501 18.044 134.801 18.24 134.148 18.632C133.495 19.024 132.963 19.584 132.552 20.312C132.141 21.0213 131.936 21.8707 131.936 22.86C131.936 23.8493 132.141 24.708 132.552 25.436C132.963 26.1453 133.495 26.696 134.148 27.088C134.801 27.48 135.501 27.676 136.248 27.676ZM153.159 30.448C151.759 30.448 150.508 30.1213 149.407 29.468C148.306 28.8147 147.438 27.9187 146.803 26.78C146.187 25.6413 145.879 24.344 145.879 22.888C145.879 21.5253 146.178 20.2653 146.775 19.108C147.372 17.9507 148.203 17.0267 149.267 16.336C150.35 15.6267 151.591 15.272 152.991 15.272C154.466 15.272 155.716 15.5893 156.743 16.224C157.788 16.8587 158.582 17.7267 159.123 18.828C159.664 19.9293 159.935 21.1707 159.935 22.552C159.935 22.7573 159.926 22.944 159.907 23.112C159.907 23.28 159.898 23.4107 159.879 23.504H148.847C148.996 24.9227 149.491 25.9867 150.331 26.696C151.19 27.4053 152.16 27.76 153.243 27.76C154.214 27.76 155.016 27.5453 155.651 27.116C156.286 26.668 156.79 26.1173 157.163 25.464L159.655 26.668C159.039 27.788 158.199 28.7027 157.135 29.412C156.071 30.1027 154.746 30.448 153.159 30.448ZM153.019 17.848C152.011 17.848 151.152 18.156 150.443 18.772C149.734 19.388 149.258 20.2093 149.015 21.236H156.939C156.902 20.7507 156.743 20.2467 156.463 19.724C156.183 19.2013 155.754 18.7627 155.175 18.408C154.615 18.0347 153.896 17.848 153.019 17.848ZM164.142 25.856V18.352H161.65V15.72H164.142V11.688H167.166V15.72H170.666V18.352H167.166V25.212C167.166 25.9213 167.306 26.4627 167.586 26.836C167.885 27.2093 168.38 27.396 169.07 27.396C169.425 27.396 169.724 27.3493 169.966 27.256C170.228 27.1627 170.489 27.032 170.75 26.864V29.804C170.433 29.9347 170.097 30.0373 169.742 30.112C169.388 30.1867 168.968 30.224 168.482 30.224C167.157 30.224 166.102 29.8413 165.318 29.076C164.534 28.292 164.142 27.2187 164.142 25.856ZM180.703 30V15.72H183.559V17.68H183.727C184.138 16.9893 184.735 16.42 185.519 15.972C186.303 15.5053 187.171 15.272 188.123 15.272C189.187 15.272 190.092 15.524 190.839 16.028C191.586 16.532 192.118 17.1667 192.435 17.932C192.902 17.1853 193.536 16.56 194.339 16.056C195.142 15.5333 196.122 15.272 197.279 15.272C198.959 15.272 200.21 15.7853 201.031 16.812C201.852 17.82 202.263 19.164 202.263 20.844V30H199.267V21.348C199.267 20.2093 199.015 19.3787 198.511 18.856C198.026 18.3147 197.344 18.044 196.467 18.044C195.776 18.044 195.17 18.24 194.647 18.632C194.124 19.0053 193.714 19.5187 193.415 20.172C193.135 20.8253 192.995 21.5533 192.995 22.356V30H189.999V21.348C189.999 20.2093 189.747 19.3787 189.243 18.856C188.739 18.3147 188.03 18.044 187.115 18.044C186.443 18.044 185.855 18.24 185.351 18.632C184.847 19.024 184.446 19.5467 184.147 20.2C183.867 20.8533 183.727 21.5813 183.727 22.384V30H180.703ZM212.492 30.448C211.092 30.448 209.841 30.1213 208.74 29.468C207.639 28.8147 206.771 27.9187 206.136 26.78C205.52 25.6413 205.212 24.344 205.212 22.888C205.212 21.5253 205.511 20.2653 206.108 19.108C206.705 17.9507 207.536 17.0267 208.6 16.336C209.683 15.6267 210.924 15.272 212.324 15.272C213.799 15.272 215.049 15.5893 216.076 16.224C217.121 16.8587 217.915 17.7267 218.456 18.828C218.997 19.9293 219.268 21.1707 219.268 22.552C219.268 22.7573 219.259 22.944 219.24 23.112C219.24 23.28 219.231 23.4107 219.212 23.504H208.18C208.329 24.9227 208.824 25.9867 209.664 26.696C210.523 27.4053 211.493 27.76 212.576 27.76C213.547 27.76 214.349 27.5453 214.984 27.116C215.619 26.668 216.123 26.1173 216.496 25.464L218.988 26.668C218.372 27.788 217.532 28.7027 216.468 29.412C215.404 30.1027 214.079 30.448 212.492 30.448ZM212.352 17.848C211.344 17.848 210.485 18.156 209.776 18.772C209.067 19.388 208.591 20.2093 208.348 21.236H216.272C216.235 20.7507 216.076 20.2467 215.796 19.724C215.516 19.2013 215.087 18.7627 214.508 18.408C213.948 18.0347 213.229 17.848 212.352 17.848ZM228.614 30.448C227.326 30.448 226.159 30.1307 225.114 29.496C224.087 28.8427 223.266 27.9467 222.65 26.808C222.053 25.6507 221.754 24.3347 221.754 22.86C221.754 21.3853 222.053 20.0787 222.65 18.94C223.266 17.8013 224.087 16.9053 225.114 16.252C226.159 15.5987 227.326 15.272 228.614 15.272C229.715 15.272 230.658 15.5147 231.442 16C232.245 16.4853 232.833 17.036 233.206 17.652H233.374L233.206 15.664V9.952H236.202V30H233.374V28.096H233.206C232.833 28.712 232.245 29.2627 231.442 29.748C230.658 30.2147 229.715 30.448 228.614 30.448ZM229.062 27.676C229.809 27.676 230.509 27.48 231.162 27.088C231.834 26.696 232.366 26.1453 232.758 25.436C233.169 24.708 233.374 23.8493 233.374 22.86C233.374 21.8707 233.169 21.0213 232.758 20.312C232.366 19.584 231.834 19.024 231.162 18.632C230.509 18.24 229.809 18.044 229.062 18.044C228.315 18.044 227.615 18.24 226.962 18.632C226.309 19.024 225.777 19.584 225.366 20.312C224.955 21.0213 224.75 21.8707 224.75 22.86C224.75 23.8493 224.955 24.708 225.366 25.436C225.777 26.1453 226.309 26.696 226.962 27.088C227.615 27.48 228.315 27.676 229.062 27.676Z" fill="#3C4043"/>
<g id="GPay Logo (Light)">
<g id="GPay">
<g id="Pay">
<path id="Fill 1" fill-rule="evenodd" clip-rule="evenodd" d="M288.529 9.44664V17.6128H293.565C294.765 17.6128 295.757 17.2096 296.541 16.4032C297.347 15.5988 297.75 14.6394 297.75 13.5288C297.75 12.4406 297.347 11.4924 296.541 10.686C295.757 9.85915 294.765 9.44478 293.565 9.44478H288.529V9.44664ZM288.529 20.4872V29.9599H285.521V6.57217H293.499C295.527 6.57217 297.248 7.24786 298.666 8.59737C300.105 9.94688 300.824 11.5913 300.824 13.5288C300.824 15.511 300.105 17.1667 298.666 18.4938C297.27 19.8227 295.547 20.4854 293.499 20.4854H288.529V20.4872Z" fill="#5F6368"/>
<path id="Fill 3" fill-rule="evenodd" clip-rule="evenodd" d="M303.864 25.0602C303.864 25.8442 304.197 26.4975 304.862 27.0201C305.527 27.5427 306.306 27.804 307.2 27.804C308.465 27.804 309.591 27.3354 310.584 26.4004C311.576 25.4634 312.071 24.364 312.071 23.1022C311.133 22.3612 309.825 21.9916 308.147 21.9916C306.925 21.9916 305.907 22.2865 305.09 22.8745C304.273 23.4623 303.864 24.1886 303.864 25.0602ZM307.756 13.4317C309.98 13.4317 311.735 14.0252 313.022 15.2124C314.308 16.3995 314.95 18.0271 314.95 20.0952V29.9599H312.073V27.7387H311.942C310.699 29.5677 309.042 30.4825 306.972 30.4825C305.206 30.4825 303.728 29.9599 302.541 28.9146C301.353 27.8694 300.759 26.5628 300.759 24.9949C300.759 23.3393 301.385 22.0232 302.638 21.0434C303.892 20.0635 305.565 19.5726 307.658 19.5726C309.444 19.5726 310.916 19.8992 312.071 20.5525V19.8656C312.071 18.8204 311.656 17.9338 310.829 17.204C309.999 16.4741 309.031 16.1102 307.919 16.1102C306.239 16.1102 304.911 16.8176 303.93 18.2343L301.28 16.5675C302.741 14.4769 304.899 13.4317 307.756 13.4317Z" fill="#5F6368"/>
<path id="Fill 5" fill-rule="evenodd" clip-rule="evenodd" d="M331.463 13.9543L321.424 37.0154H318.318L322.046 28.9464L315.44 13.9543H318.71L323.484 25.4522H323.55L328.193 13.9543H331.463Z" fill="#5F6368"/>
</g>
<g id="G">
<path id="Fill 8" fill-rule="evenodd" clip-rule="evenodd" d="M276.373 18.4452C276.373 17.4989 276.293 16.5861 276.141 15.7126H263.454V20.8885H270.72C270.408 22.5757 269.465 24.0112 268.033 24.9725V28.3341H272.37C274.91 25.9935 276.373 22.5348 276.373 18.4452Z" fill="#4285F4"/>
<path id="Fill 10" fill-rule="evenodd" clip-rule="evenodd" d="M263.454 31.5782C267.084 31.5782 270.141 30.3873 272.37 28.3341L268.033 24.9725C266.826 25.7844 265.272 26.2585 263.454 26.2585C259.944 26.2585 256.966 23.8955 255.901 20.7112H251.433V24.1736C253.647 28.5637 258.197 31.5782 263.454 31.5782Z" fill="#34A853"/>
<path id="Fill 12" fill-rule="evenodd" clip-rule="evenodd" d="M255.901 20.7111C255.628 19.8992 255.479 19.0331 255.479 18.139C255.479 17.245 255.628 16.3789 255.901 15.567V12.1045H251.433C250.518 13.9188 250 15.9683 250 18.139C250 20.3098 250.518 22.3595 251.433 24.1736L255.901 20.7111Z" fill="#FABB05"/>
<path id="Fill 14" fill-rule="evenodd" clip-rule="evenodd" d="M263.454 10.0196C265.436 10.0196 267.213 10.7009 268.615 12.0355V12.0374L272.455 8.20162C270.123 6.03271 267.082 4.7 263.454 4.7C258.197 4.7 253.647 7.71446 251.433 12.1046L255.901 15.567C256.966 12.3827 259.944 10.0196 263.454 10.0196Z" fill="#E94235"/>
</g>
</g>
</g>
</g>
</svg>
