<svg width="145" height="21" viewBox="0 0 145 21" fill="none" xmlns="http://www.w3.org/2000/svg">
<g id="sv_checkout_with_Pay_NBG">
<path id="Left Text" d="M2.27413 15.0006V3.54461H4.03413V8.31261H9.39413V3.54461H11.1381V15.0006H9.39413V9.97661H4.03413V15.0006H2.27413ZM15.9149 15.2566C15.3282 15.2566 14.8055 15.1393 14.3469 14.9046C13.8989 14.6699 13.5415 14.3499 13.2749 13.9446C13.0189 13.5286 12.8909 13.0539 12.8909 12.5206C12.8909 11.9339 13.0402 11.4379 13.3389 11.0326C13.6482 10.6273 14.0589 10.3179 14.5709 10.1046C15.0829 9.89128 15.6482 9.78461 16.2669 9.78461C16.6082 9.78461 16.9229 9.81128 17.2109 9.86461C17.5095 9.90728 17.7655 9.96061 17.9789 10.0246C18.2029 10.0886 18.3789 10.1579 18.5069 10.2326V9.80061C18.5069 9.26728 18.3149 8.84061 17.9309 8.52061C17.5469 8.20061 17.0509 8.04061 16.4429 8.04061C16.0269 8.04061 15.6322 8.13661 15.2589 8.32861C14.8855 8.50994 14.5869 8.76061 14.3629 9.08061L13.1789 8.16861C13.4135 7.83794 13.6962 7.55528 14.0269 7.32061C14.3682 7.08594 14.7469 6.90461 15.1629 6.77661C15.5895 6.64861 16.0322 6.58461 16.4909 6.58461C17.6749 6.58461 18.5869 6.87794 19.2269 7.46461C19.8669 8.04061 20.1869 8.85128 20.1869 9.89661V15.0006H18.5069V13.9926H18.4109C18.2722 14.2059 18.0802 14.4086 17.8349 14.6006C17.6002 14.7926 17.3175 14.9473 16.9869 15.0646C16.6669 15.1926 16.3095 15.2566 15.9149 15.2566ZM16.2189 13.8486C16.6669 13.8486 17.0615 13.7419 17.4029 13.5286C17.7549 13.3153 18.0269 13.0379 18.2189 12.6966C18.4109 12.3446 18.5069 11.9659 18.5069 11.5606C18.2722 11.4219 17.9842 11.3099 17.6429 11.2246C17.3122 11.1286 16.9602 11.0806 16.5869 11.0806C15.8829 11.0806 15.3815 11.2193 15.0829 11.4966C14.7842 11.7739 14.6349 12.1206 14.6349 12.5366C14.6349 12.9206 14.7789 13.2353 15.0669 13.4806C15.3549 13.7259 15.7389 13.8486 16.2189 13.8486ZM22.2393 15.0006V6.84061H23.8713V7.96061H23.9673C24.2019 7.56594 24.5486 7.24061 25.0073 6.98461C25.4766 6.71794 25.9886 6.58461 26.5433 6.58461C27.5459 6.58461 28.2979 6.88328 28.7993 7.48061C29.3006 8.06728 29.5513 8.85661 29.5513 9.84861V15.0006H27.8393V10.0726C27.8393 9.41128 27.6739 8.93128 27.3433 8.63261C27.0126 8.32328 26.5806 8.16861 26.0473 8.16861C25.6313 8.16861 25.2686 8.28594 24.9593 8.52061C24.6499 8.74461 24.4046 9.04328 24.2233 9.41661C24.0526 9.78994 23.9673 10.1899 23.9673 10.6166V15.0006H22.2393ZM35.1585 15.2566C34.4225 15.2566 33.7558 15.0699 33.1585 14.6966C32.5612 14.3233 32.0918 13.8113 31.7505 13.1606C31.4092 12.5099 31.2385 11.7633 31.2385 10.9206C31.2385 10.0779 31.4092 9.33128 31.7505 8.68061C32.0918 8.02994 32.5612 7.51794 33.1585 7.14461C33.7558 6.77128 34.4225 6.58461 35.1585 6.58461C35.5852 6.58461 35.9692 6.64861 36.3105 6.77661C36.6518 6.90461 36.9452 7.07528 37.1905 7.28861C37.4465 7.49128 37.6438 7.70994 37.7825 7.94461H37.8785L37.7825 6.80861V3.54461H39.4945V15.0006H37.8785V13.9126H37.7825C37.6438 14.1366 37.4465 14.3553 37.1905 14.5686C36.9452 14.7713 36.6518 14.9366 36.3105 15.0646C35.9692 15.1926 35.5852 15.2566 35.1585 15.2566ZM35.4145 13.6726C35.8412 13.6726 36.2412 13.5606 36.6145 13.3366C36.9985 13.1126 37.3025 12.7979 37.5265 12.3926C37.7612 11.9766 37.8785 11.4859 37.8785 10.9206C37.8785 10.3553 37.7612 9.86994 37.5265 9.46461C37.3025 9.04861 36.9985 8.72861 36.6145 8.50461C36.2412 8.28061 35.8412 8.16861 35.4145 8.16861C34.9878 8.16861 34.5878 8.28061 34.2145 8.50461C33.8412 8.72861 33.5372 9.04861 33.3025 9.46461C33.0678 9.86994 32.9505 10.3553 32.9505 10.9206C32.9505 11.4753 33.0678 11.9606 33.3025 12.3766C33.5372 12.7926 33.8412 13.1126 34.2145 13.3366C34.5878 13.5606 34.9878 13.6726 35.4145 13.6726ZM41.6959 15.0006V3.54461H43.4239V15.0006H41.6959ZM48.093 15.2566C47.5063 15.2566 46.9837 15.1393 46.525 14.9046C46.077 14.6699 45.7197 14.3499 45.453 13.9446C45.197 13.5286 45.069 13.0539 45.069 12.5206C45.069 11.9339 45.2183 11.4379 45.517 11.0326C45.8263 10.6273 46.237 10.3179 46.749 10.1046C47.261 9.89128 47.8263 9.78461 48.445 9.78461C48.7863 9.78461 49.101 9.81128 49.389 9.86461C49.6877 9.90728 49.9437 9.96061 50.157 10.0246C50.381 10.0886 50.557 10.1579 50.685 10.2326V9.80061C50.685 9.26728 50.493 8.84061 50.109 8.52061C49.725 8.20061 49.229 8.04061 48.621 8.04061C48.205 8.04061 47.8103 8.13661 47.437 8.32861C47.0637 8.50994 46.765 8.76061 46.541 9.08061L45.357 8.16861C45.5917 7.83794 45.8743 7.55528 46.205 7.32061C46.5463 7.08594 46.925 6.90461 47.341 6.77661C47.7677 6.64861 48.2103 6.58461 48.669 6.58461C49.853 6.58461 50.765 6.87794 51.405 7.46461C52.045 8.04061 52.365 8.85128 52.365 9.89661V15.0006H50.685V13.9926H50.589C50.4503 14.2059 50.2583 14.4086 50.013 14.6006C49.7783 14.7926 49.4957 14.9473 49.165 15.0646C48.845 15.1926 48.4877 15.2566 48.093 15.2566ZM48.397 13.8486C48.845 13.8486 49.2397 13.7419 49.581 13.5286C49.933 13.3153 50.205 13.0379 50.397 12.6966C50.589 12.3446 50.685 11.9659 50.685 11.5606C50.4503 11.4219 50.1623 11.3099 49.821 11.2246C49.4903 11.1286 49.1383 11.0806 48.765 11.0806C48.061 11.0806 47.5597 11.2193 47.261 11.4966C46.9623 11.7739 46.813 12.1206 46.813 12.5366C46.813 12.9206 46.957 13.2353 47.245 13.4806C47.533 13.7259 47.917 13.8486 48.397 13.8486ZM58.3018 15.0006V6.84061H59.9338V7.96061H60.0298C60.1898 7.69394 60.3978 7.45928 60.6538 7.25661C60.9098 7.05394 61.1978 6.89394 61.5178 6.77661C61.8484 6.64861 62.1898 6.58461 62.5418 6.58461C63.1498 6.58461 63.6671 6.72861 64.0938 7.01661C64.5204 7.30461 64.8244 7.66728 65.0058 8.10461C65.2724 7.67794 65.6351 7.32061 66.0938 7.03261C66.5524 6.73394 67.1124 6.58461 67.7738 6.58461C68.7338 6.58461 69.4484 6.87794 69.9178 7.46461C70.3871 8.04061 70.6218 8.80861 70.6218 9.76861V15.0006H68.9098V10.0566C68.9098 9.39528 68.7658 8.91528 68.4778 8.61661C68.2004 8.31794 67.8111 8.16861 67.3098 8.16861C66.9151 8.16861 66.5684 8.28061 66.2698 8.50461C65.9711 8.71794 65.7364 9.01128 65.5658 9.38461C65.4058 9.75794 65.3258 10.1739 65.3258 10.6326V15.0006H63.6138V10.0566C63.6138 9.40594 63.4698 8.93128 63.1818 8.63261C62.8938 8.32328 62.4884 8.16861 61.9658 8.16861C61.5924 8.16861 61.2564 8.28061 60.9578 8.50461C60.6698 8.72861 60.4404 9.02728 60.2698 9.40061C60.1098 9.77394 60.0298 10.1899 60.0298 10.6486V15.0006H58.3018ZM76.4454 15.2566C75.6454 15.2566 74.9307 15.0699 74.3014 14.6966C73.672 14.3233 73.176 13.8113 72.8134 13.1606C72.4614 12.5099 72.2854 11.7686 72.2854 10.9366C72.2854 10.1579 72.456 9.43794 72.7974 8.77661C73.1387 8.11528 73.6134 7.58728 74.2214 7.19261C74.84 6.78728 75.5494 6.58461 76.3494 6.58461C77.192 6.58461 77.9067 6.76594 78.4934 7.12861C79.0907 7.49128 79.544 7.98728 79.8534 8.61661C80.1627 9.24594 80.3174 9.95528 80.3174 10.7446C80.3174 10.8619 80.312 10.9686 80.3014 11.0646C80.3014 11.1606 80.296 11.2353 80.2854 11.2886H73.9814C74.024 11.7366 74.136 12.1259 74.3174 12.4566C74.552 12.8726 74.8614 13.1873 75.2454 13.4006C75.6294 13.6139 76.0454 13.7206 76.4934 13.7206C77.0374 13.7206 77.4907 13.5979 77.8534 13.3526C78.2267 13.0966 78.52 12.7819 78.7334 12.4086L80.1574 13.0966C79.8054 13.7366 79.3254 14.2593 78.7174 14.6646C78.1094 15.0593 77.352 15.2566 76.4454 15.2566ZM74.0774 9.99261H78.6054C78.5947 9.78994 78.5414 9.57661 78.4454 9.35261C78.3494 9.11794 78.2107 8.90461 78.0294 8.71261C77.848 8.52061 77.6187 8.36594 77.3414 8.24861C77.064 8.12061 76.7387 8.05661 76.3654 8.05661C75.896 8.05661 75.48 8.17928 75.1174 8.42461C74.7547 8.65928 74.472 8.98994 74.2694 9.41661C74.184 9.59794 74.12 9.78994 74.0774 9.99261ZM85.6366 15.2566C84.9006 15.2566 84.234 15.0699 83.6366 14.6966C83.0393 14.3233 82.57 13.8113 82.2286 13.1606C81.8873 12.5099 81.7166 11.7633 81.7166 10.9206C81.7166 10.0779 81.8873 9.33128 82.2286 8.68061C82.57 8.02994 83.0393 7.51794 83.6366 7.14461C84.234 6.77128 84.9006 6.58461 85.6366 6.58461C86.0633 6.58461 86.4473 6.64861 86.7886 6.77661C87.13 6.90461 87.4233 7.07528 87.6686 7.28861C87.9246 7.49128 88.122 7.70994 88.2606 7.94461H88.3566L88.2606 6.80861V3.54461H89.9726V15.0006H88.3566V13.9126H88.2606C88.122 14.1366 87.9246 14.3553 87.6686 14.5686C87.4233 14.7713 87.13 14.9366 86.7886 15.0646C86.4473 15.1926 86.0633 15.2566 85.6366 15.2566ZM85.8926 13.6726C86.3193 13.6726 86.7193 13.5606 87.0926 13.3366C87.4766 13.1126 87.7806 12.7979 88.0046 12.3926C88.2393 11.9766 88.3566 11.4859 88.3566 10.9206C88.3566 10.3553 88.2393 9.86994 88.0046 9.46461C87.7806 9.04861 87.4766 8.72861 87.0926 8.50461C86.7193 8.28061 86.3193 8.16861 85.8926 8.16861C85.466 8.16861 85.066 8.28061 84.6926 8.50461C84.3193 8.72861 84.0153 9.04861 83.7806 9.46461C83.546 9.86994 83.4286 10.3553 83.4286 10.9206C83.4286 11.4753 83.546 11.9606 83.7806 12.3766C84.0153 12.7926 84.3193 13.1126 84.6926 13.3366C85.066 13.5606 85.466 13.6726 85.8926 13.6726Z" fill="white"/>
<g id="GPay (Dark)">
<g id="GPay">
<g id="Pay">
<path id="Fill 1" fill-rule="evenodd" clip-rule="evenodd" d="M119.356 3.42339V8.16175H122.278C122.974 8.16175 123.55 7.92781 124.005 7.45993C124.473 6.99313 124.707 6.43644 124.707 5.79203C124.707 5.16061 124.473 4.61041 124.005 4.14254C123.55 3.66274 122.974 3.4223 122.278 3.4223H119.356V3.42339ZM119.356 9.82966V15.3262H117.611V1.75549H122.24C123.417 1.75549 124.415 2.14756 125.238 2.93061C126.073 3.71365 126.491 4.66782 126.491 5.79203C126.491 6.94224 126.073 7.90291 125.238 8.67296C124.428 9.44409 123.429 9.82858 122.24 9.82858H119.356V9.82966Z" fill="white"/>
<path id="Fill 3" fill-rule="evenodd" clip-rule="evenodd" d="M128.255 12.4831C128.255 12.9379 128.448 13.317 128.834 13.6203C129.22 13.9235 129.672 14.0752 130.19 14.0752C130.924 14.0752 131.578 13.8032 132.153 13.2607C132.729 12.717 133.017 12.0791 133.017 11.3469C132.472 10.917 131.713 10.7025 130.74 10.7025C130.031 10.7025 129.44 10.8736 128.966 11.2148C128.492 11.5559 128.255 11.9773 128.255 12.4831M130.513 5.73566C131.803 5.73566 132.821 6.08007 133.569 6.76889C134.314 7.45771 134.687 8.40213 134.687 9.60216V15.3261H133.018V14.0373H132.942C132.221 15.0985 131.259 15.6294 130.058 15.6294C129.033 15.6294 128.176 15.3261 127.487 14.7196C126.797 14.1131 126.453 13.3549 126.453 12.4452C126.453 11.4845 126.816 10.7208 127.543 10.1523C128.271 9.58375 129.241 9.2989 130.456 9.2989C131.492 9.2989 132.346 9.48844 133.017 9.86751V9.46894C133.017 8.86243 132.776 8.34798 132.296 7.92451C131.814 7.50103 131.252 7.28984 130.607 7.28984C129.633 7.28984 128.862 7.70032 128.293 8.52235L126.755 7.55519C127.603 6.34217 128.855 5.73566 130.513 5.73566" fill="white"/>
<path id="Fill 5" fill-rule="evenodd" clip-rule="evenodd" d="M144.269 6.03894L138.443 19.4201H136.641L138.804 14.738L134.971 6.03894H136.869L139.639 12.7106H139.677L142.371 6.03894H144.269Z" fill="white"/>
</g>
<g id="G">
<path id="Fill 8" fill-rule="evenodd" clip-rule="evenodd" d="M112.303 8.64473C112.303 8.09563 112.256 7.56601 112.168 7.05914H104.806V10.0625H109.023C108.842 11.0414 108.294 11.8744 107.464 12.4322V14.3828H109.98C111.454 13.0246 112.303 11.0177 112.303 8.64473" fill="#4285F4"/>
<path id="Fill 10" fill-rule="evenodd" clip-rule="evenodd" d="M104.806 16.2651C106.913 16.2651 108.687 15.5741 109.98 14.3828L107.464 12.4322C106.763 12.9033 105.861 13.1784 104.806 13.1784C102.77 13.1784 101.042 11.8073 100.424 9.95959H97.8316V11.9687C99.1164 14.516 101.757 16.2651 104.806 16.2651" fill="#34A853"/>
<path id="Fill 12" fill-rule="evenodd" clip-rule="evenodd" d="M100.424 9.9596C100.266 9.48847 100.179 8.98593 100.179 8.46715C100.179 7.94837 100.266 7.44583 100.424 6.9747V4.96564H97.8316C97.3003 6.01837 97 7.20756 97 8.46715C97 9.72674 97.3003 10.916 97.8316 11.9687L100.424 9.9596Z" fill="#FABB05"/>
<path id="Fill 14" fill-rule="evenodd" clip-rule="evenodd" d="M104.806 3.75583C105.957 3.75583 106.988 4.15115 107.801 4.92553V4.92661L110.029 2.70094C108.676 1.44243 106.912 0.669128 104.806 0.669128C101.757 0.669128 99.1164 2.41826 97.8316 4.9656L100.424 6.97467C101.042 5.12698 102.77 3.75583 104.806 3.75583" fill="#E94235"/>
</g>
</g>
</g>
</g>
</svg>
