<svg width="258" height="38" viewBox="0 0 258 38" fill="none" xmlns="http://www.w3.org/2000/svg">
<g id="sv_donate_with_Dark">
<path id="Text" d="M3.77113 30V9.952H10.1831C12.2925 9.952 14.1031 10.3813 15.6151 11.24C17.1458 12.08 18.3218 13.256 19.1431 14.768C19.9831 16.28 20.4031 18.016 20.4031 19.976C20.4031 21.9547 19.9831 23.7 19.1431 25.212C18.3218 26.7053 17.1458 27.8813 15.6151 28.74C14.1031 29.58 12.2925 30 10.1831 30H3.77113ZM6.85113 27.088H10.0991C12.3765 27.088 14.1405 26.4533 15.3911 25.184C16.6605 23.9147 17.2951 22.1787 17.2951 19.976C17.2951 17.7733 16.6605 16.0373 15.3911 14.768C14.1405 13.4987 12.3765 12.864 10.0991 12.864H6.85113V27.088ZM30.0293 30.448C28.5546 30.448 27.2573 30.112 26.1373 29.44C25.0173 28.768 24.14 27.8627 23.5053 26.724C22.8706 25.5853 22.5533 24.2973 22.5533 22.86C22.5533 21.4413 22.8706 20.1627 23.5053 19.024C24.14 17.8667 25.0173 16.952 26.1373 16.28C27.2573 15.608 28.5546 15.272 30.0293 15.272C31.4853 15.272 32.7733 15.608 33.8933 16.28C35.0133 16.952 35.8906 17.8667 36.5253 19.024C37.16 20.1627 37.4773 21.4413 37.4773 22.86C37.4773 24.2973 37.16 25.5853 36.5253 26.724C35.8906 27.8627 35.0133 28.768 33.8933 29.44C32.7733 30.112 31.4853 30.448 30.0293 30.448ZM30.0293 27.676C30.8133 27.676 31.5413 27.4893 32.2133 27.116C32.8853 26.724 33.4266 26.1733 33.8373 25.464C34.2666 24.736 34.4813 23.868 34.4813 22.86C34.4813 21.852 34.2666 20.9933 33.8373 20.284C33.4266 19.556 32.8853 19.0053 32.2133 18.632C31.5413 18.24 30.8133 18.044 30.0293 18.044C29.2453 18.044 28.508 18.24 27.8173 18.632C27.1453 19.0053 26.5946 19.556 26.1653 20.284C25.7546 20.9933 25.5493 21.852 25.5493 22.86C25.5493 23.868 25.7546 24.736 26.1653 25.464C26.5946 26.1733 27.1453 26.724 27.8173 27.116C28.508 27.4893 29.2453 27.676 30.0293 27.676ZM40.289 30V15.72H43.145V17.68H43.313C43.7237 16.9893 44.3303 16.42 45.133 15.972C45.9543 15.5053 46.8503 15.272 47.821 15.272C49.5757 15.272 50.8917 15.7947 51.769 16.84C52.6463 17.8853 53.085 19.2667 53.085 20.984V30H50.089V21.376C50.089 20.2187 49.7997 19.3787 49.221 18.856C48.6423 18.3147 47.8863 18.044 46.953 18.044C46.225 18.044 45.5903 18.2493 45.049 18.66C44.5077 19.052 44.0783 19.5747 43.761 20.228C43.4623 20.8813 43.313 21.5813 43.313 22.328V30H40.289ZM63.3552 30.448C61.9552 30.448 60.7045 30.1213 59.6032 29.468C58.5019 28.8147 57.6339 27.9187 56.9992 26.78C56.3832 25.6413 56.0752 24.344 56.0752 22.888C56.0752 21.5253 56.3739 20.2653 56.9712 19.108C57.5685 17.9507 58.3992 17.0267 59.4632 16.336C60.5459 15.6267 61.7872 15.272 63.1872 15.272C64.6619 15.272 65.9125 15.5893 66.9392 16.224C67.9845 16.8587 68.7779 17.7267 69.3192 18.828C69.8605 19.9293 70.1312 21.1707 70.1312 22.552C70.1312 22.7573 70.1219 22.944 70.1032 23.112C70.1032 23.28 70.0939 23.4107 70.0752 23.504H59.0432C59.1925 24.9227 59.6872 25.9867 60.5272 26.696C61.3859 27.4053 62.3565 27.76 63.4392 27.76C64.4099 27.76 65.2125 27.5453 65.8472 27.116C66.4819 26.668 66.9859 26.1173 67.3592 25.464L69.8512 26.668C69.2352 27.788 68.3952 28.7027 67.3312 29.412C66.2672 30.1027 64.9419 30.448 63.3552 30.448ZM63.2152 17.848C62.2072 17.848 61.3485 18.156 60.6392 18.772C59.9299 19.388 59.4539 20.2093 59.2112 21.236H67.1352C67.0979 20.7507 66.9392 20.2467 66.6592 19.724C66.3792 19.2013 65.9499 18.7627 65.3712 18.408C64.8112 18.0347 64.0925 17.848 63.2152 17.848ZM73.2367 30V15.72H76.0927V17.82H76.2607C76.578 17.092 77.1193 16.4947 77.8847 16.028C78.6687 15.5427 79.5087 15.3 80.4047 15.3C80.7967 15.3 81.1233 15.328 81.3847 15.384C81.6647 15.44 81.9167 15.5053 82.1407 15.58V18.716C81.786 18.5667 81.422 18.4453 81.0487 18.352C80.694 18.2587 80.3207 18.212 79.9287 18.212C79.2193 18.212 78.5847 18.408 78.0247 18.8C77.4833 19.1733 77.054 19.6867 76.7367 20.34C76.4193 20.9747 76.2607 21.6747 76.2607 22.44V30H73.2367ZM88.7628 30.448C87.7361 30.448 86.8214 30.252 86.0188 29.86C85.2161 29.4493 84.5908 28.88 84.1428 28.152C83.6948 27.424 83.4708 26.5933 83.4708 25.66C83.4708 24.652 83.7321 23.7933 84.2548 23.084C84.7961 22.356 85.5148 21.8053 86.4108 21.432C87.3068 21.0587 88.2961 20.872 89.3788 20.872C90.2748 20.872 91.0588 20.956 91.7308 21.124C92.4214 21.292 92.9441 21.4693 93.2988 21.656V20.9C93.2988 19.9667 92.9628 19.22 92.2908 18.66C91.6188 18.1 90.7508 17.82 89.6868 17.82C88.9588 17.82 88.2681 17.988 87.6148 18.324C86.9614 18.6413 86.4388 19.08 86.0468 19.64L83.9748 18.044C84.5908 17.1853 85.4028 16.5133 86.4108 16.028C87.4374 15.524 88.5574 15.272 89.7708 15.272C91.8428 15.272 93.4388 15.7853 94.5588 16.812C95.6788 17.82 96.2388 19.2387 96.2388 21.068V30H93.2988V28.236H93.1308C92.7574 28.8147 92.1974 29.328 91.4508 29.776C90.7041 30.224 89.8081 30.448 88.7628 30.448ZM89.2948 27.984C90.0788 27.984 90.7694 27.7973 91.3668 27.424C91.9641 27.0507 92.4308 26.5653 92.7668 25.968C93.1214 25.352 93.2988 24.6893 93.2988 23.98C92.8694 23.7373 92.3654 23.5413 91.7868 23.392C91.2081 23.224 90.5921 23.14 89.9388 23.14C88.7068 23.14 87.8294 23.392 87.3068 23.896C86.7841 24.3813 86.5228 24.9787 86.5228 25.688C86.5228 26.36 86.7748 26.9107 87.2788 27.34C87.7828 27.7693 88.4548 27.984 89.2948 27.984ZM106.703 30V15.72H109.559V17.68H109.727C110.138 16.9893 110.735 16.42 111.519 15.972C112.303 15.5053 113.171 15.272 114.123 15.272C115.187 15.272 116.092 15.524 116.839 16.028C117.586 16.532 118.118 17.1667 118.435 17.932C118.902 17.1853 119.536 16.56 120.339 16.056C121.142 15.5333 122.122 15.272 123.279 15.272C124.959 15.272 126.21 15.7853 127.031 16.812C127.852 17.82 128.263 19.164 128.263 20.844V30H125.267V21.348C125.267 20.2093 125.015 19.3787 124.511 18.856C124.026 18.3147 123.344 18.044 122.467 18.044C121.776 18.044 121.17 18.24 120.647 18.632C120.124 19.0053 119.714 19.5187 119.415 20.172C119.135 20.8253 118.995 21.5533 118.995 22.356V30H115.999V21.348C115.999 20.2093 115.747 19.3787 115.243 18.856C114.739 18.3147 114.03 18.044 113.115 18.044C112.443 18.044 111.855 18.24 111.351 18.632C110.847 19.024 110.446 19.5467 110.147 20.2C109.867 20.8533 109.727 21.5813 109.727 22.384V30H106.703ZM138.492 30.448C137.092 30.448 135.841 30.1213 134.74 29.468C133.639 28.8147 132.771 27.9187 132.136 26.78C131.52 25.6413 131.212 24.344 131.212 22.888C131.212 21.5253 131.511 20.2653 132.108 19.108C132.705 17.9507 133.536 17.0267 134.6 16.336C135.683 15.6267 136.924 15.272 138.324 15.272C139.799 15.272 141.049 15.5893 142.076 16.224C143.121 16.8587 143.915 17.7267 144.456 18.828C144.997 19.9293 145.268 21.1707 145.268 22.552C145.268 22.7573 145.259 22.944 145.24 23.112C145.24 23.28 145.231 23.4107 145.212 23.504H134.18C134.329 24.9227 134.824 25.9867 135.664 26.696C136.523 27.4053 137.493 27.76 138.576 27.76C139.547 27.76 140.349 27.5453 140.984 27.116C141.619 26.668 142.123 26.1173 142.496 25.464L144.988 26.668C144.372 27.788 143.532 28.7027 142.468 29.412C141.404 30.1027 140.079 30.448 138.492 30.448ZM138.352 17.848C137.344 17.848 136.485 18.156 135.776 18.772C135.067 19.388 134.591 20.2093 134.348 21.236H142.272C142.235 20.7507 142.076 20.2467 141.796 19.724C141.516 19.2013 141.087 18.7627 140.508 18.408C139.948 18.0347 139.229 17.848 138.352 17.848ZM154.614 30.448C153.326 30.448 152.159 30.1307 151.114 29.496C150.087 28.8427 149.266 27.9467 148.65 26.808C148.053 25.6507 147.754 24.3347 147.754 22.86C147.754 21.3853 148.053 20.0787 148.65 18.94C149.266 17.8013 150.087 16.9053 151.114 16.252C152.159 15.5987 153.326 15.272 154.614 15.272C155.715 15.272 156.658 15.5147 157.442 16C158.245 16.4853 158.833 17.036 159.206 17.652H159.374L159.206 15.664V9.952H162.202V30H159.374V28.096H159.206C158.833 28.712 158.245 29.2627 157.442 29.748C156.658 30.2147 155.715 30.448 154.614 30.448ZM155.062 27.676C155.809 27.676 156.509 27.48 157.162 27.088C157.834 26.696 158.366 26.1453 158.758 25.436C159.169 24.708 159.374 23.8493 159.374 22.86C159.374 21.8707 159.169 21.0213 158.758 20.312C158.366 19.584 157.834 19.024 157.162 18.632C156.509 18.24 155.809 18.044 155.062 18.044C154.315 18.044 153.615 18.24 152.962 18.632C152.309 19.024 151.777 19.584 151.366 20.312C150.955 21.0213 150.75 21.8707 150.75 22.86C150.75 23.8493 150.955 24.708 151.366 25.436C151.777 26.1453 152.309 26.696 152.962 27.088C153.615 27.48 154.315 27.676 155.062 27.676Z" fill="white"/>
<g id="GPay Logo (Dark)">
<g id="GPay">
<g id="Pay">
<path id="Fill 1" fill-rule="evenodd" clip-rule="evenodd" d="M214.529 9.34665V17.5128H219.565C220.765 17.5128 221.757 17.1096 222.541 16.3032C223.347 15.4988 223.75 14.5394 223.75 13.4288C223.75 12.3406 223.347 11.3924 222.541 10.586C221.757 9.75916 220.765 9.34479 219.565 9.34479H214.529V9.34665ZM214.529 20.3872V29.8599H211.521V6.47218H219.499C221.527 6.47218 223.248 7.14787 224.666 8.49738C226.105 9.84688 226.824 11.4913 226.824 13.4288C226.824 15.411 226.105 17.0667 224.666 18.3938C223.27 19.7227 221.547 20.3854 219.499 20.3854H214.529V20.3872Z" fill="white"/>
<path id="Fill 3" fill-rule="evenodd" clip-rule="evenodd" d="M229.864 24.9602C229.864 25.7442 230.197 26.3975 230.862 26.9201C231.527 27.4427 232.306 27.704 233.2 27.704C234.465 27.704 235.591 27.2354 236.584 26.3004C237.576 25.3634 238.071 24.264 238.071 23.0022C237.133 22.2612 235.825 21.8916 234.147 21.8916C232.925 21.8916 231.907 22.1866 231.09 22.7745C230.273 23.3623 229.864 24.0886 229.864 24.9602ZM233.756 13.3317C235.98 13.3317 237.735 13.9253 239.022 15.1124C240.308 16.2995 240.95 17.9271 240.95 19.9952V29.8599H238.073V27.6387H237.942C236.699 29.4677 235.042 30.3825 232.972 30.3825C231.206 30.3825 229.728 29.8599 228.541 28.8146C227.353 27.7694 226.759 26.4628 226.759 24.8949C226.759 23.2393 227.385 21.9232 228.638 20.9434C229.892 19.9635 231.565 19.4726 233.658 19.4726C235.444 19.4726 236.916 19.7993 238.071 20.4525V19.7657C238.071 18.7204 237.656 17.8338 236.829 17.104C235.999 16.3742 235.031 16.0102 233.919 16.0102C232.239 16.0102 230.911 16.7176 229.93 18.1343L227.28 16.4675C228.741 14.377 230.899 13.3317 233.756 13.3317Z" fill="white"/>
<path id="Fill 5" fill-rule="evenodd" clip-rule="evenodd" d="M257.463 13.8543L247.424 36.9154H244.318L248.046 28.8464L241.44 13.8543H244.71L249.484 25.3522H249.55L254.193 13.8543H257.463Z" fill="white"/>
</g>
<g id="G">
<path id="Fill 8" fill-rule="evenodd" clip-rule="evenodd" d="M202.373 18.3452C202.373 17.3989 202.293 16.4861 202.141 15.6126H189.454V20.7885H196.72C196.408 22.4757 195.465 23.9112 194.033 24.8725V28.2341H198.37C200.91 25.8935 202.373 22.4348 202.373 18.3452Z" fill="#4285F4"/>
<path id="Fill 10" fill-rule="evenodd" clip-rule="evenodd" d="M189.454 31.4782C193.084 31.4782 196.141 30.2873 198.37 28.2341L194.033 24.8725C192.826 25.6844 191.272 26.1585 189.454 26.1585C185.944 26.1585 182.966 23.7955 181.901 20.6112H177.433V24.0736C179.647 28.4637 184.197 31.4782 189.454 31.4782Z" fill="#34A853"/>
<path id="Fill 12" fill-rule="evenodd" clip-rule="evenodd" d="M181.901 20.6111C181.628 19.7992 181.479 18.9331 181.479 18.0391C181.479 17.145 181.628 16.2789 181.901 15.467V12.0045H177.433C176.518 13.8188 176 15.8683 176 18.0391C176 20.2098 176.518 22.2595 177.433 24.0736L181.901 20.6111Z" fill="#FABB05"/>
<path id="Fill 14" fill-rule="evenodd" clip-rule="evenodd" d="M189.454 9.91964C191.436 9.91964 193.213 10.6009 194.615 11.9355V11.9374L198.455 8.10163C196.123 5.93272 193.082 4.60001 189.454 4.60001C184.197 4.60001 179.647 7.61447 177.433 12.0046L181.901 15.467C182.966 12.2827 185.944 9.91964 189.454 9.91964Z" fill="#E94235"/>
</g>
</g>
</g>
</g>
</svg>
