<svg width="147" height="21" viewBox="0 0 147 21" fill="none" xmlns="http://www.w3.org/2000/svg">
<g id="sv_donate_with_Pay_NBG">
<path id="Left Text" d="M1.6335 15.0006V3.54461H5.2975C6.50283 3.54461 7.5375 3.78994 8.4015 4.28061C9.27617 4.76061 9.94817 5.43261 10.4175 6.29661C10.8975 7.16061 11.1375 8.15261 11.1375 9.27261C11.1375 10.3926 10.8975 11.3846 10.4175 12.2486C9.94817 13.1126 9.27617 13.7899 8.4015 14.2806C7.5375 14.7606 6.50283 15.0006 5.2975 15.0006H1.6335ZM3.3935 13.3366H5.2495C6.1135 13.3366 6.85484 13.1766 7.4735 12.8566C8.09217 12.5259 8.5615 12.0566 8.8815 11.4486C9.2015 10.8406 9.3615 10.1153 9.3615 9.27261C9.3615 8.42994 9.2015 7.70461 8.8815 7.09661C8.5615 6.48861 8.09217 6.02461 7.4735 5.70461C6.85484 5.37394 6.1135 5.20861 5.2495 5.20861H3.3935V13.3366ZM16.6168 15.2566C15.7741 15.2566 15.0328 15.0646 14.3928 14.6806C13.7528 14.2966 13.2514 13.7793 12.8888 13.1286C12.5261 12.4673 12.3448 11.7313 12.3448 10.9206C12.3448 10.1099 12.5261 9.37928 12.8888 8.72861C13.2514 8.06728 13.7528 7.54461 14.3928 7.16061C15.0328 6.77661 15.7741 6.58461 16.6168 6.58461C17.4488 6.58461 18.1848 6.78194 18.8248 7.17661C19.4648 7.56061 19.9661 8.07794 20.3288 8.72861C20.6914 9.37928 20.8728 10.1099 20.8728 10.9206C20.8728 11.7313 20.6914 12.4673 20.3288 13.1286C19.9661 13.7793 19.4648 14.2966 18.8248 14.6806C18.1848 15.0646 17.4488 15.2566 16.6168 15.2566ZM16.6168 13.6726C17.0648 13.6726 17.4808 13.5659 17.8648 13.3526C18.2488 13.1286 18.5581 12.8139 18.7928 12.4086C19.0381 11.9926 19.1608 11.4966 19.1608 10.9206C19.1608 10.3446 19.0381 9.85394 18.7928 9.44861C18.5581 9.03261 18.2488 8.71794 17.8648 8.50461C17.4808 8.28061 17.0648 8.16861 16.6168 8.16861C16.1688 8.16861 15.7474 8.28061 15.3528 8.50461C14.9688 8.71794 14.6541 9.03261 14.4088 9.44861C14.1741 9.85394 14.0568 10.3446 14.0568 10.9206C14.0568 11.4966 14.1741 11.9926 14.4088 12.4086C14.6541 12.8139 14.9741 13.1286 15.3688 13.3526C15.7634 13.5659 16.1794 13.6726 16.6168 13.6726ZM22.458 15.0006V6.84061H24.09V7.96061H24.186C24.4207 7.56594 24.7673 7.24061 25.226 6.98461C25.6953 6.71794 26.2073 6.58461 26.762 6.58461C27.7647 6.58461 28.5167 6.88328 29.018 7.48061C29.5193 8.06728 29.77 8.85661 29.77 9.84861V15.0006H28.058V10.0726C28.058 9.41128 27.8927 8.93128 27.562 8.63261C27.2313 8.32328 26.7993 8.16861 26.266 8.16861C25.85 8.16861 25.4873 8.28594 25.178 8.52061C24.8687 8.74461 24.6233 9.04328 24.442 9.41661C24.2713 9.78994 24.186 10.1899 24.186 10.6166V15.0006H22.458ZM35.6173 15.2566C34.8173 15.2566 34.1026 15.0699 33.4733 14.6966C32.8439 14.3233 32.3479 13.8113 31.9853 13.1606C31.6333 12.5099 31.4573 11.7686 31.4573 10.9366C31.4573 10.1579 31.6279 9.43794 31.9693 8.77661C32.3106 8.11528 32.7853 7.58728 33.3933 7.19261C34.0119 6.78728 34.7213 6.58461 35.5213 6.58461C36.3639 6.58461 37.0786 6.76594 37.6653 7.12861C38.2626 7.49128 38.7159 7.98728 39.0253 8.61661C39.3346 9.24594 39.4893 9.95528 39.4893 10.7446C39.4893 10.8619 39.4839 10.9686 39.4733 11.0646C39.4733 11.1606 39.4679 11.2353 39.4573 11.2886H33.1533C33.1959 11.7366 33.3079 12.1259 33.4893 12.4566C33.7239 12.8726 34.0333 13.1873 34.4173 13.4006C34.8013 13.6139 35.2173 13.7206 35.6653 13.7206C36.2093 13.7206 36.6626 13.5979 37.0253 13.3526C37.3986 13.0966 37.6919 12.7819 37.9053 12.4086L39.3293 13.0966C38.9773 13.7366 38.4973 14.2593 37.8893 14.6646C37.2813 15.0593 36.5239 15.2566 35.6173 15.2566ZM33.2493 9.99261H37.7773C37.7666 9.78994 37.7133 9.57661 37.6173 9.35261C37.5213 9.11794 37.3826 8.90461 37.2013 8.71261C37.0199 8.52061 36.7906 8.36594 36.5133 8.24861C36.2359 8.12061 35.9106 8.05661 35.5373 8.05661C35.0679 8.05661 34.6519 8.17928 34.2893 8.42461C33.9266 8.65928 33.6439 8.98994 33.4413 9.41661C33.3559 9.59794 33.2919 9.78994 33.2493 9.99261ZM41.2424 15.0006V6.84061H42.8744V8.04061H42.9704C43.0984 7.76328 43.2797 7.51794 43.5144 7.30461C43.7597 7.09128 44.037 6.92061 44.3464 6.79261C44.6664 6.66461 44.997 6.60061 45.3384 6.60061C45.5624 6.60061 45.749 6.61661 45.8984 6.64861C46.0584 6.66994 46.2024 6.70728 46.3304 6.76061V8.55261C46.1277 8.46728 45.9197 8.39794 45.7064 8.34461C45.5037 8.29128 45.2904 8.26461 45.0664 8.26461C44.661 8.26461 44.2984 8.37661 43.9784 8.60061C43.669 8.81394 43.4237 9.10194 43.2424 9.46461C43.061 9.82728 42.9704 10.2326 42.9704 10.6806V15.0006H41.2424ZM50.093 15.2566C49.5063 15.2566 48.9837 15.1393 48.525 14.9046C48.077 14.6699 47.7197 14.3499 47.453 13.9446C47.197 13.5286 47.069 13.0539 47.069 12.5206C47.069 11.9339 47.2183 11.4379 47.517 11.0326C47.8263 10.6273 48.237 10.3179 48.749 10.1046C49.261 9.89128 49.8263 9.78461 50.445 9.78461C50.7863 9.78461 51.101 9.81128 51.389 9.86461C51.6877 9.90728 51.9437 9.96061 52.157 10.0246C52.381 10.0886 52.557 10.1579 52.685 10.2326V9.80061C52.685 9.26728 52.493 8.84061 52.109 8.52061C51.725 8.20061 51.229 8.04061 50.621 8.04061C50.205 8.04061 49.8103 8.13661 49.437 8.32861C49.0637 8.50994 48.765 8.76061 48.541 9.08061L47.357 8.16861C47.5917 7.83794 47.8743 7.55528 48.205 7.32061C48.5463 7.08594 48.925 6.90461 49.341 6.77661C49.7677 6.64861 50.2103 6.58461 50.669 6.58461C51.853 6.58461 52.765 6.87794 53.405 7.46461C54.045 8.04061 54.365 8.85128 54.365 9.89661V15.0006H52.685V13.9926H52.589C52.4503 14.2059 52.2583 14.4086 52.013 14.6006C51.7783 14.7926 51.4957 14.9473 51.165 15.0646C50.845 15.1926 50.4877 15.2566 50.093 15.2566ZM50.397 13.8486C50.845 13.8486 51.2397 13.7419 51.581 13.5286C51.933 13.3153 52.205 13.0379 52.397 12.6966C52.589 12.3446 52.685 11.9659 52.685 11.5606C52.4503 11.4219 52.1623 11.3099 51.821 11.2246C51.4903 11.1286 51.1383 11.0806 50.765 11.0806C50.061 11.0806 49.5597 11.2193 49.261 11.4966C48.9623 11.7739 48.813 12.1206 48.813 12.5366C48.813 12.9206 48.957 13.2353 49.245 13.4806C49.533 13.7259 49.917 13.8486 50.397 13.8486ZM60.3018 15.0006V6.84061H61.9338V7.96061H62.0298C62.1898 7.69394 62.3978 7.45928 62.6538 7.25661C62.9098 7.05394 63.1978 6.89394 63.5178 6.77661C63.8484 6.64861 64.1898 6.58461 64.5418 6.58461C65.1498 6.58461 65.6671 6.72861 66.0938 7.01661C66.5204 7.30461 66.8244 7.66728 67.0058 8.10461C67.2724 7.67794 67.6351 7.32061 68.0938 7.03261C68.5524 6.73394 69.1124 6.58461 69.7738 6.58461C70.7338 6.58461 71.4484 6.87794 71.9178 7.46461C72.3871 8.04061 72.6218 8.80861 72.6218 9.76861V15.0006H70.9098V10.0566C70.9098 9.39528 70.7658 8.91528 70.4778 8.61661C70.2004 8.31794 69.8111 8.16861 69.3098 8.16861C68.9151 8.16861 68.5684 8.28061 68.2698 8.50461C67.9711 8.71794 67.7364 9.01128 67.5658 9.38461C67.4058 9.75794 67.3258 10.1739 67.3258 10.6326V15.0006H65.6138V10.0566C65.6138 9.40594 65.4698 8.93128 65.1818 8.63261C64.8938 8.32328 64.4884 8.16861 63.9658 8.16861C63.5924 8.16861 63.2564 8.28061 62.9578 8.50461C62.6698 8.72861 62.4404 9.02728 62.2698 9.40061C62.1098 9.77394 62.0298 10.1899 62.0298 10.6486V15.0006H60.3018ZM78.4454 15.2566C77.6454 15.2566 76.9307 15.0699 76.3014 14.6966C75.672 14.3233 75.176 13.8113 74.8134 13.1606C74.4614 12.5099 74.2854 11.7686 74.2854 10.9366C74.2854 10.1579 74.456 9.43794 74.7974 8.77661C75.1387 8.11528 75.6134 7.58728 76.2214 7.19261C76.84 6.78728 77.5494 6.58461 78.3494 6.58461C79.192 6.58461 79.9067 6.76594 80.4934 7.12861C81.0907 7.49128 81.544 7.98728 81.8534 8.61661C82.1627 9.24594 82.3174 9.95528 82.3174 10.7446C82.3174 10.8619 82.312 10.9686 82.3014 11.0646C82.3014 11.1606 82.296 11.2353 82.2854 11.2886H75.9814C76.024 11.7366 76.136 12.1259 76.3174 12.4566C76.552 12.8726 76.8614 13.1873 77.2454 13.4006C77.6294 13.6139 78.0454 13.7206 78.4934 13.7206C79.0374 13.7206 79.4907 13.5979 79.8534 13.3526C80.2267 13.0966 80.52 12.7819 80.7334 12.4086L82.1574 13.0966C81.8054 13.7366 81.3254 14.2593 80.7174 14.6646C80.1094 15.0593 79.352 15.2566 78.4454 15.2566ZM76.0774 9.99261H80.6054C80.5947 9.78994 80.5414 9.57661 80.4454 9.35261C80.3494 9.11794 80.2107 8.90461 80.0294 8.71261C79.848 8.52061 79.6187 8.36594 79.3414 8.24861C79.064 8.12061 78.7387 8.05661 78.3654 8.05661C77.896 8.05661 77.48 8.17928 77.1174 8.42461C76.7547 8.65928 76.472 8.98994 76.2694 9.41661C76.184 9.59794 76.12 9.78994 76.0774 9.99261ZM87.6366 15.2566C86.9006 15.2566 86.234 15.0699 85.6366 14.6966C85.0393 14.3233 84.57 13.8113 84.2286 13.1606C83.8873 12.5099 83.7166 11.7633 83.7166 10.9206C83.7166 10.0779 83.8873 9.33128 84.2286 8.68061C84.57 8.02994 85.0393 7.51794 85.6366 7.14461C86.234 6.77128 86.9006 6.58461 87.6366 6.58461C88.0633 6.58461 88.4473 6.64861 88.7886 6.77661C89.13 6.90461 89.4233 7.07528 89.6686 7.28861C89.9246 7.49128 90.122 7.70994 90.2606 7.94461H90.3566L90.2606 6.80861V3.54461H91.9726V15.0006H90.3566V13.9126H90.2606C90.122 14.1366 89.9246 14.3553 89.6686 14.5686C89.4233 14.7713 89.13 14.9366 88.7886 15.0646C88.4473 15.1926 88.0633 15.2566 87.6366 15.2566ZM87.8926 13.6726C88.3193 13.6726 88.7193 13.5606 89.0926 13.3366C89.4766 13.1126 89.7806 12.7979 90.0046 12.3926C90.2393 11.9766 90.3566 11.4859 90.3566 10.9206C90.3566 10.3553 90.2393 9.86994 90.0046 9.46461C89.7806 9.04861 89.4766 8.72861 89.0926 8.50461C88.7193 8.28061 88.3193 8.16861 87.8926 8.16861C87.466 8.16861 87.066 8.28061 86.6926 8.50461C86.3193 8.72861 86.0153 9.04861 85.7806 9.46461C85.546 9.86994 85.4286 10.3553 85.4286 10.9206C85.4286 11.4753 85.546 11.9606 85.7806 12.3766C86.0153 12.7926 86.3193 13.1126 86.6926 13.3366C87.066 13.5606 87.466 13.6726 87.8926 13.6726Z" fill="white"/>
<g id="GPay (Dark)">
<g id="GPay">
<g id="Pay">
<path id="Fill 1" fill-rule="evenodd" clip-rule="evenodd" d="M121.356 3.42339V8.16175H124.278C124.974 8.16175 125.55 7.92781 126.005 7.45993C126.473 6.99313 126.707 6.43644 126.707 5.79203C126.707 5.16061 126.473 4.61041 126.005 4.14254C125.55 3.66274 124.974 3.4223 124.278 3.4223H121.356V3.42339ZM121.356 9.82966V15.3262H119.611V1.75549H124.24C125.417 1.75549 126.415 2.14756 127.238 2.93061C128.073 3.71365 128.491 4.66782 128.491 5.79203C128.491 6.94224 128.073 7.90291 127.238 8.67296C126.428 9.44409 125.429 9.82858 124.24 9.82858H121.356V9.82966Z" fill="white"/>
<path id="Fill 3" fill-rule="evenodd" clip-rule="evenodd" d="M130.255 12.4831C130.255 12.9379 130.448 13.317 130.834 13.6203C131.22 13.9235 131.672 14.0752 132.19 14.0752C132.924 14.0752 133.578 13.8032 134.153 13.2607C134.729 12.717 135.017 12.0791 135.017 11.3469C134.472 10.917 133.713 10.7025 132.74 10.7025C132.031 10.7025 131.44 10.8736 130.966 11.2148C130.492 11.5559 130.255 11.9773 130.255 12.4831M132.513 5.73566C133.803 5.73566 134.821 6.08007 135.569 6.76889C136.314 7.45771 136.687 8.40213 136.687 9.60216V15.3261H135.018V14.0373H134.942C134.221 15.0985 133.259 15.6294 132.058 15.6294C131.033 15.6294 130.176 15.3261 129.487 14.7196C128.797 14.1131 128.453 13.3549 128.453 12.4452C128.453 11.4845 128.816 10.7208 129.543 10.1523C130.271 9.58375 131.241 9.2989 132.456 9.2989C133.492 9.2989 134.346 9.48844 135.017 9.86751V9.46894C135.017 8.86243 134.776 8.34798 134.296 7.92451C133.814 7.50103 133.252 7.28984 132.607 7.28984C131.633 7.28984 130.862 7.70032 130.293 8.52235L128.755 7.55519C129.603 6.34217 130.855 5.73566 132.513 5.73566" fill="white"/>
<path id="Fill 5" fill-rule="evenodd" clip-rule="evenodd" d="M146.269 6.03894L140.443 19.4201H138.641L140.804 14.738L136.971 6.03894H138.869L141.639 12.7106H141.677L144.371 6.03894H146.269Z" fill="white"/>
</g>
<g id="G">
<path id="Fill 8" fill-rule="evenodd" clip-rule="evenodd" d="M114.303 8.64473C114.303 8.09563 114.256 7.56601 114.168 7.05914H106.806V10.0625H111.023C110.842 11.0414 110.294 11.8744 109.464 12.4322V14.3828H111.98C113.454 13.0246 114.303 11.0177 114.303 8.64473" fill="#4285F4"/>
<path id="Fill 10" fill-rule="evenodd" clip-rule="evenodd" d="M106.806 16.2651C108.913 16.2651 110.687 15.5741 111.98 14.3828L109.464 12.4322C108.763 12.9033 107.861 13.1784 106.806 13.1784C104.77 13.1784 103.042 11.8073 102.424 9.95959H99.8316V11.9687C101.116 14.516 103.757 16.2651 106.806 16.2651" fill="#34A853"/>
<path id="Fill 12" fill-rule="evenodd" clip-rule="evenodd" d="M102.424 9.9596C102.266 9.48847 102.179 8.98593 102.179 8.46715C102.179 7.94837 102.266 7.44583 102.424 6.9747V4.96564H99.8316C99.3003 6.01837 99 7.20756 99 8.46715C99 9.72674 99.3003 10.916 99.8316 11.9687L102.424 9.9596Z" fill="#FABB05"/>
<path id="Fill 14" fill-rule="evenodd" clip-rule="evenodd" d="M106.806 3.75583C107.957 3.75583 108.988 4.15115 109.801 4.92553V4.92661L112.029 2.70094C110.676 1.44243 108.912 0.669128 106.806 0.669128C103.757 0.669128 101.116 2.41826 99.8316 4.9656L102.424 6.97467C103.042 5.12698 104.77 3.75583 106.806 3.75583" fill="#E94235"/>
</g>
</g>
</g>
</g>
</svg>
