<svg width="250" height="38" viewBox="0 0 250 38" fill="none" xmlns="http://www.w3.org/2000/svg">
<g id="sv_order_with_Dark">
<path id="Text" d="M3.75628 30V9.952H11.2603C12.3429 9.952 13.3323 10.1853 14.2283 10.652C15.1429 11.1187 15.8616 11.7533 16.3843 12.556C16.9256 13.3587 17.1963 14.264 17.1963 15.272C17.1963 16.2987 16.9349 17.176 16.4123 17.904C15.9083 18.632 15.2643 19.1827 14.4803 19.556V19.696C15.4883 20.0507 16.3096 20.6387 16.9443 21.46C17.5789 22.2627 17.8963 23.2333 17.8963 24.372C17.8963 25.492 17.6069 26.4813 17.0283 27.34C16.4683 28.18 15.7029 28.8333 14.7323 29.3C13.7803 29.7667 12.7349 30 11.5963 30H3.75628ZM11.2323 12.78H6.83628V18.38H11.1203C12.0909 18.38 12.8469 18.0907 13.3883 17.512C13.9296 16.9147 14.2003 16.2613 14.2003 15.552C14.2003 14.8613 13.9389 14.2267 13.4163 13.648C12.8936 13.0693 12.1656 12.78 11.2323 12.78ZM6.83628 27.144H11.5963C12.6043 27.144 13.3883 26.8453 13.9483 26.248C14.5269 25.632 14.8163 24.932 14.8163 24.148C14.8163 23.364 14.5269 22.664 13.9483 22.048C13.3696 21.432 12.5483 21.124 11.4843 21.124H6.83628V27.144ZM27.6036 30.448C26.2036 30.448 24.953 30.1213 23.8516 29.468C22.7503 28.8147 21.8823 27.9187 21.2476 26.78C20.6316 25.6413 20.3236 24.344 20.3236 22.888C20.3236 21.5253 20.6223 20.2653 21.2196 19.108C21.817 17.9507 22.6476 17.0267 23.7116 16.336C24.7943 15.6267 26.0356 15.272 27.4356 15.272C28.9103 15.272 30.161 15.5893 31.1876 16.224C32.233 16.8587 33.0263 17.7267 33.5676 18.828C34.109 19.9293 34.3796 21.1707 34.3796 22.552C34.3796 22.7573 34.3703 22.944 34.3516 23.112C34.3516 23.28 34.3423 23.4107 34.3236 23.504H23.2916C23.441 24.9227 23.9356 25.9867 24.7756 26.696C25.6343 27.4053 26.605 27.76 27.6876 27.76C28.6583 27.76 29.461 27.5453 30.0956 27.116C30.7303 26.668 31.2343 26.1173 31.6076 25.464L34.0996 26.668C33.4836 27.788 32.6436 28.7027 31.5796 29.412C30.5156 30.1027 29.1903 30.448 27.6036 30.448ZM27.4636 17.848C26.4556 17.848 25.597 18.156 24.8876 18.772C24.1783 19.388 23.7023 20.2093 23.4596 21.236H31.3836C31.3463 20.7507 31.1876 20.2467 30.9076 19.724C30.6276 19.2013 30.1983 18.7627 29.6196 18.408C29.0596 18.0347 28.341 17.848 27.4636 17.848ZM42.8298 30.448C41.1125 30.448 39.7405 30.0747 38.7138 29.328C37.6871 28.5627 36.9778 27.6573 36.5858 26.612L39.3018 25.436C39.6378 26.2013 40.1231 26.7893 40.7578 27.2C41.3925 27.592 42.1111 27.788 42.9138 27.788C43.6605 27.788 44.3045 27.6573 44.8458 27.396C45.3871 27.116 45.6578 26.668 45.6578 26.052C45.6578 25.4547 45.3871 25.016 44.8458 24.736C44.3045 24.456 43.6325 24.2133 42.8298 24.008L41.1218 23.616C40.4311 23.448 39.7871 23.1867 39.1898 22.832C38.5925 22.4773 38.1071 22.02 37.7338 21.46C37.3605 20.8813 37.1738 20.2093 37.1738 19.444C37.1738 18.604 37.4258 17.876 37.9298 17.26C38.4338 16.6253 39.0965 16.14 39.9178 15.804C40.7578 15.4493 41.6631 15.272 42.6338 15.272C43.9591 15.272 45.1165 15.5333 46.1058 16.056C47.1138 16.56 47.8511 17.3253 48.3178 18.352L45.7138 19.528C45.3778 18.8933 44.9391 18.4547 44.3978 18.212C43.8751 17.9507 43.2965 17.82 42.6618 17.82C41.9525 17.82 41.3551 17.9693 40.8698 18.268C40.4031 18.5667 40.1698 18.94 40.1698 19.388C40.1698 19.8733 40.3751 20.256 40.7858 20.536C41.2151 20.816 41.7378 21.04 42.3538 21.208L44.4258 21.712C45.8445 22.0667 46.9085 22.608 47.6178 23.336C48.3271 24.0453 48.6818 24.9133 48.6818 25.94C48.6818 26.8547 48.4205 27.6573 47.8978 28.348C47.3751 29.02 46.6658 29.5427 45.7698 29.916C44.8925 30.2707 43.9125 30.448 42.8298 30.448ZM52.9963 25.856V18.352H50.5043V15.72H52.9963V11.688H56.0203V15.72H59.5203V18.352H56.0203V25.212C56.0203 25.9213 56.1603 26.4627 56.4403 26.836C56.739 27.2093 57.2336 27.396 57.9243 27.396C58.279 27.396 58.5776 27.3493 58.8203 27.256C59.0816 27.1627 59.343 27.032 59.6043 26.864V29.804C59.287 29.9347 58.951 30.0373 58.5963 30.112C58.2416 30.1867 57.8216 30.224 57.3363 30.224C56.011 30.224 54.9563 29.8413 54.1723 29.076C53.3883 28.292 52.9963 27.2187 52.9963 25.856ZM66.9284 30.448C65.9017 30.448 64.987 30.252 64.1844 29.86C63.3817 29.4493 62.7564 28.88 62.3084 28.152C61.8604 27.424 61.6364 26.5933 61.6364 25.66C61.6364 24.652 61.8977 23.7933 62.4204 23.084C62.9617 22.356 63.6804 21.8053 64.5764 21.432C65.4724 21.0587 66.4617 20.872 67.5444 20.872C68.4404 20.872 69.2244 20.956 69.8964 21.124C70.587 21.292 71.1097 21.4693 71.4644 21.656V20.9C71.4644 19.9667 71.1284 19.22 70.4564 18.66C69.7844 18.1 68.9164 17.82 67.8524 17.82C67.1244 17.82 66.4337 17.988 65.7804 18.324C65.127 18.6413 64.6044 19.08 64.2124 19.64L62.1404 18.044C62.7564 17.1853 63.5684 16.5133 64.5764 16.028C65.603 15.524 66.723 15.272 67.9364 15.272C70.0084 15.272 71.6044 15.7853 72.7244 16.812C73.8444 17.82 74.4044 19.2387 74.4044 21.068V30H71.4644V28.236H71.2964C70.923 28.8147 70.363 29.328 69.6164 29.776C68.8697 30.224 67.9737 30.448 66.9284 30.448ZM67.4604 27.984C68.2444 27.984 68.935 27.7973 69.5324 27.424C70.1297 27.0507 70.5964 26.5653 70.9324 25.968C71.287 25.352 71.4644 24.6893 71.4644 23.98C71.035 23.7373 70.531 23.5413 69.9524 23.392C69.3737 23.224 68.7577 23.14 68.1044 23.14C66.8724 23.14 65.995 23.392 65.4724 23.896C64.9497 24.3813 64.6884 24.9787 64.6884 25.688C64.6884 26.36 64.9404 26.9107 65.4444 27.34C65.9484 27.7693 66.6204 27.984 67.4604 27.984ZM70.5404 12.808C70.0737 12.808 69.663 12.64 69.3084 12.304C68.9724 11.9493 68.8044 11.5293 68.8044 11.044C68.8044 10.5587 68.9724 10.1573 69.3084 9.84C69.663 9.504 70.0737 9.336 70.5404 9.336C71.0444 9.336 71.4644 9.504 71.8004 9.84C72.1364 10.1573 72.3044 10.5587 72.3044 11.044C72.3044 11.5293 72.1364 11.9493 71.8004 12.304C71.4644 12.64 71.0444 12.808 70.5404 12.808ZM65.5844 12.808C65.1177 12.808 64.707 12.64 64.3524 12.304C64.0164 11.9493 63.8484 11.5293 63.8484 11.044C63.8484 10.5587 64.0164 10.1573 64.3524 9.84C64.707 9.504 65.1177 9.336 65.5844 9.336C66.0884 9.336 66.499 9.504 66.8164 9.84C67.1524 10.1573 67.3204 10.5587 67.3204 11.044C67.3204 11.5293 67.1524 11.9493 66.8164 12.304C66.499 12.64 66.0884 12.808 65.5844 12.808ZM78.0615 30V9.952H81.0855V30H78.0615ZM84.9787 30V9.952H88.0027V30H84.9787ZM98.7031 30V15.72H101.559V17.68H101.727C102.138 16.9893 102.735 16.42 103.519 15.972C104.303 15.5053 105.171 15.272 106.123 15.272C107.187 15.272 108.092 15.524 108.839 16.028C109.586 16.532 110.118 17.1667 110.435 17.932C110.902 17.1853 111.536 16.56 112.339 16.056C113.142 15.5333 114.122 15.272 115.279 15.272C116.959 15.272 118.21 15.7853 119.031 16.812C119.852 17.82 120.263 19.164 120.263 20.844V30H117.267V21.348C117.267 20.2093 117.015 19.3787 116.511 18.856C116.026 18.3147 115.344 18.044 114.467 18.044C113.776 18.044 113.17 18.24 112.647 18.632C112.124 19.0053 111.714 19.5187 111.415 20.172C111.135 20.8253 110.995 21.5533 110.995 22.356V30H107.999V21.348C107.999 20.2093 107.747 19.3787 107.243 18.856C106.739 18.3147 106.03 18.044 105.115 18.044C104.443 18.044 103.855 18.24 103.351 18.632C102.847 19.024 102.446 19.5467 102.147 20.2C101.867 20.8533 101.727 21.5813 101.727 22.384V30H98.7031ZM130.492 30.448C129.092 30.448 127.841 30.1213 126.74 29.468C125.639 28.8147 124.771 27.9187 124.136 26.78C123.52 25.6413 123.212 24.344 123.212 22.888C123.212 21.5253 123.511 20.2653 124.108 19.108C124.705 17.9507 125.536 17.0267 126.6 16.336C127.683 15.6267 128.924 15.272 130.324 15.272C131.799 15.272 133.049 15.5893 134.076 16.224C135.121 16.8587 135.915 17.7267 136.456 18.828C136.997 19.9293 137.268 21.1707 137.268 22.552C137.268 22.7573 137.259 22.944 137.24 23.112C137.24 23.28 137.231 23.4107 137.212 23.504H126.18C126.329 24.9227 126.824 25.9867 127.664 26.696C128.523 27.4053 129.493 27.76 130.576 27.76C131.547 27.76 132.349 27.5453 132.984 27.116C133.619 26.668 134.123 26.1173 134.496 25.464L136.988 26.668C136.372 27.788 135.532 28.7027 134.468 29.412C133.404 30.1027 132.079 30.448 130.492 30.448ZM130.352 17.848C129.344 17.848 128.485 18.156 127.776 18.772C127.067 19.388 126.591 20.2093 126.348 21.236H134.272C134.235 20.7507 134.076 20.2467 133.796 19.724C133.516 19.2013 133.087 18.7627 132.508 18.408C131.948 18.0347 131.229 17.848 130.352 17.848ZM146.614 30.448C145.326 30.448 144.159 30.1307 143.114 29.496C142.087 28.8427 141.266 27.9467 140.65 26.808C140.053 25.6507 139.754 24.3347 139.754 22.86C139.754 21.3853 140.053 20.0787 140.65 18.94C141.266 17.8013 142.087 16.9053 143.114 16.252C144.159 15.5987 145.326 15.272 146.614 15.272C147.715 15.272 148.658 15.5147 149.442 16C150.245 16.4853 150.833 17.036 151.206 17.652H151.374L151.206 15.664V9.952H154.202V30H151.374V28.096H151.206C150.833 28.712 150.245 29.2627 149.442 29.748C148.658 30.2147 147.715 30.448 146.614 30.448ZM147.062 27.676C147.809 27.676 148.509 27.48 149.162 27.088C149.834 26.696 150.366 26.1453 150.758 25.436C151.169 24.708 151.374 23.8493 151.374 22.86C151.374 21.8707 151.169 21.0213 150.758 20.312C150.366 19.584 149.834 19.024 149.162 18.632C148.509 18.24 147.809 18.044 147.062 18.044C146.315 18.044 145.615 18.24 144.962 18.632C144.309 19.024 143.777 19.584 143.366 20.312C142.955 21.0213 142.75 21.8707 142.75 22.86C142.75 23.8493 142.955 24.708 143.366 25.436C143.777 26.1453 144.309 26.696 144.962 27.088C145.615 27.48 146.315 27.676 147.062 27.676Z" fill="white"/>
<g id="GPay Logo (Dark)">
<g id="GPay">
<g id="Pay">
<path id="Fill 1" fill-rule="evenodd" clip-rule="evenodd" d="M206.529 9.34665V17.5128H211.565C212.765 17.5128 213.757 17.1096 214.541 16.3032C215.347 15.4988 215.75 14.5394 215.75 13.4288C215.75 12.3406 215.347 11.3924 214.541 10.586C213.757 9.75916 212.765 9.34479 211.565 9.34479H206.529V9.34665ZM206.529 20.3872V29.8599H203.521V6.47218H211.499C213.527 6.47218 215.248 7.14787 216.666 8.49738C218.105 9.84688 218.824 11.4913 218.824 13.4288C218.824 15.411 218.105 17.0667 216.666 18.3938C215.27 19.7227 213.547 20.3854 211.499 20.3854H206.529V20.3872Z" fill="white"/>
<path id="Fill 3" fill-rule="evenodd" clip-rule="evenodd" d="M221.864 24.9602C221.864 25.7442 222.197 26.3975 222.862 26.9201C223.527 27.4427 224.306 27.704 225.2 27.704C226.465 27.704 227.591 27.2354 228.584 26.3004C229.576 25.3634 230.071 24.264 230.071 23.0022C229.133 22.2612 227.825 21.8916 226.147 21.8916C224.925 21.8916 223.907 22.1866 223.09 22.7745C222.273 23.3623 221.864 24.0886 221.864 24.9602ZM225.756 13.3317C227.98 13.3317 229.735 13.9253 231.022 15.1124C232.308 16.2995 232.95 17.9271 232.95 19.9952V29.8599H230.073V27.6387H229.942C228.699 29.4677 227.042 30.3825 224.972 30.3825C223.206 30.3825 221.728 29.8599 220.541 28.8146C219.353 27.7694 218.759 26.4628 218.759 24.8949C218.759 23.2393 219.385 21.9232 220.638 20.9434C221.892 19.9635 223.565 19.4726 225.658 19.4726C227.444 19.4726 228.916 19.7993 230.071 20.4525V19.7657C230.071 18.7204 229.656 17.8338 228.829 17.104C227.999 16.3742 227.031 16.0102 225.919 16.0102C224.239 16.0102 222.911 16.7176 221.93 18.1343L219.28 16.4675C220.741 14.377 222.899 13.3317 225.756 13.3317Z" fill="white"/>
<path id="Fill 5" fill-rule="evenodd" clip-rule="evenodd" d="M249.463 13.8543L239.424 36.9154H236.318L240.046 28.8464L233.44 13.8543H236.71L241.484 25.3522H241.55L246.193 13.8543H249.463Z" fill="white"/>
</g>
<g id="G">
<path id="Fill 8" fill-rule="evenodd" clip-rule="evenodd" d="M194.373 18.3452C194.373 17.3989 194.293 16.4861 194.141 15.6126H181.454V20.7885H188.72C188.408 22.4757 187.465 23.9112 186.033 24.8725V28.2341H190.37C192.91 25.8935 194.373 22.4348 194.373 18.3452Z" fill="#4285F4"/>
<path id="Fill 10" fill-rule="evenodd" clip-rule="evenodd" d="M181.454 31.4782C185.084 31.4782 188.141 30.2873 190.37 28.2341L186.033 24.8725C184.826 25.6844 183.272 26.1585 181.454 26.1585C177.944 26.1585 174.966 23.7955 173.901 20.6112H169.433V24.0736C171.647 28.4637 176.197 31.4782 181.454 31.4782Z" fill="#34A853"/>
<path id="Fill 12" fill-rule="evenodd" clip-rule="evenodd" d="M173.901 20.6111C173.628 19.7992 173.479 18.9331 173.479 18.0391C173.479 17.145 173.628 16.2789 173.901 15.467V12.0045H169.433C168.518 13.8188 168 15.8683 168 18.0391C168 20.2098 168.518 22.2595 169.433 24.0736L173.901 20.6111Z" fill="#FABB05"/>
<path id="Fill 14" fill-rule="evenodd" clip-rule="evenodd" d="M181.454 9.91964C183.436 9.91964 185.213 10.6009 186.615 11.9355V11.9374L190.455 8.10163C188.123 5.93272 185.082 4.60001 181.454 4.60001C176.197 4.60001 171.647 7.61447 169.433 12.0046L173.901 15.467C174.966 12.2827 177.944 9.91964 181.454 9.91964Z" fill="#E94235"/>
</g>
</g>
</g>
</g>
</svg>
