<svg width="151" height="21" viewBox="0 0 151 21" fill="none" xmlns="http://www.w3.org/2000/svg">
<g id="sv_order_with_Pay_NBG">
<path id="Left Text" d="M1.41162 15.0006V3.54461H5.69962C6.32896 3.54461 6.89962 3.67794 7.41162 3.94461C7.92362 4.21128 8.32896 4.57394 8.62762 5.03261C8.93696 5.49128 9.09162 6.00861 9.09162 6.58461C9.09162 7.17128 8.94762 7.67261 8.65962 8.08861C8.37162 8.50461 7.99829 8.81928 7.53962 9.03261V9.11261C8.11562 9.30461 8.58496 9.63528 8.94762 10.1046C9.31029 10.5739 9.49162 11.1339 9.49162 11.7846C9.49162 12.4246 9.32629 12.9846 8.99562 13.4646C8.67562 13.9446 8.23829 14.3233 7.68362 14.6006C7.13962 14.8673 6.54229 15.0006 5.89162 15.0006H1.41162ZM3.17162 9.92861V13.3686H5.89162C6.27562 13.3686 6.60629 13.2886 6.88362 13.1286C7.16096 12.9686 7.36896 12.7553 7.50762 12.4886C7.65696 12.2219 7.73162 11.9446 7.73162 11.6566C7.73162 11.3473 7.65696 11.0646 7.50762 10.8086C7.35829 10.5419 7.13962 10.3286 6.85162 10.1686C6.57429 10.0086 6.23296 9.92861 5.82762 9.92861H3.17162ZM3.17162 8.36061H5.61962C5.99296 8.36061 6.30762 8.28594 6.56362 8.13661C6.83029 7.97661 7.03296 7.77394 7.17162 7.52861C7.31029 7.27261 7.37962 7.01128 7.37962 6.74461C7.37962 6.47794 7.31029 6.22728 7.17162 5.99261C7.04362 5.74728 6.85162 5.54994 6.59562 5.40061C6.33962 5.24061 6.03562 5.16061 5.68362 5.16061H3.17162V8.36061ZM15.0172 15.2566C14.2172 15.2566 13.5026 15.0699 12.8732 14.6966C12.2439 14.3233 11.7479 13.8113 11.3852 13.1606C11.0332 12.5099 10.8572 11.7686 10.8572 10.9366C10.8572 10.1579 11.0279 9.43794 11.3692 8.77661C11.7106 8.11528 12.1852 7.58728 12.7932 7.19261C13.4119 6.78728 14.1212 6.58461 14.9212 6.58461C15.7639 6.58461 16.4786 6.76594 17.0652 7.12861C17.6626 7.49128 18.1159 7.98728 18.4252 8.61661C18.7346 9.24594 18.8892 9.95528 18.8892 10.7446C18.8892 10.8619 18.8839 10.9686 18.8732 11.0646C18.8732 11.1606 18.8679 11.2353 18.8572 11.2886H12.5532C12.5959 11.7366 12.7079 12.1259 12.8892 12.4566C13.1239 12.8726 13.4332 13.1873 13.8172 13.4006C14.2012 13.6139 14.6172 13.7206 15.0652 13.7206C15.6092 13.7206 16.0626 13.5979 16.4252 13.3526C16.7986 13.0966 17.0919 12.7819 17.3052 12.4086L18.7292 13.0966C18.3772 13.7366 17.8972 14.2593 17.2892 14.6646C16.6812 15.0593 15.9239 15.2566 15.0172 15.2566ZM12.6492 9.99261H17.1772C17.1666 9.78994 17.1132 9.57661 17.0172 9.35261C16.9212 9.11794 16.7826 8.90461 16.6012 8.71261C16.4199 8.52061 16.1906 8.36594 15.9132 8.24861C15.6359 8.12061 15.3106 8.05661 14.9372 8.05661C14.4679 8.05661 14.0519 8.17928 13.6892 8.42461C13.3266 8.65928 13.0439 8.98994 12.8412 9.41661C12.7559 9.59794 12.6919 9.78994 12.6492 9.99261ZM23.6965 15.2566C23.0458 15.2566 22.4805 15.1606 22.0005 14.9686C21.5205 14.7659 21.1258 14.4993 20.8165 14.1686C20.5072 13.8273 20.2778 13.4593 20.1285 13.0646L21.6805 12.3926C21.8725 12.8299 22.1445 13.1659 22.4965 13.4006C22.8592 13.6246 23.2752 13.7366 23.7445 13.7366C24.1712 13.7366 24.5392 13.6619 24.8485 13.5126C25.1578 13.3526 25.3125 13.0966 25.3125 12.7446C25.3125 12.5206 25.2378 12.3393 25.0885 12.2006C24.9498 12.0513 24.7578 11.9286 24.5125 11.8326C24.2778 11.7366 24.0058 11.6513 23.6965 11.5766L22.7205 11.3526C22.3365 11.2566 21.9685 11.1073 21.6165 10.9046C21.2752 10.6913 20.9978 10.4246 20.7845 10.1046C20.5712 9.78461 20.4645 9.40594 20.4645 8.96861C20.4645 8.47794 20.6032 8.05661 20.8805 7.70461C21.1685 7.34194 21.5525 7.06461 22.0325 6.87261C22.5125 6.68061 23.0298 6.58461 23.5845 6.58461C24.0965 6.58461 24.5605 6.65394 24.9765 6.79261C25.4032 6.92061 25.7712 7.11794 26.0805 7.38461C26.4005 7.64061 26.6512 7.96061 26.8325 8.34461L25.3445 9.01661C25.1632 8.65394 24.9178 8.40328 24.6085 8.26461C24.2992 8.11528 23.9632 8.04061 23.6005 8.04061C23.1952 8.04061 22.8538 8.12594 22.5765 8.29661C22.3098 8.45661 22.1765 8.66994 22.1765 8.93661C22.1765 9.21394 22.2938 9.43261 22.5285 9.59261C22.7738 9.75261 23.0725 9.88061 23.4245 9.97661L24.6085 10.2646C25.4192 10.4673 26.0272 10.7766 26.4325 11.1926C26.8378 11.5979 27.0405 12.0939 27.0405 12.6806C27.0405 13.2033 26.8912 13.6619 26.5925 14.0566C26.2938 14.4406 25.8885 14.7393 25.3765 14.9526C24.8752 15.1553 24.3152 15.2566 23.6965 15.2566ZM28.0605 6.84061H29.4845V4.53661H31.2125V6.84061H33.2125V8.34461H31.2125V12.2646C31.2125 12.6699 31.2925 12.9793 31.4525 13.1926C31.6232 13.4059 31.9058 13.5126 32.3005 13.5126C32.4925 13.5126 32.6632 13.4859 32.8125 13.4326C32.9618 13.3686 33.1112 13.2939 33.2605 13.2086V14.8886C33.0792 14.9633 32.8872 15.0219 32.6845 15.0646C32.4818 15.1073 32.2418 15.1286 31.9645 15.1286C31.2072 15.1286 30.6045 14.9099 30.1565 14.4726C29.7085 14.0246 29.4845 13.4113 29.4845 12.6326V8.34461H28.0605V6.84061ZM37.4242 15.2566C36.8376 15.2566 36.3149 15.1393 35.8562 14.9046C35.4082 14.6699 35.0509 14.3499 34.7842 13.9446C34.5282 13.5286 34.4002 13.0539 34.4002 12.5206C34.4002 11.9339 34.5496 11.4379 34.8482 11.0326C35.1576 10.6273 35.5682 10.3179 36.0802 10.1046C36.5922 9.89128 37.1576 9.78461 37.7762 9.78461C38.1176 9.78461 38.4322 9.81128 38.7202 9.86461C39.0189 9.90728 39.2749 9.96061 39.4882 10.0246C39.7122 10.0886 39.8882 10.1579 40.0162 10.2326V9.80061C40.0162 9.26728 39.8242 8.84061 39.4402 8.52061C39.0562 8.20061 38.5602 8.04061 37.9522 8.04061C37.5362 8.04061 37.1416 8.13661 36.7682 8.32861C36.3949 8.50994 36.0962 8.76061 35.8722 9.08061L34.6882 8.16861C34.9229 7.83794 35.2056 7.55528 35.5362 7.32061C35.8776 7.08594 36.2562 6.90461 36.6722 6.77661C37.0989 6.64861 37.5416 6.58461 38.0002 6.58461C39.1842 6.58461 40.0962 6.87794 40.7362 7.46461C41.3762 8.04061 41.6962 8.85128 41.6962 9.89661V15.0006H40.0162V13.9926H39.9202C39.7816 14.2059 39.5896 14.4086 39.3442 14.6006C39.1096 14.7926 38.8269 14.9473 38.4962 15.0646C38.1762 15.1926 37.8189 15.2566 37.4242 15.2566ZM37.7282 13.8486C38.1762 13.8486 38.5709 13.7419 38.9122 13.5286C39.2642 13.3153 39.5362 13.0379 39.7282 12.6966C39.9202 12.3446 40.0162 11.9659 40.0162 11.5606C39.7816 11.4219 39.4936 11.3099 39.1522 11.2246C38.8216 11.1286 38.4696 11.0806 38.0962 11.0806C37.3922 11.0806 36.8909 11.2193 36.5922 11.4966C36.2936 11.7739 36.1442 12.1206 36.1442 12.5366C36.1442 12.9206 36.2882 13.2353 36.5762 13.4806C36.8642 13.7259 37.2482 13.8486 37.7282 13.8486ZM39.4882 5.17661C39.2216 5.17661 38.9869 5.08061 38.7842 4.88861C38.5922 4.68594 38.4962 4.45128 38.4962 4.18461C38.4962 3.89661 38.5922 3.66194 38.7842 3.48061C38.9869 3.28861 39.2216 3.19261 39.4882 3.19261C39.7762 3.19261 40.0162 3.28861 40.2082 3.48061C40.4002 3.66194 40.4962 3.89661 40.4962 4.18461C40.4962 4.45128 40.4002 4.68594 40.2082 4.88861C40.0162 5.08061 39.7762 5.17661 39.4882 5.17661ZM36.6562 5.17661C36.3896 5.17661 36.1549 5.08061 35.9522 4.88861C35.7602 4.68594 35.6642 4.45128 35.6642 4.18461C35.6642 3.89661 35.7602 3.66194 35.9522 3.48061C36.1549 3.28861 36.3896 3.19261 36.6562 3.19261C36.9442 3.19261 37.1789 3.28861 37.3602 3.48061C37.5522 3.66194 37.6482 3.89661 37.6482 4.18461C37.6482 4.45128 37.5522 4.68594 37.3602 4.88861C37.1789 5.08061 36.9442 5.17661 36.6562 5.17661ZM43.7646 15.0006V3.54461H45.4926V15.0006H43.7646ZM47.6959 15.0006V3.54461H49.4239V15.0006H47.6959ZM54.093 15.2566C53.5063 15.2566 52.9837 15.1393 52.525 14.9046C52.077 14.6699 51.7197 14.3499 51.453 13.9446C51.197 13.5286 51.069 13.0539 51.069 12.5206C51.069 11.9339 51.2183 11.4379 51.517 11.0326C51.8263 10.6273 52.237 10.3179 52.749 10.1046C53.261 9.89128 53.8263 9.78461 54.445 9.78461C54.7863 9.78461 55.101 9.81128 55.389 9.86461C55.6877 9.90728 55.9437 9.96061 56.157 10.0246C56.381 10.0886 56.557 10.1579 56.685 10.2326V9.80061C56.685 9.26728 56.493 8.84061 56.109 8.52061C55.725 8.20061 55.229 8.04061 54.621 8.04061C54.205 8.04061 53.8103 8.13661 53.437 8.32861C53.0637 8.50994 52.765 8.76061 52.541 9.08061L51.357 8.16861C51.5917 7.83794 51.8743 7.55528 52.205 7.32061C52.5463 7.08594 52.925 6.90461 53.341 6.77661C53.7677 6.64861 54.2103 6.58461 54.669 6.58461C55.853 6.58461 56.765 6.87794 57.405 7.46461C58.045 8.04061 58.365 8.85128 58.365 9.89661V15.0006H56.685V13.9926H56.589C56.4503 14.2059 56.2583 14.4086 56.013 14.6006C55.7783 14.7926 55.4957 14.9473 55.165 15.0646C54.845 15.1926 54.4877 15.2566 54.093 15.2566ZM54.397 13.8486C54.845 13.8486 55.2397 13.7419 55.581 13.5286C55.933 13.3153 56.205 13.0379 56.397 12.6966C56.589 12.3446 56.685 11.9659 56.685 11.5606C56.4503 11.4219 56.1623 11.3099 55.821 11.2246C55.4903 11.1286 55.1383 11.0806 54.765 11.0806C54.061 11.0806 53.5597 11.2193 53.261 11.4966C52.9623 11.7739 52.813 12.1206 52.813 12.5366C52.813 12.9206 52.957 13.2353 53.245 13.4806C53.533 13.7259 53.917 13.8486 54.397 13.8486ZM64.3017 15.0006V6.84061H65.9337V7.96061H66.0297C66.1897 7.69394 66.3977 7.45928 66.6537 7.25661C66.9097 7.05394 67.1977 6.89394 67.5177 6.77661C67.8484 6.64861 68.1897 6.58461 68.5417 6.58461C69.1497 6.58461 69.6671 6.72861 70.0937 7.01661C70.5204 7.30461 70.8244 7.66728 71.0057 8.10461C71.2724 7.67794 71.6351 7.32061 72.0937 7.03261C72.5524 6.73394 73.1124 6.58461 73.7737 6.58461C74.7337 6.58461 75.4484 6.87794 75.9177 7.46461C76.3871 8.04061 76.6217 8.80861 76.6217 9.76861V15.0006H74.9097V10.0566C74.9097 9.39528 74.7657 8.91528 74.4777 8.61661C74.2004 8.31794 73.8111 8.16861 73.3097 8.16861C72.9151 8.16861 72.5684 8.28061 72.2697 8.50461C71.9711 8.71794 71.7364 9.01128 71.5657 9.38461C71.4057 9.75794 71.3257 10.1739 71.3257 10.6326V15.0006H69.6137V10.0566C69.6137 9.40594 69.4697 8.93128 69.1817 8.63261C68.8937 8.32328 68.4884 8.16861 67.9657 8.16861C67.5924 8.16861 67.2564 8.28061 66.9577 8.50461C66.6697 8.72861 66.4404 9.02728 66.2697 9.40061C66.1097 9.77394 66.0297 10.1899 66.0297 10.6486V15.0006H64.3017ZM82.4454 15.2566C81.6454 15.2566 80.9307 15.0699 80.3014 14.6966C79.672 14.3233 79.176 13.8113 78.8134 13.1606C78.4614 12.5099 78.2854 11.7686 78.2854 10.9366C78.2854 10.1579 78.456 9.43794 78.7974 8.77661C79.1387 8.11528 79.6134 7.58728 80.2214 7.19261C80.84 6.78728 81.5494 6.58461 82.3494 6.58461C83.192 6.58461 83.9067 6.76594 84.4934 7.12861C85.0907 7.49128 85.544 7.98728 85.8534 8.61661C86.1627 9.24594 86.3174 9.95528 86.3174 10.7446C86.3174 10.8619 86.312 10.9686 86.3014 11.0646C86.3014 11.1606 86.296 11.2353 86.2854 11.2886H79.9814C80.024 11.7366 80.136 12.1259 80.3174 12.4566C80.552 12.8726 80.8614 13.1873 81.2454 13.4006C81.6294 13.6139 82.0454 13.7206 82.4934 13.7206C83.0374 13.7206 83.4907 13.5979 83.8534 13.3526C84.2267 13.0966 84.52 12.7819 84.7334 12.4086L86.1574 13.0966C85.8054 13.7366 85.3254 14.2593 84.7174 14.6646C84.1094 15.0593 83.352 15.2566 82.4454 15.2566ZM80.0774 9.99261H84.6054C84.5947 9.78994 84.5414 9.57661 84.4454 9.35261C84.3494 9.11794 84.2107 8.90461 84.0294 8.71261C83.848 8.52061 83.6187 8.36594 83.3414 8.24861C83.064 8.12061 82.7387 8.05661 82.3654 8.05661C81.896 8.05661 81.48 8.17928 81.1174 8.42461C80.7547 8.65928 80.472 8.98994 80.2694 9.41661C80.184 9.59794 80.12 9.78994 80.0774 9.99261ZM91.6366 15.2566C90.9006 15.2566 90.234 15.0699 89.6366 14.6966C89.0393 14.3233 88.57 13.8113 88.2286 13.1606C87.8873 12.5099 87.7166 11.7633 87.7166 10.9206C87.7166 10.0779 87.8873 9.33128 88.2286 8.68061C88.57 8.02994 89.0393 7.51794 89.6366 7.14461C90.234 6.77128 90.9006 6.58461 91.6366 6.58461C92.0633 6.58461 92.4473 6.64861 92.7886 6.77661C93.13 6.90461 93.4233 7.07528 93.6686 7.28861C93.9246 7.49128 94.122 7.70994 94.2606 7.94461H94.3566L94.2606 6.80861V3.54461H95.9726V15.0006H94.3566V13.9126H94.2606C94.122 14.1366 93.9246 14.3553 93.6686 14.5686C93.4233 14.7713 93.13 14.9366 92.7886 15.0646C92.4473 15.1926 92.0633 15.2566 91.6366 15.2566ZM91.8926 13.6726C92.3193 13.6726 92.7193 13.5606 93.0926 13.3366C93.4766 13.1126 93.7806 12.7979 94.0046 12.3926C94.2393 11.9766 94.3566 11.4859 94.3566 10.9206C94.3566 10.3553 94.2393 9.86994 94.0046 9.46461C93.7806 9.04861 93.4766 8.72861 93.0926 8.50461C92.7193 8.28061 92.3193 8.16861 91.8926 8.16861C91.466 8.16861 91.066 8.28061 90.6926 8.50461C90.3193 8.72861 90.0153 9.04861 89.7806 9.46461C89.546 9.86994 89.4286 10.3553 89.4286 10.9206C89.4286 11.4753 89.546 11.9606 89.7806 12.3766C90.0153 12.7926 90.3193 13.1126 90.6926 13.3366C91.066 13.5606 91.466 13.6726 91.8926 13.6726Z" fill="white"/>
<g id="GPay (Dark)">
<g id="GPay">
<g id="Pay">
<path id="Fill 1" fill-rule="evenodd" clip-rule="evenodd" d="M125.356 3.42339V8.16175H128.278C128.974 8.16175 129.55 7.92781 130.005 7.45993C130.473 6.99313 130.707 6.43644 130.707 5.79203C130.707 5.16061 130.473 4.61041 130.005 4.14254C129.55 3.66274 128.974 3.4223 128.278 3.4223H125.356V3.42339ZM125.356 9.82966V15.3262H123.611V1.75549H128.24C129.417 1.75549 130.415 2.14756 131.238 2.93061C132.073 3.71365 132.491 4.66782 132.491 5.79203C132.491 6.94224 132.073 7.90291 131.238 8.67296C130.428 9.44409 129.429 9.82858 128.24 9.82858H125.356V9.82966Z" fill="white"/>
<path id="Fill 3" fill-rule="evenodd" clip-rule="evenodd" d="M134.255 12.4831C134.255 12.9379 134.448 13.317 134.834 13.6203C135.22 13.9235 135.672 14.0752 136.19 14.0752C136.924 14.0752 137.578 13.8032 138.153 13.2607C138.729 12.717 139.017 12.0791 139.017 11.3469C138.472 10.917 137.713 10.7025 136.74 10.7025C136.031 10.7025 135.44 10.8736 134.966 11.2148C134.492 11.5559 134.255 11.9773 134.255 12.4831M136.513 5.73566C137.803 5.73566 138.821 6.08007 139.569 6.76889C140.314 7.45771 140.687 8.40213 140.687 9.60216V15.3261H139.018V14.0373H138.942C138.221 15.0985 137.259 15.6294 136.058 15.6294C135.033 15.6294 134.176 15.3261 133.487 14.7196C132.797 14.1131 132.453 13.3549 132.453 12.4452C132.453 11.4845 132.816 10.7208 133.543 10.1523C134.271 9.58375 135.241 9.2989 136.456 9.2989C137.492 9.2989 138.346 9.48844 139.017 9.86751V9.46894C139.017 8.86243 138.776 8.34798 138.296 7.92451C137.814 7.50103 137.252 7.28984 136.607 7.28984C135.633 7.28984 134.862 7.70032 134.293 8.52235L132.755 7.55519C133.603 6.34217 134.855 5.73566 136.513 5.73566" fill="white"/>
<path id="Fill 5" fill-rule="evenodd" clip-rule="evenodd" d="M150.269 6.03894L144.443 19.4201H142.641L144.804 14.738L140.971 6.03894H142.869L145.639 12.7106H145.677L148.371 6.03894H150.269Z" fill="white"/>
</g>
<g id="G">
<path id="Fill 8" fill-rule="evenodd" clip-rule="evenodd" d="M118.303 8.64473C118.303 8.09563 118.256 7.56601 118.168 7.05914H110.806V10.0625H115.023C114.842 11.0414 114.294 11.8744 113.464 12.4322V14.3828H115.98C117.454 13.0246 118.303 11.0177 118.303 8.64473" fill="#4285F4"/>
<path id="Fill 10" fill-rule="evenodd" clip-rule="evenodd" d="M110.806 16.2651C112.913 16.2651 114.687 15.5741 115.98 14.3828L113.464 12.4322C112.763 12.9033 111.861 13.1784 110.806 13.1784C108.77 13.1784 107.042 11.8073 106.424 9.95959H103.832V11.9687C105.116 14.516 107.757 16.2651 110.806 16.2651" fill="#34A853"/>
<path id="Fill 12" fill-rule="evenodd" clip-rule="evenodd" d="M106.424 9.9596C106.266 9.48847 106.179 8.98593 106.179 8.46715C106.179 7.94837 106.266 7.44583 106.424 6.9747V4.96564H103.832C103.3 6.01837 103 7.20756 103 8.46715C103 9.72674 103.3 10.916 103.832 11.9687L106.424 9.9596Z" fill="#FABB05"/>
<path id="Fill 14" fill-rule="evenodd" clip-rule="evenodd" d="M110.806 3.75583C111.957 3.75583 112.988 4.15115 113.801 4.92553V4.92661L116.029 2.70094C114.676 1.44243 112.912 0.669128 110.806 0.669128C107.757 0.669128 105.116 2.41826 103.832 4.9656L106.424 6.97467C107.042 5.12698 108.77 3.75583 110.806 3.75583" fill="#E94235"/>
</g>
</g>
</g>
</g>
</svg>
