<svg width="139" height="21" viewBox="0 0 139 21" fill="none" xmlns="http://www.w3.org/2000/svg">
<g id="sv_pay_with_Pay_NBG">
<path id="Left Text" d="M1.55538 15.0006V3.54461H5.84338C6.47271 3.54461 7.04338 3.67794 7.55538 3.94461C8.06738 4.21128 8.47271 4.57394 8.77138 5.03261C9.08071 5.49128 9.23538 6.00861 9.23538 6.58461C9.23538 7.17128 9.09138 7.67261 8.80338 8.08861C8.51538 8.50461 8.14204 8.81928 7.68338 9.03261V9.11261C8.25938 9.30461 8.72871 9.63528 9.09138 10.1046C9.45404 10.5739 9.63538 11.1339 9.63538 11.7846C9.63538 12.4246 9.47004 12.9846 9.13938 13.4646C8.81938 13.9446 8.38204 14.3233 7.82738 14.6006C7.28338 14.8673 6.68604 15.0006 6.03538 15.0006H1.55538ZM3.31538 9.92861V13.3686H6.03538C6.41938 13.3686 6.75004 13.2886 7.02738 13.1286C7.30471 12.9686 7.51271 12.7553 7.65138 12.4886C7.80071 12.2219 7.87538 11.9446 7.87538 11.6566C7.87538 11.3473 7.80071 11.0646 7.65138 10.8086C7.50204 10.5419 7.28338 10.3286 6.99538 10.1686C6.71804 10.0086 6.37671 9.92861 5.97138 9.92861H3.31538ZM3.31538 8.36061H5.76338C6.13671 8.36061 6.45138 8.28594 6.70738 8.13661C6.97404 7.97661 7.17671 7.77394 7.31538 7.52861C7.45404 7.27261 7.52338 7.01128 7.52338 6.74461C7.52338 6.47794 7.45404 6.22728 7.31538 5.99261C7.18738 5.74728 6.99538 5.54994 6.73938 5.40061C6.48338 5.24061 6.17938 5.16061 5.82738 5.16061H3.31538V8.36061ZM15.161 15.2566C14.361 15.2566 13.6463 15.0699 13.017 14.6966C12.3877 14.3233 11.8917 13.8113 11.529 13.1606C11.177 12.5099 11.001 11.7686 11.001 10.9366C11.001 10.1579 11.1717 9.43794 11.513 8.77661C11.8543 8.11528 12.329 7.58728 12.937 7.19261C13.5557 6.78728 14.265 6.58461 15.065 6.58461C15.9077 6.58461 16.6223 6.76594 17.209 7.12861C17.8063 7.49128 18.2597 7.98728 18.569 8.61661C18.8783 9.24594 19.033 9.95528 19.033 10.7446C19.033 10.8619 19.0277 10.9686 19.017 11.0646C19.017 11.1606 19.0117 11.2353 19.001 11.2886H12.697C12.7397 11.7366 12.8517 12.1259 13.033 12.4566C13.2677 12.8726 13.577 13.1873 13.961 13.4006C14.345 13.6139 14.761 13.7206 15.209 13.7206C15.753 13.7206 16.2063 13.5979 16.569 13.3526C16.9423 13.0966 17.2357 12.7819 17.449 12.4086L18.873 13.0966C18.521 13.7366 18.041 14.2593 17.433 14.6646C16.825 15.0593 16.0677 15.2566 15.161 15.2566ZM12.793 9.99261H17.321C17.3103 9.78994 17.257 9.57661 17.161 9.35261C17.065 9.11794 16.9263 8.90461 16.745 8.71261C16.5637 8.52061 16.3343 8.36594 16.057 8.24861C15.7797 8.12061 15.4543 8.05661 15.081 8.05661C14.6117 8.05661 14.1957 8.17928 13.833 8.42461C13.4703 8.65928 13.1877 8.98994 12.985 9.41661C12.8997 9.59794 12.8357 9.78994 12.793 9.99261ZM19.9918 6.84061H21.4158V4.53661H23.1438V6.84061H25.1438V8.34461H23.1438V12.2646C23.1438 12.6699 23.2238 12.9793 23.3838 13.1926C23.5544 13.4059 23.8371 13.5126 24.2318 13.5126C24.4238 13.5126 24.5944 13.4859 24.7438 13.4326C24.8931 13.3686 25.0424 13.2939 25.1918 13.2086V14.8886C25.0104 14.9633 24.8184 15.0219 24.6158 15.0646C24.4131 15.1073 24.1731 15.1286 23.8958 15.1286C23.1384 15.1286 22.5358 14.9099 22.0878 14.4726C21.6398 14.0246 21.4158 13.4113 21.4158 12.6326V8.34461H19.9918V6.84061ZM29.3555 15.2566C28.7688 15.2566 28.2462 15.1393 27.7875 14.9046C27.3395 14.6699 26.9822 14.3499 26.7155 13.9446C26.4595 13.5286 26.3315 13.0539 26.3315 12.5206C26.3315 11.9339 26.4808 11.4379 26.7795 11.0326C27.0888 10.6273 27.4995 10.3179 28.0115 10.1046C28.5235 9.89128 29.0888 9.78461 29.7075 9.78461C30.0488 9.78461 30.3635 9.81128 30.6515 9.86461C30.9502 9.90728 31.2062 9.96061 31.4195 10.0246C31.6435 10.0886 31.8195 10.1579 31.9475 10.2326V9.80061C31.9475 9.26728 31.7555 8.84061 31.3715 8.52061C30.9875 8.20061 30.4915 8.04061 29.8835 8.04061C29.4675 8.04061 29.0728 8.13661 28.6995 8.32861C28.3262 8.50994 28.0275 8.76061 27.8035 9.08061L26.6195 8.16861C26.8542 7.83794 27.1368 7.55528 27.4675 7.32061C27.8088 7.08594 28.1875 6.90461 28.6035 6.77661C29.0302 6.64861 29.4728 6.58461 29.9315 6.58461C31.1155 6.58461 32.0275 6.87794 32.6675 7.46461C33.3075 8.04061 33.6275 8.85128 33.6275 9.89661V15.0006H31.9475V13.9926H31.8515C31.7128 14.2059 31.5208 14.4086 31.2755 14.6006C31.0408 14.7926 30.7582 14.9473 30.4275 15.0646C30.1075 15.1926 29.7502 15.2566 29.3555 15.2566ZM29.6595 13.8486C30.1075 13.8486 30.5022 13.7419 30.8435 13.5286C31.1955 13.3153 31.4675 13.0379 31.6595 12.6966C31.8515 12.3446 31.9475 11.9659 31.9475 11.5606C31.7128 11.4219 31.4248 11.3099 31.0835 11.2246C30.7528 11.1286 30.4008 11.0806 30.0275 11.0806C29.3235 11.0806 28.8222 11.2193 28.5235 11.4966C28.2248 11.7739 28.0755 12.1206 28.0755 12.5366C28.0755 12.9206 28.2195 13.2353 28.5075 13.4806C28.7955 13.7259 29.1795 13.8486 29.6595 13.8486ZM35.6959 15.0006V3.54461H37.4239V15.0006H35.6959ZM42.093 15.2566C41.5063 15.2566 40.9837 15.1393 40.525 14.9046C40.077 14.6699 39.7197 14.3499 39.453 13.9446C39.197 13.5286 39.069 13.0539 39.069 12.5206C39.069 11.9339 39.2183 11.4379 39.517 11.0326C39.8263 10.6273 40.237 10.3179 40.749 10.1046C41.261 9.89128 41.8263 9.78461 42.445 9.78461C42.7863 9.78461 43.101 9.81128 43.389 9.86461C43.6877 9.90728 43.9437 9.96061 44.157 10.0246C44.381 10.0886 44.557 10.1579 44.685 10.2326V9.80061C44.685 9.26728 44.493 8.84061 44.109 8.52061C43.725 8.20061 43.229 8.04061 42.621 8.04061C42.205 8.04061 41.8103 8.13661 41.437 8.32861C41.0637 8.50994 40.765 8.76061 40.541 9.08061L39.357 8.16861C39.5917 7.83794 39.8743 7.55528 40.205 7.32061C40.5463 7.08594 40.925 6.90461 41.341 6.77661C41.7677 6.64861 42.2103 6.58461 42.669 6.58461C43.853 6.58461 44.765 6.87794 45.405 7.46461C46.045 8.04061 46.365 8.85128 46.365 9.89661V15.0006H44.685V13.9926H44.589C44.4503 14.2059 44.2583 14.4086 44.013 14.6006C43.7783 14.7926 43.4957 14.9473 43.165 15.0646C42.845 15.1926 42.4877 15.2566 42.093 15.2566ZM42.397 13.8486C42.845 13.8486 43.2397 13.7419 43.581 13.5286C43.933 13.3153 44.205 13.0379 44.397 12.6966C44.589 12.3446 44.685 11.9659 44.685 11.5606C44.4503 11.4219 44.1623 11.3099 43.821 11.2246C43.4903 11.1286 43.1383 11.0806 42.765 11.0806C42.061 11.0806 41.5597 11.2193 41.261 11.4966C40.9623 11.7739 40.813 12.1206 40.813 12.5366C40.813 12.9206 40.957 13.2353 41.245 13.4806C41.533 13.7259 41.917 13.8486 42.397 13.8486ZM52.3018 15.0006V6.84061H53.9338V7.96061H54.0298C54.1898 7.69394 54.3978 7.45928 54.6538 7.25661C54.9098 7.05394 55.1978 6.89394 55.5178 6.77661C55.8484 6.64861 56.1898 6.58461 56.5418 6.58461C57.1498 6.58461 57.6671 6.72861 58.0938 7.01661C58.5204 7.30461 58.8244 7.66728 59.0058 8.10461C59.2724 7.67794 59.6351 7.32061 60.0938 7.03261C60.5524 6.73394 61.1124 6.58461 61.7738 6.58461C62.7338 6.58461 63.4484 6.87794 63.9178 7.46461C64.3871 8.04061 64.6218 8.80861 64.6218 9.76861V15.0006H62.9098V10.0566C62.9098 9.39528 62.7658 8.91528 62.4778 8.61661C62.2004 8.31794 61.8111 8.16861 61.3098 8.16861C60.9151 8.16861 60.5684 8.28061 60.2698 8.50461C59.9711 8.71794 59.7364 9.01128 59.5658 9.38461C59.4058 9.75794 59.3258 10.1739 59.3258 10.6326V15.0006H57.6138V10.0566C57.6138 9.40594 57.4698 8.93128 57.1818 8.63261C56.8938 8.32328 56.4884 8.16861 55.9658 8.16861C55.5924 8.16861 55.2564 8.28061 54.9578 8.50461C54.6698 8.72861 54.4404 9.02728 54.2698 9.40061C54.1098 9.77394 54.0298 10.1899 54.0298 10.6486V15.0006H52.3018ZM70.4454 15.2566C69.6454 15.2566 68.9307 15.0699 68.3014 14.6966C67.672 14.3233 67.176 13.8113 66.8134 13.1606C66.4614 12.5099 66.2854 11.7686 66.2854 10.9366C66.2854 10.1579 66.456 9.43794 66.7974 8.77661C67.1387 8.11528 67.6134 7.58728 68.2214 7.19261C68.84 6.78728 69.5494 6.58461 70.3494 6.58461C71.192 6.58461 71.9067 6.76594 72.4934 7.12861C73.0907 7.49128 73.544 7.98728 73.8534 8.61661C74.1627 9.24594 74.3174 9.95528 74.3174 10.7446C74.3174 10.8619 74.312 10.9686 74.3014 11.0646C74.3014 11.1606 74.296 11.2353 74.2854 11.2886H67.9814C68.024 11.7366 68.136 12.1259 68.3174 12.4566C68.552 12.8726 68.8614 13.1873 69.2454 13.4006C69.6294 13.6139 70.0454 13.7206 70.4934 13.7206C71.0374 13.7206 71.4907 13.5979 71.8534 13.3526C72.2267 13.0966 72.52 12.7819 72.7334 12.4086L74.1574 13.0966C73.8054 13.7366 73.3254 14.2593 72.7174 14.6646C72.1094 15.0593 71.352 15.2566 70.4454 15.2566ZM68.0774 9.99261H72.6054C72.5947 9.78994 72.5414 9.57661 72.4454 9.35261C72.3494 9.11794 72.2107 8.90461 72.0294 8.71261C71.848 8.52061 71.6187 8.36594 71.3414 8.24861C71.064 8.12061 70.7387 8.05661 70.3654 8.05661C69.896 8.05661 69.48 8.17928 69.1174 8.42461C68.7547 8.65928 68.472 8.98994 68.2694 9.41661C68.184 9.59794 68.12 9.78994 68.0774 9.99261ZM79.6366 15.2566C78.9006 15.2566 78.234 15.0699 77.6366 14.6966C77.0393 14.3233 76.57 13.8113 76.2286 13.1606C75.8873 12.5099 75.7166 11.7633 75.7166 10.9206C75.7166 10.0779 75.8873 9.33128 76.2286 8.68061C76.57 8.02994 77.0393 7.51794 77.6366 7.14461C78.234 6.77128 78.9006 6.58461 79.6366 6.58461C80.0633 6.58461 80.4473 6.64861 80.7886 6.77661C81.13 6.90461 81.4233 7.07528 81.6686 7.28861C81.9246 7.49128 82.122 7.70994 82.2606 7.94461H82.3566L82.2606 6.80861V3.54461H83.9726V15.0006H82.3566V13.9126H82.2606C82.122 14.1366 81.9246 14.3553 81.6686 14.5686C81.4233 14.7713 81.13 14.9366 80.7886 15.0646C80.4473 15.1926 80.0633 15.2566 79.6366 15.2566ZM79.8926 13.6726C80.3193 13.6726 80.7193 13.5606 81.0926 13.3366C81.4766 13.1126 81.7806 12.7979 82.0046 12.3926C82.2393 11.9766 82.3566 11.4859 82.3566 10.9206C82.3566 10.3553 82.2393 9.86994 82.0046 9.46461C81.7806 9.04861 81.4766 8.72861 81.0926 8.50461C80.7193 8.28061 80.3193 8.16861 79.8926 8.16861C79.466 8.16861 79.066 8.28061 78.6926 8.50461C78.3193 8.72861 78.0153 9.04861 77.7806 9.46461C77.546 9.86994 77.4286 10.3553 77.4286 10.9206C77.4286 11.4753 77.546 11.9606 77.7806 12.3766C78.0153 12.7926 78.3193 13.1126 78.6926 13.3366C79.066 13.5606 79.466 13.6726 79.8926 13.6726Z" fill="white"/>
<g id="GPay (Dark)">
<g id="GPay">
<g id="Pay">
<path id="Fill 1" fill-rule="evenodd" clip-rule="evenodd" d="M113.356 3.42339V8.16175H116.278C116.974 8.16175 117.55 7.92781 118.005 7.45993C118.473 6.99313 118.707 6.43644 118.707 5.79203C118.707 5.16061 118.473 4.61041 118.005 4.14254C117.55 3.66274 116.974 3.4223 116.278 3.4223H113.356V3.42339ZM113.356 9.82966V15.3262H111.611V1.75549H116.24C117.417 1.75549 118.415 2.14756 119.238 2.93061C120.073 3.71365 120.491 4.66782 120.491 5.79203C120.491 6.94224 120.073 7.90291 119.238 8.67296C118.428 9.44409 117.429 9.82858 116.24 9.82858H113.356V9.82966Z" fill="white"/>
<path id="Fill 3" fill-rule="evenodd" clip-rule="evenodd" d="M122.255 12.4831C122.255 12.9379 122.448 13.317 122.834 13.6203C123.22 13.9235 123.672 14.0752 124.19 14.0752C124.924 14.0752 125.578 13.8032 126.153 13.2607C126.729 12.717 127.017 12.0791 127.017 11.3469C126.472 10.917 125.713 10.7025 124.74 10.7025C124.031 10.7025 123.44 10.8736 122.966 11.2148C122.492 11.5559 122.255 11.9773 122.255 12.4831M124.513 5.73566C125.803 5.73566 126.821 6.08007 127.569 6.76889C128.314 7.45771 128.687 8.40213 128.687 9.60216V15.3261H127.018V14.0373H126.942C126.221 15.0985 125.259 15.6294 124.058 15.6294C123.033 15.6294 122.176 15.3261 121.487 14.7196C120.797 14.1131 120.453 13.3549 120.453 12.4452C120.453 11.4845 120.816 10.7208 121.543 10.1523C122.271 9.58375 123.241 9.2989 124.456 9.2989C125.492 9.2989 126.346 9.48844 127.017 9.86751V9.46894C127.017 8.86243 126.776 8.34798 126.296 7.92451C125.814 7.50103 125.252 7.28984 124.607 7.28984C123.633 7.28984 122.862 7.70032 122.293 8.52235L120.755 7.55519C121.603 6.34217 122.855 5.73566 124.513 5.73566" fill="white"/>
<path id="Fill 5" fill-rule="evenodd" clip-rule="evenodd" d="M138.269 6.03894L132.443 19.4201H130.641L132.804 14.738L128.971 6.03894H130.869L133.639 12.7106H133.677L136.371 6.03894H138.269Z" fill="white"/>
</g>
<g id="G">
<path id="Fill 8" fill-rule="evenodd" clip-rule="evenodd" d="M106.303 8.64473C106.303 8.09563 106.256 7.56601 106.168 7.05914H98.8065V10.0625H103.023C102.842 11.0414 102.294 11.8744 101.464 12.4322V14.3828H103.98C105.454 13.0246 106.303 11.0177 106.303 8.64473" fill="#4285F4"/>
<path id="Fill 10" fill-rule="evenodd" clip-rule="evenodd" d="M98.8065 16.2651C100.913 16.2651 102.687 15.5741 103.98 14.3828L101.464 12.4322C100.763 12.9033 99.8614 13.1784 98.8065 13.1784C96.7703 13.1784 95.042 11.8073 94.424 9.95959H91.8316V11.9687C93.1164 14.516 95.7565 16.2651 98.8065 16.2651" fill="#34A853"/>
<path id="Fill 12" fill-rule="evenodd" clip-rule="evenodd" d="M94.424 9.9596C94.2657 9.48847 94.179 8.98593 94.179 8.46715C94.179 7.94837 94.2657 7.44583 94.424 6.9747V4.96564H91.8316C91.3003 6.01837 91 7.20756 91 8.46715C91 9.72674 91.3003 10.916 91.8316 11.9687L94.424 9.9596Z" fill="#FABB05"/>
<path id="Fill 14" fill-rule="evenodd" clip-rule="evenodd" d="M98.8065 3.75583C99.9568 3.75583 100.988 4.15115 101.801 4.92553V4.92661L104.029 2.70094C102.676 1.44243 100.912 0.669128 98.8065 0.669128C95.7565 0.669128 93.1164 2.41826 91.8316 4.9656L94.424 6.97467C95.042 5.12698 96.7703 3.75583 98.8065 3.75583" fill="#E94235"/>
</g>
</g>
</g>
</g>
</svg>
