<svg width="244" height="38" viewBox="0 0 244 38" fill="none" xmlns="http://www.w3.org/2000/svg">
<g id="sv_pay_with_Light">
<path id="Text" d="M3.63441 30V9.952H11.1384C12.2211 9.952 13.2104 10.1853 14.1064 10.652C15.0211 11.1187 15.7397 11.7533 16.2624 12.556C16.8037 13.3587 17.0744 14.264 17.0744 15.272C17.0744 16.2987 16.8131 17.176 16.2904 17.904C15.7864 18.632 15.1424 19.1827 14.3584 19.556V19.696C15.3664 20.0507 16.1877 20.6387 16.8224 21.46C17.4571 22.2627 17.7744 23.2333 17.7744 24.372C17.7744 25.492 17.4851 26.4813 16.9064 27.34C16.3464 28.18 15.5811 28.8333 14.6104 29.3C13.6584 29.7667 12.6131 30 11.4744 30H3.63441ZM11.1104 12.78H6.71441V18.38H10.9984C11.9691 18.38 12.7251 18.0907 13.2664 17.512C13.8077 16.9147 14.0784 16.2613 14.0784 15.552C14.0784 14.8613 13.8171 14.2267 13.2944 13.648C12.7717 13.0693 12.0437 12.78 11.1104 12.78ZM6.71441 27.144H11.4744C12.4824 27.144 13.2664 26.8453 13.8264 26.248C14.4051 25.632 14.6944 24.932 14.6944 24.148C14.6944 23.364 14.4051 22.664 13.8264 22.048C13.2477 21.432 12.4264 21.124 11.3624 21.124H6.71441V27.144ZM27.4818 30.448C26.0818 30.448 24.8311 30.1213 23.7298 29.468C22.6284 28.8147 21.7604 27.9187 21.1258 26.78C20.5098 25.6413 20.2018 24.344 20.2018 22.888C20.2018 21.5253 20.5004 20.2653 21.0978 19.108C21.6951 17.9507 22.5258 17.0267 23.5898 16.336C24.6724 15.6267 25.9138 15.272 27.3138 15.272C28.7884 15.272 30.0391 15.5893 31.0658 16.224C32.1111 16.8587 32.9044 17.7267 33.4458 18.828C33.9871 19.9293 34.2578 21.1707 34.2578 22.552C34.2578 22.7573 34.2484 22.944 34.2298 23.112C34.2298 23.28 34.2204 23.4107 34.2018 23.504H23.1698C23.3191 24.9227 23.8138 25.9867 24.6538 26.696C25.5124 27.4053 26.4831 27.76 27.5658 27.76C28.5364 27.76 29.3391 27.5453 29.9738 27.116C30.6084 26.668 31.1124 26.1173 31.4858 25.464L33.9778 26.668C33.3618 27.788 32.5218 28.7027 31.4578 29.412C30.3938 30.1027 29.0684 30.448 27.4818 30.448ZM27.3418 17.848C26.3338 17.848 25.4751 18.156 24.7658 18.772C24.0564 19.388 23.5804 20.2093 23.3378 21.236H31.2618C31.2244 20.7507 31.0658 20.2467 30.7858 19.724C30.5058 19.2013 30.0764 18.7627 29.4978 18.408C28.9378 18.0347 28.2191 17.848 27.3418 17.848ZM38.4651 25.856V18.352H35.9731V15.72H38.4651V11.688H41.4891V15.72H44.9891V18.352H41.4891V25.212C41.4891 25.9213 41.6291 26.4627 41.9091 26.836C42.2077 27.2093 42.7024 27.396 43.3931 27.396C43.7477 27.396 44.0464 27.3493 44.2891 27.256C44.5504 27.1627 44.8117 27.032 45.0731 26.864V29.804C44.7557 29.9347 44.4197 30.0373 44.0651 30.112C43.7104 30.1867 43.2904 30.224 42.8051 30.224C41.4797 30.224 40.4251 29.8413 39.6411 29.076C38.8571 28.292 38.4651 27.2187 38.4651 25.856ZM52.3971 30.448C51.3705 30.448 50.4558 30.252 49.6531 29.86C48.8505 29.4493 48.2251 28.88 47.7771 28.152C47.3291 27.424 47.1051 26.5933 47.1051 25.66C47.1051 24.652 47.3665 23.7933 47.8891 23.084C48.4305 22.356 49.1491 21.8053 50.0451 21.432C50.9411 21.0587 51.9305 20.872 53.0131 20.872C53.9091 20.872 54.6931 20.956 55.3651 21.124C56.0558 21.292 56.5785 21.4693 56.9331 21.656V20.9C56.9331 19.9667 56.5971 19.22 55.9251 18.66C55.2531 18.1 54.3851 17.82 53.3211 17.82C52.5931 17.82 51.9025 17.988 51.2491 18.324C50.5958 18.6413 50.0731 19.08 49.6811 19.64L47.6091 18.044C48.2251 17.1853 49.0371 16.5133 50.0451 16.028C51.0718 15.524 52.1918 15.272 53.4051 15.272C55.4771 15.272 57.0731 15.7853 58.1931 16.812C59.3131 17.82 59.8731 19.2387 59.8731 21.068V30H56.9331V28.236H56.7651C56.3918 28.8147 55.8318 29.328 55.0851 29.776C54.3385 30.224 53.4425 30.448 52.3971 30.448ZM52.9291 27.984C53.7131 27.984 54.4038 27.7973 55.0011 27.424C55.5985 27.0507 56.0651 26.5653 56.4011 25.968C56.7558 25.352 56.9331 24.6893 56.9331 23.98C56.5038 23.7373 55.9998 23.5413 55.4211 23.392C54.8425 23.224 54.2265 23.14 53.5731 23.14C52.3411 23.14 51.4638 23.392 50.9411 23.896C50.4185 24.3813 50.1571 24.9787 50.1571 25.688C50.1571 26.36 50.4091 26.9107 50.9131 27.34C51.4171 27.7693 52.0891 27.984 52.9291 27.984ZM63.5303 30V9.952H66.5543V30H63.5303ZM74.7628 30.448C73.7361 30.448 72.8214 30.252 72.0188 29.86C71.2161 29.4493 70.5908 28.88 70.1428 28.152C69.6948 27.424 69.4708 26.5933 69.4708 25.66C69.4708 24.652 69.7321 23.7933 70.2548 23.084C70.7961 22.356 71.5148 21.8053 72.4108 21.432C73.3068 21.0587 74.2961 20.872 75.3788 20.872C76.2748 20.872 77.0588 20.956 77.7308 21.124C78.4214 21.292 78.9441 21.4693 79.2988 21.656V20.9C79.2988 19.9667 78.9628 19.22 78.2908 18.66C77.6188 18.1 76.7508 17.82 75.6868 17.82C74.9588 17.82 74.2681 17.988 73.6148 18.324C72.9614 18.6413 72.4388 19.08 72.0468 19.64L69.9748 18.044C70.5908 17.1853 71.4028 16.5133 72.4108 16.028C73.4374 15.524 74.5574 15.272 75.7708 15.272C77.8428 15.272 79.4388 15.7853 80.5588 16.812C81.6788 17.82 82.2388 19.2387 82.2388 21.068V30H79.2988V28.236H79.1308C78.7574 28.8147 78.1974 29.328 77.4508 29.776C76.7041 30.224 75.8081 30.448 74.7628 30.448ZM75.2948 27.984C76.0788 27.984 76.7694 27.7973 77.3668 27.424C77.9641 27.0507 78.4308 26.5653 78.7668 25.968C79.1214 25.352 79.2988 24.6893 79.2988 23.98C78.8694 23.7373 78.3654 23.5413 77.7868 23.392C77.2081 23.224 76.5921 23.14 75.9388 23.14C74.7068 23.14 73.8294 23.392 73.3068 23.896C72.7841 24.3813 72.5228 24.9787 72.5228 25.688C72.5228 26.36 72.7748 26.9107 73.2788 27.34C73.7828 27.7693 74.4548 27.984 75.2948 27.984ZM92.7031 30V15.72H95.5591V17.68H95.7271C96.1377 16.9893 96.7351 16.42 97.5191 15.972C98.3031 15.5053 99.1711 15.272 100.123 15.272C101.187 15.272 102.092 15.524 102.839 16.028C103.586 16.532 104.118 17.1667 104.435 17.932C104.902 17.1853 105.536 16.56 106.339 16.056C107.142 15.5333 108.122 15.272 109.279 15.272C110.959 15.272 112.21 15.7853 113.031 16.812C113.852 17.82 114.263 19.164 114.263 20.844V30H111.267V21.348C111.267 20.2093 111.015 19.3787 110.511 18.856C110.026 18.3147 109.344 18.044 108.467 18.044C107.776 18.044 107.17 18.24 106.647 18.632C106.124 19.0053 105.714 19.5187 105.415 20.172C105.135 20.8253 104.995 21.5533 104.995 22.356V30H101.999V21.348C101.999 20.2093 101.747 19.3787 101.243 18.856C100.739 18.3147 100.03 18.044 99.1151 18.044C98.4431 18.044 97.8551 18.24 97.3511 18.632C96.8471 19.024 96.4457 19.5467 96.1471 20.2C95.8671 20.8533 95.7271 21.5813 95.7271 22.384V30H92.7031ZM124.492 30.448C123.092 30.448 121.841 30.1213 120.74 29.468C119.639 28.8147 118.771 27.9187 118.136 26.78C117.52 25.6413 117.212 24.344 117.212 22.888C117.212 21.5253 117.511 20.2653 118.108 19.108C118.705 17.9507 119.536 17.0267 120.6 16.336C121.683 15.6267 122.924 15.272 124.324 15.272C125.799 15.272 127.049 15.5893 128.076 16.224C129.121 16.8587 129.915 17.7267 130.456 18.828C130.997 19.9293 131.268 21.1707 131.268 22.552C131.268 22.7573 131.259 22.944 131.24 23.112C131.24 23.28 131.231 23.4107 131.212 23.504H120.18C120.329 24.9227 120.824 25.9867 121.664 26.696C122.523 27.4053 123.493 27.76 124.576 27.76C125.547 27.76 126.349 27.5453 126.984 27.116C127.619 26.668 128.123 26.1173 128.496 25.464L130.988 26.668C130.372 27.788 129.532 28.7027 128.468 29.412C127.404 30.1027 126.079 30.448 124.492 30.448ZM124.352 17.848C123.344 17.848 122.485 18.156 121.776 18.772C121.067 19.388 120.591 20.2093 120.348 21.236H128.272C128.235 20.7507 128.076 20.2467 127.796 19.724C127.516 19.2013 127.087 18.7627 126.508 18.408C125.948 18.0347 125.229 17.848 124.352 17.848ZM140.614 30.448C139.326 30.448 138.159 30.1307 137.114 29.496C136.087 28.8427 135.266 27.9467 134.65 26.808C134.053 25.6507 133.754 24.3347 133.754 22.86C133.754 21.3853 134.053 20.0787 134.65 18.94C135.266 17.8013 136.087 16.9053 137.114 16.252C138.159 15.5987 139.326 15.272 140.614 15.272C141.715 15.272 142.658 15.5147 143.442 16C144.245 16.4853 144.833 17.036 145.206 17.652H145.374L145.206 15.664V9.952H148.202V30H145.374V28.096H145.206C144.833 28.712 144.245 29.2627 143.442 29.748C142.658 30.2147 141.715 30.448 140.614 30.448ZM141.062 27.676C141.809 27.676 142.509 27.48 143.162 27.088C143.834 26.696 144.366 26.1453 144.758 25.436C145.169 24.708 145.374 23.8493 145.374 22.86C145.374 21.8707 145.169 21.0213 144.758 20.312C144.366 19.584 143.834 19.024 143.162 18.632C142.509 18.24 141.809 18.044 141.062 18.044C140.315 18.044 139.615 18.24 138.962 18.632C138.309 19.024 137.777 19.584 137.366 20.312C136.955 21.0213 136.75 21.8707 136.75 22.86C136.75 23.8493 136.955 24.708 137.366 25.436C137.777 26.1453 138.309 26.696 138.962 27.088C139.615 27.48 140.315 27.676 141.062 27.676Z" fill="#3C4043"/>
<g id="GPay Logo (Light)">
<g id="GPay">
<g id="Pay">
<path id="Fill 1" fill-rule="evenodd" clip-rule="evenodd" d="M200.529 9.44664V17.6128H205.565C206.765 17.6128 207.757 17.2096 208.541 16.4032C209.347 15.5988 209.75 14.6394 209.75 13.5288C209.75 12.4406 209.347 11.4924 208.541 10.686C207.757 9.85915 206.765 9.44478 205.565 9.44478H200.529V9.44664ZM200.529 20.4872V29.9599H197.521V6.57217H205.499C207.527 6.57217 209.248 7.24786 210.666 8.59737C212.105 9.94688 212.824 11.5913 212.824 13.5288C212.824 15.511 212.105 17.1667 210.666 18.4938C209.27 19.8227 207.547 20.4854 205.499 20.4854H200.529V20.4872Z" fill="#5F6368"/>
<path id="Fill 3" fill-rule="evenodd" clip-rule="evenodd" d="M215.864 25.0602C215.864 25.8442 216.197 26.4975 216.862 27.0201C217.527 27.5427 218.306 27.804 219.2 27.804C220.465 27.804 221.591 27.3354 222.584 26.4004C223.576 25.4634 224.071 24.364 224.071 23.1022C223.133 22.3612 221.825 21.9916 220.147 21.9916C218.925 21.9916 217.907 22.2865 217.09 22.8745C216.273 23.4623 215.864 24.1886 215.864 25.0602ZM219.756 13.4317C221.98 13.4317 223.735 14.0252 225.022 15.2124C226.308 16.3995 226.95 18.0271 226.95 20.0952V29.9599H224.073V27.7387H223.942C222.699 29.5677 221.042 30.4825 218.972 30.4825C217.206 30.4825 215.728 29.9599 214.541 28.9146C213.353 27.8694 212.759 26.5628 212.759 24.9949C212.759 23.3393 213.385 22.0232 214.638 21.0434C215.892 20.0635 217.565 19.5726 219.658 19.5726C221.444 19.5726 222.916 19.8992 224.071 20.5525V19.8656C224.071 18.8204 223.656 17.9338 222.829 17.204C221.999 16.4741 221.031 16.1102 219.919 16.1102C218.239 16.1102 216.911 16.8176 215.93 18.2343L213.28 16.5675C214.741 14.4769 216.899 13.4317 219.756 13.4317Z" fill="#5F6368"/>
<path id="Fill 5" fill-rule="evenodd" clip-rule="evenodd" d="M243.463 13.9543L233.424 37.0154H230.318L234.046 28.9464L227.44 13.9543H230.71L235.484 25.4522H235.55L240.193 13.9543H243.463Z" fill="#5F6368"/>
</g>
<g id="G">
<path id="Fill 8" fill-rule="evenodd" clip-rule="evenodd" d="M188.373 18.4452C188.373 17.4989 188.293 16.5861 188.141 15.7126H175.454V20.8885H182.72C182.408 22.5757 181.465 24.0112 180.033 24.9725V28.3341H184.37C186.91 25.9935 188.373 22.5348 188.373 18.4452Z" fill="#4285F4"/>
<path id="Fill 10" fill-rule="evenodd" clip-rule="evenodd" d="M175.454 31.5782C179.084 31.5782 182.141 30.3873 184.37 28.3341L180.033 24.9725C178.826 25.7844 177.272 26.2585 175.454 26.2585C171.944 26.2585 168.966 23.8955 167.901 20.7112H163.433V24.1736C165.647 28.5637 170.197 31.5782 175.454 31.5782Z" fill="#34A853"/>
<path id="Fill 12" fill-rule="evenodd" clip-rule="evenodd" d="M167.901 20.7111C167.628 19.8992 167.479 19.0331 167.479 18.139C167.479 17.245 167.628 16.3789 167.901 15.567V12.1045H163.433C162.518 13.9188 162 15.9683 162 18.139C162 20.3098 162.518 22.3595 163.433 24.1736L167.901 20.7111Z" fill="#FABB05"/>
<path id="Fill 14" fill-rule="evenodd" clip-rule="evenodd" d="M175.454 10.0196C177.436 10.0196 179.213 10.7009 180.615 12.0355V12.0374L184.455 8.20162C182.123 6.03271 179.082 4.7 175.454 4.7C170.197 4.7 165.647 7.71446 163.433 12.1046L167.901 15.567C168.966 12.3827 171.944 10.0196 175.454 10.0196Z" fill="#E94235"/>
</g>
</g>
</g>
</g>
</svg>
