<svg width="334" height="38" viewBox="0 0 334 38" fill="none" xmlns="http://www.w3.org/2000/svg">
<g id="sv_subscribe_with_Light">
<path id="Text" d="M3.89613 30V9.952H10.7841C11.9975 9.952 13.0988 10.2133 14.0881 10.736C15.0775 11.2587 15.8615 11.9773 16.4401 12.892C17.0375 13.8067 17.3361 14.8707 17.3361 16.084C17.3361 17.2973 17.0375 18.3707 16.4401 19.304C15.8615 20.2187 15.0775 20.9373 14.0881 21.46C13.0988 21.964 11.9975 22.216 10.7841 22.216H6.97613V30H3.89613ZM10.8681 12.864H6.97613V19.304H10.8681C11.5961 19.304 12.2121 19.1547 12.7161 18.856C13.2201 18.5387 13.6028 18.1373 13.8641 17.652C14.1441 17.148 14.2841 16.6253 14.2841 16.084C14.2841 15.5427 14.1441 15.0293 13.8641 14.544C13.6028 14.0587 13.2201 13.6573 12.7161 13.34C12.2121 13.0227 11.5961 12.864 10.8681 12.864ZM20.2898 30V15.72H23.1458V17.82H23.3138C23.6311 17.092 24.1725 16.4947 24.9378 16.028C25.7218 15.5427 26.5618 15.3 27.4578 15.3C27.8498 15.3 28.1765 15.328 28.4378 15.384C28.7178 15.44 28.9698 15.5053 29.1938 15.58V18.716C28.8391 18.5667 28.4751 18.4453 28.1018 18.352C27.7471 18.2587 27.3738 18.212 26.9818 18.212C26.2725 18.212 25.6378 18.408 25.0778 18.8C24.5365 19.1733 24.1071 19.6867 23.7898 20.34C23.4725 20.9747 23.3138 21.6747 23.3138 22.44V30H20.2898ZM37.5044 30.448C36.1044 30.448 34.8537 30.1213 33.7524 29.468C32.6511 28.8147 31.7831 27.9187 31.1484 26.78C30.5324 25.6413 30.2244 24.344 30.2244 22.888C30.2244 21.5253 30.5231 20.2653 31.1204 19.108C31.7177 17.9507 32.5484 17.0267 33.6124 16.336C34.6951 15.6267 35.9364 15.272 37.3364 15.272C38.8111 15.272 40.0617 15.5893 41.0884 16.224C42.1337 16.8587 42.9271 17.7267 43.4684 18.828C44.0097 19.9293 44.2804 21.1707 44.2804 22.552C44.2804 22.7573 44.2711 22.944 44.2524 23.112C44.2524 23.28 44.2431 23.4107 44.2244 23.504H33.1924C33.3417 24.9227 33.8364 25.9867 34.6764 26.696C35.5351 27.4053 36.5057 27.76 37.5884 27.76C38.5591 27.76 39.3617 27.5453 39.9964 27.116C40.6311 26.668 41.1351 26.1173 41.5084 25.464L44.0004 26.668C43.3844 27.788 42.5444 28.7027 41.4804 29.412C40.4164 30.1027 39.0911 30.448 37.5044 30.448ZM37.3644 17.848C36.3564 17.848 35.4977 18.156 34.7884 18.772C34.0791 19.388 33.6031 20.2093 33.3604 21.236H41.2844C41.2471 20.7507 41.0884 20.2467 40.8084 19.724C40.5284 19.2013 40.0991 18.7627 39.5204 18.408C38.9604 18.0347 38.2417 17.848 37.3644 17.848ZM47.3859 30V15.72H50.2419V17.68H50.4099C50.8205 16.9893 51.4272 16.42 52.2299 15.972C53.0512 15.5053 53.9472 15.272 54.9179 15.272C56.6725 15.272 57.9885 15.7947 58.8659 16.84C59.7432 17.8853 60.1819 19.2667 60.1819 20.984V30H57.1859V21.376C57.1859 20.2187 56.8965 19.3787 56.3179 18.856C55.7392 18.3147 54.9832 18.044 54.0499 18.044C53.3219 18.044 52.6872 18.2493 52.1459 18.66C51.6045 19.052 51.1752 19.5747 50.8579 20.228C50.5592 20.8813 50.4099 21.5813 50.4099 22.328V30H47.3859ZM69.1081 30.448C67.3534 30.448 66.0281 29.9253 65.1321 28.88C64.2547 27.816 63.8161 26.3787 63.8161 24.568V15.72H66.8401V24.148C66.8401 25.3613 67.1201 26.2573 67.6801 26.836C68.2587 27.396 68.9774 27.676 69.8361 27.676C70.6014 27.676 71.2641 27.48 71.8241 27.088C72.4027 26.6773 72.8414 26.1547 73.1401 25.52C73.4574 24.8667 73.6161 24.1573 73.6161 23.392V15.72H76.6121V30H73.7841V28.068H73.6161C73.2054 28.74 72.5894 29.3093 71.7681 29.776C70.9654 30.224 70.0787 30.448 69.1081 30.448ZM80.4703 30V15.72H83.3263V17.68H83.4943C83.9049 16.9893 84.5023 16.42 85.2863 15.972C86.0703 15.5053 86.9383 15.272 87.8903 15.272C88.9543 15.272 89.8596 15.524 90.6063 16.028C91.3529 16.532 91.8849 17.1667 92.2023 17.932C92.6689 17.1853 93.3036 16.56 94.1063 16.056C94.9089 15.5333 95.8889 15.272 97.0463 15.272C98.7263 15.272 99.9769 15.7853 100.798 16.812C101.62 17.82 102.03 19.164 102.03 20.844V30H99.0343V21.348C99.0343 20.2093 98.7823 19.3787 98.2783 18.856C97.7929 18.3147 97.1116 18.044 96.2343 18.044C95.5436 18.044 94.9369 18.24 94.4143 18.632C93.8916 19.0053 93.4809 19.5187 93.1823 20.172C92.9023 20.8253 92.7623 21.5533 92.7623 22.356V30H89.7663V21.348C89.7663 20.2093 89.5143 19.3787 89.0103 18.856C88.5063 18.3147 87.7969 18.044 86.8823 18.044C86.2103 18.044 85.6223 18.24 85.1183 18.632C84.6143 19.024 84.2129 19.5467 83.9143 20.2C83.6343 20.8533 83.4943 21.5813 83.4943 22.384V30H80.4703ZM112.259 30.448C110.859 30.448 109.608 30.1213 108.507 29.468C107.406 28.8147 106.538 27.9187 105.903 26.78C105.287 25.6413 104.979 24.344 104.979 22.888C104.979 21.5253 105.278 20.2653 105.875 19.108C106.472 17.9507 107.303 17.0267 108.367 16.336C109.45 15.6267 110.691 15.272 112.091 15.272C113.566 15.272 114.816 15.5893 115.843 16.224C116.888 16.8587 117.682 17.7267 118.223 18.828C118.764 19.9293 119.035 21.1707 119.035 22.552C119.035 22.7573 119.026 22.944 119.007 23.112C119.007 23.28 118.998 23.4107 118.979 23.504H107.947C108.096 24.9227 108.591 25.9867 109.431 26.696C110.29 27.4053 111.26 27.76 112.343 27.76C113.314 27.76 114.116 27.5453 114.751 27.116C115.386 26.668 115.89 26.1173 116.263 25.464L118.755 26.668C118.139 27.788 117.299 28.7027 116.235 29.412C115.171 30.1027 113.846 30.448 112.259 30.448ZM112.119 17.848C111.111 17.848 110.252 18.156 109.543 18.772C108.834 19.388 108.358 20.2093 108.115 21.236H116.039C116.002 20.7507 115.843 20.2467 115.563 19.724C115.283 19.2013 114.854 18.7627 114.275 18.408C113.715 18.0347 112.996 17.848 112.119 17.848ZM122.141 30V15.72H124.997V17.82H125.165C125.482 17.092 126.023 16.4947 126.789 16.028C127.573 15.5427 128.413 15.3 129.309 15.3C129.701 15.3 130.027 15.328 130.289 15.384C130.569 15.44 130.821 15.5053 131.045 15.58V18.716C130.69 18.5667 130.326 18.4453 129.953 18.352C129.598 18.2587 129.225 18.212 128.833 18.212C128.123 18.212 127.489 18.408 126.929 18.8C126.387 19.1733 125.958 19.6867 125.641 20.34C125.323 20.9747 125.165 21.6747 125.165 22.44V30H122.141ZM139.355 30.448C137.955 30.448 136.705 30.1213 135.603 29.468C134.502 28.8147 133.634 27.9187 132.999 26.78C132.383 25.6413 132.075 24.344 132.075 22.888C132.075 21.5253 132.374 20.2653 132.971 19.108C133.569 17.9507 134.399 17.0267 135.463 16.336C136.546 15.6267 137.787 15.272 139.187 15.272C140.662 15.272 141.913 15.5893 142.939 16.224C143.985 16.8587 144.778 17.7267 145.319 18.828C145.861 19.9293 146.131 21.1707 146.131 22.552C146.131 22.7573 146.122 22.944 146.103 23.112C146.103 23.28 146.094 23.4107 146.075 23.504H135.043C135.193 24.9227 135.687 25.9867 136.527 26.696C137.386 27.4053 138.357 27.76 139.439 27.76C140.41 27.76 141.213 27.5453 141.847 27.116C142.482 26.668 142.986 26.1173 143.359 25.464L145.851 26.668C145.235 27.788 144.395 28.7027 143.331 29.412C142.267 30.1027 140.942 30.448 139.355 30.448ZM139.215 17.848C138.207 17.848 137.349 18.156 136.639 18.772C135.93 19.388 135.454 20.2093 135.211 21.236H143.135C143.098 20.7507 142.939 20.2467 142.659 19.724C142.379 19.2013 141.95 18.7627 141.371 18.408C140.811 18.0347 140.093 17.848 139.215 17.848ZM149.237 30V15.72H152.093V17.82H152.261C152.578 17.092 153.119 16.4947 153.885 16.028C154.669 15.5427 155.509 15.3 156.405 15.3C156.797 15.3 157.123 15.328 157.385 15.384C157.665 15.44 157.917 15.5053 158.141 15.58V18.716C157.786 18.5667 157.422 18.4453 157.049 18.352C156.694 18.2587 156.321 18.212 155.929 18.212C155.219 18.212 154.585 18.408 154.025 18.8C153.483 19.1733 153.054 19.6867 152.737 20.34C152.419 20.9747 152.261 21.6747 152.261 22.44V30H149.237ZM164.763 30.448C163.736 30.448 162.821 30.252 162.019 29.86C161.216 29.4493 160.591 28.88 160.143 28.152C159.695 27.424 159.471 26.5933 159.471 25.66C159.471 24.652 159.732 23.7933 160.255 23.084C160.796 22.356 161.515 21.8053 162.411 21.432C163.307 21.0587 164.296 20.872 165.379 20.872C166.275 20.872 167.059 20.956 167.731 21.124C168.421 21.292 168.944 21.4693 169.299 21.656V20.9C169.299 19.9667 168.963 19.22 168.291 18.66C167.619 18.1 166.751 17.82 165.687 17.82C164.959 17.82 164.268 17.988 163.615 18.324C162.961 18.6413 162.439 19.08 162.047 19.64L159.975 18.044C160.591 17.1853 161.403 16.5133 162.411 16.028C163.437 15.524 164.557 15.272 165.771 15.272C167.843 15.272 169.439 15.7853 170.559 16.812C171.679 17.82 172.239 19.2387 172.239 21.068V30H169.299V28.236H169.131C168.757 28.8147 168.197 29.328 167.451 29.776C166.704 30.224 165.808 30.448 164.763 30.448ZM165.295 27.984C166.079 27.984 166.769 27.7973 167.367 27.424C167.964 27.0507 168.431 26.5653 168.767 25.968C169.121 25.352 169.299 24.6893 169.299 23.98C168.869 23.7373 168.365 23.5413 167.787 23.392C167.208 23.224 166.592 23.14 165.939 23.14C164.707 23.14 163.829 23.392 163.307 23.896C162.784 24.3813 162.523 24.9787 162.523 25.688C162.523 26.36 162.775 26.9107 163.279 27.34C163.783 27.7693 164.455 27.984 165.295 27.984ZM182.703 30V15.72H185.559V17.68H185.727C186.138 16.9893 186.735 16.42 187.519 15.972C188.303 15.5053 189.171 15.272 190.123 15.272C191.187 15.272 192.092 15.524 192.839 16.028C193.586 16.532 194.118 17.1667 194.435 17.932C194.902 17.1853 195.536 16.56 196.339 16.056C197.142 15.5333 198.122 15.272 199.279 15.272C200.959 15.272 202.21 15.7853 203.031 16.812C203.852 17.82 204.263 19.164 204.263 20.844V30H201.267V21.348C201.267 20.2093 201.015 19.3787 200.511 18.856C200.026 18.3147 199.344 18.044 198.467 18.044C197.776 18.044 197.17 18.24 196.647 18.632C196.124 19.0053 195.714 19.5187 195.415 20.172C195.135 20.8253 194.995 21.5533 194.995 22.356V30H191.999V21.348C191.999 20.2093 191.747 19.3787 191.243 18.856C190.739 18.3147 190.03 18.044 189.115 18.044C188.443 18.044 187.855 18.24 187.351 18.632C186.847 19.024 186.446 19.5467 186.147 20.2C185.867 20.8533 185.727 21.5813 185.727 22.384V30H182.703ZM214.492 30.448C213.092 30.448 211.841 30.1213 210.74 29.468C209.639 28.8147 208.771 27.9187 208.136 26.78C207.52 25.6413 207.212 24.344 207.212 22.888C207.212 21.5253 207.511 20.2653 208.108 19.108C208.705 17.9507 209.536 17.0267 210.6 16.336C211.683 15.6267 212.924 15.272 214.324 15.272C215.799 15.272 217.049 15.5893 218.076 16.224C219.121 16.8587 219.915 17.7267 220.456 18.828C220.997 19.9293 221.268 21.1707 221.268 22.552C221.268 22.7573 221.259 22.944 221.24 23.112C221.24 23.28 221.231 23.4107 221.212 23.504H210.18C210.329 24.9227 210.824 25.9867 211.664 26.696C212.523 27.4053 213.493 27.76 214.576 27.76C215.547 27.76 216.349 27.5453 216.984 27.116C217.619 26.668 218.123 26.1173 218.496 25.464L220.988 26.668C220.372 27.788 219.532 28.7027 218.468 29.412C217.404 30.1027 216.079 30.448 214.492 30.448ZM214.352 17.848C213.344 17.848 212.485 18.156 211.776 18.772C211.067 19.388 210.591 20.2093 210.348 21.236H218.272C218.235 20.7507 218.076 20.2467 217.796 19.724C217.516 19.2013 217.087 18.7627 216.508 18.408C215.948 18.0347 215.229 17.848 214.352 17.848ZM230.614 30.448C229.326 30.448 228.159 30.1307 227.114 29.496C226.087 28.8427 225.266 27.9467 224.65 26.808C224.053 25.6507 223.754 24.3347 223.754 22.86C223.754 21.3853 224.053 20.0787 224.65 18.94C225.266 17.8013 226.087 16.9053 227.114 16.252C228.159 15.5987 229.326 15.272 230.614 15.272C231.715 15.272 232.658 15.5147 233.442 16C234.245 16.4853 234.833 17.036 235.206 17.652H235.374L235.206 15.664V9.952H238.202V30H235.374V28.096H235.206C234.833 28.712 234.245 29.2627 233.442 29.748C232.658 30.2147 231.715 30.448 230.614 30.448ZM231.062 27.676C231.809 27.676 232.509 27.48 233.162 27.088C233.834 26.696 234.366 26.1453 234.758 25.436C235.169 24.708 235.374 23.8493 235.374 22.86C235.374 21.8707 235.169 21.0213 234.758 20.312C234.366 19.584 233.834 19.024 233.162 18.632C232.509 18.24 231.809 18.044 231.062 18.044C230.315 18.044 229.615 18.24 228.962 18.632C228.309 19.024 227.777 19.584 227.366 20.312C226.955 21.0213 226.75 21.8707 226.75 22.86C226.75 23.8493 226.955 24.708 227.366 25.436C227.777 26.1453 228.309 26.696 228.962 27.088C229.615 27.48 230.315 27.676 231.062 27.676Z" fill="#3C4043"/>
<g id="GPay Logo (Light)">
<g id="GPay">
<g id="Pay">
<path id="Fill 1" fill-rule="evenodd" clip-rule="evenodd" d="M290.529 9.44664V17.6128H295.565C296.765 17.6128 297.757 17.2096 298.541 16.4032C299.347 15.5988 299.75 14.6394 299.75 13.5288C299.75 12.4406 299.347 11.4924 298.541 10.686C297.757 9.85915 296.765 9.44478 295.565 9.44478H290.529V9.44664ZM290.529 20.4872V29.9599H287.521V6.57217H295.499C297.527 6.57217 299.248 7.24786 300.666 8.59737C302.105 9.94688 302.824 11.5913 302.824 13.5288C302.824 15.511 302.105 17.1667 300.666 18.4938C299.27 19.8227 297.547 20.4854 295.499 20.4854H290.529V20.4872Z" fill="#5F6368"/>
<path id="Fill 3" fill-rule="evenodd" clip-rule="evenodd" d="M305.864 25.0602C305.864 25.8442 306.197 26.4975 306.862 27.0201C307.527 27.5427 308.306 27.804 309.2 27.804C310.465 27.804 311.591 27.3354 312.584 26.4004C313.576 25.4634 314.071 24.364 314.071 23.1022C313.133 22.3612 311.825 21.9916 310.147 21.9916C308.925 21.9916 307.907 22.2865 307.09 22.8745C306.273 23.4623 305.864 24.1886 305.864 25.0602ZM309.756 13.4317C311.98 13.4317 313.735 14.0252 315.022 15.2124C316.308 16.3995 316.95 18.0271 316.95 20.0952V29.9599H314.073V27.7387H313.942C312.699 29.5677 311.042 30.4825 308.972 30.4825C307.206 30.4825 305.728 29.9599 304.541 28.9146C303.353 27.8694 302.759 26.5628 302.759 24.9949C302.759 23.3393 303.385 22.0232 304.638 21.0434C305.892 20.0635 307.565 19.5726 309.658 19.5726C311.444 19.5726 312.916 19.8992 314.071 20.5525V19.8656C314.071 18.8204 313.656 17.9338 312.829 17.204C311.999 16.4741 311.031 16.1102 309.919 16.1102C308.239 16.1102 306.911 16.8176 305.93 18.2343L303.28 16.5675C304.741 14.4769 306.899 13.4317 309.756 13.4317Z" fill="#5F6368"/>
<path id="Fill 5" fill-rule="evenodd" clip-rule="evenodd" d="M333.463 13.9543L323.424 37.0154H320.318L324.046 28.9464L317.44 13.9543H320.71L325.484 25.4522H325.55L330.193 13.9543H333.463Z" fill="#5F6368"/>
</g>
<g id="G">
<path id="Fill 8" fill-rule="evenodd" clip-rule="evenodd" d="M278.373 18.4452C278.373 17.4989 278.293 16.5861 278.141 15.7126H265.454V20.8885H272.72C272.408 22.5757 271.465 24.0112 270.033 24.9725V28.3341H274.37C276.91 25.9935 278.373 22.5348 278.373 18.4452Z" fill="#4285F4"/>
<path id="Fill 10" fill-rule="evenodd" clip-rule="evenodd" d="M265.454 31.5782C269.084 31.5782 272.141 30.3873 274.37 28.3341L270.033 24.9725C268.826 25.7844 267.272 26.2585 265.454 26.2585C261.944 26.2585 258.966 23.8955 257.901 20.7112H253.433V24.1736C255.647 28.5637 260.197 31.5782 265.454 31.5782Z" fill="#34A853"/>
<path id="Fill 12" fill-rule="evenodd" clip-rule="evenodd" d="M257.901 20.7111C257.628 19.8992 257.479 19.0331 257.479 18.139C257.479 17.245 257.628 16.3789 257.901 15.567V12.1045H253.433C252.518 13.9188 252 15.9683 252 18.139C252 20.3098 252.518 22.3595 253.433 24.1736L257.901 20.7111Z" fill="#FABB05"/>
<path id="Fill 14" fill-rule="evenodd" clip-rule="evenodd" d="M265.454 10.0196C267.436 10.0196 269.213 10.7009 270.615 12.0355V12.0374L274.455 8.20162C272.123 6.03271 269.082 4.7 265.454 4.7C260.197 4.7 255.647 7.71446 253.433 12.1046L257.901 15.567C258.966 12.3827 261.944 10.0196 265.454 10.0196Z" fill="#E94235"/>
</g>
</g>
</g>
</g>
</svg>
