<svg width="190" height="21" viewBox="0 0 190 21" fill="none" xmlns="http://www.w3.org/2000/svg">
<g id="sv_subscribe_with_Pay_NBG">
<path id="Left Text" d="M1.38349 15.0006V3.54461H5.31949C6.01283 3.54461 6.64216 3.69394 7.20749 3.99261C7.77283 4.28061 8.22083 4.69128 8.55149 5.22461C8.89283 5.74728 9.06349 6.35528 9.06349 7.04861C9.06349 7.73128 8.89283 8.33928 8.55149 8.87261C8.22083 9.40594 7.77283 9.82194 7.20749 10.1206C6.64216 10.4086 6.01283 10.5526 5.31949 10.5526H3.14349V15.0006H1.38349ZM3.14349 8.88861H5.36749C5.78349 8.88861 6.13549 8.80328 6.42349 8.63261C6.71149 8.45128 6.93016 8.22194 7.07949 7.94461C7.23949 7.65661 7.31949 7.35794 7.31949 7.04861C7.31949 6.73928 7.23949 6.44594 7.07949 6.16861C6.93016 5.89128 6.71149 5.66194 6.42349 5.48061C6.13549 5.29928 5.78349 5.20861 5.36749 5.20861H3.14349V8.88861ZM10.7299 15.0006V6.84061H12.3619V8.04061H12.4579C12.5859 7.76328 12.7672 7.51794 13.0019 7.30461C13.2472 7.09128 13.5245 6.92061 13.8339 6.79261C14.1539 6.66461 14.4845 6.60061 14.8259 6.60061C15.0499 6.60061 15.2365 6.61661 15.3859 6.64861C15.5459 6.66994 15.6899 6.70728 15.8179 6.76061V8.55261C15.6152 8.46728 15.4072 8.39794 15.1939 8.34461C14.9912 8.29128 14.7779 8.26461 14.5539 8.26461C14.1485 8.26461 13.7859 8.37661 13.4659 8.60061C13.1565 8.81394 12.9112 9.10194 12.7299 9.46461C12.5485 9.82728 12.4579 10.2326 12.4579 10.6806V15.0006H10.7299ZM20.5454 15.2566C19.7454 15.2566 19.0307 15.0699 18.4014 14.6966C17.772 14.3233 17.276 13.8113 16.9134 13.1606C16.5614 12.5099 16.3854 11.7686 16.3854 10.9366C16.3854 10.1579 16.556 9.43794 16.8974 8.77661C17.2387 8.11528 17.7134 7.58728 18.3214 7.19261C18.94 6.78728 19.6494 6.58461 20.4494 6.58461C21.292 6.58461 22.0067 6.76594 22.5934 7.12861C23.1907 7.49128 23.644 7.98728 23.9534 8.61661C24.2627 9.24594 24.4174 9.95528 24.4174 10.7446C24.4174 10.8619 24.412 10.9686 24.4014 11.0646C24.4014 11.1606 24.396 11.2353 24.3854 11.2886H18.0814C18.124 11.7366 18.236 12.1259 18.4174 12.4566C18.652 12.8726 18.9614 13.1873 19.3454 13.4006C19.7294 13.6139 20.1454 13.7206 20.5934 13.7206C21.1374 13.7206 21.5907 13.5979 21.9534 13.3526C22.3267 13.0966 22.62 12.7819 22.8334 12.4086L24.2574 13.0966C23.9054 13.7366 23.4254 14.2593 22.8174 14.6646C22.2094 15.0593 21.452 15.2566 20.5454 15.2566ZM18.1774 9.99261H22.7054C22.6947 9.78994 22.6414 9.57661 22.5454 9.35261C22.4494 9.11794 22.3107 8.90461 22.1294 8.71261C21.948 8.52061 21.7187 8.36594 21.4414 8.24861C21.164 8.12061 20.8387 8.05661 20.4654 8.05661C19.996 8.05661 19.58 8.17928 19.2174 8.42461C18.8547 8.65928 18.572 8.98994 18.3694 9.41661C18.284 9.59794 18.22 9.78994 18.1774 9.99261ZM26.1705 15.0006V6.84061H27.8025V7.96061H27.8985C28.1332 7.56594 28.4798 7.24061 28.9385 6.98461C29.4078 6.71794 29.9198 6.58461 30.4745 6.58461C31.4772 6.58461 32.2292 6.88328 32.7305 7.48061C33.2318 8.06728 33.4825 8.85661 33.4825 9.84861V15.0006H31.7705V10.0726C31.7705 9.41128 31.6052 8.93128 31.2745 8.63261C30.9438 8.32328 30.5118 8.16861 29.9785 8.16861C29.5625 8.16861 29.1998 8.28594 28.8905 8.52061C28.5812 8.74461 28.3358 9.04328 28.1545 9.41661C27.9838 9.78994 27.8985 10.1899 27.8985 10.6166V15.0006H26.1705ZM38.5617 15.2566C37.5591 15.2566 36.8017 14.9579 36.2897 14.3606C35.7884 13.7526 35.5377 12.9313 35.5377 11.8966V6.84061H37.2657V11.6566C37.2657 12.3393 37.4257 12.8459 37.7457 13.1766C38.0764 13.5073 38.4871 13.6726 38.9777 13.6726C39.4257 13.6726 39.8097 13.5606 40.1297 13.3366C40.4497 13.1019 40.6951 12.7979 40.8657 12.4246C41.0471 12.0513 41.1377 11.6513 41.1377 11.2246V6.84061H42.8497V15.0006H41.2337V13.8966H41.1377C40.9884 14.1526 40.7804 14.3819 40.5137 14.5846C40.2471 14.7873 39.9484 14.9473 39.6177 15.0646C39.2871 15.1926 38.9351 15.2566 38.5617 15.2566ZM45.033 15.0006V6.84061H46.665V7.96061H46.761C46.921 7.69394 47.129 7.45928 47.385 7.25661C47.641 7.05394 47.929 6.89394 48.249 6.77661C48.5797 6.64861 48.921 6.58461 49.273 6.58461C49.881 6.58461 50.3983 6.72861 50.825 7.01661C51.2517 7.30461 51.5557 7.66728 51.737 8.10461C52.0037 7.67794 52.3663 7.32061 52.825 7.03261C53.2837 6.73394 53.8437 6.58461 54.505 6.58461C55.465 6.58461 56.1797 6.87794 56.649 7.46461C57.1183 8.04061 57.353 8.80861 57.353 9.76861V15.0006H55.641V10.0566C55.641 9.39528 55.497 8.91528 55.209 8.61661C54.9317 8.31794 54.5423 8.16861 54.041 8.16861C53.6463 8.16861 53.2997 8.28061 53.001 8.50461C52.7023 8.71794 52.4677 9.01128 52.297 9.38461C52.137 9.75794 52.057 10.1739 52.057 10.6326V15.0006H50.345V10.0566C50.345 9.40594 50.201 8.93128 49.913 8.63261C49.625 8.32328 49.2197 8.16861 48.697 8.16861C48.3237 8.16861 47.9877 8.28061 47.689 8.50461C47.401 8.72861 47.1717 9.02728 47.001 9.40061C46.841 9.77394 46.761 10.1899 46.761 10.6486V15.0006H45.033ZM63.1766 15.2566C62.3766 15.2566 61.662 15.0699 61.0326 14.6966C60.4033 14.3233 59.9073 13.8113 59.5446 13.1606C59.1926 12.5099 59.0166 11.7686 59.0166 10.9366C59.0166 10.1579 59.1873 9.43794 59.5286 8.77661C59.87 8.11528 60.3446 7.58728 60.9526 7.19261C61.5713 6.78728 62.2806 6.58461 63.0806 6.58461C63.9233 6.58461 64.638 6.76594 65.2246 7.12861C65.822 7.49128 66.2753 7.98728 66.5846 8.61661C66.894 9.24594 67.0486 9.95528 67.0486 10.7446C67.0486 10.8619 67.0433 10.9686 67.0326 11.0646C67.0326 11.1606 67.0273 11.2353 67.0166 11.2886H60.7126C60.7553 11.7366 60.8673 12.1259 61.0486 12.4566C61.2833 12.8726 61.5926 13.1873 61.9766 13.4006C62.3606 13.6139 62.7766 13.7206 63.2246 13.7206C63.7686 13.7206 64.222 13.5979 64.5846 13.3526C64.958 13.0966 65.2513 12.7819 65.4646 12.4086L66.8886 13.0966C66.5366 13.7366 66.0566 14.2593 65.4486 14.6646C64.8406 15.0593 64.0833 15.2566 63.1766 15.2566ZM60.8086 9.99261H65.3366C65.326 9.78994 65.2726 9.57661 65.1766 9.35261C65.0806 9.11794 64.942 8.90461 64.7606 8.71261C64.5793 8.52061 64.35 8.36594 64.0726 8.24861C63.7953 8.12061 63.47 8.05661 63.0966 8.05661C62.6273 8.05661 62.2113 8.17928 61.8486 8.42461C61.486 8.65928 61.2033 8.98994 61.0006 9.41661C60.9153 9.59794 60.8513 9.78994 60.8086 9.99261ZM68.8017 15.0006V6.84061H70.4337V8.04061H70.5297C70.6577 7.76328 70.8391 7.51794 71.0737 7.30461C71.3191 7.09128 71.5964 6.92061 71.9057 6.79261C72.2257 6.66461 72.5564 6.60061 72.8977 6.60061C73.1217 6.60061 73.3084 6.61661 73.4577 6.64861C73.6177 6.66994 73.7617 6.70728 73.8897 6.76061V8.55261C73.6871 8.46728 73.4791 8.39794 73.2657 8.34461C73.0631 8.29128 72.8497 8.26461 72.6257 8.26461C72.2204 8.26461 71.8577 8.37661 71.5377 8.60061C71.2284 8.81394 70.9831 9.10194 70.8017 9.46461C70.6204 9.82728 70.5297 10.2326 70.5297 10.6806V15.0006H68.8017ZM78.6172 15.2566C77.8172 15.2566 77.1026 15.0699 76.4732 14.6966C75.8439 14.3233 75.3479 13.8113 74.9852 13.1606C74.6332 12.5099 74.4572 11.7686 74.4572 10.9366C74.4572 10.1579 74.6279 9.43794 74.9692 8.77661C75.3106 8.11528 75.7852 7.58728 76.3932 7.19261C77.0119 6.78728 77.7212 6.58461 78.5212 6.58461C79.3639 6.58461 80.0786 6.76594 80.6652 7.12861C81.2626 7.49128 81.7159 7.98728 82.0252 8.61661C82.3346 9.24594 82.4892 9.95528 82.4892 10.7446C82.4892 10.8619 82.4839 10.9686 82.4732 11.0646C82.4732 11.1606 82.4679 11.2353 82.4572 11.2886H76.1532C76.1959 11.7366 76.3079 12.1259 76.4892 12.4566C76.7239 12.8726 77.0332 13.1873 77.4172 13.4006C77.8012 13.6139 78.2172 13.7206 78.6652 13.7206C79.2092 13.7206 79.6626 13.5979 80.0252 13.3526C80.3986 13.0966 80.6919 12.7819 80.9052 12.4086L82.3292 13.0966C81.9772 13.7366 81.4972 14.2593 80.8892 14.6646C80.2812 15.0593 79.5239 15.2566 78.6172 15.2566ZM76.2492 9.99261H80.7772C80.7666 9.78994 80.7132 9.57661 80.6172 9.35261C80.5212 9.11794 80.3826 8.90461 80.2012 8.71261C80.0199 8.52061 79.7906 8.36594 79.5132 8.24861C79.2359 8.12061 78.9106 8.05661 78.5372 8.05661C78.0679 8.05661 77.6519 8.17928 77.2892 8.42461C76.9266 8.65928 76.6439 8.98994 76.4412 9.41661C76.3559 9.59794 76.2919 9.78994 76.2492 9.99261ZM84.2424 15.0006V6.84061H85.8744V8.04061H85.9704C86.0984 7.76328 86.2797 7.51794 86.5144 7.30461C86.7597 7.09128 87.037 6.92061 87.3464 6.79261C87.6664 6.66461 87.997 6.60061 88.3384 6.60061C88.5624 6.60061 88.749 6.61661 88.8984 6.64861C89.0584 6.66994 89.2024 6.70728 89.3304 6.76061V8.55261C89.1277 8.46728 88.9197 8.39794 88.7064 8.34461C88.5037 8.29128 88.2904 8.26461 88.0664 8.26461C87.661 8.26461 87.2984 8.37661 86.9784 8.60061C86.669 8.81394 86.4237 9.10194 86.2424 9.46461C86.061 9.82728 85.9704 10.2326 85.9704 10.6806V15.0006H84.2424ZM93.093 15.2566C92.5063 15.2566 91.9837 15.1393 91.525 14.9046C91.077 14.6699 90.7197 14.3499 90.453 13.9446C90.197 13.5286 90.069 13.0539 90.069 12.5206C90.069 11.9339 90.2183 11.4379 90.517 11.0326C90.8263 10.6273 91.237 10.3179 91.749 10.1046C92.261 9.89128 92.8263 9.78461 93.445 9.78461C93.7863 9.78461 94.101 9.81128 94.389 9.86461C94.6877 9.90728 94.9437 9.96061 95.157 10.0246C95.381 10.0886 95.557 10.1579 95.685 10.2326V9.80061C95.685 9.26728 95.493 8.84061 95.109 8.52061C94.725 8.20061 94.229 8.04061 93.621 8.04061C93.205 8.04061 92.8103 8.13661 92.437 8.32861C92.0637 8.50994 91.765 8.76061 91.541 9.08061L90.357 8.16861C90.5917 7.83794 90.8743 7.55528 91.205 7.32061C91.5463 7.08594 91.925 6.90461 92.341 6.77661C92.7677 6.64861 93.2103 6.58461 93.669 6.58461C94.853 6.58461 95.765 6.87794 96.405 7.46461C97.045 8.04061 97.365 8.85128 97.365 9.89661V15.0006H95.685V13.9926H95.589C95.4503 14.2059 95.2583 14.4086 95.013 14.6006C94.7783 14.7926 94.4957 14.9473 94.165 15.0646C93.845 15.1926 93.4877 15.2566 93.093 15.2566ZM93.397 13.8486C93.845 13.8486 94.2397 13.7419 94.581 13.5286C94.933 13.3153 95.205 13.0379 95.397 12.6966C95.589 12.3446 95.685 11.9659 95.685 11.5606C95.4503 11.4219 95.1623 11.3099 94.821 11.2246C94.4903 11.1286 94.1383 11.0806 93.765 11.0806C93.061 11.0806 92.5597 11.2193 92.261 11.4966C91.9623 11.7739 91.813 12.1206 91.813 12.5366C91.813 12.9206 91.957 13.2353 92.245 13.4806C92.533 13.7259 92.917 13.8486 93.397 13.8486ZM103.302 15.0006V6.84061H104.934V7.96061H105.03C105.19 7.69394 105.398 7.45928 105.654 7.25661C105.91 7.05394 106.198 6.89394 106.518 6.77661C106.848 6.64861 107.19 6.58461 107.542 6.58461C108.15 6.58461 108.667 6.72861 109.094 7.01661C109.52 7.30461 109.824 7.66728 110.006 8.10461C110.272 7.67794 110.635 7.32061 111.094 7.03261C111.552 6.73394 112.112 6.58461 112.774 6.58461C113.734 6.58461 114.448 6.87794 114.918 7.46461C115.387 8.04061 115.622 8.80861 115.622 9.76861V15.0006H113.91V10.0566C113.91 9.39528 113.766 8.91528 113.478 8.61661C113.2 8.31794 112.811 8.16861 112.31 8.16861C111.915 8.16861 111.568 8.28061 111.27 8.50461C110.971 8.71794 110.736 9.01128 110.566 9.38461C110.406 9.75794 110.326 10.1739 110.326 10.6326V15.0006H108.614V10.0566C108.614 9.40594 108.47 8.93128 108.182 8.63261C107.894 8.32328 107.488 8.16861 106.966 8.16861C106.592 8.16861 106.256 8.28061 105.958 8.50461C105.67 8.72861 105.44 9.02728 105.27 9.40061C105.11 9.77394 105.03 10.1899 105.03 10.6486V15.0006H103.302ZM121.445 15.2566C120.645 15.2566 119.931 15.0699 119.301 14.6966C118.672 14.3233 118.176 13.8113 117.813 13.1606C117.461 12.5099 117.285 11.7686 117.285 10.9366C117.285 10.1579 117.456 9.43794 117.797 8.77661C118.139 8.11528 118.613 7.58728 119.221 7.19261C119.84 6.78728 120.549 6.58461 121.349 6.58461C122.192 6.58461 122.907 6.76594 123.493 7.12861C124.091 7.49128 124.544 7.98728 124.853 8.61661C125.163 9.24594 125.317 9.95528 125.317 10.7446C125.317 10.8619 125.312 10.9686 125.301 11.0646C125.301 11.1606 125.296 11.2353 125.285 11.2886H118.981C119.024 11.7366 119.136 12.1259 119.317 12.4566C119.552 12.8726 119.861 13.1873 120.245 13.4006C120.629 13.6139 121.045 13.7206 121.493 13.7206C122.037 13.7206 122.491 13.5979 122.853 13.3526C123.227 13.0966 123.52 12.7819 123.733 12.4086L125.157 13.0966C124.805 13.7366 124.325 14.2593 123.717 14.6646C123.109 15.0593 122.352 15.2566 121.445 15.2566ZM119.077 9.99261H123.605C123.595 9.78994 123.541 9.57661 123.445 9.35261C123.349 9.11794 123.211 8.90461 123.029 8.71261C122.848 8.52061 122.619 8.36594 122.341 8.24861C122.064 8.12061 121.739 8.05661 121.365 8.05661C120.896 8.05661 120.48 8.17928 120.117 8.42461C119.755 8.65928 119.472 8.98994 119.269 9.41661C119.184 9.59794 119.12 9.78994 119.077 9.99261ZM130.637 15.2566C129.901 15.2566 129.234 15.0699 128.637 14.6966C128.039 14.3233 127.57 13.8113 127.229 13.1606C126.887 12.5099 126.717 11.7633 126.717 10.9206C126.717 10.0779 126.887 9.33128 127.229 8.68061C127.57 8.02994 128.039 7.51794 128.637 7.14461C129.234 6.77128 129.901 6.58461 130.637 6.58461C131.063 6.58461 131.447 6.64861 131.789 6.77661C132.13 6.90461 132.423 7.07528 132.669 7.28861C132.925 7.49128 133.122 7.70994 133.261 7.94461H133.357L133.261 6.80861V3.54461H134.973V15.0006H133.357V13.9126H133.261C133.122 14.1366 132.925 14.3553 132.669 14.5686C132.423 14.7713 132.13 14.9366 131.789 15.0646C131.447 15.1926 131.063 15.2566 130.637 15.2566ZM130.893 13.6726C131.319 13.6726 131.719 13.5606 132.093 13.3366C132.477 13.1126 132.781 12.7979 133.005 12.3926C133.239 11.9766 133.357 11.4859 133.357 10.9206C133.357 10.3553 133.239 9.86994 133.005 9.46461C132.781 9.04861 132.477 8.72861 132.093 8.50461C131.719 8.28061 131.319 8.16861 130.893 8.16861C130.466 8.16861 130.066 8.28061 129.693 8.50461C129.319 8.72861 129.015 9.04861 128.781 9.46461C128.546 9.86994 128.429 10.3553 128.429 10.9206C128.429 11.4753 128.546 11.9606 128.781 12.3766C129.015 12.7926 129.319 13.1126 129.693 13.3366C130.066 13.5606 130.466 13.6726 130.893 13.6726Z" fill="white"/>
<g id="GPay (Dark)">
<g id="GPay">
<g id="Pay">
<path id="Fill 1" fill-rule="evenodd" clip-rule="evenodd" d="M164.356 3.42339V8.16175H167.278C167.974 8.16175 168.55 7.92781 169.005 7.45993C169.473 6.99313 169.707 6.43644 169.707 5.79203C169.707 5.16061 169.473 4.61041 169.005 4.14254C168.55 3.66274 167.974 3.4223 167.278 3.4223H164.356V3.42339ZM164.356 9.82966V15.3262H162.611V1.75549H167.24C168.417 1.75549 169.415 2.14756 170.238 2.93061C171.073 3.71365 171.491 4.66782 171.491 5.79203C171.491 6.94224 171.073 7.90291 170.238 8.67296C169.428 9.44409 168.429 9.82858 167.24 9.82858H164.356V9.82966Z" fill="white"/>
<path id="Fill 3" fill-rule="evenodd" clip-rule="evenodd" d="M173.255 12.4831C173.255 12.9379 173.448 13.317 173.834 13.6203C174.22 13.9235 174.672 14.0752 175.19 14.0752C175.924 14.0752 176.578 13.8032 177.153 13.2607C177.729 12.717 178.017 12.0791 178.017 11.3469C177.472 10.917 176.713 10.7025 175.74 10.7025C175.031 10.7025 174.44 10.8736 173.966 11.2148C173.492 11.5559 173.255 11.9773 173.255 12.4831M175.513 5.73566C176.803 5.73566 177.821 6.08007 178.569 6.76889C179.314 7.45771 179.687 8.40213 179.687 9.60216V15.3261H178.018V14.0373H177.942C177.221 15.0985 176.259 15.6294 175.058 15.6294C174.033 15.6294 173.176 15.3261 172.487 14.7196C171.797 14.1131 171.453 13.3549 171.453 12.4452C171.453 11.4845 171.816 10.7208 172.543 10.1523C173.271 9.58375 174.241 9.2989 175.456 9.2989C176.492 9.2989 177.346 9.48844 178.017 9.86751V9.46894C178.017 8.86243 177.776 8.34798 177.296 7.92451C176.814 7.50103 176.252 7.28984 175.607 7.28984C174.633 7.28984 173.862 7.70032 173.293 8.52235L171.755 7.55519C172.603 6.34217 173.855 5.73566 175.513 5.73566" fill="white"/>
<path id="Fill 5" fill-rule="evenodd" clip-rule="evenodd" d="M189.269 6.03894L183.443 19.4201H181.641L183.804 14.738L179.971 6.03894H181.869L184.639 12.7106H184.677L187.371 6.03894H189.269Z" fill="white"/>
</g>
<g id="G">
<path id="Fill 8" fill-rule="evenodd" clip-rule="evenodd" d="M157.303 8.64473C157.303 8.09563 157.256 7.56601 157.168 7.05914H149.806V10.0625H154.023C153.842 11.0414 153.294 11.8744 152.464 12.4322V14.3828H154.98C156.454 13.0246 157.303 11.0177 157.303 8.64473" fill="#4285F4"/>
<path id="Fill 10" fill-rule="evenodd" clip-rule="evenodd" d="M149.806 16.2651C151.913 16.2651 153.687 15.5741 154.98 14.3828L152.464 12.4322C151.763 12.9033 150.861 13.1784 149.806 13.1784C147.77 13.1784 146.042 11.8073 145.424 9.95959H142.832V11.9687C144.116 14.516 146.757 16.2651 149.806 16.2651" fill="#34A853"/>
<path id="Fill 12" fill-rule="evenodd" clip-rule="evenodd" d="M145.424 9.9596C145.266 9.48847 145.179 8.98593 145.179 8.46715C145.179 7.94837 145.266 7.44583 145.424 6.9747V4.96564H142.832C142.3 6.01837 142 7.20756 142 8.46715C142 9.72674 142.3 10.916 142.832 11.9687L145.424 9.9596Z" fill="#FABB05"/>
<path id="Fill 14" fill-rule="evenodd" clip-rule="evenodd" d="M149.806 3.75583C150.957 3.75583 151.988 4.15115 152.801 4.92553V4.92661L155.029 2.70094C153.676 1.44243 151.912 0.669128 149.806 0.669128C146.757 0.669128 144.116 2.41826 142.832 4.9656L145.424 6.97467C146.042 5.12698 147.77 3.75583 149.806 3.75583" fill="#E94235"/>
</g>
</g>
</g>
</g>
</svg>
