<svg width="164" height="38" viewBox="0 0 164 38" fill="none" xmlns="http://www.w3.org/2000/svg">
<g id="sv_view_in_Light">
<path id="Text" d="M8.49228 30L1.38028 9.952H4.74028L9.27628 23.28L9.97628 25.548H10.1443L10.9003 23.28L15.6323 9.952H18.9923L11.6843 30H8.49228ZM22.6437 13.62C22.0837 13.62 21.5984 13.424 21.1877 13.032C20.7957 12.6213 20.5997 12.136 20.5997 11.576C20.5997 11.016 20.7957 10.54 21.1877 10.148C21.5984 9.756 22.0837 9.56 22.6437 9.56C23.2037 9.56 23.6797 9.756 24.0717 10.148C24.4824 10.54 24.6877 11.016 24.6877 11.576C24.6877 12.136 24.4824 12.6213 24.0717 13.032C23.6797 13.424 23.2037 13.62 22.6437 13.62ZM21.1317 30V15.72H24.1557V30H21.1317ZM33.4158 30.448C31.6984 30.448 30.3264 30.0747 29.2998 29.328C28.2731 28.5627 27.5638 27.6573 27.1718 26.612L29.8878 25.436C30.2238 26.2013 30.7091 26.7893 31.3438 27.2C31.9784 27.592 32.6971 27.788 33.4998 27.788C34.2464 27.788 34.8904 27.6573 35.4318 27.396C35.9731 27.116 36.2438 26.668 36.2438 26.052C36.2438 25.4547 35.9731 25.016 35.4318 24.736C34.8904 24.456 34.2184 24.2133 33.4158 24.008L31.7078 23.616C31.0171 23.448 30.3731 23.1867 29.7758 22.832C29.1784 22.4773 28.6931 22.02 28.3198 21.46C27.9464 20.8813 27.7598 20.2093 27.7598 19.444C27.7598 18.604 28.0118 17.876 28.5158 17.26C29.0198 16.6253 29.6824 16.14 30.5038 15.804C31.3438 15.4493 32.2491 15.272 33.2198 15.272C34.5451 15.272 35.7024 15.5333 36.6918 16.056C37.6998 16.56 38.4371 17.3253 38.9038 18.352L36.2998 19.528C35.9638 18.8933 35.5251 18.4547 34.9838 18.212C34.4611 17.9507 33.8824 17.82 33.2478 17.82C32.5384 17.82 31.9411 17.9693 31.4558 18.268C30.9891 18.5667 30.7558 18.94 30.7558 19.388C30.7558 19.8733 30.9611 20.256 31.3718 20.536C31.8011 20.816 32.3238 21.04 32.9398 21.208L35.0118 21.712C36.4304 22.0667 37.4944 22.608 38.2038 23.336C38.9131 24.0453 39.2678 24.9133 39.2678 25.94C39.2678 26.8547 39.0064 27.6573 38.4838 28.348C37.9611 29.02 37.2518 29.5427 36.3558 29.916C35.4784 30.2707 34.4984 30.448 33.4158 30.448ZM46.8237 30.448C45.797 30.448 44.8824 30.252 44.0797 29.86C43.277 29.4493 42.6517 28.88 42.2037 28.152C41.7557 27.424 41.5317 26.5933 41.5317 25.66C41.5317 24.652 41.793 23.7933 42.3157 23.084C42.857 22.356 43.5757 21.8053 44.4717 21.432C45.3677 21.0587 46.357 20.872 47.4397 20.872C48.3357 20.872 49.1197 20.956 49.7917 21.124C50.4824 21.292 51.005 21.4693 51.3597 21.656V20.9C51.3597 19.9667 51.0237 19.22 50.3517 18.66C49.6797 18.1 48.8117 17.82 47.7477 17.82C47.0197 17.82 46.329 17.988 45.6757 18.324C45.0224 18.6413 44.4997 19.08 44.1077 19.64L42.0357 18.044C42.6517 17.1853 43.4637 16.5133 44.4717 16.028C45.4984 15.524 46.6184 15.272 47.8317 15.272C49.9037 15.272 51.4997 15.7853 52.6197 16.812C53.7397 17.82 54.2997 19.2387 54.2997 21.068V30H51.3597V28.236H51.1917C50.8184 28.8147 50.2584 29.328 49.5117 29.776C48.765 30.224 47.869 30.448 46.8237 30.448ZM47.3557 27.984C48.1397 27.984 48.8304 27.7973 49.4277 27.424C50.025 27.0507 50.4917 26.5653 50.8277 25.968C51.1824 25.352 51.3597 24.6893 51.3597 23.98C50.9304 23.7373 50.4264 23.5413 49.8477 23.392C49.269 23.224 48.653 23.14 47.9997 23.14C46.7677 23.14 45.8904 23.392 45.3677 23.896C44.845 24.3813 44.5837 24.9787 44.5837 25.688C44.5837 26.36 44.8357 26.9107 45.3397 27.34C45.8437 27.7693 46.5157 27.984 47.3557 27.984ZM66.5 13.62C65.94 13.62 65.4547 13.424 65.044 13.032C64.652 12.6213 64.456 12.136 64.456 11.576C64.456 11.016 64.652 10.54 65.044 10.148C65.4547 9.756 65.94 9.56 66.5 9.56C67.06 9.56 67.536 9.756 67.928 10.148C68.3387 10.54 68.544 11.016 68.544 11.576C68.544 12.136 68.3387 12.6213 67.928 13.032C67.536 13.424 67.06 13.62 66.5 13.62ZM64.988 30V15.72H68.012V30H64.988Z" fill="#3C4043"/>
<g id="GPay Logo (Light)">
<g id="GPay">
<g id="Pay">
<path id="Fill 1" fill-rule="evenodd" clip-rule="evenodd" d="M120.529 9.44664V17.6128H125.565C126.765 17.6128 127.757 17.2096 128.541 16.4032C129.347 15.5988 129.75 14.6394 129.75 13.5288C129.75 12.4406 129.347 11.4924 128.541 10.686C127.757 9.85915 126.765 9.44478 125.565 9.44478H120.529V9.44664ZM120.529 20.4872V29.9599H117.521V6.57217H125.499C127.527 6.57217 129.248 7.24786 130.666 8.59737C132.105 9.94688 132.824 11.5913 132.824 13.5288C132.824 15.511 132.105 17.1667 130.666 18.4938C129.27 19.8227 127.547 20.4854 125.499 20.4854H120.529V20.4872Z" fill="#5F6368"/>
<path id="Fill 3" fill-rule="evenodd" clip-rule="evenodd" d="M135.864 25.0602C135.864 25.8442 136.197 26.4975 136.862 27.0201C137.527 27.5427 138.306 27.804 139.2 27.804C140.465 27.804 141.591 27.3354 142.584 26.4004C143.576 25.4634 144.071 24.364 144.071 23.1022C143.133 22.3612 141.825 21.9916 140.147 21.9916C138.925 21.9916 137.907 22.2865 137.09 22.8745C136.273 23.4623 135.864 24.1886 135.864 25.0602ZM139.756 13.4317C141.98 13.4317 143.735 14.0252 145.022 15.2124C146.308 16.3995 146.95 18.0271 146.95 20.0952V29.9599H144.073V27.7387H143.942C142.699 29.5677 141.042 30.4825 138.972 30.4825C137.206 30.4825 135.728 29.9599 134.541 28.9146C133.353 27.8694 132.759 26.5628 132.759 24.9949C132.759 23.3393 133.385 22.0232 134.638 21.0434C135.892 20.0635 137.565 19.5726 139.658 19.5726C141.444 19.5726 142.916 19.8992 144.071 20.5525V19.8656C144.071 18.8204 143.656 17.9338 142.829 17.204C141.999 16.4741 141.031 16.1102 139.919 16.1102C138.239 16.1102 136.911 16.8176 135.93 18.2343L133.28 16.5675C134.741 14.4769 136.899 13.4317 139.756 13.4317Z" fill="#5F6368"/>
<path id="Fill 5" fill-rule="evenodd" clip-rule="evenodd" d="M163.463 13.9543L153.424 37.0154H150.318L154.046 28.9464L147.44 13.9543H150.71L155.484 25.4522H155.55L160.193 13.9543H163.463Z" fill="#5F6368"/>
</g>
<g id="G">
<path id="Fill 8" fill-rule="evenodd" clip-rule="evenodd" d="M108.373 18.4452C108.373 17.4989 108.293 16.5861 108.141 15.7126H95.4536V20.8885H102.72C102.408 22.5757 101.465 24.0112 100.033 24.9725V28.3341H104.37C106.91 25.9935 108.373 22.5348 108.373 18.4452Z" fill="#4285F4"/>
<path id="Fill 10" fill-rule="evenodd" clip-rule="evenodd" d="M95.4536 31.5782C99.0843 31.5782 102.141 30.3873 104.37 28.3341L100.033 24.9725C98.8264 25.7844 97.2717 26.2585 95.4536 26.2585C91.9444 26.2585 88.9659 23.8955 87.9009 20.7112H83.4331V24.1736C85.6474 28.5637 90.1973 31.5782 95.4536 31.5782Z" fill="#34A853"/>
<path id="Fill 12" fill-rule="evenodd" clip-rule="evenodd" d="M87.9009 20.7111C87.6281 19.8992 87.4787 19.0331 87.4787 18.139C87.4787 17.245 87.6281 16.3789 87.9009 15.567V12.1045H83.4332C82.5176 13.9188 82 15.9683 82 18.139C82 20.3098 82.5176 22.3595 83.4332 24.1736L87.9009 20.7111Z" fill="#FABB05"/>
<path id="Fill 14" fill-rule="evenodd" clip-rule="evenodd" d="M95.4536 10.0196C97.4362 10.0196 99.2132 10.7009 100.615 12.0355V12.0374L104.455 8.20162C102.123 6.03271 99.0824 4.7 95.4536 4.7C90.1973 4.7 85.6474 7.71446 83.4331 12.1046L87.9009 15.567C88.9659 12.3827 91.9444 10.0196 95.4536 10.0196Z" fill="#E94235"/>
</g>
</g>
</g>
</g>
</svg>
