<svg width="163" height="21" viewBox="0 0 163 21" fill="none" xmlns="http://www.w3.org/2000/svg">
<g id="de_add_to_Pay_NBG">
<path id="Left Text" d="M1.85537 15.0006V3.54461H3.61537V8.31261H8.97537V3.54461H10.7194V15.0006H8.97537V9.97661H3.61537V15.0006H1.85537ZM13.2985 15.0006V6.84061H15.0265V15.0006H13.2985ZM14.1625 5.64061C13.8425 5.64061 13.5652 5.52861 13.3305 5.30461C13.1065 5.06994 12.9945 4.79261 12.9945 4.47261C12.9945 4.14194 13.1065 3.86994 13.3305 3.65661C13.5652 3.43261 13.8425 3.32061 14.1625 3.32061C14.4932 3.32061 14.7705 3.43261 14.9945 3.65661C15.2185 3.86994 15.3305 4.14194 15.3305 4.47261C15.3305 4.79261 15.2185 5.06994 14.9945 5.30461C14.7705 5.52861 14.4932 5.64061 14.1625 5.64061ZM17.3205 15.0006V6.84061H18.9525V7.96061H19.0485C19.2832 7.56594 19.6298 7.24061 20.0885 6.98461C20.5578 6.71794 21.0698 6.58461 21.6245 6.58461C22.6272 6.58461 23.3792 6.88328 23.8805 7.48061C24.3818 8.06728 24.6325 8.85661 24.6325 9.84861V15.0006H22.9205V10.0726C22.9205 9.41128 22.7552 8.93128 22.4245 8.63261C22.0938 8.32328 21.6618 8.16861 21.1285 8.16861C20.7125 8.16861 20.3498 8.28594 20.0405 8.52061C19.7312 8.74461 19.4858 9.04328 19.3045 9.41661C19.1338 9.78994 19.0485 10.1899 19.0485 10.6166V15.0006H17.3205ZM26.3357 15.0006V13.5606L30.8797 8.34461H26.4797V6.84061H32.9917V8.28061L28.4637 13.4966H33.1197V15.0006H26.3357ZM37.8461 15.2566C36.8435 15.2566 36.0861 14.9579 35.5741 14.3606C35.0728 13.7526 34.8221 12.9313 34.8221 11.8966V6.84061H36.5501V11.6566C36.5501 12.3393 36.7101 12.8459 37.0301 13.1766C37.3608 13.5073 37.7715 13.6726 38.2621 13.6726C38.7101 13.6726 39.0941 13.5606 39.4141 13.3366C39.7341 13.1019 39.9795 12.7979 40.1501 12.4246C40.3315 12.0513 40.4221 11.6513 40.4221 11.2246V6.84061H42.1341V15.0006H40.5181V13.8966H40.4221C40.2728 14.1526 40.0648 14.3819 39.7981 14.5846C39.5315 14.7873 39.2328 14.9473 38.9021 15.0646C38.5715 15.1926 38.2195 15.2566 37.8461 15.2566ZM43.8355 8.34461V6.84061H45.3235V6.16861C45.3235 5.58194 45.4462 5.08594 45.6915 4.68061C45.9368 4.26461 46.2728 3.94994 46.6995 3.73661C47.1262 3.52328 47.6008 3.41661 48.1235 3.41661C48.4115 3.41661 48.6568 3.43794 48.8595 3.48061C49.0728 3.51261 49.2488 3.55528 49.3875 3.60861V5.28861C49.2488 5.23528 49.0888 5.18194 48.9075 5.12861C48.7368 5.06461 48.5235 5.03261 48.2675 5.03261C47.9368 5.03261 47.6488 5.14461 47.4035 5.36861C47.1582 5.58194 47.0355 5.89661 47.0355 6.31261V6.84061H49.0835V8.34461H47.0355V15.0006H45.3235V8.34461H43.8355ZM53.693 15.2566C52.6903 15.2566 51.933 14.9579 51.421 14.3606C50.9197 13.7526 50.669 12.9313 50.669 11.8966V6.84061H52.397V11.6566C52.397 12.3393 52.557 12.8459 52.877 13.1766C53.2077 13.5073 53.6183 13.6726 54.109 13.6726C54.557 13.6726 54.941 13.5606 55.261 13.3366C55.581 13.1019 55.8263 12.7979 55.997 12.4246C56.1783 12.0513 56.269 11.6513 56.269 11.2246V6.84061H57.981V15.0006H56.365V13.8966H56.269C56.1197 14.1526 55.9117 14.3819 55.645 14.5846C55.3783 14.7873 55.0797 14.9473 54.749 15.0646C54.4183 15.1926 54.0663 15.2566 53.693 15.2566ZM55.741 5.17661C55.4743 5.17661 55.2397 5.08061 55.037 4.88861C54.845 4.68594 54.749 4.45128 54.749 4.18461C54.749 3.89661 54.845 3.66194 55.037 3.48061C55.2397 3.28861 55.4743 3.19261 55.741 3.19261C56.029 3.19261 56.269 3.28861 56.461 3.48061C56.653 3.66194 56.749 3.89661 56.749 4.18461C56.749 4.45128 56.653 4.68594 56.461 4.88861C56.269 5.08061 56.029 5.17661 55.741 5.17661ZM52.909 5.17661C52.6423 5.17661 52.4077 5.08061 52.205 4.88861C52.013 4.68594 51.917 4.45128 51.917 4.18461C51.917 3.89661 52.013 3.66194 52.205 3.48061C52.4077 3.28861 52.6423 3.19261 52.909 3.19261C53.197 3.19261 53.4317 3.28861 53.613 3.48061C53.805 3.66194 53.901 3.89661 53.901 4.18461C53.901 4.45128 53.805 4.68594 53.613 4.88861C53.4317 5.08061 53.197 5.17661 52.909 5.17661ZM63.7661 18.7126C63.0515 18.7126 62.4328 18.5953 61.9101 18.3606C61.3981 18.1366 60.9821 17.8433 60.6621 17.4806C60.3421 17.1286 60.1128 16.7659 59.9741 16.3926L61.5741 15.7206C61.7448 16.1473 62.0168 16.4939 62.3901 16.7606C62.7741 17.0379 63.2328 17.1766 63.7661 17.1766C64.5235 17.1766 65.1155 16.9526 65.5421 16.5046C65.9688 16.0566 66.1821 15.4219 66.1821 14.6006V13.8166H66.0861C65.8301 14.1899 65.4781 14.4939 65.0301 14.7286C64.5821 14.9633 64.0648 15.0806 63.4781 15.0806C62.7848 15.0806 62.1448 14.9046 61.5581 14.5526C60.9821 14.2006 60.5181 13.7099 60.1661 13.0806C59.8248 12.4406 59.6541 11.6939 59.6541 10.8406C59.6541 9.97661 59.8248 9.22994 60.1661 8.60061C60.5181 7.96061 60.9821 7.46461 61.5581 7.11261C62.1448 6.76061 62.7848 6.58461 63.4781 6.58461C64.0648 6.58461 64.5821 6.70194 65.0301 6.93661C65.4781 7.16061 65.8301 7.46994 66.0861 7.86461H66.1821V6.84061H67.8301V14.5686C67.8301 15.4539 67.6541 16.2059 67.3021 16.8246C66.9608 17.4433 66.4861 17.9126 65.8781 18.2326C65.2701 18.5526 64.5661 18.7126 63.7661 18.7126ZM63.7821 13.5126C64.2088 13.5126 64.6035 13.4113 64.9661 13.2086C65.3395 12.9953 65.6328 12.6913 65.8461 12.2966C66.0701 11.8913 66.1821 11.4059 66.1821 10.8406C66.1821 10.2433 66.0701 9.74728 65.8461 9.35261C65.6328 8.95794 65.3395 8.65928 64.9661 8.45661C64.6035 8.25394 64.2088 8.15261 63.7821 8.15261C63.3555 8.15261 62.9555 8.25394 62.5821 8.45661C62.2195 8.65928 61.9261 8.96328 61.7021 9.36861C61.4781 9.76328 61.3661 10.2539 61.3661 10.8406C61.3661 11.4166 61.4781 11.9073 61.7021 12.3126C61.9261 12.7073 62.2195 13.0059 62.5821 13.2086C62.9555 13.4113 63.3555 13.5126 63.7821 13.5126ZM73.6516 15.2566C72.8516 15.2566 72.137 15.0699 71.5076 14.6966C70.8783 14.3233 70.3823 13.8113 70.0196 13.1606C69.6676 12.5099 69.4916 11.7686 69.4916 10.9366C69.4916 10.1579 69.6623 9.43794 70.0036 8.77661C70.345 8.11528 70.8196 7.58728 71.4276 7.19261C72.0463 6.78728 72.7556 6.58461 73.5556 6.58461C74.3983 6.58461 75.113 6.76594 75.6996 7.12861C76.297 7.49128 76.7503 7.98728 77.0596 8.61661C77.369 9.24594 77.5236 9.95528 77.5236 10.7446C77.5236 10.8619 77.5183 10.9686 77.5076 11.0646C77.5076 11.1606 77.5023 11.2353 77.4916 11.2886H71.1876C71.2303 11.7366 71.3423 12.1259 71.5236 12.4566C71.7583 12.8726 72.0676 13.1873 72.4516 13.4006C72.8356 13.6139 73.2516 13.7206 73.6996 13.7206C74.2436 13.7206 74.697 13.5979 75.0596 13.3526C75.433 13.0966 75.7263 12.7819 75.9396 12.4086L77.3636 13.0966C77.0116 13.7366 76.5316 14.2593 75.9236 14.6646C75.3156 15.0593 74.5583 15.2566 73.6516 15.2566ZM71.2836 9.99261H75.8116C75.801 9.78994 75.7476 9.57661 75.6516 9.35261C75.5556 9.11794 75.417 8.90461 75.2356 8.71261C75.0543 8.52061 74.825 8.36594 74.5476 8.24861C74.2703 8.12061 73.945 8.05661 73.5716 8.05661C73.1023 8.05661 72.6863 8.17928 72.3236 8.42461C71.961 8.65928 71.6783 8.98994 71.4756 9.41661C71.3903 9.59794 71.3263 9.78994 71.2836 9.99261ZM79.2767 15.0006V6.84061H80.9087V7.96061H81.0047C81.2394 7.56594 81.5861 7.24061 82.0447 6.98461C82.5141 6.71794 83.0261 6.58461 83.5807 6.58461C84.5834 6.58461 85.3354 6.88328 85.8367 7.48061C86.3381 8.06728 86.5887 8.85661 86.5887 9.84861V15.0006H84.8767V10.0726C84.8767 9.41128 84.7114 8.93128 84.3807 8.63261C84.0501 8.32328 83.6181 8.16861 83.0847 8.16861C82.6687 8.16861 82.3061 8.28594 81.9967 8.52061C81.6874 8.74461 81.4421 9.04328 81.2607 9.41661C81.0901 9.78994 81.0047 10.1899 81.0047 10.6166V15.0006H79.2767ZM92.1764 15.0006V13.5606L96.7204 8.34461H92.3204V6.84061H98.8324V8.28061L94.3044 13.4966H98.9604V15.0006H92.1764ZM103.687 15.2566C102.684 15.2566 101.927 14.9579 101.415 14.3606C100.913 13.7526 100.663 12.9313 100.663 11.8966V6.84061H102.391V11.6566C102.391 12.3393 102.551 12.8459 102.871 13.1766C103.201 13.5073 103.612 13.6726 104.103 13.6726C104.551 13.6726 104.935 13.5606 105.255 13.3366C105.575 13.1019 105.82 12.7979 105.991 12.4246C106.172 12.0513 106.263 11.6513 106.263 11.2246V6.84061H107.975V15.0006H106.359V13.8966H106.263C106.113 14.1526 105.905 14.3819 105.639 14.5846C105.372 14.7873 105.073 14.9473 104.743 15.0646C104.412 15.1926 104.06 15.2566 103.687 15.2566Z" fill="white"/>
<g id="GPay (Dark)">
<g id="GPay">
<g id="Pay">
<path id="Fill 1" fill-rule="evenodd" clip-rule="evenodd" d="M137.356 3.42339V8.16175H140.278C140.974 8.16175 141.55 7.92781 142.005 7.45993C142.473 6.99313 142.707 6.43644 142.707 5.79203C142.707 5.16061 142.473 4.61041 142.005 4.14254C141.55 3.66274 140.974 3.4223 140.278 3.4223H137.356V3.42339ZM137.356 9.82966V15.3262H135.611V1.75549H140.24C141.417 1.75549 142.415 2.14756 143.238 2.93061C144.073 3.71365 144.491 4.66782 144.491 5.79203C144.491 6.94224 144.073 7.90291 143.238 8.67296C142.428 9.44409 141.429 9.82858 140.24 9.82858H137.356V9.82966Z" fill="white"/>
<path id="Fill 3" fill-rule="evenodd" clip-rule="evenodd" d="M146.255 12.4831C146.255 12.9379 146.448 13.317 146.834 13.6203C147.22 13.9235 147.672 14.0752 148.19 14.0752C148.924 14.0752 149.578 13.8032 150.153 13.2607C150.729 12.717 151.017 12.0791 151.017 11.3469C150.472 10.917 149.713 10.7025 148.74 10.7025C148.031 10.7025 147.44 10.8736 146.966 11.2148C146.492 11.5559 146.255 11.9773 146.255 12.4831M148.513 5.73566C149.803 5.73566 150.821 6.08007 151.569 6.76889C152.314 7.45771 152.687 8.40213 152.687 9.60216V15.3261H151.018V14.0373H150.942C150.221 15.0985 149.259 15.6294 148.058 15.6294C147.033 15.6294 146.176 15.3261 145.487 14.7196C144.797 14.1131 144.453 13.3549 144.453 12.4452C144.453 11.4845 144.816 10.7208 145.543 10.1523C146.271 9.58375 147.241 9.2989 148.456 9.2989C149.492 9.2989 150.346 9.48844 151.017 9.86751V9.46894C151.017 8.86243 150.776 8.34798 150.296 7.92451C149.814 7.50103 149.252 7.28984 148.607 7.28984C147.633 7.28984 146.862 7.70032 146.293 8.52235L144.755 7.55519C145.603 6.34217 146.855 5.73566 148.513 5.73566" fill="white"/>
<path id="Fill 5" fill-rule="evenodd" clip-rule="evenodd" d="M162.269 6.03894L156.443 19.4201H154.641L156.804 14.738L152.971 6.03894H154.869L157.639 12.7106H157.677L160.371 6.03894H162.269Z" fill="white"/>
</g>
<g id="G">
<path id="Fill 8" fill-rule="evenodd" clip-rule="evenodd" d="M130.303 8.64473C130.303 8.09563 130.256 7.56601 130.168 7.05914H122.806V10.0625H127.023C126.842 11.0414 126.294 11.8744 125.464 12.4322V14.3828H127.98C129.454 13.0246 130.303 11.0177 130.303 8.64473" fill="#4285F4"/>
<path id="Fill 10" fill-rule="evenodd" clip-rule="evenodd" d="M122.806 16.2651C124.913 16.2651 126.687 15.5741 127.98 14.3828L125.464 12.4322C124.763 12.9033 123.861 13.1784 122.806 13.1784C120.77 13.1784 119.042 11.8073 118.424 9.95959H115.832V11.9687C117.116 14.516 119.757 16.2651 122.806 16.2651" fill="#34A853"/>
<path id="Fill 12" fill-rule="evenodd" clip-rule="evenodd" d="M118.424 9.9596C118.266 9.48847 118.179 8.98593 118.179 8.46715C118.179 7.94837 118.266 7.44583 118.424 6.9747V4.96564H115.832C115.3 6.01837 115 7.20756 115 8.46715C115 9.72674 115.3 10.916 115.832 11.9687L118.424 9.9596Z" fill="#FABB05"/>
<path id="Fill 14" fill-rule="evenodd" clip-rule="evenodd" d="M122.806 3.75583C123.957 3.75583 124.988 4.15115 125.801 4.92553V4.92661L128.029 2.70094C126.676 1.44243 124.912 0.669128 122.806 0.669128C119.757 0.669128 117.116 2.41826 115.832 4.9656L118.424 6.97467C119.042 5.12698 120.77 3.75583 122.806 3.75583" fill="#E94235"/>
</g>
</g>
</g>
</g>
</svg>
