<svg width="250" height="38" viewBox="0 0 250 38" fill="none" xmlns="http://www.w3.org/2000/svg">
<g id="de_book_with_Light">
<path id="Left Text" d="M3.14847 30V9.952H7.29247L13.1445 25.212H13.3125L19.1925 9.952H23.3365V30H20.3125V18.66L20.4805 15.104H20.3125L14.4605 30H12.0245L6.17247 15.104H6.00447L6.17247 18.66V30H3.14847ZM29.3992 13.62C28.8392 13.62 28.3539 13.424 27.9432 13.032C27.5512 12.6213 27.3552 12.136 27.3552 11.576C27.3552 11.016 27.5512 10.54 27.9432 10.148C28.3539 9.756 28.8392 9.56 29.3992 9.56C29.9592 9.56 30.4352 9.756 30.8272 10.148C31.2379 10.54 31.4432 11.016 31.4432 11.576C31.4432 12.136 31.2379 12.6213 30.8272 13.032C30.4352 13.424 29.9592 13.62 29.3992 13.62ZM27.8872 30V15.72H30.9112V30H27.8872ZM36.3385 25.856V18.352H33.8465V15.72H36.3385V11.688H39.3625V15.72H42.8625V18.352H39.3625V25.212C39.3625 25.9213 39.5025 26.4627 39.7825 26.836C40.0812 27.2093 40.5758 27.396 41.2665 27.396C41.6212 27.396 41.9198 27.3493 42.1625 27.256C42.4238 27.1627 42.6852 27.032 42.9465 26.864V29.804C42.6292 29.9347 42.2932 30.0373 41.9385 30.112C41.5838 30.1867 41.1638 30.224 40.6785 30.224C39.3532 30.224 38.2985 29.8413 37.5145 29.076C36.7305 28.292 36.3385 27.2187 36.3385 25.856Z" fill="#3C4043"/>
<g id="GPay Logo (Light)">
<g id="GPay">
<g id="Pay">
<path id="Fill 1" fill-rule="evenodd" clip-rule="evenodd" d="M94.5289 9.44664V17.6128H99.5649C100.765 17.6128 101.757 17.2096 102.541 16.4032C103.347 15.5988 103.75 14.6394 103.75 13.5288C103.75 12.4406 103.347 11.4924 102.541 10.686C101.757 9.85915 100.765 9.44478 99.5649 9.44478H94.5289V9.44664ZM94.5289 20.4872V29.9599H91.5205V6.57217H99.4993C101.527 6.57217 103.248 7.24786 104.666 8.59737C106.105 9.94688 106.824 11.5913 106.824 13.5288C106.824 15.511 106.105 17.1667 104.666 18.4938C103.27 19.8227 101.547 20.4854 99.4993 20.4854H94.5289V20.4872Z" fill="#5F6368"/>
<path id="Fill 3" fill-rule="evenodd" clip-rule="evenodd" d="M109.864 25.0602C109.864 25.8442 110.197 26.4975 110.862 27.0201C111.527 27.5427 112.306 27.804 113.2 27.804C114.465 27.804 115.591 27.3354 116.584 26.4004C117.576 25.4634 118.071 24.364 118.071 23.1022C117.133 22.3612 115.825 21.9916 114.147 21.9916C112.925 21.9916 111.907 22.2865 111.09 22.8745C110.273 23.4623 109.864 24.1886 109.864 25.0602ZM113.756 13.4317C115.98 13.4317 117.735 14.0252 119.022 15.2124C120.308 16.3995 120.95 18.0271 120.95 20.0952V29.9599H118.073V27.7387H117.942C116.699 29.5677 115.042 30.4825 112.972 30.4825C111.206 30.4825 109.728 29.9599 108.541 28.9146C107.353 27.8694 106.759 26.5628 106.759 24.9949C106.759 23.3393 107.385 22.0232 108.638 21.0434C109.892 20.0635 111.565 19.5726 113.658 19.5726C115.444 19.5726 116.916 19.8992 118.071 20.5525V19.8656C118.071 18.8204 117.656 17.9338 116.829 17.204C115.999 16.4741 115.031 16.1102 113.919 16.1102C112.239 16.1102 110.911 16.8176 109.93 18.2343L107.28 16.5675C108.741 14.4769 110.899 13.4317 113.756 13.4317Z" fill="#5F6368"/>
<path id="Fill 5" fill-rule="evenodd" clip-rule="evenodd" d="M137.463 13.9543L127.423 37.0154H124.318L128.046 28.9464L121.44 13.9543H124.71L129.484 25.4522H129.55L134.193 13.9543H137.463Z" fill="#5F6368"/>
</g>
<g id="G">
<path id="Fill 8" fill-rule="evenodd" clip-rule="evenodd" d="M82.3729 18.4452C82.3729 17.4989 82.2926 16.5861 82.1412 15.7126H69.4536V20.8885H76.7205C76.4084 22.5757 75.4648 24.0112 74.0335 24.9725V28.3341H78.3704C80.9098 25.9935 82.3729 22.5348 82.3729 18.4452Z" fill="#4285F4"/>
<path id="Fill 10" fill-rule="evenodd" clip-rule="evenodd" d="M69.4536 31.5782C73.0843 31.5782 76.1412 30.3873 78.3704 28.3341L74.0335 24.9725C72.8264 25.7844 71.2717 26.2585 69.4536 26.2585C65.9444 26.2585 62.9659 23.8955 61.9009 20.7112H57.4331V24.1736C59.6474 28.5637 64.1973 31.5782 69.4536 31.5782Z" fill="#34A853"/>
<path id="Fill 12" fill-rule="evenodd" clip-rule="evenodd" d="M61.9009 20.7111C61.6281 19.8992 61.4787 19.0331 61.4787 18.139C61.4787 17.245 61.6281 16.3789 61.9009 15.567V12.1045H57.4332C56.5176 13.9188 56 15.9683 56 18.139C56 20.3098 56.5176 22.3595 57.4332 24.1736L61.9009 20.7111Z" fill="#FABB05"/>
<path id="Fill 14" fill-rule="evenodd" clip-rule="evenodd" d="M69.4536 10.0196C71.4362 10.0196 73.2132 10.7009 74.6146 12.0355V12.0374L78.4545 8.20162C76.1226 6.03271 73.0824 4.7 69.4536 4.7C64.1973 4.7 59.6474 7.71446 57.4331 12.1046L61.9009 15.567C62.9659 12.3827 65.9444 10.0196 69.4536 10.0196Z" fill="#E94235"/>
</g>
</g>
</g>
<path id="Right Text" d="M158.38 30.448C157.279 30.448 156.327 30.2147 155.524 29.748C154.74 29.2627 154.161 28.712 153.788 28.096H153.62V30H150.764V9.952H153.788V15.664L153.62 17.652H153.788C154.161 17.036 154.74 16.4853 155.524 16C156.327 15.5147 157.279 15.272 158.38 15.272C159.687 15.272 160.853 15.5987 161.88 16.252C162.907 16.9053 163.719 17.8013 164.316 18.94C164.932 20.0787 165.24 21.3853 165.24 22.86C165.24 24.3347 164.932 25.6507 164.316 26.808C163.719 27.9467 162.907 28.8427 161.88 29.496C160.853 30.1307 159.687 30.448 158.38 30.448ZM157.932 27.676C158.679 27.676 159.379 27.48 160.032 27.088C160.685 26.696 161.217 26.1453 161.628 25.436C162.039 24.708 162.244 23.8493 162.244 22.86C162.244 21.8707 162.039 21.0213 161.628 20.312C161.217 19.584 160.685 19.024 160.032 18.632C159.379 18.24 158.679 18.044 157.932 18.044C157.185 18.044 156.485 18.24 155.832 18.632C155.179 19.024 154.647 19.584 154.236 20.312C153.825 21.0213 153.62 21.8707 153.62 22.86C153.62 23.8493 153.825 24.708 154.236 25.436C154.647 26.1453 155.179 26.696 155.832 27.088C156.485 27.48 157.185 27.676 157.932 27.676ZM173.361 30.448C171.607 30.448 170.281 29.9253 169.385 28.88C168.508 27.816 168.069 26.3787 168.069 24.568V15.72H171.093V24.148C171.093 25.3613 171.373 26.2573 171.933 26.836C172.512 27.396 173.231 27.676 174.089 27.676C174.855 27.676 175.517 27.48 176.077 27.088C176.656 26.6773 177.095 26.1547 177.393 25.52C177.711 24.8667 177.869 24.1573 177.869 23.392V15.72H180.865V30H178.037V28.068H177.869C177.459 28.74 176.843 29.3093 176.021 29.776C175.219 30.224 174.332 30.448 173.361 30.448ZM191.195 30.448C189.757 30.448 188.488 30.1213 187.387 29.468C186.285 28.8147 185.417 27.9187 184.783 26.78C184.148 25.6227 183.831 24.316 183.831 22.86C183.831 21.404 184.148 20.1067 184.783 18.968C185.417 17.8107 186.285 16.9053 187.387 16.252C188.488 15.5987 189.757 15.272 191.195 15.272C192.781 15.272 194.116 15.6267 195.199 16.336C196.3 17.0453 197.084 18.0067 197.551 19.22L194.807 20.34C194.153 18.8093 192.931 18.044 191.139 18.044C190.355 18.044 189.636 18.2493 188.983 18.66C188.329 19.052 187.807 19.612 187.415 20.34C187.023 21.0493 186.827 21.8893 186.827 22.86C186.827 23.8307 187.023 24.68 187.415 25.408C187.807 26.136 188.329 26.696 188.983 27.088C189.636 27.48 190.355 27.676 191.139 27.676C192.053 27.676 192.828 27.4707 193.463 27.06C194.097 26.6307 194.592 26.052 194.947 25.324L197.635 26.5C197.131 27.6387 196.328 28.5813 195.227 29.328C194.125 30.0747 192.781 30.448 191.195 30.448ZM200.527 30V9.952H203.551V15.44L203.383 17.68H203.551C203.943 16.9893 204.541 16.42 205.343 15.972C206.165 15.5053 207.07 15.272 208.059 15.272C209.833 15.272 211.167 15.804 212.063 16.868C212.959 17.9133 213.407 19.2853 213.407 20.984V30H210.411V21.376C210.411 20.2187 210.103 19.3787 209.487 18.856C208.89 18.3147 208.153 18.044 207.275 18.044C206.547 18.044 205.903 18.2493 205.343 18.66C204.783 19.0707 204.345 19.612 204.027 20.284C203.71 20.9373 203.551 21.6373 203.551 22.384V30H200.527ZM223.675 30.448C222.275 30.448 221.025 30.1213 219.923 29.468C218.822 28.8147 217.954 27.9187 217.319 26.78C216.703 25.6413 216.395 24.344 216.395 22.888C216.395 21.5253 216.694 20.2653 217.291 19.108C217.889 17.9507 218.719 17.0267 219.783 16.336C220.866 15.6267 222.107 15.272 223.507 15.272C224.982 15.272 226.233 15.5893 227.259 16.224C228.305 16.8587 229.098 17.7267 229.639 18.828C230.181 19.9293 230.451 21.1707 230.451 22.552C230.451 22.7573 230.442 22.944 230.423 23.112C230.423 23.28 230.414 23.4107 230.395 23.504H219.363C219.513 24.9227 220.007 25.9867 220.847 26.696C221.706 27.4053 222.677 27.76 223.759 27.76C224.73 27.76 225.533 27.5453 226.167 27.116C226.802 26.668 227.306 26.1173 227.679 25.464L230.171 26.668C229.555 27.788 228.715 28.7027 227.651 29.412C226.587 30.1027 225.262 30.448 223.675 30.448ZM223.535 17.848C222.527 17.848 221.669 18.156 220.959 18.772C220.25 19.388 219.774 20.2093 219.531 21.236H227.455C227.418 20.7507 227.259 20.2467 226.979 19.724C226.699 19.2013 226.27 18.7627 225.691 18.408C225.131 18.0347 224.413 17.848 223.535 17.848ZM233.557 30V15.72H236.413V17.68H236.581C236.992 16.9893 237.598 16.42 238.401 15.972C239.222 15.5053 240.118 15.272 241.089 15.272C242.844 15.272 244.16 15.7947 245.037 16.84C245.914 17.8853 246.353 19.2667 246.353 20.984V30H243.357V21.376C243.357 20.2187 243.068 19.3787 242.489 18.856C241.91 18.3147 241.154 18.044 240.221 18.044C239.493 18.044 238.858 18.2493 238.317 18.66C237.776 19.052 237.346 19.5747 237.029 20.228C236.73 20.8813 236.581 21.5813 236.581 22.328V30H233.557Z" fill="#3C4043"/>
</g>
</svg>
