<svg width="142" height="21" viewBox="0 0 142 21" fill="none" xmlns="http://www.w3.org/2000/svg">
<g id="de_book_with_Pay_NBG">
<path id="Left Text" d="M1.69913 15.0006V3.54461H4.06713L7.41113 12.2646H7.50713L10.8671 3.54461H13.2351V15.0006H11.5071V8.52061L11.6031 6.48861H11.5071L8.16313 15.0006H6.77113L3.42713 6.48861H3.33113L3.42713 8.52061V15.0006H1.69913ZM15.8141 15.0006V6.84061H17.5421V15.0006H15.8141ZM16.6781 5.64061C16.3581 5.64061 16.0808 5.52861 15.8461 5.30461C15.6221 5.06994 15.5101 4.79261 15.5101 4.47261C15.5101 4.14194 15.6221 3.86994 15.8461 3.65661C16.0808 3.43261 16.3581 3.32061 16.6781 3.32061C17.0088 3.32061 17.2861 3.43261 17.5101 3.65661C17.7341 3.86994 17.8461 4.14194 17.8461 4.47261C17.8461 4.79261 17.7341 5.06994 17.5101 5.30461C17.2861 5.52861 17.0088 5.64061 16.6781 5.64061ZM19.198 6.84061H20.622V4.53661H22.35V6.84061H24.35V8.34461H22.35V12.2646C22.35 12.6699 22.43 12.9793 22.59 13.1926C22.7607 13.4059 23.0433 13.5126 23.438 13.5126C23.63 13.5126 23.8007 13.4859 23.95 13.4326C24.0993 13.3686 24.2487 13.2939 24.398 13.2086V14.8886C24.2167 14.9633 24.0247 15.0219 23.822 15.0646C23.6193 15.1073 23.3793 15.1286 23.102 15.1286C22.3447 15.1286 21.742 14.9099 21.294 14.4726C20.846 14.0246 20.622 13.4113 20.622 12.6326V8.34461H19.198V6.84061Z" fill="white"/>
<g id="GPay (Dark)">
<g id="GPay">
<g id="Pay">
<path id="Fill 1" fill-rule="evenodd" clip-rule="evenodd" d="M53.3563 3.42339V8.16175H56.2784C56.9745 8.16175 57.5501 7.92781 58.0055 7.45993C58.4728 6.99313 58.707 6.43644 58.707 5.79203C58.707 5.16061 58.4728 4.61041 58.0055 4.14254C57.5501 3.66274 56.9745 3.4223 56.2784 3.4223H53.3563V3.42339ZM53.3563 9.82966V15.3262H51.6107V1.75549H56.2404C57.4169 1.75549 58.4154 2.14756 59.2383 2.93061C60.0732 3.71365 60.4906 4.66782 60.4906 5.79203C60.4906 6.94224 60.0731 7.90291 59.2383 8.67296C58.4283 9.44409 57.4287 9.82858 56.2404 9.82858H53.3563V9.82966Z" fill="white"/>
<path id="Fill 3" fill-rule="evenodd" clip-rule="evenodd" d="M62.2546 12.4831C62.2546 12.9379 62.4476 13.317 62.8337 13.6203C63.2195 13.9235 63.6717 14.0752 64.19 14.0752C64.9239 14.0752 65.5777 13.8032 66.1535 13.2607C66.7293 12.717 67.0165 12.0791 67.0165 11.3469C66.4722 10.917 65.7133 10.7025 64.7396 10.7025C64.0306 10.7025 63.4397 10.8736 62.9659 11.2148C62.492 11.5559 62.2546 11.9773 62.2546 12.4831M64.513 5.73566C65.8033 5.73566 66.8214 6.08007 67.5685 6.76889C68.3145 7.45771 68.6873 8.40213 68.6873 9.60216V15.3261H67.0177V14.0373H66.9417C66.2207 15.0985 65.259 15.6294 64.0578 15.6294C63.0332 15.6294 62.1755 15.3261 61.4869 14.7196C60.7975 14.1131 60.4527 13.3549 60.4527 12.4452C60.4527 11.4845 60.8158 10.7208 61.5433 10.1523C62.2708 9.58375 63.2413 9.2989 64.4557 9.2989C65.4921 9.2989 66.3465 9.48844 67.0165 9.86751V9.46894C67.0165 8.86243 66.7758 8.34798 66.2956 7.92451C65.8141 7.50103 65.2525 7.28984 64.6074 7.28984C63.6326 7.28984 62.8618 7.70032 62.2926 8.52235L60.7551 7.55519C61.6029 6.34217 62.8552 5.73566 64.513 5.73566" fill="white"/>
<path id="Fill 5" fill-rule="evenodd" clip-rule="evenodd" d="M78.2687 6.03894L72.4432 19.4201H70.6411L72.8043 14.738L68.9714 6.03894H70.8688L73.639 12.7106H73.677L76.3713 6.03894H78.2687Z" fill="white"/>
</g>
<g id="G">
<path id="Fill 8" fill-rule="evenodd" clip-rule="evenodd" d="M46.3029 8.64473C46.3029 8.09563 46.2562 7.56601 46.1684 7.05914H38.8065V10.0625H43.0231C42.842 11.0414 42.2944 11.8744 41.4639 12.4322V14.3828H43.9804C45.4539 13.0246 46.3029 11.0177 46.3029 8.64473" fill="#4285F4"/>
<path id="Fill 10" fill-rule="evenodd" clip-rule="evenodd" d="M38.8065 16.2651C40.9131 16.2651 42.6869 15.5741 43.9804 14.3828L41.4639 12.4322C40.7635 12.9033 39.8614 13.1784 38.8065 13.1784C36.7703 13.1784 35.042 11.8073 34.424 9.95959H31.8316V11.9687C33.1164 14.516 35.7565 16.2651 38.8065 16.2651" fill="#34A853"/>
<path id="Fill 12" fill-rule="evenodd" clip-rule="evenodd" d="M34.424 9.9596C34.2657 9.48847 34.179 8.98593 34.179 8.46715C34.179 7.94837 34.2657 7.44583 34.424 6.9747V4.96564H31.8316C31.3003 6.01837 31 7.20756 31 8.46715C31 9.72674 31.3003 10.916 31.8316 11.9687L34.424 9.9596Z" fill="#FABB05"/>
<path id="Fill 14" fill-rule="evenodd" clip-rule="evenodd" d="M38.8065 3.75583C39.9568 3.75583 40.9879 4.15115 41.8011 4.92553V4.92661L44.0292 2.70094C42.6761 1.44243 40.912 0.669128 38.8065 0.669128C35.7565 0.669128 33.1164 2.41826 31.8316 4.9656L34.424 6.97467C35.042 5.12698 36.7703 3.75583 38.8065 3.75583" fill="#E94235"/>
</g>
</g>
</g>
<path id="Right Text" d="M90.01 15.2566C89.594 15.2566 89.2153 15.1926 88.874 15.0646C88.5327 14.9366 88.234 14.7713 87.978 14.5686C87.7327 14.3553 87.5353 14.1366 87.386 13.9126H87.29V15.0006H85.658V3.54461H87.386V6.80861L87.29 7.94461H87.386C87.5353 7.70994 87.7327 7.49128 87.978 7.28861C88.234 7.07528 88.5327 6.90461 88.874 6.77661C89.2153 6.64861 89.594 6.58461 90.01 6.58461C90.7567 6.58461 91.4233 6.77128 92.01 7.14461C92.5967 7.51794 93.0607 8.02994 93.402 8.68061C93.754 9.33128 93.93 10.0779 93.93 10.9206C93.93 11.7633 93.754 12.5099 93.402 13.1606C93.0607 13.8113 92.5967 14.3233 92.01 14.6966C91.4233 15.0699 90.7567 15.2566 90.01 15.2566ZM89.754 13.6726C90.1807 13.6726 90.5807 13.5606 90.954 13.3366C91.338 13.1126 91.642 12.7926 91.866 12.3766C92.1007 11.9606 92.218 11.4753 92.218 10.9206C92.218 10.3553 92.1007 9.86994 91.866 9.46461C91.642 9.04861 91.338 8.72861 90.954 8.50461C90.5807 8.28061 90.1807 8.16861 89.754 8.16861C89.3273 8.16861 88.9273 8.28061 88.554 8.50461C88.1807 8.72861 87.8767 9.04861 87.642 9.46461C87.4073 9.86994 87.29 10.3553 87.29 10.9206C87.29 11.4859 87.4073 11.9766 87.642 12.3926C87.8767 12.7979 88.1807 13.1126 88.554 13.3366C88.9273 13.5606 89.3273 13.6726 89.754 13.6726ZM98.5492 15.2566C97.5466 15.2566 96.7892 14.9579 96.2772 14.3606C95.7759 13.7526 95.5252 12.9313 95.5252 11.8966V6.84061H97.2532V11.6566C97.2532 12.3393 97.4132 12.8459 97.7332 13.1766C98.0639 13.5073 98.4746 13.6726 98.9652 13.6726C99.4132 13.6726 99.7972 13.5606 100.117 13.3366C100.437 13.1019 100.683 12.7979 100.853 12.4246C101.035 12.0513 101.125 11.6513 101.125 11.2246V6.84061H102.837V15.0006H101.221V13.8966H101.125C100.976 14.1526 100.768 14.3819 100.501 14.5846C100.235 14.7873 99.9359 14.9473 99.6052 15.0646C99.2746 15.1926 98.9226 15.2566 98.5492 15.2566ZM108.718 15.2566C107.897 15.2566 107.166 15.0699 106.526 14.6966C105.897 14.3233 105.401 13.8113 105.038 13.1606C104.686 12.4993 104.51 11.7526 104.51 10.9206C104.51 10.0886 104.686 9.34728 105.038 8.69661C105.401 8.04594 105.897 7.53394 106.526 7.16061C107.166 6.77661 107.897 6.58461 108.718 6.58461C109.625 6.58461 110.388 6.78728 111.006 7.19261C111.636 7.59794 112.084 8.14728 112.35 8.84061L110.782 9.48061C110.59 9.04328 110.313 8.71794 109.95 8.50461C109.598 8.28061 109.177 8.16861 108.686 8.16861C108.238 8.16861 107.828 8.28594 107.454 8.52061C107.081 8.74461 106.782 9.05928 106.558 9.46461C106.334 9.86994 106.222 10.3553 106.222 10.9206C106.222 11.4753 106.334 11.9606 106.558 12.3766C106.782 12.7926 107.081 13.1126 107.454 13.3366C107.828 13.5606 108.238 13.6726 108.686 13.6726C109.209 13.6726 109.652 13.5553 110.014 13.3206C110.377 13.0859 110.66 12.7553 110.862 12.3286L112.398 13.0006C112.1 13.6513 111.636 14.1899 111.006 14.6166C110.388 15.0433 109.625 15.2566 108.718 15.2566ZM114.03 15.0006V3.54461H115.758V6.68061L115.662 7.96061H115.758C115.982 7.56594 116.323 7.24061 116.782 6.98461C117.251 6.71794 117.769 6.58461 118.334 6.58461C119.017 6.58461 119.582 6.72328 120.03 7.00061C120.489 7.27794 120.83 7.66194 121.054 8.15261C121.278 8.63261 121.39 9.19794 121.39 9.84861V15.0006H119.678V10.0726C119.678 9.63528 119.593 9.27794 119.422 9.00061C119.262 8.72328 119.049 8.51528 118.782 8.37661C118.515 8.23794 118.217 8.16861 117.886 8.16861C117.47 8.16861 117.102 8.28594 116.782 8.52061C116.462 8.75528 116.211 9.06461 116.03 9.44861C115.849 9.82194 115.758 10.2219 115.758 10.6486V15.0006H114.03ZM127.236 15.2566C126.436 15.2566 125.721 15.0699 125.092 14.6966C124.463 14.3233 123.967 13.8113 123.604 13.1606C123.252 12.5099 123.076 11.7686 123.076 10.9366C123.076 10.1579 123.247 9.43794 123.588 8.77661C123.929 8.11528 124.404 7.58728 125.012 7.19261C125.631 6.78728 126.34 6.58461 127.14 6.58461C127.983 6.58461 128.697 6.76594 129.284 7.12861C129.881 7.49128 130.335 7.98728 130.644 8.61661C130.953 9.24594 131.108 9.95528 131.108 10.7446C131.108 10.8619 131.103 10.9686 131.092 11.0646C131.092 11.1606 131.087 11.2353 131.076 11.2886H124.772C124.815 11.7366 124.927 12.1259 125.108 12.4566C125.343 12.8726 125.652 13.1873 126.036 13.4006C126.42 13.6139 126.836 13.7206 127.284 13.7206C127.828 13.7206 128.281 13.5979 128.644 13.3526C129.017 13.0966 129.311 12.7819 129.524 12.4086L130.948 13.0966C130.596 13.7366 130.116 14.2593 129.508 14.6646C128.9 15.0593 128.143 15.2566 127.236 15.2566ZM124.868 9.99261H129.396C129.385 9.78994 129.332 9.57661 129.236 9.35261C129.14 9.11794 129.001 8.90461 128.82 8.71261C128.639 8.52061 128.409 8.36594 128.132 8.24861C127.855 8.12061 127.529 8.05661 127.156 8.05661C126.687 8.05661 126.271 8.17928 125.908 8.42461C125.545 8.65928 125.263 8.98994 125.06 9.41661C124.975 9.59794 124.911 9.78994 124.868 9.99261ZM132.861 15.0006V6.84061H134.493V7.96061H134.589C134.824 7.56594 135.17 7.24061 135.629 6.98461C136.098 6.71794 136.61 6.58461 137.165 6.58461C138.168 6.58461 138.92 6.88328 139.421 7.48061C139.922 8.06728 140.173 8.85661 140.173 9.84861V15.0006H138.461V10.0726C138.461 9.41128 138.296 8.93128 137.965 8.63261C137.634 8.32328 137.202 8.16861 136.669 8.16861C136.253 8.16861 135.89 8.28594 135.581 8.52061C135.272 8.74461 135.026 9.04328 134.845 9.41661C134.674 9.78994 134.589 10.1899 134.589 10.6166V15.0006H132.861Z" fill="white"/>
</g>
</svg>
