<svg width="137" height="21" viewBox="0 0 137 21" fill="none" xmlns="http://www.w3.org/2000/svg">
<g id="de_buy_with_Pay_NBG">
<path id="Left Text" d="M1.69913 15.0006V3.54461H4.06713L7.41113 12.2646H7.50713L10.8671 3.54461H13.2351V15.0006H11.5071V8.52061L11.6031 6.48861H11.5071L8.16313 15.0006H6.77113L3.42713 6.48861H3.33113L3.42713 8.52061V15.0006H1.69913ZM15.8141 15.0006V6.84061H17.5421V15.0006H15.8141ZM16.6781 5.64061C16.3581 5.64061 16.0808 5.52861 15.8461 5.30461C15.6221 5.06994 15.5101 4.79261 15.5101 4.47261C15.5101 4.14194 15.6221 3.86994 15.8461 3.65661C16.0808 3.43261 16.3581 3.32061 16.6781 3.32061C17.0088 3.32061 17.2861 3.43261 17.5101 3.65661C17.7341 3.86994 17.8461 4.14194 17.8461 4.47261C17.8461 4.79261 17.7341 5.06994 17.5101 5.30461C17.2861 5.52861 17.0088 5.64061 16.6781 5.64061ZM19.198 6.84061H20.622V4.53661H22.35V6.84061H24.35V8.34461H22.35V12.2646C22.35 12.6699 22.43 12.9793 22.59 13.1926C22.7607 13.4059 23.0433 13.5126 23.438 13.5126C23.63 13.5126 23.8007 13.4859 23.95 13.4326C24.0993 13.3686 24.2487 13.2939 24.398 13.2086V14.8886C24.2167 14.9633 24.0247 15.0219 23.822 15.0646C23.6193 15.1073 23.3793 15.1286 23.102 15.1286C22.3447 15.1286 21.742 14.9099 21.294 14.4726C20.846 14.0246 20.622 13.4113 20.622 12.6326V8.34461H19.198V6.84061Z" fill="white"/>
<g id="GPay (Dark)">
<g id="GPay">
<g id="Pay">
<path id="Fill 1" fill-rule="evenodd" clip-rule="evenodd" d="M53.3563 3.42339V8.16175H56.2784C56.9745 8.16175 57.5501 7.92781 58.0055 7.45993C58.4728 6.99313 58.707 6.43644 58.707 5.79203C58.707 5.16061 58.4728 4.61041 58.0055 4.14254C57.5501 3.66274 56.9745 3.4223 56.2784 3.4223H53.3563V3.42339ZM53.3563 9.82966V15.3262H51.6107V1.75549H56.2404C57.4169 1.75549 58.4154 2.14756 59.2383 2.93061C60.0732 3.71365 60.4906 4.66782 60.4906 5.79203C60.4906 6.94224 60.0731 7.90291 59.2383 8.67296C58.4283 9.44409 57.4287 9.82858 56.2404 9.82858H53.3563V9.82966Z" fill="white"/>
<path id="Fill 3" fill-rule="evenodd" clip-rule="evenodd" d="M62.2546 12.4831C62.2546 12.9379 62.4476 13.317 62.8337 13.6203C63.2195 13.9235 63.6717 14.0752 64.19 14.0752C64.9239 14.0752 65.5777 13.8032 66.1535 13.2607C66.7293 12.717 67.0165 12.0791 67.0165 11.3469C66.4722 10.917 65.7133 10.7025 64.7396 10.7025C64.0306 10.7025 63.4397 10.8736 62.9659 11.2148C62.492 11.5559 62.2546 11.9773 62.2546 12.4831M64.513 5.73566C65.8033 5.73566 66.8214 6.08007 67.5685 6.76889C68.3145 7.45771 68.6873 8.40213 68.6873 9.60216V15.3261H67.0177V14.0373H66.9417C66.2207 15.0985 65.259 15.6294 64.0578 15.6294C63.0332 15.6294 62.1755 15.3261 61.4869 14.7196C60.7975 14.1131 60.4527 13.3549 60.4527 12.4452C60.4527 11.4845 60.8158 10.7208 61.5433 10.1523C62.2708 9.58375 63.2413 9.2989 64.4557 9.2989C65.4921 9.2989 66.3465 9.48844 67.0165 9.86751V9.46894C67.0165 8.86243 66.7758 8.34798 66.2956 7.92451C65.8141 7.50103 65.2525 7.28984 64.6074 7.28984C63.6326 7.28984 62.8618 7.70032 62.2926 8.52235L60.7551 7.55519C61.6029 6.34217 62.8552 5.73566 64.513 5.73566" fill="white"/>
<path id="Fill 5" fill-rule="evenodd" clip-rule="evenodd" d="M78.2687 6.03894L72.4432 19.4201H70.6411L72.8043 14.738L68.9714 6.03894H70.8688L73.639 12.7106H73.677L76.3713 6.03894H78.2687Z" fill="white"/>
</g>
<g id="G">
<path id="Fill 8" fill-rule="evenodd" clip-rule="evenodd" d="M46.3029 8.64473C46.3029 8.09563 46.2562 7.56601 46.1684 7.05914H38.8065V10.0625H43.0231C42.842 11.0414 42.2944 11.8744 41.4639 12.4322V14.3828H43.9804C45.4539 13.0246 46.3029 11.0177 46.3029 8.64473" fill="#4285F4"/>
<path id="Fill 10" fill-rule="evenodd" clip-rule="evenodd" d="M38.8065 16.2651C40.9131 16.2651 42.6869 15.5741 43.9804 14.3828L41.4639 12.4322C40.7635 12.9033 39.8614 13.1784 38.8065 13.1784C36.7703 13.1784 35.042 11.8073 34.424 9.95959H31.8316V11.9687C33.1164 14.516 35.7565 16.2651 38.8065 16.2651" fill="#34A853"/>
<path id="Fill 12" fill-rule="evenodd" clip-rule="evenodd" d="M34.424 9.9596C34.2657 9.48847 34.179 8.98593 34.179 8.46715C34.179 7.94837 34.2657 7.44583 34.424 6.9747V4.96564H31.8316C31.3003 6.01837 31 7.20756 31 8.46715C31 9.72674 31.3003 10.916 31.8316 11.9687L34.424 9.9596Z" fill="#FABB05"/>
<path id="Fill 14" fill-rule="evenodd" clip-rule="evenodd" d="M38.8065 3.75583C39.9568 3.75583 40.9879 4.15115 41.8011 4.92553V4.92661L44.0292 2.70094C42.6761 1.44243 40.912 0.669128 38.8065 0.669128C35.7565 0.669128 33.1164 2.41826 31.8316 4.9656L34.424 6.97467C35.042 5.12698 36.7703 3.75583 38.8065 3.75583" fill="#E94235"/>
</g>
</g>
</g>
<path id="Right Text" d="M85.658 15.0006V3.54461H87.386V10.2966L90.842 6.84061H92.986V6.93661L89.834 10.0566L93.098 14.9046V15.0006H91.05L88.618 11.2566L87.386 12.4726V15.0006H85.658ZM96.7274 15.2566C96.1407 15.2566 95.618 15.1393 95.1594 14.9046C94.7114 14.6699 94.354 14.3499 94.0874 13.9446C93.8314 13.5286 93.7034 13.0539 93.7034 12.5206C93.7034 11.9339 93.8527 11.4379 94.1514 11.0326C94.4607 10.6273 94.8714 10.3179 95.3834 10.1046C95.8954 9.89128 96.4607 9.78461 97.0794 9.78461C97.4207 9.78461 97.7354 9.81128 98.0234 9.86461C98.322 9.90728 98.578 9.96061 98.7914 10.0246C99.0154 10.0886 99.1914 10.1579 99.3194 10.2326V9.80061C99.3194 9.26728 99.1274 8.84061 98.7434 8.52061C98.3594 8.20061 97.8634 8.04061 97.2554 8.04061C96.8394 8.04061 96.4447 8.13661 96.0714 8.32861C95.698 8.50994 95.3994 8.76061 95.1754 9.08061L93.9914 8.16861C94.226 7.83794 94.5087 7.55528 94.8394 7.32061C95.1807 7.08594 95.5594 6.90461 95.9754 6.77661C96.402 6.64861 96.8447 6.58461 97.3034 6.58461C98.4874 6.58461 99.3994 6.87794 100.039 7.46461C100.679 8.04061 100.999 8.85128 100.999 9.89661V15.0006H99.3194V13.9926H99.2234C99.0847 14.2059 98.8927 14.4086 98.6474 14.6006C98.4127 14.7926 98.13 14.9473 97.7994 15.0646C97.4794 15.1926 97.122 15.2566 96.7274 15.2566ZM97.0314 13.8486C97.4794 13.8486 97.874 13.7419 98.2154 13.5286C98.5674 13.3153 98.8394 13.0379 99.0314 12.6966C99.2234 12.3446 99.3194 11.9659 99.3194 11.5606C99.0847 11.4219 98.7967 11.3099 98.4554 11.2246C98.1247 11.1286 97.7727 11.0806 97.3994 11.0806C96.6954 11.0806 96.194 11.2193 95.8954 11.4966C95.5967 11.7739 95.4474 12.1206 95.4474 12.5366C95.4474 12.9206 95.5914 13.2353 95.8794 13.4806C96.1674 13.7259 96.5514 13.8486 97.0314 13.8486ZM106.012 15.2566C105.009 15.2566 104.252 14.9579 103.74 14.3606C103.238 13.7526 102.988 12.9313 102.988 11.8966V6.84061H104.716V11.6566C104.716 12.3393 104.876 12.8459 105.196 13.1766C105.526 13.5073 105.937 13.6726 106.428 13.6726C106.876 13.6726 107.26 13.5606 107.58 13.3366C107.9 13.1019 108.145 12.7979 108.316 12.4246C108.497 12.0513 108.588 11.6513 108.588 11.2246V6.84061H110.3V15.0006H108.684V13.8966H108.588C108.438 14.1526 108.23 14.3819 107.964 14.5846C107.697 14.7873 107.398 14.9473 107.068 15.0646C106.737 15.1926 106.385 15.2566 106.012 15.2566ZM112.001 8.34461V6.84061H113.489V6.16861C113.489 5.58194 113.612 5.08594 113.857 4.68061C114.102 4.26461 114.438 3.94994 114.865 3.73661C115.292 3.52328 115.766 3.41661 116.289 3.41661C116.577 3.41661 116.822 3.43794 117.025 3.48061C117.238 3.51261 117.414 3.55528 117.553 3.60861V5.28861C117.414 5.23528 117.254 5.18194 117.073 5.12861C116.902 5.06461 116.689 5.03261 116.433 5.03261C116.102 5.03261 115.814 5.14461 115.569 5.36861C115.324 5.58194 115.201 5.89661 115.201 6.31261V6.84061H117.249V8.34461H115.201V15.0006H113.489V8.34461H112.001ZM122.283 15.2566C121.483 15.2566 120.768 15.0699 120.139 14.6966C119.51 14.3233 119.014 13.8113 118.651 13.1606C118.299 12.5099 118.123 11.7686 118.123 10.9366C118.123 10.1579 118.294 9.43794 118.635 8.77661C118.976 8.11528 119.451 7.58728 120.059 7.19261C120.678 6.78728 121.387 6.58461 122.187 6.58461C123.03 6.58461 123.744 6.76594 124.331 7.12861C124.928 7.49128 125.382 7.98728 125.691 8.61661C126 9.24594 126.155 9.95528 126.155 10.7446C126.155 10.8619 126.15 10.9686 126.139 11.0646C126.139 11.1606 126.134 11.2353 126.123 11.2886H119.819C119.862 11.7366 119.974 12.1259 120.155 12.4566C120.39 12.8726 120.699 13.1873 121.083 13.4006C121.467 13.6139 121.883 13.7206 122.331 13.7206C122.875 13.7206 123.328 13.5979 123.691 13.3526C124.064 13.0966 124.358 12.7819 124.571 12.4086L125.995 13.0966C125.643 13.7366 125.163 14.2593 124.555 14.6646C123.947 15.0593 123.19 15.2566 122.283 15.2566ZM119.915 9.99261H124.443C124.432 9.78994 124.379 9.57661 124.283 9.35261C124.187 9.11794 124.048 8.90461 123.867 8.71261C123.686 8.52061 123.456 8.36594 123.179 8.24861C122.902 8.12061 122.576 8.05661 122.203 8.05661C121.734 8.05661 121.318 8.17928 120.955 8.42461C120.592 8.65928 120.31 8.98994 120.107 9.41661C120.022 9.59794 119.958 9.78994 119.915 9.99261ZM127.908 15.0006V6.84061H129.54V7.96061H129.636C129.871 7.56594 130.217 7.24061 130.676 6.98461C131.145 6.71794 131.657 6.58461 132.212 6.58461C133.215 6.58461 133.967 6.88328 134.468 7.48061C134.969 8.06728 135.22 8.85661 135.22 9.84861V15.0006H133.508V10.0726C133.508 9.41128 133.343 8.93128 133.012 8.63261C132.681 8.32328 132.249 8.16861 131.716 8.16861C131.3 8.16861 130.937 8.28594 130.628 8.52061C130.319 8.74461 130.073 9.04328 129.892 9.41661C129.721 9.78994 129.636 10.1899 129.636 10.6166V15.0006H127.908Z" fill="white"/>
</g>
</svg>
