<svg width="154" height="21" viewBox="0 0 154 21" fill="none" xmlns="http://www.w3.org/2000/svg">
<g id="de_checkout_with_Pay_NBG">
<path id="Left Text" d="M1.69913 15.0006V3.54461H4.06713L7.41113 12.2646H7.50713L10.8671 3.54461H13.2351V15.0006H11.5071V8.52061L11.6031 6.48861H11.5071L8.16313 15.0006H6.77113L3.42713 6.48861H3.33113L3.42713 8.52061V15.0006H1.69913ZM15.8141 15.0006V6.84061H17.5421V15.0006H15.8141ZM16.6781 5.64061C16.3581 5.64061 16.0808 5.52861 15.8461 5.30461C15.6221 5.06994 15.5101 4.79261 15.5101 4.47261C15.5101 4.14194 15.6221 3.86994 15.8461 3.65661C16.0808 3.43261 16.3581 3.32061 16.6781 3.32061C17.0088 3.32061 17.2861 3.43261 17.5101 3.65661C17.7341 3.86994 17.8461 4.14194 17.8461 4.47261C17.8461 4.79261 17.7341 5.06994 17.5101 5.30461C17.2861 5.52861 17.0088 5.64061 16.6781 5.64061ZM19.198 6.84061H20.622V4.53661H22.35V6.84061H24.35V8.34461H22.35V12.2646C22.35 12.6699 22.43 12.9793 22.59 13.1926C22.7607 13.4059 23.0433 13.5126 23.438 13.5126C23.63 13.5126 23.8007 13.4859 23.95 13.4326C24.0993 13.3686 24.2487 13.2939 24.398 13.2086V14.8886C24.2167 14.9633 24.0247 15.0219 23.822 15.0646C23.6193 15.1073 23.3793 15.1286 23.102 15.1286C22.3447 15.1286 21.742 14.9099 21.294 14.4726C20.846 14.0246 20.622 13.4113 20.622 12.6326V8.34461H19.198V6.84061Z" fill="white"/>
<g id="GPay (Dark)">
<g id="GPay">
<g id="Pay">
<path id="Fill 1" fill-rule="evenodd" clip-rule="evenodd" d="M53.3563 3.42339V8.16175H56.2784C56.9745 8.16175 57.5501 7.92781 58.0055 7.45993C58.4728 6.99313 58.707 6.43644 58.707 5.79203C58.707 5.16061 58.4728 4.61041 58.0055 4.14254C57.5501 3.66274 56.9745 3.4223 56.2784 3.4223H53.3563V3.42339ZM53.3563 9.82966V15.3262H51.6107V1.75549H56.2404C57.4169 1.75549 58.4154 2.14756 59.2383 2.93061C60.0732 3.71365 60.4906 4.66782 60.4906 5.79203C60.4906 6.94224 60.0731 7.90291 59.2383 8.67296C58.4283 9.44409 57.4287 9.82858 56.2404 9.82858H53.3563V9.82966Z" fill="white"/>
<path id="Fill 3" fill-rule="evenodd" clip-rule="evenodd" d="M62.2546 12.4831C62.2546 12.9379 62.4476 13.317 62.8337 13.6203C63.2195 13.9235 63.6717 14.0752 64.19 14.0752C64.9239 14.0752 65.5777 13.8032 66.1535 13.2607C66.7293 12.717 67.0165 12.0791 67.0165 11.3469C66.4722 10.917 65.7133 10.7025 64.7396 10.7025C64.0306 10.7025 63.4397 10.8736 62.9659 11.2148C62.492 11.5559 62.2546 11.9773 62.2546 12.4831M64.513 5.73566C65.8033 5.73566 66.8214 6.08007 67.5685 6.76889C68.3145 7.45771 68.6873 8.40213 68.6873 9.60216V15.3261H67.0177V14.0373H66.9417C66.2207 15.0985 65.259 15.6294 64.0578 15.6294C63.0332 15.6294 62.1755 15.3261 61.4869 14.7196C60.7975 14.1131 60.4527 13.3549 60.4527 12.4452C60.4527 11.4845 60.8158 10.7208 61.5433 10.1523C62.2708 9.58375 63.2413 9.2989 64.4557 9.2989C65.4921 9.2989 66.3465 9.48844 67.0165 9.86751V9.46894C67.0165 8.86243 66.7758 8.34798 66.2956 7.92451C65.8141 7.50103 65.2525 7.28984 64.6074 7.28984C63.6326 7.28984 62.8618 7.70032 62.2926 8.52235L60.7551 7.55519C61.6029 6.34217 62.8552 5.73566 64.513 5.73566" fill="white"/>
<path id="Fill 5" fill-rule="evenodd" clip-rule="evenodd" d="M78.2687 6.03894L72.4432 19.4201H70.6411L72.8043 14.738L68.9714 6.03894H70.8688L73.639 12.7106H73.677L76.3713 6.03894H78.2687Z" fill="white"/>
</g>
<g id="G">
<path id="Fill 8" fill-rule="evenodd" clip-rule="evenodd" d="M46.3029 8.64473C46.3029 8.09563 46.2562 7.56601 46.1684 7.05914H38.8065V10.0625H43.0231C42.842 11.0414 42.2944 11.8744 41.4639 12.4322V14.3828H43.9804C45.4539 13.0246 46.3029 11.0177 46.3029 8.64473" fill="#4285F4"/>
<path id="Fill 10" fill-rule="evenodd" clip-rule="evenodd" d="M38.8065 16.2651C40.9131 16.2651 42.6869 15.5741 43.9804 14.3828L41.4639 12.4322C40.7635 12.9033 39.8614 13.1784 38.8065 13.1784C36.7703 13.1784 35.042 11.8073 34.424 9.95959H31.8316V11.9687C33.1164 14.516 35.7565 16.2651 38.8065 16.2651" fill="#34A853"/>
<path id="Fill 12" fill-rule="evenodd" clip-rule="evenodd" d="M34.424 9.9596C34.2657 9.48847 34.179 8.98593 34.179 8.46715C34.179 7.94837 34.2657 7.44583 34.424 6.9747V4.96564H31.8316C31.3003 6.01837 31 7.20756 31 8.46715C31 9.72674 31.3003 10.916 31.8316 11.9687L34.424 9.9596Z" fill="#FABB05"/>
<path id="Fill 14" fill-rule="evenodd" clip-rule="evenodd" d="M38.8065 3.75583C39.9568 3.75583 40.9879 4.15115 41.8011 4.92553V4.92661L44.0292 2.70094C42.6761 1.44243 40.912 0.669128 38.8065 0.669128C35.7565 0.669128 33.1164 2.41826 31.8316 4.9656L34.424 6.97467C35.042 5.12698 36.7703 3.75583 38.8065 3.75583" fill="#E94235"/>
</g>
</g>
</g>
<path id="Right Text" d="M90.01 15.2566C89.594 15.2566 89.2153 15.1926 88.874 15.0646C88.5327 14.9366 88.234 14.7713 87.978 14.5686C87.7327 14.3553 87.5353 14.1366 87.386 13.9126H87.29V15.0006H85.658V3.54461H87.386V6.80861L87.29 7.94461H87.386C87.5353 7.70994 87.7327 7.49128 87.978 7.28861C88.234 7.07528 88.5327 6.90461 88.874 6.77661C89.2153 6.64861 89.594 6.58461 90.01 6.58461C90.7567 6.58461 91.4233 6.77128 92.01 7.14461C92.5967 7.51794 93.0607 8.02994 93.402 8.68061C93.754 9.33128 93.93 10.0779 93.93 10.9206C93.93 11.7633 93.754 12.5099 93.402 13.1606C93.0607 13.8113 92.5967 14.3233 92.01 14.6966C91.4233 15.0699 90.7567 15.2566 90.01 15.2566ZM89.754 13.6726C90.1807 13.6726 90.5807 13.5606 90.954 13.3366C91.338 13.1126 91.642 12.7926 91.866 12.3766C92.1007 11.9606 92.218 11.4753 92.218 10.9206C92.218 10.3553 92.1007 9.86994 91.866 9.46461C91.642 9.04861 91.338 8.72861 90.954 8.50461C90.5807 8.28061 90.1807 8.16861 89.754 8.16861C89.3273 8.16861 88.9273 8.28061 88.554 8.50461C88.1807 8.72861 87.8767 9.04861 87.642 9.46461C87.4073 9.86994 87.29 10.3553 87.29 10.9206C87.29 11.4859 87.4073 11.9766 87.642 12.3926C87.8767 12.7979 88.1807 13.1126 88.554 13.3366C88.9273 13.5606 89.3273 13.6726 89.754 13.6726ZM99.3954 15.2566C98.5954 15.2566 97.8807 15.0699 97.2514 14.6966C96.622 14.3233 96.126 13.8113 95.7634 13.1606C95.4114 12.5099 95.2354 11.7686 95.2354 10.9366C95.2354 10.1579 95.406 9.43794 95.7474 8.77661C96.0887 8.11528 96.5634 7.58728 97.1714 7.19261C97.79 6.78728 98.4994 6.58461 99.2994 6.58461C100.142 6.58461 100.857 6.76594 101.443 7.12861C102.041 7.49128 102.494 7.98728 102.803 8.61661C103.113 9.24594 103.267 9.95528 103.267 10.7446C103.267 10.8619 103.262 10.9686 103.251 11.0646C103.251 11.1606 103.246 11.2353 103.235 11.2886H96.9314C96.974 11.7366 97.086 12.1259 97.2674 12.4566C97.502 12.8726 97.8114 13.1873 98.1954 13.4006C98.5794 13.6139 98.9954 13.7206 99.4434 13.7206C99.9874 13.7206 100.441 13.5979 100.803 13.3526C101.177 13.0966 101.47 12.7819 101.683 12.4086L103.107 13.0966C102.755 13.7366 102.275 14.2593 101.667 14.6646C101.059 15.0593 100.302 15.2566 99.3954 15.2566ZM97.0274 9.99261H101.555C101.545 9.78994 101.491 9.57661 101.395 9.35261C101.299 9.11794 101.161 8.90461 100.979 8.71261C100.798 8.52061 100.569 8.36594 100.291 8.24861C100.014 8.12061 99.6887 8.05661 99.3154 8.05661C98.846 8.05661 98.43 8.17928 98.0674 8.42461C97.7047 8.65928 97.422 8.98994 97.2194 9.41661C97.134 9.59794 97.07 9.78994 97.0274 9.99261ZM104.526 15.0006V13.5606L109.07 8.34461H104.67V6.84061H111.182V8.28061L106.654 13.4966H111.31V15.0006H104.526ZM115.48 15.2566C114.894 15.2566 114.371 15.1393 113.912 14.9046C113.464 14.6699 113.107 14.3499 112.84 13.9446C112.584 13.5286 112.456 13.0539 112.456 12.5206C112.456 11.9339 112.606 11.4379 112.904 11.0326C113.214 10.6273 113.624 10.3179 114.136 10.1046C114.648 9.89128 115.214 9.78461 115.832 9.78461C116.174 9.78461 116.488 9.81128 116.776 9.86461C117.075 9.90728 117.331 9.96061 117.544 10.0246C117.768 10.0886 117.944 10.1579 118.072 10.2326V9.80061C118.072 9.26728 117.88 8.84061 117.496 8.52061C117.112 8.20061 116.616 8.04061 116.008 8.04061C115.592 8.04061 115.198 8.13661 114.824 8.32861C114.451 8.50994 114.152 8.76061 113.928 9.08061L112.744 8.16861C112.979 7.83794 113.262 7.55528 113.592 7.32061C113.934 7.08594 114.312 6.90461 114.728 6.77661C115.155 6.64861 115.598 6.58461 116.056 6.58461C117.24 6.58461 118.152 6.87794 118.792 7.46461C119.432 8.04061 119.752 8.85128 119.752 9.89661V15.0006H118.072V13.9926H117.976C117.838 14.2059 117.646 14.4086 117.4 14.6006C117.166 14.7926 116.883 14.9473 116.552 15.0646C116.232 15.1926 115.875 15.2566 115.48 15.2566ZM115.784 13.8486C116.232 13.8486 116.627 13.7419 116.968 13.5286C117.32 13.3153 117.592 13.0379 117.784 12.6966C117.976 12.3446 118.072 11.9659 118.072 11.5606C117.838 11.4219 117.55 11.3099 117.208 11.2246C116.878 11.1286 116.526 11.0806 116.152 11.0806C115.448 11.0806 114.947 11.2193 114.648 11.4966C114.35 11.7739 114.2 12.1206 114.2 12.5366C114.2 12.9206 114.344 13.2353 114.632 13.4806C114.92 13.7259 115.304 13.8486 115.784 13.8486ZM121.805 15.0006V3.54461H123.533V6.68061L123.437 7.96061H123.533C123.757 7.56594 124.098 7.24061 124.557 6.98461C125.026 6.71794 125.544 6.58461 126.109 6.58461C126.792 6.58461 127.357 6.72328 127.805 7.00061C128.264 7.27794 128.605 7.66194 128.829 8.15261C129.053 8.63261 129.165 9.19794 129.165 9.84861V15.0006H127.453V10.0726C127.453 9.63528 127.368 9.27794 127.197 9.00061C127.037 8.72328 126.824 8.51528 126.557 8.37661C126.29 8.23794 125.992 8.16861 125.661 8.16861C125.245 8.16861 124.877 8.28594 124.557 8.52061C124.237 8.75528 123.986 9.06461 123.805 9.44861C123.624 9.82194 123.533 10.2219 123.533 10.6486V15.0006H121.805ZM131.299 15.0006V3.54461H133.027V15.0006H131.299ZM138.864 15.2566C138.064 15.2566 137.349 15.0699 136.72 14.6966C136.091 14.3233 135.595 13.8113 135.232 13.1606C134.88 12.5099 134.704 11.7686 134.704 10.9366C134.704 10.1579 134.875 9.43794 135.216 8.77661C135.557 8.11528 136.032 7.58728 136.64 7.19261C137.259 6.78728 137.968 6.58461 138.768 6.58461C139.611 6.58461 140.325 6.76594 140.912 7.12861C141.509 7.49128 141.963 7.98728 142.272 8.61661C142.581 9.24594 142.736 9.95528 142.736 10.7446C142.736 10.8619 142.731 10.9686 142.72 11.0646C142.72 11.1606 142.715 11.2353 142.704 11.2886H136.4C136.443 11.7366 136.555 12.1259 136.736 12.4566C136.971 12.8726 137.28 13.1873 137.664 13.4006C138.048 13.6139 138.464 13.7206 138.912 13.7206C139.456 13.7206 139.909 13.5979 140.272 13.3526C140.645 13.0966 140.939 12.7819 141.152 12.4086L142.576 13.0966C142.224 13.7366 141.744 14.2593 141.136 14.6646C140.528 15.0593 139.771 15.2566 138.864 15.2566ZM136.496 9.99261H141.024C141.013 9.78994 140.96 9.57661 140.864 9.35261C140.768 9.11794 140.629 8.90461 140.448 8.71261C140.267 8.52061 140.037 8.36594 139.76 8.24861C139.483 8.12061 139.157 8.05661 138.784 8.05661C138.315 8.05661 137.899 8.17928 137.536 8.42461C137.173 8.65928 136.891 8.98994 136.688 9.41661C136.603 9.59794 136.539 9.78994 136.496 9.99261ZM144.489 15.0006V6.84061H146.121V7.96061H146.217C146.452 7.56594 146.799 7.24061 147.257 6.98461C147.727 6.71794 148.239 6.58461 148.793 6.58461C149.796 6.58461 150.548 6.88328 151.049 7.48061C151.551 8.06728 151.801 8.85661 151.801 9.84861V15.0006H150.089V10.0726C150.089 9.41128 149.924 8.93128 149.593 8.63261C149.263 8.32328 148.831 8.16861 148.297 8.16861C147.881 8.16861 147.519 8.28594 147.209 8.52061C146.9 8.74461 146.655 9.04328 146.473 9.41661C146.303 9.78994 146.217 10.1899 146.217 10.6166V15.0006H144.489Z" fill="white"/>
</g>
</svg>
