<svg width="270" height="38" viewBox="0 0 270 38" fill="none" xmlns="http://www.w3.org/2000/svg">
<g id="de_checkout_with_Light">
<path id="Left Text" d="M3.14847 30V9.952H7.29247L13.1445 25.212H13.3125L19.1925 9.952H23.3365V30H20.3125V18.66L20.4805 15.104H20.3125L14.4605 30H12.0245L6.17247 15.104H6.00447L6.17247 18.66V30H3.14847ZM29.3992 13.62C28.8392 13.62 28.3539 13.424 27.9432 13.032C27.5512 12.6213 27.3552 12.136 27.3552 11.576C27.3552 11.016 27.5512 10.54 27.9432 10.148C28.3539 9.756 28.8392 9.56 29.3992 9.56C29.9592 9.56 30.4352 9.756 30.8272 10.148C31.2379 10.54 31.4432 11.016 31.4432 11.576C31.4432 12.136 31.2379 12.6213 30.8272 13.032C30.4352 13.424 29.9592 13.62 29.3992 13.62ZM27.8872 30V15.72H30.9112V30H27.8872ZM36.3385 25.856V18.352H33.8465V15.72H36.3385V11.688H39.3625V15.72H42.8625V18.352H39.3625V25.212C39.3625 25.9213 39.5025 26.4627 39.7825 26.836C40.0812 27.2093 40.5758 27.396 41.2665 27.396C41.6212 27.396 41.9198 27.3493 42.1625 27.256C42.4238 27.1627 42.6852 27.032 42.9465 26.864V29.804C42.6292 29.9347 42.2932 30.0373 41.9385 30.112C41.5838 30.1867 41.1638 30.224 40.6785 30.224C39.3532 30.224 38.2985 29.8413 37.5145 29.076C36.7305 28.292 36.3385 27.2187 36.3385 25.856Z" fill="#3C4043"/>
<g id="GPay Logo (Light)">
<g id="GPay">
<g id="Pay">
<path id="Fill 1" fill-rule="evenodd" clip-rule="evenodd" d="M94.5289 9.44664V17.6128H99.5649C100.765 17.6128 101.757 17.2096 102.541 16.4032C103.347 15.5988 103.75 14.6394 103.75 13.5288C103.75 12.4406 103.347 11.4924 102.541 10.686C101.757 9.85915 100.765 9.44478 99.5649 9.44478H94.5289V9.44664ZM94.5289 20.4872V29.9599H91.5205V6.57217H99.4993C101.527 6.57217 103.248 7.24786 104.666 8.59737C106.105 9.94688 106.824 11.5913 106.824 13.5288C106.824 15.511 106.105 17.1667 104.666 18.4938C103.27 19.8227 101.547 20.4854 99.4993 20.4854H94.5289V20.4872Z" fill="#5F6368"/>
<path id="Fill 3" fill-rule="evenodd" clip-rule="evenodd" d="M109.864 25.0602C109.864 25.8442 110.197 26.4975 110.862 27.0201C111.527 27.5427 112.306 27.804 113.2 27.804C114.465 27.804 115.591 27.3354 116.584 26.4004C117.576 25.4634 118.071 24.364 118.071 23.1022C117.133 22.3612 115.825 21.9916 114.147 21.9916C112.925 21.9916 111.907 22.2865 111.09 22.8745C110.273 23.4623 109.864 24.1886 109.864 25.0602ZM113.756 13.4317C115.98 13.4317 117.735 14.0252 119.022 15.2124C120.308 16.3995 120.95 18.0271 120.95 20.0952V29.9599H118.073V27.7387H117.942C116.699 29.5677 115.042 30.4825 112.972 30.4825C111.206 30.4825 109.728 29.9599 108.541 28.9146C107.353 27.8694 106.759 26.5628 106.759 24.9949C106.759 23.3393 107.385 22.0232 108.638 21.0434C109.892 20.0635 111.565 19.5726 113.658 19.5726C115.444 19.5726 116.916 19.8992 118.071 20.5525V19.8656C118.071 18.8204 117.656 17.9338 116.829 17.204C115.999 16.4741 115.031 16.1102 113.919 16.1102C112.239 16.1102 110.911 16.8176 109.93 18.2343L107.28 16.5675C108.741 14.4769 110.899 13.4317 113.756 13.4317Z" fill="#5F6368"/>
<path id="Fill 5" fill-rule="evenodd" clip-rule="evenodd" d="M137.463 13.9543L127.423 37.0154H124.318L128.046 28.9464L121.44 13.9543H124.71L129.484 25.4522H129.55L134.193 13.9543H137.463Z" fill="#5F6368"/>
</g>
<g id="G">
<path id="Fill 8" fill-rule="evenodd" clip-rule="evenodd" d="M82.3729 18.4452C82.3729 17.4989 82.2926 16.5861 82.1412 15.7126H69.4536V20.8885H76.7205C76.4084 22.5757 75.4648 24.0112 74.0335 24.9725V28.3341H78.3704C80.9098 25.9935 82.3729 22.5348 82.3729 18.4452Z" fill="#4285F4"/>
<path id="Fill 10" fill-rule="evenodd" clip-rule="evenodd" d="M69.4536 31.5782C73.0843 31.5782 76.1412 30.3873 78.3704 28.3341L74.0335 24.9725C72.8264 25.7844 71.2717 26.2585 69.4536 26.2585C65.9444 26.2585 62.9659 23.8955 61.9009 20.7112H57.4331V24.1736C59.6474 28.5637 64.1973 31.5782 69.4536 31.5782Z" fill="#34A853"/>
<path id="Fill 12" fill-rule="evenodd" clip-rule="evenodd" d="M61.9009 20.7111C61.6281 19.8992 61.4787 19.0331 61.4787 18.139C61.4787 17.245 61.6281 16.3789 61.9009 15.567V12.1045H57.4332C56.5176 13.9188 56 15.9683 56 18.139C56 20.3098 56.5176 22.3595 57.4332 24.1736L61.9009 20.7111Z" fill="#FABB05"/>
<path id="Fill 14" fill-rule="evenodd" clip-rule="evenodd" d="M69.4536 10.0196C71.4362 10.0196 73.2132 10.7009 74.6146 12.0355V12.0374L78.4545 8.20162C76.1226 6.03271 73.0824 4.7 69.4536 4.7C64.1973 4.7 59.6474 7.71446 57.4331 12.1046L61.9009 15.567C62.9659 12.3827 65.9444 10.0196 69.4536 10.0196Z" fill="#E94235"/>
</g>
</g>
</g>
<path id="Right Text" d="M158.38 30.448C157.279 30.448 156.327 30.2147 155.524 29.748C154.74 29.2627 154.161 28.712 153.788 28.096H153.62V30H150.764V9.952H153.788V15.664L153.62 17.652H153.788C154.161 17.036 154.74 16.4853 155.524 16C156.327 15.5147 157.279 15.272 158.38 15.272C159.687 15.272 160.853 15.5987 161.88 16.252C162.907 16.9053 163.719 17.8013 164.316 18.94C164.932 20.0787 165.24 21.3853 165.24 22.86C165.24 24.3347 164.932 25.6507 164.316 26.808C163.719 27.9467 162.907 28.8427 161.88 29.496C160.853 30.1307 159.687 30.448 158.38 30.448ZM157.932 27.676C158.679 27.676 159.379 27.48 160.032 27.088C160.685 26.696 161.217 26.1453 161.628 25.436C162.039 24.708 162.244 23.8493 162.244 22.86C162.244 21.8707 162.039 21.0213 161.628 20.312C161.217 19.584 160.685 19.024 160.032 18.632C159.379 18.24 158.679 18.044 157.932 18.044C157.185 18.044 156.485 18.24 155.832 18.632C155.179 19.024 154.647 19.584 154.236 20.312C153.825 21.0213 153.62 21.8707 153.62 22.86C153.62 23.8493 153.825 24.708 154.236 25.436C154.647 26.1453 155.179 26.696 155.832 27.088C156.485 27.48 157.185 27.676 157.932 27.676ZM174.842 30.448C173.442 30.448 172.191 30.1213 171.09 29.468C169.989 28.8147 169.121 27.9187 168.486 26.78C167.87 25.6413 167.562 24.344 167.562 22.888C167.562 21.5253 167.861 20.2653 168.458 19.108C169.055 17.9507 169.886 17.0267 170.95 16.336C172.033 15.6267 173.274 15.272 174.674 15.272C176.149 15.272 177.399 15.5893 178.426 16.224C179.471 16.8587 180.265 17.7267 180.806 18.828C181.347 19.9293 181.618 21.1707 181.618 22.552C181.618 22.7573 181.609 22.944 181.59 23.112C181.59 23.28 181.581 23.4107 181.562 23.504H170.53C170.679 24.9227 171.174 25.9867 172.014 26.696C172.873 27.4053 173.843 27.76 174.926 27.76C175.897 27.76 176.699 27.5453 177.334 27.116C177.969 26.668 178.473 26.1173 178.846 25.464L181.338 26.668C180.722 27.788 179.882 28.7027 178.818 29.412C177.754 30.1027 176.429 30.448 174.842 30.448ZM174.702 17.848C173.694 17.848 172.835 18.156 172.126 18.772C171.417 19.388 170.941 20.2093 170.698 21.236H178.622C178.585 20.7507 178.426 20.2467 178.146 19.724C177.866 19.2013 177.437 18.7627 176.858 18.408C176.298 18.0347 175.579 17.848 174.702 17.848ZM183.859 30V27.48L191.811 18.352H184.111V15.72H195.507V18.24L187.583 27.368H195.731V30H183.859ZM203.066 30.448C202.039 30.448 201.125 30.252 200.322 29.86C199.519 29.4493 198.894 28.88 198.446 28.152C197.998 27.424 197.774 26.5933 197.774 25.66C197.774 24.652 198.035 23.7933 198.558 23.084C199.099 22.356 199.818 21.8053 200.714 21.432C201.61 21.0587 202.599 20.872 203.682 20.872C204.578 20.872 205.362 20.956 206.034 21.124C206.725 21.292 207.247 21.4693 207.602 21.656V20.9C207.602 19.9667 207.266 19.22 206.594 18.66C205.922 18.1 205.054 17.82 203.99 17.82C203.262 17.82 202.571 17.988 201.918 18.324C201.265 18.6413 200.742 19.08 200.35 19.64L198.278 18.044C198.894 17.1853 199.706 16.5133 200.714 16.028C201.741 15.524 202.861 15.272 204.074 15.272C206.146 15.272 207.742 15.7853 208.862 16.812C209.982 17.82 210.542 19.2387 210.542 21.068V30H207.602V28.236H207.434C207.061 28.8147 206.501 29.328 205.754 29.776C205.007 30.224 204.111 30.448 203.066 30.448ZM203.598 27.984C204.382 27.984 205.073 27.7973 205.67 27.424C206.267 27.0507 206.734 26.5653 207.07 25.968C207.425 25.352 207.602 24.6893 207.602 23.98C207.173 23.7373 206.669 23.5413 206.09 23.392C205.511 23.224 204.895 23.14 204.242 23.14C203.01 23.14 202.133 23.392 201.61 23.896C201.087 24.3813 200.826 24.9787 200.826 25.688C200.826 26.36 201.078 26.9107 201.582 27.34C202.086 27.7693 202.758 27.984 203.598 27.984ZM214.171 30V9.952H217.195V15.44L217.027 17.68H217.195C217.587 16.9893 218.184 16.42 218.987 15.972C219.808 15.5053 220.714 15.272 221.703 15.272C223.476 15.272 224.811 15.804 225.707 16.868C226.603 17.9133 227.051 19.2853 227.051 20.984V30H224.055V21.376C224.055 20.2187 223.747 19.3787 223.131 18.856C222.534 18.3147 221.796 18.044 220.919 18.044C220.191 18.044 219.547 18.2493 218.987 18.66C218.427 19.0707 217.988 19.612 217.671 20.284C217.354 20.9373 217.195 21.6373 217.195 22.384V30H214.171ZM230.823 30V9.952H233.847V30H230.823ZM244.1 30.448C242.7 30.448 241.449 30.1213 240.348 29.468C239.246 28.8147 238.378 27.9187 237.744 26.78C237.128 25.6413 236.82 24.344 236.82 22.888C236.82 21.5253 237.118 20.2653 237.716 19.108C238.313 17.9507 239.144 17.0267 240.208 16.336C241.29 15.6267 242.532 15.272 243.932 15.272C245.406 15.272 246.657 15.5893 247.684 16.224C248.729 16.8587 249.522 17.7267 250.064 18.828C250.605 19.9293 250.876 21.1707 250.876 22.552C250.876 22.7573 250.866 22.944 250.848 23.112C250.848 23.28 250.838 23.4107 250.82 23.504H239.788C239.937 24.9227 240.432 25.9867 241.272 26.696C242.13 27.4053 243.101 27.76 244.184 27.76C245.154 27.76 245.957 27.5453 246.592 27.116C247.226 26.668 247.73 26.1173 248.104 25.464L250.596 26.668C249.98 27.788 249.14 28.7027 248.076 29.412C247.012 30.1027 245.686 30.448 244.1 30.448ZM243.96 17.848C242.952 17.848 242.093 18.156 241.384 18.772C240.674 19.388 240.198 20.2093 239.956 21.236H247.88C247.842 20.7507 247.684 20.2467 247.404 19.724C247.124 19.2013 246.694 18.7627 246.116 18.408C245.556 18.0347 244.837 17.848 243.96 17.848ZM253.981 30V15.72H256.837V17.68H257.005C257.416 16.9893 258.023 16.42 258.825 15.972C259.647 15.5053 260.543 15.272 261.513 15.272C263.268 15.272 264.584 15.7947 265.461 16.84C266.339 17.8853 266.777 19.2667 266.777 20.984V30H263.781V21.376C263.781 20.2187 263.492 19.3787 262.913 18.856C262.335 18.3147 261.579 18.044 260.645 18.044C259.917 18.044 259.283 18.2493 258.741 18.66C258.2 19.052 257.771 19.5747 257.453 20.228C257.155 20.8813 257.005 21.5813 257.005 22.328V30H253.981Z" fill="#3C4043"/>
</g>
</svg>
