<svg width="266" height="38" viewBox="0 0 266 38" fill="none" xmlns="http://www.w3.org/2000/svg">
<g id="de_donate_with_Dark">
<path id="Left Text" d="M3.14847 30V9.952H7.29247L13.1445 25.212H13.3125L19.1925 9.952H23.3365V30H20.3125V18.66L20.4805 15.104H20.3125L14.4605 30H12.0245L6.17247 15.104H6.00447L6.17247 18.66V30H3.14847ZM29.3992 13.62C28.8392 13.62 28.3539 13.424 27.9432 13.032C27.5512 12.6213 27.3552 12.136 27.3552 11.576C27.3552 11.016 27.5512 10.54 27.9432 10.148C28.3539 9.756 28.8392 9.56 29.3992 9.56C29.9592 9.56 30.4352 9.756 30.8272 10.148C31.2379 10.54 31.4432 11.016 31.4432 11.576C31.4432 12.136 31.2379 12.6213 30.8272 13.032C30.4352 13.424 29.9592 13.62 29.3992 13.62ZM27.8872 30V15.72H30.9112V30H27.8872ZM36.3385 25.856V18.352H33.8465V15.72H36.3385V11.688H39.3625V15.72H42.8625V18.352H39.3625V25.212C39.3625 25.9213 39.5025 26.4627 39.7825 26.836C40.0812 27.2093 40.5758 27.396 41.2665 27.396C41.6212 27.396 41.9198 27.3493 42.1625 27.256C42.4238 27.1627 42.6852 27.032 42.9465 26.864V29.804C42.6292 29.9347 42.2932 30.0373 41.9385 30.112C41.5838 30.1867 41.1638 30.224 40.6785 30.224C39.3532 30.224 38.2985 29.8413 37.5145 29.076C36.7305 28.292 36.3385 27.2187 36.3385 25.856Z" fill="white"/>
<g id="GPay Logo (Dark)">
<g id="GPay">
<g id="Pay">
<path id="Fill 1" fill-rule="evenodd" clip-rule="evenodd" d="M94.5289 9.34665V17.5128H99.5649C100.765 17.5128 101.757 17.1096 102.541 16.3032C103.347 15.4988 103.75 14.5394 103.75 13.4288C103.75 12.3406 103.347 11.3924 102.541 10.586C101.757 9.75916 100.765 9.34479 99.5649 9.34479H94.5289V9.34665ZM94.5289 20.3872V29.8599H91.5205V6.47218H99.4993C101.527 6.47218 103.248 7.14787 104.666 8.49738C106.105 9.84688 106.824 11.4913 106.824 13.4288C106.824 15.411 106.105 17.0667 104.666 18.3938C103.27 19.7227 101.547 20.3854 99.4993 20.3854H94.5289V20.3872Z" fill="white"/>
<path id="Fill 3" fill-rule="evenodd" clip-rule="evenodd" d="M109.864 24.9602C109.864 25.7442 110.197 26.3975 110.862 26.9201C111.527 27.4427 112.306 27.704 113.2 27.704C114.465 27.704 115.591 27.2354 116.584 26.3004C117.576 25.3634 118.071 24.264 118.071 23.0022C117.133 22.2612 115.825 21.8916 114.147 21.8916C112.925 21.8916 111.907 22.1866 111.09 22.7745C110.273 23.3623 109.864 24.0886 109.864 24.9602ZM113.756 13.3317C115.98 13.3317 117.735 13.9253 119.022 15.1124C120.308 16.2995 120.95 17.9271 120.95 19.9952V29.8599H118.073V27.6387H117.942C116.699 29.4677 115.042 30.3825 112.972 30.3825C111.206 30.3825 109.728 29.8599 108.541 28.8146C107.353 27.7694 106.759 26.4628 106.759 24.8949C106.759 23.2393 107.385 21.9232 108.638 20.9434C109.892 19.9635 111.565 19.4726 113.658 19.4726C115.444 19.4726 116.916 19.7993 118.071 20.4525V19.7657C118.071 18.7204 117.656 17.8338 116.829 17.104C115.999 16.3742 115.031 16.0102 113.919 16.0102C112.239 16.0102 110.911 16.7176 109.93 18.1343L107.28 16.4675C108.741 14.377 110.899 13.3317 113.756 13.3317Z" fill="white"/>
<path id="Fill 5" fill-rule="evenodd" clip-rule="evenodd" d="M137.463 13.8543L127.423 36.9154H124.318L128.046 28.8464L121.44 13.8543H124.71L129.484 25.3522H129.55L134.193 13.8543H137.463Z" fill="white"/>
</g>
<g id="G">
<path id="Fill 8" fill-rule="evenodd" clip-rule="evenodd" d="M82.3729 18.3452C82.3729 17.3989 82.2926 16.4861 82.1412 15.6126H69.4536V20.7885H76.7205C76.4084 22.4757 75.4648 23.9112 74.0335 24.8725V28.2341H78.3704C80.9098 25.8935 82.3729 22.4348 82.3729 18.3452Z" fill="#4285F4"/>
<path id="Fill 10" fill-rule="evenodd" clip-rule="evenodd" d="M69.4536 31.4782C73.0843 31.4782 76.1412 30.2873 78.3704 28.2341L74.0335 24.8725C72.8264 25.6844 71.2717 26.1585 69.4536 26.1585C65.9444 26.1585 62.9659 23.7955 61.9009 20.6112H57.4331V24.0736C59.6474 28.4637 64.1973 31.4782 69.4536 31.4782Z" fill="#34A853"/>
<path id="Fill 12" fill-rule="evenodd" clip-rule="evenodd" d="M61.9009 20.6111C61.6281 19.7992 61.4787 18.9331 61.4787 18.0391C61.4787 17.145 61.6281 16.2789 61.9009 15.467V12.0045H57.4332C56.5176 13.8188 56 15.8683 56 18.0391C56 20.2098 56.5176 22.2595 57.4332 24.0736L61.9009 20.6111Z" fill="#FABB05"/>
<path id="Fill 14" fill-rule="evenodd" clip-rule="evenodd" d="M69.4536 9.91964C71.4362 9.91964 73.2132 10.6009 74.6146 11.9355V11.9374L78.4545 8.10163C76.1226 5.93272 73.0824 4.60001 69.4536 4.60001C64.1973 4.60001 59.6474 7.61447 57.4331 12.0046L61.9009 15.467C62.9659 12.2827 65.9444 9.91964 69.4536 9.91964Z" fill="#E94235"/>
</g>
</g>
</g>
<path id="Right Text" d="M155.972 30.448C154.255 30.448 152.883 30.0747 151.856 29.328C150.829 28.5627 150.12 27.6573 149.728 26.612L152.444 25.436C152.78 26.2013 153.265 26.7893 153.9 27.2C154.535 27.592 155.253 27.788 156.056 27.788C156.803 27.788 157.447 27.6573 157.988 27.396C158.529 27.116 158.8 26.668 158.8 26.052C158.8 25.4547 158.529 25.016 157.988 24.736C157.447 24.456 156.775 24.2133 155.972 24.008L154.264 23.616C153.573 23.448 152.929 23.1867 152.332 22.832C151.735 22.4773 151.249 22.02 150.876 21.46C150.503 20.8813 150.316 20.2093 150.316 19.444C150.316 18.604 150.568 17.876 151.072 17.26C151.576 16.6253 152.239 16.14 153.06 15.804C153.9 15.4493 154.805 15.272 155.776 15.272C157.101 15.272 158.259 15.5333 159.248 16.056C160.256 16.56 160.993 17.3253 161.46 18.352L158.856 19.528C158.52 18.8933 158.081 18.4547 157.54 18.212C157.017 17.9507 156.439 17.82 155.804 17.82C155.095 17.82 154.497 17.9693 154.012 18.268C153.545 18.5667 153.312 18.94 153.312 19.388C153.312 19.8733 153.517 20.256 153.928 20.536C154.357 20.816 154.88 21.04 155.496 21.208L157.568 21.712C158.987 22.0667 160.051 22.608 160.76 23.336C161.469 24.0453 161.824 24.9133 161.824 25.94C161.824 26.8547 161.563 27.6573 161.04 28.348C160.517 29.02 159.808 29.5427 158.912 29.916C158.035 30.2707 157.055 30.448 155.972 30.448ZM164.599 36.048V15.72H167.427V17.652H167.595C167.968 17.036 168.547 16.4853 169.331 16C170.133 15.5147 171.085 15.272 172.187 15.272C173.493 15.272 174.66 15.5987 175.687 16.252C176.713 16.9053 177.525 17.8013 178.123 18.94C178.739 20.0787 179.047 21.3853 179.047 22.86C179.047 24.3347 178.739 25.6507 178.123 26.808C177.525 27.9467 176.713 28.8427 175.687 29.496C174.66 30.1307 173.493 30.448 172.187 30.448C171.085 30.448 170.133 30.2147 169.331 29.748C168.547 29.2627 167.968 28.712 167.595 28.096H167.427L167.595 30.084V36.048H164.599ZM171.739 27.676C172.485 27.676 173.185 27.48 173.839 27.088C174.492 26.696 175.024 26.1453 175.435 25.436C175.845 24.708 176.051 23.8493 176.051 22.86C176.051 21.8707 175.845 21.0213 175.435 20.312C175.024 19.584 174.492 19.024 173.839 18.632C173.185 18.24 172.485 18.044 171.739 18.044C170.992 18.044 170.292 18.24 169.639 18.632C168.985 19.024 168.453 19.584 168.043 20.312C167.632 21.0213 167.427 21.8707 167.427 22.86C167.427 23.8493 167.632 24.708 168.043 25.436C168.453 26.1453 168.985 26.696 169.639 27.088C170.292 27.48 170.992 27.676 171.739 27.676ZM188.65 30.448C187.25 30.448 185.999 30.1213 184.898 29.468C183.796 28.8147 182.928 27.9187 182.294 26.78C181.678 25.6413 181.37 24.344 181.37 22.888C181.37 21.5253 181.668 20.2653 182.266 19.108C182.863 17.9507 183.694 17.0267 184.758 16.336C185.84 15.6267 187.082 15.272 188.482 15.272C189.956 15.272 191.207 15.5893 192.234 16.224C193.279 16.8587 194.072 17.7267 194.614 18.828C195.155 19.9293 195.426 21.1707 195.426 22.552C195.426 22.7573 195.416 22.944 195.398 23.112C195.398 23.28 195.388 23.4107 195.37 23.504H184.338C184.487 24.9227 184.982 25.9867 185.822 26.696C186.68 27.4053 187.651 27.76 188.734 27.76C189.704 27.76 190.507 27.5453 191.142 27.116C191.776 26.668 192.28 26.1173 192.654 25.464L195.146 26.668C194.53 27.788 193.69 28.7027 192.626 29.412C191.562 30.1027 190.236 30.448 188.65 30.448ZM188.51 17.848C187.502 17.848 186.643 18.156 185.934 18.772C185.224 19.388 184.748 20.2093 184.506 21.236H192.43C192.392 20.7507 192.234 20.2467 191.954 19.724C191.674 19.2013 191.244 18.7627 190.666 18.408C190.106 18.0347 189.387 17.848 188.51 17.848ZM198.531 30V15.72H201.387V17.68H201.555C201.966 16.9893 202.573 16.42 203.375 15.972C204.197 15.5053 205.093 15.272 206.063 15.272C207.818 15.272 209.134 15.7947 210.011 16.84C210.889 17.8853 211.327 19.2667 211.327 20.984V30H208.331V21.376C208.331 20.2187 208.042 19.3787 207.463 18.856C206.885 18.3147 206.129 18.044 205.195 18.044C204.467 18.044 203.833 18.2493 203.291 18.66C202.75 19.052 202.321 19.5747 202.003 20.228C201.705 20.8813 201.555 21.5813 201.555 22.328V30H198.531ZM221.177 30.448C219.889 30.448 218.723 30.1307 217.677 29.496C216.651 28.8427 215.829 27.9467 215.213 26.808C214.616 25.6507 214.317 24.3347 214.317 22.86C214.317 21.3853 214.616 20.0787 215.213 18.94C215.829 17.8013 216.651 16.9053 217.677 16.252C218.723 15.5987 219.889 15.272 221.177 15.272C222.279 15.272 223.221 15.5147 224.005 16C224.808 16.4853 225.396 17.036 225.769 17.652H225.937L225.769 15.664V9.952H228.765V30H225.937V28.096H225.769C225.396 28.712 224.808 29.2627 224.005 29.748C223.221 30.2147 222.279 30.448 221.177 30.448ZM221.625 27.676C222.372 27.676 223.072 27.48 223.725 27.088C224.397 26.696 224.929 26.1453 225.321 25.436C225.732 24.708 225.937 23.8493 225.937 22.86C225.937 21.8707 225.732 21.0213 225.321 20.312C224.929 19.584 224.397 19.024 223.725 18.632C223.072 18.24 222.372 18.044 221.625 18.044C220.879 18.044 220.179 18.24 219.525 18.632C218.872 19.024 218.34 19.584 217.929 20.312C217.519 21.0213 217.313 21.8707 217.313 22.86C217.313 23.8493 217.519 24.708 217.929 25.436C218.34 26.1453 218.872 26.696 219.525 27.088C220.179 27.48 220.879 27.676 221.625 27.676ZM239.015 30.448C237.615 30.448 236.364 30.1213 235.263 29.468C234.161 28.8147 233.293 27.9187 232.659 26.78C232.043 25.6413 231.735 24.344 231.735 22.888C231.735 21.5253 232.033 20.2653 232.631 19.108C233.228 17.9507 234.059 17.0267 235.123 16.336C236.205 15.6267 237.447 15.272 238.847 15.272C240.321 15.272 241.572 15.5893 242.599 16.224C243.644 16.8587 244.437 17.7267 244.979 18.828C245.52 19.9293 245.791 21.1707 245.791 22.552C245.791 22.7573 245.781 22.944 245.763 23.112C245.763 23.28 245.753 23.4107 245.735 23.504H234.703C234.852 24.9227 235.347 25.9867 236.187 26.696C237.045 27.4053 238.016 27.76 239.099 27.76C240.069 27.76 240.872 27.5453 241.507 27.116C242.141 26.668 242.645 26.1173 243.019 25.464L245.511 26.668C244.895 27.788 244.055 28.7027 242.991 29.412C241.927 30.1027 240.601 30.448 239.015 30.448ZM238.875 17.848C237.867 17.848 237.008 18.156 236.299 18.772C235.589 19.388 235.113 20.2093 234.871 21.236H242.795C242.757 20.7507 242.599 20.2467 242.319 19.724C242.039 19.2013 241.609 18.7627 241.031 18.408C240.471 18.0347 239.752 17.848 238.875 17.848ZM248.896 30V15.72H251.752V17.68H251.92C252.331 16.9893 252.937 16.42 253.74 15.972C254.561 15.5053 255.457 15.272 256.428 15.272C258.183 15.272 259.499 15.7947 260.376 16.84C261.253 17.8853 261.692 19.2667 261.692 20.984V30H258.696V21.376C258.696 20.2187 258.407 19.3787 257.828 18.856C257.249 18.3147 256.493 18.044 255.56 18.044C254.832 18.044 254.197 18.2493 253.656 18.66C253.115 19.052 252.685 19.5747 252.368 20.228C252.069 20.8813 251.92 21.5813 251.92 22.328V30H248.896Z" fill="white"/>
</g>
</svg>
