<svg width="151" height="21" viewBox="0 0 151 21" fill="none" xmlns="http://www.w3.org/2000/svg">
<g id="de_donate_with_Pay_NBG">
<path id="Left Text" d="M1.69913 15.0006V3.54461H4.06713L7.41113 12.2646H7.50713L10.8671 3.54461H13.2351V15.0006H11.5071V8.52061L11.6031 6.48861H11.5071L8.16313 15.0006H6.77113L3.42713 6.48861H3.33113L3.42713 8.52061V15.0006H1.69913ZM15.8141 15.0006V6.84061H17.5421V15.0006H15.8141ZM16.6781 5.64061C16.3581 5.64061 16.0808 5.52861 15.8461 5.30461C15.6221 5.06994 15.5101 4.79261 15.5101 4.47261C15.5101 4.14194 15.6221 3.86994 15.8461 3.65661C16.0808 3.43261 16.3581 3.32061 16.6781 3.32061C17.0088 3.32061 17.2861 3.43261 17.5101 3.65661C17.7341 3.86994 17.8461 4.14194 17.8461 4.47261C17.8461 4.79261 17.7341 5.06994 17.5101 5.30461C17.2861 5.52861 17.0088 5.64061 16.6781 5.64061ZM19.198 6.84061H20.622V4.53661H22.35V6.84061H24.35V8.34461H22.35V12.2646C22.35 12.6699 22.43 12.9793 22.59 13.1926C22.7607 13.4059 23.0433 13.5126 23.438 13.5126C23.63 13.5126 23.8007 13.4859 23.95 13.4326C24.0993 13.3686 24.2487 13.2939 24.398 13.2086V14.8886C24.2167 14.9633 24.0247 15.0219 23.822 15.0646C23.6193 15.1073 23.3793 15.1286 23.102 15.1286C22.3447 15.1286 21.742 14.9099 21.294 14.4726C20.846 14.0246 20.622 13.4113 20.622 12.6326V8.34461H19.198V6.84061Z" fill="white"/>
<g id="GPay (Dark)">
<g id="GPay">
<g id="Pay">
<path id="Fill 1" fill-rule="evenodd" clip-rule="evenodd" d="M53.3563 3.42339V8.16175H56.2784C56.9745 8.16175 57.5501 7.92781 58.0055 7.45993C58.4728 6.99313 58.707 6.43644 58.707 5.79203C58.707 5.16061 58.4728 4.61041 58.0055 4.14254C57.5501 3.66274 56.9745 3.4223 56.2784 3.4223H53.3563V3.42339ZM53.3563 9.82966V15.3262H51.6107V1.75549H56.2404C57.4169 1.75549 58.4154 2.14756 59.2383 2.93061C60.0732 3.71365 60.4906 4.66782 60.4906 5.79203C60.4906 6.94224 60.0731 7.90291 59.2383 8.67296C58.4283 9.44409 57.4287 9.82858 56.2404 9.82858H53.3563V9.82966Z" fill="white"/>
<path id="Fill 3" fill-rule="evenodd" clip-rule="evenodd" d="M62.2546 12.4831C62.2546 12.9379 62.4476 13.317 62.8337 13.6203C63.2195 13.9235 63.6717 14.0752 64.19 14.0752C64.9239 14.0752 65.5777 13.8032 66.1535 13.2607C66.7293 12.717 67.0165 12.0791 67.0165 11.3469C66.4722 10.917 65.7133 10.7025 64.7396 10.7025C64.0306 10.7025 63.4397 10.8736 62.9659 11.2148C62.492 11.5559 62.2546 11.9773 62.2546 12.4831M64.513 5.73566C65.8033 5.73566 66.8214 6.08007 67.5685 6.76889C68.3145 7.45771 68.6873 8.40213 68.6873 9.60216V15.3261H67.0177V14.0373H66.9417C66.2207 15.0985 65.259 15.6294 64.0578 15.6294C63.0332 15.6294 62.1755 15.3261 61.4869 14.7196C60.7975 14.1131 60.4527 13.3549 60.4527 12.4452C60.4527 11.4845 60.8158 10.7208 61.5433 10.1523C62.2708 9.58375 63.2413 9.2989 64.4557 9.2989C65.4921 9.2989 66.3465 9.48844 67.0165 9.86751V9.46894C67.0165 8.86243 66.7758 8.34798 66.2956 7.92451C65.8141 7.50103 65.2525 7.28984 64.6074 7.28984C63.6326 7.28984 62.8618 7.70032 62.2926 8.52235L60.7551 7.55519C61.6029 6.34217 62.8552 5.73566 64.513 5.73566" fill="white"/>
<path id="Fill 5" fill-rule="evenodd" clip-rule="evenodd" d="M78.2687 6.03894L72.4432 19.4201H70.6411L72.8043 14.738L68.9714 6.03894H70.8688L73.639 12.7106H73.677L76.3713 6.03894H78.2687Z" fill="white"/>
</g>
<g id="G">
<path id="Fill 8" fill-rule="evenodd" clip-rule="evenodd" d="M46.3029 8.64473C46.3029 8.09563 46.2562 7.56601 46.1684 7.05914H38.8065V10.0625H43.0231C42.842 11.0414 42.2944 11.8744 41.4639 12.4322V14.3828H43.9804C45.4539 13.0246 46.3029 11.0177 46.3029 8.64473" fill="#4285F4"/>
<path id="Fill 10" fill-rule="evenodd" clip-rule="evenodd" d="M38.8065 16.2651C40.9131 16.2651 42.6869 15.5741 43.9804 14.3828L41.4639 12.4322C40.7635 12.9033 39.8614 13.1784 38.8065 13.1784C36.7703 13.1784 35.042 11.8073 34.424 9.95959H31.8316V11.9687C33.1164 14.516 35.7565 16.2651 38.8065 16.2651" fill="#34A853"/>
<path id="Fill 12" fill-rule="evenodd" clip-rule="evenodd" d="M34.424 9.9596C34.2657 9.48847 34.179 8.98593 34.179 8.46715C34.179 7.94837 34.2657 7.44583 34.424 6.9747V4.96564H31.8316C31.3003 6.01837 31 7.20756 31 8.46715C31 9.72674 31.3003 10.916 31.8316 11.9687L34.424 9.9596Z" fill="#FABB05"/>
<path id="Fill 14" fill-rule="evenodd" clip-rule="evenodd" d="M38.8065 3.75583C39.9568 3.75583 40.9879 4.15115 41.8011 4.92553V4.92661L44.0292 2.70094C42.6761 1.44243 40.912 0.669128 38.8065 0.669128C35.7565 0.669128 33.1164 2.41826 31.8316 4.9656L34.424 6.97467C35.042 5.12698 36.7703 3.75583 38.8065 3.75583" fill="#E94235"/>
</g>
</g>
</g>
<path id="Right Text" d="M88.634 15.2566C87.9833 15.2566 87.418 15.1606 86.938 14.9686C86.458 14.7659 86.0633 14.4993 85.754 14.1686C85.4447 13.8273 85.2153 13.4593 85.066 13.0646L86.618 12.3926C86.81 12.8299 87.082 13.1659 87.434 13.4006C87.7967 13.6246 88.2127 13.7366 88.682 13.7366C89.1087 13.7366 89.4767 13.6619 89.786 13.5126C90.0953 13.3526 90.25 13.0966 90.25 12.7446C90.25 12.5206 90.1753 12.3393 90.026 12.2006C89.8873 12.0513 89.6953 11.9286 89.45 11.8326C89.2153 11.7366 88.9433 11.6513 88.634 11.5766L87.658 11.3526C87.274 11.2566 86.906 11.1073 86.554 10.9046C86.2127 10.6913 85.9353 10.4246 85.722 10.1046C85.5087 9.78461 85.402 9.40594 85.402 8.96861C85.402 8.47794 85.5407 8.05661 85.818 7.70461C86.106 7.34194 86.49 7.06461 86.97 6.87261C87.45 6.68061 87.9673 6.58461 88.522 6.58461C89.034 6.58461 89.498 6.65394 89.914 6.79261C90.3407 6.92061 90.7087 7.11794 91.018 7.38461C91.338 7.64061 91.5887 7.96061 91.77 8.34461L90.282 9.01661C90.1007 8.65394 89.8553 8.40328 89.546 8.26461C89.2367 8.11528 88.9007 8.04061 88.538 8.04061C88.1327 8.04061 87.7913 8.12594 87.514 8.29661C87.2473 8.45661 87.114 8.66994 87.114 8.93661C87.114 9.21394 87.2313 9.43261 87.466 9.59261C87.7113 9.75261 88.01 9.88061 88.362 9.97661L89.546 10.2646C90.3567 10.4673 90.9647 10.7766 91.37 11.1926C91.7753 11.5979 91.978 12.0939 91.978 12.6806C91.978 13.2033 91.8287 13.6619 91.53 14.0566C91.2313 14.4406 90.826 14.7393 90.314 14.9526C89.8127 15.1553 89.2527 15.2566 88.634 15.2566ZM93.542 18.4566V6.84061H95.158V7.94461H95.254C95.4033 7.70994 95.6007 7.49128 95.846 7.28861C96.102 7.07528 96.4007 6.90461 96.742 6.77661C97.0833 6.64861 97.462 6.58461 97.878 6.58461C98.6247 6.58461 99.2913 6.77128 99.878 7.14461C100.465 7.51794 100.929 8.02994 101.27 8.68061C101.622 9.33128 101.798 10.0779 101.798 10.9206C101.798 11.7633 101.622 12.5099 101.27 13.1606C100.929 13.8113 100.465 14.3233 99.878 14.6966C99.2913 15.0699 98.6247 15.2566 97.878 15.2566C97.2593 15.2566 96.7207 15.1179 96.262 14.8406C95.8033 14.5633 95.4673 14.2539 95.254 13.9126H95.158L95.254 15.0486V18.4566H93.542ZM97.622 13.6726C98.0487 13.6726 98.4487 13.5606 98.822 13.3366C99.206 13.1126 99.51 12.7926 99.734 12.3766C99.9687 11.9606 100.086 11.4753 100.086 10.9206C100.086 10.3553 99.9687 9.86994 99.734 9.46461C99.51 9.04861 99.206 8.72861 98.822 8.50461C98.4487 8.28061 98.0487 8.16861 97.622 8.16861C97.1953 8.16861 96.7953 8.28061 96.422 8.50461C96.0487 8.72861 95.7447 9.04861 95.51 9.46461C95.2753 9.86994 95.158 10.3553 95.158 10.9206C95.158 11.4859 95.2753 11.9766 95.51 12.3926C95.7447 12.7979 96.0487 13.1126 96.422 13.3366C96.7953 13.5606 97.1953 13.6726 97.622 13.6726ZM107.264 15.2566C106.464 15.2566 105.749 15.0699 105.12 14.6966C104.491 14.3233 103.995 13.8113 103.632 13.1606C103.28 12.5099 103.104 11.7686 103.104 10.9366C103.104 10.1579 103.275 9.43794 103.616 8.77661C103.957 8.11528 104.432 7.58728 105.04 7.19261C105.659 6.78728 106.368 6.58461 107.168 6.58461C108.011 6.58461 108.725 6.76594 109.312 7.12861C109.909 7.49128 110.363 7.98728 110.672 8.61661C110.981 9.24594 111.136 9.95528 111.136 10.7446C111.136 10.8619 111.131 10.9686 111.12 11.0646C111.12 11.1606 111.115 11.2353 111.104 11.2886H104.8C104.843 11.7366 104.955 12.1259 105.136 12.4566C105.371 12.8726 105.68 13.1873 106.064 13.4006C106.448 13.6139 106.864 13.7206 107.312 13.7206C107.856 13.7206 108.309 13.5979 108.672 13.3526C109.045 13.0966 109.339 12.7819 109.552 12.4086L110.976 13.0966C110.624 13.7366 110.144 14.2593 109.536 14.6646C108.928 15.0593 108.171 15.2566 107.264 15.2566ZM104.896 9.99261H109.424C109.413 9.78994 109.36 9.57661 109.264 9.35261C109.168 9.11794 109.029 8.90461 108.848 8.71261C108.667 8.52061 108.437 8.36594 108.16 8.24861C107.883 8.12061 107.557 8.05661 107.184 8.05661C106.715 8.05661 106.299 8.17928 105.936 8.42461C105.573 8.65928 105.291 8.98994 105.088 9.41661C105.003 9.59794 104.939 9.78994 104.896 9.99261ZM112.889 15.0006V6.84061H114.521V7.96061H114.617C114.852 7.56594 115.199 7.24061 115.657 6.98461C116.127 6.71794 116.639 6.58461 117.193 6.58461C118.196 6.58461 118.948 6.88328 119.449 7.48061C119.951 8.06728 120.201 8.85661 120.201 9.84861V15.0006H118.489V10.0726C118.489 9.41128 118.324 8.93128 117.993 8.63261C117.663 8.32328 117.231 8.16861 116.697 8.16861C116.281 8.16861 115.919 8.28594 115.609 8.52061C115.3 8.74461 115.055 9.04328 114.873 9.41661C114.703 9.78994 114.617 10.1899 114.617 10.6166V15.0006H112.889ZM125.808 15.2566C125.072 15.2566 124.406 15.0699 123.808 14.6966C123.211 14.3233 122.742 13.8113 122.4 13.1606C122.059 12.5099 121.888 11.7633 121.888 10.9206C121.888 10.0779 122.059 9.33128 122.4 8.68061C122.742 8.02994 123.211 7.51794 123.808 7.14461C124.406 6.77128 125.072 6.58461 125.808 6.58461C126.235 6.58461 126.619 6.64861 126.96 6.77661C127.302 6.90461 127.595 7.07528 127.84 7.28861C128.096 7.49128 128.294 7.70994 128.432 7.94461H128.528L128.432 6.80861V3.54461H130.144V15.0006H128.528V13.9126H128.432C128.294 14.1366 128.096 14.3553 127.84 14.5686C127.595 14.7713 127.302 14.9366 126.96 15.0646C126.619 15.1926 126.235 15.2566 125.808 15.2566ZM126.064 13.6726C126.491 13.6726 126.891 13.5606 127.264 13.3366C127.648 13.1126 127.952 12.7979 128.176 12.3926C128.411 11.9766 128.528 11.4859 128.528 10.9206C128.528 10.3553 128.411 9.86994 128.176 9.46461C127.952 9.04861 127.648 8.72861 127.264 8.50461C126.891 8.28061 126.491 8.16861 126.064 8.16861C125.638 8.16861 125.238 8.28061 124.864 8.50461C124.491 8.72861 124.187 9.04861 123.952 9.46461C123.718 9.86994 123.6 10.3553 123.6 10.9206C123.6 11.4753 123.718 11.9606 123.952 12.3766C124.187 12.7926 124.491 13.1126 124.864 13.3366C125.238 13.5606 125.638 13.6726 126.064 13.6726ZM135.98 15.2566C135.18 15.2566 134.465 15.0699 133.836 14.6966C133.206 14.3233 132.71 13.8113 132.348 13.1606C131.996 12.5099 131.82 11.7686 131.82 10.9366C131.82 10.1579 131.99 9.43794 132.332 8.77661C132.673 8.11528 133.148 7.58728 133.756 7.19261C134.374 6.78728 135.084 6.58461 135.884 6.58461C136.726 6.58461 137.441 6.76594 138.028 7.12861C138.625 7.49128 139.078 7.98728 139.388 8.61661C139.697 9.24594 139.852 9.95528 139.852 10.7446C139.852 10.8619 139.846 10.9686 139.836 11.0646C139.836 11.1606 139.83 11.2353 139.82 11.2886H133.516C133.558 11.7366 133.67 12.1259 133.852 12.4566C134.086 12.8726 134.396 13.1873 134.78 13.4006C135.164 13.6139 135.58 13.7206 136.028 13.7206C136.572 13.7206 137.025 13.5979 137.388 13.3526C137.761 13.0966 138.054 12.7819 138.268 12.4086L139.692 13.0966C139.34 13.7366 138.86 14.2593 138.252 14.6646C137.644 15.0593 136.886 15.2566 135.98 15.2566ZM133.612 9.99261H138.14C138.129 9.78994 138.076 9.57661 137.98 9.35261C137.884 9.11794 137.745 8.90461 137.564 8.71261C137.382 8.52061 137.153 8.36594 136.876 8.24861C136.598 8.12061 136.273 8.05661 135.9 8.05661C135.43 8.05661 135.014 8.17928 134.652 8.42461C134.289 8.65928 134.006 8.98994 133.804 9.41661C133.718 9.59794 133.654 9.78994 133.612 9.99261ZM141.605 15.0006V6.84061H143.237V7.96061H143.333C143.568 7.56594 143.914 7.24061 144.373 6.98461C144.842 6.71794 145.354 6.58461 145.909 6.58461C146.912 6.58461 147.664 6.88328 148.165 7.48061C148.666 8.06728 148.917 8.85661 148.917 9.84861V15.0006H147.205V10.0726C147.205 9.41128 147.04 8.93128 146.709 8.63261C146.378 8.32328 145.946 8.16861 145.413 8.16861C144.997 8.16861 144.634 8.28594 144.325 8.52061C144.016 8.74461 143.77 9.04328 143.589 9.41661C143.418 9.78994 143.333 10.1899 143.333 10.6166V15.0006H141.605Z" fill="white"/>
</g>
</svg>
