<svg width="272" height="38" viewBox="0 0 272 38" fill="none" xmlns="http://www.w3.org/2000/svg">
<g id="de_order_with_Dark">
<path id="Left Text" d="M3.14847 30V9.952H7.29247L13.1445 25.212H13.3125L19.1925 9.952H23.3365V30H20.3125V18.66L20.4805 15.104H20.3125L14.4605 30H12.0245L6.17247 15.104H6.00447L6.17247 18.66V30H3.14847ZM29.3992 13.62C28.8392 13.62 28.3539 13.424 27.9432 13.032C27.5512 12.6213 27.3552 12.136 27.3552 11.576C27.3552 11.016 27.5512 10.54 27.9432 10.148C28.3539 9.756 28.8392 9.56 29.3992 9.56C29.9592 9.56 30.4352 9.756 30.8272 10.148C31.2379 10.54 31.4432 11.016 31.4432 11.576C31.4432 12.136 31.2379 12.6213 30.8272 13.032C30.4352 13.424 29.9592 13.62 29.3992 13.62ZM27.8872 30V15.72H30.9112V30H27.8872ZM36.3385 25.856V18.352H33.8465V15.72H36.3385V11.688H39.3625V15.72H42.8625V18.352H39.3625V25.212C39.3625 25.9213 39.5025 26.4627 39.7825 26.836C40.0812 27.2093 40.5758 27.396 41.2665 27.396C41.6212 27.396 41.9198 27.3493 42.1625 27.256C42.4238 27.1627 42.6852 27.032 42.9465 26.864V29.804C42.6292 29.9347 42.2932 30.0373 41.9385 30.112C41.5838 30.1867 41.1638 30.224 40.6785 30.224C39.3532 30.224 38.2985 29.8413 37.5145 29.076C36.7305 28.292 36.3385 27.2187 36.3385 25.856Z" fill="white"/>
<g id="GPay Logo (Dark)">
<g id="GPay">
<g id="Pay">
<path id="Fill 1" fill-rule="evenodd" clip-rule="evenodd" d="M94.5289 9.34665V17.5128H99.5649C100.765 17.5128 101.757 17.1096 102.541 16.3032C103.347 15.4988 103.75 14.5394 103.75 13.4288C103.75 12.3406 103.347 11.3924 102.541 10.586C101.757 9.75916 100.765 9.34479 99.5649 9.34479H94.5289V9.34665ZM94.5289 20.3872V29.8599H91.5205V6.47218H99.4993C101.527 6.47218 103.248 7.14787 104.666 8.49738C106.105 9.84688 106.824 11.4913 106.824 13.4288C106.824 15.411 106.105 17.0667 104.666 18.3938C103.27 19.7227 101.547 20.3854 99.4993 20.3854H94.5289V20.3872Z" fill="white"/>
<path id="Fill 3" fill-rule="evenodd" clip-rule="evenodd" d="M109.864 24.9602C109.864 25.7442 110.197 26.3975 110.862 26.9201C111.527 27.4427 112.306 27.704 113.2 27.704C114.465 27.704 115.591 27.2354 116.584 26.3004C117.576 25.3634 118.071 24.264 118.071 23.0022C117.133 22.2612 115.825 21.8916 114.147 21.8916C112.925 21.8916 111.907 22.1866 111.09 22.7745C110.273 23.3623 109.864 24.0886 109.864 24.9602ZM113.756 13.3317C115.98 13.3317 117.735 13.9253 119.022 15.1124C120.308 16.2995 120.95 17.9271 120.95 19.9952V29.8599H118.073V27.6387H117.942C116.699 29.4677 115.042 30.3825 112.972 30.3825C111.206 30.3825 109.728 29.8599 108.541 28.8146C107.353 27.7694 106.759 26.4628 106.759 24.8949C106.759 23.2393 107.385 21.9232 108.638 20.9434C109.892 19.9635 111.565 19.4726 113.658 19.4726C115.444 19.4726 116.916 19.7993 118.071 20.4525V19.7657C118.071 18.7204 117.656 17.8338 116.829 17.104C115.999 16.3742 115.031 16.0102 113.919 16.0102C112.239 16.0102 110.911 16.7176 109.93 18.1343L107.28 16.4675C108.741 14.377 110.899 13.3317 113.756 13.3317Z" fill="white"/>
<path id="Fill 5" fill-rule="evenodd" clip-rule="evenodd" d="M137.463 13.8543L127.423 36.9154H124.318L128.046 28.8464L121.44 13.8543H124.71L129.484 25.3522H129.55L134.193 13.8543H137.463Z" fill="white"/>
</g>
<g id="G">
<path id="Fill 8" fill-rule="evenodd" clip-rule="evenodd" d="M82.3729 18.3452C82.3729 17.3989 82.2926 16.4861 82.1412 15.6126H69.4536V20.7885H76.7205C76.4084 22.4757 75.4648 23.9112 74.0335 24.8725V28.2341H78.3704C80.9098 25.8935 82.3729 22.4348 82.3729 18.3452Z" fill="#4285F4"/>
<path id="Fill 10" fill-rule="evenodd" clip-rule="evenodd" d="M69.4536 31.4782C73.0843 31.4782 76.1412 30.2873 78.3704 28.2341L74.0335 24.8725C72.8264 25.6844 71.2717 26.1585 69.4536 26.1585C65.9444 26.1585 62.9659 23.7955 61.9009 20.6112H57.4331V24.0736C59.6474 28.4637 64.1973 31.4782 69.4536 31.4782Z" fill="#34A853"/>
<path id="Fill 12" fill-rule="evenodd" clip-rule="evenodd" d="M61.9009 20.6111C61.6281 19.7992 61.4787 18.9331 61.4787 18.0391C61.4787 17.145 61.6281 16.2789 61.9009 15.467V12.0045H57.4332C56.5176 13.8188 56 15.8683 56 18.0391C56 20.2098 56.5176 22.2595 57.4332 24.0736L61.9009 20.6111Z" fill="#FABB05"/>
<path id="Fill 14" fill-rule="evenodd" clip-rule="evenodd" d="M69.4536 9.91964C71.4362 9.91964 73.2132 10.6009 74.6146 11.9355V11.9374L78.4545 8.10163C76.1226 5.93272 73.0824 4.60001 69.4536 4.60001C64.1973 4.60001 59.6474 7.61447 57.4331 12.0046L61.9009 15.467C62.9659 12.2827 65.9444 9.91964 69.4536 9.91964Z" fill="#E94235"/>
</g>
</g>
</g>
<path id="Right Text" d="M158.38 30.448C157.279 30.448 156.327 30.2147 155.524 29.748C154.74 29.2627 154.161 28.712 153.788 28.096H153.62V30H150.764V9.952H153.788V15.664L153.62 17.652H153.788C154.161 17.036 154.74 16.4853 155.524 16C156.327 15.5147 157.279 15.272 158.38 15.272C159.687 15.272 160.853 15.5987 161.88 16.252C162.907 16.9053 163.719 17.8013 164.316 18.94C164.932 20.0787 165.24 21.3853 165.24 22.86C165.24 24.3347 164.932 25.6507 164.316 26.808C163.719 27.9467 162.907 28.8427 161.88 29.496C160.853 30.1307 159.687 30.448 158.38 30.448ZM157.932 27.676C158.679 27.676 159.379 27.48 160.032 27.088C160.685 26.696 161.217 26.1453 161.628 25.436C162.039 24.708 162.244 23.8493 162.244 22.86C162.244 21.8707 162.039 21.0213 161.628 20.312C161.217 19.584 160.685 19.024 160.032 18.632C159.379 18.24 158.679 18.044 157.932 18.044C157.185 18.044 156.485 18.24 155.832 18.632C155.179 19.024 154.647 19.584 154.236 20.312C153.825 21.0213 153.62 21.8707 153.62 22.86C153.62 23.8493 153.825 24.708 154.236 25.436C154.647 26.1453 155.179 26.696 155.832 27.088C156.485 27.48 157.185 27.676 157.932 27.676ZM174.842 30.448C173.442 30.448 172.191 30.1213 171.09 29.468C169.989 28.8147 169.121 27.9187 168.486 26.78C167.87 25.6413 167.562 24.344 167.562 22.888C167.562 21.5253 167.861 20.2653 168.458 19.108C169.055 17.9507 169.886 17.0267 170.95 16.336C172.033 15.6267 173.274 15.272 174.674 15.272C176.149 15.272 177.399 15.5893 178.426 16.224C179.471 16.8587 180.265 17.7267 180.806 18.828C181.347 19.9293 181.618 21.1707 181.618 22.552C181.618 22.7573 181.609 22.944 181.59 23.112C181.59 23.28 181.581 23.4107 181.562 23.504H170.53C170.679 24.9227 171.174 25.9867 172.014 26.696C172.873 27.4053 173.843 27.76 174.926 27.76C175.897 27.76 176.699 27.5453 177.334 27.116C177.969 26.668 178.473 26.1173 178.846 25.464L181.338 26.668C180.722 27.788 179.882 28.7027 178.818 29.412C177.754 30.1027 176.429 30.448 174.842 30.448ZM174.702 17.848C173.694 17.848 172.835 18.156 172.126 18.772C171.417 19.388 170.941 20.2093 170.698 21.236H178.622C178.585 20.7507 178.426 20.2467 178.146 19.724C177.866 19.2013 177.437 18.7627 176.858 18.408C176.298 18.0347 175.579 17.848 174.702 17.848ZM190.068 30.448C188.351 30.448 186.979 30.0747 185.952 29.328C184.925 28.5627 184.216 27.6573 183.824 26.612L186.54 25.436C186.876 26.2013 187.361 26.7893 187.996 27.2C188.631 27.592 189.349 27.788 190.152 27.788C190.899 27.788 191.543 27.6573 192.084 27.396C192.625 27.116 192.896 26.668 192.896 26.052C192.896 25.4547 192.625 25.016 192.084 24.736C191.543 24.456 190.871 24.2133 190.068 24.008L188.36 23.616C187.669 23.448 187.025 23.1867 186.428 22.832C185.831 22.4773 185.345 22.02 184.972 21.46C184.599 20.8813 184.412 20.2093 184.412 19.444C184.412 18.604 184.664 17.876 185.168 17.26C185.672 16.6253 186.335 16.14 187.156 15.804C187.996 15.4493 188.901 15.272 189.872 15.272C191.197 15.272 192.355 15.5333 193.344 16.056C194.352 16.56 195.089 17.3253 195.556 18.352L192.952 19.528C192.616 18.8933 192.177 18.4547 191.636 18.212C191.113 17.9507 190.535 17.82 189.9 17.82C189.191 17.82 188.593 17.9693 188.108 18.268C187.641 18.5667 187.408 18.94 187.408 19.388C187.408 19.8733 187.613 20.256 188.024 20.536C188.453 20.816 188.976 21.04 189.592 21.208L191.664 21.712C193.083 22.0667 194.147 22.608 194.856 23.336C195.565 24.0453 195.92 24.9133 195.92 25.94C195.92 26.8547 195.659 27.6573 195.136 28.348C194.613 29.02 193.904 29.5427 193.008 29.916C192.131 30.2707 191.151 30.448 190.068 30.448ZM200.235 25.856V18.352H197.743V15.72H200.235V11.688H203.259V15.72H206.759V18.352H203.259V25.212C203.259 25.9213 203.399 26.4627 203.679 26.836C203.977 27.2093 204.472 27.396 205.163 27.396C205.517 27.396 205.816 27.3493 206.059 27.256C206.32 27.1627 206.581 27.032 206.843 26.864V29.804C206.525 29.9347 206.189 30.0373 205.835 30.112C205.48 30.1867 205.06 30.224 204.575 30.224C203.249 30.224 202.195 29.8413 201.411 29.076C200.627 28.292 200.235 27.2187 200.235 25.856ZM215.937 30.448C214.537 30.448 213.287 30.1213 212.185 29.468C211.084 28.8147 210.216 27.9187 209.581 26.78C208.965 25.6413 208.657 24.344 208.657 22.888C208.657 21.5253 208.956 20.2653 209.553 19.108C210.151 17.9507 210.981 17.0267 212.045 16.336C213.128 15.6267 214.369 15.272 215.769 15.272C217.244 15.272 218.495 15.5893 219.521 16.224C220.567 16.8587 221.36 17.7267 221.901 18.828C222.443 19.9293 222.713 21.1707 222.713 22.552C222.713 22.7573 222.704 22.944 222.685 23.112C222.685 23.28 222.676 23.4107 222.657 23.504H211.625C211.775 24.9227 212.269 25.9867 213.109 26.696C213.968 27.4053 214.939 27.76 216.021 27.76C216.992 27.76 217.795 27.5453 218.429 27.116C219.064 26.668 219.568 26.1173 219.941 25.464L222.433 26.668C221.817 27.788 220.977 28.7027 219.913 29.412C218.849 30.1027 217.524 30.448 215.937 30.448ZM215.797 17.848C214.789 17.848 213.931 18.156 213.221 18.772C212.512 19.388 212.036 20.2093 211.793 21.236H219.717C219.68 20.7507 219.521 20.2467 219.241 19.724C218.961 19.2013 218.532 18.7627 217.953 18.408C217.393 18.0347 216.675 17.848 215.797 17.848ZM225.847 30V9.952H228.871V30H225.847ZM232.764 30V9.952H235.788V30H232.764ZM246.04 30.448C244.64 30.448 243.39 30.1213 242.288 29.468C241.187 28.8147 240.319 27.9187 239.684 26.78C239.068 25.6413 238.76 24.344 238.76 22.888C238.76 21.5253 239.059 20.2653 239.656 19.108C240.254 17.9507 241.084 17.0267 242.148 16.336C243.231 15.6267 244.472 15.272 245.872 15.272C247.347 15.272 248.598 15.5893 249.624 16.224C250.67 16.8587 251.463 17.7267 252.004 18.828C252.546 19.9293 252.816 21.1707 252.816 22.552C252.816 22.7573 252.807 22.944 252.788 23.112C252.788 23.28 252.779 23.4107 252.76 23.504H241.728C241.878 24.9227 242.372 25.9867 243.212 26.696C244.071 27.4053 245.042 27.76 246.124 27.76C247.095 27.76 247.898 27.5453 248.532 27.116C249.167 26.668 249.671 26.1173 250.044 25.464L252.536 26.668C251.92 27.788 251.08 28.7027 250.016 29.412C248.952 30.1027 247.627 30.448 246.04 30.448ZM245.9 17.848C244.892 17.848 244.034 18.156 243.324 18.772C242.615 19.388 242.139 20.2093 241.896 21.236H249.82C249.783 20.7507 249.624 20.2467 249.344 19.724C249.064 19.2013 248.635 18.7627 248.056 18.408C247.496 18.0347 246.778 17.848 245.9 17.848ZM255.922 30V15.72H258.778V17.68H258.946C259.356 16.9893 259.963 16.42 260.766 15.972C261.587 15.5053 262.483 15.272 263.454 15.272C265.208 15.272 266.524 15.7947 267.402 16.84C268.279 17.8853 268.718 19.2667 268.718 20.984V30H265.722V21.376C265.722 20.2187 265.432 19.3787 264.854 18.856C264.275 18.3147 263.519 18.044 262.586 18.044C261.858 18.044 261.223 18.2493 260.682 18.66C260.14 19.052 259.711 19.5747 259.394 20.228C259.095 20.8813 258.946 21.5813 258.946 22.328V30H255.922Z" fill="white"/>
</g>
</svg>
