<svg width="155" height="21" viewBox="0 0 155 21" fill="none" xmlns="http://www.w3.org/2000/svg">
<g id="de_order_with_Pay_NBG">
<path id="Left Text" d="M1.69913 15.0006V3.54461H4.06713L7.41113 12.2646H7.50713L10.8671 3.54461H13.2351V15.0006H11.5071V8.52061L11.6031 6.48861H11.5071L8.16313 15.0006H6.77113L3.42713 6.48861H3.33113L3.42713 8.52061V15.0006H1.69913ZM15.8141 15.0006V6.84061H17.5421V15.0006H15.8141ZM16.6781 5.64061C16.3581 5.64061 16.0808 5.52861 15.8461 5.30461C15.6221 5.06994 15.5101 4.79261 15.5101 4.47261C15.5101 4.14194 15.6221 3.86994 15.8461 3.65661C16.0808 3.43261 16.3581 3.32061 16.6781 3.32061C17.0088 3.32061 17.2861 3.43261 17.5101 3.65661C17.7341 3.86994 17.8461 4.14194 17.8461 4.47261C17.8461 4.79261 17.7341 5.06994 17.5101 5.30461C17.2861 5.52861 17.0088 5.64061 16.6781 5.64061ZM19.198 6.84061H20.622V4.53661H22.35V6.84061H24.35V8.34461H22.35V12.2646C22.35 12.6699 22.43 12.9793 22.59 13.1926C22.7607 13.4059 23.0433 13.5126 23.438 13.5126C23.63 13.5126 23.8007 13.4859 23.95 13.4326C24.0993 13.3686 24.2487 13.2939 24.398 13.2086V14.8886C24.2167 14.9633 24.0247 15.0219 23.822 15.0646C23.6193 15.1073 23.3793 15.1286 23.102 15.1286C22.3447 15.1286 21.742 14.9099 21.294 14.4726C20.846 14.0246 20.622 13.4113 20.622 12.6326V8.34461H19.198V6.84061Z" fill="white"/>
<g id="GPay (Dark)">
<g id="GPay">
<g id="Pay">
<path id="Fill 1" fill-rule="evenodd" clip-rule="evenodd" d="M53.3563 3.42339V8.16175H56.2784C56.9745 8.16175 57.5501 7.92781 58.0055 7.45993C58.4728 6.99313 58.707 6.43644 58.707 5.79203C58.707 5.16061 58.4728 4.61041 58.0055 4.14254C57.5501 3.66274 56.9745 3.4223 56.2784 3.4223H53.3563V3.42339ZM53.3563 9.82966V15.3262H51.6107V1.75549H56.2404C57.4169 1.75549 58.4154 2.14756 59.2383 2.93061C60.0732 3.71365 60.4906 4.66782 60.4906 5.79203C60.4906 6.94224 60.0731 7.90291 59.2383 8.67296C58.4283 9.44409 57.4287 9.82858 56.2404 9.82858H53.3563V9.82966Z" fill="white"/>
<path id="Fill 3" fill-rule="evenodd" clip-rule="evenodd" d="M62.2546 12.4831C62.2546 12.9379 62.4476 13.317 62.8337 13.6203C63.2195 13.9235 63.6717 14.0752 64.19 14.0752C64.9239 14.0752 65.5777 13.8032 66.1535 13.2607C66.7293 12.717 67.0165 12.0791 67.0165 11.3469C66.4722 10.917 65.7133 10.7025 64.7396 10.7025C64.0306 10.7025 63.4397 10.8736 62.9659 11.2148C62.492 11.5559 62.2546 11.9773 62.2546 12.4831M64.513 5.73566C65.8033 5.73566 66.8214 6.08007 67.5685 6.76889C68.3145 7.45771 68.6873 8.40213 68.6873 9.60216V15.3261H67.0177V14.0373H66.9417C66.2207 15.0985 65.259 15.6294 64.0578 15.6294C63.0332 15.6294 62.1755 15.3261 61.4869 14.7196C60.7975 14.1131 60.4527 13.3549 60.4527 12.4452C60.4527 11.4845 60.8158 10.7208 61.5433 10.1523C62.2708 9.58375 63.2413 9.2989 64.4557 9.2989C65.4921 9.2989 66.3465 9.48844 67.0165 9.86751V9.46894C67.0165 8.86243 66.7758 8.34798 66.2956 7.92451C65.8141 7.50103 65.2525 7.28984 64.6074 7.28984C63.6326 7.28984 62.8618 7.70032 62.2926 8.52235L60.7551 7.55519C61.6029 6.34217 62.8552 5.73566 64.513 5.73566" fill="white"/>
<path id="Fill 5" fill-rule="evenodd" clip-rule="evenodd" d="M78.2687 6.03894L72.4432 19.4201H70.6411L72.8043 14.738L68.9714 6.03894H70.8688L73.639 12.7106H73.677L76.3713 6.03894H78.2687Z" fill="white"/>
</g>
<g id="G">
<path id="Fill 8" fill-rule="evenodd" clip-rule="evenodd" d="M46.3029 8.64473C46.3029 8.09563 46.2562 7.56601 46.1684 7.05914H38.8065V10.0625H43.0231C42.842 11.0414 42.2944 11.8744 41.4639 12.4322V14.3828H43.9804C45.4539 13.0246 46.3029 11.0177 46.3029 8.64473" fill="#4285F4"/>
<path id="Fill 10" fill-rule="evenodd" clip-rule="evenodd" d="M38.8065 16.2651C40.9131 16.2651 42.6869 15.5741 43.9804 14.3828L41.4639 12.4322C40.7635 12.9033 39.8614 13.1784 38.8065 13.1784C36.7703 13.1784 35.042 11.8073 34.424 9.95959H31.8316V11.9687C33.1164 14.516 35.7565 16.2651 38.8065 16.2651" fill="#34A853"/>
<path id="Fill 12" fill-rule="evenodd" clip-rule="evenodd" d="M34.424 9.9596C34.2657 9.48847 34.179 8.98593 34.179 8.46715C34.179 7.94837 34.2657 7.44583 34.424 6.9747V4.96564H31.8316C31.3003 6.01837 31 7.20756 31 8.46715C31 9.72674 31.3003 10.916 31.8316 11.9687L34.424 9.9596Z" fill="#FABB05"/>
<path id="Fill 14" fill-rule="evenodd" clip-rule="evenodd" d="M38.8065 3.75583C39.9568 3.75583 40.9879 4.15115 41.8011 4.92553V4.92661L44.0292 2.70094C42.6761 1.44243 40.912 0.669128 38.8065 0.669128C35.7565 0.669128 33.1164 2.41826 31.8316 4.9656L34.424 6.97467C35.042 5.12698 36.7703 3.75583 38.8065 3.75583" fill="#E94235"/>
</g>
</g>
</g>
<path id="Right Text" d="M90.01 15.2566C89.594 15.2566 89.2153 15.1926 88.874 15.0646C88.5327 14.9366 88.234 14.7713 87.978 14.5686C87.7327 14.3553 87.5353 14.1366 87.386 13.9126H87.29V15.0006H85.658V3.54461H87.386V6.80861L87.29 7.94461H87.386C87.5353 7.70994 87.7327 7.49128 87.978 7.28861C88.234 7.07528 88.5327 6.90461 88.874 6.77661C89.2153 6.64861 89.594 6.58461 90.01 6.58461C90.7567 6.58461 91.4233 6.77128 92.01 7.14461C92.5967 7.51794 93.0607 8.02994 93.402 8.68061C93.754 9.33128 93.93 10.0779 93.93 10.9206C93.93 11.7633 93.754 12.5099 93.402 13.1606C93.0607 13.8113 92.5967 14.3233 92.01 14.6966C91.4233 15.0699 90.7567 15.2566 90.01 15.2566ZM89.754 13.6726C90.1807 13.6726 90.5807 13.5606 90.954 13.3366C91.338 13.1126 91.642 12.7926 91.866 12.3766C92.1007 11.9606 92.218 11.4753 92.218 10.9206C92.218 10.3553 92.1007 9.86994 91.866 9.46461C91.642 9.04861 91.338 8.72861 90.954 8.50461C90.5807 8.28061 90.1807 8.16861 89.754 8.16861C89.3273 8.16861 88.9273 8.28061 88.554 8.50461C88.1807 8.72861 87.8767 9.04861 87.642 9.46461C87.4073 9.86994 87.29 10.3553 87.29 10.9206C87.29 11.4859 87.4073 11.9766 87.642 12.3926C87.8767 12.7979 88.1807 13.1126 88.554 13.3366C88.9273 13.5606 89.3273 13.6726 89.754 13.6726ZM99.3954 15.2566C98.5954 15.2566 97.8807 15.0699 97.2514 14.6966C96.622 14.3233 96.126 13.8113 95.7634 13.1606C95.4114 12.5099 95.2354 11.7686 95.2354 10.9366C95.2354 10.1579 95.406 9.43794 95.7474 8.77661C96.0887 8.11528 96.5634 7.58728 97.1714 7.19261C97.79 6.78728 98.4994 6.58461 99.2994 6.58461C100.142 6.58461 100.857 6.76594 101.443 7.12861C102.041 7.49128 102.494 7.98728 102.803 8.61661C103.113 9.24594 103.267 9.95528 103.267 10.7446C103.267 10.8619 103.262 10.9686 103.251 11.0646C103.251 11.1606 103.246 11.2353 103.235 11.2886H96.9314C96.974 11.7366 97.086 12.1259 97.2674 12.4566C97.502 12.8726 97.8114 13.1873 98.1954 13.4006C98.5794 13.6139 98.9954 13.7206 99.4434 13.7206C99.9874 13.7206 100.441 13.5979 100.803 13.3526C101.177 13.0966 101.47 12.7819 101.683 12.4086L103.107 13.0966C102.755 13.7366 102.275 14.2593 101.667 14.6646C101.059 15.0593 100.302 15.2566 99.3954 15.2566ZM97.0274 9.99261H101.555C101.545 9.78994 101.491 9.57661 101.395 9.35261C101.299 9.11794 101.161 8.90461 100.979 8.71261C100.798 8.52061 100.569 8.36594 100.291 8.24861C100.014 8.12061 99.6887 8.05661 99.3154 8.05661C98.846 8.05661 98.43 8.17928 98.0674 8.42461C97.7047 8.65928 97.422 8.98994 97.2194 9.41661C97.134 9.59794 97.07 9.78994 97.0274 9.99261ZM108.075 15.2566C107.424 15.2566 106.859 15.1606 106.379 14.9686C105.899 14.7659 105.504 14.4993 105.195 14.1686C104.885 13.8273 104.656 13.4593 104.507 13.0646L106.059 12.3926C106.251 12.8299 106.523 13.1659 106.875 13.4006C107.237 13.6246 107.653 13.7366 108.123 13.7366C108.549 13.7366 108.917 13.6619 109.227 13.5126C109.536 13.3526 109.691 13.0966 109.691 12.7446C109.691 12.5206 109.616 12.3393 109.467 12.2006C109.328 12.0513 109.136 11.9286 108.891 11.8326C108.656 11.7366 108.384 11.6513 108.075 11.5766L107.099 11.3526C106.715 11.2566 106.347 11.1073 105.995 10.9046C105.653 10.6913 105.376 10.4246 105.163 10.1046C104.949 9.78461 104.843 9.40594 104.843 8.96861C104.843 8.47794 104.981 8.05661 105.259 7.70461C105.547 7.34194 105.931 7.06461 106.411 6.87261C106.891 6.68061 107.408 6.58461 107.963 6.58461C108.475 6.58461 108.939 6.65394 109.355 6.79261C109.781 6.92061 110.149 7.11794 110.459 7.38461C110.779 7.64061 111.029 7.96061 111.211 8.34461L109.723 9.01661C109.541 8.65394 109.296 8.40328 108.987 8.26461C108.677 8.11528 108.341 8.04061 107.979 8.04061C107.573 8.04061 107.232 8.12594 106.955 8.29661C106.688 8.45661 106.555 8.66994 106.555 8.93661C106.555 9.21394 106.672 9.43261 106.907 9.59261C107.152 9.75261 107.451 9.88061 107.803 9.97661L108.987 10.2646C109.797 10.4673 110.405 10.7766 110.811 11.1926C111.216 11.5979 111.419 12.0939 111.419 12.6806C111.419 13.2033 111.269 13.6619 110.971 14.0566C110.672 14.4406 110.267 14.7393 109.755 14.9526C109.253 15.1553 108.693 15.2566 108.075 15.2566ZM112.439 6.84061H113.863V4.53661H115.591V6.84061H117.591V8.34461H115.591V12.2646C115.591 12.6699 115.671 12.9793 115.831 13.1926C116.001 13.4059 116.284 13.5126 116.679 13.5126C116.871 13.5126 117.041 13.4859 117.191 13.4326C117.34 13.3686 117.489 13.2939 117.639 13.2086V14.8886C117.457 14.9633 117.265 15.0219 117.063 15.0646C116.86 15.1073 116.62 15.1286 116.343 15.1286C115.585 15.1286 114.983 14.9099 114.535 14.4726C114.087 14.0246 113.863 13.4113 113.863 12.6326V8.34461H112.439V6.84061ZM122.814 15.2566C122.014 15.2566 121.299 15.0699 120.67 14.6966C120.041 14.3233 119.545 13.8113 119.182 13.1606C118.83 12.5099 118.654 11.7686 118.654 10.9366C118.654 10.1579 118.825 9.43794 119.166 8.77661C119.507 8.11528 119.982 7.58728 120.59 7.19261C121.209 6.78728 121.918 6.58461 122.718 6.58461C123.561 6.58461 124.275 6.76594 124.862 7.12861C125.459 7.49128 125.913 7.98728 126.222 8.61661C126.531 9.24594 126.686 9.95528 126.686 10.7446C126.686 10.8619 126.681 10.9686 126.67 11.0646C126.67 11.1606 126.665 11.2353 126.654 11.2886H120.35C120.393 11.7366 120.505 12.1259 120.686 12.4566C120.921 12.8726 121.23 13.1873 121.614 13.4006C121.998 13.6139 122.414 13.7206 122.862 13.7206C123.406 13.7206 123.859 13.5979 124.222 13.3526C124.595 13.0966 124.889 12.7819 125.102 12.4086L126.526 13.0966C126.174 13.7366 125.694 14.2593 125.086 14.6646C124.478 15.0593 123.721 15.2566 122.814 15.2566ZM120.446 9.99261H124.974C124.963 9.78994 124.91 9.57661 124.814 9.35261C124.718 9.11794 124.579 8.90461 124.398 8.71261C124.217 8.52061 123.987 8.36594 123.71 8.24861C123.433 8.12061 123.107 8.05661 122.734 8.05661C122.265 8.05661 121.849 8.17928 121.486 8.42461C121.123 8.65928 120.841 8.98994 120.638 9.41661C120.553 9.59794 120.489 9.78994 120.446 9.99261ZM128.455 15.0006V3.54461H130.183V15.0006H128.455ZM132.386 15.0006V3.54461H134.114V15.0006H132.386ZM139.952 15.2566C139.152 15.2566 138.437 15.0699 137.808 14.6966C137.178 14.3233 136.682 13.8113 136.32 13.1606C135.968 12.5099 135.792 11.7686 135.792 10.9366C135.792 10.1579 135.962 9.43794 136.304 8.77661C136.645 8.11528 137.12 7.58728 137.728 7.19261C138.346 6.78728 139.056 6.58461 139.856 6.58461C140.698 6.58461 141.413 6.76594 142 7.12861C142.597 7.49128 143.05 7.98728 143.36 8.61661C143.669 9.24594 143.824 9.95528 143.824 10.7446C143.824 10.8619 143.818 10.9686 143.808 11.0646C143.808 11.1606 143.802 11.2353 143.792 11.2886H137.488C137.53 11.7366 137.642 12.1259 137.824 12.4566C138.058 12.8726 138.368 13.1873 138.752 13.4006C139.136 13.6139 139.552 13.7206 140 13.7206C140.544 13.7206 140.997 13.5979 141.36 13.3526C141.733 13.0966 142.026 12.7819 142.24 12.4086L143.664 13.0966C143.312 13.7366 142.832 14.2593 142.224 14.6646C141.616 15.0593 140.858 15.2566 139.952 15.2566ZM137.584 9.99261H142.112C142.101 9.78994 142.048 9.57661 141.952 9.35261C141.856 9.11794 141.717 8.90461 141.536 8.71261C141.354 8.52061 141.125 8.36594 140.848 8.24861C140.57 8.12061 140.245 8.05661 139.872 8.05661C139.402 8.05661 138.986 8.17928 138.624 8.42461C138.261 8.65928 137.978 8.98994 137.776 9.41661C137.69 9.59794 137.626 9.78994 137.584 9.99261ZM145.577 15.0006V6.84061H147.209V7.96061H147.305C147.539 7.56594 147.886 7.24061 148.345 6.98461C148.814 6.71794 149.326 6.58461 149.881 6.58461C150.883 6.58461 151.635 6.88328 152.137 7.48061C152.638 8.06728 152.889 8.85661 152.889 9.84861V15.0006H151.177V10.0726C151.177 9.41128 151.011 8.93128 150.681 8.63261C150.35 8.32328 149.918 8.16861 149.385 8.16861C148.969 8.16861 148.606 8.28594 148.297 8.52061C147.987 8.74461 147.742 9.04328 147.561 9.41661C147.39 9.78994 147.305 10.1899 147.305 10.6166V15.0006H145.577Z" fill="white"/>
</g>
</svg>
