<svg width="171" height="21" viewBox="0 0 171 21" fill="none" xmlns="http://www.w3.org/2000/svg">
<g id="de_subscribe_with_Pay_NBG">
<path id="Left Text" d="M1.69913 15.0006V3.54461H4.06713L7.41113 12.2646H7.50713L10.8671 3.54461H13.2351V15.0006H11.5071V8.52061L11.6031 6.48861H11.5071L8.16313 15.0006H6.77113L3.42713 6.48861H3.33113L3.42713 8.52061V15.0006H1.69913ZM15.8141 15.0006V6.84061H17.5421V15.0006H15.8141ZM16.6781 5.64061C16.3581 5.64061 16.0808 5.52861 15.8461 5.30461C15.6221 5.06994 15.5101 4.79261 15.5101 4.47261C15.5101 4.14194 15.6221 3.86994 15.8461 3.65661C16.0808 3.43261 16.3581 3.32061 16.6781 3.32061C17.0088 3.32061 17.2861 3.43261 17.5101 3.65661C17.7341 3.86994 17.8461 4.14194 17.8461 4.47261C17.8461 4.79261 17.7341 5.06994 17.5101 5.30461C17.2861 5.52861 17.0088 5.64061 16.6781 5.64061ZM19.198 6.84061H20.622V4.53661H22.35V6.84061H24.35V8.34461H22.35V12.2646C22.35 12.6699 22.43 12.9793 22.59 13.1926C22.7607 13.4059 23.0433 13.5126 23.438 13.5126C23.63 13.5126 23.8007 13.4859 23.95 13.4326C24.0993 13.3686 24.2487 13.2939 24.398 13.2086V14.8886C24.2167 14.9633 24.0247 15.0219 23.822 15.0646C23.6193 15.1073 23.3793 15.1286 23.102 15.1286C22.3447 15.1286 21.742 14.9099 21.294 14.4726C20.846 14.0246 20.622 13.4113 20.622 12.6326V8.34461H19.198V6.84061Z" fill="white"/>
<g id="GPay (Dark)">
<g id="GPay">
<g id="Pay">
<path id="Fill 1" fill-rule="evenodd" clip-rule="evenodd" d="M53.3563 3.42339V8.16175H56.2784C56.9745 8.16175 57.5501 7.92781 58.0055 7.45993C58.4728 6.99313 58.707 6.43644 58.707 5.79203C58.707 5.16061 58.4728 4.61041 58.0055 4.14254C57.5501 3.66274 56.9745 3.4223 56.2784 3.4223H53.3563V3.42339ZM53.3563 9.82966V15.3262H51.6107V1.75549H56.2404C57.4169 1.75549 58.4154 2.14756 59.2383 2.93061C60.0732 3.71365 60.4906 4.66782 60.4906 5.79203C60.4906 6.94224 60.0731 7.90291 59.2383 8.67296C58.4283 9.44409 57.4287 9.82858 56.2404 9.82858H53.3563V9.82966Z" fill="white"/>
<path id="Fill 3" fill-rule="evenodd" clip-rule="evenodd" d="M62.2546 12.4831C62.2546 12.9379 62.4476 13.317 62.8337 13.6203C63.2195 13.9235 63.6717 14.0752 64.19 14.0752C64.9239 14.0752 65.5777 13.8032 66.1535 13.2607C66.7293 12.717 67.0165 12.0791 67.0165 11.3469C66.4722 10.917 65.7133 10.7025 64.7396 10.7025C64.0306 10.7025 63.4397 10.8736 62.9659 11.2148C62.492 11.5559 62.2546 11.9773 62.2546 12.4831M64.513 5.73566C65.8033 5.73566 66.8214 6.08007 67.5685 6.76889C68.3145 7.45771 68.6873 8.40213 68.6873 9.60216V15.3261H67.0177V14.0373H66.9417C66.2207 15.0985 65.259 15.6294 64.0578 15.6294C63.0332 15.6294 62.1755 15.3261 61.4869 14.7196C60.7975 14.1131 60.4527 13.3549 60.4527 12.4452C60.4527 11.4845 60.8158 10.7208 61.5433 10.1523C62.2708 9.58375 63.2413 9.2989 64.4557 9.2989C65.4921 9.2989 66.3465 9.48844 67.0165 9.86751V9.46894C67.0165 8.86243 66.7758 8.34798 66.2956 7.92451C65.8141 7.50103 65.2525 7.28984 64.6074 7.28984C63.6326 7.28984 62.8618 7.70032 62.2926 8.52235L60.7551 7.55519C61.6029 6.34217 62.8552 5.73566 64.513 5.73566" fill="white"/>
<path id="Fill 5" fill-rule="evenodd" clip-rule="evenodd" d="M78.2687 6.03894L72.4432 19.4201H70.6411L72.8043 14.738L68.9714 6.03894H70.8688L73.639 12.7106H73.677L76.3713 6.03894H78.2687Z" fill="white"/>
</g>
<g id="G">
<path id="Fill 8" fill-rule="evenodd" clip-rule="evenodd" d="M46.3029 8.64473C46.3029 8.09563 46.2562 7.56601 46.1684 7.05914H38.8065V10.0625H43.0231C42.842 11.0414 42.2944 11.8744 41.4639 12.4322V14.3828H43.9804C45.4539 13.0246 46.3029 11.0177 46.3029 8.64473" fill="#4285F4"/>
<path id="Fill 10" fill-rule="evenodd" clip-rule="evenodd" d="M38.8065 16.2651C40.9131 16.2651 42.6869 15.5741 43.9804 14.3828L41.4639 12.4322C40.7635 12.9033 39.8614 13.1784 38.8065 13.1784C36.7703 13.1784 35.042 11.8073 34.424 9.95959H31.8316V11.9687C33.1164 14.516 35.7565 16.2651 38.8065 16.2651" fill="#34A853"/>
<path id="Fill 12" fill-rule="evenodd" clip-rule="evenodd" d="M34.424 9.9596C34.2657 9.48847 34.179 8.98593 34.179 8.46715C34.179 7.94837 34.2657 7.44583 34.424 6.9747V4.96564H31.8316C31.3003 6.01837 31 7.20756 31 8.46715C31 9.72674 31.3003 10.916 31.8316 11.9687L34.424 9.9596Z" fill="#FABB05"/>
<path id="Fill 14" fill-rule="evenodd" clip-rule="evenodd" d="M38.8065 3.75583C39.9568 3.75583 40.9879 4.15115 41.8011 4.92553V4.92661L44.0292 2.70094C42.6761 1.44243 40.912 0.669128 38.8065 0.669128C35.7565 0.669128 33.1164 2.41826 31.8316 4.9656L34.424 6.97467C35.042 5.12698 36.7703 3.75583 38.8065 3.75583" fill="#E94235"/>
</g>
</g>
</g>
<path id="Right Text" d="M88.218 15.2566C87.6313 15.2566 87.1087 15.1393 86.65 14.9046C86.202 14.6699 85.8447 14.3499 85.578 13.9446C85.322 13.5286 85.194 13.0539 85.194 12.5206C85.194 11.9339 85.3433 11.4379 85.642 11.0326C85.9513 10.6273 86.362 10.3179 86.874 10.1046C87.386 9.89128 87.9513 9.78461 88.57 9.78461C88.9113 9.78461 89.226 9.81128 89.514 9.86461C89.8127 9.90728 90.0687 9.96061 90.282 10.0246C90.506 10.0886 90.682 10.1579 90.81 10.2326V9.80061C90.81 9.26728 90.618 8.84061 90.234 8.52061C89.85 8.20061 89.354 8.04061 88.746 8.04061C88.33 8.04061 87.9353 8.13661 87.562 8.32861C87.1887 8.50994 86.89 8.76061 86.666 9.08061L85.482 8.16861C85.7167 7.83794 85.9993 7.55528 86.33 7.32061C86.6713 7.08594 87.05 6.90461 87.466 6.77661C87.8927 6.64861 88.3353 6.58461 88.794 6.58461C89.978 6.58461 90.89 6.87794 91.53 7.46461C92.17 8.04061 92.49 8.85128 92.49 9.89661V15.0006H90.81V13.9926H90.714C90.5753 14.2059 90.3833 14.4086 90.138 14.6006C89.9033 14.7926 89.6207 14.9473 89.29 15.0646C88.97 15.1926 88.6127 15.2566 88.218 15.2566ZM88.522 13.8486C88.97 13.8486 89.3647 13.7419 89.706 13.5286C90.058 13.3153 90.33 13.0379 90.522 12.6966C90.714 12.3446 90.81 11.9659 90.81 11.5606C90.5753 11.4219 90.2873 11.3099 89.946 11.2246C89.6153 11.1286 89.2633 11.0806 88.89 11.0806C88.186 11.0806 87.6847 11.2193 87.386 11.4966C87.0873 11.7739 86.938 12.1206 86.938 12.5366C86.938 12.9206 87.082 13.2353 87.37 13.4806C87.658 13.7259 88.042 13.8486 88.522 13.8486ZM98.8944 15.2566C98.4784 15.2566 98.0997 15.1926 97.7584 15.0646C97.417 14.9366 97.1184 14.7713 96.8624 14.5686C96.617 14.3553 96.4197 14.1366 96.2704 13.9126H96.1744V15.0006H94.5424V3.54461H96.2704V6.80861L96.1744 7.94461H96.2704C96.4197 7.70994 96.617 7.49128 96.8624 7.28861C97.1184 7.07528 97.417 6.90461 97.7584 6.77661C98.0997 6.64861 98.4784 6.58461 98.8944 6.58461C99.641 6.58461 100.308 6.77128 100.894 7.14461C101.481 7.51794 101.945 8.02994 102.286 8.68061C102.638 9.33128 102.814 10.0779 102.814 10.9206C102.814 11.7633 102.638 12.5099 102.286 13.1606C101.945 13.8113 101.481 14.3233 100.894 14.6966C100.308 15.0699 99.641 15.2566 98.8944 15.2566ZM98.6384 13.6726C99.065 13.6726 99.465 13.5606 99.8384 13.3366C100.222 13.1126 100.526 12.7926 100.75 12.3766C100.985 11.9606 101.102 11.4753 101.102 10.9206C101.102 10.3553 100.985 9.86994 100.75 9.46461C100.526 9.04861 100.222 8.72861 99.8384 8.50461C99.465 8.28061 99.065 8.16861 98.6384 8.16861C98.2117 8.16861 97.8117 8.28061 97.4384 8.50461C97.065 8.72861 96.761 9.04861 96.5264 9.46461C96.2917 9.86994 96.1744 10.3553 96.1744 10.9206C96.1744 11.4859 96.2917 11.9766 96.5264 12.3926C96.761 12.7979 97.065 13.1126 97.4384 13.3366C97.8117 13.5606 98.2117 13.6726 98.6384 13.6726ZM108.392 15.2566C107.549 15.2566 106.808 15.0646 106.168 14.6806C105.528 14.2966 105.026 13.7793 104.664 13.1286C104.301 12.4673 104.12 11.7313 104.12 10.9206C104.12 10.1099 104.301 9.37928 104.664 8.72861C105.026 8.06728 105.528 7.54461 106.168 7.16061C106.808 6.77661 107.549 6.58461 108.392 6.58461C109.224 6.58461 109.96 6.78194 110.6 7.17661C111.24 7.56061 111.741 8.07794 112.104 8.72861C112.466 9.37928 112.648 10.1099 112.648 10.9206C112.648 11.7313 112.466 12.4673 112.104 13.1286C111.741 13.7793 111.24 14.2966 110.6 14.6806C109.96 15.0646 109.224 15.2566 108.392 15.2566ZM108.392 13.6726C108.84 13.6726 109.256 13.5659 109.64 13.3526C110.024 13.1286 110.333 12.8139 110.568 12.4086C110.813 11.9926 110.936 11.4966 110.936 10.9206C110.936 10.3446 110.813 9.85394 110.568 9.44861C110.333 9.03261 110.024 8.71794 109.64 8.50461C109.256 8.28061 108.84 8.16861 108.392 8.16861C107.944 8.16861 107.522 8.28061 107.128 8.50461C106.744 8.71794 106.429 9.03261 106.184 9.44861C105.949 9.85394 105.832 10.3446 105.832 10.9206C105.832 11.4966 105.949 11.9926 106.184 12.4086C106.429 12.8139 106.749 13.1286 107.144 13.3526C107.538 13.5659 107.954 13.6726 108.392 13.6726ZM114.233 15.0006V6.84061H115.865V7.96061H115.961C116.196 7.56594 116.542 7.24061 117.001 6.98461C117.47 6.71794 117.982 6.58461 118.537 6.58461C119.54 6.58461 120.292 6.88328 120.793 7.48061C121.294 8.06728 121.545 8.85661 121.545 9.84861V15.0006H119.833V10.0726C119.833 9.41128 119.668 8.93128 119.337 8.63261C119.006 8.32328 118.574 8.16861 118.041 8.16861C117.625 8.16861 117.262 8.28594 116.953 8.52061C116.644 8.74461 116.398 9.04328 116.217 9.41661C116.046 9.78994 115.961 10.1899 115.961 10.6166V15.0006H114.233ZM123.664 15.0006V6.84061H125.296V7.96061H125.392C125.627 7.56594 125.974 7.24061 126.432 6.98461C126.902 6.71794 127.414 6.58461 127.968 6.58461C128.971 6.58461 129.723 6.88328 130.224 7.48061C130.726 8.06728 130.976 8.85661 130.976 9.84861V15.0006H129.264V10.0726C129.264 9.41128 129.099 8.93128 128.768 8.63261C128.438 8.32328 128.006 8.16861 127.472 8.16861C127.056 8.16861 126.694 8.28594 126.384 8.52061C126.075 8.74461 125.83 9.04328 125.648 9.41661C125.478 9.78994 125.392 10.1899 125.392 10.6166V15.0006H123.664ZM133.223 15.0006V6.84061H134.951V15.0006H133.223ZM134.087 5.64061C133.767 5.64061 133.49 5.52861 133.255 5.30461C133.031 5.06994 132.919 4.79261 132.919 4.47261C132.919 4.14194 133.031 3.86994 133.255 3.65661C133.49 3.43261 133.767 3.32061 134.087 3.32061C134.418 3.32061 134.695 3.43261 134.919 3.65661C135.143 3.86994 135.255 4.14194 135.255 4.47261C135.255 4.79261 135.143 5.06994 134.919 5.30461C134.695 5.52861 134.418 5.64061 134.087 5.64061ZM140.895 15.2566C140.095 15.2566 139.381 15.0699 138.751 14.6966C138.122 14.3233 137.626 13.8113 137.263 13.1606C136.911 12.5099 136.735 11.7686 136.735 10.9366C136.735 10.1579 136.906 9.43794 137.247 8.77661C137.589 8.11528 138.063 7.58728 138.671 7.19261C139.29 6.78728 139.999 6.58461 140.799 6.58461C141.642 6.58461 142.357 6.76594 142.943 7.12861C143.541 7.49128 143.994 7.98728 144.303 8.61661C144.613 9.24594 144.767 9.95528 144.767 10.7446C144.767 10.8619 144.762 10.9686 144.751 11.0646C144.751 11.1606 144.746 11.2353 144.735 11.2886H138.431C138.474 11.7366 138.586 12.1259 138.767 12.4566C139.002 12.8726 139.311 13.1873 139.695 13.4006C140.079 13.6139 140.495 13.7206 140.943 13.7206C141.487 13.7206 141.941 13.5979 142.303 13.3526C142.677 13.0966 142.97 12.7819 143.183 12.4086L144.607 13.0966C144.255 13.7366 143.775 14.2593 143.167 14.6646C142.559 15.0593 141.802 15.2566 140.895 15.2566ZM138.527 9.99261H143.055C143.045 9.78994 142.991 9.57661 142.895 9.35261C142.799 9.11794 142.661 8.90461 142.479 8.71261C142.298 8.52061 142.069 8.36594 141.791 8.24861C141.514 8.12061 141.189 8.05661 140.815 8.05661C140.346 8.05661 139.93 8.17928 139.567 8.42461C139.205 8.65928 138.922 8.98994 138.719 9.41661C138.634 9.59794 138.57 9.78994 138.527 9.99261ZM146.52 15.0006V6.84061H148.152V8.04061H148.248C148.376 7.76328 148.558 7.51794 148.792 7.30461C149.038 7.09128 149.315 6.92061 149.624 6.79261C149.944 6.66461 150.275 6.60061 150.616 6.60061C150.84 6.60061 151.027 6.61661 151.176 6.64861C151.336 6.66994 151.48 6.70728 151.608 6.76061V8.55261C151.406 8.46728 151.198 8.39794 150.984 8.34461C150.782 8.29128 150.568 8.26461 150.344 8.26461C149.939 8.26461 149.576 8.37661 149.256 8.60061C148.947 8.81394 148.702 9.10194 148.52 9.46461C148.339 9.82728 148.248 10.2326 148.248 10.6806V15.0006H146.52ZM156.336 15.2566C155.536 15.2566 154.821 15.0699 154.192 14.6966C153.563 14.3233 153.067 13.8113 152.704 13.1606C152.352 12.5099 152.176 11.7686 152.176 10.9366C152.176 10.1579 152.347 9.43794 152.688 8.77661C153.029 8.11528 153.504 7.58728 154.112 7.19261C154.731 6.78728 155.44 6.58461 156.24 6.58461C157.083 6.58461 157.797 6.76594 158.384 7.12861C158.981 7.49128 159.435 7.98728 159.744 8.61661C160.053 9.24594 160.208 9.95528 160.208 10.7446C160.208 10.8619 160.203 10.9686 160.192 11.0646C160.192 11.1606 160.187 11.2353 160.176 11.2886H153.872C153.915 11.7366 154.027 12.1259 154.208 12.4566C154.443 12.8726 154.752 13.1873 155.136 13.4006C155.52 13.6139 155.936 13.7206 156.384 13.7206C156.928 13.7206 157.381 13.5979 157.744 13.3526C158.117 13.0966 158.411 12.7819 158.624 12.4086L160.048 13.0966C159.696 13.7366 159.216 14.2593 158.608 14.6646C158 15.0593 157.243 15.2566 156.336 15.2566ZM153.968 9.99261H158.496C158.485 9.78994 158.432 9.57661 158.336 9.35261C158.24 9.11794 158.101 8.90461 157.92 8.71261C157.739 8.52061 157.509 8.36594 157.232 8.24861C156.955 8.12061 156.629 8.05661 156.256 8.05661C155.787 8.05661 155.371 8.17928 155.008 8.42461C154.645 8.65928 154.363 8.98994 154.16 9.41661C154.075 9.59794 154.011 9.78994 153.968 9.99261ZM161.961 15.0006V6.84061H163.593V7.96061H163.689C163.924 7.56594 164.27 7.24061 164.729 6.98461C165.198 6.71794 165.71 6.58461 166.265 6.58461C167.268 6.58461 168.02 6.88328 168.521 7.48061C169.022 8.06728 169.273 8.85661 169.273 9.84861V15.0006H167.561V10.0726C167.561 9.41128 167.396 8.93128 167.065 8.63261C166.734 8.32328 166.302 8.16861 165.769 8.16861C165.353 8.16861 164.99 8.28594 164.681 8.52061C164.372 8.74461 164.126 9.04328 163.945 9.41661C163.774 9.78994 163.689 10.1899 163.689 10.6166V15.0006H161.961Z" fill="white"/>
</g>
</svg>
