<svg width="302" height="38" viewBox="0 0 302 38" fill="none" xmlns="http://www.w3.org/2000/svg">
<g id="de_subscribe_with_Dark">
<path id="Left Text" d="M3.14847 30V9.952H7.29247L13.1445 25.212H13.3125L19.1925 9.952H23.3365V30H20.3125V18.66L20.4805 15.104H20.3125L14.4605 30H12.0245L6.17247 15.104H6.00447L6.17247 18.66V30H3.14847ZM29.3992 13.62C28.8392 13.62 28.3539 13.424 27.9432 13.032C27.5512 12.6213 27.3552 12.136 27.3552 11.576C27.3552 11.016 27.5512 10.54 27.9432 10.148C28.3539 9.756 28.8392 9.56 29.3992 9.56C29.9592 9.56 30.4352 9.756 30.8272 10.148C31.2379 10.54 31.4432 11.016 31.4432 11.576C31.4432 12.136 31.2379 12.6213 30.8272 13.032C30.4352 13.424 29.9592 13.62 29.3992 13.62ZM27.8872 30V15.72H30.9112V30H27.8872ZM36.3385 25.856V18.352H33.8465V15.72H36.3385V11.688H39.3625V15.72H42.8625V18.352H39.3625V25.212C39.3625 25.9213 39.5025 26.4627 39.7825 26.836C40.0812 27.2093 40.5758 27.396 41.2665 27.396C41.6212 27.396 41.9198 27.3493 42.1625 27.256C42.4238 27.1627 42.6852 27.032 42.9465 26.864V29.804C42.6292 29.9347 42.2932 30.0373 41.9385 30.112C41.5838 30.1867 41.1638 30.224 40.6785 30.224C39.3532 30.224 38.2985 29.8413 37.5145 29.076C36.7305 28.292 36.3385 27.2187 36.3385 25.856Z" fill="white"/>
<g id="GPay Logo (Dark)">
<g id="GPay">
<g id="Pay">
<path id="Fill 1" fill-rule="evenodd" clip-rule="evenodd" d="M94.5289 9.34665V17.5128H99.5649C100.765 17.5128 101.757 17.1096 102.541 16.3032C103.347 15.4988 103.75 14.5394 103.75 13.4288C103.75 12.3406 103.347 11.3924 102.541 10.586C101.757 9.75916 100.765 9.34479 99.5649 9.34479H94.5289V9.34665ZM94.5289 20.3872V29.8599H91.5205V6.47218H99.4993C101.527 6.47218 103.248 7.14787 104.666 8.49738C106.105 9.84688 106.824 11.4913 106.824 13.4288C106.824 15.411 106.105 17.0667 104.666 18.3938C103.27 19.7227 101.547 20.3854 99.4993 20.3854H94.5289V20.3872Z" fill="white"/>
<path id="Fill 3" fill-rule="evenodd" clip-rule="evenodd" d="M109.864 24.9602C109.864 25.7442 110.197 26.3975 110.862 26.9201C111.527 27.4427 112.306 27.704 113.2 27.704C114.465 27.704 115.591 27.2354 116.584 26.3004C117.576 25.3634 118.071 24.264 118.071 23.0022C117.133 22.2612 115.825 21.8916 114.147 21.8916C112.925 21.8916 111.907 22.1866 111.09 22.7745C110.273 23.3623 109.864 24.0886 109.864 24.9602ZM113.756 13.3317C115.98 13.3317 117.735 13.9253 119.022 15.1124C120.308 16.2995 120.95 17.9271 120.95 19.9952V29.8599H118.073V27.6387H117.942C116.699 29.4677 115.042 30.3825 112.972 30.3825C111.206 30.3825 109.728 29.8599 108.541 28.8146C107.353 27.7694 106.759 26.4628 106.759 24.8949C106.759 23.2393 107.385 21.9232 108.638 20.9434C109.892 19.9635 111.565 19.4726 113.658 19.4726C115.444 19.4726 116.916 19.7993 118.071 20.4525V19.7657C118.071 18.7204 117.656 17.8338 116.829 17.104C115.999 16.3742 115.031 16.0102 113.919 16.0102C112.239 16.0102 110.911 16.7176 109.93 18.1343L107.28 16.4675C108.741 14.377 110.899 13.3317 113.756 13.3317Z" fill="white"/>
<path id="Fill 5" fill-rule="evenodd" clip-rule="evenodd" d="M137.463 13.8543L127.423 36.9154H124.318L128.046 28.8464L121.44 13.8543H124.71L129.484 25.3522H129.55L134.193 13.8543H137.463Z" fill="white"/>
</g>
<g id="G">
<path id="Fill 8" fill-rule="evenodd" clip-rule="evenodd" d="M82.3729 18.3452C82.3729 17.3989 82.2926 16.4861 82.1412 15.6126H69.4536V20.7885H76.7205C76.4084 22.4757 75.4648 23.9112 74.0335 24.8725V28.2341H78.3704C80.9098 25.8935 82.3729 22.4348 82.3729 18.3452Z" fill="#4285F4"/>
<path id="Fill 10" fill-rule="evenodd" clip-rule="evenodd" d="M69.4536 31.4782C73.0843 31.4782 76.1412 30.2873 78.3704 28.2341L74.0335 24.8725C72.8264 25.6844 71.2717 26.1585 69.4536 26.1585C65.9444 26.1585 62.9659 23.7955 61.9009 20.6112H57.4331V24.0736C59.6474 28.4637 64.1973 31.4782 69.4536 31.4782Z" fill="#34A853"/>
<path id="Fill 12" fill-rule="evenodd" clip-rule="evenodd" d="M61.9009 20.6111C61.6281 19.7992 61.4787 18.9331 61.4787 18.0391C61.4787 17.145 61.6281 16.2789 61.9009 15.467V12.0045H57.4332C56.5176 13.8188 56 15.8683 56 18.0391C56 20.2098 56.5176 22.2595 57.4332 24.0736L61.9009 20.6111Z" fill="#FABB05"/>
<path id="Fill 14" fill-rule="evenodd" clip-rule="evenodd" d="M69.4536 9.91964C71.4362 9.91964 73.2132 10.6009 74.6146 11.9355V11.9374L78.4545 8.10163C76.1226 5.93272 73.0824 4.60001 69.4536 4.60001C64.1973 4.60001 59.6474 7.61447 57.4331 12.0046L61.9009 15.467C62.9659 12.2827 65.9444 9.91964 69.4536 9.91964Z" fill="#E94235"/>
</g>
</g>
</g>
<path id="Right Text" d="M155.244 30.448C154.217 30.448 153.303 30.252 152.5 29.86C151.697 29.4493 151.072 28.88 150.624 28.152C150.176 27.424 149.952 26.5933 149.952 25.66C149.952 24.652 150.213 23.7933 150.736 23.084C151.277 22.356 151.996 21.8053 152.892 21.432C153.788 21.0587 154.777 20.872 155.86 20.872C156.756 20.872 157.54 20.956 158.212 21.124C158.903 21.292 159.425 21.4693 159.78 21.656V20.9C159.78 19.9667 159.444 19.22 158.772 18.66C158.1 18.1 157.232 17.82 156.168 17.82C155.44 17.82 154.749 17.988 154.096 18.324C153.443 18.6413 152.92 19.08 152.528 19.64L150.456 18.044C151.072 17.1853 151.884 16.5133 152.892 16.028C153.919 15.524 155.039 15.272 156.252 15.272C158.324 15.272 159.92 15.7853 161.04 16.812C162.16 17.82 162.72 19.2387 162.72 21.068V30H159.78V28.236H159.612C159.239 28.8147 158.679 29.328 157.932 29.776C157.185 30.224 156.289 30.448 155.244 30.448ZM155.776 27.984C156.56 27.984 157.251 27.7973 157.848 27.424C158.445 27.0507 158.912 26.5653 159.248 25.968C159.603 25.352 159.78 24.6893 159.78 23.98C159.351 23.7373 158.847 23.5413 158.268 23.392C157.689 23.224 157.073 23.14 156.42 23.14C155.188 23.14 154.311 23.392 153.788 23.896C153.265 24.3813 153.004 24.9787 153.004 25.688C153.004 26.36 153.256 26.9107 153.76 27.34C154.264 27.7693 154.936 27.984 155.776 27.984ZM173.965 30.448C172.864 30.448 171.912 30.2147 171.109 29.748C170.325 29.2627 169.746 28.712 169.373 28.096H169.205V30H166.349V9.952H169.373V15.664L169.205 17.652H169.373C169.746 17.036 170.325 16.4853 171.109 16C171.912 15.5147 172.864 15.272 173.965 15.272C175.272 15.272 176.438 15.5987 177.465 16.252C178.492 16.9053 179.304 17.8013 179.901 18.94C180.517 20.0787 180.825 21.3853 180.825 22.86C180.825 24.3347 180.517 25.6507 179.901 26.808C179.304 27.9467 178.492 28.8427 177.465 29.496C176.438 30.1307 175.272 30.448 173.965 30.448ZM173.517 27.676C174.264 27.676 174.964 27.48 175.617 27.088C176.27 26.696 176.802 26.1453 177.213 25.436C177.624 24.708 177.829 23.8493 177.829 22.86C177.829 21.8707 177.624 21.0213 177.213 20.312C176.802 19.584 176.27 19.024 175.617 18.632C174.964 18.24 174.264 18.044 173.517 18.044C172.77 18.044 172.07 18.24 171.417 18.632C170.764 19.024 170.232 19.584 169.821 20.312C169.41 21.0213 169.205 21.8707 169.205 22.86C169.205 23.8493 169.41 24.708 169.821 25.436C170.232 26.1453 170.764 26.696 171.417 27.088C172.07 27.48 172.77 27.676 173.517 27.676ZM190.623 30.448C189.148 30.448 187.851 30.112 186.731 29.44C185.611 28.768 184.734 27.8627 184.099 26.724C183.464 25.5853 183.147 24.2973 183.147 22.86C183.147 21.4413 183.464 20.1627 184.099 19.024C184.734 17.8667 185.611 16.952 186.731 16.28C187.851 15.608 189.148 15.272 190.623 15.272C192.079 15.272 193.367 15.608 194.487 16.28C195.607 16.952 196.484 17.8667 197.119 19.024C197.754 20.1627 198.071 21.4413 198.071 22.86C198.071 24.2973 197.754 25.5853 197.119 26.724C196.484 27.8627 195.607 28.768 194.487 29.44C193.367 30.112 192.079 30.448 190.623 30.448ZM190.623 27.676C191.407 27.676 192.135 27.4893 192.807 27.116C193.479 26.724 194.02 26.1733 194.431 25.464C194.86 24.736 195.075 23.868 195.075 22.86C195.075 21.852 194.86 20.9933 194.431 20.284C194.02 19.556 193.479 19.0053 192.807 18.632C192.135 18.24 191.407 18.044 190.623 18.044C189.839 18.044 189.102 18.24 188.411 18.632C187.739 19.0053 187.188 19.556 186.759 20.284C186.348 20.9933 186.143 21.852 186.143 22.86C186.143 23.868 186.348 24.736 186.759 25.464C187.188 26.1733 187.739 26.724 188.411 27.116C189.102 27.4893 189.839 27.676 190.623 27.676ZM200.883 30V15.72H203.739V17.68H203.907C204.317 16.9893 204.924 16.42 205.727 15.972C206.548 15.5053 207.444 15.272 208.415 15.272C210.169 15.272 211.485 15.7947 212.363 16.84C213.24 17.8853 213.679 19.2667 213.679 20.984V30H210.683V21.376C210.683 20.2187 210.393 19.3787 209.815 18.856C209.236 18.3147 208.48 18.044 207.547 18.044C206.819 18.044 206.184 18.2493 205.643 18.66C205.101 19.052 204.672 19.5747 204.355 20.228C204.056 20.8813 203.907 21.5813 203.907 22.328V30H200.883ZM217.425 30V15.72H220.281V17.68H220.449C220.86 16.9893 221.466 16.42 222.269 15.972C223.09 15.5053 223.986 15.272 224.957 15.272C226.712 15.272 228.028 15.7947 228.905 16.84C229.782 17.8853 230.221 19.2667 230.221 20.984V30H227.225V21.376C227.225 20.2187 226.936 19.3787 226.357 18.856C225.778 18.3147 225.022 18.044 224.089 18.044C223.361 18.044 222.726 18.2493 222.185 18.66C221.644 19.052 221.214 19.5747 220.897 20.228C220.598 20.8813 220.449 21.5813 220.449 22.328V30H217.425ZM235.703 13.62C235.143 13.62 234.658 13.424 234.247 13.032C233.855 12.6213 233.659 12.136 233.659 11.576C233.659 11.016 233.855 10.54 234.247 10.148C234.658 9.756 235.143 9.56 235.703 9.56C236.263 9.56 236.739 9.756 237.131 10.148C237.542 10.54 237.747 11.016 237.747 11.576C237.747 12.136 237.542 12.6213 237.131 13.032C236.739 13.424 236.263 13.62 235.703 13.62ZM234.191 30V15.72H237.215V30H234.191ZM247.654 30.448C246.254 30.448 245.004 30.1213 243.902 29.468C242.801 28.8147 241.933 27.9187 241.298 26.78C240.682 25.6413 240.374 24.344 240.374 22.888C240.374 21.5253 240.673 20.2653 241.27 19.108C241.868 17.9507 242.698 17.0267 243.762 16.336C244.845 15.6267 246.086 15.272 247.486 15.272C248.961 15.272 250.212 15.5893 251.238 16.224C252.284 16.8587 253.077 17.7267 253.618 18.828C254.16 19.9293 254.43 21.1707 254.43 22.552C254.43 22.7573 254.421 22.944 254.402 23.112C254.402 23.28 254.393 23.4107 254.374 23.504H243.342C243.492 24.9227 243.986 25.9867 244.826 26.696C245.685 27.4053 246.656 27.76 247.738 27.76C248.709 27.76 249.512 27.5453 250.146 27.116C250.781 26.668 251.285 26.1173 251.658 25.464L254.15 26.668C253.534 27.788 252.694 28.7027 251.63 29.412C250.566 30.1027 249.241 30.448 247.654 30.448ZM247.514 17.848C246.506 17.848 245.648 18.156 244.938 18.772C244.229 19.388 243.753 20.2093 243.51 21.236H251.434C251.397 20.7507 251.238 20.2467 250.958 19.724C250.678 19.2013 250.249 18.7627 249.67 18.408C249.11 18.0347 248.392 17.848 247.514 17.848ZM257.536 30V15.72H260.392V17.82H260.56C260.877 17.092 261.419 16.4947 262.184 16.028C262.968 15.5427 263.808 15.3 264.704 15.3C265.096 15.3 265.423 15.328 265.684 15.384C265.964 15.44 266.216 15.5053 266.44 15.58V18.716C266.085 18.5667 265.721 18.4453 265.348 18.352C264.993 18.2587 264.62 18.212 264.228 18.212C263.519 18.212 262.884 18.408 262.324 18.8C261.783 19.1733 261.353 19.6867 261.036 20.34C260.719 20.9747 260.56 21.6747 260.56 22.44V30H257.536ZM274.751 30.448C273.351 30.448 272.1 30.1213 270.999 29.468C269.897 28.8147 269.029 27.9187 268.395 26.78C267.779 25.6413 267.471 24.344 267.471 22.888C267.471 21.5253 267.769 20.2653 268.367 19.108C268.964 17.9507 269.795 17.0267 270.859 16.336C271.941 15.6267 273.183 15.272 274.583 15.272C276.057 15.272 277.308 15.5893 278.335 16.224C279.38 16.8587 280.173 17.7267 280.715 18.828C281.256 19.9293 281.527 21.1707 281.527 22.552C281.527 22.7573 281.517 22.944 281.499 23.112C281.499 23.28 281.489 23.4107 281.471 23.504H270.439C270.588 24.9227 271.083 25.9867 271.923 26.696C272.781 27.4053 273.752 27.76 274.835 27.76C275.805 27.76 276.608 27.5453 277.243 27.116C277.877 26.668 278.381 26.1173 278.755 25.464L281.247 26.668C280.631 27.788 279.791 28.7027 278.727 29.412C277.663 30.1027 276.337 30.448 274.751 30.448ZM274.611 17.848C273.603 17.848 272.744 18.156 272.035 18.772C271.325 19.388 270.849 20.2093 270.607 21.236H278.531C278.493 20.7507 278.335 20.2467 278.055 19.724C277.775 19.2013 277.345 18.7627 276.767 18.408C276.207 18.0347 275.488 17.848 274.611 17.848ZM284.632 30V15.72H287.488V17.68H287.656C288.067 16.9893 288.673 16.42 289.476 15.972C290.297 15.5053 291.193 15.272 292.164 15.272C293.919 15.272 295.235 15.7947 296.112 16.84C296.989 17.8853 297.428 19.2667 297.428 20.984V30H294.432V21.376C294.432 20.2187 294.143 19.3787 293.564 18.856C292.985 18.3147 292.229 18.044 291.296 18.044C290.568 18.044 289.933 18.2493 289.392 18.66C288.851 19.052 288.421 19.5747 288.104 20.228C287.805 20.8813 287.656 21.5813 287.656 22.328V30H284.632Z" fill="white"/>
</g>
</svg>
