<svg width="244" height="38" viewBox="0 0 244 38" fill="none" xmlns="http://www.w3.org/2000/svg">
<g id="de_view_in_Light">
<path id="Left Text" d="M4.09691 30V9.952H7.17691V30H4.09691ZM11.5218 30V15.72H14.3778V17.68H14.5458C14.9565 16.9893 15.5631 16.42 16.3658 15.972C17.1871 15.5053 18.0831 15.272 19.0538 15.272C20.8085 15.272 22.1245 15.7947 23.0018 16.84C23.8791 17.8853 24.3178 19.2667 24.3178 20.984V30H21.3218V21.376C21.3218 20.2187 21.0325 19.3787 20.4538 18.856C19.8751 18.3147 19.1191 18.044 18.1858 18.044C17.4578 18.044 16.8231 18.2493 16.2818 18.66C15.7405 19.052 15.3111 19.5747 14.9938 20.228C14.6951 20.8813 14.5458 21.5813 14.5458 22.328V30H11.5218Z" fill="#3C4043"/>
<g id="GPay Logo (Light)">
<g id="GPay">
<g id="Pay">
<path id="Fill 1" fill-rule="evenodd" clip-rule="evenodd" d="M76.5289 9.44664V17.6128H81.5649C82.7645 17.6128 83.7565 17.2096 84.5413 16.4032C85.3467 15.5988 85.7503 14.6394 85.7503 13.5288C85.7503 12.4406 85.3467 11.4924 84.5413 10.686C83.7565 9.85915 82.7645 9.44478 81.5649 9.44478H76.5289V9.44664ZM76.5289 20.4872V29.9599H73.5205V6.57217H81.4993C83.5269 6.57217 85.2478 7.24786 86.6659 8.59737C88.1049 9.94688 88.8241 11.5913 88.8241 13.5288C88.8241 15.511 88.1047 17.1667 86.6659 18.4938C85.2701 19.8227 83.5473 20.4854 81.4993 20.4854H76.5289V20.4872Z" fill="#5F6368"/>
<path id="Fill 3" fill-rule="evenodd" clip-rule="evenodd" d="M91.8642 25.0602C91.8642 25.8442 92.1968 26.4975 92.8622 27.0201C93.5272 27.5427 94.3064 27.804 95.1998 27.804C96.4646 27.804 97.5913 27.3354 98.5835 26.4004C99.5759 25.4634 100.071 24.364 100.071 23.1022C99.1329 22.3612 97.8249 21.9916 96.1469 21.9916C94.9251 21.9916 93.9067 22.2865 93.0901 22.8745C92.2734 23.4623 91.8642 24.1886 91.8642 25.0602ZM95.7564 13.4317C97.98 13.4317 99.7346 14.0252 101.022 15.2124C102.308 16.3995 102.95 18.0271 102.95 20.0952V29.9599H100.073V27.7387H99.942C98.6994 29.5677 97.042 30.4825 94.9718 30.4825C93.206 30.4825 91.7279 29.9599 90.5412 28.9146C89.353 27.8694 88.7588 26.5628 88.7588 24.9949C88.7588 23.3393 89.3846 22.0232 90.6384 21.0434C91.8922 20.0635 93.5648 19.5726 95.6576 19.5726C97.4437 19.5726 98.9162 19.8992 100.071 20.5525V19.8656C100.071 18.8204 99.6561 17.9338 98.8285 17.204C97.9987 16.4741 97.0308 16.1102 95.919 16.1102C94.2391 16.1102 92.9108 16.8176 91.9298 18.2343L89.2799 16.5675C90.7412 14.4769 92.8994 13.4317 95.7564 13.4317Z" fill="#5F6368"/>
<path id="Fill 5" fill-rule="evenodd" clip-rule="evenodd" d="M119.463 13.9543L109.423 37.0154H106.318L110.046 28.9464L103.44 13.9543H106.71L111.484 25.4522H111.55L116.193 13.9543H119.463Z" fill="#5F6368"/>
</g>
<g id="G">
<path id="Fill 8" fill-rule="evenodd" clip-rule="evenodd" d="M64.3729 18.4452C64.3729 17.4989 64.2926 16.5861 64.1412 15.7126H51.4536V20.8885H58.7205C58.4084 22.5757 57.4648 24.0112 56.0335 24.9725V28.3341H60.3704C62.9098 25.9935 64.3729 22.5348 64.3729 18.4452Z" fill="#4285F4"/>
<path id="Fill 10" fill-rule="evenodd" clip-rule="evenodd" d="M51.4536 31.5782C55.0843 31.5782 58.1412 30.3873 60.3704 28.3341L56.0335 24.9725C54.8264 25.7844 53.2717 26.2585 51.4536 26.2585C47.9444 26.2585 44.9659 23.8955 43.9009 20.7112H39.4331V24.1736C41.6474 28.5637 46.1973 31.5782 51.4536 31.5782Z" fill="#34A853"/>
<path id="Fill 12" fill-rule="evenodd" clip-rule="evenodd" d="M43.9009 20.7111C43.6281 19.8992 43.4787 19.0331 43.4787 18.139C43.4787 17.245 43.6281 16.3789 43.9009 15.567V12.1045H39.4332C38.5176 13.9188 38 15.9683 38 18.139C38 20.3098 38.5176 22.3595 39.4332 24.1736L43.9009 20.7111Z" fill="#FABB05"/>
<path id="Fill 14" fill-rule="evenodd" clip-rule="evenodd" d="M51.4536 10.0196C53.4362 10.0196 55.2132 10.7009 56.6146 12.0355V12.0374L60.4545 8.20162C58.1226 6.03271 55.0824 4.7 51.4536 4.7C46.1973 4.7 41.6474 7.71446 39.4331 12.1046L43.9009 15.567C44.9659 12.3827 47.9444 10.0196 51.4536 10.0196Z" fill="#E94235"/>
</g>
</g>
</g>
<path id="Right Text" d="M137.244 30.448C136.217 30.448 135.303 30.252 134.5 29.86C133.697 29.4493 133.072 28.88 132.624 28.152C132.176 27.424 131.952 26.5933 131.952 25.66C131.952 24.652 132.213 23.7933 132.736 23.084C133.277 22.356 133.996 21.8053 134.892 21.432C135.788 21.0587 136.777 20.872 137.86 20.872C138.756 20.872 139.54 20.956 140.212 21.124C140.903 21.292 141.425 21.4693 141.78 21.656V20.9C141.78 19.9667 141.444 19.22 140.772 18.66C140.1 18.1 139.232 17.82 138.168 17.82C137.44 17.82 136.749 17.988 136.096 18.324C135.443 18.6413 134.92 19.08 134.528 19.64L132.456 18.044C133.072 17.1853 133.884 16.5133 134.892 16.028C135.919 15.524 137.039 15.272 138.252 15.272C140.324 15.272 141.92 15.7853 143.04 16.812C144.16 17.82 144.72 19.2387 144.72 21.068V30H141.78V28.236H141.612C141.239 28.8147 140.679 29.328 139.932 29.776C139.185 30.224 138.289 30.448 137.244 30.448ZM137.776 27.984C138.56 27.984 139.251 27.7973 139.848 27.424C140.445 27.0507 140.912 26.5653 141.248 25.968C141.603 25.352 141.78 24.6893 141.78 23.98C141.351 23.7373 140.847 23.5413 140.268 23.392C139.689 23.224 139.073 23.14 138.42 23.14C137.188 23.14 136.311 23.392 135.788 23.896C135.265 24.3813 135.004 24.9787 135.004 25.688C135.004 26.36 135.256 26.9107 135.76 27.34C136.264 27.7693 136.936 27.984 137.776 27.984ZM148.349 30V15.72H151.205V17.68H151.373C151.784 16.9893 152.39 16.42 153.193 15.972C154.014 15.5053 154.91 15.272 155.881 15.272C157.636 15.272 158.952 15.7947 159.829 16.84C160.706 17.8853 161.145 19.2667 161.145 20.984V30H158.149V21.376C158.149 20.2187 157.86 19.3787 157.281 18.856C156.702 18.3147 155.946 18.044 155.013 18.044C154.285 18.044 153.65 18.2493 153.109 18.66C152.568 19.052 152.138 19.5747 151.821 20.228C151.522 20.8813 151.373 21.5813 151.373 22.328V30H148.349ZM169.963 30.448C168.245 30.448 166.873 30.0747 165.847 29.328C164.82 28.5627 164.111 27.6573 163.719 26.612L166.435 25.436C166.771 26.2013 167.256 26.7893 167.891 27.2C168.525 27.592 169.244 27.788 170.047 27.788C170.793 27.788 171.437 27.6573 171.979 27.396C172.52 27.116 172.791 26.668 172.791 26.052C172.791 25.4547 172.52 25.016 171.979 24.736C171.437 24.456 170.765 24.2133 169.963 24.008L168.255 23.616C167.564 23.448 166.92 23.1867 166.323 22.832C165.725 22.4773 165.24 22.02 164.867 21.46C164.493 20.8813 164.307 20.2093 164.307 19.444C164.307 18.604 164.559 17.876 165.063 17.26C165.567 16.6253 166.229 16.14 167.051 15.804C167.891 15.4493 168.796 15.272 169.767 15.272C171.092 15.272 172.249 15.5333 173.239 16.056C174.247 16.56 174.984 17.3253 175.451 18.352L172.847 19.528C172.511 18.8933 172.072 18.4547 171.531 18.212C171.008 17.9507 170.429 17.82 169.795 17.82C169.085 17.82 168.488 17.9693 168.003 18.268C167.536 18.5667 167.303 18.94 167.303 19.388C167.303 19.8733 167.508 20.256 167.919 20.536C168.348 20.816 168.871 21.04 169.487 21.208L171.559 21.712C172.977 22.0667 174.041 22.608 174.751 23.336C175.46 24.0453 175.815 24.9133 175.815 25.94C175.815 26.8547 175.553 27.6573 175.031 28.348C174.508 29.02 173.799 29.5427 172.903 29.916C172.025 30.2707 171.045 30.448 169.963 30.448ZM185.415 30.448C184.015 30.448 182.764 30.1213 181.663 29.468C180.561 28.8147 179.693 27.9187 179.059 26.78C178.443 25.6413 178.135 24.344 178.135 22.888C178.135 21.5253 178.433 20.2653 179.031 19.108C179.628 17.9507 180.459 17.0267 181.523 16.336C182.605 15.6267 183.847 15.272 185.247 15.272C186.721 15.272 187.972 15.5893 188.999 16.224C190.044 16.8587 190.837 17.7267 191.379 18.828C191.92 19.9293 192.191 21.1707 192.191 22.552C192.191 22.7573 192.181 22.944 192.163 23.112C192.163 23.28 192.153 23.4107 192.135 23.504H181.103C181.252 24.9227 181.747 25.9867 182.587 26.696C183.445 27.4053 184.416 27.76 185.499 27.76C186.469 27.76 187.272 27.5453 187.907 27.116C188.541 26.668 189.045 26.1173 189.419 25.464L191.911 26.668C191.295 27.788 190.455 28.7027 189.391 29.412C188.327 30.1027 187.001 30.448 185.415 30.448ZM185.275 17.848C184.267 17.848 183.408 18.156 182.699 18.772C181.989 19.388 181.513 20.2093 181.271 21.236H189.195C189.157 20.7507 188.999 20.2467 188.719 19.724C188.439 19.2013 188.009 18.7627 187.431 18.408C186.871 18.0347 186.152 17.848 185.275 17.848ZM195.296 30V9.952H198.32V15.44L198.152 17.68H198.32C198.712 16.9893 199.309 16.42 200.112 15.972C200.933 15.5053 201.839 15.272 202.828 15.272C204.601 15.272 205.936 15.804 206.832 16.868C207.728 17.9133 208.176 19.2853 208.176 20.984V30H205.18V21.376C205.18 20.2187 204.872 19.3787 204.256 18.856C203.659 18.3147 202.921 18.044 202.044 18.044C201.316 18.044 200.672 18.2493 200.112 18.66C199.552 19.0707 199.113 19.612 198.796 20.284C198.479 20.9373 198.32 21.6373 198.32 22.384V30H195.296ZM218.444 30.448C217.044 30.448 215.794 30.1213 214.692 29.468C213.591 28.8147 212.723 27.9187 212.088 26.78C211.472 25.6413 211.164 24.344 211.164 22.888C211.164 21.5253 211.463 20.2653 212.06 19.108C212.658 17.9507 213.488 17.0267 214.552 16.336C215.635 15.6267 216.876 15.272 218.276 15.272C219.751 15.272 221.002 15.5893 222.028 16.224C223.074 16.8587 223.867 17.7267 224.408 18.828C224.95 19.9293 225.22 21.1707 225.22 22.552C225.22 22.7573 225.211 22.944 225.192 23.112C225.192 23.28 225.183 23.4107 225.164 23.504H214.132C214.282 24.9227 214.776 25.9867 215.616 26.696C216.475 27.4053 217.446 27.76 218.528 27.76C219.499 27.76 220.302 27.5453 220.936 27.116C221.571 26.668 222.075 26.1173 222.448 25.464L224.94 26.668C224.324 27.788 223.484 28.7027 222.42 29.412C221.356 30.1027 220.031 30.448 218.444 30.448ZM218.304 17.848C217.296 17.848 216.438 18.156 215.728 18.772C215.019 19.388 214.543 20.2093 214.3 21.236H222.224C222.187 20.7507 222.028 20.2467 221.748 19.724C221.468 19.2013 221.039 18.7627 220.46 18.408C219.9 18.0347 219.182 17.848 218.304 17.848ZM228.326 30V15.72H231.182V17.68H231.35C231.76 16.9893 232.367 16.42 233.17 15.972C233.991 15.5053 234.887 15.272 235.858 15.272C237.612 15.272 238.928 15.7947 239.806 16.84C240.683 17.8853 241.122 19.2667 241.122 20.984V30H238.126V21.376C238.126 20.2187 237.836 19.3787 237.258 18.856C236.679 18.3147 235.923 18.044 234.99 18.044C234.262 18.044 233.627 18.2493 233.086 18.66C232.544 19.052 232.115 19.5747 231.798 20.228C231.499 20.8813 231.35 21.5813 231.35 22.328V30H228.326Z" fill="#3C4043"/>
</g>
</svg>
